<?xml version="1.0" encoding="UTF-8"?>
<!DOCTYPE svg PUBLIC "-//W3C//DTD SVG 1.1//EN" "http://www.w3.org/Graphics/SVG/1.1/DTD/svg11.dtd">
<!-- Creator: CorelDRAW 2020 (64-Bit) -->
<svg xmlns="http://www.w3.org/2000/svg" xml:space="preserve" width="212.079mm" height="212.079mm" version="1.1" style="shape-rendering:geometricPrecision; text-rendering:geometricPrecision; image-rendering:optimizeQuality; fill-rule:evenodd; clip-rule:evenodd"
viewBox="0 0 145.12 145.12"
 xmlns:xlink="http://www.w3.org/1999/xlink"
 xmlns:xodm="http://www.corel.com/coreldraw/odm/2003">
 <defs>
  <style type="text/css">
   <![CDATA[
    .fil2 {fill:black}
    .fil4 {fill:#BED9DC}
    .fil1 {fill:#E3F4F6}
    .fil3 {fill:#F99F28}
    .fil0 {fill:#FDC870}
   ]]>
  </style>
 </defs>
 <g id="Capa_x0020_1">
  <metadata id="CorelCorpID_0Corel-Layer"/>
  <g id="_2446347273696">
   <path class="fil0" d="M131.81 131.3c0.42,1.47 -0.43,2.53 -1.49,2.76 -1.72,0.37 -3.29,-1.6 -5.57,-3.43l-24.25 -20.24c-1.55,-1.36 -3.37,-2.72 -4.96,-4.11 -0.82,-0.72 -1.87,-1.18 -2.12,-2.41 -0.3,-1.52 0.48,-2.14 1.64,-2.45 1.23,-0.33 1.97,0.49 2.76,1.16l17.01 14.17c1.47,1.25 16.6,13.18 16.99,14.56zm-113.63 -61.96c-0.38,4.33 -0.07,10.07 -0.07,14.56 0,6.88 -0.34,22.34 0.63,28.29 1.22,7.47 2.27,7.12 3.49,11.21l14.4 -11.94c2.46,-1.93 4.74,-3.95 7.13,-5.91 2.39,-1.96 6.09,-6.02 7.67,-3.31 1.19,2.03 -0.97,3.38 -1.96,4.2l-24.88 20.77c1.26,1.11 2.01,2.4 3.23,3.45 0.99,0.86 2.33,1.95 3.52,2.72 5.34,3.41 12.6,5.19 18.92,6.61 8.68,1.95 58.74,-0.15 61.92,0.88 1.7,0.3 1.86,0.67 2.23,2.3l4.23 0c0.86,-3.85 3.98,-1.83 11.33,-2.38 2.08,-0.15 3.76,-0.63 5.25,-1.58 5.9,-3.77 5.57,-8.36 5.57,-14.47l-0.01 -66.83c-1.34,0.67 -25.06,20.86 -28.47,23.54 -6.29,4.94 -15.08,12.49 -21.32,17.79 -8.41,7.14 -18.93,8.96 -29.4,4.73 -5.43,-2.19 -16.9,-12.75 -22.16,-16.96 -1.29,-1.04 -2.35,-1.96 -3.56,-2.96l-10.66 -8.89c-2.23,-1.97 -4.62,-3.89 -7.04,-5.78z"/>
   <path class="fil1" d="M41.95 64.01c-4.13,0 -4.41,-4.31 0,-4.31l61.22 0c1.88,0 3.23,0.41 3.08,2.34 -0.13,1.58 -1.46,1.97 -3.08,1.97l-61.22 0zm58.1 -16.83c1.67,-0 4.35,-0.44 5.53,0.57 1.37,1.18 0.58,3.2 -0.89,3.61 -1.39,0.39 -10.17,0.12 -12.29,0.12 -1.7,0 -4.51,0.4 -5.55,-0.59 -0.41,-0.39 -1.65,-2.8 1.2,-3.58 1.41,-0.39 9.83,-0.13 12.01,-0.13zm-35.15 0c2.2,0 16.45,-0.57 17.73,0.56 1.13,1.01 0.8,3.14 -0.91,3.61 -1.75,0.49 -30.66,0.13 -36.66,0.13 -1.67,0 -4.41,0.46 -5.55,-0.6 -1.36,-1.27 -0.78,-3.11 1.16,-3.59 1.29,-0.32 21.13,-0.11 24.23,-0.11zm-24.31 -12.4c1.52,-0.37 55.41,-0.22 62.6,-0.12 4.31,0.06 3.43,3.6 1.63,4.15 -2.39,0.73 -30.98,0.16 -35.94,0.16l-26.94 0.01c-4.21,-0.07 -3.74,-3.63 -1.34,-4.2zm-20.06 -10.53c0.54,1.89 -0.03,29.04 0.14,33.86 0.05,1.51 0.72,1.59 1.65,2.33 0.85,0.67 1.58,1.3 2.31,1.94l9.28 7.72c1.11,0.87 3.9,3.42 4.97,3.95 0.79,-2.52 2.76,-1.84 7.04,-1.84l53 0c1.48,0 3.09,-0.06 4.55,-0.01 1.88,0.07 2.29,0.39 2.76,1.84l16.39 -13.49c0.77,-0.63 1.71,-0.95 1.82,-2.19 0.51,-5.87 -0.63,-31.4 0.14,-34.09 0.34,-3.23 -1.46,-6 -3.17,-8.23 -1.27,-1.65 -4.35,-3.61 -7.35,-4.23 -3.86,-0.8 -38.82,-0.31 -45.76,-0.31l-17.3 0.01c-2.24,0 -3.18,-0.08 -3.56,-2.16l-4.37 0c-0.51,2.88 -2.8,2.16 -7.07,2.15 -5.91,-0.01 -9.54,1 -13.18,5.64 -1.07,1.37 -2.57,4.66 -2.28,7.11z"/>
   <path class="fil2" d="M129.15 44.62c2.11,1.16 7.52,6.45 10.35,8.26 -0.52,0.96 -1.76,1.75 -2.58,2.41l-6.3 5.3c-0.16,0.13 -0.55,0.43 -0.66,0.5 -0.73,0.51 0.07,0.08 -0.81,0.49l-0 -16.97zm-58.23 -44.62l3.6 0c4.19,0.28 8.35,1.56 12.27,3.91l3.97 2.83c2.32,1.39 19.91,-1.13 26.83,1.51 3.88,1.48 7.56,4.53 9.43,8.14 2.59,4.99 2.22,8.12 2.22,15.35 0,3.73 -0.59,6.65 0.92,7.87l11.92 9.9c0.86,0.73 1.51,1.13 2.32,1.94 0.43,0.44 0.63,0.84 0.71,1.31l0 68.27 0 8.87c-0.16,2.48 -0.61,4.71 -1.79,6.91 -1.91,3.54 -5.45,6.7 -9.77,7.81 -1.32,0.34 -2.58,0.46 -3.94,0.5l-4.34 0 -4.87 0c-0.95,-0.17 -1.42,-0.67 -1.78,-1.98 0.86,-3.85 3.98,-1.83 11.33,-2.38 2.08,-0.15 3.76,-0.63 5.25,-1.58 5.9,-3.77 5.57,-8.36 5.57,-14.47l-0.01 -66.83c-1.34,0.67 -25.06,20.86 -28.47,23.54 -6.29,4.94 -15.08,12.49 -21.32,17.79 -8.41,7.14 -18.93,8.96 -29.4,4.73 -5.43,-2.19 -16.9,-12.75 -22.16,-16.96 -1.29,-1.04 -2.35,-1.96 -3.56,-2.96l-10.66 -8.89c-2.23,-1.97 -4.62,-3.89 -7.04,-5.78 -0.54,-0.69 -2.43,-2.1 -3.47,-2.98l-6.96 -5.8c-0.91,-0.75 -2.42,-2.15 -3.43,-2.7 -0.22,15.9 -0.01,31.95 -0.01,47.86 0,7.71 -0.32,16.13 0.02,23.76 0.31,7.04 5.14,11.29 12.38,11.33 31.8,0.19 63.67,-0.29 95.46,0.03 1.7,0.3 1.86,0.67 2.23,2.3 -0.4,1.29 -0.87,1.8 -1.86,1.98l-5.69 0 -84.18 0 -7.14 0c-3.38,-0.13 -6.04,-0.69 -8.82,-2.75 -3.58,-2.64 -6.5,-6.84 -6.71,-11.53l0 -28.5 0.02 -49.6c0.12,-0.74 0.4,-1.01 0.84,-1.42 3.16,-2.94 9.18,-7.47 12.67,-10.57 2.9,-2.58 2.34,-0.92 2.34,-7.01 -0,-10.92 -0.89,-15.2 6.02,-22.04 3.76,-3.73 8.56,-4.6 14.11,-4.6 3.29,0 6.88,-0.79 7.07,2.27 -0.51,2.88 -2.8,2.16 -7.07,2.15 -5.91,-0.01 -9.54,1 -13.18,5.64 -1.07,1.37 -2.57,4.66 -2.28,7.11 -0.72,0.97 -0.28,28.43 -0.28,32.15 -0,2.58 -0.09,5.41 -0,7.95 0.06,1.62 0.69,1.58 1.54,2.29l29.08 24.21c1.45,1.27 2.81,2.43 4.32,3.61 4.97,3.91 8.89,7.43 17.37,7.42 11.16,-0.01 17.41,-7.75 26.03,-14.64 1.63,-1.31 2.86,-2.43 4.46,-3.75 3.01,-2.48 5.91,-5.02 9,-7.45l10.98 -9.14c0.9,-0.79 1.73,-0.88 1.84,-2.29 0.34,-4.47 0.04,-39.93 -0.28,-40.34 0.34,-3.23 -1.46,-6 -3.17,-8.23 -1.27,-1.65 -4.35,-3.61 -7.35,-4.23 -3.86,-0.8 -38.82,-0.31 -45.76,-0.31l-17.3 0.01c-2.24,0 -3.18,-0.08 -3.56,-2.16 -0.11,-1.37 0.94,-2.09 2.18,-2.25 1.13,-0.15 3.19,0.17 4.16,-0.09 0.55,-0.15 3.32,-2.47 5.27,-3.52 3.8,-2.04 7.82,-3.22 11.87,-3.49zm-65.3 52.88c2.77,-1.76 6.73,-5.77 10.33,-8.27l0.01 17c-1.75,-1.09 -6.04,-4.95 -7.92,-6.43 -0.53,-0.41 -0.62,-0.49 -1.23,-1.02 -0.27,-0.23 -0.43,-0.34 -0.62,-0.53 -0.57,-0.59 -0.16,0.02 -0.56,-0.75zm56.29 -45.68c0.06,-0.06 0.14,-0.13 0.19,-0.17 0.05,-0.04 0.13,-0.12 0.19,-0.17 0.06,-0.05 0.13,-0.11 0.19,-0.15 0.15,-0.11 0.4,-0.27 0.56,-0.36l3.57 -1.22c4.97,-1.34 9.7,-0.9 14.46,0.82 0.4,0.15 0.81,0.29 1.18,0.52 0.38,0.23 0.26,0.17 0.57,0.4l-20.92 0.34z"/>
   <path class="fil3" d="M112.17 140.84c-3.18,-1.02 -53.24,1.07 -61.92,-0.88 -6.33,-1.42 -13.59,-3.19 -18.92,-6.61 -1.2,-0.76 -2.53,-1.86 -3.52,-2.72 -1.21,-1.05 -1.96,-2.34 -3.23,-3.45l-7.92 6.53c-2.51,1.52 -5.17,-1.64 -2.17,-3.87l7.73 -6.46c-1.22,-4.09 -2.27,-3.74 -3.49,-11.21 -0.97,-5.95 -0.63,-21.42 -0.63,-28.29 0,-4.48 -0.31,-10.23 0.07,-14.56 -0.54,-0.69 -2.43,-2.1 -3.47,-2.98l-6.96 -5.8c-0.91,-0.75 -2.42,-2.15 -3.43,-2.7 -0.22,15.9 -0.01,31.95 -0.01,47.86 0,7.71 -0.32,16.13 0.02,23.76 0.31,7.04 5.14,11.29 12.38,11.33 31.8,0.19 63.67,-0.29 95.46,0.03z"/>
   <path class="fil4" d="M124.59 24.28c-0.77,2.68 0.37,28.22 -0.14,34.09 -0.11,1.25 -1.05,1.56 -1.82,2.19l-16.39 13.49c0.01,1.9 -1,2.45 -2.95,2.47l-13.26 11.23c-10.47,9.19 -24.08,9.18 -35.04,-0.15l-9.92 -8.23c-0.88,-0.77 -2.61,-1.96 -3.24,-2.85 -1.94,-0.01 -2.97,-0.48 -2.95,-2.47 -1.07,-0.53 -3.86,-3.07 -4.97,-3.95l-9.28 -7.72c-0.73,-0.64 -1.46,-1.27 -2.31,-1.94 -0.94,-0.74 -1.6,-0.82 -1.65,-2.33 -0.17,-4.83 0.4,-31.97 -0.14,-33.86 -0.72,0.97 -0.28,28.43 -0.28,32.15 -0,2.58 -0.09,5.41 -0,7.95 0.06,1.62 0.69,1.58 1.54,2.29l29.08 24.21c1.45,1.27 2.81,2.43 4.32,3.61 4.97,3.91 8.89,7.43 17.37,7.42 11.16,-0.01 17.41,-7.75 26.03,-14.64 1.63,-1.31 2.86,-2.43 4.46,-3.75 3.01,-2.48 5.91,-5.02 9,-7.45l10.98 -9.14c0.9,-0.79 1.73,-0.88 1.84,-2.29 0.34,-4.47 0.04,-39.93 -0.28,-40.34z"/>
   <path class="fil1" d="M103.28 76.52l-61.45 -0c0.63,0.89 2.36,2.08 3.24,2.85l9.92 8.23c10.96,9.33 24.57,9.35 35.04,0.15l13.26 -11.23z"/>
   <path class="fil2" d="M40.59 34.78c-2.39,0.58 -2.86,4.14 1.34,4.2l26.94 -0.01c4.96,0 33.55,0.57 35.94,-0.16 1.8,-0.55 2.68,-4.09 -1.63,-4.15 -7.18,-0.1 -61.08,-0.24 -62.6,0.12z"/>
   <path class="fil2" d="M41.95 64.01l61.22 0c1.61,0 2.95,-0.39 3.08,-1.97 0.16,-1.93 -1.2,-2.34 -3.08,-2.34l-61.22 0c-4.41,0 -4.13,4.31 0,4.31z"/>
   <path class="fil2" d="M38.88 74.05c-0.03,1.99 1.01,2.46 2.95,2.47l61.45 0c1.96,-0.02 2.96,-0.57 2.95,-2.47 -0.47,-1.45 -0.87,-1.77 -2.76,-1.84 -1.46,-0.05 -3.07,0.01 -4.55,0.01l-53 0c-4.28,0 -6.25,-0.68 -7.04,1.84z"/>
   <path class="fil2" d="M22.23 123.4l-7.73 6.46c-3.01,2.23 -0.34,5.38 2.17,3.87l7.92 -6.53 24.88 -20.77c0.99,-0.81 3.15,-2.16 1.96,-4.2 -1.58,-2.71 -5.28,1.35 -7.67,3.31 -2.39,1.97 -4.67,3.98 -7.13,5.91l-14.4 11.94z"/>
   <path class="fil2" d="M95.05 101.42c-1.15,0.31 -1.94,0.93 -1.64,2.45 0.24,1.23 1.29,1.69 2.12,2.41 1.59,1.4 3.41,2.76 4.96,4.11l24.25 20.24c2.28,1.83 3.85,3.8 5.57,3.43 1.06,-0.23 1.91,-1.28 1.49,-2.76 -0.39,-1.37 -15.52,-13.31 -16.99,-14.56l-17.01 -14.17c-0.79,-0.67 -1.53,-1.49 -2.76,-1.16z"/>
   <path class="fil2" d="M40.68 47.3c-1.94,0.48 -2.52,2.33 -1.16,3.59 1.14,1.06 3.88,0.6 5.55,0.6 6,-0 34.91,0.36 36.66,-0.13 1.71,-0.48 2.04,-2.6 0.91,-3.61 -1.28,-1.14 -15.52,-0.56 -17.73,-0.56 -3.09,0 -22.94,-0.21 -24.23,0.11z"/>
   <path class="fil3" d="M129.15 61.59c0.89,-0.41 0.08,0.01 0.81,-0.49 0.1,-0.07 0.5,-0.38 0.66,-0.5l6.3 -5.3c0.82,-0.66 2.06,-1.44 2.58,-2.41 -2.83,-1.81 -8.23,-7.1 -10.35,-8.26l0 16.97z"/>
   <path class="fil3" d="M5.61 52.88c0.4,0.77 -0.01,0.16 0.56,0.75 0.19,0.2 0.35,0.3 0.62,0.53 0.62,0.53 0.71,0.61 1.23,1.02 1.89,1.48 6.17,5.34 7.92,6.43l-0.01 -17c-3.6,2.5 -7.56,6.5 -10.33,8.27z"/>
   <path class="fil2" d="M88.05 47.31c-2.84,0.79 -1.61,3.19 -1.2,3.58 1.04,0.99 3.85,0.59 5.55,0.59 2.13,-0 10.9,0.27 12.29,-0.12 1.47,-0.41 2.26,-2.44 0.89,-3.61 -1.18,-1.01 -3.86,-0.57 -5.53,-0.57 -2.17,0 -10.6,-0.26 -12.01,0.13z"/>
   <path class="fil3" d="M61.91 7.19l20.92 -0.34c-0.3,-0.23 -0.19,-0.18 -0.57,-0.4 -0.37,-0.22 -0.77,-0.37 -1.18,-0.52 -4.76,-1.72 -9.49,-2.16 -14.46,-0.82l-3.57 1.22c-0.16,0.09 -0.41,0.25 -0.56,0.36 -0.06,0.05 -0.13,0.11 -0.19,0.15 -0.06,0.05 -0.14,0.13 -0.19,0.17 -0.05,0.04 -0.13,0.11 -0.19,0.17z"/>
  </g>
 </g>
</svg>
