<?xml version="1.0" encoding="UTF-8"?>
<!DOCTYPE svg PUBLIC "-//W3C//DTD SVG 1.1//EN" "http://www.w3.org/Graphics/SVG/1.1/DTD/svg11.dtd">
<!-- Creator: CorelDRAW 2020 (64-Bit) -->
<svg xmlns="http://www.w3.org/2000/svg" xml:space="preserve" width="182.53mm" height="180.094mm" version="1.1" style="shape-rendering:geometricPrecision; text-rendering:geometricPrecision; image-rendering:optimizeQuality; fill-rule:evenodd; clip-rule:evenodd"
viewBox="0 0 188.3 185.78"
 xmlns:xlink="http://www.w3.org/1999/xlink"
 xmlns:xodm="http://www.corel.com/coreldraw/odm/2003">
 <defs>
  <style type="text/css">
   <![CDATA[
    .fil0 {fill:black}
    .fil9 {fill:#14AB0C}
    .fil6 {fill:#18CE0F}
    .fil4 {fill:#989898}
    .fil3 {fill:#B2B2B2}
    .fil8 {fill:#C81E1E}
    .fil2 {fill:#CCCCCC}
    .fil1 {fill:#E7E7E7}
    .fil5 {fill:#F34235}
    .fil7 {fill:white}
   ]]>
  </style>
 </defs>
 <g id="Capa_x0020_1">
  <metadata id="CorelCorpID_0Corel-Layer"/>
  <g id="_1752880396432">
   <path class="fil0" d="M79.36 63.58c1.01,3.76 2.81,12.78 4.97,15.2 2.64,2.97 5.58,2.93 9.1,1.92 2.47,-0.71 2.17,-1.05 3.22,0.8l2.52 3.14 -1.04 1.9c0,0 -1.8,1.78 -1.96,4.96 0.82,2.34 0.2,2.91 1.93,5.19 1.64,2.09 7.36,4.82 9.6,6.12 5.01,2.89 5.87,4.46 11.22,3.23l3.96 -3.44 1.63 -2.86 6.07 0.89c3.36,12.54 9.02,8.99 20.22,5.99l5.1 -1.37 -0.01 -0.04c1.99,-1.71 2.95,-1.98 3.83,-4.64 0.84,-2.53 0.1,-4.03 -0.77,-7.29 1.73,-0.92 3.6,-2.53 4.9,-3.74 3.7,1.26 4,3.44 9.23,2.04 3.83,-1.03 6.2,-6.71 7.79,-9.47 1.72,-2.98 5.35,-7.57 4.21,-11.8 -1.25,-4.65 -3.77,-4.19 -6.21,-6.32 -0.06,-1.93 0.86,-3.86 0.47,-6.03 3.42,-0.92 5.05,-1.42 6.95,-3.38 1.39,-1.44 2.5,-4.12 1.83,-6.61l-3.91 -14.58c-0.68,-2.54 -2.86,-3.98 -4.67,-4.72 -2.5,-1.02 -4.42,-0.14 -7.84,0.78 -0.8,-1.49 -2.67,-3.75 -3.74,-4.9 1.78,-2.03 3.31,-5.77 2.54,-8.67 -1.26,-4.69 -6.24,-6.47 -9.43,-8.32 -3.01,-1.74 -7.75,-5.47 -12.01,-4.33 -5.06,1.36 -6.1,6.5 -6.88,6.7 -0.66,0.18 -5.02,-0.4 -5.7,-0.55 -0.89,-3.33 -1.11,-5.62 -3.15,-7.35 -1.53,-1.31 -4.06,-2.52 -6.61,-1.84l-14.58 3.91c-2.67,0.72 -4.13,2.89 -4.87,4.86 -0.91,2.45 -0.13,5.01 0.78,8.39 -0.97,0.9 -3.07,2.57 -4.34,3.25 -3.67,-1.25 -4.41,-4.02 -9.72,-2.6 -3.83,1.03 -6.2,6.71 -7.79,9.47 -2.49,4.32 -5.45,7.21 -4.04,12.45 1.07,4.01 4.8,4.6 6.94,6.47 -0.34,1.49 -0.7,3.68 -0.64,5.38 -4.97,1.33 -7.69,1.28 -9.41,6.34l0.34 5.48zm13.59 12.02c-5.76,1.47 -5.09,0.07 -7.13,-7.51 -1.71,-6.39 -3.72,-9.36 0.98,-10.68 7.59,-2.13 6.07,-0.57 6.94,-7.51 0.77,-6.13 2.44,-5.55 -2.84,-8.57 -4.73,-2.71 -5.12,-2.9 -2.28,-7.8 1.69,-2.9 3.19,-5.51 4.86,-8.42 0.9,-1.57 2.11,-3.15 4.51,-1.75 5.96,3.48 5.8,4.28 9.26,1.21 1.26,-1.12 2.62,-2.12 4.11,-3.11 2.14,-1.42 2.77,-1.71 2.07,-4.5 -0.46,-1.8 -1.81,-4.88 -1.19,-6.5 0.84,-2.2 9,-3.55 11.88,-4.32 7.6,-2.06 5.73,-0.24 7.88,6.19 0.8,2.39 2.16,2.21 4.41,2.33 1.68,0.09 3.56,0.32 5.12,0.63 4.97,0.98 3.69,-0.79 7.04,-5.74 2,-2.95 4.87,-0.25 9,2.13 2.83,1.63 7.65,3.66 7.89,5.88 0.35,3.18 -5.03,4.97 -2.36,9.68 1.19,0.37 3.07,3.3 3.95,4.54 1.64,2.3 1.73,3.62 4.94,2.83 2.08,-0.51 5.21,-2.22 6.8,-0.42 0.83,0.95 1.89,5.7 2.32,7.32 2.46,9.17 3.72,9.48 -3.19,11.3 -5.33,1.4 -2.39,1.75 -4.39,10.56 -1.5,6.59 6.91,4.5 6.51,9.18 -0.1,1.11 -4.61,8.51 -5.49,10.04 -3.3,5.74 -3.52,5.01 -8.88,1.86 -3.43,-2.01 -3.35,0.37 -10.44,5.05 -2.66,1.76 -1.75,3.05 -0.91,6.07 0.79,2.85 0.98,4.48 -1.99,5.4 -20.4,6.32 -14.39,2.47 -17.53,-3.89 -0.97,-1.96 -3.3,-1.51 -5.51,-1.77 -6.99,-0.81 -6.47,-3.06 -9.96,3.04 -0.83,1.45 -1.59,3.79 -4.38,2.86 -1.17,-0.39 -3.75,-2.08 -4.98,-2.79 -10.54,-6.08 -9.85,-4.56 -5.73,-12.08 1.36,-2.47 0.56,-3.1 -1.28,-5.19 -5.75,-6.51 -2.56,-7.62 -10,-5.56z"/>
   <path class="fil1" d="M158.26 63.76c-0.63,0.7 -0.85,1.39 -1.16,2.18 -0.19,0.49 -0.31,0.91 -0.57,1.32 -0.55,0.88 -0.14,0.38 -0.89,1.01 1.85,2.07 1.49,2.9 0.1,4.56 -1.07,1.26 -2.14,2.51 -3.54,3.7 -2.77,2.35 -6.21,4.36 -10.14,5.59 -8.83,2.78 -15.7,0.86 -21.66,-1.79 -2.23,-0.99 -5.83,-3.75 -7.97,-6.12 -8.21,-9.13 -9.7,-21.43 -4.92,-31.41 10.47,-21.86 41.15,-22.22 51.76,-0.41 1.85,3.81 2.79,8.15 2.83,12.22 0.02,1.89 -0.14,3.72 -0.44,5.49 -0.43,2.5 -0.7,2.9 -3.39,3.67zm4.85 -36.52c-25.23,-12.87 -54.52,-2.6 -66.42,22.99 -2.85,6.13 -5.14,16.35 -3.75,25.37 7.44,-2.06 4.25,-0.95 10,5.56 1.85,2.09 2.64,2.72 1.29,5.19 -4.12,7.52 -4.81,6 5.73,12.08 1.23,0.71 3.8,2.39 4.98,2.79 2.79,0.93 3.55,-1.41 4.38,-2.86 3.5,-6.1 2.98,-3.85 9.96,-3.04 2.22,0.26 4.55,-0.19 5.51,1.77 3.14,6.36 -2.88,10.21 17.53,3.89 2.97,-0.92 2.78,-2.55 1.99,-5.4 -0.84,-3.01 -1.75,-4.31 0.91,-6.07 7.1,-4.68 7.01,-7.07 10.44,-5.05 5.36,3.15 5.58,3.88 8.88,-1.86 0.88,-1.53 5.4,-8.93 5.49,-10.04 0.4,-4.68 -8.01,-2.59 -6.51,-9.18 2,-8.81 -0.93,-9.16 4.39,-10.56 6.91,-1.82 5.65,-2.12 3.19,-11.3 -0.43,-1.62 -1.49,-6.37 -2.32,-7.32 -1.58,-1.81 -4.72,-0.1 -6.8,0.42 -3.2,0.79 -3.3,-0.53 -4.94,-2.83 -0.88,-1.23 -2.76,-4.17 -3.95,-4.54z"/>
   <path class="fil2" d="M92.94 75.6c-1.39,-9.02 0.9,-19.24 3.75,-25.37 11.9,-25.59 41.19,-35.86 66.42,-22.99 -2.67,-4.71 2.71,-6.5 2.36,-9.68 -0.24,-2.22 -5.06,-4.25 -7.89,-5.88 -4.14,-2.38 -7.01,-5.08 -9,-2.13 -3.35,4.95 -2.07,6.72 -7.04,5.74 -1.56,-0.31 -3.45,-0.54 -5.12,-0.63 -2.25,-0.12 -3.62,0.06 -4.41,-2.33 -2.14,-6.43 -0.28,-8.25 -7.88,-6.2 -2.88,0.78 -11.04,2.13 -11.88,4.32 -0.62,1.62 0.73,4.7 1.18,6.5 0.71,2.79 0.07,3.08 -2.07,4.5 -1.49,0.99 -2.85,1.99 -4.11,3.11 -3.46,3.07 -3.31,2.26 -9.26,-1.21 -2.4,-1.4 -3.61,0.18 -4.51,1.75 -1.67,2.9 -3.18,5.52 -4.86,8.42 -2.85,4.9 -2.46,5.09 2.28,7.8 5.28,3.02 3.61,2.45 2.84,8.57 -0.87,6.94 0.64,5.37 -6.94,7.51 -4.7,1.32 -2.69,4.29 -0.98,10.68 2.03,7.58 1.37,8.98 7.13,7.51z"/>
   <path class="fil0" d="M155.64 68.26c-3.55,-1.07 -3.65,2.69 -9.51,6.4 -3.88,2.46 -8.77,3.8 -13.35,3.68 -4.46,-0.11 -8.35,-1.52 -11.26,-3.27 -1.97,-1.18 -7.41,-5.11 -8.15,-8.49l-1.24 -1.79c-2.39,-5.23 -2.9,-11.45 -1.2,-16.77 3.92,-12.34 16.51,-19.32 28.61,-15.99 4.56,1.25 11.03,4.81 13.61,10.02 2.07,1.87 3.63,8.13 3.85,11.24 0.14,1.94 0.01,3.87 -0.28,5.58 -0.64,3.74 -0.47,2.99 1.56,4.88 2.7,-0.77 2.96,-1.17 3.39,-3.67 0.31,-1.77 0.46,-3.6 0.44,-5.49 -0.03,-4.07 -0.98,-8.41 -2.83,-12.22 -10.61,-21.81 -41.29,-21.45 -51.76,0.41 -4.78,9.98 -3.29,22.28 4.92,31.41 2.14,2.38 5.74,5.13 7.97,6.12 5.96,2.64 12.82,4.56 21.66,1.79 3.93,-1.24 7.37,-3.24 10.14,-5.59 1.39,-1.18 2.47,-2.43 3.54,-3.7 1.4,-1.66 1.75,-2.49 -0.1,-4.56z"/>
   <path class="fil3" d="M153.14 42.06c-3.36,-1.61 -5,-2.81 -9.36,-3.65 -1.25,-0.24 -10.85,-1.08 -10.97,0.76 6.67,0.14 12.96,3.23 15.44,10.46 5.42,15.81 -13.87,27.46 -25.45,16.62 -8.93,-8.36 -3.03,-18.83 -3.03,-19.4 -0.35,-0.45 0.23,-0.72 -0.74,0.32l-2.39 3.33c-0.76,1.17 -1.67,3.07 -2.28,4.71 -1.01,2.7 -2.29,8.02 -0.98,11.37 0.75,3.38 6.19,7.32 8.15,8.49 2.91,1.74 6.8,3.15 11.26,3.27 4.58,0.12 9.47,-1.22 13.35,-3.68 5.86,-3.71 5.96,-7.48 9.51,-6.4 0.75,-0.62 0.34,-0.12 0.89,-1.01 0.25,-0.41 0.37,-0.83 0.57,-1.32 0.31,-0.79 0.53,-1.48 1.16,-2.18 -2.03,-1.89 -2.19,-1.15 -1.56,-4.88 0.29,-1.71 0.42,-3.64 0.28,-5.58 -0.22,-3.11 -1.78,-9.37 -3.85,-11.24z"/>
   <path class="fil0" d="M136.41 64.95c-5.57,1.49 -11.57,-1.72 -13.06,-7.26 -2.47,-9.23 7.57,-17.08 16.16,-11.39 7.45,4.93 4.89,16.51 -3.1,18.65zm-3.61 -25.77c-3.18,0.43 -5.34,0.79 -8.01,2.64 -2.74,1.89 -3.24,3.21 -5.04,5.05 -0.01,0.57 -5.9,11.04 3.03,19.4 11.58,10.84 30.87,-0.8 25.45,-16.62 -2.48,-7.23 -8.76,-10.32 -15.44,-10.46z"/>
   <path class="fil4" d="M113.36 66.59c-1.31,-3.34 -0.02,-8.67 0.98,-11.37 0.61,-1.63 1.52,-3.54 2.28,-4.71l2.39 -3.33c0.97,-1.04 0.39,-0.77 0.74,-0.32 1.8,-1.84 2.29,-3.15 5.04,-5.05 2.67,-1.84 4.83,-2.21 8.01,-2.64 0.13,-1.83 9.73,-1 10.97,-0.76 4.36,0.84 6,2.03 9.36,3.65 -2.58,-5.21 -9.06,-8.77 -13.61,-10.02 -12.1,-3.32 -24.68,3.66 -28.61,15.99 -1.69,5.32 -1.19,11.53 1.2,16.77l1.24 1.79z"/>
   <g>
    <path class="fil5" d="M93.73 133.12c-3.58,-5.61 -13.77,-9.5 -10.23,-17.06 0.72,-1.54 3.33,-3.75 4.39,-4.81 1.17,-1.17 3.29,-3.75 5.03,-4.49 5.63,-2.38 8.57,2.28 12.07,5.75 1.43,1.41 3.18,3.54 4.77,4.58 3.37,-2.52 6.43,-7.15 9.73,-9.45 5.85,-4.08 9.64,0.9 12.25,3.51 1.34,1.34 3.55,3.11 4.45,5.07 3.22,7.05 -5.59,10.75 -10.29,16.9 0.9,1.9 7.23,7.07 9.4,9.67 4.43,5.31 -1.13,10.07 -3.46,12.4 -1.38,1.38 -3.1,3.47 -5.14,4.38 -5.79,2.57 -9.53,-3.2 -14.53,-8.23 -0.81,-0.82 -1.4,-1.63 -2.4,-2.08 -3.32,2.57 -6.31,6.8 -9.64,9.44 -5.43,4.31 -9.77,-1.04 -12.33,-3.6 -2.72,-2.72 -7.69,-6.56 -3.38,-12.43 2.41,-3.28 6.78,-6.18 9.32,-9.54zm11.59 -47.54c-1.16,0.98 -5.37,2.45 -7.02,3.4 -29.23,16.81 -34.73,53.56 -13.63,77.47 9.94,11.26 19.09,12.7 20.94,14.37 13.52,0.77 25.41,-2.83 35.09,-11.06 5.36,-4.56 5.14,-7.08 8.71,-5.77 0.74,-0.64 0.8,-0.83 1.34,-1.62 0.58,-0.85 0.95,-1.06 1.21,-1.97 -2.34,-3.3 0.48,-3.99 3.22,-12 1.5,-4.39 2.38,-9.3 2.47,-14.32 0.5,-28.59 -24.21,-51.42 -52.33,-48.49z"/>
    <path class="fil6" d="M56.83 64l1.82 -4.19c-2.45,-2.73 -0.41,-4.19 2.63,-10.37 1.02,-2.07 1.78,-3.3 3.6,-4.35 2.01,-1.16 4.42,-1.26 6.64,-0.32 11.58,4.89 15.03,7.06 10,17.29 -1.29,2.63 -19.93,40.69 -21,42.13 -2.86,3.84 -6.49,3.24 -11.99,3.46 -6.41,0.25 -8.76,0.56 -11.6,-4.17 -4,-6.68 -7.93,-13.24 -11.87,-19.85 -3.29,-5.51 -6.96,-10.65 0.84,-15.34 5.35,-3.22 11.37,-8.13 16.18,-2.31 1.74,2.11 4.62,8.51 6.19,9.74 0.97,-2.24 2.18,-4.49 3.32,-6.8 1.29,-2.62 1.74,-5.62 5.24,-4.92zm-8.43 -35.7c-1.16,1.13 -5.04,2.23 -6.7,3.13 -33.59,18.31 -35.66,63.13 -6.7,84.78 3.3,2.47 7.42,4.93 11.37,6.38 0.11,0.04 0.92,0.35 0.93,0.35 1.01,0.52 0.23,-0.09 0.92,0.63 1.54,0.19 6.95,0.38 8.59,0.06 2.5,-0.49 1.15,-1.97 3.59,-8.48 2.09,-5.57 6.81,-13.88 10.8,-17.76 4.55,-4.43 7.59,-7.03 13.41,-10.38 5.32,-3.05 9.43,-3.84 15.57,-5.64 0.95,-13.33 -2,-25.25 -10.24,-35.33 -0.61,-0.74 -0.9,-1.15 -1.43,-1.75 -9.98,-11.39 -24.66,-16.92 -40.1,-15.99z"/>
    <path class="fil0" d="M48.21 123.57c-23.76,-1.68 -43.58,-22.66 -43.45,-47.88 0.13,-25.5 19.7,-45.05 43.63,-47.39 15.44,-0.93 30.12,4.6 40.1,15.99 0.53,0.6 0.82,1.01 1.43,1.75 8.24,10.08 11.19,22.01 10.24,35.33 -6.14,1.8 -10.25,2.59 -15.57,5.64 -5.82,3.34 -8.86,5.95 -13.41,10.38 -3.99,3.88 -8.72,12.18 -10.8,17.76 -2.43,6.51 -1.08,7.99 -3.59,8.48 -1.63,0.32 -7.04,0.12 -8.59,-0.06zm1.68 -100.22l5.89 0c4.42,0.25 8.83,1.07 13.1,2.5 16.79,5.61 30.3,19.23 34.67,36.71 1.67,6.68 2.03,11.35 1.46,18.21 10.66,-0.89 21.37,1.13 30.44,6.36 3.88,2.24 7.6,4.87 10.72,8 6.75,6.78 11.32,13.4 14.15,22.96 1.24,4.17 1.93,8.49 2.1,12.83l0 4.2c-0.29,7.52 -2.15,14.98 -5.5,21.68 -0.9,1.81 -2.06,5.01 -4.96,3.59 -2.34,-3.3 0.48,-3.99 3.22,-12 1.5,-4.39 2.38,-9.3 2.47,-14.32 0.5,-28.59 -24.21,-51.42 -52.33,-48.49 -16.9,0.89 -33.3,13.52 -39.66,29.13 -12.55,30.84 8.59,63.5 39.94,66.11 13.52,0.77 25.41,-2.83 35.09,-11.06 5.36,-4.56 5.14,-7.08 8.71,-5.77 1.14,1.36 1.48,2.26 0.09,3.79 -5.49,6.06 -8.17,7.98 -15.01,11.96 -7.87,4.57 -17.03,5.97 -26.36,6.04l-0.5 0c-25.15,-0.01 -48.75,-22.93 -50.22,-47.27 -0.33,-5.5 -0.48,-4.35 0,-10.15 -1.69,0.14 -2.91,0.31 -5.08,0.32 -4.46,0.01 -9.53,-0.85 -13.39,-1.84 -5.12,-1.3 -10.23,-3.64 -14.15,-6.16l-5.87 -4.28c-3.91,-3.29 -6.77,-6.38 -9.74,-10.57 -8.24,-11.62 -10.92,-26.6 -8.12,-40.79 2.1,-10.64 7.84,-20.66 15.81,-27.65 1.85,-1.62 1.25,-1.39 4.09,-3.52 8.33,-6.27 18.52,-9.93 28.92,-10.51z"/>
    <path class="fil7" d="M58.65 59.81l-1.82 4.19c1.95,2.12 1.13,2.89 0.01,5.12l-5.08 10.12c-0.76,1.54 -1.31,3.84 -3.27,3.95 -2,0.11 -2.9,-2.3 -3.74,-3.7 -0.96,-1.61 -1.91,-3.19 -2.85,-4.77 -0.94,-1.58 -1.88,-3.27 -2.84,-4.78 -2.36,-3.7 -4.99,-1 -9.51,1.7 -1.67,1 -3.72,1.65 -3.44,3.98 0.12,1.05 9.77,16.84 11.08,19.04 2.12,3.55 3.99,8.15 6.57,8.39 1.88,0.17 5.3,-0.17 7.32,-0.25 3.06,-0.12 4.79,0.35 5.86,-1.87l20 -40.25c3.29,-6.37 2.96,-6.55 -1.9,-8.94 -4.94,-2.43 -7.3,-4.83 -9.62,-0.06 -2.83,5.84 -3.22,8.77 -6.78,8.14z"/>
    <path class="fil7" d="M94.95 111.2c-1.83,0.75 -3.22,2.69 -4.61,4.08 -1.15,1.15 -3.77,2.88 -2.32,5.32 0.77,1.29 6.95,7.06 8.52,8.62 4.47,4.47 4.27,3.74 -1.48,9.49 -1.51,1.51 -2.78,2.78 -4.29,4.28 -0.98,0.97 -3.88,3 -2.97,5.1 0.29,0.67 3.5,3.71 4.2,4.4 4.55,4.53 3.79,3.86 9.55,-1.9 1.51,-1.5 2.78,-2.78 4.28,-4.28 4.62,-4.63 4.12,-3.66 9.43,1.64 1.5,1.5 2.77,2.78 4.28,4.28 4.73,4.7 4.28,4.2 9.71,-1.22 4.54,-4.52 3.49,-4.27 -1.95,-9.72l-6.42 -6.27c-0.74,-0.72 -1.19,-1.75 -0.53,-3.04 0.44,-0.84 3.33,-3.53 4.2,-4.39 1.51,-1.51 2.78,-2.78 4.28,-4.29 4.72,-4.74 4.34,-3.93 -1.26,-9.56 -4.84,-4.86 -3.96,-3.55 -13.8,6.24 -4.99,4.97 -3.71,4.08 -13.75,-5.98 -1.14,-1.14 -2.84,-3.71 -5.05,-2.8z"/>
    <path class="fil0" d="M127.54 113.75c5.61,5.63 5.98,4.82 1.26,9.56 -1.5,1.51 -2.77,2.78 -4.28,4.29 -0.87,0.87 -3.76,3.55 -4.2,4.39 -0.66,1.28 -0.21,2.31 0.53,3.04l6.42 6.27c5.44,5.45 6.48,5.2 1.95,9.72 -5.43,5.41 -4.98,5.91 -9.71,1.22 -1.51,-1.5 -2.78,-2.78 -4.28,-4.28 -5.3,-5.3 -4.81,-6.27 -9.43,-1.64 -1.5,1.51 -2.78,2.78 -4.28,4.28 -5.76,5.76 -5,6.43 -9.55,1.9 -0.69,-0.69 -3.91,-3.73 -4.2,-4.4 -0.91,-2.11 2,-4.13 2.97,-5.1 1.51,-1.5 2.78,-2.77 4.29,-4.28 5.75,-5.75 5.96,-5.01 1.48,-9.49 -1.56,-1.56 -7.75,-7.33 -8.52,-8.62 -1.45,-2.44 1.17,-4.17 2.32,-5.32 1.39,-1.39 2.79,-3.33 4.61,-4.08 2.21,-0.9 3.92,1.67 5.05,2.8 10.04,10.05 8.76,10.94 13.75,5.98 9.83,-9.79 8.95,-11.1 13.8,-6.24zm-33.82 19.38c-2.55,3.36 -6.92,6.26 -9.32,9.54 -4.31,5.87 0.67,9.71 3.38,12.43 2.56,2.57 6.9,7.91 12.33,3.6 3.33,-2.64 6.32,-6.87 9.64,-9.44 1,0.45 1.59,1.27 2.4,2.08 5.01,5.03 8.74,10.81 14.53,8.23 2.04,-0.9 3.76,-3 5.14,-4.38 2.33,-2.33 7.89,-7.09 3.46,-12.4 -2.17,-2.61 -8.5,-7.78 -9.4,-9.67 4.7,-6.15 13.51,-9.85 10.29,-16.9 -0.9,-1.96 -3.11,-3.73 -4.45,-5.07 -2.61,-2.61 -6.4,-7.6 -12.25,-3.51 -3.29,2.3 -6.35,6.94 -9.73,9.45 -1.59,-1.04 -3.34,-3.17 -4.77,-4.58 -3.5,-3.46 -6.45,-8.13 -12.07,-5.75 -1.74,0.74 -3.86,3.32 -5.03,4.49 -1.06,1.06 -3.67,3.27 -4.39,4.81 -3.54,7.56 6.66,11.46 10.23,17.06z"/>
    <path class="fil0" d="M58.65 59.81c3.56,0.64 3.95,-2.3 6.78,-8.14 2.32,-4.77 4.68,-2.37 9.62,0.06 4.86,2.39 5.19,2.57 1.9,8.94l-20 40.25c-1.07,2.22 -2.8,1.75 -5.86,1.87 -2.02,0.08 -5.44,0.42 -7.32,0.25 -2.57,-0.24 -4.45,-4.84 -6.57,-8.39 -1.31,-2.19 -10.95,-17.99 -11.08,-19.04 -0.28,-2.33 1.77,-2.98 3.44,-3.98 4.51,-2.69 7.14,-5.4 9.51,-1.7 0.96,1.5 1.9,3.2 2.84,4.78 0.94,1.57 1.89,3.16 2.85,4.77 0.84,1.4 1.75,3.81 3.74,3.7 1.97,-0.11 2.51,-2.41 3.27,-3.95l5.08 -10.12c1.11,-2.23 1.94,-3 -0.01,-5.12 -3.5,-0.7 -3.95,2.3 -5.24,4.92 -1.14,2.32 -2.35,4.56 -3.32,6.8 -1.57,-1.23 -4.45,-7.63 -6.19,-9.74 -4.8,-5.82 -10.82,-0.91 -16.18,2.31 -7.79,4.68 -4.13,9.82 -0.84,15.34 3.95,6.61 7.87,13.17 11.87,19.85 2.84,4.73 5.19,4.43 11.6,4.17 5.5,-0.22 9.13,0.38 11.99,-3.46 1.07,-1.44 19.71,-39.5 21,-42.13 5.03,-10.23 1.59,-12.4 -10,-17.29 -2.22,-0.94 -4.64,-0.83 -6.64,0.32 -1.82,1.05 -2.58,2.28 -3.6,4.35 -3.03,6.18 -5.08,7.64 -2.63,10.37z"/>
    <path class="fil8" d="M105.6 180.82c-1.85,-1.67 -11,-3.11 -20.94,-14.37 -21.1,-23.92 -15.6,-60.66 13.63,-77.47 1.65,-0.95 5.86,-2.42 7.02,-3.4 -16.9,0.89 -33.3,13.52 -39.66,29.13 -12.55,30.84 8.59,63.5 39.94,66.11z"/>
    <path class="fil9" d="M48.21 123.57c-0.69,-0.72 0.1,-0.11 -0.92,-0.63 -0.01,-0 -0.82,-0.31 -0.93,-0.35 -3.95,-1.45 -8.07,-3.91 -11.37,-6.38 -28.96,-21.65 -26.88,-66.46 6.7,-84.78 1.66,-0.91 5.54,-2 6.7,-3.13 -23.94,2.35 -43.51,21.89 -43.63,47.39 -0.13,25.22 19.69,46.2 43.45,47.88z"/>
   </g>
  </g>
 </g>
</svg>
