<?xml version="1.0" encoding="UTF-8"?>
<!DOCTYPE svg PUBLIC "-//W3C//DTD SVG 1.1//EN" "http://www.w3.org/Graphics/SVG/1.1/DTD/svg11.dtd">
<!-- Creator: CorelDRAW 2020 (64-Bit) -->
<svg xmlns="http://www.w3.org/2000/svg" xml:space="preserve" width="289.592mm" height="242.704mm" version="1.1" style="shape-rendering:geometricPrecision; text-rendering:geometricPrecision; image-rendering:optimizeQuality; fill-rule:evenodd; clip-rule:evenodd"
viewBox="0 0 470.35 394.19"
 xmlns:xlink="http://www.w3.org/1999/xlink"
 xmlns:xodm="http://www.corel.com/coreldraw/odm/2003">
 <defs>
  <style type="text/css">
   <![CDATA[
    .fil1 {fill:black}
    .fil4 {fill:#585858}
    .fil0 {fill:#FDB137}
    .fil3 {fill:#FED05B}
    .fil2 {fill:#FEE076}
   ]]>
  </style>
 </defs>
 <g id="Capa_x0020_1">
  <metadata id="CorelCorpID_0Corel-Layer"/>
  <g id="_2070802309344">
   <path class="fil0" d="M228.96 285.46c14.23,-4.15 27.02,5.95 29.86,17.03 3.82,14.89 -5.91,27.07 -17.15,30.09 -30.69,8.23 -44.72,-37.79 -12.71,-47.12zm-11.96 -93.43l0.56 -18.69c-9.39,-1.38 -6.9,-10.1 -6.9,-19.93 0,-16.3 -2.41,-38.25 6.05,-48.79 8.68,-10.81 43.07,-16.58 42.98,23.06l-0 109.33c0.02,9.5 0.08,15.79 -5.22,22.05 -10.28,12.14 -26.26,12.64 -37.26,1.42 -9.41,-9.6 -6.55,-30.39 -6.55,-48.28 -0,-9.32 -2.39,-18.66 6.35,-20.17zm-139.41 95.55c0.56,3.41 -6.08,14.05 -9.08,15.93 12.31,7.84 -12.74,29.31 -18.55,45.94 123.47,0 246.95,0 370.42,0 -1.59,-4.57 -19.44,-32.69 -23.4,-39.09l-161.32 -262.45c-0.07,-0.34 -0.32,-0.37 -0.49,-0.55l-133.84 217.49c-10.92,17.46 -13.24,28.07 -23.74,22.73z"/>
   <path class="fil1" d="M304.33 89.1c-2.25,3.63 -4.64,5.56 -1.42,11.26 1.79,3.16 3.64,5.62 5.68,9.02 3.73,6.21 8.05,12.49 11.39,18.93 6.84,10.16 12.92,21.02 19.66,31.79 6.51,10.4 13.1,20.88 19.21,31.32 27.5,47.02 59.93,95.4 87.31,142.34 2.91,4.99 7.01,10.4 9.04,15.83 5.49,14.7 -5.62,28.03 -18.25,29.35 -14.01,1.47 -36.21,0.14 -51.1,0.14 -51.35,0 -351.45,1.25 -353.99,-1.06 -10.96,0.32 -21.04,-13.95 -17.11,-27.11 1.64,-5.49 5.19,-9.94 8.13,-14.81 2.8,-4.63 5.55,-9.18 8.37,-13.68 11.49,-18.33 23.13,-37.08 34.22,-55.81 32.95,-55.69 70.07,-112.56 103.31,-168.63 11.2,-18.88 23.32,-36.99 34.26,-55.76 2.76,-4.73 5.66,-9.29 8.77,-14.17 13.93,-21.89 36.44,-14.59 43.86,-4.44 5.98,8.17 11.81,18.83 17.3,27.7 2.83,4.57 5.84,9.61 8.72,14.25 3.35,5.39 4.65,10.59 13.22,8.57 7.25,-5.3 1.61,-11.02 -2.01,-17.02 -3.5,-5.8 -6.63,-10.76 -10.1,-16.54 -3.47,-5.77 -6.62,-10.73 -10.11,-16.54 -3.26,-5.42 -6.83,-11.25 -11.61,-15.03 -17.14,-13.54 -43.57,-11.84 -56.74,5.12l-51.3 82.83c-3.56,5.92 -6.46,10.64 -10.09,16.55l-101.62 165.7c-1.7,2.82 -3.43,5.38 -5.3,8.48l-25.51 41.55c-4.11,6.68 -9.08,14.14 -10.49,23.04l0 9.78c0.4,2.48 1.11,5.07 2.21,7.77 12.94,31.8 47.1,23.34 84.15,23.34 106.87,0 213.74,0 320.61,0 18.97,0 35.61,2.17 47.38,-5.9 7.08,-4.85 14.42,-13.71 16,-25.39l0 -9.37c-0.13,-0.97 -0.29,-1.95 -0.5,-2.94 -1.62,-7.69 -5.33,-12.46 -8.63,-18.01l-40.53 -66.04c-24.31,-40.87 -51.55,-83.28 -76.15,-124.11l-30.68 -50.16c-2.76,-3.55 -5.12,-3.34 -9.53,-2.16z"/>
   <path class="fil1" d="M77.6 287.58c10.5,5.34 12.81,-5.27 23.74,-22.73l133.84 -217.49c0.17,0.18 0.42,0.21 0.49,0.55l161.32 262.45c3.96,6.4 21.82,34.52 23.4,39.09 -123.47,0 -246.95,0 -370.42,0 5.82,-16.63 30.86,-38.1 18.55,-45.94 -8.85,-1.91 -10.52,5.83 -14.17,11.74 -3.32,5.36 -6.65,10.79 -9.79,15.93 -6.22,10.17 -18.33,24.96 -0.33,31.79 28.81,1.75 62.41,0.23 91.74,0.23l271 0.03c6.17,0 16.84,1.12 21.9,-1.43 4.36,-2.2 8.74,-8.14 5.86,-15.65 -1.53,-3.99 -6.2,-10.6 -8.56,-14.41 -8.47,-13.68 -109.01,-176.62 -111.02,-181.99 -1.88,-0.99 -53.3,-86.12 -59.39,-95.91 -3.66,-5.89 -11.01,-20.66 -16.42,-23.15 -10.44,-4.8 -15.91,8.63 -20.23,15.69l-132.65 216.46c-8.14,13.17 -13.12,17.17 -8.86,24.75z"/>
   <path class="fil2" d="M31.84 378.03c3.82,-1.03 171.64,-1.13 176.26,-0.03 1.99,-2.22 8.86,-12.65 10.17,-13.31l-163.15 0.01c-3.1,0.04 -5.66,0.45 -8.3,-0.41 -1.77,-0.58 -1.64,-0.61 -2.6,-1.33 -18,-6.83 -5.89,-21.62 0.33,-31.79 3.14,-5.14 6.47,-10.56 9.79,-15.93 3.65,-5.9 5.32,-13.65 14.17,-11.74 3,-1.89 9.64,-12.52 9.08,-15.93 -4.26,-7.57 0.72,-11.57 8.86,-24.75l132.65 -216.46c4.32,-7.06 9.79,-20.49 20.23,-15.69 5.41,2.49 12.76,17.26 16.42,23.15 6.09,9.79 57.51,94.92 59.39,95.91 2.33,-1.38 4.94,-17.42 4.83,-21.42 -3.34,-6.44 -7.66,-12.72 -11.39,-18.93 -2.04,-3.39 -3.89,-5.85 -5.68,-9.02 -3.22,-5.7 -0.83,-7.63 1.42,-11.26 -2.79,-4.03 -6.35,-12.1 -9.44,-14.96 -8.57,2.02 -9.87,-3.17 -13.22,-8.57 -2.88,-4.64 -5.89,-9.68 -8.72,-14.25 -5.49,-8.86 -11.32,-19.52 -17.3,-27.7 -7.42,-10.15 -29.93,-17.44 -43.86,4.44 -3.11,4.89 -6.01,9.44 -8.77,14.17 -10.94,18.77 -23.06,36.87 -34.26,55.76 -33.25,56.07 -70.36,112.94 -103.31,168.63 -11.08,18.73 -22.73,37.48 -34.22,55.81 -2.82,4.5 -5.58,9.05 -8.37,13.68 -2.94,4.87 -6.49,9.33 -8.13,14.81 -3.93,13.16 6.15,27.42 17.11,27.11z"/>
   <path class="fil3" d="M315.14 149.73c2,5.37 102.55,168.31 111.02,181.99 2.36,3.81 7.03,10.42 8.56,14.41 2.88,7.51 -1.5,13.45 -5.86,15.65 -5.06,2.55 -15.73,1.43 -21.9,1.43l-271 -0.03c-29.33,0 -62.93,1.51 -91.74,-0.23 0.96,0.72 0.83,0.75 2.6,1.33 2.64,0.86 5.2,0.45 8.3,0.41l163.15 -0.01c-1.31,0.66 -8.18,11.09 -10.17,13.31 -4.61,-1.1 -172.44,-1 -176.26,0.03 2.54,2.3 302.65,1.06 353.99,1.06 14.89,0 37.09,1.32 51.1,-0.14 12.63,-1.32 23.74,-14.65 18.25,-29.35 -2.03,-5.43 -6.12,-10.84 -9.04,-15.83 -27.38,-46.94 -59.82,-95.32 -87.31,-142.34 -6.11,-10.44 -12.7,-20.92 -19.21,-31.32 -6.74,-10.77 -12.82,-21.63 -19.66,-31.79 0.11,4 -2.51,20.04 -4.83,21.42z"/>
   <path class="fil1" d="M217.56 173.34c8.13,-1.83 6.91,-5.88 6.87,-14.42 -0.04,-6.73 -0.01,-13.48 -0.01,-20.21 0,-9.77 -3.44,-30.42 12.34,-28.2 12.52,1.75 9.16,19.14 9.16,31.88l0 81.76c0,11.14 3.28,29.64 -9.86,30.51 -15.16,1.01 -11.65,-18.64 -11.65,-29.6 0,-6.74 -0.03,-13.48 0.02,-20.22 0.05,-6.84 0.04,-12.78 -7.43,-12.81 -8.73,1.51 -6.35,10.86 -6.35,20.17 0,17.89 -2.86,38.68 6.55,48.28 11,11.22 26.98,10.71 37.26,-1.42 5.3,-6.26 5.24,-12.54 5.22,-22.05l0 -109.33c0.09,-39.64 -34.3,-33.87 -42.98,-23.06 -8.46,10.54 -6.05,32.49 -6.05,48.79 -0,9.84 -2.49,18.55 6.9,19.93z"/>
   <path class="fil4" d="M217.56 173.34l-0.56 18.69c7.47,0.04 7.48,5.98 7.43,12.81 -0.05,6.74 -0.02,13.48 -0.02,20.22 0,10.96 -3.51,30.61 11.65,29.6 13.14,-0.88 9.86,-19.38 9.86,-30.51l0 -81.76c0,-12.74 3.36,-30.12 -9.16,-31.88 -15.78,-2.21 -12.34,18.44 -12.34,28.2 0,6.74 -0.03,13.48 0.01,20.21 0.04,8.55 1.27,12.6 -6.87,14.42z"/>
   <path class="fil1" d="M231.31 299.05c13.64,-5.23 20.57,15.4 7.72,19.93 -14.02,4.94 -19.94,-15.25 -7.72,-19.93zm-2.35 -13.59c-32.01,9.33 -17.98,55.35 12.71,47.12 11.24,-3.01 20.96,-15.2 17.15,-30.09 -2.84,-11.09 -15.63,-21.18 -29.86,-17.03z"/>
   <path class="fil4" d="M231.31 299.05c-12.22,4.69 -6.3,24.88 7.72,19.93 12.85,-4.53 5.92,-25.16 -7.72,-19.93z"/>
  </g>
 </g>
</svg>
