<?xml version="1.0" encoding="UTF-8"?>
<!DOCTYPE svg PUBLIC "-//W3C//DTD SVG 1.1//EN" "http://www.w3.org/Graphics/SVG/1.1/DTD/svg11.dtd">
<!-- Creator: CorelDRAW 2020 (64-Bit) -->
<svg xmlns="http://www.w3.org/2000/svg" xml:space="preserve" width="218.057mm" height="196.986mm" version="1.1" style="shape-rendering:geometricPrecision; text-rendering:geometricPrecision; image-rendering:optimizeQuality; fill-rule:evenodd; clip-rule:evenodd"
viewBox="0 0 140.35 126.79"
 xmlns:xlink="http://www.w3.org/1999/xlink"
 xmlns:xodm="http://www.corel.com/coreldraw/odm/2003">
 <defs>
  <style type="text/css">
   <![CDATA[
    .fil2 {fill:black}
    .fil4 {fill:#B1DBFC}
    .fil5 {fill:#DEEAFA}
    .fil0 {fill:#FD646D}
    .fil1 {fill:#FD8087}
    .fil3 {fill:#FE4756}
   ]]>
  </style>
 </defs>
 <g id="Capa_x0020_1">
  <metadata id="CorelCorpID_0Corel-Layer"/>
  <g id="_2410528068944">
   <path class="fil0" d="M68.38 82.49c11.14,-2.56 15.02,14.59 3.86,17.17 -11.38,2.63 -15.6,-14.48 -3.86,-17.17zm8.68 -27.96l-0.23 5.52c2.61,0.77 1.82,2.86 1.69,5.73 -0.08,1.77 -0.04,5.28 -0.49,6.78 -2.45,8.09 -15.46,7.43 -15.97,-2.07 -0.32,-5.83 -1.64,-23.19 -0.23,-27.83 1.13,-3.69 3.79,-6.28 8.35,-6.29 8,-0.02 9.24,7.1 9.06,13.27 -0.07,2.35 0.37,4.55 -2.17,4.89zm-41.47 56.55l73.51 0c6.68,0.01 11.46,-2.39 14.16,-7.81 3.35,-6.73 0.65,-11.57 -2.28,-16.44 -7.37,-12.22 -14.55,-24.26 -21.92,-36.47l-16.48 -27.37c-1.76,-2.85 -4.07,-5.63 -8.01,-6.64 -0.73,1.06 -1.65,1.51 -2.53,2.53 -1.87,2.16 -11.11,17.8 -12.45,20.17 -2.25,3.99 -4.77,7.97 -7.09,11.83l-21.13 35.06c-2.38,3.96 -4.81,8.1 -3.53,14.28 1.51,7.32 6.19,9.17 7.76,10.87z"/>
   <path class="fil1" d="M62.23 13.14c3.57,-0.57 7.28,-3.26 14.66,-0.38 4.55,1.78 7.02,4.49 9.31,8.24l39.42 65.58c5.92,9.82 3.18,19.13 -3.8,24.82 -3.58,2.92 -8.05,3.78 -13.8,3.78l-69.9 0c-6.53,0 -9.84,0.46 -15.8,-1.51 -0.46,0.57 -0.19,-0.06 -0.12,0.5l0.11 0.31c0,0 0.63,0.69 0.66,0.72 0.48,0.52 0.68,0.81 1.18,1.31 4.31,4.31 7.46,4.9 8.95,6.05 6.06,-0.02 12.12,-0 18.17,-0 3.02,0 6.03,0 9.05,0 2.95,-0 6.54,-0.85 7.1,1.92l5.54 0c0.51,-2.6 3.03,-1.92 5.73,-1.92l23.03 0c11.04,0 17.77,0.3 25.05,-5.66 9.27,-7.59 12.68,-20.7 5.87,-32.94 -1.88,-3.39 -3.94,-6.56 -5.86,-9.76l-28.82 -47.93c-1.96,-3.24 -3.73,-6.39 -5.75,-9.6 -2.27,-3.6 -4.17,-5.67 -7.4,-7.95 -2.38,-1.67 -7.62,-4.51 -11.46,-4.19 -2.91,0.83 -4.01,1.43 -6.58,3.57 -0.6,0.5 -4.92,4.14 -4.51,5.06z"/>
   <path class="fil2" d="M67.41 124.47c-0.55,-2.77 -4.14,-1.92 -7.1,-1.92 -3.02,0 -6.03,0 -9.05,0 -6.06,0 -12.12,-0.02 -18.17,0 -4.34,-0 -8.32,-0.1 -12.12,-1.51 -5.31,-1.97 -6.89,-3.75 -10.14,-6.86 -1.3,-1.24 -3.3,-4.3 -4.12,-6.01 -1.5,-3.13 -2.53,-6.86 -2.59,-10.84 -0.14,-8.52 4.08,-14.17 7.42,-19.71l30.58 -50.84c5.57,-9.28 9.02,-17.64 19.62,-21.23 2.07,-0.7 9.77,-2.38 11.59,-1.03 3.84,-0.32 9.08,2.51 11.46,4.19 3.24,2.28 5.13,4.35 7.4,7.95 2.03,3.21 3.79,6.37 5.75,9.6l28.82 47.93c1.92,3.2 3.98,6.38 5.86,9.76 6.81,12.24 3.4,25.35 -5.87,32.94 -7.28,5.96 -14.01,5.66 -25.05,5.66l-23.03 -0c-2.7,-0 -5.21,-0.68 -5.73,1.92 -0.06,2.95 2.97,2.19 6,2.19l24.95 0c6.36,0 10.39,0.23 15.51,-1.21 3.63,-1.02 8.44,-3.71 10.74,-5.98 6.49,-6.44 10.15,-12.65 10.21,-22.87l0 -0.4c-0.05,-7.91 -2.98,-12.49 -6.42,-18.22 -1.12,-1.87 -2.1,-3.5 -3.19,-5.31l-34.26 -57.02c-1.44,-2.38 -3.4,-5.23 -5.4,-7.21 -2.08,-2.06 -4.7,-3.89 -7.38,-5.23 -10.44,-5.21 -23.27,-4.02 -31.93,3.07 -3.47,2.84 -5.25,5.03 -7.65,9.07l-40.65 67.63c-1.8,3.54 -3.4,7.62 -3.47,12.8l0 0.65c0.07,7.15 2.12,13.71 6.11,18.63 3.88,4.79 8.58,8.55 14.62,10.33 6.77,1.99 23.98,1.27 32.17,1.27l12.36 0.02c1.47,-0.08 2.17,-0.72 2.14,-2.21z"/>
   <path class="fil2" d="M74.56 16.34c3.94,1.01 6.26,3.79 8.01,6.64l16.48 27.37c7.37,12.21 14.55,24.25 21.92,36.47 2.94,4.87 5.63,9.71 2.28,16.44 -2.7,5.42 -7.48,7.82 -14.16,7.81l-73.51 -0c-8.22,-0 -12.17,0.08 -16.67,-4.98 -3.65,-4.1 -4.45,-11.16 -1.19,-16.53 5.57,-9.18 10.93,-18.16 16.46,-27.4l24.77 -41.02c1.47,-1.92 3.54,-3.67 6.29,-4.68 2.69,-0.99 6.8,-1.26 9.31,-0.13zm-12.33 -3.2c-1.24,1.16 -3.3,1.62 -5.56,4.34 -1.55,1.86 -2.67,3.81 -4.05,6.09l-38.1 63.33c-4.42,7.37 -4.14,16.3 1.91,22.5 3.3,3.38 2.93,2.35 5.87,4.27 5.96,1.97 9.26,1.51 15.8,1.51l69.9 0c5.76,0 10.23,-0.86 13.8,-3.78 6.99,-5.7 9.72,-15.01 3.8,-24.82l-39.42 -65.58c-2.28,-3.75 -4.75,-6.46 -9.31,-8.24 -7.38,-2.89 -11.09,-0.19 -14.66,0.38z"/>
   <path class="fil3" d="M35.59 111.08c-1.57,-1.7 -6.25,-3.54 -7.76,-10.87 -1.28,-6.18 1.15,-10.32 3.53,-14.28l21.13 -35.06c2.32,-3.86 4.84,-7.84 7.09,-11.83 1.34,-2.37 10.58,-18 12.45,-20.17 0.88,-1.02 1.81,-1.47 2.53,-2.53 -2.52,-1.13 -6.62,-0.86 -9.31,0.13 -2.74,1.01 -4.82,2.76 -6.29,4.68l-24.77 41.02c-5.53,9.24 -10.9,18.22 -16.46,27.4 -3.26,5.37 -2.46,12.43 1.19,16.53 4.5,5.05 8.44,4.98 16.67,4.98z"/>
   <path class="fil0" d="M33.09 122.56c-1.49,-1.15 -4.64,-1.74 -8.95,-6.05 -0.5,-0.5 -0.7,-0.79 -1.18,-1.31 -0.03,-0.03 -0.66,-0.72 -0.66,-0.72l-0.11 -0.31c-0.08,-0.56 -0.34,0.07 0.12,-0.5 -2.94,-1.92 -2.57,-0.89 -5.87,-4.27 -6.05,-6.19 -6.33,-15.13 -1.91,-22.5l38.1 -63.33c1.37,-2.28 2.5,-4.24 4.05,-6.09 2.26,-2.71 4.33,-3.18 5.56,-4.34 -0.41,-0.92 3.91,-4.56 4.51,-5.06 2.57,-2.14 3.67,-2.74 6.58,-3.57 -1.82,-1.34 -9.52,0.33 -11.59,1.03 -10.59,3.6 -14.04,11.95 -19.62,21.23l-30.58 50.84c-3.33,5.54 -7.55,11.19 -7.42,19.71 0.06,3.98 1.09,7.71 2.59,10.84 0.82,1.71 2.82,4.78 4.12,6.01 3.25,3.1 4.83,4.88 10.14,6.86 3.8,1.41 7.78,1.51 12.12,1.51z"/>
   <path class="fil2" d="M76.83 60.05c-4.37,0.21 -1.29,8.82 -3.11,12.03 -0.4,0.71 -0.65,0.86 -1.13,0.98 -1.13,1.63 -6.25,2.04 -6.49,-3.95 -0.15,-3.87 -0.34,-7.72 -0.52,-11.6 -0.19,-4.21 -2.52,-20.29 6.51,-16.66 2.36,0.83 2.92,3.4 3.04,6.31 0.07,1.61 -0.11,3.11 -0.11,4.69 -0.01,1.84 0.38,2.45 2.04,2.68 2.54,-0.35 2.1,-2.55 2.17,-4.89 0.18,-6.17 -1.06,-13.29 -9.06,-13.27 -4.57,0.01 -7.23,2.6 -8.35,6.29 -1.41,4.63 -0.09,22 0.23,27.83 0.52,9.5 13.53,10.16 15.97,2.07 0.45,-1.5 0.41,-5.01 0.49,-6.78 0.13,-2.87 0.92,-4.96 -1.69,-5.73z"/>
   <path class="fil2" d="M72.09 86.82c3.84,1.43 3.46,7.56 0.25,8.2 -0.63,0.66 -1.19,0.82 -2.44,0.75 -0.93,-0.05 -1.65,-0.34 -2.32,-0.78 -4.93,-3.26 -0.41,-10.74 4.51,-8.17zm-3.71 -4.34c-11.73,2.7 -7.51,19.81 3.86,17.17 11.16,-2.58 7.28,-19.73 -3.86,-17.17z"/>
   <path class="fil4" d="M72.58 73.06c-1.63,-0.72 -1.19,-5.36 -1.27,-7.25l-0.75 -17.27c-0.04,-4.2 0.72,-4.6 1.53,-7.69 -9.03,-3.63 -6.7,12.46 -6.51,16.66 0.18,3.88 0.37,7.73 0.52,11.6 0.23,5.99 5.36,5.59 6.49,3.95z"/>
   <path class="fil5" d="M72.58 73.06c0.48,-0.13 0.72,-0.27 1.13,-0.98 1.82,-3.21 -1.26,-11.83 3.11,-12.03l0.23 -5.52c-1.66,-0.24 -2.05,-0.84 -2.04,-2.68 0.01,-1.57 0.18,-3.07 0.11,-4.69 -0.12,-2.91 -0.68,-5.48 -3.04,-6.31 -0.81,3.09 -1.57,3.5 -1.53,7.69l0.75 17.27c0.09,1.9 -0.35,6.53 1.27,7.25z"/>
   <path class="fil4" d="M72.34 95.03c-2.48,-2.41 -1.51,-5.6 -0.25,-8.2 -4.92,-2.57 -9.43,4.91 -4.51,8.17 0.66,0.44 1.38,0.73 2.32,0.78 1.25,0.07 1.81,-0.1 2.44,-0.75z"/>
   <path class="fil5" d="M72.34 95.03c3.21,-0.64 3.59,-6.77 -0.25,-8.2 -1.26,2.6 -2.23,5.79 0.25,8.2z"/>
  </g>
 </g>
</svg>
