<?xml version="1.0" encoding="UTF-8"?>
<!DOCTYPE svg PUBLIC "-//W3C//DTD SVG 1.1//EN" "http://www.w3.org/Graphics/SVG/1.1/DTD/svg11.dtd">
<!-- Creator: CorelDRAW 2020 (64-Bit) -->
<svg xmlns="http://www.w3.org/2000/svg" xml:space="preserve" width="135.45mm" height="135.45mm" version="1.1" style="shape-rendering:geometricPrecision; text-rendering:geometricPrecision; image-rendering:optimizeQuality; fill-rule:evenodd; clip-rule:evenodd"
viewBox="0 0 1855.47 1855.47"
 xmlns:xlink="http://www.w3.org/1999/xlink"
 xmlns:xodm="http://www.corel.com/coreldraw/odm/2003">
 <defs>
  <style type="text/css">
   <![CDATA[
    .fil0 {fill:black}
    .fil14 {fill:#3F4668}
    .fil15 {fill:#4B537B}
    .fil12 {fill:#645C64}
    .fil13 {fill:#868486}
    .fil5 {fill:#8694DD}
    .fil6 {fill:#B98080}
    .fil4 {fill:#C49090}
    .fil11 {fill:#C9BFC8}
    .fil8 {fill:#E5E1E5}
    .fil7 {fill:#ECB200}
    .fil1 {fill:#EEECEE}
    .fil2 {fill:#FDCDBE}
    .fil9 {fill:#FDFDFD}
    .fil10 {fill:#FFB09E}
    .fil3 {fill:#FFCA28}
   ]]>
  </style>
 </defs>
 <g id="Capa_x0020_1">
  <metadata id="CorelCorpID_0Corel-Layer"/>
  <g id="_1836575007616">
   <path class="fil0" d="M1447.08 1801.06l-740.34 0.06c-8.64,-98.9 -20.72,-199.15 -31.37,-297.64 -20.42,-188.77 -44.39,-160.71 147.26,-160.71 221.48,0 442.96,-0.16 664.43,0.01 101.85,0.18 92.8,-26.7 69.16,192.36 -9.46,87.67 -19.59,176.67 -27.97,264.91l-81.18 0.99zm-360.33 -1801.06l44.34 0c24.87,1.23 49.41,4.56 72.82,10.11 74.38,17.63 165.41,67.96 213.93,123.1 188.28,214 72.27,375.57 137.79,532.65 34.97,83.86 152.82,156.05 67.96,319.92 -21.6,41.7 -68.82,89.57 -119.64,101.42 7.52,10.27 6.36,6.96 20.09,12.52 35.92,14.53 127.79,53.56 152.37,68.69 49.88,30.72 90.7,82.08 111.65,142.03 21.77,62.28 13.05,160.35 13.05,240.62 0,83.35 0,166.7 0,250.05 28.51,0 51.24,-4.48 54.36,21.3l0 12.57c-2.16,16.49 -13.76,19.9 -30.73,20.49l-473 0c-428.43,0 -871.81,-3.7 -1298.46,0l-22.55 0c-16.98,-0.59 -28.57,-4.01 -30.73,-20.49l0 -12.59c2.93,-24.52 23.21,-21.48 50.71,-21.3 116.75,0.78 275.66,-6.58 380.54,0.67l220.86 -0.85c-8.26,-93.76 -19.69,-188.16 -29.75,-282.08 -9.11,-85.06 -46.96,-217.7 54.46,-228.76l93.55 -1.46c4.04,-18.98 1.73,-96.44 1.81,-125.31l-2.19 -35.04c-0.13,-1.52 -0.9,-1.78 -1.36,-2.66 -56.93,24.09 -110.83,47.81 -167.98,72.97 -56.71,24.97 -99.52,60.44 -122.6,116.57 -26.69,64.9 -17.21,248.36 -17.21,341.01 0,39.93 11.57,88.18 -29.59,89.9 -35.02,-0.09 -25.37,-53.08 -25.37,-97.15 0,-91.04 -9.53,-284.94 18.13,-347.89 23.79,-54.12 60.2,-104.65 113.5,-132.93 21.27,-11.28 153.21,-72.32 169.15,-73.65l0 -7.25c-66.02,-5.49 -189.2,-126.49 -137.31,-282.27 10.05,-30.17 23.45,-46.74 41.54,-70.81 142.23,-189.19 -7.63,-305.63 133.51,-536.92 14.43,-23.64 37.76,-50.05 56.85,-69.99l20.44 -19.42c28.85,-29.07 63.1,-48.12 99.98,-66.72 47.56,-23.99 105.99,-38.19 165.06,-41.06zm353.33 1123.63c56.06,25.11 113.72,49.46 171.18,73.64 56.71,23.86 100.25,65.91 121.93,124.55 24.59,66.52 13.58,384.11 13.58,479.32l-164 0c8.1,-94.01 20.11,-188.86 29.93,-282.73 7.93,-75.79 47.29,-221.77 -54.84,-227.72 -24.35,0.42 -102.04,3.02 -120.91,-2.41l-1.88 -146.97c0.39,-18.77 1.69,-14.45 5.01,-17.67zm-607.52 101.92c32.54,1.59 89.97,18.02 130,23.03 47.24,5.91 97.79,8.84 146.42,8.12 97.82,-1.44 182.25,-15.79 271.29,-39.19 0.77,0.54 1.53,0.86 1.69,2.25 0.16,1.41 1.26,1.78 1.44,2.45l-0.54 66.42c-27.01,4.96 -542.75,3.69 -558.07,-0.65l-1.24 -65.1 9.01 2.66zm135.02 -226.25l16.95 -49.87c85.89,15.12 151.15,12.9 236.75,0.66 8.66,13.92 10.82,31.76 18.77,45.95 8.66,15.45 19.61,26.01 24.99,37.56 9.74,5.38 13.49,11.63 25.43,20.62 36.65,27.6 74.73,32.04 92.3,47.47l0.05 57.05c-48.88,26.05 -211.07,42.86 -277.5,43.69 -73.78,0.92 -148.85,-6.72 -220.23,-22.13 -11.02,-2.38 -20.83,-4.62 -32.28,-7.36 -9.65,-2.31 -25.4,-3.21 -28.01,-13.28l0 -54.36c4.96,-15.02 61.64,-17.84 117.24,-72.6 10.56,-10.4 16.16,-24.89 25.54,-33.41zm308.42 -71.56c36.88,-26.69 54.81,-33.88 78.44,-66.18 84.53,-115.53 60.92,-200.22 60.95,-373.01l62.88 -1.43c0,109.46 -1.24,170.27 60.04,261.26 14.12,20.97 29.78,35.77 42.71,62.5 27.71,57.31 14.62,122.57 -16.53,166.56 -88.85,125.44 -285.48,60.21 -288.48,-49.7zm-489.6 117.69c-149.9,0 -206.3,-143.1 -157.91,-239.48 12.39,-24.68 29.78,-40.74 45.03,-63.52 58.56,-87.47 59.38,-153.77 59.38,-257.21l59.34 1.51c0,153.78 -23.1,268.8 60.74,374.37 30.8,38.78 43.04,39.9 78.71,66.64 -0.68,67.26 -76.17,117.69 -145.3,117.69zm344.28 -245.65c-19.47,0 -33.97,-3.64 -34.78,-24.43 -1.32,-33.84 39.62,-26.55 78.27,-26.55 50.27,0 47.65,50.98 0.06,50.98l-43.54 0zm91.24 -417.71c-14.26,31.92 17.19,48.19 48.33,65.35 30.27,16.69 54.77,21.56 89.88,33.43 3.1,24.61 0.94,62.06 0.94,88.12 0,35.81 4.6,50.5 -9.8,79.12 -18.8,37.36 -53.56,69.99 -93.76,88.68l-14.59 -15.57c-40.44,-41.89 -132.63,-28.83 -154.06,-19.97 -47.92,19.8 -69.69,92.57 -16.46,136.18 23.76,19.47 51.69,16.58 87.29,16.65 84.59,0.15 82.6,-28.77 101.89,-56.24 6.73,-9.59 21.12,-13.18 31.28,-19.58 24.56,-15.47 40,-29.85 63.1,-43.95 -12.12,73.28 -67.78,129.46 -124.12,153.36 -54.98,23.32 -184.45,25.51 -243.61,4.98 -62.49,-21.69 -114.51,-75.37 -133.3,-142.14 -15.77,-56.05 -8.37,-201.83 -8.37,-269.05 128.17,-12.99 236.4,-74.72 336.83,-145.28 63.71,-51.35 121.02,-110.07 169.06,-186.6 26.67,17.04 69.51,74.58 88.99,115.84 24.44,51.78 36.02,101.46 36.78,166.05 -69.11,8.64 -146.21,-7.03 -202.39,-43.91 -24.27,-15.93 -29.27,-23.67 -53.9,-5.45zm-488.67 47.98c-4,-157.97 92.21,-269.54 182.01,-323.02 56.17,-33.45 123.1,-54.72 201.02,-52.37 59.19,1.79 160.55,28.13 191.76,61.31 -16.03,36.63 -98.77,130.19 -128.79,153.61 -10.49,8.18 -19.32,16.05 -30.16,24.29 -110.76,84.13 -257.56,149.63 -415.84,136.18z"/>
   <path class="fil1" d="M1219.46 1587.29c-23.69,138.29 -228.76,100.2 -203.2,-35.02 9.26,-48.97 58.39,-92.6 119.45,-81.83 48.45,8.55 94.25,55.58 83.75,116.85zm227.62 213.76c6.95,-77.37 17.74,-154.68 24.57,-231.7 5.69,-64.22 26.94,-169.8 15.42,-226.57 -221.48,-0.17 -442.96,-0.01 -664.43,-0.01 -191.65,0 -167.69,-28.06 -147.26,160.71 10.66,98.49 22.73,198.74 31.37,297.64l740.34 -0.06z"/>
   <path class="fil2" d="M1221.92 382.06c-6.95,-15.29 -6.99,-10.72 -18.38,-23.6l-20.15 -22.32c-100.44,70.56 -208.66,132.29 -336.83,145.28 0,67.21 -7.41,213 8.37,269.05 18.79,66.77 70.81,120.44 133.3,142.14 59.16,20.54 188.62,18.34 243.61,-4.98 56.34,-23.9 112,-80.08 124.12,-153.36 -23.1,14.1 -38.54,28.48 -63.1,43.95 -10.16,6.4 -24.54,9.98 -31.28,19.58 -19.28,27.48 -17.3,56.4 -101.89,56.24 -35.6,-0.06 -63.53,2.82 -87.29,-16.65 -53.23,-43.6 -31.46,-116.38 16.46,-136.18 21.43,-8.85 113.62,-21.92 154.06,19.97l14.59 15.57c40.19,-18.69 74.96,-51.32 93.76,-88.68 14.4,-28.62 9.8,-43.31 9.8,-79.12 -0,-26.05 2.16,-63.51 -0.94,-88.12 -35.11,-11.87 -59.61,-16.74 -89.88,-33.43 -31.14,-17.17 -62.59,-33.43 -48.33,-65.35z"/>
   <path class="fil3" d="M410.43 293.49c32.31,-20.68 55.12,27.65 28.28,44.08 -28.92,17.71 -60.96,-23.17 -28.28,-44.08zm-108.72 0c32.31,-20.68 55.12,27.65 28.28,44.08 -28.92,17.71 -60.96,-23.17 -28.28,-44.08zm-108.72 0c32.31,-20.68 55.12,27.65 28.28,44.08 -14.8,9.06 -31.43,2.11 -37.23,-7.37 -10.27,-16.78 -3.48,-28.76 8.95,-36.71zm243.23 282.5c-5.74,-22.51 -27.16,-34.15 -9.13,-72.81 5.05,-10.82 22.94,-31.16 37.66,-60.18 75.76,-149.4 -6.22,-328.53 -120.77,-380.31 -2.56,-1.15 -6.08,-2.46 -8.01,-3.34 -3.9,-1.77 -2.2,6.45 -6,-2.98 -0.59,-1.47 -2.15,-1.01 -3.13,-1.67 -162.68,-6.2 -302.2,137.91 -267.53,310.31 16.23,80.71 66.83,141.67 120.44,172.81 84.08,48.84 150,38.17 256.47,38.17z"/>
   <path class="fil4" d="M733.25 430.04c158.28,13.45 305.08,-52.04 415.84,-136.18 10.84,-8.24 19.67,-16.11 30.16,-24.29 30.02,-23.42 112.77,-116.98 128.79,-153.61 -31.21,-33.18 -132.56,-59.52 -191.76,-61.31 -77.91,-2.35 -144.85,18.91 -201.02,52.37 -89.8,53.48 -186.01,165.05 -182.01,323.02z"/>
   <path class="fil5" d="M431.25 1746.05l0 55.7 220.86 -0.85c-8.26,-93.76 -19.69,-188.16 -29.75,-282.08 -9.11,-85.06 -46.96,-217.7 54.46,-228.76 20.58,-10.47 65.48,-3.71 91.87,-3.71l-0.05 -160.76c-56.93,24.09 -110.83,47.81 -167.98,72.97 -56.71,24.97 -99.52,60.44 -122.6,116.57 -26.69,64.9 -17.21,248.36 -17.21,341.01 0,39.93 11.57,88.18 -29.59,89.9z"/>
   <path class="fil0" d="M436.22 575.99c-106.47,0 -172.39,10.67 -256.47,-38.17 -53.61,-31.14 -104.21,-92.11 -120.44,-172.81 -34.67,-172.39 104.85,-316.5 267.53,-310.31 192.9,11.38 308.46,213.67 217.42,384.36 -13.69,25.67 -30.42,47.76 -48.14,64.3 -29.13,27.19 -31.75,38.92 -6.24,72.52l-53.66 0.11zm-143.89 -575.99l48.84 0c37.48,2.99 75.64,12.99 113.13,31.31 16.08,7.86 33.12,18.92 46.88,29.23 125.27,93.85 165.22,259.09 99.24,391.31 -26.74,53.59 -39.38,56.66 -60.45,88.13 10.68,5.65 23.39,12.78 34.28,20.08 39.17,26.25 13.57,70.52 -16.16,70.52l-257.3 0c-79.41,0 -156.65,-42.49 -207.47,-93.32 -69.82,-69.82 -93.32,-139.17 -93.32,-240.09 0,-151.14 134.15,-284.5 292.34,-297.16z"/>
   <path class="fil5" d="M1557.86 1290.68c102.13,5.95 62.77,151.93 54.84,227.72 -9.82,93.86 -21.83,188.72 -29.93,282.73l164 0c0,-95.21 11.01,-412.8 -13.58,-479.32 -21.68,-58.63 -65.22,-100.69 -121.93,-124.55 -57.46,-24.18 -115.12,-48.53 -171.18,-73.64l-1.15 163.35c26.73,0 101,-7.1 118.93,3.7z"/>
   <path class="fil4" d="M1276 927.73c3.01,109.91 199.63,175.14 288.48,49.7 31.16,-43.99 44.25,-109.25 16.53,-166.56 -12.92,-26.73 -28.59,-41.54 -42.71,-62.5 -61.28,-90.99 -60.04,-151.81 -60.04,-261.26l-62.88 1.43c-0.03,172.79 23.58,257.48 -60.95,373.01 -23.63,32.3 -41.57,39.49 -78.44,66.18z"/>
   <path class="fil4" d="M786.4 1045.42c69.14,0 144.62,-50.43 145.3,-117.69 -35.67,-26.75 -47.91,-27.87 -78.71,-66.64 -83.85,-105.57 -60.74,-220.59 -60.74,-374.37l-59.34 -1.51c-0.01,103.44 -0.82,169.74 -59.38,257.21 -15.25,22.78 -32.65,38.85 -45.03,63.52 -48.39,96.38 8.02,239.48 157.91,239.48z"/>
   <path class="fil2" d="M1265.04 1033.6c-241.17,36.36 -268.68,-40.7 -297.46,-34.31 -9.38,8.53 -14.97,23.01 -25.54,33.41 -55.6,54.76 -112.28,57.58 -117.24,72.6l0 54.36c2.61,10.07 18.36,10.96 28.01,13.28 11.45,2.74 21.26,4.98 32.28,7.36 71.38,15.41 146.46,23.05 220.23,22.13 66.43,-0.83 228.62,-17.64 277.5,-43.69l-0.05 -57.05c-17.57,-15.43 -55.64,-19.87 -92.3,-47.47 -11.93,-8.98 -15.69,-15.24 -25.43,-20.62z"/>
   <path class="fil6" d="M1183.39 336.14l20.15 22.32c11.39,12.87 11.43,8.31 18.38,23.6 24.64,-18.22 29.64,-10.48 53.9,5.45 56.18,36.88 133.29,52.55 202.39,43.91 -0.76,-64.59 -12.34,-114.27 -36.78,-166.05 -19.48,-41.26 -62.32,-98.8 -88.99,-115.84 -48.04,76.54 -105.35,135.26 -169.06,186.6z"/>
   <path class="fil7" d="M436.22 575.99l53.66 -0.11c-25.51,-33.6 -22.89,-45.33 6.24,-72.52 17.72,-16.54 34.45,-38.63 48.14,-64.3 91.04,-170.69 -24.52,-372.99 -217.42,-384.36 0.98,0.67 2.54,0.21 3.13,1.67 3.8,9.43 2.1,1.21 6,2.98 1.93,0.88 5.45,2.18 8.01,3.34 114.55,51.78 196.53,230.91 120.77,380.31 -14.72,29.02 -32.61,49.36 -37.66,60.18 -18.03,38.66 3.38,50.3 9.13,72.81z"/>
   <path class="fil8" d="M1447.08 1801.06l81.18 -0.99c8.37,-88.25 18.51,-177.24 27.97,-264.91 23.63,-219.06 32.68,-192.19 -69.16,-192.36 11.52,56.77 -9.73,162.35 -15.42,226.57 -6.83,77.02 -17.61,154.33 -24.57,231.7z"/>
   <path class="fil0" d="M1106.93 1525.23c61.42,-16.11 80.17,77.23 25.57,92.99 -62.35,17.99 -93.4,-75.19 -25.57,-92.99zm112.53 62.06c10.5,-61.27 -35.3,-108.3 -83.75,-116.85 -61.06,-10.77 -110.2,32.86 -119.45,81.83 -25.56,135.21 179.51,173.31 203.2,35.02z"/>
   <path class="fil9" d="M832.55 1225.54c-5.91,2.41 -5.8,-4.69 -5.45,24.66 0.14,12.13 0.05,24.31 0.05,36.45l551.77 0 1.35 -69.14c-89.04,23.4 -173.46,37.75 -271.29,39.19 -48.64,0.72 -99.18,-2.21 -146.42,-8.12 -40.03,-5.01 -97.46,-21.45 -130,-23.03z"/>
   <path class="fil10" d="M967.57 999.29c28.79,-6.39 56.29,70.66 297.46,34.31 -5.38,-11.55 -16.33,-22.11 -24.99,-37.56 -7.95,-14.18 -10.11,-32.02 -18.77,-45.95 -85.6,12.23 -150.86,14.46 -236.75,-0.66l-16.95 49.87z"/>
   <path class="fil11" d="M1106.93 1525.23c-67.83,17.79 -36.78,110.98 25.57,92.99 54.59,-15.75 35.85,-109.1 -25.57,-92.99z"/>
   <path class="fil12" d="M1130.67 799.77l43.54 0c47.6,0 50.21,-50.98 -0.06,-50.98 -38.65,0 -79.58,-7.29 -78.27,26.55 0.81,20.79 15.31,24.43 34.78,24.43z"/>
   <path class="fil13" d="M832.55 1225.54l-9.01 -2.66 1.24 65.1c15.32,4.34 531.06,5.61 558.07,0.65l0.54 -66.42c-0.18,-0.67 -1.28,-1.05 -1.44,-2.45 -0.16,-1.39 -0.92,-1.71 -1.69,-2.25l-1.35 69.14 -551.77 0c0,-12.14 0.09,-24.31 -0.05,-36.45 -0.34,-29.35 -0.46,-22.25 5.45,-24.66z"/>
   <path class="fil0" d="M192.99 293.49c-12.43,7.95 -19.22,19.93 -8.95,36.71 5.81,9.48 22.44,16.43 37.23,7.37 26.84,-16.44 4.03,-64.76 -28.28,-44.08z"/>
   <path class="fil0" d="M301.71 293.49c-32.68,20.91 -0.63,61.79 28.28,44.08 26.84,-16.44 4.03,-64.76 -28.28,-44.08z"/>
   <path class="fil0" d="M410.43 293.49c-32.68,20.91 -0.63,61.79 28.28,44.08 26.84,-16.44 4.03,-64.76 -28.28,-44.08z"/>
   <path class="fil14" d="M1557.86 1290.68c-17.93,-10.8 -92.2,-3.7 -118.93,-3.7l1.15 -163.35c-3.32,3.22 -4.62,-1.1 -5.01,17.67l1.88 146.97c18.87,5.43 96.57,2.84 120.91,2.41z"/>
   <path class="fil15" d="M676.82 1290.07l93.55 -1.46c4.04,-18.98 1.73,-96.44 1.81,-125.31l-2.19 -35.04c-0.13,-1.52 -0.9,-1.78 -1.36,-2.66l0.05 160.76c-26.39,0 -71.29,-6.76 -91.87,3.71z"/>
  </g>
 </g>
</svg>
