<?xml version="1.0" encoding="UTF-8"?>
<!DOCTYPE svg PUBLIC "-//W3C//DTD SVG 1.1//EN" "http://www.w3.org/Graphics/SVG/1.1/DTD/svg11.dtd">
<!-- Creator: CorelDRAW 2020 (64-Bit) -->
<svg xmlns="http://www.w3.org/2000/svg" xml:space="preserve" width="212.079mm" height="212.079mm" version="1.1" style="shape-rendering:geometricPrecision; text-rendering:geometricPrecision; image-rendering:optimizeQuality; fill-rule:evenodd; clip-rule:evenodd"
viewBox="0 0 140.05 140.05"
 xmlns:xlink="http://www.w3.org/1999/xlink"
 xmlns:xodm="http://www.corel.com/coreldraw/odm/2003">
 <defs>
  <style type="text/css">
   <![CDATA[
    .fil2 {fill:black}
    .fil1 {fill:#E3F4F6}
    .fil0 {fill:#F99F28}
    .fil3 {fill:#FDC870}
   ]]>
  </style>
 </defs>
 <g id="Capa_x0020_1">
  <metadata id="CorelCorpID_0Corel-Layer"/>
  <path class="fil0" d="M125.14 43.38c0.26,0.18 0.56,0.39 0.88,0.64l0.03 0.02 0 -0c0.85,0.66 1.87,1.53 2.94,2.45l5.63 4.55c-0.5,0.93 -1.69,1.69 -2.49,2.32l-6.08 5.12c-0.15,0.12 -0.53,0.42 -0.63,0.49 -0.7,0.49 0.07,0.08 -0.78,0.48l0 -0.02 -4.26 3.58c-0.28,0.77 -0.94,0.94 -1.64,1.56l-10.6 8.82c-2.98,2.34 -5.78,4.8 -8.68,7.19l-0.29 0.24 -0.07 0.06 -0.07 0.06 -0.07 0.06 -0.02 0.02c-1.3,1.09 -2.39,2.07 -3.78,3.19 -8.32,6.65 -14.35,14.12 -25.12,14.13 -8.18,0.01 -11.97,-3.39 -16.77,-7.16 -1.45,-1.14 -2.76,-2.26 -4.17,-3.49l-24.7 -20.56 -3.37 -2.8 -0.04 -0.03 -0.04 -0.03 -0.04 -0.03c-0.47,-0.36 -0.86,-0.52 -1.1,-0.92l-6.57 -5.47 -0.13 -0.11 -0.03 -0.03c-0.47,-0.38 -0.96,-0.79 -1.45,-1.21l-0.01 -0.01 -0.1 -0.08 0 -0c-1.44,-1.21 -2.88,-2.46 -3.77,-3.16 -0.51,-0.4 -0.6,-0.48 -1.19,-0.99 -0.26,-0.22 -0.42,-0.32 -0.6,-0.51 -0.55,-0.57 -0.16,0.02 -0.54,-0.72 2.34,-1.49 5.57,-4.65 8.67,-7.02l1.3 -0.95c0,0.06 35.79,-29.05 43.79,-35.53 1.46,-1.18 2.83,-1.8 5.11,-2.58 4.8,-1.29 9.37,-0.87 13.96,0.79 0.19,0.07 0.39,0.14 0.58,0.22 0.19,0.08 0.38,0.17 0.56,0.28l0.48 0.39 -0.21 0 5.39 4.36 0.2 -0 35.34 28.64 0 0.08 4.55 3.68z"/>
  <g id="_2410076020240">
   <path class="fil1" d="M42.44 51.65l4.14 0c0.4,1.48 1.26,1.55 3.13,1.55l15.67 -0.01c6.28,0 37.95,-0.44 41.45,0.28 2.72,0.56 5.5,2.34 6.65,3.83 1.55,2.02 3.18,4.53 2.87,7.45 0.32,0.41 0.33,30.16 0.26,58.35l-94.64 0c-0.07,-28.24 -0.09,-58.08 0.13,-58.37 -0.26,-2.22 1.1,-5.2 2.07,-6.44 3.3,-4.2 6.59,-5.12 11.94,-5.11 3.65,0.01 5.71,0.59 6.31,-1.54z"/>
   <path class="fil2" d="M120.6 69.18l0 -0.01 0 0c0.03,-4.96 0.02,-7.61 -2.02,-11.55 -1.69,-3.27 -5.03,-6.03 -8.54,-7.37 -5.55,-2.12 -18.69,-0.57 -23.08,-1.07l-20.81 0 -6.55 0.11c0.04,-0.04 0.08,-0.07 0.11,-0.11l-7.79 0c-0.58,0.08 -1.4,0.02 -2.16,0l-0.99 0c-0.11,0.01 -0.2,0.01 -0.3,0.03 -1.13,0.15 -2.07,0.79 -1.97,2.04 0.34,1.88 1.19,1.96 3.23,1.96l15.67 -0.01c6.28,0 37.95,-0.44 41.45,0.28 2.72,0.56 5.5,2.34 6.65,3.83 1.55,2.02 3.18,4.53 2.87,7.45 0.32,0.41 0.33,30.16 0.26,58.35l3.9 0c-0.03,-17.98 -0.04,-35.96 0.07,-53.92zm-102.59 53.92c-0.02,-19.3 -0.09,-38.61 -0.09,-57.9 0.22,-4.58 1.24,-7.69 5.43,-11.85 3.41,-3.38 7.76,-4.17 12.78,-4.17 0.19,0 0.37,-0 0.56,-0.01l3.73 0c1.19,0.17 2.03,0.69 2.11,2.06 -0.46,2.61 -2.54,1.96 -6.41,1.95 -5.35,-0.01 -8.64,0.9 -11.94,5.11 -0.97,1.24 -2.33,4.22 -2.07,6.44 -0.22,0.3 -0.2,30.13 -0.13,58.37l-3.98 0z"/>
   <path class="fil2" d="M40.29 74.27c-2.17,0.52 -2.59,3.75 1.22,3.81l24.4 -0.01c4.5,0 30.39,0.52 32.56,-0.15 1.63,-0.5 2.43,-3.71 -1.48,-3.76 -6.51,-0.09 -55.32,-0.22 -56.7,0.11z"/>
   <path class="fil2" d="M41.52 100.75l55.45 0c1.46,0 2.67,-0.35 2.79,-1.79 0.14,-1.75 -1.08,-2.12 -2.79,-2.12l-55.45 0c-4,0 -3.74,3.91 0,3.91z"/>
   <path class="fil2" d="M38.74 109.85c-0.03,1.8 0.91,2.23 2.67,2.23l55.66 0c1.77,-0.02 2.68,-0.52 2.67,-2.24 -0.42,-1.32 -0.79,-1.6 -2.5,-1.67 -1.32,-0.05 -2.78,0.01 -4.13,0.01l-48.01 0c-3.88,0 -5.66,-0.62 -6.37,1.67z"/>
   <path class="fil2" d="M40.37 85.61c-1.76,0.44 -2.28,2.11 -1.05,3.26 1.03,0.96 3.51,0.54 5.02,0.54 5.43,-0 31.62,0.32 33.21,-0.12 1.55,-0.43 1.85,-2.36 0.82,-3.27 -1.16,-1.03 -14.06,-0.51 -16.06,-0.51 -2.8,0 -20.78,-0.19 -21.94,0.1z"/>
   <path class="fil2" d="M83.27 85.62c-2.58,0.71 -1.45,2.89 -1.09,3.25 0.94,0.9 3.49,0.54 5.03,0.54 1.93,0 9.87,0.24 11.14,-0.11 1.33,-0.37 2.04,-2.21 0.8,-3.27 -1.07,-0.92 -3.49,-0.52 -5.01,-0.52 -1.97,0 -9.6,-0.24 -10.87,0.12z"/>
   <path class="fil2" d="M98.13 120.05c1.52,0.37 2.18,2.06 1.13,3.06l-60.17 0c-0.9,-1.08 -0.77,-3.12 2.34,-3.17 6.51,-0.09 55.32,-0.22 56.7,0.11z"/>
  </g>
  <path class="fil3" d="M127.2 126.72c0.4,1.42 -0.41,2.44 -1.44,2.66 -1.66,0.36 -3.18,-1.54 -5.38,-3.31l-23.4 -19.53c-1.5,-1.31 -3.25,-2.62 -4.79,-3.97 -0.79,-0.7 -1.81,-1.14 -2.04,-2.33 -0.29,-1.46 0.47,-2.07 1.58,-2.36 1.19,-0.31 1.9,0.47 2.66,1.12l16.42 13.67c1.42,1.2 16.02,12.72 16.39,14.05zm-109.66 -59.8c-0.37,4.18 -0.07,9.72 -0.07,14.05 0,6.64 -0.33,21.56 0.61,27.3 1.18,7.21 2.19,6.87 3.37,10.81l13.89 -11.53c2.37,-1.86 4.58,-3.81 6.88,-5.71 2.3,-1.9 5.88,-5.81 7.4,-3.19 1.15,1.96 -0.94,3.26 -1.89,4.05l-24.01 20.04c1.22,1.07 1.94,2.32 3.11,3.33 0.96,0.83 2.25,1.89 3.4,2.62 5.15,3.29 12.16,5.01 18.26,6.38 8.38,1.88 56.69,-0.14 59.76,0.85 1.64,0.29 1.8,0.65 2.16,2.22l4.08 0c0.83,-3.71 3.84,-1.77 10.94,-2.29 2.01,-0.15 3.63,-0.6 5.07,-1.52 5.69,-3.64 5.38,-8.07 5.38,-13.96l-0.01 -64.5c-1.3,0.64 -24.18,20.13 -27.48,22.72 -6.07,4.77 -14.56,12.06 -20.57,17.17 -8.12,6.89 -18.27,8.64 -28.37,4.56 -5.24,-2.12 -16.31,-12.3 -21.38,-16.37 -1.25,-1 -2.27,-1.89 -3.44,-2.86l-10.29 -8.58c-2.15,-1.9 -4.46,-3.75 -6.79,-5.58z"/>
  <path class="fil2" d="M125.14 43.38c0.26,0.18 0.56,0.39 0.88,0.64l0.03 0.02 0 -0c0.85,0.66 1.87,1.53 2.94,2.45l5.63 4.55c-0.5,0.93 -1.69,1.69 -2.49,2.32l-6.08 5.12c-0.15,0.12 -0.53,0.42 -0.63,0.49 -0.7,0.49 0.07,0.08 -0.78,0.48l0 -0.02 -4.26 3.58c-0.28,0.77 -0.94,0.94 -1.64,1.56l-10.6 8.82c-2.98,2.34 -5.78,4.8 -8.68,7.19l-0.29 0.24 -0.07 0.06 -0.07 0.06 -0.07 0.06 -0.02 0.02c-1.3,1.09 -2.39,2.07 -3.78,3.19 -8.32,6.65 -14.35,14.12 -25.12,14.13 -8.18,0.01 -11.97,-3.39 -16.77,-7.16 -1.45,-1.14 -2.76,-2.26 -4.17,-3.49l-24.7 -20.56 -3.37 -2.8 -0.04 -0.03 -0.04 -0.03 -0.04 -0.03c-0.47,-0.36 -0.86,-0.52 -1.1,-0.92l-6.57 -5.47 -0.13 -0.11 -0.03 -0.03c-0.47,-0.38 -0.96,-0.79 -1.45,-1.21l-0.01 -0.01 -0.1 -0.08 0 -0c-1.44,-1.21 -2.88,-2.46 -3.77,-3.16 -0.51,-0.4 -0.6,-0.48 -1.19,-0.99 -0.26,-0.22 -0.42,-0.32 -0.6,-0.51 -0.55,-0.57 -0.16,0.02 -0.54,-0.72 2.34,-1.49 5.57,-4.65 8.67,-7.02l1.3 -0.95c0,0.06 35.79,-29.05 43.79,-35.53 1.46,-1.18 2.83,-1.8 5.11,-2.58 4.8,-1.29 9.37,-0.87 13.96,0.79 0.19,0.07 0.39,0.14 0.58,0.22 0.19,0.08 0.38,0.17 0.56,0.28l0.48 0.39 -0.21 0 5.39 4.36 0.2 -0 35.34 28.64 0 0.08 4.55 3.68zm-118.18 1l-0.03 0.03c-2.29,1.85 -4.55,3.69 -6.1,5.12 -0.43,0.4 -0.7,0.66 -0.81,1.37l-0.02 47.87 0 27.5c0.21,4.53 3.02,8.58 6.48,11.13 2.69,1.98 5.25,2.52 8.52,2.65l6.89 0 81.24 0 5.49 0c0.95,-0.17 1.41,-0.66 1.79,-1.91 -0.36,-1.56 -0.51,-1.93 -2.16,-2.22 -30.67,-0.31 -61.44,0.16 -92.12,-0.03 -6.99,-0.04 -11.65,-4.14 -11.95,-10.94 -0.33,-7.36 -0.02,-15.48 -0.02,-22.93 0,-15.36 -0.2,-30.85 0.01,-46.19 0.97,0.52 2.43,1.88 3.31,2.6l6.71 5.6c1,0.85 2.82,2.21 3.35,2.88 2.34,1.83 4.64,3.68 6.79,5.58l10.29 8.58c1.17,0.96 2.19,1.86 3.44,2.86 5.08,4.06 16.14,14.25 21.38,16.37 10.1,4.08 20.26,2.33 28.37,-4.56 6.02,-5.11 14.5,-12.4 20.57,-17.17 3.29,-2.59 26.18,-22.07 27.48,-22.72l0.01 64.5c0,5.9 0.31,10.33 -5.38,13.96 -1.44,0.92 -3.06,1.38 -5.07,1.52 -7.1,0.52 -10.11,-1.42 -10.94,2.29 0.35,1.27 0.8,1.75 1.72,1.91l4.7 0 4.19 0c1.31,-0.04 2.53,-0.16 3.8,-0.49 4.16,-1.07 7.58,-4.11 9.42,-7.53 1.14,-2.12 1.58,-4.27 1.73,-6.67l0 -8.56 0 -65.88c-0.08,-0.45 -0.27,-0.84 -0.69,-1.26 -0.78,-0.78 -1.4,-1.17 -2.23,-1.87l-6.75 -5.6 -1.76 -1.46 0 -0 -42.95 -35.58 0 -0 -1.92 -1.37c-3.78,-2.26 -7.79,-3.5 -11.84,-3.77l-3.48 0c-3.91,0.26 -7.79,1.41 -11.46,3.37 -1.48,0.8 -2.06,1.4 -3.03,2.21 -15.65,12.92 -31.19,26.01 -46.99,38.79z"/>
  <path class="fil0" d="M108.25 135.92c-3.07,-0.99 -51.38,1.03 -59.76,-0.85 -6.11,-1.37 -13.11,-3.08 -18.26,-6.38 -1.15,-0.74 -2.44,-1.8 -3.4,-2.62 -1.17,-1.01 -1.89,-2.26 -3.11,-3.33l-7.64 6.3c-2.42,1.46 -4.99,-1.58 -2.09,-3.73l7.46 -6.23c-1.18,-3.94 -2.19,-3.61 -3.37,-10.81 -0.94,-5.74 -0.61,-20.67 -0.61,-27.3 0,-4.33 -0.3,-9.87 0.07,-14.05 -0.53,-0.67 -2.34,-2.03 -3.35,-2.88l-6.72 -5.59c-0.88,-0.72 -2.34,-2.08 -3.31,-2.6 -0.21,15.34 -0.01,30.83 -0.01,46.19 0,7.44 -0.31,15.57 0.02,22.93 0.3,6.79 4.96,10.89 11.95,10.94 30.69,0.19 61.45,-0.28 92.12,0.03z"/>
  <path class="fil2" d="M21.45 119.08l-7.46 6.23c-2.9,2.15 -0.33,5.19 2.09,3.73l7.64 -6.3 24.01 -20.04c0.96,-0.78 3.04,-2.08 1.89,-4.05 -1.53,-2.62 -5.1,1.3 -7.4,3.19 -2.31,1.9 -4.51,3.84 -6.88,5.71l-13.89 11.53z"/>
  <path class="fil2" d="M91.73 97.88c-1.11,0.3 -1.87,0.9 -1.58,2.36 0.24,1.19 1.25,1.63 2.04,2.33 1.54,1.35 3.29,2.66 4.79,3.97l23.4 19.53c2.2,1.76 3.71,3.67 5.38,3.31 1.03,-0.22 1.84,-1.24 1.44,-2.66 -0.38,-1.32 -14.98,-12.84 -16.39,-14.05l-16.42 -13.67c-0.76,-0.65 -1.47,-1.44 -2.66,-1.12z"/>
 </g>
</svg>
