<?xml version="1.0" encoding="UTF-8"?>
<!DOCTYPE svg PUBLIC "-//W3C//DTD SVG 1.1//EN" "http://www.w3.org/Graphics/SVG/1.1/DTD/svg11.dtd">
<!-- Creator: CorelDRAW 2020 (64-Bit) -->
<svg xmlns="http://www.w3.org/2000/svg" xml:space="preserve" width="342.011mm" height="341.832mm" version="1.1" style="shape-rendering:geometricPrecision; text-rendering:geometricPrecision; image-rendering:optimizeQuality; fill-rule:evenodd; clip-rule:evenodd"
viewBox="0 0 568.56 568.26"
 xmlns:xlink="http://www.w3.org/1999/xlink"
 xmlns:xodm="http://www.corel.com/coreldraw/odm/2003">
 <defs>
  <style type="text/css">
   <![CDATA[
    .fil0 {fill:black}
    .fil6 {fill:#AAB2BD}
    .fil3 {fill:#B4DD7F}
    .fil4 {fill:#E5E7EC}
    .fil5 {fill:#F0D0B4}
    .fil1 {fill:#FBD56F}
    .fil2 {fill:#FDC629}
   ]]>
  </style>
 </defs>
 <g id="Capa_x0020_1">
  <metadata id="CorelCorpID_0Corel-Layer"/>
  <g id="_2071913660384">
   <path class="fil0" d="M372.48 391.79c-2.63,-8.46 4.82,-14.18 8.73,-17.45 7.39,-6.18 13.27,0.77 22.08,1.3 7.4,0.45 15.23,-2.53 20.38,-5.82 14.69,-9.39 7.9,-26.52 31.99,-21.24 11.25,2.47 4.68,17.85 28.22,25.6 11.31,3.72 13.96,0.47 22.82,-1.78 8.43,-2.14 13.75,4.78 17.09,8.82 8.72,10.57 -10.22,18.98 4.49,42.49 8.74,13.96 26.58,8.03 21.27,31.94 -2.52,11.34 -17.75,4.57 -25.6,28.22 -3.74,11.26 -0.46,14 1.78,22.84 2.15,8.46 -4.73,13.73 -8.8,17.09 -10.63,8.78 -19.05,-10.29 -42.47,4.5 -13.99,8.83 -8.04,26.51 -31.96,21.26 -7.38,-1.62 -7.39,-9.1 -12.23,-15.19 -3.76,-4.72 -8.35,-7.9 -15.97,-10.4 -11.35,-3.72 -13.89,-0.52 -22.85,1.76 -8.43,2.14 -13.7,-4.74 -17.08,-8.8 -8.72,-10.47 10.12,-19.08 -4.48,-42.49 -8.78,-14.08 -26.54,-7.89 -21.28,-31.94 1.62,-7.4 9.1,-7.4 15.19,-12.23 11.59,-9.19 13.93,-21.64 8.7,-38.47zm-188.6 -25.21l4.5 -4.13c5.52,-4.35 8.97,-8.76 12.71,-14.2l216.87 0.01c-6.81,20.58 -26.45,-4.58 -46.66,10.46 -3.54,2.64 -4.78,6.46 -8.41,7.52l-179 0.35zm256.03 -73.31l36.66 0 0 36.66 -36.66 0 0 -36.66zm-54.99 0l36.66 0 0 36.66 -36.66 0 0 -36.66zm-54.99 0l36.66 0 0 36.66 -36.66 0 0 -36.66zm-54.99 0l36.66 0 0 36.66 -36.66 0 0 -36.66zm-62.51 36.16c4.61,-10.3 7.2,-23.17 7.51,-36.16l36.68 0 0 36.69 -44.18 -0.53zm-84.11 -81.97c49.59,2.19 50.2,79.82 -0.02,82.45l0.02 -82.45zm311.58 -9.18l36.66 0 0 36.66 -36.66 0 0 -36.66zm-54.99 0l36.66 0 0 36.66 -36.66 0 0 -36.66zm-54.99 0l36.66 0 0 36.66 -36.66 0 0 -36.66zm-54.99 0l36.66 0 0 36.66 -36.66 0 0 -36.66zm-54.99 0l36.66 0 0 36.66 -36.66 0 0 -36.66zm219.95 -54.99l36.66 0 0 36.66 -36.66 0 0 -36.66zm-54.99 0l36.66 0 0 36.66 -36.66 0 0 -36.66zm-54.99 0l36.66 0 0 36.66 -36.66 0 0 -36.66zm-54.99 0l36.66 0 0 36.66 -36.66 0 0 -36.66zm-54.99 0l36.66 0 0 36.66 -36.66 0 0 -36.66zm-54.99 0l36.66 0c0.03,10.73 0.82,36.25 -0.5,45.35 -11.45,-12.32 -18,-20.79 -36.09,-28.2l-0.07 -4.54 0 -12.6zm54.96 -36.67l292.73 0c0.09,33.09 1.86,186.7 0.25,206.93 -13.43,-0.34 -27.48,10.4 -32.71,-5.12l14.7 -0.19 0 -183.28 -281.61 -0.19c3.98,-6.57 6.02,-7.83 6.64,-18.15zm-91.33 0l36.4 0c0.46,9.7 3.01,12.16 6.67,18.29l-25.02 0.05 0.02 29.06 -18.36 -1.56 0.29 -45.84zm-73.6 4.59c0,-25.92 15.32,-41.24 41.24,-41.24l13.75 0 0 82.48 -13.75 0c-25.92,0 -41.24,-15.32 -41.24,-41.24zm73.36 -41.2c15.96,0.87 25.11,7.57 31.16,18.29l-31.2 0 0.04 -18.29zm311.56 -73.36l18.33 0 0.01 54.99 -18.34 0 0 -54.99zm-91.65 0l18.33 0 0.01 54.99 -18.34 0 0 -54.99zm-91.65 0l18.33 0 0.14 54.99 -18.47 0 0 -54.99zm-155.8 -18.34l18.34 0 -0.03 54.99c36.23,0 63.12,13.22 76.32,44.02 3.02,7.05 7.34,21.65 5.98,30.28 -1.57,9.99 -16.8,12.92 -18.3,-3.24 -1.07,-11.6 -2.94,-18.98 -8.84,-27.67 -19.62,-28.93 -44.91,-25.05 -79.21,-25.05 -64.93,0 -76.42,81.79 -32.69,110.59 18.3,12.05 42.24,8.14 65.94,8.55 97.98,1.69 98.51,155.8 -2.33,155.8l-6.87 0 -0.01 54.99 -18.34 0 0.01 -54.99 -6.87 0c-43.48,0 -75.62,-32.05 -75.62,-75.62l0 -12.6c0,-16.88 18.11,-17.11 18.4,-0.07 0.25,15.09 -1.08,24.3 4.83,37.59 16.09,36.2 50.15,32.36 83.32,32.36 64.87,0 76.44,-81.75 32.69,-110.59 -18.34,-12.09 -42.18,-8.12 -65.95,-8.55 -98.12,-1.79 -98.35,-155.8 2.33,-155.8l6.87 0 0.01 -54.99zm117.12 109.72c-3.61,-19.99 -14.51,-36.85 -28.29,-49.56l-5.74 -5.16 54.38 -0c0,17.91 -2.93,36.66 21.77,36.66 32.94,0 33.22,-4.17 33.22,-36.66l36.66 0c0,17.91 -2.93,36.66 21.77,36.66 32.94,0 33.22,-4.17 33.22,-36.66l36.66 0c0,17.91 -2.93,36.66 21.77,36.66 32.94,0 33.22,-4.17 33.22,-36.66 23.93,0 36.66,-3.68 36.66,12.6l0 42.39 -295.3 -0.27zm-135.45 -73.05c-42.73,3.56 -82.48,42.99 -82.48,87.07 0,32.32 2.1,54.23 26.63,78.76 26.58,26.58 49.97,26.63 83.35,26.63l0 82.48c-23.53,0 -49.56,0.18 -54.55,-33.66 -1.85,-12.55 2,-23.62 -3.08,-33.58 -13.67,-26.81 -52.35,-15.22 -52.35,9.96 0,31.89 -0.49,58.75 25.48,84.5 7.78,7.71 14.11,12.65 24.54,17.85 9.35,4.65 20.08,8.89 32.46,9.92l0 54.99 54.99 0 0 -54.99 215.37 0c0,3.73 0.28,7.28 0.84,9.47 1.85,7.2 5.66,8.04 1.53,16.93 -1.85,3.98 -1.6,4.03 -5.61,5.88 -20.67,9.51 -19.67,19.31 -19.67,38.75 0,24.63 28.04,20.72 27.14,37.66 -0.43,8.11 -13.36,19.09 7.51,39.96 20.88,20.88 32.6,7.9 39.96,7.51 16.94,-0.9 13.03,27.14 37.66,27.14 15.36,0 29.74,1.83 37.94,-18.2 1.45,-3.54 1.03,-3.77 4.41,-5.9 11.41,-7.22 14.23,1.19 25.24,1.19 16.86,0 35.51,-18.65 35.51,-35.51 0,-7.5 -4,-11.85 -4.23,-16.18 -0.71,-13.43 13.71,-12.77 21.12,-21.92 8.48,-10.46 8.48,-34.77 0,-45.24 -7.41,-9.14 -21.83,-8.49 -21.12,-21.92 0.27,-5.08 10.41,-17.95 -1.94,-34.07 -5.39,-7.04 -7.74,-3.49 -7.63,-15.28l-0.19 -278.19c-1.71,-10.44 -12.5,-22.01 -24.96,-22.01l-29.79 0 0 -20.62c0,-7.15 -8.88,-16.04 -16.04,-16.04l-22.91 0c-7.15,0 -16.04,8.88 -16.04,16.04l0 20.62 -36.66 0 0 -20.62c0,-7.15 -8.88,-16.04 -16.04,-16.04l-22.91 0c-7.15,0 -16.04,8.88 -16.04,16.04l0 20.62 -36.66 0 0 -20.62c0,-7.15 -8.88,-16.04 -16.04,-16.04l-22.91 0c-7.15,0 -16.04,8.88 -16.04,16.04l0 20.62 -100.81 0 0 -54.99 -54.99 0 0 54.99z"/>
   <path class="fil1" d="M100.81 73.31l-6.87 0c-100.68,0 -100.45,154.01 -2.33,155.8 23.77,0.43 47.61,-3.54 65.95,8.55 43.75,28.84 32.18,110.59 -32.69,110.59 -33.17,0 -67.23,3.85 -83.32,-32.36 -5.91,-13.29 -4.58,-22.5 -4.83,-37.59 -0.28,-17.04 -18.4,-16.81 -18.4,0.07l0 12.6c0,43.56 32.14,75.62 75.62,75.62l6.87 0 -0.01 54.99 18.34 0 0.01 -54.99 6.87 0c100.84,0 100.31,-154.11 2.33,-155.8 -23.71,-0.41 -47.64,3.5 -65.94,-8.55 -43.73,-28.8 -32.24,-110.59 32.69,-110.59 34.3,0 59.58,-3.88 79.21,25.05 5.9,8.69 7.76,16.07 8.84,27.67 1.5,16.15 16.72,13.23 18.3,3.24 1.36,-8.63 -2.96,-23.23 -5.98,-30.28 -13.2,-30.8 -40.09,-44.02 -76.32,-44.02l0.03 -54.99 -18.34 0 -0.01 54.99z"/>
   <path class="fil2" d="M441.84 385.39c36.92,-4.56 67.16,23.72 70.9,56.18 4.29,37.28 -23.38,67.39 -56.16,71.18 -37.35,4.32 -67.43,-23.44 -71.19,-56.15 -4.34,-37.84 23.4,-67.12 56.45,-71.2zm-69.36 6.41c5.24,16.82 2.89,29.28 -8.7,38.47 -6.09,4.83 -13.58,4.83 -15.19,12.23 -5.25,24.06 12.51,17.86 21.28,31.94 14.6,23.42 -4.24,32.02 4.48,42.49 3.38,4.06 8.64,10.95 17.08,8.8 8.96,-2.28 11.5,-5.48 22.85,-1.76 7.63,2.5 12.22,5.68 15.97,10.4 4.84,6.09 4.85,13.56 12.23,15.19 23.92,5.26 17.98,-12.43 31.96,-21.26 23.42,-14.79 31.84,4.28 42.47,-4.5 4.06,-3.35 10.95,-8.63 8.8,-17.09 -2.24,-8.84 -5.52,-11.58 -1.78,-22.84 7.85,-23.64 23.08,-16.88 25.6,-28.22 5.31,-23.91 -12.53,-17.98 -21.27,-31.94 -14.71,-23.51 4.23,-31.92 -4.49,-42.49 -3.34,-4.05 -8.66,-10.96 -17.09,-8.82 -8.87,2.25 -11.52,5.5 -22.82,1.78 -23.54,-7.74 -16.96,-23.13 -28.22,-25.6 -24.1,-5.29 -17.3,11.85 -31.99,21.24 -5.14,3.29 -12.97,6.26 -20.38,5.82 -8.81,-0.53 -14.69,-7.49 -22.08,-1.3 -3.91,3.27 -11.36,8.99 -8.73,17.45z"/>
   <path class="fil3" d="M217.93 128.04l295.3 0.27 0 -42.39c0,-16.29 -12.73,-12.6 -36.66,-12.6 0,32.49 -0.28,36.66 -33.22,36.66 -24.69,0 -21.77,-18.75 -21.77,-36.66l-36.66 0c0,32.49 -0.28,36.66 -33.22,36.66 -24.69,0 -21.77,-18.75 -21.77,-36.66l-36.66 0c0,32.49 -0.28,36.66 -33.22,36.66 -24.69,0 -21.77,-18.75 -21.77,-36.66l-54.38 0 5.74 5.16c13.78,12.71 24.68,29.57 28.29,49.56z"/>
   <path class="fil4" d="M219.92 146.63c-0.62,10.33 -2.67,11.59 -6.64,18.15l281.61 0.19 0 183.28 -14.7 0.19c5.23,15.52 19.29,4.78 32.71,5.12 1.61,-20.23 -0.15,-173.84 -0.25,-206.93l-292.73 0z"/>
   <path class="fil0" d="M442.97 403.72c26.53,-3.72 48.39,16.06 51.47,38.98 3.61,26.9 -16.02,48.65 -38.99,51.74 -26.82,3.61 -48.67,-15.99 -51.75,-38.98 -3.65,-27.23 15.95,-48.47 39.28,-51.74zm-1.13 -18.33c-33.05,4.08 -60.79,33.36 -56.45,71.2 3.76,32.71 33.84,60.47 71.19,56.15 32.78,-3.79 60.45,-33.9 56.16,-71.18 -3.74,-32.46 -33.98,-60.73 -70.9,-56.18z"/>
   <path class="fil1" d="M444.17 422.09c16.5,-3.1 29.39,8.67 31.82,21.71 3.12,16.77 -8.22,29.8 -21.71,32.26 -36.01,6.59 -45.87,-47.24 -10.11,-53.97zm-1.2 -18.37c-23.33,3.27 -42.92,24.51 -39.28,51.74 3.08,22.99 24.93,42.59 51.75,38.98 22.97,-3.1 42.6,-24.84 38.99,-51.74 -3.07,-22.92 -24.94,-42.69 -51.47,-38.98z"/>
   <path class="fil4" d="M362.88 366.24c3.63,-1.06 4.87,-4.89 8.41,-7.52 20.22,-15.03 39.85,10.13 46.66,-10.46l-216.87 -0.01c-3.73,5.44 -7.19,9.85 -12.71,14.2l-4.5 4.13 179 -0.35z"/>
   <path class="fil4" d="M128.3 329.91c50.22,-2.62 49.62,-80.26 0.02,-82.45l-0.02 82.45z"/>
   <path class="fil0" d="M439.91 449.07c0,-11.57 18.33,-11.57 18.33,0 0,11.57 -18.33,11.57 -18.33,0zm4.26 -26.99c-35.76,6.73 -25.9,60.56 10.11,53.97 13.48,-2.47 24.83,-15.49 21.71,-32.26 -2.43,-13.03 -15.32,-24.81 -31.82,-21.71z"/>
   <path class="fil5" d="M212.43 329.44l44.18 0.53 0 -36.69 -36.68 0c-0.3,13 -2.9,25.87 -7.51,36.16z"/>
   <polygon class="fil5" points="219.96,219.95 256.61,219.95 256.61,183.3 219.96,183.3 "/>
   <polygon class="fil5" points="274.94,219.95 311.6,219.95 311.6,183.3 274.94,183.3 "/>
   <polygon class="fil5" points="329.93,219.95 366.59,219.95 366.59,183.3 329.93,183.3 "/>
   <polygon class="fil5" points="384.92,219.95 421.58,219.95 421.58,183.3 384.92,183.3 "/>
   <polygon class="fil5" points="439.91,219.95 476.57,219.95 476.57,183.3 439.91,183.3 "/>
   <polygon class="fil5" points="329.93,274.94 366.59,274.94 366.59,238.28 329.93,238.28 "/>
   <polygon class="fil5" points="384.92,274.94 421.58,274.94 421.58,238.28 384.92,238.28 "/>
   <polygon class="fil5" points="219.96,274.94 256.61,274.94 256.61,238.28 219.96,238.28 "/>
   <polygon class="fil5" points="274.94,274.94 311.6,274.94 311.6,238.28 274.94,238.28 "/>
   <polygon class="fil5" points="439.91,274.94 476.57,274.94 476.57,238.28 439.91,238.28 "/>
   <polygon class="fil5" points="329.93,329.93 366.59,329.93 366.59,293.27 329.93,293.27 "/>
   <polygon class="fil5" points="384.92,329.93 421.58,329.93 421.58,293.27 384.92,293.27 "/>
   <polygon class="fil5" points="274.94,329.93 311.6,329.93 311.6,293.27 274.94,293.27 "/>
   <polygon class="fil5" points="439.91,329.93 476.57,329.93 476.57,293.27 439.91,293.27 "/>
   <path class="fil4" d="M128.3 192.47l18.36 1.56 -0.02 -29.06 25.02 -0.05c-3.66,-6.13 -6.21,-8.59 -6.67,-18.29l-36.4 0 -0.29 45.84z"/>
   <path class="fil5" d="M164.97 195.9l0.07 4.54c18.1,7.41 24.65,15.89 36.09,28.2 1.32,-9.09 0.52,-34.61 0.5,-45.35l-36.66 0 0 12.6z"/>
   <polygon class="fil6" points="256.61,91.65 275.09,91.65 274.94,36.66 256.61,36.66 "/>
   <polygon class="fil6" points="348.26,91.65 366.6,91.65 366.59,36.66 348.26,36.66 "/>
   <polygon class="fil6" points="439.91,91.65 458.25,91.65 458.24,36.66 439.91,36.66 "/>
   <path class="fil3" d="M128.3 128.31l31.2 -0c-6.04,-10.72 -15.2,-17.42 -31.16,-18.29l-0.04 18.29z"/>
  </g>
 </g>
</svg>
