<?xml version="1.0" encoding="UTF-8"?>
<!DOCTYPE svg PUBLIC "-//W3C//DTD SVG 1.1//EN" "http://www.w3.org/Graphics/SVG/1.1/DTD/svg11.dtd">
<!-- Creator: CorelDRAW 2020 (64-Bit) -->
<svg xmlns="http://www.w3.org/2000/svg" xml:space="preserve" width="43.8543mm" height="43.8543mm" version="1.1" style="shape-rendering:geometricPrecision; text-rendering:geometricPrecision; image-rendering:optimizeQuality; fill-rule:evenodd; clip-rule:evenodd"
viewBox="0 0 380.22 380.22"
 xmlns:xlink="http://www.w3.org/1999/xlink"
 xmlns:xodm="http://www.corel.com/coreldraw/odm/2003">
 <defs>
  <style type="text/css">
   <![CDATA[
    .fil2 {fill:black}
    .fil0 {fill:#0D6EFD}
    .fil8 {fill:#AAB2BD}
    .fil5 {fill:#B4DD7F}
    .fil6 {fill:#E5E7EC}
    .fil7 {fill:#F0D0B4}
    .fil3 {fill:#FBD56F}
    .fil4 {fill:#FDC629}
    .fil1 {fill:white}
   ]]>
  </style>
 </defs>
 <g id="Capa_x0020_1">
  <metadata id="CorelCorpID_0Corel-Layer"/>
  <path class="fil0" d="M190.11 0c105,0 190.11,85.12 190.11,190.11 0,105 -85.12,190.11 -190.11,190.11 -104.99,0 -190.11,-85.12 -190.11,-190.11 0,-104.99 85.12,-190.11 190.11,-190.11zm0 14.89c96.77,0 175.22,78.45 175.22,175.22 0,96.77 -78.45,175.22 -175.22,175.22 -96.77,0 -175.22,-78.45 -175.22,-175.22 0,-96.77 78.45,-175.22 175.22,-175.22z"/>
  <circle class="fil1" cx="190.11" cy="190.11" r="175.22"/>
  <g id="_2068545295296">
   <path class="fil2" d="M226.64 246.18c-1.29,-4.16 2.37,-6.97 4.29,-8.57 3.63,-3.04 6.52,0.38 10.85,0.64 3.64,0.22 7.48,-1.24 10.01,-2.86 7.22,-4.61 3.88,-13.03 15.72,-10.44 5.53,1.21 2.3,8.77 13.87,12.58 5.56,1.83 6.86,0.23 11.21,-0.88 4.14,-1.05 6.76,2.35 8.4,4.34 4.28,5.2 -5.02,9.33 2.21,20.88 4.29,6.86 13.06,3.95 10.45,15.69 -1.24,5.57 -8.72,2.25 -12.58,13.87 -1.84,5.53 -0.23,6.88 0.87,11.22 1.06,4.16 -2.33,6.75 -4.32,8.4 -5.22,4.31 -9.36,-5.06 -20.87,2.21 -6.87,4.34 -3.95,13.03 -15.71,10.44 -3.63,-0.8 -3.63,-4.47 -6.01,-7.46 -1.84,-2.32 -4.1,-3.88 -7.85,-5.11 -5.58,-1.83 -6.83,-0.25 -11.23,0.87 -4.15,1.05 -6.73,-2.33 -8.39,-4.33 -4.28,-5.14 4.97,-9.37 -2.2,-20.88 -4.31,-6.92 -13.04,-3.88 -10.46,-15.7 0.79,-3.64 4.47,-3.64 7.47,-6.01 5.69,-4.51 6.85,-10.63 4.27,-18.9zm-92.68 -12.39l2.21 -2.03c2.71,-2.14 4.41,-4.3 6.25,-6.98l106.57 0c-3.35,10.11 -12.99,-2.25 -22.93,5.14 -1.74,1.29 -2.35,3.17 -4.13,3.7l-87.96 0.17zm125.81 -36.03l18.01 0 0 18.01 -18.01 0 0 -18.01zm-27.02 0l18.01 0 0 18.01 -18.01 0 0 -18.01zm-27.02 0l18.01 0 0 18.01 -18.01 0 0 -18.01zm-27.02 0l18.01 0 0 18.01 -18.01 0 0 -18.01zm-30.72 17.77c2.26,-5.06 3.54,-11.38 3.69,-17.77l18.02 0 0 18.03 -21.71 -0.26zm-41.33 -40.28c24.37,1.08 24.67,39.23 -0.01,40.51l0.01 -40.51zm153.11 -4.51l18.01 0 0 18.01 -18.01 0 0 -18.01zm-27.02 0l18.01 0 0 18.01 -18.01 0 0 -18.01zm-27.02 0l18.01 0 0 18.01 -18.01 0 0 -18.01zm-27.02 0l18.01 0 0 18.01 -18.01 0 0 -18.01zm-27.02 0l18.01 0 0 18.01 -18.01 0 0 -18.01zm108.09 -27.02l18.01 0 0 18.01 -18.01 0 0 -18.01zm-27.02 0l18.01 0 0 18.01 -18.01 0 0 -18.01zm-27.02 0l18.01 0 0 18.01 -18.01 0 0 -18.01zm-27.02 0l18.01 0 0 18.01 -18.01 0 0 -18.01zm-27.02 0l18.01 0 0 18.01 -18.01 0 0 -18.01zm-27.02 0l18.01 0c0.01,5.27 0.4,17.82 -0.24,22.28 -5.63,-6.05 -8.84,-10.22 -17.74,-13.86l-0.03 -2.23 0 -6.19zm27.01 -18.02l143.85 0c0.05,16.26 0.91,91.74 0.12,101.69 -6.6,-0.17 -13.51,5.11 -16.07,-2.51l7.22 -0.09 0 -90.06 -138.38 -0.09c1.95,-3.23 2.96,-3.85 3.26,-8.92zm-44.88 0l17.89 0c0.23,4.77 1.48,5.97 3.28,8.99l-12.3 0.03 0.01 14.28 -9.02 -0.77 0.14 -22.52zm-36.17 2.26c0,-12.74 7.53,-20.27 20.27,-20.27l6.76 0 0 40.53 -6.76 0c-12.74,0 -20.27,-7.53 -20.27,-20.27zm36.05 -20.25c7.84,0.43 12.34,3.72 15.31,8.99l-15.33 0 0.02 -8.99zm153.1 -36.05l9.01 0 0 27.02 -9.01 0 0 -27.02zm-45.04 0l9.01 0 0 27.02 -9.01 0 0 -27.02zm-45.03 0l9.01 0 0.07 27.02 -9.08 0 0 -27.02zm-76.56 -9.01l9.01 0 -0.01 27.02c17.8,0 31.02,6.5 37.51,21.63 1.49,3.47 3.61,10.64 2.94,14.88 -0.77,4.91 -8.25,6.35 -8.99,-1.59 -0.53,-5.7 -1.45,-9.33 -4.34,-13.6 -9.64,-14.21 -22.07,-12.31 -38.92,-12.31 -31.91,0 -37.55,40.19 -16.06,54.34 8.99,5.92 20.76,4 32.41,4.2 48.15,0.83 48.41,76.56 -1.14,76.56l-3.37 0 -0 27.02 -9.01 0 0 -27.02 -3.38 0c-21.36,0 -37.16,-15.75 -37.16,-37.16l0 -6.19c0,-8.29 8.9,-8.41 9.04,-0.04 0.12,7.42 -0.53,11.94 2.37,18.47 7.91,17.79 24.64,15.9 40.94,15.9 31.88,0 37.56,-40.17 16.06,-54.34 -9.01,-5.94 -20.72,-3.99 -32.41,-4.2 -48.22,-0.88 -48.33,-76.56 1.14,-76.56l3.37 0 0 -27.02zm57.55 53.91c-1.77,-9.82 -7.13,-18.11 -13.9,-24.35l-2.82 -2.54 26.72 -0c0,8.8 -1.44,18.01 10.7,18.01 16.19,0 16.32,-2.05 16.32,-18.01l18.01 0c0,8.8 -1.44,18.01 10.7,18.01 16.19,0 16.33,-2.05 16.33,-18.01l18.01 0c0,8.8 -1.44,18.01 10.7,18.01 16.19,0 16.32,-2.05 16.32,-18.01 11.76,0 18.01,-1.81 18.01,6.19l0 20.83 -145.11 -0.13zm-66.56 -35.9c-21,1.75 -40.53,21.12 -40.53,42.78 0,15.88 1.03,26.65 13.09,38.7 13.06,13.06 24.55,13.09 40.96,13.09l0 40.53c-11.57,0 -24.35,0.09 -26.8,-16.54 -0.91,-6.17 0.98,-11.6 -1.51,-16.5 -6.72,-13.18 -25.72,-7.48 -25.72,4.9 0,15.67 -0.24,28.87 12.52,41.52 3.82,3.79 6.93,6.22 12.06,8.77 4.59,2.29 9.87,4.37 15.95,4.88l0 27.02 27.02 0 0 -27.02 105.83 0c0,1.83 0.14,3.58 0.41,4.65 0.91,3.54 2.78,3.95 0.75,8.32 -0.91,1.96 -0.79,1.98 -2.76,2.89 -10.16,4.67 -9.67,9.49 -9.67,19.04 0,12.11 13.78,10.18 13.34,18.51 -0.21,3.98 -6.56,9.38 3.69,19.63 10.26,10.26 16.02,3.88 19.64,3.69 8.32,-0.44 6.4,13.34 18.51,13.34 7.55,0 14.62,0.9 18.64,-8.94 0.71,-1.74 0.51,-1.85 2.17,-2.9 5.61,-3.55 7,0.58 12.41,0.58 8.29,0 17.45,-9.17 17.45,-17.45 0,-3.68 -1.97,-5.82 -2.08,-7.95 -0.35,-6.6 6.74,-6.28 10.38,-10.77 4.17,-5.14 4.17,-17.09 0,-22.23 -3.64,-4.49 -10.73,-4.17 -10.38,-10.77 0.13,-2.49 5.11,-8.82 -0.96,-16.74 -2.65,-3.46 -3.81,-1.72 -3.75,-7.51l-0.09 -136.7c-0.84,-5.13 -6.14,-10.82 -12.26,-10.82l-14.64 0 0 -10.13c0,-3.52 -4.37,-7.88 -7.88,-7.88l-11.26 0c-3.51,0 -7.88,4.37 -7.88,7.88l0 10.13 -18.01 0 0 -10.13c0,-3.52 -4.37,-7.88 -7.88,-7.88l-11.26 0c-3.52,0 -7.88,4.37 -7.88,7.88l0 10.13 -18.01 0 0 -10.13c0,-3.52 -4.37,-7.88 -7.88,-7.88l-11.26 0c-3.51,0 -7.88,4.37 -7.88,7.88l0 10.13 -49.54 0 0 -27.02 -27.02 0 0 27.02z"/>
   <path class="fil3" d="M93.14 89.68l-3.37 0c-49.47,0 -49.36,75.68 -1.14,76.56 11.68,0.21 23.4,-1.74 32.41,4.2 21.5,14.17 15.82,54.34 -16.06,54.34 -16.3,0 -33.04,1.89 -40.94,-15.9 -2.9,-6.53 -2.25,-11.06 -2.37,-18.47 -0.14,-8.37 -9.04,-8.26 -9.04,0.04l0 6.19c0,21.41 15.79,37.16 37.16,37.16l3.38 0 -0 27.02 9.01 0 0 -27.02 3.37 0c49.55,0 49.29,-75.73 1.14,-76.56 -11.65,-0.2 -23.41,1.72 -32.41,-4.2 -21.49,-14.15 -15.84,-54.34 16.06,-54.34 16.85,0 29.28,-1.91 38.92,12.31 2.9,4.27 3.82,7.9 4.34,13.6 0.74,7.94 8.22,6.5 8.99,1.59 0.67,-4.24 -1.45,-11.41 -2.94,-14.88 -6.49,-15.13 -19.7,-21.63 -37.51,-21.63l0.01 -27.02 -9.01 0 -0 27.02z"/>
   <path class="fil4" d="M260.72 243.04c18.14,-2.24 33,11.66 34.84,27.61 2.11,18.32 -11.49,33.11 -27.6,34.98 -18.35,2.12 -33.14,-11.52 -34.98,-27.59 -2.13,-18.6 11.5,-32.98 27.74,-34.99zm-34.08 3.15c2.57,8.27 1.42,14.39 -4.27,18.9 -2.99,2.37 -6.67,2.37 -7.47,6.01 -2.58,11.82 6.15,8.78 10.46,15.7 7.17,11.51 -2.08,15.74 2.2,20.88 1.66,1.99 4.25,5.38 8.39,4.33 4.4,-1.12 5.65,-2.69 11.23,-0.87 3.75,1.23 6,2.79 7.85,5.11 2.38,2.99 2.38,6.67 6.01,7.46 11.76,2.58 8.83,-6.11 15.71,-10.44 11.51,-7.27 15.65,2.1 20.87,-2.21 2,-1.65 5.38,-4.24 4.32,-8.4 -1.1,-4.34 -2.71,-5.69 -0.87,-11.22 3.85,-11.62 11.34,-8.29 12.58,-13.87 2.61,-11.75 -6.16,-8.83 -10.45,-15.69 -7.23,-11.55 2.08,-15.68 -2.21,-20.88 -1.64,-1.99 -4.26,-5.39 -8.4,-4.34 -4.36,1.11 -5.66,2.7 -11.21,0.88 -11.57,-3.81 -8.34,-11.36 -13.87,-12.58 -11.84,-2.6 -8.5,5.82 -15.72,10.44 -2.53,1.62 -6.38,3.08 -10.01,2.86 -4.33,-0.26 -7.22,-3.68 -10.85,-0.64 -1.92,1.61 -5.58,4.42 -4.29,8.57z"/>
   <path class="fil5" d="M150.7 116.57l145.11 0.13 0 -20.83c0,-8 -6.26,-6.19 -18.01,-6.19 0,15.97 -0.14,18.01 -16.32,18.01 -12.13,0 -10.7,-9.21 -10.7,-18.01l-18.01 0c0,15.97 -0.14,18.01 -16.33,18.01 -12.13,0 -10.7,-9.21 -10.7,-18.01l-18.01 0c0,15.97 -0.14,18.01 -16.32,18.01 -12.13,0 -10.7,-9.21 -10.7,-18.01l-26.72 0 2.82 2.54c6.77,6.25 12.13,14.53 13.9,24.35z"/>
   <path class="fil6" d="M151.67 125.71c-0.3,5.08 -1.31,5.69 -3.26,8.92l138.38 0.09 0 90.06 -7.22 0.09c2.57,7.62 9.48,2.35 16.07,2.51 0.79,-9.94 -0.08,-85.43 -0.12,-101.69l-143.85 0z"/>
   <path class="fil2" d="M261.28 252.04c13.04,-1.83 23.78,7.89 25.29,19.15 1.77,13.22 -7.87,23.91 -19.16,25.43 -13.18,1.78 -23.92,-7.86 -25.43,-19.15 -1.79,-13.38 7.84,-23.82 19.3,-25.43zm-0.56 -9.01c-16.24,2.01 -29.87,16.39 -27.74,34.99 1.85,16.08 16.63,29.72 34.98,27.59 16.11,-1.86 29.71,-16.66 27.6,-34.98 -1.84,-15.95 -16.7,-29.85 -34.84,-27.61z"/>
   <path class="fil3" d="M261.87 261.07c8.11,-1.53 14.44,4.26 15.63,10.67 1.53,8.24 -4.04,14.64 -10.67,15.85 -17.69,3.24 -22.54,-23.22 -4.97,-26.52zm-0.59 -9.03c-11.46,1.61 -21.09,12.04 -19.3,25.43 1.51,11.3 12.25,20.93 25.43,19.15 11.29,-1.52 20.93,-12.21 19.16,-25.43 -1.51,-11.26 -12.25,-20.98 -25.29,-19.15z"/>
   <path class="fil6" d="M221.92 233.63c1.78,-0.52 2.39,-2.4 4.13,-3.7 9.94,-7.39 19.58,4.98 22.93,-5.14l-106.57 -0c-1.83,2.67 -3.53,4.84 -6.25,6.98l-2.21 2.03 87.96 -0.17z"/>
   <path class="fil6" d="M106.65 215.77c24.68,-1.29 24.38,-39.44 0.01,-40.51l-0.01 40.51z"/>
   <path class="fil2" d="M259.78 274.33c0,-5.69 9.01,-5.69 9.01,0 0,5.69 -9.01,5.69 -9.01,0zm2.09 -13.26c-17.57,3.31 -12.73,29.76 4.97,26.52 6.63,-1.21 12.2,-7.61 10.67,-15.85 -1.19,-6.4 -7.53,-12.19 -15.63,-10.67z"/>
   <path class="fil7" d="M147.99 215.54l21.71 0.26 0 -18.03 -18.02 0c-0.15,6.39 -1.42,12.71 -3.69,17.77z"/>
   <polygon class="fil7" points="151.69,161.74 169.7,161.74 169.7,143.73 151.69,143.73 "/>
   <polygon class="fil7" points="178.71,161.74 196.73,161.74 196.73,143.73 178.71,143.73 "/>
   <polygon class="fil7" points="205.73,161.74 223.75,161.74 223.75,143.73 205.73,143.73 "/>
   <polygon class="fil7" points="232.75,161.74 250.77,161.74 250.77,143.73 232.75,143.73 "/>
   <polygon class="fil7" points="259.78,161.74 277.79,161.74 277.79,143.73 259.78,143.73 "/>
   <polygon class="fil7" points="205.73,188.76 223.75,188.76 223.75,170.75 205.73,170.75 "/>
   <polygon class="fil7" points="232.75,188.76 250.77,188.76 250.77,170.75 232.75,170.75 "/>
   <polygon class="fil7" points="151.69,188.76 169.7,188.76 169.7,170.75 151.69,170.75 "/>
   <polygon class="fil7" points="178.71,188.76 196.73,188.76 196.73,170.75 178.71,170.75 "/>
   <polygon class="fil7" points="259.78,188.76 277.79,188.76 277.79,170.75 259.78,170.75 "/>
   <polygon class="fil7" points="205.73,215.78 223.75,215.78 223.75,197.77 205.73,197.77 "/>
   <polygon class="fil7" points="232.75,215.78 250.77,215.78 250.77,197.77 232.75,197.77 "/>
   <polygon class="fil7" points="178.71,215.78 196.73,215.78 196.73,197.77 178.71,197.77 "/>
   <polygon class="fil7" points="259.78,215.78 277.79,215.78 277.79,197.77 259.78,197.77 "/>
   <path class="fil6" d="M106.65 148.23l9.02 0.77 -0.01 -14.28 12.3 -0.03c-1.8,-3.01 -3.05,-4.22 -3.28,-8.99l-17.89 0 -0.14 22.52z"/>
   <path class="fil7" d="M124.67 149.92l0.03 2.23c8.89,3.64 12.11,7.81 17.74,13.86 0.65,-4.47 0.26,-17.01 0.24,-22.28l-18.01 0 0 6.19z"/>
   <polygon class="fil8" points="169.7,98.69 178.78,98.69 178.71,71.67 169.7,71.67 "/>
   <polygon class="fil8" points="214.74,98.69 223.75,98.69 223.75,71.67 214.74,71.67 "/>
   <polygon class="fil8" points="259.78,98.69 268.79,98.69 268.78,71.67 259.78,71.67 "/>
   <path class="fil5" d="M106.65 116.71l15.33 -0c-2.97,-5.27 -7.47,-8.56 -15.31,-8.99l-0.02 8.99z"/>
  </g>
 </g>
</svg>
