<?xml version="1.0" encoding="UTF-8"?>
<!DOCTYPE svg PUBLIC "-//W3C//DTD SVG 1.1//EN" "http://www.w3.org/Graphics/SVG/1.1/DTD/svg11.dtd">
<!-- Creator: CorelDRAW 2020 (64-Bit) -->
<svg xmlns="http://www.w3.org/2000/svg" xml:space="preserve" width="169.063mm" height="169.063mm" version="1.1" style="shape-rendering:geometricPrecision; text-rendering:geometricPrecision; image-rendering:optimizeQuality; fill-rule:evenodd; clip-rule:evenodd"
viewBox="0 0 127.53 127.53"
 xmlns:xlink="http://www.w3.org/1999/xlink"
 xmlns:xodm="http://www.corel.com/coreldraw/odm/2003">
 <defs>
  <style type="text/css">
   <![CDATA[
    .fil0 {fill:black}
    .fil11 {fill:#5D0E0E}
    .fil12 {fill:#705B02}
    .fil9 {fill:#781212}
    .fil14 {fill:#88775F}
    .fil13 {fill:#8C7B62}
    .fil1 {fill:#C81E1E}
    .fil6 {fill:#DDC29B}
    .fil7 {fill:#DFC49C}
    .fil2 {fill:#F34235}
    .fil4 {fill:#F57C00}
    .fil5 {fill:#FDDEB1}
    .fil10 {fill:#FEC108}
    .fil3 {fill:#FF9801}
    .fil8 {fill:#FFDC00}
   ]]>
  </style>
 </defs>
 <g id="Capa_x0020_1">
  <metadata id="CorelCorpID_0Corel-Layer"/>
  <g id="_1752290641472">
   <path class="fil0" d="M57.38 114.78l12.76 0.11 -0.01 8.32 -0.89 0.07 -10.96 0.02 -0.89 -0.11 -0.01 -8.4zm-29.92 -114.78l0.48 0c1.27,0.06 3.13,0.54 5.88,1.3 1.96,0.54 3.95,1.21 5.78,1.94 3.26,1.29 7.23,3.26 10.1,5.34 4.49,3.26 6.6,5.41 9.79,9.64 1.23,1.64 3.56,5.48 4.02,7.44l0.5 0c0.68,-2.93 3.93,-7.36 5.76,-9.68 2.75,-3.48 6.63,-6.64 10.48,-8.95 0.84,-0.5 1.45,-0.92 2.36,-1.38 4.16,-2.11 13.1,-5.64 17.52,-5.64 1.24,0 1.99,1.37 1.99,2.24l0 8.22c3.82,-0.09 8.55,-3.5 12.61,-0.4 1.18,0.9 3.09,3.55 4.14,4.83 0.74,0.9 1.31,1.61 1.94,2.55 1.17,-0.1 1.23,-0.5 2.49,-0.5 2.09,0 4.23,1.82 4.23,3.74l0 81.2c0,1.54 -0.82,2.6 -1.73,3.25l-37.46 16.59c-1.22,0.59 -2.21,0.96 -3.48,1.51 -1.18,0.51 -2.32,1.07 -3.42,1.56 -4.6,2.07 -6.29,2.67 -7.1,2.74l-0.29 0c-0.57,-0.06 -0.58,-0.5 -1.82,-0.5 -0.25,0 -0.55,0.5 -1.49,0.5l-13.95 0c-1.08,0 -1,-0.5 -1.74,-0.5 -1.52,0 -0.7,1.55 -5.65,-0.83 -1.21,-0.58 -2.26,-0.92 -3.49,-1.5l-10.19 -4.51c-9.89,-4.12 -21.09,-9.59 -30.78,-13.56 -2.16,-0.89 -4.95,-1.74 -4.95,-4.77l0 -81.2c0,-1.92 2.21,-3.74 4.23,-3.74 1.26,0 1.32,0.4 2.49,0.5 1.19,-1.77 5.11,-6.9 6.82,-7.88 3.52,-2 8.22,0.6 11.86,0.9 0,-7.57 -0.63,-10.32 2.05,-10.46zm42.41 110.56l-12.23 0.01c-0.42,-0.31 -0.31,0.49 -0.47,-0.95l0.26 -3.45 12.68 0.08c0.28,0.71 0.28,3.31 0.22,3.61 -0.24,1.19 0.14,0.44 -0.46,0.7zm-12.33 -46.79l12.45 0c0.17,0.27 0.12,0.02 0.22,0.52l0.03 1.72c-0.05,6.13 0.34,33.5 -0.25,36.11l-12.6 -0.09c-0.35,-2.07 -0.04,-30.34 -0.1,-36.27 -0.01,-1.25 -0.12,-1.4 0.25,-1.99zm16.85 -20.67c0.64,-0.96 4.81,-2.44 6.06,-2.99l42.82 -18.77 -0.01 80.31 -48.87 21.41 0 -79.96zm-70.16 -21.2l0.25 -0.52c12.2,5.05 24.53,10.89 36.73,16.13 2.07,0.89 3.97,1.79 6.05,2.67 1.29,0.55 5.25,1.99 5.87,2.93l-0.01 79.96c-1.19,-0.38 -3.77,-1.27 -4.49,-2.1 -1.38,-0.12 -9.2,-3.87 -11.18,-4.72l-27.69 -12.17c-1.76,-0.78 -3.86,-1.85 -5.51,-2.4l-0.02 -79.77zm53.55 33.43l8.1 -0.05 4.26 0.11 -0.01 4.13 -12.74 -0.08 0.01 -3.37c0.21,-0.96 -0.43,-0.34 0.39,-0.75zm12.12 -4.27l-12.28 0c-0.4,-0.32 -0.29,0.48 -0.43,-0.95 -0.15,-1.49 -0.06,-6.77 0.35,-7.67l12.56 0.07c0.46,1.17 0.19,4.73 0.22,6.59 0.03,2.22 0.02,1.75 -0.41,1.97zm2.15 -12.55l-1.36 -0.1 -4.82 -0.15c-0.13,-0.84 -0.46,-3.93 0.2,-4.27 1.1,-3.49 13.49,-10.37 18.48,-12.67 3.62,-1.67 7.31,-3.11 11.28,-4.42 2.23,-0.74 10.29,-3.29 12.29,-3.09 0.67,-0.5 2.5,-0.8 3.39,-0.54 1.06,0.31 3.02,3.13 3.73,4.02 0.66,0.83 1.22,1.34 1.63,2.24l-39.29 17.22c-0.87,0.39 -5.08,2.73 -5.53,1.77zm-10.57 -4.58c0.43,0.51 0.27,1.32 0.27,2.2 -0,0.78 0.03,1.36 -0.09,2.23l-4.83 0.04c-3.18,0.27 0.36,1.41 -6.17,-1.36l-40 -17.51c0.42,-0.94 1.56,-2.18 2.18,-2.94 3.25,-4 2.4,-4.07 9.94,-2.22 5.24,1.28 10.01,2.75 14.79,4.63 5.33,2.1 22.67,10.49 23.92,14.94zm7.3 -8.49c1.49,-4.62 7.38,-10.39 11.57,-13.33 2.27,-1.59 5.12,-3.15 8.05,-4.4 1.75,-0.75 7.43,-2.81 9.38,-2.84l-0.06 6.93c-2.36,1.02 -5.49,1.79 -7.98,2.73 -6.99,2.66 -11.56,5.11 -17.75,8.9 -1,0.61 -2.18,1.51 -3.21,2.01zm-39.02 -20.57c4.36,0.07 13.59,4.66 17.4,7.25 4.16,2.83 10.09,8.84 11.58,13.32 -1.21,-0.64 -2.14,-1.37 -3.35,-2.12 -10.88,-6.64 -13.08,-6.99 -25.63,-11.53l0 -6.93z"/>
   <path class="fil1" d="M114.55 83.69c-0.6,1.25 -6.14,3.4 -7.9,4.27 -5.08,2.52 -11.53,5.25 -16.61,7.81 -0.85,0.43 -3.46,1.73 -4.28,1.96 -1.85,0.5 -3.24,-1.12 -2.6,-2.85 0.44,-1.19 6.45,-3.62 7.92,-4.29l20.85 -9.81c1.87,-0.47 3.47,1.15 2.62,2.92zm4.29 -12.7c-0.46,1.19 -3.46,2.25 -4.69,2.81l-31.48 14.84c-2.47,1.25 -4.95,-0 -3.76,-2.49 0.5,-1.05 8.47,-4.44 10.05,-5.17l21 -9.89c1.78,-0.82 3.51,-1.63 5.25,-2.48 2.38,-1.15 4.54,0.03 3.64,2.37zm-0.08 -10.46c-0.65,1.15 -11.67,5.93 -13.69,6.92l-20.99 9.89c-3.18,1.51 -5.46,2.6 -5.43,-2.36 0.02,-2.84 -0.34,-19.43 0.26,-20.74 0.43,-0.94 12,-6.13 13.76,-6.91 7.1,-3.17 14.13,-6.8 20.99,-9.89 3.24,-1.46 5.41,-2.58 5.38,2.41 -0.01,2.68 0.29,19.68 -0.27,20.68zm-44.37 -17.44l0 79.96 48.87 -21.41 0.01 -80.31 -42.82 18.77c-1.25,0.55 -5.43,2.02 -6.06,2.99z"/>
   <path class="fil2" d="M14.01 80.93c1.46,-0.71 3.12,0.59 4.48,1.2l25.05 11.81c1.47,0.95 1.25,3.09 -0.19,3.73 -1.48,0.66 -6.52,-2.27 -8.75,-3.27l-20.79 -9.84c-1.22,-0.8 -1.67,-2.74 0.2,-3.65zm34.62 40.03c0.69,-0.87 0.26,-14.09 0.26,-16.34 0,-2.82 0,-5.65 0,-8.47 0,-1.04 0.38,-7.67 -0.3,-7.77 -2.17,1.73 -3.04,0.5 -5.39,-0.56 -10.22,-4.63 -20.44,-9.71 -30.67,-14.42 -1.64,-0.76 -4.15,-1.34 -4.01,-3.37 0.2,-2.95 2.93,-1.78 4.65,-1.01 4.44,2 34.19,15.89 35.44,16.92 0.49,-0.24 0.31,-7.11 0.23,-8.22l-0.21 -0c-1.85,1.78 -3.89,0.27 -5.99,-0.79 -8.75,-4.44 -21.02,-9.87 -30.3,-14.28 -3.13,-1.49 -3.86,-0.95 -3.84,-5.1 0.01,-2.91 0,-5.81 0,-8.72 0,-9.67 -1.27,-14.43 4.33,-11.85 4.38,2.02 34.24,15.78 35.79,17.08 0.51,-0.26 0.27,-7.98 0.27,-9.22 0.02,-4.43 -0.77,-3.83 -4.41,-5.39l-26.8 -11.81c-2.26,-1 -4.51,-1.99 -6.76,-2.96 -1.57,-0.68 -5.2,-2.55 -6.7,-2.79l0.02 79.77c1.66,0.56 3.76,1.62 5.51,2.4l27.69 12.17c1.98,0.85 9.81,4.6 11.18,4.72z"/>
   <path class="fil3" d="M12.75 57.79c0.43,0.97 6.41,3.42 7.67,3.98l15.91 7.5c2.25,1.03 6.07,3.16 8.3,3.82l-0 -16.56 -31.81 -14.89 -0.08 16.15z"/>
   <path class="fil4" d="M82.94 56.59l-0.05 16.5c2.12,-0.6 23.43,-11.07 28.11,-13.14 0.98,-0.44 3.38,-1.24 3.78,-2.15l-0 -16.09 -31.83 14.9z"/>
   <path class="fil5" d="M56.83 38.39c1.02,-0.58 3.32,-0.24 4.68,-0.24l-0.02 -4.22c-1.25,-4.45 -18.59,-12.84 -23.92,-14.94 -4.78,-1.89 -9.55,-3.35 -14.79,-4.63 -7.55,-1.85 -6.69,-1.78 -9.94,2.22 -0.62,0.76 -1.75,2 -2.18,2.94l40 17.51c6.53,2.77 2.98,1.64 6.17,1.36z"/>
   <path class="fil0" d="M114.77 41.69l0 16.09c-0.39,0.91 -2.79,1.72 -3.78,2.15 -4.67,2.07 -25.99,12.55 -28.11,13.14l0.05 -16.5 31.83 -14.9zm3.99 18.83c0.56,-0.99 0.26,-18 0.27,-20.68 0.03,-5 -2.14,-3.87 -5.38,-2.41 -6.87,3.09 -13.89,6.72 -20.99,9.89 -1.76,0.78 -13.33,5.98 -13.76,6.91 -0.6,1.3 -0.25,17.9 -0.26,20.74 -0.03,4.96 2.25,3.87 5.43,2.36l20.99 -9.89c2.02,-0.99 13.04,-5.77 13.69,-6.92z"/>
   <path class="fil0" d="M12.83 41.64l31.81 14.89 0 16.56c-2.23,-0.66 -6.04,-2.78 -8.3,-3.82l-15.91 -7.5c-1.26,-0.56 -7.24,-3.01 -7.67,-3.98l0.08 -16.15zm35.81 36.08c0.46,-1.98 0.46,-21.73 -0.01,-23.66 -1.54,-1.3 -31.4,-15.05 -35.79,-17.08 -5.6,-2.58 -4.33,2.18 -4.33,11.85 0,2.91 0.01,5.81 -0,8.72 -0.02,4.15 0.71,3.62 3.84,5.1 9.28,4.41 21.55,9.84 30.3,14.28 2.1,1.07 4.15,2.57 5.99,0.79z"/>
   <path class="fil5" d="M66.08 33.97l-0.04 4.18c1.34,0 3.65,-0.34 4.65,0.24l1.36 0.1c1.33,-0.07 18.21,-7.78 20.95,-9 2.67,-1.19 19.86,-8.54 20.82,-9.32 -0.33,-0.77 -1.99,-2.62 -2.71,-3.52 -1.32,-1.64 -1.64,-2.57 -3.01,-2.87 -1.99,-0.2 -10.06,2.35 -12.29,3.09 -3.96,1.32 -7.66,2.75 -11.28,4.42 -4.98,2.3 -17.38,9.18 -18.48,12.67z"/>
   <polygon class="fil1" points="69.99,63.76 57.54,63.76 57.54,101.87 69.99,101.87 "/>
   <path class="fil1" d="M4.23 21.89c1.5,0.25 5.13,2.11 6.7,2.79 2.25,0.98 4.5,1.97 6.76,2.96l26.8 11.81c3.63,1.55 4.43,0.96 4.41,5.39 -0.01,1.24 0.24,8.96 -0.27,9.22 0.47,1.93 0.47,21.68 0.01,23.66l0.21 0c0.08,1.11 0.27,7.98 -0.23,8.22 0.26,1.08 0.26,1.37 -0.02,2.44 0.68,0.1 0.3,6.73 0.3,7.77 0,2.82 0,5.65 0,8.47 0,2.25 0.43,15.47 -0.26,16.34 0.72,0.83 3.3,1.72 4.49,2.1l0.01 -79.96c-0.62,-0.94 -4.58,-2.38 -5.87,-2.93 -2.08,-0.88 -3.98,-1.78 -6.05,-2.67 -12.2,-5.24 -24.54,-11.08 -36.73,-16.13l-0.25 0.52z"/>
   <path class="fil0" d="M48.59 88.37c0.29,-1.07 0.29,-1.36 0.02,-2.44 -1.25,-1.03 -31,-14.92 -35.44,-16.92 -1.72,-0.77 -4.45,-1.95 -4.65,1.01 -0.13,2.02 2.37,2.61 4.01,3.37 10.23,4.72 20.45,9.8 30.67,14.42 2.34,1.06 3.21,2.29 5.39,0.56z"/>
   <path class="fil0" d="M118.84 70.99c0.9,-2.34 -1.25,-3.53 -3.64,-2.37 -1.75,0.85 -3.47,1.66 -5.25,2.48l-21 9.89c-1.58,0.73 -9.55,4.11 -10.05,5.17 -1.19,2.49 1.29,3.75 3.76,2.49l31.48 -14.84c1.24,-0.56 4.23,-1.62 4.69,-2.81z"/>
   <path class="fil6" d="M29.76 11.79c12.55,4.54 14.75,4.89 25.63,11.53 1.22,0.74 2.14,1.47 3.35,2.12 -1.49,-4.48 -7.42,-10.49 -11.58,-13.32 -3.82,-2.6 -13.04,-7.19 -17.4,-7.25l-0 6.93z"/>
   <path class="fil6" d="M68.78 25.43c1.03,-0.5 2.21,-1.4 3.21,-2.01 6.18,-3.8 10.75,-6.25 17.75,-8.9 2.49,-0.95 5.62,-1.71 7.98,-2.73l0.06 -6.93c-1.95,0.03 -7.63,2.09 -9.38,2.84 -2.93,1.25 -5.78,2.81 -8.05,4.4 -4.19,2.94 -10.08,8.71 -11.57,13.33z"/>
   <path class="fil0" d="M114.55 83.69c0.86,-1.77 -0.75,-3.39 -2.62,-2.92l-20.85 9.81c-1.47,0.67 -7.48,3.1 -7.92,4.29 -0.64,1.73 0.75,3.35 2.6,2.85 0.83,-0.22 3.43,-1.53 4.28,-1.96 5.08,-2.56 11.53,-5.28 16.61,-7.81 1.76,-0.88 7.29,-3.03 7.9,-4.27z"/>
   <path class="fil0" d="M14.01 80.93c-1.87,0.91 -1.42,2.85 -0.2,3.65l20.79 9.84c2.23,1 7.27,3.93 8.75,3.27 1.43,-0.64 1.65,-2.78 0.19,-3.73l-25.05 -11.81c-1.36,-0.62 -3.02,-1.92 -4.48,-1.2z"/>
   <polygon class="fil1" points="57.39,123.19 58.28,123.3 69.24,123.28 70.13,123.21 70.14,114.9 57.38,114.78 "/>
   <path class="fil1" d="M57.62 51.04l12.28 0c0.38,-1.75 0.15,-6.33 0.15,-8.39l-12.58 0c0,2.05 -0.24,6.64 0.15,8.39z"/>
   <path class="fil7" d="M108.12 13.78c1.37,0.31 1.69,1.23 3.01,2.87 0.72,0.89 2.37,2.75 2.71,3.52 -0.97,0.78 -18.15,8.13 -20.82,9.32 -2.74,1.22 -19.62,8.93 -20.95,9 0.45,0.97 4.66,-1.38 5.53,-1.77l39.29 -17.22c-0.41,-0.9 -0.96,-1.41 -1.63,-2.24 -0.71,-0.89 -2.67,-3.71 -3.73,-4.02 -0.9,-0.26 -2.72,0.04 -3.39,0.54z"/>
   <path class="fil8" d="M65.89 55.27l-8.1 0.05 0 4.08c1.85,0 6.66,0.35 8.1,-0.23l0 -3.9z"/>
   <polygon class="fil8" points="57.55,110.1 65.89,110.1 65.89,106.41 57.46,106.4 "/>
   <path class="fil9" d="M69.99 63.76l0 38.11 -12.45 0 0 -38.11c-0.38,0.59 -0.27,0.74 -0.25,1.99 0.06,5.93 -0.24,34.2 0.1,36.27l12.6 0.09c0.59,-2.61 0.2,-29.98 0.25,-36.11l-0.03 -1.72c-0.1,-0.5 -0.05,-0.26 -0.22,-0.52z"/>
   <path class="fil10" d="M57.55 110.1l0.09 0.47 12.23 -0.01c0.37,-1.29 0.19,-2.79 0.19,-4.15l-4.17 0 0 3.68 -8.34 0z"/>
   <path class="fil10" d="M65.89 55.27l0 3.9c-1.44,0.58 -6.25,0.23 -8.1,0.23l0 -4.08c-0.82,0.41 -0.17,-0.21 -0.39,0.75l-0.01 3.37 12.74 0.08 0.01 -4.13 -4.26 -0.11z"/>
   <path class="fil11" d="M57.62 51.04c-0.38,-1.75 -0.15,-6.33 -0.15,-8.39l12.58 0c0,2.05 0.24,6.64 -0.15,8.39 0.43,-0.22 0.44,0.25 0.41,-1.97 -0.02,-1.86 0.24,-5.41 -0.22,-6.59l-12.56 -0.07c-0.41,0.9 -0.5,6.18 -0.35,7.67 0.14,1.43 0.03,0.64 0.43,0.95z"/>
   <path class="fil12" d="M57.64 110.57l-0.09 -0.47 -0.09 -3.7 8.43 0.01 4.17 -0c0,1.36 0.18,2.86 -0.19,4.15 0.61,-0.26 0.22,0.49 0.46,-0.7 0.06,-0.3 0.06,-2.9 -0.22,-3.61l-12.68 -0.08 -0.26 3.45c0.16,1.44 0.05,0.64 0.47,0.95z"/>
   <path class="fil13" d="M56.83 38.39l4.83 -0.04c0.12,-0.87 0.09,-1.45 0.09,-2.23 0,-0.87 0.17,-1.69 -0.27,-2.2l0.02 4.22c-1.36,0 -3.66,-0.34 -4.68,0.24z"/>
   <path class="fil14" d="M70.69 38.39c-1.01,-0.58 -3.31,-0.24 -4.65,-0.24l0.04 -4.18c-0.66,0.35 -0.33,3.43 -0.2,4.27l4.82 0.15z"/>
  </g>
 </g>
</svg>
