<?xml version="1.0" encoding="UTF-8"?>
<!DOCTYPE svg PUBLIC "-//W3C//DTD SVG 1.1//EN" "http://www.w3.org/Graphics/SVG/1.1/DTD/svg11.dtd">
<!-- Creator: CorelDRAW 2020 (64-Bit) -->
<svg xmlns="http://www.w3.org/2000/svg" xml:space="preserve" width="252.982mm" height="345.137mm" version="1.1" style="shape-rendering:geometricPrecision; text-rendering:geometricPrecision; image-rendering:optimizeQuality; fill-rule:evenodd; clip-rule:evenodd"
viewBox="0 0 269.76 368.03"
 xmlns:xlink="http://www.w3.org/1999/xlink"
 xmlns:xodm="http://www.corel.com/coreldraw/odm/2003">
 <defs>
  <style type="text/css">
   <![CDATA[
    .fil0 {fill:black}
    .fil6 {fill:#63A579}
    .fil4 {fill:#69AE80}
    .fil3 {fill:#92D1A1}
    .fil1 {fill:#DD8521}
    .fil2 {fill:#E6A42E}
    .fil5 {fill:#F2DA44}
   ]]>
  </style>
 </defs>
 <g id="Capa_x0020_1">
  <metadata id="CorelCorpID_0Corel-Layer"/>
  <g id="_2070009768656">
   <path class="fil0" d="M213.27 351c-4.22,0.8 -4.58,-8.25 -6.34,-16.14 -4.36,-19.57 -2.98,-19.63 -22.7,-24.05 -3.51,-0.79 -16.77,-2.54 -17.85,-5.08 -1.67,-3.92 9.62,-4.86 16.4,-6.33 6.04,-1.31 13.39,-2.18 17.41,-5.57 6.96,-5.86 6.36,-26.49 10.8,-35.02 5.22,-0.01 4.59,5.16 7.11,16.75 1.35,6.24 2.38,14.28 5.86,17.84 3.72,3.81 20.36,6.48 27.83,8.07 4.89,1.04 6.77,0.29 6.85,5.05 -9.1,4.46 -27.8,3.52 -34.65,10.37 -4.69,4.69 -6.68,22.71 -8.75,30.81 -0.97,3.77 0.15,1.93 -1.96,3.31zm-203.4 -351l61.82 0 15.59 0c1.36,0.26 2.48,0.68 3.2,1.34l8.52 11.6c2.9,3.85 5.56,7.66 8.52,11.6l12.84 17.35c1.58,2.12 2.44,4.16 4.51,5.55 2.49,-1.66 22.48,-29.98 26.18,-34.91 8.18,-10.88 7.81,-12.37 13.42,-12.53l4.81 0c2.17,0.01 4.43,0.01 6.75,0l63.83 0c6.87,0.57 6.91,5.32 3.05,10.94l-58.82 79.91c-0.68,0.83 -0.58,0.68 -0.99,1.16 2.1,3.13 3.99,3.92 6.25,8.13 1.66,3.11 3.02,6.83 3.13,11.25 0.22,9.22 -0.03,18.8 -0.03,28.06 2.87,0.77 13.7,9.71 15.64,11.67 21.16,21.4 31.98,36.56 39.14,67.96 2.44,10.7 1.38,11.21 2.11,18.01 1.43,13.3 -0.41,28.53 -4.33,41.17 -0.93,3.01 -2.71,6.82 -2.97,9.97 3,0.25 17.97,3.59 20.83,5.04 5.19,2.64 8.57,9.65 6,16.74 -2.49,6.86 -8.69,7.85 -16.35,9.53l-20.54 4.62c-2.81,2.81 -3.99,28.57 -10.2,34.36 -8.71,8.13 -23.21,3.23 -23.58,-13.52 -17.05,11.42 -29.15,17.4 -49.65,21.51 -2.22,0.45 -5.34,1.21 -8.3,1.49l-3.86 0c-2.79,-0.36 -4.86,-1.7 -4.92,-5.03 0.86,-7.46 8.64,-5.93 16.17,-7.48 30.2,-6.21 40.43,-18.45 47.99,-21.88l-2.22 -9.66c-17.91,-4.39 -12.49,-5 -23.11,1.06 -2.45,1.4 -4.18,2.34 -6.63,3.42 -10.03,4.43 -20.15,7.44 -32.55,8.26 -69.25,4.61 -121.55,-66.73 -89.27,-134.42 26.94,-56.48 111.09,-72.46 156.32,-15.35 12.63,15.94 20.09,35.36 19.58,61.91 6.85,4.36 6.74,5.3 8.9,15.29 1.3,6.01 2,14.27 4.63,19.3 5.06,-7.39 7.33,-27.61 7.43,-38.33 0.12,-13.52 -2.19,-26.69 -6.33,-38.47 -34.14,-97.14 -170.88,-103.54 -212.37,-6.75 -9.67,22.56 -11.76,51.07 -4.35,76.07 12.17,41.05 48.55,76.64 97.83,81.23l-0.37 5.8c-0.1,1.91 -0.45,2.29 -0.45,5.03 -17.27,0 -42.11,-10.29 -55.93,-19.55 -2.63,-1.76 -4.76,-3.12 -7.23,-4.99 -2.17,-1.63 -4.8,-3.58 -6.76,-5.46 -8.57,-8.26 -16.82,-16.63 -23.22,-27.09 -23.48,-38.37 -25.18,-77.17 -8.31,-118.4 1.48,-3.63 2.65,-5.56 4.38,-8.56 1.55,-2.69 2.78,-5.06 4.49,-7.73 1.73,-2.71 3.17,-4.54 5.1,-7.12 1.75,-2.35 3.48,-4.7 5.37,-6.85 6.45,-7.3 18.12,-18.25 26.77,-22.83 0,-9.26 -0.25,-18.85 -0.03,-28.06 0.15,-6.35 2.47,-10.72 5.74,-15.1 1.36,-1.82 1.23,-2.2 3.63,-2.84 -0.89,-3.84 -46.93,-65.22 -51.24,-70.96 -4.42,-5.89 -19.17,-21.41 -5.55,-22.49zm152.49 317.24c-50.28,23.11 -94.7,-2.45 -111.68,-38.21 -13.14,-27.67 -9.63,-57.29 7.09,-82.34 7.44,-11.15 20.82,-22.22 34.47,-28.06 42.44,-18.15 90.8,1.18 109.09,45.33 2.39,5.77 9.38,30.61 4.33,35.75 -1.57,1.6 -3.55,2.03 -5.12,5.64l-5.85 25.14c-0.88,4.2 -0.36,5.26 -4.42,6.28 -7.46,1.86 -18.34,3.48 -25.34,5.59 -5.16,1.56 -8.95,5.34 -9.49,11.23 -0.81,8.77 4.83,10.83 6.92,13.65zm-93.55 -184.98c0,-5.99 0.04,-11.99 -0.01,-17.98 -0.06,-6.79 0.99,-10.21 5.04,-12.93 0.66,2.48 4.25,6.29 5.86,8.52 2.57,3.55 3.09,5.86 9.23,5.86l71.88 0c7.13,0 7.78,-4.02 12.01,-9.55 1.28,-1.68 2.54,-2.8 3.08,-4.82 7.16,4.79 5.03,18.31 5.03,30.91 -2.93,-0.68 -7.78,-3.4 -11.08,-4.74 -3.62,-1.46 -8.26,-2.94 -11.92,-3.9 -28.94,-7.57 -55.78,-5.42 -83.09,6.06 -2.47,1.04 -3.53,1.99 -6.05,2.58zm93.05 -33.7l2.91 -0.24 -1.34 2.28 -1.57 -2.04zm-29.98 -41.05c3.22,-5.92 32.04,-42.71 33.88,-46.7l63.36 0.04 -49.47 67.65c-8.5,11.81 -3.76,9.23 -26.06,9.06 -4.59,-6.66 -19.08,-24.99 -21.7,-30.05zm-41.51 46.92c-2.85,-1.05 -2.37,-1.94 -5.27,-5.71l-12.81 -17.37c-5.96,-8.27 -11.49,-15.48 -17.36,-23.61 -5.87,-8.12 -11.49,-15.46 -17.36,-23.62l-16.86 -23.33 63.35 0c1.72,3.47 6.12,8.5 8.64,12.03l59.5 81.56 -61.83 0.05z"/>
   <path class="fil1" d="M144 188.89c3.62,1.47 8.06,4.91 9.32,8.78 6.13,-1.4 7.63,0.37 9.78,5.64 1.7,4.17 2.91,9.28 3.05,14.49 0.3,11.26 -3.46,18.78 -8.16,25.88 1.24,3.6 4.28,7.17 6.11,12.54 5.27,15.48 0.07,32.15 -10.31,42.25 -23.76,23.11 -62.06,10.21 -69.01,-19.72 -2.8,-12.05 0.4,-22.28 10.43,-25.16 12.24,-3.52 19.48,5.35 20.8,15.31 1.95,14.69 20.16,9.8 17.45,-2.07 -2.29,-10.03 -15.99,-3.14 -22.61,-14.89 -5.77,-10.24 1.11,-21.62 10.13,-23.62 5.52,-1.22 10.45,-0.31 12.3,-6.48 1.81,-6.06 -1.82,-10.72 -6.58,-11.57 -12.87,-2.3 -7.39,12.28 -19.18,18.22 -16.21,8.18 -35.9,-12.23 -12.64,-37.81 9.71,-10.68 25.73,-15.71 41.29,-11.47 6.06,1.65 9.8,2.88 7.83,9.69zm18.37 128.35c-2.09,-2.82 -7.74,-4.88 -6.92,-13.65 0.55,-5.9 4.33,-9.67 9.49,-11.23 7,-2.12 17.87,-3.73 25.34,-5.59 4.06,-1.02 3.54,-2.07 4.42,-6.28l5.85 -25.14c1.57,-3.6 3.55,-4.04 5.12,-5.64 5.05,-5.14 -1.94,-29.98 -4.33,-35.75 -18.29,-44.15 -66.65,-63.47 -109.09,-45.33 -13.65,5.84 -27.03,16.91 -34.47,28.06 -16.72,25.06 -20.23,54.67 -7.09,82.34 16.98,35.76 61.4,61.32 111.68,38.21z"/>
   <path class="fil2" d="M113.11 363c3.93,0 6.21,0.12 9.1,0.53 4.62,0.66 5.57,-0.45 9.25,-0.53 0.86,-7.46 8.64,-5.93 16.17,-7.48 30.2,-6.21 40.43,-18.45 47.99,-21.88l-2.22 -9.66c-17.91,-4.39 -12.49,-5 -23.11,1.06 -2.45,1.4 -4.18,2.34 -6.63,3.42 -10.03,4.43 -20.15,7.44 -32.55,8.26 -69.25,4.61 -121.55,-66.73 -89.27,-134.42 26.94,-56.48 111.09,-72.46 156.32,-15.35 12.63,15.94 20.09,35.36 19.58,61.91 6.85,4.36 6.74,5.3 8.9,15.29 1.3,6.01 2,14.27 4.63,19.3 5.06,-7.39 7.33,-27.61 7.43,-38.33 0.12,-13.52 -2.19,-26.69 -6.33,-38.47 -34.14,-97.14 -170.88,-103.54 -212.37,-6.75 -9.67,22.56 -11.76,51.07 -4.35,76.07 12.17,41.05 48.55,76.64 97.83,81.23l-0.37 5.8z"/>
   <path class="fil3" d="M90.38 104.42l61.83 -0.05 -59.5 -81.56c-2.53,-3.52 -6.93,-8.56 -8.64,-12.03l-63.35 -0 16.86 23.33c5.87,8.16 11.48,15.5 17.36,23.62 5.88,8.13 11.41,15.34 17.36,23.61l12.81 17.37c2.9,3.78 2.42,4.67 5.27,5.71z"/>
   <path class="fil0" d="M153.32 197.66c-6.59,9.45 12.34,18.04 -6.04,41.82 -4.28,5.54 -0.76,7.83 2.32,11.83 13.93,18.08 1.62,41.83 -16.12,46.96 -10.41,3.01 -21.7,-0.18 -27.93,-5.79 -7.15,-6.44 -14.02,-19.15 -10.36,-26.01 2.44,-4.58 8.96,-3.44 9.99,2.52 1.1,6.32 1.9,9.88 5.21,13.62 5.9,6.67 18.54,8.3 26.62,1.93 7.23,-5.71 10.6,-17.04 4.24,-26.32 -2.43,-3.55 -5.88,-6.64 -10.71,-7.97 -5.34,-1.48 -12.66,-0.15 -10.71,-7.87 1.8,-7.15 15.14,-0 22.45,-14.4 5.54,-10.89 0,-21.74 -7.35,-25.99 -9.98,-5.76 -19.98,-1.94 -25.76,5.11 -2.92,3.57 -3.15,10.54 -6.91,11.9 -12.27,4.41 -8.62,-20.78 11.79,-28.56 17.91,-6.83 22.92,5.66 29.94,-1.55 1.97,-6.81 -1.77,-8.04 -7.83,-9.69 -15.56,-4.24 -31.59,0.8 -41.29,11.47 -23.26,25.58 -3.57,45.99 12.64,37.81 11.79,-5.95 6.31,-20.52 19.18,-18.22 4.76,0.85 8.39,5.52 6.58,11.57 -1.85,6.17 -6.77,5.26 -12.3,6.48 -9.02,2 -15.9,13.37 -10.13,23.62 6.61,11.75 20.32,4.86 22.61,14.89 2.71,11.87 -15.5,16.76 -17.45,2.07 -1.32,-9.95 -8.56,-18.83 -20.8,-15.31 -10.03,2.88 -13.23,13.1 -10.43,25.16 6.95,29.94 45.24,42.84 69.01,19.72 10.38,-10.1 15.59,-26.77 10.31,-42.25 -1.83,-5.37 -4.87,-8.93 -6.11,-12.54 4.7,-7.11 8.46,-14.63 8.16,-25.88 -0.14,-5.21 -1.35,-10.32 -3.05,-14.49 -2.15,-5.27 -3.65,-7.04 -9.78,-5.64z"/>
   <path class="fil4" d="M131.89 57.5c2.62,5.06 17.12,23.39 21.7,30.05 22.3,0.16 17.56,2.74 26.06,-9.06l49.47 -67.65 -63.36 -0.04c-1.84,4 -30.66,40.78 -33.88,46.7z"/>
   <path class="fil2" d="M153.32 197.66c-1.26,-3.87 -5.7,-7.31 -9.32,-8.78 -7.02,7.21 -12.03,-5.28 -29.94,1.55 -20.41,7.78 -24.06,32.98 -11.79,28.56 3.76,-1.35 3.98,-8.33 6.91,-11.9 5.77,-7.05 15.78,-10.87 25.76,-5.11 7.36,4.25 12.89,15.1 7.35,25.99 -7.32,14.39 -20.65,7.25 -22.45,14.4 -1.95,7.72 5.37,6.39 10.71,7.87 4.83,1.33 8.28,4.42 10.71,7.97 6.36,9.28 2.99,20.61 -4.24,26.32 -8.07,6.37 -20.72,4.74 -26.62,-1.93 -3.31,-3.74 -4.11,-7.3 -5.21,-13.62 -1.04,-5.96 -7.55,-7.11 -9.99,-2.52 -3.65,6.86 3.21,19.57 10.36,26.01 6.23,5.61 17.52,8.8 27.93,5.79 17.74,-5.13 30.05,-28.88 16.12,-46.96 -3.09,-4 -6.6,-6.29 -2.32,-11.83 18.38,-23.77 -0.55,-32.37 6.04,-41.82z"/>
   <path class="fil5" d="M213.27 351c2.11,-1.38 0.99,0.47 1.96,-3.31 2.07,-8.09 4.05,-26.12 8.75,-30.81 6.85,-6.84 25.56,-5.9 34.65,-10.37 -0.08,-4.76 -1.96,-4.01 -6.85,-5.05 -7.47,-1.59 -24.11,-4.27 -27.83,-8.07 -3.48,-3.56 -4.5,-11.6 -5.86,-17.84 -2.51,-11.58 -1.89,-16.76 -7.11,-16.75 -4.44,8.53 -3.84,29.16 -10.8,35.02 -4.02,3.38 -11.36,4.26 -17.41,5.57 -6.78,1.47 -18.07,2.41 -16.4,6.33 1.08,2.55 14.34,4.3 17.85,5.08 19.72,4.42 18.34,4.48 22.7,24.05 1.76,7.89 2.12,16.94 6.34,16.14z"/>
   <polygon class="fil6" points="163.44,100.6 164.78,98.32 161.87,98.56 "/>
  </g>
 </g>
</svg>
