<?xml version="1.0" encoding="UTF-8"?>
<!DOCTYPE svg PUBLIC "-//W3C//DTD SVG 1.1//EN" "http://www.w3.org/Graphics/SVG/1.1/DTD/svg11.dtd">
<!-- Creator: CorelDRAW 2020 (64-Bit) -->
<svg xmlns="http://www.w3.org/2000/svg" xml:space="preserve" width="43.8543mm" height="43.8543mm" version="1.1" style="shape-rendering:geometricPrecision; text-rendering:geometricPrecision; image-rendering:optimizeQuality; fill-rule:evenodd; clip-rule:evenodd"
viewBox="0 0 972.17 972.17"
 xmlns:xlink="http://www.w3.org/1999/xlink"
 xmlns:xodm="http://www.corel.com/coreldraw/odm/2003">
 <defs>
  <style type="text/css">
   <![CDATA[
    .fil2 {fill:black}
    .fil8 {fill:#63A579}
    .fil6 {fill:#69AE80}
    .fil5 {fill:#92D1A1}
    .fil0 {fill:#DC3545}
    .fil3 {fill:#DD8521}
    .fil4 {fill:#E6A42E}
    .fil7 {fill:#F2DA44}
    .fil1 {fill:white}
   ]]>
  </style>
 </defs>
 <g id="Capa_x0020_1">
  <metadata id="CorelCorpID_0Corel-Layer"/>
  <path class="fil0" d="M486.09 0c268.46,0 486.09,217.63 486.09,486.09 0,268.46 -217.63,486.09 -486.09,486.09 -268.46,0 -486.09,-217.63 -486.09,-486.09 0,-268.46 217.63,-486.09 486.09,-486.09zm0 38.08c247.43,0 448.01,200.58 448.01,448.01 0,247.43 -200.58,448.01 -448.01,448.01 -247.43,0 -448.01,-200.58 -448.01,-448.01 0,-247.43 200.58,-448.01 448.01,-448.01z"/>
  <circle class="fil1" cx="486.09" cy="486.09" r="448.01"/>
  <g id="_2033048640000">
   <path class="fil2" d="M652.02 831.19c-8.27,1.56 -8.96,-16.16 -12.41,-31.62 -8.55,-38.33 -5.83,-38.45 -44.47,-47.1 -6.87,-1.54 -32.84,-4.97 -34.96,-9.95 -3.26,-7.68 18.84,-9.51 32.13,-12.39 11.83,-2.57 26.22,-4.27 34.09,-10.9 13.63,-11.48 12.46,-51.89 21.16,-68.6 10.23,-0.03 8.99,10.11 13.92,32.8 2.65,12.21 4.67,27.97 11.47,34.94 7.29,7.46 39.89,12.7 54.51,15.81 9.57,2.04 13.25,0.56 13.41,9.89 -17.82,8.74 -54.46,6.9 -67.88,20.3 -9.2,9.18 -13.07,44.49 -17.14,60.34 -1.89,7.39 0.3,3.78 -3.84,6.48zm-398.41 -687.53l121.09 0 30.55 0c2.67,0.51 4.86,1.34 6.26,2.62l16.7 22.73c5.67,7.54 10.89,15.01 16.69,22.73l25.16 33.98c3.09,4.16 4.77,8.16 8.83,10.88 4.87,-3.26 44.03,-58.73 51.29,-68.39 16.01,-21.31 15.29,-24.22 26.28,-24.54l9.42 0c4.25,0.02 8.67,0.02 13.22,0l125.02 0c13.46,1.11 13.54,10.43 5.98,21.42l-115.22 156.52c-1.34,1.62 -1.13,1.33 -1.95,2.27 4.11,6.14 7.83,7.67 12.23,15.93 3.25,6.09 5.92,13.37 6.13,22.04 0.43,18.05 -0.06,36.83 -0.06,54.97 5.63,1.5 26.83,19.02 30.64,22.87 41.45,41.92 62.63,71.61 76.67,133.12 4.78,20.95 2.7,21.95 4.14,35.29 2.81,26.05 -0.81,55.89 -8.47,80.65 -1.83,5.9 -5.3,13.35 -5.82,19.53 5.87,0.49 35.2,7.03 40.81,9.88 10.16,5.17 16.8,18.9 11.75,32.8 -4.88,13.43 -17.02,15.37 -32.03,18.67l-40.23 9.05c-5.5,5.5 -7.81,55.95 -19.98,67.31 -17.07,15.92 -45.46,6.32 -46.19,-26.48 -33.39,22.36 -57.1,34.09 -97.26,42.13 -4.35,0.87 -10.46,2.38 -16.26,2.92l-7.57 0c-5.46,-0.7 -9.52,-3.34 -9.64,-9.86 1.67,-14.62 16.92,-11.61 31.67,-14.65 59.16,-12.16 79.19,-36.14 93.99,-42.86l-4.36 -18.92c-35.08,-8.6 -24.46,-9.8 -45.26,2.07 -4.8,2.74 -8.19,4.58 -13,6.71 -19.64,8.69 -39.48,14.57 -63.75,16.19 -135.65,9.03 -238.1,-130.71 -174.87,-263.31 52.76,-110.64 217.61,-141.93 306.19,-30.07 24.73,31.23 39.35,69.27 38.36,121.27 13.42,8.55 13.2,10.39 17.44,29.94 2.55,11.78 3.91,27.96 9.07,37.81 9.91,-14.48 14.36,-54.09 14.55,-75.08 0.24,-26.48 -4.29,-52.28 -12.4,-75.36 -66.87,-190.28 -334.72,-202.81 -415.98,-13.21 -18.94,44.19 -23.04,100.04 -8.53,149 23.84,80.4 95.1,150.12 191.64,159.12l-0.72 11.36c-0.2,3.75 -0.88,4.48 -0.88,9.86 -33.84,0 -82.49,-20.15 -109.54,-38.29 -5.15,-3.46 -9.33,-6.12 -14.17,-9.77 -4.24,-3.19 -9.41,-7.01 -13.24,-10.69 -16.79,-16.18 -32.95,-32.58 -45.49,-53.07 -46,-75.17 -49.33,-151.15 -16.28,-231.93 2.91,-7.11 5.18,-10.88 8.58,-16.77 3.04,-5.28 5.44,-9.91 8.79,-15.15 3.4,-5.31 6.21,-8.9 9.98,-13.95 3.43,-4.6 6.81,-9.21 10.52,-13.41 12.63,-14.3 35.49,-35.75 52.44,-44.71 0,-18.14 -0.49,-36.91 -0.06,-54.97 0.29,-12.43 4.84,-20.99 11.25,-29.59 2.66,-3.57 2.41,-4.3 7.11,-5.56 -1.75,-7.52 -91.92,-127.74 -100.37,-138.99 -8.66,-11.53 -37.55,-41.94 -10.87,-44.05zm298.7 621.4c-98.5,45.27 -185.5,-4.81 -218.76,-74.84 -25.74,-54.2 -18.87,-112.21 13.89,-161.29 14.58,-21.84 40.78,-43.53 67.51,-54.96 83.13,-35.54 177.85,2.3 213.68,88.79 4.68,11.3 18.37,59.97 8.47,70.03 -3.08,3.13 -6.95,3.98 -10.02,11.04l-11.45 49.25c-1.73,8.24 -0.7,10.31 -8.66,12.29 -14.62,3.65 -35.92,6.81 -49.63,10.96 -10.11,3.06 -17.52,10.46 -18.59,22.01 -1.59,17.17 9.46,21.22 13.56,26.74zm-183.24 -362.33c0,-11.73 0.08,-23.49 -0.02,-35.22 -0.11,-13.29 1.94,-20.01 9.88,-25.32 1.3,4.86 8.32,12.33 11.48,16.68 5.04,6.96 6.06,11.48 18.09,11.48l140.8 0c13.96,0 15.24,-7.87 23.53,-18.71 2.51,-3.29 4.98,-5.49 6.04,-9.45 14.03,9.39 9.86,35.87 9.86,60.54 -5.75,-1.34 -15.24,-6.67 -21.7,-9.28 -7.1,-2.86 -16.18,-5.76 -23.34,-7.64 -56.68,-14.83 -109.26,-10.62 -162.75,11.86 -4.85,2.04 -6.91,3.89 -11.85,5.05zm182.27 -66.02l5.7 -0.47 -2.62 4.47 -3.07 -4zm-58.73 -80.41c6.31,-11.6 62.76,-83.65 66.35,-91.48l124.1 0.08 -96.9 132.51c-16.64,23.13 -7.37,18.07 -51.04,17.75 -8.99,-13.05 -37.38,-48.96 -42.52,-58.86zm-81.3 91.9c-5.58,-2.05 -4.64,-3.79 -10.33,-11.19l-25.09 -34.03c-11.66,-16.2 -22.5,-30.32 -34.01,-46.24 -11.5,-15.91 -22.5,-30.28 -34,-46.26l-33.02 -45.7 124.08 0.01c3.37,6.79 11.98,16.66 16.93,23.56l116.54 159.76 -121.11 0.1z"/>
   <path class="fil3" d="M516.33 513.65c7.1,2.87 15.79,9.62 18.26,17.19 12.01,-2.74 14.95,0.73 19.16,11.04 3.34,8.18 5.7,18.17 5.97,28.38 0.6,22.05 -6.79,36.78 -15.98,50.7 2.42,7.05 8.39,14.04 11.97,24.55 10.33,30.33 0.14,62.97 -20.2,82.76 -46.54,45.27 -121.56,20 -135.17,-38.63 -5.48,-23.61 0.79,-43.64 20.43,-49.28 23.97,-6.89 38.15,10.49 40.75,29.98 3.83,28.78 39.49,19.19 34.19,-4.05 -4.49,-19.65 -31.33,-6.15 -44.28,-29.16 -11.3,-20.07 2.17,-42.35 19.84,-46.26 10.82,-2.39 20.47,-0.6 24.08,-12.69 3.55,-11.86 -3.56,-21.01 -12.89,-22.67 -25.22,-4.5 -14.48,24.05 -37.58,35.69 -31.76,16.01 -70.31,-23.95 -24.76,-74.06 19.01,-20.91 50.41,-30.77 80.88,-22.47 11.87,3.23 19.2,5.64 15.34,18.98zm35.98 251.41c-4.1,-5.52 -15.15,-9.56 -13.56,-26.74 1.07,-11.55 8.48,-18.95 18.59,-22.01 13.72,-4.15 35.01,-7.3 49.63,-10.96 7.96,-1.99 6.93,-4.06 8.66,-12.29l11.45 -49.25c3.08,-7.06 6.95,-7.91 10.02,-11.04 9.89,-10.06 -3.79,-58.73 -8.47,-70.03 -35.83,-86.49 -130.55,-124.33 -213.68,-88.79 -26.73,11.43 -52.94,33.11 -67.51,54.96 -32.75,49.08 -39.62,107.09 -13.89,161.29 33.25,70.04 120.26,120.11 218.76,74.84z"/>
   <path class="fil4" d="M455.83 854.69c7.69,0 12.16,0.23 17.83,1.04 9.06,1.29 10.9,-0.89 18.11,-1.04 1.67,-14.62 16.92,-11.61 31.67,-14.65 59.16,-12.16 79.19,-36.14 93.99,-42.86l-4.36 -18.92c-35.08,-8.6 -24.46,-9.8 -45.26,2.07 -4.8,2.74 -8.19,4.58 -13,6.71 -19.64,8.69 -39.48,14.57 -63.75,16.19 -135.65,9.03 -238.1,-130.71 -174.87,-263.31 52.76,-110.64 217.61,-141.93 306.19,-30.07 24.73,31.23 39.35,69.27 38.36,121.27 13.42,8.55 13.2,10.39 17.44,29.94 2.55,11.78 3.91,27.96 9.07,37.81 9.91,-14.48 14.36,-54.09 14.55,-75.08 0.24,-26.48 -4.29,-52.28 -12.4,-75.36 -66.87,-190.28 -334.72,-202.81 -415.98,-13.21 -18.94,44.19 -23.04,100.04 -8.53,149 23.84,80.4 95.1,150.12 191.64,159.12l-0.72 11.36z"/>
   <path class="fil5" d="M411.31 348.2l121.11 -0.1 -116.54 -159.76c-4.95,-6.9 -13.57,-16.77 -16.93,-23.56l-124.08 -0.01 33.02 45.7c11.5,15.99 22.5,30.35 34,46.26 11.51,15.92 22.35,30.04 34.01,46.24l25.09 34.03c5.69,7.4 4.75,9.14 10.33,11.19z"/>
   <path class="fil2" d="M534.59 530.84c-12.91,18.5 24.16,35.34 -11.83,81.91 -8.39,10.85 -1.5,15.33 4.55,23.17 27.29,35.42 3.18,81.93 -31.57,91.98 -20.38,5.89 -42.5,-0.35 -54.7,-11.34 -14.01,-12.62 -27.45,-37.51 -20.3,-50.95 4.78,-8.98 17.54,-6.73 19.57,4.94 2.15,12.39 3.73,19.36 10.21,26.68 11.55,13.07 36.32,16.27 52.14,3.79 14.17,-11.19 20.77,-33.38 8.31,-51.56 -4.77,-6.95 -11.52,-13 -20.98,-15.62 -10.47,-2.89 -24.8,-0.29 -20.98,-15.41 3.54,-14 29.65,-0.01 43.98,-28.2 10.84,-21.33 0,-42.58 -14.41,-50.9 -19.55,-11.29 -39.14,-3.8 -50.45,10.01 -5.72,6.99 -6.16,20.65 -13.53,23.31 -24.04,8.64 -16.88,-40.7 23.09,-55.95 35.08,-13.38 44.89,11.08 58.64,-3.05 3.87,-13.34 -3.47,-15.75 -15.34,-18.98 -30.47,-8.3 -61.87,1.56 -80.88,22.47 -45.55,50.11 -7,90.08 24.76,74.06 23.1,-11.65 12.36,-40.19 37.58,-35.69 9.33,1.66 16.44,10.81 12.89,22.67 -3.62,12.09 -13.27,10.29 -24.08,12.69 -17.67,3.91 -31.14,26.19 -19.84,46.26 12.95,23.01 39.79,9.52 44.28,29.16 5.31,23.25 -30.36,32.83 -34.19,4.05 -2.59,-19.5 -16.77,-36.88 -40.75,-29.98 -19.64,5.64 -25.91,25.67 -20.43,49.28 13.6,58.64 88.62,83.91 135.17,38.63 20.34,-19.79 30.53,-52.43 20.2,-82.76 -3.58,-10.51 -9.55,-17.5 -11.97,-24.55 9.2,-13.92 16.58,-28.65 15.98,-50.7 -0.27,-10.21 -2.64,-20.21 -5.97,-28.38 -4.21,-10.31 -7.16,-13.78 -19.16,-11.04z"/>
   <path class="fil6" d="M492.61 256.3c5.14,9.9 33.53,45.81 42.52,58.86 43.67,0.32 34.4,5.38 51.04,-17.75l96.9 -132.51 -124.1 -0.08c-3.6,7.83 -60.05,79.89 -66.35,91.48z"/>
   <path class="fil4" d="M534.59 530.84c-2.47,-7.57 -11.16,-14.32 -18.26,-17.19 -13.75,14.12 -23.56,-10.33 -58.64,3.05 -39.97,15.25 -47.13,64.59 -23.09,55.95 7.37,-2.65 7.81,-16.32 13.53,-23.31 11.31,-13.8 30.9,-21.29 50.45,-10.01 14.41,8.32 25.25,29.57 14.41,50.9 -14.33,28.19 -40.45,14.2 -43.98,28.2 -3.82,15.12 10.51,12.52 20.98,15.41 9.46,2.61 16.21,8.66 20.98,15.62 12.46,18.18 5.86,40.38 -8.31,51.56 -15.81,12.48 -40.59,9.28 -52.14,-3.79 -6.48,-7.33 -8.05,-14.3 -10.21,-26.68 -2.03,-11.68 -14.8,-13.92 -19.57,-4.94 -7.16,13.44 6.28,38.33 20.3,50.95 12.21,11 34.32,17.24 54.7,11.34 34.75,-10.05 58.86,-56.56 31.57,-91.98 -6.05,-7.85 -12.94,-12.32 -4.55,-23.17 36,-46.57 -1.08,-63.4 11.83,-81.91z"/>
   <path class="fil7" d="M652.02 831.19c4.13,-2.7 1.94,0.91 3.84,-6.48 4.06,-15.85 7.94,-51.16 17.14,-60.34 13.42,-13.41 50.06,-11.57 67.88,-20.3 -0.16,-9.33 -3.84,-7.86 -13.41,-9.89 -14.62,-3.11 -47.22,-8.36 -54.51,-15.81 -6.81,-6.97 -8.82,-22.73 -11.47,-34.94 -4.93,-22.69 -3.69,-32.83 -13.92,-32.8 -8.69,16.71 -7.52,57.12 -21.16,68.6 -7.87,6.63 -22.26,8.34 -34.09,10.9 -13.29,2.88 -35.4,4.72 -32.13,12.39 2.12,4.99 28.09,8.42 34.96,9.95 38.63,8.65 35.92,8.77 44.47,47.1 3.45,15.46 4.15,33.18 12.41,31.62z"/>
   <polygon class="fil8" points="554.42,340.71 557.04,336.23 551.34,336.71 "/>
  </g>
 </g>
</svg>
