<?xml version="1.0" encoding="UTF-8"?>
<!DOCTYPE svg PUBLIC "-//W3C//DTD SVG 1.1//EN" "http://www.w3.org/Graphics/SVG/1.1/DTD/svg11.dtd">
<!-- Creator: CorelDRAW 2020 (64-Bit) -->
<svg xmlns="http://www.w3.org/2000/svg" xml:space="preserve" width="251.692mm" height="251.692mm" version="1.1" style="shape-rendering:geometricPrecision; text-rendering:geometricPrecision; image-rendering:optimizeQuality; fill-rule:evenodd; clip-rule:evenodd"
viewBox="0 0 339.19 339.19"
 xmlns:xlink="http://www.w3.org/1999/xlink"
 xmlns:xodm="http://www.corel.com/coreldraw/odm/2003">
 <defs>
  <style type="text/css">
   <![CDATA[
    .fil2 {fill:black}
    .fil3 {fill:#4DBAEA}
    .fil1 {fill:#BDE5F2}
    .fil4 {fill:#FFF5CD}
    .fil0 {fill:white}
   ]]>
  </style>
 </defs>
 <g id="Capa_x0020_1">
  <metadata id="CorelCorpID_0Corel-Layer"/>
  <circle class="fil0" cx="169.6" cy="169.6" r="169.6"/>
  <g id="_2069625783888">
   <path class="fil1" d="M192.89 140.15c5.89,-1.41 7.52,7.33 2.11,8.54 -6.02,1.34 -7.79,-7.17 -2.11,-8.54zm-29.48 -46.19c5.76,2.1 11.29,5.51 15.16,8.67 3.67,3 8.44,8.01 11.22,12.58 1.5,2.46 2.89,5.05 4.18,7.97 1.48,3.36 1.25,7.13 -2.39,7.85 -5.75,1.14 -4.53,-4.39 -10.85,-13.04 -15.65,-21.44 -36.9,-16.66 -39.73,-20.07 -2.23,-2.69 -0.8,-6.4 2.43,-7.23 4.67,-1.18 15.7,1.7 19.97,3.27zm-25.44 -12.08c-15.92,2 -26.61,7.51 -37.63,17.57 -1.53,1.4 -2.4,2.81 -3.79,4.31 -9.32,10.07 -16.9,28.64 -14.67,47.52 1.82,15.39 7.84,26.57 17.56,37.22 1.4,1.53 2.81,2.4 4.31,3.79 21.01,19.44 59.05,20.04 80.64,0.65l7.89 -7.85c19.45,-21.02 20.03,-59.05 0.65,-80.64 -1.34,-1.49 -2.25,-2.68 -3.55,-4.1 -1.4,-1.53 -2.81,-2.4 -4.31,-3.79 -9.83,-9.09 -28.66,-16.99 -47.11,-14.68z"/>
   <path class="fil2" d="M220.55 233.08l12.52 -12.52c4.55,3.88 30.12,30.03 36.57,36.48 1.96,1.95 4.32,3.48 5.49,6.66 2.56,6.94 -4.16,13.83 -11.12,11.57 -3.87,-1.26 -15.89,-14.54 -19.11,-17.76 -5.07,-5.07 -20.89,-20.37 -24.35,-24.42zm-78.24 -178.57l4.79 0c12.43,0.32 24.74,3.12 35.54,8.54 10.18,5.11 10.89,5.72 19.79,12.58 7.4,5.72 14.98,15.65 19.87,23.74 12.87,21.33 15.71,50.39 7.28,74.45 -3.63,10.36 -5.24,11.38 -10.07,20.51 2.05,1.37 31.44,31.21 34.06,33.83 3.97,3.97 27.09,26.01 29.36,30.44 1.67,3.28 1.77,5.58 1.78,8.86l0 0.87 0 0.18c0,7.29 -7.21,15.05 -15.93,16.19l-4.3 0c-3.67,-0.48 -7.43,-2.23 -10.91,-5.73 -6.23,-6.27 -57.72,-57.2 -59.23,-59.46 -3.43,1.82 -6.51,3.8 -10.03,5.7 -1.58,0.85 -3.79,1.71 -5.31,2.33 -13.6,5.57 -22.29,6.8 -37.71,6.8 -15.72,0 -36.67,-7.29 -48.75,-16.44 -5.63,-4.26 -6.64,-4.87 -11.68,-9.9 -2.01,-2.01 -3.66,-3.58 -5.41,-5.83 -7,-9.01 -7.39,-9.58 -12.54,-19.83 -6.44,-12.81 -8.39,-25.22 -8.39,-41.06 0,-15.72 7.29,-36.67 16.44,-48.75 1.67,-2.21 3.1,-4.05 4.69,-6.1 1.56,-2.02 3.31,-3.67 5.22,-5.57 6.14,-6.14 11.12,-9.82 18.53,-14.29 12.55,-7.57 27.71,-11.66 42.94,-12.05zm59.16 159.11c2.38,-1.34 10.8,-9.76 12.14,-12.14 1.67,0.75 11.8,11.02 12.93,12.64 -1.02,1.14 -1.8,2.09 -2.83,3.32l-6.29 6.29c-1.23,1.03 -2.18,1.82 -3.32,2.83 -1.62,-1.14 -11.89,-11.27 -12.64,-12.93zm-59.93 -149.98c29.12,-1.56 53.84,13.99 67.9,32.85 24.59,32.99 19.79,79.31 -9.05,106.16 -14.74,13.72 -31.15,21.72 -52.81,22.58 -25.27,1.01 -46.16,-9.93 -58.65,-22.17 -44.22,-43.36 -26.29,-109.48 20.12,-131.33 10.46,-4.92 19.34,-7.4 32.49,-8.1z"/>
   <path class="fil3" d="M141.54 72.63c19.14,-0.99 39.47,6.95 52.13,19.4 11.18,10.99 21.38,26.84 22.54,49.45 1.97,38.45 -28.08,72.64 -68.85,74.74 -19.19,0.98 -39.51,-6.93 -52.2,-19.4 -11.18,-10.99 -21.38,-26.84 -22.54,-49.45 -0.98,-19.19 6.93,-39.51 19.4,-52.2 11.04,-11.23 26.84,-21.36 49.51,-22.53zm0 -8.99c-13.15,0.7 -22.03,3.17 -32.49,8.1 -46.41,21.85 -64.34,87.96 -20.12,131.33 12.48,12.24 33.37,23.17 58.65,22.17 21.66,-0.86 38.07,-8.87 52.81,-22.58 28.84,-26.85 33.64,-73.17 9.05,-106.16 -14.05,-18.86 -38.77,-34.41 -67.9,-32.85z"/>
   <path class="fil2" d="M137.97 81.88c18.45,-2.32 37.28,5.59 47.11,14.68 1.5,1.39 2.91,2.26 4.31,3.79 1.3,1.42 2.21,2.61 3.55,4.1 19.38,21.59 18.79,59.62 -0.65,80.64l-7.89 7.85c-21.59,19.38 -59.63,18.79 -80.64,-0.65 -1.5,-1.39 -2.91,-2.26 -4.31,-3.79 -9.73,-10.65 -15.75,-21.83 -17.56,-37.22 -2.23,-18.88 5.35,-37.45 14.67,-47.52 1.39,-1.5 2.26,-2.91 3.79,-4.31 11.02,-10.06 21.7,-15.57 37.63,-17.57zm3.57 -9.25c-22.68,1.18 -38.48,11.3 -49.51,22.53 -12.47,12.69 -20.39,33 -19.4,52.2 1.16,22.61 11.35,38.46 22.54,49.45 12.69,12.47 33,20.39 52.2,19.4 40.77,-2.09 70.82,-36.29 68.85,-74.74 -1.16,-22.61 -11.35,-38.46 -22.54,-49.45 -12.66,-12.44 -32.99,-20.39 -52.13,-19.4z"/>
   <path class="fil3" d="M220.55 233.08c3.46,4.05 19.27,19.35 24.35,24.42 3.22,3.22 15.25,16.5 19.11,17.76 6.96,2.26 13.68,-4.63 11.12,-11.57 -1.17,-3.18 -3.53,-4.7 -5.49,-6.66 -6.45,-6.45 -32.02,-32.59 -36.57,-36.48l-12.52 12.52z"/>
   <path class="fil2" d="M143.43 90.7c-3.23,0.82 -4.66,4.54 -2.43,7.23 2.83,3.41 24.08,-1.38 39.73,20.07 6.32,8.66 5.1,14.18 10.85,13.04 3.64,-0.72 3.87,-4.49 2.39,-7.85 -1.29,-2.92 -2.68,-5.5 -4.18,-7.97 -2.78,-4.58 -7.56,-9.58 -11.22,-12.58 -3.87,-3.17 -9.4,-6.57 -15.16,-8.67 -4.27,-1.56 -15.31,-4.45 -19.97,-3.27z"/>
   <path class="fil4" d="M201.47 213.61c0.75,1.67 11.02,11.8 12.64,12.93 1.14,-1.02 2.09,-1.8 3.32,-2.83l6.29 -6.29c1.03,-1.23 1.82,-2.18 2.83,-3.32 -1.14,-1.62 -11.27,-11.89 -12.93,-12.64 -1.34,2.38 -9.76,10.8 -12.14,12.14z"/>
   <path class="fil2" d="M192.89 140.15c-5.68,1.37 -3.92,9.88 2.11,8.54 5.42,-1.21 3.78,-9.95 -2.11,-8.54z"/>
  </g>
 </g>
</svg>
