<?xml version="1.0" encoding="UTF-8"?>
<!DOCTYPE svg PUBLIC "-//W3C//DTD SVG 1.1//EN" "http://www.w3.org/Graphics/SVG/1.1/DTD/svg11.dtd">
<!-- Creator: CorelDRAW 2020 (64-Bit) -->
<svg xmlns="http://www.w3.org/2000/svg" xml:space="preserve" width="231.683mm" height="173.847mm" version="1.1" style="shape-rendering:geometricPrecision; text-rendering:geometricPrecision; image-rendering:optimizeQuality; fill-rule:evenodd; clip-rule:evenodd"
viewBox="0 0 443.86 333.06"
 xmlns:xlink="http://www.w3.org/1999/xlink"
 xmlns:xodm="http://www.corel.com/coreldraw/odm/2003">
 <defs>
  <style type="text/css">
   <![CDATA[
    .fil0 {fill:black}
    .fil4 {fill:#DF4B4B}
    .fil3 {fill:#E5E5E5}
    .fil2 {fill:#E95A59}
    .fil5 {fill:#E95E5D}
    .fil1 {fill:white}
   ]]>
  </style>
 </defs>
 <g id="Capa_x0020_1">
  <metadata id="CorelCorpID_0Corel-Layer"/>
  <g id="_2070757758640">
   <path class="fil0" d="M153.92 242.79c1.38,10.58 2.22,21.87 3.3,32.73 0.54,5.38 0.87,11.27 1.69,16.53 1.05,6.73 3.13,8.34 5.97,12.26 2.94,1.85 4.4,3.44 8.5,5.07 -0.19,13.77 -13.33,9.79 -26.01,9.81 -17.4,0.02 -16.18,-0.65 -17.34,-17.37 -1.52,-21.92 -3.4,-43.91 -4.66,-65.87l27.93 0.14 0.62 6.7zm12.51 -27.27c-1.38,6.16 -5.38,6.64 -12.1,6.6 -6.07,-0.04 -12.15,-0.02 -18.22,-0.02 -8.81,0 -29.06,3.36 -30.11,-5.87 -1.99,-1.97 -3.51,-5.45 -4.4,-8l64.86 -0.01 -0.03 7.3zm27.69 -132.21c24.6,-0.98 48.46,-6.37 68.13,-15.95 9.49,-4.62 18.43,-9.07 27.83,-13.78 8.21,-4.11 19.95,-10.9 28.04,-13.76l6.04 -3.07c11.41,54.35 11.41,149.88 0,204.25 -9.58,-3.67 -21.97,-10.82 -31.78,-15.67 -41.9,-20.74 -57.74,-30.96 -112.07,-30.96l0 -110.96 13.8 -0.09zm-180.24 67.5c-0.08,-21.5 -4.39,-41.54 13.86,-49.05l-0 57.55 -0.17 16.66c-10.19,-4.24 -13.73,-11.51 -13.69,-25.16zm55.5 28.36l-0.02 15.18c-19.14,0 -27.74,3.12 -27.79,-10.36l0.32 -95.16c1.41,-5.83 7.14,-5.45 13.52,-5.45l13.95 0c0,5.79 -0.06,11.6 -0.03,17.38 0.03,6.32 0.57,9.38 6.98,10.21 6.36,-0.85 6.91,-3.93 6.95,-10.21 0.04,-5.78 -0.03,-11.6 -0.03,-17.39l60.04 0.05 18.61 0.01 4.59 -0.05 -0.06 4.59 0 4.71 0.06 87.88 0.86 13.79 -83.22 0 -0.87 0 -0 -13.79c-0,-10.43 -0,-20.86 -0,-31.29 0,-5.08 0.22,-10.64 0.02,-15.65 -0.22,-5.51 -1.53,-7.72 -6.94,-8.45 -5.44,0.71 -6.75,2.91 -6.97,8.45 -0.18,4.74 0.02,9.99 0.02,14.79 0,10.25 -0.06,20.52 0.02,30.77zm275.6 -164.45c6.23,3.43 6.44,17.32 7.71,25.35 7.92,50.26 9.94,100.09 5.67,150.95 -1.28,15.27 -3.49,42.68 -7.38,56.2 -0.7,5.48 -1.18,13.24 -5.22,15.51 -5.48,3.08 -10.21,-1.11 -9.68,-7.69 0.81,-10.13 3.92,-23.21 5.27,-33.95 7.74,-61.36 7.08,-120.04 -2.35,-181.06 -0.83,-5.37 -2.21,-11.26 -2.82,-16.52 -0.72,-6.19 2.47,-11.32 8.8,-8.8zm-344.98 104.2l0 39.88c0,14.89 9.91,23.76 20.69,29.59 9.83,5.32 6.43,2.64 9.09,8.25 4.62,9.77 12.32,11.63 22.23,11.58 11.27,-0.06 22.55,-0.01 33.82,-0.01 1.69,7.27 11.11,27.43 25.14,27.74l3.34 41.74c1.23,11.27 0.12,33.63 3.84,42.11 3.06,6.97 9.5,13.25 17.96,13.25l32.08 0c9.54,0 19.07,-9.54 19.07,-19.07 0,-19.87 -2.01,-12.18 -11.83,-19.38 -4.12,-3.02 -5.27,-32.17 -6.13,-38.95l-1.98 -21.43c13.25,-3.09 13,-17.41 13,-26.01 33.79,0 55.19,4.73 83.1,18.33l47.52 23.57c1.78,0.89 8.26,3.86 9.16,4.71 3.35,3.15 0.21,3.43 3.8,10.94 7.97,16.68 35.18,17.42 39.73,-7.76 11.82,-65.46 15.1,-137.58 5.43,-203.84 -1.63,-11.18 -3.28,-22.12 -5.3,-33.72 -4.53,-26.06 -31.76,-25.32 -39.85,-8.5 -5.37,11.17 3.61,7.35 -12.96,15.65l-38.22 19c-18.45,8.19 -18.12,10.16 -40.48,16.73 -15.42,4.53 -32.1,6.17 -51.92,6.17 -38.14,0 -76.29,0 -114.43,0 -8.95,0 -20.34,-1.2 -26.61,2 -11.66,5.94 -7.58,11.56 -13.47,15.14l-9.05 4.82c-9,4.98 -16.75,16.07 -16.75,27.46z"/>
   <path class="fil1" d="M194.12 83.31c0,17.94 0,35.88 0,53.83 0,15.32 -4.52,39.74 10.8,43.01 9.95,2.12 21.31,-0.79 47.88,5.92 27.97,7.06 48.86,24.05 59.26,22.35 7.96,-1.3 10.75,-7.07 11.47,-15.78 4.87,-59.1 1.64,-94.21 -5.41,-152.81 -8.09,2.86 -19.83,9.65 -28.04,13.76 -9.4,4.71 -18.35,9.16 -27.83,13.78 -19.67,9.57 -43.53,14.96 -68.13,15.95z"/>
   <path class="fil2" d="M76.3 110.98l0 14.19c5.4,0.73 6.72,2.94 6.94,8.45 0.2,5.02 -0.02,10.58 -0.02,15.65 0,10.43 -0,20.86 0,31.29l83.23 0 -0.06 -87.88c-5,5.35 -10.38,5.68 -20.75,4.52 -4.32,-0.48 -11.69,-5.1 -2.4,-13.78l-60.04 -0.05c0,5.79 0.07,11.61 0.03,17.39 -0.04,6.28 -0.59,9.36 -6.95,10.21z"/>
   <path class="fil3" d="M318.12 39.82c7.04,58.6 10.28,93.71 5.41,152.81 -0.72,8.71 -3.51,14.49 -11.47,15.78 -10.4,1.7 -31.29,-15.29 -59.26,-22.35 -26.57,-6.71 -37.93,-3.79 -47.88,-5.92 -15.32,-3.27 -10.8,-27.69 -10.8,-43.01 0,-17.94 0,-35.88 0,-53.83l-13.8 0.09 0 110.96c54.32,0 70.17,10.23 112.07,30.96 9.82,4.86 22.2,12.01 31.78,15.67 11.41,-54.37 11.41,-149.9 0,-204.25l-6.04 3.07z"/>
   <path class="fil4" d="M350.98 247.24c-3.5,1.72 -6.71,-3.94 -7.64,-7.06 -1.31,-4.44 0.12,-9.25 0.87,-13.69 1.58,-9.32 3.15,-19.06 4.29,-28.62 7.5,-63.14 6.88,-120.15 -3.52,-183.13 -6.33,-2.52 -9.52,2.61 -8.8,8.8 0.61,5.26 1.99,11.15 2.82,16.52 9.43,61.01 10.09,119.7 2.35,181.06 -1.35,10.73 -4.46,23.82 -5.27,33.95 -0.53,6.58 4.21,10.77 9.68,7.69 4.04,-2.27 4.52,-10.03 5.22,-15.51z"/>
   <path class="fil3" d="M69.38 179.18c-16.86,-5.59 -13.97,-21.83 -13.97,-41.18 0,-18.21 0,-36.41 0,-54.62 -6.38,-0 -12.11,-0.38 -13.52,5.45l-0.32 95.16c0.05,13.48 8.64,10.36 27.79,10.36l0.02 -15.18z"/>
   <path class="fil2" d="M350.98 247.24c3.89,-13.52 6.1,-40.94 7.38,-56.2 4.26,-50.86 2.24,-100.7 -5.67,-150.95 -1.27,-8.03 -1.48,-21.92 -7.71,-25.35 10.39,62.99 11.02,120 3.52,183.13 -1.14,9.56 -2.7,19.3 -4.29,28.62 -0.75,4.44 -2.18,9.25 -0.87,13.69 0.92,3.12 4.13,8.78 7.64,7.06z"/>
   <path class="fil4" d="M164.89 304.31c-1.82,1.24 -4.37,1.58 -11.01,-1.1 -9.72,-3.93 -16.13,-12.73 -17.14,-24.58 -1.9,-22.35 -5.94,-35.57 17.18,-35.84l-0.62 -6.7 -27.93 -0.14c1.25,21.96 3.14,43.95 4.66,65.87 1.16,16.72 -0.06,17.4 17.34,17.37 12.68,-0.02 25.82,3.97 26.01,-9.81 -4.1,-1.64 -5.56,-3.23 -8.5,-5.07z"/>
   <path class="fil1" d="M69.38 179.18c-0.08,-10.25 -0.02,-20.52 -0.02,-30.77 0,-4.8 -0.2,-10.04 -0.02,-14.79 0.21,-5.54 1.52,-7.74 6.97,-8.45l0 -14.19c-6.41,-0.84 -6.94,-3.9 -6.98,-10.21 -0.03,-5.78 0.03,-11.6 0.03,-17.38l-13.95 -0c0,18.21 0,36.41 0,54.62 0,19.34 -2.89,35.58 13.97,41.18z"/>
   <polygon class="fil4" points="166.45,180.56 83.22,180.56 83.22,194.36 84.09,194.36 167.32,194.36 "/>
   <path class="fil2" d="M164.89 304.31c-2.85,-3.92 -4.93,-5.52 -5.97,-12.26 -0.82,-5.26 -1.15,-11.15 -1.69,-16.53 -1.09,-10.86 -1.92,-22.15 -3.3,-32.73 -23.13,0.27 -19.08,13.49 -17.18,35.84 1.01,11.85 7.41,20.65 17.14,24.58 6.64,2.69 9.2,2.34 11.01,1.1z"/>
   <path class="fil2" d="M13.87 150.82c2.82,1.64 3.28,3.18 6.47,5.01 1.99,1.14 5.06,2.53 7.39,3.49l0 -57.55c-18.25,7.51 -13.94,27.55 -13.86,49.05z"/>
   <path class="fil0" d="M390.11 93.79c0,15.92 23.37,-1.07 32.6,-6.41 9.16,-5.31 6.87,-14.39 -3.12,-14.39 -1.44,0 -13.83,7.61 -16.2,8.94 -6.57,3.67 -13.27,6.1 -13.27,11.87z"/>
   <path class="fil0" d="M390.11 183.95c0,6.63 12.49,11.15 21.52,16.63 3.52,2.14 5.44,4.18 9.69,4.18 6.23,0 11.62,-8.47 1.39,-14.39 -3.05,-1.76 -5.53,-3.17 -8.33,-4.68 -2.43,-1.31 -24.27,-17.29 -24.27,-1.73z"/>
   <path class="fil0" d="M402.25 138.87c0,4.19 2.74,6.94 6.94,6.94l27.74 0c4.29,0 6.6,-2.95 6.94,-6.13l0 -1.62c-0.33,-3.18 -2.64,-6.13 -6.94,-6.13l-27.74 0c-4.19,0 -6.94,2.74 -6.94,6.94z"/>
   <path class="fil3" d="M105.99 216.23c2.05,-1.86 2.14,-1.22 5.78,-1.21 11.61,0.04 48.79,-0.55 54.66,0.5l0.03 -7.3 -64.86 0.01c0.89,2.54 2.4,6.03 4.4,8z"/>
   <path class="fil1" d="M166.43 215.52c-5.87,-1.05 -43.04,-0.46 -54.66,-0.5 -3.64,-0.01 -3.73,-0.65 -5.78,1.21 1.05,9.23 21.3,5.87 30.11,5.87 6.07,0 12.15,-0.02 18.22,0.02 6.72,0.04 10.72,-0.44 12.1,-6.6z"/>
   <path class="fil1" d="M166.4 92.69l-0 -4.71c-1.61,-1.71 -2.83,-2.93 -4.53,-4.54l-18.61 -0.01c-9.29,8.68 -1.92,13.29 2.4,13.78 10.37,1.16 15.75,0.82 20.75,-4.52z"/>
   <path class="fil4" d="M27.73 159.31c-2.32,-0.96 -5.4,-2.36 -7.39,-3.49 -3.19,-1.83 -3.65,-3.37 -6.47,-5.01 -0.04,13.65 3.5,20.92 13.69,25.16l0.17 -16.66z"/>
   <path class="fil5" d="M166.4 87.98l0.06 -4.59 -4.59 0.05c1.7,1.61 2.92,2.83 4.53,4.54z"/>
  </g>
 </g>
</svg>
