<?xml version="1.0" encoding="UTF-8"?>
<!DOCTYPE svg PUBLIC "-//W3C//DTD SVG 1.1//EN" "http://www.w3.org/Graphics/SVG/1.1/DTD/svg11.dtd">
<!-- Creator: CorelDRAW 2020 (64-Bit) -->
<svg xmlns="http://www.w3.org/2000/svg" xml:space="preserve" width="122.115mm" height="174.452mm" version="1.1" style="shape-rendering:geometricPrecision; text-rendering:geometricPrecision; image-rendering:optimizeQuality; fill-rule:evenodd; clip-rule:evenodd"
viewBox="0 0 88.98 127.11"
 xmlns:xlink="http://www.w3.org/1999/xlink"
 xmlns:xodm="http://www.corel.com/coreldraw/odm/2003">
 <defs>
  <style type="text/css">
   <![CDATA[
    .fil0 {fill:black}
    .fil1 {fill:#2B6FA7}
    .fil4 {fill:#A4D4F4}
    .fil3 {fill:#C1C4C5}
    .fil2 {fill:#F4CAA9}
   ]]>
  </style>
 </defs>
 <g id="Capa_x0020_1">
  <metadata id="CorelCorpID_0Corel-Layer"/>
  <g id="_1752871407184">
   <path class="fil0" d="M4.24 105.93c5.45,0 42.61,-0.36 44.61,0.15 0.69,5.72 2.71,9.82 6.23,13.63l3.4 3.11c-3.73,0.38 -29.38,0.07 -35.44,0.07 -4.54,0 -13.34,0.89 -16.4,-1.35 -3.51,-2.56 -2.4,-10.39 -2.4,-15.61zm67.85 -56.95l11.29 20.98c1.84,3.54 1.37,5.1 1.37,9.5 0,14.48 0,28.95 0,43.43 -7.85,0 -15.63,0.98 -21.95,-2.41 -4.44,-2.38 -9.14,-7.72 -9.73,-14.83 -0.34,-4.04 -0.8,-3.61 -3.98,-8.27l-9.92 -14.72c-2.1,-3.02 -1.27,-7.19 0.98,-8.87 2.89,-2.17 6.38,-1.72 8.62,0.6 1.8,1.88 10.47,14.79 12.96,17.76 1.26,1.5 2.99,1.07 5.28,1.07 6.26,0.01 5.03,-1.09 5.03,-7.15 0,-9.97 -0.5,-29.11 0.05,-37.09zm-67.85 -27.79l63.56 0 -0 67.8 -2.65 0c-1.03,0 -4.95,-6.14 -5.51,-6.94 -1.71,-2.45 -3.52,-4.87 -5.22,-7.22 -1.96,-2.71 -3.02,-4.58 -6.46,-5.98 -5.96,-2.42 -13.72,1.54 -14.34,9.01 -0.35,4.2 1.67,6.69 3.34,9.14l9.86 14.66 -42.58 0.05 0 -80.51zm-0 -4.23c0,-9.05 -0.79,-12.72 9.53,-12.71l44.49 0c10.29,-0 9.54,3.61 9.53,12.71l-63.56 0zm-4.24 -7.15l0 107.52c0,4.89 4.91,9.8 9.8,9.8l77.06 0c1.28,0 2.12,-0.84 2.12,-2.12l0 -51.64c0,-2.98 -2.24,-6.05 -3.62,-8.83l-13.08 -24.53c-0.71,-1.75 -0.25,-20.88 -0.25,-24.64 0,-5.06 0.46,-7.48 -1.74,-10.71 -1.48,-2.17 -4.56,-4.65 -8.06,-4.65l-52.43 0c-4.89,0 -9.8,4.91 -9.8,9.8z"/>
   <path class="fil1" d="M25.5 95.87c-0.64,-2.91 3.57,-3.44 4.07,-0.96 0.57,2.79 -3.56,3.31 -4.07,0.96zm-8.47 0c-0.64,-2.91 3.56,-3.44 4.07,-0.96 0.57,2.79 -3.56,3.31 -4.07,0.96zm-8.47 0c-0.64,-2.91 3.56,-3.44 4.07,-0.96 0.57,2.79 -3.56,3.31 -4.07,0.96zm0 -8.47c-0.79,-3.61 5.51,-2.65 9.98,-2.65 2.12,0 4.24,0 6.36,0 2.03,-0 4.28,-0.28 4.68,1.68 0.47,2.3 -1.71,2.57 -3.62,2.56l-12.72 -0.01c-1.94,0 -4.28,0.27 -4.69,-1.59zm0 -8.47c-0.8,-3.62 5.31,-2.65 7.86,-2.65 2.61,0 8.38,-0.98 8.92,1.68 0.72,3.5 -5.35,2.55 -7.86,2.55 -2.51,0 -8.36,0.95 -8.92,-1.59zm0 -8.47c-0.8,-3.62 5.31,-2.65 7.86,-2.65 2.61,0 8.38,-0.98 8.92,1.68 0.72,3.5 -5.35,2.55 -7.86,2.55 -2.51,0 -8.36,0.95 -8.92,-1.59zm39.44 -19.37c0.75,-0.36 13.37,-0.4 14.28,-0 1.81,0.8 1.27,3.99 1.27,6.14 0,2.15 0.54,5.33 -1.27,6.13 -0.89,0.39 -13.51,0.39 -14.4,0 -1.82,-0.8 -1.27,-3.99 -1.27,-6.13 0,-2.56 -0.63,-5.16 1.39,-6.13zm-10.93 8.26c1.55,-0 3.68,-0.31 4.64,0.65 1.08,1.08 0.56,2.83 -0.62,3.36 -1.02,0.45 -8.67,0.22 -10.38,0.22 -1.55,0 -3.68,0.31 -4.64,-0.66 -1.27,-1.26 -0.57,-2.73 0.74,-3.36 1.06,-0.51 8.45,-0.22 10.26,-0.22zm-27.21 0.22c1.06,-0.51 6.53,-0.24 8.15,-0.23 3.84,0.01 3.86,3.15 1.89,4.02 -0.93,0.41 -6.82,0.24 -8.27,0.23 -3.59,-0.01 -4.13,-2.89 -1.77,-4.03zm0 -8.47c0.96,-0.46 23.95,-0.2 28.27,-0.22 1.59,-0.01 3.1,-0.1 3.83,0.95 0.83,1.21 0.13,2.62 -0.87,3.07 -1.04,0.46 -24.01,0.2 -28.39,0.22 -6.17,0.03 -4.3,-3.32 -2.84,-4.02zm0 -25.42c1.03,-0.5 39.97,-0.22 47.33,-0.22 7.39,0 6.35,-1.41 6.35,12.71 0,2.42 0.81,7.32 -1.27,8.25 -1.13,0.5 -40.03,0.22 -47.45,0.22 -7.39,0 -6.35,1.4 -6.35,-12.71 0,-2.66 -0.82,-7.19 1.39,-8.25zm-5.63 76.05l42.58 -0.05 -9.86 -14.66c-1.67,-2.45 -3.69,-4.94 -3.34,-9.14 0.62,-7.47 8.38,-11.43 14.34,-9.01 3.45,1.4 4.5,3.27 6.46,5.98 1.7,2.36 3.52,4.78 5.22,7.22 0.56,0.8 4.48,6.94 5.51,6.94l2.65 0 0 -67.8 -63.56 0 -0 80.51z"/>
   <path class="fil2" d="M72.08 48.97c-0.56,7.98 -0.05,27.12 -0.05,37.09 0,6.06 1.23,7.16 -5.03,7.15 -2.29,-0 -4.03,0.43 -5.28,-1.07 -2.48,-2.97 -11.15,-15.89 -12.96,-17.76 -2.24,-2.33 -5.72,-2.77 -8.62,-0.6 -2.25,1.68 -3.08,5.85 -0.98,8.87l9.92 14.72c3.18,4.66 3.64,4.23 3.98,8.27 0.59,7.11 5.29,12.45 9.73,14.83 6.32,3.39 14.1,2.41 21.95,2.41 0,-14.48 0,-28.95 0,-43.43 0,-4.4 0.47,-5.95 -1.37,-9.5l-11.29 -20.98z"/>
   <path class="fil3" d="M31.86 11.12c-0.85,-3.85 6.29,-2.65 8.92,-2.65 3.86,0 9.48,-0.78 9.98,1.68 0.76,3.73 -6.33,2.55 -8.92,2.55 -3.59,0 -9.47,0.74 -9.98,-1.59zm-10.59 0c-0.64,-2.91 3.57,-3.44 4.07,-0.96 0.57,2.79 -3.56,3.31 -4.07,0.96zm-17.03 5.83l63.56 0c0,-9.11 0.75,-12.72 -9.53,-12.71l-44.49 0c-10.32,-0 -9.53,3.66 -9.53,12.71z"/>
   <path class="fil3" d="M34.89 108.17c3.8,-0.72 6.79,1.99 7.35,5.01 0.71,3.86 -1.89,6.87 -5.03,7.45 -8.28,1.52 -10.62,-10.88 -2.32,-12.46zm-30.65 -2.25c0,5.22 -1.11,13.05 2.4,15.61 3.07,2.23 11.87,1.35 16.4,1.35 6.06,0 31.71,0.31 35.44,-0.07l-3.4 -3.11c-3.52,-3.81 -5.54,-7.9 -6.23,-13.63 -2,-0.5 -39.16,-0.15 -44.61,-0.15z"/>
   <path class="fil0" d="M12.71 29.66l46.61 0 0 12.71 -46.61 0 0 -12.71zm-2.84 -4.02c-2.21,1.06 -1.39,5.59 -1.39,8.25 0,14.11 -1.03,12.71 6.35,12.71 7.42,0 46.32,0.28 47.45,-0.22 2.09,-0.93 1.27,-5.83 1.27,-8.25 0,-14.12 1.03,-12.71 -6.35,-12.71 -7.37,0 -46.3,-0.28 -47.33,0.22z"/>
   <path class="fil4" d="M18.34 34.12c0.72,-0.34 17.53,-0.44 18.52,-0 1.58,0.7 1.57,3.1 -0,3.8 -0.74,0.33 -17.62,0.45 -18.64,0 -1.7,-0.75 -1.71,-2.92 0.12,-3.8zm-5.63 8.25l46.61 0 0 -12.71 -46.61 0 0 12.71z"/>
   <path class="fil0" d="M50.84 55.08l8.47 0 0 4.24 -8.47 0 0 -4.24zm-2.85 -4.02c-2.02,0.97 -1.39,3.58 -1.39,6.13 0,2.14 -0.55,5.33 1.27,6.13 0.89,0.39 13.51,0.39 14.4,-0 1.82,-0.81 1.27,-3.99 1.27,-6.13 0,-2.15 0.54,-5.34 -1.27,-6.14 -0.91,-0.4 -13.53,-0.36 -14.28,0z"/>
   <path class="fil0" d="M9.87 51.07c-1.45,0.7 -3.33,4.05 2.84,4.02 4.37,-0.02 27.35,0.24 28.39,-0.22 1,-0.44 1.7,-1.86 0.87,-3.07 -0.73,-1.05 -2.24,-0.96 -3.83,-0.95 -4.32,0.02 -27.31,-0.24 -28.27,0.22z"/>
   <path class="fil0" d="M33.97 114.93c-0.64,-2.91 3.58,-3.45 4.08,-0.97 0.57,2.8 -3.57,3.32 -4.08,0.97zm0.92 -6.76c-8.29,1.58 -5.95,13.98 2.32,12.46 3.14,-0.58 5.74,-3.59 5.03,-7.45 -0.56,-3.02 -3.55,-5.73 -7.35,-5.01z"/>
   <path class="fil0" d="M18.34 34.12c-1.83,0.88 -1.81,3.05 -0.12,3.8 1.02,0.45 17.9,0.33 18.64,-0 1.57,-0.7 1.59,-3.1 0,-3.8 -1,-0.44 -17.81,-0.34 -18.52,0z"/>
   <path class="fil0" d="M8.56 87.39c0.41,1.86 2.75,1.59 4.69,1.59l12.72 0.01c1.91,0.01 4.09,-0.26 3.62,-2.56 -0.4,-1.96 -2.66,-1.69 -4.68,-1.68 -2.12,0 -4.24,0 -6.36,0 -4.47,0 -10.77,-0.96 -9.98,2.65z"/>
   <path class="fil0" d="M31.86 11.12c0.51,2.33 6.39,1.59 9.98,1.59 2.59,0 9.69,1.17 8.92,-2.55 -0.5,-2.46 -6.12,-1.68 -9.98,-1.68 -2.64,0 -9.77,-1.2 -8.92,2.65z"/>
   <path class="fil0" d="M8.56 70.44c0.56,2.54 6.41,1.59 8.92,1.59 2.51,0 8.58,0.95 7.86,-2.55 -0.55,-2.66 -6.31,-1.68 -8.92,-1.68 -2.55,0 -8.66,-0.98 -7.86,2.65z"/>
   <path class="fil0" d="M8.56 78.92c0.56,2.54 6.41,1.59 8.92,1.59 2.51,0 8.58,0.95 7.86,-2.55 -0.55,-2.66 -6.31,-1.68 -8.92,-1.68 -2.55,0 -8.66,-0.98 -7.86,2.65z"/>
   <path class="fil0" d="M26.81 59.54c-1.31,0.63 -2,2.1 -0.74,3.36 0.96,0.96 3.09,0.66 4.64,0.66 1.71,-0 9.36,0.23 10.38,-0.22 1.18,-0.53 1.7,-2.27 0.62,-3.36 -0.96,-0.96 -3.1,-0.66 -4.64,-0.65 -1.81,0 -9.2,-0.29 -10.26,0.22z"/>
   <path class="fil0" d="M9.87 59.54c-2.36,1.14 -1.82,4.01 1.77,4.03 1.45,0.01 7.34,0.18 8.27,-0.23 1.97,-0.87 1.95,-4.01 -1.89,-4.02 -1.62,-0 -7.09,-0.28 -8.15,0.23z"/>
   <polygon class="fil4" points="50.84,59.32 59.32,59.32 59.32,55.08 50.84,55.08 "/>
   <path class="fil3" d="M33.97 114.93c0.52,2.35 4.65,1.83 4.08,-0.97 -0.5,-2.49 -4.73,-1.95 -4.08,0.97z"/>
   <path class="fil0" d="M21.27 11.12c0.52,2.35 4.65,1.83 4.07,-0.96 -0.51,-2.48 -4.71,-1.94 -4.07,0.96z"/>
   <path class="fil0" d="M8.56 95.87c0.52,2.35 4.65,1.83 4.07,-0.96 -0.51,-2.48 -4.71,-1.94 -4.07,0.96z"/>
   <path class="fil0" d="M17.03 95.87c0.51,2.35 4.65,1.83 4.07,-0.96 -0.51,-2.48 -4.71,-1.94 -4.07,0.96z"/>
   <path class="fil0" d="M25.5 95.87c0.52,2.35 4.65,1.83 4.07,-0.96 -0.51,-2.48 -4.71,-1.94 -4.07,0.96z"/>
  </g>
 </g>
</svg>
