<?xml version="1.0" encoding="UTF-8"?>
<!DOCTYPE svg PUBLIC "-//W3C//DTD SVG 1.1//EN" "http://www.w3.org/Graphics/SVG/1.1/DTD/svg11.dtd">
<!-- Creator: CorelDRAW 2020 (64-Bit) -->
<svg xmlns="http://www.w3.org/2000/svg" xml:space="preserve" width="174.103mm" height="156.199mm" version="1.1" style="shape-rendering:geometricPrecision; text-rendering:geometricPrecision; image-rendering:optimizeQuality; fill-rule:evenodd; clip-rule:evenodd"
viewBox="0 0 143.59 128.82"
 xmlns:xlink="http://www.w3.org/1999/xlink"
 xmlns:xodm="http://www.corel.com/coreldraw/odm/2003">
 <defs>
  <style type="text/css">
   <![CDATA[
    .fil0 {fill:black}
    .fil4 {fill:#FE9E00}
    .fil2 {fill:#FEE370}
    .fil3 {fill:#FF8597}
    .fil1 {fill:white}
   ]]>
  </style>
 </defs>
 <g id="Capa_x0020_1">
  <metadata id="CorelCorpID_0Corel-Layer"/>
  <g id="_1751816495680">
   <path class="fil0" d="M80.3 93.76c6.46,2.13 10.18,2.13 16.73,0l-0.1 25.33c-1.03,-1.25 -2.57,-2.63 -3.8,-3.86 -0.94,-0.94 -2.6,-3.19 -4.51,-3.19 -1.95,0 -7.06,5.52 -8.41,7.05l0.09 -25.33zm6.54 -37.57c9.76,-1.12 17.54,6.36 18.49,14.84 1.1,9.84 -6.23,17.65 -14.84,18.6 -9.88,1.08 -17.61,-6.28 -18.57,-14.83 -1.12,-9.89 6.25,-17.61 14.92,-18.6zm-70.01 -31.35c4.01,-1.07 6.94,-4.01 7.85,-8.02l94.06 0c1.07,4.01 4.01,6.94 8.02,8.02l0 62.49c-4.01,1.07 -6.94,4.01 -7.99,8.02l-16.13 0 0.03 -5.06c2.69,-1.63 5.95,-6.38 7.26,-10.38 1.54,-4.71 1.41,-10.47 -0.37,-15.02 -7.49,-19.15 -34.37,-19.15 -41.86,0 -1.78,4.56 -1.91,10.31 -0.37,15.02 1.31,4 4.57,8.75 7.26,10.38l0.02 5.06 -49.76 0c-1.07,-4.01 -4.01,-6.94 -8.02,-8.02l0 -62.49zm-11.22 -19.23l132.37 0 -0 100.96 -35.34 0 0.14 -5.61 17.53 0c5.28,0 2.38,-3.84 5.3,-6.76 2.94,-2.94 6.76,-0.02 6.76,-5.3l0 -65.62c0,-5.28 -3.82,-2.36 -6.76,-5.3 -2.92,-2.92 -0.02,-6.76 -5.3,-6.76 -32.62,0 -65.25,0 -97.87,0l0.84 0c-5.28,0 -2.38,3.84 -5.3,6.76 -2.92,2.92 -6.76,0.02 -6.76,5.3l0 65.62c0,5.28 3.84,2.38 6.76,5.3 2.94,2.94 0.01,6.76 5.3,6.76l51.32 0 -0 5.61 -68.99 0 0 -100.96zm-5.61 -3.36l0 107.69c0,0.82 1.42,2.24 2.24,2.24l72.35 0 0 14.02c0,1.96 1.99,3 3.59,2.5 2.01,-0.63 7.56,-7.87 10.43,-9.79 2.87,1.92 8.42,9.16 10.43,9.79 1.6,0.5 3.59,-0.53 3.59,-2.5l0 -14.02 38.7 0c0.82,0 2.24,-1.42 2.24,-2.24l0 -107.69c0,-0.82 -1.42,-2.24 -2.24,-2.24l-139.1 0c-0.82,0 -2.24,1.42 -2.24,2.24z"/>
   <path class="fil1" d="M28.1 76c-0.24,-3.24 2.72,-3.09 5.55,-3.08l17.67 0c2.9,-0 6.16,-0.45 6.39,2.57 0.24,3.19 -2.74,3.04 -5.55,3.04l-17.67 -0c-2.85,0 -6.17,0.46 -6.39,-2.52zm0 -16.83c-0.24,-3.24 2.72,-3.09 5.55,-3.08l17.67 0c2.9,-0 6.16,-0.45 6.39,2.57 0.24,3.19 -2.74,3.04 -5.55,3.04l-17.67 -0c-2.85,0 -6.17,0.46 -6.39,-2.52zm87.27 -16.27c-1.13,3.38 -6.35,2.01 -5.24,-1.76 0.97,-3.3 6.44,-1.81 5.24,1.76zm-87.27 -0.56c-0.28,-3.71 3.85,-3.08 6.95,-3.08l61.42 0c3.24,0 7.54,-0.8 7.79,2.57 0.27,3.66 -3.88,3.04 -6.95,3.04l-61.42 0c-3.17,0 -7.55,0.79 -7.8,-2.52zm38.08 -15.8c1.18,-1.02 3.53,-4.26 5.61,-4.26 2.08,0 4.42,3.25 5.61,4.26 1.19,-1.02 3.62,-4.42 5.82,-4.25 1.88,0.14 4.71,3.62 5.84,4.74 0.73,0.73 2,1.79 2.24,3.08 0.3,1.6 -0.73,2.9 -1.94,3.18 -2.73,0.65 -4.86,-3.19 -6.36,-4.15 -1.46,0.94 -3.43,4.24 -5.61,4.24 -2.18,0 -4.14,-3.3 -5.61,-4.24 -1.47,0.94 -3.43,4.24 -5.61,4.24 -2.18,0 -4.14,-3.3 -5.61,-4.24 -1.51,0.97 -3.52,4.6 -6.12,4.2 -1.32,-0.2 -2.38,-1.45 -2.21,-3 0.15,-1.4 1.43,-2.46 2.14,-3.17 1.11,-1.1 4.06,-4.6 5.77,-4.86 2.34,-0.36 4.85,3.21 6.04,4.23zm-49.36 -1.71l0 62.49c4.01,1.07 6.94,4.01 8.02,8.02l49.76 0 -0.02 -5.06c-2.69,-1.63 -5.95,-6.38 -7.26,-10.38 -1.54,-4.71 -1.41,-10.47 0.37,-15.02 7.49,-19.15 34.37,-19.15 41.86,0 1.78,4.56 1.92,10.31 0.37,15.02 -1.31,4 -4.57,8.75 -7.26,10.38l-0.03 5.06 16.13 0c1.05,-4.01 3.99,-6.94 7.99,-8.02l0 -62.49c-4.01,-1.07 -6.94,-4.01 -8.02,-8.02l-94.06 0c-0.91,4.01 -3.85,6.94 -7.85,8.02z"/>
   <path class="fil2" d="M5.61 106.57l68.99 0 0 -5.61 -51.32 0c-5.29,0 -2.36,-3.82 -5.3,-6.76 -2.92,-2.92 -6.76,-0.01 -6.76,-5.3l0 -65.62c0,-5.28 3.84,-2.38 6.76,-5.3 2.92,-2.92 0.02,-6.76 5.3,-6.76l-0.84 0c32.62,0 65.25,0 97.87,0 5.28,0 2.38,3.84 5.3,6.76 2.94,2.94 6.76,0.02 6.76,5.3l0 65.62c0,5.28 -3.82,2.36 -6.76,5.3 -2.92,2.92 -0.02,6.76 -5.3,6.76l-17.53 0 -0.14 5.61 35.34 0 0 -100.96 -132.37 0 0 100.96z"/>
   <path class="fil2" d="M87.44 61.83c6.45,-0.69 11.65,4.09 12.28,9.82 0.71,6.52 -4.1,11.74 -9.84,12.37 -14.74,1.61 -17.13,-20.61 -2.44,-22.19zm-0.61 -5.64c-8.67,0.99 -16.04,8.71 -14.92,18.6 0.96,8.55 8.69,15.91 18.57,14.83 8.61,-0.94 15.94,-8.76 14.84,-18.6 -0.95,-8.48 -8.73,-15.96 -18.49,-14.84z"/>
   <path class="fil0" d="M28.1 42.35c0.25,3.31 4.62,2.52 7.8,2.52l61.42 0c3.07,0 7.22,0.62 6.95,-3.04 -0.25,-3.37 -4.55,-2.57 -7.79,-2.57l-61.42 0c-3.11,-0 -7.23,-0.63 -6.95,3.08z"/>
   <path class="fil3" d="M80.21 119.09c1.35,-1.53 6.46,-7.05 8.41,-7.05 1.91,0 3.58,2.26 4.51,3.19 1.23,1.23 2.78,2.6 3.8,3.86l0.1 -25.33c-6.55,2.13 -10.27,2.13 -16.73,0l-0.09 25.33z"/>
   <path class="fil0" d="M87.47 67.46c3.28,-0.76 6,1.55 6.6,4.2 0.77,3.39 -1.51,6.09 -4.2,6.7 -7.18,1.62 -9.74,-9.19 -2.4,-10.91zm-0.03 -5.63c-14.69,1.58 -12.3,23.81 2.44,22.19 5.74,-0.63 10.55,-5.85 9.84,-12.37 -0.63,-5.74 -5.83,-10.52 -12.28,-9.82z"/>
   <path class="fil0" d="M66.18 26.55c-1.19,-1.02 -3.7,-4.59 -6.04,-4.23 -1.71,0.26 -4.65,3.75 -5.77,4.86 -0.71,0.71 -1.99,1.77 -2.14,3.17 -0.17,1.56 0.9,2.8 2.21,3 2.6,0.4 4.61,-3.23 6.12,-4.2 1.46,0.94 3.43,4.24 5.61,4.24 2.18,0 4.14,-3.3 5.61,-4.24 1.46,0.94 3.43,4.24 5.61,4.24 2.18,0 4.14,-3.3 5.61,-4.24 1.51,0.97 3.64,4.81 6.36,4.15 1.21,-0.29 2.24,-1.59 1.94,-3.18 -0.24,-1.29 -1.51,-2.35 -2.24,-3.08 -1.13,-1.12 -3.96,-4.6 -5.84,-4.74 -2.21,-0.17 -4.64,3.24 -5.82,4.25 -1.18,-1.02 -3.53,-4.26 -5.61,-4.26 -2.08,0 -4.42,3.25 -5.61,4.26z"/>
   <path class="fil0" d="M28.1 76c0.22,2.98 3.55,2.52 6.39,2.52l17.67 0c2.81,0.01 5.78,0.15 5.55,-3.04 -0.22,-3.02 -3.49,-2.57 -6.39,-2.57l-17.67 -0c-2.83,-0.01 -5.79,-0.15 -5.55,3.08z"/>
   <path class="fil0" d="M28.1 59.17c0.22,2.98 3.55,2.52 6.39,2.52l17.67 0c2.81,0.01 5.78,0.15 5.55,-3.04 -0.22,-3.02 -3.49,-2.57 -6.39,-2.57l-17.67 -0c-2.83,-0.01 -5.79,-0.15 -5.55,3.08z"/>
   <path class="fil4" d="M87.47 67.46c-7.34,1.71 -4.78,12.53 2.4,10.91 2.69,-0.61 4.97,-3.32 4.2,-6.7 -0.6,-2.66 -3.32,-4.97 -6.6,-4.2z"/>
   <path class="fil0" d="M115.37 42.91c1.2,-3.57 -4.27,-5.06 -5.24,-1.76 -1.11,3.77 4.11,5.14 5.24,1.76z"/>
  </g>
 </g>
</svg>
