<?xml version="1.0" encoding="UTF-8"?>
<!DOCTYPE svg PUBLIC "-//W3C//DTD SVG 1.1//EN" "http://www.w3.org/Graphics/SVG/1.1/DTD/svg11.dtd">
<!-- Creator: CorelDRAW 2020 (64-Bit) -->
<svg xmlns="http://www.w3.org/2000/svg" xml:space="preserve" width="311.514mm" height="309.937mm" version="1.1" style="shape-rendering:geometricPrecision; text-rendering:geometricPrecision; image-rendering:optimizeQuality; fill-rule:evenodd; clip-rule:evenodd"
viewBox="0 0 402.84 400.8"
 xmlns:xlink="http://www.w3.org/1999/xlink"
 xmlns:xodm="http://www.corel.com/coreldraw/odm/2003">
 <defs>
  <style type="text/css">
   <![CDATA[
    .fil0 {fill:#33C455}
    .fil1 {fill:#50E26B}
    .fil2 {fill:white}
   ]]>
  </style>
 </defs>
 <g id="Capa_x0020_1">
  <metadata id="CorelCorpID_0Corel-Layer"/>
  <rect class="fil0" x="-0" y="-0" width="402.84" height="400.8" rx="42.17" ry="41.95"/>
  <rect class="fil1" x="28.52" y="26.78" width="345.81" height="347.25" rx="15.67" ry="15.73"/>
  <path class="fil2" d="M321.51 103.05l16.37 16.37c2.39,2.39 2.39,6.3 0,8.68l-161.43 161.43 -16.37 16.37c-2.39,2.39 -6.3,2.39 -8.68,0l-16.37 -16.37 -40.05 -40.05c-2.39,-2.39 -2.39,-6.3 0,-8.68l16.37 -16.37c2.39,-2.39 6.3,-2.39 8.68,0l35.71 35.71 157.09 -157.09c2.39,-2.39 6.3,-2.39 8.68,0z"/>
 </g>
</svg>
