<?xml version="1.0" encoding="UTF-8"?>
<!DOCTYPE svg PUBLIC "-//W3C//DTD SVG 1.1//EN" "http://www.w3.org/Graphics/SVG/1.1/DTD/svg11.dtd">
<!-- Creator: CorelDRAW 2020 (64-Bit) -->
<svg xmlns="http://www.w3.org/2000/svg" xml:space="preserve" width="249.318mm" height="241.005mm" version="1.1" style="shape-rendering:geometricPrecision; text-rendering:geometricPrecision; image-rendering:optimizeQuality; fill-rule:evenodd; clip-rule:evenodd"
viewBox="0 0 321.08 310.38"
 xmlns:xlink="http://www.w3.org/1999/xlink"
 xmlns:xodm="http://www.corel.com/coreldraw/odm/2003">
 <defs>
  <style type="text/css">
   <![CDATA[
    .fil2 {fill:black}
    .fil4 {fill:#FD6B6B}
    .fil1 {fill:#FE6C6C}
    .fil3 {fill:#FEFEFE}
    .fil0 {fill:url(#id0)}
   ]]>
  </style>
  <linearGradient id="id0" gradientUnits="userSpaceOnUse" x1="167.48" y1="0.14" x2="153.6" y2="310.23">
   <stop offset="0" style="stop-opacity:1; stop-color:red"/>
   <stop offset="1" style="stop-opacity:1; stop-color:#8C0000"/>
  </linearGradient>
 </defs>
 <g id="Capa_x0020_1">
  <metadata id="CorelCorpID_0Corel-Layer"/>
  <path class="fil0" d="M31.89 0l257.29 0c17.55,0 31.9,14.4 31.9,31.89l0 246.59c0,17.49 -14.4,31.89 -31.9,31.89l-257.29 0c-17.51,0 -31.89,-14.35 -31.89,-31.89l0 -246.59c0,-17.54 14.35,-31.89 31.89,-31.89z"/>
  <g id="_2070001468176">
   <path class="fil1" d="M199.95 254.99c-3.83,4.98 -31.19,7.46 -39.53,7.33 -7.43,-0.12 -14.11,-0.74 -21.26,-1.9 -5.22,-0.84 -17.32,-1.92 -13.43,-9.48 2.36,-4.58 13.07,-0.58 18.28,0.21 28.93,4.39 48.6,-4.06 52.47,-3.67 3.31,0.33 5.71,4.58 3.46,7.5zm13.2 -17.56c6.33,-1.04 7.73,8.47 1.55,9.66 -6.91,1.33 -8.52,-8.51 -1.55,-9.66zm-78.06 -86.2c2.22,13.21 -1.49,15.58 -8.99,21.5 -5.85,4.61 -11.99,9.51 -18,14.12 -7.71,5.9 -16.52,5.31 -22.75,-2.04 -8.26,-9.74 -11.22,-24.14 -3.61,-36.17 1.21,-1.92 2.11,-3.41 3.59,-4.82 4.06,-3.86 3.29,-3.61 8.35,-7.95 17.07,-14.63 38.9,-23.67 63.28,-24.71 16.98,-0.72 40.96,4.32 53.07,11.72 8.75,5.34 21.57,12.89 26.88,21.54 7.57,12.32 5.28,26.37 -3.07,36.26 -7.53,8.92 -14.37,7.09 -21.87,2.01 -5.69,-3.85 -24.58,-15.2 -27.69,-20.73 -2.31,-4.11 -2.21,-7.85 -1.26,-12.59 -7.96,-2.5 -16.01,-3.97 -25.07,-3.47 -6.3,0.35 -18.36,2.43 -22.87,5.33zm-46.81 -90.2c-1.15,0.63 -3.52,2.6 -4.57,3.61 -1.1,1.04 -1.32,1.14 -2.42,2.03 -1.01,0.81 -1.33,1.32 -2.38,2.05 1.33,2.17 3.7,4.99 0.47,7.92 -3.19,2.89 -5.56,0.85 -7.91,-0.38 -0.42,1.36 -2.38,3.11 -3.4,4.38 -0.99,1.26 -3.06,3.43 -3.7,4.88 4.47,6.2 2.38,5.36 -3.1,15.01 -2.74,4.83 -5.09,9.74 -7.15,15.08 -14.04,36.47 -8.39,76.33 11.65,106.53 21.21,31.96 64.89,61.53 123.65,49.06 25,-5.31 50.85,-23.07 62.26,-38.07 5.63,-7.4 8.65,-10.3 13.71,-19.89 18.11,-34.29 18.8,-74.15 1.65,-107.85 -7.44,-14.61 -17.5,-27.36 -29.55,-37.19 -2.22,-1.81 -10.68,-8.82 -13.17,-9.22 -5.08,-1.94 -16.7,0.02 -22.97,-0.92 -3.78,-0.56 -7.93,-0.21 -11.8,-0.21 -12.28,0 -10.88,2.28 -10.87,-7.91 0.01,-4.71 0.73,-5.55 -0.98,-7.84 -21.24,-3.98 -51.93,2.4 -70.64,13.29 -3.29,1.92 -5.98,3.45 -8.96,5.39 -1.39,0.9 -2.97,2.32 -4.95,2.47 -2.86,0.21 -3.07,-1.13 -4.89,-2.22z"/>
   <path class="fil2" d="M88.29 61.02c1.82,1.09 2.04,2.43 4.89,2.22 1.98,-0.15 3.56,-1.57 4.95,-2.47 2.98,-1.93 5.66,-3.47 8.96,-5.39 18.71,-10.9 49.4,-17.28 70.64,-13.29 8.03,0.62 18.96,3.61 25.82,6.23 3.33,1.27 16.96,7.23 19.94,9.77 0.59,0.5 0.41,0.36 0.86,0.88 2.49,0.4 10.95,7.41 13.17,9.22 12.04,9.83 22.11,22.58 29.55,37.19 17.15,33.69 16.46,73.55 -1.65,107.85 -5.06,9.59 -8.08,12.49 -13.71,19.89 -11.41,15 -37.26,32.76 -62.26,38.07 -58.76,12.48 -102.44,-17.09 -123.65,-49.06 -20.04,-30.2 -25.69,-70.06 -11.65,-106.53 2.05,-5.34 4.4,-10.24 7.15,-15.08 5.48,-9.66 7.57,-8.81 3.1,-15.01 -5.51,-1.55 -6.7,1.46 -8.75,4.91 -4.32,7.28 -6.96,11.75 -10.21,19.93 -1.45,3.64 -3,7.69 -3.99,11.33 -2.84,10.44 -4.56,20.58 -5.04,30.73l0 11.45c0.56,11.74 2.85,23.63 7.1,36.11 5.51,16.18 16.89,34.32 28.85,46.26l11.97 10.76c20.76,15.85 44.07,25.66 71.11,27.17l14.91 0c38.83,-2.11 75.79,-23.59 96.71,-54.45 13.65,-20.13 21.16,-42.99 22.33,-66.09l0 -12.69c-1.06,-20.98 -7.39,-41.78 -19.17,-60.56l-20.23 -24.74c-6.38,-6.41 -19.48,-15.14 -26.34,-19.12 -13.68,-7.94 -29.46,-12.25 -45.71,-14.57 -2.48,-0.35 -4.97,-0.61 -7.48,-0.77l-14.34 0c-13.64,0.84 -26.78,3.92 -37.27,7.83 -11.45,4.28 -15.48,6.58 -25.22,12.82 -3.17,2.03 -7.49,3.58 -5.34,9.21z"/>
   <path class="fil2" d="M154.67 136.26c-9.26,0.79 -17.01,2.88 -24.77,6.19 -3.28,1.4 -6.25,4.72 -5.32,9.51 1.16,5.93 3.39,6.72 -2.21,11.11 -5.73,4.49 -11.53,8.81 -17.2,13.44 -5.87,4.79 -9.1,6.77 -14.11,-0.39 -6.92,-9.91 -3.33,-21.17 3.41,-27.6 24.87,-23.71 58.28,-33.46 92.99,-23.87 13.53,3.74 30.28,12.45 39.2,22.58 11.37,12.92 -0.23,32.32 -6.32,29.1 -2.83,-1.49 -26.47,-17.61 -27.32,-19.18 -2.31,-4.25 2.24,-7.61 -0.56,-12.77 -4.14,-7.64 -28.9,-8.88 -37.79,-8.12zm-19.58 14.96c4.51,-2.9 16.57,-4.98 22.87,-5.33 9.06,-0.5 17.12,0.97 25.07,3.47 -0.96,4.74 -1.06,8.48 1.26,12.59 3.11,5.53 21.99,16.87 27.69,20.73 7.5,5.08 14.34,6.9 21.87,-2.01 8.35,-9.89 10.65,-23.94 3.07,-36.26 -5.32,-8.65 -18.13,-16.2 -26.88,-21.54 -12.11,-7.4 -36.09,-12.44 -53.07,-11.72 -24.38,1.04 -46.21,10.08 -63.28,24.71 -5.06,4.34 -4.3,4.09 -8.35,7.95 -1.48,1.41 -2.38,2.9 -3.59,4.82 -7.61,12.04 -4.65,26.43 3.61,36.17 6.23,7.35 15.04,7.94 22.75,2.04 6.01,-4.6 12.15,-9.5 18,-14.12 7.51,-5.92 11.21,-8.29 8.99,-21.5z"/>
   <path class="fil3" d="M154.67 136.26c8.89,-0.76 33.65,0.48 37.79,8.12 2.8,5.16 -1.76,8.52 0.56,12.77 0.85,1.57 24.5,17.68 27.32,19.18 6.09,3.22 17.7,-16.17 6.32,-29.1 -8.92,-10.13 -25.67,-18.84 -39.2,-22.58 -34.72,-9.6 -68.13,0.16 -92.99,23.87 -6.74,6.42 -10.33,17.69 -3.41,27.6 5,7.17 8.24,5.19 14.11,0.39 5.67,-4.63 11.47,-8.96 17.2,-13.44 5.61,-4.39 3.37,-5.18 2.21,-11.11 -0.93,-4.79 2.04,-8.11 5.32,-9.51 7.76,-3.31 15.51,-5.4 24.77,-6.19z"/>
   <path class="fil2" d="M199.95 254.99c2.25,-2.93 -0.15,-7.17 -3.46,-7.5 -3.87,-0.39 -23.54,8.06 -52.47,3.67 -5.21,-0.79 -15.93,-4.79 -18.28,-0.21 -3.89,7.56 8.21,8.64 13.43,9.48 7.15,1.15 13.83,1.78 21.26,1.9 8.34,0.13 35.7,-2.35 39.53,-7.33z"/>
   <path class="fil4" d="M224.35 58.97c-0.45,-0.52 -0.27,-0.38 -0.86,-0.88 -2.99,-2.54 -16.61,-8.5 -19.94,-9.77 -6.86,-2.62 -17.79,-5.61 -25.82,-6.23 1.71,2.29 0.99,3.13 0.98,7.84 -0.01,10.19 -1.4,7.91 10.87,7.91 3.87,0 8.02,-0.36 11.8,0.21 6.27,0.94 17.88,-1.02 22.97,0.92z"/>
   <path class="fil2" d="M71.49 76.24c2.35,1.24 4.72,3.27 7.91,0.38 3.23,-2.93 0.86,-5.75 -0.47,-7.92 -2.44,-1.14 -5.38,-0.63 -6.84,1.09 -1.71,2.01 -1.61,4.01 -0.59,6.45z"/>
   <path class="fil2" d="M213.15 237.43c-6.97,1.15 -5.35,10.99 1.55,9.66 6.18,-1.19 4.78,-10.7 -1.55,-9.66z"/>
  </g>
 </g>
</svg>
