<?xml version="1.0" encoding="UTF-8"?>
<!DOCTYPE svg PUBLIC "-//W3C//DTD SVG 1.1//EN" "http://www.w3.org/Graphics/SVG/1.1/DTD/svg11.dtd">
<!-- Creator: CorelDRAW 2020 (64-Bit) -->
<svg xmlns="http://www.w3.org/2000/svg" xml:space="preserve" width="168.772mm" height="168.778mm" version="1.1" style="shape-rendering:geometricPrecision; text-rendering:geometricPrecision; image-rendering:optimizeQuality; fill-rule:evenodd; clip-rule:evenodd"
viewBox="0 0 129.9 129.91"
 xmlns:xlink="http://www.w3.org/1999/xlink"
 xmlns:xodm="http://www.corel.com/coreldraw/odm/2003">
 <defs>
  <style type="text/css">
   <![CDATA[
    .fil2 {fill:black;fill-rule:nonzero}
    .fil1 {fill:#FEC108;fill-rule:nonzero}
    .fil0 {fill:#FEDE00;fill-rule:nonzero}
   ]]>
  </style>
 </defs>
 <g id="Capa_x0020_1">
  <metadata id="CorelCorpID_0Corel-Layer"/>
  <circle class="fil0" cx="64.95" cy="64.95" r="62.36"/>
  <path class="fil1" d="M64.95 2.6c-1.75,0 -3.48,0.08 -5.2,0.22 32.3,2.71 57.16,29.72 57.16,62.14 0,32.42 -24.86,59.43 -57.16,62.13 1.71,0.14 3.45,0.22 5.2,0.22 34.43,0 62.35,-27.92 62.35,-62.35 0,-34.43 -27.92,-62.36 -62.36,-62.36z"/>
  <circle class="fil0" cx="64.95" cy="64.95" r="45.03"/>
  <path class="fil1" d="M64.95 19.92c-1.74,0 -3.48,0.11 -5.2,0.3 22.71,2.64 39.84,21.87 39.84,44.74 0,22.86 -17.13,42.1 -39.84,44.73 1.72,0.2 3.46,0.3 5.2,0.3 24.87,0 45.03,-20.17 45.03,-45.03 0,-24.87 -20.17,-45.03 -45.03,-45.03 0,0 0,0 0,0l-0 0z"/>
  <path class="fil2" d="M64.95 -0c-35.87,0 -64.95,29.09 -64.95,64.96 0,14.85 5.1,29.28 14.43,40.82 0.49,0.61 1.24,0.97 2.02,0.97 1.43,0 2.6,-1.16 2.6,-2.6 0,-0.59 -0.2,-1.17 -0.58,-1.63 -8.58,-10.63 -13.27,-23.89 -13.27,-37.55 0,-33 26.76,-59.76 59.76,-59.76 33,0 59.76,26.76 59.76,59.76 0,33 -26.76,59.76 -59.76,59.76 -13.67,0 -26.93,-4.69 -37.56,-13.28 -0.46,-0.37 -1.04,-0.58 -1.64,-0.58 -1.43,0 -2.6,1.16 -2.6,2.6 0,0.78 0.35,1.53 0.96,2.02 11.55,9.34 25.97,14.43 40.83,14.43 35.87,0 64.95,-29.09 64.95,-64.95 0,-35.87 -29.09,-64.95 -64.95,-64.95l0 0z"/>
  <path class="fil2" d="M91.39 28.4c0.27,-0.42 0.41,-0.9 0.41,-1.4 0,-0.89 -0.45,-1.71 -1.2,-2.19 -7.67,-4.9 -16.58,-7.51 -25.68,-7.51 -26.32,0 -47.66,21.34 -47.66,47.66 0,26.32 21.34,47.66 47.66,47.66 26.32,0 47.66,-21.34 47.66,-47.66 0,-11.12 -3.9,-21.9 -11,-30.45 -0.49,-0.59 -1.22,-0.94 -1.99,-0.94 -1.43,0 -2.6,1.16 -2.6,2.6 0,0.61 0.21,1.2 0.6,1.66 6.31,7.6 9.77,17.18 9.77,27.07 0,23.41 -18.98,42.39 -42.39,42.39 -23.41,0 -42.39,-18.98 -42.39,-42.39 0,-23.41 18.98,-42.39 42.39,-42.39 8.09,0 16.01,2.32 22.83,6.67 0.42,0.27 0.9,0.41 1.4,0.41 0.89,0 1.71,-0.45 2.19,-1.2l0 -0z"/>
  <path class="fil2" d="M64.95 43.3c5.42,0 11.26,2.44 11.26,7.79 0.02,1.42 1.18,2.56 2.6,2.56 1.42,0 2.58,-1.14 2.6,-2.56 0,-7.62 -6.62,-11.99 -13.86,-12.84l0 -4.48c-0.02,-1.42 -1.18,-2.56 -2.6,-2.56 -1.42,0 -2.58,1.14 -2.6,2.56l0 4.48c-7.24,0.84 -13.86,5.21 -13.86,12.84 0,8.53 8.13,12.6 15.3,16.18 6.39,3.19 12.42,6.21 12.42,11.53 0,5.35 -5.84,7.79 -11.26,7.79 -5.42,0 -11.26,-2.44 -11.26,-7.79 0,-1.43 -1.16,-2.6 -2.6,-2.6 -1.43,0 -2.6,1.16 -2.6,2.6 0,7.62 6.62,11.99 13.86,12.84l0 4.48c-0,1.43 1.16,2.6 2.6,2.6 1.43,0 2.6,-1.16 2.6,-2.6l0 -4.48c7.24,-0.84 13.86,-5.21 13.86,-12.84 0,-8.53 -8.12,-12.6 -15.3,-16.18 -6.39,-3.19 -12.42,-6.21 -12.42,-11.53 0,-5.36 5.84,-7.79 11.26,-7.79z"/>
 </g>
</svg>
