<?xml version="1.0" encoding="UTF-8"?>
<!DOCTYPE svg PUBLIC "-//W3C//DTD SVG 1.1//EN" "http://www.w3.org/Graphics/SVG/1.1/DTD/svg11.dtd">
<!-- Creator: CorelDRAW 2020 (64-Bit) -->
<svg xmlns="http://www.w3.org/2000/svg" xml:space="preserve" width="201.581mm" height="194.285mm" version="1.1" style="shape-rendering:geometricPrecision; text-rendering:geometricPrecision; image-rendering:optimizeQuality; fill-rule:evenodd; clip-rule:evenodd"
viewBox="0 0 375.12 361.54"
 xmlns:xlink="http://www.w3.org/1999/xlink"
 xmlns:xodm="http://www.corel.com/coreldraw/odm/2003">
 <defs>
  <style type="text/css">
   <![CDATA[
    .fil0 {fill:black}
    .fil10 {fill:#44515D}
    .fil6 {fill:#4AC1F0}
    .fil1 {fill:#69D4FE}
    .fil4 {fill:#748EA5}
    .fil3 {fill:#88A0B5}
    .fil9 {fill:#909090}
    .fil5 {fill:#B2B2B2}
    .fil8 {fill:#E7C5A9}
    .fil2 {fill:#FCE3C4}
    .fil7 {fill:white}
   ]]>
  </style>
 </defs>
 <g id="Capa_x0020_1">
  <metadata id="CorelCorpID_0Corel-Layer"/>
  <g id="_2070757778752">
   <path class="fil0" d="M332.72 333.28l0.54 2.45c-1.64,-1.01 -1.32,-0.87 -2.17,-2.01 -10.46,-9.23 -6.13,-8.64 -20.67,-2.16 -3.01,1.34 -9.53,2.77 -11.58,4.3 -3.67,2.72 -2.2,7.91 -2.8,13.15l-17.8 0.04 -5.41 -0.08c-0.58,-4.98 1.06,-10.36 -2.75,-13.06 -1.99,-1.41 -8.66,-3.12 -11.49,-4.36 -12.82,-5.62 -11.21,-7.74 -20.25,2.46 -3.28,-1 -14.3,-12.75 -16.99,-15.91 1.56,-3.99 6.53,-5.28 6.93,-9.87 0.29,-3.32 -3.17,-8.28 -4.51,-11.41 -5.84,-13.68 -0.55,-13.58 -17.57,-14.33l0.02 -23.49c17.69,-0.76 11.48,-0.09 17.68,-14.74 1.48,-3.49 4.86,-7.74 4.3,-11.42 -0.59,-3.96 -4.74,-5.96 -7.17,-9.45l16.24 -15.78c3.59,1.98 5.5,6.74 9.85,7.01 3.03,0.19 8.26,-3.35 11.27,-4.6 14.05,-5.86 13.79,-0.12 14.28,-17.52l9.71 -0.01 13.83 0.11c0.51,17.57 0.72,11.62 14.87,17.69 3.42,1.47 7.76,4.89 11.42,4.24 3.85,-0.68 5.49,-5.25 9.38,-7.04l15.73 16.17c-1.63,4.61 -6.71,5.01 -7.01,9.85 -0.2,3.13 3.33,8.36 4.62,11.43 6.25,14.96 0.05,12.7 17.49,14.16l-0.17 23.35c-5.69,0.48 -10.73,-1.1 -13.35,3.28 -1.37,2.29 -2.89,8.75 -4.21,11.65 -1.5,3.28 -4.91,7.88 -4.23,11.53 0.88,4.76 5.18,5.24 6.83,9.24l-14.83 15.15zm-187.81 -12.06c-33.33,1.1 -79.76,-5.02 -108.68,-15.16 -22.29,-7.81 -27.03,-9.4 -23.73,-37.44 4.42,-37.64 45.89,-63.54 78.97,-75.92 5.94,-2.22 6.12,-3.19 10.83,0.45l16.98 14c10.33,8.07 19.28,19.73 28.7,14.1l33.78 -27.36c3.25,-3.44 4.35,-3.93 9.94,-1.76 7.93,3.08 24.85,9.14 29.63,14.23 -12.53,11.08 -17.33,16.67 -6.65,28.66l-4.85 11.8c-16.29,0.12 -15.75,9.63 -15.75,24.44 -0,14.62 -0.04,23.35 15.84,23.52l4.7 11.24c-2.27,3.82 -4.02,3.38 -5.48,9.65 -19.11,3.79 -44.2,5.64 -64.22,5.55zm-35.35 -140.65l0.02 -12.85c33.41,9.44 33.78,8.14 65.61,0.08 0.02,2.75 -0.01,5.51 0.02,8.26 0.01,1.28 0.13,3.38 0.05,4.56l-0.7 3.15 -31.75 26.31c-4.32,-1.61 -26.02,-21.79 -33.25,-26.23l-0 -3.29zm84.33 -112.62c6.38,2.2 19.09,10.51 23.07,14.41 2.59,23.43 -8.93,42.79 -19.13,55.01 -9.09,10.9 -28.04,22.88 -49.72,24.27 -24.78,3.04 -49.25,-11.16 -59.77,-22.53 -12.51,-13.52 -23.06,-34.5 -20.22,-61.2 25.65,7.39 35.06,13.84 66.43,0.7 19.38,-8.12 30.95,-19.3 44.89,-16.29 3.98,0.86 12.01,3.46 14.45,5.63zm-45.25 -55.45c17,1.02 32.91,9.4 42.18,17.34 7.02,6.01 20.63,21.75 22.82,34.92 -7.5,-4.29 -16.03,-9.76 -25.76,-12.54 -21.63,-7.35 -32.24,3.13 -56.78,14.66 -30.4,14.29 -41.69,3.58 -60.37,-0.91 3.34,-16.65 17.62,-32.39 27.59,-39.44 13.34,-9.44 29.39,-15.64 50.32,-14.03zm-93.47 72.13c0,27.92 9.22,47.23 26.63,64.79 17.94,18.1 15.68,2.72 15.68,28.9 -9.61,0.21 -37.95,15.01 -48.97,22.06 -5.57,3.56 -21.25,15.79 -25.95,21.66 -20.51,25.62 -22.55,32.5 -22.55,67.36 0,18.46 21.39,24.62 36.17,29.56 31,10.37 52.99,10.66 84.08,14.15 5,0.56 11.36,-0.09 16.54,0.09l15.08 0.02c14.4,0.05 31.47,-1.33 45.77,-3.34 18.43,-2.58 13.53,-4.23 22.8,5.04 2.7,2.7 4.81,4.89 7.53,7.58 9.95,9.8 18.65,-0.41 20.61,-1.72 2.97,0.69 4.41,2.04 7.5,3.08 5.18,1.74 3.36,0.96 4.5,6.83 2.69,13.9 17.45,10.49 35.6,10.49 9.36,0 12.09,-7.43 12.09,-15.87 3.72,-0.87 8.28,-2.92 11.33,-4.53 3.56,2.38 6.65,6.23 12.59,5.75 7.45,-0.6 14.57,-9.92 21.22,-16.51 12.01,-11.89 6.18,-16.18 0.94,-23.99 1.89,-3.58 3.5,-6.88 4.53,-11.33 19.95,0 15.87,-12.87 15.87,-37.02 0,-6.51 -7.28,-11.33 -15.87,-11.33 -0.99,-4.23 -3.66,-7.59 -4.53,-11.33 1.34,-2 2.54,-2.56 3.78,-4.53 6.53,-10.43 -3.02,-17 -9.26,-23.23 -4,-4 -10.12,-12.28 -17.19,-12.28 -5.3,0 -9.19,2.85 -11.33,6.04 -2.36,-1.25 -9.05,-4.28 -12.09,-4.53 0,-10.7 -3.25,-16.62 -16.62,-16.62 -14.21,0 -31.74,-3.23 -31.74,16.62 -3.72,0.87 -8.28,2.92 -11.33,4.53 -1.74,-2.6 -6.36,-6.04 -10.58,-6.04 -8.94,0 -3.07,4.63 -12.12,-0.72 -3.64,-2.15 -8.22,-4.16 -12.06,-6.08 -4.47,-2.24 -20.96,-9.7 -26.45,-9.82 0,-26.23 -2.3,-10.76 15.68,-28.9 30.16,-30.43 35.45,-75.54 11.98,-110.59 -14.88,-22.22 -41.87,-38.83 -69.22,-38.83 -26.36,0 -47.24,7.57 -65.17,25.5 -14.57,14.57 -25.5,36.92 -25.5,59.13z"/>
   <path class="fil1" d="M140.65 282.42c7.33,-3.5 11.65,8.07 4.55,10.92 -7.21,2.89 -12.19,-7.26 -4.55,-10.92zm-0.04 -37.78c7.61,-3.92 11.96,8.22 4.57,10.9 -7.05,2.56 -11.9,-7.13 -4.57,-10.9zm4.3 76.58l8.62 -12.8c2.8,-4.72 4.69,-8.34 7.08,-13.36 13.93,-29.29 21.93,-68.15 21.15,-101.17l-33.78 27.36c-9.42,5.63 -18.38,-6.03 -28.7,-14.1l-16.98 -14c-4.7,-3.64 -4.88,-2.67 -10.83,-0.45 -33.09,12.38 -74.55,38.28 -78.97,75.92 -3.3,28.04 1.44,29.63 23.73,37.44 28.92,10.13 75.35,16.25 108.68,15.16z"/>
   <path class="fil2" d="M148.1 161.64c4.7,-3.83 13.97,-6.75 21.9,-15.05 3.16,-3.31 5.9,-5.62 8.83,-9.32 14.55,-18.39 21.44,-44.19 15.05,-69.32 -2.45,-2.17 -10.47,-4.77 -14.45,-5.63 -13.94,-3 -25.52,8.18 -44.89,16.29 -31.37,13.14 -40.78,6.69 -66.43,-0.7 -2.84,26.7 7.71,47.68 20.22,61.2 10.52,11.37 34.99,25.57 59.77,22.53z"/>
   <path class="fil3" d="M278.23 349.05c0.14,-0.17 0.35,-0.65 0.42,-0.52 0.55,1.06 7.18,-15.96 7.35,-16.45 1.11,-3.15 2,-5.81 3,-9.09 2.6,-8.55 2.9,-7.32 0.84,-8.32 -13.88,-1.69 -20.83,0.51 -35.07,-11.81 -19.79,-17.13 -17.44,-50.94 1.01,-65.2 17.91,-13.84 25.23,-8.66 36.56,-10.45 2.08,-3.8 -8.41,-29.49 -9.97,-34.72l-9.71 0.01c-0.49,17.4 -0.23,11.67 -14.28,17.52 -3.01,1.25 -8.24,4.79 -11.27,4.6 -4.35,-0.27 -6.26,-5.03 -9.85,-7.01l-16.24 15.78c2.43,3.5 6.57,5.49 7.17,9.45 0.55,3.68 -2.83,7.93 -4.3,11.42 -6.19,14.64 0.01,13.97 -17.68,14.74l-0.02 23.49c17.02,0.75 11.73,0.64 17.57,14.33 1.34,3.14 4.81,8.09 4.51,11.41 -0.41,4.59 -5.37,5.88 -6.93,9.87 2.69,3.16 13.72,14.91 16.99,15.91 9.05,-10.2 7.43,-8.08 20.25,-2.46 2.83,1.24 9.5,2.95 11.49,4.36 3.82,2.7 2.17,8.08 2.75,13.06l5.41 0.08z"/>
   <path class="fil4" d="M292.34 227.22c0.17,0.11 0.41,0.23 0.54,0.29l3.48 1.27c1.53,0.46 2.47,0.75 3.96,1.32 2.53,0.98 4.22,1.8 6.62,3.22 12.94,7.63 21.93,22.9 21.15,39.48 -1.68,35.78 -37.52,41.24 -38.25,41.86 2.05,1.01 1.76,-0.22 -0.84,8.32 -1,3.28 -1.89,5.95 -3,9.09 -0.17,0.49 -6.81,17.52 -7.35,16.45 -0.07,-0.13 -0.28,0.35 -0.42,0.52l17.8 -0.04c0.6,-5.24 -0.87,-10.43 2.8,-13.15 2.06,-1.53 8.57,-2.95 11.58,-4.3 14.55,-6.49 10.22,-7.07 20.67,2.16l1.63 -0.44 14.83 -15.15c-1.65,-3.99 -5.95,-4.48 -6.83,-9.24 -0.68,-3.65 2.74,-8.25 4.23,-11.53 1.32,-2.9 2.85,-9.36 4.21,-11.65 2.62,-4.38 7.66,-2.8 13.35,-3.28l0.17 -23.35c-17.44,-1.46 -11.23,0.81 -17.49,-14.16 -1.29,-3.07 -4.82,-8.3 -4.62,-11.43 0.3,-4.83 5.38,-5.23 7.01,-9.85l-15.73 -16.17c-3.89,1.8 -5.52,6.36 -9.38,7.04 -3.66,0.65 -8,-2.77 -11.42,-4.24 -14.16,-6.07 -14.36,-0.11 -14.87,-17.69l-13.83 -0.11c1.56,5.23 12.05,30.92 9.97,34.72z"/>
   <path class="fil5" d="M187.88 52.22c-1.09,-6.4 -12.52,-20.01 -15.87,-23.24 -10.57,-10.19 -18.03,-12.24 -21.99,-15.19 -1.03,-0.77 -0.69,-0.5 -1.39,-1.29 -20.93,-1.61 -36.98,4.59 -50.32,14.03 -9.97,7.06 -24.25,22.8 -27.59,39.44 18.68,4.49 29.97,15.19 60.37,0.91 24.54,-11.53 35.15,-22.01 56.78,-14.66z"/>
   <path class="fil6" d="M181.76 193.89c0.77,33.02 -7.22,71.89 -21.15,101.17 -2.39,5.02 -4.28,8.64 -7.08,13.36l-8.62 12.8c20.02,0.09 45.11,-1.76 64.22,-5.55 1.46,-6.27 3.22,-5.83 5.48,-9.65l-4.7 -11.24c-15.87,-0.16 -15.84,-8.9 -15.84,-23.52 0,-14.81 -0.54,-24.32 15.75,-24.44l4.85 -11.8c-10.67,-12 -5.88,-17.58 6.65,-28.66 -4.78,-5.08 -21.69,-11.15 -29.63,-14.23 -5.59,-2.17 -6.69,-1.69 -9.94,1.76z"/>
   <path class="fil0" d="M294.69 241.15c11.14,2.68 21.58,15.66 21.35,30.11 -0.23,14.5 -10.62,26.86 -22.1,29.37 -9.04,5.5 -23.11,-0.68 -29,-4.93 -14.9,-10.75 -17.46,-36.82 0.77,-50.42 5.66,-4.22 21.6,-9.5 28.99,-4.14zm-4.85 73.51c0.73,-0.62 36.56,-6.08 38.25,-41.86 0.78,-16.58 -8.21,-31.86 -21.15,-39.48 -2.4,-1.42 -4.09,-2.23 -6.62,-3.22 -1.49,-0.58 -2.43,-0.87 -3.96,-1.32l-3.48 -1.27c-0.13,-0.06 -0.37,-0.17 -0.54,-0.29 -11.32,1.79 -18.65,-3.4 -36.56,10.45 -18.45,14.26 -20.8,48.06 -1.01,65.2 14.23,12.32 21.19,10.11 35.07,11.81z"/>
   <path class="fil7" d="M293.93 300.64c3.26,-9.95 4.94,-50.52 0.76,-59.49 -7.39,-5.36 -23.33,-0.08 -28.99,4.14 -18.22,13.59 -15.66,39.67 -0.77,50.42 5.89,4.25 19.96,10.43 29,4.93z"/>
   <path class="fil8" d="M148.1 161.64c21.68,-1.39 40.63,-13.37 49.72,-24.27 10.2,-12.22 21.72,-31.59 19.13,-55.01 -3.97,-3.9 -16.69,-12.22 -23.07,-14.41 6.39,25.14 -0.5,50.94 -15.05,69.32 -2.93,3.7 -5.67,6.01 -8.83,9.32 -7.93,8.3 -17.2,11.22 -21.9,15.05z"/>
   <path class="fil8" d="M109.55 180.57c11.53,3.86 18.64,6.73 32.5,6.8 10.62,0.05 23.82,-2.43 32.08,-6.49l0.41 2.89 0.7 -3.15c0.08,-1.18 -0.04,-3.28 -0.05,-4.56 -0.03,-2.75 0,-5.5 -0.02,-8.26 -31.84,8.06 -32.2,9.35 -65.61,-0.08l-0.02 12.85z"/>
   <path class="fil7" d="M293.93 300.64c11.48,-2.51 21.87,-14.87 22.1,-29.37 0.23,-14.46 -10.2,-27.44 -21.35,-30.11 4.18,8.97 2.5,49.54 -0.76,59.49z"/>
   <path class="fil9" d="M187.88 52.22c9.73,2.78 18.26,8.26 25.76,12.54 -2.19,-13.17 -15.8,-28.91 -22.82,-34.92 -9.27,-7.94 -25.18,-16.32 -42.18,-17.34 0.7,0.8 0.36,0.53 1.39,1.29 3.96,2.95 11.42,5 21.99,15.19 3.35,3.23 14.78,16.84 15.87,23.24z"/>
   <path class="fil2" d="M174.55 183.77l-0.41 -2.89c-8.26,4.06 -21.46,6.54 -32.08,6.49 -13.86,-0.07 -20.98,-2.94 -32.5,-6.8l0 3.29c7.22,4.44 28.92,24.62 33.25,26.23l31.75 -26.31z"/>
   <path class="fil0" d="M140.61 244.64c-7.33,3.77 -2.48,13.46 4.57,10.9 7.39,-2.68 3.04,-14.82 -4.57,-10.9z"/>
   <path class="fil0" d="M140.65 282.42c-7.65,3.65 -2.66,13.81 4.55,10.92 7.11,-2.85 2.78,-14.42 -4.55,-10.92z"/>
   <path class="fil10" d="M331.09 333.72c0.85,1.14 0.53,1 2.17,2.01l-0.54 -2.45 -1.63 0.44z"/>
  </g>
 </g>
</svg>
