<?xml version="1.0" encoding="UTF-8"?>
<!DOCTYPE svg PUBLIC "-//W3C//DTD SVG 1.1//EN" "http://www.w3.org/Graphics/SVG/1.1/DTD/svg11.dtd">
<!-- Creator: CorelDRAW 2020 (64-Bit) -->
<svg xmlns="http://www.w3.org/2000/svg" xml:space="preserve" width="135.45mm" height="135.45mm" version="1.1" style="shape-rendering:geometricPrecision; text-rendering:geometricPrecision; image-rendering:optimizeQuality; fill-rule:evenodd; clip-rule:evenodd"
viewBox="0 0 3045.42 3045.42"
 xmlns:xlink="http://www.w3.org/1999/xlink"
 xmlns:xodm="http://www.corel.com/coreldraw/odm/2003">
 <defs>
  <style type="text/css">
   <![CDATA[
    .fil0 {fill:black}
    .fil13 {fill:#323232}
    .fil11 {fill:#333333}
    .fil8 {fill:#365A78}
    .fil17 {fill:#365B7A}
    .fil4 {fill:#416F95}
    .fil18 {fill:#6794BA}
    .fil15 {fill:#6A98BE}
    .fil2 {fill:#C4DCF0}
    .fil1 {fill:#E3EEF6}
    .fil6 {fill:#ECB200}
    .fil12 {fill:#F3F7F9}
    .fil19 {fill:#F4F4F4}
    .fil10 {fill:#F4F8FA}
    .fil7 {fill:#FEB98D}
    .fil9 {fill:#FEBC8C}
    .fil3 {fill:#FED0B4}
    .fil14 {fill:#FFA465}
    .fil5 {fill:#FFCA28}
    .fil16 {fill:#FFD1B5}
   ]]>
  </style>
   <clipPath id="id0">
    <rect width="3045.42" height="3045.42"/>
   </clipPath>
 </defs>
 <g id="Capa_x0020_1">
  <metadata id="CorelCorpID_0Corel-Layer"/>
  <g style="clip-path:url(#id0)">
   <image x="-0" y="0" width="3045.42" height="3045.42" xlink:href="Coordinador_Images\Coordinador_ImgID1.png"/>
  </g>
  <g id="_1872608825504">
   <path class="fil0" d="M1008.91 1804.67c2.68,3.75 2.82,1.96 6.06,13.48l4.36 40.28c2.24,18.04 5.04,34.57 7.54,52.05 5.08,35.5 14.64,73.05 11.48,108.5 14.19,16.89 52.11,308.24 50.14,348.38l-91.05 86.26 -75.69 -74.15c-21.26,-23.39 -13.86,-28.84 -7.84,-68.52l69.16 -502.85 25.84 -3.44zm1592.7 499.62c16.11,11.51 14.92,13.43 15.78,38.8 1.72,50.79 -10.78,133.42 16.45,156.33 54.38,45.73 84.16,-58.98 168.53,-14.17 46.9,24.91 76.8,96.56 27.53,148.35 -70.92,74.55 -119.61,-0.58 -159.93,-4.45 -78.59,-7.54 -49,115.48 -52.89,172.67 -5.11,75.18 -101.69,53.26 -172.42,53.26 -75.34,0 -150.68,0 -226.03,0 -74.08,0 -166.52,22.87 -172.74,-54.72 0.38,-32.49 5.52,-124.14 -6.26,-146.99 -27.74,-53.79 -75.05,-7.05 -102.03,4.12 -84.79,35.12 -167.2,-65.11 -109.45,-145.12 79.08,-109.57 169.58,55.83 211.71,-26.34 13.69,-26.69 3.84,-112.06 6.25,-148.72 3.72,-56.75 47.49,-53.96 100.97,-52.99 -11.07,64.49 1.9,127.09 36.39,165.82 33.01,37.07 74.12,71.72 148.18,71.47 121.11,-0.4 206.45,-100.91 184.57,-237.29 41.61,-0.75 72.39,-7.44 85.4,19.97zm-953.92 -256.34c80.45,-13.41 143.68,71.22 94.99,146.56 -72.48,112.16 83.64,89.54 163.21,89.55 50.84,11.61 45.84,47.98 44.68,100.75 -36.35,-5.74 -52.54,-7.48 -89.96,-0.75 -52.8,14.71 -80.5,36.71 -108.34,70.01 -35.18,42.09 -32.82,78.68 -40.85,141.47 10.11,14.63 39.39,192.56 239.28,158.6 1.72,125.25 -20.31,100.93 -201.95,100.93 -103.11,0 -207.08,1.31 -310.08,-0.24 -69.04,-1.88 -58.79,-51.7 -58.71,-112.77l0 -344.99c-0.09,-60.9 -10.07,-110.74 58.64,-112.83 70.95,-0.81 157.16,21.4 168.14,-48.57 -7.28,-44.05 -44.79,-49.86 -34.83,-110.75 6.65,-40.64 36.01,-65.63 75.77,-76.97zm-820.43 192.77c-12.18,125.42 -34.71,116.68 6.58,186.06l-247.61 0.04c10.81,-50.62 38.16,-115.58 33.46,-166.52 -17.07,-11.19 -35.44,-41.38 -71.62,-17.23 -21.33,14.24 -21.3,46.95 -32.74,70.76l-27.72 112.7c-92.89,1.59 -210.64,15.07 -267.12,-71.06 -66.22,-21.06 -3.74,-202.2 8.48,-259.28 18.97,-88.67 38.74,-179.34 57.32,-269.02 19.74,-95.27 29.14,-200.28 86.83,-246.65 30.76,-24.72 170.67,-102.65 215.74,-111.92l181.42 223.79c35.71,35.65 55.76,13.6 86.24,-4.75 51.67,27.46 41.16,46.71 31.57,115.96 -6.81,49.21 -13.52,97.59 -20.28,146.61 -13.29,96.31 -25.58,194.34 -40.55,290.52zm346.78 -528.08l28.95 2.73c10.83,-12.72 19.41,-16.77 30.88,-29.39l76.74 -95.77c18.94,-23.85 82.81,-111.54 105.03,-121.76 16.17,7.15 11.5,2.35 21.56,15.5 37.57,3.45 123.63,58.42 157.41,79.76 114.57,72.35 77.01,80.95 282.37,-79.39 40.93,-31.96 101.11,-88.62 141.26,-95.44 38.69,8.58 72.39,53.64 96.18,77.43 29.21,29.21 54.06,54.06 83.27,83.27 81.22,81.22 86.37,85.99 29.06,141.94l-298.97 289.68c-21.49,19.59 -65.93,65.01 -89.83,76.77 -137.81,-208.57 -392.83,-89.25 -357.38,130.42 -185.59,5.68 -195.83,57.54 -195.83,238.44l-120.01 -0.31c14.4,-23.95 27.74,-30.28 22,-72.78l-38.25 -265.75c-15.29,-107.4 -44.63,-251.99 -50.85,-358.31l44.39 -40.97c12.06,6.85 20.08,13.47 32.01,23.92zm-178.33 -142.01c41.34,-1.08 48.49,9.37 63.76,34.36l12.8 12.88c-7.91,15.61 -2.92,8.24 -15.88,21.51l-57.1 50.48c-11.84,-7.89 -12.26,-9.26 -22.81,-19.4l-21.33 -20.9 -13.76 -19.02c-9.75,-5.67 -4.23,5.45 -16.49,-14.68l43.21 -45.64 27.6 0.41zm269.97 -83.59c-13.32,27.86 -58.94,83.55 -81.98,105.65l-43.18 -45.83 -25.45 -26.14 128.11 -131.47 76.29 33.46c-8.85,17.74 -40.01,58.01 -53.79,64.34zm-499.02 -79.08c23.56,13.99 94.58,84.84 108.79,108.21 7.31,10.41 6.26,-16.61 4.97,12.56l-66.04 63.48c-18.53,-18.05 -20.94,-23.71 -37.66,-44.71 -12.15,-11.76 -73.62,-87.37 -81.66,-104.21l-15.93 -14.71c15.24,-17.74 50.98,-31.44 76.92,-37.02l10.61 16.4zm344.72 -136.23l30.07 -10.16c4.07,106.65 9.96,90.59 -44.45,144.72 -17.38,17.29 -30.24,30 -47.38,47.8 -27.83,28.91 -71.09,32.33 -87.14,9.14 -26.12,-14.81 -54.5,-51.67 -78.49,-75.08 -36.3,-35.43 -29.81,-36.93 -26.95,-126.71 126.6,30.87 128.02,21.18 254.34,10.28zm1118.21 173.71l-83.88 -81.45c-14.6,-12.44 -26.93,-23.75 -37.62,-38.49 21.98,-60.18 20.43,-69.69 28.5,-128.37 10.06,-73.16 54.28,-21.49 78.77,12.62 11.33,8.04 90.59,118.11 180.91,44.52 39.19,-31.93 100.02,-113.55 138.47,-132.36l13.19 12.62c41.8,52.46 -12.86,194.32 -33.01,262.24 -25.9,87.3 -83.3,144.83 -186.06,155.77 -27.69,-38.95 -75.38,-68.82 -99.27,-107.1zm13.18 -345.77l-13.04 -12.36 23.82 -22.43c28.84,-37.55 129.38,-93.96 179.22,-106.86 16.82,16.98 49.4,43.18 57.39,65.04 -11.52,21.41 -136.98,147.16 -158.51,159.12 -21.52,-6.78 -76.76,-64.6 -88.88,-82.5zm-131.19 -192.35c24.63,12.74 67.58,55.48 79.95,80.04 -14.48,26.62 -40.04,44.33 -59.88,65.62 -19.65,-8.51 -34.58,-24.09 -44.04,-40.76l-93.09 -90.84c14.91,-18.38 47.66,-55.53 72.18,-66.91 13.55,18.64 37.11,33.06 44.88,52.85zm-1397.23 -165.06c53.02,-30.69 97.31,-54.26 116.23,-107.57 189.41,40.53 133.94,48.09 337.05,0.18 7.93,22.13 13.84,19.37 18.46,39.4 49.03,32.05 55.14,60.52 145.85,81.45 2.12,131.3 -3.4,231.85 -74.12,311.82 -60.36,68.26 -130.77,117.33 -260.34,121.86 -53.61,-2.38 -120.97,-12.99 -153.69,-39.09 -60.49,-26.74 -112.93,-86.47 -142.95,-144.01 -39.84,-76.37 -36.43,-156.61 -34.24,-249.78l47.75 -14.25zm703.44 209.43c10.48,-69.65 9.55,-120.15 9.55,-190.37 55.21,4.85 97.89,41.54 94.67,100.7 -3.15,57.84 -45.9,86.75 -104.22,89.68zm-871.56 -184.89l24.81 -5.47c0.09,69.05 -0.66,122.48 9.22,191.27l-33.46 -6.84c-90.99,-14.39 -89.98,-162.75 -0.57,-178.96zm1708.15 141.53c-18.18,-10.11 -124.73,-116.62 -135.46,-136.49 39.22,-72.99 191.46,-405.74 224.62,-440.2 27.11,16.76 69.74,65.49 94.95,90.88l71.65 71.31c12.87,13.18 10.99,8.5 16.22,22.5 24.01,12.41 182.64,173.49 191.45,190.94 -72.65,33.04 -408.37,214.7 -451.11,220.02 -5.26,-7.21 -7.52,-11.38 -12.31,-18.94zm-1635.78 -242.21l-47.8 0.07c0,-111.54 9.86,-183.92 60.32,-266.96 40.93,-67.35 88.34,-118.38 162.86,-156.35 1.12,-1.3 2.82,-2.74 3.78,-3.48 0.94,-0.73 2.65,-2.45 3.83,-3.28l16.35 -8.57c64.65,-24.96 131.02,-38.98 202.2,-36.71 113.08,6.41 237.38,62.3 300.38,142.08 74.31,94.12 111.2,172.76 106.49,332.7 -50.44,1.35 -78.77,3.98 -121.24,-20.14 -12.21,-6.93 -5.36,-2.53 -14.58,-9.17 -7.28,-5.25 -9.63,-7.82 -13.45,-11.26 -44.12,-44.92 -31.14,-49.44 -47.58,-76.7 -50.36,-83.52 -133.34,96.42 -389.33,-15.27 -40.89,-17.84 -63.62,-7.12 -78.21,27.29 -25.9,61.08 -63.9,100.45 -144,105.74zm-142.76 23.83c-125.02,83.72 -121.39,235.11 -28.1,313.61 47.59,40.05 80.42,43.28 164.91,43.28 18.01,34.04 36.33,64.03 61.21,93.44 20.53,24.27 59.98,58.55 87.49,73.1l0 71.38c-26.5,2.21 -115.46,45.91 -142.84,59.39 -46.42,22.86 -92.83,43.44 -140.64,67.54 -201.93,101.8 -224.45,97.62 -275.21,343.39 -12.09,58.53 -25.02,113.55 -36.67,171.51 -20.11,100.08 -70.82,279.89 -70.82,381.23 0,69.95 65.41,141.43 119.13,172.32 85.21,49.01 121.81,41.81 249.65,41.81l434.63 -0.42c74.49,-0 44.24,48.01 100.69,48.01 43.76,0 50.32,-47.58 77.33,-47.58l208.18 0 0 297.4c0,65.43 65.42,130.86 130.86,130.86l499.64 0c43.72,0 68.32,-29.74 83.27,-29.74 14.95,0 39.56,29.74 83.27,29.74l499.64 0c41.98,0 85.53,-29.85 103.79,-56.81 32.72,-48.28 27.07,-65.28 27.07,-139.48 56.76,27.23 132.72,-8.32 164.22,-32.07 98.59,-74.35 99.6,-229.33 0,-304.64 -30.09,-22.76 -110.36,-57.91 -164.22,-32.07 0,-71.94 5.72,-89.01 -24.72,-135.88 -51.88,-79.9 -151.46,-60.41 -260.79,-60.41 -31.53,0 -35.69,37.04 -35.69,59.48 0,24.16 50.7,46.89 28.94,111.93 -28.95,86.53 -147.9,86.53 -176.84,0 -24.7,-73.85 28.94,-60.91 28.94,-135.72 0,-52.92 -116.07,-35.69 -190.34,-35.69 -43.72,0 -68.32,29.74 -83.27,29.74 -10.01,0 -37.73,-22.37 -61.71,-27.51 -26.94,-5.78 -58.82,-2.23 -86.99,-2.23 23.19,-48.33 6,-15.7 66.37,-64.49 43.15,-34.88 175.94,-173.21 235.23,-222.77 12.46,-10.42 21.38,-20.82 32.98,-32.45l133.94 -127.78c20.46,-21.77 39.95,-56.85 43.02,-93.78 104.12,-24.26 176.66,-73.69 222.11,-158.57 19.83,-37.04 81.24,-251.45 81.24,-305.38 0,-35.34 -8.91,-54.54 -21.6,-79.52 -18.47,-36.37 -26.96,-30.86 -45.2,-55.92 -17.34,-23.82 -5.85,-49.12 -22.56,-78.56 -12.4,-21.86 -34.44,-40.17 -47.45,-59.61l249.82 -124.91c123,-61.14 71.3,-86.32 -22.31,-179.93l-362.83 -362.83c-28.29,-28.36 -74.25,-86.78 -116.64,-0.65l-243.62 488c-53.65,109.23 -213.79,153.68 -133.67,232.59 25.32,24.93 145.38,129.92 147.83,161.88 0.77,10.09 -8.95,88.63 -10.55,96.89 -22.42,115.89 -14.99,39.18 -107.81,100.37 -19.8,13.05 -36.49,28.48 -57.12,44l-181.79 139.41 -105.15 -61.39c-63.29,-35.24 -113.26,-54.04 -168.55,-81.27 -39.7,-19.56 -145.85,-74.71 -178.36,-77.41l0 -71.38c65.42,-34.62 113.89,-100.76 148.7,-166.55 82.32,0 113.71,-2.37 161.63,-40.6 77.04,-61.47 93.25,-174.25 39.65,-255.85 -19.52,-29.72 -36.16,-41.47 -64.48,-60.43 0,-99.21 1.82,-167.19 -26.2,-241.46 -23.29,-61.75 -59.82,-130.18 -100.12,-173.49 -125.67,-135.06 -239.73,-179.85 -426.86,-179.85 -107.96,0 -217.55,51.35 -295.03,109.44 -68.27,51.19 -141.11,152.14 -171.33,239.09 -29.15,83.88 -27.33,137.57 -27.33,246.28z"/>
   <path class="fil1" d="M458.58 1860.11c24.03,-10.07 147.85,-4.56 184.09,-4.48 94.03,0.2 81.75,75.87 43.25,91.09 -20.63,8.16 -154.16,4.49 -186.55,4.44 -89.58,-0.15 -87.36,-71.51 -40.79,-91.05zm-238.08 495.37c37.09,18.8 106.76,-4.95 148.62,-12.14 42.93,-7.37 107.23,-14.57 146.23,-29.5 11.44,-23.81 11.4,-56.52 32.74,-70.76 36.18,-24.15 54.54,6.04 71.62,17.23 6.69,8.95 5.03,0.98 9.83,16.96 0.14,0.46 0.97,12.09 0.97,14.07l196.76 -50.61c14.98,-96.17 27.26,-194.21 40.55,-290.52 6.76,-49.01 13.46,-97.4 20.28,-146.61 9.59,-69.25 20.1,-88.5 -31.57,-115.96 -30.49,18.34 -50.53,40.39 -86.24,4.75l-181.42 -223.79c-45.07,9.28 -184.98,87.2 -215.74,111.92 -57.7,46.38 -67.09,151.38 -86.83,246.65 -18.58,89.68 -38.34,180.35 -57.32,269.02 -12.22,57.08 -74.7,238.22 -8.48,259.28z"/>
   <path class="fil2" d="M1174.04 1712.65c-11.93,-10.45 -19.94,-17.07 -32.01,-23.92l-44.39 40.97c6.23,106.33 35.56,250.91 50.85,358.31l38.25 265.75c5.74,42.5 -7.6,48.83 -22,72.78l120.01 0.31c0,-180.9 10.24,-232.76 195.83,-238.44 -35.45,-219.66 219.58,-338.99 357.38,-130.42 23.9,-11.75 68.34,-57.18 89.83,-76.77l298.97 -289.68c57.31,-55.95 52.16,-60.72 -29.06,-141.94 -29.21,-29.21 -54.06,-54.06 -83.27,-83.27 -23.79,-23.79 -57.49,-68.85 -96.18,-77.43 -24.06,101.24 -159.86,273.95 -231.26,344.55 -101.21,100.09 -203.32,169.79 -329.88,247.24 -38.11,23.32 -218.52,121.16 -259.72,125.08 -7.86,-68.65 -19.18,-136.85 -28.98,-205.39 -4.76,-33.27 -9.4,-66.15 -14.11,-98.8 -9.92,-68.84 -21.19,-83.27 19.75,-88.92z"/>
   <path class="fil1" d="M1437.2 1483.95c-18.81,0.97 -15.02,3.48 -30.74,23.48l-170.63 216.42c-29.5,-7.21 -1.15,-10.3 -32.84,-8.48l-28.95 -2.73c-40.94,5.65 -29.67,20.09 -19.75,88.92 4.71,32.65 9.35,65.52 14.11,98.8 9.81,68.54 21.13,136.75 28.98,205.39 41.2,-3.92 221.61,-101.75 259.72,-125.08 126.55,-77.45 228.66,-147.15 329.88,-247.24 71.4,-70.61 207.2,-243.31 231.26,-344.55 -40.15,6.81 -100.33,63.48 -141.26,95.44 -205.36,160.33 -167.8,151.73 -282.37,79.39 -33.79,-21.33 -119.85,-76.31 -157.41,-79.76z"/>
   <path class="fil3" d="M714.36 742.29c-3.76,152.23 -2.97,259.46 99.05,371.42 6.7,7.35 11.85,11.48 17.66,18.04l12.73 18.59c32.72,26.1 100.08,36.71 153.69,39.09 15.13,-14.84 34.46,-23 49.46,-35.37 49.45,-40.76 89.16,-87.43 115.05,-152.71 26.49,-66.77 41.76,-254.36 24.1,-327.06 -4.61,-20.03 -10.53,-17.27 -18.46,-39.4 -203.11,47.91 -147.64,40.35 -337.05,-0.18 -18.92,53.31 -63.21,76.88 -116.23,107.57z"/>
   <path class="fil4" d="M818.35 327.43c83.2,-33.52 58.84,79.58 -1.17,103.65 -38.56,15.47 -69.62,-4.68 -57.63,-45.83 10.17,-34.91 28.6,-45.66 58.8,-57.82zm61.75 -5.29c2.63,-25.82 11.92,-35.19 40.31,-29.16 -0.18,27.53 -10.64,32.84 -40.31,29.16zm-86.12 -79.24l-32.15 37.09c-113.38,112.91 -142.48,216.98 -143.22,386.15 80.09,-5.29 118.1,-44.66 144,-105.74 14.59,-34.41 37.32,-45.13 78.21,-27.29 255.99,111.68 338.97,-68.25 389.33,15.27 16.44,27.26 3.46,31.79 47.58,76.7 30.8,-39.47 -31.5,-209.13 -70.4,-267.89 -33.88,-51.19 -99.1,-119.5 -154.99,-148.42 -14.84,-7.68 -19.04,-7.23 -32.21,-17.91 -71.18,-2.27 -137.55,11.75 -202.2,36.71l-16.35 8.57c-1.18,0.83 -2.89,2.56 -3.83,3.28 -0.96,0.74 -2.66,2.18 -3.78,3.48z"/>
   <path class="fil1" d="M2045.9 2800.37c147.41,-12.95 296.93,-81.61 375.25,-159.02 45.51,-44.98 81.2,-78.17 116.04,-145.95 22.41,-43.59 68.26,-141.79 64.42,-191.11 -13.01,-27.41 -43.79,-20.72 -85.4,-19.97 21.88,136.38 -63.46,236.9 -184.57,237.29 -74.05,0.24 -115.16,-34.4 -148.18,-71.47 -34.49,-38.73 -47.45,-101.33 -36.39,-165.82 -53.48,-0.96 -97.24,-3.75 -100.97,52.99 -2.4,36.66 7.44,122.03 -6.25,148.72 -42.13,82.17 -132.62,-83.23 -211.71,26.34 -57.75,80.01 24.66,180.23 109.45,145.12 26.99,-11.17 74.29,-57.92 102.03,-4.12 11.79,22.86 6.64,114.5 6.26,146.99z"/>
   <path class="fil5" d="M1647.69 2047.95c-10.98,29.51 -31.2,56.6 -29.36,99.23 1.75,40.61 17.41,64.19 33.77,88.66l-45.36 -0.16c-10.98,69.97 -97.2,47.76 -168.14,48.57 -23.34,73.71 -11.09,384.84 -11.01,487.66 52.42,-11.45 123.5,-45.59 163.68,-68.4 26.44,-15.01 45.89,-28.51 67.43,-45.44 20.64,-16.22 52.28,-28.57 52.71,-62.5 8.02,-62.79 5.66,-99.38 40.85,-141.47 27.84,-33.31 55.54,-55.3 108.34,-70.01 25.41,-20.17 37.73,-61.68 45.28,-100.01 -79.57,-0.01 -235.69,22.61 -163.21,-89.55 48.69,-75.35 -14.54,-159.97 -94.99,-146.56z"/>
   <path class="fil2" d="M2045.9 2800.37c6.22,77.59 98.66,54.72 172.74,54.72 75.34,0 150.69,0 226.03,0 70.73,0 167.31,21.91 172.42,-53.26 3.89,-57.19 -25.7,-180.21 52.89,-172.67 40.32,3.87 89.01,78.99 159.93,4.45 49.27,-51.79 19.37,-123.44 -27.53,-148.35 -84.37,-44.81 -114.15,59.9 -168.53,14.17 -27.23,-22.9 -14.73,-105.53 -16.45,-156.33 -0.86,-25.38 0.33,-27.29 -15.78,-38.8 3.84,49.31 -42.01,147.51 -64.42,191.11 -34.84,67.78 -70.53,100.97 -116.04,145.95 -78.33,77.41 -227.84,146.07 -375.25,159.02z"/>
   <path class="fil1" d="M2254.39 908.36c37.72,-7.75 134.06,-125.01 162.57,-168.81 47.46,-72.9 78.99,-125.31 109.4,-223.2 -5.23,-14 -3.34,-9.32 -16.22,-22.5l-71.65 -71.31c-25.21,-25.39 -67.84,-74.12 -94.95,-90.88 -33.16,34.46 -185.4,367.21 -224.62,440.2 10.73,19.88 117.28,126.39 135.46,136.49z"/>
   <path class="fil6" d="M1427.58 2771.91c-0.02,37.35 1.19,52.09 11.08,82.94 103,1.55 206.97,0.24 310.08,0.24 181.64,0 203.67,24.33 201.95,-100.93 -199.88,33.97 -229.17,-143.96 -239.28,-158.6 -0.43,33.93 -32.07,46.28 -52.71,62.5 -21.54,16.93 -40.99,30.43 -67.43,45.44 -40.18,22.82 -111.26,56.96 -163.68,68.4z"/>
   <path class="fil7" d="M997.49 1189.43c129.58,-4.53 199.99,-53.6 260.34,-121.86 70.72,-79.97 76.23,-180.52 74.12,-311.82 -90.71,-20.93 -96.82,-49.4 -145.85,-81.45 17.66,72.69 2.38,260.28 -24.1,327.06 -25.89,65.28 -65.6,111.94 -115.05,152.71 -15,12.37 -34.33,20.53 -49.46,35.37z"/>
   <path class="fil8" d="M1277.73 625.08c3.82,3.44 6.17,6.01 13.45,11.26 9.22,6.65 2.37,2.24 14.58,9.17 42.47,24.12 70.8,21.49 121.24,20.14 4.72,-159.95 -32.17,-238.59 -106.49,-332.7 -63,-79.78 -187.3,-135.67 -300.38,-142.08 13.17,10.68 17.36,10.23 32.21,17.91 55.89,28.91 121.11,97.23 154.99,148.42 38.9,58.77 101.2,228.42 70.4,267.89z"/>
   <path class="fil2" d="M2254.39 908.36c4.79,7.57 7.06,11.73 12.31,18.94 42.75,-5.32 378.46,-186.98 451.11,-220.02 -8.81,-17.45 -167.45,-178.53 -191.45,-190.94 -30.41,97.89 -61.95,150.3 -109.4,223.2 -28.52,43.8 -124.85,161.06 -162.57,168.81z"/>
   <path class="fil3" d="M2215.36 1209.78c-5.95,31.5 -16.68,56.6 -28.55,84.73l-27.07 56.58c-12.01,15.38 -1.68,4.96 -14.02,12.93l83.88 81.45c136.68,-24.41 315.79,-166.99 318.34,-310.91l-13.19 -12.62c-38.45,18.82 -99.28,100.43 -138.47,132.36 -90.32,73.59 -169.58,-36.48 -180.91,-44.52z"/>
   <path class="fil7" d="M2229.6 1445.45c23.88,38.29 71.58,68.16 99.27,107.1 102.76,-10.94 160.17,-68.47 186.06,-155.77 20.15,-67.92 74.81,-209.79 33.01,-262.24 -2.55,143.92 -181.66,286.5 -318.34,310.91z"/>
   <path class="fil2" d="M619.69 2260.3c4.7,50.93 -22.66,115.9 -33.46,166.52l247.61 -0.04c-41.29,-69.38 -18.76,-60.64 -6.58,-186.06l-196.76 50.61c-0,-1.98 -0.83,-13.61 -0.97,-14.07 -4.81,-15.98 -3.15,-8.01 -9.83,-16.96z"/>
   <path class="fil9" d="M962.48 1463.24c54.93,-25.87 103.21,-85.35 132.66,-136.09 9.96,-17.15 24.72,-39.98 16.24,-55.41 -126.33,10.9 -127.74,20.59 -254.34,-10.28 -2.86,89.78 -9.35,91.28 26.95,126.71 23.99,23.41 52.37,60.26 78.49,75.08z"/>
   <path class="fil8" d="M937.44 2317.19c-2.68,10.94 -3.05,19.61 -5,31.37 -1.39,8.4 -1.72,11.75 -4.41,19.39 -3.32,9.45 -2.27,6.05 -6.28,11.54l75.69 74.15 91.05 -86.26c1.97,-40.14 -35.94,-331.49 -50.14,-348.38 -0.75,88.3 -18.87,156.33 -59.91,238.11 -12.82,25.55 -21.21,46.17 -41.01,60.08z"/>
   <path class="fil3" d="M2253.55 1064.89c-1.48,20.05 -0.17,21.34 -10.78,34.8 12.12,17.9 67.36,75.72 88.88,82.5 21.53,-11.96 146.99,-137.71 158.51,-159.12 -7.99,-21.86 -40.57,-48.06 -57.39,-65.04 -49.84,12.91 -150.38,69.31 -179.22,106.86z"/>
   <path class="fil10" d="M1438.66 2854.84c-9.88,-30.84 -11.1,-45.59 -11.08,-82.94 -0.07,-102.81 -12.32,-413.95 11.01,-487.66 -68.72,2.09 -58.73,51.93 -58.64,112.83l0 344.99c-0.08,61.07 -10.33,110.89 58.71,112.77z"/>
   <path class="fil0" d="M458.58 1860.11c-46.57,19.53 -48.79,90.9 40.79,91.05 32.4,0.05 165.93,3.72 186.55,-4.44 38.5,-15.22 50.78,-90.89 -43.25,-91.09 -36.24,-0.08 -160.07,-5.59 -184.09,4.48z"/>
   <path class="fil4" d="M937.44 2317.19c19.79,-13.9 28.19,-34.53 41.01,-60.08 41.04,-81.78 59.16,-149.82 59.91,-238.11 3.16,-35.46 -6.41,-73 -11.48,-108.5 -2.5,-17.48 -5.3,-34.01 -7.54,-52.05l-4.36 -40.28c-3.25,-11.52 -3.38,-9.73 -6.06,-13.48l-71.47 512.51z"/>
   <path class="fil2" d="M220.49 2355.47c56.48,86.14 174.23,72.65 267.12,71.06l27.72 -112.7c-38.99,14.92 -103.3,22.13 -146.23,29.5 -41.86,7.19 -111.53,30.94 -148.62,12.14z"/>
   <path class="fil10" d="M618.61 666.15c0.75,-169.17 29.84,-273.24 143.22,-386.15l32.15 -37.09c-74.51,37.97 -121.93,89 -162.86,156.35 -50.46,83.04 -60.32,155.42 -60.32,266.96l47.8 -0.07z"/>
   <path class="fil10" d="M843.8 1150.33l-12.73 -18.59c-5.81,-6.56 -10.96,-10.69 -17.66,-18.04 -102.02,-111.97 -102.81,-219.19 -99.05,-371.42l-47.75 14.25c-2.19,93.17 -5.6,173.41 34.24,249.78 30.02,57.54 82.46,117.28 142.95,144.01z"/>
   <path class="fil4" d="M1140.52 1546.87c49.74,-8.65 89.33,-32.3 125.16,-59.82 13.78,-6.33 44.94,-46.6 53.79,-64.34l-76.29 -33.46 -128.11 131.47 25.45 26.14z"/>
   <path class="fil7" d="M1417.8 951.71c58.32,-2.93 101.08,-31.84 104.22,-89.68 3.22,-59.16 -39.46,-95.85 -94.67,-100.7 0,70.23 0.93,120.73 -9.55,190.37z"/>
   <path class="fil11" d="M2783.71 475.85c0,60.78 76.6,47.58 130.86,47.58 47.9,0 47.9,-95.17 0,-95.17 -41.25,0 -98.79,-7.34 -117.56,13.29 -5.63,6.19 -13.29,24.92 -13.29,34.29z"/>
   <path class="fil11" d="M2521.99 142.75c0,55.64 -12.03,118.96 47.58,118.96 59.62,0 47.58,-63.33 47.58,-118.96 0,-63.85 -95.17,-63.85 -95.17,0z"/>
   <path class="fil12" d="M921.75 2379.48c4.01,-5.49 2.96,-2.09 6.28,-11.54 2.69,-7.64 3.02,-10.99 4.41,-19.39 1.95,-11.77 2.33,-20.44 5,-31.37l71.47 -512.51 -25.84 3.44 -69.16 502.85c-6.02,39.67 -13.42,45.13 7.84,68.52z"/>
   <path class="fil4" d="M695.06 1443.3c8.04,16.84 69.51,92.45 81.66,104.21 35.68,-5.64 69.53,-18 98.73,-31.33 -14.21,-23.37 -85.23,-94.22 -108.79,-108.21l-71.6 35.33z"/>
   <path class="fil13" d="M2682.59 309.3c0,73.52 90.36,72.05 128.57,-8.8 14.11,-29.85 -6.74,-68.53 -45.3,-68.53 -28.69,0 -83.27,51.09 -83.27,77.32z"/>
   <path class="fil10" d="M2145.72 1364.01c12.34,-7.97 2.02,2.45 14.02,-12.93l27.07 -56.58c11.87,-28.13 22.6,-53.22 28.55,-84.73 -24.48,-34.11 -68.71,-85.78 -78.77,-12.62 -8.07,58.68 -6.52,68.19 -28.5,128.37 10.69,14.73 23.02,26.05 37.62,38.49z"/>
   <path class="fil14" d="M1111.38 1271.74c8.47,15.43 -6.29,38.27 -16.24,55.41 -29.45,50.74 -77.73,110.21 -132.66,136.09 16.05,23.19 59.31,19.77 87.14,-9.14 17.14,-17.8 30,-30.51 47.38,-47.8 54.41,-54.13 48.52,-38.07 44.45,-144.72l-30.07 10.16z"/>
   <path class="fil5" d="M2087.61 1012.24c13.73,-37.5 15.29,-64.96 23.97,-104.9 -7.77,-19.79 -31.32,-34.2 -44.88,-52.85 -24.52,11.38 -57.27,48.53 -72.18,66.91l93.09 90.84z"/>
   <path class="fil15" d="M818.35 327.43c-30.2,12.17 -48.63,22.92 -58.8,57.82 -11.99,41.15 19.07,61.29 57.63,45.83 60.01,-24.07 84.36,-137.17 1.17,-103.65z"/>
   <path class="fil6" d="M2087.61 1012.24c9.47,16.67 24.39,32.25 44.04,40.76 19.84,-21.29 45.4,-39 59.88,-65.62 -12.37,-24.56 -55.32,-67.3 -79.95,-80.04 -8.68,39.95 -10.24,67.4 -23.97,104.9z"/>
   <path class="fil2" d="M1202.99 1715.37c31.68,-1.82 3.33,1.27 32.84,8.48l170.63 -216.42c15.72,-20 11.94,-22.5 30.74,-23.48 -10.06,-13.15 -5.39,-8.35 -21.56,-15.5 -22.22,10.22 -86.09,97.91 -105.03,121.76l-76.74 95.77c-11.48,12.62 -20.06,16.67 -30.88,29.39z"/>
   <path class="fil10" d="M1606.74 2235.68l45.36 0.16c-16.36,-24.47 -32.02,-48.05 -33.77,-88.66 -1.84,-42.63 18.38,-69.72 29.36,-99.23 -39.76,11.35 -69.12,36.33 -75.77,76.97 -9.97,60.89 27.54,66.71 34.83,110.75z"/>
   <path class="fil16" d="M546.81 945.79l33.46 6.84c-9.88,-68.79 -9.13,-122.22 -9.22,-191.27l-24.81 5.47c7.59,13.51 7.75,-3.62 -3,19.43 -51.92,111.29 15.34,136.81 3.57,159.53z"/>
   <path class="fil10" d="M546.81 945.79c11.77,-22.73 -55.49,-48.25 -3.57,-159.53 10.75,-23.05 10.59,-5.91 3,-19.43 -89.41,16.21 -90.42,164.57 0.57,178.96z"/>
   <path class="fil6" d="M1860.6 2384.08c37.41,-6.73 53.6,-5 89.96,0.75 1.16,-52.77 6.17,-89.14 -44.68,-100.75 -7.55,38.33 -19.87,79.83 -45.28,100.01z"/>
   <path class="fil4" d="M941.38 1630.55l13.76 19.02c48.16,0.24 74.42,-29.25 104.33,-44.57 -15.27,-24.99 -22.42,-35.44 -63.76,-34.36 -13.36,24.36 -34.69,39.02 -54.33,59.91z"/>
   <path class="fil8" d="M1140.52 1546.87l43.18 45.83c23.04,-22.09 68.66,-77.79 81.98,-105.65 -35.82,27.52 -75.42,51.17 -125.16,59.82z"/>
   <path class="fil17" d="M955.13 1649.57l21.33 20.9c10.55,10.14 10.97,11.51 22.81,19.4l57.1 -50.48c12.97,-13.27 7.97,-5.9 15.88,-21.51l-12.8 -12.88c-29.91,15.32 -56.17,44.81 -104.33,44.57z"/>
   <path class="fil8" d="M776.72 1547.51c16.73,21 19.14,26.66 37.66,44.71l66.04 -63.48c1.29,-29.17 2.33,-2.15 -4.97,-12.56 -29.2,13.33 -63.05,25.69 -98.73,31.33z"/>
   <path class="fil12" d="M695.06 1443.3l71.6 -35.33 -10.61 -16.4c-25.94,5.58 -61.68,19.28 -76.92,37.02l15.93 14.71z"/>
   <path class="fil8" d="M941.38 1630.55c19.64,-20.89 40.97,-35.54 54.33,-59.91l-27.6 -0.41 -43.21 45.64c12.26,20.13 6.73,9.01 16.49,14.68z"/>
   <path class="fil18" d="M880.11 322.15c29.68,3.69 40.14,-1.63 40.31,-29.16 -28.39,-6.03 -37.69,3.34 -40.31,29.16z"/>
   <path class="fil19" d="M2242.77 1099.69c10.61,-13.45 9.29,-14.75 10.78,-34.8l-23.82 22.43 13.04 12.36z"/>
  </g>
 </g>
</svg>
