<?xml version="1.0" encoding="UTF-8"?>
<!DOCTYPE svg PUBLIC "-//W3C//DTD SVG 1.1//EN" "http://www.w3.org/Graphics/SVG/1.1/DTD/svg11.dtd">
<!-- Creator: CorelDRAW 2020 (64-Bit) -->
<svg xmlns="http://www.w3.org/2000/svg" xml:space="preserve" width="194.294mm" height="194.294mm" version="1.1" style="shape-rendering:geometricPrecision; text-rendering:geometricPrecision; image-rendering:optimizeQuality; fill-rule:evenodd; clip-rule:evenodd"
viewBox="0 0 271.11 271.11"
 xmlns:xlink="http://www.w3.org/1999/xlink"
 xmlns:xodm="http://www.corel.com/coreldraw/odm/2003">
 <defs>
  <style type="text/css">
   <![CDATA[
    .fil0 {fill:black}
    .fil13 {fill:#363838}
    .fil14 {fill:#4E4F51}
    .fil10 {fill:#575859}
    .fil16 {fill:#6D6D70}
    .fil15 {fill:#855B34}
    .fil11 {fill:#8E6B51}
    .fil6 {fill:#B17946}
    .fil3 {fill:#CF9E76}
    .fil5 {fill:#D19E6B}
    .fil8 {fill:#DF4B4B}
    .fil12 {fill:#E5E8EC}
    .fil7 {fill:#E95A59}
    .fil4 {fill:#F0D0B4}
    .fil2 {fill:#FAD670}
    .fil9 {fill:#FEE9A6}
    .fil1 {fill:white}
   ]]>
  </style>
 </defs>
 <g id="Capa_x0020_1">
  <metadata id="CorelCorpID_0Corel-Layer"/>
  <g id="_2032362550368">
   <path class="fil0" d="M40.77 244.88c-7.73,0 -8.01,-8.75 0,-8.75l14.3 0c3.58,0 6.03,0.79 6.1,4.3 0.13,6.33 -11.41,4.45 -20.4,4.45zm103.26 -8.75c-14.91,0 -12.85,2.92 -12.85,-26.44 0,-29.31 -2.1,-26.02 13.38,-26.02l117.82 0 -0.06 52.46 -118.29 0zm-106.28 -16.98c2.12,-1.1 13.47,-0.52 16.81,-0.52 3.44,-0 5.33,0.1 6.31,2.76 3.03,8.25 -12.09,5.98 -19.05,6 -8.54,0.02 -8.36,-6.01 -4.07,-8.24zm-0.03 -17.49c2.16,-1.12 13.48,-0.54 16.84,-0.54 9.65,0.01 6.67,6.96 4.35,8.17 -2.22,1.15 -13.77,0.62 -17.09,0.62 -8.54,0.01 -8.33,-6.06 -4.1,-8.25zm28.95 -5.42c1.68,-1.18 1.35,-2.02 2.7,-3.77l9.23 -0.06 0.12 64.92c-0.23,5.16 -3.54,5.06 -8.29,5.03 -16.39,-0.11 -17.96,2.13 -17.96,-8.68 8.23,-0.29 11.6,-0.76 15.24,-5.95 3.76,-5.36 2.27,-11.53 -0.92,-15.81 1.03,-2.62 3.13,-4.91 3.14,-9 0,-4.26 -2.08,-6.32 -3.26,-9.19 4.94,-3.45 3.43,-13.44 -0.01,-17.5zm-13.66 -4.03c-3.18,0.34 -14.19,0.85 -16.28,-0.73 -1.63,-1.23 -4.54,-7.81 5.29,-7.8 2.31,5.22 6,5.69 10.98,8.53zm56.32 4.56c-18.83,-0.04 -21.31,-11.69 -24.6,-13.1 -7.59,0 -15.18,-0.01 -22.77,0 -3.79,0.01 -7.26,0.42 -9.99,-1.58 -1.96,-1.43 -3.92,-3.62 -3.65,-7.18 14.96,0 29.93,0 44.89,-0 8.11,-0 12.16,1.42 17.09,5.5 2.18,1.81 11.09,8.45 12.14,10.21l-0.03 39.34c-9.7,4.98 -12.49,16.78 -34.95,14.8l0 -45.68c3.13,1.33 5.44,3.38 9.54,4.7 3.83,1.23 7.96,1.72 12.32,1.75l0 -8.75zm-56.84 -38.59c0.81,-1.09 -0.07,-0.61 1.51,-0.93l24.81 0.22 -0.07 8.64 -23.7 0.25c-2.29,-0.07 -1.91,0.4 -2.58,-0.87l0.02 -7.3zm-4.22 -18.25l34.8 0.04 -0.07 8.72 -34.88 0 0.15 -8.77zm170.37 -10.95c4.94,1.01 7.65,2.19 13.3,2.17 5.48,-0.02 8.21,-1.28 12.95,-2.11l0 25.41c-3.14,-0.97 -11.39,-6.15 -13.35,-5.95 -1.57,0.16 -10.13,5.21 -12.89,6.07l-0.01 -25.59zm-111.23 -67.22c1.85,-1.01 9.26,-0.91 11.67,-0.35 4.06,0.95 3.39,4.66 3.37,9.01l-0 59.84c0.01,3.68 0.59,7.96 -2.54,9.24 -1.63,0.67 -9.89,0.71 -11.76,0.19 -3.72,-1.05 -3.22,-5 -3.21,-8.9l0 -59.84c-0.01,-3.96 -0.68,-7.46 2.46,-9.19zm-98.67 5.48c0,-4.87 1.24,-6.04 6.09,-6.04 6.66,0 11.41,-1.02 11.41,6.04l0 66.72c0,4.75 -1.27,5.97 -6.12,5.97 -7.8,0 -11.39,1.02 -11.39,-5.97l0 -66.72zm86.72 2.72c1.1,0.79 0.61,-0.07 0.94,1.49 0,0.01 -0.01,1.96 -0.01,2.13 -0.21,14.13 0.73,49.32 -0.16,57.58 -7.6,1.07 -22.7,0.19 -31.09,0.19l-29.09 -0.05c-1.28,-0.27 -0.46,0.33 -1.08,-0.63l0.08 -60.71 60.4 0zm130.79 -8.17c18.43,-3.64 32.69,9.68 35.54,24.24 3.66,18.72 -9.75,33.05 -24.47,35.86 -18.27,3.49 -32.9,-9.73 -35.64,-24.46 -3.49,-18.73 9.7,-32.7 24.58,-35.64zm-128.98 -0.87c-0.37,0.21 -0.45,0.39 -1.4,0.59 -1.01,0.21 -15.59,0.21 -17.21,-0.39 -0.42,-3.02 -0.62,-15.03 0.14,-17.22 2.03,-1.34 32.65,-0.58 34.59,-0.58l0 -26.38c0,-1.41 0.01,-2.83 -0.01,-4.24l0.15 -3.09c0.02,-0.11 0.14,-0.19 0.16,-0.41 0.02,-0.22 0.12,-0.26 0.19,-0.39l113.51 -0.06 0 43.14c-1.04,1.52 -0.75,0.91 -3.08,1.35 -23.78,4.49 -38.87,30.06 -28.56,54.42 2.75,6.49 9.17,14.3 14.14,16.51l0.15 44.6 17.34 -8.4 0 14.55 -81.77 0c-20.95,0 -15.41,1.88 -21.18,5.53 -3.33,-2.88 -11.06,-8.97 -14.92,-10.93 -7.87,-3.99 -12.72,-2.93 -22.04,-3.42l-0.02 -9.93c5.92,-3.43 3.91,-8.28 4.45,-16.17l5 -0.07c3.47,6.22 6.09,8.72 14.28,8.76 21.29,0.11 20,-7.29 20,-25.32l0 -45.54c0,-6.57 1.15,-15.48 -2.59,-20.04 -4.56,-5.56 -8.89,-5.39 -17.4,-5.34 -4.08,0.02 -6.29,0.33 -9.2,2.4 -1.59,1.13 -4.03,3.3 -4.72,6.09zm-12.08 -25.99c1.23,-1.96 17.83,-18.55 19.72,-19.65l0.03 2.18 0.03 17.51 -17.61 0.01 -2.18 -0.05zm-15.3 3.18l0 22.77 -36.01 0c-2.34,-10.06 -14.6,-8.47 -21.71,-8.47 -6.06,0 -12.18,6.06 -12.18,12.18l0 72.01c0,3.57 2.13,6.75 4.08,8.63 4.68,4.52 10.5,3.55 17.63,3.55 5.93,0 11.07,-3.71 12.18,-8.47l5.3 0 0 8.47c0,5.23 4.24,6.45 4.24,8.47l0 9c0,1.8 -4.12,3.46 -4.24,8.47 -7.68,0 -18.37,9.31 -10.06,21.71 -0.47,1.76 -3.18,4.78 -3.18,9 0,4.73 2.38,6.02 3.18,9 -4.24,6.33 -4.13,10.78 0,16.94 -0.67,2.49 -3.18,5.07 -3.18,9 0,6.48 5.73,13.24 12.18,13.24l5.3 0c0,5.67 0.07,8.39 3.15,12.73 1.52,2.13 5.41,4.74 9.03,4.74l20.12 0c5.59,0 11.65,-6.06 11.65,-11.65l0 -5.82c16.65,0 18.57,0.43 31.54,-9.76 2.12,-1.66 3.78,-3.33 6.05,-4.54l1.89 2.34c1.12,1.01 1.57,1.28 2.84,1.93 2,1.03 4.34,1.56 7.45,1.56l133.97 0 0 -70.43 -34.95 0 0 -14.3 17.48 8.47 -0 -44.48c8.35,-4.42 17.47,-17.81 17.47,-30.71 0,-17.36 -7.21,-29.18 -20.95,-36.76 -4.9,-2.7 -8.12,-3.17 -14,-4.54l0 -52.42 -128.14 0c-2.03,0 -26.52,25.73 -28.99,28.2 -1.48,1.48 -9.13,8.42 -9.13,9.93z"/>
   <path class="fil1" d="M131.19 158.33c0.98,-1.63 -0.54,-0.34 2.06,-1.25 5.95,-2.09 6.7,-4.46 6.68,-12.54 -0.04,-16.9 19.09,-16.74 22.47,-5.1 1.25,4.29 1.52,15.3 3.88,17.73 3.71,-0.15 3.32,-5.29 7.21,-10.17 1.46,-1.83 1.13,-0.3 1.44,-2.92 0.12,-1.01 0,-3.16 -0,-4.28 -0.02,-2.8 -0,-5.6 -0,-8.56l8.74 0.06 0 9.1c23.52,-2.45 21.23,24.7 5.31,25.71 -5.86,0.37 -10.59,-2.9 -11.92,-6.4l-2.09 2.58c-3.64,5.24 -13.31,5.42 -17.08,-1.41 -4.78,-8.66 0,-23.54 -8.71,-20.24 -1.91,7.08 1.13,11.17 -3.69,18.08 -2.84,4.06 -7.39,7.08 -14.24,7.43l-0.05 -7.82zm8.73 -53.5l43.87 0.08 -0.16 8.9 -43.79 -0.13 0.07 -8.86zm-0.02 -17.5l43.9 0.09 -0.19 8.89 -43.76 -0.12 0.05 -8.86zm0.09 -17.35l43.68 0.07 -0.16 8.67 -43.53 -0.09 0.02 -8.65zm-0.01 -17.49l43.7 0.07 -0.18 8.67 -43.52 -0.08 0 -8.65zm-17.26 -35.05l95.93 0.11 -0.02 25.61c-0.93,1.07 0.44,0.27 -1.04,0.7l-10.54 0.06c-14.83,0 -76.01,0.61 -84.57,-0.11 -0.61,-2.91 -0.27,-15.86 -0.28,-20.5 -0,-1.05 -0.05,-2.18 -0.03,-3.21 0.01,-0.39 0.01,-1.17 0.07,-1.53 0.15,-0.92 0.27,-0.78 0.48,-1.12zm-43.91 26.48l0.21 17.12 18.26 -0.1c0.69,-2.78 3.13,-4.96 4.72,-6.09 2.91,-2.07 5.12,-2.37 9.2,-2.4 8.51,-0.05 12.84,-0.21 17.4,5.34 3.75,4.56 2.59,13.48 2.59,20.04l0 45.54c0,18.03 1.29,25.43 -20,25.32 -8.18,-0.04 -10.81,-2.54 -14.28,-8.76l-5 0.07c-0.54,7.89 1.46,12.74 -4.45,16.17l0.02 9.93c9.32,0.49 14.17,-0.57 22.04,3.42 3.86,1.95 11.59,8.04 14.92,10.93 5.77,-3.64 0.23,-5.53 21.18,-5.53l81.77 0 -0 -14.55 -17.34 8.4 -0.15 -44.6c-4.97,-2.21 -11.39,-10.03 -14.14,-16.51 -10.31,-24.36 4.78,-49.93 28.56,-54.42 2.33,-0.44 2.03,0.17 3.08,-1.35l0 -43.14 -113.51 0.06 -0.23 35.08 -34.86 0.02z"/>
   <path class="fil2" d="M262.32 236.13l0.06 -52.46 -117.82 0c-15.48,0 -13.38,-3.29 -13.38,26.02 0,29.37 -2.06,26.44 12.85,26.44l118.29 0z"/>
   <path class="fil3" d="M34.97 130.68l60.87 0.2c0,-10.09 0,-20.18 0,-30.27 0,-5.79 0.72,-26.56 -0.38,-30.64l-60.4 -0 -0.08 60.71z"/>
   <path class="fil4" d="M84.72 183.67c3.29,1.4 5.76,13.06 24.6,13.1l0 8.75c-4.36,-0.03 -8.49,-0.52 -12.32,-1.75 -4.1,-1.32 -6.42,-3.37 -9.54,-4.7l0 45.68c22.47,1.99 25.25,-9.81 34.95,-14.8l0.03 -39.34c-1.05,-1.77 -9.96,-8.41 -12.14,-10.21 -4.93,-4.08 -8.98,-5.51 -17.09,-5.5 -14.96,0.01 -29.93,0 -44.89,0 -0.27,3.56 1.69,5.75 3.65,7.18 2.73,2 6.2,1.58 9.99,1.58 7.59,-0.01 15.18,-0 22.77,-0z"/>
   <path class="fil0" d="M131.18 26.23l78.51 0 0.21 8.75 -79.11 0 0.39 -8.75zm87.44 16.92l0.02 -25.61 -95.93 -0.11 -0.08 25.93 95.99 -0.21z"/>
   <path class="fil2" d="M228.82 70.24c12.71,-1.94 22.97,7.67 24.57,18.49 1.9,12.86 -7.53,22.91 -18.16,24.65 -28.24,4.62 -35.84,-38.64 -6.4,-43.14zm-2.57 -8.44c-14.88,2.94 -28.06,16.91 -24.58,35.64 2.74,14.73 17.38,27.95 35.64,24.46 14.72,-2.81 28.13,-17.14 24.47,-35.86 -2.85,-14.56 -17.1,-27.89 -35.54,-24.24z"/>
   <path class="fil5" d="M107.4 61.77c-3.15,1.72 -2.47,5.23 -2.46,9.19l-0 59.84c-0.01,3.9 -0.51,7.85 3.21,8.9 1.87,0.53 10.12,0.48 11.76,-0.19 3.12,-1.28 2.54,-5.56 2.54,-9.24l0 -59.84c0.02,-4.35 0.69,-8.07 -3.37,-9.01 -2.41,-0.56 -9.82,-0.66 -11.67,0.35z"/>
   <path class="fil5" d="M8.74 67.25l0 66.72c0,6.99 3.58,5.97 11.39,5.97 4.85,0 6.12,-1.23 6.12,-5.97l0 -66.72c0,-7.07 -4.75,-6.04 -11.41,-6.04 -4.85,0 -6.09,1.17 -6.09,6.04z"/>
   <path class="fil0" d="M183.94 149.55c6.86,-2.45 10.7,2.33 7.44,6.34 -2.94,3.61 -9.13,1.14 -7.44,-6.34zm-52.75 8.78l0.05 7.82c6.85,-0.35 11.41,-3.37 14.24,-7.43 4.82,-6.91 1.78,-10.99 3.69,-18.08 8.72,-3.3 3.93,11.58 8.71,20.24 3.77,6.83 13.44,6.65 17.08,1.41l2.09 -2.58c1.32,3.5 6.06,6.77 11.92,6.4 15.91,-1.01 18.21,-28.16 -5.31,-25.71l0 -9.1 -8.74 -0.06c0,2.97 -0.01,5.77 0,8.56 0.01,1.12 0.12,3.27 0,4.28 -0.31,2.62 0.02,1.09 -1.44,2.92 -3.89,4.88 -3.5,10.01 -7.21,10.17 -2.35,-2.42 -2.63,-13.44 -3.88,-17.73 -3.38,-11.64 -22.51,-11.8 -22.47,5.1 0.02,8.08 -0.72,10.44 -6.68,12.54 -2.61,0.92 -1.09,-0.38 -2.06,1.25z"/>
   <path class="fil0" d="M228.56 79.13c7.8,-2.06 14.44,3.46 15.89,9.47 1.93,8 -3.36,14.44 -9.61,15.95 -16.62,4.02 -23.12,-20.98 -6.28,-25.42zm0.26 -8.9c-29.44,4.5 -21.84,47.76 6.4,43.14 10.64,-1.74 20.06,-11.79 18.16,-24.65 -1.6,-10.82 -11.86,-20.43 -24.57,-18.49z"/>
   <path class="fil6" d="M67.71 247.74c-3.64,5.19 -7.01,5.65 -15.24,5.95 0,10.81 1.56,8.57 17.96,8.68 4.76,0.03 8.07,0.13 8.29,-5.03l-0.12 -64.92 -9.23 0.06c-1.36,1.75 -1.02,2.59 -2.7,3.77 3.44,4.06 4.95,14.05 0.01,17.5 1.18,2.87 3.26,4.93 3.26,9.19 -0,4.09 -2.11,6.38 -3.14,9 3.19,4.28 4.68,10.46 0.92,15.81z"/>
   <polygon class="fil7" points="130.79,34.98 209.9,34.98 209.69,26.23 131.18,26.23 "/>
   <path class="fil8" d="M218.64 154.57c2.76,-0.86 11.32,-5.91 12.89,-6.07 1.96,-0.2 10.21,4.98 13.35,5.95l0 -25.41c-4.73,0.83 -7.47,2.09 -12.95,2.11 -5.65,0.02 -8.36,-1.16 -13.3,-2.17l0.01 25.59z"/>
   <path class="fil9" d="M228.56 79.13c-16.83,4.44 -10.33,29.44 6.28,25.42 6.24,-1.51 11.54,-7.95 9.61,-15.95 -1.45,-6.01 -8.09,-11.53 -15.89,-9.47z"/>
   <polygon class="fil0" points="139.97,61.13 183.48,61.22 183.66,52.55 139.97,52.48 "/>
   <polygon class="fil0" points="139.96,78.62 183.5,78.71 183.66,70.04 139.98,69.97 "/>
   <polygon class="fil0" points="140.32,95.66 183.39,95.66 183.21,87.72 140.36,87.72 "/>
   <polygon class="fil0" points="140.36,113.21 183.21,113.21 183.39,105.28 140.85,105.28 "/>
   <polygon class="fil5" points="48.11,148.69 82.99,148.69 83.06,139.97 48.26,139.93 "/>
   <path class="fil4" d="M37.75 219.16c-4.29,2.23 -4.47,8.26 4.07,8.24 6.96,-0.02 22.08,2.25 19.05,-6 -0.98,-2.66 -2.87,-2.76 -6.31,-2.76 -3.34,0 -14.69,-0.58 -16.81,0.52z"/>
   <path class="fil4" d="M37.72 201.66c-4.22,2.19 -4.44,8.26 4.1,8.25 3.32,-0 14.87,0.53 17.09,-0.62 2.33,-1.21 5.3,-8.16 -4.35,-8.17 -3.36,-0 -14.68,-0.59 -16.84,0.54z"/>
   <path class="fil4" d="M40.77 244.88c8.99,0 20.53,1.87 20.4,-4.45 -0.07,-3.51 -2.53,-4.3 -6.1,-4.3l-14.3 0c-8.01,0 -7.73,8.75 0,8.75z"/>
   <path class="fil6" d="M52.46 165.48c3.96,1.02 20.43,0.37 25.69,0.37l0 -8.04c-5.29,0 -21.66,-0.65 -25.67,0.36l-0.02 7.3z"/>
   <path class="fil2" d="M85.19 34.94l2.18 0.05 17.61 -0.01 -0.03 -17.51 -0.03 -2.18c-1.89,1.1 -18.5,17.69 -19.72,19.65z"/>
   <path class="fil4" d="M53 192.21c-4.98,-2.84 -8.67,-3.31 -10.98,-8.53 -9.83,-0.01 -6.93,6.57 -5.29,7.8 2.09,1.58 13.1,1.07 16.28,0.73z"/>
   <path class="fil10" d="M218.62 43.15l-95.99 0.21 0.08 -25.93c-0.2,0.34 -0.33,0.2 -0.48,1.12 -0.06,0.37 -0.07,1.14 -0.07,1.53 -0.02,1.03 0.03,2.16 0.03,3.21 0.01,4.64 -0.33,17.59 0.28,20.5 8.56,0.72 69.75,0.11 84.57,0.11l10.54 -0.06c1.48,-0.43 0.11,0.37 1.04,-0.7z"/>
   <path class="fil11" d="M34.97 130.68c0.62,0.96 -0.2,0.35 1.08,0.63l29.09 0.05c8.4,0 23.49,0.88 31.09,-0.19 0.88,-8.26 -0.05,-43.45 0.16,-57.58 0,-0.17 0.01,-2.12 0.01,-2.13 -0.33,-1.57 0.15,-0.71 -0.94,-1.49 1.1,4.07 0.38,24.85 0.38,30.64 0,10.09 0,20.18 0,30.27l-60.87 -0.2z"/>
   <path class="fil12" d="M183.94 149.55c-1.69,7.49 4.5,9.95 7.44,6.34 3.26,-4.01 -0.58,-8.79 -7.44,-6.34z"/>
   <path class="fil13" d="M140.85 105.28l42.54 0 -0.18 7.93 -42.85 0 0.49 -7.93zm-1.01 8.41l43.79 0.13 0.16 -8.9 -43.87 -0.08 -0.07 8.86z"/>
   <path class="fil13" d="M140.36 87.72l42.85 0 0.18 7.93 -43.07 0 0.04 -7.93zm-0.51 8.47l43.76 0.12 0.19 -8.89 -43.9 -0.09 -0.05 8.86z"/>
   <path class="fil14" d="M78.8 43.91l34.86 -0.02 0.23 -35.08c-0.06,0.13 -0.17,0.17 -0.19,0.39 -0.02,0.23 -0.14,0.3 -0.16,0.41l-0.15 3.09c0.01,1.41 0.01,2.83 0.01,4.24l0 26.38c-1.95,0 -32.56,-0.76 -34.59,0.58z"/>
   <path class="fil15" d="M52.46 165.48c0.66,1.28 0.29,0.81 2.58,0.87l23.7 -0.25 0.07 -8.64 -24.81 -0.22c-1.58,0.33 -0.71,-0.16 -1.51,0.93 4.01,-1.02 20.38,-0.36 25.67,-0.36l0 8.04c-5.26,0 -21.73,0.65 -25.69,-0.37z"/>
   <path class="fil16" d="M97.27 60.93l-18.26 0.1 -0.21 -17.12c-0.76,2.19 -0.56,14.2 -0.14,17.22 1.62,0.6 16.21,0.6 17.21,0.39 0.95,-0.2 1.02,-0.38 1.4,-0.59z"/>
  </g>
 </g>
</svg>
