<?xml version="1.0" encoding="UTF-8"?>
<!DOCTYPE svg PUBLIC "-//W3C//DTD SVG 1.1//EN" "http://www.w3.org/Graphics/SVG/1.1/DTD/svg11.dtd">
<!-- Creator: CorelDRAW 2020 (64-Bit) -->
<svg xmlns="http://www.w3.org/2000/svg" xml:space="preserve" width="182.185mm" height="182.185mm" version="1.1" style="shape-rendering:geometricPrecision; text-rendering:geometricPrecision; image-rendering:optimizeQuality; fill-rule:evenodd; clip-rule:evenodd"
viewBox="0 0 169.42 169.42"
 xmlns:xlink="http://www.w3.org/1999/xlink"
 xmlns:xodm="http://www.corel.com/coreldraw/odm/2003">
 <defs>
  <style type="text/css">
   <![CDATA[
    .fil0 {fill:black}
    .fil6 {fill:#35454D}
    .fil3 {fill:#CFD8DC}
    .fil1 {fill:#F4F4F4}
    .fil5 {fill:#FDC108}
    .fil2 {fill:#FEDE00}
    .fil4 {fill:#FFDB00}
   ]]>
  </style>
 </defs>
 <g id="Capa_x0020_1">
  <metadata id="CorelCorpID_0Corel-Layer"/>
  <g id="_1752211765072">
   <path class="fil0" d="M98.3 146.92l3.81 0.9c-0.9,1.35 -11.54,11.69 -13.62,13.79 -1.78,1.81 -3.25,2.95 -6.22,1.32l-15 -14.97c2.16,-1.14 12.29,-3.26 15.4,-4.09 2.86,-0.76 5.23,0.29 8.02,1.02 1.83,0.48 6.28,1.39 7.61,2.02zm71.12 -63.35l0 2.52c-0.62,4.04 -4.14,6.89 -6.87,9.61 -2,2 -6.41,6.89 -8.36,8.19 0.67,1.27 1.32,3.02 1.32,4.96 0,5.35 -0.57,3.71 -1.32,6.95 2.93,0.78 8.82,9.31 3.31,17.54 3.01,2.21 4.09,12.58 -3.31,17.54 1.3,2.46 1.32,3.85 1.32,6.62 0,6.03 -5.88,11.91 -11.91,11.91l-1.65 0c-6.21,0 -11.91,-5.99 -11.91,-12.24l0 -2.32c-1.6,-0.04 -19.22,-4.76 -21.51,-5.29l-10.67 10.84c-3.48,3.48 -7.86,9.02 -12.16,9.02 -6.85,0 -8.24,-3.11 -14.31,-9.18l-10.51 -10.67c-2.17,0.51 -19.92,5.26 -21.51,5.29l0 2.65c0,11.92 -17.99,17.21 -24.16,4.64 -1.75,-3.56 -1.82,-7.8 0.01,-11.26 -2.84,-1.9 -5.63,-5.85 -5.63,-10.59 0,-3.05 1.11,-5.01 2.32,-7.28 -0.36,-0.41 -0.72,-0.83 -0.99,-1.33 -1.89,-3.57 -1.58,-8.54 0.33,-11.9 0.73,-1.28 2.45,-3.57 3.97,-3.97 -0.43,-1.84 -1.32,-2.74 -1.32,-5.29 0,-2.77 0.02,-4.16 1.32,-6.62 -1.98,-1.32 -6.49,-6.32 -8.52,-8.36 -4.64,-4.64 -6.7,-5.31 -6.7,-11.83 0,-1.34 0.7,-3.15 1.24,-4.05 1.42,-2.35 38.31,-38.49 41.87,-42.18 1.75,-1.81 2.8,-8.49 11.62,-14.85 7.7,-5.55 3.39,-0.2 12.02,-8.82 1.79,-1.79 3.34,-3.34 5.13,-5.13 3.39,-3.39 7.58,-8.69 12.16,-8.69 6.24,0 8.59,3.79 13.65,8.85 2.23,2.23 8.42,8.98 10.72,10.13 15.3,7.61 15.08,15.76 18.23,18.83l33.92 33.91c1.85,1.85 3.44,3.45 5.29,5.29 1.19,1.18 1.54,1.32 2.35,2.94 0.66,1.3 1.04,2.5 1.2,3.62zm-153.42 53.8c1.5,0.03 3.35,1.38 6.17,1.43 3.38,0.07 4.16,-0.92 6.67,-1.6 1.62,6.4 2.49,5.21 8.74,3.61 3.92,-1 7.71,-2.03 11.6,-2.99 6.14,-1.51 5.51,-2.11 11.97,-0.46 2.99,0.76 9.67,1.95 11.77,3.23 -8.68,1.71 -24.74,6.23 -34.71,8.76 -8.46,2.15 -4.2,2.99 -4.5,8.12 -0.54,9.14 -14.72,8.59 -14.12,-1.27 0.25,-4.03 5.94,-6.98 0.59,-9.29 -3.62,-1.56 -5.84,-4.5 -4.17,-9.55zm119.01 -6.68c0.5,0.94 0.74,1.45 1.32,2.32 -0.21,0.8 -0.92,1.88 -1.32,2.65l-9.15 -2.53 9.15 -2.43zm-100.9 5.04c-0.17,-1.91 -0.63,-1.3 -1.01,-2.72 0.58,-0.87 0.82,-1.37 1.32,-2.32 0.96,0.22 8.59,2.01 9.6,2.65l-9.91 2.39zm62.4 -9.68c1.61,-0.97 31.66,-8.27 34.47,-8.99 8.95,-2.3 4.31,-2.82 4.83,-8.12 0.92,-9.33 15.32,-7.73 13.97,1.79 -0.56,3.9 -6.02,6.29 -0.07,8.91 2.99,1.32 5.88,5.3 3.5,9.43 -2.32,-0.55 -3.11,-1.5 -6.29,-1.47 -2.92,0.02 -4.01,0.84 -6.35,1.58 -1.61,-6.5 -2.8,-5.08 -8.95,-3.51 -3.93,1 -7.74,1.93 -11.62,2.92 -6.44,1.63 -5.26,2.05 -11.75,0.39 -3.85,-0.98 -7.85,-2.13 -11.75,-2.93zm48.43 7.74l3.28 -0.46c5.47,0.91 7.48,7.56 4.34,11.29 -2.23,2.65 -8.28,2.97 -4.34,7.61 4.36,5.13 -0.52,12.71 -6.62,11.4 -3.12,-0.58 -5.48,-2.95 -5.79,-6.21 -0.76,-8.16 8.1,-4.77 -22.8,-12.66 -25.42,-6.49 -52.45,-12.98 -77.57,-19.72 -6.6,-1.77 -4.82,0.21 -6.73,4.26 -1.15,2.45 -4.3,4.74 -8.37,3.57 -4.81,-1.39 -6.76,-7.87 -2.98,-11.61 1.75,-1.73 7,-2.51 4.46,-6.4 -0.9,-1.38 -1.69,-1.58 -2.1,-3.86 -1.43,-7.75 8.65,-11.26 12.67,-5.4 2.74,4 -0.53,7.73 1.19,9.74 1.05,1.23 84.88,22.01 96.71,25.06 2.72,0.7 7.83,2.96 9.33,0.2 0.59,-1.1 1.1,-6.67 5.33,-6.79zm-17.5 -81.19l0.12 -5.52c1.53,0.96 10.96,10.72 13.06,12.82l19.19 19.19c1.38,1.38 5.72,4.28 3.3,7.89 -0.92,1.37 -4.95,4.98 -6.27,6.3 -2.02,2.03 -4.2,4.45 -6.29,6.25l-2.58 -1.54c-2.71,-0.67 -4.2,-1.37 -7.35,-0.78 -2.93,0.54 -4.58,2.18 -6.04,2.5 -0.98,1.63 -2.02,1.86 -3.38,4.99 -0.96,2.2 -1.04,4.21 -1,6.75l-5.69 1.36c-2.52,1.03 -7.6,1.98 -10.57,2.74 -3.57,0.91 -7.09,1.82 -10.54,2.69 -3.6,0.91 -6.99,1.74 -10.56,2.68 -5.49,1.44 -6.85,2.44 -10.93,1.36l-42.64 -10.78c0.07,-6.44 -2.02,-10.14 -6.05,-12.68 -6.82,-4.29 -12.03,-0.25 -14.34,0.69 -3.92,-3.68 -7.49,-7.58 -11.4,-11.35 -0.99,-0.96 -1.9,-1.73 -1.77,-3.75 0.12,-1.91 1.16,-2.56 2.11,-3.49l22.67 -22.66c1.38,-1.38 4.3,-4.78 5.7,-5.43 0.72,-1.28 4.19,-4.77 5.7,-5.73 -0.22,12.82 3.78,17.48 3.34,24.69 -0.27,4.42 -3.59,11.07 -0.48,17.48 0.9,1.85 2.09,2.81 2.91,4.2 0.88,0.22 1.63,1 2.94,1.53 0.92,0.37 2.11,0.59 3.02,0.98 4.73,0.67 6.81,0.39 7.64,5.22 0.37,2.11 0.36,3.82 0.45,5.98 0.09,2.11 1.06,3.28 1.69,4.55 1.36,0.34 4,1.71 6.21,2.29 7.56,1.99 14.91,2.53 22.73,1.5 23.49,-3.09 11.89,-10.43 16.8,-17.29 1.35,-1.88 3.67,-1.67 6.37,-2.26 7.07,-1.53 11.03,-6.37 10.47,-14.84 -0.38,-5.76 -2.8,-7.78 -1.42,-14.76 0.47,-2.4 1.23,-4.43 1.77,-6.9 0.5,-2.31 0.72,-4.53 1.1,-6.87zm-26.84 -30.37c6.41,1.16 13.41,6.58 16.12,10.27 11.76,16.01 -0.14,29.3 2.19,42.51 1.48,8.39 4.49,13.87 -6.93,15.87 -1.35,0.17 -2.23,0.3 -3.37,0.82 -0.54,0.25 -1.1,0.61 -1.49,0.84 -0.93,0.55 -0.14,0.35 -1.24,0.59 -1.16,2.14 -2.29,2.41 -3.07,6.04 -0.58,2.71 -0.68,5.17 -0.62,8.1l-3.36 1.11c-0.04,-2.92 -0.57,-3.81 -3.53,-3.86 -2.6,1.07 -1.81,2.24 -2.21,5.18l-5.56 0.56c0,-2.8 0.29,-5.75 -2.82,-5.76 -3.12,-0 -2.82,2.96 -2.82,5.76 -8.86,-0.51 -4.03,-0.68 -6.05,-4.46 -0.7,-1.31 -5.16,-3.15 -5.24,2.56 -1.3,-0.31 -2.44,-0.74 -3.25,-1.32 -0.15,-25.61 -17.46,-9.26 -18.27,-23.8 -0.29,-5.15 3.18,-8.83 1.29,-18.12 -1.25,-6.12 -3.2,-10.85 -2.99,-17.83 0.56,-19.01 18.89,-26.82 35.02,-27.49 4.79,-0.2 14.42,0.54 18.21,2.41zm-26.98 -7.18c1.2,-0.83 3.9,-3.83 5.17,-5.1 5.85,-5.86 6.08,-5.8 12.03,0.15 1.46,1.46 3.55,3.83 5.01,4.96 -3.23,0.02 -7.27,-0.89 -11.11,-0.89 -3.85,0 -7.84,0.89 -11.09,0.87z"/>
   <path class="fil1" d="M84.71 89.02c1.55,-1 2.38,-2.6 3.95,-3.69 1.99,-1.38 4.32,-0.01 4.42,2.02 0.1,2.03 -4.82,7.45 -8.38,7.45 -3.72,0 -8.34,-5.63 -8.41,-7.13 -0.1,-2.24 2.17,-3.74 4.26,-2.48 1.58,0.96 2.59,2.79 4.15,3.82zm-31.04 -14.9c-0.38,-8.5 4.8,-12.01 13.17,-11.98 7.72,0.03 14.66,3.26 15.01,10.64 0.37,7.71 -6.31,10.93 -13.5,11.76 -8.68,0.99 -14.31,-2.07 -14.68,-10.42zm18.63 -47.03c4.95,-1.31 5.41,3.88 2.29,5.14 -3.39,1.37 -5.07,1.28 -8.34,3.24 -9.17,5.49 -6.36,13.17 -8.7,14.81 -2.04,1.43 -5.56,0.65 -3.99,-6.66 2.03,-9.48 10.03,-14.21 18.74,-16.52zm23 77.44c0.84,-0.58 -0.94,-0.15 1.23,-0.63 0.27,-2.94 0.58,-5.93 2.26,-7.76 2.79,-3.04 3.59,-1.47 7.08,-3 1.1,-0.24 0.32,-0.03 1.24,-0.59 0.39,-0.23 0.94,-0.59 1.49,-0.84 1.15,-0.52 2.02,-0.65 3.37,-0.82 0.8,-1.45 1.85,-2.41 2.36,-4.68 0.31,-1.39 1.11,-5.45 -0.21,-6.14 -3.46,5.13 -9.22,5.39 -15.33,4.1 -5.71,-1.2 -10.36,-3.64 -11.14,-9.39 -1.4,-10.25 9.82,-13.5 18.13,-12.46 5.62,0.7 5.51,2.21 7.39,3.05 1.3,-1.46 2.6,-9.7 2.89,-12.18 0.57,-4.95 0.28,-9.76 -1.15,-14.21 -3.69,-11.47 -12.2,-14.48 -14.3,-16.74 -3.79,-1.87 -13.41,-2.61 -18.21,-2.41 -16.13,0.68 -34.46,8.48 -35.02,27.49 -0.21,6.98 1.74,11.71 2.99,17.83 1.89,9.29 -1.57,12.97 -1.29,18.12 0.81,14.54 18.12,-1.81 18.27,23.8 0.81,0.58 1.95,1 3.25,1.32 0.08,-5.71 4.54,-3.88 5.24,-2.56 2.02,3.78 -2.81,3.94 6.05,4.46 0,-2.81 -0.3,-5.77 2.82,-5.76 3.11,0 2.82,2.95 2.82,5.76l5.56 -0.56c0.4,-2.94 -0.4,-4.11 2.21,-5.18z"/>
   <path class="fil2" d="M141.23 72.76c2.14,-3.38 5.43,0.68 6.56,1.81 11.61,11.62 11.26,8.92 2.98,17.3 -0.82,0.83 -1.79,2.16 -3.74,1.7 -1.27,-0.3 -2.22,-1.56 -1.98,-3.13 0.28,-1.86 3.68,-4.36 4.77,-5.73 -3.64,-4.59 -10.75,-8.53 -8.59,-11.95zm-121.62 11.95c1.12,1.41 4.64,3.91 4.78,6 0.12,1.83 -1.84,5.1 -5.91,0.99 -6.97,-7.02 -7.78,-6.19 -2.14,-11.83 3.85,-3.85 9.58,-11.43 11.97,-6.9 1.77,3.37 -5.31,7.43 -8.7,11.73zm107.82 -32.1c-0.38,2.34 -0.6,4.56 -1.1,6.87 -0.53,2.47 -1.29,4.49 -1.77,6.9 -1.38,6.98 1.04,9 1.42,14.76 0.56,8.48 -3.4,13.31 -10.47,14.84 -2.7,0.59 -5.03,0.38 -6.37,2.26 -4.91,6.86 6.68,14.19 -16.8,17.29 -7.82,1.03 -15.18,0.49 -22.73,-1.5 -2.22,-0.58 -4.85,-1.95 -6.21,-2.29 -3.65,-1.09 -7.23,-1.19 -7.35,-5.17 -0.12,-4.08 -0.2,-7.76 -2.44,-10.57 -0.91,-0.39 -2.1,-0.61 -3.02,-0.98 -1.31,-0.53 -2.06,-1.31 -2.94,-1.53 -9.58,-1.05 -11.04,-8.08 -8.75,-17.19 1.09,-4.32 0.9,-8.17 -0.22,-12.39 -0.31,-1.19 -2.38,-10.9 -2.51,-11.06 -1.4,0.65 -4.32,4.05 -5.7,5.43l-22.67 22.66c-0.95,0.93 -1.99,1.58 -2.11,3.49 -0.12,2.02 0.78,2.79 1.77,3.75 3.91,3.77 7.47,7.68 11.4,11.35 2.31,-0.94 7.52,-4.98 14.34,-0.69 4.03,2.54 6.12,6.24 6.05,12.68l42.64 10.78c4.08,1.08 5.44,0.07 10.93,-1.36 3.58,-0.94 6.96,-1.77 10.56,-2.68 3.45,-0.87 6.97,-1.78 10.54,-2.69 2.97,-0.76 8.05,-1.71 10.57,-2.74 0.47,-1.61 -0.15,-3.54 0.24,-5.31 0.36,-1.65 1.1,-2.91 1.92,-4.03 1.63,-2.21 4.09,-3.23 7.92,-3.75 1.46,-0.32 3.11,-1.95 6.04,-2.5 3.15,-0.58 4.65,0.11 7.35,0.78 3.72,-5.62 15.94,-10.56 7.05,-19.41l-16.22 -16.21c-1.9,-1.9 -3.56,-3.56 -5.46,-5.46 -1.44,-1.44 -4.22,-3.9 -5.21,-5.38 -0.48,2.17 0.1,0.05 -0.69,1.06z"/>
   <path class="fil1" d="M141.6 163.63c2.59,-4.76 4.61,-7.13 -0.01,-13.73 0.38,-0.34 9.16,-3.9 6.33,-12.59 -0.85,-2.62 -1.45,-3.59 -2.99,-3.51 -4.23,0.12 -4.74,5.7 -5.33,6.79 -1.49,2.77 -6.61,0.5 -9.33,-0.2 -11.83,-3.05 -95.66,-23.83 -96.71,-25.06 -1.72,-2.01 1.56,-5.74 -1.19,-9.74 -4.03,-5.86 -14.1,-2.35 -12.67,5.4 0.42,2.28 1.2,2.48 2.1,3.86 2.55,3.89 -2.71,4.67 -4.46,6.4 -3.78,3.74 -1.83,10.22 2.98,11.61 4.08,1.18 7.22,-1.12 8.37,-3.57 1.91,-4.05 0.13,-6.03 6.73,-4.26 25.11,6.74 52.14,13.23 77.57,19.72 30.91,7.89 22.04,4.5 22.8,12.66 0.3,3.25 2.67,5.63 5.79,6.21z"/>
   <path class="fil3" d="M96.5 126.06c3.9,0.8 7.91,1.95 11.75,2.93 6.49,1.65 5.31,1.24 11.75,-0.39 3.88,-0.98 7.69,-1.92 11.62,-2.92 6.15,-1.56 7.34,-2.98 8.95,3.51 2.34,-0.74 3.43,-1.56 6.35,-1.58 3.18,-0.03 3.97,0.92 6.29,1.47 2.37,-4.13 -0.52,-8.12 -3.5,-9.43 -5.95,-2.62 -0.49,-5.01 0.07,-8.91 1.35,-9.51 -13.05,-11.12 -13.97,-1.79 -0.52,5.31 4.11,5.82 -4.83,8.12 -2.81,0.72 -32.86,8.02 -34.47,8.99z"/>
   <path class="fil3" d="M16 137.38c-1.67,5.06 0.56,8 4.17,9.55 5.35,2.31 -0.34,5.26 -0.59,9.29 -0.6,9.86 13.58,10.41 14.12,1.27 0.3,-5.13 -3.96,-5.97 4.5,-8.12 9.96,-2.53 26.02,-7.05 34.71,-8.76 -2.1,-1.28 -8.77,-2.46 -11.77,-3.23 -6.46,-1.65 -5.83,-1.05 -11.97,0.46 -3.89,0.96 -7.68,1.98 -11.6,2.99 -6.25,1.6 -7.12,2.79 -8.74,-3.61 -2.51,0.68 -3.28,1.67 -6.67,1.6 -2.82,-0.06 -4.67,-1.41 -6.17,-1.43z"/>
   <path class="fil0" d="M99.45 68.11c8.75,-1.63 12.78,2.32 9.93,8.85 -0.78,1.78 -2.38,2.02 -4.8,2.1 -9.52,0.31 -13.94,-4.77 -10.19,-8.82 1.19,-1.29 2.79,-1.7 5.06,-2.12zm14.67 11.96c1.16,-2.41 1.72,-4.5 1.67,-7.61 -0.02,-1.45 -0.22,-2.6 -0.74,-3.86 -0.64,-1.56 -1.35,-2.07 -1.89,-3.22 -1.88,-0.84 -1.77,-2.34 -7.39,-3.05 -8.3,-1.04 -19.53,2.21 -18.13,12.46 0.78,5.74 5.43,8.19 11.14,9.39 6.11,1.29 11.87,1.03 15.33,-4.1z"/>
   <path class="fil0" d="M63.84 68c9.88,-1.62 14.53,3.93 11.66,7.83 -2.03,2.76 -13.64,5.47 -15.56,0.89 -1.84,-4.39 -0.51,-8 3.9,-8.72zm-10.18 6.12c0.38,8.34 6,11.41 14.68,10.42 7.19,-0.82 13.88,-4.04 13.5,-11.76 -0.36,-7.39 -7.29,-10.62 -15.01,-10.64 -8.37,-0.03 -13.56,3.48 -13.17,11.98z"/>
   <path class="fil3" d="M113.16 65.38c0.53,1.15 1.25,1.66 1.89,3.22 0.51,1.26 0.71,2.41 0.74,3.86 0.05,3.11 -0.51,5.2 -1.67,7.61 1.33,0.7 0.53,4.75 0.21,6.14 -0.51,2.27 -1.56,3.24 -2.36,4.68 11.42,-2 8.41,-7.48 6.93,-15.87 -2.32,-13.21 9.57,-26.5 -2.19,-42.51 -2.71,-3.69 -9.72,-9.11 -16.12,-10.27 2.1,2.26 10.62,5.27 14.3,16.74 1.43,4.45 1.72,9.26 1.15,14.21 -0.29,2.48 -1.59,10.72 -2.89,12.18z"/>
   <path class="fil4" d="M82.27 162.94c1.81,-0.56 10.64,-10.06 12.34,-11.75 0.95,-0.95 3.6,-2.98 3.69,-4.27 -1.32,-0.62 -5.78,-1.54 -7.61,-2.02 -2.78,-0.73 -5.15,-1.78 -8.02,-1.02 -3.11,0.83 -13.24,2.95 -15.4,4.09l15 14.97z"/>
   <path class="fil5" d="M36.17 52.83c0.13,0.16 2.19,9.87 2.51,11.06 1.12,4.22 1.31,8.06 0.22,12.39 -2.29,9.12 -0.83,16.14 8.75,17.19 -0.83,-1.4 -2.02,-2.35 -2.91,-4.2 -3.11,-6.42 0.21,-13.06 0.48,-17.48 0.45,-7.21 -3.56,-11.87 -3.34,-24.69 -1.52,0.96 -4.99,4.45 -5.7,5.73z"/>
   <path class="fil5" d="M127.44 52.61c0.78,-1.01 0.2,1.12 0.69,-1.06 0.99,1.48 3.77,3.93 5.21,5.38 1.9,1.9 3.56,3.56 5.46,5.46l16.22 16.21c8.89,8.85 -3.33,13.79 -7.05,19.41l2.58 1.54c2.1,-1.81 4.27,-4.23 6.29,-6.25 1.32,-1.32 5.35,-4.94 6.27,-6.3 2.42,-3.61 -1.92,-6.51 -3.3,-7.89l-19.19 -19.19c-2.1,-2.1 -11.53,-11.85 -13.06,-12.82l-0.12 5.52z"/>
   <path class="fil0" d="M72.29 27.09c-8.71,2.31 -16.71,7.04 -18.74,16.52 -1.57,7.31 1.96,8.09 3.99,6.66 2.34,-1.64 -0.47,-9.31 8.7,-14.81 3.27,-1.96 4.95,-1.87 8.34,-3.24 3.12,-1.26 2.66,-6.45 -2.29,-5.14z"/>
   <path class="fil6" d="M63.84 68c-4.41,0.72 -5.74,4.33 -3.9,8.72 1.92,4.59 13.54,1.87 15.56,-0.89 2.87,-3.9 -1.78,-9.45 -11.66,-7.83z"/>
   <path class="fil6" d="M99.45 68.11c-2.27,0.42 -3.87,0.84 -5.06,2.12 -3.75,4.05 0.67,9.12 10.19,8.82 2.42,-0.08 4.03,-0.31 4.8,-2.1 2.85,-6.53 -1.18,-10.47 -9.93,-8.85z"/>
   <path class="fil0" d="M149.82 84.71c-1.09,1.38 -4.49,3.88 -4.77,5.73 -0.24,1.57 0.71,2.82 1.98,3.13 1.95,0.47 2.93,-0.87 3.74,-1.7 8.27,-8.38 8.63,-5.68 -2.98,-17.3 -1.13,-1.14 -4.42,-5.2 -6.56,-1.81 -2.16,3.43 4.95,7.36 8.59,11.95z"/>
   <path class="fil0" d="M19.61 84.71c3.39,-4.31 10.47,-8.36 8.7,-11.73 -2.39,-4.53 -8.12,3.05 -11.97,6.9 -5.64,5.64 -4.83,4.8 2.14,11.83 4.07,4.1 6.03,0.84 5.91,-0.99 -0.14,-2.09 -3.67,-4.59 -4.78,-6z"/>
   <path class="fil3" d="M141.6 163.63c6.1,1.32 10.98,-6.27 6.62,-11.4 -3.94,-4.64 2.11,-4.96 4.34,-7.61 3.13,-3.72 1.13,-10.38 -4.34,-11.29l-3.28 0.46c1.53,-0.08 2.13,0.89 2.99,3.51 2.82,8.69 -5.95,12.25 -6.33,12.59 4.62,6.6 2.6,8.97 0.01,13.73z"/>
   <path class="fil0" d="M84.71 89.02c-1.56,-1.03 -2.56,-2.87 -4.15,-3.82 -2.09,-1.26 -4.36,0.24 -4.26,2.48 0.07,1.5 4.68,7.13 8.41,7.13 3.56,-0 8.48,-5.42 8.38,-7.45 -0.1,-2.03 -2.44,-3.4 -4.42,-2.02 -1.57,1.09 -2.4,2.68 -3.95,3.69z"/>
   <path class="fil4" d="M73.61 15.06c3.25,0.02 7.25,-0.87 11.09,-0.87 3.83,-0 7.88,0.9 11.11,0.89 -1.46,-1.14 -3.54,-3.5 -5.01,-4.96 -5.95,-5.95 -6.18,-6.01 -12.03,-0.15 -1.27,1.27 -3.97,4.28 -5.17,5.1z"/>
   <path class="fil5" d="M63.4 111.73c-0.64,-1.26 -1.6,-2.44 -1.69,-4.55 -0.09,-2.16 -0.09,-3.87 -0.45,-5.98 -0.84,-4.82 -2.91,-4.55 -7.64,-5.22 2.24,2.8 2.33,6.49 2.44,10.57 0.11,3.99 3.69,4.08 7.35,5.17z"/>
   <path class="fil3" d="M95.3 104.53c2.96,0.05 3.49,0.94 3.53,3.86l3.36 -1.11c-0.06,-2.92 0.04,-5.39 0.62,-8.1 0.78,-3.63 1.9,-3.9 3.07,-6.04 -3.49,1.53 -4.29,-0.04 -7.08,3 -1.68,1.83 -1.99,4.82 -2.26,7.76 -2.17,0.49 -0.38,0.05 -1.23,0.63z"/>
   <path class="fil5" d="M82.27 162.94c2.97,1.63 4.44,0.49 6.22,-1.32 2.08,-2.11 12.72,-12.45 13.62,-13.79l-3.81 -0.9c-0.09,1.28 -2.74,3.32 -3.69,4.27 -1.69,1.69 -10.53,11.19 -12.34,11.75z"/>
   <path class="fil5" d="M124.49 112.82l5.69 -1.36c-0.04,-2.55 0.04,-4.55 1,-6.75 1.37,-3.13 2.4,-3.35 3.38,-4.99 -3.83,0.52 -6.29,1.54 -7.92,3.75 -0.82,1.12 -1.56,2.38 -1.92,4.03 -0.39,1.78 0.23,3.71 -0.24,5.31z"/>
  </g>
 </g>
</svg>
