<?xml version="1.0" encoding="UTF-8"?>
<!DOCTYPE svg PUBLIC "-//W3C//DTD SVG 1.1//EN" "http://www.w3.org/Graphics/SVG/1.1/DTD/svg11.dtd">
<!-- Creator: CorelDRAW 2020 (64-Bit) -->
<svg xmlns="http://www.w3.org/2000/svg" xml:space="preserve" width="123.224mm" height="94.7931mm" version="1.1" style="shape-rendering:geometricPrecision; text-rendering:geometricPrecision; image-rendering:optimizeQuality; fill-rule:evenodd; clip-rule:evenodd"
viewBox="0 0 65.48 50.37"
 xmlns:xlink="http://www.w3.org/1999/xlink"
 xmlns:xodm="http://www.corel.com/coreldraw/odm/2003">
 <defs>
  <style type="text/css">
   <![CDATA[
    .fil1 {fill:#4D4D4D}
    .fil0 {fill:#B2B2B2}
   ]]>
  </style>
 </defs>
 <g id="Capa_x0020_1">
  <metadata id="CorelCorpID_0Corel-Layer"/>
  <rect class="fil0" y="-0" width="65.48" height="50.37" rx="4.79" ry="5.17"/>
  <path class="fil1" d="M44.23 30.43l2 0 0 8.28 -2 0 0 -8.28zm-4.69 0l2.07 0 0 8.28 -2.07 0 0 -8.28zm-17.33 5.45l2.07 0 0 2 -2.07 0 0 -2zm0 -4.97l2.07 0 0 2 -2.07 0 0 -2zm0 -4.97l2.07 0 0 2 -2.07 0 0 -2zm14.98 -4.97l2 0 0 2.07 -2 0 0 -2.07zm-4.63 0l2 0 0 2.07 -2 0 0 -2.07zm-10.36 0l2.07 0 0 2.07 -2.07 0 0 -2.07zm14.98 -4.63l2 0 0 2.07 -2 0 0 -2.07zm-4.63 0l2 0 0 2.07 -2 0 0 -2.07zm4.14 -2.55l-1.86 0 0 -2.07 2.07 0 0 1.86c0,0.16 -0.05,0.21 -0.21,0.21zm-20.57 27l35.35 0 0 -2.07 -2.62 0 0 -11.05 -11.94 0 0 11.05 -2 0 0 -13.12 6.97 0 0 -11.81 -2.35 0 0 -4.63 -2.62 0 0 -3.73 -2.07 0c0,1.06 -0.01,2.12 0,3.18 0.01,0.65 0.1,0.55 -1.04,0.55 -0.55,-0 -1.1,0 -1.66,0l0 4.63 -2.28 0 0 24.92 -2.07 0 0 -20.3 -9.04 0 0 20.3 -2.62 0 0 2.07z"/>
 </g>
</svg>
