<?xml version="1.0" encoding="UTF-8"?>
<!DOCTYPE svg PUBLIC "-//W3C//DTD SVG 1.1//EN" "http://www.w3.org/Graphics/SVG/1.1/DTD/svg11.dtd">
<!-- Creator: CorelDRAW 2020 (64-Bit) -->
<svg xmlns="http://www.w3.org/2000/svg" xml:space="preserve" width="123.224mm" height="94.7931mm" version="1.1" style="shape-rendering:geometricPrecision; text-rendering:geometricPrecision; image-rendering:optimizeQuality; fill-rule:evenodd; clip-rule:evenodd"
viewBox="0 0 63.16 48.58"
 xmlns:xlink="http://www.w3.org/1999/xlink"
 xmlns:xodm="http://www.corel.com/coreldraw/odm/2003">
 <defs>
  <style type="text/css">
   <![CDATA[
    .fil1 {fill:#4D4D4D}
    .fil0 {fill:#B2B2B2}
   ]]>
  </style>
 </defs>
 <g id="Capa_x0020_1">
  <metadata id="CorelCorpID_0Corel-Layer"/>
  <rect class="fil0" y="-0" width="63.16" height="48.58" rx="4.62" ry="4.98"/>
  <path class="fil1" d="M16.44 26.28l0 12.63c0,0.85 0.8,1.65 1.65,1.65l10.15 0 0 -10.07 6.6 0 0 10.07 10.15 0c0.91,0 1.65,-0.93 1.65,-1.49l0 -12.79c0,-0.29 -1.56,-1.45 -1.77,-1.61 -1.49,-1.17 -3.22,-2.72 -4.75,-3.91l-8.05 -6.64c-0.76,-0.61 -0.33,-0.57 -2.42,1.12 -2.81,2.28 -5.79,4.85 -8.56,7.04 -0.34,0.27 -0.62,0.54 -0.94,0.79l-3.3 2.72c-0.14,0.11 -0.41,0.26 -0.41,0.5z"/>
  <path class="fil1" d="M10.42 23.89c0,0.54 0.57,1.1 1.02,1.63 1.48,1.74 1.34,1.59 3.91,-0.58 0.39,-0.33 0.74,-0.61 1.12,-0.94 2,-1.78 4.92,-3.98 6.93,-5.78l8.15 -6.79c0.2,0.13 0.32,0.27 0.54,0.45l9.22 7.7c0.21,0.18 0.37,0.32 0.59,0.49l4.6 3.82c0.19,0.16 0.39,0.32 0.58,0.49 0.22,0.19 0.37,0.3 0.58,0.49l1.76 1.46c0.61,0.49 0.98,0.59 1.63,-0.1 0.16,-0.17 0.17,-0.2 0.3,-0.36 0.12,-0.14 0.19,-0.2 0.32,-0.34 0.21,-0.24 0.36,-0.43 0.56,-0.68 0.28,-0.35 0.42,-0.62 0.46,-0.85l0 -0.22c-0.07,-0.44 -0.6,-0.78 -1.41,-1.44l-4.05 -3.37c-0.41,-0.36 -0.56,-0.21 -0.56,-0.92l-0 -10.4c-0.06,-0.36 -0.4,-0.67 -0.82,-0.67l-5.12 0c-1.02,0 -0.83,1.44 -0.83,2.48 0,1.13 0,2.26 0,3.38 -0.19,-0.13 -0.29,-0.18 -0.47,-0.35 -0.2,-0.18 -0.31,-0.24 -0.5,-0.41 -0.32,-0.3 -0.61,-0.52 -0.94,-0.79 -0.74,-0.6 -4.37,-3.73 -4.84,-3.99 -1.12,-0.61 -2.42,-0.52 -3.47,0.19l-11.67 9.71c-1.97,1.72 -4.63,3.75 -6.48,5.4 -0.34,0.31 -1.09,0.74 -1.09,1.3z"/>
 </g>
</svg>
