<?xml version="1.0" encoding="UTF-8"?>
<!DOCTYPE svg PUBLIC "-//W3C//DTD SVG 1.1//EN" "http://www.w3.org/Graphics/SVG/1.1/DTD/svg11.dtd">
<!-- Creator: CorelDRAW 2020 (64-Bit) -->
<svg xmlns="http://www.w3.org/2000/svg" xml:space="preserve" width="159.574mm" height="159.574mm" version="1.1" style="shape-rendering:geometricPrecision; text-rendering:geometricPrecision; image-rendering:optimizeQuality; fill-rule:evenodd; clip-rule:evenodd"
viewBox="0 0 118.34 118.34"
 xmlns:xlink="http://www.w3.org/1999/xlink"
 xmlns:xodm="http://www.corel.com/coreldraw/odm/2003">
 <defs>
  <style type="text/css">
   <![CDATA[
    .fil0 {fill:black}
    .fil42 {fill:#77CACB}
    .fil3 {fill:#8288A1}
    .fil33 {fill:#A0D6E0}
    .fil11 {fill:#A1D6E2}
    .fil5 {fill:#A2A8BC}
    .fil19 {fill:#A4AABC}
    .fil14 {fill:#A4D7E3}
    .fil32 {fill:#A5D7E3}
    .fil41 {fill:#A6ACBE}
    .fil21 {fill:#A7ADC0}
    .fil13 {fill:#A7D8E5}
    .fil27 {fill:#AAD9E7}
    .fil43 {fill:#AAE0E5}
    .fil24 {fill:#ABB1C3}
    .fil4 {fill:#ABB1C4}
    .fil35 {fill:#ACDAE7}
    .fil20 {fill:#ADB3C5}
    .fil30 {fill:#AEB4C6}
    .fil29 {fill:#AEDAE9}
    .fil39 {fill:#B0B6C7}
    .fil2 {fill:#B1B7C8}
    .fil17 {fill:#B1DBEA}
    .fil31 {fill:#B2B8C9}
    .fil34 {fill:#B3DCEC}
    .fil38 {fill:#B4BACB}
    .fil28 {fill:#B5DCED}
    .fil8 {fill:#B6BCCC}
    .fil25 {fill:#B7BDCD}
    .fil15 {fill:#B7DDEE}
    .fil23 {fill:#B8BECF}
    .fil6 {fill:#B9C0D0}
    .fil16 {fill:#BADEF0}
    .fil36 {fill:#BBC1D1}
    .fil40 {fill:#BCC2D1}
    .fil12 {fill:#BCDFF1}
    .fil22 {fill:#BEC4D3}
    .fil7 {fill:#BEC5D4}
    .fil26 {fill:#BEDFF1}
    .fil18 {fill:#C1C7D5}
    .fil10 {fill:#C3C8D8}
    .fil9 {fill:#D6DAE0}
    .fil45 {fill:#FCD296}
    .fil44 {fill:#FCDAAA}
    .fil37 {fill:#FDD7A1}
    .fil46 {fill:#FEDEB2}
    .fil1 {fill:white}
   ]]>
  </style>
 </defs>
 <g id="Capa_x0020_1">
  <metadata id="CorelCorpID_0Corel-Layer"/>
  <g id="_1752571912864">
   <path class="fil0" d="M3.7 108.51l0 -1.42c0,-0.35 -0.04,-0.93 -0.01,-1.26 0.07,-0.93 -0.11,-0.57 0.34,-1.08 0.3,-1.46 1.72,-1.22 3.37,-1.22 10.49,0.06 22.23,-0.25 32.37,0.02l0.77 1.4 1.4 2.05 0.93 1.4 0.5 0.34c1.59,0.78 25.07,0.32 28.76,0.34 2.89,0.02 1.68,-0.04 3.61,-0.82 0.13,-0.64 0.49,-1.24 1.13,-1.64 0.11,-0.62 -0.02,-0.31 0.38,-0.96 0.01,-0.02 0.25,-0.34 0.28,-0.38 0.33,-0.4 0.22,-0.24 0.29,-0.31l0.79 -1.39c9.88,-0.31 21.97,0.02 32.33,-0.04 1.65,-0.01 3.07,-0.25 3.37,1.22 0.39,0.43 0.2,-0.14 0.33,0.85 0.05,0.35 0,1.09 0,1.48l0 1.42 -0.26 1.97c-1.2,4.81 -5.59,4.16 -10.84,4.16l-88.76 0c-5.29,0 -9.61,0.72 -10.84,-4.16l-0.26 -1.97zm40.5 -4.89l0.87 -0.09 28.08 0.01 0.97 0.05 -1.12 1.76 -0.89 0.05 -25.89 -0 -0.93 -0.02 -1.11 -1.75zm50.11 -13.03l-0 -3 0 -3.3 0 -4.64 0 -4.66 -0 -3.35 0 -2.89 0 -3.31 0 -4.54 0 -2.9 -0 -3.31 -0 -4.63 0 -3 -0 -4.78 0 -3.51 0 -1.81 5.55 0 0 1.81 0 3.51 -0 4.78 0 3 0 4.63 -0 3.31 0 2.9 -0 4.54 0 3.31 0 2.89 0 3.35 0 4.66 0 4.64 0 3.3 -0 3 0 1.85 -5.55 0 0 -1.85zm-75.81 0l-0 -3 0 -4.91 0 -3.06 0 -4.64 0 -3.35 0 -2.89 0 -3.31 -0 -4.54 0 -2.9 -0 -3.31 0 -4.63 0 -4.54 -0 -3.24 0 -3.51 0 -1.81 5.55 0 0 1.81 0 3.51 -0 3.24 0 4.54 -0 4.63 -0 3.31 0 2.9 0 4.54 0 3.31 0 2.89 -0 3.35 0 4.64 0 3.06 0 4.91 -0 3 0 1.85 -5.55 0 0 -1.85zm-3.6 -56.07l-0.1 5.94 0 4.06 0 3.69 -0 3.93 0 3.87 0 3.96 0 3.88 0 4.01 0 3.71 -0 5.96 0 5.73 0 5.88 0.1 5.87c1.39,1.5 1.64,1.13 4.29,1.13l79.74 -0c2.72,0 3.09,0.41 4.52,-1.13l0.1 -5.87 0 -5.88 0 -5.73 -0 -5.96 0 -3.71 0 -4.01 0 -3.88 0 -3.96 -0 -5.75 0 -4.05 0 -5.76 -0.1 -5.94c-0.99,-1.62 -1.88,-1.25 -4.06,-1.24 -1.7,0 -3.39,0 -5.09,0l-0 -3.7c8.64,0 12.94,-1.46 12.95,4.97l-0 5.92 -0 5.76 0 4.05 0 5.75 0 3.96 -0 3.88 0 4.01 0 3.71 -0 5.96 0 5.73 0 5.88 -0 5.96 -0 2.89 0 1.85 -96.15 0 0 -1.85 -0 -2.89 -0 -5.96 0 -5.88 0 -5.73 -0 -5.96 0 -3.71 0 -4.01 -0 -3.88 0 -3.96 0 -3.87 -0 -3.93 0 -3.69 0 -4.06 -0 -5.92c0.01,-6.38 4.21,-4.97 12.95,-4.97l-0 3.7c-1.77,0 -3.54,0.01 -5.32,-0 -2.1,-0.01 -2.88,-0.32 -3.83,1.24zm81.87 -28.69c0.41,-0.8 0.92,-1.05 1.93,-1.39l1.79 -0.65c0.81,-0.1 2.15,-0.26 2.7,0.24 0.9,-0.02 1.38,0.01 1.88,0.7 0.78,0.08 1.01,0.17 1.39,0.96 2.16,0.86 2.65,4.21 2.65,7.25l-2.86 -0 -1.5 0 -2.35 -0 -1.91 0 -2.02 -0 -1.86 0 -2.29 -0c0,-3.15 0.28,-5.84 2.46,-7.1zm-5.9 2.72l-0.26 5.08 -0 4.78 0 5.08 0 4.01 0 5.87 -0 9.88 0 7.25 0 6.05 0 3.31 -0 3.24 0 2.93 0 3.08 -0 3.85 0 5.09 0 4.82 0 4.2 -0 5.39 -62.87 0 -0 -5.39 0 -4.2 0 -4.82 -0 -5.93 0 -3.01 0 -3.08 0 -2.93 -0 -3.24 0 -3.31 0 -6.05 0 -7.25 -0 -9.88 0 -5.87 0 -4.01 0 -5.08 -0 -4.78c0,-1.47 -0.17,-3.68 0.42,-4.73 0.45,-2.08 2.4,-3.96 4.27,-4.69 2.04,-0.79 5.84,-0.52 8.26,-0.52l35.13 0c5.44,0 12.25,-0.36 17.53,0.05 -0.43,0.71 -1.02,1.34 -1.52,2.32 -0.42,0.81 -0.59,1.75 -0.95,2.49zm-66.83 1.62l0 15.72 -9.71 0c-3.57,0 -6.93,3.37 -6.93,6.93l0 67.03 -2.31 0c-2.54,0 -5.09,2.54 -5.09,5.09l0 4.85c0,4.26 4.29,8.55 8.55,8.55l101.24 0c4.26,0 8.55,-4.29 8.55,-8.55l0 -4.85c0,-2.54 -2.54,-5.09 -5.09,-5.09l-2.31 0 0 -67.26c0,-1.73 -1.21,-3.66 -2.13,-4.57 -1.05,-1.05 -2.76,-2.13 -4.81,-2.13l-9.71 0 0 -9.25 16.64 0c2.51,0 1.85,-3.1 1.85,-6.47 0,-1.35 -0.59,-3.03 -1.07,-4.01 -1.66,-3.39 -5.5,-6.16 -9.1,-6.16l-68.42 0c-2.41,0 -5.4,1.57 -7,3.17 -1.6,1.6 -3.17,4.59 -3.17,7z"/>
   <path class="fil1" d="M27.74 43.25l5.65 -0.05c-0.35,-2.89 1.92,-2.53 4.29,-2.53l42.76 0c2.41,-0 4.88,-0.44 4.52,2.53l5.65 0.05 0 -9.88 -5.56 0c-0.42,2 -1.88,1.77 -3.92,1.76l-34.67 0c-2.03,0.01 -3.51,0.24 -3.92,-1.76l-14.81 0 0 9.88z"/>
   <path class="fil1" d="M27.74 50.5c1.95,0 4.23,0.29 6.06,-0.2 0.05,-0.01 0.12,-0.09 0.15,-0.04l0.99 -0.27c0.52,-0.08 1.05,-0.06 1.58,-0.06 1.08,0 2.16,0.01 3.24,0.01l38.83 0c2.2,0 3.97,-0.22 5.81,0.33 0.03,0.01 0.1,0.03 0.15,0.04 1.83,0.49 4.12,0.2 6.07,0.2l-0 -7.25 -5.65 -0.05c-1.37,1.73 -2.96,1.17 -5.68,1.17l-40.45 0c-2.68,0 -4.09,0.54 -5.45,-1.17l-5.65 0.05 -0 7.25z"/>
   <polygon class="fil1" points="90.61,87.06 27.74,87.06 27.74,92.45 90.61,92.45 "/>
   <path class="fil1" d="M28.15 8.91c3.31,0.36 49.49,0.07 58.76,0.07 1.39,0 2.86,0.26 3.96,-0.42 0.37,-0.74 0.54,-1.67 0.95,-2.49 0.5,-0.98 1.09,-1.61 1.52,-2.32 -5.27,-0.41 -12.09,-0.05 -17.53,-0.05l-35.13 0c-2.42,0 -6.23,-0.27 -8.26,0.52 -1.86,0.72 -3.82,2.6 -4.27,4.69z"/>
   <path class="fil1" d="M27.74 33.37l14.81 0c0.31,-2.18 1.78,-1.95 3.92,-1.94l34.67 0c2.13,-0.01 3.6,-0.24 3.92,1.94l5.56 0 0 -5.87 -62.87 0 0 5.87z"/>
   <path class="fil2" d="M42.86 108.41l-39.16 0.1 0.26 1.97c0.37,0.19 0.35,0.01 0.53,0.29 1.18,0.41 108.11,0.43 109.36,0 0.18,-0.27 0.19,-0.12 0.54,-0.3l0.26 -1.97c-6.55,0 -13.1,0 -19.65,0 -3.31,0 -6.63,0 -9.94,0 -1.53,0 -8.61,0.43 -9.33,-0.24 -1.93,0.78 -0.72,0.84 -3.61,0.82 -3.69,-0.02 -27.17,0.44 -28.76,-0.34l-0.5 -0.34z"/>
   <path class="fil0" d="M50.5 69.05l-2.25 2.52c-0.3,0.28 -0.12,0.14 -0.34,0.25 -0.44,0.87 -1.9,2.37 -2.53,3.16l-1.93 2.24c-0.05,0.05 -0.32,0.29 -0.35,0.31 -0.26,0.22 -0.18,0.15 -0.35,0.25 -0.27,0.68 -1.35,1.87 -1.86,2.43 -0.67,0.74 -1.25,1.63 -1.87,2.08 -0.24,1.76 0.5,3.36 2.4,2.61 1.04,-0.41 6.06,-7.05 7.06,-7.83 0.25,3.04 -1.23,8.55 3.03,8.01 2.41,-0.31 5.74,-3.29 7.13,-4.33 0.5,0.91 0.89,2.28 2.18,2.43 1.39,0.16 1.9,-1.1 2.73,-1.66 1.06,1.44 1.37,2.56 3.3,3.24 1.39,0.49 4.31,0.29 5.95,0.29 2.16,0 4.32,-0.01 6.47,0 2.01,0.01 4.05,0.12 3.86,-2.2 -0.69,-1.88 -1.92,-1.51 -4.09,-1.5 -1.77,0 -3.54,0 -5.32,0 -5.65,0 -6.79,0.97 -7.15,-3.7 -0.85,-4.4 -4.76,0.28 -5.11,0.46 -2,-5.62 -4.53,0.23 -9.42,2.74 0.01,-1.83 0.5,-6.36 1.06,-7.9 0.38,-2.11 0.85,-2.26 0.05,-4.19 -0.85,-0.15 -1.79,-0.64 -2.66,0.28z"/>
   <path class="fil1" d="M27.74 23.5l-0 4.01 62.87 0 -0 -4.01c-13.56,0 -27.12,0 -40.68,0 -1.37,0 -5.25,0.32 -5.4,-0.39 -3.96,1.26 -3.72,1.25 -7.69,0 -0.31,0.62 0.29,0.32 -0.99,0.42l-8.11 -0.03z"/>
   <path class="fil1" d="M27.74 13.64c1,0 2,-0 3.01,0 1.39,0.01 2.18,0.26 3.29,-0.46 0.48,-0.28 2.03,-3.92 6.65,-3.92 3.41,-0 4.85,1.68 6.42,3.69 0.56,0.72 -0.1,0.05 0.22,0.24 1.2,0.78 3.21,0.46 5.37,0.46l37.91 0 0.26 -5.08c-1.1,0.68 -2.57,0.42 -3.96,0.42 -9.27,-0 -55.44,0.29 -58.76,-0.07 -0.58,1.05 -0.42,3.26 -0.42,4.73z"/>
   <path class="fil1" d="M39.03 82.29l-0.66 0.58 -10.63 0 0 4.2 62.87 0 0 -4.2 -7.47 0c0.19,2.31 -1.85,2.2 -3.86,2.2 -2.16,-0.01 -4.31,-0 -6.47,-0 -1.64,0 -4.55,0.19 -5.95,-0.29 -1.93,-0.68 -2.24,-1.8 -3.3,-3.24 -0.83,0.55 -1.34,1.82 -2.73,1.66 -1.29,-0.15 -1.68,-1.52 -2.18,-2.43 -1.39,1.04 -4.72,4.02 -7.13,4.33 -4.27,0.54 -2.79,-4.96 -3.03,-8.01 -1,0.78 -6.02,7.42 -7.06,7.83 -1.9,0.74 -2.64,-0.85 -2.4,-2.61z"/>
   <path class="fil1" d="M44.53 23.1c0.15,0.71 4.03,0.39 5.4,0.39 13.56,0 27.12,0 40.68,0l0 -5.08 -15.95 0c-1.64,0 -4.51,0.34 -4.77,-0.44 -2.36,0.92 -6,0.52 -8.87,0.52 -2.87,0 -6.51,0.4 -8.87,-0.52 -0.51,0.71 -0.52,0.48 -1.75,0.46 -0.7,-0.01 -1.39,-0.02 -2.08,-0.02l-0.15 -0.74c-0.42,0.54 -0.73,2.25 -1.42,3.2 -0.61,0.85 -1.84,1.66 -2.22,2.24z"/>
   <path class="fil1" d="M27.74 56.55l62.87 0 0 -6.05c-1.95,0 -4.23,0.29 -6.07,-0.2 1.1,2.84 -0.18,3.34 -3.18,3.33l-44.38 0c-2.99,0.02 -4.29,-0.49 -3.18,-3.33 -1.83,0.49 -4.12,0.2 -6.06,0.2l0 6.05z"/>
   <path class="fil3" d="M114.39 110.48c-0.34,0.18 -0.36,0.03 -0.54,0.3 -1.28,2.81 -9.08,2 -12.38,2 -28.28,0 -56.55,0 -84.83,0 -3.29,0 -10.88,0.79 -12.15,-2 -0.18,-0.28 -0.16,-0.11 -0.53,-0.29 1.22,4.87 5.55,4.16 10.84,4.16l88.76 0c5.25,0 9.64,0.65 10.84,-4.16z"/>
   <path class="fil1" d="M27.74 69.11l22.76 -0.06c0.87,-0.92 1.81,-0.43 2.66,-0.28 1.6,0.81 7.12,0.34 9.25,0.34 3.16,0 6.32,0 9.48,0 6.24,0 12.48,0 18.72,0l-0 -3.08 -62.87 0 -0 3.08z"/>
   <path class="fil1" d="M27.74 63.1l0 2.93 62.87 0 0 -2.93 -13.41 0c-2.3,0 -3.93,0.42 -3.93,-0.49 -2.05,0.52 -37.23,0.53 -39.29,0 -0.17,0.76 -0,0.53 -1.36,0.52 -0.54,-0 -1.09,-0.03 -1.64,-0.03 -1.08,-0 -2.16,0 -3.24,0z"/>
   <path class="fil0" d="M33.38 43.21c1.36,1.71 2.77,1.17 5.45,1.17l40.45 0c2.72,0 4.31,0.56 5.68,-1.17 0.36,-2.97 -2.12,-2.53 -4.52,-2.53l-42.76 0c-2.37,-0 -4.64,-0.36 -4.29,2.53z"/>
   <path class="fil0" d="M33.8 50.3c-1.11,2.84 0.19,3.34 3.18,3.33l44.38 0c3,0.02 4.27,-0.49 3.18,-3.33 -0.05,-0.01 -0.12,-0.03 -0.15,-0.04 -1.84,-0.55 -3.61,-0.33 -5.81,-0.33l-38.83 0c-1.08,0 -2.16,-0 -3.24,-0.01 -0.53,-0 -1.06,-0.02 -1.58,0.06l-0.99 0.27c-0.02,-0.04 -0.1,0.03 -0.15,0.04z"/>
   <path class="fil4" d="M113.85 110.79c-1.25,0.43 -108.18,0.4 -109.36,-0 1.27,2.79 8.87,2 12.15,2 28.28,0 56.55,0 84.83,0 3.3,0 11.1,0.81 12.38,-2z"/>
   <path class="fil5" d="M11.09 98l96.15 0 0 -2.89 -3.8 -0.09c-1.43,1.54 -1.8,1.13 -4.52,1.13l-79.74 0c-2.66,0 -2.9,0.37 -4.29,-1.13l-3.8 0.09 0 2.89z"/>
   <path class="fil1" d="M66.58 77.66c1.45,0.88 4.24,0.38 5.99,0.38 2,0 4.01,0 6.01,0 4.01,0 8.01,0 12.02,0l0 -5.09 -37.5 0c-0.56,1.54 -1.05,6.07 -1.06,7.9 4.89,-2.5 7.43,-8.35 9.42,-2.74 0.35,-0.18 4.25,-4.85 5.11,-0.46z"/>
   <path class="fil1" d="M27.74 59.86c1.88,0 4.4,0.4 6.06,-0.32 0.05,-0.01 0.13,-0.09 0.15,-0.04l0.62 -0.19c1.09,-0.27 32.89,-0.25 36.87,-0.15 1.46,0.04 1.41,0.28 2.01,0.38 2,0.86 14.06,0.32 17.16,0.32l-0 -3.31 -62.87 0 -0 3.31z"/>
   <polygon class="fil3" points="107.25,98 11.09,98 11.09,99.85 107.25,99.85 "/>
   <path class="fil0" d="M42.54 33.37c0.41,2 1.89,1.77 3.92,1.76l34.67 0c2.03,0.01 3.5,0.24 3.92,-1.76 -0.31,-2.18 -1.78,-1.95 -3.92,-1.94l-34.67 0c-2.13,-0.01 -3.61,-0.24 -3.92,1.94z"/>
   <path class="fil0" d="M33.8 59.54c-1.07,2.74 -0.06,1.7 0.18,3.06 2.06,0.52 37.24,0.52 39.29,-0 0.23,-1.36 1.24,-0.3 0.18,-3.06 -0.6,-0.1 -0.55,-0.35 -2.01,-0.38 -3.97,-0.1 -35.77,-0.12 -36.87,0.15l-0.62 0.19c-0.02,-0.04 -0.1,0.03 -0.15,0.04z"/>
   <path class="fil1" d="M53.11 72.96l37.5 0 0 -3.85c-6.24,0 -12.48,0 -18.72,0 -3.16,0 -6.32,0 -9.48,0 -2.13,0 -7.65,0.47 -9.25,-0.34 0.8,1.94 0.33,2.09 -0.05,4.19z"/>
   <path class="fil1" d="M48.17 17.67l0.15 0.74c0.69,0 1.38,0 2.08,0.02 1.23,0.02 1.24,0.25 1.75,-0.46 -0.01,-0.05 -0.04,-0.18 -0.04,-0.15 -0,0.01 -1.52,-3.03 2.43,-3.04l12.97 0c1.98,0.01 3.08,0.72 2.58,2.57l-0.15 0.46c-0.01,0.03 -0.04,0.1 -0.04,0.15 0.26,0.78 3.12,0.44 4.77,0.44l15.95 0 0 -4.78 -37.91 0c-2.16,0 -4.17,0.32 -5.37,-0.46 0.61,2.01 0.52,2.44 0.84,4.49z"/>
   <path class="fil0" d="M37.29 15.72c-0,-0.56 -0.08,-0.85 0.52,-1.07 0.48,-2.23 5.25,-2.23 5.74,0.01 0.51,0.38 0.55,0.31 0.52,1.07 0.35,0.48 0.36,0.48 0.28,1.33 -0.05,0.5 -0.17,0.77 -0.4,1.12 -1.32,2.89 -5.27,2.84 -6.52,-0.01 -0.26,-0.36 -0.37,-0.6 -0.41,-1.11 -0.04,-0.38 -0.02,-0.47 0.05,-0.83 0.11,-0.5 0.04,-0.25 0.23,-0.52zm-3.25 -2.55c-0.23,0.76 -0.55,1.54 -0.67,2.38 -0.12,0.91 0.02,1.61 -0.14,2.43l0.72 1.69c0.91,2.09 2.28,2.51 2.89,3.43 3.98,1.25 3.73,1.26 7.69,-0 0.39,-0.58 1.61,-1.39 2.22,-2.24 0.68,-0.95 0.99,-2.66 1.42,-3.2 -0.32,-2.06 -0.23,-2.48 -0.84,-4.49 -0.32,-0.18 0.34,0.48 -0.22,-0.24 -1.57,-2.01 -3.01,-3.69 -6.42,-3.69 -4.62,0 -6.17,3.65 -6.65,3.92z"/>
   <path class="fil1" d="M27.74 78.05c2.64,0 13.36,0.41 15.03,-0.28 0.16,-0.09 0.09,-0.03 0.35,-0.25 0.02,-0.02 0.29,-0.26 0.35,-0.31l1.93 -2.24c0.63,-0.79 2.09,-2.28 2.53,-3.16 -1.86,0.74 -16.93,0.3 -20.18,0.3l0 5.93z"/>
   <path class="fil1" d="M83.14 82.86l7.47 0 0 -4.82c-4.01,0 -8.01,0 -12.02,0 -2,0 -4.01,0 -6.01,0 -1.75,0 -4.54,0.5 -5.99,-0.38 0.36,4.67 1.5,3.7 7.15,3.7 1.77,0 3.54,0 5.32,-0 2.17,-0.01 3.4,-0.38 4.09,1.5z"/>
   <path class="fil6" d="M77.82 104.98c-0.07,0.07 0.04,-0.09 -0.29,0.31 -0.03,0.04 -0.27,0.37 -0.28,0.38 -0.41,0.66 -0.27,0.34 -0.38,0.96 -0.39,0.9 -0.12,0.13 0.11,0.46l37.68 0c-0,-0.38 0.04,-1.13 -0,-1.48 -0.13,-0.99 0.06,-0.42 -0.33,-0.85 -0.71,0.71 -3.17,0.3 -4.3,0.3 -4.79,-0 -30.14,0.19 -32.2,-0.09z"/>
   <path class="fil6" d="M3.7 107.09l38.23 -0.08 -1.4 -2.05c-1.98,0.3 -23.86,0.1 -27.82,0.1 -1.32,0 -8.02,0.36 -8.69,-0.31 -0.45,0.5 -0.27,0.15 -0.34,1.08 -0.02,0.32 0.01,0.9 0.01,1.26z"/>
   <path class="fil1" d="M27.74 72.11c3.24,0 18.32,0.44 20.18,-0.3 0.22,-0.11 0.04,0.03 0.34,-0.25l2.25 -2.52 -22.76 0.06 0 3.01z"/>
   <path class="fil0" d="M52.15 17.97c2.36,0.92 6,0.52 8.87,0.52 2.87,0 6.51,0.4 8.87,-0.52 0.01,-0.05 0.04,-0.12 0.04,-0.15l0.15 -0.46c0.5,-1.86 -0.59,-2.57 -2.58,-2.57l-12.97 0c-3.96,0.01 -2.43,3.05 -2.43,3.04 0.01,-0.03 0.04,0.1 0.04,0.15z"/>
   <path class="fil1" d="M27.74 82.86l10.63 0 0.66 -0.58c0.62,-0.45 1.2,-1.35 1.87,-2.08 0.51,-0.57 1.59,-1.75 1.86,-2.43 -1.67,0.69 -12.39,0.28 -15.03,0.28l0 4.82z"/>
   <path class="fil7" d="M77.82 104.98c2.06,0.29 27.41,0.09 32.2,0.09 1.12,0 3.58,0.4 4.3,-0.3 -0.3,-1.47 -1.72,-1.23 -3.37,-1.22 -10.37,0.05 -22.45,-0.27 -32.33,0.04l-0.79 1.39z"/>
   <path class="fil7" d="M4.02 104.76c0.67,0.67 7.36,0.31 8.69,0.31 3.96,0 25.84,0.2 27.82,-0.1l-0.77 -1.4c-10.13,-0.27 -21.87,0.04 -32.37,-0.02 -1.65,-0.01 -3.07,-0.25 -3.37,1.22z"/>
   <path class="fil8" d="M75.73 108.28c0.72,0.67 7.8,0.24 9.33,0.24 3.31,0 6.63,0 9.94,0 6.55,0 13.1,0 19.65,0l-0 -1.42 -37.68 0c-0.23,-0.33 -0.5,0.44 -0.11,-0.46 -0.65,0.4 -1,1.01 -1.13,1.64z"/>
   <polygon class="fil8" points="3.7,108.51 42.86,108.41 41.93,107.01 3.7,107.09 "/>
   <path class="fil1" d="M73.27 62.6c0,0.91 1.63,0.49 3.93,0.49l13.41 0 0 -3.24c-3.1,0 -15.16,0.54 -17.16,-0.32 1.07,2.76 0.06,1.7 -0.18,3.06z"/>
   <polygon class="fil9" points="45.3,105.38 46.23,105.4 72.11,105.4 73.01,105.36 74.13,103.6 73.15,103.55 45.07,103.53 44.2,103.63 "/>
   <path class="fil10" d="M103.44 34.53l3.8 0.03c-0.01,-6.43 -4.31,-4.97 -12.95,-4.97l0 3.7c1.7,0 3.39,0 5.09,-0 2.17,-0 3.07,-0.37 4.06,1.24z"/>
   <path class="fil10" d="M11.09 34.55l3.8 -0.03c0.95,-1.56 1.72,-1.25 3.83,-1.24 1.77,0.01 3.54,0 5.32,0l0 -3.7c-8.74,0 -12.94,-1.41 -12.95,4.97z"/>
   <path class="fil1" d="M27.74 18.41l0 5.08 8.11 0.03c1.28,-0.1 0.68,0.21 0.99,-0.42 -0.61,-0.92 -1.98,-1.34 -2.89,-3.43l-0.72 -1.69c-0.45,0.66 -0.12,0.43 -1.31,0.46 -0.4,0.01 -0.97,-0.03 -1.4,-0.03 -0.92,-0.01 -1.85,-0 -2.77,-0z"/>
   <path class="fil1" d="M27.74 18.41c0.92,0 1.85,-0.01 2.77,0 0.43,0 1,0.04 1.4,0.03 1.19,-0.03 0.87,0.21 1.31,-0.46 0.16,-0.82 0.02,-1.51 0.14,-2.43 0.11,-0.84 0.43,-1.62 0.67,-2.38 -1.11,0.72 -1.9,0.47 -3.29,0.46 -1,-0 -2,-0 -3.01,-0l0 4.78z"/>
   <polygon class="fil11" points="18.49,87.6 24.04,87.6 24.04,82.69 18.49,82.69 "/>
   <polygon class="fil12" points="94.3,47.07 99.85,47.07 99.85,42.3 94.3,42.3 "/>
   <polygon class="fil13" points="94.3,79.66 99.85,79.66 99.85,75 94.3,75 "/>
   <polygon class="fil14" points="94.3,84.3 99.85,84.3 99.85,79.66 94.3,79.66 "/>
   <polygon class="fil13" points="18.49,79.64 24.04,79.64 24.04,75 18.49,75 "/>
   <polygon class="fil15" points="94.3,54.7 99.85,54.7 99.85,50.07 94.3,50.07 "/>
   <polygon class="fil15" points="18.49,54.7 24.04,54.7 24.04,50.07 18.49,50.07 "/>
   <polygon class="fil16" points="18.49,50.07 24.04,50.07 24.04,45.53 18.49,45.53 "/>
   <polygon class="fil17" points="18.49,65.45 24.04,65.45 24.04,60.92 18.49,60.92 "/>
   <polygon class="fil17" points="94.3,65.45 99.85,65.45 99.85,60.92 94.3,60.92 "/>
   <polygon class="fil18" points="103.55,40.47 107.25,40.47 107.25,34.55 103.44,34.53 "/>
   <polygon class="fil18" points="11.09,40.47 14.79,40.47 14.89,34.53 11.09,34.55 "/>
   <polygon class="fil19" points="103.45,95.02 107.25,95.11 107.25,89.15 103.55,89.15 "/>
   <polygon class="fil19" points="11.09,95.11 14.89,95.02 14.79,89.15 11.09,89.15 "/>
   <polygon class="fil20" points="11.09,77.55 14.79,77.55 14.79,71.59 11.09,71.59 "/>
   <polygon class="fil20" points="103.55,77.55 107.25,77.55 107.25,71.59 103.55,71.59 "/>
   <polygon class="fil21" points="11.09,89.15 14.79,89.15 14.79,83.27 11.09,83.27 "/>
   <polygon class="fil21" points="103.55,89.15 107.25,89.15 107.25,83.27 103.55,83.27 "/>
   <polygon class="fil22" points="103.55,46.23 107.25,46.23 107.25,40.47 103.55,40.47 "/>
   <polygon class="fil23" points="103.55,56.03 107.25,56.03 107.25,50.28 103.55,50.28 "/>
   <polygon class="fil24" points="11.09,83.27 14.79,83.27 14.79,77.55 11.09,77.55 "/>
   <polygon class="fil24" points="103.55,83.27 107.25,83.27 107.25,77.55 103.55,77.55 "/>
   <path class="fil25" d="M102.39 12.94l2.35 0c0,-1.39 0,-2.77 0,-4.16 0,-0.98 -0.4,-3.53 0.32,-4.04 -0.51,-0.69 -0.99,-0.72 -1.88,-0.7l-0.79 0.12 0 8.78z"/>
   <polygon class="fil26" points="18.49,42.3 24.04,42.3 24.04,38.79 18.49,38.79 "/>
   <polygon class="fil26" points="94.3,42.3 99.85,42.3 99.85,38.79 94.3,38.79 "/>
   <path class="fil1" d="M27.74 63.1c1.08,0 2.16,-0 3.24,0 0.55,0 1.1,0.03 1.64,0.03 1.36,0.01 1.19,0.24 1.36,-0.52 -0.24,-1.36 -1.25,-0.32 -0.18,-3.06 -1.66,0.72 -4.18,0.32 -6.06,0.32l0 3.24z"/>
   <polygon class="fil27" points="94.3,75 99.85,75 99.85,71.65 94.3,71.65 "/>
   <polygon class="fil27" points="18.49,75 24.04,75 24.04,71.65 18.49,71.65 "/>
   <polygon class="fil28" points="94.3,58.01 99.85,58.01 99.85,54.7 94.3,54.7 "/>
   <polygon class="fil28" points="18.49,58.01 24.04,58.01 24.04,54.7 18.49,54.7 "/>
   <polygon class="fil29" points="94.3,68.76 99.85,68.76 99.85,65.45 94.3,65.45 "/>
   <polygon class="fil29" points="18.49,68.76 24.04,68.76 24.04,65.45 18.49,65.45 "/>
   <polygon class="fil11" points="94.3,87.6 99.85,87.6 99.85,84.3 94.3,84.3 "/>
   <path class="fil30" d="M98.69 4.45c-0.55,1.39 -0.23,6.65 -0.23,8.49l2.02 0 0 -9.15 -1.79 0.65z"/>
   <polygon class="fil12" points="18.49,45.53 24.04,45.53 24.04,42.3 18.49,42.3 "/>
   <path class="fil31" d="M100.48 3.8l0 9.15 1.91 -0 0 -8.78 0.79 -0.12c-0.55,-0.5 -1.9,-0.34 -2.7,-0.24z"/>
   <path class="fil22" d="M106.24 12.94l2.86 0c0,-3.04 -0.49,-6.39 -2.65,-7.25 -0.58,0.68 -0.21,5.94 -0.21,7.24z"/>
   <polygon class="fil32" points="18.49,82.69 24.04,82.69 24.04,79.64 18.49,79.64 "/>
   <polygon class="fil33" points="94.3,90.6 99.85,90.6 99.85,87.6 94.3,87.6 "/>
   <polygon class="fil33" points="18.49,90.6 24.04,90.6 24.04,87.6 18.49,87.6 "/>
   <polygon class="fil16" points="94.3,50.07 99.85,50.07 99.85,47.07 94.3,47.07 "/>
   <polygon class="fil34" points="18.49,60.92 24.04,60.92 24.04,58.01 18.49,58.01 "/>
   <polygon class="fil34" points="94.3,60.92 99.85,60.92 99.85,58.01 94.3,58.01 "/>
   <polygon class="fil35" points="94.3,71.65 99.85,71.65 99.85,68.76 94.3,68.76 "/>
   <polygon class="fil35" points="18.49,71.65 24.04,71.65 24.04,68.76 18.49,68.76 "/>
   <polygon class="fil22" points="11.09,44.53 14.79,44.53 14.79,40.47 11.09,40.47 "/>
   <polygon class="fil36" points="103.55,50.28 107.25,50.28 107.25,46.23 103.55,46.23 "/>
   <polygon class="fil31" points="11.09,67.88 14.79,67.88 14.79,63.87 11.09,63.87 "/>
   <polygon class="fil31" points="103.55,67.88 107.25,67.88 107.25,63.87 103.55,63.87 "/>
   <polygon class="fil8" points="11.09,59.99 14.79,59.99 14.79,56.03 11.09,56.03 "/>
   <polygon class="fil8" points="103.55,59.99 107.25,59.99 107.25,56.03 103.55,56.03 "/>
   <path class="fil24" d="M96.77 5.84c-0.43,1.55 -0.17,5.3 -0.17,7.11l1.86 -0c0,-1.84 -0.32,-7.1 0.23,-8.49 -1.01,0.33 -1.52,0.59 -1.93,1.39z"/>
   <polygon class="fil6" points="11.09,52.16 14.79,52.16 14.79,48.22 11.09,48.22 "/>
   <path class="fil37" d="M37.42 18.18c1.34,0.27 5.17,0.26 6.52,0.01 0.24,-0.36 0.36,-0.62 0.4,-1.12 0.08,-0.85 0.07,-0.86 -0.28,-1.33 -0.33,0.85 -0.21,0.61 -1.52,0.59l-3.98 0.01c-1.02,-0.01 -1.03,0.26 -1.29,-0.61 -0.19,0.27 -0.12,0.02 -0.23,0.52 -0.08,0.36 -0.09,0.45 -0.05,0.83 0.05,0.51 0.16,0.75 0.41,1.11z"/>
   <polygon class="fil38" points="11.09,63.87 14.79,63.87 14.79,59.99 11.09,59.99 "/>
   <polygon class="fil38" points="103.55,63.87 107.25,63.87 107.25,59.99 103.55,59.99 "/>
   <polygon class="fil23" points="11.09,56.03 14.79,56.03 14.79,52.16 11.09,52.16 "/>
   <polygon class="fil39" points="103.55,71.59 107.25,71.59 107.25,67.88 103.55,67.88 "/>
   <polygon class="fil39" points="11.09,71.59 14.79,71.59 14.79,67.88 11.09,67.88 "/>
   <polygon class="fil40" points="11.09,48.22 14.79,48.22 14.79,44.53 11.09,44.53 "/>
   <path class="fil41" d="M96.6 12.94c0,-1.81 -0.26,-5.56 0.17,-7.11 -2.18,1.27 -2.46,3.95 -2.46,7.1l2.29 0z"/>
   <path class="fil6" d="M104.75 12.94l1.5 -0c0,-1.3 -0.37,-6.56 0.21,-7.24 -0.37,-0.79 -0.6,-0.88 -1.39,-0.96 -0.72,0.51 -0.32,3.06 -0.32,4.04 0,1.39 0,2.77 0,4.16z"/>
   <polygon class="fil42" points="99.85,90.6 94.3,90.6 94.3,92.45 99.85,92.45 "/>
   <polygon class="fil42" points="24.04,90.6 18.49,90.6 18.49,92.45 24.04,92.45 "/>
   <polygon class="fil43" points="18.49,38.79 24.04,38.79 24.04,36.98 18.49,36.98 "/>
   <polygon class="fil43" points="94.3,38.79 99.85,38.79 99.85,36.98 94.3,36.98 "/>
   <path class="fil44" d="M37.29 15.72c0.26,0.87 0.27,0.61 1.29,0.61l3.98 -0.01c1.31,0.02 1.19,0.26 1.52,-0.59 0.03,-0.77 -0.01,-0.7 -0.52,-1.07 -0.2,0.61 0.14,0.35 -0.99,0.39l-4.75 -0.4c-0.6,0.22 -0.52,0.51 -0.52,1.07z"/>
   <path class="fil45" d="M43.94 18.19c-1.35,0.25 -5.19,0.26 -6.52,-0.01 1.25,2.85 5.2,2.9 6.52,0.01z"/>
   <path class="fil46" d="M37.81 14.65l4.75 0.4c1.13,-0.04 0.79,0.22 0.99,-0.39 -0.5,-2.24 -5.26,-2.24 -5.74,-0.01z"/>
  </g>
 </g>
</svg>
