<?xml version="1.0" encoding="UTF-8"?>
<!DOCTYPE svg PUBLIC "-//W3C//DTD SVG 1.1//EN" "http://www.w3.org/Graphics/SVG/1.1/DTD/svg11.dtd">
<!-- Creator: CorelDRAW 2020 (64-Bit) -->
<svg xmlns="http://www.w3.org/2000/svg" xml:space="preserve" width="149.347mm" height="161.896mm" version="1.1" style="shape-rendering:geometricPrecision; text-rendering:geometricPrecision; image-rendering:optimizeQuality; fill-rule:evenodd; clip-rule:evenodd"
viewBox="0 0 150.23 162.86"
 xmlns:xlink="http://www.w3.org/1999/xlink"
 xmlns:xodm="http://www.corel.com/coreldraw/odm/2003">
 <defs>
  <style type="text/css">
   <![CDATA[
    .fil1 {fill:black}
    .fil5 {fill:#EDF1F1}
    .fil3 {fill:#EEF1F1}
    .fil0 {fill:#EFF3F3}
    .fil2 {fill:#FECA7C}
    .fil4 {fill:#FFE6C0}
   ]]>
  </style>
 </defs>
 <g id="Capa_x0020_1">
  <metadata id="CorelCorpID_0Corel-Layer"/>
  <g id="_1752647011920">
   <path class="fil0" d="M25.11 58.08c1.81,-0.58 45.02,-0.19 53.15,-0.19 2.3,0 6.59,-0.55 8.13,0.77 1.74,1.49 1.28,4.7 -0.99,5.4 -1.94,0.6 -45.04,0.19 -53.27,0.19 -2.28,0 -6.52,0.57 -8.11,-0.79 -1.84,-1.57 -1.21,-4.64 1.08,-5.38zm14.31 -20.36c1.83,-0.59 42.52,-0.21 50.29,-0.21 2.33,-0 5.77,-0.56 7.33,0.95 1.66,1.61 0.9,4.58 -1.18,5.21 -2.07,0.63 -42.42,0.2 -50.37,0.2 -2.3,0 -5.71,0.64 -7.32,-0.92 -1.87,-1.81 -0.88,-4.54 1.24,-5.22zm-14.31 0c4.22,-1.35 5.65,4.85 2.03,5.95 -4.25,1.3 -5.73,-4.77 -2.03,-5.95zm92.59 48.69l0 -8.87c-12.17,-1.31 -15.63,6.53 -20.2,14.55l-19.45 33.67c-1.62,2.72 -4.79,9.07 -6.63,10.87 -8.62,8.47 -20.64,-2.37 -15.25,-11.16 -3.73,-0.69 -14.48,-0.14 -18.95,-0.14 -5.51,0 -16.62,1.45 -14.06,-4.51 1.08,-2.52 4.91,-1.85 7.7,-1.85l28.63 0c1.19,-0.55 3.57,-5.39 4.35,-6.78 1.18,-2.1 3.23,-5.06 4.07,-7.21 -8.43,0 -16.86,0 -25.28,0 -2.47,0 -16.62,0.53 -18.25,-0.51 -1.25,-0.8 -1.98,-2.6 -1.11,-4.22 1.48,-2.75 7.65,-1.63 10.77,-1.63l37.22 0c0.84,-0.19 7.91,-12.76 8.41,-14l-54.15 -0.07c-2.01,-0.36 -3.33,-2.62 -2.24,-4.65 1.13,-2.09 3.9,-1.64 6.32,-1.63l53.44 0c0.72,-0.18 3.49,-5.41 5.44,-7.6 7.07,-7.94 14.48,-11.51 26.02,-12.39l0 -31.53c-3.87,-0.11 -7.86,-0.02 -11.75,-0.02 -3.8,0 -7.73,1 -8.6,-2.84 -0.47,-0.52 -0.59,-0.83 -0.66,-1.9 -0.03,-0.4 0.09,-1.24 0.08,-1.67 -0.01,-2.27 1.04,-1.52 -8,-1.52l-0 -0.32c-0.7,-0.52 -0.32,-10 -0.32,-11.45 1.37,-0.01 2.76,-0 4.14,-0 5.1,0.01 3.77,0.34 4.14,-0.62l-87.18 -0.01 0 150.14 80.46 -0.06c-0.99,-1.33 -2.07,-2.35 -3.15,-4.06 -3.26,-5.13 -4.19,-11.94 -2.52,-17.83 1.07,-3.8 2.94,-6.41 4.73,-9.57l15.7 -27.25c3.66,-6.23 6.1,-14.11 16.14,-11.32z"/>
   <path class="fil1" d="M112.66 64.77c20.13,-1.98 35.61,17.28 29.93,36.77 -1.84,6.3 -20.67,37.2 -24.73,44.29 -2.91,5.09 -5.5,9.21 -12.81,10.44 -11.8,1.98 -23.72,-10.36 -15.81,-24.42 2.75,-4.89 5.69,-9.77 8.49,-14.73l12.69 -21.98c3.17,-5.54 6.21,-2.25 6.58,-0.88 0.65,2.44 -5.68,11.97 -7.63,15.41 -2.83,5 -5.63,9.7 -8.38,14.53 -1.77,3.1 -7.55,12 -7.91,15.25 -1.06,9.35 11.57,15.98 18.16,5.18 6.83,-11.2 14.33,-25.05 21.18,-36.71 3.05,-5.19 5.9,-9.97 4.81,-17.68 -1.64,-11.55 -12.53,-21.52 -26.38,-18.8 -12.65,2.49 -16.41,13.23 -22.43,23.64l-19.22 33.26c-0.59,1.02 -1.38,2.7 -2.08,3.66 -2.01,2.75 -6.76,0.78 -5.55,-2.98 0.46,-1.44 3.26,-5.79 4.14,-7.34l21.07 -36.5c2.2,-3.91 3.98,-7.28 6.76,-10.74 3.86,-4.79 11.68,-8.93 19.12,-9.67zm-109.93 -64.77l8.1 0 77.29 0 9.77 0c1.56,0.36 2.33,1.45 5.26,4.37l14.63 14.63c3.27,3.27 3.13,2.33 3.1,6.44 -0.04,6.46 -0,12.94 -0,19.41 0,17.14 -1.16,13.22 4.32,14.76 20.06,5.65 31.18,29.29 21.45,49.18l-7.07 12.34c-5.51,9.17 -12.36,22.11 -17.69,30.66 -2.67,4.28 -2.16,2.76 -4.2,5.25 -0.51,0.31 -0.18,0.09 -0.61,0.42l-2.83 2.21c-2.53,1.21 -4.08,2.13 -7.13,2.79 -0.86,0.19 -4.22,0.31 -9,0.39l-58.36 0 -33.24 0c-2.86,-0.08 -4.81,-0.22 -5.15,-0.42 -1.27,-0.77 -1.4,-1.75 -1.39,-3.7 0.34,-49.79 0.01,-100.27 0.01,-150.15 0,-6.58 -0.23,-8.24 2.72,-8.59zm114.97 77.54c4.6,1.59 7.09,1.93 10.5,6.75 2.42,3.41 3.65,8.63 2.03,13.8 -0.71,2.26 -1.82,3.77 -2.88,5.71 -1.06,1.94 -2.02,3.52 -3.15,5.43 -0.95,1.61 -5.37,9.69 -6.49,11 -0.18,0.96 -11.93,21.6 -12.99,22.63 -2.44,2.37 -7.06,-0.25 -4.56,-4.57 2.93,-5.06 5.75,-10.06 8.75,-15.1 1.38,-2.32 7.82,-13.97 8.8,-14.96 1.63,-3.64 4.94,-7.28 5.77,-11.19 1.05,-4.92 -2.17,-9.23 -5.77,-10.64 -10.04,-2.79 -12.48,5.09 -16.14,11.32l-15.7 27.25c-1.79,3.16 -3.66,5.77 -4.73,9.57 -1.67,5.89 -0.73,12.7 2.52,17.83 1.08,1.7 2.16,2.73 3.15,4.06l-80.46 0.06 0 -150.14 87.18 0.01c0.95,0.64 0.28,-0.14 0.58,0.96l0.04 16.52c0.88,3.85 4.81,2.84 8.6,2.84 3.89,0 7.87,-0.09 11.75,0.02l0 31.53c-11.54,0.89 -18.95,4.45 -26.02,12.39 -1.95,2.19 -4.73,7.43 -5.44,7.6l-53.44 -0c-2.42,-0 -5.19,-0.46 -6.32,1.63 -1.09,2.03 0.23,4.29 2.24,4.65l54.15 0.07c-0.5,1.23 -7.57,13.8 -8.41,14l-37.22 0c-3.12,0 -9.29,-1.11 -10.77,1.63 -0.87,1.61 -0.14,3.41 1.11,4.22 1.63,1.04 15.78,0.51 18.25,0.51 8.43,0 16.86,0 25.28,0 -0.85,2.15 -2.9,5.11 -4.07,7.21 -0.78,1.4 -3.16,6.23 -4.35,6.78l-28.63 0c-2.78,-0 -6.61,-0.67 -7.7,1.85 -2.56,5.96 8.55,4.51 14.06,4.51 4.47,0 15.21,-0.55 18.95,0.14 -5.39,8.78 6.63,19.63 15.25,11.16 1.83,-1.8 5.01,-8.15 6.63,-10.87l19.45 -33.67c4.58,-8.01 8.03,-15.85 20.2,-14.55zm-17.19 -66.5c1.18,0.64 8.7,8.12 9.3,9.29l-9.3 0 0 -9.29z"/>
   <path class="fil2" d="M112.66 64.77c-7.44,0.73 -15.26,4.87 -19.12,9.67 -2.78,3.46 -4.56,6.83 -6.76,10.74l-21.07 36.5c-0.88,1.55 -3.68,5.9 -4.14,7.34 -1.21,3.76 3.54,5.73 5.55,2.98 0.7,-0.96 1.49,-2.63 2.08,-3.66l19.22 -33.26c6.03,-10.41 9.78,-21.16 22.43,-23.64 13.85,-2.73 24.74,7.24 26.38,18.8 1.09,7.72 -1.75,12.49 -4.81,17.68 -6.85,11.66 -14.35,25.51 -21.18,36.71 -6.59,10.8 -19.22,4.17 -18.16,-5.18 0.37,-3.25 6.15,-12.14 7.91,-15.25 2.75,-4.83 5.55,-9.52 8.38,-14.53 1.94,-3.44 8.28,-12.97 7.63,-15.41 -0.37,-1.37 -3.41,-4.66 -6.58,0.88l-12.69 21.98c-2.81,4.96 -5.75,9.84 -8.49,14.73 -7.9,14.06 4.01,26.4 15.81,24.42 7.31,-1.23 9.9,-5.35 12.81,-10.44 4.05,-7.1 22.89,-37.99 24.73,-44.29 5.68,-19.5 -9.8,-38.76 -29.93,-36.77z"/>
   <path class="fil1" d="M25.11 58.08c-2.29,0.73 -2.92,3.8 -1.08,5.38 1.59,1.36 5.83,0.79 8.11,0.79 8.23,0 51.33,0.42 53.27,-0.19 2.26,-0.71 2.73,-3.92 0.99,-5.4 -1.54,-1.32 -5.83,-0.77 -8.13,-0.77 -8.14,0 -51.34,-0.39 -53.15,0.19z"/>
   <path class="fil1" d="M39.42 37.73c-2.12,0.69 -3.11,3.41 -1.24,5.22 1.61,1.57 5.02,0.92 7.32,0.92 7.95,-0 48.3,0.43 50.37,-0.2 2.08,-0.63 2.84,-3.6 1.18,-5.21 -1.57,-1.52 -5.01,-0.95 -7.33,-0.95 -7.77,0 -48.46,-0.38 -50.29,0.21z"/>
   <path class="fil3" d="M117.71 120.23l-0 -11.99c-0.98,0.99 -7.42,12.64 -8.8,14.96 -3,5.03 -5.83,10.04 -8.75,15.1 -2.5,4.32 2.12,6.94 4.56,4.57 1.07,-1.03 12.81,-21.67 12.99,-22.63z"/>
   <path class="fil3" d="M94.15 23.85l-0.04 -16.52c-0.31,-1.1 0.37,-0.32 -0.58,-0.96 -0.37,0.96 0.96,0.63 -4.14,0.62 -1.38,-0 -2.76,-0.01 -4.14,0 0,1.45 -0.38,10.93 0.32,11.45l0 0.32c9.04,0 7.99,-0.75 8,1.52 0,0.43 -0.11,1.27 -0.08,1.67 0.07,1.07 0.19,1.37 0.66,1.9z"/>
   <path class="fil4" d="M100.51 20.34l9.3 -0c-0.61,-1.18 -8.12,-8.65 -9.3,-9.29l-0 9.29z"/>
   <path class="fil1" d="M25.11 37.73c-3.7,1.18 -2.22,7.25 2.03,5.95 3.62,-1.1 2.18,-7.3 -2.03,-5.95z"/>
   <path class="fil5" d="M114.26 159.68l3.44 0 0 -2.63c-0.51,0.31 -0.18,0.09 -0.61,0.42l-2.83 2.21z"/>
  </g>
 </g>
</svg>
