<?xml version="1.0" encoding="UTF-8"?>
<!DOCTYPE svg PUBLIC "-//W3C//DTD SVG 1.1//EN" "http://www.w3.org/Graphics/SVG/1.1/DTD/svg11.dtd">
<!-- Creator: CorelDRAW 2020 (64-Bit) -->
<svg xmlns="http://www.w3.org/2000/svg" xml:space="preserve" width="190.002mm" height="143.364mm" version="1.1" style="shape-rendering:geometricPrecision; text-rendering:geometricPrecision; image-rendering:optimizeQuality; fill-rule:evenodd; clip-rule:evenodd"
viewBox="0 0 308.61 232.86"
 xmlns:xlink="http://www.w3.org/1999/xlink"
 xmlns:xodm="http://www.corel.com/coreldraw/odm/2003">
 <defs>
  <style type="text/css">
   <![CDATA[
    .fil0 {fill:black}
    .fil4 {fill:#98D43B}
    .fil2 {fill:#BBE972}
    .fil3 {fill:#FEC108}
    .fil1 {fill:#FEDE00}
   ]]>
  </style>
 </defs>
 <g id="Capa_x0020_1">
  <metadata id="CorelCorpID_0Corel-Layer"/>
  <path class="fil0" d="M262.83 214.11l-0.47 2.32c-1.3,0.24 -7.6,-3.88 -8.09,-4.87 -4.46,-2 -10.03,-6.26 -14.47,-9.02 -0.64,-0.4 -1.63,-0.98 -2.23,-1.38l-2.13 -1.83 27.86 0.13c0,4.34 0.98,11.2 -0.47,14.66zm45.79 -165.99l0 7.56c-0.22,2.99 -0.7,6.01 -1.46,9.05 -2.58,10.24 -10.85,23.65 -19.03,27.98 0,20.29 0,40.59 0,60.88 0,17.08 2.97,30.08 -5.94,39.87 -1.64,1.8 -6.71,5.08 -9.74,5.33 0,11.77 2.48,29.1 -15.7,33.13 -7.71,1.71 -110.71,0.5 -133.81,0.65 -4.62,0.03 -6.93,-0.44 -7.3,-4.85 1.06,-6.24 7.29,-4.5 13.36,-4.5l89.21 0c11.16,0 24.97,0.72 35.82,-0.14 -0.18,-1.05 -16.43,-11.68 -18.45,-11.94 -1.52,-2.34 -11.45,-7.81 -14.41,-9.89 -3.87,-2.73 -4.69,-1.95 -10.19,-1.94l-110.3 0c-17.85,0 -17.01,-2.64 -29.98,6.27 -2.41,1.65 -6.01,3.57 -7.63,5.33 -2.85,0.68 -18.19,11.83 -19.25,12.2 7.99,0.76 36.34,0.13 47.82,0.12 5.8,-0 11.07,-1.54 12.11,4.5 -0.36,5.84 -5.02,4.83 -10.91,4.82l-45.21 0c-5.91,0.01 -9.51,-0.02 -13.68,-1.99 -13.72,-6.46 -11.63,-20.01 -11.63,-33.57 -10.14,0 -21.71,1.91 -22.3,-4.3l0 -1.05c0.58,-6.22 11.46,-4.3 22.3,-4.3l0 -34.36c-10.88,0 -21.72,1.93 -22.3,-4.29l0 -1.05c0.6,-6.19 12.19,-4.3 22.3,-4.3l0 -28.93c-8.78,0 -22.33,1.89 -22.15,-4.75 0.18,-6.83 12.14,-4.9 22.15,-4.9 0,-11.9 -1.57,-22.52 3.71,-30.64 6.34,-9.74 16.48,-8.54 25.82,-8.54 0,-12.07 -1.86,-26.73 13.77,-32.03 7.31,-2.48 33.45,-1.12 44.09,-1.12l68.11 0c9.83,0 16.92,-1.72 18.29,4.22 -1.4,6.74 -5.1,5.06 -16.49,5.06l-105.51 -0.01c-6.84,0.01 -11.12,2.58 -12.62,8.22 -1.75,6.56 0.69,5.84 8.56,11.92 8.03,6.2 16.08,11.87 24.35,17.85l73.77 54.06 54.84 -39.85c0.08,-0.06 0.9,-0.77 0.96,-0.83 0.55,-0.56 0.46,-0.5 0.79,-0.96 -4.35,-5.34 -10.74,-8.22 -15.89,-22.01 -4.3,-11.51 -4.08,-20.54 -1.38,-32.84 2.61,-7.58 5.46,-14.42 11.46,-20.35 6.03,-5.96 10.05,-9.47 18.36,-12.99 17.52,-7.43 36.34,-3.6 49.25,5.36 12.35,8.57 20.88,22.86 22.06,38.83zm-259.57 160.27c-0.83,1.26 -13.49,9.36 -15.28,10.07 -1.34,-1.39 -1.48,-2.02 -1.72,-4.1 -1.09,-1.35 -1.64,-57.28 -0.36,-61.63l18.37 -0.2c2.87,0.3 0.85,0.03 1.9,0.64 0.74,8.92 -0.89,20.56 0.36,29.01 1.44,9.71 6.78,12.57 12.71,15.91 -1.21,1.58 -13.68,9.51 -15.98,10.3zm95.62 -80.21c5.88,2.28 19.04,16.46 25.19,15.15 2.08,-0.44 9.96,-6.59 11.96,-8.04 1.82,-1.32 4.04,-3.05 5.88,-4.36 2.02,-1.45 3.58,-2.95 5.79,-4.04l21.52 13.64c6.95,4.44 61.62,39.39 63.34,41.4 -1.53,5.29 -5.28,8.36 -11.92,8.36l-192.28 0c-6.7,0 -11.45,-2.52 -12.49,-8.36 2.56,-2.39 7.17,-4.8 10.36,-6.95 3.2,-2.16 6.75,-4.42 10.24,-6.63 7.03,-4.45 13.6,-8.88 20.9,-13.46 11.9,-7.48 30.58,-20.39 41.51,-26.71zm-112.57 -44.78c0.48,-4.3 4.13,-8.45 8.7,-8.12 2.36,-1.07 7.43,-0.62 10.61,-0.46 1.11,0.85 0.95,0.51 0.91,4.03 -0.18,14.67 0.75,57.84 -0.2,64.79 -2.81,0.97 -17.48,0.91 -20.62,0.17 -0.73,-3.82 -0.86,-59.72 0.6,-60.4zm29.01 -16.47c1.2,0.41 74.5,53.74 75.56,55.32l-56.9 36.97c-3.61,2.26 -15.66,10.83 -18.66,11.69l0 -103.98zm191.46 36.22c12.77,0.47 15.68,-1.26 26.19,-4.38l-0 71.83c-2.82,-1.22 -15.01,-8.93 -17.19,-10.92 -3.31,-1.42 -58.31,-37.4 -59.95,-38.78 1.63,-1.63 3.71,-2.9 5.59,-4.24 38.6,-27.69 16.17,-17.49 45.37,-13.51zm-3.31 -92.74c3.48,-3.02 16.7,-0.4 20.84,0.89 5.35,1.66 12.07,5.6 15.05,8.47 26.5,25.53 13.57,63.28 -15.02,72.43 -5.51,1.76 -15.52,3.83 -20.67,1.06 -8.92,0.29 -19.19,-8.1 -24.61,-13.81 -5.55,-5.85 -10.28,-16.45 -10.29,-27.72 -0.01,-5.76 1.14,-11.32 3.18,-16.15 5.2,-12.36 19.5,-25.62 31.53,-25.17z"/>
  <path class="fil1" d="M207.49 37.27c-3.35,0 -9.12,0.76 -11.38,-0.6 -1.4,6.74 -5.1,5.06 -16.49,5.06l-105.51 -0.01c-6.84,0.01 -11.12,2.58 -12.62,8.22 -1.75,6.56 0.69,5.84 8.56,11.92 8.03,6.2 16.08,11.87 24.35,17.85l73.77 54.06 54.84 -39.85c0.08,-0.06 0.9,-0.77 0.96,-0.83 0.55,-0.56 0.46,-0.5 0.79,-0.96 -4.35,-5.34 -10.74,-8.22 -15.89,-22.01 -4.3,-11.51 -4.08,-20.54 -1.38,-32.84z"/>
  <path class="fil1" d="M144.66 128.19c-10.93,6.32 -29.62,19.23 -41.51,26.71 -7.3,4.59 -13.87,9.02 -20.9,13.46 -3.5,2.21 -7.04,4.47 -10.24,6.63 -3.19,2.15 -7.79,4.55 -10.36,6.95 1.04,5.84 5.78,8.36 12.49,8.36l192.28 0c6.64,0 10.39,-3.07 11.92,-8.36 -1.72,-2.02 -56.39,-36.96 -63.34,-41.4l-21.52 -13.64c-2.21,1.09 -3.77,2.59 -5.79,4.04 -1.84,1.31 -4.06,3.04 -5.88,4.36 -2,1.45 -9.89,7.6 -11.96,8.04 -6.15,1.31 -19.31,-12.87 -25.19,-15.15z"/>
  <path class="fil1" d="M61.1 170.92c3,-0.86 15.05,-9.43 18.66,-11.69l56.9 -36.97c-1.06,-1.59 -74.36,-54.92 -75.56,-55.32l0 103.98z"/>
  <path class="fil2" d="M249.45 93.27c7.51,-0.77 16.83,-12.22 20.21,-17.8 4.92,-8.14 7.88,-20.24 5.68,-31.07 -1.99,1.75 -4.37,5.1 -6.2,7.05l-12.32 14.18c-4.97,6.04 -6.12,5.94 -15.72,-3.05 -1.85,-1.73 -5.91,-3.69 -5.93,-7.23 -0.03,-4.18 4.03,-5.88 7.75,-3.04 2.78,2.13 4.69,4.35 7.82,6.32 1.31,-1 4.26,-4.57 5.53,-6.2 3.72,-4.75 12.42,-13.76 15.71,-18.21 0.45,-4.31 -6.65,-12.42 -8.9,-14.71 -3.5,-3.57 -7.37,-8.1 -13.83,-9.11 -12.03,-0.45 -26.33,12.81 -31.53,25.17 -2.03,4.83 -3.18,10.4 -3.18,16.15 0.01,11.27 4.74,21.87 10.29,27.72 5.42,5.71 15.69,14.11 24.61,13.81z"/>
  <path class="fil3" d="M103.73 227.74l11.9 0c1.06,-6.24 7.29,-4.5 13.36,-4.5l89.21 0c11.16,0 24.97,0.72 35.82,-0.14 -0.18,-1.05 -16.43,-11.68 -18.45,-11.94l-172.52 -0.23c-2.85,0.68 -18.19,11.83 -19.25,12.2 7.99,0.76 36.34,0.13 47.82,0.12 5.8,-0 11.07,-1.54 12.11,4.5z"/>
  <path class="fil1" d="M261.55 159.69l-0.02 -55.66c-2.78,0.22 -6.6,0.77 -8.97,-0.87 -29.21,-3.98 -6.77,-14.18 -45.37,13.51 -1.87,1.34 -3.95,2.62 -5.59,4.24 1.64,1.39 56.64,37.36 59.95,38.78z"/>
  <path class="fil4" d="M271.99 34.23c3.32,-0.82 6.34,-0.12 6.89,3.22 0.54,3.28 -2.34,5.04 -3.53,6.94 2.2,10.83 -0.76,22.93 -5.68,31.07 -3.38,5.58 -12.7,17.04 -20.21,17.8 5.15,2.77 15.16,0.7 20.67,-1.06 28.59,-9.15 41.52,-46.9 15.02,-72.43 -2.98,-2.88 -9.7,-6.81 -15.05,-8.47 -4.14,-1.28 -17.36,-3.91 -20.84,-0.89 6.46,1 10.33,5.54 13.83,9.11 2.25,2.29 9.35,10.4 8.9,14.71z"/>
  <path class="fil1" d="M63.05 210.93l172.52 0.23c-1.52,-2.34 -11.45,-7.81 -14.41,-9.89 -3.87,-2.73 -4.69,-1.95 -10.19,-1.94l-110.3 0c-17.85,0 -17.01,-2.64 -29.98,6.27 -2.41,1.65 -6.01,3.57 -7.63,5.33z"/>
  <path class="fil3" d="M252.56 103.16c2.37,1.64 6.19,1.09 8.97,0.87l0.02 55.66c2.18,1.99 14.37,9.7 17.19,10.92l0 -71.83c-10.51,3.12 -13.42,4.84 -26.19,4.38z"/>
  <path class="fil3" d="M32.03 214.36c0.24,2.09 0.38,2.71 1.72,4.1 1.79,-0.7 14.46,-8.81 15.28,-10.07 -1.62,-2.6 -5.14,-3.24 -6.41,-8.81 -0.7,-3.1 -0.29,-11.52 -0.29,-15.24 0,-10.4 0,-20.8 0,-31.21l-10.47 -0.02 0.16 61.24z"/>
  <path class="fil3" d="M32.09 83.4l-0.28 60.13 10.53 -0 0 -67.68 -1.55 -0.57c-4.57,-0.33 -8.22,3.82 -8.7,8.12z"/>
  <path class="fil1" d="M49.04 208.4c2.3,-0.79 14.77,-8.73 15.98,-10.3 -5.93,-3.34 -11.28,-6.19 -12.71,-15.91 -1.25,-8.44 0.38,-20.09 -0.36,-29.01l-9.6 -0.04c0,10.4 0,20.8 0,31.21 0,3.72 -0.42,12.14 0.29,15.24 1.26,5.57 4.79,6.21 6.41,8.81z"/>
  <path class="fil1" d="M42.34 143.53l9.38 -0.03 -0.32 -68.68c-3.18,-0.16 -8.25,-0.61 -10.61,0.46l1.55 0.57 0 67.68z"/>
  <path class="fil0" d="M271.99 34.23c-3.28,4.45 -11.99,13.45 -15.71,18.21 -1.27,1.63 -4.23,5.2 -5.53,6.2 -3.14,-1.97 -5.04,-4.19 -7.82,-6.32 -3.72,-2.84 -7.78,-1.14 -7.75,3.04 0.03,3.53 4.08,5.49 5.93,7.23 9.59,8.99 10.74,9.09 15.72,3.05l12.32 -14.18c1.83,-1.95 4.22,-5.31 6.2,-7.05 1.2,-1.9 4.07,-3.66 3.53,-6.94 -0.55,-3.34 -3.57,-4.04 -6.89,-3.22z"/>
  <path class="fil3" d="M254.27 211.55c0.17,-1.02 6.74,-0.47 8.09,-0.47l0.47 3.03c1.45,-3.46 0.47,-10.32 0.47,-14.66l-27.86 -0.13 2.13 1.83c0.59,0.4 1.59,0.98 2.23,1.38 4.44,2.76 10.01,7.02 14.47,9.02z"/>
  <path class="fil3" d="M42.34 143.53l-10.53 0 0.28 -60.13c-1.46,0.68 -1.33,56.58 -0.6,60.4 3.14,0.73 17.81,0.8 20.62,-0.17 0.94,-6.95 0.01,-50.12 0.2,-64.79 0.04,-3.52 0.2,-3.18 -0.91,-4.03l0.32 68.68 -9.38 0.03z"/>
  <path class="fil3" d="M32.03 214.36l-0.16 -61.24 10.47 0.02 9.6 0.04c-1.05,-0.61 0.97,-0.34 -1.9,-0.64l-18.37 0.2c-1.28,4.35 -0.73,60.28 0.36,61.63z"/>
  <path class="fil3" d="M262.83 214.11l-0.47 -3.03c-1.36,0 -7.92,-0.54 -8.09,0.47 0.49,0.99 6.79,5.11 8.09,4.87l0.47 -2.32z"/>
 </g>
</svg>
