<?xml version="1.0" encoding="UTF-8"?>
<!DOCTYPE svg PUBLIC "-//W3C//DTD SVG 1.1//EN" "http://www.w3.org/Graphics/SVG/1.1/DTD/svg11.dtd">
<!-- Creator: CorelDRAW 2020 (64-Bit) -->
<svg xmlns="http://www.w3.org/2000/svg" xml:space="preserve" width="214.337mm" height="214.336mm" version="1.1" style="shape-rendering:geometricPrecision; text-rendering:geometricPrecision; image-rendering:optimizeQuality; fill-rule:evenodd; clip-rule:evenodd"
viewBox="0 0 168.48 168.48"
 xmlns:xlink="http://www.w3.org/1999/xlink"
 xmlns:xodm="http://www.corel.com/coreldraw/odm/2003">
 <defs>
  <style type="text/css">
   <![CDATA[
    .fil1 {fill:black}
    .fil4 {fill:#B4DD7E}
    .fil2 {fill:#EECFB3}
    .fil3 {fill:#FCD770}
    .fil0 {fill:white}
   ]]>
  </style>
 </defs>
 <g id="Capa_x0020_1">
  <metadata id="CorelCorpID_0Corel-Layer"/>
  <g id="_2446347272928">
   <path class="fil0" d="M84.24 92.39l48.91 0 0 43.48 -48.91 0 -0 -43.48zm-32.61 38.04l27.17 0 0 5.43 -27.17 0 0 -5.43zm21.74 -10.87l5.43 0 0 5.43 -5.43 0 -0 -5.43zm0 -10.87l5.43 0 0 5.43 -5.43 0 0 -5.43zm-21.74 -16.3l26.49 0 0.68 0 0 5.43 -27.17 0 -0 -5.43zm32.61 -10.87l48.91 0 0 5.43 1.36 0 -50.27 0 -0 -5.43zm-10.85 0l5.41 0 0.02 5.43 -5.45 0 0.02 -5.43zm-10.89 0l5.43 0 0 5.43 -5.43 0 -0 -5.43zm-10.87 0l5.43 0 0 5.43 -5.43 0 0 -5.43zm0 -10.87l-5.44 0 86.96 0 0 5.43 -5.43 0 -76.09 0 0 -5.43zm10.87 -10.87l5.43 0 70.65 0 -5.44 0 0 5.43 -70.65 0 0 -5.43zm-10.87 0l5.43 0 0 5.43 -5.43 0 -0 -5.43zm54.35 -10.87l27.17 0 0.17 5.43 -27.34 0 -0 -5.43zm-54.35 -32.61l48.91 0 0 38.04 -48.91 0 -0 -38.04zm54.35 21.74l27.17 0 0 5.43 -27.17 0 -0 -5.43zm10.87 -10.87l13.93 0.04 2.37 -0.22 0 5.61 -16.3 0 -0 -5.43zm-10.87 0l5.43 0 0 5.43 -5.43 0 0 -5.43zm-59.79 76.09l15.29 0c7.12,0 7.81,6.56 4.8,11.94 -4.48,8 -11.76,7.08 -20.08,7.08l-0 19.03 92.39 0 0 -114.14c-8.6,0 -10.05,-0.72 -15.48,-6.26 -1.76,-1.79 -1.16,-1.93 -4.56,-1.9 -5.96,0.07 -10.32,0.18 -14.48,-4.54 -2.36,-2.68 -1.54,-3.6 -3.87,-3.6l-54.35 0 0.34 92.4z"/>
   <path class="fil1" d="M5.43 119.91c0.07,-0.05 0.18,-0.1 0.22,-0.12 7.58,-4.07 12.76,-10.47 22.87,-11.03 10.55,-0.59 23.24,-0.16 33.96,-0.05 -0.44,9.39 -9.12,8.22 -17.67,8.13 -3.18,-0.03 -2.81,0.41 -4.42,2.03 -4.18,4.23 -6.37,6.12 -13.23,6.13l0 5.43c5.86,-0.01 10.02,-1.61 13.58,-4.29l0.01 20.59 43.47 0.02c3.55,0.4 3.55,4.99 -0,5.39l-32.6 0.02 0 5.43c5.09,0 10.19,0 15.28,0 3.08,0 12.39,-0.83 13.93,1.02 1.57,1.87 0.1,4.04 -1.75,4.36l-52.28 0.05c-5.13,-0.11 -7.62,-1.59 -11.45,-3.49l-9.73 -4.87c-0.03,-0.1 -0.15,-0.08 -0.21,-0.13l0 -34.65zm40.42 -109.04l54.35 0c2.33,0 1.5,0.92 3.87,3.6 4.16,4.72 8.52,4.61 14.48,4.54 3.4,-0.04 2.8,0.1 4.56,1.9 5.42,5.54 6.87,6.26 15.48,6.26l-0 114.14 -92.39 0 0 -19.03c8.33,0 15.6,0.92 20.08,-7.08 3.01,-5.38 2.32,-11.94 -4.8,-11.94l-15.29 0 -0.34 -92.4zm98.17 46.01l0 -35.14c-15.21,0 -11.82,0.28 -19.82,-7.35 -3.23,-3.08 -17.63,3.53 -18.22,-8.95 5.77,-0.05 11.55,-0.01 17.32,-0.01 20.08,0 19.75,-1.89 34.53,7.93l4.99 3.16c0.03,-0.07 0.15,0.07 0.22,0.12l0 31.93c-0.39,0.3 -0.04,0.06 -0.64,0.39 -0.09,0.05 -0.36,0.18 -0.45,0.23 -5.08,2.54 -12.89,7.01 -17.94,7.69zm-43.48 -51.45l-59.78 0 0 97.83c-16.19,0 -18.24,-1.2 -31.25,7.47 -5.89,3.93 -3.73,3.4 -9.51,3.4l0 46.2c6.29,0 4.96,-0.06 14.21,4.81 3.05,1.61 6.85,3.34 11.61,3.34l53.67 0c4.16,0 7.47,-3.57 7.47,-8.83 0,-1.17 -0.25,-1.32 -0.34,-2.38 4.5,-1.05 6.6,-5.52 5.43,-10.53l51.97 0 0 -84.24c6.96,-0.16 18.13,-8.15 20.72,-8.15l3.74 0 0 -43.48c-5.78,0 -3.62,0.53 -9.51,-3.4 -5.48,-3.65 -11.17,-7.47 -19.02,-7.47l-34.65 0c-1.98,0 -4.76,2.19 -4.76,5.43z"/>
   <path class="fil2" d="M5.43 119.91l0 34.65c0.07,0.05 0.18,0.03 0.21,0.13l9.73 4.87c3.83,1.9 6.32,3.38 11.45,3.49l52.28 -0.05c1.85,-0.32 3.31,-2.48 1.75,-4.36 -1.55,-1.85 -10.85,-1.02 -13.93,-1.02 -5.09,0 -10.19,0 -15.28,0l0 -5.43 32.6 -0.02c3.55,-0.4 3.55,-5 0,-5.39l-43.47 -0.02 -0.01 -20.59c-3.56,2.68 -7.72,4.28 -13.58,4.29l0 -5.43c6.86,-0.01 9.05,-1.9 13.23,-6.13 1.6,-1.62 1.23,-2.07 4.42,-2.03 8.55,0.09 17.23,1.26 17.67,-8.13 -10.73,-0.11 -23.41,-0.55 -33.96,0.05 -10.11,0.57 -15.3,6.97 -22.87,11.03 -0.05,0.03 -0.15,0.07 -0.22,0.12z"/>
   <path class="fil2" d="M144.02 21.74l0 35.14c5.04,-0.67 12.85,-5.15 17.94,-7.69 0.09,-0.05 0.36,-0.18 0.45,-0.23 0.6,-0.33 0.25,-0.09 0.64,-0.39l0 -31.93c-0.07,-0.05 -0.19,-0.19 -0.22,-0.12l-4.99 -3.16c-14.79,-9.82 -14.45,-7.93 -34.53,-7.93 -5.77,0 -11.55,-0.04 -17.32,0.01 0.58,12.48 14.99,5.87 18.22,8.95 8,7.63 4.61,7.35 19.82,7.35z"/>
   <path class="fil3" d="M103.32 126.01l-7.22 -7.12 3.7 -3.85 3.37 3.33c1.49,-0.91 14.67,-14.44 17.09,-16.84l3.85 3.68 -20.78 20.79zm-13.64 4.43l38.04 0 0 -32.61 -38.04 0 0 32.61z"/>
   <polygon class="fil4" points="57.07,48.91 95.11,48.91 95.11,21.74 56.98,21.74 "/>
   <path class="fil1" d="M89.68 97.83l38.04 0 0 32.61 -38.04 0 0 -32.61zm-5.43 38.04l48.91 0 0 -43.48 -48.91 0 0 43.48z"/>
   <path class="fil1" d="M56.98 21.74l38.13 0 -0 27.18 -38.04 0 -0.08 -27.18zm-5.35 32.61l48.91 0 -0 -38.04 -48.91 0 0 38.04z"/>
   <polygon class="fil1" points="51.63,76.09 127.72,76.09 133.15,76.09 133.15,70.66 46.2,70.66 51.63,70.66 "/>
   <polygon class="fil1" points="62.5,65.22 133.15,65.22 133.15,59.79 138.59,59.79 67.94,59.79 62.5,59.79 "/>
   <polygon class="fil1" points="84.24,86.96 134.51,86.96 133.15,86.96 133.15,81.52 84.24,81.52 "/>
   <path class="fil1" d="M124.1 105.22l-3.85 -3.68c-2.42,2.4 -15.59,15.93 -17.09,16.84l-3.37 -3.33 -3.7 3.85 7.22 7.12 20.78 -20.79z"/>
   <polygon class="fil1" points="105.98,54.35 133.32,54.35 133.15,48.92 105.98,48.92 "/>
   <polygon class="fil1" points="105.98,43.48 133.15,43.48 133.15,38.05 105.98,38.05 "/>
   <polygon class="fil1" points="51.63,97.83 78.81,97.83 78.8,92.39 78.13,92.39 51.63,92.39 "/>
   <polygon class="fil1" points="51.63,135.87 78.81,135.87 78.8,130.44 51.63,130.44 "/>
   <polygon class="fil1" points="116.85,32.61 133.15,32.61 133.15,26.99 130.78,27.22 116.85,27.18 "/>
   <polygon class="fil1" points="51.63,65.22 57.07,65.22 57.06,59.79 51.63,59.79 "/>
   <polygon class="fil1" points="62.5,86.96 67.94,86.96 67.93,81.52 62.5,81.52 "/>
   <polygon class="fil1" points="73.37,86.96 78.83,86.96 78.8,81.52 73.39,81.52 "/>
   <polygon class="fil1" points="105.98,32.61 111.41,32.61 111.41,27.18 105.98,27.18 "/>
   <polygon class="fil1" points="73.37,125 78.8,125 78.8,119.57 73.37,119.57 "/>
   <polygon class="fil1" points="51.63,86.96 57.06,86.96 57.06,81.52 51.63,81.52 "/>
   <polygon class="fil1" points="73.37,114.13 78.8,114.13 78.8,108.7 73.37,108.7 "/>
  </g>
 </g>
</svg>
