<?xml version="1.0" encoding="UTF-8"?>
<!DOCTYPE svg PUBLIC "-//W3C//DTD SVG 1.1//EN" "http://www.w3.org/Graphics/SVG/1.1/DTD/svg11.dtd">
<!-- Creator: CorelDRAW 2020 (64-Bit) -->
<svg xmlns="http://www.w3.org/2000/svg" xml:space="preserve" width="288.007mm" height="186.765mm" version="1.1" style="shape-rendering:geometricPrecision; text-rendering:geometricPrecision; image-rendering:optimizeQuality; fill-rule:evenodd; clip-rule:evenodd"
viewBox="0 0 294.41 190.92"
 xmlns:xlink="http://www.w3.org/1999/xlink"
 xmlns:xodm="http://www.corel.com/coreldraw/odm/2003">
 <defs>
  <style type="text/css">
   <![CDATA[
    .fil1 {fill:black}
    .fil3 {fill:#73C8DD}
    .fil4 {fill:#BBBDBE}
    .fil2 {fill:#E67A1E}
    .fil0 {fill:#FDC870}
    .fil5 {fill:white}
   ]]>
  </style>
 </defs>
 <g id="Capa_x0020_1">
  <metadata id="CorelCorpID_0Corel-Layer"/>
  <g id="_2446673275472">
   <path class="fil0" d="M69.01 111.4l94.91 0 0.05 3.61 -0.27 2.08 -94.52 0 -0.16 -2.09 0 -3.61zm-40.59 0.03l30.84 -0.01 -0.25 5.68 -30.53 -0.15 -0.05 -5.51zm-6.77 -76.39l60.92 0.27 -0.06 5.42 -60.9 0.01 0.11 86.34c0.04,30 -3,28.36 8.76,28.33 11.89,-0.03 7.78,1.07 10.48,-6.92 2.28,-6.76 5.73,-10.93 10.54,-15.34 5.68,-5.21 15.13,-9.23 25.56,-9.08 11.58,0.17 18.55,4.18 25.24,9.4 2.95,2.3 5.45,5.73 7.63,9.64 4.47,8.03 2.82,11.66 5.22,12.31l71.89 0c-0.02,-8.86 0.59,-132.01 -0.54,-137.2 -5.37,-1.36 -138.48,-0.23 -159.49,-0.45 -6.59,-0.07 -5.85,0.68 -5.36,17.28z"/>
   <path class="fil1" d="M280.41 123.06c0,-5.27 3.42,-5.11 7.84,-3.58 0.69,5.29 0.79,5.52 0.02,10.75 -8.77,3.48 -7.86,-3.19 -7.86,-7.17zm14 -1.33l0 6.87c-0.6,3.59 -2.29,6.76 -5.75,7.69 0,27.86 1.65,24.73 -25.88,24.73 -2.01,-8.64 -2.26,-14.69 -9.33,-21.72l-4.46 -3.59c-19.58,-14.19 -50.04,-0.89 -50.04,25.31l-90.28 0c0,-40.83 -63.83,-41.83 -63.83,0l-22.43 0c-4.14,0 -6.34,-4.17 -6.36,-8.59l0.04 -44.89c0.03,-4.93 -0.58,-8.82 -0.58,-14.37l0 -52.33 -3.45 0 0 -5.75 3.45 0 0 -13.23c0,-5.41 2.87,-9.78 7.48,-9.78l162.73 0c3.45,0 6.9,3.45 6.9,6.9l0 20.7c4.35,0 6.53,0.59 10.33,0.59l31.09 0.54c8.63,-0.06 10.02,2.69 13.71,7.57l31.62 43.13c9.28,12.35 9.28,9.94 9.28,21.77 1.83,0.97 2.66,1.26 3.94,2.96 0.77,1.03 1.46,3.07 1.81,5.48zm-71.3 -19.34c-1.85,-2.9 -0.79,-28.51 -0.85,-33.96 -0.1,-8.72 2.72,-6.21 11.2,-6.21 5.72,0 11.46,-0.05 17.17,0.02l22.33 30.52c2.52,3.52 5.02,6.48 7.25,10.17 -7.29,0.01 -54.43,0.82 -57.1,-0.55zm59.75 6.28c0,8.34 -1.54,2.17 -5.99,7.19 -2.16,2.43 -6.28,18.4 5.99,20.86 0,21.83 3.07,18.62 -15.12,18.62 -6.11,-35.39 -53.29,-41.91 -69.91,-12.14 -3.17,5.68 -3.59,11.14 -5.11,12.04l-0.13 -109.51c4.75,0.09 43.54,0.3 46.37,1.64 1.58,0.74 6.37,7.06 7.14,9.08 -32.16,1.27 -29.51,-5.49 -29.51,25.78 0,29.38 -3.48,26.37 28.95,26.37 12.18,0 25.25,-0.45 37.32,0.07zm-96.36 -90.45c1.13,5.19 0.53,128.35 0.54,137.2l-71.89 0c-2.41,-0.65 -0.76,-4.28 -5.22,-12.31 -2.17,-3.91 -4.68,-7.33 -7.63,-9.64 -6.69,-5.22 -13.66,-9.23 -25.24,-9.4 -10.43,-0.16 -19.88,3.87 -25.56,9.08 -4.81,4.41 -8.26,8.59 -10.54,15.34 -2.7,7.99 1.41,6.9 -10.48,6.92 -11.76,0.03 -8.73,1.67 -8.76,-28.33l-0.11 -86.34 60.9 -0.01 0.06 -5.42 -60.92 -0.27c-0.49,-16.61 -1.23,-17.35 5.36,-17.28 21.01,0.22 154.13,-0.91 159.49,0.45z"/>
   <path class="fil2" d="M282.86 108.67c-12.07,-0.52 -25.14,-0.07 -37.32,-0.07 -32.43,0 -28.95,3.01 -28.95,-26.37 0,-31.27 -2.65,-24.51 29.51,-25.78 -0.78,-2.02 -5.56,-8.33 -7.14,-9.08 -2.84,-1.34 -41.62,-1.56 -46.37,-1.64l0.13 109.51c1.52,-0.91 1.94,-6.37 5.11,-12.04 16.62,-29.77 63.8,-23.25 69.91,12.14 18.19,0 15.12,3.22 15.12,-18.62 -12.27,-2.46 -8.14,-18.43 -5.99,-20.86 4.45,-5.02 5.99,1.15 5.99,-7.19z"/>
   <path class="fil3" d="M223.11 102.38c2.67,1.37 49.82,0.56 57.1,0.55 -2.23,-3.7 -4.73,-6.66 -7.25,-10.17l-22.33 -30.52c-5.71,-0.07 -11.45,-0.02 -17.17,-0.02 -8.48,0 -11.3,-2.52 -11.2,6.21 0.06,5.46 -1,31.07 0.85,33.96z"/>
   <path class="fil4" d="M74.33 147.62c8.58,-1.61 15.36,4.51 16.71,11.49 1.69,8.77 -4.55,15.52 -11.55,16.94 -18.36,3.73 -24.62,-24.77 -5.16,-28.42zm-2.7 -8.52c-11.59,2.44 -21.83,13.55 -18.21,28.31 2.67,10.91 14.62,20.68 28.84,17.16 29.99,-7.41 19.87,-51.9 -10.63,-45.47z"/>
   <path class="fil4" d="M228.8 147.51c18.83,-2.92 22.78,25.65 4.33,28.63 -18.74,3.02 -23.85,-25.6 -4.33,-28.63zm-3.08 -8.41c-31.09,6.49 -20.73,52.23 10.2,45.61 11.06,-2.37 21.17,-13.86 17.99,-28.05 -2.51,-11.2 -14.09,-20.51 -28.19,-17.56z"/>
   <path class="fil1" d="M71.63 139.11c30.5,-6.42 40.62,38.07 10.63,45.47 -14.22,3.51 -26.17,-6.26 -28.84,-17.16 -3.61,-14.76 6.62,-25.87 18.21,-28.31zm1.97 51.8c7.06,0 9.71,0.35 16.5,-3.05 1.74,-0.87 2.89,-1.5 4.29,-2.61 1.15,-0.9 2.78,-2.1 3.7,-3.2 20.84,-24.82 -1.93,-49.22 -18.74,-49.22 -10.53,0 -16.15,0.9 -24.3,9.05 -13.13,13.13 -10.21,35.88 7.43,45.77 2.57,1.44 7.38,3.26 11.12,3.26z"/>
   <path class="fil1" d="M225.72 139.09c14.1,-2.95 25.68,6.36 28.19,17.56 3.18,14.19 -6.93,25.68 -17.99,28.05 -30.93,6.62 -41.29,-39.11 -10.2,-45.61zm1.99 51.81c7.55,0 14.2,-0.35 20.8,-5.65 10.6,-8.51 14.87,-20.52 9.61,-34.53 -1.37,-3.66 -3.53,-6.04 -5.67,-8.71 -3.51,-4.38 -12.72,-9.19 -18.99,-9.19 -10.64,0 -16.09,0.9 -24.3,9.05 -4.73,4.7 -8.04,11.24 -8.24,19.77 -0.19,8.12 3.66,15.58 7.94,19.92 2.57,2.6 4.36,4.19 7.73,6.08 2.57,1.44 7.38,3.26 11.12,3.26z"/>
   <polygon class="fil1" points="69.01,115.01 69.17,117.09 163.69,117.09 163.96,115.01 163.91,111.4 69.01,111.4 "/>
   <path class="fil1" d="M229.22 153.18c11.36,-2.17 14.42,15.14 3.37,17.27 -11.55,2.22 -14.91,-15.06 -3.37,-17.27zm-0.41 -5.68c-19.53,3.03 -14.41,31.65 4.33,28.63 18.45,-2.98 14.5,-31.55 -4.33,-28.63z"/>
   <path class="fil1" d="M75.12 153.19c10.99,-2.32 14.98,15 3.36,17.28 -11.33,2.22 -14.78,-14.87 -3.36,-17.28zm-0.79 -5.57c-19.46,3.65 -13.2,32.15 5.16,28.42 6.99,-1.42 13.24,-8.17 11.55,-16.94 -1.35,-6.98 -8.13,-13.1 -16.71,-11.49z"/>
   <polygon class="fil1" points="61.53,5.75 114.43,5.75 114.43,0 61.53,0 "/>
   <polygon class="fil1" points="134.56,178.83 187.46,178.83 187.46,173.08 134.56,173.08 "/>
   <path class="fil5" d="M229.22 153.18c-11.55,2.21 -8.18,19.49 3.37,17.27 11.06,-2.13 7.99,-19.44 -3.37,-17.27z"/>
   <path class="fil5" d="M75.12 153.19c-11.42,2.41 -7.97,19.5 3.36,17.28 11.62,-2.28 7.63,-19.6 -3.36,-17.28z"/>
   <polygon class="fil1" points="28.46,116.94 59,117.09 59.25,111.42 28.41,111.43 "/>
   <path class="fil5" d="M280.41 123.06c0,3.98 -0.91,10.65 7.86,7.17 0.77,-5.23 0.67,-5.46 -0.02,-10.75 -4.42,-1.54 -7.84,-1.69 -7.84,3.58z"/>
   <polygon class="fil1" points="117.88,178.83 127.66,178.83 127.66,173.08 117.88,173.08 "/>
   <path class="fil1" d="M45.43 5.75l8.05 0c1.32,0 1.72,-0.4 1.72,-1.73l0 -4.03 -9.78 0 0 5.75z"/>
   <polygon class="fil1" points="-0,40.83 7.48,40.83 7.48,35.08 -0,35.08 "/>
  </g>
 </g>
</svg>
