<?xml version="1.0" encoding="UTF-8"?>
<!DOCTYPE svg PUBLIC "-//W3C//DTD SVG 1.1//EN" "http://www.w3.org/Graphics/SVG/1.1/DTD/svg11.dtd">
<!-- Creator: CorelDRAW 2020 (64-Bit) -->
<svg xmlns="http://www.w3.org/2000/svg" xml:space="preserve" width="345.513mm" height="228.093mm" version="1.1" style="shape-rendering:geometricPrecision; text-rendering:geometricPrecision; image-rendering:optimizeQuality; fill-rule:evenodd; clip-rule:evenodd"
viewBox="0 0 517.1 341.37"
 xmlns:xlink="http://www.w3.org/1999/xlink"
 xmlns:xodm="http://www.corel.com/coreldraw/odm/2003">
 <defs>
  <style type="text/css">
   <![CDATA[
    .fil0 {fill:black}
    .fil3 {fill:#92C966}
    .fil2 {fill:#FEC108}
    .fil1 {fill:#FEDE00}
   ]]>
  </style>
 </defs>
 <g id="Capa_x0020_1">
  <metadata id="CorelCorpID_0Corel-Layer"/>
  <g id="_2070122831312">
   <path class="fil0" d="M98.09 242.48c11.96,-5.4 30.97,3.6 45.17,-7.32 9.51,-7.32 17.26,-21.41 10.34,-37.31 -5.46,-12.53 -16.25,-18.51 -33.41,-18.53l-77.81 0.04c-18.19,0.11 -10.62,-9.44 -7.73,-10.42 5.81,-1.98 85.97,0.95 102.29,-0.62 8.2,-0.79 13.15,-4.55 17.05,-9.27 4.62,-5.58 4.84,-11.43 5.22,-20.25 2.6,-0.02 75.13,47.24 86.34,55.01l28.23 19.3c-6.92,5.15 -30.59,14.19 -18.19,26.18 6.16,5.95 13.67,0.32 18.48,-2.58 27.68,-16.73 17.8,-12.04 34.4,-9.05 25.64,4.63 36.63,-4.13 44.43,-4.94 4.52,-0.47 68.5,42.92 75.69,47.63 10.75,7.02 53.42,33.92 59.75,39.39 -6.65,13.81 -16.67,11.03 -33.84,11.03l-267.64 0c-14.64,0 -28.5,2.3 -33.36,-10.7 1.81,-2.25 4.49,-3.45 7.13,-5.03 10.05,-6 46.54,-25.75 48.08,-32.72 1.51,-6.85 -3.79,-12.61 -10.69,-12.01 -4.17,0.36 -12.1,5.86 -15.59,7.97l-28.86 17.12c-1.26,-8.75 1.58,-13.45 -3.31,-21.58 -15.5,-25.75 -60.45,0.27 -52.16,-21.33zm276.51 -31.4c2.73,-2.77 11.18,-7.33 14.83,-9.51l106.7 -63.39 -6.23 147.56 -101.36 -65.27c-4.25,-2.94 -10.57,-6.1 -13.94,-9.39zm-213.51 -96.96c5.31,-14.32 19.04,-11.17 34.85,-11.17l266.63 0c13.66,0 30.61,-1.85 33.06,11.17l-40.65 24.73c-13.66,8.14 -26.96,16.1 -41.13,24.53 -13.82,8.23 -27.23,16.37 -41.01,24.61 -35.93,21.48 -52.48,32.24 -93.2,4l-79.46 -51.82c-6.97,-4.46 -12.54,-8.28 -19.55,-12.76l-19.55 -13.29zm-22.72 32.32c-12.66,6.07 -99.77,-1.89 -112.46,3.68 -4.5,1.97 -7.84,4.97 -10.51,8.68 -6.33,8.81 -7.06,20.22 -0.7,29.5 2.59,3.78 6.52,7.39 10.94,9.26 10.33,4.37 63.26,2.41 78.39,2.41 16.93,0 31.31,-3.57 31.31,11.11 0,18.79 -32.83,-0.26 -51.06,16.61 -13.51,12.5 -8.62,38.34 10.26,43.37 9.61,2.56 25.89,1.62 37.76,1.62 3.42,14.69 -8.29,39.51 11.84,58.86 6.37,6.12 15.38,9.82 27.55,9.82l301.98 0c17.06,0 32.57,-13.49 35.53,-31.13l5.92 -129.42c0.03,-22.51 1.99,-42.6 1.99,-65.68 0,-5.84 -4.54,-14.75 -8.75,-19.53l-0.95 -1.07c-5.41,-5.81 -14.18,-11.72 -24.64,-11.72l-309.05 0c-18.16,0 -34.52,16.85 -34.36,39.37 0.06,9.12 -0.99,15.14 -0.99,24.26z"/>
   <path class="fil1" d="M229.8 242.29c12.37,-3.55 16.91,16.02 5.18,19.06 -6.31,1.63 -11.78,-2.18 -12.72,-7.05 -1.31,-6.78 2.11,-10.45 7.54,-12.01zm-131.71 0.19c-8.29,21.6 36.66,-4.42 52.16,21.33 4.89,8.13 2.05,12.84 3.31,21.58l28.86 -17.12c3.49,-2.11 11.42,-7.61 15.59,-7.97 6.9,-0.6 12.2,5.16 10.69,12.01 -1.54,6.97 -38.03,26.72 -48.08,32.72 -2.65,1.58 -5.33,2.78 -7.13,5.03 4.86,13 18.71,10.7 33.36,10.7l267.64 0c17.17,0 27.19,2.78 33.84,-11.03 -6.33,-5.46 -49.01,-32.36 -59.75,-39.39 -7.19,-4.7 -71.17,-48.09 -75.69,-47.63 -7.8,0.8 -18.79,9.56 -44.43,4.94 -16.6,-3 -6.73,-7.68 -34.4,9.05 -4.81,2.9 -12.32,8.53 -18.48,2.58 -12.41,-11.98 11.27,-21.03 18.19,-26.18l-28.23 -19.3c-11.21,-7.78 -83.74,-55.03 -86.34,-55.01 -0.38,8.82 -0.6,14.67 -5.22,20.25 -3.9,4.72 -8.85,8.48 -17.05,9.27 -16.32,1.57 -96.48,-1.36 -102.29,0.62 -2.89,0.98 -10.46,10.53 7.73,10.42l77.81 -0.04c17.16,0.02 27.95,6.01 33.41,18.53 6.93,15.9 -0.82,29.98 -10.34,37.31 -14.2,10.93 -33.21,1.92 -45.17,7.32z"/>
   <path class="fil2" d="M161.09 114.13l19.55 13.29c7.01,4.48 12.57,8.3 19.55,12.76l79.46 51.82c40.72,28.24 57.27,17.48 93.2,-4 13.79,-8.24 27.19,-16.38 41.01,-24.61 14.17,-8.43 27.47,-16.4 41.13,-24.53l40.65 -24.73c-2.46,-13.03 -19.41,-11.17 -33.06,-11.17l-266.63 0c-15.81,0 -29.54,-3.15 -34.85,11.17z"/>
   <path class="fil1" d="M374.6 211.08c3.38,3.28 9.69,6.45 13.94,9.39l101.36 65.27 6.23 -147.56 -106.7 63.39c-3.65,2.18 -12.1,6.74 -14.83,9.51z"/>
   <path class="fil0" d="M172.7 10.1c0,7.58 5.84,11.11 13.13,11.11l156.54 0c19.85,0 19,-21.21 2.02,-21.21l-159.57 0c-6.52,0 -12.12,3.78 -12.12,10.1z"/>
   <path class="fil0" d="M258.55 64.64l160.58 0c3.8,0 6.2,-0.76 8.42,-2.69 6.75,-5.9 4.73,-18.52 -11.45,-18.52l-154.52 0c-20.65,0 -18.35,21.21 -3.03,21.21z"/>
   <path class="fil0" d="M28.28 252.87c-11.02,0 -10.97,-10.83 0,-10.83l6.09 -0.2 6.52 1.23c2.25,5.84 1.81,9.8 -6.55,9.8l-6.06 0zm-28.28 -7.45c0,40.32 62.62,35.01 62.62,4.04 0,-9.7 -1.69,-15.46 -9.37,-21.94 -15.4,-13.01 -53.25,-7.12 -53.25,17.9z"/>
   <path class="fil0" d="M376.71 10.1c0,16.03 25.14,13.02 20.11,-2.85 -2.34,-7.4 -11.18,-9.48 -16.38,-4.53 -1.28,1.22 -3.73,5.4 -3.73,7.38z"/>
   <path class="fil0" d="M229.8 242.29c-5.44,1.56 -8.86,5.23 -7.54,12.01 0.95,4.88 6.41,8.69 12.72,7.05 11.73,-3.04 7.19,-22.61 -5.18,-19.06z"/>
   <path class="fil3" d="M28.28 252.87l6.06 0c8.36,0 8.8,-3.96 6.55,-9.8l-6.52 -1.23 -6.09 0.2c-10.97,0 -11.02,10.83 0,10.83z"/>
  </g>
 </g>
</svg>
