<?xml version="1.0" encoding="UTF-8"?>
<!DOCTYPE svg PUBLIC "-//W3C//DTD SVG 1.1//EN" "http://www.w3.org/Graphics/SVG/1.1/DTD/svg11.dtd">
<!-- Creator: CorelDRAW 2020 (64-Bit) -->
<svg xmlns="http://www.w3.org/2000/svg" xml:space="preserve" width="310.689mm" height="152.974mm" version="1.1" style="shape-rendering:geometricPrecision; text-rendering:geometricPrecision; image-rendering:optimizeQuality; fill-rule:evenodd; clip-rule:evenodd"
viewBox="0 0 290.83 143.2"
 xmlns:xlink="http://www.w3.org/1999/xlink"
 xmlns:xodm="http://www.corel.com/coreldraw/odm/2003">
 <defs>
  <style type="text/css">
   <![CDATA[
    .fil1 {fill:black}
    .fil3 {fill:black}
    .fil2 {fill:#F99F28}
    .fil0 {fill:#FDC870}
   ]]>
  </style>
 </defs>
 <g id="Capa_x0020_1">
  <metadata id="CorelCorpID_0Corel-Layer"/>
  <g id="_2446673258480">
   <path class="fil0" d="M272.69 124.37c0.57,2.01 -0.59,3.44 -2.03,3.76 -2.35,0.51 -4.49,-2.18 -7.59,-4.67l-33.04 -27.58c-2.11,-1.85 -4.59,-3.7 -6.76,-5.6 -1.12,-0.98 -2.55,-1.61 -2.88,-3.28 -0.41,-2.06 0.66,-2.92 2.23,-3.34 1.67,-0.44 2.68,0.67 3.75,1.58l23.18 19.3c2,1.7 22.61,17.96 23.15,19.83zm-154.82 -84.42c-0.52,5.9 -0.1,13.72 -0.1,19.83 0,9.37 -0.46,30.44 0.86,38.55 1.66,10.17 3.1,9.7 4.76,15.27l19.61 -16.27c3.35,-2.63 6.46,-5.38 9.72,-8.06 3.25,-2.68 8.3,-8.2 10.45,-4.51 1.62,2.77 -1.33,4.61 -2.67,5.72l-33.9 28.29c1.72,1.51 2.74,3.27 4.39,4.7 1.35,1.17 3.17,2.66 4.8,3.7 7.27,4.65 17.16,7.07 25.78,9 11.82,2.65 80.03,-0.2 84.37,1.2 2.32,0.41 2.54,0.92 3.05,3.13l5.76 0c1.17,-5.24 5.42,-2.5 15.44,-3.24 2.83,-0.21 5.12,-0.85 7.15,-2.15 8.03,-5.13 7.59,-11.39 7.59,-19.71l-0.01 -91.06c-1.83,0.91 -34.14,28.42 -38.79,32.07 -8.57,6.73 -20.55,17.02 -29.05,24.24 -11.46,9.73 -25.8,12.2 -40.06,6.44 -7.4,-2.99 -23.02,-17.37 -30.19,-23.11 -1.76,-1.41 -3.21,-2.67 -4.85,-4.03l-14.52 -12.12c-3.04,-2.68 -6.29,-5.3 -9.59,-7.88z"/>
   <path class="fil1" d="M282.7 18.22l-0.8 0.82c-0.73,0.66 -1.58,1.24 -2.24,1.77l-4.29 3.61 0 0 -0.01 0.01 -4.28 3.6c-0.13,0.1 -0.38,0.3 -0.58,0.45l-7.65 6.38c-0.46,0.74 -1.26,1.02 -2.11,1.76l-4.45 3.71 -0.09 0.08 -0 0 -10.42 8.67c-4.21,3.31 -8.16,6.77 -12.26,10.15 -2.18,1.8 -3.85,3.33 -6.08,5.11 -11.74,9.39 -20.26,19.93 -35.46,19.95 -11.55,0.01 -16.9,-4.79 -23.67,-10.11 -2.05,-1.61 -3.9,-3.19 -5.88,-4.92l-33.1 -27.55 -0.05 -0.04 -6.47 -5.39c-0.74,-0.61 -1.36,-0.82 -1.73,-1.45l-8.56 -7.14c-1.5,-1.19 -3.28,-2.71 -4.91,-4.09l-3.54 -2.95c-0.72,-0.56 -0.84,-0.67 -1.68,-1.39 -0.37,-0.31 -0.59,-0.46 -0.85,-0.72 -0.45,-0.47 -0.45,-0.38 -0.48,-0.43l0 0 -0.81 -0.77 -0.49 -0.47 0.34 -1.05c2.27,-6.26 8.02,-9.9 15.82,-9.94 7.49,-0.05 14.98,-0.06 22.47,-0.06l0.96 0c2.39,0 4.78,0 7.17,0.01l0 -0.01 90.96 0 0 0.01c2.39,-0 4.78,-0.01 7.17,-0.01l0.52 0c7.64,0 15.27,0.02 22.9,0.06 8.16,0.05 14.08,4.02 16.12,10.83 0,0 -1.46,1.49 -1.48,1.52zm-189.55 -0.89l0 0 -0.03 67.58 0 38.83c0.29,6.4 4.27,12.11 9.15,15.71 3.79,2.8 7.41,3.56 12.02,3.74l9.72 0 114.69 0 7.75 0c1.35,-0.24 1.99,-0.94 2.53,-2.7 -0.51,-2.21 -0.72,-2.72 -3.05,-3.13 -43.31,-0.43 -86.74,0.23 -130.06,-0.04 -9.86,-0.06 -16.44,-5.85 -16.87,-15.44 -0.46,-10.39 -0.02,-21.86 -0.02,-32.37 0,-15.37 -0.14,-30.83 -0.12,-46.25l0.06 0c-0.02,-1.24 -0.03,-2.49 -0.05,-3.74 0.02,-5.08 0.05,-10.15 0.12,-15.22 1.37,0.74 3.43,2.66 4.67,3.68l9.48 7.9c1.41,1.2 3.98,3.12 4.72,4.06 3.3,2.58 6.55,5.2 9.59,7.88l14.52 12.12c1.65,1.36 3.09,2.62 4.85,4.03 7.16,5.73 22.79,20.12 30.19,23.11 14.26,5.76 28.59,3.29 40.06,-6.44 8.5,-7.22 20.47,-17.51 29.05,-24.24 4.65,-3.65 36.96,-31.16 38.79,-32.07l0.01 91.06c0,8.32 0.44,14.58 -7.59,19.71 -2.03,1.3 -4.32,1.94 -7.15,2.15 -10.02,0.74 -14.27,-2.01 -15.44,3.24 0.49,1.79 1.13,2.47 2.43,2.7l6.63 0 5.92 0c1.85,-0.06 3.56,-0.22 5.37,-0.69 5.88,-1.51 10.71,-5.81 13.31,-10.64 1.61,-2.99 2.23,-6.03 2.44,-9.41l0 -12.09 0 -67.1 0 -23.82 0 -2.1 -0 -0.03 0 0c-0.96,-5.53 -4.81,-10.4 -9.14,-13.59 -3.79,-2.8 -7.41,-3.56 -12.02,-3.74l-9.72 0 -14.77 0 -7.7 0 -90.96 0 -11.24 0 -11.24 0 -9.72 0c-4.61,0.18 -8.23,0.94 -12.02,3.74 -4.33,3.2 -8.19,8.06 -9.15,13.59z"/>
   <path class="fil2" d="M245.94 137.36c-4.34,-1.4 -72.54,1.46 -84.37,-1.2 -8.62,-1.93 -18.51,-4.35 -25.78,-9 -1.63,-1.04 -3.45,-2.54 -4.8,-3.7 -1.65,-1.43 -2.67,-3.19 -4.39,-4.7l-10.79 8.89c-3.42,2.07 -7.05,-2.23 -2.95,-5.27l10.54 -8.8c-1.66,-5.57 -3.09,-5.1 -4.76,-15.27 -1.33,-8.11 -0.86,-29.18 -0.86,-38.55 0,-6.11 -0.42,-13.94 0.1,-19.83 -0.74,-0.94 -3.31,-2.86 -4.72,-4.06l-9.48 -7.9c-1.24,-1.02 -3.3,-2.94 -4.67,-3.68 -0.3,21.66 -0.01,43.52 -0.01,65.21 0,10.51 -0.44,21.98 0.02,32.37 0.43,9.59 7.01,15.38 16.87,15.44 43.32,0.26 86.75,-0.4 130.06,0.04z"/>
   <path class="fil1" d="M123.39 113.6l-10.54 8.8c-4.1,3.03 -0.47,7.33 2.95,5.27l10.79 -8.89 33.9 -28.29c1.35,-1.11 4.29,-2.94 2.67,-5.72 -2.16,-3.69 -7.2,1.83 -10.45,4.51 -3.25,2.68 -6.37,5.43 -9.72,8.06l-19.61 16.27z"/>
   <path class="fil1" d="M222.61 83.66c-1.57,0.42 -2.64,1.27 -2.23,3.34 0.33,1.68 1.76,2.3 2.88,3.28 2.17,1.9 4.65,3.76 6.76,5.6l33.04 27.58c3.11,2.49 5.24,5.18 7.59,4.67 1.45,-0.31 2.6,-1.75 2.03,-3.76 -0.53,-1.87 -21.15,-18.13 -23.15,-19.83l-23.18 -19.3c-1.07,-0.92 -2.08,-2.03 -3.75,-1.58z"/>
   <path class="fil0" d="M282.7 18.22l-0.8 0.82c-0.73,0.66 -1.58,1.24 -2.24,1.77l-4.29 3.61 0 0 -0.01 0.01 -4.28 3.6c-0.13,0.1 -0.38,0.3 -0.58,0.45l-7.65 6.38c-0.46,0.74 -1.26,1.02 -2.11,1.76l-4.45 3.71 -0.09 0.08 -0 0 -10.42 8.67c-4.21,3.31 -8.16,6.77 -12.26,10.15 -2.18,1.8 -3.85,3.33 -6.08,5.11 -11.74,9.39 -20.26,19.93 -35.46,19.95 -11.55,0.01 -16.9,-4.79 -23.67,-10.11 -2.05,-1.61 -3.9,-3.19 -5.88,-4.92l-33.1 -27.55 -0.05 -0.04 -6.47 -5.39c-0.74,-0.61 -1.36,-0.82 -1.73,-1.45l-8.56 -7.14c-1.5,-1.19 -3.28,-2.71 -4.91,-4.09l-3.54 -2.95c-0.72,-0.56 -0.84,-0.67 -1.68,-1.39 -0.37,-0.31 -0.59,-0.46 -0.85,-0.72 -0.45,-0.47 -0.45,-0.38 -0.48,-0.43l0 0 -0.81 -0.77 -0.49 -0.47 0.34 -1.05c2.27,-6.26 8.02,-9.9 15.82,-9.94 7.49,-0.05 14.98,-0.06 22.47,-0.06l0.96 0c2.39,0 4.78,0 7.17,0.01l0 -0.01 90.96 0 0 0.01c2.39,-0 4.78,-0.01 7.17,-0.01l0.52 0c7.64,0 15.27,0.02 22.9,0.06 8.16,0.05 14.08,4.02 16.12,10.83 0,0 -1.46,1.49 -1.48,1.52z"/>
   <rect class="fil3" x="16.45" y="71.02" width="73.23" height="5.81" rx="2.9" ry="2.9"/>
   <rect class="fil3" y="51.56" width="73.23" height="5.81" rx="2.9" ry="2.9"/>
   <rect class="fil3" y="89.79" width="73.23" height="5.81" rx="2.9" ry="2.9"/>
  </g>
 </g>
</svg>
