<?xml version="1.0" encoding="UTF-8"?>
<!DOCTYPE svg PUBLIC "-//W3C//DTD SVG 1.1//EN" "http://www.w3.org/Graphics/SVG/1.1/DTD/svg11.dtd">
<!-- Creator: CorelDRAW 2020 (64-Bit) -->
<svg xmlns="http://www.w3.org/2000/svg" xml:space="preserve" width="381.543mm" height="253.396mm" version="1.1" style="shape-rendering:geometricPrecision; text-rendering:geometricPrecision; image-rendering:optimizeQuality; fill-rule:evenodd; clip-rule:evenodd"
viewBox="0 0 563.67 374.35"
 xmlns:xlink="http://www.w3.org/1999/xlink"
 xmlns:xodm="http://www.corel.com/coreldraw/odm/2003">
 <defs>
  <style type="text/css">
   <![CDATA[
    .fil1 {fill:black}
    .fil4 {fill:#92C966}
    .fil3 {fill:#FEC108}
    .fil2 {fill:#FEDE00}
    .fil0 {fill:url(#id0)}
   ]]>
  </style>
  <linearGradient id="id0" gradientUnits="userSpaceOnUse" x1="287.59" y1="-0.03" x2="276.08" y2="374.38">
   <stop offset="0" style="stop-opacity:1; stop-color:#2196F3"/>
   <stop offset="0.658824" style="stop-opacity:1; stop-color:#1170BD"/>
   <stop offset="1" style="stop-opacity:1; stop-color:#004A87"/>
  </linearGradient>
 </defs>
 <g id="Capa_x0020_1">
  <metadata id="CorelCorpID_0Corel-Layer"/>
  <path class="fil0" d="M49.17 0l465.33 0c27.05,0 49.17,22.2 49.17,49.17l0 276.02c0,26.97 -22.2,49.17 -49.17,49.17l-465.33 0c-26.98,0 -49.17,-22.12 -49.17,-49.17l0 -276.02c0,-27.04 22.12,-49.17 49.17,-49.17z"/>
  <g id="_2068467678224">
   <path class="fil1" d="M132.37 239.5c10.18,-4.6 26.36,3.07 38.45,-6.24 8.1,-6.23 14.69,-18.22 8.8,-31.76 -4.65,-10.66 -13.83,-15.76 -28.44,-15.78l-66.23 0.03c-15.48,0.09 -9.04,-8.03 -6.58,-8.87 4.94,-1.68 73.18,0.81 87.07,-0.53 6.98,-0.67 11.19,-3.88 14.51,-7.89 3.93,-4.75 4.12,-9.73 4.44,-17.24 2.21,-0.01 63.95,40.21 73.49,46.83l24.03 16.43c-5.89,4.38 -26.04,12.08 -15.48,22.28 5.24,5.06 11.64,0.27 15.73,-2.2 23.56,-14.24 15.15,-10.25 29.29,-7.7 21.82,3.94 31.18,-3.52 37.82,-4.2 3.85,-0.4 58.31,36.54 64.43,40.54 9.15,5.98 45.48,28.88 50.86,33.53 -5.66,11.76 -14.19,9.39 -28.81,9.39l-227.83 0c-12.47,0 -24.26,1.95 -28.4,-9.11 1.54,-1.91 3.82,-2.94 6.07,-4.28 8.55,-5.1 39.62,-21.92 40.93,-27.85 1.29,-5.83 -3.23,-10.73 -9.1,-10.22 -3.55,0.31 -10.3,4.99 -13.27,6.79l-24.56 14.58c-1.07,-7.44 1.35,-11.45 -2.82,-18.37 -13.19,-21.92 -51.46,0.23 -44.4,-18.16zm235.37 -26.73c2.32,-2.36 9.52,-6.24 12.62,-8.1l90.83 -53.96 -5.3 125.61 -86.28 -55.56c-3.62,-2.5 -9,-5.2 -11.87,-7.99zm-181.75 -82.53c4.52,-12.19 16.2,-9.51 29.66,-9.51l226.97 0c11.62,0 26.05,-1.58 28.15,9.51l-34.6 21.05c-11.63,6.93 -22.95,13.71 -35.01,20.89 -11.77,7.01 -23.18,13.94 -34.91,20.95 -30.58,18.28 -44.68,27.44 -79.34,3.4l-67.64 -44.11c-5.94,-3.8 -10.67,-7.05 -16.64,-10.87l-16.64 -11.31zm-19.34 27.51c-10.77,5.17 -84.93,-1.61 -95.73,3.14 -3.83,1.68 -6.67,4.23 -8.95,7.39 -5.39,7.5 -6.01,17.21 -0.6,25.11 2.21,3.22 5.55,6.29 9.31,7.88 8.79,3.72 53.85,2.05 66.73,2.05 14.42,0 26.65,-3.04 26.65,9.46 0,15.99 -27.95,-0.22 -43.46,14.14 -11.5,10.64 -7.34,32.64 8.74,36.92 8.18,2.18 22.04,1.38 32.15,1.38 2.91,12.51 -7.06,33.63 10.08,50.1 5.42,5.21 13.09,8.36 23.45,8.36l257.06 0c14.52,0 27.72,-11.49 30.24,-26.5l5.04 -110.17c0.03,-19.16 1.69,-36.26 1.69,-55.91 0,-4.97 -3.87,-12.55 -7.45,-16.62l-0.81 -0.91c-4.61,-4.94 -12.07,-9.98 -20.97,-9.98l-263.07 0c-15.46,0 -29.38,14.35 -29.25,33.51 0.05,7.77 -0.84,12.89 -0.84,20.65z"/>
   <path class="fil2" d="M244.49 239.33c10.53,-3.02 14.39,13.64 4.41,16.23 -5.37,1.39 -10.02,-1.85 -10.83,-6 -1.12,-5.77 1.79,-8.89 6.42,-10.22zm-112.12 0.16c-7.06,18.39 31.21,-3.76 44.4,18.16 4.17,6.92 1.75,10.93 2.82,18.37l24.56 -14.58c2.97,-1.8 9.72,-6.48 13.27,-6.79 5.87,-0.51 10.39,4.39 9.1,10.22 -1.31,5.93 -32.38,22.75 -40.93,27.85 -2.25,1.34 -4.54,2.37 -6.07,4.28 4.14,11.07 15.93,9.11 28.4,9.11l227.83 0c14.62,0 23.15,2.37 28.81,-9.39 -5.39,-4.65 -41.72,-27.55 -50.86,-33.53 -6.12,-4 -60.58,-40.94 -64.43,-40.54 -6.64,0.68 -15.99,8.14 -37.82,4.2 -14.13,-2.55 -5.73,-6.54 -29.29,7.7 -4.09,2.47 -10.49,7.26 -15.73,2.2 -10.56,-10.2 9.59,-17.9 15.48,-22.28l-24.03 -16.43c-9.54,-6.62 -71.28,-46.84 -73.49,-46.83 -0.32,7.51 -0.51,12.49 -4.44,17.24 -3.32,4.01 -7.53,7.22 -14.51,7.89 -13.89,1.33 -82.13,-1.15 -87.07,0.53 -2.46,0.84 -8.9,8.96 6.58,8.87l66.23 -0.03c14.61,0.02 23.79,5.11 28.44,15.78 5.9,13.53 -0.7,25.52 -8.8,31.76 -12.08,9.3 -28.27,1.64 -38.45,6.24z"/>
   <path class="fil3" d="M185.99 130.23l16.64 11.31c5.96,3.82 10.7,7.07 16.64,10.87l67.64 44.11c34.66,24.04 48.75,14.88 79.34,-3.4 11.73,-7.01 23.14,-13.95 34.91,-20.95 12.06,-7.18 23.38,-13.96 35.01,-20.89l34.6 -21.05c-2.09,-11.09 -16.52,-9.51 -28.15,-9.51l-226.97 0c-13.46,0 -25.14,-2.68 -29.66,9.51z"/>
   <path class="fil2" d="M367.75 212.77c2.87,2.8 8.25,5.49 11.87,7.99l86.28 55.56 5.3 -125.61 -90.83 53.96c-3.11,1.86 -10.3,5.74 -12.62,8.1z"/>
   <path class="fil1" d="M195.88 41.68c0,6.45 4.97,9.46 11.18,9.46l133.26 0c16.89,0 16.18,-18.05 1.72,-18.05l-135.84 0c-5.55,0 -10.32,3.22 -10.32,8.6z"/>
   <path class="fil1" d="M268.96 88.11l136.7 0c3.23,0 5.28,-0.65 7.16,-2.29 5.75,-5.02 4.02,-15.76 -9.74,-15.76l-131.54 0c-17.58,0 -15.62,18.05 -2.58,18.05z"/>
   <path class="fil1" d="M72.94 248.34c-9.38,0 -9.34,-9.22 0,-9.22l5.19 -0.17 5.55 1.04c1.92,4.97 1.54,8.35 -5.58,8.35l-5.16 0zm-24.07 -6.34c0,34.32 53.3,29.8 53.3,3.44 0,-8.26 -1.44,-13.16 -7.97,-18.68 -13.11,-11.07 -45.33,-6.06 -45.33,15.24z"/>
   <path class="fil1" d="M369.55 41.68c0,13.65 21.4,11.08 17.12,-2.42 -2,-6.3 -9.51,-8.07 -13.94,-3.86 -1.09,1.04 -3.18,4.6 -3.18,6.28z"/>
   <path class="fil1" d="M244.49 239.33c-4.63,1.33 -7.54,4.45 -6.42,10.22 0.8,4.15 5.46,7.4 10.83,6 9.99,-2.59 6.12,-19.25 -4.41,-16.23z"/>
   <path class="fil4" d="M72.94 248.34l5.16 0c7.12,0 7.49,-3.37 5.58,-8.35l-5.55 -1.04 -5.19 0.17c-9.34,0 -9.38,9.22 0,9.22z"/>
  </g>
 </g>
</svg>
