<?xml version="1.0" encoding="UTF-8"?>
<!DOCTYPE svg PUBLIC "-//W3C//DTD SVG 1.1//EN" "http://www.w3.org/Graphics/SVG/1.1/DTD/svg11.dtd">
<!-- Creator: CorelDRAW 2020 (64-Bit) -->
<svg xmlns="http://www.w3.org/2000/svg" xml:space="preserve" width="311.514mm" height="309.937mm" version="1.1" style="shape-rendering:geometricPrecision; text-rendering:geometricPrecision; image-rendering:optimizeQuality; fill-rule:evenodd; clip-rule:evenodd"
viewBox="0 0 402.84 400.8"
 xmlns:xlink="http://www.w3.org/1999/xlink"
 xmlns:xodm="http://www.corel.com/coreldraw/odm/2003">
 <defs>
  <style type="text/css">
   <![CDATA[
    .fil0 {fill:#FFD15B}
    .fil1 {fill:#FFE177}
    .fil2 {fill:white}
   ]]>
  </style>
 </defs>
 <g id="Capa_x0020_1">
  <metadata id="CorelCorpID_0Corel-Layer"/>
  <rect class="fil0" x="-0" width="402.84" height="400.8" rx="42.17" ry="41.95"/>
  <rect class="fil1" x="28.52" y="26.78" width="345.81" height="347.25" rx="15.67" ry="15.73"/>
  <path class="fil2" d="M189.85 285.73l23.15 0c3.38,0 6.14,2.76 6.14,6.14l0 34.25c0,3.38 -2.76,6.14 -6.14,6.14l-23.15 0c-3.38,0 -6.14,-2.76 -6.14,-6.14l0 -34.25c0,-3.38 2.76,-6.14 6.14,-6.14zm0 -217.2l23.15 0c3.38,0 6.14,2.76 6.14,6.14l0 181.29c0,3.38 -2.76,6.14 -6.14,6.14l-23.15 0c-3.38,0 -6.14,-2.76 -6.14,-6.14l0 -181.29c0,-3.38 2.76,-6.14 6.14,-6.14z"/>
 </g>
</svg>
