<?xml version="1.0" encoding="UTF-8"?>
<!DOCTYPE svg PUBLIC "-//W3C//DTD SVG 1.1//EN" "http://www.w3.org/Graphics/SVG/1.1/DTD/svg11.dtd">
<!-- Creator: CorelDRAW 2020 (64-Bit) -->
<svg xmlns="http://www.w3.org/2000/svg" xml:space="preserve" width="343.402mm" height="166.955mm" version="1.1" style="shape-rendering:geometricPrecision; text-rendering:geometricPrecision; image-rendering:optimizeQuality; fill-rule:evenodd; clip-rule:evenodd"
viewBox="0 0 848.67 412.61"
 xmlns:xlink="http://www.w3.org/1999/xlink"
 xmlns:xodm="http://www.corel.com/coreldraw/odm/2003">
 <defs>
  <style type="text/css">
   <![CDATA[
    .fil0 {fill:black}
    .fil4 {fill:#68CA44}
    .fil10 {fill:#6D7173}
    .fil9 {fill:#717477}
    .fil2 {fill:#7FD160}
    .fil6 {fill:#CA2E43}
    .fil1 {fill:#E33850}
    .fil8 {fill:#F1F9FD}
    .fil5 {fill:#FB6930}
    .fil7 {fill:#FCB136}
    .fil3 {fill:#FEC143}
   ]]>
  </style>
 </defs>
 <g id="Capa_x0020_1">
  <metadata id="CorelCorpID_0Corel-Layer"/>
  <g id="_1752600865760">
   <path class="fil0" d="M775.77 310.08c49.57,-12.36 67.73,62.92 18.61,75.53 -49.63,12.75 -69.71,-62.79 -18.61,-75.53zm72.89 30.52l0 15.07c-3.72,30.56 -29.65,54.02 -56.41,56.09 -23.86,1.84 -40.77,-6.2 -51.75,-17.78 -9.53,-10.05 -9.67,-7.07 -27.77,-7.04l-106.17 -0.08c-17.08,-0.16 -12.92,4.02 -22.83,11.97 -23.38,18.76 -57.91,16.51 -78.48,0 -9.85,-7.91 -5.85,-12.25 -22.88,-11.93 -13.51,0.25 -20.77,-0.24 -21.84,-13.22 1.26,-7.6 2.7,-9.78 9.18,-11.17l12.18 -0.77c0.44,-5.49 1.14,-2.33 -1.35,-6.18l0.79 -20.71 -114.08 -0.28 0.85 20.98c-2.61,3.85 -1.8,0.78 -1.34,6.09l51.14 0.5c7.17,1.64 8.16,3.55 9.34,11.55 0.34,18.34 -31.37,13.52 -57.64,13.23 -30.72,-0.33 -12.18,12.28 -47.01,22.6 -21.84,6.47 -43.88,-0.23 -56.73,-9.96 -13.48,-10.2 -5.79,-12.73 -22.08,-12.73l-106.2 0.12c-19.87,-0.01 -20.31,-2.67 -28.63,6.18 -6.03,6.41 -11.77,10.55 -20.56,14.24 -41.94,17.64 -78.73,-12.34 -86.82,-43.54 -0.7,-2.69 -1.21,-5.34 -1.57,-7.96l0 -17.57c6.93,-48.37 70.37,-75.74 109.73,-34.56 4.63,4.84 3.86,5.27 12.79,5.44l122.94 0c8.93,-0.18 8.16,-0.6 12.79,-5.44 27.28,-28.53 68,-23.82 86.99,-5.1 10.23,10.09 5.3,10.64 24.37,10.44l106.12 -0.02c19.71,0.1 15.66,2.08 26.08,-8.73 19.69,-20.43 56.29,-21.23 79.33,-5.52 11.34,7.73 8.06,13.71 20.44,14.37l106.21 -0.13c17.68,0 23.29,2.66 30.37,-4.44 43.16,-43.32 96.88,-13.36 108.24,24.96 1.11,3.73 1.85,7.42 2.29,11.04zm-313.2 -30.5c23.11,-5.83 42.33,9.85 46.83,28.21 5.74,23.46 -10.26,42.74 -28.23,47.32 -49.41,12.58 -69.65,-62.65 -18.6,-75.53zm-480.62 0.03c22.81,-5.84 42.6,10.09 46.91,28.05 5.7,23.76 -10,42.93 -28.35,47.49 -49.35,12.27 -69.36,-62.53 -18.56,-75.54zm240.31 -0.02c22.96,-5.83 42.48,10.06 46.87,28.13 5.73,23.6 -10.13,42.83 -28.29,47.4 -49.2,12.37 -69.71,-62.54 -18.58,-75.53zm425.66 45.71l1.37 6.23 -115.12 -0.36c-0.56,-5.35 -1.2,-2.47 1.3,-6.46l-0.78 -20.67 114.06 0.32 -0.82 20.95zm-480.75 -1.5l1.6 7.8 -115.73 -0.63 1.9 -5.69 -0.87 -21.23 114.2 0.23 -1.1 19.52z"/>
   <path class="fil1" d="M137.95 60.01c21.29,-7.04 19.3,37.1 8.88,41.45 -13.08,5.46 -17.92,-5.23 -18.2,-16.1 -0.33,-13.18 -1.55,-21.76 9.32,-25.35zm-51.45 -0.04c21.33,-6.76 19.08,36.99 8.89,41.43 -13.11,5.7 -17.97,-5.16 -18.24,-16.04 -0.33,-13.17 -1.6,-21.91 9.35,-25.38zm-28.48 -29.3c-10.42,6.55 -15.52,13.23 -24.09,21.44 16.14,19.96 -19.18,32.54 -6.43,85.26 3.53,14.59 10.44,27.63 18.11,36.59 6.24,7.29 21.75,22.18 32.91,23.23 18.31,4.03 42.19,-4.82 55.75,-12.45 7.5,-4.22 14.86,-9.45 20.03,-14.83 5.48,-5.7 13.19,-12.1 14.96,-20.32 -18.44,6.4 -39.47,-18.61 -86.9,-1.87 -14.53,5.13 -12.82,6.49 -24.34,-2.07 -2.51,-17.26 6.42,-18.47 19.65,-22.5 28.65,-8.73 96.15,-8.83 95.74,19 14.24,-12.7 17.67,-61.9 2.3,-91.76 -0.66,-10.24 -40.51,-23.53 -53.21,-24.46 -12.22,-0.9 -24.05,0.55 -35.09,4.16 -15.37,5.02 -16.38,10.79 -29.39,0.57z"/>
   <path class="fil2" d="M746.59 76.97c0,-10.6 2,-17.66 12.51,-17.62 13.96,0.06 12.33,14.21 12.33,25.9 0,19.81 -24.84,32.12 -24.84,-8.29zm-51.49 0c0,-24.88 24.84,-24.05 24.84,0 0,11.17 1.64,26.63 -13.77,25.5 -12.83,-0.94 -11.08,-13.68 -11.08,-25.5zm-20.87 117.93c38.57,7.75 72.87,0.05 99.98,-26.66 11.07,-10.9 6.58,-9.24 5.96,-10.29 -22.27,5.58 -33.93,10.59 -60.02,7.85 -13.54,-1.42 -55.15,-8.75 -37.75,-28.04 9.4,-10.41 22.33,5.97 58.29,3.55 17.82,-1.2 49.06,-18.92 46.08,8.78 9.57,-7.45 15.97,-34.64 16.89,-45.19 2.29,-26.33 -4.4,-32.82 -8.13,-53.48 -10.07,-18.03 -78.41,-49.79 -130.93,5.55 -23.95,25.23 -30.08,71.43 -7.86,107.46 7.08,11.48 18.85,16.67 17.48,30.46z"/>
   <path class="fil3" d="M456.41 101.77c-14.19,2.22 -18.55,-2.87 -18.84,-16.4 -0.23,-10.98 -0.87,-21.62 8.2,-25.17 17.59,-6.88 23.49,24.17 10.64,41.57zm-64.16 0c-7.41,-10 -7.05,-12.79 -6.11,-28.21 0.57,-9.25 6.84,-17.26 16.76,-13.36 10.29,4.04 17.7,46.01 -10.65,41.57zm-4.71 95.67c26.37,5.02 56.03,-9.44 74.48,-26.39 3.24,-2.98 15.67,-14.02 13.33,-17.6 -19.76,1.44 -41.89,0.87 -62.61,0.87 -15.39,0 -52.13,5.58 -44.39,-17.05 4.05,-11.83 38.02,-7.79 57.65,-7.79 26.15,0 46.21,-4.21 54.7,7.8 3.35,3.3 2.3,-5.14 3.31,6.36 4.03,-15.98 10.27,-21.93 11.27,-43.43 0.99,-21.38 -3.52,-30.34 -8.78,-48.21 -0.81,-1.83 0.21,-0.3 -1.65,-2.57 -1.02,-1.24 -2.12,-2.32 -3.14,-3.22 -63.04,-55.88 -174.41,9.29 -142.84,99.66 4.47,12.8 11.76,23.25 18.45,31.3 4.13,4.98 21.1,20.04 30.22,20.28z"/>
   <path class="fil0" d="M486.49 51.99c5.35,2.87 1.98,0.52 6.08,4.93 51.27,55.15 9.14,155.63 -74.93,149.46l-30.1 -8.93c-9.13,-0.24 -26.09,-15.3 -30.22,-20.28 -6.69,-8.06 -13.99,-18.51 -18.45,-31.3 -31.57,-90.37 79.8,-155.54 142.84,-99.66 1.02,0.9 2.13,1.98 3.14,3.22 1.86,2.27 0.84,0.75 1.65,2.57zm-178.18 63.11c0,48.76 28.67,88.6 67.72,106.32 5.81,2.64 15.69,6.11 22.17,7.67 101.27,24.24 181.4,-92.16 122.53,-177.23 -9.19,-13.28 -14.32,-18.39 -26.51,-28.19 -4.87,-3.91 -11.31,-7.81 -17.35,-10.82 -44.44,-22.17 -90.21,-14.51 -128.55,16.29 -3.45,2.77 -4.92,3.16 -8.06,6.85 -19.18,22.57 -31.95,46.95 -31.95,79.11z"/>
   <path class="fil0" d="M672.08 199.63l2.15 -4.73c1.37,-13.79 -10.4,-18.98 -17.48,-30.46 -22.22,-36.03 -16.08,-82.23 7.86,-107.46 52.52,-55.34 120.86,-23.58 130.93,-5.55 12.88,6.84 25.32,36.32 27.42,52.88 5.51,43.34 -19.82,83.05 -60.09,97.38 -10.35,3.68 -23.02,5.54 -35.28,4.73 -28.72,-1.91 -17.88,-2.98 -28.11,7.91 0.74,9.35 3.08,13.03 11.25,15.49 2.39,0.72 21.38,3.05 24.93,2.78 72.89,-5.7 110.84,-58.55 113.01,-112.39l0 -9.84c-1.59,-38.88 -21.92,-76.82 -61.32,-96.39 -113.63,-56.43 -217.5,73.95 -147.56,170.77 11.57,16.01 18.28,24 32.29,14.89z"/>
   <path class="fil0" d="M58.01 30.67c13.01,10.22 14.02,4.45 29.39,-0.57 11.05,-3.61 22.88,-5.05 35.09,-4.16 12.71,0.93 52.55,14.22 53.21,24.46 45.46,29.55 41.92,127.15 -31.02,151.36 -16.42,5.45 -55.28,8.56 -66.18,-4.57 -11.16,-1.05 -26.67,-15.95 -32.91,-23.23 -7.67,-8.96 -14.58,-22 -18.11,-36.59 -12.75,-52.72 22.57,-65.31 6.43,-85.26 -8.46,-3.21 -13.99,-0.99 -18.38,5.6 -8.9,13.36 -14.01,28.94 -15.54,45.24l0 21.43c1.98,21.62 9.85,43.38 23.18,62.01 3.97,5.55 8.7,9.44 13.69,14.49 35.83,36.25 97.42,41.6 142.18,12.03 43.57,-28.78 63.55,-85.71 46.17,-134.07 -25.6,-71.2 -106.6,-96.27 -160.67,-66.63 -8.41,4.61 -8.71,8.76 -6.52,18.44z"/>
   <path class="fil4" d="M786.78 150.11c-2.34,4.1 -3.34,5.23 -6.61,7.85 0.61,1.05 5.11,-0.61 -5.96,10.29 -27.11,26.71 -61.41,34.41 -99.98,26.66l-2.15 4.73c9.62,7.02 16.37,9.71 27.41,14.7 10.23,-10.89 -0.6,-9.82 28.11,-7.91 12.25,0.81 24.93,-1.05 35.28,-4.73 40.27,-14.33 65.6,-54.04 60.09,-97.38 -2.11,-16.56 -14.54,-46.03 -27.42,-52.88 3.73,20.66 10.42,27.15 8.13,53.48 -0.92,10.55 -7.32,37.73 -16.89,45.19z"/>
   <path class="fil2" d="M780.29 336.46c16.07,-6.01 22.62,17.45 9.05,22.75 -15.47,6.04 -24.37,-17.01 -9.05,-22.75zm-4.51 -26.38c-51.1,12.74 -31.01,88.28 18.61,75.53 49.12,-12.62 30.96,-87.89 -18.61,-75.53z"/>
   <path class="fil3" d="M539.99 336.49c16.1,-6.19 22.71,17.56 9.03,22.75 -15.36,5.83 -24.3,-16.87 -9.03,-22.75zm-4.53 -26.39c-51.06,12.88 -30.82,88.12 18.6,75.53 17.97,-4.58 33.98,-23.86 28.23,-47.32 -4.5,-18.36 -23.72,-34.04 -46.83,-28.21z"/>
   <path class="fil5" d="M299.71 336.52c16.2,-6.4 23.22,17.49 9,22.75 -15.24,5.63 -24.27,-16.72 -9,-22.75zm-4.56 -26.41c-51.13,12.99 -30.63,87.9 18.58,75.53 18.16,-4.57 34.02,-23.8 28.29,-47.4 -4.39,-18.07 -23.91,-33.97 -46.87,-28.13z"/>
   <path class="fil1" d="M59.41 336.55c16.21,-6.61 23.32,17.6 8.99,22.75 -15.1,5.43 -24.22,-16.54 -8.99,-22.75zm-4.57 -26.42c-50.8,13 -30.8,87.8 18.56,75.54 18.35,-4.56 34.05,-23.73 28.35,-47.49 -4.31,-17.96 -24.1,-33.89 -46.91,-28.05z"/>
   <path class="fil6" d="M173.41 142.16c-1.83,3.32 -3.14,5.37 -4.15,7.43 -1.77,8.22 -9.48,14.63 -14.96,20.32 -5.17,5.37 -12.53,10.6 -20.03,14.83 -13.56,7.63 -37.44,16.48 -55.75,12.45 10.9,13.12 49.76,10.01 66.18,4.57 72.95,-24.21 76.49,-121.81 31.02,-151.36 15.36,29.86 11.94,79.07 -2.3,91.76z"/>
   <path class="fil7" d="M480.69 137.28c0.67,8.93 -2,11.72 -5.35,16.17 2.34,3.59 -10.09,14.63 -13.33,17.6 -18.45,16.95 -48.11,31.41 -74.48,26.39l30.1 8.93c84.07,6.18 126.2,-94.31 74.93,-149.46 -4.1,-4.41 -0.73,-2.06 -6.08,-4.93 5.25,17.87 9.77,26.83 8.78,48.21 -1,21.5 -7.24,27.46 -11.27,43.43 -1.01,-11.5 0.04,-3.06 -3.31,-6.36z"/>
   <path class="fil8" d="M368.11 355.54l-0.6 4.9c7.85,0 44.03,-1.87 50.4,1.68 7.17,1.64 8.16,3.55 9.34,11.55l33.3 0c1.26,-7.6 2.7,-9.78 9.18,-11.17 3.83,-3.24 5.32,-2.06 11.39,-2.06l-0.56 -4.9 0.79 -20.71 -114.08 -0.28 0.85 20.98z"/>
   <polygon class="fil8" points="127.83,355.8 127.28,360.49 241.17,360.48 240.06,354.32 241.16,334.8 126.96,334.56 "/>
   <polygon class="fil8" points="608.35,355.22 607.77,360.45 719.38,360.44 721.35,360.45 720.81,355.82 721.63,334.88 607.57,334.55 "/>
   <path class="fil0" d="M169.25 149.59c1.01,-2.06 2.32,-4.11 4.15,-7.43 0.41,-27.84 -67.09,-27.73 -95.74,-19 -13.22,4.03 -22.16,5.24 -19.65,22.5 11.52,8.56 9.81,7.2 24.34,2.07 47.44,-16.74 68.47,8.27 86.9,1.87z"/>
   <path class="fil0" d="M475.34 153.44c3.35,-4.45 6.02,-7.24 5.35,-16.17 -8.49,-12.02 -28.54,-7.8 -54.7,-7.8 -19.63,0 -53.61,-4.04 -57.65,7.79 -7.74,22.63 29,17.05 44.39,17.05 20.72,0 42.85,0.57 62.61,-0.87z"/>
   <path class="fil0" d="M780.17 157.96c3.27,-2.62 4.27,-3.75 6.61,-7.85 2.98,-27.7 -28.26,-9.98 -46.08,-8.78 -35.96,2.42 -48.9,-13.97 -58.29,-3.55 -17.4,19.29 24.21,26.62 37.75,28.04 26.08,2.73 37.75,-2.28 60.02,-7.85z"/>
   <path class="fil0" d="M137.95 60.01c-10.86,3.59 -9.65,12.17 -9.32,25.35 0.27,10.87 5.12,21.56 18.2,16.1 10.41,-4.35 12.41,-48.49 -8.88,-41.45z"/>
   <path class="fil0" d="M86.5 59.97c-10.95,3.47 -9.68,12.22 -9.35,25.38 0.27,10.88 5.13,21.75 18.24,16.04 10.19,-4.43 12.44,-48.18 -8.89,-41.43z"/>
   <path class="fil0" d="M695.09 76.97c0,11.83 -1.75,24.57 11.08,25.5 15.41,1.13 13.77,-14.34 13.77,-25.5 0,-24.05 -24.84,-24.88 -24.84,0z"/>
   <path class="fil0" d="M456.41 101.77c12.85,-17.4 6.96,-48.45 -10.64,-41.57 -9.07,3.55 -8.43,14.19 -8.2,25.17 0.28,13.53 4.65,18.63 18.84,16.4z"/>
   <path class="fil0" d="M392.25 101.77c28.35,4.44 20.94,-37.52 10.65,-41.57 -9.91,-3.9 -16.19,4.12 -16.76,13.36 -0.95,15.41 -1.3,18.2 6.11,28.21z"/>
   <path class="fil0" d="M746.59 76.97c0,40.41 24.84,28.1 24.84,8.29 0,-11.7 1.63,-25.84 -12.33,-25.9 -10.51,-0.05 -12.51,7.01 -12.51,17.62z"/>
   <path class="fil0" d="M299.71 336.52c-15.27,6.03 -6.24,28.38 9,22.75 14.22,-5.26 7.2,-29.15 -9,-22.75z"/>
   <path class="fil0" d="M59.41 336.55c-15.24,6.21 -6.11,28.18 8.99,22.75 14.34,-5.15 7.22,-29.36 -8.99,-22.75z"/>
   <path class="fil0" d="M780.29 336.46c-15.32,5.73 -6.43,28.79 9.05,22.75 13.58,-5.29 7.02,-28.76 -9.05,-22.75z"/>
   <path class="fil0" d="M539.99 336.49c-15.27,5.87 -6.34,28.58 9.03,22.75 13.68,-5.19 7.08,-28.94 -9.03,-22.75z"/>
   <path class="fil9" d="M720.81 355.82l0.54 4.62 -1.97 -0 -111.61 0.01 0.58 -5.22c-2.5,3.99 -1.86,1.12 -1.3,6.46l115.12 0.36 -1.37 -6.23z"/>
   <polygon class="fil10" points="127.83,355.8 125.93,361.49 241.66,362.12 240.06,354.32 241.17,360.48 127.28,360.49 "/>
   <path class="fil9" d="M417.91 362.12c-6.37,-3.55 -42.55,-1.68 -50.4,-1.68l0.6 -4.9c-2.61,3.85 -1.8,0.78 -1.34,6.09l51.14 0.5z"/>
   <path class="fil9" d="M469.72 362.51l12.18 -0.77c0.44,-5.49 1.14,-2.33 -1.35,-6.18l0.56 4.9c-6.07,0 -7.56,-1.18 -11.39,2.06z"/>
  </g>
 </g>
</svg>
