<?xml version="1.0" encoding="UTF-8"?>
<!DOCTYPE svg PUBLIC "-//W3C//DTD SVG 1.1//EN" "http://www.w3.org/Graphics/SVG/1.1/DTD/svg11.dtd">
<!-- Creator: CorelDRAW 2020 (64-Bit) -->
<svg xmlns="http://www.w3.org/2000/svg" xml:space="preserve" width="243.06mm" height="154.101mm" version="1.1" style="shape-rendering:geometricPrecision; text-rendering:geometricPrecision; image-rendering:optimizeQuality; fill-rule:evenodd; clip-rule:evenodd"
viewBox="0 0 630.08 399.47"
 xmlns:xlink="http://www.w3.org/1999/xlink"
 xmlns:xodm="http://www.corel.com/coreldraw/odm/2003">
 <defs>
  <style type="text/css">
   <![CDATA[
    .fil1 {fill:black}
    .fil6 {fill:#636363}
    .fil3 {fill:#B53C3C}
    .fil2 {fill:#CA4343}
    .fil4 {fill:#F44B34}
    .fil5 {fill:#F4F4F4}
    .fil0 {fill:#F75B4A}
   ]]>
  </style>
 </defs>
 <g id="Capa_x0020_1">
  <metadata id="CorelCorpID_0Corel-Layer"/>
  <g id="_2070158350656">
   <path class="fil0" d="M351.31 266.56c-2.24,-7.82 -0.54,-100.34 -0.61,-123.09 -0.07,-20.14 5.85,-16.19 33.25,-16.31 8.27,-0.04 17.32,-1 19.6,6.7 2.23,7.53 0.54,100.35 0.66,122.88 0.09,20.6 -8.03,16.19 -33.8,16.33 -9.04,0.05 -16.99,0.88 -19.1,-6.5zm-204.18 -90.42c2.25,1.86 -0.25,0.66 3.11,1.59l29.51 0.34c15.41,0.17 13.73,7.03 13.69,20.81 -0.06,27.89 2.43,23.57 -46.04,23.57l0 1.48c11.97,0 24.02,-0.13 35.98,0.06 15.32,0.24 19.57,-0.94 19.59,15.45 0.06,40.08 2,33.61 -38.07,33.61 -11.77,0 -63.66,2.32 -68.69,-3.05 -4.9,-5.23 -3.09,-134.93 -1.03,-138.38 4.21,-7.05 21.87,-4.46 31.57,-4.46 10.23,0 64.88,-1.55 70.19,1.55 7.26,4.25 4.36,21.74 4.4,30.83 0.08,21.7 -8.1,16.59 -54.21,16.59zm352.65 0.23c0,20.63 0,41.26 0,61.89 0,33.66 6.23,34.79 -27.22,34.79 -29.75,0 -26.22,2.69 -26.22,-36.02 0,-14.76 1.76,-48.15 -0.45,-60.7 -36.86,-2.57 -38.86,8.31 -36.36,-37.82 0.8,-14.73 11.89,-11.34 26.11,-11.33l75.07 0c13.74,-0.01 24.91,-3.08 25.69,11.34 2.51,46.44 0.76,35.33 -36.63,37.86zm-222.88 -19.35c23.93,-32.03 1.32,-29.61 50.46,-29.86 33.91,-0.17 15.76,16.87 0.1,41.03 -5.75,8.88 -17.25,24.36 -21.06,33.15l30.51 47.07c3.84,5.96 8.94,10.46 7.62,19.9 -7.59,6.45 -7.93,4.79 -19.63,4.75 -30.33,-0.12 -30.22,3.76 -38.8,-11.97 -2.63,-4.83 -6.28,-12.12 -9.46,-16.21 -7.36,8.92 -10.79,27.35 -23.01,28.18 -7.88,0.54 -17.82,-0.04 -25.95,0 -9.21,0.04 -17.8,1.38 -19.42,-6.87 -1.37,-7.01 13.47,-26.36 17.88,-33.19 6.93,-10.76 14.1,-20.53 20.55,-31.66 -2.67,-7.1 -24.5,-37.97 -31.14,-48.15 -2.76,-4.24 -9.66,-12.3 -8.86,-18.13 1.19,-8.67 10.43,-7.95 18.52,-7.91 8.35,0.05 19.16,-0.62 27.17,0.03 13.37,1.09 15.45,21.73 24.52,29.84zm-202.02 189.61l502.37 0 0 -293.05 -502.34 0c-2.67,16.43 -1.01,188.69 -1.01,220.36 0,21.27 -1.8,52.94 0.98,72.69z"/>
   <path class="fil1" d="M178.44 0.75l273.2 0 18.46 0c27.89,0 55.79,0 83.68,0l35.99 0c12.38,1 21.77,4.56 30.89,15.57 7.56,9.14 9.35,15.5 9.42,30.9l0 290.71 0 14.64c-0.42,16.95 -3.7,33.99 -24.6,43.21 -5.26,2.32 -10.15,3.3 -15.41,3.68l-22.75 0 -23.09 0c-5.15,-0.83 -8.53,-3.09 -8.81,-8.61 2.01,-11.71 9.32,-9.88 20.83,-9.84 21.76,0.08 41.39,4.11 51.52,-11.29 5.18,-7.86 3.87,-17.73 3.87,-28.1l0 -251.05c0,-14.01 2.61,-49.4 -3.38,-59.36 -9.69,-16.14 -30.14,-12.03 -52.02,-12.03 -167.44,0 -335.63,-1.59 -502.97,0.03 -12.08,-0.06 -30.27,-0.24 -34.17,18.96 -2.04,10.05 -0.63,240.38 -0.63,268.98 0,29.29 -6.28,58.51 11.26,69.99 6.89,4.51 14.34,3.87 23.46,3.83 134.79,1.11 272.85,0.03 408.29,0.03 9.84,0 19.7,0.04 29.54,-0.01 11.69,-0.05 17.67,-1.6 19.71,9.84 -0.52,5.72 -3.84,7.88 -8.56,8.61l-17.31 0 -440.23 0c-11.54,-0.09 -17.41,-1.42 -24.92,-6.18 -19.23,-12.18 -19.7,-28.22 -19.71,-46.22l0 -1.75 0 -304.88c0.85,-19.01 13.79,-32.11 28.12,-37.42 13.55,-5.02 46.87,-2.27 65.41,-2.27 22.15,0 44.3,0 66.45,0l18.46 0z"/>
   <path class="fil1" d="M43.24 88.02c7.4,-0.8 9.4,-4.48 9.64,-12.12 0.23,-7.24 -0.04,-15.01 -0.04,-22.3l22.05 -0.01 502.34 -0 0 293.05 -502.37 -0 -22.03 -0.01 0.01 -214.2c0.05,-10.49 1.23,-18.01 -9.63,-19.52 -12.67,2.87 -8.84,18.87 -8.84,41.67 0,26.59 -1.04,196.16 0.39,202.82 1.74,8.04 7.75,7.66 16.9,7.57 108.84,-0.99 221.96,-0.02 331.05,-0.02 67.06,0 136.58,1.79 203.33,-0.06 7.44,-1.34 9.36,-3.66 9.67,-12.09l-0.03 -65.31c0,-76.54 1.33,-163.3 0.05,-238.82 -0.15,-9.17 -1.63,-11.87 -9.68,-13.33 -49.79,-1.39 -101.62,-0.06 -151.64,-0.06 -126.84,0 -257.61,1.07 -383.99,-0.04 -17.9,-0.16 -16.08,5.51 -16.04,22.12 0.04,18.22 -3.12,27.65 8.86,30.67z"/>
   <path class="fil2" d="M586.05 35.34c8.06,1.46 9.53,4.16 9.68,13.33 1.28,75.52 -0.05,162.28 -0.05,238.82l0.03 65.31c-0.31,8.43 -2.23,10.74 -9.67,12.09 -3.75,1.83 -490.58,0.63 -540.95,0.63 1.83,8.73 4.78,10.07 8.08,15.48 134.79,1.11 272.85,0.03 408.29,0.03 9.84,0 19.7,0.04 29.54,-0.01 11.69,-0.05 17.67,-1.6 19.71,9.84l24.68 0c2.01,-11.71 9.32,-9.88 20.83,-9.84 21.76,0.08 41.39,4.11 51.52,-11.29 5.18,-7.86 3.87,-17.73 3.87,-28.1l0 -251.05c0,-14.01 2.61,-49.4 -3.38,-59.36 -9.69,-16.14 -30.14,-12.03 -52.02,-12.03 -167.44,0 -335.63,-1.59 -502.97,0.03 -3,5.01 -6.51,7.83 -8.16,15.48 50.37,0 537.19,-1.19 540.95,0.63z"/>
   <path class="fil1" d="M112.3 146.54c1.42,-1.42 -1.48,-1.55 8.27,-1.45l62.07 0.37c2.07,4.24 1.7,7.85 0.46,13.09l-46.29 -0.01c-8.74,0.48 -8.18,7.25 -8.16,15.7 0.02,6.28 -1.54,15.48 2.99,19.76 5.24,4.95 33.76,2.51 43.26,2.51l0.09 7.46c-48.03,0 -46.6,-4.85 -46.36,24.47 0.14,16.33 6.95,14.15 21.51,14.11 11.2,-0.04 22.61,-0.19 34.11,0.05l0.23 11.98 -72.35 -0.19 0.17 -107.86zm34.83 29.6c46.11,0 54.29,5.11 54.21,-16.59 -0.04,-9.09 2.86,-26.58 -4.4,-30.83 -5.31,-3.1 -59.95,-1.55 -70.19,-1.55 -9.7,0 -27.36,-2.59 -31.57,4.46 -2.06,3.45 -3.87,133.15 1.03,138.38 5.03,5.37 56.92,3.05 68.69,3.05 40.07,0 38.13,6.47 38.07,-33.61 -0.03,-16.4 -4.27,-15.22 -19.59,-15.45 -11.97,-0.19 -24.01,-0.06 -35.98,-0.06l0 -1.48c48.47,0 45.97,4.32 46.04,-23.57 0.03,-13.78 1.72,-20.64 -13.69,-20.81l-29.51 -0.34c-3.36,-0.93 -0.86,0.27 -3.11,-1.59z"/>
   <path class="fil1" d="M234.71 254.6c4.74,-10.69 33.6,-46.99 32.23,-55.49 -1.13,-7.05 -28.82,-42 -33.61,-53.52l15.35 0.17c2.29,6.33 8.71,15.87 12.35,22.19 3.94,6.83 7.68,18.58 16.93,17.42 10.14,-1.28 19.85,-33.9 28.46,-39.82l13.25 0.35c-2.42,5.98 -12.97,20.25 -17.24,26.82 -3.19,4.91 -16.14,23.44 -16.49,27.6 -0.6,7.15 28.07,44.51 32.39,54.12l-13.15 0.16c-7.82,-2.08 -15.75,-38 -28.37,-38.17 -8.42,-0.12 -12.14,11.43 -15.52,17.31 -3.46,6 -9.08,14.88 -11.25,20.84l-15.35 0.02zm109.8 13.71c1.31,-9.44 -3.78,-13.94 -7.62,-19.9l-30.51 -47.07c3.82,-8.79 15.31,-24.28 21.06,-33.15 15.67,-24.16 33.81,-41.21 -0.1,-41.03 -49.13,0.26 -26.53,-2.16 -50.46,29.86 -9.07,-8.11 -11.15,-28.75 -24.52,-29.84 -8.02,-0.65 -18.82,0.02 -27.17,-0.03 -8.09,-0.05 -17.33,-0.76 -18.52,7.91 -0.8,5.83 6.09,13.89 8.86,18.13 6.63,10.18 28.47,41.05 31.14,48.15 -6.46,11.13 -13.62,20.9 -20.55,31.66 -4.41,6.84 -19.25,26.18 -17.88,33.19 1.62,8.25 10.21,6.91 19.42,6.87 8.13,-0.04 18.07,0.54 25.95,0 12.22,-0.83 15.65,-19.26 23.01,-28.18 3.19,4.09 6.84,11.38 9.46,16.21 8.57,15.73 8.47,11.85 38.8,11.97 11.7,0.04 12.05,1.7 19.63,-4.75z"/>
   <path class="fil1" d="M464.78 254.61l0 -84.03c0,-9.2 -2.55,-12.46 -11.83,-12.9 -7.65,-0.37 -16.46,0.03 -24.43,0.05l-0.51 -4.38 0.24 -7.74c24.23,-0.01 67.76,-0.88 89.78,0.2l-0.6 11.8c-24.62,0.77 -36.1,-4.56 -36.1,12.96l0 84.03 -16.55 0zm34.99 -78.24c37.38,-2.53 39.14,8.58 36.63,-37.86 -0.78,-14.42 -11.96,-11.34 -25.69,-11.34l-75.07 0c-14.21,-0 -25.3,-3.39 -26.11,11.33 -2.51,46.13 -0.5,35.25 36.36,37.82 2.21,12.55 0.45,45.94 0.45,60.7 0,38.72 -3.53,36.03 26.22,36.02 33.45,-0.01 27.22,-1.13 27.22,-34.79 0,-20.63 0,-41.26 0,-61.89z"/>
   <path class="fil3" d="M53.19 381c-3.3,-5.41 -6.25,-6.76 -8.08,-15.48 50.37,0 537.19,1.19 540.95,-0.63 -66.74,1.86 -136.27,0.06 -203.33,0.06 -109.1,0 -222.22,-0.97 -331.05,0.02 -9.15,0.09 -15.16,0.47 -16.9,-7.57 -1.43,-6.65 -0.39,-176.22 -0.39,-202.82 0,-22.8 -3.82,-38.8 8.84,-41.67l0.02 -24.88c-11.98,-3.02 -8.82,-12.45 -8.86,-30.67 -0.04,-16.6 -1.86,-22.28 16.04,-22.12 126.37,1.12 257.15,0.04 383.99,0.04 50.02,0 101.85,-1.32 151.64,0.06 -3.75,-1.83 -490.58,-0.63 -540.95,-0.63 1.65,-7.65 5.17,-10.47 8.16,-15.48 -12.08,-0.06 -30.27,-0.24 -34.17,18.96 -2.04,10.05 -0.63,240.38 -0.63,268.98 0,29.29 -6.28,58.51 11.26,69.99 6.89,4.51 14.34,3.87 23.46,3.83z"/>
   <path class="fil4" d="M43.24 88.02l-0.02 24.88c10.86,1.51 9.68,9.03 9.63,19.52l-0.01 214.2 22.03 0.01c-2.78,-19.75 -0.98,-51.42 -0.98,-72.69 0,-31.67 -1.66,-203.92 1.01,-220.36l-22.05 0.01c0,7.3 0.27,15.07 0.04,22.3 -0.24,7.64 -2.24,11.33 -9.64,12.12z"/>
   <path class="fil1" d="M369.18 145.62l16.54 0 0.07 108.98 -16.62 0 0 -108.98zm-17.87 120.94c2.11,7.38 10.06,6.55 19.1,6.5 25.77,-0.13 33.89,4.28 33.8,-16.33 -0.11,-22.53 1.57,-115.35 -0.66,-122.88 -2.28,-7.7 -11.33,-6.73 -19.6,-6.7 -27.41,0.13 -33.32,-3.83 -33.25,16.31 0.07,22.75 -1.63,115.27 0.61,123.09z"/>
   <path class="fil5" d="M136.8 158.55c4.38,-2.86 15.66,-1.24 21.95,-1.24 7.92,0 15.85,0 23.78,0l0 -11.11 -70.23 0.35 -0.17 107.86 72.35 0.19 -0.23 -11.98c-11.5,-0.24 -22.92,-0.09 -34.11,-0.05 -14.56,0.04 -21.38,2.23 -21.51,-14.11 -0.25,-29.32 -1.68,-24.47 46.36,-24.47l-0.09 -7.46c-9.5,0 -38.02,2.44 -43.26,-2.51 -4.53,-4.28 -2.97,-13.48 -2.99,-19.76 -0.02,-8.45 -0.58,-15.22 8.16,-15.7z"/>
   <path class="fil5" d="M234.71 254.6l15.35 -0.02c2.17,-5.95 7.79,-14.83 11.25,-20.84 3.38,-5.88 7.1,-17.43 15.52,-17.31 12.62,0.17 20.55,36.09 28.37,38.17l13.15 -0.16c-4.32,-9.6 -32.99,-46.96 -32.39,-54.12 0.35,-4.16 13.29,-22.69 16.49,-27.6 4.27,-6.57 14.82,-20.84 17.24,-26.82l-13.25 -0.35c-8.61,5.92 -18.32,38.54 -28.46,39.82 -9.26,1.16 -13,-10.59 -16.93,-17.42 -3.65,-6.33 -10.06,-15.87 -12.35,-22.19l-15.35 -0.17c4.79,11.52 32.48,46.47 33.61,53.52 1.36,8.5 -27.49,44.8 -32.23,55.49z"/>
   <path class="fil5" d="M428.02 153.35l0.51 4.38c7.96,-0.02 16.78,-0.42 24.43,-0.05 9.28,0.45 11.83,3.7 11.83,12.9l0 84.03 16.55 0 0 -84.03c0,-17.53 11.48,-12.19 36.1,-12.96l0.6 -11.8c-22.01,-1.08 -65.55,-0.21 -89.78,-0.2l-0.24 7.74z"/>
   <polygon class="fil5" points="369.18,254.6 385.8,254.6 385.73,145.62 369.18,145.62 "/>
   <path class="fil6" d="M136.8 158.55l46.29 0.01c1.25,-5.25 1.61,-8.86 -0.46,-13.09l-62.07 -0.37c-9.75,-0.1 -6.85,0.03 -8.27,1.45l70.23 -0.35 0 11.11c-7.92,0 -15.85,0 -23.78,0 -6.29,0 -17.57,-1.62 -21.95,1.24z"/>
  </g>
 </g>
</svg>
