<?xml version="1.0" encoding="UTF-8"?>
<!DOCTYPE svg PUBLIC "-//W3C//DTD SVG 1.1//EN" "http://www.w3.org/Graphics/SVG/1.1/DTD/svg11.dtd">
<!-- Creator: CorelDRAW 2020 (64-Bit) -->
<svg xmlns="http://www.w3.org/2000/svg" xml:space="preserve" width="286.418mm" height="303.926mm" version="1.1" style="shape-rendering:geometricPrecision; text-rendering:geometricPrecision; image-rendering:optimizeQuality; fill-rule:evenodd; clip-rule:evenodd"
viewBox="0 0 285.07 302.5"
 xmlns:xlink="http://www.w3.org/1999/xlink"
 xmlns:xodm="http://www.corel.com/coreldraw/odm/2003">
 <defs>
  <style type="text/css">
   <![CDATA[
    .fil1 {fill:black}
    .fil4 {fill:#0AB59E}
    .fil2 {fill:#0DD0B2}
    .fil3 {fill:#CFE8F9}
    .fil10 {fill:#E4646D}
    .fil0 {fill:#E8F4FE}
    .fil7 {fill:#ECAC2E}
    .fil8 {fill:#F7C146}
    .fil5 {fill:#FDCF5B}
    .fil6 {fill:#FEE076}
    .fil9 {fill:#FF8086}
   ]]>
  </style>
 </defs>
 <g id="Capa_x0020_1">
  <metadata id="CorelCorpID_0Corel-Layer"/>
  <g id="_2071913695232">
   <path class="fil0" d="M117.43 119.65c1.51,-0.79 42.14,-0.93 47.57,-0.54 6.17,0.44 6.1,6.87 2.24,8.44l-47.17 0.43c-5.88,-0.36 -6.42,-6.35 -2.64,-8.32zm-31.73 -18.24c2.19,-1.04 56.41,-0.46 63.88,-0.46l47.88 0.02c5.35,0.54 5.81,6.81 1.86,8.4 -2.49,1 -56.44,0.43 -63.92,0.43l-47.84 -0.04c-5.54,-0.55 -5.83,-6.48 -1.86,-8.36zm-0.08 -18.35c2.24,-1.05 56.44,-0.46 63.95,-0.46l47.89 0.02c5.51,0.55 5.66,6.88 1.83,8.43 -2.33,0.94 -56.41,0.4 -63.91,0.4l-47.82 -0.02c-5.54,-0.5 -5.78,-6.58 -1.95,-8.38zm-0.07 -18.35c2.33,-1.08 56.44,-0.46 64.02,-0.46l47.9 0.02c5.56,0.55 5.62,7.08 1.82,8.46 -2.9,1.06 -55.97,0.37 -63.9,0.37l-47.8 -0.02c-5.79,-0.49 -5.65,-6.69 -2.04,-8.37zm35.66 -19.14c-8.21,0 -8.75,-8.86 0,-8.86l42.54 0c8.6,0 8.11,8.86 0,8.86l-42.54 0zm-6.83 193.81l-2.58 -2.49c-4.06,-3.09 -4.55,-3.3 -7.87,-7.5 -28.35,-35.88 -1.6,-83 39.15,-82.55 38.5,0.42 67.12,45.13 37.44,83.21 -3.37,4.33 -6.2,5.7 -10.67,9.35l0.06 17.52 41.11 0.01c1.83,-0.92 2.2,-4.45 3.14,-6.23 5.94,-11.26 15.06,-9.95 15.65,-12.6l0 -67.35c0,-10.72 -1.76,-17.44 4.43,-18.28 0.03,-3.38 0.64,-7.51 -0.62,-10.57 -4.51,-1.28 -3.84,-3.66 -3.81,-8.96 0.02,-4.14 0.01,-8.27 0.01,-12.41 0,-19.41 1.04,-60.69 -0.11,-75.41 -5.13,-1.34 -9.23,-3.78 -11.81,-6.51 -1.21,-1.28 -2.92,-3.61 -3.9,-5.56 -0.85,-1.67 -1.21,-4.94 -2.97,-5.84l-118.17 -0.01 -0.94 1.31c-0.09,0.14 -0.18,0.28 -0.26,0.42 -0.58,0.99 -0.1,0.19 -0.61,1.22 -1.42,2.88 -2.44,4.63 -5.4,6.93 -5.76,4.49 -10.71,3.12 -11.33,4.85l0.25 200.88c8.66,2.63 12.11,1.62 17.31,13.21l22.24 0.04 0.27 -16.69z"/>
   <path class="fil1" d="M137.63 277.34c-0.96,1.87 -7.09,6.24 -9.61,8.32l-4.04 2.8 -0.01 -44.38 13.27 3.08c10.29,0.91 14.88,-0.69 23.67,-3.08l0.07 44.38c-3.59,-1.69 -13.23,-10.9 -16.27,-12.46 -3.77,-1.94 -4.46,0.76 -7.09,1.35zm-84.89 -277.34l0.94 0c1.75,0 4.26,0 7.43,0l207.42 0c0.44,0.02 0.77,0.04 0.93,0.05 2.57,0.3 6.76,2.41 8.48,3.92 5.1,4.49 6.97,8.99 6.93,18.47 -0.11,28.28 4.68,23.04 -27.77,23.04 0,54.36 0,108.71 0,163.07 0,9.14 1.14,53.5 -1.26,60.19 -4.2,11.76 -12.93,15.45 -25.33,15.44l-60.26 -0c0,6.65 2.03,17.38 -3.93,18.32l-1.66 0c-2.84,-0.69 -11.37,-8.2 -13.46,-9.91l-8.73 -6.64 -17.59 13.73c-2.36,1.97 -2.78,2.63 -3.93,2.82l-2.21 0c-5.6,-0.83 -4.04,-10.19 -4.04,-18.32 -31.5,0 -63.05,-0.19 -94.54,0.01 -8.21,0.05 -12.69,-2.56 -16.3,-7.33 -4.05,-5.34 -3.78,-10.82 -3.78,-19.86 0,-22.45 -3.33,-18.91 27.77,-18.91l0 -140.02c0,-9.27 -1.6,-14.42 4.14,-15.51 5.22,0.79 4.84,2.97 4.81,8.41l-0.06 161.89c0.06,13.64 1.14,11.36 -2.35,22.41l55.1 0 25.6 -0.19 0.01 -9.29 -22.49 -0.01c-7.34,-0.08 -14.98,0.24 -22.26,0 -8.23,-0.27 -4.15,-6.8 -8.49,-12.67 -5.23,-7.06 -11.25,-4.19 -14.21,-7.08 -2.61,-2.55 -1.37,-15.33 -1.37,-19.78l0 -170.16c0,-5.19 -1.77,-16.62 2.32,-18.82 2.85,-1.53 8.96,0.34 13.97,-7.31 7.35,-11.22 -9.97,-11.78 30.72,-11.63l119.5 -0.02c8.77,-0.04 6.31,2.29 8.27,8.84 1.14,3.81 4.72,7.4 8.45,8.66 11.6,3.9 9.14,-5.17 9.14,42.15l0 51.4c0,6.63 1.66,11.83 -5.05,12.51 -4.51,-1.28 -3.84,-3.66 -3.81,-8.96 0.02,-4.14 0.01,-8.27 0.01,-12.41 0,-19.41 1.04,-60.69 -0.11,-75.41 -5.13,-1.34 -9.23,-3.78 -11.81,-6.51 -1.21,-1.28 -2.92,-3.61 -3.9,-5.56 -0.85,-1.67 -1.21,-4.94 -2.97,-5.84l-118.17 -0.01 -18.9 0.01c-2.79,0.67 -1.62,13.49 -18.79,17.91l-0 192.98c0.87,1.85 4.42,2.22 6.19,3.15 11.23,5.9 10.02,15.07 12.61,15.68l41.13 -0.15c0.1,-2.73 0.86,-15.63 -0.7,-17.4l-2.58 -2.49c-4.06,-3.09 -4.55,-3.3 -7.87,-7.5 -28.35,-35.88 -1.6,-83 39.15,-82.55 38.5,0.42 67.12,45.13 37.44,83.21 -3.37,4.33 -6.2,5.7 -10.67,9.35l0.06 17.52 41.11 0.01c1.83,-0.92 2.2,-4.45 3.14,-6.23 5.94,-11.26 15.06,-9.95 15.65,-12.6l0 -67.35c0,-10.72 -1.76,-17.44 4.43,-18.28 6.19,0.81 4.43,8.66 4.43,18.28l0.03 70.35c-0.06,9.36 -6.9,4.3 -13.31,9.6 -6.37,5.27 -3.35,13.67 -8.66,14.92 -5.41,1.27 -38.23,-0.92 -46.88,0.4l0.01 9.1c4.38,0.56 35.83,0.18 42.93,0.18 14.21,0 30.15,3.07 34.49,-9.2 2.13,-6.01 0.98,-73.68 0.99,-85.89l-0.19 -129.98c-0.03,-11.66 -1.41,-31.87 2.49,-41.3l-151.78 -0.06c-11.04,-0.02 -22.08,-0 -33.12,-0 -11.05,0 -21.62,-1.6 -26.44,6.05 -4.06,6.43 -2.44,21.32 -2.44,30 0,5.51 -0.01,11.03 0,16.54 0.02,10.46 0.14,8.32 -4.51,11.23 -4.94,-2.03 -4.47,-2.16 -4.43,-8.86l0 -38.41c-0.03,-7.8 1.18,-13.34 6.62,-18.78 5.47,-5.47 10.48,-6.59 18.25,-6.62zm-36.49 274.53c-9.56,-0.48 -6.98,-18.43 -6.98,-27.1l11.29 0.02 7.38 -0.02c0,10.44 2.3,22.11 -4.14,26.2 -2.05,1.3 -5.52,2.5 -7.55,0.9zm133.56 -36.66c-14.03,3.04 -26.18,-2.83 -34.36,-9.36 -7.08,-5.65 -14.34,-17.1 -14.41,-31.18 -0.12,-24.4 22.48,-46.53 48.99,-40.93 18.49,3.54 33.99,19.5 33.89,40.94 -0.09,20.92 -15.68,37.55 -34.11,40.53zm119.01 -228.31c9.43,0.72 6.89,18.44 6.89,27.16l-11.29 -0.02 -7.38 0.01c0,-5.24 -0.58,-15.42 0.18,-20.09 0.75,-4.63 7.04,-10.09 11.61,-7.06z"/>
   <path class="fil2" d="M93.32 18.36l119.5 -0.02c8.77,-0.04 6.31,2.29 8.27,8.84 1.14,3.81 4.72,7.4 8.45,8.66 11.6,3.9 9.14,-5.17 9.14,42.15l0 51.4c0,6.63 1.66,11.83 -5.05,12.51 1.26,3.06 0.65,7.19 0.62,10.57 6.19,0.81 4.43,8.66 4.43,18.28l0.03 70.35c-0.06,9.36 -6.9,4.3 -13.31,9.6 -6.37,5.27 -3.35,13.67 -8.66,14.92 -5.41,1.27 -38.23,-0.92 -46.88,0.4l0.01 9.1c4.38,0.56 35.83,0.18 42.93,0.18 14.21,0 30.15,3.07 34.49,-9.2 2.13,-6.01 0.98,-73.68 0.99,-85.89l-0.19 -129.98c-0.03,-11.66 -1.41,-31.87 2.49,-41.3l-151.78 -0.06c-2.27,3.11 -4.26,4.1 -5.48,9.5z"/>
   <path class="fil3" d="M114.39 239.38l-0.27 16.69 -22.24 -0.04c-5.2,-11.59 -8.64,-10.58 -17.31,-13.21l-0.25 -200.88c0.63,-1.73 5.58,-0.36 11.33,-4.85 2.95,-2.3 3.98,-4.06 5.4,-6.93 0.51,-1.03 0.03,-0.23 0.61,-1.22 0.08,-0.14 0.17,-0.28 0.26,-0.42l0.94 -1.31 -18.9 0.01c-2.79,0.67 -1.62,13.49 -18.79,17.91l-0 192.98c0.87,1.85 4.42,2.22 6.19,3.15 11.23,5.9 10.02,15.07 12.61,15.68l41.13 -0.15c0.1,-2.73 0.86,-15.63 -0.7,-17.4z"/>
   <path class="fil4" d="M32.3 72.67l-0.29 9.89c5.22,0.79 4.84,2.97 4.81,8.41l-0.06 161.89c0.06,13.64 1.14,11.36 -2.35,22.41l55.1 0c1.44,-3.93 2.77,-3.59 3.12,-9.48 -7.34,-0.08 -14.98,0.24 -22.26,0 -8.23,-0.27 -4.15,-6.8 -8.49,-12.67 -5.23,-7.06 -11.25,-4.19 -14.21,-7.08 -2.61,-2.55 -1.37,-15.33 -1.37,-19.78l0 -170.16c0,-5.19 -1.77,-16.62 2.32,-18.82 2.85,-1.53 8.96,0.34 13.97,-7.31 7.35,-11.22 -9.97,-11.78 30.72,-11.63 1.23,-5.4 3.21,-6.39 5.48,-9.5 -11.04,-0.02 -22.08,-0 -33.12,-0 -11.05,0 -21.62,-1.6 -26.44,6.05 -4.06,6.43 -2.44,21.32 -2.44,30 0,5.51 -0.01,11.03 0,16.54 0.02,10.46 0.14,8.32 -4.51,11.23z"/>
   <path class="fil1" d="M124.84 175.33c5.69,6.2 9.54,-3.85 22.21,-0.85l2.59 1.18c4.27,-0.01 9.44,5.26 11.2,7.46 12.01,15.01 -1.28,34.92 -10.6,35.28l-0.81 0.55c-5.59,3 -18.93,1.08 -25.36,-7.93 -9.73,-13.64 -1.03,-21.25 -3.22,-26.27l-2.12 -2.31c-4.03,0.26 -4.93,0.28 -6.27,3.79 -6.68,17.55 3.78,39.52 27.06,42.7 14.07,0.81 24.98,-5.83 31.04,-16.49 1.91,-3.37 3.31,-7.78 3.71,-12.24 1.73,-19.16 -11.77,-32.34 -28.15,-34.8 -4.93,-0.3 -9.58,0.05 -13.97,1.52 -4.39,1.47 -8.36,2.75 -7.32,8.41z"/>
   <path class="fil5" d="M149.81 237.87l-1.51 -1.41c-2.94,-2.37 -6.85,-4.05 -8.77,-7.54 -23.28,-3.18 -33.74,-25.14 -27.06,-42.7 1.34,-3.51 2.23,-3.53 6.27,-3.79 1.81,-1.35 1.4,-1.63 3.1,-3.39 1.39,-1.44 2.24,-1.75 3.01,-3.72 -1.04,-5.66 2.92,-6.95 7.32,-8.41 4.39,-1.46 9.05,-1.82 13.97,-1.52 -2.08,-1.66 -3.43,-1.17 -6.42,-1.13l4.89 -3.85c1.58,-1.17 4.41,-2.75 5.44,-4.02 -26.51,-5.6 -49.1,16.54 -48.99,40.93 0.07,14.08 7.32,25.53 14.41,31.18 8.18,6.53 20.32,12.4 34.36,9.36z"/>
   <path class="fil6" d="M146.13 165.4c16.38,2.46 29.88,15.64 28.15,34.8 -0.4,4.46 -1.79,8.87 -3.71,12.24 -6.06,10.66 -16.97,17.3 -31.04,16.49 1.92,3.49 5.83,5.17 8.77,7.54l1.51 1.41c18.44,-2.97 34.03,-19.61 34.11,-40.53 0.09,-21.45 -15.41,-37.4 -33.89,-40.94 -1.03,1.27 -3.85,2.85 -5.44,4.02l-4.89 3.85c2.99,-0.04 4.34,-0.53 6.42,1.13z"/>
   <path class="fil1" d="M85.56 64.71c-3.61,1.68 -3.75,7.88 2.04,8.37l47.8 0.02c7.93,0 61,0.69 63.9,-0.37 3.81,-1.39 3.75,-7.91 -1.82,-8.46l-47.9 -0.02c-7.59,0 -61.69,-0.62 -64.02,0.46z"/>
   <path class="fil1" d="M85.63 83.06c-3.83,1.8 -3.59,7.88 1.95,8.38l47.82 0.02c7.5,0 61.58,0.54 63.91,-0.4 3.82,-1.55 3.67,-7.88 -1.83,-8.43l-47.89 -0.02c-7.51,0 -61.71,-0.59 -63.95,0.46z"/>
   <path class="fil1" d="M85.7 101.41c-3.97,1.88 -3.67,7.82 1.86,8.36l47.84 0.04c7.49,0 61.43,0.57 63.92,-0.43 3.95,-1.59 3.48,-7.87 -1.86,-8.4l-47.88 -0.02c-7.47,0 -61.69,-0.58 -63.88,0.46z"/>
   <path class="fil7" d="M124.84 175.33c-0.77,1.97 -1.61,2.28 -3.01,3.72 -1.7,1.76 -1.29,2.04 -3.1,3.39l2.12 2.31c2.19,5.02 -6.51,12.64 3.22,26.27 6.43,9.01 19.77,10.93 25.36,7.93l0.81 -0.55c-3.23,-0.03 -6.73,-5.12 -8.31,-8.13 -8.18,-15.61 0.96,-32.25 7.71,-34.62l-2.59 -1.18c-12.67,-3 -16.52,7.05 -22.21,0.85z"/>
   <path class="fil8" d="M150.24 218.41c9.31,-0.37 22.6,-20.28 10.6,-35.28 -1.76,-2.2 -6.93,-7.47 -11.2,-7.46 -6.74,2.36 -15.88,19.01 -7.71,34.62 1.58,3.01 5.08,8.1 8.31,8.13z"/>
   <path class="fil9" d="M137.26 247.16c0,4.48 -0.82,28.01 0.38,30.19 2.64,-0.59 3.32,-3.29 7.09,-1.35 3.04,1.56 12.69,10.77 16.27,12.46l-0.07 -44.38c-8.8,2.39 -13.38,3.99 -23.67,3.08z"/>
   <path class="fil10" d="M137.63 277.34c-1.2,-2.18 -0.38,-25.71 -0.38,-30.19l-13.27 -3.08 0.01 44.38 4.04 -2.8c2.52,-2.08 8.65,-6.45 9.61,-8.32z"/>
   <path class="fil1" d="M121.22 45.57l42.54 0c8.11,0 8.6,-8.86 0,-8.86l-42.54 0c-8.75,0 -8.21,8.86 0,8.86z"/>
   <path class="fil1" d="M117.43 119.65c-3.78,1.97 -3.24,7.96 2.64,8.32l47.17 -0.43c3.86,-1.57 3.93,-8 -2.24,-8.44 -5.42,-0.38 -46.06,-0.24 -47.57,0.54z"/>
   <path class="fil2" d="M264.42 36.7l11.29 0.02c0,-8.72 2.55,-26.44 -6.89,-27.16 -4.22,0.69 -4.41,6.98 -4.41,11.1 -0,5.35 0.01,10.69 0.01,16.04z"/>
   <path class="fil2" d="M16.25 274.53c4.11,-0.83 4.31,-6.87 4.32,-11.01 0.01,-5.36 -0.01,-10.72 -0.01,-16.08l-11.29 -0.02c0,8.67 -2.58,26.62 6.98,27.1z"/>
   <path class="fil2" d="M89.51 275.29l25.6 -0.19 0.01 -9.29 -22.49 -0.01c-0.35,5.9 -1.68,5.56 -3.12,9.48z"/>
   <path class="fil4" d="M16.25 274.53c2.04,1.61 5.5,0.4 7.55,-0.9 6.45,-4.09 4.14,-15.76 4.14,-26.2l-7.38 0.02c0,5.36 0.02,10.72 0.01,16.08 -0.01,4.13 -0.21,10.17 -4.32,11.01z"/>
   <path class="fil4" d="M264.42 36.7c0,-5.35 -0.01,-10.69 -0.01,-16.04 0,-4.12 0.19,-10.41 4.41,-11.1 -4.57,-3.03 -10.86,2.43 -11.61,7.06 -0.75,4.67 -0.18,14.85 -0.18,20.09l7.38 -0.01z"/>
  </g>
 </g>
</svg>
