<?xml version="1.0" encoding="UTF-8"?>
<!DOCTYPE svg PUBLIC "-//W3C//DTD SVG 1.1//EN" "http://www.w3.org/Graphics/SVG/1.1/DTD/svg11.dtd">
<!-- Creator: CorelDRAW 2020 (64-Bit) -->
<svg xmlns="http://www.w3.org/2000/svg" xml:space="preserve" width="203.652mm" height="202.63mm" version="1.1" style="shape-rendering:geometricPrecision; text-rendering:geometricPrecision; image-rendering:optimizeQuality; fill-rule:evenodd; clip-rule:evenodd"
viewBox="0 0 140.12 139.41"
 xmlns:xlink="http://www.w3.org/1999/xlink"
 xmlns:xodm="http://www.corel.com/coreldraw/odm/2003">
 <defs>
  <style type="text/css">
   <![CDATA[
    .fil1 {fill:black}
    .fil4 {fill:#E3F3F6}
    .fil3 {fill:#F61E1E}
    .fil2 {fill:#FBA028}
    .fil0 {fill:#FDC870}
   ]]>
  </style>
 </defs>
 <g id="Capa_x0020_1">
  <metadata id="CorelCorpID_0Corel-Layer"/>
  <g id="_2446479654032">
   <path class="fil0" d="M92.85 96.89c2.1,1.23 6.86,5.61 9.17,7.43 7.01,5.51 15.49,13.26 22.68,18.91 5.69,4.48 1.27,6.45 -1.15,4.44l-24.94 -20.77c-1.5,-1.23 -3.06,-2.45 -4.5,-3.72 -2.05,-1.81 -3.38,-2.37 -3.98,-4.03 -1.4,0.71 -2.79,2.17 -4.14,3.25 -8.06,6.41 -18.79,7.92 -27.67,2.9 -3.98,-2.25 -6.52,-5.22 -8.35,-6.15 -0.55,1.51 -1.68,2.05 -2.65,2.9l-9.25 7.72c-2.17,1.88 -4.12,3.5 -6.27,5.22 -1.16,0.92 -2,1.73 -3.13,2.61 -0.9,0.71 -2.26,1.75 -2.82,2.56 1.02,1.03 1.65,1.81 2.86,2.99 5.13,4.99 13.16,7.46 19.88,9.41 1.65,0.48 8.23,1.84 9.08,2.38 14.79,-0.1 29.61,0 44.4,0 7.36,0 14.83,0.13 22.17,0 6.51,-0.11 11.4,-4.2 11.63,-10.57l-0.1 -63.27 -21.55 17.81c-1.23,1.02 -20.33,16.6 -21.38,17.97z"/>
   <path class="fil1" d="M26.02 38.49l2.05 0c7.83,-0.02 6.46,-0.72 6.92,2.6 1.42,10.4 8.31,20.01 17.26,25.16 0.94,0.54 3.43,1.49 4.05,2.3 1.42,0.07 2.83,0.83 4.22,1.19 15.45,4.04 31.62,-2.07 39.85,-15.63 1.3,-2.14 2.5,-4.71 3.36,-7.32 0.45,-1.36 0.81,-2.6 1.12,-4.07 0.41,-1.93 0.25,-3.99 1.07,-4.25 5.75,0 14.88,-0.54 20.24,0.14 5.23,0.67 9.43,5.01 9.72,10.64l-23.77 19.88c-2.09,1.72 -3.82,3.28 -5.95,4.99 -1.96,1.57 -4.04,3.25 -5.85,4.83l-14.79 12.3c-8.07,7.05 -19.01,8.22 -28.01,2.28 -2.02,-1.33 -22.92,-18.85 -23.54,-19.58l-29.73 -24.71c0.25,-4.87 3.3,-8.27 6.56,-9.73 3.69,-1.64 10.8,-1.11 15.22,-1.05zm114.1 10.1l0 15.73 0 48.44 0 12.77c-0.36,2.71 -1.25,5.22 -3.32,7.99 -4.5,6.04 -11.26,5.78 -18.3,5.78l-88.67 0c-2.95,0 -5.38,0.47 -5.8,-2.19 0.46,-3.01 3.89,-2.15 6.89,-2.15 3.01,0 6.02,0 9.03,0 5.9,0 11.82,0.04 17.72,0 14.79,-0.1 29.61,0 44.4,0 7.36,0 14.83,0.13 22.17,0 6.51,-0.11 11.4,-4.2 11.63,-10.57l0.03 -69.54 -23.07 19.12c-7.38,5.81 -15.65,13.35 -23.01,19.14 -5.95,4.69 -10.36,8.42 -19.76,8.42 -12.12,0 -19.12,-7.96 -27.51,-14.9l-34.66 -28.83c-1.1,-0.88 -2.57,-2.3 -3.67,-2.96 -0.29,3.72 -0.05,8.38 -0.05,12.21l0 36.94c0,4.9 -0.57,20.37 0.74,23.83 1.08,2.85 3.31,5.15 6.04,6.28 1.63,0.67 3.26,0.85 5.21,0.86 3.39,0.01 2.52,0.02 3.82,2.02 -1.09,2.87 -2.55,2.72 -7.59,1.97 -1.21,-0.18 -2.91,-0.77 -3.91,-1.29 -3.01,-1.55 -6.16,-4.53 -7.35,-7.7 -0.96,-2.57 -1.11,-3.93 -1.13,-6.48l0 -2.52 0 -71.16c0.09,-8.54 6.38,-14.95 14.52,-15.58 5.92,-0.45 13.83,-0.01 19.96,-0.01 0,-4.57 1.43,-9.02 2.74,-12.32 1.27,-3.19 3.33,-6.59 5.55,-9.22 15.41,-18.22 42.79,-15.85 55.4,1.09 2.24,3.01 2.28,2.81 0.9,4.84 -2.75,0.66 -3.37,-1.1 -4.5,-2.61 -1.44,-1.91 -2.08,-2.32 -3.74,-3.92 -1.17,-1.14 -2.76,-2.27 -4.43,-3.24 -9.76,-5.72 -21.22,-6.24 -31.01,-1.05 -12.53,6.65 -22.31,24.08 -13.16,42.21 11.2,22.19 45.7,23.47 56.78,-2.43 2.64,-6.18 3.08,-13.42 1.34,-20.12 -0.98,-3.75 -1.6,-3.07 0.34,-5.55 1.73,0 2.3,0.28 2.85,1.55 1.07,2.49 2.09,7.95 2.09,10.77 4.63,0 19.84,-0.48 23.64,0.71 1.8,0.57 3.84,1.75 5.14,2.8 3.69,3 5.17,6.68 5.7,10.86z"/>
   <path class="fil0" d="M33.97 73.97c0.62,0.73 21.52,18.25 23.54,19.58 9,5.94 19.94,4.77 28.01,-2.28l14.79 -12.3c1.81,-1.58 3.89,-3.27 5.85,-4.83 2.13,-1.71 3.86,-3.27 5.95,-4.99l23.77 -19.88c-0.29,-5.63 -4.49,-9.98 -9.72,-10.64 -5.36,-0.68 -14.49,-0.14 -20.24,-0.14 -0.83,0.25 -0.66,2.32 -1.07,4.25 -0.31,1.47 -0.67,2.71 -1.12,4.07 -0.86,2.61 -2.06,5.18 -3.36,7.32 -8.23,13.55 -24.4,19.66 -39.85,15.63 -1.39,-0.36 -2.8,-1.12 -4.22,-1.19 -9.17,-0.81 -18.02,-7.56 -22.46,-14 -3.01,-4.37 -5.44,-10.38 -5.77,-16.07l-2.05 -0c-1,1.38 -2.31,1.71 -3.35,3.34 -6.26,9.81 9.91,28.91 11.3,32.14z"/>
   <path class="fil2" d="M19.98 136.98l4.06 0.13c0.46,-3.01 3.89,-2.15 6.89,-2.15 3.01,0 6.02,0 9.03,0 5.9,0 11.82,0.04 17.72,0 -0.85,-0.54 -7.43,-1.9 -9.08,-2.38 -6.71,-1.96 -14.74,-4.43 -19.88,-9.41 -1.21,-1.18 -1.84,-1.95 -2.86,-2.99 -0.96,0.4 -2.18,1.61 -3.14,2.42l-6 4.96c-2.83,2.35 -6.06,-0.21 -2.35,-3.45 2.85,-2.48 6.17,-4.88 8.88,-7.48 -1.4,-0.73 -3.58,-5.68 -4.22,-7.59 -2.18,-6.48 -1.55,-14.45 -1.55,-21.74 -0,-4.09 -0.13,-7.09 2.89,-8.65 3.53,-1.83 6.34,0.86 8.09,2.36 2.15,1.84 17.86,14.65 18.81,15.88 1.86,-0.14 2.58,0.53 2.71,2.27 1.83,0.93 4.36,3.9 8.35,6.15 8.87,5.01 19.6,3.51 27.67,-2.9 1.36,-1.08 2.74,-2.54 4.14,-3.25 0.13,-1.74 0.85,-2.41 2.71,-2.27 1.06,-1.37 20.15,-16.95 21.38,-17.97l21.55 -17.81 0.1 63.27 0.03 -69.54 -23.07 19.12c-7.38,5.81 -15.65,13.35 -23.01,19.14 -5.95,4.69 -10.36,8.42 -19.76,8.42 -12.12,0 -19.12,-7.96 -27.51,-14.9l-34.66 -28.83c-1.1,-0.88 -2.57,-2.3 -3.67,-2.96 -0.29,3.72 -0.05,8.38 -0.05,12.21l0 36.94c0,4.9 -0.57,20.37 0.74,23.83 1.08,2.85 3.31,5.15 6.04,6.28 1.63,0.67 3.26,0.85 5.21,0.86 3.39,0.01 2.52,0.02 3.82,2.02z"/>
   <path class="fil3" d="M88.11 23.21c3.74,-1.93 5.59,8.87 5.65,12.1 0.1,5.16 -1.8,10.43 -4.22,13.75 -5.82,7.99 -15.38,12.09 -25.44,9.45 -1.74,-0.46 -5.57,-1.72 -6.33,-3.01 -1.19,-2.02 2.11,-4.37 3.06,-5.32 3.16,-3.16 25.87,-26.25 27.27,-26.97zm-20.46 -11.25c2.72,-0.32 5.55,-0.05 8.2,0.61 10.5,2.62 6.28,5.4 3.61,8.07l-22.71 22.71c-4.05,4.05 -6.27,8.28 -8.98,0.29 -5.03,-14.84 4.23,-29.85 19.88,-31.68zm33.04 9.94l-1.63 -3.29c-2.75,0.66 -3.37,-1.1 -4.5,-2.61 -1.44,-1.91 -2.08,-2.32 -3.74,-3.92 -1.17,-1.14 -2.76,-2.27 -4.43,-3.24 -9.76,-5.72 -21.22,-6.24 -31.01,-1.05 -12.53,6.65 -22.31,24.08 -13.16,42.21 11.2,22.19 45.7,23.47 56.78,-2.43 2.64,-6.18 3.08,-13.42 1.34,-20.12 -0.98,-3.75 -1.6,-3.07 0.34,-5.55z"/>
   <path class="fil0" d="M23.25 116.63c1.78,-1.05 21.04,-17.94 24.02,-19.74 -0.95,-1.23 -16.66,-14.04 -18.81,-15.88 -1.75,-1.5 -4.56,-4.19 -8.09,-2.36 -3.02,1.56 -2.89,4.56 -2.89,8.65 0,7.29 -0.63,15.27 1.55,21.74 0.64,1.91 2.82,6.86 4.22,7.59z"/>
   <path class="fil1" d="M63.16 53.54c3.62,-2.83 23.38,-24.04 25.29,-24.9 0.96,4.86 1.91,6.92 0.41,12.33 -3.16,11.39 -15.98,16.48 -24.61,13.29 -0.3,-0.11 -0.36,-0.14 -0.58,-0.28 -0.47,-0.29 -0.17,-0.05 -0.51,-0.44zm24.95 -30.33c-1.4,0.72 -24.1,23.81 -27.27,26.97 -0.95,0.95 -4.25,3.3 -3.06,5.32 0.76,1.28 4.58,2.55 6.33,3.01 10.05,2.64 19.61,-1.46 25.44,-9.45 2.42,-3.32 4.32,-8.59 4.22,-13.75 -0.06,-3.23 -1.91,-14.03 -5.65,-12.1z"/>
   <path class="fil1" d="M51.7 42.44c-2.32,-7.91 -1.23,-14.88 4.55,-20.66 0.77,-0.77 0.79,-0.96 1.69,-1.6 6.5,-4.63 11.3,-5.07 18.98,-3.01 -0.6,1.11 -24.06,24.6 -25.22,25.26zm15.95 -30.48c-15.66,1.83 -24.91,16.84 -19.88,31.68 2.71,7.98 4.93,3.75 8.98,-0.29l22.71 -22.71c2.67,-2.67 6.89,-5.45 -3.61,-8.07 -2.65,-0.66 -5.49,-0.93 -8.2,-0.61z"/>
   <path class="fil2" d="M33.97 73.97c-1.4,-3.23 -17.57,-22.33 -11.3,-32.14 1.04,-1.63 2.35,-1.96 3.35,-3.34 -4.42,-0.06 -11.53,-0.6 -15.22,1.05 -3.26,1.45 -6.3,4.85 -6.56,9.73l29.73 24.71z"/>
   <path class="fil4" d="M63.16 53.54c0.34,0.39 0.04,0.15 0.51,0.44 0.22,0.14 0.28,0.17 0.58,0.28 8.63,3.19 21.45,-1.9 24.61,-13.29 1.5,-5.41 0.56,-7.47 -0.41,-12.33 -1.91,0.85 -21.67,22.06 -25.29,24.9z"/>
   <path class="fil4" d="M51.7 42.44c1.16,-0.66 24.62,-24.15 25.22,-25.26 -7.68,-2.06 -12.48,-1.63 -18.98,3.01 -0.9,0.64 -0.92,0.83 -1.69,1.6 -5.79,5.78 -6.87,12.75 -4.55,20.66z"/>
   <path class="fil1" d="M23.25 116.63c-2.71,2.6 -6.03,4.99 -8.88,7.48 -3.72,3.24 -0.48,5.8 2.35,3.45l6 -4.96c0.96,-0.82 2.19,-2.03 3.14,-2.42 0.55,-0.81 1.91,-1.85 2.82,-2.56 1.13,-0.89 1.97,-1.69 3.13,-2.61 2.16,-1.72 4.11,-3.34 6.27,-5.22l9.25 -7.72c0.97,-0.85 2.11,-1.38 2.65,-2.9 -0.13,-1.74 -0.84,-2.41 -2.71,-2.27 -2.98,1.8 -22.24,18.69 -24.02,19.74z"/>
   <path class="fil1" d="M90.14 99.17c0.6,1.66 1.93,2.22 3.98,4.03 1.43,1.26 3,2.49 4.5,3.72l24.94 20.77c2.42,2 6.84,0.03 1.15,-4.44 -7.19,-5.65 -15.67,-13.4 -22.68,-18.91 -2.32,-1.82 -7.08,-6.2 -9.17,-7.43 -1.87,-0.13 -2.58,0.53 -2.71,2.27z"/>
   <path class="fil2" d="M56.29 68.56c-0.62,-0.81 -3.11,-1.76 -4.05,-2.3 -8.95,-5.15 -15.84,-14.77 -17.26,-25.16 -0.45,-3.32 0.91,-2.62 -6.92,-2.6 0.32,5.69 2.76,11.7 5.77,16.07 4.44,6.44 13.28,13.19 22.46,14z"/>
  </g>
 </g>
</svg>
