<?xml version="1.0" encoding="UTF-8"?>
<!DOCTYPE svg PUBLIC "-//W3C//DTD SVG 1.1//EN" "http://www.w3.org/Graphics/SVG/1.1/DTD/svg11.dtd">
<!-- Creator: CorelDRAW 2020 (64-Bit) -->
<svg xmlns="http://www.w3.org/2000/svg" xml:space="preserve" width="198.943mm" height="126.023mm" version="1.1" style="shape-rendering:geometricPrecision; text-rendering:geometricPrecision; image-rendering:optimizeQuality; fill-rule:evenodd; clip-rule:evenodd"
viewBox="0 0 324.05 205.28"
 xmlns:xlink="http://www.w3.org/1999/xlink"
 xmlns:xodm="http://www.corel.com/coreldraw/odm/2003">
 <defs>
  <style type="text/css">
   <![CDATA[
    .fil1 {fill:black}
    .fil4 {fill:#5A5C6D}
    .fil10 {fill:#648535}
    .fil11 {fill:#977935}
    .fil8 {fill:#9BD6FE}
    .fil2 {fill:#A0D655}
    .fil0 {fill:#B3E56D}
    .fil6 {fill:#B3E5FF}
    .fil5 {fill:#E0A445}
    .fil9 {fill:#F1F4FB}
    .fil7 {fill:#FEDA63}
    .fil3 {fill:#FFC850}
   ]]>
  </style>
 </defs>
 <g id="Capa_x0020_1">
  <metadata id="CorelCorpID_0Corel-Layer"/>
  <path class="fil0" d="M124.05 95.21c2.97,-1.42 39.52,-38.87 42.77,-42.13 1.66,-1.67 3.09,-4.35 6.5,-4.04 2.75,0.25 5.04,2.76 4.41,6.02 -0.59,3.03 -27.55,28.81 -30.73,31.99 -3.14,3.14 -18.68,19.97 -21.88,20.56 -3.91,0.71 -9.98,-6.97 -12.08,-9.07 -2.88,-2.89 -20.39,-19.49 -20.83,-21.82 -0.65,-3.49 1.68,-5.99 4.68,-6.06 3.78,-0.09 12.74,10.35 16.56,14.18 3.18,3.18 7.26,7.82 10.6,10.38zm-97.47 12.55l0 11.52c17.49,0.22 35.1,-0.28 52.57,-0 4.13,0.07 7.4,1.41 6.62,5.99 -1.5,8.75 -27.38,0.99 -33.66,4.66 0.72,1.14 1.57,3.49 1.61,5.11 0.06,2.45 -0.98,2.95 -1.19,5.9 3.98,0.13 4.69,0.59 6.13,3.52 1.95,-1.07 1.8,-1.52 3.5,-3.01 14.76,-12.97 35.91,-15.77 51.92,-5.35 11.25,7.33 7.6,9.94 15.86,9.94 1.1,-6.97 7.51,-5.11 18.79,-5.11l60.16 -0.02c4.62,0.06 6.24,0.8 6.86,5.13l11.57 0c-0.04,-5.37 0,-10.75 -0.02,-16.12 -0.02,-6.15 -0.84,-9.68 4.98,-10.61l-0.01 -11.05 -0.01 -0.51c-6.9,-1.33 -4.95,-7.74 -4.95,-20.24 0,-21.19 1.02,-59.72 -0.11,-77.15l-195.32 -0.02c-1.11,18.05 -0.09,55.1 -0.09,76.54 0,12.19 1.98,19.84 -5.21,20.87z"/>
  <path class="fil1" d="M264.74 151.93c13.42,-3.92 24.56,5.78 26.92,16.11 6.55,28.64 -35.95,37.68 -42.68,10.38 -3.46,-14.01 5.57,-23.51 15.76,-26.49zm59.31 -39.53l0 55.37c-0.21,3.15 -1.26,4.88 -5.7,5.19 -4.76,0.33 -10.91,0 -15.82,0 0,17.95 -14.32,32.31 -32.28,32.31 -17.98,0 -32.28,-14.4 -32.28,-32.31l-113.92 0c0,17.69 -14.41,32.31 -32.28,32.31 -18.21,0 -32.28,-14.08 -32.28,-32.31 -6.31,0 -24.62,0.81 -29.51,-0.23 -10.36,-2.2 -8.46,-13.12 -8.46,-21.29 -5.8,0 -16.55,1.54 -19.95,-1.57 -0.85,-0.77 -1.38,-1.91 -1.57,-3.1l0 -1.92c0.17,-1.05 0.63,-2.04 1.41,-2.75 1.88,-1.72 5.29,-1.43 8.71,-1.41 7.27,0.04 37.95,-0.44 42.41,0.26 3.98,0.13 4.69,0.59 6.13,3.52 0.28,4.08 -0.56,5.34 -3.78,6.27l-23.07 0.13c-0.58,3.15 -0.69,8.78 0.09,11.72l26.37 0.27c0.37,-0.01 1.51,-0.03 1.82,-0.09 1.29,-0.27 0.57,-0.13 1.38,-0.63 9.81,-23.4 35.33,-26.3 49.91,-14.45 2.07,1.68 4.74,4.36 6.22,6.42 1.79,2.48 3.03,5.78 4.69,8.49l104.93 0 0.11 -16.54c-0.04,-5.37 0,-10.75 -0.02,-16.12 -0.02,-6.15 -0.84,-9.68 4.98,-10.61 3.01,0.37 4.33,1.64 5.03,4.4l0.17 38.8c5.85,0.17 0.66,-4.26 12.16,-13.97 4.89,-4.13 11.14,-7.29 19.42,-7.57 11.31,-0.38 20.69,4.7 26.78,12.71 2.2,2.9 2.97,5.56 4.99,8.89l11.19 0.07c3.19,0.01 0.73,0.22 1.8,-1.08l0.05 -21.3 -11.54 -0.59c-1.54,-1.84 -4.14,-2.57 -5.81,-4.39 -4.77,-5.18 -4.25,-10.68 -4.28,-17.4 -0.03,-4.82 -0.11,-5.88 2.2,-8.66 4.74,-1.55 13.09,-0.78 18.53,-0.78 -3.99,-13.32 -17.17,-11.49 -31.96,-11.49 -13.62,0 -30.31,-0.86 -43.56,0.12 0,5.75 0.72,9.83 -5.19,10.67 -6.9,-1.33 -4.95,-7.74 -4.95,-20.24 0,-21.19 1.02,-59.72 -0.11,-77.15l-195.32 -0.02c-1.11,18.05 -0.09,55.1 -0.09,76.54 0,12.19 1.98,19.84 -5.21,20.87 -7.14,-0.52 -5.06,-9.28 -5.06,-17.07l-0.01 -77.23c-0.12,-14.03 7.43,-13.28 19,-13.28l174.69 0c9.1,0 22.14,-2.46 22.19,10.72 0.01,3.59 -0.03,7.2 -0.03,10.79 11.25,0 38.93,-1.6 46.5,1.6 5.29,2.24 9.84,6.74 11.92,12.13 0.74,1.91 1.74,7.87 1.76,10.33 0.03,3.84 -0.8,7.28 -4.49,7.59l8.23 33.54c5.53,1.29 7.43,1.86 11.66,4.79 6.62,4.59 10.84,12.15 11.12,20.72zm-237.55 39.33c13.57,-3.49 24.16,6.1 26.55,16.38 6.64,28.51 -36.43,37.87 -42.83,9.87 -3.06,-13.4 5.89,-23.58 16.28,-26.25zm227.4 -21.67c-10.44,0.17 -12.05,-0.45 -11.4,-11.45l11.37 0.02 0.02 11.43zm-28.59 -64.7l5.34 20.74c-1.68,1.11 -4.43,0.76 -6.47,0.74 -13.62,-0.14 -35.22,0.59 -46.72,-0.14l-0.01 -33.01 44.19 -0.01c1.73,1.28 1.71,3.26 2.28,5.58 0.51,2.1 1,3.98 1.39,6.1zm-7.16 -32.67c4.9,0.34 8.41,4.88 8.62,10.38l-49.22 0.56c-0.97,-3.14 -0.74,-8.48 -0.18,-11.79 4.42,-0.34 40.09,-0.8 40.78,0.84z"/>
  <path class="fil2" d="M58.66 144.47c0.28,4.08 -0.56,5.34 -3.78,6.27l-1.69 0.84 -21.23 -0.1 0.07 10.7 29.42 -0.04c9.81,-23.4 35.33,-26.3 49.91,-14.45 2.07,1.68 4.74,4.36 6.22,6.42 1.79,2.48 3.03,5.78 4.69,8.49l104.93 0 0.11 -16.54 -11.57 0c-0.52,4.07 -2.47,4.96 -6.86,5.04l-60.16 -0.03c-10.1,0 -17.85,1.87 -18.79,-5.01 -8.26,0 -4.61,-2.62 -15.86,-9.94 -16.01,-10.43 -37.16,-7.62 -51.92,5.35 -1.7,1.49 -1.55,1.94 -3.5,3.01z"/>
  <path class="fil3" d="M232.29 119.32c3.01,0.37 4.33,1.64 5.03,4.4 2,2.66 0.71,15.86 0.84,20.22 9.19,-7.92 16.32,-13.88 31.45,-14.11 9.76,-0.15 18.61,2.91 26.04,8.25 2.46,1.77 4.05,3.77 6.23,5.2 -0.1,-2.05 -0.51,-2.1 0.45,-3.58 -1.54,-1.84 -4.14,-2.57 -5.81,-4.39 -4.77,-5.18 -4.25,-10.68 -4.28,-17.4 -0.03,-4.82 -0.11,-5.88 2.2,-8.66 -1.25,-0.89 -1.32,-0.96 -3.9,-1.13l-58.27 0.17 0.01 11.05z"/>
  <path class="fil4" d="M88.2 163.4c12.68,-5.11 20.03,14.67 7.14,19.48 -12.47,4.65 -20.81,-13.97 -7.14,-19.48zm-1.69 -11.66c-10.39,2.67 -19.34,12.85 -16.28,26.25 6.4,28 49.47,18.64 42.83,-9.87 -2.39,-10.28 -12.98,-19.86 -26.55,-16.38z"/>
  <path class="fil4" d="M266.96 163.2c13.43,-4.76 19.33,16.07 6.43,19.86 -13.3,3.91 -19.17,-15.34 -6.43,-19.86zm-2.22 -11.27c-10.19,2.98 -19.22,12.48 -15.76,26.49 6.73,27.3 49.24,18.25 42.68,-10.38 -2.36,-10.33 -13.5,-20.03 -26.92,-16.11z"/>
  <path class="fil1" d="M124.05 95.21c-3.34,-2.56 -7.42,-7.2 -10.6,-10.38 -3.82,-3.82 -12.78,-14.27 -16.56,-14.18 -3,0.07 -5.33,2.58 -4.68,6.06 0.43,2.33 17.94,18.94 20.83,21.82 2.1,2.1 8.17,9.78 12.08,9.07 3.21,-0.58 18.74,-17.42 21.88,-20.56 3.18,-3.18 30.14,-28.96 30.73,-31.99 0.64,-3.26 -1.65,-5.77 -4.41,-6.02 -3.41,-0.31 -4.84,2.37 -6.5,4.04 -3.25,3.27 -39.8,40.72 -42.77,42.13z"/>
  <path class="fil5" d="M313.83 161.58l-1.77 0 -10.25 -0 0.08 -17.95 0 -0.35c-2.18,-1.43 -3.77,-3.43 -6.23,-5.2 -7.43,-5.34 -16.28,-8.4 -26.04,-8.25 -15.14,0.24 -22.26,6.19 -31.45,14.11 -0.13,-4.36 1.16,-17.56 -0.84,-20.22l0.17 38.8c5.85,0.17 0.66,-4.26 12.16,-13.97 4.89,-4.13 11.14,-7.29 19.42,-7.57 11.31,-0.38 20.69,4.7 26.78,12.71 2.2,2.9 2.97,5.56 4.99,8.89l11.19 0.07c3.19,0.01 0.73,0.22 1.8,-1.08z"/>
  <path class="fil1" d="M129.95 146.05c0.94,6.88 8.69,5.01 18.79,5.01l60.16 0.03c4.39,-0.09 6.34,-0.98 6.86,-5.04 -0.62,-4.33 -2.24,-5.07 -6.86,-5.13l-60.16 0.02c-11.28,0 -17.69,-1.86 -18.79,5.11z"/>
  <path class="fil6" d="M290.65 86.1l-5.34 -20.74c-4.18,-1.49 -23.24,-0.62 -29.02,-0.61 -10.01,0.02 -7.62,5.69 -7.71,21.34l42.07 0z"/>
  <path class="fil7" d="M232.27 107.76l0.01 0.51 58.27 -0.17c2.58,0.17 2.65,0.24 3.9,1.13 4.74,-1.55 13.09,-0.78 18.53,-0.78 -3.99,-13.32 -17.17,-11.49 -31.96,-11.49 -13.62,0 -30.31,-0.86 -43.56,0.12 0,5.75 0.72,9.83 -5.19,10.67z"/>
  <path class="fil8" d="M290.65 86.1l-42.07 0c0.09,-15.65 -2.29,-21.32 7.71,-21.34 5.78,-0.01 24.84,-0.88 29.02,0.61 -0.39,-2.12 -0.88,-4 -1.39,-6.1 -0.56,-2.33 -0.54,-4.3 -2.28,-5.58l-44.19 0.01 0.01 33.01c11.5,0.73 33.09,-0 46.72,0.14 2.04,0.02 4.79,0.37 6.47,-0.74z"/>
  <path class="fil1" d="M52.11 129.93c6.28,-3.67 32.16,4.09 33.66,-4.66 0.78,-4.58 -2.49,-5.92 -6.62,-5.99 -17.47,-0.28 -35.08,0.22 -52.57,0 -4.65,-0.31 -12.51,-1.13 -14.74,1.62 -1.34,1.65 -1.46,4.37 -0.27,6.3 3.24,5.23 30.48,2.73 40.54,2.73z"/>
  <path class="fil7" d="M286.77 43.08c-0.21,-5.5 -3.72,-10.04 -8.62,-10.38 -9.41,-1.54 -29.92,-0.4 -40.55,-0.4l0 10.77 49.17 0z"/>
  <path class="fil1" d="M88.2 163.4c-13.67,5.5 -5.33,24.13 7.14,19.48 12.89,-4.81 5.54,-24.58 -7.14,-19.48z"/>
  <path class="fil1" d="M266.96 163.2c-12.74,4.52 -6.87,23.77 6.43,19.86 12.9,-3.79 7,-24.62 -6.43,-19.86z"/>
  <path class="fil7" d="M301.89 143.27l0 0.35c3.39,2.44 9.36,12.14 10.17,17.95l1.77 0 0.05 -21.3 -11.54 -0.59c-0.96,1.49 -0.55,1.53 -0.45,3.58z"/>
  <path class="fil9" d="M313.9 130.07l-0.02 -11.43 -11.37 -0.02c-0.66,11 0.96,11.62 11.4,11.45z"/>
  <path class="fil3" d="M312.06 161.58c-0.81,-5.82 -6.78,-15.51 -10.17,-17.95l-0.08 17.95 10.25 0z"/>
  <path class="fil10" d="M61.46 162.13l-29.42 0.04 -0.07 -10.7 21.23 0.1 1.69 -0.84 -23.07 0.13c-0.58,3.15 -0.69,8.78 0.09,11.72l26.37 0.27c0.37,-0.01 1.51,-0.03 1.82,-0.09 1.29,-0.27 0.57,-0.13 1.38,-0.63z"/>
  <path class="fil11" d="M286.77 43.08l-49.17 0 0 -10.77c10.63,0 31.14,-1.15 40.55,0.4 -0.69,-1.65 -36.36,-1.18 -40.78,-0.84 -0.56,3.31 -0.79,8.64 0.18,11.79l49.22 -0.56z"/>
 </g>
</svg>
