<?xml version="1.0" encoding="UTF-8"?>
<!DOCTYPE svg PUBLIC "-//W3C//DTD SVG 1.1//EN" "http://www.w3.org/Graphics/SVG/1.1/DTD/svg11.dtd">
<!-- Creator: CorelDRAW 2020 (64-Bit) -->
<svg xmlns="http://www.w3.org/2000/svg" xml:space="preserve" width="178.859mm" height="178.859mm" version="1.1" style="shape-rendering:geometricPrecision; text-rendering:geometricPrecision; image-rendering:optimizeQuality; fill-rule:evenodd; clip-rule:evenodd"
viewBox="0 0 129.84 129.84"
 xmlns:xlink="http://www.w3.org/1999/xlink"
 xmlns:xodm="http://www.corel.com/coreldraw/odm/2003">
 <defs>
  <style type="text/css">
   <![CDATA[
    .fil0 {fill:black}
    .fil6 {fill:#148CE0}
    .fil1 {fill:#38C2FC}
    .fil18 {fill:#592428}
    .fil19 {fill:#5A3335}
    .fil13 {fill:#645E66}
    .fil10 {fill:#756C78}
    .fil8 {fill:#8A0015}
    .fil16 {fill:#9AC3F8}
    .fil12 {fill:#BBD5F8}
    .fil17 {fill:#C9E0FD}
    .fil9 {fill:#D7E4F7}
    .fil14 {fill:#DBE8F9}
    .fil3 {fill:#DD0222}
    .fil4 {fill:#E8F1FE}
    .fil15 {fill:#EBECF1}
    .fil5 {fill:#FEC108}
    .fil7 {fill:#FEDCCD}
    .fil2 {fill:#FEDE00}
    .fil11 {fill:#FFCABE}
   ]]>
  </style>
 </defs>
 <g id="Capa_x0020_1">
  <metadata id="CorelCorpID_0Corel-Layer"/>
  <g id="_1752418121696">
   <path class="fil0" d="M38.17 118.54c0.81,-0.68 23.15,-0.34 26.24,-0.34 2.97,0 10.53,-0.34 12.94,0.2 2.64,0.6 6.59,4.05 5.46,7.62l-14.4 0.02c-6.07,-0.02 -12.13,-0 -18.2,-0 -1.98,0 -17.18,0.37 -17.76,-0.26 -0.76,-1.49 0.7,-3.98 1.42,-4.92 0.71,-0.92 2.49,-2.36 4.3,-2.32zm-7.42 -118.54l1.45 0 0.23 0c4.71,0 9.43,0.02 14.15,0l0.83 0c2.48,0.03 3.73,0.44 5.15,1.71 1.21,1.08 2.21,2.66 2.21,4.89 4.08,0.09 7.1,3.36 7.1,7.61 3.88,0 10.1,-0.84 10.09,2.03 -0.34,2.36 -1.84,1.99 -4,1.98 -1.65,-0.01 -4.76,-0.19 -6.23,0.13l0 2.93c2.17,2.09 2.77,2.17 2.76,6.38 -0.04,15.64 1.51,17.82 -10.2,17.82 -1.15,2.3 -2.09,2.92 -4.63,3.94l0.08 3.4c1.17,0.28 1.72,-0.43 3.43,0.04 0.85,0.23 1.93,1.02 2.61,1.45 2.21,1.39 3.07,1.39 5.67,2.45 7.68,3.13 13.06,8.88 15.81,16.66 1.73,4.9 1.5,9.3 1.5,14.7l18.03 -0 14.66 0c0,-9.64 -0.24,-22.3 -0.01,-31.79 0.04,-1.67 0.37,-2.21 1.92,-2.45 2.16,-0.11 2.04,2.02 2.03,4.23l-0 31.19c0,4.42 0.47,8.27 -1.18,11.24 -1.36,2.45 -4.08,4.66 -7.68,4.74 -11.25,0.27 -25.78,-0.01 -37.29,-0.01 0.28,0.59 2.26,8.31 2.28,9.13 2.55,0 5.14,-0.21 7.2,0.41 7.13,2.15 9.77,10.05 7.31,13.33 -1.06,1.41 -2.02,1.68 -3.69,1.73l-2.19 0 -45.14 0 -1.1 0c-2.14,-0.01 -3.63,-0.16 -4.63,-1.62 -2.49,-3.61 0.53,-8.82 2.5,-10.75 3.57,-3.51 7.25,-3.1 11.86,-3.1 0.49,-2.1 2.16,-7.67 2.28,-9.13 -9.64,0 -19.27,-0 -28.91,-0 -4.33,0 -9.69,0.81 -12.98,-1.48 -3.83,-2.66 -4.01,-5.26 -4.02,-9.46l0 -0.98 0 -67.46 0 -0.18 0 -0.18 0 -0.17c0,-3.48 0.05,-5.29 1.73,-7.38 3.56,-4.43 7.7,-3.76 15.26,-3.76 0,-6.13 3.15,-11.26 8.69,-13.37 1.91,-0.73 3.03,-0.82 5.08,-0.83zm19.2 105.16l15.31 0.01 2.32 9.24 -19.97 -0.01 2.34 -9.24zm-41.94 -4.09c-1.81,0.05 -3.22,-1.46 -3.79,-2.84 -0.56,-1.34 -0.52,-4.4 -0.38,-5.92 0.51,-0.71 1.73,-0.44 3.26,-0.43l91.04 0.01c3.2,0 10.56,-0.39 13.27,0.09 0.34,4.48 -0,8.79 -4.49,9.33 -3.66,0.44 -10.14,0.05 -14.1,0.06 -11.09,0.01 -84.05,0.36 -84.8,-0.29zm6.28 -17.28c0.13,1.27 0.31,3.19 -0.22,4.34l-7.99 0.08c-0.38,0 -0.93,0.04 -1.29,0.02l-0.97 -0.26c-0.27,-7.76 0.35,-13.52 4.05,-18.97 1.52,-2.24 3.51,-4.26 5.61,-5.8 1.59,-1.17 5.34,-3.46 7.91,-3.68l7.92 8.05c3.79,3.79 6.72,-0.42 10,-2.88 0.67,0.29 0.31,0.14 0.9,0.6 4.95,3.78 5.67,6.08 11.14,0.53 0.28,-0.28 0.47,-0.52 0.76,-0.77 0.49,-0.43 0.19,-0.25 0.7,-0.47 0.71,-1.33 3.52,-3.72 4.76,-5.01 2.11,0.1 5.22,1.95 6.73,2.94 5.36,3.52 10.47,10.72 10.48,17.73 0.65,1 0.67,6.67 0.16,7.89 -0.63,0.1 -9.41,0.37 -10.26,-0.15 -0.07,-2.2 0.69,-6.16 -2.23,-5.76 -3.17,0.44 -0.37,5.82 -2.15,5.86l-42.39 0.01c0,-1.51 0.4,-4.12 -0.41,-5.16 -0.93,-1.2 -3.07,-1.07 -3.2,0.86zm28.41 -21.47c0.61,-0.59 8.49,-5.56 9.32,-5.88l1.92 1.34 -7.53 7.42c-0.95,-0.26 -2.99,-2.21 -3.7,-2.87zm-15.82 -5.83c1.51,0.75 3.33,1.98 4.74,2.93 0.77,0.51 3.83,2.29 4.36,2.97 -0.76,0.86 -2.78,2.61 -3.88,2.8l-7.3 -7.27c0.5,-0.8 1.16,-1.12 2.08,-1.43zm5.19 -1.12c0.41,-1.63 0.73,-1.92 0.88,-3.87 8.5,2.09 6.56,0.93 12.88,0.05 0.09,2.02 0.48,2.21 0.87,3.75 -1.92,0.81 -5.53,3.71 -7.44,4.49 -1.15,-0.84 -6.15,-4.09 -7.18,-4.42zm11.03 -13.36c0.77,-0.37 4.74,-0.29 5.86,-0.18 2.3,0.23 2.28,2.74 0.77,3.31 -0.62,0.24 -4.88,0.22 -5.82,0.15 -2.18,-0.16 -2.53,-2.45 -0.81,-3.28zm17.49 -5.16c0.69,4.55 -0.21,4.81 -4.11,4.82l1.14 -4.59 2.97 -0.23zm-17.69 1.25c-1.81,0.4 -3,1.19 -3.82,2.5 -1.34,2.15 -0.57,2.91 -0.63,5.1 0.59,0.56 0.71,1.06 1.35,1.75 0.67,0.72 0.88,0.55 1.58,1.22 -1.46,0.17 -3.27,0.22 -4.73,-0.12 -0.86,-0.2 -0.56,-0.03 -1.07,-0.46 -3.39,0.05 -7.38,-4.01 -8.64,-6.04 -2.18,-3.54 -2.42,-7.83 -2.13,-12.62 2.09,-1.13 3.46,-0.83 3.47,-4.82 0.01,-6.76 -0.83,-9.48 6.83,-7.73 2.75,0.63 5.66,0.05 7.44,0.43l0.39 -0.19c1.83,-0.76 -1.38,0.45 0.4,-0.16 9.94,-3.37 6.37,5.52 7.29,9.54 0.55,2.42 1.75,1.95 3.34,2.92 0.08,2.95 0.53,7.76 -0.96,10.12 -1.56,-0.73 -1.63,-1.46 -4.3,-1.52 -1.74,-0.04 -4.11,-0.09 -5.81,0.08zm14.9 -9.97c1.75,-0.49 1.74,-0.9 2.87,-1.54 0.04,2.91 0.26,3.36 -0.26,6.21 -1.03,0.46 -1.16,0.42 -2.6,0.43l-0.01 -5.1zm-36.82 5.03c-1.91,0.22 -2.85,0.01 -2.92,-1.95 -0.04,-1.3 -0.07,-3.45 0.08,-4.69 0.58,0.75 1.65,1.14 2.81,1.73l0.02 4.91zm-17.1 35.01c-0.51,-4.21 -0.08,-11.39 -0.08,-15.92 0,-4.11 -0.41,-29.04 0.45,-30.98 1.84,-4.16 7.27,-3.05 12.77,-3.05l0 2.84c-0.59,1.27 -2.02,1.15 -2.61,3.78 -0.3,1.36 -0.15,4.55 -0.15,6.13 0.02,4.3 2.26,6.07 6.52,6.07 0.85,0.25 0.68,3.71 3.06,7.34 1.37,2.09 3.24,3.81 5.3,5.12l-0.25 3.57c-2.04,-0.29 -2.44,-0.8 -4.42,0.34 -5.83,3.35 -1.2,1.03 -6.9,3.25 -1.31,0.51 -2.28,0.99 -3.44,1.63 -5.91,3.3 -7.02,5.81 -10.26,9.9zm35.74 -64.37c1.88,0.01 8.07,-0.22 9.36,0.22 3.1,1.07 1.01,4.31 3.7,5.94 2.35,1.43 5.19,-0.35 5.26,4.48 0.03,2.19 0.23,7.52 -0.15,9.39 -0.83,0.73 -2.23,1.16 -3.46,1.46 -0.19,-4.18 0.59,-7.79 -1.85,-10.58 -2.55,-2.91 -5.45,-2.39 -9.62,-1.62 -5.22,1.86 -9.57,-2.14 -14.29,-0.01 -1.69,0.76 -3.21,2.39 -3.79,4.33 -0.55,1.85 -0.32,5.67 -0.32,7.86 -4.83,-1.15 -3.7,-1.02 -3.63,-11.09 0.02,-3.3 0.73,-5.17 2.48,-7.11 4,-4.41 9.26,-3.25 16.32,-3.29z"/>
   <path class="fil1" d="M96.78 88.08c0,-3.79 0.24,-37.09 -0.14,-37.61 -0.77,0.28 -8.23,10.19 -8.97,11.08 -1.1,1.34 -5.05,2.8 -5.03,-2.96 0.01,-3.38 0.01,-6.76 0,-10.14 -6.01,-1.81 -5.58,-6.7 -5.58,-13.45 0,-6.25 0.06,-12.52 -0.01,-18.77l-5.09 0c-0.34,2.36 -1.84,1.99 -4,1.98 -1.65,-0.01 -4.76,-0.19 -6.23,0.13l0 2.93c2.17,2.09 2.77,2.17 2.76,6.38 -0.04,15.64 1.51,17.82 -10.2,17.82 -1.15,2.3 -2.09,2.92 -4.63,3.94l0.08 3.4c1.17,0.28 1.72,-0.43 3.43,0.04 0.85,0.23 1.93,1.02 2.61,1.45 2.21,1.39 3.07,1.39 5.67,2.45 7.68,3.13 13.06,8.88 15.81,16.66 1.73,4.9 1.5,9.3 1.5,14.7l18.03 -0z"/>
   <path class="fil2" d="M104.56 16.94c2.35,-0.72 2.34,1.93 2.33,3.85l-0 13.44c0,1.89 0.45,4.8 -1.03,5.48 -1.16,0.54 -2.21,-0.08 -2.53,-0.8 -0.52,-1.12 -0.24,-14.45 -0.24,-16.6 -0,-2.41 -0.6,-4.74 1.47,-5.38zm-0.14 -6.66c2.52,-0.77 3.25,2.71 1.24,3.38 -2.47,0.83 -3.49,-2.69 -1.24,-3.38zm-18.03 36.58l7.91 -0.11c0.92,-0.51 1.21,-1.19 2.58,-1.59 1.2,-0.35 2.94,-0.24 4.3,-0.23 2.96,0 5.93,0 8.89,-0 1.84,-3.39 1.3,-5.05 1.3,-9.42 0,-8.16 0.2,-18.76 0,-26.64 -0.06,-2.39 -0.63,-2.56 -1.27,-4.12 -6.36,-0 -12.71,-0 -19.07,-0 -10.32,0 -10.17,-0.66 -10.17,9.2 0,2.73 -0.33,27.15 0.3,28.64 1.32,3.14 3.27,0.91 5.22,4.27z"/>
   <path class="fil3" d="M3.83 87.96l10.22 0.01 0 -3.52 0.25 -0.66c0.13,-1.94 2.27,-2.06 3.2,-0.86 0.81,1.04 0.41,3.64 0.41,5.16l42.39 -0.01 -0.08 -8.45c-0.93,-0 -1.79,-0.01 -2.65,0l-2.05 -0.09c-0.61,-0.18 -0.37,-0.09 -0.74,-0.36 -2.88,-0.94 -4.03,-2.45 -3.85,-6.16 0.15,-3.02 2.01,-4.66 5,-4.79 -0.38,-0.86 -0.77,-1.34 -1.39,-2.06 -0.58,-0.68 -0.9,-1.48 -1.74,-1.6 -0.51,0.22 -0.21,0.04 -0.7,0.47 -0.29,0.25 -0.48,0.48 -0.76,0.77 -5.47,5.56 -6.19,3.25 -11.14,-0.53 -0.6,-0.46 -0.23,-0.31 -0.9,-0.6 -3.28,2.47 -6.21,6.67 -10,2.88l-7.92 -8.05c-2.57,0.22 -6.31,2.51 -7.91,3.68 -2.1,1.54 -4.09,3.57 -5.61,5.8 -3.71,5.45 -4.33,11.21 -4.05,18.97z"/>
   <path class="fil4" d="M8.01 101.07c1.29,-0.35 85.59,-0.31 86.72,0.01 2.35,-2.78 1.8,-5.28 1.8,-8.77l-92.69 0c-0.14,1.52 -0.18,4.58 0.38,5.92 0.58,1.38 1.98,2.89 3.79,2.84z"/>
   <path class="fil0" d="M110.11 4.75c19.04,-0.01 15.93,-2.74 15.93,20.1 0,19.19 1.82,20.07 -7.1,20.07 -2.95,-0 -5.91,0 -8.86,-0 -2.96,0 -5.93,0 -8.89,0 -1.36,-0 -3.1,-0.12 -4.3,0.23 -1.37,0.4 -1.67,1.08 -2.58,1.59 -0.27,0.77 -6.54,8.83 -7.84,10.04l-0.08 -9.93c-1.95,-3.36 -3.9,-1.14 -5.22,-4.27 -0.63,-1.49 -0.3,-25.91 -0.3,-28.64 0,-9.85 -0.15,-9.2 10.17,-9.2 6.36,0 12.71,-0 19.07,0zm19.73 4.31l0 6.67 0 25.37c-0.06,2.71 -0.74,3.9 -2.21,5.38 -3.43,3.45 -7.2,1.89 -14.27,2.25 -3.04,-0 -6.09,-0 -9.13,-0 -1.53,0 -3.05,-0 -4.58,-0.01 -2.27,-0.01 -2.18,0.23 -3.01,1.75 -0.77,0.28 -8.23,10.19 -8.97,11.08 -1.1,1.34 -5.05,2.8 -5.03,-2.96 0.01,-3.38 0.01,-6.76 0,-10.14 -6.01,-1.81 -5.58,-6.7 -5.58,-13.45 0,-6.25 0.06,-12.52 -0.01,-18.77 0.29,-5.46 -1.23,-10.97 2.97,-13.81 1.94,-1.31 3.57,-1.68 6.7,-1.67l33.22 0c7.95,-0.03 9.61,3.42 9.89,8.3z"/>
   <path class="fil1" d="M3.88 68.17c3.24,-4.1 4.35,-6.61 10.26,-9.9 1.16,-0.65 2.13,-1.12 3.44,-1.63 5.7,-2.22 1.07,0.11 6.9,-3.25 1.98,-1.14 2.38,-0.62 4.42,-0.34l0.25 -3.57c-2.06,-1.31 -3.93,-3.03 -5.3,-5.12 -2.38,-3.63 -2.21,-7.09 -3.06,-7.34 -4.26,-0 -6.51,-1.78 -6.52,-6.07 -0.01,-1.57 -0.16,-4.76 0.15,-6.13 0.59,-2.62 2.02,-2.5 2.61,-3.78l0 -2.84c-5.5,0 -10.93,-1.11 -12.77,3.05 -0.86,1.95 -0.45,26.87 -0.45,30.98 0,4.53 -0.43,11.71 0.08,15.92z"/>
   <path class="fil5" d="M110.07 44.92c2.95,0 5.91,-0 8.86,0 8.91,0 7.1,-0.88 7.1,-20.07 0,-22.84 3.11,-20.11 -15.93,-20.1 0.64,1.55 1.21,1.73 1.27,4.12 0.2,7.87 -0,18.48 -0,26.64 0,4.37 0.53,6.03 -1.3,9.42z"/>
   <path class="fil6" d="M96.64 50.47c0.38,0.52 0.14,33.83 0.14,37.61l14.66 0c0,-9.64 -0.24,-22.3 -0.01,-31.79 0.04,-1.67 0.37,-2.21 1.92,-2.45l0 -5.12c-3.04,-0 -6.09,-0 -9.13,-0 -1.53,0 -3.05,-0 -4.58,-0.01 -2.27,-0.01 -2.18,0.23 -3.01,1.75z"/>
   <path class="fil7" d="M35.57 48.08c0.75,-0.29 0.91,-0.48 1.6,-1.02 0.74,-0.58 1.04,-0.52 1.28,-1.37 0.06,-2.19 -0.71,-2.95 0.63,-5.1 0.82,-1.31 2.01,-2.09 3.82,-2.5 0.82,-5.87 0.37,-14.41 0.33,-20.68l-0.68 -0.11c-1.78,-0.38 -4.69,0.2 -7.44,-0.43 -7.66,-1.75 -6.82,0.97 -6.83,7.73 -0,3.99 -1.38,3.68 -3.47,4.82 -0.29,4.8 -0.05,9.09 2.13,12.62 1.25,2.04 5.24,6.09 8.64,6.04z"/>
   <path class="fil8" d="M52.81 64.57c0.84,0.12 1.16,0.92 1.74,1.6 0.62,0.72 1.01,1.21 1.39,2.06 6.48,0.04 12.5,-1.57 12.24,6.08 -0.09,2.7 -1.7,4.62 -4.25,4.89 -2.35,0.25 -6.68,0.09 -9.14,-0.01 0.37,0.27 0.13,0.17 0.74,0.36l2.05 0.09c0.85,-0.01 1.71,-0.01 2.65,-0l0.08 8.45c1.77,-0.05 -1.02,-5.43 2.15,-5.86 2.92,-0.4 2.16,3.55 2.23,5.76l10.23 -0 -0.13 -7.74c-0.01,-7.02 -5.12,-14.21 -10.48,-17.73 -1.51,-1 -4.62,-2.84 -6.73,-2.94 -1.24,1.29 -4.05,3.68 -4.76,5.01z"/>
   <path class="fil4" d="M68.41 126.04c0,-1.71 -0.16,-6.81 -2.37,-7.32 -1.91,-0.44 -25.14,0.57 -27.87,-0.18 -1.81,-0.05 -3.59,1.39 -4.3,2.32 -0.72,0.95 -2.18,3.44 -1.42,4.92 0.58,0.63 15.79,0.26 17.76,0.26 6.07,0 12.13,-0.01 18.2,0z"/>
   <path class="fil9" d="M8.01 101.07c0.76,0.65 73.71,0.3 84.8,0.29 3.96,-0 10.44,0.38 14.1,-0.06 4.49,-0.54 4.83,-4.85 4.49,-9.33 -2.7,-0.48 -10.07,-0.09 -13.27,-0.09l-91.04 -0.01c-1.53,-0 -2.75,-0.28 -3.26,0.43l92.69 0c0,3.49 0.55,5.99 -1.8,8.77 -1.14,-0.31 -85.44,-0.36 -86.72,-0.01z"/>
   <path class="fil10" d="M42.86 13.11c0.63,-1.53 -0.28,-3.76 -0.84,-5.17 -0.37,-0.92 -0.6,-1.35 -1.12,-2.18 -0.44,-0.7 -0.96,-1.38 -1.28,-1.96 -7.05,0.04 -12.32,-1.12 -16.32,3.29 -1.76,1.94 -2.46,3.81 -2.48,7.11 -0.06,10.07 -1.2,9.94 3.63,11.09 -0,-2.19 -0.24,-6.01 0.32,-7.86 0.58,-1.95 2.1,-3.57 3.79,-4.33 4.72,-2.13 9.07,1.88 14.29,0.01z"/>
   <path class="fil11" d="M42.54 17.31l0.68 0.11c0.04,6.27 0.5,14.81 -0.33,20.68 1.7,-0.17 4.06,-0.12 5.81,-0.08 2.67,0.06 2.74,0.79 4.3,1.52 1.49,-2.35 1.04,-7.16 0.96,-10.12 -1.59,-0.97 -2.79,-0.5 -3.34,-2.92 -0.92,-4.02 2.65,-12.91 -7.29,-9.54 -1.79,0.61 1.43,-0.61 -0.4,0.16l-0.39 0.19z"/>
   <polygon class="fil12" points="47.61,114.4 67.58,114.41 65.26,105.17 49.96,105.16 "/>
   <path class="fil13" d="M42.86 13.11c4.17,-0.77 7.07,-1.29 9.62,1.62 2.44,2.78 1.66,6.39 1.85,10.58 1.23,-0.3 2.63,-0.73 3.46,-1.46 0.38,-1.87 0.18,-7.2 0.15,-9.39 -0.07,-4.84 -2.9,-3.06 -5.26,-4.48 -2.69,-1.63 -0.6,-4.87 -3.7,-5.94 -1.29,-0.45 -7.48,-0.21 -9.36,-0.22 0.32,0.59 0.84,1.26 1.28,1.96 0.52,0.83 0.75,1.26 1.12,2.18 0.56,1.41 1.47,3.64 0.84,5.17z"/>
   <path class="fil0" d="M54.91 72.16c2.77,-0.25 6.59,-0.35 9.31,0.08 0.24,2.53 0.58,3.2 -1.58,3.2 -8.71,0 -8.2,0.71 -7.72,-3.28zm-0.14 7.02c2.46,0.1 6.79,0.26 9.14,0.01 2.56,-0.27 4.16,-2.19 4.25,-4.89 0.26,-7.65 -5.76,-6.04 -12.24,-6.08 -2.99,0.13 -4.86,1.77 -5,4.79 -0.18,3.71 0.97,5.22 3.85,6.16z"/>
   <path class="fil14" d="M68.41 126.04l14.4 -0.02c1.13,-3.57 -2.81,-7.03 -5.46,-7.62 -2.41,-0.54 -9.97,-0.2 -12.94,-0.2 -3.09,-0 -25.43,-0.34 -26.24,0.34 2.73,0.75 25.95,-0.26 27.87,0.18 2.21,0.51 2.37,5.61 2.37,7.32z"/>
   <path class="fil0" d="M104.56 16.94c-2.07,0.64 -1.47,2.97 -1.47,5.38 0,2.15 -0.28,15.48 0.24,16.6 0.33,0.71 1.37,1.33 2.53,0.8 1.48,-0.68 1.03,-3.59 1.03,-5.48l0 -13.44c0.01,-1.92 0.01,-4.57 -2.33,-3.85z"/>
   <path class="fil7" d="M32.07 55.37c1.03,0.33 6.03,3.58 7.18,4.42 1.91,-0.78 5.52,-3.68 7.44,-4.49 -0.39,-1.54 -0.77,-1.73 -0.87,-3.75 -6.32,0.88 -4.38,2.04 -12.88,-0.05 -0.15,1.95 -0.47,2.24 -0.88,3.87z"/>
   <path class="fil5" d="M94.3 46.75l-7.91 0.11 0.08 9.93c1.29,-1.21 7.56,-9.27 7.84,-10.04z"/>
   <path class="fil8" d="M24.8 57.92l7.3 7.27c1.1,-0.19 3.12,-1.94 3.88,-2.8 -0.53,-0.68 -3.59,-2.45 -4.36,-2.97 -1.41,-0.94 -3.23,-2.17 -4.74,-2.93 -0.92,0.31 -1.57,0.63 -2.08,1.43z"/>
   <path class="fil8" d="M42.7 62.32c0.71,0.66 2.75,2.62 3.7,2.87l7.53 -7.42 -1.92 -1.34c-0.83,0.32 -8.7,5.29 -9.32,5.88z"/>
   <path class="fil15" d="M54.91 72.16c-0.48,3.99 -0.99,3.28 7.72,3.28 2.17,0 1.82,-0.67 1.58,-3.2 -2.72,-0.43 -6.53,-0.33 -9.31,-0.08z"/>
   <path class="fil5" d="M43.09 42.01c-1.72,0.83 -1.37,3.12 0.81,3.28 0.94,0.07 5.19,0.09 5.82,-0.15 1.51,-0.57 1.53,-3.08 -0.77,-3.31 -1.12,-0.11 -5.09,-0.19 -5.86,0.18z"/>
   <path class="fil16" d="M57.62 37.08l-1.14 4.59c3.9,-0.01 4.8,-0.27 4.11,-4.82l-2.97 0.23z"/>
   <path class="fil17" d="M57.8 28.13l0.01 5.1c1.44,-0 1.57,0.03 2.6,-0.43 0.51,-2.85 0.3,-3.3 0.26,-6.21 -1.13,0.63 -1.12,1.05 -2.87,1.54z"/>
   <path class="fil17" d="M20.98 33.15l-0.02 -4.91c-1.16,-0.58 -2.23,-0.98 -2.81,-1.73 -0.15,1.25 -0.12,3.4 -0.08,4.69 0.07,1.96 1.01,2.17 2.92,1.95z"/>
   <path class="fil0" d="M104.42 10.28c-2.26,0.69 -1.24,4.21 1.24,3.38 2.01,-0.67 1.28,-4.15 -1.24,-3.38z"/>
   <path class="fil11" d="M35.57 48.08c0.51,0.43 0.21,0.26 1.07,0.46 1.46,0.34 3.27,0.29 4.73,0.12 -0.7,-0.67 -0.91,-0.5 -1.58,-1.22 -0.63,-0.68 -0.76,-1.19 -1.35,-1.75 -0.24,0.85 -0.53,0.79 -1.28,1.37 -0.69,0.53 -0.85,0.73 -1.6,1.02z"/>
   <path class="fil18" d="M64.67 87.97c0.85,0.51 9.63,0.25 10.26,0.15 0.51,-1.21 0.49,-6.89 -0.16,-7.89l0.13 7.74 -10.23 0z"/>
   <path class="fil19" d="M3.83 87.96l0.97 0.26c0.36,0.02 0.91,-0.02 1.29,-0.02l7.99 -0.08c0.52,-1.14 0.35,-3.07 0.22,-4.34l-0.25 0.66 0 3.52 -10.22 -0.01z"/>
  </g>
 </g>
</svg>
