<?xml version="1.0" encoding="UTF-8"?>
<!DOCTYPE svg PUBLIC "-//W3C//DTD SVG 1.1//EN" "http://www.w3.org/Graphics/SVG/1.1/DTD/svg11.dtd">
<!-- Creator: CorelDRAW 2020 (64-Bit) -->
<svg xmlns="http://www.w3.org/2000/svg" xml:space="preserve" width="169.41mm" height="169.41mm" version="1.1" style="shape-rendering:geometricPrecision; text-rendering:geometricPrecision; image-rendering:optimizeQuality; fill-rule:evenodd; clip-rule:evenodd"
viewBox="0 0 112 112"
 xmlns:xlink="http://www.w3.org/1999/xlink"
 xmlns:xodm="http://www.corel.com/coreldraw/odm/2003">
 <defs>
  <style type="text/css">
   <![CDATA[
    .fil1 {fill:white}
    .fil0 {fill:url(#id0)}
   ]]>
  </style>
  <linearGradient id="id0" gradientUnits="userSpaceOnUse" x1="0" y1="56" x2="112" y2="56">
   <stop offset="0" style="stop-opacity:1; stop-color:#343184"/>
   <stop offset="1" style="stop-opacity:1; stop-color:#EE592A"/>
  </linearGradient>
 </defs>
 <g id="Capa_x0020_1">
  <metadata id="CorelCorpID_0Corel-Layer"/>
  <g id="_1752860328816">
   <circle class="fil0" cx="56" cy="56" r="56"/>
   <path class="fil1" d="M56 29.15l0 0c3.5,0 6.37,2.86 6.37,6.37l0 14.13 14.12 0c3.5,0 6.37,2.86 6.37,6.37l0 0c0,3.5 -2.86,6.37 -6.37,6.37l-14.12 0 0 14.12c0,3.5 -2.86,6.37 -6.37,6.37l-0 0c-3.5,0 -6.37,-2.86 -6.37,-6.37l0 -14.12 -14.12 0c-3.5,0 -6.37,-2.86 -6.37,-6.37l0 -0c0,-3.5 2.86,-6.37 6.37,-6.37l14.12 0 0 -14.13c0,-3.5 2.86,-6.37 6.37,-6.37z"/>
  </g>
 </g>
</svg>
