<?xml version="1.0" encoding="UTF-8"?>
<!DOCTYPE svg PUBLIC "-//W3C//DTD SVG 1.1//EN" "http://www.w3.org/Graphics/SVG/1.1/DTD/svg11.dtd">
<!-- Creator: CorelDRAW 2020 (64-Bit) -->
<svg xmlns="http://www.w3.org/2000/svg" xml:space="preserve" width="168.252mm" height="168.16mm" version="1.1" style="shape-rendering:geometricPrecision; text-rendering:geometricPrecision; image-rendering:optimizeQuality; fill-rule:evenodd; clip-rule:evenodd"
viewBox="0 0 183.64 183.54"
 xmlns:xlink="http://www.w3.org/1999/xlink"
 xmlns:xodm="http://www.corel.com/coreldraw/odm/2003">
 <defs>
  <style type="text/css">
   <![CDATA[
    .fil1 {fill:black}
    .fil3 {fill:#676767}
    .fil7 {fill:#789FD3}
    .fil4 {fill:#929292}
    .fil5 {fill:#939393}
    .fil6 {fill:#9F9F9F}
    .fil8 {fill:#A8D2FE}
    .fil2 {fill:#CCCCCC}
    .fil0 {fill:#E1E6F5}
   ]]>
  </style>
 </defs>
 <g id="Capa_x0020_1">
  <metadata id="CorelCorpID_0Corel-Layer"/>
  <g id="_1752647023248">
   <path class="fil0" d="M103.73 17.76l5.9 0 0 47.36 -5.92 0 0.02 -47.36zm35.52 5.92l5.9 0 0 35.52 -5.92 0 0.02 -35.52zm-26.66 0l5.92 0 0 35.52 -5.92 0 0 -35.52zm-17.74 0l5.9 0 -0.04 35.52 -5.87 0 0.02 -35.52zm53.26 5.92l5.92 0 0 23.68 -5.92 0 0 -23.68zm-26.63 0l5.91 0 -0.01 23.68 -5.91 0 0.01 -23.68zm-35.53 0l5.92 0 0 23.68 -5.92 0 -0 -23.68zm71.05 2.96l5.92 0 0 17.76 -5.92 0 -0 -17.76zm8.88 2.96l5.92 0 0.01 11.84 -5.93 0 -0.01 -11.84zm-35.52 0l5.92 0 -0.02 11.84 -5.9 0 0 -11.84zm-8.73 58.68c4,-1.54 26.37,-13.03 31.94,-15.87 3.96,-2.01 6.01,-1.38 10.83,-1.38 15.11,0 13.32,-5.11 13.32,-22.57 0,-8.02 0,-16.04 0,-24.05 0,-6.6 1.36,-17.63 -2.36,-21.69 -3.77,-4.12 -14.6,-2.73 -21.32,-2.73l-47.73 0c-6,0 -18.18,-1.2 -22.48,1.58 -5.26,3.39 -3.79,12.54 -3.79,20.26 0,8.02 0,16.03 0,24.05 0,6.33 -1.22,17.87 2.03,22.03 3.58,4.57 13.93,3.14 20.91,3.14 25.94,0 26.73,-2 22.05,9.1 -1.17,2.78 -2.41,5.47 -3.4,8.14z"/>
   <path class="fil1" d="M27.51 171.76l45.78 -0.07 0.83 5.92 -47.32 0.01 0.71 -5.86zm8.48 -16.74c2.59,-0.01 6.78,1.86 14.43,1.86 2.53,0 5.1,-0.2 7.56,-0.58 2.41,-0.37 4.58,-1.25 6.88,-1.3 2.47,2.36 5.02,6.94 6.52,10.63l-41.91 0.03c1.77,-4.08 3.76,-7.86 6.52,-10.64zm11.47 -7.02c-0.01,-4.93 -0,-9.86 -0,-14.8 0,-2.47 -0.02,-4.95 -0.02,-7.42 0.01,-2.59 0.51,-3.94 2.86,-4.41 2.86,0.43 3.1,2.17 3.08,5.16 -0.03,5.47 0.35,21.1 -0.13,24.36l-5.74 -0.07 -0.07 -2.83zm-11.84 -38.48l29.61 0c0,3.74 0.03,6.54 -1.68,9.81 -1.34,2.56 -2.63,3.31 -4.1,4.84 -0.71,-2.77 -1.13,-4.62 -2.69,-6.18 -1.26,-1.26 -3.69,-2.53 -6.33,-2.53 -6.38,-0 -7.92,4.4 -9.03,8.71 -1.49,-1.56 -2.89,-2.37 -4.23,-5.08 -1.12,-2.26 -1.55,-4.87 -1.55,-7.71l0 -1.85zm53.28 -11.84l5.92 0 0 8.14c0,21.94 -15.51,40.67 -35.53,44.22l0.02 -6.11c8.79,-1.61 17.16,-8.19 20.97,-13.06 5.1,-6.53 8.62,-14.07 8.62,-25.05l0 -8.14zm-82.98 0l6.02 0c0,14.38 -0.18,21.92 8.78,33.41 3.73,4.78 12.23,11.28 20.82,12.85l0 6.11c-20.47,-3.62 -35.53,-22.61 -35.53,-44.22l-0.09 -8.14zm53.38 39.97l0 -6.66c2.86,-0.67 6.47,-4.12 8,-6.44 3.89,-5.9 3.85,-8.34 3.85,-15.03 5.86,0 5.92,-0.06 5.92,-5.92l5.92 0c0,11.58 -2.53,17.53 -8.4,24.53 -3.14,3.74 -10.41,9.1 -15.28,9.51zm-41.44 -32.56l0 -1.48 5.92 0c0,5.86 0.07,5.92 5.92,5.92 0,6.28 -0.09,9.44 3.7,14.8 1.68,2.37 4.96,5.92 8.14,6.66l0 6.66c-2.87,-0.24 -7.63,-3.12 -9.62,-4.44 -2.94,-1.94 -5.15,-4.05 -7.25,-6.81 -4.05,-5.33 -6.81,-12.09 -6.81,-21.31zm11.84 -4.41l-0 -2.99 38.49 0 2.96 0 0 5.92 -41.44 0 -0 -2.93zm6.26 -32.6c2.57,-15.52 26.23,-15.73 28.92,0l-8.54 0 0 5.92 8.88 0 0 5.92 -8.88 0 0 5.92 8.88 0 0 5.92 -29.6 0 0 -5.92 8.88 0 0 -5.92 -8.88 0 0 -5.92 8.88 0 0 -5.92 -8.54 -0zm-6.26 1.85l0 21.83c-5.86,0 -5.92,0.06 -5.92,5.92l-5.92 0c0,-7.21 0.33,-5.92 -14.8,-5.92 -1.79,0 -2.96,1.17 -2.96,2.96 0,12.56 -0.97,17.38 3.09,29.47 2.66,7.92 8.92,16.2 15.29,21.34 2.49,2.01 8.3,6.15 11.59,6.91 -1.81,3.42 -3.78,4.81 -6.08,10.57 -0.74,1.85 -6.96,20.51 -0.21,20.51l53.28 0c3.52,0 2.96,-3.49 2.96,-5.92 0,-4.98 -1.53,-10.48 -2.96,-14.07 -1.82,-4.59 -3.77,-7.32 -6.3,-11.1 5.13,-1.2 12.33,-7.34 16.38,-11.37 0.98,-0.97 1.19,-1.43 2.04,-2.4 6.04,-6.92 11.55,-18.64 11.55,-30.26l0 -13.69c0,-1.79 -1.17,-2.96 -2.96,-2.96l-11.84 0c-3.52,0 -2.96,3.49 -2.96,5.92l-5.92 0c0,-5.86 -0.06,-5.92 -5.92,-5.92l0 -21.83c0,-10.08 -9.53,-19.61 -19.61,-19.61l-2.22 0c-10.08,0 -19.61,9.53 -19.61,19.61z"/>
   <path class="fil1" d="M121.62 94.21c0.99,-2.67 2.23,-5.36 3.4,-8.14 4.68,-11.1 3.88,-9.1 -22.05,-9.1 -6.98,0 -17.33,1.43 -20.91,-3.14 -3.25,-4.15 -2.03,-15.7 -2.03,-22.03 0,-8.02 0,-16.03 0,-24.05 0,-7.72 -1.46,-16.87 3.79,-20.26 4.3,-2.77 16.49,-1.58 22.48,-1.58l47.73 0c6.72,0 17.55,-1.39 21.32,2.73 3.72,4.07 2.36,15.1 2.36,21.69 0,8.02 0,16.03 0,24.05 0,17.46 1.78,22.58 -13.32,22.57 -4.82,-0 -6.86,-0.64 -10.83,1.38 -5.58,2.83 -27.94,14.32 -31.94,15.87zm-47.51 -80.52l0 55.51c0,4.61 2.49,7.52 4.9,9.91 2.76,2.74 5.62,3.81 11.01,3.79 9.87,-0.04 19.74,-0 29.6,-0 -0.94,4.06 -7.03,15.01 -7.03,18.5 0,1.73 1.9,2.22 3.33,2.22 2.24,0 40.05,-20.47 42.92,-20.72 3.78,-0.33 9.29,0.49 12.81,-0.14 5.88,-1.06 11.98,-6.87 11.98,-13.55l0 -55.51c0,-6.83 -6.87,-13.69 -13.69,-13.69l-82.15 0c-6.83,0 -13.69,6.87 -13.69,13.69z"/>
   <path class="fil2" d="M35.97 68.08l8.54 0 0 5.92 -8.88 0 0 5.92 8.88 0 0 5.92 -8.88 0 0 5.92 29.6 0 0 -5.92 -8.88 0 0 -5.92 8.88 0 0 -5.92 -8.88 0 0 -5.92 8.54 -0c-2.69,-15.73 -26.35,-15.53 -28.92,-0z"/>
   <path class="fil3" d="M6.02 105.83c0,21.61 15.06,40.6 35.53,44.22l-0 -6.11c-8.59,-1.57 -17.09,-8.07 -20.82,-12.85 -8.96,-11.49 -8.78,-19.03 -8.78,-33.41l-6.02 0 0.09 8.14z"/>
   <path class="fil3" d="M88.91 105.83c0,10.98 -3.52,18.52 -8.62,25.05 -3.81,4.88 -12.18,11.45 -20.97,13.06l-0.02 6.11c20.03,-3.55 35.53,-22.28 35.53,-44.22l0 -8.14 -5.92 0 -0 8.14z"/>
   <path class="fil4" d="M35.99 155.02c-2.76,2.78 -4.75,6.56 -6.52,10.64l41.91 -0.03c-1.5,-3.69 -4.06,-8.27 -6.52,-10.63 -2.3,0.05 -4.47,0.93 -6.88,1.3 -2.45,0.38 -5.03,0.58 -7.56,0.58 -7.65,-0 -11.84,-1.88 -14.43,-1.86z"/>
   <polygon class="fil1" points="103.71,65.12 109.63,65.12 109.63,17.76 103.73,17.76 "/>
   <polygon class="fil3" points="26.8,177.62 74.13,177.61 73.29,171.69 27.51,171.76 "/>
   <path class="fil3" d="M35.62 111.38c0,2.84 0.43,5.45 1.55,7.71 1.34,2.71 2.74,3.53 4.23,5.08 1.11,-4.31 2.65,-8.71 9.03,-8.71 2.65,0 5.07,1.26 6.33,2.53 1.56,1.56 1.98,3.41 2.69,6.18 1.47,-1.54 2.76,-2.28 4.1,-4.84 1.71,-3.26 1.68,-6.06 1.68,-9.81l-29.61 0 -0 1.85z"/>
   <polygon class="fil1" points="112.59,59.2 118.51,59.2 118.51,23.68 112.59,23.68 "/>
   <polygon class="fil1" points="139.23,59.2 145.15,59.2 145.15,23.68 139.26,23.68 "/>
   <polygon class="fil1" points="94.83,59.2 100.7,59.2 100.75,23.68 94.85,23.68 "/>
   <polygon class="fil1" points="85.95,53.28 91.87,53.28 91.87,29.6 85.95,29.6 "/>
   <polygon class="fil1" points="148.12,53.28 154.03,53.28 154.03,29.6 148.12,29.6 "/>
   <polygon class="fil1" points="121.47,53.28 127.38,53.28 127.39,29.6 121.48,29.6 "/>
   <path class="fil5" d="M29.7 100.68l0 2.93 41.44 0 0 -5.92 -2.96 0c-0.65,3.7 -3.85,2.99 -7.4,2.99 -3.45,-0 -6.91,-0 -10.36,-0 -6.91,0 -13.82,0 -20.72,0z"/>
   <path class="fil6" d="M29.7 100.68c6.91,0 13.82,0 20.72,0 3.45,0 6.91,-0 10.36,0 3.56,0 6.75,0.71 7.4,-2.99l-38.49 -0 0 2.99z"/>
   <polygon class="fil1" points="157,50.32 162.92,50.32 162.91,32.56 156.99,32.56 "/>
   <path class="fil7" d="M47.47 148.01l0.07 2.83 5.74 0.07c0.48,-3.26 0.09,-18.9 0.13,-24.36 0.02,-2.99 -0.22,-4.73 -3.08,-5.16 0.49,4.1 0.12,10.45 0.12,14.79 0,2.47 0.02,4.95 0.02,7.42 -0.01,2.64 -0.55,4 -2.99,4.42z"/>
   <path class="fil8" d="M47.47 148.01c2.44,-0.42 2.98,-1.77 2.99,-4.42 0.01,-2.47 -0.02,-4.95 -0.02,-7.42 0,-4.34 0.37,-10.69 -0.12,-14.79 -2.36,0.46 -2.85,1.82 -2.86,4.41 -0.01,2.47 0.02,4.95 0.02,7.42 0,4.93 -0,9.86 0,14.8z"/>
   <polygon class="fil1" points="165.88,47.36 171.81,47.36 171.79,35.52 165.87,35.52 "/>
   <polygon class="fil1" points="130.35,47.36 136.25,47.36 136.27,35.52 130.35,35.52 "/>
  </g>
 </g>
</svg>
