<?xml version="1.0" encoding="UTF-8"?>
<!DOCTYPE svg PUBLIC "-//W3C//DTD SVG 1.1//EN" "http://www.w3.org/Graphics/SVG/1.1/DTD/svg11.dtd">
<!-- Creator: CorelDRAW 2020 (64-Bit) -->
<svg xmlns="http://www.w3.org/2000/svg" xml:space="preserve" width="194.484mm" height="194.446mm" version="1.1" style="shape-rendering:geometricPrecision; text-rendering:geometricPrecision; image-rendering:optimizeQuality; fill-rule:evenodd; clip-rule:evenodd"
viewBox="0 0 250.11 250.06"
 xmlns:xlink="http://www.w3.org/1999/xlink"
 xmlns:xodm="http://www.corel.com/coreldraw/odm/2003">
 <defs>
  <style type="text/css">
   <![CDATA[
    .fil0 {fill:#231E20}
    .fil13 {fill:#3DBE81}
    .fil9 {fill:#43C98D}
    .fil10 {fill:#53ADE9}
    .fil12 {fill:#5A5259}
    .fil11 {fill:#5FB8FE}
    .fil8 {fill:#60B7FD}
    .fil7 {fill:#685C66}
    .fil6 {fill:#A0604A}
    .fil2 {fill:#A96A50}
    .fil3 {fill:#DF4B4B}
    .fil5 {fill:#E5E5E5}
    .fil4 {fill:#E95A59}
    .fil1 {fill:white}
   ]]>
  </style>
 </defs>
 <g id="Capa_x0020_1">
  <metadata id="CorelCorpID_0Corel-Layer"/>
  <g id="_2069625783648">
   <path class="fil0" d="M129.38 237.14l-0 -4.39 56.02 0 4.27 0 -0 8.61 -60.29 0 -0 -4.23zm94.66 4.24l-4.23 -0c0,-5.48 -0.69,-26.1 0.32,-30.01l4.02 0.26c7.27,3.56 2.04,7.51 5.3,10.98 2.77,2.94 7.14,0.31 10.53,5.62 2.84,4.44 0.78,9.16 -2.08,11.33 -3.37,2.56 -9.12,1.82 -13.86,1.82zm-198.03 -29.76l4.01 -0.08c1,3.74 0.31,24.36 0.31,29.84 -8.74,0 -17.21,1.83 -20.37,-4.85 -2.02,-2 -1.14,-6.19 0.2,-8.31 1.52,-2.4 3.02,-3.39 6.76,-4.02 9.74,-1.62 0.23,-8.28 9.09,-12.59zm-14.15 -95.54c1.03,-2.06 11.02,-10.79 13.9,-13.33 1.36,-1.2 2.11,-2.32 3.46,-3.52l88.85 -82.35c2.16,-2.42 4.61,-4.33 7.01,-6.25l57.02 52.6c1.45,1.24 2.11,2.2 3.48,3.5l32.17 29.74c2.47,2.12 4.5,4.39 6.96,6.5 1.34,1.15 2.51,2.05 3.76,3.26 3.03,2.92 8.82,7.82 9.84,9.84 6.83,3.52 1.13,12.67 -5.23,8.69l-16.81 -15.49c-6.08,-6.3 -16.45,-14.92 -22.35,-20.72 -2.27,-2.23 -3.3,-3.31 -5.53,-5.23 -6.05,-5.18 -15.83,-15.22 -22.33,-20.74 -3.98,-3.38 -6.53,-9.28 -12.93,-6.32 -2.74,6.56 2.35,7.55 9.31,14.78l13.55 12.31c5.54,5.59 22.69,20.67 25.74,24.25 0.62,0.73 0.27,0.21 0.56,0.85 3.52,1.62 5.54,5.39 8.91,7.5l0 125.41 -8.55 0 -4.37 0c0,-12.68 1.54,-14.24 -3.64,-17.33 -0.07,-0.04 -0.28,-0.05 -0.33,-0.21 -0.05,-0.16 -0.23,-0.13 -0.33,-0.22l0 -51.68c0,-5.74 1.47,-11.36 -4.31,-12.35 -5.86,0.99 -4.3,7.04 -4.3,12.89l-0.14 51.68 -51.54 0 -0 -4.22c-0.06,-21.56 -0,-43.12 -0,-64.68 0,-18.06 -2.89,-17.24 15.08,-17.24 10.7,0 21.47,-0.11 32.17,0.02 8.72,1.45 0.21,11.42 8.74,12.89 7.16,-1.25 4.42,-12.71 1.57,-16.62 -3.87,-5.31 -10.54,-4.88 -18.79,-4.88 -7.9,0 -15.79,0 -23.69,0 -22.02,0 -23.68,1.57 -23.68,23.68l0 70.52c-0.8,0.68 -2.57,1.2 -3.47,2.46 -1.45,2.03 -0.84,11.86 -0.84,15.31l-81.83 0 -0 -118.97c-0.01,-4 -0.79,-5.56 1.56,-7.61l18.59 -17.45c1.71,-1.59 3.24,-2.65 4.93,-4.25l14.21 -13.24c1.72,-1.49 2.88,-3.01 4.63,-4.51l42.22 -38.87 12.4 11.1c1.98,1.8 3.2,4.99 8.38,2.61 3.53,-5.62 -1.65,-7.73 -4.42,-10.35 -1.71,-1.61 -2.62,-2.75 -4.36,-4.24 -5.95,-5.09 -10.12,-12.04 -14.99,-8.25 -5.22,4.06 -16.55,15.6 -22.31,20.76 -1.63,1.46 -3.04,2.49 -4.63,4 -1.71,1.62 -2.62,2.75 -4.36,4.24l-8.98 8.25c-1.64,1.41 -2.72,2.83 -4.34,4.25 -1.64,1.44 -3.1,2.52 -4.63,4.01l-53.55 49.8c-7.78,8.65 -14.43,-3.01 -7.41,-6.58zm44.39 -107.27l8.55 0 0 8.63 -8.55 0 -17.31 0 0 -8.63 17.31 0zm-17.3 25.81c4.47,-0.78 4.3,-4.01 4.3,-8.59l13 0 4.25 0 -0.07 32.84c-2.05,1.32 -2.58,2.17 -4.45,4.09 -1.32,1.36 -2.82,2.51 -4.31,3.78 -2.93,2.51 -5.4,5.23 -8.37,7.62l-0.04 -6.43c-0.05,-4.81 -0.02,-9.64 -0.01,-14.45 0.01,-5.08 0.91,-9.29 -4.3,-10.19 -5.96,0.34 -4.31,7 -4.31,16.65 0,4.72 0.64,17.73 -0.04,21.49 -0.47,2.64 -13.54,13.32 -15.98,15.78l-16.2 15.56c-6.98,10.56 2.55,24.74 15.74,21.13 4.76,-1.3 8.65,-7.02 12.17,-9.37l0 78.05c-7.18,0 -13.3,1.87 -16.09,9.21l-1.06 3.25c-1.48,2.79 -6.62,1.19 -11.22,9.77 -4.8,8.94 -0.54,20.62 9.84,24.29 3.61,1.28 7.51,0.85 12.07,0.85 67.47,-0 134.93,-0 202.4,0 7.68,0 13.7,0.79 19.52,-5.78 7.73,-8.73 4.34,-22.75 -5.53,-27.04 -4.69,-2.04 -2.37,-0.08 -4.36,-5.33 -2.71,-7.14 -8.65,-9.21 -16.09,-9.21l0 -78.05c4.95,3.31 7.4,9.16 15.28,10.03 6.92,0.76 13.07,-4.81 14.56,-10.34 1.08,-4.02 0.07,-8.04 -1.31,-10.45 -0.79,-1.37 -1.63,-2.49 -2.8,-3.66l-16.49 -15.27c-2.68,-2.14 -3.96,-3.65 -6.39,-5.99l-6.74 -6.18c-1.36,-1.37 -1.74,-1.59 -3.18,-2.74l-19.69 -18.52c-1.44,-1.44 -2.09,-1.71 -3.5,-2.96l-52.75 -48.99c-5.19,-4.57 -9.97,-12.15 -14.81,-8.08l-49.53 45.75c-1.24,1.24 -1.96,2.17 -3.35,3.11l0 -24.22c4.89,-0.41 4.33,-3.54 4.31,-8.61 -0.09,-21.18 5.97,-17.05 -34.45,-17.23 -10.64,-0.05 -8.54,0.63 -8.61,17.23 -0.02,5.07 -0.58,8.2 4.31,8.61 0,4.99 -0.59,8.3 4.31,8.58z"/>
   <path class="fil1" d="M77.73 211.23l-8.67 0c-0.85,4.88 -4.28,4.3 -9.13,4.32 -4.53,0.01 -7.75,-0.12 -8.07,-4.83 -0.16,-2.38 -0.5,-16.83 0.63,-18.78 1.11,-1.93 3.16,-1.94 3.35,-2.56 0.05,-0.16 0.23,-0.13 0.33,-0.22 0,-14.35 0,-28.71 0,-43.06 0,-6.6 -2.11,-16.22 4.82,-16.68l42.54 0.04c6.44,0.72 4.31,11.41 4.31,17.19 0,14.18 0,28.35 0,42.53l2.96 1.89c2.19,2.09 1.35,7.68 1.35,11.56 0,15.44 1.43,12.91 -21.53,12.91 -5.85,0 -11.89,1.55 -12.89,-4.31zm44.49 -141.88c12.46,-1.75 22.72,7.56 24.17,18.31 1.7,12.64 -7.53,22.85 -18.32,24.3 -12.6,1.7 -22.85,-7.52 -24.31,-18.31 -1.73,-12.78 7.5,-22.76 18.46,-24.3zm67.45 81.56l0 8.67c5.77,1 4.31,6.61 4.31,12.35l0 51.68c0.1,0.09 0.28,0.06 0.33,0.22 0.05,0.16 0.26,0.17 0.33,0.21 5.18,3.1 3.64,4.65 3.64,17.33l4.37 -0c0,-22.07 0,-44.14 0,-66.21 0,-11.13 0,-22.25 0,-33.37 0,-6.98 0.88,-28 -0.36,-33.33 -0.3,-0.64 0.06,-0.12 -0.56,-0.85 -3.05,-3.58 -20.2,-18.66 -25.74,-24.25l-13.55 -12.31c-6.96,-7.23 -12.05,-8.22 -9.31,-14.78 -3.05,-1.91 -4.17,-4.58 -7.26,-6.09 -5.18,2.38 -6.4,-0.8 -8.38,-2.61l-12.4 -11.1 -42.22 38.87c-1.75,1.5 -2.91,3.02 -4.63,4.51l-14.21 13.24c-1.69,1.59 -3.22,2.66 -4.93,4.25l-18.59 17.45c-2.35,2.05 -1.57,3.61 -1.56,7.61l0 118.97 81.83 0c0,-3.45 -0.61,-13.29 0.84,-15.31 0.9,-1.26 2.67,-1.78 3.47,-2.46l0 -70.52c0,-22.11 1.67,-23.68 23.68,-23.68 7.9,0 15.79,0 23.69,0 8.26,-0 14.93,-0.43 18.79,4.88 2.85,3.91 5.59,15.37 -1.57,16.62z"/>
   <path class="fil0" d="M86.18 168.16l13.06 0 0.06 21.54 -12.99 0 -0.13 -21.54zm-21.46 0l12.99 0 -0 21.53 -12.92 0 -0.07 -21.53zm21.46 -30.15l13.06 0 0.07 21.54 -12.99 0 -0.13 -21.54zm-21.46 -0l12.99 0 -0.14 21.54 -12.79 0 -0.06 -21.54zm4.34 73.21c-0.76,-4.48 -3.99,-4.3 -8.58,-4.3l-0 -4.23 -0 -4.39 38.8 0 4.27 0 0 8.61c-5.02,0 -10.05,0 -15.07,0 -5.23,-0 -9.83,-1.14 -10.74,4.3 1.01,5.86 7.04,4.31 12.89,4.31 22.96,-0 21.53,2.53 21.53,-12.91 0,-3.89 0.84,-9.48 -1.35,-11.56l-2.96 -1.89c0,-14.18 0,-28.35 0,-42.53 0,-5.78 2.13,-16.47 -4.31,-17.19l-42.54 -0.04c-6.93,0.47 -4.82,10.09 -4.82,16.68 0,14.35 0,28.71 0,43.06 -0.1,0.09 -0.28,0.05 -0.33,0.22 -0.19,0.62 -2.24,0.62 -3.35,2.56 -1.12,1.96 -0.79,16.4 -0.63,18.78 0.32,4.7 3.53,4.84 8.07,4.83 4.84,-0.01 8.28,0.56 9.13,-4.32z"/>
   <path class="fil2" d="M145.14 185.85c4.8,-2.3 8.22,5.49 3.15,7.72 -4.6,2.02 -9.01,-4.9 -3.15,-7.72zm3.65 -38.86c2.71,-0.81 11.06,-0.34 14.5,-0.35 12.88,-0.03 13.92,3.57 13.45,16.71 -0.42,11.63 -12.39,9.1 -20.99,9.12 -12.92,0.03 -13.91,-3.64 -13.45,-16.71 0.17,-4.85 2.58,-7.6 6.49,-8.76zm-15.11 72.93c10.77,0 21.54,0 32.3,0 18.02,0 15.16,0.76 15.16,-17.31 0,-10.17 0.6,-58.88 -0.21,-64.59 -10.7,-0.13 -21.46,-0.02 -32.17,-0.02 -17.97,0 -15.08,-0.83 -15.08,17.24 0,21.56 -0.05,43.12 0,64.68z"/>
   <path class="fil3" d="M11.86 116.09c-7.01,3.56 -0.36,15.23 7.41,6.58l53.55 -49.8c1.53,-1.49 2.99,-2.57 4.63,-4.01 1.62,-1.42 2.7,-2.84 4.34,-4.25l8.98 -8.25c1.74,-1.49 2.65,-2.61 4.36,-4.24 1.59,-1.51 3,-2.54 4.63,-4 5.76,-5.17 17.09,-16.7 22.31,-20.76 4.87,-3.79 9.04,3.15 14.99,8.25 1.74,1.49 2.66,2.62 4.36,4.24 2.77,2.62 7.96,4.73 4.42,10.35 3.09,1.52 4.22,4.18 7.26,6.09 6.4,-2.96 8.95,2.94 12.93,6.32 6.5,5.52 16.28,15.56 22.33,20.74 2.23,1.91 3.27,3 5.53,5.23 5.89,5.8 16.27,14.42 22.35,20.72l16.81 15.49c6.37,3.98 12.06,-5.17 5.23,-8.69 0.25,1.47 0.66,0.39 -0.82,0.97 -1.17,0.46 -3.32,0.06 -4.43,-0.29 -2.28,-0.72 -9.2,-7.19 -10.85,-9.09l-24.27 -22.58c-5.55,-4.63 -11.52,-10.96 -17.13,-15.72 -1.64,-1.39 -1.83,-1.61 -3.51,-3.46l-30.95 -28.81c-2.58,-2.43 -3.99,-3.17 -6.73,-6.18 -2.25,-2.47 -4.74,-3.77 -7.05,-6.42 -6.35,-7.3 -8.97,-6.77 -15.19,0.31l-89.73 83.08c-2.86,3.14 -4.37,3.9 -6.97,6.48 -3.17,3.15 -10.11,3.96 -8.81,1.71z"/>
   <path class="fil4" d="M11.86 116.09c-1.3,2.25 5.64,1.44 8.81,-1.71 2.6,-2.58 4.11,-3.34 6.97,-6.48l89.73 -83.08c6.22,-7.08 8.84,-7.61 15.19,-0.31 2.3,2.65 4.8,3.95 7.05,6.42 2.74,3.01 4.15,3.75 6.73,6.18l30.95 28.81c1.68,1.85 1.87,2.07 3.51,3.46 5.61,4.75 11.57,11.09 17.13,15.72l24.27 22.58c1.65,1.9 8.56,8.37 10.85,9.09 1.11,0.35 3.26,0.75 4.43,0.29 1.48,-0.58 1.07,0.5 0.82,-0.97 -1.01,-2.02 -6.81,-6.92 -9.84,-9.84 -1.25,-1.21 -2.42,-2.11 -3.76,-3.26 -2.46,-2.11 -4.49,-4.38 -6.96,-6.5l-32.17 -29.74c-1.37,-1.3 -2.03,-2.26 -3.48,-3.5l-57.02 -52.6c-2.4,1.92 -4.85,3.84 -7.01,6.25l-88.85 82.35c-1.35,1.2 -2.1,2.32 -3.46,3.52 -2.88,2.53 -12.87,11.27 -13.9,13.33z"/>
   <path class="fil5" d="M202.65 241.38l8.55 -0 -0 -125.41c-3.37,-2.11 -5.39,-5.88 -8.91,-7.5 1.24,5.33 0.36,26.35 0.36,33.33 0,11.12 0,22.25 0,33.37 0,22.07 0,44.14 0,66.21z"/>
   <path class="fil0" d="M135.84 83.98l1.17 1.76c2.14,4.55 0.49,10.89 -2.72,14.12 -3.29,3.31 -9.71,4.87 -14.13,2.73l-1.74 -1.18c-6.92,-2.17 -7.82,-14.71 -2.55,-19.97 5.28,-5.26 17.77,-4.4 19.98,2.54zm-13.62 -14.63c-10.95,1.54 -20.18,11.52 -18.46,24.3 1.46,10.79 11.71,20.01 24.31,18.31 10.78,-1.45 20.01,-11.67 18.32,-24.3 -1.44,-10.75 -11.71,-20.06 -24.17,-18.31z"/>
   <path class="fil0" d="M151.05 155.25l17.09 0 0.07 8.62 -17.29 0 0.14 -8.62zm-2.26 -8.25c-3.91,1.17 -6.32,3.92 -6.49,8.76 -0.46,13.07 0.53,16.73 13.45,16.71 8.6,-0.02 20.57,2.52 20.99,-9.12 0.47,-13.13 -0.57,-16.73 -13.45,-16.71 -3.45,0.01 -11.79,-0.46 -14.5,0.35z"/>
   <path class="fil6" d="M133.68 219.93l0 4.22 51.54 0 0.14 -51.68c0,-5.85 -1.56,-11.91 4.3,-12.89l0 -8.67c-8.53,-1.46 -0.02,-11.43 -8.74,-12.89 0.81,5.71 0.21,54.42 0.21,64.59 0,18.07 2.86,17.31 -15.16,17.31 -10.77,0 -21.54,0 -32.3,0z"/>
   <path class="fil7" d="M38.95 34.63l0 8.68c5.2,0.9 4.3,5.12 4.3,10.19 -0.01,4.81 -0.03,9.64 0.01,14.45 2.54,-1.6 4.12,-3.25 6.47,-5.8 1.66,-1.81 4.65,-4.11 6.52,-5.68l0 -30.43 -13 -0c0,4.58 0.17,7.8 -4.3,8.59z"/>
   <path class="fil8" d="M118.41 101.41c10.33,-0.4 17.06,-7.08 17.43,-17.43 -2.2,-6.94 -14.7,-7.8 -19.98,-2.54 -5.28,5.26 -4.37,17.8 2.55,19.97z"/>
   <path class="fil9" d="M224.04 241.38c4.74,0.01 10.49,0.74 13.86,-1.82 2.86,-2.17 4.92,-6.89 2.08,-11.33 -3.4,-5.31 -7.77,-2.68 -10.53,-5.62 -3.27,-3.47 1.96,-7.42 -5.3,-10.98l-0.1 29.76z"/>
   <polygon class="fil10" points="86.31,189.7 99.3,189.7 99.24,168.16 86.18,168.16 "/>
   <polygon class="fil11" points="86.32,159.56 99.3,159.56 99.24,138.02 86.18,138.02 "/>
   <polygon class="fil11" points="64.78,189.7 77.7,189.7 77.71,168.17 64.72,168.17 "/>
   <path class="fil3" d="M129.38 237.14l0 4.23 60.29 0 0 -8.61 -4.27 -0c-0.89,5.44 -5.67,4.39 -10.8,4.38 -5.02,-0 -10.05,-0 -15.07,-0 -10.05,0 -20.1,0 -30.15,0z"/>
   <polygon class="fil10" points="64.78,159.56 77.57,159.56 77.71,138.02 64.72,138.02 "/>
   <path class="fil9" d="M9.96 236.53c2.84,1.23 7,0.7 10.18,0.64 3.49,-0.07 5.54,-1.06 5.92,-4.41 0.54,-4.69 0.23,-16.14 -0.05,-21.14 -8.86,4.31 0.65,10.97 -9.09,12.59 -3.74,0.62 -5.24,1.62 -6.76,4.02 -1.34,2.12 -2.22,6.3 -0.2,8.31z"/>
   <path class="fil3" d="M60.48 202.69l0 4.23c4.59,0 7.83,-0.18 8.58,4.3l8.67 0c0.9,-5.44 5.51,-4.31 10.74,-4.3 5.02,0 10.05,0 15.07,0l0 -8.61 -4.27 -0c-0.59,3.58 -2.65,4.39 -6.47,4.41 -3.59,0.02 -7.2,-0.02 -10.79,-0.02 -7.18,0 -14.36,0 -21.54,0z"/>
   <path class="fil4" d="M129.38 237.14c10.05,0 20.1,0 30.15,0 5.02,0 10.05,-0 15.07,0 5.13,0 9.91,1.05 10.8,-4.38l-56.02 -0 0 4.39z"/>
   <path class="fil12" d="M43.26 67.96l0.04 6.43c2.96,-2.39 5.43,-5.11 8.37,-7.62 1.49,-1.28 2.98,-2.42 4.31,-3.78 1.87,-1.92 2.4,-2.78 4.45,-4.09l0.07 -32.84 -4.25 -0 0 30.43c-1.87,1.57 -4.85,3.87 -6.52,5.68 -2.35,2.56 -3.93,4.2 -6.47,5.8z"/>
   <path class="fil13" d="M26.01 211.62c0.28,5 0.59,16.45 0.05,21.14 -0.39,3.35 -2.43,4.34 -5.92,4.41 -3.18,0.06 -7.34,0.59 -10.18,-0.64 3.16,6.68 11.64,4.85 20.37,4.85 0,-5.48 0.69,-26.1 -0.31,-29.84l-4.01 0.08z"/>
   <path class="fil4" d="M60.48 202.69c7.18,0 14.36,0 21.54,0 3.59,0 7.2,0.04 10.79,0.02 3.81,-0.02 5.88,-0.83 6.47,-4.41l-38.8 -0 0 4.39z"/>
   <polygon class="fil7" points="56.25,17.45 56.25,8.82 38.94,8.82 38.94,17.45 "/>
   <polygon class="fil11" points="150.91,163.86 168.21,163.86 168.14,155.25 151.05,155.25 "/>
   <path class="fil13" d="M224.04 241.38l0.1 -29.76 -4.02 -0.26c-1,3.91 -0.32,24.53 -0.32,30.01l4.23 0z"/>
   <path class="fil10" d="M118.41 101.41l1.74 1.18c4.42,2.14 10.84,0.58 14.13,-2.73 3.22,-3.23 4.87,-9.57 2.72,-14.12l-1.17 -1.76c-0.37,10.35 -7.1,17.03 -17.43,17.43z"/>
   <polygon class="fil12" points="56.25,17.45 64.79,17.45 64.79,8.82 56.25,8.82 "/>
   <path class="fil0" d="M145.14 185.85c-5.86,2.81 -1.46,9.73 3.15,7.72 5.07,-2.22 1.65,-10.02 -3.15,-7.72z"/>
  </g>
 </g>
</svg>
