<svg xmlns="http://www.w3.org/2000/svg" viewBox="0 0 256 256"><defs><style>.cls-1{fill:#c1ec56;}.cls-1,.cls-10,.cls-2,.cls-3,.cls-4,.cls-5,.cls-6,.cls-7,.cls-8,.cls-9{fill-rule:evenodd;}.cls-3{fill:#aad440;}.cls-4{fill:#9ec53c;}.cls-5{fill:#9cc33c;}.cls-6{fill:#fff;}.cls-7{fill:#e7e7e7;}.cls-8{fill:#ccc;}.cls-9{fill:#b2b2b2;}.cls-10{fill:#989898;}</style></defs><g id="ConfigBancos"><g id="Capa_1"><path class="cls-1" d="M93.32,126.05c-2.59-21.29,13.39-38.13,31.8-40.28,21.3-2.45,38.28,13.52,40.29,32.08,2.3,21.44-13.53,38.13-32.52,40.15-21.15,2.3-37.55-13.67-39.71-31.95ZM56.2,124c-2.88-15.4,20-19.42,23-4.75C82.25,134.83,59.08,139,56.2,124Zm123.31-.43c-2.3-15.25,20.58-18.71,23.17-3.89C205.26,135.41,181.81,138.86,179.51,123.61ZM38.94,94.4v55c7.91,2.45,12.51,6.48,14.53,14.68H205.12c2-7.48,6.76-13.09,14.68-14.53V94.4C209,89.51,210,90.37,205,79.87l-150.5-.15C51.17,80.44,55.48,88.36,38.94,94.4Z"/><path class="cls-2" d="M66.13,219.87l-20.43-35c7-.14,5.18-1.72,10.79,8.2,1.73,3.17,2.73,6.77,7.48,4.89,13-5.32,13.53,6.34,18.71,6,1.87-.15,15-8.06,17.69-9.64,3.6-2,15.11-9.64,18.42-9.64l7.77.14C125.55,186.05,68.86,219.15,66.13,219.87ZM252.75,116.7v.72c-.15,2.59-1.59,4.89-5,7-2.45,1.44-4.75,2.73-7.19,4v34.1c0,9.5,1.87,18.13-4.46,21.44-1.87,1-4.46,1-7.34,1-22.74-.15-45.47,0-68.2,0-20.43,0-14.68-2.45-33.67,9.2L78.36,222.31c-11.08,6.19-14.68,10.22-21.87-2.73l-6.62-11.37c-1.29-2.3-12.66-21.29-12.95-23-21.15,0-19.13-.14-19-27.77,0-6-.43-5.18-2.59-9.06-1.44-2.74-2.73-4.9-4.32-7.49-1.44-2.44-2.73-4.89-4.31-7.48-1.3-2.3-3.17-5-3.46-7.77v-2.3a7.84,7.84,0,0,1,2.16-4.17c1.87-1.87,10.07-6.33,12.38-7.63V77.85c0-17.12-.15-19,14.67-19h76c1.87-.29,55.4-31.51,58.56-33.52,3.6-2.16,19.71-11.8,21.87-11.8,6.91,0,7.92,3.88,10.94,9.06l17.55,30.22c.86,1.72,2.88,4.46,3.31,6h11.22c3.6,0,6.05,1.3,7.49,3.74,2.3,3.89,1.29,16,1.29,21.15,0,7-1,7.77,1.73,12.38.43.86.57,1.15,1,1.87,4,7.19,9.21,13.52,9.36,18.85ZM61,184.76h39.57L83.68,194.83c-7.77-6-8.34-6.48-20.43-5.47L61,184.61ZM26.42,177c-.58-1.44-1.15-104.17-.29-110.36l206.47.14c.72,5.47.29,108.64-.14,110.22ZM11.17,124.47c1.72-.86,5.18-3.45,7-3.74v16C17.21,135.69,11.6,126.2,11.17,124.47ZM240.8,109.22,245,117l-4.46,2.3ZM172.46,46.49c8.06,6,8.06,6.33,20.29,5.46l3.88,6.77-1.72.14H153.47l-2.16-.29,21.15-12.23Zm17.7-25L211.6,58.86c-7,0-5.33.72-8.64-4.89-5-8.49-5.46-12.95-11.65-10.36-4.75,2-9.07,1-12.09-1.87C172,34.83,177.78,34.69,149,51c-3.6,2-12.09,7.91-16,7.91-2.45,0-5.33.29-7.63-.29Z"/><path class="cls-2" d="M38.94,94.4c16.54-6,12.23-14,15.54-14.68l150.5.15c5,10.5,4,9.64,14.82,14.53v55.11c-7.92,1.58-12.52,7.05-14.68,14.53H53.47c-2-8.2-6.76-12.09-14.53-14.68Zm9.49-22.16c-4.31,2.16,0,6.48-6.47,12.09-5,4.17-10.65.14-10.79,7.48-.29,17.7,0,37.41,0,55.54,0,11.94.57,7.05,8.2,10.21,6.76,2.74,6.33,9.5,7.05,11.51.86,3,3.6,2.74,6.47,2.74,17.7-.15,154.53.57,157.12-.29,3.6-1.29,1.44-7.77,6.48-12.09,4.75-4.17,10.93-.28,11.08-7.48.57-16.26,0-38.27,0-55.54,0-12.37-.58-7.19-8.2-10.36-6.77-2.73-6.19-8.77-7.05-11.51-1.16-4-9.07-2.73-16-2.73-14.67,0-145.46-.58-147.76.43Z"/><path class="cls-3" d="M48.43,72.39c2.16-1,133-.44,147.77-.44,7.05,0,14.82-1.29,16,2.74.72,2.59.29,8.63,7.05,11.51,7.77,3.16,8.35-2,8.2,10.36,0,17.41.58,39.42,0,55.54-.28,7.19-6.33,3.31-11.08,7.48s-2.73,10.79-6.47,12.08c-2.59.87-139.28.29-157.12.29-2.88,0-5.61.29-6.48-2.73-.57-2-.28-8.78-7.05-11.51-7.62-3-8.2,1.87-8.2-10.22,0-18.13-.43-37.84,0-55.54.15-7.33,5.9-3.31,10.79-7.48,6.62-5.61,2.16-9.93,6.48-12.08ZM26.27,177.13h206c.44-1.58.87-104.74.15-110.21L26,66.77C25.12,72.82,25.7,175.55,26.27,177.13Z"/><path class="cls-3" d="M133.61,142c-.72,2-.72,3.75-2.16,4.61a4.29,4.29,0,0,1-4.89-.43c-2-2.16.29-3.31-2.3-4.46-1.87-.87-2.16-.58-4.32-2-11.08-8.05-1.87-16.54,1.73-10.5,1.15,1.87,1,2.88,2.73,4.17,4.18,3.17,14.68,1,11.37-4.46-2.3-3.6-13-2.44-17.55-8.2-5.18-6.62-1.3-14.68,4.31-17.41,3.74-1.73,2.3.14,3.31-3.45a3.69,3.69,0,0,1,7-.58c1.3,3.45-1.29,2.3,2.59,3.74,10.07,4,9.21,15.69,2.16,12.38-3-1.44-1.58-5.33-7.34-5.9-4.31-.43-7.05,1.44-6.62,5.9,1.15,2.3,8.2,3.16,10.51,3.88a14.71,14.71,0,0,1,8.49,6.19,11.72,11.72,0,0,1-.29,11.51c-1.87,2.73-4.61,4.46-8.78,5.47ZM101,124.76c1.44,14.53,14.39,27.19,30.93,25.61A28.54,28.54,0,1,0,101,124.76Z"/><path class="cls-2" d="M101,124.61c-1.73-16.54,10.94-29.78,25.61-31.22a28.54,28.54,0,1,1,5.32,56.84C115.34,151.66,102.53,139.15,101,124.61Zm-7.63,1.44c2.16,18.28,18.57,34.1,39.72,32,18.84-2,34.82-18.71,32.51-40.15-2-18.56-19-34.53-40.28-32.08-18.42,2.15-34.39,19-31.8,40.28Z"/><path class="cls-2" d="M133.61,142c4.17-1,6.91-2.73,8.78-5.46a11,11,0,0,0,.29-11.51c-1.59-2.88-4.75-5-8.49-6.19-2.45-.72-9.36-1.58-10.51-3.89-.43-4.31,2.45-6.33,6.62-5.89,5.76.57,4.32,4.46,7.34,5.89,6.91,3.17,7.91-8.34-2.16-12.37-3.88-1.58-1.29-.29-2.59-3.74a3.71,3.71,0,0,0-7,.58c-1.15,3.74.43,1.72-3.31,3.45-5.61,2.73-9.49,10.79-4.31,17.41,4.6,5.9,15.39,4.6,17.55,8.2,3.45,5.47-7.19,7.63-11.37,4.46-1.58-1.29-1.58-2.3-2.73-4.17-3.6-6-12.81,2.59-1.73,10.5,2.16,1.58,2.3,1.15,4.32,2,2.59,1.29.29,2.44,2.3,4.46a4.07,4.07,0,0,0,4.89.43c1.59-1,1.44-2.59,2.16-4.61Z"/><path class="cls-4" d="M125.27,58.57a26.87,26.87,0,0,0,7.62.29c3.89-.14,12.38-5.9,16-7.91,28.78-16.26,23-16,30.22-9.21,3.16,3,7.48,3.88,12.08,1.87,6.05-2.59,6.62,1.87,11.66,10.36,3.31,5.61,1.58,4.89,8.63,4.89L190,21.45Z"/><path class="cls-4" d="M66.13,219.87c2.73-.87,59.42-33.82,60.43-35l-7.77-.14c-3.31,0-14.82,7.62-18.42,9.64C97.64,196,84.55,203.89,82.68,204c-5,.29-5.76-11.37-18.71-6-4.75,2-5.75-1.72-7.48-4.89-5.61-9.92-3.74-8.49-10.79-8.2Z"/><path class="cls-2" d="M190,118.14c4.9-1.73,6.77,6.19,2.16,7.34A3.83,3.83,0,1,1,190,118.14Zm-10.5,5.47c2.3,15.25,25.75,11.8,23.17-3.89C200.23,104.9,177.35,108.36,179.51,123.61Z"/><path class="cls-2" d="M66.71,118.14c5-1.44,6.47,6.33,2.3,7.48C63.83,127.06,61.53,119.72,66.71,118.14Zm-10.51,6c2.88,15,26.05,10.94,23-4.74C76.35,104.76,53.32,108.79,56.2,124.18Z"/><path class="cls-1" d="M151.17,58.72l2.15.28h41.44l1.73-.14L192.6,52.1c-12.37,1-12.37.57-20.28-5.47L151.17,58.86Z"/><path class="cls-1" d="M63.25,189.51c12.09-1,12.52-.58,20.43,5.46l16.84-10.07H61l2.3,4.75Z"/><path class="cls-5" d="M11,124.47c.44,1.87,6.05,11.22,7.05,12.23v-16C16.2,121,12.75,123.46,11,124.47Z"/><path class="cls-3" d="M66.71,118.14c-5.33,1.44-3,8.78,2.3,7.48C73.18,124.47,71.89,116.85,66.71,118.14Z"/><path class="cls-3" d="M190,118.14a3.83,3.83,0,1,0,2.16,7.34C196.78,124.18,194.91,116.41,190,118.14Z"/><polygon class="cls-4" points="240.52 119.29 244.98 116.99 240.8 109.22 240.52 119.29"/></g><path class="cls-6" d="M183.37,155.8a16.81,16.81,0,1,1-16.8,16.8,16.8,16.8,0,0,1,16.8-16.8"/><path class="cls-2" d="M193.46,229.54c-.09,7.58-1.6,6.3-11.61,6.3-8.43,0-12.75,1.49-12.83-4.73-.13-10.06,1.3-7.67-7-11-7.29-3-6-4.83-11.5.68-4.9,4.94-5.27,5.35-10.36.23-3-3-5.74-5.76-8.77-8.77-1.63-1.63-3.18-3.64-.66-6.13,6.25-6.19,7.19-5.73,4.55-11a48.13,48.13,0,0,1-2.48-6.09c-1.05-3.1-1.19-4-4.86-4-2.37,0-6.61.61-8.39-.69-2.43-1.76-1.4-12.26-1.41-16.06,0-10,1.6-7.14,10.23-7.66,3.21-.19,3.44-1.94,4.32-4.67a47.38,47.38,0,0,1,2.47-6.1c2.84-5.8.24-4.81-4.75-10.57-3-3.43,1.29-6.08,5.59-10.39,2.94-3,7-8.22,9.85-7.79,4,.63,4.47,7.84,11.15,6.11.85-1.34,5.09-2.7,6.89-3.37,3.38-1.26,5-.94,5.12-5.15.06-2.73-1-7.15,1.74-8.51,1.44-.71,7.64-.44,9.78-.44,12.11,0,12.9-1.46,12.87,7.66,0,7,1.36,3.52,11.56,8.9,7.63,4,7.83-7,13.46-5,1.34.48,9,8.49,10.55,10.07,6,6,5,6-.64,11.57-3.61,3.55-.65,4.24,2.78,14.53,1.29,3.86,3.18,3.16,7.17,3.12,3.77,0,5.84.27,6,4.23,1.05,27.23-1.71,18.54-10.59,20.31-2.73.55-2.94,3.56-4,6.21-3.31,8.34-5.91,7,.45,13.28,1.51,1.5,4.15,3.21,2.08,6.35-.87,1.31-3.8,3.93-5.08,5.21-11,11-8.86,10.63-16.76,3.07-2.6-2.48-3.64-1.71-6.83-.13-9.91,4.94-10.22.64-10.14,10.49m-19.29,12.77c5,0,16.67.76,20.37-1.1,4.53-2.28,5.45-5.91,5.36-10.58-.05-3.27-.57-3,2-3.7l4.7-2.07,2,1.91,5.47,4c3.15-.24,3.64.71,7-.67,3.11-1.34,8.37-7.47,10.71-9.8,5.21-5.22,7.43-5.76,7.68-12.76l-2.94-6-3-3,3.1-7.19c16.56,0,14.06-8.14,14.06-22.92l-.06-6.73c-1.45-3-1.47-4.29-4.45-6.25s-4.93-1.45-9.24-1.45a33.3,33.3,0,0,0-3-7.27c2.77-4.14,5.56-3.79,5.56-10.7,0-5.06-6.22-9.85-9.09-12.72-3.1-3.1-7.56-9.09-13.16-9.09-6.14,0-6.4,3.26-9.83,5.56-2.4-.56-4.48-2.34-7.27-2.57,0-4.51-.08-6.69-1.88-9.67a9.36,9.36,0,0,0-7.54-4.44H171.59c-3.36,0-5.85,2.2-7.35,4.19-2.08,2.75-1.64,5.41-1.64,9.92a38.78,38.78,0,0,0-7.27,3c-1.91-2.86-6-6-9.84-6-6.19,0-10,5.54-13.36,8.87-3.13,3.14-9.31,7.74-9.31,13.37,0,6.68,6,9.66,6,10.69,0,.87-2.15,6.06-2.56,6.85-4.4,0-7.29-.49-10.1,1.45-2.12,1.46-4.45,4.17-4.45,7.53v19.25a9.45,9.45,0,0,0,4.38,7.6c2.72,1.93,6.14,1.81,10.59,1.81a33.91,33.91,0,0,1,2.57,6.41c-2.75,4.11-6.42,4.11-6.42,11.12,0,5.07,6.23,9.86,9.09,12.73,4.5,4.49,7.09,9.09,14,9.09,5.3,0,7.25-4.4,10.27-6.42a29.7,29.7,0,0,0,6.41,2.57c0,6.57-.95,9.89,4.71,13.69Z"/><path class="cls-7" d="M157,127.13c-24.18,26.83-21.19,66.31,6.4,89.42,6.61,5.53,18.45,11.73,30,13-.08-9.85.23-5.55,10.15-10.49,3.18-1.58,4.22-2.35,6.82.13,7.9,7.56,5.8,7.91,16.76-3.07,1.28-1.28,4.21-3.9,5.08-5.21,2.07-3.14-.57-4.85-2.08-6.35-6.36-6.32-3.76-4.93-.45-13.28,1-2.65,1.26-5.66,4-6.21,8.87-1.77,11.63,6.92,10.58-20.31-.16-4-2.23-4.27-6-4.23-4,0-5.88.74-7.17-3.12-3.43-10.29-6.39-11-2.78-14.54,5.66-5.56,6.62-5.6.64-11.55-1.59-1.59-9.21-9.6-10.55-10.08-5.63-2-5.83,9-13.46,5-10.2-5.38-11.6-1.88-11.57-8.9,0-9.12-.75-7.66-12.86-7.66-2.14,0-8.34-.27-9.78.44-2.75,1.36-1.68,5.78-1.74,8.51-.08,4.21-1.74,3.89-5.12,5.15-1.8.67-6.05,2-6.89,3.37m43.4,18a7.93,7.93,0,0,0,2.3,2.15,9.29,9.29,0,0,1,1.43,1.14c.91,1,.43.3,1,1.43,3.16-1.6,4.07-.88,5.65,1.38a38.26,38.26,0,0,1,3.38,5.58,37.39,37.39,0,0,1,3.55,14.34c.51,11.8-4.13,19.62-9.35,26.09a37.34,37.34,0,0,1-10.18,7.8c-13.95,7.09-29.6,4.87-40.32-4.31-23.47-20.11-13.79-58,16.58-63.9a37.08,37.08,0,0,1,16,.55,39.88,39.88,0,0,1,6.62,2.36C200,141.13,200.38,141.59,200.44,145.16Z"/><path class="cls-8" d="M193.46,229.54c-11.57-1.26-23.41-7.46-30-13-27.59-23.11-30.58-62.59-6.4-89.42-6.68,1.73-7.11-5.48-11.15-6.11-2.81-.43-6.91,4.84-9.85,7.79-4.3,4.31-8.57,7-5.59,10.39,5,5.76,7.59,4.77,4.75,10.57a48.86,48.86,0,0,0-2.47,6.1c-.88,2.73-1.11,4.48-4.32,4.67-8.63.52-10.25-2.38-10.23,7.66,0,3.8-1,14.3,1.41,16.06,1.78,1.3,6,.66,8.39.69,3.67.05,3.82.93,4.86,4a48.13,48.13,0,0,0,2.48,6.09c2.64,5.28,1.7,4.82-4.55,11-2.52,2.49-1,4.5.66,6.13,3,3,5.75,5.73,8.77,8.77,5.09,5.12,5.46,4.7,10.36-.23,5.47-5.51,4.21-3.65,11.5-.68,8.26,3.37,6.83,1,7,11,.08,6.22,4.39,4.73,12.83,4.73,10,0,11.52,1.28,11.61-6.3"/><path class="cls-2" d="M205.12,149.88c-2.49,4,2.11,5.39,4.75,13.83a31.25,31.25,0,0,1,.13,17.67,29.64,29.64,0,0,1-7.74,12.79c-2.1,2-8.74,7.44-13.16,7.24l-2.61.94a30.35,30.35,0,0,1-21.05-4c-13.91-8.91-18.35-26.72-10.26-40.52,3-5.2,9.56-12,16.83-13.47,3-1.93,11.22-1.79,15.12-1a30.1,30.1,0,0,1,6.78,2.19c4.39,2,3.53,1.57,6.53-.31-.06-3.57-.46-4-3.4-5.39a39.88,39.88,0,0,0-6.62-2.36,37.08,37.08,0,0,0-16-.55c-30.37,5.87-40.05,43.79-16.58,63.9,10.72,9.18,26.37,11.4,40.32,4.31a37.34,37.34,0,0,0,10.18-7.8c5.22-6.47,9.86-14.29,9.35-26.09a37.39,37.39,0,0,0-3.55-14.34,38.26,38.26,0,0,0-3.38-5.58c-1.58-2.26-2.49-3-5.65-1.38"/><path class="cls-9" d="M172,144.31c-3.1,3.61-5.11,5.24-7.58,10.34-.71,1.45-4.91,13-2.69,13.77,2.38-8.18,8.26-14.9,18-15.57C201,151.39,209,179,191.8,189.69c-13.24,8.24-24.2-2.47-24.9-2.67-.67.29-.81-.52.15,1l3.32,4a34.1,34.1,0,0,0,5,4.37c3,2.13,9.13,5.47,13.68,5,4.42.2,11.06-5.21,13.16-7.24A29.64,29.64,0,0,0,210,181.38a31.25,31.25,0,0,0-.13-17.67c-2.64-8.44-7.24-9.81-4.75-13.83-.52-1.13,0-.46-1-1.43a9.29,9.29,0,0,0-1.43-1.14,7.93,7.93,0,0,1-2.3-2.15c-3,1.88-2.14,2.33-6.53.31a30.1,30.1,0,0,0-6.78-2.19c-3.9-.76-12.13-.9-15.12,1"/><path class="cls-2" d="M161.74,168.42c-.52,4.05-.78,6.83.61,10.73s2.88,5,4.55,7.87c.7.2,11.66,10.91,24.9,2.67C209,179,201,151.39,179.73,152.85c-9.73.67-15.61,7.39-18,15.57m32.94,4.06c0,7.36-5.94,13.69-13.25,13.69a13.39,13.39,0,0,1-8.7-23.67C181.27,154.94,194.68,161.92,194.68,172.48Z"/><path class="cls-10" d="M189.1,201.41c-4.55.51-10.69-2.83-13.68-5a34.1,34.1,0,0,1-5-4.37l-3.32-4c-1-1.54-.82-.73-.15-1-1.67-2.82-3.13-3.86-4.55-7.87s-1.13-6.68-.61-10.73c-2.22-.77,2-12.32,2.69-13.77,2.47-5.1,4.48-6.73,7.58-10.34-7.27,1.47-13.79,8.27-16.83,13.47-8.09,13.8-3.65,31.61,10.26,40.52a30.35,30.35,0,0,0,21.05,4Z"/></g></svg>