<svg xmlns="http://www.w3.org/2000/svg" viewBox="0 0 256 256"><defs><style>.cls-1{fill:#559a2d;}.cls-2{fill:#b4b4b4;}.cls-3{fill:#fbe696;}.cls-4{fill:#4d8b28;}.cls-5{fill:#6bc03b;}.cls-6{fill:#7bde45;}.cls-7{fill:#686868;}.cls-8{fill:#929292;}.cls-9{fill:#f8d166;}.cls-10{fill:#474747;}.cls-11{fill:#f9e495;}</style></defs><g id="Bancos"><path d="M239.7,159.8c0-3.31-1.38-4.7-4.64-4.73-2.8,0-5.62-.1-8.42,0-1.78.09-2.46-.28-2.4-2.27.16-5.54.09-11.08,0-16.61,0-2.71-1.48-4.15-4.13-4.26a2.89,2.89,0,0,0-.72,0c-2.55.55-3.09-.67-2.88-3s0-4.33,0-6.49c0-5-.89-6-5.82-5.91-1.66,0-1.93-.54-1.91-2,.08-5.94,0-11.88,0-17.82,0-3.26,0-3.26,3.18-3.32s4.49-1.46,4.52-4.62a72.3,72.3,0,0,0-.06-7.93c-.26-2.53.67-3,3-2.92,3.41.19,4.75-1.31,4.76-4.79,0-4.65,0-9.3,0-14,0-2.81-1.5-4.22-4.33-4.3a7.68,7.68,0,0,0-1.44,0c-1.61.27-2-.41-1.95-2,.13-2.56,0-5.13,0-7.7,0-4.16-.35-4.68-4.2-6.22-20.87-8.35-41.87-16.37-62.53-25.19-9.4-4-18.78-6-28.87-5.18a8.64,8.64,0,0,0-2.57.47L42.28,39.58a4.22,4.22,0,0,0-2.89,4.48c.08,2.56,0,5.13,0,7.7,0,3.11,0,3.11-3.11,3.16-2.95,0-4.54,1.37-4.58,4q-.09,7.59,0,15.17A3.78,3.78,0,0,0,35.49,78a4.38,4.38,0,0,0,1.2,0c2.43-.49,3,.62,2.76,2.84s0,4.49,0,6.74c0,4.82,1,5.89,5.7,5.79,1.77,0,2.07.53,2,2.14-.1,6.1-.18,12.2,0,18.3.08,2.41-.65,2.89-2.89,2.78-3.58-.19-4.87,1.26-4.88,4.9,0,2.65-.18,5.32.05,7.94.19,2.21-.57,2.64-2.62,2.56-3.91-.17-5.13,1.18-5.14,5.14,0,5.37-.06,10.75,0,16.12,0,1.53-.4,1.9-1.86,1.83-2.73-.12-5.46,0-8.19,0-4.26,0-5.4,1.14-5.4,5.41v81.61c0,4.28,1.15,5.42,5.4,5.42H234.74c3.63,0,5-1.31,5-4.9Q239.72,201.21,239.7,159.8Zm-53.88-45c0,1.54-.44,1.82-1.87,1.82-5,0-5.88.91-5.88,5.86,0,2.65-.07,5.3,0,8,.05,1.28-.36,1.65-1.6,1.58-2-.12-4.4.59-5.9-.3s-.85-3.52-1.27-5.36c-4.56-19.95-22.34-33.44-43.41-32.88-19.3.51-36.55,15.73-39.61,35.31-.45,2.88-1.4,3.4-4,3.27-4.39-.23-4.4-.06-4.4-4.58,0-2.08,0-4.17,0-6.25,0-3.18-1.4-4.58-4.49-4.64s-3.21-.06-3.21-3.3c0-5.93,0-11.87,0-17.81,0-1.43.16-2.08,1.88-2,5,.07,5.85-.93,5.85-5.89,0-2.48.13-5,0-7.46C77.76,78.29,78.38,78,80,78c16,.07,32.1,0,48.15,0,15.88,0,31.77,0,47.66,0,2,0,2.39.57,2.29,2.38-.15,2.8-.05,5.61,0,8.42,0,3.27,1.42,4.82,4.71,4.59,2.55-.17,3.13.65,3.05,3.1C185.65,102.57,185.72,108.67,185.82,114.77Z"/><path class="cls-1" d="M103.69,170.48H48.77c-4.21,0-5,.66-5.55,4.8A7.91,7.91,0,0,1,36.35,182c-3.78.46-4.64,1.42-4.65,5.22q0,14.19,0,28.4c0,3.46,1,4.58,4.44,4.93a7.8,7.8,0,0,1,7.1,7.25c.3,3.09,1.53,4.29,4.6,4.29q80.15,0,160.3,0c3.06,0,4.3-1.21,4.6-4.29a7.69,7.69,0,0,1,7.34-7.26c2.94-.27,4.19-1.54,4.2-4.44q0-14.81,0-29.6c0-2.93-1.25-4.21-4.16-4.48a7.74,7.74,0,0,1-7.38-7.23c-.31-3.2-1.52-4.32-4.8-4.32h-55.4a66.47,66.47,0,0,0,7.84-7.36c.45-.55,1.2-.34,1.83-.34q33.93,0,67.88,0c1.42,0,1.94.32,1.93,1.86q-.06,36.7,0,73.41c0,1.31-.31,2-1.73,1.8a11.52,11.52,0,0,0-1.44,0H27.15c-3.62,0-3.14.47-3.14-3.23,0-23.67,0-47.34-.07-71,0-2.4.67-2.86,2.93-2.85q33.09.14,66.19,0a4.29,4.29,0,0,1,3.71,1.62A40.21,40.21,0,0,0,103.69,170.48Z"/><path class="cls-2" d="M47.2,49.12c-.59-2.35.38-3.42,2.65-4.31q34.34-13.58,68.57-27.4a19.35,19.35,0,0,1,5.82-1.06c7.18-.57,13.79,1,20.44,3.81,16.94,7.12,34.08,13.76,51.14,20.59.51.21,1,.48,1.5.72,1,2.68-.64,4.41-2.24,6.07s-3.47,1.93-5.48,2.21a27.29,27.29,0,0,1-3.84.17q-67.09,0-134.19,0C50.09,49.9,48.5,50.27,47.2,49.12Z"/><path class="cls-3" d="M123.66,170c-11.79-1.37-20.42-7.56-26.1-17.75A34.62,34.62,0,0,1,143.84,105a4.53,4.53,0,0,1,.55.43c6.24,4.91,9,11.78,10.44,19.21a38.89,38.89,0,0,1-25.58,44.24A17,17,0,0,1,123.66,170Z"/><path class="cls-4" d="M151.11,201.25A23.11,23.11,0,1,1,128,178.18,23.2,23.2,0,0,1,151.11,201.25Z"/><path class="cls-5" d="M194.91,178.26c3.05,0,6.1,0,9.14-.1,1.2,0,1.62.48,2,1.53a14.68,14.68,0,0,0,9.07,9,2,2,0,0,1,1.48,2.29q-.06,10.35,0,20.7a2,2,0,0,1-1.59,2.21,14.57,14.57,0,0,0-8.92,8.85c-.42,1.12-.84,1.67-2.16,1.67-18.28,0-36.57,0-55.48,0a33.27,33.27,0,0,0,10.29-19.81,102.38,102.38,0,0,1,10.8-.17c5.29-.06,10.59,0,15.88,0,5.72,0,8.58-2.77,8.72-8.51.11-4.81,0-9.62,0-14.43C194.21,180.35,194.05,179.19,194.91,178.26Z"/><path class="cls-6" d="M39.48,205.13c0-4.81,0-9.62-.1-14.43,0-1.2.5-1.6,1.54-2a14.83,14.83,0,0,0,9-9.06,1.84,1.84,0,0,1,2-1.5q27.3.06,54.6,0a3.88,3.88,0,0,1,.73.22A31.71,31.71,0,0,0,97.24,204.6c.06.74-.49.92-1,1.1a7.09,7.09,0,0,1-2.15.22q-25.69,0-51.41,0C41.55,205.91,40.38,206,39.48,205.13Z"/><path class="cls-7" d="M128,70.33c-28.57,0-57.13,0-85.7.06-2.53,0-3.05-.73-3-3.07.18-4.69,0-4.7,4.87-4.7H213.45c3.55,0,3.12-.43,3.14,3,0,4.71,0,4.71-4.81,4.71Z"/><path class="cls-5" d="M39.48,205.13H94.77c.84,0,1.79.31,2.47-.53a32.26,32.26,0,0,0,10,19.45,3.41,3.41,0,0,1-2.27.34q-26.11,0-52.24,0c-1.53,0-2.36-.26-3-1.92a14.3,14.3,0,0,0-8.82-8.63,2,2,0,0,1-1.56-2.26C39.49,209.46,39.46,207.29,39.48,205.13Z"/><path class="cls-6" d="M194.91,178.26c0,5.93-.07,11.85,0,17.77a8.65,8.65,0,0,1-9.24,9.19c-8.08-.3-16.17-.07-24.25-.09-.92,0-2,.36-2.7-.54a31.78,31.78,0,0,0-10.27-26.33Z"/><path class="cls-8" d="M47.2,49.12H187.58c6,0,8.9-2.28,9.74-7.65,3.43,1.32,6.86,2.66,10.3,4a1.68,1.68,0,0,1,1.28,2c-.2,2.45,1,5.64-.52,7.14-1.21,1.18-4.4.39-6.71.39H50.28c-3.17,0-3.18,0-3.17-3.16C47.12,50.88,47.17,50,47.2,49.12Z"/><path class="cls-9" d="M123.66,170c2.51-1.22,5.31-1.53,7.86-2.69,13-5.92,20.71-15.84,23-29.94,1.71-10.69-1.22-20.23-7.45-28.88-.79-1.1-1.76-2.06-2.65-3.08a32.85,32.85,0,0,1,17.66,24.12A34.62,34.62,0,0,1,126,170.43,4.82,4.82,0,0,1,123.66,170Z"/><path class="cls-10" d="M205,139.73c3.28,0,6.57,0,9.85-.09,1.4,0,1.78.52,1.76,1.83-.07,3.93-.09,7.85,0,11.78,0,1.56-.62,1.84-2,1.84q-23.32-.06-46.64,0c-2,0-2.17-.55-1.35-2.2s1.53-3.68,2.28-5.53c1.08-.93,2.4-.74,3.66-.75H198a22.88,22.88,0,0,0,2.87-.07c2.17-.26,3.07-1.18,3.35-3.38C204.39,142,204.1,140.73,205,139.73Z"/><path class="cls-10" d="M87.08,147.37c.74,1.85,1.39,3.74,2.25,5.53s.26,2.21-1.59,2.2c-13.59-.06-27.19,0-40.78,0-1.92,0-3.84-.06-5.76,0-1.33,0-1.89-.37-1.81-1.76.1-2,.06-4,.09-6,.91-.85,2.07-.74,3.18-.74q20.61,0,41.24,0A4.39,4.39,0,0,1,87.08,147.37Z"/><path class="cls-7" d="M87.08,147.37l-47.6,0c0-2,0-4-.09-6,0-1.2.29-1.7,1.6-1.69q21.61.06,43.23,0c1,0,1.68.17,1.83,1.35C86.34,143.13,86.73,145.25,87.08,147.37Z"/><path class="cls-7" d="M205,139.73c.15,7.28-.2,7.63-7.36,7.63H168.92c.35-2.13.74-4.25,1-6.38.15-1.2.86-1.34,1.84-1.34Q188.4,139.71,205,139.73Z"/><path class="cls-8" d="M58.79,78c3.2,0,6.41,0,9.62,0,1.24,0,1.82.16,1.85,1.65.16,6.08.21,6.07-5.83,6.07-5.13,0-10.26-.06-15.38,0-1.63,0-2-.5-2-2C47.07,78,47,78,52.78,78Z"/><path class="cls-8" d="M197.09,85.73c-3.21,0-6.41-.06-9.62,0-1.41,0-1.7-.46-1.72-1.78-.12-6-.16-6,5.7-6,5.13,0,10.26,0,15.38,0,1.43,0,2.11.18,2.11,1.9,0,5.83.08,5.83-5.84,5.83Z"/><path class="cls-7" d="M62.52,105c0,3.28,0,6.57,0,9.86,0,1.18-.28,1.66-1.59,1.72-6.14.3-6.14.35-6.14-5.82,0-5.05.06-10.1,0-15.15,0-1.6.32-2.22,2.08-2.22,5.66,0,5.66,0,5.66,5.59Z"/><path class="cls-7" d="M201.19,105.14c0,3.21-.06,6.42,0,9.62,0,1.32-.34,1.78-1.74,1.82-6,.19-6,.24-6-5.72,0-5.21,0-10.43,0-15.64,0-1.31.34-1.78,1.73-1.82,6-.18,6-.23,6,5.73Z"/><path class="cls-8" d="M58.66,132c-3.21,0-6.42-.1-9.62,0-1.64.07-2-.52-2-2,0-5.71,0-5.71,5.71-5.71,5.13,0,10.26,0,15.39,0,1.44,0,2.1.19,2.1,1.9,0,5.83.08,5.83-5.84,5.83Z"/><path class="cls-8" d="M197.44,132c-3.37,0-6.74-.1-10.1,0-2.13.09-1.8-1.46-1.49-2.37.6-1.77-1.85-5,1.41-5.23,6.7-.46,13.46-.13,20.19-.15.94,0,1.38.18,1.47,1.29.56,6.43.6,6.43-5.71,6.43Z"/><path d="M131.85,120.53c0,3.39,0,6.75,0,10.1,0,1.05.35,1.24,1.33,1.41,6.54,1.1,10.23,5.54,10.24,12.16,0,2.64.22,5.3-1,7.8a11.18,11.18,0,0,1-8.75,6.74c-1.55.24-2.11.7-1.84,2.16.31,1.69-.55,2-2,1.89a14.55,14.55,0,0,0-2.64,0c-2,.19-3.72.06-3.07-2.75.17-.77-.22-1-1-1.17-7.66-1.61-11.11-6.32-10.55-14.08.08-1.12.47-1.35,1.44-1.28.71.06,1.44,0,2.16,0,3.82,0,3.83,0,4.13,3.83a4.52,4.52,0,0,0,.77,2.24c.63.9,1.6,1.7,2.58,1.48s.44-1.49.47-2.26c.1-2.49,0-5,0-7.46,0-1.07-.08-1.59-1.44-1.79-6.32-1-10.12-5.57-10.12-12,0-2.24-.26-4.5.49-6.68a11.24,11.24,0,0,1,9.1-8c1.59-.28,2.29-.67,2-2.3s.51-1.9,1.88-1.76a13.86,13.86,0,0,0,2.88,0c2-.24,3.49,0,3,2.64-.18.88.23,1.13,1.15,1.3,7.37,1.34,11.19,6.65,10.43,14.19-.1,1-.46,1.21-1.32,1.15-.63,0-1.28,0-1.92,0-1.36,0-3,.45-4-.15-1.16-.7-.32-2.49-.48-3.8C135.44,122,134.43,121,131.85,120.53Z"/><path class="cls-11" d="M124.06,120.44v11.38c-2.71-.52-3.66-1.59-3.77-4.13C120.08,122.43,120.59,121.4,124.06,120.44Z"/><path class="cls-11" d="M131.93,151.07V139.82c2.79.43,3.73,1.56,3.77,4.51C135.79,149.46,135.23,150.48,131.93,151.07Z"/></g></svg>