<svg xmlns="http://www.w3.org/2000/svg" viewBox="0 0 256 256"><defs><style>.cls-1,.cls-6{fill:#9756bb;}.cls-1{fill-rule:evenodd;}.cls-2{fill:#fff;}.cls-3{fill:#040305;}.cls-4{fill:#bb7fdf;}.cls-5{fill:#ca96e6;}.cls-7{fill:#d7afec;}</style></defs><g id="Diamante"><path class="cls-1" d="M128,3A125,125,0,1,1,3,128,125,125,0,0,1,128,3Zm0,9.79A115.21,115.21,0,1,1,12.79,128,115.21,115.21,0,0,1,128,12.79Z"/><circle class="cls-2" cx="128" cy="128" r="115.21"/><path class="cls-3" d="M62.77,125.62c-2.05.87-2.71.74-4.08-1q-6.24-7.64-12.43-15.3a6.82,6.82,0,0,1,0-9.1q12.89-16.08,25.84-32.1a7.24,7.24,0,0,1,6-2.76c3.58,0,7.17,0,10.75,0a2.89,2.89,0,0,1,3.28,2.47c-.62,2.13-1.09,2.5-3.34,2.5-3.31,0-6.61,0-9.92,0-1.09,0-1.22.3-.68,1.2C80.44,75.35,82.69,79.17,85,83l9.87,17c6-9.65,11.72-19,17.51-28.37.61-1,.46-1.27-.7-1.26-3.64,0-7.28,0-10.91,0-2.1,0-2.63-.48-3.19-2.51.55-2,1.21-2.48,3.22-2.48H144.9c2,0,2.63.51,3.23,2.48-.39,2.7-2.5,2.58-4.8,2.56,6.14,10,12.11,19.65,18.2,29.51,5.67-9.66,11.21-19.11,16.76-28.55.55-.93.05-1-.67-1h-5.21a2.68,2.68,0,0,1-3-2.51c.54-2,1.19-2.49,3.19-2.51s3.8,0,5.7,0a7.06,7.06,0,0,1,5.67,2.71q12.92,16,25.85,32c.75.93,1.05,2.06,1.71,3v3.58c-7.59,10.52-16.25,20.19-24.25,30.37a2.68,2.68,0,0,1-3.72.82c-1.32-1.71-1.33-2.47,0-4.16q10.17-12.52,20.33-25c.3-.38.9-.66.68-1.43-4.06,0-8.13,0-12.2,0-2.06,0-2.67-.5-3.25-2.47.54-2,1.19-2.53,3.33-2.55,1.68,0,3.37,0,5,0H205c-.28-.44-.38-.62-.5-.78Q193.9,88.39,183.33,75.23c-.82-1-1.12-.69-1.64.21-4.95,8.48-9.94,17-14.9,25.42-.23.4-.67.74-.46,1.43,4.69,0,9.41,0,14.13,0,2,0,2.67.58,3.15,2.55-.53,2-1.16,2.46-3.22,2.47-5,0-10,.06-15,0a2.13,2.13,0,0,0-2.55,1.86c-4.11,14.42-8.35,28.82-12.54,43.22q-4.87,16.78-9.75,33.59c.87.15,1.06-.56,1.4-1q9.42-11.53,18.81-23.11c1.4-1.72,2.07-1.85,4.06-1a2.83,2.83,0,0,1-.1,4q-15.54,19.06-31,38.17c-3.23,4-8.1,3.94-11.31,0q-28.07-34.5-56.1-69c-1.29-1.58-1.3-2.39-.17-4.06,2.14-.93,2.66-.75,4.48,1.5l45.29,55.75a2.5,2.5,0,0,0-.21-1.75q-4.34-14.92-8.67-29.83a4.71,4.71,0,0,1-.2-2.55,4.16,4.16,0,0,1,1.86-1.56c1.78,0,2.67,1,3.12,2.68.78,2.91,1.72,5.78,2.59,8.67a.67.67,0,0,0,.24.71v0a2.7,2.7,0,0,0,0,.49c3.2,11,6.38,22.07,9.62,33.09a8.38,8.38,0,0,0,2.64,3.45,1.57,1.57,0,0,0,2.24,0c1.23-1.2,2.59-2.4,3.14-4.07.95-2.93,1.71-5.93,2.56-8.89.11-.31.25-.61.34-.92q11.27-38.72,22.52-77.43c.57-2,.56-2-1.54-2H109.37c-3.26,0-6.52,0-9.78,0-1.27,0-1.47.35-1.06,1.49.5,1.38.83,2.81,1.22,4.22.56,2,.32,2.65-1.42,3.8-2.09,0-2.69-.41-3.28-2.37s-1.22-4.05-1.79-6.08c-.17-.63-.32-1.07-1.13-1.07-7.5,0-15,.07-22.49.1H51.1c.55.72.9,1.19,1.26,1.64,3.39,4.17,6.74,8.37,10.18,12.5A3,3,0,0,1,62.77,125.62ZM157,102.23c-.2-.43-.28-.63-.39-.81q-9.25-15-18.49-30a1.87,1.87,0,0,0-1.84-1q-8,.06-16,0a2.11,2.11,0,0,0-2.07,1.16q-9,14.77-18.15,29.5c-.21.34-.62.65-.4,1.2Zm-105.82-.11a5.91,5.91,0,0,0,.6.11c12.42,0,24.85,0,37.27.08,1.48,0,1.18-.48.65-1.37-5.08-8.58-10.12-17.18-15.2-25.77-.19-.33-.26-.84-.87-.91Z"/><path class="cls-4" d="M189.13,104.84c.58,2,1.19,2.46,3.25,2.47,4.07,0,8.14,0,12.2,0,.22.77-.38,1-.68,1.43q-10.16,12.54-20.33,25c-1.37,1.69-1.36,2.45,0,4.16a25.19,25.19,0,0,0-3.38,4.31,17,17,0,0,1-2.8-6.13c-.54-2-1.57-3-3.14-2.93s-2.55,1-3,2.89a18.25,18.25,0,0,1-7.32,10.77c-2.41,1.74-2.36,4.07.05,5.86a14.94,14.94,0,0,1,4.2,4.22,32.17,32.17,0,0,0-3.3,4c-2-.9-2.66-.77-4.06,1Q151.37,173.41,142,185c-.34.42-.53,1.13-1.4,1q4.88-16.81,9.75-33.59c4.19-14.4,8.43-28.8,12.54-43.22a2.13,2.13,0,0,1,2.55-1.86c5,.09,10,0,15,0,2.06,0,2.69-.52,3.22-2.47Z"/><path class="cls-5" d="M62.77,125.62a3,3,0,0,0-.23-4.1c-3.44-4.13-6.79-8.33-10.18-12.5-.36-.45-.71-.92-1.26-1.64H69.64a6,6,0,0,0,1,1.49q3.27,3.91,6.48,7.88c3.9,4.82,7.78,9.67,11.68,14.49,4.07,5,8.11,10.1,12.27,15.06,1.91,2.26,3.5,4.81,5.76,6.76a4.71,4.71,0,0,0,.2,2.55q4.35,14.91,8.67,29.83a2.5,2.5,0,0,1,.21,1.75L70.58,131.44c-1.82-2.25-2.34-2.43-4.48-1.5Z"/><path class="cls-4" d="M169.38,67.92a2.68,2.68,0,0,0,3,2.51h5.21c.72,0,1.22,0,.67,1C172.74,80.85,167.2,90.3,161.53,100c-6.09-9.86-12.06-19.55-18.2-29.51,2.3,0,4.41.14,4.8-2.56,2.36-.12,4.74.38,7.07-.27.28.8.58,1.6.84,2.4a2.82,2.82,0,0,0,5.42,0,5.62,5.62,0,0,1,.77-2.09Z"/><path class="cls-4" d="M97.55,67.89c.56,2,1.09,2.49,3.19,2.51,3.63,0,7.27,0,10.91,0,1.16,0,1.31.27.7,1.26C106.56,81,100.79,90.37,94.84,100L85,83q4.35-5.42,8.71-10.84l3.39-4.21Z"/><path class="cls-3" d="M168.13,156.94a14.94,14.94,0,0,0-4.2-4.22c-2.41-1.79-2.46-4.12-.05-5.86a18.25,18.25,0,0,0,7.32-10.77c.46-1.9,1.51-2.85,3-2.89s2.6.92,3.14,2.93a17,17,0,0,0,2.8,6.13,16.53,16.53,0,0,0,4.4,4.5c2.51,1.85,2.57,4.15.07,6a18.52,18.52,0,0,0-7.31,10.8c-.48,1.89-1.53,2.83-3.05,2.82s-2.56-1-3-2.86A16.1,16.1,0,0,0,168.13,156.94Zm6.13-14.67a23.8,23.8,0,0,1-5.44,7c-.37.32-.44.56,0,.9a24.73,24.73,0,0,1,5.5,7.05,24.94,24.94,0,0,1,5.4-7c.28-.25.66-.47.17-.88A24.82,24.82,0,0,1,174.26,142.27Z"/><path class="cls-3" d="M162.23,67.92a5.62,5.62,0,0,0-.77,2.09A2.82,2.82,0,0,1,156,70c-.26-.8-.56-1.6-.84-2.4a9.18,9.18,0,0,0-3.11-3.87c-2.27-1.77-2.3-3.72-.05-5.43a10.35,10.35,0,0,0,3.84-5.66c.53-1.95,1.41-2.72,3-2.66,1.7.07,2.42,1.16,2.79,2.67a9.89,9.89,0,0,0,3.71,5.55c2.41,1.87,2.37,3.7,0,5.63A8,8,0,0,0,162.23,67.92Zm-3.47-9.44a12.5,12.5,0,0,1-1.33,1.58c-.8.7-.68,1.2,0,1.94,1.36,1.43,1.24,1.41,2.58,0,.78-.82.8-1.33-.05-2A12.07,12.07,0,0,1,158.76,58.48Z"/><path class="cls-6" d="M97.07,67.93l-3.39,4.21Q89.32,77.56,85,83c-2.28-3.81-4.53-7.63-6.83-11.42-.54-.9-.41-1.22.68-1.2,3.31,0,6.61,0,9.92,0,2.25,0,2.72-.37,3.34-2.5Z"/><path class="cls-5" d="M98.33,116.8c1.74-1.15,2-1.82,1.42-3.8-.39-1.41-.72-2.84-1.22-4.22-.41-1.14-.21-1.52,1.06-1.49,3.26.07,6.52,0,9.78,0h46.78c2.1,0,2.11,0,1.54,2Q146.44,148,135.17,186.7c-.09.31-.23.61-.34.92a6.9,6.9,0,0,1-.86-.75c-5.29-6.55-10.53-13.15-15.89-19.65-1.07-1.29-1.82-2.94-3.49-3.68v0a.6.6,0,0,0-.24-.71c-.87-2.89-1.81-5.76-2.59-8.67-.45-1.69-1.34-2.65-3.12-2.68a14.77,14.77,0,0,1-1.57-5.13,16.82,16.82,0,0,1,6.75-10.53,3,3,0,0,0-.07-5,15.67,15.67,0,0,1-6.38-9.46,2.71,2.71,0,0,0-2.8-2.26,2.83,2.83,0,0,0-2.93,2.31,13.1,13.1,0,0,1-1.05,3C99.84,121.94,99.09,119.37,98.33,116.8Z"/><path class="cls-7" d="M157,102.23H99.66c-.22-.55.19-.86.4-1.2q9.07-14.76,18.15-29.5a2.11,2.11,0,0,1,2.07-1.16q8,.07,16,0a1.87,1.87,0,0,1,1.84,1q9.22,15,18.49,30.05C156.68,101.6,156.76,101.8,157,102.23Z"/><path class="cls-6" d="M189.13,104.84h-5.52c-.48-2-1.15-2.54-3.15-2.55-4.72,0-9.44,0-14.13,0-.21-.69.23-1,.46-1.43,5-8.47,10-16.94,14.9-25.42.52-.9.82-1.24,1.64-.21q10.53,13.17,21.14,26.28c.12.16.22.34.5.78h-7.46c-1.68,0-3.37,0-5,0C190.32,102.31,189.67,102.81,189.13,104.84Z"/><path class="cls-6" d="M51.14,102.12,73.59,74.26c.61.07.68.58.87.91,5.08,8.59,10.12,17.19,15.2,25.77.53.89.83,1.37-.65,1.37-12.42-.06-24.85-.06-37.27-.08A5.91,5.91,0,0,1,51.14,102.12Z"/><path class="cls-7" d="M107.08,146.37a14.77,14.77,0,0,0,1.57,5.13,4.16,4.16,0,0,0-1.86,1.56c-2.26-1.95-3.85-4.5-5.76-6.76-4.16-5-8.2-10-12.27-15.06-3.9-4.82-7.78-9.67-11.68-14.49q-3.21-4-6.48-7.88a6,6,0,0,1-1-1.49c7.5,0,15,0,22.49-.1.81,0,1,.44,1.13,1.07.57,2,1.18,4.05,1.79,6.08s1.19,2.39,3.28,2.37c.76,2.57,1.51,5.14,2.27,7.7a13.75,13.75,0,0,1-4.81,6c-2.46,1.87-2.49,4,0,5.8a15.21,15.21,0,0,1,5.79,8.56C102.4,148,104.65,148.58,107.08,146.37Z"/><path class="cls-4" d="M114.59,163.54c1.67.74,2.42,2.39,3.49,3.68,5.36,6.5,10.6,13.1,15.89,19.65a6.9,6.9,0,0,0,.86.75c-.85,3-1.61,6-2.56,8.89-.55,1.67-1.91,2.87-3.14,4.07a1.57,1.57,0,0,1-2.24,0,8.38,8.38,0,0,1-2.64-3.45c-3.24-11-6.42-22.06-9.62-33.09A2.7,2.7,0,0,1,114.59,163.54Z"/><path class="cls-4" d="M114.36,162.85a.6.6,0,0,1,.24.71A.67.67,0,0,1,114.36,162.85Z"/><path class="cls-7" d="M174.26,142.27a24.82,24.82,0,0,0,5.59,7.13c.49.41.11.63-.17.88a24.94,24.94,0,0,0-5.4,7,24.73,24.73,0,0,0-5.5-7.05c-.4-.34-.33-.58,0-.9A23.8,23.8,0,0,0,174.26,142.27Z"/><path class="cls-7" d="M158.76,58.48A12.07,12.07,0,0,0,160,60c.85.7.83,1.21.05,2-1.34,1.4-1.22,1.42-2.58,0-.7-.74-.82-1.24,0-1.94A12.5,12.5,0,0,0,158.76,58.48Z"/><path class="cls-3" d="M107.08,146.37c-2.43,2.21-4.68,1.59-5.52-1.53a15.21,15.21,0,0,0-5.79-8.56c-2.47-1.82-2.44-3.93,0-5.8a13.75,13.75,0,0,0,4.81-6,13.1,13.1,0,0,0,1.05-3,2.83,2.83,0,0,1,2.93-2.31,2.71,2.71,0,0,1,2.8,2.26,15.67,15.67,0,0,0,6.38,9.46,3,3,0,0,1,.07,5A16.82,16.82,0,0,0,107.08,146.37ZM104.52,128a22.74,22.74,0,0,1-3.9,4.9c-.36.32-.42.59,0,.92a24.51,24.51,0,0,1,4,5,19.88,19.88,0,0,1,3.81-4.86c.39-.35.51-.63,0-1A23.11,23.11,0,0,1,104.52,128Z"/><path class="cls-7" d="M104.52,128a23.11,23.11,0,0,0,3.9,4.88c.47.4.35.68,0,1a19.88,19.88,0,0,0-3.81,4.86,24.51,24.51,0,0,0-4-5c-.38-.33-.32-.6,0-.92A22.74,22.74,0,0,0,104.52,128Z"/></g></svg>