<svg xmlns="http://www.w3.org/2000/svg" viewBox="0 0 256 256"><defs><style>.cls-1,.cls-7{fill:#4bceeb;}.cls-1{fill-rule:evenodd;}.cls-2{fill:#fff;}.cls-3{fill:#010202;}.cls-4{fill:#040404;}.cls-5{fill:#a8f7f6;}.cls-6{fill:#69e4e9;}</style></defs><g id="Platino"><path class="cls-1" d="M132,6A125,125,0,1,1,7,131,125,125,0,0,1,132,6Zm0,9.79A115.21,115.21,0,1,1,16.79,131,115.21,115.21,0,0,1,132,15.79Z"/><circle class="cls-2" cx="132" cy="131" r="115.21"/><path class="cls-3" d="M44.76,180.41,56,158c1.14-2.28,2.25-4.57,3.42-6.83A12.5,12.5,0,0,1,71.24,144H192.76a12.47,12.47,0,0,1,11.91,7.32q6.78,13.41,13.46,26.88c3.05,6.13-.46,11.81-7.29,11.81q-78.75,0-157.49,0c-4,0-6.85-1.63-8.26-5.48-.05-.14-.22-.23-.33-.34Zm146.94-26.3h8.46a6.88,6.88,0,0,0-5.1-4.77c-2.12-.53-4.28-.25-6.43-.22-.39,0-.79-.06-1.18-.06H104.52c-.31,0-.67-.17-1,.18.64,1.25,1.35,2.47,1.9,3.75a1.79,1.79,0,0,0,2,1.19c6.18,0,12.37,0,18.56,0,2.41,0,3,.43,3.6,2.7-.48,1.84-1.68,2.49-3.54,2.44-3.23-.09-6.47,0-9.71,0h-7.66a32.92,32.92,0,0,1,1.74,3.58c.47,1.31,1.28,1.56,2.58,1.56,16.25-.05,32.49,0,48.73,0a11.49,11.49,0,0,1,10.79,6.18,7.35,7.35,0,0,0,7.08,4.07c7.27-.07,14.54,0,21.81,0h9.16c-.32-.71-.53-1.22-.78-1.71-2-4-4-7.89-5.89-11.88a2.61,2.61,0,0,0-2.8-1.77c-21,.05-42,0-63.05.05-1.85,0-3.06-.6-3.53-2.43.62-2.28,1.18-2.71,3.59-2.71q16.59,0,33.19,0Q181.5,154.16,191.7,154.11ZM205,184.79c2.2,0,4.41.08,6.62,0a2.54,2.54,0,0,0,2.59-2.57,2.36,2.36,0,0,0-2.6-2.52l-6.61.06q-13,0-26.06-.07a11.41,11.41,0,0,1-10.59-6.2,7.22,7.22,0,0,0-6.91-4c-15.33,0-30.66,0-46,0a2.28,2.28,0,0,0-1.54.23c.6,1.2,1.23,2.33,1.74,3.51,1.61,3.71,4.61,7,3.28,11.59h84.71C204.07,184.85,204.53,184.81,205,184.79Zm-123,.06h28.62c3.18,0,4.25-1.67,2.86-4.47-4.4-8.82-8.83-17.62-13.21-26.45A8.09,8.09,0,0,0,92.4,149q-10.4.08-20.79,0a8,8,0,0,0-7.85,4.89c-4.37,8.83-8.82,17.63-13.22,26.45-1.42,2.84-.38,4.46,2.83,4.46Q67.68,184.87,82,184.85Z"/><path class="cls-4" d="M148.75,138.82a8.38,8.38,0,0,1-4.05-1.14c-3.8-2-7.63-4-11.41-6a2.28,2.28,0,0,0-2.48,0c-3.72,2-7.52,3.93-11.25,6-3,1.6-5.87,1.76-8.66-.21s-3.65-4.77-3.07-8.08c.75-4.3,1.45-8.61,2.25-12.91a2,2,0,0,0-.68-2.08c-3.08-2.94-6.09-5.95-9.18-8.88-2.47-2.35-3.64-5.1-2.55-8.44s3.43-4.91,6.79-5.35c4.28-.57,8.53-1.3,12.8-1.85a2.23,2.23,0,0,0,2-1.51c1.83-3.83,3.78-7.6,5.62-11.43,1.46-3,3.74-4.83,7.16-4.84s5.73,1.77,7.19,4.8c1.88,3.87,3.84,7.71,5.7,11.58a2.1,2.1,0,0,0,1.87,1.38c4.44.58,8.87,1.29,13.3,2a7.37,7.37,0,0,1,6.26,5.07,7.26,7.26,0,0,1-1.87,8c-3.12,3.14-6.31,6.22-9.52,9.27a2.54,2.54,0,0,0-.89,2.64c.86,4.51,1.64,9,2.27,13.59A7.54,7.54,0,0,1,148.75,138.82Zm2.37-43.21c-2.3-.35-4.59-.79-6.89-1a3.54,3.54,0,0,1-3.1-2.24c-2.08-4.34-4.25-8.63-6.37-13-.57-1.16-1.18-2.24-2.68-2.27s-2.2,1.12-2.8,2.33c-2.11,4.33-4.29,8.62-6.38,13a3.49,3.49,0,0,1-3,2.18c-4.72.62-9.43,1.33-14.14,2-1.36.2-2.75.37-3.26,2s.5,2.44,1.45,3.36c3.42,3.33,6.81,6.67,10.25,10a3.5,3.5,0,0,1,1.18,3.48c-.89,4.79-1.66,9.6-2.48,14.41-.21,1.26-.34,2.5.88,3.39s2.34.4,3.49-.21c4.25-2.25,8.54-4.44,12.76-6.74a3.73,3.73,0,0,1,4,0c2,1.1,4,2.08,6,3.1,2.49,1.34,4.94,2.75,7.48,4,2,1,3.83-.37,3.68-2.59a16.49,16.49,0,0,0-.27-1.85c-.76-4.48-1.47-9-2.32-13.41a3.64,3.64,0,0,1,1.21-3.64c3.62-3.45,7.17-7,10.75-10.45a2.59,2.59,0,0,0-1.42-4.65C156.5,96.41,153.81,96,151.12,95.61Z"/><path class="cls-5" d="M82,184.85q-14.32,0-28.63,0c-3.21,0-4.25-1.62-2.83-4.46,4.4-8.82,8.85-17.62,13.22-26.45a8,8,0,0,1,7.85-4.89q10.4.06,20.79,0a8.09,8.09,0,0,1,7.87,4.89c4.38,8.83,8.81,17.63,13.21,26.45,1.39,2.8.32,4.47-2.86,4.47Z"/><path class="cls-6" d="M205,184.79c-.45,0-.91.06-1.36.06H118.91c1.33-4.6-1.67-7.88-3.28-11.59-.51-1.18-1.14-2.31-1.74-3.51a2.28,2.28,0,0,1,1.54-.23c15.33,0,30.66,0,46,0a7.22,7.22,0,0,1,6.91,4,11.41,11.41,0,0,0,10.59,6.2q13,.06,26.06.07A8.91,8.91,0,0,1,205,184.79Z"/><path class="cls-7" d="M134.5,156.88c.47,1.83,1.68,2.43,3.53,2.43,21,0,42,0,63.05-.05a2.61,2.61,0,0,1,2.8,1.77c1.89,4,3.92,7.92,5.89,11.88.25.49.46,1,.78,1.71h-9.16c-7.27,0-14.54,0-21.81,0a7.35,7.35,0,0,1-7.08-4.07,11.49,11.49,0,0,0-10.79-6.18c-16.24,0-32.48,0-48.73,0-1.3,0-2.11-.25-2.58-1.56a32.92,32.92,0,0,0-1.74-3.58h7.66c3.24,0,6.48-.07,9.71,0,1.86.05,3.06-.6,3.54-2.44Z"/><path class="cls-6" d="M134.5,156.88h-4.93c-.63-2.27-1.19-2.7-3.6-2.7-6.19,0-12.38,0-18.56,0a1.79,1.79,0,0,1-2-1.19c-.55-1.28-1.26-2.5-1.9-3.75.29-.35.65-.18,1-.18h82.93c.39,0,.79,0,1.18.06,1.31,1.49,2.73,2.91,3.07,5q-10.22,0-20.42.06-16.59,0-33.19,0C135.68,154.17,135.12,154.6,134.5,156.88Z"/><path class="cls-7" d="M205,184.79a8.91,8.91,0,0,0,0-5l6.61-.06a2.36,2.36,0,0,1,2.6,2.52,2.54,2.54,0,0,1-2.59,2.57C209.39,184.87,207.18,184.81,205,184.79Z"/><path class="cls-7" d="M191.7,154.11c-.34-2.08-1.76-3.5-3.07-5,2.15,0,4.31-.31,6.43.22a6.88,6.88,0,0,1,5.1,4.77Z"/><path class="cls-5" d="M140.09,129.36c-2-1-4.06-2-6-3.1a3.73,3.73,0,0,0-4,0c-4.22,2.3-8.51,4.49-12.76,6.74-1.15.61-2.27,1.1-3.49.21s-1.09-2.13-.88-3.39c.82-4.81,1.59-9.62,2.48-14.41a3.5,3.5,0,0,0-1.18-3.48c-3.44-3.31-6.83-6.65-10.25-10-.95-.92-1.94-1.82-1.45-3.36s1.9-1.78,3.26-2c4.71-.69,9.42-1.4,14.14-2a3.49,3.49,0,0,0,3-2.18c2.09-4.33,4.27-8.62,6.38-13,.6-1.21,1.21-2.35,2.8-2.33s2.11,1.11,2.68,2.27c2.12,4.32,4.29,8.61,6.37,13a3.54,3.54,0,0,0,3.1,2.24c2.3.24,4.59.68,6.89,1a4.94,4.94,0,0,1-1.46,5.68c-2.89,2.8-5.69,5.69-8.57,8.49a2.49,2.49,0,0,0-.82,2.42c.69,3.94,1.31,7.89,2,11.81A4.74,4.74,0,0,1,140.09,129.36Z"/><path class="cls-6" d="M140.09,129.36a4.74,4.74,0,0,0,2.23-5.35c-.74-3.92-1.36-7.87-2-11.81a2.49,2.49,0,0,1,.82-2.42c2.88-2.8,5.68-5.69,8.57-8.49a4.94,4.94,0,0,0,1.46-5.68c2.69.39,5.38.8,8.08,1.16a2.59,2.59,0,0,1,1.42,4.65c-3.58,3.49-7.13,7-10.75,10.45a3.64,3.64,0,0,0-1.21,3.64c.85,4.45,1.56,8.93,2.32,13.41a16.49,16.49,0,0,1,.27,1.85c.15,2.22-1.67,3.57-3.68,2.59C145,132.11,142.58,130.7,140.09,129.36Z"/></g></svg>