<svg xmlns="http://www.w3.org/2000/svg" viewBox="0 0 256 256"><defs><style>.cls-1{fill:#8d6e63;}.cls-1,.cls-10,.cls-11,.cls-12,.cls-13,.cls-14,.cls-2,.cls-3,.cls-4,.cls-5,.cls-6,.cls-7,.cls-8{fill-rule:evenodd;}.cls-3{fill:#eeceb2;}.cls-4{fill:#fdc728;}.cls-5{fill:#fef8c3;}.cls-6{fill:#26a599;}.cls-7{fill:#322824;}.cls-8{fill:#e3e9eb;}.cls-10,.cls-9{fill:#fff;}.cls-11{fill:#e7e7e7;}.cls-12{fill:#ccc;}.cls-13{fill:#b2b2b2;}.cls-14{fill:#989898;}</style></defs><g id="Banco"><g id="Capa_1"><path class="cls-1" d="M67.2,158.79c4.64-2.18,4.35,4.35,4.35,7.54,0,3,1.16,9.43-1.88,10.59-4.94,1.88-4.36-4.36-4.36-7.55,0-3.62-1-9.28,2-10.58Zm69.91-47.87h-6.38c-1.3,3.34-6.09,11.17-8.27,11.75.87,1.45-1.59.58,2,1H131c.44-3.19,3.92-2.9,6.67-1.74,8.13,3.77,7,15.52-1.45,17.55-3.33.87-15.52.29-19.87.29-7.54,0-56.57.44-59.76-.29-8.41-2-9.72-14.07-1.16-17.69,2.9-1.16,6.09-1.16,6.38,1.88,2.76,0,6,.44,8.56-.29-.87-1.16-1.6-1.59-2.61-2.75-.58-.73-1.6-2-2.18-2.9-1-1.31-3-5.66-3.77-6.53l-5.94-.15c-.15,3.63-1.6,3.92-5.08,3.92H24.7v43.66H46.46c13.34,0,12.47-1.31,12.47,9.43,0,2.9.87,8-1.88,9-1.6.58-29.45.29-32.5.29v6.24H161.92V115H147.41c-6.82,0-10.44,1.16-10.44-3.92Z"/><path class="cls-2" d="M93.74,77.41A18.71,18.71,0,1,1,78.08,98.88C76.34,87.42,84.32,79,93.74,77.41ZM99.26,71c-8,.58-11.32.15-17.27,4.64-16.24,12.19-12.47,34.67,3.2,42.65,21.32,10.59,43.95-11.9,33.79-32.93-2-4.06-3.77-5.08-4.49-7l4.64-3.63c4.2,3,8,12.77,8.55,19,1.75,23.36-22.48,41.78-46,29.74-19-9.72-23.2-38.87-2.75-53.23,6-4.21,13.49-5.81,22.48-5.08a24.39,24.39,0,0,0-1.3,2.75,25,25,0,0,0-.73,3.2ZM83.59,52.75c0-6.81,6-12.9,12.47-12.9A12.84,12.84,0,0,1,109,52.75c0,3.49-1.45,4.65-1.88,7A15.61,15.61,0,0,1,103,59a47.09,47.09,0,0,0-12.77-.14,22.7,22.7,0,0,1-4.35.72c-.87-1.59-2.32-4.64-2.32-7ZM58.21,46.81c-3.48,0-20.46-.73-23.36-2.32-2.17-1.16-1.74-4.93.44-5.52,1.16-.29,12.76,1.31,15.23,1.46a128.73,128.73,0,0,0,16.68-.15L65,46.52c-1.59.72-4.93.43-7,.43ZM74.6,65.23c-6.39-6.82-5.08-27.42,10.15-35.1,7.54-3.77,14.36-2.76,23.35-2.76h25.82V54.79c-11.89-2-10.88-4.36-13.2,4.35-2.32,8.41-9.28,15.08-11.75,15.08s-5.36-3.19-2-5.8c4.93-3.77,9-10.15,8-18.13-2.47-19-28.72-23.06-36.41-5.08-3.62,8.56,0,13.2,1,17.41-2.18.58-3.34,2-5.22,2.75ZM57.77,30.13c-2.61-.87-11.17-3.34-7.54-7.55,1.74-2,4.06-.58,6.09.29,7.83,3.49,10.73,3.49,19,5.37v.29c-.14,1-3.33,4.21-4.35,5.08-3.77-.15-9.86-2.32-13.34-3.48ZM140.16,57V20.41l20.89-4.93L149.3,62.33l-7.4-2.47C140,59.28,140,59.57,140.16,57Zm-78.47,54.1c.87.87,2.9,5.23,3.77,6.53.58.87,1.59,2.18,2.17,2.9,1,1.16,1.89,1.74,2.62,2.76l4.35,3.48c3.91,2.9,13.2,6.82,17.26,6.53-7.84.72-18,.14-26,.14-3.48,0-10.15,1.31-10.15-3,0-4.79,7.11-1.6,5.95-6.82-.44-3.05-3.63-3.05-6.38-1.89a9.35,9.35,0,0,0,1.16,17.7c3,.72,52.21.29,59.76.29,4.35,0,16.53.58,19.87-.29,8.41-2,9.72-13.78,1.45-17.55-2.76-1.31-6.24-1.45-6.67,1.74-1.16,5.22,5.51,2,5.94,6.53s-6.23,3.48-9.72,3.48c-8.26,0-18.42.58-26.39-.15,5.65,0,16.39-4.78,20.3-9.28l1.31-1.45c2-.58,7-8.41,8.27-11.75,3.48-5.37,3.77-16.39,2.17-23.21A39.55,39.55,0,0,0,129,77.85c-1.16-2.18-4.35-6.82-6.09-8,1.16-2.18,3.77-6.67,3.91-9.72,2.62,0,4.5.73,6.68,1.16.29,4.21,5.51,4.5,12.47,6.67,10.15,3.2,7.54,4.36,13.78-20.59l7.54-30.75c3.05-13.35-1.59-8.42-22.62-3.77-10.88,2.32-11.17,1.88-11.17,8.41-9,0-38.3-.87-45.69,1.16-8.42,2.32-23.94-2.9-31.19-6.24a9.52,9.52,0,0,0-6.67-.43,9.18,9.18,0,0,0-6.53,9,9.1,9.1,0,0,0,3.92,7.83L49.79,34c-7.1,0-13.34-2.9-18-.43-6.53,3.62-7.4,15.81,4.06,17.84a166.8,166.8,0,0,0,24.08,2c2.32,0,3-.44,5.07-.44,0,5.37,1,8.42,2.76,12.77.58,1.45,1.16,2.17,1.89,3.63-1,1.59-1.75,2.17-2.91,3.77A38,38,0,0,0,60,87.42c-2.18,8.41-.58,16.68,2,23.64Z"/><path class="cls-2" d="M24.7,164.59H52.84v6.23H25.14Zm112.41-53.82c.15,5.08,3.63,3.92,10.45,3.92h14.5V183.3H24.7v-6.24c2.9,0,30.9.29,32.49-.29,2.76-1.16,1.89-6.09,1.89-9,0-10.74.87-9.43-12.48-9.43H24.85V114.69H51c3.49,0,4.94-.14,5.08-3.92-.43-1.74-1.3-2.32-3.48-2.32H22.38c-4.93,0-3.92,2.76-3.92,8.27v48.45c0,27.56-3,24.51,11.32,24.51,44,0,88.77-.29,132.72,0,7.54,0,5.8-.58,5.8-18.28,0-6.38.43-56.56,0-60.05-.44-3.77-4.64-2.75-9.43-2.75h-12c-5.08,0-9-.87-9.72,2.32Z"/><path class="cls-3" d="M74.6,65.23c1.88-.73,3-2,5.22-2.76-1.16-4.2-4.79-8.85-1-17.4,7.69-18,33.94-14.07,36.41,5.07a19.45,19.45,0,0,1-8,18.13c-3.33,2.47-.72,5.81,2,5.81,2.47,0,9.43-6.68,11.75-15.09,2.32-8.7,1.31-6.38,13.2-4.35V27.23H108.39c-9,0-16-1-23.35,2.75C69.81,37.67,68.5,58.27,74.89,65.08Z"/><path class="cls-4" d="M99.26,71c.43-1,.29-2,.72-3.19s.87-1.74,1.31-2.76c-9-.72-16.54.87-22.49,5.08-20.45,14.22-16.24,43.52,2.76,53.23,23.5,12,47.72-6.38,46-29.73-.44-6.38-4.21-16-8.56-19l-4.64,3.62c.87,1.89,2.47,2.76,4.5,7C129,106.42,106.36,128.91,85,118.17c-15.66-7.83-19.44-30.46-3.19-42.64,6-4.5,9.28-3.92,17.26-4.64Z"/><path class="cls-5" d="M99.26,99.46c-3.63-1.16-6.53.73-9.58-2.47-1.88-2-3.48-4.93-2-8.55,1.74-4.5,4.64-3.19,5.95-5.81.72-1.3,1.45-2.46,3.62-2,1.89.44,1.89,1.89,2.91,3.05,8.84,0,5.22,5.08,4.64,5.51-2.18,1.74-8.27.15-11,1l-.14,1.88c2.46,2,6.09-.58,10,2.47a8,8,0,0,1,2.61,9c-1.6,4.21-5.22,4.64-6,5.08-1.45.87-1,3.77-4.5,3a2.41,2.41,0,0,1-1.88-1.3l-1-1.74c-2,0-4.35.43-5.36-1.6a3.11,3.11,0,0,1,1.74-4.49C92.87,101.35,100.71,104.39,99.26,99.46Zm-5.66-22c-9.43,1.6-17.41,10-15.67,21.47A18.72,18.72,0,1,0,93.6,77.41Z"/><path class="cls-6" d="M140.16,57.83c0,1.6.29,1.45,1.88,2l7.4,2.47,11.75-46.85L140.3,20.41V58Z"/><path class="cls-2" d="M99.26,99.46c1.3,4.93-6.39,1.74-10,3.05A3.3,3.3,0,0,0,87.51,107c1,1.89,3.33,1.6,5.36,1.6l1,1.74a3,3,0,0,0,1.88,1.3c3.49.58,3-2.32,4.5-3,.73-.44,4.35-.87,6-5.08a8,8,0,0,0-2.61-9c-3.92-3-7.55-.44-10-2.47l.14-1.88c2.9-1,8.85.58,11-1,.58-.43,4.06-5.51-4.64-5.51-1-1.16-1-2.61-2.91-3.05-2.17-.43-2.9.73-3.62,2-1.31,2.62-4.06,1.31-5.95,5.81a7.41,7.41,0,0,0,2,8.55C92.87,100.19,95.63,98.3,99.26,99.46Z"/><path class="cls-7" d="M131.17,123.54h-6.53c-3.63-.44-1.16.43-2-1L121.3,124c-3.91,4.5-14.79,9.29-20.3,9.29,8,.72,18.27.14,26.39.14,3.49,0,10.16,1.16,9.72-3.48s-7.1-1.16-5.94-6.53Z"/><path class="cls-7" d="M70.39,123.25c-2.61.72-5.8.29-8.56.29,1.16,5.22-5.94,2.17-5.94,6.82,0,4.35,6.67,3,10.15,3,8.12,0,18.28.58,26-.14-4.06.43-13.34-3.63-17.26-6.53Z"/><path class="cls-3" d="M58.21,46.81c2,0,5.36.29,7-.44l2.17-6.23a127,127,0,0,1-16.68.14c-2.46-.14-14.07-1.89-15.23-1.45-2.17.58-2.75,4.35-.43,5.51,2.9,1.6,19.87,2.32,23.35,2.32Z"/><polygon class="cls-8" points="25.14 170.82 52.84 170.82 52.84 164.59 24.7 164.59 25.14 170.82"/><path class="cls-3" d="M71.12,33.61c1-.87,4.2-4.06,4.35-5.08v-.29c-8.13-1.88-11-2-19-5.37-2-.87-4.36-2.32-6.1-.29-3.62,4.21,4.94,6.53,7.55,7.55,3.33,1.16,9.57,3.33,13.34,3.48Z"/><path class="cls-2" d="M67.2,158.79c-3,1.45-1.89,7.1-2,10.58,0,3-.58,9.43,4.35,7.55,3-1.16,1.89-7.55,1.89-10.59,0-3.19.29-9.72-4.36-7.54Z"/><circle class="cls-9" cx="146.11" cy="53.04" r="3.63"/></g><path class="cls-10" d="M174.93,162.06a16.36,16.36,0,1,1-16.36,16.36,16.35,16.35,0,0,1,16.36-16.36"/><path class="cls-2" d="M184.75,233.87c-.09,7.39-1.56,6.14-11.3,6.14-8.22,0-12.43,1.45-12.5-4.61-.12-9.79,1.27-7.47-6.78-10.75-7.1-2.89-5.87-4.7-11.2.66-4.77,4.81-5.13,5.21-10.09.22L124.34,217c-1.59-1.58-3.09-3.54-.64-6,6.08-6,7-5.58,4.43-10.72a46.2,46.2,0,0,1-2.41-5.93c-1-3-1.16-3.88-4.74-3.92-2.31,0-6.44.59-8.17-.67-2.37-1.72-1.37-11.94-1.37-15.65,0-9.78,1.56-6.95,10-7.46,3.12-.18,3.35-1.88,4.21-4.55a47.52,47.52,0,0,1,2.4-5.94c2.77-5.65.24-4.68-4.63-10.29-2.9-3.35,1.27-5.93,5.45-10.12,2.87-2.88,6.85-8,9.6-7.58,3.93.6,4.35,7.63,10.85,5.94.83-1.31,5-2.62,6.72-3.28,3.28-1.23,4.9-.92,5-5,.05-2.67-1-7,1.69-8.29,1.4-.69,7.45-.43,9.53-.43,11.8,0,12.57-1.42,12.53,7.46,0,6.84,1.33,3.43,11.26,8.66,7.43,3.92,7.63-6.84,13.11-4.86,1.3.47,8.73,8.27,10.28,9.82,5.82,5.8,4.88,5.83-.62,11.26-3.52,3.46-.64,4.13,2.7,14.15,1.25,3.76,3.1,3.08,7,3,3.68,0,5.69.26,5.84,4.12,1,26.52-1.66,18.06-10.3,19.79-2.66.53-2.88,3.46-3.9,6-3.22,8.13-5.75,6.78.45,12.93,1.47,1.47,4,3.13,2,6.19a54.38,54.38,0,0,1-4.94,5.07c-10.68,10.69-8.64,10.36-16.33,3-2.54-2.43-3.54-1.68-6.65-.13-9.65,4.81-10,.62-9.88,10.21M166,246.31c4.83,0,16.23.73,19.83-1.08,4.41-2.21,5.31-5.75,5.23-10.3-.06-3.18-.56-2.93,2-3.6l4.58-2,2,1.86,5.32,4c3.07-.24,3.55.68,6.85-.65,3-1.31,8.15-7.28,10.43-9.55,5.08-5.08,7.24-5.61,7.48-12.43l-2.86-5.85-2.91-2.87,3-7c16.13,0,13.69-7.93,13.69-22.33l0-6.56c-1.41-2.93-1.43-4.17-4.33-6.08s-4.8-1.41-9-1.41a32.77,32.77,0,0,0-2.92-7.08c2.7-4,5.42-3.7,5.42-10.42,0-4.93-6.06-9.6-8.86-12.39-3-3-7.36-8.86-12.81-8.86-6,0-6.23,3.18-9.58,5.42-2.33-.54-4.35-2.27-7.08-2.5,0-4.39-.07-6.52-1.82-9.42a9.14,9.14,0,0,0-7.34-4.33H163.45c-3.27,0-5.69,2.15-7.16,4.09-2,2.67-1.59,5.27-1.59,9.66a36.8,36.8,0,0,0-7.08,2.92c-1.87-2.79-5.87-5.84-9.58-5.84-6,0-9.77,5.4-13,8.65-3,3.05-9.06,7.54-9.06,13,0,6.5,5.83,9.41,5.83,10.41,0,.85-2.09,5.9-2.5,6.67-4.28,0-7.09-.48-9.83,1.41-2.07,1.42-4.33,4.06-4.33,7.33v18.75a9.2,9.2,0,0,0,4.26,7.4c2.65,1.88,6,1.77,10.32,1.77a33.73,33.73,0,0,1,2.5,6.24c-2.68,4-6.25,4-6.25,10.84,0,4.93,6.06,9.59,8.85,12.39,4.38,4.38,6.9,8.85,13.65,8.85,5.15,0,7-4.28,10-6.25a29.45,29.45,0,0,0,6.25,2.5c0,6.4-.93,9.64,4.58,13.33Z"/><path class="cls-11" d="M149.28,134.13c-23.55,26.14-20.64,64.58,6.24,87.09,6.44,5.38,18,11.42,29.23,12.65-.08-9.59.23-5.41,9.88-10.21,3.11-1.55,4.11-2.3,6.65.13,7.69,7.36,5.65,7.69,16.33-3a53.25,53.25,0,0,0,4.94-5.08c2-3.05-.55-4.71-2-6.17-6.19-6.16-3.67-4.81-.45-12.94,1-2.58,1.24-5.52,3.9-6,8.64-1.72,11.33,6.74,10.3-19.78-.15-3.86-2.16-4.15-5.84-4.12-3.88,0-5.73.72-7-3-3.34-10-6.22-10.69-2.7-14.15,5.5-5.42,6.44-5.46.62-11.26-1.55-1.55-9-9.34-10.28-9.82-5.48-2-5.68,8.78-13.11,4.86-9.93-5.23-11.29-1.82-11.26-8.66,0-8.88-.73-7.46-12.53-7.46-2.08,0-8.13-.26-9.53.43-2.68,1.32-1.63,5.62-1.69,8.29-.08,4.09-1.7,3.78-5,5-1.76.66-5.89,2-6.72,3.28m42.27,17.57a7.78,7.78,0,0,0,2.24,2.09,9.91,9.91,0,0,1,1.4,1.11c.88.94.41.29.92,1.39,3.08-1.56,4-.86,5.5,1.35a38,38,0,0,1,3.3,5.43,36.47,36.47,0,0,1,3.45,14c.49,11.49-4,19.12-9.11,25.41a36.39,36.39,0,0,1-9.91,7.6c-13.59,6.91-28.83,4.75-39.27-4.2-22.86-19.58-13.43-56.52,16.15-62.23a35.94,35.94,0,0,1,15.57.54,38.17,38.17,0,0,1,6.45,2.3C191.1,147.77,191.49,148.21,191.55,151.7Z"/><path class="cls-12" d="M184.75,233.87c-11.27-1.23-22.79-7.27-29.23-12.65-26.88-22.51-29.79-60.95-6.24-87.09-6.5,1.69-6.92-5.34-10.85-5.94-2.75-.42-6.73,4.7-9.6,7.58-4.19,4.2-8.35,6.77-5.45,10.12,4.87,5.61,7.4,4.64,4.63,10.29a46.91,46.91,0,0,0-2.4,5.94c-.86,2.67-1.09,4.36-4.21,4.55-8.41.51-10-2.32-10,7.46,0,3.71-1,13.93,1.36,15.65,1.74,1.26,5.87.63,8.18.67,3.58,0,3.72.9,4.74,3.92a45.62,45.62,0,0,0,2.41,5.93c2.57,5.14,1.65,4.69-4.43,10.72-2.46,2.43-1,4.39.64,6l8.54,8.54c5,5,5.32,4.59,10.09-.22,5.33-5.37,4.1-3.55,11.2-.66,8.05,3.28,6.66,1,6.78,10.75.07,6.06,4.28,4.61,12.5,4.61,9.74,0,11.22,1.25,11.3-6.14"/><path class="cls-2" d="M196.11,156.29c-2.43,3.91,2,5.25,4.63,13.47a30.41,30.41,0,0,1,.12,17.2,28.72,28.72,0,0,1-7.54,12.46c-2,2-8.51,7.25-12.81,7.06l-2.55.91a29.56,29.56,0,0,1-20.5-3.94c-13.54-8.68-17.87-26-10-39.47,3-5.07,9.32-11.69,16.39-13.11,2.91-1.88,10.93-1.74,14.73-1a29.52,29.52,0,0,1,6.6,2.13c4.28,2,3.44,1.53,6.36-.29-.06-3.49-.45-3.93-3.31-5.25a38.17,38.17,0,0,0-6.45-2.3,35.94,35.94,0,0,0-15.57-.54c-29.58,5.71-39,42.65-16.15,62.23,10.44,8.95,25.68,11.11,39.27,4.2a36.39,36.39,0,0,0,9.91-7.6c5.09-6.29,9.6-13.92,9.11-25.41a36.47,36.47,0,0,0-3.45-14,38,38,0,0,0-3.3-5.43c-1.54-2.21-2.42-2.91-5.5-1.35"/><path class="cls-13" d="M163.86,150.87c-3,3.51-5,5.09-7.38,10.06-.69,1.42-4.78,12.67-2.62,13.41,2.32-8,8-14.51,17.52-15.16,20.72-1.42,28.49,25.48,11.76,35.88-12.9,8-23.58-2.41-24.25-2.6-.65.28-.8-.51.14,1l3.24,3.94a32.66,32.66,0,0,0,4.91,4.25c2.92,2.08,8.89,5.34,13.33,4.84,4.3.19,10.77-5.08,12.81-7.06A28.72,28.72,0,0,0,200.86,187a30.41,30.41,0,0,0-.12-17.2c-2.58-8.22-7.06-9.56-4.63-13.47-.51-1.1,0-.45-.92-1.39a9.91,9.91,0,0,0-1.4-1.11,7.78,7.78,0,0,1-2.24-2.09c-2.92,1.82-2.08,2.26-6.36.29a29.52,29.52,0,0,0-6.6-2.13c-3.8-.73-11.82-.87-14.73,1"/><path class="cls-2" d="M153.86,174.34c-.51,3.95-.76,6.66.59,10.46s2.8,4.91,4.44,7.66c.67.19,11.35,10.63,24.25,2.6,16.73-10.4,9-37.3-11.76-35.88-9.48.65-15.2,7.2-17.52,15.16m32.09,4c0,7.17-5.79,13.33-12.92,13.33a13,13,0,0,1-8.47-23C172.88,161.22,186,168,186,178.3Z"/><path class="cls-14" d="M180.51,206.48c-4.44.5-10.41-2.76-13.33-4.84a32.66,32.66,0,0,1-4.91-4.25L159,193.45c-.94-1.5-.79-.71-.14-1-1.64-2.75-3-3.76-4.44-7.66s-1.1-6.51-.59-10.46c-2.16-.74,1.93-12,2.62-13.41,2.41-5,4.37-6.55,7.38-10.06-7.07,1.42-13.43,8-16.39,13.11-7.88,13.45-3.55,30.79,10,39.47a29.56,29.56,0,0,0,20.5,3.94Z"/></g></svg>