<svg xmlns="http://www.w3.org/2000/svg" viewBox="0 0 256 256"><defs><style>.cls-1{fill:#b66c6c;}.cls-2{fill:#feba97;}.cls-3{fill:#fee1e1;}.cls-4{fill:#fecece;}.cls-5{fill:#796d83;}.cls-6{fill:#feeeed;}.cls-7{fill:#c88484;}.cls-8{fill:#955959;}.cls-9{fill:#fea980;}.cls-10{fill:#fec9a5;}.cls-11{fill:#867f8d;}.cls-12{fill:#786d83;}.cls-13{fill:#fea97f;}.cls-14{fill:#86808d;}.cls-15{fill:#fff;}.cls-15,.cls-16,.cls-17,.cls-18,.cls-19,.cls-20{fill-rule:evenodd;}.cls-17{fill:#e7e7e7;}.cls-18{fill:#ccc;}.cls-19{fill:#b2b2b2;}.cls-20{fill:#989898;}</style></defs><g id="Roles"><path d="M73.7,178.7c8.08-5.06,13-12,14.75-21.06.18-.92.63-1.15,1.35-1.38a2.89,2.89,0,0,0,2.25-2.68c0-8.52.89-17.11-.32-25.54-1.75-12.22-11.1-20.33-23.48-21a171.84,171.84,0,0,0-21.41.07c-12.4.89-22.68,12.26-22.55,24.73A13.53,13.53,0,0,0,27,140.42a3.7,3.7,0,0,1,.64,2.64c0,5.67-.59,11.38,1,16.95a17.39,17.39,0,0,0,1.19,3.5c.79,1.52.13,1.94-1.21,2.34a6.65,6.65,0,0,1-6-1.16,12.31,12.31,0,0,1-3.06-3.09c-1.06-1.51-2.39-2.39-4.27-1.87s-2.44,2-2.64,3.64c-1.31,11.1,1.75,20.47,11,27.26,1.27.92,1.54,1.36.53,2.74a40.15,40.15,0,0,0-7.87,24.29c0,5.75,3.52,9.28,9.26,9.28q32.69,0,65.37,0c5.77,0,9.55-3.75,9.27-9.51-.84-17.54-9-30.32-25-38Z"/><path d="M139.85,83.72c-12.21,5.64-20.15,14.55-23.44,27.4a37.56,37.56,0,0,0-1.16,9.73,8.21,8.21,0,0,0,7.39,8.32,17.69,17.69,0,0,0,2.18.11q30.06,0,60.11,0c2.88,0,5.49-.53,7.52-2.78a8.6,8.6,0,0,0,2.11-6.45q-1.06-25-23.65-35.82c-.27-.13-.51-.28-.77-.43.16-.65.79-.8,1.24-1.11A29,29,0,0,0,183.8,62c.14-1,.29-1.62,1.44-1.94a3.16,3.16,0,0,0,2.33-3.32c0-8.82.41-17.65-.2-26.44-.75-10.74-9.82-19.79-21.31-20.84a104.23,104.23,0,0,0-22.68.15c-11.69,1.49-20,10.9-20.57,22.74C122.65,36,122,39.91,124.2,43c1.9,2.64,1.89,5.17,1.73,8.11a51.79,51.79,0,0,0,.57,13.5A28.87,28.87,0,0,0,138,82.33Z"/><path d="M127.57,195.57a42.43,42.43,0,0,0,17.89-7.18c12.62-8.89,19.23-21.11,19.89-36.54.13-2.89,1.44-4.55,3.65-4.44s3.37,1.78,3.35,4.52c-.11,23.51-17.22,44.54-40.66,50-.41.09-.89,0-1.27.68,2,1.37,4,2.74,6,4.13,2.27,1.58,2.81,3.52,1.51,5.34s-3.25,1.9-5.39.45q-7-4.68-13.92-9.43c-2.6-1.78-2.87-3.53-1-6.06q5-6.73,10.14-13.42c1.54-2,3.61-2.48,5.27-1.26s1.84,3.37.34,5.41C131.63,190.22,129.77,192.64,127.57,195.57Z"/><path d="M89.13,44A42.19,42.19,0,0,0,72,50C58.47,58.47,51.16,70.74,50,86.67c-.21,2.8-1.43,4.29-3.63,4.22S42.88,89.14,43,86.22c.94-24,19-44.31,43.88-49-2-1.47-3.71-2.72-5.42-3.95-3-2.19-3.72-4.08-2.21-6.05s3.3-1.82,6.29.36c4.18,3,8.38,6.06,12.55,9.11,2.72,2,2.94,3.74.81,6.41-3.5,4.38-7,8.77-10.56,13.1-2,2.44-5.32,2-6.3-.72a3.77,3.77,0,0,1,1-3.82C85,49.24,86.91,46.81,89.13,44Z"/><path class="cls-1" d="M48,144.77c-1.26-2.2-2.95-4.14-3.69-6.64-.5-1.7-.68-3.35.77-4.63s3-1,4.62-.16a276.06,276.06,0,0,0,26.37,11.9c.8.31,1.64.55,2.46.82a1.44,1.44,0,0,0,.53-1.15c-.06-6,.65-11.94-.51-17.86a21.19,21.19,0,0,0-6.4-11.19,9.79,9.79,0,0,0-2.78-1.68,125.11,125.11,0,0,0-22.32,0c-2.77,1.13-4.47,3.37-6,5.77a22.06,22.06,0,0,0-3.19,15,8.88,8.88,0,0,0,2.61,4.93,31.65,31.65,0,0,0,6.15,4.83A1.1,1.1,0,0,0,48,144.77Z"/><path class="cls-2" d="M54.9,175.4a12.32,12.32,0,0,0,6.57,0c6.71-3.75,10.54-9.65,12.32-16.93.49-2,1.53-4.17.36-6.35l-14.92-6.35-.14.21,2.75,2.35c1.31,1.12,2.08,2.43,1.4,4.2s-2,2.25-3.79,2.3c-5.84.15-11.35-1.26-16.79-3.15-.85.92-.65,2.07-.54,3.1A26.44,26.44,0,0,0,54.9,175.4Z"/><path class="cls-3" d="M68.37,186.28a7.56,7.56,0,0,0-1.27,6.51c1.87,8.49,3.52,17,5.22,25.56.19.93.29,1.63,1.53,1.62,5.88,0,11.77,0,17.65,0a1.05,1.05,0,0,0,.94-.43c-1.29-1-2.8-.53-4.21-.53s-2.1-.49-2.22-2a51.1,51.1,0,0,0-2.47-12.57c-2.46-7.12-7-12.65-12.69-17.36C70.18,186.53,69.48,185.67,68.37,186.28Z"/><path class="cls-3" d="M43.86,219.12q2.76-14.12,5.55-28.23c.37-1.85-.75-3.15-1.45-4.61-1.19-.38-1.94.45-2.7,1.06a38.76,38.76,0,0,0-13.67,21.77,30.39,30.39,0,0,0-.91,8.66c.07,1.41.53,2.08,2.1,2,3.13-.11,6.26,0,9.39,0C42.8,219.75,43.53,220,43.86,219.12Z"/><path class="cls-4" d="M43.86,219.12c-3.88.91-7.81.27-11.72.37-1.07,0-.8-1-.86-1.69a27.48,27.48,0,0,1,1-9.26A38.82,38.82,0,0,1,46.61,187a10.22,10.22,0,0,1,1.35-.72c-.14-1.54-.9-1.67-2.2-1.13q-18.27,7.57-21.94,27a33.41,33.41,0,0,0-.48,5.65c0,1.46.62,2.17,2.07,2.17l17.24,0C43.25,220,43.87,220,43.86,219.12Z"/><path class="cls-5" d="M58.15,220c1.9,0,3.79,0,5.68,0,1.24,0,1.68-.31,1.4-1.67-1.63-7.79-3.19-15.59-4.73-23.4-.3-1.48-.86-2.18-2.56-2.11s-2,.88-2.22,2.27c-1.43,7.68-2.92,15.35-4.52,23-.33,1.54,0,2,1.49,1.93C54.51,219.93,56.33,220,58.15,220Z"/><path class="cls-6" d="M68.37,186.28C72,188,74.52,191.1,77.05,194c4.48,5.18,6.68,11.48,7.93,18.13a30.15,30.15,0,0,1,.48,5.61c0,1.51.62,1.86,2,1.79,1.67-.08,3.35,0,5,0,.93-.43.81-1.27.81-2.06a35.26,35.26,0,0,0-22.51-32.35C69.39,184.62,68.55,184.65,68.37,186.28Z"/><path class="cls-7" d="M69.35,114.18a32.1,32.1,0,0,1,6,6.54,20.81,20.81,0,0,1,3.15,10.71c.12,4.87,0,9.76,0,14.63a36,36,0,0,0,5.3,2c.78.29,1.32.21,1.29-.77-.22-6.53.78-13.13-.52-19.59C83.09,120.27,76.32,114.53,69.35,114.18Z"/><path class="cls-8" d="M42.75,178.77c-3-2.29-6-4.17-8.06-7.06a.79.79,0,0,0-1.11-.32c-4.63,2.27-9.27,2.53-14.1-.37,1.12,6.49,3.86,11.44,9.3,14.66.74.44,1.43.91,2.35.15A45.08,45.08,0,0,1,42.75,178.77Z"/><path class="cls-9" d="M54.9,175.4c-1.35-1.29-2.71-2.56-4.06-3.86a25,25,0,0,1-8.18-19.81l-7.89-4.27c-.27,4.52-.24,8.82,1.34,13C39.12,168.5,47.35,175.08,54.9,175.4Z"/><path class="cls-8" d="M48,144.77c-3.49-1.84-6.84-4-8.76-7.49-1.75-3.19-1.32-6.85-.55-10.23a19.29,19.29,0,0,1,7.83-12.18c.23-.15.35-.45.53-.68a15.75,15.75,0,0,0-12.81,8.18c-2.13,3.58-3.75,7.36-2.55,11.75.75,2.75,3,4.16,5,5.78a31.93,31.93,0,0,0,12.68,6.51A2.81,2.81,0,0,0,48,144.77Z"/><path class="cls-10" d="M74.15,152.17C73.74,161.49,70,169,62.31,174.5a1.9,1.9,0,0,0-.84.95c8.49-.4,17.31-8,19.64-17.06.17-.63.29-1.27.45-1.91a1.69,1.69,0,0,0-1.43-2.36C78.11,153.6,76.14,152.83,74.15,152.17Z"/><path class="cls-11" d="M58.14,182.83a14.6,14.6,0,0,0-1.75,0c-.6.07-1.55-.34-1.69.47a3,3,0,0,0,.67,2c.84,1.2,5.18.61,5.89-.66.8-1.44.44-2-1.16-1.84C59.45,182.87,58.79,182.83,58.14,182.83Z"/><path class="cls-1" d="M166.41,16.62c-.46-.5-1.07-.39-1.64-.39l-18.55,0a4.16,4.16,0,0,0-2.11.44c-2.9,1.37-4.64,3.82-6,6.55-.47.91-.61,1.85.73,2.23,4.87.33,9.75.07,14.63.15a19,19,0,0,1,2.61.11A2.35,2.35,0,0,1,158.23,28a2.45,2.45,0,0,1-1.72,2.71,10,10,0,0,1-3.43.57H142.59a7.78,7.78,0,0,1-5.62-2c-1.28-.26-1.16.78-1.3,1.48-1.19,5.88,2.09,13.94,7.05,17.26.54.37,1.23,1.19,1.86,0a29.07,29.07,0,0,1-2.71-5c-.64-1.8-.84-3.58.72-5s3-.9,4.62-.07a262.84,262.84,0,0,0,25,11.26c.67.26,1.38.41,2.07.61a1.94,1.94,0,0,0,.64-1.55c0-5.69.31-11.38-.15-17.06-.44-1.26-1.37-.77-2.15-.53a6.73,6.73,0,0,1-4.66,0A2.67,2.67,0,0,1,166,28a2.61,2.61,0,0,1,2.58-2.46c1.28-.15,2.61.19,3.84-.38.71-.65.35-1.34,0-1.95A17.34,17.34,0,0,0,166.41,16.62Z"/><path class="cls-2" d="M151.54,80.42a14.85,14.85,0,0,0,8.38-.34c1.19-2,3.26-3.22,4.69-5a28.38,28.38,0,0,0,5.85-17.17,2.28,2.28,0,0,0-.55-1.82l-12.54-5.31a3.61,3.61,0,0,0,1.47,1.69,3.4,3.4,0,0,1,1.24,4.07c-.61,1.63-1.89,2.22-3.61,2.25a39.94,39.94,0,0,1-14.12-2.32c-.54-.19-1.1-.34-1.66-.5-1.33.1-1,1.18-1.07,1.94-.35,7.22,2.21,13.39,7,18.7A13.86,13.86,0,0,0,151.54,80.42Z"/><path class="cls-3" d="M164.62,91A6.78,6.78,0,0,0,163.46,97c1.67,7.66,3.19,15.35,4.67,23,.31,1.61.8,2.31,2.6,2.26,4.58-.14,9.16,0,13.74,0a3.55,3.55,0,0,0,2.13-.24c-1-.94-2.21-.64-3.33-.59-1.71.09-2.24-.59-2.33-2.28a37.1,37.1,0,0,0-7.83-21.39,34.33,34.33,0,0,0-6.35-6.28C166.15,91.06,165.52,90.4,164.62,91Z"/><path class="cls-3" d="M140.93,122c1.32-4.16,1.78-8.5,2.7-12.75.87-4,1.46-8.15,2.4-12.18A6.89,6.89,0,0,0,145,91a1.86,1.86,0,0,0-2,.56c-8.86,7.27-13.86,16.46-14,28.07,0,2.55.16,2.71,2.74,2.65C134.86,122.15,137.91,122.51,140.93,122Z"/><path class="cls-4" d="M140.93,122c-3.2,0-6.39,0-9.59,0-1.18,0-1.67-.33-1.69-1.59-.17-8.79,2.8-16.4,8.33-23.16A28.85,28.85,0,0,1,145,91c-.16-1.79-1.22-1.19-2.16-.8a32.42,32.42,0,0,0-19.29,21.17,33.08,33.08,0,0,0-1.34,8.8c0,1.31.36,2.16,1.78,2.16q8.3,0,16.58,0C140.71,122.27,140.82,122.11,140.93,122Z"/><path class="cls-12" d="M154.69,122.43c1.53,0,3.07,0,4.59,0s2.11-.7,1.81-2.16q-2.18-10.86-4.34-21.72c-.23-1.16-.92-1.5-2-1.46s-1.67.31-1.9,1.55c-1.36,7.18-2.8,14.35-4.25,21.51-.34,1.7.12,2.46,2,2.29C151.92,122.33,153.31,122.43,154.69,122.43Z"/><path class="cls-6" d="M164.62,91c4.45,2.42,7.55,6.18,10.21,10.34a36,36,0,0,1,5.55,19.09c0,1.23.43,1.69,1.65,1.64,1.52-.06,3,0,4.57,0,1-.14.92-1,1-1.66.58-12.16-8.75-26.12-20.17-30.1C166.41,90,165.08,88.88,164.62,91Z"/><path class="cls-7" d="M174.24,30.57l0,19.33a1.4,1.4,0,0,0,.33.27c5.89,2.44,5.9,2.44,5.89-3.84,0-5,.09-10-.08-15-.22-7.09-7-14.1-14-14.69,1.65,2.18,3.94,3.81,5.23,6.3a7,7,0,0,1,.91,1.93A5.85,5.85,0,0,1,174.24,30.57Z"/><path class="cls-8" d="M144.58,48.1c-2,.24-2.65-1.48-3.61-2.54-4.2-4.63-6-10-4.35-16.22.71-1.41,1-3,1.81-4.37-.46-1.78.75-2.93,1.7-4.09,1.23-1.49,2.64-2.83,4-4.23-6.33.36-12.74,6.42-14,13.11a41.81,41.81,0,0,0-.4,7.82,5.28,5.28,0,0,0,1.51,3.53c3.12,3.57,9.87,7.71,14.89,9.08C145.61,49.35,145.39,48.54,144.58,48.1Z"/><path class="cls-13" d="M151.54,80.42c-2.67-2.52-5.54-4.83-7.49-8.06a25.45,25.45,0,0,1-3.88-15.09c0-.52,0-1,.52-1.35-2.53-1.34-5.07-2.67-7.65-4-1.68,11.39,2.24,20.78,10.77,25.88A17.44,17.44,0,0,0,151.54,80.42Z"/><path class="cls-10" d="M169.91,56c.09,6.23-1.13,12.11-4.76,17.31A28.14,28.14,0,0,1,160,78.86c-.26.23-1.51.76-.06,1.22,4.63-.61,8.16-3.2,11.23-6.45a21.57,21.57,0,0,0,5.77-13.54c.1-1.19-.21-1.87-1.45-2.21C173.59,57.36,171.76,56.66,169.91,56Z"/><path class="cls-14" d="M157.75,88H151.9c-.13,2.13,1.19,2.22,2.7,2.16S157.84,90.52,157.75,88Z"/><path d="M138.43,25c-1.82,1-1.94,2.61-1.81,4.37a3.42,3.42,0,0,0,3.15,2.28,86.05,86.05,0,0,0,16,0c2.5-.26,3.37-1.54,3.18-3.77-.17-2-1.29-2.91-3.8-2.91C149.61,24.9,144,24.94,138.43,25Z"/><path d="M173.14,30.57c1.17-3,.91-4-1.48-5.72-1.15,0-2.29,0-3.43,0-1.81,0-2.63,1.3-3,3a3.51,3.51,0,0,0,2.45,3.6A5.72,5.72,0,0,0,173.14,30.57Z"/><path class="cls-15" d="M174.37,157.8a16.81,16.81,0,1,1-16.8,16.8,16.8,16.8,0,0,1,16.8-16.8"/><path class="cls-16" d="M184.46,231.54c-.09,7.58-1.6,6.3-11.61,6.3-8.43,0-12.75,1.49-12.83-4.73-.13-10.06,1.3-7.67-7-11-7.29-3-6-4.83-11.5.68-4.9,4.94-5.27,5.35-10.36.23-3-3-5.74-5.76-8.77-8.77-1.63-1.63-3.18-3.64-.66-6.13,6.25-6.19,7.19-5.73,4.55-11a48.13,48.13,0,0,1-2.48-6.09c-1-3.1-1.19-4-4.86-4-2.37,0-6.61.61-8.39-.69-2.43-1.76-1.4-12.26-1.41-16.06,0-10,1.6-7.14,10.23-7.66,3.21-.19,3.44-1.94,4.32-4.67a47.38,47.38,0,0,1,2.47-6.1c2.84-5.8.24-4.81-4.75-10.57-3-3.43,1.29-6.08,5.59-10.39,2.94-3,7-8.22,9.85-7.79,4,.63,4.47,7.84,11.15,6.11.85-1.34,5.09-2.7,6.89-3.37,3.38-1.26,5-.94,5.12-5.15.06-2.73-1-7.15,1.74-8.51,1.44-.71,7.64-.44,9.78-.44,12.11,0,12.9-1.46,12.87,7.66,0,7,1.36,3.52,11.56,8.9,7.63,4,7.83-7,13.46-5,1.34.48,9,8.49,10.55,10.07,6,6,5,6-.64,11.57-3.61,3.55-.65,4.24,2.78,14.53,1.29,3.86,3.18,3.16,7.17,3.12,3.77,0,5.84.27,6,4.23,1.05,27.23-1.71,18.54-10.59,20.31-2.73.55-2.94,3.56-4,6.21-3.31,8.34-5.91,7,.45,13.28,1.51,1.5,4.15,3.21,2.08,6.35-.87,1.31-3.8,3.93-5.08,5.21-11,11-8.86,10.63-16.76,3.07-2.6-2.48-3.64-1.71-6.83-.13-9.91,4.94-10.22.64-10.14,10.49m-19.29,12.77c5,0,16.67.76,20.37-1.1,4.53-2.28,5.45-5.91,5.36-10.58-.05-3.27-.57-3,2-3.7l4.7-2.07,2,1.91,5.47,4c3.15-.24,3.64.71,7-.67,3.11-1.34,8.37-7.47,10.71-9.8,5.21-5.22,7.43-5.76,7.68-12.76l-2.94-6-3-3,3.1-7.19c16.56,0,14.06-8.14,14.06-22.92l-.06-6.73c-1.45-3-1.47-4.29-4.45-6.25s-4.93-1.45-9.24-1.45a33.3,33.3,0,0,0-3-7.27c2.77-4.14,5.56-3.79,5.56-10.7,0-5.06-6.22-9.85-9.09-12.72-3.1-3.1-7.56-9.09-13.16-9.09-6.14,0-6.4,3.26-9.83,5.56-2.4-.56-4.48-2.34-7.27-2.57,0-4.51-.08-6.69-1.88-9.67a9.36,9.36,0,0,0-7.54-4.44H162.59c-3.36,0-5.85,2.2-7.35,4.19-2.08,2.75-1.64,5.41-1.64,9.92a38.78,38.78,0,0,0-7.27,3c-1.91-2.86-6-6-9.84-6-6.19,0-10,5.54-13.36,8.87-3.13,3.14-9.31,7.74-9.31,13.37,0,6.68,6,9.66,6,10.69,0,.87-2.15,6.06-2.56,6.85-4.4,0-7.29-.49-10.1,1.45-2.12,1.46-4.45,4.17-4.45,7.53v19.25a9.45,9.45,0,0,0,4.38,7.6c2.72,1.93,6.14,1.81,10.59,1.81a33.91,33.91,0,0,1,2.57,6.41c-2.75,4.11-6.42,4.11-6.42,11.12,0,5.07,6.23,9.86,9.09,12.73,4.5,4.49,7.09,9.09,14,9.09,5.3,0,7.25-4.4,10.27-6.42a29.7,29.7,0,0,0,6.41,2.57c0,6.57-.95,9.89,4.71,13.69Z"/><path class="cls-17" d="M148,129.13c-24.18,26.83-21.19,66.31,6.4,89.42,6.61,5.53,18.45,11.73,30,13-.08-9.85.23-5.55,10.15-10.49,3.18-1.58,4.22-2.35,6.82.13,7.9,7.56,5.8,7.91,16.76-3.07,1.28-1.28,4.21-3.9,5.08-5.21,2.07-3.14-.57-4.85-2.08-6.35-6.36-6.32-3.76-4.93-.45-13.28,1-2.65,1.26-5.66,4-6.21,8.87-1.77,11.63,6.92,10.58-20.31-.16-4-2.23-4.27-6-4.23-4,0-5.88.74-7.17-3.12-3.43-10.29-6.39-11-2.78-14.54,5.66-5.56,6.62-5.6.64-11.55-1.59-1.59-9.21-9.6-10.55-10.08-5.63-2-5.83,9-13.46,5-10.2-5.38-11.6-1.88-11.57-8.9,0-9.12-.75-7.66-12.86-7.66-2.14,0-8.34-.27-9.78.44-2.75,1.36-1.68,5.78-1.74,8.51-.08,4.21-1.74,3.89-5.12,5.15-1.8.67-6.05,2-6.89,3.37m43.4,18a7.93,7.93,0,0,0,2.3,2.15,9.29,9.29,0,0,1,1.43,1.14c.91,1,.43.3,1,1.43,3.16-1.6,4.07-.88,5.65,1.38a38.26,38.26,0,0,1,3.38,5.58,37.39,37.39,0,0,1,3.55,14.34c.51,11.8-4.13,19.62-9.35,26.09a37.34,37.34,0,0,1-10.18,7.8c-13.95,7.09-29.6,4.87-40.32-4.31-23.47-20.11-13.79-58,16.58-63.9a37.08,37.08,0,0,1,16,.55,39.88,39.88,0,0,1,6.62,2.36C191,143.13,191.38,143.59,191.44,147.16Z"/><path class="cls-18" d="M184.46,231.54c-11.57-1.26-23.41-7.46-30-13-27.59-23.11-30.58-62.59-6.4-89.42-6.68,1.73-7.11-5.48-11.15-6.11-2.81-.43-6.91,4.84-9.85,7.79-4.3,4.31-8.57,7-5.59,10.39,5,5.76,7.59,4.77,4.75,10.57a48.86,48.86,0,0,0-2.47,6.1c-.88,2.73-1.11,4.48-4.32,4.67-8.63.52-10.25-2.38-10.23,7.66,0,3.8-1,14.3,1.41,16.06,1.78,1.3,6,.66,8.39.69,3.67.05,3.82.93,4.86,4a48.13,48.13,0,0,0,2.48,6.09c2.64,5.28,1.7,4.82-4.55,11-2.52,2.49-1,4.5.66,6.13,3,3,5.75,5.73,8.77,8.77,5.09,5.12,5.46,4.7,10.36-.23,5.47-5.51,4.21-3.65,11.5-.68,8.26,3.37,6.83,1,7,11,.08,6.22,4.39,4.73,12.83,4.73,10,0,11.52,1.28,11.61-6.3"/><path class="cls-16" d="M196.12,151.88c-2.49,4,2.11,5.39,4.75,13.83a31.25,31.25,0,0,1,.13,17.67,29.64,29.64,0,0,1-7.74,12.79c-2.1,2-8.74,7.44-13.16,7.24l-2.61.94a30.35,30.35,0,0,1-21.05-4c-13.91-8.91-18.35-26.72-10.26-40.52,3-5.2,9.56-12,16.83-13.47,3-1.93,11.22-1.79,15.12-1a30.1,30.1,0,0,1,6.78,2.19c4.39,2,3.53,1.57,6.53-.31-.06-3.57-.46-4-3.4-5.39a39.88,39.88,0,0,0-6.62-2.36,37.08,37.08,0,0,0-16-.55c-30.37,5.87-40.05,43.79-16.58,63.9,10.72,9.18,26.37,11.4,40.32,4.31a37.34,37.34,0,0,0,10.18-7.8c5.22-6.47,9.86-14.29,9.35-26.09a37.39,37.39,0,0,0-3.55-14.34,38.26,38.26,0,0,0-3.38-5.58c-1.58-2.26-2.49-3-5.65-1.38"/><path class="cls-19" d="M163,146.31c-3.1,3.61-5.11,5.24-7.58,10.34-.71,1.45-4.91,13-2.69,13.77,2.38-8.18,8.26-14.9,18-15.57C192,153.39,200,181,182.8,191.69c-13.24,8.24-24.2-2.47-24.9-2.67-.67.29-.81-.52.15,1l3.32,4a34.1,34.1,0,0,0,5,4.37c3,2.13,9.13,5.47,13.68,5,4.42.2,11.06-5.21,13.16-7.24A29.64,29.64,0,0,0,201,183.38a31.25,31.25,0,0,0-.13-17.67c-2.64-8.44-7.24-9.81-4.75-13.83-.52-1.13,0-.46-1-1.43a9.29,9.29,0,0,0-1.43-1.14,7.93,7.93,0,0,1-2.3-2.15c-3,1.88-2.14,2.33-6.53.31a30.1,30.1,0,0,0-6.78-2.19c-3.9-.76-12.13-.9-15.12,1"/><path class="cls-16" d="M152.74,170.42c-.52,4.05-.78,6.83.61,10.73s2.88,5,4.55,7.87c.7.2,11.66,10.91,24.9,2.67C200,181,192,153.39,170.73,154.85c-9.73.67-15.61,7.39-18,15.57m32.94,4.06c0,7.36-5.94,13.69-13.25,13.69a13.39,13.39,0,0,1-8.7-23.67C172.27,156.94,185.68,163.92,185.68,174.48Z"/><path class="cls-20" d="M180.1,203.41c-4.55.51-10.69-2.83-13.68-5a34.1,34.1,0,0,1-5-4.37l-3.32-4c-1-1.54-.82-.73-.15-1-1.67-2.82-3.13-3.86-4.55-7.87s-1.13-6.68-.61-10.73c-2.22-.77,2-12.32,2.69-13.77,2.47-5.1,4.48-6.73,7.58-10.34-7.27,1.47-13.79,8.27-16.83,13.47-8.09,13.8-3.65,31.61,10.26,40.52a30.35,30.35,0,0,0,21.05,4Z"/></g></svg>