<svg xmlns="http://www.w3.org/2000/svg" viewBox="0 0 256 256"><defs><style>.cls-1{fill:#ccc;}.cls-2{fill:#fc3;}.cls-3{fill:#feca7c;}.cls-4{fill:#fee5bf;}.cls-5{fill:#feca7b;}.cls-6{fill:#f3636f;}.cls-7{fill:#fdca7b;}.cls-8{fill:#c1bfc3;}.cls-9{fill:#000101;}.cls-10{fill:#010101;}</style></defs><g id="Capa_22" data-name="Capa 22"><path d="M182.18,248.9H27.42c-8.65-.75-13.58-6-16.12-13.76a29.23,29.23,0,0,1-1-9q-.08-33.94,0-67.91a22.75,22.75,0,0,1,.5-4.65c.61-2.94,1.94-4.19,5-4.7,3.36.35,5.28,2.17,5.69,5.44a29.31,29.31,0,0,1,.1,3.75q0,35.16,0,70.34c0,7.19,3.2,10.41,10.47,10.41H177.43c7.44,0,11-3.48,11-10.87.06-22.59,0-45.18,0-67.77A2.81,2.81,0,0,0,188,158c-1.79,1.08-3.1,2.8-4.82,3.89-4.71,3-5.71,7.23-5.56,12.6.35,13.36-.13,26.74.21,40.09a13,13,0,0,1-13.14,13.1c-40.25-.13-80.5,0-120.75-.08-8,0-13-5.18-13.06-13.36q0-47,0-94,0-31.19,0-62.37A13.54,13.54,0,0,1,34,48.48a12.54,12.54,0,0,1,10-4.34H68.8c3.18,0,3.34-.17,3.37-3.27,0-1.88,0-3.75,0-5.63,0-3-.19-3.2-3.17-3.21q-12.44,0-24.86,0c-4.45,0-8.91,0-13.36,0-5.84,0-9.16,3.33-9.17,9.18q0,35.76,0,71.52a22.71,22.71,0,0,1-.21,4.2c-.59,3.07-2.16,4.54-5.32,5-3.09-.37-4.51-1.59-5.23-4.47a18.58,18.58,0,0,1-.51-4.65c0-22.66-.06-45.32.06-68,0-5.45.29-11,3.83-15.64,3.82-5,8.72-8,15.14-8,18,0,35.95-.05,53.92,0,2.59,0,3.93-.82,5.24-3.16C93.08,10,98.71,7.87,107.44,8.62c6.42.56,10.87,4.12,13.61,9.76a4.46,4.46,0,0,0,4.68,2.89c17.66-.08,35.33.28,53-.17,10.26-.27,20.49,7.32,20.55,20.5.08,15.7,0,31.41,0,47.11a5.12,5.12,0,0,0,.39,2.86c3.17-2.45,6-5.17,8.89-7.74,1.69-1.49,3.39-3,5.11-4.47a14.93,14.93,0,0,1,20.9,1.47c2.15,2.37,4.16,4.87,6.43,7.14,7,7,5.87,17.67-1.31,23.74-10.79,9.12-21.19,18.7-31.72,28.12-2,1.77-3.87,3.66-6,5.25a6.61,6.61,0,0,0-2.74,5.84q.09,38.79,0,77.59c0,4.94-1.12,9.56-4.33,13.56A17.06,17.06,0,0,1,182.18,248.9Z"/><path class="cls-1" d="M167.77,174.67c0,13.77,0,27,0,40.17,0,1.86-1,2.67-2.79,2.66-4.61,0-9.22,0-13.83,0h-106c-3.78,0-4.14-.37-4.14-4.15v-155c0-3.57.49-4.06,4-4.06q48.3,0,96.6,0c1.88,0,2.59.35,2.48,2.38-.18,3.2-.09,6.41,0,9.61A11.71,11.71,0,0,0,156,78.09c3.36,0,6.72.06,10.08,0,1.31,0,1.7.34,1.7,1.68q-.08,19.94,0,39.86a3.61,3.61,0,0,1-1.64,2.87q-20.67,18.37-41.36,36.73a14.14,14.14,0,0,0-4,5.64c-3.18,8.2-6.52,16.35-9.68,24.56a2.54,2.54,0,0,1-2.86,1.93c-15.87-.07-31.73-.05-47.59,0a23,23,0,0,0-2.35,0,4.83,4.83,0,0,0-4.57,4.76,4.65,4.65,0,0,0,4.88,4.62c18.28,0,36.57.12,54.86-.06,3.94,0,7.71-1.8,11.55-2.81,7.15-1.9,14.3-3.82,21.46-5.7a9.65,9.65,0,0,0,4.06-2.2C156.15,185,161.76,180,167.77,174.67Z"/><path class="cls-2" d="M15.82,130.56a40,40,0,0,0,0-9.15c3.64-.59,4.87-2.13,4.87-6.15q0-36.47,0-72.92c0-2-.07-4.06.94-5.94,1.69-3.11,4.22-5.14,7.8-5.16,13.91-.1,27.82,0,41.73-.1,1.31,0,1.55.56,1.53,1.69,0,3.44-.09,6.88,0,10.31,0,1.54-.54,1.78-1.9,1.77-9,0-18,0-27,0-7.24,0-12.25,5-12.25,12.19q0,78.89,0,157.78c0,7.1,5,12,12.12,12q60.6,0,121.21,0c7.41,0,12.23-4.84,12.25-12.4q.08-22.84,0-45.71a5.08,5.08,0,0,1,2-4.38c3.21-2.68,6.29-5.53,9.47-8.34a3,3,0,0,1,.36,2.2q0,34.93,0,69.86c0,7.78-3.55,11.35-11.28,11.35q-73.26,0-146.52,0c-3.58,0-6.59-1-8.79-4a10.57,10.57,0,0,1-1.76-6.66q0-36.69,0-73.38c0-4-1.26-5.57-4.87-6.14.44-3,.11-6.12.18-9.18.37-.68,1.14-.76,1.72-1.12,3.18-2,3.07-5.6-.23-7.42C16.94,131.3,16.13,131.33,15.82,130.56Z"/><path class="cls-2" d="M177.24,112.6c0-12.52-.12-24.39.07-36.25a10.71,10.71,0,0,0-3.62-8.62c-7-6.69-13.78-13.61-20.58-20.51a7.16,7.16,0,0,0-5.81-2.37c-3,.14-6.09,0-9.14,0-1.12,0-1.48-.33-1.46-1.46.06-3.59.08-7.18,0-10.77,0-1.33.54-1.52,1.66-1.52,13.82,0,27.65,0,41.47.07,5.57,0,9.2,4.19,9.22,10.23,0,11.33,0,22.65,0,34q0,12.42,0,24.83c0,.84.16,1.7-.61,2.39C184.82,105.83,181.24,109,177.24,112.6Z"/><path class="cls-3" d="M104.8,44.88c-6.87,0-13.75-.05-20.62,0-1.66,0-2.11-.44-2-2.07.13-3.2.12-6.41,0-9.61-.06-1.58.31-2.23,2-2.11,2.25.15,4.52.06,6.79,0,3.55-.05,5.11-1.46,5.53-5,.58-4.82,3.82-8,8.21-8s7.62,3.14,8.17,8c.4,3.42,2.08,4.94,5.58,5,2.26,0,4.54.1,6.79,0,1.58-.09,2.19.29,2.11,2-.14,3.27-.12,6.56,0,9.84.05,1.52-.37,2-1.92,1.94C118.55,44.83,111.68,44.88,104.8,44.88Z"/><path class="cls-4" d="M164.72,150.51c-3.14-2.21-4.79-2.12-7.67.45-6.24,5.57-12.51,11.1-18.68,16.74-1.24,1.14-1.91,1.32-3.08-.09-2.42-2.91-2.49-2.83.32-5.33Q170.82,131,206,99.61c1.61-1.43,2.58-1.57,3.72.24a3.63,3.63,0,0,0,.79.87c1.55,1.2,1.05,2-.24,3.18-6.25,5.44-12.41,11-18.6,16.47l-4.55,4.06c-2.74,2.44-3,3.83-1.53,7.18.1.29.3.67.09.88-2.22,2.12-3.87,5-7.24,5.65a4,4,0,0,1-.9-.22c-1.86-.68-3.67-.88-5.25.61s-1.33,3.2-.68,5a2.7,2.7,0,0,1,.12.69A12.57,12.57,0,0,1,164.72,150.51Z"/><path class="cls-5" d="M178.45,137.81c3-1.34,5.11-3.71,7.1-6.2,3,2.46,4.91,2.45,7.81-.12,7.82-6.94,15.67-13.87,23.43-20.88,1.19-1.07,1.74-.91,2.7.2,2.56,3,2.6,2.89-.31,5.48q-35.28,31.35-70.5,62.76c-1.47,1.31-2.33,1.44-3.37-.22a4.68,4.68,0,0,0-1.07-1.23c-1.25-1-1-1.73.14-2.72,6.34-5.56,12.61-11.19,18.9-16.8,2.86-2.55,3.17-4.21,1.44-7.58a41.85,41.85,0,0,0,6.69-6.07c.68-.52,1.15.11,1.63.38a3.69,3.69,0,0,0,4.69-.44,4,4,0,0,0,1.14-4.82C178.66,139,178.2,138.48,178.45,137.81Z"/><path class="cls-6" d="M235.72,99.38c.14,2.07-1.26,3.32-2.69,4.58-3.91,3.49-3.9,3.5-7.31-.31-3.22-3.62-6.42-7.25-9.67-10.84-.77-.84-1-1.37.09-2.18,1.49-1.13,2.76-2.53,4.24-3.68a4.44,4.44,0,0,1,6.18.26c2.86,3,5.55,6.14,8.28,9.25A3.89,3.89,0,0,1,235.72,99.38Z"/><path class="cls-7" d="M137.75,184.51a8,8,0,0,1-1,.49l-15.27,4.05c1.11-2.85,2.07-5.33,3-7.8s2-5.05,3.2-8C131.15,177.1,134.41,180.75,137.75,184.51Z"/><path class="cls-8" d="M153.72,61.82l6.62,6.54C153.1,69.38,153.09,68.31,153.72,61.82Z"/><path class="cls-9" d="M15.82,130.56c3.1.48,4.8,2.12,4.87,4.68s-1.52,4.18-4.65,4.93c-3.17-.63-4.7-2.15-4.76-4.72S12.76,131.21,15.82,130.56Z"/><path d="M100.83,108.82q-20.26,0-40.54,0a20.26,20.26,0,0,1-2.34-.07,4.62,4.62,0,0,1-1-9,9.18,9.18,0,0,1,2.76-.36q41.13,0,82.26,0c3.68,0,6,1.9,5.91,4.84,0,2.69-2.08,4.57-5.14,4.59-6.48,0-13,0-19.45,0Z"/><path d="M100.76,131.81H60.46a22.17,22.17,0,0,1-2.58-.08,4.62,4.62,0,0,1-.82-9,8.58,8.58,0,0,1,2.53-.33q41.23,0,82.49,0c3.66,0,5.94,2,5.84,4.9-.1,2.7-2.1,4.51-5.21,4.53-7.26,0-14.53,0-21.79,0Z"/><path d="M85.91,154.78q-13.35,0-26.71,0c-2.92,0-4.5-1.09-5.19-3.42a4.65,4.65,0,0,1,4.26-6,43.76,43.76,0,0,1,4.44-.07h48.74c.7,0,1.41,0,2.11,0a4.85,4.85,0,0,1,4.72,4.85,4.67,4.67,0,0,1-5,4.56C104.19,154.81,95.05,154.78,85.91,154.78Z"/><path d="M77.13,168.35c6,0,12,0,18.05,0,2.64,0,4.42,1.3,5,3.45a4.58,4.58,0,0,1-2,5.29,5.33,5.33,0,0,1-3.15.7c-11.88,0-23.75,0-35.63,0-3.4,0-5.55-1.9-5.56-4.7s2.2-4.73,5.54-4.74C65.25,168.33,71.19,168.35,77.13,168.35Z"/><path d="M65.73,85.82c-2.41,0-4.83.08-7.24,0a4.67,4.67,0,0,1-.24-9.33c5.06-.15,10.13-.16,15.19,0a4.67,4.67,0,0,1-.22,9.33C70.73,85.9,68.23,85.82,65.73,85.82Z"/><path class="cls-10" d="M178.45,137.81q2.81,4,0,6.86c-2,2-4.19,1.91-7-.24-1.43-2.82-1.28-4.82.51-6.51S175.8,136.23,178.45,137.81Z"/></g></svg>