<svg id="Capa_1" data-name="Capa 1" xmlns="http://www.w3.org/2000/svg" viewBox="0 0 1000 1000"><defs><style>.cls-1{fill:#32d736;}.cls-1,.cls-2,.cls-3{fill-rule:evenodd;}.cls-2{fill:#c5e7f1;}.cls-3{fill:#0ca656;}</style></defs><path class="cls-1" d="M505.49,987.35V842.62c-292.9-9.34-421.75-313.47-292.52-521,13.76-22.14,28.61-50,64-50.15,36.22-.16,80.92,40.86,41.08,98-45.18,64.78-54.14,151.31-20.68,224.18,5.94,12.9,13.5,27,20.52,36.6,26.07,35.52,52.68,58.79,93.71,77.63,30.34,13.92,57.44,18.46,93.93,20.35L505.49,557c-41.94-3.24-57.32-29.42-57.22-72.33V227.5c-.1-39.13,13.77-67,57.22-70.39V12.33c-78.54,0-143.91,16-211.06,48-3.35,1.57-6.1,3.4-9.83,5.35C217.66,100.75,197.85,119.59,146,170.88c-5.56,5.45-9.12,10.36-14.25,16.24a399.64,399.64,0,0,0-38.43,53c-4.27,6.86-7.56,11.61-11.77,18.73C-3.12,401.7-3.12,598,81.58,740.92c4.21,7.07,7.5,11.82,11.77,18.73,27.31,44.64,60.35,79.79,99.37,113.9a403.67,403.67,0,0,0,53,38.44c6.91,4.21,11.61,7.5,18.73,11.71s13.44,6.8,20.19,10.31c3.73,2,6.48,3.78,9.83,5.4,33.79,16.09,60.94,26.67,101.32,35.79,35.9,8.1,66.18,12.15,109.74,12.15Z"/><path class="cls-2" d="M505.49,842.62c266.83-3.89,430.34-284.16,292.69-521.3-13.17-22.72-30.12-49.61-64.18-50-34.88-.38-81.57,38.75-41.35,98.57,64.72,96.3,50.74,214.73-25.86,291.28-39.24,39.3-85.51,62.29-161.24,67.1-36.49-1.89-63.59-6.43-93.93-20.35-41-18.84-67.64-42.11-93.71-77.63-7-9.55-14.58-23.7-20.52-36.6-33.46-72.87-24.5-159.4,20.68-224.18,39.84-57.17-4.86-98.19-41.08-98-35.41.11-50.26,28-64,50.15-129.23,207.5-.38,511.63,292.52,521Z"/><path class="cls-3" d="M505.49,157.11c21.33.7,34.28,9.39,44,20.73,13.39,15.76,13.06,27.75,13.06,51.61V486.51c0,23.48-1.29,36.43-14,50.68-9.66,10.91-22.4,19.11-43.08,19.76l.06,171.34c75.73-4.81,122-27.8,161.24-67.1,76.6-76.55,90.58-195,25.86-291.28-40.22-59.82,6.47-99,41.35-98.57,34.06.37,51,27.26,64.18,50,137.65,237.14-25.86,517.41-292.69,521.3V987.35c81.84,0,144.24-16.9,200.54-43.14,8-3.72,13.23-5.66,21-9.55,27-13.39,69.42-41.62,91.23-61,31.91-28.45,32.55-29.05,61-61,21.48-24.13,34-45.18,50.09-71.79,4.43-7.24,7.13-11.72,11-19.49A504.41,504.41,0,0,0,993,519.65V476.09a468.15,468.15,0,0,0-43.19-176.85c-18.73-40.1-41-79-70.6-112.17C824.15,125.26,781.93,90.88,706,55.52c-56.3-26.24-118.7-43.19-200.54-43.19Z"/><path class="cls-2" d="M505.49,557c20.68-.65,33.42-8.85,43.08-19.76,12.69-14.25,14-27.2,14-50.68V229.45c0-23.86.33-35.85-13.06-51.61-9.72-11.34-22.67-20-44-20.73-43.45,3.35-57.32,31.26-57.22,70.39V484.62c-.1,42.91,15.28,69.09,57.22,72.33Z"/></svg>