<?xml version="1.0" encoding="UTF-8"?>
<!DOCTYPE svg PUBLIC "-//W3C//DTD SVG 1.1//EN" "http://www.w3.org/Graphics/SVG/1.1/DTD/svg11.dtd">
<!-- Creator: CorelDRAW 2020 (64-Bit) -->
<svg xmlns="http://www.w3.org/2000/svg" xml:space="preserve" width="344.303mm" height="344.251mm" version="1.1" style="shape-rendering:geometricPrecision; text-rendering:geometricPrecision; image-rendering:optimizeQuality; fill-rule:evenodd; clip-rule:evenodd"
viewBox="0 0 534.21 534.13"
 xmlns:xlink="http://www.w3.org/1999/xlink"
 xmlns:xodm="http://www.corel.com/coreldraw/odm/2003">
 <defs>
  <style type="text/css">
   <![CDATA[
    .fil0 {fill:black}
    .fil6 {fill:#67C843}
    .fil9 {fill:#68C944}
    .fil4 {fill:#7DD160}
    .fil5 {fill:#97DA7B}
    .fil2 {fill:#ACE093}
    .fil3 {fill:#FAF7F7}
    .fil8 {fill:#FBDD30}
    .fil1 {fill:#FC636E}
    .fil7 {fill:#FCE259}
   ]]>
  </style>
 </defs>
 <g id="Capa_x0020_1">
  <metadata id="CorelCorpID_0Corel-Layer"/>
  <g id="_2070847728272">
   <path class="fil0" d="M254.6 347.24c-7.49,-1.31 -14.48,-3.63 -20.88,-6.37l107.38 -107.01c2.57,6.16 4.96,13.26 6.19,20.68 2.85,27.14 -4.03,51.5 -22.61,70.08 -17.84,17.84 -43.65,26 -70.08,22.61zm195.9 -158.44c6.94,16.62 14.57,30.36 36.74,34.19l0 88.13c-10.88,1.86 -18.54,6.9 -24.43,12.87 -8.62,8.73 -8.27,11.31 -12.95,24.25l-129.26 -0.16c3.31,-2.64 7.88,-5.82 10.73,-8.48 10.17,-9.54 18.31,-19.44 24.21,-33.13 14.55,-33.75 4.84,-49.17 5.87,-64.6l-8.36 -19.67c1.4,-2.35 30.37,-31.8 33.87,-34.62 4.37,-3.52 24.94,-1.75 32.54,-1.77 5.56,-0.02 11.13,0.01 16.69,0 5.21,-0.01 13.6,-1.93 14.36,2.99zm-239.73 -1.08c-1.89,3.63 -6.65,5.27 -9.42,8.38 -3.3,3.7 -6.15,5.65 -9.1,9.68 -32.66,44.63 -18.01,65.11 -19.44,86.47l8.36 19.67c-2.95,4.98 -26.69,27.53 -32.83,33.59 -4.1,4.04 -6.35,2.77 -13.75,2.73l-50.24 -0c-4.55,-12.87 -4.38,-15.55 -12.96,-24.24 -6.33,-6.41 -13.03,-10.59 -24.42,-12.88l0 -88.12c10.88,-1.9 18.5,-6.89 24.41,-12.88 8.62,-8.72 8.38,-11.37 12.97,-24.26l126.41 1.86zm87.91 -17.47l-187.52 0.02c-7.83,-0.07 -15.68,-0.01 -23.51,-0.02 -6.77,-0.01 -15.37,-1.64 -17.81,4.85 -2.47,6.57 0.06,20.9 -17.23,29.79 -18.93,9.74 -21.27,-7.13 -21.27,25.65 0,11.06 -1.14,87.6 1.15,91.72 4.44,7.97 31.91,-2.2 36.66,33.37 1.2,8.96 5.98,8.32 14.3,8.27 14.43,-0.08 31.7,-0.82 45.83,0.18 -2.21,3.12 -12.98,14.74 -16.71,15.39l-96.9 0.07 0.21 -224.99 322.85 0.23c-18,20.97 -15.79,15.49 -40.04,15.47zm-196.15 -31.6c7.14,-12.12 26.64,-29.32 39.14,-38.76 51.01,-38.51 119.54,-52.32 182.73,-34.15 19.6,5.63 55.31,21.17 67.97,34.39 -1.75,4.56 -16.06,17.32 -20.28,21.52 -11.54,11.5 -13.9,17.38 -23.55,17.35 -22.83,-0.07 -234.8,0.88 -246.02,-0.36zm272.04 316.15c-6.19,-7.54 -18.06,1.43 -26.33,5.03 -8.92,3.89 -18.32,6.97 -28.02,9.54 -42.89,11.36 -88.89,8.57 -129.89,-7.63 -14.58,-5.76 -39.99,-18.87 -48.5,-27.74 1.86,-4.85 28.67,-29.9 34.32,-35.65 4.44,-4.52 5.79,-3.23 13.74,-3.17 5.91,0.04 11.83,0.01 17.74,0.01 11.44,0 25.11,3.36 27.14,-7.82 -1.06,-5.6 -1.83,-6.14 -6.87,-7.57l-32.4 -0.47c2.65,-2.89 10.7,-11.75 13.53,-13.86 5.1,-3.81 19.26,-1.59 26.58,-1.6l200.53 -0.01c8.01,0 25.2,3.17 28.24,-4.86 1.38,-3.66 0.82,-8.86 2.8,-13.94 7.68,-19.72 25.42,-17.86 30.54,-19.64 8.29,-2.87 5.17,-19.74 5.17,-28.12 0,-22.26 -0,-44.52 0,-66.78 0,-13.16 3.43,-21.13 -10.44,-22.66 -10.5,-1.16 -17.64,-6.26 -21.55,-12.11 -17.07,-25.58 10.87,-25.77 -40.17,-25.51l-25.74 -0.24c2.36,-3.19 5.13,-5.49 8.09,-8.46 2.8,-2.81 4.75,-6.5 9.51,-7.01l95.93 0.91 -0.15 224.07 -239.77 0.01c-16.07,0 -24.2,-2.67 -26.12,7.84 2.01,11.31 18.12,7.81 38.64,7.81 20.07,0 130.53,-0.78 140.6,0.28 -4.38,7.49 -16.02,17.92 -22.28,24.36 -14.77,15.22 -23.36,14.19 -20.07,25.62 7.16,7.9 13.78,0.8 18.99,-3.76 10.82,-9.48 21.39,-18.24 30.55,-29.98 2.14,-2.74 11.27,-15.01 13.93,-16.53l29.73 0c-3.53,8.86 -15.38,23.51 -21.52,31.39 -14.23,18.25 -41.86,42.13 -61.77,54.02 -102.7,61.33 -230.16,45.79 -310.6,-37.18l-19.59 -22.15c-4.81,-5.99 -14.26,-18.33 -17.42,-26.09l31.3 0c14.25,28.65 34.11,3.85 43.13,-5.17l102.8 -102.75c3.76,-3.93 3.68,-7.64 1.87,-12.83 -11.14,-4.78 -15.3,3.89 -20.89,9.47 -4.8,4.79 -11.86,12.79 -16.76,16.38 -2.53,-6.16 -4.94,-13.23 -6.19,-20.63 -7.05,-56.21 36.61,-99.69 92.78,-92.78 7.39,1.26 14.47,3.66 20.62,6.19l-32.02 32.4c-5.65,5.64 -10.53,10.53 -16.17,16.17 -5.03,5.03 -14.4,10.29 -9.76,20.1 10.13,6.33 14.72,-2.72 28.76,-16.76l126.77 -126.77c9.47,-9.4 17.27,-21.64 1.77,-32.73 -79.97,-57.23 -187.2,-58.67 -267.35,1.9 -9.93,7.5 -19.55,15.76 -27.13,24 -30.95,33.66 -11.46,27.56 -53.52,27.56 3.71,-9.12 15.25,-23.33 21.51,-31.41 1.78,-2.29 3.12,-3.39 4.83,-5.58 11.92,-15.23 38.89,-37.07 56.92,-48.45 34.81,-21.97 81.92,-37.42 132.19,-37.42 52.92,0 94.16,15.14 131.51,37.05 27.59,16.18 47.55,36.1 66.54,59.71 4.69,5.84 14.4,18.54 17.41,26.1l-31.23 0c-2.86,-5.83 -7.74,-12.68 -17.29,-12.94 -9.73,-0.27 -15.39,7.68 -19.62,11.87l-278.08 278.05c-4.28,4.26 -11.47,9.7 -10.13,20.09 1.19,9.19 8.42,12.67 14.52,16.9 11.73,8.13 25.91,16.14 40.56,22.03 55.42,22.31 124.92,23.57 180.29,-3.88 8,-3.97 16.08,-5.45 12.99,-16.27zm-341.18 -316.07c-7.68,0 -33.39,-3.79 -33.39,13.56l0 229.55c0,5.89 5.32,11.19 10.21,12.74 4.47,1.42 16.61,0.82 23.17,0.82 2.89,10.82 31.65,46.8 38.87,54 4.09,4.07 7.4,7.4 11.48,11.48l39.06 30.85 29.54 16.37c4.98,2.51 10.32,4.77 15.94,7.01 18.26,7.28 36.11,12.1 55.61,15.34 43.66,7.27 83.87,3.51 123.7,-8.66l32.92 -12.99c5.33,-2.67 10.14,-4.8 15.28,-7.68 35.43,-19.82 62.75,-44.33 87.02,-76.79 4.04,-5.4 16.81,-24.38 18.02,-28.93 6.9,0 33.39,3.89 33.39,-13.56l0 -229.55c0,-16.72 -23.74,-13.56 -33.39,-13.56 -1.23,-4.6 -9.65,-16.76 -12.94,-21.49 -11.74,-16.86 -27.73,-36.14 -43.15,-49.72 -27.7,-24.4 -61.13,-43.8 -96.37,-54.92 -53.54,-16.9 -108.24,-16.6 -161.74,-0.26 -24.8,7.58 -41.54,16.89 -63.18,29.68 -5.42,3.2 -8.73,5.89 -13.7,9.26l-12.97 9.99c-8.78,7.89 -15.68,14.62 -24.01,22.94 -9.42,9.41 -36.52,43.79 -39.39,54.52z"/>
   <path class="fil1" d="M242.36 261.73c-1.33,3.48 -0.05,1.26 -2.6,4.09 -1.05,1.17 -1.99,1.91 -3.16,3.07 -2.2,2.18 -3.43,3.58 -5.84,5.53 1.81,5.19 1.88,8.9 -1.87,12.83l-102.8 102.75c-9.02,9.02 -28.88,33.82 -43.13,5.17l-31.3 0c3.16,7.76 12.61,20.1 17.42,26.09l19.59 22.15c80.44,82.97 207.9,98.51 310.6,37.18 19.91,-11.89 47.55,-35.77 61.77,-54.02 6.14,-7.88 17.99,-22.53 21.52,-31.39l-29.73 0c-2.66,1.53 -11.79,13.8 -13.93,16.53 -9.17,11.74 -19.73,20.49 -30.55,29.98 -5.21,4.56 -11.84,11.67 -18.99,3.76 -2.02,3.18 0.19,0.77 -3.28,3.21 -1.4,0.98 -2.11,1.26 -3.9,2.37 -2.82,1.75 -4.14,3.2 -7.61,3.77 3.09,10.82 -4.98,12.3 -12.99,16.27 -55.36,27.45 -124.87,26.19 -180.29,3.88 -14.64,-5.9 -28.83,-13.9 -40.56,-22.03 -6.1,-4.23 -13.34,-7.72 -14.52,-16.9 -1.34,-10.39 5.85,-15.83 10.13,-20.09l278.08 -278.05c4.23,-4.19 9.89,-12.14 19.62,-11.87 9.55,0.26 14.43,7.11 17.29,12.94l31.23 0c-3.01,-7.57 -12.71,-20.27 -17.41,-26.1 -18.99,-23.62 -38.95,-43.53 -66.54,-59.71 -37.36,-21.9 -78.59,-37.05 -131.51,-37.05 -50.27,0 -97.38,15.46 -132.19,37.42 -18.03,11.38 -45,33.22 -56.92,48.45 -1.71,2.18 -3.06,3.29 -4.83,5.58 -6.27,8.09 -17.8,22.29 -21.51,31.41 42.06,0 22.56,6.1 53.52,-27.56 7.58,-8.24 17.2,-16.5 27.13,-24 80.16,-60.57 187.39,-59.13 267.35,-1.9 15.5,11.1 7.71,23.33 -1.77,32.73l-126.77 126.77c-14.04,14.04 -18.62,23.08 -28.76,16.76z"/>
   <path class="fil2" d="M361.4 241.87c-1.02,15.43 8.68,30.84 -5.87,64.6 -5.9,13.69 -14.04,23.59 -24.21,33.13 -2.85,2.67 -7.41,5.85 -10.73,8.48l129.26 0.16c4.69,-12.94 4.34,-15.52 12.95,-24.25 5.89,-5.96 13.55,-11.01 24.43,-12.87l0 -88.13c-22.17,-3.83 -29.81,-17.57 -36.74,-34.19 -4.78,-2.89 -27.25,-2.33 -35.19,-1.45 -4.97,0.55 -7.37,4.86 -10.35,7.83l-36.52 36.52c-7,6.99 -7.11,5.18 -7.04,10.16z"/>
   <path class="fil3" d="M374.57 454.79c3.47,-0.57 4.78,-2.02 7.61,-3.77 1.79,-1.11 2.51,-1.39 3.9,-2.37 3.47,-2.44 1.26,-0.03 3.28,-3.21 -3.29,-11.43 5.3,-10.41 20.07,-25.62 6.25,-6.44 17.89,-16.87 22.28,-24.36 -10.06,-1.06 -120.53,-0.28 -140.6,-0.28 -20.52,0 -36.64,3.5 -38.64,-7.81l-17.69 -0.01c-2.04,11.18 -15.7,7.82 -27.14,7.82 -5.91,0 -11.83,0.03 -17.74,-0.01 -7.95,-0.06 -9.3,-1.35 -13.74,3.17 -5.65,5.75 -32.46,30.8 -34.32,35.65 8.51,8.87 33.92,21.98 48.5,27.74 41,16.2 87,18.99 129.89,7.63 9.7,-2.57 19.1,-5.66 28.02,-9.54 8.27,-3.6 20.14,-12.57 26.33,-5.03z"/>
   <path class="fil3" d="M102.53 138.64c11.22,1.24 223.19,0.29 246.02,0.36 9.65,0.03 12.01,-5.86 23.55,-17.35 4.22,-4.21 18.52,-16.96 20.28,-21.52 -12.66,-13.22 -48.37,-28.75 -67.97,-34.39 -63.19,-18.16 -131.72,-4.36 -182.73,34.15 -12.5,9.44 -32,26.64 -39.14,38.76z"/>
   <path class="fil4" d="M430.72 170.26c51.04,-0.26 23.1,-0.07 40.17,25.51 3.9,5.85 11.05,10.95 21.55,12.11 13.87,1.54 10.45,9.5 10.44,22.66 -0,22.26 0,44.52 0,66.78 0,8.38 3.12,25.25 -5.17,28.12 -5.12,1.77 -22.86,-0.08 -30.54,19.64 -1.98,5.08 -1.42,10.28 -2.8,13.94 -3.03,8.03 -20.22,4.86 -28.24,4.86l-200.53 0.01 -13.56 13.58 3.23 1.35c2.22,0.86 -0.16,-1.03 2.63,0.99 5.04,1.43 5.81,1.97 6.87,7.57l17.69 0.01c1.92,-10.51 10.05,-7.84 26.12,-7.84l239.77 -0.01 0.15 -224.07c-16.69,-0.61 -34.28,-0.1 -51.06,-0.1 -6.43,0 -19.89,-1.58 -24.52,1.74 -3.26,2.33 -10.4,9.77 -12.19,13.16z"/>
   <path class="fil5" d="M172.82 292.25c0.13,4.78 1.21,1.6 -1.68,5.07l-40.26 40.1c-6.22,6.21 -6.87,10.79 -19.62,8.98l-0.01 -159.12 99.52 0.45 -126.41 -1.86c-4.59,12.89 -4.35,15.54 -12.97,24.26 -5.92,5.99 -13.53,10.98 -24.41,12.88l0 88.12c11.39,2.28 18.1,6.47 24.42,12.88 8.58,8.69 8.41,11.37 12.96,24.24l50.24 0c7.4,0.04 9.65,1.31 13.75,-2.73 6.14,-6.05 29.87,-28.61 32.83,-33.59l-8.36 -19.67z"/>
   <path class="fil2" d="M172.82 292.25c1.43,-21.36 -13.22,-41.84 19.44,-86.47 2.95,-4.03 5.8,-5.99 9.1,-9.68 2.77,-3.11 7.53,-4.75 9.42,-8.38l-99.52 -0.45 0.01 159.12c12.74,1.81 13.4,-2.77 19.62,-8.98l40.26 -40.1c2.9,-3.47 1.82,-0.28 1.68,-5.07z"/>
   <path class="fil6" d="M111.16 170.27l0 -14.93 201.45 0.42 -13.93 14.49c24.25,0.03 22.04,5.5 40.04,-15.47l-322.85 -0.23 -0.21 224.99 96.9 -0.07c3.74,-0.66 14.5,-12.27 16.71,-15.39 -14.13,-1 -31.4,-0.26 -45.83,-0.18 -8.32,0.05 -13.1,0.69 -14.3,-8.27 -4.75,-35.57 -32.22,-25.4 -36.66,-33.37 -2.3,-4.12 -1.15,-80.66 -1.15,-91.72 -0.01,-32.78 2.34,-15.92 21.27,-25.65 17.29,-8.9 14.76,-23.23 17.23,-29.79 2.44,-6.49 11.04,-4.86 17.81,-4.85 7.84,0.01 15.68,-0.04 23.51,0.02z"/>
   <path class="fil7" d="M254.6 347.24c26.43,3.39 52.25,-4.76 70.08,-22.61 18.58,-18.58 25.46,-42.94 22.61,-70.08 -3.5,0.68 -4.52,2.71 -7.05,5.3 -2.14,2.18 -3.57,3.58 -5.73,5.74l-69.39 69.38c-4.04,4.04 -9.8,8.55 -10.52,12.27z"/>
   <path class="fil7" d="M186.91 279.64c3.73,-0.83 8.31,-6.62 12.28,-10.59l75.13 -75.12c2.57,-2.53 4.59,-3.55 5.37,-7.07 -56.17,-6.91 -99.83,36.57 -92.78,92.78z"/>
   <polygon class="fil4" points="111.16,170.27 298.68,170.24 312.6,155.75 111.16,155.33 "/>
   <path class="fil8" d="M186.91 279.64c1.26,7.4 3.67,14.47 6.19,20.63 4.89,-3.58 11.96,-11.59 16.76,-16.38 5.59,-5.58 9.75,-14.25 20.89,-9.47 2.41,-1.95 3.63,-3.35 5.84,-5.53 1.18,-1.16 2.12,-1.9 3.16,-3.07 2.55,-2.84 1.27,-0.61 2.6,-4.09 -4.64,-9.81 4.73,-15.07 9.76,-20.1 5.64,-5.64 10.52,-10.53 16.17,-16.17l32.02 -32.4c-6.15,-2.54 -13.23,-4.94 -20.62,-6.19 -0.78,3.52 -2.79,4.54 -5.37,7.07l-75.13 75.12c-3.97,3.97 -8.55,9.76 -12.28,10.59z"/>
   <path class="fil8" d="M254.6 347.24c0.72,-3.72 6.48,-8.23 10.52,-12.27l69.39 -69.38c2.16,-2.16 3.6,-3.56 5.73,-5.74 2.53,-2.58 3.55,-4.62 7.05,-5.3 -1.23,-7.42 -3.62,-14.52 -6.19,-20.68l-107.38 107.01c6.4,2.74 13.39,5.06 20.88,6.37z"/>
   <path class="fil5" d="M361.4 241.87c-0.07,-4.98 0.04,-3.18 7.04,-10.16l36.52 -36.52c2.97,-2.97 5.38,-7.28 10.35,-7.83 7.94,-0.88 30.41,-1.44 35.19,1.45 -0.76,-4.93 -9.15,-3 -14.36,-2.99 -5.56,0.01 -11.13,-0.02 -16.69,-0 -7.6,0.02 -28.16,-1.74 -32.54,1.77 -3.5,2.81 -32.47,32.26 -33.87,34.62l8.36 19.67z"/>
   <path class="fil9" d="M227.91 379.8c-2.79,-2.02 -0.41,-0.13 -2.63,-0.99l-3.23 -1.35 13.56 -13.58c-7.32,0.01 -21.48,-2.21 -26.58,1.6 -2.82,2.11 -10.88,10.96 -13.53,13.86l32.4 0.47z"/>
   <path class="fil9" d="M430.72 170.26c1.79,-3.39 8.93,-10.83 12.19,-13.16 4.63,-3.31 18.09,-1.74 24.52,-1.74 16.79,0 34.38,-0.51 51.06,0.1l-95.93 -0.91c-4.75,0.51 -6.71,4.2 -9.51,7.01 -2.95,2.96 -5.73,5.27 -8.09,8.46l25.74 0.24z"/>
  </g>
 </g>
</svg>
