<?xml version="1.0" encoding="UTF-8"?>
<!DOCTYPE svg PUBLIC "-//W3C//DTD SVG 1.1//EN" "http://www.w3.org/Graphics/SVG/1.1/DTD/svg11.dtd">
<!-- Creator: CorelDRAW 2020 (64-Bit) -->
<svg xmlns="http://www.w3.org/2000/svg" xml:space="preserve" width="43.8543mm" height="43.8543mm" version="1.1" style="shape-rendering:geometricPrecision; text-rendering:geometricPrecision; image-rendering:optimizeQuality; fill-rule:evenodd; clip-rule:evenodd"
viewBox="0 0 546.65 546.65"
 xmlns:xlink="http://www.w3.org/1999/xlink"
 xmlns:xodm="http://www.corel.com/coreldraw/odm/2003">
 <defs>
  <style type="text/css">
   <![CDATA[
    .fil2 {fill:black}
    .fil0 {fill:#0DCAF0}
    .fil8 {fill:#67C843}
    .fil11 {fill:#68C944}
    .fil6 {fill:#7DD160}
    .fil7 {fill:#97DA7B}
    .fil4 {fill:#ACE093}
    .fil5 {fill:#FAF7F7}
    .fil10 {fill:#FBDD30}
    .fil3 {fill:#FC636E}
    .fil9 {fill:#FCE259}
    .fil1 {fill:white}
   ]]>
  </style>
 </defs>
 <g id="Capa_x0020_1">
  <metadata id="CorelCorpID_0Corel-Layer"/>
  <path class="fil0" d="M273.32 0c150.95,0 273.32,122.37 273.32,273.32 0,150.95 -122.37,273.32 -273.32,273.32 -150.95,0 -273.32,-122.37 -273.32,-273.32 0,-150.95 122.37,-273.32 273.32,-273.32zm0 21.41c139.13,0 251.91,112.78 251.91,251.91 0,139.13 -112.78,251.91 -251.91,251.91 -139.13,0 -251.91,-112.78 -251.91,-251.91 0,-139.13 112.78,-251.91 251.91,-251.91z"/>
  <circle class="fil1" cx="273.32" cy="273.32" r="251.91"/>
  <g id="_2070405292800">
   <path class="fil2" d="M265.54 337.72c-5.67,-0.99 -10.96,-2.75 -15.8,-4.82l81.28 -81c1.95,4.66 3.76,10.04 4.68,15.65 2.16,20.54 -3.05,38.98 -17.11,53.05 -13.5,13.51 -33.04,19.68 -53.05,17.11zm148.29 -119.93c5.25,12.58 11.03,22.98 27.81,25.88l0 66.71c-8.23,1.4 -14.03,5.23 -18.49,9.74 -6.52,6.61 -6.26,8.56 -9.81,18.36l-97.84 -0.12c2.51,-2 5.97,-4.4 8.12,-6.42 7.7,-7.22 13.86,-14.72 18.32,-25.08 11.01,-25.55 3.66,-37.22 4.44,-48.9l-6.33 -14.89c1.06,-1.78 22.99,-24.07 25.64,-26.2 3.31,-2.66 18.88,-1.33 24.63,-1.34 4.21,-0.01 8.43,0.01 12.64,0 3.95,-0.01 10.29,-1.46 10.87,2.27zm-181.46 -0.82c-1.43,2.75 -5.03,3.99 -7.13,6.34 -2.5,2.8 -4.65,4.28 -6.88,7.33 -24.72,33.78 -13.63,49.29 -14.71,65.45l6.33 14.89c-2.24,3.77 -20.2,20.84 -24.85,25.42 -3.1,3.06 -4.81,2.09 -10.4,2.06l-38.03 -0c-3.44,-9.74 -3.31,-11.77 -9.81,-18.35 -4.79,-4.85 -9.86,-8.02 -18.49,-9.75l0 -66.7c8.23,-1.44 14,-5.22 18.48,-9.75 6.52,-6.6 6.34,-8.6 9.81,-18.36l95.69 1.41zm66.54 -13.23l-141.94 0.02c-5.93,-0.05 -11.87,-0.01 -17.8,-0.02 -5.12,-0.01 -11.63,-1.24 -13.48,3.67 -1.87,4.97 0.05,15.82 -13.04,22.55 -14.33,7.37 -16.1,-5.39 -16.1,19.42 0,8.37 -0.87,66.31 0.87,69.43 3.36,6.03 24.16,-1.67 27.75,25.26 0.9,6.78 4.53,6.3 10.82,6.26 10.92,-0.06 23.99,-0.62 34.69,0.14 -1.68,2.37 -9.82,11.15 -12.65,11.65l-73.35 0.05 0.15 -170.3 244.38 0.17c-13.62,15.87 -11.95,11.73 -30.31,11.71zm-148.47 -23.92c5.41,-9.18 20.17,-22.19 29.63,-29.34 38.61,-29.15 90.48,-39.6 138.32,-25.85 14.84,4.27 41.87,16.03 51.45,26.03 -1.33,3.45 -12.15,13.11 -15.35,16.29 -8.73,8.7 -10.52,13.16 -17.83,13.14 -17.28,-0.05 -177.73,0.67 -186.22,-0.27zm205.92 239.31c-4.68,-5.71 -13.67,1.08 -19.93,3.81 -6.75,2.94 -13.87,5.28 -21.21,7.22 -32.47,8.6 -67.29,6.49 -98.32,-5.77 -11.04,-4.36 -30.27,-14.28 -36.71,-21 1.41,-3.67 21.7,-22.63 25.98,-26.98 3.36,-3.42 4.38,-2.44 10.4,-2.4 4.47,0.03 8.95,0 13.43,0 8.66,0 19,2.54 20.54,-5.92 -0.8,-4.24 -1.38,-4.65 -5.2,-5.73l-24.53 -0.35c2,-2.19 8.1,-8.9 10.24,-10.49 3.86,-2.88 14.58,-1.21 20.12,-1.21l151.79 -0c6.07,0 19.08,2.4 21.37,-3.68 1.05,-2.77 0.62,-6.71 2.12,-10.55 5.81,-14.92 19.24,-13.52 23.12,-14.86 6.28,-2.17 3.91,-14.94 3.91,-21.28 0,-16.85 -0,-33.7 0,-50.55 0,-9.96 2.59,-15.99 -7.91,-17.15 -7.95,-0.88 -13.36,-4.74 -16.31,-9.17 -12.92,-19.36 8.23,-19.51 -30.4,-19.31l-19.49 -0.18c1.78,-2.41 3.89,-4.16 6.12,-6.4 2.12,-2.13 3.6,-4.92 7.2,-5.3l72.61 0.69 -0.11 169.61 -181.49 0.01c-12.16,0 -18.32,-2.02 -19.77,5.93 1.52,8.56 13.72,5.91 29.25,5.91 15.19,0 98.81,-0.59 106.42,0.21 -3.32,5.67 -12.13,13.56 -16.86,18.44 -11.18,11.52 -17.68,10.74 -15.19,19.39 5.42,5.98 10.43,0.61 14.38,-2.85 8.19,-7.18 16.19,-13.8 23.13,-22.69 1.62,-2.07 8.53,-11.36 10.54,-12.51l22.5 0c-2.67,6.71 -11.64,17.8 -16.29,23.76 -10.77,13.81 -31.69,31.89 -46.76,40.89 -77.74,46.42 -174.22,34.66 -235.11,-28.14l-14.83 -16.77c-3.64,-4.53 -10.8,-13.87 -13.19,-19.75l23.69 0c10.79,21.69 25.82,2.92 32.65,-3.91l77.82 -77.78c2.84,-2.97 2.79,-5.79 1.42,-9.71 -8.44,-3.62 -11.58,2.94 -15.81,7.17 -3.63,3.62 -8.98,9.69 -12.68,12.4 -1.91,-4.66 -3.74,-10.02 -4.69,-15.62 -5.34,-42.54 27.71,-75.46 70.23,-70.23 5.6,0.95 10.95,2.77 15.61,4.69l-24.24 24.53c-4.28,4.27 -7.97,7.97 -12.24,12.24 -3.81,3.81 -10.9,7.79 -7.39,15.21 7.67,4.79 11.14,-2.06 21.77,-12.68l95.96 -95.96c7.17,-7.12 13.07,-16.38 1.34,-24.78 -60.53,-43.32 -141.7,-44.41 -202.37,1.44 -7.52,5.68 -14.8,11.93 -20.54,18.17 -23.43,25.48 -8.68,20.86 -40.51,20.86 2.81,-6.9 11.54,-17.66 16.28,-23.78 1.35,-1.74 2.36,-2.57 3.66,-4.22 9.02,-11.53 29.44,-28.06 43.09,-36.67 26.35,-16.63 62.01,-28.33 100.06,-28.33 40.06,0 71.27,11.46 99.55,28.04 20.89,12.25 35.99,27.32 50.36,45.2 3.56,4.42 10.9,14.03 13.18,19.76l-23.64 0c-2.16,-4.41 -5.86,-9.6 -13.09,-9.8 -7.36,-0.2 -11.65,5.81 -14.85,8.99l-210.49 210.47c-3.24,3.22 -8.68,7.34 -7.66,15.21 0.9,6.95 6.37,9.59 10.99,12.8 8.88,6.16 19.61,12.22 30.7,16.68 41.95,16.89 94.56,17.84 136.47,-2.94 6.06,-3.01 12.17,-4.12 9.83,-12.32zm-258.25 -239.25c-5.81,0 -25.27,-2.87 -25.27,10.27l0 173.75c0,4.46 4.03,8.47 7.73,9.64 3.39,1.07 12.58,0.62 17.54,0.62 2.19,8.19 23.96,35.42 29.42,40.87 3.09,3.08 5.6,5.6 8.69,8.69l29.56 23.35 22.36 12.39c3.77,1.9 7.81,3.61 12.07,5.31 13.82,5.51 27.33,9.16 42.09,11.61 33.05,5.5 63.48,2.66 93.63,-6.56l24.92 -9.83c4.03,-2.02 7.67,-3.63 11.56,-5.81 26.82,-15 47.5,-33.55 65.87,-58.12 3.06,-4.09 12.72,-18.46 13.64,-21.9 5.22,0 25.27,2.94 25.27,-10.27l0 -173.75c0,-12.66 -17.97,-10.27 -25.27,-10.27 -0.93,-3.48 -7.31,-12.69 -9.8,-16.27 -8.89,-12.76 -20.99,-27.35 -32.66,-37.63 -20.97,-18.47 -46.27,-33.15 -72.94,-41.57 -40.53,-12.8 -81.93,-12.56 -122.43,-0.19 -18.77,5.74 -31.44,12.79 -47.82,22.47 -4.1,2.42 -6.61,4.46 -10.37,7.01l-9.81 7.56c-6.65,5.97 -11.87,11.07 -18.18,17.36 -7.13,7.12 -27.65,33.14 -29.82,41.27z"/>
   <path class="fil3" d="M256.28 273c-1.01,2.64 -0.04,0.95 -1.97,3.1 -0.79,0.88 -1.5,1.44 -2.39,2.32 -1.67,1.65 -2.6,2.71 -4.42,4.19 1.37,3.93 1.43,6.74 -1.42,9.71l-77.82 77.78c-6.83,6.83 -21.86,25.6 -32.65,3.91l-23.69 0c2.39,5.87 9.55,15.21 13.19,19.75l14.83 16.77c60.89,62.8 157.37,74.57 235.11,28.14 15.07,-9 35.99,-27.08 46.76,-40.89 4.65,-5.96 13.62,-17.05 16.29,-23.76l-22.5 0c-2.01,1.15 -8.92,10.44 -10.54,12.51 -6.94,8.89 -14.94,15.51 -23.13,22.69 -3.94,3.46 -8.96,8.83 -14.38,2.85 -1.53,2.41 0.14,0.58 -2.48,2.43 -1.06,0.74 -1.6,0.95 -2.95,1.79 -2.14,1.33 -3.13,2.42 -5.76,2.85 2.34,8.19 -3.77,9.31 -9.83,12.32 -41.91,20.78 -94.52,19.83 -136.47,2.94 -11.09,-4.46 -21.82,-10.52 -30.7,-16.68 -4.62,-3.2 -10.1,-5.84 -10.99,-12.8 -1.01,-7.86 4.43,-11.98 7.66,-15.21l210.49 -210.47c3.2,-3.17 7.49,-9.19 14.85,-8.99 7.23,0.2 10.93,5.38 13.09,9.8l23.64 0c-2.28,-5.73 -9.62,-15.34 -13.18,-19.76 -14.37,-17.87 -29.48,-32.95 -50.36,-45.2 -28.28,-16.58 -59.49,-28.04 -99.55,-28.04 -38.05,0 -73.71,11.7 -100.06,28.33 -13.65,8.61 -34.06,25.15 -43.09,36.67 -1.3,1.65 -2.31,2.49 -3.66,4.22 -4.74,6.12 -13.47,16.88 -16.28,23.78 31.83,0 17.08,4.62 40.51,-20.86 5.74,-6.24 13.02,-12.49 20.54,-18.17 60.67,-45.85 141.84,-44.76 202.37,-1.44 11.74,8.4 5.83,17.66 -1.34,24.78l-95.96 95.96c-10.63,10.63 -14.1,17.47 -21.77,12.68z"/>
   <path class="fil4" d="M346.39 257.96c-0.78,11.68 6.57,23.35 -4.44,48.9 -4.47,10.36 -10.63,17.86 -18.32,25.08 -2.15,2.02 -5.61,4.43 -8.12,6.42l97.84 0.12c3.55,-9.8 3.28,-11.75 9.81,-18.36 4.46,-4.51 10.26,-8.34 18.49,-9.74l0 -66.71c-16.79,-2.9 -22.56,-13.3 -27.81,-25.88 -3.62,-2.19 -20.63,-1.76 -26.64,-1.09 -3.76,0.42 -5.58,3.68 -7.83,5.93l-27.64 27.64c-5.3,5.29 -5.38,3.92 -5.33,7.69z"/>
   <path class="fil5" d="M356.35 419.13c2.63,-0.43 3.62,-1.53 5.76,-2.85 1.36,-0.84 1.9,-1.05 2.95,-1.79 2.63,-1.85 0.96,-0.02 2.48,-2.43 -2.49,-8.65 4.01,-7.88 15.19,-19.39 4.73,-4.88 13.55,-12.77 16.86,-18.44 -7.62,-0.8 -91.23,-0.21 -106.42,-0.21 -15.53,0 -27.73,2.65 -29.25,-5.91l-13.39 -0.01c-1.54,8.46 -11.89,5.92 -20.54,5.92 -4.47,0 -8.96,0.03 -13.43,-0 -6.02,-0.04 -7.04,-1.02 -10.4,2.4 -4.27,4.35 -24.57,23.31 -25.98,26.98 6.44,6.71 25.67,16.63 36.71,21 31.03,12.26 65.85,14.37 98.32,5.77 7.34,-1.95 14.45,-4.28 21.21,-7.22 6.26,-2.72 15.25,-9.52 19.93,-3.81z"/>
   <path class="fil5" d="M150.44 179.82c8.49,0.94 168.94,0.22 186.22,0.27 7.31,0.02 9.09,-4.43 17.83,-13.14 3.2,-3.18 14.02,-12.84 15.35,-16.29 -9.58,-10 -36.61,-21.76 -51.45,-26.03 -47.83,-13.75 -99.71,-3.3 -138.32,25.85 -9.46,7.14 -24.22,20.16 -29.63,29.34z"/>
   <path class="fil6" d="M398.86 203.75c38.63,-0.2 17.48,-0.05 30.4,19.31 2.95,4.43 8.37,8.29 16.31,9.17 10.5,1.16 7.91,7.19 7.91,17.15 -0,16.85 0,33.7 0,50.55 0,6.34 2.36,19.11 -3.91,21.28 -3.88,1.34 -17.3,-0.06 -23.12,14.86 -1.5,3.85 -1.07,7.78 -2.12,10.55 -2.29,6.08 -15.31,3.68 -21.37,3.68l-151.79 0 -10.27 10.28 2.44 1.02c1.68,0.65 -0.12,-0.78 1.99,0.75 3.81,1.08 4.4,1.49 5.2,5.73l13.39 0.01c1.45,-7.95 7.61,-5.93 19.77,-5.93l181.49 -0.01 0.11 -169.61c-12.63,-0.46 -25.95,-0.08 -38.65,-0.08 -4.87,0 -15.05,-1.19 -18.56,1.31 -2.47,1.77 -7.87,7.4 -9.23,9.97z"/>
   <path class="fil7" d="M203.64 296.1c0.1,3.62 0.92,1.21 -1.28,3.83l-30.47 30.35c-4.71,4.7 -5.2,8.17 -14.85,6.79l-0.01 -120.45 75.33 0.34 -95.69 -1.41c-3.47,9.76 -3.29,11.76 -9.81,18.36 -4.48,4.53 -10.25,8.31 -18.48,9.75l0 66.7c8.62,1.73 13.7,4.9 18.49,9.75 6.5,6.58 6.36,8.61 9.81,18.35l38.03 0c5.6,0.03 7.3,0.99 10.4,-2.06 4.64,-4.58 22.61,-21.66 24.85,-25.42l-6.33 -14.89z"/>
   <path class="fil4" d="M203.64 296.1c1.08,-16.17 -10,-31.67 14.71,-65.45 2.23,-3.05 4.39,-4.53 6.88,-7.33 2.1,-2.35 5.7,-3.59 7.13,-6.34l-75.33 -0.34 0.01 120.45c9.65,1.37 10.14,-2.1 14.85,-6.79l30.47 -30.35c2.19,-2.63 1.38,-0.21 1.28,-3.83z"/>
   <path class="fil8" d="M156.97 203.76l0 -11.3 152.48 0.32 -10.54 10.97c18.35,0.02 16.68,4.16 30.31,-11.71l-244.38 -0.17 -0.15 170.3 73.35 -0.05c2.83,-0.5 10.98,-9.29 12.65,-11.65 -10.69,-0.75 -23.77,-0.2 -34.69,-0.14 -6.29,0.04 -9.92,0.52 -10.82,-6.26 -3.59,-26.92 -24.39,-19.22 -27.75,-25.26 -1.74,-3.12 -0.87,-61.05 -0.87,-69.43 -0,-24.81 1.77,-12.05 16.1,-19.42 13.09,-6.73 11.17,-17.58 13.04,-22.55 1.85,-4.91 8.36,-3.68 13.48,-3.67 5.93,0.01 11.87,-0.03 17.8,0.02z"/>
   <path class="fil9" d="M265.54 337.72c20.01,2.56 39.55,-3.61 53.05,-17.11 14.06,-14.07 19.27,-32.51 17.11,-53.05 -2.65,0.51 -3.42,2.06 -5.34,4.01 -1.62,1.65 -2.7,2.71 -4.34,4.35l-52.52 52.52c-3.06,3.06 -7.42,6.47 -7.96,9.29z"/>
   <path class="fil9" d="M214.31 286.55c2.82,-0.63 6.29,-5.01 9.3,-8.02l56.87 -56.86c1.95,-1.91 3.47,-2.69 4.06,-5.35 -42.52,-5.23 -75.57,27.68 -70.23,70.23z"/>
   <polygon class="fil6" points="156.97,203.76 298.91,203.74 309.45,192.77 156.97,192.46 "/>
   <path class="fil10" d="M214.31 286.55c0.95,5.6 2.77,10.96 4.69,15.62 3.7,-2.71 9.05,-8.77 12.68,-12.4 4.23,-4.22 7.38,-10.79 15.81,-7.17 1.82,-1.48 2.75,-2.54 4.42,-4.19 0.89,-0.88 1.6,-1.44 2.39,-2.32 1.93,-2.15 0.96,-0.46 1.97,-3.1 -3.51,-7.43 3.58,-11.4 7.39,-15.21 4.27,-4.27 7.96,-7.97 12.24,-12.24l24.24 -24.53c-4.66,-1.92 -10.01,-3.74 -15.61,-4.69 -0.59,2.66 -2.12,3.44 -4.06,5.35l-56.87 56.86c-3.01,3.01 -6.47,7.39 -9.3,8.02z"/>
   <path class="fil10" d="M265.54 337.72c0.54,-2.82 4.91,-6.23 7.96,-9.29l52.52 -52.52c1.64,-1.64 2.72,-2.69 4.34,-4.35 1.92,-1.96 2.69,-3.5 5.34,-4.01 -0.93,-5.62 -2.74,-10.99 -4.68,-15.65l-81.28 81c4.85,2.07 10.13,3.83 15.8,4.82z"/>
   <path class="fil7" d="M346.39 257.96c-0.05,-3.77 0.03,-2.4 5.33,-7.69l27.64 -27.64c2.25,-2.25 4.07,-5.51 7.83,-5.93 6.01,-0.67 23.02,-1.09 26.64,1.09 -0.58,-3.73 -6.92,-2.27 -10.87,-2.27 -4.21,0.01 -8.43,-0.01 -12.64,0 -5.75,0.02 -21.32,-1.32 -24.63,1.34 -2.65,2.13 -24.58,24.42 -25.64,26.2l6.33 14.89z"/>
   <path class="fil11" d="M245.34 362.37c-2.11,-1.53 -0.31,-0.1 -1.99,-0.75l-2.44 -1.02 10.27 -10.28c-5.54,0 -16.26,-1.67 -20.12,1.21 -2.14,1.59 -8.24,8.3 -10.24,10.49l24.53 0.35z"/>
   <path class="fil11" d="M398.86 203.75c1.36,-2.57 6.76,-8.2 9.23,-9.97 3.51,-2.51 13.69,-1.31 18.56,-1.31 12.71,0 26.02,-0.38 38.65,0.08l-72.61 -0.69c-3.6,0.39 -5.08,3.17 -7.2,5.3 -2.24,2.24 -4.34,3.99 -6.12,6.4l19.49 0.18z"/>
  </g>
 </g>
</svg>
