<?xml version="1.0" encoding="UTF-8"?>
<!DOCTYPE svg PUBLIC "-//W3C//DTD SVG 1.1//EN" "http://www.w3.org/Graphics/SVG/1.1/DTD/svg11.dtd">
<!-- Creator: CorelDRAW 2020 (64-Bit) -->
<svg xmlns="http://www.w3.org/2000/svg" xml:space="preserve" width="155.498mm" height="211.061mm" version="1.1" style="shape-rendering:geometricPrecision; text-rendering:geometricPrecision; image-rendering:optimizeQuality; fill-rule:evenodd; clip-rule:evenodd"
viewBox="0 0 80.21 108.86"
 xmlns:xlink="http://www.w3.org/1999/xlink"
 xmlns:xodm="http://www.corel.com/coreldraw/odm/2003">
 <defs>
  <style type="text/css">
   <![CDATA[
    .fil1 {fill:black}
    .fil0 {fill:#E3F4F6}
   ]]>
  </style>
 </defs>
 <g id="Capa_x0020_1">
  <metadata id="CorelCorpID_0Corel-Layer"/>
  <g id="_2446389767792">
   <path class="fil0" d="M19.15 2l3.24 0c0.31,1.16 0.99,1.21 2.45,1.21l12.24 -0.01c4.91,0 29.65,-0.34 32.37,0.22 2.12,0.44 4.3,1.82 5.2,2.99 1.21,1.57 2.48,3.53 2.24,5.82 0.47,0.61 0.08,84.34 0.03,84.41 0.2,1.73 -0.86,4.06 -1.62,5.03 -2.58,3.28 -5.15,4 -9.33,3.99 -3.02,-0.01 -4.64,-0.52 -5,1.52 0.01,0.17 0.04,0.32 0.08,0.46l-3.2 0c0.03,-0.14 0.04,-0.29 0.03,-0.46 -0.27,-1.47 -0.93,-1.53 -2.52,-1.53l-12.24 0.01c-4.91,0 -29.65,0.34 -32.37,-0.22 -2.12,-0.44 -4.3,-1.82 -5.2,-2.99 -1.21,-1.57 -2.48,-3.53 -2.24,-5.82 -0,-0 -0.36,-83.97 -0.03,-84.41 -0.2,-1.73 0.86,-4.06 1.62,-5.03 2.58,-3.28 5.15,-4 9.33,-3.99 2.85,0.01 4.46,0.46 4.93,-1.2z"/>
   <path class="fil1" d="M80.2 15.69l0 -0.01 0 0c0.02,-3.87 0.01,-5.95 -1.58,-9.02 -1.32,-2.55 -3.93,-4.71 -6.67,-5.76 -4.34,-1.65 -14.6,-0.45 -18.02,-0.83l-16.26 0 -5.11 0.08c0.03,-0.03 0.06,-0.06 0.09,-0.08l-6.09 0c-0.45,0.06 -1.1,0.02 -1.69,0l-0.78 0c-0.08,0 -0.16,0.01 -0.23,0.02 -0.88,0.11 -1.62,0.62 -1.54,1.59 0.27,1.47 0.93,1.53 2.52,1.53l12.24 -0.01c4.91,0 29.65,-0.34 32.37,0.22 2.12,0.44 4.3,1.82 5.2,2.99 1.21,1.57 2.48,3.53 2.24,5.82 0.47,0.61 0.08,84.34 0.03,84.41 0.2,1.73 -0.86,4.06 -1.62,5.03 -2.58,3.28 -5.15,4 -9.33,3.99 -3.02,-0.01 -4.64,-0.52 -5,1.52 0.07,1.07 0.72,1.48 1.65,1.61l2.91 0c0.15,-0 0.29,-0.01 0.44,-0.01 3.92,0 7.32,-0.62 9.98,-3.25 3.28,-3.25 4.07,-5.68 4.24,-9.25 0,-26.85 -0.17,-53.75 -0,-80.59zm-76.89 80.94c-0.24,2.29 1.04,4.25 2.24,5.82 0.9,1.17 3.08,2.55 5.2,2.99 2.73,0.57 27.47,0.22 32.37,0.22l12.24 -0.01c1.59,-0 2.25,0.06 2.52,1.53 0.08,0.97 -0.66,1.48 -1.54,1.59 -0.07,0.01 -0.15,0.02 -0.23,0.02l-0.78 0c-0.59,-0.02 -1.23,-0.06 -1.69,0l-6.09 0c0.03,-0.03 0.06,-0.06 0.09,-0.08l-5.11 0.08 -16.26 0c-3.43,-0.38 -13.69,0.82 -18.02,-0.83 -2.75,-1.05 -5.35,-3.2 -6.67,-5.76 -1.59,-3.08 -1.6,-5.15 -1.58,-9.02l0 0 0 -0.01c0.16,-26.85 -0,-53.73 -0,-80.59 0.17,-3.58 0.97,-6.01 4.24,-9.25 2.66,-2.64 6.06,-3.26 9.98,-3.25 0.15,0 0.29,-0 0.44,-0.01l2.91 0c0.93,0.13 1.58,0.54 1.65,1.61 -0.36,2.04 -1.98,1.53 -5,1.52 -4.18,-0.01 -6.75,0.71 -9.33,3.99 -0.76,0.97 -1.82,3.3 -1.62,5.03 -0.33,0.44 0.03,84.41 0.03,84.41z"/>
   <path class="fil1" d="M17.47 19.67c-1.69,0.41 -2.03,2.93 0.95,2.97l19.06 -0.01c3.51,0 23.74,0.4 25.43,-0.11 1.28,-0.39 1.9,-2.9 -1.15,-2.94 -5.08,-0.07 -43.21,-0.17 -44.28,0.09z"/>
   <path class="fil1" d="M18.43 40.35l43.31 0c1.14,0 2.08,-0.27 2.18,-1.39 0.11,-1.36 -0.85,-1.66 -2.18,-1.66l-43.31 0c-3.12,0 -2.92,3.05 0,3.05z"/>
   <path class="fil1" d="M16.26 47.45c-0.02,1.41 0.71,1.74 2.08,1.74l43.47 0c1.38,-0.01 2.09,-0.41 2.09,-1.75 -0.33,-1.03 -0.62,-1.25 -1.95,-1.3 -1.03,-0.04 -2.17,0.01 -3.22,0.01l-37.5 0c-3.03,0 -4.42,-0.48 -4.98,1.3z"/>
   <path class="fil1" d="M17.54 28.52c-1.37,0.34 -1.78,1.65 -0.82,2.54 0.8,0.75 2.74,0.42 3.92,0.42 4.24,-0 24.7,0.25 25.94,-0.09 1.21,-0.34 1.44,-1.84 0.64,-2.55 -0.91,-0.8 -10.98,-0.4 -12.54,-0.4 -2.19,0 -16.23,-0.15 -17.14,0.08z"/>
   <path class="fil1" d="M51.05 28.53c-2.01,0.56 -1.14,2.26 -0.85,2.54 0.74,0.7 2.72,0.42 3.93,0.42 1.5,-0 7.71,0.19 8.7,-0.09 1.04,-0.29 1.6,-1.72 0.63,-2.56 -0.83,-0.72 -2.73,-0.4 -3.91,-0.4 -1.54,0 -7.5,-0.18 -8.49,0.09z"/>
   <path class="fil1" d="M62.65 55.42c1.69,0.41 2.03,2.93 -0.95,2.97l-19.06 -0.01c-3.51,0 -23.74,0.4 -25.43,-0.11 -1.28,-0.39 -1.9,-2.9 1.15,-2.94 5.08,-0.07 43.21,-0.17 44.28,0.09z"/>
   <path class="fil1" d="M61.69 76.1l-43.31 0c-1.14,0 -2.08,-0.27 -2.18,-1.39 -0.11,-1.36 0.85,-1.66 2.18,-1.66l43.31 0c3.12,0 2.92,3.05 0,3.05z"/>
   <path class="fil1" d="M63.86 83.21c0.02,1.41 -0.71,1.74 -2.08,1.74l-43.47 0c-1.38,-0.01 -2.09,-0.41 -2.09,-1.75 0.33,-1.03 0.62,-1.25 1.95,-1.3 1.03,-0.04 2.17,0.01 3.22,0.01l37.5 0c3.03,0 4.42,-0.48 4.98,1.3z"/>
   <path class="fil1" d="M62.59 64.28c1.37,0.34 1.78,1.65 0.82,2.54 -0.8,0.75 -2.74,0.42 -3.92,0.42 -4.24,-0 -24.7,0.25 -25.94,-0.09 -1.21,-0.34 -1.44,-1.84 -0.64,-2.55 0.91,-0.8 10.98,-0.4 12.54,-0.4 2.19,0 16.23,-0.15 17.14,0.08z"/>
   <path class="fil1" d="M29.08 64.29c2.01,0.56 1.14,2.26 0.85,2.54 -0.74,0.7 -2.72,0.42 -3.93,0.42 -1.5,-0 -7.71,0.19 -8.7,-0.09 -1.04,-0.29 -1.6,-1.72 -0.63,-2.56 0.83,-0.72 2.73,-0.4 3.91,-0.4 1.54,0 7.5,-0.18 8.49,0.09z"/>
  </g>
 </g>
</svg>
