<?xml version="1.0" encoding="UTF-8"?>
<!DOCTYPE svg PUBLIC "-//W3C//DTD SVG 1.1//EN" "http://www.w3.org/Graphics/SVG/1.1/DTD/svg11.dtd">
<!-- Creator: CorelDRAW 2020 (64-Bit) -->
<svg xmlns="http://www.w3.org/2000/svg" xml:space="preserve" width="249.32mm" height="241.005mm" version="1.1" style="shape-rendering:geometricPrecision; text-rendering:geometricPrecision; image-rendering:optimizeQuality; fill-rule:evenodd; clip-rule:evenodd"
viewBox="0 0 292.82 283.05"
 xmlns:xlink="http://www.w3.org/1999/xlink"
 xmlns:xodm="http://www.corel.com/coreldraw/odm/2003">
 <defs>
  <style type="text/css">
   <![CDATA[
    .fil2 {fill:black}
    .fil3 {fill:#558B30}
    .fil1 {fill:#8AC249}
    .fil0 {fill:url(#id0)}
   ]]>
  </style>
  <linearGradient id="id0" gradientUnits="userSpaceOnUse" x1="151.18" y1="0.06" x2="141.64" y2="282.99">
   <stop offset="0" style="stop-opacity:1; stop-color:#18CE0F"/>
   <stop offset="0.658824" style="stop-opacity:1; stop-color:#13A10C"/>
   <stop offset="1" style="stop-opacity:1; stop-color:#0D7308"/>
  </linearGradient>
 </defs>
 <g id="Capa_x0020_1">
  <metadata id="CorelCorpID_0Corel-Layer"/>
  <path class="fil0" d="M25.67 0l241.47 0c14.13,0 25.68,13.34 25.68,29.58l0 223.89c0,16.24 -11.58,29.58 -25.68,29.58l-241.47 0c-14.1,0 -25.67,-13.31 -25.67,-29.58l0 -223.89c0,-16.27 11.55,-29.58 25.67,-29.58z"/>
  <g id="_2071186314448">
   <path class="fil1" d="M251.17 224.43c1.34,-6.47 -6.97,-10.42 -10.88,-13.02 -4.91,-3.27 -9.65,-6.44 -14.5,-9.67 -4.41,-2.94 -26.14,-18.33 -29.64,-18.59 -1.5,1.02 -7.96,9.96 -9.7,12.11 -3.15,3.91 -5.45,8.21 -12.32,8.83l-4.1 2.58c-5.22,3.13 -9.59,0.31 -13.49,-1.85 -23.17,-12.84 -48.45,-37.86 -64.05,-58.66 -3.55,-4.73 -6.49,-9.49 -9.53,-15.09 -5.2,-9.56 -3.18,-9.96 0.86,-17.37 0.71,-6.92 5.17,-9.28 9.09,-12.44 2.16,-1.75 10.84,-7.99 11.86,-9.49 -0.23,-3.87 -24.27,-38.22 -28.24,-44.15 -2.58,-3.86 -6.61,-12.26 -13.02,-10.85 -2.03,0.37 -17.16,9.84 -18.7,11.36 -4.86,4.82 -6.92,13.43 -7.34,22.75 -0.83,18.26 5.65,33.45 12.15,47.44 6.29,13.54 20.54,33.02 30.58,44.68l14.34 15.77c8.84,9.52 13.55,13.73 22.69,22.03l4.09 3.66c1.51,1.36 2.46,2.29 3.82,3.47l16.89 13.22c20.32,15.13 48.91,30.65 75.55,29.25 9.15,-0.48 17.93,-2.53 22.37,-7.6 1.9,-2.16 10.81,-16.29 11.21,-18.4z"/>
   <path class="fil2" d="M63.52 36.78c1.25,-1.7 6.49,-4.7 9.59,-3.95 3.15,0.76 5.11,4.96 6.73,7.4l28.25 42.46c2.12,3.99 -0.31,7.77 -3.31,9.09 -1.03,1.5 -9.7,7.74 -11.86,9.49 -3.91,3.16 -8.38,5.51 -9.09,12.44 -0.22,8.74 10.26,23.35 15.4,29.84 1.76,2.23 3.31,3.92 4.92,6.02l19.3 20.4c1.01,1.03 1.54,1.89 2.57,2.89 8.37,8.04 21.58,19.13 31.42,24.71 4.94,2.8 9.73,6.75 16.69,6.53 6.86,-0.63 9.16,-4.92 12.32,-8.83 1.74,-2.16 8.2,-11.09 9.7,-12.11 3.97,-9.17 13.51,-0.39 17.59,2.34 5.78,3.87 11.25,7.39 17.05,11.26 5.85,3.91 11.27,7.52 16.96,11.32 2.32,1.55 6.55,3.63 7.34,6.78 0.77,3.1 -2.22,8.32 -3.92,9.58 -0.4,2.11 -9.32,16.24 -11.21,18.4 -4.44,5.07 -13.22,7.12 -22.37,7.6 -26.64,1.4 -55.23,-14.12 -75.55,-29.25l-16.89 -13.22c-1.36,-1.18 -2.31,-2.11 -3.82,-3.47l-4.09 -3.66c-9.14,-8.3 -13.85,-12.52 -22.69,-22.03l-14.34 -15.77c-10.04,-11.67 -24.29,-31.14 -30.58,-44.68 -6.5,-13.98 -12.98,-29.17 -12.15,-47.44 0.42,-9.32 2.48,-17.93 7.34,-22.75 1.54,-1.53 16.67,-10.99 18.7,-11.36zm7.89 -12.03l1.67 0c2.97,0.2 5.87,1.5 8.68,4.44 2.12,2.21 26.95,40.08 31.35,46.66 8.46,12.64 1.68,18.75 -8.15,26.07 -2.57,1.92 -4.85,3.89 -7.42,5.8 -2.17,1.62 -5.87,3.84 -5.87,7.36 0,4.45 12.57,22.18 15.2,25.4 8.28,10.18 15.58,17.46 24.61,26.49 0.9,0.9 1.58,1.68 2.51,2.51 1.12,0.99 1.61,1.16 2.74,2.28 5.71,5.66 15.78,13.67 22.77,17.83 13.07,7.79 14.21,9.59 20.74,0.83 1.92,-2.57 3.89,-4.85 5.8,-7.42l5.87 -7.36c1.94,-1.96 5.12,-4.44 8.79,-4.44 6.46,0 6.32,0.26 12.23,4.2l22.99 15.33c5.32,3.55 10.23,6.82 15.6,10.4 2.48,1.65 5.48,3.36 7.47,5.3 2.66,2.6 3.95,5.43 4.21,8.35l0 2.2c-0.22,2.66 -1.22,5.37 -2.76,8.04l-12.42 20.42c-8.82,11.82 -21.49,12.9 -35.91,12.9 -29.12,0 -63.65,-20.95 -86.32,-39.58 -2.2,-1.81 -4.04,-3.36 -6.18,-5.23 -1.19,-1.04 -1.99,-1.67 -3.19,-2.74 -1.18,-1.05 -1.76,-1.29 -2.96,-2.51l-8.94 -8.4c-7.55,-6.02 -22.74,-23.25 -30.51,-31.98 -12.54,-14.08 -28.65,-37.77 -35.77,-55.47 -5.93,-14.72 -8.6,-23.91 -8.6,-42.04 0,-6.12 1.57,-13.99 3.38,-18.52 3.47,-8.67 9.62,-12.16 16.55,-16.29 7.55,-4.5 14.89,-10.36 21.86,-10.8z"/>
   <path class="fil2" d="M231.26 133.77c5.36,0 4.56,-3.02 4.56,-8.21 0,-5.31 -1.35,-10.8 -2.46,-15.33 -2.11,-8.58 -9.58,-23.04 -15.67,-29.04 -0.91,-0.9 -1.4,-1.3 -2.21,-2.35 -4.37,-5.71 -16.77,-13.79 -23.78,-16.82 -7.98,-3.44 -18.61,-6.25 -29.78,-6.25 -4.18,0 -7.21,8.32 2.73,8.22 6.99,-0.07 17.65,2.49 23.73,5.46l9.27 4.87c1.18,0.73 1.81,1.28 2.91,2.11 4.61,3.47 8.89,7.18 12.52,11.66 3.75,4.63 6.74,9.66 9.36,15.27 7.62,16.31 3.17,30.42 8.81,30.42z"/>
   <path class="fil3" d="M174.14 204.09c-6.95,0.21 -11.75,-3.73 -16.69,-6.53 -9.84,-5.57 -23.05,-16.67 -31.42,-24.71 -1.04,-0.99 -1.57,-1.86 -2.57,-2.89l-19.3 -20.4c-1.61,-2.1 -3.16,-3.79 -4.92,-6.02 -5.14,-6.49 -15.62,-21.11 -15.4,-29.84 -4.04,7.41 -6.07,7.81 -0.86,17.37 3.05,5.6 5.98,10.36 9.53,15.09 15.6,20.79 40.88,45.81 64.05,58.66 3.9,2.16 8.27,4.98 13.49,1.85l4.1 -2.58z"/>
   <path class="fil2" d="M207.99 133.77c4.8,0 4.56,-2.68 4.56,-5.93 0,-14.69 -7.1,-25.93 -16.53,-35.47 -9.59,-9.7 -33.24,-16.61 -37.13,-11.79 -2.33,2.89 -0.24,6.51 3.92,6.68 4.68,0.18 7.87,0.63 11.48,1.75 15.86,4.93 27.89,18.69 29.93,35.31 0.32,2.57 -0.22,9.46 3.77,9.46z"/>
   <path class="fil3" d="M196.15 183.14c3.5,0.26 25.22,15.65 29.64,18.59 4.85,3.23 9.59,6.4 14.5,9.67 3.91,2.6 12.22,6.55 10.88,13.02 1.7,-1.27 4.69,-6.49 3.92,-9.58 -0.78,-3.15 -5.02,-5.23 -7.34,-6.78 -5.69,-3.8 -11.11,-7.41 -16.96,-11.32 -5.79,-3.87 -11.26,-7.39 -17.05,-11.26 -4.08,-2.73 -13.62,-11.51 -17.59,-2.34z"/>
   <path class="fil3" d="M63.52 36.78c6.41,-1.41 10.44,6.99 13.02,10.85 3.97,5.93 28.01,40.27 28.24,44.15 2.99,-1.32 5.43,-5.09 3.31,-9.09l-28.25 -42.46c-1.63,-2.44 -3.59,-6.64 -6.73,-7.4 -3.11,-0.75 -8.34,2.25 -9.59,3.95z"/>
   <path class="fil2" d="M185.19 133.77c8.54,0 2.64,-18.21 -5.4,-24.71 -2.57,-2.08 -5.81,-4.08 -9.35,-5.25 -2.2,-0.73 -3.58,-0.9 -6.21,-1.13 -6.89,-0.6 -6.94,3.95 -5.35,6.29 2.22,3.25 16.6,-0.32 21.47,15.04 1.24,3.91 -0.05,9.76 4.84,9.76z"/>
  </g>
 </g>
</svg>
