<?xml version="1.0" encoding="UTF-8"?>
<!DOCTYPE svg PUBLIC "-//W3C//DTD SVG 1.1//EN" "http://www.w3.org/Graphics/SVG/1.1/DTD/svg11.dtd">
<!-- Creator: CorelDRAW 2020 (64-Bit) -->
<svg xmlns="http://www.w3.org/2000/svg" xml:space="preserve" width="145.418mm" height="196.143mm" version="1.1" style="shape-rendering:geometricPrecision; text-rendering:geometricPrecision; image-rendering:optimizeQuality; fill-rule:evenodd; clip-rule:evenodd"
viewBox="0 0 129.06 174.08"
 xmlns:xlink="http://www.w3.org/1999/xlink"
 xmlns:xodm="http://www.corel.com/coreldraw/odm/2003">
 <defs>
  <style type="text/css">
   <![CDATA[
    .fil1 {fill:black}
    .fil5 {fill:#2762B9}
    .fil2 {fill:#3079E6}
    .fil7 {fill:#3B68B0}
    .fil4 {fill:#C81E1E}
    .fil3 {fill:#F34235}
    .fil6 {fill:#FEC108}
    .fil0 {fill:#FEDE00}
   ]]>
  </style>
 </defs>
 <g id="Capa_x0020_1">
  <metadata id="CorelCorpID_0Corel-Layer"/>
  <g id="_1752837437712">
   <path class="fil0" d="M25.76 41.48c-1.28,0.3 -3.14,0.25 -4.16,0.68l0.77 3.22 0.86 2.37c3.45,12.44 6.26,13.79 3.23,27.44 -1.46,6.61 1.42,6.29 1.84,8.8l86.09 0c-0.8,-7.1 0.8,-9.29 1.65,-15.16 -5.16,-0.36 -11.2,0.39 -16.2,-0.06 -2.49,-0.23 -3.41,-2.47 -4.57,-3.65 -1.23,-1.26 -2.8,-3.66 -4.25,-4.41 -3.32,0 -5.53,0.66 -6.02,-2.56l-4.86 0.08c-1.07,1.48 -0.92,2.4 -3.4,2.5 -1.79,0.07 -4.17,0.22 -5.2,-0.77 -3.84,-3.7 -4.24,-18.12 -4.75,-19.73 -1.18,-3.65 -7.46,-0.31 -7.41,-4.84 0.03,-3.5 6.4,-14.03 8.14,-16.38 3.41,-4.62 7.94,-7.41 13.35,-10.67 0.04,-8.24 -10.69,1.48 -11.59,2.24 -4.43,3.69 -5.31,6.06 -13.44,6.27 -3.53,6.95 -4.65,7.06 -11.05,3.83 -5.01,2.77 -3.75,10.26 -4.15,12.61 -0.44,2.6 -5.1,2.54 -9.53,7.19 0.64,2.86 2.48,10.38 -1.4,11.09 -2.71,0.5 -3.2,-1.54 -2.9,-3.94 0.48,-3.79 0.01,-3.4 -1.05,-6.13z"/>
   <path class="fil1" d="M118.95 104.55c-0.4,1.05 -1.04,1.65 -1.77,2.52 -0.72,0.86 -1.13,1.44 -1.67,1.96l-19.36 0.03c-2.74,0.71 -2.31,3.58 -2.58,6.56 -0.26,2.93 -0.58,5.94 -0.77,8.85l-40.58 0c-3.55,-0.02 -10.69,0.4 -13.8,-0.1 -4.53,-0.73 -5.22,-1.88 -11.98,-1.55 -2.82,0.14 -3.52,-0.74 -5.28,-1.93l-12.41 -7.95c-0.42,-9.14 4.02,-7.51 7.53,-8.31 1.06,-1.07 5.09,-8.38 6.47,-10.74 1.2,-2.04 0.93,-2.09 1.66,-4.29l91.46 -0c1.08,0.55 1.34,1.54 2.04,2.54 0.6,0.85 1.22,1.45 1.8,2.38 -0.05,0.07 -0.13,0.16 -0.17,0.2l-2.5 2c-4.77,3.43 -1.12,4.96 1.92,7.83zm-23.48 69.53l-1.17 0c-0.21,-0.04 -0.43,-0.11 -0.66,-0.2 -1.28,-0.51 -1.98,-2.34 -3.18,-3.31 -2.42,-1.95 -9.07,1.48 -9.84,-2.74 -0.31,-1.69 5.1,-10.43 5.98,-12.11 -1.5,-0.35 -2.62,-1.12 -4.46,-1.32 -2.88,-0.32 -6.67,0.54 -9.24,1.56 -1.45,0.57 -2.49,1.14 -4.02,1.43 -4.69,0.9 -9,-1.88 -10.51,-5.07 -1.01,-2.13 -0.14,-2.75 1.03,-3.9 4.72,-0.92 2.77,3.59 7.16,3.93 3.26,0.26 10.57,-5.28 19.61,-2.31 3.03,0.99 6.29,2.44 6.2,5.99 -0.73,1.14 -1.73,2.64 -1.85,3.92 -1.28,0.95 -2.33,3.41 -2.88,4.91 1.03,0.01 2.41,-0.07 3.39,0.02 1.84,0.17 1.35,0.52 2.63,1.12l1.37 -5.84c0.88,-2.23 4,-14.28 4.09,-16.68 0.31,-8.78 -5.56,-10.1 -6.52,-12.13 -0.8,-1.69 0.33,-1.13 -0.9,-1.78l-33.21 -0 -10.62 0.02c4,3.73 5.99,5.2 9.36,9.96 1.44,2.03 1.19,2.79 0.07,4.62 -3.85,2.08 -5.43,-5.43 -13.05,-10.68 -13.85,-9.55 -17.59,-2.66 -23.33,-6.59l-18.57 -12.03c-1.18,-0.77 -2.74,-1.57 -2.28,-3.48 0.47,-1.91 1.94,-2.28 3.57,-1.9 0,-4.05 2.51,-7.02 5.1,-8.5 0.82,-0.47 1.51,-0.72 2.44,-0.96 3.37,-0.85 1.91,-0.05 4.84,-5.02 5.54,-9.43 -1.81,-1.5 1.49,-15.51 0.49,-2.06 0.63,-3.15 0.91,-5.58 0.44,-3.86 -2.5,-12.12 -4.09,-15.92 -3,-7.16 -0.71,-3.85 2.1,-8.14 2.64,-4.03 -2.52,-8.37 1.38,-9.88 2.14,-0.82 3.28,0.96 3.77,2.19l0.77 3.22c0.3,5.94 -1.47,6.83 -3.5,9.7 2.29,7.86 5.81,13.05 4.45,22.04 -0.34,2.23 -1.35,5.27 -1.42,7.31 4.99,0.53 73.03,0.1 86.81,0.1l4.43 0.02c1.64,-0.24 0.64,0.32 1.26,-0.56 -0.8,-7.1 0.8,-9.29 1.65,-15.16 -5.16,-0.36 -11.2,0.39 -16.2,-0.06 -2.49,-0.23 -3.41,-2.47 -4.57,-3.65 -1.23,-1.26 -2.8,-3.66 -4.25,-4.41 -3.32,0 -5.53,0.66 -6.02,-2.56 -0.09,-2.24 1.62,-2.73 3.96,-2.74 2.36,-0.01 4.24,-0.24 5.56,0.93l6.02 7.24c4.56,0 13.24,-0.51 17.31,0.03 2.08,0.28 3.94,2.11 3.78,4.71 -0.14,2.4 -5.33,12.73 0.41,20.68 1.41,1.95 6.27,7.08 -0.43,10.63 0.97,1.44 3.09,3.27 4.75,6.13 1.27,2.18 4.18,10.33 1.72,12.58 -1.01,0.93 -2.93,0.88 -3.84,-0.26 -0.93,-1.16 -0.44,-2.84 -0.77,-4.67 -0.49,-2.76 -0.84,-2.83 -1.18,-4.26 -0.97,0.71 -2.21,2.75 -3.3,3.84 -1.76,1.76 -2.68,1.26 -5.88,1.26 -4.76,-0.01 -9.52,-0 -14.28,-0 0,2.16 -0.34,2.84 -0.34,5.1 1.56,0 6.02,-0.71 5.45,3.01 -0.41,2.65 -3.18,2.09 -6.13,2.09 0,2.05 0.04,2.77 -0.34,4.42 4.53,3.03 8.18,9.89 6.44,18l-5.15 20.01c-0.67,2.7 -1.12,6.64 -3.32,7.21z"/>
   <path class="fil2" d="M16.27 104.63l-1.85 3.47c2.2,2.1 15.74,10.52 16.44,10.61 3.14,0.39 5.93,-0.94 12.54,1.01 2.58,0.76 7.73,3.19 8.81,4.75l40.58 -0c0.18,-2.91 0.5,-5.92 0.77,-8.85 0.27,-2.98 -0.16,-5.85 2.58,-6.56l0.77 -1.98c0.11,-0.78 -0,-1.13 0.26,-1.85 0.87,-1.2 17.87,0.35 21.78,-0.68 -3.03,-2.87 -6.69,-4.41 -1.92,-7.83l2.5 -2c0.04,-0.04 0.12,-0.13 0.17,-0.2 -0.58,-0.94 -1.21,-1.53 -1.8,-2.38 -0.7,-1 -0.96,-1.99 -2.04,-2.54l-91.46 0c-0.72,2.2 -0.46,2.25 -1.66,4.29 -1.39,2.36 -5.42,9.67 -6.47,10.74z"/>
   <path class="fil1" d="M25.76 41.48c1.06,2.73 1.53,2.34 1.05,6.13 -0.31,2.4 0.19,4.44 2.9,3.94 3.88,-0.71 2.04,-8.23 1.4,-11.09 4.44,-4.65 9.09,-4.59 9.53,-7.19 0.4,-2.36 -0.86,-9.85 4.15,-12.61 6.4,3.24 7.52,3.13 11.05,-3.83 8.13,-0.21 9.01,-2.58 13.44,-6.27 0.9,-0.75 11.64,-10.48 11.59,-2.24 -5.41,3.26 -9.93,6.06 -13.35,10.67 -1.73,2.34 -8.1,12.88 -8.14,16.38 -0.04,4.53 6.24,1.19 7.41,4.84 0.52,1.61 0.91,16.03 4.75,19.73 1.02,0.99 3.41,0.84 5.2,0.77 2.48,-0.1 2.33,-1.01 3.4,-2.5 -1.16,-2.72 -1.02,-2.8 -5.1,-2.8 -5.39,-10.19 1.16,-19.61 -9.52,-22.1 1.53,-3.19 2.21,-5.38 4.49,-8.77 1.03,-1.53 1.59,-2.6 2.9,-3.9 6.13,-6.08 9.3,-6.56 11.41,-8.65 4.15,-4.1 0.91,-10.89 -4.65,-12l-3.2 0c-0.77,0.15 -1.55,0.4 -2.35,0.79 -3.2,1.53 -5.39,3.53 -7.98,5.62 -2.84,2.3 -4.81,5.12 -8.44,5.16 -3,0.04 -3.71,-0.17 -5.39,1.41 -1.62,1.53 -1.46,2.49 -2.45,4.35 -2.34,-0.19 -4.73,-4.53 -9.27,-0.09 -6.73,6.57 -4.13,11.97 -5.66,14.06 -0.02,0.03 -3.63,2.26 -4.16,2.64 -2.35,1.72 -6.55,4.45 -5.04,7.53z"/>
   <path class="fil3" d="M92.38 156.02c-0.73,1.14 -1.73,2.64 -1.85,3.92 -0.55,1.34 -0.16,0.18 0.16,0.68 1.69,0 2.93,0.29 4.36,-0.48 0.88,-2.23 4,-14.28 4.09,-16.68 0.31,-8.78 -5.56,-10.1 -6.52,-12.13 -0.8,-1.69 0.33,-1.13 -0.9,-1.78l-33.21 -0c0.26,0.85 2.66,3.69 3.23,4.46 1.13,1.52 2.08,3.05 3.04,4.78 2.19,3.94 2.85,7.82 6.96,9.06 3.99,1.2 8.16,-2.22 12.68,-2.75 5.14,-0.6 9.53,0.41 12.2,3.29l-2.96 5.54c-0.15,0.27 -0.31,0.6 -0.47,0.87l-0.62 0.96c-0.04,0.06 -0.12,0.17 -0.19,0.25z"/>
   <path class="fil4" d="M57.31 144.16l2.11 4.26c4.72,-0.92 2.77,3.59 7.16,3.93 3.26,0.26 10.57,-5.28 19.61,-2.31 3.03,0.99 6.29,2.44 6.2,5.99 0.07,-0.08 0.14,-0.19 0.19,-0.25l0.62 -0.96c0.16,-0.27 0.32,-0.6 0.47,-0.87l2.96 -5.54c-2.67,-2.87 -7.06,-3.89 -12.2,-3.29 -4.52,0.53 -8.69,3.95 -12.68,2.75 -4.11,-1.24 -4.77,-5.12 -6.96,-9.06 -0.96,-1.73 -1.91,-3.26 -3.04,-4.78 -0.57,-0.77 -2.98,-3.61 -3.23,-4.46l-10.62 0.02c4,3.73 5.99,5.2 9.36,9.96 1.44,2.03 1.19,2.79 0.07,4.62z"/>
   <path class="fil5" d="M52.21 124.47c-1.08,-1.56 -6.23,-3.98 -8.81,-4.75 -6.6,-1.96 -9.4,-0.63 -12.54,-1.01 -0.7,-0.09 -14.24,-8.51 -16.44,-10.61l1.85 -3.47c-3.52,0.79 -7.95,-0.83 -7.53,8.31l12.41 7.95c1.76,1.19 2.46,2.07 5.28,1.93 6.76,-0.33 7.45,0.81 11.98,1.55 3.11,0.5 10.25,0.08 13.8,0.1z"/>
   <path class="fil6" d="M114.4 83.98l-86.09 0c-0.41,-2.51 -3.3,-2.19 -1.84,-8.8 3.02,-13.65 0.22,-15.01 -3.23,-27.44l-0.86 -2.37c0.3,5.94 -1.47,6.83 -3.5,9.7 2.29,7.86 5.81,13.05 4.45,22.04 -0.34,2.23 -1.35,5.27 -1.42,7.31 4.99,0.53 73.03,0.1 86.81,0.1l4.43 0.02c1.64,-0.24 0.64,0.32 1.26,-0.56z"/>
   <path class="fil7" d="M96.14 109.06l19.36 -0.03c0.55,-0.52 0.96,-1.1 1.67,-1.96 0.73,-0.87 1.37,-1.46 1.77,-2.52 -3.92,1.03 -20.92,-0.52 -21.78,0.68 -0.26,0.71 -0.15,1.07 -0.26,1.85l-0.77 1.98z"/>
   <path class="fil1" d="M15.9 20.74c0,1.59 1.74,2.04 3.06,2.04 2.54,0 3.4,-8.39 3.4,-9.52 0,-3.14 -3.91,-3.53 -4.99,-0.91 -0.49,1.19 -1.47,6.78 -1.47,8.39z"/>
   <path class="fil1" d="M19.3 3.74c0,1.53 0.24,3.4 2.38,3.4 3.26,0 5.12,-7.14 0,-7.14 -1.45,0 -2.38,2.1 -2.38,3.74z"/>
   <path class="fil4" d="M95.05 160.14c-1.43,0.76 -2.66,0.48 -4.36,0.48 -0.32,-0.5 -0.7,0.66 -0.16,-0.68 -1.28,0.95 -2.33,3.41 -2.88,4.91 1.03,0.01 2.41,-0.07 3.39,0.02 1.84,0.17 1.35,0.52 2.63,1.12l1.37 -5.84z"/>
  </g>
 </g>
</svg>
