<?xml version="1.0" encoding="UTF-8"?>
<!DOCTYPE svg PUBLIC "-//W3C//DTD SVG 1.1//EN" "http://www.w3.org/Graphics/SVG/1.1/DTD/svg11.dtd">
<!-- Creator: CorelDRAW 2020 (64-Bit) -->
<svg xmlns="http://www.w3.org/2000/svg" xml:space="preserve" width="203.628mm" height="163.852mm" version="1.1" style="shape-rendering:geometricPrecision; text-rendering:geometricPrecision; image-rendering:optimizeQuality; fill-rule:evenodd; clip-rule:evenodd"
viewBox="0 0 200.68 161.48"
 xmlns:xlink="http://www.w3.org/1999/xlink"
 xmlns:xodm="http://www.corel.com/coreldraw/odm/2003">
 <defs>
  <style type="text/css">
   <![CDATA[
    .fil7 {fill:black;fill-rule:nonzero}
    .fil5 {fill:#38C2FC;fill-rule:nonzero}
    .fil2 {fill:#5B5D6D;fill-rule:nonzero}
    .fil6 {fill:#CBE580;fill-rule:nonzero}
    .fil1 {fill:#D8DEEC;fill-rule:nonzero}
    .fil4 {fill:#F0F2FA;fill-rule:nonzero}
    .fil3 {fill:#FC4755;fill-rule:nonzero}
    .fil0 {fill:#FEDE00;fill-rule:nonzero}
   ]]>
  </style>
 </defs>
 <g id="Capa_x0020_1">
  <metadata id="CorelCorpID_0Corel-Layer"/>
  <g id="_1752492490416">
   <polygon class="fil0" points="33.55,110.85 24.23,68.7 29.14,68.02 25.93,49.4 36.42,47.88 33.21,32.13 45.23,28.75 41.84,14.36 73.5,9.96 115.14,10.63 125.98,9.79 128.52,2.51 148.49,4.2 149.17,11.65 159.16,12.66 162.71,29.59 167.79,30.95 167.11,45.68 175.07,48.72 173.04,64.81 183.03,67.85 178.29,111.53 134.78,112.54 126.15,129.3 77.73,129.47 68.08,112.38 "/>
   <polygon class="fil1" points="2.6,114.31 3.34,136.58 9.71,155.86 92.63,158.67 164.51,155.49 192.59,153.24 197.27,114.87 192.78,106.63 181.92,95.96 178.29,111.53 134.78,112.54 126.15,129.3 77.73,129.47 68.08,112.38 33.55,110.85 26.74,89.04 "/>
   <g>
    <path class="fil2" d="M99.93 137.52c-5.8,1.22 -17.44,-1.89 -19.76,5.7 -1.05,3.44 1.29,4.44 4.29,4.99 6.36,1.15 13.61,0.53 20.06,0.55 5.05,0.01 10.39,0.05 15.36,-0.88 3.19,-0.6 4.94,-1.66 5.49,-5.25 0.59,-3.85 -1.87,-4.42 -5.06,-4.68 -6.84,-0.55 -13.56,-0.58 -20.38,-0.42z"/>
    <path class="fil2" d="M25.62 89.41c-5.15,5.18 -10.78,9.86 -15.48,15.48 -1.88,2.25 -4.65,4.91 -5.42,7.85 4.95,0.63 10.82,-0.84 15.93,-0.77 3.88,0.06 7.79,0.06 11.66,-0.34 0.62,-4.71 -1.29,-10.13 -2.68,-14.58 -0.85,-2.75 -1.1,-6.62 -4.01,-7.64z"/>
    <path class="fil2" d="M181.74 97.46c-1.27,3.35 -1.33,7.23 -1.87,10.73 -0.25,1.64 -0.64,3.12 -0.56,4.79 5.2,0.34 10.67,1.02 15.89,0.74 0.43,-4.02 -2.48,-7.06 -5.4,-9.27 -3.05,-2.31 -4.76,-5.64 -8.06,-6.99z"/>
   </g>
   <path class="fil3" d="M133.29 65.87c-0,-0.96 0.04,-1.91 0.01,-2.87 -0.02,-0.96 -1.01,-4.09 -0.48,-4.89 0.73,-1.11 6.27,-0.41 7.56,-0.48 4.57,-0.25 9.14,-0.07 13.71,-0.34 1.42,-0.09 2.87,-0.31 4.25,-0.13 0.48,1.36 0.07,3.6 0.15,5.06 0.05,0.94 0.04,1.88 0.07,2.81 -5.37,0.63 -10.78,1.05 -16.19,0.71 -3.31,-0.21 -6.59,-0.59 -9.11,0.13z"/>
   <path class="fil4" d="M132.94 45.27c0.01,-2.1 0.07,-4.22 0.27,-6.3 1.52,-0.02 2.86,-0 4.39,0.21 3.41,0.49 7,0.23 10.45,0.35 1.11,0.04 2.55,-0.31 3.28,0.37 0.92,0.87 0.66,4.98 0.31,6.17 -1.87,0.05 -3.73,-0.17 -5.65,-0.05 -4.76,0.3 -9.07,0.27 -13.04,-0.75z"/>
   <path class="fil5" d="M128.59 27.76c0.38,-1.38 0.38,-2.84 0.57,-4.25 0.12,-0.91 0.05,-2.89 0.68,-3.7 0.67,-0.87 2.84,-1.04 3.84,-1.1 5.02,-0.32 10.04,1.08 15.03,1.06 0.36,1 0.77,0.98 0.81,2.21 0.06,1.88 0.33,4.52 -0.09,6.38 -2.99,0.5 -6.35,-0.41 -9.4,-0.23 -3.74,0.22 -7.48,-0.01 -11.43,-0.37z"/>
   <path class="fil6" d="M146.67 3.16c-3.39,-0.96 -7.07,-1.2 -10.58,-1.26 -1.71,-0.03 -3.39,0.38 -5.09,0.5 -0.63,0.04 -1.86,-0.17 -2.44,0.07 -1,0.42 -0.9,1.39 -1.1,2.59 -0.32,1.86 -0.79,3.67 -0.83,5.56 0.82,0.23 1.8,0.08 2.65,0.08 2.74,0 5.44,0.25 8.14,0.7 3.4,0.57 6.75,0.74 10.2,0.81 0.6,0.01 2.51,0.39 2.85,-0.24 0.49,-0.91 -0.48,-3.22 -0.78,-4.09 -0.56,-1.59 -1.04,-2.89 -3.01,-4.71z"/>
   <path class="fil7" d="M200.45 114.66c0.12,-0.44 0.07,-0.94 -0.22,-1.46 -2.25,-4.01 -5.62,-7.48 -8.62,-10.93 -1.51,-1.73 -3,-3.47 -4.52,-5.18 -1.02,-1.15 -2.1,-2.39 -3.37,-3.31 1.02,-9.05 1.69,-18.15 1.85,-27.22 0.02,-1.34 -1.13,-2.41 -2.43,-2.43 -2.6,-0.06 -5.19,-0.1 -7.79,-0.15 1,-5.07 1.86,-10.15 2.62,-15.27 0.25,-1.66 -0.63,-2.85 -2.31,-3.04 -2.04,-0.23 -4.08,-0.42 -6.13,-0.58 0.58,-4.82 0.74,-9.72 0.54,-14.57 -0.05,-1.3 -1.02,-2.25 -2.32,-2.32 -1.23,-0.07 -2.46,-0.13 -3.69,-0.19 0.29,-4.58 -0.32,-9.59 -1.4,-13.97 -0.43,-1.77 -1.39,-3.05 -3.23,-3.51 -2.54,-0.64 -5.42,-0.61 -8.03,-0.83 0.02,-1.66 0.14,-3.42 -0.1,-5.01 -0.19,-1.27 -0.81,-2.2 -2.08,-2.63 -1.71,-0.57 -3.84,-0.5 -5.63,-0.72 -1.82,-0.22 -3.64,-0.46 -5.47,-0.68 -1.92,-0.23 -3.85,-0.44 -5.79,-0.53 -1.72,-0.08 -4.08,-0.44 -5.69,0.31 -1.15,0.54 -1.58,1.55 -1.62,2.77 -0.05,1.65 0.05,3.31 0.08,4.96 -2.09,-0.07 -4.18,-0.13 -6.27,-0.18 -21.21,-0.52 -42.76,-1.07 -63.88,1.36 -2.91,0.34 -5.8,0.78 -8.71,1.17 -2.29,0.31 -5.16,0.21 -6.2,2.76 -0.88,2.14 0.21,5.37 0.65,7.52 0.48,2.32 1.02,4.67 1.73,6.95 -0.65,0.05 -1.29,0.1 -1.94,0.15 -2.54,0.2 -5.11,0.7 -7.65,0.46 -1.32,-0.12 -2.69,1.29 -2.58,2.58 0.42,5.33 2.04,10.28 3.99,15.19 -2.72,0.29 -5.44,0.61 -8.15,0.97 -1.74,0.23 -2.62,1.38 -2.38,3.12 0.73,5.29 2.35,10.52 4.33,15.5 -1.45,-0.02 -2.9,-0.05 -4.34,-0.1 -1.73,-0.07 -2.74,1.66 -2.43,3.19 1.24,6.05 2.43,12.13 3.7,18.19 -2.56,2.1 -4.82,4.65 -7.14,6.99 -2.75,2.78 -5.44,5.61 -8.11,8.47 -2.46,2.64 -5.1,5.22 -7.31,8.08 -1.35,1.74 -2.31,3.59 -2.14,5.61 -0.58,3.9 -0.13,8.28 0.1,12.18 0.26,4.34 0.78,8.67 1.52,12.95 0.72,4.15 1.39,8.72 3.09,12.6 1.6,3.69 4.88,4.78 8.62,5.21 36.64,4.24 73.88,1.68 110.63,0.51 18.41,-0.59 36.9,-0.69 55.28,-2.08 3.78,-0.29 8.61,-0.02 12.07,-1.78 3.45,-1.75 4.34,-5.69 5.23,-9.12 2.25,-8.66 3.64,-17.78 3.81,-26.74 0.03,-1.65 0.15,-3.58 -0.19,-5.26zm-17.34 -15.89c1.69,2.24 3.6,4.38 5.24,6.52 1.28,1.66 2.54,3.39 3.88,5.06 -0.34,0 -0.67,0.01 -1,0l-7.5 -0.11c-0.75,-0.01 -1.5,-0.03 -2.25,-0.04 0.59,-3.8 1.14,-7.61 1.63,-11.44zm-23.62 -76.34c0.13,1.78 0.18,3.57 0.26,5.35 -2.67,-0.13 -5.33,-0.25 -8,-0.37 0.11,-1.78 0.06,-3.65 -0.07,-5.44 2.6,0.24 5.21,0.41 7.8,0.45zm-30.54 -17.12l0.12 -0.76c0.03,-0.14 0.06,-0.25 0.08,-0.35 0.42,0.09 1.6,0.05 1.51,0.05 2.63,0 5.25,0.28 7.85,0.59 2.45,0.29 4.9,0.59 7.34,0.89l0.76 0.1c0.33,0.16 0.55,0.22 0.67,0.18 0.01,0.22 0.03,0.45 0.04,0.67 0.05,0.9 0.05,1.81 0.05,2.71 -6.28,-0.48 -12.58,-0.83 -18.88,-1.07 0.13,-1 0.27,-2 0.43,-3zm-84.14 10.35c0.22,-0.67 1.41,-0.66 2.31,-0.84 1.06,-0.21 2.12,-0.39 3.19,-0.55 2.48,-0.37 4.97,-0.68 7.46,-0.95 9.28,-0.98 18.6,-1.3 27.92,-1.36 18.97,-0.12 38.01,0.18 56.95,1.5 2.6,0.18 5.19,0.38 7.78,0.61 1.23,0.11 2.46,0.22 3.68,0.34 0.99,0.1 3.33,-0.13 4.09,0.42 0.04,0.03 0.04,0.05 0.23,0.36 0.28,0.47 0.38,1.75 0.48,2.29 0.12,0.67 0.22,1.35 0.31,2.03 -0.07,-0.55 -22.12,-1.75 -24.23,-1.92 -1.47,-0.12 -2.97,-0.24 -4.38,0.2 -0.84,0.26 -1.6,0.72 -2.43,0.99 -1.11,0.36 -2.3,0.38 -3.47,0.4 -6.75,0.11 -13.51,0.34 -20.26,0.37 -8.29,0.04 -16.57,-0.11 -24.85,-0.37 -0.41,-2.83 -3.72,-4.11 -6.56,-4.12 -5.36,-0.04 -10.79,0.6 -16.14,0.2 -0.73,-0.05 -1.27,0.53 -1.51,1.15 -0.47,1.24 -0.77,2.55 -1.02,3.85 -2.93,0.33 -5.89,0.46 -8.83,0.65 -0.06,-0.6 -0.13,-1.19 -0.21,-1.79 -0.12,-0.83 -0.77,-2.69 -0.52,-3.47zm102.94 11.58c-5.73,-0.23 -11.46,-0.42 -17.19,-0.58 0.15,-1.88 -0.21,-5.15 1.87,-6.02 0.95,-0.4 2.02,-0.34 3.04,-0.27 2.38,0.15 4.77,0.31 7.15,0.46 0.45,0.03 0.9,0.06 1.35,0.09 0.85,0.06 1.72,0.11 2.5,0.45 0.99,0.43 1.36,1.01 1.34,1.99 -0.03,1.29 -0.17,2.54 -0.05,3.87zm-20.51 -0.67c-21.73,-0.53 -43.47,-0.51 -65.19,0.17 -4.9,0.15 -9.79,0.32 -14.68,0.65 -0.44,0.03 -0.88,0.07 -1.33,0.1 -0.04,-1.53 -0.18,-3.05 -0.31,-4.58 3.27,-0.05 6.57,-0.17 9.82,0 0.66,0.04 1.12,-0.47 1.35,-1.03 0.48,-1.19 0.94,-2.4 1.26,-3.64 3.07,-0.28 6.21,-0.23 9.28,-0.32 1.63,-0.05 10.63,-1.13 9.2,2.3 -0.39,0.92 0.57,1.85 1.42,1.87 8.8,0.21 17.59,0.25 26.39,0.18 7.57,-0.06 15.26,0.03 22.84,-0.59 -0.03,0.32 -0.05,0.63 -0.07,0.92 -0.1,1.34 -0.09,2.66 0.03,3.97zm-86.89 5.4c2.33,-0.32 4.67,-0.5 7.01,-0.65 4.2,-0.27 8.4,-0.41 12.6,-0.54 8.74,-0.26 17.48,-0.42 26.22,-0.48 17.35,-0.12 34.69,0.16 52.03,0.84 9.13,0.36 18.26,0.91 27.38,1.54 0.1,1.48 0.14,2.95 0.14,4.42 -5.9,0.08 -11.8,0.09 -17.69,0.08 -3.94,-0.48 -7.91,-0.67 -11.88,-0.49 -1.22,0.05 -2.81,-0.08 -4.01,0.41 -4.07,-0.02 -8.14,-0.05 -12.22,-0.06 -8.05,-0.02 -16.11,-0.13 -24.16,-0.2 -4.03,-0.03 -8.05,-0.07 -12.08,-0.09 -1.94,-0.01 -3.89,-0.02 -5.83,-0.04 -0.68,-0.01 -1.85,0.13 -2.51,-0.15 -0.92,-0.39 -0.9,-1.37 -1.41,-2.08 -0.71,-0.98 -1.85,-1.28 -3,-1.33 -2.09,-0.09 -4.24,0.14 -6.32,0.22 -4.71,0.17 -9.41,0.38 -14.13,0.32 -0.75,-0.01 -1.33,0.52 -1.57,1.2 -0.35,1.01 -0.68,2.03 -0.99,3.05 -3.72,0.43 -7.46,0.69 -11.19,1.12 -0.34,-2.13 -0.65,-4.27 -1,-6.4 1.5,-0.37 3.13,-0.48 4.61,-0.68zm125.31 7.81c-0.07,1.66 -0.2,3.32 -0.4,4.99 -3.6,-0.23 -7.22,-0.38 -10.82,-0.51 -0.11,-1.5 -0.21,-3 -0.32,-4.5 -0,-0.04 -0.01,-0.09 -0.02,-0.14 3.85,0.03 7.7,0.08 11.56,0.16zm-15.14 4.35c-1.44,-0.05 -2.88,-0.09 -4.32,-0.13 -3.99,-0.12 -7.98,-0.21 -11.97,-0.28 0,-1 0.02,-2.12 0.1,-2.89 0.14,0.02 0.35,-0.01 0.65,-0.11 0.52,-0.03 1.05,-0.06 1.57,-0.08 0.92,-0.04 1.83,-0.06 2.75,-0.06 3.71,-0.01 7.39,0.28 11.05,0.86 0.06,0.9 0.12,1.81 0.18,2.71zm-19.98 -0.48c-4.48,-0.07 -8.96,-0.11 -13.44,-0.11 -19.42,-0.03 -38.9,-0.17 -58.3,0.74 -6.93,0.32 -13.86,0.81 -20.77,1.49 -0.36,-1.55 -0.67,-3.11 -0.94,-4.68 3.99,-0.06 7.98,-0.32 11.98,-0.33 0.47,-0 1.08,-0.27 1.27,-0.73 0.45,-1.05 0.88,-2.1 1.29,-3.16 3.63,-0.29 7.27,-0.44 10.91,-0.58 1.94,-0.08 3.88,-0.15 5.82,-0.23 0.71,-0.03 1.88,-0.3 2.58,-0.09 1,0.3 1.03,1.32 1.54,2.02 1.71,2.31 5.4,1.72 7.87,1.72 4.03,-0.01 8.05,-0.01 12.08,-0.02 12.65,-0.04 25.3,-0 37.96,-0.02 -0.18,1.22 -0.03,2.67 0.14,4zm-46.23 4.04c19.38,-0.23 38.78,-0.32 58.15,0.47 10.24,0.42 20.42,1.34 30.63,2.11 -0.19,2.25 -0.48,4.51 -0.83,6.75 -2.35,-0.12 -4.74,0.11 -7.09,0.27 -1.41,0.1 -2.96,0.12 -4.42,0.36 0.01,-0.12 0.01,-0.24 0.02,-0.36 0.06,-1.16 -1.02,-2.08 -2.11,-2.11 -4.42,-0.12 -8.85,-0.17 -13.28,-0.15 -4.13,0.02 -8.4,-0.17 -12.44,0.86 -0.91,0.23 -1.46,1.04 -1.57,1.92 -15.41,0.01 -30.82,-0.02 -46.23,-0.08 -3.88,-0.01 -7.75,-0.03 -11.63,-0.04 -1.87,-0.01 -3.98,0.28 -5.81,-0.02 -1.58,-0.26 -1.34,-1.71 -1.98,-2.93 -1.42,-2.69 -4.67,-2.03 -7.22,-1.97 -3.74,0.08 -7.53,0.33 -11.27,0.08 -0.93,-0.06 -1.7,0.83 -1.71,1.71 -0.02,1.23 0.09,2.6 -0.3,3.79 -0.63,1.94 -3.19,1.48 -4.83,1.53 -3.27,0.09 -6.54,0.2 -9.82,0.3 -0.56,-2.87 -1.08,-5.74 -1.61,-8.62 18.22,-3.29 36.86,-3.65 55.34,-3.86zm87.43 12.27c-0.25,1.32 -0.52,2.63 -0.82,3.93 -3.49,-0.06 -6.99,-0.11 -10.48,-0.15 0.1,-1.35 0.16,-2.7 0.22,-4.05 1.49,0.2 3.08,0.17 4.51,0.22 2.18,0.07 4.39,0.2 6.57,0.05zm-15.32 -0.61c-0.1,1.45 -0.2,2.9 -0.24,4.35 -7.1,-0.06 -14.21,-0.09 -21.31,-0.09 0.2,-1.28 0.41,-2.55 0.59,-3.83 3.49,-0.65 7.21,-0.44 10.73,-0.47 3.41,-0.03 6.82,-0.01 10.23,0.05zm-25.17 1.18c-0.03,1.03 -0.05,2.06 -0.07,3.08 -24.15,0.05 -48.29,0.47 -72.43,1.16 -8.97,0.25 -18.03,0.89 -27.03,0.96 -0.26,-1.17 -0.51,-2.34 -0.74,-3.51 2.04,0.06 4.09,0.12 6.13,0.17 2.49,0.07 5.47,0.58 7.9,-0.03 3,-0.76 3.97,-3.53 4,-6.28 3.15,-0.26 6.34,-0.24 9.49,-0.34 1.65,-0.05 4.07,-0.76 4.88,1 0.45,0.97 0.47,2 1.19,2.86 0.82,0.97 1.93,1.2 3.14,1.26 1.93,0.09 3.89,-0.03 5.81,-0.04 3.88,-0.03 7.75,-0.05 11.63,-0.08 15.37,-0.1 30.74,-0.18 46.1,-0.22zm-76.25 8.53c10.29,-0.33 20.58,-0.58 30.88,-0.72 20.73,-0.29 41.46,-0.3 62.2,-0.03 10.87,0.14 21.74,0.35 32.6,0.62 -0.05,3.78 -0.16,7.54 -0.35,11.29 -16.49,-0.3 -32.98,-0.36 -49.47,-0.16 -8.57,0.1 -17.14,0.28 -25.71,0.53 -3.67,0.11 -7.61,0.68 -11.26,0.23 -1.49,-0.18 -3.07,-0.57 -3.37,-2.22 -0.23,-1.26 -0.07,-2.55 -1.1,-3.51 -1.19,-1.11 -3.05,-0.89 -4.54,-0.9 -2.33,-0.01 -4.67,-0.01 -7,0.01 -4.78,0.04 -9.63,0.37 -14.4,0.15 -0.63,-0.03 -1.45,0.52 -1.55,1.18 -0.21,1.36 -0.35,2.73 -0.46,4.1 -0.03,0.41 0.13,1.59 -0.2,1.93 -0.3,0.31 -1.77,0.11 -2.26,0.13 -3.48,0.15 -6.97,0.28 -10.45,0.45 -6.36,0.31 -12.71,0.59 -19.05,1.2 -0.91,-4.35 -1.84,-8.69 -2.77,-13.02 9.35,-0.96 18.87,-0.96 28.25,-1.26zm125.16 14.31c-0.55,8.96 -1.54,17.86 -3.14,26.76 -6.93,-0.11 -13.86,-0.24 -20.79,-0.36 -4.72,-0.08 -9.45,-0.16 -14.17,-0.24 -3.55,-0.05 -8.09,-1.03 -10.06,2.73 -2.09,3.99 -3.64,8.38 -5.44,12.51 -0.27,0.63 -0.59,1.87 -1.12,2.38 -0.68,0.65 -1.94,0.44 -2.84,0.46 -2.32,0.05 -4.65,0.15 -6.97,0.2 -9.16,0.2 -18.33,0.13 -27.49,-0.23 -2.19,-0.09 -4.37,-0.18 -6.56,-0.31 -2.05,-0.11 -3.38,-0.31 -4.36,-2.25 -1.95,-3.85 -3.13,-8.31 -5.51,-11.92 -2.31,-3.51 -6.66,-3.02 -10.37,-3.18 -4.56,-0.2 -9.12,-0.31 -13.69,-0.35 -4.45,-0.03 -8.9,-0.01 -13.36,0.09 -1.14,-8.15 -2.68,-16.25 -4.35,-24.32 7.6,0.15 15.21,-0.11 22.81,-0.35 2.09,-0.07 4.18,-0.13 6.27,-0.2 1.26,-0.04 2.78,0.1 3.93,-0.54 2.02,-1.12 2.12,-4.42 2.14,-6.86 3.7,-0.33 7.47,-0.3 11.17,-0.35 2.06,-0.03 4.12,-0.05 6.18,-0.05 0.96,-0 1.92,-0 2.88,0 0.48,0 1.03,-0.1 1.49,0.01 0.83,0.2 0.72,0.32 0.89,1.18 0.24,1.2 0.11,2.15 0.84,3.22 0.67,0.98 1.76,1.67 2.87,2.05 3.12,1.07 6.82,0.46 10.03,0.36 16.99,-0.56 34,-0.84 51,-0.82 9.24,0.01 18.49,0.15 27.73,0.36zm-172.63 26.61c2.33,-2.25 4.66,-4.48 7.01,-6.71 2.35,-2.23 4.66,-4.49 6.97,-6.75 1.49,-1.45 3.09,-2.86 4.58,-4.35 1.29,5.91 2.68,11.8 4.29,17.62 -3.52,0.13 -7.04,0.31 -10.54,0.57 -1.88,0.14 -3.77,0.3 -5.64,0.48 -2.04,0.05 -4.08,0.11 -6.12,0.21 -0.63,0.03 -1.25,0.07 -1.86,0.14 0.46,-0.42 0.91,-0.82 1.31,-1.21zm187.82 6.69c-0.02,0.95 -0.07,1.89 -0.12,2.84 -0.12,2.29 -0.25,4.59 -0.45,6.87 -0.36,4.2 -0.94,8.37 -1.73,12.52 -0.35,1.86 -0.74,3.71 -1.16,5.56 -0.42,1.83 -0.68,4.08 -1.64,5.73 -0.87,1.5 -2.66,1.54 -4.21,1.71 -2.17,0.24 -4.35,0.44 -6.53,0.62 -4.22,0.35 -8.45,0.61 -12.68,0.82 -8.51,0.42 -17.03,0.66 -25.54,0.9 -34.26,0.99 -68.69,2.94 -102.95,1.35 -8.4,-0.39 -17.04,-0.62 -25.36,-1.84 -1.73,-0.25 -2.84,-0.75 -3.52,-2.44 -0.74,-1.85 -1.16,-3.92 -1.64,-5.86 -1,-4.06 -1.79,-8.18 -2.31,-12.33 -0.52,-4.1 -0.82,-8.24 -0.85,-12.37 -0.01,-1.11 -0.44,-4.06 0.52,-4.75 0.44,-0.32 1.53,-0.2 2.05,-0.23 1.25,-0.08 2.49,-0.2 3.74,-0.3 2.58,-0.21 5.15,-0.42 7.73,-0.61 12.95,-0.57 25.89,-0.82 38.87,-0.25 2.07,0.09 4.15,0.2 6.22,0.32 0.87,0.05 2.12,-0.07 2.95,0.24 0.79,0.29 1.07,1.11 1.42,1.84 1.71,3.62 3,7.6 5.06,11.03 2,3.32 5.14,3.87 8.74,4.07 4.1,0.22 8.2,0.39 12.3,0.49 8.48,0.22 16.96,0.2 25.44,-0.06 3.55,-0.11 7.83,0.28 9.8,-3.31 1.84,-3.34 3.02,-7.22 4.47,-10.74 0.66,-1.6 1.14,-4.51 3.06,-4.68 2.16,-0.19 4.5,0.14 6.67,0.21 4.17,0.13 8.34,0.25 12.51,0.37 8.75,0.25 17.51,0.49 26.26,0.78 2.08,0.07 4.17,0.14 6.25,0.2l2.92 0.1c0.87,0.03 2.63,-0.23 3.45,0.12 0.04,0.02 0.17,0.07 0.25,0.08 -0.05,0.19 -0.01,0.88 -0.01,0.97z"/>
   <path class="fil7" d="M122.8 136.17c-1.24,-0.45 -2.7,-0.67 -4.3,-0.66 -6.52,0.07 -13.04,0.26 -19.55,0.57 -5.28,0.25 -10.54,0.12 -15.79,0.78 -1.71,0.22 -3.51,0.83 -4.5,2.25 -0.91,1.31 -0.96,3.01 -0.97,4.6 -0.01,1.61 0.04,3.39 1.15,4.56 0.95,1 2.42,1.26 3.79,1.45 11.51,1.59 23.15,1.48 34.72,0.64 3.58,-0.26 7.82,-1.07 9.14,-4.94 1.66,-4.83 -0.16,-7.98 -3.7,-9.27zm-1.19 9.84c-1.54,0.79 -3.38,0.86 -5.07,0.97 -5.86,0.4 -11.74,0.65 -17.61,0.54 -2.91,-0.05 -5.9,-0.07 -8.79,-0.45 -2.13,-0.28 -4.62,0.15 -6.63,-0.56 -1.63,-0.58 -2.99,-2.3 -2.54,-3.97 0.58,-2.15 3.38,-2.61 5.6,-2.65 10.51,-0.22 21.03,-0.3 31.52,-0.77 0.33,0.02 0.66,0.03 0.99,0.06 1.95,0.13 4.27,-0.17 4.35,2.29 0.06,1.81 -0.05,3.63 -1.82,4.55z"/>
   <g>
   </g>
   <g>
   </g>
   <g>
   </g>
   <g>
   </g>
   <g>
   </g>
   <g>
   </g>
   <g>
   </g>
   <g>
   </g>
   <g>
   </g>
   <g>
   </g>
   <g>
   </g>
   <g>
   </g>
   <g>
   </g>
   <g>
   </g>
   <g>
   </g>
  </g>
 </g>
</svg>
