<?xml version="1.0" encoding="UTF-8"?>
<!DOCTYPE svg PUBLIC "-//W3C//DTD SVG 1.1//EN" "http://www.w3.org/Graphics/SVG/1.1/DTD/svg11.dtd">
<!-- Creator: CorelDRAW 2020 (64-Bit) -->
<svg xmlns="http://www.w3.org/2000/svg" xml:space="preserve" width="999.327mm" height="898.696mm" version="1.1" style="shape-rendering:geometricPrecision; text-rendering:geometricPrecision; image-rendering:optimizeQuality; fill-rule:evenodd; clip-rule:evenodd"
viewBox="0 0 3773.81 3393.79"
 xmlns:xlink="http://www.w3.org/1999/xlink"
 xmlns:xodm="http://www.corel.com/coreldraw/odm/2003">
 <defs>
  <style type="text/css">
   <![CDATA[
    .fil1 {fill:black}
    .fil4 {fill:#F0D233}
    .fil0 {fill:#F5E165}
    .fil3 {fill:#F5E681}
    .fil2 {fill:#F8EEAE}
   ]]>
  </style>
 </defs>
 <g id="Capa_x0020_1">
  <metadata id="CorelCorpID_0Corel-Layer"/>
  <g id="_2070130685456">
   <path class="fil0" d="M2118.77 2251.16c0.56,26.75 -25.32,46.59 -41.72,63.54 -14.46,14.95 -30.84,39.3 -56.21,40.11 36.29,99.87 -57.55,99.24 -122.86,133.68 0,89.1 -0.74,137.19 -45.48,198.79 -28.18,38.8 -88.66,78.58 -163.87,78.62 -79.22,0.04 -128.67,-39.82 -162.84,-79.75 -47.45,-55.45 -44.25,-115.91 -44.25,-200.85 -138.58,-38.23 -232.55,-128.19 -290.64,-223.88 -155.4,-255.99 85.4,-435.25 260.07,-333.74 85.71,49.81 73.92,110.88 115.82,142.37 31.56,23.72 188.53,30.85 229.83,8.46 66.15,-35.86 61.51,-130.15 3.5,-160.78 -74.17,-39.16 -264.46,22.23 -433.15,-82.91 -397.55,-247.78 -296.7,-801.16 114.57,-924.58 0,-84.83 -3.23,-145.87 44.12,-201.32 102.05,-119.5 261.06,-91.74 326.93,-1.11 44.67,61.47 45.39,109.92 45.39,198.84 34.68,21.4 76.27,25.18 151.21,76.36 45.13,30.82 86.58,74.8 114.49,114.24 70.75,99.99 116.2,221.07 18.81,327.52 -86.87,94.95 -256.13,73.96 -319.11,-19.91 -40.2,-59.92 -34.58,-98.36 -130.32,-99.32 -73.75,-0.74 -151.07,-11.42 -183.68,39.26 -38.01,59.08 -1.86,128.72 54.91,141.61 82.43,18.72 334.41,-44.64 518.46,160.33 122.76,136.71 176.68,317.04 113.95,510.61 -19.28,59.49 -39.22,128.04 -117.91,93.83zm-929.82 608.11c296,62.2 647.02,-30.58 863.32,-156.39 710.02,-412.95 877,-1340.42 397.61,-1958.39 -43.96,-56.67 -79.83,-92.76 -127.24,-144.68 -18.06,-26.13 -170.89,-87.54 -214.98,-102.97 -273.48,-95.68 -589.34,-93.11 -854.23,6.18 -320.61,120.18 -556.92,345.49 -698.55,621.19 -296.48,577.13 -92.27,1265.29 416.82,1621.97 38.52,26.99 169.06,109.72 217.25,113.08z"/>
   <path class="fil1" d="M2360.93 3250.19c37.94,-13.7 118.91,-57.75 154.15,-77.19 134.38,-74.14 92.14,-95.58 307.67,-80.93 -71.47,50.82 -355.3,154.88 -461.81,158.12zm-2360.93 -1463.52l0 -141.24c6.01,-144.91 30.27,-292.75 72.12,-443.46 23.95,-86.26 85.4,-237.52 130.07,-312.33 107.11,-179.41 235.91,-361.1 402.41,-489.76 21.86,-16.89 36.47,-31.18 61.09,-49.51 23.63,-17.6 40.96,-30.93 64.25,-46.35l136.98 -84.22c51.54,-30.58 91.36,-47.82 148.09,-73.11 73.66,-32.84 113.46,-59.23 148.9,2.52 5.71,81.25 -37.9,65.15 -179.65,136.04 -219.23,109.63 -374.81,241.63 -526.47,425.03 -443.09,535.79 -461.36,1309.12 -57.05,1898.99 92.88,135.5 187.31,226.1 308.36,325.82 52.75,43.46 317.98,226.12 405.6,226.69 27.65,29.03 97.04,41.37 139.82,53.57 161.79,46.15 321.51,65.6 493.28,59.99 583.21,-19.05 1090.6,-359.49 1352.84,-865.82 183.7,-354.69 221.45,-824.84 80.79,-1231.54 -66.47,-192.16 -163.04,-347.97 -266.88,-477.85 -24.11,-30.15 -62.7,-77.84 -86.43,-97.9 -66.61,-56.32 -217.49,-212.63 -313.75,-246.79 -41.89,-70.48 -420.66,-189.9 -541.24,-211.48 -353.88,-63.34 -565.54,10.03 -616.43,6.98 -38.7,-2.32 -39.77,-21.12 -58.97,-41.54 1.03,-38.78 14.29,-57.78 47.29,-67.72 67.69,-20.39 224.83,-31.35 299.55,-32.26 42.58,-0.52 55.57,-8.03 102.76,-7.84 82.58,0.34 271.44,-5.41 328.86,3.28 64.76,9.8 149.22,5.77 215.66,12.92 549.65,59.08 1057.84,423.26 1303.93,915.44 141.66,283.33 197.21,557.15 172.27,926.87 -19.6,290.63 -118.56,516.7 -258.67,751.48 -197.6,331.12 -583.67,602.7 -948.1,710.89 -244.44,72.57 -508.06,71.71 -821.4,71.28 -46.7,-0.07 -61.27,-8.1 -110.18,-7.79 -91.65,0.58 -218.13,-19.16 -296.99,-34.81 -419.69,-83.28 -822.19,-362.62 -1055.55,-721.42 -174.42,-268.18 -264.78,-549.37 -277.13,-843.02zm2993.57 1192.94l-198.33 -0.52c20.2,-25.73 63.01,-62.89 87.51,-87.22 29.23,-29.03 68.87,-62.37 87.55,-97.08l245.68 -1.67c-18.79,38 -119.63,117.37 -157.87,148.74 -16.04,13.16 -41.58,37.75 -64.54,37.75zm75.82 -297.38c2.32,-12.24 92.72,-156.44 110.81,-185.9l263.91 -0.52c-7.13,28.27 -89.91,146.8 -109.82,169.32 -27.24,30.81 -215.98,17.11 -264.9,17.11zm441.12 -297.4l-273.95 0.47 69.14 -185.55 276.69 -1.15c-16.2,66.31 -55.19,128.77 -71.88,186.23zm95.04 -296.9l-270.08 -0.33 33.24 -185.63 281.54 -0.39c-2.82,33.29 -8.72,67.37 -14.98,99.26 -5.46,27.8 -6.4,73.82 -29.72,87.1zm-226.91 -483.71l281.74 0.18 2.88 184.9 -283.81 1.85 -0.81 -186.92zm-42.18 -294.84l269.09 -2.27c27.98,16.09 41.32,147.48 45.14,186.51l-284.77 0 -29.46 -184.24zm-99.81 -299.21l274.01 -0.23c14.08,53.67 52.92,121.49 71.73,185.72l-279.39 1.11 -66.35 -186.6zm-56.45 -111.3c-18.55,-30.21 -108.3,-172.23 -110.82,-185.95l248.62 1.03c24.82,23.24 117.3,150.52 126.11,185.45l-263.91 -0.52zm-209.91 -298.46c-15.87,-29.48 -62.34,-72.26 -87.49,-97.13l-87.57 -87.16c220.85,-4.02 198.89,-22.25 320.23,83.29 26.29,22.87 87.18,75.54 100.51,102.68l-245.68 -1.67zm-147.6 -297.8c-249.19,31.35 -194.69,-50.61 -462.28,-157.81 110.24,5.21 389.07,105.86 462.28,157.81z"/>
   <path class="fil2" d="M1163.9 149.19c5.71,81.25 -37.9,65.15 -179.65,136.04 -219.23,109.63 -374.81,241.63 -526.47,425.03 -443.09,535.79 -461.36,1309.12 -57.05,1898.99 92.88,135.5 187.31,226.1 308.36,325.82 52.75,43.46 317.98,226.12 405.6,226.69 89.64,5.09 172.41,22.25 271.51,22.85 89.06,0.54 184.44,-6.5 270.7,-20.81 115.38,-19.15 311.23,-71.41 419.15,-127.63 16.42,-8.56 11.66,-1.86 11.96,-8.56 -100.47,-2.05 -420.28,141 -882.39,-36 -803.61,-307.8 -1132.5,-1234.71 -713.89,-1982.04 207.04,-369.61 696.47,-756.67 1344.78,-686.04 514.89,56.09 984.72,414.33 1149.26,896.24 20.42,-35.38 -51.69,-220.95 -64.15,-253.76 -62.27,-163.95 -141.41,-295.02 -242.98,-428.12 -55.29,-72.46 -125.72,-132.78 -164.3,-182.47 -41.89,-70.48 -420.66,-189.9 -541.24,-211.48 -353.88,-63.34 -565.54,10.03 -616.43,6.98 -38.7,-2.32 -39.77,-21.12 -58.97,-41.54 -38.75,7.02 -104.22,26.73 -133.81,39.82z"/>
   <path class="fil1" d="M2088 3027.6c24.74,-23.24 97.33,-38.68 132.21,-53.54 89.42,-38.08 160.39,-75.1 239.97,-128.82 40.56,-27.38 86.5,-50.5 62.65,-115.73 -67.6,-51.12 -116.74,33.54 -279.73,112.78 -225,109.39 -470.74,147.75 -723.56,115.06 -75.41,-9.75 -293.2,-53.89 -330.58,-98.08 -48.2,-3.36 -178.73,-86.09 -217.25,-113.08 -509.08,-356.69 -713.3,-1044.85 -416.82,-1621.97 141.63,-275.7 377.94,-501.01 698.55,-621.19 264.89,-99.29 580.75,-101.87 854.23,-6.18 44.09,15.43 196.92,76.84 214.98,102.97 67.3,22.95 180.91,121.93 228.15,161.83 188.57,159.24 352.99,471.16 394.33,733.96 51.11,324.93 -23.38,646.62 -197.29,907.49 -24.56,36.84 -54.54,77.21 -82.69,108.86 -34.45,38.74 -62.59,59.65 -34.6,124.87 30.89,8.12 59.87,13.37 83.65,-9.13 32.85,-31.09 131.42,-170.85 156.62,-212.3 224.42,-369.27 256,-790.29 114.97,-1195.62 -164.55,-481.91 -634.38,-840.14 -1149.26,-896.24 -648.32,-70.63 -1137.75,316.43 -1344.78,686.04 -418.61,747.32 -89.73,1674.24 713.89,1982.04 462.11,176.99 781.92,33.95 882.39,36z"/>
   <path class="fil1" d="M2020.83 2354.81c-38.34,-11.13 -17.24,-35.18 -104.82,5.51 -25.89,12.03 -87.71,26.23 -103.53,36.27 -59.75,37.92 12.06,169.57 -55.88,231.82 -63.32,58.01 -157.21,18.64 -164.06,-67.95 -13.29,-168.11 38.42,-143.47 -94.63,-185.67 -138.36,-43.88 -281.46,-207.75 -242.13,-305.97 30.55,-76.28 135.09,-77.98 174.09,-9.17 25.54,45.07 20.88,47.86 56.36,83.52 24.84,24.97 47.81,40.95 89.01,50.68 61.47,14.53 212.35,12.06 264.34,-13.18 148.84,-72.28 159.3,-280.31 12.56,-359.39 -76.73,-41.36 -160.85,-20.97 -252.42,-27.31 -330.73,-22.9 -490.42,-413.12 -266.62,-665.5 39.13,-44.13 99.36,-88.31 176.46,-111.12 45.63,-13.5 77.22,-11.97 82.25,-64.5 4.03,-42.09 -5.33,-97.13 3.28,-137.85 17.78,-84.1 127.72,-92.58 172.36,-36.94 51.84,64.61 -18.83,193.81 55,225.32 34.16,14.58 71.86,19.93 109.31,37.99 81.7,39.38 187.59,143.9 195.38,228.63 8.67,94.3 -102.56,142.42 -164.74,79.94 -29.38,-29.52 -40.59,-104.76 -138.16,-142.12 -50.57,-19.36 -213.51,-18.79 -265.67,-1.41 -64.75,21.57 -116.05,77.23 -131.11,148.43 -19.83,93.81 27.8,169.08 75.73,203.77 75.16,54.41 136.49,39.76 236.97,41.17 179.6,2.53 303.6,93.33 362.79,206.95 56.71,108.85 66.58,227.92 17.67,345.03 -26.47,63.4 -25.69,42.48 -1.84,99.41 78.69,34.22 98.63,-34.33 117.91,-93.83 62.74,-193.56 8.81,-373.9 -113.95,-510.61 -184.05,-204.97 -436.03,-141.61 -518.46,-160.33 -56.78,-12.89 -92.93,-82.53 -54.91,-141.61 32.61,-50.68 109.93,-40 183.68,-39.26 95.74,0.96 90.12,39.4 130.32,99.32 62.98,93.87 232.24,114.86 319.11,19.91 97.39,-106.45 51.94,-227.53 -18.81,-327.52 -27.9,-39.44 -69.36,-83.42 -114.49,-114.24 -74.94,-51.18 -116.53,-54.96 -151.21,-76.36 0,-88.92 -0.72,-137.37 -45.39,-198.84 -65.87,-90.63 -224.88,-118.39 -326.93,1.11 -47.36,55.45 -44.12,116.49 -44.12,201.32 -411.27,123.42 -512.12,676.8 -114.57,924.58 168.69,105.14 358.98,43.75 433.15,82.91 58.01,30.62 62.65,124.92 -3.5,160.78 -41.29,22.39 -198.27,15.27 -229.83,-8.46 -41.9,-31.49 -30.11,-92.56 -115.82,-142.37 -174.67,-101.52 -415.47,77.74 -260.07,333.74 58.09,95.69 152.06,185.66 290.64,223.88 0,84.94 -3.21,145.4 44.25,200.85 34.18,39.93 83.62,79.79 162.84,79.75 75.21,-0.04 135.7,-39.82 163.87,-78.62 44.74,-61.61 45.48,-109.69 45.48,-198.79 65.31,-34.43 159.15,-33.81 122.86,-133.68z"/>
   <path class="fil2" d="M2020.83 2354.81c25.37,-0.81 41.75,-25.16 56.21,-40.11 16.4,-16.95 42.28,-36.78 41.72,-63.54 -23.85,-56.92 -24.63,-36 1.84,-99.41 48.9,-117.11 39.03,-236.18 -17.67,-345.03 -59.19,-113.62 -183.19,-204.42 -362.79,-206.95 -100.48,-1.42 -161.81,13.23 -236.97,-41.17 -47.93,-34.69 -95.56,-109.95 -75.73,-203.77 15.05,-71.19 66.36,-126.85 131.11,-148.43 52.16,-17.38 215.11,-17.95 265.67,1.41 97.57,37.36 108.78,112.6 138.16,142.12 62.18,62.48 173.41,14.36 164.74,-79.94 -7.79,-84.73 -113.67,-189.25 -195.38,-228.63 -37.45,-18.05 -75.15,-23.4 -109.31,-37.99 -73.83,-31.51 -3.15,-160.71 -55,-225.32 -44.64,-55.63 -154.58,-47.16 -172.36,36.94 -8.61,40.72 0.75,95.76 -3.28,137.85 -5.03,52.53 -36.61,51 -82.25,64.5 -77.1,22.81 -137.33,66.99 -176.46,111.12 -223.8,252.38 -64.11,642.6 266.62,665.5 91.57,6.34 175.69,-14.05 252.42,27.31 146.74,79.08 136.28,287.11 -12.56,359.39 -51.98,25.24 -202.86,27.71 -264.34,13.18 -41.2,-9.74 -64.17,-25.71 -89.01,-50.68 -35.48,-35.66 -30.82,-38.45 -56.36,-83.52 -38.99,-68.81 -143.54,-67.11 -174.09,9.17 -39.33,98.22 103.77,262.09 242.13,305.97 133.05,42.2 81.33,17.56 94.63,185.67 6.85,86.59 100.74,125.96 164.06,67.95 67.94,-62.24 -3.87,-193.9 55.88,-231.82 15.82,-10.04 77.64,-24.24 103.53,-36.27 87.59,-40.69 66.48,-16.64 104.82,-5.51z"/>
   <path class="fil3" d="M2985.77 1219.77c141.03,405.33 109.45,826.35 -114.97,1195.62 -25.19,41.45 -123.76,181.21 -156.62,212.3 -23.78,22.5 -52.76,17.26 -83.65,9.13 -36.29,28.43 -71.86,65.85 -107.71,92.68 23.85,65.23 -22.09,88.35 -62.65,115.73 -79.58,53.72 -150.55,90.74 -239.97,128.82 -34.89,14.86 -107.47,30.3 -132.21,53.54 -0.3,6.7 4.46,0.01 -11.96,8.56 -107.92,56.22 -303.77,108.47 -419.15,127.63 -86.26,14.32 -181.64,21.35 -270.7,20.81 -99.1,-0.6 -181.86,-17.77 -271.51,-22.85 27.65,29.03 97.04,41.37 139.82,53.57 161.79,46.15 321.51,65.6 493.28,59.99 583.21,-19.05 1090.6,-359.49 1352.84,-865.82 183.7,-354.69 221.45,-824.84 80.79,-1231.54 -66.47,-192.16 -163.04,-347.97 -266.88,-477.85 -24.11,-30.15 -62.7,-77.84 -86.43,-97.9 -66.61,-56.32 -217.49,-212.63 -313.75,-246.79 38.57,49.69 109.01,110.02 164.3,182.47 101.57,133.1 180.71,264.17 242.98,428.12 12.46,32.81 84.58,218.38 64.15,253.76z"/>
   <path class="fil4" d="M1188.95 2859.27c37.38,44.19 255.17,88.32 330.58,98.08 252.82,32.69 498.56,-5.67 723.56,-115.06 162.99,-79.24 212.13,-163.89 279.73,-112.78 35.85,-26.83 71.42,-64.25 107.71,-92.68 -27.98,-65.22 0.15,-86.13 34.6,-124.87 28.15,-31.66 58.13,-72.02 82.69,-108.86 173.92,-260.87 248.41,-582.56 197.29,-907.49 -41.34,-262.8 -205.77,-574.72 -394.33,-733.96 -47.25,-39.9 -160.86,-138.89 -228.15,-161.83 47.41,51.92 83.28,88.01 127.24,144.68 479.39,617.97 312.41,1545.44 -397.61,1958.39 -216.3,125.8 -567.32,218.58 -863.32,156.39z"/>
   <path class="fil4" d="M3336.47 1309.37l29.46 184.24 284.77 0c-3.82,-39.04 -17.16,-170.43 -45.14,-186.51l-269.09 2.27z"/>
   <path class="fil4" d="M3605.56 2087.92c23.31,-13.28 24.26,-59.3 29.72,-87.1 6.26,-31.89 12.16,-65.97 14.98,-99.26l-281.54 0.39 -33.24 185.63 270.08 0.33z"/>
   <polygon class="fil4" points="3379.47,1791.14 3663.28,1789.29 3660.39,1604.39 3378.65,1604.22 "/>
   <path class="fil4" d="M3236.66 1010.16l66.35 186.6 279.39 -1.11c-18.81,-64.23 -57.65,-132.05 -71.73,-185.72l-274.01 0.23z"/>
   <path class="fil4" d="M3510.52 2384.82c16.69,-57.46 55.68,-119.92 71.88,-186.23l-276.69 1.15 -69.14 185.55 273.95 -0.47z"/>
   <path class="fil4" d="M3069.39 2682.23c48.93,0 237.67,13.71 264.9,-17.11 19.9,-22.52 102.69,-141.05 109.82,-169.32l-263.91 0.52c-18.09,29.46 -108.49,173.67 -110.81,185.9z"/>
   <path class="fil4" d="M3180.21 898.86l263.91 0.52c-8.81,-34.93 -101.29,-162.2 -126.11,-185.45l-248.62 -1.03c2.52,13.72 92.27,155.74 110.82,185.95z"/>
   <path class="fil4" d="M2970.3 600.4l245.68 1.67c-13.33,-27.14 -74.22,-79.81 -100.51,-102.68 -121.34,-105.54 -99.38,-87.31 -320.23,-83.29l87.57 87.16c25.15,24.87 71.62,67.66 87.49,97.13z"/>
   <path class="fil4" d="M2993.57 2979.6c22.96,0 48.49,-24.6 64.54,-37.75 38.24,-31.37 139.08,-110.74 157.87,-148.74l-245.68 1.67c-18.68,34.71 -58.32,68.05 -87.55,97.08 -24.5,24.33 -67.31,61.49 -87.51,87.22l198.33 0.52z"/>
   <path class="fil4" d="M2822.7 302.6c-73.22,-51.95 -352.04,-152.6 -462.28,-157.81 267.59,107.2 213.09,189.16 462.28,157.81z"/>
   <path class="fil4" d="M2360.93 3250.19c106.51,-3.24 390.34,-107.3 461.81,-158.12 -215.52,-14.64 -173.29,6.8 -307.67,80.93 -35.24,19.44 -116.21,63.49 -154.15,77.19z"/>
  </g>
 </g>
</svg>
