<?xml version="1.0" encoding="UTF-8"?>
<!DOCTYPE svg PUBLIC "-//W3C//DTD SVG 1.1//EN" "http://www.w3.org/Graphics/SVG/1.1/DTD/svg11.dtd">
<!-- Creator: CorelDRAW 2020 (64-Bit) -->
<svg xmlns="http://www.w3.org/2000/svg" xml:space="preserve" width="382.854mm" height="207.878mm" version="1.1" style="shape-rendering:geometricPrecision; text-rendering:geometricPrecision; image-rendering:optimizeQuality; fill-rule:evenodd; clip-rule:evenodd"
viewBox="0 0 860.05 466.98"
 xmlns:xlink="http://www.w3.org/1999/xlink"
 xmlns:xodm="http://www.corel.com/coreldraw/odm/2003">
 <defs>
  <style type="text/css">
   <![CDATA[
    .fil1 {fill:black}
    .fil2 {fill:#F44336}
    .fil0 {fill:white}
   ]]>
  </style>
 </defs>
 <g id="Capa_x0020_1">
  <metadata id="CorelCorpID_0Corel-Layer"/>
  <g id="_2070826922208">
   <path class="fil0" d="M471.57 145.33c22.51,-5.83 43.37,5.95 52.86,17.3 14.37,17.2 13.09,31.11 13.08,57.42 -0,18.87 2.38,53.19 -3.61,68.59 -15.45,39.73 -66.44,44.83 -90.78,15.71 -14.37,-17.2 -13.09,-31.11 -13.08,-57.42 0,-39.01 -9.01,-88.52 41.53,-101.6zm-256.45 -72.06c22.32,-3.21 50.56,0.7 70.11,7.71 86.12,30.88 129.59,122.59 99.64,206.47 -9.92,27.78 -28.63,53.73 -49.82,71.07 -23.35,19.1 -51.75,31.24 -83.79,35.15 -93.85,11.46 -169.9,-60.15 -178.58,-142.04 -5.64,-53.15 13.27,-92.75 37.5,-123.01 10.57,-13.2 29.84,-27.98 44.46,-36.13 18.16,-10.12 36.55,-15.78 60.49,-19.22zm501.78 178.33c0,11.78 1.39,49.42 -0.93,57.88 -4.85,17.69 -28.28,18.04 -33.97,1.24 -3.22,-9.51 -1.32,-96.66 -1.32,-114.19 0,-62.17 0.55,-53.2 63.48,-52.92 31.41,0.14 27.83,21.43 22.73,28.58 -8.19,11.5 -33.68,7.52 -50,7.52l0 35.66c16.74,0 35.45,-0.95 35.45,18.11 0,19.06 -18.71,18.11 -35.45,18.11zm-107.51 0c0,11.78 1.39,49.42 -0.93,57.88 -4.85,17.69 -28.28,18.04 -33.97,1.24 -3.22,-9.51 -1.32,-96.66 -1.32,-114.19 0,-62.17 0.55,-53.2 63.48,-52.92 31.41,0.14 27.83,21.43 22.73,28.58 -8.19,11.5 -33.68,7.52 -50,7.52l0 35.66c16.74,0 35.45,-0.95 35.45,18.11 0,19.06 -18.71,18.11 -35.45,18.11zm-398.15 -213.9c-83.79,10.98 -139.52,63.36 -164.14,130.36 -27.71,75.44 -1.22,168.91 59.01,216.32 74.91,58.95 139.08,46.24 248.31,46.24 50.94,0 262.39,2.55 294.84,-1.36 148.61,-17.89 223.72,-184.35 139.86,-307.96 -4.53,-6.68 -11.44,-15.84 -16.33,-20.64 -80.45,-78.93 -144,-64.3 -267.18,-64.3 -30.06,0 -270.7,-1.76 -294.37,1.34z"/>
   <path class="fil1" d="M211.24 37.7c23.67,-3.1 264.31,-1.34 294.37,-1.34 123.18,0 186.74,-14.62 267.18,64.3 4.89,4.8 11.8,13.96 16.33,20.64 83.86,123.61 8.75,290.07 -139.86,307.96 -32.45,3.91 -243.9,1.36 -294.84,1.36 -109.23,0 -173.41,12.71 -248.31,-46.24 -60.23,-47.4 -86.73,-140.87 -59.01,-216.32 24.61,-67 80.34,-119.38 164.14,-130.36zm648.8 186.03l0 19.39c-1.3,32.14 -9.07,64 -23.52,92.84 -15.8,31.52 -24.45,42.08 -47.45,65.09 -5.13,5.13 -9.13,9.7 -14.67,13.89 -42.66,32.26 -87.59,52.04 -146.17,52.04l-396.43 0c-50.84,0 -92.91,-15.96 -130.72,-40.62 -11.57,-7.55 -20.49,-15.68 -30.12,-25.31 -5.14,-5.14 -9.27,-9.02 -14.31,-14.24 -12.14,-12.58 -25.78,-36.2 -33.7,-51.97 -19.99,-39.78 -22.96,-67.97 -22.96,-113.11 0,-32.88 12.46,-68.65 23.52,-90.71 13.91,-27.76 37.47,-60.34 62.12,-78.98 17.07,-12.91 32.78,-23.52 53.29,-32.37 25.77,-11.13 56.91,-19.67 92.88,-19.67l396.43 0c35.83,0 69.17,9.01 94.05,20.18 26.19,11.75 46.76,25.73 66.79,45.76 15.85,15.86 12.99,11.77 26.84,30.28 27.39,36.61 42.29,81.78 44.14,127.53z"/>
   <path class="fil2" d="M209.29 110.67c-60.95,11.22 -113.42,70.19 -99.51,145.91 11.1,60.43 71.03,115.36 147.61,99.83 59.73,-12.11 113.23,-70.91 98.66,-146.34 -11.87,-61.45 -70.73,-113.41 -146.75,-99.41z"/>
   <path class="fil1" d="M209.29 110.67c76.03,-14 134.88,37.96 146.75,99.41 14.58,75.43 -38.93,134.23 -98.66,146.34 -76.58,15.53 -136.51,-39.4 -147.61,-99.83 -13.91,-75.72 38.56,-134.69 99.51,-145.91zm5.84 -37.4c-23.94,3.45 -42.33,9.1 -60.49,19.22 -14.62,8.15 -33.89,22.92 -44.46,36.13 -24.23,30.26 -43.14,69.86 -37.5,123.01 8.69,81.89 84.73,153.5 178.58,142.04 32.03,-3.91 60.44,-16.05 83.79,-35.15 21.19,-17.33 39.9,-43.29 49.82,-71.07 29.96,-83.89 -13.51,-175.6 -99.64,-206.47 -19.54,-7.01 -47.79,-10.92 -70.11,-7.71z"/>
   <path class="fil1" d="M481.37 180.43c25.13,-4.36 20.09,30.78 20.09,49.7 0,19.32 6.53,53.21 -15.03,56.53 -25.62,3.94 -20.34,-30.72 -20.34,-49.81 0,-20.04 -6.55,-52.63 15.28,-56.42zm-9.8 -35.11c-50.54,13.08 -41.52,62.59 -41.53,101.6 -0,26.31 -1.29,40.22 13.08,57.42 24.34,29.13 75.33,24.02 90.78,-15.71 5.99,-15.41 3.61,-49.72 3.61,-68.59 0,-26.31 1.29,-40.22 -13.08,-57.42 -9.48,-11.35 -30.35,-23.13 -52.86,-17.3z"/>
   <path class="fil1" d="M716.9 251.6c16.74,0 35.45,0.95 35.45,-18.11 0,-19.06 -18.71,-18.11 -35.45,-18.11l0 -35.66c16.32,0 41.8,3.98 50,-7.52 5.1,-7.16 8.67,-28.44 -22.73,-28.58 -62.93,-0.28 -63.48,-9.25 -63.48,52.92 0,17.52 -1.9,104.67 1.32,114.19 5.68,16.8 29.12,16.45 33.97,-1.24 2.32,-8.46 0.93,-46.1 0.93,-57.88z"/>
   <path class="fil1" d="M609.39 251.6c16.74,0 35.45,0.95 35.45,-18.11 0,-19.06 -18.71,-18.11 -35.45,-18.11l0 -35.66c16.32,0 41.81,3.98 50,-7.52 5.1,-7.16 8.67,-28.44 -22.73,-28.58 -62.93,-0.28 -63.48,-9.25 -63.48,52.92 0,17.52 -1.9,104.67 1.32,114.19 5.68,16.8 29.12,16.45 33.97,-1.24 2.32,-8.46 0.93,-46.1 0.93,-57.88z"/>
   <path class="fil0" d="M481.37 180.43c-21.82,3.79 -15.28,36.38 -15.28,56.42 0,19.09 -5.29,53.75 20.34,49.81 21.56,-3.32 15.03,-37.2 15.03,-56.53 0,-18.92 5.03,-54.06 -20.09,-49.7z"/>
  </g>
 </g>
</svg>
