<?xml version="1.0" encoding="UTF-8"?>
<!DOCTYPE svg PUBLIC "-//W3C//DTD SVG 1.1//EN" "http://www.w3.org/Graphics/SVG/1.1/DTD/svg11.dtd">
<!-- Creator: CorelDRAW 2020 (64-Bit) -->
<svg xmlns="http://www.w3.org/2000/svg" xml:space="preserve" width="382.854mm" height="207.878mm" version="1.1" style="shape-rendering:geometricPrecision; text-rendering:geometricPrecision; image-rendering:optimizeQuality; fill-rule:evenodd; clip-rule:evenodd"
viewBox="0 0 908.63 493.36"
 xmlns:xlink="http://www.w3.org/1999/xlink"
 xmlns:xodm="http://www.corel.com/coreldraw/odm/2003">
 <defs>
  <style type="text/css">
   <![CDATA[
    .fil1 {fill:black}
    .fil2 {fill:#4BAD4F}
    .fil0 {fill:white}
   ]]>
  </style>
 </defs>
 <g id="Capa_x0020_1">
  <metadata id="CorelCorpID_0Corel-Layer"/>
  <g id="_2032943180144">
   <path class="fil0" d="M151.49 287.5c-1.7,-21.88 -0.62,-52.09 -0.27,-74.6 0.38,-24.38 9.99,-41.04 24.91,-50.95 16.93,-11.24 40.24,-12.98 59.07,-3.13 39.07,20.43 31.33,72.63 30.05,121.6 -2.16,82.36 -108.28,77.64 -113.76,7.08zm492.62 -210.2c90.83,-12.72 178.07,58.36 187.75,150.21 10.61,100.65 -62.24,177.72 -149.6,188.44 -100.24,12.31 -179.39,-63.51 -188.97,-149.76 -10.5,-94.56 53.68,-175.29 150.81,-188.9zm-266.61 161.56c4.41,-21.3 -10.68,-108.26 30.14,-83.92 12.62,7.52 9.01,31.26 9.01,49.15l-0.14 118.62c-1.88,20.19 -25,24.6 -34.52,10.47 -11.68,-17.34 -30.53,-67.21 -41.09,-79.82 -0.65,19.41 -0.21,39.54 -0.15,59.02 0.03,9.56 0.16,17.56 -5.26,23.14 -5.43,5.59 -15.57,7.35 -23.13,3.38 -14.12,-7.41 -9.74,-33.12 -9.74,-49.62l0.32 -119c2.39,-18.55 23.17,-25.08 34.83,-9.4 12.95,17.41 27.47,56.87 39.73,77.98zm-154.33 -199.01c-163.09,21.43 -234.49,198.3 -148.25,325.36 9.56,14.09 25.02,31.31 37.19,40.89 79.08,62.28 146.95,48.85 262.33,48.85 53.86,0 277.15,2.7 311.49,-1.44 157.07,-18.92 236.32,-194.84 147.75,-325.34 -4.8,-7.07 -12.07,-16.72 -17.26,-21.81 -84.91,-83.38 -152.2,-67.93 -282.27,-67.93 -31.88,0 -285.86,-1.88 -310.99,1.42z"/>
   <path class="fil1" d="M223.18 39.84c25.14,-3.3 279.11,-1.42 310.99,-1.42 130.07,0 197.36,-15.44 282.27,67.93 5.18,5.09 12.46,14.74 17.26,21.81 88.57,130.5 9.32,306.42 -147.75,325.34 -34.34,4.14 -257.64,1.44 -311.49,1.44 -115.38,0 -183.26,13.42 -262.33,-48.85 -12.17,-9.58 -27.63,-26.8 -37.19,-40.89 -86.23,-127.06 -14.83,-303.92 148.25,-325.36zm685.45 196.53l0 20.48c-1.37,33.95 -9.58,67.62 -24.84,98.08 -16.69,33.3 -25.83,44.46 -50.13,68.77 -5.42,5.42 -9.64,10.25 -15.49,14.68 -45.07,34.08 -92.54,54.98 -154.43,54.98l-418.82 0c-53.71,0 -98.16,-16.86 -138.1,-42.91 -12.23,-7.98 -21.64,-16.57 -31.82,-26.74 -5.43,-5.43 -9.79,-9.53 -15.12,-15.05 -12.83,-13.29 -27.23,-38.24 -35.61,-54.9 -21.12,-42.03 -24.25,-71.81 -24.25,-119.5 0,-34.73 13.16,-72.53 24.84,-95.83 14.7,-29.33 39.59,-63.75 65.63,-83.44 18.04,-13.64 34.63,-24.84 56.3,-34.2 27.23,-11.76 60.12,-20.78 98.13,-20.78l418.82 0c37.85,0 73.08,9.52 99.36,21.32 27.67,12.42 49.41,27.18 70.56,48.34 16.75,16.75 13.72,12.43 28.35,31.99 28.94,38.67 44.68,86.4 46.63,134.73z"/>
   <path class="fil2" d="M793.2 267.97c11.94,-79.27 -42.79,-141.17 -108.57,-151.86 -80.11,-13.01 -141.6,43.63 -152.6,108.59 -13.47,79.46 43.75,142.23 109.22,152.71 79.33,12.7 142.17,-44.49 151.95,-109.44z"/>
   <path class="fil1" d="M793.2 267.97c-9.79,64.95 -72.62,122.14 -151.95,109.44 -65.47,-10.48 -122.69,-73.25 -109.22,-152.71 11.01,-64.95 72.5,-121.6 152.6,-108.59 65.78,10.69 120.52,72.58 108.57,151.86zm-149.08 -190.68c-97.13,13.61 -161.31,94.33 -150.81,188.9 9.57,86.25 88.72,162.07 188.97,149.76 87.36,-10.73 160.21,-87.79 149.6,-188.44 -9.68,-91.85 -96.92,-162.94 -187.75,-150.21z"/>
   <path class="fil1" d="M377.51 238.85c-12.26,-21.11 -26.79,-60.57 -39.73,-77.98 -11.66,-15.68 -32.44,-9.15 -34.83,9.4l-0.32 119c0,16.5 -4.38,42.21 9.74,49.62 7.56,3.97 17.7,2.21 23.13,-3.38 5.42,-5.58 5.29,-13.58 5.26,-23.14 -0.06,-19.48 -0.5,-39.61 0.15,-59.02 10.56,12.61 29.41,62.48 41.09,79.82 9.52,14.14 32.64,9.72 34.52,-10.47l0.14 -118.62c0,-17.89 3.61,-41.63 -9.01,-49.15 -40.82,-24.34 -25.73,62.62 -30.14,83.92z"/>
   <path class="fil1" d="M205.43 190.78c26.67,-5.36 21.74,32.24 21.74,52.35 0,20.68 6.29,55.23 -15.16,59.51 -11.61,2.32 -20.41,-5.5 -22.05,-15.29l-0.49 -74.51c0.37,-13.25 4.24,-19.71 15.96,-22.06zm-53.93 96.72c5.48,70.56 111.6,75.28 113.76,-7.08 1.28,-48.97 9.02,-101.18 -30.05,-121.6 -18.83,-9.85 -42.14,-8.11 -59.07,3.13 -14.93,9.91 -24.53,26.57 -24.91,50.95 -0.35,22.51 -1.43,52.72 0.27,74.6z"/>
   <path class="fil0" d="M205.43 190.78c-11.72,2.35 -15.59,8.82 -15.96,22.06l0.49 74.51c1.65,9.79 10.44,17.61 22.05,15.29 21.45,-4.28 15.16,-38.83 15.16,-59.51 0,-20.11 4.93,-57.71 -21.74,-52.35z"/>
  </g>
 </g>
</svg>
