<?xml version="1.0" encoding="UTF-8"?>
<!DOCTYPE svg PUBLIC "-//W3C//DTD SVG 1.1//EN" "http://www.w3.org/Graphics/SVG/1.1/DTD/svg11.dtd">
<!-- Creator: CorelDRAW 2020 (64-Bit) -->
<svg xmlns="http://www.w3.org/2000/svg" xml:space="preserve" width="43.8543mm" height="43.8543mm" version="1.1" style="shape-rendering:geometricPrecision; text-rendering:geometricPrecision; image-rendering:optimizeQuality; fill-rule:evenodd; clip-rule:evenodd"
viewBox="0 0 1745.79 1745.79"
 xmlns:xlink="http://www.w3.org/1999/xlink"
 xmlns:xodm="http://www.corel.com/coreldraw/odm/2003">
 <defs>
  <style type="text/css">
   <![CDATA[
    .fil2 {fill:black}
    .fil0 {fill:#198754}
    .fil8 {fill:#BB232E}
    .fil6 {fill:#C32430}
    .fil5 {fill:#D84953}
    .fil3 {fill:#E9B04D}
    .fil4 {fill:#F2DC45}
    .fil7 {fill:#F9F2AE}
    .fil1 {fill:white}
   ]]>
  </style>
 </defs>
 <g id="Capa_x0020_1">
  <metadata id="CorelCorpID_0Corel-Layer"/>
  <path class="fil0" d="M872.89 0c482.09,0 872.89,390.81 872.89,872.89 0,482.09 -390.81,872.89 -872.89,872.89 -482.08,0 -872.89,-390.81 -872.89,-872.89 0,-482.08 390.81,-872.89 872.89,-872.89zm0 68.38c444.32,0 804.52,360.19 804.52,804.51 0,444.32 -360.19,804.52 -804.52,804.52 -444.32,0 -804.51,-360.19 -804.51,-804.52 0,-444.32 360.19,-804.51 804.51,-804.51z"/>
  <circle class="fil1" cx="872.89" cy="872.89" r="804.51"/>
  <g id="_2070719571184">
   <path class="fil2" d="M1091.2 946.48c-17.41,10.64 -31.73,19.28 -31.54,46.09 0.45,62.73 77.61,37.79 86.04,62.9 17.88,53.2 5.39,137.97 -17.47,189.5 -88.95,200.48 -356.22,223.86 -480.71,78.19 -53.68,-62.82 -84.37,-132.46 -76.46,-223.22 14.46,-165.78 165.19,-285.97 330.72,-263.76 64.17,8.61 155.16,51.85 189.42,110.3zm-467.86 -688.5l100.74 0c16.22,0.66 15.23,4.71 25.56,18.64 13.59,18.32 108.51,144.33 110.78,152.85 6.78,-4.97 52.9,-70.57 62.52,-83.37 52.64,-70.04 54.72,-85.34 78.48,-88.12l50.96 0 219.28 0c48.95,4.12 -10.44,65.19 -22.19,81.92 -53.65,76.4 -133.92,176.83 -181.74,248.25 47.71,31.95 35.83,108.26 35.83,166.37 12.11,3.23 48.6,34.43 58.23,44.14l49.27 50.56c5.3,-63.68 55.98,-76.1 85.25,-46.87 13.91,13.89 16.17,38.1 21.15,60.75 4.25,19.28 8.58,56.58 18.05,61.3 23.59,11.78 99.92,10.42 121.76,39.49 35.55,47.32 -38.01,101.75 -49.1,59.37 -0.35,-28.62 15.21,-14.53 18.83,-33.28 -3.46,-16.99 -99.1,-14.01 -125.02,-42.25 -12.7,-13.83 -15.08,-40.92 -19.84,-62.2 -4.59,-20.55 -8.5,-62.46 -22.07,-57.46 -7.94,4.64 -3.69,-2.22 -7.36,11.62 -1.38,5.2 -2.37,11.88 -3.44,17 -5.79,27.58 -13.56,78.53 -27.67,92.64 -24.37,24.38 -93.7,21.54 -123.2,37.12 0.45,19.14 16.52,15.63 58.01,25.04 82.24,18.66 69.33,10.63 92.65,114.55 3.14,13.98 1.99,25.4 13.2,30.37 10.44,-3.32 8.79,-6.49 11.38,-19.27l17.56 -79.89c9.72,-39.28 64.39,-54.9 72.98,-23.75 1.01,20.88 -14.34,24.06 -32.82,25.59 -4.75,20.4 -9.43,40.55 -14.27,62.52 -2.73,12.42 -3.97,19.49 -6.81,31.58 -2.57,10.94 -6.3,15.24 -8.6,29.79 -7.92,49.96 -16.26,79.81 -33.2,120.36 -8.14,19.49 -16.03,33.63 -26.19,50.6 -68.42,114.31 -189.66,195.29 -323.46,211.47 -12.95,1.56 -25.85,2.56 -38.69,3.02l-32.71 0c-115.09,-4.11 -222.03,-51.39 -296.07,-126.05 -7.28,-7.34 -12.54,-11.98 -18.55,-19.84l-34 -42.79c-32.36,-43.04 -59.11,-107.16 -70.32,-160.03 -26.78,-126.28 0.35,-256.45 76.52,-357.35 35.41,-46.9 68.45,-77.65 117.38,-110.42 0,-33.27 -0.33,-66.7 -0.12,-99.94 0.25,-38.94 23.87,-52.2 33.4,-66.43l-55.95 -74.59c-26.84,-35.56 -51.68,-58.25 -33.63,-77.91 24.92,-8.45 25.26,-0.55 50.85,35.1 13.03,18.15 26,35.21 38.96,53.2l58.58 79.63c6.48,8.97 15.2,18.95 19.77,28.26l225.18 -0.02c-7.95,-13.75 -19.29,-27.55 -29.41,-41.6l-184.33 -250.76c-5.37,-7.45 -8.93,-12.69 -15.15,-20.69 -6.08,-7.82 -9.32,-16.09 -18.56,-19.85l-220.37 0.01c9.17,18.19 39.3,52.6 51.78,71.4 9.42,14.2 2.87,20.12 -3.03,31 -23.05,1.96 -20.71,3.45 -33.91,-14.59l-68.38 -92.91c-8.26,-13.06 -5.86,-30.32 10.43,-33.12l174.84 -0.16zm637.04 936.6c-28.03,183.65 -197.5,339.86 -407.77,335.28 -204.79,-4.46 -365.88,-160.73 -391.33,-348.15 -30.64,-225.59 122.16,-400.29 291.05,-445.65 103.65,-27.84 224.29,-13.93 306.03,35.51 21.84,13.21 37.26,22.84 55.34,36.84 19.82,15.34 31.43,29.77 47.28,44.84 8.11,7.7 37.87,41.87 37.62,54.83 -0.36,18.75 -10.49,18.12 -25.23,21.1 -13.61,2.76 -25.64,6.52 -39.09,7.84 -6.44,-6.74 -13.1,-15.54 -18.69,-23.01 -14.05,-18.78 -40.16,-41.44 -59.45,-55.77 -28.66,-21.29 -62.46,-38.76 -103.12,-50.34 -262.69,-74.78 -507.84,185.87 -392.17,453.55 99.74,230.81 435.31,270.72 580.28,39.92 33.16,-52.79 51.58,-112.45 51.11,-178.28 -0.1,-14.09 -8.12,-58.98 -4.2,-65.42 11.98,4.8 8.75,9.17 15.1,37.69 11.91,53.51 11.25,94.96 57.24,99.23zm-599.6 -465.65c0,-46.28 -7.8,-91.12 20.48,-110.06 1.85,6.94 21.71,33.58 28,41.11 4.15,4.96 6.49,7.52 15.51,7.52l273.86 0c8.32,0 11.65,-2.44 15.87,-7.17l20.37 -28.26c4.31,-6.7 4.81,-9.8 14.95,-10.64 3.46,12.97 13.09,10.14 12.86,46.01 -0.14,20.49 -0.06,40.99 -0.06,61.49 -5.85,-2.81 -11.92,-4.76 -17.92,-7.68 -110.83,-53.94 -250.99,-50.26 -364.19,-0.74 -8.18,3.58 -11,6.39 -19.73,8.42zm332.99 -117.65c9.03,-7.82 4.18,4.44 6.55,-1.55 0.29,-0.74 1.13,0.99 1.72,1.47 -2.72,1.59 -3.39,3.46 -8.26,0.08zm-107.04 -148.53c6.38,-12.07 21.51,-30.54 30.54,-43.01 10.61,-14.66 86.9,-121.92 94.16,-123.36l220.89 0.01c-29.97,48.84 -185.31,247.26 -199.38,273.49l-68.75 -1.02 -77.45 -106.11z"/>
   <path class="fil3" d="M815.46 1009.35c-31.79,-3.42 -43.63,-0.61 -60.44,-21.52 -26.3,-32.69 -12.71,-91.66 43.99,-94.15 20.79,-0.92 61.25,-1.79 81.05,0.44 61.67,6.93 51.1,74.84 51.1,111.23 0,44.61 4.69,295.94 -5.51,318.59 -19.19,42.62 -79.43,45.01 -102.59,2.81 -17.07,-31.11 -2.01,-259.62 -7.6,-317.39zm275.74 -62.87c-34.26,-58.45 -125.25,-101.69 -189.42,-110.3 -165.53,-22.21 -316.26,97.98 -330.72,263.76 -7.91,90.76 22.77,160.41 76.46,223.22 124.5,145.67 391.77,122.29 480.71,-78.19 22.86,-51.53 35.35,-136.29 17.47,-189.5 -8.44,-25.1 -85.6,-0.17 -86.04,-62.9 -0.19,-26.82 14.13,-35.45 31.54,-46.09z"/>
   <path class="fil4" d="M1260.38 1194.57c-46,-4.26 -45.33,-45.72 -57.24,-99.23 -6.35,-28.52 -3.12,-32.89 -15.1,-37.69 -3.92,6.43 4.1,51.33 4.2,65.42 0.47,65.82 -17.95,125.49 -51.11,178.28 -144.97,230.8 -480.54,190.89 -580.28,-39.92 -115.67,-267.68 129.48,-528.33 392.17,-453.55 40.66,11.58 74.47,29.05 103.12,50.34 19.29,14.33 45.4,36.99 59.45,55.77 5.59,7.47 12.25,16.27 18.69,23.01 13.45,-1.32 25.48,-5.08 39.09,-7.84 14.75,-2.99 24.88,-2.35 25.23,-21.1 0.25,-12.96 -29.52,-47.13 -37.62,-54.83 -15.86,-15.07 -27.46,-29.5 -47.28,-44.84 -18.09,-14 -33.5,-23.62 -55.34,-36.84 -81.74,-49.45 -202.38,-63.35 -306.03,-35.51 -168.9,45.37 -321.69,220.06 -291.05,445.65 25.45,187.42 186.54,343.69 391.33,348.15 210.27,4.58 379.73,-151.63 407.77,-335.28z"/>
   <path class="fil5" d="M540.35 398.74l12.57 15.71c4.93,6.58 8.19,11.19 13.16,18.63 24.92,-8.45 25.26,-0.55 50.85,35.1 13.03,18.15 26,35.21 38.96,53.2l58.58 79.63c6.48,8.97 15.2,18.95 19.77,28.26l225.18 -0.02c-7.95,-13.75 -19.29,-27.55 -29.41,-41.6l-184.33 -250.76c-5.37,-7.45 -8.93,-12.69 -15.15,-20.69 -6.08,-7.82 -9.32,-16.09 -18.56,-19.85l-220.37 0.01c9.17,18.19 39.3,52.6 51.78,71.4 9.42,14.2 2.87,20.12 -3.03,31z"/>
   <path class="fil6" d="M886.73 462.73l77.45 106.11 68.75 1.02c14.07,-26.24 169.41,-224.66 199.38,-273.49l-220.89 -0.01c-7.27,1.43 -83.55,108.7 -94.16,123.36 -9.02,12.47 -24.16,30.94 -30.54,43.01z"/>
   <path class="fil2" d="M882.13 1316.71c-10.37,4.44 -20.65,-0.31 -24.53,-6.5 -5.96,-9.52 -3.23,-76.29 -3.23,-89.87 0,-28.81 4.67,-234.27 -5.44,-244.45 -11.21,-11.28 -37.6,-2.14 -54.76,-6.45 -18.08,-4.54 -20.47,-29.47 0.55,-36.27 10.04,-3.25 46.98,-1.18 60.63,-1.25 52.06,-0.27 37.44,10.35 37.44,147.64l0 186.84c0.01,18.9 4.02,44.02 -10.66,50.3zm-66.66 -307.36c5.58,57.77 -9.48,286.28 7.6,317.39 23.16,42.2 83.4,39.8 102.59,-2.81 10.2,-22.65 5.51,-273.98 5.51,-318.59 0,-36.39 10.57,-104.3 -51.1,-111.23 -19.8,-2.23 -60.25,-1.35 -81.05,-0.44 -56.7,2.5 -70.29,61.46 -43.99,94.15 16.81,20.91 28.65,18.11 60.44,21.52z"/>
   <path class="fil7" d="M1364.18 1033.5c8.48,-3.69 33.16,-7.73 43.99,-10.24 -0.35,-28.62 15.21,-14.53 18.83,-33.28 -3.46,-16.99 -99.1,-14.01 -125.02,-42.25 -12.7,-13.83 -15.08,-40.92 -19.84,-62.2 -4.59,-20.55 -8.5,-62.46 -22.07,-57.46 -7.94,4.64 -3.69,-2.22 -7.36,11.62 -1.38,5.2 -2.37,11.88 -3.44,17 -5.79,27.58 -13.56,78.53 -27.67,92.64 -24.37,24.38 -93.7,21.54 -123.2,37.12 0.45,19.14 16.52,15.63 58.01,25.04 82.24,18.66 69.33,10.63 92.65,114.55 3.14,13.98 1.99,25.4 13.2,30.37 10.44,-3.32 8.79,-6.49 11.38,-19.27l17.56 -79.89c9.72,-39.28 64.39,-54.9 72.98,-23.75z"/>
   <path class="fil4" d="M794.71 933.18c-21.01,6.8 -18.63,31.73 -0.55,36.27 17.15,4.31 43.54,-4.84 54.76,6.45 10.11,10.18 5.44,215.64 5.44,244.45 0,13.58 -2.73,80.35 3.23,89.87 3.88,6.2 14.16,10.94 24.53,6.5 14.69,-6.29 10.67,-31.4 10.66,-50.3l0 -186.84c0,-137.29 14.62,-147.91 -37.44,-147.64 -13.65,0.07 -50.59,-2 -60.63,1.25z"/>
   <path class="fil8" d="M993.77 611.27c4.88,3.38 5.54,1.51 8.26,-0.08 -0.58,-0.48 -1.42,-2.21 -1.72,-1.47 -2.37,5.99 2.48,-6.27 -6.55,1.55z"/>
  </g>
 </g>
</svg>
