<?xml version="1.0" encoding="UTF-8"?>
<!DOCTYPE svg PUBLIC "-//W3C//DTD SVG 1.1//EN" "http://www.w3.org/Graphics/SVG/1.1/DTD/svg11.dtd">
<!-- Creator: CorelDRAW 2020 (64-Bit) -->
<svg xmlns="http://www.w3.org/2000/svg" xml:space="preserve" width="279.533mm" height="349.381mm" version="1.1" style="shape-rendering:geometricPrecision; text-rendering:geometricPrecision; image-rendering:optimizeQuality; fill-rule:evenodd; clip-rule:evenodd"
viewBox="0 0 289.46 361.79"
 xmlns:xlink="http://www.w3.org/1999/xlink"
 xmlns:xodm="http://www.corel.com/coreldraw/odm/2003">
 <defs>
  <style type="text/css">
   <![CDATA[
    .fil0 {fill:black}
    .fil6 {fill:#BB232E}
    .fil4 {fill:#C32430}
    .fil3 {fill:#D84953}
    .fil1 {fill:#E9B04D}
    .fil2 {fill:#F2DC45}
    .fil5 {fill:#F9F2AE}
   ]]>
  </style>
 </defs>
 <g id="Capa_x0020_1">
  <metadata id="CorelCorpID_0Corel-Layer"/>
  <g id="_2071222619504">
   <path class="fil0" d="M185.74 190.08c-4.81,2.94 -8.76,5.32 -8.71,12.73 0.12,17.32 21.43,10.43 23.75,17.36 4.94,14.69 1.49,38.09 -4.82,52.32 -24.56,55.35 -98.34,61.8 -132.71,21.59 -14.82,-17.34 -23.29,-36.57 -21.11,-61.63 3.99,-45.77 45.6,-78.95 91.3,-72.82 17.72,2.38 42.84,14.32 52.3,30.45zm-129.17 -190.08l27.81 0c4.48,0.18 4.2,1.3 7.06,5.15 3.75,5.06 29.96,39.85 30.58,42.2 1.87,-1.37 14.6,-19.48 17.26,-23.02 14.53,-19.34 15.11,-23.56 21.67,-24.33l14.07 0 60.54 0c13.51,1.14 -2.88,18 -6.13,22.62 -14.81,21.09 -36.97,48.82 -50.17,68.54 13.17,8.82 9.89,29.89 9.89,45.93 3.34,0.89 13.42,9.51 16.08,12.19l13.6 13.96c1.46,-17.58 15.46,-21.01 23.54,-12.94 3.84,3.83 4.46,10.52 5.84,16.77 1.17,5.32 2.37,15.62 4.98,16.92 6.51,3.25 27.59,2.88 33.61,10.9 9.82,13.07 -10.49,28.09 -13.56,16.39 -0.1,-7.9 4.2,-4.01 5.2,-9.19 -0.95,-4.69 -27.36,-3.87 -34.52,-11.67 -3.51,-3.82 -4.16,-11.3 -5.48,-17.17 -1.27,-5.67 -2.35,-17.24 -6.1,-15.86 -2.19,1.28 -1.02,-0.61 -2.03,3.21 -0.38,1.44 -0.65,3.28 -0.95,4.69 -1.6,7.61 -3.74,21.68 -7.64,25.58 -6.73,6.73 -25.87,5.95 -34.01,10.25 0.13,5.29 4.56,4.31 16.02,6.91 22.71,5.15 19.14,2.93 25.58,31.63 0.87,3.86 0.55,7.01 3.64,8.38 2.88,-0.92 2.43,-1.79 3.14,-5.32l4.85 -22.06c2.68,-10.84 17.78,-15.16 20.15,-6.56 0.28,5.76 -3.96,6.64 -9.06,7.07 -1.31,5.63 -2.6,11.2 -3.94,17.26 -0.76,3.43 -1.1,5.38 -1.88,8.72 -0.71,3.02 -1.74,4.21 -2.38,8.22 -2.19,13.79 -4.49,22.03 -9.17,33.23 -2.25,5.38 -4.43,9.29 -7.23,13.97 -18.89,31.56 -52.36,53.92 -89.3,58.38 -3.57,0.43 -7.14,0.71 -10.68,0.83l-9.03 0c-31.77,-1.14 -61.3,-14.19 -81.74,-34.8 -2.01,-2.03 -3.46,-3.31 -5.12,-5.48l-9.39 -11.81c-8.93,-11.88 -16.32,-29.58 -19.42,-44.18 -7.39,-34.86 0.1,-70.8 21.13,-98.66 9.78,-12.95 18.9,-21.44 32.41,-30.48 0,-9.19 -0.09,-18.41 -0.03,-27.59 0.07,-10.75 6.59,-14.41 9.22,-18.34l-15.45 -20.59c-7.41,-9.82 -14.27,-16.08 -9.29,-21.51 6.88,-2.33 6.98,-0.15 14.04,9.69 3.6,5.01 7.18,9.72 10.76,14.69l16.17 21.98c1.79,2.48 4.2,5.23 5.46,7.8l62.17 -0.01c-2.2,-3.79 -5.33,-7.61 -8.12,-11.49l-50.89 -69.23c-1.48,-2.06 -2.47,-3.5 -4.18,-5.71 -1.68,-2.16 -2.57,-4.44 -5.12,-5.48l-60.84 0c2.53,5.02 10.85,14.52 14.3,19.71 2.6,3.92 0.79,5.56 -0.83,8.56 -6.36,0.54 -5.72,0.95 -9.36,-4.03l-18.88 -25.65c-2.28,-3.61 -1.62,-8.37 2.88,-9.14l48.27 -0.04zm175.87 258.57c-7.74,50.7 -54.52,93.83 -112.57,92.56 -56.54,-1.23 -101.01,-44.37 -108.04,-96.12 -8.46,-62.28 33.72,-110.51 80.35,-123.04 28.61,-7.69 61.92,-3.85 84.49,9.8 6.03,3.65 10.29,6.31 15.28,10.17 5.47,4.24 8.68,8.22 13.05,12.38 2.24,2.13 10.45,11.56 10.39,15.14 -0.1,5.18 -2.9,5 -6.97,5.83 -3.76,0.76 -7.08,1.8 -10.79,2.16 -1.78,-1.86 -3.62,-4.29 -5.16,-6.35 -3.88,-5.18 -11.09,-11.44 -16.41,-15.4 -7.91,-5.88 -17.24,-10.7 -28.47,-13.9 -72.52,-20.65 -140.2,51.32 -108.27,125.21 27.54,63.72 120.18,74.74 160.2,11.02 9.15,-14.57 14.24,-31.05 14.11,-49.22 -0.03,-3.89 -2.24,-16.28 -1.16,-18.06 3.31,1.33 2.42,2.53 4.17,10.4 3.29,14.77 3.1,26.22 15.8,27.4zm-165.54 -128.56c0,-12.78 -2.15,-25.16 5.65,-30.38 0.51,1.92 5.99,9.27 7.73,11.35 1.15,1.37 1.79,2.08 4.28,2.08l75.61 0c2.3,0 3.22,-0.67 4.38,-1.98l5.62 -7.8c1.19,-1.85 1.33,-2.71 4.13,-2.94 0.96,3.58 3.61,2.8 3.55,12.7 -0.04,5.66 -0.02,11.32 -0.02,16.98 -1.62,-0.78 -3.29,-1.31 -4.95,-2.12 -30.6,-14.89 -69.29,-13.88 -100.54,-0.2 -2.26,0.99 -3.04,1.76 -5.45,2.32zm91.93 -32.48c2.49,-2.16 1.15,1.23 1.81,-0.43 0.08,-0.2 0.31,0.27 0.47,0.4 -0.75,0.44 -0.94,0.96 -2.28,0.02zm-29.55 -41.01c1.76,-3.33 5.94,-8.43 8.43,-11.87 2.93,-4.05 23.99,-33.66 26,-34.06l60.98 0c-8.28,13.48 -51.16,68.26 -55.05,75.51l-18.98 -0.28 -21.38 -29.3z"/>
   <path class="fil1" d="M109.61 207.44c-8.78,-0.94 -12.05,-0.17 -16.69,-5.94 -7.26,-9.03 -3.51,-25.31 12.15,-25.99 5.74,-0.25 16.91,-0.49 22.37,0.12 17.03,1.91 14.11,20.66 14.11,30.71 0,12.32 1.29,81.7 -1.52,87.95 -5.3,11.77 -21.93,12.43 -28.32,0.78 -4.71,-8.59 -0.56,-71.68 -2.1,-87.62zm76.12 -17.36c-9.46,-16.14 -34.58,-28.07 -52.3,-30.45 -45.7,-6.13 -87.31,27.05 -91.3,72.82 -2.18,25.06 6.29,44.28 21.11,61.63 34.37,40.22 108.16,33.76 132.71,-21.59 6.31,-14.23 9.76,-37.63 4.82,-52.32 -2.33,-6.93 -23.63,-0.05 -23.75,-17.36 -0.05,-7.4 3.9,-9.79 8.71,-12.73z"/>
   <path class="fil2" d="M232.44 258.57c-12.7,-1.18 -12.51,-12.62 -15.8,-27.4 -1.75,-7.87 -0.86,-9.08 -4.17,-10.4 -1.08,1.78 1.13,14.17 1.16,18.06 0.13,18.17 -4.96,34.64 -14.11,49.22 -40.02,63.72 -132.67,52.7 -160.2,-11.02 -31.93,-73.9 35.75,-145.86 108.27,-125.21 11.23,3.2 20.56,8.02 28.47,13.9 5.33,3.96 12.53,10.21 16.41,15.4 1.54,2.06 3.38,4.49 5.16,6.35 3.71,-0.37 7.03,-1.4 10.79,-2.16 4.07,-0.82 6.87,-0.65 6.97,-5.83 0.07,-3.58 -8.15,-13.01 -10.39,-15.14 -4.38,-4.16 -7.58,-8.14 -13.05,-12.38 -4.99,-3.86 -9.25,-6.52 -15.28,-10.17 -22.57,-13.65 -55.87,-17.49 -84.49,-9.8 -46.63,12.52 -88.81,60.75 -80.35,123.04 7.03,51.74 51.5,94.89 108.04,96.12 58.05,1.26 104.84,-41.86 112.57,-92.56z"/>
   <path class="fil3" d="M33.66 38.86l3.47 4.34c1.36,1.82 2.26,3.09 3.63,5.14 6.88,-2.33 6.98,-0.15 14.04,9.69 3.6,5.01 7.18,9.72 10.76,14.69l16.17 21.98c1.79,2.48 4.2,5.23 5.46,7.8l62.17 -0.01c-2.2,-3.79 -5.33,-7.61 -8.12,-11.49l-50.89 -69.23c-1.48,-2.06 -2.47,-3.5 -4.18,-5.71 -1.68,-2.16 -2.57,-4.44 -5.12,-5.48l-60.84 0c2.53,5.02 10.85,14.52 14.3,19.71 2.6,3.92 0.79,5.56 -0.83,8.56z"/>
   <path class="fil4" d="M129.29 56.53l21.38 29.3 18.98 0.28c3.89,-7.24 46.77,-62.02 55.05,-75.51l-60.98 -0c-2.01,0.4 -23.07,30.01 -26,34.06 -2.49,3.44 -6.67,8.54 -8.43,11.87z"/>
   <path class="fil0" d="M128.02 292.29c-2.86,1.23 -5.7,-0.08 -6.77,-1.8 -1.65,-2.63 -0.89,-21.06 -0.89,-24.81 0,-7.95 1.29,-64.68 -1.5,-67.49 -3.1,-3.12 -10.38,-0.59 -15.12,-1.78 -4.99,-1.25 -5.65,-8.14 0.15,-10.01 2.77,-0.9 12.97,-0.33 16.74,-0.34 14.37,-0.08 10.34,2.86 10.34,40.76l0 51.58c0,5.22 1.11,12.15 -2.94,13.89zm-18.4 -84.86c1.54,15.95 -2.62,79.04 2.1,87.62 6.4,11.65 23.03,10.99 28.32,-0.78 2.82,-6.25 1.52,-75.64 1.52,-87.95 0,-10.05 2.92,-28.8 -14.11,-30.71 -5.47,-0.61 -16.63,-0.37 -22.37,-0.12 -15.66,0.69 -19.41,16.97 -12.15,25.99 4.64,5.77 7.91,5 16.69,5.94z"/>
   <path class="fil5" d="M261.1 214.11c2.34,-1.02 9.16,-2.13 12.15,-2.83 -0.1,-7.9 4.2,-4.01 5.2,-9.19 -0.95,-4.69 -27.36,-3.87 -34.52,-11.67 -3.51,-3.82 -4.16,-11.3 -5.48,-17.17 -1.27,-5.67 -2.35,-17.24 -6.1,-15.86 -2.19,1.28 -1.02,-0.61 -2.03,3.21 -0.38,1.44 -0.65,3.28 -0.95,4.69 -1.6,7.61 -3.74,21.68 -7.64,25.58 -6.73,6.73 -25.87,5.95 -34.01,10.25 0.13,5.29 4.56,4.31 16.02,6.91 22.71,5.15 19.14,2.93 25.58,31.63 0.87,3.86 0.55,7.01 3.64,8.38 2.88,-0.92 2.43,-1.79 3.14,-5.32l4.85 -22.06c2.68,-10.84 17.78,-15.16 20.15,-6.56z"/>
   <path class="fil2" d="M103.88 186.41c-5.8,1.88 -5.14,8.76 -0.15,10.01 4.74,1.19 12.02,-1.34 15.12,1.78 2.79,2.81 1.5,59.53 1.5,67.49 0,3.75 -0.75,22.18 0.89,24.81 1.07,1.71 3.91,3.02 6.77,1.8 4.06,-1.74 2.95,-8.67 2.94,-13.89l0 -51.58c0,-37.9 4.03,-40.84 -10.34,-40.76 -3.77,0.02 -13.97,-0.55 -16.74,0.34z"/>
   <path class="fil6" d="M158.84 97.54c1.35,0.93 1.53,0.42 2.28,-0.02 -0.16,-0.13 -0.39,-0.61 -0.47,-0.4 -0.65,1.65 0.68,-1.73 -1.81,0.43z"/>
  </g>
 </g>
</svg>
