<?xml version="1.0" encoding="UTF-8"?>
<!DOCTYPE svg PUBLIC "-//W3C//DTD SVG 1.1//EN" "http://www.w3.org/Graphics/SVG/1.1/DTD/svg11.dtd">
<!-- Creator: CorelDRAW 2020 (64-Bit) -->
<svg xmlns="http://www.w3.org/2000/svg" xml:space="preserve" width="200.007mm" height="176.765mm" version="1.1" style="shape-rendering:geometricPrecision; text-rendering:geometricPrecision; image-rendering:optimizeQuality; fill-rule:evenodd; clip-rule:evenodd"
viewBox="0 0 349.12 308.55"
 xmlns:xlink="http://www.w3.org/1999/xlink"
 xmlns:xodm="http://www.corel.com/coreldraw/odm/2003">
 <defs>
  <style type="text/css">
   <![CDATA[
    .fil2 {fill:black}
    .fil4 {fill:#4891D3}
    .fil5 {fill:#56B4EA}
    .fil7 {fill:#646A75}
    .fil3 {fill:#656A76}
    .fil9 {fill:#949A9B}
    .fil0 {fill:#E5E5E5}
    .fil6 {fill:#F8E00A}
    .fil8 {fill:#FBBD05}
    .fil1 {fill:white}
   ]]>
  </style>
 </defs>
 <g id="Capa_x0020_1">
  <metadata id="CorelCorpID_0Corel-Layer"/>
  <g id="_2032894606592">
   <path class="fil0" d="M267.76 280.48c-1.45,-6.52 4.58,-7.29 9.92,-7.27 5.55,0.02 11.74,-0.75 12.85,4.62 1.3,6.3 -4.7,7.02 -9.92,7.01 -5.3,-0.02 -11.72,0.74 -12.85,-4.36zm-46.45 0c-1.45,-6.52 4.58,-7.29 9.92,-7.27 5.55,0.02 11.74,-0.75 12.85,4.62 1.3,6.3 -4.7,7.02 -9.92,7.01 -5.3,-0.02 -11.72,0.74 -12.85,-4.36zm-46.45 0c-1.45,-6.52 4.58,-7.29 9.92,-7.27 5.55,0.02 11.74,-0.75 12.85,4.62 1.3,6.3 -4.7,7.02 -9.92,7.01 -5.3,-0.02 -11.72,0.74 -12.85,-4.36zm100.75 -53.21c10.46,-2.31 18.63,4.82 20.48,13.03 2.38,10.56 -4.79,19.02 -13.05,20.86 -22.34,4.97 -30.4,-28.81 -7.43,-33.89zm-46.45 0c10.46,-2.31 18.63,4.82 20.48,13.03 2.38,10.56 -4.79,19.02 -13.05,20.86 -22.34,4.97 -30.4,-28.81 -7.43,-33.89zm-32.92 22.54c-1.25,2.83 -1.53,3.13 -4.37,4.38 0.47,12.9 -15.31,5.97 -19.02,1.22 -12.96,-16.57 7.79,-37.64 24.64,-24.64 4.75,3.67 11.67,19.48 -1.24,19.04zm-62.32 -147.46l0.02 17.94c0.07,18.7 -2.35,62.3 3.75,76.63 9.17,21.56 8.39,27.81 7.9,53.09 -0.16,8.1 -1.96,9.54 -4.03,15.74 -3.95,9.69 -15.61,18.48 -30.04,19.01 -16.07,0.59 -33.2,0.04 -49.38,0.04 -17.01,0 -28.56,-2.5 -36.11,-12.5 -10.1,-13.37 -8.16,-22.07 -8.14,-41.19 0.03,-23.18 5.08,-24.59 9.54,-39.07 3.49,-11.32 2.07,-34.32 2.07,-47.3 0,-14.55 1.21,-35.35 -0.29,-49.16 -1.53,-14.15 -9.96,-21.91 -10.98,-38.57 -8.19,3.85 -6.18,22.47 -6.18,33.3l0 161.12c0,10.85 -2.02,29.66 3.09,37.57 6.2,9.62 19.39,7.44 33.21,7.44l242.41 0c10.26,0 30.67,1.76 38.12,-2.53 10.31,-5.93 8.34,-18.17 8.34,-32.31 0,-13.54 0.01,-27.08 -0,-40.62 -17.66,0 -35.33,-0.01 -52.99,0 -9.62,0.01 -39.27,-1.97 -44.73,-7.22 -6.31,1.75 -10.21,2.11 -15.84,-1.18 -6.48,-3.79 -4.74,-5.66 -8.39,-11.36l-0.66 1.44c-2.66,-1.92 -8.8,-6.57 -11.25,-7.61 2.33,17.39 -17.51,26.06 -29.11,15.4 -4.48,-4.12 -7.26,-12.61 -3.6,-20.33 2.9,-6.12 8.04,-9.53 17.32,-9.82 -3.15,-3.99 -5.71,-7.59 -8.81,-11.89l1.21 -0.06c-2.66,-3.23 -5.33,-2.38 -8.41,-7.14 -1.97,-3.05 -3.25,-6.67 -2.9,-11.09 -4.16,-4.01 -9.16,-25.06 -10.08,-30.37 -0.33,-1.9 -0.63,-3.86 -0.89,-5.76 -0.09,-0.67 -0.32,-2.7 -0.25,-3.28 0.3,-2.53 -1.13,-1.22 0.85,-2.05 -1.47,-3.07 -1.54,-3.09 -0.9,-6.58 -1.13,-1.77 -1.06,-16.26 0.04,-17.88l-0.01 -5.23c-1.28,-1.89 -1.26,-27.73 0.01,-29.6l-0.52 -2.61 -11.7 0c0,11.24 -0.86,19.12 -4.78,28.62 -4.27,10.34 -6.61,13.73 -6.9,26.97z"/>
   <path class="fil1" d="M273.21 214.85c-5.97,-1.72 -9.44,-5.2 -11.18,-11.17 0.42,-10.85 0.06,-16.17 8.08,-20.79 16.08,-9.28 33.19,8.63 23.61,24.34 -4.62,7.58 -9.89,7.19 -20.51,7.62zm38.78 -22.31c6.5,-3.11 11.1,7.45 4.26,10.42 -6.25,2.72 -12.15,-6.64 -4.26,-10.42zm0 -23.23c6.5,-3.11 11.1,7.45 4.26,10.42 -6.25,2.72 -12.15,-6.64 -4.26,-10.42zm-38.78 -0.91c-5.97,-1.72 -9.44,-5.2 -11.18,-11.17 0.42,-10.85 0.06,-16.17 8.08,-20.79 16.08,-9.28 33.19,8.63 23.61,24.34 -4.62,7.58 -9.89,7.19 -20.51,7.62zm-46.45 0c-5.97,-1.72 -9.44,-5.2 -11.18,-11.17 0.42,-10.85 0.06,-16.17 8.08,-20.79 7.06,-4.07 16.73,-2.24 21.47,2.42 4.97,4.87 6.4,14.95 2.14,21.93 -4.62,7.58 -9.89,7.19 -20.51,7.62zm85.23 -22.31c6.5,-3.11 11.1,7.45 4.26,10.42 -6.25,2.72 -12.15,-6.64 -4.26,-10.42zm-50.23 -35.45l-11.69 0c-1.27,7.33 -7.42,5.81 -14.47,5.81l-40.64 0c-6.57,0 -13.68,1.19 -14.46,-5.81 -0.6,-5.36 -0.05,-14.54 -0.05,-20.31 0,-4.99 -1.26,-15.48 1.79,-18.53 3.32,-3.32 70.15,-1.79 79.5,-1.79 40.71,0 34.83,-4.33 34.83,26.12 0,22.49 2.1,20.3 -20.32,20.32 -6.99,0.01 -13.24,1.43 -14.48,-5.81zm50.23 -11c6.5,-3.11 11.1,7.45 4.26,10.42 -6.25,2.72 -12.15,-6.64 -4.26,-10.42zm0 -23.23c6.5,-3.11 11.1,7.45 4.26,10.42 -6.25,2.72 -12.15,-6.64 -4.26,-10.42zm-154.19 2.57c1.57,-1.73 2.95,-3.67 6.41,-2.96 9.28,1.91 2.43,18.01 -6.4,8.19 -1.1,1.62 -1.17,16.11 -0.04,17.88 12.81,-12.01 14.73,15.72 0.9,6.58 -1.98,0.83 -0.55,-0.48 -0.85,2.05 -0.07,0.58 0.16,2.61 0.25,3.28 0.26,1.9 0.56,3.86 0.89,5.76 0.92,5.32 5.92,26.37 10.08,30.37 0.9,-17.6 23.42,-21.4 31.49,-8.8 4.41,6.88 3.95,14.51 -0.59,20.76 -4.65,6.39 -10.1,6.1 -19.59,6.27l-1.21 0.06c3.1,4.29 5.66,7.9 8.81,11.89 8.92,1.94 13.78,5.91 15.38,14.74 2.45,1.04 8.59,5.69 11.25,7.61l0.66 -1.44c0.54,-9.04 1.84,-14.18 7.49,-17.79 5.7,-3.64 12.6,-4.19 18.94,-0.52 4.61,2.67 9.18,8.26 8.27,16.87 -0.82,7.8 -5.21,11.02 -10.46,13.98 5.46,5.25 35.11,7.23 44.73,7.22 17.66,-0.01 35.33,-0 52.99,-0 -0.01,-6.78 0,-13.56 -0,-20.35 -0.01,-7.05 -1.54,-13.23 5.8,-14.48l0 -11.69c-7.03,-1.21 -5.81,-6.89 -5.8,-13.75l0 -58.06c0,-39.71 5.15,-50.09 -27.59,-50.08l-136.45 0c-7.43,0 -11.18,1.46 -15.37,-3.19 -1.27,1.88 -1.29,27.71 -0.01,29.6z"/>
   <path class="fil2" d="M343.01 186.16c-7.34,1.25 -5.81,7.43 -5.8,14.48 0.01,6.78 -0.01,13.56 0,20.35 0.02,13.54 0,27.08 0,40.62 0,14.15 1.97,26.39 -8.34,32.31 -7.46,4.29 -27.86,2.53 -38.12,2.53l-242.41 0c-13.82,0 -27.01,2.19 -33.21,-7.44 -5.1,-7.92 -3.09,-26.72 -3.09,-37.57l0 -161.12c0,-10.83 -2.01,-29.45 6.18,-33.3 2.97,-3.25 6.74,-4.18 11.34,-4.44 0.56,12.88 3.2,18.42 7.59,28.61 4.67,10.83 3.93,19.97 3.93,32.35 0,12.56 0.69,63.9 -0.48,72.09 -1.58,10.97 -6.45,17.19 -9.13,27.16 -2.77,10.27 -2.02,23.11 -2,34.3 0.02,12.51 4.27,19.96 10.8,25.48 4.46,3.77 22.01,12.15 23.99,0.65 -1.78,-10.6 -18.72,-1.27 -22.7,-19.29 -1.65,-7.48 -0.59,-31.73 1.4,-39.1 3.14,-11.6 8.54,-16.77 9.55,-31.63 0.81,-11.96 0.41,-67.88 0.17,-82.74 -0.28,-17.1 -4.29,-20.46 -8.7,-32.66 -3.63,-10.06 -3.4,-26.94 -2.89,-38.5 0.73,-16.2 13.09,-17.38 23.84,-17.39 15.27,0.03 30.55,0.03 45.82,0 16.67,-0.03 23.28,4.93 23.24,21.78 -0.04,16.67 1.19,25.46 -5.29,39.74 -2.91,6.42 -12.85,31.18 -0.52,32.71 3.09,-0.44 4.33,-1.9 5.73,-3.8 0.28,-13.24 2.63,-16.63 6.9,-26.97 3.92,-9.49 4.78,-17.37 4.78,-28.62 0.11,-22.14 1.76,-28.94 -10.69,-40.1 -9.87,-8.85 -27.81,-6.35 -44.46,-6.35 -8.47,0 -16.93,0 -25.4,0 -10.66,-0 -14.41,-0.34 -21.49,3.92 -15.53,9.34 -14.08,22.63 -14.08,36.73 -14.14,0 -24.43,9.18 -27.86,20.04 -2.73,8.61 -1.17,35.84 -1.17,47.46l-0 168.38c-0.05,14.35 6.02,24.94 18.96,29.67 7.94,2.9 60.23,1.53 71.04,1.53 64.35,0 128.71,0 193.06,0 12.46,0 37.22,1.81 46.37,-1.53 5.4,-1.97 10.2,-5.89 13.59,-10.36 4.13,-5.46 5.4,-10.04 5.37,-19.31l-0 -71.85c0,-8.73 2.29,-18.33 -5.81,-18.83z"/>
   <path class="fil1" d="M65.18 26.38c3.67,-3.62 4.34,-2.86 10.74,-2.83 4.6,0.02 9.2,0.01 13.79,0.01 6.85,0 20.95,-2.57 20.95,5.8 -0.01,8.26 -14.72,5.8 -21.67,5.8 -4.6,0 -9.2,-0.02 -13.8,0.01 -6.16,0.04 -6.55,0.6 -10,-2.86 -1.19,1.4 -0.22,-0.61 -0.75,1.56 -0.2,0.8 -0.21,1.13 -0.26,1.97 -0.06,1.12 0.05,3.23 0.09,4.43 0.09,3.45 0.26,5.57 1,8.95 3.54,-2.63 4.88,-2.47 10.66,-2.44 10.98,0.06 31.73,-2.33 34.26,3.53 4.37,10.12 -12.89,8.08 -16.12,8.08 -7.2,-0 -19.03,-0.72 -25.6,0.3 -0.95,1.76 0.6,3.34 2.5,7.55 1.37,3.03 2.18,5.37 3.02,8.56 3.12,11.78 1.87,54.03 1.87,67.79 0,14.57 1.33,30.11 -3.22,43.2 -4.25,12.24 -11.19,21.5 -7.33,37.59 3.27,-2.48 4.43,-2.45 9.88,-2.41 9.14,0.06 31.48,-1.71 34.45,2.61 2.19,3.18 0.4,6.86 -1.91,8.16 -2.72,1.53 -8.09,0.85 -11.49,0.85 -8.18,-0.01 -16.37,-0.04 -24.55,0.01 6.21,7.22 17.12,5.86 28.18,5.86 11.37,0 22.74,0 34.12,0 -0.01,-39.92 -10.75,-30.27 -11.58,-58.11l-0.04 -52.28c-0.03,-6.31 -0.49,-10.54 5.82,-11.56l0 -10.34c-12.33,-1.53 -2.39,-26.29 0.52,-32.71 6.47,-14.28 5.24,-23.06 5.29,-39.74 0.04,-16.85 -6.57,-21.81 -23.24,-21.78 -15.27,0.03 -30.55,0.03 -45.82,-0l-0.76 10.95c0.05,0.82 0.04,1.17 0.26,1.96 0.59,2.19 -0.49,0.1 0.74,1.54z"/>
   <path class="fil0" d="M96.25 244.2c4.24,-0 10.09,-0.84 12.72,1.8 2.96,2.97 1.55,7.76 -1.7,9.2 -2.8,1.24 -23.74,0.6 -28.44,0.61 -4.24,0 -10.07,0.84 -12.72,-1.8 -3.47,-3.47 -1.57,-7.47 2.02,-9.2 2.91,-1.4 23.15,-0.6 28.12,-0.6zm-31.98 29.04l11.7 0c1.33,-7.92 9.49,-5.81 17.38,-5.81 7.6,0 15.72,0.27 23.25,-0.02 19.14,-0.74 17.4,-18.44 17.39,-28.96 -11.37,0 -22.74,0 -34.12,0 -11.05,0 -21.97,1.37 -28.18,-5.86 -5.82,-0.27 -8.51,-3.52 -6.38,-9.21 -3.86,-16.09 3.08,-25.35 7.33,-37.59 4.54,-13.09 3.22,-28.63 3.22,-43.2 0,-13.76 1.25,-56.01 -1.87,-67.79 -0.84,-3.19 -1.66,-5.53 -3.02,-8.56 -1.9,-4.21 -3.45,-5.79 -2.5,-7.55 -2.91,-3.42 -5.33,-3.32 -3.21,-9.46 -0.73,-3.38 -0.9,-5.5 -1,-8.95 -0.03,-1.2 -0.15,-3.32 -0.09,-4.43 0.05,-0.84 0.06,-1.16 0.26,-1.97 0.53,-2.17 -0.44,-0.16 0.75,-1.56 -1.19,-2.84 -1.16,-3.08 -0.01,-5.93 -1.24,-1.44 -0.15,0.65 -0.74,-1.54 -0.21,-0.78 -0.21,-1.14 -0.26,-1.96l0.76 -10.95c-10.75,0.02 -23.11,1.19 -23.84,17.39 -0.52,11.56 -0.75,28.44 2.89,38.5 4.4,12.19 8.42,15.56 8.7,32.66 0.24,14.86 0.64,70.78 -0.17,82.74 -1.01,14.86 -6.41,20.03 -9.55,31.63 -1.99,7.37 -3.05,31.62 -1.4,39.1 3.98,18.02 20.92,8.69 22.7,19.29z"/>
   <path class="fil2" d="M157.29 46.78l0.52 2.61c4.18,4.65 7.94,3.2 15.37,3.19l136.45 0c32.74,-0 27.59,10.37 27.59,50.08l-0 58.06c-0.01,6.86 -1.23,12.54 5.8,13.75 7.53,-0.45 5.81,-7.36 5.81,-15.2l0 -84.19c0,-8.87 0.2,-12.17 -2.88,-18.17 -4.33,-8.43 -13.21,-16.03 -26.13,-15.96l-147.35 0.02c-7.74,-0 -14.87,-1.71 -15.16,5.81z"/>
   <path class="fil3" d="M18.23 57.03c1.02,16.66 9.45,24.42 10.98,38.57 1.5,13.82 0.29,34.61 0.29,49.16 0,12.98 1.42,35.98 -2.07,47.3 -4.47,14.48 -9.51,15.89 -9.54,39.07 -0.02,19.12 -1.96,27.82 8.14,41.19 7.56,10 19.1,12.5 36.11,12.5 16.19,-0 33.31,0.54 49.38,-0.04 14.44,-0.53 26.09,-9.32 30.04,-19.01l-1.81 1.58c-2.93,2.93 -3.92,5.33 -9.75,8.41 -8.87,4.69 -27.16,3.28 -38.83,3.28 -7.19,0 -13.89,1.7 -15.2,-5.79l-11.7 0c-1.98,11.5 -19.53,3.12 -23.99,-0.65 -6.53,-5.52 -10.78,-12.97 -10.8,-25.48 -0.02,-11.19 -0.76,-24.04 2,-34.3 2.69,-9.97 7.56,-16.18 9.13,-27.16 1.18,-8.19 0.48,-59.54 0.48,-72.09 0,-12.38 0.73,-21.52 -3.93,-32.35 -4.39,-10.19 -7.03,-15.73 -7.59,-28.61 -4.6,0.26 -8.37,1.18 -11.34,4.44z"/>
   <path class="fil2" d="M250.07 110.64c-0.9,-5.42 -4.39,-5.85 -10.11,-5.82l-47.92 0.02 0 -23.23 92.9 0 0 23.23c-12.42,0 -21.86,-2.2 -23.19,5.8 1.23,7.24 7.48,5.81 14.48,5.81 22.42,-0.02 20.32,2.17 20.32,-20.32 0,-30.46 5.88,-26.12 -34.83,-26.12 -9.35,0 -76.18,-1.53 -79.5,1.79 -3.05,3.05 -1.79,13.54 -1.79,18.53 0,5.77 -0.55,14.95 0.05,20.31 0.79,7.01 7.9,5.82 14.46,5.81l40.64 0c7.06,0.01 13.21,1.52 14.47,-5.81z"/>
   <path class="fil2" d="M133.99 238.44c0,10.53 1.75,28.22 -17.39,28.96 -7.54,0.29 -15.65,0.02 -23.25,0.02 -7.89,-0 -16.05,-2.11 -17.38,5.81 1.32,7.49 8.01,5.79 15.2,5.79 11.67,-0 29.96,1.41 38.83,-3.28 5.83,-3.08 6.82,-5.48 9.75,-8.41l1.81 -1.58c2.07,-6.2 3.87,-7.64 4.03,-15.74 0.5,-25.28 1.28,-31.53 -7.9,-53.09 -6.1,-14.33 -3.68,-57.93 -3.75,-76.63 -1.77,-1.85 -2.48,-3.2 -5.75,-3.8 -6.31,1.02 -5.85,5.25 -5.82,11.56l0.04 52.28c0.83,27.83 11.57,18.18 11.58,58.11z"/>
   <path class="fil4" d="M244.31 87.37c15.02,0 33.33,-4.1 34.88,11.7 -15.49,0.1 -31,0.01 -46.49,0.01 -14.84,0 -33.49,4.05 -34.87,-11.7 15.47,-0.16 31.01,-0.02 46.48,-0.02zm5.77 23.27l11.69 0c1.32,-8 10.77,-5.8 23.19,-5.8l0 -23.23 -92.9 0 0 23.23 47.92 -0.02c5.72,-0.04 9.2,0.39 10.11,5.82z"/>
   <path class="fil5" d="M279.18 99.07c-1.55,-15.8 -19.86,-11.7 -34.88,-11.7 -15.48,0 -31.01,-0.14 -46.48,0.02 1.37,15.74 20.03,11.7 34.87,11.7 15.49,0 31,0.08 46.49,-0.01z"/>
   <path class="fil2" d="M227.91 242.17c0.8,-3.92 5.66,-5.17 8.81,-2.01 3.16,3.17 1.87,7.99 -2.06,8.8 -3.72,4.07 -10.65,-4.51 -6.76,-6.79zm1.25 -14.9c-22.97,5.08 -14.91,38.86 7.43,33.89 8.26,-1.84 15.43,-10.3 13.05,-20.86 -1.85,-8.21 -10.02,-15.35 -20.48,-13.03z"/>
   <path class="fil2" d="M274.36 242.17c0.8,-3.92 5.66,-5.17 8.81,-2.01 3.16,3.17 1.87,7.99 -2.06,8.8 -3.72,4.07 -10.65,-4.51 -6.76,-6.79zm1.25 -14.9c-22.97,5.08 -14.91,38.86 7.43,33.89 8.26,-1.84 15.43,-10.3 13.05,-20.86 -1.85,-8.21 -10.02,-15.35 -20.48,-13.03z"/>
   <path class="fil2" d="M181.46 149.3c0.79,-3.93 5.66,-5.19 8.81,-2.04 3.15,3.15 1.89,8.01 -2.03,8.81 -0.91,0.98 -0.68,1.34 -3.23,0.86 -1.06,-0.2 -2.12,-0.97 -2.78,-1.63 -1.24,-1.24 -3.04,-4.71 -0.77,-6zm-12.41 0.85c-0.36,4.42 0.92,8.04 2.9,11.09 3.08,4.76 5.75,3.91 8.41,7.14 9.49,-0.17 14.94,0.12 19.59,-6.27 4.54,-6.25 5,-13.88 0.59,-20.76 -8.07,-12.6 -30.59,-8.79 -31.49,8.8z"/>
   <path class="fil2" d="M181.46 195.72c0.8,-3.92 5.66,-5.17 8.81,-2.01 3.16,3.17 1.87,7.99 -2.06,8.8 -3.73,4.07 -10.65,-4.51 -6.76,-6.79zm21.89 -0.66c-1.6,-8.83 -6.46,-12.8 -15.38,-14.74 -9.28,0.29 -14.43,3.7 -17.32,9.82 -3.66,7.72 -0.88,16.21 3.6,20.33 11.6,10.66 31.43,1.98 29.11,-15.4z"/>
   <path class="fil2" d="M227.91 195.72c0.8,-3.92 5.66,-5.17 8.81,-2.01 3.16,3.17 1.87,7.99 -2.06,8.8 -3.73,4.07 -10.65,-4.51 -6.76,-6.79zm-12.65 5.51c3.65,5.69 1.91,7.57 8.39,11.36 5.63,3.29 9.54,2.93 15.84,1.18 5.25,-2.96 9.64,-6.18 10.46,-13.98 0.91,-8.6 -3.66,-14.2 -8.27,-16.87 -6.34,-3.67 -13.24,-3.11 -18.94,0.52 -5.65,3.61 -6.95,8.75 -7.49,17.79z"/>
   <path class="fil2" d="M274.36 149.27c0.8,-3.92 5.66,-5.17 8.81,-2.01 3.16,3.17 1.87,7.99 -2.06,8.8 -3.73,4.07 -10.65,-4.51 -6.76,-6.79zm-12.34 7.96c1.15,0.89 0.27,-0.29 1.55,1.66 7.23,10.95 6.17,5.11 9.63,9.51 10.61,-0.43 15.89,-0.04 20.51,-7.62 9.58,-15.71 -7.53,-33.62 -23.61,-24.34 -8.02,4.63 -7.66,9.94 -8.08,20.79z"/>
   <path class="fil2" d="M274.36 195.72c0.8,-3.92 5.66,-5.17 8.81,-2.01 3.16,3.17 1.87,7.99 -2.06,8.8 -3.73,4.07 -10.65,-4.51 -6.76,-6.79zm-12.34 7.96c1.15,0.89 0.27,-0.29 1.55,1.66 7.23,10.95 6.17,5.11 9.63,9.51 10.61,-0.42 15.89,-0.04 20.51,-7.62 9.58,-15.71 -7.53,-33.62 -23.61,-24.34 -8.02,4.63 -7.66,9.94 -8.08,20.79z"/>
   <path class="fil2" d="M227.91 149.27c0.8,-3.92 5.66,-5.17 8.81,-2.01 3.16,3.17 1.87,7.99 -2.06,8.8 -3.73,4.07 -10.65,-4.51 -6.76,-6.79zm-12.34 7.96c3.14,2.45 2.27,5.61 8.07,8.89 1.83,1.03 1.63,0.4 3.11,2.28 10.61,-0.43 15.89,-0.04 20.51,-7.62 4.25,-6.98 2.83,-17.06 -2.14,-21.93 -4.75,-4.65 -14.41,-6.49 -21.47,-2.42 -8.02,4.63 -7.66,9.94 -8.08,20.79z"/>
   <path class="fil2" d="M191.87 254.2c-2.59,-4.33 -2.48,-2.86 -7.42,-4.6 -2.72,-0.96 -5.6,-4.95 -2.99,-7.43 0.8,-3.91 5.7,-5.19 8.8,-2.01 1.42,1.45 1.37,2.97 2.08,5.22 0.86,2.72 1.21,1.91 2.19,3.8l1.71 0.64c12.91,0.44 5.99,-15.37 1.24,-19.04 -16.85,-13.01 -37.6,8.07 -24.64,24.64 3.72,4.75 19.5,11.68 19.02,-1.22z"/>
   <path class="fil2" d="M68.13 244.8c-3.6,1.73 -5.5,5.73 -2.02,9.2 2.65,2.64 8.48,1.8 12.72,1.8 4.69,-0 25.64,0.63 28.44,-0.61 3.25,-1.44 4.66,-6.23 1.7,-9.2 -2.63,-2.64 -8.48,-1.8 -12.72,-1.8 -4.96,0 -25.21,-0.8 -28.12,0.6z"/>
   <path class="fil2" d="M65.18 26.38c-1.15,2.85 -1.18,3.09 0.01,5.93 3.45,3.46 3.84,2.9 10,2.86 4.6,-0.03 9.2,-0.01 13.8,-0.01 6.95,0 21.66,2.46 21.67,-5.8 0.01,-8.37 -14.09,-5.8 -20.95,-5.8 -4.6,0 -9.2,0.02 -13.79,-0.01 -6.4,-0.03 -7.07,-0.8 -10.74,2.83z"/>
   <path class="fil2" d="M65.26 49.22c-2.12,6.15 0.3,6.04 3.21,9.46 6.57,-1.02 18.4,-0.3 25.6,-0.3 3.23,0 20.49,2.04 16.12,-8.08 -2.54,-5.87 -23.29,-3.48 -34.26,-3.53 -5.77,-0.03 -7.12,-0.18 -10.66,2.44z"/>
   <path class="fil2" d="M65.32 223.37c-2.13,5.69 0.56,8.94 6.38,9.21 8.18,-0.05 16.37,-0.02 24.55,-0.01 3.4,0 8.77,0.68 11.49,-0.85 2.31,-1.3 4.1,-4.98 1.91,-8.16 -2.97,-4.31 -25.31,-2.55 -34.45,-2.61 -5.44,-0.03 -6.6,-0.07 -9.88,2.41z"/>
   <path class="fil2" d="M174.86 280.48c1.13,5.1 7.55,4.34 12.85,4.36 5.22,0.02 11.22,-0.7 9.92,-7.01 -1.11,-5.37 -7.3,-4.61 -12.85,-4.62 -5.33,-0.02 -11.36,0.75 -9.92,7.27z"/>
   <path class="fil2" d="M221.31 280.48c1.13,5.1 7.55,4.34 12.85,4.36 5.22,0.02 11.22,-0.7 9.92,-7.01 -1.11,-5.37 -7.3,-4.61 -12.85,-4.62 -5.33,-0.02 -11.36,0.75 -9.92,7.27z"/>
   <path class="fil2" d="M267.76 280.48c1.13,5.1 7.55,4.34 12.85,4.36 5.22,0.02 11.22,-0.7 9.92,-7.01 -1.11,-5.37 -7.3,-4.61 -12.85,-4.62 -5.33,-0.02 -11.36,0.75 -9.92,7.27z"/>
   <path class="fil2" d="M312 76.42c-7.89,3.78 -1.99,13.14 4.26,10.42 6.85,-2.98 2.24,-13.54 -4.26,-10.42z"/>
   <path class="fil2" d="M312 192.54c-7.89,3.78 -1.99,13.14 4.26,10.42 6.85,-2.98 2.24,-13.54 -4.26,-10.42z"/>
   <path class="fil2" d="M312 169.32c-7.89,3.78 -1.99,13.14 4.26,10.42 6.85,-2.98 2.24,-13.54 -4.26,-10.42z"/>
   <path class="fil2" d="M312 99.64c-7.89,3.78 -1.99,13.14 4.26,10.42 6.85,-2.98 2.24,-13.54 -4.26,-10.42z"/>
   <path class="fil2" d="M312 146.09c-7.89,3.78 -1.99,13.14 4.26,10.42 6.85,-2.98 2.24,-13.54 -4.26,-10.42z"/>
   <path class="fil2" d="M157.81 78.99l0.01 5.23c8.83,9.82 15.68,-6.28 6.4,-8.19 -3.46,-0.71 -4.84,1.23 -6.41,2.96z"/>
   <path class="fil2" d="M157.77 102.11c-0.64,3.49 -0.57,3.51 0.9,6.58 13.83,9.13 11.91,-18.59 -0.9,-6.58z"/>
   <path class="fil6" d="M181.46 242.17c1.12,3.61 1.84,4.23 4.53,5.93 2.03,1.28 6.56,3.1 8.54,1.07 -0.97,-1.89 -1.33,-1.08 -2.19,-3.8 -0.71,-2.25 -0.67,-3.77 -2.08,-5.22 -3.1,-3.18 -8.01,-1.9 -8.8,2.01z"/>
   <path class="fil6" d="M274.36 242.17c1.27,4.1 2.69,5.33 6.76,6.79 3.92,-0.81 5.22,-5.63 2.06,-8.8 -3.15,-3.16 -8.01,-1.91 -8.81,2.01z"/>
   <path class="fil6" d="M227.91 242.17c1.27,4.1 2.69,5.33 6.76,6.79 3.92,-0.81 5.22,-5.63 2.06,-8.8 -3.15,-3.16 -8.01,-1.91 -8.81,2.01z"/>
   <path class="fil6" d="M227.91 149.27c1.27,4.1 2.69,5.33 6.76,6.79 3.92,-0.81 5.22,-5.63 2.06,-8.8 -3.15,-3.16 -8.01,-1.91 -8.81,2.01z"/>
   <path class="fil6" d="M274.36 149.27c1.27,4.1 2.69,5.33 6.76,6.79 3.92,-0.81 5.22,-5.63 2.06,-8.8 -3.15,-3.16 -8.01,-1.91 -8.81,2.01z"/>
   <path class="fil6" d="M274.36 195.72c1.27,4.1 2.69,5.33 6.76,6.79 3.92,-0.81 5.22,-5.63 2.06,-8.8 -3.15,-3.16 -8.01,-1.91 -8.81,2.01z"/>
   <path class="fil6" d="M227.91 195.72c1.27,4.1 2.69,5.33 6.76,6.79 3.92,-0.81 5.22,-5.63 2.06,-8.8 -3.15,-3.16 -8.01,-1.91 -8.81,2.01z"/>
   <path class="fil6" d="M181.46 195.72c1.27,4.1 2.69,5.33 6.76,6.79 3.92,-0.81 5.22,-5.63 2.06,-8.8 -3.15,-3.16 -8.01,-1.91 -8.81,2.01z"/>
   <path class="fil6" d="M181.46 149.3c1.31,4.11 2.67,5.3 6.78,6.77 3.93,-0.8 5.18,-5.66 2.03,-8.81 -3.15,-3.15 -8.02,-1.89 -8.81,2.04z"/>
   <path class="fil7" d="M128.19 106.16l0 10.34c3.27,0.6 3.98,1.95 5.75,3.8l-0.02 -17.94c-1.4,1.89 -2.64,3.35 -5.73,3.8z"/>
   <path class="fil8" d="M191.87 254.2c2.84,-1.25 3.12,-1.55 4.37,-4.38l-1.71 -0.64c-1.98,2.03 -6.52,0.21 -8.54,-1.07 -2.69,-1.7 -3.41,-2.33 -4.53,-5.93 -2.62,2.48 0.27,6.47 2.99,7.43 4.94,1.74 4.83,0.27 7.42,4.6z"/>
   <path class="fil8" d="M234.67 248.96c-4.07,-1.46 -5.49,-2.69 -6.76,-6.79 -3.89,2.29 3.03,10.87 6.76,6.79z"/>
   <path class="fil8" d="M281.12 248.96c-4.07,-1.46 -5.49,-2.69 -6.76,-6.79 -3.89,2.29 3.03,10.87 6.76,6.79z"/>
   <path class="fil8" d="M281.12 202.51c-4.07,-1.46 -5.49,-2.69 -6.76,-6.79 -3.89,2.28 3.03,10.87 6.76,6.79z"/>
   <path class="fil8" d="M188.22 202.51c-4.07,-1.46 -5.49,-2.69 -6.76,-6.79 -3.89,2.28 3.03,10.87 6.76,6.79z"/>
   <path class="fil8" d="M234.67 202.51c-4.07,-1.46 -5.49,-2.69 -6.76,-6.79 -3.89,2.28 3.03,10.87 6.76,6.79z"/>
   <path class="fil8" d="M281.12 156.06c-4.07,-1.46 -5.49,-2.69 -6.76,-6.79 -3.89,2.28 3.03,10.87 6.76,6.79z"/>
   <path class="fil8" d="M234.67 156.06c-4.07,-1.46 -5.49,-2.69 -6.76,-6.79 -3.89,2.28 3.03,10.87 6.76,6.79z"/>
   <path class="fil8" d="M188.24 156.07c-4.11,-1.47 -5.47,-2.67 -6.78,-6.77 -2.26,1.29 -0.47,4.77 0.77,6 0.66,0.66 1.72,1.43 2.78,1.63 2.55,0.48 2.32,0.12 3.23,-0.86z"/>
   <path class="fil9" d="M273.21 214.85c-3.47,-4.4 -2.4,1.45 -9.63,-9.51 -1.28,-1.94 -0.4,-0.76 -1.55,-1.66 1.74,5.96 5.22,9.45 11.18,11.17z"/>
   <path class="fil9" d="M273.21 168.4c-3.47,-4.4 -2.4,1.45 -9.63,-9.51 -1.28,-1.94 -0.4,-0.76 -1.55,-1.66 1.74,5.96 5.22,9.45 11.18,11.17z"/>
   <path class="fil9" d="M226.76 168.4c-1.48,-1.88 -1.28,-1.25 -3.11,-2.28 -5.81,-3.28 -4.93,-6.44 -8.07,-8.89 1.74,5.96 5.22,9.45 11.18,11.17z"/>
  </g>
 </g>
</svg>
