<?xml version="1.0" encoding="UTF-8"?>
<!DOCTYPE svg PUBLIC "-//W3C//DTD SVG 1.1//EN" "http://www.w3.org/Graphics/SVG/1.1/DTD/svg11.dtd">
<!-- Creator: CorelDRAW 2020 (64-Bit) -->
<svg xmlns="http://www.w3.org/2000/svg" xml:space="preserve" width="120.108mm" height="135.45mm" version="1.1" style="shape-rendering:geometricPrecision; text-rendering:geometricPrecision; image-rendering:optimizeQuality; fill-rule:evenodd; clip-rule:evenodd"
viewBox="0 0 12047.55 13586.42"
 xmlns:xlink="http://www.w3.org/1999/xlink"
 xmlns:xodm="http://www.corel.com/coreldraw/odm/2003">
 <defs>
  <style type="text/css">
   <![CDATA[
    .fil2 {fill:black}
    .fil5 {fill:#72262C}
    .fil4 {fill:#C42430}
    .fil0 {fill:#DC4854}
    .fil3 {fill:#E3E0E4}
    .fil1 {fill:#F8F7F8}
   ]]>
  </style>
 </defs>
 <g id="Capa_x0020_1">
  <metadata id="CorelCorpID_0Corel-Layer"/>
  <g id="_1872338242384">
   <path class="fil0" d="M7463.45 8889.56c-95.05,844.17 -580.61,1401.79 -1466.14,1409.32 -946.66,8.05 -934.05,106.14 -933.12,-507.1l0.02 -2149.42c0,-185.51 -54.17,-556.35 81.98,-638.23 145.79,-87.69 1165.72,-30.2 1354.84,28.33 674.69,208.78 1064.47,950.64 962.42,1857.1zm-4621.63 157.1c-120.25,249.13 115.3,1142.79 -112.25,1273.38 -407.7,233.98 -306.69,-659.27 -306.69,-1005.9l-0.99 -2071.3c-0.49,-302.37 101.33,-319.09 390.79,-317.22 458.86,2.97 859.36,-58.32 1217.48,162.61 247.12,152.45 495.32,445.24 501.69,873.24 6.65,446.11 -230.7,727.88 -481.42,892.48 -473.79,311.07 -918.68,96.79 -1208.61,192.71zm5578.09 -1712.21l-12.7 1075.71c215.6,0.01 428.65,0.34 641.67,-0.02 206.26,-0.36 467.72,-41.95 475.88,188.79 8.51,240.43 -243.59,209.8 -449.31,209.21 -222.55,-0.64 -445.18,-0.07 -667.75,-0.07 0,301.37 0,602.74 0,904.11 0.01,340.68 94.55,665.02 -298.81,609.9 -147.1,-85.42 -99.09,-487.17 -99.09,-716.04 0,-398.94 -20.52,-2431.32 14.76,-2536.97 69.14,-207.1 467.38,-132.51 679.35,-132.51 206.58,0 1119.76,-122.27 893.93,297.17 -60.43,112.26 -180.64,102.48 -336.4,101.39 -280.48,-1.98 -561.03,-0.65 -841.53,-0.65zm-7117.64 -1496.35c-148.36,143.3 -247.46,225.4 -344.64,453.94 -143.45,337.37 -82.43,1909.09 -82.43,2332.16 0,413.43 -56.38,2011.23 74.76,2339.99 97.89,245.39 202.2,322.13 352.32,472.65l3528.57 -0.78c180.81,-0.11 297.11,24.3 309.52,200.62l541.12 1.73c19.81,-280.89 362.9,-201.32 634.2,-201.32l4272.31 0.14c495.16,0.94 926.6,-159.25 1030.2,-694.58 52.19,-269.68 17.94,-2914.34 17.94,-3418.7 0,-607.75 35.02,-1052.22 -374.42,-1336.65 -286.62,-199.12 -748.3,-142.22 -1126.57,-148.31 -201.19,-3.24 -233.84,-29.86 -271.71,-209.06l-528.05 10.26c-77.08,274.33 -320.82,197.67 -817.22,197.67l-7215.89 0.25z"/>
   <path class="fil1" d="M1582.35 5440.33l6962.35 -0.35c437.13,0 730.25,-76.53 790.69,200.19l528.05 -10.26c57.87,-246.9 218.4,-190.33 485.7,-189.95 195.75,0.28 489.15,-17.27 663.53,26.89l-0.13 -598.25c-521.67,0 -2855.79,52.55 -3267.16,-61.46 -269.54,-74.7 -560.38,-267.37 -700.1,-415.16 -477.7,-505.29 -455.18,-928.82 -455.18,-1764.93 0,-743.16 0,-1486.31 0,-2229.45l-4501.88 0.03c-60.07,79.36 -121.61,95.38 -189.9,173.59 -44.87,51.38 -104.96,132.78 -146.33,199.42 -272.72,439.35 -169.66,1299.34 -169.66,1909.48 0,920.07 0,1840.14 0,2760.2z"/>
   <path class="fil2" d="M769.66 3972.31c239.76,-36.08 218.87,-176.85 217.58,-416.42l-0.2 -1831.05c-0.05,-440.83 -16.89,-700.57 235.97,-979.91 221.77,-245 416.76,-344.71 865.22,-347.29l4501.88 -0.03c629.55,3.84 599.63,-77.95 595.98,292.07l-0.28 796.33c0,555.39 -85.25,851.21 187.78,905.8 171.71,-18.38 207.9,-90.71 211.2,-267.39 6.94,-371.65 -28.62,-1153.42 8.65,-1427.31l3171.58 3169.88c-208.81,29.31 -1814.87,9.12 -2167.24,9.13 -365.09,0 -701.63,21.09 -877.65,-211.71 -233.84,-309.26 -4.49,-693.41 -335.25,-735.83 -402.76,58.87 -131.41,783.43 7.71,957.32 210.9,263.62 509.49,388.97 966.35,388.29 893.91,-1.3 1787.9,-0.18 2681.81,-0.18 32.44,199.2 18.9,404.98 20.97,608.58 1.07,106.19 -0.36,212.62 1.38,318.68 5.35,326 6.24,240.1 -50.43,265.55 -174.38,-44.16 -467.79,-26.61 -663.53,-26.89 -267.31,-0.38 -427.84,-56.95 -485.7,189.95 37.87,179.2 70.52,205.82 271.71,209.06 378.26,6.09 839.94,-50.81 1126.57,148.31 409.44,284.43 374.42,728.89 374.42,1336.65 0,504.36 34.24,3149.02 -17.94,3418.7 -103.61,535.33 -535.04,695.52 -1030.2,694.58l-4272.31 -0.14c-271.3,0 -614.38,-79.56 -634.2,201.32 33.4,255.5 248.05,196.79 501.51,196.56l2096.35 -0.02c905.51,0 1891.54,36.36 2781.26,-25.26 0,422.87 4.08,775.94 -232.94,1035.22 -243.46,266.33 -499.76,344.46 -956.16,343.68l-7782.89 0.18c-454.32,-2.48 -650.79,-102.71 -877.96,-361.38 -251.33,-286.18 -223.61,-571.28 -223.61,-1017.59l595.31 24.8 3275.43 1.55c180.88,-1.71 260.19,-31.68 282.58,-199.47 -12.42,-176.32 -128.71,-200.73 -309.52,-200.62l-3528.57 0.78c-577.42,-17.17 -891.42,-388.59 -891.15,-981.64l-0.07 -3662.03c1.56,-576.23 330.41,-939.02 891.22,-955.06l7215.89 -0.25c496.4,0 740.15,76.65 817.22,-197.67 -60.44,-276.72 -353.56,-200.19 -790.69,-200.19l-6962.35 0.35 -595.31 24.72c0,-203.14 -0.6,-406.3 0.71,-609.42 2.17,-336.22 -43.01,-268.72 -205.73,-371.04 -253.29,104.98 -198.59,134.24 -198.13,477.63 0.31,229.98 0.02,459.97 0.02,689.96 -173.7,91.9 -333.55,274.6 -425.09,450.59 -121.42,233.42 -160.11,388.16 -158.78,743.44l0.04 3555.93c-1.14,499.9 149.2,990.64 583.83,1220.62 0,286.09 -26.77,631.09 27.76,874.45 101.25,451.77 425.61,839.31 854.76,1002.77 161.82,61.63 291.64,81.1 442.16,86.44l400.15 0 7403.54 0 197.2 0c478.34,-2.03 811.23,-35.3 1202.93,-457.39 410.65,-442.5 351.24,-924.66 351.24,-1506.28 128.33,-34.26 356.8,-319.41 425.09,-450.59 115.91,-222.7 160.05,-402.81 158.77,-743.45l-0.04 -3555.93c0.93,-409.91 -74.43,-753.97 -337.97,-1015.36 -76.77,-76.14 -135.26,-175.74 -245.85,-205.26 0,-577.3 92.94,-1369.91 -147.96,-1762.64 -96.01,-156.52 -186.02,-229.84 -309.79,-353.61l-2587.26 -2587.25c-223.08,-223.09 -426.31,-428.45 -649.58,-650.68 -266.05,-264.82 -509.67,-295.22 -812.08,-297.99l-190.2 0 -40.22 0 -40.21 0 -40.22 0 -40.21 0 -40.22 0 -40.22 0 -40.21 0 -40.22 0 -40.21 0 -40.22 0 -40.22 0 -40.21 0 -40.22 0 -40.21 0 -40.22 0 -40.21 0 -40.22 0 -40.22 0 -40.21 0 -40.22 0 -40.21 0 -40.22 0 -40.22 0 -40.21 0 -40.22 0 -40.21 0 -40.22 0 -40.22 0 -40.21 0 -40.22 0 -40.21 0 -40.22 0 -40.22 0 -40.21 0 -40.22 0 -40.21 0 -40.22 0 -40.22 0 -40.21 0 -40.22 0 -40.21 0 -40.22 0 -40.22 0 -40.21 0 -40.22 0 -40.21 0 -40.22 0 -40.21 0 -40.22 0 -40.22 0 -40.21 0 -40.22 0 -40.21 0 -40.22 0 -40.22 0 -40.21 0 -40.22 0 -40.21 0 -40.22 0 -40.22 0 -40.21 0 -40.22 0 -40.21 0 -40.22 0 -2283.37 0c-121.03,8.45 -218.3,20.21 -280.81,36.34 -747.66,192.91 -1044.91,754.6 -1044.72,1529.28l-0.01 1937.14c-0.33,251.51 -42.62,449.66 185.77,469.55z"/>
   <path class="fil1" d="M1582.35 11834.58c0,308.34 -22.18,568.69 96.78,841.8 53.47,122.78 117.38,208.7 183.72,294.28 85.44,110.21 155.34,126.19 225.77,218.1l7782.89 -0.18c456.39,0.78 712.69,-77.35 956.16,-343.68 237.02,-259.28 232.94,-612.35 232.94,-1035.22 -889.71,61.62 -1875.74,25.26 -2781.26,25.26l-2096.35 0.02c-253.46,0.23 -468.11,58.94 -501.51,-196.56l-541.12 -1.73c-22.39,167.79 -101.7,197.76 -282.58,199.47l-3275.43 -1.55z"/>
   <path class="fil0" d="M7373.59 2391.82l11.28 536.79c330.76,42.42 101.41,426.56 335.25,735.83 176.02,232.8 512.55,211.71 877.65,211.71 352.38,-0.01 1958.44,20.18 2167.24,-9.13l-3171.58 -3169.88c-37.26,273.89 -1.71,1055.65 -8.65,1427.31 -3.3,176.68 -39.49,249.01 -211.2,267.39z"/>
   <path class="fil3" d="M11012.67 5466.85c56.67,-25.45 55.78,60.45 50.43,-265.55 -1.75,-106.06 -0.31,-212.49 -1.38,-318.68 -2.08,-203.6 11.46,-409.38 -20.97,-608.58 -893.92,0 -1787.91,-1.12 -2681.81,0.18 -456.85,0.67 -755.45,-124.67 -966.35,-388.29 -139.12,-173.89 -410.47,-898.45 -7.71,-957.32l-11.28 -536.79c-273.03,-54.6 -187.78,-350.41 -187.78,-905.8l0.28 -796.33c3.65,-370.02 33.57,-288.23 -595.98,-292.07 0,743.15 0,1486.3 0,2229.45 0,836.1 -22.52,1259.63 455.18,1764.93 139.72,147.79 430.55,340.46 700.1,415.16 411.37,114.01 2745.49,61.46 3267.16,61.46l0.13 598.25z"/>
   <path class="fil0" d="M5467.42 9903.87c509.29,7.56 905.33,47.49 1227.23,-237.03 232.66,-205.64 386.84,-601.99 385.47,-1042.81 -1.34,-433.45 -148.65,-852.96 -383.98,-1043.9 -340.25,-276.06 -731.8,-211.97 -1233.99,-211.97l5.27 2535.71z"/>
   <path class="fil2" d="M5467.42 9903.87l-5.27 -2535.71c502.18,0 893.74,-64.1 1233.99,211.97 235.33,190.93 382.64,610.44 383.98,1043.9 1.37,440.83 -152.81,837.17 -385.47,1042.81 -321.9,284.53 -717.94,244.6 -1227.23,237.03zm1996.03 -1014.32c102.05,-906.46 -287.73,-1648.32 -962.42,-1857.1 -189.13,-58.53 -1209.05,-116.01 -1354.84,-28.33 -136.15,81.88 -81.98,452.72 -81.98,638.23l-0.02 2149.42c-0.93,613.24 -13.54,515.15 933.12,507.1 885.53,-7.53 1371.09,-565.15 1466.14,-1409.32z"/>
   <path class="fil3" d="M769.66 3972.31l12.37 512.27c162.72,102.32 207.89,34.83 205.73,371.04 -1.31,203.12 -0.71,406.28 -0.71,609.42l595.31 -24.72c0,-920.07 0,-1840.14 0,-2760.2 0,-610.13 -103.06,-1470.13 169.66,-1909.48 41.37,-66.64 101.46,-148.04 146.33,-199.42 68.29,-78.21 129.83,-94.23 189.9,-173.59 -448.46,2.58 -643.45,102.29 -865.22,347.29 -252.86,279.34 -236.02,539.08 -235.97,979.91l0.2 1831.05c1.28,239.57 22.18,380.34 -217.58,416.42z"/>
   <path class="fil2" d="M3522.36 8618.48c-96.44,54.75 -556.32,40.46 -695.36,18.18 -33.91,-135.41 -19.76,-799.04 -21.08,-1020.82 -0.32,-52.56 -2.97,-109.05 -2.36,-160.8l26.94 -135.21c576.81,30.18 1026.36,-78.76 1243.76,387.46 200.79,430.63 -147.23,919.03 -551.89,911.2zm-680.54 428.18c289.92,-95.92 734.82,118.36 1208.61,-192.71 250.72,-164.6 488.07,-446.37 481.42,-892.48 -6.37,-428.01 -254.57,-720.8 -501.69,-873.24 -358.11,-220.92 -758.61,-159.64 -1217.48,-162.61 -289.46,-1.88 -391.28,14.85 -390.79,317.22l0.99 2071.3c0,346.63 -101.02,1239.88 306.69,1005.9 227.55,-130.59 -7.99,-1024.25 112.25,-1273.38z"/>
   <path class="fil4" d="M1302.27 11436.83c-150.12,-150.52 -254.43,-227.26 -352.32,-472.65 -131.14,-328.76 -74.76,-1926.56 -74.76,-2339.99 0,-423.07 -61.02,-1994.79 82.43,-2332.16 97.19,-228.54 196.28,-310.64 344.64,-453.94 -560.81,16.05 -889.65,378.84 -891.22,955.06l0.07 3662.03c-0.27,593.05 313.73,964.46 891.15,981.64z"/>
   <path class="fil2" d="M8419.91 7334.44c280.5,0 561.05,-1.32 841.53,0.65 155.76,1.09 275.96,10.87 336.4,-101.39 225.83,-419.44 -687.35,-297.17 -893.93,-297.17 -211.98,0 -610.21,-74.59 -679.35,132.51 -35.28,105.65 -14.76,2138.03 -14.76,2536.97 0,228.88 -48.01,630.62 99.09,716.04 393.36,55.12 298.82,-269.22 298.81,-609.9 0,-301.37 0,-602.74 0,-904.11 222.57,0 445.2,-0.57 667.75,0.07 205.72,0.59 457.82,31.23 449.31,-209.21 -8.16,-230.73 -269.62,-189.15 -475.88,-188.79 -213.02,0.36 -426.07,0.03 -641.67,0.02l12.7 -1075.71z"/>
   <path class="fil0" d="M3522.36 8618.48c404.66,7.83 752.69,-480.57 551.89,-911.2 -217.39,-466.22 -666.95,-357.28 -1243.76,-387.46l8.34 1300.12 683.53 -1.45z"/>
   <path class="fil3" d="M2088.61 13188.75c-70.42,-91.91 -140.33,-107.89 -225.77,-218.1 -66.34,-85.58 -130.25,-171.49 -183.72,-294.28 -118.95,-273.11 -96.78,-533.46 -96.78,-841.8l-595.31 -24.8c0,446.3 -27.71,731.4 223.61,1017.59 227.17,258.67 423.64,358.91 877.96,361.38z"/>
   <path class="fil5" d="M3522.36 8618.48l-683.53 1.45 -8.34 -1300.12 -26.94 135.21c-0.61,51.75 2.04,108.24 2.36,160.8 1.32,221.79 -12.83,885.41 21.08,1020.82 139.04,22.29 598.92,36.57 695.36,-18.18z"/>
  </g>
 </g>
</svg>
