<?xml version="1.0" encoding="UTF-8"?>
<!DOCTYPE svg PUBLIC "-//W3C//DTD SVG 1.1//EN" "http://www.w3.org/Graphics/SVG/1.1/DTD/svg11.dtd">
<!-- Creator: CorelDRAW 2020 (64-Bit) -->
<svg xmlns="http://www.w3.org/2000/svg" xml:space="preserve" width="123.224mm" height="94.7931mm" version="1.1" style="shape-rendering:geometricPrecision; text-rendering:geometricPrecision; image-rendering:optimizeQuality; fill-rule:evenodd; clip-rule:evenodd"
viewBox="0 0 69.33 53.33"
 xmlns:xlink="http://www.w3.org/1999/xlink"
 xmlns:xodm="http://www.corel.com/coreldraw/odm/2003">
 <defs>
  <style type="text/css">
   <![CDATA[
    .fil1 {fill:#4D4D4D}
    .fil0 {fill:#B2B2B2}
   ]]>
  </style>
 </defs>
 <g id="Capa_x0020_1">
  <metadata id="CorelCorpID_0Corel-Layer"/>
  <rect class="fil0" y="-0" width="69.33" height="53.33" rx="5.07" ry="5.47"/>
  <path class="fil1" d="M34.58 8.14c5.92,0 10.72,4.8 10.72,10.72 0,2.89 -1.14,5.51 -3,7.44l-0 0c2.74,1.57 5.74,4.51 7.31,7.15 2.46,4.15 3.75,11.7 -0.75,11.7l-14.41 0 -14.41 0c-4.49,0 -3.21,-7.56 -0.75,-11.7 1.57,-2.64 4.89,-5.51 7.63,-7.08l-0 -0c-1.9,-1.93 -3.07,-4.58 -3.07,-7.5 0,-5.92 4.8,-10.72 10.72,-10.72z"/>
 </g>
</svg>
