<?xml version="1.0" encoding="UTF-8"?>
<!DOCTYPE svg PUBLIC "-//W3C//DTD SVG 1.1//EN" "http://www.w3.org/Graphics/SVG/1.1/DTD/svg11.dtd">
<!-- Creator: CorelDRAW 2020 (64-Bit) -->
<svg xmlns="http://www.w3.org/2000/svg" xml:space="preserve" width="264.057mm" height="349.088mm" version="1.1" style="shape-rendering:geometricPrecision; text-rendering:geometricPrecision; image-rendering:optimizeQuality; fill-rule:evenodd; clip-rule:evenodd"
viewBox="0 0 274.45 362.83"
 xmlns:xlink="http://www.w3.org/1999/xlink"
 xmlns:xodm="http://www.corel.com/coreldraw/odm/2003">
 <defs>
  <style type="text/css">
   <![CDATA[
    .fil0 {fill:black}
    .fil5 {fill:#77A8E9}
    .fil4 {fill:#7FB3F9}
    .fil3 {fill:#8FD6F8}
    .fil1 {fill:#DEE9EE}
    .fil2 {fill:#F8F5F8}
   ]]>
  </style>
 </defs>
 <g id="Capa_x0020_1">
  <metadata id="CorelCorpID_0Corel-Layer"/>
  <g id="_2070828023600">
   <path class="fil0" d="M10.92 275.67c1.87,-6.25 26.33,-4.07 34.26,-12.01 7.1,-7.11 5.02,-31.1 11.31,-33.82 4.15,1.85 4.67,12.66 5.7,17.44 4.06,18.92 4.07,18.39 22.89,22.51 7.51,1.64 15.83,2.04 16.97,5.87 -2.73,5.03 -28.24,4.8 -34.33,11.23 -3.33,3.51 -4.25,11.07 -5.58,17.04 -0.69,3.1 -1.37,6.2 -2.04,9.31 -2.28,10.55 -4.96,10.71 -7.19,0.04 -5.96,-28.44 -3.85,-27.81 -24.56,-32.17 -5.38,-1.13 -15.81,-2.43 -17.43,-5.44zm30.04 -275.67l48.83 0 24.77 0c4.55,1.12 5.65,4.93 14.2,16.3 1.91,2.54 21.53,29.82 23.39,31.18 0.62,-2.32 0.78,-1.71 2.1,-3.56l14.7 -20.02c3,-4 5.37,-7.4 8.4,-11.44 8.06,-10.72 7.33,-12.27 12.68,-12.45l5.18 0c2.14,0.01 4.36,0.01 6.65,0l62.95 0c13.45,1.06 -1.13,16.34 -5.48,22.16 -3,4.02 -5.36,7.4 -8.4,11.45l-42.11 57.1c2,2.99 4.28,4.14 6.37,7.8 4.67,8.19 2.84,26.68 2.84,38.26 27.28,18.27 46.96,44.84 53.81,78 9.19,44.49 -7.3,85.35 -31.65,110.7l-17.62 14.98c-19.29,13.32 -40.66,20.89 -62.59,22.39l-16.18 0c-12.76,-0.87 -25.57,-3.78 -38.15,-8.81 -9.71,-3.88 -33.42,-17.17 -39.28,-25.92 -2.54,1.34 -4.46,3.08 -7.88,3.5 -11.95,1.45 -14.49,-7.59 -16.28,-16.19 -4.77,-22.92 -2.6,-20.74 -10.26,-22.34 -5.59,-1.16 -22.87,-4.67 -26.01,-6.59 -7.14,-4.37 -11.06,-20.5 6.98,-24.57 4.57,-1.03 14.13,-2.44 17.3,-3.96 -5.42,-23.27 2.03,-53.52 12.28,-74.17 8.3,-16.74 26.72,-38.06 42.28,-46.3 0,-13.54 -2.02,-28.38 3.52,-39 1.19,-2.28 1.4,-2.29 2.92,-4.16 1.64,-2 1.11,-1.65 3.48,-2.9 -7.18,-10.72 -19.66,-26.21 -27.63,-37.56 -5.02,-7.15 -7.43,-8.18 -4.26,-14.17 7.73,-2.43 7.97,0.82 16.27,12.06 3.91,5.3 36.33,50.62 38.3,51.06l61.3 0 -33.97 -46.51c-5.46,-7.6 -11.2,-15.08 -16.82,-22.87 -3,-4.16 -5.6,-7.54 -8.41,-11.44 -1.62,-2.25 -6.79,-10.25 -9.19,-11.37l-61.24 0c6.38,11.03 12.03,11.26 6.85,19.14 -6.21,2.6 -9.46,-3.45 -14.92,-11.48 -3.94,-5.79 -12.14,-13.25 -5.69,-17.46 0.58,-0.38 2.63,-0.65 5.62,-0.83zm167.91 305.02c-6.53,-4 -9.42,0.49 -14.4,3.76 -14.14,9.24 -32.97,13.58 -50.64,11.86 -12.52,-1.22 -22.82,-5.03 -32.15,-10.15 -7.98,-4.37 -18.89,-13.23 -22.31,-19.22 4.79,-2.59 13.02,-1.6 18.28,-5.53 3.93,-2.93 7.33,-10.67 3.28,-17.02 -6.17,-9.66 -31.33,-8.46 -35.3,-12.22 -1.59,-2.64 -4.72,-17.8 -4.66,-21.14 0.12,-7.08 2.2,-15.38 4.31,-21.68 8.16,-24.41 29.06,-44.01 53.76,-51.11 69.59,-20.02 127.63,53.83 93.42,116.8 -7.2,13.25 -9.08,8.07 -4.66,17.24 5.76,0.01 5.94,0.32 8.79,-3.91 14.91,-22.11 20.54,-48.06 13.77,-74.76 -18.52,-73.11 -112.8,-94.56 -161.17,-33.66 -8.59,10.82 -12.24,20.41 -16.86,36.05 -7.84,-1.81 -14.46,-0.33 -17.49,6.13 -0.86,1.84 -4.67,17.89 -4.94,19.89 -2.73,-30.23 10.37,-57.97 23.78,-75.46 32.56,-42.44 92.36,-55.07 141.99,-28.78 46.26,24.51 70.04,82.51 51.84,134.74 -8.91,25.57 -25.39,44.01 -43.11,56.11 -20.16,13.75 -48.51,22.33 -78.75,18.1 -27.6,-3.86 -52.89,-19.38 -65.35,-34.26 0.65,-4.01 3.62,-21 6.06,-22.88 2.84,0.46 1.67,0.29 3.66,2.92 4.85,6.38 5.01,5.39 8.74,9.68 2.82,3.25 9.33,8.03 13.86,10.93 27.94,17.91 68.21,19.31 96.51,0.94 8.65,-5.61 11.52,-6.22 9.78,-13.34zm-112.7 -174.62c0,-5.67 0.03,-11.35 -0.01,-17.02 -0.06,-8.11 1.08,-8.71 4.26,-13.45 1.93,1.29 4.39,5.14 6.07,7.39 2.54,3.4 3.46,6.07 7.39,6.07l75.83 0c3.58,0 4.59,-2.33 6.95,-5.81 1.46,-2.16 4.5,-5.42 5.1,-7.66 7.97,5.33 5.67,18.86 5.67,30.47l-11.03 -4.56c-28.63,-11.55 -66.86,-11.45 -94.8,2.19 -2.16,1.05 -3.08,1.82 -5.43,2.37zm93.14 -31.49c-1,-1.7 -1.76,0.15 -0.57,-1.58 0.92,-1.33 0.22,-0.33 2.13,-0.49l-1.56 2.07zm-30.8 -42.21c1.82,-3.4 5.84,-8.41 8.28,-11.57l25.05 -34.44 62.37 0c-5,8.78 -53.38,71.63 -55.22,75.84 -4.63,-0.27 -14.08,0.23 -17.68,-0.38 -2.53,-0.42 -6.38,-6.7 -8.27,-9.23 -2.47,-3.3 -4.85,-6.74 -7.51,-10.21 -1.98,-2.59 -5.58,-7.21 -7.02,-10.01z"/>
   <path class="fil1" d="M159.64 273.14c13.74,1.83 24.24,-3.68 31.76,7.23 6.87,9.97 -0.01,21.95 -9.62,24.23 -6.19,1.47 -30.21,0.73 -38.13,0.69 -13.49,-0.07 -23.53,0.97 -29.06,-9.06 -6,-10.89 3.29,-20.84 7.9,-26.84 7.09,-9.22 27.55,-36.69 32.39,-45.54 9.09,-16.63 -7.3,-20.56 -12.37,-13.81 -1.81,2.41 -5.14,20.78 -21.71,16.19 -27.36,-7.58 -0.96,-62.69 40.78,-49.26 16.78,5.4 33.88,24.31 26.85,48.54 -2.97,10.24 -8.33,18.66 -13.21,25.76 -5.21,7.56 -10.53,14.83 -15.57,21.89zm49.24 31.87c1.71,-2.16 2.23,-3.02 4.06,-4.71 0.76,-0.7 1.23,-1.1 2.25,-2.02 1.79,-1.62 0.29,-1.42 2.59,-1.69 -4.41,-9.16 -2.54,-3.99 4.66,-17.24 34.21,-62.97 -23.83,-136.82 -93.42,-116.8 -24.69,7.1 -45.6,26.71 -53.76,51.11 -2.11,6.31 -4.19,14.61 -4.31,21.68 -0.06,3.34 3.07,18.49 4.66,21.14 3.97,3.76 29.13,2.56 35.3,12.22 4.05,6.34 0.65,14.09 -3.28,17.02 -5.26,3.93 -13.49,2.94 -18.28,5.53 3.42,5.99 14.33,14.85 22.31,19.22 9.33,5.12 19.63,8.93 32.15,10.15 17.67,1.73 36.51,-2.62 50.64,-11.86 4.99,-3.26 7.88,-7.75 14.4,-3.76z"/>
   <path class="fil2" d="M217.79 296.6c-2.31,0.28 -0.8,0.07 -2.59,1.69 -1.02,0.92 -1.49,1.32 -2.25,2.02 -1.83,1.68 -2.35,2.55 -4.06,4.71 1.74,7.12 -1.13,7.73 -9.78,13.34 -28.3,18.37 -68.56,16.97 -96.51,-0.94 -4.52,-2.9 -11.03,-7.68 -13.86,-10.93 -3.73,-4.29 -3.9,-3.3 -8.74,-9.68 -1.99,-2.62 -0.82,-2.46 -3.66,-2.92 -2.44,1.87 -5.4,18.87 -6.06,22.88 12.47,14.87 37.76,30.39 65.35,34.26 30.24,4.23 58.59,-4.34 78.75,-18.1 17.73,-12.09 34.2,-30.53 43.11,-56.11 18.2,-52.24 -5.58,-110.24 -51.84,-134.74 -49.62,-26.29 -109.43,-13.66 -141.99,28.78 -13.41,17.49 -26.52,45.22 -23.78,75.46 0.27,-2 4.08,-18.05 4.94,-19.89 3.03,-6.46 9.66,-7.94 17.49,-6.13 4.62,-15.64 8.26,-25.23 16.86,-36.05 48.37,-60.9 142.65,-39.44 161.17,33.66 6.76,26.71 1.14,52.66 -13.77,74.76 -2.85,4.23 -3.02,3.93 -8.79,3.91z"/>
   <path class="fil3" d="M55.96 29.76c1.37,1.21 2.28,3.06 3.56,4.76 1.29,1.72 2.79,3.08 3.35,5.16 7.73,-2.43 7.97,0.82 16.27,12.06 3.91,5.3 36.33,50.62 38.3,51.06l61.3 0 -33.97 -46.51c-5.46,-7.6 -11.2,-15.08 -16.82,-22.87 -3,-4.16 -5.6,-7.54 -8.41,-11.44 -1.62,-2.25 -6.79,-10.25 -9.19,-11.37l-61.24 0c6.38,11.03 12.03,11.26 6.85,19.14z"/>
   <path class="fil0" d="M120.27 213.59c-2.25,-15.03 17.91,-33.77 39.3,-26.13 16.8,6 24.83,24.41 15.15,44.16 -5.02,10.25 -20.26,30.22 -27.65,40.37 -13.98,19.21 19.17,9.35 32.03,12 4.69,0.96 6.01,7.81 1.24,9.92 -2.41,1.07 -28.99,0.76 -33.85,0.76 -7.34,-0.01 -28.33,2.3 -22.35,-9.45l28.74 -39.31c10.31,-13.7 24.26,-32.17 8.48,-45.38 -7.2,-6.03 -18.24,-5.46 -24.78,0.74 -8.89,8.43 -5.08,20.62 -16.31,12.31zm39.37 59.55c5.04,-7.06 10.36,-14.33 15.57,-21.89 4.88,-7.09 10.24,-15.52 13.21,-25.76 7.03,-24.23 -10.07,-43.14 -26.85,-48.54 -41.74,-13.43 -68.14,41.68 -40.78,49.26 16.57,4.59 19.9,-13.78 21.71,-16.19 5.07,-6.75 21.46,-2.82 12.37,13.81 -4.84,8.85 -25.3,36.32 -32.39,45.54 -4.61,6 -13.9,15.95 -7.9,26.84 5.53,10.04 15.57,8.99 29.06,9.06 7.92,0.04 31.94,0.77 38.13,-0.69 9.61,-2.28 16.48,-14.25 9.62,-24.23 -7.52,-10.91 -18.02,-5.39 -31.76,-7.23z"/>
   <path class="fil4" d="M158.52 56.69c1.44,2.8 5.04,7.42 7.02,10.01 2.65,3.47 5.03,6.91 7.51,10.21 1.89,2.53 5.74,8.81 8.27,9.23 3.61,0.6 13.05,0.1 17.68,0.38 1.84,-4.21 50.21,-67.05 55.22,-75.84l-62.37 -0 -25.05 34.44c-2.45,3.16 -6.46,8.18 -8.28,11.57z"/>
   <path class="fil2" d="M120.27 213.59c11.23,8.31 7.42,-3.88 16.31,-12.31 6.53,-6.2 17.58,-6.76 24.78,-0.74 15.78,13.21 1.83,31.68 -8.48,45.38l-28.74 39.31c-5.98,11.75 15.01,9.44 22.35,9.45 4.87,0 31.44,0.31 33.85,-0.76 4.77,-2.11 3.45,-8.96 -1.24,-9.92 -12.86,-2.65 -46.01,7.21 -32.03,-12 7.39,-10.16 22.62,-30.12 27.65,-40.37 9.68,-19.75 1.65,-38.16 -15.15,-44.16 -21.39,-7.64 -41.54,11.1 -39.3,26.13z"/>
   <path class="fil2" d="M10.92 275.67c1.61,3 12.05,4.3 17.43,5.44 20.7,4.36 18.6,3.74 24.56,32.17 2.24,10.68 4.91,10.51 7.19,-0.04 0.67,-3.11 1.35,-6.21 2.04,-9.31 1.33,-5.97 2.25,-13.53 5.58,-17.04 6.09,-6.42 31.6,-6.2 34.33,-11.23 -1.14,-3.83 -9.46,-4.23 -16.97,-5.87 -18.81,-4.12 -18.83,-3.59 -22.89,-22.51 -1.03,-4.78 -1.55,-15.6 -5.7,-17.44 -6.29,2.72 -4.2,26.7 -11.31,33.82 -7.93,7.94 -32.39,5.76 -34.26,12.01z"/>
   <path class="fil5" d="M189.31 98.91l1.56 -2.07c-1.91,0.16 -1.21,-0.84 -2.13,0.49 -1.19,1.74 -0.43,-0.12 0.57,1.58z"/>
  </g>
 </g>
</svg>
