<?xml version="1.0" encoding="UTF-8"?>
<!DOCTYPE svg PUBLIC "-//W3C//DTD SVG 1.1//EN" "http://www.w3.org/Graphics/SVG/1.1/DTD/svg11.dtd">
<!-- Creator: CorelDRAW 2020 (64-Bit) -->
<svg xmlns="http://www.w3.org/2000/svg" xml:space="preserve" width="43.8543mm" height="43.8543mm" version="1.1" style="shape-rendering:geometricPrecision; text-rendering:geometricPrecision; image-rendering:optimizeQuality; fill-rule:evenodd; clip-rule:evenodd"
viewBox="0 0 4387.74 4387.74"
 xmlns:xlink="http://www.w3.org/1999/xlink"
 xmlns:xodm="http://www.corel.com/coreldraw/odm/2003">
 <defs>
  <style type="text/css">
   <![CDATA[
    .fil2 {fill:black}
    .fil7 {fill:#77A8E9}
    .fil6 {fill:#7FB3F9}
    .fil5 {fill:#8FD6F8}
    .fil0 {fill:#CCCC33}
    .fil3 {fill:#DEE9EE}
    .fil4 {fill:#F8F5F8}
    .fil1 {fill:white}
   ]]>
  </style>
 </defs>
 <g id="Capa_x0020_1">
  <metadata id="CorelCorpID_0Corel-Layer"/>
  <path class="fil0" d="M2193.87 0c1211.65,0 2193.88,982.23 2193.88,2193.87 0,1211.65 -982.23,2193.88 -2193.88,2193.88 -1211.64,0 -2193.87,-982.23 -2193.87,-2193.88 0,-1211.64 982.23,-2193.87 2193.87,-2193.87zm0 171.86c1116.73,0 2022.02,905.29 2022.02,2022.01 0,1116.73 -905.29,2022.02 -2022.02,2022.02 -1116.72,0 -2022.01,-905.29 -2022.01,-2022.02 0,-1116.72 905.29,-2022.01 2022.01,-2022.01z"/>
  <circle class="fil1" cx="2193.87" cy="2193.87" r="2022.01"/>
  <g id="_2068545259824">
   <path class="fil2" d="M937.45 3148.65c16.97,-56.7 238.8,-36.91 310.74,-108.95 64.43,-64.51 45.48,-282.04 102.55,-306.71 37.65,16.76 42.39,114.83 51.69,158.2 36.79,171.65 36.96,166.84 207.58,204.18 68.12,14.92 143.56,18.5 153.91,53.28 -24.75,45.6 -256.12,43.57 -311.34,101.81 -30.19,31.85 -38.51,100.38 -50.6,154.54 -6.26,28.07 -12.42,56.21 -18.52,84.42 -20.69,95.69 -44.94,97.18 -65.23,0.34 -54.04,-257.92 -34.95,-252.26 -222.72,-291.82 -48.79,-10.28 -143.42,-22.08 -158.06,-49.3zm272.49 -2500.28l442.89 0 224.68 0c41.26,10.16 51.25,44.74 128.83,147.84 17.34,23.04 195.31,270.49 212.11,282.8 5.61,-21.04 7.11,-15.54 19.09,-32.33l133.34 -181.61c27.24,-36.28 48.7,-67.16 76.21,-103.75 73.06,-97.22 66.48,-111.32 115.05,-112.95l47.01 0c19.42,0.09 39.58,0.08 60.34,0l570.94 0c121.98,9.62 -10.26,148.17 -49.68,201.02 -27.21,36.47 -48.58,67.14 -76.15,103.82l-381.97 517.87c18.15,27.09 38.81,37.52 57.78,70.77 42.38,74.25 25.78,241.95 25.78,347.02 247.42,165.68 425.93,406.65 488.07,707.43 83.35,403.52 -66.2,774.15 -287.08,1004l-159.79 135.86c-174.92,120.82 -368.78,189.49 -567.65,203.06l-146.79 0c-115.69,-7.84 -231.91,-34.27 -345.97,-79.87 -88.11,-35.24 -303.14,-155.74 -356.26,-235.07 -23.06,12.2 -40.49,27.96 -71.44,31.72 -108.39,13.17 -131.41,-68.84 -147.63,-146.88 -43.22,-207.91 -23.54,-188.15 -93.07,-202.6 -50.73,-10.54 -207.39,-42.32 -235.89,-59.77 -64.71,-39.62 -100.33,-185.96 63.31,-222.88 41.45,-9.34 128.14,-22.1 156.91,-35.91 -49.17,-211.04 18.46,-485.38 111.4,-672.75 75.31,-151.83 242.31,-345.19 383.51,-419.91 0,-122.82 -18.28,-257.37 31.93,-353.73 10.79,-20.7 12.66,-20.8 26.52,-37.74 14.84,-18.11 10.04,-14.94 31.54,-26.31 -65.09,-97.21 -178.29,-237.71 -250.63,-340.7 -45.56,-64.88 -67.4,-74.2 -38.6,-128.49 70.07,-22.01 72.27,7.45 147.57,109.4 35.5,48.06 329.54,459.09 347.34,463.09l555.97 0 -308.14 -421.82c-49.55,-68.89 -101.56,-136.76 -152.51,-207.4 -27.19,-37.72 -50.81,-68.35 -76.25,-103.72 -14.68,-20.4 -61.57,-92.96 -83.34,-103.13l-555.45 0c57.88,100.03 109.12,102.17 62.16,173.58 -56.29,23.58 -85.8,-31.31 -135.33,-104.11 -35.72,-52.5 -110.13,-120.15 -51.62,-158.32 5.29,-3.45 23.86,-5.86 50.95,-7.51zm1522.96 2766.47c-59.21,-36.26 -85.39,4.48 -130.65,34.06 -128.21,83.8 -299.04,123.18 -459.33,107.54 -113.55,-11.1 -207,-45.65 -291.63,-92.07 -72.34,-39.66 -171.36,-119.97 -202.36,-174.31 43.45,-23.47 118.07,-14.54 165.8,-50.14 35.61,-26.56 66.44,-96.81 29.74,-154.35 -55.93,-87.66 -284.17,-76.73 -320.18,-110.84 -14.38,-23.96 -42.78,-161.44 -42.26,-191.71 1.1,-64.2 19.95,-139.45 39.08,-196.67 74.03,-221.37 263.62,-399.16 487.58,-463.58 631.18,-181.59 1157.61,488.27 847.32,1059.38 -65.28,120.17 -82.32,73.24 -42.29,156.35 52.28,0.11 53.84,2.85 79.71,-35.5 135.22,-200.5 186.27,-435.89 124.93,-678.11 -167.94,-663.08 -1023.05,-857.67 -1461.79,-305.33 -77.96,98.13 -110.98,185.09 -152.89,326.92 -71.11,-16.42 -131.16,-2.99 -158.67,55.63 -7.83,16.67 -42.4,162.26 -44.84,180.4 -24.8,-274.22 94.03,-525.79 215.69,-684.39 295.31,-384.94 837.71,-499.48 1287.81,-261.06 419.59,222.26 635.26,748.32 470.17,1222.09 -80.82,231.96 -230.24,399.2 -391.02,508.88 -182.84,124.74 -439.94,202.53 -714.25,164.13 -250.29,-35.04 -479.68,-175.81 -592.76,-310.7 5.9,-36.33 32.84,-190.5 54.92,-207.48 25.78,4.15 15.14,2.66 33.21,26.44 43.96,57.86 45.42,48.87 79.29,87.83 25.6,29.45 84.65,72.84 125.68,99.13 253.43,162.46 618.62,175.16 875.31,8.5 78.42,-50.92 104.46,-56.45 88.71,-121.03zm-1022.22 -1583.81c0,-51.43 0.27,-102.93 -0.09,-154.35 -0.52,-73.58 9.82,-78.97 38.65,-122.03 17.47,11.7 39.85,46.63 55.1,67.03 23.06,30.85 31.39,55.1 67.03,55.1l687.73 0c32.51,0 41.62,-21.13 63,-52.69 13.29,-19.6 40.84,-49.13 46.26,-69.44 72.25,48.39 51.43,171.1 51.43,276.39l-100.07 -41.34c-259.68,-104.76 -606.44,-103.85 -859.83,19.84 -19.56,9.56 -27.92,16.54 -49.21,21.5zm844.77 -285.59c-9.06,-15.44 -15.97,1.4 -5.13,-14.37 8.31,-12.11 1.95,-3.03 19.29,-4.44l-14.16 18.81zm-279.32 -382.86c16.51,-30.82 52.93,-76.28 75.11,-104.97l227.2 -312.34 565.68 0.04c-45.37,79.66 -484.13,649.64 -500.79,687.83 -42,-2.48 -127.67,2.06 -160.4,-3.41 -22.92,-3.83 -57.84,-60.81 -75.02,-83.75 -22.42,-29.95 -44.01,-61.1 -68.09,-92.6 -17.95,-23.5 -50.59,-65.38 -63.68,-90.8z"/>
   <path class="fil3" d="M2286.33 3125.77c124.6,16.64 219.9,-33.4 288.06,65.54 62.3,90.44 -0.07,199.06 -87.21,219.73 -56.14,13.3 -274.03,6.66 -345.86,6.28 -122.37,-0.65 -213.41,8.81 -263.57,-82.2 -54.44,-98.79 29.83,-189.05 71.65,-243.43 64.31,-83.61 249.9,-332.75 293.78,-413.06 82.41,-150.83 -66.17,-186.48 -112.19,-125.28 -16.43,21.85 -46.63,188.48 -196.94,146.81 -248.14,-68.79 -8.67,-568.61 369.85,-446.8 152.19,48.98 307.3,220.49 243.5,440.21 -26.96,92.87 -75.57,169.29 -119.85,233.61 -47.23,68.62 -95.48,134.54 -141.22,198.57zm446.58 289.07c15.55,-19.58 20.22,-27.4 36.87,-42.68 6.93,-6.36 11.16,-9.94 20.41,-18.33 16.23,-14.73 2.61,-12.85 23.52,-15.34 -40.03,-83.11 -22.99,-36.18 42.29,-156.35 310.29,-571.11 -216.13,-1240.96 -847.32,-1059.38 -223.96,64.42 -413.55,242.22 -487.58,463.58 -19.13,57.22 -37.98,132.47 -39.08,196.67 -0.52,30.28 27.88,167.75 42.26,191.71 36.01,34.11 264.25,23.18 320.18,110.84 36.71,57.54 5.87,127.79 -29.74,154.35 -47.73,35.6 -122.34,26.66 -165.8,50.14 31,54.34 130.02,134.65 202.36,174.31 84.63,46.41 178.08,80.97 291.63,92.07 160.29,15.65 331.12,-23.73 459.33,-107.54 45.25,-29.58 71.44,-70.32 130.65,-34.06z"/>
   <path class="fil4" d="M2813.71 3338.49c-20.91,2.49 -7.29,0.61 -23.52,15.34 -9.25,8.39 -13.48,11.97 -20.41,18.33 -16.65,15.28 -21.32,23.1 -36.87,42.68 15.75,64.58 -10.29,70.12 -88.71,121.03 -256.7,166.66 -621.88,153.95 -875.31,-8.5 -41.02,-26.29 -100.07,-69.69 -125.68,-99.13 -33.87,-38.96 -35.33,-29.97 -79.29,-87.83 -18.07,-23.78 -7.42,-22.29 -33.21,-26.44 -22.08,16.98 -49.02,171.15 -54.92,207.48 113.08,134.89 342.47,275.67 592.76,310.7 274.3,38.4 531.41,-39.39 714.25,-164.13 160.77,-109.68 310.19,-276.92 391.02,-508.88 165.1,-473.77 -50.58,-999.84 -470.17,-1222.09 -450.1,-238.43 -992.5,-123.89 -1287.81,261.06 -121.66,158.6 -240.5,410.17 -215.69,684.39 2.44,-18.14 37.01,-163.73 44.84,-180.4 27.51,-58.62 87.57,-72.05 158.67,-55.63 41.91,-141.83 74.93,-228.79 152.89,-326.92 438.74,-552.34 1293.85,-357.75 1461.79,305.33 61.34,242.22 10.3,477.61 -124.93,678.11 -25.87,38.35 -27.43,35.61 -79.71,35.5z"/>
   <path class="fil5" d="M1345.95 918.32c12.47,11.01 20.67,27.74 32.29,43.21 11.73,15.62 25.34,27.95 30.37,46.79 70.07,-22.01 72.27,7.45 147.57,109.4 35.5,48.06 329.54,459.09 347.34,463.09l555.97 0 -308.14 -421.82c-49.55,-68.89 -101.56,-136.76 -152.51,-207.4 -27.19,-37.72 -50.81,-68.35 -76.25,-103.72 -14.68,-20.4 -61.57,-92.96 -83.34,-103.13l-555.45 0c57.88,100.03 109.12,102.17 62.16,173.58z"/>
   <path class="fil2" d="M1929.29 2585.62c-20.36,-136.29 162.44,-306.26 356.42,-236.97 152.34,54.42 225.2,221.41 137.39,400.51 -45.56,92.96 -183.72,274.07 -250.75,366.19 -126.82,174.23 173.85,84.82 290.47,108.82 42.54,8.75 54.54,70.87 11.25,90.01 -21.89,9.69 -262.9,6.91 -307.03,6.87 -66.6,-0.05 -256.99,20.87 -202.72,-85.7l260.71 -356.5c93.52,-124.3 220.03,-291.75 76.93,-411.6 -65.27,-54.67 -165.46,-49.52 -224.72,6.67 -80.62,76.46 -46.11,187.05 -147.95,111.69zm357.05 540.14c45.74,-64.03 93.99,-129.96 141.22,-198.57 44.28,-64.32 92.89,-140.74 119.85,-233.61 63.8,-219.73 -91.31,-391.24 -243.5,-440.21 -378.53,-121.81 -618,378.01 -369.85,446.8 150.31,41.67 180.52,-124.96 196.94,-146.81 46.01,-61.2 194.6,-25.55 112.19,125.28 -43.88,80.31 -229.47,329.44 -293.78,413.06 -41.82,54.38 -126.09,144.64 -71.65,243.43 50.16,91.02 141.19,81.55 263.57,82.2 71.83,0.38 289.72,7.01 345.86,-6.28 87.14,-20.66 149.51,-129.29 87.21,-219.73 -68.17,-98.94 -163.47,-48.91 -288.06,-65.54z"/>
   <path class="fil6" d="M2276.15 1162.57c13.1,25.41 45.73,67.3 63.68,90.8 24.07,31.5 45.66,62.65 68.09,92.6 17.18,22.94 52.1,79.92 75.02,83.75 32.74,5.47 118.4,0.93 160.4,3.41 16.67,-38.19 455.42,-608.17 500.79,-687.83l-565.68 -0.04 -227.2 312.34c-22.18,28.69 -58.6,74.15 -75.11,104.97z"/>
   <path class="fil4" d="M1929.29 2585.62c101.83,75.36 67.33,-35.23 147.95,-111.69 59.26,-56.19 159.44,-61.34 224.72,-6.67 143.1,119.84 16.59,287.3 -76.93,411.6l-260.71 356.5c-54.27,106.57 136.12,85.65 202.72,85.7 44.13,0.04 285.14,2.81 307.03,-6.87 43.29,-19.14 31.3,-81.25 -11.25,-90.01 -116.62,-23.99 -417.29,65.41 -290.47,-108.82 67.04,-92.12 205.19,-273.23 250.75,-366.19 87.81,-179.1 14.95,-346.09 -137.39,-400.51 -193.98,-69.29 -376.78,100.68 -356.42,236.97z"/>
   <path class="fil4" d="M937.45 3148.65c14.65,27.21 109.28,39.02 158.06,49.3 187.77,39.56 168.68,33.91 222.72,291.82 20.29,96.84 44.54,95.35 65.23,-0.34 6.1,-28.21 12.26,-56.35 18.52,-84.42 12.09,-54.16 20.41,-122.69 50.6,-154.54 55.22,-58.24 286.59,-56.21 311.34,-101.81 -10.36,-34.78 -85.8,-38.36 -153.91,-53.28 -170.62,-37.34 -170.79,-32.53 -207.58,-204.18 -9.29,-43.37 -14.04,-141.44 -51.69,-158.2 -57.07,24.67 -38.12,242.2 -102.55,306.71 -71.95,72.04 -293.77,52.25 -310.74,108.95z"/>
   <path class="fil7" d="M2555.47 1545.43l14.16 -18.81c-17.34,1.41 -10.98,-7.66 -19.29,4.44 -10.84,15.77 -3.93,-1.07 5.13,14.37z"/>
  </g>
 </g>
</svg>
