<?xml version="1.0" encoding="UTF-8"?>
<!DOCTYPE svg PUBLIC "-//W3C//DTD SVG 1.1//EN" "http://www.w3.org/Graphics/SVG/1.1/DTD/svg11.dtd">
<!-- Creator: CorelDRAW 2020 (64-Bit) -->
<svg xmlns="http://www.w3.org/2000/svg" xml:space="preserve" width="174.505mm" height="174.553mm" version="1.1" style="shape-rendering:geometricPrecision; text-rendering:geometricPrecision; image-rendering:optimizeQuality; fill-rule:evenodd; clip-rule:evenodd"
viewBox="0 0 128.73 128.76"
 xmlns:xlink="http://www.w3.org/1999/xlink"
 xmlns:xodm="http://www.corel.com/coreldraw/odm/2003">
 <defs>
  <style type="text/css">
   <![CDATA[
    .fil0 {fill:black}
    .fil4 {fill:#148CE0}
    .fil8 {fill:#38C2FC}
    .fil10 {fill:#645E66}
    .fil1 {fill:#756C78}
    .fil9 {fill:#9F6E50}
    .fil2 {fill:#B47E5F}
    .fil3 {fill:#D68000}
    .fil12 {fill:#DA9A7C}
    .fil5 {fill:#FEDCCD}
    .fil7 {fill:#FF9801}
    .fil11 {fill:#FFCABE}
    .fil6 {fill:#FFF502}
   ]]>
  </style>
 </defs>
 <g id="Capa_x0020_1">
  <metadata id="CorelCorpID_0Corel-Layer"/>
  <g id="_1753327420720">
   <path class="fil0" d="M66.43 119.41c0.04,-5.12 1.26,-8.99 3.69,-12.25 1.4,-1.87 5.8,-6.31 9.29,-6.52 1.76,4.83 2.15,16.05 4.52,19.36 1.86,0.6 2.1,-0.01 3.14,-0.8l8.51 -8.34 4.97 4.97c1.01,0.88 1.85,1.84 2.83,2.84 0.68,0.69 1.99,2.43 3.62,1.27 1.84,-1.3 1.33,-7.4 2.6,-8.82 -0.07,-1.33 1.46,-9.07 1.97,-10.47 2.2,0.14 5.42,2.46 6.47,3.58 1.88,1.06 4.35,4.87 5.43,7.84 1.4,3.83 1.06,8.13 1.06,12.42l-58.1 0 -0.01 -5.08zm31.9 -11.47c0.57,-1.24 2.31,-3.16 3.25,-4.32 3.76,-4.62 2.45,-4.07 5.87,-3.95l-2.89 14.15c-0.96,-0.38 -2.46,-2.19 -3.22,-2.96 -0.97,-0.97 -1.97,-2.15 -3.01,-2.92zm-5.68 0.01c-1.33,0.99 -5,5.4 -6.3,5.88l-2.76 -14.19 2.3 -0.05c0.62,0.13 6.31,7.37 6.76,8.36zm2.84 -3.54c-0.45,-0.32 -3.6,-4.26 -3.88,-4.79l1.02 -0.03 5.71 -0.01 1.03 0.04c-0.27,0.52 -3.43,4.48 -3.88,4.79zm10.38 -29.72l4.14 0c0,5.25 0.4,9.67 -2.09,13.73 -2.07,3.37 -4.73,5.3 -9.28,6.69 -7.05,0.52 -10.18,-0.54 -14.05,-4.59 -4.13,-4.31 -3.62,-10.09 -3.62,-15.84 5.52,0 9.61,0.64 14.18,-2.42 1.45,-0.97 1.68,-1.38 2.94,-2.49l0.24 0.27c0.03,0.04 0.08,0.1 0.11,0.14 1.95,2.57 3.09,4.25 7.43,4.49zm8.29 0.01c5.53,0.49 5.51,7.86 -0.05,8.29l0.05 -8.29zm-37.26 8.29c-5.64,-0.43 -5.64,-7.8 -0.11,-8.29l0.11 8.29zm33.11 -29.88c1.52,0.8 3.49,4.27 3.95,7 0.46,2.74 0.2,7.45 0.2,10.44 -1.41,0 -8.78,0.22 -9.81,-0.29 -1.08,-0.52 -0.41,-0.18 -0.75,-0.64 -2.88,-0.76 -1.89,-8.15 -1.89,-11.52l-4.15 0c0,14.58 -11.08,12.45 -20.75,12.45 0,-4.37 -0.56,-9.67 1.1,-13.43 3.95,-8.91 13.16,-7.32 21.2,-7.32 3.48,-0 8.76,0.29 10.9,3.31zm-37.35 18.47c-5.35,3.58 -5.34,10.04 -1.36,13.55 1.78,1.58 3.31,2.01 6.55,2.01 0.99,4.23 5.23,7.65 5.71,8.3 -10.41,0 -21.27,10.6 -21.27,21.53l0 9.6c0,1.25 0.82,2.07 2.07,2.07l62.25 0c1.25,0 2.07,-0.82 2.07,-2.07 0,-9.46 1,-16.79 -6.55,-24.31 -3.55,-3.54 -9.14,-6.81 -14.72,-6.81 0.45,-0.62 1.1,-0.87 1.74,-1.63 0.56,-0.67 1.11,-1.35 1.58,-2.05 0.77,-1.13 2.05,-3.2 2.38,-4.62 3.17,0 4.62,-0.38 6.41,-1.89 4.05,-3.41 4.28,-9.99 -1.23,-13.67 0,-8.24 0.82,-12.86 -2.51,-18.24 -2.23,-3.6 -7.37,-7.69 -13.05,-7.69l-14.52 0c-5.68,0 -10.83,4.1 -13.05,7.69 -3.33,5.39 -2.51,10 -2.51,18.24z"/>
   <path class="fil0" d="M4.19 73.77c0.04,-5.12 1.26,-8.99 3.69,-12.25 1.4,-1.87 5.8,-6.31 9.29,-6.52 1.76,4.83 2.15,16.05 4.52,19.36 1.86,0.6 2.1,-0.01 3.14,-0.8l8.34 -8.34 5.14 4.96c1.01,0.88 1.85,1.84 2.83,2.84 0.68,0.69 1.99,2.43 3.62,1.27 1.84,-1.3 1.33,-7.4 2.6,-8.82 -0.07,-1.33 1.46,-9.07 1.97,-10.47 2.2,0.14 5.42,2.46 6.47,3.58 1.88,1.06 4.35,4.87 5.43,7.84 1.4,3.83 1.06,8.13 1.06,12.42l-58.1 0 -0.01 -5.08zm38.19 -5.59c-0.67,-0.25 -0.27,-0.03 -0.83,-0.5 -1.26,-1.08 -3.98,-4.28 -5.47,-5.39 0.57,-1.24 2.31,-3.16 3.25,-4.32 3.72,-4.57 2.45,-4.05 5.8,-3.98l-2.76 14.19zm-21.11 -14.16c3.43,-0.11 2.16,-0.62 5.88,3.95 0.96,1.18 2.67,3.06 3.25,4.34 -1.36,1.02 -4.94,5.38 -6.24,5.87l-2.89 -14.15zm11.97 4.74c-0.45,-0.32 -3.6,-4.26 -3.87,-4.79l1.02 -0.03 5.71 -0.01 1.03 0.04c-0.27,0.52 -3.43,4.48 -3.88,4.79zm10.38 -29.72l4.14 0c0,5.25 0.4,9.67 -2.09,13.73 -2.07,3.37 -4.73,5.3 -9.28,6.69 -7.05,0.52 -10.18,-0.54 -14.05,-4.59 -4.13,-4.31 -3.62,-10.09 -3.62,-15.84 9.49,0 10.87,0.58 17.12,-4.91 0.04,0.04 0.1,0.11 0.12,0.13 0.02,0.03 0.09,0.1 0.12,0.14l0.22 0.29c0.79,1.09 1.2,1.82 2.58,2.85 1.33,1 2.83,1.38 4.74,1.49zm8.29 0.01c5.53,0.49 5.51,7.86 -0.05,8.29l0.05 -8.29zm-37.26 8.29c-5.64,-0.43 -5.64,-7.8 -0.11,-8.29l0.11 8.29zm33.11 -29.88c1.52,0.8 3.49,4.26 3.94,6.98 0.47,2.81 0.2,7.46 0.2,10.45l-8.56 -0.02c-1.86,-0.15 -1.82,-0.65 -2,-0.91 -2.88,-0.76 -1.89,-8.15 -1.89,-11.52l-4.15 0c0,14.58 -11.08,12.45 -20.75,12.45 0,-4.37 -0.56,-9.67 1.1,-13.43 3.95,-8.91 13.16,-7.32 21.2,-7.32 3.48,-0 8.76,0.29 10.9,3.31zm-37.35 18.47c-5.35,3.58 -5.34,10.03 -1.36,13.55 1.78,1.58 3.31,2.01 6.55,2.01 0.99,4.23 5.23,7.65 5.71,8.3 -2.97,0 -6.31,1.2 -8.39,2.25 -2.78,1.4 -4.13,2.36 -6.2,4.43 -7.69,7.69 -6.68,14.73 -6.68,24.44 0,1.25 0.82,2.07 2.07,2.07l62.25 0c1.25,0 2.07,-0.82 2.07,-2.07 0,-9.46 1,-16.79 -6.55,-24.31 -3.55,-3.54 -9.14,-6.81 -14.72,-6.81 0.36,-0.49 4.72,-4.09 5.71,-8.3 3.17,0 4.62,-0.38 6.41,-1.89 4.05,-3.41 4.28,-9.99 -1.23,-13.67 0,-8.24 0.82,-12.86 -2.51,-18.24 -2.23,-3.6 -7.37,-7.69 -13.05,-7.69l-14.52 0c-5.68,0 -10.83,4.1 -13.05,7.69 -3.33,5.39 -2.51,10 -2.51,18.24z"/>
   <path class="fil0" d="M29 92.19c1.07,0.66 8.88,8.47 9.48,9.47 -4.09,0.06 -5.58,-0.41 -5.14,4.26 0.77,8.29 4.76,13.84 10.75,18.37 -2.06,0.53 -6.98,-1.62 -8.63,-2.52 -4.96,-2.72 -8.92,-7.99 -10.07,-13.78 -1.15,-5.75 1.11,-6.22 -5.67,-6.33l9.3 -9.47zm-16.51 11.55c0,2.9 3.88,2.07 8.3,2.07 0.1,4.47 2.94,10.95 6.03,14.2 0.66,0.69 0.77,1.1 1.45,1.66 10.35,8.59 15.5,6.96 29.87,6.96 1.25,0 2.07,-0.82 2.07,-2.07 0,-4.14 -5.62,0.33 -14.9,-6.63 -3.87,-2.9 -7.67,-9.08 -7.67,-14.12 4.27,0 8.04,0.81 8.04,-2.07 0,-1.41 -2.27,-3.18 -3.7,-4.6 -1.45,-1.45 -2.7,-2.7 -4.15,-4.15 -1.45,-1.45 -2.7,-2.7 -4.15,-4.15 -5.5,-5.5 -3.69,-5.52 -13.36,4.15 -1.45,1.45 -2.7,2.7 -4.15,4.15 -0.75,0.75 -1.32,1.32 -2.08,2.07 -0.7,0.7 -1.62,1.26 -1.62,2.53z"/>
   <path class="fil1" d="M41.35 23.97c0.6,0.07 0.37,0.3 1.45,-1.18 0.46,-0.63 0.74,-1.05 1.13,-1.72 2.57,-4.36 3.64,-8.3 3.83,-13.61 -2.14,-3.03 -7.42,-3.32 -10.9,-3.31 -8.04,0.01 -17.25,-1.59 -21.2,7.32 -1.66,3.75 -1.1,9.05 -1.1,13.43 9.67,0 20.75,2.13 20.75,-12.45l4.15 0c-0,3.37 -0.99,10.76 1.89,11.52z"/>
   <path class="fil2" d="M103.6 69.61c0.6,0.07 0.37,0.3 1.45,-1.18 3.29,-4.52 4.76,-9.6 4.97,-15.33 -2.14,-3.03 -7.42,-3.32 -10.9,-3.31 -8.04,0.01 -17.25,-1.59 -21.2,7.32 -1.66,3.75 -1.1,9.05 -1.1,13.43 9.67,0 20.75,2.13 20.75,-12.45l4.15 0c-0,3.37 -0.99,10.75 1.89,11.52z"/>
   <path class="fil3" d="M109.6 111.12c-1.26,1.43 -0.76,7.52 -2.6,8.82 -1.63,1.16 -2.95,-0.58 -3.62,-1.27 -0.98,-1 -1.82,-1.96 -2.83,-2.84 -0.3,0.65 -0.06,0.39 -0.75,0.79 -0.92,0.53 -10.62,3.11 -11.84,2.96 -0.92,-0.11 -0.43,0.35 -0.89,-0.37 -1.04,0.79 -1.28,1.4 -3.14,0.8 -5.38,0.97 -12.18,0.03 -17.49,-0.6l0.01 5.08 58.1 0c0,-4.29 0.33,-8.59 -1.06,-12.42 -1.08,-2.97 -3.56,-6.79 -5.43,-7.84 -1.2,2.86 -7.61,6.83 -8.27,7.51l-0.17 -0.62z"/>
   <path class="fil4" d="M47.36 65.47c-1.26,1.43 -0.76,7.52 -2.6,8.82 -1.63,1.16 -2.95,-0.58 -3.62,-1.27 -0.98,-1 -1.82,-1.96 -2.83,-2.84 -0.3,0.65 -0.06,0.39 -0.75,0.79l-2.35 0.77c-1.07,0.34 -2.11,0.64 -3.21,0.94 -1.19,0.32 -2.35,0.55 -3.61,0.82 -0.58,0.12 -1.14,0.25 -1.75,0.35 -1.83,0.3 -1.61,0.03 -1.81,-0.28 -1.04,0.79 -1.28,1.4 -3.14,0.8 -5.38,0.97 -12.18,0.03 -17.49,-0.6l0.01 5.08 58.1 0c0,-4.29 0.33,-8.59 -1.06,-12.42 -1.08,-2.97 -3.56,-6.79 -5.43,-7.84 -1.2,2.86 -7.61,6.83 -8.27,7.51l-0.17 -0.62z"/>
   <path class="fil5" d="M36.39 49.48c-0.1,-0.4 0.35,-0.74 0.54,-0.89 7.07,-5.86 6.7,-10.59 6.7,-19.54 -1.91,-0.11 -3.41,-0.49 -4.74,-1.49 -1.38,-1.04 -1.8,-1.76 -2.58,-2.85l-0.22 -0.29c-0.03,-0.04 -0.1,-0.11 -0.12,-0.14 -0.02,-0.03 -0.08,-0.09 -0.12,-0.13 -6.25,5.49 -7.62,4.91 -17.12,4.91 0,5.75 -0.5,11.53 3.62,15.84 3.88,4.05 7,5.11 14.05,4.59z"/>
   <path class="fil5" d="M98.64 95.12c-0.1,-0.4 0.35,-0.74 0.54,-0.89 7.07,-5.86 6.7,-10.59 6.7,-19.54 -4.34,-0.24 -5.48,-1.92 -7.43,-4.49 -0.03,-0.04 -0.09,-0.11 -0.11,-0.14l-0.24 -0.27c-1.27,1.11 -1.49,1.52 -2.94,2.49 -4.57,3.05 -8.65,2.42 -14.18,2.42 0,5.75 -0.5,11.53 3.62,15.84 3.88,4.05 7,5.11 14.05,4.59z"/>
   <path class="fil6" d="M19.7 101.66c6.78,0.11 4.52,0.58 5.67,6.33 1.16,5.79 5.11,11.06 10.07,13.78 1.66,0.91 6.58,3.06 8.63,2.52 -5.98,-4.53 -9.97,-10.08 -10.75,-18.37 -0.44,-4.67 1.06,-4.21 5.14,-4.26 -0.6,-1 -8.41,-8.81 -9.48,-9.47l-9.3 9.47z"/>
   <path class="fil7" d="M66.43 119.41c5.32,0.62 12.11,1.57 17.49,0.6 -2.37,-3.31 -2.76,-14.53 -4.52,-19.36 -3.48,0.21 -7.89,4.65 -9.29,6.52 -2.43,3.26 -3.65,7.13 -3.69,12.25z"/>
   <path class="fil8" d="M4.19 73.77c5.32,0.62 12.11,1.57 17.49,0.6 -2.37,-3.31 -2.76,-14.53 -4.52,-19.36 -3.48,0.21 -7.89,4.65 -9.29,6.52 -2.43,3.26 -3.65,7.13 -3.69,12.25z"/>
   <path class="fil9" d="M103.6 69.61c0.34,0.46 -0.33,0.12 0.75,0.64 1.04,0.51 8.4,0.29 9.81,0.29 0,-2.99 0.27,-7.7 -0.2,-10.44 -0.46,-2.72 -2.43,-6.2 -3.95,-7 -0.21,5.72 -1.67,10.81 -4.97,15.33 -1.08,1.48 -0.85,1.24 -1.45,1.18z"/>
   <path class="fil10" d="M41.35 23.97c0.19,0.26 0.14,0.76 2,0.91l8.56 0.02c0,-3 0.27,-7.65 -0.2,-10.45 -0.46,-2.72 -2.42,-6.19 -3.94,-6.98 -0.19,5.3 -1.26,9.24 -3.83,13.61 -0.39,0.67 -0.68,1.1 -1.13,1.72 -1.08,1.48 -0.85,1.24 -1.45,1.18z"/>
   <path class="fil11" d="M36.39 49.48c4.55,-1.39 7.21,-3.32 9.28,-6.69 2.49,-4.07 2.09,-8.48 2.09,-13.73l-4.14 -0c0,8.95 0.38,13.68 -6.7,19.54 -0.19,0.16 -0.63,0.5 -0.54,0.89z"/>
   <path class="fil11" d="M98.64 95.12c4.55,-1.39 7.21,-3.32 9.28,-6.69 2.49,-4.07 2.09,-8.48 2.09,-13.73l-4.14 -0c0,8.95 0.38,13.68 -6.7,19.54 -0.19,0.16 -0.63,0.5 -0.54,0.89z"/>
   <path class="fil8" d="M27.15 57.96c-3.71,-4.57 -2.44,-4.06 -5.88,-3.95l2.89 14.15c1.29,-0.49 4.87,-4.85 6.24,-5.87 -0.58,-1.27 -2.3,-3.16 -3.25,-4.34z"/>
   <path class="fil7" d="M86.35 113.83c1.3,-0.48 4.97,-4.89 6.3,-5.88 -0.45,-0.99 -6.14,-8.23 -6.76,-8.36l-2.3 0.05 2.76 14.19z"/>
   <path class="fil7" d="M98.33 107.94c1.04,0.77 2.03,1.94 3.01,2.92 0.76,0.76 2.26,2.58 3.22,2.96l2.89 -14.15c-3.42,-0.12 -2.11,-0.66 -5.87,3.95 -0.94,1.16 -2.68,3.08 -3.25,4.32z"/>
   <path class="fil8" d="M45.14 53.99c-3.35,-0.07 -2.08,-0.59 -5.8,3.98 -0.94,1.16 -2.68,3.08 -3.25,4.32 1.49,1.1 4.2,4.31 5.47,5.39 0.55,0.47 0.16,0.25 0.83,0.5l2.76 -14.19z"/>
   <path class="fil8" d="M24.82 73.56c0.2,0.31 -0.02,0.58 1.81,0.28 0.61,-0.1 1.17,-0.23 1.75,-0.35 1.26,-0.26 2.42,-0.5 3.61,-0.82 1.1,-0.3 2.14,-0.6 3.21,-0.94l2.35 -0.77c0.69,-0.4 0.45,-0.13 0.75,-0.79l-5.14 -4.96 -8.34 8.34z"/>
   <path class="fil7" d="M87.07 119.21c0.46,0.72 -0.03,0.26 0.89,0.37 1.22,0.15 10.92,-2.43 11.84,-2.96 0.69,-0.4 0.45,-0.13 0.75,-0.79l-4.97 -4.97 -8.51 8.34z"/>
   <path class="fil8" d="M47.36 65.47l0.17 0.62c0.66,-0.69 7.07,-4.66 8.27,-7.51 -1.05,-1.11 -4.28,-3.44 -6.47,-3.58 -0.51,1.4 -2.04,9.14 -1.97,10.47z"/>
   <path class="fil7" d="M109.6 111.12l0.17 0.62c0.66,-0.69 7.07,-4.66 8.27,-7.51 -1.05,-1.11 -4.28,-3.44 -6.47,-3.58 -0.51,1.4 -2.04,9.14 -1.97,10.47z"/>
   <path class="fil11" d="M14.66 37.34l-0.11 -8.29c-5.53,0.49 -5.52,7.86 0.11,8.29z"/>
   <path class="fil11" d="M76.91 82.99l-0.11 -8.29c-5.53,0.49 -5.52,7.86 0.11,8.29z"/>
   <path class="fil11" d="M51.87 37.34c5.55,-0.43 5.57,-7.8 0.05,-8.29l-0.05 8.29z"/>
   <path class="fil11" d="M114.12 82.99c5.55,-0.43 5.57,-7.8 0.05,-8.29l-0.05 8.29z"/>
   <path class="fil12" d="M33.24 58.76c0.45,-0.31 3.61,-4.27 3.88,-4.79l-1.03 -0.04 -5.71 0.01 -1.02 0.03c0.28,0.53 3.43,4.47 3.87,4.79z"/>
   <path class="fil12" d="M95.49 104.41c0.45,-0.31 3.61,-4.27 3.88,-4.79l-1.03 -0.04 -5.71 0.01 -1.02 0.03c0.28,0.53 3.43,4.47 3.88,4.79z"/>
  </g>
 </g>
</svg>
