<?xml version="1.0" encoding="UTF-8"?>
<!DOCTYPE svg PUBLIC "-//W3C//DTD SVG 1.1//EN" "http://www.w3.org/Graphics/SVG/1.1/DTD/svg11.dtd">
<!-- Creator: CorelDRAW 2020 (64-Bit) -->
<svg xmlns="http://www.w3.org/2000/svg" xml:space="preserve" width="323.284mm" height="323.284mm" version="1.1" style="shape-rendering:geometricPrecision; text-rendering:geometricPrecision; image-rendering:optimizeQuality; fill-rule:evenodd; clip-rule:evenodd"
viewBox="0 0 471.68 471.68"
 xmlns:xlink="http://www.w3.org/1999/xlink"
 xmlns:xodm="http://www.corel.com/coreldraw/odm/2003">
 <defs>
  <style type="text/css">
   <![CDATA[
    .fil2 {fill:black}
    .fil6 {fill:#2D4455}
    .fil5 {fill:#3F596A}
    .fil4 {fill:#D5DFF2}
    .fil0 {fill:#E2EDF8}
    .fil3 {fill:#E6485D}
    .fil1 {fill:#FE5775}
   ]]>
  </style>
 </defs>
 <g id="Capa_x0020_1">
  <metadata id="CorelCorpID_0Corel-Layer"/>
  <g id="_2070826922400">
   <path class="fil0" d="M374.17 237.68c-2.24,-9.67 8.56,-8.79 15.51,-8.78 6.98,0.01 17.63,-1.98 19.17,5.37 1.97,9.41 -8.6,8.51 -15.48,8.5 -6.81,-0.01 -17.6,1.84 -19.21,-5.09zm-311.36 0c-2.23,-9.65 8.55,-8.79 15.49,-8.78 6.98,0.01 17.65,-1.98 19.19,5.36 1.98,9.44 -8.6,8.52 -15.5,8.51 -6.78,-0.01 -17.58,1.83 -19.18,-5.09zm116.63 -30.4c-1.48,-1.17 -3.31,-2.5 -4.93,-4.09 -2.88,-2.82 -1.99,-3.57 -6.13,-4.11 -5.58,4.08 -9.03,-0.29 -16.84,-7.01l-34.64 -31.67c-3.09,-3.97 -4.68,-8.84 -4.16,-14.64 0.89,-9.96 8.86,-17.94 19.05,-18.57 11.4,-0.7 19.29,8.32 29.44,17.47l19.72 18c1.79,1.69 3.22,2.54 5.14,4.12l39.74 35.76c5.47,4.58 12.82,3.4 15.3,1.71 8.56,-5.85 37.4,-42.45 48.57,-45.48 18.25,-4.94 31.75,13.46 24.69,28.45 -2.95,6.26 -20.15,22.55 -26.79,29.44 -15.65,16.25 -19.08,12.72 -24.15,32.99 3.41,3.45 6.05,5.45 9.82,8.61l62.05 52.18c2.56,2.22 8.59,6.24 3.79,12.07 -4.04,4.9 -8.89,1.87 -12.06,-1.02 -13.92,-12.72 -36.63,-29.93 -51.53,-43.36 -3.27,-2.95 -7.1,-5.8 -10.6,-8.76 -3.2,-2.69 -7.47,-6.96 -10.67,-8.74 -9.39,3.62 -14.45,8.77 -28.08,4.21 -8.78,-2.94 -15.3,-9.2 -18.6,-17.34 -3.62,-8.92 0.16,-5.18 -6.34,-11.2 -3.68,-3.41 -6.57,-5.6 -9.65,-8.75 -9.54,-9.78 -16.73,-10.62 -12.16,-20.29zm53.7 -143.94c3.21,-1.66 7.01,-0.13 8.6,2.62 1.52,2.63 1.04,7.02 1.02,10.49 -0.03,6.44 1.88,17.21 -3.33,20.24 -3.19,1.86 -7.39,0.82 -9.15,-1.75 -1.21,-1.76 -4.73,-27.67 2.86,-31.6zm-162.98 251.73l13.65 19.32c6.91,8.83 14.44,18.14 22.9,25.07 11.9,9.75 9.67,9.84 28.16,21.61 13.22,8.41 27.46,14.85 44.22,20.29 6.37,2.07 51.79,12.78 55.07,7.67 -7.22,-3.65 -5.24,-8.77 -5.24,-17.51 0,-6.99 -1.73,-17.53 6.92,-17.52 8.37,0.01 6.93,9.74 6.92,16.6 -0.01,8.93 2.1,14.68 -5.24,18.43 0.78,5.16 49.26,-5.84 54.41,-7.41 16.86,-5.14 31.57,-12.17 44.92,-20.51 23.32,-14.57 32,-24.28 46.94,-41.56 1.73,-2 2.13,-2.34 3.77,-4.5l13.94 -19.97c5.94,-6.46 14.05,-38.15 15.96,-49.5 6.43,-38.19 0.14,-77.14 -16.35,-111.12 -3.84,-7.92 -7.64,-13.92 -12.25,-20.96 -6.49,-9.92 -13.8,-14.78 -8.94,-21.43 -1.46,-3.27 0.07,-0.61 -2.16,-3.42 -0.71,-0.89 -1.4,-1.52 -2.2,-2.39 -1.67,-1.81 -2.91,-3.09 -4.3,-4.89 -7.41,3.31 -9.53,0.68 -13.82,-3.69 -21.56,-21.96 -65.59,-40.39 -98.35,-44.42 -133.61,-16.45 -236.43,109.35 -200.15,233.33 1.76,6.02 7.98,25.03 11.23,28.5z"/>
   <path class="fil1" d="M371.25 101.35c1.4,1.8 2.64,3.08 4.3,4.89 0.8,0.87 1.5,1.5 2.2,2.39 2.23,2.81 0.7,0.15 2.16,3.42 8.7,-8.21 17.9,9.42 24.77,20.31 20.99,33.32 31.5,76.42 28.56,117.3 -4.36,60.52 -33.41,108.63 -77.59,143.75 -34.98,27.8 -84.93,42.82 -131.16,40 -30.87,-1.88 -53.68,-9.3 -77.84,-20.88 -21.39,-10.25 -43.75,-28.29 -55.76,-41.9 -15.48,-17.53 -27.2,-33.66 -38.43,-60.15 -21.41,-50.52 -18.84,-113.25 5.77,-161.93 35.02,-69.27 103.29,-112.8 184.06,-110.52 43.11,1.21 93.96,20.2 123.39,48.59 4.72,4.55 9.82,5.57 5.57,14.72zm-335.17 230.3l24.56 34.23c75.97,90.78 208.93,109.59 308.85,38.64 3.48,-2.47 8.1,-5.78 11.08,-8.31 18.81,-15.97 33.04,-31.6 46.55,-52.02 2.67,-4.03 4.98,-9.38 8.53,-12.54 5.53,-5.55 15.41,-40.57 17.75,-51.5 27.83,-130.24 -71.31,-266.26 -217.56,-266.27 -89.71,-0.01 -150.33,49.15 -183.68,97.25 -32.21,46.46 -46.1,108.91 -33.99,168.31 2.47,12.13 11.82,45.18 17.91,52.21z"/>
   <path class="fil2" d="M74.7 397.98c4.06,-9.25 -2.66,-11.36 -13.14,-24.72 -7.54,-9.62 -22.19,-30.51 -25.49,-41.6 -6.1,-7.03 -15.44,-40.09 -17.91,-52.21 -12.11,-59.4 1.78,-121.85 33.99,-168.31 33.35,-48.1 93.97,-97.26 183.68,-97.25 146.25,0.01 245.4,136.03 217.56,266.27 -2.34,10.93 -12.22,45.95 -17.75,51.5 -3.52,11.58 -19.4,34.26 -25.9,42.18 -80.18,97.67 -216.07,112.07 -313.86,34.2 -4.99,-3.97 -6.26,-3.42 -12.06,-0.8 -1.26,5.29 -2.24,6.61 1.53,10.4 4.38,4.4 20.36,15.32 25.71,18.52 34.68,20.76 71.71,32.89 109.49,35.53l31.27 0c30.46,-2.12 61.12,-10.46 91.18,-25.49 18.07,-9.03 28.98,-17.31 43.92,-28.86 12.16,-9.4 26.47,-24.8 35.66,-37.12 14.23,-19.07 22.88,-33 32.38,-56.06 11.5,-27.91 12.65,-42.74 16.45,-71.07 0.1,-0.74 0.18,-1.54 0.25,-2.39l0 -28.71c-0.23,-7.42 -1.69,-17.64 -2.76,-23.92 -5.75,-33.83 -14.84,-57.17 -31.95,-85.97 -3.81,-6.41 -7.68,-11.49 -11.89,-17.59 -5.83,-8.42 -20.84,-24.53 -27.77,-31.19 -8.63,-8.3 -22.86,-18.78 -32.67,-25.36 -28,-18.78 -61.33,-31.08 -95.78,-35.96 -6.62,-0.94 -13.17,-1.6 -19.67,-2l-29.15 0c-58.91,3.69 -111.6,29.78 -154.86,72.54l-13.3 15.26c-31.51,38.71 -49.3,87.65 -51.88,137.12l0 24.92c1.56,29.94 8.82,59.47 22.1,86.43 6.41,13.02 13.36,25.84 21.85,37.1 2.33,3.09 3.95,5.28 6.31,8.43l13.5 15.98c3.82,3.46 7.59,2.32 10.94,0.19z"/>
   <path class="fil2" d="M379.92 112.06c-4.86,6.65 2.45,11.5 8.94,21.43 4.61,7.04 8.4,13.04 12.25,20.96 16.49,33.99 22.78,72.93 16.35,111.12 -1.91,11.35 -10.03,43.04 -15.96,49.5 -8.99,26.18 -39.22,57.04 -62.26,73 -76.12,52.72 -180.26,38.55 -241.99,-31.12 -7.64,-8.63 -22.45,-28.46 -27.09,-41.87 -3.25,-3.47 -9.47,-22.48 -11.23,-28.5 -36.28,-123.98 66.55,-249.78 200.15,-233.33 32.76,4.03 76.79,22.47 98.35,44.42 4.29,4.37 6.41,7 13.82,3.69 4.26,-9.15 -0.85,-10.17 -5.57,-14.72 -29.43,-28.39 -80.28,-47.38 -123.39,-48.59 -80.77,-2.28 -149.04,41.25 -184.06,110.52 -24.61,48.68 -27.18,111.41 -5.77,161.93 11.23,26.5 22.95,42.63 38.43,60.15 12.01,13.61 34.37,31.65 55.76,41.9 24.16,11.58 46.97,19 77.84,20.88 46.23,2.82 96.18,-12.2 131.16,-40 44.18,-35.12 73.23,-83.23 77.59,-143.75 2.95,-40.88 -7.56,-83.97 -28.56,-117.3 -6.86,-10.9 -16.07,-28.52 -24.77,-20.31z"/>
   <path class="fil2" d="M219.17 236.51c0.44,-23.24 32.92,-23.15 33.33,-0.02 -2.02,21.44 -31.32,21.42 -33.33,0.02zm48.88 -20.65c-0.52,1.28 0.07,0.2 -0.92,1.59l-3.29 3.85c-3.04,-1.76 -3.02,-3.15 -5,-5.71 -1.81,-2.33 -2.97,-2.66 -4.53,-4.63 1.69,-2.18 3.38,-4.01 5.46,-5.65l28.42 -29.52c2.78,-2.89 8.72,-6.63 12.79,-1.37 4.35,5.62 -1.9,10.44 -4.17,12.75 -6.15,6.23 -24.46,26.39 -28.75,28.7zm-99.68 -16.79c3.22,-3.93 3.76,-6.69 -0.19,-10.71l-34.11 -30.42c-1.75,-1.5 -6.69,-6.25 -7.3,-8.36 -1.25,-4.35 2.06,-8.26 5.97,-8.54 5.53,-0.4 12.08,8.41 18.56,13.51l50.65 45.16c2.75,2.15 5.82,5.05 7.99,7.51 2.72,1.53 2.97,1.94 5.6,4.67 -1.77,3.99 -5.22,5.19 -7.14,11.34 -3.14,-1.83 -4.97,-3.39 -7.11,-5.43 -1.97,-1.48 -2.73,-2.78 -4.67,-4.45 -1.99,-1.7 -3.12,-2.31 -5.04,-4.21 -4.65,-4.6 -6.27,-4.89 -12.14,-1.87 -4.57,9.67 2.62,10.51 12.16,20.29 3.08,3.16 5.96,5.34 9.65,8.75 6.5,6.02 2.72,2.27 6.34,11.2 3.3,8.14 9.82,14.4 18.6,17.34 13.63,4.56 18.68,-0.59 28.08,-4.21 3.19,1.78 7.47,6.04 10.67,8.74 3.51,2.95 7.33,5.8 10.6,8.76 14.89,13.43 37.61,30.65 51.53,43.36 3.16,2.89 8.02,5.93 12.06,1.02 4.8,-5.83 -1.23,-9.85 -3.79,-12.07l-62.05 -52.18c-3.77,-3.16 -6.41,-5.16 -9.82,-8.61 5.06,-20.27 8.5,-16.74 24.15,-32.99 6.63,-6.89 23.84,-23.18 26.79,-29.44 7.06,-14.99 -6.44,-33.39 -24.69,-28.45 -11.18,3.02 -40.01,39.63 -48.57,45.48 -2.48,1.7 -9.83,2.88 -15.3,-1.71l-39.74 -35.76c-1.91,-1.58 -3.35,-2.43 -5.14,-4.12l-19.72 -18c-10.15,-9.15 -18.05,-18.17 -29.44,-17.47 -10.19,0.62 -18.16,8.61 -19.05,18.57 -0.52,5.79 1.07,10.67 4.16,14.64l34.64 31.67c7.81,6.72 11.26,11.09 16.84,7.01z"/>
   <path class="fil3" d="M74.7 397.98c2.78,4.54 6.11,4.61 9.13,9.25 5.8,-2.63 7.07,-3.18 12.06,0.8 97.79,77.88 233.68,63.47 313.86,-34.2 6.5,-7.91 22.38,-30.59 25.9,-42.18 -3.55,3.17 -5.86,8.51 -8.53,12.54 -13.51,20.42 -27.74,36.05 -46.55,52.02 -2.98,2.53 -7.6,5.84 -11.08,8.31 -99.92,70.95 -232.88,52.14 -308.85,-38.64l-24.56 -34.23c3.3,11.09 17.94,31.98 25.49,41.6 10.48,13.36 17.2,15.48 13.14,24.72z"/>
   <path class="fil4" d="M401.5 315.07l-13.94 19.97c-1.64,2.16 -2.05,2.5 -3.77,4.5 -14.94,17.29 -23.62,27 -46.94,41.56 -13.35,8.34 -28.06,15.37 -44.92,20.51 -5.15,1.57 -53.63,12.57 -54.41,7.41l-3.36 0c-3.28,5.11 -48.7,-5.6 -55.07,-7.67 -16.76,-5.44 -31.01,-11.89 -44.22,-20.29 -18.49,-11.76 -16.26,-11.85 -28.16,-21.61 -8.46,-6.93 -15.98,-16.24 -22.9,-25.07l-13.65 -19.32c4.64,13.41 19.45,33.25 27.09,41.87 61.73,69.67 165.88,83.85 241.99,31.12 23.04,-15.96 53.27,-46.82 62.26,-73z"/>
   <path class="fil5" d="M168.37 199.08c4.14,0.54 3.25,1.29 6.13,4.11 1.62,1.59 3.46,2.92 4.93,4.09 5.87,-3.03 7.49,-2.74 12.14,1.87 1.92,1.9 3.05,2.5 5.04,4.21 1.94,1.66 2.69,2.97 4.67,4.45 2.44,-1.49 0.73,0.08 2.89,-2.6 0.85,-1.06 0.92,-1.56 1.88,-2.74 2.26,-2.76 2.67,-1.86 3.88,-5.25 -2.17,-2.47 -5.24,-5.36 -7.99,-7.51l-50.65 -45.16c-6.47,-5.1 -13.03,-13.91 -18.56,-13.51 -3.91,0.28 -7.22,4.19 -5.97,8.54 0.61,2.12 5.55,6.86 7.3,8.36l34.11 30.42c3.95,4.01 3.41,6.78 0.19,10.71z"/>
   <path class="fil5" d="M259.76 205.32c0.97,3.04 1.72,2.89 4.11,5.25 2.52,2.5 2.29,2.69 4.18,5.3 4.28,-2.31 22.59,-22.47 28.75,-28.7 2.28,-2.3 8.52,-7.13 4.17,-12.75 -4.07,-5.26 -10.01,-1.52 -12.79,1.37l-28.42 29.52z"/>
   <path class="fil1" d="M219.17 236.51c4.49,3.25 9.07,6.38 16.67,6.37 8.14,-0 11.65,-3.69 16.66,-6.39 -0.41,-23.13 -32.89,-23.22 -33.33,0.02z"/>
   <path class="fil2" d="M374.17 237.68c1.6,6.94 12.4,5.08 19.21,5.09 6.88,0.01 17.46,0.91 15.48,-8.5 -1.54,-7.35 -12.2,-5.36 -19.17,-5.37 -6.95,-0.01 -17.75,-0.89 -15.51,8.78z"/>
   <path class="fil2" d="M62.81 237.68c1.6,6.93 12.41,5.08 19.18,5.09 6.9,0.01 17.48,0.93 15.5,-8.51 -1.54,-7.34 -12.22,-5.35 -19.19,-5.36 -6.94,-0.01 -17.72,-0.87 -15.49,8.78z"/>
   <path class="fil2" d="M234.16 409.04l3.36 0c7.34,-3.75 5.23,-9.5 5.24,-18.43 0.01,-6.86 1.45,-16.59 -6.92,-16.6 -8.64,-0.01 -6.92,10.53 -6.92,17.52 0,8.74 -1.98,13.86 5.24,17.51z"/>
   <path class="fil2" d="M233.14 63.34c-7.59,3.92 -4.06,29.84 -2.86,31.6 1.77,2.57 5.96,3.61 9.15,1.75 5.21,-3.04 3.3,-13.8 3.33,-20.24 0.02,-3.47 0.5,-7.86 -1.02,-10.49 -1.6,-2.75 -5.4,-4.28 -8.6,-2.62z"/>
   <path class="fil3" d="M252.5 236.5c-5.01,2.7 -8.52,6.38 -16.66,6.39 -7.6,0 -12.18,-3.12 -16.67,-6.37 2.01,21.4 31.32,21.42 33.33,-0.02z"/>
   <path class="fil6" d="M201.29 217.8c2.14,2.03 3.97,3.59 7.11,5.43 1.92,-6.15 5.38,-7.36 7.14,-11.34 -2.64,-2.73 -2.88,-3.14 -5.6,-4.67 -1.21,3.39 -1.63,2.49 -3.88,5.25 -0.96,1.18 -1.02,1.67 -1.88,2.74 -2.16,2.69 -0.45,1.12 -2.89,2.6z"/>
   <path class="fil6" d="M268.05 215.87c-1.89,-2.61 -1.65,-2.8 -4.18,-5.3 -2.39,-2.36 -3.13,-2.21 -4.11,-5.25 -2.08,1.64 -3.77,3.47 -5.46,5.65 1.57,1.97 2.73,2.3 4.53,4.63 1.98,2.56 1.96,3.95 5,5.71l3.29 -3.85c0.99,-1.39 0.39,-0.31 0.92,-1.59z"/>
  </g>
 </g>
</svg>
