<?xml version="1.0" encoding="UTF-8"?>
<!DOCTYPE svg PUBLIC "-//W3C//DTD SVG 1.1//EN" "http://www.w3.org/Graphics/SVG/1.1/DTD/svg11.dtd">
<!-- Creator: CorelDRAW 2020 (64-Bit) -->
<svg xmlns="http://www.w3.org/2000/svg" xml:space="preserve" width="189.362mm" height="329.414mm" version="1.1" style="shape-rendering:geometricPrecision; text-rendering:geometricPrecision; image-rendering:optimizeQuality; fill-rule:evenodd; clip-rule:evenodd"
viewBox="0 0 129.05 224.5"
 xmlns:xlink="http://www.w3.org/1999/xlink"
 xmlns:xodm="http://www.corel.com/coreldraw/odm/2003">
 <defs>
  <style type="text/css">
   <![CDATA[
    .fil1 {fill:black}
    .fil5 {fill:#0AB59E}
    .fil2 {fill:#0DD0B2}
    .fil6 {fill:#967970}
    .fil4 {fill:#F99E8A}
    .fil3 {fill:#FFB09E}
    .fil0 {fill:#FFCDBE}
   ]]>
  </style>
 </defs>
 <g id="Capa_x0020_1">
  <metadata id="CorelCorpID_0Corel-Layer"/>
  <g id="_2070828014576">
   <path class="fil0" d="M3.61 117.35l0 9.07c4.42,0.78 3.23,4.89 3.23,11.71 -0.01,16.98 9.1,21.26 8.99,35.64 1.7,2.96 0.76,11.48 0.71,15.3l69.9 -0.03c0,-8.34 -1.15,-25.4 1.91,-31.96 4.61,-9.85 24.57,-34.44 25.99,-42.45 0.98,-5.51 -4.65,-21.76 -6.65,-27.39l-22.14 -4.24c-8.62,-0.94 -11.55,8.93 -6.77,14.61 1.83,2.18 13.55,6.94 17.44,8.87 4.74,2.36 4.98,2.39 4.47,8.88 -0.17,2.22 -0.85,3.53 -2.91,3.74 -2.5,0.26 -2.77,-1.13 -3.83,-2.35l-17.52 10.43c-9.49,5.67 -9.19,8.69 -11.17,9.91 -1.87,1.15 -3.84,0.01 -4.54,-1.28 -3.32,-6.09 16.56,-16.8 21.34,-19.66 2.77,-1.66 5.8,-3.22 8.19,-5.04 -2.87,-2.14 -9.18,-4.05 -12.65,-6.18 -2.18,-1.34 -3.39,-2.77 -4.92,-4.72 -1.14,-1.45 -2.6,-1.38 -6.8,-2.28 -0.73,1.27 -0.97,2.87 -1.69,4.31 -3.47,7 -12.22,10.28 -19.87,6.6 -1.77,-0.86 -2.29,-1.22 -3.61,-2.53l-3.1 -2.95c-3.23,5.29 -11.77,7.85 -19.17,3.73 -6.34,-3.53 -7.23,-9.87 -9.57,-17.71 -2.04,3.54 -2,10 -2.02,14.55 -0.04,7.73 1.32,12.64 -3.23,13.44z"/>
   <path class="fil1" d="M94.01 217.93l-75.49 -0c-2.94,0 -7.94,0.9 -10.11,-0.88 -1.11,-1.85 -0.81,-18.52 0.05,-20.58 3.57,-1.49 75.02,-0.59 85.58,-0.61 2.52,0 5.4,-0.16 7.52,0.46 1,2.69 1.2,18.68 -0.14,21.17 -2.07,0.62 -4.93,0.45 -7.42,0.45zm-10.39 -217.93l3.72 0c3.28,0.42 6.62,1.96 9.57,4.92 3.28,3.3 4.05,7.43 4.04,13.93l0.02 45.18c0.02,3.29 -0.33,5.14 -3.53,5.26 -3.64,-0.64 -3.31,-3.04 -3.29,-6.6 0.06,-9 0.4,-42.64 -0.03,-48.13 -0.4,-5.13 -4.96,-9.08 -10.67,-7.67 -6.72,2.09 -6.2,7.41 -6.2,15.02 0,7.02 0,14.03 0,21.05 -0,10.1 4.21,20.01 7.02,29.82 0.54,1.88 0.46,3.21 2.17,3.68l10.99 2.02c2.12,0.04 7.22,1.23 9.32,1.63 10.78,2.08 13.34,2.51 17.37,14.64 1.42,4.26 4.78,11.79 4.91,16.61 0.18,7.1 -3.09,10.86 -5.91,15.17l-16.92 25.61c-3.6,5.4 -5.27,7.18 -5.26,16.22 0.01,7.02 0,14.03 0,21.05 3.43,0.08 5.95,2.61 7.16,5.12 1.33,2.76 0.73,7.8 0.73,11.54 0,6.25 1.73,15.56 -6.05,18.07 -0.49,0.16 -2.62,0.27 -5.87,0.35l-67.01 0 -20.6 0c-1.2,-0.16 -2.18,-0.38 -2.82,-0.7 -6.59,-3.22 -5.52,-9.37 -5.52,-18.6 0,-4.84 -0.8,-15.79 8.33,-15.79 0,-6.24 0.31,-13.29 -0.46,-18.84 -0.89,-6.47 -2.75,-8.73 -4.93,-13.92 -4.37,-10.37 -3.73,-14.18 -3.83,-24.69 -0.03,-3.4 0.16,-5.72 3.52,-5.55 4.42,0.78 3.23,4.89 3.23,11.71 -0.01,16.98 9.1,21.26 8.99,35.64l0.3 15.41c1.85,0.57 74.83,0.74 78.13,0.04l0.07 -25.45c0.39,-8.04 6.17,-15.06 9.51,-20.13 4.03,-6.1 7.86,-11.83 11.91,-17.89 8.86,-13.25 8.04,-12.13 0.82,-32.2 -1.79,-4.97 -3.24,-5.45 -8.9,-6.31l-22.14 -4.24c-8.62,-0.94 -11.55,8.93 -6.77,14.61 1.83,2.18 13.55,6.94 17.44,8.87 4.74,2.36 4.98,2.39 4.47,8.88 -0.17,2.22 -0.85,3.53 -2.91,3.74 -2.5,0.26 -2.77,-1.13 -3.83,-2.35l-17.52 10.43c-9.49,5.67 -9.19,8.69 -11.17,9.91 -1.87,1.15 -3.84,0.01 -4.54,-1.28 -3.32,-6.09 16.56,-16.8 21.34,-19.66 2.77,-1.66 5.8,-3.22 8.19,-5.04 -2.87,-2.14 -9.18,-4.05 -12.65,-6.18 -2.18,-1.34 -3.39,-2.77 -4.92,-4.72 -1.14,-1.45 -2.6,-1.38 -6.8,-2.28 -0.73,1.27 -0.97,2.87 -1.69,4.31 -3.47,7 -12.22,10.28 -19.87,6.6 -1.77,-0.86 -2.29,-1.22 -3.61,-2.53l-3.1 -2.95c-3.23,5.29 -11.77,7.85 -19.17,3.73 -6.34,-3.53 -7.23,-9.87 -9.57,-17.71 -2.04,3.54 -2,10 -2.02,14.55 -0.04,7.73 1.32,12.64 -3.23,13.44 -4.03,0.27 -3.52,-3.34 -3.51,-7.3 0.01,-3.24 -0.27,-7.83 0.06,-10.9 0.85,-7.79 5.24,-28.83 10.58,-33.27 6.12,-5.1 10.53,-4.05 16.1,-2.75 1.12,-4.8 3.39,-8.26 7.03,-10.51 6.58,-4.06 10.96,-1.62 14.45,-1.33 0.1,-4.53 4.56,-8.97 7.74,-10.68 6.55,-3.52 11.46,-0.58 14.62,0.15 0,-5.99 0,-11.99 0,-17.98 0,-7.7 -0.77,-10.6 2.2,-15.77 2.2,-3.83 6.21,-6.45 10.71,-7.03zm-64.85 69.05c10.08,-2.71 11.52,10.04 13.44,16.36 1.15,3.81 3.29,8.38 1.35,12.49 -1.37,2.9 -5.3,5.86 -9.7,4.34 -6.13,-1.33 -6.92,-8.7 -9.16,-16.43 -1.45,-5.03 -5.41,-13.85 4.07,-16.77zm20.97 -11.75c2.67,-0.96 5.77,0.31 7.48,1.7 2.4,1.95 2.46,2.93 3.55,6.53 1.45,4.8 8.8,27.68 8.46,30.87 -0.31,2.98 -2.25,5.06 -3.96,6.13 -1.01,0.63 -2.15,1.1 -3.52,1.22 -2.1,0.2 -2.9,-0.1 -3.78,-0.89 -4.36,-0.25 -5.31,-5.43 -6.65,-9.91l-7.61 -25.68c-0.99,-5.03 2.22,-8.91 6.03,-9.98zm20.12 -10.62c2.6,-2.69 7.69,0.11 9.33,1.76 2.03,2.05 2.75,5.85 3.67,9.04 1.77,6.13 4.58,13.61 5.78,19.69 -1.11,0.97 -2.21,1.37 -3.41,2.32 -1.31,1.04 -1.63,1.75 -2.69,2.69 -1.76,3.93 -2.63,4.66 -2.67,9.96 -4.93,-1.1 -5.68,-4.85 -7.16,-9.61 -1.32,-4.23 -2.57,-8.58 -3.8,-12.85 -1.24,-4.28 -2.68,-8.44 -3.85,-12.83 -1.25,-4.68 1.13,-9.85 4.81,-10.19z"/>
   <path class="fil2" d="M21.41 204.12c4.12,-2.15 6.35,4.17 2.98,5.7 -4.2,1.91 -6.44,-3.89 -2.98,-5.7zm72.6 13.81c0.76,-3.33 0.67,-18.64 0.03,-22.07 -10.56,0.03 -82.01,-0.88 -85.58,0.61 -0.86,2.07 -1.16,18.73 -0.05,20.58 2.17,1.78 7.17,0.88 10.11,0.88l75.49 0z"/>
   <path class="fil3" d="M86.43 189.04l7.36 -0.01 0 -18.9c-0,-2.03 -0.32,-4.49 0.55,-6.36 0.39,-8.04 6.17,-15.06 9.51,-20.13 4.03,-6.1 7.86,-11.83 11.91,-17.89 8.86,-13.25 8.04,-12.13 0.82,-32.2 -1.79,-4.97 -3.24,-5.45 -8.9,-6.31 2,5.63 7.63,21.88 6.65,27.39 -1.42,8.01 -21.38,32.59 -25.99,42.45 -3.07,6.56 -1.91,23.61 -1.91,31.96z"/>
   <path class="fil4" d="M83.45 6.9c1.05,2.07 2.37,3.15 2.83,6.4 0.44,3.12 0.17,58.69 0.17,63.17l10.99 2.02 0 -9.19c-3.64,-0.64 -3.31,-3.04 -3.29,-6.6 0.06,-9 0.4,-42.64 -0.03,-48.13 -0.4,-5.13 -4.96,-9.08 -10.67,-7.67z"/>
   <path class="fil3" d="M86.45 76.47c0,-4.48 0.27,-60.06 -0.17,-63.17 -0.46,-3.25 -1.78,-4.33 -2.83,-6.4 -6.72,2.09 -6.2,7.41 -6.2,15.02 0,7.02 0,14.03 0,21.05 -0,10.1 4.21,20.01 7.02,29.82 0.54,1.88 0.46,3.21 2.17,3.68z"/>
   <path class="fil0" d="M47.97 102.87c1.37,-0.12 1.17,-0.08 1.92,-1.34 0.31,-0.51 0.94,-1.96 1.18,-2.76 0.72,-2.47 0.66,-4.35 -0.01,-6.81 -1.07,-3.98 -2.32,-7.95 -3.5,-11.83l-5.23 -17.56c-0.75,-2.51 -1.78,-3.56 -2.6,-5.28 -3.8,1.07 -7.02,4.95 -6.03,9.98l7.61 25.68c1.34,4.48 2.29,9.66 6.65,9.91z"/>
   <path class="fil0" d="M72.53 82.19c-0.41,-1.88 -9.01,-32.48 -10.75,-34.7 -1.27,-1.62 0.03,-1.18 -1.93,-0.81 -3.67,0.34 -6.05,5.51 -4.81,10.19 1.17,4.39 2.61,8.56 3.85,12.83 1.23,4.26 2.49,8.62 3.8,12.85 1.48,4.76 2.23,8.52 7.16,9.61 0.04,-5.3 0.91,-6.04 2.67,-9.96z"/>
   <path class="fil3" d="M39.73 57.3c0.82,1.72 1.85,2.78 2.6,5.28l5.23 17.56c1.18,3.88 2.42,7.85 3.5,11.83 0.66,2.46 0.73,4.34 0.01,6.81 -0.23,0.8 -0.87,2.25 -1.18,2.76 -0.76,1.26 -0.55,1.22 -1.92,1.34 0.88,0.78 1.68,1.08 3.78,0.89 1.37,-0.13 2.51,-0.6 3.52,-1.22 1.71,-1.07 3.65,-3.15 3.96,-6.13 0.34,-3.19 -7.01,-26.07 -8.46,-30.87 -1.09,-3.6 -1.15,-4.58 -3.55,-6.53 -1.71,-1.39 -4.81,-2.66 -7.48,-1.7z"/>
   <path class="fil0" d="M23.85 102.24c2.07,-6.08 4.89,-2.91 0.79,-16.71 -0.84,-2.82 -1.63,-5.68 -2.5,-8.46 -1.3,-4.15 -1.59,-4.67 -3.38,-8.02 -9.48,2.92 -5.52,11.74 -4.07,16.77 2.23,7.73 3.03,15.1 9.16,16.43z"/>
   <path class="fil3" d="M59.85 46.67c1.96,-0.37 0.66,-0.81 1.93,0.81 1.74,2.22 10.34,32.82 10.75,34.7 1.06,-0.94 1.39,-1.65 2.69,-2.69 1.2,-0.95 2.31,-1.36 3.41,-2.32 -1.2,-6.08 -4.01,-13.56 -5.78,-19.69 -0.92,-3.19 -1.65,-6.99 -3.67,-9.04 -1.63,-1.65 -6.72,-4.46 -9.33,-1.76z"/>
   <path class="fil3" d="M23.85 102.24c4.39,1.52 8.32,-1.44 9.7,-4.34 1.94,-4.11 -0.19,-8.68 -1.35,-12.49 -1.92,-6.32 -3.36,-19.07 -13.44,-16.36 1.79,3.35 2.08,3.87 3.38,8.02 0.87,2.77 1.66,5.64 2.5,8.46 4.11,13.8 1.29,10.64 -0.79,16.71z"/>
   <path class="fil5" d="M94.01 217.93c2.48,-0 5.35,0.17 7.42,-0.45 1.33,-2.49 1.13,-18.48 0.14,-21.17 -2.12,-0.61 -5,-0.45 -7.52,-0.46 0.64,3.43 0.73,18.75 -0.03,22.07z"/>
   <path class="fil6" d="M86.43 189.04l-69.9 0.03c0.05,-3.82 0.99,-12.34 -0.71,-15.3l0.3 15.41c1.85,0.57 74.83,0.74 78.13,0.04l0.07 -25.45c-0.86,1.87 -0.55,4.33 -0.55,6.36l0 18.9 -7.36 0.01z"/>
   <path class="fil1" d="M21.41 204.12c-3.47,1.81 -1.23,7.61 2.98,5.7 3.37,-1.53 1.14,-7.86 -2.98,-5.7z"/>
  </g>
 </g>
</svg>
