<?xml version="1.0" encoding="UTF-8"?>
<!DOCTYPE svg PUBLIC "-//W3C//DTD SVG 1.1//EN" "http://www.w3.org/Graphics/SVG/1.1/DTD/svg11.dtd">
<!-- Creator: CorelDRAW 2020 (64-Bit) -->
<svg xmlns="http://www.w3.org/2000/svg" xml:space="preserve" width="169.355mm" height="169.355mm" version="1.1" style="shape-rendering:geometricPrecision; text-rendering:geometricPrecision; image-rendering:optimizeQuality; fill-rule:evenodd; clip-rule:evenodd"
viewBox="0 0 152.13 152.13"
 xmlns:xlink="http://www.w3.org/1999/xlink"
 xmlns:xodm="http://www.corel.com/coreldraw/odm/2003">
 <defs>
  <style type="text/css">
   <![CDATA[
    .fil1 {fill:black}
    .fil2 {fill:#558B30}
    .fil0 {fill:#8AC249}
   ]]>
  </style>
 </defs>
 <g id="Capa_x0020_1">
  <metadata id="CorelCorpID_0Corel-Layer"/>
  <g id="_2409686646192">
   <path class="fil0" d="M144.3 130.06c0.87,-4.22 -4.54,-6.78 -7.08,-8.48 -3.2,-2.13 -6.29,-4.19 -9.45,-6.3 -2.87,-1.92 -17.03,-11.94 -19.3,-12.11 -0.97,0.66 -5.19,6.48 -6.32,7.89 -2.05,2.55 -3.55,5.34 -8.02,5.75l-2.67 1.68c-3.4,2.04 -6.25,0.2 -8.79,-1.2 -15.09,-8.37 -31.56,-24.66 -41.72,-38.2 -2.31,-3.08 -4.23,-6.18 -6.21,-9.83 -3.39,-6.23 -2.07,-6.49 0.56,-11.31 0.46,-4.51 3.37,-6.04 5.92,-8.1 1.41,-1.14 7.06,-5.2 7.73,-6.18 -0.15,-2.52 -15.81,-24.89 -18.4,-28.75 -1.68,-2.51 -4.3,-7.98 -8.48,-7.07 -1.32,0.24 -11.18,6.41 -12.18,7.4 -3.17,3.14 -4.5,8.75 -4.78,14.82 -0.54,11.9 3.68,21.79 7.91,30.9 4.1,8.82 13.38,21.5 19.92,29.1l9.34 10.27c5.76,6.2 8.82,8.94 14.78,14.35l2.66 2.39c0.98,0.89 1.6,1.49 2.49,2.26l11 8.61c13.23,9.85 31.86,19.96 49.21,19.05 5.96,-0.31 11.68,-1.65 14.57,-4.95 1.24,-1.41 7.04,-10.61 7.3,-11.99z"/>
   <path class="fil1" d="M22.08 7.84c0.81,-1.11 4.22,-3.06 6.25,-2.57 2.05,0.5 3.33,3.23 4.38,4.82l18.4 27.66c1.38,2.6 -0.2,5.06 -2.15,5.92 -0.67,0.98 -6.32,5.04 -7.73,6.18 -2.55,2.06 -5.46,3.59 -5.92,8.1 -0.14,5.69 6.68,15.21 10.03,19.44 1.15,1.45 2.16,2.55 3.21,3.92l12.57 13.28c0.66,0.67 1,1.23 1.68,1.88 5.45,5.23 14.06,12.46 20.46,16.09 3.22,1.82 6.34,4.39 10.87,4.25 4.47,-0.41 5.97,-3.2 8.02,-5.75 1.13,-1.4 5.34,-7.22 6.32,-7.89 2.59,-5.97 8.8,-0.25 11.46,1.53 3.77,2.52 7.33,4.82 11.1,7.33 3.81,2.54 7.34,4.9 11.05,7.37 1.51,1.01 4.27,2.37 4.78,4.41 0.5,2.02 -1.45,5.42 -2.55,6.24 -0.26,1.38 -6.07,10.58 -7.3,11.99 -2.89,3.3 -8.61,4.64 -14.57,4.95 -17.35,0.91 -35.98,-9.2 -49.21,-19.05l-11 -8.61c-0.89,-0.77 -1.5,-1.37 -2.49,-2.26l-2.66 -2.39c-5.96,-5.41 -9.02,-8.15 -14.78,-14.35l-9.34 -10.27c-6.54,-7.6 -15.82,-20.28 -19.92,-29.1 -4.23,-9.11 -8.46,-19 -7.91,-30.9 0.28,-6.07 1.61,-11.68 4.78,-14.82 1,-0.99 10.86,-7.16 12.18,-7.4zm5.14 -7.84l1.09 0c1.93,0.13 3.82,0.98 5.65,2.89 1.38,1.44 17.56,26.11 20.42,30.39 5.51,8.24 1.09,12.21 -5.31,16.98 -1.68,1.25 -3.16,2.53 -4.84,3.78 -1.41,1.05 -3.82,2.5 -3.82,4.8 0,2.9 8.19,14.45 9.9,16.55 5.4,6.63 10.15,11.37 16.03,17.25 0.59,0.59 1.03,1.09 1.64,1.63 0.73,0.64 1.05,0.75 1.79,1.48 3.72,3.68 10.28,8.91 14.83,11.62 8.51,5.07 9.26,6.25 13.51,0.54 1.25,-1.68 2.53,-3.16 3.78,-4.84l3.82 -4.79c1.27,-1.27 3.34,-2.89 5.73,-2.89 4.2,0 4.12,0.17 7.96,2.73l14.97 9.98c3.47,2.31 6.67,4.44 10.16,6.77 1.61,1.08 3.57,2.19 4.87,3.45 1.73,1.69 2.57,3.53 2.74,5.44l0 1.43c-0.14,1.73 -0.79,3.5 -1.8,5.24l-8.09 13.3c-5.74,7.7 -13.99,8.4 -23.39,8.4 -18.97,0 -41.46,-13.65 -56.22,-25.78 -1.43,-1.18 -2.63,-2.19 -4.02,-3.4 -0.78,-0.68 -1.29,-1.09 -2.08,-1.79 -0.77,-0.69 -1.14,-0.84 -1.93,-1.63l-5.82 -5.47c-4.91,-3.92 -14.81,-15.15 -19.87,-20.83 -8.17,-9.17 -18.66,-24.6 -23.3,-36.13 -3.86,-9.59 -5.6,-15.57 -5.6,-27.38 0,-3.99 1.02,-9.11 2.2,-12.06 2.26,-5.65 6.27,-7.92 10.78,-10.61 4.92,-2.93 9.7,-6.75 14.24,-7.04z"/>
   <path class="fil1" d="M131.33 71.01c3.49,0 2.97,-1.97 2.97,-5.35 0,-3.46 -0.88,-7.04 -1.6,-9.99 -1.38,-5.59 -6.24,-15.01 -10.2,-18.91 -0.59,-0.59 -0.91,-0.84 -1.44,-1.53 -2.85,-3.72 -10.92,-8.98 -15.49,-10.95 -5.19,-2.24 -12.12,-4.07 -19.4,-4.07 -2.72,0 -4.69,5.42 1.78,5.36 4.55,-0.04 11.5,1.62 15.46,3.56l6.04 3.17c0.77,0.47 1.18,0.83 1.9,1.37 3,2.26 5.79,4.67 8.15,7.59 2.44,3.02 4.39,6.29 6.1,9.95 4.97,10.62 2.06,19.81 5.74,19.81z"/>
   <path class="fil2" d="M94.12 116.81c-4.53,0.14 -7.65,-2.43 -10.87,-4.25 -6.41,-3.63 -15.01,-10.86 -20.46,-16.09 -0.67,-0.65 -1.02,-1.21 -1.68,-1.88l-12.57 -13.28c-1.05,-1.37 -2.06,-2.47 -3.21,-3.92 -3.35,-4.23 -10.18,-13.75 -10.03,-19.44 -2.63,4.83 -3.95,5.09 -0.56,11.31 1.98,3.65 3.9,6.75 6.21,9.83 10.16,13.54 26.63,29.84 41.72,38.2 2.54,1.41 5.39,3.24 8.79,1.2l2.67 -1.68z"/>
   <path class="fil1" d="M116.17 71.01c3.12,0 2.97,-1.75 2.97,-3.86 0,-9.57 -4.62,-16.89 -10.77,-23.1 -6.24,-6.32 -21.65,-10.82 -24.18,-7.68 -1.52,1.88 -0.16,4.24 2.55,4.35 3.05,0.12 5.12,0.41 7.48,1.14 10.33,3.21 18.16,12.18 19.49,23 0.21,1.68 -0.15,6.16 2.46,6.16z"/>
   <path class="fil2" d="M108.46 103.17c2.28,0.17 16.43,10.19 19.3,12.11 3.16,2.11 6.25,4.17 9.45,6.3 2.54,1.7 7.96,4.26 7.08,8.48 1.11,-0.83 3.06,-4.22 2.55,-6.24 -0.51,-2.05 -3.27,-3.41 -4.78,-4.41 -3.71,-2.47 -7.24,-4.83 -11.05,-7.37 -3.77,-2.52 -7.33,-4.81 -11.1,-7.33 -2.66,-1.78 -8.87,-7.5 -11.46,-1.53z"/>
   <path class="fil2" d="M22.08 7.84c4.17,-0.92 6.8,4.55 8.48,7.07 2.59,3.86 18.24,26.23 18.4,28.75 1.95,-0.86 3.53,-3.32 2.15,-5.92l-18.4 -27.66c-1.06,-1.59 -2.34,-4.32 -4.38,-4.82 -2.02,-0.49 -5.44,1.47 -6.25,2.57z"/>
   <path class="fil1" d="M101.32 71.01c5.56,0 1.72,-11.86 -3.52,-16.09 -1.67,-1.35 -3.78,-2.66 -6.09,-3.42 -1.44,-0.47 -2.33,-0.59 -4.04,-0.73 -4.49,-0.39 -4.52,2.58 -3.48,4.09 1.45,2.12 10.81,-0.21 13.98,9.79 0.81,2.55 -0.03,6.36 3.15,6.36z"/>
  </g>
 </g>
</svg>
