<?xml version="1.0" encoding="UTF-8"?>
<!DOCTYPE svg PUBLIC "-//W3C//DTD SVG 1.1//EN" "http://www.w3.org/Graphics/SVG/1.1/DTD/svg11.dtd">
<!-- Creator: CorelDRAW 2020 (64-Bit) -->
<svg xmlns="http://www.w3.org/2000/svg" xml:space="preserve" width="397.091mm" height="344.614mm" version="1.1" style="shape-rendering:geometricPrecision; text-rendering:geometricPrecision; image-rendering:optimizeQuality; fill-rule:evenodd; clip-rule:evenodd"
viewBox="0 0 2527.98 2193.91"
 xmlns:xlink="http://www.w3.org/1999/xlink"
 xmlns:xodm="http://www.corel.com/coreldraw/odm/2003">
 <defs>
  <style type="text/css">
   <![CDATA[
    .fil0 {fill:black}
    .fil9 {fill:#72353E}
    .fil10 {fill:#78444A}
    .fil8 {fill:#C4D2DD}
    .fil7 {fill:#D8E6EB}
    .fil4 {fill:#E4384F}
    .fil6 {fill:#E63850}
    .fil5 {fill:#E7F8FB}
    .fil1 {fill:#EB5368}
    .fil2 {fill:#F17181}
    .fil3 {fill:#F78B98}
   ]]>
  </style>
 </defs>
 <g id="Capa_x0020_1">
  <metadata id="CorelCorpID_0Corel-Layer"/>
  <g id="_2032917068800">
   <path class="fil0" d="M687.07 1593.24l1273.1 -0.12c80.91,-0.2 119.68,10.58 119.8,95.4 0.09,63.37 4.47,148.39 -0.98,209.01 -7.9,6.75 9.21,7.96 -44.67,7.13 -245.63,-3.76 -518.91,-0.14 -765.4,-0.14 -272.92,0 -545.85,-0.27 -818.76,-0.27 -5.49,-32.53 -5.38,-241.92 4.03,-265.1 25.79,-63.58 138.71,-46.86 232.88,-45.91zm1840.91 -744.99l0 27.04c-0.29,2.37 -0.65,4.8 -1.09,7.3 -3.52,20.1 -26.57,94.2 -36.62,111.64 -18.32,31.79 -55.65,49.54 -99.59,36.87 -60.54,-17.45 -540.52,-165.1 -563.83,-167.04 0,54.79 15.89,149.18 -39.5,146.6 -48.82,-7.21 -37.31,-46.59 -37.28,-97.22l0 -417.11 -125.65 0c-24.44,18.92 -15.94,72.95 -86.07,98.99 -41.71,15.49 -504.28,12 -546.88,1.05 -80.35,-38.19 -62.03,-80.5 -87.92,-100.02l-125.66 0c0,101.18 0,202.35 0,303.53 0,247.3 19.6,411.46 -108.11,630.27 -13.23,22.67 -52.38,74.7 -57.26,89.11l1298.27 0.16c4.97,-5.86 7.46,0.52 -0.11,-8.21 -6.38,-15.48 -19.99,-29.29 -29.98,-44.2 -48.47,-72.35 -125.77,-248.68 -121.57,-321.33 1.54,-26.73 17.31,-26.16 32.25,-39.67 53.27,23.1 32.45,8.54 54.21,94.82 30.44,120.69 71.66,192.2 146.26,288.24 25.82,33.24 25.24,28.14 41.77,32.29 23.95,6.01 32.18,8.62 52.97,21.1 98.08,58.86 71.08,210.85 71.08,358.48 26.64,12.78 34.91,4.41 60.63,28.25 51.05,47.31 38.14,174.39 21.93,207.37 -8.64,17.58 -27.07,35.43 -44.46,44.41 -23.84,12.31 -38.45,11.51 -72.62,11.31l-676.47 -0.03c-63.85,0 -129.48,13.19 -133.27,-34.56 4.17,-46.11 28.96,-41.15 74,-40.87l681.39 0.05c28.13,0 81.88,8.84 97.6,-10.11 18.6,-19.06 10.67,-100.03 3.06,-123.69 -41.22,-12.5 -1509.61,-4.15 -1599.23,-4.89 -47.96,0.34 -177.02,-5.57 -211.81,4.8 -7.59,23.76 -15.4,104.69 3.1,123.87 17.42,19.4 167.02,9.88 201.36,10.12 196.27,1.35 442.42,-6.98 625.04,0.92 20.98,10.57 23.97,10.86 26.65,39.8 -2.29,29.05 -22.14,34.81 -53.98,34.84l-765.71 -0.16c-57.2,0.38 -91.67,-20.32 -108.68,-59.19 -14.33,-32.74 -15.28,-113.98 -5.09,-153.57 17.74,-68.91 65.94,-67.51 89.2,-78.67 0,-57.6 0.07,-115.21 -0,-172.81 -0.1,-80.3 5.88,-148.05 74.18,-187.51 65.45,-37.81 54.6,12.14 138.15,-113.66 132.75,-199.88 118.48,-339.24 118.48,-562.89 -19.09,1.59 -38.14,10.29 -58.2,15.86 -17.53,4.87 -35.89,10.63 -57.13,16.93l-338.3 101.14c-82.7,26.43 -168.12,68.82 -212.16,-6.33 -7.28,-12.41 -32.83,-97.05 -34.95,-113.42 -0.15,-1.13 -0.27,-2.23 -0.39,-3.33l0 -25.14c4.23,-33.57 26.29,-49.25 49.37,-64.71 0,-209.82 -15.67,-297.6 72.99,-430.64 34.07,-51.12 78.81,-88.54 131.46,-120.35 138.35,-83.59 393.37,-157.97 558.01,-187.55 136.38,-24.51 296.11,-46.56 452.17,-46.52 305.6,0.08 625.8,70.46 844.31,158 110.69,44.34 198.68,78.06 273.09,166.34 113.96,135.2 97.22,243.21 97.22,460.72 22.34,14.96 44.68,30.91 49.37,63.19zm-417.37 -90.49c23.86,-0.61 314.83,87.15 342.83,100.09l-27.31 101.1c-29.57,-1.61 -310.75,-85.51 -344.33,-99.92l-231.25 -68.29c0.37,-27.2 16.58,-83.37 28.76,-101.83 16.89,-2.7 220.28,57.31 231.29,68.86zm-1783.98 137.12c-31.91,12.85 -194.8,62.4 -224.82,64.14 -6.7,-24.53 -30.32,-80.08 -24.39,-101.25l221.66 -69.46c52.52,-12.45 325.42,-103.4 349.41,-99.26 12.3,18.02 28.55,74.65 29.04,102.17l-350.89 103.67zm1500.24 -262.88l0 -153.06c81.04,18.88 61.51,100.33 46.07,125.06 -8.21,13.15 -4.7,6.99 -20.18,14.38l-25.89 13.61zm-1184.99 -88.87c0,-38.44 25.83,-56.4 59.25,-64.19l0 153.06c-7.38,-3.91 -14.02,-8 -22.48,-12.08 -21.44,-10.35 -36.77,-18.49 -36.77,-76.8zm345.62 -59.25l0 -54.31 553 0c0,47.56 11.6,98.75 -54.31,98.75l-444.37 0c-30.81,0 -54.31,-14.13 -54.31,-44.44zm758.61 -187.07c11.76,12.86 8.34,102.97 4.11,125.24l-120.83 2.72c-8.39,-1.31 -8.38,-2.94 -11.46,-4.63l0.96 -124.87 127.21 1.53zm-964.48 -0.08l127.97 -0.96 0.56 124.53c-1.19,0.64 -2.63,1.6 -3.57,1.91 -0.95,0.31 -2.54,1.3 -3.77,1.62 -11.5,3 3.03,0.31 -8.85,1.65l-49.68 -0.21c-21.89,0 -45.92,2.69 -66.62,-3.14 -3.68,-18.94 -7.15,-117.16 3.94,-125.4zm-454.83 404.77l-203.52 61.98c1.04,-164.08 -19.13,-350.97 154.79,-455.73 31.8,-19.15 98.95,-54.85 136.65,-64.95 18.31,-19.52 214.17,-76.51 258.82,-87.93 87.46,-22.37 200.37,-46.12 292.97,-54.87 2.69,44.62 3.22,119.18 85.73,131.5 30.18,4.5 401.54,4.32 427.75,-0.72 75.21,-14.47 78.63,-80.99 81.44,-130.82 182.13,16.85 447.39,87.13 593.8,159.13 103.66,50.97 154.74,76.41 207.29,167.98 52.46,91.41 41.48,220.65 42.06,337l-242.62 -73.51 -216.48 -63.05c19.15,-96.63 30.67,-67.11 -4.72,-163.34 -8.54,-4.04 -26.69,-29.09 -51.9,-42.11 -20.42,-10.55 -46.62,-17.57 -64.81,-28.56 0,-119.51 12.17,-172.65 -120.63,-172.24 -127.31,0.39 -159.19,-6.21 -155.53,130.99l-564.15 -1.61c0,-138.37 -35.4,-128.86 -164.13,-129.39 -128.8,-0.53 -115.69,57.73 -115.69,172.26 -55.12,33.96 -84.02,21.68 -118.47,78.46 -35.87,59.11 -19.11,93.14 -2.99,155.28l-255.66 74.28zm715.74 -611.49c169.44,-13.85 272.76,-15.74 442.92,-0.02 9.32,92.31 -12.02,69.06 -226.4,69.06 -198.16,0 -226.15,23.24 -216.51,-69.04z"/>
   <path class="fil1" d="M414.72 242.78c-41.65,59.31 -70.54,106.46 -87.85,192.49 -3.38,16.81 -16.14,224.77 -9.16,250.73 4.56,16.94 -6.13,4.28 9.08,15.48l255.66 -74.28c-16.12,-62.14 -32.88,-96.17 2.99,-155.28 34.45,-56.77 63.35,-44.49 118.47,-78.46 0,-114.53 -13.12,-172.79 115.69,-172.26 128.74,0.53 164.13,-8.97 164.13,129.39l564.15 1.61c-3.66,-137.2 28.22,-130.6 155.53,-130.99 132.8,-0.4 120.63,52.74 120.63,172.24 18.19,10.99 44.39,18.01 64.81,28.56 25.21,13.02 43.36,38.07 51.9,42.11 54.87,27.54 115.67,22.49 160.42,61.42 16.29,14.17 36.27,34.64 46.98,61.5 16.28,40.8 4.55,76.97 13.8,103.48l242.62 73.51c-0.57,-116.35 10.4,-245.6 -42.06,-337 -52.55,-91.57 -103.64,-117 -207.29,-167.98 -146.41,-72 -411.67,-142.28 -593.8,-159.13 -2.82,49.82 -6.23,116.35 -81.44,130.82 -26.21,5.04 -397.56,5.23 -427.75,0.72 -82.51,-12.31 -83.04,-86.87 -85.73,-131.5 -92.61,8.75 -205.51,32.5 -292.97,54.87 -44.64,11.42 -240.5,68.41 -258.82,87.93z"/>
   <path class="fil2" d="M2079 1897.53c5.44,-60.62 1.07,-145.64 0.98,-209.01 -0.12,-84.82 -38.89,-95.61 -119.8,-95.4l-1273.1 0.12c-7.74,17.93 -20.7,33.39 -24.25,56.93l-1.68 247.36 1417.86 0z"/>
   <path class="fil1" d="M991.48 596.36l1.26 180.66 19.64 -16.44c8.12,-6.5 12.69,-9.46 22.66,-16.86 121,-89.77 274.57,-95.42 408.94,-30.13 114.39,55.58 230.19,203.91 208.25,391.85 -37.35,319.93 -424.72,460.18 -661.84,234.64 -14.92,-14.19 -19.67,-25.8 -37.75,-41.41 -14.75,4.22 -17.49,25.31 -30.06,53.51 -39.18,87.89 -51.1,92.86 -98.09,160.68l1086.2 -1.66c-6.38,-15.48 -19.99,-29.29 -29.98,-44.2 -48.47,-72.35 -125.77,-248.68 -121.57,-321.33 1.54,-26.73 17.31,-26.16 32.25,-39.67 2.07,-28.81 -4.02,-59.39 -4.02,-95.34 -48.82,-7.21 -37.31,-46.59 -37.28,-97.22l0 -417.11 -125.65 0c-24.44,18.92 -15.94,72.95 -86.07,98.99 -41.71,15.49 -504.28,12 -546.88,1.05z"/>
   <path class="fil3" d="M1187.91 2117.87c20.98,10.57 23.97,10.86 26.65,39.8l98.85 0c4.17,-46.11 28.96,-41.15 74,-40.87l681.39 0.05c28.13,0 81.88,8.84 97.6,-10.11 18.6,-19.06 10.67,-100.03 3.06,-123.69 -41.22,-12.5 -1509.61,-4.15 -1599.23,-4.89l-1.73 130.13c159.9,10.88 417.3,-5.77 587.08,0.18 14.62,0.51 22.35,1.58 32.34,9.39z"/>
   <path class="fil4" d="M1910.69 1511.2l-1086.2 1.66c46.99,-67.81 58.92,-72.79 98.09,-160.68 12.57,-28.2 15.31,-49.29 30.06,-53.51 -8.03,-17.57 -24.02,-35.79 -35.34,-58.42 -34.73,-69.43 -50.55,-141.47 -42.07,-222.09 8.44,-80.18 34.56,-133.88 77.58,-193.65 8.96,-12.45 8.42,-13.77 19.96,-24.68 5.66,-5.35 6.99,-5.32 12.61,-11.84 8.03,-9.31 4.65,-5.64 7.36,-10.99l-1.26 -180.66c-80.35,-38.19 -62.03,-80.5 -87.92,-100.02l-125.66 0c0,101.18 0,202.35 0,303.53 0,247.3 19.6,411.46 -108.11,630.27 -13.23,22.67 -52.38,74.7 -57.26,89.11l1298.27 0.16c4.97,-5.86 7.46,0.52 -0.11,-8.21z"/>
   <path class="fil0" d="M1299.38 1371.39l-15.8 5.02c-136.84,21.48 -332.57,-107.72 -336.48,-309.87 -3.63,-187.66 151.97,-336.16 346,-321.8 158.64,17.49 285.81,142.4 287.76,311.87 2.33,203.37 -194.68,331.28 -281.48,314.78zm-306.64 -594.37c-2.71,5.35 0.67,1.67 -7.36,10.99 -5.63,6.52 -6.95,6.49 -12.61,11.84 -11.54,10.91 -10.99,12.23 -19.96,24.68 -43.02,59.77 -69.15,113.46 -77.58,193.65 -8.48,80.61 7.34,152.66 42.07,222.09 11.32,22.62 27.31,40.85 35.34,58.42 18.07,15.6 22.83,27.22 37.75,41.41 237.12,225.55 624.49,85.29 661.84,-234.64 21.94,-187.93 -93.86,-336.27 -208.25,-391.85 -134.37,-65.29 -287.93,-59.64 -408.94,30.13 -9.97,7.4 -14.54,10.36 -22.66,16.86l-19.64 16.44z"/>
   <path class="fil5" d="M1164.47 866.9c34.83,-2.2 56.95,-23.56 114.54,-19.56 103.84,7.22 196.43,92.53 198.4,209.18 2,119.01 -89.13,205.46 -190.04,216.1 -59.14,6.24 -78.97,-14.16 -117.33,-16.56 -10.79,5.52 -10.75,-3.42 18.01,34.45 23.84,31.39 71.36,73.11 111.33,80.87 86.8,16.49 283.82,-111.41 281.48,-314.78 -1.94,-169.47 -129.12,-294.38 -287.76,-311.87 -21.97,21.33 -50.71,30.02 -73.92,54.76 -13.53,14.43 -57.49,53.77 -54.72,67.4z"/>
   <path class="fil0" d="M1335.98 945.78c63.91,9.23 103.18,171.35 12.87,225.37 -17.67,10.57 -1.55,4.15 -17.37,6.38 -40.33,49.61 -205.63,20.01 -206.9,-115.95 -1.31,-140.08 172.65,-169.94 211.4,-115.8zm-171.5 -78.88c-16.45,21.71 -114.79,63.26 -113.95,194.67 0.87,136.12 103.28,175.66 119.52,194.5 38.37,2.4 58.19,22.8 117.33,16.56 100.9,-10.64 192.04,-97.09 190.04,-216.1 -1.97,-116.65 -94.56,-201.96 -198.4,-209.18 -57.59,-4.01 -79.7,17.36 -114.54,19.56z"/>
   <path class="fil6" d="M326.8 701.49c-15.22,-11.21 -4.53,1.46 -9.08,-15.48 -6.98,-25.96 5.78,-233.92 9.16,-250.73 17.31,-86.04 46.2,-133.18 87.85,-192.49 -37.7,10.11 -104.85,45.8 -136.65,64.95 -173.92,104.76 -153.75,291.66 -154.79,455.73l203.52 -61.98z"/>
   <path class="fil7" d="M1299.38 1371.39c-39.97,-7.76 -87.5,-49.48 -111.33,-80.87 -28.77,-37.87 -28.81,-28.94 -18.01,-34.45 -16.24,-18.84 -118.64,-58.38 -119.52,-194.5 -0.84,-131.41 97.5,-172.96 113.95,-194.67 -2.77,-13.63 41.19,-52.98 54.72,-67.4 23.2,-24.74 51.95,-33.44 73.92,-54.76 -194.04,-14.35 -349.63,134.15 -346,321.8 3.91,202.15 199.64,331.35 336.48,309.87l15.8 -5.02z"/>
   <path class="fil1" d="M2079 1897.53l-1417.86 0 1.68 -247.36c3.55,-23.54 16.51,-39 24.25,-56.93 -94.17,-0.95 -207.1,-17.67 -232.88,45.91 -9.4,23.18 -9.51,232.58 -4.03,265.1 272.92,0 545.84,0.27 818.76,0.27 246.49,0 519.77,-3.63 765.4,0.14 53.88,0.83 36.77,-0.39 44.67,-7.13z"/>
   <path class="fil3" d="M299.07 788.3l27.56 106.57 350.89 -103.67c-0.49,-27.52 -16.73,-84.15 -29.04,-102.17 -23.99,-4.14 -296.89,86.81 -349.41,99.26z"/>
   <path class="fil3" d="M2081.8 859.02c33.58,14.41 314.75,98.32 344.33,99.92l27.31 -101.1c-28,-12.94 -318.97,-100.69 -342.83,-100.09 -15.17,9.4 -33.82,81.74 -28.81,101.26z"/>
   <path class="fil8" d="M1331.48 1177.54c-14.23,-2.38 -11.79,-5.12 -20.72,-19.54 -19.81,-32.01 -30.15,-60.34 -29.06,-101.48 0.87,-32.82 21.92,-114.45 54.28,-110.73 -38.75,-54.14 -212.71,-24.27 -211.4,115.8 1.27,135.96 166.57,165.56 206.9,115.95z"/>
   <path class="fil4" d="M1042.54 90c-9.64,92.27 18.35,69.04 216.51,69.04 214.38,0 235.72,23.26 226.4,-69.06 -170.15,-15.73 -273.48,-13.83 -442.92,0.02z"/>
   <path class="fil2" d="M1187.91 2117.87c-9.99,-7.82 -17.72,-8.88 -32.34,-9.39 -169.78,-5.95 -427.17,10.7 -587.08,-0.18l1.73 -130.13c-47.96,0.34 -177.02,-5.57 -211.81,4.8 -7.59,23.76 -15.4,104.69 3.1,123.87 17.42,19.4 167.02,9.88 201.36,10.12 196.27,1.35 442.42,-6.98 625.04,0.92z"/>
   <path class="fil6" d="M2161.96 690.54c-9.24,-26.51 2.48,-62.69 -13.8,-103.48 -10.72,-26.86 -30.69,-47.33 -46.98,-61.5 -44.75,-38.92 -105.55,-33.87 -160.42,-61.42 35.4,96.23 23.88,66.71 4.72,163.34l216.48 63.05z"/>
   <path class="fil2" d="M2081.8 859.02c-5.01,-19.53 13.64,-91.86 28.81,-101.26 -11.01,-11.55 -214.4,-71.55 -231.29,-68.86 -12.19,18.46 -28.39,74.63 -28.76,101.83l231.25 68.29z"/>
   <path class="fil2" d="M326.63 894.88l-27.56 -106.57 -221.66 69.46c-5.93,21.17 17.69,76.72 24.39,101.25 30.02,-1.74 192.91,-51.29 224.82,-64.14z"/>
   <path class="fil7" d="M1331.48 1177.54c15.82,-2.24 -0.3,4.19 17.37,-6.38 90.31,-54.03 51.04,-216.14 -12.87,-225.37 -32.36,-3.72 -53.41,77.92 -54.28,110.73 -1.09,41.13 9.25,69.46 29.06,101.48 8.93,14.43 6.49,17.16 20.72,19.54z"/>
   <polygon class="fil2" points="910.17,420.29 909.6,295.76 781.63,296.72 780.39,420.29 "/>
   <polygon class="fil3" points="1617.93,420.14 1746.63,420.14 1746.11,296.8 1618.9,295.27 "/>
   <path class="fil9" d="M910.17 420.29l-129.78 0 1.24 -123.57c-11.09,8.23 -7.62,106.46 -3.94,125.4 20.69,5.83 44.72,3.14 66.62,3.14l49.68 0.21c11.87,-1.34 -2.66,1.36 8.85,-1.65 1.23,-0.32 2.82,-1.31 3.77,-1.62 0.94,-0.31 2.38,-1.26 3.57,-1.91z"/>
   <path class="fil10" d="M1617.93 420.14c3.07,1.69 3.07,3.32 11.46,4.63l120.83 -2.72c4.23,-22.27 7.65,-112.38 -4.11,-125.24l0.52 123.34 -128.7 0z"/>
  </g>
 </g>
</svg>
