<?xml version="1.0" encoding="UTF-8"?>
<!DOCTYPE svg PUBLIC "-//W3C//DTD SVG 1.1//EN" "http://www.w3.org/Graphics/SVG/1.1/DTD/svg11.dtd">
<!-- Creator: CorelDRAW 2020 (64-Bit) -->
<svg xmlns="http://www.w3.org/2000/svg" xml:space="preserve" width="13.0372mm" height="11.9505mm" version="1.1" style="shape-rendering:geometricPrecision; text-rendering:geometricPrecision; image-rendering:optimizeQuality; fill-rule:evenodd; clip-rule:evenodd"
viewBox="0 0 2.66 2.44"
 xmlns:xlink="http://www.w3.org/1999/xlink"
 xmlns:xodm="http://www.corel.com/coreldraw/odm/2003">
 <defs>
  <style type="text/css">
   <![CDATA[
    .fil0 {fill:black}
    .fil8 {fill:#0099EC}
    .fil9 {fill:#009AEF}
    .fil5 {fill:#00AAF0}
    .fil3 {fill:#00C2FE}
    .fil2 {fill:#5ADBFA}
    .fil7 {fill:#5DC62E}
    .fil4 {fill:#7CE854}
    .fil6 {fill:#E3E9F6}
    .fil1 {fill:white}
   ]]>
  </style>
 </defs>
 <g id="Capa_x0020_1">
  <metadata id="CorelCorpID_0Corel-Layer"/>
  <g id="_2068769330592">
   <path class="fil0" d="M1.31 1.6c0.02,-0.02 0.08,-0.06 0.1,-0.07 0.03,-0.02 0.07,-0.05 0.1,-0.07l0.31 -0.21c0.02,-0.01 0.03,-0.03 0.05,-0.02 0.17,0.06 0.2,0.05 0.37,0.02l0 0.99c0,0.05 0.01,0.1 -0.03,0.11 -0.02,0 -0.11,-0.08 -0.12,-0.09 -0.04,-0.03 -0.08,-0.06 -0.11,-0.09l-0.68 -0.57zm1.35 -0.99l0 0.02c-0,0.01 -0.01,0.02 -0.03,0.03 -0.08,-0.01 -0.02,-0.05 -0.1,-0.19 -0.07,-0.13 -0.2,-0.22 -0.34,-0.25 -0.06,-0.01 -0.21,-0.01 -0.26,0.02 -0.17,0.04 -0.32,0.25 -0.32,0.45 -0,0.12 0.04,0.22 0.09,0.29 0.04,0.06 0.13,0.15 0.22,0.17 0.15,0.07 0.34,0.03 0.46,-0.05 0.06,-0.04 0.1,-0.09 0.14,-0.15 0.08,-0.12 0.04,-0.19 0.11,-0.19 0.02,0 0.01,0.01 0.03,0.02 0,0.14 -0.1,0.28 -0.2,0.37 -0.02,0.02 -0.09,0.06 -0.12,0.07l0 1.04c0,0.06 0.01,0.08 -0.02,0.13 -0.02,0.03 -0.05,0.05 -0.1,0.06 -0.27,0.01 -0.6,-0 -0.88,-0 -0.06,0 -0.1,0.01 -0.11,-0.04 0.01,-0.06 0.08,-0.04 0.19,-0.04 0.09,0 0.64,0 0.68,-0l-0.86 -0.72c-0.08,-0.06 -0.05,-0.07 -0.18,0.04l-0.81 0.67c0.04,0.01 0.7,0 0.81,0 0.05,-0 0.07,-0 0.08,0.04 -0.01,0.04 -0.03,0.04 -0.07,0.04l-0.74 -0c-0.11,0 -0.3,0.04 -0.31,-0.11l0 -0.42 0 -0.01 0 -0.01 0 -0.01 0 -0.01 0 -0.01 0 -0.01 0 -0.01 0 -0.01 0 -0.01 0 -0.01 0 -0.01 0 -0.01 0 -0.01 0 -0.01 0 -0.01 0 -0.01 0 -0.01 0 -0.01 0 -0.01 0 -0.01 0 -0.01 0 -0.01 0 -0.01 0 -0.01 0 -0.01 0 -0.01 0 -0.01 0 -0.01 0 -0.01 0 -0.01 0 -0.01 0 -0.01 0 -0.01 0 -0.01 0 -0.01 0 -0.01 0 -0.01 0 -0.01 0 -0.01 0 -0.01 0 -0.01 0 -0.01 0 -0.01 0 -0.01 0 -0.01 0 -0.01 0 -0.01 0 -0.01 0 -0.01 0 -0.01 0 -0.01 0 -0.01 0 -0.01 0 -0.01 0 -0.01 0 -0.01 0 -0.01 0 -0.01 0 -0.01 0 -0.01 0 -0.01 0 -0.01 0 -0.01 0 -0.01 0 -0.16c0,-0.11 0.04,-0.1 0.23,-0.24 0.04,-0.03 0.08,-0.06 0.12,-0.09 0,-0.13 -0.03,-0.26 0.06,-0.3 0.05,-0.03 0.28,-0.02 0.34,-0.02 0.03,0 0.03,0 0.05,-0.01 0.01,-0.01 0.02,-0.02 0.03,-0.02l0.1 -0.07c0.01,-0.01 0.02,-0.01 0.03,-0.02 0.15,-0.11 0.18,-0.16 0.31,-0.06l0.2 0.15c0.04,0.03 0.04,0.04 0.08,0.04 0.04,0 0.08,-0 0.12,-0 0.07,0 0.05,0 0.09,-0.03 0.19,-0.12 0.44,-0.13 0.64,0 0.01,0.01 0.02,0.02 0.04,0.03 0.05,0.04 0.04,0.03 0.09,0.09 0.05,0.06 0.1,0.16 0.12,0.24 0,0.01 0,0.02 0,0.03zm-2.51 1.71c-0.01,0.01 -0.02,0.03 -0.04,0.03 -0.03,-0.01 -0.03,-0.03 -0.03,-0.06l0 -0.98c0,-0.11 -0.01,-0.24 0,-0.35 0.03,0.01 0.05,0.03 0.07,0.05 0.09,0.07 0.85,0.57 0.87,0.59l-0.33 0.27c-0.04,0.03 -0.07,0.06 -0.11,0.09l-0.44 0.36zm0.71 -0.93c-0,-0 -0,-0 -0,-0l0.62 0c-0.01,0.02 -0.16,0.11 -0.18,0.12 -0.02,0.01 -0.04,0.03 -0.06,0.04 -0.04,-0.03 -0.11,-0.05 -0.15,-0l-0.23 -0.16zm-0.5 -0.67l-0 0.33c-0.02,-0.01 -0.2,-0.13 -0.21,-0.14l-0.06 -0.04c0.01,-0.02 0.04,-0.04 0.06,-0.05l0.21 -0.15 0 0.06zm0.15 0.42c-0.03,-0.01 -0.05,-0.03 -0.07,-0.04 -0,-0.1 -0.01,-0.72 0.01,-0.77l0.06 -0 1.16 0c-0.01,0.02 -0.03,0.05 -0.05,0.07 -0.01,0.02 -0.03,0.05 -0.04,0.08 -0.03,0.06 -0.04,0.11 -0.04,0.18 -0.24,0 -0.47,0 -0.71,0 -0.09,0 -0.2,-0.02 -0.19,0.04 0,0.04 0.04,0.04 0.08,0.04l0.81 0 0.03 0.14c-0.24,0 -0.49,0 -0.73,0 -0.09,0 -0.21,-0.02 -0.19,0.05 0.01,0.03 0.06,0.03 0.1,0.03l0.85 0c0.02,0.01 0.02,0.02 0.03,0.04l0.08 0.11c-0.06,-0.01 -0.73,-0 -0.85,-0 -0.05,0 -0.18,-0.01 -0.2,0.02 -0.01,0.02 -0.01,0.04 0,0.05 0.02,0.02 0.84,0.01 0.99,0.01 0.05,0 0.09,-0.01 0.07,-0.06 0.02,0.01 0.03,0.02 0.04,0.04 0.01,0.01 0.03,0.02 0.04,0.03 -0.01,0.02 -0.09,0.06 -0.12,0.08 -0.07,0.05 -0.05,0.05 -0.15,0.05 -0.09,0 -0.76,0.01 -0.79,-0 -0.01,-0 -0.1,-0.07 -0.12,-0.08 -0.02,-0.01 -0.11,-0.07 -0.11,-0.08zm0.7 -1.04c0.01,0 0.19,0.13 0.19,0.14 0.01,0.01 0.01,0 0.01,0.01l-0.49 -0c0.02,-0.02 0.04,-0.03 0.07,-0.05 0.02,-0.02 0.05,-0.03 0.07,-0.05 0.05,-0.04 0.1,-0.09 0.14,-0.06 0.01,0.01 0.01,0.01 0.01,0.01z"/>
   <path class="fil1" d="M0.5 1.15c0.01,0.01 0.09,0.07 0.11,0.08 0.02,0.01 0.11,0.07 0.12,0.08 0.03,0.01 0.7,0 0.79,0 0.1,0 0.08,-0 0.15,-0.05 0.02,-0.02 0.1,-0.06 0.12,-0.08 -0.01,-0.01 -0.03,-0.02 -0.04,-0.03 -0.02,-0.01 -0.03,-0.03 -0.04,-0.04 0.02,0.06 -0.02,0.06 -0.07,0.06 -0.16,-0 -0.97,0.01 -0.99,-0.01 -0.01,-0.01 -0.01,-0.04 -0,-0.05 0.02,-0.03 0.15,-0.02 0.2,-0.02 0.12,0 0.79,-0.01 0.85,0l-0.08 -0.11c-0.01,-0.02 -0.01,-0.03 -0.03,-0.04l-0.85 0c-0.03,0 -0.09,0.01 -0.1,-0.03 -0.02,-0.07 0.1,-0.05 0.19,-0.05 0.24,0 0.49,0 0.73,0l-0.03 -0.14 -0.81 -0c-0.04,0 -0.08,0 -0.08,-0.04 -0,-0.06 0.1,-0.04 0.19,-0.04 0.24,0 0.47,0 0.71,0 0.01,-0.07 0.02,-0.12 0.04,-0.18 0.01,-0.03 0.03,-0.05 0.04,-0.08 0.02,-0.02 0.03,-0.05 0.05,-0.07l-1.16 -0c0,0.14 0,0.27 0,0.41 0,0.07 -0.01,0.37 0,0.41z"/>
   <path class="fil2" d="M1.12 2.4l0.1 0c0.01,-0.06 0.08,-0.04 0.19,-0.04 0.09,0 0.64,0 0.68,-0l-0.86 -0.72c-0.08,-0.06 -0.05,-0.07 -0.18,0.04l-0.81 0.67c0.04,0.01 0.7,0 0.81,0 0.05,-0 0.07,-0 0.08,0.04z"/>
   <path class="fil3" d="M1.31 1.6l0.68 0.57c0.04,0.03 0.08,0.06 0.11,0.09 0.02,0.01 0.1,0.1 0.12,0.09 0.04,-0.02 0.03,-0.07 0.03,-0.11l-0 -0.99c-0.17,0.03 -0.2,0.04 -0.37,-0.02 -0.03,-0.01 -0.04,0.01 -0.05,0.02l-0.31 0.21c-0.03,0.02 -0.07,0.05 -0.1,0.07 -0.02,0.02 -0.09,0.05 -0.1,0.07z"/>
   <path class="fil3" d="M0.15 2.32l0.44 -0.36c0.03,-0.03 0.07,-0.06 0.11,-0.09l0.33 -0.27c-0.02,-0.02 -0.78,-0.52 -0.87,-0.59 -0.01,0 -0.01,-0 -0.01,0.03l0 1.26c0,0.01 -0,0.01 0.01,0.02z"/>
   <path class="fil4" d="M2.05 0.67c0.01,-0.01 0.02,-0.02 0.03,-0.04l0.07 -0.08c0.01,-0.02 0.02,-0.03 0.04,-0.04 0.13,-0.15 0.27,0.01 0.22,0.11 -0.01,0.01 -0.02,0.04 -0.03,0.05l-0.11 0.12c-0.09,0.09 -0.16,0.23 -0.27,0.16 -0.02,-0.01 -0.06,-0.05 -0.08,-0.07 -0.01,-0.01 -0.02,-0.03 -0.04,-0.04 -0.04,-0.04 -0.09,-0.07 -0.09,-0.14 0,-0.05 0.03,-0.08 0.06,-0.1 0.11,-0.06 0.16,0.03 0.21,0.07zm-0.12 -0.43l-0.01 0.01c-0,0 -0,0 -0,0l-0.09 0.07c-0.21,0.22 -0.21,0.55 -0.01,0.75 0.01,0.01 0.01,0.01 0.02,0.02l0.07 0.06c0,0 0,0 0.01,0.01 0.15,0.07 0.34,0.03 0.46,-0.05 0.06,-0.04 0.1,-0.09 0.14,-0.15 0.08,-0.12 0.04,-0.19 0.11,-0.19 0,-0.02 0,-0.02 0.01,-0.05 0,-0.02 -0,-0.04 -0,-0.06 -0.08,-0.01 -0.02,-0.05 -0.1,-0.19 -0.07,-0.13 -0.2,-0.22 -0.34,-0.25 -0.06,-0.01 -0.21,-0.01 -0.26,0.02z"/>
   <path class="fil0" d="M2.1 0.86c-0.03,0.08 -0.09,-0 -0.15,-0.06l-0.07 -0.07c-0.03,-0.03 -0.01,-0.07 0.03,-0.07 0.03,0.01 0.03,0.02 0.05,0.04 0.1,0.09 0.09,0.1 0.18,-0.01 0.01,-0.01 0.03,-0.03 0.04,-0.04 0.01,-0.02 0.03,-0.03 0.04,-0.05 0.01,-0.02 0.03,-0.03 0.04,-0.05 0.05,-0.06 0.1,-0.01 0.08,0.03l-0.08 0.09c-0.01,0.01 -0.14,0.17 -0.16,0.18zm-0.05 -0.18c-0.05,-0.04 -0.1,-0.13 -0.21,-0.07 -0.03,0.02 -0.06,0.05 -0.06,0.1 -0,0.06 0.05,0.1 0.09,0.14 0.01,0.01 0.02,0.03 0.04,0.04 0.02,0.02 0.06,0.06 0.08,0.07 0.11,0.07 0.18,-0.07 0.27,-0.16l0.11 -0.12c0.01,-0.01 0.03,-0.03 0.03,-0.05 0.05,-0.1 -0.09,-0.26 -0.22,-0.11 -0.01,0.01 -0.02,0.03 -0.04,0.04l-0.07 0.08c-0.01,0.02 -0.02,0.03 -0.03,0.04z"/>
   <path class="fil5" d="M0.15 2.32c-0.01,-0.01 -0,-0 -0.01,-0.02l-0 -1.26c0,-0.04 0.01,-0.03 0.01,-0.03 -0.02,-0.02 -0.05,-0.03 -0.07,-0.05 -0.01,0.11 -0,0.24 -0,0.35l-0 0.98c0,0.04 0,0.05 0.03,0.06 0.02,-0.01 0.03,-0.02 0.04,-0.03z"/>
   <path class="fil6" d="M1.09 1.54c0.04,-0.05 0.11,-0.03 0.15,0 0.02,-0.01 0.04,-0.03 0.06,-0.04 0.02,-0.01 0.16,-0.11 0.18,-0.12l-0.62 -0c0,0 0,0 0,0l0.23 0.16z"/>
   <path class="fil1" d="M0.5 1.15c-0.01,-0.04 -0,-0.34 -0,-0.41 0,-0.14 0,-0.27 0,-0.41l-0.06 0c-0.02,0.05 -0.01,0.67 -0.01,0.77 0.02,0.01 0.04,0.03 0.07,0.04z"/>
   <path class="fil7" d="M1.92 1.15c-0,-0 -0,-0 -0.01,-0.01l-0.07 -0.06c-0.01,-0.01 -0.01,-0.01 -0.02,-0.02 -0.2,-0.2 -0.21,-0.53 0.01,-0.75l0.09 -0.07c0,-0 0,-0 0,-0l0.01 -0.01c-0.17,0.04 -0.32,0.25 -0.32,0.45 -0,0.12 0.04,0.22 0.09,0.29 0.04,0.06 0.13,0.15 0.22,0.17z"/>
   <path class="fil5" d="M0.15 0.91c0.01,0.01 0.19,0.13 0.21,0.14l0 -0.33 -0.12 0.08c-0.04,0.03 -0.09,0.05 -0.09,0.11z"/>
   <path class="fil1" d="M1.91 0.66c0.01,0.06 0.07,0.09 0.11,0.13 0.02,0.02 0.05,0.07 0.08,0.06 0.02,-0.01 0.15,-0.17 0.16,-0.18l0.08 -0.09c0.02,-0.04 -0.03,-0.09 -0.08,-0.03 -0.01,0.01 -0.03,0.03 -0.04,0.05 -0.01,0.02 -0.03,0.03 -0.04,0.05 -0.01,0.02 -0.03,0.03 -0.04,0.04 -0.1,0.11 -0.08,0.1 -0.18,0.01 -0.02,-0.02 -0.02,-0.03 -0.05,-0.04z"/>
   <path class="fil5" d="M1.4 0.24c-0,-0.01 -0.18,-0.14 -0.19,-0.14 -0.03,0.01 -0.12,0.08 -0.15,0.1 -0.02,0.01 -0.03,0.03 -0.05,0.04l0.39 -0z"/>
   <path class="fil8" d="M1.4 0.24l-0.39 0c0.02,-0.01 0.03,-0.02 0.05,-0.04 0.04,-0.02 0.12,-0.09 0.15,-0.1 -0,-0 -0,-0.01 -0.01,-0.01 -0.04,-0.02 -0.08,0.02 -0.14,0.06 -0.02,0.02 -0.05,0.03 -0.07,0.05 -0.02,0.02 -0.05,0.03 -0.07,0.05l0.49 0c-0.01,-0.01 -0,-0 -0.01,-0.01z"/>
   <path class="fil1" d="M2.1 0.86c-0.03,0 -0.06,-0.05 -0.08,-0.06 -0.04,-0.05 -0.1,-0.08 -0.11,-0.13 -0.04,-0 -0.06,0.04 -0.03,0.07l0.07 0.07c0.06,0.06 0.12,0.13 0.15,0.06z"/>
   <path class="fil9" d="M0.15 0.91c-0,-0.05 0.05,-0.07 0.09,-0.11l0.12 -0.08 -0 -0.06 -0.21 0.15c-0.02,0.01 -0.06,0.04 -0.06,0.05l0.06 0.04z"/>
  </g>
 </g>
</svg>
