<?xml version="1.0" encoding="UTF-8"?>
<!DOCTYPE svg PUBLIC "-//W3C//DTD SVG 1.1//EN" "http://www.w3.org/Graphics/SVG/1.1/DTD/svg11.dtd">
<!-- Creator: CorelDRAW 2020 (64-Bit) -->
<svg xmlns="http://www.w3.org/2000/svg" xml:space="preserve" width="249.319mm" height="241.004mm" version="1.1" style="shape-rendering:geometricPrecision; text-rendering:geometricPrecision; image-rendering:optimizeQuality; fill-rule:evenodd; clip-rule:evenodd"
viewBox="0 0 306.08 295.87"
 xmlns:xlink="http://www.w3.org/1999/xlink"
 xmlns:xodm="http://www.corel.com/coreldraw/odm/2003">
 <defs>
  <style type="text/css">
   <![CDATA[
    .fil2 {fill:black}
    .fil3 {fill:#0593FC}
    .fil6 {fill:#1975D0}
    .fil1 {fill:#26A5FD}
    .fil8 {fill:#3A653B}
    .fil7 {fill:#62BF62}
    .fil5 {fill:#75CC77}
    .fil9 {fill:#E04646}
    .fil4 {fill:#EE5250}
    .fil0 {fill:url(#id0)}
   ]]>
  </style>
  <linearGradient id="id0" gradientUnits="userSpaceOnUse" x1="159.66" y1="0.14" x2="146.42" y2="295.73">
   <stop offset="0" style="stop-opacity:1; stop-color:#2196F3"/>
   <stop offset="0.658824" style="stop-opacity:1; stop-color:#1170BD"/>
   <stop offset="1" style="stop-opacity:1; stop-color:#004A87"/>
  </linearGradient>
 </defs>
 <g id="Capa_x0020_1">
  <metadata id="CorelCorpID_0Corel-Layer"/>
  <path class="fil0" d="M29.65 0l246.78 0c16.31,0 29.65,13.39 29.65,29.65l0 236.57c0,16.26 -13.39,29.65 -29.65,29.65l-246.78 0c-16.26,0 -29.65,-13.34 -29.65,-29.65l0 -236.57c0,-16.31 13.34,-29.65 29.65,-29.65z"/>
  <g id="_2032640964112">
   <path class="fil1" d="M46.39 62.5c0.56,9.47 -13.14,33.66 5.27,60.73 6.33,9.31 47.78,49.3 58.89,60.41 11.14,11.14 50.95,52.41 60.44,58.88 11.46,7.82 26.89,10.98 37.84,9.31 5.22,-0.8 20.75,-4.16 22.87,-4.03 2.52,-0.32 9.38,-5.33 11.85,-7.46l-43.6 -43.59c-4.3,1.16 -8.71,4.47 -12.82,6.08 -13.12,5.15 -23.78,-4.79 -31.95,-14.17 -3.15,-3.62 -1.21,-3.42 -0.57,-6.49l-6.51 -6.93c-4.61,3.53 -6.69,-0.34 -10.65,-4.3l-33.11 -33.11c-8.28,-8.28 -19.44,-17.54 -12.07,-32.74 1.31,-2.69 5.23,-8.59 4.79,-11.23l-43.21 -43.21c-2.16,2.51 -7.16,9.2 -7.46,11.85z"/>
   <path class="fil2" d="M206.81 191.79c3.15,-4.05 9.83,-4.9 13.42,-4.73 9.83,0.49 18.94,12.16 27.25,20.47 8.5,8.5 8.4,21.15 1.9,26.82l-42.57 -42.57zm-159 -147.24l4.81 -4.81c4.43,-3.81 9.61,-6.64 15.47,-7.35 8.22,-1.01 16.87,0.97 23.28,7.23 3.16,3.09 4.13,4.42 1.88,7.45 -5.34,3.92 -9.18,-4.57 -16.89,-6.39 -4.09,-0.96 -12.15,-0.87 -16.5,4.09l42.54 42.6c5.45,-4.25 5.01,-12.43 4.13,-16.58 -2.31,-10.89 -11.01,-10.04 -6.36,-16.8 3.09,-2.79 4.9,-0.77 8.16,2.6 6.05,6.28 8,15.71 6.61,23.66 -2.09,11.85 -13.24,19.13 -16.09,31.54 -1.46,6.34 1.28,9.97 7.48,16.16l31.54 31.54c6.77,6.77 13.91,11.55 10.23,15.75 -4.61,3.53 -6.69,-0.34 -10.65,-4.3l-33.11 -33.11c-8.28,-8.28 -19.44,-17.54 -12.07,-32.74 1.31,-2.69 5.23,-8.59 4.79,-11.23l-43.21 -43.21c-2.16,2.51 -7.16,9.2 -7.46,11.85 -3.34,5.35 -7.4,25.42 -7.9,31.55 -2.43,30.25 15.62,42.99 35.6,62.98l62.68 62.68c20.93,20.93 32.42,37.86 62.98,36.01 6.02,-0.36 26.68,-4.6 31.94,-7.92 2.52,-0.32 9.38,-5.33 11.85,-7.46l-43.6 -43.59c-4.3,1.16 -8.71,4.47 -12.82,6.08 -13.12,5.15 -23.78,-4.79 -31.95,-14.17 -3.15,-3.62 -1.21,-3.42 -0.57,-6.49 4.09,-1.74 4.08,-1.95 8.09,2.13 7.05,7.19 12.29,14.77 23.26,9.78 2.7,-1.23 5.36,-2.71 7.88,-3.94 7.35,-3.6 18.87,-18.69 38.63,-8.09 5.18,2.78 10.55,9.27 15.37,14.1 9.58,9.58 16.62,15.32 14.32,30.75 -0.74,4.96 -3.48,9.79 -7.11,14.07l-5.9 5.9c-3.7,3.18 -7.66,5.78 -11.16,7.53 -10.88,5.44 -26.65,8.95 -38.63,9.77 -10.59,0.72 -21.02,-0.84 -30.75,-5.63 -2.7,-1.33 -5.13,-2.72 -7.49,-4.24 -9.51,-6.11 -66.15,-64.39 -77.26,-75.5 -8.97,-8.97 -38.68,-37.26 -44.47,-46.52 -3.08,-4.93 -5.86,-10.55 -7.03,-15.37 -0.71,-2.94 -1.39,-4.91 -1.85,-7.88 -0.22,-1.42 -0.38,-2.47 -0.46,-3.94 -0.45,-8.19 -0.58,-10.43 1.13,-19.32 2,-10.41 3.51,-20.45 9.31,-30.75 1.95,-3.47 4.41,-7.13 7.32,-10.47z"/>
   <path class="fil2" d="M263.28 79.31c0.94,3.2 0.24,6.8 0.33,10.04l-5.89 -5.56c-4.54,-1.19 -5.58,1.3 -9.24,4.98l-66.1 66.07 -6.43 -6.18 66.2 -66.22c3.63,-3.62 6.43,-4.87 4.95,-9.31l-5.52 -5.79 9.94 0.35 12.13 -0.29c-0.05,2.42 -0.03,3.98 -0.03,6.16 0,1.11 0.02,1.64 0.02,2.77 0.01,1.65 0.15,1.73 -0.35,2.99zm-34.75 -12.85l8.67 8.67 -69.38 69.38c-1.77,1.77 -3.2,4.69 -1.58,6.31l13.8 13.8c1.28,1.28 4.08,0.65 5.52,-0.79l70.17 -70.17c5.15,5.15 11.07,13.37 14.98,9.46 2.22,-2.22 1.38,-7.93 1.38,-10.64 0,-37.15 3.21,-33.7 -13.21,-33.7l-24.83 -0.01c-9.86,-0.1 -7.01,6.21 -5.52,7.7z"/>
   <path class="fil2" d="M210.08 35.39c2.49,0.63 2.62,1.75 5.14,-0.08l9.76 -9.41c2.41,1.53 5.2,4.13 6.57,6.73l-71.23 71.31c-1.35,2.48 -0.75,3.54 1.59,5.95l3.66 3.75c-2.39,0.64 -19.8,0.67 -22.14,0.02 0.13,-4.4 -0.57,-18.79 0.43,-21.8l3.72 3.69c2.89,2.82 4.71,3.07 7.78,0.27 9,-8.22 28.51,-28.54 38.25,-38.28 7.38,-7.38 13.09,-10.68 9.62,-15.46 -4.29,-4.24 -8.13,1.82 -12.54,6.23l-39.03 39.03c-4.2,-4.2 -10.16,-12.43 -14.58,-10.03 -3.32,1.81 -2.18,10.47 -2.18,13.97 -0,4.46 -0.86,26.85 1.03,29.23 2.43,3.06 9.4,2.11 14.54,2.11 4.55,0 26.63,1.22 28.9,-1.77 1.96,-2.59 0.89,-4.94 -1.66,-7.49 -2.5,-2.5 -5.03,-4.99 -7.53,-7.49 5.43,-5.43 68.7,-68.09 70.39,-70.56 1.71,-2.5 1.42,-4.31 -1.36,-7.1 -14.97,-14.96 -13.04,-15.41 -21.33,-7.1 -6.54,6.56 -11.26,8.95 -7.8,14.27z"/>
   <path class="fil3" d="M231.69 247.8c-2.12,-0.12 -17.65,3.23 -22.87,4.03 -10.95,1.68 -26.38,-1.49 -37.84,-9.31 -9.49,-6.48 -49.29,-47.74 -60.44,-58.88 -11.11,-11.11 -52.55,-51.1 -58.89,-60.41 -18.41,-27.07 -4.71,-51.27 -5.27,-60.73 -3.34,5.35 -7.4,25.42 -7.9,31.55 -2.43,30.25 15.62,42.99 35.6,62.98l62.68 62.68c20.93,20.93 32.42,37.86 62.98,36.01 6.02,-0.36 26.68,-4.6 31.94,-7.92z"/>
   <path class="fil4" d="M247.08 73.12c1.48,4.44 -1.31,5.69 -4.95,9.31l-66.2 66.22 6.43 6.18 66.1 -66.07c3.67,-3.68 4.71,-6.17 9.24,-4.98l5.56 -4.47c0.5,-1.26 0.36,-1.34 0.35,-2.99 -0.01,-1.13 -0.02,-1.66 -0.02,-2.77 -0,-2.17 -0.02,-3.73 0.03,-6.16l-12.13 0.29c-2.46,1.35 -4.09,2.88 -4.42,5.44z"/>
   <path class="fil5" d="M161.9 109.9c-2.34,-2.41 -2.94,-3.47 -1.59,-5.95 0.13,-0.52 -0.46,-0.33 1.53,-2.43 0.73,-0.77 1.64,-1.6 2.41,-2.37l66.83 -66.83 -5.97 -5.97c-2.43,2.46 -6.78,8.1 -9.89,8.96 -2.52,1.82 -2.65,0.71 -5.14,0.08l-6.85 6.69c3.47,4.77 -2.24,8.08 -9.62,15.46 -9.74,9.74 -29.26,30.06 -38.25,38.28 -3.07,2.8 -4.88,2.55 -7.78,-0.27l-0.29 14.31 14.62 0.03z"/>
   <path class="fil6" d="M100.17 53.99l-6.92 -6.92c-5.34,3.92 -9.18,-4.57 -16.89,-6.39 -4.09,-0.96 -12.15,-0.87 -16.5,4.09l42.54 42.6c5.45,-4.25 5.01,-12.43 4.13,-16.58 -2.31,-10.89 -11.01,-10.04 -6.36,-16.8z"/>
   <path class="fil6" d="M249.39 234.36c6.5,-5.66 6.6,-18.32 -1.9,-26.82 -8.31,-8.31 -17.41,-19.98 -27.25,-20.47 -3.6,-0.18 -10.28,0.68 -13.42,4.73l42.57 42.57z"/>
   <path class="fil7" d="M161.9 109.9l-14.62 -0.03 0.29 -14.31 -3.72 -3.69c-1.01,3.02 -0.31,17.41 -0.43,21.8 2.34,0.65 19.75,0.62 22.14,-0.02l-3.66 -3.75z"/>
   <path class="fil8" d="M160.31 103.95l71.23 -71.31c-1.36,-2.61 -4.16,-5.2 -6.57,-6.73l-9.76 9.41c3.11,-0.86 7.46,-6.5 9.89,-8.96l5.97 5.97 -66.83 66.83c-0.77,0.77 -1.68,1.59 -2.41,2.37 -1.99,2.1 -1.4,1.91 -1.53,2.43z"/>
   <path class="fil9" d="M263.28 79.31l-5.56 4.47 5.89 5.56c-0.09,-3.24 0.61,-6.84 -0.33,-10.04z"/>
   <path class="fil9" d="M247.08 73.12c0.34,-2.55 1.96,-4.09 4.42,-5.44l-9.94 -0.35 5.52 5.79z"/>
  </g>
 </g>
</svg>
