<?xml version="1.0" encoding="UTF-8"?>
<!DOCTYPE svg PUBLIC "-//W3C//DTD SVG 1.1//EN" "http://www.w3.org/Graphics/SVG/1.1/DTD/svg11.dtd">
<!-- Creator: CorelDRAW 2020 (64-Bit) -->
<svg xmlns="http://www.w3.org/2000/svg" xml:space="preserve" width="304.411mm" height="304.54mm" version="1.1" style="shape-rendering:geometricPrecision; text-rendering:geometricPrecision; image-rendering:optimizeQuality; fill-rule:evenodd; clip-rule:evenodd"
viewBox="0 0 342.89 343.03"
 xmlns:xlink="http://www.w3.org/1999/xlink"
 xmlns:xodm="http://www.corel.com/coreldraw/odm/2003">
 <defs>
  <style type="text/css">
   <![CDATA[
    .fil0 {fill:black}
    .fil5 {fill:#0AB59E}
    .fil3 {fill:#0DD0B2}
    .fil6 {fill:#B9ACAC}
    .fil7 {fill:#C57A44}
    .fil2 {fill:#D68954}
    .fil1 {fill:#F2E9E5}
    .fil8 {fill:#FDD1A4}
    .fil4 {fill:#FEE4C1}
   ]]>
  </style>
 </defs>
 <g id="Capa_x0020_1">
  <metadata id="CorelCorpID_0Corel-Layer"/>
  <g id="_2032293095392">
   <path class="fil0" d="M229.14 237.27c-2.27,-1.24 -14.33,-14.02 -16.95,-16.64 -5.62,-5.63 -10.79,-10.78 -16.41,-16.41l-65.99 -66c-30.32,-30.14 -26.97,-22.59 -16.25,-34.21l125.47 125.75c-2.12,2.28 -5.76,7.38 -9.87,7.51zm67.79 -237.27l8.75 0c37.41,3.79 57.11,56.1 7.79,93.04 -6.4,4.8 -6.78,5.02 -11.35,2.1 -2.15,-6.43 1.33,-7.55 5.1,-10.35 35.6,-26.47 31.09,-65.88 2.97,-73.15 -14.9,-5.27 -31.52,4.49 -39.84,11.51 -29.2,24.62 -24.89,60.24 -60.3,77.72 -3.24,1.6 -6.34,2.88 -10.09,3.96 -3.23,0.92 -8.56,1.39 -10.8,3.05 2.04,3.07 31.95,32.95 34.28,34.41l11.52 11.86c0.12,-0.14 0.28,-0.55 0.32,-0.45 0.04,0.1 0.24,-0.34 0.3,-0.45l1.26 -4.19c0.42,-2.05 0.86,-4.01 1.43,-5.91 7.07,-23.35 21.27,-32.76 41.69,-43.44 5.61,-2.93 5.59,-1.91 9.46,1.22 0,8.72 -3.47,6.28 -18.22,15.52 -6.75,4.23 -12.62,9.16 -16.84,15.99 -5.19,8.41 -6.25,13.78 -8.78,24.73 -1.89,8.2 -0.58,6.45 11.85,18.88 12.31,12.3 27.67,22.53 23.14,41.56 -2.09,8.79 -8.39,13.7 -14.09,19.41 -11.05,11.06 -12.52,5.58 -20.6,0.17 -6.13,9.16 -16.98,15.01 -25.64,6.21l-120.94 -120.93c-3.62,-3.57 -5.17,-9.09 -2.85,-14.61 1.46,-3.47 6.43,-8.71 9.4,-10.7 -5.45,-8.14 -11.25,-9.18 1.51,-21.94 6.48,-6.48 10.23,-11.46 21.53,-13.32 5.31,-0.88 11.06,0.91 14.49,2.43 6.7,2.96 21.19,18.86 27.3,24.96 10.88,10.88 6.77,10.51 23.49,6.41 11.61,-2.85 15.04,-5.94 22.91,-11.93 2.52,-1.92 2.23,-2.12 4.22,-4.49 19.39,-23.07 15.27,-42.69 46.59,-67.31 2.84,-2.23 7.49,-4.99 10.81,-6.61 6.27,-3.07 12.4,-4.78 18.23,-5.34zm-169.67 72.89c11.86,-4.23 21.35,8.8 25.79,13.25l99.48 99.5c5.68,5.68 16.49,14.83 18.05,21.52 2.43,10.43 -7.33,20.53 -13.88,25.15 -2.07,-1.42 -4.11,-3.34 -5.34,-5.59 -1.83,-0.79 -3.04,-2.46 -4.83,-4.26l-13.06 -13.06c-14.34,-14.31 -117.16,-116.03 -122.7,-122.88 3.34,-3.76 10.29,-11.78 16.5,-13.63z"/>
   <path class="fil1" d="M80.63 262.8c2.65,-3.7 9.58,-9.86 13.23,-13.5 4.49,-4.47 8.74,-9.23 13.33,-13.46 3.47,-3.2 7.88,-1.45 8.51,2.23 0.66,3.86 -3.09,6.34 -4.86,8.11 -4.75,4.73 -8.99,8.99 -13.73,13.74 -4.55,4.55 -8.7,9.06 -13.36,13.46 -5.22,4.93 -9.41,-1.64 -15.29,-7.52 -1.64,-1.64 -5.57,-5.14 -6.67,-6.76 -2.5,-3.71 -0.46,-7.81 3.37,-8.17 5.16,-0.49 10.76,9.64 15.47,11.88zm-18.85 -54.22c-3.39,1.59 -9.46,5.97 -10.82,8.38 2.1,4.1 1.37,5.48 -1.01,8.53 -22.05,28.25 -5.7,72.07 32.15,77.08 14.29,1.89 27.72,-3.15 36.11,-10.15 32.98,-27.55 18.49,-75.83 -19.01,-84.72 -6.69,-1.59 -14.3,-1.66 -20.99,-0.26 -11.59,2.43 -9.93,6.28 -16.43,1.14z"/>
   <path class="fil2" d="M223.44 142.28c6.19,-35.53 44.32,-43.07 62.69,-55.15 12.06,-7.93 21.49,-17.81 27.81,-30.51 12.67,-25.44 -1.77,-39.4 -3.76,-44.99 -14.9,-5.27 -31.52,4.49 -39.84,11.51 -29.2,24.62 -24.89,60.24 -60.3,77.72 -3.24,1.6 -6.34,2.88 -10.09,3.96 -3.23,0.92 -8.56,1.39 -10.8,3.05 2.04,3.07 31.95,32.95 34.28,34.41z"/>
   <path class="fil0" d="M144.31 201.09c5.75,3.27 12.89,16.35 15.73,22.77 27.94,63.29 -37.46,130.77 -102.59,102.59 -7.71,-3.33 -19.93,-10.63 -23.04,-16.04 -4.54,-1.84 -13.7,-15.41 -16.87,-22.41 -4.25,-9.37 -7.23,-20.3 -7.39,-32.04 -0.76,-57.23 57.51,-96.34 111.4,-71.98 6.91,3.13 21.24,12.84 22.77,17.11zm-144.31 50.15c0,21.14 2.47,30.58 11.83,47.8 4.33,7.96 8.03,11.92 14.13,18.03 6.64,6.64 9.83,9.19 17.62,13.87 2.35,1.41 4.1,2.6 6.94,3.78 16.14,6.64 22.04,8.32 40.59,8.32 12.51,0 26.55,-4.19 35.07,-8.48 30.38,-15.31 50.69,-44.64 50.69,-79.96 0,-19.54 -8.49,-42.95 -20.61,-56.44 -7.43,-8.26 -7.56,-8.67 -17.47,-16.03 -3.99,-2.96 -9.43,-5.84 -14.16,-7.95 -5.28,-2.35 -9.86,-4.18 -16.47,-5.64 -58.93,-12.96 -108.16,33.71 -108.16,82.7z"/>
   <path class="fil3" d="M34.41 310.42c6.86,4.12 20.13,6.7 29.21,7.17 7.29,0.38 26.95,-0.7 31.33,-4.94 -29.48,3.6 -50.69,-14.69 -59.33,-32.7 -5.55,-11.58 -7.48,-25.5 -4,-39.31 1.56,-6.19 3.61,-11.15 6.68,-16.05 4.88,-7.81 5.97,-10.7 12.66,-7.62 1.35,-2.41 7.43,-6.79 10.82,-8.38 -1.22,-7.51 4.1,-8.22 10.21,-9.95 5.89,-1.67 11.41,-2.45 17.81,-2.29 21.54,0.54 38.92,12.13 49.28,29.73 8.27,14.03 5.92,21.69 7.9,32.14l0.37 2.3c6.08,-22.05 5.31,-39.07 -3.04,-59.41 -1.53,-4.27 -15.86,-13.99 -22.77,-17.11 -53.89,-24.36 -112.16,14.75 -111.4,71.98 0.16,11.74 3.14,22.68 7.39,32.04 3.18,7.01 12.34,20.57 16.87,22.41z"/>
   <path class="fil4" d="M251.36 226.72c1.39,0.04 1.45,0.98 4.05,-4.18 8.85,-17.6 -8.15,-28.85 -18.92,-39.62l-104.85 -104.85c-2,-1.99 -3.48,-2.94 -4.37,-5.18 -6.21,1.86 -13.15,9.87 -16.5,13.63 5.55,6.84 108.36,108.57 122.7,122.88l13.06 13.06c1.79,1.8 3,3.47 4.83,4.26z"/>
   <path class="fil0" d="M61.78 208.58c6.5,5.15 4.83,1.29 16.43,-1.14 6.69,-1.4 14.3,-1.33 20.99,0.26 37.5,8.88 51.99,57.17 19.01,84.72 -8.39,7 -21.82,12.04 -36.11,10.15 -37.85,-5.01 -54.2,-48.83 -32.15,-77.08 2.39,-3.06 3.11,-4.44 1.01,-8.53 -6.68,-3.08 -7.78,-0.19 -12.66,7.62 -3.06,4.91 -5.12,9.86 -6.68,16.05 -3.48,13.82 -1.56,27.73 4,39.31 8.64,18.01 29.85,36.31 59.33,32.7 8.23,-1.18 13.29,-2.69 19.97,-6.09 10.9,-5.54 21.05,-15.44 26.32,-27.27 4.61,-10.35 4.4,-19.06 5.73,-21.08 -1.98,-10.45 0.37,-18.11 -7.9,-32.14 -10.37,-17.59 -27.75,-29.19 -49.28,-29.73 -6.4,-0.16 -11.92,0.62 -17.81,2.29 -6.11,1.74 -11.44,2.44 -10.21,9.95z"/>
   <path class="fil5" d="M146.98 258.2c-1.34,2.02 -1.12,10.73 -5.73,21.08 -5.27,11.83 -15.43,21.73 -26.32,27.27 -6.68,3.4 -11.74,4.91 -19.97,6.09 -4.38,4.24 -24.05,5.32 -31.33,4.94 -9.09,-0.47 -22.36,-3.05 -29.21,-7.17 3.11,5.41 15.34,12.71 23.04,16.04 65.13,28.18 130.53,-39.3 102.59,-102.59 -2.84,-6.43 -9.98,-19.5 -15.73,-22.77 8.34,20.34 9.12,37.35 3.04,59.41l-0.37 -2.3z"/>
   <path class="fil6" d="M229.14 237.27c4.1,-0.13 7.75,-5.24 9.87,-7.51l-125.47 -125.75c-10.72,11.63 -14.07,4.07 16.25,34.21l65.99 66c5.62,5.63 10.79,10.78 16.41,16.41 2.62,2.62 14.68,15.41 16.95,16.64z"/>
   <path class="fil7" d="M223.44 142.28l11.52 11.86c0.12,-0.14 0.28,-0.55 0.32,-0.45 0.04,0.1 0.24,-0.34 0.3,-0.45l1.26 -4.19c0.42,-2.05 0.86,-4.01 1.43,-5.91 7.07,-23.35 21.27,-32.76 41.69,-43.44 5.61,-2.93 5.59,-1.91 9.46,1.22 3.19,-1.44 9.86,-5.1 12.68,-5.78 -2.15,-6.43 1.33,-7.55 5.1,-10.35 35.6,-26.47 31.09,-65.88 2.97,-73.15 1.99,5.59 16.43,19.56 3.76,44.99 -6.33,12.7 -15.75,22.58 -27.81,30.51 -18.37,12.07 -56.5,19.62 -62.69,55.15z"/>
   <path class="fil8" d="M251.36 226.72c1.23,2.25 3.27,4.18 5.34,5.59 6.56,-4.62 16.32,-14.71 13.88,-25.15 -1.56,-6.69 -12.38,-15.85 -18.05,-21.52l-99.48 -99.5c-4.43,-4.45 -13.93,-17.49 -25.79,-13.25 0.89,2.25 2.38,3.2 4.37,5.18l104.85 104.85c10.77,10.77 27.77,22.02 18.92,39.62 -2.59,5.16 -2.66,4.21 -4.05,4.18z"/>
   <path class="fil0" d="M80.63 262.8c-4.71,-2.24 -10.3,-12.37 -15.47,-11.88 -3.83,0.36 -5.87,4.47 -3.37,8.17 1.1,1.63 5.03,5.13 6.67,6.76 5.88,5.88 10.07,12.45 15.29,7.52 4.66,-4.4 8.81,-8.91 13.36,-13.46 4.74,-4.75 8.98,-9 13.73,-13.74 1.78,-1.77 5.53,-4.25 4.86,-8.11 -0.63,-3.68 -5.03,-5.43 -8.51,-2.23 -4.59,4.23 -8.85,8.99 -13.33,13.46 -3.65,3.64 -10.58,9.8 -13.23,13.5z"/>
  </g>
 </g>
</svg>
