<?xml version="1.0" encoding="UTF-8"?>
<!DOCTYPE svg PUBLIC "-//W3C//DTD SVG 1.1//EN" "http://www.w3.org/Graphics/SVG/1.1/DTD/svg11.dtd">
<!-- Creator: CorelDRAW 2020 (64-Bit) -->
<svg xmlns="http://www.w3.org/2000/svg" xml:space="preserve" width="160.331mm" height="150.203mm" version="1.1" style="shape-rendering:geometricPrecision; text-rendering:geometricPrecision; image-rendering:optimizeQuality; fill-rule:evenodd; clip-rule:evenodd"
viewBox="0 0 111.01 104"
 xmlns:xlink="http://www.w3.org/1999/xlink"
 xmlns:xodm="http://www.corel.com/coreldraw/odm/2003">
 <defs>
  <style type="text/css">
   <![CDATA[
    .fil1 {fill:black}
    .fil4 {fill:#148CE0}
    .fil5 {fill:#222124}
    .fil0 {fill:#38C2FC}
    .fil3 {fill:#8B94A3}
    .fil7 {fill:#FEC108}
    .fil6 {fill:#FEDE00}
    .fil2 {fill:white}
   ]]>
  </style>
 </defs>
 <g id="Capa_x0020_1">
  <metadata id="CorelCorpID_0Corel-Layer"/>
  <g id="_1753002542784">
   <g>
    <path class="fil0" d="M37.43 60.46l2.88 0 0 2.88 -2.88 0 -0 -2.88zm-5.75 0l2.86 0 0 2.88 -2.88 0 0.01 -2.88zm-5.75 0l2.86 0 -0.01 2.88 -2.87 0 0.02 -2.88zm20.1 2.87l-2.85 0 -0.03 -2.86c-0.58,-0.36 -9.24,-2.06 -10.65,-2.34 -3.89,-0.78 -8.46,-0.4 -12.64,-0.4 -0.38,-0.21 -0.35,0.01 -0.14,-0.33 2.83,-2.77 5.49,-5.48 8.29,-8.28 1.47,-1.47 3.64,-3.11 3.66,-4.48l-0.01 -16.57c0,-2.88 -0.36,-5.23 1.54,-6.88 1.66,-1.44 4.79,-1.03 7.41,-1.03 2.65,0 5.67,0.13 8.28,-0.02l0.05 -5.68 -45.81 0 -0.35 56.08 46.02 0c0.15,-0.9 0.11,-7.82 -0.02,-8.99l-2.57 -0.53 -0.13 2.18c-0.01,0.03 -0.03,0.09 -0.05,0.14z"/>
    <path class="fil1" d="M2.96 77.73l45.98 0.04c0,1.81 0.27,4.81 -0.5,6.23 -0.78,1.45 -2.02,2.36 -4.35,2.36l-36.43 0c-3.04,0 -4.79,-1.75 -4.79,-4.79l0.08 -3.85zm4.82 -77.73l34.05 0 2.73 0c1.48,0.04 2.61,0.24 3.89,1.05 1.56,0.98 2.66,2.51 3.17,4.32 0.65,2.31 0.32,11.29 0.32,14.67 9.53,0 19.06,0 28.59,0 2.33,0 4.96,-0.24 6.51,0.64 2.02,1.14 2.19,2.61 2.2,4.29l0 21.92 0 6.79c-0.31,1.95 -1.23,3.43 -3.65,3.85 -2.31,0.4 -31.33,0.17 -35.24,0.17 -0.77,-0.36 -13.27,-0.12 -15.31,-0.12 -2.06,0 -14.51,0.29 -15.3,-0.18 2.83,-2.77 5.49,-5.48 8.29,-8.28 1.47,-1.47 3.64,-3.11 3.66,-4.48l-0.01 -16.57c0,-2.88 -0.36,-5.23 1.54,-6.88 1.66,-1.44 4.79,-1.03 7.41,-1.03 2.65,0 5.67,0.13 8.28,-0.02l0.05 -5.68 -45.81 0c-0.32,0.35 -0.3,-0.01 -0.28,1.58 0.15,9.04 0.01,19.34 0.01,28.41 0,10.09 0.02,20.18 0.02,30.27 0.54,0.18 43.39,0.39 46.06,0.08l0.03 -14.34c0.18,-0 0.51,0.02 0.71,0.01l0.72 -0.15c0.51,0.27 0.79,0.17 1.54,0.17 0,5.05 0,10.11 0,15.16 0,5.65 0.74,9.08 -3,12.16 -1.7,1.4 -3.1,1.43 -5.96,1.43l-0.14 0 -0.14 0 -22.48 0 -13.42 0c-0.68,-0.05 -1.2,-0.13 -1.51,-0.23 -2.09,-0.7 -3.27,-1.6 -4.32,-3.35 -0.68,-1.12 -0.9,-2.06 -0.97,-3.18l0 -3.35 0 -68.15 0 -4.07c0.07,-0.99 0.24,-1.93 0.65,-2.78 1.4,-2.95 3.93,-4.13 7.14,-4.13zm26.05 47.44c0.81,-0.78 0.72,-0.62 0.71,-2.11l-0 -17.08c0,-6.28 -0.29,-5.21 6.07,-5.21l34.34 0c1.85,0 9.98,-0.39 10.91,0.39 0.86,0.73 0.51,4.02 0.51,5.34l0 17.08c0,7.89 0.83,8.88 -2.69,8.86l-57.04 -0 7.22 -7.26zm-30.96 -35.92c0,-2.38 -0.42,-5.51 1.03,-7.09 1.76,-1.91 3.27,-1.55 6.38,-1.55l31.55 0c7.45,-0 7.11,1.93 7.11,8.63l-46.06 0z"/>
    <path class="fil2" d="M57.57 47.5l-2.87 0 -0 -18.72 3.99 0 1.87 6.69 1.66 -6.69 3.97 0 0.02 18.7 -2.82 0 -0.35 -10.1 -0.53 2.1c-0.41,1.63 -1.69,7.23 -2.11,8l-2.75 -11.03 -0.07 11.04zm11.53 -4.32l2.71 0 0.43 1.17c0.16,0.36 0.42,0.71 0.65,0.92 2.2,2.04 5.76,-0.29 4.59,-3.2 -1.2,-3 -5.58,-0.5 -7.82,-5.08 -1.83,-3.73 0.81,-7.34 3.9,-8.05 4.02,-0.91 6.76,2.05 7.02,5.59l-2.87 0c-0.39,-4.76 -7.2,-2.92 -5.51,1.14 1.24,2.99 5.65,0.38 7.77,4.95 1.75,3.77 -0.58,7.22 -3.56,8.05 -4.17,1.16 -7.04,-1.93 -7.31,-5.51zm-26.22 0c0.62,0.34 0.04,-0.09 0.58,1.2 1.37,3.2 6.65,1.37 5.25,-2.28 -0.8,-2.09 -2.21,-1.39 -4.37,-2.08 -5.63,-1.8 -5.19,-9.78 0.46,-11.06 3.38,-0.77 6.7,1.49 7,5.6l-2.82 -0.08c-1.62,-5.53 -7.2,-1.87 -5.5,1.37 0.95,1.82 2.52,1.28 4.51,1.94 1.41,0.47 2.73,1.73 3.29,2.98 1.7,3.78 -0.83,7.3 -3.91,8.01 -4.02,0.93 -6.75,-2.06 -7.05,-5.56l2.56 -0.02zm-16.25 11.51l57.04 0c3.52,0.02 2.69,-0.97 2.69,-8.86l0 -17.08c0,-1.31 0.36,-4.61 -0.51,-5.34 -0.92,-0.78 -9.06,-0.39 -10.91,-0.39l-34.34 0c-6.36,0 -6.07,-1.07 -6.07,5.21l0 17.08c0.02,1.5 0.11,1.34 -0.71,2.11l-7.22 7.26z"/>
    <path class="fil3" d="M2.88 11.52l46.06 -0c0,-6.7 0.34,-8.63 -7.11,-8.63l-31.55 0c-3.1,-0 -4.62,-0.36 -6.38,1.55 -1.45,1.57 -1.03,4.7 -1.03,7.09z"/>
    <path class="fil3" d="M20.18 80.61l11.47 0.03 0.01 2.8c-1.21,0.15 -10.68,0.19 -11.51,-0.05l0.03 -2.77zm-17.3 0.96c0,3.04 1.75,4.79 4.79,4.79l36.43 0c2.33,0 3.56,-0.91 4.35,-2.36 0.77,-1.42 0.5,-4.42 0.5,-6.23l-45.98 -0.04 -0.08 3.85z"/>
    <path class="fil4" d="M50.4 60.31l-0.06 -2.61c-0.77,-0.36 -13.27,-0.12 -15.31,-0.12 -2.06,0 -14.51,0.29 -15.3,-0.18 -0.22,0.35 -0.24,0.12 0.14,0.33 4.18,0 8.75,-0.37 12.64,0.4 1.4,0.28 10.07,1.98 10.65,2.34l2.89 -0.01 -0.02 2.87c0.02,-0.04 0.04,-0.1 0.05,-0.14l0.13 -2.18 2.57 0.53c0.13,1.17 0.18,8.09 0.02,8.99l-46.02 0 0.35 -56.08c-0.32,0.35 -0.3,-0.01 -0.28,1.58 0.15,9.04 0.01,19.34 0.01,28.41 0,10.09 0.02,20.18 0.02,30.27 0.54,0.18 43.39,0.39 46.06,0.08l0.03 -14.34c0.18,-0 0.51,0.02 0.71,0.01l0.72 -0.15z"/>
    <path class="fil1" d="M57.64 36.46l2.75 11.03c0.42,-0.77 1.7,-6.37 2.11,-8l0.53 -2.1 0.35 10.1 2.82 -0 -0.02 -18.7 -3.97 -0 -1.66 6.69 -1.87 -6.69 -3.99 -0 0 18.72 2.87 0 0.07 -11.04z"/>
    <path class="fil1" d="M69.1 43.18c0.28,3.58 3.15,6.67 7.31,5.51 2.98,-0.83 5.31,-4.28 3.56,-8.05 -2.12,-4.58 -6.53,-1.96 -7.77,-4.95 -1.68,-4.06 5.13,-5.91 5.51,-1.14l2.87 0c-0.26,-3.54 -3.01,-6.5 -7.02,-5.59 -3.09,0.7 -5.73,4.31 -3.9,8.05 2.25,4.58 6.62,2.08 7.82,5.08 1.17,2.91 -2.4,5.24 -4.59,3.2 -0.23,-0.21 -0.49,-0.56 -0.65,-0.92l-0.43 -1.17 -2.71 -0z"/>
    <path class="fil1" d="M42.88 43.18l-2.56 0.02c0.3,3.5 3.04,6.49 7.05,5.56 3.07,-0.71 5.61,-4.23 3.91,-8.01 -0.56,-1.25 -1.88,-2.51 -3.29,-2.98 -1.99,-0.66 -3.56,-0.12 -4.51,-1.94 -1.69,-3.24 3.88,-6.89 5.5,-1.37l2.82 0.08c-0.3,-4.11 -3.62,-6.37 -7,-5.6 -5.65,1.28 -6.09,9.26 -0.46,11.06 2.16,0.69 3.56,-0.01 4.37,2.08 1.4,3.66 -3.89,5.49 -5.25,2.28 -0.55,-1.29 0.03,-0.86 -0.58,-1.2z"/>
    <path class="fil1" d="M20.15 83.38c0.83,0.24 10.3,0.21 11.51,0.05l-0.01 -2.8 -11.47 -0.03 -0.03 2.77z"/>
    <polygon class="fil1" points="37.43,63.33 40.3,63.33 40.3,60.46 37.43,60.46 "/>
    <polygon class="fil1" points="31.67,63.33 34.54,63.33 34.54,60.46 31.68,60.46 "/>
    <polygon class="fil1" points="25.91,63.33 28.78,63.33 28.79,60.46 25.93,60.46 "/>
    <polygon class="fil1" points="46.03,63.33 46.05,60.46 43.16,60.47 43.19,63.33 "/>
   </g>
   <path class="fil5" d="M102.31 100.46l-60.14 -0.17c0.07,-0.75 4.85,-4.5 5.48,-5.12l11.55 -10.1c1.42,-1.14 4.66,-4.5 6.06,-5.1 0.03,0.05 6.72,6.58 7.98,6.57 0.84,-0.01 1.79,-0.96 2.21,-1.35 0.77,-0.71 1.28,-1.08 1.93,-1.68 0.7,-0.64 3.55,-3.04 3.81,-3.55 0.89,0.4 11.01,9.28 12.31,10.56 1.98,1.94 7.16,6.11 9.14,8.05 1.05,1.02 3.29,1.89 -0.33,1.89zm-18.2 -22.78c0.75,-0.87 1.74,-1.7 2.71,-2.54l14.49 -12.69c1.04,-0.82 4.9,-4.57 5.87,-4.96 0.94,3.28 0.43,15.83 0.43,20.19 0,4.22 0.49,17.06 -0.44,20.15 -0.77,-0.35 -12.65,-10.82 -14.41,-12.49 -1.1,-1.04 -8.1,-6.89 -8.63,-7.66zm-44.81 20.17c-0.3,-0.98 -0.45,-1.38 -0.45,-2.55l0.36 -37.84c0.8,0.35 7.73,6.43 8.78,7.47 2.3,2.29 13.3,11.4 14.35,12.75l-5.66 5.09c-0.86,0.82 -1.98,1.65 -2.86,2.46l-8.71 7.64c-0.99,0.83 -1.78,1.7 -2.78,2.52 -0.92,0.76 -2.05,1.94 -3.04,2.47zm2.88 -42.67c1.34,-0.72 27.19,-0.31 31.06,-0.31 3.87,0 29.69,-0.42 31.05,0.31l-31.05 27.33 -31.06 -27.33zm26.48 -3.82l-22.43 0 -2.07 0c-4.89,0 -8.7,3.46 -8.7,7.64l0 37.36c0,2.23 1.47,4.54 2.72,5.55 1.59,1.27 3.38,2.09 6.19,2.09l57.73 0c5.11,0 8.91,-3.52 8.91,-7.85l0 -20.9 0 -13.27 0 -3.61c-0.3,-0.23 -0.27,-0.78 -0.48,-1.42 -1.9,-5.79 -7.3,-5.46 -11.62,-5.46 -6.22,0 -30.24,0 -30.26,-0.11z"/>
   <path class="fil6" d="M42.17 55.18l31.06 27.33 31.05 -27.33c-1.36,-0.73 -27.18,-0.31 -31.05,-0.31 -3.87,0 -29.72,-0.41 -31.06,0.31z"/>
   <path class="fil6" d="M102.31 100.46c3.62,0 1.37,-0.87 0.33,-1.89 -1.98,-1.94 -7.16,-6.11 -9.14,-8.05 -1.3,-1.27 -11.42,-10.16 -12.31,-10.56 -0.27,0.5 -3.11,2.9 -3.81,3.55 -0.65,0.6 -1.16,0.97 -1.93,1.68 -0.42,0.38 -1.38,1.34 -2.21,1.35 -1.26,0.01 -7.94,-6.51 -7.98,-6.57 -1.4,0.6 -4.64,3.96 -6.06,5.1l-11.55 10.1c-0.63,0.62 -5.4,4.37 -5.48,5.12l60.14 0.17z"/>
   <path class="fil7" d="M84.11 77.68c0.53,0.77 7.54,6.62 8.63,7.66 1.76,1.67 13.64,12.14 14.41,12.49 0.94,-3.1 0.44,-15.93 0.44,-20.15 0,-4.36 0.51,-16.91 -0.43,-20.19 -0.96,0.38 -4.83,4.14 -5.87,4.96l-14.49 12.69c-0.97,0.85 -1.95,1.67 -2.71,2.54z"/>
   <path class="fil7" d="M39.3 97.85c0.99,-0.52 2.12,-1.7 3.04,-2.47 0.99,-0.82 1.79,-1.69 2.78,-2.52l8.71 -7.64c0.88,-0.81 1.99,-1.63 2.86,-2.46l5.66 -5.09c-1.05,-1.35 -12.05,-10.46 -14.35,-12.75 -1.05,-1.04 -7.98,-7.12 -8.78,-7.47l-0.36 37.84c0,1.17 0.15,1.58 0.45,2.55z"/>
  </g>
 </g>
</svg>
