<?xml version="1.0" encoding="UTF-8"?>
<!DOCTYPE svg PUBLIC "-//W3C//DTD SVG 1.1//EN" "http://www.w3.org/Graphics/SVG/1.1/DTD/svg11.dtd">
<!-- Creator: CorelDRAW 2020 (64-Bit) -->
<svg xmlns="http://www.w3.org/2000/svg" xml:space="preserve" width="123.224mm" height="94.7931mm" version="1.1" style="shape-rendering:geometricPrecision; text-rendering:geometricPrecision; image-rendering:optimizeQuality; fill-rule:evenodd; clip-rule:evenodd"
viewBox="0 0 60.95 46.88"
 xmlns:xlink="http://www.w3.org/1999/xlink"
 xmlns:xodm="http://www.corel.com/coreldraw/odm/2003">
 <defs>
  <style type="text/css">
   <![CDATA[
    .fil1 {fill:#4D4D4D}
    .fil0 {fill:#B2B2B2}
   ]]>
  </style>
 </defs>
 <g id="Capa_x0020_1">
  <metadata id="CorelCorpID_0Corel-Layer"/>
  <rect class="fil0" x="-0" y="-0" width="60.95" height="46.88" rx="4.46" ry="4.81"/>
  <path class="fil1" d="M25.75 21.87c0,0.67 1.55,2.57 2.05,3.07 0.08,0.08 0.11,0.12 0.19,0.2l1.12 1.04c0.72,0.68 3.19,2.12 3.92,2.12 1.14,0 1.81,-2.49 2.75,-2.49 0.35,0 1.07,0.34 1.36,0.48 0.43,0.22 0.81,0.37 1.25,0.59l1.83 0.92c0.34,0.2 0.35,0.32 0.35,0.76 0,1.23 -0.42,2.34 -1.34,3.06 -2.48,1.93 -4.78,1.19 -7.47,0.11 -1.42,-0.57 -2.3,-0.99 -3.55,-1.89 -0.43,-0.31 -1.13,-0.83 -1.5,-1.19 -0.19,-0.19 -0.31,-0.24 -0.49,-0.42 -2.04,-2.02 -5.46,-5.98 -5.46,-8.9 0,-1.47 0.14,-2.44 1.06,-3.66 0.61,-0.82 1.45,-1.44 2.57,-1.29 0.92,0.12 0.92,-0.06 1.29,0.69 0.21,0.42 0.41,0.93 0.59,1.38l0.87 2.08c0.17,0.39 0.24,0.5 0.24,0.94 0,0.78 -1.64,1.88 -1.64,2.43zm-12.07 1.72l0 -0.52 0 -0.08c0,-2.74 0.91,-5.69 2.26,-7.97 0.68,-1.15 1.7,-2.51 2.64,-3.45 0.1,-0.1 0.16,-0.17 0.26,-0.26l0.56 -0.49c0.92,-0.86 2.91,-2.16 4.01,-2.61 2.82,-1.17 4.2,-1.54 7.52,-1.54 4.4,0 9.02,2.17 11.92,5.46l0.5 0.55c0.86,1.03 1.88,2.51 2.38,3.72 0.91,2.21 1.54,4.07 1.54,6.6 0,3.32 -0.6,6.08 -2.26,8.89l-2.18 2.93c-1.21,1.44 -3.68,3.22 -5.29,3.89 -2.21,0.91 -4.06,1.54 -6.6,1.54 -2.71,0 -4.77,-0.32 -7.19,-1.4 -0.6,-0.27 -1.06,-0.5 -1.62,-0.81 -0.89,-0.49 -0.56,-0.67 -1.69,-0.29l-5.63 1.78c0.03,-0.38 0.84,-2.55 1.02,-3.11 1.21,-3.62 1.27,-2.75 0.39,-4.08 -0.99,-1.51 -1.83,-3.72 -2.19,-5.49 -0.32,-1.59 -0.34,-1.99 -0.34,-3.25z"/>
 </g>
</svg>
