<?xml version="1.0" encoding="UTF-8"?>
<!DOCTYPE svg PUBLIC "-//W3C//DTD SVG 1.1//EN" "http://www.w3.org/Graphics/SVG/1.1/DTD/svg11.dtd">
<!-- Creator: CorelDRAW 2020 (64-Bit) -->
<svg xmlns="http://www.w3.org/2000/svg" xml:space="preserve" width="107.308mm" height="117.475mm" version="1.1" style="shape-rendering:geometricPrecision; text-rendering:geometricPrecision; image-rendering:optimizeQuality; fill-rule:evenodd; clip-rule:evenodd"
viewBox="0 0 549.85 601.95"
 xmlns:xlink="http://www.w3.org/1999/xlink"
 xmlns:xodm="http://www.corel.com/coreldraw/odm/2003">
 <defs>
  <style type="text/css">
   <![CDATA[
    .fil0 {fill:black}
    .fil8 {fill:#0282FB}
    .fil6 {fill:#22A5FC}
    .fil14 {fill:#49679B}
    .fil5 {fill:#6D7EAA}
    .fil12 {fill:#E31E2B}
    .fil4 {fill:#EDE0DB}
    .fil3 {fill:#F6F1EF}
    .fil1 {fill:#FC4755}
    .fil7 {fill:#FCB43E}
    .fil10 {fill:#FD9901}
    .fil11 {fill:#FED1A2}
    .fil9 {fill:#FED1A3}
    .fil13 {fill:#FFBC85}
    .fil2 {fill:#FFE4C0}
   ]]>
  </style>
 </defs>
 <g id="Capa_x0020_1">
  <metadata id="CorelCorpID_0Corel-Layer"/>
  <g id="_2695373620192">
   <path class="fil0" d="M402.95 273.08c2.81,-3.38 9.29,-8 14.97,-7.09 12.2,1.95 33.21,13.64 40.58,26.6 6.8,11.96 6.29,23.18 6.36,37.8 0.05,10.42 0.77,10.74 -4.41,17.38 -4.31,5.52 -5.59,7.95 -10.75,11.71 -2.27,4.45 -15.79,16.06 -22.02,20.19 -71.41,47.27 -157.11,29.75 -203.63,-33.73 -4.49,-6.13 -3.04,-9 -3.03,-17.92 0.04,-34.15 7.97,-49.2 43.56,-60.94 8.02,-2.65 9.42,-0.31 15.21,3.18 4.41,2.66 8.12,4.89 12.55,7.42 17.68,10.09 41.51,28.75 56.93,24.69 6.83,-1.8 21.21,-11 27.43,-14.82 4.71,-2.89 22.29,-13.68 26.26,-14.47zm-60.96 -273.08l2.77 0c13.12,0.16 26.23,2.82 38.33,8.23 11.8,5.28 26.66,15.18 34.6,25.36 12.87,16.51 18.41,24.59 23.97,46.59l1.72 9.17c1.86,14.85 1.93,26.46 2.02,41.46 16.26,9.57 39.84,41.75 48.3,61.89 25.85,61.52 15.73,118.03 -22.21,169.61 -16.21,22.04 -35.71,33.53 -57.58,45.83 -3.31,1.86 -1.42,0.32 -3.64,2.63 -9.37,0.34 -57.75,28.45 -125.53,2.67 -38.07,-14.48 -64.23,-39.2 -82.34,-68.16 -32.66,-52.21 -32.17,-121.55 2.31,-175.7 8.77,-13.77 24.34,-30.92 35.82,-39.25 0.08,-14.86 0.24,-26.29 1.98,-40.98 0.69,-20.49 17.15,-48.24 32.11,-62.63 17.57,-16.9 42.37,-26.35 67.39,-26.72zm-35.51 248.21l3.8 -8.64c11.31,1.55 17.6,6.91 32.83,6.87 14.39,-0.03 20.47,-4.59 31.74,-6.77 11,16.99 1.12,5.41 16.17,18.93l-10.95 6.26c-6.27,4.52 -14.07,8.63 -21.39,12.87 -7.33,4.24 -13.53,10.34 -22.37,5.38 -13.81,-7.76 -28.6,-16.37 -41.36,-24.26l11.53 -10.64zm132.96 -76.54l5.95 -17.72c11.47,12.19 13.75,13.57 23.18,28.62 6.28,10.01 11.84,22.34 15.58,35.02 6.73,22.81 8.35,62.64 -0.22,84.25l-1.88 3.4c-0.09,-0.19 -0.38,0.56 -0.6,0.81 -6.45,-30.32 -13.64,-30.2 -27.8,-43.9 -4.85,-1.95 -9.81,-5.32 -15.75,-7.75 -24.15,-9.92 -43.76,-7.59 -46.74,-23.96l15.16 -12.03c12.67,-10.28 26.5,-30.49 33.13,-46.74zm-235.96 135.28c-8.33,-32.72 -11.61,-56.75 -1.42,-90.54 5.98,-19.83 24.92,-53.84 39.37,-62.82 2.45,16.94 11.56,33.65 19.82,44.68 7.55,10.09 22.22,26.13 33.91,31.58 -3.64,15.04 -10.94,12.92 -25.78,17.34 -21.11,6.29 -41.29,13.56 -53.73,30.99 -10.66,14.93 -8.32,21.7 -12.17,28.77zm128.64 -80.33c-15.66,2.02 -43.27,-22.22 -53.63,-35.05 -18.29,-22.66 -20.33,-34.51 -20.33,-69.67 7.48,-1.31 14.12,-4.17 19.46,-7.48 18.14,-11.25 10.56,-21.07 34.05,-14.74 32.05,8.65 32.47,8.26 65.59,-0.89 18.1,-5 15.99,7.26 33.26,17.13 6.15,3.02 10,4.76 17.21,6.08 0,41.77 -4.4,51.27 -25.54,75.8 -10.54,12.23 -29.08,25.03 -46.93,29.43 -6.7,1.65 -14.6,2.64 -21.26,0.33l-1.88 -0.95zm53.32 -195.93c10.29,3.68 23.24,19.02 28.75,28.76 7.26,12.83 11.8,26.96 13.03,44.08 -8.87,-1.75 -15.98,-8.18 -19.19,-13.55 -4.52,-2.71 -8.27,-7.58 -16.06,-9.53 -18.22,-4.56 -34.26,13.05 -63.03,5.4 -12.79,-3.4 -28.73,-9.76 -41.35,-2.68 -10.85,6.08 -14.07,17.54 -28.95,20.4 3.83,-51.57 40.41,-85.9 84.48,-85.85 11.16,0.01 38.11,6.33 42.32,12.97z"/>
   <path class="fil0" d="M154.2 464.77l14.62 13.84 -18.52 18.73c-4.08,-2.18 -11.55,-10.1 -13.63,-13.79 -4.9,-2.34 -26.48,-25.27 -31.89,-31.02l18.48 -18.76c3.93,1.97 12.71,11.84 16.34,15.45 4.47,4.45 12.32,10.54 14.61,15.54zm-99.61 137.18l-10.36 0c-20.52,-2.15 -38.32,-17.12 -43.4,-40.99 -1.89,-8.9 -0.31,-19 2.33,-26.2 3.18,-8.67 6.25,-12.41 12.23,-18.34 19.24,-19.06 21.18,-27.02 34.97,-23.8 4.17,12.8 2.18,12.18 -5.77,20.09 -12.53,12.46 -25.54,21.81 -26.45,37.47 -0.57,9.78 3.21,19.37 8.72,23.34 5.4,8.96 21.8,13.66 35.27,8.47 9.68,-3.72 20.1,-16.81 26.33,-23.06 16.07,-16.12 33.31,-32.12 48.44,-48.52 -2.7,-3.87 -9.52,-10.75 -13.46,-13.36l-30.74 -31.4c-9.37,4.58 -13.33,21.05 -28.22,14.3 -3.2,-5.49 -4.26,-8.52 0.8,-13.58l27.13 -26.96c21.1,-21.1 26.07,-32 42.91,-20.58l38.51 -39.09c-0.9,-3.38 -7.32,-12.37 -9.64,-16.22 -38.93,-64.52 -36.76,-153.81 5.17,-216.33 13.41,-20 13.14,-16.71 22.11,-28.45 3.62,-4.74 7.43,-8.33 12.42,-12.27 5.49,-4.35 8.52,-8.52 16.52,-3.01 4.28,14.64 -0.9,11.51 -12.85,24.31 -86.47,92.64 -66.17,232.3 43.77,296.74 15.9,9.32 38.88,17.48 60.15,20.96 19.34,3.17 56.46,4.21 73.99,-2.43 37.25,-6.32 72.43,-31.46 90.98,-49.91 54,-53.66 71.02,-137.06 39.49,-209.7 -12.55,-28.92 -26.82,-45.02 -47.54,-65.31 -7.15,-7 -9.01,-5.78 -5.31,-17.01 8.12,-4.38 11.93,-1.61 17.33,3.8 8.89,8.91 17.32,16.86 25.12,26.61l10.8 15.06c15.35,24.98 23.46,42.64 29.5,72.78 22.79,113.68 -53.77,221.05 -159.7,242.2 -40.02,7.99 -85,4.85 -122.14,-10.92l-25.89 -12.9c-5.17,-2.84 -10.22,-6.66 -15.18,-10.07l-39.69 39.08c11.43,17.07 1.18,21.75 -14.99,37.92 -14.02,14.02 -82.53,84.96 -92.78,90.62 -6.83,3.77 -13.9,5.94 -20.85,6.66zm109.82 -153.85l-16.55 -15.78 38.72 -38.15c5.96,7.47 12.88,11.28 13.1,14.9 3.42,2.43 6,4.26 8.44,7.37l-38.22 37.81 -5.49 -6.15z"/>
   <path class="fil1" d="M449.7 359.48c3.95,-16.14 -0.09,-46.69 -7.37,-58.96 -8.32,-14.03 -20.78,-20.47 -39.39,-27.44 -3.97,0.78 -21.55,11.58 -26.26,14.47 -6.22,3.82 -20.6,13.02 -27.43,14.82 -15.41,4.06 -39.25,-14.6 -56.93,-24.69 -4.43,-2.53 -8.14,-4.77 -12.55,-7.42 -5.79,-3.49 -7.19,-5.82 -15.21,-3.18 -35.58,11.75 -43.51,26.79 -43.56,60.94 -0.01,8.92 -1.47,11.79 3.03,17.92 46.52,63.48 132.22,81 203.63,33.73 6.23,-4.12 19.75,-15.74 22.02,-20.19z"/>
   <path class="fil2" d="M332.11 226.62c26.38,-8.92 42.57,-21.16 56.09,-38.08 16.61,-20.79 23.33,-38.34 22.32,-72.61 -17.28,-9.87 -15.16,-22.13 -33.26,-17.13 -33.12,9.15 -33.54,9.53 -65.59,0.89 -23.49,-6.34 -15.92,3.49 -34.05,14.74 -5.34,3.31 -11.98,6.18 -19.46,7.48 0,35.16 2.04,47.01 20.33,69.67 10.36,12.83 37.97,37.06 53.63,35.05z"/>
   <path class="fil3" d="M220.38 103.46c4.28,14.64 -0.9,11.51 -12.85,24.31 -86.47,92.64 -66.17,232.3 43.77,296.74 15.9,9.32 38.88,17.48 60.15,20.96 19.34,3.17 56.46,4.21 73.99,-2.43 0.25,-0.27 0.64,-1.01 0.78,-0.78 0.14,0.23 0.57,-0.58 0.76,-0.75l18.98 -22.46c0.99,-1.47 1.75,-2.5 2.96,-4.3 3.2,-4.78 2.57,-1.67 1.34,-3.98 -9.37,0.34 -57.75,28.45 -125.53,2.67 -38.07,-14.48 -64.23,-39.2 -82.34,-68.16 -32.66,-52.21 -32.17,-121.55 2.31,-175.7 8.77,-13.77 24.34,-30.92 35.82,-39.25 0.08,-14.86 0.24,-26.29 1.98,-40.98 -3.96,1.68 -7.9,4.12 -11.42,6.71 -3.24,2.39 -7.54,5.71 -10.7,7.4z"/>
   <path class="fil4" d="M410.26 410.78c1.23,2.3 1.86,-0.8 -1.34,3.98 -1.21,1.81 -1.97,2.84 -2.96,4.3l-18.98 22.46c-0.19,0.17 -0.62,0.98 -0.76,0.75 -0.14,-0.23 -0.53,0.5 -0.78,0.78 37.25,-6.32 72.43,-31.46 90.98,-49.91 54,-53.66 71.02,-137.06 39.49,-209.7 -12.55,-28.92 -26.82,-45.02 -47.54,-65.31 -7.15,-7 -9.01,-5.78 -5.31,-17.01 -6.94,-3.61 -12.47,-9.08 -19.7,-11.76 1.86,14.85 1.93,26.46 2.02,41.46 16.26,9.57 39.84,41.75 48.3,61.89 25.85,61.52 15.73,118.03 -22.21,169.61 -16.21,22.04 -35.71,33.53 -57.58,45.83 -3.31,1.86 -1.42,0.32 -3.64,2.63z"/>
   <path class="fil5" d="M408.03 89.98c2.75,-0.92 1.52,-3.28 0.85,-7.32 -0.47,-2.81 -1.3,-6.17 -1.99,-8.94 -6.86,-27.22 -14.05,-29.66 -21.45,-43.04 -4.2,-6.63 -31.15,-12.96 -42.32,-12.97 -44.07,-0.04 -80.66,34.28 -84.48,85.85 14.88,-2.86 18.1,-14.32 28.95,-20.4 12.62,-7.07 28.56,-0.72 41.35,2.68 28.78,7.65 44.81,-9.96 63.03,-5.4 7.79,1.95 11.54,6.82 16.06,9.53z"/>
   <path class="fil6" d="M203.48 306.95c3.85,-7.07 1.51,-13.84 12.17,-28.77 12.44,-17.43 32.62,-24.7 53.73,-30.99 14.84,-4.42 22.14,-2.31 25.78,-17.34 -11.69,-5.45 -26.36,-21.5 -33.91,-31.58 -8.26,-11.04 -17.37,-27.74 -19.82,-44.68 -14.45,8.98 -33.39,43 -39.37,62.82 -10.19,33.79 -6.91,57.82 1.42,90.54z"/>
   <path class="fil7" d="M64.47 479.95l-14.11 12.66c4.17,12.8 2.18,12.18 -5.77,20.09 -12.53,12.46 -25.54,21.81 -26.45,37.47 -0.57,9.78 3.21,19.37 8.72,23.34 15.16,0.32 22.61,-2.99 31.47,-10.61 7.66,-6.58 14.69,-14.39 21.9,-21.61 7.5,-7.5 39.94,-38.14 43.2,-44.24l-30.74 -31.4c-9.37,4.58 -13.33,21.05 -28.22,14.3z"/>
   <path class="fil8" d="M439.44 171.66c8.99,10.6 14.39,72.39 14.2,90.48 14.16,13.7 21.36,13.58 27.8,43.9 0.22,-0.25 0.51,-1 0.6,-0.81l1.88 -3.4c8.57,-21.61 6.95,-61.45 0.22,-84.25 -3.74,-12.67 -9.3,-25.01 -15.58,-35.02 -9.43,-15.05 -11.71,-16.43 -23.18,-28.62l-5.95 17.72z"/>
   <path class="fil6" d="M453.64 262.15c0.19,-18.1 -5.21,-79.89 -14.2,-90.48 -6.63,16.25 -20.46,36.45 -33.13,46.74l-15.16 12.03c2.98,16.37 22.58,14.04 46.74,23.96 5.93,2.44 10.9,5.81 15.75,7.75z"/>
   <path class="fil9" d="M332.11 226.62l1.88 0.95c6.66,2.31 14.56,1.32 21.26,-0.33 17.85,-4.4 36.39,-17.19 46.93,-29.43 21.13,-24.53 25.54,-34.03 25.54,-75.8 -7.21,-1.33 -11.05,-3.06 -17.21,-6.08 1.01,34.27 -5.71,51.83 -22.32,72.61 -13.53,16.92 -29.71,29.16 -56.09,38.08z"/>
   <path class="fil10" d="M26.86 573.51c5.4,8.96 21.8,13.66 35.27,8.47 9.68,-3.72 20.1,-16.81 26.33,-23.06 16.07,-16.12 33.31,-32.12 48.44,-48.52 -2.7,-3.87 -9.52,-10.75 -13.46,-13.36 -3.27,6.11 -35.7,36.74 -43.2,44.24 -7.22,7.21 -14.25,15.03 -21.9,21.61 -8.86,7.61 -16.31,10.93 -31.47,10.61z"/>
   <path class="fil11" d="M380.07 264.87c-7.12,-3.49 -10,-6.12 -13.06,-13.4 -12.57,1.37 -16.03,5.33 -32.15,3.71 -11.3,-1.14 -18.68,-4.46 -28.38,-6.97l-11.53 10.64c12.76,7.89 27.55,16.51 41.36,24.26 8.84,4.97 15.04,-1.14 22.37,-5.38 7.32,-4.24 15.12,-8.35 21.39,-12.87z"/>
   <path class="fil12" d="M402.95 273.08c18.61,6.97 31.07,13.42 39.39,27.44 7.27,12.26 11.31,42.82 7.37,58.96 5.16,-3.77 6.44,-6.19 10.75,-11.71 5.18,-6.64 4.46,-6.96 4.41,-17.38 -0.07,-14.61 0.44,-25.84 -6.36,-37.8 -7.37,-12.96 -28.38,-24.65 -40.58,-26.6 -5.68,-0.91 -12.16,3.71 -14.97,7.09z"/>
   <path class="fil3" d="M136.67 483.55c3.71,-0.76 6.71,-5.2 9.49,-8.02 1.87,-1.89 2.83,-2.8 4.77,-4.68 3.45,-3.34 3.79,-2.29 3.28,-6.09 -2.29,-5 -10.14,-11.08 -14.61,-15.54 -3.63,-3.61 -12.41,-13.48 -16.34,-15.45l-18.48 18.76c5.41,5.75 26.99,28.68 31.89,31.02z"/>
   <path class="fil5" d="M164.41 448.09l33.27 -32.78c3.75,-3.77 3.69,-1.64 2,-6.25 -0.22,-3.62 -7.14,-7.43 -13.1,-14.9l-38.72 38.15 16.55 15.78z"/>
   <path class="fil13" d="M306.48 248.21c9.7,2.51 17.08,5.83 28.38,6.97 16.12,1.63 19.58,-2.34 32.15,-3.71 3.07,7.28 5.94,9.91 13.06,13.4l10.95 -6.26c-15.05,-13.53 -5.17,-1.94 -16.17,-18.93 -11.27,2.17 -17.35,6.73 -31.74,6.77 -15.23,0.04 -21.52,-5.33 -32.83,-6.87l-3.8 8.64z"/>
   <path class="fil14" d="M408.03 89.98c3.21,5.37 10.32,11.8 19.19,13.55 -1.23,-17.12 -5.77,-31.25 -13.03,-44.08 -5.51,-9.75 -18.47,-25.08 -28.75,-28.76 7.4,13.38 14.59,15.82 21.45,43.04 0.7,2.77 1.53,6.13 1.99,8.94 0.67,4.04 1.9,6.4 -0.85,7.32z"/>
   <path class="fil4" d="M136.67 483.55c2.08,3.69 9.55,11.6 13.63,13.79l18.52 -18.73 -14.62 -13.84c0.51,3.8 0.18,2.75 -3.28,6.09 -1.94,1.88 -2.91,2.79 -4.77,4.68 -2.78,2.82 -5.77,7.25 -9.49,8.02z"/>
   <path class="fil14" d="M164.41 448.09l5.49 6.15 38.22 -37.81c-2.45,-3.11 -5.02,-4.95 -8.44,-7.37 1.69,4.62 1.75,2.49 -2,6.25l-33.27 32.78z"/>
  </g>
 </g>
</svg>
