<?xml version="1.0" encoding="UTF-8"?>
<!DOCTYPE svg PUBLIC "-//W3C//DTD SVG 1.1//EN" "http://www.w3.org/Graphics/SVG/1.1/DTD/svg11.dtd">
<!-- Creator: CorelDRAW 2020 (64-Bit) -->
<svg xmlns="http://www.w3.org/2000/svg" xml:space="preserve" width="92.4478mm" height="101.315mm" version="1.1" style="shape-rendering:geometricPrecision; text-rendering:geometricPrecision; image-rendering:optimizeQuality; fill-rule:evenodd; clip-rule:evenodd"
viewBox="0 0 312.24 342.19"
 xmlns:xlink="http://www.w3.org/1999/xlink"
 xmlns:xodm="http://www.corel.com/coreldraw/odm/2003">
 <defs>
  <style type="text/css">
   <![CDATA[
    .fil1 {fill:black}
    .fil5 {fill:#0181FA}
    .fil3 {fill:#0592FC}
    .fil7 {fill:#99E6FC}
    .fil8 {fill:#C6EDFC}
    .fil4 {fill:#C8EFFE}
    .fil2 {fill:#E9F5FE}
    .fil6 {fill:#FCB037}
    .fil0 {fill:#FFCF5A}
   ]]>
  </style>
 </defs>
 <g id="Capa_x0020_1">
  <metadata id="CorelCorpID_0Corel-Layer"/>
  <g id="_2695432598368">
   <path class="fil0" d="M39.87 187.63c5.73,-1.8 56.96,-0.62 67.36,-0.63 6.96,-0 20.7,-1.35 21.85,12.28 1,11.84 0.39,21.48 -9.31,24.47 -6.01,1.85 -56.77,0.63 -67.35,0.63 -5.22,0 -11.08,0.81 -15.52,-1.68 -3.23,-1.81 -6.15,-5.22 -6.7,-10.15 -1.43,-12.68 -0.46,-21.75 9.66,-24.92zm104.21 133.84l3.9 0c-4.53,-12.26 -3.09,-22.68 -3.09,-36.76 0,-13.14 0,-26.29 0,-39.43 0,-17.55 -3.46,-37.05 12.04,-47.87 3.94,-2.75 8.55,-4.47 14.25,-5.28 2.24,-0.24 1.95,-0.6 4.16,-1.7 1.3,-0.65 2.65,-1.2 4.29,-1.74 3.52,-1.15 6.32,-1.48 10.13,-1.65 6.77,-2.47 68.38,1.41 79.04,-0.85 0,-12.61 0,-25.22 0,-37.83 0,-9.84 1.57,-23.89 -2.72,-30.51l-2.02 -3.03c-24.63,-0.19 -49.33,-0.02 -73.96,-0.02 -13.32,0 -22.4,-0.76 -27.75,9.14 -5.55,10.26 -5.87,15.95 -15.61,21.81 -8.51,5.12 -22.55,3.58 -33.5,3.58l-74.19 0c-13.08,0 -22.25,0.05 -26.78,10.34 -3.31,7.53 -1.64,59.6 -1.64,72.23 0,11.31 -1.25,66.55 1.12,72.72 4.86,12.64 15.64,11.67 25.3,11.67l93.57 -0c6.68,-0 12.38,-1.59 13.45,5.17z"/>
   <path class="fil1" d="M278.05 197.08c12.49,0.58 22.51,10.12 23.29,22.22l-0.02 90.65c-0.88,12.63 -10.6,21.53 -23.65,22.17l-89.51 -0.06c-11.95,-0.95 -21.2,-10.49 -21.82,-22.72l0.03 -90c0.82,-12.19 10.18,-21.38 22.38,-22.22l89.31 -0.04zm-193.44 -197.08l40 0 120.97 0 7.48 0c8.1,0.32 15.95,2.66 15.94,16.68l-0.02 60.17c0,8.02 1.44,13.33 -5.62,14.7 -5.75,-3.86 -4.79,-0.82 -4.79,-16.04 0,-11.94 0.79,-59.32 -0.75,-64.44 -3.61,-1.52 -6.41,-1.07 -11.13,-1.05l-123.42 -0.01c-8.75,0 -34.5,-1.51 -40.14,1.23 -1.09,3.57 -1.16,13.65 -0.48,17.93 35.15,0 70.3,0 105.45,0 23.23,0 30.5,-2.25 30.49,22.28 -0,17.25 -0.61,35.66 0.07,52.76l22.24 0.61c4.98,0 19.35,1.27 22.59,-0.57 8.9,0 14.9,1.62 20.7,7.5 6.09,6.18 6.17,10.3 6.17,21.9 -0,18.49 0,36.98 0,55.47 27.07,14.32 21.39,33.54 21.39,66.17 0,11.2 1.32,54.92 -1.81,63.69 -2.78,7.78 -7.38,13.96 -14.5,18.25 -2.31,1.39 -4.58,2.46 -7.32,3.38 -2.45,0.82 -7.66,1.3 -14.12,1.57l-85.93 0c-12.57,-1.5 -22.95,-6.44 -29.28,-20.72 -4.13,-15.69 -2.52,-52.55 -2.52,-70.84 0,-9.61 -0.99,-27.35 0.58,-35.93 2.83,-15.41 12.28,-18.71 14.34,-22.56 2.24,-0.24 1.95,-0.6 4.16,-1.7 1.3,-0.65 2.65,-1.2 4.29,-1.74 3.52,-1.15 6.32,-1.48 10.13,-1.65l90.56 -0.01c0,-14.61 0,-29.31 0,-44.01 0,-16.22 2.72,-28.36 -16.26,-28.19 -24.63,-0.19 -49.33,-0.02 -73.96,-0.02 -13.32,0 -22.4,-0.76 -27.75,9.14 -5.55,10.26 -5.87,15.95 -15.61,21.81 -8.51,5.12 -22.55,3.58 -33.5,3.58l-74.19 0c-13.08,0 -22.25,0.05 -26.78,10.34 -3.31,7.53 -1.64,59.6 -1.64,72.23 0,11.31 -1.25,66.55 1.12,72.72 4.86,12.64 15.64,11.67 25.3,11.67l93.57 -0c6.68,-0 12.38,-1.59 13.45,5.17 -0.54,3.92 -2.5,4.88 -6.16,5.29l-78.14 0.06c-14.08,0 -32.11,1.58 -42.23,-2.55 -9.69,-3.95 -17.33,-13.8 -17.27,-27.51 0.06,-13.66 -0.93,-126.6 0.49,-133.88 1.36,-6.97 3.56,-10.88 7.71,-15.02 7.24,-7.21 9.32,-5.99 13.88,-8.18 0,-9.22 -0.8,-96.13 0.38,-100.54 0.58,-2.19 2.44,-4.93 3.77,-6.26 6.94,-6.94 31.65,-4.15 45.98,-4.15 0,-5.62 -0.88,-15.79 0.71,-20.01 1.6,-4.25 5.82,-8.31 11.32,-8.72l0.1 -0.01zm112.53 39.22c9.01,-0.06 11.52,-1.56 11.44,8.21 -0.13,17.39 0.75,41.72 -0.1,57.34l-33.14 0.13c-15.23,1.58 -19.55,10.01 -24.58,20.18 -7.7,15.59 -10.92,14.25 -30.17,14.25 -29.29,0 -58.95,0.46 -88.2,-0.03 0,-14.21 -1.6,-93.19 1.12,-99.33 7.24,-2.23 68.71,-0.76 81.74,-0.76 27.26,0 54.64,-0.24 81.89,0.02z"/>
   <path class="fil2" d="M125.94 114.73c3.48,-0 9.11,-1 11.52,1.41 2.75,2.75 1.37,7.1 -1.47,8.17 -2.44,0.92 -62.42,0.43 -73.54,0.44 -3.38,0 -9.06,0.6 -11.2,-1.25 -2.72,-2.36 -2.02,-6.39 1.08,-8.1 2.63,-1.45 62.27,-0.65 73.62,-0.66zm-34.92 -20.16c1.38,-0.39 42.63,-0.81 45.1,0.21 4.43,1.82 3.48,8.2 -0.99,9.31 -3.95,0.99 -24.92,0.25 -30.58,0.25 -3.57,0 -12.08,0.74 -14.68,-0.8 -3.2,-1.9 -3.56,-7.64 1.14,-8.97zm-37.99 0.07c1.66,-0.54 14.44,-0.62 16.58,-0.15 4.37,0.96 5.55,7.51 1.12,9.35 -1.96,0.82 -14.36,0.78 -16.91,0.36 -5.61,-0.92 -5.7,-7.96 -0.79,-9.56zm7.02 -37.27c5.56,-1.55 37.18,-1.37 41.74,0.84 11.03,5.32 10.16,22.18 -1.86,26.04 -5,1.6 -38.02,1.33 -42.32,-0.58 -10.55,-4.7 -11.73,-22.36 2.43,-26.3zm65.89 18.5c-9.06,0 -9.12,-10.02 0.17,-10.02l59.98 0c9.1,0 9.05,10.02 0,10.02l-60.15 0zm49.4 29.02c4.5,-2.92 16.81,-0.1 22.48,-1.31 0,-10.69 0,-21.39 0,-32.08 0,-8.65 0.9,-24.51 -0.68,-32.29 -27.25,-0.26 -54.62,-0.02 -81.89,-0.02 -13.02,0 -74.49,-1.46 -81.74,0.76 -2.72,6.14 -1.12,85.11 -1.12,99.33 29.25,0.49 58.91,0.03 88.2,0.03 19.25,0 22.47,1.34 30.17,-14.25 5.02,-10.17 9.35,-18.6 24.58,-20.18z"/>
   <path class="fil3" d="M211.91 250.36c1.43,-8.27 -1.15,-22.6 0.67,-30.09 2.27,-9.38 11.87,-8.67 21.64,-8.67 10.02,-0 18.97,-0.81 21.01,9.27 1.61,7.97 -0.98,21.35 0.59,29.49 11.45,0 18.31,3.02 21.17,12.28 3.38,10.94 -4.53,17.66 -8.91,23.17 -4.95,6.24 -9.96,12.52 -14.89,18.53 -4.65,5.68 -8.58,13.37 -19.64,13.21 -9.02,-0.13 -12.43,-5.05 -16.05,-9.45l-18.11 -22.67c-4.35,-5.49 -12.41,-12.36 -8.5,-23.32 3.25,-9.09 9.38,-11.76 21.02,-11.76zm65.75 81.76c4.34,-5.16 12.42,-6.79 12.38,-28.03l-0 -78.86c0.01,-13.02 -2.14,-19.12 -10.86,-26.99 -0.81,-0.73 -0.51,-0.4 -1.13,-1.16l-89.31 0.04c-12.2,0.84 -21.56,10.03 -22.38,22.22l-0.03 90c0.62,12.23 9.87,21.77 21.82,22.72l89.51 0.06z"/>
   <path class="fil4" d="M218.66 104.23l28.81 -0.03c0,-15.91 0,-31.65 0,-47.39 0,-11.7 1.29,-36.9 -0.78,-46.78l-123.42 -0.01c-8.75,0 -34.5,-1.51 -40.14,1.23 -1.09,3.57 -1.16,13.65 -0.48,17.93 35.15,0 70.3,0 105.45,0 23.23,0 30.5,-2.25 30.49,22.28 -0,17.25 -0.61,35.66 0.07,52.76z"/>
   <path class="fil1" d="M228.14 304.94c-2.39,-1.88 -5.23,-6.12 -7.38,-8.79l-14.85 -18.56c-2.04,-2.48 -6.4,-6.26 -5.88,-10.88 1.37,-12.06 20.88,-0.49 22.12,-11.4 0.28,-2.46 -0.95,-36.22 0.97,-33.15l1.12 -0.36c0.2,-0.04 0.38,-0.08 0.61,-0.11l9.08 -0.04 10.63 0.62c1.7,-2.72 0.91,31.89 0.92,33.71 1.24,4.21 4.05,4.41 8.83,4.42 4.02,-0.01 8.41,-0.52 10.99,1.92 2.31,2.18 3.28,6.27 1.28,9.33l-11.32 14.08c-3.67,4.49 -7.61,9.22 -11.32,14.07 -2.51,3.28 -7.32,10.79 -14.14,6.71 -1.58,-0.94 -0.84,-0.36 -1.67,-1.56zm-16.24 -54.58c-11.64,0 -17.77,2.68 -21.02,11.76 -3.92,10.96 4.15,17.84 8.5,23.32l18.11 22.67c3.62,4.4 7.02,9.32 16.05,9.45 11.06,0.16 14.98,-7.54 19.64,-13.21 4.93,-6.01 9.94,-12.29 14.89,-18.53 4.37,-5.51 12.29,-12.23 8.91,-23.17 -2.86,-9.26 -9.72,-12.28 -21.17,-12.28 -1.57,-8.15 1.02,-21.53 -0.59,-29.49 -2.03,-10.08 -10.99,-9.27 -21.01,-9.27 -9.77,0 -19.37,-0.7 -21.64,8.67 -1.82,7.49 0.77,21.82 -0.67,30.09z"/>
   <path class="fil1" d="M42.42 213.64c-3.14,-0.74 -2.36,-3.38 -2.34,-7.11 0.02,-3.08 -0.08,-6.44 0.85,-8.81 6.13,-1.9 58.45,-0.73 69.47,-0.69 4.69,-0.03 8.38,-1.24 8.76,4.13 1.19,17.08 1.63,13.23 -38.65,13.23l-38.08 -0.75zm-2.55 -26.01c-10.12,3.17 -11.09,12.24 -9.66,24.92 0.56,4.93 3.47,8.34 6.7,10.15 4.43,2.49 10.29,1.68 15.52,1.68 10.58,-0 61.34,1.22 67.35,-0.63 9.7,-2.99 10.31,-12.63 9.31,-24.47 -1.15,-13.63 -14.89,-12.28 -21.85,-12.28 -10.4,0 -61.63,-1.17 -67.36,0.63z"/>
   <path class="fil4" d="M228.14 304.94c7.65,-6.95 19.58,-21.69 25.74,-29.96 4.21,-5.65 2.18,-8.74 0.43,-14.59 -4.78,-0.01 -7.6,-0.21 -8.83,-4.42 -3.39,-1.08 -7.3,-0.02 -9.65,-2.28 -2.26,-2.18 -1.8,-6.18 -1.78,-9.75 0.03,-7.28 0.25,-15.08 -0.11,-22.31l-9.08 0.04c-0.22,0.03 -0.41,0.08 -0.61,0.11l-1.12 0.36c-1.92,-3.08 -0.69,30.69 -0.97,33.15 -1.24,10.91 -20.75,-0.65 -22.12,11.4 -0.53,4.63 3.84,8.4 5.88,10.88l14.85 18.56c2.15,2.67 4.98,6.91 7.38,8.79z"/>
   <path class="fil5" d="M277.66 332.12c13.05,-0.65 22.77,-9.54 23.65,-22.17l0.02 -90.65c-0.78,-12.11 -10.8,-21.64 -23.29,-22.22 0.62,0.76 0.32,0.43 1.13,1.16 8.73,7.87 10.88,13.97 10.86,26.99l0 78.86c0.04,21.23 -8.04,22.86 -12.38,28.03z"/>
   <path class="fil6" d="M147.98 321.47l10.81 0c-4.13,-15.69 -2.52,-52.55 -2.52,-70.84 0,-9.61 -0.99,-27.35 0.58,-35.93 2.83,-15.41 12.28,-18.71 14.34,-22.56 -5.7,0.81 -10.32,2.53 -14.25,5.28 -15.5,10.82 -12.04,30.31 -12.04,47.87 0,13.14 0,26.29 0,39.43 0,14.08 -1.44,24.49 3.09,36.76z"/>
   <path class="fil1" d="M90.4 74.94c-7.34,0.02 -25.12,1.19 -30.12,-1.17 -0.67,-2.27 -0.67,-3.56 0.01,-5.82 5.14,-2.39 22.66,-1.22 30.11,-1.19 4.01,-0.01 9.18,-0.58 9.2,4.1 0.02,4.72 -5.19,4.1 -9.2,4.09zm-30.35 -17.56c-14.16,3.94 -12.99,21.6 -2.43,26.3 4.29,1.91 37.32,2.18 42.32,0.58 12.02,-3.86 12.89,-20.72 1.86,-26.04 -4.57,-2.21 -36.18,-2.39 -41.74,-0.84z"/>
   <path class="fil2" d="M42.42 213.64c5.06,-1.29 27.78,-0.43 34.74,-0.43 11.15,0 22.3,0.03 33.45,-0 0.59,-4.31 0.53,-11.89 -0.21,-16.17 -11.02,-0.05 -63.34,-1.21 -69.47,0.69 -0.93,2.37 -0.83,5.73 -0.85,8.81 -0.02,3.73 -0.8,6.37 2.34,7.11z"/>
   <path class="fil7" d="M218.66 104.23l22.24 0.61c4.98,0 19.35,1.27 22.59,-0.57l-0.14 -12.7c-5.75,-3.86 -4.79,-0.82 -4.79,-16.04 0,-11.94 0.79,-59.32 -0.75,-64.44 -3.61,-1.52 -6.41,-1.07 -11.13,-1.05 2.07,9.88 0.78,35.07 0.78,46.78 0,15.74 0,31.48 0,47.39l-28.81 0.03z"/>
   <path class="fil1" d="M52.33 115.4c-3.09,1.71 -3.8,5.75 -1.08,8.1 2.14,1.85 7.83,1.26 11.2,1.25 11.12,-0.01 71.1,0.49 73.54,-0.44 2.84,-1.07 4.23,-5.42 1.47,-8.17 -2.41,-2.41 -8.04,-1.42 -11.52,-1.41 -11.35,0.01 -70.99,-0.79 -73.62,0.66z"/>
   <path class="fil6" d="M189.76 187.05l90.56 -0.01c0,-14.61 0,-29.31 0,-44.01 0,-16.22 2.72,-28.36 -16.26,-28.19l2.02 3.03c4.29,6.62 2.72,20.66 2.72,30.51 0,12.61 0,25.22 0,37.83 -10.66,2.25 -72.27,-1.63 -79.04,0.85z"/>
   <path class="fil4" d="M175.34 104.9l33.14 -0.13c0.85,-15.62 -0.03,-39.95 0.1,-57.34 0.07,-9.76 -2.43,-8.27 -11.44,-8.21 1.59,7.78 0.68,23.64 0.68,32.29 0,10.69 0,21.39 0,32.08 -5.67,1.21 -17.98,-1.62 -22.48,1.31z"/>
   <path class="fil1" d="M125.94 75.88l60.15 0c9.05,0 9.1,-10.02 0,-10.02l-59.98 0c-9.28,0 -9.23,10.02 -0.17,10.02z"/>
   <path class="fil1" d="M91.02 94.58c-4.71,1.33 -4.34,7.07 -1.14,8.97 2.6,1.54 11.11,0.8 14.68,0.8 5.66,0 26.63,0.74 30.58,-0.25 4.47,-1.12 5.41,-7.49 0.99,-9.31 -2.47,-1.02 -43.72,-0.59 -45.1,-0.21z"/>
   <path class="fil7" d="M228.14 304.94c0.83,1.19 0.09,0.61 1.67,1.56 6.83,4.08 11.64,-3.43 14.14,-6.71 3.71,-4.85 7.64,-9.58 11.32,-14.07l11.32 -14.08c2,-3.06 1.03,-7.16 -1.28,-9.33 -2.58,-2.43 -6.97,-1.93 -10.99,-1.92 1.75,5.85 3.78,8.94 -0.43,14.59 -6.17,8.27 -18.09,23.01 -25.74,29.96z"/>
   <path class="fil7" d="M245.49 255.97c-0.01,-1.82 0.78,-36.43 -0.92,-33.71l-10.63 -0.62c0.36,7.23 0.14,15.03 0.11,22.31 -0.02,3.56 -0.48,7.57 1.78,9.75 2.35,2.26 6.26,1.2 9.65,2.28z"/>
   <path class="fil3" d="M90.4 74.94c0.83,-4.07 0.97,-4 0,-8.19 -7.45,-0.02 -24.97,-1.2 -30.11,1.19 -0.68,2.26 -0.68,3.55 -0.01,5.82 4.99,2.36 22.77,1.2 30.12,1.17z"/>
   <path class="fil1" d="M53.03 94.64c-4.91,1.59 -4.82,8.64 0.79,9.56 2.54,0.42 14.95,0.46 16.91,-0.36 4.43,-1.84 3.25,-8.39 -1.12,-9.35 -2.14,-0.47 -14.92,-0.39 -16.58,0.15z"/>
   <path class="fil8" d="M42.42 213.64l38.08 0.75c40.29,0 39.84,3.85 38.65,-13.23 -0.37,-5.36 -4.07,-4.15 -8.76,-4.13 0.73,4.28 0.8,11.86 0.21,16.17 -11.15,0.03 -22.3,0 -33.45,0 -6.95,0 -29.67,-0.86 -34.74,0.43z"/>
   <path class="fil5" d="M90.4 74.94c4.01,0.01 9.22,0.63 9.2,-4.09 -0.02,-4.68 -5.2,-4.1 -9.2,-4.1 0.97,4.19 0.83,4.12 0,8.19z"/>
  </g>
 </g>
</svg>
