<?xml version="1.0" encoding="UTF-8"?>
<!DOCTYPE svg PUBLIC "-//W3C//DTD SVG 1.1//EN" "http://www.w3.org/Graphics/SVG/1.1/DTD/svg11.dtd">
<!-- Creator: CorelDRAW 2020 (64-Bit) -->
<svg xmlns="http://www.w3.org/2000/svg" xml:space="preserve" width="118.599mm" height="118.599mm" version="1.1" style="shape-rendering:geometricPrecision; text-rendering:geometricPrecision; image-rendering:optimizeQuality; fill-rule:evenodd; clip-rule:evenodd"
viewBox="0 0 409.69 409.69"
 xmlns:xlink="http://www.w3.org/1999/xlink"
 xmlns:xodm="http://www.corel.com/coreldraw/odm/2003">
 <defs>
  <style type="text/css">
   <![CDATA[
    .fil5 {fill:#9196AA}
    .fil4 {fill:#BEC3D2}
    .fil3 {fill:#DCE1EB}
    .fil2 {fill:#F2F6FC}
    .fil1 {fill:#AD0E0E;fill-rule:nonzero}
    .fil0 {fill:#F15249;fill-rule:nonzero}
   ]]>
  </style>
 </defs>
 <g id="Capa_x0020_1">
  <metadata id="CorelCorpID_0Corel-Layer"/>
  <g id="_2659726215248">
   <circle class="fil0" cx="204.85" cy="204.85" r="204.85"/>
   <path class="fil1" d="M123.76 338.76l83.77 70.9c111.89,-1.44 202.16,-92.58 202.16,-204.81 0,-2.4 -0.06,-4.78 -0.14,-7.16l-97.82 -109.97 -187.98 251.05 0 0z"/>
   <path class="fil2" d="M98.74 86.06l104.18 0 0 51.78 -115.73 0c-5.11,0 -10.97,-4.46 -9.29,-9.29l11.55 -33.2c1.68,-4.83 4.18,-9.29 9.29,-9.29z"/>
   <path class="fil3" d="M202.93 86.06l104.05 0c5.11,0 7.68,4.44 9.29,9.29l11.05 33.2c1.61,4.85 -4.18,9.29 -9.29,9.29l-115.1 0 0 -51.78 -0 0z"/>
   <path class="fil3" d="M176.57 51.64l26.36 0 0 17.28 -24.1 0 0 17.13 -18.07 0 0 -18.6c0,-8.7 7.12,-15.82 15.82,-15.82l0 0z"/>
   <path class="fil4" d="M202.93 51.64l25.61 0c8.7,0 15.82,7.12 15.82,15.82l0 18.6 -17.2 0 0 -17.13 -24.22 0 0 -17.28z"/>
   <path class="fil3" d="M202.93 349.72l-57.24 0c-15.74,0 -27.37,-12.93 -28.62,-28.62l-14.58 -183.26 100.44 0 0 211.88 -0 0z"/>
   <path class="fil4" d="M301.86 137.83l-14.09 183.26c-1.21,15.69 -12.88,28.62 -28.62,28.62l-56.23 0 0 -211.88 98.94 0z"/>
   <path class="fil4" d="M202.74 147.88l0 0c0.06,0 0.13,0 0.19,0l0 174.72c-0.06,0 -0.13,0 -0.19,0l0 0c-4.8,0 -8.72,-3.93 -8.72,-8.72l0 -157.28c0,-4.8 3.93,-8.72 8.72,-8.72z"/>
   <path class="fil5" d="M202.93 147.88c4.71,0.1 8.53,3.99 8.53,8.72l0 157.28c0,4.73 -3.82,8.62 -8.53,8.72l0 -174.72z"/>
   <path class="fil4" d="M151.53 147.88l0 0c4.8,0 8.46,3.93 8.72,8.72l8.79 157.28c0.27,4.79 -3.93,8.72 -8.72,8.72l-0 0c-4.8,0 -8.46,-3.93 -8.72,-8.72l-8.79 -157.28c-0.27,-4.79 3.93,-8.72 8.72,-8.72z"/>
   <path class="fil5" d="M253.35 147.88l0 0c-4.8,0 -8.46,3.93 -8.72,8.72l-8.79 157.28c-0.27,4.79 3.93,8.72 8.72,8.72l0 0c4.8,0 8.46,-3.93 8.72,-8.72l8.79 -157.28c0.27,-4.79 -3.93,-8.72 -8.72,-8.72z"/>
  </g>
 </g>
</svg>
