<?xml version="1.0" encoding="UTF-8"?>
<!DOCTYPE svg PUBLIC "-//W3C//DTD SVG 1.1//EN" "http://www.w3.org/Graphics/SVG/1.1/DTD/svg11.dtd">
<!-- Creator: CorelDRAW 2020 (64-Bit) -->
<svg xmlns="http://www.w3.org/2000/svg" xml:space="preserve" width="120.618mm" height="122.575mm" version="1.1" style="shape-rendering:geometricPrecision; text-rendering:geometricPrecision; image-rendering:optimizeQuality; fill-rule:evenodd; clip-rule:evenodd"
viewBox="0 0 379.53 385.68"
 xmlns:xlink="http://www.w3.org/1999/xlink"
 xmlns:xodm="http://www.corel.com/coreldraw/odm/2003">
 <defs>
  <style type="text/css">
   <![CDATA[
    .fil1 {fill:black}
    .fil3 {fill:#4183D9}
    .fil2 {fill:#4991F1}
    .fil0 {fill:#8D9FB2}
    .fil4 {fill:#FEC073}
   ]]>
  </style>
 </defs>
 <g id="Capa_x0020_1">
  <metadata id="CorelCorpID_0Corel-Layer"/>
  <g id="_2695617062096">
   <path class="fil0" d="M281.52 108.64c1.24,2.2 1.9,2.35 3.56,4.44 1.59,1.99 2.34,2.73 3.76,4.79 1.91,2.75 5.93,7.59 6.68,10.45l6.33 -2.97c31.85,56.7 22.19,121.39 -23.82,163.55 -33.32,30.53 -80.34,42.84 -127.73,28.17 -21.29,-6.59 -33.55,-17.01 -37.21,-18.28l6.06 17.54 -11.03 3.82c-2.3,-2.55 -6.94,-17.82 -8.57,-22.3 -2.58,-7.09 -8.5,-16.72 -1.54,-20.66 -1.77,-3.44 -5.01,-6.01 -7.32,-9.37 -1.91,-2.77 -5.92,-7.59 -6.68,-10.45 -2.94,0.98 -3.76,2.03 -6.37,3.01 -3.09,-6.14 -6.46,-11.51 -9.48,-19.01 -9.22,-22.89 -11.59,-48.51 -7.06,-73.03 2.7,-14.62 8.59,-29.92 15.13,-40.82 7.11,-11.86 15.09,-21.93 24.78,-31.18 19.87,-18.95 50.85,-31.79 78.66,-33.85 37.46,-2.78 58.91,7.97 86.84,24.42l-5.7 -16.92c2.44,-2.26 7.98,-3.71 11.56,-4.62 2.29,7.22 5.32,14.67 7.97,22.13 2.42,6.82 9,18.26 1.18,21.15zm-212.57 -51.42c10.14,16.84 17.69,18.63 3.04,34.18 -9.12,9.68 -19.25,28.38 -21.6,30.49 -7.73,6.96 -17.75,-0.9 -26.53,-2.2l-11.3 35.19c8.03,2.58 18.08,4.38 21.29,10.39 3.03,5.67 0.4,19.85 0.4,27.57 0,8.07 2.85,22.04 -0.68,28.07 -3.22,5.51 -13.68,7.51 -21.13,9.93l11.43 35.05c8.69,-1.88 19.63,-8.91 26.92,-1.73 2.55,2.51 4.69,7.4 6.97,10.92 5.75,8.88 21.21,26.97 21.92,30.23 1.74,7.97 -5.11,13.89 -10.86,22.47 1.83,1.87 28.26,20.48 29.96,21.12 5.19,-4.68 8.33,-14.76 15.81,-16.64 6.51,-1.64 18.39,5.19 24.81,7.36 5.68,1.92 21.71,5.3 25.3,7.32 8.42,4.73 6.38,14.8 6.39,26.31l37.46 0c0,-10.83 -1.9,-21.87 6.44,-26.07 4.64,-2.33 18.98,-4.89 25.45,-7.23 6.24,-2.26 17.91,-8.85 24.16,-7.32 6.74,1.65 9.17,8.43 14.16,14.56l1.97 2.16c7.48,-4.67 25.68,-19.07 29.83,-20.9 -2.65,-7.16 -13.41,-13.81 -10.41,-23.68 1.48,-4.85 4.55,-6.48 7.18,-9.91 2.52,-3.27 5.04,-6.16 7.6,-9.5 4.87,-6.36 11.38,-18.48 14.01,-20.98 8.09,-7.69 17.55,0.44 26.7,1.6l11.3 -34.95c-29.43,-7.69 -21.63,-10.4 -21.69,-38.2 -0.02,-7.81 -2.85,-22.71 0.8,-27.97 5.24,-7.55 15.38,-5.69 20.91,-10.17l-11.32 -34.9c-8.37,1.82 -19.06,8.81 -26.51,2.1 -2.75,-2.48 -4.88,-7.33 -7.1,-10.8 -2.35,-3.66 -4.34,-6.71 -6.88,-10.23 -4.96,-6.87 -13.95,-15.29 -15.22,-19.74 -2.85,-9.96 7.7,-16.44 10.25,-23.04l-30.28 -21.51c-1.17,2.46 -4.84,6.9 -6.71,9.53 -9.9,13.87 -16.73,5.78 -33.7,-0.18 -29.66,-10.42 -31.18,0 -31.18,-33.47l-37.33 -0.02c0,10.88 1.86,21.83 -6.46,26.06 -4.51,2.29 -19.06,4.93 -25.45,7.23 -16.3,5.87 -23.38,13.77 -33.09,-0.02l-7.19 -9.37c-7.25,4.53 -25.98,19.27 -29.83,20.9z"/>
   <path class="fil1" d="M68.95 57.22c3.85,-1.63 22.59,-16.37 29.83,-20.9l7.19 9.37c9.71,13.8 16.79,5.9 33.09,0.02 6.39,-2.3 20.94,-4.94 25.45,-7.23 8.32,-4.22 6.46,-15.17 6.46,-26.06l37.33 0.02c-0,33.47 1.52,23.05 31.18,33.47 16.98,5.96 23.81,14.05 33.7,0.18 1.88,-2.63 5.55,-7.07 6.71,-9.53l30.28 21.51c-2.54,6.6 -13.1,13.08 -10.25,23.04 1.27,4.45 10.26,12.87 15.22,19.74 2.54,3.52 4.53,6.57 6.88,10.23 2.22,3.46 4.35,8.32 7.1,10.8 7.45,6.71 18.14,-0.28 26.51,-2.1l11.32 34.9c-5.52,4.48 -15.67,2.62 -20.91,10.17 -3.65,5.26 -0.82,20.16 -0.8,27.97 0.06,27.8 -7.74,30.51 21.69,38.2l-11.3 34.95c-9.16,-1.16 -18.61,-9.29 -26.7,-1.6 -2.63,2.5 -9.13,14.62 -14.01,20.98 -2.56,3.35 -5.08,6.23 -7.6,9.5 -2.64,3.43 -5.7,5.06 -7.18,9.91 -3.01,9.88 7.75,16.52 10.41,23.68 -4.15,1.82 -22.36,16.23 -29.83,20.9l-1.97 -2.16c-4.99,-6.13 -7.42,-12.91 -14.16,-14.56 -6.25,-1.53 -17.92,5.06 -24.16,7.32 -6.47,2.34 -20.81,4.9 -25.45,7.23 -8.35,4.2 -6.44,15.24 -6.44,26.07l-37.46 0c-0,-11.51 2.03,-21.58 -6.39,-26.31 -3.6,-2.02 -19.62,-5.39 -25.3,-7.32 -6.42,-2.18 -18.3,-9 -24.81,-7.36 -7.48,1.88 -10.63,11.97 -15.81,16.64 -1.7,-0.64 -28.13,-19.24 -29.96,-21.12 5.74,-8.59 12.59,-14.5 10.86,-22.47 -0.71,-3.26 -16.17,-21.35 -21.92,-30.23 -2.28,-3.52 -4.42,-8.41 -6.97,-10.92 -7.29,-7.19 -18.23,-0.15 -26.92,1.73l-11.43 -35.05c7.45,-2.42 17.9,-4.41 21.13,-9.93 3.53,-6.03 0.68,-20 0.68,-28.07 0,-7.72 2.63,-21.89 -0.4,-27.57 -3.21,-6 -13.26,-7.8 -21.29,-10.39l11.3 -35.19c8.78,1.3 18.8,9.16 26.53,2.2 2.35,-2.11 12.48,-20.81 21.6,-30.49 14.65,-15.55 7.1,-17.35 -3.04,-34.18zm89.71 -46.34l0 17.11c-12.75,0 -36.46,11.51 -40.43,12.44 -2.06,-1.51 -6.06,-7.71 -7.77,-10.12 -10.01,-14.15 -20.04,-4.08 -29.68,3l-17.11 12.44c-12.9,9.39 -7.61,17.03 0.24,27.22 1.3,1.69 2.43,2.64 3,4.78l-12.89 15.88c-4.43,6.14 -7.68,11.65 -11.21,18.34 -6.92,-1.61 -23.6,-11.54 -29.8,1.3 -1.92,3.99 -12.97,38.44 -12.97,41.46 0,13.11 14.4,12.82 23.33,17.11 -3.14,13.49 -0.78,30.3 -0.78,42.77 -3.04,0.25 -11.05,3.15 -14.31,4.35 -13.89,5.1 -6.54,18.82 -4.52,26.14 1.39,5.02 2.71,8.65 4.35,13.54 2.76,8.29 4.89,20.51 15.26,20.51 6.82,0 12.33,-4.51 19.44,-4.67l17.43 26.11c2.98,3.81 2.57,1.98 6.67,8.1l-3 4c-1.22,1.65 -2.1,2.95 -3.23,4.55 -3.17,4.47 -4.66,4.74 -4.66,11.67 0,6.01 3.55,8.34 6.99,10.89 4.58,3.4 29.08,22.54 33.44,22.54 15.77,0 13.03,-10.7 21.77,-17.11 5.05,1.18 27.71,12.44 40.43,12.44l0 17.11c0,4.86 6.03,10.89 10.89,10.89l40.43 0c4.86,0 10.89,-6.03 10.89,-10.89l0 -17.11c12.86,0 35.25,-11.23 40.43,-12.44 4.43,3.24 12.56,24.62 26.58,14.92l16.63 -12.14c12.93,-9.77 26.34,-13.93 14.33,-30.77 -1.14,-1.59 -2.02,-2.71 -3.27,-4.51 -1.41,-2.03 -2.36,-2.63 -2.95,-4.82 1.38,-2.07 4.53,-5.48 6.4,-7.6 5.94,-6.76 13.52,-18.7 17.71,-26.61 8.5,1.98 22.88,11.54 29.7,-1.4l9.01 -26.76c1.73,-6.27 9.53,-20.91 -3.6,-26.4 -2.22,-0.93 -12.32,-4.33 -14.9,-4.54l0.78 -27.22c0,-6.58 -0.78,-9.89 -0.78,-16.33 3.04,-0.25 11.05,-3.15 14.31,-4.35 13.89,-5.1 6.54,-18.82 4.52,-26.14 -1.39,-5.02 -2.71,-8.65 -4.35,-13.54 -2.76,-8.29 -4.89,-20.51 -15.26,-20.51 -6.82,0 -12.33,4.51 -19.44,4.67 -1.72,-3.26 -3.13,-5.59 -5.11,-8.89 -7.36,-12.31 -14.71,-18.92 -19,-25.32l3 -4c1.22,-1.65 2.1,-2.95 3.23,-4.55 3.17,-4.47 4.66,-4.74 4.66,-11.67 0,-8 -10.18,-13.4 -18.82,-19.29l-16.37 -11.62c-14.33,-10.5 -22.44,11.23 -27.02,14.58 -5.19,-1.21 -27.57,-12.44 -40.43,-12.44l0 -17.11c0,-4.86 -6.03,-10.89 -10.89,-10.89l-40.43 0c-4.86,0 -10.89,6.03 -10.89,10.89z"/>
   <path class="fil1" d="M164.88 236.39c0,-31.95 -5.67,-49.78 24.89,-49.78 30.53,0 24.9,17.83 24.88,49.78l-49.77 0zm62.21 -6.22c0,-26.89 -4.56,-37.33 18.66,-37.33 9.56,-0 16.38,1.17 18.3,9.65 1.11,4.89 0.36,21.59 0.36,27.68l-37.32 0zm-111.97 0c0,-26.89 -4.56,-37.33 18.66,-37.33 23.23,-0 18.66,10.71 18.66,37.33l-37.32 0zm128.18 -74.21c11.93,-3.55 16.56,14.71 5.09,17.76 -12.18,3.25 -17,-14.21 -5.09,-17.76zm-111.97 0c11.93,-3.55 16.56,14.71 5.09,17.76 -12.18,3.25 -17,-14.21 -5.09,-17.76zm55.36 -12.38c15.36,-4.43 22.12,19.75 6.47,23.87 -15.7,4.14 -22.78,-19.17 -6.47,-23.87zm-21.8 10.38c0,14.5 4.9,15.16 9.33,21.77 -6.79,1.58 -13,6.69 -16.33,11.66 -2.96,-1.98 -5.6,-5.07 -10.11,-5.44 3.8,-5.67 7.78,-5.07 7.78,-19.44 0,-9.38 -9.91,-19.44 -19.44,-19.44l-4.67 0c-14.1,0 -24.41,17.7 -17.15,31.93 1.89,3.7 3.48,3.96 5.49,6.95 -7.98,0.66 -17.11,12.16 -17.11,21l0 33.44c0,4.71 2.93,6.19 7.73,6.27l42.04 -0.05c0.32,3.83 2.15,6.22 6.22,6.22l62.21 0c4.07,0 5.9,-2.39 6.22,-6.22l42.04 0.05c4.8,-0.08 7.73,-1.56 7.73,-6.27l0 -33.44c0,-8.83 -9.13,-20.33 -17.11,-21 3.8,-5.67 7.78,-5.07 7.78,-19.44 0,-9.38 -9.91,-19.44 -19.44,-19.44l-4.67 0c-14.1,0 -24.41,17.7 -17.15,31.93 1.89,3.7 3.48,3.96 5.49,6.95 -4.51,0.38 -7.15,3.46 -10.11,5.44 -3.33,-4.97 -9.54,-10.08 -16.33,-11.66 1.64,-2.44 3.97,-4.4 5.9,-7.32 8.84,-13.42 0.77,-38.16 -21.45,-38.16 -12.72,0 -24.88,10.33 -24.88,23.7z"/>
   <path class="fil1" d="M295.52 128.33c-1.37,1.16 -3.16,2.08 -4.67,3.09 1.05,3.94 9.23,14.36 13.81,35.96 7.6,35.85 -1,68.75 -22.14,97.24 -6.85,9.23 -8.89,10.08 -15.58,16.3 -7.57,7.03 -16.72,12.7 -26.11,17.43 -35.5,17.87 -80.94,14.89 -113.9,-6.11 -0.51,-0.32 -1.33,-0.87 -1.86,-1.25 -0.13,-0.1 -0.32,-0.23 -0.45,-0.32l13.84 -1.39 0 -13.22 -35.81 -0.07c-3.6,0.12 -2.37,-0.47 -4.62,1.21 -6.96,3.94 -1.05,13.57 1.54,20.66 1.63,4.48 6.28,19.75 8.57,22.3l11.03 -3.82 -6.06 -17.54c3.66,1.28 15.92,11.7 37.21,18.28 47.39,14.66 94.41,2.35 127.73,-28.17 46.01,-42.16 55.67,-106.85 23.82,-163.55l-6.33 2.97z"/>
   <path class="fil1" d="M84.01 257.36c1.59,-1.36 2.25,-1.75 4.67,-2.31l-8.11 -16.77c-2.58,-6.51 -4.31,-11.5 -6.05,-18.84 -3.34,-14.13 -4,-30.16 -1.29,-45.94 4.79,-27.94 16.29,-47.04 35.08,-66 8.24,-8.31 19.26,-15.35 29.87,-20.68 35.66,-17.92 85.17,-15.01 117.07,7.88l0.9 0.66c1.36,1.05 0.56,0.44 1.27,1.06l-16.33 0 0 13.22c6.58,0 36.93,1.26 40.43,-1 7.82,-2.89 1.24,-14.33 -1.18,-21.15 -2.64,-7.45 -5.67,-14.9 -7.97,-22.13 -3.59,0.91 -9.12,2.36 -11.56,4.62l5.7 16.92c-27.93,-16.45 -49.38,-27.2 -86.84,-24.42 -27.81,2.06 -58.79,14.91 -78.66,33.85 -9.7,9.25 -17.67,19.32 -24.78,31.18 -6.54,10.89 -12.42,26.2 -15.13,40.82 -4.53,24.52 -2.17,50.14 7.06,73.03 3.02,7.49 6.39,12.86 9.48,19.01 2.61,-0.98 3.44,-2.03 6.37,-3.01z"/>
   <path class="fil2" d="M164.88 236.39l49.77 0c0.01,-31.95 5.64,-49.78 -24.88,-49.78 -30.55,0 -24.89,17.83 -24.89,49.78z"/>
   <path class="fil3" d="M115.12 230.17l37.32 0c0,-26.62 4.57,-37.33 -18.66,-37.33 -23.23,0 -18.66,10.44 -18.66,37.33z"/>
   <path class="fil3" d="M227.09 230.17l37.32 0c0,-6.09 0.75,-22.79 -0.36,-27.68 -1.93,-8.48 -8.75,-9.65 -18.3,-9.65 -23.23,0 -18.66,10.44 -18.66,37.33z"/>
   <path class="fil4" d="M186.68 143.58c-16.32,4.7 -9.24,28.01 6.47,23.87 15.65,-4.12 8.9,-28.3 -6.47,-23.87z"/>
   <path class="fil4" d="M131.33 155.96c-11.91,3.55 -7.09,21.01 5.09,17.76 11.47,-3.06 6.84,-21.32 -5.09,-17.76z"/>
   <path class="fil4" d="M243.3 155.96c-11.91,3.55 -7.09,21.01 5.09,17.76 11.47,-3.06 6.84,-21.32 -5.09,-17.76z"/>
  </g>
 </g>
</svg>
