<?xml version="1.0" encoding="UTF-8"?>
<!DOCTYPE svg PUBLIC "-//W3C//DTD SVG 1.1//EN" "http://www.w3.org/Graphics/SVG/1.1/DTD/svg11.dtd">
<!-- Creator: CorelDRAW 2020 (64-Bit) -->
<svg xmlns="http://www.w3.org/2000/svg" xml:space="preserve" width="117.472mm" height="105.808mm" version="1.1" style="shape-rendering:geometricPrecision; text-rendering:geometricPrecision; image-rendering:optimizeQuality; fill-rule:evenodd; clip-rule:evenodd"
viewBox="0 0 324.87 292.61"
 xmlns:xlink="http://www.w3.org/1999/xlink"
 xmlns:xodm="http://www.corel.com/coreldraw/odm/2003">
 <defs>
  <style type="text/css">
   <![CDATA[
    .fil1 {fill:black}
    .fil2 {fill:#BCD2DC}
    .fil4 {fill:#D88863}
    .fil3 {fill:#E8B6A1}
    .fil0 {fill:white}
   ]]>
  </style>
 </defs>
 <g id="Capa_x0020_1">
  <metadata id="CorelCorpID_0Corel-Layer"/>
  <g id="_2660306611904">
   <path class="fil0" d="M77.04 184.38c-21.22,-2.27 -19.18,33.39 -32.59,25.45 -9.37,-5.55 12.91,-43.86 35.18,-37.7 5.7,1.57 7.38,4.7 9.84,8.97 5.76,-2.55 12.73,-4.03 18.33,0.29 6.45,4.97 4.38,8.77 5.81,16.8 5.94,0 12.61,-0.2 12.44,6.55 -0.15,6.32 -6.05,6.16 -11.84,6.14 -5.33,-0.01 -12.48,1.32 -14.73,-3.44 -2.42,-5.12 2.96,-10.26 0.84,-15.19 -1.76,-2.32 -5.29,0.5 -6.76,2.05 -1.67,1.77 -2.99,3.49 -4.35,5.78 -2.45,4.12 -3.85,10.42 -8.72,10.78 -6.61,0.48 -7.32,-5.87 -5.48,-11 1.9,-5.31 3.67,-10.19 2.02,-15.48zm-29.3 -47.63c3.36,-1.1 75.4,-0.4 89.31,-0.41 5.18,-0 9.78,-0.94 12.33,2.83 2.69,3.98 0.21,8.35 -3.14,9.44 -3.55,1.15 -75.68,0.41 -89.77,0.42 -4.74,0.01 -9.97,0.79 -12.34,-2.98 -2.68,-4.26 -0.06,-8.11 3.61,-9.31zm0.68 -43.8c4.1,-0.89 66.09,-0.23 75.95,-0.23 6.08,0 52.93,-1.19 56.44,1.03 4.09,2.58 3.65,9.83 -1.39,11.29 -3.28,0.95 -67.42,0.37 -76.62,0.37 -6.04,0 -53.44,1.18 -56.87,-1.13 -4.41,-2.98 -3.57,-10.01 2.5,-11.33zm35.98 -43.17c3.17,-1.44 73.49,-0.63 86.92,-0.66 4.66,-0.01 9.51,-0.74 11.63,3.2 1.94,3.61 0.14,7.61 -2.89,8.91 -2.88,1.24 -73.65,0.55 -86.78,0.57 -4.85,0.01 -9.63,0.62 -11.73,-2.65 -2.62,-4.07 -0.25,-7.97 2.85,-9.38zm-71.7 197.52c0,19.17 16.2,36.06 36.87,31.84 9.94,-2.03 16.44,-7.75 20.64,-14.31 2.4,-3.75 4,-8.13 4.48,-13.16 0.66,-6.88 1.05,-9.36 8.44,-9.36l137.05 0c0,-13.61 0.58,-57.47 -0.16,-67.77 -16.02,18.88 -31.57,26.2 -54.77,34.33 -4.1,1.44 -9.17,4.29 -12.93,0.98 -4,-3.52 -1.06,-9.21 0.43,-13.48 10.14,-28.97 15.2,-35.24 35.09,-55.01l26.66 -26.64c1.84,-1.81 2.77,-2.02 3.64,-5.32 0.78,-2.95 2.04,-4.65 2.04,-7.4l0 -88.92 -207.49 0 0 234.22z"/>
   <path class="fil1" d="M166.99 194.64c3.97,-15.49 14.25,-28.52 24.52,-38.82 7.67,-7.69 25.09,-25.78 31.98,-31.87l14.44 14.88c-8.48,5.9 -32.25,35.3 -49.17,45.97 -4.12,2.6 -16.15,8.82 -21.77,9.85zm157.88 -100.06l0 6.54c-0.74,7.8 -4.09,14.88 -9.04,19.76l-30.43 30.48c-5.66,5.5 -14.48,-0.31 -10.28,-7.74 3.72,-6.58 32.32,-29.71 35.26,-37.71 4.08,-11.09 -0.32,-14.59 -1.37,-19.14 -2.22,1.63 -0.82,3.26 -5.33,9.26l-36.39 36.58c-16.23,16.23 -9.98,8.28 -16.74,11.81 -1.4,0.73 -12.4,12.32 -14.67,14.52 -4.04,3.91 -3.01,3.05 -3.01,11.58l0 71.7c8.46,0 16.92,-0 25.38,-0 7.67,0 19.64,-1.37 22.38,2.37 5.29,7.22 -2.71,35.36 -27.44,45.23 -9.96,3.98 -34.63,2.53 -46.97,2.53 -11.56,0 -16.53,2.21 -18.4,-6.45 4.52,-7.72 1.9,-6.16 21.57,-6.16 9.27,0 18.68,0.16 27.93,-0 15.35,-0.27 29.3,-11.33 31,-24.73l-181.18 -0.02c-2.54,14.09 -5.85,15.82 -12.14,24.6 9.69,0.86 62.41,-0.62 65.97,0.62 3.09,1.08 2.85,2.55 4.34,5.43 -0.6,8.98 -8.41,6.7 -17.77,6.7 -16.65,0 -85.58,1.07 -94.69,-1.13 -16.29,-3.92 -31.91,-20.66 -32.85,-38.76l0 -48.31 0 -193.01c0.02,-10.46 0.71,-10.69 12.06,-10.67l167.51 0c58.11,0 53.3,-5.15 53.3,18.4l0 71.7c7.72,-5.17 28.64,-31.34 38.07,-35.54 14.9,-6.63 25.08,0.02 34.43,9.36 8.45,8.45 17.57,15.48 19.36,28.86 0.06,0.44 0.11,0.88 0.15,1.32zm-312.18 -81.5l207.49 0 0 88.92c0,2.76 -1.26,4.45 -2.04,7.4 -0.87,3.3 -1.81,3.51 -3.64,5.32l-26.66 26.64c-19.89,19.77 -24.94,26.04 -35.09,55.01 -1.49,4.27 -4.43,9.95 -0.43,13.48 3.76,3.31 8.83,0.46 12.93,-0.98 23.2,-8.14 38.75,-15.45 54.77,-34.33 0.74,10.3 0.16,54.15 0.16,67.77l-137.05 0c-7.4,0 -7.79,2.48 -8.44,9.36 -0.48,5.03 -2.08,9.41 -4.48,13.16 -4.19,6.56 -10.7,12.28 -20.64,14.31 -20.67,4.22 -36.87,-12.67 -36.87,-31.84l0 -234.22zm217.87 99.07c1.48,-3.3 34.63,-34.77 41.7,-42.45 12.36,-13.45 33.64,6.45 19.9,19.9 -5.71,5.59 -39.18,39.93 -42.17,41.69 -2.76,-0.8 -18.51,-16.94 -19.43,-19.13z"/>
   <path class="fil2" d="M145.3 285.65c3.63,0.79 10.88,0.72 14.59,0.07 1.65,-3.05 1.92,-5.74 6.39,-5.94 4.81,-0.22 5.22,3.2 6.94,6.13l14.59 -0.01c4.52,-7.72 1.9,-6.16 21.57,-6.16 9.27,0 18.68,0.16 27.93,-0 15.35,-0.27 29.3,-11.33 31,-24.73l-181.18 -0.02c-2.54,14.09 -5.85,15.82 -12.14,24.6 9.69,0.86 62.41,-0.62 65.97,0.62 3.09,1.08 2.85,2.55 4.34,5.43z"/>
   <path class="fil3" d="M230.57 112.15c0.92,2.19 16.68,18.33 19.43,19.13 2.99,-1.76 36.46,-36.11 42.17,-41.69 13.74,-13.45 -7.54,-33.35 -19.9,-19.9 -7.06,7.69 -40.22,39.15 -41.7,42.45z"/>
   <path class="fil1" d="M48.42 92.96c-6.07,1.32 -6.91,8.35 -2.5,11.33 3.43,2.32 50.82,1.13 56.87,1.13 9.2,0 73.34,0.59 76.62,-0.37 5.04,-1.46 5.48,-8.71 1.39,-11.29 -3.51,-2.22 -50.36,-1.03 -56.44,-1.03 -9.86,0 -71.85,-0.66 -75.95,0.23z"/>
   <path class="fil1" d="M77.04 184.38c1.65,5.29 -0.12,10.17 -2.02,15.48 -1.84,5.14 -1.13,11.49 5.48,11 4.87,-0.35 6.28,-6.66 8.72,-10.78 1.36,-2.3 2.68,-4.02 4.35,-5.78 1.47,-1.55 5,-4.37 6.76,-2.05 2.12,4.94 -3.26,10.08 -0.84,15.19 2.25,4.76 9.4,3.42 14.73,3.44 5.79,0.02 11.69,0.18 11.84,-6.14 0.17,-6.75 -6.51,-6.55 -12.44,-6.55 -1.43,-8.04 0.64,-11.83 -5.81,-16.8 -5.6,-4.32 -12.57,-2.84 -18.33,-0.29 -2.46,-4.27 -4.14,-7.4 -9.84,-8.97 -22.27,-6.15 -44.55,32.15 -35.18,37.7 13.4,7.94 11.36,-27.71 32.59,-25.45z"/>
   <path class="fil4" d="M166.99 194.64c5.62,-1.03 17.65,-7.25 21.77,-9.85 16.91,-10.67 40.69,-40.06 49.17,-45.97l-14.44 -14.88c-6.89,6.09 -24.31,24.18 -31.98,31.87 -10.28,10.3 -20.55,23.33 -24.52,38.82z"/>
   <path class="fil1" d="M47.74 136.76c-3.67,1.2 -6.29,5.04 -3.61,9.31 2.37,3.76 7.6,2.98 12.34,2.98 14.09,-0.02 86.23,0.73 89.77,-0.42 3.35,-1.09 5.83,-5.46 3.14,-9.44 -2.55,-3.77 -7.15,-2.83 -12.33,-2.83 -13.91,0.01 -85.95,-0.69 -89.31,0.41z"/>
   <path class="fil1" d="M84.4 49.79c-3.1,1.41 -5.48,5.31 -2.85,9.38 2.1,3.27 6.88,2.66 11.73,2.65 13.13,-0.02 83.91,0.66 86.78,-0.57 3.03,-1.31 4.83,-5.3 2.89,-8.91 -2.12,-3.94 -6.97,-3.22 -11.63,-3.2 -13.43,0.04 -83.75,-0.78 -86.92,0.66z"/>
   <path class="fil1" d="M159.9 285.72c0.27,3.82 2.51,6.45 6.39,6.69 4.71,0.28 6.16,-2.92 6.94,-6.49 -1.72,-2.94 -2.12,-6.35 -6.94,-6.13 -4.47,0.2 -4.74,2.89 -6.39,5.94z"/>
  </g>
 </g>
</svg>
