<?xml version="1.0" encoding="UTF-8"?>
<!DOCTYPE svg PUBLIC "-//W3C//DTD SVG 1.1//EN" "http://www.w3.org/Graphics/SVG/1.1/DTD/svg11.dtd">
<!-- Creator: CorelDRAW 2020 (64-Bit) -->
<svg xmlns="http://www.w3.org/2000/svg" xml:space="preserve" width="106.116mm" height="106.116mm" version="1.1" style="shape-rendering:geometricPrecision; text-rendering:geometricPrecision; image-rendering:optimizeQuality; fill-rule:evenodd; clip-rule:evenodd"
viewBox="0 0 247.01 247.01"
 xmlns:xlink="http://www.w3.org/1999/xlink"
 xmlns:xodm="http://www.corel.com/coreldraw/odm/2003">
 <defs>
  <style type="text/css">
   <![CDATA[
    .fil1 {fill:black}
    .fil2 {fill:#63B9B6}
    .fil4 {fill:#7D939E}
    .fil5 {fill:#A2BCCD}
    .fil3 {fill:#C3DCEF}
    .fil0 {fill:#E3F0FE}
   ]]>
  </style>
 </defs>
 <g id="Capa_x0020_1">
  <metadata id="CorelCorpID_0Corel-Layer"/>
  <g id="_2695625037360">
   <path class="fil0" d="M24.82 219.03c-1.15,-6.48 7.91,-4.95 12.33,-4.95l34.74 0c4.71,0 13.86,-1.68 14.46,3.56 0.7,6.16 -7.32,4.66 -12.53,4.66l-34.74 0c-4.75,0 -13.41,1.53 -14.26,-3.28zm-0.03 -20.74c-0.84,-6.65 10.14,-4.79 19.6,-4.79 4.02,0 8.04,0.01 12.06,-0 3.86,-0.01 8.72,-0.68 9.29,3.37 0.67,4.71 -3.38,4.89 -7.36,4.87l-24.61 -0.01c-4.06,0.01 -8.48,0.59 -8.99,-3.44zm28.42 -19.78c-1.79,3.86 -9.24,2.63 -16.06,2.63 -2.19,0 -7.28,0.26 -9.15,-0.15 -2.48,-0.54 -4.07,-3.11 -2.82,-5.73 1.67,-3.5 9.61,-2.34 15.82,-2.34 2.25,0 7.02,-0.26 8.97,0.11 2.09,0.39 4.54,2.68 3.23,5.49zm-28.39 -21.23c-1.11,-6.24 6.98,-4.95 11.37,-4.95 4.51,0 12.6,-1.51 13.12,3.52 0.63,6.07 -7.19,4.7 -11.67,4.7 -4.6,0 -12.01,1.27 -12.81,-3.28zm-0.03 -20.74c-0.76,-6.03 6.62,-4.79 11.4,-4.79 4.47,0 12.34,-1.46 13.09,3.4 0.95,6.14 -7.07,4.83 -11.64,4.83 -4.9,-0 -12.24,1.34 -12.85,-3.44zm28.42 -19.78c-1.79,3.86 -9.24,2.63 -16.06,2.63 -2.46,0 -15.52,1.56 -11.96,-5.88 1.67,-3.5 9.61,-2.34 15.82,-2.34 2.25,0 7.02,-0.26 8.97,0.11 2.09,0.39 4.54,2.68 3.23,5.49zm8.29 -20.74c-1.3,3.43 -4.36,2.81 -8.43,2.79 -3.86,-0.01 -7.72,-0 -11.58,-0 -5.11,0 -18.75,2.22 -16.56,-5.36 1.02,-3.52 4.94,-2.88 8.36,-2.87l22.7 -0.02c3.27,0.03 6.96,1.66 5.51,5.45zm-36.72 -21.23c-0.72,-5.76 5.8,-4.79 10.43,-4.79l30.88 0c4.16,0 11.34,-1.36 12,3.44 0.8,5.75 -6.16,4.79 -10.56,4.79l-30.88 0c-4.73,0 -11.29,1.23 -11.88,-3.44zm30.07 -45.61c3.69,-0.9 49.24,-0.35 57.08,-0.35 10.66,0 18.21,-1.42 22.46,6.62 4.3,8.14 -1.39,16.36 -8.34,17.8 -4,0.83 -48.94,0.27 -57.06,0.27 -9.88,0 -18.24,1.37 -22.29,-6.62 -4.17,-8.25 1.29,-16.05 8.15,-17.72zm122.2 193.16l0 -8.82c-6.39,2.03 -8.15,4.37 -19.04,6.73 -22.85,4.95 -43.7,0.73 -62.45,-10.9 -48.5,-30.08 -51.03,-102.15 -4.56,-135.7 17.18,-12.4 38.79,-18.58 61.31,-15.06 8.57,1.34 13.24,3.73 20.6,5.79l0 -27.33c-10.34,0 -19.6,1.58 -25.01,-3.55 -5.62,-5.33 -3.68,-16.09 -3.83,-25.12 -4.28,-0.55 -107.6,-0.15 -120.43,-0.15 -4.53,0 -13.44,-1.41 -15.02,2.34 -0.99,2.35 -0.4,178.48 -0.4,206.53 0,23.99 -2.16,21.68 12.52,21.68l137.98 0c4.76,0 13.02,1.58 14.05,-3.37 1.16,-5.56 -2.4,-12.14 4.28,-13.08z"/>
   <path class="fil1" d="M205.95 213.51l7.59 -7.54c2,0.71 5.94,5.22 7.7,6.98l14.49 14.46c7.55,7.52 -0.8,15.85 -8.29,8.29l-14.45 -14.49c-2.07,-2.07 -5.97,-5.14 -7.04,-7.69zm-195 -213.51l18.85 0 0.11 0 110.48 0 0.18 -0 6.6 0c1.25,0.12 2.39,0.39 3.35,0.96 3.42,2 24.67,23.75 27.86,27.14 1.96,2.08 3,4.14 3.03,8.07l-0.02 32.83c1.69,0.45 5.2,3.13 6.86,4.24 5.86,3.89 12.31,10.55 16.72,16.09 14.55,18.26 20.84,43.77 15.7,67.68 -2.65,12.31 -7.32,21.38 -13.22,30.2 2.73,4.07 34.13,33.21 37.07,37.71 1.45,2.22 2.24,4.48 2.49,6.68l0 3.15c-0.74,6.32 -5.85,11.48 -12.15,12.28l-3.42 0c-2.25,-0.28 -4.57,-1.13 -6.84,-2.68 -4.44,-3.03 -33.44,-34.21 -37.42,-36.88 -1.68,1.13 -3.09,2.1 -4.97,3.23 -1.89,1.12 -3.34,1.83 -5.16,2.83 -6.39,2.03 -8.15,4.37 -19.04,6.73 -22.85,4.95 -43.7,0.73 -62.45,-10.9 -48.5,-30.08 -51.03,-102.15 -4.56,-135.7 17.18,-12.4 38.79,-18.58 61.31,-15.06 8.57,1.34 13.24,3.73 20.6,5.79l0 -27.33c-10.34,0 -19.6,1.58 -25.01,-3.55 -5.62,-5.33 -3.68,-16.09 -3.83,-25.12 -4.28,-0.55 -107.6,-0.15 -120.43,-0.15 -4.53,0 -13.44,-1.41 -15.02,2.34 -0.99,2.35 -0.4,178.48 -0.4,206.53 0,23.99 -2.16,21.68 12.52,21.68l137.98 0c4.76,0 13.02,1.58 14.05,-3.37 1.16,-5.56 -2.4,-12.14 4.28,-13.08 3.83,0.32 4.39,2.73 4.35,6.82 -0.1,11.54 -1.94,17.85 -15.3,17.86l-155.29 0c-5.44,-0.39 -10.42,-5.38 -10.82,-10.82l0 -224.25c0.04,-2.9 0.34,-4.01 2.01,-6.56 2.15,-3.28 5.22,-4.77 8.95,-5.38zm183.13 202.13c2.56,-2.81 5.19,-5.62 8.08,-8.06 1.79,1.32 5,4.13 5.76,6.25l-7.53 7.64c-2.19,-0.87 -4.95,-4.03 -6.31,-5.84zm-61.63 -135.88c43.15,-4.63 77.58,28.33 81.25,66.43 4.15,43.02 -28.05,77.17 -66.12,80.99 -43.2,4.33 -77.04,-27.67 -81.27,-65.68 -4.86,-43.71 27.81,-77.63 66.13,-81.74zm34.35 -37.46c-15.8,0.44 -14.8,1.33 -14.45,-14.38 1.85,0.98 13.38,12.52 14.45,14.38z"/>
   <path class="fil2" d="M158.01 120.37c3.1,-2.32 7.1,0.13 6.47,4.01 -0.41,2.55 -20.37,21.55 -23.56,24.74 -13.02,13.02 -12.2,14.34 -19.83,6.71 -1.33,-1.33 -5.11,-4.57 -5.58,-6.5 -0.88,-3.61 2.79,-6.38 5.99,-4.55 2.54,1.46 3.72,4.51 6.44,5.72l30.07 -30.13zm-7.41 -41.27c-2.81,-0.33 -5.21,0 -6.82,-1.83 0.66,7.51 -6.94,3.26 -21.14,7.73 -7.41,2.33 -13.96,6.03 -18.89,10.07 -9.38,7.68 -18.44,19.45 -20.96,36.99 -4.94,34.37 20.56,61.53 49.93,65.2 33.98,4.24 61.02,-20.91 64.48,-50.25 2.86,-24.23 -9.52,-46.31 -28.59,-57.04 -12.19,-6.86 -18.22,-4.43 -18.01,-10.87z"/>
   <path class="fil3" d="M143.78 77.27c1.61,1.83 4.01,1.5 6.82,1.83 1.76,-5.02 6.38,-2.94 10.93,-1.35 28.44,9.95 47.64,38.44 43.73,70.09 -4.13,33.37 -34.16,61.76 -72.85,57.38 -33.4,-3.78 -61.9,-33.96 -57.84,-72.29 1,-9.42 4.05,-17.98 7.85,-24.97 7.39,-13.58 20.73,-24.93 35.54,-30.06 4.23,-1.47 8.5,-2.55 13.2,-3.2 6.03,-0.83 11.29,-1.88 12.63,2.56zm-11.32 -11.02c-38.32,4.11 -71,38.03 -66.13,81.74 4.23,38.01 38.07,70.01 81.27,65.68 38.07,-3.82 70.27,-37.97 66.12,-80.99 -3.68,-38.11 -38.1,-71.07 -81.25,-66.43z"/>
   <path class="fil1" d="M150.6 79.1c-0.21,6.43 5.82,4.01 18.01,10.87 19.07,10.73 31.45,32.82 28.59,57.04 -3.46,29.34 -30.5,54.49 -64.48,50.25 -29.36,-3.66 -54.87,-30.83 -49.93,-65.2 2.52,-17.54 11.58,-29.31 20.96,-36.99 4.93,-4.04 11.48,-7.74 18.89,-10.07 14.2,-4.47 21.8,-0.22 21.14,-7.73 -1.34,-4.44 -6.6,-3.39 -12.63,-2.56 -4.7,0.65 -8.98,1.73 -13.2,3.2 -14.81,5.14 -28.14,16.48 -35.54,30.06 -3.8,6.98 -6.85,15.54 -7.85,24.97 -4.06,38.33 24.44,68.51 57.84,72.29 38.69,4.38 68.73,-24.01 72.85,-57.38 3.91,-31.65 -15.29,-60.14 -43.73,-70.09 -4.56,-1.59 -9.17,-3.68 -10.93,1.35z"/>
   <path class="fil1" d="M96.49 37.04c3.73,0 27.71,-0.99 29.87,1.11 2.23,2.16 1.24,5.75 -1.34,6.77 -1.92,0.76 -52.22,0.37 -61.33,0.37 -2.9,0 -7.16,0.58 -8.96,-1.11 -2.31,-2.17 -1.16,-5.34 1.32,-6.65 2.11,-1.11 35.09,-0.49 40.45,-0.49zm-41.64 -7.87c-6.86,1.67 -12.33,9.48 -8.15,17.72 4.05,7.99 12.41,6.62 22.29,6.62 8.12,0 53.06,0.56 57.06,-0.27 6.95,-1.43 12.64,-9.66 8.34,-17.8 -4.25,-8.05 -11.79,-6.62 -22.46,-6.62 -7.83,0 -53.39,-0.55 -57.08,0.35z"/>
   <path class="fil2" d="M56.04 37.54c-2.47,1.3 -3.62,4.48 -1.32,6.65 1.8,1.69 6.06,1.11 8.96,1.11 9.12,-0 59.42,0.38 61.33,-0.37 2.59,-1.02 3.57,-4.6 1.34,-6.77 -2.16,-2.1 -26.14,-1.11 -29.87,-1.11 -5.36,0 -38.34,-0.62 -40.45,0.49z"/>
   <path class="fil1" d="M127.94 150.5c-2.71,-1.22 -3.89,-4.26 -6.44,-5.72 -3.2,-1.84 -6.86,0.94 -5.99,4.55 0.47,1.94 4.24,5.17 5.58,6.5 7.63,7.63 6.81,6.31 19.83,-6.71 3.19,-3.19 23.15,-22.19 23.56,-24.74 0.62,-3.88 -3.38,-6.33 -6.47,-4.01l-30.07 30.13z"/>
   <path class="fil1" d="M24.82 219.03c0.85,4.8 9.51,3.28 14.26,3.28l34.74 0c5.21,0 13.23,1.5 12.53,-4.66 -0.6,-5.24 -9.75,-3.56 -14.46,-3.56l-34.74 0c-4.43,0 -13.48,-1.53 -12.33,4.95z"/>
   <path class="fil4" d="M205.95 213.51c1.07,2.56 4.97,5.62 7.04,7.69l14.45 14.49c7.49,7.55 15.85,-0.77 8.29,-8.29l-14.49 -14.46c-1.77,-1.76 -5.7,-6.28 -7.7,-6.98l-7.59 7.54z"/>
   <path class="fil1" d="M24.78 74.78c0.59,4.67 7.15,3.44 11.88,3.44l30.88 0c4.4,0 11.35,0.96 10.56,-4.79 -0.67,-4.8 -7.84,-3.44 -12,-3.44l-30.88 0c-4.63,-0 -11.16,-0.97 -10.43,4.79z"/>
   <path class="fil1" d="M24.78 198.28c0.51,4.02 4.92,3.44 8.99,3.44l24.61 0.01c3.98,0.02 8.03,-0.16 7.36,-4.87 -0.57,-4.04 -5.44,-3.37 -9.29,-3.37 -4.02,0.01 -8.04,0 -12.06,0 -9.46,0 -20.44,-1.86 -19.6,4.79z"/>
   <path class="fil1" d="M61.5 96.01c1.45,-3.79 -2.25,-5.42 -5.51,-5.45l-22.7 0.02c-3.43,-0.01 -7.35,-0.65 -8.36,2.87 -2.19,7.58 11.46,5.36 16.56,5.36 3.86,0 7.72,-0.01 11.58,0 4.07,0.01 7.13,0.63 8.43,-2.79z"/>
   <path class="fil1" d="M53.21 116.75c1.31,-2.81 -1.14,-5.1 -3.23,-5.49 -1.95,-0.36 -6.72,-0.11 -8.97,-0.11 -6.21,0 -14.15,-1.15 -15.82,2.34 -3.56,7.44 9.5,5.88 11.96,5.88 6.82,0 14.27,1.23 16.06,-2.63z"/>
   <path class="fil1" d="M53.21 178.5c1.31,-2.81 -1.14,-5.1 -3.23,-5.49 -1.95,-0.36 -6.72,-0.11 -8.97,-0.11 -6.21,0 -14.15,-1.15 -15.82,2.34 -1.25,2.62 0.34,5.19 2.82,5.73 1.86,0.41 6.95,0.15 9.15,0.15 6.82,0 14.27,1.23 16.06,-2.63z"/>
   <path class="fil1" d="M24.78 136.53c0.6,4.78 7.94,3.44 12.85,3.44 4.57,0 12.59,1.31 11.64,-4.83 -0.75,-4.86 -8.62,-3.4 -13.09,-3.4 -4.77,0 -12.16,-1.24 -11.4,4.79z"/>
   <path class="fil1" d="M24.82 157.27c0.81,4.55 8.21,3.28 12.81,3.28 4.48,0 12.3,1.38 11.67,-4.7 -0.52,-5.03 -8.6,-3.52 -13.12,-3.52 -4.38,-0 -12.47,-1.29 -11.37,4.95z"/>
   <path class="fil5" d="M166.8 28.79c-1.08,-1.87 -12.61,-13.4 -14.45,-14.38 -0.35,15.72 -1.35,14.82 14.45,14.38z"/>
   <path class="fil5" d="M194.08 202.13c1.36,1.82 4.12,4.97 6.31,5.84l7.53 -7.64c-0.76,-2.12 -3.96,-4.94 -5.76,-6.25 -2.89,2.44 -5.53,5.24 -8.08,8.06z"/>
  </g>
 </g>
</svg>
