<?xml version="1.0" encoding="UTF-8"?>
<!DOCTYPE svg PUBLIC "-//W3C//DTD SVG 1.1//EN" "http://www.w3.org/Graphics/SVG/1.1/DTD/svg11.dtd">
<!-- Creator: CorelDRAW 2020 (64-Bit) -->
<svg xmlns="http://www.w3.org/2000/svg" xml:space="preserve" width="115.333mm" height="122.036mm" version="1.1" style="shape-rendering:geometricPrecision; text-rendering:geometricPrecision; image-rendering:optimizeQuality; fill-rule:evenodd; clip-rule:evenodd"
viewBox="0 0 260.73 275.88"
 xmlns:xlink="http://www.w3.org/1999/xlink"
 xmlns:xodm="http://www.corel.com/coreldraw/odm/2003">
 <defs>
  <style type="text/css">
   <![CDATA[
    .fil0 {fill:black}
    .fil6 {fill:#454045}
    .fil9 {fill:#5490F9}
    .fil2 {fill:#655D65}
    .fil5 {fill:#7EB3FA}
    .fil10 {fill:#B4D0D5}
    .fil8 {fill:#DCE9EE}
    .fil7 {fill:#EAB14D}
    .fil4 {fill:#F1B986}
    .fil1 {fill:#F1D0A4}
    .fil3 {fill:#F3DB45}
   ]]>
  </style>
 </defs>
 <g id="Capa_x0020_1">
  <metadata id="CorelCorpID_0Corel-Layer"/>
  <g id="_2695641656560">
   <path class="fil0" d="M183.52 267.77l-4.88 -0.01c0.74,-6.22 4.68,-10.34 9.76,-11.94 2.84,-1.7 11.41,-0.95 15.27,-0.95 2.68,0 5.45,0.07 8.12,0.02 3.67,-0.07 4.23,-0.43 5.37,-3.15l0.16 -7.48 6.83 -0.13 10.84 -0.01c0.65,22.92 1.4,23.64 -14.07,23.64 -12.46,-0 -24.94,-0.05 -37.4,0zm-103.63 -267.77l1.88 0c4.24,0.08 8.33,0.68 11.79,1.81 11.71,3.83 22.56,12.41 27.07,23.58 3.68,9.1 3.99,12.22 3.86,21.51 -0.04,2.86 -1.84,7.59 1.37,6.54 0.19,-0.06 0.33,-0.16 0.52,-0.31 1.02,-0.81 7.29,-12.51 23.4,-12.75 9.62,-0.14 22.26,3.69 29.66,8.64 11.91,-17.78 26.64,-13.37 27.48,-3.23 1.49,-1 2.27,-2.11 3.76,-3.24 12.18,-9.29 26.41,-7.7 26.41,7.55 7.07,-4.73 16.41,-9.22 22.1,-0.01 5.81,9.4 -6.27,26.27 -11.86,33.41 -2.33,2.97 -6.75,7.28 -6.81,9.06l2.5 29.73c11.64,0.97 20.19,18.74 10.11,29.51 -2.4,2.57 -5.75,5.69 -10.11,6.05 0,5.76 -0.06,9.63 -0.92,14.17 -0.62,3.28 -2.41,8.32 -3.81,10.74 -2.68,4.61 -9.43,13.72 -14.12,14.97l0 1.08c1.81,0.48 2.62,1.38 3.91,2.55 4.16,3.77 8.55,6.27 4.71,11.36 -6.55,2.03 -4.41,-1.79 -13.34,-7.58 -5.62,-3.64 -5.2,-2.35 -17.79,-0.83 1.82,4.15 3.28,7.21 3.32,12.81 0.03,4 -1.25,10.34 -3.46,12.91 -4.21,4.91 -19.12,-4.41 -23.33,-5.87l0.13 27.87c4.3,-2.17 6.01,-4.66 13.02,-5.21 5.5,-0.43 12.21,-0.1 17.83,-0.1 0.09,-2.92 -0.32,-12.81 0.25,-14.75 0.69,-2.36 5.23,-5.52 7.86,0.24l0.04 3.75 6.58 0.04 11.16 0.02c-0,-3.44 -0.13,-6.29 -0.81,-9.56 -0.95,-4.59 0.11,-4.83 2.3,-7.19 3.38,0.07 4.78,1.29 5.55,4.17 1.93,7.25 2.49,37.72 -0.22,43.7 -1.75,3.85 -5.23,7.13 -9.93,8.39 -0.49,0.13 -2.75,0.23 -6.3,0.31l-105.95 0c-5.87,-0.23 -8.91,-2.59 -11.77,-6.07 -3.23,-3.93 -2.84,-8.6 -2.84,-15.48 0,-11.88 -1.05,-24.85 2.35,-34.83 2.31,-6.78 11.38,-19.3 16.51,-20.67 -0.39,-1.47 -0.66,-1.33 -1.66,-2.11 -13.15,-10.19 -17.2,-20.42 -17.2,-38.84 -7.96,-0.66 -18.74,-12.81 -12.59,-25.52 2.82,-5.81 3.52,-2.71 1.81,-10.05 -6.06,0 -23.34,1.94 -29.27,-0.9 -7.98,-3.82 -10.77,-13.2 -6.83,-20.65 -3.78,-2 -7.06,-4.72 -8.42,-9.36 -1.94,-6.62 0.21,-9.5 2.49,-13.81 -0.91,-1.25 -1.85,-1.47 -3.11,-2.81 -6.94,-7.36 -11.95,-17.62 -12.52,-28.44 -0.61,-11.67 2.74,-19.51 7.97,-27.6 2.02,-3.14 3.38,-4.02 7.12,-2.03 3.19,6.85 -1.54,4.43 -5.3,16.8 -4.4,14.43 2.03,32.06 12.36,38.67 1.91,1.22 3.21,0.52 5.88,0.43l11.89 -0.64c0.13,-19.48 -0.33,-6.17 -8.2,-16.39 -9.38,-12.18 3.01,-18.75 4.81,-9.19 1.75,9.24 13.03,10.06 15.01,-0.16 1.08,-5.62 6.55,-5.4 7.83,-1.6 1.25,3.71 -1.35,8.58 -2.85,10.81 -3.01,4.46 -8.06,4.54 -8.44,6.53l0.03 10.56c17.28,1.07 17.62,1.65 24.36,-7.09 13.56,-17.6 7.66,-42.87 -11.83,-53.3 -3.13,-1.67 -8.54,-4.16 -12.54,-3.38 -0.13,-0.07 -0.33,-0.3 -0.41,-0.18l-3.46 -0.49c-1.38,0.01 -2.84,0.1 -4.21,0.26 -11.82,1.32 -14.42,7.66 -19.52,3.7 -1.22,-3.05 -0.74,-4.63 1.5,-6.23 5.23,-3.73 13.36,-5.67 21.27,-5.81zm41.55 244.12l9.48 0.01c0.14,5.56 -1.37,10.42 4.84,10.75 11.8,0.63 31.96,-3.94 33.88,12.83l-45.71 0.06c-5.71,0.01 -10.06,-0.73 -10.65,-6.48 -0.46,-4.54 -0.13,-12.31 -0.03,-17.09l8.19 -0.07zm63.43 -25.89l2.64 -1.62c4.98,-2.65 4.74,-4.74 8.03,-6.64 1.5,6.09 1.58,6.29 0.63,12.81 -3.55,-0.71 -8.68,-2.7 -11.29,-4.54zm-32.81 4.37c-0.77,-4.31 -1.27,-8.72 0.97,-12.48l0.58 0.51c6.66,6.5 1.48,2.18 9.95,7.44 -1.86,1.55 -8.33,4.33 -11.5,4.53zm7.7 -17.66l28.72 -0.18c-1.74,4.04 -8.3,7.14 -14.44,7.1 -7.32,-0.05 -11.62,-3.14 -14.29,-6.92zm-38.8 31.12l-7.74 -0.04c0.01,-9.28 1.99,-15.76 6.19,-21.78 2.09,-2.99 11.01,-12.92 16.42,-11.33l10.76 1.5c-3.11,6.96 -5.44,18.72 0.01,25.64 4.1,5.2 19.63,-4.81 23.48,-5.78l0 27.77c-4.22,-2 -6.12,-4.48 -12.75,-5.15 -5.59,-0.56 -12.46,-0.05 -18.24,-0.18 -0.1,-4.27 2.29,-21.35 -5.98,-17.19 -2.17,1.09 -2.15,3.53 -2.15,6.52l-10 0.01zm20.8 -126.75c15.41,7.44 29.71,11.53 49.95,9.14 15.48,-1.83 25.73,-6.83 36.89,-15.93 1.55,-1.26 2.65,-2.53 4.27,-3.34 1.8,13.57 2.32,29.71 2.31,43.61 -0.02,15 1.12,29.11 -6.6,39.99 -3.01,4.24 -7.26,7.78 -12.81,10.37 -6.21,2.9 -12.44,2.94 -19.76,3.19 -15.2,0.52 -30.58,0.52 -45.72,-0.08 -14.9,-0.57 -26,-3.62 -33.48,-18.36 -5.29,-10.44 -3.77,-35.07 -3.56,-48.13 10.1,-2.94 14.97,-6.55 19.81,-15.59l3.14 -7.1c0.61,-1.15 0.3,-0.57 0.66,-1 1.4,0.83 3.61,2.21 4.9,3.22zm101.52 39.68l-0.12 -18.01c3.29,0.93 6.12,4.55 6.1,9.11 -0.02,4.24 -3.02,8.29 -5.98,8.9zm-138.19 -18.08l-0.16 18.2c-7.71,-2.75 -8.21,-14.69 0.16,-18.2zm-29.83 -29.33c7.66,0 21.83,-2.76 21.39,6.72 -0.39,8.6 -13.88,6.03 -21.37,6.05 -5.58,-0.02 -10.73,-0.46 -10.64,-6.57 0.09,-5.86 5.05,-6.17 10.62,-6.19zm-2.11 -8.12c-6.46,0 -16.04,1.55 -15.74,-6.72 0.27,-7.53 9.29,-6.09 16.02,-6.02 3.79,-0.05 24.44,-0.71 27.18,0.79 1.84,1.01 3.37,3.13 3.31,5.75 -0.13,6.47 -6.39,6.21 -12.32,6.2 -6.15,-0.01 -12.3,0.01 -18.45,-0.01zm164.03 -31.51c1.88,-3.05 6.82,-7.46 11.28,-8.72 10.5,-1.88 -2.73,18.88 -6.03,23.23 -8.32,10.95 -20.9,23.26 -33.42,29.1 -12.21,5.69 -28.87,6.65 -43.17,3.92 -6.36,-1.22 -13.34,-3.54 -18.39,-6.36 -9.01,-5.04 -9.99,-9.37 -15.4,-8.34 -2.4,2.65 -2.37,6.45 -3.93,10.71 -6.05,16.6 -13.37,15.07 -25.21,17.34 -1.81,-8.71 -0.82,-4.01 1.26,-10.57 1.61,-5.07 0.16,-7.57 -1.09,-11.5 3.88,-3.03 6.63,-3.84 8.33,-9.3 1.95,-6.28 -0.91,-9.66 -2.53,-13.87 2.65,-2.54 4.83,-4.77 6.96,-7.57 1.92,-2.52 3.71,-6.85 5.41,-8.78 2.47,0.53 5.28,2.22 7.46,1.8 2.32,-0.45 2.86,-2.81 4.44,-4.53 7.59,-14.5 27.79,-10.26 41.32,-2.91 -1.46,3 -7.45,9.15 -10.26,11.08 -2.57,1.76 -5.6,1.72 -5.44,5.51 0.17,4.16 3.58,3.74 6.84,3.47 1.13,-1.49 5.27,-3.21 8.76,-6.91 6.71,-7.13 15.43,-22.64 22.31,-23.6l1.79 0.39c1.42,5.4 0.93,9.19 -0.2,14.82 -1.16,5.8 3.38,8.09 7.44,3.77 2.02,-6.38 8.2,-14.82 12.81,-16.81 1.84,-2.29 6.4,-2.42 9.56,-1.63 2.49,7.31 -3.01,15.58 -3.22,18.52 -0.25,3.53 3.45,5.63 6.51,3.36 2.34,-1.74 3.24,-5.1 5.8,-5.61z"/>
   <path class="fil1" d="M162.95 155.19c2.42,3.21 3.32,5.66 7.12,7.21 7.88,3.23 11.59,-2.47 13.96,-5.85 2.9,-4.13 12.44,-0.35 3.57,8.94 -8.78,9.19 -23.24,6.78 -29.2,-2.75 -2.63,-4.2 -2.02,-8.53 4.55,-7.55zm39.24 -28.04c7.81,-4.46 10.96,12.28 4.06,16.08 -6.94,3.83 -11.54,-11.81 -4.06,-16.08zm-60.43 -17.84l-0.43 17.91c5.67,-2.6 8.63,2.67 8.52,8.01 -0.13,6.35 -2.63,8.6 -8.23,8.36 -1.5,2.04 -0.18,25.66 0.3,29.74 1.86,15.49 6.32,18.11 8.37,22.94 15.14,0.6 30.52,0.6 45.72,0.08 7.32,-0.25 13.55,-0.29 19.76,-3.19 5.55,-2.59 9.8,-6.13 12.81,-10.37 7.72,-10.89 6.58,-24.99 6.6,-39.99 0.02,-13.9 -0.5,-30.04 -2.31,-43.61 -1.62,0.81 -2.72,2.08 -4.27,3.34 -11.16,9.1 -21.41,14.1 -36.89,15.93 -20.24,2.4 -34.55,-1.69 -49.95,-9.14z"/>
   <path class="fil2" d="M165.6 75.66c-3.26,0.26 -6.67,0.69 -6.84,-3.47 -0.16,-3.79 2.87,-3.75 5.44,-5.51 2.82,-1.93 8.8,-8.08 10.26,-11.08 -13.54,-7.35 -33.73,-11.59 -41.32,2.91 -0.53,2.64 -1.84,5.59 -2.56,8.48 -0.74,2.99 -1.24,6.03 -1.49,9.12 -0.4,5.01 -0.4,15.65 2.96,18.67 5.41,-1.03 6.38,3.3 15.4,8.34 5.05,2.82 12.03,5.15 18.39,6.36 14.3,2.73 30.96,1.78 43.17,-3.92 12.53,-5.84 25.1,-18.15 33.42,-29.1 3.3,-4.35 16.53,-25.1 6.03,-23.23 -1.73,2.06 -9.33,7.58 -11.28,8.72 -2.57,0.52 -3.47,3.88 -5.8,5.61 -3.06,2.28 -6.77,0.17 -6.51,-3.36 0.21,-2.95 5.71,-11.21 3.22,-18.52 -3.17,-0.79 -7.73,-0.66 -9.56,1.63 -1.82,3.46 -3.31,6.01 -5,9.94 -1.89,4.41 -2.33,6.4 -7.82,6.87 -4.06,4.32 -8.6,2.03 -7.44,-3.77 1.13,-5.64 1.62,-9.42 0.2,-14.82l-1.79 -0.39 -10.29 20.54c-7.02,10.76 -14.07,8.53 -20.78,9.97z"/>
   <path class="fil3" d="M76.55 71.97c0.13,-19.48 -0.33,-6.17 -8.2,-16.39 -9.38,-12.18 3.01,-18.75 4.81,-9.19 1.75,9.24 13.03,10.06 15.01,-0.16 1.08,-5.62 6.55,-5.4 7.83,-1.6 1.25,3.71 -1.35,8.58 -2.85,10.81 -3.01,4.46 -8.06,4.54 -8.44,6.53l0.03 10.56c17.28,1.07 17.62,1.65 24.36,-7.09 13.56,-17.6 7.66,-42.87 -11.83,-53.3 -3.13,-1.67 -8.54,-4.16 -12.54,-3.38 -4.94,0.17 -6.21,1.49 -9.49,3.97 -7.21,5.43 -13.03,14.76 -14.7,24.65 -1.85,10.98 0.95,22.18 7.38,30.49 3.43,4.43 1.34,4.11 8.63,4.11z"/>
   <path class="fil4" d="M150.29 196.27c-2.05,-4.83 -6.51,-7.45 -8.37,-22.94 -0.49,-4.08 -1.81,-27.7 -0.3,-29.74 -1.55,-2.01 -3.42,-4.28 -3.48,-8.35 -0.05,-3.88 1.35,-6.08 3.19,-8.02l0.43 -17.91c-1.29,-1.01 -3.5,-2.39 -4.9,-3.22 -0.35,0.43 -0.05,-0.14 -0.66,1l-3.14 7.1c-4.84,9.04 -9.71,12.65 -19.81,15.59 -0.21,13.05 -1.73,37.68 3.56,48.13 7.47,14.74 18.57,17.79 33.48,18.36z"/>
   <path class="fil5" d="M217.26 232.24c2.23,1 3.99,0.63 6.55,0.63l0.06 3.17 11.16 0.02c-0,-3.44 -0.13,-6.29 -0.81,-9.56 -0.95,-4.59 0.11,-4.83 2.3,-7.19l-3.75 -6.56c-6.55,2.03 -4.41,-1.79 -13.34,-7.58 -5.62,-3.64 -5.2,-2.35 -17.79,-0.83 1.82,4.15 3.28,7.21 3.32,12.81 0.03,4 -1.25,10.34 -3.46,12.91 -4.21,4.91 -19.12,-4.41 -23.33,-5.87l0.13 27.87c4.3,-2.17 6.01,-4.66 13.02,-5.21 5.5,-0.43 12.21,-0.1 17.83,-0.1 0.09,-2.92 -0.32,-12.81 0.25,-14.75 0.69,-2.36 5.23,-5.52 7.86,0.24z"/>
   <path class="fil6" d="M132.04 94.77c-3.35,-3.02 -3.35,-13.66 -2.96,-18.67 0.25,-3.09 0.75,-6.14 1.49,-9.12 0.72,-2.89 2.03,-5.83 2.56,-8.48 -1.59,1.72 -2.12,4.08 -4.44,4.53 -2.18,0.42 -4.99,-1.27 -7.46,-1.8 -1.7,1.93 -3.49,6.26 -5.41,8.78 -2.13,2.8 -4.31,5.03 -6.96,7.57 1.62,4.21 4.49,7.59 2.53,13.87 -1.7,5.46 -4.45,6.27 -8.33,9.3 1.25,3.93 2.7,6.43 1.09,11.5 -2.08,6.56 -3.07,1.86 -1.26,10.57 11.84,-2.28 19.16,-0.74 25.21,-17.34 1.55,-4.26 1.53,-8.06 3.93,-10.71z"/>
   <path class="fil5" d="M120.96 236.06l10 -0.01c0,-2.99 -0.02,-5.43 2.15,-6.52 8.27,-4.16 5.88,12.92 5.98,17.19 5.78,0.13 12.65,-0.38 18.24,0.18 6.63,0.67 8.53,3.15 12.75,5.15l0 -27.77c-3.85,0.97 -19.38,10.98 -23.48,5.78 -5.46,-6.92 -3.12,-18.69 -0.01,-25.64l-10.76 -1.5c-0.52,0.71 -0.26,0.32 -0.88,0.97 -0.1,0.11 -0.66,0.64 -0.85,0.83 -3.91,3.93 -6.09,5.83 -8.99,11.45 -3.14,6.08 -4.14,12.23 -4.15,19.9z"/>
   <path class="fil7" d="M57.12 12.05c-1.37,0.6 -1.33,0.91 -2.56,2.1 -1.25,1.22 -1.97,1.39 -2.84,2.56 3.19,6.85 -1.54,4.43 -5.3,16.8 -4.4,14.43 2.03,32.06 12.36,38.67 1.91,1.22 3.21,0.52 5.88,0.43l11.89 -0.64c-7.3,0 -5.2,0.32 -8.63,-4.11 -6.44,-8.31 -9.24,-19.51 -7.38,-30.49 1.67,-9.89 7.49,-19.22 14.7,-24.65 3.28,-2.47 4.55,-3.8 9.49,-3.97 -0.13,-0.07 -0.33,-0.3 -0.41,-0.18l-3.46 -0.49c-1.38,0.01 -2.84,0.1 -4.21,0.26 -11.82,1.32 -14.42,7.66 -19.52,3.7z"/>
   <path class="fil1" d="M217.17 251.74c-1.14,2.71 -1.7,3.07 -5.37,3.15 -2.67,0.05 -5.44,-0.02 -8.12,-0.02 -3.86,0 -12.44,-0.75 -15.27,0.95 -1.91,2.62 -5.78,7.34 -4.89,11.95 12.46,-0.05 24.94,-0.01 37.4,-0 15.46,0 14.72,-0.72 14.07,-23.64l-10.84 0.01 -0.3 6.39c-3.54,0 -4.62,-0.76 -6.68,1.22z"/>
   <path class="fil1" d="M123.93 267.76l45.71 -0.06c-1.92,-16.76 -22.08,-12.2 -33.88,-12.83 -6.21,-0.33 -4.7,-5.19 -4.84,-10.75l-9.48 -0.01c-0.61,1.92 -1.94,18.04 1.56,22.54l0.92 1.11z"/>
   <path class="fil8" d="M73.15 93.47c6.15,0.01 12.3,-0 18.45,0.01 5.94,0.01 12.19,0.27 12.32,-6.2 0.05,-2.62 -1.48,-4.74 -3.31,-5.75 -2.74,-1.5 -23.39,-0.84 -27.18,-0.79 -2.98,5.92 -2.24,6.98 -0.28,12.74z"/>
   <path class="fil0" d="M158.39 162.75c5.96,9.53 20.43,11.94 29.2,2.75 8.87,-9.29 -0.67,-13.07 -3.57,-8.94 -2.37,3.38 -6.09,9.08 -13.96,5.85 -3.8,-1.56 -4.7,-4 -7.12,-7.21 -6.57,-0.98 -7.18,3.35 -4.55,7.55z"/>
   <path class="fil8" d="M75.29 114.35c7.49,-0.02 20.98,2.55 21.37,-6.05 0.44,-9.48 -13.73,-6.71 -21.39,-6.72 -2.33,5.99 -2.68,6.69 0.02,12.76z"/>
   <path class="fil9" d="M120.96 236.06c0,-7.67 1.01,-13.82 4.15,-19.9 2.9,-5.62 5.08,-7.51 8.99,-11.45 0.19,-0.19 0.75,-0.73 0.85,-0.83 0.62,-0.65 0.36,-0.26 0.88,-0.97 -5.41,-1.59 -14.33,8.34 -16.42,11.33 -4.2,6.01 -6.18,12.5 -6.19,21.78l7.74 0.04z"/>
   <path class="fil6" d="M165.6 75.66c6.71,-1.44 13.76,0.79 20.78,-9.97l10.29 -20.54c-6.88,0.96 -15.6,16.47 -22.31,23.6 -3.49,3.7 -7.63,5.42 -8.76,6.91z"/>
   <path class="fil0" d="M-0 40.95c0,5.88 12.2,4.31 18.86,4.31 7.96,0 7.33,-8.62 1.62,-8.62 -5.21,0 -17.3,-0.97 -19.27,1.2 -0.51,0.56 -1.2,2.26 -1.2,3.11z"/>
   <path class="fil0" d="M26.4 28.56c4.02,0 4.85,-0.83 4.85,-4.85 0,-1.75 -5.5,-6.3 -6.87,-7.68 -3.28,-3.28 -5.32,-6.87 -8.76,-6.87 -3.14,0 -4.46,2.9 -3.87,4.95 0.78,2.67 12.58,14.44 14.64,14.44z"/>
   <path class="fil0" d="M11.85 67.35c0,2.42 0.38,5.39 3.77,5.39 2.99,0 15.63,-12.64 15.63,-15.63 0,-2.88 -1.96,-4.31 -3.77,-4.31 -3.3,0 -15.63,13.41 -15.63,14.55z"/>
   <path class="fil4" d="M123.93 267.76l-0.92 -1.11c-3.5,-4.5 -2.17,-20.62 -1.56,-22.54l-8.19 0.07c-0.11,4.79 -0.44,12.55 0.03,17.09 0.59,5.75 4.93,6.49 10.65,6.48z"/>
   <path class="fil10" d="M73.15 93.47c-1.96,-5.76 -2.7,-6.82 0.28,-12.74 -6.73,-0.07 -15.75,-1.52 -16.02,6.02 -0.3,8.27 9.28,6.72 15.74,6.72z"/>
   <path class="fil0" d="M141.33 127.22c-1.84,1.94 -3.24,4.14 -3.19,8.02 0.05,4.07 1.93,6.34 3.48,8.35 5.6,0.24 8.1,-2.01 8.23,-8.36 0.11,-5.34 -2.86,-10.61 -8.52,-8.01z"/>
   <path class="fil0" d="M202.19 127.16c-7.48,4.27 -2.88,19.91 4.06,16.08 6.9,-3.8 3.75,-20.54 -4.06,-16.08z"/>
   <path class="fil4" d="M159.76 204.94c2.67,3.77 6.96,6.87 14.29,6.92 6.13,0.04 12.7,-3.05 14.44,-7.1l-28.72 0.18z"/>
   <path class="fil10" d="M75.29 114.35c-2.7,-6.07 -2.35,-6.77 -0.02,-12.76 -5.57,0.02 -10.53,0.33 -10.62,6.19 -0.09,6.12 5.05,6.55 10.64,6.57z"/>
   <path class="fil4" d="M243.28 149c2.97,-0.61 5.97,-4.66 5.98,-8.9 0.02,-4.57 -2.81,-8.19 -6.1,-9.11l0.12 18.01z"/>
   <path class="fil4" d="M105.09 130.92c-8.37,3.51 -7.86,15.45 -0.16,18.2l0.16 -18.2z"/>
   <path class="fil9" d="M152.06 222.6c3.17,-0.19 9.63,-2.98 11.5,-4.53 -8.47,-5.26 -3.29,-0.94 -9.95,-7.44l-0.58 -0.51c-2.23,3.76 -1.73,8.16 -0.97,12.48z"/>
   <path class="fil9" d="M184.88 218.23c2.61,1.84 7.74,3.83 11.29,4.54 0.95,-6.51 0.87,-6.72 -0.63,-12.81 -3.29,1.91 -3.05,3.99 -8.03,6.64l-2.64 1.62z"/>
   <path class="fil6" d="M205.7 64.13c5.49,-0.47 5.93,-2.46 7.82,-6.87 1.68,-3.93 3.17,-6.48 5,-9.94 -4.61,1.99 -10.79,10.42 -12.81,16.81z"/>
   <path class="fil4" d="M217.17 251.74c2.06,-1.97 3.14,-1.22 6.68,-1.22l0.3 -6.39 -6.83 0.13 -0.16 7.48z"/>
   <path class="fil4" d="M183.52 267.77c-0.9,-4.61 2.98,-9.33 4.89,-11.95 -5.08,1.6 -9.02,5.72 -9.76,11.94l4.88 0.01z"/>
   <path class="fil9" d="M223.87 236.03l-0.06 -3.17c-2.56,0 -4.32,0.38 -6.55,-0.63l0.04 3.75 6.58 0.04z"/>
   <path class="fil6" d="M237.18 61.96c1.95,-1.14 9.55,-6.66 11.28,-8.72 -4.47,1.26 -9.4,5.67 -11.28,8.72z"/>
  </g>
 </g>
</svg>
