<?xml version="1.0" encoding="UTF-8"?>
<!DOCTYPE svg PUBLIC "-//W3C//DTD SVG 1.1//EN" "http://www.w3.org/Graphics/SVG/1.1/DTD/svg11.dtd">
<!-- Creator: CorelDRAW 2020 (64-Bit) -->
<svg xmlns="http://www.w3.org/2000/svg" xml:space="preserve" width="100.256mm" height="100.23mm" version="1.1" style="shape-rendering:geometricPrecision; text-rendering:geometricPrecision; image-rendering:optimizeQuality; fill-rule:evenodd; clip-rule:evenodd"
viewBox="0 0 8411.78 8409.6"
 xmlns:xlink="http://www.w3.org/1999/xlink"
 xmlns:xodm="http://www.corel.com/coreldraw/odm/2003">
 <defs>
  <style type="text/css">
   <![CDATA[
    .fil2 {fill:black}
    .fil8 {fill:#04311B}
    .fil7 {fill:#064526}
    .fil5 {fill:#0D3A0E}
    .fil1 {fill:#10B966}
    .fil6 {fill:#124F14}
    .fil0 {fill:#32D536}
    .fil4 {fill:#C5C9F7}
    .fil3 {fill:#E1E4FB}
   ]]>
  </style>
 </defs>
 <g id="Capa_x0020_1">
  <metadata id="CorelCorpID_0Corel-Layer"/>
  <g id="_2695371738784">
   <path class="fil0" d="M4242.8 7929.82l0 -960.55c-29.15,-23.35 -8.95,-12.76 -54.69,-31.09 -15.96,-6.39 -40.29,-9.7 -54.73,-12.28 -220.75,-26.08 -330.63,-98.41 -445.49,-221.65 -92.77,-99.53 -203.52,-258.18 -195.89,-442.92 -71.8,-144.79 -26.5,-1089.82 -26.5,-1334.43 -103.33,0 -1199.39,29.32 -1294.46,-21.61 -363.69,28.79 -681.92,-324.74 -705.15,-668.72 -15.07,-223.26 55.84,-386.13 156.4,-526.67 67.49,-94.32 264.68,-251.16 446.65,-248.67 63.15,-65.4 1210.59,-34.06 1400.24,-34.06 0,-178.19 -41.89,-1259.19 32.07,-1315.88 -40.29,-325.5 334.97,-620.93 632.13,-654.35l90.43 -31.59c4.86,-2.58 13.17,-7.13 18.99,-11.79l0 -960.55c-1178.72,31.18 -2100.91,504.21 -2675.8,1095.24l-228.63 234.06c-217.85,279.71 -382.08,539.22 -542.85,868.87 -648.96,1330.63 -288.08,3203.17 777.26,4177.63l238.32 224.91c89.07,75.94 165.38,134.47 260.43,202.23 620.68,442.5 1369.79,651.43 2171.27,673.84z"/>
   <path class="fil1" d="M4133.38 1456.96c402.03,-41.44 870.18,303.28 811.12,670.44 3.31,5.18 8.28,11.44 9.93,15.51 1.69,4.13 6.92,11.26 8.7,16.62l11.05 1267.98c152.51,0 1355.57,-24.48 1373.2,35.92 332.83,9.18 631.39,393.26 599.03,774.99 -16.08,189.65 -121.51,376.83 -210.94,464.34 -89.95,88.01 -290.68,214.16 -476.07,195.93 -53.45,55.74 -1110.15,28.37 -1281.25,28.37 0,237.57 52.15,1215.7 -31.64,1348.38 21.61,371.15 -399.11,693.15 -813.14,650.47 14.44,2.58 38.77,5.88 54.73,12.28 45.74,18.33 25.54,7.74 54.69,31.09l0 960.55c1043.79,-57.87 1909.11,-376.15 2604.57,-1101.23 695.51,-725.14 1088.63,-1569.15 1099.47,-2637.16 14.75,-1454.02 -859.33,-2782.09 -2172.58,-3393.44 -498.49,-232.07 -930.82,-309.94 -1531.46,-344.95l0 960.55c-5.81,4.66 -14.13,9.2 -18.99,11.79l-90.43 31.59z"/>
   <path class="fil2" d="M4242.8 453.03c600.64,35.01 1032.97,112.88 1531.46,344.95 1313.25,611.35 2187.33,1939.42 2172.58,3393.44 -10.84,1068.01 -403.96,1912.02 -1099.47,2637.16 -695.46,725.08 -1560.78,1043.37 -2604.57,1101.23 -801.47,-22.41 -1550.59,-231.35 -2171.27,-673.84 -95.05,-67.76 -171.36,-126.29 -260.43,-202.23l-238.32 -224.91c-1065.34,-974.46 -1426.22,-2847 -777.26,-4177.63 160.77,-329.65 325,-589.17 542.85,-868.87l228.63 -234.06c574.89,-591.04 1497.08,-1064.07 2675.8,-1095.24zm-36.91 -453.03c2322.85,0 4205.89,1882.56 4205.89,4204.81 0,2322.23 -1883.04,4204.79 -4205.89,4204.79 -506.25,0 -991.62,-89.44 -1441.12,-253.4 -390.68,-146.33 -766.92,-351.68 -1117.36,-614.85 -20.77,-15.6 -43.12,-32.86 -66.55,-51.42 -16.74,-13.39 -33.55,-26.68 -50.08,-40.32l-0.31 -0.26c-152.71,-126.02 -296.35,-262.63 -429.81,-408.7 -2.66,-3.31 -5.29,-6.59 -7.81,-9.83l-178.53 -208.61c-572.19,-718.24 -914.32,-1627.83 -914.32,-2617.4 0,-2322.25 1883.04,-4204.81 4205.89,-4204.81z"/>
   <path class="fil2" d="M4233.55 1947.22c192.6,32.81 236.31,120.65 237.87,345.43 2.48,360.32 -67.24,1455.71 86.71,1574.46 162.09,125.05 1226.94,50.26 1598.04,63.59 400.31,14.36 412.36,489.94 -46.84,492.91l-1112 -0.71c-613.8,-0.5 -526.67,3.47 -526.67,1111.15 0,473.48 82.6,825.82 -215.48,894.3 -377.88,55.21 -282.16,-521.46 -282.16,-848 0,-1166.73 94.22,-1157.73 -549.81,-1157.44 -185.19,0.08 -370.38,0 -555.57,0 -431.5,0 -885.31,85.72 -903.23,-232.41 -20.85,-370.23 586.26,-259.46 880.08,-259.46 245.62,0 929.34,49.32 1053.52,-74.97 289.82,-290.07 -227.04,-1935.04 335.53,-1908.85zm-732.3 164.09c14.91,402.36 -10.19,912.44 -10.19,1337.76 -238.67,0 -477.34,0 -716.01,0 -114.07,0 -658.01,21.56 -706.11,12.18 -181.97,-2.48 -379.16,154.35 -446.65,248.67 -100.56,140.54 -171.46,303.41 -156.4,526.67 23.22,343.98 341.46,697.5 705.15,668.72 175.42,-14.71 1189.32,-23.58 1313.61,11.08l7.34 1344.96c-7.64,184.74 103.12,343.38 195.89,442.92 114.86,123.24 224.74,195.57 445.49,221.65 414.03,42.68 834.75,-279.31 813.14,-650.47 27.82,-435.54 11.86,-914.71 11.86,-1359.07 124.86,-33.54 1120.54,-25.2 1301.03,-17.68 185.38,18.23 386.11,-107.92 476.07,-195.93 89.43,-87.52 194.86,-274.7 210.94,-464.34 32.36,-381.72 -266.19,-765.81 -599.03,-774.99 -39.6,7.88 -593.89,-13.68 -701.88,-13.68 -231.19,0 -462.36,0 -693.54,0 0,-439.42 3.26,-890.89 -7.46,-1322.35 59.06,-367.17 -409.09,-711.88 -811.12,-670.44 -297.15,33.42 -672.42,328.85 -632.13,654.35z"/>
   <path class="fil3" d="M4255.19 6428.35l-21.64 -4481.13c-562.57,-26.19 -45.71,1618.78 -335.53,1908.85 -124.18,124.29 -807.9,74.97 -1053.52,74.97 -293.82,0 -900.93,-110.77 -880.08,259.46 17.92,318.13 471.73,232.41 903.23,232.41 185.19,0 370.38,0.08 555.57,0 644.03,-0.29 549.81,-9.29 549.81,1157.44 0,326.54 -95.72,903.21 282.16,848z"/>
   <path class="fil4" d="M4255.19 6428.35c298.08,-68.48 215.48,-420.82 215.48,-894.3 0,-1107.68 -87.13,-1111.66 526.67,-1111.15l1112 0.71c459.2,-2.97 447.15,-478.55 46.84,-492.91 -371.1,-13.33 -1435.95,61.46 -1598.04,-63.59 -153.95,-118.76 -84.24,-1214.14 -86.71,-1574.46 -1.56,-224.78 -45.27,-312.62 -237.87,-345.43l21.64 4481.13z"/>
   <path class="fil5" d="M2068.95 3461.25c48.1,9.38 592.04,-12.18 706.11,-12.18 238.67,0 477.34,0 716.01,0 0,-425.31 25.1,-935.4 10.19,-1337.76 -73.96,56.69 -32.07,1137.69 -32.07,1315.88 -189.65,0 -1337.09,-31.35 -1400.24,34.06z"/>
   <path class="fil6" d="M3492 6261.34l-7.34 -1344.96c-124.29,-34.66 -1138.19,-25.79 -1313.61,-11.08 95.06,50.92 1191.12,21.61 1294.46,21.61 0,244.62 -45.3,1189.64 26.5,1334.43z"/>
   <path class="fil7" d="M4946.52 6275.44c83.79,-132.68 31.64,-1110.81 31.64,-1348.38 171.09,0 1227.8,27.37 1281.25,-28.37 -180.49,-7.53 -1176.17,-15.87 -1301.03,17.68 0,444.36 15.97,923.53 -11.86,1359.07z"/>
   <path class="fil8" d="M6347.39 3463.43c-17.63,-60.4 -1220.69,-35.92 -1373.2,-35.92l-11.05 -1267.98c-1.78,-5.36 -7.01,-12.49 -8.7,-16.62 -1.65,-4.06 -6.63,-10.33 -9.93,-15.51 10.72,431.46 7.46,882.94 7.46,1322.35 231.18,0 462.36,0 693.54,0 107.99,0 662.28,21.55 701.88,13.68z"/>
  </g>
 </g>
</svg>
