<?xml version="1.0" encoding="UTF-8"?>
<!DOCTYPE svg PUBLIC "-//W3C//DTD SVG 1.1//EN" "http://www.w3.org/Graphics/SVG/1.1/DTD/svg11.dtd">
<!-- Creator: CorelDRAW 2020 (64-Bit) -->
<svg xmlns="http://www.w3.org/2000/svg" xml:space="preserve" width="102.139mm" height="93.6242mm" version="1.1" style="shape-rendering:geometricPrecision; text-rendering:geometricPrecision; image-rendering:optimizeQuality; fill-rule:evenodd; clip-rule:evenodd"
viewBox="0 0 190.17 174.31"
 xmlns:xlink="http://www.w3.org/1999/xlink"
 xmlns:xodm="http://www.corel.com/coreldraw/odm/2003">
 <defs>
  <style type="text/css">
   <![CDATA[
    .fil0 {fill:black}
    .fil8 {fill:#0099EC}
    .fil9 {fill:#009AEF}
    .fil5 {fill:#00AAF0}
    .fil3 {fill:#00C2FE}
    .fil2 {fill:#5ADBFA}
    .fil7 {fill:#5DC62E}
    .fil4 {fill:#7CE854}
    .fil6 {fill:#D8DCE5}
    .fil1 {fill:#E3E9F6}
   ]]>
  </style>
 </defs>
 <g id="Capa_x0020_1">
  <metadata id="CorelCorpID_0Corel-Layer"/>
  <g id="_2695214237936">
   <path class="fil0" d="M93.64 114.21c1.27,-1.43 5.7,-3.96 7.44,-5.15 2.44,-1.67 4.79,-3.26 7.28,-4.96l22.43 -15.09c1.4,-0.91 2.1,-2.11 3.93,-1.49 12,4.04 14.03,3.42 26.47,1.41l0 70.97c0,3.53 0.73,6.84 -1.86,8.22 -1.34,0.28 -7.58,-5.58 -8.71,-6.56 -2.57,-2.21 -5.48,-4.47 -8.19,-6.68l-48.81 -40.66zm96.53 -70.95l0 1.42c-0.18,1.04 -0.89,1.49 -2.23,2.22 -5.52,-0.97 -1.74,-3.83 -7.23,-13.85 -5.08,-9.27 -14.02,-15.83 -24.49,-17.83 -4.64,-0.89 -15.07,-0.7 -18.42,1.72 -12.38,3.11 -22.83,17.87 -23.04,32.26 -0.13,8.62 2.72,15.48 6.54,20.96 2.87,4.1 9.49,10.37 15.83,12.22 10.81,4.86 24.55,2 32.7,-3.73 4.16,-2.92 7.24,-6.12 10.08,-10.72 5.45,-8.82 2.66,-13.24 7.65,-13.62 1.72,0.34 1.03,0.41 2.23,1.21 0,10.2 -7.12,19.93 -14.59,26.27 -1.39,1.17 -6.64,4.51 -8.44,4.93l0 74.28c0,4.44 0.42,5.98 -1.35,9.05 -1.15,2 -3.79,3.91 -6.8,3.97 -19.62,0.38 -43.03,-0.02 -63.16,-0.02 -4.09,0 -7.31,1.05 -7.86,-2.6 0.74,-4.18 5.57,-2.92 13.43,-2.92 6.43,0 46.05,0.35 48.88,-0.16l-61.79 -51.23c-5.64,-4.39 -3.33,-5.14 -13.08,3.06l-58.16 48.17c2.7,0.53 50.06,0.2 57.78,0.16 3.22,-0.02 4.95,-0.35 5.5,2.93 -0.42,2.86 -1.88,2.63 -5.13,2.6l-52.74 -0c-7.69,0 -21.65,2.72 -22.29,-7.98l0 -30.28c0,-20.18 0,-40.36 0,-60.54l0 -11.21c0.35,-7.66 2.79,-7.18 16.61,-17.49 2.93,-2.18 5.67,-4.22 8.64,-6.21 0,-9.64 -2.06,-18.43 4.06,-21.57 3.51,-1.8 20.01,-1.1 24.55,-1.07 2.17,0.01 2.27,0.16 3.62,-0.84 0.83,-0.62 1.53,-1.22 2.31,-1.77l7.32 -5.31c0.89,-0.67 1.54,-1.06 2.39,-1.69 10.83,-7.96 12.71,-11.24 22.18,-4.09l14.61 10.65c2.77,1.88 3.14,2.96 5.48,3.07 2.71,0.12 5.8,-0.03 8.56,-0.02 5.2,0.01 3.56,0.32 6.75,-1.79 13.51,-8.93 31.6,-9.47 45.77,0.15 0.94,0.64 1.68,1.23 2.53,1.93 3.75,3.08 2.86,2.47 6.13,6.12 3.84,4.28 7.07,11.4 8.31,17.32 0.16,0.75 0.27,1.37 0.33,1.89zm-179.33 122.6c-0.84,0.91 -1.68,1.8 -3.04,2.38 -2.09,-0.91 -2.22,-1.87 -2.23,-4.61l0.01 -69.84c0,-8.05 -0.42,-17.3 0.06,-25.19 1.82,1.03 3.62,2.3 5.32,3.45 6.58,4.8 60.7,40.5 62.18,42.17l-23.43 19.62c-2.59,2.05 -5.28,4.25 -7.73,6.39l-31.14 25.63zm50.48 -66.75c-0.04,-0.15 -0.15,-0.15 -0.22,-0.25l44.59 0c-1.03,1.32 -11.18,7.89 -12.66,8.83 -1.41,0.9 -2.85,2.15 -4.31,2.74 -3.02,-2.48 -7.65,-3.4 -10.64,-0l-16.75 -11.33zm-35.96 -47.59l-0.02 23.35c-1.27,-0.51 -14.22,-9.25 -14.89,-10.02l-4.43 -3.01c0.51,-1.37 3.16,-2.95 4.54,-3.92l14.77 -10.55 0.02 4.15zm10.54 30.37c-1.86,-0.66 -3.36,-2.05 -4.93,-3.08 -0.13,-7.46 -0.71,-51.61 0.48,-55.07l4.12 -0.25 82.96 0.02c-0.85,1.69 -2.21,3.24 -3.33,4.95 -0.99,1.52 -2.01,3.52 -2.79,5.37 -1.84,4.33 -2.59,8.09 -3.17,13.13 -16.85,0 -33.69,0 -50.54,0 -6.49,0 -13.98,-1.26 -13.76,2.97 0.16,2.91 3.08,2.63 5.96,2.61l58.22 0.03 1.8 9.84c-17.41,0 -34.82,0 -52.23,0 -6.16,0 -15.23,-1.36 -13.63,3.73 0.78,2.47 4.44,1.85 6.94,1.85l60.91 -0c1.3,0.62 1.13,1.24 1.99,2.63l5.71 7.53c-4.04,-0.79 -52.46,-0.3 -60.81,-0.3 -3.72,0 -13.05,-0.79 -14.4,1.17 -0.74,1.07 -0.56,2.84 0.27,3.63 1.64,1.57 59.87,0.72 70.96,0.78 3.46,0.02 6.42,-0.39 4.88,-4.42 1.11,0.88 1.8,1.66 3.09,2.7 0.92,0.74 2.28,1.37 3.12,2.41 -1.06,1.27 -6.57,4.58 -8.31,5.77 -4.76,3.24 -3.5,3.39 -10.59,3.39 -6.56,-0 -54.19,0.41 -56.29,-0.09 -0.86,-0.21 -7.4,-4.8 -8.54,-5.52 -1.47,-0.94 -7.59,-4.87 -8.1,-5.78zm50.4 -74.62c0.55,0.23 13.42,9.23 13.62,9.96 0.77,0.43 0.5,0.02 1.02,0.69l-35.09 -0.05c1.34,-1.31 3.09,-2.41 4.69,-3.6 1.59,-1.18 3.23,-2.38 4.95,-3.59 3.71,-2.62 6.88,-6.17 9.77,-4.39 0.72,0.45 0.74,0.63 1.04,0.98z"/>
   <path class="fil1" d="M35.89 81.89c0.51,0.91 6.63,4.84 8.1,5.78 1.14,0.73 7.68,5.32 8.54,5.52 2.09,0.51 49.73,0.09 56.29,0.09 7.09,0 5.83,-0.15 10.59,-3.39 1.74,-1.19 7.25,-4.5 8.31,-5.77 -0.84,-1.04 -2.2,-1.67 -3.12,-2.41 -1.3,-1.04 -1.99,-1.82 -3.09,-2.7 1.53,4.04 -1.43,4.44 -4.88,4.42 -11.09,-0.06 -69.32,0.79 -70.96,-0.78 -0.83,-0.8 -1.01,-2.56 -0.27,-3.63 1.35,-1.96 10.68,-1.17 14.4,-1.17 8.35,0 56.77,-0.49 60.81,0.3l-5.71 -7.53c-0.87,-1.39 -0.7,-2.01 -1.99,-2.63l-60.91 0c-2.5,0 -6.16,0.62 -6.94,-1.85 -1.61,-5.09 7.46,-3.73 13.63,-3.73 17.41,0 34.82,0 52.23,0l-1.8 -9.84 -58.22 -0.03c-2.88,0.01 -5.8,0.3 -5.96,-2.61 -0.23,-4.23 7.26,-2.97 13.76,-2.97 16.85,0 33.69,0 50.54,0 0.58,-5.05 1.33,-8.8 3.17,-13.13 0.78,-1.85 1.81,-3.85 2.79,-5.37 1.11,-1.71 2.48,-3.26 3.33,-4.95l-82.96 -0.02c0,9.69 0,19.38 0,29.07 0,4.72 -0.54,26.55 0.34,29.33z"/>
   <path class="fil2" d="M80.16 171.41l7.44 0c0.74,-4.18 5.57,-2.92 13.43,-2.92 6.43,0 46.05,0.35 48.88,-0.16l-61.79 -51.23c-5.64,-4.39 -3.33,-5.14 -13.08,3.06l-58.16 48.17c2.7,0.53 50.06,0.2 57.78,0.16 3.22,-0.02 4.95,-0.35 5.5,2.93z"/>
   <path class="fil3" d="M93.64 114.21l48.81 40.66c2.71,2.21 5.62,4.47 8.19,6.68 1.13,0.98 7.37,6.85 8.71,6.56 2.59,-1.38 1.86,-4.68 1.86,-8.22l-0 -70.97c-12.44,2.01 -14.47,2.63 -26.47,-1.41 -1.83,-0.62 -2.53,0.57 -3.93,1.49l-22.43 15.09c-2.49,1.7 -4.85,3.3 -7.28,4.96 -1.74,1.19 -6.17,3.73 -7.44,5.15z"/>
   <path class="fil3" d="M10.84 165.85l31.14 -25.63c2.45,-2.14 5.14,-4.34 7.73,-6.39l23.43 -19.62c-1.48,-1.67 -55.6,-37.38 -62.18,-42.17 -0.39,0.24 -0.74,-0.17 -0.81,2.41l0.1 90.25c0.26,1.05 -0.05,0.51 0.59,1.15z"/>
   <path class="fil4" d="M146.71 48.04c1,-0.82 1.66,-1.56 2.49,-2.65l5.16 -5.99c1.06,-1.2 1.66,-1.98 2.56,-3.01 9.35,-10.64 19.12,0.38 15.49,7.7 -0.49,1 -1.72,2.59 -2.3,3.28l-7.78 8.93c-6.27,6.51 -11.2,16.6 -19.4,11.56 -1.74,-1.07 -4.5,-3.84 -5.93,-5.22 -1.02,-0.99 -1.63,-1.9 -2.69,-2.87 -2.99,-2.75 -6.47,-5.18 -6.45,-9.8 0.01,-3.62 1.87,-5.93 3.96,-7.09 7.54,-4.17 11.46,2.44 14.89,5.18zm-8.92 -31.09l-0.83 0.59c-0.07,0.05 -0.18,0.11 -0.26,0.16l-6.15 4.96c-15.37,15.49 -15.1,39.42 -0.49,53.6 0.62,0.61 0.83,0.92 1.42,1.55l5.02 3.94c0.35,0.31 0.34,0.32 0.63,0.64 10.81,4.86 24.55,2 32.7,-3.73 4.16,-2.92 7.24,-6.12 10.08,-10.72 5.45,-8.82 2.66,-13.24 7.65,-13.62 0.04,-1.53 0.33,-1.44 0.38,-3.23 0.04,-1.35 -0.01,-2.82 -0.01,-4.18 -5.52,-0.97 -1.74,-3.83 -7.23,-13.85 -5.08,-9.27 -14.02,-15.83 -24.49,-17.83 -4.64,-0.89 -15.07,-0.7 -18.42,1.72z"/>
   <path class="fil0" d="M150.3 61.19c-2.43,5.45 -6.55,-0.04 -11.03,-4.18l-4.84 -4.82c-2.12,-2.17 -0.79,-5.22 2.4,-4.98 1.89,0.59 2.35,1.63 3.56,2.74 6.98,6.45 6.12,7.4 12.98,-0.76 0.88,-1.04 1.92,-2.14 2.74,-3.21 0.89,-1.18 1.79,-2.07 2.73,-3.22 0.9,-1.11 2.09,-2.45 2.93,-3.38 3.62,-3.98 6.83,-0.4 5.45,2.45l-5.61 6.68c-0.53,0.64 -10.19,12.3 -11.31,12.68zm-3.59 -13.15c-3.43,-2.74 -7.36,-9.34 -14.89,-5.18 -2.09,1.16 -3.95,3.47 -3.96,7.09 -0.01,4.63 3.47,7.05 6.45,9.8 1.06,0.97 1.67,1.88 2.69,2.87 1.43,1.39 4.2,4.16 5.93,5.22 8.2,5.03 13.13,-5.05 19.4,-11.56l7.78 -8.93c0.58,-0.69 1.81,-2.28 2.3,-3.28 3.63,-7.32 -6.14,-18.34 -15.49,-7.7 -0.91,1.03 -1.51,1.81 -2.56,3.01l-5.16 5.99c-0.83,1.1 -1.49,1.83 -2.49,2.65z"/>
   <path class="fil5" d="M10.84 165.85c-0.63,-0.65 -0.33,-0.1 -0.59,-1.15l-0.1 -90.25c0.07,-2.58 0.42,-2.17 0.81,-2.41 -1.7,-1.15 -3.5,-2.42 -5.32,-3.45 -0.48,7.9 -0.06,17.15 -0.06,25.19l-0.01 69.84c0.01,2.75 0.14,3.71 2.23,4.61 1.36,-0.58 2.2,-1.47 3.04,-2.38z"/>
   <path class="fil1" d="M78.07 110.43c2.99,-3.4 7.62,-2.48 10.64,0 1.46,-0.59 2.9,-1.84 4.31,-2.74 1.48,-0.94 11.63,-7.52 12.66,-8.83l-44.59 -0c0.07,0.09 0.18,0.1 0.22,0.25l16.75 11.33z"/>
   <path class="fil6" d="M35.89 81.89c-0.88,-2.78 -0.34,-24.61 -0.34,-29.33 0,-9.69 0,-19.38 0,-29.07l-4.12 0.25c-1.19,3.46 -0.61,47.6 -0.48,55.07 1.57,1.03 3.07,2.42 4.93,3.08z"/>
   <path class="fil7" d="M137.13 82.38c-0.28,-0.32 -0.28,-0.33 -0.63,-0.64l-5.02 -3.94c-0.59,-0.63 -0.79,-0.94 -1.42,-1.55 -14.6,-14.18 -14.88,-38.11 0.49,-53.6l6.15 -4.96c0.08,-0.05 0.18,-0.11 0.26,-0.16l0.83 -0.59c-12.38,3.11 -22.83,17.87 -23.04,32.26 -0.13,8.62 2.72,15.48 6.54,20.96 2.87,4.1 9.49,10.37 15.83,12.22z"/>
   <path class="fil5" d="M10.46 64.84c0.66,0.77 13.62,9.51 14.89,10.02l0.02 -23.35 -8.34 5.79c-3.16,2.41 -6.73,3.91 -6.57,7.53z"/>
   <path class="fil1" d="M136.83 47.21c0.8,4.01 5.03,6.12 8.07,9.39 1.2,1.29 3.6,4.77 5.4,4.59 1.12,-0.39 10.78,-12.05 11.31,-12.68l5.61 -6.68c1.38,-2.85 -1.84,-6.43 -5.45,-2.45 -0.85,0.93 -2.04,2.27 -2.93,3.38 -0.94,1.16 -1.84,2.05 -2.73,3.22 -0.81,1.07 -1.86,2.17 -2.74,3.21 -6.86,8.16 -6,7.22 -12.98,0.76 -1.2,-1.11 -1.67,-2.16 -3.56,-2.74z"/>
   <path class="fil5" d="M99.91 17.22c-0.2,-0.72 -13.07,-9.73 -13.62,-9.96 -2.04,0.69 -8.29,5.69 -10.82,7.46 -1.14,0.8 -2.36,1.95 -3.62,2.54l28.06 -0.05z"/>
   <path class="fil8" d="M99.91 17.22l-28.06 0.05c1.26,-0.58 2.48,-1.74 3.62,-2.54 2.53,-1.77 8.78,-6.77 10.82,-7.46 -0.3,-0.35 -0.32,-0.54 -1.04,-0.98 -2.89,-1.78 -6.06,1.77 -9.77,4.39 -1.72,1.22 -3.37,2.41 -4.95,3.59 -1.6,1.19 -3.35,2.29 -4.69,3.6l35.09 0.05c-0.53,-0.68 -0.25,-0.26 -1.02,-0.69z"/>
   <path class="fil6" d="M150.3 61.19c-1.81,0.18 -4.2,-3.3 -5.4,-4.59 -3.03,-3.26 -7.26,-5.38 -8.07,-9.39 -3.18,-0.24 -4.51,2.8 -2.4,4.98l4.84 4.82c4.47,4.14 8.6,9.63 11.03,4.18z"/>
   <path class="fil9" d="M10.46 64.84c-0.16,-3.62 3.4,-5.12 6.57,-7.53l8.34 -5.79 -0.02 -4.15 -14.77 10.55c-1.38,0.97 -4.03,2.55 -4.54,3.92l4.43 3.01z"/>
  </g>
 </g>
</svg>
