<?xml version="1.0" encoding="UTF-8"?>
<!DOCTYPE svg PUBLIC "-//W3C//DTD SVG 1.1//EN" "http://www.w3.org/Graphics/SVG/1.1/DTD/svg11.dtd">
<!-- Creator: CorelDRAW 2020 (64-Bit) -->
<svg xmlns="http://www.w3.org/2000/svg" xml:space="preserve" width="117.229mm" height="117.232mm" version="1.1" style="shape-rendering:geometricPrecision; text-rendering:geometricPrecision; image-rendering:optimizeQuality; fill-rule:evenodd; clip-rule:evenodd"
viewBox="0 0 237.72 237.72"
 xmlns:xlink="http://www.w3.org/1999/xlink"
 xmlns:xodm="http://www.corel.com/coreldraw/odm/2003">
 <defs>
  <style type="text/css">
   <![CDATA[
    .fil1 {fill:black}
    .fil3 {fill:#ABD641}
    .fil0 {fill:#B6E445}
    .fil2 {fill:#FEFEFE}
   ]]>
  </style>
 </defs>
 <g id="Capa_x0020_1">
  <metadata id="CorelCorpID_0Corel-Layer"/>
  <g id="_2695633937936">
   <path class="fil0" d="M144.2 48.12c5.6,-1.63 10,0.36 13.23,3.56 3.02,3 5.58,5.52 8.64,8.53 18.16,17.86 30.47,23.9 13.26,41.14 -6.02,6.03 -11.49,11.52 -17.48,17.58l-17.7 17.35c-5.99,6.02 -11.5,11.55 -17.5,17.55 -6.03,6.02 -11.5,11.53 -17.51,17.54 -20.13,20.14 -11.99,17.73 -53.62,16.85 -11.62,-0.24 -8.86,-9.38 -8.86,-26.81 -0,-18.87 -1.99,-16.95 8.23,-27.13l52.49 -52.67c6.62,-6.57 29.52,-31.39 36.82,-33.51zm28.2 167.68c2.54,-3.57 23.15,-14.89 36.17,-38.71 21.39,-39.13 21.16,-78.01 -0.25,-116.91 -6.72,-12.2 -16.21,-21.79 -25.76,-30.05 -2.3,-1.99 -8.33,-5.65 -10.16,-8.2 -3.01,-3.62 -19.23,-9.02 -25.37,-10.59 -30.92,-7.94 -62.65,-2.52 -88.16,13.93 -25.32,16.33 -51.33,48.41 -51.19,93.97 0.24,73.75 69.94,125.32 139.9,107.02 5.98,-1.56 21.79,-6.88 24.81,-10.44z"/>
   <path class="fil1" d="M172.39 215.8c-3.02,3.56 -18.83,8.88 -24.81,10.44 -69.97,18.3 -139.67,-33.27 -139.9,-107.02 -0.15,-45.56 25.86,-77.64 51.19,-93.97 25.5,-16.44 57.23,-21.87 88.16,-13.93 6.14,1.58 22.36,6.98 25.37,10.59 12.18,3.43 32.22,24.78 40.07,36.95 23.44,36.31 23.21,83.16 0.27,119.54 -7.78,12.34 -28.06,33.86 -40.35,37.39zm-60.15 -215.56c-63.28,3.96 -116.18,57.47 -112.01,125.68 3.84,62.93 57.88,115.71 125.68,111.58 62.9,-3.83 115.72,-57.86 111.58,-125.68 -3.83,-62.65 -57.73,-115.8 -125.24,-111.58z"/>
   <path class="fil1" d="M51.35 149.27c0,-6.7 -0.09,-5.55 9.48,-2.4 7.23,2.38 5.35,12.38 10.07,17.09 2.33,2.32 12.36,4.76 15.24,6.96 1.86,1.42 2.65,5.69 3.47,8.03 1.61,4.55 1.4,4.57 -4.02,4.57 -13.59,0 -17.68,1.78 -22.49,-3.17 -14.42,-14.88 -11.77,-7.01 -11.76,-31.08zm91.48 -30.1c2.3,1.23 4.6,3.46 5.75,5.84l-53.68 53.54c-1.59,-2.1 -2.48,-5.52 -3.14,-8.66l51.07 -50.72zm-74.27 27.24c7.86,-8.71 17.21,-17.21 25.67,-25.71 3.91,-3.93 22.65,-23.77 25.85,-25.1 3.7,4.9 17.38,15.95 19.1,20.07l-50.72 50.65c-1.84,-0.41 -12.87,-4.93 -13.93,-5.98 -1.11,-1.1 -5.58,-12.01 -5.97,-13.92zm41.37 -60.04c2.32,1.06 4.55,3.38 5.96,5.85l-51.03 50.76c-2.88,-0.43 -6.65,-1.52 -8.68,-3.13l53.75 -53.48zm12.28 -11.79l37.98 38.21c-1.18,2.27 -6.24,7.1 -8.06,8.3 -2.54,-2.48 -6.88,-6.61 -9.68,-9.36l-19.31 -19.31c-2.15,-2.18 -7.35,-6.77 -9.47,-9.82l8.54 -8.02zm3.46 -4c3.16,-2.97 15.8,-17.02 19.43,-17.86 8.11,-1.89 13.37,6.7 22,15.06 7.73,7.49 17.11,13.86 15.08,22.01 -0.92,3.67 -14.83,16.45 -17.88,19.46 -2.77,-1.35 -16.38,-15.77 -19.64,-19.03 -3.24,-3.23 -17.73,-16.87 -18.99,-19.64zm18.54 -22.46c-7.3,2.12 -30.2,26.94 -36.82,33.51l-52.49 52.67c-10.23,10.18 -8.24,8.26 -8.23,27.13 0,17.43 -2.75,26.56 8.86,26.81 41.63,0.88 33.49,3.29 53.62,-16.85 6.01,-6.01 11.48,-11.52 17.51,-17.54 6.01,-6 11.51,-11.54 17.5,-17.55l17.7 -17.35c5.98,-6.06 11.45,-11.55 17.48,-17.58 17.21,-17.24 4.9,-23.28 -13.26,-41.14 -3.06,-3.01 -5.62,-5.52 -8.64,-8.53 -3.22,-3.2 -7.63,-5.19 -13.23,-3.56z"/>
   <path class="fil2" d="M68.55 146.4c0.39,1.91 4.87,12.82 5.97,13.92 1.06,1.05 12.1,5.58 13.93,5.98l50.72 -50.65c-1.72,-4.12 -15.4,-15.17 -19.1,-20.07 -3.2,1.34 -21.94,21.17 -25.85,25.1 -8.46,8.5 -17.81,17 -25.67,25.71z"/>
   <path class="fil2" d="M125.66 70.58c1.26,2.77 15.75,16.4 18.99,19.64 3.26,3.26 16.87,17.68 19.64,19.03 3.05,-3.01 16.96,-15.78 17.88,-19.46 2.04,-8.15 -7.35,-14.52 -15.08,-22.01 -8.63,-8.36 -13.89,-16.95 -22,-15.06 -3.63,0.84 -16.27,14.89 -19.43,17.86z"/>
   <path class="fil3" d="M172.39 215.8c12.29,-3.52 32.57,-25.05 40.35,-37.39 22.94,-36.39 23.17,-83.23 -0.27,-119.54 -7.86,-12.17 -27.89,-33.52 -40.07,-36.95 1.83,2.56 7.86,6.22 10.16,8.2 9.55,8.25 19.04,17.85 25.76,30.05 21.41,38.9 21.64,77.79 0.25,116.91 -13.03,23.82 -33.64,35.14 -36.17,38.71z"/>
   <path class="fil2" d="M51.35 149.27c-0,24.06 -2.66,16.2 11.76,31.08 4.8,4.96 8.9,3.17 22.49,3.17 5.42,0 5.63,-0.02 4.02,-4.57 -0.82,-2.34 -1.61,-6.61 -3.47,-8.03 -2.88,-2.2 -12.91,-4.65 -15.24,-6.96 -4.73,-4.71 -2.84,-14.71 -10.07,-17.09 -9.58,-3.15 -9.48,-4.3 -9.48,2.4z"/>
   <path class="fil2" d="M113.66 82.6c2.12,3.04 7.33,7.64 9.47,9.82l19.31 19.31c2.79,2.75 7.13,6.88 9.68,9.36 1.82,-1.2 6.88,-6.03 8.06,-8.3l-37.98 -38.21 -8.54 8.02z"/>
   <path class="fil2" d="M56.17 139.84c2.03,1.61 5.8,2.7 8.68,3.13l51.03 -50.76c-1.41,-2.48 -3.64,-4.79 -5.96,-5.85l-53.75 53.48z"/>
   <path class="fil2" d="M91.76 169.88c0.66,3.15 1.55,6.56 3.14,8.66l53.68 -53.54c-1.16,-2.38 -3.45,-4.61 -5.75,-5.84l-51.07 50.72z"/>
  </g>
 </g>
</svg>
