<?xml version="1.0" encoding="UTF-8"?>
<!DOCTYPE svg PUBLIC "-//W3C//DTD SVG 1.1//EN" "http://www.w3.org/Graphics/SVG/1.1/DTD/svg11.dtd">
<!-- Creator: CorelDRAW 2020 (64-Bit) -->
<svg xmlns="http://www.w3.org/2000/svg" xml:space="preserve" width="134.717mm" height="63.1486mm" version="1.1" style="shape-rendering:geometricPrecision; text-rendering:geometricPrecision; image-rendering:optimizeQuality; fill-rule:evenodd; clip-rule:evenodd"
viewBox="0 0 295.28 138.41"
 xmlns:xlink="http://www.w3.org/1999/xlink"
 xmlns:xodm="http://www.corel.com/coreldraw/odm/2003">
 <defs>
  <style type="text/css">
   <![CDATA[
    .fil0 {fill:black}
    .fil2 {fill:#47494C}
    .fil1 {fill:#A05D2F}
   ]]>
  </style>
 </defs>
 <g id="Capa_x0020_1">
  <metadata id="CorelCorpID_0Corel-Layer"/>
  <g id="_2659310586304">
   <path class="fil0" d="M211.65 103.64l71.51 -0.01 2.28 0.06 0 24.53 -2.28 0.05 -0.58 -0.01 -70.98 0 0.05 -24.63zm83.62 -8.56l0 38.14c0,3.54 -2.74,5.19 -6.34,5.19l-81.89 0c-6.93,0 -5.19,-8.29 -5.19,-13.84 -2.74,0.64 -66.11,13.84 -70.94,13.84l-124.57 0c-3.6,0 -6.34,-1.65 -6.34,-5.19l0 -35.18c0,-6.16 3.09,-10.92 5.75,-14.44 5.92,-7.83 18.98,-9.36 28.42,-11.37l48.63 -10.77c8.53,-1.88 7.14,-0.85 14.2,-5.41 2.32,-1.5 3.62,-2.25 5.9,-3.91 1.62,-1.18 4.32,-3.23 6.1,-3.7 -0.62,-2.67 -3.83,-6.66 -5.19,-9.23 2.92,-1.55 6.03,-4.45 9.23,-5.19 0.83,3.58 3.78,5.07 4.61,8.65l8.07 -4.61c-0.74,-3.19 -3.64,-6.3 -5.19,-9.23 2.06,-1.38 6.52,-4.97 9.23,-5.19 0.86,3.22 3.86,5.4 4.61,8.65 2.49,-1.32 5.53,-4.02 8.07,-4.61 -0.98,-4.19 -4.32,-6.07 -5.19,-9.8 3.13,-0.84 5.57,-4.31 9.23,-4.61 0.62,2.31 3.4,5.78 4.61,8.07 1.72,-0.4 6.43,-3.51 8.07,-4.61 -1.59,-3 -4.71,-7.18 -5.19,-9.23 2.98,-1.58 5.59,-3.57 8.65,-5.19 1.62,3.06 3.61,5.67 5.19,8.65 2.47,-0.66 6.87,-4.08 9.41,-5.58 1.77,-1.05 7.97,-5.37 9.62,-5.37 6.87,0 22.06,27.11 47.87,27.11 27.7,0 28.73,-12.11 36.91,-12.11 5.6,0 15.42,30.81 16.66,34.67 4.9,15.28 6.52,30.21 6.99,45.42zm-285.26 23.35c33.96,-0.57 68.43,-0.02 102.44,-0.02 8.16,0 17.5,0.72 25.29,-0.88l64.03 -12.67 0 9.45c-17.32,4.38 -45.12,9.04 -64.67,13.03 -9.09,1.86 -64.31,0.92 -75.98,0.92 -16.85,0 -34.55,0.52 -51.32,-0.06l0.2 -9.78zm-0.18 -9.91c0,-11.44 0.08,-18.45 8.93,-22.31 4.8,-2.1 18.71,-4.44 24.78,-5.79 16.22,-3.59 33.49,-8.08 49.63,-10.97 0.41,7.21 0.37,8.32 2.84,14.47 1.44,3.58 2.53,9.55 6.74,9.85 9.44,0.67 37.3,-12.1 57.27,-7 6.06,1.55 19.01,7.52 20.82,12.12 -17.85,3.44 -41.46,9.69 -58.59,9.69 -36.4,-0 -77.2,1.06 -112.42,-0.05zm205.4 -14.75c0.63,-3.12 9.42,-13.04 11.4,-14.78l6.94 -6.31c8.26,-7.09 33.69,-21.46 44.4,-21.9 3.26,7.21 8.01,34.3 7.19,42.99l-69.93 0zm-111.15 -27.18c1.92,-4.98 5.72,-7.36 10.68,-9.75l2.74 3.87c0.8,1.32 1.64,2.45 2.45,3.39 2.73,-1.26 6.35,-3.29 8.02,-5.29l-4.39 -7.49c1.35,-1.26 6.48,-4.48 8.04,-5.06l5.13 7.48 7.92 -5.34 -4.47 -7.46c1.05,-1.32 6.36,-4.58 8.28,-5.21 1.27,2.3 2.98,5.64 4.92,7.38 2.2,-1.19 6.06,-3.6 8.02,-4.98l-4.68 -8.23c3.12,-1.33 5.19,-3.57 8.47,-4.72 0.94,2.25 3.1,5.93 4.89,7.47l7.95 -5.03c-1.39,-2.68 -3.7,-5.35 -4.66,-8.26 4.4,-1.7 9.08,-6.37 13.6,-7.84 1.83,1.97 2.88,3.04 4.97,4.72 1.83,1.47 2.96,2.94 4.8,4.42 1.93,1.55 3.23,2.99 5.3,4.52 15.71,11.57 33.21,15.42 52.7,9.29 5.97,-1.88 9.39,-4.54 13.98,-6.63 1.58,1.67 5.22,10.32 5.74,13.12 -2.24,1.34 -9.57,3.29 -12.77,4.51 -19.1,7.26 -38.4,19.72 -50.18,35.75 -10.44,14.21 -4.35,13.46 -19.18,15.23 -2.98,-4.66 -9.39,-9.95 -15.31,-13.39 -26.47,-15.35 -47.58,-3 -70.36,-0.01 -2.99,-3.64 -4.6,-11.26 -2.61,-16.44z"/>
   <path class="fil1" d="M173.4 19.36c0.96,2.91 3.27,5.59 4.66,8.26l-7.95 5.03c-1.79,-1.54 -3.96,-5.21 -4.89,-7.47 -3.28,1.15 -5.35,3.39 -8.47,4.72l4.68 8.23c-1.97,1.38 -5.82,3.79 -8.02,4.98 -1.94,-1.75 -3.66,-5.08 -4.92,-7.38 -1.92,0.64 -7.22,3.89 -8.28,5.21l4.47 7.46 -7.92 5.34 -5.13 -7.48c-1.56,0.58 -6.69,3.8 -8.04,5.06l4.39 7.49c-1.68,2 -5.29,4.03 -8.02,5.29 -0.81,-0.94 -1.65,-2.08 -2.45,-3.39l-2.74 -3.87c-4.96,2.39 -8.76,4.77 -10.68,9.75 -2,5.18 -0.38,12.81 2.61,16.44 22.78,-2.99 43.89,-15.33 70.36,0.01 5.92,3.43 12.33,8.73 15.31,13.39 14.82,-1.78 8.74,-1.02 19.18,-15.23 11.77,-16.03 31.08,-28.49 50.18,-35.75 3.19,-1.21 10.53,-3.17 12.77,-4.51 -0.51,-2.8 -4.16,-11.45 -5.74,-13.12 -4.59,2.09 -8.01,4.75 -13.98,6.63 -19.49,6.13 -37,2.28 -52.7,-9.29 -2.07,-1.52 -3.37,-2.96 -5.3,-4.52 -1.84,-1.48 -2.97,-2.95 -4.8,-4.42 -2.09,-1.68 -3.14,-2.76 -4.97,-4.72 -4.52,1.47 -9.21,6.15 -13.6,7.84z"/>
   <path class="fil1" d="M9.84 108.53c35.22,1.11 76.03,0.05 112.42,0.05 17.14,0 40.74,-6.24 58.59,-9.69 -1.81,-4.61 -14.76,-10.57 -20.82,-12.12 -19.97,-5.1 -47.84,7.68 -57.27,7 -4.21,-0.3 -5.3,-6.27 -6.74,-9.85 -2.47,-6.15 -2.44,-7.25 -2.84,-14.47 -16.15,2.89 -33.41,7.39 -49.63,10.97 -6.07,1.34 -19.97,3.69 -24.78,5.79 -8.85,3.86 -8.93,10.87 -8.93,22.31z"/>
   <path class="fil1" d="M215.24 93.78l69.93 -0c0.82,-8.68 -3.94,-35.77 -7.19,-42.99 -10.71,0.44 -36.14,14.8 -44.4,21.9l-6.94 6.31c-1.98,1.74 -10.76,11.66 -11.4,14.78z"/>
   <path class="fil2" d="M10.02 118.44l-0.2 9.78c16.77,0.58 34.47,0.06 51.32,0.06 11.67,0 66.89,0.94 75.98,-0.92 19.55,-3.99 47.34,-8.65 64.67,-13.03l0 -9.45 -64.03 12.67c-7.79,1.59 -17.13,0.88 -25.29,0.88 -34.02,0 -68.48,-0.55 -102.44,0.02z"/>
   <polygon class="fil2" points="211.61,128.27 282.59,128.27 283.16,128.28 285.44,128.23 285.44,103.7 283.16,103.63 211.65,103.64 "/>
  </g>
 </g>
</svg>
