<?xml version="1.0" encoding="UTF-8"?>
<!DOCTYPE svg PUBLIC "-//W3C//DTD SVG 1.1//EN" "http://www.w3.org/Graphics/SVG/1.1/DTD/svg11.dtd">
<!-- Creator: CorelDRAW 2020 (64-Bit) -->
<svg xmlns="http://www.w3.org/2000/svg" xml:space="preserve" width="71.6494mm" height="102.5mm" version="1.1" style="shape-rendering:geometricPrecision; text-rendering:geometricPrecision; image-rendering:optimizeQuality; fill-rule:evenodd; clip-rule:evenodd"
viewBox="0 0 77.71 111.17"
 xmlns:xlink="http://www.w3.org/1999/xlink"
 xmlns:xodm="http://www.corel.com/coreldraw/odm/2003">
 <defs>
  <style type="text/css">
   <![CDATA[
    .fil1 {fill:black}
    .fil4 {fill:#989898}
    .fil5 {fill:#E4E3E8}
    .fil6 {fill:#F0F0A8}
    .fil0 {fill:#F6F4FA}
    .fil2 {fill:yellow}
    .fil3 {fill:#FFFFDE}
   ]]>
  </style>
 </defs>
 <g id="Capa_x0020_1">
  <metadata id="CorelCorpID_0Corel-Layer"/>
  <path class="fil0" d="M23.36 82.13c-0.71,-2.19 1.94,-1.83 3.31,-1.83l30.55 0c1.44,-0 3.91,-0.44 4.25,0.99 0.48,2.02 -1.88,1.67 -3.37,1.67l-30.55 -0c-1.38,0 -3.8,0.39 -4.2,-0.83zm0 -11.07c-0.71,-2.19 1.94,-1.83 3.31,-1.83l30.55 0c1.44,-0 3.91,-0.44 4.25,0.99 0.48,2.02 -1.88,1.67 -3.37,1.67l-30.55 -0c-1.38,0 -3.8,0.39 -4.2,-0.83zm-4.69 -1.15c0.29,2.51 -1.95,2.22 -2.37,1.29 -0.34,-0.74 -0.02,-1.54 0.54,-1.81 0.89,-0.43 1.25,0.02 1.83,0.51zm17.66 -40.37c10.87,-1.62 19.54,6.54 20.73,15.78 1.4,10.82 -6.49,19.42 -15.8,20.65 -10.83,1.43 -19.29,-6.44 -20.63,-15.66 -1.59,-11 6.45,-19.39 15.69,-20.77zm-26.66 -0.18c0.43,1.63 0.18,24.52 0.18,28.2 0,2.08 -0.18,5.05 -0.02,7.02 0.14,1.7 6.86,11.77 7.87,13.24 1.95,2.86 4.64,6.24 6.88,8.85 4.54,5.29 3.7,4.31 7.86,4.31l27.46 0.02c1.21,0.3 0.34,-0.07 0.87,0.41 2.6,3.21 -1.63,2.61 -3.98,2.61l-24.99 0c0.76,1.2 6.18,5.7 7.72,6.93 1.56,1.25 19.77,-0.46 23.74,0.6 1.65,0.24 2.96,-1.1 3.71,-1.94 1.04,-1.16 1.29,-2.5 1.3,-4.42l-0 -57.56c0,-3.12 0.57,-8.21 -0.88,-10.59 -1.83,-3 -4.4,-2.78 -8.82,-2.78 -1.44,0.42 -0.83,4.09 -7.97,4.07l-23.69 0c-2.09,0.01 -3.4,-0.11 -4.89,-1.07 -0.62,-0.4 -1.12,-0.87 -1.54,-1.35 -0.54,-0.62 -0.62,-1.19 -1.32,-1.65 -2.24,0 -4.78,-0.31 -6.68,0.71 -1.1,0.59 -3.16,2.5 -2.8,4.38z"/>
  <path class="fil1" d="M63.24 101.55l-47.2 0.24c-6.87,-0.01 -6.59,-5.09 -6.59,-9.26l-0.02 -61.32c-0.01,-0.76 -0.06,-1.28 0.25,-1.86 -0.37,-1.88 1.7,-3.78 2.8,-4.38 1.9,-1.03 4.44,-0.71 6.68,-0.71 0.69,0.46 0.78,1.03 1.32,1.65 0.42,0.48 0.91,0.95 1.54,1.35 1.49,0.96 2.81,1.08 4.89,1.07l23.69 -0c7.13,0.02 6.53,-3.65 7.97,-4.07 4.42,0 7,-0.22 8.82,2.78 1.45,2.38 0.88,7.47 0.88,10.59l0 57.56c-0.01,1.92 -0.26,3.25 -1.3,4.42 -0.75,0.84 -2.06,2.18 -3.71,1.94zm-25.77 -98.78c4.66,-0.74 8.17,2.09 9.66,4.88 3.62,6.81 -3.33,9.97 3.22,9.93 7.61,-0.05 6.19,5.75 4.01,7.25 -1.64,1.14 -4.49,0.72 -6.67,0.72 -6.4,0 -16.6,0.28 -22.15,-0.01 -4.98,-0.27 -5.13,-6.87 -0.86,-7.8 1.9,-0.41 5.92,0.65 5.61,-1.7 -0.11,-0.79 -0.62,-1.79 -0.75,-2.97 -0.54,-4.96 2.8,-9.48 7.93,-10.3zm-36.04 44.33c0.49,-0.1 0.74,-0.27 1.06,-0.46 0.72,-1.82 0.14,-19.5 0.27,-23.18 0.12,-3.38 2.4,-5.73 5.76,-5.87 3.45,-0.15 8.18,-0.16 11.61,0.02 -0.87,1.81 -0.87,1.63 -1.3,4 -9.79,0.02 -12.05,2.39 -12.05,12.26 0,8.11 -0.01,16.21 -0,24.32 0.03,6.94 0,13.89 0,20.83 0,4.36 -0.61,17.13 0.69,20.3 2.65,6.44 9.97,5.11 15.87,5.11 7.01,0 14.03,-0.02 21.05,0 5.01,0 10.02,-0 15.03,0 4.09,0 8.17,0.06 10.57,-4.66 1.46,-2.88 0.9,-10.38 0.9,-14.11l0 -45.6c0,-4.09 0.69,-10.95 -1.1,-14.12 -2.23,-3.96 -5.12,-4.34 -10.94,-4.34 -0.44,-2.44 -0.49,-2.17 -1.3,-4.01 2.59,-0.13 5.45,-0.03 8.08,-0.03 5.11,0 9.32,-0.12 9.3,7.22l-0 75.04c0,6.12 -0.8,8.64 -7.97,8.63 -5.62,-0.01 -11.25,-0.01 -16.88,0l-38.24 -0c-4.49,0 -7.59,-0.17 -8.8,-4.04 -0.95,-3.03 0.02,-38.39 -0.27,-47.77 -0.05,-1.75 -0.3,-1.27 -1.26,-1.98 -0.43,0.17 -0.78,0.25 -1.18,0.44 -0.57,2.46 -0.21,41.7 -0.23,47.82 -0.01,4.26 3.78,8.17 7.97,8.19l56.01 -0.01c4.11,0 9.56,0.76 12.25,-3.91 1.38,-2.4 1.25,-3.18 1.25,-6.72l0 -64.19c0,-3.84 0.49,-13.1 -0.41,-15.75 -0.65,-1.92 -2.02,-3.41 -3.57,-4.4 -1.96,-1.25 -3.67,-1.32 -6.87,-1.32 -5.39,0 -10.77,0 -16.16,0 1.85,-7.95 -4.12,-14.84 -11.73,-14.84 -7.62,0 -13.59,6.87 -11.73,14.84 -3.46,0 -18.78,-0.44 -21.39,0.53 -1.94,0.72 -3.01,1.64 -4.14,3.17 -2.15,2.91 -1.48,8.36 -1.48,13.13 0,4.94 0,9.89 0,14.83 0.74,0.5 0.33,0.63 1.33,0.61z"/>
  <path class="fil2" d="M36.25 32.26c-7.74,1.39 -14.63,8.56 -12.9,18.19 1.38,7.68 8.67,14.37 18.09,12.8 7.73,-1.29 14.51,-8.72 12.91,-18.12 -1.31,-7.67 -8.7,-14.57 -18.11,-12.88z"/>
  <path class="fil3" d="M44.39 104.44c0.95,1.4 4.45,2.76 5.68,4.03 5.62,-0.01 11.25,-0.01 16.88,-0 7.17,0.01 7.97,-2.52 7.97,-8.63l0 -75.04c0.02,-7.33 -4.19,-7.22 -9.3,-7.22 -2.62,0 -5.48,-0.11 -8.08,0.03 0.81,1.84 0.86,1.57 1.3,4.01 5.82,0 8.71,0.38 10.94,4.34 1.79,3.17 1.1,10.03 1.1,14.12l0 45.6c0,3.73 0.56,11.23 -0.9,14.11 -2.4,4.72 -6.48,4.66 -10.57,4.66 -5.01,-0 -10.02,0 -15.03,-0z"/>
  <path class="fil4" d="M37.47 2.77c-5.13,0.82 -8.47,5.33 -7.93,10.3 0.13,1.18 0.65,2.18 0.75,2.97 0.31,2.35 -3.71,1.28 -5.61,1.7 -4.27,0.93 -4.12,7.54 0.86,7.8 5.55,0.3 15.75,0.01 22.15,0.01 2.18,0 5.03,0.42 6.67,-0.72 2.17,-1.5 3.6,-7.3 -4.01,-7.25 -6.55,0.04 0.4,-3.12 -3.22,-9.93 -1.49,-2.8 -5,-5.62 -9.66,-4.88z"/>
  <path class="fil5" d="M18.67 92.04c0.3,2.53 -1.94,2.22 -2.37,1.29 -0.36,-0.79 0.03,-1.65 0.7,-1.86 0.84,-0.27 1.14,0.14 1.67,0.57zm-1.83 -11.57c1.61,-0.87 2.73,1.59 1.18,2.32 -1.64,0.78 -2.59,-1.57 -1.18,-2.32zm46.4 21.08c-3.97,-1.06 -22.18,0.66 -23.74,-0.6 -1.54,-1.24 -6.96,-5.74 -7.72,-6.93 -2.08,0 -4.16,0 -6.24,0.01 -3.26,0.01 -2.65,-2.39 -1.1,-2.64 1.38,-0.22 34.52,-0.06 36.31,0.02 -0.53,-0.48 0.34,-0.12 -0.87,-0.41l-27.46 -0.02c-4.15,0 -3.32,0.97 -7.86,-4.31 -2.24,-2.61 -4.93,-5.99 -6.88,-8.85 -1.01,-1.48 -7.73,-11.54 -7.87,-13.24 -0.16,-1.97 0.02,-4.93 0.02,-7.02 0,-3.68 0.26,-26.58 -0.18,-28.2 -0.31,0.58 -0.25,1.1 -0.25,1.86l0.02 61.32c-0,4.17 -0.28,9.25 6.59,9.26l47.2 -0.24z"/>
  <path class="fil6" d="M1.43 47.1l0.05 1.38c1.09,0.86 1.28,0.26 1.29,2.43 0.01,1.34 -0.12,2.09 -1.35,2.35l0.08 1.41c0.96,0.71 1.2,0.23 1.26,1.98 0.29,9.38 -0.68,44.74 0.27,47.77 1.21,3.87 4.31,4.04 8.8,4.04l38.24 0c-1.24,-1.27 -4.73,-2.63 -5.68,-4.03 -7.01,-0.02 -14.03,-0 -21.05,-0 -5.9,0 -13.22,1.33 -15.87,-5.11 -1.3,-3.16 -0.69,-15.94 -0.69,-20.3 0,-6.94 0.03,-13.89 -0,-20.83 -0.91,-0.89 -4.14,-9.77 -4.29,-11.56 -0.32,0.19 -0.58,0.36 -1.06,0.46z"/>
  <path class="fil1" d="M36.25 32.26c9.41,-1.69 16.8,5.21 18.11,12.88 1.6,9.4 -5.18,16.83 -12.91,18.12 -9.43,1.57 -16.72,-5.12 -18.09,-12.8 -1.73,-9.63 5.16,-16.8 12.9,-18.19zm0.09 -2.73c-9.25,1.38 -17.29,9.77 -15.69,20.77 1.34,9.21 9.8,17.09 20.63,15.66 9.31,-1.23 17.2,-9.83 15.8,-20.65 -1.19,-9.24 -9.86,-17.4 -20.73,-15.78z"/>
  <path class="fil3" d="M2.5 46.64c0.14,1.79 3.37,10.67 4.29,11.56 -0.01,-8.11 0,-16.21 0,-24.32 0,-9.87 2.26,-12.24 12.05,-12.26 0.43,-2.37 0.44,-2.2 1.3,-4 -3.43,-0.18 -8.17,-0.17 -11.61,-0.02 -3.35,0.14 -5.64,2.49 -5.76,5.87 -0.13,3.68 0.45,21.35 -0.27,23.18z"/>
  <path class="fil1" d="M31.78 94.02l24.99 0c2.36,0 6.58,0.61 3.98,-2.61 -1.79,-0.08 -34.93,-0.24 -36.31,-0.02 -1.55,0.25 -2.16,2.64 1.1,2.64 2.08,-0.01 4.16,-0.01 6.24,-0.01z"/>
  <path class="fil1" d="M58.1 82.95c1.49,0 3.85,0.35 3.37,-1.67 -0.34,-1.43 -2.81,-0.99 -4.25,-0.99l-30.55 -0c-1.37,-0.01 -4.02,-0.36 -3.31,1.83 0.39,1.22 2.81,0.83 4.2,0.83l30.55 0z"/>
  <path class="fil1" d="M58.1 71.89c1.49,0 3.85,0.35 3.37,-1.67 -0.34,-1.43 -2.81,-0.99 -4.25,-0.99l-30.55 -0c-1.37,-0.01 -4.02,-0.36 -3.31,1.83 0.39,1.22 2.81,0.83 4.2,0.83l30.55 0z"/>
  <path class="fil1" d="M1.43 53.27c1.22,-0.27 1.35,-1.02 1.35,-2.35 -0.01,-2.18 -0.2,-1.58 -1.29,-2.43 -0.79,0.37 -1.23,0.29 -1.37,1.34 -0.09,0.65 -0.01,2.13 -0.01,2.87 0.6,0.4 0.49,0.53 1.33,0.58z"/>
  <path class="fil1" d="M16.84 80.47c-1.4,0.76 -0.46,3.1 1.18,2.32 1.55,-0.74 0.43,-3.19 -1.18,-2.32z"/>
  <path class="fil1" d="M18.67 69.91c-0.59,-0.49 -0.94,-0.94 -1.83,-0.51 -0.56,0.27 -0.88,1.06 -0.54,1.81 0.43,0.92 2.66,1.22 2.37,-1.29z"/>
  <path class="fil1" d="M18.67 92.04c-0.52,-0.43 -0.82,-0.83 -1.67,-0.57 -0.67,0.21 -1.07,1.07 -0.7,1.86 0.43,0.93 2.67,1.24 2.37,-1.29z"/>
 </g>
</svg>
