<?xml version="1.0" encoding="UTF-8"?>
<!DOCTYPE svg PUBLIC "-//W3C//DTD SVG 1.1//EN" "http://www.w3.org/Graphics/SVG/1.1/DTD/svg11.dtd">
<!-- Creator: CorelDRAW 2020 (64-Bit) -->
<svg xmlns="http://www.w3.org/2000/svg" xml:space="preserve" width="135.467mm" height="135.467mm" version="1.1" style="shape-rendering:geometricPrecision; text-rendering:geometricPrecision; image-rendering:optimizeQuality; fill-rule:evenodd; clip-rule:evenodd"
viewBox="0 0 267.85 267.85"
 xmlns:xlink="http://www.w3.org/1999/xlink"
 xmlns:xodm="http://www.corel.com/coreldraw/odm/2003">
 <defs>
  <style type="text/css">
   <![CDATA[
    .fil1 {fill:black}
    .fil3 {fill:#CAE458}
    .fil2 {fill:#FD5C7C}
    .fil0 {fill:#FEFEFE}
   ]]>
  </style>
 </defs>
 <g id="Capa_x0020_1">
  <metadata id="CorelCorpID_0Corel-Layer"/>
  <g id="_1814021701536">
   <path class="fil0" d="M115.09 102.01c0,-4.15 -0.86,-49.47 0.65,-52.18 2.18,-3.92 7.67,-3.38 9.34,0.34 0.98,2.19 0.47,18.93 0.47,22.02 0,38.7 -1.86,27.51 5.72,33.51 13.7,10.83 7.84,34.93 -15.25,32.48 -2.37,4.54 -5.42,9.31 -8.14,14.17 -2.09,3.73 -5.61,12.83 -11.47,9.67 -8.17,-4.4 6.37,-18.81 10.43,-29.15 -2.3,-4.19 -7.11,-8.99 -3.71,-18.77 3.23,-9.29 10.78,-9.89 11.97,-12.1zm-31.74 -56.5c1.49,3.5 4.23,7.89 -0.38,10.28 -5.08,2.63 -7.27,-2.65 -8.27,-3.88l-1.15 -1.14c-1.76,1.74 -4.41,3.29 -6.33,4.95 -1.08,0.94 -2.21,1.63 -3.19,2.58l-5.74 5.74c-0.95,0.97 -1.67,2.11 -2.59,3.19 -1.7,1.98 -3.83,4.61 -4.95,7.03 3.1,1.48 7.46,3.9 5.02,8.72 -2.36,4.66 -6.81,1.85 -10.28,0.38 -4.5,5.63 -8.1,22.86 -8.71,31.75 5.51,0 15.48,-1.77 15.48,5.23 -0,7.45 -10.23,4.65 -15.48,5.41 0.72,8.91 4.15,25.82 8.71,31.57 3.32,-1.4 7.48,-4.21 10.09,0.03 3.05,4.97 -1.79,7.6 -4.83,9.05 2.86,6.29 10.88,13.73 16.19,18.29 2.4,2.06 4.39,3.39 6.81,5.09l1.57 -1.96c1.84,-2.77 4.03,-4.8 7.64,-2.95 4.63,2.37 1.85,6.8 0.38,10.28 5.64,4.48 22.86,8.09 31.74,8.71 0,-5.51 -1.77,-15.48 5.23,-15.48 6.99,0 5.23,9.97 5.23,15.48 2.99,-0.21 5.83,-0.5 8.73,-0.99 12.19,-2.06 6.57,-1.27 10.25,-14.36 4.91,-17.46 16.98,-32.29 33.26,-39.97 3.3,-1.56 6.77,-2.89 10.7,-3.99 10.72,-2.99 12.09,0.49 13.5,-5.86 0.3,-1.33 0.52,-2.53 0.76,-3.91 0.54,-3.16 0.85,-5.99 1.09,-9.2 -5.51,0 -15.48,1.76 -15.48,-5.23 -0,-7 9.97,-5.23 15.48,-5.23 -0.63,-8.94 -4.22,-26.06 -8.71,-31.75 -3.3,1.4 -7.5,4.21 -10.1,-0.03 -2.83,-4.62 1.62,-7.79 4.84,-9.05 -1.94,-4.3 -9.31,-12.22 -12.98,-15.74l-10.02 -7.66c-0.32,0.28 -0.3,0.23 -0.73,0.76 -1.29,1.62 -3.44,6.77 -8.48,4.16 -4.63,-2.39 -1.86,-6.79 -0.37,-10.28 -6.79,-5.32 -26.49,-8.87 -36.98,-8.87 -10.41,0 -30.29,3.59 -36.97,8.87z"/>
   <path class="fil1" d="M201.16 152.91c30,-2.32 53.94,20.72 56.05,48.01 2.34,30.19 -20.59,54.16 -48,56.28 -30.14,2.34 -54.19,-20.63 -56.29,-48 -2.32,-30.29 20.65,-54.17 48.24,-56.3zm-84.67 -152.91l0.28 0c28.94,0.08 48.33,5.5 71.87,21.13 7.34,4.87 12.77,10.06 18.91,16.14l5.44 6.07c8.07,9.94 12.43,17.09 17.72,28.84 9.42,20.94 12.45,46.48 8.14,69.37l-1.87 9.64c4.88,1.3 16.31,12.93 19.47,17.67 6.83,10.26 10.59,21.3 11.4,32.23l0 9.02c-1.08,14.39 -7.31,28.17 -18.44,39.29 -11.17,11.17 -24.8,17.63 -40.43,18.44l-6.84 0c-2.39,-0.12 -4.82,-0.37 -7.3,-0.74 -16.13,-2.45 -25.89,-9.6 -35.93,-19.53 -1.96,-1.94 -7.02,-7.99 -7.71,-10.6 -2.76,0.06 -7.07,1.53 -10.01,2.03 -24.44,4.13 -47.07,1.15 -69.36,-8.45 -20.16,-8.68 -38.84,-24.02 -50.9,-42.22 -7.03,-10.61 -11.17,-18.53 -15.37,-31.19 -3.5,-10.56 -5.33,-22.21 -5.55,-34.02l0 -4.82c0.38,-20.37 5.5,-40.85 15.07,-56.68 4.26,-7.06 5.61,-11.96 12.23,-8.79 4.13,5.2 -0.11,9.18 -2.92,13.91 -20.7,34.91 -17.47,81.71 4.84,114.84 9.91,14.71 26.15,30.35 45.56,38.67 27.71,11.89 43.19,11.2 71.4,6.94 -0.31,-1.37 -3.87,-15.23 -3.88,-15.25 -13.1,1.97 -20.65,3.49 -34.72,1.63 -10.39,-1.37 -21.06,-4.85 -29.2,-8.97 -58.42,-29.5 -69.43,-105.95 -24.57,-150.82 44.88,-44.89 121.33,-33.86 150.83,24.55 4.14,8.19 7.58,18.84 8.96,29.25 2.6,19.67 -0.75,22.02 -1.64,35.09 6.27,0.74 9.77,2.25 15.24,3.48 4.25,-28.33 4.97,-43.54 -6.93,-71.41 -21.76,-50.96 -85.72,-78.35 -138.88,-57.2 -5.03,2 -10.03,4.11 -14.32,6.62 -4.84,2.84 -8.98,7.31 -14.24,3.12 -1.79,-3.78 -1.32,-5.91 1.97,-8.08 17,-11.23 40.09,-19.24 61.69,-19.23zm72 144.53c-3.93,1.1 -7.4,2.43 -10.7,3.99 -16.28,7.68 -28.35,22.51 -33.26,39.97 -3.68,13.09 1.94,12.3 -10.25,14.36 -2.9,0.49 -5.74,0.78 -8.73,0.99 0,-5.51 1.76,-15.47 -5.23,-15.48 -7,-0 -5.23,9.97 -5.23,15.48 -8.89,-0.62 -26.1,-4.23 -31.74,-8.71 1.47,-3.48 4.26,-7.91 -0.38,-10.28 -3.61,-1.84 -5.8,0.18 -7.64,2.95l-1.57 1.96c-2.41,-1.7 -4.41,-3.02 -6.81,-5.09 -5.31,-4.56 -13.33,-12 -16.19,-18.29 3.05,-1.45 7.88,-4.08 4.83,-9.05 -2.6,-4.24 -6.76,-1.44 -10.09,-0.03 -4.56,-5.75 -7.99,-22.65 -8.71,-31.57 5.25,-0.76 15.47,2.04 15.48,-5.41 0,-7 -9.96,-5.23 -15.48,-5.23 0.61,-8.89 4.21,-26.11 8.71,-31.75 3.46,1.47 7.92,4.28 10.28,-0.38 2.44,-4.81 -1.92,-7.24 -5.02,-8.72 1.11,-2.42 3.25,-5.05 4.95,-7.03 0.92,-1.07 1.64,-2.22 2.59,-3.19l5.74 -5.74c0.98,-0.95 2.1,-1.65 3.19,-2.58 1.92,-1.66 4.56,-3.21 6.33,-4.95l1.15 1.14c1,1.23 3.19,6.52 8.27,3.88 4.61,-2.39 1.87,-6.77 0.38,-10.28 6.68,-5.28 26.56,-8.87 36.97,-8.87 10.48,0 30.18,3.55 36.98,8.87 -1.49,3.49 -4.26,7.89 0.37,10.28 5.05,2.6 7.19,-2.55 8.48,-4.16 0.43,-0.54 0.41,-0.48 0.73,-0.76l10.02 7.66c3.66,3.52 11.04,11.44 12.98,15.74 -3.22,1.27 -7.67,4.43 -4.84,9.05 2.59,4.24 6.79,1.43 10.1,0.03 4.49,5.68 8.08,22.81 8.71,31.75 -5.51,0 -15.49,-1.77 -15.48,5.23 0,6.99 9.97,5.23 15.48,5.23 -0.23,3.22 -0.54,6.05 -1.09,9.2 -0.24,1.38 -0.46,2.57 -0.76,3.91 -1.41,6.35 -2.78,2.87 -13.5,5.86z"/>
   <path class="fil2" d="M52.84 27.31c-3.28,1.35 -7.05,5.46 -10.04,7.74 3.35,6.76 -0.97,11.11 -7.75,7.75 -2.31,3.04 -6.34,6.7 -7.75,10.04 4.13,5.2 -0.11,9.18 -2.92,13.91 -20.7,34.91 -17.47,81.71 4.84,114.84 9.91,14.71 26.15,30.35 45.56,38.67 27.71,11.89 43.19,11.2 71.4,6.94 -0.31,-1.37 -3.87,-15.23 -3.88,-15.25 -13.1,1.97 -20.65,3.49 -34.72,1.63 -10.39,-1.37 -21.06,-4.85 -29.2,-8.97 -58.42,-29.5 -69.43,-105.95 -24.57,-150.82 44.88,-44.89 121.33,-33.86 150.83,24.55 4.14,8.19 7.58,18.84 8.96,29.25 2.6,19.67 -0.75,22.02 -1.64,35.09 6.27,0.74 9.77,2.25 15.24,3.48 4.25,-28.33 4.97,-43.54 -6.93,-71.41 -21.76,-50.96 -85.72,-78.35 -138.88,-57.2 -5.03,2 -10.03,4.11 -14.32,6.62 -4.84,2.84 -8.98,7.31 -14.24,3.12z"/>
   <path class="fil3" d="M199.83 218.33l-0.01 -37.35c0,-3.83 1.07,-7.27 5.25,-7.27 7.74,0 5.23,13.44 5.23,19.33 0,8.43 -0.02,16.87 0.01,25.3 2.75,-1.5 6.67,-7.47 9.54,-7.94 2.64,-0.43 4.84,1.12 5.68,3.01 2.1,4.7 -4.69,9.28 -10.57,15.16 -1.73,1.73 -6.49,7.86 -9.9,7.86 -3.51,0 -15.54,-13.6 -18.52,-16.5 -5.62,-5.46 -0.25,-9.86 3.29,-9.58 3.34,0.27 7.13,6.38 10,7.99zm1.33 -65.42c-27.59,2.13 -50.56,26.01 -48.24,56.3 2.1,27.37 26.15,50.33 56.29,48 27.4,-2.12 50.33,-26.09 48,-56.28 -2.11,-27.3 -26.05,-50.33 -56.05,-48.01z"/>
   <path class="fil1" d="M118.34 112.87c4.4,-1.22 8.49,1.55 9.49,5.17 1.28,4.63 -1.48,8.73 -5.23,9.78 -10.12,2.83 -14.46,-12.12 -4.26,-14.95zm-3.24 -10.86c-1.18,2.21 -8.73,2.81 -11.97,12.1 -3.4,9.77 1.41,14.58 3.71,18.77 -4.06,10.34 -18.6,24.75 -10.43,29.15 5.87,3.16 9.38,-5.95 11.47,-9.67 2.73,-4.85 5.77,-9.62 8.14,-14.17 23.08,2.44 28.94,-21.65 15.25,-32.48 -7.58,-6 -5.72,5.19 -5.72,-33.51 0,-3.09 0.51,-19.82 -0.47,-22.02 -1.67,-3.72 -7.16,-4.27 -9.34,-0.34 -1.5,2.71 -0.65,48.03 -0.65,52.18z"/>
   <path class="fil1" d="M199.83 218.33c-2.87,-1.6 -6.66,-7.72 -10,-7.99 -3.53,-0.28 -8.9,4.12 -3.29,9.58 2.98,2.9 15.01,16.5 18.52,16.5 3.41,-0 8.16,-6.13 9.9,-7.86 5.88,-5.88 12.67,-10.45 10.57,-15.16 -0.84,-1.89 -3.04,-3.44 -5.68,-3.01 -2.87,0.46 -6.8,6.44 -9.54,7.94 -0.03,-8.43 -0.01,-16.87 -0.01,-25.3 0,-5.89 2.52,-19.32 -5.23,-19.33 -4.17,-0 -5.25,3.44 -5.25,7.27l0.01 37.35z"/>
   <path class="fil2" d="M118.34 112.87c-10.2,2.83 -5.86,17.78 4.26,14.95 3.74,-1.05 6.51,-5.15 5.23,-9.78 -1,-3.62 -5.09,-6.39 -9.49,-5.17z"/>
   <path class="fil1" d="M35.05 42.8c6.77,3.36 11.1,-0.98 7.75,-7.75 -2.54,-1.52 -5.17,-2.42 -7.67,0.08 -2.5,2.5 -1.6,5.12 -0.08,7.67z"/>
  </g>
 </g>
</svg>
