<?xml version="1.0" encoding="UTF-8"?>
<!DOCTYPE svg PUBLIC "-//W3C//DTD SVG 1.1//EN" "http://www.w3.org/Graphics/SVG/1.1/DTD/svg11.dtd">
<!-- Creator: CorelDRAW 2020 (64-Bit) -->
<svg xmlns="http://www.w3.org/2000/svg" xml:space="preserve" width="70.839mm" height="101.341mm" version="1.1" style="shape-rendering:geometricPrecision; text-rendering:geometricPrecision; image-rendering:optimizeQuality; fill-rule:evenodd; clip-rule:evenodd"
viewBox="0 0 638.65 913.64"
 xmlns:xlink="http://www.w3.org/1999/xlink"
 xmlns:xodm="http://www.corel.com/coreldraw/odm/2003">
 <defs>
  <style type="text/css">
   <![CDATA[
    .fil1 {fill:black}
    .fil2 {fill:#0D6EFD}
    .fil6 {fill:#88B0F0}
    .fil4 {fill:#989898}
    .fil3 {fill:#D6E6FF}
    .fil5 {fill:#E4E3E8}
    .fil0 {fill:#F6F4FA}
   ]]>
  </style>
 </defs>
 <g id="Capa_x0020_1">
  <metadata id="CorelCorpID_0Corel-Layer"/>
  <path class="fil0" d="M191.96 674.95c-5.82,-18 15.96,-15.08 27.2,-15.04l251.04 0.01c11.84,-0 32.12,-3.65 34.94,8.11 3.98,16.57 -15.44,13.74 -27.66,13.71l-251.05 -0c-11.38,0 -31.24,3.22 -34.48,-6.79zm0 -90.96c-5.82,-18 15.96,-15.08 27.2,-15.04l251.04 0.01c11.84,-0 32.12,-3.65 34.94,8.11 3.98,16.57 -15.44,13.74 -27.66,13.71l-251.05 -0c-11.38,0 -31.24,3.22 -34.48,-6.79zm-38.54 -9.45c2.36,20.65 -16,18.22 -19.5,10.63 -2.82,-6.12 -0.2,-12.64 4.42,-14.84 7.34,-3.51 10.24,0.2 15.07,4.21zm145.17 -331.8c89.36,-13.35 160.56,53.76 170.38,129.68 11.5,88.93 -53.35,159.64 -129.83,169.72 -89.01,11.73 -158.54,-52.95 -169.51,-128.68 -13.1,-90.4 52.98,-159.37 128.97,-170.72zm-219.14 -1.49c3.57,13.36 1.45,201.5 1.45,231.77 0,17.13 -1.48,41.48 -0.18,57.67 1.13,13.99 56.41,96.69 64.67,108.84 16.01,23.54 38.1,51.28 56.5,72.73 37.29,43.46 30.43,35.46 64.56,35.46l225.69 0.17c9.91,2.43 2.77,-0.59 7.15,3.39 21.35,26.4 -13.37,21.41 -32.74,21.41l-205.36 0c6.24,9.85 50.76,46.82 63.42,56.99 12.84,10.31 162.49,-3.78 195.09,4.9 13.57,1.96 24.31,-9.03 30.49,-15.95 8.54,-9.55 10.62,-20.54 10.66,-36.29l-0.03 -473.04c0,-25.63 4.69,-67.49 -7.2,-87.03 -15.02,-24.67 -36.18,-22.85 -72.52,-22.85 -11.83,3.48 -6.86,33.58 -65.49,33.44l-194.66 0c-17.14,0.05 -27.95,-0.92 -40.22,-8.83 -5.12,-3.3 -9.17,-7.12 -12.62,-11.09 -4.42,-5.09 -5.12,-9.77 -10.82,-13.52 -18.37,0 -39.3,-2.57 -54.88,5.86 -9.04,4.89 -26.01,20.55 -22.98,35.98z"/>
  <path class="fil1" d="M519.72 834.58l-387.94 1.94c-56.45,-0.06 -54.19,-41.84 -54.19,-76.07l-0.19 -503.94c-0.05,-6.24 -0.48,-10.52 2.05,-15.26 -3.03,-15.42 13.94,-31.09 22.98,-35.98 15.58,-8.43 36.51,-5.86 54.88,-5.86 5.7,3.75 6.39,8.43 10.82,13.52 3.45,3.97 7.5,7.79 12.62,11.09 12.27,7.91 23.09,8.88 40.22,8.83l194.66 -0c58.63,0.14 53.66,-29.96 65.49,-33.44 36.34,0 57.5,-1.82 72.52,22.85 11.89,19.54 7.2,61.4 7.2,87.03l0.03 473.04c-0.04,15.75 -2.12,26.74 -10.66,36.29 -6.18,6.91 -16.92,17.91 -30.49,15.95zm-211.78 -811.84c38.31,-6.08 67.16,17.15 79.39,40.14 29.77,55.96 -27.38,81.92 26.49,81.6 62.53,-0.37 50.85,47.27 32.97,59.62 -13.5,9.33 -36.9,5.88 -54.81,5.88 -52.63,0 -136.46,2.34 -182.04,-0.1 -40.89,-2.19 -42.15,-56.46 -7.06,-64.12 15.6,-3.41 48.64,5.36 46.08,-13.94 -0.87,-6.53 -5.13,-14.73 -6.19,-24.42 -4.46,-40.8 22.98,-77.94 65.16,-84.64zm-296.16 364.32c3.99,-0.84 6.11,-2.21 8.75,-3.79 5.9,-14.98 1.14,-160.23 2.18,-190.48 0.96,-27.81 19.75,-47.08 47.31,-48.25 28.33,-1.21 67.22,-1.32 95.45,0.15 -7.12,14.84 -7.16,13.42 -10.71,32.91 -80.42,0.15 -98.99,19.68 -98.99,100.78 0,66.63 -0.05,133.26 -0,199.89 0.24,57.05 0.01,114.16 0.01,171.22 0,35.8 -5.02,140.82 5.68,166.8 21.8,52.93 81.95,42.03 130.41,42.03 57.65,0 115.32,-0.16 172.97,0.01 41.18,0.04 82.37,-0 123.55,0 33.59,0 67.12,0.51 86.84,-38.3 12.02,-23.66 7.42,-85.27 7.42,-115.96l0 -374.74c0,-33.64 5.63,-89.99 -9.07,-116.07 -18.35,-32.55 -42.12,-35.64 -89.93,-35.64 -3.63,-20.04 -4.05,-17.83 -10.71,-32.92 21.32,-1.09 44.82,-0.21 66.38,-0.21 41.97,-0 76.57,-0.97 76.43,59.31l-0.02 616.69c0.01,50.26 -6.54,71.01 -65.5,70.96 -46.23,-0.04 -92.46,-0.08 -138.69,0.01l-314.28 -0c-36.88,0 -62.36,-1.38 -72.32,-33.21 -7.78,-24.88 0.19,-315.48 -2.2,-392.61 -0.45,-14.38 -2.45,-10.42 -10.34,-16.25 -3.5,1.4 -6.4,2.04 -9.74,3.64 -4.71,20.2 -1.76,342.71 -1.89,393 -0.09,35.05 31.03,67.1 65.47,67.33l460.33 -0.08c33.77,0 78.61,6.28 100.69,-32.11 11.37,-19.75 10.28,-26.11 10.28,-55.21l0 -527.55c0,-31.55 4.01,-107.68 -3.37,-129.43 -5.35,-15.76 -16.58,-28.04 -29.32,-36.17 -16.08,-10.26 -30.15,-10.86 -56.45,-10.86 -44.27,0 -88.53,0 -132.8,0 15.22,-65.34 -33.89,-121.93 -96.41,-121.93 -62.61,0 -111.67,56.47 -96.42,121.93 -28.42,0 -154.31,-3.64 -175.75,4.34 -15.93,5.93 -24.77,13.51 -34.02,26.02 -17.68,23.92 -12.17,68.72 -12.17,107.9 0,40.63 0,81.26 0,121.88 6.08,4.07 2.68,5.19 10.91,4.99z"/>
  <path class="fil2" d="M297.88 265.15c-63.6,11.45 -120.21,70.35 -106.01,149.52 11.32,63.11 71.24,118.13 148.71,105.22 63.55,-10.59 119.27,-71.67 106.1,-148.92 -10.74,-63.01 -71.5,-119.75 -148.8,-105.83z"/>
  <path class="fil3" d="M364.84 858.31c7.8,11.47 36.54,22.66 46.72,33.13 46.22,-0.09 92.46,-0.05 138.69,-0.01 58.96,0.06 65.5,-20.7 65.5,-70.96l0.02 -616.69c0.15,-60.28 -34.46,-59.31 -76.43,-59.31 -21.56,0 -45.06,-0.88 -66.38,0.21 6.66,15.08 7.08,12.87 10.71,32.92 47.81,0 71.58,3.09 89.93,35.64 14.7,26.08 9.07,82.43 9.07,116.07l0 374.74c0,30.7 4.6,92.3 -7.42,115.96 -19.72,38.81 -53.25,38.3 -86.84,38.3 -41.18,-0 -82.37,0.04 -123.55,-0z"/>
  <path class="fil4" d="M307.94 22.74c-42.19,6.7 -69.62,43.84 -65.16,84.64 1.06,9.69 5.32,17.89 6.19,24.42 2.56,19.31 -30.49,10.54 -46.08,13.94 -35.1,7.67 -33.83,61.94 7.06,64.12 45.58,2.44 129.41,0.1 182.04,0.1 17.92,0 41.32,3.45 54.81,-5.88 17.88,-12.35 29.56,-59.99 -32.97,-59.62 -53.87,0.32 3.28,-25.63 -26.49,-81.6 -12.23,-22.99 -41.08,-46.22 -79.39,-40.14z"/>
  <path class="fil5" d="M153.46 756.41c2.44,20.82 -15.98,18.24 -19.48,10.63 -2.98,-6.48 0.24,-13.54 5.78,-15.28 6.94,-2.19 9.4,1.12 13.7,4.65zm-15.07 -95.08c13.26,-7.14 22.47,13.03 9.72,19.07 -13.49,6.39 -21.25,-12.87 -9.72,-19.07zm381.33 173.25c-32.6,-8.68 -182.26,5.4 -195.09,-4.9 -12.66,-10.17 -57.19,-47.14 -63.42,-56.99 -17.08,0.01 -34.16,0.04 -51.24,0.08 -26.79,0.07 -21.78,-19.62 -9.04,-21.67 11.31,-1.82 283.67,-0.48 298.38,0.18 -4.38,-3.98 2.76,-0.96 -7.15,-3.39l-225.69 -0.17c-34.13,0 -27.27,8 -64.56,-35.46 -18.4,-21.45 -40.49,-49.19 -56.5,-72.73 -8.26,-12.15 -63.54,-94.85 -64.67,-108.84 -1.31,-16.18 0.18,-40.54 0.18,-57.67 0,-30.27 2.12,-218.41 -1.45,-231.77 -2.52,4.73 -2.1,9.02 -2.05,15.26l0.19 503.94c-0,34.23 -2.27,76.01 54.19,76.07l387.94 -1.94z"/>
  <path class="fil6" d="M11.78 387.06l0.44 11.38c8.96,7.04 10.54,2.11 10.63,20 0.06,11 -1.02,17.17 -11.06,19.35l0.64 11.58c7.89,5.83 9.89,1.88 10.34,16.25 2.4,77.12 -5.58,367.72 2.2,392.61 9.96,31.83 35.44,33.21 72.32,33.21l314.28 0c-10.18,-10.47 -38.91,-21.66 -46.72,-33.13 -57.65,-0.17 -115.32,-0.01 -172.97,-0.01 -48.46,0 -108.61,10.9 -130.41,-42.03 -10.7,-25.98 -5.68,-131 -5.68,-166.8 0,-57.06 0.23,-114.17 -0.01,-171.22 -7.52,-7.28 -34.05,-80.29 -35.24,-94.99 -2.64,1.57 -4.76,2.95 -8.75,3.79z"/>
  <path class="fil1" d="M297.88 265.15c77.3,-13.92 138.06,42.81 148.8,105.83 13.17,77.24 -42.55,138.32 -106.1,148.92 -77.47,12.92 -137.39,-42.11 -148.71,-105.22 -14.2,-79.17 42.4,-138.07 106.01,-149.52zm0.71 -22.41c-75.99,11.35 -142.07,80.32 -128.97,170.72 10.98,75.73 80.5,140.42 169.51,128.68 76.48,-10.08 141.33,-80.79 129.83,-169.72 -9.82,-75.93 -81.01,-143.03 -170.38,-129.68z"/>
  <path class="fil3" d="M20.53 383.28c1.19,14.7 27.73,87.71 35.24,94.99 -0.05,-66.63 0,-133.26 0,-199.89 0,-81.1 18.57,-100.63 98.99,-100.78 3.55,-19.49 3.59,-18.07 10.71,-32.91 -28.22,-1.47 -67.11,-1.36 -95.45,-0.15 -27.57,1.17 -46.35,20.44 -47.31,48.25 -1.04,30.26 3.71,175.5 -2.18,190.48z"/>
  <path class="fil1" d="M261.2 772.69l205.36 0c19.36,0 54.08,4.99 32.74,-21.41 -14.71,-0.66 -287.07,-2 -298.38,-0.18 -12.74,2.05 -17.74,21.74 9.04,21.67 17.08,-0.04 34.16,-0.07 51.24,-0.08z"/>
  <path class="fil1" d="M477.48 681.74c12.22,0.03 31.64,2.87 27.66,-13.71 -2.82,-11.76 -23.1,-8.12 -34.94,-8.11l-251.04 -0.01c-11.24,-0.04 -33.02,-2.96 -27.2,15.04 3.24,10.01 23.1,6.79 34.48,6.79l251.05 0z"/>
  <path class="fil1" d="M477.48 590.78c12.22,0.03 31.64,2.87 27.66,-13.71 -2.82,-11.76 -23.1,-8.12 -34.94,-8.11l-251.04 -0.01c-11.24,-0.04 -33.02,-2.96 -27.2,15.04 3.24,10.01 23.1,6.79 34.48,6.79l251.05 0z"/>
  <path class="fil1" d="M11.78 437.79c10.05,-2.18 11.12,-8.35 11.06,-19.35 -0.09,-17.89 -1.67,-12.97 -10.63,-20 -6.53,3.03 -10.08,2.41 -11.29,10.97 -0.76,5.37 -0.06,17.51 -0.06,23.59 4.96,3.32 4.03,4.4 10.91,4.79z"/>
  <path class="fil1" d="M138.39 661.33c-11.54,6.21 -3.77,25.47 9.72,19.07 12.75,-6.05 3.55,-26.21 -9.72,-19.07z"/>
  <path class="fil1" d="M153.42 574.54c-4.83,-4.02 -7.73,-7.72 -15.07,-4.21 -4.62,2.21 -7.25,8.72 -4.42,14.84 3.5,7.59 21.85,10.02 19.5,-10.63z"/>
  <path class="fil1" d="M153.46 756.41c-4.3,-3.54 -6.76,-6.84 -13.7,-4.65 -5.53,1.74 -8.76,8.8 -5.78,15.28 3.5,7.61 21.91,10.19 19.48,-10.63z"/>
 </g>
</svg>
