<?xml version="1.0" encoding="UTF-8"?>
<!DOCTYPE svg PUBLIC "-//W3C//DTD SVG 1.1//EN" "http://www.w3.org/Graphics/SVG/1.1/DTD/svg11.dtd">
<!-- Creator: CorelDRAW 2020 (64-Bit) -->
<svg xmlns="http://www.w3.org/2000/svg" xml:space="preserve" width="132.292mm" height="132.292mm" version="1.1" style="shape-rendering:geometricPrecision; text-rendering:geometricPrecision; image-rendering:optimizeQuality; fill-rule:evenodd; clip-rule:evenodd"
viewBox="0 0 2302.33 2302.33"
 xmlns:xlink="http://www.w3.org/1999/xlink"
 xmlns:xodm="http://www.corel.com/coreldraw/odm/2003">
 <defs>
  <style type="text/css">
   <![CDATA[
    .str0 {stroke:white;stroke-width:49.12;stroke-miterlimit:22.9256}
    .fil1 {fill:#0081B8}
    .fil2 {fill:white;fill-rule:nonzero}
    .fil0 {fill:url(#id0)}
   ]]>
  </style>
  <linearGradient id="id0" gradientUnits="userSpaceOnUse" x1="443.81" y1="242.96" x2="1858.52" y2="2059.37">
   <stop offset="0" style="stop-opacity:1; stop-color:#46C2F7"/>
   <stop offset="1" style="stop-opacity:1; stop-color:#0090CD"/>
  </linearGradient>
 </defs>
 <g id="Capa_x0020_1">
  <metadata id="CorelCorpID_0Corel-Layer"/>
  <circle class="fil0" cx="1151.17" cy="1151.17" r="1151.17"/>
  <path class="fil1" d="M381.42 1549.76l20.17 -12.12c10.96,13.3 23.13,25.83 36.51,37.58 61.99,54.47 140.02,81.78 234.17,81.78 19.32,0 38.01,-1.22 56.09,-3.66l-227.45 -264.41 36.84 -64.47 297.07 297.07c31.43,-15.42 60.32,-35.87 86.67,-61.36 1.06,-1.03 2.11,-2.05 3.15,-3.09l-362.71 -362.71 76.75 -14.25 -311.56 -311.56 412.11 -211.81 188.79 36.84 406.84 406.84c101.76,-61.13 -188.88,-313.03 360.72,-325.68 86.62,-1.99 130.35,-117.13 256.25,45.18l344.93 444.7c-57,582.5 -548.12,1037.69 -1145.6,1037.69 -5.78,0 -11.55,-0.05 -17.3,-0.13l-752.44 -752.44z"/>
  <path class="fil2 str0" d="M330.12 1361.68l193.65 -23.54c6.07,49.51 22.57,87.36 49.5,113.57 26.94,26.21 59.45,39.31 97.55,39.31 41.01,0 75.54,-15.71 103.62,-47.07 27.97,-31.24 41.98,-73.53 41.98,-126.91 0,-50.23 -13.35,-90.27 -40.28,-119.63 -26.93,-29.36 -59.69,-44.16 -98.52,-44.16 -25.48,0 -55.81,5.1 -91.24,15.04l22.08 -162.1c53.87,1.46 94.82,-10.5 123.27,-35.43 28.33,-24.82 42.47,-58 42.47,-99.49 0,-35.19 -10.38,-63.16 -31.3,-84.2 -20.81,-20.93 -48.53,-31.3 -83.23,-31.3 -34.22,0 -63.28,11.95 -87.36,35.67 -24.21,23.84 -38.83,58.48 -44.16,104.1l-183.45 -31.3c12.86,-63.58 32.06,-114.28 58,-152.39 25.75,-37.84 61.83,-67.81 107.99,-89.54 46.06,-21.7 98.04,-32.52 155.31,-32.52 98.04,0 176.57,31.39 235.87,94.15 48.69,51.53 73.29,109.68 73.29,174.48 0,91.73 -49.99,165.25 -150.21,219.85 59.69,12.86 107.33,41.44 143.17,86.15 35.74,44.59 53.63,98.52 53.63,161.61 0,91.48 -33.49,169.62 -100.22,234.17 -66.73,64.55 -149.72,96.82 -249.22,96.82 -94.15,0 -172.18,-27.31 -234.17,-81.78 -62.01,-54.49 -98.04,-125.46 -107.99,-213.54zm734.93 276.4l0 -199.47 199.47 0 0 199.47 -199.47 0zm582.19 -1016.52c100.95,0 179.72,36.23 236.84,108.47 67.61,85.49 101.68,227.38 101.68,425.39 0,197.77 -34.14,340.03 -102.4,426.36 -56.46,71.4 -135.17,107.01 -236.11,107.01 -101.43,0 -183.21,-39.07 -245.34,-117.21 -62.12,-78.14 -93.18,-217.67 -93.18,-418.11 0,-196.8 34.14,-338.58 102.41,-424.91 56.46,-71.4 135.16,-107.01 236.11,-107.01zm0 165.98c-23.78,0 -45.03,7.9 -63.58,23.3 -18.57,15.42 -33.07,43 -43.44,82.99 -13.41,51.73 -20.38,139.05 -20.38,261.59 0,122.79 6.07,207 18.2,252.86 12.13,45.86 27.42,76.44 45.86,91.73 18.44,15.29 39.55,22.81 63.34,22.81 23.78,0 45.13,-7.78 63.82,-23.3 18.43,-15.3 32.78,-43.01 43.2,-82.99 13.36,-51.26 20.38,-138.32 20.38,-261.11 0,-122.54 -6.07,-206.75 -18.2,-252.61 -12.13,-45.86 -27.48,-76.61 -45.86,-91.97 -18.5,-15.46 -39.55,-23.3 -63.33,-23.3z"/>
 </g>
</svg>
