<?xml version="1.0" encoding="UTF-8"?>
<!DOCTYPE svg PUBLIC "-//W3C//DTD SVG 1.1//EN" "http://www.w3.org/Graphics/SVG/1.1/DTD/svg11.dtd">
<!-- Creator: CorelDRAW 2020 (64-Bit) -->
<svg xmlns="http://www.w3.org/2000/svg" xml:space="preserve" width="83.2754mm" height="83.2754mm" version="1.1" style="shape-rendering:geometricPrecision; text-rendering:geometricPrecision; image-rendering:optimizeQuality; fill-rule:evenodd; clip-rule:evenodd"
viewBox="0 0 563.05 563.05"
 xmlns:xlink="http://www.w3.org/1999/xlink"
 xmlns:xodm="http://www.corel.com/coreldraw/odm/2003">
 <defs>
  <style type="text/css">
   <![CDATA[
    .str0 {stroke:white;stroke-width:19.08;stroke-miterlimit:22.9256}
    .fil3 {fill:#FEFEFE}
    .fil1 {fill:#0081B8}
    .fil2 {fill:white;fill-rule:nonzero}
    .fil0 {fill:url(#id0)}
   ]]>
  </style>
  <linearGradient id="id0" gradientUnits="userSpaceOnUse" x1="108.34" y1="59.18" x2="454.38" y2="503.54">
   <stop offset="0" style="stop-opacity:1; stop-color:#46C2F7"/>
   <stop offset="1" style="stop-opacity:1; stop-color:#0090CD"/>
  </linearGradient>
 </defs>
 <g id="Capa_x0020_1">
  <metadata id="CorelCorpID_0Corel-Layer"/>
  <circle class="fil0" cx="281.52" cy="281.52" r="281.52"/>
  <path class="fil1" d="M93.28 379l4.93 -2.96c2.68,3.25 5.66,6.32 8.93,9.19 15.16,13.32 34.24,20 57.27,20 4.72,0 9.3,-0.3 13.72,-0.9l-55.62 -64.66 9.01 -15.77 72.65 72.65c7.69,-3.77 14.75,-8.77 21.2,-15.01 0.26,-0.25 0.52,-0.5 0.77,-0.76l-88.7 -88.7 18.77 -3.48 -76.19 -76.19 100.78 -51.8 46.17 9.01 89.27 89.27c24.89,-14.95 -35.96,-66.32 98.44,-69.42 21.18,-0.49 19.87,-56.8 19.88,-56.89l127.14 176.69c-13.94,142.45 -134.04,253.77 -280.16,253.77 -1.41,0 -2.82,-0.01 -4.23,-0.03l-184.01 -184.01 -0 0z"/>
  <path class="fil2 str0" d="M80.73 333l47.36 -5.76c1.48,12.11 5.52,21.36 12.11,27.77 6.59,6.41 14.54,9.61 23.86,9.61 10.03,0 18.47,-3.84 25.34,-11.51 6.84,-7.64 10.27,-17.98 10.27,-31.04 0,-12.28 -3.27,-22.08 -9.85,-29.26 -6.59,-7.18 -14.6,-10.8 -24.09,-10.8 -6.23,0 -13.65,1.25 -22.31,3.68l5.4 -39.64c13.17,0.36 23.19,-2.57 30.15,-8.66 6.93,-6.07 10.39,-14.18 10.39,-24.33 0,-8.61 -2.54,-15.45 -7.65,-20.59 -5.09,-5.12 -11.87,-7.65 -20.35,-7.65 -8.37,0 -15.48,2.92 -21.36,8.72 -5.92,5.83 -9.5,14.3 -10.8,25.46l-44.86 -7.66c3.14,-15.55 7.84,-27.95 14.18,-37.27 6.3,-9.25 15.12,-16.58 26.41,-21.9 11.26,-5.31 23.98,-7.95 37.98,-7.95 23.98,0 43.18,7.68 57.68,23.02 11.91,12.6 17.92,26.82 17.92,42.67 0,22.43 -12.23,40.41 -36.73,53.77 14.6,3.14 26.25,10.13 35.01,21.07 8.74,10.9 13.12,24.09 13.12,39.52 0,22.37 -8.19,41.48 -24.51,57.27 -16.32,15.79 -36.61,23.68 -60.95,23.68 -23.02,0 -42.11,-6.68 -57.27,-20 -15.16,-13.33 -23.98,-30.68 -26.41,-52.22l-0.01 -0.01zm202.25 67.6l0 -48.78 48.78 0 0 48.78 -48.78 0z"/>
  <path class="fil3" d="M391.93 132.23l-0.05 0.14 -0.14 0 0 0.36c-1.87,4.72 -18.25,42.28 -76.39,66.69 0.38,-0.19 0,59.87 0,59.87 0,0 37.72,-11.45 60.24,-27.21l0 176.19 16.14 0 27.78 0 16.14 0 0 -275.89 -43.72 0 -0.01 -0.14z"/>
 </g>
</svg>
