<?xml version="1.0" encoding="UTF-8"?>
<!DOCTYPE svg PUBLIC "-//W3C//DTD SVG 1.1//EN" "http://www.w3.org/Graphics/SVG/1.1/DTD/svg11.dtd">
<!-- Creator: CorelDRAW 2020 (64-Bit) -->
<svg xmlns="http://www.w3.org/2000/svg" xml:space="preserve" width="108.464mm" height="108.47mm" version="1.1" style="shape-rendering:geometricPrecision; text-rendering:geometricPrecision; image-rendering:optimizeQuality; fill-rule:evenodd; clip-rule:evenodd"
viewBox="0 0 3023.6 3023.78"
 xmlns:xlink="http://www.w3.org/1999/xlink"
 xmlns:xodm="http://www.corel.com/coreldraw/odm/2003">
 <defs>
  <style type="text/css">
   <![CDATA[
    .fil0 {fill:black}
    .fil7 {fill:#2D4D83}
    .fil2 {fill:#4371B0}
    .fil5 {fill:#669E4F}
    .fil3 {fill:#78B65B}
    .fil8 {fill:#DA9B7B}
    .fil1 {fill:#EEBD99}
    .fil6 {fill:#F5B953}
    .fil4 {fill:#F8D08A}
   ]]>
  </style>
 </defs>
 <g id="Capa_x0020_1">
  <metadata id="CorelCorpID_0Corel-Layer"/>
  <g id="_2660088330544">
   <path class="fil0" d="M1828.46 2778.62l828.34 0c-14.63,19.97 -57.43,42.18 -82.61,57.48 -189.92,115.44 -473.2,115.44 -663.12,0 -25.18,-15.3 -67.98,-37.51 -82.61,-57.48zm-1461.78 0l828.34 0c-26.4,36.03 -133.95,83.82 -178.32,101.86 -175.51,71.37 -410.95,50.73 -567.42,-44.38 -25.18,-15.3 -67.98,-37.51 -82.61,-57.48zm1584.58 -195.81l-1.14 98.36 -97.3 0 0.52 -107.27c-5.34,-128.77 55.45,-253.6 194.87,-277 15.23,248.6 373.34,249.03 388.8,0 55.74,9.4 115.76,48.29 133.51,79.86 76.23,68.38 61.92,186.83 61.92,304.41l-97.45 0 0 -194.9 -97.45 0 0 194.9 -389.81 0 -0.98 -98.36 1.02 -96.48 -97.49 0 0.98 96.48zm-1462.37 -0.16l-0.46 98.52 -97.39 0 0.26 -107.34c-1.6,-81.15 7.72,-131.99 48.87,-184.53 29.6,-37.79 76.67,-80.62 146.24,-92.35 14.79,248.45 373.36,249.07 388.88,0 43.09,7.3 120.7,45.67 131.08,80.42 36.91,25.24 56.05,81.1 61.76,123.73 6.81,50.78 2.52,126.53 2.52,180.07l-97.45 0 0 -194.9 -97.45 0 0 194.9 -389.81 0 -0.4 -98.52 0.42 -96.36 -97.47 0 0.4 96.36zm1851.05 -291.15c-11.44,128.95 -183.53,129.02 -194.65,-0.15l194.65 0.15zm-1461.78 0c-11.44,128.95 -183.53,129.02 -194.65,-0.15l194.65 0.15zm1337.27 -582.78c115.96,-17.11 221.43,67.32 222.2,210.94 0.38,71.77 5.32,133.78 -32.54,187.05 -114.41,160.97 -356.68,89.3 -357.47,-125.72 -0.41,-110.64 7.35,-248.59 167.81,-272.26zm-1461.78 0c115.96,-17.11 221.42,67.32 222.2,210.94 0.38,71.77 5.32,133.78 -32.54,187.05 -114.41,160.97 -356.68,89.3 -357.47,-125.72 -0.41,-110.64 7.35,-248.59 167.81,-272.26zm-252.98 -196.97c2.38,28.61 23.91,63.25 30.46,91.36 34.34,-0.77 77.76,-20.75 118.25,-27.92 160.48,-28.41 263.18,-12.56 410.87,46.97 74.7,30.11 143.76,84.35 200.25,140.84l140.84 200.24c18.68,46.34 29.59,77.46 42.29,128.25 24.41,97.65 24.92,199.88 1.26,297.46 -25.6,105.58 -96.78,269.11 -176.77,322.67 0,-145.88 13.99,-251.4 -43.69,-346.12 -50.1,-82.28 -118.4,-140.83 -224.3,-165.5 7.81,-29.23 73.09,-70.95 73.09,-188.81l0 -133.99c0,-130.46 -137.53,-267.99 -267.99,-267.99 -90.72,0 -163.3,13.58 -233.22,83.49 -99.71,99.71 -83.5,205.57 -83.5,330.67 0,33.72 13.84,73.93 24.32,97.5 6.24,14.04 12.2,25.47 21.78,39.12 13.97,19.93 21.29,18.67 26.99,40.01 -105.9,24.67 -174.2,83.23 -224.3,165.5 -57.68,94.72 -43.69,200.24 -43.69,346.12 -43.28,-28.99 -112.95,-138.65 -134.94,-193.96 -128.33,-322.7 -10.69,-482.42 -5.14,-549.11 -20.13,-10.65 -65.37,-34.38 -91.36,-36.55 -4.34,18.65 -13.31,36.69 -20.6,58.59 -66.58,200.01 -51.34,396.87 32.85,586.96 108.5,244.99 396.28,444.7 669.91,444.7 127.72,0 195.9,-3.73 315.92,-49.53 88.22,-33.66 163.1,-80.36 230.83,-140.71 15.67,-13.96 23.49,-17.47 39.6,-33.48l68.07 -78.11c33.78,-44.98 93.33,-133.17 106.93,-191.52l12.18 0c13.37,57.4 71.95,144.74 104.35,188.01 43.44,58.02 90.88,104.94 149.66,148.79 277.53,207.01 634.35,209.25 920.37,15.33 18.41,-12.48 35.44,-24.72 51.4,-39.96 53.58,-51.2 86.32,-74.8 134.96,-145.22 126.59,-183.3 171.67,-384.99 129.9,-609.96 -6.76,-36.41 -20.77,-70.47 -28.85,-105.15 -28.75,6.7 -58.59,22.82 -91.36,30.45 0.51,22.95 6.51,38.66 11.51,55.49 44.65,150.28 22.5,305.77 -33.22,446.6 -23.12,58.44 -91.97,168.42 -136.65,198.34 0,-145.88 13.99,-251.4 -43.69,-346.12 -50.11,-82.28 -118.4,-140.83 -224.3,-165.5 7.8,-29.23 73.09,-70.95 73.09,-188.81l0 -133.99c0,-130.46 -137.53,-267.99 -267.99,-267.99 -90.72,0 -163.3,13.58 -233.22,83.49 -17.86,17.86 -43.32,54.32 -55.27,78.73 -40.87,83.43 -40.42,267.28 -3.91,349.45 6.24,14.04 12.21,25.47 21.78,39.12 13.97,19.93 21.29,18.67 26.99,40.01 -105.9,24.67 -174.2,83.23 -224.3,165.5 -57.68,94.72 -43.69,200.24 -43.69,346.12 -43.29,-28.99 -112.95,-138.65 -134.94,-193.96 -83.08,-208.91 -82.93,-412.4 31.08,-610.34 40.25,-69.87 92.35,-134.28 154.35,-186.73 180.48,-152.66 415.66,-193.51 646.07,-125.8 24.4,7.17 42.23,18.62 64.78,20.49 10.65,-20.13 34.38,-65.37 36.54,-91.37 -70.81,-16.49 -132.9,-60.9 -274.08,-60.9 -204.14,0 -344.52,35.12 -507.34,156.56 -27.38,20.43 -55.27,43.45 -78.93,67.24 -60.63,60.99 -156.03,187.8 -175.07,269.55l-12.18 0c-25.66,-110.14 -158.51,-265.57 -254.01,-336.79 -57.98,-43.25 -114.5,-76.06 -187.04,-105.32 -133.18,-53.72 -306.04,-66.51 -450.68,-35.44 -44.44,9.55 -74.54,23.91 -113.25,32.93z"/>
   <path class="fil0" d="M1097.57 1316.84l828.34 0c-26.4,36.03 -133.95,83.82 -178.31,101.86 -175.51,71.37 -410.95,50.73 -567.42,-44.38 -25.18,-15.3 -67.98,-37.51 -82.61,-57.48zm121.76 -196.18l0.06 98.73 -97.47 0 0.21 -107.28c-2.37,-151.08 63.63,-244.67 188.62,-276.15 0.96,1.26 1.82,3.21 2.25,4.19l9.64 32.9c9.85,44.71 21.81,62.22 52.62,93.02 121.5,121.45 319.47,43.52 330.91,-130.89 55.27,9.34 117.01,48.58 133.28,80.54 76.16,64.23 62.1,189.38 62.1,303.68l-97.45 0 0 -194.9 -97.45 0 0 194.9 -389.77 0 -0.29 -98.63 0.25 -96.25 -97.41 0 -0.1 96.14zm389.73 -290.94c-11.44,128.95 -183.53,129.02 -194.64,-0.14l194.64 0.14zm-124.51 -582.78c69.41,-10.24 123.5,16.02 160.78,53.13 43.39,43.18 60.98,76.3 61.42,157.81 0.38,71.76 5.32,133.78 -32.54,187.04 -114.41,160.97 -356.68,89.3 -357.47,-125.72 -0.41,-110.64 7.35,-248.59 167.81,-272.26zm-752.42 497.37c0,160.12 10.28,229.49 73.16,371.46 108.5,244.99 396.27,444.7 669.91,444.7 205.65,0 325.19,-32.12 486.12,-141.23 18.42,-12.48 35.44,-24.72 51.4,-39.96 53.58,-51.2 86.32,-74.8 134.96,-145.22 126.6,-183.3 171.67,-384.99 129.9,-609.96 -6.76,-36.41 -20.77,-70.47 -28.85,-105.15 -28.75,6.69 -58.59,22.82 -91.36,30.45 1.74,78.07 93.6,210.66 -21.71,502.1 -23.12,58.43 -91.97,168.42 -136.65,198.34 0,-145.88 13.99,-251.4 -43.69,-346.12 -50.11,-82.28 -118.4,-140.83 -224.3,-165.5 5.65,-21.18 11.81,-19.39 24.45,-36.46 60.93,-82.28 48.64,-186.41 48.64,-286.35 0,-130.46 -137.53,-268 -267.99,-268 -63.39,0 -94.88,-0.98 -154.5,28.23 -89.44,43.81 -162.22,144.82 -162.22,239.77 0,84.92 -10.22,165.95 24.32,243.68 23.52,52.93 41.82,53.09 48.77,79.14 -105.9,24.67 -174.2,83.23 -224.3,165.5 -57.68,94.72 -43.69,200.24 -43.69,346.12 -72.95,-48.85 -154.15,-216.55 -176.28,-317.07 -35.72,-162.28 -17.06,-282.17 43.06,-431.32l61.79 -108.75c35.45,-47.03 76.75,-95.68 121.92,-133.89 180.48,-152.66 415.66,-193.51 646.07,-125.8 24.4,7.17 42.23,18.61 64.78,20.49 10.65,-20.13 34.38,-65.37 36.55,-91.36 -18.65,-4.34 -36.69,-13.31 -58.59,-20.6 -200.01,-66.58 -396.87,-51.34 -586.96,32.85 -244.99,108.5 -444.7,396.27 -444.7,669.91z"/>
   <path class="fil1" d="M1484.55 246.94c-160.46,23.67 -168.22,161.62 -167.81,272.26 0.79,215.02 243.05,286.68 357.47,125.72 37.86,-53.26 32.93,-115.28 32.54,-187.04 -0.44,-81.51 -18.03,-114.63 -61.42,-157.81 -37.28,-37.1 -91.37,-63.37 -160.78,-53.13z"/>
   <path class="fil1" d="M753.66 1708.72c-160.46,23.67 -168.22,161.62 -167.81,272.26 0.79,215.02 243.05,286.69 357.47,125.72 37.86,-53.26 32.93,-115.28 32.54,-187.05 -0.77,-143.62 -106.24,-228.05 -222.2,-210.94z"/>
   <path class="fil1" d="M2215.44 1708.72c-160.46,23.67 -168.22,161.62 -167.81,272.26 0.79,215.02 243.05,286.69 357.47,125.72 37.86,-53.26 32.93,-115.28 32.54,-187.05 -0.77,-143.62 -106.24,-228.05 -222.2,-210.94z"/>
   <path class="fil0" d="M305.77 1804.1l-60.91 0 0 -48.73 60.91 0c21.8,0 26.35,7.53 36.54,18.27 -5.14,22.05 -9.48,30.45 -36.54,30.45zm0 -146.18l-60.91 0 0 -48.73 60.91 0c21.8,0 26.35,7.53 36.54,18.27 -5.14,22.05 -9.48,30.45 -36.54,30.45zm-158.36 -97.45l0 292.36c0,67.68 88.64,48.72 188.81,48.72 44.64,0 103.54,-58.89 103.54,-103.54 0,-94.57 -18.27,-58.61 -18.27,-91.36 0,-32.76 18.27,3.21 18.27,-91.36 0,-44.65 -58.9,-103.55 -103.54,-103.55 -100.18,0 -188.81,-18.95 -188.81,48.73z"/>
   <path class="fil0" d="M1999 147.41l97.45 0 0 97.45 -97.45 0 0 -97.45zm-97.45 -48.72l0 341.08 97.45 0 0 -97.45 97.45 0 0 97.45 97.45 0 0 -341.08c0,-29.47 -19.27,-48.73 -48.73,-48.73l-194.9 0c-29.46,0 -48.73,19.26 -48.73,48.73z"/>
   <path class="fil2" d="M1853.34 2573.9l97.92 8.91 -0.98 -96.48 97.49 0 -1.02 96.48c107.7,-6.18 211.43,-24.73 303.79,-61.57 43.82,-17.48 86.73,-37.44 122.21,-60.6 24.73,-16.15 91.69,-57.37 97.77,-83.87 -17.75,-31.57 -77.77,-70.46 -133.51,-79.86 -15.45,249.03 -373.56,248.6 -388.8,0 -139.42,23.41 -200.21,148.23 -194.87,277z"/>
   <path class="fil3" d="M391.31 2573.83l97.59 8.81 -0.4 -96.36 97.47 0 -0.42 96.36c111.87,-6.07 207.19,-25.1 302.82,-61.79 45.64,-17.51 83.85,-37.21 121.98,-60.7 22.64,-13.95 34.59,-22.7 53.74,-37.7 19.65,-15.39 39.53,-21.57 42.28,-45.08 -10.38,-34.75 -87.99,-73.11 -131.08,-80.42 -15.52,249.07 -374.1,248.45 -388.88,0 -69.57,11.73 -116.64,54.56 -146.24,92.35 -41.15,52.53 -50.47,103.38 -48.87,184.53z"/>
   <path class="fil4" d="M1122.13 1112.11l97.2 8.54 0.1 -96.14 97.41 0 -0.25 96.25c170.3,-8.97 347.41,-56.59 478.47,-160.02 16.9,-13.34 38.32,-20.79 44.39,-45.03 -16.27,-31.95 -78.01,-71.19 -133.28,-80.54 -11.44,174.41 -209.41,252.35 -330.91,130.89 -30.81,-30.79 -42.77,-48.3 -52.62,-93.02l-9.64 -32.9c-0.43,-0.98 -1.29,-2.93 -2.25,-4.19 -124.99,31.48 -190.99,125.07 -188.62,276.15z"/>
   <path class="fil5" d="M585.55 2582.64l0.4 98.52 389.81 0 0 -194.9 97.45 0 0 194.9 97.45 0c0,-53.54 4.29,-129.29 -2.52,-180.07 -5.71,-42.62 -24.86,-98.48 -61.76,-123.73 -2.76,23.51 -22.63,29.7 -42.28,45.08 -19.15,14.99 -31.1,23.75 -53.74,37.7 -38.13,23.5 -76.34,43.19 -121.98,60.7 -95.63,36.69 -190.95,55.71 -302.82,61.79z"/>
   <path class="fil6" d="M1316.59 1120.76l0.29 98.63 389.77 0 0 -194.9 97.45 -0 0 194.9 97.45 0c0,-114.3 14.06,-239.46 -62.1,-303.68 -6.07,24.24 -27.49,31.69 -44.39,45.03 -131.06,103.44 -308.17,151.06 -478.47,160.02z"/>
   <path class="fil7" d="M2046.74 2582.81l0.98 98.36 389.81 0 0 -194.9 97.45 0 0 194.9 97.45 0c0,-117.57 14.31,-236.02 -61.92,-304.41 -6.09,26.51 -73.04,67.72 -97.77,83.87 -35.48,23.16 -78.39,43.12 -122.21,60.6 -92.36,36.84 -196.08,55.39 -303.79,61.57z"/>
   <path class="fil0" d="M2632.44 1560.47l0 292.36c0,29.46 19.26,48.72 48.73,48.72l194.9 0 0 -97.45 -146.18 0 0 -194.9 146.18 0 0 -97.45 -194.9 0c-29.46,0 -48.73,19.27 -48.73,48.73z"/>
   <path class="fil8" d="M878.17 2291.49l-194.65 -0.15c11.11,129.17 183.21,129.1 194.65,0.15z"/>
   <path class="fil8" d="M2339.95 2291.49l-194.65 -0.15c11.12,129.17 183.21,129.1 194.65,0.15z"/>
   <path class="fil8" d="M1609.06 829.71l-194.64 -0.14c11.11,129.17 183.21,129.09 194.64,0.14z"/>
   <polygon class="fil7" points="1951.26,2582.81 1853.34,2573.9 1852.82,2681.16 1950.12,2681.16 "/>
   <polygon class="fil5" points="488.89,2582.64 391.31,2573.83 391.04,2681.16 488.43,2681.16 "/>
   <polygon class="fil6" points="1219.33,1120.65 1122.13,1112.11 1121.91,1219.39 1219.38,1219.39 "/>
  </g>
 </g>
</svg>
