<?xml version="1.0" encoding="UTF-8"?>
<!DOCTYPE svg PUBLIC "-//W3C//DTD SVG 1.1//EN" "http://www.w3.org/Graphics/SVG/1.1/DTD/svg11.dtd">
<!-- Creator: CorelDRAW 2020 (64-Bit) -->
<svg xmlns="http://www.w3.org/2000/svg" xml:space="preserve" width="39.0276mm" height="39.1584mm" version="1.1" style="shape-rendering:geometricPrecision; text-rendering:geometricPrecision; image-rendering:optimizeQuality; fill-rule:evenodd; clip-rule:evenodd"
viewBox="0 0 293.94 294.92"
 xmlns:xlink="http://www.w3.org/1999/xlink"
 xmlns:xodm="http://www.corel.com/coreldraw/odm/2003">
 <defs>
  <style type="text/css">
   <![CDATA[
    .fil0 {fill:#00B8ED}
   ]]>
  </style>
 </defs>
 <g id="Capa_x0020_1">
  <metadata id="CorelCorpID_0Corel-Layer"/>
  <path class="fil0" d="M59.58 0l40.71 0 0 39.86 -48.66 0c-6.55,0 -11.9,5.35 -11.9,11.9l0 191.4c0,6.55 5.35,11.9 11.9,11.9l190.67 0c6.56,0 11.91,-5.35 11.91,-11.9l0 -47.53 39.73 0 0 39.72c0,32.77 -26.81,59.58 -59.58,59.58l-174.79 0c-32.77,0 -59.58,-26.81 -59.58,-59.58l0 -175.77c0,-32.77 26.81,-59.58 59.58,-59.58zm79.8 129.44l89.58 -89.58 -82.98 0 0 -39.86 88.39 0c32.77,0 59.58,26.81 59.58,59.58l0 90.38 -39.73 0 0 -80.19 -87.26 87.25c-7.58,7.58 -19.99,7.58 -27.58,0l0 0c-7.58,-7.58 -7.58,-19.99 0,-27.57z"/>
 </g>
</svg>
