<?xml version="1.0" encoding="UTF-8"?>
<!DOCTYPE svg PUBLIC "-//W3C//DTD SVG 1.1//EN" "http://www.w3.org/Graphics/SVG/1.1/DTD/svg11.dtd">
<!-- Creator: CorelDRAW 2020 (64-Bit) -->
<svg xmlns="http://www.w3.org/2000/svg" xml:space="preserve" width="39.1584mm" height="39.1584mm" version="1.1" style="shape-rendering:geometricPrecision; text-rendering:geometricPrecision; image-rendering:optimizeQuality; fill-rule:evenodd; clip-rule:evenodd"
viewBox="0 0 536.97 536.97"
 xmlns:xlink="http://www.w3.org/1999/xlink"
 xmlns:xodm="http://www.corel.com/coreldraw/odm/2003">
 <defs>
  <style type="text/css">
   <![CDATA[
    .fil2 {fill:black}
    .fil3 {fill:#0085AD}
    .fil1 {fill:#00ABDD}
    .fil4 {fill:#01607D}
    .fil6 {fill:#CCCCCC}
    .fil0 {fill:#E6E6E6}
    .fil5 {fill:white}
   ]]>
  </style>
 </defs>
 <g id="Capa_x0020_1">
  <metadata id="CorelCorpID_0Corel-Layer"/>
  <circle class="fil0" cx="268.48" cy="268.48" r="268.48"/>
  <path class="fil1" d="M312.61 260.14c6.46,-0.97 11.26,2.21 13.96,5.53 3.8,4.67 3.46,9.85 3.46,16.68l0 79.98c0,5.9 0.9,13.65 -1.48,18.67 -4.83,10.17 -18.29,11.94 -25.67,2.87 -3.92,-4.81 -3.27,-9.71 -3.27,-16.69l0 -79.98c0,-8.5 -2.35,-24.75 13.01,-27.06zm-48.5 -0.01c6.59,-0.95 11.16,2.31 13.95,5.57 4.01,4.7 3.4,9.75 3.4,16.66 -0,13.33 0,26.66 0,39.99 0,8.14 1.28,52.83 -1.43,58.61 -4.92,10.49 -18.94,11.63 -25.67,2.95 -3.63,-4.69 -3.32,-9.91 -3.32,-16.73l0 -79.98c0,-5.87 -0.86,-13.54 1.5,-18.55 1.84,-3.91 6.13,-7.75 11.58,-8.53zm-49.67 0.34c6.22,-1.61 10.98,1.05 14.23,4.33 4.4,4.43 4.23,8.57 4.22,15.74 -0.02,11.93 1.05,93.65 -0.87,99.05 -4.05,11.43 -18.36,13.02 -25.42,5.44 -3.78,-4.06 -4.15,-8.95 -4.14,-16.02l0 -79.98c0,-14.34 -1.37,-25.1 11.98,-28.55zm-6.38 157.62c42.01,0.03 84.04,-0.1 126.05,0 12.46,0.03 15.59,-2.49 16.69,-14.62l6.58 -72.52c0.56,-6.16 -0.4,-9.86 5.81,-10.7 0,-2.48 0.56,-10.44 1.21,-11.95 -6.64,-1.65 -4.26,-7.58 -3.65,-14.44 0.53,-5.97 1.07,-11.78 1.61,-17.78 1.08,-11.84 2.61,-24.33 3.21,-36.09l-176.76 -0.02c-0.87,4.8 12.19,139.63 14,159.27 1.28,13.88 -0.02,9.65 5.24,18.84z"/>
  <path class="fil2" d="M377.18 201.36c2.82,0.5 2.36,2.55 2.34,5.84 -0.04,6.19 0.68,19.35 -1.08,23.08 -5.62,1.64 -40.29,0.62 -49.18,0.62 -48.83,0 -98.96,0.51 -147.49,-0.02 -6.14,0.05 -23.2,0.72 -27.73,-0.6 -1.53,-3.22 -1.89,-22.97 -0.75,-27.39 2.03,-3.37 7.59,-2.22 12.36,-2.22 4.64,0 9.29,0.02 13.94,-0l197.58 0.69zm-43.26 225.82l-14.96 0 -94.53 0 -32.72 0c-8.56,-0.46 -15.44,-6.6 -17.66,-13.24 -1.59,-4.74 -2.58,-22.54 -3.38,-28.74l-3.85 -44.02c-0.16,-2.03 -0.39,-4.63 -0.66,-7.22 -1.15,-10.99 -8.39,-86.87 -8.39,-94.02 -4.57,0 -5.85,-0.16 -8.76,-2.14 -7.64,-5.19 -5.17,-15.51 -5.17,-26.34 0,-9.33 -0.86,-11.98 4.37,-16.84 4.54,-4.21 9.84,-3.16 18.05,-3.16 1.51,-6.48 6.07,-12.44 11.01,-15.65 6.94,-4.52 10.74,-4.34 21.71,-4.34 0.53,-6.4 5.54,-16.62 8.82,-22.08l10.1 -12.93c31.77,-31.08 84.73,-23.87 107.01,13.3 2.06,3.44 3.47,6.09 5.13,10.02 1.09,2.58 3.21,8.78 3.46,11.69 11,0 15.2,-0.1 22.08,4.58 4.82,3.28 9.17,9.09 10.64,15.41 8.22,0 13.51,-1.06 18.05,3.16 5.12,4.75 4.37,7.7 4.37,16.84 0,13.33 3.55,28.48 -13.94,28.48 0,4.23 -0.45,5.94 -0.61,9.69 -0.36,8.43 -2.01,17.14 -2.42,26.66 -0.25,5.79 -1.33,12.58 -1.77,18.23 -0.6,7.77 0.42,12.93 -5.5,13.78 -6.64,-1.65 -4.26,-7.58 -3.65,-14.44 0.53,-5.97 1.07,-11.78 1.61,-17.78 1.08,-11.84 2.61,-24.33 3.21,-36.09l-176.76 -0.02 -21.9 0.01c0.79,16.19 2.97,33.63 4.46,49.93l9.12 100.5c0.64,6.94 0.51,18.8 3.97,23.41 4.56,6.07 15.52,4.25 23.59,4.26 42.01,0.03 84.04,-0.1 126.05,0 12.46,0.03 15.59,-2.49 16.69,-14.62l6.58 -72.52c0.56,-6.16 -0.4,-9.86 5.81,-10.7 5.16,1.43 4.21,5.89 3.47,11.62l-5.3 58.32c-1.81,32.71 -7.02,36.61 -27.44,36.98zm8.88 -245.98c5.94,-0.71 12.3,5.9 13.62,10.39l-156.09 -0.01 -24.27 -0.1c1.4,-4.72 6.49,-9.22 11.98,-10.4 4.65,-1 16.38,-0.42 21.84,-0.44 19.05,-0.07 129.97,-0.79 132.91,0.56zm-69.87 -54.78c25.09,3.22 46.58,22.16 51.09,45.17l-9.43 0c-4.72,-23.18 -38.49,-42.94 -42.09,-31.63 -1.37,9.94 15.12,1.3 29.86,25.69 1.25,2.06 1.61,3.83 2.66,5.82l-77.56 0c3.51,-6.63 5.07,-12.16 13.57,-18.54 2.72,-2.05 6.92,-4.39 10.06,-5.7 4,-1.66 9.67,-1.21 8.89,-7.27 -0.65,-2 -1.12,-1.82 -1.62,-3.03 -8.75,-2.03 -21.75,7.43 -26.05,11.5 -5.36,5.08 -12.35,12.99 -14.41,23.16l-9.44 0c4.97,-25.45 32.51,-48.86 64.47,-45.17z"/>
  <path class="fil3" d="M181.78 230.88c48.53,0.53 98.66,0.02 147.49,0.02 8.89,0 43.56,1.02 49.18,-0.62 1.76,-3.73 1.04,-16.89 1.08,-23.08 0.02,-3.29 0.47,-5.33 -2.34,-5.84 -15.26,0.86 -33.45,0.04 -49.13,0.04 -16.41,0 -141.63,-0.83 -146.42,0.37 -0.99,3.39 -0.69,25.21 0.15,29.11z"/>
  <path class="fil3" d="M208.06 418.09c-5.26,-9.19 -3.96,-4.96 -5.24,-18.84 -1.81,-19.65 -14.88,-154.47 -14,-159.27l-21.9 0.01c0.79,16.19 2.97,33.63 4.46,49.93l9.12 100.5c0.64,6.94 0.51,18.8 3.97,23.41 4.56,6.07 15.52,4.25 23.59,4.26z"/>
  <path class="fil2" d="M211.56 334.88l-0.02 -54.34c-0.02,-5.65 0.01,-11.47 6.2,-11.41 6.49,0.05 6.07,5.96 6.05,12.02l0.01 53.31c-0.04,8.69 -0.01,17.38 -0.01,26.07 0,6.86 2.47,19.96 -6.03,20.05 -8.65,0.1 -6.22,-12.91 -6.22,-20.05 0,-8.54 -0.05,-17.1 0.01,-25.65zm2.88 -74.41c-13.34,3.45 -11.98,14.22 -11.98,28.55l-0 79.98c-0.01,7.07 0.36,11.96 4.14,16.02 7.06,7.58 21.36,5.98 25.42,-5.44 1.92,-5.4 0.85,-87.11 0.87,-99.05 0.01,-7.18 0.18,-11.31 -4.22,-15.74 -3.25,-3.27 -8.01,-5.93 -14.23,-4.33z"/>
  <path class="fil2" d="M260.13 334.82l-0.02 -54.28c-0.01,-3.24 -1.11,-11.44 6.13,-11.43 7.43,0 6.13,8.66 6.13,12.04l-0.02 53.65c0.06,8.57 0.01,17.16 0.01,25.73 0,7.06 2.41,20.05 -6.13,20.06 -8.44,0.01 -6.13,-12.47 -6.13,-19.45 0,-8.77 -0.04,-17.54 0.01,-26.31zm3.98 -74.69c-5.45,0.78 -9.74,4.62 -11.58,8.53 -2.36,5.01 -1.5,12.67 -1.5,18.55l0 79.98c-0,6.82 -0.32,12.04 3.32,16.73 6.73,8.67 20.75,7.54 25.67,-2.95 2.72,-5.79 1.43,-50.47 1.43,-58.61 0,-13.33 -0,-26.66 0,-39.99 0,-6.9 0.61,-11.96 -3.4,-16.66 -2.78,-3.26 -7.35,-6.52 -13.95,-5.57z"/>
  <path class="fil2" d="M308.68 334.49l0 -54.55c-0.02,-5.85 0.13,-11.22 6.58,-10.79 6.17,0.41 5.68,6.82 5.68,12.61l-0.02 53.1c0.07,8.75 0.01,17.52 0.01,26.28 0,7.33 2.26,20.21 -6.78,19.42 -7.94,-0.7 -5.47,-13.84 -5.47,-20.63 0,-8.47 0.03,-16.96 -0.01,-25.43zm3.93 -74.34c-15.36,2.31 -13.01,18.56 -13.01,27.06l0 79.98c-0,6.98 -0.65,11.88 3.27,16.69 7.39,9.07 20.84,7.3 25.67,-2.87 2.38,-5.01 1.48,-12.76 1.48,-18.67l0 -79.98c0,-6.83 0.34,-12.01 -3.46,-16.68 -2.7,-3.33 -7.5,-6.51 -13.96,-5.53z"/>
  <path class="fil3" d="M200.34 191.58l156.09 0.01c-1.33,-4.49 -7.69,-11.1 -13.62,-10.39 -11.96,0.6 -26.07,-0.01 -38.39,-0.01 -12.91,0 -88.88,-0.6 -95.78,0.04 -4.48,0.41 -7.41,6.27 -8.3,10.35z"/>
  <path class="fil4" d="M181.78 230.88c-0.84,-3.9 -1.14,-25.73 -0.15,-29.11 4.8,-1.2 130.01,-0.37 146.42,-0.37 15.67,0 33.87,0.82 49.13,-0.04l-197.58 -0.69c-4.64,0.02 -9.29,0 -13.94,0 -4.77,-0 -10.33,-1.15 -12.36,2.22 -1.14,4.42 -0.78,24.17 0.75,27.39 4.54,1.31 21.59,0.65 27.73,0.6z"/>
  <path class="fil5" d="M260.13 334.82c6.2,2.29 6.01,2.32 12.23,-0.03l0.02 -53.65c0.01,-3.38 1.3,-12.03 -6.13,-12.04 -7.25,-0 -6.14,8.19 -6.13,11.43l0.02 54.28z"/>
  <path class="fil5" d="M308.68 334.49c4.67,3.09 6.89,2.25 12.25,0.36l0.02 -53.1c0.01,-5.79 0.5,-12.2 -5.68,-12.61 -6.45,-0.43 -6.61,4.94 -6.58,10.79l-0 54.55z"/>
  <path class="fil5" d="M211.56 334.88c5.51,1.94 7.51,2.58 12.25,-0.42l-0.01 -53.31c0.01,-6.06 0.43,-11.96 -6.05,-12.02 -6.19,-0.05 -6.23,5.76 -6.2,11.41l0.02 54.34z"/>
  <path class="fil3" d="M258.37 136.93c0.51,1.21 0.98,1.03 1.62,3.03l12.51 0c3.6,-11.31 37.37,8.45 42.09,31.63l9.43 0c-4.52,-23.02 -26,-41.95 -51.09,-45.17 -2.42,2.6 -14.7,6.96 -14.57,10.51z"/>
  <path class="fil4" d="M258.37 136.93c-0.13,-3.54 12.14,-7.9 14.57,-10.51 -31.96,-3.69 -59.5,19.72 -64.47,45.17l9.44 0c2.06,-10.17 9.05,-18.09 14.41,-23.16 4.3,-4.08 17.31,-13.54 26.05,-11.5z"/>
  <path class="fil6" d="M211.56 334.88c-0.06,8.54 -0.01,17.1 -0.01,25.65 0,7.14 -2.43,20.16 6.22,20.05 8.51,-0.1 6.03,-13.2 6.03,-20.05 0,-8.69 -0.03,-17.38 0.01,-26.07 -4.74,3 -6.73,2.36 -12.25,0.42z"/>
  <path class="fil6" d="M272.36 334.79c-6.22,2.35 -6.03,2.32 -12.23,0.03 -0.06,8.76 -0.01,17.54 -0.01,26.31 0,6.99 -2.31,19.46 6.13,19.45 8.54,-0.01 6.13,-12.99 6.13,-20.06 0,-8.57 0.05,-17.16 -0.01,-25.73z"/>
  <path class="fil6" d="M320.93 334.85c-5.36,1.89 -7.58,2.73 -12.25,-0.36 0.04,8.47 0.01,16.96 0.01,25.43 0,6.79 -2.47,19.94 5.47,20.63 9.04,0.79 6.78,-12.09 6.78,-19.42 0,-8.75 0.05,-17.53 -0.01,-26.28z"/>
  <path class="fil4" d="M200.34 191.58c0.89,-4.08 3.82,-9.94 8.3,-10.35 6.91,-0.64 82.87,-0.04 95.78,-0.04 12.31,0 26.42,0.6 38.39,0.01 -2.94,-1.35 -113.86,-0.63 -132.91,-0.56 -5.47,0.02 -17.2,-0.56 -21.84,0.44 -5.5,1.18 -10.58,5.69 -11.98,10.4l24.27 0.1z"/>
 </g>
</svg>
