<?xml version="1.0" encoding="UTF-8"?>
<!DOCTYPE svg PUBLIC "-//W3C//DTD SVG 1.1//EN" "http://www.w3.org/Graphics/SVG/1.1/DTD/svg11.dtd">
<!-- Creator: CorelDRAW 2020 (64-Bit) -->
<svg xmlns="http://www.w3.org/2000/svg" xml:space="preserve" width="70.839mm" height="101.341mm" version="1.1" style="shape-rendering:geometricPrecision; text-rendering:geometricPrecision; image-rendering:optimizeQuality; fill-rule:evenodd; clip-rule:evenodd"
viewBox="0 0 514.31 735.77"
 xmlns:xlink="http://www.w3.org/1999/xlink"
 xmlns:xodm="http://www.corel.com/coreldraw/odm/2003">
 <defs>
  <style type="text/css">
   <![CDATA[
    .fil1 {fill:black}
    .fil4 {fill:#989898}
    .fil5 {fill:#E4E3E8}
    .fil0 {fill:#F6F4FA}
    .fil6 {fill:#FACBCB}
    .fil2 {fill:#FF3636}
    .fil3 {fill:#FFE3E3}
   ]]>
  </style>
 </defs>
 <g id="Capa_x0020_1">
  <metadata id="CorelCorpID_0Corel-Layer"/>
  <path class="fil0" d="M154.59 543.55c-4.69,-14.5 12.85,-12.14 21.91,-12.11l202.17 0c9.53,-0 25.87,-2.94 28.14,6.53 3.2,13.35 -12.44,11.06 -22.28,11.04l-202.17 -0c-9.16,0 -25.16,2.59 -27.77,-5.46zm0 -73.25c-4.69,-14.5 12.85,-12.14 21.91,-12.11l202.17 0c9.53,-0 25.87,-2.94 28.14,6.53 3.2,13.35 -12.44,11.06 -22.28,11.04l-202.17 -0c-9.16,0 -25.16,2.59 -27.77,-5.46zm-31.03 -7.61c1.9,16.63 -12.88,14.67 -15.7,8.56 -2.27,-4.93 -0.16,-10.18 3.56,-11.95 5.91,-2.82 8.25,0.16 12.14,3.39zm116.9 -267.2c71.97,-10.75 129.3,43.29 137.21,104.44 9.26,71.62 -42.96,128.56 -104.55,136.68 -71.68,9.45 -127.67,-42.64 -136.51,-103.63 -10.55,-72.8 42.66,-128.35 103.86,-137.49zm-176.48 -1.2c2.88,10.76 1.17,162.27 1.17,186.65 0,13.79 -1.2,33.41 -0.14,46.44 0.91,11.27 45.42,77.87 52.08,87.65 12.89,18.96 30.68,41.3 45.5,58.57 30.03,35 24.51,28.56 51.99,28.56l181.75 0.14c7.98,1.96 2.23,-0.47 5.76,2.73 17.19,21.26 -10.77,17.24 -26.36,17.24l-165.38 0c5.02,7.93 40.88,37.7 51.08,45.89 10.34,8.3 130.85,-3.04 157.11,3.95 10.93,1.58 19.57,-7.28 24.55,-12.84 6.88,-7.69 8.55,-16.54 8.58,-29.23l-0.02 -380.94c0,-20.64 3.78,-54.35 -5.8,-70.09 -12.09,-19.87 -29.14,-18.4 -58.4,-18.4 -9.52,2.8 -5.52,27.04 -52.74,26.93l-156.76 0c-13.8,0.04 -22.51,-0.74 -32.39,-7.11 -4.13,-2.66 -7.39,-5.73 -10.17,-8.93 -3.56,-4.1 -4.12,-7.87 -8.71,-10.89 -14.8,0 -31.65,-2.07 -44.2,4.72 -7.28,3.94 -20.94,16.55 -18.51,28.97z"/>
  <path class="fil1" d="M418.53 672.1l-312.41 1.56c-45.46,-0.05 -43.64,-33.69 -43.64,-61.26l-0.16 -405.83c-0.04,-5.02 -0.38,-8.47 1.65,-12.29 -2.44,-12.42 11.23,-25.04 18.51,-28.97 12.55,-6.79 29.4,-4.72 44.2,-4.72 4.59,3.02 5.15,6.79 8.71,10.89 2.78,3.2 6.04,6.27 10.17,8.93 9.88,6.37 18.59,7.15 32.39,7.11l156.76 -0c47.22,0.11 43.21,-24.13 52.74,-26.93 29.26,0 46.31,-1.47 58.4,18.4 9.58,15.74 5.8,49.44 5.8,70.09l0.02 380.94c-0.03,12.69 -1.71,21.53 -8.58,29.23 -4.98,5.57 -13.63,14.42 -24.55,12.84zm-170.55 -653.78c30.85,-4.9 54.08,13.81 63.93,32.32 23.97,45.07 -22.05,65.97 21.33,65.71 50.36,-0.3 40.95,38.07 26.55,48.01 -10.87,7.51 -29.71,4.73 -44.14,4.73 -42.38,0 -109.89,1.88 -146.59,-0.08 -32.93,-1.76 -33.94,-45.46 -5.68,-51.64 12.56,-2.74 39.17,4.32 37.11,-11.23 -0.7,-5.26 -4.13,-11.86 -4.98,-19.67 -3.59,-32.85 18.5,-62.76 52.48,-68.16zm-238.5 293.39c3.22,-0.68 4.92,-1.78 7.05,-3.05 4.75,-12.07 0.92,-129.03 1.76,-153.4 0.77,-22.4 15.9,-37.91 38.1,-38.86 22.82,-0.97 54.14,-1.06 76.87,0.12 -5.73,11.95 -5.77,10.81 -8.62,26.5 -64.77,0.12 -79.72,15.85 -79.72,81.16 0,53.66 -0.04,107.32 -0,160.97 0.19,45.95 0.01,91.93 0.01,137.88 0,28.83 -4.04,113.4 4.58,134.32 17.55,42.62 65.99,33.84 105.02,33.84 46.43,0 92.87,-0.13 139.29,0.01 33.17,0.03 66.33,-0 99.5,0 27.05,0 54.05,0.41 69.93,-30.84 9.68,-19.06 5.98,-68.67 5.98,-93.38l0 -301.79c0,-27.09 4.54,-72.47 -7.3,-93.47 -14.78,-26.21 -33.92,-28.7 -72.42,-28.7 -2.92,-16.14 -3.26,-14.36 -8.62,-26.51 17.17,-0.88 36.09,-0.17 53.46,-0.17 33.8,-0 61.67,-0.78 61.55,47.76l-0.01 496.63c0.01,40.47 -5.27,57.19 -52.75,57.14 -37.23,-0.03 -74.46,-0.06 -111.69,0.01l-253.09 -0c-29.7,0 -50.22,-1.11 -58.24,-26.74 -6.27,-20.04 0.16,-254.06 -1.78,-316.17 -0.36,-11.58 -1.97,-8.39 -8.32,-13.09 -2.82,1.13 -5.16,1.64 -7.84,2.93 -3.79,16.27 -1.41,275.99 -1.52,316.49 -0.07,28.23 24.99,54.04 52.73,54.22l370.71 -0.07c27.19,0 63.3,5.06 81.09,-25.86 9.15,-15.91 8.28,-21.03 8.28,-44.46l0 -424.84c0,-25.41 3.23,-86.72 -2.71,-104.23 -4.31,-12.69 -13.35,-22.58 -23.61,-29.13 -12.95,-8.26 -24.28,-8.75 -45.46,-8.75 -35.65,0 -71.3,0 -106.94,0 12.26,-52.62 -27.29,-98.19 -77.64,-98.19 -50.42,0 -89.93,45.48 -77.64,98.19 -22.89,0 -124.27,-2.93 -141.54,3.5 -12.83,4.78 -19.94,10.88 -27.39,20.95 -14.24,19.26 -9.8,55.34 -9.8,86.89 0,32.72 0,65.44 0,98.15 4.9,3.28 2.16,4.18 8.79,4.02z"/>
  <path class="fil2" d="M239.89 213.53c-51.22,9.22 -96.81,56.66 -85.37,120.41 9.12,50.82 57.37,95.14 119.76,84.73 51.18,-8.53 96.05,-57.72 85.44,-119.92 -8.65,-50.75 -57.58,-96.43 -119.83,-85.22z"/>
  <path class="fil3" d="M293.81 691.21c6.29,9.24 29.42,18.25 37.62,26.68 37.22,-0.07 74.46,-0.04 111.69,-0.01 47.48,0.05 52.75,-16.67 52.75,-57.14l0.01 -496.63c0.12,-48.54 -27.75,-47.76 -61.55,-47.76 -17.36,0 -36.29,-0.71 -53.46,0.17 5.36,12.15 5.7,10.37 8.62,26.51 38.5,0 57.65,2.49 72.42,28.7 11.84,21 7.3,66.38 7.3,93.47l0 301.79c0,24.72 3.7,74.33 -5.98,93.38 -15.88,31.25 -42.88,30.84 -69.93,30.84 -33.17,-0 -66.33,0.03 -99.5,-0z"/>
  <path class="fil4" d="M247.99 18.32c-33.97,5.4 -56.07,35.31 -52.48,68.16 0.85,7.81 4.29,14.41 4.98,19.67 2.06,15.55 -24.55,8.49 -37.11,11.23 -28.26,6.17 -27.24,49.88 5.68,51.64 36.7,1.96 104.21,0.08 146.59,0.08 14.43,0 33.27,2.78 44.14,-4.73 14.39,-9.95 23.81,-48.31 -26.55,-48.01 -43.38,0.26 2.64,-20.64 -21.33,-65.71 -9.85,-18.51 -33.08,-37.22 -63.93,-32.32z"/>
  <path class="fil5" d="M123.58 609.15c1.96,16.77 -12.87,14.69 -15.69,8.56 -2.4,-5.22 0.2,-10.9 4.65,-12.3 5.59,-1.76 7.57,0.9 11.04,3.75zm-12.14 -76.57c10.68,-5.75 18.09,10.49 7.83,15.36 -10.86,5.15 -17.12,-10.36 -7.83,-15.36zm307.09 139.52c-26.26,-6.99 -146.77,4.35 -157.11,-3.95 -10.2,-8.19 -46.05,-37.96 -51.08,-45.89 -13.76,0.01 -27.51,0.03 -41.27,0.06 -21.57,0.05 -17.54,-15.8 -7.28,-17.45 9.11,-1.47 228.44,-0.38 240.29,0.15 -3.53,-3.2 2.23,-0.77 -5.76,-2.73l-181.75 -0.14c-27.49,0 -21.96,6.44 -51.99,-28.56 -14.82,-17.27 -32.61,-39.61 -45.5,-58.57 -6.65,-9.79 -51.17,-76.39 -52.08,-87.65 -1.05,-13.03 0.14,-32.65 0.14,-46.44 0,-24.38 1.71,-175.88 -1.17,-186.65 -2.03,3.81 -1.69,7.26 -1.65,12.29l0.16 405.83c-0,27.57 -1.82,61.21 43.64,61.26l312.41 -1.56z"/>
  <path class="fil6" d="M9.48 311.71l0.35 9.16c7.21,5.67 8.48,1.7 8.56,16.11 0.05,8.86 -0.82,13.83 -8.91,15.58l0.52 9.33c6.35,4.7 7.97,1.51 8.32,13.09 1.93,62.11 -4.49,296.13 1.78,316.17 8.02,25.64 28.54,26.75 58.24,26.74l253.09 0c-8.2,-8.44 -31.34,-17.44 -37.62,-26.68 -46.42,-0.14 -92.87,-0.01 -139.29,-0.01 -39.03,0 -87.47,8.78 -105.02,-33.84 -8.62,-20.92 -4.58,-105.49 -4.58,-134.32 0,-45.95 0.18,-91.94 -0.01,-137.88 -6.05,-5.86 -27.42,-64.66 -28.38,-76.49 -2.12,1.27 -3.83,2.37 -7.05,3.05z"/>
  <path class="fil1" d="M239.89 213.53c62.25,-11.21 111.18,34.48 119.83,85.22 10.61,62.2 -34.27,111.39 -85.44,119.92 -62.39,10.4 -110.64,-33.91 -119.76,-84.73 -11.44,-63.76 34.15,-111.19 85.37,-120.41zm0.57 -18.04c-61.2,9.14 -114.41,64.69 -103.86,137.49 8.84,60.99 64.83,113.08 136.51,103.63 61.59,-8.12 113.81,-65.06 104.55,-136.68 -7.91,-61.15 -65.24,-115.18 -137.21,-104.44z"/>
  <path class="fil3" d="M16.53 308.66c0.96,11.84 22.33,70.63 28.38,76.49 -0.04,-53.66 0,-107.31 0,-160.97 0,-65.31 14.95,-81.04 79.72,-81.16 2.86,-15.69 2.89,-14.55 8.62,-26.5 -22.73,-1.18 -54.05,-1.09 -76.87,-0.12 -22.2,0.95 -37.33,16.46 -38.1,38.86 -0.84,24.37 2.99,141.33 -1.76,153.4z"/>
  <path class="fil1" d="M210.35 622.26l165.38 0c15.59,0 43.55,4.02 26.36,-17.24 -11.85,-0.53 -231.18,-1.61 -240.29,-0.15 -10.26,1.65 -14.29,17.51 7.28,17.45 13.76,-0.03 27.51,-0.05 41.27,-0.06z"/>
  <path class="fil1" d="M384.52 549.01c9.84,0.03 25.48,2.31 22.28,-11.04 -2.27,-9.47 -18.61,-6.54 -28.14,-6.53l-202.17 -0c-9.05,-0.03 -26.59,-2.39 -21.91,12.11 2.61,8.06 18.6,5.47 27.77,5.46l202.17 0z"/>
  <path class="fil1" d="M384.52 475.76c9.84,0.03 25.48,2.31 22.28,-11.04 -2.27,-9.47 -18.61,-6.54 -28.14,-6.53l-202.17 -0c-9.05,-0.03 -26.59,-2.39 -21.91,12.11 2.61,8.06 18.6,5.47 27.77,5.46l202.17 0z"/>
  <path class="fil1" d="M9.48 352.56c8.09,-1.76 8.96,-6.72 8.91,-15.58 -0.07,-14.41 -1.35,-10.44 -8.56,-16.11 -5.26,2.44 -8.12,1.94 -9.09,8.84 -0.61,4.33 -0.05,14.1 -0.05,19 3.99,2.67 3.24,3.54 8.79,3.86z"/>
  <path class="fil1" d="M111.44 532.58c-9.29,5 -3.03,20.51 7.83,15.36 10.27,-4.87 2.86,-21.11 -7.83,-15.36z"/>
  <path class="fil1" d="M123.55 462.68c-3.89,-3.24 -6.23,-6.22 -12.14,-3.39 -3.72,1.78 -5.84,7.02 -3.56,11.95 2.82,6.11 17.6,8.07 15.7,-8.56z"/>
  <path class="fil1" d="M123.58 609.15c-3.47,-2.85 -5.45,-5.51 -11.04,-3.75 -4.46,1.4 -7.05,7.09 -4.65,12.3 2.82,6.13 17.65,8.21 15.69,-8.56z"/>
 </g>
</svg>
