<?xml version="1.0" encoding="UTF-8"?>
<!DOCTYPE svg PUBLIC "-//W3C//DTD SVG 1.1//EN" "http://www.w3.org/Graphics/SVG/1.1/DTD/svg11.dtd">
<!-- Creator: CorelDRAW 2020 (64-Bit) -->
<svg xmlns="http://www.w3.org/2000/svg" xml:space="preserve" width="39.0526mm" height="39.0526mm" version="1.1" style="shape-rendering:geometricPrecision; text-rendering:geometricPrecision; image-rendering:optimizeQuality; fill-rule:evenodd; clip-rule:evenodd"
viewBox="0 0 333.39 333.39"
 xmlns:xlink="http://www.w3.org/1999/xlink"
 xmlns:xodm="http://www.corel.com/coreldraw/odm/2003">
 <defs>
  <style type="text/css">
   <![CDATA[
    .fil3 {fill:#0085AD}
    .fil1 {fill:#00ABDD}
    .fil0 {fill:#252525}
    .fil2 {fill:#CCCCCC}
    .fil4 {fill:#FDE35A}
   ]]>
  </style>
 </defs>
 <g id="Capa_x0020_1">
  <metadata id="CorelCorpID_0Corel-Layer"/>
  <g id="_1590852067936">
   <path class="fil0" d="M83.35 104.18l166.69 0 0 10.42 -166.69 0 0 -10.42zm68.97 -104.18l29.61 0c8.62,1.26 5.6,7.23 5.6,31.26l26.05 0c0,-8.04 -0.2,-10.2 3.23,-15.01 5.57,-7.81 19.23,-7.81 24.8,0 3.43,4.8 3.23,6.97 3.23,15.01 4.04,0 10.69,-0.92 13.53,0.79l4.05 3.12c1.45,1.03 2.63,1.76 4.29,2.87 3.06,2.04 5.73,3.84 8.75,5.57 3.03,1.74 6.03,3.41 9.3,5.03 10.16,5.04 20.51,8.6 31.57,11.41 3.66,0.93 14.92,1.44 17.06,5.83l0 3.29c-0.19,0.5 -0.47,1.04 -0.84,1.6 -2.14,3.29 -7.36,2.04 -11.36,1.33 -22.64,-3.99 -42.3,-12.87 -60.73,-25.22 0,8.62 2.18,15.53 -6.47,15.67l-66.46 -0.04 0 31.25 26.05 0c0,-8.04 -0.2,-10.2 3.23,-15.01 5.57,-7.81 19.23,-7.81 24.8,0 3.43,4.8 3.23,6.96 3.23,15.01 9.33,0 10.41,-1.64 15.72,2.51 12.57,9.81 29.44,18.06 44.59,23.13 11.72,3.93 25.74,4.32 28.25,8.94l0 3.36c-0.2,0.49 -0.47,1.02 -0.84,1.58 -2.14,3.29 -7.36,2.04 -11.36,1.33 -22.64,-3.99 -42.3,-12.87 -60.73,-25.22 0,8.62 2.18,15.53 -6.47,15.67l-66.46 -0.04 0 188.83c0,14.35 2.2,19.53 -6.98,19.53 -4.98,-4.85 -3.43,-8.72 -3.43,-20.19l0 -167.34 0 -20.84 -20.84 0 0 20.84 0.02 178.43c0.03,5.61 -0.49,6.18 -3.45,9.1 -9.13,0 -6.98,-5.06 -6.98,-20.19l0 -188.18c-14.76,0 -29.52,0 -44.28,0 -32.18,0 -28.65,2.71 -28.65,-15.63 -11,7.37 -24.13,14.58 -38,19.3 -5.01,1.7 -30.35,10.35 -34.09,4.59 -0.37,-0.57 -0.64,-1.1 -0.84,-1.6l0 -3.29c2.14,-4.39 13.4,-4.9 17.06,-5.83 11.4,-2.9 21.13,-6.21 31.56,-11.42l22.35 -13.46c7.53,-5.36 4.39,-3.9 17.58,-3.9 0,-8.04 -0.2,-10.2 3.23,-15.01 5.57,-7.81 19.23,-7.81 24.8,0 3.43,4.8 3.23,6.96 3.23,15.01l26.05 0 0 -31.25c-14.76,0 -29.52,0 -44.28,0 -32.18,0 -28.65,2.71 -28.65,-15.63 -11,7.37 -24.13,14.58 -38,19.3 -5.01,1.7 -30.35,10.35 -34.09,4.59 -0.36,-0.56 -0.64,-1.08 -0.84,-1.58l0 -3.36c2.5,-4.62 16.52,-5.01 28.25,-8.94 15.04,-5.04 25.49,-10.24 38.43,-18.87l8.43 -5.9c3.06,-1.69 9.22,-0.87 13.45,-0.87 0,-8.04 -0.2,-10.2 3.23,-15.01 5.57,-7.81 19.23,-7.81 24.8,0 3.43,4.8 3.23,6.97 3.23,15.01l26.05 0c0,-23.46 -3.27,-30.76 6.46,-31.26zm71.66 93.78c0,-4.9 -0.27,-10.36 5.22,-10.36 5.49,-0 5.22,5.46 5.23,10.36l-10.45 0zm-67.71 -10.43l0 -20.84 20.84 0 0 20.84 0 10.42 -20.84 0 0 -10.42zm-57.31 10.43c0,-4.9 -0.27,-10.36 5.22,-10.36 5.49,-0 5.22,5.46 5.17,10.36l-10.39 0zm-15.62 -52.1l166.69 0 0 10.42 -166.69 0 0 -10.42zm140.64 -10.41c0,-4.9 -0.27,-10.35 5.22,-10.36 5.49,0 5.22,5.46 5.22,10.36l-10.44 0zm-67.71 -20.85l20.84 0 0 20.84 -20.84 0 0 -20.84zm-57.31 20.85c0,-4.9 -0.27,-10.35 5.22,-10.36 5.49,0 5.22,5.46 5.21,10.36l-10.43 0z"/>
   <path class="fil0" d="M255.25 182.32l10.42 0 0 20.84 -10.42 0 0 -20.84zm0 -20.84l10.42 0 0 10.42 -10.42 0 0 -10.42zm-3.43 171.9c3.4,-3.34 3.48,-3.52 3.44,-9.76l-0.01 -94.42 0 -15.63 10.42 0 0 15.63 -0.01 93.77c-0.04,6.75 -0.34,6.71 3.44,10.42 9.34,0 6.98,-5.73 6.98,-24.09l0 -95.72c9.49,0 22.18,0.73 31.27,0.01 5.07,-0.4 7.02,-5.74 3.77,-9 -2.74,-2.74 -29.38,-1.43 -35.04,-1.43l0 -20.84c9.49,0 22.18,0.73 31.27,0.01 5.07,-0.4 7.02,-5.74 3.77,-9 -2.74,-2.74 -29.38,-1.43 -35.04,-1.43 0,-4.04 0.75,-14.83 -0.4,-17.83 -1.69,-4.39 -9.59,-3.01 -15.22,-3.01 -18.45,0 -15.63,-1.64 -15.63,20.84l-26.05 0c-5.48,0 -9.48,-0.6 -10.34,4.07 -0.99,5.38 2.93,6.41 7.71,6.38 9.56,-0.07 19.12,-0.03 28.68,-0.03l0 20.84 -26.05 0c-5.48,0 -9.48,-0.6 -10.34,4.07 -0.99,5.38 2.93,6.41 7.71,6.38 9.56,-0.07 19.12,-0.03 28.68,-0.03l-0.01 110.7c-0.06,6.8 0.04,9.11 6.99,9.11z"/>
   <path class="fil0" d="M67.72 182.32l10.42 0 0 20.84 -10.42 0 0 -20.84zm0 -20.84l10.42 0 0 10.42 -10.42 0 0 -10.42zm-3.43 171.9c3.4,-3.34 3.48,-3.52 3.44,-9.76l-0.01 -94.42 0 -15.63 10.42 0 0 15.63 -0.01 93.77c-0.04,6.75 -0.34,6.71 3.44,10.42 9.34,0 6.98,-5.73 6.98,-24.09l0 -95.72c9.56,0 19.12,-0.04 28.68,0.03 4.78,0.03 8.69,-1 7.71,-6.38 -1,-5.43 -7.76,-4.07 -15.55,-4.07l-20.84 0 0 -20.84c9.56,0 19.12,-0.04 28.68,0.03 4.78,0.03 8.69,-1 7.71,-6.38 -1,-5.43 -7.76,-4.07 -15.55,-4.07 -6.95,0 -13.89,0 -20.84,0 0,-22.48 2.82,-20.84 -15.63,-20.84 -18.45,0 -15.63,-1.64 -15.63,20.84 -5.66,0 -32.29,-1.31 -35.04,1.43 -3.26,3.26 -1.3,8.6 3.77,9 9.09,0.72 21.78,-0.01 31.27,-0.01l0 20.84c-5.66,0 -32.29,-1.31 -35.04,1.43 -3.26,3.26 -1.3,8.6 3.77,9 9.09,0.72 21.78,-0.01 31.27,-0.01l-0.01 110.7c-0.06,6.8 0.04,9.11 6.99,9.11z"/>
   <path class="fil1" d="M152.84 333.39l27.71 0c-4.98,-4.85 -3.43,-8.72 -3.43,-20.19l0 -167.34 -20.84 0 0.02 178.43c0.03,5.61 -0.49,6.18 -3.45,9.1z"/>
   <polygon class="fil2" points="83.35,52.09 250.04,52.09 250.04,41.67 83.35,41.67 "/>
   <polygon class="fil2" points="83.35,114.6 250.04,114.6 250.04,104.18 83.35,104.18 "/>
   <path class="fil1" d="M64.29 333.39l17.29 0c-3.78,-3.71 -3.47,-3.67 -3.44,-10.42l0.01 -93.77 -10.42 0 0.01 94.42c0.04,6.24 -0.05,6.42 -3.44,9.76z"/>
   <path class="fil1" d="M251.82 333.39l17.29 0c-3.78,-3.71 -3.47,-3.67 -3.44,-10.42l0.01 -93.77 -10.42 0 0.01 94.42c0.04,6.24 -0.05,6.42 -3.44,9.76z"/>
   <polygon class="fil3" points="156.28,31.26 177.11,31.26 177.11,10.42 156.28,10.42 "/>
   <polygon class="fil3" points="156.28,83.35 177.11,83.35 177.11,62.51 156.28,62.51 "/>
   <polygon class="fil3" points="156.28,145.86 177.11,145.86 177.11,125.02 156.28,125.02 "/>
   <polygon class="fil1" points="177.11,83.35 156.28,83.35 156.28,93.76 177.11,93.76 "/>
   <polygon class="fil3" points="255.25,203.16 265.67,203.16 265.67,182.32 255.25,182.32 "/>
   <polygon class="fil3" points="67.72,203.16 78.14,203.16 78.14,182.32 67.72,182.32 "/>
   <polygon class="fil3" points="67.72,229.2 78.14,229.2 78.14,213.58 67.72,213.58 "/>
   <polygon class="fil3" points="255.25,229.2 265.67,229.2 265.67,213.58 255.25,213.58 "/>
   <polygon class="fil3" points="67.72,171.9 78.14,171.9 78.14,161.48 67.72,161.48 "/>
   <polygon class="fil3" points="255.25,171.9 265.67,171.9 265.67,161.48 255.25,161.48 "/>
   <path class="fil4" d="M223.98 93.78l10.45 0c-0.01,-4.9 0.26,-10.36 -5.23,-10.36 -5.49,0 -5.22,5.46 -5.22,10.36z"/>
   <path class="fil4" d="M223.98 31.27l10.44 0c0,-4.9 0.27,-10.36 -5.22,-10.36 -5.49,0 -5.22,5.46 -5.22,10.36z"/>
   <path class="fil4" d="M98.96 31.27l10.43 0c0.01,-4.9 0.28,-10.36 -5.21,-10.36 -5.5,0 -5.22,5.46 -5.22,10.36z"/>
   <path class="fil4" d="M98.96 93.78l10.39 0c0.05,-4.9 0.32,-10.36 -5.17,-10.36 -5.5,0 -5.22,5.46 -5.22,10.36z"/>
  </g>
 </g>
</svg>
