<?xml version="1.0" encoding="UTF-8"?>
<!DOCTYPE svg PUBLIC "-//W3C//DTD SVG 1.1//EN" "http://www.w3.org/Graphics/SVG/1.1/DTD/svg11.dtd">
<!-- Creator: CorelDRAW 2020 (64-Bit) -->
<svg xmlns="http://www.w3.org/2000/svg" xml:space="preserve" width="70.839mm" height="101.341mm" version="1.1" style="shape-rendering:geometricPrecision; text-rendering:geometricPrecision; image-rendering:optimizeQuality; fill-rule:evenodd; clip-rule:evenodd"
viewBox="0 0 427.21 611.16"
 xmlns:xlink="http://www.w3.org/1999/xlink"
 xmlns:xodm="http://www.corel.com/coreldraw/odm/2003">
 <defs>
  <style type="text/css">
   <![CDATA[
    .fil1 {fill:black}
    .fil2 {fill:#18CE0F}
    .fil4 {fill:#989898}
    .fil6 {fill:#AEF0AA}
    .fil3 {fill:#DDFFDB}
    .fil5 {fill:#E4E3E8}
    .fil0 {fill:#F6F4FA}
   ]]>
  </style>
 </defs>
 <g id="Capa_x0020_1">
  <metadata id="CorelCorpID_0Corel-Layer"/>
  <path class="fil0" d="M128.41 451.49c-3.9,-12.04 10.68,-10.09 18.2,-10.06l167.93 0c7.92,-0 21.49,-2.44 23.37,5.43 2.66,11.09 -10.33,9.19 -18.5,9.17l-167.93 -0c-7.61,0 -20.9,2.16 -23.06,-4.54zm0 -60.84c-3.9,-12.04 10.68,-10.09 18.2,-10.06l167.93 0c7.92,-0 21.49,-2.44 23.37,5.43 2.66,11.09 -10.33,9.19 -18.5,9.17l-167.93 -0c-7.61,0 -20.9,2.16 -23.06,-4.54zm-25.78 -6.32c1.58,13.81 -10.7,12.19 -13.04,7.11 -1.89,-4.1 -0.13,-8.45 2.96,-9.93 4.91,-2.35 6.85,0.13 10.08,2.82zm97.11 -221.95c59.78,-8.93 107.4,35.96 113.97,86.75 7.69,59.49 -35.69,106.79 -86.85,113.53 -59.54,7.85 -106.05,-35.42 -113.39,-86.08 -8.76,-60.47 35.44,-106.61 86.27,-114.2zm-146.59 -1c2.39,8.94 0.97,134.79 0.97,155.04 0,11.46 -0.99,27.75 -0.12,38.57 0.76,9.36 37.73,64.68 43.26,72.81 10.71,15.75 25.49,34.31 37.8,48.65 24.95,29.07 20.36,23.72 43.19,23.72l150.97 0.11c6.63,1.63 1.85,-0.39 4.78,2.27 14.28,17.66 -8.94,14.32 -21.9,14.32l-137.37 0c4.17,6.59 33.96,31.32 42.43,38.12 8.59,6.89 108.69,-2.53 130.5,3.28 9.08,1.31 16.26,-6.04 20.39,-10.67 5.71,-6.39 7.1,-13.74 7.13,-24.28l-0.02 -316.43c0,-17.15 3.14,-45.14 -4.82,-58.22 -10.04,-16.5 -24.2,-15.29 -48.51,-15.29 -7.91,2.33 -4.59,22.46 -43.81,22.37l-130.21 0c-11.46,0.03 -18.7,-0.61 -26.91,-5.91 -3.43,-2.21 -6.14,-4.76 -8.44,-7.42 -2.96,-3.41 -3.42,-6.54 -7.24,-9.05 -12.29,0 -26.29,-1.72 -36.71,3.92 -6.05,3.27 -17.4,13.75 -15.37,24.07z"/>
  <path class="fil1" d="M347.65 558.27l-259.5 1.3c-37.76,-0.04 -36.25,-27.99 -36.25,-50.89l-0.13 -337.1c-0.03,-4.17 -0.32,-7.04 1.37,-10.2 -2.02,-10.32 9.33,-20.8 15.37,-24.07 10.42,-5.64 24.42,-3.92 36.71,-3.92 3.81,2.51 4.28,5.64 7.24,9.05 2.31,2.66 5.02,5.21 8.44,7.42 8.21,5.29 15.44,5.94 26.91,5.91l130.21 -0c39.22,0.09 35.9,-20.04 43.81,-22.37 24.31,0 38.47,-1.22 48.51,15.29 7.96,13.07 4.82,41.07 4.82,58.22l0.02 316.43c-0.03,10.54 -1.42,17.89 -7.13,24.28 -4.13,4.62 -11.32,11.98 -20.39,10.67zm-141.66 -543.06c25.63,-4.07 44.92,11.47 53.11,26.85 19.92,37.43 -18.31,54.8 17.72,54.58 41.83,-0.25 34.01,31.62 22.05,39.88 -9.03,6.24 -24.68,3.93 -36.67,3.93 -35.2,0 -91.28,1.56 -121.77,-0.07 -27.35,-1.46 -28.2,-37.76 -4.72,-42.89 10.43,-2.28 32.54,3.59 30.82,-9.33 -0.58,-4.37 -3.43,-9.85 -4.14,-16.34 -2.98,-27.29 15.37,-52.13 43.59,-56.62zm-198.11 243.7c2.67,-0.56 4.09,-1.48 5.85,-2.53 3.95,-10.02 0.76,-107.18 1.46,-127.42 0.64,-18.6 13.21,-31.49 31.65,-32.28 18.95,-0.81 44.97,-0.88 63.85,0.1 -4.76,9.93 -4.79,8.98 -7.16,22.01 -53.8,0.1 -66.22,13.17 -66.22,67.41 0,44.57 -0.04,89.14 -0,133.71 0.16,38.16 0.01,76.36 0.01,114.53 0,23.95 -3.36,94.2 3.8,111.57 14.58,35.41 54.82,28.11 87.24,28.11 38.56,0 77.14,-0.11 115.7,0.01 27.55,0.03 55.1,-0 82.65,0 22.47,0 44.9,0.34 58.09,-25.62 8.04,-15.83 4.97,-57.04 4.97,-77.57l0 -250.68c0,-22.5 3.77,-60.2 -6.07,-77.64 -12.27,-21.77 -28.17,-23.84 -60.16,-23.84 -2.43,-13.41 -2.71,-11.93 -7.16,-22.02 14.26,-0.73 29.98,-0.14 44.4,-0.14 28.07,-0 51.22,-0.65 51.12,39.67l-0.01 412.52c0.01,33.62 -4.37,47.5 -43.81,47.46 -30.92,-0.03 -61.85,-0.05 -92.77,0l-210.23 -0c-24.67,0 -41.72,-0.92 -48.38,-22.22 -5.21,-16.64 0.13,-211.03 -1.47,-262.62 -0.3,-9.62 -1.64,-6.97 -6.91,-10.87 -2.34,0.93 -4.28,1.36 -6.51,2.43 -3.15,13.51 -1.17,229.25 -1.26,262.89 -0.06,23.45 20.76,44.89 43.8,45.04l307.93 -0.06c22.59,0 52.58,4.2 67.35,-21.48 7.6,-13.21 6.87,-17.47 6.87,-36.93l0 -352.89c0,-21.11 2.68,-72.03 -2.25,-86.58 -3.58,-10.54 -11.09,-18.76 -19.61,-24.2 -10.76,-6.86 -20.17,-7.27 -37.76,-7.26 -29.61,0 -59.22,0 -88.83,0 10.18,-43.71 -22.67,-81.56 -64.49,-81.56 -41.88,0 -74.7,37.78 -64.49,81.56 -19.01,0 -103.22,-2.44 -117.57,2.9 -10.65,3.97 -16.57,9.04 -22.75,17.4 -11.83,16 -8.14,45.97 -8.14,72.17 0,27.18 0,54.35 0,81.53 4.07,2.72 1.8,3.47 7.3,3.34z"/>
  <path class="fil2" d="M199.26 177.37c-42.55,7.66 -80.41,47.06 -70.91,100.02 7.57,42.22 47.65,79.02 99.48,70.38 42.51,-7.09 79.78,-47.94 70.97,-99.61 -7.19,-42.15 -47.83,-80.1 -99.54,-70.79z"/>
  <path class="fil3" d="M244.05 574.15c5.22,7.68 24.44,15.16 31.25,22.16 30.92,-0.06 61.85,-0.03 92.77,-0 39.44,0.04 43.82,-13.84 43.81,-47.46l0.01 -412.52c0.1,-40.32 -23.05,-39.67 -51.12,-39.67 -14.42,0 -30.14,-0.59 -44.4,0.14 4.45,10.09 4.73,8.61 7.16,22.02 31.98,0 47.88,2.07 60.16,23.84 9.83,17.44 6.07,55.14 6.07,77.64l0 250.68c0,20.53 3.07,61.74 -4.97,77.57 -13.19,25.96 -35.62,25.62 -58.09,25.62 -27.55,-0 -55.1,0.02 -82.65,-0z"/>
  <path class="fil4" d="M205.99 15.21c-28.22,4.48 -46.57,29.33 -43.59,56.62 0.71,6.48 3.56,11.97 4.14,16.34 1.71,12.91 -20.39,7.05 -30.82,9.33 -23.48,5.13 -22.63,41.43 4.72,42.89 30.49,1.63 86.56,0.07 121.77,0.07 11.99,0 27.64,2.31 36.67,-3.93 11.96,-8.26 19.77,-40.13 -22.05,-39.88 -36.03,0.21 2.19,-17.15 -17.72,-54.58 -8.18,-15.38 -27.48,-30.92 -53.11,-26.85z"/>
  <path class="fil5" d="M102.65 505.99c1.63,13.93 -10.69,12.2 -13.03,7.11 -1.99,-4.34 0.16,-9.06 3.86,-10.22 4.64,-1.46 6.29,0.75 9.17,3.11zm-10.08 -63.6c8.87,-4.77 15.03,8.71 6.5,12.76 -9.02,4.28 -14.22,-8.61 -6.5,-12.76zm255.08 115.89c-21.81,-5.8 -121.92,3.62 -130.5,-3.28 -8.47,-6.8 -38.26,-31.53 -42.43,-38.12 -11.43,0.01 -22.85,0.03 -34.28,0.05 -17.92,0.04 -14.57,-13.12 -6.05,-14.5 7.57,-1.22 189.76,-0.32 199.6,0.12 -2.93,-2.66 1.85,-0.64 -4.78,-2.27l-150.97 -0.11c-22.83,0 -18.24,5.35 -43.19,-23.72 -12.31,-14.35 -27.09,-32.9 -37.8,-48.65 -5.53,-8.13 -42.5,-63.45 -43.26,-72.81 -0.88,-10.82 0.12,-27.12 0.12,-38.57 0,-20.25 1.42,-146.1 -0.97,-155.04 -1.69,3.17 -1.4,6.03 -1.37,10.2l0.13 337.1c0,22.9 -1.51,50.85 36.25,50.89l259.5 -1.3z"/>
  <path class="fil6" d="M7.88 258.92l0.29 7.61c5.99,4.71 7.05,1.41 7.11,13.38 0.04,7.36 -0.68,11.48 -7.4,12.94l0.43 7.75c5.28,3.9 6.62,1.25 6.91,10.87 1.6,51.59 -3.73,245.98 1.47,262.62 6.66,21.3 23.7,22.22 48.38,22.22l210.23 0c-6.81,-7.01 -26.03,-14.49 -31.25,-22.16 -38.56,-0.12 -77.14,-0.01 -115.7,-0.01 -32.42,0 -72.66,7.29 -87.24,-28.11 -7.16,-17.38 -3.8,-87.63 -3.8,-111.57 0,-38.17 0.15,-76.37 -0.01,-114.53 -5.03,-4.87 -22.78,-53.71 -23.57,-63.54 -1.76,1.05 -3.18,1.97 -5.85,2.53z"/>
  <path class="fil1" d="M199.26 177.37c51.71,-9.31 92.35,28.64 99.54,70.79 8.81,51.67 -28.47,92.53 -70.97,99.61 -51.82,8.64 -91.9,-28.17 -99.48,-70.38 -9.5,-52.96 28.36,-92.36 70.91,-100.02zm0.47 -14.99c-50.83,7.59 -95.03,53.73 -86.27,114.2 7.34,50.66 53.85,93.93 113.39,86.08 51.16,-6.74 94.54,-54.05 86.85,-113.53 -6.57,-50.79 -54.19,-95.68 -113.97,-86.75z"/>
  <path class="fil3" d="M13.73 256.38c0.79,9.83 18.55,58.67 23.57,63.54 -0.03,-44.57 0,-89.14 0,-133.71 0,-54.25 12.42,-67.31 66.22,-67.41 2.37,-13.03 2.4,-12.09 7.16,-22.01 -18.88,-0.98 -44.89,-0.91 -63.85,-0.1 -18.44,0.79 -31.01,13.67 -31.65,32.28 -0.7,20.24 2.48,117.39 -1.46,127.42z"/>
  <path class="fil1" d="M174.73 516.88l137.37 0c12.95,0 36.18,3.34 21.9,-14.32 -9.84,-0.44 -192.03,-1.34 -199.6,-0.12 -8.52,1.37 -11.87,14.54 6.05,14.5 11.43,-0.03 22.85,-0.04 34.28,-0.05z"/>
  <path class="fil1" d="M319.4 456.04c8.17,0.02 21.16,1.92 18.5,-9.17 -1.89,-7.87 -15.45,-5.43 -23.37,-5.43l-167.93 -0c-7.52,-0.03 -22.09,-1.98 -18.2,10.06 2.17,6.69 15.45,4.54 23.06,4.54l167.93 0z"/>
  <path class="fil1" d="M319.4 395.19c8.17,0.02 21.16,1.92 18.5,-9.17 -1.89,-7.87 -15.45,-5.43 -23.37,-5.43l-167.93 -0c-7.52,-0.03 -22.09,-1.98 -18.2,10.06 2.17,6.69 15.45,4.54 23.06,4.54l167.93 0z"/>
  <path class="fil1" d="M7.88 292.85c6.72,-1.46 7.44,-5.59 7.4,-12.94 -0.06,-11.97 -1.12,-8.67 -7.11,-13.38 -4.37,2.03 -6.74,1.61 -7.55,7.34 -0.51,3.59 -0.04,11.71 -0.04,15.78 3.32,2.22 2.7,2.94 7.3,3.2z"/>
  <path class="fil1" d="M92.57 442.38c-7.72,4.15 -2.52,17.04 6.5,12.76 8.53,-4.04 2.37,-17.53 -6.5,-12.76z"/>
  <path class="fil1" d="M102.63 384.33c-3.23,-2.69 -5.17,-5.16 -10.08,-2.82 -3.09,1.48 -4.85,5.83 -2.96,9.93 2.34,5.07 14.62,6.7 13.04,-7.11z"/>
  <path class="fil1" d="M102.65 505.99c-2.88,-2.37 -4.52,-4.57 -9.17,-3.11 -3.7,1.16 -5.86,5.89 -3.86,10.22 2.34,5.09 14.66,6.82 13.03,-7.11z"/>
 </g>
</svg>
