<?xml version="1.0" encoding="UTF-8"?>
<!DOCTYPE svg PUBLIC "-//W3C//DTD SVG 1.1//EN" "http://www.w3.org/Graphics/SVG/1.1/DTD/svg11.dtd">
<!-- Creator: CorelDRAW 2020 (64-Bit) -->
<svg xmlns="http://www.w3.org/2000/svg" xml:space="preserve" width="70.839mm" height="101.341mm" version="1.1" style="shape-rendering:geometricPrecision; text-rendering:geometricPrecision; image-rendering:optimizeQuality; fill-rule:evenodd; clip-rule:evenodd"
viewBox="0 0 364.32 521.19"
 xmlns:xlink="http://www.w3.org/1999/xlink"
 xmlns:xodm="http://www.corel.com/coreldraw/odm/2003">
 <defs>
  <style type="text/css">
   <![CDATA[
    .fil1 {fill:black}
    .fil4 {fill:#989898}
    .fil5 {fill:#E4E3E8}
    .fil0 {fill:#F6F4FA}
    .fil2 {fill:#FF9F00}
    .fil6 {fill:#FFE1B2}
    .fil3 {fill:#FFEDD1}
   ]]>
  </style>
 </defs>
 <g id="Capa_x0020_1">
  <metadata id="CorelCorpID_0Corel-Layer"/>
  <path class="fil0" d="M109.5 385.03c-3.32,-10.27 9.1,-8.6 15.52,-8.58l143.21 0c6.75,-0 18.32,-2.08 19.93,4.63 2.27,9.45 -8.81,7.84 -15.78,7.82l-143.21 -0c-6.49,0 -17.82,1.84 -19.67,-3.87zm0 -51.89c-3.32,-10.27 9.1,-8.6 15.52,-8.58l143.21 0c6.75,-0 18.32,-2.08 19.93,4.63 2.27,9.45 -8.81,7.84 -15.78,7.82l-143.21 -0c-6.49,0 -17.82,1.84 -19.67,-3.87zm-21.98 -5.39c1.34,11.78 -9.13,10.39 -11.12,6.06 -1.61,-3.49 -0.11,-7.21 2.52,-8.47 4.19,-2 5.84,0.11 8.6,2.4zm82.81 -189.27c50.98,-7.61 91.59,30.66 97.19,73.98 6.56,50.73 -30.43,91.07 -74.06,96.82 -50.78,6.69 -90.44,-30.21 -96.7,-73.41 -7.47,-51.57 30.22,-90.91 73.57,-97.39zm-125.01 -0.85c2.04,7.62 0.83,114.95 0.83,132.21 0,9.77 -0.85,23.66 -0.1,32.89 0.65,7.98 32.18,55.16 36.89,62.09 9.13,13.43 21.73,29.25 32.23,41.49 21.27,24.79 17.36,20.23 36.83,20.23l128.75 0.1c5.65,1.39 1.58,-0.34 4.08,1.93 12.18,15.06 -7.63,12.21 -18.67,12.21l-117.15 0c3.56,5.62 28.96,26.71 36.18,32.51 7.32,5.88 92.69,-2.15 111.29,2.8 7.74,1.12 13.87,-5.15 17.39,-9.1 4.87,-5.45 6.06,-11.72 6.08,-20.7l-0.01 -269.84c0,-14.62 2.68,-38.5 -4.11,-49.65 -8.57,-14.07 -20.64,-13.04 -41.37,-13.04 -6.75,1.99 -3.91,19.15 -37.36,19.08l-111.04 0c-9.78,0.03 -15.95,-0.52 -22.95,-5.04 -2.92,-1.88 -5.23,-4.06 -7.2,-6.33 -2.52,-2.9 -2.92,-5.58 -6.17,-7.71 -10.48,0 -22.42,-1.46 -31.31,3.34 -5.16,2.79 -14.84,11.72 -13.11,20.52z"/>
  <path class="fil1" d="M296.47 476.09l-221.3 1.11c-32.2,-0.03 -30.91,-23.87 -30.91,-43.4l-0.11 -287.47c-0.03,-3.56 -0.27,-6 1.17,-8.7 -1.73,-8.8 7.95,-17.73 13.11,-20.52 8.89,-4.81 20.83,-3.34 31.31,-3.34 3.25,2.14 3.65,4.81 6.17,7.71 1.97,2.27 4.28,4.44 7.2,6.33 7,4.51 13.17,5.06 22.95,5.04l111.04 -0c33.45,0.08 30.61,-17.09 37.36,-19.08 20.73,0 32.8,-1.04 41.37,13.04 6.79,11.15 4.11,35.02 4.11,49.65l0.01 269.84c-0.02,8.99 -1.21,15.25 -6.08,20.7 -3.53,3.94 -9.65,10.21 -17.39,9.1zm-120.81 -463.11c21.86,-3.47 38.31,9.78 45.29,22.9 16.98,31.92 -15.62,46.73 15.11,46.55 35.67,-0.21 29,26.96 18.81,34.01 -7.7,5.32 -21.05,3.35 -31.27,3.35 -30.02,0 -77.84,1.33 -103.84,-0.06 -23.32,-1.25 -24.05,-32.21 -4.03,-36.58 8.9,-1.94 27.75,3.06 26.29,-7.95 -0.49,-3.73 -2.93,-8.4 -3.53,-13.93 -2.54,-23.27 13.11,-44.46 37.17,-48.28zm-168.95 207.83c2.28,-0.48 3.49,-1.26 4.99,-2.16 3.36,-8.55 0.65,-91.4 1.25,-108.66 0.55,-15.86 11.26,-26.86 26.99,-27.53 16.16,-0.69 38.35,-0.75 54.45,0.08 -4.06,8.47 -4.09,7.66 -6.11,18.77 -45.88,0.08 -56.47,11.23 -56.47,57.49 0,38.01 -0.03,76.02 -0,114.03 0.14,32.55 0.01,65.12 0.01,97.67 0,20.42 -2.86,80.33 3.24,95.15 12.43,30.19 46.75,23.97 74.39,23.97 32.89,0 65.79,-0.09 98.67,0.01 23.49,0.02 46.99,-0 70.48,0 19.16,0 38.29,0.29 49.54,-21.85 6.86,-13.5 4.24,-48.64 4.24,-66.15l0 -213.77c0,-19.19 3.21,-51.33 -5.17,-66.21 -10.47,-18.57 -24.03,-20.33 -51.3,-20.33 -2.07,-11.43 -2.31,-10.17 -6.11,-18.78 12.16,-0.62 25.57,-0.12 37.87,-0.12 23.94,-0 43.68,-0.55 43.6,33.83l-0.01 351.79c0,28.67 -3.73,40.51 -37.36,40.48 -26.37,-0.02 -52.75,-0.04 -79.11,0l-179.28 -0c-21.04,0 -35.57,-0.78 -41.25,-18.94 -4.44,-14.19 0.11,-179.97 -1.26,-223.96 -0.25,-8.2 -1.4,-5.94 -5.9,-9.27 -2,0.8 -3.65,1.16 -5.55,2.08 -2.68,11.52 -1,195.5 -1.08,224.19 -0.05,19.99 17.7,38.28 37.35,38.41l262.59 -0.05c19.26,0 44.84,3.58 57.44,-18.31 6.48,-11.27 5.86,-14.9 5.86,-31.5l0 -300.94c0,-18 2.29,-61.43 -1.92,-73.83 -3.05,-8.99 -9.46,-16 -16.72,-20.63 -9.17,-5.85 -17.2,-6.2 -32.2,-6.2 -25.25,0 -50.5,0 -75.75,0 8.68,-37.27 -19.33,-69.56 -55,-69.56 -35.72,0 -63.7,32.22 -55,69.56 -16.21,0 -88.03,-2.08 -100.26,2.48 -9.09,3.38 -14.13,7.71 -19.4,14.84 -10.09,13.64 -6.94,39.2 -6.94,61.55 0,23.18 0,46.35 0,69.53 3.47,2.32 1.53,2.96 6.23,2.85z"/>
  <path class="fil2" d="M169.93 151.26c-36.28,6.53 -68.57,40.13 -60.47,85.3 6.46,36 40.64,67.39 84.83,60.02 36.25,-6.04 68.04,-40.89 60.53,-84.95 -6.13,-35.95 -40.79,-68.31 -84.89,-60.37z"/>
  <path class="fil3" d="M208.12 489.62c4.45,6.55 20.84,12.93 26.65,18.9 26.37,-0.05 52.74,-0.03 79.11,-0 33.63,0.03 37.37,-11.81 37.36,-40.48l0.01 -351.79c0.08,-34.39 -19.66,-33.83 -43.6,-33.83 -12.3,0 -25.7,-0.5 -37.87,0.12 3.8,8.61 4.04,7.34 6.11,18.78 27.27,0 40.83,1.76 51.3,20.33 8.39,14.88 5.17,47.02 5.17,66.21l0 213.77c0,17.51 2.62,52.65 -4.24,66.15 -11.25,22.14 -30.38,21.85 -49.54,21.85 -23.49,-0 -46.99,0.02 -70.48,-0z"/>
  <path class="fil4" d="M175.66 12.97c-24.07,3.82 -39.72,25.01 -37.17,48.28 0.6,5.53 3.04,10.21 3.53,13.93 1.46,11.01 -17.39,6.01 -26.29,7.95 -20.02,4.37 -19.3,35.33 4.03,36.58 26,1.39 73.82,0.06 103.84,0.06 10.22,0 23.57,1.97 31.27,-3.35 10.2,-7.05 16.86,-34.22 -18.81,-34.01 -30.73,0.18 1.87,-14.62 -15.11,-46.55 -6.98,-13.11 -23.43,-26.37 -45.29,-22.9z"/>
  <path class="fil5" d="M87.54 431.5c1.39,11.88 -9.12,10.4 -11.11,6.06 -1.7,-3.7 0.14,-7.72 3.29,-8.72 3.96,-1.25 5.36,0.64 7.82,2.65zm-8.6 -54.24c7.57,-4.07 12.82,7.43 5.54,10.88 -7.69,3.65 -12.12,-7.34 -5.54,-10.88zm217.53 98.83c-18.6,-4.95 -103.97,3.08 -111.29,-2.8 -7.22,-5.8 -32.62,-26.89 -36.18,-32.51 -9.74,0.01 -19.49,0.02 -29.23,0.05 -15.28,0.04 -12.43,-11.19 -5.16,-12.36 6.45,-1.04 161.82,-0.27 170.21,0.1 -2.5,-2.27 1.58,-0.55 -4.08,-1.93l-128.75 -0.1c-19.47,0 -15.56,4.56 -36.83,-20.23 -10.5,-12.23 -23.1,-28.06 -32.23,-41.49 -4.71,-6.93 -36.25,-54.11 -36.89,-62.09 -0.75,-9.23 0.1,-23.12 0.1,-32.89 0,-17.27 1.21,-124.59 -0.83,-132.21 -1.44,2.7 -1.19,5.14 -1.17,8.7l0.11 287.47c-0,19.53 -1.29,43.36 30.91,43.4l221.3 -1.11z"/>
  <path class="fil6" d="M6.72 220.8l0.25 6.49c5.11,4.01 6.01,1.2 6.06,11.41 0.03,6.28 -0.58,9.79 -6.31,11.04l0.37 6.61c4.5,3.33 5.64,1.07 5.9,9.27 1.37,44 -3.18,209.77 1.26,223.96 5.68,18.16 20.22,18.95 41.25,18.94l179.28 0c-5.81,-5.98 -22.2,-12.35 -26.65,-18.9 -32.88,-0.1 -65.78,-0.01 -98.67,-0.01 -27.65,0 -61.96,6.22 -74.39,-23.97 -6.1,-14.82 -3.24,-74.73 -3.24,-95.15 0,-32.55 0.13,-65.13 -0.01,-97.67 -4.29,-4.15 -19.43,-45.8 -20.1,-54.19 -1.5,0.9 -2.71,1.68 -4.99,2.16z"/>
  <path class="fil1" d="M169.93 151.26c44.1,-7.94 78.76,24.42 84.89,60.37 7.51,44.06 -24.27,78.91 -60.53,84.95 -44.19,7.37 -78.37,-24.02 -84.83,-60.02 -8.1,-45.16 24.19,-78.76 60.47,-85.3zm0.4 -12.78c-43.35,6.47 -81.04,45.82 -73.57,97.39 6.26,43.2 45.92,80.1 96.7,73.41 43.63,-5.75 80.62,-46.09 74.06,-96.82 -5.6,-43.31 -46.21,-81.59 -97.19,-73.98z"/>
  <path class="fil3" d="M11.71 218.64c0.68,8.39 15.82,50.03 20.1,54.19 -0.03,-38.01 0,-76.02 0,-114.03 0,-46.26 10.59,-57.4 56.47,-57.49 2.02,-11.12 2.05,-10.31 6.11,-18.77 -16.1,-0.84 -38.29,-0.77 -54.45,-0.08 -15.72,0.67 -26.44,11.66 -26.99,27.53 -0.6,17.26 2.12,100.11 -1.25,108.66z"/>
  <path class="fil1" d="M149 440.78l117.15 0c11.05,0 30.85,2.85 18.67,-12.21 -8.39,-0.38 -163.76,-1.14 -170.21,-0.1 -7.27,1.17 -10.12,12.4 5.16,12.36 9.74,-0.02 19.49,-0.04 29.23,-0.05z"/>
  <path class="fil1" d="M272.38 388.9c6.97,0.02 18.05,1.64 15.78,-7.82 -1.61,-6.71 -13.18,-4.63 -19.93,-4.63l-143.21 -0c-6.41,-0.02 -18.84,-1.69 -15.52,8.58 1.85,5.71 13.18,3.87 19.67,3.87l143.21 0z"/>
  <path class="fil1" d="M272.38 337.01c6.97,0.02 18.05,1.64 15.78,-7.82 -1.61,-6.71 -13.18,-4.63 -19.93,-4.63l-143.21 -0c-6.41,-0.02 -18.84,-1.69 -15.52,8.58 1.85,5.71 13.18,3.87 19.67,3.87l143.21 0z"/>
  <path class="fil1" d="M6.72 249.74c5.73,-1.25 6.34,-4.76 6.31,-11.04 -0.05,-10.21 -0.95,-7.4 -6.06,-11.41 -3.73,1.73 -5.75,1.38 -6.44,6.26 -0.43,3.06 -0.03,9.99 -0.03,13.46 2.83,1.89 2.3,2.51 6.23,2.73z"/>
  <path class="fil1" d="M78.94 377.26c-6.58,3.54 -2.15,14.53 5.54,10.88 7.27,-3.45 2.02,-14.95 -5.54,-10.88z"/>
  <path class="fil1" d="M87.52 327.75c-2.75,-2.29 -4.41,-4.4 -8.6,-2.4 -2.64,1.26 -4.13,4.98 -2.52,8.47 2,4.33 12.47,5.72 11.12,-6.06z"/>
  <path class="fil1" d="M87.54 431.5c-2.46,-2.02 -3.86,-3.9 -7.82,-2.65 -3.16,0.99 -5,5.02 -3.29,8.72 2,4.34 12.5,5.82 11.11,-6.06z"/>
 </g>
</svg>
