<?xml version="1.0" encoding="UTF-8"?>
<!DOCTYPE svg PUBLIC "-//W3C//DTD SVG 1.1//EN" "http://www.w3.org/Graphics/SVG/1.1/DTD/svg11.dtd">
<!-- Creator: CorelDRAW 2020 (64-Bit) -->
<svg xmlns="http://www.w3.org/2000/svg" xml:space="preserve" width="169.298mm" height="168.478mm" version="1.1" style="shape-rendering:geometricPrecision; text-rendering:geometricPrecision; image-rendering:optimizeQuality; fill-rule:evenodd; clip-rule:evenodd"
viewBox="0 0 893.49 889.16"
 xmlns:xlink="http://www.w3.org/1999/xlink"
 xmlns:xodm="http://www.corel.com/coreldraw/odm/2003">
 <defs>
  <style type="text/css">
   <![CDATA[
    .fil1 {fill:black}
    .fil2 {fill:#18CE0F}
    .fil4 {fill:#BF2226}
    .fil5 {fill:#D1393B}
    .fil3 {fill:#E34042}
    .fil6 {fill:#EEBE33}
    .fil0 {fill:#EEDC9A}
   ]]>
  </style>
 </defs>
 <g id="Capa_x0020_1">
  <metadata id="CorelCorpID_0Corel-Layer"/>
  <g id="_2513042892512">
   <path class="fil0" d="M492.87 578.38l58.65 0 0 29.79 -58.1 0 -0.55 -29.79zm-14.34 -59.58l58.1 0 -0.47 29.79 -57.63 0 0 -29.79zm-150.43 0l119.16 0 0 29.79 -119.16 0 0 -29.79zm178.73 -59.58l59.58 0 0 29.79 -59.58 0 0 -29.79zm-178.73 0l148.95 0 0 29.79 -148.95 0 0 -29.79zm119.16 -59.58l119.16 0 0 29.79 -119.16 0 0 -29.79zm-119.16 0l89.37 0 0 29.79 -89.37 0 0 -29.79zm208.52 -59.58l29.79 0 0 29.79 -29.79 0 0 -29.79zm-178.73 0l148.95 0 0 29.79 -148.95 0 0 -29.79zm-29.79 -89.37l59.58 0 0 29.79 -59.58 0 0 -29.79zm268.1 59.58c-105.67,0 -89.37,16.3 -89.37,-89.37 -54.61,0 -109.24,0.15 -163.84,-0.01 -30.38,-0.09 -44.7,5.69 -44.73,37.2l0.04 327.73c0,23.63 -5.01,58.47 8.84,73.07 13.71,14.44 50.27,8.85 73.08,8.85l163.84 0c27.85,0.01 50.37,-0.98 52.07,-29.73 3.01,-50.9 0.06,-111.88 0.06,-163.9 0,-54.61 0,-109.23 0,-163.84z"/>
   <path class="fil1" d="M646.82 78.37c31.6,13.99 86.17,58.32 108.09,84.37 4.98,5.92 9.73,10.84 14.73,16.93 119.03,145.05 126.09,346.67 19.34,503.99 -9.8,14.44 -24.9,23.99 -7.63,40.97 8.26,8.12 26.01,23.77 31.22,32.41l-127 0.07 0.08 -126.98c8.71,5.25 21.56,20.33 29.63,28.38 11.84,11.82 20.89,22.69 34.54,2.68 111.44,-163.43 86.93,-368.65 -56.77,-496.22 -11.08,-9.83 -19.24,-16.4 -32.1,-25.57 -11.37,-8.11 -22.51,-13.48 -34.14,-21.71 4.14,-9.36 14.56,-32.6 20.02,-39.33zm85.3 554.56c-10.6,-7.11 -32.23,-31.14 -42.7,-41.64 -5.19,-5.21 -14.65,-18.61 -27.01,-10.1 -9.08,6.25 -6.62,23.3 -6.61,36.28 0.01,28.55 0,57.1 0,85.64 0,17.25 -4.64,71.53 5.58,80.06 10.08,8.42 142.18,3.7 165.7,3.71 13.43,0.01 29.52,2.28 35.13,-7.79 10.96,-19.69 -38.83,-44.33 -54.06,-70.4l22.68 -35.36c7.51,-12.63 13.65,-24.75 20.74,-38.81 45.06,-89.31 52.53,-203.6 28.51,-300.96 -31.59,-128.06 -115.22,-218.99 -202.5,-272.21 -48.98,-29.87 -45.48,-21.64 -63.77,15.22 -6.17,12.44 -14.82,27.38 -19.89,39.79 -7.91,19.36 11.31,23.46 25,31.54 51.17,30.22 90.33,68.3 120.68,117.65 51.34,83.48 65.32,188.94 32.57,287.69 -8.28,24.99 -15.41,39.99 -27.71,61.67 -1.74,3.06 -3.22,5.68 -5.5,9.37l-6.83 8.65z"/>
   <path class="fil1" d="M247.71 810.29c-43.17,-20.13 -92.45,-64.52 -122.82,-101.33 -95.17,-115.35 -122.24,-278.52 -64.58,-420.69 12.61,-31.09 28.94,-59.47 45.2,-83.32 9.8,-14.37 24.88,-23.93 7.71,-40.97 -8.4,-8.34 -25.81,-23.52 -31.22,-32.37l126.97 -0.08 -0.09 126.98c-8.64,-5.29 -21.58,-20.35 -29.59,-28.4 -11.87,-11.94 -20.97,-22.53 -34.55,-2.64 -16.16,23.67 -28.59,44.06 -41.32,74.09 -62.93,148.51 -17.99,319.48 98.1,422.09 33.39,29.51 37.36,26.9 66.21,47.29 -3.78,9.11 -14.81,33 -20.01,39.35zm-161.33 -630.34c-3.25,6.78 -26.23,37.87 -43.5,74.17 -99.35,208.82 -19.76,454.76 174.12,573.15 48.83,29.82 45.36,21.82 63.73,-15.18 6.14,-12.37 14.87,-27.46 19.89,-39.79 7.92,-19.45 -11.33,-23.47 -24.95,-31.59 -51.47,-30.67 -90.16,-67.72 -120.73,-117.61 -64.83,-105.81 -67.41,-239.64 -4.89,-349.41 1.74,-3.05 3.22,-5.68 5.51,-9.35 1.78,-2.85 0.99,-1.98 2.99,-4.52l3.86 -4.1c29.75,19.47 50.25,65.15 69.68,51.71 9.07,-6.27 6.65,-23.23 6.64,-36.25 -0.01,-28.55 0,-57.1 0,-85.64 0,-17.27 4.65,-71.49 -5.57,-80.06 -10,-8.39 -142.24,-3.69 -165.71,-3.71 -13.41,-0.01 -29.57,-2.3 -35.16,7.76 -10.91,19.67 38.61,43.85 54.09,70.42z"/>
   <path class="fil1" d="M596.2 310.28c0,54.61 0,109.23 0,163.84 0,52.02 2.95,113 -0.06,163.9 -1.7,28.75 -24.22,29.74 -52.07,29.73l-163.84 -0c-22.81,0 -59.37,5.59 -73.08,-8.85 -13.86,-14.59 -8.84,-49.43 -8.84,-73.07l-0.04 -327.73c0.03,-31.5 14.35,-37.29 44.73,-37.2 54.6,0.16 109.23,0.01 163.84,0.01 0,105.67 -16.31,89.37 89.37,89.37zm-58.89 -67.98l36.94 38.17 -37.64 0.02 0.7 -38.19zm-217.51 -50.53c-28.18,4.16 -49.58,27.09 -51.16,56.98 -1.8,34.21 -0.12,73.33 -0.12,108.08 0,71.99 0,143.98 0,215.97 0,28.87 -4.82,77.56 9.91,98.09 18.69,26.04 41.18,26.65 81.31,26.65 33.88,0 196.33,2.02 215.45,-0.75 27.6,-4.01 49.11,-26.99 50.66,-56.89 1.78,-34.28 0.12,-73.26 0.12,-108.05 0,-71.99 -0.1,-143.98 0,-215.97 0.05,-34.82 -0.19,-26.69 -40.83,-67.15 -72.92,-72.61 -36.79,-57.58 -158.38,-57.58 -28.23,0 -82.06,-3.04 -106.97,0.64z"/>
   <path class="fil2" d="M247.71 810.29c5.2,-6.35 16.23,-30.25 20.01,-39.35 -28.86,-20.39 -32.83,-17.78 -66.21,-47.29 -116.09,-102.61 -161.02,-273.58 -98.1,-422.09 12.72,-30.03 25.16,-50.42 41.32,-74.09 13.58,-19.9 22.68,-9.3 34.55,2.64 8.01,8.06 20.95,23.11 29.59,28.4l0.09 -126.98 -126.97 0.08c5.41,8.85 22.82,24.03 31.22,32.37 17.17,17.04 2.09,26.6 -7.71,40.97 -16.26,23.85 -32.59,52.22 -45.2,83.32 -57.66,142.18 -30.59,305.34 64.58,420.69 30.37,36.81 79.65,81.19 122.82,101.33z"/>
   <path class="fil3" d="M626.8 117.71c11.62,8.22 22.77,13.6 34.14,21.71 12.86,9.17 21.02,15.74 32.1,25.57 143.71,127.56 168.21,332.79 56.77,496.22 -13.65,20.02 -22.69,9.14 -34.54,-2.68 -8.06,-8.05 -20.92,-23.13 -29.63,-28.38l-0.08 126.98 127 -0.07c-5.21,-8.65 -22.96,-24.29 -31.22,-32.41 -17.27,-16.98 -2.16,-26.54 7.63,-40.97 106.75,-157.32 99.69,-358.94 -19.34,-503.99 -5,-6.09 -9.75,-11.02 -14.73,-16.93 -21.92,-26.05 -76.49,-70.38 -108.09,-84.37 -5.45,6.74 -15.88,29.98 -20.02,39.33z"/>
   <path class="fil1" d="M359.36 806.56l38.9 8.29 -3.81 42.31c-13.39,0.85 -32.48,-5.21 -46.72,-7.52l11.62 -43.09zm-15.95 -31.06c-8.42,3.68 -7.47,6.21 -10.69,17.86 -2.07,7.48 -4.08,14.46 -6.15,21.75 -16.35,57.44 -21.66,55.62 26.45,65.94 73.22,15.7 68.27,9.29 71.41,-25.3 1.39,-15.25 5.15,-39.76 4.82,-54.12 -0.45,-19.8 -20.92,-16.58 -38.61,-19.41 -12.39,-1.98 -37.79,-10.85 -47.22,-6.72z"/>
   <path class="fil1" d="M500.07 31.51c12.2,-0.79 33.52,4.92 46.68,7.52l-11.63 43.04 -38.84 -8.26 3.8 -42.3zm-18.68 -30.48c-7.16,3.18 -8.7,3.47 -10.17,18.76 -9.54,98.68 -13.29,77.31 43.71,88.67 47.23,9.41 38.25,16.89 55.88,-45.08 3.44,-12.08 13.98,-36.97 4.95,-45.47 -7.36,-6.92 -82.94,-21.96 -94.37,-16.88z"/>
   <path class="fil1" d="M341.66 41.07l45.48 -9.86c2.92,11.56 5.8,33.44 4.34,44.47l-37.6 7.82 -12.22 -42.43zm54.09 -40.35c-110.81,13.79 -90.44,22.01 -75.35,73.39 16.48,56.1 9.61,43.44 65.29,33.25 45.37,-8.31 40.74,3.57 32.46,-73 -2.02,-18.68 -0.4,-36.38 -22.4,-33.64z"/>
   <path class="fil1" d="M503 812.97l37.7 -7.74 12.19 42.37c-11.21,3.69 -34.9,9.63 -46.06,8.22 -2.44,-11.11 -5.27,-32.16 -3.83,-42.85zm42.09 -40.22c-16.73,3.77 -30.1,8.02 -47.71,10.47 -24.77,3.44 -28.58,3.41 -25.37,30.99 2.08,17.82 3.82,34.82 5.66,52.59 2.61,25.2 12.35,22.93 35.38,19.47 16.39,-2.46 32.7,-5.71 47.95,-9.88 34.51,-9.42 28.74,-11.87 9.67,-73.34 -4.95,-15.95 -5.83,-34.77 -25.59,-30.31z"/>
   <polygon class="fil1" points="328.1,489.01 477.05,489.01 477.05,459.22 328.1,459.22 "/>
   <polygon class="fil1" points="357.89,369.85 506.84,369.85 506.84,340.06 357.89,340.06 "/>
   <polygon class="fil1" points="447.26,429.43 566.41,429.43 566.41,399.64 447.26,399.64 "/>
   <polygon class="fil1" points="328.1,548.59 447.26,548.59 447.26,518.8 328.1,518.8 "/>
   <polygon class="fil1" points="328.1,429.43 417.47,429.43 417.47,399.64 328.1,399.64 "/>
   <path class="fil2" d="M503 812.97c-1.43,10.69 1.4,31.74 3.83,42.85 11.16,1.41 34.85,-4.53 46.06,-8.22l-12.19 -42.37 -37.7 7.74z"/>
   <path class="fil4" d="M353.87 83.5l37.6 -7.82c1.46,-11.03 -1.42,-32.91 -4.34,-44.47l-45.48 9.86 12.22 42.43z"/>
   <path class="fil2" d="M347.74 849.64c14.24,2.31 33.33,8.36 46.72,7.52l3.81 -42.31 -38.9 -8.29 -11.62 43.09z"/>
   <path class="fil5" d="M496.28 73.8l38.84 8.26 11.63 -43.04c-13.16,-2.6 -34.47,-8.31 -46.68,-7.52l-3.8 42.3z"/>
   <polygon class="fil1" points="328.1,280.49 387.68,280.49 387.68,250.7 328.1,250.7 "/>
   <polygon class="fil1" points="506.84,489.01 566.41,489.01 566.41,459.22 506.84,459.22 "/>
   <polygon class="fil1" points="493.42,608.17 551.52,608.17 551.52,578.38 492.87,578.38 "/>
   <polygon class="fil1" points="478.53,548.59 536.16,548.59 536.62,518.8 478.53,518.8 "/>
   <polygon class="fil1" points="536.62,369.85 566.41,369.85 566.41,340.06 536.62,340.06 "/>
   <polygon class="fil6" points="536.61,280.49 574.25,280.47 537.31,242.3 "/>
  </g>
 </g>
</svg>
