<svg id="Capa_1" data-name="Capa 1" xmlns="http://www.w3.org/2000/svg" viewBox="0 0 300 300"><defs><style>.cls-1{fill:#dedddf;}.cls-2{fill:#78caee;}.cls-3{fill:#221e20;}</style></defs><title>Iconos_finales</title><path class="cls-1" d="M111,115.39h-8.219A16.438,16.438,0,0,1,86.345,98.952V74.3H98.673V98.952a4.11,4.11,0,0,0,4.109,4.11H111a4.11,4.11,0,0,0,4.109-4.11V57.859H78.126A16.438,16.438,0,0,0,61.689,74.3V255.108a16.438,16.438,0,0,0,16.437,16.437H217.844a16.438,16.438,0,0,0,16.437-16.437V98.952H197.3a8.218,8.218,0,0,1-8.218-8.218V57.859H127.438V98.952A16.438,16.438,0,0,1,111,115.39Zm106.843,131.5a8.219,8.219,0,0,1-8.219,8.219A8.219,8.219,0,0,0,217.844,246.889Z"/><path class="cls-2" d="M111,33.2h-8.219A16.438,16.438,0,0,0,86.345,49.64v8.219H98.673V49.64a4.109,4.109,0,0,1,4.109-4.109H111a4.109,4.109,0,0,1,4.109,4.109V98.952a4.11,4.11,0,0,1-4.109,4.11h-8.219a4.11,4.11,0,0,1-4.109-4.11V74.3H86.345V98.952a16.438,16.438,0,0,0,16.437,16.438H111a16.438,16.438,0,0,0,16.437-16.438V49.64A16.438,16.438,0,0,0,111,33.2Z"/><path class="cls-3" d="M238.337,98.706a3.955,3.955,0,0,0-.247-1.172,3.26,3.26,0,0,0-.155-.41,4.063,4.063,0,0,0-.889-1.234L191.843,54.8a4.084,4.084,0,0,0-1.169-.722,3.9,3.9,0,0,0-.38-.121,4.1,4.1,0,0,0-.981-.18,2.319,2.319,0,0,0-.234-.024H131.548V49.64A20.572,20.572,0,0,0,111,29.093h-8.219A20.572,20.572,0,0,0,82.235,49.64v4.11H78.126A20.57,20.57,0,0,0,57.579,74.3V255.108a20.571,20.571,0,0,0,20.547,20.546H217.844a20.571,20.571,0,0,0,20.547-20.546V98.952C238.391,98.866,238.345,98.792,238.337,98.706ZM193.188,67.151l30.463,27.692H197.3a4.109,4.109,0,0,1-4.109-4.109ZM90.454,49.64a12.329,12.329,0,0,1,12.328-12.328H111A12.329,12.329,0,0,1,123.329,49.64V98.952A12.329,12.329,0,0,1,111,111.28h-8.219A12.329,12.329,0,0,1,90.454,98.952V78.406h4.109V98.952a8.219,8.219,0,0,0,8.219,8.219H111a8.219,8.219,0,0,0,8.219-8.219V49.64A8.218,8.218,0,0,0,111,41.422h-8.219a8.218,8.218,0,0,0-8.219,8.218v4.11H90.454ZM111,53.75h-8.219V49.64H111ZM217.844,267.436H78.126A12.329,12.329,0,0,1,65.8,255.108V74.3A12.329,12.329,0,0,1,78.126,61.968H111V98.952h-8.219V74.3a4.109,4.109,0,0,0-4.109-4.109H86.345a4.11,4.11,0,0,0-4.11,4.109V98.952A20.571,20.571,0,0,0,102.782,119.5H111a20.571,20.571,0,0,0,20.547-20.547V61.968h53.421V90.734A12.329,12.329,0,0,0,197.3,103.062h32.875V255.108A12.329,12.329,0,0,1,217.844,267.436Z"/><path class="cls-3" d="M119.22,144.155h90.405a4.109,4.109,0,1,0,0-8.218h-90.4a4.109,4.109,0,1,0,0,8.218Z"/><path class="cls-3" d="M86.345,168.811h123.28a4.109,4.109,0,1,0,0-8.218H86.345a4.109,4.109,0,1,0,0,8.218Z"/><path class="cls-3" d="M86.345,193.467h123.28a4.109,4.109,0,1,0,0-8.218H86.345a4.109,4.109,0,1,0,0,8.218Z"/><path class="cls-3" d="M86.345,218.123h123.28a4.109,4.109,0,1,0,0-8.218H86.345a4.109,4.109,0,1,0,0,8.218Z"/><path class="cls-3" d="M176.75,234.561h-90.4a4.11,4.11,0,1,0,0,8.219H176.75a4.11,4.11,0,1,0,0-8.219Z"/><path class="cls-3" d="M217.844,234.561a4.109,4.109,0,0,0-4.109,4.109v8.219a4.11,4.11,0,0,1-4.11,4.109h-8.218a4.11,4.11,0,1,0,0,8.219h8.218a12.329,12.329,0,0,0,12.328-12.328V238.67A4.109,4.109,0,0,0,217.844,234.561Z"/></svg>