<?xml version="1.0" encoding="UTF-8"?>
<!DOCTYPE svg PUBLIC "-//W3C//DTD SVG 1.1//EN" "http://www.w3.org/Graphics/SVG/1.1/DTD/svg11.dtd">
<!-- Creator: CorelDRAW 2020 (64-Bit) -->
<svg xmlns="http://www.w3.org/2000/svg" xml:space="preserve" width="50.1614mm" height="50.172mm" version="1.1" style="shape-rendering:geometricPrecision; text-rendering:geometricPrecision; image-rendering:optimizeQuality; fill-rule:evenodd; clip-rule:evenodd"
viewBox="0 0 25.59 25.59"
 xmlns:xlink="http://www.w3.org/1999/xlink"
 xmlns:xodm="http://www.corel.com/coreldraw/odm/2003">
 <defs>
  <style type="text/css">
   <![CDATA[
    .fil1 {fill:black}
    .fil2 {fill:#ABD641}
    .fil0 {fill:#B6E445}
    .fil4 {fill:#EAEAEB}
    .fil3 {fill:white}
   ]]>
  </style>
 </defs>
 <g id="Capa_x0020_1">
  <metadata id="CorelCorpID_0Corel-Layer"/>
  <path class="fil0" d="M18.12 23.47c0.1,-0.16 0.48,-0.35 0.65,-0.47 0.76,-0.54 1.07,-0.8 1.71,-1.43 3.15,-3.05 4.56,-8.17 3.07,-12.57 -0.39,-1.14 -0.78,-1.92 -1.34,-2.84 -1.11,-1.85 -2.42,-2.86 -4.1,-4 -0.12,-0.08 -0.06,-0.02 -0.16,-0.14 -0.35,-0.31 -2.16,-0.83 -2.77,-0.96 -7.43,-1.52 -14.42,4.23 -14.35,11.83 0.02,2.26 0.71,4.34 1.64,5.94 0.5,0.86 1.07,1.56 1.64,2.18 1.88,2.06 4.85,3.48 7.76,3.7 1.17,0.09 2.38,0.01 3.49,-0.24 0.61,-0.14 2.46,-0.7 2.77,-1.01z"/>
  <path class="fil1" d="M17.95 2.02c0.77,0.26 2.23,1.3 2.69,1.74 0.98,0.95 1.12,1 2.04,2.29 3.41,4.81 2.53,11.77 -1.94,15.67 -0.5,0.44 -1.85,1.52 -2.62,1.75 -0.31,0.31 -2.16,0.87 -2.77,1.01 -1.11,0.25 -2.32,0.33 -3.49,0.24 -2.91,-0.22 -5.88,-1.64 -7.76,-3.7 -0.57,-0.63 -1.14,-1.33 -1.64,-2.18 -0.93,-1.6 -1.62,-3.68 -1.64,-5.94 -0.06,-7.6 6.92,-13.35 14.35,-11.83 0.61,0.12 2.43,0.65 2.77,0.96zm-17.95 10.31c0,2.39 0.22,3.71 1.19,5.88 0.73,1.65 1.7,2.75 2.93,3.99 0.76,0.77 2.26,1.74 3.23,2.19 4.14,1.92 9.18,1.56 12.82,-1.13 0.34,-0.25 0.98,-0.73 1.28,-1.04 0.8,-0.81 1.08,-1.04 1.79,-2.03 0.38,-0.53 0.87,-1.35 1.15,-1.95 0.94,-2.03 1.2,-3.49 1.2,-5.92 0,-0.87 -0.18,-1.96 -0.37,-2.67 -0.23,-0.85 -0.48,-1.53 -0.82,-2.28 -0.24,-0.54 -0.8,-1.48 -1.14,-1.95 -0.22,-0.29 -0.43,-0.61 -0.68,-0.87l-1.11 -1.16c-0.16,-0.16 -0.26,-0.22 -0.41,-0.36 -1.82,-1.69 -5.14,-3.03 -7.8,-3.03 -2.86,0 -4.43,0.39 -6.89,1.72 -1.3,0.7 -2.34,1.74 -3.33,2.81 -0.64,0.69 -1.43,1.96 -1.83,2.82 -0.59,1.28 -1.2,3.15 -1.2,4.99z"/>
  <path class="fil2" d="M18.12 23.47c0.77,-0.23 2.12,-1.31 2.62,-1.75 4.46,-3.9 5.35,-10.86 1.94,-15.67 -0.92,-1.29 -1.06,-1.35 -2.04,-2.29 -0.45,-0.44 -1.92,-1.48 -2.69,-1.74 0.1,0.12 0.04,0.05 0.16,0.14 1.69,1.13 2.99,2.14 4.1,4 0.55,0.92 0.95,1.7 1.34,2.84 1.5,4.4 0.08,9.52 -3.07,12.57 -0.65,0.63 -0.95,0.89 -1.71,1.43 -0.17,0.12 -0.55,0.31 -0.65,0.47z"/>
  <path class="fil1" d="M11.83 12.32c0.74,0.17 1.38,0.81 1.55,1.55 -0.22,-0.05 -0.38,-0.14 -0.55,-0.23 -0.27,-0.14 -0.44,-0.32 -0.62,-0.54 -0.11,-0.14 -0.21,-0.33 -0.28,-0.49 -0.04,-0.09 -0.06,-0.21 -0.1,-0.29zm4.12 -7.5l0.38 0c1.79,0.07 3.48,1.16 4.15,2.76 0.17,0.41 0.38,1.03 0.4,1.6l0 0.54c-0.01,0.51 -0.09,1.22 -0.42,1.08 -0.39,-0.15 -0.02,-0.47 -0.07,-1.49 -0.05,-1.04 -0.44,-1.88 -1.07,-2.6 -0.13,-0.15 -0.77,-0.77 -1.02,-0.8 -0.23,-0.3 -1.43,-0.55 -1.72,-0.58 -0.99,-0.09 -1.93,0.17 -2.72,0.68 -0.26,0.17 -0.43,0.32 -0.63,0.53l-2.29 2.29c-0.87,0.81 -1.32,2.13 -1.21,3.33 0.04,0.45 0.3,1.53 0.58,1.73 0.02,0.14 0.29,0.5 0.39,0.61 0.42,0.49 1.17,1.08 1.83,1.25 0.36,0.22 0.48,0.05 0.67,-0.33 0.17,-0.33 0.26,-0.62 0.26,-1.04l-0.53 -0.14c-0.62,-0.32 -0.88,-0.49 -1.23,-1.02 -0.72,-1.09 -0.51,-2.43 0.4,-3.36 0.49,-0.49 1.87,-1.92 2.3,-2.29 1.28,-1.13 3.06,-0.84 3.94,0.4 0.2,0.28 0.23,0.46 0.39,0.75 0.1,0.66 0.19,1.04 -0.06,1.69 -0.29,0.77 -1.15,1.49 -1.77,2.11 -0.32,0.32 -0.68,0.64 -0.97,0.98l0.07 0.7c0.02,0.78 -0.1,0.92 -0.11,1.3 0.59,-0.31 0.77,-0.51 1.2,-0.95 0.53,-0.53 1.69,-1.74 2.17,-2.16 0.12,-0.11 0.36,-0.43 0.48,-0.62 0.25,-0.4 0.22,-0.59 0.57,-0.53 0.28,0.18 0.03,0.5 -0.09,0.69 -0.14,0.23 -0.27,0.4 -0.43,0.6l-2.06 2.08c-0.59,0.59 -0.93,0.99 -1.7,1.37 -0.47,0.24 -0.28,0.05 -0.52,0.52 -0.23,0.47 -0.52,0.85 -0.87,1.2 -0.69,0.69 -1.36,1.36 -2.05,2.05 -0.4,0.4 -0.61,0.63 -1.13,0.94 -0.67,0.4 -1.36,0.61 -2.04,0.67l-0.76 0c-2.33,-0.2 -4.32,-2.17 -4.31,-4.59l0 -0.01c0,-1.23 0.32,-2.17 1.04,-3.06 0.32,-0.39 1.6,-1.64 2.05,-2.08 0.35,-0.35 0.65,-0.69 1.05,-0.99 0.19,-0.14 0.41,-0.29 0.63,-0.4 0.14,-0.07 0.21,-0.1 0.36,-0.16 0.15,-0.07 0.13,-0.17 0.2,-0.31 0.12,-0.24 0.23,-0.43 0.38,-0.65 0.35,-0.52 1.99,-2.09 2.52,-2.62 0.47,-0.47 0.55,-0.6 1.11,-0.95 0.72,-0.46 1.5,-0.69 2.27,-0.72zm-7.21 8.37l-1.19 1.22c-0.26,0.26 -0.67,0.64 -0.85,0.99 -0.11,0.22 0,0.28 0.11,0.4 0.27,0 0.28,-0.1 0.38,-0.26 0.1,-0.17 0.15,-0.22 0.29,-0.36l1.29 -1.29c0.16,-0.16 0.49,-0.53 0.65,-0.64 0.04,0.08 0.06,0.18 0.1,0.26 0.04,0.09 0.07,0.17 0.12,0.27 0.19,0.37 0.3,0.59 0.57,0.92l0.36 0.42c0.38,0.38 0.84,0.68 1.31,0.92 0.23,0.12 0.41,0.16 0.55,0.23 -0.09,0.14 -1.14,1.16 -1.35,1.36 -0.45,0.45 -0.83,0.97 -1.58,1.14 -1.19,0.26 -2.23,-0.45 -2.53,-1.43 -0.24,-0.78 0.09,-0.92 -0.29,-1.1 -0.23,0.02 -0.29,0.08 -0.3,0.32 -0.03,0.56 0.13,1.09 0.41,1.54 0.51,0.83 1.15,0.93 1.44,1.11 1.99,0.36 2.45,-0.47 3.79,-1.8 0.24,-0.24 0.47,-0.47 0.71,-0.71 0.92,-0.92 1.41,-1.45 1.09,-3.08 -0.09,-0.14 -0.24,-0.74 -0.74,-1.16 -0.32,-0.27 -0.76,-0.57 -1.33,-0.65 0,-0.36 0.17,-1.1 0.4,-1.23 0.16,-0.34 0.23,-0.26 0.6,-0.12 0.2,0.07 0.53,0.17 0.64,0.33 0.1,0.01 0.14,0.06 0.23,0.11l0.64 0.52c0.22,0.22 0.48,0.53 0.66,0.86 0.39,0.69 0.63,1.53 0.56,2.46 -0.08,0.94 -0.41,1.6 -0.85,2.2 -0.21,0.3 -1.19,1.23 -1.51,1.56 -1.13,1.13 -1.92,2.2 -3.74,2.36 -1.31,0.11 -2.48,-0.37 -3.33,-1.2 -0.11,-0.11 -0.63,-0.69 -0.65,-0.88 -0.2,-0.16 -0.45,-0.99 -0.5,-1.2 -0.1,-0.5 -0.13,-0.99 -0.06,-1.51 0.11,-0.81 0.53,-1.7 1.05,-2.24l0.43 -0.41c0.14,-0.14 0.26,-0.26 0.4,-0.4 0.73,-0.73 1.77,-1.91 2.59,-2.33 -0,0.27 -0.11,0.63 -0.12,0.96 -0.01,0.38 0.07,0.7 0.07,1.03 -0,0 -0.42,0.46 -0.54,0.52zm7.03 -0.26c-0.18,-0.37 -0.11,-0.41 -0.47,-1.01l-0.67 -0.85 -0.83 -0.66c-0.61,-0.37 -0.64,-0.3 -1.03,-0.49 0.11,-0.16 2.02,-2.06 2.19,-2.17 1.43,-0.95 3.37,-0.05 3.37,1.82 0,0.94 -0.55,1.37 -1.06,1.88 -0.26,0.26 -0.49,0.49 -0.74,0.74 -0.18,0.18 -0.57,0.62 -0.75,0.73z"/>
  <path class="fil3" d="M13.83 13.61c0.24,0.26 0.41,0.8 0.43,1.2 0.07,1.04 -0.44,1.59 -1.02,2.18 -0.52,0.52 -1.96,2.06 -2.49,2.35 -0.37,0.2 -0.82,0.32 -1.31,0.29 -0.38,-0.02 -0.97,-0.2 -1.2,-0.43 -0.29,-0.18 -0.94,-0.28 -1.44,-1.11 -0.28,-0.45 -0.44,-0.98 -0.41,-1.54 0.01,-0.24 0.07,-0.3 0.3,-0.32 0,-0.16 0.05,-0.33 0.13,-0.42 -0.11,-0.12 -0.22,-0.19 -0.11,-0.4 0.18,-0.36 0.58,-0.73 0.85,-0.99l1.19 -1.22c0.03,-0.18 -0.06,-0.41 -0.09,-0.6 -0.03,-0.22 -0.03,-0.42 -0.06,-0.63 -0.21,0.17 -0.46,0.45 -0.66,0.65 -0.54,0.54 -1.55,1.48 -1.94,2.01 -0.36,0.48 -0.66,1.13 -0.79,1.86 -0.16,0.95 -0.02,1.45 0.2,2.29 0.03,0.19 0.54,0.77 0.65,0.88 0.85,0.83 2.02,1.31 3.33,1.2 1.82,-0.16 2.61,-1.23 3.74,-2.36 0.32,-0.32 1.3,-1.26 1.51,-1.56 0.43,-0.6 0.77,-1.26 0.85,-2.2 0.08,-0.93 -0.16,-1.77 -0.56,-2.46 -0.19,-0.32 -0.44,-0.64 -0.66,-0.86l-0.64 -0.52c-0.09,-0.06 -0.13,-0.1 -0.23,-0.11 -0.27,-0.08 -0.96,-0.35 -1.25,-0.21 -0.23,0.13 -0.4,0.87 -0.4,1.23 0.57,0.08 1.01,0.38 1.33,0.65 0.5,0.42 0.65,1.02 0.74,1.16z"/>
  <path class="fil3" d="M10.3 13.89c0.02,0.14 0.29,0.5 0.39,0.61 0.42,0.49 1.17,1.08 1.83,1.25 0.3,-0.57 0.39,-0.72 0.41,-1.51 -0.62,-0.32 -0.88,-0.49 -1.23,-1.02 -0.72,-1.09 -0.51,-2.43 0.4,-3.36 0.49,-0.49 1.87,-1.92 2.3,-2.29 1.28,-1.13 3.06,-0.84 3.94,0.4 0.2,0.28 0.23,0.46 0.39,0.75 0.35,0.34 0.51,1.25 0.39,1.82 -0.14,0.71 -0.49,1.06 -0.84,1.42 -0.24,0.24 -2.04,2.09 -2.28,2.24 0.02,0.78 -0.1,0.92 -0.11,1.3 0.59,-0.31 0.77,-0.51 1.2,-0.95 0.53,-0.53 1.69,-1.74 2.17,-2.16 0.12,-0.11 0.36,-0.43 0.48,-0.62 0.25,-0.4 0.22,-0.59 0.57,-0.53 0.06,-0.14 0.1,-0.32 0.16,-0.46 -0.39,-0.15 -0.02,-0.47 -0.07,-1.49 -0.05,-1.04 -0.44,-1.88 -1.07,-2.6 -0.13,-0.15 -0.77,-0.77 -1.02,-0.8 -0.69,-0.17 -1.07,-0.31 -1.87,-0.25 -1.07,0.08 -1.85,0.47 -2.63,1.11l-1.3 1.31c-0.36,0.36 -0.7,0.7 -1.07,1.07 -0.08,0.08 -0.21,0.18 -0.28,0.27 -0.63,0.77 -1.03,1.55 -1.1,2.62 -0.06,0.82 0.08,1.16 0.25,1.87z"/>
  <path class="fil4" d="M10.3 13.89c-0.17,-0.7 -0.31,-1.05 -0.25,-1.87 0.08,-1.07 0.48,-1.84 1.1,-2.62 0.07,-0.09 0.2,-0.19 0.28,-0.27 0.36,-0.36 0.7,-0.7 1.07,-1.07l1.3 -1.31c0.78,-0.64 1.56,-1.03 2.63,-1.11 0.8,-0.06 1.18,0.08 1.87,0.25 -0.23,-0.3 -1.43,-0.55 -1.72,-0.58 -0.99,-0.09 -1.93,0.17 -2.72,0.68 -0.26,0.17 -0.43,0.32 -0.63,0.53l-2.29 2.29c-0.87,0.81 -1.32,2.13 -1.21,3.33 0.04,0.45 0.3,1.53 0.58,1.73z"/>
  <path class="fil4" d="M5.42 18.78c-0.22,-0.83 -0.36,-1.34 -0.2,-2.29 0.12,-0.73 0.43,-1.38 0.79,-1.86 0.39,-0.52 1.4,-1.47 1.94,-2.01 0.2,-0.2 0.45,-0.48 0.66,-0.65 0.03,0.21 0.03,0.41 0.06,0.63 0.03,0.19 0.12,0.41 0.09,0.6 0.12,-0.06 0.54,-0.51 0.54,-0.52 -0,-0.33 -0.08,-0.65 -0.07,-1.03 0.01,-0.33 0.11,-0.69 0.12,-0.96 -0.82,0.42 -1.86,1.61 -2.59,2.33 -0.14,0.14 -0.26,0.26 -0.4,0.4l-0.43 0.41c-0.52,0.55 -0.94,1.43 -1.05,2.24 -0.07,0.52 -0.05,1.01 0.06,1.51 0.04,0.21 0.29,1.04 0.5,1.2z"/>
  <path class="fil4" d="M8.25 19.2c0.23,0.23 0.81,0.41 1.2,0.43 0.48,0.03 0.94,-0.08 1.31,-0.29 0.53,-0.3 1.97,-1.83 2.49,-2.35 0.59,-0.59 1.09,-1.13 1.02,-2.18 -0.03,-0.41 -0.19,-0.94 -0.43,-1.2 0.32,1.63 -0.17,2.16 -1.09,3.08 -0.24,0.24 -0.47,0.47 -0.71,0.71 -1.34,1.34 -1.8,2.16 -3.79,1.8z"/>
  <path class="fil4" d="M15.99 14.21c0.23,-0.15 2.04,-2 2.28,-2.24 0.35,-0.35 0.7,-0.71 0.84,-1.42 0.12,-0.57 -0.04,-1.48 -0.39,-1.82 0.1,0.66 0.19,1.04 -0.06,1.69 -0.29,0.77 -1.15,1.49 -1.77,2.11 -0.32,0.32 -0.68,0.64 -0.97,0.98l0.07 0.7z"/>
  <path class="fil4" d="M12.52 15.75c0.36,0.22 0.48,0.05 0.67,-0.33 0.17,-0.33 0.26,-0.62 0.26,-1.04l-0.53 -0.14c-0.02,0.78 -0.11,0.94 -0.41,1.51z"/>
  <path class="fil4" d="M12.16 10.57c0.29,-0.14 0.97,0.13 1.25,0.21 -0.12,-0.16 -0.44,-0.26 -0.64,-0.33 -0.37,-0.14 -0.45,-0.21 -0.6,0.12z"/>
 </g>
</svg>
