<?xml version="1.0" encoding="UTF-8"?>
<!DOCTYPE svg PUBLIC "-//W3C//DTD SVG 1.1//EN" "http://www.w3.org/Graphics/SVG/1.1/DTD/svg11.dtd">
<!-- Creator: CorelDRAW 2020 (64-Bit) -->
<svg xmlns="http://www.w3.org/2000/svg" xml:space="preserve" width="18.9975mm" height="19.002mm" version="1.1" style="shape-rendering:geometricPrecision; text-rendering:geometricPrecision; image-rendering:optimizeQuality; fill-rule:evenodd; clip-rule:evenodd"
viewBox="0 0 28.51 28.51"
 xmlns:xlink="http://www.w3.org/1999/xlink"
 xmlns:xodm="http://www.corel.com/coreldraw/odm/2003">
 <defs>
  <style type="text/css">
   <![CDATA[
    .fil0 {fill:black}
    .fil6 {fill:#009933}
    .fil1 {fill:#02A9F4}
    .fil5 {fill:#0377BC}
    .fil7 {fill:#232323}
    .fil4 {fill:#44C554}
    .fil3 {fill:#90562D}
    .fil2 {fill:#FECCAB}
    .fil8 {fill:white}
   ]]>
  </style>
 </defs>
 <g id="Capa_x0020_1">
  <metadata id="CorelCorpID_0Corel-Layer"/>
  <g id="_1875381954400">
   <path class="fil0" d="M9.67 24.15c0.13,-0.12 0.22,-0.16 0.34,-0.28 0.93,-0.92 0.93,-0.53 0.93,-1.64 -0,-0.41 -0,-0.82 0,-1.23 0.19,0.17 0.48,0.64 0.67,0.87 1.07,1.36 2.29,0.8 3.66,0.93 0.29,0.73 0.13,1.16 0.87,2.41 0.11,0.18 0.16,0.12 0.08,0.23 -0.32,0.18 -1.42,0.2 -1.85,0.2 -1.5,0 -4.02,-0.44 -5.04,-1.15l0.35 -0.34zm18.84 -10.36l0 0.91c-0.04,1.19 -0.23,2.38 -0.57,3.58 -0.12,0.45 -0.22,0.37 -0.04,0.78 0.53,1.18 0.61,1.82 0.61,3.13 0,2 -1.29,4.14 -2.89,5.19 -1.7,1.11 -3.81,1.48 -5.78,0.82 -1.18,-0.39 -0.74,-0.52 -1.57,-0.26 -2.24,0.73 -5.08,0.75 -7.39,0.17 -0.44,-0.11 -0.93,-0.23 -1.35,-0.4 -1.28,-0.51 -2.35,-0.96 -3.48,-1.78 -1.47,-1.08 -2.4,-1.99 -3.47,-3.48 -0.25,-0.35 -0.45,-0.69 -0.68,-1.07 -1.34,-2.29 -1.89,-4.76 -1.89,-7.44 0,-2.23 0.78,-4.91 1.91,-6.8 0.68,-1.14 1.31,-1.99 2.26,-2.94 1.28,-1.28 2.06,-1.73 3.52,-2.59 0.18,-0.11 0.38,-0.2 0.57,-0.28 2.3,-0.94 3.66,-1.31 6.27,-1.31 2.81,0 5.84,1.1 7.89,2.58l1.88 1.57c1.67,1.67 2.56,3.22 3.38,5.34 0.18,0.46 0.28,0.84 0.41,1.35 0.25,1 0.39,1.98 0.42,2.96zm-4.52 2.8c1,0.25 2.04,1.31 2.51,1.95 1.43,1.95 1.42,4.62 0.01,6.61 -0.44,0.62 -1.51,1.7 -2.46,1.94 -0.52,0.41 -2.17,0.52 -2.94,0.41 -2.64,-0.35 -4.91,-2.6 -4.93,-5.61 -0.02,-3.02 2.22,-5.27 4.85,-5.67 0.81,-0.12 2.39,-0.03 2.97,0.37zm-3.99 -1.13c0.01,-0.68 0.17,-1.3 0.16,-1.88 -0,-0.69 -0.2,-1.3 0.71,-1.2 0.15,0.67 0.09,1.23 -0.03,1.91 -0.16,0.9 -0.3,1.09 -0.84,1.18zm-11.47 0.31c-0.39,-0.21 -0.72,-0.86 -0.82,-1.41 -0.1,-0.54 -0.28,-1.51 -0.01,-1.99 0.29,-0.02 0.38,0.03 0.58,0.11 0.15,0.62 0.28,2.59 0.26,3.29zm5.05 6.08c-0.65,0 -0.91,-0.18 -1.19,-0.52 -0.49,-0.58 -0.76,-1.17 -1.46,-1.93 -0.99,-1.08 -1.55,-1.05 -1.45,-3.56 0.04,-1.13 -0.15,-1.99 -0.22,-3.08 -0.08,-1.3 -0.25,-2.23 0.89,-2.45 1.69,-0.33 2.97,0.53 5.89,-0.89 1.38,-0.67 1.64,-1.31 1.91,-1.46 0.33,0.67 0.42,0.54 0.75,1.62 0.32,1.04 0.57,2.99 0.51,4.1 -0.02,0.31 -0.12,0.67 -0.15,1.02 -0.03,0.39 -0.02,0.74 -0.01,1.13 -1.05,0.38 -2.12,1.47 -2.67,2.25 -0.68,0.98 -1.15,2.28 -1.17,3.76l-1.64 0.01zm-5.37 -10.39c-0.41,-0.4 -0.63,-2.69 -0.56,-3.42 0.29,-3.02 3.44,-5.53 6.82,-5.13 1.14,0.13 2.2,0.6 2.85,1.17 0.76,0.66 0.84,0.95 0.97,1.07 0.27,0.25 2.65,0.01 3.05,2.94 0.14,1.05 -0.04,2.55 -0.53,3.3l-0.75 0.13c-0.22,-1.59 -0.51,-2.9 -1.3,-4.02 -0.11,-0.16 -0.47,-0.59 -0.68,-0.68 -0.76,-0.32 -0.43,0.6 -2.25,1.65 -1.57,0.91 -2.78,0.86 -4.45,0.86 -0.88,-0 -1.6,-0.03 -2.26,0.41 -0.94,0.63 -0.65,1.47 -0.9,1.73zm10.41 -9.75c1.24,0.24 3.37,1.66 4.1,2.28 1.12,0.94 2.05,1.93 2.94,3.4 1.33,2.21 2.04,4.89 1.89,7.61 -0.06,1.06 -0.29,1.8 -0.43,2.74l-0.78 -0.86c-0.22,-0.08 -0.64,-0.47 -0.96,-0.66 -1.2,-0.72 -2.3,-1 -3.79,-0.99 0.18,-0.67 0.32,-1.23 0.33,-1.98 0.03,-1.57 -0.47,-0.85 -0.06,-1.85 0.46,-1.13 0.63,-2.61 0.33,-3.88 -0.75,-3.2 -3.11,-2.89 -3.45,-3.33 -0.32,-0.41 -0.72,-0.79 -1.17,-1.1 -4.5,-3.08 -10.4,0.23 -10.87,4.87 -0.07,0.67 -0,1.44 0.11,2.1 0.2,1.22 0.5,1.33 0.19,1.69 -0.65,0.74 -0.63,3.74 1.12,4.93 0.43,0.29 0.36,0.11 0.44,0.69 0.12,0.94 0.56,1.61 1.2,2.2 0.3,0.27 0.25,0.37 0.25,0.86 -0.01,2.56 0.22,1.91 -0.63,2.75 -0.46,0.45 -0.89,0.7 -1.25,1.01 -0.6,0.51 0.31,0.96 0.72,1.16 1.72,0.82 3.55,1.28 5.54,1.26 3.57,-0.03 1.74,-0.88 3.37,0.48 -2.05,0.68 -4.82,0.55 -6.88,0.02 -2.12,-0.54 -3.81,-1.59 -5.14,-2.67 -2.42,-1.97 -4.97,-5.86 -4.73,-10.8 0.37,-7.81 7.2,-13.31 14.51,-12.62 0.79,0.07 2.54,0.37 3.11,0.7z"/>
   <path class="fil1" d="M26.33 16.87c0.21,-0.27 0.29,-2.17 0.29,-2.62 0,-2.4 -0.68,-4.98 -1.87,-6.93 -0.76,-1.25 -1.58,-2.26 -2.62,-3.26l-1.67 -1.28 -1.85 -1.08c-0.57,-0.33 -2.32,-0.62 -3.11,-0.7 -7.31,-0.69 -14.15,4.81 -14.51,12.62 -0.23,4.94 2.31,8.83 4.73,10.8 1.33,1.08 3.02,2.12 5.14,2.67 2.06,0.53 4.83,0.66 6.88,-0.02 -1.63,-1.37 0.2,-0.52 -3.37,-0.48 -1.98,0.02 -3.82,-0.43 -5.54,-1.26 -0.41,-0.2 -1.32,-0.65 -0.72,-1.16 0.36,-0.31 0.79,-0.56 1.25,-1.01 0.85,-0.84 0.61,-0.19 0.63,-2.75 0,-0.49 0.04,-0.59 -0.25,-0.86 -0.63,-0.58 -1.07,-1.26 -1.2,-2.2 -0.08,-0.58 -0.01,-0.4 -0.44,-0.69 -1.74,-1.19 -1.77,-4.18 -1.12,-4.93 0.31,-0.36 0.02,-0.47 -0.19,-1.69 -0.11,-0.66 -0.17,-1.43 -0.11,-2.1 0.46,-4.64 6.37,-7.96 10.87,-4.87 0.44,0.3 0.84,0.68 1.17,1.1 0.35,0.44 2.71,0.13 3.45,3.33 0.3,1.28 0.13,2.76 -0.33,3.88 -0.41,1 0.09,0.28 0.06,1.85 -0.01,0.75 -0.16,1.31 -0.33,1.98 1.48,-0.01 2.59,0.27 3.79,0.99 0.32,0.19 0.74,0.58 0.96,0.66z"/>
   <path class="fil2" d="M13.57 21.85l1.64 -0.01c0.02,-1.47 0.49,-2.78 1.17,-3.76 0.54,-0.77 1.61,-1.87 2.67,-2.25 -0.02,-0.39 -0.03,-0.74 0.01,-1.13 0.03,-0.35 0.13,-0.71 0.15,-1.02 0.06,-1.11 -0.19,-3.06 -0.51,-4.1 -0.34,-1.08 -0.43,-0.94 -0.75,-1.62 -0.27,0.14 -0.53,0.78 -1.91,1.46 -2.92,1.43 -4.2,0.56 -5.89,0.89 -1.14,0.22 -0.98,1.15 -0.89,2.45 0.07,1.09 0.27,1.95 0.22,3.08 -0.1,2.5 0.46,2.47 1.45,3.56 0.7,0.77 0.97,1.35 1.46,1.93 0.29,0.34 0.54,0.52 1.19,0.52z"/>
   <path class="fil3" d="M8.2 11.46c0.25,-0.25 -0.04,-1.1 0.9,-1.73 0.66,-0.44 1.38,-0.41 2.26,-0.41 1.67,0 2.88,0.06 4.45,-0.86 1.81,-1.05 1.48,-1.97 2.25,-1.65 0.21,0.09 0.57,0.52 0.68,0.68 0.79,1.12 1.07,2.43 1.3,4.02l0.75 -0.13c0.49,-0.74 0.67,-2.25 0.53,-3.3 -0.4,-2.93 -2.78,-2.7 -3.05,-2.94 -0.13,-0.12 -0.21,-0.41 -0.97,-1.07 -0.65,-0.56 -1.71,-1.03 -2.85,-1.17 -3.37,-0.39 -6.53,2.11 -6.82,5.13 -0.07,0.73 0.15,3.02 0.56,3.42z"/>
   <path class="fil4" d="M24.04 27.08c0.21,-0.21 0.35,-0.3 0.56,-0.5 1.31,-1.27 2.03,-2.8 2.01,-4.81 -0.02,-2.24 -0.99,-3.91 -2.63,-5.19 -0.58,-0.41 -2.16,-0.5 -2.97,-0.37 -2.63,0.4 -4.87,2.66 -4.85,5.67 0.02,3 2.3,5.26 4.93,5.61 0.77,0.1 2.42,-0 2.94,-0.41z"/>
   <path class="fil2" d="M9.32 24.49c1.02,0.71 3.55,1.15 5.04,1.15 0.43,0 1.54,-0.02 1.85,-0.2 0.08,-0.12 0.03,-0.05 -0.08,-0.23 -0.73,-1.25 -0.57,-1.68 -0.87,-2.41 -1.37,-0.13 -2.59,0.43 -3.66,-0.93 -0.18,-0.23 -0.47,-0.71 -0.67,-0.87 -0,0.41 -0,0.82 -0,1.23 0,1.11 0,0.72 -0.93,1.64 -0.13,0.12 -0.21,0.17 -0.34,0.28l-0.35 0.34z"/>
   <path class="fil5" d="M26.33 16.87l0.78 0.86c0.14,-0.94 0.37,-1.68 0.43,-2.74 0.15,-2.72 -0.55,-5.4 -1.89,-7.61 -0.88,-1.46 -1.82,-2.45 -2.94,-3.4 -0.73,-0.62 -2.87,-2.04 -4.1,-2.28l1.85 1.08 1.67 1.28c1.04,1 1.86,2.01 2.62,3.26 1.19,1.95 1.87,4.53 1.87,6.93 0,0.45 -0.07,2.34 -0.29,2.62z"/>
   <path class="fil6" d="M24.04 27.08c0.95,-0.24 2.03,-1.32 2.46,-1.94 1.4,-1.99 1.41,-4.66 -0.01,-6.61 -0.46,-0.63 -1.51,-1.7 -2.51,-1.95 1.64,1.28 2.6,2.95 2.63,5.19 0.02,2 -0.69,3.54 -2.01,4.81 -0.21,0.2 -0.35,0.29 -0.56,0.5z"/>
   <path class="fil2" d="M8.52 15.77c0.03,-0.71 -0.1,-2.67 -0.26,-3.29 -0.2,-0.08 -0.28,-0.13 -0.58,-0.11 -0.27,0.48 -0.09,1.45 0.01,1.99 0.1,0.56 0.43,1.21 0.82,1.41z"/>
   <path class="fil2" d="M20 15.46c0.54,-0.09 0.68,-0.28 0.84,-1.18 0.12,-0.68 0.18,-1.24 0.03,-1.91 -0.91,-0.1 -0.71,0.51 -0.71,1.2 0,0.58 -0.16,1.21 -0.16,1.88z"/>
   <path class="fil7" d="M19.44 25.79c0.2,-0.06 0.77,-0.45 0.86,-0.48 0.16,-0.06 0.08,0.03 0.33,0.05 0.01,0.13 0.24,0.94 0.28,1.04l2.17 0c0.18,-0.76 0.24,-1.29 0.69,-1.03 0.19,0.11 0.61,0.38 0.77,0.41l1.52 -1.5c-0.1,-0.36 -0.54,-0.82 -0.5,-1.01 0.05,-0.24 0.23,-0.22 0.47,-0.29 0.22,-0.06 0.43,-0.13 0.63,-0.17l0 -2.17c-0.11,-0.06 -0.88,-0.27 -1.04,-0.28 -0.02,-0.22 -0.09,-0.17 -0.06,-0.3 0.02,-0.07 0.43,-0.69 0.48,-0.88 -0.49,-0.53 -1.02,-0.99 -1.52,-1.52 -2.09,1.13 -0.82,-0.57 -1.65,-0.62l-0.25 0c-0.07,0 -0.16,0 -0.25,0l0 -0 -0.78 0 0 0 -0.68 0.01 -0.07 0.27c-0,-0 -0,-0.01 -0,-0.01l-0.21 0.79 -0.31 0.04 -0.29 -0.15c-0.1,0.11 -0.03,0.01 -0.02,-0.01l-0.56 -0.3 -1.5 1.51c0.27,0.86 1.24,1.09 -0.62,1.46l0 2.17c0.23,0.05 0.41,0.11 0.64,0.17 0.24,0.06 0.4,0.05 0.46,0.3 0.04,0.19 -0.4,0.76 -0.48,1 0.33,0.31 1.43,1.45 1.49,1.52zm0.08 -7.15c0.27,0.06 0.45,0.22 0.66,0.33 0.27,0.14 0.36,-0.02 0.63,-0.13 0.36,-0.15 0.43,-0.02 0.54,-0.41 0.05,-0.18 0.08,-0.61 0.27,-0.61 1.07,0 0.82,-0.11 1.03,0.65 0.09,0.32 0.25,0.25 0.53,0.37 0.28,0.12 0.36,0.27 0.64,0.13 0.2,-0.11 0.37,-0.24 0.6,-0.34l0.66 0.63c-0.06,0.22 -0.22,0.45 -0.33,0.64 -0.14,0.25 -0.01,0.31 0.1,0.57 0.12,0.26 0.07,0.5 0.36,0.58 0.83,0.25 0.69,-0.06 0.65,1.14 -0.62,0.27 -0.75,0.02 -0.9,0.46 -0.22,0.62 -0.37,0.6 -0.21,0.88 0.11,0.19 0.24,0.38 0.33,0.6l-0.68 0.65c-0.21,-0.08 -0.39,-0.21 -0.59,-0.32 -0.27,-0.15 -0.26,-0.04 -0.57,0.09 -0.92,0.39 -0.37,0.02 -0.77,1.04 -1.31,0.01 -0.86,0.12 -1.15,-0.71 -0.08,-0.24 -0.35,-0.23 -0.57,-0.33 -0.3,-0.13 -0.31,-0.25 -0.6,-0.09 -0.19,0.11 -0.4,0.26 -0.61,0.3l-0.62 -0.66c0.09,-0.24 0.24,-0.4 0.35,-0.62 0.12,-0.25 -0.05,-0.38 -0.16,-0.64 -0.14,-0.33 -0.02,-0.41 -0.39,-0.51 -0.73,-0.19 -0.62,0.01 -0.62,-1.02 0,-0.21 0.7,-0.28 0.85,-0.37 0.04,-0.08 0.35,-0.86 0.35,-0.87 0.02,-0.18 -0.32,-0.57 -0.38,-0.85l0.6 -0.62z"/>
   <path class="fil8" d="M21.48 19.44c1.4,-0.32 2.53,0.64 2.78,1.75 0.32,1.42 -0.66,2.55 -1.75,2.8 -1.43,0.33 -2.53,-0.63 -2.8,-1.74 -0.35,-1.45 0.65,-2.56 1.77,-2.81zm-1.97 -0.81l-0.6 0.62c0.06,0.28 0.4,0.67 0.38,0.85 -0,0 -0.32,0.79 -0.35,0.87 -0.16,0.09 -0.85,0.16 -0.85,0.37 0,1.03 -0.12,0.83 0.62,1.02 0.37,0.1 0.25,0.18 0.39,0.51 0.11,0.26 0.28,0.39 0.16,0.64 -0.1,0.22 -0.25,0.38 -0.35,0.62l0.62 0.66c0.2,-0.04 0.42,-0.19 0.61,-0.3 0.29,-0.17 0.31,-0.04 0.6,0.09 0.22,0.1 0.49,0.09 0.57,0.33 0.29,0.82 -0.16,0.71 1.15,0.71 0.41,-1.02 -0.15,-0.65 0.77,-1.04 0.31,-0.13 0.3,-0.25 0.57,-0.09 0.2,0.11 0.38,0.24 0.59,0.32l0.68 -0.65c-0.1,-0.22 -0.22,-0.41 -0.33,-0.6 -0.16,-0.29 -0.01,-0.26 0.21,-0.88 0.15,-0.44 0.28,-0.19 0.9,-0.46 0.03,-1.19 0.18,-0.89 -0.65,-1.14 -0.29,-0.09 -0.25,-0.32 -0.36,-0.58 -0.11,-0.26 -0.24,-0.32 -0.1,-0.57 0.11,-0.2 0.27,-0.42 0.33,-0.64l-0.66 -0.63c-0.23,0.1 -0.4,0.24 -0.6,0.34 -0.28,0.14 -0.36,-0.01 -0.64,-0.13 -0.28,-0.12 -0.44,-0.05 -0.53,-0.37 -0.21,-0.76 0.04,-0.65 -1.03,-0.65 -0.19,0 -0.22,0.43 -0.27,0.61 -0.1,0.39 -0.18,0.26 -0.54,0.41 -0.27,0.11 -0.36,0.27 -0.63,0.13 -0.21,-0.11 -0.39,-0.27 -0.66,-0.33z"/>
   <path class="fil7" d="M23.53 21.96c-0.36,2.06 -3.4,1.53 -3.07,-0.51 0.33,-2.01 3.42,-1.5 3.07,0.51zm-2.04 -2.51c-1.11,0.25 -2.12,1.36 -1.77,2.81 0.27,1.1 1.37,2.07 2.8,1.74 1.08,-0.25 2.07,-1.38 1.75,-2.8 -0.25,-1.11 -1.38,-2.07 -2.78,-1.75z"/>
   <path class="fil4" d="M23.53 21.96c0.35,-2 -2.75,-2.51 -3.07,-0.51 -0.33,2.03 2.71,2.56 3.07,0.51z"/>
  </g>
 </g>
</svg>
