<?xml version="1.0" encoding="UTF-8"?>
<!DOCTYPE svg PUBLIC "-//W3C//DTD SVG 1.1//EN" "http://www.w3.org/Graphics/SVG/1.1/DTD/svg11.dtd">
<!-- Creator: CorelDRAW 2020 (64-Bit) -->
<svg xmlns="http://www.w3.org/2000/svg" xml:space="preserve" width="15.9572mm" height="15.9572mm" version="1.1" style="shape-rendering:geometricPrecision; text-rendering:geometricPrecision; image-rendering:optimizeQuality; fill-rule:evenodd; clip-rule:evenodd"
viewBox="0 0 3.02 3.02"
 xmlns:xlink="http://www.w3.org/1999/xlink"
 xmlns:xodm="http://www.corel.com/coreldraw/odm/2003">
 <defs>
  <style type="text/css">
   <![CDATA[
    .fil1 {fill:black}
    .fil4 {fill:#26A599}
    .fil5 {fill:#C1EC56}
    .fil6 {fill:#E88604}
    .fil0 {fill:#EBECF1}
    .fil2 {fill:#FD816D}
    .fil3 {fill:#FFC729}
   ]]>
  </style>
 </defs>
 <g id="Capa_x0020_1">
  <metadata id="CorelCorpID_0Corel-Layer"/>
  <circle class="fil0" cx="1.51" cy="1.51" r="1.51"/>
  <g id="_2729896100848">
   <path class="fil1" d="M2.29 2.27l0.11 0 0 0.07 -0.11 0 -0 -0.07zm-0.34 -0.34l0.11 0 0 0.41 -0.11 0 0 -0.41zm-0.34 0l0.11 0 0 0.41 -0.11 0 0 -0.41zm-0.34 0.19l0.11 0 0 0.22 -0.11 0 0 -0.22zm-0.34 -0.34l0.11 0 0 0.56 -0.11 0 0 -0.56zm-0.34 -0.45l0.11 0 0 1.01 -0.11 0 0 -1.01zm-0.07 -0.02l0 1.02 -0.07 0 0 0.07 2.16 0 0 -0.07 -0.15 0c0,-0.17 0.02,-0.15 -0.2,-0.15 -0.07,0 -0.06,0.05 -0.06,0.15l-0.07 0 0 -0.43c0,-0.08 -0.06,-0.06 -0.2,-0.06 -0.04,0 -0.06,0.01 -0.06,0.06l0 0.43 -0.07 0 0 -0.43c0,-0.08 -0.06,-0.06 -0.2,-0.06 -0.04,0 -0.06,0.01 -0.06,0.06l0 0.43 -0.07 0 0 -0.24c0,-0.08 -0.06,-0.06 -0.2,-0.06 -0.04,0 -0.06,0.01 -0.06,0.06l0 0.24 -0.07 0 0 -0.58c0,-0.08 -0.06,-0.06 -0.2,-0.06 -0.04,0 -0.06,0.01 -0.06,0.06l0 0.58 -0.07 0 0 -1.02c0,-0.08 -0.06,-0.06 -0.2,-0.06 -0.04,0 -0.06,0.01 -0.06,0.06z"/>
   <path class="fil1" d="M0.69 0.84c0.03,0.02 0.46,0.45 0.5,0.49 0.2,0.2 0.16,0.19 0.26,0.09l0.25 -0.24 0.59 0.59c0.02,0.02 0.13,0.14 0.16,0.14 0.05,-0 0.04,-0.06 0.04,-0.11l0.07 0 -0 0.3 -0.3 0 0 -0.07c0.03,0 0.16,0.01 0.1,-0.06l-0.46 -0.46c-0.22,-0.22 -0.19,-0.22 -0.28,-0.13 -0.04,0.04 -0.24,0.24 -0.26,0.26 -0.03,-0.02 -0.37,-0.37 -0.4,-0.4 -0.07,-0.07 -0.13,-0.13 -0.2,-0.2 -0.04,-0.04 -0.06,-0.08 -0.11,-0.02 -0.03,0.03 -0.07,0.08 -0.1,0.1l-0.06 -0.06 0.21 -0.2zm0 0.22c0.03,0.02 0.09,0.09 0.12,0.12l0.49 0.49c0.07,0.07 0.08,0.02 0.14,-0.03 0.04,-0.04 0.22,-0.23 0.25,-0.25l0.54 0.54c-0.06,0.03 -0.05,-0.02 -0.05,0.17 0,0.04 0.01,0.06 0.06,0.06l0.34 0c0.04,0 0.06,-0.01 0.06,-0.06l0 -0.34c0,-0.07 -0.05,-0.06 -0.17,-0.06 -0.06,0 -0.04,0.02 -0.06,0.06 -0.02,-0.03 -0.57,-0.57 -0.64,-0.64 -0.09,-0.09 -0.07,-0.07 -0.27,0.14 -0.03,0.03 -0.1,0.11 -0.13,0.13 -0.03,-0.02 -0.58,-0.58 -0.63,-0.62 -0.06,-0.06 -0.07,-0.02 -0.17,0.08 -0.17,0.17 -0.21,0.17 -0.13,0.25 0.1,0.1 0.09,0.12 0.17,0.04 0.02,-0.03 0.06,-0.06 0.08,-0.08z"/>
   <path class="fil2" d="M0.49 1.04l0.06 0.06c0.03,-0.02 0.08,-0.07 0.1,-0.1 0.06,-0.06 0.07,-0.02 0.11,0.02 0.07,0.07 0.13,0.13 0.2,0.2 0.03,0.03 0.38,0.38 0.4,0.4 0.03,-0.02 0.22,-0.22 0.26,-0.26 0.09,-0.09 0.06,-0.09 0.28,0.13l0.46 0.46c0.05,0.07 -0.07,0.06 -0.1,0.06l-0 0.07 0.3 0 0 -0.3 -0.07 0c0,0.05 0.01,0.11 -0.04,0.11 -0.03,0 -0.13,-0.12 -0.16,-0.14l-0.59 -0.59 -0.25 0.24c-0.1,0.1 -0.07,0.11 -0.26,-0.09 -0.04,-0.04 -0.47,-0.47 -0.5,-0.49l-0.21 0.2z"/>
   <path class="fil3" d="M1.61 0.82c0.05,-0.02 0.07,0.05 0.03,0.07 -0.05,0.02 -0.07,-0.05 -0.03,-0.07zm-0.08 -0.21c-0.02,-0.11 -0.04,-0.17 0.04,-0.17 0.13,0 0.18,-0.02 0.16,0.06l-0.03 0.21c-0.01,0.06 -0.02,0.06 -0.1,0.06 -0.07,0 -0.06,-0.04 -0.07,-0.17zm-0.32 0.34c0.05,0.02 0.66,0.01 0.77,0.01 0.13,0 0.07,-0.06 -0.03,-0.21l-0.22 -0.36c-0.02,-0.03 -0.06,-0.1 -0.08,-0.12 -0.04,-0.05 -0.08,0.03 -0.1,0.07l-0.33 0.55c-0.02,0.03 -0.03,0.04 -0.02,0.08z"/>
   <path class="fil1" d="M1.21 0.96c-0.01,-0.04 -0,-0.05 0.02,-0.08l0.33 -0.55c0.02,-0.03 0.05,-0.11 0.1,-0.07 0.02,0.02 0.06,0.09 0.08,0.12l0.22 0.36c0.09,0.15 0.15,0.21 0.03,0.21 -0.11,-0 -0.73,0.01 -0.77,-0.01zm0.4 -0.77c-0.07,0.02 -0.08,0.07 -0.11,0.12l-0.35 0.58c-0.03,0.07 0.01,0.14 0.07,0.15 0.04,0.01 0.58,0.01 0.69,0.01 0.07,0 0.16,0.01 0.2,-0.03 0.05,-0.05 0.03,-0.11 0,-0.16l-0.35 -0.58c-0.03,-0.04 -0.06,-0.1 -0.14,-0.08z"/>
   <polygon class="fil4" points="0.62,2.35 0.73,2.35 0.73,1.34 0.62,1.34 "/>
   <polygon class="fil5" points="0.95,2.35 1.07,2.35 1.07,1.79 0.95,1.79 "/>
   <path class="fil1" d="M1.62 0.71c-0.02,-0.03 -0.03,-0.14 -0.03,-0.19l0.06 0c-0,0.04 -0.01,0.16 -0.03,0.19zm-0.02 0.08c0.07,0 0.09,0.01 0.1,-0.06l0.03 -0.21c0.01,-0.08 -0.04,-0.06 -0.16,-0.06 -0.08,0 -0.05,0.06 -0.04,0.17 0.02,0.13 0.01,0.17 0.07,0.17z"/>
   <polygon class="fil3" points="1.62,2.35 1.74,2.35 1.74,1.94 1.62,1.94 "/>
   <polygon class="fil3" points="1.96,2.35 2.07,2.35 2.07,1.94 1.96,1.94 "/>
   <polygon class="fil6" points="1.29,2.35 1.4,2.35 1.4,2.12 1.29,2.12 "/>
   <polygon class="fil2" points="2.29,2.35 2.41,2.35 2.41,2.27 2.29,2.27 "/>
   <path class="fil2" d="M1.62 0.71c0.02,-0.03 0.03,-0.14 0.03,-0.19l-0.06 0c0.01,0.04 0.01,0.16 0.03,0.19z"/>
   <path class="fil1" d="M1.61 0.82c-0.04,0.02 -0.02,0.09 0.03,0.07 0.04,-0.02 0.02,-0.09 -0.03,-0.07z"/>
  </g>
 </g>
</svg>
