<?xml version="1.0" encoding="UTF-8"?>
<!DOCTYPE svg PUBLIC "-//W3C//DTD SVG 1.1//EN" "http://www.w3.org/Graphics/SVG/1.1/DTD/svg11.dtd">
<!-- Creator: CorelDRAW 2020 (64-Bit) -->
<svg xmlns="http://www.w3.org/2000/svg" xml:space="preserve" width="194.236mm" height="194.236mm" version="1.1" style="shape-rendering:geometricPrecision; text-rendering:geometricPrecision; image-rendering:optimizeQuality; fill-rule:evenodd; clip-rule:evenodd"
viewBox="0 0 259.8 259.8"
 xmlns:xlink="http://www.w3.org/1999/xlink"
 xmlns:xodm="http://www.corel.com/coreldraw/odm/2003">
 <defs>
  <style type="text/css">
   <![CDATA[
    .fil2 {fill:black}
    .fil10 {fill:#C97C10}
    .fil7 {fill:#DD8700}
    .fil8 {fill:#DF4B4B}
    .fil5 {fill:#F09413}
    .fil1 {fill:#FE9B00}
    .fil3 {fill:#FEBF52}
    .fil0 {fill:#FEC508}
    .fil9 {fill:#FEC951}
    .fil4 {fill:#FEDF75}
    .fil6 {fill:#FFAA00}
   ]]>
  </style>
 </defs>
 <g id="Capa_x0020_1">
  <metadata id="CorelCorpID_0Corel-Layer"/>
  <g id="_2070028224224">
   <path class="fil0" d="M97.35 208.08l0.13 -9.13 4.01 0 0 -4.1 8.11 0 0 4.06 12.23 -0 0 -30.16c-3.32,-1.19 -8.33,-4.02 -11.8,-5.79 -4.28,-2.18 -7.44,-4.79 -9.58,-8.69 -5.66,-10.29 -1.97,-22.8 4.03,-26.41 1.05,-0.61 1.64,-2 2.91,-3.25 1.61,-1.59 1.91,-1.96 3.83,-3.28 2.98,-2.05 6.34,-3.26 10.62,-3.57l0 -4.07 4.01 0 0 -4.1 8.11 0 0 8.12c17.32,0 16.24,-1.75 16.24,12.17l-4.1 0 -0.02 4.02 -8.01 0 0 -4.06 -4.11 0 -0 30.14c2.97,1.1 14.31,6.64 16.75,8.97 1.13,1.07 3.03,3.43 4.03,4.26 1.24,-0.64 1.94,-2.89 3.33,-4.49 1.37,-1.58 2.31,-2.66 4.36,-3.97 3.08,-19.28 28.39,-26.98 50.68,-26.7 -0.84,-1.31 -1.61,-2.32 -2.03,-4.1l-3.95 1.87c-5.01,-7.85 -9.06,-15.07 -14.42,-22.07 -10.15,-13.24 -23.12,-26.94 -38.56,-34.52 -6.26,-3.08 -8.52,-2.12 -16.14,-2.12 -6.34,0 -12.69,0.02 -19.04,-0.01 -1.23,1.38 -5.1,3.89 -6.75,5.17 -6.05,4.69 -14.16,13.12 -18.7,19.36 -14.72,20.25 -25.65,52.99 -18.67,78.19 3.09,11.15 12.94,23.88 22.49,28.25z"/>
   <path class="fil1" d="M166.33 251.68c3.24,-0.07 4.51,-1.31 7.39,-1.52l-3.28 -2.98c-1.33,-1.16 -1.87,-1.71 -3.04,-3.07 -1.98,-2.28 -3.38,-4.61 -4.3,-7.86 -1.48,-5.19 -0.89,-64.61 -0.66,-71.49 -2.05,1.31 -2.99,2.4 -4.36,3.97 -1.4,1.61 -2.09,3.85 -3.33,4.49 2.02,4.65 3.88,6.91 3.51,13.5 -0.32,5.66 -2.23,8.42 -4.52,12.09 1.27,1.9 0.56,18.57 0.56,24.49 -11.36,0.01 -25.14,-3.47 -28.62,-3.41 -1.74,-0.89 -0.76,-0.29 -2.36,-0.61 -0.84,-0.17 -0.46,0 -1.34,-0.3 -1.15,-0.39 -0.6,-0.18 -1.17,-0.66 -6.77,-1.95 -11.81,-4.21 -17.71,-6.76 -1.38,-0.59 -2.12,-0.26 -3.56,-1.04 -0.4,-0.22 -1.12,-0.88 -1.36,-1.16 -0.69,-0.82 -0.4,-0.46 -0.82,-1.27 -9.55,-4.36 -19.39,-17.09 -22.49,-28.25 -6.99,-25.2 3.94,-57.93 18.67,-78.19 4.54,-6.24 12.66,-14.67 18.7,-19.36 1.65,-1.28 5.52,-3.79 6.75,-5.17 -12.72,0.09 -15.41,2.22 -26.36,10.42l-6.84 5.83c-8.59,7.54 -15.52,16.11 -23.04,26.71 -10.82,15.26 -27.3,45.74 -29.93,69.49 -3.15,28.5 24.09,45.66 45.4,53.42 28.12,10.24 56.67,10.69 87.13,4.8l1.01 3.88z"/>
   <path class="fil2" d="M100.47 64.95c8.43,0 57.51,-0.61 61.65,0.44l-0.18 3.25c-6.73,0.79 -58.05,0.9 -64.07,-0.08 -0.72,-2.53 -0.46,-3.61 2.6,-3.61zm22.75 -64.95l13.49 0c14.69,0.63 28.47,3.31 35.33,8.09 4.86,3.39 1.3,9 -1.86,18.48 -1.12,3.36 -2.14,6.41 -3.17,9.51 -0.91,2.72 -1.99,6.74 -3.11,9.07 9.91,5.24 6.08,11.23 5.28,14.96 -0.54,2.49 2.24,4.14 1.13,9.2 -0.62,2.85 -2.31,5.6 -4.89,6.28 0.92,1.38 2.2,1.97 3.66,2.94 7.3,4.84 14.64,12.31 20.84,18.74 5,5.19 10.26,13 14.44,18.55 1.39,1.85 9.59,14.24 9.78,16.6 -1.55,0.36 -1.95,0.79 -3.04,1.53l-3.95 1.87c-5.01,-7.85 -9.06,-15.07 -14.42,-22.07 -10.15,-13.24 -23.12,-26.94 -38.56,-34.52 -6.26,-3.08 -8.52,-2.12 -16.14,-2.12 -6.34,0 -12.69,0.02 -19.04,-0.01 -12.72,0.09 -15.41,2.22 -26.36,10.42l-6.84 5.83c-8.59,7.54 -15.52,16.11 -23.04,26.71 -10.82,15.26 -27.3,45.74 -29.93,69.49 -3.15,28.5 24.09,45.66 45.4,53.42 28.12,10.24 56.67,10.69 87.13,4.8l1.01 3.88c0.68,1.15 0.79,2.66 1.11,4.06 -10.1,2.35 -20.42,3.67 -30.67,4.06l-12.82 0c-15.81,-0.59 -31.16,-3.36 -44.99,-7.93 -6.64,-2.19 -11.86,-4.73 -17.74,-7.63 -3.13,-1.55 -5.28,-3.09 -7.98,-4.71 -2.27,-1.36 -5.1,-3.35 -7.15,-5.03 -9.13,-7.47 -17.15,-16.78 -20.64,-29.6 -6.66,-24.51 14.44,-63.38 26.83,-84.12 2.99,-5.01 12.05,-17.12 16.09,-21.46l6.09 -6.6c2.04,-2.04 3.98,-4.22 6.09,-6.09l7 -5.68c1.54,-1.16 6.01,-4.16 6.82,-5.36 -2.72,-0.73 -4.5,-3.94 -4.97,-6.71 -0.87,-5.09 1.96,-6.32 1.1,-9.15 -0.57,-1.89 -1.11,-1.81 -1.24,-4.44 -0.28,-5.58 2.49,-7.95 6.63,-10.14 -1.17,-2.43 -2.26,-6.51 -3.24,-9.45 -1.14,-3.41 -2.03,-6.11 -3.17,-9.52 -3.15,-9.45 -6.56,-14.74 -1.74,-18.1 6.82,-4.76 20.68,-7.47 35.46,-8.09zm-22.75 52.77c8.43,0 57.51,-0.61 61.65,0.44l-0.19 3.16c-3.09,0.93 -58.99,0.94 -64.1,0.05 -0.7,-2.66 -0.52,-3.66 2.65,-3.66zm9.28 -29.38c3.07,-0.41 9.76,0.8 13.55,0.92 19.42,0.65 22.16,-0.84 40.19,-3.91l-6.24 18.17 -1.76 6.09 -51.1 -0.02 -7.96 -24.23 13.32 2.99zm43.28 -9.12c-8.94,3.12 -36.06,2.25 -45.62,0.19l-8.87 -2.2c7.62,-3.41 22.02,-4.16 31.36,-4.16 12.4,0 20.04,0.99 31.14,3.88 -1.73,1.4 -5.75,1.98 -8.01,2.29z"/>
   <path class="fil2" d="M183.82 238.93c14.16,3.17 18.59,6.08 36.86,4.1 5.78,-0.63 12.35,-2.14 17.28,-4.05 8.61,-3.34 8.26,-4.61 13.7,-7.7l-0.72 3.89c-11.87,24.44 -78.95,20.28 -80.42,-3.89 1.91,1.04 3.9,2.8 6.15,4.11 2.43,1.41 4.67,2.17 7.16,3.55zm75.98 -73.45l0 25.31c0,10.99 0,21.99 0,32.98l0 6.19c-0.1,7.71 -1.1,10.88 -8.74,18.05 -14.82,13.88 -53.25,15.26 -72.28,5.03 -1.58,-0.85 -3.57,-2.4 -5.05,-2.88l-3.28 -2.98c-1.33,-1.16 -1.87,-1.71 -3.04,-3.07 -1.98,-2.28 -3.38,-4.61 -4.3,-7.86 -1.48,-5.19 -0.89,-64.61 -0.66,-71.49 3.08,-19.28 28.39,-26.98 50.68,-26.7 15.61,-0.49 39.28,6.75 45.32,21.11 0.68,1.61 1.1,3.8 1.36,6.31zm-74.74 58c6.2,0.03 15.72,5.89 36.95,3.15 8.3,-1.07 16.59,-3.44 23.5,-7.49 2.23,-1.31 4.02,-2.9 6.27,-4.08l-0.87 3.68c-8.68,23.35 -78.86,21.78 -80.41,-3.71 2.17,1.17 4.42,3.14 7.11,4.66 2.13,1.2 5.78,1.98 7.44,3.79zm-1.18 -16.68c3,0.05 12.27,3.16 17.6,3.74 11.81,1.28 25.89,0.24 36.85,-4.18 2.71,-1.09 4.9,-2.12 7.19,-3.46 2.23,-1.31 4.01,-2.9 6.3,-4.07l-0.88 3.86c-11.94,24.48 -78.95,20.24 -80.43,-3.9 2.01,1.09 3.99,2.86 6.47,4.29 1.82,1.05 5.83,2.37 6.9,3.71zm1.18 -15.8c3.11,0.02 12.09,2.87 17.32,3.39 11.65,1.16 25.57,0.01 36.3,-4.42 8.66,-3.58 8.23,-4.84 13.11,-7.39l-0.87 3.68c-8.68,23.36 -78.86,21.77 -80.41,-3.71 2.17,1.17 4.42,3.14 7.11,4.66 2.13,1.2 5.78,1.98 7.44,3.79zm20.81 -44.66c8.84,-0.69 19.01,0.47 26.86,3.01 32.28,10.47 20.7,34.53 -16.36,37.19 -34.55,2.48 -62.11,-18.76 -34.81,-33.9 6.46,-3.58 15.67,-5.63 24.31,-6.31z"/>
   <path class="fil2" d="M144.11 196.32c-1.53,2.41 -6.61,2.6 -10.15,2.6l0 -23.78 0.1 -6.07c5.78,2.22 12.2,5.48 14.59,10.09 3.66,7.06 0.33,14.55 -4.53,17.16zm-31.34 -65.04c1.76,-4.01 7.08,-5.44 13.08,-5.44l-0.14 29.92 -4.49 -2.51c-4.55,-1.05 -8.71,-4.66 -10.39,-8.34 -1.85,-4.05 -1.46,-11.94 1.94,-13.63zm13.07 -17.57l-0 4 -4.01 0.07c-4.29,0.31 -7.64,1.52 -10.62,3.57 -1.92,1.32 -2.22,1.69 -3.83,3.28 -1.27,1.25 -1.85,2.64 -2.91,3.25 -5.67,14.68 -3.21,24.64 10.93,31.76 3.29,1.65 7.22,3.85 10.43,5.12l0 34.16 -4.01 0 -12.23 0 0 -4.06 -8.11 0 -0 4.1c-0.01,7.42 0.66,8.12 8.11,8.08 5.41,-0.03 10.83,-0 16.24,-0l0 8.12 4.01 -0 4.1 -0 0.01 -4.24 -0.01 -3.88c7.42,0 8.39,-0.8 14.21,-3 1.36,-1.76 3.53,-2.54 5.57,-5.21 2.29,-3.67 4.2,-6.43 4.52,-12.09 0.37,-6.59 -1.49,-8.85 -3.51,-13.5 -1,-0.83 -2.91,-3.18 -4.03,-4.26 -2.44,-2.33 -13.79,-7.87 -16.75,-8.97l0 -30.14 0 -4.01 8.12 0 0 4.06 4.01 -0 4.1 -0c0,-13.92 1.08,-12.17 -16.24,-12.17l0 -8.12 -8.11 0 -0 4.1z"/>
   <path class="fil2" d="M204.71 158.71c9.21,-1.05 19.92,0.02 27.28,4.08 14.22,7.85 -23.4,17.44 -41.79,7.3 -10.89,-6.01 7.62,-10.59 14.51,-11.38zm-0.08 -8.16c-7.14,0.72 -13.94,2.44 -19.12,5.53 -16.73,9.97 -2.32,29.67 32.37,26.25 7,-0.69 13.76,-2.52 18.8,-5.52 16.83,-10.05 2.09,-29.7 -32.05,-26.25z"/>
   <path class="fil2" d="M13.67 52.77c1.8,-1.63 5.22,-2.42 6.74,-3.94 1.49,-1.49 2.36,-4.96 3.94,-6.77 1.59,1.8 2.46,5.28 3.94,6.77 1.47,1.48 4.99,2.38 6.79,3.94 -1.81,1.56 -5.33,2.47 -6.8,3.94 -1.49,1.49 -2.35,4.98 -3.94,6.77 -1.58,-1.81 -2.46,-5.29 -3.94,-6.77 -1.51,-1.51 -4.95,-2.32 -6.75,-3.94zm-13.67 0c0,5.28 11.38,6.6 14.31,10.05 2.88,3.4 4.87,14.31 10.05,14.31 3.59,0 4.6,-3.61 5.92,-6.26 5,-10.02 2.16,-7.18 12.18,-12.18 2.65,-1.32 6.26,-2.33 6.26,-5.92 0,-5.43 -11.12,-6.95 -14.26,-10.09 -3.14,-3.14 -4.67,-14.26 -10.09,-14.26 -3.54,0 -4.4,3.72 -5.75,6.43 -1.1,2.21 -2.9,6.33 -4.3,7.88 -3.63,4.01 -14.3,4.45 -14.3,10.05z"/>
   <path class="fil2" d="M224.76 101.48c1.8,-1.63 5.22,-2.42 6.74,-3.94 1.49,-1.49 2.36,-4.96 3.94,-6.77 1.59,1.8 2.46,5.28 3.94,6.77 1.47,1.48 4.99,2.38 6.79,3.94 -1.81,1.56 -5.33,2.47 -6.8,3.94 -1.49,1.49 -2.35,4.98 -3.94,6.77 -1.58,-1.81 -2.46,-5.28 -3.94,-6.77 -1.51,-1.51 -4.95,-2.32 -6.75,-3.94zm-13.67 0c0,5.28 11.38,6.6 14.31,10.05 2.88,3.4 4.87,14.31 10.05,14.31 3.59,0 4.6,-3.61 5.92,-6.26 5.76,-11.54 1.84,-6.4 16.08,-14.36 1.5,-0.84 2.35,-1.63 2.35,-3.74 0,-5.43 -11.12,-6.95 -14.26,-10.09 -3.14,-3.14 -4.67,-14.26 -10.09,-14.26 -5.18,0 -6.4,10.74 -10,14.35 -3.95,3.95 -14.35,4.49 -14.35,10z"/>
   <path class="fil3" d="M204.62 150.55c34.14,-3.45 48.88,16.2 32.05,26.25 -5.04,3.01 -11.8,4.84 -18.8,5.52 -34.69,3.42 -49.1,-16.28 -32.37,-26.25 5.18,-3.09 11.98,-4.8 19.12,-5.53zm1.24 -4.21c-8.65,0.67 -17.85,2.72 -24.31,6.31 -27.3,15.13 0.26,36.38 34.81,33.9 37.06,-2.66 48.64,-26.72 16.36,-37.19 -7.85,-2.54 -18.01,-3.7 -26.86,-3.01z"/>
   <path class="fil0" d="M109.75 23.39c-3.02,1.62 6.08,13.99 15.86,16.43 6.08,1.52 26.93,1.86 31.64,-1.26l6.24 -18.17c-18.03,3.08 -20.77,4.57 -40.19,3.91 -3.79,-0.13 -10.48,-1.33 -13.55,-0.92z"/>
   <path class="fil4" d="M204.71 158.71c-6.89,0.79 -25.41,5.37 -14.51,11.38 18.39,10.14 56.01,0.55 41.79,-7.3 -7.36,-4.06 -18.07,-5.13 -27.28,-4.08z"/>
   <path class="fil2" d="M30.45 24.36c2.75,0.74 41.88,28.35 48.71,31.97 1.3,-2.46 3.04,-4.82 4.57,-7.1l-49.22 -32.48c-1.18,2.23 -3.85,5.12 -4.06,7.61z"/>
   <path class="fil2" d="M176.08 49.22c1.53,2.28 3.27,4.65 4.57,7.1l12.28 -8.02c3.29,-2.19 35.05,-23.95 36.94,-24.46 -1.53,-2.28 -3.27,-4.65 -4.57,-7.1 -8.95,4.74 -40.27,27.74 -49.22,32.48z"/>
   <path class="fil5" d="M157.25 38.57c-4.71,3.11 -25.56,2.78 -31.64,1.26 -9.78,-2.44 -18.88,-14.81 -15.86,-16.43l-13.32 -2.99 7.96 24.23 51.1 0.02 1.76 -6.09z"/>
   <path class="fil6" d="M121.83 198.91l4.01 -0 0 -34.16c-3.21,-1.27 -7.15,-3.47 -10.43,-5.12 -14.15,-7.11 -16.61,-17.08 -10.93,-31.76 -6,3.6 -9.69,16.11 -4.03,26.41 2.14,3.9 5.31,6.51 9.58,8.69 3.47,1.77 8.48,4.6 11.8,5.79l0 30.16z"/>
   <path class="fil0" d="M148.17 204.03c-1.16,1.69 -3.79,3.52 -5.97,4.63 -2.47,1.26 -5.15,1.93 -8.23,2.25l-0.01 4.24 -4.1 0 0 4.02c-1.48,0 -3.07,-0.11 -4.18,0.73 3.48,-0.06 17.27,3.42 28.62,3.41 0,-5.92 0.7,-22.58 -0.56,-24.49 -2.03,2.67 -4.21,3.45 -5.57,5.21z"/>
   <path class="fil7" d="M250.94 235.16c-0.11,-0.01 -0.27,0.01 -0.33,0.02 -1.73,0.4 -1.28,0.65 -2.8,1.96 -11.48,9.84 -34.67,11.83 -49.84,9.41 -7.77,-1.24 -10.97,-2.27 -14.15,-7.62 -2.48,-1.37 -4.72,-2.14 -7.16,-3.55 -2.25,-1.3 -4.23,-3.07 -6.15,-4.11 1.48,24.17 68.56,28.34 80.42,3.89z"/>
   <path class="fil7" d="M250.94 202.69c-1.39,-0.16 -2.3,1.26 -3.13,1.98 -0.99,0.85 -2.01,1.49 -3.33,2.27 -2.32,1.37 -4.77,2.64 -7.47,3.69 -11.95,4.66 -26.24,5.5 -39.04,3.45 -13.3,-2.12 -10.99,-4.76 -14.09,-7.27 -1.07,-1.34 -5.07,-2.66 -6.9,-3.71 -2.48,-1.43 -4.46,-3.2 -6.47,-4.29 1.47,24.13 68.49,28.37 80.43,3.9z"/>
   <path class="fil7" d="M250.92 218.74c-1.83,0.65 -0.63,0.03 -2.03,1.26 -0.76,0.66 -0.36,0.44 -1.3,1.21 -7.01,5.73 -19.38,8.87 -28.37,9.85 -6.56,0.71 -13.93,0.51 -20.38,-0.5 -11.86,-1.86 -9.72,-2.53 -14.68,-6.64 0.6,-0.6 -0.7,-0.84 0.91,-0.44 -1.65,-1.81 -5.31,-2.58 -7.44,-3.79 -2.69,-1.53 -4.95,-3.49 -7.11,-4.66 1.56,25.49 71.73,27.06 80.41,3.71z"/>
   <path class="fil7" d="M250.92 186.26c-3.48,1.24 -8.22,9.76 -31.71,12.32 -6.55,0.71 -13.95,0.51 -20.38,-0.5 -11.86,-1.86 -9.72,-2.52 -14.68,-6.64 0.6,-0.6 -0.7,-0.84 0.91,-0.44 -1.65,-1.81 -5.31,-2.58 -7.44,-3.79 -2.69,-1.53 -4.95,-3.49 -7.11,-4.66 1.56,25.48 71.73,27.07 80.41,3.71z"/>
   <polygon class="fil2" points="53.67,6.98 78.27,31.33 84.35,25.49 59.75,1.14 "/>
   <polygon class="fil2" points="175.69,25.49 181.26,31.35 206.14,6.72 200.31,1.14 "/>
   <path class="fil8" d="M97.82 56.43c5.11,0.89 61.02,0.88 64.1,-0.05l0.19 -3.16c-4.14,-1.05 -53.22,-0.44 -61.65,-0.44 -3.17,0 -3.34,1 -2.65,3.66z"/>
   <path class="fil8" d="M97.87 68.56c6.02,0.98 57.34,0.87 64.07,0.08l0.18 -3.25c-4.14,-1.05 -53.22,-0.44 -61.65,-0.44 -3.06,0 -3.33,1.08 -2.6,3.61z"/>
   <path class="fil5" d="M185.06 191c-1.61,-0.4 -0.31,-0.16 -0.91,0.44 4.96,4.11 2.82,4.78 14.68,6.64 6.43,1.01 13.84,1.21 20.38,0.5 23.49,-2.56 28.23,-11.07 31.71,-12.32l0.87 -3.68c-4.87,2.55 -4.44,3.81 -13.11,7.39 -10.73,4.43 -24.65,5.58 -36.3,4.42 -5.23,-0.52 -14.22,-3.37 -17.32,-3.39z"/>
   <path class="fil5" d="M185.06 223.48c-1.61,-0.4 -0.31,-0.16 -0.91,0.44 4.96,4.11 2.82,4.78 14.68,6.64 6.45,1.01 13.82,1.22 20.38,0.5 8.99,-0.98 21.36,-4.11 28.37,-9.85 0.94,-0.77 0.55,-0.55 1.3,-1.21 1.4,-1.23 0.21,-0.61 2.03,-1.26l0.87 -3.68c-2.26,1.18 -4.04,2.77 -6.27,4.08 -6.91,4.05 -15.2,6.42 -23.5,7.49 -21.23,2.74 -30.76,-3.11 -36.95,-3.15z"/>
   <path class="fil9" d="M183.88 206.8c3.1,2.51 0.78,5.15 14.09,7.27 12.8,2.04 27.09,1.21 39.04,-3.45 2.7,-1.05 5.15,-2.32 7.47,-3.69 1.32,-0.78 2.34,-1.42 3.33,-2.27 0.84,-0.72 1.74,-2.13 3.13,-1.98l0.88 -3.86c-2.28,1.17 -4.07,2.76 -6.3,4.07 -2.29,1.34 -4.48,2.37 -7.19,3.46 -10.95,4.41 -25.04,5.46 -36.85,4.18 -5.33,-0.58 -14.6,-3.69 -17.6,-3.74z"/>
   <path class="fil9" d="M183.82 238.93c3.18,5.35 6.38,6.38 14.15,7.62 15.17,2.42 38.36,0.44 49.84,-9.41 1.52,-1.3 1.08,-1.56 2.8,-1.96 0.06,-0.01 0.22,-0.03 0.33,-0.02l0.72 -3.89c-5.44,3.09 -5.09,4.36 -13.7,7.7 -4.93,1.91 -11.51,3.42 -17.28,4.05 -18.27,1.99 -22.69,-0.92 -36.86,-4.1z"/>
   <path class="fil0" d="M144.11 196.32c2.94,-4.35 2.49,-9.99 -0.03,-14.11 -1.99,-3.26 -5.77,-5.74 -10.12,-7.07l-0 23.78c3.54,0 8.62,-0.19 10.15,-2.6z"/>
   <path class="fil0" d="M112.77 131.28c-3.41,1.7 -3.8,9.59 -1.94,13.63 1.68,3.67 5.84,7.29 10.39,8.34 1.33,-1.8 0.61,-8.76 0.61,-11.17 0,-4.07 0,-8.15 0,-12.22 -4.72,0 -4.91,0.2 -9.06,1.42z"/>
   <path class="fil7" d="M107.41 14.47c1.83,-1.47 8.06,-1.77 10.5,-1.96 6.79,-0.54 30.88,-0.8 35.12,1.77 2.26,-0.31 6.28,-0.89 8.01,-2.29 -11.1,-2.89 -18.74,-3.88 -31.14,-3.88 -9.34,0 -23.74,0.75 -31.36,4.16l8.87 2.2z"/>
   <path class="fil6" d="M97.35 208.08c0.42,0.81 0.13,0.45 0.82,1.27 0.24,0.28 0.96,0.95 1.36,1.16 1.44,0.78 2.18,0.46 3.56,1.04 2.44,-1.56 14.79,-0.49 18.71,-0.49 0,1.63 0.29,4.63 -0.2,6.04 -0.61,1.76 0.68,-0.13 -0.8,1.21 0.57,0.48 0.02,0.27 1.17,0.66 0.88,0.3 0.5,0.13 1.34,0.3 1.61,0.32 0.63,-0.28 2.36,0.61 1.12,-0.84 2.7,-0.73 4.18,-0.73l0 -4.02 -4.01 0 0 -8.12c-5.41,0 -10.83,-0.02 -16.24,0 -7.45,0.04 -8.12,-0.66 -8.11,-8.08l-4.01 0 -0.13 9.13z"/>
   <path class="fil1" d="M13.67 52.77c1.79,1.62 5.23,2.43 6.75,3.94 1.49,1.49 2.36,4.96 3.94,6.77 1.59,-1.8 2.45,-5.29 3.94,-6.77 1.47,-1.47 4.99,-2.38 6.8,-3.94 -1.81,-1.56 -5.32,-2.47 -6.79,-3.94 -1.49,-1.49 -2.35,-4.97 -3.94,-6.77 -1.58,1.81 -2.45,5.28 -3.94,6.77 -1.52,1.52 -4.95,2.32 -6.74,3.94z"/>
   <path class="fil1" d="M224.76 101.48c1.79,1.62 5.23,2.43 6.75,3.94 1.49,1.49 2.36,4.96 3.94,6.77 1.59,-1.8 2.45,-5.29 3.94,-6.77 1.47,-1.47 4.99,-2.38 6.8,-3.94 -1.81,-1.56 -5.32,-2.47 -6.79,-3.94 -1.49,-1.49 -2.35,-4.97 -3.94,-6.77 -1.58,1.81 -2.45,5.28 -3.94,6.77 -1.52,1.52 -4.95,2.32 -6.74,3.94z"/>
   <path class="fil10" d="M107.41 14.47c9.56,2.05 36.68,2.92 45.62,-0.19 -4.25,-2.57 -28.33,-2.31 -35.12,-1.77 -2.44,0.19 -8.67,0.5 -10.5,1.96z"/>
   <path class="fil6" d="M133.96 175.14c4.35,1.33 8.13,3.81 10.12,7.07 2.52,4.13 2.97,9.76 0.03,14.11 4.86,-2.61 8.19,-10.11 4.53,-17.16 -2.39,-4.6 -8.81,-7.87 -14.59,-10.09l-0.1 6.07z"/>
   <path class="fil6" d="M112.77 131.28c4.14,-1.22 4.34,-1.42 9.06,-1.42 0,4.07 0,8.15 0,12.22 0,2.4 0.72,9.37 -0.61,11.17l4.49 2.51 0.14 -29.92c-6,0 -11.32,1.43 -13.08,5.44z"/>
   <path class="fil0" d="M120.8 218.32c1.48,-1.34 0.19,0.55 0.8,-1.21 0.49,-1.41 0.2,-4.41 0.2,-6.04 -3.92,0 -16.27,-1.07 -18.71,0.49 5.9,2.55 10.94,4.81 17.71,6.76z"/>
   <polygon class="fil6" points="133.96,129.86 138.07,129.86 138.06,133.92 146.07,133.92 146.09,129.9 142.08,129.9 142.08,125.84 133.96,125.84 "/>
   <path class="fil6" d="M133.97 210.91c3.08,-0.32 5.75,-0.98 8.23,-2.25 2.18,-1.11 4.81,-2.94 5.97,-4.63 -5.81,2.2 -6.79,3 -14.21,3l0.01 3.88z"/>
   <polygon class="fil6" points="121.83,117.78 125.84,117.71 125.84,113.71 121.83,113.71 "/>
  </g>
 </g>
</svg>
