<?xml version="1.0" encoding="UTF-8"?>
<!DOCTYPE svg PUBLIC "-//W3C//DTD SVG 1.1//EN" "http://www.w3.org/Graphics/SVG/1.1/DTD/svg11.dtd">
<!-- Creator: CorelDRAW 2020 (64-Bit) -->
<svg xmlns="http://www.w3.org/2000/svg" xml:space="preserve" width="9.8399mm" height="9.8781mm" version="1.1" style="shape-rendering:geometricPrecision; text-rendering:geometricPrecision; image-rendering:optimizeQuality; fill-rule:evenodd; clip-rule:evenodd"
viewBox="0 0 15.18 15.24"
 xmlns:xlink="http://www.w3.org/1999/xlink"
 xmlns:xodm="http://www.corel.com/coreldraw/odm/2003">
 <defs>
  <style type="text/css">
   <![CDATA[
    .fil0 {fill:black}
    .fil3 {fill:#26A599}
    .fil4 {fill:#C1EC56}
    .fil5 {fill:#E88604}
    .fil1 {fill:#FD816D}
    .fil2 {fill:#FFC729}
   ]]>
  </style>
 </defs>
 <g id="Capa_x0020_1">
  <metadata id="CorelCorpID_0Corel-Layer"/>
  <path class="fil0" d="M12.9 14.23l0.76 0 0 0.51 -0.76 0 -0 -0.51zm-2.28 -2.28l0.76 0 0 2.79 -0.76 0 0 -2.79zm-2.28 0l0.76 0 0 2.79 -0.76 0 0 -2.79zm-2.28 1.27l0.76 0 0 1.52 -0.76 0 0 -1.52zm-2.28 -2.28l0.76 0 0 3.8 -0.76 0 0 -3.8zm-2.28 -3.04l0.76 0 0 6.84 -0.76 0 0 -6.84zm-0.51 -0.13l0 6.97 -0.51 0 0 0.51 14.7 0 0 -0.51 -1.01 0c0,-1.18 0.17,-1.01 -1.39,-1.01 -0.48,0 -0.38,0.33 -0.38,1.01l-0.51 0 0 -2.91c0,-0.52 -0.44,-0.38 -1.39,-0.38 -0.28,0 -0.38,0.1 -0.38,0.38l0 2.91 -0.51 0 0 -2.91c0,-0.52 -0.44,-0.38 -1.39,-0.38 -0.28,0 -0.38,0.1 -0.38,0.38l0 2.91 -0.51 0 0 -1.65c0,-0.52 -0.44,-0.38 -1.39,-0.38 -0.28,0 -0.38,0.1 -0.38,0.38l0 1.65 -0.51 0 0 -3.93c0,-0.52 -0.44,-0.38 -1.39,-0.38 -0.28,0 -0.38,0.1 -0.38,0.38l0 3.93 -0.51 0 0 -6.97c0,-0.52 -0.44,-0.38 -1.39,-0.38 -0.28,0 -0.38,0.1 -0.38,0.38z"/>
  <path class="fil0" d="M2 4.47c0.2,0.13 3.11,3.09 3.37,3.35 1.33,1.33 1.12,1.27 1.79,0.59l1.68 -1.66 4 3.98c0.15,0.15 0.87,0.96 1.06,0.95 0.32,-0 0.26,-0.41 0.26,-0.75l0.51 0 -0 2.03 -2.03 0 0 -0.51c0.2,0 1.06,0.05 0.69,-0.43l-3.1 -3.11c-1.47,-1.47 -1.27,-1.5 -1.88,-0.89 -0.27,0.27 -1.61,1.65 -1.78,1.76 -0.18,-0.12 -2.52,-2.49 -2.74,-2.71 -0.47,-0.47 -0.91,-0.9 -1.37,-1.37 -0.29,-0.29 -0.4,-0.52 -0.78,-0.13 -0.18,0.18 -0.5,0.54 -0.7,0.68l-0.38 -0.4 1.4 -1.38zm0 1.52c0.21,0.14 0.62,0.6 0.83,0.81l3.36 3.36c0.47,0.48 0.57,0.17 0.95,-0.21 0.26,-0.26 1.53,-1.56 1.7,-1.68l3.66 3.64c-0.4,0.24 -0.37,-0.16 -0.37,1.17 0,0.28 0.1,0.38 0.38,0.38l2.28 0c0.28,0 0.38,-0.1 0.38,-0.38l0 -2.28c0,-0.49 -0.36,-0.38 -1.14,-0.38 -0.39,0 -0.28,0.15 -0.42,0.38 -0.14,-0.2 -3.87,-3.89 -4.32,-4.34 -0.58,-0.59 -0.45,-0.46 -1.84,0.93 -0.22,0.22 -0.68,0.73 -0.9,0.88 -0.21,-0.14 -3.97,-3.95 -4.25,-4.24 -0.39,-0.39 -0.49,-0.12 -1.16,0.55 -1.18,1.18 -1.42,1.14 -0.87,1.69 0.69,0.68 0.63,0.79 1.16,0.25 0.17,-0.17 0.37,-0.41 0.56,-0.54z"/>
  <path class="fil1" d="M0.6 5.85l0.38 0.4c0.2,-0.14 0.52,-0.49 0.7,-0.68 0.38,-0.39 0.49,-0.17 0.78,0.13 0.47,0.47 0.9,0.9 1.37,1.37 0.22,0.22 2.56,2.6 2.74,2.71 0.18,-0.12 1.51,-1.49 1.78,-1.76 0.61,-0.61 0.41,-0.58 1.88,0.89l3.1 3.11c0.37,0.49 -0.49,0.43 -0.69,0.43l-0 0.51 2.03 0 0 -2.03 -0.51 0c0,0.34 0.07,0.75 -0.26,0.75 -0.2,0 -0.92,-0.8 -1.06,-0.95l-4 -3.98 -1.68 1.66c-0.68,0.68 -0.47,0.74 -1.79,-0.59 -0.25,-0.25 -3.17,-3.22 -3.37,-3.35l-1.4 1.38z"/>
  <path class="fil2" d="M8.24 4.37c0.31,-0.13 0.49,0.35 0.2,0.46 -0.33,0.13 -0.49,-0.34 -0.2,-0.46zm-0.54 -1.41c-0.11,-0.76 -0.29,-1.14 0.26,-1.14 0.85,0 1.19,-0.11 1.12,0.43l-0.21 1.45c-0.06,0.44 -0.16,0.4 -0.66,0.4 -0.46,0 -0.38,-0.26 -0.51,-1.14zm-2.21 2.34c0.32,0.15 4.5,0.06 5.25,0.07 0.85,0 0.45,-0.41 -0.2,-1.45l-1.5 -2.47c-0.12,-0.2 -0.4,-0.71 -0.52,-0.83 -0.31,-0.32 -0.52,0.22 -0.66,0.44l-2.27 3.72c-0.13,0.2 -0.17,0.25 -0.1,0.52z"/>
  <path class="fil0" d="M5.49 5.29c-0.07,-0.27 -0.03,-0.32 0.1,-0.52l2.27 -3.72c0.14,-0.22 0.35,-0.77 0.66,-0.44 0.12,0.13 0.4,0.63 0.52,0.83l1.5 2.47c0.64,1.05 1.05,1.46 0.2,1.45 -0.76,-0 -4.93,0.08 -5.25,-0.07zm2.69 -5.26c-0.45,0.11 -0.56,0.44 -0.78,0.81l-2.4 3.94c-0.22,0.5 0.09,0.94 0.45,1.05 0.26,0.09 3.91,0.04 4.69,0.04 0.5,0 1.07,0.09 1.37,-0.23 0.34,-0.36 0.23,-0.72 0,-1.1l-2.39 -3.94c-0.18,-0.3 -0.42,-0.7 -0.95,-0.57z"/>
  <polygon class="fil3" points="1.5,14.73 2.26,14.73 2.26,7.89 1.5,7.89 "/>
  <polygon class="fil4" points="3.78,14.73 4.54,14.73 4.54,10.93 3.78,10.93 "/>
  <path class="fil0" d="M8.34 3.58c-0.14,-0.19 -0.18,-0.96 -0.21,-1.26l0.42 0c-0.03,0.28 -0.1,1.09 -0.21,1.26zm-0.13 0.51c0.5,0 0.6,0.04 0.66,-0.4l0.21 -1.45c0.07,-0.55 -0.27,-0.43 -1.12,-0.43 -0.55,0 -0.36,0.38 -0.26,1.14 0.13,0.88 0.04,1.14 0.51,1.14z"/>
  <polygon class="fil2" points="8.34,14.73 9.1,14.73 9.1,11.95 8.34,11.95 "/>
  <polygon class="fil2" points="10.62,14.73 11.38,14.73 11.38,11.95 10.62,11.95 "/>
  <polygon class="fil5" points="6.06,14.73 6.82,14.73 6.82,13.21 6.06,13.21 "/>
  <polygon class="fil1" points="12.9,14.73 13.66,14.73 13.66,14.23 12.9,14.23 "/>
  <path class="fil1" d="M8.34 3.58c0.11,-0.17 0.18,-0.98 0.21,-1.26l-0.42 0c0.03,0.3 0.08,1.07 0.21,1.26z"/>
  <path class="fil0" d="M8.24 4.37c-0.29,0.12 -0.13,0.59 0.2,0.46 0.29,-0.11 0.11,-0.59 -0.2,-0.46z"/>
 </g>
</svg>
