<svg id="Capa_1" data-name="Capa 1" xmlns="http://www.w3.org/2000/svg" viewBox="0 0 300 300"><defs><style>.cls-1{fill:#dcd6cf;}.cls-2{fill:#c7c2bc;}.cls-3{fill:#50b4cd;}.cls-4{fill:#2f2c7d;}.cls-5{fill:#f5a945;}.cls-6{fill:#101121;}</style></defs><title>Iconos_finales</title><path class="cls-1" d="M251.159,54.91A16.181,16.181,0,0,1,267.345,71.1v178.04a16.181,16.181,0,0,1-16.186,16.186H48.841a16.181,16.181,0,0,1-16.186-16.186V71.1A16.181,16.181,0,0,1,48.841,54.91Z"/><path class="cls-2" d="M48.841,265.322H251.159a16.181,16.181,0,0,0,16.186-16.186V161.565c-38.293,41.9-127.356,72.716-234.69,78.47v9.1A16.181,16.181,0,0,0,48.841,265.322Z"/><path class="cls-3" d="M105.49,111.559h32.371V143.93H105.49Z"/><path class="cls-3" d="M162.139,111.559H194.51V143.93H162.139Z"/><path class="cls-3" d="M218.788,111.559h32.371V143.93H218.788Z"/><path class="cls-3" d="M48.841,164.162H81.212v32.371H48.841Z"/><path class="cls-3" d="M105.49,164.162h32.371v32.371H105.49Z"/><path class="cls-3" d="M162.139,164.162H194.51v32.371H162.139Z"/><path class="cls-3" d="M218.788,164.162h32.371v32.371H218.788Z"/><path class="cls-3" d="M48.841,216.765H81.212v32.371H48.841Z"/><path class="cls-3" d="M105.49,216.765h32.371v32.371H105.49Z"/><path class="cls-3" d="M162.139,216.765H194.51v32.371H162.139Z"/><path class="cls-4" d="M267.345,95.374H32.655V71.1A16.186,16.186,0,0,1,48.841,54.91H251.159A16.186,16.186,0,0,1,267.345,71.1Z"/><path class="cls-5" d="M81.212,75.142a8.093,8.093,0,0,1-8.093-8.093V42.771a8.093,8.093,0,1,1,16.185,0V67.049A8.092,8.092,0,0,1,81.212,75.142Z"/><path class="cls-5" d="M125.722,75.142a8.093,8.093,0,0,1-8.093-8.093V42.771a8.093,8.093,0,1,1,16.185,0V67.049A8.092,8.092,0,0,1,125.722,75.142Z"/><path class="cls-5" d="M174.278,75.142a8.092,8.092,0,0,1-8.092-8.093V42.771a8.093,8.093,0,1,1,16.185,0V67.049A8.093,8.093,0,0,1,174.278,75.142Z"/><path class="cls-5" d="M218.788,75.142a8.092,8.092,0,0,1-8.092-8.093V42.771a8.093,8.093,0,1,1,16.185,0V67.049A8.093,8.093,0,0,1,218.788,75.142Z"/><path class="cls-6" d="M48.841,269.368H251.159a20.255,20.255,0,0,0,20.232-20.232V71.1a20.255,20.255,0,0,0-20.232-20.232H230.928V42.771a12.14,12.14,0,0,0-24.279,0v8.093H186.417V42.771a12.139,12.139,0,0,0-24.278,0v8.093H137.861V42.771a12.139,12.139,0,1,0-24.278,0v8.093H93.351V42.771a12.14,12.14,0,0,0-24.279,0v8.093H48.841A20.255,20.255,0,0,0,28.609,71.1v178.04A20.255,20.255,0,0,0,48.841,269.368Zm202.318-8.093H48.841A12.153,12.153,0,0,1,36.7,249.136V99.42H263.3V249.136A12.153,12.153,0,0,1,251.159,261.275Zm-36.417-218.5a4.047,4.047,0,0,1,8.093,0V67.049a4.047,4.047,0,1,1-8.093,0Zm-44.51,0a4.047,4.047,0,0,1,8.093,0V67.049a4.047,4.047,0,1,1-8.093,0Zm-48.557,0a4.047,4.047,0,0,1,8.093,0V67.049a4.047,4.047,0,1,1-8.093,0Zm-44.51,0a4.047,4.047,0,0,1,8.093,0V67.049a4.047,4.047,0,1,1-8.093,0ZM48.841,58.956H69.072v8.093a12.14,12.14,0,0,0,24.279,0V58.956h20.232v8.093a12.139,12.139,0,1,0,24.278,0V58.956h24.278v8.093a12.139,12.139,0,0,0,24.278,0V58.956h20.232v8.093a12.14,12.14,0,0,0,24.279,0V58.956h20.231A12.154,12.154,0,0,1,263.3,71.1V91.328H36.7V71.1A12.154,12.154,0,0,1,48.841,58.956Z"/><path class="cls-6" d="M137.861,107.513H105.49a4.044,4.044,0,0,0-4.047,4.046V143.93a4.045,4.045,0,0,0,4.047,4.047h32.371a4.044,4.044,0,0,0,4.046-4.047V111.559A4.044,4.044,0,0,0,137.861,107.513Zm-4.047,32.371H109.536V115.606h24.278Z"/><path class="cls-6" d="M194.51,107.513H162.139a4.044,4.044,0,0,0-4.046,4.046V143.93a4.044,4.044,0,0,0,4.046,4.047H194.51a4.045,4.045,0,0,0,4.047-4.047V111.559A4.044,4.044,0,0,0,194.51,107.513Zm-4.046,32.371H166.186V115.606h24.278Z"/><path class="cls-6" d="M251.159,107.513H218.788a4.044,4.044,0,0,0-4.046,4.046V143.93a4.044,4.044,0,0,0,4.046,4.047h32.371a4.045,4.045,0,0,0,4.047-4.047V111.559A4.044,4.044,0,0,0,251.159,107.513Zm-4.046,32.371H222.835V115.606h24.278Z"/><path class="cls-6" d="M81.212,160.116H48.841a4.044,4.044,0,0,0-4.047,4.046v32.371a4.045,4.045,0,0,0,4.047,4.047H81.212a4.044,4.044,0,0,0,4.046-4.047V164.162A4.044,4.044,0,0,0,81.212,160.116ZM59.3,180.348l-6.417,6.417V173.931Zm-.7-12.139H71.443l-6.417,6.417Zm6.417,17.861,6.417,6.417H58.609Zm5.722-5.722,6.417-6.417v12.834Z"/><path class="cls-6" d="M137.861,160.116H105.49a4.044,4.044,0,0,0-4.047,4.046v32.371a4.045,4.045,0,0,0,4.047,4.047h32.371a4.044,4.044,0,0,0,4.046-4.047V164.162A4.044,4.044,0,0,0,137.861,160.116Zm-21.907,20.232-6.418,6.417V173.931Zm-.7-12.139h12.835l-6.418,6.417Zm6.417,17.861,6.418,6.417H115.258Zm5.722-5.722,6.417-6.417v12.834Z"/><path class="cls-6" d="M194.51,160.116H162.139a4.044,4.044,0,0,0-4.046,4.046v32.371a4.044,4.044,0,0,0,4.046,4.047H194.51a4.045,4.045,0,0,0,4.047-4.047V164.162A4.044,4.044,0,0,0,194.51,160.116ZM172.6,180.348l-6.417,6.417V173.931Zm-.7-12.139h12.835l-6.417,6.417Zm6.418,17.861,6.417,6.417H171.907Zm5.721-5.722,6.418-6.417v12.834Z"/><path class="cls-6" d="M251.159,160.116H218.788a4.044,4.044,0,0,0-4.046,4.046v32.371a4.044,4.044,0,0,0,4.046,4.047h32.371a4.045,4.045,0,0,0,4.047-4.047V164.162A4.044,4.044,0,0,0,251.159,160.116Zm-4.046,32.371H222.835V168.209h24.278Z"/><path class="cls-6" d="M81.212,212.719H48.841a4.044,4.044,0,0,0-4.047,4.046v32.371a4.045,4.045,0,0,0,4.047,4.047H81.212a4.044,4.044,0,0,0,4.046-4.047V216.765A4.044,4.044,0,0,0,81.212,212.719ZM77.165,245.09H52.887V220.812H77.165Z"/><path class="cls-6" d="M137.861,212.719H105.49a4.044,4.044,0,0,0-4.047,4.046v32.371a4.045,4.045,0,0,0,4.047,4.047h32.371a4.044,4.044,0,0,0,4.046-4.047V216.765A4.044,4.044,0,0,0,137.861,212.719Zm-4.047,32.371H109.536V220.812h24.278Z"/><path class="cls-6" d="M194.51,212.719H162.139a4.044,4.044,0,0,0-4.046,4.046v32.371a4.044,4.044,0,0,0,4.046,4.047H194.51a4.045,4.045,0,0,0,4.047-4.047V216.765A4.044,4.044,0,0,0,194.51,212.719Zm-4.046,32.371H166.186V220.812h24.278Z"/></svg>