<?xml version="1.0" encoding="UTF-8"?>
<!DOCTYPE svg PUBLIC "-//W3C//DTD SVG 1.1//EN" "http://www.w3.org/Graphics/SVG/1.1/DTD/svg11.dtd">
<!-- Creator: CorelDRAW 2020 (64-Bit) -->
<svg xmlns="http://www.w3.org/2000/svg" xml:space="preserve" width="99.4573mm" height="99.4577mm" version="1.1" style="shape-rendering:geometricPrecision; text-rendering:geometricPrecision; image-rendering:optimizeQuality; fill-rule:evenodd; clip-rule:evenodd"
viewBox="0 0 49.1 49.1"
 xmlns:xlink="http://www.w3.org/1999/xlink"
 xmlns:xodm="http://www.corel.com/coreldraw/odm/2003">
 <defs>
  <style type="text/css">
   <![CDATA[
    .fil1 {fill:black}
    .fil6 {fill:#147CD1}
    .fil0 {fill:#2196F3}
    .fil8 {fill:#488089}
    .fil7 {fill:#5594A0}
    .fil4 {fill:#9F6E50}
    .fil3 {fill:#B47E5F}
    .fil9 {fill:#E9EDF1}
    .fil5 {fill:#F1BB88}
    .fil10 {fill:#F7F8F8}
    .fil2 {fill:#FEDEC4}
   ]]>
  </style>
 </defs>
 <g id="Capa_x0020_1">
  <metadata id="CorelCorpID_0Corel-Layer"/>
  <circle class="fil0" cx="24.55" cy="24.55" r="24.55"/>
  <g id="_1704108141744">
   <path class="fil1" d="M27.18 31.11c0.26,2.71 0.32,2.58 2.54,3.25 0.35,0.11 1.2,0.33 1.46,0.49 -0.34,0.81 -1.81,1.08 -1.55,1.95 0.24,0.17 0.4,0.3 0.78,0.07 0.76,-0.45 1.26,-1.09 1.81,-1.71 1.27,0.24 2.18,0.81 2.72,1.65 0.33,0.51 0.45,0.97 0.56,1.64l0.25 1.39c0,0.01 0.03,0.22 0.03,0.22 0.01,0.26 0.05,0.08 -0.05,0.26 -0.31,0.16 -19.92,0.06 -22.1,0.06 -1.11,0 -0.92,0.17 -0.57,-1.86 0.31,-1.8 1.14,-2.95 3.3,-3.35 0.19,0.22 0.3,0.35 0.45,0.59 0.16,0.02 0.09,0.02 0.23,0.16 2.69,2.6 6.92,3.23 10.4,2.28 0.59,-0.16 1.18,-0.2 1.01,-0.89 -0.36,-0.59 -1.04,0.01 -2.65,0.22 -1.04,0.14 -2.15,0.13 -3.2,-0.02 -1.01,-0.15 -1.83,-0.41 -2.68,-0.76 -0.63,-0.26 -1.83,-0.97 -2.03,-1.4 -0.2,-0.11 -0.4,-0.28 -0.5,-0.5 0.63,-0.4 2.53,-0.65 3.14,-1.08 0.48,-0.34 0.61,-0.69 0.7,-1.45 0.08,-0.61 0.16,-1.23 0.23,-1.83 0.85,0.31 1.76,1.05 2.88,0.98 1.04,-0.06 1.94,-0.71 2.74,-1.05l0.09 0.68zm-2.87 -23.04l1.95 0c1.9,0 3.33,0.72 4.39,1.57 0.49,0.39 1.1,1.01 1.45,1.54 1.64,2.46 1.29,4.48 1.29,7.68 0.99,0 2,0.59 2.36,1.41 0.24,0.53 -0.09,0.64 -0.22,0.78 -0.91,-0.03 -0.51,-0.52 -1.24,-0.92l-0.79 4.32 -0.08 0.45c0.48,-0.07 0.8,-0.32 0.94,-0.65 0.12,-0.05 0.19,-0.25 0.23,-0.42 0.06,-0.21 0.08,-0.43 0.12,-0.66 0.1,-0.58 0.06,-0.85 0.68,-0.87 0.58,0.27 0.38,0.54 0.28,1.12 -0.09,0.53 -0.14,0.86 -0.36,1.26 -0.2,0.37 -0.44,0.61 -0.79,0.84 -0.59,0.39 -0.97,0.33 -1.14,0.42 -0.29,0.16 -0.01,-0.01 -0.26,0.58 -0.26,0.58 -0.51,0.98 -1.07,1.34 -0.11,0.07 -0.48,0.27 -0.52,0.32 -0.08,0.09 -0.37,1.05 -1.27,1.07 0.01,0.57 0.52,1.21 0.52,4.42 0.24,0.02 0.46,0.13 0.66,0.18 0.87,0.24 2.3,0.67 2.99,1.11 1.7,1.07 1.89,2.47 2.22,4.35 0.11,0.62 0.36,1.96 -0.94,2.03l-9.19 0 -13.8 -0.01c-0.39,-0.05 -0.75,-0.4 -0.87,-0.75 -0.16,-0.48 0.25,-2.39 0.35,-2.88 0.16,-0.81 0.59,-1.55 1.15,-2.1 1.47,-1.46 3.23,-1.39 4.5,-2 -0.01,-0.02 -0.43,-2.02 0.52,-1.93 0.7,0.19 0.35,0.93 0.45,1.65l0.79 -0.24c0.15,-0.07 0.06,-0.02 0.14,-0.08 0.59,0.01 0.53,-0.85 0.6,-1.39 0.07,-0.52 0.2,-1.24 0.2,-1.75l-0.42 -0.26c-0.01,-0.01 -0.03,-0.05 -0.03,-0.04 -0.01,0.01 -0.03,-0.03 -0.03,-0.04l-0.52 -0.46c-0.43,0.45 -0.09,1.34 -0.98,1.35 -0.54,-0.24 -0.4,-0.47 -0.25,-1.02l0.44 -1.12c-0.51,-0.76 -1.22,-1.74 -1.43,-2.67l-1.61 0.28c-0.58,0.09 -1.02,-0.03 -1.47,-0.26 -1.04,-0.53 -1.2,-1.36 -1.38,-2.33 -0.18,-0.98 -0.52,-2.27 -0,-3.13 0.25,-0.41 0.5,-0.7 0.89,-0.93 0.3,-0.18 0.95,-0.39 1.43,-0.39 0,-1.23 -0.12,-2.72 0.07,-3.83 0.11,-0.67 0.23,-0.94 0.46,-1.49 0.18,-0.44 0.48,-1.01 1.02,-0.72 0.51,0.88 -0.3,0.69 -0.52,2.53 -0.11,0.93 -0.04,2.39 -0.04,3.38 0.37,0.09 0.42,0.13 0.69,0.31l0.36 0.44c0.76,-1.03 2.24,-2 3.43,-3.64 0.49,-0.67 0.95,-1.41 1.35,-2.23 0.52,-1.09 0.12,-0.5 -0.11,-2.03 -0.02,-0.14 -0.03,-0.28 -0.05,-0.42l-0.05 -0.26c-0.01,-0.01 -0.02,-0.04 -0.02,-0.05 -0.13,-0.35 -1.72,0.06 -1.94,0.11 -0.46,0.17 -0.77,0.32 -1.15,0.56 -0.44,0.28 -0.53,0.61 -1.16,0.33 -0.15,-0.23 -0.22,-0.39 -0.02,-0.67 0.1,-0.14 0.32,-0.28 0.46,-0.38 0.95,-0.7 3.09,-1.39 3.98,-0.96 0.07,-0.32 0.37,-0.77 0.57,-0.99 0.48,-0.52 1.12,-0.7 1.8,-0.76zm3.68 21.7c0.49,-0.28 0.31,-0.48 1.04,-0.48 0.32,0 0.57,1.53 0.62,1.83 0.12,0.71 0.15,1.46 0.13,2.2 -0.21,-0.01 -0.8,-0.2 -1.01,-0.28 -0.45,-0.17 -0.41,-0.4 -0.47,-0.89 -0.1,-0.79 -0.23,-1.6 -0.29,-2.38zm2.17 -2.37c0.28,0.02 0.32,0.1 0.38,0.43 -0.14,0.64 -0.66,0.48 -1.33,0.48 -0.46,-0 -1.29,0.12 -1.51,-0.22 -0.71,-1.14 2.41,-0.73 2.45,-0.69zm1.2 -0.29c-0.21,-0.31 -0.28,-0.38 -0.59,-0.59l0.46 -0.91c0.29,0.01 0.77,0.13 1.04,0.19 -0.04,0.5 -0.45,1.06 -0.91,1.3zm-17.46 -6.63c0.03,-0.17 -0.03,-0.11 0.17,-0.26 0.07,-0.06 0.13,-0.08 0.22,-0.1 0.13,0.69 0.71,3.53 0.66,4.01 0.12,0.16 0.15,0.52 0.17,0.77 -0.98,-0.19 -1.14,-0.87 -1.32,-1.89 -0.12,-0.66 -0.55,-2.12 0.09,-2.52zm3.51 0.87c-0.33,-0.49 0.14,-0.94 0.35,-1.15 1.37,-1.31 2.87,-2.64 3.94,-4.19 0.22,-0.32 0.43,-0.63 0.63,-0.99 0.22,-0.38 0.37,-0.71 0.56,-1.05 0.35,0.27 0.24,0.39 0.88,0.89 0.33,0.26 0.59,0.45 1,0.69 0.71,0.42 1.58,0.73 2.43,1.02 1.76,0.59 3.54,1.22 3.88,2.99 0.55,1.27 -0.57,6.17 -1.41,6.79 -1.02,0 -2.12,-0.16 -2.67,0.49 -0.39,0.47 -0.5,1.21 -0.1,1.8 0.06,0.09 0.09,0.13 0.17,0.21l0.21 0.2c-0.49,0.5 -2.52,1.67 -3.62,1.33 -1.1,-0.34 -2.6,-1.27 -3.22,-1.85 -0.96,-0.89 -1.47,-1.45 -2.11,-3.03 -0.34,-0.84 -1.04,-3.19 -0.92,-4.16zm15.13 2.94l-0.11 0.53 -0.87 -0.17c0.51,-2.35 0.46,-1.74 0.65,-4.11 0.09,-1.09 0.25,-0.86 0.69,-0.79l0.42 0.07 -0.78 4.46zm-15.77 -0.27c0.13,0.12 0.21,0.5 0.18,0.65l-0.83 0.12 -0.11 -0.51 -0.77 -4.46c0.31,-0.04 0.69,-0.18 0.93,-0.08 0.3,0.55 0.2,1.51 0.28,2.2 0.06,0.53 0.34,1.71 0.32,2.08zm6.78 -14.74c0.52,-0.38 2.69,-0.29 3.45,-0.18 1.9,0.27 3.54,1.4 4.49,2.99 0.31,0.51 1.03,2.1 0.82,2.84 0.01,0.02 0.02,0.04 0.02,0.05 0,0.01 0.01,0.04 0.02,0.05 0.1,0.38 -0.04,-0.31 0.03,0.11 0.01,0.07 0.01,0.19 0.01,0.26l-0.01 3.3 -0.5 0.16c-0.76,-2.46 -3.94,-2.92 -5.96,-3.8 -1.78,-0.77 -2.95,-2.15 -3.12,-4.16 -0.07,-0.86 0.25,-1.3 0.75,-1.62z"/>
   <path class="fil2" d="M23.51 27.83c-0.28,-0.89 1.43,-0.89 1.56,-0.32 0.19,0.85 -1.41,0.81 -1.56,0.32zm-0.59 -3.32c-0.09,-0.33 0.08,-0.58 0.35,-0.63 0.29,-0.05 0.5,0.15 0.82,0.19 0.64,0.07 1.4,-0.53 1.56,0.13 0.27,1.08 -2.52,1.05 -2.73,0.31zm4.47 -3.67c0.5,-0.24 0.7,0.22 0.7,0.68 0,0.42 0.09,1.01 -0.32,1.15 -0.91,0.3 -0.82,-1.61 -0.38,-1.83zm-6.74 0.01c0.87,-0.5 0.88,1.55 0.47,1.78 -0.46,0.26 -0.73,-0.14 -0.75,-0.59 -0.01,-0.49 -0.1,-0.97 0.28,-1.19zm-3.22 0.5c-0.13,0.97 0.57,3.32 0.92,4.16 0.64,1.57 1.15,2.14 2.11,3.03 0.63,0.58 2.13,1.51 3.22,1.85 1.11,0.34 3.14,-0.83 3.62,-1.33l-0.21 -0.2c-0.08,-0.08 -0.11,-0.13 -0.17,-0.21 -0.4,-0.59 -0.29,-1.33 0.1,-1.8 0.54,-0.65 1.65,-0.49 2.67,-0.49 0.84,-0.62 1.96,-5.52 1.41,-6.79 -0.29,-0.28 -0.33,-0.41 -0.79,-0.82 -1.4,-1.23 -4.45,-1.54 -6.29,-2.94 -0.7,-0.53 -0.54,-0.56 -1,-0.54l-1.24 1.72c-0.55,0.69 -1.44,1.75 -2.13,2.29l-1.18 1.03c-0.21,0.16 -0.98,0.86 -1.05,1.04z"/>
   <path class="fil0" d="M29.62 36.81c-0.36,0.14 -0.75,0.46 -1.17,0.51 0.17,0.68 -0.42,0.73 -1.01,0.89 -3.48,0.95 -7.71,0.32 -10.4,-2.28 -0.14,-0.13 -0.07,-0.14 -0.23,-0.16 -0.4,-0.11 -1.09,0.35 -1.35,0.53 -0.39,0.27 -0.69,0.61 -0.96,1 -0.57,0.83 -0.72,1.95 -0.87,3.09 2.19,0.01 21.8,0.1 22.1,-0.06 0.1,-0.18 0.06,0 0.05,-0.26 -0,-0 -0.03,-0.21 -0.03,-0.22l-0.25 -1.39c-0.12,-0.67 -0.24,-1.13 -0.56,-1.64 -0.54,-0.84 -1.45,-1.41 -2.72,-1.65 -0.56,0.61 -1.06,1.25 -1.81,1.71 -0.38,0.23 -0.54,0.1 -0.78,-0.07z"/>
   <path class="fil2" d="M17.89 35.35c0.2,0.43 1.4,1.13 2.03,1.4 0.85,0.36 1.67,0.61 2.68,0.76 1.04,0.15 2.15,0.16 3.2,0.02 1.61,-0.21 2.29,-0.81 2.65,-0.22 0.42,-0.05 0.82,-0.37 1.17,-0.51 -0.26,-0.87 1.22,-1.14 1.55,-1.95 -0.26,-0.16 -1.1,-0.38 -1.46,-0.49 -2.22,-0.67 -2.28,-0.54 -2.54,-3.25 -0.55,0.19 -1.27,0.82 -2.48,1.11 -1.17,0.28 -2.2,-0.72 -2.66,-0.46 -0.25,0.33 -0.21,1.17 -0.28,1.66 -0.11,0.66 -0.36,0.79 -0.96,0.99 -0.49,0.16 -2.64,0.77 -2.9,0.94z"/>
   <path class="fil3" d="M23.56 9.29c-0.25,2.23 1.26,4.21 3.28,5.13 1.65,0.75 3.75,1.08 4.98,2.3 0.14,0.14 0.42,0.39 0.46,0.56 0.04,-0.65 -0.09,-1.79 0.05,-2.34 0.21,-0.75 -0.52,-2.33 -0.82,-2.84 -0.96,-1.59 -2.59,-2.72 -4.49,-2.99 -0.76,-0.11 -2.93,-0.2 -3.45,0.18z"/>
   <path class="fil3" d="M19.83 10.95c-0.12,0.2 -0.58,0.49 -0.75,0.63 -0.47,0.37 -1.43,1.71 -1.7,2.39 -0.65,1.61 -0.3,3.31 -0.51,5.05l0.36 0.44c0.76,-1.03 2.24,-2 3.43,-3.64 0.49,-0.67 0.95,-1.41 1.35,-2.23 0.52,-1.09 0.12,-0.5 -0.11,-2.03 -0.02,-0.14 -0.03,-0.28 -0.05,-0.42l-0.05 -0.26c-0.01,-0.01 -0.02,-0.04 -0.02,-0.05 -0.13,-0.35 -1.72,0.06 -1.94,0.11z"/>
   <path class="fil4" d="M32.33 14.94c-0.14,0.55 -0.01,1.69 -0.05,2.34 -0.04,-0.17 -0.32,-0.43 -0.46,-0.56 -1.23,-1.22 -3.33,-1.54 -4.98,-2.3 -2.02,-0.92 -3.53,-2.9 -3.28,-5.13 -0.5,0.32 -0.82,0.77 -0.75,1.62 0.16,2.01 1.33,3.38 3.12,4.16 2.02,0.88 5.2,1.34 5.96,3.8l0.5 -0.16 0.01 -3.3c-0,-0.07 -0,-0.19 -0.01,-0.26 -0.06,-0.42 0.07,0.26 -0.03,-0.11 -0,-0.02 -0.01,-0.04 -0.02,-0.05 -0,-0.01 -0.01,-0.04 -0.02,-0.05z"/>
   <path class="fil5" d="M17.42 21.36c0.07,-0.17 0.84,-0.87 1.05,-1.04l1.18 -1.03c0.69,-0.54 1.58,-1.6 2.13,-2.29l1.24 -1.72c0.45,-0.02 0.3,0.01 1,0.54 1.84,1.4 4.89,1.71 6.29,2.94 0.46,0.41 0.49,0.54 0.79,0.82 -0.35,-1.76 -2.12,-2.39 -3.88,-2.99 -0.85,-0.29 -1.72,-0.6 -2.43,-1.02 -0.41,-0.24 -0.66,-0.43 -1,-0.69 -0.65,-0.5 -0.54,-0.62 -0.88,-0.89 -0.19,0.34 -0.34,0.66 -0.56,1.05 -0.21,0.36 -0.42,0.68 -0.63,0.99 -1.07,1.56 -2.56,2.88 -3.94,4.19 -0.21,0.2 -0.68,0.65 -0.35,1.15z"/>
   <path class="fil5" d="M17.89 35.35c0.26,-0.17 2.41,-0.78 2.9,-0.94 0.61,-0.2 0.86,-0.32 0.96,-0.99 0.08,-0.49 0.04,-1.33 0.28,-1.66 0.46,-0.27 1.5,0.74 2.66,0.46 1.2,-0.29 1.93,-0.91 2.48,-1.11l-0.09 -0.68c-0.8,0.34 -1.7,0.98 -2.74,1.05 -1.12,0.07 -2.03,-0.67 -2.88,-0.98 -0.06,0.61 -0.15,1.23 -0.23,1.83 -0.1,0.76 -0.22,1.1 -0.7,1.45 -0.61,0.44 -2.51,0.68 -3.14,1.08 0.1,0.22 0.3,0.38 0.5,0.5z"/>
   <path class="fil4" d="M17.52 11.84c-0.17,0.11 -0.66,0.76 -0.79,0.98 0.51,0.88 -0.3,0.69 -0.52,2.53 -0.11,0.93 -0.04,2.39 -0.04,3.38 0.37,0.09 0.42,0.13 0.69,0.31 0.21,-1.74 -0.14,-3.44 0.51,-5.05 0.27,-0.68 1.23,-2.02 1.7,-2.39 0.17,-0.14 0.63,-0.43 0.75,-0.63 -0.46,0.17 -0.77,0.32 -1.15,0.56 -0.44,0.28 -0.53,0.61 -1.16,0.33z"/>
   <path class="fil6" d="M13.63 40.38c0.15,-1.13 0.31,-2.26 0.87,-3.09 0.26,-0.38 0.56,-0.72 0.96,-1 0.27,-0.19 0.95,-0.65 1.35,-0.53 -0.16,-0.24 -0.26,-0.38 -0.45,-0.59 -2.15,0.4 -2.98,1.55 -3.3,3.35 -0.35,2.03 -0.54,1.86 0.57,1.86z"/>
   <path class="fil3" d="M27.99 29.77c0.07,0.78 0.2,1.59 0.29,2.38 0.06,0.49 0.03,0.72 0.47,0.89 0.22,0.08 0.81,0.28 1.01,0.28 0.03,-0.75 -0.01,-1.49 -0.13,-2.2 -0.05,-0.3 -0.3,-1.83 -0.62,-1.83 -0.73,0 -0.55,0.2 -1.04,0.48z"/>
   <path class="fil7" d="M33.5 24.45c0.4,-0.02 0.5,-0.05 0.86,-0.2 0.12,-0.05 0.19,-0.25 0.23,-0.42 0.06,-0.21 0.08,-0.43 0.12,-0.66 0.1,-0.58 0.06,-0.85 0.68,-0.87 0.01,-0.43 0.13,-0.7 0.13,-1.26 -0.91,-0.03 -0.51,-0.52 -1.24,-0.92l-0.79 4.32z"/>
   <path class="fil7" d="M16.02 24.3l0.72 -0.1 0.03 -0.16c0.02,-0.37 -0.27,-1.55 -0.32,-2.08 -0.08,-0.69 0.02,-1.64 -0.28,-2.2 -0.24,-0.09 -0.62,0.04 -0.93,0.08l0.77 4.46z"/>
   <path class="fil4" d="M18.56 30.42c-0.1,0.23 -0.2,0.91 -0.2,1.26 0.7,0.19 0.35,0.93 0.45,1.65l0.79 -0.24c0.15,-0.07 0.06,-0.02 0.14,-0.08 -0.26,0.09 -0.06,0.04 -0.15,-0.04 -0.01,-0.68 0.18,-2.94 0.53,-3.35 -0.01,-0.01 -0.03,-0.05 -0.03,-0.04 -0.01,0.01 -0.03,-0.03 -0.03,-0.04l-0.52 -0.46c-0.43,0.45 -0.09,1.34 -0.98,1.35z"/>
   <path class="fil1" d="M22.92 24.52c0.21,0.74 3,0.77 2.73,-0.31 -0.16,-0.66 -0.92,-0.06 -1.56,-0.13 -0.33,-0.04 -0.53,-0.23 -0.82,-0.19 -0.27,0.05 -0.44,0.3 -0.35,0.63z"/>
   <path class="fil8" d="M32.55 24.3c-0.61,-0.1 -0.37,-0.42 -0.28,-0.96 0.07,-0.38 0.14,-0.77 0.2,-1.15 0.14,-0.8 0.32,-1.61 0.43,-2.42 -0.45,-0.07 -0.6,-0.3 -0.69,0.79 -0.19,2.37 -0.14,1.75 -0.65,4.11l0.87 0.17 0.11 -0.53z"/>
   <path class="fil8" d="M14.96 24.14c-0.08,0.17 0.01,0.09 -0.11,0.11 -0.49,-0.4 -0.5,-0.93 -0.63,-1.77 -0.08,-0.47 -0.34,-1.59 -0.3,-2 -0.65,0.4 -0.21,1.86 -0.09,2.52 0.18,1.02 0.34,1.71 1.32,1.89 -0.03,-0.24 -0.05,-0.61 -0.17,-0.77z"/>
   <path class="fil3" d="M19.75 33.01c0.59,0.01 0.53,-0.85 0.6,-1.39 0.07,-0.52 0.2,-1.24 0.2,-1.75l-0.42 -0.26c-0.35,0.42 -0.54,2.67 -0.53,3.35 0.08,0.08 -0.11,0.13 0.15,0.04z"/>
   <path class="fil7" d="M13.91 20.49c-0.03,0.4 0.22,1.52 0.3,2 0.14,0.84 0.14,1.37 0.63,1.77 0.12,-0.02 0.04,0.05 0.11,-0.11 0.05,-0.48 -0.53,-3.32 -0.66,-4.01 -0.09,0.03 -0.14,0.05 -0.22,0.1 -0.2,0.15 -0.14,0.09 -0.17,0.26z"/>
   <path class="fil7" d="M32.55 24.3l0.78 -4.46 -0.42 -0.07c-0.12,0.81 -0.29,1.62 -0.43,2.42 -0.07,0.38 -0.14,0.77 -0.2,1.15 -0.09,0.54 -0.33,0.86 0.28,0.96z"/>
   <path class="fil9" d="M30.55 27.83c-0.46,0 -0.94,0.01 -1.39,0 -0.76,-0.02 -0.71,-0.27 -0.93,-0.39l1.94 -0.04c-0.04,-0.03 -3.16,-0.45 -2.45,0.69 0.21,0.34 1.05,0.22 1.51,0.22 0.66,0 1.19,0.15 1.33,-0.48z"/>
   <path class="fil1" d="M20.64 20.86c-0.38,0.22 -0.29,0.71 -0.28,1.19 0.01,0.46 0.29,0.85 0.75,0.59 0.42,-0.24 0.41,-2.29 -0.47,-1.78z"/>
   <path class="fil1" d="M27.38 20.85c-0.44,0.22 -0.53,2.13 0.38,1.83 0.41,-0.14 0.32,-0.73 0.32,-1.15 -0,-0.45 -0.2,-0.92 -0.7,-0.68z"/>
   <path class="fil1" d="M23.51 27.83c0.15,0.49 1.75,0.53 1.56,-0.32 -0.13,-0.57 -1.84,-0.57 -1.56,0.32z"/>
   <path class="fil10" d="M30.55 27.83c-0.06,-0.32 -0.1,-0.41 -0.38,-0.43l-1.94 0.04c0.23,0.12 0.17,0.37 0.93,0.39 0.46,0.01 0.93,-0 1.39,-0z"/>
   <path class="fil8" d="M16.02 24.3l0.11 0.51 0.83 -0.12c0.03,-0.16 -0.05,-0.53 -0.18,-0.65l-0.03 0.16 -0.72 0.1z"/>
   <path class="fil8" d="M33.5 24.45l-0.08 0.45c0.48,-0.07 0.8,-0.32 0.94,-0.65 -0.36,0.14 -0.46,0.18 -0.86,0.2z"/>
  </g>
 </g>
</svg>
