<?xml version="1.0" encoding="UTF-8" standalone="no"?>
<svg
   xmlns:dc="http://purl.org/dc/elements/1.1/"
   xmlns:cc="http://creativecommons.org/ns#"
   xmlns:rdf="http://www.w3.org/1999/02/22-rdf-syntax-ns#"
   xmlns:svg="http://www.w3.org/2000/svg"
   xmlns="http://www.w3.org/2000/svg"
   xmlns:sodipodi="http://sodipodi.sourceforge.net/DTD/sodipodi-0.dtd"
   xmlns:inkscape="http://www.inkscape.org/namespaces/inkscape"
   height="512pt"
   viewBox="-104 0 511 512"
   width="512pt"
   version="1.1"
   id="svg32"
   sodipodi:docname="apagar.svg"
   inkscape:version="1.0.1 (3bc2e813f5, 2020-09-07)">
  <metadata
     id="metadata38">
    <rdf:RDF>
      <cc:Work
         rdf:about="">
        <dc:format>image/svg+xml</dc:format>
        <dc:type
           rdf:resource="http://purl.org/dc/dcmitype/StillImage" />
      </cc:Work>
    </rdf:RDF>
  </metadata>
  <defs
     id="defs36" />
  <sodipodi:namedview
     pagecolor="#ffffff"
     bordercolor="#666666"
     borderopacity="1"
     objecttolerance="10"
     gridtolerance="10"
     guidetolerance="10"
     inkscape:pageopacity="0"
     inkscape:pageshadow="2"
     inkscape:window-width="1920"
     inkscape:window-height="1051"
     id="namedview34"
     showgrid="false"
     inkscape:zoom="0.88560981"
     inkscape:cx="234.34383"
     inkscape:cy="359.02712"
     inkscape:window-x="0"
     inkscape:window-y="0"
     inkscape:window-maximized="1"
     inkscape:current-layer="svg32" />
  <path
     d="m272.53125 504.484375h-240.46875c-13.28125 0-24.046875-10.765625-24.046875-24.046875v-448.875c0-13.28125 10.765625-24.046875 24.046875-24.046875h240.46875c13.28125 0 24.046875 10.765625 24.046875 24.046875v448.875c0 13.28125-10.765625 24.046875-24.046875 24.046875zm0 0"
     fill="#b098d4"
     id="path2"
     style="fill:#ff0000" />
  <path
     d="m35.066406 480.4375v-448.875c0-13.28125 10.765625-24.046875 24.046875-24.046875h-27.050781c-13.28125 0-24.046875 10.765625-24.046875 24.046875v448.875c0 13.28125 10.765625 24.046875 24.046875 24.046875h27.050781c-13.28125 0-24.046875-10.765625-24.046875-24.046875zm0 0"
     fill="#9a7bc8"
     id="path4"
     style="fill:#d40000" />
  <path
     d="m8.015625 448.375v32.0625c0 13.28125 10.765625 24.046875 24.046875 24.046875h240.46875c13.28125 0 24.046875-10.765625 24.046875-24.046875v-32.0625zm0 0"
     fill="#f4f0f9"
     id="path6" />
  <path
     d="m35.066406 480.4375v-32.0625h-27.050781v32.0625c0 13.28125 10.765625 24.046875 24.046875 24.046875h27.050781c-13.28125 0-24.046875-10.765625-24.046875-24.046875zm0 0"
     fill="#e8e2f3"
     id="path8" />
  <path
     d="m144.28125 231.953125c-35.414062 0-64.125-28.710937-64.125-64.125 0-14.757813 4.996094-28.339844 13.375-39.179687-30.332031 5.085937-53.453125 31.449218-53.453125 63.226562 0 35.414062 28.710937 64.125 64.125 64.125 20.65625 0 39.019531-9.777344 50.75-24.949219-3.472656.582031-7.035156.902344-10.671875.902344zm0 0"
     fill="#ffdb7e"
     id="path10" />
  <path
     d="m125.59375 247.085938c-35.414062 0-64.125-28.710938-64.125-64.125 0-22.53125 11.628906-42.332032 29.207031-53.761719-28.917969 6.210937-50.597656 31.902343-50.597656 62.675781 0 35.414062 28.710937 64.125 64.125 64.125 12.886719 0 24.882813-3.804688 34.929687-10.351562-4.363281.9375-8.890624 1.4375-13.539062 1.4375zm0 0"
     fill="#ffd15e"
     id="path12" />
  <path
     d="m296.578125 279.878906c4.148437 0 7.515625-3.363281 7.515625-7.515625v-240.800781c0-17.402344-14.160156-31.5625-31.5625-31.5625h-240.46875c-17.402344 0-31.5625 14.160156-31.5625 31.5625v448.875c0 17.402344 14.160156 31.5625 31.5625 31.5625h240.46875c17.402344 0 31.5625-14.160156 31.5625-31.5625v-172.667969c0-4.148437-3.367188-7.511719-7.515625-7.511719s-7.515625 3.363282-7.515625 7.511719v133.089844h-273.53125v-409.296875c0-9.117188 7.414062-16.53125 16.53125-16.53125h240.46875c9.117188 0 16.53125 7.414062 16.53125 16.53125v240.800781c0 4.152344 3.367188 7.515625 7.515625 7.515625zm-7.515625 176.011719v24.546875c0 7.976562-5.675781 14.652344-13.203125 16.195312-1.074219.222657-246.050781.222657-247.125 0-7.527344-1.542968-13.203125-8.21875-13.203125-16.195312v-24.546875zm0 0"
     id="path14" />
  <path
     d="m136.265625 487.953125h32.0625c4.148437 0 7.515625-3.363281 7.515625-7.515625 0-4.148438-3.367188-7.515625-7.515625-7.515625h-32.0625c-4.152344 0-7.515625 3.367187-7.515625 7.515625 0 4.152344 3.363281 7.515625 7.515625 7.515625zm0 0"
     id="path16" />
  <path
     d="m160.894531 235.648438c2.773438-3.582032 1.667969-8.949219-2.28125-11.15625-2.03125-1.136719-4.019531-.964844-6.230469-.644532-2.683593.386719-5.394531.589844-8.101562.589844-31.214844 0-56.613281-25.394531-56.613281-56.609375 0-12.632813 4.085937-24.589844 11.808593-34.582031 4.089844-5.292969-.59375-13.128906-7.1875-12.007813-34.605468 5.800781-59.726562 35.507813-59.726562 70.636719 0 39.5 32.136719 71.640625 71.640625 71.640625 22.335937 0 43-10.15625 56.691406-27.867187zm-56.691406 12.835937c-31.214844 0-56.609375-25.394531-56.609375-56.609375 0-21.457031 11.851562-40.351562 29.859375-49.941406-3.175781 8.167968-4.8125 16.898437-4.8125 25.894531 0 36.59375 27.574219 66.863281 63.039063 71.125-9.183594 6.167969-20.054688 9.53125-31.476563 9.53125zm0 0"
     id="path18" />
  <path
     d="m159.070312 140.527344c-1.253906-2.605469-3.886718-4.261719-6.773437-4.261719h-32.0625c-4.152344 0-7.515625 3.363281-7.515625 7.515625s3.363281 7.515625 7.515625 7.515625h16.425781l-22.292968 27.867187c-3.867188 4.832032-.300782 12.210938 5.867187 12.210938h32.0625c4.148437 0 7.515625-3.363281 7.515625-7.515625s-3.367188-7.515625-7.515625-7.515625h-16.429687l22.296874-27.867188c1.804688-2.257812 2.15625-5.347656.90625-7.949218zm0 0"
     id="path20"
     style="fill:#ffffff" />
  <path
     d="m208.40625 159.3125c4.148438 0 7.515625-3.363281 7.515625-7.515625s-3.367187-7.515625-7.515625-7.515625h-16.429688l22.296876-27.867188c3.863281-4.832031.296874-12.210937-5.867188-12.210937h-32.0625c-4.152344 0-7.515625 3.363281-7.515625 7.515625s3.363281 7.515625 7.515625 7.515625h16.429688l-22.296876 27.867187c-3.863281 4.832032-.300781 12.210938 5.867188 12.210938zm0 0"
     id="path22"
     style="fill:#ffffff" />
  <path
     d="m264.515625 127.25c4.148437 0 7.515625-3.363281 7.515625-7.515625s-3.367188-7.515625-7.515625-7.515625h-16.429687l22.296874-27.867188c3.863282-4.832031.300782-12.210937-5.867187-12.210937h-32.0625c-4.148437 0-7.515625 3.363281-7.515625 7.515625s3.367188 7.515625 7.515625 7.515625h16.429687l-22.296874 27.867187c-3.863282 4.828126-.300782 12.210938 5.867187 12.210938zm0 0"
     id="path24"
     style="fill:#ffffff" />
  <path
     d="m80.15625 344.671875c-4.152344 0-7.515625 3.363281-7.515625 7.515625v48.09375c0 4.152344 3.363281 7.515625 7.515625 7.515625h32.0625c4.148438 0 7.515625-3.363281 7.515625-7.515625v-48.09375c0-4.152344-3.367187-7.515625-7.515625-7.515625zm24.546875 48.09375h-17.03125v-33.0625h17.03125zm0 0"
     id="path26"
     style="fill:#ffffff" />
  <path
     d="m168.328125 359.703125c4.148437 0 7.515625-3.363281 7.515625-7.515625s-3.367188-7.515625-7.515625-7.515625h-32.0625c-4.152344 0-7.515625 3.363281-7.515625 7.515625v48.09375c0 4.152344 3.363281 7.515625 7.515625 7.515625 4.148437 0 7.515625-3.363281 7.515625-7.515625v-16.53125h16.53125c4.148438 0 7.515625-3.363281 7.515625-7.515625s-3.367187-7.515625-7.515625-7.515625h-16.53125v-9.015625zm0 0"
     id="path28"
     style="fill:#ffffff" />
  <path
     d="m224.4375 359.703125c4.148438 0 7.515625-3.363281 7.515625-7.515625s-3.367187-7.515625-7.515625-7.515625h-32.0625c-4.148438 0-7.515625 3.363281-7.515625 7.515625v48.09375c0 4.152344 3.367187 7.515625 7.515625 7.515625s7.515625-3.363281 7.515625-7.515625v-16.53125h16.53125c4.148437 0 7.515625-3.363281 7.515625-7.515625s-3.367188-7.515625-7.515625-7.515625h-16.53125v-9.015625zm0 0"
     id="path30"
     style="fill:#ffffff" />
</svg>
