<?xml version="1.0" encoding="UTF-8"?>
<!DOCTYPE svg PUBLIC "-//W3C//DTD SVG 1.1//EN" "http://www.w3.org/Graphics/SVG/1.1/DTD/svg11.dtd">
<!-- Creator: CorelDRAW 2020 (64-Bit) -->
<svg xmlns="http://www.w3.org/2000/svg" xml:space="preserve" width="16.5934mm" height="17.9073mm" version="1.1" style="shape-rendering:geometricPrecision; text-rendering:geometricPrecision; image-rendering:optimizeQuality; fill-rule:evenodd; clip-rule:evenodd"
viewBox="0 0 7997.59 8630.85"
 xmlns:xlink="http://www.w3.org/1999/xlink"
 xmlns:xodm="http://www.corel.com/coreldraw/odm/2003">
 <defs>
  <style type="text/css">
   <![CDATA[
    .fil1 {fill:black}
    .fil9 {fill:#4C6759}
    .fil15 {fill:#77654D}
    .fil12 {fill:#847257}
    .fil6 {fill:#8AC9FD}
    .fil13 {fill:#8B8B8B}
    .fil4 {fill:#91DEB6}
    .fil14 {fill:#A5A4A4}
    .fil0 {fill:#AFE7C9}
    .fil2 {fill:#B2D9FD}
    .fil5 {fill:#BBBBBB}
    .fil3 {fill:#CDCDCD}
    .fil10 {fill:#EBEBEB}
    .fil7 {fill:#F8F5F5}
    .fil11 {fill:#FECE85}
    .fil8 {fill:#FEDBA6}
   ]]>
  </style>
 </defs>
 <g id="Capa_x0020_1">
  <metadata id="CorelCorpID_0Corel-Layer"/>
  <g id="_2253439330640">
   <path class="fil0" d="M1957.1 2216.94c73.89,-27.23 435.75,-10.84 544.39,-10.84 512.96,-0.05 445.87,-34.32 445.87,659.63 0,513.25 34.99,446.07 -665.03,446.12 -173.37,0 -384.81,40.77 -430.55,-116.4 -22.8,-78.22 -9.83,-441.78 -9.83,-548.87 0,-170.04 -34.85,-374.4 115.14,-429.63zm1304.85 3.66c79.33,-31.23 424.62,-14.51 537.5,-14.51 524.97,-0.05 455.9,-37.88 455.9,659.63 0,162.62 37.55,384.52 -107.34,433.82 -71.48,24.29 -448.43,12.29 -550.85,12.29 -517.54,0 -447.18,33.74 -447.18,-665.27 0,-189.85 -43.38,-364.76 111.96,-425.97zm-2615.09 -1.25c85.69,-30.7 422.31,-13.25 539.76,-13.25 522.12,-0.05 452.72,-36.34 452.72,659.63 0.05,508.24 39.28,446.12 -655,446.12 -524.63,0 -450.31,24.1 -450.31,-665.27 0,-187.87 -42.08,-371.65 112.83,-427.22zm1316.08 -1432.43c81.79,-26.17 424.67,-10.36 538.56,-10.36 518.41,0 445.83,-29.06 445.87,673.17 0,504.67 11.18,432.62 -665.03,432.62 -512.39,0.05 -440.38,30.32 -440.38,-668.64 0,-174.47 -44.73,-373.87 120.98,-426.79zm1311.16 -2.12c70.22,-21.93 437.25,-8.24 542.22,-8.24 512.87,0 439.03,-17.88 439.03,673.17 0.05,504.14 27.86,432.62 -675,432.62 -502.46,0.05 -430.35,16.97 -430.35,-668.64 0,-186.86 -43.09,-376.76 124.11,-428.91zm-2621.46 4.63c79.57,-29.64 421.44,-12.87 533.98,-12.87 179.39,0 395.22,-40.53 441.78,112.54 23.76,77.98 10.94,437.01 10.94,543.76 0.05,518.6 30.89,449.49 -655,449.49 -516.68,0 -450.31,35.23 -450.31,-651.77 0,-201.47 -45.93,-379.84 118.61,-441.15zm-528 790.39l0 326.44c106.52,16.97 133.12,68.1 134.33,182.96 12.15,1178.91 -0.77,2423.41 -0.77,3608.49 0,430.88 15.28,890.35 -1.83,1317.67l4062.75 -0.96c0,-185.08 14.22,-6331.07 -5.93,-6466.5 -8.96,-60.2 -30.32,-113.6 -55.23,-163.15 -45.26,-89.98 -65.07,-83.82 -102.42,-131.05 -1059.62,-30.08 -2251.64,-0.29 -3339.79,-0.87 -687.29,-0.39 -556.92,303.98 -556.92,1130.28 0,128.16 -5.93,174.04 -134.18,196.69z"/>
   <path class="fil1" d="M262.58 7299.06c13.11,-13.54 -19.33,-24.92 96.68,-27.38 609.99,-12.77 1407.07,1.88 2024.19,1.88 711.78,0 1423.56,0.63 2135.29,0.63 28.82,84.73 16.92,593.31 12.97,716.7 -7.52,235.25 -147.73,371.75 -375.36,386.45 -818.25,18.99 -1659.97,0.72 -2480.86,0.72 -231.44,0 -1058.51,34.85 -1210.57,-37.06 -175.97,-83.24 -207.3,-238.05 -207.01,-418.02 0.29,-158.04 -17.21,-492 4.68,-623.92zm379.31 -7299.06l3326.15 0 165.56 0c214.04,3.04 354.11,31.62 529.93,248.55 160.3,197.8 130.52,454.5 130.52,796.61 653.27,0 589.98,-44.92 589.98,809.14 193.61,45.06 463.95,157.12 606.85,252.84 134.66,-90.18 364.57,-406.83 489.83,-454.41 207.2,-78.71 350.15,139.68 559.52,349.05 209.37,209.37 427.75,352.32 349.05,559.52 -27.81,73.26 -401.05,437.25 -454.41,472.96 97.89,184.98 199.78,395.8 252.89,623.72 529.98,0 812.27,-86.18 809.52,303.02l0.24 725.9c0.58,147.19 -28,196.07 -118.18,252.7 -112.83,70.9 -509.64,33.26 -691.58,33.26 -53.11,227.93 -155,438.74 -252.89,623.72 51.14,34.22 430.35,397.24 458.94,485.54 51.91,160.4 -44.63,238.34 -125.99,319.36l-471.95 472.05c-351.89,355.94 -501.73,-146.76 -804.99,-349.82 -136.01,91.09 -422.79,210 -606.85,252.84 0,173.99 31.47,560.97 -27.81,680.21 -39.71,79.81 -110.71,127.67 -224.02,129.94 -110.85,2.22 -226.62,-1.01 -338.15,-1.01 0,291.98 25.69,510.6 -78.08,714.24 -80.06,157.17 -259.78,307.02 -463.18,329.09 -6.07,0.67 -16.29,1.25 -29.5,1.83l-3432.33 0c-37.3,-0.05 -68.44,-0.05 -92.39,0l-98.8 0c-107.53,-1.25 -142.95,-10.31 -245.04,-61.55 -59.76,-29.98 -79.38,-33.98 -125.27,-77.02 -29.93,-28.15 -75.28,-71.28 -100.4,-101.89 -45.45,-55.48 -107.87,-192.21 -118.76,-268.94 -22.03,-155.05 -1.59,-5228.5 -3.71,-5946.88 -0.43,-143.15 -20.39,-261.66 118.04,-268.31 106.52,16.97 133.12,68.1 134.33,182.96 12.15,1178.91 -0.77,2423.41 -0.77,3608.49 0,430.88 15.28,890.35 -1.83,1317.67 3.76,2.31 8.77,5.25 11.71,6.27l41.31 11.62c11.37,1.45 53.79,0.24 67.77,0.1 629.27,-5.93 4033.35,22.51 4154.71,-13.25 29.74,-167.34 6.6,-604.06 6.6,-799.84 0,-844.71 19.18,-5583.81 -16.92,-5642.95 -10.56,-191.92 -165.94,-311.11 -366.01,-323.6 -1059.62,-30.08 -2251.64,-0.29 -3339.79,-0.87 -687.29,-0.39 -556.92,303.98 -556.92,1130.28 0,128.16 -5.93,174.04 -134.18,196.69 -160.3,-15.71 -118.04,-169.94 -118.04,-349.24 0,-157.32 0.05,-314.68 0,-472 0,-211.54 -14.6,-258.72 61.55,-410.5 118.71,-236.6 298.87,-344.13 573.74,-348.08zm6310.73 3789.52c54.32,128.45 78.85,123.82 234.82,122.81 112.35,-0.77 225.23,-1.11 337.53,-0.14l220.31 -0.24 -1.11 807.02 -219.2 -0.29c-118.18,1.01 -236.41,0.14 -354.64,-0.34 -148.01,-0.58 -167.15,3.28 -217.71,123 -24.73,135.72 -79.38,291.06 -132.4,404.62 -204.89,438.79 -278.53,311.21 57.31,644.06 76.34,75.67 185.8,199.87 263.64,256.6 -31.38,62.56 -518.22,547.57 -581.79,581.21l-70.61 -80.59c-61.69,-38.56 -268.12,-253.71 -332.75,-322.39 -63.19,-67.19 -93.74,-134.57 -223.88,-62.7 -65.4,36.1 -128.93,80.44 -210.86,111.53 -111.24,66.51 -527.09,182.19 -558.85,214.48 -76.3,77.55 -35.71,600.39 -35.71,740.22l-210.33 4.68 -132.35 -7.09 1.98 -1434.02c383.12,-76.06 554.22,-69.84 889.29,-324.42 92.83,-70.56 132.83,-110.66 80.3,-240.65 -160.21,-104.59 -171.58,27.18 -433.29,157.41 -136.06,67.72 -338.1,141.75 -528.24,145.99l0 -2629.7c311.45,6.94 732.75,213.56 896.04,418.79 64.68,81.31 135.39,162.62 183.05,255.25 452,877.72 -140.3,1216.84 67.19,1403.56 191.83,45.79 212.5,-80.97 268.65,-241.37 245.47,-700.89 -35.18,-1456.62 -633.8,-1842.15 -297.04,-191.25 -409.29,-180.98 -790.97,-255.74l-0.29 -1437.54 132.45 -3.57 210.29 4.68c0,133.36 0.05,266.72 0,400.09 0,114.71 -29.93,296.61 54.7,355.12 70.71,48.92 477.59,119.48 570.8,225.18 92.78,10.46 138.23,76.49 214.91,103.19 114.76,40.05 157.36,-48.29 205.56,-97.12 72.15,-73.02 246.34,-262.19 316.08,-305.09l68.34 -83c65.98,36 552.78,520.77 584.1,583.28 -79.91,58.42 -501.45,457.49 -495.52,548.44 4.77,72.73 238.87,380.13 306.97,756.94z"/>
   <path class="fil2" d="M5940.33 5078.17c-28.39,93.26 -137.84,175.78 -184.74,248.7 52.54,129.99 12.53,170.09 -80.3,240.65 -335.07,254.58 -506.17,248.36 -889.29,324.42l-1.98 1434.02 132.35 7.09c0,-241.85 -59.96,-728.84 108.35,-831.36l512.48 -196.65c39.52,-3.42 71.72,-0.19 104.97,10.84 48.15,15.95 62.9,36.58 79.09,57.79 81.94,-31.09 145.46,-75.43 210.86,-111.53 130.13,-71.86 160.69,-4.48 223.88,62.7 64.63,68.68 271.06,283.83 332.75,322.39 87.38,-43.62 141.41,-123.43 210.04,-191.05 335.41,-330.44 327.02,-254.72 -54.99,-635.96 -215.78,-215.3 -172.98,-238.38 -43.67,-524.58 104.4,-231.11 73.6,-408.28 352.47,-454.31 50.56,-119.72 69.69,-123.58 217.71,-123 118.23,0.48 236.46,1.35 354.64,0.34 19.62,-93.55 19.62,-712.94 0,-806.49 -112.3,-0.96 -225.18,-0.63 -337.53,0.14 -155.97,1.01 -180.5,5.64 -234.82,-122.81 -279.64,-47.33 -247.73,-223.11 -352.37,-454.5 -129.12,-285.47 -172.11,-309.91 43.62,-524.34 204.21,-202.96 373.19,-301.38 249.61,-443.03 -59.76,-68.49 -339.45,-351.12 -404.76,-383.8 -69.74,42.9 -243.93,232.07 -316.08,305.09 -48.2,48.82 -90.8,137.17 -205.56,97.12 -76.68,-26.7 -122.13,-92.73 -214.91,-103.19 -111.67,95.24 -185.85,134.42 -359.65,51.86 -383.12,-182.04 -476.67,-50.61 -476.14,-530.99 0.19,-168.64 0,-337.29 0,-505.93l-132.45 3.57 0.29 1437.54c381.68,74.75 493.93,64.49 790.97,255.74 598.61,385.53 879.27,1141.27 633.8,1842.15 -56.15,160.4 -76.83,287.16 -268.65,241.37z"/>
   <path class="fil3" d="M2299.21 7951.99c-223.11,0 -238,-252.7 1.01,-252.7l184.4 0c233.95,0 241.85,252.7 0,252.7l-185.42 0zm1857.14 425.34c3.42,-3.81 9.3,-13.83 11.23,-10.51 0.05,0.1 157.41,-84.44 156.45,-460.77 -0.53,-202.33 -0.14,-404.67 -0.14,-607l-4061.31 0c-21.88,131.92 -4.39,465.88 -4.68,623.92 -0.29,179.97 31.04,334.78 207.01,418.02 152.06,71.91 979.13,37.06 1210.57,37.06 820.9,0 1662.62,18.27 2480.86,-0.72z"/>
   <path class="fil4" d="M4319.11 7014.41l202.72 -0.29 -0.29 -6436.81c-10.56,-191.92 -165.94,-311.11 -366.01,-323.6 37.35,47.23 57.16,41.06 102.42,131.05 24.92,49.55 46.27,102.95 55.23,163.15 20.15,135.43 5.93,6281.42 5.93,6466.5z"/>
   <path class="fil1" d="M2516.24 2460.09l178.14 -0.1 0 599 -178.14 -0.1 -421.34 0.19 0 -599.09 421.34 0.1zm-559.14 -243.16c-149.99,55.23 -115.14,259.59 -115.14,429.63 0,107.09 -12.97,470.65 9.83,548.87 45.74,157.17 257.18,116.4 430.55,116.4 700.02,-0.05 665.03,67.14 665.03,-446.12 0,-693.95 67.09,-659.68 -445.87,-659.63 -108.64,0 -470.5,-16.39 -544.39,10.84z"/>
   <path class="fil1" d="M800.27 1028.48l585.98 3.23 -0.14 571.09c-24.82,38.22 54.75,32.87 -148.88,31.81l-450.4 -4.29 -6.55 -552.2c8.63,-71.33 -5.35,-30.75 20,-49.64zm-147.63 -239.06c-164.55,61.31 -118.61,239.69 -118.61,441.15 0,687.01 -66.37,651.77 450.31,651.77 685.9,0 655.05,69.12 655,-449.49 0,-106.76 12.82,-465.78 -10.94,-543.76 -46.56,-153.07 -262.39,-112.54 -441.78,-112.54 -112.54,0 -454.41,-16.77 -533.98,12.87z"/>
   <path class="fil1" d="M3410.01 2458.93l413.53 0.87 178.86 0.24 -0.43 590.37c-32.34,20.1 37.35,8.43 -50.08,17.35l-548.97 -7.76c-23.71,-91.14 -10.03,-200.07 -10.03,-295.45 0,-50.56 0.24,-101.17 -0.05,-151.73 -0.14,-24.68 -2.55,-62.7 -1.25,-85.5l18.41 -68.39zm-148.06 -238.34c-155.34,61.21 -111.96,236.12 -111.96,425.97 0,699.01 -70.37,665.27 447.18,665.27 102.42,0 479.37,12 550.85,-12.29 144.88,-49.31 107.34,-271.21 107.34,-433.82 0,-697.51 69.07,-659.68 -455.9,-659.63 -112.88,0 -458.16,-16.72 -537.5,14.51z"/>
   <path class="fil1" d="M3415.65 1029.5l586.51 -0.05 1.35 592.01c-61.93,35.28 -559.14,17.4 -602.27,7.33l-5.16 -465.78c-1.4,-135.34 -8.19,-114.18 19.57,-133.51zm-141.56 -244.7c-167.2,52.15 -124.11,242.05 -124.11,428.91 0,685.61 -72.1,668.69 430.35,668.64 702.86,0 675.05,71.52 675,-432.62 0,-691.05 73.84,-673.17 -439.03,-673.17 -104.97,0 -472,-13.69 -542.22,8.24z"/>
   <path class="fil1" d="M792.32 2456.81l415.17 3.08 178.96 2.84 -1.16 577.4c-24.44,30.85 32.63,18.41 -62.46,26.94l-534.75 -5.11c-26.6,-89.79 -11.04,-336.27 -12.19,-466.02l16.44 -139.15zm-145.46 -237.47c-154.91,55.57 -112.83,239.35 -112.83,427.22 0,689.37 -74.32,665.27 450.31,665.27 694.28,0 655.05,62.13 655,-446.12 0,-695.97 69.4,-659.68 -452.72,-659.63 -117.46,0 -454.07,-17.45 -539.76,13.25z"/>
   <path class="fil1" d="M2502.12 1029.5l177.56 1.45c23.81,23.52 16.48,-18.41 22.36,63.48l-6.02 532.97c-66.71,19.09 -510.75,21.83 -579.48,7.71 -3.37,-0.72 -10.17,-0.24 -12.48,-5.4 -2.31,-5.01 -7.86,-4.19 -11.76,-6.31l3.9 -593.98 405.92 0.1zm-539.18 -242.58c-165.7,52.92 -120.98,252.31 -120.98,426.79 0,698.96 -72.01,668.69 440.38,668.64 676.21,0 665.03,72.06 665.03,-432.62 -0.05,-702.24 72.54,-673.17 -445.87,-673.17 -113.89,0 -456.77,-15.81 -538.56,10.36z"/>
   <path class="fil5" d="M4156.35 8377.33c227.64,-14.7 367.84,-151.2 375.36,-386.45 3.95,-123.39 15.86,-631.96 -12.97,-716.7 -711.73,0 -1423.51,-0.63 -2135.29,-0.63 -617.12,0 -1414.21,-14.65 -2024.19,-1.88 -116.01,2.46 -83.57,13.83 -96.68,27.38l4061.31 0c0,202.33 -0.39,404.67 0.14,607 0.96,376.33 -156.4,460.86 -156.45,460.77 -1.93,-3.33 -7.81,6.7 -11.23,10.51z"/>
   <path class="fil6" d="M6488.77 6647.24l70.61 80.59c63.57,-33.64 550.41,-518.65 581.79,-581.21 -77.84,-56.73 -187.3,-180.93 -263.64,-256.6 -335.84,-332.85 -262.19,-205.27 -57.31,-644.06 53.02,-113.55 107.67,-268.89 132.4,-404.62 -278.87,46.03 -248.07,223.2 -352.47,454.31 -129.31,286.2 -172.11,309.28 43.67,524.58 382.01,381.24 390.4,305.52 54.99,635.96 -68.63,67.62 -122.66,147.44 -210.04,191.05z"/>
   <path class="fil6" d="M6488.72 1983.85c65.31,32.68 345,315.31 404.76,383.8 123.58,141.65 -45.4,240.07 -249.61,443.03 -215.73,214.43 -172.74,238.87 -43.62,524.34 104.64,231.4 72.73,407.17 352.37,454.5 -68.1,-376.81 -302.2,-684.21 -306.97,-756.94 -5.93,-90.95 415.61,-490.02 495.52,-548.44 -31.33,-62.51 -518.12,-547.28 -584.1,-583.28l-68.34 83z"/>
   <path class="fil6" d="M5752.17 2282.87c-93.21,-105.7 -500.1,-176.26 -570.8,-225.18 -84.63,-58.51 -54.7,-240.41 -54.7,-355.12 0.05,-133.36 0,-266.72 0,-400.09l-210.29 -4.68c0,168.64 0.19,337.29 0,505.93 -0.53,480.38 93.02,348.95 476.14,530.99 173.8,82.56 247.98,43.38 359.65,-51.86z"/>
   <polygon class="fil7" points="2516.24,3058.9 2516.24,2460.09 2094.9,2460 2094.9,3059.09 "/>
   <path class="fil8" d="M2092.3 1623.38l423.46 -0.63c0,-137.65 19.52,-481.54 -13.64,-593.26l-405.92 -0.1 -3.9 593.98z"/>
   <polygon class="fil8" points="1207.49,3049.06 1207.49,2459.9 792.32,2456.81 792.32,3049.26 "/>
   <polygon class="fil8" points="3823.55,3051.38 3823.55,2459.8 3410.01,2458.93 3410.01,3051.18 "/>
   <path class="fil6" d="M4916.38 7333.04l210.33 -4.68c0,-139.82 -40.58,-662.67 35.71,-740.22 31.76,-32.29 447.61,-147.97 558.85,-214.48 -16.19,-21.21 -30.94,-41.84 -79.09,-57.79 -33.26,-11.04 -65.45,-14.27 -104.97,-10.84l-512.48 196.65c-168.31,102.52 -108.35,589.5 -108.35,831.36z"/>
   <polygon class="fil7" points="3825.33,1622.66 3826.87,1051.14 3414.5,1051.14 3413.24,1622.37 "/>
   <polygon class="fil7" points="1208.89,1618.08 1207.68,1051.14 798.39,1051.14 796.41,1618.42 "/>
   <path class="fil9" d="M4319.11 7014.41l-4062.75 0.96c3.76,2.31 8.77,5.25 11.71,6.27l41.31 11.62c11.37,1.45 53.79,0.24 67.77,0.1 629.27,-5.93 4033.35,22.51 4154.71,-13.25 29.74,-167.34 6.6,-604.06 6.6,-799.84 0,-844.71 19.18,-5583.81 -16.92,-5642.95l0.29 6436.81 -202.72 0.29z"/>
   <path class="fil6" d="M7524.96 4718.67l219.2 0.29 1.11 -807.02 -220.31 0.24c19.62,93.55 19.62,712.94 0,806.49z"/>
   <path class="fil1" d="M2299.21 7951.99l185.42 0c241.85,0 233.95,-252.7 0,-252.7l-184.4 0c-239.01,0 -224.12,252.7 -1.01,252.7z"/>
   <polygon class="fil10" points="3825.33,1622.66 4003.52,1621.46 4002.17,1029.45 3415.65,1029.5 3414.5,1051.14 3826.87,1051.14 "/>
   <polygon class="fil10" points="1208.89,1618.08 1386.11,1602.8 1386.25,1031.71 800.27,1028.48 798.39,1051.14 1207.68,1051.14 "/>
   <polygon class="fil10" points="2516.24,3058.9 2694.38,3058.99 2694.38,2460 2516.24,2460.09 "/>
   <polygon class="fil11" points="3823.55,3051.38 4001.97,3050.41 4002.41,2460.04 3823.55,2459.8 "/>
   <polygon class="fil11" points="1207.49,3049.06 1385.29,3040.15 1386.45,2462.74 1207.49,2459.9 "/>
   <path class="fil11" d="M2515.76 1622.76l167.53 -0.05 -3.61 -591.77 -177.56 -1.45c33.16,111.72 13.64,455.61 13.64,593.26z"/>
   <path class="fil12" d="M2515.76 1622.76l-423.46 0.63c3.9,2.12 9.45,1.3 11.76,6.31 2.31,5.16 9.11,4.68 12.48,5.4 68.73,14.12 512.77,11.37 579.48,-7.71l6.02 -532.97c-5.88,-81.89 1.45,-39.96 -22.36,-63.48l3.61 591.77 -167.53 0.05z"/>
   <path class="fil12" d="M1385.29 3040.15l-177.8 8.92 -415.17 0.19 0 -592.44 -16.44 139.15c1.16,129.75 -14.41,376.23 12.19,466.02l534.75 5.11c95.09,-8.53 38.03,3.9 62.46,-26.94z"/>
   <path class="fil13" d="M4003.52 1621.46l-178.19 1.2 -412.09 -0.29 1.25 -571.24 1.16 -21.64c-27.76,19.33 -20.97,-1.83 -19.57,133.51l5.16 465.78c43.14,10.07 540.34,27.95 602.27,-7.33z"/>
   <path class="fil14" d="M1386.11 1602.8l-177.22 15.28 -412.47 0.34 1.98 -567.28 1.88 -22.65c-25.35,18.89 -11.37,-21.69 -20,49.64l6.55 552.2 450.4 4.29c203.63,1.06 124.06,6.41 148.88,-31.81z"/>
   <path class="fil15" d="M4001.97 3050.41l-178.43 0.96 -413.53 -0.19 0 -592.25 -18.41 68.39c-1.3,22.8 1.11,60.83 1.25,85.5 0.29,50.56 0.05,101.17 0.05,151.73 0,95.38 -13.69,204.31 10.03,295.45l548.97 7.76c87.43,-8.92 17.74,2.75 50.08,-17.35z"/>
  </g>
 </g>
</svg>
