<?xml version="1.0" encoding="UTF-8"?>
<!DOCTYPE svg PUBLIC "-//W3C//DTD SVG 1.1//EN" "http://www.w3.org/Graphics/SVG/1.1/DTD/svg11.dtd">
<!-- Creator: CorelDRAW 2020 (64-Bit) -->
<svg xmlns="http://www.w3.org/2000/svg" xml:space="preserve" width="77.4096mm" height="66.4478mm" version="1.1" style="shape-rendering:geometricPrecision; text-rendering:geometricPrecision; image-rendering:optimizeQuality; fill-rule:evenodd; clip-rule:evenodd"
viewBox="0 0 26.5 22.75"
 xmlns:xlink="http://www.w3.org/1999/xlink"
 xmlns:xodm="http://www.corel.com/coreldraw/odm/2003">
 <defs>
  <style type="text/css">
   <![CDATA[
    .fil1 {fill:black}
    .fil3 {fill:#4C6902}
    .fil2 {fill:#668C04}
    .fil0 {fill:#B7E546}
   ]]>
  </style>
 </defs>
 <g id="Capa_x0020_1">
  <metadata id="CorelCorpID_0Corel-Layer"/>
  <g id="_1704046157808">
   <ellipse class="fil0" cx="11.37" cy="11.37" rx="11.36" ry="11.37"/>
   <path class="fil1" d="M11.37 0c6.28,0 11.37,5.09 11.37,11.37 0,6.28 -5.09,11.37 -11.37,11.37 -6.28,0 -11.37,-5.09 -11.37,-11.37 0,-6.28 5.09,-11.37 11.37,-11.37zm0 1.14c5.65,0 10.24,4.58 10.24,10.24 0,5.65 -4.58,10.24 -10.24,10.24 -5.65,0 -10.24,-4.58 -10.24,-10.24 0,-5.65 4.58,-10.24 10.24,-10.24z"/>
   <path class="fil1" d="M20.64 3.25l0.76 -0.65c0.25,-0.24 0.53,-0.42 0.79,-0.66 0.35,-0.33 1.98,-1.71 2.34,-1.86 0.07,-0.03 0.13,-0.05 0.2,-0.06l0.57 0c0.82,0.18 1.46,1.13 1.1,2.05 -0.11,0.28 -1.25,1.53 -1.58,1.9l-1.01 1.09c-0.23,0.29 -0.41,0.46 -0.64,0.74l-1 1.1 -0.25 0.29c-0.02,0.01 -0.04,0.03 -0.07,0.05l0.01 0.02 -0.76 0.89 -0 0c-0.01,-0.01 -0.01,-0.02 -0.02,-0.03l-0.93 1.03c-0.56,0.54 -2.29,2.63 -2.82,3.15 -0.3,0.29 -0.65,0.72 -0.92,1.05l-2.85 3.18c-0.18,0.2 -0.3,0.3 -0.47,0.51 -0.16,0.2 -0.3,0.31 -0.47,0.51 -0.28,0.33 -0.68,0.68 -1.39,0.6 -0.88,-0.1 -1.36,-1.07 -2.05,-1.97l-2.58 -3.39c-0.31,-0.41 -0.77,-0.73 -0.42,-1.32 0.4,-0.17 0.56,-0.09 0.78,0.17 0.17,0.2 0.31,0.41 0.48,0.63 0.35,0.46 0.64,0.85 0.99,1.31 0.33,0.43 0.67,0.89 0.99,1.31 0.28,0.36 0.73,1.02 1,1.27 0.16,0.34 0.78,1.42 1.37,0.83 0.43,-0.43 0.79,-0.87 1.18,-1.32 0.1,-0.12 0.19,-0.17 0.29,-0.29 0.12,-0.13 0.18,-0.23 0.3,-0.36 0.25,-0.26 0.38,-0.44 0.59,-0.66 1.09,-1.15 2.58,-2.97 3.57,-3.97l5.91 -6.62c0.11,-0.13 0.17,-0.17 0.29,-0.3l0.91 -1.06c0.2,-0.23 0.44,-0.39 0.59,-0.66 0.18,-0.32 0,-0.67 -0.32,-0.73 -0.35,-0.06 -0.58,0.26 -0.78,0.42l-2.02 1.72c-0.23,0.18 -0.48,0.38 -0.68,0.56 -0.24,0.21 -0.5,0.4 -0.7,0.61 -0.13,0.08 -0.44,0.35 -0.54,0.45 -0.23,0.21 -0.32,0.27 -0.57,0.48l-3.41 2.88c-0.77,0.62 -1.47,1.28 -2.25,1.88 -1.72,1.34 -2.29,2.63 -3.91,1.41l-3.62 -2.68c-0.44,-0.32 -1.53,-1.25 -1.88,-1.2 -0.27,0.03 -0.47,0.3 -0.37,0.63 0.2,0.7 2,1.89 1.13,2.51 -0.58,0.14 -0.71,-0.28 -1.15,-0.85 -0.25,-0.33 -0.68,-0.81 -0.86,-1.17 -0.55,-1.12 0.47,-2.36 1.67,-2.06 0.46,0.11 4.52,3.21 5.36,3.83 0.67,0.5 0.77,0.74 1.33,0.26l5.77 -4.87 0 -0 0.35 -0.29c0.28,-0.25 0.71,-0.56 0.97,-0.84l1.69 -1.45z"/>
   <path class="fil2" d="M5.5 10.7c0.18,0.05 0.11,0.03 0.23,0.14 0.07,0.07 0.1,0.13 0.14,0.18 0.13,0.18 0.2,0.25 0.31,0.44 0.4,-0.17 0.56,-0.09 0.78,0.17 0.17,0.2 0.31,0.41 0.48,0.63 0.35,0.46 0.64,0.85 0.99,1.31 0.33,0.43 0.67,0.89 0.99,1.31 0.28,0.36 0.73,1.02 1,1.27 0.31,-0.2 0.42,-0.46 0.67,-0.71 0.15,-0.15 0.18,-0.19 0.31,-0.35 0.13,-0.16 0.21,-0.21 0.35,-0.37l9.17 -10.28c0.03,-0.13 0.05,-0 -0.01,-0.1 -0.13,0.08 -0.44,0.35 -0.54,0.45 -0.23,0.21 -0.32,0.27 -0.57,0.48l-3.41 2.88c-0.77,0.62 -1.47,1.28 -2.25,1.88 -1.72,1.34 -2.29,2.63 -3.91,1.41l-3.62 -2.68c-0.44,-0.32 -1.53,-1.25 -1.88,-1.2 -0.27,0.03 -0.47,0.3 -0.37,0.63 0.2,0.7 2,1.89 1.13,2.51z"/>
   <path class="fil3" d="M20.92 4.34c0.05,0.1 0.04,-0.03 0.01,0.1l-9.17 10.28c-0.14,0.15 -0.23,0.21 -0.35,0.37 -0.13,0.16 -0.15,0.2 -0.31,0.35 -0.26,0.25 -0.37,0.51 -0.67,0.71 0.16,0.34 0.78,1.42 1.37,0.83 0.43,-0.43 0.79,-0.87 1.18,-1.32 0.1,-0.12 0.19,-0.17 0.29,-0.29 0.12,-0.13 0.18,-0.23 0.3,-0.36 0.25,-0.26 0.38,-0.44 0.59,-0.66 1.09,-1.15 2.58,-2.97 3.57,-3.97l5.91 -6.62c0.11,-0.13 0.17,-0.17 0.29,-0.3l0.91 -1.06c0.2,-0.23 0.44,-0.39 0.59,-0.66 0.18,-0.32 0,-0.67 -0.32,-0.73 -0.35,-0.06 -0.58,0.26 -0.78,0.42l-2.02 1.72c-0.23,0.18 -0.48,0.38 -0.68,0.56 -0.24,0.21 -0.5,0.4 -0.7,0.61z"/>
  </g>
 </g>
</svg>
