<?xml version="1.0" encoding="UTF-8" standalone="no"?>
<svg
   xmlns:dc="http://purl.org/dc/elements/1.1/"
   xmlns:cc="http://creativecommons.org/ns#"
   xmlns:rdf="http://www.w3.org/1999/02/22-rdf-syntax-ns#"
   xmlns:svg="http://www.w3.org/2000/svg"
   xmlns="http://www.w3.org/2000/svg"
   xmlns:sodipodi="http://sodipodi.sourceforge.net/DTD/sodipodi-0.dtd"
   xmlns:inkscape="http://www.inkscape.org/namespaces/inkscape"
   id="Layer_1"
   enable-background="new 0 0 256 256"
   height="512"
   viewBox="0 0 256 256"
   width="512"
   version="1.1"
   sodipodi:docname="transaction-history.svg"
   inkscape:version="1.0.1 (3bc2e813f5, 2020-09-07)">
  <metadata
     id="metadata1659">
    <rdf:RDF>
      <cc:Work
         rdf:about="">
        <dc:format>image/svg+xml</dc:format>
        <dc:type
           rdf:resource="http://purl.org/dc/dcmitype/StillImage" />
      </cc:Work>
    </rdf:RDF>
  </metadata>
  <defs
     id="defs1657" />
  <sodipodi:namedview
     pagecolor="#ffffff"
     bordercolor="#666666"
     borderopacity="1"
     objecttolerance="10"
     gridtolerance="10"
     guidetolerance="10"
     inkscape:pageopacity="0"
     inkscape:pageshadow="2"
     inkscape:window-width="1920"
     inkscape:window-height="1015"
     id="namedview1655"
     showgrid="false"
     inkscape:zoom="0.83496094"
     inkscape:cx="239.43871"
     inkscape:cy="353.79518"
     inkscape:window-x="1920"
     inkscape:window-y="0"
     inkscape:window-maximized="1"
     inkscape:current-layer="Layer_1" />
  <g
     id="g2277"
     transform="matrix(1.8897638,0,0,1.8897638,-285.24704,-170.89559)">
    <path
       d="m 169.91385,103.34542 h 99.11291 c 1.905,0 3.43959,1.53458 3.43959,3.43958 v 114.24709 c 0,1.905 -1.53459,3.43958 -3.43959,3.43958 h -99.11291 c -1.905,0 -3.43959,-1.53458 -3.43959,-3.43958 V 106.785 c 0,-1.905 1.53459,-3.43958 3.43959,-3.43958 z"
       fill="#edf4fc"
       id="path876"
       style="stroke-width:0.529167" />
    <path
       d="m 269.02676,103.34542 h -99.11291 c -1.905,0 -3.43959,1.53458 -3.43959,3.43958 v 9.525 h 105.99209 v -9.525 c 0,-1.905 -1.53459,-3.43958 -3.43959,-3.43958 z"
       fill="#5290db"
       id="path878"
       style="fill:#fea204;fill-opacity:1;stroke-width:0.529167" />
    <circle
       cx="175.99927"
       cy="109.6425"
       fill="#fc657e"
       r="2.3812499"
       id="circle880"
       style="stroke-width:0.529167" />
    <circle
       cx="184.41301"
       cy="109.6425"
       fill="#f5c84c"
       r="2.3812499"
       id="circle882"
       style="stroke-width:0.529167" />
    <circle
       cx="192.82677"
       cy="109.6425"
       fill="#b2e26d"
       r="2.3812499"
       id="circle884"
       style="stroke-width:0.529167" />
    <path
       d="m 269.02676,225.79459 h -99.11291 c -2.64584,0 -4.7625,-2.11667 -4.7625,-4.7625 V 106.785 c 0,-2.64583 2.11666,-4.7625 4.7625,-4.7625 h 99.11291 c 2.64584,0 4.7625,2.11667 4.7625,4.7625 v 114.24709 c 0,2.64583 -2.16958,4.7625 -4.7625,4.7625 z M 169.91385,104.66834 c -1.16417,0 -2.11667,0.9525 -2.11667,2.11666 v 114.24709 c 0,1.16416 0.9525,2.11666 2.11667,2.11666 h 99.11291 c 1.16417,0 2.11667,-0.9525 2.11667,-2.11666 V 106.785 c 0,-1.16416 -0.9525,-2.11666 -2.11667,-2.11666 z"
       id="path886"
       style="stroke-width:0.529167" />
    <path
       d="m 160.5476,162.24167 h -1.11125 v -1.11125 c 0,-0.79375 -0.68792,-1.48167 -1.48167,-1.48167 -0.79375,0 -1.48167,0.68792 -1.48167,1.48167 v 1.11125 h -1.11125 c -0.79375,0 -1.48166,0.68792 -1.48166,1.48167 0,0.79375 0.68791,1.48166 1.48166,1.48166 h 1.11125 v 1.11125 c 0,0.79375 0.68792,1.48167 1.48167,1.48167 0.79375,0 1.48167,-0.68792 1.48167,-1.48167 V 165.205 h 1.11125 c 0.79375,0 1.48166,-0.68791 1.48166,-1.48166 0,-0.84667 -0.68791,-1.48167 -1.48166,-1.48167 z"
       fill="#f5c84c"
       id="path888"
       style="stroke-width:0.529167" />
    <path
       d="m 271.77843,94.508336 c -2.11667,-0.370417 -3.75708,-2.010834 -4.18042,-4.074584 0,-0.05292 -0.0529,-0.105833 -0.10583,-0.05292 -0.0529,0 -0.0529,0.05292 -0.0529,0.05292 -0.42333,2.116667 -2.06375,3.704167 -4.18041,4.074584 -0.0529,0 -0.10584,0.05292 -0.10584,0.105833 0,0.05292 0.0529,0.05292 0.10584,0.105833 2.11666,0.370417 3.75708,2.010834 4.18041,4.074584 0,0.05292 0.0529,0.105833 0.10584,0.05292 0.0529,0 0.0529,-0.05292 0.0529,-0.05292 0.42334,-2.116667 2.06375,-3.704167 4.18042,-4.074584 0.0529,0 0.10583,-0.05292 0.10583,-0.105833 -0.0529,-0.05292 -0.0529,-0.105833 -0.10583,-0.105833 z"
       fill="#fc657e"
       id="path890"
       style="stroke-width:0.529167" />
    <path
       d="m 283.15551,192.66875 c -1.42875,-0.26458 -2.59291,-1.37583 -2.91041,-2.80458 0,-0.0529 -0.0529,-0.0529 -0.0529,-0.0529 -0.0529,0 -0.0529,0 -0.0529,0.0529 -0.3175,1.42875 -1.42875,2.54 -2.91041,2.80458 -0.0529,0 -0.0529,0.0529 -0.0529,0.0529 0,0.0529 0,0.0529 0.0529,0.0529 1.42875,0.26458 2.59291,1.37583 2.91041,2.80458 0,0.0529 0.0529,0.0529 0.0529,0.0529 0.0529,0 0.0529,0 0.0529,-0.0529 0.3175,-1.42875 1.42875,-2.54 2.91041,-2.80458 0,0.0529 0.0529,0 0,-0.10584 0.0529,0.0529 0,0.0529 0,0 z"
       fill="#70d6f9"
       id="path892"
       style="stroke-width:0.529167" />
    <circle
       cx="278.18134"
       cy="107.79042"
       fill="#70d6f9"
       r="1.5875"
       id="circle894"
       style="stroke-width:0.529167" />
    <circle
       cx="160.17719"
       cy="178.69875"
       fill="#87d147"
       r="1.5875"
       id="circle896"
       style="stroke-width:0.529167" />
    <circle
       cx="278.18134"
       cy="206.21542"
       fill="#f5c84c"
       r="1.5875"
       id="circle898"
       style="stroke-width:0.529167" />
    <path
       d="m 262.04176,110.96542 h -22.225 c -0.74083,0 -1.32291,-0.58208 -1.32291,-1.32292 0,-0.74083 0.58208,-1.32291 1.32291,-1.32291 h 22.225 c 0.74084,0 1.32292,0.58208 1.32292,1.32291 0,0.74084 -0.58208,1.32292 -1.32292,1.32292 z"
       id="path900"
       style="stroke-width:0.529167" />
    <path
       d="M 272.46635,117.63292 H 166.47426 c -0.74083,0 -1.32291,-0.58208 -1.32291,-1.32292 v -9.525 c 0,-2.64583 2.11666,-4.7625 4.7625,-4.7625 h 99.11291 c 2.64584,0 4.7625,2.11667 4.7625,4.7625 v 9.525 c 0,0.74084 -0.635,1.32292 -1.32291,1.32292 z M 167.79718,114.98709 H 271.14343 V 106.785 c 0,-1.16416 -0.9525,-2.11666 -2.11667,-2.11666 h -99.11291 c -1.16417,0 -2.11667,0.9525 -2.11667,2.11666 z"
       id="path902"
       style="stroke-width:0.529167" />
    <path
       d="m 175.99926,113.34667 c -2.06375,0 -3.70416,-1.69333 -3.70416,-3.70417 0,-2.06375 1.69333,-3.70416 3.70416,-3.70416 2.06375,0 3.70417,1.64041 3.70417,3.70416 0,2.01084 -1.64042,3.70417 -3.70417,3.70417 z m 0,-4.81542 c -0.58208,0 -1.05833,0.47625 -1.05833,1.05834 0,0.58208 0.47625,1.05833 1.05833,1.05833 0.58209,0 1.05834,-0.47625 1.05834,-1.05833 0,-0.58209 -0.47625,-1.05834 -1.05834,-1.05834 z"
       id="path904"
       style="stroke-width:0.529167" />
    <path
       d="m 184.41301,113.34667 c -2.06375,0 -3.70416,-1.69333 -3.70416,-3.70417 0,-2.01083 1.69333,-3.70416 3.70416,-3.70416 2.06375,0 3.70417,1.64041 3.70417,3.70416 0,2.01084 -1.64042,3.70417 -3.70417,3.70417 z m 0,-4.81542 c -0.58208,0 -1.05833,0.47625 -1.05833,1.05834 0,0.58208 0.47625,1.05833 1.05833,1.05833 0.58209,0 1.05834,-0.47625 1.05834,-1.05833 0,-0.58209 -0.47625,-1.05834 -1.05834,-1.05834 z"
       id="path906"
       style="stroke-width:0.529167" />
    <path
       d="m 192.82676,113.34667 c -2.06375,0 -3.70416,-1.69333 -3.70416,-3.70417 0,-2.01083 1.69333,-3.70416 3.70416,-3.70416 2.06375,0 3.70417,1.64041 3.70417,3.70416 0,2.01084 -1.69333,3.70417 -3.70417,3.70417 z m 0,-4.81542 c -0.58208,0 -1.05833,0.47625 -1.05833,1.05834 0,0.58208 0.47625,1.05833 1.05833,1.05833 0.58209,0 1.05834,-0.47625 1.05834,-1.05833 0,-0.58209 -0.47625,-1.05834 -1.05834,-1.05834 z"
       id="path908"
       style="stroke-width:0.529167" />
    <g
       id="g1242"
       transform="translate(-5.2652106,-40.165256)">
      <rect
         style="fill:#b4c9da;fill-opacity:1;stroke-width:1.323;stroke-linecap:round;stroke-linejoin:round"
         id="rect1226"
         width="74.737022"
         height="14.787179"
         x="187.367"
         y="183.60829"
         ry="2.8801608"
         rx="2.1345134" />
      <g
         id="g1216">
        <path
           d="M 235.95385,188.96459 H 203.4101 c -0.74084,0 -1.32292,-0.58209 -1.32292,-1.32292 0,-0.74083 0.58208,-1.32292 1.32292,-1.32292 h 32.54375 c 0.74083,0 1.32291,0.58209 1.32291,1.32292 0,0.74083 -0.635,1.32292 -1.32291,1.32292 z"
           id="path952"
           style="stroke-width:0.529167" />
        <path
           d="m 236.1126,195.685 h -32.49084 c -0.74083,0 -1.32291,-0.58208 -1.32291,-1.32291 0,-0.74084 0.58208,-1.32292 1.32291,-1.32292 h 32.54375 c 0.74084,0 1.32292,0.58208 1.32292,1.32292 0,0.74083 -0.635,1.32291 -1.37583,1.32291 z"
           id="path954"
           style="stroke-width:0.529167" />
        <path
           d="m 257.01468,188.96459 h -13.81125 c -0.74083,0 -1.32292,-0.58209 -1.32292,-1.32292 0,-0.74083 0.58209,-1.32292 1.32292,-1.32292 h 13.81125 c 0.74083,0 1.32292,0.58209 1.32292,1.32292 0,0.74083 -0.58209,1.32292 -1.32292,1.32292 z"
           id="path956"
           style="stroke-width:0.529167" />
        <path
           d="M 256.90885,195.685 H 243.0976 c -0.74084,0 -1.32292,-0.58208 -1.32292,-1.32291 0,-0.74084 0.58208,-1.32292 1.32292,-1.32292 h 13.81125 c 0.74083,0 1.32291,0.58208 1.32291,1.32292 0,0.74083 -0.58208,1.32291 -1.32291,1.32291 z"
           id="path958"
           style="stroke-width:0.529167" />
        <path
           d="m 196.90135,188.96459 h -4.39209 c -0.74083,0 -1.32291,-0.58209 -1.32291,-1.32292 0,-0.74083 0.58208,-1.32292 1.32291,-1.32292 h 4.39209 c 0.74083,0 1.32291,0.58209 1.32291,1.32292 0,0.74083 -0.58208,1.32292 -1.32291,1.32292 z"
           id="path960"
           style="stroke-width:0.529167" />
        <path
           d="m 196.84843,195.685 h -4.39208 c -0.74084,0 -1.32292,-0.58208 -1.32292,-1.32291 0,-0.74084 0.58208,-1.32292 1.32292,-1.32292 h 4.39208 c 0.74083,0 1.32292,0.58208 1.32292,1.32292 0,0.74083 -0.58209,1.32291 -1.32292,1.32291 z"
           id="path962"
           style="stroke-width:0.529167" />
      </g>
    </g>
    <g
       id="g1282"
       transform="translate(-4.3745856,-40.131413)">
      <rect
         style="fill:#b4c9da;fill-opacity:1;stroke-width:1.323;stroke-linecap:round;stroke-linejoin:round"
         id="rect1226-5"
         width="74.737022"
         height="14.787179"
         x="186.47638"
         y="200.4783"
         ry="2.8801608"
         rx="2.1345134" />
      <g
         id="g1224"
         transform="translate(-0.89062441,1.2595965)">
        <path
           d="M 235.95385,204.575 H 203.4101 c -0.74084,0 -1.32292,-0.58208 -1.32292,-1.32291 0,-0.74084 0.58208,-1.32292 1.32292,-1.32292 h 32.54375 c 0.74083,0 1.32291,0.58208 1.32291,1.32292 0,0.74083 -0.635,1.32291 -1.32291,1.32291 z"
           id="path968"
           style="stroke-width:0.529167" />
        <path
           d="m 236.1126,211.29542 h -32.49084 c -0.74083,0 -1.32291,-0.58208 -1.32291,-1.32292 0,-0.74083 0.58208,-1.32291 1.32291,-1.32291 h 32.54375 c 0.74084,0 1.32292,0.58208 1.32292,1.32291 0,0.74084 -0.635,1.32292 -1.37583,1.32292 z"
           id="path970"
           style="stroke-width:0.529167" />
        <path
           d="m 257.01468,204.575 h -13.81125 c -0.74083,0 -1.32292,-0.58208 -1.32292,-1.32291 0,-0.74084 0.58209,-1.32292 1.32292,-1.32292 h 13.81125 c 0.74083,0 1.32292,0.58208 1.32292,1.32292 0,0.74083 -0.58209,1.32291 -1.32292,1.32291 z"
           id="path972"
           style="stroke-width:0.529167" />
        <path
           d="M 256.90885,211.29542 H 243.0976 c -0.74084,0 -1.32292,-0.58208 -1.32292,-1.32292 0,-0.74083 0.58208,-1.32291 1.32292,-1.32291 h 13.81125 c 0.74083,0 1.32291,0.58208 1.32291,1.32291 0,0.74084 -0.58208,1.32292 -1.32291,1.32292 z"
           id="path974"
           style="stroke-width:0.529167" />
        <path
           d="m 196.90135,204.575 h -4.39209 c -0.74083,0 -1.32291,-0.58208 -1.32291,-1.32291 0,-0.74084 0.58208,-1.32292 1.32291,-1.32292 h 4.39209 c 0.74083,0 1.32291,0.58208 1.32291,1.32292 0,0.74083 -0.58208,1.32291 -1.32291,1.32291 z"
           id="path976"
           style="stroke-width:0.529167" />
        <path
           d="m 196.84843,211.29542 h -4.39208 c -0.74084,0 -1.32292,-0.58208 -1.32292,-1.32292 0,-0.74083 0.58208,-1.32291 1.32292,-1.32291 h 4.39208 c 0.74083,0 1.32292,0.58208 1.32292,1.32291 0,0.74084 -0.58209,1.32292 -1.32292,1.32292 z"
           id="path978"
           style="stroke-width:0.529167" />
      </g>
    </g>
    <g
       id="g1064"
       transform="matrix(0.08245572,0,0,0.08245572,198.36164,178.23427)">
      <g
         id="g1058">
        <g
           id="g1044">
          <path
             d="M 256,22.986 V 0 L 179.101,55.869 256,111.737 V 88.751 c 98.559,0 178.742,80.183 178.742,178.742 0,98.558 -80.183,178.742 -178.742,178.742 -98.559,0 -178.742,-80.183 -178.742,-178.742 H 11.493 C 11.493,402.53 120.963,512 256,512 391.037,512 500.507,402.53 500.507,267.493 500.507,132.456 391.038,22.986 256,22.986 Z"
             fill="#ff9368"
             id="path1042" />
        </g>
        <g
           id="g1048">
          <path
             d="m 256,378.449 c -61.182,0 -110.956,-49.775 -110.956,-110.956 0,-61.181 49.774,-110.956 110.956,-110.956 61.182,0 110.956,49.775 110.956,110.956 0,61.181 -49.774,110.956 -110.956,110.956 z"
             fill="#f9ebd7"
             id="path1046" />
        </g>
        <g
           id="g1052">
          <path
             d="m 256,378.449 c 0,-84.859 0,-166.406 0,-221.912 61.182,0 110.956,49.775 110.956,110.956 0,61.181 -49.774,110.956 -110.956,110.956 z"
             fill="#f3d6ae"
             id="path1050" />
        </g>
        <g
           id="g1056">
          <path
             d="M 274.043,309.433 241,282.968 v -55.245 h 30 v 40.837 l 21.797,17.458 z"
             fill="#ff0000"
             id="path1054" />
        </g>
      </g>
      <g
         id="g1062">
        <path
           d="M 256,22.986 V 0 111.737 88.751 c 98.559,0 178.742,80.183 178.742,178.742 0,98.558 -80.183,178.742 -178.742,178.742 V 512 C 391.037,512 500.507,402.531 500.507,267.493 500.507,132.456 391.038,22.986 256,22.986 Z"
           fill="#ff641a"
           id="path1060" />
      </g>
    </g>
    <text
       xml:space="preserve"
       style="font-size:10.5833px;line-height:1.25;font-family:sans-serif;letter-spacing:0px;stroke-width:0.264583"
       x="173.12427"
       y="127.35801"
       id="text1173"><tspan
         sodipodi:role="line"
         id="tspan1171"
         x="173.12427"
         y="127.35801"
         style="font-style:normal;font-variant:normal;font-weight:normal;font-stretch:normal;font-family:'Arial Black';-inkscape-font-specification:'Arial Black, ';stroke-width:0.264583">AQUILA 1</tspan></text>
    <rect
       style="fill:#b4c9da;fill-opacity:1;stroke-width:1.0041;stroke-linecap:round;stroke-linejoin:round"
       id="rect1226-56"
       width="91.735947"
       height="6.9393344"
       x="173.60233"
       y="131.963"
       ry="0"
       rx="0" />
    <g
       id="g1208"
       transform="translate(0.75955633)">
      <rect
         style="fill:#fea204;fill-opacity:1;stroke-width:1.00153;stroke-linecap:round;stroke-linejoin:round"
         id="rect1175"
         width="20.359272"
         height="5.2938757"
         x="175.61099"
         y="132.95573" />
      <rect
         style="fill:#fea204;fill-opacity:1;stroke-width:1.00153;stroke-linecap:round;stroke-linejoin:round"
         id="rect1175-3"
         width="20.359272"
         height="5.2938757"
         x="197.55774"
         y="132.95573" />
      <rect
         style="fill:#fea204;fill-opacity:1;stroke-width:1.00153;stroke-linecap:round;stroke-linejoin:round"
         id="rect1175-6"
         width="20.359272"
         height="5.2938757"
         x="219.50449"
         y="132.95573" />
      <rect
         style="fill:#fea204;fill-opacity:1;stroke-width:1.00153;stroke-linecap:round;stroke-linejoin:round"
         id="rect1175-7"
         width="20.359272"
         height="5.2938757"
         x="241.45123"
         y="132.95573" />
    </g>
  </g>
</svg>
