<svg height="512pt" viewBox="0 0 512 511" width="512pt" xmlns="http://www.w3.org/2000/svg"><path d="m155.84375 504.269531h-148.363281v-350.734375c0-2.753906 2.230469-4.988281 4.984375-4.988281h138.390625c2.753906 0 4.988281 2.234375 4.988281 4.988281zm0 0" fill="#fa0"/><path d="m155.84375 153.535156v350.730469h-22.488281v-350.730469c0-2.753906-2.234375-4.988281-4.984375-4.988281h22.488281c2.75 0 4.984375 2.234375 4.984375 4.988281zm0 0" fill="#ff9500"/><path d="m504.519531 504.269531h-105.160156v-413.28125h97.179687c4.40625 0 7.980469 3.574219 7.980469 7.980469zm0 0" fill="#c9f0ff"/><path d="m504.519531 504.269531h-21.953125v-413.28125h13.976563c4.40625 0 7.976562 3.574219 7.976562 7.980469zm0 0" fill="#9ae7fd"/><path d="m414.234375 504.269531h-137.304687v-260.925781c0-2.753906 2.230468-4.988281 4.984374-4.988281h127.335938c2.753906 0 4.984375 2.234375 4.984375 4.988281zm0 0" fill="#ea4444"/><path d="m414.238281 243.339844v260.925781h-22.804687v-260.925781c0-2.753906-2.234375-4.988282-4.988282-4.988282h22.808594c2.753906 0 4.984375 2.234376 4.984375 4.988282zm0 0" fill="#d93131"/><path d="m399.785156 238.355469h-108.40625v-174.105469h108.40625zm0 0" fill="#fab2b2"/><path d="m399.785156 238.355469h-21.457031v-174.105469h21.457031zm0 0" fill="#f89696"/><path d="m399.359375 64.25-50.117187-54.652344c-1.96875-2.152344-5.355469-2.15625-7.335938-.015625l-50.527344 54.667969zm0 0" fill="#ea4444"/><path d="m399.359375 64.246094h-19.816406l-43.898438-47.878906 6.261719-6.78125c1.976562-2.144532 5.367188-2.144532 7.339844.011718zm0 0" fill="#d93131"/><path d="m375.667969 119.652344c-4.132813 0-7.480469-3.347656-7.480469-7.476563v-12.664062c0-4.132813 3.347656-7.480469 7.480469-7.480469 4.132812 0 7.480469 3.347656 7.480469 7.480469v12.664062c-.003907 4.128907-3.351563 7.476563-7.480469 7.476563zm0 0"/><path d="m375.667969 162.359375c-4.132813 0-7.480469-3.347656-7.480469-7.480469v-12.664062c0-4.128906 3.347656-7.480469 7.480469-7.480469 4.132812 0 7.480469 3.347656 7.480469 7.480469v12.664062c-.003907 4.132813-3.351563 7.480469-7.480469 7.480469zm0 0"/><path d="m375.667969 205.0625c-4.132813 0-7.480469-3.347656-7.480469-7.480469v-12.664062c0-4.132813 3.347656-7.480469 7.480469-7.480469 4.132812 0 7.480469 3.347656 7.480469 7.480469v12.664062c-.003907 4.132813-3.351563 7.480469-7.480469 7.480469zm0 0"/><path d="m345.582031 119.652344c-4.132812 0-7.480469-3.347656-7.480469-7.476563v-12.664062c0-4.132813 3.347657-7.480469 7.480469-7.480469 4.132813 0 7.480469 3.347656 7.480469 7.480469v12.664062c0 4.128907-3.347656 7.476563-7.480469 7.476563zm0 0"/><path d="m345.582031 162.359375c-4.132812 0-7.480469-3.347656-7.480469-7.480469v-12.664062c0-4.128906 3.347657-7.480469 7.480469-7.480469 4.132813 0 7.480469 3.347656 7.480469 7.480469v12.664062c0 4.132813-3.347656 7.480469-7.480469 7.480469zm0 0"/><path d="m345.582031 205.0625c-4.132812 0-7.480469-3.347656-7.480469-7.480469v-12.664062c0-4.132813 3.347657-7.480469 7.480469-7.480469 4.132813 0 7.480469 3.347656 7.480469 7.480469v12.664062c0 4.132813-3.347656 7.480469-7.480469 7.480469zm0 0"/><path d="m315.496094 119.652344c-4.128906 0-7.476563-3.347656-7.476563-7.476563v-12.664062c0-4.132813 3.347657-7.480469 7.476563-7.480469 4.132812 0 7.480468 3.347656 7.480468 7.480469v12.664062c0 4.128907-3.347656 7.476563-7.480468 7.476563zm0 0"/><path d="m315.496094 162.359375c-4.128906 0-7.476563-3.347656-7.476563-7.480469v-12.664062c0-4.128906 3.347657-7.480469 7.476563-7.480469 4.132812 0 7.480468 3.347656 7.480468 7.480469v12.664062c0 4.132813-3.347656 7.480469-7.480468 7.480469zm0 0"/><path d="m315.496094 205.0625c-4.128906 0-7.476563-3.347656-7.476563-7.480469v-12.664062c0-4.132813 3.347657-7.480469 7.476563-7.480469 4.132812 0 7.480468 3.347656 7.480468 7.480469v12.664062c0 4.132813-3.347656 7.480469-7.480468 7.480469zm0 0"/><path d="m375.5 287.917969c-4.132812 0-7.480469-3.347657-7.480469-7.480469v-16.769531c0-4.128907 3.347657-7.480469 7.480469-7.480469s7.480469 3.347656 7.480469 7.480469v16.769531c0 4.132812-3.347657 7.480469-7.480469 7.480469zm0 0"/><path d="m375.5 334.699219c-4.132812 0-7.480469-3.347657-7.480469-7.480469v-16.769531c0-4.132813 3.347657-7.480469 7.480469-7.480469s7.480469 3.347656 7.480469 7.480469v16.769531c0 4.132812-3.347657 7.480469-7.480469 7.480469zm0 0"/><path d="m375.5 380.511719c-4.132812 0-7.480469-3.347657-7.480469-7.480469v-16.765625c0-4.132813 3.347657-7.480469 7.480469-7.480469s7.480469 3.347656 7.480469 7.480469v16.769531c0 4.128906-3.347657 7.476563-7.480469 7.476563zm0 0"/><path d="m375.5 427.046875c-4.132812 0-7.480469-3.351563-7.480469-7.480469v-16.769531c0-4.132813 3.347657-7.480469 7.480469-7.480469s7.480469 3.347656 7.480469 7.480469v16.769531c0 4.128906-3.347657 7.480469-7.480469 7.480469zm0 0"/><path d="m345.40625 287.917969c-4.128906 0-7.476562-3.347657-7.476562-7.480469v-16.769531c0-4.128907 3.347656-7.480469 7.476562-7.480469 4.132812 0 7.480469 3.347656 7.480469 7.480469v16.769531c0 4.132812-3.347657 7.480469-7.480469 7.480469zm0 0"/><path d="m345.40625 334.699219c-4.128906 0-7.476562-3.347657-7.476562-7.480469v-16.769531c0-4.132813 3.347656-7.480469 7.476562-7.480469 4.132812 0 7.480469 3.347656 7.480469 7.480469v16.769531c0 4.132812-3.347657 7.480469-7.480469 7.480469zm0 0"/><path d="m345.40625 380.511719c-4.128906 0-7.476562-3.347657-7.476562-7.480469v-16.765625c0-4.132813 3.347656-7.480469 7.476562-7.480469 4.132812 0 7.480469 3.347656 7.480469 7.480469v16.769531c0 4.128906-3.347657 7.476563-7.480469 7.476563zm0 0"/><path d="m345.40625 427.046875c-4.128906 0-7.476562-3.351563-7.476562-7.480469v-16.769531c0-4.132813 3.347656-7.480469 7.476562-7.480469 4.132812 0 7.480469 3.347656 7.480469 7.480469v16.769531c0 4.128906-3.347657 7.480469-7.480469 7.480469zm0 0"/><path d="m315.664062 287.917969c-4.132812 0-7.480468-3.347657-7.480468-7.480469v-16.769531c0-4.128907 3.347656-7.480469 7.480468-7.480469 4.128907 0 7.480469 3.347656 7.480469 7.480469v16.769531c0 4.132812-3.347656 7.480469-7.480469 7.480469zm0 0"/><path d="m315.664062 334.699219c-4.132812 0-7.480468-3.347657-7.480468-7.480469v-16.769531c0-4.132813 3.347656-7.480469 7.480468-7.480469 4.128907 0 7.480469 3.347656 7.480469 7.480469v16.769531c0 4.132812-3.347656 7.480469-7.480469 7.480469zm0 0"/><path d="m315.664062 380.511719c-4.132812 0-7.480468-3.347657-7.480468-7.480469v-16.765625c0-4.132813 3.347656-7.480469 7.480468-7.480469 4.128907 0 7.480469 3.347656 7.480469 7.480469v16.769531c0 4.128906-3.347656 7.476563-7.480469 7.476563zm0 0"/><path d="m315.664062 427.046875c-4.132812 0-7.480468-3.351563-7.480468-7.480469v-16.769531c0-4.132813 3.347656-7.480469 7.480468-7.480469 4.128907 0 7.480469 3.347656 7.480469 7.480469v16.769531c0 4.128906-3.347656 7.480469-7.480469 7.480469zm0 0"/><path d="m373.089844 504.269531h-50.292969v-54.863281c0-2.753906 2.230469-4.988281 4.984375-4.988281h40.320312c2.753907 0 4.988282 2.234375 4.988282 4.988281zm0 0" fill="#ececf1"/><path d="m373.09375 449.40625v54.859375h-17.894531v-54.859375c0-2.753906-2.230469-4.984375-4.984375-4.984375h17.890625c2.753906 0 4.988281 2.230469 4.988281 4.984375zm0 0" fill="#d3d3d8"/><path d="m496.542969 83.507812h-39.390625c-4.132813 0-7.480469 3.347657-7.480469 7.480469 0 4.132813 3.347656 7.480469 7.480469 7.480469h39.390625c.273437 0 .496093.222656.496093.5v397.820312h-75.324218v-253.445312c0-6.875-5.589844-12.46875-12.464844-12.46875h-1.984375v-132.40625h15.777344c4.132812 0 7.480469-3.347656 7.480469-7.480469 0-4.128906-3.347657-7.480469-7.480469-7.480469h-15.777344v-19.257812c0-2.71875-1.457031-5.09375-3.625-6.402344l-48.886719-53.308594c-2.347656-2.558593-5.6875-4.03125-9.160156-4.039062-3.464844.039062-6.820312 1.453125-9.179688 4.003906-.003906 0-.003906 0-.003906 0l-50.523437 54.667969c-.027344.03125-.050781.066406-.078125.097656-.207032.234375-.40625.476563-.582032.734375-.007812.011719-.023437.023438-.03125.039063-.183593.269531-.34375.554687-.492187.847656-.027344.058594-.058594.121094-.085937.179687-.132813.285157-.253907.578126-.351563.878907-.003906.007812-.007813.015625-.007813.023437-.101562.308594-.175781.628906-.234374.953125-.011719.070313-.019532.140625-.03125.210938-.039063.257812-.0625.519531-.074219.78125-.003907.074219-.011719.148437-.011719.222656 0 .035156-.003906.070313-.003906.105469v166.628906h-1.988282c-6.871093 0-12.464843 5.59375-12.464843 12.464844v260.929687c0 4.128907 3.347656 7.476563 7.480469 7.476563h227.589843c4.132813 0 7.480469-3.347656 7.480469-7.476563v-405.300781c0-8.527344-6.933594-15.460938-15.457031-15.460938zm-150.984375-66.859374 36.792968 40.121093h-73.875zm-46.699219 55.082031h93.445313l-.421876 159.148437h-93.023437zm66.75 425.058593h-35.332031v-44.890624h35.332031zm41.148437 0h-26.1875v-47.382812c0-6.875-5.59375-12.46875-12.46875-12.46875h-40.320312c-6.875 0-12.464844 5.59375-12.464844 12.46875v47.382812h-30.910156v-250.953124h122.351562zm0 0"/><path d="m467.625 128.316406h-20.945312c-4.128907 0-7.480469-3.347656-7.480469-7.480468 0-4.132813 3.351562-7.480469 7.480469-7.480469h20.945312c4.128906 0 7.480469 3.347656 7.480469 7.480469 0 4.132812-3.351563 7.480468-7.480469 7.480468zm0 0"/><path d="m467.625 176.101562h-20.945312c-4.128907 0-7.480469-3.347656-7.480469-7.480468 0-4.132813 3.351562-7.480469 7.480469-7.480469h20.945312c4.128906 0 7.480469 3.347656 7.480469 7.480469 0 4.132812-3.351563 7.480468-7.480469 7.480468zm0 0"/><path d="m467.625 223.886719h-20.945312c-4.128907 0-7.480469-3.347657-7.480469-7.480469 0-4.128906 3.351562-7.480469 7.480469-7.480469h20.945312c4.128906 0 7.480469 3.347657 7.480469 7.480469s-3.351563 7.480469-7.480469 7.480469zm0 0"/><path d="m467.625 271.671875h-20.945312c-4.128907 0-7.480469-3.347656-7.480469-7.480469 0-4.132812 3.351562-7.480468 7.480469-7.480468h20.945312c4.128906 0 7.480469 3.347656 7.480469 7.480468 0 4.132813-3.351563 7.480469-7.480469 7.480469zm0 0"/><path d="m467.625 319.457031h-20.945312c-4.128907 0-7.480469-3.347656-7.480469-7.480469 0-4.128906 3.351562-7.480468 7.480469-7.480468h20.945312c4.128906 0 7.480469 3.347656 7.480469 7.480468 0 4.132813-3.351563 7.480469-7.480469 7.480469zm0 0"/><path d="m467.625 367.242188h-20.945312c-4.128907 0-7.480469-3.347657-7.480469-7.480469 0-4.128907 3.351562-7.480469 7.480469-7.480469h20.945312c4.128906 0 7.480469 3.351562 7.480469 7.480469 0 4.132812-3.351563 7.480469-7.480469 7.480469zm0 0"/><path d="m467.625 415.027344h-20.945312c-4.128907 0-7.480469-3.347656-7.480469-7.476563 0-4.132812 3.351562-7.480469 7.480469-7.480469h20.945312c4.128906 0 7.480469 3.347657 7.480469 7.480469 0 4.128907-3.351563 7.476563-7.480469 7.476563zm0 0"/><path d="m135.367188 102.265625h-107.414063c-2.753906 0-4.984375 2.234375-4.984375 4.988281v41.292969h117.386719v-41.292969c0-2.753906-2.234375-4.988281-4.988281-4.988281zm0 0" fill="#ffcd6b"/><path d="m140.355469 107.25v41.296875h-17.480469v-41.296875c0-2.753906-2.234375-4.984375-4.984375-4.984375h17.480469c2.75-.003906 4.984375 2.230469 4.984375 4.984375zm0 0" fill="#ffc143"/><path d="m117.238281 55.820312h-71.152343c-2.753907 0-4.984376 2.230469-4.984376 4.984376v41.296874h81.121094v-41.292968c0-2.753906-2.230468-4.988282-4.984375-4.988282zm0 0" fill="#fa0"/><path d="m122.226562 60.808594v41.296875h-17.542968v-41.296875c0-2.753906-2.234375-4.988282-4.984375-4.988282h17.539062c2.753907 0 4.988281 2.234376 4.988281 4.988282zm0 0" fill="#ff9500"/><path d="m74.960938 504.269531v-215.523437c0-4.195313 3.800781-7.375 7.933593-6.628906l148.289063 26.722656c3.207031.578125 5.542968 3.371094 5.542968 6.628906v188.800781zm0 0" fill="#0573cf"/><path d="m236.722656 315.472656v188.792969h-16.421875v-195.285156c0-1.605469-.570312-3.101563-1.527343-4.269531l12.40625 4.128906c3.210937.578125 5.542968 3.371094 5.542968 6.632812zm0 0" fill="#005aaf"/><path d="m83.472656 171.007812h-43.902344c-4.128906 0-7.480468 3.347657-7.480468 7.476563 0 4.132813 3.351562 7.480469 7.480468 7.480469h43.902344c4.128906 0 7.476563-3.347656 7.476563-7.480469s-3.347657-7.476563-7.476563-7.476563zm0 0"/><path d="m123.753906 171.007812h-11.316406c-4.128906 0-7.476562 3.347657-7.476562 7.476563 0 4.132813 3.347656 7.480469 7.476562 7.480469h11.316406c4.128906 0 7.476563-3.347656 7.476563-7.480469s-3.347657-7.476563-7.476563-7.476563zm0 0"/><path d="m83.472656 208.929688h-43.902344c-4.128906 0-7.480468 3.347656-7.480468 7.476562 0 4.132812 3.351562 7.480469 7.480468 7.480469h43.902344c4.128906 0 7.476563-3.347657 7.476563-7.480469 0-4.128906-3.347657-7.476562-7.476563-7.476562zm0 0"/><path d="m123.753906 208.929688h-11.316406c-4.128906 0-7.476562 3.347656-7.476562 7.476562 0 4.132812 3.347656 7.480469 7.476562 7.480469h11.316406c4.128906 0 7.476563-3.347657 7.476563-7.480469 0-4.128906-3.347657-7.476562-7.476563-7.476562zm0 0"/><path d="m83.472656 246.847656h-43.902344c-4.128906 0-7.480468 3.347656-7.480468 7.480469s3.351562 7.480469 7.480468 7.480469h43.902344c4.128906 0 7.476563-3.347656 7.476563-7.480469 0-4.128906-3.347657-7.480469-7.476563-7.480469zm0 0"/><path d="m123.753906 246.847656h-11.316406c-4.128906 0-7.476562 3.347656-7.476562 7.480469s3.347656 7.480469 7.476562 7.480469h11.316406c4.128906 0 7.476563-3.347656 7.476563-7.480469 0-4.128906-3.347657-7.480469-7.476563-7.480469zm0 0"/><path d="m232.511719 301.480469-69.1875-12.46875v-35.710938c0-4.132812-3.351563-7.480469-7.480469-7.480469-4.132812 0-7.480469 3.347657-7.480469 7.480469v33.015625l-64.144531-11.558594c-4.15625-.75-8.398438.375-11.640625 3.082032-2.191406 1.832031-3.730469 4.253906-4.511719 6.929687h-28.496094c-4.132812 0-7.480468 3.347657-7.480468 7.476563 0 4.132812 3.347656 7.480468 7.480468 7.480468h27.910157v22.964844h-27.910157c-4.132812 0-7.480468 3.347656-7.480468 7.480469s3.347656 7.480469 7.480468 7.480469h27.910157v22.960937h-27.910157c-4.132812 0-7.480468 3.347657-7.480468 7.480469s3.347656 7.476562 7.480468 7.476562h27.910157v22.964844h-27.910157c-4.132812 0-7.480468 3.347656-7.480468 7.476563 0 4.132812 3.347656 7.480469 7.480468 7.480469h27.910157v83.296874h-52.519531v-340.761718h133.402343v62.199218c0 4.132813 3.347657 7.480469 7.480469 7.480469 4.128906 0 7.480469-3.347656 7.480469-7.480469v-64.695312c0-6.871094-5.59375-12.464844-12.46875-12.464844h-3.019531v-33.8125c0-6.875-5.59375-12.46875-12.46875-12.46875h-5.664063v-33.980468c0-6.871094-5.59375-12.464844-12.464844-12.464844h-28.097656v-26.429688c0-4.128906-3.347656-7.476562-7.480469-7.476562-4.128906 0-7.480468 3.347656-7.480468 7.476562v26.429688h-28.09375c-6.875 0-12.464844 5.59375-12.464844 12.464844v33.980468h-5.667969c-6.875 0-12.464844 5.59375-12.464844 12.46875v33.8125h-3.023437c-6.871094 0-12.464844 5.59375-12.464844 12.46875v350.734375c0 4.132813 3.347656 7.480469 7.480469 7.480469h229.246093c4.128907 0 7.476563-3.347656 7.476563-7.480469v-188.796875c0-6.886718-4.917969-12.773437-11.691406-13.992187zm-183.933594-238.179688h66.164063v31.320313h-66.164063zm-18.132813 46.445313h102.429688v31.320312h-102.429688zm198.800782 387.042968h-146.804688v-207.152343l146.804688 26.457031zm0 0"/><path d="m194.382812 504.269531h-77.078124v-76.25c0-20.257812 16.421874-36.683593 36.683593-36.683593h3.710938c20.261719 0 36.683593 16.425781 36.683593 36.683593zm0 0" fill="#c9f0ff"/><path d="m194.378906 428.023438v76.242187h-14.957031v-76.242187c0-18.347657-13.476563-33.546876-31.058594-36.257813 1.835938-.28125 3.710938-.429687 5.625-.429687h3.710938c20.253906 0 36.679687 16.425781 36.679687 36.6875zm0 0" fill="#9ae7fd"/><path d="m194.382812 511.75h-77.078124c-4.132813 0-7.480469-3.347656-7.480469-7.480469v-76.25c0-24.351562 19.8125-44.164062 44.164062-44.164062h3.710938c24.351562 0 44.164062 19.8125 44.164062 44.164062v76.25c0 4.132813-3.347656 7.480469-7.480469 7.480469zm-69.601562-14.960938h62.121094v-68.769531c0-16.101562-13.101563-29.203125-29.203125-29.203125h-3.710938c-16.105469 0-29.207031 13.101563-29.207031 29.203125zm0 0"/><path d="m120.851562 339.398438c-4.132812 0-7.480468-3.347657-7.480468-7.480469v-10.546875c0-4.128906 3.347656-7.480469 7.480468-7.480469 4.128907 0 7.476563 3.347656 7.476563 7.480469v10.546875c0 4.132812-3.347656 7.480469-7.476563 7.480469zm0 0"/><path d="m155.84375 339.398438c-4.132812 0-7.480469-3.347657-7.480469-7.480469v-10.546875c0-4.128906 3.347657-7.480469 7.480469-7.480469 4.128906 0 7.480469 3.347656 7.480469 7.480469v10.546875c0 4.132812-3.351563 7.480469-7.480469 7.480469zm0 0"/><path d="m190.835938 339.398438c-4.128907 0-7.480469-3.347657-7.480469-7.480469v-10.546875c0-4.128906 3.351562-7.480469 7.480469-7.480469 4.132812 0 7.480468 3.347656 7.480468 7.480469v10.546875c0 4.132812-3.347656 7.480469-7.480468 7.480469zm0 0"/><path d="m120.851562 379.789062c-4.132812 0-7.480468-3.347656-7.480468-7.480468v-10.546875c0-4.128907 3.347656-7.480469 7.480468-7.480469 4.128907 0 7.476563 3.347656 7.476563 7.480469v10.546875c0 4.128906-3.347656 7.480468-7.476563 7.480468zm0 0"/><path d="m155.84375 379.789062c-4.132812 0-7.480469-3.347656-7.480469-7.480468v-10.546875c0-4.128907 3.347657-7.480469 7.480469-7.480469 4.128906 0 7.480469 3.347656 7.480469 7.480469v10.546875c0 4.128906-3.351563 7.480468-7.480469 7.480468zm0 0"/><path d="m190.835938 379.789062c-4.128907 0-7.480469-3.347656-7.480469-7.480468v-10.546875c0-4.128907 3.351562-7.480469 7.480469-7.480469 4.132812 0 7.480468 3.347656 7.480468 7.480469v10.546875c0 4.128906-3.347656 7.480468-7.480468 7.480468zm0 0"/><path d="m231.527344 68.652344c8.441406 0 15.285156-6.84375 15.285156-15.285156 0-8.4375-6.84375-15.28125-15.285156-15.28125-1.011719 0-2 .105468-2.957032.292968-.261718-16.222656-13.484374-29.292968-29.769531-29.292968-16.449219 0-29.78125 13.332031-29.78125 29.78125 0 1.863281.179688 3.6875.507813 5.453124-2.785156-3.773437-7.25-6.234374-12.296875-6.234374-8.441407 0-15.28125 6.84375-15.28125 15.28125 0 8.441406 6.839843 15.285156 15.28125 15.285156zm0 0" fill="#83afe4"/><path d="m246.8125 53.371094c0 6.929687-4.617188 12.785156-10.949219 14.648437.191407-.96875.285157-1.960937.285157-2.984375 0-6.519531-4.292969-12.476562-10.488282-14.523437-3.246094-1.070313-5.878906.015625-7.851562-3.160157-1.417969-2.285156-1.046875-5.480468-2.042969-7.945312-1.476563-3.671875-3.695313-7.03125-6.476563-9.839844-5.5625-5.613281-13.25-8.820312-21.152343-8.820312-5.832031 0-11.269531 1.675781-15.851563 4.574218 4.914063-9.636718 14.945313-16.238281 26.515625-16.238281 16.28125 0 29.511719 13.070313 29.765625 29.300781.960938-.191406 1.953125-.300781 2.964844-.300781 8.4375 0 15.28125 6.84375 15.28125 15.289063zm0 0" fill="#5290d9"/><path d="m194.621094 221.394531c-5.96875 0-10.804688-4.835937-10.804688-10.804687s4.835938-10.804688 10.804688-10.804688c.714844 0 1.414062.074219 2.089844.207032.1875-11.46875 9.535156-20.710938 21.046874-20.710938 11.628907 0 21.054688 9.429688 21.054688 21.054688 0 1.320312-.125 2.605468-.359375 3.855468 1.96875-2.667968 5.125-4.40625 8.695313-4.40625 5.964843 0 10.800781 4.835938 10.800781 10.804688 0 5.964844-4.835938 10.804687-10.800781 10.804687zm0 0" fill="#83afe4"/><path d="m257.886719 209.386719c.445312 4.105469-1.515625 8.160156-5.003907 10.363281.859376-.542969-.984374-3.90625-1.355468-4.40625-.960938-1.292969-2.308594-2.285156-3.761719-2.964844-2.335937-1.09375-4.664063-.851562-7.148437-.34375-1.480469.300782-2.972657.546875-4.488282.425782-2.398437-.191407-4.847656-1.253907-6.148437-3.28125-2.621094-4.085938-.160157-9.609376-2.957031-13.710938-2.398438-3.527344-7.113282-5.753906-11.199219-6.371094-7.285157-1.105468-14.007813 1.539063-18.519531 6.285156 2.453124-10.226562 12.382812-17.539062 23.6875-15.855468 10.636718 1.582031 18.167968 10.785156 17.804687 21.535156-.035156 1.070312-.152344 2.113281-.34375 3.136719 2.246094-3.035157 6.015625-4.867188 10.179687-4.308594 4.84375.648437 8.722657 4.636719 9.253907 9.496094zm0 0" fill="#5290d9"/><path d="m254.289062 53.367188c0-11.304688-8.28125-20.710938-19.097656-22.464844-3.6875-16.699219-18.695312-29.296875-36.390625-29.296875-17.914062 0-32.917969 12.710937-36.464843 29.589843-1.664063-.386718-3.375-.589843-5.105469-.589843-12.550781 0-22.761719 10.210937-22.761719 22.761719 0 12.550781 10.210938 22.761718 22.761719 22.761718h74.300781c12.546875.003906 22.757812-10.210937 22.757812-22.761718zm-104.863281 0c0-4.300782 3.5-7.800782 7.800781-7.800782 2.496094 0 4.78125 1.164063 6.277344 3.191406 2.066406 2.804688 5.800782 3.8125 8.996094 2.425782 3.199219-1.386719 5.015625-4.796875 4.378906-8.226563-.253906-1.367187-.382812-2.742187-.382812-4.089843 0-12.300782 10.007812-22.304688 22.304687-22.304688 12.09375 0 22.09375 9.839844 22.292969 21.933594.035156 2.214844 1.046875 4.300781 2.769531 5.695312 1.71875 1.394532 3.96875 1.949219 6.140625 1.527344.519532-.101562 1.03125-.152344 1.523438-.152344 4.300781 0 7.800781 3.5 7.800781 7.800782 0 4.304687-3.5 7.804687-7.800781 7.804687h-74.300782c-4.300781 0-7.800781-3.5-7.800781-7.804687zm0 0"/><path d="m247.148438 192.308594c-.664063 0-1.320313.035156-1.972657.105468-3.445312-11.890624-14.433593-20.609374-27.417969-20.609374-13.046874 0-24.191406 8.949218-27.519531 21.03125-7.972656 1.96875-13.902343 9.183593-13.902343 17.753906 0 10.082031 8.203124 18.28125 18.285156 18.28125h52.527344c10.078124 0 18.28125-8.199219 18.28125-18.28125 0-10.082032-8.199219-18.28125-18.28125-18.28125zm0 21.605468h-52.527344c-1.832032 0-3.324219-1.492187-3.324219-3.324218 0-1.832032 1.492187-3.324219 3.324219-3.324219.207031 0 .421875.023437.652344.066406 2.175781.425781 4.421874-.132812 6.144531-1.527343 1.722656-1.394532 2.734375-3.476563 2.773437-5.691407.117188-7.363281 6.203125-13.351562 13.566406-13.351562 7.484376 0 13.578126 6.089843 13.578126 13.578125 0 .816406-.078126 1.65625-.234376 2.488281-.636718 3.429687 1.179688 6.839844 4.378907 8.226563 3.195312 1.390624 6.925781.382812 8.996093-2.421876.300782-.410156 1.167969-1.367187 2.671876-1.367187 1.832031 0 3.324218 1.492187 3.324218 3.324219 0 1.832031-1.492187 3.324218-3.324218 3.324218zm0 0"/></svg>