<?xml version="1.0" encoding="UTF-8"?>
<!DOCTYPE svg PUBLIC "-//W3C//DTD SVG 1.1//EN" "http://www.w3.org/Graphics/SVG/1.1/DTD/svg11.dtd">
<!-- Creator: CorelDRAW 2020 (64-Bit) -->
<svg xmlns="http://www.w3.org/2000/svg" xml:space="preserve" width="45.565mm" height="45.5638mm" version="1.1" style="shape-rendering:geometricPrecision; text-rendering:geometricPrecision; image-rendering:optimizeQuality; fill-rule:evenodd; clip-rule:evenodd"
viewBox="0 0 115.47 115.47"
 xmlns:xlink="http://www.w3.org/1999/xlink"
 xmlns:xodm="http://www.corel.com/coreldraw/odm/2003">
 <defs>
  <style type="text/css">
   <![CDATA[
    .fil0 {fill:black}
    .fil7 {fill:#6A5311}
    .fil5 {fill:#A9B1BC}
    .fil2 {fill:#E5E8EC}
    .fil1 {fill:#E6E6E6}
    .fil4 {fill:#FBD670}
    .fil6 {fill:#FEC629}
    .fil3 {fill:#FF826E}
   ]]>
  </style>
 </defs>
 <g id="Capa_x0020_1">
  <metadata id="CorelCorpID_0Corel-Layer"/>
  <g id="_1788610001296">
   <path class="fil0" d="M87.56 111.75c0,-6.88 -0.4,-3.42 1.52,-7.33 1.46,-2.98 7.88,-16.24 8.72,-17.22 0.8,0.55 2.47,3.55 3.08,4.74 3.58,7.06 3.44,11.99 3.44,19.82l-16.75 0zm-76.31 0c0,-5.24 -0.19,-9.45 1.25,-14.34 0.74,-2.49 3.55,-9.05 5.26,-10.22 0.86,1.01 7.32,14.37 8.8,17.38 0.63,1.28 1.4,1.67 1.46,2.97 0.06,1.31 -0.02,2.87 -0.02,4.21l-16.75 0zm95.19 -16.11c-2.53,-5.09 -0.82,-4.07 0.24,-7.28l3.62 1.1c-0.78,2.49 -2.34,4.72 -3.86,6.19zm-97.52 -7.19c1.27,3.87 2.66,1.46 0.21,7.19 -1.5,-1.49 -3.08,-3.68 -3.87,-6.21l3.65 -0.98zm102.62 -9.53c0.23,2.61 0.26,4.12 -0.11,6.74 -1.09,0.09 -2.4,-0.42 -3.39,-0.78 -0.12,-0.29 -0.05,0.17 -0.13,-0.54l0.05 -4.54 3.58 -0.87zm-17.16 -0.47c1.31,-0.62 2.67,0.59 2.42,2.04 -0.09,0.5 -11.22,23.24 -12.2,23.65 -1.39,0.58 -2.79,-0.6 -2.54,-2.07l5.06 -10.31c1.14,-2.28 2.25,-4.49 3.41,-6.82 0.78,-1.57 2.48,-5.84 3.86,-6.48zm-74.45 -0.01c1.51,-0.72 2.27,0.77 2.8,1.84l8.53 17.06c0.84,1.67 3.71,5.71 1.21,6.78 -2.33,0.99 -3.8,-3.68 -4.6,-5.26l-6.82 -13.65c-0.96,-1.92 -3.71,-5.54 -1.11,-6.77zm-12.54 1.13l0.44 0.31 -0.3 0.92c0.04,0.61 0.24,3.51 0.01,4.05 -0.73,0.27 -2.6,0.85 -3.39,0.79 -0.37,-2.62 -0.36,-4.13 -0.11,-6.75l3.35 0.67zm19.02 -0.41c11.76,-6.25 17.39,-4.64 31.38,-4.64 14.15,0 19.53,-1.61 31.38,4.64 -0.57,1.87 -2.73,5.65 -3.73,7.66 -1.3,2.6 -2.51,5.02 -3.8,7.6 -0.9,1.8 -3.37,5.93 -3.37,8.02 0.01,3.26 2.38,5.42 5.58,5.58l-0 3.73 -52.11 0 0 -3.73c3.26,-0.17 5.68,-2.41 5.57,-5.8 -0.09,-2.85 -9.83,-19.55 -10.89,-23.05zm72.32 -7.67c4.74,2.51 7.2,10.35 4.19,16.05 -0.61,-0.44 -1.1,-1.45 -1.59,-2.13 -0.57,-0.77 -1.07,-1.37 -1.67,-2.06 1.54,-2.92 1.17,-4.65 -0.55,-7.13 -0.67,-0.96 -0.38,-2.84 -0.38,-4.74zm-83.75 8.14c0,1.92 0.03,2.02 0.93,3.72 -0.59,0.68 -1.1,1.29 -1.67,2.06 -0.5,0.68 -0.98,1.69 -1.59,2.13 -3.16,-5.97 -0.29,-13.68 4.19,-16.05 0,6.32 0.18,3.17 -1.33,6.12 -0.32,0.62 -0.54,1.18 -0.54,2.02zm89.66 -7.87c0.58,-0.79 1.86,-1.87 2.64,-2.52 1.18,1.43 2.75,3.75 3.28,6.04l-3.46 0.8 -2.46 -4.32zm-99.62 3.49c0.61,-2.41 2.01,-4.46 3.27,-6.01 0.77,0.61 2.08,1.75 2.64,2.52l-2.48 4.37 -3.43 -0.88zm31.66 -7.99c0.54,-0.26 41.06,-0.34 41.98,-0.12 1.63,0.4 1.92,2.76 0.34,3.45 -0.56,0.25 -41.13,0.35 -42.08,0.12 -1.68,-0.41 -2.08,-2.56 -0.24,-3.45zm62.08 -4.32c2.52,0.77 4.11,2.41 5.86,3.34 -0.72,1.22 -1.64,2.13 -2.63,2.69 -1.1,-0.58 -1.79,-1.3 -3.25,-1.95l0.02 -4.08zm-87.8 3.34c1.73,-0.93 3.36,-2.58 5.88,-3.34l-0.05 4.08c-1.99,0.92 -2.35,1.52 -3.21,1.95 -1,-0.58 -1.88,-1.46 -2.63,-2.69zm71.52 -1.08c0.91,-1.13 2.25,-2.08 3.4,-3.55 1.03,-1.33 1.88,-2.3 2.9,-3.84 3.55,-0.31 5.99,2.06 6.21,5.29 0.23,3.51 0.02,7.82 0.02,11.41 -2.4,0.14 -2.39,0.76 -3.96,1.44 -1.36,-0.7 -2.45,-1.4 -3.99,-2.1 -1.33,-0.6 -2.94,-0.99 -4.19,-1.67 1.49,-3.51 1.31,-3.98 -0.39,-6.98zm-61.92 9.31c0,-3.52 -0.27,-8.27 0.03,-11.64 0.28,-3.09 2.72,-5.36 6.2,-5.07 2.93,4.45 4.65,5.32 6.3,7.39 -1.71,3.01 -1.88,3.47 -0.39,6.98 -1.28,0.79 -3.01,1.11 -4.35,1.75 -1.46,0.7 -2.52,1.35 -3.84,2.02 -1.56,-0.69 -1.57,-1.3 -3.96,-1.44zm34.05 -70.56c18.69,-1.84 32.96,11.58 36.01,26.76 2.42,12.08 -1.52,21.77 -8.64,29.6 -2.04,2.24 -2.63,3.06 -4.88,3.04l-31.65 -0.01c-9.44,0 -7.72,1.17 -12.32,-3.51 -4.78,-4.87 -8.9,-13.13 -8.85,-22.78 0.1,-17.72 13.74,-31.47 30.32,-33.1zm39.24 42.63c1.26,-6.48 1.71,-10.8 0.21,-17.44 -0.4,-1.75 -1.02,-3.27 -1.41,-4.89 2.85,-0.01 5.97,-0.83 6.09,2.31 0.17,4.56 -0.03,11.8 -0,16.77 0.02,3.83 -1.45,3.3 -4.89,3.24zm-72.13 0c-3.7,0.06 -4.91,0.57 -4.88,-3.48 0.12,-19.98 -1.97,-18.86 6.08,-18.85 -0.41,1.68 -1.05,3.22 -1.46,5.07 -1.55,6.96 -0.88,10.62 0.26,17.25zm2.8 -26.05c-2.29,0 -6.04,-0.41 -7.83,0.32 -1.75,0.71 -3.57,2.5 -3.57,4.8l0 19.54c0,2.08 1.5,3.72 2.94,4.5 1.71,0.93 4.31,0.62 6.83,0.62 0.35,1.5 1.31,2.58 1.63,3.95 -2.37,0.05 -4.54,1.85 -5.81,3.5 -1.54,2 -10.31,2.17 -15.83,12.78 -4.96,9.54 -3.31,19.65 3.56,27.85 2.89,3.44 1.09,0.09 1.09,6.35l0 10.7 100.5 0 0 -10.7c0,-6.95 -2.19,-2.31 2.36,-7.87 2.64,-3.23 5.08,-8.97 5.08,-13.53l0 -2.79c0,-9.45 -7.52,-18.69 -16.37,-21.55 -2.75,-0.89 -1.77,-1.11 -3.58,-2.71 -0.98,-0.87 -2.77,-2 -4.48,-2.04 0.32,-1.37 1.28,-2.46 1.63,-3.95 2.51,0 5.11,0.31 6.83,-0.62 1.44,-0.78 2.94,-2.42 2.94,-4.5l0 -19.54c0,-2.25 -1.74,-4 -3.41,-4.73 -1.93,-0.85 -5.51,-0.38 -7.99,-0.38 -2.91,-5.51 -6.92,-10.45 -12.14,-13.91 -13.36,-8.85 -28.89,-8.85 -42.25,0 -5.22,3.46 -9.23,8.4 -12.14,13.91z"/>
   <path class="fil1" d="M35.78 33.41c1.17,-0.17 2.38,0.28 3.62,0.48l-0.22 3.42 -3.78 -0.03 0.38 -3.87zm1.27 -4.16c1.09,-3.99 5.05,-8.15 7.58,-9.98 3.26,-2.35 7.82,-4.19 13.14,-4.3l0 3.72c-6.41,0.19 -11.25,2.83 -14.77,7.33 -1.43,1.83 -2.12,3.84 -2.68,4.45l-3.28 -1.22zm-5.22 10.38c0.52,5.84 4.2,14.39 8.19,15.9 2.02,0.77 20.13,0.38 23.81,0.38 10.78,0 12.86,1.73 17.24,-6.95 9.34,-18.48 -6.31,-41.86 -28.76,-37.13 -11.53,2.43 -21.75,13.55 -20.48,27.8z"/>
   <path class="fil2" d="M45.61 78.35c2.91,-0.55 12.07,-0.1 15.65,-0.1 5.45,0 10.68,-1.04 12.69,3.13 1.06,2.21 0.57,12.08 0.57,15.25 0,4.11 1.08,10.27 -4.52,11.29 -3.07,0.56 -12.04,0.11 -15.72,0.11 -5.44,0 -10.68,1.05 -12.69,-3.13 -1.06,-2.21 -0.57,-12.09 -0.57,-15.25 0,-5.39 -0.71,-10.3 4.59,-11.3zm-19.22 0.82c1.06,3.5 10.8,20.2 10.89,23.05 0.11,3.39 -2.31,5.64 -5.57,5.8l-0 3.73 52.11 0 0 -3.73c-3.2,-0.16 -5.57,-2.32 -5.58,-5.58 -0,-2.08 2.46,-6.21 3.37,-8.02 1.29,-2.58 2.5,-5 3.8,-7.6 1,-2 3.17,-5.79 3.73,-7.66 -11.85,-6.25 -17.23,-4.64 -31.38,-4.64 -13.99,0 -19.62,-1.61 -31.38,4.64z"/>
   <path class="fil2" d="M87.44 39.86c-0.7,7.35 -4.85,16.12 -9.39,18.64 -3,1.67 -8.94,1.14 -12.83,1.14 -4.65,0 -9.31,0 -13.96,0 -10.82,0 -14.37,1.53 -19.68,-8.24 -3.49,-6.42 -4.85,-15.25 -2.21,-22.97 4.92,-14.44 19.18,-23.48 34.33,-20.34 13.32,2.76 25.32,15.23 23.74,31.77zm-32.83 -35.89c-16.58,1.63 -30.22,15.38 -30.32,33.1 -0.06,9.65 4.06,17.91 8.85,22.78 4.6,4.68 2.87,3.51 12.32,3.51l31.65 0.01c2.25,0.03 2.84,-0.8 4.88,-3.04 7.13,-7.83 11.06,-17.53 8.64,-29.6 -3.05,-15.18 -17.32,-28.6 -36.01,-26.76z"/>
   <path class="fil0" d="M31.83 39.63c-1.27,-14.24 8.96,-25.37 20.48,-27.8 22.45,-4.73 38.1,18.65 28.76,37.13 -4.38,8.67 -6.46,6.95 -17.24,6.95 -3.68,0 -21.79,0.38 -23.81,-0.38 -3.99,-1.51 -7.67,-10.06 -8.19,-15.9zm55.61 0.23c1.57,-16.54 -10.42,-29 -23.74,-31.77 -15.16,-3.14 -29.41,5.9 -34.33,20.34 -2.63,7.72 -1.27,16.55 2.21,22.97 5.31,9.77 8.87,8.24 19.68,8.24 4.65,0 9.31,0 13.96,0 3.88,0 9.82,0.53 12.83,-1.14 4.54,-2.52 8.69,-11.29 9.39,-18.64z"/>
   <path class="fil3" d="M63.36 85.69l3.72 0 0 3.72 -3.72 0 0 -3.72zm-7.44 0l3.72 0 0 3.72 -3.72 0 0 -3.72zm-7.44 0l3.72 0 0 3.72 -3.72 0 0 -3.72zm-2.5 -3.53c-1.73,0.84 -1.22,2.74 -1.22,4.92l0 12.1c-0,1.81 -0.41,4.25 1.12,4.92 0.88,0.39 22.94,0.39 23.82,-0 1.53,-0.68 1.12,-3.12 1.12,-4.92l0 -12.1c0,-1.8 0.41,-4.25 -1.12,-4.93 -0.91,-0.4 -23,-0.34 -23.71,0z"/>
   <path class="fil0" d="M45.97 82.16c0.71,-0.35 22.81,-0.4 23.71,-0 1.53,0.67 1.12,3.12 1.12,4.93l0 12.1c0,1.81 0.41,4.25 -1.12,4.92 -0.88,0.39 -22.94,0.39 -23.82,0 -1.53,-0.67 -1.12,-3.12 -1.12,-4.92l0 -12.1c-0,-2.18 -0.51,-4.09 1.22,-4.92zm-0.36 -3.81c-5.29,1 -4.59,5.91 -4.59,11.3 0,3.16 -0.49,13.04 0.57,15.25 2.01,4.18 7.25,3.13 12.69,3.13 3.68,0 12.65,0.46 15.72,-0.11 5.6,-1.03 4.52,-7.18 4.52,-11.29 0,-3.16 0.49,-13.03 -0.57,-15.25 -2,-4.18 -7.24,-3.13 -12.69,-3.13 -3.59,0 -12.74,-0.45 -15.65,0.1z"/>
   <path class="fil2" d="M11.25 111.75l16.75 0c0,-1.34 0.08,-2.9 0.02,-4.21 -0.06,-1.3 -0.83,-1.69 -1.46,-2.97 -1.48,-3.02 -7.94,-16.37 -8.8,-17.38 -1.71,1.17 -4.52,7.73 -5.26,10.22 -1.45,4.89 -1.25,9.1 -1.25,14.34z"/>
   <path class="fil2" d="M87.56 111.75l16.75 0c0,-7.83 0.15,-12.76 -3.44,-19.82 -0.6,-1.19 -2.27,-4.19 -3.08,-4.74 -0.84,0.98 -7.26,14.24 -8.72,17.22 -1.92,3.91 -1.52,0.45 -1.52,7.33z"/>
   <path class="fil4" d="M20.55 74.53c2.39,0.14 2.4,0.75 3.96,1.44 1.32,-0.67 2.37,-1.32 3.84,-2.02 1.34,-0.64 3.07,-0.96 4.35,-1.75 -1.49,-3.51 -1.32,-3.97 0.39,-6.98 -1.65,-2.08 -3.37,-2.94 -6.3,-7.39 -3.48,-0.29 -5.92,1.97 -6.2,5.07 -0.31,3.37 -0.03,8.12 -0.03,11.64z"/>
   <path class="fil4" d="M82.47 65.22c1.7,3 1.87,3.47 0.39,6.98 1.25,0.69 2.86,1.07 4.19,1.67 1.54,0.7 2.63,1.4 3.99,2.1 1.56,-0.68 1.56,-1.3 3.96,-1.44 0,-3.6 0.22,-7.9 -0.02,-11.41 -0.22,-3.23 -2.66,-5.59 -6.21,-5.29 -1.02,1.54 -1.87,2.51 -2.9,3.84 -1.14,1.47 -2.49,2.42 -3.4,3.55z"/>
   <path class="fil5" d="M36.67 67.27c-1.84,0.89 -1.44,3.04 0.24,3.45 0.96,0.23 41.53,0.13 42.08,-0.12 1.58,-0.7 1.28,-3.06 -0.34,-3.45 -0.92,-0.23 -41.45,-0.14 -41.98,0.12z"/>
   <path class="fil4" d="M19.92 78.44c-2.6,1.23 0.15,4.85 1.11,6.77l6.82 13.65c0.79,1.58 2.26,6.25 4.6,5.26 2.51,-1.07 -0.37,-5.11 -1.21,-6.78l-8.53 -17.06c-0.52,-1.06 -1.28,-2.55 -2.8,-1.84z"/>
   <path class="fil4" d="M94.37 78.45c-1.37,0.65 -3.07,4.91 -3.86,6.48 -1.16,2.33 -2.27,4.54 -3.41,6.82l-5.06 10.31c-0.26,1.47 1.15,2.65 2.54,2.07 0.98,-0.41 12.12,-23.14 12.2,-23.65 0.25,-1.44 -1.1,-2.66 -2.42,-2.04z"/>
   <path class="fil5" d="M21.71 46.6c-1.14,-6.63 -1.8,-10.3 -0.26,-17.25 0.41,-1.85 1.05,-3.39 1.46,-5.07 -8.05,-0.02 -5.96,-1.13 -6.08,18.85 -0.03,4.04 1.19,3.54 4.88,3.48z"/>
   <path class="fil5" d="M93.84 46.6c3.44,0.06 4.91,0.59 4.89,-3.24 -0.03,-4.97 0.17,-12.21 0,-16.77 -0.12,-3.14 -3.24,-2.32 -6.09,-2.31 0.39,1.62 1.02,3.13 1.41,4.89 1.5,6.64 1.05,10.96 -0.21,17.44z"/>
   <path class="fil0" d="M37.05 29.25l3.28 1.22c0.57,-0.61 1.25,-2.61 2.68,-4.45 3.51,-4.5 8.35,-7.14 14.77,-7.33l0 -3.72c-5.33,0.11 -9.88,1.95 -13.14,4.3 -2.53,1.83 -6.49,5.98 -7.58,9.98z"/>
   <path class="fil6" d="M5.01 75.26l3.43 0.88 2.48 -4.37c-0.56,-0.77 -1.87,-1.91 -2.64,-2.52 -1.26,1.56 -2.67,3.6 -3.27,6.01z"/>
   <path class="fil6" d="M104.63 71.77l2.46 4.32 3.46 -0.8c-0.53,-2.29 -2.11,-4.6 -3.28,-6.04 -0.78,0.64 -2.06,1.72 -2.64,2.52z"/>
   <path class="fil6" d="M107.94 79.79l-0.05 4.54c0.08,0.72 0.01,0.25 0.13,0.54 0.99,0.36 2.3,0.87 3.39,0.78 0.37,-2.62 0.34,-4.12 0.11,-6.74l-3.58 0.87z"/>
   <path class="fil6" d="M7.52 80.81c0.01,-0.84 0.08,-0.61 -0.14,-1.24l-3.35 -0.67c-0.26,2.61 -0.27,4.13 0.11,6.75 0.79,0.06 2.67,-0.52 3.39,-0.79 0.23,-0.55 0.02,-3.45 -0.01,-4.05z"/>
   <path class="fil6" d="M106.43 95.63c1.51,-1.47 3.07,-3.7 3.86,-6.19l-3.62 -1.1c-1.06,3.21 -2.77,2.19 -0.24,7.28z"/>
   <path class="fil6" d="M5.26 89.42c0.78,2.53 2.36,4.72 3.87,6.21 2.45,-5.72 1.05,-3.32 -0.21,-7.19l-3.65 0.98z"/>
   <path class="fil6" d="M98.73 67.04c1.46,0.66 2.15,1.37 3.25,1.95 0.98,-0.56 1.91,-1.47 2.63,-2.69 -1.74,-0.93 -3.33,-2.57 -5.86,-3.34l-0.02 4.08z"/>
   <path class="fil6" d="M10.95 66.3c0.74,1.23 1.63,2.11 2.63,2.69 0.86,-0.43 1.22,-1.04 3.21,-1.95l0.05 -4.08c-2.52,0.76 -4.16,2.41 -5.88,3.34z"/>
   <path class="fil0" d="M35.4 37.28l3.78 0.03 0.22 -3.42c-1.24,-0.2 -2.45,-0.65 -3.62,-0.48l-0.38 3.87z"/>
   <polygon class="fil0" points="48.47,89.41 52.19,89.41 52.19,85.69 48.47,85.69 "/>
   <polygon class="fil0" points="55.92,89.41 59.64,89.41 59.64,85.69 55.92,85.69 "/>
   <polygon class="fil0" points="63.36,89.41 67.08,89.41 67.08,85.69 63.36,85.69 "/>
   <path class="fil7" d="M7.52 80.81l0.3 -0.92 -0.44 -0.31c0.23,0.62 0.16,0.4 0.14,1.24z"/>
  </g>
 </g>
</svg>
