<svg id="Capa_1" data-name="Capa 1" xmlns="http://www.w3.org/2000/svg" viewBox="0 0 300 300"><defs><style>.cls-1{fill:#455a64;}.cls-2{fill:#ffc107;}.cls-3{fill:#1d1d1b;}</style></defs><title>Iconos_finales</title><path class="cls-1" d="M169.741,39.536a7.91,7.91,0,0,0-8.377.949L84.5,101.986H47.765a15.812,15.812,0,0,0-15.806,15.806v63.224a15.812,15.812,0,0,0,15.806,15.806H84.5l76.865,61.5a7.919,7.919,0,0,0,12.85-6.18V46.665A7.927,7.927,0,0,0,169.741,39.536Z"/><path d="M87.281,196.822H47.765a15.812,15.812,0,0,1-15.806-15.806V117.792a15.812,15.812,0,0,1,15.806-15.806H87.28a7.906,7.906,0,0,1,7.9,7.9v79.03A7.9,7.9,0,0,1,87.281,196.822Zm-39.516-79.03v63.224H79.377V117.792Z"/><path class="cls-2" d="M208.671,207.57a7.9,7.9,0,0,1-5.548-13.514,63.11,63.11,0,0,0,.047-89.256l-.047-.047a7.9,7.9,0,0,1,11.064-11.239,78.913,78.913,0,0,1,.174,111.607l-.174.174A7.838,7.838,0,0,1,208.671,207.57Z"/><path class="cls-2" d="M230.957,229.857a7.9,7.9,0,0,1-5.563-13.514,94.365,94.365,0,0,0,.427-133.451l-.427-.427a7.9,7.9,0,1,1,10.21-12.06,8.9,8.9,0,0,1,.87.854,110.167,110.167,0,0,1,.522,155.8l-.522.522A8.039,8.039,0,0,1,230.957,229.857Z"/><path class="cls-3" d="M169.777,260.046a7.9,7.9,0,0,1-4.932-1.723L85.815,195.1a7.906,7.906,0,0,1,9.863-12.36h0l66.2,52.95V63.119l-45.456,32.21a7.906,7.906,0,1,1-9.863-12.36h0l58.29-42.485a7.9,7.9,0,0,1,12.835,6.18V252.143A7.906,7.906,0,0,1,169.777,260.046Z"/></svg>