<?xml version="1.0" encoding="UTF-8"?>
<!DOCTYPE svg PUBLIC "-//W3C//DTD SVG 1.1//EN" "http://www.w3.org/Graphics/SVG/1.1/DTD/svg11.dtd">
<!-- Creator: CorelDRAW 2020 (64-Bit) -->
<svg xmlns="http://www.w3.org/2000/svg" xml:space="preserve" width="215.9mm" height="215.9mm" version="1.1" style="shape-rendering:geometricPrecision; text-rendering:geometricPrecision; image-rendering:optimizeQuality; fill-rule:evenodd; clip-rule:evenodd"
viewBox="0 0 16987.98 16987.98"
 xmlns:xlink="http://www.w3.org/1999/xlink"
 xmlns:xodm="http://www.corel.com/coreldraw/odm/2003">
 <defs>
  <style type="text/css">
   <![CDATA[
    .fil5 {fill:#9196AA}
    .fil4 {fill:#BEC3D2}
    .fil3 {fill:#DCE1EB}
    .fil2 {fill:#F2F6FC}
    .fil1 {fill:#AD0E0E;fill-rule:nonzero}
    .fil0 {fill:#F15249;fill-rule:nonzero}
   ]]>
  </style>
 </defs>
 <g id="Capa_x0020_1">
  <metadata id="CorelCorpID_0Corel-Layer"/>
  <circle class="fil0" cx="8493.99" cy="8493.99" r="8493.99"/>
  <path class="fil1" d="M5131.64 14046.83l3473.69 2939.74c4639.71,-59.69 8382.65,-3838.71 8382.65,-8492.58 0,-99.46 -2.34,-198.35 -5.73,-296.98l-4056.11 -4559.91 -7794.5 10409.73z"/>
  <path class="fil2" d="M4094.45 3568.35l4319.94 0 0 2146.91 -4798.77 0c-211.82,0 -454.72,-185.06 -385.13,-385.13l478.83 -1376.65c69.59,-200.07 173.3,-385.13 385.13,-385.13z"/>
  <path class="fil3" d="M8414.39 3568.35l4314.58 0c211.83,0 318.26,184.15 385.13,385.13l458.01 1376.65c66.87,200.98 -173.31,385.13 -385.13,385.13l-4772.58 0 0 -2146.91z"/>
  <path class="fil3" d="M7321.37 2141.32l1093.01 0 0 716.62 -999.32 0 0 710.41 -749.48 0 0 -771.25c0,-360.68 295.1,-655.78 655.78,-655.78z"/>
  <path class="fil4" d="M8414.39 2141.32l1061.72 0c360.68,0 655.78,295.11 655.78,655.78l0 771.25 -713.02 0 0 -710.41 -1004.48 0 0 -716.62z"/>
  <path class="fil3" d="M8414.39 14501l-2373.37 0c-652.65,0 -1134.91,-536.05 -1186.66,-1186.66l-604.63 -7599.08 4164.66 0 0 8785.74z"/>
  <path class="fil4" d="M12516.85 5715.26l-584.14 7599.08c-50.01,650.73 -534.02,1186.66 -1186.66,1186.66l-2331.67 0 0 -8785.74 4102.47 0z"/>
  <path class="fil4" d="M8406.53 6131.65l0.01 0c2.62,0 5.24,0.05 7.84,0.1l0 7244.68c-2.6,0.06 -5.22,0.1 -7.84,0.1l-0.01 0c-198.95,0 -361.72,-162.79 -361.72,-361.71l0 -6521.46c0,-198.92 162.77,-361.71 361.72,-361.71z"/>
  <path class="fil5" d="M8414.39 6131.76c195.37,4.21 353.88,165.31 353.88,361.61l0 6521.46c0,196.3 -158.5,357.4 -353.88,361.61l0 -7244.68z"/>
  <path class="fil4" d="M6283.07 6131.65l0.01 0c198.95,0 350.63,163.11 361.72,361.71l364.32 6521.46c11.09,198.61 -162.77,361.71 -361.72,361.71l-0.01 0c-198.95,0 -350.63,-163.1 -361.72,-361.71l-364.32 -6521.46c-11.09,-198.62 162.77,-361.71 361.72,-361.71z"/>
  <path class="fil5" d="M10505.06 6131.65l-0.01 0c-198.95,0 -350.63,163.11 -361.72,361.71l-364.32 6521.46c-11.09,198.61 162.77,361.71 361.72,361.71l0.01 0c198.95,0 350.63,-163.1 361.72,-361.71l364.32 -6521.46c11.09,-198.62 -162.77,-361.71 -361.72,-361.71z"/>
 </g>
</svg>
