<?xml version="1.0" encoding="UTF-8"?>
<!DOCTYPE svg PUBLIC "-//W3C//DTD SVG 1.1//EN" "http://www.w3.org/Graphics/SVG/1.1/DTD/svg11.dtd">
<!-- Creator: CorelDRAW 2020 (64-Bit) -->
<svg xmlns="http://www.w3.org/2000/svg" xml:space="preserve" width="7.649mm" height="10.3509mm" version="1.1" style="shape-rendering:geometricPrecision; text-rendering:geometricPrecision; image-rendering:optimizeQuality; fill-rule:evenodd; clip-rule:evenodd"
viewBox="0 0 9.14 12.37"
 xmlns:xlink="http://www.w3.org/1999/xlink"
 xmlns:xodm="http://www.corel.com/coreldraw/odm/2003">
 <defs>
  <style type="text/css">
   <![CDATA[
    .fil7 {fill:black;fill-rule:nonzero}
    .fil2 {fill:#565C62;fill-rule:nonzero}
    .fil1 {fill:#596674;fill-rule:nonzero}
    .fil4 {fill:#BAB8B9;fill-rule:nonzero}
    .fil3 {fill:#D9D7D8;fill-rule:nonzero}
    .fil6 {fill:#E36465;fill-rule:nonzero}
    .fil0 {fill:#FADC60;fill-rule:nonzero}
    .fil5 {fill:#FD6F71;fill-rule:nonzero}
   ]]>
  </style>
 </defs>
 <g id="Capa_x0020_1">
  <metadata id="CorelCorpID_0Corel-Layer"/>
  <path class="fil0" d="M3 10.93c-0.31,0 -0.56,-0.25 -0.56,-0.56l0 -1.46c0,-0.31 0.25,-0.56 0.56,-0.56l2.78 0c1.14,0 2.07,-0.93 2.07,-2.07 0,-1.14 -0.93,-2.07 -2.07,-2.07l-0.77 0c-0.31,0 -0.56,-0.25 -0.56,-0.56 0,-0.31 0.25,-0.56 0.56,-0.56l0.77 0c1.76,0 3.19,1.43 3.19,3.19 0,1.76 -1.43,3.19 -3.19,3.19l-2.22 -0 0 0.9c0,0.31 -0.25,0.56 -0.56,0.56l0 0zm0 0z"/>
  <path class="fil1" d="M3.93 6.92l-1.87 0c-0.11,0 -0.21,-0.09 -0.21,-0.21l0 -6.21 2.28 0 0 6.21c0,0.11 -0.09,0.21 -0.21,0.21l0 0zm0 0z"/>
  <path class="fil2" d="M2.58 6.71l0 -6.21 -0.72 0 0 6.21c0,0.11 0.09,0.21 0.21,0.21l0.72 0c-0.11,0 -0.21,-0.09 -0.21,-0.21zm0 0z"/>
  <path class="fil3" d="M4.33 5.56l-2.66 0c-0.15,0 -0.28,-0.12 -0.28,-0.28l0 -3.26c0,-0.15 0.12,-0.28 0.28,-0.28l2.66 0c0.15,0 0.28,0.12 0.28,0.28l0 3.26c0,0.15 -0.12,0.28 -0.28,0.28zm0 0z"/>
  <path class="fil4" d="M2.12 5.28l0 -3.26c0,-0.15 0.12,-0.28 0.28,-0.28l-0.72 0c-0.15,0 -0.28,0.12 -0.28,0.28l0 3.26c0,0.15 0.12,0.28 0.28,0.28l0.72 0c-0.15,0 -0.28,-0.12 -0.28,-0.28l0 0zm0 0z"/>
  <path class="fil3" d="M4.26 1.18l-2.53 0c-0.06,0 -0.11,-0.05 -0.11,-0.11l0 -0.77c0,-0.06 0.05,-0.11 0.11,-0.11l2.53 0c0.06,0 0.11,0.05 0.11,0.11l0 0.77c0,0.06 -0.05,0.11 -0.11,0.11zm0 0z"/>
  <path class="fil4" d="M2.34 1.06l0 -0.77c0,-0.06 0.05,-0.11 0.11,-0.11l-0.72 0c-0.06,0 -0.11,0.05 -0.11,0.11l0 0.77c0,0.06 0.05,0.11 0.11,0.11l0.72 0c-0.06,0 -0.11,-0.05 -0.11,-0.11l-0 0zm0 0z"/>
  <path class="fil5" d="M5.81 3.65c0,0.67 -0.54,1.21 -1.21,1.21 -0.67,0 -1.21,-0.54 -1.21,-1.21 0,-0.67 0.54,-1.21 1.21,-1.21 0.67,0 1.21,0.54 1.21,1.21zm0 0z"/>
  <path class="fil6" d="M4.12 3.65c0,-0.54 0.36,-1 0.85,-1.15 -0.11,-0.04 -0.24,-0.06 -0.36,-0.06 -0.67,0 -1.21,0.54 -1.21,1.21 0,0.67 0.54,1.21 1.21,1.21 0.13,0 0.25,-0.02 0.36,-0.06 -0.49,-0.15 -0.85,-0.61 -0.85,-1.15zm0 0z"/>
  <path class="fil5" d="M5.25 9.47l-4.51 0c-0.31,0 -0.56,-0.25 -0.56,-0.56 0,-0.31 0.25,-0.56 0.56,-0.56l4.51 0c0.31,0 0.56,0.25 0.56,0.56 0,0.31 -0.25,0.56 -0.56,0.56zm0 0z"/>
  <path class="fil6" d="M0.91 8.91c0,-0.31 0.25,-0.56 0.56,-0.56l-0.72 0c-0.31,0 -0.56,0.25 -0.56,0.56 0,0.31 0.25,0.56 0.56,0.56l0.72 0c-0.31,0 -0.56,-0.25 -0.56,-0.56zm0 0z"/>
  <path class="fil1" d="M8.66 12.19l-8.18 0c-0.17,0 -0.3,-0.13 -0.3,-0.3l0 -1.25c0,-0.17 0.13,-0.3 0.3,-0.3l8.18 0c0.17,0 0.3,0.13 0.3,0.3l0 1.25c0,0.17 -0.13,0.3 -0.3,0.3zm0 0z"/>
  <path class="fil2" d="M0.91 11.89l0 -1.25c0,-0.17 0.13,-0.3 0.3,-0.3l-0.72 0c-0.17,0 -0.3,0.13 -0.3,0.3l0 1.25c0,0.17 0.13,0.3 0.3,0.3l0.72 0c-0.17,0 -0.3,-0.13 -0.3,-0.3zm0 0z"/>
  <path class="fil7" d="M8.66 10.16l-1.02 0c-0.1,0 -0.18,0.08 -0.18,0.18 0,0.1 0.08,0.18 0.18,0.18l1.02 0c0.07,0 0.12,0.05 0.12,0.12l0 1.25c0,0.07 -0.05,0.12 -0.12,0.12l-8.18 0c-0.07,0 -0.12,-0.05 -0.12,-0.12l0 -1.25c0,-0.07 0.05,-0.12 0.12,-0.12l6.48 0c0.1,0 0.18,-0.08 0.18,-0.18 0,-0.1 -0.08,-0.18 -0.18,-0.18l-3.22 0 0 -0.51 2.04 0c1.86,0 3.37,-1.51 3.37,-3.37 0,-1.85 -1.51,-3.36 -3.36,-3.37 -0.22,-0.34 -0.58,-0.58 -1,-0.64l0 -0.25c0,-0.25 -0.2,-0.46 -0.46,-0.46l-0.01 0 0 -0.22c0.14,-0.03 0.24,-0.15 0.24,-0.29l0 -0.77c-0,-0.16 -0.13,-0.3 -0.3,-0.3l-2.53 0c-0.16,0 -0.3,0.13 -0.3,0.3l0 0.77c0,0.14 0.1,0.26 0.24,0.29l0 0.22 -0.01 0c-0.25,0 -0.46,0.2 -0.46,0.46l0 3.26c0,0.25 0.2,0.46 0.46,0.46l0.01 0 0 0.98c0,0.21 0.17,0.39 0.39,0.39l1.87 0c0.21,0 0.39,-0.17 0.39,-0.39l0 -0.98 0.01 0c0.25,0 0.46,-0.2 0.46,-0.46l0 -0.25c0.42,-0.05 0.78,-0.3 1,-0.64 1.04,0 1.88,0.85 1.88,1.89 0,1.04 -0.85,1.89 -1.89,1.89l-5.03 0c-0.41,0 -0.74,0.33 -0.74,0.74 0,0.41 0.33,0.74 0.74,0.74l1.52 0 0 0.51 -1.77 0c-0.27,0 -0.48,0.22 -0.48,0.48l0 1.25c0,0.27 0.22,0.48 0.48,0.48l8.18 0c0.27,0 0.48,-0.22 0.48,-0.48l0 -1.25c0,-0.27 -0.22,-0.48 -0.48,-0.48zm-6.86 -9.79l2.4 0 0 0.63 -2.4 0 0 -0.63zm0.24 0.99l1.92 0 0 0.21 -1.92 0 0 -0.21zm2.29 4.02l-0.99 0c-0.1,0 -0.18,0.08 -0.18,0.18 0,0.1 0.08,0.18 0.18,0.18l0.62 0 0 0.98c0,0.01 -0.01,0.03 -0.03,0.03l-1.87 0c-0.01,0 -0.03,-0.01 -0.03,-0.03l0 -0.98 0.62 0c0.1,0 0.18,-0.08 0.18,-0.18 0,-0.1 -0.08,-0.18 -0.18,-0.18l-0.99 0c-0.05,0 -0.09,-0.04 -0.09,-0.09l0 -3.26c0,-0.05 0.04,-0.09 0.09,-0.09l2.66 0c0.05,0 0.09,0.04 0.09,0.09l0 0.25c-0.68,0.09 -1.21,0.67 -1.21,1.38 0,0.71 0.53,1.29 1.21,1.38l0 0.25c0,0.05 -0.04,0.09 -0.09,0.09l0 0zm0.28 -0.69c0,0 -0,-0 -0,-0 -0,0 -0,0 -0,0 -0.57,-0 -1.03,-0.46 -1.03,-1.03 0,-0.57 0.46,-1.03 1.03,-1.03 0.57,0 1.03,0.46 1.03,1.03 0,0.57 -0.46,1.03 -1.03,1.03l0 0zm3.42 1.6c0,-1.18 -0.92,-2.16 -2.08,-2.24 0.04,-0.12 0.05,-0.25 0.05,-0.38 0,-0.13 -0.02,-0.25 -0.05,-0.37 1.58,0.09 2.84,1.4 2.84,3 0,1.62 -1.29,2.94 -2.89,3 0.07,-0.11 0.1,-0.24 0.1,-0.38 0,-0.14 -0.04,-0.27 -0.11,-0.38 1.19,-0.06 2.13,-1.04 2.13,-2.25l0 0zm-7.66 2.63c0,-0.21 0.17,-0.38 0.38,-0.38l4.51 0c0.21,0 0.38,0.17 0.38,0.38 0,0.21 -0.17,0.38 -0.38,0.38l-2.81 0c-0,0 -0,-0 -0,-0 -0,0 -0,0 -0,0l-1.7 0c-0.21,0 -0.38,-0.17 -0.38,-0.38l0 0zm2.26 0.74l0.76 0 0 0.51 -0.76 0 0 -0.51zm0 0z"/>
 </g>
</svg>
