<?xml version="1.0" encoding="UTF-8"?>
<!DOCTYPE svg PUBLIC "-//W3C//DTD SVG 1.1//EN" "http://www.w3.org/Graphics/SVG/1.1/DTD/svg11.dtd">
<!-- Creator: CorelDRAW 2020 (64-Bit) -->
<svg xmlns="http://www.w3.org/2000/svg" xml:space="preserve" width="15.9572mm" height="15.9571mm" version="1.1" style="shape-rendering:geometricPrecision; text-rendering:geometricPrecision; image-rendering:optimizeQuality; fill-rule:evenodd; clip-rule:evenodd"
viewBox="0 0 2.99 2.99"
 xmlns:xlink="http://www.w3.org/1999/xlink"
 xmlns:xodm="http://www.corel.com/coreldraw/odm/2003">
 <defs>
  <style type="text/css">
   <![CDATA[
    .fil0 {fill:#EBECF1}
    .fil8 {fill:black;fill-rule:nonzero}
    .fil3 {fill:#565C62;fill-rule:nonzero}
    .fil2 {fill:#596674;fill-rule:nonzero}
    .fil5 {fill:#BAB8B9;fill-rule:nonzero}
    .fil4 {fill:#D9D7D8;fill-rule:nonzero}
    .fil7 {fill:#E36465;fill-rule:nonzero}
    .fil1 {fill:#FADC60;fill-rule:nonzero}
    .fil6 {fill:#FD6F71;fill-rule:nonzero}
   ]]>
  </style>
 </defs>
 <g id="Capa_x0020_1">
  <metadata id="CorelCorpID_0Corel-Layer"/>
  <circle class="fil0" cx="1.5" cy="1.5" r="1.5"/>
  <g id="_2768154084496">
   <path class="fil1" d="M1.22 2.29c-0.06,0 -0.11,-0.05 -0.11,-0.11l0 -0.28c0,-0.06 0.05,-0.11 0.11,-0.11l0.52 0c0.21,0 0.39,-0.17 0.39,-0.39 0,-0.21 -0.17,-0.39 -0.39,-0.39l-0.14 0c-0.06,0 -0.11,-0.05 -0.11,-0.11 0,-0.06 0.05,-0.11 0.11,-0.11l0.14 0c0.33,0 0.6,0.27 0.6,0.6 0,0.33 -0.27,0.6 -0.6,0.6l-0.42 0 0 0.17c0,0.06 -0.05,0.11 -0.11,0.11l0 0zm0 0z"/>
   <path class="fil2" d="M1.4 1.53l-0.35 0c-0.02,0 -0.04,-0.02 -0.04,-0.04l0 -1.17 0.43 0 0 1.17c0,0.02 -0.02,0.04 -0.04,0.04l0 0zm0 0z"/>
   <path class="fil3" d="M1.14 1.49l0 -1.17 -0.14 0 0 1.17c0,0.02 0.02,0.04 0.04,0.04l0.14 0c-0.02,0 -0.04,-0.02 -0.04,-0.04zm0 0z"/>
   <path class="fil4" d="M1.47 1.28l-0.5 0c-0.03,0 -0.05,-0.02 -0.05,-0.05l0 -0.61c0,-0.03 0.02,-0.05 0.05,-0.05l0.5 0c0.03,0 0.05,0.02 0.05,0.05l0 0.61c0,0.03 -0.02,0.05 -0.05,0.05zm0 0z"/>
   <path class="fil5" d="M1.06 1.22l0 -0.61c0,-0.03 0.02,-0.05 0.05,-0.05l-0.14 0c-0.03,0 -0.05,0.02 -0.05,0.05l0 0.61c0,0.03 0.02,0.05 0.05,0.05l0.14 0c-0.03,0 -0.05,-0.02 -0.05,-0.05l0 0zm0 0z"/>
   <path class="fil4" d="M1.46 0.45l-0.48 0c-0.01,0 -0.02,-0.01 -0.02,-0.02l0 -0.14c0,-0.01 0.01,-0.02 0.02,-0.02l0.48 0c0.01,0 0.02,0.01 0.02,0.02l0 0.14c0,0.01 -0.01,0.02 -0.02,0.02zm0 0z"/>
   <path class="fil5" d="M1.1 0.43l0 -0.14c0,-0.01 0.01,-0.02 0.02,-0.02l-0.14 0c-0.01,0 -0.02,0.01 -0.02,0.02l0 0.14c0,0.01 0.01,0.02 0.02,0.02l0.14 0c-0.01,0 -0.02,-0.01 -0.02,-0.02l0 0zm0 0z"/>
   <path class="fil6" d="M1.75 0.92c0,0.13 -0.1,0.23 -0.23,0.23 -0.13,0 -0.23,-0.1 -0.23,-0.23 0,-0.13 0.1,-0.23 0.23,-0.23 0.13,0 0.23,0.1 0.23,0.23zm0 0z"/>
   <path class="fil7" d="M1.43 0.92c0,-0.1 0.07,-0.19 0.16,-0.22 -0.02,-0.01 -0.04,-0.01 -0.07,-0.01 -0.13,0 -0.23,0.1 -0.23,0.23 0,0.13 0.1,0.23 0.23,0.23 0.02,0 0.05,-0 0.07,-0.01 -0.09,-0.03 -0.16,-0.12 -0.16,-0.22zm0 0z"/>
   <path class="fil6" d="M1.65 2.01l-0.85 0c-0.06,0 -0.11,-0.05 -0.11,-0.11 0,-0.06 0.05,-0.11 0.11,-0.11l0.85 0c0.06,0 0.11,0.05 0.11,0.11 0,0.06 -0.05,0.11 -0.11,0.11zm0 0z"/>
   <path class="fil7" d="M0.83 1.91c0,-0.06 0.05,-0.11 0.11,-0.11l-0.14 0c-0.06,0 -0.11,0.05 -0.11,0.11 0,0.06 0.05,0.11 0.11,0.11l0.14 0c-0.06,0 -0.11,-0.05 -0.11,-0.11zm0 0z"/>
   <path class="fil2" d="M2.29 2.52l-1.54 0c-0.03,0 -0.06,-0.03 -0.06,-0.06l0 -0.23c0,-0.03 0.03,-0.06 0.06,-0.06l1.54 0c0.03,0 0.06,0.03 0.06,0.06l0 0.23c0,0.03 -0.03,0.06 -0.06,0.06zm0 0z"/>
   <path class="fil3" d="M0.83 2.47l0 -0.23c0,-0.03 0.03,-0.06 0.06,-0.06l-0.14 0c-0.03,0 -0.06,0.03 -0.06,0.06l0 0.23c0,0.03 0.03,0.06 0.06,0.06l0.14 0c-0.03,0 -0.06,-0.03 -0.06,-0.06zm0 0z"/>
   <path class="fil8" d="M2.29 2.14l-0.19 0c-0.02,0 -0.03,0.02 -0.03,0.03 0,0.02 0.02,0.03 0.03,0.03l0.19 0c0.01,0 0.02,0.01 0.02,0.02l0 0.23c0,0.01 -0.01,0.02 -0.02,0.02l-1.54 0c-0.01,0 -0.02,-0.01 -0.02,-0.02l0 -0.23c0,-0.01 0.01,-0.02 0.02,-0.02l1.22 0c0.02,0 0.03,-0.02 0.03,-0.03 0,-0.02 -0.02,-0.03 -0.03,-0.03l-0.61 -0 0 -0.1 0.38 0c0.35,0 0.63,-0.28 0.63,-0.63 0,-0.35 -0.28,-0.63 -0.63,-0.63 -0.04,-0.06 -0.11,-0.11 -0.19,-0.12l0 -0.05c0,-0.05 -0.04,-0.09 -0.09,-0.09l-0 0 0 -0.04c0.03,-0 0.05,-0.03 0.05,-0.05l0 -0.14c-0,-0.03 -0.02,-0.06 -0.06,-0.06l-0.48 0c-0.03,0 -0.06,0.02 -0.06,0.06l0 0.14c0,0.03 0.02,0.05 0.05,0.05l0 0.04 -0 0c-0.05,0 -0.09,0.04 -0.09,0.09l0 0.61c0,0.05 0.04,0.09 0.09,0.09l0 0 0 0.18c0,0.04 0.03,0.07 0.07,0.07l0.35 0c0.04,0 0.07,-0.03 0.07,-0.07l0 -0.18 0 0c0.05,0 0.09,-0.04 0.09,-0.09l0 -0.05c0.08,-0.01 0.15,-0.06 0.19,-0.12 0.2,0 0.35,0.16 0.35,0.35 0,0.2 -0.16,0.35 -0.35,0.35l-0.95 0c-0.08,0 -0.14,0.06 -0.14,0.14 0,0.08 0.06,0.14 0.14,0.14l0.29 0 0 0.1 -0.33 0c-0.05,0 -0.09,0.04 -0.09,0.09l0 0.23c0,0.05 0.04,0.09 0.09,0.09l1.54 0c0.05,0 0.09,-0.04 0.09,-0.09l0 -0.23c0,-0.05 -0.04,-0.09 -0.09,-0.09zm-1.29 -1.84l0.45 0 0 0.12 -0.45 0 0 -0.12zm0.05 0.19l0.36 0 0 0.04 -0.36 0 0 -0.04zm0.43 0.76l-0.19 0c-0.02,0 -0.03,0.02 -0.03,0.03 0,0.02 0.02,0.03 0.03,0.03l0.12 0 0 0.18c0,0 -0,0 -0,0l-0.35 0c-0,0 -0,-0 -0,-0l0 -0.18 0.12 0c0.02,0 0.03,-0.02 0.03,-0.03 0,-0.02 -0.02,-0.03 -0.03,-0.03l-0.19 -0c-0.01,0 -0.02,-0.01 -0.02,-0.02l0 -0.61c0,-0.01 0.01,-0.02 0.02,-0.02l0.5 0c0.01,0 0.02,0.01 0.02,0.02l0 0.05c-0.13,0.02 -0.23,0.13 -0.23,0.26 0,0.13 0.1,0.24 0.23,0.26l0 0.05c0,0.01 -0.01,0.02 -0.02,0.02l0 -0zm0.05 -0.13c-0,0 -0,-0 -0,-0 -0,0 -0,0 -0,0 -0.11,-0 -0.19,-0.09 -0.19,-0.19 0,-0.11 0.09,-0.19 0.19,-0.19 0.11,0 0.19,0.09 0.19,0.19 0,0.11 -0.09,0.19 -0.19,0.19l0 0zm0.64 0.3c0,-0.22 -0.17,-0.41 -0.39,-0.42 0.01,-0.02 0.01,-0.05 0.01,-0.07 0,-0.02 -0,-0.05 -0.01,-0.07 0.3,0.02 0.53,0.26 0.53,0.56 0,0.3 -0.24,0.55 -0.54,0.56 0.01,-0.02 0.02,-0.04 0.02,-0.07 0,-0.03 -0.01,-0.05 -0.02,-0.07 0.22,-0.01 0.4,-0.2 0.4,-0.42l0 0zm-1.44 0.49c0,-0.04 0.03,-0.07 0.07,-0.07l0.85 0c0.04,0 0.07,0.03 0.07,0.07 0,0.04 -0.03,0.07 -0.07,0.07l-0.53 0c-0,0 -0,-0 -0,-0 -0,0 -0,0 -0,0l-0.32 0c-0.04,0 -0.07,-0.03 -0.07,-0.07l0 0zm0.42 0.14l0.14 0 0 0.1 -0.14 -0 0 -0.1zm0 0z"/>
  </g>
 </g>
</svg>
