<svg id="Capa_1" data-name="Capa 1" xmlns="http://www.w3.org/2000/svg" viewBox="0 0 300 300"><defs><style>.cls-1{fill:#ffdecf;}.cls-2{fill:#e56161;}</style></defs><title>Iconos_finales</title><g id="User_Block" data-name="User Block"><g id="Filled"><path class="cls-1" d="M99.951,248.494h97.266v-5.177a84.037,84.037,0,0,0-24.426-27.483V200.209c20.832-13.247,37.851-36.259,37.851-61.037a57.379,57.379,0,0,0-57.377-57.381h-2.33a56.2,56.2,0,0,0-56.2,56.195L82.32,162.822a3.516,3.516,0,0,0,1.574,4.717l.116.055,10.73,4.878,5.716,21.459a7.024,7.024,0,0,0,6.823,5.356h23.876v15.966a79.1,79.1,0,0,0-31.2,29.456Z"/><path class="cls-2" d="M150,32.663A117.339,117.339,0,1,0,267.34,150,117.339,117.339,0,0,0,150,32.663ZM244.629,150A94.2,94.2,0,0,1,225.7,206.781L93.222,74.3A94.629,94.629,0,0,1,244.629,150ZM55.373,150A94.211,94.211,0,0,1,74.3,93.225L206.783,225.709A94.633,94.633,0,0,1,55.373,150Z"/></g><g id="Outline"><path d="M268.186,123.367a120.594,120.594,0,0,0-21.594-46.462,122.051,122.051,0,0,0-17.374-18.533,3.785,3.785,0,1,0-4.954,5.725h0A113.554,113.554,0,1,1,62.2,222.012a3.785,3.785,0,1,0-5.978,4.644c.042.054.085.107.13.159A121.136,121.136,0,0,0,268.186,123.367Z"/><path d="M50.442,208.347a3.823,3.823,0,0,0-2.006.578,3.784,3.784,0,1,0,2.006-.578Z"/><path d="M212.6,55.244a3.784,3.784,0,1,0-1.623-2.4A3.785,3.785,0,0,0,212.6,55.244Z"/><path d="M46.714,197.253l0-.014A113.6,113.6,0,0,1,199.893,47.968a3.786,3.786,0,1,0,3.331-6.8h0a120.6,120.6,0,0,0-53.215-12.293H150a121.793,121.793,0,0,0-24.409,2.465A121.036,121.036,0,0,0,28.876,150a121.965,121.965,0,0,0,2.839,26.189A120.325,120.325,0,0,0,39.834,200.4a3.79,3.79,0,0,0,3.44,2.21h.005a3.689,3.689,0,0,0,1.57-.345A3.785,3.785,0,0,0,46.714,197.253Z"/><path d="M71.272,90.949A97.529,97.529,0,0,0,51.587,150,98.525,98.525,0,0,0,150,248.413a97.532,97.532,0,0,0,59.051-19.682l3.484-2.622L73.892,87.464ZM200.943,225.222A89.958,89.958,0,0,1,150,240.843,90.946,90.946,0,0,1,59.157,150,89.964,89.964,0,0,1,74.778,99.056Z"/><path d="M228.728,209.052A97.532,97.532,0,0,0,248.411,150,98.525,98.525,0,0,0,150,51.587,97.522,97.522,0,0,0,90.949,71.273l-3.485,2.619L226.108,212.535ZM99.056,74.778A89.979,89.979,0,0,1,150,59.157,90.946,90.946,0,0,1,240.843,150a89.966,89.966,0,0,1-15.621,50.943Z"/><path d="M153.26,78.007h-2.323a59.449,59.449,0,0,0-25.208,5.542,3.785,3.785,0,1,0,3.187,6.867,51.919,51.919,0,0,1,22.021-4.838h2.323a53.593,53.593,0,0,1,53.6,53.59v0a56.394,56.394,0,0,1-5.47,23.726,3.785,3.785,0,1,0,6.846,3.23l.026-.055a63.9,63.9,0,0,0,6.169-26.9,61.165,61.165,0,0,0-61.165-61.163Z"/><path d="M82.446,171.041l9.1,4.132,5.246,19.7a10.78,10.78,0,0,0,10.489,8.2h20.09v9.933a84.581,84.581,0,0,0-10.775,7.186,3.785,3.785,0,1,0,4.639,5.982l.038-.03a77.5,77.5,0,0,1,11.652-7.545l2.016-1.066V195.5H107.28a3.229,3.229,0,0,1-3.145-2.468l-6.2-23.271-12.106-5.5L98.529,138.88v-.893c0-.886.022-1.775.066-2.643a3.785,3.785,0,0,0-7.561-.382h0c-.035.7-.058,1.407-.069,2.118L78.94,161.126a7.236,7.236,0,0,0-.359,5.693A7.355,7.355,0,0,0,82.446,171.041Z"/><path d="M178.858,225.793a3.785,3.785,0,1,0,5.194-5.508,95.393,95.393,0,0,0-7.476-6.346v-3.3a3.785,3.785,0,1,0-7.57,0v7.107l1.546,1.136A88.143,88.143,0,0,1,178.858,225.793Z"/></g></g></svg>