<svg id="Layer_35" enable-background="new 0 0 64 64" height="512" viewBox="0 0 64 64" width="512" xmlns="http://www.w3.org/2000/svg"><path d="m26.53 5.11c1.49.4 2.9.99 4.21 1.75l.47.16c-3.63.19-6.91 1.67-9.4 3.99-5.99.11-10.81 4.98-10.81 10.99s4.82 10.88 10.81 10.99c2.21 2.07 5.06 3.46 8.21 3.88l-.02.13v.54c-1.1.57-2.26 1.02-3.47 1.35l-.78 3.11h-7.5l-.78-3.11c-1.49-.4-2.9-.99-4.21-1.75l-2.75 1.65-5.3-5.3 1.65-2.75c-.76-1.31-1.35-2.72-1.75-4.21l-3.11-.78v-7.5l3.11-.78c.4-1.49.99-2.9 1.75-4.21l-1.65-2.75 5.3-5.3 2.75 1.65c1.31-.76 2.72-1.35 4.21-1.75l.78-3.11h7.5z" fill="#fcd770"/><path d="m62 18.25v7.5l-3.11.78c-.4 1.49-.99 2.9-1.75 4.21l1.65 2.75-5.3 5.3-2.75-1.65c-1.31.76-2.72 1.35-4.21 1.75l-.78 3.11h-7.5l-.78-3.11c-1.21-.33-2.37-.78-3.47-1.35v-.54l-.02-.13c3.15-.42 6-1.81 8.21-3.88 5.99-.11 10.81-4.98 10.81-10.99s-4.82-10.88-10.81-10.99c-2.49-2.32-5.77-3.8-9.4-3.99l.47-.16c1.31-.76 2.72-1.35 4.21-1.75l.78-3.11h7.5l.78 3.11c1.49.4 2.9.99 4.21 1.75l2.75-1.65 5.3 5.3-1.65 2.75c.76 1.31 1.35 2.72 1.75 4.21z" fill="#fcd770"/><path d="m37 48v9c0 1.38-.56 2.63-1.46 3.54-.91.9-2.16 1.46-3.54 1.46-2.76 0-5-2.24-5-5v-9z" fill="#cf9e76"/><path d="m37 44v4h-10v-4h3 4z" fill="#ffc729"/><path d="m34 37.54v6.46h-4v-6.46-.54l.02-.13c.64.09 1.31.13 1.98.13s1.34-.04 1.98-.13l.02.13z" fill="#aab2bd"/><path d="m31.21 7.02c.26-.01.52-.02.79-.02s.53.01.79.02c3.63.19 6.91 1.67 9.4 3.99 2.96 2.73 4.81 6.65 4.81 10.99s-1.85 8.26-4.81 10.99c-2.21 2.07-5.06 3.46-8.21 3.88-.64.09-1.31.13-1.98.13s-1.34-.04-1.98-.13c-3.15-.42-6-1.81-8.21-3.88-2.96-2.73-4.81-6.65-4.81-10.99s1.85-8.26 4.81-10.99c2.49-2.32 5.77-3.8 9.4-3.99z" fill="#e6e9ed"/><circle cx="32" cy="22" fill="#69d6f4" r="10"/><path d="m32 33c6.065 0 11-4.935 11-11s-4.935-11-11-11-11 4.935-11 11 4.935 11 11 11zm0-20c4.962 0 9 4.038 9 9s-4.038 9-9 9-9-4.038-9-9 4.038-9 9-9z"/><path d="m63 26.531v-9.062l-3.31-.828c-.353-1.17-.819-2.297-1.391-3.365l1.754-2.922-6.408-6.408-2.922 1.754c-1.067-.572-2.195-1.038-3.365-1.391l-.827-3.309h-9.062l-.828 3.31c-1.331.402-2.607.95-3.802 1.632l-.249.088c-.197-.007-.391-.03-.59-.03s-.393.023-.591.03l-.249-.088c-1.195-.683-2.472-1.23-3.802-1.632l-.827-3.31h-9.062l-.828 3.31c-1.17.353-2.297.819-3.364 1.391l-2.922-1.754-6.408 6.408 1.754 2.922c-.572 1.067-1.038 2.195-1.391 3.365l-3.31.827v9.062l3.31.828c.353 1.17.819 2.297 1.391 3.364l-1.754 2.922 6.408 6.408 2.922-1.754c1.067.572 2.194 1.038 3.364 1.391l.828 3.31h8.531v14c0 3.309 2.691 6 6 6s6-2.691 6-6v-14h8.531l.828-3.31c1.17-.353 2.297-.819 3.365-1.391l2.922 1.754 6.408-6.408-1.754-2.922c.572-1.067 1.038-2.194 1.391-3.364zm-17-4.531c0 7.72-6.28 14-14 14s-14-6.28-14-14 6.28-14 14-14 14 6.28 14 14zm-1.219-9.584c4.155 1.217 7.219 5.07 7.219 9.584s-3.064 8.367-7.219 9.584c2.011-2.675 3.219-5.987 3.219-9.584s-1.208-6.909-3.219-9.584zm-8.781 34.584h-8v-2h8zm-5-4v-5.051c.332.021.662.051 1 .051s.668-.03 1-.051v5.051zm-11.781-11.416c-4.155-1.217-7.219-5.07-7.219-9.584s3.064-8.367 7.219-9.584c-2.011 2.675-3.219 5.987-3.219 9.584s1.208 6.909 3.219 9.584zm6.482 6.489-.732 2.927h-5.938l-.732-2.927-.569-.152c-1.399-.375-2.735-.927-3.971-1.642l-.51-.295-2.584 1.551-4.199-4.199 1.551-2.584-.295-.51c-.715-1.236-1.268-2.572-1.642-3.971l-.152-.569-2.928-.733v-5.938l2.927-.732.152-.569c.375-1.399.927-2.735 1.642-3.972l.295-.51-1.551-2.584 4.199-4.199 2.584 1.551.51-.295c1.236-.715 2.572-1.268 3.971-1.642l.569-.152.733-2.927h5.938l.732 2.927.569.152c.52.139 1.029.311 1.53.499-2.401.655-4.574 1.852-6.386 3.457-6.327.311-11.414 5.591-11.414 11.965s5.087 11.654 11.414 11.965c1.812 1.605 3.984 2.801 6.384 3.456-.504.19-1.013.362-1.528.5zm1.657 1.616c.553-.168 1.101-.367 1.642-.589v3.9h-2.469zm4.642 21.311c-2.206 0-4-1.794-4-4v-8h8v8c0 2.206-1.794 4-4 4zm3-18v-3.899c.541.222 1.088.421 1.642.589l.827 3.31zm23.073-17.299-.152.569c-.375 1.399-.927 2.735-1.642 3.971l-.295.51 1.551 2.584-4.199 4.199-2.584-1.551-.51.295c-1.237.715-2.573 1.268-3.972 1.642l-.569.152-.732 2.928h-5.938l-.732-2.927-.569-.153c-.514-.137-1.023-.309-1.527-.499 2.4-.655 4.572-1.852 6.384-3.456 6.326-.311 11.413-5.591 11.413-11.965s-5.087-11.654-11.414-11.965c-1.812-1.605-3.985-2.802-6.386-3.457.501-.188 1.009-.36 1.53-.499l.569-.152.732-2.927h5.938l.732 2.927.569.152c1.399.375 2.735.927 3.972 1.642l.51.295 2.584-1.551 4.199 4.199-1.551 2.584.295.51c.715 1.237 1.268 2.573 1.642 3.972l.152.569 2.927.732v5.938z"/><path d="m40 47h2v2h-2z"/><path d="m44 47h2v2h-2z"/><path d="m48 47h2v2h-2z"/><path d="m14 47h2v2h-2z"/><path d="m18 47h2v2h-2z"/><path d="m22 47h2v2h-2z"/></svg>