<?xml version="1.0" encoding="UTF-8"?>
<!DOCTYPE svg PUBLIC "-//W3C//DTD SVG 1.1//EN" "http://www.w3.org/Graphics/SVG/1.1/DTD/svg11.dtd">
<!-- Creator: CorelDRAW 2020 (64-Bit) -->
<svg xmlns="http://www.w3.org/2000/svg" xml:space="preserve" width="119.343mm" height="117.692mm" version="1.1" style="shape-rendering:geometricPrecision; text-rendering:geometricPrecision; image-rendering:optimizeQuality; fill-rule:evenodd; clip-rule:evenodd"
viewBox="0 0 164.06 161.79"
 xmlns:xlink="http://www.w3.org/1999/xlink"
 xmlns:xodm="http://www.corel.com/coreldraw/odm/2003">
 <defs>
  <style type="text/css">
   <![CDATA[
    .fil3 {fill:#FEFEFE;fill-rule:nonzero}
    .fil7 {fill:#F9B59C;fill-rule:nonzero}
    .fil17 {fill:#F59692;fill-rule:nonzero}
    .fil8 {fill:#F69576;fill-rule:nonzero}
    .fil2 {fill:#EFEFEF;fill-rule:nonzero}
    .fil14 {fill:#EAECEB;fill-rule:nonzero}
    .fil0 {fill:#E5E6E5;fill-rule:nonzero}
    .fil1 {fill:#D9DAD9;fill-rule:nonzero}
    .fil12 {fill:#CC5F52;fill-rule:nonzero}
    .fil10 {fill:#ABAEAF;fill-rule:nonzero}
    .fil11 {fill:#9D9FA0;fill-rule:nonzero}
    .fil16 {fill:#748B93;fill-rule:nonzero}
    .fil15 {fill:#657276;fill-rule:nonzero}
    .fil9 {fill:#42616A;fill-rule:nonzero}
    .fil13 {fill:#33484E;fill-rule:nonzero}
    .fil4 {fill:#2C3C43;fill-rule:nonzero}
    .fil6 {fill:#F58E6C;fill-rule:nonzero}
    .fil5 {fill:#F96332;fill-rule:nonzero}
   ]]>
  </style>
 </defs>
 <g id="Capa_x0020_1">
  <metadata id="CorelCorpID_0Corel-Layer"/>
  <g id="_2768060444448">
   <path class="fil0" d="M105.41 81.14c-16.2,-0.15 -30.86,-0.29 -41.49,-0.39 -5.3,-0.03 -9.59,-0.05 -12.57,-0.06 -1.48,0 -2.63,0.01 -3.42,0.01 -0.38,0.01 -0.68,0.01 -0.89,0.01 -0.2,0 -0.3,0.01 -0.3,0.02 0,0.01 0.1,0.01 0.3,0.02 0.21,0.01 0.51,0.01 0.89,0.02 0.79,0.01 1.94,0.02 3.42,0.04 2.98,0.02 7.27,0.04 12.57,0.07 10.63,0.01 25.29,0.02 41.49,0.03 16.19,-0 30.86,0.02 41.47,0.1 5.31,0.04 9.6,0.09 12.57,0.14 1.48,0.03 2.64,0.06 3.42,0.09 0.78,0.03 1.19,0.06 1.19,0.09 0,0.03 -0.41,0.05 -1.19,0.08 -0.78,0.02 -1.93,0.04 -3.42,0.05 -2.97,0.03 -7.26,0.03 -12.57,0.02 -10.62,-0.03 -25.28,-0.16 -41.47,-0.32z"/>
   <path class="fil0" d="M105.08 84.74c-15.98,-2.64 -30.44,-5.02 -40.92,-6.75 -5.23,-0.84 -9.47,-1.51 -12.41,-1.98 -1.46,-0.22 -2.59,-0.4 -3.38,-0.52 -0.38,-0.05 -0.67,-0.09 -0.88,-0.12 -0.2,-0.03 -0.3,-0.04 -0.3,-0.03 -0,0.01 0.1,0.03 0.3,0.07 0.21,0.04 0.5,0.09 0.87,0.16 0.78,0.13 1.91,0.32 3.37,0.57 2.94,0.47 7.18,1.15 12.41,1.99 10.5,1.63 24.98,3.89 40.98,6.38 16,2.48 30.48,4.74 40.95,6.45 5.24,0.85 9.47,1.56 12.4,2.07 1.46,0.26 2.6,0.46 3.36,0.61 0.77,0.15 1.17,0.24 1.16,0.27 -0,0.03 -0.41,-0.01 -1.19,-0.11 -0.78,-0.1 -1.92,-0.26 -3.39,-0.47 -2.94,-0.43 -7.18,-1.08 -12.42,-1.91 -10.48,-1.66 -24.95,-4.03 -40.91,-6.68z"/>
   <path class="fil0" d="M104.19 88.25c-15.36,-5.09 -29.26,-9.69 -39.33,-13.02 -5.03,-1.64 -9.11,-2.97 -11.94,-3.89 -1.41,-0.45 -2.5,-0.79 -3.25,-1.03 -0.37,-0.11 -0.65,-0.2 -0.85,-0.26 -0.19,-0.06 -0.29,-0.08 -0.29,-0.08 -0,0.01 0.09,0.04 0.28,0.11 0.2,0.07 0.48,0.17 0.84,0.29 0.75,0.25 1.84,0.62 3.24,1.08 2.83,0.92 6.9,2.25 11.94,3.9 10.11,3.24 24.05,7.72 39.45,12.66 15.4,4.93 29.34,9.42 39.41,12.73 5.04,1.65 9.11,3.01 11.91,3.97 1.4,0.48 2.49,0.86 3.22,1.13 0.73,0.27 1.11,0.42 1.1,0.45 -0.01,0.03 -0.41,-0.07 -1.16,-0.29 -0.75,-0.22 -1.85,-0.55 -3.27,-0.99 -2.83,-0.88 -6.92,-2.18 -11.96,-3.81 -10.09,-3.26 -23.99,-7.86 -39.34,-12.95z"/>
   <path class="fil0" d="M102.75 91.58c-14.36,-7.4 -27.35,-14.1 -36.76,-18.96 -4.71,-2.4 -8.52,-4.34 -11.17,-5.69 -1.32,-0.66 -2.34,-1.17 -3.05,-1.53 -0.34,-0.17 -0.61,-0.3 -0.8,-0.39 -0.18,-0.09 -0.27,-0.13 -0.28,-0.12 -0,0.01 0.09,0.06 0.26,0.15 0.19,0.1 0.44,0.24 0.78,0.42 0.7,0.36 1.72,0.89 3.02,1.57 2.65,1.35 6.46,3.3 11.17,5.7 9.46,4.77 22.51,11.36 36.94,18.63 14.42,7.26 27.47,13.86 36.89,18.69 4.71,2.41 8.51,4.39 11.13,5.77 1.31,0.69 2.32,1.23 3,1.61 0.68,0.38 1.03,0.59 1.02,0.61 -0.01,0.03 -0.39,-0.13 -1.1,-0.47 -0.71,-0.33 -1.74,-0.83 -3.07,-1.49 -2.66,-1.31 -6.49,-3.23 -11.2,-5.62 -9.44,-4.79 -22.44,-11.48 -36.78,-18.89z"/>
   <path class="fil0" d="M100.8 94.64c-13.01,-9.53 -24.78,-18.15 -33.31,-24.4 -4.27,-3.1 -7.73,-5.6 -10.13,-7.34 -1.2,-0.85 -2.13,-1.52 -2.77,-1.98 -0.31,-0.22 -0.55,-0.39 -0.73,-0.51 -0.16,-0.11 -0.25,-0.17 -0.25,-0.16 -0,0.01 0.08,0.07 0.23,0.19 0.17,0.13 0.4,0.3 0.71,0.53 0.64,0.47 1.56,1.15 2.74,2.02 2.4,1.74 5.86,4.25 10.12,7.35 8.59,6.17 20.44,14.69 33.53,24.1 13.09,9.39 24.94,17.92 33.47,24.14 4.27,3.11 7.71,5.64 10.08,7.41 1.18,0.88 2.1,1.58 2.71,2.06 0.61,0.48 0.93,0.74 0.91,0.76 -0.02,0.02 -0.37,-0.19 -1.01,-0.63 -0.65,-0.44 -1.59,-1.09 -2.8,-1.94 -2.42,-1.7 -5.89,-4.19 -10.18,-7.28 -8.56,-6.18 -20.34,-14.8 -33.34,-24.33z"/>
   <path class="fil0" d="M98.39 97.36c-11.35,-11.4 -21.61,-21.73 -29.05,-29.21 -3.73,-3.71 -6.75,-6.72 -8.85,-8.81 -1.05,-1.03 -1.86,-1.83 -2.42,-2.38 -0.27,-0.26 -0.49,-0.47 -0.64,-0.61 -0.15,-0.14 -0.22,-0.2 -0.23,-0.2 -0,0 0.06,0.08 0.2,0.22 0.15,0.15 0.35,0.36 0.61,0.63 0.55,0.56 1.36,1.37 2.39,2.41 2.1,2.09 5.11,5.1 8.84,8.81 7.51,7.41 17.87,17.64 29.32,28.95 11.45,11.29 21.81,21.53 29.26,28.98 3.73,3.73 6.73,6.76 8.79,8.87 1.03,1.05 1.82,1.88 2.35,2.45 0.53,0.57 0.8,0.87 0.78,0.89 -0.02,0.02 -0.33,-0.25 -0.9,-0.78 -0.57,-0.53 -1.4,-1.32 -2.46,-2.35 -2.12,-2.05 -5.16,-5.04 -8.9,-8.75 -7.49,-7.42 -17.76,-17.74 -29.09,-29.14z"/>
   <path class="fil0" d="M95.58 99.68c-9.41,-13.01 -17.92,-24.78 -24.09,-33.31 -3.1,-4.24 -5.61,-7.67 -7.35,-10.06 -0.87,-1.17 -1.55,-2.09 -2.02,-2.72 -0.23,-0.3 -0.41,-0.53 -0.53,-0.7 -0.12,-0.16 -0.19,-0.24 -0.19,-0.23 -0.01,0 0.05,0.09 0.16,0.25 0.12,0.17 0.29,0.41 0.51,0.72 0.46,0.64 1.12,1.56 1.98,2.75 1.74,2.39 4.25,5.82 7.34,10.06 6.25,8.48 14.87,20.17 24.4,33.09 9.53,12.91 18.15,24.61 24.33,33.12 3.09,4.25 5.58,7.71 7.28,10.11 0.85,1.2 1.5,2.14 1.94,2.78 0.44,0.64 0.65,0.99 0.63,1 -0.02,0.02 -0.29,-0.29 -0.77,-0.9 -0.48,-0.61 -1.17,-1.52 -2.06,-2.69 -1.77,-2.35 -4.3,-5.77 -7.41,-10.01 -6.22,-8.48 -14.75,-20.25 -24.14,-33.25z"/>
   <path class="fil0" d="M92.43 101.54c-7.23,-14.3 -13.77,-27.24 -18.52,-36.61 -2.39,-4.67 -4.32,-8.44 -5.67,-11.07 -0.67,-1.29 -1.2,-2.3 -1.56,-3 -0.18,-0.33 -0.32,-0.59 -0.42,-0.77 -0.1,-0.17 -0.15,-0.26 -0.15,-0.26 -0.01,0 0.04,0.1 0.12,0.28 0.09,0.19 0.22,0.45 0.38,0.79 0.35,0.7 0.86,1.72 1.52,3.02 1.34,2.62 3.27,6.4 5.66,11.07 4.83,9.34 11.49,22.21 18.86,36.45 7.37,14.22 14.02,27.11 18.78,36.46 2.38,4.68 4.29,8.47 5.59,11.11 0.65,1.32 1.15,2.34 1.48,3.04 0.33,0.7 0.49,1.07 0.46,1.09 -0.03,0.01 -0.24,-0.34 -0.61,-1.01 -0.38,-0.68 -0.92,-1.68 -1.6,-2.98 -1.38,-2.59 -3.34,-6.36 -5.74,-11.03 -4.8,-9.34 -11.36,-22.27 -18.57,-36.57z"/>
   <path class="fil0" d="M89.03 102.9c-4.86,-15.24 -9.26,-29.03 -12.44,-39.03 -1.61,-4.98 -2.92,-9.01 -3.83,-11.81 -0.46,-1.38 -0.82,-2.46 -1.07,-3.2 -0.12,-0.36 -0.22,-0.63 -0.29,-0.83 -0.07,-0.19 -0.1,-0.28 -0.11,-0.28 -0.01,0 0.02,0.1 0.07,0.29 0.06,0.2 0.14,0.48 0.25,0.84 0.24,0.75 0.58,1.83 1.01,3.22 0.91,2.8 2.21,6.83 3.82,11.81 3.28,9.97 7.81,23.72 12.81,38.92 5.01,15.19 9.53,28.94 12.73,38.92 1.6,4.99 2.88,9.03 3.75,11.83 0.43,1.4 0.76,2.49 0.97,3.23 0.21,0.74 0.31,1.14 0.28,1.15 -0.03,0.01 -0.18,-0.37 -0.44,-1.09 -0.26,-0.73 -0.64,-1.8 -1.11,-3.19 -0.94,-2.78 -2.28,-6.8 -3.9,-11.79 -3.25,-9.96 -7.66,-23.76 -12.51,-38.99z"/>
   <path class="fil0" d="M85.46 103.7c-2.37,-15.81 -4.51,-30.11 -6.06,-40.48 -0.8,-5.17 -1.45,-9.35 -1.9,-12.26 -0.23,-1.44 -0.42,-2.56 -0.54,-3.33 -0.06,-0.37 -0.12,-0.66 -0.15,-0.86 -0.04,-0.19 -0.06,-0.29 -0.06,-0.29 -0.01,0 0,0.1 0.03,0.3 0.03,0.21 0.07,0.49 0.12,0.87 0.11,0.77 0.28,1.9 0.49,3.34 0.45,2.91 1.09,7.09 1.89,12.26 1.65,10.35 3.92,24.64 6.44,40.42 2.52,15.77 4.79,30.06 6.36,40.41 0.79,5.18 1.41,9.37 1.81,12.27 0.2,1.45 0.35,2.58 0.44,3.34 0.09,0.77 0.12,1.17 0.09,1.17 -0.03,0 -0.12,-0.39 -0.26,-1.15 -0.14,-0.76 -0.34,-1.88 -0.59,-3.32 -0.49,-2.89 -1.16,-7.07 -1.98,-12.24 -1.62,-10.35 -3.78,-24.65 -6.13,-40.45z"/>
   <path class="fil0" d="M81.8 103.95c0.15,-15.98 0.28,-30.43 0.37,-40.91 0.02,-5.23 0.04,-9.46 0.05,-12.4 -0,-1.46 -0.01,-2.59 -0.01,-3.37 -0.01,-0.38 -0.01,-0.67 -0.01,-0.88 -0.01,-0.2 -0.01,-0.3 -0.02,-0.3 -0.01,0 -0.01,0.1 -0.02,0.3 -0,0.21 -0.01,0.5 -0.02,0.88 -0.01,0.78 -0.02,1.91 -0.04,3.37 -0.01,2.94 -0.04,7.17 -0.06,12.4 -0,10.48 -0,24.94 -0,40.91 0.01,15.97 -0,30.43 -0.07,40.9 -0.04,5.23 -0.08,9.47 -0.14,12.4 -0.03,1.46 -0.06,2.6 -0.09,3.37 -0.03,0.77 -0.06,1.18 -0.09,1.18 -0.03,0 -0.06,-0.4 -0.08,-1.18 -0.02,-0.77 -0.04,-1.91 -0.06,-3.37 -0.03,-2.93 -0.04,-7.16 -0.02,-12.4 0.02,-10.47 0.14,-24.93 0.3,-40.9z"/>
   <path class="fil0" d="M78.14 103.63c2.66,-15.76 5.07,-30.02 6.82,-40.36 0.85,-5.16 1.53,-9.34 2.01,-12.24 0.22,-1.44 0.4,-2.56 0.52,-3.33 0.05,-0.37 0.1,-0.66 0.13,-0.87 0.03,-0.2 0.04,-0.3 0.03,-0.3 -0.01,-0 -0.03,0.1 -0.07,0.29 -0.04,0.2 -0.09,0.49 -0.16,0.86 -0.13,0.77 -0.33,1.89 -0.57,3.32 -0.48,2.9 -1.16,7.08 -2.01,12.24 -1.65,10.35 -3.93,24.64 -6.44,40.42 -2.5,15.78 -4.79,30.06 -6.51,40.39 -0.86,5.17 -1.57,9.34 -2.09,12.23 -0.26,1.44 -0.47,2.56 -0.62,3.32 -0.15,0.76 -0.25,1.15 -0.27,1.15 -0.03,-0 0.01,-0.41 0.11,-1.17 0.1,-0.76 0.26,-1.89 0.47,-3.34 0.43,-2.9 1.09,-7.08 1.93,-12.25 1.67,-10.34 4.07,-24.6 6.75,-40.35z"/>
   <path class="fil0" d="M74.58 102.75c5.15,-15.15 9.8,-28.86 13.18,-38.79 1.66,-4.97 3,-8.98 3.93,-11.78 0.45,-1.39 0.8,-2.46 1.05,-3.21 0.11,-0.36 0.2,-0.64 0.26,-0.84 0.06,-0.19 0.08,-0.29 0.08,-0.29 -0.01,-0 -0.04,0.09 -0.11,0.28 -0.07,0.2 -0.17,0.47 -0.3,0.83 -0.25,0.74 -0.62,1.81 -1.1,3.19 -0.93,2.79 -2.28,6.81 -3.94,11.77 -3.28,9.97 -7.81,23.72 -12.82,38.91 -4.99,15.19 -9.53,28.94 -12.88,38.88 -1.67,4.97 -3.05,8.98 -4.02,11.75 -0.49,1.38 -0.87,2.46 -1.14,3.18 -0.27,0.72 -0.43,1.1 -0.46,1.09 -0.03,-0.01 0.07,-0.4 0.29,-1.14 0.22,-0.74 0.56,-1.83 1,-3.22 0.89,-2.79 2.21,-6.83 3.86,-11.8 3.3,-9.95 7.95,-23.66 13.11,-38.8z"/>
   <path class="fil0" d="M71.21 101.34c7.5,-14.16 14.28,-26.98 19.2,-36.27 2.43,-4.65 4.4,-8.41 5.76,-11.02 0.67,-1.3 1.19,-2.31 1.54,-3.01 0.17,-0.34 0.3,-0.6 0.39,-0.79 0.09,-0.18 0.13,-0.27 0.12,-0.27 -0.01,-0 -0.06,0.08 -0.16,0.26 -0.1,0.18 -0.24,0.44 -0.42,0.77 -0.37,0.69 -0.9,1.69 -1.59,2.98 -1.37,2.61 -3.34,6.37 -5.77,11.01 -4.83,9.33 -11.5,22.21 -18.87,36.44 -7.35,14.23 -14.03,27.1 -18.92,36.39 -2.44,4.65 -4.44,8.4 -5.84,10.98 -0.7,1.29 -1.25,2.29 -1.63,2.96 -0.38,0.67 -0.6,1.02 -0.62,1.01 -0.03,-0.01 0.14,-0.39 0.47,-1.08 0.33,-0.7 0.84,-1.72 1.5,-3.03 1.32,-2.62 3.27,-6.4 5.7,-11.05 4.85,-9.31 11.63,-22.14 19.13,-36.29z"/>
   <path class="fil0" d="M68.1 99.41c9.65,-12.83 18.39,-24.44 24.72,-32.86 3.14,-4.21 5.68,-7.63 7.44,-9.99 0.86,-1.18 1.54,-2.1 2,-2.73 0.22,-0.31 0.39,-0.55 0.51,-0.72 0.11,-0.16 0.17,-0.25 0.16,-0.25 -0.01,-0 -0.07,0.07 -0.19,0.23 -0.13,0.17 -0.31,0.4 -0.54,0.7 -0.47,0.63 -1.16,1.53 -2.05,2.7 -1.77,2.37 -4.31,5.78 -7.45,9.99 -6.25,8.47 -14.88,20.16 -24.41,33.08 -9.52,12.92 -18.16,24.6 -24.46,33.03 -3.15,4.21 -5.72,7.61 -7.51,9.94 -0.9,1.17 -1.6,2.07 -2.08,2.67 -0.48,0.61 -0.75,0.92 -0.77,0.9 -0.02,-0.02 0.2,-0.36 0.64,-1 0.44,-0.64 1.1,-1.57 1.97,-2.76 1.72,-2.38 4.24,-5.81 7.38,-10.04 6.27,-8.45 14.99,-20.07 24.65,-32.89z"/>
   <path class="fil0" d="M65.34 97.04c11.56,-11.2 22.02,-21.33 29.6,-28.67 3.76,-3.68 6.81,-6.66 8.93,-8.73 1.04,-1.03 1.85,-1.84 2.41,-2.39 0.27,-0.27 0.47,-0.48 0.62,-0.63 0.14,-0.14 0.21,-0.22 0.2,-0.22 -0,-0 -0.08,0.06 -0.23,0.2 -0.15,0.14 -0.37,0.34 -0.64,0.61 -0.57,0.55 -1.39,1.34 -2.45,2.35 -2.12,2.07 -5.17,5.05 -8.93,8.73 -7.51,7.41 -17.88,17.64 -29.33,28.93 -11.44,11.3 -21.82,21.52 -29.37,28.87 -3.78,3.68 -6.85,6.64 -8.99,8.67 -1.07,1.02 -1.9,1.8 -2.48,2.32 -0.57,0.52 -0.89,0.79 -0.91,0.77 -0.02,-0.02 0.25,-0.33 0.79,-0.89 0.54,-0.56 1.34,-1.38 2.38,-2.42 2.08,-2.09 5.11,-5.09 8.87,-8.79 7.52,-7.39 17.98,-17.53 29.54,-28.71z"/>
   <path class="fil0" d="M62.99 94.27c13.18,-9.29 25.11,-17.69 33.76,-23.78 4.3,-3.06 7.78,-5.54 10.19,-7.26 1.19,-0.86 2.12,-1.53 2.76,-1.99 0.31,-0.23 0.54,-0.4 0.71,-0.53 0.16,-0.12 0.24,-0.18 0.23,-0.19 -0,-0.01 -0.09,0.05 -0.26,0.16 -0.17,0.12 -0.42,0.28 -0.73,0.5 -0.65,0.45 -1.58,1.11 -2.79,1.95 -2.42,1.72 -5.9,4.19 -10.2,7.25 -8.59,6.17 -20.44,14.68 -33.54,24.08 -13.08,9.41 -24.94,17.91 -33.57,24.02 -4.31,3.05 -7.81,5.51 -10.25,7.19 -1.22,0.84 -2.17,1.48 -2.82,1.91 -0.65,0.43 -1,0.64 -1.02,0.62 -0.02,-0.02 0.3,-0.28 0.92,-0.76 0.62,-0.47 1.54,-1.16 2.73,-2.03 2.38,-1.75 5.85,-4.25 10.15,-7.32 8.6,-6.14 20.52,-14.56 33.7,-23.83z"/>
   <path class="fil0" d="M61.1 91.17c14.49,-7.14 27.61,-13.6 37.12,-18.28 4.73,-2.36 8.56,-4.27 11.22,-5.6 1.31,-0.67 2.33,-1.19 3.04,-1.54 0.34,-0.18 0.6,-0.31 0.79,-0.41 0.18,-0.09 0.26,-0.15 0.26,-0.15 -0,-0.01 -0.1,0.03 -0.28,0.12 -0.19,0.09 -0.46,0.22 -0.8,0.38 -0.71,0.35 -1.74,0.85 -3.06,1.5 -2.66,1.32 -6.49,3.23 -11.22,5.59 -9.46,4.77 -22.52,11.35 -36.94,18.62 -14.41,7.28 -27.48,13.85 -36.96,18.55 -4.74,2.35 -8.59,4.24 -11.26,5.52 -1.33,0.64 -2.37,1.13 -3.08,1.46 -0.71,0.32 -1.09,0.48 -1.1,0.45 -0.01,-0.03 0.34,-0.23 1.03,-0.61 0.69,-0.37 1.7,-0.91 3.02,-1.58 2.63,-1.36 6.45,-3.29 11.18,-5.66 9.46,-4.74 22.58,-11.21 37.07,-18.34z"/>
   <path class="fil0" d="M59.73 87.82c15.45,-4.8 29.43,-9.15 39.57,-12.3 5.05,-1.6 9.13,-2.89 11.97,-3.79 1.4,-0.45 2.49,-0.81 3.25,-1.05 0.36,-0.12 0.64,-0.22 0.84,-0.28 0.19,-0.07 0.28,-0.1 0.28,-0.11 -0,-0.01 -0.1,0.02 -0.29,0.07 -0.2,0.06 -0.48,0.14 -0.85,0.25 -0.76,0.23 -1.85,0.57 -3.26,1 -2.84,0.9 -6.93,2.18 -11.98,3.78 -10.11,3.24 -24.05,7.71 -39.45,12.65 -15.39,4.95 -29.34,9.41 -39.46,12.58 -5.06,1.59 -9.16,2.85 -12,3.7 -1.42,0.43 -2.53,0.75 -3.28,0.96 -0.75,0.21 -1.15,0.31 -1.16,0.28 -0.01,-0.03 0.37,-0.18 1.11,-0.44 0.74,-0.26 1.83,-0.63 3.23,-1.1 2.81,-0.93 6.9,-2.25 11.95,-3.86 10.1,-3.21 24.08,-7.57 39.53,-12.36z"/>
   <path class="fil0" d="M58.9 84.29c16.03,-2.34 30.53,-4.47 41.04,-6 5.24,-0.79 9.48,-1.43 12.43,-1.88 1.46,-0.23 2.59,-0.41 3.37,-0.54 0.38,-0.06 0.67,-0.11 0.88,-0.15 0.2,-0.04 0.3,-0.06 0.3,-0.06 -0,-0.01 -0.1,0 -0.3,0.03 -0.21,0.03 -0.5,0.07 -0.88,0.12 -0.79,0.11 -1.92,0.27 -3.38,0.48 -2.95,0.44 -7.19,1.08 -12.43,1.87 -10.5,1.63 -24.98,3.88 -40.98,6.37 -15.99,2.5 -30.48,4.74 -40.98,6.3 -5.25,0.78 -9.5,1.39 -12.44,1.8 -1.47,0.2 -2.61,0.35 -3.39,0.44 -0.78,0.09 -1.19,0.12 -1.19,0.09 -0,-0.03 0.4,-0.12 1.17,-0.26 0.77,-0.14 1.9,-0.34 3.37,-0.58 2.93,-0.48 7.17,-1.15 12.42,-1.96 10.49,-1.61 24.99,-3.74 41.01,-6.07z"/>
   <path class="fil0" d="M58.65 80.68c16.2,0.13 30.86,0.26 41.49,0.34 5.3,0.02 9.59,0.03 12.57,0.04 1.48,-0.01 2.62,-0.01 3.42,-0.01 0.38,-0.01 0.68,-0.01 0.89,-0.01 0.2,-0.01 0.3,-0.01 0.3,-0.02 0,-0.01 -0.1,-0.01 -0.3,-0.02 -0.21,-0 -0.51,-0.01 -0.89,-0.02 -0.79,-0.01 -1.94,-0.02 -3.42,-0.04 -2.98,-0.01 -7.27,-0.03 -12.57,-0.05 -10.63,0.01 -25.29,0.01 -41.49,0.02 -16.19,0.02 -30.86,0.02 -41.47,-0.05 -5.31,-0.03 -9.6,-0.08 -12.57,-0.13 -1.48,-0.03 -2.64,-0.05 -3.42,-0.08 -0.78,-0.03 -1.19,-0.06 -1.19,-0.09 0,-0.03 0.41,-0.06 1.19,-0.08 0.78,-0.02 1.93,-0.04 3.42,-0.06 2.97,-0.03 7.26,-0.04 12.57,-0.03 10.62,0.02 25.28,0.13 41.47,0.27z"/>
   <path class="fil0" d="M58.97 77.08c15.98,2.62 30.45,4.98 40.93,6.7 5.23,0.83 9.47,1.5 12.41,1.97 1.46,0.22 2.59,0.39 3.38,0.51 0.38,0.05 0.67,0.09 0.88,0.12 0.2,0.03 0.3,0.04 0.3,0.03 0,-0.01 -0.1,-0.03 -0.3,-0.07 -0.21,-0.04 -0.5,-0.09 -0.87,-0.16 -0.78,-0.13 -1.91,-0.32 -3.37,-0.56 -2.94,-0.47 -7.18,-1.14 -12.41,-1.98 -10.5,-1.62 -24.98,-3.86 -40.99,-6.33 -16,-2.46 -30.48,-4.71 -40.96,-6.4 -5.24,-0.84 -9.47,-1.55 -12.4,-2.05 -1.46,-0.25 -2.6,-0.46 -3.36,-0.61 -0.77,-0.15 -1.17,-0.24 -1.16,-0.27 0,-0.03 0.41,0.01 1.19,0.1 0.78,0.1 1.92,0.25 3.39,0.47 2.94,0.42 7.18,1.07 12.43,1.89 10.48,1.64 24.95,4 40.92,6.63z"/>
   <path class="fil0" d="M59.86 73.57c15.36,5.07 29.27,9.65 39.35,12.97 5.04,1.63 9.11,2.95 11.94,3.87 1.41,0.44 2.5,0.79 3.26,1.03 0.37,0.11 0.65,0.2 0.85,0.26 0.19,0.06 0.29,0.08 0.29,0.08 0,-0.01 -0.09,-0.04 -0.28,-0.11 -0.2,-0.07 -0.48,-0.17 -0.84,-0.29 -0.75,-0.25 -1.84,-0.61 -3.24,-1.08 -2.83,-0.92 -6.91,-2.24 -11.94,-3.88 -10.11,-3.23 -24.06,-7.69 -39.47,-12.61 -15.41,-4.91 -29.35,-9.38 -39.43,-12.68 -5.04,-1.65 -9.11,-3 -11.92,-3.95 -1.4,-0.48 -2.49,-0.86 -3.22,-1.12 -0.73,-0.27 -1.11,-0.42 -1.11,-0.45 0.01,-0.03 0.41,0.07 1.16,0.29 0.75,0.22 1.85,0.55 3.27,0.99 2.83,0.87 6.92,2.17 11.97,3.8 10.09,3.25 24,7.82 39.35,12.9z"/>
   <path class="fil0" d="M61.3 70.24c14.37,7.39 27.37,14.07 36.79,18.91 4.71,2.39 8.53,4.33 11.18,5.68 1.32,0.66 2.34,1.17 3.05,1.52 0.34,0.17 0.61,0.29 0.8,0.39 0.18,0.08 0.27,0.13 0.28,0.12 0,-0.01 -0.09,-0.06 -0.26,-0.15 -0.19,-0.1 -0.44,-0.24 -0.78,-0.42 -0.7,-0.36 -1.72,-0.89 -3.03,-1.57 -2.65,-1.35 -6.46,-3.29 -11.17,-5.69 -9.47,-4.76 -22.53,-11.33 -36.96,-18.58 -14.43,-7.24 -27.49,-13.82 -36.91,-18.64 -4.71,-2.41 -8.52,-4.37 -11.14,-5.75 -1.31,-0.69 -2.32,-1.23 -3.01,-1.61 -0.68,-0.38 -1.03,-0.59 -1.02,-0.61 0.01,-0.03 0.39,0.13 1.1,0.46 0.71,0.33 1.74,0.83 3.07,1.48 2.66,1.3 6.49,3.22 11.21,5.61 9.45,4.78 22.45,11.45 36.81,18.84z"/>
   <path class="fil0" d="M63.24 67.17c13.02,9.51 24.8,18.12 33.34,24.35 4.28,3.09 7.74,5.59 10.14,7.33 1.2,0.85 2.13,1.52 2.77,1.97 0.31,0.22 0.55,0.38 0.73,0.5 0.17,0.11 0.25,0.17 0.26,0.16 0,-0.01 -0.08,-0.07 -0.23,-0.19 -0.17,-0.13 -0.4,-0.3 -0.71,-0.53 -0.64,-0.47 -1.56,-1.14 -2.74,-2.02 -2.4,-1.74 -5.86,-4.24 -10.13,-7.34 -8.6,-6.16 -20.46,-14.66 -33.56,-24.05 -13.11,-9.38 -24.96,-17.89 -33.51,-24.1 -4.27,-3.11 -7.72,-5.63 -10.09,-7.4 -1.18,-0.88 -2.1,-1.57 -2.71,-2.05 -0.61,-0.48 -0.93,-0.74 -0.91,-0.76 0.02,-0.02 0.37,0.19 1.01,0.63 0.65,0.44 1.59,1.09 2.8,1.94 2.42,1.7 5.9,4.18 10.18,7.27 8.57,6.17 20.36,14.77 33.37,24.29z"/>
   <path class="fil0" d="M65.65 64.45c11.36,11.39 21.64,21.7 29.09,29.17 3.74,3.71 6.76,6.71 8.86,8.8 1.05,1.03 1.86,1.82 2.43,2.37 0.27,0.26 0.49,0.47 0.64,0.61 0.15,0.14 0.22,0.2 0.23,0.2 0,-0 -0.06,-0.08 -0.2,-0.22 -0.15,-0.15 -0.35,-0.36 -0.61,-0.63 -0.55,-0.56 -1.36,-1.37 -2.39,-2.41 -2.1,-2.09 -5.12,-5.09 -8.85,-8.8 -7.52,-7.4 -17.89,-17.62 -29.36,-28.91 -11.47,-11.27 -21.84,-21.5 -29.3,-28.95 -3.73,-3.72 -6.74,-6.75 -8.8,-8.86 -1.03,-1.05 -1.83,-1.88 -2.36,-2.44 -0.53,-0.57 -0.8,-0.87 -0.78,-0.89 0.02,-0.02 0.33,0.25 0.9,0.78 0.57,0.53 1.4,1.32 2.46,2.34 2.12,2.05 5.17,5.04 8.91,8.74 7.49,7.41 17.79,17.72 29.13,29.11z"/>
   <path class="fil0" d="M68.46 62.12c9.43,12.99 17.95,24.75 24.14,33.28 3.11,4.24 5.62,7.67 7.36,10.05 0.87,1.17 1.55,2.09 2.02,2.72 0.23,0.3 0.41,0.53 0.53,0.7 0.12,0.16 0.19,0.24 0.19,0.23 0.01,-0 -0.05,-0.09 -0.16,-0.25 -0.12,-0.17 -0.29,-0.41 -0.51,-0.72 -0.46,-0.64 -1.12,-1.56 -1.98,-2.75 -1.74,-2.38 -4.26,-5.82 -7.36,-10.05 -6.26,-8.47 -14.9,-20.15 -24.44,-33.06 -9.55,-12.9 -18.18,-24.59 -24.37,-33.09 -3.1,-4.25 -5.59,-7.7 -7.29,-10.1 -0.85,-1.2 -1.51,-2.13 -1.94,-2.77 -0.44,-0.64 -0.65,-0.99 -0.63,-1 0.02,-0.02 0.29,0.29 0.77,0.9 0.48,0.61 1.17,1.52 2.06,2.69 1.77,2.35 4.31,5.77 7.43,10 6.23,8.47 14.77,20.23 24.18,33.22z"/>
   <path class="fil0" d="M71.6 60.26c7.25,14.29 13.81,27.22 18.56,36.59 2.4,4.66 4.33,8.44 5.68,11.06 0.68,1.29 1.2,2.3 1.57,3 0.18,0.33 0.32,0.59 0.42,0.77 0.1,0.17 0.15,0.26 0.15,0.26 0.01,-0 -0.04,-0.1 -0.12,-0.28 -0.09,-0.19 -0.22,-0.45 -0.39,-0.79 -0.35,-0.7 -0.86,-1.72 -1.52,-3.02 -1.34,-2.62 -3.28,-6.4 -5.67,-11.07 -4.84,-9.33 -11.52,-22.2 -18.9,-36.42 -7.39,-14.21 -14.06,-27.09 -18.83,-36.44 -2.39,-4.68 -4.3,-8.47 -5.6,-11.1 -0.65,-1.32 -1.15,-2.34 -1.48,-3.04 -0.33,-0.7 -0.49,-1.07 -0.46,-1.09 0.03,-0.01 0.24,0.33 0.61,1.01 0.38,0.68 0.92,1.68 1.61,2.98 1.38,2.59 3.34,6.36 5.75,11.03 4.81,9.33 11.39,22.26 18.62,36.54z"/>
   <path class="fil0" d="M75 58.9c4.88,15.23 9.29,29.02 12.49,39.02 1.62,4.98 2.93,9.01 3.85,11.8 0.46,1.38 0.82,2.46 1.07,3.2 0.12,0.36 0.22,0.63 0.29,0.83 0.07,0.19 0.1,0.28 0.11,0.28 0.01,-0 -0.02,-0.1 -0.07,-0.29 -0.06,-0.2 -0.15,-0.48 -0.26,-0.84 -0.24,-0.75 -0.58,-1.83 -1.02,-3.22 -0.91,-2.8 -2.22,-6.83 -3.84,-11.81 -3.29,-9.96 -7.84,-23.71 -12.86,-38.9 -5.03,-15.18 -9.56,-28.93 -12.78,-38.91 -1.61,-4.99 -2.9,-9.03 -3.76,-11.83 -0.43,-1.4 -0.76,-2.49 -0.97,-3.23 -0.21,-0.74 -0.31,-1.14 -0.28,-1.15 0.03,-0.01 0.18,0.37 0.45,1.09 0.26,0.73 0.64,1.8 1.11,3.19 0.95,2.77 2.29,6.8 3.92,11.78 3.27,9.96 7.69,23.75 12.56,38.98z"/>
   <path class="fil0" d="M78.57 58.09c2.39,15.8 4.55,30.1 6.11,40.47 0.81,5.17 1.46,9.35 1.91,12.25 0.24,1.44 0.42,2.56 0.55,3.33 0.07,0.37 0.12,0.66 0.15,0.86 0.04,0.19 0.06,0.29 0.06,0.29 0.01,-0 -0,-0.1 -0.03,-0.3 -0.03,-0.21 -0.07,-0.49 -0.12,-0.87 -0.11,-0.77 -0.28,-1.9 -0.49,-3.34 -0.45,-2.9 -1.1,-7.09 -1.91,-12.26 -1.66,-10.35 -3.95,-24.63 -6.49,-40.41 -2.54,-15.77 -4.83,-30.05 -6.41,-40.41 -0.8,-5.18 -1.42,-9.37 -1.83,-12.27 -0.2,-1.45 -0.36,-2.58 -0.45,-3.34 -0.09,-0.77 -0.13,-1.17 -0.1,-1.17 0.03,-0 0.12,0.39 0.27,1.15 0.15,0.76 0.34,1.88 0.59,3.32 0.49,2.89 1.17,7.07 1.99,12.24 1.64,10.34 3.81,24.64 6.18,40.44z"/>
   <path class="fil0" d="M82.23 57.84c-0.13,15.98 -0.24,30.43 -0.32,40.91 -0.02,5.23 -0.03,9.46 -0.04,12.4 0.01,1.46 0.01,2.59 0.01,3.37 0.01,0.38 0.01,0.67 0.01,0.88 0.01,0.2 0.01,0.3 0.02,0.3 0.01,0 0.01,-0.1 0.02,-0.3 0,-0.21 0.01,-0.5 0.02,-0.88 0.01,-0.78 0.02,-1.92 0.04,-3.37 0.01,-2.94 0.03,-7.17 0.04,-12.4 -0.01,-10.48 -0.03,-24.94 -0.05,-40.91 -0.03,-15.97 -0.04,-30.43 0.02,-40.9 0.03,-5.23 0.07,-9.47 0.12,-12.4 0.03,-1.46 0.05,-2.6 0.08,-3.37 0.03,-0.77 0.06,-1.18 0.09,-1.18 0.03,0 0.06,0.4 0.08,1.18 0.02,0.77 0.04,1.91 0.06,3.37 0.03,2.93 0.05,7.16 0.04,12.4 -0.01,10.47 -0.11,24.93 -0.25,40.9z"/>
   <path class="fil0" d="M85.89 58.15c-2.64,15.76 -5.03,30.03 -6.77,40.37 -0.84,5.16 -1.52,9.34 -1.99,12.24 -0.22,1.44 -0.4,2.56 -0.52,3.33 -0.05,0.37 -0.09,0.66 -0.12,0.87 -0.03,0.2 -0.04,0.3 -0.03,0.3 0.01,0 0.03,-0.1 0.07,-0.29 0.04,-0.21 0.09,-0.49 0.16,-0.86 0.13,-0.77 0.32,-1.89 0.57,-3.32 0.47,-2.9 1.16,-7.08 2,-12.24 1.64,-10.35 3.9,-24.64 6.39,-40.43 2.48,-15.78 4.75,-30.07 6.46,-40.4 0.85,-5.17 1.56,-9.34 2.07,-12.23 0.26,-1.44 0.46,-2.56 0.61,-3.32 0.15,-0.76 0.24,-1.15 0.27,-1.15 0.03,0 -0.01,0.41 -0.1,1.17 -0.1,0.77 -0.26,1.89 -0.47,3.34 -0.43,2.9 -1.08,7.08 -1.91,12.25 -1.66,10.34 -4.04,24.61 -6.69,40.36z"/>
   <path class="fil0" d="M89.45 59.03c-5.13,15.16 -9.77,28.87 -13.13,38.81 -1.65,4.97 -2.99,8.99 -3.92,11.78 -0.45,1.39 -0.8,2.47 -1.04,3.21 -0.11,0.36 -0.2,0.64 -0.26,0.84 -0.06,0.19 -0.08,0.29 -0.08,0.29 0.01,0 0.04,-0.09 0.11,-0.28 0.07,-0.2 0.17,-0.47 0.29,-0.83 0.25,-0.74 0.62,-1.82 1.09,-3.19 0.93,-2.79 2.27,-6.81 3.93,-11.78 3.27,-9.97 7.78,-23.73 12.77,-38.93 4.97,-15.2 9.49,-28.95 12.83,-38.89 1.67,-4.97 3.03,-8.99 4,-11.75 0.48,-1.38 0.87,-2.46 1.14,-3.18 0.27,-0.72 0.43,-1.1 0.45,-1.09 0.03,0.01 -0.07,0.4 -0.29,1.14 -0.22,0.74 -0.55,1.83 -1,3.23 -0.89,2.8 -2.2,6.83 -3.84,11.8 -3.29,9.95 -7.92,23.67 -13.06,38.82z"/>
   <path class="fil0" d="M92.82 60.44c-7.48,14.17 -14.25,27 -19.16,36.29 -2.42,4.65 -4.39,8.41 -5.75,11.03 -0.67,1.3 -1.18,2.31 -1.54,3.01 -0.17,0.34 -0.3,0.6 -0.39,0.79 -0.09,0.18 -0.13,0.27 -0.12,0.27 0.01,0 0.06,-0.08 0.16,-0.26 0.1,-0.18 0.24,-0.44 0.42,-0.77 0.37,-0.69 0.9,-1.7 1.59,-2.99 1.37,-2.61 3.33,-6.37 5.76,-11.02 4.82,-9.34 11.47,-22.22 18.82,-36.46 7.33,-14.24 14,-27.12 18.88,-36.42 2.44,-4.65 4.43,-8.4 5.83,-10.99 0.7,-1.29 1.25,-2.29 1.63,-2.96 0.38,-0.67 0.59,-1.02 0.62,-1.01 0.03,0.01 -0.14,0.39 -0.47,1.08 -0.33,0.7 -0.84,1.72 -1.5,3.03 -1.32,2.62 -3.26,6.4 -5.68,11.06 -4.84,9.32 -11.6,22.15 -19.09,36.31z"/>
   <path class="fil0" d="M95.93 62.36c-9.63,12.84 -18.35,24.47 -24.67,32.89 -3.13,4.22 -5.67,7.63 -7.43,10 -0.86,1.18 -1.54,2.1 -2,2.73 -0.22,0.31 -0.39,0.55 -0.51,0.72 -0.11,0.16 -0.17,0.25 -0.16,0.25 0.01,0 0.07,-0.07 0.19,-0.23 0.13,-0.17 0.31,-0.4 0.54,-0.7 0.47,-0.63 1.16,-1.54 2.04,-2.7 1.76,-2.37 4.3,-5.78 7.43,-10 6.24,-8.48 14.85,-20.18 24.37,-33.11 9.5,-12.93 18.12,-24.63 24.42,-33.06 3.15,-4.22 5.71,-7.62 7.5,-9.95 0.89,-1.17 1.6,-2.07 2.08,-2.68 0.48,-0.61 0.75,-0.92 0.77,-0.9 0.02,0.02 -0.2,0.36 -0.64,1 -0.44,0.64 -1.1,1.57 -1.96,2.76 -1.72,2.39 -4.24,5.82 -7.36,10.05 -6.25,8.46 -14.97,20.09 -24.61,32.92z"/>
   <path class="fil0" d="M98.7 64.73c-11.54,11.21 -21.99,21.35 -29.56,28.71 -3.76,3.69 -6.8,6.67 -8.92,8.74 -1.04,1.03 -1.85,1.84 -2.41,2.39 -0.27,0.27 -0.47,0.48 -0.62,0.63 -0.14,0.14 -0.21,0.22 -0.2,0.22 0,0 0.08,-0.06 0.23,-0.2 0.15,-0.14 0.37,-0.35 0.64,-0.61 0.57,-0.55 1.39,-1.34 2.44,-2.36 2.11,-2.07 5.16,-5.05 8.92,-8.74 7.5,-7.42 17.86,-17.66 29.3,-28.97 11.43,-11.32 21.79,-21.55 29.33,-28.91 3.77,-3.68 6.84,-6.65 8.98,-8.68 1.07,-1.02 1.9,-1.8 2.48,-2.33 0.57,-0.52 0.88,-0.79 0.91,-0.77 0.02,0.02 -0.25,0.33 -0.79,0.89 -0.54,0.56 -1.34,1.38 -2.37,2.43 -2.08,2.09 -5.1,5.1 -8.86,8.8 -7.51,7.4 -17.95,17.55 -29.5,28.75z"/>
   <path class="fil0" d="M101.06 67.5c-13.17,9.3 -25.09,17.72 -33.73,23.82 -4.29,3.07 -7.77,5.55 -10.19,7.27 -1.19,0.86 -2.12,1.53 -2.75,2 -0.31,0.23 -0.54,0.4 -0.71,0.53 -0.16,0.12 -0.24,0.19 -0.23,0.19 0,0.01 0.09,-0.05 0.26,-0.16 0.17,-0.12 0.42,-0.28 0.73,-0.5 0.65,-0.45 1.58,-1.11 2.79,-1.95 2.42,-1.72 5.89,-4.2 10.19,-7.26 8.58,-6.18 20.42,-14.71 33.51,-24.13 13.07,-9.43 24.92,-17.94 33.54,-24.06 4.31,-3.06 7.81,-5.52 10.24,-7.2 1.21,-0.84 2.16,-1.49 2.81,-1.92 0.65,-0.43 1,-0.64 1.02,-0.62 0.02,0.02 -0.3,0.28 -0.92,0.76 -0.62,0.47 -1.54,1.16 -2.73,2.03 -2.38,1.75 -5.84,4.25 -10.14,7.33 -8.59,6.15 -20.5,14.58 -33.67,23.87z"/>
   <path class="fil0" d="M102.95 70.6c-14.48,7.16 -27.59,13.63 -37.09,18.33 -4.73,2.37 -8.55,4.28 -11.21,5.61 -1.31,0.67 -2.33,1.19 -3.04,1.55 -0.34,0.18 -0.6,0.31 -0.79,0.41 -0.18,0.09 -0.26,0.15 -0.26,0.15 0,0.01 0.1,-0.03 0.28,-0.12 0.19,-0.09 0.46,-0.22 0.8,-0.38 0.71,-0.35 1.74,-0.85 3.06,-1.5 2.66,-1.33 6.49,-3.24 11.22,-5.6 9.46,-4.78 22.5,-11.38 36.92,-18.66 14.4,-7.3 27.46,-13.88 36.94,-18.59 4.74,-2.36 8.58,-4.25 11.25,-5.53 1.33,-0.64 2.37,-1.14 3.08,-1.46 0.71,-0.32 1.09,-0.48 1.1,-0.46 0.01,0.03 -0.34,0.23 -1.02,0.61 -0.69,0.37 -1.7,0.91 -3.02,1.59 -2.63,1.36 -6.45,3.3 -11.18,5.68 -9.46,4.75 -22.56,11.24 -37.04,18.39z"/>
   <path class="fil0" d="M104.33 73.95c-15.45,4.82 -29.42,9.18 -39.55,12.35 -5.05,1.6 -9.13,2.9 -11.97,3.8 -1.4,0.46 -2.49,0.81 -3.25,1.06 -0.36,0.12 -0.64,0.22 -0.84,0.28 -0.19,0.07 -0.28,0.1 -0.28,0.11 0,0.01 0.1,-0.02 0.29,-0.07 0.2,-0.06 0.48,-0.14 0.85,-0.25 0.76,-0.23 1.85,-0.57 3.26,-1.01 2.84,-0.9 6.92,-2.19 11.97,-3.79 10.1,-3.25 24.04,-7.74 39.44,-12.7 15.39,-4.97 29.33,-9.45 39.44,-12.63 5.06,-1.59 9.15,-2.86 11.99,-3.72 1.42,-0.43 2.52,-0.75 3.28,-0.96 0.75,-0.21 1.15,-0.31 1.16,-0.28 0.01,0.03 -0.37,0.18 -1.11,0.44 -0.74,0.26 -1.83,0.63 -3.23,1.1 -2.81,0.94 -6.89,2.26 -11.94,3.87 -10.1,3.23 -24.08,7.6 -39.52,12.41z"/>
   <path class="fil0" d="M105.15 77.47c-16.02,2.36 -30.52,4.5 -41.03,6.06 -5.24,0.8 -9.48,1.45 -12.43,1.9 -1.46,0.23 -2.59,0.41 -3.37,0.54 -0.38,0.07 -0.67,0.11 -0.88,0.15 -0.2,0.04 -0.3,0.06 -0.3,0.06 0,0.01 0.1,-0 0.3,-0.03 0.21,-0.03 0.5,-0.07 0.88,-0.12 0.78,-0.11 1.92,-0.28 3.38,-0.49 2.95,-0.45 7.19,-1.09 12.43,-1.89 10.49,-1.65 24.97,-3.92 40.97,-6.42 15.99,-2.52 30.47,-4.78 40.97,-6.35 5.25,-0.79 9.5,-1.41 12.44,-1.81 1.47,-0.2 2.61,-0.35 3.39,-0.44 0.78,-0.09 1.19,-0.13 1.19,-0.1 0,0.03 -0.4,0.12 -1.17,0.26 -0.77,0.14 -1.9,0.34 -3.37,0.59 -2.93,0.49 -7.17,1.16 -12.41,1.97 -10.49,1.62 -24.99,3.77 -41,6.12z"/>
   <path class="fil1" d="M126.1 121.83c-1.91,-2.25 -4.55,-3.6 -6.38,-4.11 -1.72,-0.48 -4.32,-0.92 -6.97,-0.28 -1.65,0.4 -3.09,1.18 -4.29,2.31 -1.42,1.34 -2.5,3.18 -3.22,5.48 -0.11,0.35 -0.07,0.71 0.1,1.03 0.17,0.32 0.46,0.55 0.81,0.65l4.5 1.27c0.64,0.18 1.32,-0.14 1.58,-0.75 0.6,-1.36 2.1,-3.5 5.49,-2.61 2.58,0.68 3.12,2.84 3.23,3.73 0.18,1.46 -0.39,2.97 -1.54,4.03 -1.75,1.64 -4.04,1.32 -5.25,0.99 -1.39,-0.39 -2.84,0.42 -3.23,1.8l-1.36 4.85c-0.2,0.71 0.21,1.45 0.92,1.64l4.39 1.24c0.71,0.2 1.45,-0.21 1.64,-0.92l0.29 -1.02 0.05 -0.04c1.09,-0.07 3.26,-0.37 5.48,-1.61 2.84,-1.58 4.76,-4.11 5.72,-7.51 1.37,-4.87 -0.31,-8.22 -1.97,-10.16z"/>
   <path class="fil1" d="M112.57 143.76l-0.38 -0.11c-1.83,-0.52 -3.75,0.56 -4.26,2.39 -0.52,1.83 0.56,3.75 2.39,4.26l0.38 0.11c1.83,0.52 3.75,-0.56 4.26,-2.39 0.52,-1.84 -0.56,-3.75 -2.39,-4.26z"/>
   <path class="fil2" d="M135.77 94.99c-1.32,-0.73 -2.84,-0.89 -3.81,-0.8 -0.91,0.08 -2.24,0.35 -3.39,1.14 -0.71,0.49 -1.26,1.13 -1.63,1.89 -0.43,0.9 -0.62,1.98 -0.54,3.21 0.01,0.19 0.1,0.35 0.24,0.47 0.14,0.12 0.32,0.18 0.51,0.16l2.39 -0.22c0.34,-0.03 0.6,-0.31 0.62,-0.65 0.04,-0.76 0.37,-2.06 2.15,-2.25 1.36,-0.15 2.01,0.79 2.23,1.2 0.35,0.66 0.35,1.49 0,2.21 -0.54,1.11 -1.69,1.37 -2.34,1.43 -0.74,0.07 -1.28,0.72 -1.21,1.45l0.23 2.57c0.03,0.38 0.37,0.65 0.74,0.62l2.33 -0.21c0.38,-0.03 0.65,-0.37 0.62,-0.74l-0.05 -0.54 0.02 -0.03c0.51,-0.23 1.49,-0.77 2.33,-1.77 1.07,-1.28 1.53,-2.84 1.36,-4.64 -0.24,-2.58 -1.66,-3.88 -2.81,-4.51z"/>
   <path class="fil2" d="M133.31 107.97l-0.2 0.02c-0.97,0.09 -1.69,0.95 -1.6,1.93 0.09,0.97 0.95,1.69 1.93,1.6l0.2 -0.02c0.97,-0.09 1.69,-0.95 1.6,-1.93 -0.09,-0.97 -0.95,-1.69 -1.93,-1.6z"/>
   <path class="fil2" d="M40.1 40.11c-0.9,-0.88 -2.07,-1.36 -2.87,-1.51 -0.75,-0.14 -1.88,-0.23 -2.98,0.15 -0.69,0.23 -1.27,0.62 -1.74,1.14 -0.55,0.62 -0.95,1.45 -1.16,2.46 -0.03,0.15 -0,0.31 0.08,0.43 0.09,0.13 0.22,0.22 0.37,0.25l1.97 0.37c0.28,0.05 0.55,-0.11 0.65,-0.38 0.2,-0.6 0.76,-1.57 2.24,-1.32 1.13,0.19 1.43,1.09 1.52,1.47 0.13,0.61 -0.06,1.28 -0.5,1.78 -0.69,0.76 -1.67,0.72 -2.2,0.62 -0.61,-0.11 -1.19,0.29 -1.31,0.89l-0.4 2.12c-0.06,0.31 0.15,0.61 0.45,0.67l1.92 0.36c0.31,0.06 0.61,-0.15 0.67,-0.45l0.08 -0.44 0.02 -0.02c0.46,-0.07 1.37,-0.28 2.27,-0.89 1.15,-0.78 1.87,-1.93 2.15,-3.42 0.4,-2.13 -0.44,-3.49 -1.22,-4.26z"/>
   <path class="fil2" d="M35.17 49.97l-0.17 -0.03c-0.8,-0.15 -1.58,0.38 -1.73,1.18 -0.15,0.8 0.38,1.58 1.18,1.73l0.17 0.03c0.8,0.15 1.58,-0.38 1.73,-1.18 0.15,-0.8 -0.38,-1.58 -1.18,-1.73z"/>
   <path class="fil0" d="M132.21 40.79c-1.32,-0.73 -2.83,-0.9 -3.81,-0.82 -0.91,0.08 -2.24,0.34 -3.39,1.13 -0.72,0.49 -1.27,1.12 -1.64,1.88 -0.44,0.9 -0.62,1.98 -0.55,3.21 0.01,0.18 0.09,0.35 0.23,0.47 0.14,0.12 0.32,0.18 0.51,0.16l2.39 -0.21c0.34,-0.03 0.61,-0.31 0.62,-0.64 0.04,-0.76 0.38,-2.06 2.16,-2.25 1.36,-0.14 2.01,0.79 2.22,1.2 0.35,0.67 0.35,1.49 -0.01,2.21 -0.54,1.1 -1.7,1.37 -2.34,1.42 -0.74,0.07 -1.28,0.72 -1.22,1.45l0.22 2.57c0.03,0.38 0.37,0.65 0.74,0.62l2.33 -0.2c0.38,-0.03 0.65,-0.36 0.62,-0.74l-0.05 -0.54 0.02 -0.03c0.51,-0.23 1.49,-0.77 2.34,-1.76 1.07,-1.27 1.54,-2.83 1.38,-4.64 -0.23,-2.59 -1.64,-3.88 -2.79,-4.52z"/>
   <path class="fil0" d="M129.7 53.76l-0.2 0.02c-0.97,0.08 -1.7,0.95 -1.61,1.92 0.09,0.97 0.95,1.7 1.92,1.61l0.2 -0.02c0.97,-0.08 1.7,-0.95 1.61,-1.92 -0.08,-0.97 -0.95,-1.7 -1.92,-1.61z"/>
   <path class="fil0" d="M60.36 118.5c-1.65,-0.78 -3.49,-0.87 -4.66,-0.69 -1.09,0.17 -2.68,0.59 -4.01,1.63 -0.83,0.65 -1.44,1.46 -1.83,2.4 -0.46,1.12 -0.6,2.44 -0.41,3.92 0.03,0.22 0.14,0.42 0.32,0.55 0.18,0.14 0.4,0.19 0.63,0.16l2.87 -0.44c0.4,-0.06 0.71,-0.42 0.7,-0.83 -0.01,-0.92 0.29,-2.52 2.43,-2.88 1.63,-0.28 2.49,0.8 2.78,1.28 0.48,0.78 0.54,1.78 0.17,2.67 -0.57,1.38 -1.95,1.78 -2.72,1.91 -0.88,0.14 -1.49,0.97 -1.36,1.85l0.47 3.09c0.07,0.45 0.49,0.76 0.94,0.69l2.8 -0.43c0.45,-0.07 0.76,-0.49 0.69,-0.94l-0.1 -0.65 0.02 -0.04c0.6,-0.32 1.75,-1.04 2.68,-2.31 1.2,-1.62 1.64,-3.54 1.3,-5.71 -0.48,-3.11 -2.29,-4.56 -3.72,-5.24z"/>
   <path class="fil0" d="M58.34 134.37l-0.24 0.04c-1.17,0.18 -1.98,1.28 -1.8,2.45 0.18,1.17 1.28,1.98 2.45,1.8l0.24 -0.04c1.17,-0.18 1.98,-1.28 1.8,-2.45 -0.18,-1.17 -1.28,-1.98 -2.45,-1.8z"/>
   <path class="fil0" d="M35.19 60.04c-2.33,-1.09 -4.91,-1.21 -6.55,-0.95 -1.54,0.24 -3.76,0.83 -5.63,2.3 -1.16,0.91 -2.02,2.05 -2.57,3.38 -0.64,1.57 -0.83,3.43 -0.57,5.51 0.04,0.31 0.2,0.59 0.45,0.78 0.25,0.19 0.57,0.27 0.88,0.22l4.03 -0.62c0.57,-0.09 0.99,-0.59 0.98,-1.16 -0.02,-1.29 0.4,-3.54 3.41,-4.06 2.29,-0.39 3.5,1.12 3.91,1.79 0.67,1.09 0.76,2.5 0.24,3.75 -0.8,1.94 -2.73,2.51 -3.81,2.68 -1.24,0.2 -2.1,1.36 -1.91,2.6l0.67 4.34c0.1,0.63 0.69,1.07 1.33,0.97l3.93 -0.61c0.63,-0.1 1.07,-0.69 0.97,-1.33l-0.14 -0.91 0.03 -0.05c0.84,-0.45 2.45,-1.47 3.76,-3.26 1.68,-2.28 2.29,-4.98 1.82,-8.03 -0.68,-4.36 -3.22,-6.41 -5.24,-7.35z"/>
   <path class="fil0" d="M32.39 82.34l-0.34 0.05c-1.64,0.25 -2.77,1.8 -2.52,3.44 0.25,1.64 1.8,2.77 3.44,2.52l0.34 -0.05c1.64,-0.25 2.77,-1.8 2.52,-3.44 -0.25,-1.64 -1.8,-2.77 -3.44,-2.52z"/>
   <path class="fil3" d="M91.98 32.56l3.04 0.51c1.49,1.79 3.54,3.15 5.99,3.81 5.79,1.54 11.91,-1.64 13.99,-7.25 2.41,-6.49 -1.27,-13.65 -8.01,-15.44 -5.72,-1.52 -11.77,1.56 -13.92,7.08 -1.06,2.74 -1.03,5.6 -0.14,8.14l-0 -0.01 -0.96 3.16z"/>
   <path class="fil4" d="M91.98 32.56c0,0 0.02,-0.07 0.05,-0.2 0.04,-0.14 0.1,-0.34 0.17,-0.6 0.16,-0.54 0.39,-1.34 0.69,-2.36l0.02 -0.07 0.04 0.06 0 0.01 -0.06 0.03c-0.49,-1.37 -0.9,-3.33 -0.55,-5.64 0.17,-1.15 0.54,-2.37 1.13,-3.57 0.6,-1.2 1.46,-2.37 2.58,-3.39 1.12,-1.01 2.49,-1.86 4.04,-2.41 1.55,-0.55 3.28,-0.82 5.05,-0.63 1.76,0.17 3.53,0.76 5.12,1.74 1.6,0.97 2.96,2.39 3.94,4.07 0.52,0.84 0.86,1.76 1.16,2.68 0.07,0.23 0.11,0.47 0.17,0.7 0.05,0.24 0.12,0.46 0.14,0.7 0.03,0.24 0.06,0.47 0.09,0.71l0.04 0.35 0.01 0.35c0.07,1.89 -0.33,3.73 -1.07,5.36 -0.73,1.64 -1.85,3.01 -3.12,4.08 -1.27,1.07 -2.71,1.83 -4.16,2.28 -1.45,0.45 -2.91,0.59 -4.26,0.5 -0.34,-0.04 -0.67,-0.08 -0.99,-0.12 -0.32,-0.05 -0.63,-0.13 -0.94,-0.19 -0.62,-0.13 -1.19,-0.34 -1.73,-0.55 -2.16,-0.89 -3.63,-2.24 -4.55,-3.35l0.02 0.01c-0.98,-0.17 -1.74,-0.31 -2.26,-0.4 -0.25,-0.05 -0.44,-0.08 -0.58,-0.1 -0.13,-0.02 -0.19,-0.04 -0.19,-0.04 0,0 0.07,0.01 0.21,0.03 0.14,0.02 0.34,0.05 0.59,0.09 0.52,0.08 1.28,0.2 2.25,0.35l0.01 0 0.01 0.01c0.93,1.09 2.39,2.42 4.54,3.29 0.53,0.21 1.11,0.41 1.71,0.54 0.31,0.06 0.61,0.14 0.93,0.19 0.32,0.04 0.65,0.07 0.98,0.11 1.33,0.09 2.77,-0.06 4.2,-0.51 1.43,-0.45 2.85,-1.2 4.1,-2.26 1.25,-1.06 2.36,-2.41 3.07,-4.02 0.72,-1.6 1.12,-3.42 1.05,-5.28l-0.01 -0.35 -0.04 -0.35c-0.03,-0.23 -0.06,-0.47 -0.08,-0.7 -0.02,-0.23 -0.1,-0.46 -0.14,-0.69 -0.06,-0.23 -0.1,-0.46 -0.16,-0.69 -0.29,-0.9 -0.63,-1.81 -1.14,-2.64 -0.96,-1.66 -2.3,-3.06 -3.88,-4.02 -1.57,-0.97 -3.31,-1.55 -5.05,-1.72 -1.74,-0.19 -3.45,0.08 -4.98,0.61 -1.53,0.54 -2.89,1.37 -4,2.36 -1.1,1 -1.96,2.16 -2.56,3.34 -0.59,1.19 -0.96,2.39 -1.14,3.53 -0.35,2.29 0.04,4.23 0.51,5.6l0.09 0.25 -0.15 -0.22 -0 -0.01 0.06 -0.01c-0.32,1.01 -0.56,1.79 -0.73,2.33 -0.08,0.26 -0.15,0.46 -0.19,0.61 -0.04,0.14 -0.07,0.21 -0.07,0.21z"/>
   <path class="fil5" d="M106.5 20.12c-0.9,-0.6 -1.96,-0.8 -2.66,-0.8 -0.65,0 -1.61,0.11 -2.48,0.61 -0.54,0.31 -0.97,0.73 -1.27,1.25 -0.36,0.61 -0.56,1.37 -0.58,2.25 -0,0.13 0.05,0.26 0.14,0.35 0.09,0.09 0.22,0.15 0.35,0.15l1.71 -0.01c0.24,-0 0.45,-0.18 0.48,-0.42 0.07,-0.54 0.39,-1.44 1.67,-1.48 0.98,-0.02 1.38,0.68 1.51,0.98 0.21,0.49 0.16,1.08 -0.13,1.57 -0.45,0.75 -1.29,0.88 -1.75,0.88 -0.53,0.01 -0.95,0.44 -0.95,0.96l0.01 1.84c0,0.27 0.22,0.49 0.49,0.48l1.67 -0.01c0.27,-0 0.49,-0.22 0.48,-0.49l-0 -0.39 0.01 -0.02c0.38,-0.14 1.11,-0.46 1.76,-1.12 0.84,-0.84 1.26,-1.93 1.25,-3.22 -0.01,-1.85 -0.95,-2.86 -1.73,-3.38z"/>
   <path class="fil5" d="M103.97 29.21l-0.15 0c-0.7,0 -1.26,0.58 -1.26,1.27 0,0.7 0.58,1.26 1.27,1.26l0.15 -0c0.7,-0 1.26,-0.58 1.26,-1.27 -0,-0.7 -0.58,-1.26 -1.27,-1.26z"/>
   <path class="fil6" d="M108.62 47.76c-7.96,-5.36 -17.43,-7.26 -23.63,-7.26 -5.81,0 -14.36,0.92 -22.1,5.28 -4.81,2.71 -8.64,6.42 -11.4,11.01 -3.27,5.44 -5.03,12.18 -5.25,20.01 -0.03,1.18 0.4,2.29 1.22,3.13 0.83,0.85 1.93,1.32 3.12,1.32l15.24 0c2.15,0 4,-1.6 4.3,-3.73 0.68,-4.78 3.51,-12.82 14.91,-13.02 8.69,-0.15 12.27,6.14 13.41,8.85 1.85,4.41 1.38,9.64 -1.26,13.99 -4.05,6.68 -11.51,7.71 -15.6,7.72 -4.7,0.02 -8.52,3.83 -8.52,8.5l0 16.4c0,2.39 1.95,4.34 4.34,4.34l14.84 0c2.39,0 4.34,-1.95 4.34,-4.34l0 -3.44c0,-0.08 0.05,-0.15 0.13,-0.18 3.36,-1.18 9.88,-4.03 15.75,-9.87 7.5,-7.45 11.3,-17.07 11.3,-28.59 0,-16.48 -8.23,-25.48 -15.14,-30.13z"/>
   <path class="fil4" d="M84.44 131.96l1.2 0c5.9,0 10.69,4.8 10.69,10.69 0,5.9 -4.8,10.69 -10.69,10.69l-1.2 0c-5.9,0 -10.69,-4.8 -10.69,-10.69 0,-5.9 4.8,-10.69 10.69,-10.69z"/>
   <path class="fil4" d="M77.34 127.48l14.84 0c2.39,0 4.34,-1.89 4.34,-4.2l0 -6.7c0,-0.08 0.05,-0.15 0.13,-0.18 1.75,-0.6 4.21,-1.69 6.98,-3.4 -9.48,-0.07 -26.76,-0.16 -30.64,-0.02l0 10.3c0,2.32 1.95,4.2 4.34,4.2z"/>
   <path class="fil7" d="M89.56 53.21l-9.52 -27.65c-2.01,-6.92 -7.72,-11.52 -14.58,-9.32l-0.62 0.24c-6.27,2.42 -9.62,9.25 -7.72,15.69 1.78,5.99 3.82,12.59 5.06,15.69 2.57,6.42 9.31,4.62 9.31,4.62 0.01,-0 1.5,4.28 2.15,6.2l3.49 3.45 1.44 -1.57 11 -7.34z"/>
   <path class="fil8" d="M71.48 52.47c0,0 4.16,-1.33 7.44,-5.73 0,0 -0.15,5.63 -6.81,7.54l-0.63 -1.81z"/>
   <path class="fil4" d="M61.77 36.53c0.17,0.49 0.73,0.76 1.25,0.59 0.52,-0.17 0.8,-0.7 0.63,-1.2 -0.17,-0.49 -0.73,-0.76 -1.25,-0.59 -0.52,0.17 -0.8,0.71 -0.63,1.2z"/>
   <path class="fil4" d="M59.48 34.17c0.16,0.08 0.66,-0.71 1.65,-1.09 0.99,-0.39 1.91,-0.17 1.97,-0.33 0.03,-0.07 -0.17,-0.25 -0.57,-0.35 -0.4,-0.11 -1.02,-0.13 -1.64,0.11 -0.62,0.24 -1.05,0.67 -1.26,1.02 -0.21,0.35 -0.23,0.61 -0.16,0.64z"/>
   <path class="fil4" d="M70.07 33.24c0.16,0.08 0.66,-0.71 1.65,-1.09 0.99,-0.39 1.91,-0.17 1.97,-0.33 0.03,-0.07 -0.17,-0.25 -0.57,-0.35 -0.4,-0.11 -1.02,-0.13 -1.64,0.11 -0.62,0.24 -1.05,0.67 -1.26,1.02 -0.21,0.35 -0.23,0.61 -0.16,0.64z"/>
   <path class="fil4" d="M68.68 39.63c-0.02,-0.06 -0.67,0.07 -1.72,0.33 -0.26,0.07 -0.52,0.11 -0.63,-0.04 -0.13,-0.16 -0.13,-0.47 -0.12,-0.82 0,-0.7 0,-1.44 0,-2.22 -0.02,-3.15 -0.14,-5.7 -0.27,-5.69 -0.13,0 -0.21,2.55 -0.19,5.7 0.01,0.77 0.02,1.51 0.03,2.22 0.02,0.33 -0.02,0.71 0.25,1.04 0.14,0.16 0.38,0.23 0.56,0.21 0.18,-0.01 0.33,-0.07 0.45,-0.11 1.03,-0.33 1.65,-0.57 1.63,-0.63z"/>
   <path class="fil4" d="M67.77 27.66c0.23,0.2 1.09,-0.44 2.25,-0.91 1.15,-0.5 2.21,-0.67 2.23,-0.98 0,-0.14 -0.28,-0.3 -0.77,-0.34 -0.49,-0.05 -1.18,0.04 -1.87,0.33 -0.69,0.29 -1.23,0.73 -1.54,1.12 -0.31,0.38 -0.4,0.7 -0.29,0.79z"/>
   <path class="fil4" d="M58.31 31.27c0.29,0.15 1.02,-0.39 1.99,-0.76 0.96,-0.4 1.86,-0.51 1.96,-0.82 0.04,-0.15 -0.17,-0.32 -0.61,-0.41 -0.43,-0.08 -1.09,-0.04 -1.76,0.23 -0.66,0.27 -1.17,0.69 -1.42,1.04 -0.26,0.36 -0.29,0.64 -0.15,0.71z"/>
   <path class="fil7" d="M81.25 30.22c0.09,-0.09 3.93,-3.02 5.49,1.44 1.56,4.47 -3.24,5.11 -3.3,4.99 -0.05,-0.13 -2.2,-6.43 -2.2,-6.43z"/>
   <path class="fil8" d="M84.22 34.49c0.01,-0.02 0.1,0.03 0.25,0.04 0.15,0.01 0.38,-0.02 0.59,-0.19 0.41,-0.34 0.55,-1.23 0.29,-2.04 -0.13,-0.41 -0.35,-0.77 -0.61,-1.04 -0.25,-0.28 -0.54,-0.43 -0.79,-0.39 -0.26,0.03 -0.37,0.23 -0.38,0.37 -0.02,0.15 0.04,0.23 0.02,0.24 -0.01,0.02 -0.12,-0.04 -0.15,-0.24 -0.01,-0.1 0,-0.22 0.08,-0.34 0.08,-0.12 0.22,-0.22 0.39,-0.26 0.35,-0.1 0.77,0.11 1.06,0.41 0.3,0.29 0.56,0.69 0.71,1.15 0.29,0.91 0.12,1.91 -0.46,2.33 -0.29,0.19 -0.58,0.19 -0.75,0.13 -0.18,-0.06 -0.24,-0.15 -0.22,-0.17z"/>
   <path class="fil4" d="M72.05 39.18c-0.16,0.04 0.19,1.07 -0.45,2.1 -0.63,1.03 -1.77,1.28 -1.73,1.43 0.01,0.07 0.31,0.12 0.78,-0.02 0.46,-0.14 1.08,-0.5 1.47,-1.13 0.39,-0.63 0.42,-1.3 0.31,-1.74 -0.11,-0.44 -0.31,-0.66 -0.37,-0.63z"/>
   <path class="fil4" d="M45.96 29.02c-0.02,-0.29 0.09,-0.57 0.28,-0.79 0.4,-0.48 1.01,-0.65 1.57,-0.86 1.41,-0.52 2.69,-1.38 3.72,-2.46 -0.52,-0.07 -1.03,-0.19 -1.5,-0.42 -0.97,-0.47 -1.78,-1.42 -1.79,-2.5 -0,-0.2 0.04,-0.43 0.2,-0.55 0.26,-0.19 0.61,0 0.89,0.16 0.93,0.51 1.65,0.61 2.61,0.16 0.59,-0.28 1.14,-0.63 1.52,-1.1l0.03 -0.08c0.15,-0.32 0.29,-0.63 0.44,-0.93l0 -0 0 0c1.09,-2.26 2.13,-3.92 3.41,-5.04 1.87,-1.65 5.39,-3.28 7.87,-3.49 2.48,-0.2 5.17,0.92 6.31,3.14 0.89,-1.53 2.81,-2.19 4.58,-2.11l0.03 -0.03c1.95,0.01 3.57,1.49 4.7,3.07 0.06,0.09 0.12,0.18 0.18,0.26 0.91,0.72 1.98,1.23 3.13,1.45 0.2,0.04 0.43,0.09 0.52,0.28 0.09,0.18 -0.02,0.4 -0.13,0.56 -0.31,0.44 -0.72,0.81 -1.19,1.07 0.31,0.36 0.63,0.7 1,1.01 0.31,0.26 0.68,0.58 0.63,0.98 -0.04,0.31 -0.34,0.54 -0.65,0.6 -0.31,0.06 -0.63,-0.01 -0.93,-0.08 0.36,0.39 0.71,0.79 1.07,1.18 -0.59,0.33 -1.25,0.51 -1.92,0.54 0.21,1.78 1.01,4.93 0.98,6.19 -1.18,0.44 -1.51,0.41 -2.04,0.82 -0.68,0.53 0.09,1.79 -1.05,1.76 -0.58,-0.02 -2.05,-1.68 -2.41,-2.14 -2.36,-3.06 -4.04,-6.63 -4.9,-10.4 -0.98,-0.51 -2.07,-0.83 -3.17,-0.93l0.1 0.04c-2.05,0.01 -4.33,0.11 -5.76,1.58 -1.11,1.14 -1.41,2.81 -2.02,4.28 -1.16,2.78 -2.92,4.66 -5.71,5.78 0.44,2.06 1.5,5.31 2.05,7.18l-2.87 -3.13 0 0.02c-0.2,-0.17 -0.38,-0.35 -0.56,-0.53l-0.06 -0.05 -0 -0.01c-0.28,-0.29 -0.56,-0.59 -0.89,-0.86l-0.01 0.02c-0.69,1.23 -2.63,0.4 -2.22,-0.94 0.08,-0.27 0.2,-0.52 0.36,-0.75 -0.3,0.59 -0.91,1.03 -1.57,1.06 -0.66,0.03 -1.34,-0.41 -1.51,-1.05 -0.11,-0.44 0.06,-0.92 0.38,-1.23 -0.78,0.35 -1.67,0.46 -2.51,0.31 -0.55,-0.1 -1.16,-0.37 -1.2,-1.01z"/>
   <path class="fil9" d="M69.74 15.72c-0.01,0.02 0.33,0.08 0.87,0.37 0.53,0.29 1.21,0.88 1.77,1.82 0.28,0.46 0.54,1 0.75,1.6 0.21,0.6 0.39,1.26 0.59,1.96 0.2,0.69 0.4,1.43 0.71,2.16 0.15,0.36 0.33,0.73 0.55,1.08 0.21,0.34 0.45,0.71 0.85,0.93 0.32,0.18 0.73,0.17 1.03,-0.01 0.31,-0.17 0.54,-0.45 0.66,-0.76 0.25,-0.64 0.13,-1.3 0.04,-1.88l-0.13 0.07c0.4,0.41 0.8,0.82 1.28,1.09 0.47,0.27 1.03,0.37 1.51,0.24 0.24,-0.06 0.47,-0.18 0.63,-0.36 0.17,-0.17 0.26,-0.4 0.3,-0.61 0.03,-0.22 0.01,-0.44 -0.07,-0.63 -0.08,-0.19 -0.22,-0.35 -0.39,-0.43l-0.05 0.09c0.71,0.4 1.35,0.52 1.77,0.56 0.22,0.02 0.38,0.02 0.49,0.02 0.11,-0.01 0.17,-0.01 0.17,-0.02 -0,-0.01 -0.06,-0.01 -0.17,-0.01 -0.11,-0.01 -0.28,-0.01 -0.49,-0.04 -0.42,-0.06 -1.05,-0.19 -1.73,-0.59l-0.05 0.09c0.3,0.16 0.46,0.56 0.39,0.95 -0.04,0.2 -0.12,0.4 -0.27,0.54 -0.15,0.15 -0.35,0.26 -0.58,0.31 -0.45,0.11 -0.97,0.02 -1.41,-0.24 -0.45,-0.26 -0.84,-0.65 -1.24,-1.07l-0.17 -0.18 0.04 0.24c0.09,0.58 0.19,1.22 -0.04,1.8 -0.12,0.28 -0.33,0.53 -0.59,0.68 -0.27,0.16 -0.6,0.17 -0.88,0.01 -0.34,-0.19 -0.58,-0.54 -0.79,-0.88 -0.21,-0.34 -0.38,-0.7 -0.54,-1.05 -0.3,-0.72 -0.51,-1.45 -0.71,-2.14 -0.2,-0.69 -0.38,-1.36 -0.6,-1.96 -0.22,-0.61 -0.49,-1.15 -0.78,-1.62 -0.58,-0.94 -1.29,-1.53 -1.83,-1.81 -0.55,-0.28 -0.9,-0.31 -0.9,-0.31z"/>
   <path class="fil9" d="M51.78 29.2c-0,0 0.02,0.01 0.07,0.03 0.06,0.02 0.12,0.04 0.2,0.06 0.09,0.03 0.2,0.06 0.34,0.08 0.14,0.02 0.29,0.06 0.47,0.07 0.71,0.07 1.78,0.02 2.97,-0.48 1.18,-0.49 2.48,-1.43 3.43,-2.84 0.97,-1.4 1.63,-3.18 2.01,-5.1 0.2,-0.96 0.3,-1.91 0.46,-2.8 0.16,-0.9 0.38,-1.76 0.76,-2.5 0.37,-0.75 0.87,-1.38 1.48,-1.81 0.3,-0.22 0.63,-0.36 0.95,-0.46 0.33,-0.1 0.66,-0.14 0.97,-0.15 0.63,-0.01 1.19,0.14 1.65,0.34 0.46,0.2 0.81,0.46 1.07,0.7 0.51,0.5 0.66,0.88 0.68,0.86 0,-0 -0.01,-0.02 -0.03,-0.07 -0.03,-0.05 -0.06,-0.11 -0.1,-0.19 -0.09,-0.16 -0.26,-0.39 -0.51,-0.65 -0.26,-0.25 -0.61,-0.52 -1.08,-0.73 -0.46,-0.21 -1.04,-0.37 -1.69,-0.37 -0.32,0 -0.66,0.04 -1,0.14 -0.34,0.11 -0.68,0.25 -0.99,0.47 -0.63,0.43 -1.16,1.09 -1.54,1.85 -0.39,0.76 -0.62,1.64 -0.78,2.54 -0.17,0.91 -0.27,1.85 -0.46,2.8 -0.38,1.9 -1.02,3.66 -1.98,5.04 -0.93,1.4 -2.19,2.32 -3.35,2.82 -1.17,0.51 -2.22,0.58 -2.92,0.52 -0.71,-0.06 -1.08,-0.2 -1.09,-0.17z"/>
   <path class="fil9" d="M50.17 26.54c-0,0.01 0.1,0.04 0.29,0.08 0.19,0.04 0.47,0.08 0.82,0.11 0.35,0.03 0.77,0.02 1.23,-0.03 0.46,-0.05 0.96,-0.15 1.47,-0.31 0.51,-0.16 0.97,-0.37 1.38,-0.59 0.4,-0.23 0.75,-0.46 1.02,-0.68 0.27,-0.22 0.48,-0.41 0.61,-0.56 0.13,-0.14 0.2,-0.23 0.19,-0.23 -0.02,-0.02 -0.32,0.29 -0.87,0.7 -0.27,0.21 -0.62,0.43 -1.02,0.64 -0.4,0.21 -0.86,0.41 -1.36,0.57 -0.5,0.16 -0.99,0.25 -1.44,0.31 -0.45,0.05 -0.86,0.07 -1.2,0.06 -0.69,-0.02 -1.11,-0.1 -1.11,-0.07z"/>
   <path class="fil4" d="M62.4 73.28c-0.06,0.02 0.71,3.85 1.45,7.82l0.24 0c-0.75,-3.97 -1.63,-7.83 -1.69,-7.82z"/>
   <path class="fil9" d="M65.63 81.29c2.16,0 4.16,-1.56 4.46,-3.68 0.68,-4.77 3.4,-12.85 14.88,-13.04 8.74,-0.15 12.42,6.04 13.45,8.79 1.64,4.37 1.43,9.67 -1.22,14.02 -4.08,6.67 -11.59,7.7 -15.7,7.71 -4.73,0.02 -8.58,3.83 -8.58,8.49l0 17.83 23.68 -0.45 0 -4.45c0,-0.08 0.05,-0.15 0.13,-0.18 2.89,-1 7.46,-2.91 12.61,-7.06l-1.54 -20.53c0,0 4.51,-8.66 4.28,-10.61 -2.04,-17.81 -8.1,-27.88 -10.56,-28.82 -2.76,-1.06 -13.43,-0.54 -13.43,-0.54 0,0 -4.61,8.54 -11.07,9.48 -3.6,0.53 -4.91,-3.97 -4.91,-3.97l-8.36 4.9c-5.95,3 -7.1,14.67 -7.21,22.11l9.08 0z"/>
   <path class="fil10" d="M89.65 93.61c-0,-0 -0,-0.01 -0.01,-0.01 0,0 0.54,-0.22 1.16,-0.51 0,0 0.01,0.01 0.01,0.01 -0.39,0.19 -0.77,0.36 -1.16,0.51zm1.34 -0.6c-0,-0 -0.01,-0.01 -0.01,-0.01 0.22,-0.1 0.43,-0.21 0.64,-0.32 0.01,-0.01 0.03,-0.01 0.04,-0.02 -0.22,0.12 -0.45,0.24 -0.67,0.35z"/>
   <path class="fil11" d="M90.81 93.1c-0,-0 -0.01,-0.01 -0.01,-0.01 0.03,-0.01 0.05,-0.03 0.08,-0.04 0,0 0.01,0.01 0.01,0.01 -0.03,0.01 -0.05,0.03 -0.08,0.04z"/>
   <path class="fil11" d="M90.89 93.06c-0,-0 -0.01,-0.01 -0.01,-0.01 0.03,-0.02 0.06,-0.03 0.1,-0.05 0,0 0.01,0.01 0.01,0.01 -0.03,0.02 -0.06,0.03 -0.1,0.05z"/>
   <path class="fil12" d="M108.47 97.58l-0.1 -1.27c0.24,0.35 0.2,0.83 0.1,1.27zm-18.82 -3.96c-0,-0 -0,-0.01 -0,-0.01 0.39,-0.15 0.78,-0.32 1.16,-0.51 0.03,-0.01 0.05,-0.03 0.08,-0.04 0.03,-0.02 0.06,-0.03 0.1,-0.05 0.22,-0.11 0.45,-0.23 0.67,-0.35 0.78,-0.42 1.42,-0.87 1.42,-0.87 0,0 0,0 0,0 -1.1,0.78 -2.26,1.37 -3.43,1.84z"/>
   <path class="fil13" d="M101.54 103.75c-1.41,0 -2.77,-0.67 -3.97,-1.43 -3.31,-2.11 -6.14,-5.2 -7.92,-8.7 1.17,-0.46 2.33,-1.06 3.43,-1.84 4.77,1.22 9.48,2.75 14.25,3.97 0.35,0.09 0.73,0.19 0.97,0.47 0.03,0.03 0.05,0.06 0.07,0.09l0.1 1.27c-0.02,0.06 -0.03,0.12 -0.05,0.18 -0.5,1.64 -1.59,3.06 -2.87,4.19 -1.04,0.91 -2.28,1.68 -3.66,1.79 -0.11,0.01 -0.23,0.01 -0.34,0.01z"/>
   <path class="fil7" d="M98.33 73.48c1.91,4.4 1.42,9.63 -1.3,13.97 -1.51,2.41 -3.43,4.13 -5.53,5.29 2.26,2.46 4.55,4.62 6.82,6.23 2.44,1.73 8.06,1.24 10.19,-2.55 2.63,-4.67 2.85,-16.61 2.85,-16.61 0.5,-7.2 0.5,-7.2 0.5,-7.2l-14.7 -2.25 -0.12 0.4c0.63,0.95 1,2.06 1.29,2.72z"/>
   <path class="fil9" d="M72.73 70.45l-0.84 1.32c-0.64,0.44 -1.24,0.2 -1.63,-0.62l-9.05 -13.78 2.2 -1.4 10 13.21c0,0 0.14,0.7 -0.68,1.27z"/>
   <path class="fil4" d="M61.41 40.2c-2.55,-1.44 -5.73,-1.67 -8.59,-0.35 -2.28,1.06 -4.01,2.94 -4.87,5.3 -0.86,2.36 -0.76,4.91 0.3,7.19 1.06,2.28 2.94,4.01 5.3,4.87 2.36,0.86 4.91,0.76 7.19,-0.3 2.28,-1.06 4.01,-2.94 4.87,-5.3 0.86,-2.36 0.76,-4.91 -0.3,-7.19 -0.86,-1.85 -2.24,-3.29 -3.9,-4.22zm-9.59 16.94c-1.77,-1 -3.26,-2.54 -4.18,-4.52 -1.13,-2.44 -1.25,-5.18 -0.32,-7.7 0.93,-2.53 2.78,-4.54 5.22,-5.68 5.04,-2.34 11.04,-0.14 13.38,4.9 1.13,2.44 1.25,5.18 0.32,7.7 -0.93,2.53 -2.78,4.54 -5.22,5.68 -3.06,1.42 -6.47,1.17 -9.2,-0.37z"/>
   <path class="fil9" d="M61.84 39.78c-2.55,-1.44 -5.73,-1.67 -8.59,-0.35 -2.28,1.06 -4.01,2.94 -4.87,5.3 -0.86,2.36 -0.76,4.91 0.3,7.19 1.06,2.28 2.94,4.01 5.3,4.87 2.36,0.86 4.91,0.76 7.19,-0.3 2.28,-1.06 4.01,-2.94 4.87,-5.3 0.86,-2.36 0.76,-4.91 -0.3,-7.19 -0.86,-1.85 -2.24,-3.29 -3.9,-4.22zm-9.59 16.94c-1.77,-1 -3.26,-2.54 -4.18,-4.52 -1.13,-2.44 -1.25,-5.18 -0.32,-7.7 0.93,-2.53 2.78,-4.54 5.22,-5.68 5.04,-2.34 11.04,-0.14 13.38,4.9 1.13,2.44 1.25,5.18 0.32,7.7 -0.93,2.53 -2.78,4.54 -5.22,5.68 -3.06,1.42 -6.47,1.17 -9.2,-0.37z"/>
   <path class="fil3" d="M65.59 48.1c-0,0 -0.01,-0.06 -0.01,-0.17 -0.01,-0.11 0,-0.27 -0.02,-0.47 -0.02,-0.41 -0.12,-1 -0.33,-1.7 -0.11,-0.35 -0.26,-0.72 -0.44,-1.11 -0.2,-0.38 -0.41,-0.79 -0.69,-1.19 -0.27,-0.4 -0.58,-0.8 -0.95,-1.19 -0.36,-0.38 -0.76,-0.76 -1.21,-1.09 -0.45,-0.33 -0.92,-0.61 -1.39,-0.84 -0.48,-0.22 -0.96,-0.39 -1.43,-0.51 -0.94,-0.24 -1.82,-0.3 -2.55,-0.26 -0.73,0.04 -1.32,0.16 -1.71,0.27 -0.2,0.05 -0.35,0.1 -0.45,0.13 -0.1,0.03 -0.16,0.05 -0.16,0.04 -0,-0 0.05,-0.02 0.15,-0.06 0.1,-0.03 0.25,-0.1 0.45,-0.15 0.39,-0.12 0.98,-0.25 1.72,-0.3 0.74,-0.05 1.63,0 2.58,0.24 0.47,0.12 0.96,0.29 1.45,0.51 0.48,0.23 0.96,0.51 1.41,0.85 0.46,0.34 0.86,0.72 1.22,1.11 0.37,0.39 0.68,0.8 0.95,1.2 0.28,0.4 0.49,0.82 0.69,1.21 0.18,0.4 0.33,0.77 0.43,1.13 0.21,0.71 0.29,1.31 0.3,1.72 0.02,0.21 -0,0.37 -0,0.48 -0,0.11 -0.01,0.17 -0.01,0.16z"/>
   <path class="fil3" d="M55.07 56.3c0.01,-0.02 0.47,0.15 1.24,0.25 0.1,0.01 0.2,0.02 0.3,0.04 0.11,0.01 0.22,0.01 0.33,0.02 0.23,0.02 0.48,0.01 0.73,0 0.52,-0.03 1.08,-0.11 1.66,-0.26 0.58,-0.16 1.1,-0.38 1.56,-0.61 0.23,-0.13 0.44,-0.24 0.63,-0.37 0.1,-0.06 0.19,-0.12 0.28,-0.18 0.09,-0.06 0.17,-0.13 0.25,-0.18 0.62,-0.48 0.93,-0.86 0.95,-0.84 0.01,0.01 -0.07,0.1 -0.22,0.26 -0.07,0.08 -0.16,0.18 -0.28,0.29 -0.12,0.11 -0.24,0.23 -0.4,0.35 -0.08,0.06 -0.16,0.13 -0.24,0.19 -0.09,0.07 -0.18,0.12 -0.28,0.19 -0.19,0.14 -0.41,0.25 -0.64,0.38 -0.46,0.24 -1,0.46 -1.58,0.62 -0.59,0.15 -1.16,0.23 -1.68,0.26 -0.26,0 -0.51,0.01 -0.74,-0.01 -0.12,-0.01 -0.23,-0.01 -0.34,-0.03 -0.11,-0.02 -0.21,-0.03 -0.31,-0.04 -0.2,-0.02 -0.37,-0.07 -0.52,-0.1 -0.15,-0.03 -0.28,-0.07 -0.39,-0.11 -0.21,-0.07 -0.32,-0.11 -0.32,-0.12z"/>
   <path class="fil3" d="M62.01 49.85c-0.02,0.02 -1.33,-1.29 -2.93,-2.94 -1.6,-1.64 -2.88,-2.99 -2.86,-3.01 0.02,-0.02 1.33,1.29 2.93,2.94 1.6,1.64 2.88,2.99 2.86,3.01z"/>
   <path class="fil3" d="M60.46 52.49c-0,0 -0.04,-0.03 -0.1,-0.09 -0.07,-0.07 -0.15,-0.17 -0.26,-0.28 -0.23,-0.26 -0.55,-0.61 -0.94,-1.04 -0.79,-0.88 -1.89,-2.1 -3.12,-3.43 -1.23,-1.33 -2.35,-2.52 -3.17,-3.38 -0.4,-0.42 -0.73,-0.77 -0.97,-1.02 -0.11,-0.12 -0.19,-0.21 -0.26,-0.28 -0.06,-0.07 -0.09,-0.1 -0.09,-0.1 0,-0 0.04,0.03 0.1,0.09 0.07,0.07 0.16,0.16 0.27,0.27 0.24,0.23 0.57,0.57 0.99,1 0.83,0.85 1.96,2.03 3.19,3.36 1.23,1.33 2.32,2.56 3.09,3.45 0.39,0.45 0.7,0.81 0.91,1.07 0.1,0.12 0.18,0.22 0.24,0.29 0.05,0.07 0.08,0.11 0.08,0.11z"/>
   <path class="fil3" d="M57.32 49.74l-7.25 -7.9c0,0 0,-0 0,-0 0.01,-0.01 0.02,-0.03 0.04,-0.04 0.07,-0.08 0.24,-0.26 0.48,-0.49 0.44,-0.39 0.93,-0.74 1.44,-1.04 2,2.72 4.12,5.59 6.33,8.59 -0.2,0.16 -0.4,0.33 -0.59,0.49 -0.5,-0.56 -1.05,-1.16 -1.63,-1.79 -1.23,-1.33 -2.36,-2.52 -3.19,-3.36 -0.42,-0.42 -0.75,-0.76 -0.99,-1 -0.11,-0.11 -0.2,-0.2 -0.27,-0.27 -0.06,-0.06 -0.1,-0.09 -0.1,-0.09 -0,0 -0,0 -0,0 -0,0 0.03,0.04 0.09,0.1 0.07,0.07 0.15,0.17 0.26,0.28 0.24,0.25 0.56,0.6 0.97,1.02 0.82,0.86 1.94,2.05 3.17,3.38 0.58,0.63 1.13,1.23 1.63,1.79 -0.12,0.11 -0.24,0.21 -0.36,0.32zm1.34 -1.13c-1.79,-2.46 -3.51,-4.83 -5.16,-7.1l5.97 6.48c-0.27,0.2 -0.54,0.41 -0.8,0.62z"/>
   <path class="fil14" d="M58.35 48.86c-2.21,-3 -4.33,-5.87 -6.33,-8.59 0.07,-0.04 0.15,-0.09 0.22,-0.13 0,-0 0,-0 0,-0l1.26 1.36c1.65,2.27 3.38,4.64 5.16,7.1 -0.1,0.08 -0.21,0.17 -0.31,0.25z"/>
   <path class="fil6" d="M62.69 55.59l-0.53 -0.57c0.13,-0.11 0.24,-0.22 0.34,-0.31 0.12,-0.1 0.21,-0.2 0.28,-0.29 0.15,-0.16 0.22,-0.26 0.22,-0.26 -0,-0 -0,-0 -0,-0 -0.03,0 -0.33,0.35 -0.9,0.8l-4.8 -5.22c0.12,-0.11 0.24,-0.21 0.36,-0.32 0.56,0.62 1.06,1.18 1.48,1.64 0.39,0.43 0.71,0.79 0.94,1.04 0.11,0.12 0.19,0.21 0.26,0.28 0.06,0.06 0.09,0.09 0.1,0.09 0,0 0,-0 0,-0 0,-0 -0.02,-0.04 -0.08,-0.11 -0.06,-0.08 -0.14,-0.17 -0.24,-0.29 -0.21,-0.26 -0.52,-0.62 -0.91,-1.07 -0.41,-0.47 -0.91,-1.04 -1.46,-1.66 0.2,-0.17 0.39,-0.33 0.59,-0.49 0.1,-0.08 0.21,-0.17 0.31,-0.25 0.26,-0.21 0.53,-0.42 0.8,-0.62l5.15 5.59c0,0 -0.8,1.13 -1.63,1.8 -0.09,0.07 -0.18,0.13 -0.27,0.2 -0.01,0 -0.01,0.01 -0.02,0.01z"/>
   <path class="fil15" d="M50.57 41.31c0.39,-0.36 0.97,-0.84 1.67,-1.16 -0.07,0.04 -0.15,0.08 -0.22,0.13 -0.52,0.3 -1,0.65 -1.44,1.04z"/>
   <path class="fil16" d="M62.71 55.58c0.09,-0.07 0.18,-0.13 0.27,-0.2 -0.09,0.07 -0.18,0.14 -0.27,0.2zm-12.65 -13.74c0,-0 0.02,-0.02 0.04,-0.04 -0.01,0.01 -0.02,0.03 -0.04,0.04z"/>
   <path class="fil3" d="M62.17 55.02l-0.05 -0.06c0.57,-0.45 0.87,-0.8 0.9,-0.8 0,0 0,0 0,0 0.01,0.01 -0.07,0.1 -0.22,0.26 -0.07,0.08 -0.16,0.18 -0.28,0.29 -0.1,0.09 -0.21,0.2 -0.34,0.31z"/>
   <path class="fil3" d="M60.46 52.49c-0,0 -0.04,-0.03 -0.1,-0.09 -0.07,-0.07 -0.15,-0.17 -0.26,-0.28 -0.23,-0.26 -0.55,-0.61 -0.94,-1.04 -0.42,-0.47 -0.92,-1.02 -1.48,-1.64 -0.5,-0.55 -1.05,-1.16 -1.63,-1.79 -1.23,-1.33 -2.35,-2.52 -3.17,-3.38 -0.4,-0.42 -0.73,-0.77 -0.97,-1.02 -0.11,-0.12 -0.19,-0.21 -0.26,-0.28 -0.06,-0.07 -0.09,-0.1 -0.09,-0.1 0,0 0,0 0,0 0,0 0.04,0.03 0.1,0.09 0.07,0.07 0.16,0.16 0.27,0.27 0.24,0.23 0.57,0.57 0.99,1 0.83,0.85 1.96,2.03 3.19,3.36 0.58,0.63 1.13,1.24 1.63,1.79 0.56,0.62 1.05,1.19 1.46,1.66 0.39,0.45 0.7,0.81 0.91,1.07 0.1,0.12 0.18,0.22 0.24,0.29 0.05,0.07 0.08,0.11 0.08,0.11 -0,0 -0,0 -0,0z"/>
   <path class="fil17" d="M60.44 56.76l-0.46 -0.5c0.25,-0.09 0.48,-0.19 0.7,-0.29l0.48 0.52c-0.16,0.08 -0.33,0.15 -0.49,0.21 -0.07,0.02 -0.15,0.04 -0.23,0.06z"/>
   <path class="fil3" d="M55.53 51.47l-6.88 -7.41c0,0 0,-0 0,-0 0.1,-0.21 0.2,-0.42 0.31,-0.62 0.01,-0.01 0.02,-0.03 0.03,-0.04l7.03 7.57c-0.17,0.17 -0.33,0.34 -0.5,0.51z"/>
   <path class="fil6" d="M59.9 56.17l-4.37 -4.71c0.16,-0.17 0.33,-0.34 0.5,-0.51l4.58 4.93c-0.22,0.1 -0.46,0.2 -0.71,0.29z"/>
   <path class="fil16" d="M60.67 56.7c0.16,-0.07 0.33,-0.14 0.49,-0.21l0 0c0,0 0.09,0.05 -0.49,0.21zm-12.02 -12.64c0,-0.01 0.06,-0.3 0.31,-0.62 -0.11,0.2 -0.21,0.41 -0.31,0.62z"/>
   <path class="fil3" d="M59.98 56.26l-0.08 -0.08c0.25,-0.09 0.49,-0.19 0.71,-0.29l0.07 0.08c-0.22,0.1 -0.46,0.2 -0.7,0.29z"/>
   <path class="fil7" d="M81.02 64.99c-2.6,-2.09 -8.97,-7.19 -9.26,-7.33 -0.37,-0.17 -5.97,-2.16 -7.04,-1.52 -1.07,0.64 -3.95,4.25 -3.95,4.25 0,0 0.27,2.25 2.78,0.64 1.92,-1.23 2.21,-1.42 2.25,-1.44l-0 0 2.67 0.62c0,0 -3.26,1.36 -3.94,2.07 -0.69,0.71 -1.78,3.45 -1.1,4.08 0.68,0.63 1.47,0.68 1.47,0.68 0,0 -1.34,1.91 1.04,3.06 0,0 0.35,1.6 1.52,2.23 1.18,0.63 3.37,0.41 3.37,0.41 0,0 1.02,-0.6 0.26,-1.6 -0.75,-1 -2.15,-1.13 -2.15,-1.13l1.73 -1.01c0,0 0.9,0.27 2.23,1.3 0,0 1.58,-2.02 3.15,-3.16 1.77,-1.28 4.99,-2.18 4.99,-2.18z"/>
   <path class="fil8" d="M69.98 65.84c-0,-0.01 -0.09,-0.01 -0.26,0.01 -0.16,0.02 -0.4,0.07 -0.68,0.16 -0.56,0.18 -1.32,0.57 -1.93,1.24 -0.62,0.67 -0.94,1.46 -1.07,2.03 -0.07,0.29 -0.09,0.53 -0.1,0.69 -0.01,0.17 -0,0.26 0.01,0.26 0.02,0 0.03,-0.36 0.18,-0.93 0.15,-0.56 0.48,-1.31 1.08,-1.97 0.6,-0.65 1.33,-1.04 1.87,-1.24 0.55,-0.2 0.91,-0.23 0.91,-0.26z"/>
   <path class="fil8" d="M70.09 62.94c-0,-0.01 -0.1,-0 -0.27,0.02 -0.09,0.01 -0.2,0.02 -0.32,0.05 -0.12,0.03 -0.26,0.05 -0.42,0.1 -0.31,0.08 -0.66,0.21 -1.04,0.39 -0.38,0.19 -0.77,0.42 -1.16,0.72 -0.38,0.3 -0.71,0.62 -0.99,0.94 -0.27,0.32 -0.49,0.63 -0.64,0.91 -0.08,0.13 -0.14,0.26 -0.2,0.38 -0.06,0.11 -0.1,0.21 -0.13,0.29 -0.07,0.16 -0.1,0.26 -0.09,0.26 0.02,0.01 0.17,-0.35 0.5,-0.88 0.16,-0.27 0.39,-0.56 0.66,-0.88 0.28,-0.31 0.6,-0.62 0.98,-0.91 0.38,-0.29 0.81,-0.61 1.18,-0.8 0.37,-0.18 0.67,-0.23 0.97,-0.32 0.6,-0.19 0.99,-0.23 0.98,-0.26z"/>
   <path class="fil8" d="M70.58 59.6c0,-0.01 -0.13,-0.07 -0.36,-0.08 -0.23,-0.02 -0.56,0.02 -0.88,0.16 -0.44,0.19 -0.6,0.37 -0.73,0.53 -0.15,0.18 -0.21,0.31 -0.19,0.32 0.03,0.03 0.34,-0.47 0.97,-0.73 0.63,-0.27 1.2,-0.15 1.2,-0.19z"/>
   <path class="fil9" d="M100.5 49.03c0,0 8.23,0.79 10.84,7.93 2.07,5.67 3.2,22.66 2.68,23.01l-14.52 -0.46c-0.19,-4.14 -1.31,-7.34 -2.87,-9.41l3.88 -21.07z"/>
   <path class="fil8" d="M99.71 79.51c0.01,-0.01 0.11,0.05 0.28,0.16 0.18,0.11 0.43,0.28 0.73,0.51 0.6,0.44 1.4,1.11 2.21,1.92 0.81,0.81 1.47,1.61 1.92,2.2 0.23,0.3 0.4,0.54 0.52,0.72 0.12,0.17 0.18,0.27 0.17,0.28 -0.02,0.02 -0.31,-0.35 -0.78,-0.92 -0.48,-0.57 -1.15,-1.35 -1.95,-2.16 -0.8,-0.81 -1.58,-1.48 -2.16,-1.94 -0.58,-0.47 -0.95,-0.74 -0.94,-0.76z"/>
   <path class="fil4" d="M97.98 62.04c0.05,0.01 -0.22,1.82 -0.6,4.05 -0.38,2.23 -0.72,4.03 -0.77,4.02 -0.05,-0.01 0.22,-1.82 0.6,-4.05 0.38,-2.23 0.72,-4.03 0.77,-4.02z"/>
   <path class="fil4" d="M79.71 112.99c-0,-0.01 0.08,-0.02 0.24,-0.04 0.18,-0.02 0.41,-0.04 0.69,-0.07 0.62,-0.06 1.49,-0.14 2.55,-0.24 2.16,-0.21 5.13,-0.52 8.41,-0.93 3.28,-0.42 6.24,-0.86 8.38,-1.19 1.06,-0.17 1.92,-0.3 2.53,-0.4 0.29,-0.04 0.51,-0.08 0.69,-0.1 0.16,-0.02 0.24,-0.03 0.24,-0.03 0,0.01 -0.08,0.03 -0.24,0.06 -0.17,0.03 -0.4,0.08 -0.68,0.14 -0.59,0.12 -1.46,0.27 -2.53,0.46 -2.14,0.37 -5.1,0.83 -8.38,1.24 -3.28,0.41 -6.26,0.71 -8.42,0.88 -1.08,0.09 -1.95,0.15 -2.56,0.19 -0.29,0.02 -0.52,0.03 -0.7,0.04 -0.16,0.01 -0.24,0.01 -0.24,0z"/>
   <path class="fil4" d="M78.42 110.82c-0,-0.01 0.21,-0.03 0.6,-0.05 0.41,-0.02 0.97,-0.05 1.63,-0.09 1.41,-0.07 3.3,-0.17 5.39,-0.28 2.09,-0.12 3.98,-0.23 5.39,-0.31 0.67,-0.04 1.22,-0.07 1.63,-0.09 0.39,-0.02 0.6,-0.02 0.6,-0.01 0,0.01 -0.21,0.04 -0.6,0.08 -0.38,0.04 -0.94,0.09 -1.63,0.15 -1.38,0.11 -3.28,0.25 -5.39,0.36 -2.11,0.11 -4.01,0.19 -5.39,0.23 -0.69,0.02 -1.25,0.03 -1.64,0.03 -0.39,0 -0.6,-0 -0.6,-0.01z"/>
   <path class="fil7" d="M55.29 80.07c0.05,-0.21 0.14,-0.4 0.26,-0.58 0.24,-0.35 0.61,-0.61 1.03,-0.71 0.69,-0.16 1.47,0.17 1.84,0.77 -0.03,-0.46 0.34,-0.89 0.78,-1.01 0.44,-0.12 0.79,0.05 1.14,0.34 0.35,0.29 0.45,0.53 0.59,0.97 0.35,-0.79 2.17,-0.7 2.39,-0.1 0,0 1.57,-1.71 2.37,-0.87 0.33,0.35 0.19,0.89 -0.03,1.42 -0.29,0.72 -0.49,1.02 -0.87,1.81l-1.48 0.08c-0.12,0.46 -0.39,2.35 -0.44,2.83 -0.06,0.48 -0.15,0.96 -0.4,1.37 -0.25,0.41 -0.69,0.73 -1.17,0.72 -0.48,-0.01 -0.95,-0.42 -0.92,-0.9 -0.1,0.4 -0.27,0.79 -0.56,1.07 -0.29,0.29 -0.72,0.45 -1.12,0.35 -0.4,-0.1 -0.71,-0.52 -0.63,-0.92 -0.53,0.37 -1.31,0.04 -1.64,-0.51 -0.34,-0.55 -0.34,-1.23 -0.32,-1.87 0.02,-0.57 0.07,-1.21 -0.15,-1.75 -0.04,-0.08 -0.1,-0.16 -0.12,-0.25 -0.03,-0.13 -0.01,-0.29 -0.02,-0.42 -0.02,-0.3 -0.08,-0.6 -0.18,-0.88 -0.02,-0.06 -0.05,-0.12 -0.07,-0.18 -0.07,-0.16 -0.18,-0.29 -0.26,-0.45 -0.02,-0.03 -0.03,-0.07 -0.04,-0.1 -0.01,-0.08 0.02,-0.16 0.04,-0.24z"/>
   <path class="fil7" d="M53.63 79.25c-0.4,-0.01 -0.83,0.07 -1.09,0.36 -0.31,0.35 -0.39,1.19 -0.35,1.66 0.55,0.1 0.84,-0.02 1.39,0.09 0.12,0.02 0.21,-0.01 0.31,0.06 0.25,0.18 0.21,0.79 0.31,1.08 0.18,0.51 0.83,0.76 1.33,0.57 0.5,-0.19 0.83,-0.72 0.86,-1.26 0.03,-0.54 -0.21,-1.06 -0.56,-1.48 -0.54,-0.64 -1.36,-1.04 -2.2,-1.08z"/>
   <path class="fil8" d="M62.98 84.24c-0.06,-0.01 0.17,-1.02 0.31,-2.27 0.07,-0.63 0.08,-1.19 0.06,-1.6 -0.02,-0.41 -0.07,-0.66 -0.04,-0.67 0.02,-0.01 0.11,0.24 0.17,0.66 0.06,0.42 0.06,1 -0.01,1.63 -0.07,0.63 -0.19,1.2 -0.28,1.6 -0.1,0.4 -0.18,0.65 -0.2,0.64z"/>
   <path class="fil8" d="M60.3 86.4c-0.02,-0.01 0.04,-0.37 0.15,-0.96 0.11,-0.59 0.26,-1.4 0.37,-2.3 0.11,-0.9 0.15,-1.72 0.14,-2.32 -0.01,-0.59 -0.05,-0.96 -0.02,-0.97 0.02,-0 0.11,0.36 0.15,0.96 0.04,0.6 0.02,1.43 -0.09,2.34 -0.12,0.91 -0.29,1.72 -0.42,2.3 -0.14,0.58 -0.25,0.94 -0.27,0.93z"/>
   <path class="fil8" d="M58.04 86.78c-0.03,-0.01 0.07,-0.41 0.19,-1.07 0.12,-0.66 0.25,-1.57 0.31,-2.58 0.05,-1.01 0.02,-1.94 -0.02,-2.6 -0.05,-0.67 -0.1,-1.08 -0.07,-1.08 0.01,-0 0.04,0.1 0.07,0.28 0.04,0.18 0.08,0.45 0.12,0.79 0.08,0.67 0.13,1.6 0.07,2.62 -0.06,1.02 -0.21,1.94 -0.36,2.6 -0.07,0.33 -0.15,0.59 -0.2,0.77 -0.06,0.18 -0.09,0.28 -0.1,0.27z"/>
   <path class="fil8" d="M55.06 80.18c0.01,-0.02 0.2,0.04 0.46,0.23 0.26,0.19 0.57,0.54 0.75,1 0.18,0.46 0.2,0.93 0.1,1.25 -0.1,0.33 -0.3,0.44 -0.31,0.42 -0.02,-0.02 0.13,-0.15 0.19,-0.45 0.06,-0.29 0.03,-0.73 -0.14,-1.16 -0.17,-0.43 -0.44,-0.76 -0.67,-0.97 -0.22,-0.21 -0.4,-0.3 -0.38,-0.33z"/>
  </g>
 </g>
</svg>
