<svg id="Capa_1" data-name="Capa 1" xmlns="http://www.w3.org/2000/svg" viewBox="0 0 300 300"><defs><style>.cls-1{fill:#ffd782;}.cls-2{fill:#cfdfe8;}.cls-3{fill:#2d75bb;}.cls-4{fill:#7d8d9c;}.cls-5{fill:#d3843d;}</style></defs><title>Iconos_finales</title><path class="cls-1" d="M73.423,33.12H226.577A16.121,16.121,0,0,1,242.7,49.241V250.759a16.121,16.121,0,0,1-16.121,16.121H73.423A16.121,16.121,0,0,1,57.3,250.759V49.241A16.121,16.121,0,0,1,73.423,33.12Z"/><path class="cls-2" d="M73.423,49.241H226.577V97.605H73.423Z"/><circle class="cls-3" cx="150" cy="129.848" r="16.121"/><circle class="cls-3" cx="202.395" cy="129.848" r="16.121"/><circle class="cls-3" cx="97.605" cy="129.848" r="16.121"/><circle class="cls-3" cx="150" cy="178.212" r="16.121"/><circle class="cls-3" cx="202.395" cy="178.212" r="16.121"/><circle class="cls-3" cx="97.605" cy="178.212" r="16.121"/><circle class="cls-3" cx="150" cy="226.577" r="16.121"/><circle class="cls-3" cx="97.605" cy="226.577" r="16.121"/><path class="cls-3" d="M186.273,210.455h32.243v40.3H186.273Z"/><path id="SVGCleanerId_0" data-name="SVGCleanerId 0" class="cls-3" d="M190.3,77.454h8.061v8.06H190.3Z"/><path id="SVGCleanerId_1" data-name="SVGCleanerId 1" class="cls-3" d="M206.425,77.454h8.061v8.06h-8.061Z"/><path class="cls-4" d="M93.575,61.332h8.061V85.514H93.575Z"/><path class="cls-4" d="M85.514,69.393H109.7v8.061H85.514Z"/><path class="cls-2" d="M206.425,242.7H202.4a4.031,4.031,0,1,1,0-8.061h4.03a4.031,4.031,0,0,1,0,8.061Z"/><path class="cls-5" d="M105.666,33.12h88.668V49.241H105.666Z"/><path d="M53.272,49.241V250.759A20.175,20.175,0,0,0,73.423,270.91H226.577a20.175,20.175,0,0,0,20.151-20.151V49.241A20.175,20.175,0,0,0,226.577,29.09H73.423A20.175,20.175,0,0,0,53.272,49.241ZM109.7,37.15H190.3v8.061H109.7ZM222.546,53.272v40.3H77.454v-40.3Zm-120.91-8.061H73.423a4.031,4.031,0,0,0-4.03,4.03V97.605a4.031,4.031,0,0,0,4.03,4.031H226.577a4.031,4.031,0,0,0,4.03-4.031V49.241a4.031,4.031,0,0,0-4.03-4.03H198.364V37.15h28.213a12.092,12.092,0,0,1,12.091,12.091V250.759a12.092,12.092,0,0,1-12.091,12.091H73.423a12.092,12.092,0,0,1-12.091-12.091V49.241A12.092,12.092,0,0,1,73.423,37.15h28.213Z"/><path d="M150,150a20.152,20.152,0,1,0-20.152-20.152A20.152,20.152,0,0,0,150,150Zm0-32.243a12.091,12.091,0,1,1-12.091,12.091A12.091,12.091,0,0,1,150,117.757Z"/><path d="M202.4,150a20.152,20.152,0,1,0-20.152-20.152A20.151,20.151,0,0,0,202.4,150Zm0-32.243A12.091,12.091,0,1,1,190.3,129.848,12.091,12.091,0,0,1,202.4,117.757Z"/><path d="M97.605,150a20.152,20.152,0,1,0-20.151-20.152A20.152,20.152,0,0,0,97.605,150Zm0-32.243a12.091,12.091,0,1,1-12.091,12.091A12.091,12.091,0,0,1,97.605,117.757Z"/><path d="M150,198.364a20.152,20.152,0,1,0-20.152-20.152A20.152,20.152,0,0,0,150,198.364Zm0-32.243a12.091,12.091,0,1,1-12.091,12.091A12.091,12.091,0,0,1,150,166.121Z"/><path d="M202.4,198.364a20.152,20.152,0,1,0-20.152-20.152A20.151,20.151,0,0,0,202.4,198.364Zm0-32.243A12.091,12.091,0,1,1,190.3,178.212,12.092,12.092,0,0,1,202.4,166.121Z"/><path d="M97.605,198.364a20.152,20.152,0,1,0-20.151-20.152A20.152,20.152,0,0,0,97.605,198.364Zm0-32.243a12.091,12.091,0,1,1-12.091,12.091A12.092,12.092,0,0,1,97.605,166.121Z"/><path d="M150,246.728a20.152,20.152,0,1,0-20.152-20.151A20.152,20.152,0,0,0,150,246.728Zm0-32.242a12.091,12.091,0,1,1-12.091,12.091A12.091,12.091,0,0,1,150,214.486Z"/><path d="M97.605,246.728a20.152,20.152,0,1,0-20.151-20.151A20.151,20.151,0,0,0,97.605,246.728Zm0-32.242a12.091,12.091,0,1,1-12.091,12.091A12.091,12.091,0,0,1,97.605,214.486Z"/><path d="M186.273,254.789h32.243a4.03,4.03,0,0,0,4.03-4.03v-40.3a4.03,4.03,0,0,0-4.03-4.03H186.273a4.03,4.03,0,0,0-4.03,4.03v40.3A4.03,4.03,0,0,0,186.273,254.789Zm4.03-40.3h24.183v32.242H190.3Z"/><path id="SVGCleanerId_0-2" data-name="SVGCleanerId 0" d="M190.3,77.454h8.061v8.06H190.3Z"/><path id="SVGCleanerId_1-2" data-name="SVGCleanerId 1" d="M206.425,77.454h8.061v8.06h-8.061Z"/><path d="M93.575,85.514h8.061v-8.06H109.7V69.393h-8.061V61.332H93.575v8.061H85.514v8.061h8.061Z"/><path d="M206.425,234.637H202.4a4.031,4.031,0,1,0,0,8.061h4.03a4.031,4.031,0,0,0,0-8.061Z"/></svg>