<svg xmlns="http://www.w3.org/2000/svg" viewBox="0 0 512 512" width="512" height="512">
	<style>
		tspan { white-space:pre }
		.shp0 { fill: #ffe07d } 
		.shp1 { fill: #ffd064 } 
		.shp2 { fill: #9dc6fb } 
		.shp3 { fill: #80b4fb } 
		.shp4 { fill: #f9a58e } 
		.shp5 { fill: #ffcbbe } 
		.shp6 { fill: #eaac9d } 
		.shp7 { fill: #365e7d } 
		.shp8 { fill: #e7a561 } 
		.shp9 { fill: #e49542 } 
		.shp10 { fill: #000000 } 
		.shp11 { fill: #ff0000 } 
	</style>
	<g id="Layer">
		<path id="Layer" class="shp0" d="M85.38 71.64L85.38 232.03C85.38 241.68 93.2 249.49 102.84 249.49L388.79 249.49C398.43 249.49 406.25 241.68 406.25 232.03L406.25 71.64C406.25 36.22 377.53 7.5 342.11 7.5C331.21 7.5 320.64 11.25 312.17 18.12L308.66 20.97C307.59 21.84 306.08 21.89 304.95 21.11L297.61 16.01C289.65 10.47 280.18 7.5 270.48 7.5L149.52 7.5C114.1 7.5 85.38 36.22 85.38 71.64L85.38 71.64Z" />
		<g id="Layer">
			<path id="Layer" class="shp1" d="M342.11 7.5C336.69 7.5 331.36 8.43 326.32 10.2C352.75 18.13 372.02 42.63 372.02 71.64L372.02 232.03C372.02 241.68 364.2 249.49 354.56 249.49L388.79 249.49C398.43 249.49 406.25 241.68 406.25 232.03L406.25 71.64C406.25 36.22 377.53 7.5 342.11 7.5Z" />
		</g>
		<path id="Layer" class="shp2" d="M291.59 345.03L272.79 345.03L218.85 345.03L200.05 345.03C162.63 345.03 132.3 375.36 132.3 412.77L132.3 495.87C132.3 500.64 136.17 504.5 140.93 504.5L350.7 504.5C355.47 504.5 359.33 500.64 359.33 495.87L359.33 412.77C359.33 375.36 329 345.03 291.59 345.03L291.59 345.03Z" />
		<path id="Layer" class="shp3" d="M291.59 345.03L258.58 345.03C295.99 345.03 326.32 375.36 326.32 412.77L326.32 495.87C326.32 500.64 322.46 504.5 317.69 504.5L350.7 504.5C355.47 504.5 359.33 500.64 359.33 495.87L359.33 412.77C359.33 375.36 329 345.03 291.59 345.03L291.59 345.03Z" />
		<g id="Layer">
			<path id="Layer" class="shp4" d="M264.7 295.08L228.48 292.95C219.23 292.95 218.82 336.28 218.82 336.28L218.82 362.8C218.82 377.7 230.9 389.77 245.79 389.77C260.69 389.77 272.76 377.7 272.76 362.8L272.76 336.28C272.76 336.28 273.94 295.08 264.7 295.08L264.7 295.08Z" />
		</g>
		<path id="Layer" class="shp5" d="M245.81 345.03C173.94 345.03 115.67 286.76 115.67 214.89L115.67 136.17C115.67 134.28 117.21 132.75 119.1 132.75C179.33 132.64 232.57 124.01 280.05 93.33C281.47 92.41 283.37 92.7 284.38 94.05C305.83 122.52 335.08 130.4 372.55 132.57C374.46 132.68 375.96 134.25 375.96 136.16L375.96 214.89C375.96 286.76 317.69 345.03 245.82 345.03L245.81 345.03Z" />
		<path id="Layer" class="shp6" d="M372.55 132.57C361.52 131.93 351.21 130.79 341.6 128.79L341.6 214.89C341.6 280.94 292.39 335.49 228.63 343.9C234.26 344.64 239.99 345.03 245.81 345.03C317.69 345.03 375.96 286.76 375.96 214.89L375.96 136.16C375.96 134.25 374.46 132.68 372.55 132.57L372.55 132.57Z" />
		<g id="Layer">
			<path id="Layer" class="shp7" d="M296.04 304.97L249.38 304.97C241.96 304.97 235.95 298.96 235.95 291.54L235.95 286.72C235.95 279.31 241.96 273.29 249.38 273.29L296.04 273.29C303.46 273.29 309.47 279.31 309.47 286.72L309.47 291.54C309.47 298.96 303.46 304.97 296.04 304.97Z" />
		</g>
		<g id="Layer">
			<path id="Layer" class="shp8" d="M193.46 464.66L175.37 424.79C174.71 423.35 175.02 421.66 176.14 420.54L194.24 402.44C195.72 400.95 198.13 400.95 199.61 402.44L217.71 420.54C218.83 421.66 219.13 423.35 218.48 424.79L200.38 464.66C199.03 467.63 194.81 467.63 193.46 464.66L193.46 464.66Z" />
			<path id="Layer" class="shp9" d="M217.71 420.54L199.61 402.44C198.13 400.95 195.72 400.95 194.24 402.44L187.51 409.17L201.31 422.96C202.43 424.08 202.73 425.78 202.08 427.22L189.27 455.43L193.47 464.66C194.81 467.63 199.03 467.63 200.38 464.66L218.48 424.79C219.13 423.35 218.83 421.66 217.71 420.54L217.71 420.54Z" />
		</g>
		<g id="Layer">
			<path id="Layer" class="shp10" d="M201.31 202.16C197.17 202.16 193.81 205.52 193.81 209.66L193.81 224.95C193.81 229.1 197.17 232.45 201.31 232.45C205.45 232.45 208.81 229.1 208.81 224.95L208.81 209.66C208.81 205.52 205.45 202.16 201.31 202.16Z" />
			<path id="Layer" class="shp10" d="M283.06 209.66L283.06 224.95C283.06 229.1 286.41 232.45 290.56 232.45C294.7 232.45 298.06 229.1 298.06 224.95L298.06 209.66C298.06 205.52 294.7 202.16 290.56 202.16C286.41 202.16 283.06 205.52 283.06 209.66Z" />
			<path id="Layer" class="shp10" d="M218.55 178.88C221.24 175.72 220.86 170.99 217.7 168.3C208.51 160.47 194.11 160.47 184.92 168.3C181.76 170.99 181.38 175.72 184.07 178.88C185.55 180.62 187.66 181.51 189.78 181.51C191.5 181.51 193.23 180.92 194.64 179.72C198.2 176.7 204.43 176.7 207.98 179.72C211.13 182.41 215.86 182.03 218.55 178.88L218.55 178.88Z" />
			<path id="Layer" class="shp10" d="M303.07 181.51C305.19 181.51 307.3 180.62 308.78 178.88C311.47 175.72 311.09 170.99 307.94 168.3C298.74 160.47 284.34 160.47 275.15 168.3C272 170.99 271.62 175.72 274.3 178.88C276.99 182.03 281.72 182.41 284.88 179.72C288.43 176.7 294.66 176.7 298.21 179.72C299.62 180.92 301.35 181.51 303.07 181.51L303.07 181.51Z" />
			<path id="Layer" fill-rule="evenodd" class="shp10" d="M413.75 196.93C425.87 203.56 434.12 216.44 434.12 231.21L434.12 257.59C434.12 279.11 416.6 296.63 395.07 296.63L356.49 296.63C343.25 314.51 325.79 329.08 305.59 338.86C340.41 345.44 366.83 376.07 366.83 412.77L366.83 495.87C366.83 504.77 359.59 512 350.7 512L310.56 512C306.42 512 303.06 508.64 303.06 504.5C303.06 500.36 306.42 497 310.56 497L350.7 497C351.32 497 351.83 496.49 351.83 495.87L351.83 412.77C351.83 379.55 324.8 352.53 291.59 352.53L280.26 352.53L280.26 362.8C280.26 381.81 264.8 397.27 245.79 397.27C226.78 397.27 211.32 381.81 211.32 362.8L211.32 352.53L200.05 352.53C166.83 352.53 139.8 379.55 139.8 412.77L139.8 495.87C139.8 496.49 140.31 497 140.93 497L280.58 497C284.72 497 288.08 500.36 288.08 504.5C288.08 508.64 284.72 512 280.58 512L140.93 512C132.04 512 124.8 504.77 124.8 495.87L124.8 412.77C124.8 376.07 151.22 345.44 186.04 338.86C152.4 322.57 126.36 293 114.77 256.99L102.84 256.99C89.08 256.99 77.88 245.8 77.88 232.03L77.88 71.64C77.88 32.14 110.02 0 149.52 0L270.48 0C281.77 0 292.63 3.41 301.89 9.85L306.51 13.06L307.45 12.29C317.22 4.37 329.53 0 342.11 0C381.61 0 413.75 32.14 413.75 71.64L413.75 77.81C413.75 81.95 410.39 85.31 406.25 85.31C402.11 85.31 398.75 81.95 398.75 77.81L398.75 71.64C398.75 40.41 373.34 15 342.11 15C332.96 15 324.01 18.18 316.9 23.94L313.38 26.8C309.74 29.75 304.51 29.94 300.67 27.27L293.33 22.16C286.59 17.48 278.69 15 270.49 15L149.52 15C118.29 15 92.88 40.41 92.88 71.64L92.88 232.03C92.88 237.53 97.35 241.99 102.84 241.99L110.86 241.99C109.1 233.23 108.17 224.16 108.17 214.89L108.17 207.79C108.17 203.65 111.53 200.29 115.67 200.29C119.81 200.29 123.17 203.65 123.17 207.79L123.17 214.89C123.17 282.51 178.19 337.53 245.82 337.53C282.07 337.53 314.69 321.72 337.16 296.63L316.32 296.63C314.04 305.72 305.83 312.47 296.04 312.47L249.38 312.47C237.84 312.47 228.45 303.08 228.45 291.54L228.45 286.72C228.45 275.18 237.84 265.8 249.38 265.8L296.04 265.8C305.83 265.8 314.04 272.55 316.32 281.63L348.66 281.63C361.18 262.41 368.46 239.49 368.46 214.89L368.46 139.83C336.81 137.68 304.7 130.99 280.85 101.71C239.12 127.69 190.15 139.65 123.17 140.23L123.17 177.8C123.17 181.94 119.81 185.3 115.67 185.3C111.53 185.3 108.17 181.94 108.17 177.8L108.17 136.17C108.17 130.16 113.07 125.26 119.09 125.25C186.88 125.13 235.27 113.34 275.98 87.03C280.69 83.98 287.02 85.08 290.37 89.54C310.48 116.23 337.94 123.05 372.98 125.08C378.86 125.42 383.46 130.29 383.46 136.16L383.46 192.17L395.07 192.17C396.31 192.17 397.54 192.23 398.75 192.34L398.75 107.79C398.75 103.65 402.1 100.29 406.25 100.29C410.39 100.29 413.75 103.65 413.75 107.79L413.75 196.93ZM301.97 286.72C301.97 283.45 299.31 280.79 296.04 280.79L249.38 280.79C246.11 280.79 243.45 283.45 243.45 286.72L243.45 291.54C243.45 294.81 246.11 297.47 249.38 297.47L296.04 297.47C299.31 297.47 301.97 294.81 301.97 291.54L301.97 286.72ZM265.26 362.8L265.26 352.53L226.32 352.53L226.32 362.8C226.32 373.54 235.05 382.27 245.79 382.27C256.53 382.27 265.26 373.54 265.26 362.8L265.26 362.8ZM383.46 207.16L383.46 214.89C383.46 224.16 382.53 233.23 380.77 241.99L388.79 241.99C394.28 241.99 398.75 237.52 398.75 232.03L398.75 207.45C397.55 207.26 396.32 207.16 395.07 207.16L383.46 207.16ZM419.12 257.59L419.12 231.21C419.12 225.48 417.1 220.22 413.75 216.09L413.75 232.03C413.75 245.8 402.55 256.99 388.79 256.99L376.86 256.99C374.09 265.61 370.49 273.85 366.16 281.63L395.07 281.63C408.33 281.63 419.12 270.85 419.12 257.59L419.12 257.59Z" />
			<path id="Layer" fill-rule="evenodd" class="shp10" d="M204.91 397.13L223.01 415.23C226.32 418.54 227.25 423.63 225.31 427.89L207.21 467.76C205.36 471.85 201.41 474.39 196.92 474.39C192.43 474.39 188.49 471.85 186.63 467.76L168.54 427.89C166.6 423.63 167.52 418.54 170.83 415.23L188.94 397.13C193.34 392.73 200.51 392.73 204.91 397.13ZM210.59 424.03L196.92 410.36L183.25 424.03L196.92 454.14L210.59 424.03Z" />
		</g>
		<path id="Shape 1" class="shp11" d="M1.77 513.77L-1.77 510.23L510.23 -1.77L513.77 1.77L1.77 513.77Z" />
	</g>
</svg>