<svg id="Capa_1" enable-background="new 0 0 512 512" height="512" viewBox="0 0 512 512" width="512" xmlns="http://www.w3.org/2000/svg"><g><path d="m85.383 71.637v160.396c0 9.643 7.817 17.46 17.46 17.46h285.943c9.643 0 17.46-7.817 17.46-17.46v-160.396c0-35.422-28.715-64.137-64.137-64.137-10.901 0-21.47 3.749-29.934 10.617l-3.518 2.855c-1.068.866-2.58.922-3.709.137l-7.338-5.103c-7.962-5.538-17.428-8.506-27.126-8.506h-120.964c-35.421 0-64.137 28.715-64.137 64.137z" fill="#ffe07d"/><g><path d="m342.11 7.5c-5.418 0-10.754.928-15.79 2.703 26.433 7.922 45.701 32.423 45.701 61.434v160.396c0 9.643-7.817 17.46-17.46 17.46h34.227c9.643 0 17.46-7.817 17.46-17.46v-160.396c-.001-35.422-28.716-64.137-64.138-64.137z" fill="#ffd064"/></g><path d="m291.586 345.03h-18.801-53.939-18.801c-37.413 0-67.742 30.329-67.742 67.742v83.1c0 4.765 3.863 8.628 8.627 8.628h209.77c4.765 0 8.628-3.863 8.628-8.628v-83.1c-.001-37.413-30.33-67.742-67.742-67.742z" fill="#9dc6fb"/><path d="m291.586 345.03h-33.008c37.413 0 67.742 30.329 67.742 67.742v83.1c0 4.765-3.863 8.628-8.628 8.628h33.008c4.765 0 8.627-3.863 8.627-8.628v-83.1c0-37.413-30.329-67.742-67.741-67.742z" fill="#80b4fb"/><g><path d="m264.696 295.08-36.221-2.131c-9.248 0-9.654 43.328-9.654 43.328v26.524c0 14.895 12.075 26.97 26.97 26.97 14.895 0 26.97-12.075 26.97-26.97v-26.524c-.001 0 1.182-41.197-8.065-41.197z" fill="#f9a58e"/></g><path d="m245.815 345.03c-71.877 0-130.145-58.268-130.145-130.144v-78.716c0-1.89 1.537-3.415 3.427-3.419 60.234-.111 113.469-8.738 160.955-39.423 1.419-.917 3.315-.624 4.332.725 21.444 28.468 50.691 36.346 88.165 38.514 1.911.111 3.411 1.68 3.411 3.595v78.724c0 71.877-58.268 130.144-130.145 130.144z" fill="#ffcbbe"/><path d="m372.549 132.568c-11.027-.638-21.336-1.778-30.949-3.783v86.102c0 66.052-49.209 120.606-112.965 129.014 5.622.741 11.355 1.13 17.18 1.13 71.877 0 130.144-58.268 130.144-130.144v-78.724c.001-1.915-1.499-3.485-3.41-3.595z" fill="#eaac9d"/><g><path d="m296.044 304.968h-46.667c-7.416 0-13.427-6.011-13.427-13.427v-4.82c0-7.416 6.011-13.427 13.427-13.427h46.667c7.416 0 13.427 6.011 13.427 13.427v4.82c0 7.416-6.012 13.427-13.427 13.427z" fill="#365e7d"/></g><g><path d="m193.464 464.661-18.099-39.868c-.654-1.441-.346-3.137.773-4.256l18.099-18.099c1.484-1.484 3.889-1.484 5.372 0l18.099 18.099c1.119 1.119 1.427 2.815.773 4.256l-18.099 39.868c-1.349 2.971-5.569 2.971-6.918 0z" fill="#e7a561"/><path d="m217.708 420.536-18.099-18.099c-1.483-1.483-3.889-1.483-5.372 0l-6.728 6.728 13.797 13.797c1.119 1.119 1.427 2.815.773 4.256l-12.806 28.209 4.192 9.233c1.349 2.971 5.569 2.971 6.918 0l18.099-39.868c.653-1.44.345-3.136-.774-4.256z" fill="#e49542"/></g><g><path d="m201.309 202.165c-4.143 0-7.5 3.357-7.5 7.5v15.289c0 4.143 3.357 7.5 7.5 7.5s7.5-3.357 7.5-7.5v-15.289c0-4.143-3.358-7.5-7.5-7.5z"/><path d="m283.057 209.665v15.289c0 4.143 3.357 7.5 7.5 7.5s7.5-3.357 7.5-7.5v-15.289c0-4.143-3.357-7.5-7.5-7.5s-7.5 3.357-7.5 7.5z"/><path d="m218.55 178.875c2.686-3.153 2.307-7.888-.847-10.573-9.193-7.83-23.597-7.829-32.788.001-3.153 2.686-3.532 7.419-.846 10.572 1.483 1.741 3.591 2.637 5.713 2.637 1.72 0 3.448-.588 4.859-1.791 3.554-3.025 9.785-3.024 13.335.001 3.155 2.685 7.888 2.305 10.574-.847z"/><path d="m303.07 181.512c2.121 0 4.229-.896 5.713-2.637 2.687-3.153 2.308-7.887-.846-10.572-9.193-7.832-23.594-7.832-32.787 0-3.153 2.686-3.532 7.419-.846 10.572 2.686 3.152 7.42 3.533 10.572.846 3.553-3.025 9.781-3.025 13.334 0 1.413 1.203 3.141 1.791 4.86 1.791z"/><path d="m413.747 196.931v-89.139c0-4.143-3.357-7.5-7.5-7.5s-7.5 3.357-7.5 7.5v84.551c-1.211-.114-2.436-.178-3.676-.178h-11.611v-56.003c0-5.872-4.602-10.74-10.478-11.082-35.044-2.027-62.502-8.847-82.608-35.539-3.355-4.457-9.68-5.562-14.392-2.512-40.714 26.309-89.104 38.098-156.896 38.223-6.019.01-10.915 4.907-10.915 10.918v41.631c0 4.143 3.357 7.5 7.5 7.5s7.5-3.357 7.5-7.5v-37.57c66.977-.582 115.946-12.538 157.68-38.526 23.844 29.284 55.956 35.971 87.609 38.121v75.061c0 24.598-7.285 47.524-19.802 66.745h-32.339c-2.282-9.083-10.494-15.837-20.275-15.837h-46.668c-11.539 0-20.927 9.388-20.927 20.927v4.82c0 11.54 9.388 20.928 20.927 20.928h46.668c9.781 0 17.992-6.754 20.275-15.838h20.842c-22.473 25.085-55.095 40.899-91.345 40.899-67.626 0-122.645-55.019-122.645-122.645v-7.098c0-4.143-3.357-7.5-7.5-7.5s-7.5 3.357-7.5 7.5v7.098c0 9.277.928 18.34 2.687 27.107h-8.014c-5.492 0-9.96-4.468-9.96-9.96v-160.396c0-31.23 25.407-56.637 56.637-56.637h120.964c8.207 0 16.106 2.477 22.844 7.163l7.338 5.104c3.846 2.676 9.074 2.483 12.717-.472l3.518-2.854c7.105-5.766 16.058-8.94 25.209-8.94 31.23 0 56.638 25.407 56.638 56.637v6.168c0 4.143 3.357 7.5 7.5 7.5s7.5-3.357 7.5-7.5v-6.168c-.002-39.502-32.139-71.638-71.64-71.638-12.582 0-24.892 4.366-34.66 12.293l-.942.765-4.614-3.209c-9.263-6.444-20.124-9.849-31.409-9.849h-120.963c-39.501 0-71.637 32.136-71.637 71.637v160.396c0 13.763 11.197 24.96 24.96 24.96h11.923c11.595 36.002 37.635 65.581 71.27 81.865-34.815 6.585-61.234 37.214-61.234 73.914v83.1c0 8.893 7.235 16.128 16.128 16.128h139.645c4.143 0 7.5-3.357 7.5-7.5s-3.357-7.5-7.5-7.5h-139.645c-.622 0-1.128-.506-1.128-1.128v-83.1c0-33.218 27.024-60.242 60.242-60.242h11.276v10.271c0 19.007 15.463 34.47 34.47 34.47 19.006 0 34.469-15.463 34.469-34.47v-10.271h11.326c33.217 0 60.241 27.024 60.241 60.242v83.1c0 .622-.506 1.128-1.127 1.128h-40.138c-4.143 0-7.5 3.357-7.5 7.5s3.357 7.5 7.5 7.5h40.138c8.893 0 16.127-7.235 16.127-16.128v-83.1c0-36.7-26.419-67.329-61.233-73.914 20.196-9.778 37.653-24.351 50.892-42.228h38.585c21.529 0 39.045-17.516 39.045-39.045v-26.375c0-14.769-8.243-27.647-20.369-34.279zm-111.776 94.61c0 3.269-2.659 5.928-5.927 5.928h-46.668c-3.268 0-5.927-2.659-5.927-5.928v-4.82c0-3.268 2.659-5.927 5.927-5.927h46.668c3.268 0 5.927 2.659 5.927 5.927zm-36.711 71.26c0 10.735-8.734 19.47-19.47 19.47s-19.469-8.734-19.469-19.47v-10.271h38.938v10.271zm129.811-155.636c1.25 0 2.477.096 3.676.281v24.587c0 5.492-4.469 9.96-9.961 9.96h-8.013c1.758-8.767 2.687-17.831 2.687-27.107v-7.721zm24.045 50.421c0 13.259-10.786 24.045-24.045 24.045h-28.915c4.334-7.783 7.934-16.026 10.707-24.638h11.922c13.764 0 24.961-11.197 24.961-24.96v-15.946c3.354 4.134 5.369 9.396 5.369 15.123v26.376z"/><path d="m188.935 397.134-18.101 18.099c-3.31 3.311-4.233 8.397-2.298 12.661l18.099 39.868c1.855 4.088 5.798 6.628 10.288 6.628s8.433-2.54 10.288-6.628l18.1-39.869c1.935-4.262 1.011-9.35-2.299-12.66l-18.099-18.099c-4.405-4.403-11.573-4.406-15.978 0zm7.988 57.003-13.669-30.11 13.669-13.668 13.67 13.669z"/></g></g></svg>