<?xml version="1.0" encoding="UTF-8" standalone="no"?>
<svg
   xmlns:dc="http://purl.org/dc/elements/1.1/"
   xmlns:cc="http://creativecommons.org/ns#"
   xmlns:rdf="http://www.w3.org/1999/02/22-rdf-syntax-ns#"
   xmlns:svg="http://www.w3.org/2000/svg"
   xmlns="http://www.w3.org/2000/svg"
   xmlns:sodipodi="http://sodipodi.sourceforge.net/DTD/sodipodi-0.dtd"
   xmlns:inkscape="http://www.inkscape.org/namespaces/inkscape"
   height="512pt"
   viewBox="0 -3 512 511"
   width="512pt"
   version="1.1"
   id="svg56"
   sodipodi:docname="campana.svg"
   inkscape:version="1.0.1 (3bc2e813f5, 2020-09-07)">
  <metadata
     id="metadata62">
    <rdf:RDF>
      <cc:Work
         rdf:about="">
        <dc:format>image/svg+xml</dc:format>
        <dc:type
           rdf:resource="http://purl.org/dc/dcmitype/StillImage" />
      </cc:Work>
    </rdf:RDF>
  </metadata>
  <defs
     id="defs60" />
  <sodipodi:namedview
     pagecolor="#ffffff"
     bordercolor="#666666"
     borderopacity="1"
     objecttolerance="10"
     gridtolerance="10"
     guidetolerance="10"
     inkscape:pageopacity="0"
     inkscape:pageshadow="2"
     inkscape:window-width="1920"
     inkscape:window-height="1015"
     id="namedview58"
     showgrid="false"
     inkscape:zoom="0.88560981"
     inkscape:cx="391.19811"
     inkscape:cy="213.41748"
     inkscape:window-x="1920"
     inkscape:window-y="0"
     inkscape:window-maximized="1"
     inkscape:current-layer="svg56" />
  <path
     d="m94.777344 467.0625v-9.539062c0-5.5 4.5-10 10-10-5.5 0-10-4.5-10-10v-9.539063c0-5.5 4.5-10 10-10-5.5 0-10-4.5-10-10v-9.539063c0-5.5 4.5-10 10-10h6.582031l-47.460937-18.324218v14.027344h10.457031c5.5 0 10 4.5 10 10v33.199218c0 5.5-4.5 10-10 10 0 0-10.082031-.027344-10.457031-.070312v54.769531c0 2.75 2.25 5 5 5h30.195312c2.75 0 5.363281-2.222656 5.804688-4.933594l2.449218-15.054687h-2.570312c-5.5.003906-10-4.496094-10-9.996094zm0 0"
     fill="#9ea7af"
     id="path2" />
  <g
     fill="#ffb98a"
     id="g12">
    <path
       d="m63.898438 437.277344c.375.042968 10.457031.070312 10.457031.070312 5.5 0 10-4.5 10-10v-33.195312c0-5.5-4.5-10-10-10h-30.273438c-5.5 0-10 4.152344-10 9.226562 0 5.074219-4.5 9.226563-10 9.226563h-3.988281c-5.5 0-10 4.5-10 10v40.296875c0 5.5 4.5 10 10 10h3.988281c5.5 0 10 4.152344 10 9.230468 0 5.074219 4.5 9.226563 10 9.226563h19.816407zm0 0"
       id="path4" />
    <path
       d="m111.359375 388.445312h-6.582031c-5.5 0-10 4.5-10 10v9.539063c0 5.5 4.5 10 10 10h24.296875c5.5 0 10-4.5 10-10v-8.835937zm0 0"
       id="path6" />
    <path
       d="m139.074219 437.523438c0 5.5-4.5 10-10 10h-24.296875c-5.5 0-10-4.5-10-10v-9.539063c0-5.5 4.5-10 10-10h24.296875c5.5 0 10 4.5 10 10zm0 0"
       id="path8" />
    <path
       d="m139.074219 467.0625c0 5.5-4.5 10-10 10h-24.296875c-5.5 0-10-4.5-10-10v-9.539062c0-5.5 4.5-10 10-10h24.296875c5.5 0 10 4.5 10 10zm0 0"
       id="path10" />
  </g>
  <path
     d="m313.152344 282.976562v82.671876c19.820312-3.234376 34.957031-20.503907 34.957031-41.335938s-15.136719-38.101562-34.957031-41.335938zm0 0"
     fill="#9ea7af"
     id="path14" />
  <path
     d="m43.390625 298.753906h-25.890625c-5.5 0-10 4.5-10 10v31.117188c0 5.5 4.5 10 10 10h25.890625zm0 0"
     fill="#9ea7af"
     id="path16" />
  <path
     d="m308.761719 177.324219-162.925781 88.898437v116.179688l162.925781 88.898437c2.414062 1.316407 4.390625.144531 4.390625-2.605469v-288.765624c0-2.75-1.976563-3.921876-4.390625-2.605469zm0 0"
     fill="#fb8276"
     id="path18" />
  <path
     d="m308.761719 177.324219-38.0625 20.769531v252.4375l38.0625 20.769531c2.414062 1.316407 4.390625.144531 4.390625-2.605469v-288.765624c0-2.75-1.976563-3.921876-4.390625-2.605469zm0 0"
     fill="#ef5050"
     id="path20" />
  <path
     d="m145.835938 251.863281c0-2.75-2.097657-4.1875-4.664063-3.199219l-93.117187 35.957032c-2.566407.988281-4.664063 4.050781-4.664063 6.800781v65.777344c0 2.75 2.097656 5.8125 4.664063 6.804687l93.117187 35.953125c2.5625.992188 4.664063-.449219 4.664063-3.199219zm0 0"
     fill="#c0272d"
     id="path22" />
  <path
     d="m320.652344 277.058594v-124.984375c0-4.140625-3.359375-7.5-7.5-7.5-4.144532 0-7.5 3.359375-7.5 7.5v18.4375c-.160156.082031-.324219.140625-.484375.230469l-151.832031 82.84375v-1.722657c0-3.820312-1.6875-7.167969-4.628907-9.1875-2.941406-2.015625-6.671875-2.382812-10.238281-1.007812l-93.113281 35.957031c-5.433594 2.097656-9.382813 7.808594-9.457031 13.628906h-18.398438c-9.648438 0-17.5 7.851563-17.5 17.5v31.117188c0 9.648437 7.851562 17.5 17.5 17.5h18.398438c.074218 5.816406 4.023437 11.53125 9.453124 13.628906l14.636719 5.648438h-15.90625c-9.652343 0-17.5 7.503906-17.5 16.730468 0 .796875-1.09375 1.726563-2.5 1.726563h-3.988281c-9.648438 0-17.5 7.847656-17.5 17.5v40.296875c0 9.648437 7.851562 17.5 17.5 17.5h3.988281c1.40625 0 2.5.929687 2.5 1.726562 0 9.222656 7.847657 16.726563 17.5 16.726563h12.316407v3.191406c0 6.894531 5.609374 12.5 12.5 12.5h30.195312c6.382812 0 12.183594-4.933594 13.207031-11.230469l1.425781-8.753906h15.347657c9.648437 0 17.5-7.851562 17.5-17.5v-9.539062c0-3.71875-1.171875-7.164063-3.160157-10 1.988282-2.839844 3.160157-6.28125 3.160157-10v-9.539063c0-3.71875-1.171875-7.160156-3.160157-10 1.988282-2.835937 3.160157-6.28125 3.160157-10v-.914063c.746093-.289062 1.460937-.664062 2.132812-1.125 2.941407-2.015624 4.628907-5.363281 4.628907-9.1875v-1.71875l151.832031 82.84375c.160156.085938.320312.148438.480469.226563v18.441406c0 4.140625 3.359374 7.5 7.5 7.5 4.144531 0 7.5-3.359375 7.5-7.5v-124.984375c20.207031-6.140625 34.960937-24.988281 34.960937-47.253906s-14.753906-41.113281-34.957031-47.253906zm-284.761719 65.3125h-18.390625c-1.355469 0-2.5-1.144532-2.5-2.5v-31.117188c0-1.355468 1.144531-2.5 2.5-2.5h18.390625zm29.148437 87.476562c-1.351562 0-2.5-1.144531-2.5-2.5v-17.566406c0-4.140625-3.355468-7.5-7.5-7.5-4.140624 0-7.5 3.359375-7.5 7.5v17.566406c0 6.507813 3.578126 12.183594 8.859376 15.199219v31.308594h-12.316407c-1.410156 0-2.5-.925781-2.5-1.726563 0-9.222656-7.851562-16.726562-17.5-16.726562h-3.988281c-1.355469 0-2.5-1.144532-2.5-2.5v-40.296875c0-1.355469 1.144531-2.5 2.5-2.5h3.988281c9.648438 0 17.5-7.503907 17.5-16.726563 0-.800781 1.089844-1.730468 2.5-1.730468h30.273438c1.355469 0 2.5 1.148437 2.5 2.5v33.199218c0 1.355469-1.144531 2.5-2.5 2.5zm32.679688 59.699219h-26.320312v-44.699219h2.957031c5.160156 0 9.792969-2.257812 13-5.824218.265625 3.144531 1.367187 6.046874 3.082031 8.5-1.984375 2.835937-3.160156 6.28125-3.160156 10v9.539062c0 7.511719 4.769531 13.914062 11.433594 16.390625zm33.855469-22.484375c0 1.351562-1.144531 2.5-2.5 2.5h-24.296875c-1.351563 0-2.5-1.148438-2.5-2.5v-9.539062c0-1.355469 1.148437-2.5 2.5-2.5h24.296875c1.355469 0 2.5 1.144531 2.5 2.5zm0-29.539062c0 1.355468-1.144531 2.5-2.5 2.5h-24.296875c-1.351563 0-2.5-1.144532-2.5-2.5v-9.539063c0-1.355469 1.148437-2.5 2.5-2.5h24.296875c1.355469 0 2.5 1.144531 2.5 2.5zm0-29.539063c0 1.355469-1.144531 2.5-2.5 2.5h-24.296875c-1.351563 0-2.5-1.144531-2.5-2.5v-9.539063c0-1.351562 1.148437-2.5 2.5-2.5h5.1875l21.613281 8.347657v3.691406zm174.078125 53.074219-27.453125-14.980469v-141.554687c0-4.140626-3.355469-7.5-7.5-7.5-4.140625 0-7.5 3.359374-7.5 7.5v133.371093l-109.863281-59.941406v-9.429687c0-4.140626-3.359376-7.5-7.5-7.5-4.140626 0-7.5 3.359374-7.5 7.5v22.300781l-87.328126-33.71875c-.039062-.050781-.085937-.117188-.117187-.175781v-65.238282c.03125-.054687.078125-.121094.117187-.171875l87.328126-33.71875v75.722657c0 4.140624 3.359374 7.5 7.5 7.5 4.144531 0 7.5-3.359376 7.5-7.5v-62.851563l109.863281-59.941406v57.792969c0 4.140624 3.359375 7.5 7.5 7.5 4.144531 0 7.5-3.359376 7.5-7.5v-65.976563l27.453125-14.980469zm15-105.492188v-62.507812c11.765625 5.4375 19.957031 17.398437 19.957031 31.253906s-8.191406 25.816406-19.957031 31.253906zm0 0"
     id="path28" />
  <path
     d="m408.261719 247.0625c-2.9375 2.921875-2.949219 7.671875-.027344 10.605469 36.574219 36.75 36.574219 96.542969 0 133.285156-2.921875 2.9375-2.910156 7.6875.027344 10.609375 1.464843 1.457031 3.378906 2.183594 5.289062 2.183594 1.925781 0 3.851563-.738282 5.316407-2.210938 42.378906-42.578125 42.378906-111.863281 0-154.445312-2.921876-2.9375-7.671876-2.949219-10.605469-.027344zm0 0"
     id="path30" />
  <path
     d="m371.578125 270.648438c-2.9375 2.917968-2.949219 7.667968-.027344 10.605468 23.628907 23.746094 23.625 62.375-.003906 86.117188-2.921875 2.933594-2.910156 7.683594.027344 10.605468 1.460937 1.457032 3.375 2.183594 5.289062 2.183594 1.925781 0 3.851563-.734375 5.316407-2.207031 29.433593-29.574219 29.4375-77.699219.003906-107.277344-2.921875-2.941406-7.671875-2.949219-10.605469-.027343zm0 0"
     id="path32" />
  <path
     d="m109.761719 292.363281h-24.265625c-4.140625 0-7.5 3.359375-7.5 7.5 0 4.144531 3.359375 7.5 7.5 7.5h24.265625c4.140625 0 7.5-3.355469 7.5-7.5 0-4.140625-3.359375-7.5-7.5-7.5zm0 0"
     id="path34" />
  <path
     d="m109.761719 316.8125h-24.265625c-4.140625 0-7.5 3.359375-7.5 7.5s3.359375 7.5 7.5 7.5h24.265625c4.140625 0 7.5-3.359375 7.5-7.5s-3.359375-7.5-7.5-7.5zm0 0"
     id="path36" />
  <path
     d="m109.761719 341.257812h-24.265625c-4.140625 0-7.5 3.359376-7.5 7.5 0 4.144532 3.359375 7.5 7.5 7.5h24.265625c4.140625 0 7.5-3.355468 7.5-7.5 0-4.140624-3.359375-7.5-7.5-7.5zm0 0"
     id="path38" />
  <g
     id="g933"
     transform="matrix(0.31353392,0,0,0.31353392,129.02421,2.9035268)">
    <g
       id="g889">
      <path
         d="m 473,135.766 v 272 c 0,22.079 -17.919,40 -40,40 H 49 c -22.079,0 -40,-17.919 -40,-40 v -272 c 0,-22.09 17.91,-40 40,-40 h 384 c 22.09,0 40,17.91 40,40 z"
         fill="#ffec8f"
         id="path887" />
    </g>
    <path
       d="m 287.45,262.216 173.83,173.83 c -7.24,7.24 -17.24,11.72 -28.28,11.72 H 49 c -11.04,0 -21.04,-4.48 -28.28,-11.72 l 173.83,-173.83 25.48,12.37 c 13.24,6.43 28.7,6.43 41.94,0 z"
       fill="#ffe773"
       id="path891" />
    <g
       id="g897">
      <g
         id="g895">
        <path
           d="m 473,135.766 v 24.674 c 0,11.757 -10.715,20.491 -22.259,18.321 -108.751,-20.444 -218.452,-4.32 -315.477,46.277 -5.23,2.727 -11.439,2.827 -16.745,0.25 L 9,172.096 v -36.33 c 0,-22.091 17.909,-40 40,-40 h 384 c 22.091,0 40,17.908 40,40 z"
           fill="#fff0a6"
           id="path893" />
      </g>
    </g>
    <path
       d="m 473,172.096 v 33.5 l -163,79.17 -22.55,-22.55 z"
       fill="#ffe773"
       id="path899" />
    <path
       d="m 310,284.766 c -27.53,13.368 -16.217,7.876 -48.03,23.32 -13.24,6.43 -28.7,6.43 -41.94,0 -31.807,-15.442 -20.486,-9.945 -48.03,-23.32 l 22.55,-22.55 25.48,12.37 c 13.24,6.43 28.7,6.43 41.94,0 l 25.48,-12.37 z"
       fill="#fada86"
       id="path901" />
    <path
       d="M 194.55,262.216 172,284.766 9,205.596 v -33.5 z"
       fill="#ffe773"
       id="path903" />
    <g
       id="g907">
      <path
         d="m 467.86,49.604 -40.11,119.24 c -2.24,6.67 -11.38,7.4 -14.66,1.18 -27.498,-52.214 -25.319,-49.184 -28.34,-50.79 -7.965,-4.203 0.177,0.088 -47.43,-24.99 -6.22,-3.28 -5.49,-12.42 1.18,-14.66 l 119.23,-40.11 c 6.27,-2.11 12.24,3.86 10.13,10.13 z"
         fill="#d6f4fc"
         id="path905" />
    </g>
    <path
       d="m 467.86,49.604 c -1.077,3.194 -3.595,5.704 -6.79,6.779 -134.922,45.391 -108.875,36.588 -114.399,38.583 -2.912,1.052 -6.176,0.962 -8.911,-0.49 -7.144,-3.796 -5.604,-12.761 0.74,-14.892 l 119.23,-40.11 c 6.27,-2.11 12.24,3.86 10.13,10.13 z"
       fill="#e8f8fc"
       id="path909" />
    <path
       d="m 481.8,175.834 v 227.874 c 0,29.214 -23.767,52.981 -52.98,52.981 H 52.981 C 23.767,456.69 0,432.922 0,403.708 V 139.823 C 0,110.609 23.767,86.842 52.981,86.842 H 267 c 4.971,0 9,4.029 9,9 0,4.971 -4.029,9 -9,9 H 52.981 C 33.692,104.841 18,120.534 18,139.823 v 26.685 l 205.729,99.909 c 10.896,5.292 23.381,5.261 34.25,-0.087 l 117.049,-57.571 c 4.462,-2.193 9.854,-0.356 12.049,4.104 2.193,4.461 0.356,9.854 -4.104,12.049 l -117.049,57.571 c -15.874,7.808 -34.119,7.866 -50.058,0.126 L 18,186.518 v 217.19 c 0,19.289 15.692,34.981 34.981,34.981 h 375.838 c 19.288,0 34.98,-15.692 34.98,-34.981 V 175.834 c 0,-4.971 4.029,-9 9,-9 4.971,0 9.001,4.03 9.001,9 z M 140.577,303.385 52.865,391.097 c -5.689,5.688 -1.581,15.364 6.364,15.364 2.303,0 4.606,-0.879 6.364,-2.636 l 87.712,-87.712 c 3.515,-3.515 3.515,-9.214 0,-12.729 -3.515,-3.513 -9.214,-3.513 -12.728,10e-4 z m 200.647,0 c -3.516,-3.514 -9.213,-3.514 -12.729,0 -3.515,3.515 -3.515,9.214 0,12.729 l 87.712,87.712 c 3.517,3.515 9.213,3.514 12.729,0 3.515,-3.515 3.515,-9.214 0,-12.729 z M 317.927,77.005 470.131,25.808 c 7.035,-2.367 13.768,4.358 11.399,11.399 l -51.197,152.205 c -2.517,7.486 -12.809,8.314 -16.492,1.327 L 380.28,127.057 316.6,93.497 c -6.974,-3.674 -6.17,-13.971 1.327,-16.492 z m 25.65,10.364 41.692,21.972 30.164,-30.164 c 3.516,-3.514 9.213,-3.514 12.729,0 3.515,3.515 3.515,9.214 0,12.729 l -30.164,30.164 21.972,41.693 38.722,-115.115 z"
       id="path911" />
  </g>
  <g
     id="g976"
     transform="matrix(0.39573089,0,0,0.39573089,362.60958,31.68946)">
    <path
       d="M 8.535156,76.800781 H 298.66797 V 435.19922 H 8.535156 Z m 0,0"
       fill="#ffeb99"
       id="path935" />
    <path
       d="M 264.53516,8.535156 H 42.667969 c -18.851563,0 -34.132813,15.28125 -34.132813,34.132813 V 76.800781 H 298.66797 V 42.667969 c 0,-18.851563 -15.28125,-34.132813 -34.13281,-34.132813 z m 0,0"
       fill="#acabb1"
       id="path937" />
    <path
       d="m 8.535156,469.33203 c 0,18.85156 15.28125,34.13281 34.132813,34.13281 H 264.53125 c 18.85156,0 34.13672,-15.28125 34.13672,-34.13281 V 435.19922 H 8.535156 Z m 0,0"
       fill="#acabb1"
       id="path939" />
    <g
       fill="#3e3d42"
       id="g955">
      <path
         d="M 264.53516,0 H 42.667969 C 19.113281,0.0273438 0.0273438,19.113281 0,42.667969 V 469.33203 C 0.0273438,492.88672 19.113281,511.97266 42.667969,512 H 264.53125 c 23.55469,-0.0273 42.64062,-19.11328 42.66797,-42.66797 V 42.667969 C 307.17187,19.113281 288.08594,0.0273438 264.53516,0 Z M 42.667969,17.066406 H 264.53125 c 14.14062,0 25.60156,11.460938 25.60156,25.601563 V 68.265625 H 17.066406 V 42.667969 c 0,-14.140625 11.460938,-25.601563 25.601563,-25.601563 z M 290.13281,85.332031 V 426.66797 H 17.066406 V 85.332031 Z M 264.53516,494.93359 H 42.667969 c -14.140625,0 -25.601563,-11.46093 -25.601563,-25.60156 V 443.73437 H 290.13281 v 25.59766 c 0,14.14063 -11.46094,25.60156 -25.59765,25.60156 z m 0,0"
         id="path941" />
      <path
         d="m 162.13281,460.80078 h -17.0664 c -4.71094,0 -8.53125,3.82031 -8.53125,8.53125 0,4.71484 3.82031,8.53516 8.53125,8.53516 h 17.0664 c 4.71485,0 8.53516,-3.82032 8.53516,-8.53516 0,-4.71094 -3.82031,-8.53125 -8.53516,-8.53125 z m 0,0"
         id="path943" />
      <path
         d="m 51.199219,51.199219 h 17.066406 c 4.714844,0 8.535156,-3.820313 8.535156,-8.53125 0,-4.714844 -3.820312,-8.535157 -8.535156,-8.535157 H 51.199219 c -4.710938,0 -8.53125,3.820313 -8.53125,8.535157 0,4.710937 3.820312,8.53125 8.53125,8.53125 z m 0,0"
         id="path945" />
      <path
         d="m 102.39844,51.199219 h 51.20312 c 4.71094,0 8.53125,-3.820313 8.53125,-8.53125 0,-4.714844 -3.82031,-8.535157 -8.53125,-8.535157 h -51.20312 c -4.71094,0 -8.531252,3.820313 -8.531252,8.535157 0,4.710937 3.820312,8.53125 8.531252,8.53125 z m 0,0"
         id="path947" />
      <path
         d="m 59.734375,264.53125 h 17.066406 c 4.710938,0 8.53125,3.82031 8.53125,8.53516 v 17.0664 c 0,4.71094 -3.820312,8.53516 -8.53125,8.53516 H 59.734375 c -4.714844,0 -8.535156,-3.82031 -8.535156,-8.53516 0,-4.71093 -3.820313,-8.53515 -8.53125,-8.53515 -4.714844,0 -8.535157,3.82031 -8.535157,8.53515 0,14.14063 11.460938,25.60157 25.601563,25.60157 h 17.066406 c 14.136719,0 25.597659,-11.46094 25.597659,-25.60157 v -17.0664 c 0,-14.13672 -11.46094,-25.59766 -25.597659,-25.59766 H 59.734375 c -4.714844,0 -8.535156,-3.82031 -8.535156,-8.53516 v -17.0664 c 0,-4.71094 3.820312,-8.53516 8.535156,-8.53516 h 17.066406 c 4.710938,0 8.53125,3.82031 8.53125,8.53516 0,4.71484 3.820313,8.53515 8.535157,8.53515 4.710937,0 8.531252,-3.82031 8.531252,-8.53515 0,-14.14063 -11.46094,-25.60156 -25.597659,-25.60156 H 59.734375 c -14.140625,0 -25.601563,11.46093 -25.601563,25.60156 v 17.0664 c 0,14.13672 11.460938,25.59766 25.601563,25.59766 z m 0,0"
         id="path949" />
      <path
         d="m 247.46875,298.66797 h -17.06641 c -4.71484,0 -8.53515,-3.82031 -8.53515,-8.53516 0,-4.71094 -3.82032,-8.53515 -8.53516,-8.53515 -4.71094,0 -8.53125,3.82031 -8.53125,8.53515 0,14.14063 11.46094,25.60157 25.59766,25.60157 h 17.0664 c 14.14063,0 25.60157,-11.46094 25.60157,-25.60157 v -17.0664 c 0,-14.13672 -11.46094,-25.59766 -25.60157,-25.59766 h -17.0625 c -4.71484,0 -8.53515,-3.82031 -8.53515,-8.53516 v -17.0664 c 0,-4.71094 3.82031,-8.53516 8.53515,-8.53516 h 17.06641 c 4.71094,0 8.53125,3.82031 8.53125,8.53516 0,4.71484 3.82031,8.53515 8.53516,8.53515 4.71093,0 8.53125,-3.82031 8.53125,-8.53515 0,-14.14063 -11.46094,-25.60156 -25.59766,-25.60156 h -17.06641 c -14.14062,0 -25.60156,11.46093 -25.60156,25.60156 v 17.0664 c 0,14.13672 11.46094,25.59766 25.60156,25.59766 h 17.06641 c 4.71094,0 8.53125,3.82031 8.53125,8.53516 v 17.0664 c 0,4.71094 -3.82031,8.53516 -8.53125,8.53516 z m 0,0"
         id="path951" />
      <path
         d="m 119.46484,315.73437 c 4.71485,0 8.53516,-3.82031 8.53516,-8.53515 v -85.33203 l 20.48047,15.35937 c 3.03515,2.27735 7.20703,2.27735 10.23828,0 l 20.48047,-15.35937 v 85.33203 c 0,4.71094 3.82031,8.53515 8.53515,8.53515 4.71094,0 8.53125,-3.82031 8.53125,-8.53515 V 204.80078 c 0,-4.71484 -3.82031,-8.53516 -8.53125,-8.53516 -1.84765,0 -3.64453,0.60157 -5.12109,1.70704 l -29.01172,21.76171 -29.01562,-21.76171 c -3.76953,-2.82813 -9.11719,-2.0625 -11.94531,1.70703 -1.10938,1.47656 -1.70704,3.27343 -1.70704,5.12109 v 102.39844 c 0,4.71484 3.82032,8.53515 8.53125,8.53515 z m 0,0"
         id="path953" />
    </g>
  </g>
</svg>
