<?xml version="1.0" encoding="UTF-8"?>
<!DOCTYPE svg PUBLIC "-//W3C//DTD SVG 1.1//EN" "http://www.w3.org/Graphics/SVG/1.1/DTD/svg11.dtd">
<!-- Creator: CorelDRAW 2020 (64-Bit) -->
<svg xmlns="http://www.w3.org/2000/svg" xml:space="preserve" width="84.6401mm" height="72.5193mm" version="1.1" style="shape-rendering:geometricPrecision; text-rendering:geometricPrecision; image-rendering:optimizeQuality; fill-rule:evenodd; clip-rule:evenodd"
viewBox="0 0 29.28 25.09"
 xmlns:xlink="http://www.w3.org/1999/xlink"
 xmlns:xodm="http://www.corel.com/coreldraw/odm/2003">
 <defs>
  <style type="text/css">
   <![CDATA[
    .fil0 {fill:black}
    .fil2 {fill:#80CB95}
    .fil3 {fill:#8CDFA7}
    .fil4 {fill:#EAC36E}
    .fil1 {fill:#FBD377}
   ]]>
  </style>
 </defs>
 <g id="Capa_x0020_1">
  <metadata id="CorelCorpID_0Corel-Layer"/>
  <g id="_1703559083632">
   <path class="fil0" d="M11.75 16.57l5.78 0.02 -0.01 7.35 -5.78 -0.02 0.01 -7.35zm17.53 -16.01l0 1.52 0 0.54c-0.02,0.34 -0.11,0.58 -0.51,0.61 -0.78,-0.11 -0.58,-0.89 -0.58,-2.07l-9.56 -0.01 0 1.09c0.51,0 5.15,-0.04 5.43,0.03 0.53,0.13 0.37,0.77 0.56,1.26 0.55,1.41 1.82,1.21 2.2,1.41 0.43,0.23 0.28,1.04 0.28,1.53l0 3.6c0,1.79 0.08,1.5 -1,1.73 -0.65,0.14 -1.22,0.64 -1.47,1.28 -0.19,0.49 -0.03,1.09 -0.52,1.25 -0.26,0.09 -4.98,0.04 -5.47,0.04l-0 1.09 9.56 -0 -0 -10.36c-0,-0.56 0.02,-0.81 0.58,-0.89 0.2,0.01 0.42,0.13 0.49,0.35 0.01,0.03 0.02,0.3 0.03,0.75l0 18.11c-0,0.25 -0,0.44 0,0.57l0 0.26c-0.01,0.59 -0.11,0.77 -0.75,0.82 -0.52,0.04 -1.18,0 -1.71,0l-25.51 0c-0.57,0 -1.11,0.05 -1.28,-0.38 -0.02,-0.04 -0.03,-0.37 -0.04,-0.93l0 -18.7c0,-1.85 0,-3.3 0,-4.03l0 -0.21c0.03,-1.05 0.64,-0.81 2.46,-0.81l23.79 0c2.4,0 2.93,-0.13 3.03,0.54zm-28.18 22.35l9.54 -0 0.01 1.02 -9.56 -0.01 0.01 -1.02zm17.54 -2.12l9.54 0 0 1.01c-2.05,0.08 -4.89,0.01 -7.09,0.01 -0.66,0 -1.77,-0.21 -1.75,0.56 0.02,0.75 1.18,0.53 1.81,0.53 2.24,0 4.87,-0.06 7.03,0l0 1.02 -9.56 0 0.02 -3.14zm0 -2.12l9.54 0 0 1.02 -9.57 0 0.02 -1.02zm-13.04 1.02c-0.55,-0 -1.12,-0.05 -1.11,0.56 0.01,0.61 0.65,0.53 1.17,0.53l4.99 0 0.01 1.02 -9.56 -0.01 0.01 -1.01c1.23,-0.04 2.68,0.25 2.63,-0.59 -0.05,-0.76 -1.42,-0.47 -2.65,-0.52l0.01 -1.02 9.54 0 0.01 1.02 -5.05 -0zm13.04 -3.14l9.54 0 0 1.02 -9.57 0 0.02 -1.02zm-17.54 0l9.54 0 0.01 1.02 -9.56 -0.01 0.01 -1.02zm17.53 -13.22l4.8 0.01c0.41,1.56 1.14,2.11 2.57,2.58l-0 4.77c-0.78,0.26 -1.21,0.42 -1.68,0.89 -0.41,0.41 -0.7,0.93 -0.89,1.7l-4.81 0 0.01 -9.94zm-7.4 6.84c0.69,-0.22 0.51,-0.65 0.51,-1.87l0.01 -7.16 5.78 0.02 -0.01 14.29 -5.78 -0.02c0,-0.83 0,-1.67 0,-2.5 0,-0.99 0.18,-1.83 -0.45,-2.02 -0.9,0.01 -0.6,0.88 -0.65,2.36l-4.8 -0.01c-0.4,-1.6 -1.18,-2.12 -2.57,-2.58l0 -4.77c0.79,-0.25 1.21,-0.42 1.68,-0.89 0.42,-0.43 0.69,-0.92 0.89,-1.69l4.8 -0c0.07,1.54 0.01,3.91 0.01,5.6 -0,0.7 -0.11,1.13 0.58,1.24zm-10.14 -9.02l9.56 0 -0 1.09 -4.48 0c-0.44,0 -0.99,-0.08 -1.23,0.2 -0.35,0.42 0.06,1.16 -0.97,2 -0.85,0.69 -1.79,0.06 -1.79,1.12l0 5.49c0,0.56 0.23,0.66 0.74,0.72 1.94,0.22 1.74,2.08 2.02,2.4 0.24,0.29 0.85,0.2 1.29,0.2l4.42 0 0 1.09 -0.59 0c-2.75,0 -6.32,0.07 -8.97,-0.01l0 -14.31z"/>
   <path class="fil1" d="M11.24 10.19c0,0.28 -0.04,0.56 0.06,0.74 0.63,0.19 0.45,1.03 0.45,2.02 0,0.83 0,1.67 0,2.5l5.78 0.02 0.01 -14.29 -5.78 -0.02 -0.01 7.16c0,1.22 0.18,1.65 -0.51,1.87z"/>
   <path class="fil2" d="M11.3 10.93c-0.1,-0.19 -0.06,-0.47 -0.06,-0.74 -0.69,-0.11 -0.58,-0.54 -0.58,-1.24 0,-1.69 0.06,-4.06 -0.01,-5.6l-4.8 0c-0.2,0.78 -0.47,1.27 -0.89,1.69 -0.47,0.47 -0.89,0.64 -1.68,0.89l-0 4.77c1.39,0.46 2.17,0.98 2.57,2.58l4.8 0.01c0.04,-1.48 -0.26,-2.35 0.65,-2.36z"/>
   <path class="fil2" d="M18.63 13.29l4.81 -0c0.19,-0.76 0.48,-1.29 0.89,-1.7 0.47,-0.47 0.9,-0.63 1.68,-0.89l0 -4.77c-1.44,-0.46 -2.16,-1.02 -2.57,-2.58l-4.8 -0.01 -0.01 9.94z"/>
   <path class="fil3" d="M28.77 4.22l0 -0.99c-0.78,-0.11 -0.58,-0.89 -0.58,-2.07l-9.56 -0.01 0 1.09c0.51,0 5.15,-0.04 5.43,0.03 0.53,0.13 0.37,0.77 0.56,1.26 0.55,1.41 1.82,1.21 2.2,1.41 0.43,0.23 0.28,1.04 0.28,1.53l0 3.6c0,1.79 0.08,1.5 -1,1.73 -0.65,0.14 -1.22,0.64 -1.47,1.28 -0.19,0.49 -0.03,1.09 -0.52,1.25 -0.26,0.09 -4.98,0.04 -5.47,0.04l-0 1.09 9.56 -0 -0 -10.36c-0,-0.56 0.02,-0.81 0.58,-0.89z"/>
   <path class="fil3" d="M1.09 15.47c2.65,0.07 6.22,0.01 8.97,0.01l0.59 0 -0 -1.09 -4.42 0c-0.43,0 -1.05,0.09 -1.29,-0.2 -0.27,-0.33 -0.08,-2.18 -2.02,-2.4 -0.51,-0.06 -0.74,-0.16 -0.74,-0.72l0 -5.49c0,-1.06 0.94,-0.42 1.79,-1.12 1.03,-0.84 0.62,-1.58 0.97,-2 0.24,-0.28 0.79,-0.2 1.23,-0.2l4.48 0 0 -1.09 -9.56 0 0 14.31z"/>
   <polygon class="fil4" points="11.75,23.91 17.53,23.94 17.54,16.58 11.75,16.57 "/>
   <path class="fil2" d="M18.63 23.94l9.56 -0 -0 -1.02c-2.16,-0.06 -4.78,-0 -7.03,-0 -0.63,0 -1.79,0.22 -1.81,-0.53 -0.02,-0.78 1.09,-0.56 1.75,-0.56 2.2,0 5.03,0.07 7.09,-0.01l-0 -1.01 -9.54 -0 -0.02 3.14z"/>
   <path class="fil2" d="M1.09 19.7c1.22,0.05 2.6,-0.25 2.65,0.52 0.05,0.84 -1.4,0.55 -2.63,0.59l-0.01 1.01 9.56 0.01 -0.01 -1.02 -4.99 0c-0.52,0 -1.16,0.08 -1.17,-0.53 -0.01,-0.61 0.56,-0.57 1.11,-0.56l5.05 0 -0.01 -1.02 -9.54 0 -0.01 1.02z"/>
   <polygon class="fil2" points="18.63,17.59 28.19,17.59 28.19,16.57 18.65,16.57 "/>
   <polygon class="fil2" points="1.09,17.59 10.65,17.59 10.65,16.57 1.1,16.57 "/>
   <polygon class="fil2" points="18.63,19.71 28.19,19.71 28.19,18.69 18.65,18.68 "/>
   <polygon class="fil2" points="1.09,23.93 10.65,23.94 10.65,22.92 1.1,22.92 "/>
  </g>
 </g>
</svg>
