<svg id="Layer_5" enable-background="new 0 0 64 64" height="512" viewBox="0 0 64 64" width="512" xmlns="http://www.w3.org/2000/svg"><g><g><g><path d="m25 36v-4h-15c-4.42 0-8-3.58-8-8s3.58-8 8-8c.7 0 1.37.09 2.02.26.38-7.94 6.94-14.26 14.98-14.26 6.88 0 12.69 4.65 14.45 10.97 1.04-.62 2.25-.97 3.55-.97 2.95 0 5.47 1.82 6.5 4.4.79-.26 1.63-.4 2.5-.4 4.42 0 8 3.58 8 8s-3.58 8-8 8h-15v4 4.03l-.64-.64-1.53.74c-.41-.2-.83-.38-1.26-.53l-.57-1.6v-14h3l-6-9-6 9h3v14l-.57 1.6c-.43.15-.85.33-1.26.53l-1.53-.74-.62.63-.02-.02z" fill="#e6e9ed"/></g><g><path d="m25.03 60h-9.03c-1.1 0-2-.9-2-2v-8h6v3l1.6.57c.15.43.33.85.53 1.26l-.74 1.53z" fill="#b27946"/></g><g><path d="m50 50v8c0 1.1-.9 2-2 2h-9.03l3.64-3.64-.74-1.53c.2-.41.38-.83.53-1.26l1.6-.57v-3z" fill="#b27946"/></g><g><path d="m14 36v14l-6 2v-14z" fill="#d3a06c"/></g><g><path d="m56 38v14l-6-2v-14z" fill="#d3a06c"/></g><g><path d="m25.02 40.02-3.63 3.62.74 1.53c-.2.41-.38.83-.53 1.26l-1.6.57v3h-6v-14h11v4z" fill="#dfb28b"/></g><g><path d="m50 36v14h-6v-3l-1.6-.57c-.15-.43-.33-.85-.53-1.26l.74-1.53-3.61-3.61v-4.03z" fill="#dfb28b"/></g><g><path d="m32 15 6 9h-3v14h-6v-14h-3z" fill="#b4dd7f"/></g><g><path d="m25.03 60-3.64-3.64.74-1.53c-.2-.41-.38-.83-.53-1.26l-1.6-.57v-3-3l1.6-.57c.15-.43.33-.85.53-1.26l-.74-1.53 3.63-3.62.62-.63 1.53.74c.41-.2.83-.38 1.26-.53l.57-1.6h6l.57 1.6c.43.15.85.33 1.26.53l1.53-.74.64.64 3.61 3.61-.74 1.53c.2.41.38.83.53 1.26l1.6.57v3 3l-1.6.57c-.15.43-.33.85-.53 1.26l.74 1.53-3.64 3.64-.61.61-1.53-.74c-.41.2-.83.38-1.26.53l-.57 1.6h-6l-.57-1.6c-.43-.15-.85-.33-1.26-.53l-1.53.74zm13.97-10c0-3.87-3.13-7-7-7s-7 3.13-7 7 3.13 7 7 7 7-3.13 7-7z" fill="#ffc729"/></g><g><path d="m32 43c3.87 0 7 3.13 7 7s-3.13 7-7 7-7-3.13-7-7 3.13-7 7-7zm3 7c0-1.66-1.34-3-3-3s-3 1.34-3 3 1.34 3 3 3 3-1.34 3-3z" fill="#fcd770"/></g></g><g><path d="m32 42c-4.411 0-8 3.589-8 8s3.589 8 8 8 8-3.589 8-8-3.589-8-8-8zm0 14c-3.309 0-6-2.691-6-6s2.691-6 6-6 6 2.691 6 6-2.691 6-6 6z"/><path d="m32 46c-2.206 0-4 1.794-4 4s1.794 4 4 4 4-1.794 4-4-1.794-4-4-4zm0 6c-1.103 0-2-.897-2-2s.897-2 2-2 2 .897 2 2-.897 2-2 2z"/><path d="m54 33c4.962 0 9-4.038 9-9s-4.038-9-9-9c-.66 0-1.306.097-1.944.238-1.349-2.519-4.004-4.238-7.056-4.238-1.022 0-2.027.203-2.966.578-2.229-6.158-8.117-10.578-15.034-10.578-8.164 0-14.918 6.1-15.87 14.079-.371-.047-.747-.079-1.13-.079-4.962 0-9 4.038-9 9s4.038 9 9 9h14v2h-10.162l-6.838 2.279v16.108l6-2v6.613c0 1.654 1.346 3 3 3h8.616l.814.813 1.748-.836c.157.069.314.135.471.196l.643 1.827h7.415l.645-1.826c.157-.062.314-.127.471-.196l1.748.836.813-.814h8.616c1.654 0 3-1.346 3-3v-6.613l6 2v-16.108l-6.838-2.279h-10.162v-2zm-44-2c-3.86 0-7-3.14-7-7s3.14-7 7-7 7 3.14 7 7h2c0-3.875-2.467-7.177-5.91-8.442.725-7.098 6.685-12.558 13.91-12.558 7.72 0 14 6.28 14 14h2c0-1.202-.144-2.37-.397-3.497.752-.328 1.567-.503 2.397-.503 3.309 0 6 2.691 6 6h2c0-.65-.086-1.278-.233-1.883.405-.072.816-.117 1.233-.117 3.86 0 7 3.14 7 7s-3.14 7-7 7h-16v7.459l-1.177.563c-.157-.069-.314-.135-.471-.196l-.352-.997v-12.829h3.869l-7.869-11.803-7.869 11.803h3.869v12.829l-.352.997c-.157.062-.314.127-.471.196l-1.177-.563v-7.459zm17.869-8 4.131-6.197 4.131 6.197h-2.131v14h-4v-14zm-3.869 16.616-3.814 3.813.836 1.749c-.069.155-.134.313-.196.471l-1.826.643v2.708h-4v-12h9zm-15 10.996v-11.891l4-1.333v11.892zm7 8.388c-.551 0-1-.448-1-1v-7h4v2.708l1.826.644c.062.158.127.315.196.471l-.836 1.749 2.429 2.428zm22.157.399-1.334-.639-.435.214c-.381.187-.766.347-1.146.477l-.458.156-.492 1.393h-4.585l-.491-1.393-.458-.156c-.38-.13-.765-.29-1.146-.477l-.435-.214-1.334.639-3.242-3.242.638-1.335-.214-.436c-.185-.375-.345-.761-.477-1.146l-.157-.458-1.391-.49v-4.584l1.392-.491.157-.458c.132-.385.292-.771.477-1.146l.214-.436-.638-1.335 3.242-3.242 1.334.639.435-.214c.381-.187.766-.347 1.146-.477l.458-.156.491-1.392h4.585l.491 1.393.458.156c.38.13.765.29 1.146.477l.435.214 1.334-.639 3.242 3.242-.638 1.335.214.436c.185.375.345.761.477 1.146l.157.458 1.391.49v4.584l-1.392.491-.157.458c-.132.385-.292.771-.477 1.146l-.214.436.638 1.335zm9.843-.399h-6.615l2.429-2.429-.836-1.749c.069-.155.134-.313.196-.471l1.826-.643v-2.708h4v7c0 .552-.449 1-1 1zm7-8.388-4-1.333v-11.892l4 1.333zm-6-13.612v12h-4v-2.708l-1.826-.644c-.062-.158-.127-.315-.196-.471l.836-1.749-3.814-3.812v-2.616z"/><path d="m37 17h2c0-6.617-5.383-12-12-12v2c5.514 0 10 4.486 10 10z"/><path d="m24.819 5.198c-.746.138-1.48.346-2.183.621l.729 1.862c.584-.228 1.195-.402 1.817-.517z"/><path d="m7 24c0-1.654 1.346-3 3-3v-2c-2.757 0-5 2.243-5 5s2.243 5 5 5h3v-2h-3c-1.654 0-3-1.346-3-3z"/><path d="m19 27h2v2h-2z"/><path d="m15 27h2v2h-2z"/></g></g></svg>