<?xml version="1.0" encoding="UTF-8"?>
<!DOCTYPE svg PUBLIC "-//W3C//DTD SVG 1.1//EN" "http://www.w3.org/Graphics/SVG/1.1/DTD/svg11.dtd">
<!-- Creator: CorelDRAW 2020 (64-Bit) -->
<svg xmlns="http://www.w3.org/2000/svg" xml:space="preserve" width="66.5175mm" height="95.0259mm" version="1.1" style="shape-rendering:geometricPrecision; text-rendering:geometricPrecision; image-rendering:optimizeQuality; fill-rule:evenodd; clip-rule:evenodd"
viewBox="0 0 20.79 29.69"
 xmlns:xlink="http://www.w3.org/1999/xlink"
 xmlns:xodm="http://www.corel.com/coreldraw/odm/2003">
 <defs>
  <style type="text/css">
   <![CDATA[
    .fil0 {fill:black}
    .fil1 {fill:#2B6FA7}
    .fil4 {fill:#A4D4F4}
    .fil3 {fill:#C1C4C5}
    .fil2 {fill:#F4CAA9}
   ]]>
  </style>
 </defs>
 <g id="Capa_x0020_1">
  <metadata id="CorelCorpID_0Corel-Layer"/>
  <g id="_1703777012000">
   <path class="fil0" d="M0.99 24.74c1.27,0 9.95,-0.08 10.42,0.03 0.16,1.34 0.63,2.29 1.46,3.18l0.79 0.73c-0.87,0.09 -6.86,0.02 -8.28,0.02 -1.06,0 -3.12,0.21 -3.83,-0.31 -0.82,-0.6 -0.56,-2.43 -0.56,-3.65zm15.85 -13.3l2.64 4.9c0.43,0.83 0.32,1.19 0.32,2.22 0,3.38 0,6.76 0,10.15 -1.83,0 -3.65,0.23 -5.13,-0.56 -1.04,-0.56 -2.14,-1.8 -2.27,-3.46 -0.08,-0.94 -0.19,-0.84 -0.93,-1.93l-2.32 -3.44c-0.49,-0.71 -0.3,-1.68 0.23,-2.07 0.68,-0.51 1.49,-0.4 2.01,0.14 0.42,0.44 2.45,3.46 3.03,4.15 0.29,0.35 0.7,0.25 1.23,0.25 1.46,0 1.17,-0.25 1.17,-1.67 0,-2.33 -0.12,-6.8 0.01,-8.67zm-15.85 -6.49l14.85 0 -0 15.84 -0.62 0c-0.24,0 -1.16,-1.43 -1.29,-1.62 -0.4,-0.57 -0.82,-1.14 -1.22,-1.69 -0.46,-0.63 -0.71,-1.07 -1.51,-1.4 -1.39,-0.57 -3.21,0.36 -3.35,2.11 -0.08,0.98 0.39,1.56 0.78,2.13l2.3 3.42 -9.95 0.01 0 -18.81zm-0 -0.99c0,-2.11 -0.18,-2.97 2.23,-2.97l10.39 0c2.4,-0 2.23,0.84 2.23,2.97l-14.85 0zm-0.99 -1.67l0 25.12c0,1.14 1.15,2.29 2.29,2.29l18 0c0.3,0 0.49,-0.2 0.49,-0.49l0 -12.06c0,-0.7 -0.52,-1.41 -0.85,-2.06l-3.05 -5.73c-0.16,-0.41 -0.06,-4.88 -0.06,-5.76 0,-1.18 0.11,-1.75 -0.41,-2.5 -0.35,-0.51 -1.07,-1.09 -1.88,-1.09l-12.25 0c-1.14,0 -2.29,1.15 -2.29,2.29z"/>
   <path class="fil1" d="M5.96 22.39c-0.15,-0.68 0.83,-0.8 0.95,-0.23 0.13,0.65 -0.83,0.77 -0.95,0.23zm-1.98 0c-0.15,-0.68 0.83,-0.8 0.95,-0.23 0.13,0.65 -0.83,0.77 -0.95,0.23zm-1.98 0c-0.15,-0.68 0.83,-0.8 0.95,-0.23 0.13,0.65 -0.83,0.77 -0.95,0.23zm0 -1.98c-0.19,-0.84 1.29,-0.62 2.33,-0.62 0.49,0 0.99,0 1.48,0 0.47,-0 1,-0.06 1.09,0.39 0.11,0.54 -0.4,0.6 -0.85,0.6l-2.97 -0c-0.45,0 -1,0.06 -1.09,-0.37zm0 -1.98c-0.19,-0.85 1.24,-0.62 1.84,-0.62 0.61,0 1.96,-0.23 2.08,0.39 0.17,0.82 -1.25,0.6 -1.84,0.6 -0.59,0 -1.95,0.22 -2.08,-0.37zm0 -1.98c-0.19,-0.85 1.24,-0.62 1.84,-0.62 0.61,0 1.96,-0.23 2.08,0.39 0.17,0.82 -1.25,0.6 -1.84,0.6 -0.59,0 -1.95,0.22 -2.08,-0.37zm9.21 -4.53c0.18,-0.08 3.12,-0.09 3.34,-0 0.42,0.19 0.3,0.93 0.3,1.43 0,0.5 0.13,1.24 -0.3,1.43 -0.21,0.09 -3.15,0.09 -3.36,0 -0.42,-0.19 -0.3,-0.93 -0.3,-1.43 0,-0.6 -0.15,-1.21 0.32,-1.43zm-2.55 1.93c0.36,-0 0.86,-0.07 1.08,0.15 0.25,0.25 0.13,0.66 -0.15,0.78 -0.24,0.11 -2.02,0.05 -2.42,0.05 -0.36,0 -0.86,0.07 -1.08,-0.15 -0.3,-0.3 -0.13,-0.64 0.17,-0.78 0.25,-0.12 1.97,-0.05 2.4,-0.05zm-6.36 0.05c0.25,-0.12 1.53,-0.05 1.9,-0.05 0.9,0 0.9,0.74 0.44,0.94 -0.22,0.1 -1.59,0.06 -1.93,0.05 -0.84,-0 -0.97,-0.67 -0.41,-0.94zm0 -1.98c0.22,-0.11 5.6,-0.05 6.6,-0.05 0.37,-0 0.72,-0.02 0.89,0.22 0.19,0.28 0.03,0.61 -0.2,0.72 -0.24,0.11 -5.61,0.05 -6.63,0.05 -1.44,0.01 -1,-0.77 -0.66,-0.94zm0 -5.94c0.24,-0.12 9.34,-0.05 11.06,-0.05 1.73,0 1.48,-0.33 1.48,2.97 0,0.57 0.19,1.71 -0.3,1.93 -0.26,0.12 -9.35,0.05 -11.08,0.05 -1.73,0 -1.48,0.33 -1.48,-2.97 0,-0.62 -0.19,-1.68 0.32,-1.93zm-1.32 17.77l9.95 -0.01 -2.3 -3.42c-0.39,-0.57 -0.86,-1.15 -0.78,-2.13 0.14,-1.74 1.96,-2.67 3.35,-2.11 0.8,0.33 1.05,0.76 1.51,1.4 0.4,0.55 0.82,1.12 1.22,1.69 0.13,0.19 1.05,1.62 1.29,1.62l0.62 0 0 -15.84 -14.85 0 -0 18.81z"/>
   <path class="fil2" d="M16.84 11.44c-0.13,1.86 -0.01,6.34 -0.01,8.67 0,1.42 0.29,1.67 -1.17,1.67 -0.53,-0 -0.94,0.1 -1.23,-0.25 -0.58,-0.69 -2.61,-3.71 -3.03,-4.15 -0.52,-0.54 -1.34,-0.65 -2.01,-0.14 -0.53,0.39 -0.72,1.37 -0.23,2.07l2.32 3.44c0.74,1.09 0.85,0.99 0.93,1.93 0.14,1.66 1.24,2.91 2.27,3.46 1.48,0.79 3.29,0.56 5.13,0.56 0,-3.38 0,-6.76 0,-10.15 0,-1.03 0.11,-1.39 -0.32,-2.22l-2.64 -4.9z"/>
   <path class="fil3" d="M7.44 2.6c-0.2,-0.9 1.47,-0.62 2.08,-0.62 0.9,0 2.21,-0.18 2.33,0.39 0.18,0.87 -1.48,0.6 -2.08,0.6 -0.84,0 -2.21,0.17 -2.33,-0.37zm-2.47 0c-0.15,-0.68 0.83,-0.8 0.95,-0.23 0.13,0.65 -0.83,0.77 -0.95,0.23zm-3.98 1.36l14.85 0c0,-2.13 0.18,-2.97 -2.23,-2.97l-10.39 0c-2.41,-0 -2.23,0.86 -2.23,2.97z"/>
   <path class="fil3" d="M8.15 25.27c0.89,-0.17 1.59,0.46 1.72,1.17 0.17,0.9 -0.44,1.61 -1.17,1.74 -1.93,0.36 -2.48,-2.54 -0.54,-2.91zm-7.16 -0.52c0,1.22 -0.26,3.05 0.56,3.65 0.72,0.52 2.77,0.31 3.83,0.31 1.41,0 7.41,0.07 8.28,-0.02l-0.79 -0.73c-0.82,-0.89 -1.3,-1.85 -1.46,-3.18 -0.47,-0.12 -9.15,-0.03 -10.42,-0.03z"/>
   <path class="fil0" d="M2.97 6.93l10.89 0 0 2.97 -10.89 0 0 -2.97zm-0.66 -0.94c-0.52,0.25 -0.32,1.31 -0.32,1.93 0,3.3 -0.24,2.97 1.48,2.97 1.73,0 10.82,0.07 11.08,-0.05 0.49,-0.22 0.3,-1.36 0.3,-1.93 0,-3.3 0.24,-2.97 -1.48,-2.97 -1.72,0 -10.82,-0.06 -11.06,0.05z"/>
   <path class="fil4" d="M4.28 7.97c0.17,-0.08 4.09,-0.1 4.33,-0 0.37,0.16 0.37,0.72 -0,0.89 -0.17,0.08 -4.11,0.11 -4.35,0 -0.4,-0.17 -0.4,-0.68 0.03,-0.89zm-1.31 1.93l10.89 0 0 -2.97 -10.89 0 0 2.97z"/>
   <path class="fil0" d="M11.88 12.87l1.98 0 0 0.99 -1.98 0 0 -0.99zm-0.66 -0.94c-0.47,0.23 -0.32,0.84 -0.32,1.43 0,0.5 -0.13,1.25 0.3,1.43 0.21,0.09 3.16,0.09 3.36,-0 0.42,-0.19 0.3,-0.93 0.3,-1.43 0,-0.5 0.13,-1.25 -0.3,-1.43 -0.21,-0.09 -3.16,-0.08 -3.34,0z"/>
   <path class="fil0" d="M2.3 11.93c-0.34,0.16 -0.78,0.95 0.66,0.94 1.02,-0.01 6.39,0.06 6.63,-0.05 0.23,-0.1 0.4,-0.43 0.2,-0.72 -0.17,-0.25 -0.52,-0.22 -0.89,-0.22 -1.01,0.01 -6.38,-0.06 -6.6,0.05z"/>
   <path class="fil0" d="M7.94 26.85c-0.15,-0.68 0.84,-0.81 0.95,-0.23 0.13,0.65 -0.83,0.78 -0.95,0.23zm0.21 -1.58c-1.94,0.37 -1.39,3.27 0.54,2.91 0.73,-0.13 1.34,-0.84 1.17,-1.74 -0.13,-0.71 -0.83,-1.34 -1.72,-1.17z"/>
   <path class="fil0" d="M4.28 7.97c-0.43,0.21 -0.42,0.71 -0.03,0.89 0.24,0.11 4.18,0.08 4.35,-0 0.37,-0.16 0.37,-0.72 0,-0.89 -0.23,-0.1 -4.16,-0.08 -4.33,0z"/>
   <path class="fil0" d="M2 20.41c0.1,0.43 0.64,0.37 1.09,0.37l2.97 0c0.45,0 0.96,-0.06 0.85,-0.6 -0.09,-0.46 -0.62,-0.39 -1.09,-0.39 -0.49,0 -0.99,0 -1.48,0 -1.05,0 -2.52,-0.22 -2.33,0.62z"/>
   <path class="fil0" d="M7.44 2.6c0.12,0.54 1.49,0.37 2.33,0.37 0.6,0 2.26,0.27 2.08,-0.6 -0.12,-0.57 -1.43,-0.39 -2.33,-0.39 -0.62,0 -2.28,-0.28 -2.08,0.62z"/>
   <path class="fil0" d="M2 16.46c0.13,0.59 1.5,0.37 2.08,0.37 0.59,0 2,0.22 1.84,-0.6 -0.13,-0.62 -1.47,-0.39 -2.08,-0.39 -0.6,0 -2.02,-0.23 -1.84,0.62z"/>
   <path class="fil0" d="M2 18.44c0.13,0.59 1.5,0.37 2.08,0.37 0.59,0 2,0.22 1.84,-0.6 -0.13,-0.62 -1.47,-0.39 -2.08,-0.39 -0.6,0 -2.02,-0.23 -1.84,0.62z"/>
   <path class="fil0" d="M6.26 13.91c-0.31,0.15 -0.47,0.49 -0.17,0.78 0.22,0.22 0.72,0.15 1.08,0.15 0.4,-0 2.19,0.05 2.42,-0.05 0.28,-0.12 0.4,-0.53 0.15,-0.78 -0.22,-0.22 -0.72,-0.15 -1.08,-0.15 -0.42,0 -2.15,-0.07 -2.4,0.05z"/>
   <path class="fil0" d="M2.3 13.91c-0.55,0.27 -0.43,0.94 0.41,0.94 0.34,0 1.72,0.04 1.93,-0.05 0.46,-0.2 0.46,-0.94 -0.44,-0.94 -0.38,-0 -1.66,-0.07 -1.9,0.05z"/>
   <polygon class="fil4" points="11.88,13.86 13.86,13.86 13.86,12.87 11.88,12.87 "/>
   <path class="fil3" d="M7.94 26.85c0.12,0.55 1.09,0.43 0.95,-0.23 -0.12,-0.58 -1.1,-0.45 -0.95,0.23z"/>
   <path class="fil0" d="M4.97 2.6c0.12,0.55 1.09,0.43 0.95,-0.23 -0.12,-0.58 -1.1,-0.45 -0.95,0.23z"/>
   <path class="fil0" d="M2 22.39c0.12,0.55 1.09,0.43 0.95,-0.23 -0.12,-0.58 -1.1,-0.45 -0.95,0.23z"/>
   <path class="fil0" d="M3.98 22.39c0.12,0.55 1.09,0.43 0.95,-0.23 -0.12,-0.58 -1.1,-0.45 -0.95,0.23z"/>
   <path class="fil0" d="M5.96 22.39c0.12,0.55 1.09,0.43 0.95,-0.23 -0.12,-0.58 -1.1,-0.45 -0.95,0.23z"/>
  </g>
 </g>
</svg>
