<?xml version="1.0" encoding="UTF-8"?>
<!DOCTYPE svg PUBLIC "-//W3C//DTD SVG 1.1//EN" "http://www.w3.org/Graphics/SVG/1.1/DTD/svg11.dtd">
<!-- Creator: CorelDRAW 2020 (64-Bit) -->
<svg xmlns="http://www.w3.org/2000/svg" xml:space="preserve" width="123.224mm" height="94.7931mm" version="1.1" style="shape-rendering:geometricPrecision; text-rendering:geometricPrecision; image-rendering:optimizeQuality; fill-rule:evenodd; clip-rule:evenodd"
viewBox="0 0 59.94 46.11"
 xmlns:xlink="http://www.w3.org/1999/xlink"
 xmlns:xodm="http://www.corel.com/coreldraw/odm/2003">
 <defs>
  <style type="text/css">
   <![CDATA[
    .fil1 {fill:#114F0E}
    .fil0 {fill:#18CE0F}
   ]]>
  </style>
 </defs>
 <g id="Capa_x0020_1">
  <metadata id="CorelCorpID_0Corel-Layer"/>
  <rect class="fil0" width="59.94" height="46.11" rx="4.38" ry="4.73"/>
  <path class="fil1" d="M28.42 37.32l0 -0.38c0,-0.84 0.79,-1.59 1.82,-1.59 0.83,0 1.67,0.76 1.67,1.59l0 0.38c0,0.85 -0.88,1.59 -1.74,1.59 -0.87,0 -1.74,-0.74 -1.74,-1.59zm-7.13 -29.64l17.74 0 0 25.02 -17.74 0 0 -25.02zm4.85 -3.03l8.04 0c0.49,0 0.48,1.29 0,1.29l-8.04 0c-0.47,0 -0.47,-1.29 0,-1.29zm-6.98 0.83l0 33.59c0,1.36 1.3,2.65 2.65,2.65l16.68 0c1.35,0 2.65,-1.31 2.65,-2.65l0 -33.59c0,-0.26 -0.18,-0.82 -0.28,-1.01 -0.44,-0.83 -1.31,-1.56 -2.38,-1.56l-16.68 0c-1.41,0 -2.65,1.38 -2.65,2.58z"/>
 </g>
</svg>
