<?xml version="1.0" encoding="UTF-8"?>
<!DOCTYPE svg PUBLIC "-//W3C//DTD SVG 1.1//EN" "http://www.w3.org/Graphics/SVG/1.1/DTD/svg11.dtd">
<!-- Creator: CorelDRAW 2020 (64-Bit) -->
<svg xmlns="http://www.w3.org/2000/svg" xml:space="preserve" width="165.122mm" height="164.992mm" version="1.1" style="shape-rendering:geometricPrecision; text-rendering:geometricPrecision; image-rendering:optimizeQuality; fill-rule:evenodd; clip-rule:evenodd"
viewBox="0 0 135.98 135.87"
 xmlns:xlink="http://www.w3.org/1999/xlink"
 xmlns:xodm="http://www.corel.com/coreldraw/odm/2003">
 <defs>
  <style type="text/css">
   <![CDATA[
    .fil0 {fill:black}
    .fil3 {fill:#006CDA}
    .fil4 {fill:#EBAC2E}
    .fil5 {fill:#F1F1F1}
    .fil2 {fill:#F8C6B1}
    .fil1 {fill:#FEDE00}
   ]]>
  </style>
 </defs>
 <g id="Capa_x0020_1">
  <metadata id="CorelCorpID_0Corel-Layer"/>
  <g id="_1752203425328">
   <path class="fil0" d="M4.53 95.1l4.53 0 0 22.65 4.53 0 0 -22.65 4.53 0 0 36.24 -13.59 0 0 -36.24zm90.69 34.55c-0.16,-0.64 -0.15,-4.94 0.01,-5.58 0.41,-1.71 1.93,-1.8 3.87,-1.79l22.66 0.01c2.86,0 8.84,-1.04 9.53,1.78 0.17,0.68 0.17,4.82 -0,5.5 -0.42,1.7 -1.93,1.8 -3.86,1.79l-22.66 -0.01c-2.74,0 -8.88,1.02 -9.54,-1.7zm-21.25 -20.72c0.77,-0.37 32.3,-0.48 33.4,-0 2.04,0.9 2.03,7.69 -0,8.59 -0.81,0.36 -32.4,0.49 -33.52,0 -1.52,-0.67 -1.37,-2.42 -1.37,-4.3 0,-2.27 -0.33,-3.42 1.49,-4.3zm-6.02 1.18c0,2.47 -0.27,5.27 0.28,7.65 -2.93,0 -15.98,0.46 -18.12,-0.57 -3.38,-1.64 -3.14,-6.43 -0.21,-7.85 1.6,-0.77 3.32,-0.65 5.59,-0.64 4.25,0 8.49,0 12.74,0 -0.15,0.64 -0.28,0.65 -0.28,1.42zm-45.31 -8.21c6.56,0 7,-1.37 10.71,-4.3 2.96,-2.33 5.56,-4.47 11,-3.56 2.53,0.43 36.25,6.81 36.93,7.85 0.66,1 0.08,2.01 -0.91,2.22l-25.73 0.05c-13.53,-0.02 -13.34,11 -8.9,15.41 3.39,3.37 6.5,2.71 12.02,2.71 4.91,0 9.82,0 14.72,0 2.13,-0 5.34,-0.48 6.36,1.01 1.52,2.2 -0.67,3.52 -2.95,3.53l-37.11 -0.01c-3.26,0 -3.69,0.34 -6.35,-1.02 -2.92,-1.49 -6.91,-3.73 -9.8,-4.84l0 -19.06zm73.98 -6.56c0.77,-0.37 32.3,-0.48 33.4,-0 2.04,0.9 2.03,7.69 -0,8.59 -0.81,0.36 -32.4,0.49 -33.52,0 -1.52,-0.67 -1.37,-2.42 -1.37,-4.3 0,-2.27 -0.33,-3.42 1.49,-4.3zm-0 -13.59c0.77,-0.37 32.3,-0.48 33.4,-0 2.04,0.9 2.03,7.69 -0,8.59 -1.2,0.53 -19.53,0.24 -22.42,0.24 -11.85,0 -12.47,1.16 -12.47,-4.53 0,-2.27 -0.33,-3.42 1.49,-4.3zm0 -13.59c0.77,-0.37 32.3,-0.48 33.4,-0 2.04,0.9 2.03,7.69 -0,8.59 -1.2,0.53 -19.53,0.24 -22.42,0.24 -11.85,0 -12.46,1.16 -12.46,-4.53 0,-2.28 -0.33,-3.42 1.49,-4.3zm-6.8 -13.59c0.77,-0.37 32.3,-0.48 33.4,-0 2.04,0.9 2.03,7.69 -0,8.59 -1.2,0.53 -19.53,0.24 -22.42,0.24 -11.85,0 -12.47,1.16 -12.47,-4.53 0,-2.27 -0.33,-3.42 1.49,-4.3zm0 -13.59c0.77,-0.37 32.3,-0.48 33.4,-0 2.04,0.9 2.03,7.69 -0,8.59 -1.2,0.53 -19.53,0.24 -22.42,0.24 -11.85,0 -12.46,1.16 -12.46,-4.53 0,-2.28 -0.33,-3.42 1.49,-4.3zm-0 -13.59c0.77,-0.37 32.3,-0.48 33.4,-0 2.04,0.9 2.03,7.69 -0,8.59 -1.2,0.53 -19.53,0.24 -22.42,0.24 -11.85,0 -12.47,1.16 -12.47,-4.53 0,-2.27 -0.33,-3.42 1.49,-4.3zm6.8 -13.59c0.77,-0.37 32.3,-0.48 33.4,-0 2.04,0.9 2.03,7.69 -0,8.59 -1.2,0.53 -19.53,0.24 -22.42,0.24 -11.85,0 -12.46,1.16 -12.46,-4.53 0,-2.28 -0.33,-3.42 1.49,-4.3zm-6.02 1.46c0,2.39 -0.25,5.07 0.28,7.36 -4.25,0 -7.08,2.99 -7.08,6.23l0 5.66c0,2.08 1.42,3.25 1.42,3.96 0,0.71 -1.42,1.88 -1.42,3.96l0 5.66c0,2.08 1.42,3.25 1.42,3.96 0,0.71 -1.42,1.88 -1.42,3.96 0,4.74 -0.9,9.2 4.15,11.42 1.01,0.44 1.56,0.47 2.93,0.47 -0.53,2.29 -0.28,4.98 -0.28,7.36 0,2.08 1.42,3.25 1.42,3.96 0,0.71 -1.42,1.88 -1.42,3.96l0 5.66c0,2.08 1.42,3.25 1.42,3.96 0,0.71 -1.42,1.88 -1.42,3.96 0,2.39 -0.25,5.07 0.28,7.36l-4.81 0c0,-6.3 -2.16,-6.92 -8.05,-8.09l-23.6 -4.72c-1.86,-0.37 -3.82,-0.76 -5.9,-1.18 -9.73,-1.95 -11.75,-1.21 -19.41,4.89 -0.61,0.49 -1.1,0.89 -1.72,1.4 -1.46,1.2 -2.29,0.9 -4.76,0.9l0 -6.8 -22.65 0 0 45.31 22.65 0 0 -9.63c1.4,0.33 3.07,1.35 4.29,1.94 2.39,1.16 5.37,3.16 7.6,3.16l43.04 0c3.12,0 6.23,-3.11 6.23,-6.23l-0.28 -2.83 7.36 0c-0.53,2.29 -0.28,4.98 -0.28,7.36 0,3.11 3.11,6.23 6.23,6.23l32.85 0c3.12,0 6.23,-3.11 6.23,-6.23 0,-3.87 0.67,-8.06 -2.37,-10.37 -1.76,-1.34 -2.84,-1.53 -5.84,-1.52 -4.91,0.02 -9.82,0 -14.73,0 0.49,-2.12 0.49,-6.94 0,-9.06 4.81,0 9.63,-0.01 14.44,0 3.23,0.01 4.05,-0.04 5.96,-1.4 3.23,-2.3 2.54,-6.5 2.54,-10.49 0,-2.08 -1.42,-3.25 -1.42,-3.96 0,-0.71 1.42,-1.88 1.42,-3.96l0 -5.66c0,-2.08 -1.42,-3.25 -1.42,-3.96 0,-0.71 1.42,-1.88 1.42,-3.96 0,-4.74 0.9,-9.2 -4.15,-11.42 -1.01,-0.44 -1.56,-0.47 -2.93,-0.47 0.53,-2.29 0.28,-4.98 0.28,-7.36 0,-2.08 -1.42,-3.25 -1.42,-3.96 0,-0.71 1.42,-1.88 1.42,-3.96l0 -5.66c0,-2.08 -1.42,-3.25 -1.42,-3.96 0,-0.71 1.42,-1.88 1.42,-3.96 0,-2.39 0.25,-5.07 -0.28,-7.36 4.25,0 7.08,-2.99 7.08,-6.23l0 -5.66c0,-3.11 -3.11,-6.23 -6.23,-6.23l-32.85 0c-3.11,0 -6.23,3.11 -6.23,6.23z"/>
   <path class="fil1" d="M39.24 50.06c8.52,-2.23 11.81,10.82 3.27,13.09 -8.51,2.25 -12.41,-10.69 -3.27,-13.09zm0.32 -34.12c3.39,-0.64 6.04,1.32 7.12,3.31 1.35,2.49 0.89,6.76 0.89,9.87 0,2.66 0.3,8.36 -0.12,10.61 -1.17,6.3 -9.62,7.49 -12.58,2.09 -1.35,-2.47 -0.89,-6.77 -0.89,-9.87 0,-7.05 -1.49,-14.69 5.58,-16.02zm-31.07 51.98l64.56 0c5.37,0 1.96,-4.64 0.71,-6.94 -7.3,-13.39 -15.58,-27.28 -22.94,-40.77l-6.81 -12.17c-0.85,-1.46 -1.44,-3.32 -3.24,-3.31 -2.16,0 -3.7,4.33 -5.36,7.14 -5.98,10.11 -12.42,22.12 -18.37,32.59 -1.54,2.71 -3,5.53 -4.57,8.18 -1.57,2.66 -3.11,5.41 -4.59,8.15 -1.27,2.35 -4.84,7.12 0.61,7.12z"/>
   <path class="fil0" d="M8.49 67.91c-5.45,0 -1.88,-4.77 -0.61,-7.12 1.48,-2.74 3.02,-5.49 4.59,-8.15 1.57,-2.65 3.03,-5.47 4.57,-8.18 5.95,-10.47 12.39,-22.48 18.37,-32.59 1.67,-2.82 3.2,-7.14 5.36,-7.14 1.8,-0 2.39,1.85 3.24,3.31l6.81 12.17c7.36,13.5 15.64,27.39 22.94,40.77 1.25,2.3 4.66,6.94 -0.71,6.94l-64.56 0zm-7.65 -2.27c0,3.32 2.94,6.8 6.23,6.8l67.39 0c3.29,0 6.23,-3.48 6.23,-6.8 0,-2.73 -2.95,-6.77 -4.06,-8.97 -0.78,-1.54 -1.56,-2.66 -2.36,-4.15 -0.87,-1.62 -1.58,-2.78 -2.45,-4.35 -4.91,-8.85 -11.34,-20.68 -16.5,-29.38 -1.92,-3.24 -8.21,-15.3 -9.81,-16.81 -2.75,-2.59 -6.5,-2.68 -9.36,-0.14 -1.6,1.43 -10.42,17.64 -12.1,20.75 -1.53,2.83 -3.2,5.74 -4.8,8.51l-14.27 25.37c-1.13,2.22 -4.15,6.44 -4.15,9.16z"/>
   <path class="fil2" d="M22.65 101.89l0 19.06c2.89,1.11 6.87,3.35 9.8,4.84 2.66,1.36 3.09,1.02 6.35,1.02l37.11 0.01c2.28,-0.01 4.47,-1.33 2.95,-3.53 -1.03,-1.49 -4.23,-1.01 -6.36,-1.01 -4.91,0 -9.82,0 -14.72,0 -5.52,0 -8.62,0.66 -12.02,-2.71 -4.44,-4.41 -4.63,-15.43 8.9,-15.41l25.73 -0.05c0.99,-0.21 1.57,-1.23 0.91,-2.22 -0.68,-1.04 -34.4,-7.42 -36.93,-7.85 -5.44,-0.91 -8.04,1.23 -11,3.56 -3.72,2.93 -4.15,4.3 -10.71,4.3z"/>
   <path class="fil3" d="M9.06 122.28l4.53 0 0 4.53 -4.53 0 0 -4.53zm-4.53 9.06l13.59 0 0 -36.24 -4.53 0 0 22.65 -4.53 0 0 -22.65 -4.53 0 0 36.24z"/>
   <path class="fil4" d="M89.83 27.37c-1.83,0.88 -1.49,2.03 -1.49,4.3 -0,5.7 0.61,4.53 12.47,4.53 2.9,0 21.22,0.29 22.42,-0.24 2.03,-0.9 2.04,-7.7 0,-8.59 -1.1,-0.48 -32.63,-0.37 -33.4,0z"/>
   <path class="fil4" d="M89.83 54.55c-1.83,0.88 -1.49,2.03 -1.49,4.3 -0,5.7 0.61,4.53 12.47,4.53 2.9,0 21.22,0.29 22.42,-0.24 2.03,-0.9 2.04,-7.7 0,-8.59 -1.1,-0.48 -32.63,-0.37 -33.4,0z"/>
   <path class="fil4" d="M96.63 81.74c-1.83,0.88 -1.49,2.03 -1.49,4.3 -0,5.7 0.61,4.53 12.47,4.53 2.9,0 21.22,0.29 22.42,-0.24 2.03,-0.9 2.04,-7.7 0,-8.59 -1.1,-0.48 -32.63,-0.37 -33.4,0z"/>
   <path class="fil1" d="M96.63 68.15c-1.83,0.88 -1.49,2.02 -1.49,4.3 -0,5.69 0.61,4.53 12.46,4.53 2.9,0 21.23,0.29 22.42,-0.24 2.03,-0.9 2.04,-7.7 0,-8.59 -1.1,-0.48 -32.63,-0.37 -33.4,0z"/>
   <path class="fil1" d="M89.83 40.96c-1.83,0.88 -1.49,2.02 -1.49,4.3 -0,5.69 0.61,4.53 12.46,4.53 2.9,0 21.23,0.29 22.42,-0.24 2.03,-0.9 2.04,-7.7 0,-8.59 -1.1,-0.48 -32.63,-0.37 -33.4,0z"/>
   <path class="fil1" d="M96.63 13.78c-1.83,0.88 -1.49,2.02 -1.49,4.3 -0,5.69 0.61,4.53 12.46,4.53 2.9,0 21.23,0.29 22.42,-0.24 2.03,-0.9 2.04,-7.7 0,-8.59 -1.1,-0.48 -32.63,-0.37 -33.4,0z"/>
   <path class="fil1" d="M73.98 108.92c-1.83,0.88 -1.49,2.03 -1.49,4.3 -0,1.88 -0.15,3.63 1.37,4.3 1.12,0.49 32.71,0.36 33.52,-0 2.03,-0.9 2.04,-7.7 0,-8.59 -1.1,-0.48 -32.63,-0.37 -33.4,0z"/>
   <path class="fil1" d="M95.22 129.64c0.66,2.72 6.8,1.7 9.54,1.7l22.66 0.01c1.93,0.01 3.45,-0.09 3.86,-1.79 0.17,-0.68 0.17,-4.82 0,-5.5 -0.69,-2.82 -6.67,-1.78 -9.53,-1.78l-22.66 -0.01c-1.93,-0.01 -3.45,0.08 -3.87,1.79 -0.15,0.64 -0.16,4.94 -0.01,5.58z"/>
   <path class="fil1" d="M96.63 95.33c-1.83,0.88 -1.49,2.02 -1.49,4.3 0,1.88 -0.15,3.63 1.37,4.3 1.12,0.49 32.71,0.36 33.52,-0 2.03,-0.9 2.04,-7.7 0,-8.59 -1.1,-0.48 -32.63,-0.37 -33.4,0z"/>
   <path class="fil0" d="M40 20.57c4.02,-1.92 3.05,6.33 3.05,8.83 0,2.08 -0,4.15 0,6.23 0,2 0.28,4.15 -1.38,4.88 -4.22,1.83 -3.16,-6.26 -3.16,-8.84 0,-2.08 0,-4.15 -0,-6.23 -0.01,-2.41 -0.46,-3.94 1.49,-4.86zm-0.44 -4.64c-7.07,1.33 -5.58,8.97 -5.58,16.02 0,3.1 -0.46,7.4 0.89,9.87 2.96,5.4 11.41,4.21 12.58,-2.09 0.42,-2.26 0.12,-7.96 0.12,-10.61 0,-3.12 0.46,-7.38 -0.89,-9.87 -1.08,-2 -3.73,-3.95 -7.12,-3.31z"/>
   <path class="fil0" d="M40 54.55c2.57,-1.23 4.34,2.93 1.67,4.08 -2.48,1.07 -4.74,-2.62 -1.67,-4.08zm-0.75 -4.49c-9.14,2.4 -5.24,15.34 3.27,13.09 8.54,-2.26 5.25,-15.32 -3.27,-13.09z"/>
   <path class="fil5" d="M40 20.57c-1.95,0.93 -1.5,2.46 -1.49,4.86 0.01,2.08 0,4.15 0,6.23 0,2.58 -1.06,10.67 3.16,8.84 1.67,-0.72 1.39,-2.88 1.38,-4.88 -0.01,-2.08 -0,-4.15 -0,-6.23 0,-2.5 0.98,-10.75 -3.05,-8.83z"/>
   <polygon class="fil0" points="70.85,85.25 77.65,92.2 80.92,89.09 74.12,82.14 "/>
   <polygon class="fil0" points="81.55,86.04 86.08,86.04 86.08,76.97 81.55,76.97 "/>
   <polygon class="fil0" points="9.06,126.81 13.59,126.81 13.59,122.28 9.06,122.28 "/>
   <path class="fil5" d="M40 54.55c-3.07,1.46 -0.81,5.15 1.67,4.08 2.66,-1.15 0.9,-5.31 -1.67,-4.08z"/>
  </g>
 </g>
</svg>
