<?xml version="1.0" encoding="UTF-8"?>
<!DOCTYPE svg PUBLIC "-//W3C//DTD SVG 1.1//EN" "http://www.w3.org/Graphics/SVG/1.1/DTD/svg11.dtd">
<!-- Creator: CorelDRAW 2020 (64-Bit) -->
<svg xmlns="http://www.w3.org/2000/svg" xml:space="preserve" width="123.454mm" height="142.361mm" version="1.1" style="shape-rendering:geometricPrecision; text-rendering:geometricPrecision; image-rendering:optimizeQuality; fill-rule:evenodd; clip-rule:evenodd"
viewBox="0 0 67 77.26"
 xmlns:xlink="http://www.w3.org/1999/xlink"
 xmlns:xodm="http://www.corel.com/coreldraw/odm/2003">
 <defs>
  <style type="text/css">
   <![CDATA[
    .fil0 {fill:black}
    .fil9 {fill:#9C9C9C}
    .fil7 {fill:#CFD8DC}
    .fil10 {fill:#EEF0F0}
    .fil8 {fill:#F4F4F4}
    .fil2 {fill:#FDEA3A}
    .fil6 {fill:#FEC108}
    .fil3 {fill:#FEDE00}
    .fil5 {fill:red}
    .fil4 {fill:#FF9801}
    .fil1 {fill:white}
   ]]>
  </style>
 </defs>
 <g id="Capa_x0020_1">
  <metadata id="CorelCorpID_0Corel-Layer"/>
  <g id="_1752571973680">
   <path class="fil0" d="M33.45 51.81c0.34,2.57 -0.59,9.94 0.55,11.52 2.52,3.49 5.99,-2.35 7.37,-2.98 0.5,0.73 2.3,2.41 3.05,3.13 1.49,1.42 2.81,1.08 4.15,-0.2l9.83 8.25c1.01,0.9 2.49,1.93 3.33,2.87 -0.93,0.6 -41.73,0.29 -49.36,0.29 -2.13,0 -5.15,0.18 -7.12,-0.17 0.35,-0.69 4.19,-3.64 5.08,-4.43 3.77,-3.34 8.26,-6.85 12.14,-10.2l6.88 -5.79c0.52,-0.46 1.16,-0.98 1.73,-1.44 0.67,-0.54 1.29,-0.78 2.37,-0.85zm28.27 -17.06c0.49,-0.63 0.81,-0.76 1.36,-1.25 0.28,-0.26 0.98,-0.89 1.32,-1.03 0.14,10.03 0.01,20.63 0.01,30.76 0,1.98 0.43,8.3 -0.57,9.44 -0.47,-0.34 -1.8,-1.26 -2.07,-1.83 -0.64,-0.16 -5.72,-4.58 -6.47,-5.26l-4.82 -4.08c-0.44,-0.39 -1.13,-0.9 -1.52,-1.32l-0 -14.46c0.06,-0.6 0.64,-0.93 1.07,-1.29 1.4,-1.16 11.2,-9.53 11.7,-9.69zm-25.61 -4.99c0.51,0.49 1.28,1.07 2.39,1.13 1.48,0.08 2.01,-0.74 2.7,-0.75 0.77,-0.01 2.06,1.43 4.11,0.38 0.27,-0.14 0.35,-0.21 0.56,-0.35 0.1,-0.07 0.19,-0.14 0.3,-0.21 0.03,-0.02 0.09,-0.02 0.11,-0.07 0.02,-0.06 0.07,-0.05 0.11,-0.07l-0.04 31.87c-1.21,-0.91 -3.21,-3.96 -5.14,-3.95 -1.4,0.01 -2.18,1.16 -2.8,1.78 -0.57,0.57 -1.72,1.85 -2.32,2.21l0.03 -31.96zm-32.94 42.91c-1.02,-1.19 -0.57,-7.57 -0.57,-9.6l0 -30.62 3.05 2.48c1.05,0.93 1.98,1.62 3.03,2.55 1.77,1.58 17.58,14.58 18.13,15.32l-22.17 18.68c-0.53,0.43 -0.96,0.82 -1.48,1.18zm56.13 -46.68c0.71,0.42 1.52,1.23 2.24,1.81 0.71,0.57 1.49,1.22 2.1,1.78l-4.38 3.65 0.04 -7.24zm-55.93 3.59c0.66,-0.6 1.45,-1.26 2.19,-1.85 0.75,-0.61 1.4,-1.3 2.19,-1.74l0 7.24c-0.57,-0.29 -1.88,-1.44 -2.32,-1.84 -0.7,-0.63 -1.38,-1.1 -2.06,-1.81zm30.24 -19.1c0.96,-0.45 1.73,-0.03 2.98,-0.76 1.02,-0.6 1.22,-1.66 1.73,-1.91 0.68,-0.32 1.58,0.69 2.88,0.71 1.3,0.01 2.14,-0.92 2.79,-0.75 0.52,0.14 0.62,0.62 0.93,1.03 1.44,1.95 3.17,1.15 3.78,1.66 0.44,0.37 0.18,1.92 0.83,2.94 0.5,0.79 1.08,1.04 1.93,1.63 0.15,1.36 -0.76,1.43 -0.73,3.06 0.03,1.52 0.89,1.57 0.73,2.91 -0.71,0.73 -1.41,0.64 -2.05,1.83 -0.66,1.24 -0.03,2.25 -0.94,2.87 -0.81,0.23 -1.5,-0.01 -2.37,0.46 -0.56,0.3 -1.05,0.83 -1.37,1.35 -0.49,0.8 -0.63,1.07 -1.68,0.52 -2.42,-1.27 -3.27,0.08 -4.18,0.25 -0.84,0.15 -1.03,-0.66 -1.39,-1.18 -1.07,-1.54 -3,-1.17 -3.86,-1.55 -0.2,-0.72 -0.1,-1.7 -0.44,-2.44 -1.02,-2.22 -2.77,-1.51 -2.09,-3.04 1.19,-2.66 0.67,-2.28 -0.04,-4.2 -0.35,-0.94 0.36,-1.1 0.98,-1.51 1.63,-1.07 1.07,-1.97 1.58,-3.87zm-21.38 6.24c0.45,-0.72 2.31,-2.4 3.04,-3.13 1.59,-1.59 8.48,-8.68 9.22,-9.09l0.01 8.02c0,2.67 -1.63,4.22 -4.23,4.22l-8.04 -0.01zm40.06 -14.16c4.65,0.06 4.4,3.48 4.4,6.18l0 20.98c0,1.66 0.1,3.67 0.01,5.29 -0.04,0.64 -0.03,0.52 -0.44,0.86 -0.62,0.52 -1.53,1.42 -2.18,1.67 -0.28,0.5 -4.49,3.97 -5.12,4.34l0.02 -13.6c1.57,-0.68 2.48,-1.4 2.59,-3.4 0.12,-2.04 1.43,-0.61 2.46,-3.53l0.02 -1.59c-0.94,-2.46 -1.02,-0.97 -0.01,-3.47l-0.01 -1.59c-0.41,-1.21 -0.87,-1.67 -1.84,-2.3 -1.1,-0.71 -0.27,-1.77 -1.13,-3.09 -0.49,-0.76 -1.34,-1.51 -2.62,-1.6 -2.05,-0.15 -1.19,-0.52 -2.41,-1.67 -1.99,-1.89 -4.25,-0.17 -4.69,-0.12 -0.58,0.05 -0.95,-0.37 -1.55,-0.58 -1.19,-0.41 -2.47,-0.03 -3.25,0.57 -1.17,0.89 -0.43,1.69 -2.28,1.8 -1.33,0.08 -2.15,0.63 -2.77,1.45 -0.92,1.21 -0.22,2.54 -1.05,3.18 -0.98,0.75 -1.55,0.76 -1.96,2.26 -0.5,1.82 0.54,2.7 0.63,3.25 0.1,0.63 -2.28,3.81 1.04,5.73 1.51,0.87 -0.03,2.7 2.17,4.17 0.66,0.44 1.07,0.26 1.18,0.79l0 20.71c-2.45,0.09 -3.19,0.85 -4.58,1.86 -1.09,-0.78 -2.35,-1.89 -3.41,-2.81 -0.65,-0.57 -1.09,-0.94 -1.72,-1.44 -0.61,-0.49 -1.1,-0.96 -1.71,-1.45 -3.59,-2.86 -7.57,-6.47 -11.23,-9.44 -0.36,-0.3 -0.49,-0.29 -0.53,-0.92 -0.06,-0.96 0.01,-2.19 0.01,-3.18 0,-4.15 0,-8.31 0,-12.47 5.14,-0.86 11.5,1.48 14.8,-1.95 1.9,-1.97 1.94,-3.19 1.94,-6.56 -0,-2.74 -0.04,-5.51 0.01,-8.29l25.21 -0.01zm-44.58 20.06c-0.47,0.12 -3.51,2.84 -4.01,3.23l-2.96 2.48c-0.38,0.3 -0.73,0.6 -0.73,1.23l0 41.65c0,3.05 2.98,6.04 6.04,6.04l54.93 0c3.05,0 6.04,-2.98 6.04,-6.04l0 -41.65c0,-0.87 -0.67,-1.14 -1.16,-1.56 -0.21,-0.18 -0.27,-0.26 -0.48,-0.43 -0.71,-0.57 -5.49,-4.81 -6.06,-4.96 0,-4.78 0,-9.56 0,-14.34 0,-3.04 -0.11,-4.48 -1.75,-6.25 -1.05,-1.13 -2.59,-2.05 -4.28,-2.05l-27.77 0c-0.71,0 -9.18,8.8 -10.3,9.92 -0.87,0.87 -7.13,6.86 -7.41,7.68 -0.32,0.94 -0.1,3.83 -0.1,5.03z"/>
   <path class="fil1" d="M21.94 40.14c-0.28,-2.03 2.58,-1.51 4.17,-1.51 1.52,0 4.61,-0.57 4.79,1.09 0.22,2 -2.49,1.48 -4.19,1.48 -1.55,0 -4.55,0.53 -4.77,-1.07zm7.49 -7.95c1.85,0.09 1.86,2.01 0.69,2.46l-14.44 0.12c-1.76,-0.09 -2.04,-1.96 -0.52,-2.49l14.26 -0.09zm-14.49 -6.28c0.49,-0.26 10.77,-0.29 11.39,-0.03 1,0.41 0.94,2 -0.06,2.34 -0.39,0.13 -10.68,0.25 -11.32,-0.02 -0.97,-0.4 -1.05,-1.74 -0.02,-2.3zm39.08 -11.21c0.18,-0.34 0.33,-8.49 -0.24,-10.08 -0.2,-0.55 -0.31,-0.7 -0.63,-1.18l-0.87 -0.87 -25.21 0.01c-0.05,2.78 -0.01,5.55 -0.01,8.29 0,3.37 -0.04,4.59 -1.94,6.56 -3.3,3.43 -9.66,1.09 -14.8,1.95 0,4.15 0,8.31 0,12.47 0,0.99 -0.07,2.22 -0.01,3.18 0.04,0.63 0.17,0.63 0.53,0.92 3.66,2.97 7.64,6.59 11.23,9.44 0.61,0.49 1.1,0.96 1.71,1.45 0.64,0.51 1.07,0.88 1.72,1.44 1.06,0.92 2.32,2.03 3.41,2.81 1.39,-1.01 2.13,-1.77 4.58,-1.86l0 -20.71c-0.1,-0.53 -0.52,-0.35 -1.18,-0.79 -2.2,-1.47 -0.66,-3.3 -2.17,-4.17 -3.33,-1.91 -0.94,-5.09 -1.04,-5.73 -0.09,-0.55 -1.13,-1.43 -0.63,-3.25 0.41,-1.5 0.98,-1.51 1.96,-2.26 0.83,-0.63 0.13,-1.96 1.05,-3.18 0.62,-0.82 1.44,-1.37 2.77,-1.45 1.85,-0.1 1.11,-0.91 2.28,-1.8 0.78,-0.59 2.06,-0.98 3.25,-0.57 0.6,0.2 0.96,0.63 1.55,0.58 0.45,-0.04 2.7,-1.77 4.69,0.12 1.22,1.16 0.35,1.52 2.41,1.67 1.28,0.1 2.12,0.84 2.62,1.6 0.86,1.33 0.03,2.38 1.13,3.09 0.97,0.63 1.43,1.08 1.84,2.3z"/>
   <path class="fil2" d="M33.45 51.81c-1.08,0.06 -1.7,0.31 -2.37,0.85 -0.57,0.46 -1.21,0.98 -1.73,1.44l-6.88 5.79c-3.88,3.34 -8.37,6.86 -12.14,10.2 -0.89,0.79 -4.73,3.73 -5.08,4.43 1.97,0.35 4.99,0.17 7.12,0.17 7.63,0 48.43,0.31 49.36,-0.29 -0.84,-0.93 -2.32,-1.97 -3.33,-2.87l-9.83 -8.25c-1.34,1.28 -2.66,1.62 -4.15,0.2 -0.75,-0.72 -2.55,-2.4 -3.05,-3.13 -1.38,0.63 -4.84,6.48 -7.37,2.98 -1.14,-1.58 -0.2,-8.95 -0.55,-11.52z"/>
   <path class="fil3" d="M3.17 72.67c0.52,-0.36 0.95,-0.74 1.48,-1.18l22.17 -18.68c-0.56,-0.74 -16.36,-13.74 -18.13,-15.32 -1.04,-0.93 -1.98,-1.62 -3.03,-2.55l-3.05 -2.48 -0 30.62c0,2.02 -0.44,8.41 0.57,9.6z"/>
   <path class="fil3" d="M61.76 70.83c0.35,-0.89 0.1,-35.82 -0.05,-36.08 -0.5,0.15 -10.3,8.52 -11.7,9.69 -0.43,0.36 -1.01,0.69 -1.07,1.29l0 14.46c0.38,0.42 1.08,0.93 1.52,1.32l4.82 4.08c0.76,0.68 5.83,5.09 6.47,5.26z"/>
   <path class="fil4" d="M36.07 61.73c0.59,-0.36 1.74,-1.64 2.32,-2.21 0.62,-0.62 1.4,-1.77 2.8,-1.78 1.94,-0.01 3.93,3.04 5.14,3.95l0.04 -31.87c-0.04,0.02 -0.09,0.02 -0.11,0.07 -0.02,0.06 -0.08,0.06 -0.11,0.07 -0.11,0.07 -0.19,0.14 -0.3,0.21 -0.21,0.14 -0.29,0.21 -0.56,0.35 -2.05,1.05 -3.33,-0.39 -4.11,-0.38 -0.69,0.01 -1.22,0.83 -2.7,0.75 -1.11,-0.06 -1.87,-0.63 -2.39,-1.13l-0.03 31.96z"/>
   <path class="fil5" d="M40.23 10.39c4.47,-0.67 8.08,2.7 8.63,6.52 0.67,4.61 -2.66,8.2 -6.57,8.76 -4.56,0.65 -8.19,-2.72 -8.71,-6.57 -0.64,-4.71 2.71,-8.12 6.65,-8.71zm-6.63 0.1c-0.51,1.9 0.04,2.8 -1.58,3.87 -0.62,0.41 -1.33,0.57 -0.98,1.51 0.71,1.92 1.23,1.54 0.04,4.2 -0.68,1.52 1.07,0.82 2.09,3.04 0.34,0.74 0.24,1.72 0.44,2.44 0.86,0.38 2.79,0.01 3.86,1.55 0.36,0.52 0.54,1.33 1.39,1.18 0.9,-0.16 1.75,-1.51 4.18,-0.25 1.05,0.55 1.2,0.28 1.68,-0.52 0.32,-0.52 0.81,-1.04 1.37,-1.35 0.87,-0.47 1.56,-0.23 2.37,-0.46 0.91,-0.62 0.28,-1.63 0.94,-2.87 0.63,-1.19 1.34,-1.1 2.05,-1.83 0.16,-1.34 -0.7,-1.39 -0.73,-2.91 -0.03,-1.63 0.88,-1.7 0.73,-3.06 -0.85,-0.6 -1.43,-0.84 -1.93,-1.63 -0.65,-1.02 -0.39,-2.56 -0.83,-2.94 -0.61,-0.51 -2.34,0.29 -3.78,-1.66 -0.3,-0.41 -0.4,-0.89 -0.93,-1.03 -0.65,-0.17 -1.48,0.76 -2.79,0.75 -1.3,-0.01 -2.2,-1.03 -2.88,-0.71 -0.51,0.24 -0.71,1.31 -1.73,1.91 -1.25,0.73 -2.02,0.32 -2.98,0.76z"/>
   <path class="fil0" d="M40.62 12.93c6.64,-0.93 7.96,9.32 1.33,10.2 -6.69,0.89 -8.32,-9.22 -1.33,-10.2zm-0.4 -2.54c-3.94,0.59 -7.29,4 -6.65,8.71 0.52,3.85 4.15,7.22 8.71,6.57 3.91,-0.56 7.24,-4.14 6.57,-8.76 -0.55,-3.82 -4.16,-7.19 -8.63,-6.52z"/>
   <path class="fil6" d="M61.72 34.75c0.14,0.26 0.4,35.19 0.05,36.08 0.26,0.57 1.6,1.49 2.07,1.83 1.01,-1.14 0.57,-7.46 0.57,-9.44 0,-10.14 0.14,-20.73 -0.01,-30.76 -0.35,0.14 -1.04,0.78 -1.32,1.03 -0.55,0.5 -0.86,0.62 -1.36,1.25z"/>
   <path class="fil7" d="M54.02 14.7l0.01 1.59c0.23,0.19 0.11,3.47 0.01,3.47l-0.02 1.59c0.23,0.44 0.18,14.61 0.05,16.19 0.64,-0.25 1.55,-1.15 2.18,-1.67 0.41,-0.34 0.4,-0.22 0.44,-0.86 0.1,-1.62 -0.01,-3.63 -0.01,-5.29l0 -20.98c0,-2.7 0.25,-6.12 -4.4,-6.18l0.87 0.87c0.32,0.48 0.44,0.63 0.63,1.18 0.57,1.59 0.42,9.74 0.24,10.08z"/>
   <path class="fil3" d="M40.62 12.93c-6.99,0.98 -5.36,11.08 1.33,10.2 6.63,-0.88 5.31,-11.13 -1.33,-10.2z"/>
   <path class="fil8" d="M54.07 37.55c0.12,-1.58 0.18,-15.75 -0.05,-16.19 -1.03,2.92 -2.35,1.48 -2.46,3.53 -0.11,2 -1.02,2.72 -2.59,3.4l-0.02 13.6c0.63,-0.37 4.84,-3.85 5.12,-4.34z"/>
   <path class="fil9" d="M12.22 16.73l8.04 0.01c2.6,0 4.23,-1.55 4.23,-4.22l-0.01 -8.02c-0.74,0.41 -7.63,7.5 -9.22,9.09 -0.73,0.73 -2.59,2.41 -3.04,3.13z"/>
   <path class="fil0" d="M15.17 32.28c-1.53,0.53 -1.24,2.4 0.52,2.49l14.44 -0.12c1.16,-0.45 1.16,-2.38 -0.69,-2.46l-14.26 0.09z"/>
   <path class="fil0" d="M14.93 25.91c-1.03,0.55 -0.95,1.89 0.02,2.3 0.64,0.26 10.93,0.15 11.32,0.02 1,-0.34 1.06,-1.93 0.06,-2.34 -0.63,-0.26 -10.9,-0.23 -11.39,0.03z"/>
   <path class="fil0" d="M21.94 40.14c0.22,1.6 3.23,1.07 4.77,1.07 1.7,0 4.41,0.52 4.19,-1.48 -0.18,-1.66 -3.27,-1.09 -4.79,-1.09 -1.59,0 -4.44,-0.52 -4.17,1.51z"/>
   <path class="fil4" d="M3.36 29.59c0.68,0.71 1.36,1.17 2.06,1.81 0.44,0.4 1.75,1.56 2.32,1.84l-0 -7.24c-0.79,0.44 -1.43,1.13 -2.19,1.74 -0.74,0.6 -1.53,1.26 -2.19,1.85z"/>
   <path class="fil4" d="M59.25 33.24l4.38 -3.65c-0.61,-0.56 -1.39,-1.22 -2.1,-1.78 -0.71,-0.57 -1.52,-1.39 -2.24,-1.81l-0.04 7.24z"/>
   <path class="fil10" d="M54.04 19.77c0.1,-0 0.22,-3.28 -0.01,-3.47 -1.02,2.51 -0.93,1.01 0.01,3.47z"/>
  </g>
 </g>
</svg>
