<?xml version="1.0" encoding="UTF-8"?>
<!DOCTYPE svg PUBLIC "-//W3C//DTD SVG 1.1//EN" "http://www.w3.org/Graphics/SVG/1.1/DTD/svg11.dtd">
<!-- Creator: CorelDRAW 2020 (64-Bit) -->
<svg xmlns="http://www.w3.org/2000/svg" xml:space="preserve" width="9.1821mm" height="9.4548mm" version="1.1" style="shape-rendering:geometricPrecision; text-rendering:geometricPrecision; image-rendering:optimizeQuality; fill-rule:evenodd; clip-rule:evenodd"
viewBox="0 0 13.2 13.59"
 xmlns:xlink="http://www.w3.org/1999/xlink"
 xmlns:xodm="http://www.corel.com/coreldraw/odm/2003">
 <defs>
  <style type="text/css">
   <![CDATA[
    .fil1 {fill:black}
    .fil9 {fill:#72CA00}
    .fil5 {fill:#73CC00}
    .fil3 {fill:#76DC00}
    .fil8 {fill:#A6E639}
    .fil6 {fill:#A8E83A}
    .fil10 {fill:#B5F74B}
    .fil7 {fill:#EA5629}
    .fil4 {fill:#ED5729}
    .fil12 {fill:#F2F2F2}
    .fil2 {fill:#FE6D3A}
    .fil0 {fill:#FEB025}
    .fil11 {fill:#FF901D}
   ]]>
  </style>
 </defs>
 <g id="Capa_x0020_1">
  <metadata id="CorelCorpID_0Corel-Layer"/>
  <path class="fil0" d="M1.64 11.98l0.87 -0.04c0.06,-0.18 0.13,-0.16 0.37,-0.16l8.25 0 0 -0.85c-0.29,0 -0.76,0.07 -0.98,-0.07 -0.82,-0.13 -1.52,-0.86 -1.26,-1.84 0.12,-0.45 0.42,-0.74 0.74,-0.91 0.42,-0.22 0.95,-0.17 1.46,-0.17l0.04 -0.91 -10.72 0 0 4.72c0.35,0.06 1.11,-0.14 1.23,0.22z"/>
  <path class="fil1" d="M10.14 8.39c0.15,-0.09 0.41,-0.06 0.59,-0.06l1.81 -0c0.3,0.01 0.25,0.03 0.25,0.36l-0.01 1.78c-0.33,0.07 -1.23,0.03 -1.62,0.03 -0.52,0 -1.15,0.1 -1.45,-0.23 -0.3,-0.1 -0.57,-0.63 -0.44,-1.13 0.09,-0.36 0.48,-0.79 0.88,-0.75zm0.01 2.48l1.99 0.01 0.01 0.91 -1.02 0 -8.25 -0c-0.24,0 -0.31,-0.02 -0.37,0.16l0.04 0.23 8.58 0 1.02 0c0,0.76 0.04,1.01 -0.78,1.01 -3.42,-0.02 -6.95,0.04 -10.34,0 -0.48,-0.01 -0.62,-0.19 -0.63,-0.62 -0.01,-0.44 0.03,-0.34 0.1,-0.38 0.32,-0.03 1.03,0.14 1.14,-0.2 -0.12,-0.36 -0.88,-0.16 -1.23,-0.22l0 -4.72 10.72 -0 1.02 0.02 -0 0.88 -1.05 0c-0.51,-0 -1.05,-0.05 -1.46,0.17 -0.32,0.17 -0.62,0.46 -0.74,0.91 -0.26,0.99 0.44,1.72 1.26,1.84zm-9.68 -4.87c0.01,-0.25 0.07,-0.29 0.33,-0.31 0.17,-0.14 8,-0.05 9.3,-0.05 1.63,0 2.21,-0.26 2.04,1.01l-11.71 -0.01c-0.02,-0.11 -0.03,-0.23 -0.02,-0.34 0,-0.2 -0.02,-0.19 0.07,-0.3zm10.65 -1.1l0.09 0 0.16 0c0.29,0 0.39,0.07 0.41,0.36l-0.92 -0.01 0.25 -0.35zm-4.94 0.36c0.18,-1.42 2.19,-1.49 2.4,0l-2.4 -0zm-5.27 0c0.04,-0.45 0.23,-0.36 0.71,-0.36l-0.01 0.36 -0.69 0zm6 -3.04c0.07,-0.17 0.1,-0.18 0.16,-0.33 0.2,-0.02 0.41,-0 0.59,-0.04 0.13,-0.03 0.35,-0.13 0.42,-0.13 0.13,0 1.22,0.8 1.43,0.92 0.25,0.16 0.46,0.34 0.69,0.46 -0.01,0.26 0,0.5 0.08,0.73 0.12,0.34 0.11,0.3 -0.07,0.56 -0.27,0.37 -0.47,0.82 -0.74,0.86l-0.48 -0.02c-0.19,-0.5 -0.19,-0.77 -0.53,-1.05 -0.89,-0.75 -2.14,-0.39 -2.54,0.54 -0.27,0.63 0.22,0.53 -1.09,0.53l1.56 -2.34c0.1,-0.15 0.17,-0.24 0.26,-0.38 0.1,-0.15 0.16,-0.29 0.25,-0.32zm0.39 -0.72c-0.37,-0.02 -0.43,0.03 -0.6,0.29l-1.05 1.55c-0.25,0.35 -0.46,0.69 -0.71,1.04 -0.47,0.67 -0.48,0.9 -0.87,0.86l2.78 -4.08c0.07,-0.13 0.34,-0.56 0.42,-0.66 0.22,-0.25 0.44,-0.03 0.66,0.12l3.71 2.53c0.04,0.39 -0.33,0.71 -0.64,1.19 -0.12,0.19 -0.22,0.33 -0.36,0.54 -0.17,0.25 -0.17,0.4 -0.53,0.36 0.23,-0.51 0.76,-0.87 0.61,-1.32 -0.32,-0.96 0.15,-0.83 -0.69,-1.38 -2.81,-1.85 -1.33,-1.08 -2.74,-1.05zm-1.21 0.04l-0.51 0.71c-0.09,0.22 -0.64,1.06 -0.82,1.17l-0.13 0.28c-0.06,0.1 -0.1,0.14 -0.15,0.22 -0.1,0.14 -0.2,0.29 -0.3,0.44 -0.19,0.27 -0.46,0.63 -0.58,0.89l-0.97 -0.01 0.2 -2.04c0.06,-0.44 0.09,-0.29 0.4,-0.49 0.14,-0.09 0.33,-0.3 0.4,-0.44 0.32,0.01 0.65,0.05 0.97,0.09 0.59,0.06 0.64,0.14 0.78,-0.11 -0.06,-0.28 -0.3,-0.23 -0.6,-0.26 -0.26,-0.02 -0.52,-0.05 -0.78,-0.08 -0.86,-0.09 -0.54,0.29 -1.16,0.58 -0.27,0.14 -0.33,0.15 -0.37,0.52l-0.16 1.59c-0.04,0.45 0.02,0.69 -0.21,0.65 -0.14,-0.08 -0.1,-0.01 -0.08,-0.29 0.01,-0.13 0.03,-0.27 0.04,-0.4l0.22 -2.19c0.1,-1.23 -0.17,-1.04 1.98,-0.83 0.3,0.03 0.61,0.06 0.91,0.09 0.29,0.03 0.63,0.16 0.64,-0.19 -0.09,-0.18 -0.1,-0.15 -0.37,-0.18 -3.62,-0.33 -3.36,-0.73 -3.58,1.41 -0.06,0.6 -0.14,1.23 -0.18,1.83 -0.53,0 -1.03,-0.01 -1.13,0.51 -0.1,0.52 0.01,0.22 -0.31,0.54 -0.16,0.17 -0.2,0.32 -0.21,0.58 -0.05,1.04 -0,2.19 -0,3.24 0,4.49 -0.41,4.19 2.28,4.19 0.77,0 9.32,0.06 9.65,-0.05 0.9,-0.3 0.49,-1.67 0.59,-2.64 0.8,-0 0.62,-0.48 0.62,-1.5 0,-0.77 0.22,-1.43 -0.63,-1.44 -0.01,-0.48 0.07,-1.92 -0.1,-2.23 -0.09,-0.15 -0.2,-0.18 -0.25,-0.33 -0.05,-0.17 -0,-0.32 -0.09,-0.5 -0.13,-0.29 -0.32,-0.34 -0.71,-0.39 0.16,-0.29 0.49,-0.65 0.62,-0.95 0.22,-0.53 -0.25,-0.77 -0.52,-0.95 -0.48,-0.33 -3.56,-2.48 -3.8,-2.56 -0.75,-0.24 -0.97,0.85 -1.58,1.51z"/>
  <path class="fil2" d="M0.47 6l0.03 0.57 10.63 0c0,-0.34 0.05,-0.6 -0.13,-0.85 -0.6,-0 -9.89,0.05 -10.21,-0.03 -0.25,0.01 -0.32,0.06 -0.33,0.31z"/>
  <path class="fil2" d="M1.64 11.98c-0.12,0.34 -0.82,0.17 -1.14,0.2l-0.01 0.5c0.37,0.26 1.95,0.14 2.55,0.14 1.04,0 7.59,0.05 8.03,-0.02 0.08,-0.2 0.05,-0.4 0.05,-0.63l-8.58 -0 -0.04 -0.23 -0.87 0.04z"/>
  <path class="fil3" d="M9.47 5.26c0.16,-0.33 0.19,-0.24 0.04,-0.64 -0.12,-0.32 -0.05,-0.45 -0.1,-0.75 -0.02,-0.05 -2.24,-1.67 -2.5,-1.64 -0.09,0.03 -0.15,0.18 -0.25,0.32 -0.09,0.13 -0.16,0.22 -0.26,0.38l-1.56 2.34c1.31,0 0.82,0.09 1.09,-0.53 0.4,-0.93 1.65,-1.29 2.54,-0.54 0.34,0.29 0.34,0.56 0.53,1.05l0.48 0.02z"/>
  <path class="fil4" d="M11.13 12.18c0,0.23 0.03,0.43 -0.05,0.63 -0.45,0.07 -6.99,0.02 -8.03,0.02 -0.6,0 -2.18,0.12 -2.55,-0.14l0.01 -0.5c-0.07,0.04 -0.11,-0.06 -0.1,0.38 0.01,0.44 0.15,0.62 0.63,0.62 3.39,0.04 6.92,-0.02 10.34,-0 0.82,0 0.78,-0.25 0.78,-1.01l-1.02 -0z"/>
  <path class="fil5" d="M6.91 2.22c0.25,-0.02 2.47,1.59 2.5,1.64 0.05,0.31 -0.02,0.44 0.1,0.75 0.15,0.4 0.12,0.31 -0.04,0.64 0.27,-0.03 0.47,-0.49 0.74,-0.86 0.19,-0.26 0.19,-0.22 0.07,-0.56 -0.08,-0.23 -0.09,-0.47 -0.08,-0.73 -0.23,-0.12 -0.44,-0.3 -0.69,-0.46 -0.2,-0.13 -1.29,-0.92 -1.43,-0.92 -0.07,-0 -0.29,0.1 -0.42,0.13 -0.19,0.04 -0.4,0.02 -0.59,0.04 -0.07,0.15 -0.09,0.15 -0.16,0.33z"/>
  <path class="fil6" d="M6.85 1.17l0.45 0.34c1.41,-0.04 -0.08,-0.81 2.74,1.05 0.84,0.55 0.37,0.42 0.69,1.38 0.15,0.44 -0.38,0.8 -0.61,1.32 0.36,0.05 0.35,-0.1 0.53,-0.36 0.14,-0.21 0.24,-0.35 0.36,-0.54 0.31,-0.48 0.67,-0.8 0.64,-1.19l-3.71 -2.53c-0.21,-0.15 -0.43,-0.37 -0.66,-0.12 -0.08,0.09 -0.36,0.53 -0.42,0.66z"/>
  <path class="fil7" d="M0.47 6c-0.09,0.12 -0.06,0.1 -0.07,0.3 -0,0.12 0.01,0.23 0.02,0.34l11.71 0.01c0.17,-1.28 -0.41,-1.01 -2.04,-1.01 -1.3,0 -9.13,-0.09 -9.3,0.05 0.31,0.08 9.6,0.03 10.21,0.03 0.18,0.25 0.13,0.51 0.13,0.85l-10.63 0 -0.03 -0.57z"/>
  <path class="fil3" d="M4.77 3.43c-0.15,-0.11 -1.64,-0.2 -1.94,-0.22l-0.2 2.04 0.97 0.01c0.12,-0.27 0.39,-0.62 0.58,-0.89 0.1,-0.14 0.2,-0.29 0.3,-0.44 0.05,-0.08 0.09,-0.12 0.15,-0.22l0.13 -0.28z"/>
  <path class="fil2" d="M10.11 8.68c0.99,-0.36 1.45,1.17 0.49,1.47 -0.99,0.31 -1.48,-1.11 -0.49,-1.47zm-0.41 1.58c0.36,0.06 1.75,0.29 1.97,-0 0.19,-0.19 0.09,-1.48 0.09,-1.84l-1.62 -0.04c-0.4,-0.04 -0.79,0.38 -0.88,0.75 -0.13,0.5 0.14,1.03 0.44,1.13z"/>
  <path class="fil4" d="M9.71 10.27c0.3,0.33 0.93,0.23 1.45,0.23 0.39,0 1.29,0.04 1.62,-0.03l0.01 -1.78c0.01,-0.33 0.06,-0.35 -0.25,-0.36l-1.81 0c-0.18,-0 -0.44,-0.03 -0.59,0.06l1.62 0.04c0,0.36 0.1,1.65 -0.09,1.84 -0.22,0.29 -1.61,0.06 -1.97,0z"/>
  <path class="fil8" d="M2.28 2.38c0.09,0.01 0.24,0.01 0.31,0.02 0.05,0.01 0.08,0.01 0.13,0.03 0.15,0.06 0.01,-0.03 0.11,0.06 0.62,-0.3 0.29,-0.67 1.16,-0.58 0.26,0.03 0.52,0.06 0.78,0.08 0.3,0.03 0.55,-0.03 0.6,0.26l0.22 0 0.51 -0.71 -0.29 -0.09c-0.01,0.35 -0.34,0.22 -0.64,0.19 -0.3,-0.03 -0.61,-0.06 -0.91,-0.09 -2.15,-0.22 -1.88,-0.41 -1.98,0.83z"/>
  <path class="fil9" d="M2.82 3.21c0.3,0.02 1.79,0.11 1.94,0.22 0.18,-0.11 0.73,-0.96 0.82,-1.17l-0.22 -0c-0.13,0.25 -0.19,0.17 -0.78,0.11 -0.32,-0.03 -0.65,-0.07 -0.97,-0.09 -0.07,0.14 -0.26,0.34 -0.4,0.44 -0.3,0.2 -0.34,0.05 -0.4,0.49z"/>
  <path class="fil10" d="M6.18 5.26l2.4 0c-0.2,-1.49 -2.22,-1.43 -2.4,-0z"/>
  <path class="fil1" d="M10.24 9.04c0.54,-0.15 0.7,0.66 0.21,0.76 -0.52,0.1 -0.69,-0.62 -0.21,-0.76zm-0.13 -0.36c-0.99,0.36 -0.5,1.79 0.49,1.47 0.95,-0.3 0.5,-1.84 -0.49,-1.47z"/>
  <path class="fil10" d="M7.3 1.51l-0.45 -0.34 -2.78 4.08c0.39,0.04 0.41,-0.19 0.87,-0.86 0.25,-0.36 0.46,-0.69 0.71,-1.04l1.05 -1.55c0.17,-0.26 0.23,-0.31 0.6,-0.29z"/>
  <path class="fil11" d="M11.13 11.79l1.02 -0 -0.01 -0.91 -1.99 -0.01c0.22,0.14 0.69,0.07 0.98,0.07l0 0.85z"/>
  <polygon class="fil11" points="11.09,7.95 12.15,7.94 12.15,7.06 11.13,7.04 "/>
  <path class="fil10" d="M2.83 2.5c-0.1,-0.09 0.03,-0.01 -0.11,-0.06 -0.05,-0.02 -0.07,-0.02 -0.13,-0.03 -0.08,-0.01 -0.23,-0.02 -0.31,-0.02l-0.22 2.19c-0.01,0.13 -0.03,0.27 -0.04,0.4 -0.03,0.28 -0.06,0.21 0.08,0.29 0.23,0.04 0.17,-0.2 0.21,-0.65l0.16 -1.59c0.05,-0.37 0.1,-0.38 0.37,-0.52z"/>
  <path class="fil12" d="M10.24 9.04c-0.48,0.14 -0.31,0.86 0.21,0.76 0.49,-0.09 0.34,-0.91 -0.21,-0.76z"/>
  <path class="fil0" d="M10.87 5.25l0.92 0.01c-0.02,-0.29 -0.13,-0.36 -0.41,-0.36l-0.16 0 -0.09 0 -0.25 0.35z"/>
  <path class="fil0" d="M0.91 5.26l0.69 -0 0.01 -0.36c-0.47,-0 -0.67,-0.09 -0.71,0.36z"/>
 </g>
</svg>
