<?xml version="1.0" encoding="UTF-8" standalone="no"?>
<svg
   xmlns:dc="http://purl.org/dc/elements/1.1/"
   xmlns:cc="http://creativecommons.org/ns#"
   xmlns:rdf="http://www.w3.org/1999/02/22-rdf-syntax-ns#"
   xmlns:svg="http://www.w3.org/2000/svg"
   xmlns="http://www.w3.org/2000/svg"
   xmlns:sodipodi="http://sodipodi.sourceforge.net/DTD/sodipodi-0.dtd"
   xmlns:inkscape="http://www.inkscape.org/namespaces/inkscape"
   id="Layer_1"
   enable-background="new 0 0 256 256"
   height="512"
   viewBox="0 0 256 256"
   width="512"
   version="1.1"
   sodipodi:docname="inteligencia-de-negocio.svg"
   inkscape:version="1.0.1 (3bc2e813f5, 2020-09-07)">
  <metadata
     id="metadata59">
    <rdf:RDF>
      <cc:Work
         rdf:about="">
        <dc:format>image/svg+xml</dc:format>
        <dc:type
           rdf:resource="http://purl.org/dc/dcmitype/StillImage" />
      </cc:Work>
    </rdf:RDF>
  </metadata>
  <defs
     id="defs57">
			
			
			
			
			
			
			
			
			
			
			
			
			
			
			
			
			
		
	
	

		
		
		
	
		
	
			
		</defs>
  <sodipodi:namedview
     pagecolor="#ffffff"
     bordercolor="#666666"
     borderopacity="1"
     objecttolerance="10"
     gridtolerance="10"
     guidetolerance="10"
     inkscape:pageopacity="0"
     inkscape:pageshadow="2"
     inkscape:window-width="1920"
     inkscape:window-height="1051"
     id="namedview55"
     showgrid="false"
     inkscape:zoom="0.41748047"
     inkscape:cx="548.12416"
     inkscape:cy="319.01484"
     inkscape:window-x="0"
     inkscape:window-y="0"
     inkscape:window-maximized="1"
     inkscape:current-layer="Layer_1" />
  <path
     d="m 251.75,81.63 v 139.81 c 0,5.78 -4.69,10.47 -10.47,10.47 H 14.72 c -5.78,0 -10.47,-4.69 -10.47,-10.47 V 81.63 c 0,-5.78 4.69,-10.46 10.47,-10.46 h 226.56 c 5.78,0 10.47,4.68 10.47,10.46 z"
     fill="#72c1e8"
     id="path2"
     style="fill:#aad400;stroke-width:1" />
  <g
     fill="#c5e5ff"
     id="g12"
     style="fill:#e3dbdb">
    <path
       d="m 24,222.41 h -7.75 c -1.381,0 -2.5,-1.119 -2.5,-2.5 0,-1.381 1.119,-2.5 2.5,-2.5 H 24 c 1.381,0 2.5,1.119 2.5,2.5 0,1.381 -1.119,2.5 -2.5,2.5 z"
       id="path4"
       style="fill:#e3dbdb" />
    <path
       d="M 101,222.41 H 49.67 c -1.381,0 -2.5,-1.119 -2.5,-2.5 0,-1.381 1.119,-2.5 2.5,-2.5 H 101 c 1.381,0 2.5,1.119 2.5,2.5 0,1.381 -1.119,2.5 -2.5,2.5 z"
       id="path6"
       style="fill:#e3dbdb" />
    <path
       d="m 206.33,222.41 h -55.897 c -1.381,0 -2.5,-1.119 -2.5,-2.5 0,-1.381 1.119,-2.5 2.5,-2.5 h 55.897 c 1.381,0 2.5,1.119 2.5,2.5 0,1.381 -1.119,2.5 -2.5,2.5 z"
       id="path8"
       style="fill:#e3dbdb" />
    <path
       d="m 241,222.41 h -9 c -1.381,0 -2.5,-1.119 -2.5,-2.5 0,-1.381 1.119,-2.5 2.5,-2.5 h 6.5 V 98.17 c 0,-1.381 1.119,-2.5 2.5,-2.5 1.381,0 2.5,1.119 2.5,2.5 v 121.74 c 0,1.381 -1.119,2.5 -2.5,2.5 z m 0,-131.74 c -1.381,0 -2.5,-1.119 -2.5,-2.5 v -5 c 0,-1.381 1.119,-2.5 2.5,-2.5 1.381,0 2.5,1.119 2.5,2.5 v 5 c 0,1.381 -1.119,2.5 -2.5,2.5 z"
       id="path10"
       style="fill:#e3dbdb" />
  </g>
  <path
     d="M 157.444,24.092 H 98.556 c -10.099,0 -18.316,8.217 -18.316,18.316 v 28.76 h 15.7 v -28.76 c 0,-1.443 1.174,-2.617 2.617,-2.617 h 58.887 c 1.443,0 2.617,1.173 2.617,2.617 v 28.76 H 175.76 V 42.408 C 175.759,32.309 167.543,24.092 157.444,24.092 Z"
     fill="#afafaf"
     id="path14" />
  <path
     d="m 23.998,71.17 h 25.67 v 160.74 h -25.67 z"
     fill="#fc5d3d"
     id="path26"
     style="fill:#aa0000" />
  <path
     d="m 36.833,222.41 c -1.381,0 -2.5,-1.119 -2.5,-2.5 v -5 c 0,-1.381 1.119,-2.5 2.5,-2.5 1.381,0 2.5,1.119 2.5,2.5 v 5 c 0,1.381 -1.12,2.5 -2.5,2.5 z m 0,-15 c -1.381,0 -2.5,-1.119 -2.5,-2.5 V 84.746 c 0,-1.381 1.119,-2.5 2.5,-2.5 1.381,0 2.5,1.119 2.5,2.5 V 204.91 c 0,1.381 -1.12,2.5 -2.5,2.5 z"
     fill="#ffcbc2"
     id="path28"
     style="fill:#ff8080" />
  <path
     d="m 206.333,71.17 h 25.67 v 160.74 h -25.67 z"
     fill="#fc5d3d"
     id="path30"
     style="fill:#aa0000" />
  <path
     d="m 219.167,222.41 c -1.381,0 -2.5,-1.119 -2.5,-2.5 v -5 c 0,-1.381 1.119,-2.5 2.5,-2.5 1.381,0 2.5,1.119 2.5,2.5 v 5 c 0,1.381 -1.119,2.5 -2.5,2.5 z m 0,-15 c -1.381,0 -2.5,-1.119 -2.5,-2.5 V 84.746 c 0,-1.381 1.119,-2.5 2.5,-2.5 1.381,0 2.5,1.119 2.5,2.5 V 204.91 c 0,1.381 -1.119,2.5 -2.5,2.5 z"
     fill="#ffcbc2"
     id="path32"
     style="fill:#ff8080" />
  <path
     d="m 172.42,34.359 c 0.51,0 1.01,-0.149 1.44,-0.449 0.54,-0.391 0.9,-0.96 1.02,-1.62 0.11,-0.66 -0.04,-1.32 -0.42,-1.87 -0.77,-1.08 -2.4,-1.37 -3.49,-0.601 -0.55,0.391 -0.91,0.961 -1.02,1.62 -0.11,0.66 0.03,1.32 0.42,1.86 v 0.01 c 0.47,0.661 1.23,1.05 2.05,1.05 z"
     id="path38" />
  <path
     d="M 241.284,68.668 H 178.26 V 42.41 c 0,-0.46 -0.02,-0.931 -0.05,-1.41 -0.09,-1.36 -1.26,-2.41 -2.66,-2.32 -1.357,0.082 -2.414,1.256 -2.33,2.66 0.03,0.35 0.04,0.71 0.04,1.07 v 26.258 h -10.7 v -26.26 c 0,-2.821 -2.295,-5.116 -5.116,-5.116 H 98.556 c -2.821,0 -5.116,2.295 -5.116,5.116 v 26.26 H 82.74 V 42.41 C 82.76,33.7 89.85,26.609 98.56,26.59 h 58.88 c 2.2,0 4.33,0.45 6.32,1.32 1.24,0.54 2.76,-0.061 3.3,-1.29 0.55,-1.261 -0.03,-2.74 -1.29,-3.29 -2.63,-1.15 -5.43,-1.74 -8.31,-1.74 H 98.56 C 87.08,21.6 77.75,30.94 77.74,42.41 V 68.668 H 14.716 C 7.567,68.668 1.75,74.484 1.75,81.635 v 139.807 c 0,7.15 5.817,12.967 12.966,12.967 h 226.567 c 7.149,0 12.966,-5.816 12.966,-12.967 V 81.635 c 0.001,-7.151 -5.816,-12.967 -12.965,-12.967 z m -11.782,160.74 h -20.67 V 73.67 h 20.67 z m -25.669,0 H 52.17 V 73.668 H 203.833 Z M 98.44,42.408 c 0,-0.062 0.054,-0.116 0.116,-0.116 h 58.888 c 0.062,0 0.116,0.055 0.116,0.116 v 26.26 H 98.44 Z M 6.75,221.441 V 81.635 c 0,-4.393 3.574,-7.967 7.966,-7.967 H 21.5 v 54.651 c 0,1.381 1.12,2.5 2.5,2.5 1.38,0 2.5,-1.119 2.5,-2.5 V 73.67 H 47.17 V 229.408 H 26.5 v -81.089 c 0,-1.38 -1.12,-2.5 -2.5,-2.5 -1.38,0 -2.5,1.12 -2.5,2.5 v 81.089 h -6.784 c -4.392,0 -7.966,-3.574 -7.966,-7.967 z m 242.5,0 c 0,4.393 -3.574,7.967 -7.966,7.967 h -6.781 V 73.668 h 6.781 c 4.393,0 7.966,3.574 7.966,7.967 z"
     id="path40" />
  <circle
     cx="24"
     cy="138.319"
     r="2.5"
     id="circle46" />
  <path
     id="XMLID_1522_"
     style="fill:#b3b3b3;stroke-width:0.206574"
     d="m 114.3661,132.18454 v -10.91372 c 0,-7.48191 5.94128,-13.72521 13.42216,-13.83923 7.61432,-0.1161 13.84563,6.04415 13.84563,13.63244 v 0 c 0,0.79862 0.64741,1.44602 1.44602,1.44602 h 5.6118 c 0.66558,0 1.20515,-0.53957 1.20515,-1.20515 v 0 c 0,-12.08294 -9.68626,-22.068112 -21.76899,-22.137314 -12.13252,-0.06982 -22.02473,9.779844 -22.02473,21.896444 v 16.0095 z" />
  <path
     id="XMLID_1527_"
     style="fill:#ff6600;stroke-width:0.206574"
     d="m 128,129.74015 v 0 c -19.6231,0 -35.530758,15.90766 -35.530758,35.53076 v 0 c 0,19.6231 15.907658,35.53075 35.530758,35.53075 v 0 c 19.6231,0 35.53076,-15.90765 35.53076,-35.53075 v 0 c 0,-19.6231 -15.90766,-35.53076 -35.53076,-35.53076 z" />
  <circle
     id="XMLID_1579_"
     style="fill:#ffffff;stroke-width:0.206574"
     cx="128.02623"
     cy="165.2709"
     r="24.375751" />
  <path
     id="XMLID_1232_"
     d="m 128,127.67441 c -3.94391,0 -7.85085,0.62881 -11.56815,1.83107 v -8.23446 c 0,-6.39636 5.10858,-11.67805 11.38781,-11.77369 3.12629,-0.0502 6.0646,1.1345 8.29251,3.32853 2.22873,2.19485 3.45598,5.12056 3.45598,8.23817 0,1.93643 1.57534,3.51177 3.51176,3.51177 h 5.6118 c 1.8036,0 3.27089,-1.4673 3.27089,-3.2709 0,-13.27032 -10.6869,-24.127656 -23.82275,-24.203056 -6.41991,-0.03326 -12.46572,2.440674 -17.0275,6.976216 -4.56239,4.53616 -7.07495,10.56854 -7.07495,16.98597 v 15.23671 c -6.266432,5.19121 -10.735251,12.34983 -12.61177,20.22836 -0.264209,1.10992 0.421204,2.22377 1.530921,2.48819 1.110749,0.26462 2.223771,-0.42121 2.488186,-1.53092 C 99.045944,142.36596 112.43319,131.80589 128,131.80589 c 18.45265,0 33.46502,15.01237 33.46502,33.46502 0,18.45265 -15.01237,33.46501 -33.46502,33.46501 -15.57074,0 -28.958807,-10.56337 -32.557123,-25.68832 -0.264001,-1.11013 -1.378056,-1.79596 -2.487772,-1.53154 -1.109923,0.264 -1.795543,1.37785 -1.531541,2.48777 1.924032,8.08676 6.578148,15.41642 13.105066,20.63883 6.62896,5.30379 14.96465,8.22475 23.47137,8.22475 20.73075,0 37.5965,-16.86575 37.5965,-37.5965 0,-20.73075 -16.86575,-37.5965 -37.5965,-37.5965 z M 114.02526,107.0079 c 3.74829,-3.7268 8.70689,-5.77499 13.97412,-5.77499 0.0388,0 0.0779,0 0.11671,4.2e-4 10.58631,0.0607 19.25044,8.60071 19.69706,19.21098 h -4.12529 c -0.15431,-3.99969 -1.80112,-7.73021 -4.67663,-10.56193 -3.02259,-2.97694 -7.026,-4.58016 -11.25437,-4.51612 -8.52284,0.12993 -15.4565,7.2648 -15.4565,15.90476 v 9.8445 c -1.41999,0.65133 -2.80032,1.39128 -4.13148,2.21633 v -12.26782 c 0,-5.30936 2.07979,-10.30123 5.85638,-14.05613 z"
     style="stroke-width:0.206574" />
  <path
     id="XMLID_1231_"
     d="m 92.420904,167.33665 h 0.09688 c 1.140909,0 2.065742,-0.92483 2.065742,-2.06574 0,-1.14091 -0.924833,-2.06574 -2.065742,-2.06574 h -0.09688 c -1.140909,0 -2.065742,0.92483 -2.065742,2.06574 0,1.14091 0.924833,2.06574 2.065742,2.06574 z"
     style="stroke-width:0.206574" />
  <path
     id="XMLID_1230_"
     d="m 140.24902,144.07247 c 0.48442,-1.03287 0.0395,-2.26302 -0.99341,-2.74743 -10.0486,-4.71175 -22.07535,-2.60243 -29.92661,5.24884 -10.309497,10.3095 -10.309497,27.08435 0,37.39406 4.99414,4.99413 11.63426,7.74446 18.69703,7.74446 7.06277,0 13.70268,-2.75033 18.69703,-7.74446 7.87027,-7.87048 9.96947,-19.91892 5.22322,-29.98115 -0.48648,-1.03183 -1.71745,-1.4737 -2.7497,-0.98701 -1.03184,0.48669 -1.47371,1.71767 -0.98702,2.74971 4.00444,8.48999 2.23307,18.65613 -4.40808,25.29707 -8.69843,8.69864 -22.85248,8.69864 -31.5509,0 -8.69863,-8.69863 -8.69863,-22.85247 0,-31.5511 6.62483,-6.62504 16.77237,-8.40509 25.25101,-4.42957 1.03349,0.48421 2.26302,0.0395 2.74743,-0.99342 z"
     style="stroke-width:0.206574" />
  <path
     id="XMLID_1229_"
     d="m 136.35469,156.91044 c -0.80668,-0.80667 -2.1147,-0.80667 -2.92158,0 l -5.4391,5.4391 -9.77055,-9.77076 c -0.80667,-0.80667 -2.1147,-0.80667 -2.92157,0 -0.80668,0.80668 -0.80668,2.1147 0,2.92158 l 11.23143,11.23144 c 0.40344,0.40344 0.93207,0.60506 1.46069,0.60506 0.52862,0 1.05745,-0.20162 1.46068,-0.60506 l 6.89979,-6.89978 c 0.80688,-0.80688 0.80688,-2.11491 2.1e-4,-2.92158 z"
     style="stroke-width:0.206574" />
  <path
     id="XMLID_1226_"
     d="m 145.2634,150.1001 c 0.54329,0 1.07419,-0.22103 1.46048,-0.60526 0.38423,-0.38423 0.6032,-0.91719 0.6032,-1.46048 0,-0.54329 -0.21897,-1.07625 -0.6032,-1.46048 -0.38629,-0.38423 -0.91719,-0.60526 -1.46048,-0.60526 -0.54535,0 -1.07625,0.22103 -1.46048,0.60526 -0.38629,0.38423 -0.60526,0.91719 -0.60526,1.46048 0,0.54329 0.21897,1.07625 0.60526,1.46048 0.38423,0.38423 0.91513,0.60526 1.46048,0.60526 z"
     style="stroke-width:0.206574" />
  <path
     id="XMLID_1225_"
     d="m 127.98037,178.89716 c -1.1409,0 -2.06574,0.92483 -2.06574,2.06574 v 1.48878 c 0,1.14091 0.92484,2.06574 2.06574,2.06574 1.14091,0 2.06575,-0.92483 2.06575,-2.06574 v -1.48878 c 0,-1.14091 -0.92484,-2.06574 -2.06575,-2.06574 z"
     style="stroke-width:0.206574" />
  <path
     id="XMLID_1223_"
     d="m 130.04612,149.57891 v -1.48878 c 0,-1.14091 -0.92484,-2.06574 -2.06575,-2.06574 -1.1409,0 -2.06574,0.92483 -2.06574,2.06574 v 1.48878 c 0,1.14091 0.92484,2.06575 2.06574,2.06575 1.14091,0 2.06575,-0.92484 2.06575,-2.06575 z"
     style="stroke-width:0.206574" />
  <path
     id="XMLID_1213_"
     d="m 110.81943,163.18554 c -1.14091,0 -2.06574,0.92483 -2.06574,2.06574 0,1.14091 0.92483,2.06574 2.06574,2.06574 h 1.48878 c 1.14091,0 2.06574,-0.92483 2.06574,-2.06574 0,-1.14091 -0.92483,-2.06574 -2.06574,-2.06574 z"
     style="stroke-width:0.206574" />
  <path
     id="XMLID_1211_"
     d="m 141.62625,165.29053 c 0,1.14091 0.92483,2.06574 2.06574,2.06574 h 1.48878 c 1.14091,0 2.06574,-0.92483 2.06574,-2.06574 0,-1.14091 -0.92483,-2.06574 -2.06574,-2.06574 h -1.48878 c -1.14091,0 -2.06574,0.92483 -2.06574,2.06574 z"
     style="stroke-width:0.206574" />
  <path
     id="XMLID_1210_"
     d="m 170.55428,110.67439 c -1.14091,0 -2.06574,0.92483 -2.06574,2.06574 v 2.85299 c 0,1.14091 0.92483,2.06575 2.06574,2.06575 1.14091,0 2.06574,-0.92484 2.06574,-2.06575 v -2.85299 c 0,-1.14091 -0.92483,-2.06574 -2.06574,-2.06574 z"
     style="stroke-width:0.206574" />
  <path
     id="XMLID_1206_"
     d="m 170.55428,124.34732 c -1.14091,0 -2.06574,0.92484 -2.06574,2.06575 v 2.8532 c 0,1.14091 0.92483,2.06574 2.06574,2.06574 1.14091,0 2.06574,-0.92483 2.06574,-2.06574 v -2.8532 c 0,-1.14091 -0.92483,-2.06575 -2.06574,-2.06575 z"
     style="stroke-width:0.206574" />
  <path
     id="XMLID_1204_"
     d="m 178.81725,118.93735 h -2.853 c -1.14091,0 -2.06574,0.92484 -2.06574,2.06575 0,1.1409 0.92483,2.06574 2.06574,2.06574 h 2.853 c 1.1409,0 2.06574,-0.92484 2.06574,-2.06574 0,-1.14091 -0.92484,-2.06575 -2.06574,-2.06575 z"
     style="stroke-width:0.206574" />
  <path
     id="XMLID_1203_"
     d="m 165.14431,118.93735 h -2.853 c -1.14091,0 -2.06574,0.92484 -2.06574,2.06575 0,1.1409 0.92483,2.06574 2.06574,2.06574 h 2.853 c 1.14091,0 2.06574,-0.92484 2.06574,-2.06574 0,-1.14091 -0.92483,-2.06575 -2.06574,-2.06575 z"
     style="stroke-width:0.206574" />
  <path
     id="XMLID_1202_"
     d="m 85.445721,182.20999 c -1.14091,0 -2.065742,0.92483 -2.065742,2.06574 v 2.853 c 0,1.14091 0.924832,2.06574 2.065742,2.06574 1.140909,0 2.065741,-0.92483 2.065741,-2.06574 v -2.853 c 0,-1.14091 -0.924832,-2.06574 -2.065741,-2.06574 z"
     style="stroke-width:0.206574" />
  <path
     id="XMLID_1197_"
     d="m 85.445721,195.88293 c -1.14091,0 -2.065742,0.92483 -2.065742,2.06574 v 2.85299 c 0,1.14091 0.924832,2.06575 2.065742,2.06575 1.140909,0 2.065741,-0.92484 2.065741,-2.06575 v -2.85299 c 0,-1.14091 -0.924832,-2.06574 -2.065741,-2.06574 z"
     style="stroke-width:0.206574" />
  <path
     id="XMLID_1196_"
     d="m 93.708687,190.47296 h -2.852996 c -1.140909,0 -2.065741,0.92483 -2.065741,2.06574 0,1.14091 0.924832,2.06574 2.065741,2.06574 h 2.852996 c 1.140909,0 2.065742,-0.92483 2.065742,-2.06574 0,-1.14091 -0.924833,-2.06574 -2.065742,-2.06574 z"
     style="stroke-width:0.206574" />
  <path
     id="XMLID_1195_"
     d="m 80.03575,190.47296 h -2.852996 c -1.140909,0 -2.065742,0.92483 -2.065742,2.06574 0,1.14091 0.924833,2.06574 2.065742,2.06574 h 2.852996 c 1.140909,0 2.065741,-0.92483 2.065741,-2.06574 0,-1.14091 -0.924832,-2.06574 -2.065741,-2.06574 z"
     style="stroke-width:0.206574" />
</svg>
