<?xml version="1.0" encoding="UTF-8"?>
<!DOCTYPE svg PUBLIC "-//W3C//DTD SVG 1.1//EN" "http://www.w3.org/Graphics/SVG/1.1/DTD/svg11.dtd">
<!-- Creator: CorelDRAW 2020 (64-Bit) -->
<svg xmlns="http://www.w3.org/2000/svg" xml:space="preserve" width="15.9571mm" height="15.9572mm" version="1.1" style="shape-rendering:geometricPrecision; text-rendering:geometricPrecision; image-rendering:optimizeQuality; fill-rule:evenodd; clip-rule:evenodd"
viewBox="0 0 2.92 2.92"
 xmlns:xlink="http://www.w3.org/1999/xlink"
 xmlns:xodm="http://www.corel.com/coreldraw/odm/2003">
 <defs>
  <style type="text/css">
   <![CDATA[
    .fil1 {fill:black}
    .fil5 {fill:#3568AD}
    .fil7 {fill:#A92216}
    .fil6 {fill:#C2DEF6}
    .fil4 {fill:#CCD1D9}
    .fil3 {fill:#E5E8EC}
    .fil0 {fill:#EBECF1}
    .fil8 {fill:#FEDC80}
    .fil2 {fill:white}
   ]]>
  </style>
 </defs>
 <g id="Capa_x0020_1">
  <metadata id="CorelCorpID_0Corel-Layer"/>
  <circle class="fil0" cx="1.46" cy="1.46" r="1.46"/>
  <g id="_2767093454784">
   <path class="fil1" d="M1.89 2.48l-0.91 0c0.01,-0.07 0.09,-0.05 0.2,-0.05l0.51 0c0.07,0 0.19,-0.03 0.2,0.05zm-0.67 -0.25l0.43 -0 0.02 0.1 -0.48 0 0.02 -0.1zm0.23 -0.2l0.95 -0c0,0.12 -0.01,0.1 -0.16,0.1 -0.22,0 -0.6,0.01 -0.79,-0 0.05,-0.03 0.05,-0.06 0,-0.1zm-0.03 0.1c-0.12,0.01 -0.66,0 -0.84,0 -0.1,0 -0.11,0 -0.11,-0.1l0.95 0c-0.03,0.03 -0.06,0.08 0,0.1zm-0.25 -1.47l0.25 -0 0.06 0 0.04 -0 0.82 -0c0.05,0 0.07,0.01 0.07,0.06 0,0.04 -0,0.09 -0,0.13 0,0.36 0.01,0.72 -0,1.08l-0.8 0 -0.25 0 -0.89 -0c-0.01,-0.33 -0,-0.66 -0,-0.99 0,-0.23 -0.03,-0.29 0.08,-0.29l0.62 0zm-0.8 0.04l0 1.4c0,0.07 0.07,0.14 0.14,0.14l0.6 0c-0,0.03 -0.02,0.08 -0.03,0.1 -0.07,0 -0.1,-0 -0.15,0.03 -0.08,0.05 -0.09,0.23 -0.03,0.23l1.03 0c0.06,0 0.05,-0.07 0.05,-0.11 0,-0.07 -0.07,-0.14 -0.14,-0.14l-0.08 0c-0,-0.04 -0.02,-0.06 -0.02,-0.1l0.6 0c0.07,0 0.14,-0.07 0.14,-0.15l0 -1.38c0,-0.09 -0.07,-0.15 -0.14,-0.15l-1.86 0c-0.07,0 -0.14,0.07 -0.14,0.14z"/>
   <path class="fil2" d="M1.6 1.92l0.8 -0c0.01,-0.36 0,-0.72 0,-1.08 0,-0.04 0,-0.09 0,-0.13 -0,-0.05 -0.02,-0.06 -0.07,-0.06l-0.82 0c0.02,0.06 0.19,1.22 0.19,1.27l-0.05 0c-0.01,-0.12 -0.07,-0.49 -0.09,-0.63 -0.01,-0.08 -0.09,-0.6 -0.09,-0.64l-0.06 -0c0.02,0.05 0.19,1.23 0.19,1.27z"/>
   <path class="fil2" d="M1.35 1.92c-0.02,-0.05 -0.19,-1.24 -0.19,-1.27l-0.62 -0c-0.11,-0 -0.08,0.06 -0.08,0.29 0,0.33 -0.01,0.66 0,0.99l0.89 0z"/>
   <path class="fil0" d="M1.35 1.92l0.25 -0c0,-0.04 -0.17,-1.23 -0.19,-1.27l-0.25 0c-0,0.03 0.17,1.23 0.19,1.27z"/>
   <path class="fil3" d="M1.45 2.02c0.05,0.03 0.04,0.06 -0,0.1 0.19,0.01 0.57,0 0.79,0 0.15,0 0.16,0.02 0.16,-0.1l-0.95 0z"/>
   <path class="fil3" d="M1.42 2.12c-0.06,-0.02 -0.03,-0.07 -0,-0.1l-0.95 -0c0,0.1 0.01,0.1 0.11,0.1 0.18,-0 0.72,0.01 0.84,-0z"/>
   <path class="fil0" d="M1.51 0.65l-0.04 0c-0,0.04 0.08,0.55 0.09,0.64 0.02,0.14 0.08,0.52 0.09,0.63l0.05 0c-0,-0.05 -0.17,-1.21 -0.19,-1.27z"/>
   <polygon class="fil4" points="1.19,2.33 1.67,2.33 1.65,2.22 1.22,2.22 "/>
   <path class="fil3" d="M1.89 2.48c-0.01,-0.07 -0.14,-0.05 -0.2,-0.05l-0.51 0c-0.11,0 -0.19,-0.02 -0.2,0.05l0.91 -0z"/>
   <g>
    <polygon class="fil5" points="1.95,1.09 1.83,1.09 1.83,1.57 1.95,1.57 1.95,1.26 2.19,1.57 2.31,1.57 2.31,1.09 2.19,1.09 2.19,1.4 "/>
    <polygon class="fil6" points="1.83,1.17 1.83,1.21 1.99,1.14 1.98,1.12 "/>
    <path class="fil5" d="M1.6 1.29l0 0.28 0.13 0 0 -0.28c-0.02,0.01 -0.04,0.02 -0.06,0.02 -0.02,0 -0.04,-0.01 -0.06,-0.02z"/>
    <polygon class="fil5" points="1.23,1.09 1.23,1.2 1.23,1.28 1.23,1.38 1.23,1.57 1.35,1.57 1.35,1.38 1.49,1.38 1.49,1.28 1.35,1.28 1.35,1.2 1.51,1.2 1.51,1.09 1.35,1.09 "/>
    <polygon class="fil6" points="1.23,1.31 1.23,1.38 1.23,1.39 1.49,1.33 1.49,1.28 1.35,1.28 1.35,1.27 "/>
    <rect class="fil5" x="1" y="1.09" width="0.13" height="0.48"/>
    <path class="fil6" d="M1 1.39l0 0.01 0.13 -0.02 0 -0.03 -0.13 0.04zm0 0.04l0 0.01 0.13 -0.02 0 -0.03 -0.13 0.04z"/>
    <path class="fil5" d="M0.78 1.08c0.04,0 0.08,0.01 0.12,0.03l0 0.14c-0.02,-0.03 -0.07,-0.06 -0.11,-0.06 -0.08,0 -0.14,0.06 -0.14,0.14 0,0.08 0.06,0.14 0.14,0.14 0.05,0 0.09,-0.02 0.11,-0.06l0 0.14c-0.04,0.02 -0.08,0.03 -0.12,0.03 -0.14,0 -0.25,-0.11 -0.25,-0.25 0,-0.14 0.11,-0.25 0.25,-0.25z"/>
    <circle class="fil7" cx="1.66" cy="1.17" r="0.1"/>
    <path class="fil8" d="M1.66 1.08c0.02,0 0.05,0.01 0.06,0.02 0.01,0.01 0.01,0.03 0.01,0.04 0,0.05 -0.04,0.1 -0.1,0.1 -0.02,0 -0.05,-0.01 -0.06,-0.02 -0.01,-0.01 -0.01,-0.03 -0.01,-0.04 0,-0.05 0.04,-0.1 0.1,-0.1z"/>
   </g>
  </g>
 </g>
</svg>
