<?xml version="1.0" encoding="UTF-8"?>
<!DOCTYPE svg PUBLIC "-//W3C//DTD SVG 1.1//EN" "http://www.w3.org/Graphics/SVG/1.1/DTD/svg11.dtd">
<!-- Creator: CorelDRAW 2020 (64-Bit) -->
<svg xmlns="http://www.w3.org/2000/svg" xml:space="preserve" width="9.7623mm" height="9.2975mm" version="1.1" style="shape-rendering:geometricPrecision; text-rendering:geometricPrecision; image-rendering:optimizeQuality; fill-rule:evenodd; clip-rule:evenodd"
viewBox="0 0 14.95 14.24"
 xmlns:xlink="http://www.w3.org/1999/xlink"
 xmlns:xodm="http://www.corel.com/coreldraw/odm/2003">
 <defs>
  <style type="text/css">
   <![CDATA[
    .fil0 {fill:black}
    .fil5 {fill:#3568AD}
    .fil7 {fill:#A92216}
    .fil6 {fill:#C2DEF6}
    .fil4 {fill:#CCD1D9}
    .fil3 {fill:#E5E8EC}
    .fil2 {fill:#EBECF1}
    .fil8 {fill:#FEDC80}
    .fil1 {fill:white}
   ]]>
  </style>
 </defs>
 <g id="Capa_x0020_1">
  <metadata id="CorelCorpID_0Corel-Layer"/>
  <path class="fil0" d="M10.67 13.52l-6.39 0.01c0.06,-0.49 0.66,-0.35 1.42,-0.36l3.56 0c0.47,0 1.36,-0.17 1.41,0.35zm-4.7 -1.77l3.01 -0 0.17 0.71 -3.35 0 0.17 -0.71zm1.64 -1.42l6.62 -0.01c0,0.82 -0.07,0.71 -1.11,0.71 -1.55,0 -4.23,0.07 -5.52,-0.01 0.32,-0.24 0.33,-0.45 0.01,-0.69zm-0.23 0.68c-0.86,0.08 -4.64,0.02 -5.86,0.02 -0.7,0 -0.8,0.01 -0.8,-0.71l6.64 0.01c-0.19,0.18 -0.42,0.54 0.02,0.69zm-1.78 -10.3l1.73 -0 0.41 0 0.31 -0 5.71 -0c0.35,0 0.47,0.09 0.48,0.44 0.01,0.3 -0,0.63 -0,0.94 0,2.49 0.05,5.03 -0,7.52l-5.59 0 -1.73 0 -6.19 -0c-0.05,-2.28 -0,-4.61 -0,-6.89 0,-1.6 -0.22,-2 0.58,-2l4.3 0zm-5.59 0.26l0 9.79c0,0.49 0.49,0.98 0.98,0.98l4.23 0c-0,0.18 -0.12,0.58 -0.18,0.71 -0.51,0 -0.69,-0.03 -1.02,0.18 -0.56,0.35 -0.61,1.6 -0.18,1.6l7.21 0c0.44,0 0.36,-0.46 0.36,-0.8 0,-0.49 -0.49,-0.98 -0.98,-0.98l-0.53 0c-0.01,-0.28 -0.13,-0.44 -0.13,-0.71l4.23 0c0.48,0 0.98,-0.46 0.98,-1.07l0 -9.61c0,-0.61 -0.5,-1.07 -0.98,-1.07l-12.99 0c-0.49,0 -0.98,0.49 -0.98,0.98z"/>
  <path class="fil1" d="M8.64 9.61l5.59 -0c0.05,-2.49 0,-5.03 0,-7.52 0,-0.3 0.01,-0.64 0,-0.94 -0.01,-0.35 -0.13,-0.44 -0.48,-0.44l-5.71 0c0.13,0.41 1.3,8.54 1.33,8.88l-0.36 0c-0.07,-0.82 -0.5,-3.43 -0.65,-4.44 -0.09,-0.57 -0.66,-4.19 -0.63,-4.45l-0.41 -0c0.12,0.32 1.34,8.62 1.32,8.89z"/>
  <path class="fil1" d="M6.91 9.61c-0.11,-0.32 -1.34,-8.65 -1.32,-8.89l-4.3 -0c-0.8,-0 -0.58,0.4 -0.58,2 0,2.28 -0.05,4.62 0,6.89l6.19 0z"/>
  <path class="fil2" d="M6.91 9.61l1.73 -0c0.02,-0.27 -1.2,-8.57 -1.32,-8.89l-1.73 0c-0.03,0.24 1.2,8.57 1.32,8.89z"/>
  <path class="fil3" d="M7.61 10.33c0.33,0.24 0.31,0.45 -0.01,0.69 1.3,0.08 3.98,0.01 5.52,0.01 1.03,0 1.11,0.11 1.11,-0.71l-6.62 0.01z"/>
  <path class="fil3" d="M7.37 11.01c-0.44,-0.15 -0.21,-0.5 -0.02,-0.69l-6.64 -0.01c0,0.72 0.1,0.71 0.8,0.71 1.22,-0 5.01,0.06 5.86,-0.02z"/>
  <path class="fil2" d="M8.04 0.71l-0.31 0c-0.03,0.26 0.55,3.87 0.63,4.45 0.15,1 0.58,3.62 0.65,4.44l0.36 0c-0.03,-0.35 -1.2,-8.48 -1.33,-8.88z"/>
  <polygon class="fil4" points="5.8,12.45 9.15,12.45 8.98,11.74 5.97,11.75 "/>
  <path class="fil3" d="M10.67 13.52c-0.05,-0.52 -0.95,-0.35 -1.41,-0.35l-3.56 0c-0.76,0 -1.36,-0.14 -1.42,0.36l6.39 -0.01z"/>
  <polygon class="fil5" points="11.14,3.83 10.26,3.83 10.26,7.17 11.14,7.17 11.14,5 12.76,7.17 13.64,7.17 13.64,3.83 12.76,3.83 12.76,5.99 "/>
  <polygon class="fil6" points="10.26,4.36 10.26,4.64 11.41,4.18 11.3,4.04 "/>
  <path class="fil5" d="M8.66 5.2l0 1.96 0.88 0 0 -1.97c-0.13,0.08 -0.28,0.12 -0.45,0.12 -0.16,0 -0.3,-0.04 -0.43,-0.11z"/>
  <polygon class="fil5" points="6.05,3.83 6.05,4.57 6.05,5.14 6.05,5.88 6.05,7.17 6.93,7.17 6.93,5.88 7.91,5.88 7.91,5.14 6.93,5.14 6.93,4.57 8.01,4.57 8.01,3.83 6.93,3.83 "/>
  <polygon class="fil6" points="6.05,5.38 6.05,5.88 6.05,5.91 7.91,5.51 7.91,5.14 6.93,5.14 6.93,5.11 "/>
  <rect class="fil5" x="4.47" y="3.83" width="0.88" height="3.34"/>
  <path class="fil6" d="M4.47 5.88l0 0.05 0.88 -0.14 0 -0.18 -0.88 0.28zm0 0.29l0 0.05 0.88 -0.17 0 -0.19 -0.88 0.31z"/>
  <path class="fil5" d="M2.91 3.76c0.3,0 0.59,0.08 0.84,0.21l0 0.99c-0.17,-0.24 -0.46,-0.4 -0.78,-0.4 -0.53,0 -0.96,0.43 -0.96,0.96 0,0.53 0.43,0.96 0.96,0.96 0.32,0 0.61,-0.16 0.78,-0.4l0 0.99c-0.25,0.14 -0.54,0.21 -0.84,0.21 -0.98,0 -1.77,-0.79 -1.77,-1.77 0,-0.98 0.79,-1.77 1.77,-1.77z"/>
  <circle class="fil7" cx="9.09" cy="4.41" r="0.68"/>
  <path class="fil8" d="M9.09 3.73c0.17,0 0.32,0.06 0.44,0.16 0.04,0.08 0.06,0.18 0.06,0.27 0,0.38 -0.31,0.68 -0.68,0.68 -0.17,0 -0.32,-0.06 -0.44,-0.16 -0.04,-0.08 -0.06,-0.18 -0.06,-0.27 0,-0.38 0.31,-0.68 0.68,-0.68z"/>
 </g>
</svg>
