<svg id="Capa_1" data-name="Capa 1" xmlns="http://www.w3.org/2000/svg" viewBox="0 0 300 300"><defs><style>.cls-1{fill:#5a5a5a;}.cls-2{fill:#444;}</style></defs><title>Iconos_finales</title><path class="cls-1" d="M92.254,269.666a48.744,48.744,0,0,1-34.478-83.217L197.457,46.768a36.073,36.073,0,1,1,51.015,51.015L127.754,218.5a23.386,23.386,0,0,1-33.072-33.073L179.6,100.506a6.4,6.4,0,0,1,9.047,9.046l-84.923,84.923a10.592,10.592,0,1,0,14.98,14.98L239.426,88.738A23.28,23.28,0,0,0,206.5,55.815L66.822,195.5a35.967,35.967,0,0,0,50.865,50.865L221.855,142.193a6.4,6.4,0,0,1,9.046,9.046L126.733,255.408a48.611,48.611,0,0,1-34.479,14.258Z"/><path class="cls-2" d="M230.9,151.24a6.4,6.4,0,0,0-9.046-9.047L117.687,246.361a35.941,35.941,0,0,1-31.436,10.006,48.9,48.9,0,0,1-34.307-7.984,49.411,49.411,0,0,0,5.831,7.025,48.816,48.816,0,0,0,68.958,0Z"/><path d="M101.234,191.974A14.116,14.116,0,1,0,121.2,211.937L241.921,91.214a26.8,26.8,0,0,0-37.907-37.907L99.191,158.131a3.523,3.523,0,0,0,4.982,4.983L209,58.29a19.758,19.758,0,1,1,27.942,27.941L116.215,206.955a7.07,7.07,0,1,1-10-10l84.927-84.928A9.92,9.92,0,0,0,177.114,98L92.187,182.927a26.91,26.91,0,0,0,38.057,38.057l78.04-78.038a3.524,3.524,0,0,0-4.983-4.983L125.262,216A19.864,19.864,0,1,1,97.17,187.91L182.1,102.982a2.874,2.874,0,0,1,4.064,4.064l-84.927,84.928Z"/><path d="M219.91,131.319l31.058-31.058a39.6,39.6,0,0,0-56-56L55.28,183.948a52.286,52.286,0,1,0,73.943,73.944L233.4,153.719a9.92,9.92,0,0,0-14.029-14.03L115.194,243.863a32.446,32.446,0,0,1-45.885-45.885L92.547,174.74a3.523,3.523,0,0,0-4.982-4.983L64.327,193a39.492,39.492,0,0,0,55.85,55.85L224.349,144.672a2.874,2.874,0,0,1,4.064,4.064L124.241,252.909a45.24,45.24,0,1,1-63.979-63.978L199.95,49.243a32.552,32.552,0,0,1,46.036,46.035l-31.059,31.058a3.524,3.524,0,0,0,4.983,4.983Z"/></svg>