<?xml version="1.0" encoding="UTF-8"?>
<!DOCTYPE svg PUBLIC "-//W3C//DTD SVG 1.1//EN" "http://www.w3.org/Graphics/SVG/1.1/DTD/svg11.dtd">
<!-- Creator: CorelDRAW 2020 (64-Bit) -->
<svg xmlns="http://www.w3.org/2000/svg" xml:space="preserve" width="19.5723mm" height="19.5723mm" version="1.1" style="shape-rendering:geometricPrecision; text-rendering:geometricPrecision; image-rendering:optimizeQuality; fill-rule:evenodd; clip-rule:evenodd"
viewBox="0 0 4.15 4.15"
 xmlns:xlink="http://www.w3.org/1999/xlink"
 xmlns:xodm="http://www.corel.com/coreldraw/odm/2003">
 <defs>
  <style type="text/css">
   <![CDATA[
    .fil1 {fill:black}
    .fil3 {fill:#22A5FC}
    .fil7 {fill:#6D5748}
    .fil0 {fill:#EBECF1}
    .fil4 {fill:#FC4755}
    .fil6 {fill:#FDCAA9}
    .fil8 {fill:#FEAE85}
    .fil2 {fill:#FEDEC4}
    .fil5 {fill:yellow}
   ]]>
  </style>
 </defs>
 <g id="Capa_x0020_1">
  <metadata id="CorelCorpID_0Corel-Layer"/>
  <circle class="fil0" cx="2.07" cy="2.07" r="2.07"/>
  <g id="_2767869302912">
   <path class="fil1" d="M3.49 2.61l0.24 0.24c-0.01,0.03 -0.66,0.67 -0.68,0.68l-0.24 -0.25 0.68 -0.68zm0.34 0.22l0 0.04c-0.01,0.03 -0.03,0.06 -0.07,0.1l-0.49 0.49c-0.17,0.17 -0.19,0.23 -0.34,0.08 -0.04,-0.04 -0.17,-0.17 -0.19,-0.2 -0.05,-0.08 -0,-0.12 0.01,-0.15 -0.01,-0.02 -0.04,-0.04 -0.07,-0.06 -0.03,-0.02 -0.05,-0.02 -0.09,-0.03 -0.15,-0.02 -0.18,-0.07 -0.29,-0.18 -0.04,-0.04 -0.11,-0.08 -0.07,-0.14 0.03,-0.02 0.05,-0.02 0.08,0.01 0.02,0.02 0.04,0.04 0.06,0.06 0.22,0.21 0.14,0.11 0.31,0.17 0.07,0.02 0.1,0.07 0.14,0.1 0.02,-0.02 0.5,-0.49 0.51,-0.52 -0.21,-0.24 -0.01,-0.36 -0.17,-0.53 -0.06,-0.06 -0.12,-0.12 -0.18,-0.18 -0.07,-0.07 -0.1,-0.11 -0.24,-0.07 0.05,0.07 0.16,0.12 0.14,0.19 -0.01,0.04 -0.05,0.05 -0.1,-0 -0.02,-0.02 -0.06,-0.06 -0.08,-0.08 -0.01,-0.02 -0.03,-0.04 -0.05,-0.05 -0,0.22 0.08,0.59 -0.24,0.51 0,0.1 0.01,0.17 -0.04,0.23 -0.02,0.02 -0.05,0.04 -0.08,0.05 -0.08,0.02 -0.09,-0.02 -0.12,-0l-0.01 0.03c-0.03,0.04 -0.02,0.05 -0.07,0.08 -0.02,0.01 -0.03,0.01 -0.05,0.02 -0.08,0.06 -0.21,0.26 -0.36,0.29 -0.06,0.01 -0.15,0.01 -0.2,0.09 0.01,0.04 0.03,0.03 0.03,0.09 -0.01,0.06 -0.11,0.15 -0.16,0.2 -0.1,0.1 -0.16,0.21 -0.28,0.08l-0.36 -0.36c-0.09,-0.09 -0.09,-0.07 -0.07,-0.14 0.04,-0.02 0.05,-0.02 0.09,0.01l0.19 0.19c0.04,0.04 0.22,0.23 0.25,0.25l0.24 -0.24 -0.68 -0.68 -0.24 0.24c0.03,0.06 0.12,0.08 0.08,0.16 -0.05,0.02 -0.06,0.01 -0.1,-0.03 -0.05,-0.05 -0.08,-0.08 -0.09,-0.11l0 -0.05c0.01,-0.03 0.04,-0.06 0.09,-0.11 0.05,-0.05 0.1,-0.1 0.15,-0.15 0.08,-0.08 0.1,-0.09 0.19,-0.03 0.03,-0.02 0.06,-0.07 0.07,-0.11 0.03,-0.13 -0.05,-0.26 0.11,-0.41 0.06,-0.06 0.11,-0.11 0.17,-0.17 0.06,-0.06 0.12,-0.12 0.22,-0.12 -0.04,-0.07 -0.03,-0.16 -0.03,-0.27 0,-0.1 -0.01,-0.2 0.02,-0.28 0.07,-0.17 0.23,-0.17 0.23,-0.37 -0.13,-0 -0.12,-0.13 -0.12,-0.2 0,-0.17 -0.04,-0.35 0.11,-0.35l0.47 0c0.66,0 0.58,-0.06 0.58,0.35 0,0.06 0.02,0.2 -0.11,0.2 0,0.06 -0,0.07 0.02,0.12 0.03,0.09 0.11,0.08 0.11,0.29 -0,0.18 0,0.36 0,0.53l0.02 0.02c0.07,-0.04 0.14,-0.07 0.24,-0.03 0.08,0.03 0.12,0.08 0.17,0.13 0.11,0.11 0.25,0.21 0.25,0.36 0.03,-0.02 0.07,0.01 0.07,0.05 -0,0.04 -0.04,0.07 -0.07,0.05 0,0.08 -0,0.17 0.07,0.22 0.02,-0.02 0.03,-0.03 0.07,-0.03 0.04,-0 0.06,0.01 0.08,0.02l0.2 0.2c0.04,0.04 0.07,0.07 0.08,0.1zm-2.41 -0.95c-0.02,0.05 -0.15,0.11 -0.09,0.17 0.06,0.05 0.11,-0.05 0.17,-0.1l0.06 -0.05c0,0.18 0,0.36 0,0.54 0,0.1 -0.01,0.15 0.05,0.21 0.05,0.06 0.11,0.06 0.2,0.04 0.02,0.07 0.04,0.08 0.08,0.11 -0.01,0.01 0,0.01 -0.01,0.02 -0.01,0.01 -0.01,0.01 -0.02,0.02 -0.02,0.03 -0.14,0.16 -0.21,0.18 -0.15,0.04 -0.13,0 -0.26,0.12 -0.02,-0.02 -0.5,-0.49 -0.51,-0.52 0.2,-0.23 0.03,-0.34 0.14,-0.49 0.04,-0.05 0.11,-0.12 0.16,-0.16 0.03,-0.03 0.12,-0.14 0.18,-0.13 0,-0 -0,-0 0.02,-0.01l0.04 0c0.02,0 0.03,0.01 0.05,0.02l-0.03 0.03zm0.55 -1.13c0.01,0.03 0.01,0.04 0.04,0.04l0.41 0 0 0.07c-0.01,0.1 0.06,0.15 0.09,0.21 0.04,0.07 0.03,0.18 0.03,0.27 0,0.2 0,0.4 0,0.6 0,0.1 0,0.2 0,0.3 -0,0.11 -0.14,0.11 -0.14,0.01 -0.01,-0.13 0.01,-0.51 -0,-0.58 -0.02,-0.02 -0.04,-0.04 -0.08,-0.02 -0.02,0.02 -0.02,0.06 -0.02,0.1l0 0.68c0,0.07 0.02,0.16 -0.05,0.18 -0.09,0.02 -0.09,-0.06 -0.09,-0.13l0 -0.68c0,-0.06 0.02,-0.18 -0.07,-0.15 -0.05,0.02 -0.03,0.13 -0.03,0.19l0 0.68c0,0.06 0.02,0.17 -0.02,0.2 -0.03,0.02 -0.12,0.04 -0.12,-0.07 -0,-0.3 -0,-0.61 0,-0.91 0,-0.14 -0.09,-0.09 -0.1,-0.06 -0.01,0.05 0.01,0.84 -0.01,0.89 -0.03,0.06 -0.12,0.06 -0.13,-0.01 -0.01,-0.04 -0,-0.79 -0,-0.9 0,-0.03 0.01,-0.08 -0.01,-0.1 -0.02,-0.02 -0.06,-0.02 -0.08,0.01 -0.02,0.03 -0.01,0.11 -0.01,0.16 0,0.01 0,0.02 -0,0.03l-0.01 0.02c-0.03,0 -0.07,-0.04 -0.09,-0.06 -0.03,-0.04 -0.03,-0.07 -0.03,-0.13 -0,-0.1 -0,-0.21 0,-0.3 0.01,-0.1 0.07,-0.14 0.12,-0.19 0.05,-0.05 0.09,-0.09 0.12,-0.18l0.01 -0.1c0.07,-0.01 0.14,0.02 0.15,-0.05 -0.01,-0.06 -0.05,-0.05 -0.12,-0.05 -0.07,0 -0.14,0.01 -0.15,-0.02 -0.01,-0.03 -0,-0.29 0,-0.33l0.96 0c0,0.05 0.01,0.31 -0,0.35 -0.08,0.01 -0.34,0 -0.45,0 -0.06,-0 -0.09,-0.01 -0.1,0.05z"/>
   <path class="fil2" d="M2.39 1.66l0 -0.01c0,-0 0,-0 0,-0l0 -0.36c-0.02,-0.18 -0.17,-0.34 -0.36,-0.38 -0.09,-0.02 -0.26,-0.01 -0.36,-0.01 -0.03,0.09 -0.07,0.13 -0.12,0.18 -0.05,0.05 -0.11,0.09 -0.12,0.19 -0,0.1 -0,0.21 -0,0.3 0,0.06 0,0.09 0.03,0.13 0.01,0.02 0.05,0.06 0.09,0.06l0.01 -0.02c0,-0.01 0,-0.02 0,-0.03 -0,-0.04 -0.01,-0.13 0.01,-0.16 0.02,-0.02 0.06,-0.03 0.08,-0.01 0.02,0.02 0.01,0.07 0.01,0.1 -0,0.11 -0.01,0.85 0,0.9 0.02,0.07 0.11,0.07 0.13,0.01 0.02,-0.05 -0,-0.84 0.01,-0.89 0.01,-0.04 0.1,-0.08 0.1,0.06 -0,0.3 -0,0.61 -0,0.91 0,0.11 0.09,0.1 0.12,0.07 0.04,-0.04 0.02,-0.14 0.02,-0.2l0 -0.68c0,-0.06 -0.02,-0.17 0.03,-0.19 0.09,-0.03 0.07,0.09 0.07,0.15l-0 0.68c-0,0.07 -0,0.16 0.09,0.13 0.07,-0.02 0.05,-0.1 0.05,-0.18l-0 -0.68c-0,-0.04 -0.01,-0.08 0.02,-0.1 0.03,-0.03 0.06,-0 0.08,0.02z"/>
   <path class="fil2" d="M2.69 1.95c-0,0.09 0.01,0.31 -0.01,0.38 -0.03,0.09 -0.11,0.15 -0.23,0.15 0,0.19 -0.08,0.29 -0.27,0.28 0.02,0.01 0.04,0.03 0.05,0.05 0.03,-0.02 0.05,-0.02 0.08,0.01 0.02,0.02 0.04,0.04 0.06,0.06 0.22,0.21 0.14,0.11 0.31,0.17 0.07,0.02 0.1,0.07 0.14,0.1 0.02,-0.02 0.5,-0.49 0.51,-0.52 -0.21,-0.24 -0.01,-0.36 -0.17,-0.53 -0.06,-0.06 -0.12,-0.12 -0.18,-0.18 -0.07,-0.07 -0.1,-0.11 -0.24,-0.07 0.05,0.07 0.16,0.12 0.14,0.19 -0.01,0.04 -0.05,0.05 -0.1,-0 -0.02,-0.02 -0.06,-0.06 -0.08,-0.08z"/>
   <path class="fil2" d="M1.86 2.84c-0.04,-0.02 -0.06,-0.06 -0.08,-0.09 -0.18,0 -0.27,-0.08 -0.27,-0.27l-0 -0.51c-0,-0 -0,-0 -0,-0.01l-0 -0.01c-0.06,0.04 -0.11,0.15 -0.17,0.1 -0.06,-0.06 0.07,-0.12 0.09,-0.17 -0.01,-0.02 -0.04,-0.04 -0.07,-0.04 -0.07,-0.01 -0.15,0.1 -0.18,0.13 -0.05,0.05 -0.12,0.11 -0.16,0.16 -0.11,0.15 0.06,0.27 -0.14,0.49 0.02,0.03 0.49,0.5 0.51,0.52 0.13,-0.12 0.11,-0.09 0.26,-0.12 0.07,-0.02 0.19,-0.14 0.21,-0.18z"/>
   <path class="fil3" d="M1.72 0.48c0.07,-0.03 0.1,0.07 0.04,0.1 -0.07,0.03 -0.11,-0.07 -0.04,-0.1zm0.12 0.27l0.14 0c0.01,-0.06 0.04,-0.05 0.1,-0.05 0.11,0 0.37,0.01 0.45,-0 0.01,-0.03 0.01,-0.3 0,-0.35l-0.96 -0c-0,0.04 -0.01,0.3 -0,0.33 0.01,0.03 0.08,0.02 0.15,0.02 0.07,-0 0.11,-0.01 0.12,0.05z"/>
   <path class="fil4" d="M1.15 3.25c0.07,-0.02 0.09,0.08 0.03,0.1 -0.07,0.02 -0.1,-0.08 -0.03,-0.1zm-0.59 -0.23l0.07 0.07c0.04,-0.02 0.05,-0.02 0.09,0.01l0.19 0.19c0.04,0.04 0.22,0.23 0.25,0.25l0.24 -0.24 -0.68 -0.68 -0.24 0.24c0.03,0.06 0.12,0.08 0.08,0.16z"/>
   <path class="fil5" d="M3.48 2.79c0.06,-0.04 0.11,0.06 0.05,0.09 -0.06,0.03 -0.11,-0.06 -0.05,-0.09zm-0.67 0.49l0.24 0.25c0.01,-0.01 0.66,-0.65 0.68,-0.68l-0.24 -0.24 -0.68 0.68z"/>
   <path class="fil6" d="M1.67 0.9c0.1,-0 0.27,-0.01 0.36,0.01 0.19,0.04 0.34,0.2 0.36,0.38l-0 0.36c-0,0 -0,0 -0,0l-0 0.01c0.02,0.08 -0,0.46 0,0.58 0.01,0.1 0.14,0.11 0.14,-0.01 0,-0.1 -0,-0.2 -0,-0.3 0,-0.2 0,-0.4 0,-0.6 0,-0.09 0.01,-0.2 -0.03,-0.27 -0.03,-0.05 -0.1,-0.11 -0.09,-0.21 -0.01,-0.01 -0.01,-0.04 -0.01,-0.06l-0.39 0 -0.02 -0.01c-0.02,-0.01 -0.03,-0.01 -0.04,-0.04l-0.14 0c-0.01,0.07 -0.08,0.04 -0.15,0.05l-0.01 0.1z"/>
   <path class="fil6" d="M2.14 2.72l0.03 0.03c0.19,0.01 0.27,-0.09 0.27,-0.28 0.12,0 0.2,-0.06 0.23,-0.15 0.02,-0.07 0.01,-0.29 0.01,-0.38 -0.01,-0.02 -0.03,-0.04 -0.05,-0.05 -0,0.22 0.08,0.59 -0.24,0.51 0,0.1 0.01,0.17 -0.04,0.23 -0.02,0.02 -0.05,0.04 -0.08,0.05 -0.08,0.02 -0.09,-0.02 -0.12,-0l-0.01 0.03z"/>
   <path class="fil6" d="M1.51 1.96l0 0.01c0,0 0,0 0,0.01l0 0.51c-0,0.19 0.08,0.27 0.27,0.27 0.02,0.03 0.04,0.07 0.08,0.09 0.01,-0.01 0.01,-0.01 0.02,-0.02 0.01,-0.01 0.01,-0.01 0.01,-0.02 -0.04,-0.04 -0.06,-0.05 -0.08,-0.11 -0.09,0.03 -0.15,0.02 -0.2,-0.04 -0.06,-0.06 -0.05,-0.11 -0.05,-0.21 0,-0.18 0,-0.36 -0,-0.54l-0.06 0.05z"/>
   <path class="fil1" d="M1.72 0.48c-0.07,0.03 -0.02,0.12 0.04,0.1 0.06,-0.02 0.03,-0.13 -0.04,-0.1z"/>
   <path class="fil1" d="M1.03 1.08c0,0.08 0.11,0.07 0.11,0 0,-0.07 -0.11,-0.07 -0.11,0z"/>
   <path class="fil1" d="M1.15 3.25c-0.07,0.02 -0.04,0.12 0.03,0.1 0.06,-0.02 0.04,-0.12 -0.03,-0.1z"/>
   <path class="fil1" d="M3.48 2.79c-0.07,0.04 -0.01,0.12 0.05,0.09 0.07,-0.03 0.02,-0.13 -0.05,-0.09z"/>
   <path class="fil1" d="M1.73 3.33c0,0.03 0.02,0.05 0.05,0.05 0.03,0 0.05,-0.03 0.05,-0.05 0,-0.07 -0.11,-0.07 -0.11,0z"/>
   <path class="fil1" d="M2.62 0.84c0,0.07 0.11,0.07 0.11,0 0,-0.03 -0.02,-0.05 -0.05,-0.05 -0.03,0 -0.05,0.03 -0.05,0.05z"/>
   <path class="fil1" d="M3.38 1.64c0,-0.11 -0.16,-0.04 -0.09,0.04 0.04,0.04 0.09,0 0.09,-0.04z"/>
   <path class="fil1" d="M0.8 1.41c0,0.05 0.06,0.07 0.09,0.04 0.07,-0.07 -0.09,-0.14 -0.09,-0.04z"/>
   <path class="fil1" d="M3.33 2.06c0,0.03 0.03,0.05 0.05,0.05 0.07,0 0.07,-0.11 0,-0.11 -0.03,0 -0.05,0.02 -0.05,0.05z"/>
   <path class="fil1" d="M1.36 0.83c0,0.07 0.11,0.07 0.11,0 0,-0.07 -0.11,-0.07 -0.11,0z"/>
   <path class="fil1" d="M2.96 1.1c0,0.05 0.06,0.07 0.09,0.04 0.07,-0.07 -0.09,-0.14 -0.09,-0.04z"/>
   <path class="fil1" d="M0.67 1.79c0,0.09 0.13,0.06 0.1,-0.01 -0.02,-0.06 -0.1,-0.04 -0.1,0.01z"/>
   <path class="fil1" d="M0.76 2c0,-0.03 -0.02,-0.05 -0.05,-0.05 -0.05,0 -0.07,0.06 -0.04,0.09 0.03,0.03 0.09,0 0.09,-0.04z"/>
   <path class="fil1" d="M0.75 2.45c0.11,0 0.05,-0.15 -0.03,-0.09 -0.04,0.04 -0,0.09 0.03,0.09z"/>
   <path class="fil1" d="M0.66 2.19c0,0.05 0.05,0.08 0.09,0.05 0.04,-0.03 0.02,-0.09 -0.03,-0.09 -0.03,0 -0.05,0.02 -0.05,0.05z"/>
   <path class="fil1" d="M0.9 1.23c0,0.07 0.1,0.07 0.1,0 0,-0.07 -0.1,-0.07 -0.1,0z"/>
   <path class="fil1" d="M0.77 1.64c0.07,0 0.07,-0.1 0,-0.1 -0.07,0 -0.07,0.1 0,0.1z"/>
   <path class="fil1" d="M3.25 1.5c0.07,0 0.07,-0.1 0,-0.1 -0.07,0 -0.07,0.1 0,0.1z"/>
   <path class="fil1" d="M2.58 3.3c0.07,0 0.07,-0.1 0,-0.1 -0.07,0 -0.07,0.1 0,0.1z"/>
   <path class="fil1" d="M1.59 3.33c0.08,0 0.06,-0.1 0.01,-0.1 -0.1,0 -0.07,0.1 -0.01,0.1z"/>
   <path class="fil1" d="M2.33 3.31c0,0.03 0.02,0.05 0.05,0.05 0.06,0 0.09,-0.1 -0.01,-0.1 -0.02,0 -0.04,0.03 -0.04,0.05z"/>
   <path class="fil1" d="M2.81 0.94c0,0.1 0.1,0.07 0.1,0.01 0,-0.08 -0.1,-0.06 -0.1,-0.01z"/>
   <path class="fil1" d="M1.93 3.36c0,0.04 0.03,0.05 0.05,0.05 0.07,-0 0.06,-0.1 0,-0.1 -0.03,0 -0.05,0.02 -0.05,0.05z"/>
   <path class="fil1" d="M3.1 1.26c0,0.07 0.1,0.07 0.1,0 0,-0.07 -0.1,-0.07 -0.1,0z"/>
   <path class="fil1" d="M2.14 3.34c0,0.09 0.1,0.09 0.1,0 0,-0.05 -0.1,-0.05 -0.1,0z"/>
   <path class="fil1" d="M3.32 1.84c0,0.1 0.1,0.06 0.1,0.02 0,-0.09 -0.1,-0.06 -0.1,-0.02z"/>
   <path class="fil1" d="M1.19 0.93c0,0.09 0.1,0.08 0.1,0.01 0,-0.07 -0.1,-0.05 -0.1,-0.01z"/>
   <path class="fil7" d="M2.42 0.87l-0 -0.07 -0.41 -0 0.02 0.01 0.39 -0c0,0.02 -0,0.05 0.01,0.06z"/>
   <path class="fil8" d="M1.43 1.88l0.03 -0.03c-0.02,-0.01 -0.03,-0.01 -0.05,-0.02l-0.04 -0c-0.02,0 -0.01,0 -0.02,0.01 0.03,0 0.06,0.02 0.07,0.04z"/>
  </g>
 </g>
</svg>
