<?xml version="1.0" encoding="UTF-8"?>
<!DOCTYPE svg PUBLIC "-//W3C//DTD SVG 1.1//EN" "http://www.w3.org/Graphics/SVG/1.1/DTD/svg11.dtd">
<!-- Creator: CorelDRAW 2020 (64-Bit) -->
<svg xmlns="http://www.w3.org/2000/svg" xml:space="preserve" width="83.375mm" height="81.6272mm" version="1.1" style="shape-rendering:geometricPrecision; text-rendering:geometricPrecision; image-rendering:optimizeQuality; fill-rule:evenodd; clip-rule:evenodd"
viewBox="0 0 28.14 27.55"
 xmlns:xlink="http://www.w3.org/1999/xlink"
 xmlns:xodm="http://www.corel.com/coreldraw/odm/2003">
 <defs>
  <style type="text/css">
   <![CDATA[
    .fil0 {fill:black}
    .fil2 {fill:#22A5FC}
    .fil6 {fill:#6D5748}
    .fil3 {fill:#FC4755}
    .fil5 {fill:#FDCAA9}
    .fil7 {fill:#FEAE85}
    .fil1 {fill:#FEDEC4}
    .fil4 {fill:yellow}
   ]]>
  </style>
 </defs>
 <g id="Capa_x0020_1">
  <metadata id="CorelCorpID_0Corel-Layer"/>
  <g id="_1703794080032">
   <path class="fil0" d="M25.35 19.22l1.96 1.97c-0.11,0.21 -5.39,5.45 -5.5,5.51l-1.96 -2 5.5 -5.49zm2.79 1.79l0 0.35c-0.06,0.23 -0.25,0.49 -0.59,0.83l-4.01 4.01c-1.38,1.38 -1.56,1.87 -2.78,0.66 -0.31,-0.31 -1.39,-1.35 -1.57,-1.62 -0.42,-0.63 -0.01,-0.98 0.05,-1.2 -0.11,-0.17 -0.34,-0.35 -0.53,-0.46 -0.24,-0.14 -0.37,-0.17 -0.71,-0.23 -1.24,-0.19 -1.45,-0.6 -2.35,-1.5 -0.29,-0.29 -0.87,-0.63 -0.54,-1.14 0.28,-0.16 0.43,-0.15 0.65,0.09 0.18,0.18 0.31,0.32 0.49,0.49 1.76,1.74 1.15,0.89 2.48,1.37 0.54,0.19 0.84,0.53 1.14,0.8 0.18,-0.16 4.04,-3.99 4.18,-4.21 -1.7,-1.96 -0.07,-2.94 -1.38,-4.27 -0.49,-0.49 -0.94,-0.94 -1.43,-1.43 -0.59,-0.59 -0.85,-0.88 -1.99,-0.59 0.39,0.6 1.3,1.01 1.12,1.54 -0.1,0.3 -0.43,0.39 -0.83,-0.03 -0.2,-0.2 -0.49,-0.53 -0.69,-0.68 -0.12,-0.16 -0.24,-0.3 -0.42,-0.39 -0.02,1.77 0.63,4.76 -1.99,4.15 0,0.79 0.07,1.39 -0.36,1.91 -0.13,0.16 -0.41,0.33 -0.69,0.41 -0.63,0.17 -0.74,-0.12 -0.98,-0.03l-0.04 0.22c-0.24,0.29 -0.18,0.41 -0.57,0.64 -0.14,0.08 -0.27,0.11 -0.4,0.2 -0.65,0.48 -1.74,2.13 -2.9,2.38 -0.45,0.1 -1.19,0.09 -1.63,0.74 0.08,0.3 0.27,0.27 0.22,0.77 -0.05,0.51 -0.9,1.2 -1.31,1.61 -0.78,0.78 -1.33,1.68 -2.31,0.69l-2.91 -2.91c-0.73,-0.73 -0.69,-0.6 -0.56,-1.14 0.34,-0.14 0.42,-0.2 0.7,0.07l1.54 1.54c0.32,0.32 1.82,1.9 2.05,2.01l1.98 -1.96 -5.48 -5.52 -1.99 1.97c0.25,0.47 1.01,0.63 0.67,1.32 -0.41,0.18 -0.52,0.08 -0.8,-0.21 -0.38,-0.39 -0.61,-0.65 -0.7,-0.89l0 -0.41c0.09,-0.23 0.32,-0.5 0.7,-0.88 0.42,-0.42 0.79,-0.79 1.21,-1.21 0.64,-0.64 0.82,-0.75 1.55,-0.26 0.24,-0.16 0.47,-0.55 0.55,-0.88 0.27,-1.07 -0.43,-2.08 0.86,-3.37 0.48,-0.48 0.92,-0.92 1.4,-1.4 0.46,-0.46 0.98,-1 1.8,-1 -0.31,-0.59 -0.27,-1.31 -0.27,-2.2 0,-0.8 -0.05,-1.66 0.17,-2.25 0.53,-1.4 1.86,-1.42 1.86,-3.03 -1.09,-0.02 -0.93,-1.06 -0.93,-1.65 0,-1.39 -0.34,-2.86 0.93,-2.86l3.8 0c5.37,0 4.73,-0.51 4.73,2.86 0,0.52 0.19,1.63 -0.88,1.65 0,0.48 -0.02,0.6 0.13,0.97 0.28,0.69 0.86,0.63 0.86,2.39 -0,1.45 0,2.9 0.01,4.33l0.15 0.18c0.57,-0.3 1.17,-0.56 1.99,-0.28 0.66,0.23 0.96,0.62 1.41,1.07 0.9,0.9 2.02,1.74 2.05,2.9 0.27,-0.13 0.61,0.06 0.61,0.38 -0,0.33 -0.3,0.53 -0.61,0.39 0,0.61 -0.01,1.4 0.6,1.81 0.18,-0.12 0.26,-0.25 0.55,-0.28 0.31,-0.03 0.48,0.05 0.64,0.18l1.62 1.62c0.32,0.32 0.57,0.56 0.65,0.82zm-19.55 -7.75c-0.2,0.43 -1.25,0.92 -0.75,1.41 0.46,0.44 0.87,-0.44 1.38,-0.79l0.46 -0.44c0.03,1.44 0,2.91 0,4.35 -0,0.81 -0.08,1.21 0.4,1.73 0.43,0.46 0.92,0.52 1.62,0.31 0.15,0.56 0.31,0.64 0.66,0.93 -0.05,0.12 0,0.05 -0.1,0.17 -0.07,0.08 -0.08,0.07 -0.15,0.12 -0.19,0.28 -1.17,1.31 -1.74,1.44 -1.23,0.29 -1.02,0.02 -2.11,1 -0.17,-0.15 -4.03,-3.98 -4.18,-4.21 1.6,-1.84 0.26,-2.8 1.15,-4 0.29,-0.4 0.91,-0.94 1.28,-1.31 0.26,-0.26 0.95,-1.11 1.5,-1.06 0.04,-0.02 -0.02,-0.02 0.13,-0.05l0.34 0.02c0.17,0.03 0.27,0.07 0.39,0.15l-0.28 0.24zm4.44 -9.16c0.04,0.24 0.1,0.31 0.3,0.36l3.34 0.04 0.02 0.56c-0.05,0.79 0.5,1.24 0.75,1.68 0.31,0.56 0.21,1.48 0.21,2.19 0,1.61 0,3.22 0,4.84 0,0.8 0.03,1.63 0,2.42 -0.03,0.92 -1.11,0.86 -1.16,0.06 -0.07,-1.03 0.1,-4.12 -0.04,-4.74 -0.13,-0.17 -0.35,-0.36 -0.63,-0.14 -0.19,0.15 -0.15,0.52 -0.15,0.81l0 5.5c0,0.58 0.13,1.3 -0.43,1.43 -0.73,0.17 -0.73,-0.52 -0.73,-1.1l0 -5.5c0,-0.49 0.14,-1.44 -0.56,-1.21 -0.42,0.14 -0.27,1.05 -0.27,1.54l-0 5.5c0,0.5 0.15,1.35 -0.2,1.64 -0.23,0.19 -0.94,0.3 -0.96,-0.59 -0.03,-2.44 -0.01,-4.93 0,-7.37 0.01,-1.13 -0.72,-0.76 -0.8,-0.46 -0.11,0.42 0.09,6.86 -0.08,7.23 -0.21,0.46 -0.95,0.45 -1.08,-0.1 -0.08,-0.34 -0.03,-6.4 -0.02,-7.28 0,-0.27 0.04,-0.68 -0.11,-0.83 -0.16,-0.16 -0.5,-0.13 -0.63,0.05 -0.14,0.2 -0.08,0.92 -0.08,1.28 0,0.06 0,0.17 -0.01,0.22l-0.05 0.19c-0.28,0.02 -0.58,-0.32 -0.7,-0.49 -0.23,-0.32 -0.26,-0.57 -0.26,-1.02 -0,-0.8 -0.04,-1.69 0,-2.48 0.04,-0.83 0.57,-1.14 0.95,-1.53 0.39,-0.4 0.74,-0.75 0.97,-1.49l0.08 -0.78c0.6,-0.07 1.15,0.18 1.24,-0.43 -0.08,-0.52 -0.44,-0.42 -0.98,-0.42 -0.59,0 -1.15,0.1 -1.2,-0.14 -0.04,-0.22 -0.02,-2.36 0.01,-2.69l7.77 0.01c0.03,0.39 0.05,2.54 -0.02,2.81 -0.63,0.06 -2.78,0.02 -3.65,0.01 -0.52,-0 -0.74,-0.06 -0.82,0.42z"/>
   <path class="fil1" d="M16.43 11.5l0.03 -0.07c0,-0.01 0.01,-0.03 0.01,-0.04l0 -2.88c-0.18,-1.48 -1.42,-2.76 -2.95,-3.11 -0.75,-0.17 -2.1,-0.11 -2.93,-0.1 -0.23,0.74 -0.58,1.09 -0.97,1.49 -0.38,0.39 -0.91,0.7 -0.95,1.53 -0.04,0.79 -0,1.68 -0,2.48 0,0.45 0.03,0.69 0.26,1.02 0.12,0.17 0.42,0.51 0.7,0.49l0.05 -0.19c0.01,-0.05 0.01,-0.16 0.01,-0.22 -0,-0.36 -0.06,-1.08 0.08,-1.28 0.12,-0.18 0.47,-0.22 0.63,-0.05 0.16,0.16 0.11,0.57 0.11,0.83 -0,0.88 -0.06,6.94 0.02,7.28 0.13,0.56 0.87,0.57 1.08,0.1 0.17,-0.38 -0.03,-6.82 0.08,-7.23 0.08,-0.3 0.81,-0.67 0.8,0.46 -0.02,2.44 -0.04,4.93 -0,7.37 0.01,0.89 0.73,0.78 0.96,0.59 0.35,-0.29 0.2,-1.14 0.2,-1.64l0 -5.5c0,-0.48 -0.15,-1.4 0.27,-1.54 0.7,-0.23 0.56,0.72 0.56,1.21l-0 5.5c-0,0.58 -0.01,1.27 0.73,1.1 0.55,-0.13 0.43,-0.84 0.43,-1.43l-0 -5.5c-0,-0.29 -0.04,-0.66 0.15,-0.81 0.28,-0.22 0.51,-0.03 0.63,0.14z"/>
   <path class="fil1" d="M18.87 13.82c-0.03,0.74 0.09,2.48 -0.11,3.05 -0.26,0.76 -0.9,1.23 -1.89,1.23 0,1.52 -0.63,2.34 -2.2,2.24 0.18,0.11 0.3,0.25 0.44,0.4 0.28,-0.16 0.43,-0.15 0.65,0.09 0.18,0.18 0.31,0.32 0.49,0.49 1.76,1.74 1.15,0.89 2.48,1.37 0.54,0.19 0.84,0.53 1.14,0.8 0.18,-0.16 4.04,-3.99 4.18,-4.21 -1.7,-1.96 -0.07,-2.94 -1.38,-4.27 -0.49,-0.49 -0.94,-0.94 -1.43,-1.43 -0.59,-0.59 -0.85,-0.88 -1.99,-0.59 0.39,0.6 1.3,1.01 1.12,1.54 -0.1,0.3 -0.43,0.39 -0.83,-0.03 -0.2,-0.2 -0.49,-0.53 -0.69,-0.68z"/>
   <path class="fil1" d="M12.11 21.04c-0.32,-0.16 -0.49,-0.47 -0.67,-0.7 -1.49,0.02 -2.16,-0.66 -2.16,-2.17l-0.01 -4.17c-0,-0.01 -0.01,-0.03 -0.01,-0.04l-0.03 -0.08c-0.51,0.35 -0.92,1.23 -1.38,0.79 -0.5,-0.48 0.55,-0.97 0.75,-1.41 -0.09,-0.2 -0.33,-0.33 -0.59,-0.36 -0.55,-0.05 -1.24,0.8 -1.5,1.06 -0.37,0.37 -0.98,0.91 -1.28,1.31 -0.9,1.21 0.45,2.16 -1.15,4 0.15,0.23 4.01,4.06 4.18,4.21 1.09,-0.98 0.88,-0.71 2.11,-1 0.57,-0.13 1.55,-1.16 1.74,-1.44z"/>
   <path class="fil2" d="M10.92 1.87c0.56,-0.23 0.85,0.61 0.35,0.8 -0.53,0.21 -0.89,-0.58 -0.35,-0.8zm0.99 2.23l1.12 0c0.08,-0.48 0.3,-0.42 0.82,-0.42 0.87,0.01 3.03,0.05 3.65,-0.01 0.08,-0.27 0.05,-2.43 0.02,-2.81l-7.77 -0.01c-0.03,0.33 -0.06,2.47 -0.01,2.69 0.05,0.25 0.61,0.14 1.2,0.14 0.53,-0 0.89,-0.1 0.98,0.42z"/>
   <path class="fil3" d="M6.32 24.41c0.57,-0.16 0.75,0.68 0.25,0.83 -0.56,0.17 -0.84,-0.66 -0.25,-0.83zm-4.82 -1.9l0.53 0.55c0.34,-0.14 0.42,-0.2 0.7,0.07l1.54 1.54c0.32,0.32 1.82,1.9 2.05,2.01l1.98 -1.96 -5.48 -5.52 -1.99 1.97c0.25,0.47 1.01,0.63 0.67,1.32z"/>
   <path class="fil4" d="M25.29 20.68c0.51,-0.29 0.91,0.52 0.37,0.77 -0.47,0.22 -0.92,-0.46 -0.37,-0.77zm-5.43 4.02l1.96 2c0.11,-0.06 5.39,-5.3 5.5,-5.51l-1.96 -1.97 -5.5 5.49z"/>
   <path class="fil5" d="M10.6 5.31c0.83,-0.01 2.18,-0.07 2.93,0.1 1.53,0.35 2.77,1.62 2.95,3.11l-0 2.88c-0,0.01 -0.01,0.03 -0.01,0.04l-0.03 0.07c0.14,0.62 -0.04,3.72 0.04,4.74 0.06,0.8 1.14,0.86 1.16,-0.06 0.02,-0.79 -0,-1.62 -0,-2.42 0,-1.61 0,-3.22 0,-4.84 0,-0.71 0.1,-1.63 -0.21,-2.19 -0.24,-0.44 -0.8,-0.89 -0.75,-1.68 -0.08,-0.1 -0.05,-0.36 -0.05,-0.52l-3.16 0.01 -0.14 -0.09c-0.2,-0.04 -0.25,-0.12 -0.3,-0.36l-1.12 0c-0.09,0.61 -0.64,0.36 -1.24,0.43l-0.08 0.78z"/>
   <path class="fil5" d="M14.4 20.09l0.28 0.24c1.57,0.1 2.2,-0.71 2.2,-2.24 0.99,0.01 1.62,-0.47 1.89,-1.23 0.2,-0.57 0.08,-2.32 0.11,-3.05 -0.12,-0.16 -0.24,-0.3 -0.42,-0.39 -0.02,1.77 0.63,4.76 -1.99,4.15 0,0.79 0.07,1.39 -0.36,1.91 -0.13,0.16 -0.41,0.33 -0.69,0.41 -0.63,0.17 -0.74,-0.12 -0.98,-0.03l-0.04 0.22z"/>
   <path class="fil5" d="M9.22 13.88l0.03 0.08c0,0.01 0.01,0.03 0.01,0.04l0.01 4.17c-0,1.51 0.67,2.19 2.16,2.17 0.18,0.24 0.35,0.54 0.67,0.7 0.08,-0.05 0.08,-0.04 0.15,-0.12 0.11,-0.12 0.06,-0.05 0.1,-0.17 -0.34,-0.29 -0.51,-0.37 -0.66,-0.93 -0.7,0.22 -1.19,0.15 -1.62,-0.31 -0.49,-0.52 -0.4,-0.92 -0.4,-1.73 0,-1.44 0.03,-2.91 -0,-4.35l-0.46 0.44z"/>
   <path class="fil0" d="M10.92 1.87c-0.54,0.22 -0.19,1.01 0.35,0.8 0.5,-0.19 0.21,-1.03 -0.35,-0.8z"/>
   <path class="fil0" d="M5.39 6.73c0,0.63 0.88,0.53 0.88,0 0,-0.56 -0.88,-0.56 -0.88,0z"/>
   <path class="fil0" d="M6.32 24.41c-0.59,0.17 -0.31,1 0.25,0.83 0.49,-0.15 0.31,-0.99 -0.25,-0.83z"/>
   <path class="fil0" d="M25.29 20.68c-0.55,0.31 -0.1,0.99 0.37,0.77 0.54,-0.25 0.14,-1.06 -0.37,-0.77z"/>
   <path class="fil0" d="M11.05 25.04c0,0.27 0.17,0.44 0.44,0.44 0.26,0 0.44,-0.22 0.44,-0.44 0,-0.54 -0.88,-0.54 -0.88,0z"/>
   <path class="fil0" d="M18.31 4.81c0,0.54 0.88,0.54 0.88,0 0,-0.27 -0.17,-0.44 -0.44,-0.44 -0.26,0 -0.44,0.22 -0.44,0.44z"/>
   <path class="fil0" d="M24.46 11.35c0,-0.87 -1.31,-0.29 -0.73,0.29 0.3,0.3 0.73,0.01 0.73,-0.29z"/>
   <path class="fil0" d="M3.46 9.43c0,0.37 0.47,0.55 0.73,0.29 0.57,-0.57 -0.73,-1.16 -0.73,-0.29z"/>
   <path class="fil0" d="M24.02 14.76c0,0.28 0.27,0.44 0.44,0.44 0.54,0 0.54,-0.88 0,-0.88 -0.27,0 -0.44,0.17 -0.44,0.44z"/>
   <path class="fil0" d="M8.03 4.76c0,0.58 0.88,0.58 0.88,0 0,-0.54 -0.88,-0.54 -0.88,0z"/>
   <path class="fil0" d="M21.05 6.9c0,0.37 0.46,0.56 0.73,0.29 0.57,-0.57 -0.73,-1.15 -0.73,-0.29z"/>
   <path class="fil0" d="M2.42 12.51c0,0.73 1.03,0.51 0.85,-0.07 -0.15,-0.49 -0.85,-0.35 -0.85,0.07z"/>
   <path class="fil0" d="M3.13 14.21c0,-0.27 -0.17,-0.44 -0.44,-0.44 -0.4,0 -0.55,0.47 -0.29,0.73 0.28,0.28 0.73,0.03 0.73,-0.29z"/>
   <path class="fil0" d="M3.08 17.89c0.92,0 0.37,-1.24 -0.21,-0.76 -0.35,0.29 -0.04,0.76 0.21,0.76z"/>
   <path class="fil0" d="M2.36 15.8c0,0.38 0.41,0.61 0.7,0.37 0.29,-0.24 0.17,-0.76 -0.26,-0.76 -0.24,0 -0.44,0.17 -0.44,0.38z"/>
   <path class="fil0" d="M4.34 8c0,0.6 0.82,0.57 0.82,0 0,-0.57 -0.82,-0.57 -0.82,0z"/>
   <path class="fil0" d="M3.24 11.35c0.6,0 0.57,-0.82 0,-0.82 -0.57,0 -0.57,0.82 0,0.82z"/>
   <path class="fil0" d="M23.42 10.14c0.6,0 0.57,-0.82 0,-0.82 -0.57,0 -0.57,0.82 0,0.82z"/>
   <path class="fil0" d="M17.92 24.76c0.58,0 0.59,-0.82 0,-0.82 -0.57,0 -0.57,0.82 0,0.82z"/>
   <path class="fil0" d="M9.89 25.04c0.63,0 0.48,-0.82 0.11,-0.82 -0.84,0 -0.56,0.82 -0.11,0.82z"/>
   <path class="fil0" d="M15.94 24.87c0,0.27 0.17,0.44 0.44,0.44 0.45,0 0.73,-0.82 -0.11,-0.82 -0.16,0 -0.33,0.23 -0.33,0.38z"/>
   <path class="fil0" d="M19.79 5.63c0,0.78 0.82,0.61 0.82,0.11 0,-0.63 -0.82,-0.48 -0.82,-0.11z"/>
   <path class="fil0" d="M12.7 25.26c0,0.29 0.27,0.42 0.43,0.41 0.57,-0.03 0.49,-0.85 0.01,-0.85 -0.27,0 -0.44,0.17 -0.44,0.44z"/>
   <path class="fil0" d="M22.15 8.22c0,0.59 0.82,0.58 0.82,0 0,-0.54 -0.82,-0.54 -0.82,0z"/>
   <path class="fil0" d="M14.35 25.09c0,0.71 0.82,0.71 0.82,0 0,-0.42 -0.82,-0.42 -0.82,0z"/>
   <path class="fil0" d="M23.97 12.95c0,0.81 0.82,0.48 0.82,0.16 0,-0.76 -0.82,-0.52 -0.82,-0.16z"/>
   <path class="fil0" d="M6.65 5.58c0,0.7 0.82,0.62 0.82,0.05 0,-0.59 -0.82,-0.44 -0.82,-0.05z"/>
   <path class="fil6" d="M16.68 5.06l-0.02 -0.56 -3.34 -0.04 0.14 0.09 3.16 -0.01c0,0.17 -0.03,0.42 0.05,0.52z"/>
   <path class="fil7" d="M8.59 13.26l0.28 -0.24c-0.13,-0.08 -0.22,-0.12 -0.39,-0.15l-0.34 -0.02c-0.15,0.03 -0.09,0.03 -0.13,0.05 0.26,0.03 0.5,0.17 0.59,0.36z"/>
  </g>
 </g>
</svg>
