<svg id="filled_outline" height="512" viewBox="0 0 512 512" width="512" xmlns="http://www.w3.org/2000/svg" data-name="filled outline"><path d="m152 320v-32a32 32 0 0 0 -32-32h-64a32 32 0 0 0 -32 32v32z" fill="#e35430"/><path d="m256 289.14286-54.94353 15.69814a64 64 0 0 0 -37.98541 29.78464l-19.07106 33.37436-48 32v32h56l32-32v88h144v-88l32 32h56v-32l-48-32-19.07106-33.37435a64 64 0 0 0 -37.98541-29.78465z" fill="#548aff"/><path d="m280 296-16 40 16 80-24 24-24-24 16-80-16-40 24-6.857z" fill="#ef5e3b"/><path d="m216 224h80a0 0 0 0 1 0 0v40a40 40 0 0 1 -40 40 40 40 0 0 1 -40-40v-40a0 0 0 0 1 0 0z" fill="#ffceb6"/><path d="m216 224v-12.46788a27.53212 27.53212 0 0 1 27.53212-27.53212 27.53194 27.53194 0 0 1 8.70642 1.41286l20.99305 6.99768a33.29818 33.29818 0 0 1 22.76841 31.58946z" fill="#b1712c"/><path d="m96 400-16-24h-16v16h-40v16l24 24h48z" fill="#ffceb6"/><path d="m416 400 16-24h16v16h40v16l-24 24h-48z" fill="#ffceb6"/><path d="m88 280a32 32 0 0 1 32 32v40a0 0 0 0 1 0 0h-64a0 0 0 0 1 0 0v-40a32 32 0 0 1 32-32z" fill="#ef5e3b"/><rect fill="#718799" height="128" rx="16" width="80" x="400" y="216"/><path d="m352 232-32-64 32-16 16 32v40z" fill="#ffa100"/><path d="m306.111 109.167h35.777v53.666h-35.777z" fill="#ffb401" transform="matrix(.894 -.447 .447 .894 -26.615 159.255)"/><path d="m352 152 112-32-56-96-80 80z" fill="#ffc431"/><path d="m296 120-18.917 26.166 10.917 21.834h32z" fill="#ffa100"/><path d="m184 102.63v105.37a15.99555 15.99555 0 0 1 -16 16h-96a15.99555 15.99555 0 0 1 -16-16v-136a15.99552 15.99552 0 0 1 16-16h65.37012a16.14443 16.14443 0 0 1 11.31982 4.69l30.62012 30.62a16.14437 16.14437 0 0 1 4.68994 11.32z" fill="#548aff"/><path d="m182.55005 96h-38.55005v-38.55a15.82323 15.82323 0 0 1 4.68994 3.24l30.62012 30.62a15.82761 15.82761 0 0 1 3.23999 4.69z" fill="#7dafff"/><path d="m422.56 48.96 5.11036-3.40691a23.29739 23.29739 0 0 1 32.90041 7.39819 23.29737 23.29737 0 0 1 -7.05428 31.371l-7.43649 4.95772z" fill="#ffb401"/><path d="m42.34277 437.65674a8.00076 8.00076 0 0 0 5.65723 2.34326h104a8.00076 8.00076 0 0 0 5.65723-2.34326l18.34277-18.34274v68.686a8.00008 8.00008 0 0 0 8 8h144a8.00008 8.00008 0 0 0 8-8v-68.686l18.34277 18.34278a8.00076 8.00076 0 0 0 5.65723 2.34322h104a8.00076 8.00076 0 0 0 5.65723-2.34326l24-24a8.00035 8.00035 0 0 0 2.34277-5.65674v-24a8.00008 8.00008 0 0 0 -8-8h-32a8.00008 8.00008 0 0 0 -8-8h-16a7.99943 7.99943 0 0 0 -6.65625 3.5625l-11.5625 17.34375-39.77246-26.51514-18.13379-31.73486a71.61719 71.61719 0 0 0 -42.7334-33.50781l-18.16211-5.18909a47.72441 47.72441 0 0 0 9.02051-27.95935v-40a41.24467 41.24467 0 0 0 -28.23926-39.17871l-20.99121-6.99707a35.531 35.531 0 0 0 -46.76953 33.70801v52.46777a47.72441 47.72441 0 0 0 9.02051 27.95935l-18.16211 5.18909a71.61719 71.61719 0 0 0 -42.7334 33.50781l-18.13379 31.73486-39.77246 26.51514-11.5625-17.34375a7.99943 7.99943 0 0 0 -6.65625-3.5625h-16a8.00008 8.00008 0 0 0 -8 8h-32a8.00008 8.00008 0 0 0 -8 8v24a8.00035 8.00035 0 0 0 2.34277 5.65674zm381.65723-35.23486 12.28125-18.42188h3.71875v24h16v-16h24v12.68652l-19.31348 19.31348h-36.68652zm-200-190.88965a19.532 19.532 0 0 1 25.709-18.52979l20.99315 6.99756a25.26016 25.26016 0 0 1 16.00049 16h-62.70264zm0 20.46777h64v32a32 32 0 0 1 -64 0zm30.55859 112h2.88282l13.874 69.37061-15.31541 15.31591-15.31543-15.31591zm-7.91113-32.92163a47.91478 47.91478 0 0 0 18.70508 0l-6.7688 16.92163h-5.16748zm-142.64746 93.20288 44.4375-29.625a8.00472 8.00472 0 0 0 2.50879-2.687l19.07129-33.37451a55.69581 55.69581 0 0 1 33.23633-26.06153l24.00024-6.85693 12.43433 31.08691-15.53321 77.668a8.00161 8.00161 0 0 0 2.1875 7.22559l24 24a8.00063 8.00063 0 0 0 11.31446 0l24-24a8.00161 8.00161 0 0 0 2.1875-7.22559l-15.53321-77.668 12.43433-31.08691 23.99927 6.85693a55.695 55.695 0 0 1 33.2373 26.06153l19.07129 33.37451a8.00472 8.00472 0 0 0 2.50879 2.687l44.4375 29.625v19.71875h-44.68652l-29.65625-29.65674a8.0001 8.0001 0 0 0 -13.65723 5.65674v80h-128v-80a8.0001 8.0001 0 0 0 -13.65723-5.65674l-29.65625 29.65674h-44.68652zm-72-12.28125h24v16h16v-24h3.71875l12.28125 18.42188v21.57812h-36.68652l-19.31348-19.31348z"/><path d="m24 328h24v24a8.00008 8.00008 0 0 0 8 8h64a8.00008 8.00008 0 0 0 8-8v-24h24a8.00008 8.00008 0 0 0 8-8v-32a40.04552 40.04552 0 0 0 -40-40h-64a40.04552 40.04552 0 0 0 -40 40v32a8.00008 8.00008 0 0 0 8 8zm88 16h-48v-32a24 24 0 0 1 48 0zm-80-56a24.02718 24.02718 0 0 1 24-24h64a24.02718 24.02718 0 0 1 24 24v24h-16a40 40 0 0 0 -80 0h-16z"/><circle cx="88" cy="320" r="8"/><path d="m416 208a24.02718 24.02718 0 0 0 -24 24v96a24.02718 24.02718 0 0 0 24 24h48a24.02718 24.02718 0 0 0 24-24v-96a24.02718 24.02718 0 0 0 -24-24zm56 24v96a8.00917 8.00917 0 0 1 -8 8h-48a8.00917 8.00917 0 0 1 -8-8v-96a8.00917 8.00917 0 0 1 8-8h4.686l5.65673 5.65674a8.00076 8.00076 0 0 0 5.65727 2.34326h16a8.00076 8.00076 0 0 0 5.65723-2.34326l5.65677-5.65674h4.686a8.00917 8.00917 0 0 1 8 8z"/><path d="m72 232h96a24.0275 24.0275 0 0 0 24-24v-105.37256a23.84254 23.84254 0 0 0 -7.0293-16.9707l-30.62695-30.62695a23.84385 23.84385 0 0 0 -16.9707-7.02979h-65.37305a24.0275 24.0275 0 0 0 -24 24v136a24.0275 24.0275 0 0 0 24 24zm80-156.686 12.686 12.686h-12.686zm-88-3.314a8.00917 8.00917 0 0 1 8-8h64v32a8.00008 8.00008 0 0 0 8 8h32v104a8.00917 8.00917 0 0 1 -8 8h-96a8.00917 8.00917 0 0 1 -8-8z"/><path d="m80 184h80v16h-80z"/><path d="m112 152h48v16h-48z"/><path d="m80 152h16v16h-16z"/><path d="m136 120h24v16h-24z"/><path d="m80 120h40v16h-40z"/><path d="m80 88h40v16h-40z"/><path d="m425.238 37.67407-10.32784-17.70483a7.99972 7.99972 0 0 0 -12.56739-1.626l-79.082 79.082-30.83886 15.41944a7.95492 7.95492 0 0 0 -2.90235 2.47039l-.00293-.00213-.0664.09167-.00977.01355-18.84085 26.06084a8.00018 8.00018 0 0 0 -.67188 8.26465l10.917 21.834a7.99979 7.99979 0 0 0 7.15527 4.42235h27.05591l29.78882 59.57764a7.99421 7.99421 0 0 0 10.73339 3.57763l16-8a7.99967 7.99967 0 0 0 4.42188-7.15527v-40a7.99583 7.99583 0 0 0 -.84473-3.57764l-11.689-23.378 102.73193-29.352a8 8 0 0 0 4.71192-11.72314l-14.12354-24.212 1.16748-.77826a31.29373 31.29373 0 0 0 -32.71606-53.30489zm-132.29366 122.32593-6.53809-13.07568 8.34229-11.53888 12.30737 24.61456zm13.78906-36.42236 17.68848-8.84473 16.845 33.68927-17.68921 8.84467zm53.2666 95.47802-4.42188 2.21143-24.84472-49.68945 17.68848-8.84473 11.57812 23.15576zm-3.814-76.57208-18.45187-36.90368 68.58423-68.58478 45.583 78.1416zm97.524-85.4162a15.2777 15.2777 0 0 1 -4.6309 20.59862l-.36914.246-15.40869-26.415a15.28425 15.28425 0 0 1 20.40873 5.57038z"/></svg>