<?xml version="1.0" encoding="UTF-8"?>
<!DOCTYPE svg PUBLIC "-//W3C//DTD SVG 1.1//EN" "http://www.w3.org/Graphics/SVG/1.1/DTD/svg11.dtd">
<!-- Creator: CorelDRAW 2020 (64-Bit) -->
<svg xmlns="http://www.w3.org/2000/svg" xml:space="preserve" width="9.1321mm" height="9.2587mm" version="1.1" style="shape-rendering:geometricPrecision; text-rendering:geometricPrecision; image-rendering:optimizeQuality; fill-rule:evenodd; clip-rule:evenodd"
viewBox="0 0 1.12 1.14"
 xmlns:xlink="http://www.w3.org/1999/xlink"
 xmlns:xodm="http://www.corel.com/coreldraw/odm/2003">
 <defs>
  <style type="text/css">
   <![CDATA[
    .fil0 {fill:black}
    .fil6 {fill:#515151}
    .fil5 {fill:#7F7F7F}
    .fil4 {fill:#989898}
    .fil1 {fill:#B2B2B2}
    .fil3 {fill:#CCCCCC}
    .fil2 {fill:#E7E7E7}
   ]]>
  </style>
 </defs>
 <g id="Capa_x0020_1">
  <metadata id="CorelCorpID_0Corel-Layer"/>
  <g id="_1743942475120">
   <path class="fil0" d="M0.78 1.06c-0,0.02 -0,0.04 -0.02,0.04 -0.02,0 -0.05,0 -0.07,0 -0.08,0 -0.06,-0 -0.06,-0.07 -0,-0.02 -0.02,-0.02 -0.04,-0.03 -0.04,-0.02 -0.04,-0.03 -0.08,0.02 -0.02,0.02 -0.03,0.01 -0.04,-0.01 -0.02,-0.02 -0.04,-0.04 -0.07,-0.07 -0.03,-0.03 0.04,-0.06 0.04,-0.08 -0,-0.01 -0.02,-0.04 -0.02,-0.05 -0.01,-0.02 -0,-0.03 -0.03,-0.03 -0.02,0 -0.05,0 -0.06,-0.01 -0.01,-0.01 -0,-0.05 -0,-0.06 0.03,0 0.09,0 0.11,-0.01 0.02,-0.01 0.03,-0.03 0.03,-0.05 -0,-0.02 -0,-0.02 0.01,-0.02l0.02 -0.01 0.01 0.01c-0.01,0.04 -0.02,0.07 -0.01,0.12 0.04,0.2 0.31,0.24 0.41,0.06 0.02,-0.03 0.03,-0.07 0.02,-0.12 -0,-0.02 -0.01,-0.04 -0.01,-0.06 -0.01,-0.03 -0.01,-0.03 -0.03,-0.03 -0.01,0.01 -0.01,0.01 -0,0.03 0.03,0.05 0.02,0.13 -0.01,0.18 -0.01,0.01 -0.03,0.04 -0.04,0.04 -0.02,0.02 -0.07,0.04 -0.11,0.04 -0.12,0 -0.22,-0.11 -0.18,-0.24 0.02,-0 0.02,0 0.04,-0 0.02,-0.01 0.04,-0.04 0.06,-0.05 0.03,-0.03 0.04,-0.03 0.04,-0.07 0.04,-0.01 0.07,-0.01 0.11,0.01 0.02,0.01 0.03,0.01 0.04,0.02 0.01,0.01 0.02,0.02 0.04,0.01 0,-0.01 0,-0.02 -0.01,-0.03 -0.02,-0.02 -0.05,-0.03 -0.07,-0.04 -0.05,-0.02 -0.08,-0.01 -0.13,-0.01l-0.02 -0.02 0.02 -0.04c0.09,0 0.07,-0.04 0.07,-0.12 0.06,-0 0.06,0.01 0.06,0.05 -0,0.04 0.01,0.02 0.06,0.05 0.01,0.01 0.02,0.02 0.04,0.01 0.02,-0.02 0.03,-0.05 0.06,-0.02 0.01,0.01 0.08,0.07 0.08,0.08 0.01,0.03 -0.05,0.04 -0.04,0.07 0,0.01 0.01,0.02 0.02,0.04 0,0.01 0.01,0.03 0.02,0.04 0.02,0.02 0.07,-0.02 0.07,0.04 0,0.02 0,0.09 -0,0.1 -0.01,0.03 -0.07,-0 -0.08,0.03 -0.01,0.01 -0.01,0.02 -0.01,0.04 -0,0.01 -0.02,0.03 -0.01,0.04 0.01,0.02 0.05,0.04 0.03,0.06 -0.01,0.01 -0.04,0.04 -0.05,0.05 -0.02,0.02 -0.03,0.05 -0.06,0.02 -0.04,-0.04 -0.03,-0.03 -0.06,-0.02 -0.01,0.01 -0.03,0.01 -0.04,0.01 -0.02,0.01 -0.01,0.02 -0.01,0.04zm-0.36 -0.41c-0,0.04 -0.01,0.03 -0.06,0.03 -0.04,0 -0.07,0.01 -0.07,-0.02 -0,-0.05 0.01,-0.04 -0.04,-0.06 -0.04,-0.02 -0.03,-0.03 -0.06,0 -0.03,0.03 -0.03,0.03 -0.05,0 -0.02,-0.02 -0.03,-0.03 -0.05,-0.05 -0.01,-0.01 -0.02,-0.02 -0,-0.03 0.03,-0.03 0.04,-0.03 0.02,-0.06 -0,-0.01 -0.01,-0.02 -0.01,-0.03 -0.01,-0.02 -0.01,-0.02 -0.03,-0.02 -0.01,-0 -0.03,0 -0.04,-0 -0.01,-0.01 -0.01,-0.06 -0.01,-0.08 -0,-0.05 0.01,-0.04 0.05,-0.04 0.02,-0 0.02,-0.01 0.02,-0.02 0,-0.01 0.01,-0.02 0.01,-0.03 0.01,-0.03 0,-0.02 -0.02,-0.05 -0.02,-0.02 0.01,-0.03 0.03,-0.05 0.02,-0.02 0.04,-0.04 0.05,-0.04 0.02,0 0.02,0.04 0.06,0.03 0,-0.01 0.03,-0.01 0.04,-0.02 0.02,-0.01 0.03,-0 0.03,-0.03 0,-0.01 -0.01,-0.04 0.01,-0.04 0.01,-0 0.04,-0 0.05,-0 0.06,0 0.07,-0.01 0.07,0.04 -0,0.04 0.01,0.02 0.06,0.05 0.04,0.02 0.04,-0.04 0.07,-0.03 0.01,0 0.05,0.04 0.05,0.05 0.03,0.03 0.03,0.03 -0,0.06 -0.02,0.02 -0,0.02 0.01,0.08 0.01,0.02 0.02,0.02 0.04,0.02 0.02,-0 0.03,0 0.03,0.02 0.01,0.14 -0.01,0.1 -0.05,0.11 -0.01,0 -0.02,0.02 -0.02,0.03 -0.02,0.04 -0.03,0.04 0,0.07 0.01,0.01 0.02,0.02 0.01,0.03 -0,0.01 -0.02,0.02 -0.03,0.03 -0.06,0.06 -0.05,0.06 -0.09,0.02 -0.01,-0.01 -0.02,-0.01 -0.04,-0 -0.05,0.03 -0.05,0 -0.05,0.05zm-0.16 -0.58c-0.01,0 -0.03,0.01 -0.04,0.02 -0.01,-0.01 -0.03,-0.03 -0.05,-0.03 -0.03,0 -0.05,0.03 -0.07,0.05 -0.02,0.02 -0.05,0.04 -0.05,0.07 0,0.03 0.03,0.05 0.03,0.06 0,0 -0.01,0.03 -0.01,0.04 -0.02,0 -0.04,-0 -0.05,0.01 -0.01,0.01 -0.02,0.02 -0.02,0.04l0 0.1c0,0.02 0.01,0.03 0.02,0.04 0.01,0.01 0.03,0.01 0.05,0.01 0,0.01 0.01,0.02 0.01,0.03 -0.01,0.02 -0.03,0.02 -0.03,0.06 0,0.03 0.03,0.05 0.05,0.07 0.02,0.02 0.04,0.05 0.07,0.05 0.03,0 0.04,-0.02 0.05,-0.03 0.01,0 0.02,0.01 0.03,0.01 0,0.03 -0,0.05 0.02,0.07 0,0.04 -0.01,0.1 0.04,0.11 0.01,0 0.04,0 0.05,0l0.02 0.04c-0.01,0.01 -0.04,0.04 -0.04,0.06 0,0.02 0.01,0.03 0.02,0.05 0.01,0.01 0.02,0.02 0.03,0.03 0.02,0.02 0.05,0.05 0.08,0.05 0.04,0 0.05,-0.03 0.06,-0.04 0.01,0 0.03,0.01 0.04,0.02 0,0.03 -0,0.05 0.02,0.07 0.01,0.01 0.02,0.02 0.04,0.02l0.12 0c0.02,0 0.04,-0.01 0.04,-0.03 0.01,-0.02 0.01,-0.03 0.01,-0.06 0.02,-0 0.03,-0.01 0.04,-0.02 0.01,0.01 0.05,0.07 0.11,0.02l0.07 -0.07c0.05,-0.05 -0.01,-0.09 -0.01,-0.1 0,-0.01 0.01,-0.03 0.02,-0.05 0.03,0 0.04,0 0.06,-0.01 0.01,-0.01 0.03,-0.02 0.03,-0.04l0 -0.11c0,-0.02 -0.01,-0.04 -0.02,-0.04 -0.02,-0.01 -0.03,-0.01 -0.06,-0.01 -0,-0.01 -0.01,-0.04 -0.02,-0.05 0.02,-0.01 0.04,-0.03 0.04,-0.06 0,-0.03 -0.04,-0.06 -0.05,-0.08 -0.03,-0.03 -0.04,-0.05 -0.09,-0.05 -0.02,0 -0.04,0.02 -0.05,0.03 -0.02,-0 -0.03,-0.02 -0.05,-0.02 0,-0.02 -0,-0.03 -0,-0.04 -0.01,-0.05 -0.06,-0.04 -0.09,-0.04 -0.01,-0.02 -0.01,-0.02 -0.02,-0.03 -0.01,-0.01 -0.03,-0.01 -0.05,-0.01 -0,-0.01 -0.01,-0.03 -0.02,-0.04 0.01,-0.02 0.03,-0.02 0.03,-0.06 0,-0.03 -0.03,-0.05 -0.05,-0.07 -0.02,-0.02 -0.04,-0.05 -0.07,-0.05 -0.03,0 -0.03,0.02 -0.05,0.03 -0.01,-0 -0.02,-0.01 -0.04,-0.01 0,-0.02 -0,-0.03 -0.01,-0.05 -0.01,-0.01 -0.02,-0.02 -0.04,-0.02l-0.1 0c-0.02,0 -0.03,0.01 -0.04,0.02 -0.01,0.01 -0.01,0.03 -0.01,0.05z"/>
   <path class="fil1" d="M0.85 0.58c0,0.01 0,0.01 0.01,0.02 0,0 0,0.01 0.01,0.01 0.03,0 0.02,0.01 0.03,0.03 0.01,0.02 0.01,0.04 0.01,0.06 0,0.04 -0.01,0.08 -0.02,0.12 -0.09,0.19 -0.37,0.14 -0.41,-0.06 -0.01,-0.05 -0,-0.08 0.01,-0.12l-0.01 -0.01 -0.02 0.01c-0.02,0.03 0,0.13 0.01,0.16 0.01,0.05 0.04,0.09 0.06,0.12 0.05,0.06 0.13,0.12 0.24,0.14 -0,-0.02 -0,-0.04 0.01,-0.04 0.01,-0.01 0.03,-0.01 0.04,-0.01 0.04,-0.02 0.03,-0.02 0.06,0.02 0.03,0.03 0.05,0 0.06,-0.02 0.01,-0.01 0.05,-0.04 0.05,-0.05 0.02,-0.03 -0.03,-0.05 -0.03,-0.06 -0,-0.01 0.01,-0.03 0.01,-0.04 0.01,-0.01 0.01,-0.02 0.01,-0.04 0.01,-0.03 0.07,0.01 0.08,-0.03 0,-0.01 0,-0.09 0,-0.1 -0,-0.06 -0.05,-0.02 -0.07,-0.04 -0.01,-0 -0.01,-0.03 -0.02,-0.04 -0,-0.01 -0.01,-0.03 -0.02,-0.04 -0.01,-0.03 0.04,-0.03 0.04,-0.07 -0,-0.01 -0.06,-0.07 -0.08,-0.08 -0.03,-0.03 -0.04,0.01 -0.06,0.02 -0.01,0.01 -0.03,0 -0.04,-0.01 -0.05,-0.02 -0.06,-0.01 -0.06,-0.05 0,-0.04 0,-0.05 -0.06,-0.05 0,0.08 0.01,0.12 -0.07,0.12l-0.02 0.04 0.02 0.02c0.05,-0.01 0.08,-0.01 0.13,0.01 0.02,0.01 0.05,0.03 0.07,0.04 0.01,0.01 0.01,0.01 0.01,0.03z"/>
   <path class="fil2" d="M0.46 0.22c0,0.01 0.01,0.01 0.01,0.01 0,0 0.01,0 0.01,0.01 0,0.01 0,0 0,0.01 0.02,-0.01 0.02,-0 0.03,0.01 0.01,0.01 0.01,0.02 0.02,0.03 0.01,0.02 0.02,0.05 0.02,0.07 0,0.06 -0.02,0.1 -0.05,0.14 -0.01,0.01 -0.03,0.03 -0.05,0.04 -0.07,0.04 -0.15,0.03 -0.21,-0.02 -0.12,-0.1 -0.07,-0.3 0.09,-0.33 0.03,-0.01 0.06,-0 0.08,0 0.01,0 0.02,0.01 0.03,0.01 0.02,0.01 0.02,0.01 0.02,0.03zm-0.23 -0.09c-0.13,0.14 -0.11,0.34 0.03,0.46 0.03,0.03 0.1,0.06 0.16,0.07 -0,-0.05 0,-0.03 0.05,-0.05 0.02,-0.01 0.02,-0.01 0.04,0 0.04,0.04 0.03,0.04 0.09,-0.02 0.01,-0.01 0.02,-0.02 0.03,-0.03 0.01,-0.02 -0,-0.03 -0.01,-0.03 -0.03,-0.03 -0.02,-0.03 -0,-0.07 0.01,-0.01 0.01,-0.03 0.02,-0.03 0.05,-0.01 0.06,0.04 0.05,-0.11 -0,-0.02 -0.01,-0.02 -0.03,-0.02 -0.02,0 -0.03,0 -0.04,-0.02 -0.02,-0.05 -0.03,-0.06 -0.01,-0.08 0.03,-0.03 0.03,-0.03 0,-0.06 -0.01,-0.01 -0.05,-0.05 -0.05,-0.05 -0.03,-0.01 -0.03,0.05 -0.07,0.03 -0.05,-0.03 -0.06,-0.01 -0.06,-0.05 0,-0.05 -0,-0.04 -0.07,-0.04 -0.01,0 -0.04,-0 -0.05,0 -0.01,0.01 -0.01,0.03 -0.01,0.04 -0,0.02 -0.01,0.02 -0.03,0.03 -0.01,0 -0.03,0.01 -0.04,0.02z"/>
   <path class="fil3" d="M0.42 0.66c-0.06,-0.01 -0.12,-0.04 -0.16,-0.07 -0.14,-0.12 -0.16,-0.32 -0.03,-0.46 -0.03,0.01 -0.04,-0.03 -0.06,-0.03 -0.01,-0 -0.04,0.03 -0.05,0.04 -0.02,0.02 -0.04,0.04 -0.03,0.05 0.03,0.03 0.04,0.02 0.02,0.05 -0,0.01 -0.01,0.02 -0.01,0.03 -0,0.01 -0.01,0.02 -0.02,0.02 -0.04,0 -0.05,-0.01 -0.05,0.04 0,0.02 -0.01,0.07 0.01,0.08 0.01,0.01 0.03,0 0.04,0 0.02,0 0.02,0 0.03,0.02 0,0.01 0.01,0.02 0.01,0.03 0.01,0.03 0.01,0.02 -0.02,0.06 -0.01,0.01 -0.01,0.02 0,0.03 0.02,0.02 0.03,0.03 0.05,0.05 0.03,0.03 0.03,0.02 0.05,-0 0.03,-0.03 0.02,-0.02 0.06,-0 0.04,0.02 0.04,0.01 0.04,0.06 0,0.03 0.02,0.02 0.07,0.02 0.05,0 0.06,0.01 0.06,-0.03z"/>
   <path class="fil4" d="M0.78 1.06c-0.11,-0.01 -0.19,-0.08 -0.24,-0.14 -0.03,-0.03 -0.05,-0.07 -0.06,-0.12 -0.01,-0.03 -0.03,-0.14 -0.01,-0.16 -0.01,0 -0.01,0 -0.01,0.02 0,0.02 -0,0.04 -0.03,0.05 -0.02,0.01 -0.08,0.01 -0.11,0.01 -0,0.01 -0,0.05 0,0.06 0.01,0.02 0.04,0.01 0.06,0.01 0.03,-0 0.02,0.01 0.03,0.03 0,0.01 0.02,0.04 0.02,0.05 0,0.02 -0.07,0.05 -0.04,0.08 0.02,0.02 0.04,0.04 0.07,0.07 0.01,0.01 0.03,0.03 0.04,0.01 0.04,-0.05 0.04,-0.03 0.08,-0.02 0.02,0.01 0.04,0.01 0.04,0.03 0.01,0.07 -0.01,0.07 0.06,0.07 0.02,0 0.05,0 0.07,-0 0.02,-0 0.02,-0.02 0.02,-0.04z"/>
   <path class="fil5" d="M0.69 0.6c0.07,-0.01 0.13,0.04 0.13,0.1 0.01,0.07 -0.04,0.12 -0.09,0.13 -0.07,0.01 -0.13,-0.04 -0.14,-0.1 -0.01,-0.06 0.03,-0.12 0.1,-0.13zm-0.12 0.05c-0.01,0.03 0.01,0.07 0.02,0.1 0.01,0.03 0.03,0.05 0.05,0.07 0.04,0.04 0.11,0.06 0.18,0.04 0.01,-0 0.03,-0.03 0.04,-0.04 0.03,-0.05 0.04,-0.12 0.01,-0.18 -0.01,-0.02 -0.01,-0.02 0,-0.03 -0,-0 -0.01,-0.01 -0.01,-0.01 -0.01,-0.01 -0.01,-0.01 -0.01,-0.02 -0.02,0.01 -0.03,0 -0.04,-0.01 -0.01,-0.01 -0.03,-0.02 -0.04,-0.02 -0.04,-0.02 -0.07,-0.01 -0.11,-0.01 -0,0.04 -0.01,0.04 -0.04,0.07 -0.01,0.01 -0.04,0.04 -0.06,0.05z"/>
   <path class="fil0" d="M0.48 0.24c-0.01,0.02 0.01,0.03 0.02,0.07 0.01,0.03 0.01,0.06 0,0.09 -0.01,0.03 -0.02,0.05 -0.04,0.07 -0.01,0.01 -0.05,0.04 -0.07,0.04l-0.01 0c-0.04,0.01 -0.08,-0 -0.11,-0.02 -0.07,-0.05 -0.1,-0.14 -0.05,-0.21 0.02,-0.03 0.05,-0.06 0.09,-0.07 0.02,-0.01 0.06,-0.01 0.08,-0.01 0.01,0 0.02,0.01 0.04,0.01 0.02,0.01 0.02,0.01 0.03,-0 -0,-0.02 -0,-0.02 -0.02,-0.03 -0.01,-0 -0.02,-0.01 -0.03,-0.01 -0.03,-0.01 -0.06,-0.01 -0.08,-0 -0.16,0.03 -0.21,0.23 -0.09,0.33 0.06,0.05 0.14,0.06 0.21,0.02 0.02,-0.01 0.04,-0.03 0.05,-0.04 0.03,-0.03 0.05,-0.07 0.05,-0.14 -0,-0.03 -0.01,-0.05 -0.02,-0.07 -0.01,-0.01 -0.01,-0.02 -0.02,-0.03 -0.01,-0.01 -0.01,-0.02 -0.03,-0.01z"/>
   <path class="fil1" d="M0.31 0.21c-0.02,0.02 -0.03,0.03 -0.04,0.05 -0,0.01 -0.03,0.07 -0.01,0.07 0.01,-0.04 0.04,-0.08 0.09,-0.08 0.11,-0.01 0.15,0.14 0.06,0.19 -0.07,0.04 -0.13,-0.01 -0.13,-0.01 -0,0 -0,-0 0,0.01l0.02 0.02c0.01,0.01 0.02,0.02 0.03,0.02 0.02,0.01 0.05,0.03 0.07,0.03 0.02,0 0.06,-0.03 0.07,-0.04 0.02,-0.02 0.03,-0.04 0.04,-0.07 0.01,-0.03 0.01,-0.06 -0,-0.09 -0.01,-0.04 -0.04,-0.05 -0.02,-0.07 -0,-0.01 -0,-0 -0,-0.01 -0,-0 -0,-0 -0.01,-0.01 -0,-0 -0.01,-0.01 -0.01,-0.01 -0.02,0.01 -0.01,0.01 -0.03,0 -0.01,-0 -0.02,-0.01 -0.04,-0.01 -0.02,-0 -0.06,-0 -0.08,0.01z"/>
   <path class="fil0" d="M0.7 0.64c0.05,0 0.08,0.04 0.08,0.08l0 0.01c0,0.05 -0.06,0.1 -0.12,0.07 -0.01,-0.01 -0.01,-0.01 -0.02,-0.02 -0.03,-0.03 -0.03,-0.08 0,-0.12 0.01,-0.01 0.03,-0.02 0.06,-0.02zm-0.02 -0.03c-0.07,0.01 -0.11,0.07 -0.1,0.13 0.01,0.06 0.07,0.11 0.14,0.1 0.06,-0.01 0.1,-0.07 0.09,-0.13 -0.01,-0.06 -0.06,-0.11 -0.13,-0.1z"/>
   <path class="fil6" d="M0.82 0.86c-0.07,0.02 -0.14,-0 -0.18,-0.04 -0.02,-0.02 -0.04,-0.04 -0.05,-0.07 -0.01,-0.03 -0.02,-0.06 -0.02,-0.1 -0.02,0.01 -0.02,0 -0.04,0 -0.04,0.13 0.06,0.24 0.18,0.24 0.04,-0 0.09,-0.02 0.11,-0.04z"/>
   <path class="fil0" d="M0.43 0.36c0,0.04 -0.03,0.07 -0.07,0.07 -0.06,0 -0.1,-0.08 -0.05,-0.12 0.04,-0.04 0.11,-0 0.11,0.05zm-0.17 -0.02c-0,0.02 -0,0.04 0,0.06 0.01,0.02 0.01,0.03 0.02,0.04 0,0 0.06,0.06 0.13,0.01 0.09,-0.06 0.05,-0.2 -0.06,-0.19 -0.05,0 -0.08,0.04 -0.09,0.08z"/>
   <path class="fil4" d="M0.4 0.51c-0.02,0 -0.06,-0.01 -0.07,-0.03 -0.01,-0.01 -0.02,-0.02 -0.03,-0.02l-0.02 -0.02c-0.01,-0.01 -0,-0 -0,-0.01 -0.01,-0.01 -0.02,-0.02 -0.02,-0.04 -0.01,-0.02 -0.01,-0.03 -0,-0.06 -0.01,-0 0.01,-0.06 0.01,-0.07 0.01,-0.03 0.02,-0.03 0.04,-0.05 -0.04,0.01 -0.07,0.04 -0.09,0.07 -0.04,0.07 -0.02,0.16 0.05,0.21 0.03,0.02 0.07,0.03 0.11,0.02l0.01 -0z"/>
  </g>
 </g>
</svg>
