<?xml version="1.0" encoding="UTF-8"?>
<!DOCTYPE svg PUBLIC "-//W3C//DTD SVG 1.1//EN" "http://www.w3.org/Graphics/SVG/1.1/DTD/svg11.dtd">
<!-- Creator: CorelDRAW 2020 (64-Bit) -->
<svg xmlns="http://www.w3.org/2000/svg" xml:space="preserve" width="186.186mm" height="186.186mm" version="1.1" style="shape-rendering:geometricPrecision; text-rendering:geometricPrecision; image-rendering:optimizeQuality; fill-rule:evenodd; clip-rule:evenodd"
viewBox="0 0 186.57 186.57"
 xmlns:xlink="http://www.w3.org/1999/xlink"
 xmlns:xodm="http://www.corel.com/coreldraw/odm/2003">
 <defs>
  <style type="text/css">
   <![CDATA[
    .fil1 {fill:black}
    .fil5 {fill:#5BC980}
    .fil2 {fill:#7EE780}
    .fil3 {fill:#DDF2FD}
    .fil6 {fill:#F0F6FA}
    .fil4 {fill:#F89580}
    .fil0 {fill:#FFBDAA}
   ]]>
  </style>
 </defs>
 <g id="Capa_x0020_1">
  <metadata id="CorelCorpID_0Corel-Layer"/>
  <g id="_1703424222144">
   <path class="fil0" d="M87.09 88.94l0 7.28c3.12,0.46 2.92,2.33 2.9,5.44l0.01 25.89c0.01,2.5 -0.42,5.31 -3.45,4.56 -2.63,-0.65 -2.03,-4.08 -2.02,-6.75 0.01,-5.75 0,-11.5 0,-17.25 -3.41,-0.09 -6.19,-0 -8.64,1.67 -1.96,1.34 -3.59,3.58 -3.94,6.6 -0.64,5.58 -0.07,15.01 -0.07,21.01 -0,7.22 0.18,11.76 2.54,18.15 1.66,4.51 5.53,10.67 8.14,12.99 4.49,3.98 4.32,4.99 12,8.78 5.12,2.52 10.87,3.76 17.31,3.81 7.3,0.06 35.47,0.81 40.09,-1.52l0.78 -0.58c6.57,-4.21 3.97,-1.64 10.49,-7.76 1.65,-1.55 1.67,-1.7 2.96,-3.23 10.44,-12.4 9.29,-25.82 9.29,-41.56 0,-12.88 1.52,-12.87 -4.04,-21.35 -3.98,0.38 -6.33,2.09 -7.76,4.65 -2.15,3.83 0.23,7.93 -5.29,7.2 -2.54,-1.39 -1.03,-10.1 -1.47,-15.16 -0.92,-10.6 -15.49,-11.82 -18.23,-2.09 -1.23,4.38 0.83,9.73 -1.71,11.06 -6.42,3.35 -3.66,-12.16 -4.35,-15.98 -0.76,-4.23 -4.48,-7.93 -9.46,-7.79 -4.6,0.13 -8.3,3.65 -8.92,7.94 -0.62,4.28 0.63,13.44 -0.27,16.85 -0.63,2.37 -3.93,2.61 -4.97,0.42 -1.25,-2.62 0.96,-53.46 -0.97,-58.43 -3.6,-9.28 -17.81,-7.76 -18.05,3.79l0 25.52c0.01,3.26 0.48,5.39 -2.89,5.85z"/>
   <path class="fil1" d="M119.89 17.54c8.06,-0.01 6.89,1.51 6.89,9.06 -0,4.1 0.28,29.41 -0.13,31.21 -0.76,3.27 -5.23,2.53 -9.31,2.61 -3.53,0.06 -2.87,0.16 -3.16,-0.66 -0.33,-5.55 -0.44,-8.92 -3.72,-12.42 -6.48,-6.89 -15.62,-6.91 -22.41,0.24 -3.89,4.1 -2.87,6.96 -3.63,12.77 -17.6,0.28 -35.44,0.01 -53.07,0.01 -15.05,0 -13.8,2.31 -13.8,-12.63 0,-32.3 -3,-30.2 9.79,-30.2l92.56 0zm-104.33 -17.54l101.77 0 12.12 0c3.09,0.24 5.92,0.86 8.15,2.32 6.36,4.17 6.69,8.95 6.69,15.53 -0,15.06 -0.07,30.14 0.01,45.19 0.04,7.01 -4.03,11.45 -8.87,13.72 -4.65,2.19 -14.51,1.21 -21.02,1.21l0 6.19c1.1,-0.29 1.93,-1.04 3.17,-1.57 5.52,-2.35 12.57,-1.1 16.51,3.39 1.19,1.36 2.8,3.43 3.28,5.47 1.29,-0.86 0.98,-1.05 3.43,-2.4 4.09,-2.27 9.73,-2.01 13.32,-0.14 4.36,2.28 8.39,7.14 8.39,13.84 5.1,-3.42 10.49,-4.81 16.11,-1.54 3.98,2.31 7.69,6.48 7.94,12.54l0 26.43c-0.23,5.83 -0.76,11.16 -1.86,14.63 -4.86,15.28 -17.2,26.93 -32.74,30.66 -2.57,0.62 -7.23,0.93 -12.59,1.08l-28.25 0c-15.54,0.01 -29.23,-7.9 -37.52,-20.4 -0.71,-1.07 -1.18,-2.05 -1.89,-3.21 -6.62,-10.87 -5.39,-24.73 -5.39,-36.87 0,-8.28 -0.64,-13.11 3.22,-17.92 3.45,-4.3 7.37,-5.77 15,-5.77 0,-3.21 -0.56,-5.99 2.55,-6.18 3.12,0.46 2.92,2.33 2.9,5.44l0.01 25.89c0.01,2.5 -0.42,5.31 -3.45,4.56 -2.63,-0.65 -2.03,-4.08 -2.02,-6.75 0.01,-5.75 0,-11.5 0,-17.25 -3.41,-0.09 -6.19,-0 -8.64,1.67 -1.96,1.34 -3.59,3.58 -3.94,6.6 -0.64,5.58 -0.07,15.01 -0.07,21.01 -0,7.22 0.18,11.76 2.54,18.15 1.66,4.51 5.53,10.67 8.14,12.99 4.49,3.98 4.32,4.99 12,8.78 5.12,2.52 10.87,3.76 17.31,3.81 7.3,0.06 35.47,0.81 40.09,-1.52 13.01,-2.43 24.89,-15.45 28.05,-28.74 1.79,-7.51 1.1,-18.77 1.1,-26.95 0,-3.93 0.54,-10.01 -0.91,-13.3 -1.33,-3.03 -4.25,-5.46 -8.76,-5.5 -3.98,0.38 -6.33,2.09 -7.76,4.65 -2.15,3.83 0.23,7.93 -5.29,7.2 -2.54,-1.39 -1.03,-10.1 -1.47,-15.16 -0.92,-10.6 -15.49,-11.82 -18.23,-2.09 -1.23,4.38 0.83,9.73 -1.71,11.06 -6.42,3.35 -3.66,-12.16 -4.35,-15.98 -0.76,-4.23 -4.48,-7.93 -9.46,-7.79 -4.6,0.13 -8.3,3.65 -8.92,7.94 -0.62,4.28 0.63,13.44 -0.27,16.85 -0.63,2.37 -3.93,2.61 -4.97,0.42 -1.25,-2.62 0.96,-53.46 -0.97,-58.43 -3.6,-9.28 -17.81,-7.76 -18.05,3.79l0 25.52c0.01,3.26 0.48,5.39 -2.89,5.85 -2.64,-0.3 -2.59,-1.53 -2.56,-4.39 0.02,-2.19 0.01,-4.38 0.01,-6.57l-39.35 0c-6.27,0 -9.46,0.99 -10.41,-2.55 0.92,-4.31 5.57,-2.99 10.04,-2.99l39.63 -0.02 0.08 -6.57c-18.2,-0.51 -40.45,-0.03 -59.39,-0.03 -4.65,0 -11.37,0.28 -12.86,-7.01 -0.53,-2.6 -0.55,-36.31 -0.09,-39.35 1.15,-7.49 8.09,-7.4 12.59,-7.4 10.37,0.01 95.83,-0.39 99.77,0.09 7.17,0.88 7.69,7.07 7.68,11.88 -0.01,6.68 -0,13.36 -0,20.04 0,5.28 1.01,14.72 -1.77,18.23 -4.02,5.08 -9.21,2.84 -16.34,3.61l0.02 6.45c3.55,0.24 16.23,0.46 18.84,-0.62 5.57,-2.3 5.87,-6.61 5.87,-13.83 -0,-13.24 -0.02,-26.48 0,-39.72 0.02,-16.06 -9.36,-12.76 -26.98,-12.76 -10.35,0 -95.38,-0.48 -98.94,0.21 -7.2,1.39 -7.47,7.61 -7.46,12.55 0.02,13.24 0,26.48 0,39.72 -0,14.6 4.43,14.51 14.94,14.51 3.82,-0 6.87,-0.89 7.28,2.99 -0.25,3.47 -4.95,2.55 -8.74,2.55 -4.29,0 -7,0.25 -10.09,-1.21 -4.68,-2.21 -8.65,-6.44 -8.86,-13.07l0 -2.41c0.07,-14.48 0,-28.97 0,-43.44 -0,-6.78 0.62,-11.66 6.91,-15.68 2.39,-1.52 4.76,-2.14 8.65,-2.18z"/>
   <path class="fil2" d="M69.27 33.1c0.85,-0.71 1.48,-1.47 2.43,-2.22l7.94 -6.99c1.98,-1.49 5.17,-1.46 7.18,0.07l4.71 5.14c1.67,2.07 2.14,5.11 0.29,7.34l-5.11 4.71c-3.64,2.95 -6.87,6.22 -10.51,9.18 -5.86,4.75 -5.83,7.4 -12.21,1.94l-10.58 -9.09c-1.69,-1.64 -3.01,-4.28 -1.36,-7.18 0.55,-0.97 5.16,-6.42 7.43,-7.14 4.72,-1.5 7.09,3.16 9.81,4.25zm44.9 26.66l6.23 0.1c1.35,-2.58 0.74,-26.05 0.74,-32.16 0,-3.09 0.86,-8.02 -1.25,-10.15l-92.56 -0c-12.8,-0 -9.79,-2.11 -9.79,30.2 0,14.94 -1.25,12.63 13.8,12.63 17.63,0 35.47,0.27 53.07,-0.01 0.76,-5.81 -0.26,-8.67 3.63,-12.77 6.78,-7.15 15.93,-7.13 22.41,-0.24 3.29,3.5 3.39,6.86 3.72,12.42z"/>
   <path class="fil3" d="M27.69 75.43l7.09 0c0.92,-4.31 5.57,-2.99 10.04,-2.99l39.63 -0.02 0.08 -6.57c-18.2,-0.51 -40.45,-0.03 -59.39,-0.03 -4.65,0 -11.37,0.28 -12.86,-7.01 -0.53,-2.6 -0.55,-36.31 -0.09,-39.35 1.15,-7.49 8.09,-7.4 12.59,-7.4 10.37,0.01 95.83,-0.39 99.77,0.09 7.17,0.88 7.69,7.07 7.68,11.88 -0.01,6.68 -0,13.36 -0,20.04 0,5.28 1.01,14.72 -1.77,18.23 -4.02,5.08 -9.21,2.84 -16.34,3.61l0.02 6.45c3.55,0.24 16.23,0.46 18.84,-0.62 5.57,-2.3 5.87,-6.61 5.87,-13.83 -0,-13.24 -0.02,-26.48 0,-39.72 0.02,-16.06 -9.36,-12.76 -26.98,-12.76 -10.35,0 -95.38,-0.48 -98.94,0.21 -7.2,1.39 -7.47,7.61 -7.46,12.55 0.02,13.24 0,26.48 0,39.72 -0,14.6 4.43,14.51 14.94,14.51 3.82,-0 6.87,-0.89 7.28,2.99z"/>
   <path class="fil1" d="M61.22 34.1c3.98,2.18 6.98,7.77 12.02,2.7 1.39,-1.4 3.5,-3.14 5.08,-4.4l4.77 -4.22c1.13,0.73 3.85,3.7 4.4,5.11l-18.25 15.91c-1.34,-0.57 -4.81,-3.79 -6.3,-5l-6.02 -5.2c0.35,-1.05 3.44,-4.39 4.3,-4.89zm8.05 -1c-2.72,-1.09 -5.08,-5.75 -9.81,-4.25 -2.27,0.72 -6.88,6.17 -7.43,7.14 -1.65,2.9 -0.32,5.55 1.36,7.18l10.58 9.09c6.39,5.46 6.35,2.81 12.21,-1.94 3.65,-2.96 6.88,-6.22 10.51,-9.18l5.11 -4.71c1.85,-2.23 1.38,-5.26 -0.29,-7.34l-4.71 -5.14c-2,-1.52 -5.2,-1.56 -7.18,-0.07l-7.94 6.99c-0.94,0.74 -1.58,1.51 -2.43,2.22z"/>
   <path class="fil4" d="M151.95 179.59c13.01,-2.43 24.89,-15.45 28.05,-28.74 1.79,-7.51 1.1,-18.77 1.1,-26.95 0,-3.93 0.54,-10.01 -0.91,-13.3 -1.33,-3.03 -4.25,-5.46 -8.76,-5.5 5.56,8.48 4.04,8.47 4.04,21.35 0,15.74 1.15,29.16 -9.29,41.56 -1.29,1.53 -1.31,1.69 -2.96,3.23 -6.53,6.13 -3.92,3.56 -10.49,7.76l-0.78 0.58z"/>
   <path class="fil5" d="M114.16 59.76c0.29,0.81 -0.37,0.72 3.16,0.66 4.08,-0.07 8.56,0.66 9.31,-2.61 0.42,-1.8 0.13,-27.11 0.13,-31.21 0,-7.55 1.17,-9.07 -6.89,-9.06 2.11,2.13 1.25,7.06 1.25,10.15 0,6.11 0.61,29.59 -0.74,32.16l-6.23 -0.1z"/>
   <path class="fil6" d="M61.22 34.1c-0.86,0.5 -3.95,3.85 -4.3,4.89l6.02 5.2c1.48,1.21 4.95,4.43 6.3,5l18.25 -15.91c-0.55,-1.41 -3.27,-4.38 -4.4,-5.11l-4.77 4.22c-1.58,1.27 -3.69,3 -5.08,4.4 -5.04,5.07 -8.04,-0.52 -12.02,-2.7z"/>
  </g>
 </g>
</svg>
