<?xml version="1.0" encoding="UTF-8"?>
<!DOCTYPE svg PUBLIC "-//W3C//DTD SVG 1.1//EN" "http://www.w3.org/Graphics/SVG/1.1/DTD/svg11.dtd">
<!-- Creator: CorelDRAW 2020 (64-Bit) -->
<svg xmlns="http://www.w3.org/2000/svg" xml:space="preserve" width="104.77mm" height="104.834mm" version="1.1" style="shape-rendering:geometricPrecision; text-rendering:geometricPrecision; image-rendering:optimizeQuality; fill-rule:evenodd; clip-rule:evenodd"
viewBox="0 0 1600.89 1601.87"
 xmlns:xlink="http://www.w3.org/1999/xlink"
 xmlns:xodm="http://www.corel.com/coreldraw/odm/2003">
 <defs>
  <style type="text/css">
   <![CDATA[
    .fil0 {fill:black}
    .fil6 {fill:#696F74}
    .fil15 {fill:#7A8186}
    .fil2 {fill:#7C8287}
    .fil13 {fill:#83BFFF}
    .fil8 {fill:#919196}
    .fil4 {fill:#A0A0A6}
    .fil5 {fill:#ACD1FF}
    .fil14 {fill:#CCBEB9}
    .fil7 {fill:#D93131}
    .fil11 {fill:#E0D2CD}
    .fil1 {fill:#E94444}
    .fil9 {fill:#EFE2DD}
    .fil3 {fill:#FDB440}
    .fil10 {fill:#FDF4F4}
    .fil12 {fill:#FEA812}
   ]]>
  </style>
 </defs>
 <g id="Capa_x0020_1">
  <metadata id="CorelCorpID_0Corel-Layer"/>
  <g id="_2695531000864">
   <path class="fil0" d="M91.02 1484.31c-1.49,-14.97 0.96,-32.57 5.65,-47.05l37.88 40.55c8.98,5.19 28.18,22.34 31.88,31.53l-82.38 12.8c0.99,-12.45 1.43,-30.39 6.96,-37.82zm218.31 -1484.31l52.64 0c151.24,11.39 275.36,120.65 305.87,263.53 18.23,85.41 -0.79,122.44 -1.65,158.08l109.52 107.89 274.55 -272.96c-10.5,-21.89 -8.53,-48.9 1.97,-69.99 11.16,-22.4 21.51,-30.15 37.92,-46.56 43.36,-43.36 57.69,-53.6 116.54,-39.89 10.42,-15.56 40.7,-43.85 57.51,-55.12 58.79,-39.43 109.66,-13.94 152.9,29.31l111.07 111.07c44.86,44.83 67.17,96.47 27.67,154.38 -6.67,9.77 -45.99,48.39 -55.05,54.45 10.1,21.06 7.91,52.7 -1.91,73.18 -8.97,18.69 -65.22,74.18 -85.62,83.33 -29.27,13.12 -38.17,5.62 -69.68,2.28l-272.19 273.74 113.4 111.86c19.58,-1.63 39.69,-8.69 62.49,-9.51 30.9,-1.12 41.73,0.68 47.01,25.9 -31.66,41.24 -10.72,7.88 -102.09,31.8 -16.66,4.36 -33.27,10.63 -48.13,17.46 -35.07,16.12 -39.09,24.62 -39.09,24.61 -0.29,-0.56 -1.12,1.31 -1.65,1.99 -12.38,2.23 -26.15,17.21 -35.4,25.56 -175.31,158.14 -79.38,481.02 180.04,497.73 12.34,0.79 43.19,3 54.1,-4.35 1.55,-12.82 -19.58,-27.96 -28.41,-36.79l-100.11 -100.13c-29.15,-29.36 -37.1,-42.58 -26.23,-95.76 5.33,-26.09 14.87,-90.22 23.57,-110.85 6.12,-14.51 20.73,-29.34 32.4,-36.34 18.78,-11.27 145.5,-33.54 166.45,-28.24 42.81,10.82 108.09,100.23 142.61,125.84 7.11,9.47 27.39,33.98 39.65,32.4 1.24,-1.92 1.43,-1.25 2.92,-6.24l1.99 -23.36c0.32,-32.17 -3.63,-59.89 -12.89,-90.23 -11.58,-37.93 -25.79,-60.95 -45.61,-88.95 -20.17,-28.49 -41.89,-45.96 -71.15,-66.55 -52.5,-36.96 -76.48,-20.56 -72.58,-60.95 11.81,-25.15 35.57,-12.96 55.4,-3.18 57.39,28.33 98.19,60.39 135.76,114.53 48.22,69.47 54.99,117.79 55.04,195.26l0 33.02c-0.88,12.53 -4.37,20.88 -16.23,32.09 -16.16,15.27 -41.98,18.36 -64.24,5.98 -16.53,-9.19 -109.09,-105.79 -126.8,-123.49 -15.22,-15.22 -26.04,-33.24 -49.49,-29.35 -152.59,25.28 -124.66,13.13 -142.92,104.44 -16.46,82.32 -15.04,64.74 34.41,114.19 28.4,28.4 54.5,54.52 82.91,82.91 13.6,13.59 31.29,27.29 32.36,52.41 1.6,37.55 -22.94,53.95 -54.74,59.44l-63.43 0c-23.75,-2.96 -45.23,-8.2 -57.75,-12.1 -167.11,-52.14 -264.18,-203.91 -240.35,-375.72 1.69,-12.17 5.16,-22.98 5.37,-33.8l-111.88 -110.25c-15.25,10.21 -355.29,353.73 -385.6,384.04 -19.51,19.51 -48.44,55.53 -63.79,64.49 -26.69,15.57 -220.49,40.09 -272.85,49.42 -21.68,3.86 -33.35,4.07 -49.39,-7.89 -31.3,-23.33 -18.64,-60.24 -12.72,-101.17 5.16,-35.72 10.37,-73.58 16.06,-112.21l16.4 -111.87c5.63,-16.61 105.77,-111.55 125.38,-131.17 35.25,-35.25 44.25,-54.78 72.82,-39.89 13.5,31.61 -2.03,36.66 -18.71,53.33 -14.31,14.3 -26.39,26.32 -40.73,40.62 -15.93,15.9 -75.11,70.05 -81.53,85.35 37.87,32.91 173.19,179.07 193.85,190.86l30.45 34.22c15.55,-7.16 94.25,-90.82 112.14,-108.71 36.75,-36.75 71.25,-71.15 107.94,-107.94 61.64,-61.81 156.64,-160.75 216.24,-215.89 -5.91,-12.33 -25.77,-30.75 -36.77,-36.79 -3.93,-8.93 -15.61,-18.24 -23.1,-25.73 -8.58,-8.58 -14.87,-14.9 -23.44,-23.49 -25.38,-25.42 -132.51,-136.75 -146.07,-142.87l-119.7 121.09c-20.7,20.45 -38.9,38.83 -59.47,59.41 -42.16,42.15 -38.48,47.6 -70.5,35.74 -9.85,-20.02 -5.96,-27.31 8.52,-41.4l208.12 -209.53 -110.27 -108.73c-53.15,4.42 -76.92,20.4 -160.22,0.66 -48.11,-11.4 -87.97,-30.45 -122.28,-56.05 -68.01,-50.73 -116.73,-121.55 -134.1,-222.57 -6.82,-39.63 -14.88,-121.8 41.87,-131.29 32.99,-5.52 47.86,11.87 62.66,26.76 15.31,15.41 28.44,28.44 43.8,43.8 89.99,89.99 76.11,93.9 127.48,85.27 128.88,-21.67 106.18,-9.94 123.85,-98.3 3.64,-18.16 15.34,-58.91 7.68,-73.86l-133.9 -135.21c-48.44,-47.58 -13.88,-99.05 30.57,-102.46l0.53 -0.03zm-31.58 1453.28c8.65,4.98 10.19,7.8 17.54,15.04 12.6,12.42 10.72,8.69 13.24,17.78l-84.47 13.94 -28.56 -32.67 -91.75 -90c1.9,-20.31 5.85,-72.41 14.59,-84.81 14.24,11.26 154.85,151.25 159.41,160.72zm343.44 -933.75c5.91,-14 17.03,-31.41 24.33,-47.19 11.57,6.19 479.5,473.73 485.53,485.02 -7.71,5.87 -38.94,22.31 -46.46,25.49 -20.35,19.08 -38.95,23.44 -71.08,62.93 -22.19,27.27 -35.93,47.54 -52.94,83.67 -12.05,-6.61 -478.74,-472.83 -485.45,-484.96 15.93,-12.32 38.78,-17.52 81.32,-52.63 15.46,-12.75 22.12,-18.32 34.77,-34.1l29.97 -38.24zm379.81 235.6c-8.87,-3.92 -16.15,-13.51 -24.19,-21.55 -30.38,-30.42 -161.9,-158.02 -167.97,-171.11 13.93,-9.71 113.96,-112.6 135.14,-133.73 19.94,-19.9 122.19,-125.08 134.98,-133.27 24.78,26.3 181.73,177.35 188.1,190.55l38.86 36.34 -268.34 269.43c-10.9,-5.27 -31.16,-26.8 -36.59,-36.65zm427.59 -372.46c10.3,8.33 31.18,23.75 31.12,45.94 -0.06,24.91 -59.59,78.82 -75.21,81.12 -25.71,3.79 -42.53,-15.57 -50.02,-27.95 -12.05,-6.91 -126.11,-124.02 -146.25,-144.21 -101.51,-101.8 -123.88,-103.58 -65.46,-161.82 35.96,-35.85 49.85,-50.23 88.41,-11.29 38.75,39.13 195.26,191.84 217.42,218.21zm76.19 -151.99c17.32,12.65 30.93,44.25 16.24,74.38 -6.68,13.7 -38.07,41.87 -49.42,52.33l-30.65 -31.69c-14.56,-10.22 -191.49,-188.19 -196.42,-197.8 15.42,-13.94 39.86,-46.84 66.2,-52 40.76,-7.99 60.97,20.36 77.38,36.78l116.67 118.01zm-931.59 270.13c-3.52,18.16 -44.97,54.01 -58.59,64.81 -20.18,15.99 -49.97,32.6 -79.31,42.72 -67.21,23.18 -140.79,21.58 -205.1,-4.18 -115.44,-46.23 -184.64,-157.29 -180.84,-278.95 0.25,-8.07 0.43,-16.52 4.79,-23.28 12.96,-1.5 27.99,19.54 36.89,28.44 11.71,11.71 21.14,21.14 32.85,32.85 76.57,76.55 87.03,108.53 163.75,94.08 25.24,-4.75 93.41,-14.08 111.13,-23.16 34.43,-17.65 38.44,-43.65 47.32,-86.97 25.43,-124.06 32.14,-112.8 -43.1,-187.95 -18.33,-18.3 -53.1,-49.13 -66.53,-67.63 -9.36,-6.72 -33.43,-26.38 -32.5,-40.06 40.72,-18.65 138.68,11.4 170.96,29.54 96.26,54.07 156.24,150.21 152.43,266.21 -1.36,41.32 -23.09,128.86 -54.16,153.55z"/>
   <path class="fil1" d="M315.02 1022.93l-40.59 40.81c13.5,31.61 -2.03,36.66 -18.71,53.33 -14.31,14.3 -26.39,26.32 -40.73,40.62 -15.93,15.9 -75.11,70.05 -81.53,85.35 37.87,32.91 173.19,179.07 193.85,190.86 48.68,-53.65 158.61,-158.97 216.3,-216.66 36.74,-36.74 71.19,-71.2 107.94,-107.94 10.94,-10.94 103.29,-97.4 105.77,-110.52 -3.93,-8.93 -15.61,-18.24 -23.1,-25.73 -8.58,-8.58 -14.87,-14.9 -23.44,-23.49 -25.38,-25.42 -132.51,-136.75 -146.07,-142.87l-119.7 121.09c-20.7,20.45 -38.9,38.83 -59.47,59.41 -42.16,42.15 -38.48,47.6 -70.5,35.74z"/>
   <path class="fil2" d="M1103.33 1030.84c-12.38,2.23 -26.15,17.21 -35.4,25.56 -175.31,158.14 -79.38,481.02 180.04,497.73 12.34,0.79 43.19,3 54.1,-4.35 1.55,-12.82 -19.58,-27.96 -28.41,-36.79l-100.11 -100.13c-29.15,-29.36 -37.1,-42.58 -26.23,-95.76 5.33,-26.09 14.87,-90.22 23.57,-110.85 6.12,-14.51 20.73,-29.34 32.4,-36.34 18.78,-11.27 145.5,-33.54 166.45,-28.24 42.81,10.82 108.09,100.23 142.61,125.84 -2.08,-71.98 -72.87,-163.85 -134.55,-202.87 -34.83,-22.03 -73.94,-39.2 -122.55,-46.77 -63.41,-9.88 -95.26,0.23 -151.93,12.98z"/>
   <path class="fil2" d="M573.19 500.81c24.31,-101.36 27.88,-178.7 -33.77,-274.64 -39.51,-61.5 -129.46,-132.21 -202.97,-134.6 13.43,18.5 48.2,49.33 66.53,67.63 75.24,75.15 68.53,63.9 43.1,187.95 -8.88,43.32 -12.89,69.32 -47.32,86.97 -17.72,9.08 -85.88,18.41 -111.13,23.16 -76.72,14.45 -87.18,-17.53 -163.75,-94.08 -11.71,-11.71 -21.14,-21.14 -32.85,-32.85 -8.9,-8.9 -23.93,-29.93 -36.89,-28.44 -4.36,6.76 -4.54,15.21 -4.79,23.28 -3.79,121.66 65.4,232.72 180.84,278.95 64.31,25.76 137.89,27.37 205.1,4.18 29.34,-10.12 59.13,-26.72 79.31,-42.72 13.62,-10.79 55.07,-46.64 58.59,-64.81z"/>
   <path class="fil1" d="M1001 755.13c13.83,-2.57 184.56,-179.84 202.75,-198.04 12.23,-12.24 22.09,-22.22 34.38,-34.44l25.39 -24.88c7.1,-9.04 5.75,0.13 3.55,-11.75 -6.37,-13.2 -163.32,-164.25 -188.1,-190.55 -12.79,8.19 -115.04,113.37 -134.98,133.27 -21.18,21.13 -121.21,124.03 -135.14,133.73 6.07,13.09 137.59,140.69 167.97,171.11 8.03,8.04 15.32,17.63 24.19,21.55z"/>
   <path class="fil0" d="M639.11 653.06c41.8,-50.08 62.97,-8.26 102.34,31.19l216.41 215.18c18.94,25.38 -2.7,50.91 -20.22,58.18 -5.87,7.38 -23.83,4.77 -32.15,0.56l-214.31 -214.26c-36.16,-36.16 -73.26,-58.27 -52.06,-90.85zm370.92 285.52c2.59,-32.11 -1.02,-52.04 -19.25,-71.88 -53.78,-58.55 -156.51,-156.59 -217.31,-217.6 -15.08,-15.14 -28.31,-29.34 -44.01,-43.65 -18.91,-17.23 -35.2,-21.77 -67.15,-20.86 -67.38,13.96 -104.41,90.87 -50.1,147.52l250.31 250.34c56.66,54.84 128.06,19.91 147.51,-43.86z"/>
   <path class="fil3" d="M1334.47 481.79c31.3,-6.74 42.06,-23.06 58.27,-39.18 10.16,-10.11 41.31,-35.42 35.85,-59.93 -22.16,-26.37 -178.66,-179.08 -217.42,-218.21 -38.56,-38.93 -52.45,-24.56 -88.41,11.29 -58.41,58.24 -36.05,60.02 65.46,161.82 20.13,20.19 134.2,137.29 146.25,144.21z"/>
   <path class="fil4" d="M1084.59 982.85c-3.99,-14.51 -22.85,-27.93 -33.63,-38.71 -12.38,-12.38 -23.36,-23.31 -35.14,-35.2 0,34.05 -1.88,24.54 -5.79,29.63 -19.45,63.77 -90.85,98.7 -147.51,43.86l-250.31 -250.34c-54.3,-56.64 -17.27,-133.55 50.1,-147.52 7.74,-5.92 18.02,-5.97 23.38,-7.27 -18.63,-12.48 -45.5,-52.72 -64.5,-57.78l-29.97 38.24c-12.65,15.78 -19.32,21.34 -34.77,34.1 -42.55,35.11 -65.39,40.31 -81.32,52.63 6.7,12.12 473.4,478.35 485.45,484.96 17.01,-36.13 30.74,-56.4 52.94,-83.67 32.14,-39.49 50.73,-43.85 71.08,-62.93z"/>
   <path class="fil5" d="M1440.95 325.69c12.57,-3.8 33.1,-26.54 41.45,-37.39 10.71,-13.94 21.68,-32.89 22.38,-57.63l-116.67 -118.01c-16.41,-16.42 -36.62,-44.77 -77.38,-36.78 -26.34,5.16 -50.78,38.06 -66.2,52 4.93,9.61 181.86,187.58 196.42,197.8z"/>
   <path class="fil6" d="M1103.33 1030.84c56.67,-12.75 88.52,-22.85 151.93,-12.98 48.6,7.57 87.71,24.74 122.55,46.77 61.68,39.02 132.47,130.89 134.55,202.87 7.11,9.47 27.39,33.98 39.65,32.4 1.24,-1.92 1.43,-1.25 2.92,-6.24l1.99 -23.36c0.32,-32.17 -3.63,-59.89 -12.89,-90.23 -11.58,-37.93 -25.79,-60.95 -45.61,-88.95 -20.17,-28.49 -41.89,-45.96 -71.15,-66.55 -52.5,-36.96 -76.48,-20.56 -72.58,-60.95 -17.84,-3.62 -39.6,-10.56 -60.41,-8.64 -31.66,41.24 -10.72,7.88 -102.09,31.8 -16.66,4.36 -33.27,10.63 -48.13,17.46 -35.07,16.12 -39.09,24.62 -39.09,24.61 -0.29,-0.56 -1.12,1.31 -1.65,1.99z"/>
   <path class="fil7" d="M327.31 1433.9l30.45 34.22c15.55,-7.16 94.25,-90.82 112.14,-108.71 36.75,-36.75 71.25,-71.15 107.94,-107.94 61.64,-61.81 156.64,-160.75 216.24,-215.89 -5.91,-12.33 -25.77,-30.75 -36.77,-36.79 -2.48,13.11 -94.83,99.58 -105.77,110.52 -36.74,36.74 -71.19,71.19 -107.94,107.94 -57.69,57.69 -167.62,163.01 -216.3,216.66z"/>
   <path class="fil6" d="M336.46 91.57c73.51,2.39 163.45,73.1 202.97,134.6 61.65,95.94 58.08,173.28 33.77,274.64 31.08,-24.69 52.81,-112.23 54.16,-153.55 3.81,-116 -56.17,-212.13 -152.43,-266.21 -32.29,-18.14 -130.25,-48.19 -170.96,-29.54 -0.94,13.68 23.14,33.34 32.5,40.06z"/>
   <path class="fil8" d="M621.19 519.53c19,5.05 45.87,45.3 64.5,57.78 -5.36,1.31 -15.64,1.35 -23.38,7.27 31.95,-0.91 48.24,3.63 67.15,20.86 15.69,14.31 28.92,28.51 44.01,43.65 60.8,61.02 163.53,159.05 217.31,217.6 18.23,19.84 21.84,39.77 19.25,71.88 3.92,-5.09 5.79,4.42 5.79,-29.63 11.78,11.88 22.76,22.82 35.14,35.2 10.78,10.78 29.64,24.21 33.63,38.71 7.52,-3.17 38.75,-19.62 46.46,-25.49 -6.03,-11.29 -473.95,-478.82 -485.53,-485.02 -7.31,15.77 -18.42,33.19 -24.33,47.19z"/>
   <path class="fil7" d="M1001 755.13c5.42,9.86 25.68,31.38 36.59,36.65l268.34 -269.43 -38.86 -36.34c2.2,11.88 3.55,2.71 -3.55,11.75l-25.39 24.88c-12.29,12.22 -22.15,22.2 -34.38,34.44 -18.2,18.2 -188.92,195.47 -202.75,198.04z"/>
   <path class="fil9" d="M639.11 653.06c26.81,5.15 32.73,17.15 46.41,30.81l225.17 225.35c6.88,6.88 11.85,10.66 19.26,18.27 8.24,8.47 13.14,16.11 7.69,30.12 17.52,-7.27 39.16,-32.8 20.22,-58.18l-216.41 -215.18c-39.36,-39.45 -60.54,-81.27 -102.34,-31.19z"/>
   <path class="fil10" d="M937.64 957.61c5.45,-14.02 0.54,-21.66 -7.69,-30.12 -7.41,-7.61 -12.38,-11.4 -19.26,-18.27l-225.17 -225.35c-13.68,-13.65 -19.6,-25.66 -46.41,-30.81 -21.2,32.58 15.9,54.7 52.06,90.85l214.31 214.26c8.33,4.21 26.29,6.82 32.15,-0.56z"/>
   <path class="fil11" d="M195.5 1467.37c18.2,0.66 69.64,-5.1 82.25,-14.09 -4.57,-9.48 -145.17,-149.46 -159.41,-160.72 -8.74,12.41 -12.69,64.5 -14.59,84.81l91.75 90z"/>
   <path class="fil12" d="M1334.47 481.79c7.5,12.39 24.31,31.74 50.02,27.95 15.63,-2.3 75.15,-56.21 75.21,-81.12 0.06,-22.19 -20.82,-37.61 -31.12,-45.94 5.46,24.52 -25.69,49.82 -35.85,59.93 -16.2,16.12 -26.97,32.44 -58.27,39.18z"/>
   <path class="fil13" d="M1440.95 325.69l30.65 31.69c11.35,-10.46 42.73,-38.63 49.42,-52.33 14.69,-30.12 1.08,-61.73 -16.24,-74.38 -0.7,24.74 -11.66,43.69 -22.38,57.63 -8.34,10.85 -28.87,33.59 -41.45,37.39z"/>
   <path class="fil14" d="M195.5 1467.37l28.56 32.67 84.47 -13.94c-2.52,-9.09 -0.64,-5.36 -13.24,-17.78 -7.35,-7.24 -8.89,-10.07 -17.54,-15.04 -12.61,8.99 -64.05,14.75 -82.25,14.09z"/>
   <path class="fil6" d="M91.02 1484.31c-5.53,7.43 -5.97,25.37 -6.96,37.82l82.38 -12.8c-3.71,-9.19 -22.91,-26.34 -31.88,-31.53l-43.53 6.5z"/>
   <path class="fil15" d="M91.02 1484.31l43.53 -6.5 -37.88 -40.55c-4.69,14.48 -7.14,32.08 -5.65,47.05z"/>
  </g>
 </g>
</svg>
