<svg id="Capa_1" data-name="Capa 1" xmlns="http://www.w3.org/2000/svg" viewBox="0 0 300 300"><defs><style>.cls-1{fill:#ededed;}.cls-2{fill:#ce93d8;}.cls-3{fill:#0277bd;}.cls-4{fill:#ffd740;}.cls-5{fill:#e56161;}.cls-6{fill:#ffc400;}.cls-7{fill:#0469bc;}.cls-8{fill:#c087cc;}.cls-9{fill:#d65858;}.cls-10{fill:#fac7b7;}.cls-11{fill:#ffdecf;}.cls-12{fill:#525252;}.cls-13{fill:#ffe7a4;}.cls-14{fill:#f29c9c;}.cls-15{fill:#ffd3c2;}.cls-16{fill:#fff5f2;}</style></defs><title>Iconos_finales</title><g id="Contact_List" data-name="Contact List"><g id="Filled"><path class="cls-1" d="M235.6,49.511V250.489a14.887,14.887,0,0,1-14.887,14.887H71.842a22.331,22.331,0,0,1-22.331-22.331V56.955a7.444,7.444,0,0,1,7.444-7.444Z"/><path class="cls-2" d="M205.827,49.511h14.887V86.729H205.827Z"/><path class="cls-3" d="M220.714,109.06H235.6v37.218H220.714Z"/><path class="cls-4" d="M235.6,176.053h14.888v37.218H235.6Z"/><path class="cls-5" d="M205.827,209.549a11.165,11.165,0,0,1-11.165,11.165H71.842a22.331,22.331,0,0,0-22.331,22.331V56.955A22.331,22.331,0,0,1,71.842,34.624h122.82A11.166,11.166,0,0,1,205.827,45.79Z"/><path class="cls-6" d="M250.489,194.527A24.224,24.224,0,0,1,235.6,205.166v8.1h14.888Z"/><path class="cls-7" d="M235.6,132.089a24.086,24.086,0,0,1-14.887,6.67v7.519H235.6Z"/><path class="cls-8" d="M220.714,64.259A24.218,24.218,0,0,1,205.827,74.9V86.729h14.887Z"/><path class="cls-9" d="M86.729,176.053a126.482,126.482,0,0,1-37.218-5.573v59.162a26.062,26.062,0,0,1,22.331-12.65h122.82a14.838,14.838,0,0,0,10.816-4.664,11.228,11.228,0,0,0,.349-2.779V92.337A126.581,126.581,0,0,1,86.729,176.053Z"/><path class="cls-10" d="M114.513,159.435a18.606,18.606,0,0,0,31.765-13.157v-2.233l-7.443-1.489V127.669H116.5v14.887l-7.444,1.489v2.233A18.553,18.553,0,0,0,114.513,159.435Z"/><path class="cls-4" d="M164.085,147.606l-17.807-3.561v2.233a18.609,18.609,0,0,1-37.218,0v-2.233l-17.807,3.561a14.888,14.888,0,0,0-11.967,14.6v25.013h96.767V162.205a14.888,14.888,0,0,0-11.968-14.6Z"/><path class="cls-11" d="M137.555,96.034a34.644,34.644,0,0,1-9.886,1.861,34.657,34.657,0,0,1-9.886-1.861,12.465,12.465,0,0,0-14.825,5.812,1.916,1.916,0,0,1-.815.11c0,.014,0,.027.007.04l3.837,17.725a22.582,22.582,0,0,0,42.813,0L152.637,102c.023-.11.038-.219.059-.326a1.352,1.352,0,0,1-.443-.047,12.442,12.442,0,0,0-14.7-5.591Z"/><path class="cls-12" d="M127.393,71.842c-16.3,0-28.494,14.557-25.25,30.114a1.916,1.916,0,0,0,.815-.11,12.464,12.464,0,0,1,14.825-5.812,34.657,34.657,0,0,0,9.886,1.861,34.644,34.644,0,0,0,9.886-1.861,12.442,12.442,0,0,1,14.7,5.59,1.379,1.379,0,0,0,.443.046c3.035-15.45-9.107-29.828-25.3-29.828Z"/><path class="cls-10" d="M114.513,159.435a18.606,18.606,0,0,0,31.765-13.157v-2.233l-7.443-1.489V127.669H116.5v14.887l-7.444,1.489v2.233A18.553,18.553,0,0,0,114.513,159.435Z"/><path class="cls-6" d="M176.053,162.205a14.89,14.89,0,0,0-8.742-13.559,63.274,63.274,0,0,1-58.251,38.572h63.271a7.4,7.4,0,0,0,3.722-1Z"/><circle class="cls-13" cx="90.451" cy="157.444" r="7.444"/><circle class="cls-13" cx="105.338" cy="168.609" r="5.583"/><circle class="cls-14" cx="73.703" cy="55.094" r="7.444"/><circle class="cls-14" cx="88.59" cy="66.26" r="5.583"/><path class="cls-15" d="M151.253,108.391a55.687,55.687,0,0,1-40.724,19.254,22.632,22.632,0,0,0,16.864,7.468,22.35,22.35,0,0,0,21.407-15.39Z"/><circle class="cls-16" cx="110.921" cy="103.478" r="5.583"/><circle class="cls-16" cx="123.947" cy="110.921" r="3.722"/></g><g id="Outline"><path d="M235.6,97.9a3.721,3.721,0,0,0,3.722-3.722V49.511a3.722,3.722,0,0,0-7.443,0V94.173A3.721,3.721,0,0,0,235.6,97.9Z"/><path d="M239.323,172.331V161.165a3.722,3.722,0,0,0-7.443,0v89.324a11.179,11.179,0,0,1-11.166,11.165H71.842a18.609,18.609,0,0,1,0-37.218h122.82a14.9,14.9,0,0,0,14.887-14.887V90.451h14.887V45.79H209.549A14.9,14.9,0,0,0,194.662,30.9H71.842A26.083,26.083,0,0,0,45.79,56.955v186.09A26.083,26.083,0,0,0,71.842,269.1H220.714a18.63,18.63,0,0,0,18.609-18.609v-33.5H254.21V172.331Zm-29.774-119.1h7.443V83.008h-7.443ZM53.233,56.955A18.631,18.631,0,0,1,71.842,38.346h122.82a7.452,7.452,0,0,1,7.443,7.444V209.549a7.452,7.452,0,0,1-7.443,7.443H71.842a25.973,25.973,0,0,0-18.609,7.838ZM246.767,209.549h-7.444V179.774h7.444Z"/><path d="M71.842,239.323h29.84a3.722,3.722,0,1,0,0-7.443H71.842a3.722,3.722,0,1,0,0,7.443Z"/><path d="M224.436,228.158V150h14.887V105.338H224.436v-3.721a3.722,3.722,0,0,0-7.444,0V228.158a3.739,3.739,0,0,1-3.721,3.722H131.456a3.722,3.722,0,1,0,0,7.443h81.815A11.165,11.165,0,0,0,224.436,228.158Zm0-115.376h7.444v29.774h-7.444Z"/><circle cx="116.569" cy="235.601" r="3.722"/><circle cx="213.271" cy="250.489" r="3.722"/><path d="M71.842,254.21H198.383a3.722,3.722,0,1,0,0-7.443H71.842a3.722,3.722,0,1,0,0,7.443Z"/><path d="M79.286,187.218a3.722,3.722,0,0,0,3.722-3.722V162.2a11.194,11.194,0,0,1,8.976-10.948l13.471-2.694a22.331,22.331,0,0,0,44.429,0l13.471,2.694a11.2,11.2,0,0,1,8.976,10.948V183.5a3.722,3.722,0,1,0,7.443,0V162.2a18.655,18.655,0,0,0-14.959-18.247L147.038,140.4l-.021,0-4.461-.892v-4.392a3.722,3.722,0,0,0-.116-.91,25.52,25.52,0,0,0,9.909-13.357l.052-.166,3.88-17.918a28.284,28.284,0,0,0-5.786-23.73,29.908,29.908,0,0,0-46.2,0,28.3,28.3,0,0,0-5.781,23.752l.219,1.011a.147.147,0,0,0,.008.035l3.611,16.68.09.336a25.525,25.525,0,0,0,10.392,13.685,3.78,3.78,0,0,0-.051.582v4.392l-4.46.892-.022,0-17.776,3.556A18.656,18.656,0,0,0,75.564,162.2V183.5a3.721,3.721,0,0,0,3.722,3.722ZM110.072,83.723a22.466,22.466,0,0,1,34.643,0,21.053,21.053,0,0,1,4.453,9.9,16.441,16.441,0,0,0-12.747-1.131,30.442,30.442,0,0,1-8.752,1.684,30.442,30.442,0,0,1-8.752-1.684,16.39,16.39,0,0,0-13.35,1.469A21.034,21.034,0,0,1,110.072,83.723Zm-.485,35.034-3.3-15.236a8.727,8.727,0,0,1,10.361-3.943,37.188,37.188,0,0,0,11.02,2.039,37.182,37.182,0,0,0,11.02-2.039,8.766,8.766,0,0,1,9.956,3.279l-3.442,15.9a18.868,18.868,0,0,1-35.616,0Zm10.639,26.851v-7.74a27,27,0,0,0,14.887-.162v7.9l7.42,1.484a14.887,14.887,0,0,1-29.728,0Z"/><path d="M97.9,172.331a3.721,3.721,0,0,0-3.722,3.722V183.5a3.722,3.722,0,1,0,7.444,0v-7.443A3.722,3.722,0,0,0,97.9,172.331Z"/><path d="M157.444,172.331a3.721,3.721,0,0,0-3.722,3.722V183.5a3.722,3.722,0,1,0,7.443,0v-7.443A3.721,3.721,0,0,0,157.444,172.331Z"/></g></g></svg>