<?xml version="1.0" encoding="UTF-8"?>
<!DOCTYPE svg PUBLIC "-//W3C//DTD SVG 1.1//EN" "http://www.w3.org/Graphics/SVG/1.1/DTD/svg11.dtd">
<!-- Creator: CorelDRAW 2020 (64-Bit) -->
<svg xmlns="http://www.w3.org/2000/svg" xml:space="preserve" width="99.4572mm" height="99.4577mm" version="1.1" style="shape-rendering:geometricPrecision; text-rendering:geometricPrecision; image-rendering:optimizeQuality; fill-rule:evenodd; clip-rule:evenodd"
viewBox="0 0 48.01 48.02"
 xmlns:xlink="http://www.w3.org/1999/xlink"
 xmlns:xodm="http://www.corel.com/coreldraw/odm/2003">
 <defs>
  <style type="text/css">
   <![CDATA[
    .fil1 {fill:black}
    .fil0 {fill:#2196F3}
    .fil13 {fill:#5C4C3C}
    .fil12 {fill:#698665}
    .fil11 {fill:#96D193}
    .fil9 {fill:#ACE0A4}
    .fil6 {fill:#BDECB8}
    .fil10 {fill:#C68D7A}
    .fil7 {fill:#CEE0EA}
    .fil4 {fill:#D09F8E}
    .fil5 {fill:#E5EDF4}
    .fil2 {fill:#F3F7F8}
    .fil3 {fill:#FDD1A4}
    .fil8 {fill:#FFBC87}
   ]]>
  </style>
 </defs>
 <g id="Capa_x0020_1">
  <metadata id="CorelCorpID_0Corel-Layer"/>
  <circle class="fil0" cx="24.01" cy="24.01" r="24.01"/>
  <g id="_1703691295680">
   <path class="fil1" d="M24.42 25.12c0.26,0.25 0.3,0.22 0.69,0.21l6.21 -0c1.04,0 1.83,-0.24 1.83,0.99 0,2.57 0.08,5.96 -0.01,8.36l-13.62 0c-0.28,0.07 -0.19,0.12 -0.36,0.23 -0.07,0.78 0.47,0.63 1.11,0.63l11.44 -0 2.07 0c-0.01,1.09 -1.17,0.86 -2.07,0.87l-15.65 -0c-0.73,0 -1.34,-0.06 -1.34,-0.87 0.64,-0.01 1.28,-0 1.92,-0 0.71,0 1.35,0.2 1.33,-0.57 -0.13,-0.19 -0.09,-0.25 -0.41,-0.29l-2.21 -0.01c-0.07,-1.93 -0.01,-4.52 -0.01,-6.57 0,-2.71 -0.31,-2.78 1.58,-2.78l4.32 0c0.6,0 1.54,0.14 1.91,-0.2 0.32,-0.88 -0.77,-0.65 -1.44,-0.67l-0 -1.67c0.19,0.1 0.32,0.24 0.51,0.36 1.04,0.65 2.34,0.78 3.48,0.3 0.21,-0.09 0.4,-0.19 0.57,-0.3 0.19,-0.12 0.31,-0.26 0.51,-0.36l-0.01 1.67c-1.5,0.04 -2.56,-0.26 -2.35,0.66zm-0.89 -17.36l1.3 0c0.12,0.01 0.23,0.03 0.35,0.05 0.84,0.14 1.31,0.29 1.97,0.62 0.35,0.18 0.53,0.29 0.84,0.49 0.3,0.2 0.54,0.35 0.36,0.82 -0.63,0.39 -0.74,-0.15 -1.33,-0.36 -0.43,-0.53 -2.35,-0.82 -3.27,-0.74 -1.24,0.11 -2.2,0.59 -2.97,1.17 -0.7,0.53 -1.35,1.34 -1.77,2.38 -0.42,1.03 -0.47,2.52 -0.38,3.74 1.55,0.05 1.4,-0.62 1.82,-2.77 0.27,-1.36 0.47,-0.38 3.41,-0.29 0.73,0.02 1.47,-0.01 2.18,-0.11 2.1,-0.3 1.77,-0.95 2.29,1.66 0.14,0.7 0.2,1.44 0.91,1.45 0.14,0.11 0.43,0.07 0.66,0.07 0.33,-4.55 -1.41,-4.3 -0.79,-5.35 0.51,-0.25 0.72,0.23 0.96,0.71 0.21,0.42 0.36,0.81 0.5,1.29 0.28,0.93 0.21,2.19 0.21,3.37 1.18,0 1.42,1.49 1.09,2.42 -0.42,1.2 -1.27,1.39 -2.36,1.39 -0.15,0.63 -0.97,1.49 -1.43,1.85 -0.54,0.43 -0.41,0.3 -0.41,1.2 0,0.54 0,1.08 0,1.61 1.4,0 2.81,0.01 4.21,-0 0.73,-0 1.25,0.08 1.63,0.45 0.4,0.39 0.57,0.74 0.56,1.51 -0.02,2.79 -0,5.58 -0,8.36 0.39,0.09 0.7,0.55 0.62,1.07 -0.16,1.03 -0.87,1.45 -1.89,1.46l-17.1 0c-2.08,-0.01 -2.29,-2.29 -1.23,-2.54 0,-2.79 0.02,-5.58 -0,-8.36 -0,-0.79 0.18,-1.16 0.59,-1.54 0.38,-0.36 0.94,-0.42 1.66,-0.42 1.38,0.01 2.77,0 4.15,0 0,-0.56 -0,-1.11 0,-1.67 0,-0.94 0.1,-0.72 -0.44,-1.17 -0.46,-0.38 -1.25,-1.19 -1.4,-1.83 -0.75,0 -1.12,-0.01 -1.57,-0.34 -1.43,-1.06 -1.12,-3.47 0.3,-3.47 0,-2.16 -0.08,-3.07 0.67,-4.57 0.97,-1.93 2.94,-3.37 5.13,-3.61zm6.25 11.13c0.09,-0.7 0.07,-1.36 0.07,-2.07 0.65,-0.09 1.22,-0.15 1.22,0.57 0,0.89 -0.29,1.5 -1.29,1.5zm-11.08 -0c-0.7,0 -1.2,-0.39 -1.28,-1.04 -0.12,-1.07 0.18,-1.17 1.21,-1.03 0,0.71 -0.02,1.37 0.07,2.07zm2.37 -4.5c0.04,-0.29 0.08,-0.76 0.23,-0.96 2.32,0.41 3.56,0.41 5.88,0 0.15,0.19 0.19,0.67 0.23,0.96l0.06 0.19 -0.18 -0.07c-0.57,-0.03 -2.51,-0.11 -2.19,0.76 0.17,0.47 0.72,0.17 1.11,0.11 0.46,-0.06 0.96,-0.04 1.38,0.09l0.15 0.22c0.18,0.36 0.09,0.25 0.4,0.58 0.29,0.31 0.4,0.29 0.83,0.49 0.11,0.66 0.03,1.92 -0.19,2.51 -0.22,0.61 -0.7,1.15 -1.16,1.55 -0.28,0.24 -0.43,0.36 -0.71,0.67 -0.21,0.23 -0.47,0.4 -0.7,0.63 -0.44,0.43 -1.12,0.77 -1.96,0.77 -0.82,0 -1.57,-0.37 -1.96,-0.77l-1.75 -1.65c-0.32,-0.36 -0.58,-0.57 -0.82,-1.2 -0.22,-0.59 -0.3,-1.86 -0.19,-2.51 0.79,-0.37 0.85,-0.38 1.24,-1.11 0.04,-0.07 0.04,-0.07 0.07,-0.11 0.17,-0.25 1.18,-0.2 1.49,-0.15 0.37,0.06 0.88,0.34 1.06,-0.12 0.32,-0.86 -1.61,-0.78 -2.19,-0.76l-0.19 0.06c0,-0.19 -0.03,-0.06 0.06,-0.18z"/>
   <path class="fil2" d="M23.93 27.14c1.62,-0.19 2.97,1.05 3.12,2.48 0.18,1.64 -1.03,2.97 -2.48,3.13 -1.64,0.18 -2.97,-1.03 -3.13,-2.48 -0.18,-1.66 1.04,-2.97 2.49,-3.14zm-5.96 7.83c0.13,0.15 0.11,-0.19 0.11,0.18l0.98 0c0,-0.46 -0.02,-0.07 0.1,-0.24 0.17,-0.11 0.09,-0.16 0.36,-0.23 0.02,-0.01 0.04,-0.02 0.05,-0.02 0.02,-0 0.03,-0.01 0.05,-0.02 0.22,-0.06 0.07,-0.03 0.69,-0.03l11.39 0c0,-0.77 0.05,-7.89 -0.01,-8.47 -0.05,-0.5 -0.29,-0.62 -0.39,-0.81l-6.21 0c-0.39,0 -0.43,0.04 -0.69,-0.21 -0.31,-0.06 -0.96,-0.07 -1.26,0.01 -0.37,0.34 -1.31,0.2 -1.91,0.2l-4.32 0c-1.89,-0 -1.58,0.07 -1.58,2.78 0,2.05 -0.06,4.64 0.01,6.57l2.21 0.01c0.32,0.04 0.29,0.1 0.41,0.29z"/>
   <path class="fil3" d="M23.09 20.19c0.31,-0.11 0.9,0.41 1.75,0.1 1.01,-0.36 1.01,0.46 0.58,0.7 -0.82,0.44 -2.22,0.26 -2.53,-0.12 -0.21,-0.26 -0.09,-0.57 0.2,-0.67zm0.38 -1.85c0.26,-0.15 0.42,0.03 0.67,0.06 0.31,0.04 0.37,-0.1 0.62,-0.11 0.5,-0.03 0.59,0.59 0.21,0.81 -0.93,0.55 -2.34,-0.27 -1.51,-0.76zm2.3 -1.88c0,-0.83 0.86,-0.83 0.86,0l0 0.46c0,0.8 -0.86,0.8 -0.86,0l0 -0.46zm-3.92 0c0,-0.83 0.86,-0.83 0.86,0l0 0.46c0,0.79 -0.86,0.8 -0.86,0l0 -0.46zm-0.78 -2.08l-0.01 0.13 0.14 -0.01c0.57,-0.03 2.51,-0.11 2.19,0.76 -0.17,0.46 -0.69,0.18 -1.06,0.12 -0.31,-0.05 -1.32,-0.1 -1.49,0.15 -0.03,0.04 -0.03,0.04 -0.07,0.11 -0.39,0.73 -0.45,0.74 -1.24,1.11 -0.11,0.65 -0.03,1.93 0.19,2.51 0.24,0.64 0.49,0.84 0.82,1.2l1.75 1.65c0.4,0.4 1.15,0.77 1.96,0.77 0.83,0 1.51,-0.34 1.96,-0.77 0.23,-0.23 0.48,-0.4 0.7,-0.63 0.28,-0.31 0.43,-0.43 0.71,-0.67 0.46,-0.4 0.94,-0.94 1.16,-1.55 0.22,-0.59 0.3,-1.85 0.19,-2.51 -0.42,-0.2 -0.53,-0.18 -0.83,-0.49 -0.31,-0.33 -0.22,-0.22 -0.4,-0.58l-0.15 -0.22c-0.42,-0.13 -0.92,-0.15 -1.38,-0.09 -0.39,0.05 -0.93,0.36 -1.11,-0.11 -0.32,-0.86 1.61,-0.78 2.19,-0.76l0.14 0.01 -0.01 -0.13c-0.04,-0.29 -0.08,-0.77 -0.23,-0.96 -2.32,0.41 -3.56,0.41 -5.88,-0 -0.15,0.2 -0.19,0.67 -0.23,0.96z"/>
   <path class="fil4" d="M29.23 15.86l0.2 -0.04c0,-1.58 0.08,-2.48 -0.47,-3.9 -0.6,-1.54 -1.49,-2.01 -1.94,-2.54 -0.43,-0.53 -2.35,-0.82 -3.27,-0.74 -1.24,0.11 -2.2,0.59 -2.97,1.17 -0.7,0.53 -1.35,1.34 -1.77,2.38 -0.42,1.03 -0.47,2.52 -0.38,3.74 1.55,0.05 1.4,-0.62 1.82,-2.77 0.27,-1.36 0.47,-0.38 3.41,-0.29 0.73,0.02 1.47,-0.01 2.18,-0.11 2.1,-0.3 1.77,-0.95 2.29,1.66 0.14,0.7 0.2,1.44 0.91,1.45z"/>
   <path class="fil1" d="M36.07 15.2l0.84 1.06c0.17,0.23 0.68,0.86 0.77,1.09 -0.4,0.03 -0.82,-0.05 -0.91,0.33 -0.05,0.21 0,3.1 -0.03,3.67l-1.3 0c-0.07,-0.73 -0.01,-1.71 -0.01,-2.47 0,-1.51 0.14,-1.53 -0.93,-1.53l1.58 -2.16zm2.94 2.57l0 0.18c-0.1,0.38 -0.9,0.3 -1.38,0.3l0 3.52c0,0.28 -0.18,0.46 -0.46,0.46l-2.25 0c-0.25,0 -0.4,-0.36 -0.4,-0.63l0 -3.34c-0.38,0 -1.38,0.14 -1.38,-0.46 0,-0.18 0.85,-1.29 1.05,-1.55 0.08,-0.1 0.34,-0.41 0.34,-0.53l0 -2.25c-0.47,0 -1.38,0.1 -1.38,-0.46 0,-0.24 0.52,-0.84 0.68,-1.05l1.42 -1.92c0.42,-0.56 0.75,-1.31 1.35,-0.48 0.3,0.41 2.43,3.19 2.43,3.34 0,0.7 -0.54,0.58 -1.38,0.58l0 2.13c0,0.24 0.15,0.35 0.32,0.6l0.76 1.02c0.18,0.23 0.27,0.41 0.3,0.55zm-2.25 -4.94l-0.02 1.72c-0.24,-0.21 -0.29,-0.55 -0.67,-0.54 -0.35,0.01 -0.42,0.35 -0.65,0.53l-0.01 -1.11c0.01,-1.07 -0.12,-0.76 -0.94,-0.9 0.46,-0.67 1.06,-1.48 1.59,-2.13 0.16,0.1 0.33,0.38 0.45,0.54l1.17 1.61c-0.78,0.02 -0.64,-0.05 -0.93,0.28z"/>
   <path class="fil1" d="M13.07 13.43l-0.02 1.11c-0.21,-0.18 -0.3,-0.55 -0.67,-0.53 -0.36,0.02 -0.37,0.33 -0.62,0.54l-0.02 -1.72c-0.29,-0.33 -0.15,-0.26 -0.93,-0.28l1.58 -2.12c0,-0.02 0.02,-0.02 0.03,-0.03 0.29,0.35 0.55,0.71 0.83,1.08 0.26,0.35 0.54,0.71 0.76,1.05 -0.82,0.14 -0.95,-0.17 -0.94,0.9zm-3.59 4.44l0 -0.12c0,-0 0,-0.01 0,-0.01 0.02,-0.22 0.6,-0.93 0.77,-1.14 0.48,-0.63 0.63,-0.66 0.62,-1.28 -0.01,-0.61 -0,-1.23 -0,-1.85 -0.33,0 -0.82,0.03 -1.05,-0.04 -0.85,-0.26 0.16,-1.26 0.65,-1.92 0.31,-0.41 0.59,-0.81 0.91,-1.23 0.9,-1.2 0.97,-1.49 1.65,-0.58l2.29 3.08c0.38,0.81 -0.97,0.68 -1.32,0.68 0,0.63 0.01,1.27 -0,1.9 -0.01,0.49 0.02,0.46 0.24,0.74l0.81 1.1c0.79,1.04 0.07,1.05 -1.05,1.05 0,0.26 0.01,0.51 -0.05,0.7 -0.09,0.28 -0.19,0.25 -0.43,0.34 -0.46,-0.33 -0.43,0.01 -0.43,-1.21 -0,-0.78 0.21,-0.72 0.93,-0.72 -0.12,-0.25 -1.42,-2 -1.58,-2.16 -0.05,0.04 -0.03,0.02 -0.09,0.08 -0.01,0.01 -0.04,0.05 -0.05,0.06l-1.46 2c1.06,0.08 0.93,-0.04 0.93,1.54 0,0.79 -0.04,1.67 0.01,2.46l1.3 0c0.05,-0.5 -0.12,-0.86 0.46,-0.95 0.37,0.04 0.45,0.3 0.46,0.73 0.03,1.3 -0.26,1.1 -1.27,1.1 -1.19,-0 -1.82,0.18 -1.85,-0.52l0 -3.46c-0.55,0 -1.33,0.13 -1.38,-0.39z"/>
   <path class="fil5" d="M17.97 34.97c0.01,0.77 -0.62,0.57 -1.33,0.57 -0.64,-0 -1.28,-0.01 -1.92,0 0,0.81 0.61,0.87 1.34,0.87l15.65 0 0 -0.87 -11.44 0c-0.64,0 -1.18,0.15 -1.11,-0.63 -0.12,0.16 -0.1,-0.22 -0.1,0.24l-0.98 0c-0,-0.37 0.02,-0.03 -0.11,-0.18z"/>
   <path class="fil5" d="M19.52 34.68l13.62 -0c0.09,-2.4 0.01,-5.79 0.01,-8.36 -0,-1.23 -0.79,-0.99 -1.83,-0.99 0.1,0.2 0.34,0.31 0.39,0.81 0.06,0.58 0.01,7.7 0.01,8.47l-11.39 -0c-0.62,-0 -0.47,-0.03 -0.69,0.03 -0.02,0.01 -0.04,0.01 -0.05,0.02 -0.02,0 -0.04,0.01 -0.05,0.02z"/>
   <path class="fil1" d="M25 28.17c0.54,0.17 1.01,0.71 1.15,1.32 0.17,0.73 -0.13,1.46 -0.48,1.83 -0.9,0.98 -2.75,0.63 -3.15,-0.5 -0.25,-0.23 -0.27,-0.87 -0.2,-1.23 0.29,-1.59 2.16,-1.84 2.68,-1.42zm-1.07 -1.02c-1.45,0.17 -2.67,1.48 -2.49,3.14 0.16,1.45 1.49,2.66 3.13,2.48 1.45,-0.16 2.66,-1.49 2.48,-3.13 -0.16,-1.43 -1.5,-2.67 -3.12,-2.48z"/>
   <path class="fil6" d="M13.52 20.4l-0.02 -1.11c-0.46,-0.33 -0.43,0.01 -0.43,-1.21 -0,-0.78 0.21,-0.72 0.93,-0.72 -0.12,-0.25 -1.42,-2 -1.58,-2.16 -0.05,0.04 -0.03,0.02 -0.09,0.08 -0.01,0.01 -0.04,0.05 -0.05,0.06l-1.46 2c1.06,0.08 0.93,-0.04 0.93,1.54 0,0.79 -0.04,1.67 0.01,2.46l1.3 0c0.05,-0.5 -0.12,-0.86 0.46,-0.95z"/>
   <path class="fil6" d="M34.49 17.35c1.08,0 0.93,0.02 0.93,1.53 0,0.76 -0.05,1.74 0.01,2.47l1.3 -0c0.03,-0.57 -0.03,-3.46 0.03,-3.67 0.1,-0.38 0.51,-0.31 0.91,-0.33 -0.09,-0.23 -0.6,-0.86 -0.77,-1.09l-0.84 -1.06 -1.58 2.16z"/>
   <path class="fil1" d="M36.71 23.77c0.1,0.18 0.07,0.64 0.02,0.86 -0.2,0.03 -1.13,0.07 -1.32,-0.04l-0 -0.82 1.29 -0.01zm-2.2 -0.21c0,2.34 -0.3,1.96 2.59,1.96 0.73,0 0.52,-0.99 0.52,-2.13 0,-0.73 -1.29,-0.52 -2.31,-0.52 -0.54,0 -0.81,0.14 -0.81,0.69z"/>
   <path class="fil1" d="M11.78 23.77l1.29 0.01 -0 0.82c-0.19,0.11 -1.12,0.07 -1.32,0.04l0.02 -0.86zm-0.91 -0.39l0 1.73c0,0.21 0.28,0.4 0.52,0.4l2.08 0c0.7,0 0.52,-1.1 0.52,-1.96 0,-0.92 -0.94,-0.69 -2.36,-0.69 -0.41,0 -0.75,0.11 -0.75,0.52z"/>
   <path class="fil7" d="M22.52 30.82c0.4,1.14 2.25,1.48 3.15,0.5 0.35,-0.38 0.65,-1.1 0.48,-1.83 -0.14,-0.61 -0.62,-1.15 -1.15,-1.32 0.31,0.77 -0.24,1.64 -0.59,2 -0.29,0.3 -1.2,0.94 -1.89,0.65z"/>
   <path class="fil8" d="M23.16 25.13c0.3,-0.09 0.95,-0.08 1.26,-0.01 -0.21,-0.92 0.84,-0.61 2.35,-0.66l0.01 -1.67c-0.19,0.1 -0.32,0.24 -0.51,0.36 -0.17,0.11 -0.36,0.21 -0.57,0.3 -1.14,0.48 -2.44,0.36 -3.48,-0.3 -0.19,-0.12 -0.31,-0.26 -0.51,-0.36l0 1.67c0.67,0.02 1.76,-0.21 1.44,0.67z"/>
   <path class="fil5" d="M22.52 30.82c0.68,0.29 1.6,-0.35 1.89,-0.65 0.35,-0.36 0.9,-1.24 0.59,-2 -0.51,-0.42 -2.39,-0.17 -2.68,1.42 -0.07,0.36 -0.05,1 0.2,1.23z"/>
   <path class="fil9" d="M35.42 13.43c0.01,-0.01 0.03,-0.04 0.04,-0.03l0.54 -0.68c0.3,0.03 0.61,0.57 0.65,0.67 0,-0.05 -0.01,-0.25 -0,-0.28l0.12 -0.29c0.29,-0.33 0.15,-0.26 0.93,-0.28l-1.17 -1.61c-0.12,-0.16 -0.28,-0.44 -0.45,-0.54 -0.53,0.65 -1.13,1.46 -1.59,2.13 0.82,0.14 0.95,-0.17 0.94,0.9z"/>
   <path class="fil9" d="M11.74 12.83c0.14,0.12 0.11,0.43 0.11,0.57 0.06,-0.17 0.39,-0.61 0.58,-0.68 0.14,0 0.35,0.38 0.45,0.51l0.19 0.19c-0.01,-1.07 0.12,-0.76 0.94,-0.9 -0.22,-0.34 -0.5,-0.7 -0.76,-1.05 -0.28,-0.37 -0.54,-0.73 -0.83,-1.08 -0.01,0.01 -0.03,0.01 -0.03,0.03l-1.58 2.12c0.78,0.02 0.63,-0.05 0.93,0.28z"/>
   <path class="fil10" d="M29.23 15.86c0.14,0.11 0.43,0.07 0.66,0.07 0.33,-4.55 -1.41,-4.3 -0.79,-5.35 -0.24,-0.36 -0.48,-0.54 -0.75,-0.84 -0.63,0.39 -0.74,-0.15 -1.33,-0.36 0.46,0.54 1.35,1.01 1.94,2.54 0.55,1.42 0.47,2.32 0.47,3.9l-0.2 0.04z"/>
   <path class="fil1" d="M23.09 20.19c-0.28,0.1 -0.4,0.41 -0.2,0.67 0.31,0.39 1.72,0.57 2.53,0.12 0.43,-0.23 0.43,-1.06 -0.58,-0.7 -0.86,0.31 -1.44,-0.22 -1.75,-0.1z"/>
   <path class="fil8" d="M18.71 18.88c-0.09,-0.7 -0.07,-1.36 -0.07,-2.07 -1.03,-0.14 -1.33,-0.03 -1.21,1.03 0.07,0.65 0.57,1.04 1.28,1.04z"/>
   <path class="fil8" d="M29.79 18.88c1,0 1.29,-0.61 1.29,-1.5 0,-0.72 -0.57,-0.66 -1.22,-0.57 0,0.71 0.02,1.37 -0.07,2.07z"/>
   <path class="fil7" d="M31.71 36.41c0.91,-0 2.06,0.23 2.07,-0.87l-2.07 -0 0 0.87z"/>
   <path class="fil1" d="M23.48 18.34c-0.83,0.49 0.58,1.31 1.51,0.76 0.38,-0.22 0.29,-0.84 -0.21,-0.81 -0.25,0.01 -0.31,0.15 -0.62,0.11 -0.25,-0.03 -0.42,-0.21 -0.67,-0.06z"/>
   <path class="fil11" d="M35.42 13.43l0.01 1.11c0.23,-0.18 0.3,-0.52 0.65,-0.53 0.37,-0.01 0.42,0.33 0.67,0.54l0.02 -1.72 -0.12 0.29c-0,0.03 0,0.23 0,0.28 -0.04,-0.1 -0.35,-0.64 -0.65,-0.67l-0.54 0.68c-0.01,-0.01 -0.02,0.02 -0.04,0.03z"/>
   <path class="fil11" d="M11.74 12.83l0.02 1.72c0.26,-0.21 0.26,-0.51 0.62,-0.54 0.37,-0.02 0.46,0.35 0.67,0.53l0.02 -1.11 -0.19 -0.19c-0.11,-0.13 -0.31,-0.51 -0.45,-0.51 -0.18,0.06 -0.51,0.51 -0.58,0.68 0,-0.14 0.03,-0.45 -0.11,-0.57z"/>
   <path class="fil1" d="M25.77 16.46l0 0.46c0,0.8 0.86,0.8 0.86,0l0 -0.46c0,-0.83 -0.86,-0.83 -0.86,0z"/>
   <path class="fil1" d="M21.85 16.46l0 0.46c0,0.8 0.86,0.79 0.86,0l0 -0.46c0,-0.83 -0.86,-0.83 -0.86,0z"/>
   <polygon class="fil6" points="13.07,24.59 13.07,23.77 11.78,23.77 11.78,24.59 "/>
   <polygon class="fil6" points="35.42,24.59 36.71,24.59 36.71,23.77 35.42,23.77 "/>
   <path class="fil12" d="M35.42 24.59c0.19,0.11 1.12,0.07 1.32,0.04 0.05,-0.22 0.07,-0.68 -0.02,-0.86l0 0.82 -1.29 0z"/>
   <path class="fil12" d="M13.07 24.59l-1.29 0 0 -0.82 -0.02 0.86c0.2,0.03 1.13,0.07 1.32,-0.04z"/>
   <path class="fil13" d="M21.2 14.5l-0.14 0.01 0.01 -0.13c-0.09,0.11 -0.05,-0.01 -0.06,0.18l0.19 -0.06z"/>
   <polygon class="fil13" points="27.29,14.5 27.47,14.57 27.42,14.38 27.43,14.51 "/>
  </g>
 </g>
</svg>
