<?xml version="1.0" encoding="UTF-8"?>
<!DOCTYPE svg PUBLIC "-//W3C//DTD SVG 1.1//EN" "http://www.w3.org/Graphics/SVG/1.1/DTD/svg11.dtd">
<!-- Creator: CorelDRAW 2020 (64-Bit) -->
<svg xmlns="http://www.w3.org/2000/svg" xml:space="preserve" width="166.326mm" height="180.6mm" version="1.1" style="shape-rendering:geometricPrecision; text-rendering:geometricPrecision; image-rendering:optimizeQuality; fill-rule:evenodd; clip-rule:evenodd"
viewBox="0 0 333.69 362.33"
 xmlns:xlink="http://www.w3.org/1999/xlink"
 xmlns:xodm="http://www.corel.com/coreldraw/odm/2003">
 <defs>
  <style type="text/css">
   <![CDATA[
    .fil2 {fill:black}
    .fil1 {fill:#2096F2}
    .fil0 {fill:#EBEEF0}
   ]]>
  </style>
 </defs>
 <g id="Capa_x0020_1">
  <metadata id="CorelCorpID_0Corel-Layer"/>
  <g id="_2001326003744">
   <path class="fil0" d="M271.78 210.89c-3.6,11.18 -19.08,8.02 -32.03,8.02l-79.26 0c-5.74,0 -14,0.98 -18.5,-1.56 -3.64,-2.06 -7,-7.36 -4.91,-13.62 3.49,-10.46 20.59,-7.46 31.91,-7.46l79.26 0c5.2,0 14.15,-0.79 18.19,1.38 3.76,2.01 7.2,7.51 5.35,13.24zm0 -45.29c-3.6,11.18 -19.08,8.02 -32.03,8.02l-79.26 0c-5.74,0 -14,0.98 -18.5,-1.56 -3.64,-2.06 -7,-7.36 -4.91,-13.62 3.49,-10.46 20.59,-7.46 31.91,-7.46l79.26 0c5.2,0 14.15,-0.79 18.19,1.38 3.76,2.01 7.2,7.51 5.35,13.24zm0 -45.29c-3.6,11.18 -19.08,8.02 -32.03,8.02l-79.26 0c-5.74,0 -14,0.98 -18.5,-1.56 -3.64,-2.06 -7,-7.36 -4.91,-13.62 3.49,-10.46 20.59,-7.46 31.91,-7.46l79.26 0c5.2,0 14.15,-0.79 18.19,1.38 3.76,2.01 7.2,7.51 5.35,13.24zm-156.97 -97.45c-7.53,1.12 -13.07,6.44 -15.14,12.59 -2.03,6.04 -0.99,74.71 -0.99,84.15 0,37.74 0,75.48 0,113.23 -0,22.86 1.57,31.41 25.71,31.38 14.36,-0.02 163.22,0.72 169.79,-0.29 19.73,-3.05 15.86,-24.78 15.86,-40.28l0 -169.84c0,-20.58 -0.37,-31.17 -25.72,-31.14 -13.71,0.01 -163.69,-0.65 -169.52,0.21z"/>
   <path class="fil1" d="M253.9 301.75l-0.42 -14.44c-2.22,-1.19 -91.96,-0.47 -102.9,-0.47 -14.58,0 -37.02,1.86 -49.24,-3.35 -11.17,-4.76 -20.41,-14.62 -23.96,-27.75 -4.24,-15.71 1.38,-199.09 -1.81,-206.12 -5.49,-0.26 -8.5,-0.8 -14.48,-0.8 -2.98,16.57 -15.18,9.74 -24.15,12.33 -10.5,3.03 -13.77,10.6 -13.75,23.76l0 224.33c0,13.09 -0.27,22.2 9.07,27.73 7.33,4.34 24.85,2.71 34.81,2.71l150.03 0c9.55,0.02 20.38,-0.76 24.18,-13.35 3.97,-13.17 -4.18,-21.51 12.62,-24.59z"/>
   <path class="fil2" d="M114.81 22.86c5.83,-0.87 155.81,-0.2 169.52,-0.21 25.35,-0.02 25.72,10.56 25.72,31.14l0 169.84c0,15.5 3.88,37.24 -15.86,40.28 -6.57,1.01 -155.43,0.27 -169.79,0.29 -24.14,0.03 -25.72,-8.51 -25.71,-31.38 0,-37.74 0,-75.48 0,-113.23 0,-9.44 -1.04,-78.11 0.99,-84.15 2.07,-6.15 7.61,-11.47 15.14,-12.59zm3.7 -22.86l160.16 0 6.22 0c15.14,0.05 23.78,0.87 35.37,11.48 5.09,4.66 9.49,12.97 11.36,19.78 3.46,12.61 1.54,64.5 1.54,82.67l0 126.68c0.07,14.09 -3.57,23.91 -10.12,31.63 -16.64,19.62 -42.63,15.07 -69.57,15.07 -2.22,-1.19 -91.96,-0.47 -102.9,-0.47 -14.58,0 -37.02,1.86 -49.24,-3.35 -11.17,-4.76 -20.41,-14.62 -23.96,-27.75 -4.24,-15.71 1.38,-199.09 -1.81,-206.12 0,-16.16 1.89,-24.07 8.99,-33.56 5.68,-7.59 14.75,-13.62 26.07,-15.69 0.86,-0.16 3.65,-0.28 7.89,-0.38z"/>
   <path class="fil2" d="M253.9 301.75c-16.8,3.08 -8.65,11.42 -12.62,24.59 -3.8,12.59 -14.62,13.36 -24.18,13.35l-150.03 -0c-9.96,0 -27.48,1.63 -34.81,-2.71 -9.33,-5.53 -9.07,-14.64 -9.07,-27.73l-0 -224.33c-0.03,-13.16 3.24,-20.74 13.75,-23.76 8.97,-2.58 21.17,4.24 24.15,-12.33 -0.24,-15.75 -23.58,-11.77 -31.62,-9.3 -17.28,5.32 -29.02,21.41 -28.92,39.72l0 206.64c0,29.56 -5.84,55.01 20.48,70.81 6.42,3.85 12.12,5.2 18.82,5.62l21.56 0 160.8 0c42.2,0.04 48.63,-46.99 39.68,-56.83 -2.64,-2.9 -4.44,-2.86 -8,-3.75z"/>
   <path class="fil2" d="M271.78 165.59c1.84,-5.73 -1.59,-11.23 -5.35,-13.24 -4.04,-2.16 -12.99,-1.38 -18.19,-1.38l-79.26 0c-11.32,0 -28.41,-2.99 -31.91,7.46 -2.09,6.25 1.27,11.56 4.91,13.62 4.5,2.54 12.77,1.56 18.5,1.56l79.26 0c12.96,0 28.44,3.16 32.03,-8.02z"/>
   <path class="fil2" d="M271.78 120.3c1.84,-5.73 -1.59,-11.23 -5.35,-13.24 -4.04,-2.16 -12.99,-1.38 -18.19,-1.38l-79.26 0c-11.32,0 -28.41,-2.99 -31.91,7.46 -2.09,6.25 1.27,11.56 4.91,13.62 4.5,2.54 12.77,1.56 18.5,1.56l79.26 0c12.96,0 28.44,3.16 32.03,-8.02z"/>
   <path class="fil2" d="M271.78 210.89c1.84,-5.73 -1.59,-11.23 -5.35,-13.24 -4.04,-2.16 -12.99,-1.38 -18.19,-1.38l-79.26 0c-11.32,0 -28.41,-2.99 -31.91,7.46 -2.09,6.25 1.27,11.56 4.91,13.62 4.5,2.54 12.77,1.56 18.5,1.56l79.26 0c12.96,0 28.44,3.16 32.03,-8.02z"/>
  </g>
 </g>
</svg>
