<?xml version="1.0" encoding="UTF-8"?>
<!DOCTYPE svg PUBLIC "-//W3C//DTD SVG 1.1//EN" "http://www.w3.org/Graphics/SVG/1.1/DTD/svg11.dtd">
<!-- Creator: CorelDRAW 2020 (64-Bit) -->
<svg xmlns="http://www.w3.org/2000/svg" xml:space="preserve" width="14.5482mm" height="17.809mm" version="1.1" style="shape-rendering:geometricPrecision; text-rendering:geometricPrecision; image-rendering:optimizeQuality; fill-rule:evenodd; clip-rule:evenodd"
viewBox="0 0 1.83 2.25"
 xmlns:xlink="http://www.w3.org/1999/xlink"
 xmlns:xodm="http://www.corel.com/coreldraw/odm/2003">
 <defs>
  <style type="text/css">
   <![CDATA[
    .fil1 {fill:black}
    .fil10 {fill:#3D587B}
    .fil6 {fill:#3F597D}
    .fil3 {fill:#5C7389}
    .fil11 {fill:#7E7D7D}
    .fil5 {fill:#AAD541}
    .fil8 {fill:#ABD641}
    .fil4 {fill:#B6E445}
    .fil2 {fill:#F0E8E6}
    .fil0 {fill:#F9F7F7}
    .fil9 {fill:#FEA442}
    .fil7 {fill:#FFBF54}
   ]]>
  </style>
 </defs>
 <g id="Capa_x0020_1">
  <metadata id="CorelCorpID_0Corel-Layer"/>
  <g id="_2140289643200">
   <path class="fil0" d="M1.06 2.01c-0.01,0.03 -0.07,0.02 -0.11,0.02 -0.04,0 -0.29,0 -0.3,-0 -0.02,-0.01 -0.02,-0.03 -0.01,-0.05 0.01,-0.02 0.07,-0.02 0.11,-0.02 0.04,0 0.29,-0 0.3,0 0.01,0.01 0.02,0.03 0.02,0.04zm-0.16 -0.21c-0.01,0.03 -0.04,0.02 -0.07,0.02l-0.47 -0c-0.04,0 -0.17,0.02 -0.13,-0.05 0.02,-0.03 0.13,-0.01 0.17,-0.01l0.38 0c0.04,0 0.16,-0.02 0.13,0.05zm0.15 -1.6c0.02,0.01 0.08,0.01 0.09,-0 0.01,-0.03 0.03,-0.02 0.06,-0.02 0.09,0 0.18,-0.02 0.21,0.04 0.02,0.03 0.01,0.12 -0.01,0.14 -0.03,0.04 -0.08,0.03 -0.14,0.03l-0.84 0c-0.06,0 -0.1,0.01 -0.13,-0.03 -0.02,-0.03 -0.02,-0.11 -0,-0.14 0.02,-0.04 0.07,-0.04 0.12,-0.04l0.5 0c0.08,0 0.13,-0.01 0.14,0.03zm0.57 1.93l0 -0.15c-0.01,-0.01 -0.01,-0.01 -0.02,-0.02l-0.23 -0.25c-0.04,-0.05 0.01,-0.01 -0.09,-0.03l-0.91 -0c-0.04,0 -0.15,0.02 -0.16,-0.02 -0.02,-0.06 0.09,-0.04 0.13,-0.04l0.88 0c-0.02,-0.09 0.04,-0.05 -0.05,-0.14 -0.01,0 -0.08,0.04 -0.13,0.06 -0.05,0.02 -0.1,0.03 -0.16,0.03 -0.06,0 -0.11,-0.01 -0.17,-0.02 -0.05,-0.01 -0.29,-0.01 -0.36,-0.01 -0.04,0 -0.16,0.02 -0.15,-0.04 0,-0.04 0.09,-0.03 0.15,-0.03 0.06,0 0.13,0 0.19,-0l-0.02 -0.02c-0.09,-0.07 -0.04,-0.06 -0.16,-0.06 -0.04,0 -0.09,0 -0.07,-0.05 0.01,-0.03 0.07,-0.02 0.1,-0.02 -0,-0.01 -0.04,-0.07 -0.04,-0.07 -0.04,-0 -0.15,0.02 -0.16,-0.02 -0.02,-0.06 0.09,-0.04 0.13,-0.04 -0.01,-0.06 -0.01,-0.07 -0.03,-0.08 -0.01,-0 -0.03,0 -0.04,0 -0.02,0 -0.05,0 -0.06,-0.01 -0.02,-0.02 0,-0.04 0.02,-0.05l0.01 -0.01 0.07 0 -0 -0.07 -0.07 0 -0.01 -0.01c-0.03,-0.01 -0.03,-0.05 -0.01,-0.06 0.01,-0.01 0.08,-0 0.1,-0l0.02 -0.07c-0.04,-0 -0.16,0.02 -0.14,-0.04 0.01,-0.04 0.12,-0.02 0.16,-0.02 0.01,-0.01 0.05,-0.07 0.05,-0.07 -0.06,0 -0.25,0.02 -0.21,-0.05 0.02,-0.03 0.18,-0 0.26,-0.01 0.01,-0 0.09,-0.06 0.1,-0.07 -0.07,-0 -0.18,0.01 -0.23,-0 -0.04,-0.01 -0.04,-0.06 -0.01,-0.06l0.36 -0c0.08,0 0.14,-0.02 0.23,-0.01 0.04,0 0.07,0.01 0.11,0.01l0.36 -0c0.03,0 0.08,-0.01 0.09,0.03 0.01,0.05 -0.06,0.04 -0.08,0.04 -0.07,-0 -0.17,-0.01 -0.24,0 0.01,0 0.08,0.06 0.09,0.07 0.07,0 0.27,-0.02 0.23,0.05 -0.02,0.03 -0.12,0.02 -0.16,0.02 0,0.02 0.03,0.05 0.04,0.07 0.04,0 0.11,-0.01 0.13,0.02 0.03,0.06 -0.07,0.05 -0.09,0.05 -0,0.04 0.05,0.12 0.02,0.26 -0.02,0.14 -0.07,0.18 -0.08,0.22 0.01,0.02 0.04,0.03 0.06,0.05 0.03,-0 0.03,-0.01 0.06,-0.01 0.02,0 0.03,0.01 0.05,0.03 0.03,0.03 0.05,0.04 0.04,0.11 0.02,0.01 0.03,0.02 0.04,0.04 0.01,0.01 0.04,0.03 0.05,0.04l0 -1.31c0,-0.23 0.05,-0.19 -0.37,-0.19 -0.37,0 -0.76,-0 -1.13,0 -0.01,0.03 -0,0.83 -0,0.89 0,0.3 0,0.59 0,0.89 0,0.07 -0,0.15 -0,0.22 0,0.08 0.09,0.06 0.16,0.06 0.45,0 0.89,0 1.34,0z"/>
   <path class="fil1" d="M1.44 1.61l0.06 -0.06 0.22 0.2c0.09,0.07 0.03,0.15 -0.01,0.16 -0.01,0 -0.01,0.01 -0.03,0.01 -0.03,0 -0.06,-0.01 -0.07,-0.03l-0.14 -0.16c-0.01,-0.01 -0.02,-0.02 -0.04,-0.04 -0.01,-0.01 -0.03,-0.03 -0.03,-0.04 0.01,-0.01 0.02,-0.02 0.04,-0.04zm-1.3 -1.61l1.28 0 0.16 0c0.05,0.01 0.1,0.03 0.11,0.09 0.01,0.04 0,1.42 0,1.45 0,0.12 -0.01,0.07 0.05,0.13 0.03,0.03 0.06,0.04 0.08,0.1 0.04,0.1 -0.04,0.2 -0.13,0.2 0,0.05 0,0.1 0,0.15 -0,0.05 -0.02,0.07 -0.05,0.1 -0.02,0.02 -0.04,0.02 -0.06,0.02l-0.06 0 -1.31 0 -0.09 0c-0.02,-0 -0.03,-0 -0.05,-0.01 -0.09,-0.04 -0.07,-0.14 -0.07,-0.22 0,-0.06 -0.01,-0.11 0.04,-0.11 0.04,0.01 0.03,0.05 0.03,0.09 -0,0.04 -0,0.08 -0,0.12 0,0.08 0.08,0.06 0.18,0.06 0.32,0 0.64,0 0.96,0l0.36 0c0.04,-0 0.06,-0.02 0.06,-0.06l0 -0.15c-0.01,-0.01 -0.01,-0.01 -0.02,-0.02l-0.23 -0.25c-0.04,-0.05 0.01,-0.01 -0.09,-0.03l-0.91 -0c-0.04,0 -0.15,0.02 -0.16,-0.02 -0.02,-0.06 0.09,-0.04 0.13,-0.04l0.88 0c-0.02,-0.09 0.04,-0.05 -0.05,-0.14 -0.01,0 -0.08,0.04 -0.13,0.06 -0.05,0.02 -0.1,0.03 -0.16,0.03 -0.06,0 -0.11,-0.01 -0.17,-0.02 -0.05,-0.01 -0.29,-0.01 -0.36,-0.01 -0.04,0 -0.16,0.02 -0.15,-0.04 0,-0.04 0.09,-0.03 0.15,-0.03 0.06,0 0.13,0 0.19,-0l-0.02 -0.02c-0.09,-0.07 -0.04,-0.06 -0.16,-0.06 -0.04,0 -0.09,0 -0.07,-0.05 0.01,-0.03 0.07,-0.02 0.1,-0.02 -0,-0.01 -0.04,-0.07 -0.04,-0.07 -0.04,-0 -0.15,0.02 -0.16,-0.02 -0.02,-0.06 0.09,-0.04 0.13,-0.04 -0.01,-0.06 -0.01,-0.07 -0.03,-0.08 -0.01,-0 -0.03,0 -0.04,0 -0.02,0 -0.05,0 -0.06,-0.01 -0.02,-0.02 0,-0.04 0.02,-0.05l0.09 -0 0 -0.08 -0.09 -0c-0.03,-0.01 -0.03,-0.05 -0.01,-0.06 0.01,-0.01 0.08,-0 0.1,-0l0.02 -0.07c-0.04,-0 -0.16,0.02 -0.14,-0.04 0.01,-0.04 0.12,-0.02 0.16,-0.02 0.01,-0.01 0.05,-0.07 0.05,-0.07 -0.06,0 -0.25,0.02 -0.21,-0.05 0.02,-0.03 0.18,-0 0.26,-0.01 0.01,-0 0.09,-0.06 0.1,-0.07 -0.07,-0 -0.18,0.01 -0.23,-0 -0.04,-0.01 -0.04,-0.06 -0.01,-0.06l0.36 -0c0.08,0 0.14,-0.02 0.23,-0.01 0.04,0 0.07,0.01 0.11,0.01l0.36 -0c0.03,0 0.08,-0.01 0.09,0.03 0.01,0.05 -0.06,0.04 -0.08,0.04 -0.07,-0 -0.17,-0.01 -0.24,0 0.01,0 0.08,0.06 0.09,0.07 0.07,0 0.27,-0.02 0.23,0.05 -0.02,0.03 -0.12,0.02 -0.16,0.02 0,0.02 0.03,0.05 0.04,0.07 0.04,0 0.11,-0.01 0.13,0.02 0.03,0.06 -0.07,0.05 -0.09,0.05 -0,0.04 0.05,0.12 0.02,0.26 -0.02,0.14 -0.07,0.18 -0.08,0.22 0.01,0.02 0.04,0.03 0.06,0.05 0.03,-0 0.03,-0.01 0.06,-0.01 0.02,0 0.03,0.01 0.05,0.03 0.03,0.03 0.05,0.04 0.04,0.11 0.02,0.01 0.03,0.02 0.04,0.04 0.01,0.01 0.04,0.03 0.05,0.04l0 -1.31c0,-0.23 0.05,-0.19 -0.37,-0.19 -0.37,0 -0.76,-0 -1.13,0 -0.08,0.01 -0.06,0.08 -0.06,0.18l0 1.5c0,0.04 0.01,0.08 -0.03,0.08 -0.03,0 -0.04,-0.02 -0.04,-0.06l0 -1.55c0,-0.06 -0.01,-0.12 0.02,-0.16 0.04,-0.05 0.07,-0.05 0.12,-0.06zm1.25 1.56c-0.01,0.02 -0.03,0.03 -0.04,0.04 -0.02,0.02 -0.03,0.03 -0.05,0 -0.02,-0.02 -0.02,-0.04 0,-0.06 0.02,-0.02 0.03,-0.03 0.05,-0.04 0.01,-0.01 0.03,-0.03 0.04,-0.04 0.02,-0.02 0.02,-0.03 0.05,-0.03 0.01,0 0.03,0.03 0.03,0.03 0.01,0.02 -0.04,0.05 -0.06,0.08l-0.02 0.02zm-0.09 -0.11c-0.01,0.01 -0.02,0.03 -0.03,0.04 -0.02,-0.01 -0.03,-0.04 -0.04,-0.05 0.01,-0.02 0.04,-0.05 0.06,-0.06l0.02 0.02 0.03 0.02 -0.04 0.03zm-0.26 0.01c-0.01,0.01 -0.02,0.01 -0.06,0.02 -0.24,0.06 -0.49,-0.08 -0.57,-0.32 -0.02,-0.07 -0.04,-0.24 -0,-0.28 -0,-0.06 0.08,-0.17 0.11,-0.2 0.04,-0.04 0.11,-0.09 0.19,-0.12 0.09,-0.03 0.19,-0.03 0.28,-0.01 0.09,0.02 0.15,0.06 0.2,0.11 0.12,0.1 0.18,0.3 0.14,0.46 -0.02,0.1 -0.08,0.19 -0.14,0.25 -0.03,0.02 -0.11,0.09 -0.14,0.09z"/>
   <path class="fil0" d="M1.01 1.04c-0.01,0.01 -0.05,0.05 -0.06,0.06 0.02,0.04 -0.01,0.06 -0.05,0.1 -0.08,0.08 -0.12,0.08 -0.2,0 -0.03,-0.03 -0.14,-0.12 -0.14,-0.17 -0.01,-0.05 0.02,-0.09 0.05,-0.11 0.09,-0.05 0.16,0.06 0.2,0.09 0.02,-0.01 0.15,-0.15 0.19,-0.18 0.09,-0.09 0.21,0.02 0.16,0.11 -0.01,0.02 -0.04,0.05 -0.06,0.06 -0.02,0.02 -0.03,0.05 -0.08,0.03zm-0.41 0.25c0,0.01 0,0.01 0.01,0.02 0.01,0.01 0.01,0.01 0.02,0.01 0.01,0.01 0.02,0.02 0.04,0.02 0.03,-0.02 0.09,0.02 0.13,0.03 0.15,0.03 0.29,-0.04 0.36,-0.15 0.18,-0.26 -0.04,-0.61 -0.35,-0.56 -0.19,0.03 -0.32,0.2 -0.31,0.39 0.01,0.07 0.03,0.14 0.07,0.19 0.01,0.02 0.03,0.03 0.02,0.06z"/>
   <path class="fil2" d="M0.04 1.82l0 0.09c0.04,0.01 0.03,0.05 0.03,0.09 -0,0.04 -0,0.08 -0,0.12 0,0.08 0.08,0.06 0.18,0.06 0.32,0 0.64,0 0.96,0l0.36 0c0.04,-0 0.06,-0.02 0.06,-0.06 -0.45,0 -0.89,0 -1.34,0 -0.07,0 -0.16,0.02 -0.16,-0.06 -0,-0.07 0,-0.15 0,-0.22 0,-0.3 0,-0.59 0,-0.89 0,-0.06 -0.01,-0.85 0,-0.89 -0.08,0.01 -0.06,0.08 -0.06,0.18l0 1.5c0,0.04 0.01,0.08 -0.03,0.08z"/>
   <path class="fil1" d="M0.6 1.29c0.01,-0.03 -0.01,-0.04 -0.02,-0.06 -0.04,-0.05 -0.07,-0.12 -0.07,-0.19 -0.02,-0.19 0.12,-0.37 0.31,-0.39 0.31,-0.05 0.53,0.3 0.35,0.56 -0.08,0.11 -0.22,0.18 -0.36,0.15 -0.04,-0.01 -0.11,-0.04 -0.13,-0.03 -0.02,0.03 -0.01,0.05 0.02,0.06 0.33,0.14 0.66,-0.15 0.59,-0.48 -0.07,-0.35 -0.53,-0.46 -0.75,-0.18 -0.12,0.15 -0.13,0.38 0,0.54 0.02,0.03 0.04,0.03 0.06,0.01z"/>
   <path class="fil1" d="M1.14 0.19l0 0.02c0.03,0.02 0.05,0.02 0.1,0.02 0.12,0 0.12,-0.01 0.11,0.05 0,0.04 -0,0.03 -0.04,0.03 -0.17,-0 -0.95,0.01 -0.98,-0.01l0 -0.08c0.03,-0.01 0.62,-0 0.69,-0 0.02,-0.01 0.02,-0.02 0.02,-0.04 -0.01,-0.04 -0.06,-0.03 -0.14,-0.03l-0.5 0c-0.06,-0 -0.1,-0 -0.12,0.04 -0.02,0.03 -0.01,0.11 0,0.14 0.03,0.04 0.07,0.03 0.13,0.03l0.84 0c0.05,0 0.11,0.01 0.14,-0.03 0.02,-0.03 0.03,-0.11 0.01,-0.14 -0.03,-0.06 -0.11,-0.04 -0.21,-0.04 -0.04,-0 -0.05,-0 -0.06,0.02z"/>
   <path class="fil3" d="M0.67 1.35c-0.02,-0 -0.03,-0.01 -0.04,-0.02 -0.01,-0 -0.01,-0.01 -0.02,-0.01 -0.01,-0.01 -0.01,-0.01 -0.01,-0.02 -0.03,0.02 -0.04,0.02 -0.06,-0.01 -0.13,-0.17 -0.13,-0.39 -0,-0.54 0.23,-0.28 0.68,-0.17 0.75,0.18 0.07,0.33 -0.26,0.62 -0.59,0.48 -0.03,-0.01 -0.04,-0.03 -0.02,-0.06zm-0.26 -0.46c-0.01,0.19 0.01,0.26 0.12,0.41l0.04 0.04c0.04,0.04 0.12,0.09 0.2,0.11 0.1,0.03 0.18,0.03 0.28,0.01 0.03,-0 0.12,-0.06 0.14,-0.09 0.07,-0.06 0.12,-0.15 0.14,-0.25 0.04,-0.16 -0.02,-0.36 -0.14,-0.46 -0.05,-0.05 -0.11,-0.08 -0.2,-0.11 -0.09,-0.02 -0.19,-0.02 -0.28,0.01 -0.08,0.03 -0.15,0.08 -0.19,0.12 -0.03,0.03 -0.11,0.14 -0.11,0.2z"/>
   <path class="fil1" d="M0.95 1.11c-0.03,-0.03 -0.06,0.01 -0.08,0.02 -0.02,0.02 -0.04,0.05 -0.06,0.06 -0.03,0.01 -0.05,-0.01 -0.06,-0.03 -0.02,-0.02 -0.03,-0.03 -0.05,-0.05 -0.02,-0.02 -0.03,-0.03 -0.05,-0.05 -0.01,-0.01 -0.02,-0.02 -0.02,-0.02 -0.01,-0.02 -0.01,-0.03 -0,-0.04 0,-0.01 -0.01,-0 0.01,-0.01 0.03,-0.02 0.07,0.03 0.09,0.05 0.04,0.04 0.07,0.08 0.1,0.05l0.21 -0.21c0.02,-0.01 0.03,-0.01 0.04,0 0,0 0,-0 0.01,0.01 0.01,0.01 0,0.03 -0.01,0.04 -0.04,0.05 -0.09,0.06 -0.07,0.12 0.04,0.02 0.05,-0 0.08,-0.03 0.02,-0.02 0.05,-0.04 0.06,-0.06 0.06,-0.1 -0.07,-0.21 -0.16,-0.11 -0.03,0.03 -0.17,0.17 -0.19,0.18 -0.04,-0.03 -0.11,-0.15 -0.2,-0.09 -0.03,0.02 -0.06,0.06 -0.05,0.11 0.01,0.04 0.11,0.13 0.14,0.17 0.08,0.08 0.12,0.08 0.2,-0 0.04,-0.04 0.07,-0.06 0.05,-0.1z"/>
   <path class="fil4" d="M1.03 0.23c-0,0 -0,0 -0,0l-0.01 0c-0.02,0 -0.63,0 -0.65,0 0,0.05 0.04,0.04 0.08,0.04l0.9 0c0,-0.07 0.01,-0.05 -0.11,-0.05 -0.05,0 -0.06,0.01 -0.1,-0.02l-0 -0.02c-0.02,0.01 -0.07,0.01 -0.09,0 0,0.02 -0.01,0.03 -0.02,0.04z"/>
   <path class="fil1" d="M0.9 1.79c0.03,-0.06 -0.09,-0.05 -0.13,-0.05l-0.38 0c-0.04,0 -0.16,-0.01 -0.17,0.01 -0.04,0.07 0.1,0.05 0.13,0.05l0.47 0c0.03,0 0.06,0.01 0.07,-0.02z"/>
   <path class="fil3" d="M1.44 1.61c0,0.02 0.02,0.02 0.03,0.04l0.17 0.19c0.01,0.01 0.06,0.06 0.07,0.07 0.04,-0 0.09,-0.09 0.01,-0.16l-0.22 -0.2 -0.06 0.06z"/>
   <path class="fil5" d="M1.35 0.28l-0.9 0c-0.05,0 -0.08,0.01 -0.08,-0.04 0.02,-0 0.63,0 0.65,-0l0.01 -0c0,-0 0,-0 0,-0 -0.06,0 -0.65,-0 -0.69,0l-0 0.08c0.02,0.01 0.81,0 0.98,0.01 0.04,0 0.04,0 0.04,-0.03z"/>
   <path class="fil4" d="M0.82 1.09c-0.03,0.03 -0.06,-0.01 -0.1,-0.05 -0.02,-0.02 -0.06,-0.07 -0.09,-0.05 -0.02,0.01 -0.01,0 -0.01,0.01 0,0.02 0.12,0.12 0.14,0.14 0.01,0.01 0.02,0.02 0.02,0.02 0,0 0.01,0.01 0.01,0.01 0.01,0.01 0.01,0 0.01,0.02 0.02,-0.01 0.05,-0.04 0.06,-0.06 0.02,-0.02 0.04,-0.05 0.08,-0.02 0,-0.02 0.04,-0.05 0.06,-0.06 -0.02,-0.06 0.03,-0.07 0.07,-0.12 0.01,-0.01 0.01,-0.02 0.01,-0.04 -0.01,-0.01 -0,-0.01 -0.01,-0.01 -0.01,0 -0,-0 -0.02,0.01l-0.17 0.17c-0.01,0.01 -0.02,0.02 -0.03,0.03 -0,0 -0.01,0.01 -0.02,0.01 -0.01,0 -0.01,-0 -0.02,-0.01z"/>
   <path class="fil6" d="M1.05 1.45c-0.1,0.02 -0.18,0.02 -0.28,-0.01 -0.07,-0.02 -0.16,-0.07 -0.2,-0.11l-0.04 -0.04c-0.11,-0.15 -0.13,-0.22 -0.12,-0.41 -0.04,0.04 -0.02,0.21 0,0.28 0.08,0.24 0.33,0.38 0.57,0.32 0.04,-0.01 0.05,-0.01 0.06,-0.02z"/>
   <path class="fil1" d="M1.06 2.01c0.01,-0.02 -0,-0.04 -0.02,-0.04 -0.02,-0.01 -0.27,-0 -0.3,-0 -0.03,0 -0.09,-0.01 -0.11,0.02 -0.01,0.02 -0,0.04 0.01,0.05 0.02,0.01 0.27,0 0.3,0 0.04,0 0.09,0.01 0.11,-0.02z"/>
   <path class="fil6" d="M1.71 1.9c-0.01,-0.01 -0.06,-0.06 -0.07,-0.07l-0.17 -0.19c-0.01,-0.01 -0.03,-0.02 -0.03,-0.04 -0.01,0.01 -0.02,0.02 -0.04,0.04 0.01,0.02 0.02,0.03 0.03,0.04 0.02,0.02 0.02,0.03 0.04,0.04l0.14 0.16c0.02,0.02 0.04,0.04 0.07,0.03 0.02,-0 0.02,-0 0.03,-0.01z"/>
   <path class="fil7" d="M1.34 1.5c0.01,0.02 0.03,0.04 0.05,0.05l0.02 -0.02c0.02,-0.02 0.06,-0.05 0.06,-0.08 -0,-0.01 -0.03,-0.03 -0.03,-0.03 -0.03,-0 -0.04,0.02 -0.05,0.03 -0.01,0.01 -0.04,0.03 -0.04,0.04z"/>
   <path class="fil8" d="M0.82 1.09c0.01,0.01 0.01,0.01 0.02,0.01 0.01,-0 0.01,-0.01 0.02,-0.01 0.01,-0.01 0.02,-0.02 0.03,-0.03l0.17 -0.17c0.01,-0.01 0,-0.01 0.02,-0.01 -0.01,-0.02 -0.03,-0.01 -0.04,-0l-0.21 0.21z"/>
   <path class="fil9" d="M1.39 1.56c-0.02,-0.01 -0.04,-0.04 -0.05,-0.05 -0.02,0.01 -0.03,0.03 -0.05,0.04 -0.02,0.02 -0.02,0.04 -0,0.06 0.02,0.02 0.04,0.02 0.05,-0 0.01,-0.01 0.03,-0.03 0.04,-0.04z"/>
   <path class="fil8" d="M0.81 1.19c-0.01,-0.01 -0,-0.01 -0.01,-0.02 -0,-0 -0.01,-0.01 -0.01,-0.01 -0.01,-0.01 -0.02,-0.02 -0.02,-0.02 -0.02,-0.02 -0.14,-0.12 -0.14,-0.14 -0.01,0.01 -0.01,0.02 0,0.04 0.01,0.01 0.02,0.02 0.02,0.02 0.02,0.02 0.03,0.03 0.05,0.05 0.02,0.02 0.03,0.03 0.05,0.05 0.01,0.01 0.03,0.04 0.06,0.03z"/>
   <path class="fil10" d="M1.3 1.44c-0.01,-0 -0.01,0 -0.01,-0.01 -0,-0 -0.01,-0.01 -0,-0.02 0,-0.02 0.01,-0.01 0.02,-0.03l-0.02 -0.02c-0.02,0.01 -0.05,0.04 -0.06,0.06 0.02,0.01 0.03,0.04 0.04,0.05 0.01,-0.01 0.02,-0.02 0.03,-0.04z"/>
   <path class="fil3" d="M1.3 1.44l0.04 -0.03 -0.03 -0.02c-0.01,0.02 -0.02,0.01 -0.02,0.03 -0,0.01 0,0.01 0,0.02 0.01,0.01 0.01,0.01 0.01,0.01z"/>
   <polygon class="fil11" points="0.24,1.05 0.32,1.05 0.33,0.97 0.24,0.97 0.25,0.97 0.32,0.97 0.32,1.04 0.25,1.04 "/>
  </g>
 </g>
</svg>
