<?xml version="1.0" encoding="UTF-8"?>
<!DOCTYPE svg PUBLIC "-//W3C//DTD SVG 1.1//EN" "http://www.w3.org/Graphics/SVG/1.1/DTD/svg11.dtd">
<!-- Creator: CorelDRAW 2020 (64-Bit) -->
<svg xmlns="http://www.w3.org/2000/svg" xml:space="preserve" width="162.273mm" height="162.277mm" version="1.1" style="shape-rendering:geometricPrecision; text-rendering:geometricPrecision; image-rendering:optimizeQuality; fill-rule:evenodd; clip-rule:evenodd"
viewBox="0 0 137.68 137.68"
 xmlns:xlink="http://www.w3.org/1999/xlink"
 xmlns:xodm="http://www.corel.com/coreldraw/odm/2003">
 <defs>
  <style type="text/css">
   <![CDATA[
    .fil1 {fill:black}
    .fil4 {fill:#BBE3F7}
    .fil0 {fill:#E3F4FC}
    .fil6 {fill:#F2A745}
    .fil3 {fill:#FEC108}
    .fil2 {fill:#FEDE00}
    .fil5 {fill:#FFFEFD}
   ]]>
  </style>
 </defs>
 <g id="Capa_x0020_1">
  <metadata id="CorelCorpID_0Corel-Layer"/>
  <g id="_1752203430848">
   <path class="fil0" d="M33.31 79.95l71.06 0 0 4.44 -71.06 0 -0 -4.44zm0 -13.32l71.06 0 0 4.44 -71.06 0 -0 -4.44zm0 -13.32l71.06 0 0 4.44 0.28 0 -71.34 0 -0 -4.44zm0 -13.32l71.34 0 -0.28 0 0 4.44 0.28 0 -71.34 0 -0 -4.44zm0 -13.32l44.41 0 0 4.44 -44.41 0 -0 -4.44zm12.22 70.93c1.99,0.33 44.52,0.34 46.63,0 1.06,-0.18 3.33,-2.18 4.25,-2.85l12.38 -9.21 0.04 -67.77 -88.84 0 0 61.45 19.04 13.89c0.9,0.65 5.47,4.28 6.51,4.48z"/>
   <path class="fil1" d="M26.37 126.37l30.24 -14.78c3.68,1.73 10.45,8.89 12.9,8.18 0.82,-0.24 7.82,-5.54 9.42,-6.7 1.47,-1.07 1.49,-1.85 3.46,-0.87 3.16,1.57 28.43,13.58 28.92,14.17l14.23 6.76 -113.34 0.13 14.17 -6.87zm95.61 -44.59c0.45,-0.83 4.33,-3.5 5.45,-4.31 1.64,-1.18 4.16,-3.31 5.75,-4.14l0.05 58.52 -14.75 -7.22c-1.04,-0.2 -32.45,-15.42 -33.23,-16.09l9.03 -6.76c3.13,-2.25 6,-4.44 9.14,-6.69 1.49,-1.07 17.38,-13.09 18.56,-13.31zm-106.78 44.68c-0.98,1.1 -3.73,2.09 -5.28,2.83 -1.81,0.86 -3.67,1.86 -5.47,2.57l-0.01 -5.27 0 -53.27 42 30.69c1.12,0.8 5.42,3.78 5.98,4.53 -0.81,0.71 -16.15,7.99 -18.39,9.05 -2.69,1.27 -17.36,8.76 -18.82,8.87zm93.62 -108.69l8.87 -0 0 61.47c-1.44,0.78 -2.93,2.07 -4.47,3.18 -1.2,0.86 -3.2,2.55 -4.44,3.12l-12.38 9.21c-0.92,0.66 -3.19,2.66 -4.25,2.85 -0.84,1.16 -22.69,16.94 -23.32,17.25l-11.71 -8.48c-2.05,-1.47 -3.85,-2.83 -5.9,-4.36l-5.7 -4.41c-1.05,-0.2 -5.61,-3.83 -6.51,-4.48l-19.04 -13.89 0 -61.45 88.84 0zm13.32 41.03c1.05,0.63 9.16,8.74 9.75,9.77 -0.62,0.69 -8.87,6.81 -9.76,7.2l0.01 -16.97zm-106.61 0l-0.03 16.96c-1.23,-0.6 -3.72,-2.65 -4.98,-3.56 -1.28,-0.92 -3.78,-2.61 -4.84,-3.73l9.85 -9.67zm53.31 -53.3c0.99,0.57 7.23,6.82 7.83,7.82l-1.1 0.01 -13.39 0 -1.25 -0.1 7.91 -7.73zm-68.84 63.34l0 66.62c0,1.34 0.88,2.22 2.22,2.22l133.24 0c1.34,0 2.22,-0.88 2.22,-2.22l0 -66.62c0,-1.68 -6.65,-7.62 -8.12,-9.09l-6.39 -6.38c-1.33,-1.26 -1.06,-1 -1.04,-3.4 0.06,-5.47 0.3,-30.82 0.01,-34.43 -0.24,-2.97 -3.23,-2.21 -6.39,-2.21l-29.98 0c-2.27,0.02 -2.35,0.35 -3.55,-0.89l-8.59 -8.62c-5.72,-5.72 -4,-5.57 -13.88,4.3 -1.5,1.5 -2.82,2.8 -4.29,4.32 -1.42,1.47 -3.7,0.89 -7.72,0.89l-25.81 0c-8.37,-0 -6.38,-1.62 -6.38,19.43 0,5.73 -0.06,11.49 0,17.21 0.03,3.04 0.39,1.96 -3.13,5.48l-8.6 8.6c-1.02,1.02 -3.82,3.19 -3.82,4.79z"/>
   <path class="fil2" d="M4.44 126.59l10.77 -0.13c1.46,-0.11 16.14,-7.6 18.82,-8.87 2.25,-1.06 17.59,-8.34 18.39,-9.05 -0.57,-0.74 -4.86,-3.72 -5.98,-4.53l-42 -30.69 -0 53.27z"/>
   <path class="fil2" d="M118.49 124.63c5.13,-2.45 3.66,-13.27 3.66,-19.7 0,-2.78 0.3,-22.26 -0.16,-23.15 -1.19,0.23 -17.07,12.24 -18.56,13.31 -3.14,2.25 -6,4.44 -9.14,6.69l-9.03 6.76c0.79,0.67 32.19,15.89 33.23,16.09z"/>
   <path class="fil2" d="M26.37 126.37l0 0.18c7.15,0.39 84.79,0.04 84.94,-0.19 -0.49,-0.59 -25.76,-12.6 -28.92,-14.17 -1.98,-0.98 -2,-0.2 -3.46,0.87 -1.6,1.17 -8.6,6.47 -9.42,6.7 -2.45,0.71 -9.22,-6.45 -12.9,-8.18l-30.24 14.78z"/>
   <path class="fil3" d="M111.31 126.36c-0.15,0.23 -77.79,0.58 -84.94,0.19l-0 -0.18 -14.17 6.87 113.34 -0.13 -14.23 -6.76z"/>
   <path class="fil4" d="M108.79 85.54c1.23,-0.57 3.24,-2.26 4.44,-3.12 1.54,-1.11 3.03,-2.4 4.47,-3.18l0 -61.47 -8.87 0 -0.04 67.77z"/>
   <path class="fil3" d="M125.81 106.82c3.3,-1.58 4.13,5.14 1.64,6.22 -3.37,1.46 -4.39,-4.9 -1.64,-6.22zm0 -22.21c3.95,-1.88 2.99,6.21 2.99,8.66 0,2.04 -0,4.07 0,6.11 0,1.96 0.28,4.07 -1.35,4.78 -4.13,1.79 -3.1,-6.13 -3.1,-8.67 0,-2.04 0,-4.07 -0,-6.11 -0.01,-2.36 -0.45,-3.86 1.46,-4.77zm-3.83 -2.83c0.46,0.89 0.16,20.37 0.16,23.15 0,6.43 1.48,17.25 -3.66,19.7l14.75 7.22 -0.05 -58.52c-1.59,0.84 -4.11,2.96 -5.75,4.14 -1.12,0.8 -5,3.48 -5.45,4.31z"/>
   <path class="fil4" d="M92.16 97.59c-2.1,0.34 -44.63,0.33 -46.63,-0l5.7 4.41c2.05,1.53 3.86,2.9 5.9,4.36l11.71 8.48c0.63,-0.31 22.48,-16.09 23.32,-17.25z"/>
   <polygon class="fil1" points="33.31,71.06 104.37,71.06 104.37,66.62 33.31,66.62 "/>
   <polygon class="fil1" points="33.31,84.39 104.37,84.39 104.37,79.95 33.31,79.95 "/>
   <polygon class="fil1" points="33.31,44.41 104.65,44.41 104.37,44.41 104.37,39.97 104.65,39.97 33.31,39.97 "/>
   <polygon class="fil1" points="33.31,57.74 104.65,57.74 104.37,57.74 104.37,53.3 33.31,53.3 "/>
   <polygon class="fil1" points="33.31,31.09 77.72,31.09 77.72,26.65 33.31,26.65 "/>
   <path class="fil3" d="M122.14 75.76c0.88,-0.39 9.13,-6.51 9.76,-7.2 -0.59,-1.03 -8.69,-9.14 -9.75,-9.77l-0.01 16.97z"/>
   <path class="fil3" d="M5.68 68.47c1.06,1.12 3.55,2.8 4.84,3.73 1.27,0.91 3.75,2.97 4.98,3.56l0.03 -16.96 -9.85 9.67z"/>
   <path class="fil5" d="M125.81 84.61c-1.91,0.91 -1.47,2.41 -1.46,4.77 0,2.04 0,4.07 0,6.11 0,2.53 -1.04,10.46 3.1,8.67 1.63,-0.71 1.36,-2.82 1.35,-4.78 -0.01,-2.04 -0,-4.07 -0,-6.11 0,-2.45 0.96,-10.54 -2.99,-8.66z"/>
   <path class="fil3" d="M60.93 13.23l1.25 0.1 13.39 -0 1.1 -0.01c-0.6,-1 -6.84,-7.25 -7.83,-7.82l-7.91 7.73z"/>
   <path class="fil6" d="M15.21 126.46l-10.77 0.13 0.01 5.27c1.81,-0.72 3.66,-1.71 5.47,-2.57 1.55,-0.74 4.3,-1.72 5.28,-2.83z"/>
   <path class="fil5" d="M125.81 106.82c-2.76,1.32 -1.73,7.68 1.64,6.22 2.49,-1.08 1.66,-7.8 -1.64,-6.22z"/>
  </g>
 </g>
</svg>
