<?xml version="1.0" encoding="UTF-8"?>
<!DOCTYPE svg PUBLIC "-//W3C//DTD SVG 1.1//EN" "http://www.w3.org/Graphics/SVG/1.1/DTD/svg11.dtd">
<!-- Creator: CorelDRAW 2020 (64-Bit) -->
<svg xmlns="http://www.w3.org/2000/svg" xml:space="preserve" width="123.224mm" height="94.7931mm" version="1.1" style="shape-rendering:geometricPrecision; text-rendering:geometricPrecision; image-rendering:optimizeQuality; fill-rule:evenodd; clip-rule:evenodd"
viewBox="0 0 58.87 45.28"
 xmlns:xlink="http://www.w3.org/1999/xlink"
 xmlns:xodm="http://www.corel.com/coreldraw/odm/2003">
 <defs>
  <style type="text/css">
   <![CDATA[
    .fil1 {fill:#114F0E}
    .fil0 {fill:#18CE0F}
   ]]>
  </style>
 </defs>
 <g id="Capa_x0020_1">
  <metadata id="CorelCorpID_0Corel-Layer"/>
  <rect class="fil0" width="58.87" height="45.28" rx="4.3" ry="4.65"/>
  <path class="fil1" d="M12.38 34.79c0,0.53 0.5,0.81 1.03,0.81l32.23 0c0.5,0 1.18,-0.24 1.18,-0.67 0,-1.13 -0.73,-1.7 -1.5,-2.49l-4.48 -4.98c-0.23,-0.29 -0.45,-0.44 -0.71,-0.77l-2.79 -3.05c-0.59,-0.59 -1.29,-1.05 -2.2,-1.05 -0.35,0 -0.53,0.28 -0.78,0.47 -0.26,0.2 -0.45,0.42 -0.68,0.65 -0.23,0.23 -0.41,0.4 -0.63,0.63l-0.63 0.7c-2.8,2.79 -2.55,3.11 -4.36,1.29l-2.26 -2.4c-0.36,-0.43 -1.34,-1.5 -1.9,-1.5 -0.67,0 -1.48,0.61 -1.94,1.02 -0.95,0.84 -4.39,4.92 -5.69,6.21l-1.44 1.59c-0.7,0.68 -2.46,2.6 -2.46,3.53z"/>
  <path class="fil1" d="M47.35 9.73c0,-0.54 -0.7,-0.74 -1.26,-0.74l-32.82 0c-2.87,0 -0.38,2.12 0.55,2.85 0.43,0.34 0.76,0.62 1.18,0.96l2.32 1.89c0.79,0.64 1.54,1.23 2.33,1.89l4.62 3.74c0.79,0.65 1.53,1.24 2.33,1.89 0.2,0.17 0.38,0.31 0.58,0.46 0.21,0.17 0.32,0.29 0.56,0.48 1.21,0.95 1.59,1.73 2.51,1.05 0.44,-0.32 0.73,-0.6 1.12,-0.95l9.25 -7.61c0.22,-0.17 0.34,-0.29 0.57,-0.47l5.77 -4.73c0.15,-0.14 0.4,-0.48 0.4,-0.71z"/>
  <path class="fil1" d="M37.59 21.12c0,0.5 0.66,1.07 1.16,1.64l5.84 6.43c0.63,0.7 2.68,3.53 3.42,3.53 0.42,0 0.52,-0.33 0.52,-0.74l0 -17c0,-0.67 -0.07,-2.15 -0.29,-2.52 -0.4,-0.63 -1.65,0.7 -2.02,1.02l-7.35 6.03c-0.38,0.32 -1.28,1.01 -1.28,1.6z"/>
  <path class="fil1" d="M10.68 14.98l0 17c0,2.08 2.23,-0.72 2.6,-1.17 0.67,-0.82 1.83,-2.25 2.56,-2.98l5.55 -6.13c0.78,-1.01 -0.72,-1.91 -1.79,-2.78 -0.28,-0.23 -0.51,-0.41 -0.78,-0.62 -0.28,-0.22 -0.49,-0.4 -0.77,-0.63l-3.87 -3.15c-0.53,-0.45 -1,-0.84 -1.54,-1.26 -0.97,-0.75 -1.95,-2.47 -1.95,1.73z"/>
 </g>
</svg>
