<?xml version="1.0" encoding="UTF-8"?>
<!DOCTYPE svg PUBLIC "-//W3C//DTD SVG 1.1//EN" "http://www.w3.org/Graphics/SVG/1.1/DTD/svg11.dtd">
<!-- Creator: CorelDRAW 2020 (64-Bit) -->
<svg xmlns="http://www.w3.org/2000/svg" xml:space="preserve" width="186.217mm" height="181.215mm" version="1.1" style="shape-rendering:geometricPrecision; text-rendering:geometricPrecision; image-rendering:optimizeQuality; fill-rule:evenodd; clip-rule:evenodd"
viewBox="0 0 198.14 192.81"
 xmlns:xlink="http://www.w3.org/1999/xlink"
 xmlns:xodm="http://www.corel.com/coreldraw/odm/2003">
 <defs>
  <style type="text/css">
   <![CDATA[
    .fil7 {fill:#009933}
    .fil6 {fill:#18CE0F}
    .fil8 {fill:white}
    .fil5 {fill:black;fill-rule:nonzero}
    .fil0 {fill:#BED8FB;fill-rule:nonzero}
    .fil2 {fill:#CBE2FF;fill-rule:nonzero}
    .fil4 {fill:#DA4A54;fill-rule:nonzero}
    .fil3 {fill:#DD636E;fill-rule:nonzero}
    .fil1 {fill:#DDEAFB;fill-rule:nonzero}
   ]]>
  </style>
 </defs>
 <g id="Capa_x0020_1">
  <metadata id="CorelCorpID_0Corel-Layer"/>
  <g id="_2764927443088">
   <path class="fil0" d="M34.84 53.36l0 41.1 -32.29 0 0 -29.58c0,-6.36 5.16,-11.52 11.51,-11.52l20.77 0z"/>
   <path class="fil1" d="M158.27 67.32l0 90.44c0,0 0,0 0,0 0,7.48 -6.06,13.54 -13.54,13.54l-111.23 0c-6.26,-0 -11.71,-4.3 -13.17,-10.38l-0.05 -7.74 -0.32 -46.1 0 -90.98c0,-0 0,-0 0,-0 0,-7.48 6.06,-13.54 13.54,-13.54l60 0c5.39,0 22.85,14.89 38.29,30.57 14.08,14.31 26.48,29.28 26.48,34.21z"/>
   <path class="fil2" d="M158.27 67.32l0 33.13c0,-0.04 0,-0.07 0,-0.12 -1.02,-40.65 -34.13,-42.53 -44.96,-53.36l18.48 -13.86c14.08,14.31 26.48,29.28 26.48,34.21l-0 -0z"/>
   <path class="fil2" d="M93.49 2.55l-33.13 0c0.04,0 0.07,0 0.12,0 40.65,1.02 42.53,34.13 53.36,44.96l13.86 -18.47c-14.31,-14.08 -29.28,-26.48 -34.21,-26.48z"/>
   <path class="fil0" d="M158.27 67.32l0 5.73c0,-12.06 -9.78,-21.84 -21.84,-21.84l-13.29 0c-7.48,0 -13.54,-6.06 -13.54,-13.54l0 -13.29c0,-12.06 -9.78,-21.84 -21.84,-21.84l5.73 0c0,0 0,0 0,0 10.31,0 20.21,4.1 27.5,11.39l25.89 25.89c7.29,7.29 11.39,17.19 11.39,27.5l-0 -0z"/>
   <path class="fil2" d="M111.62 105.02l0 30.37c0,9.82 -7.96,17.79 -17.79,17.79l-73.56 0 -0.32 -46.1 0 -19.83 73.88 0c9.82,-0 17.78,7.96 17.79,17.78l0 0z"/>
   <path class="fil3" d="M123.14 94.18l0 30.37c0,9.82 -7.96,17.79 -17.79,17.79l-91.28 0c-0.01,0 -0.03,0 -0.04,0 -0.33,0 -0.65,-0.02 -0.98,-0.05 -5.94,-0.52 -10.5,-5.5 -10.5,-11.47 0,0 0,-0 0,-0l-0 -65.94c0,5.96 4.56,10.95 10.5,11.47 0.33,0.03 0.66,0.05 0.98,0.05 0.01,0 0.02,0 0.03,0l91.29 -0c9.82,0 17.79,7.96 17.79,17.79l0 -0z"/>
   <path class="fil4" d="M13.05 76.35l0 65.94c-5.94,-0.52 -10.5,-5.5 -10.5,-11.47 0,0 0,-0 0,-0l-0 -65.94c0,5.96 4.56,10.95 10.5,11.47l-0 0z"/>
   <path class="fil5" d="M160.81 67.32c0,-0.03 0,-0.07 0,-0.11 0,-10.96 -4.38,-21.47 -12.14,-29.19l-25.88 -25.89c-7.72,-7.76 -18.23,-12.14 -29.19,-12.14 -0.04,0 -0.08,0 -0.11,0l-46.7 0c-1.39,0.02 -2.5,1.16 -2.5,2.55 0,1.39 1.12,2.52 2.5,2.55l40.97 -0c10.65,0.01 19.28,8.64 19.29,19.29l0 13.29c0.01,8.88 7.21,16.08 16.09,16.09l13.29 0c10.62,0.01 19.24,8.6 19.29,19.22l0 84.77c-0.01,6.07 -4.92,10.99 -10.99,11l-111.23 0c-0.01,-0 -0.02,-0 -0.03,-0 -4.97,0 -9.32,-3.35 -10.59,-8.16l-0.11 -15.71 82.59 0c11.22,-0.01 20.32,-9.11 20.33,-20.33l0 -5.51c0,-1.41 -1.14,-2.55 -2.55,-2.55 -1.41,0 -2.55,1.14 -2.55,2.55l0 5.51c-0.01,8.41 -6.83,15.23 -15.24,15.24l-91.29 0c-4.95,-0.01 -8.97,-4.02 -8.97,-8.97l-0 -55.12c2.51,2.09 5.69,3.24 8.96,3.24 0,0 0.01,0 0.01,0l91.29 0c8.41,0.01 15.23,6.83 15.24,15.24l0 14.68c0.02,1.39 1.16,2.5 2.55,2.5 1.39,0 2.52,-1.12 2.55,-2.5l0 -14.68c-0.01,-11.22 -9.11,-20.32 -20.33,-20.33l-82.85 -0 0 -57.76c0.01,-6.07 4.92,-10.99 10.99,-10.99l3.11 0c1.39,-0.02 2.5,-1.16 2.5,-2.55 0,-1.39 -1.12,-2.52 -2.5,-2.55l-3.11 0c-8.88,0.01 -16.08,7.21 -16.08,16.09l-0 34.73 -3.35 0c-7.76,0.01 -14.06,6.3 -14.06,14.06l-0 65.94c0.01,7.76 6.3,14.05 14.06,14.06l3.6 0 0.11 16.05c0,0.19 0.03,0.39 0.07,0.57 1.71,7.23 8.17,12.34 15.6,12.34 0.01,0 0.03,0 0.05,0l111.23 0c8.88,-0.01 16.08,-7.21 16.08,-16.09l0.01 -90.44zm-146.75 -11.41l3.35 0 0 17.94 -3.35 -0c-0.03,0 -0.05,0 -0.08,0 -4.95,0 -8.97,-4.02 -8.97,-8.97 0,-4.95 4.02,-8.97 8.97,-8.97 0.03,0 0.05,0 0.08,0l-0 0zm122.37 -7.24l-13.29 0c-6.07,-0.01 -10.99,-4.93 -10.99,-10.99l0 -13.29c0,-0 0,-0.01 0,-0.01 0,-6.61 -2.7,-12.95 -7.47,-17.53 5.47,1.77 10.45,4.82 14.51,8.9l25.89 25.89c4.07,4.06 7.13,9.04 8.9,14.51 -4.58,-4.77 -10.91,-7.46 -17.53,-7.46 -0,0 -0.01,0 -0.01,0l-0 0z"/>
   <path class="fil5" d="M102.56 95.67c1.41,-0 2.55,-1.14 2.55,-2.55 0,-1.41 -1.14,-2.55 -2.55,-2.55l-13.13 0c-1.41,-0 -2.55,1.14 -2.55,2.55l0 32.4c0.02,1.39 1.16,2.5 2.55,2.5 1.39,0 2.52,-1.12 2.55,-2.5l-0 -13.96 9.54 0c1.41,-0 2.55,-1.14 2.55,-2.55 0,-1.41 -1.14,-2.55 -2.55,-2.55l-9.54 0 0 -10.8 10.58 0z"/>
   <path class="fil5" d="M56.04 90.58c0,-0 0,-0 0,-0 -1.41,0 -2.55,1.14 -2.55,2.55 0,0 0,0 0,0l0 31.86c-0.02,0.12 -0.03,0.25 -0.03,0.37 0,1.47 1.17,2.67 2.64,2.7l0.01 0c0.28,0 6.81,-0.03 9.41,-0.07 4.47,-0.05 8.66,-2.18 11.33,-5.76 2.57,-3.35 3.98,-7.94 3.98,-12.91 0,-11.21 -6.28,-18.74 -15.63,-18.74l-9.17 -0zm19.62 18.72c0,7.89 -4.24,13.47 -10.31,13.58 -1.55,0.03 -4.6,0.05 -6.8,0.06 -0.01,-3.72 -0.03,-10.52 -0.03,-13.67 0,-2.64 -0.01,-9.77 -0.02,-13.61l6.62 0c5.09,0 10.54,3.59 10.54,13.65l-0 0z"/>
   <path class="fil5" d="M28.32 90.34c0,-0 -0,-0 -0,-0 -1.4,0 -2.54,1.14 -2.55,2.54l0 32.64c-0,1.41 1.14,2.55 2.55,2.55 1.41,0 2.55,-1.14 2.55,-2.55l-0 -11.64c2.11,-0.01 5.04,-0.03 6.54,-0.03 0.06,-0 0.12,0 0.18,0 6.49,0 11.76,-5.26 11.76,-11.76 0,-6.49 -5.26,-11.76 -11.76,-11.76 -0.06,0 -0.12,0 -0.18,0l-9.09 0zm15.93 11.76c-0.1,3.71 -3.13,6.66 -6.84,6.66 0,0 -0,0 -0,0 -1.49,0 -4.38,0.01 -6.49,0.03 -0.01,-2.17 -0.03,-5.17 -0.03,-6.69 0,-1.28 -0.01,-4.41 -0.01,-6.66l6.53 0c0,-0 0,-0 0,-0 3.71,0 6.74,2.96 6.84,6.66l0 -0z"/>
  </g>
  <circle class="fil6" cx="152.4" cy="147.52" r="45.29"/>
  <path class="fil7" d="M143.42 170.67c-0.2,0.38 -0.26,0 1.01,1.28 0.49,0.49 0.85,0.85 1.34,1.34 2.35,2.35 17.71,18.04 18.6,18.39 3.65,-0.41 10.52,-4.12 13.65,-6.19 2.36,-1.56 6.11,-4.66 8.01,-6.82 0.29,-0.33 0.27,-0.38 0.55,-0.7 3.98,-4.71 6.48,-8.35 8.85,-14.73 1.77,-4.75 2.02,-7.36 2.66,-12.17 0.02,-0.15 0.04,-0.31 0.05,-0.48l0 -4.43c-13.25,-12.09 -39.87,-28.86 -39.87,-28.86l-4.21 5.37c-0.18,3.11 5.33,10.69 1.66,14.33l-0.48 26.42c-0.93,0.91 -1.47,1.73 -2.37,2.63 -0.85,0.84 -1.57,1.56 -2.42,2.41 -3.56,3.56 -4.39,2.29 -7.03,2.22z"/>
  <path class="fil8" d="M149.75 116.27l5.29 0c3.09,0 5.62,2.53 5.62,5.62l0 17.37 17.37 0c3.09,0 5.62,2.53 5.62,5.62l0 5.29c0,3.09 -2.53,5.62 -5.62,5.62l-17.37 0 0 17.37c0,3.09 -2.53,5.62 -5.62,5.62l-5.29 0c-3.09,0 -5.62,-2.53 -5.62,-5.62l0 -17.37 -17.37 0c-3.09,0 -5.62,-2.53 -5.62,-5.62l0 -5.29c0,-3.09 2.53,-5.62 5.62,-5.62l17.37 0 0 -17.37c0,-3.09 2.53,-5.62 5.62,-5.62z"/>
 </g>
</svg>
