<?xml version="1.0" encoding="UTF-8"?>
<!DOCTYPE svg PUBLIC "-//W3C//DTD SVG 1.1//EN" "http://www.w3.org/Graphics/SVG/1.1/DTD/svg11.dtd">
<!-- Creator: CorelDRAW 2020 (64-Bit) -->
<svg xmlns="http://www.w3.org/2000/svg" xml:space="preserve" width="15.9571mm" height="15.9571mm" version="1.1" style="shape-rendering:geometricPrecision; text-rendering:geometricPrecision; image-rendering:optimizeQuality; fill-rule:evenodd; clip-rule:evenodd"
viewBox="0 0 2.94 2.94"
 xmlns:xlink="http://www.w3.org/1999/xlink"
 xmlns:xodm="http://www.corel.com/coreldraw/odm/2003">
 <defs>
  <style type="text/css">
   <![CDATA[
    .fil1 {fill:black}
    .fil5 {fill:#1D4F91}
    .fil7 {fill:#426DA9}
    .fil8 {fill:#6D2077}
    .fil9 {fill:#AF1685}
    .fil4 {fill:#CCD1D9}
    .fil3 {fill:#E5E8EC}
    .fil6 {fill:#E63888}
    .fil0 {fill:#EBECF1}
    .fil2 {fill:white}
   ]]>
  </style>
 </defs>
 <g id="Capa_x0020_1">
  <metadata id="CorelCorpID_0Corel-Layer"/>
  <circle class="fil0" cx="1.47" cy="1.47" r="1.47"/>
  <g id="_2730290988448">
   <path class="fil1" d="M1.93 2.5l-0.92 0c0.01,-0.07 0.1,-0.05 0.2,-0.05l0.51 0c0.07,0 0.2,-0.03 0.2,0.05zm-0.68 -0.25l0.43 -0 0.02 0.1 -0.48 0 0.02 -0.1zm0.24 -0.2l0.96 -0c0,0.12 -0.01,0.1 -0.16,0.1 -0.22,0 -0.61,0.01 -0.8,-0 0.05,-0.03 0.05,-0.06 0,-0.1zm-0.03 0.1c-0.12,0.01 -0.67,0 -0.85,0 -0.1,0 -0.12,0 -0.12,-0.1l0.96 0c-0.03,0.03 -0.06,0.08 0,0.1zm-0.26 -1.49l0.25 -0 0.06 0 0.04 -0 0.82 -0c0.05,0 0.07,0.01 0.07,0.06 0,0.04 -0,0.09 -0,0.14 0,0.36 0.01,0.73 -0,1.08l-0.81 0 -0.25 0 -0.89 -0c-0.01,-0.33 -0,-0.67 -0,-0.99 0,-0.23 -0.03,-0.29 0.08,-0.29l0.62 0zm-0.81 0.04l0 1.41c0,0.07 0.07,0.14 0.14,0.14l0.61 0c-0,0.03 -0.02,0.08 -0.03,0.1 -0.07,0 -0.1,-0 -0.15,0.03 -0.08,0.05 -0.09,0.23 -0.03,0.23l1.04 0c0.06,0 0.05,-0.07 0.05,-0.12 0,-0.07 -0.07,-0.14 -0.14,-0.14l-0.08 0c-0,-0.04 -0.02,-0.06 -0.02,-0.1l0.61 0c0.07,0 0.14,-0.07 0.14,-0.15l0 -1.39c0,-0.09 -0.07,-0.15 -0.14,-0.15l-1.87 0c-0.07,0 -0.14,0.07 -0.14,0.14z"/>
   <path class="fil2" d="M1.64 1.93l0.81 -0c0.01,-0.36 0,-0.73 0,-1.08 0,-0.04 0,-0.09 0,-0.14 -0,-0.05 -0.02,-0.06 -0.07,-0.06l-0.82 0c0.02,0.06 0.19,1.23 0.19,1.28l-0.05 0c-0.01,-0.12 -0.07,-0.5 -0.09,-0.64 -0.01,-0.08 -0.1,-0.6 -0.09,-0.64l-0.06 -0c0.02,0.05 0.19,1.24 0.19,1.28z"/>
   <path class="fil2" d="M1.39 1.93c-0.02,-0.05 -0.19,-1.25 -0.19,-1.28l-0.62 -0c-0.11,-0 -0.08,0.06 -0.08,0.29 0,0.33 -0.01,0.67 0,0.99l0.89 0z"/>
   <path class="fil0" d="M1.39 1.93l0.25 -0c0,-0.04 -0.17,-1.24 -0.19,-1.28l-0.25 0c-0,0.04 0.17,1.24 0.19,1.28z"/>
   <path class="fil3" d="M1.49 2.04c0.05,0.03 0.04,0.07 -0,0.1 0.19,0.01 0.57,0 0.8,0 0.15,0 0.16,0.02 0.16,-0.1l-0.96 0z"/>
   <path class="fil3" d="M1.46 2.14c-0.06,-0.02 -0.03,-0.07 -0,-0.1l-0.96 -0c0,0.1 0.02,0.1 0.12,0.1 0.18,-0 0.72,0.01 0.85,-0z"/>
   <path class="fil0" d="M1.55 0.65l-0.04 0c-0,0.04 0.08,0.56 0.09,0.64 0.02,0.14 0.08,0.52 0.09,0.64l0.05 0c-0,-0.05 -0.17,-1.22 -0.19,-1.28z"/>
   <polygon class="fil4" points="1.23,2.34 1.71,2.34 1.69,2.24 1.25,2.24 "/>
   <path class="fil3" d="M1.93 2.5c-0.01,-0.08 -0.14,-0.05 -0.2,-0.05l-0.51 0c-0.11,0 -0.2,-0.02 -0.2,0.05l0.92 -0z"/>
   <g>
    <path class="fil5" d="M1.55 1.22c0.05,0 0.09,0.02 0.12,0.05l0 -0.15c0,-0.01 0.01,-0.03 0.03,-0.03l0 0c0.01,0 0.03,0.01 0.03,0.03l0 0.42c0,0.01 -0.01,0.03 -0.03,0.03l0 0c-0.01,0 -0.03,-0.01 -0.03,-0.03l0 -0.02c-0.03,0.03 -0.07,0.05 -0.12,0.05 -0.09,0 -0.17,-0.08 -0.17,-0.17 0,-0.09 0.08,-0.17 0.17,-0.17zm0 0.06c0.06,0 0.11,0.05 0.11,0.11 0,0.06 -0.05,0.11 -0.11,0.11 -0.06,0 -0.11,-0.05 -0.11,-0.11 0,-0.06 0.05,-0.11 0.11,-0.11z"/>
    <rect class="fil6" x="1.72" y="0.88" width="0.16" height="0.16" rx="0.04" ry="0.04"/>
    <rect class="fil7" x="1.34" y="0.7" width="0.28" height="0.28" rx="0.08" ry="0.07"/>
    <rect class="fil8" x="0.97" y="0.96" width="0.32" height="0.32" rx="0.09" ry="0.08"/>
    <rect class="fil9" x="1.05" y="1.4" width="0.19" height="0.19" rx="0.05" ry="0.05"/>
    <rect class="fil6" x="1.27" y="1.66" width="0.23" height="0.23" rx="0.06" ry="0.06"/>
   </g>
  </g>
 </g>
</svg>
