<?xml version="1.0" encoding="UTF-8"?>
<!DOCTYPE svg PUBLIC "-//W3C//DTD SVG 1.1//EN" "http://www.w3.org/Graphics/SVG/1.1/DTD/svg11.dtd">
<!-- Creator: CorelDRAW 2020 (64-Bit) -->
<svg xmlns="http://www.w3.org/2000/svg" xml:space="preserve" width="9.7623mm" height="9.2975mm" version="1.1" style="shape-rendering:geometricPrecision; text-rendering:geometricPrecision; image-rendering:optimizeQuality; fill-rule:evenodd; clip-rule:evenodd"
viewBox="0 0 14.94 14.23"
 xmlns:xlink="http://www.w3.org/1999/xlink"
 xmlns:xodm="http://www.corel.com/coreldraw/odm/2003">
 <defs>
  <style type="text/css">
   <![CDATA[
    .fil0 {fill:black}
    .fil5 {fill:#1D4F91}
    .fil7 {fill:#426DA9}
    .fil8 {fill:#6D2077}
    .fil9 {fill:#AF1685}
    .fil4 {fill:#CCD1D9}
    .fil3 {fill:#E5E8EC}
    .fil6 {fill:#E63888}
    .fil2 {fill:#EBECF1}
    .fil1 {fill:white}
   ]]>
  </style>
 </defs>
 <g id="Capa_x0020_1">
  <metadata id="CorelCorpID_0Corel-Layer"/>
  <path class="fil0" d="M10.66 13.51l-6.39 0.01c0.06,-0.49 0.66,-0.35 1.42,-0.36l3.56 0c0.47,0 1.36,-0.17 1.41,0.35zm-4.7 -1.77l3.01 -0 0.17 0.71 -3.35 0 0.17 -0.71zm1.64 -1.42l6.62 -0.01c0,0.82 -0.07,0.71 -1.11,0.71 -1.55,0 -4.23,0.07 -5.52,-0.01 0.32,-0.24 0.33,-0.45 0.01,-0.69zm-0.23 0.68c-0.86,0.08 -4.64,0.02 -5.86,0.02 -0.7,0 -0.8,0.01 -0.8,-0.71l6.64 0.01c-0.19,0.18 -0.42,0.54 0.02,0.69zm-1.78 -10.29l1.73 -0 0.41 0 0.31 -0 5.71 -0c0.35,0 0.47,0.09 0.48,0.44 0.01,0.3 -0,0.63 -0,0.94 0,2.49 0.05,5.03 -0,7.51l-5.59 0 -1.73 0 -6.19 -0c-0.05,-2.27 -0,-4.61 -0,-6.89 0,-1.6 -0.22,-2 0.58,-2l4.3 0zm-5.59 0.26l0 9.78c0,0.49 0.49,0.98 0.98,0.98l4.22 0c-0,0.18 -0.12,0.58 -0.18,0.71 -0.51,0 -0.69,-0.03 -1.02,0.18 -0.56,0.35 -0.61,1.6 -0.18,1.6l7.2 0c0.44,0 0.36,-0.46 0.36,-0.8 0,-0.49 -0.49,-0.98 -0.98,-0.98l-0.53 0c-0.01,-0.28 -0.13,-0.44 -0.13,-0.71l4.22 0c0.48,0 0.98,-0.46 0.98,-1.07l0 -9.61c0,-0.61 -0.5,-1.07 -0.98,-1.07l-12.99 0c-0.49,0 -0.98,0.49 -0.98,0.98z"/>
  <path class="fil1" d="M8.64 9.6l5.59 -0c0.05,-2.48 0,-5.03 0,-7.51 0,-0.3 0.01,-0.64 0,-0.94 -0.01,-0.35 -0.13,-0.44 -0.48,-0.44l-5.71 0c0.13,0.41 1.3,8.54 1.33,8.88l-0.36 0c-0.07,-0.82 -0.5,-3.43 -0.65,-4.43 -0.09,-0.57 -0.66,-4.18 -0.63,-4.45l-0.41 -0c0.12,0.32 1.34,8.62 1.32,8.89z"/>
  <path class="fil1" d="M6.91 9.6c-0.11,-0.32 -1.34,-8.65 -1.32,-8.89l-4.3 -0c-0.8,-0 -0.58,0.4 -0.58,2 0,2.28 -0.05,4.62 0,6.89l6.19 0z"/>
  <path class="fil2" d="M6.91 9.6l1.73 -0c0.02,-0.27 -1.2,-8.57 -1.32,-8.89l-1.73 0c-0.03,0.24 1.2,8.57 1.32,8.89z"/>
  <path class="fil3" d="M7.6 10.33c0.33,0.24 0.31,0.45 -0.01,0.69 1.3,0.08 3.98,0.01 5.52,0.01 1.03,0 1.11,0.11 1.11,-0.71l-6.62 0.01z"/>
  <path class="fil3" d="M7.37 11.01c-0.44,-0.15 -0.21,-0.5 -0.02,-0.69l-6.64 -0.01c0,0.72 0.1,0.71 0.8,0.71 1.22,-0 5,0.06 5.86,-0.02z"/>
  <path class="fil2" d="M8.03 0.71l-0.31 0c-0.03,0.26 0.55,3.87 0.63,4.45 0.15,1 0.58,3.62 0.65,4.43l0.36 0c-0.03,-0.35 -1.2,-8.47 -1.33,-8.88z"/>
  <polygon class="fil4" points="5.8,12.45 9.14,12.45 8.98,11.74 5.97,11.74 "/>
  <path class="fil3" d="M10.66 13.51c-0.05,-0.52 -0.95,-0.35 -1.41,-0.35l-3.56 0c-0.76,0 -1.36,-0.14 -1.42,0.36l6.39 -0.01z"/>
  <path class="fil5" d="M8.02 4.69c0.32,0 0.61,0.13 0.83,0.34l0 -1.05c0,-0.1 0.08,-0.19 0.19,-0.19l0 0c0.1,0 0.19,0.08 0.19,0.19l0 2.91c0,0.1 -0.08,0.19 -0.19,0.19l0 0c-0.1,0 -0.19,-0.08 -0.19,-0.19l0 -0.16c-0.21,0.21 -0.51,0.34 -0.83,0.34 -0.65,0 -1.18,-0.53 -1.18,-1.18 0,-0.65 0.53,-1.18 1.18,-1.18zm0 0.39c0.44,0 0.79,0.35 0.79,0.79 0,0.44 -0.35,0.79 -0.79,0.79 -0.44,0 -0.79,-0.35 -0.79,-0.79 0,-0.44 0.35,-0.79 0.79,-0.79z"/>
  <rect class="fil6" x="9.18" y="2.28" width="1.1" height="1.1" rx="0.3" ry="0.29"/>
  <rect class="fil7" x="6.58" y="1.05" width="1.92" height="1.92" rx="0.52" ry="0.51"/>
  <rect class="fil8" x="3.99" y="2.89" width="2.19" height="2.19" rx="0.59" ry="0.58"/>
  <rect class="fil9" x="4.54" y="5.91" width="1.32" height="1.32" rx="0.36" ry="0.35"/>
  <rect class="fil6" x="6.07" y="7.68" width="1.58" height="1.58" rx="0.43" ry="0.42"/>
 </g>
</svg>
