<?xml version="1.0" encoding="UTF-8"?>
<!DOCTYPE svg PUBLIC "-//W3C//DTD SVG 1.1//EN" "http://www.w3.org/Graphics/SVG/1.1/DTD/svg11.dtd">
<!-- Creator: CorelDRAW 2020 (64-Bit) -->
<svg xmlns="http://www.w3.org/2000/svg" xml:space="preserve" width="189.746mm" height="165.263mm" version="1.1" style="shape-rendering:geometricPrecision; text-rendering:geometricPrecision; image-rendering:optimizeQuality; fill-rule:evenodd; clip-rule:evenodd"
viewBox="0 0 249.75 217.52"
 xmlns:xlink="http://www.w3.org/1999/xlink"
 xmlns:xodm="http://www.corel.com/coreldraw/odm/2003">
 <defs>
  <style type="text/css">
   <![CDATA[
    .fil1 {fill:black}
    .fil4 {fill:#2762B9}
    .fil7 {fill:#2763BB}
    .fil2 {fill:#3079E6}
    .fil6 {fill:#464646}
    .fil3 {fill:#CCCCCC}
    .fil8 {fill:#F1F1F1}
    .fil9 {fill:#FBDDB0}
    .fil5 {fill:#FEECD0}
    .fil0 {fill:#FEFEFE}
   ]]>
  </style>
 </defs>
 <g id="Capa_x0020_1">
  <metadata id="CorelCorpID_0Corel-Layer"/>
  <g id="_1755195018224">
   <path class="fil0" d="M123.49 80.98c2.03,-0.98 85.63,-0.36 101.58,-0.42 5.74,-0.02 8.55,-0.27 8.58,6.02l-0.02 102.24c0,4.18 1.07,10.62 -2.42,12.17 -2.18,0.97 -85.71,0.36 -101.81,0.42 -5.74,0.02 -8.56,0.27 -8.58,-6.02l0.02 -102.24c0,-4.94 -1.23,-10.3 2.65,-12.17zm-95.29 23.75c0,-13.73 2.92,-20.86 9.58,-28.69 5.79,-6.81 16.72,-11.58 26.67,-11.58 9.93,0 20.9,4.76 26.66,11.59 6.64,7.86 9.59,14.92 9.59,28.68 0.3,1.21 10.94,5.54 7.42,15.96 -2.35,6.96 -7.34,8.21 -15.98,8.21 -1.46,0.86 -1.8,3.12 -2.52,4.53 -2.01,3.98 -5.31,7.96 -9.07,10.32l0.01 5.78c10.31,0.88 19.88,1.4 25.9,7.33 7.66,7.54 6.32,14.25 6.32,26.92 0,18.89 3.1,17.62 -15.61,17.62l-65.96 0c-18.55,0 -15.1,0.69 -15.1,-18.13 0,-12.96 -1.25,-19.13 6.57,-26.67 6,-5.78 15.7,-6.11 25.65,-7.07l0 -5.79c-2.98,-1.97 -4.64,-3.68 -6.76,-6.59 -2.73,-3.76 -3.62,-7.94 -4.82,-8.26 -8.8,0 -13.94,-1.39 -16.1,-8.59 -3.04,-10.13 6.72,-13.99 7.55,-15.58zm209.48 -48.34l-225.6 0c0,43.47 0.02,86.94 0,130.41 -0.01,10.19 1.01,17.68 14.61,17.67l195.88 -0c12.79,0.03 15.12,-5.35 15.11,-17.67 -0.03,-43.47 -0,-86.94 -0,-130.41z"/>
   <path class="fil1" d="M12.07 56.39l225.6 0 4.02 0c0,44.98 -0.02,89.96 0,134.94 0,12.99 -2.07,18.16 -15.61,18.13l-202.42 0c-13.54,0.03 -15.61,-5.14 -15.61,-18.13 0.01,-44.98 0,-89.96 0,-134.94l4.02 -0zm-4.02 -16.09c0.02,-8.67 -1.76,-22.64 2.99,-28.26 4.91,-5.81 18.13,-3.99 27.22,-3.99l187.33 -0c9.53,-0.02 15.64,2.62 16.08,12.06 0.42,9.03 0.02,19.09 0.02,28.23l1 0 -234.65 0 0 -8.04zm-8.05 -21.67l0 180.26c0,9.29 9.34,18.63 18.63,18.63l212.49 0c9.29,0 18.63,-9.34 18.63,-18.63l0 -180.26c0,-9.29 -9.34,-18.63 -18.63,-18.63l-212.49 0c-9.29,0 -18.63,9.34 -18.63,18.63z"/>
   <path class="fil2" d="M169.18 169.18l48.34 0 0 8.06 -48.34 0 0 -8.06zm-22.87 -7.58c15.14,-3.98 21.03,19.24 5.82,23.27 -15.14,4.02 -22.07,-19 -5.82,-23.27zm22.87 -24.64l48.34 0 0 8.06 -48.34 0 0 -8.06zm-22.87 -7.58c15.14,-3.98 21.03,19.24 5.82,23.27 -15.14,4.02 -22.07,-19 -5.82,-23.27zm22.87 -24.64l48.34 0 0 8.06 -48.34 0 0 -8.06zm-22.87 -7.58c15.14,-3.98 21.03,19.24 5.82,23.27 -15.14,4.02 -22.07,-19 -5.82,-23.27zm-17.41 92.17l72.51 0c22.22,0.04 20.14,-14.39 20.14,-28.2l0 -72.51 -92.65 0 0 100.71z"/>
   <path class="fil1" d="M61.35 193.36c0.3,-2.08 1.58,-11.18 3.1,-12.09 1.57,0.95 2.79,9.98 3.02,12.09l-6.12 0zm35.25 -33.33c5.18,1.48 8.08,6 8.14,12.66 0.05,6.87 -0.01,13.78 -0.01,20.66l-28.2 0c-1.36,-0.82 -1.2,-2.33 -1.53,-4.19 -2.39,-9.99 -2.69,-9.79 -0.86,-16.39 8.78,1.17 6.4,-6.87 12.46,-14.26 2.87,0.06 7.54,0.46 10,1.52zm-42.71 29.12c-0.33,1.86 -0.18,3.39 -1.53,4.2l-28.2 0 -0 -4.01c-0.02,-19 -3.64,-30.18 18.13,-30.83 6.19,7.54 3.61,15.36 12.45,14.28 1.22,4.38 1.82,3.57 0.76,8.58 -0.55,2.59 -1.01,5.28 -1.61,7.78zm10.56 -23.02c1.31,0.55 1.43,0.85 2.94,1.39l-1.73 5.7 -2.39 -0.01 -1.54 -5.61 2.73 -1.46zm13.38 -8.67l-2.79 5.86 -3.1 -2.39 5.89 -3.47zm-24.03 5.69l-2.49 -5.91 5.63 4.07 -3.14 1.85zm18.71 -15.25c-0,3.94 -0.1,3.13 -3.09,5.1 -1.71,1.13 -3.14,2.32 -4.97,3.13 -1.81,-0.86 -3.22,-2.01 -4.97,-3.12 -3.04,-1.93 -3.09,-1.15 -3.09,-5.08 7.2,1.5 9.01,1.33 16.12,-0.02zm7.78 -43.7l4.31 0.52c0,15.09 1.73,24.54 -8.1,32.21 -9.25,7.22 -23.79,3.79 -28.13,-4.5 -5.44,-2.43 -4.06,-20.95 -4.06,-27.7 5.37,0 11.33,0.24 16.63,-0.03 2.56,-0.13 4.66,-0.67 6.77,-1.74 2.33,-1.17 3.04,-2.46 4.8,-3.44 1.5,0.87 1.86,1.77 3.79,2.92 1.5,0.9 2.39,1.07 3.99,1.75zm12.36 8.59l2.52 0c7.49,0 7.45,8.06 0,8.06l-2.52 0 0 -8.06zm-56.39 8.06c-3.79,0 -8,0.21 -8,-4.03 -0,-4.25 4.21,-4.03 8,-4.03l0 8.06zm0.17 -21.67c-0.08,-14.51 13.37,-26.65 28.03,-26.65 14.71,-0 28.09,12.09 28.03,26.65 -2.99,-5.23 -10.7,0.6 -14.86,-6.63 -1.53,-2.66 -0.6,-5.93 -3.2,-7.38 -3.1,-1.73 -5.4,0.64 -5.92,3.47 -1.43,7.82 -5.36,8.05 -13.62,8.04 -5.36,-0 -16.07,-1.74 -18.46,2.5zm-8.23 5.55c-0.83,1.59 -10.59,5.45 -7.55,15.58 2.16,7.2 7.3,8.59 16.1,8.59 1.2,0.32 2.09,4.5 4.82,8.26 2.12,2.92 3.78,4.62 6.76,6.59l-0 5.79c-9.95,0.95 -19.65,1.28 -25.65,7.07 -7.82,7.54 -6.57,13.71 -6.57,26.67 0,18.81 -3.45,18.13 15.1,18.13l65.96 0c18.71,0 15.61,1.26 15.61,-17.62 0,-12.67 1.35,-19.37 -6.32,-26.92 -6.03,-5.93 -15.6,-6.45 -25.9,-7.33l-0.01 -5.78c3.76,-2.36 7.06,-6.34 9.07,-10.32 0.71,-1.41 1.05,-3.67 2.52,-4.53 8.64,0 13.62,-1.24 15.98,-8.21 3.52,-10.41 -7.12,-14.75 -7.42,-15.96 0,-13.77 -2.95,-20.82 -9.59,-28.68 -5.77,-6.83 -16.73,-11.59 -26.66,-11.59 -9.95,0 -20.87,4.77 -26.67,11.58 -6.66,7.83 -9.58,14.96 -9.58,28.69z"/>
   <path class="fil1" d="M128.9 189.33l0 -100.71 92.65 0 4.03 0 0 104.73 -96.68 0 0 -4.03zm-5.41 -108.34c-3.88,1.87 -2.65,7.23 -2.65,12.17l-0.02 102.24c0.02,6.28 2.84,6.04 8.58,6.02 16.1,-0.06 99.62,0.54 101.81,-0.42 3.49,-1.55 2.42,-7.99 2.42,-12.17l0.02 -102.24c-0.02,-6.29 -2.84,-6.04 -8.58,-6.02 -15.95,0.06 -99.55,-0.56 -101.58,0.42z"/>
   <path class="fil2" d="M8.05 40.3c2.27,0 16.01,0.49 16.62,-0.46 -4.91,-2.25 -9.25,-5.53 -8.46,-13.07 1.43,-13.73 21.91,-14.3 23.9,-0.46 1.08,7.53 -3.45,11.42 -8.47,13.51 0.9,0.85 20.77,0.75 21.24,0.02 -14.91,-6.84 -8.5,-23.65 3.52,-23.69 12.63,-0.05 17.9,17.68 3.44,23.67 0.9,0.85 20.77,0.75 21.24,0.02 -4.91,-2.25 -9.25,-5.53 -8.46,-13.07 1.43,-13.73 21.91,-14.3 23.9,-0.46 1.08,7.53 -3.45,11.42 -8.47,13.51 0.95,0.9 24.82,0.72 25.26,0.02 -13.66,-6.27 -9.19,-20.09 -0.35,-23.1 3.21,-1.09 76.58,-1.14 79.88,-0.13 9.07,2.79 13.89,16.81 0.02,23.22 0,0.46 22.54,1.27 23.87,-0.56 -13.29,-7.28 -6.96,-26.16 8.81,-22.49l0.07 -8.74 -187.33 0c-9.09,0 -22.31,-1.82 -27.22,3.99 -4.75,5.62 -2.97,19.59 -2.99,28.26z"/>
   <path class="fil3" d="M237.67 56.39c0,43.47 -0.03,86.94 0,130.41 0.01,12.32 -2.32,17.7 -15.11,17.67l-195.88 0c-13.6,0.01 -14.61,-7.48 -14.61,-17.67 0.02,-43.47 0,-86.94 0,-130.41l-4.02 0c0,44.98 0.01,89.96 0,134.94 -0,12.99 2.07,18.16 15.61,18.13l202.42 0c13.54,0.03 15.61,-5.14 15.61,-18.13 -0.02,-44.98 0,-89.96 0,-134.94l-4.02 -0z"/>
   <path class="fil4" d="M225.53 16.8c10.47,5.25 7.79,11.31 6.96,17.12 1.31,0.93 2.86,2.29 3.67,3.91l-4.87 5.07c-1.68,-0.9 -3.09,-2.48 -4.01,-3.76 -5.56,0.79 -4.51,1.75 -10.55,0.16 -1.34,1.83 -23.87,1.01 -23.87,0.56 -10.58,1.45 -28.34,0.43 -39.78,0.43 -11.44,0 -29.2,1.02 -39.78,-0.43 -0.45,0.7 -24.31,0.88 -25.26,-0.02l-6.96 0.02c-0.47,0.73 -20.34,0.83 -21.24,-0.02l-6.96 0.02c-0.47,0.73 -20.34,0.83 -21.24,-0.02l-6.96 0.02c-0.61,0.94 -14.35,0.46 -16.62,0.46l-0 8.04 234.65 0 -1 0c0,-9.14 0.4,-19.2 -0.02,-28.23 -0.44,-9.45 -6.55,-12.08 -16.08,-12.06l-0.07 8.74z"/>
   <path class="fil1" d="M159.11 24.17c3.74,0 30.22,-0.76 32.45,0.78 2.38,1.65 2.1,5.65 -0.64,6.86 -2.18,0.96 -38.36,0.42 -43.9,0.42 -3.75,0 -30.21,0.77 -32.45,-0.78 -2.78,-1.92 -2.22,-5.38 0.86,-6.86 2.04,-0.98 38.12,-0.42 43.68,-0.42zm-45.82 15.68c10.58,1.45 28.34,0.43 39.78,0.43 11.44,0 29.2,1.02 39.78,-0.43 13.86,-6.41 9.05,-20.44 -0.02,-23.22 -3.3,-1.01 -76.67,-0.97 -79.88,0.13 -8.84,3.01 -13.3,16.83 0.35,23.1z"/>
   <path class="fil5" d="M48.37 132.43c3.43,1.32 11.07,0.52 15.07,0.53 8.64,0.01 16.97,-0.96 17.15,-13.1 0.06,-3.82 0.38,-12.33 -0.31,-15.66 -1.6,-0.68 -2.49,-0.85 -3.99,-1.75 -1.93,-1.16 -2.29,-2.06 -3.79,-2.92 -1.76,0.98 -2.47,2.27 -4.8,3.44 -2.11,1.06 -4.2,1.6 -6.77,1.74 -5.3,0.28 -11.26,0.03 -16.63,0.03 0,6.74 -1.37,25.27 4.06,27.7z"/>
   <path class="fil6" d="M36.43 99.18c2.39,-4.24 13.1,-2.5 18.46,-2.5 8.26,0.01 12.19,-0.22 13.62,-8.04 0.52,-2.84 2.82,-5.2 5.92,-3.47 2.6,1.45 1.67,4.72 3.2,7.38 4.16,7.23 11.86,1.4 14.86,6.63 0.07,-14.56 -13.31,-26.65 -28.03,-26.65 -14.66,0 -28.1,12.13 -28.03,26.65z"/>
   <path class="fil7" d="M128.9 189.33l0 4.03 96.68 0 0 -104.73 -4.03 0 0 72.51c0,13.81 2.08,28.24 -20.14,28.2l-72.51 -0z"/>
   <path class="fil8" d="M24.17 189.34l29.73 -0.19c0.6,-2.5 1.06,-5.19 1.61,-7.78 1.06,-5.01 0.46,-4.2 -0.76,-8.58 -8.84,1.08 -6.26,-6.74 -12.45,-14.28 -21.77,0.64 -18.14,11.83 -18.13,30.83z"/>
   <path class="fil0" d="M115.44 24.59c-3.07,1.48 -3.64,4.94 -0.86,6.86 2.24,1.55 28.7,0.78 32.45,0.78 5.54,0 41.72,0.54 43.9,-0.42 2.74,-1.21 3.02,-5.21 0.64,-6.86 -2.23,-1.54 -28.72,-0.78 -32.45,-0.78 -5.56,0 -41.64,-0.56 -43.68,0.42z"/>
   <path class="fil8" d="M75 189.16c9.08,1.11 14.35,-1.18 18.58,-6.46 4,-4.99 3.46,-15.41 3.03,-22.67 -2.46,-1.06 -7.13,-1.45 -10,-1.52 -6.06,7.4 -3.67,15.43 -12.46,14.26 -1.83,6.6 -1.54,6.4 0.86,16.39z"/>
   <path class="fil1" d="M220.08 24.55c5.01,-2.28 7.49,5.52 3.11,7.33 -4.79,1.99 -8.34,-4.95 -3.11,-7.33zm-3.35 14.74c6.04,1.6 5,0.63 10.55,-0.16 0.92,1.28 2.33,2.86 4.01,3.76l4.87 -5.07c-0.81,-1.62 -2.36,-2.98 -3.67,-3.91 0.84,-5.81 3.51,-11.87 -6.96,-17.12 -15.76,-3.67 -22.1,15.21 -8.81,22.49z"/>
   <path class="fil1" d="M147.66 137.38c4.56,-2.18 7.71,5.2 2.97,7.25 -4.39,1.9 -8.43,-4.64 -2.97,-7.25zm-1.34 -8c-16.25,4.27 -9.32,27.29 5.82,23.27 15.21,-4.04 9.33,-27.26 -5.82,-23.27z"/>
   <path class="fil1" d="M147.66 105.15c4.56,-2.18 7.71,5.2 2.97,7.25 -4.39,1.9 -8.43,-4.64 -2.97,-7.25zm-1.34 -8c-16.25,4.27 -9.32,27.29 5.82,23.27 15.21,-4.04 9.33,-27.26 -5.82,-23.27z"/>
   <path class="fil1" d="M147.66 169.6c4.56,-2.18 7.71,5.2 2.97,7.25 -4.39,1.9 -8.43,-4.64 -2.97,-7.25zm-1.34 -8c-16.25,4.27 -9.32,27.29 5.82,23.27 15.21,-4.04 9.33,-27.26 -5.82,-23.27z"/>
   <path class="fil1" d="M83.21 24.59c4.56,-2.18 7.71,5.2 2.97,7.25 -4.39,1.9 -8.43,-4.64 -2.97,-7.25zm-2.14 15.26l6.96 -0.02c5.02,-2.08 9.55,-5.98 8.47,-13.51 -1.98,-13.84 -22.46,-13.27 -23.9,0.46 -0.79,7.54 3.55,10.82 8.46,13.07z"/>
   <path class="fil1" d="M26.82 24.59c4.56,-2.18 7.71,5.2 2.97,7.25 -4.39,1.9 -8.43,-4.64 -2.97,-7.25zm-2.14 15.26l6.96 -0.02c5.02,-2.08 9.55,-5.98 8.47,-13.51 -1.98,-13.84 -22.46,-13.27 -23.9,0.46 -0.79,7.54 3.55,10.82 8.46,13.07z"/>
   <path class="fil1" d="M55.01 24.59c4.56,-2.18 7.71,5.2 2.97,7.25 -4.39,1.9 -8.43,-4.64 -2.97,-7.25zm-2.14 15.26l6.96 -0.02c14.46,-5.99 9.19,-23.72 -3.44,-23.67 -12.02,0.05 -18.42,16.86 -3.52,23.69z"/>
   <polygon class="fil1" points="169.18,145.02 217.52,145.02 217.52,136.96 169.18,136.96 "/>
   <polygon class="fil1" points="169.18,177.24 217.52,177.24 217.52,169.18 169.18,169.18 "/>
   <polygon class="fil1" points="169.18,112.79 217.52,112.79 217.52,104.73 169.18,104.73 "/>
   <path class="fil3" d="M75 189.16c0.34,1.86 0.18,3.37 1.53,4.19l28.2 0c0,-6.88 0.06,-13.79 0.01,-20.66 -0.05,-6.66 -2.96,-11.18 -8.14,-12.66 0.44,7.26 0.97,17.69 -3.03,22.67 -4.23,5.27 -9.5,7.57 -18.58,6.46z"/>
   <path class="fil9" d="M48.37 132.43c4.34,8.28 18.88,11.72 28.13,4.5 9.83,-7.67 8.1,-17.12 8.1,-32.21l-4.31 -0.52c0.7,3.33 0.37,11.84 0.31,15.66 -0.18,12.14 -8.51,13.11 -17.15,13.1 -4.01,-0 -11.64,0.79 -15.07,-0.53z"/>
   <path class="fil3" d="M53.9 189.15l-29.73 0.19 0 4.01 28.2 0c1.35,-0.82 1.2,-2.35 1.53,-4.2z"/>
   <path class="fil9" d="M64.45 156.13c1.82,-0.81 3.25,-2 4.97,-3.13 3,-1.97 3.09,-1.16 3.09,-5.1 -7.11,1.35 -8.92,1.53 -16.12,0.02 0,3.93 0.05,3.15 3.09,5.08 1.75,1.11 3.16,2.26 4.97,3.12z"/>
   <path class="fil9" d="M36.26 120.85l0 -8.06c-3.79,0 -8,-0.22 -8,4.03 0,4.24 4.21,4.03 8,4.03z"/>
   <path class="fil9" d="M92.64 120.85l2.52 0c7.45,0 7.49,-8.06 0,-8.06l-2.52 0 0 8.06z"/>
   <path class="fil2" d="M220.08 24.55c-5.23,2.38 -1.69,9.32 3.11,7.33 4.38,-1.81 1.9,-9.62 -3.11,-7.33z"/>
   <path class="fil0" d="M26.82 24.59c-5.46,2.61 -1.42,9.15 2.97,7.25 4.74,-2.05 1.59,-9.43 -2.97,-7.25z"/>
   <path class="fil0" d="M55.01 24.59c-5.46,2.61 -1.42,9.15 2.97,7.25 4.74,-2.05 1.59,-9.43 -2.97,-7.25z"/>
   <path class="fil0" d="M83.21 24.59c-5.46,2.61 -1.42,9.15 2.97,7.25 4.74,-2.05 1.59,-9.43 -2.97,-7.25z"/>
   <path class="fil0" d="M147.66 169.6c-5.46,2.61 -1.42,9.15 2.97,7.25 4.74,-2.05 1.59,-9.43 -2.97,-7.25z"/>
   <path class="fil0" d="M147.66 105.15c-5.46,2.61 -1.42,9.15 2.97,7.25 4.74,-2.05 1.59,-9.43 -2.97,-7.25z"/>
   <path class="fil0" d="M147.66 137.38c-5.46,2.61 -1.42,9.15 2.97,7.25 4.74,-2.05 1.59,-9.43 -2.97,-7.25z"/>
   <path class="fil4" d="M61.35 193.36l6.12 0c-0.23,-2.11 -1.46,-11.15 -3.02,-12.09 -1.52,0.92 -2.8,10.02 -3.1,12.09z"/>
   <path class="fil2" d="M61.72 167.6l1.54 5.61 2.39 0.01 1.73 -5.7c-1.51,-0.54 -1.63,-0.84 -2.94,-1.39l-2.73 1.46z"/>
   <polygon class="fil4" points="71.94,160.93 75.04,163.32 77.83,157.46 "/>
   <polygon class="fil4" points="53.8,163.15 56.95,161.31 51.32,157.24 "/>
  </g>
 </g>
</svg>
