<svg id="Capa_1" data-name="Capa 1" xmlns="http://www.w3.org/2000/svg" viewBox="0 0 300 300"><defs><style>.cls-1{fill:#f4f4f4;}.cls-2{fill:#f40b32;}.cls-3{fill:#191919;}</style></defs><title>Iconos_finales</title><path class="cls-1" d="M83.316,34.171A24.979,24.979,0,0,0,58.462,59.026v182.8a24.979,24.979,0,0,0,24.854,24.854H215.072a24.979,24.979,0,0,0,24.854-24.854V85.217L194.76,34.171Z"/><polygon class="cls-2" points="173.648 110.338 149.328 134.658 141.043 126.373 125.007 110.338 120.731 114.614 109.24 126.106 133.56 150.426 125.275 158.711 109.24 174.746 113.516 179.022 125.007 190.514 149.328 166.194 173.648 190.514 189.415 174.746 165.095 150.426 189.415 126.106 173.648 110.338"/><path class="cls-3" d="M244.2,82.544c-.267-.267-.267-.534-.534-.8L198.235,30.7h0c-.267-.267-.8-.535-1.069-.8-.267,0-.267-.267-.535-.267a4.956,4.956,0,0,0-1.871-.535H83.316A29.883,29.883,0,0,0,53.384,59.026v182.8a29.883,29.883,0,0,0,29.932,29.932H215.072A29.883,29.883,0,0,0,245,241.827V85.217c0-.535-.267-1.337-.267-1.871C244.47,83.079,244.47,82.811,244.2,82.544ZM199.571,47.267l29.4,32.872h-29.4Zm35.545,194.56A19.732,19.732,0,0,1,215.339,261.6H83.316a19.732,19.732,0,0,1-19.777-19.776V59.026A19.732,19.732,0,0,1,83.316,39.249H189.683V85.217a5.074,5.074,0,0,0,5.077,5.077h40.356Z"/><path class="cls-3" d="M192.89,122.632l-15.768-15.768a5,5,0,0,0-6.949,0L149.328,127.71l-20.846-20.846a5,5,0,0,0-6.949,0l-15.768,15.768a5.185,5.185,0,0,0,0,6.948l20.846,20.846-20.846,20.846a5,5,0,0,0,0,6.948l15.768,15.768a5,5,0,0,0,6.949,0l20.846-20.845,20.845,20.845a5.183,5.183,0,0,0,6.949,0L192.89,178.22a5,5,0,0,0,0-6.948l-20.846-20.846L192.89,129.58A5,5,0,0,0,192.89,122.632Zm-31.269,24.32a5,5,0,0,0,0,6.948l20.846,20.846-8.552,8.552-20.846-20.845a5,5,0,0,0-6.949,0L125.275,183.3l-8.552-8.552L137.568,153.9a6.684,6.684,0,0,0,1.069-3.475,5.079,5.079,0,0,0-1.336-3.474l-20.846-20.846,8.553-8.552L145.853,138.4a5.186,5.186,0,0,0,6.949,0l20.846-20.846,8.552,8.552Z"/></svg>