<?xml version="1.0" encoding="UTF-8"?>
<!DOCTYPE svg PUBLIC "-//W3C//DTD SVG 1.1//EN" "http://www.w3.org/Graphics/SVG/1.1/DTD/svg11.dtd">
<!-- Creator: CorelDRAW 2020 (64-Bit) -->
<svg xmlns="http://www.w3.org/2000/svg" xml:space="preserve" width="17.353mm" height="19.0175mm" version="1.1" style="shape-rendering:geometricPrecision; text-rendering:geometricPrecision; image-rendering:optimizeQuality; fill-rule:evenodd; clip-rule:evenodd"
viewBox="0 0 3.61 3.96"
 xmlns:xlink="http://www.w3.org/1999/xlink"
 xmlns:xodm="http://www.corel.com/coreldraw/odm/2003">
 <defs>
  <style type="text/css">
   <![CDATA[
    .fil1 {fill:black}
    .fil0 {fill:#B7E546}
    .fil4 {fill:#C6EDFC}
    .fil3 {fill:#E9F5FE}
    .fil2 {fill:white}
   ]]>
  </style>
 </defs>
 <g id="Capa_x0020_1">
  <metadata id="CorelCorpID_0Corel-Layer"/>
  <g id="_2768117016720">
   <path class="fil0" d="M0.46 2.17c0.07,-0.02 0.66,-0.01 0.78,-0.01 0.08,-0 0.24,-0.02 0.25,0.14 0.01,0.14 0,0.25 -0.11,0.28 -0.07,0.02 -0.66,0.01 -0.78,0.01 -0.06,0 -0.13,0.01 -0.18,-0.02 -0.04,-0.02 -0.07,-0.06 -0.08,-0.12 -0.02,-0.15 -0.01,-0.25 0.11,-0.29zm1.21 1.55l0.05 0c-0.05,-0.14 -0.04,-0.26 -0.04,-0.43 0,-0.15 0,-0.3 0,-0.46 0,-0.2 -0.04,-0.43 0.14,-0.55 0.05,-0.03 0.1,-0.05 0.16,-0.06 0.03,-0 0.02,-0.01 0.05,-0.02 0.02,-0.01 0.03,-0.01 0.05,-0.02 0.04,-0.01 0.07,-0.02 0.12,-0.02 0.08,-0.03 0.79,0.02 0.91,-0.01 0,-0.15 0,-0.29 0,-0.44 0,-0.11 0.02,-0.28 -0.03,-0.35l-0.02 -0.04c-0.29,-0 -0.57,-0 -0.86,-0 -0.15,0 -0.26,-0.01 -0.32,0.11 -0.06,0.12 -0.07,0.18 -0.18,0.25 -0.1,0.06 -0.26,0.04 -0.39,0.04l-0.86 0c-0.15,0 -0.26,0 -0.31,0.12 -0.04,0.09 -0.02,0.69 -0.02,0.84 0,0.13 -0.01,0.77 0.01,0.84 0.06,0.15 0.18,0.14 0.29,0.14l1.08 0c0.08,-0 0.14,-0.02 0.16,0.06z"/>
   <path class="fil1" d="M3.22 2.28c0.14,0.01 0.26,0.12 0.27,0.26l-0 1.05c-0.01,0.15 -0.12,0.25 -0.27,0.26l-1.04 -0c-0.14,-0.01 -0.25,-0.12 -0.25,-0.26l0 -1.04c0.01,-0.14 0.12,-0.25 0.26,-0.26l1.03 -0zm-2.24 -2.28l0.46 0 1.4 0 0.09 0c0.09,0 0.18,0.03 0.18,0.19l-0 0.7c0,0.09 0.02,0.15 -0.07,0.17 -0.07,-0.04 -0.06,-0.01 -0.06,-0.19 0,-0.14 0.01,-0.69 -0.01,-0.75 -0.04,-0.02 -0.07,-0.01 -0.13,-0.01l-1.43 -0c-0.1,0 -0.4,-0.02 -0.46,0.01 -0.01,0.04 -0.01,0.16 -0.01,0.21 0.41,0 0.81,0 1.22,0 0.27,0 0.35,-0.03 0.35,0.26 -0,0.2 -0.01,0.41 0,0.61l0.26 0.01c0.06,0 0.22,0.01 0.26,-0.01 0.1,0 0.17,0.02 0.24,0.09 0.07,0.07 0.07,0.12 0.07,0.25 0,0.21 0,0.43 0,0.64 0.31,0.17 0.25,0.39 0.25,0.77 0,0.13 0.02,0.64 -0.02,0.74 -0.03,0.09 -0.09,0.16 -0.17,0.21 -0.03,0.02 -0.05,0.03 -0.08,0.04 -0.03,0.01 -0.09,0.02 -0.16,0.02l-0.57 0 -0.43 0c-0.15,-0.02 -0.27,-0.07 -0.34,-0.24 -0.05,-0.18 -0.03,-0.61 -0.03,-0.82 0,-0.11 -0.01,-0.32 0.01,-0.42 0.03,-0.18 0.14,-0.22 0.17,-0.26 0.03,-0 0.02,-0.01 0.05,-0.02 0.02,-0.01 0.03,-0.01 0.05,-0.02 0.04,-0.01 0.07,-0.02 0.12,-0.02l1.05 -0c0,-0.17 0,-0.34 0,-0.51 0,-0.19 0.03,-0.33 -0.19,-0.33 -0.29,-0 -0.57,-0 -0.86,-0 -0.15,0 -0.26,-0.01 -0.32,0.11 -0.06,0.12 -0.07,0.18 -0.18,0.25 -0.1,0.06 -0.26,0.04 -0.39,0.04l-0.86 0c-0.15,0 -0.26,0 -0.31,0.12 -0.04,0.09 -0.02,0.69 -0.02,0.84 0,0.13 -0.01,0.77 0.01,0.84 0.06,0.15 0.18,0.14 0.29,0.14l1.08 0c0.08,-0 0.14,-0.02 0.16,0.06 -0.01,0.05 -0.03,0.06 -0.07,0.06l-0.9 0c-0.16,0 -0.37,0.02 -0.49,-0.03 -0.11,-0.05 -0.2,-0.16 -0.2,-0.32 0,-0.16 -0.01,-1.47 0.01,-1.55 0.02,-0.08 0.04,-0.13 0.09,-0.17 0.08,-0.08 0.11,-0.07 0.16,-0.09 0,-0.11 -0.01,-1.11 0,-1.16 0.01,-0.03 0.03,-0.06 0.04,-0.07 0.08,-0.08 0.37,-0.05 0.53,-0.05 0,-0.07 -0.01,-0.18 0.01,-0.23 0.02,-0.05 0.07,-0.1 0.13,-0.1l0 -0zm1.3 0.45c0.1,-0 0.13,-0.02 0.13,0.09 -0,0.2 0.01,0.48 -0,0.66l-0.38 0c-0.18,0.02 -0.23,0.12 -0.28,0.23 -0.09,0.18 -0.13,0.16 -0.35,0.16 -0.34,0 -0.68,0.01 -1.02,-0 0,-0.16 -0.02,-1.08 0.01,-1.15 0.08,-0.03 0.8,-0.01 0.95,-0.01 0.32,0 0.63,-0 0.95,0z"/>
   <path class="fil2" d="M1.46 1.33c0.04,-0 0.11,-0.01 0.13,0.02 0.03,0.03 0.02,0.08 -0.02,0.09 -0.03,0.01 -0.72,0 -0.85,0.01 -0.04,0 -0.1,0.01 -0.13,-0.01 -0.03,-0.03 -0.02,-0.07 0.01,-0.09 0.03,-0.02 0.72,-0.01 0.85,-0.01zm-0.4 -0.23c0.02,-0 0.49,-0.01 0.52,0 0.05,0.02 0.04,0.09 -0.01,0.11 -0.05,0.01 -0.29,0 -0.35,0 -0.04,0 -0.14,0.01 -0.17,-0.01 -0.04,-0.02 -0.04,-0.09 0.01,-0.1zm-0.44 0c0.02,-0.01 0.17,-0.01 0.19,-0 0.05,0.01 0.06,0.09 0.01,0.11 -0.02,0.01 -0.17,0.01 -0.2,0 -0.06,-0.01 -0.07,-0.09 -0.01,-0.11zm0.08 -0.43c0.06,-0.02 0.43,-0.02 0.48,0.01 0.13,0.06 0.12,0.26 -0.02,0.3 -0.06,0.02 -0.44,0.02 -0.49,-0.01 -0.12,-0.05 -0.14,-0.26 0.03,-0.3zm0.76 0.21c-0.1,0 -0.11,-0.12 0,-0.12l0.69 0c0.11,0 0.1,0.12 0,0.12l-0.7 0zm0.57 0.34c0.05,-0.03 0.19,-0 0.26,-0.02 0,-0.12 0,-0.25 0,-0.37 0,-0.1 0.01,-0.28 -0.01,-0.37 -0.32,-0 -0.63,-0 -0.95,-0 -0.15,0 -0.86,-0.02 -0.95,0.01 -0.03,0.07 -0.01,0.99 -0.01,1.15 0.34,0.01 0.68,0 1.02,0 0.22,0 0.26,0.02 0.35,-0.16 0.06,-0.12 0.11,-0.22 0.28,-0.23z"/>
   <path class="fil2" d="M2.45 2.9c0.02,-0.1 -0.01,-0.26 0.01,-0.35 0.03,-0.11 0.14,-0.1 0.25,-0.1 0.12,0 0.22,-0.01 0.24,0.11 0.02,0.09 -0.01,0.25 0.01,0.34 0.13,0 0.21,0.03 0.25,0.14 0.04,0.13 -0.05,0.2 -0.1,0.27 -0.06,0.07 -0.12,0.14 -0.17,0.21 -0.05,0.07 -0.1,0.15 -0.23,0.15 -0.1,-0 -0.14,-0.06 -0.19,-0.11l-0.21 -0.26c-0.05,-0.06 -0.14,-0.14 -0.1,-0.27 0.04,-0.11 0.11,-0.14 0.24,-0.14zm0.76 0.95c0.05,-0.06 0.14,-0.08 0.14,-0.32l0 -0.91c0,-0.15 -0.02,-0.22 -0.13,-0.31 -0.01,-0.01 -0.01,-0 -0.01,-0.01l-1.03 0c-0.14,0.01 -0.25,0.12 -0.26,0.26l-0 1.04c0.01,0.14 0.11,0.25 0.25,0.26l1.04 0z"/>
   <path class="fil2" d="M2.53 1.21l0.33 -0c0,-0.18 0,-0.37 0,-0.55 0,-0.14 0.01,-0.43 -0.01,-0.54l-1.43 -0c-0.1,0 -0.4,-0.02 -0.46,0.01 -0.01,0.04 -0.01,0.16 -0.01,0.21 0.41,0 0.81,0 1.22,0 0.27,0 0.35,-0.03 0.35,0.26 -0,0.2 -0.01,0.41 0,0.61z"/>
   <path class="fil1" d="M2.64 3.53c-0.03,-0.02 -0.06,-0.07 -0.09,-0.1l-0.17 -0.21c-0.02,-0.03 -0.07,-0.07 -0.07,-0.13 0.02,-0.14 0.24,-0.01 0.26,-0.13 0,-0.03 -0.01,-0.42 0.01,-0.38l0.01 -0c0,-0 0,-0 0.01,-0l0.11 -0 0.12 0.01c0.02,-0.03 0.01,0.37 0.01,0.39 0.01,0.05 0.05,0.05 0.1,0.05 0.05,-0 0.1,-0.01 0.13,0.02 0.03,0.03 0.04,0.07 0.01,0.11l-0.13 0.16c-0.04,0.05 -0.09,0.11 -0.13,0.16 -0.03,0.04 -0.08,0.12 -0.16,0.08 -0.02,-0.01 -0.01,-0 -0.02,-0.02zm-0.19 -0.63c-0.13,0 -0.21,0.03 -0.24,0.14 -0.05,0.13 0.05,0.21 0.1,0.27l0.21 0.26c0.04,0.05 0.08,0.11 0.19,0.11 0.13,0 0.17,-0.09 0.23,-0.15 0.06,-0.07 0.12,-0.14 0.17,-0.21 0.05,-0.06 0.14,-0.14 0.1,-0.27 -0.03,-0.11 -0.11,-0.14 -0.25,-0.14 -0.02,-0.09 0.01,-0.25 -0.01,-0.34 -0.02,-0.12 -0.13,-0.11 -0.24,-0.11 -0.11,0 -0.22,-0.01 -0.25,0.1 -0.02,0.09 0.01,0.25 -0.01,0.35z"/>
   <path class="fil1" d="M0.49 2.47c-0.04,-0.01 -0.03,-0.04 -0.03,-0.08 0,-0.04 -0,-0.07 0.01,-0.1 0.07,-0.02 0.68,-0.01 0.8,-0.01 0.05,-0 0.1,-0.01 0.1,0.05 0.01,0.2 0.02,0.15 -0.45,0.15l-0.44 -0.01zm-0.03 -0.3c-0.12,0.04 -0.13,0.14 -0.11,0.29 0.01,0.06 0.04,0.1 0.08,0.12 0.05,0.03 0.12,0.02 0.18,0.02 0.12,0 0.71,0.01 0.78,-0.01 0.11,-0.03 0.12,-0.15 0.11,-0.28 -0.01,-0.16 -0.17,-0.14 -0.25,-0.14 -0.12,0 -0.71,-0.01 -0.78,0.01z"/>
   <path class="fil0" d="M2.64 3.53c0.09,-0.08 0.23,-0.25 0.3,-0.35 0.05,-0.07 0.03,-0.1 0.01,-0.17 -0.06,-0 -0.09,-0 -0.1,-0.05 -0.04,-0.01 -0.08,-0 -0.11,-0.03 -0.03,-0.03 -0.02,-0.07 -0.02,-0.11 0,-0.08 0,-0.17 -0,-0.26l-0.11 0c-0,0 -0,0 -0.01,0l-0.01 0c-0.02,-0.04 -0.01,0.36 -0.01,0.38 -0.01,0.13 -0.24,-0.01 -0.26,0.13 -0.01,0.05 0.04,0.1 0.07,0.13l0.17 0.21c0.02,0.03 0.06,0.08 0.09,0.1z"/>
   <path class="fil2" d="M3.21 3.84c0.15,-0.01 0.26,-0.11 0.27,-0.26l0 -1.05c-0.01,-0.14 -0.12,-0.25 -0.27,-0.26 0.01,0.01 0,0 0.01,0.01 0.1,0.09 0.13,0.16 0.13,0.31l0 0.91c0,0.25 -0.09,0.26 -0.14,0.32z"/>
   <path class="fil0" d="M1.71 3.72l0.13 0c-0.05,-0.18 -0.03,-0.61 -0.03,-0.82 0,-0.11 -0.01,-0.32 0.01,-0.42 0.03,-0.18 0.14,-0.22 0.17,-0.26 -0.07,0.01 -0.12,0.03 -0.16,0.06 -0.18,0.13 -0.14,0.35 -0.14,0.55 0,0.15 0,0.3 0,0.46 0,0.16 -0.02,0.28 0.04,0.43z"/>
   <path class="fil1" d="M1.05 0.87c-0.09,0 -0.29,0.01 -0.35,-0.01 -0.01,-0.03 -0.01,-0.04 0,-0.07 0.06,-0.03 0.26,-0.01 0.35,-0.01 0.05,-0 0.11,-0.01 0.11,0.05 0,0.05 -0.06,0.05 -0.11,0.05zm-0.35 -0.2c-0.16,0.05 -0.15,0.25 -0.03,0.3 0.05,0.02 0.43,0.03 0.49,0.01 0.14,-0.04 0.15,-0.24 0.02,-0.3 -0.05,-0.03 -0.42,-0.03 -0.48,-0.01z"/>
   <path class="fil3" d="M0.49 2.47c0.06,-0.01 0.32,-0.01 0.4,-0.01 0.13,0 0.26,0 0.39,-0 0.01,-0.05 0.01,-0.14 -0,-0.19 -0.13,-0 -0.73,-0.01 -0.8,0.01 -0.01,0.03 -0.01,0.07 -0.01,0.1 -0,0.04 -0.01,0.07 0.03,0.08z"/>
   <path class="fil2" d="M2.53 1.21l0.26 0.01c0.06,0 0.22,0.01 0.26,-0.01l-0 -0.15c-0.07,-0.04 -0.06,-0.01 -0.06,-0.19 0,-0.14 0.01,-0.69 -0.01,-0.75 -0.04,-0.02 -0.07,-0.01 -0.13,-0.01 0.02,0.11 0.01,0.41 0.01,0.54 0,0.18 0,0.36 0,0.55l-0.33 0z"/>
   <path class="fil1" d="M0.61 1.34c-0.04,0.02 -0.04,0.07 -0.01,0.09 0.02,0.02 0.09,0.01 0.13,0.01 0.13,-0 0.82,0.01 0.85,-0.01 0.03,-0.01 0.05,-0.06 0.02,-0.09 -0.03,-0.03 -0.09,-0.02 -0.13,-0.02 -0.13,0 -0.82,-0.01 -0.85,0.01z"/>
   <path class="fil0" d="M2.2 2.17l1.05 -0c0,-0.17 0,-0.34 0,-0.51 0,-0.19 0.03,-0.33 -0.19,-0.33l0.02 0.04c0.05,0.08 0.03,0.24 0.03,0.35 0,0.15 0,0.29 0,0.44 -0.12,0.03 -0.84,-0.02 -0.91,0.01z"/>
   <path class="fil2" d="M2.03 1.21l0.38 -0c0.01,-0.18 -0,-0.46 0,-0.66 0,-0.11 -0.03,-0.1 -0.13,-0.09 0.02,0.09 0.01,0.27 0.01,0.37 0,0.12 0,0.25 0,0.37 -0.07,0.01 -0.21,-0.02 -0.26,0.02z"/>
   <path class="fil1" d="M1.46 0.88l0.7 0c0.1,0 0.11,-0.12 0,-0.12l-0.69 0c-0.11,0 -0.11,0.12 -0,0.12z"/>
   <path class="fil1" d="M1.05 1.09c-0.05,0.02 -0.05,0.08 -0.01,0.1 0.03,0.02 0.13,0.01 0.17,0.01 0.07,0 0.31,0.01 0.35,-0 0.05,-0.01 0.06,-0.09 0.01,-0.11 -0.03,-0.01 -0.51,-0.01 -0.52,-0z"/>
   <path class="fil0" d="M2.64 3.53c0.01,0.01 0,0.01 0.02,0.02 0.08,0.05 0.13,-0.04 0.16,-0.08 0.04,-0.06 0.09,-0.11 0.13,-0.16l0.13 -0.16c0.02,-0.04 0.01,-0.08 -0.01,-0.11 -0.03,-0.03 -0.08,-0.02 -0.13,-0.02 0.02,0.07 0.04,0.1 -0.01,0.17 -0.07,0.1 -0.21,0.27 -0.3,0.35z"/>
   <path class="fil0" d="M2.84 2.96c-0,-0.02 0.01,-0.42 -0.01,-0.39l-0.12 -0.01c0,0.08 0,0.17 0,0.26 -0,0.04 -0.01,0.09 0.02,0.11 0.03,0.03 0.07,0.01 0.11,0.03z"/>
   <path class="fil0" d="M1.05 0.87c0.01,-0.05 0.01,-0.05 0,-0.09 -0.09,-0 -0.29,-0.01 -0.35,0.01 -0.01,0.03 -0.01,0.04 -0,0.07 0.06,0.03 0.26,0.01 0.35,0.01z"/>
   <path class="fil1" d="M0.61 1.1c-0.06,0.02 -0.06,0.1 0.01,0.11 0.03,0 0.17,0.01 0.2,-0 0.05,-0.02 0.04,-0.1 -0.01,-0.11 -0.02,-0.01 -0.17,-0 -0.19,0z"/>
   <path class="fil4" d="M0.49 2.47l0.44 0.01c0.47,0 0.46,0.04 0.45,-0.15 -0,-0.06 -0.05,-0.05 -0.1,-0.05 0.01,0.05 0.01,0.14 0,0.19 -0.13,0 -0.26,0 -0.39,0 -0.08,0 -0.34,-0.01 -0.4,0.01z"/>
   <path class="fil0" d="M1.05 0.87c0.05,0 0.11,0.01 0.11,-0.05 -0,-0.05 -0.06,-0.05 -0.11,-0.05 0.01,0.05 0.01,0.05 0,0.09z"/>
  </g>
 </g>
</svg>
