<?xml version="1.0" encoding="UTF-8"?>
<!DOCTYPE svg PUBLIC "-//W3C//DTD SVG 1.1//EN" "http://www.w3.org/Graphics/SVG/1.1/DTD/svg11.dtd">
<!-- Creator: CorelDRAW 2020 (64-Bit) -->
<svg xmlns="http://www.w3.org/2000/svg" xml:space="preserve" width="63.6611mm" height="63.6608mm" version="1.1" style="shape-rendering:geometricPrecision; text-rendering:geometricPrecision; image-rendering:optimizeQuality; fill-rule:evenodd; clip-rule:evenodd"
viewBox="0 0 17.71 17.71"
 xmlns:xlink="http://www.w3.org/1999/xlink"
 xmlns:xodm="http://www.corel.com/coreldraw/odm/2003">
 <defs>
  <style type="text/css">
   <![CDATA[
    .str0 {stroke:black;stroke-width:0.05;stroke-miterlimit:22.9256}
    .fil0 {fill:black}
    .fil1 {fill:#EB582B}
    .fil2 {fill:white}
   ]]>
  </style>
 </defs>
 <g id="Capa_x0020_1">
  <metadata id="CorelCorpID_0Corel-Layer"/>
  <g id="_1703416783568">
   <path class="fil0" d="M8.86 -0c4.89,0 8.86,3.96 8.86,8.86 0,4.89 -3.96,8.86 -8.86,8.86 -4.89,0 -8.86,-3.96 -8.86,-8.86 0,-4.89 3.96,-8.86 8.86,-8.86zm0 0.59c4.57,0 8.27,3.7 8.27,8.27 0,4.57 -3.7,8.27 -8.27,8.27 -4.57,0 -8.27,-3.7 -8.27,-8.27 0,-4.57 3.7,-8.27 8.27,-8.27z"/>
   <circle class="fil1" cx="8.86" cy="8.86" r="8.27"/>
   <path class="fil2 str0" d="M8.45 9.78c-0.09,-0.05 -0.15,-0.12 -0.23,-0.21 -0.07,-0.07 -0.13,-0.13 -0.2,-0.2l-1.63 -1.63c-0.14,-0.13 -0.23,-0.31 -0.53,-0.28 -0.31,0.03 -0.74,0.44 -0.23,0.94 0.55,0.55 1.08,1.08 1.63,1.63 0.28,0.28 0.54,0.54 0.82,0.82 0.3,0.3 0.6,0.71 0.94,0.67 0.24,-0.03 0.38,-0.23 0.49,-0.34 0.92,-0.92 1.92,-1.96 2.84,-2.84 0.16,-0.16 0.27,-0.35 0.15,-0.6 -0.08,-0.17 -0.25,-0.32 -0.51,-0.3 -0.25,0.02 -0.36,0.2 -0.49,0.32 -0.18,0.18 -1.9,1.95 -2.04,2.02l-0 -5.95c0,-0.55 0.16,-1.46 -0.52,-1.45 -0.66,0.01 -0.5,0.88 -0.5,1.47l0 5.93z"/>
   <path class="fil2 str0" d="M4.39 12.55c-0.03,-0.45 0,-1 -0,-1.47 -0.01,-0.61 -0.58,-0.65 -0.79,-0.48 -0.16,0.13 -0.22,0.24 -0.22,0.51 -0,0.39 -0.03,1.98 0.04,2.14 0.17,0.42 0.65,0.32 1.14,0.32 2.92,0 5.85,0 8.77,0 0.49,0 0.96,0.1 1.17,-0.27 0.1,-0.18 0.06,-1.75 0.06,-2.16 -0,-0.82 -1.01,-0.79 -1.02,-0.02 -0,0.46 0.03,0.99 -0,1.45l-9.14 -0z"/>
  </g>
 </g>
</svg>
