<?xml version="1.0" encoding="UTF-8"?>
<!DOCTYPE svg PUBLIC "-//W3C//DTD SVG 1.1//EN" "http://www.w3.org/Graphics/SVG/1.1/DTD/svg11.dtd">
<!-- Creator: CorelDRAW 2020 (64-Bit) -->
<svg xmlns="http://www.w3.org/2000/svg" xml:space="preserve" width="7.5981mm" height="7.5982mm" version="1.1" style="shape-rendering:geometricPrecision; text-rendering:geometricPrecision; image-rendering:optimizeQuality; fill-rule:evenodd; clip-rule:evenodd"
viewBox="0 0 0.65 0.65"
 xmlns:xlink="http://www.w3.org/1999/xlink"
 xmlns:xodm="http://www.corel.com/coreldraw/odm/2003">
 <defs>
  <style type="text/css">
   <![CDATA[
    .fil0 {fill:#F96332}
    .fil1 {fill:white}
   ]]>
  </style>
 </defs>
 <g id="Capa_x0020_1">
  <metadata id="CorelCorpID_0Corel-Layer"/>
  <g id="_2767627571696">
   <circle class="fil0" cx="0.32" cy="0.32" r="0.32"/>
   <g>
    <path class="fil1" d="M0.31 0.36c-0,-0 -0.01,-0 -0.01,-0.01 -0,-0 -0.01,-0.01 -0.01,-0.01l-0.06 -0.06c-0.01,-0.01 -0.01,-0.01 -0.02,-0.01 -0.01,0 -0.03,0.02 -0.01,0.04 0.02,0.02 0.04,0.04 0.06,0.06 0.01,0.01 0.02,0.02 0.03,0.03 0.01,0.01 0.02,0.03 0.04,0.03 0.01,-0 0.01,-0.01 0.02,-0.01 0.04,-0.04 0.08,-0.08 0.11,-0.11 0.01,-0.01 0.01,-0.01 0.01,-0.02 -0,-0.01 -0.01,-0.01 -0.02,-0.01 -0.01,0 -0.01,0.01 -0.02,0.01 -0.01,0.01 -0.07,0.08 -0.08,0.08l0 -0.23c0,-0.02 0.01,-0.06 -0.02,-0.06 -0.03,0 -0.02,0.03 -0.02,0.06l0 0.23z"/>
    <path class="fil1" d="M0.15 0.47c-0,-0.02 0,-0.04 -0,-0.06 -0,-0.02 -0.02,-0.03 -0.03,-0.02 -0.01,0 -0.01,0.01 -0.01,0.02 -0,0.02 -0,0.08 0,0.08 0.01,0.02 0.03,0.01 0.04,0.01 0.11,0 0.23,0 0.34,0 0.02,0 0.04,0 0.05,-0.01 0,-0.01 0,-0.07 0,-0.08 -0,-0.03 -0.04,-0.03 -0.04,-0 -0,0.02 0,0.04 -0,0.06l-0.36 -0z"/>
   </g>
  </g>
 </g>
</svg>
