<?xml version="1.0" encoding="UTF-8"?>
<!DOCTYPE svg PUBLIC "-//W3C//DTD SVG 1.1//EN" "http://www.w3.org/Graphics/SVG/1.1/DTD/svg11.dtd">
<!-- Creator: CorelDRAW 2020 (64-Bit) -->
<svg xmlns="http://www.w3.org/2000/svg" xml:space="preserve" width="111.311mm" height="121.987mm" version="1.1" style="shape-rendering:geometricPrecision; text-rendering:geometricPrecision; image-rendering:optimizeQuality; fill-rule:evenodd; clip-rule:evenodd"
viewBox="0 0 73.44 80.48"
 xmlns:xlink="http://www.w3.org/1999/xlink"
 xmlns:xodm="http://www.corel.com/coreldraw/odm/2003">
 <defs>
  <style type="text/css">
   <![CDATA[
    .fil1 {fill:black}
    .fil5 {fill:#00BA7F}
    .fil3 {fill:#00F0A3}
    .fil8 {fill:#0ACDF9}
    .fil10 {fill:#118ECD}
    .fil7 {fill:#99E6FC}
    .fil9 {fill:#C6EDFC}
    .fil4 {fill:#C8EFFE}
    .fil2 {fill:#E9F5FE}
    .fil6 {fill:#FCB037}
    .fil0 {fill:#FFCF5A}
   ]]>
  </style>
 </defs>
 <g id="Capa_x0020_1">
  <metadata id="CorelCorpID_0Corel-Layer"/>
  <g id="_1703730840592">
   <path class="fil0" d="M9.38 44.13c1.35,-0.42 13.4,-0.15 15.84,-0.15 1.64,-0 4.87,-0.32 5.14,2.89 0.24,2.78 0.09,5.05 -2.19,5.75 -1.41,0.44 -13.35,0.15 -15.84,0.15 -1.23,0 -2.61,0.19 -3.65,-0.39 -0.76,-0.43 -1.45,-1.23 -1.58,-2.39 -0.34,-2.98 -0.11,-5.11 2.27,-5.86zm24.51 31.48l0.92 0c-1.07,-2.88 -0.73,-5.33 -0.73,-8.65 0,-3.09 0,-6.18 0,-9.27 0,-4.13 -0.81,-8.71 2.83,-11.26 0.93,-0.65 2.01,-1.05 3.35,-1.24 0.53,-0.06 0.46,-0.14 0.98,-0.4 0.31,-0.15 0.62,-0.28 1.01,-0.41 0.83,-0.27 1.49,-0.35 2.38,-0.39 1.59,-0.58 16.08,0.33 18.59,-0.2 0,-2.97 0,-5.93 0,-8.9 0,-2.31 0.37,-5.62 -0.64,-7.17l-0.47 -0.71c-5.79,-0.05 -11.6,-0 -17.4,-0 -3.13,0 -5.27,-0.18 -6.53,2.15 -1.31,2.41 -1.38,3.75 -3.67,5.13 -2,1.21 -5.3,0.84 -7.88,0.84l-17.45 0c-3.08,0 -5.23,0.01 -6.3,2.43 -0.78,1.77 -0.39,14.02 -0.39,16.99 0,2.66 -0.3,15.65 0.26,17.1 1.14,2.97 3.68,2.75 5.95,2.75l22.01 -0c1.57,-0 2.91,-0.37 3.16,1.21z"/>
   <path class="fil1" d="M65.39 46.35c2.94,0.14 5.29,2.38 5.48,5.23l-0.01 21.32c-0.21,2.97 -2.49,5.06 -5.56,5.21l-21.05 -0.01c-2.81,-0.22 -4.99,-2.47 -5.13,-5.34l0.01 -21.17c0.19,-2.87 2.39,-5.03 5.26,-5.23l21.01 -0.01zm-45.49 -46.35l9.41 0 28.45 0 1.76 0c1.9,0.07 3.75,0.63 3.75,3.92l-0.01 14.15c0,1.89 0.34,3.13 -1.32,3.46 -1.35,-0.91 -1.13,-0.19 -1.13,-3.77 0,-2.81 0.19,-13.95 -0.18,-15.16 -0.85,-0.36 -1.51,-0.25 -2.62,-0.25l-29.03 -0c-2.06,0 -8.11,-0.36 -9.44,0.29 -0.26,0.84 -0.27,3.21 -0.11,4.22 8.27,0 16.53,0 24.8,0 5.46,0 7.17,-0.53 7.17,5.24 -0,4.06 -0.14,8.39 0.02,12.41l5.23 0.14c1.17,0 4.55,0.3 5.31,-0.13 2.09,0 3.5,0.38 4.87,1.76 1.43,1.45 1.45,2.42 1.45,5.15 -0,4.35 0,8.7 0,13.05 6.37,3.37 5.03,7.89 5.03,15.56 0,2.63 0.31,12.92 -0.42,14.98 -0.65,1.83 -1.74,3.28 -3.41,4.29 -0.54,0.33 -1.08,0.58 -1.72,0.79 -0.58,0.19 -1.8,0.31 -3.32,0.37l-11.56 0 -8.65 0c-2.96,-0.35 -5.4,-1.52 -6.89,-4.87 -0.97,-3.69 -0.59,-12.36 -0.59,-16.66 0,-2.26 -0.23,-6.43 0.14,-8.45 0.67,-3.62 2.89,-4.4 3.37,-5.31 0.53,-0.06 0.46,-0.14 0.98,-0.4 0.31,-0.15 0.62,-0.28 1.01,-0.41 0.83,-0.27 1.49,-0.35 2.38,-0.39l21.3 -0c0,-3.44 0,-6.89 0,-10.35 0,-3.82 0.64,-6.67 -3.82,-6.63 -5.79,-0.05 -11.6,-0 -17.4,-0 -3.13,0 -5.27,-0.18 -6.53,2.15 -1.31,2.41 -1.38,3.75 -3.67,5.13 -2,1.21 -5.3,0.84 -7.88,0.84l-17.45 0c-3.08,0 -5.23,0.01 -6.3,2.43 -0.78,1.77 -0.39,14.02 -0.39,16.99 0,2.66 -0.3,15.65 0.26,17.1 1.14,2.97 3.68,2.75 5.95,2.75l22.01 -0c1.57,-0 2.91,-0.37 3.16,1.21 -0.13,0.92 -0.59,1.15 -1.45,1.24l-18.38 0.01c-3.31,0 -7.55,0.37 -9.93,-0.6 -2.28,-0.93 -4.08,-3.25 -4.06,-6.47 0.02,-3.21 -0.22,-29.78 0.11,-31.49 0.32,-1.64 0.84,-2.56 1.81,-3.53 1.7,-1.7 2.19,-1.41 3.26,-1.92 0,-2.17 -0.19,-22.61 0.09,-23.65 0.14,-0.51 0.57,-1.16 0.89,-1.47 1.63,-1.63 7.44,-0.98 10.81,-0.98 0,-1.32 -0.21,-3.71 0.17,-4.71 0.38,-1 1.37,-1.95 2.66,-2.05l0.02 -0zm26.47 9.22c2.12,-0.01 2.71,-0.37 2.69,1.93 -0.03,4.09 0.18,9.81 -0.02,13.49l-7.79 0.03c-3.58,0.37 -4.6,2.35 -5.78,4.75 -1.81,3.67 -2.57,3.35 -7.1,3.35 -6.89,0 -13.87,0.11 -20.74,-0.01 0,-3.34 -0.38,-21.92 0.26,-23.36 1.7,-0.52 16.16,-0.18 19.22,-0.18 6.41,0 12.85,-0.06 19.26,0z"/>
   <path class="fil2" d="M29.62 26.98c0.82,-0 2.14,-0.23 2.71,0.33 0.65,0.65 0.32,1.67 -0.35,1.92 -0.57,0.22 -14.68,0.1 -17.3,0.1 -0.79,0 -2.13,0.14 -2.63,-0.29 -0.64,-0.55 -0.47,-1.5 0.25,-1.91 0.62,-0.34 14.64,-0.15 17.31,-0.16zm-8.21 -4.74c0.32,-0.09 10.03,-0.19 10.61,0.05 1.04,0.43 0.82,1.93 -0.23,2.19 -0.93,0.23 -5.86,0.06 -7.19,0.06 -0.84,0 -2.84,0.17 -3.45,-0.19 -0.75,-0.45 -0.84,-1.8 0.27,-2.11zm-8.93 0.02c0.39,-0.13 3.4,-0.15 3.9,-0.04 1.03,0.22 1.31,1.77 0.26,2.2 -0.46,0.19 -3.38,0.18 -3.98,0.08 -1.32,-0.22 -1.34,-1.87 -0.19,-2.25zm1.65 -8.76c1.31,-0.36 8.74,-0.32 9.82,0.2 2.59,1.25 2.39,5.22 -0.44,6.13 -1.18,0.38 -8.94,0.31 -9.95,-0.14 -2.48,-1.11 -2.76,-5.26 0.57,-6.19zm15.5 4.35c-2.13,0 -2.14,-2.36 0.04,-2.36l14.11 0c2.14,0 2.13,2.36 0,2.36l-14.15 0zm11.62 6.83c1.06,-0.69 3.95,-0.02 5.29,-0.31 0,-2.52 0,-5.03 0,-7.54 0,-2.04 0.21,-5.77 -0.16,-7.59 -6.41,-0.06 -12.85,-0 -19.26,-0 -3.06,0 -17.52,-0.34 -19.22,0.18 -0.64,1.44 -0.26,20.02 -0.26,23.36 6.88,0.11 13.85,0.01 20.74,0.01 4.53,0 5.29,0.32 7.1,-3.35 1.18,-2.39 2.2,-4.37 5.78,-4.75z"/>
   <path class="fil3" d="M49.84 58.88c0.34,-1.94 -0.27,-5.31 0.16,-7.08 0.53,-2.21 2.79,-2.04 5.09,-2.04 2.36,-0 4.46,-0.19 4.94,2.18 0.38,1.87 -0.23,5.02 0.14,6.94 2.69,0 4.31,0.71 4.98,2.89 0.8,2.57 -1.07,4.15 -2.1,5.45 -1.16,1.47 -2.34,2.94 -3.5,4.36 -1.09,1.34 -2.02,3.15 -4.62,3.11 -2.12,-0.03 -2.92,-1.19 -3.77,-2.22l-4.26 -5.33c-1.02,-1.29 -2.92,-2.91 -2,-5.49 0.76,-2.14 2.21,-2.77 4.94,-2.77zm15.46 19.23c1.02,-1.21 2.92,-1.6 2.91,-6.59l-0 -18.55c0,-3.06 -0.5,-4.5 -2.56,-6.35 -0.19,-0.17 -0.12,-0.09 -0.27,-0.27l-21.01 0.01c-2.87,0.2 -5.07,2.36 -5.26,5.23l-0.01 21.17c0.15,2.88 2.32,5.12 5.13,5.34l21.05 0.01z"/>
   <path class="fil4" d="M51.43 24.51l6.78 -0.01c-0,-3.74 -0,-7.44 -0,-11.15 0,-2.75 0.3,-8.68 -0.18,-11l-29.03 -0c-2.06,0 -8.11,-0.36 -9.44,0.29 -0.26,0.84 -0.27,3.21 -0.11,4.22 8.27,0 16.53,0 24.8,0 5.46,0 7.17,-0.53 7.17,5.24 -0,4.06 -0.14,8.39 0.02,12.41z"/>
   <path class="fil1" d="M53.66 71.72c-0.56,-0.44 -1.23,-1.44 -1.74,-2.07l-3.49 -4.37c-0.48,-0.58 -1.51,-1.47 -1.38,-2.56 0.32,-2.84 4.91,-0.12 5.2,-2.68 0.07,-0.58 -0.22,-8.52 0.23,-7.8l0.26 -0.08c0.05,-0.01 0.09,-0.02 0.14,-0.03l2.14 -0.01 2.5 0.15c0.4,-0.64 0.21,7.5 0.22,7.93 0.29,0.99 0.95,1.04 2.08,1.04 0.95,-0 1.98,-0.12 2.58,0.45 0.54,0.51 0.77,1.47 0.3,2.2l-2.66 3.31c-0.86,1.06 -1.79,2.17 -2.66,3.31 -0.59,0.77 -1.72,2.54 -3.33,1.58 -0.37,-0.22 -0.2,-0.09 -0.39,-0.37zm-3.82 -12.84c-2.74,0 -4.18,0.63 -4.94,2.77 -0.92,2.58 0.98,4.2 2,5.49l4.26 5.33c0.85,1.04 1.65,2.19 3.77,2.22 2.6,0.04 3.52,-1.77 4.62,-3.11 1.16,-1.41 2.34,-2.89 3.5,-4.36 1.03,-1.3 2.89,-2.88 2.1,-5.45 -0.67,-2.18 -2.29,-2.89 -4.98,-2.89 -0.37,-1.92 0.24,-5.06 -0.14,-6.94 -0.48,-2.37 -2.58,-2.18 -4.94,-2.18 -2.3,0 -4.56,-0.17 -5.09,2.04 -0.43,1.76 0.18,5.13 -0.16,7.08z"/>
   <path class="fil1" d="M9.98 50.25c-0.74,-0.17 -0.56,-0.8 -0.55,-1.67 0,-0.72 -0.02,-1.51 0.2,-2.07 1.44,-0.45 13.75,-0.17 16.34,-0.16 1.1,-0.01 1.97,-0.29 2.06,0.97 0.28,4.02 0.38,3.11 -9.09,3.11l-8.96 -0.18zm-0.6 -6.12c-2.38,0.75 -2.61,2.88 -2.27,5.86 0.13,1.16 0.82,1.96 1.58,2.39 1.04,0.58 2.42,0.4 3.65,0.39 2.49,-0 14.43,0.29 15.84,-0.15 2.28,-0.7 2.42,-2.97 2.19,-5.75 -0.27,-3.21 -3.5,-2.89 -5.14,-2.89 -2.45,0 -14.5,-0.28 -15.84,0.15z"/>
   <path class="fil4" d="M53.66 71.72c1.8,-1.63 4.6,-5.1 6.05,-7.05 0.99,-1.33 0.51,-2.06 0.1,-3.43 -1.12,-0 -1.79,-0.05 -2.08,-1.04 -0.8,-0.25 -1.72,-0 -2.27,-0.54 -0.53,-0.51 -0.42,-1.45 -0.42,-2.29 0.01,-1.71 0.06,-3.55 -0.03,-5.25l-2.14 0.01c-0.05,0.01 -0.1,0.02 -0.14,0.03l-0.26 0.08c-0.45,-0.72 -0.16,7.22 -0.23,7.8 -0.29,2.57 -4.88,-0.15 -5.2,2.68 -0.12,1.09 0.9,1.98 1.38,2.56l3.49 4.37c0.51,0.63 1.17,1.63 1.74,2.07z"/>
   <path class="fil5" d="M65.3 78.11c3.07,-0.15 5.36,-2.24 5.56,-5.21l0.01 -21.32c-0.18,-2.85 -2.54,-5.09 -5.48,-5.23 0.15,0.18 0.07,0.1 0.27,0.27 2.05,1.85 2.56,3.29 2.56,6.35l0 18.55c0.01,4.99 -1.89,5.38 -2.91,6.59z"/>
   <path class="fil6" d="M34.8 75.61l2.54 0c-0.97,-3.69 -0.59,-12.36 -0.59,-16.66 0,-2.26 -0.23,-6.43 0.14,-8.45 0.67,-3.62 2.89,-4.4 3.37,-5.31 -1.34,0.19 -2.43,0.6 -3.35,1.24 -3.65,2.54 -2.83,7.13 -2.83,11.26 0,3.09 0,6.18 0,9.27 0,3.31 -0.34,5.76 0.73,8.65z"/>
   <path class="fil1" d="M21.26 17.62c-1.73,0.01 -5.91,0.28 -7.08,-0.28 -0.16,-0.53 -0.16,-0.84 0,-1.37 1.21,-0.56 5.33,-0.29 7.08,-0.28 0.94,-0 2.16,-0.14 2.16,0.96 0,1.11 -1.22,0.96 -2.16,0.96zm-7.14 -4.13c-3.33,0.93 -3.05,5.08 -0.57,6.19 1.01,0.45 8.78,0.51 9.95,0.14 2.83,-0.91 3.03,-4.87 0.44,-6.13 -1.07,-0.52 -8.51,-0.56 -9.82,-0.2z"/>
   <path class="fil2" d="M9.98 50.25c1.19,-0.3 6.53,-0.1 8.17,-0.1 2.62,0 5.24,0.01 7.87,-0 0.14,-1.01 0.12,-2.8 -0.05,-3.8 -2.59,-0.01 -14.9,-0.28 -16.34,0.16 -0.22,0.56 -0.19,1.35 -0.2,2.07 -0.01,0.88 -0.19,1.5 0.55,1.67z"/>
   <path class="fil7" d="M51.43 24.51l5.23 0.14c1.17,0 4.55,0.3 5.31,-0.13l-0.03 -2.99c-1.35,-0.91 -1.13,-0.19 -1.13,-3.77 0,-2.81 0.19,-13.95 -0.18,-15.16 -0.85,-0.36 -1.51,-0.25 -2.62,-0.25 0.49,2.32 0.18,8.25 0.18,11 0,3.7 0,7.4 0,11.15l-6.78 0.01z"/>
   <path class="fil1" d="M12.31 27.14c-0.73,0.4 -0.89,1.35 -0.25,1.91 0.5,0.44 1.84,0.3 2.63,0.29 2.62,-0 16.72,0.11 17.3,-0.1 0.67,-0.25 0.99,-1.27 0.35,-1.92 -0.57,-0.57 -1.89,-0.33 -2.71,-0.33 -2.67,0 -16.7,-0.19 -17.31,0.16z"/>
   <path class="fil6" d="M44.63 43.99l21.3 -0c0,-3.44 0,-6.89 0,-10.35 0,-3.82 0.64,-6.67 -3.82,-6.63l0.47 0.71c1.01,1.56 0.64,4.86 0.64,7.17 0,2.97 0,5.93 0,8.9 -2.51,0.53 -17,-0.38 -18.59,0.2z"/>
   <path class="fil4" d="M41.24 24.67l7.79 -0.03c0.2,-3.67 -0.01,-9.4 0.02,-13.49 0.02,-2.3 -0.57,-1.94 -2.69,-1.93 0.37,1.83 0.16,5.56 0.16,7.59 0,2.51 0,5.03 0,7.54 -1.33,0.28 -4.23,-0.38 -5.29,0.31z"/>
   <path class="fil1" d="M29.62 17.85l14.15 0c2.13,0 2.14,-2.36 0,-2.36l-14.11 0c-2.18,0 -2.17,2.36 -0.04,2.36z"/>
   <path class="fil1" d="M21.41 22.24c-1.11,0.31 -1.02,1.66 -0.27,2.11 0.61,0.36 2.61,0.19 3.45,0.19 1.33,0 6.26,0.17 7.19,-0.06 1.05,-0.26 1.27,-1.76 0.23,-2.19 -0.58,-0.24 -10.28,-0.14 -10.61,-0.05z"/>
   <path class="fil7" d="M53.66 71.72c0.2,0.28 0.02,0.14 0.39,0.37 1.61,0.96 2.74,-0.81 3.33,-1.58 0.87,-1.14 1.8,-2.25 2.66,-3.31l2.66 -3.31c0.47,-0.72 0.24,-1.68 -0.3,-2.2 -0.61,-0.57 -1.64,-0.45 -2.58,-0.45 0.41,1.38 0.89,2.1 -0.1,3.43 -1.45,1.95 -4.26,5.41 -6.05,7.05z"/>
   <path class="fil7" d="M57.74 60.2c-0,-0.43 0.18,-8.57 -0.22,-7.93l-2.5 -0.15c0.08,1.7 0.03,3.53 0.03,5.25 -0,0.84 -0.11,1.78 0.42,2.29 0.55,0.53 1.47,0.28 2.27,0.54z"/>
   <path class="fil8" d="M21.26 17.62c0.2,-0.96 0.23,-0.94 0,-1.93 -1.75,-0.01 -5.87,-0.28 -7.08,0.28 -0.16,0.53 -0.16,0.84 -0,1.37 1.17,0.56 5.36,0.28 7.08,0.28z"/>
   <path class="fil1" d="M12.47 22.26c-1.16,0.37 -1.13,2.03 0.19,2.25 0.6,0.1 3.52,0.11 3.98,-0.08 1.04,-0.43 0.76,-1.97 -0.26,-2.2 -0.5,-0.11 -3.51,-0.09 -3.9,0.04z"/>
   <path class="fil9" d="M9.98 50.25l8.96 0.18c9.47,0 9.37,0.9 9.09,-3.11 -0.09,-1.26 -0.96,-0.98 -2.06,-0.97 0.17,1.01 0.19,2.79 0.05,3.8 -2.62,0.01 -5.24,0 -7.87,0 -1.64,0 -6.98,-0.2 -8.17,0.1z"/>
   <path class="fil10" d="M21.26 17.62c0.94,0 2.17,0.15 2.16,-0.96 -0,-1.1 -1.22,-0.96 -2.16,-0.96 0.23,0.98 0.2,0.97 0,1.93z"/>
  </g>
 </g>
</svg>
