<?xml version="1.0" encoding="UTF-8"?>
<!DOCTYPE svg PUBLIC "-//W3C//DTD SVG 1.1//EN" "http://www.w3.org/Graphics/SVG/1.1/DTD/svg11.dtd">
<!-- Creator: CorelDRAW 2020 (64-Bit) -->
<svg xmlns="http://www.w3.org/2000/svg" xml:space="preserve" width="16.6781mm" height="16.6781mm" version="1.1" style="shape-rendering:geometricPrecision; text-rendering:geometricPrecision; image-rendering:optimizeQuality; fill-rule:evenodd; clip-rule:evenodd"
viewBox="0 0 2.4 2.4"
 xmlns:xlink="http://www.w3.org/1999/xlink"
 xmlns:xodm="http://www.corel.com/coreldraw/odm/2003">
 <defs>
  <style type="text/css">
   <![CDATA[
    .str0 {stroke:black;stroke-width:0.03;stroke-miterlimit:22.9256}
    .fil0 {fill:black}
    .fil1 {fill:#B7E546}
    .fil2 {fill:white}
   ]]>
  </style>
 </defs>
 <g id="Capa_x0020_1">
  <metadata id="CorelCorpID_0Corel-Layer"/>
  <g id="_2140139191440">
   <path class="fil0" d="M1.2 0c0.66,0 1.2,0.54 1.2,1.2 0,0.66 -0.54,1.2 -1.2,1.2 -0.66,0 -1.2,-0.54 -1.2,-1.2 0,-0.66 0.54,-1.2 1.2,-1.2zm0 0.08c0.62,0 1.12,0.5 1.12,1.12 0,0.62 -0.5,1.12 -1.12,1.12 -0.62,0 -1.12,-0.5 -1.12,-1.12 0,-0.62 0.5,-1.12 1.12,-1.12z"/>
   <circle class="fil1" cx="1.2" cy="1.2" r="1.12"/>
   <path class="fil2 str0" d="M1.15 1.33c-0.01,-0.01 -0.02,-0.02 -0.03,-0.03 -0.01,-0.01 -0.02,-0.02 -0.03,-0.03l-0.22 -0.22c-0.02,-0.02 -0.03,-0.04 -0.07,-0.04 -0.04,0 -0.1,0.06 -0.03,0.13 0.07,0.07 0.15,0.15 0.22,0.22 0.04,0.04 0.07,0.07 0.11,0.11 0.04,0.04 0.08,0.1 0.13,0.09 0.03,-0 0.05,-0.03 0.07,-0.05 0.13,-0.13 0.26,-0.27 0.38,-0.39 0.02,-0.02 0.04,-0.05 0.02,-0.08 -0.01,-0.02 -0.03,-0.04 -0.07,-0.04 -0.03,0 -0.05,0.03 -0.07,0.04 -0.02,0.02 -0.26,0.26 -0.28,0.27l-0 -0.81c0,-0.07 0.02,-0.2 -0.07,-0.2 -0.09,0 -0.07,0.12 -0.07,0.2l0 0.8z"/>
   <path class="fil2 str0" d="M0.6 1.7c-0,-0.06 0,-0.14 -0,-0.2 -0,-0.08 -0.08,-0.09 -0.11,-0.07 -0.02,0.02 -0.03,0.03 -0.03,0.07 -0,0.05 -0,0.27 0.01,0.29 0.02,0.06 0.09,0.04 0.16,0.04 0.4,0 0.79,0 1.19,0 0.07,0 0.13,0.01 0.16,-0.04 0.01,-0.02 0.01,-0.24 0.01,-0.29 -0,-0.11 -0.14,-0.11 -0.14,-0 -0,0.06 0,0.13 -0,0.2l-1.24 -0z"/>
  </g>
 </g>
</svg>
