<svg height="512pt" viewBox="0 0 512.00063 512" width="512pt" xmlns="http://www.w3.org/2000/svg"><path d="m8.535156 8.535156h358.398438v426.664063h-358.398438zm0 0" fill="#cde2dd"/><path d="m76.800781 42.667969h358.398438v426.664062h-358.398438zm0 0" fill="#d2b894"/><path d="m145.066406 76.800781h358.398438v426.664063h-358.398438zm0 0" fill="#88d0ef"/><path d="m179.199219 128h187.734375v264.535156h-187.734375zm0 0" fill="#2276bb"/><g fill="#fff"><path d="m401.066406 145.066406h76.800782v17.066406h-76.800782zm0 0"/><path d="m401.066406 187.734375h25.601563v17.066406h-25.601563zm0 0"/><path d="m452.265625 187.734375h25.601563v17.066406h-25.601563zm0 0"/><path d="m401.066406 230.398438h76.800782v17.070312h-76.800782zm0 0"/><path d="m401.066406 273.066406h17.066406v17.066406h-17.066406zm0 0"/><path d="m443.734375 273.066406h34.132813v17.066406h-34.132813zm0 0"/><path d="m401.066406 315.734375h76.800782v17.066406h-76.800782zm0 0"/></g><path d="m221.867188 426.667969h34.132812v34.132812h-34.132812zm0 0" fill="#d2d7d6"/><path d="m290.132812 426.667969h34.132813v34.132812h-34.132813zm0 0" fill="#d2d7d6"/><path d="m401.066406 358.398438h17.066406v17.070312h-17.066406zm0 0" fill="#fff"/><path d="m435.199219 358.398438h25.601562v17.070312h-25.601562zm0 0" fill="#fff"/><path d="m290.132812 292.640625v-2.507813c16.410157-16.800781 25.597657-39.351562 25.601563-62.839843v-22.492188c0-23.566406-19.105469-42.667969-42.667969-42.667969s-42.667968 19.101563-42.667968 42.667969v22.492188c.003906 23.484375 9.191406 46.039062 25.601562 62.839843v2.507813c-25.308594 7.546875-42.660156 30.816406-42.667969 57.226563v42.667968h119.46875v-42.667968c-.007812-26.410157-17.359375-49.679688-42.667969-57.226563zm0 0" fill="#ffbf41"/><path d="m503.464844 68.265625h-59.730469v-25.597656c0-4.714844-3.820313-8.535157-8.535156-8.535157h-59.734375v-25.597656c0-4.714844-3.820313-8.535156-8.53125-8.535156h-358.398438c-4.714844 0-8.535156 3.820312-8.535156 8.535156v426.664063c0 4.714843 3.820312 8.535156 8.535156 8.535156h59.730469v25.597656c0 4.714844 3.820313 8.535157 8.535156 8.535157h59.734375v25.597656c0 4.714844 3.820313 8.535156 8.53125 8.535156h358.402344c4.710938 0 8.53125-3.820312 8.53125-8.535156v-426.664063c0-4.714843-3.820312-8.535156-8.535156-8.535156zm-435.199219-25.597656v384h-51.199219v-409.601563h341.332032v17.066406h-281.597657c-4.714843 0-8.535156 3.820313-8.535156 8.535157zm68.265625 34.132812v384h-51.199219v-409.601562h341.335938v17.066406h-281.601563c-4.714844 0-8.535156 3.820313-8.535156 8.535156zm358.402344 418.132813h-341.332032v-409.601563h341.332032zm0 0"/><path d="m401.066406 145.066406h76.800782v17.066406h-76.800782zm0 0"/><path d="m401.066406 187.734375h25.601563v17.066406h-25.601563zm0 0"/><path d="m452.265625 187.734375h25.601563v17.066406h-25.601563zm0 0"/><path d="m401.066406 230.398438h76.800782v17.070312h-76.800782zm0 0"/><path d="m401.066406 273.066406h17.066406v17.066406h-17.066406zm0 0"/><path d="m443.734375 273.066406h34.132813v17.066406h-34.132813zm0 0"/><path d="m401.066406 315.734375h76.800782v17.066406h-76.800782zm0 0"/><path d="m256 418.132812h-34.132812c-4.714844 0-8.535157 3.820313-8.535157 8.535157v34.132812c0 4.710938 3.820313 8.53125 8.535157 8.53125h34.132812c4.714844 0 8.535156-3.820312 8.535156-8.53125v-34.132812c0-4.714844-3.824218-8.535157-8.535156-8.535157zm-8.535156 34.132813h-17.066406v-17.066406h17.066406zm0 0"/><path d="m324.265625 418.132812h-34.132813c-4.710937 0-8.53125 3.820313-8.53125 8.535157v34.132812c0 4.710938 3.820313 8.53125 8.53125 8.53125h34.132813c4.714844 0 8.535156-3.820312 8.535156-8.53125v-34.132812c0-4.714844-3.820312-8.535157-8.535156-8.535157zm-8.53125 34.132813h-17.066406v-17.066406h17.066406zm0 0"/><path d="m401.066406 358.398438h17.066406v17.070312h-17.066406zm0 0"/><path d="m435.199219 358.398438h25.601562v17.070312h-25.601562zm0 0"/><path d="m179.199219 401.066406h187.734375c4.710937 0 8.53125-3.820312 8.53125-8.53125v-264.535156c0-4.714844-3.820313-8.535156-8.53125-8.535156h-187.734375c-4.710938 0-8.53125 3.820312-8.53125 8.535156v264.535156c0 4.710938 3.820312 8.53125 8.53125 8.53125zm145.066406-17.066406h-102.398437v-34.132812c0-28.277344 22.921874-51.199219 51.199218-51.199219s51.199219 22.921875 51.199219 51.199219zm-64.5625-102.398438c-13.414063-14.902343-20.816406-34.257812-20.769531-54.308593v-22.492188c-.027344-9.0625 3.574218-17.753906 10-24.140625 13.511718-12.875 34.753906-12.875 48.265625 0 6.429687 6.382813 10.03125 15.078125 10 24.140625v22.492188c.046875 20.050781-7.355469 39.40625-20.769531 54.308593zm-71.96875-145.066406h170.664063v247.464844h-17.066407v-34.132812c-.035156-26.113282-14.960937-49.917969-38.449219-61.320313 13.890626-17.390625 21.433594-38.996094 21.382813-61.253906v-22.492188c0-28.277343-22.921875-51.199219-51.199219-51.199219s-51.199218 22.921876-51.199218 51.199219v22.492188c-.050782 22.257812 7.492187 43.863281 21.382812 61.253906-23.488281 11.402344-38.414062 35.207031-38.449219 61.320313v34.132812h-17.066406zm0 0"/></svg>