<svg height="512" viewBox="0 0 128 128" width="512" xmlns="http://www.w3.org/2000/svg"><g><g><path d="m6.5 6.5h78.92v107.833h-78.92z" fill="#5360d9"/><path d="m24.54 14.875h78.92v103.042h-78.92z" fill="#4651b8"/><path d="m121.5 35.25v86.25h-78.92v-98.25h66.92z" fill="#5360d9"/><path d="m121.5 35.25h-12v-12z" fill="#4651b8"/></g><g fill="#0f1336"><path d="m10.75 23.013v9a1.75 1.75 0 0 0 3.5 0v-9a1.75 1.75 0 0 0 -3.5 0z"/><path d="m24.54 68.25a1.749 1.749 0 0 0 1.75-1.75v-5.167a1.75 1.75 0 0 0 -3.5 0v5.167a1.749 1.749 0 0 0 1.75 1.75z"/><path d="m121.5 80.417a1.749 1.749 0 0 0 1.75-1.75v-43.417a1.75 1.75 0 0 0 -.513-1.237l-12-12a1.75 1.75 0 0 0 -1.237-.513h-4.29v-6.62a1.749 1.749 0 0 0 -1.75-1.75h-16.29v-6.63a1.749 1.749 0 0 0 -1.75-1.75h-52.67a1.75 1.75 0 0 0 0 3.5h50.92v4.88h-59.13a1.749 1.749 0 0 0 -1.75 1.75v39.787a1.75 1.75 0 0 0 3.5 0v-38.037h75.42v4.87h-59.13a1.749 1.749 0 0 0 -1.75 1.75v92.92h-14.54v-42.17a1.75 1.75 0 0 0 -3.5 0v38.58h-14.54v-104.33h14.25a1.75 1.75 0 0 0 0-3.5h-16a1.749 1.749 0 0 0 -1.75 1.75v107.83a1.749 1.749 0 0 0 1.75 1.75h16.29v1.84a1.749 1.749 0 0 0 1.75 1.75h16.29v1.83a1.749 1.749 0 0 0 1.75 1.75h78.92a1.749 1.749 0 0 0 1.75-1.75v-32.833a1.75 1.75 0 0 0 -3.5 0v31.083h-75.42v-94.75h63.42v10.25a1.749 1.749 0 0 0 1.75 1.75h10.25v41.667a1.749 1.749 0 0 0 1.75 1.75zm-10.25-46.917v-6.025l6.025 6.025z"/><path d="m109.5 42.418h-54.92a1.75 1.75 0 0 0 0 3.5h54.92a1.75 1.75 0 0 0 0-3.5z"/><path d="m109.5 50.528h-54.92a1.75 1.75 0 0 0 0 3.5h54.92a1.75 1.75 0 0 0 0-3.5z"/><path d="m109.5 58.64h-54.92a1.75 1.75 0 0 0 0 3.5h54.92a1.75 1.75 0 0 0 0-3.5z"/><path d="m109.5 66.75h-54.92a1.75 1.75 0 0 0 0 3.5h54.92a1.75 1.75 0 0 0 0-3.5z"/><path d="m109.5 74.86h-54.92a1.75 1.75 0 0 0 0 3.5h54.92a1.75 1.75 0 0 0 0-3.5z"/><path d="m109.5 82.972h-54.92a1.75 1.75 0 0 0 0 3.5h54.92a1.75 1.75 0 0 0 0-3.5z"/><path d="m109.5 91.082h-54.92a1.75 1.75 0 1 0 0 3.5h54.92a1.75 1.75 0 0 0 0-3.5z"/><path d="m109.5 99.192h-54.92a1.75 1.75 0 0 0 0 3.5h54.92a1.75 1.75 0 0 0 0-3.5z"/><path d="m109.5 107.3h-54.92a1.75 1.75 0 0 0 0 3.5h54.92a1.75 1.75 0 0 0 0-3.5z"/></g></g></svg>