<?xml version="1.0" encoding="UTF-8"?>
<!DOCTYPE svg PUBLIC "-//W3C//DTD SVG 1.1//EN" "http://www.w3.org/Graphics/SVG/1.1/DTD/svg11.dtd">
<!-- Creator: CorelDRAW 2020 (64-Bit) -->
<svg xmlns="http://www.w3.org/2000/svg" xml:space="preserve" width="50.6714mm" height="72.8611mm" version="1.1" style="shape-rendering:geometricPrecision; text-rendering:geometricPrecision; image-rendering:optimizeQuality; fill-rule:evenodd; clip-rule:evenodd"
viewBox="0 0 11.68 16.8"
 xmlns:xlink="http://www.w3.org/1999/xlink"
 xmlns:xodm="http://www.corel.com/coreldraw/odm/2003">
 <defs>
  <style type="text/css">
   <![CDATA[
    .fil0 {fill:#30302F}
    .fil10 {fill:#405969}
    .fil8 {fill:#B9BDC9}
    .fil7 {fill:#C79D79}
    .fil4 {fill:#CFD5E3}
    .fil9 {fill:#D24E3D}
    .fil5 {fill:#E1B085}
    .fil6 {fill:#EC5440}
    .fil2 {fill:#F89841}
    .fil3 {fill:#F9B75F}
    .fil1 {fill:#FDCF5C}
   ]]>
  </style>
 </defs>
 <g id="Capa_x0020_1">
  <metadata id="CorelCorpID_0Corel-Layer"/>
  <g id="_1703707287280">
   <path class="fil0" d="M0.61 14.6l0.08 -0.68c0.16,0.12 0.39,0.23 0.52,0.38l-0.6 0.3zm8.01 -14.6l0.26 0c0.31,0.04 0.59,0.22 0.83,0.36l1.14 0.8c0.14,0.1 0.24,0.19 0.37,0.29 0.21,0.18 0.45,0.46 0.47,0.81 0.03,0.42 -0.29,0.8 -0.5,1.11 -0.61,0.91 -1.34,1.88 -1.98,2.81 -0.29,0.42 -0.35,0.61 -0.69,0.51 -0.07,-0.11 -0.19,-0.19 -0.04,-0.42 0.18,-0.28 0.58,-0.78 0.69,-1.01 -0.18,-0.09 -0.42,-0.32 -0.6,-0.38 -0.09,0.09 -0.24,0.32 -0.32,0.44l-0.94 1.33c-0.41,0.6 -0.82,1.14 -1.24,1.75l-1.86 2.64c-0.11,0.16 -0.21,0.29 -0.31,0.44 -0.08,0.11 -0.24,0.31 -0.29,0.43 0.09,0.07 0.18,0.07 0.3,0.16 0.11,0.08 0.16,0.14 0.25,0.21 0.02,0.13 0.01,0.05 0.03,0.03 0.13,-0.09 1.76,-2.47 2.01,-2.81l1.49 -2.12c0.27,-0.4 0.3,-0.53 0.63,-0.42 0.25,0.23 -0.01,0.47 -0.12,0.64l-1.55 2.19c-0.13,0.18 -0.24,0.35 -0.38,0.54l-1.54 2.2c-0.14,0.2 -0.26,0.36 -0.39,0.56 -0.07,0.1 -0.12,0.17 -0.19,0.27 -0.17,0.23 -1.21,0.69 -1.5,0.83l-1.21 0.62c0.48,0 1.03,-0.1 1.05,0.27 0.02,0.4 -0.6,0.29 -0.98,0.29 -0.88,0 -1.59,0.18 -1.5,-0.41l0.51 -3.96 0.52 -0.76c0.5,-0.69 1.1,-1.61 1.6,-2.27 0.19,-0.25 0.34,-0.49 0.53,-0.75 0.19,-0.26 0.34,-0.49 0.53,-0.75 0.19,-0.26 0.34,-0.5 0.53,-0.75l3.19 -4.52c0.23,-0.31 0.56,-0.87 0.88,-1.06 0.11,-0.07 0.22,-0.1 0.33,-0.12zm-7.43 13.63c-0.1,-0.09 -0.29,-0.21 -0.43,-0.31l0.26 -2.09c0.05,-0.22 0.28,-0.28 0.43,-0.22 0.11,0.04 0.05,0.02 0.09,0.06 0.16,0.04 0.19,0.25 0.14,0.4 -0.05,0.16 -0.15,0.29 -0.01,0.44 0.31,0.32 0.41,-0.33 0.84,-0.15 0.46,0.19 0.02,0.59 0.15,0.83 0.08,0.15 0.27,0.16 0.41,0.05 0.13,-0.1 0.18,-0.22 0.41,-0.18 0.14,0.03 0.27,0.16 0.28,0.31 0.02,0.23 -0.08,0.28 -0.24,0.36l-1.58 0.81c-0.2,0.11 -0.22,0.09 -0.39,-0.04 -0.12,-0.09 -0.24,-0.18 -0.37,-0.26zm3.84 -5.96c0.41,-0.61 0.84,-1.16 1.25,-1.77 0.2,-0.3 0.41,-0.59 0.62,-0.89 0.21,-0.29 0.39,-0.58 0.61,-0.87 0.13,0.05 0.5,0.33 0.59,0.42l-2.48 3.54c-0.21,0.31 -0.41,0.6 -0.62,0.89l-1.25 1.77c-0.12,0.17 -0.51,0.77 -0.62,0.85 -0.41,-0.46 -0.3,-0.24 -0.58,-0.42l2.47 -3.52zm-3.51 2.81c0.09,-0.19 1.11,-1.6 1.25,-1.79l1.86 -2.64c0.59,-0.87 1.25,-1.76 1.85,-2.63 0.11,0.04 0.52,0.34 0.6,0.42l-1.24 1.78c-0.74,1.05 -1.73,2.51 -2.48,3.52 -0.22,0.3 -0.42,0.59 -0.62,0.88 -0.19,0.27 -0.41,0.62 -0.61,0.86 -0.13,-0.11 -0.2,-0.32 -0.59,-0.4zm6.51 -8.38c0.13,0.05 0.95,0.66 1.14,0.79 0.39,0.26 0.74,0.54 1.11,0.79l-0.82 1.17 -2.3 -1.63c-0.14,-0.06 -0.21,-0.16 -0.36,-0.22 0.05,-0.14 0.74,-1.11 0.83,-1.18l0.38 0.27c0,-0.01 0.01,0.01 0.02,0.02zm1.3 -1.3c0.17,0.02 1.28,0.86 1.42,0.97 0.06,0.05 0.26,0.24 0.29,0.3 0.29,0.43 -0.46,1.16 -0.46,1.16l-1.13 -0.79c-0.1,-0.07 -1.07,-0.72 -1.1,-0.8 -0.15,-0.07 -0.28,-0.19 -0.42,-0.27 0.07,-0.14 0.45,-0.66 0.54,-0.73 0.32,-0.25 0.78,0.04 0.86,0.16z"/>
   <path class="fil1" d="M4.17 12.27l0.03 0.03c0.13,-0.09 1.76,-2.47 2.01,-2.81l1.49 -2.12c0.27,-0.4 0.3,-0.53 0.63,-0.42 0.07,-0.08 0.12,-0.14 0.18,-0.25 -0.07,-0.11 -0.19,-0.19 -0.04,-0.42 0.18,-0.28 0.58,-0.78 0.69,-1.01 -0.18,-0.09 -0.42,-0.32 -0.6,-0.38 -0.09,0.09 -0.24,0.32 -0.32,0.44l-0.94 1.33c-0.41,0.6 -0.82,1.14 -1.24,1.75l-1.86 2.64c-0.11,0.16 -0.21,0.29 -0.31,0.44 -0.08,0.11 -0.24,0.31 -0.29,0.43 0.09,0.07 0.18,0.07 0.3,0.16 0.11,0.08 0.16,0.14 0.25,0.21z"/>
   <path class="fil2" d="M1.53 10.48c0.39,0.08 0.46,0.29 0.59,0.4 0.21,-0.24 0.42,-0.59 0.61,-0.86 0.21,-0.29 0.41,-0.59 0.62,-0.88 0.75,-1.01 1.75,-2.47 2.48,-3.52l1.24 -1.78c-0.07,-0.08 -0.49,-0.38 -0.6,-0.42 -0.6,0.87 -1.26,1.76 -1.85,2.63l-1.86 2.64c-0.14,0.19 -1.16,1.61 -1.25,1.79z"/>
   <path class="fil3" d="M2.57 11.19c0.28,0.18 0.17,-0.04 0.58,0.42 0.11,-0.08 0.5,-0.68 0.62,-0.85l1.25 -1.77c0.21,-0.29 0.41,-0.58 0.62,-0.89l2.48 -3.54c-0.09,-0.09 -0.47,-0.36 -0.59,-0.42 -0.22,0.28 -0.4,0.57 -0.61,0.87 -0.22,0.3 -0.42,0.59 -0.62,0.89 -0.41,0.61 -0.84,1.16 -1.25,1.77l-2.47 3.52z"/>
   <path class="fil0" d="M0 16.5c0,0.16 0.09,0.3 0.26,0.3l11.06 0c0.37,0 0.31,-0.52 0.07,-0.52l-11.12 0c-0.14,0 -0.26,0.1 -0.26,0.23z"/>
   <path class="fil0" d="M2.79 15.03c0,0.22 0.13,0.33 0.36,0.33l8.07 0c0.51,0 0.43,-0.56 0.1,-0.56l-8.23 0c-0.2,0 -0.3,0.2 -0.3,0.23z"/>
   <path class="fil4" d="M7.17 3.22l2.3 1.63 0.82 -1.17c-0.37,-0.24 -0.72,-0.52 -1.11,-0.79 -0.19,-0.13 -1.01,-0.74 -1.14,-0.79 -0.12,0.01 -0.05,-0.03 -0.15,0.11 -0.17,0.23 -0.59,0.87 -0.72,1z"/>
   <path class="fil5" d="M1.2 13.63c0.13,0.07 0.25,0.16 0.37,0.26 0.17,0.13 0.18,0.15 0.39,0.04l1.58 -0.81c0.16,-0.08 0.26,-0.12 0.24,-0.36 -0.01,-0.15 -0.14,-0.28 -0.28,-0.31 -0.23,-0.05 -0.28,0.07 -0.41,0.18 -0.13,0.11 -0.33,0.09 -0.41,-0.05 -0.13,-0.24 0.31,-0.64 -0.15,-0.83 -0.43,-0.18 -0.53,0.48 -0.84,0.15 -0.15,-0.15 -0.04,-0.27 0.01,-0.44 0.04,-0.14 0.02,-0.35 -0.14,-0.4 -0.1,0.11 -0.17,1.01 -0.19,1.24 -0.05,0.38 -0.16,0.97 -0.15,1.33z"/>
   <path class="fil6" d="M8.36 1.65c0.03,0.07 1,0.73 1.1,0.8l1.13 0.79c0,-0 0.75,-0.73 0.46,-1.16 -0.03,-0.05 -0.23,-0.25 -0.29,-0.3 -0.13,-0.11 -1.25,-0.95 -1.42,-0.97 -0.43,-0.15 -0.66,0.29 -0.84,0.54 -0.19,0.26 -0.16,0.17 -0.14,0.3z"/>
   <path class="fil7" d="M1.2 13.63c-0,-0.35 0.1,-0.95 0.15,-1.33 0.03,-0.22 0.09,-1.13 0.19,-1.24 -0.04,-0.04 0.02,-0.02 -0.09,-0.06 -0.15,-0.06 -0.39,0 -0.43,0.22l-0.26 2.09c0.13,0.1 0.32,0.22 0.43,0.31z"/>
   <path class="fil8" d="M7.17 3.22c0.13,-0.13 0.55,-0.77 0.72,-1 0.1,-0.15 0.04,-0.1 0.15,-0.11 -0.01,-0.01 -0.02,-0.02 -0.02,-0.02l-0.38 -0.27c-0.09,0.08 -0.79,1.05 -0.83,1.18 0.15,0.06 0.22,0.16 0.36,0.22z"/>
   <path class="fil9" d="M8.36 1.65c-0.03,-0.12 -0.05,-0.03 0.14,-0.3 0.18,-0.25 0.41,-0.7 0.84,-0.54 -0.08,-0.12 -0.54,-0.41 -0.86,-0.16 -0.09,0.07 -0.47,0.59 -0.54,0.73 0.14,0.08 0.27,0.2 0.42,0.27z"/>
   <path class="fil10" d="M1.21 14.3c-0.13,-0.14 -0.36,-0.26 -0.52,-0.38l-0.08 0.68 0.6 -0.3z"/>
  </g>
 </g>
</svg>
