<?xml version="1.0" encoding="UTF-8"?>
<!DOCTYPE svg PUBLIC "-//W3C//DTD SVG 1.1//EN" "http://www.w3.org/Graphics/SVG/1.1/DTD/svg11.dtd">
<!-- Creator: CorelDRAW 2020 (64-Bit) -->
<svg xmlns="http://www.w3.org/2000/svg" xml:space="preserve" width="7.409mm" height="7.409mm" version="1.1" style="shape-rendering:geometricPrecision; text-rendering:geometricPrecision; image-rendering:optimizeQuality; fill-rule:evenodd; clip-rule:evenodd"
viewBox="0 0 0.27 0.27"
 xmlns:xlink="http://www.w3.org/1999/xlink"
 xmlns:xodm="http://www.corel.com/coreldraw/odm/2003">
 <defs>
  <style type="text/css">
   <![CDATA[
    .fil2 {fill:#5E542D}
    .fil1 {fill:#F2F200}
    .fil0 {fill:yellow}
   ]]>
  </style>
 </defs>
 <g id="Capa_x0020_1">
  <metadata id="CorelCorpID_0Corel-Layer"/>
  <circle class="fil0" cx="0.13" cy="0.13" r="0.13"/>
  <path class="fil1" d="M0.13 0c0.07,0 0.13,0.06 0.13,0.13 0,0.07 -0.06,0.13 -0.13,0.13l0 -0.27z"/>
  <path class="fil2" d="M0.08 0.17l0.02 0.02 -0.02 0.01 0.01 -0.02zm0.08 -0.08c0,-0 0.01,-0.01 0.01,-0.01 0.01,-0 0.01,0 0.01,0.01 0.01,0.01 0,0.02 -0,0.02l-0.02 -0.02zm0.01 -0.02c-0.01,0 -0.01,0.01 -0.02,0.01l-0.07 0.07c-0,0 -0.01,0 -0.01,0.01 -0,0.01 -0.01,0.04 -0.01,0.04 0,0.01 0.01,0 0.01,0 0,-0 0.01,-0 0.01,-0l0.02 -0.01c0,-0 0,-0 0,-0 0.02,-0.02 0.05,-0.05 0.08,-0.08 0,-0 0.01,-0 0.01,-0.01 0.01,-0.02 -0.01,-0.04 -0.03,-0.03z"/>
 </g>
</svg>
