<?xml version="1.0" encoding="UTF-8"?>
<!DOCTYPE svg PUBLIC "-//W3C//DTD SVG 1.1//EN" "http://www.w3.org/Graphics/SVG/1.1/DTD/svg11.dtd">
<!-- Creator: CorelDRAW 2020 (64-Bit) -->
<svg xmlns="http://www.w3.org/2000/svg" xml:space="preserve" width="72.1795mm" height="72.1801mm" version="1.1" style="shape-rendering:geometricPrecision; text-rendering:geometricPrecision; image-rendering:optimizeQuality; fill-rule:evenodd; clip-rule:evenodd"
viewBox="0 0 23.29 23.29"
 xmlns:xlink="http://www.w3.org/1999/xlink"
 xmlns:xodm="http://www.corel.com/coreldraw/odm/2003">
 <defs>
  <style type="text/css">
   <![CDATA[
    .fil3 {fill:black}
    .fil0 {fill:#990000}
    .fil4 {fill:#B7B8C2}
    .fil1 {fill:#CC3300}
    .fil2 {fill:#D4D5DB}
   ]]>
  </style>
 </defs>
 <g id="Capa_x0020_1">
  <metadata id="CorelCorpID_0Corel-Layer"/>
  <circle class="fil0" cx="11.64" cy="11.64" r="11.64"/>
  <circle class="fil1" cx="11.64" cy="11.64" r="10.84"/>
  <g id="_1703730823840">
   <path class="fil2" d="M12.56 12.19l-0.01 0.73c0.27,0.03 0.28,0.17 0.28,0.43 -0,0.9 0.05,4.54 -0.03,4.85 -0.21,0.79 -1.25,0.95 -1.69,0.28 -0.27,-0.42 -0.16,-2.01 -0.16,-2.64 0,-0.42 -0.03,-5.33 0.01,-5.6 0.14,-0.83 1.19,-1.03 1.68,-0.39 0.24,0.3 0.17,0.81 0.17,1.24 0,0.62 0.11,1.03 -0.27,1.1zm3.37 2.91l-0.03 0.74c0.25,0.07 0.24,0.22 0.22,0.5 -0.04,0.44 -0.1,1.74 -0.2,1.99 -0.3,0.76 -1.42,0.78 -1.74,-0.01 -0.14,-0.35 0.08,-2.23 0.12,-2.73 0.07,-0.91 0.14,-1.81 0.22,-2.72 0.03,-0.42 0.17,-2.48 0.24,-2.72 0.23,-0.84 1.37,-0.92 1.75,-0.14 0.19,0.38 -0.05,2.14 -0.09,2.68l-0.16 2.03c-0.02,0.25 -0.04,0.38 -0.31,0.39zm-7.99 1.72c0.08,-0.22 -0,-0.52 -0.02,-0.76 -0.39,-0.03 -0.32,-0.47 -0.37,-1.1l-0.32 -4.07c-0.04,-0.52 -0.05,-0.92 0.26,-1.19 0.44,-0.37 1.49,-0.44 1.59,0.84l0.54 6.8c0.04,0.5 0.14,0.89 -0.19,1.24 -0.23,0.25 -0.6,0.45 -1.06,0.26 -0.64,-0.26 -0.58,-0.89 -0.64,-1.55 -0.03,-0.3 -0.02,-0.36 0.2,-0.47zm0.3 3.5c0.49,0.07 4.49,0.02 5.33,0.02 0.74,0 1.88,0.1 2.5,-0.17 0.56,-0.24 1.04,-0.8 1.13,-1.57 0.18,-1.62 0.27,-3.35 0.4,-4.98 0.06,-0.73 0.42,-4.67 0.38,-5.04l-0.02 -0.11 -9.43 0c-1.13,0 -2.15,-0.29 -2.04,1.07 0.16,1.93 0.31,3.86 0.46,5.79 0.08,0.98 0.15,1.95 0.23,2.92 0.04,0.5 0.08,0.87 0.31,1.25 0.33,0.56 0.59,0.62 0.75,0.81z"/>
   <path class="fil3" d="M17.97 8.58c0.04,0.37 -0.32,4.31 -0.38,5.04 -0.13,1.64 -0.21,3.36 -0.4,4.98 -0.09,0.77 -0.57,1.33 -1.13,1.57 -0.62,0.26 -1.76,0.17 -2.5,0.17 -0.84,0 -4.84,0.05 -5.33,-0.02 -0.55,-0.06 -1,-0.39 -1.22,-0.66 -0.33,-0.41 -0.42,-0.71 -0.47,-1.36l-0.54 -6.83c-0.09,-1.11 -0.23,-2.33 -0.26,-3.43l12.29 0c-0,0.15 0.01,0.46 -0.06,0.56zm-6.97 -6.41l0.19 0c0.19,0.01 0.31,0.05 0.32,0.26 -0.08,0.64 -0.78,-0.09 -1.93,0.78 -0.11,0.08 -0.19,0.18 -0.28,0.27 -0.12,0.12 -0.39,0.48 -0.4,0.69 -0.07,0.06 -0.08,0.11 -0.11,0.22 -0.03,0.1 -0.04,0.16 -0.04,0.26l0.71 0 0.2 -0.46c0.54,-0.76 1,-0.73 2.18,-0.73 0.44,0 0.97,-0.05 1.37,0.09 0.43,0.15 0.59,0.36 0.81,0.64l0.2 0.45 0.71 -0c0,-0.15 -0.05,-0.39 -0.15,-0.47 -0.02,-0.39 -0.57,-0.93 -0.97,-1.15 -0.24,-0.13 -0.48,-0.23 -0.79,-0.27 -0.38,-0.05 -0.73,0.09 -0.78,-0.32 0.02,-0.21 0.14,-0.25 0.32,-0.26l0.24 0c0.62,0.01 1.13,0.22 1.61,0.57 0.53,0.39 1.09,1.23 1.09,1.88 1.36,0 2.47,-0.14 3.43,0.89 0.35,0.38 0.64,0.94 0.7,1.46 0.12,1 -0.24,1.05 -1.02,1.05 -0.06,0.74 -0.15,1.51 -0.18,2.27l-0.1 1.14c-0.02,0.16 -0.04,0.44 -0.05,0.57 -0.02,0.73 -0.15,1.61 -0.18,2.27l-0.18 2.27c-0.02,0.17 -0.04,0.4 -0.04,0.54 -0.01,0.5 -0.11,1.79 -0.26,2.19 -0.33,0.87 -1.17,1.54 -2.08,1.61l-7.34 -0c-0.91,-0.1 -1.73,-0.74 -2.05,-1.61 -0.12,-0.34 -0.14,-0.66 -0.18,-1.06 -0.06,-0.55 -0.06,-1.18 -0.13,-1.7 -0.1,-0.74 -0.1,-1.57 -0.18,-2.27l-0.14 -1.69c-0.01,-0.67 -0.17,-1.64 -0.18,-2.27 -0.02,-0.62 -0.13,-1.61 -0.18,-2.27 -0.44,0 -0.66,0.04 -0.89,-0.21 -0.44,-0.48 0.07,-1.74 0.55,-2.29 0.91,-1.03 2.05,-0.91 3.37,-0.91 0,-0.4 0.24,-0.89 0.4,-1.13 0.58,-0.87 1.35,-1.3 2.41,-1.32zm6.12 3.05c0.75,-0.05 1.57,0.67 1.83,1.36 0.09,0.23 0.22,0.65 0.11,0.87 -0.07,0.06 -13.15,0.03 -13.57,0.02 -0.24,0 -0.58,0.04 -0.79,-0.02 -0.22,-0.44 0.32,-1.8 1.52,-2.17 0.62,-0.19 2.78,-0.1 3.58,-0.1 0.75,0 7.2,-0.06 7.32,0.04zm-6.08 -1.22c0.62,0 1.76,-0.09 2.18,0.16 0.17,0.1 0.33,0.26 0.38,0.46l-3.51 0c0.08,-0.34 0.52,-0.62 0.95,-0.62z"/>
   <path class="fil2" d="M5.5 7.47c0.42,0.01 13.49,0.04 13.57,-0.02 0.11,-0.22 -0.03,-0.64 -0.11,-0.87 -0.26,-0.69 -1.07,-1.41 -1.83,-1.36 -0.26,0.07 -10.13,-0.05 -10.4,0.02 -0.14,0.04 -0.4,0.28 -0.49,0.37 -0.47,0.47 -0.78,1.12 -0.73,1.85z"/>
   <path class="fil4" d="M8.24 20.32c-0.16,-0.19 -0.42,-0.25 -0.75,-0.81 -0.23,-0.39 -0.27,-0.75 -0.31,-1.25 -0.08,-0.98 -0.15,-1.95 -0.23,-2.92 -0.15,-1.93 -0.3,-3.86 -0.46,-5.79 -0.12,-1.36 0.91,-1.07 2.04,-1.07l9.43 0 0.02 0.11c0.08,-0.1 0.06,-0.41 0.06,-0.56l-12.29 0c0.02,1.1 0.17,2.32 0.26,3.43l0.54 6.83c0.05,0.66 0.14,0.95 0.47,1.36 0.22,0.28 0.68,0.6 1.22,0.66z"/>
   <path class="fil3" d="M15.89 15.84c-0.41,0.02 -0.33,0.43 -0.36,0.84 -0.03,0.34 -0.05,1.4 -0.22,1.57 -0.09,0.09 -0.27,0.15 -0.43,0.08 -0.33,-0.15 -0.21,-0.6 -0.19,-0.95l0.53 -6.65c0.03,-0.35 0.04,-0.75 0.45,-0.71 0.41,0.03 0.35,0.46 0.32,0.84 -0.06,0.73 -0.12,1.46 -0.17,2.2 -0.03,0.37 -0.06,0.74 -0.09,1.11 -0.05,0.57 -0.16,0.83 0.2,0.94 0.27,-0.01 0.29,-0.14 0.31,-0.39l0.16 -2.03c0.04,-0.55 0.27,-2.3 0.09,-2.68 -0.38,-0.78 -1.52,-0.69 -1.75,0.14 -0.07,0.25 -0.2,2.3 -0.24,2.72 -0.07,0.91 -0.14,1.81 -0.22,2.72 -0.04,0.5 -0.27,2.38 -0.12,2.73 0.32,0.79 1.44,0.77 1.74,0.01 0.1,-0.25 0.17,-1.55 0.2,-1.99 0.02,-0.28 0.04,-0.42 -0.22,-0.5z"/>
   <path class="fil3" d="M12.55 12.92c-0.38,0.06 -0.27,0.44 -0.27,0.84l0 3.4c0,0.27 0.06,0.85 -0.08,1.04 -0.19,0.26 -0.59,0.19 -0.68,-0.12 -0.04,-0.15 -0.04,-7.68 0.01,-7.82 0.11,-0.32 0.59,-0.33 0.71,-0.03 0.09,0.22 0.02,1.27 0.04,1.63 0.01,0.24 0.07,0.29 0.28,0.33 0.37,-0.07 0.27,-0.48 0.27,-1.1 0,-0.42 0.06,-0.93 -0.17,-1.24 -0.5,-0.64 -1.54,-0.45 -1.68,0.39 -0.05,0.28 -0.01,5.18 -0.01,5.6 0,0.63 -0.11,2.23 0.16,2.64 0.44,0.68 1.48,0.51 1.69,-0.28 0.08,-0.31 0.03,-3.95 0.03,-4.85 0,-0.26 -0.01,-0.4 -0.28,-0.43z"/>
   <path class="fil3" d="M7.92 16.06c0.22,-0.06 0.26,-0.13 0.24,-0.4l-0.4 -4.98c-0.03,-0.35 0.02,-0.75 0.45,-0.66 0.36,0.08 0.32,0.49 0.35,0.85l0.53 6.65c0.03,0.35 0.11,0.78 -0.28,0.84 -0.59,0.09 -0.46,-0.72 -0.53,-1.24 -0.03,-0.23 -0.1,-0.28 -0.34,-0.3 -0.22,0.11 -0.23,0.16 -0.2,0.47 0.06,0.66 -0,1.29 0.64,1.55 0.46,0.19 0.82,-0.01 1.06,-0.26 0.33,-0.35 0.22,-0.74 0.19,-1.24l-0.54 -6.8c-0.1,-1.28 -1.15,-1.21 -1.59,-0.84 -0.32,0.27 -0.31,0.67 -0.26,1.19l0.32 4.07c0.05,0.64 -0.02,1.08 0.37,1.1z"/>
   <path class="fil4" d="M12.55 12.92l0.01 -0.73c-0.21,-0.04 -0.27,-0.09 -0.28,-0.33 -0.02,-0.37 0.05,-1.41 -0.04,-1.63 -0.12,-0.3 -0.6,-0.3 -0.71,0.03 -0.05,0.15 -0.05,7.68 -0.01,7.82 0.09,0.31 0.5,0.38 0.68,0.12 0.13,-0.19 0.08,-0.77 0.08,-1.04l0 -3.4c0,-0.39 -0.1,-0.78 0.27,-0.84z"/>
   <path class="fil4" d="M7.92 16.06c0.01,0.24 0.09,0.55 0.02,0.76 0.24,0.02 0.31,0.07 0.34,0.3 0.07,0.52 -0.06,1.33 0.53,1.24 0.4,-0.06 0.31,-0.49 0.28,-0.84l-0.53 -6.65c-0.03,-0.36 0.01,-0.78 -0.35,-0.85 -0.43,-0.09 -0.48,0.31 -0.45,0.66l0.4 4.98c0.01,0.26 -0.02,0.34 -0.24,0.4z"/>
   <path class="fil4" d="M15.89 15.84l0.03 -0.74c-0.35,-0.11 -0.24,-0.37 -0.2,-0.94 0.03,-0.37 0.06,-0.74 0.09,-1.11 0.06,-0.73 0.12,-1.46 0.17,-2.2 0.03,-0.38 0.1,-0.8 -0.32,-0.84 -0.42,-0.03 -0.43,0.36 -0.45,0.71l-0.53 6.65c-0.03,0.35 -0.14,0.81 0.19,0.95 0.16,0.07 0.34,0.01 0.43,-0.08 0.17,-0.17 0.19,-1.23 0.22,-1.57 0.03,-0.41 -0.05,-0.81 0.36,-0.84z"/>
   <path class="fil2" d="M8.91 4.16c0.13,0.07 0.58,0.03 0.76,0.03 0.54,-0.76 1,-0.73 2.18,-0.73 0.44,0 0.97,-0.05 1.37,0.09 0.43,0.15 0.59,0.36 0.81,0.64l0.76 -0.02c-0.02,-0.39 -0.57,-0.93 -0.97,-1.15 -0.24,-0.13 -0.48,-0.23 -0.79,-0.27 -0.38,-0.05 -0.73,0.09 -0.78,-0.32l-0.73 0c-0.08,0.64 -0.78,-0.09 -1.93,0.78 -0.11,0.08 -0.19,0.18 -0.28,0.27 -0.12,0.12 -0.39,0.48 -0.4,0.69z"/>
   <path class="fil4" d="M5.5 7.47c-0.04,-0.74 0.26,-1.39 0.73,-1.85 0.09,-0.09 0.36,-0.33 0.49,-0.37 0.27,-0.08 10.14,0.04 10.4,-0.02 -0.13,-0.11 -6.57,-0.04 -7.32,-0.04 -0.8,0 -2.96,-0.09 -3.58,0.1 -1.2,0.37 -1.74,1.73 -1.52,2.17 0.21,0.07 0.55,0.03 0.79,0.02z"/>
   <path class="fil4" d="M14.03 4.19l0.2 0.45 0.71 -0c0,-0.15 -0.05,-0.39 -0.15,-0.47l-0.76 0.02z"/>
   <path class="fil4" d="M9.66 4.18c-0.18,0 -0.63,0.05 -0.76,-0.03 -0.07,0.06 -0.08,0.11 -0.11,0.22 -0.03,0.1 -0.04,0.16 -0.04,0.26l0.71 0 0.2 -0.46z"/>
  </g>
 </g>
</svg>
