<svg height="512" viewBox="0 0 54 60" width="512" xmlns="http://www.w3.org/2000/svg"><g id="Page-1" fill="none" fill-rule="evenodd"><g id="013---Send-Email-Computer" fill-rule="nonzero" transform="translate(-1)"><g id="Icons" transform="translate(1 1)"><path id="Shape" d="m45.04.8-14.6 12.2-1.58 1.32c-1.0730816.9098986-2.6469184.9098986-3.72 0l-1.58-1.32-14.6-12.2c.55512193-.51384288 1.2835645-.79950665 2.04-.8h32c.7564355.00049335 1.4848781.28615712 2.04.8z" fill="#ffeb3a"/><path id="Shape" d="m46 3v20c.0001012.8349751-.3477861 1.6322169-.96 2.2l-14.6-12.2 14.6-12.2c.6122139.56778307.9601012 1.36502489.96 2.2z" fill="#ffdc00"/><path id="Shape" d="m45.04.8-2.088 1.745c.0276638.15020853.0437113.30232552.048.455v20c-.0042887.1526745-.0203362.3047915-.048.455l2.088 1.745c.6122139-.5677831.9601012-1.3650249.96-2.2v-20c.0001012-.83497511-.3477861-1.63221693-.96-2.2z" fill="#fec108"/><path id="Shape" d="m23.56 13-14.6 12.2c-.61221387-.5677831-.96010121-1.3650249-.96-2.2v-20c-.00010121-.83497511.34778613-1.63221693.96-2.2z" fill="#ffdc00"/><path id="Shape" d="m45.04 25.2c-.5551219.5138429-1.2835645.7995066-2.04.8h-32c-.7564355-.0004934-1.48487807-.2861571-2.04-.8l14.6-12.2 1.58 1.32c1.0730816.9098986 2.6469184.9098986 3.72 0l1.58-1.32z" fill="#ff9801"/><path id="Shape" d="m53 42v3.82c.0452102 1.152631-.8477494 2.1259569-2 2.18h-48c-1.15225064-.0540431-2.04521019-1.027369-2-2.18v-3.82z" fill="#7f8e94"/><path id="Shape" d="m50 42v3.82c.0452102 1.152631-.8477494 2.1259569-2 2.18h3c1.1522506-.0540431 2.0452102-1.027369 2-2.18v-3.82z" fill="#545c60"/><path id="Shape" d="m53 7.18v34.82h-52v-34.82c-.04521019-1.152631.84774936-2.12595691 2-2.18h5v18c0 1.6568542 1.34314575 3 3 3h32c1.6568542 0 3-1.3431458 3-3v-18h5c1.1522506.05404309 2.0452102 1.027369 2 2.18z" fill="#02a9f4"/><path id="Shape" d="m51 5h-3c1.1522506.05404309 2.0452102 1.027369 2 2.18v34.82h3v-34.82c.0452102-1.152631-.8477494-2.12595691-2-2.18z" fill="#0377bc"/><path id="Shape" d="m35 48 3 6h-11-11l3-6z" fill="#607d8b"/><path id="Shape" d="m35 48h-3l3 6h3z" fill="#37474f"/><rect id="Rectangle-path" fill="#7f8e94" height="4" rx="2" width="34" x="10" y="54"/><path id="Shape" d="m42 54h-3c1.1045695 0 2 .8954305 2 2s-.8954305 2-2 2h3c1.1045695 0 2-.8954305 2-2s-.8954305-2-2-2z" fill="#545c60"/></g><g id="Icons_copy" fill="#000"><path id="Shape" d="m52 5h-4v-1c0-2.209139-1.790861-4-4-4h-32c-2.209139 0-4 1.790861-4 4v1h-4c-1.7044406.05441939-3.04487651 1.47528146-3 3.18v38.64c-.04487651 1.7047185 1.2955594 3.1255806 3 3.18h14.38l-2 4h-3.38c-1.6568542 0-3 1.3431458-3 3s1.3431458 3 3 3h30c1.6568542 0 3-1.3431458 3-3s-1.3431458-3-3-3h-3.38l-2-4h14.38c1.7044406-.0544194 3.0448765-1.4752815 3-3.18v-38.64c.0448765-1.70471854-1.2955594-3.12558061-3-3.18zm-6-1v20c.0014897.254364-.0495771.5062939-.15.74l-12.85-10.74 12.85-10.74c.1004229.23370605.1514897.48563599.15.74zm-1.79 21.98c-.0694404.0116131-.1396158.0182964-.21.02h-32c-.0703842-.0017036-.1405596-.0083869-.21-.02l12.77-10.68.94.79c1.4410001 1.2265577 3.5589999 1.2265577 5 0l.94-.79zm-32.21-23.98h32c.0703842.00170355.1405596.00838692.21.02l-14.99 12.53c-.702712.5999067-1.737288.5999067-2.44 0l-14.99-12.53c.0694404-.01161308.1396158-.01829645.21-.02zm-2 2c-.00148975-.25436401.0495771-.50629395.15-.74l12.85 10.74-12.85 10.74c-.1004229-.2337061-.15148975-.485636-.15-.74zm33 52c.5522847 0 1 .4477153 1 1s-.4477153 1-1 1h-30c-.5522847 0-1-.4477153-1-1s.4477153-1 1-1zm-24.38-2 2-4h14.76l2 4zm34.38-12h-42c-.5522847 0-1 .4477153-1 1s.4477153 1 1 1h42v2.82c.0369584.5978301-.4042043 1.1184021-1 1.18h-48c-.59579567-.0615979-1.0369584-.5821699-1-1.18v-2.82h4c.55228475 0 1-.4477153 1-1s-.44771525-1-1-1h-4v-33.82c-.0369584-.59783012.40420433-1.11840214 1-1.18h4v17c0 2.209139 1.790861 4 4 4h32c2.209139 0 4-1.790861 4-4v-17h4c.5957957.06159786 1.0369584.58216988 1 1.18z"/><path id="Shape" d="m15.707 30.293c-.3904999-.3903819-1.0235001-.3903819-1.414 0l-3 3c-.3789722.3923789-.3735524 1.0160848.0121814 1.4018186s1.0094397.3911536 1.4018186.0121814l1.293-1.293v5.586c0 .5522847.4477153 1 1 1s1-.4477153 1-1v-5.586l1.293 1.293c.3923789.3789722 1.0160848.3735524 1.4018186-.0121814s.3911536-1.0094397.0121814-1.4018186z"/><path id="Shape" d="m41.707 30.293c-.3904999-.3903819-1.0235001-.3903819-1.414 0l-3 3c-.3789722.3923789-.3735524 1.0160848.0121814 1.4018186s1.0094397.3911536 1.4018186.0121814l1.293-1.293v5.586c0 .5522847.4477153 1 1 1s1-.4477153 1-1v-5.586l1.293 1.293c.3923789.3789722 1.0160848.3735524 1.4018186-.0121814s.3911536-1.0094397.0121814-1.4018186z"/><path id="Shape" d="m22 6h12c.5522847 0 1-.44771525 1-1s-.4477153-1-1-1h-12c-.5522847 0-1 .44771525-1 1s.4477153 1 1 1z"/></g></g></g></svg>