<svg id="Capa_1" data-name="Capa 1" xmlns="http://www.w3.org/2000/svg" viewBox="0 0 300 300"><defs><style>.cls-1{fill:#fb3a82;}.cls-2{fill:#fb1466;}.cls-3{fill:#e0d3ce;}.cls-4{fill:#cdbfbb;}.cls-5{fill:#873f30;}.cls-6{fill:#6c3328;}.cls-7{fill:#ba5d4f;}.cls-8{fill:#a34f41;}.cls-9{fill:#fcc16d;}.cls-10{fill:#fca62f;}</style></defs><title>Iconos_finales</title><path class="cls-1" d="M232.514,222.962a41.734,41.734,0,0,0,10.019,27.486H91.507a4.777,4.777,0,0,1-3.9-2c-2.541-3.572-7.212-11.977-7.212-25.49s4.671-21.917,7.212-25.49a4.778,4.778,0,0,1,3.9-2H242.533A41.741,41.741,0,0,0,232.514,222.962Z"/><path class="cls-2" d="M126.472,195.478,83.883,241.61A48.275,48.275,0,0,1,80.4,222.965c0-13.515,4.668-21.919,7.212-25.492a4.773,4.773,0,0,1,3.9-2Z"/><path class="cls-3" d="M249.132,222.962a41.74,41.74,0,0,0,10.019,27.486H105.828s-8.814-8.924-8.814-27.486,8.814-27.485,8.814-27.485H259.151A41.741,41.741,0,0,0,249.132,222.962Z"/><path class="cls-4" d="M126.472,195.478l-29.3,31.737c-.1-1.356-.158-2.774-.158-4.25,0-18.563,8.813-27.487,8.813-27.487Z"/><path class="cls-4" d="M249.133,222.964a41.73,41.73,0,0,0,10.02,27.484H240.985a42.7,42.7,0,0,1,0-54.967h18.168A41.715,41.715,0,0,0,249.133,222.964Z"/><path class="cls-1" d="M269.472,190.348a7.976,7.976,0,0,1-7.976,7.976H109.062a7.979,7.979,0,0,1,0-15.957H261.5a7.978,7.978,0,0,1,7.976,7.981Z"/><path class="cls-2" d="M138.573,182.367l-14.727,15.957H109.062a7.979,7.979,0,0,1,0-15.957Z"/><path class="cls-2" d="M269.477,190.345a7.986,7.986,0,0,1-7.982,7.982H246.021a7.979,7.979,0,0,0,0-15.958H261.5A7.981,7.981,0,0,1,269.477,190.345Z"/><path class="cls-1" d="M261.5,263.556H109.063a7.978,7.978,0,0,1,0-15.956H261.5a7.978,7.978,0,1,1,0,15.956Z"/><path class="cls-2" d="M269.477,255.578a7.974,7.974,0,0,1-7.982,7.975H246.021a7.976,7.976,0,1,0,0-15.951H261.5A7.981,7.981,0,0,1,269.477,255.578Z"/><path class="cls-5" d="M135.55,171.467l-12.88-12.88L34.992,239.526a13.884,13.884,0,1,0,19.619,19.619Z"/><path class="cls-6" d="M54.224,259.55a13.881,13.881,0,0,1-23.017-5.536A13.863,13.863,0,0,0,45.3,250.64c.134-.133.267-.275.4-.412l80.941-87.679,8.918,8.918-80.94,87.679C54.482,259.284,54.353,259.421,54.224,259.55Z"/><path class="cls-5" d="M148.233,128.069l-29.658,35.379,12.116,12.115,35.378-29.658Z"/><path class="cls-6" d="M148.233,128.069,138.65,139.5l2.876,2.876a5.42,5.42,0,0,1,0,7.664l-18.179,18.178,7.344,7.344L166.069,145.9Z"/><path class="cls-7" d="M123.071,182.828,111.31,171.067a8.707,8.707,0,0,1,12.313-12.313l11.761,11.761a8.707,8.707,0,0,1-12.313,12.313Z"/><path class="cls-8" d="M135.381,182.827a8.706,8.706,0,0,1-12.312,0l-8.915-8.914A8.707,8.707,0,1,0,126.467,161.6l8.915,8.914a8.7,8.7,0,0,1,0,12.313Z"/><path class="cls-7" d="M163.6,47.21l26.114,26.114-41,41L122.6,88.208Z"/><path class="cls-8" d="M205.918,171.559,179.8,145.445l41-41,26.115,26.114Z"/><path class="cls-5" d="M115.256,97.208l-.907-.908a8.807,8.807,0,0,1,0-12.456l44.875-44.875a8.808,8.808,0,0,1,12.457,0l.907.907a8.808,8.808,0,0,1,0,12.457L127.713,97.208a8.81,8.81,0,0,1-12.457,0Z"/><path class="cls-6" d="M196.931,178.882l.907.907a8.808,8.808,0,0,0,12.457,0l44.874-44.875a8.807,8.807,0,0,0,0-12.456l-.907-.908a8.808,8.808,0,0,0-12.457,0l-44.874,44.875A8.808,8.808,0,0,0,196.931,178.882Z"/><path class="cls-9" d="M201.048,63.731l29.326,29.326-61.92,61.919L139.128,125.65Z"/><path class="cls-10" d="M153.593,140.168l61.92-61.92,14.843,14.843-61.92,61.919Z"/><path class="cls-5" d="M201.191,62.5l-7.185-2.937A6.607,6.607,0,0,0,186.834,61l-50.45,50.45a6.609,6.609,0,0,0-1.444,7.172l2.937,7.185a4.4,4.4,0,0,0,7.191,1.447l57.57-57.57a4.4,4.4,0,0,0-1.447-7.191Z"/><path class="cls-6" d="M231.641,92.947l2.937,7.185a6.607,6.607,0,0,1-1.444,7.172l-50.45,50.45a6.608,6.608,0,0,1-7.172,1.444l-7.184-2.937a4.4,4.4,0,0,1-1.448-7.191L224.45,91.5a4.4,4.4,0,0,1,7.191,1.447Z"/><path d="M261.5,243.993h-2.682a37.261,37.261,0,0,1-3.107-5.92,3.606,3.606,0,0,0-6.663,2.759c.445,1.077.944,2.127,1.469,3.161H109.063a11.521,11.521,0,0,0-3.143.438c-2.255-3.823-5.3-10.93-5.3-21.469,0-1.572.07-3.122.2-4.641h69.087a3.606,3.606,0,1,0,0-7.211H103.863l8.472-9.179H250.494a44.966,44.966,0,0,0-3.471,9.179h-47.4a3.606,3.606,0,1,0,0,7.211h46.136c-.142,1.466-.223,2.945-.23,4.438a3.607,3.607,0,0,0,3.591,3.621h.016a3.606,3.606,0,0,0,3.6-3.591,38.59,38.59,0,0,1,6.064-20.858H261.5a11.584,11.584,0,1,0,0-23.168H216.42l41.3-41.3a12.413,12.413,0,0,0,0-17.555l-.907-.909a12.409,12.409,0,0,0-16.918-.591l-6.383-6.383,2.173-2.173a10.188,10.188,0,0,0,2.232-11.086l-2.937-7.185a7.991,7.991,0,0,0-5.8-4.813l-5.015-5.015a3.606,3.606,0,0,0-5.1,5.1l2.467,2.467L164.7,146.149l-16.712-16.712,56.829-56.829,2.212,2.212a3.606,3.606,0,0,0,5.1-5.1l-4.76-4.76a8,8,0,0,0-4.814-5.8h0l-7.185-2.937a10.191,10.191,0,0,0-11.086,2.232l-2.173,2.173-6.384-6.383a12.407,12.407,0,0,0-.591-16.917l-.907-.908a12.415,12.415,0,0,0-17.557,0L111.8,81.293a12.414,12.414,0,0,0,0,17.556l.907.907a12.409,12.409,0,0,0,16.918.591l6.384,6.384-2.174,2.174A10.187,10.187,0,0,0,131.6,119.99l2.937,7.185a7.989,7.989,0,0,0,5.719,4.794l-18.08,21.568A12.32,12.32,0,0,0,105.9,169.156l-8.2,7.57a3.606,3.606,0,0,0,4.892,5.3l7.577-7,8.933,8.933L51.962,256.7a10.278,10.278,0,1,1-14.524-14.523l52.669-48.621a3.606,3.606,0,1,0-4.892-5.3L32.546,236.877A17.489,17.489,0,0,0,44.4,267.217c.12,0,.241,0,.361,0a17.341,17.341,0,0,0,12.5-5.623L78.871,238.18a41.533,41.533,0,0,0,5.8,12.362,8.394,8.394,0,0,0,6.838,3.511h6.075a11.562,11.562,0,0,0,11.48,13.109H261.5a11.585,11.585,0,0,0,0-23.169Zm4.372-53.646a4.377,4.377,0,0,1-4.373,4.372h-142.5l5.994-6.493a12.322,12.322,0,0,0,12.3-2.251H261.5a4.377,4.377,0,0,1,4.372,4.372ZM157.084,148.732l-20.879,17.5-8.3-8.3,17.5-20.879Zm-15.731,30.031a12.377,12.377,0,0,0-.752-6.8l21.568-18.081a7.989,7.989,0,0,0,4.794,5.719l7.185,2.938a10.191,10.191,0,0,0,11.085-2.232l2.174-2.174,6.383,6.384a12.439,12.439,0,0,0-1.435,14.249Zm106.681-56.187a5.171,5.171,0,0,1,3.678,1.523l.908.909a5.2,5.2,0,0,1,0,7.356l-44.875,44.875a5.2,5.2,0,0,1-7.356,0l-.907-.907a5.209,5.209,0,0,1,0-7.357L244.356,124.1a5.164,5.164,0,0,1,3.678-1.524Zm-13.264.91-35.9,35.9-6.359-6.359,35.9-35.9ZM169.43,151.62,227,94.05a.759.759,0,0,1,.551-.236.816.816,0,0,1,.171.018.766.766,0,0,1,.581.48l2.937,7.185a2.993,2.993,0,0,1-.656,3.257l-50.45,50.451a2.994,2.994,0,0,1-3.257.655l-7.184-2.937a.8.8,0,0,1-.263-1.3ZM121.485,96.182a5.164,5.164,0,0,1-3.678-1.524l-.907-.907a5.2,5.2,0,0,1,0-7.357l44.874-44.875a5.2,5.2,0,0,1,7.356,0l.908.908a5.2,5.2,0,0,1,0,7.357L125.163,94.659a5.173,5.173,0,0,1-3.678,1.523Zm13.263-.91,35.905-35.9,6.359,6.359-35.9,35.905ZM138.934,114l50.451-50.451a2.989,2.989,0,0,1,3.256-.655l7.185,2.937a.8.8,0,0,1,.262,1.3l-57.57,57.57a.8.8,0,0,1-1.3-.263l-2.937-7.185a2.993,2.993,0,0,1,.656-3.256ZM112.366,164.91a5.1,5.1,0,0,1,8.707-3.606l11.761,11.76a5.1,5.1,0,0,1-7.213,7.214l-11.76-11.761a5.065,5.065,0,0,1-1.5-3.607Zm-21.82,81.452a36.374,36.374,0,0,1-5.775-14.572l8.644-9.363c0,.179-.006.357-.006.535A50.035,50.035,0,0,0,99,246.842H91.508A1.174,1.174,0,0,1,90.546,246.362ZM261.5,259.95H109.063a4.373,4.373,0,1,1,0-8.745H261.5a4.373,4.373,0,0,1,0,8.745Z"/><path d="M127.8,227.489a3.606,3.606,0,1,0,0,7.211h84.007a3.606,3.606,0,0,0,0-7.211Z"/></svg>