<?xml version="1.0" encoding="UTF-8"?>
<!DOCTYPE svg PUBLIC "-//W3C//DTD SVG 1.1//EN" "http://www.w3.org/Graphics/SVG/1.1/DTD/svg11.dtd">
<!-- Creator: CorelDRAW 2020 (64-Bit) -->
<svg xmlns="http://www.w3.org/2000/svg" xml:space="preserve" width="61.727mm" height="62.6804mm" version="1.1" style="shape-rendering:geometricPrecision; text-rendering:geometricPrecision; image-rendering:optimizeQuality; fill-rule:evenodd; clip-rule:evenodd"
viewBox="0 0 14.81 15.04"
 xmlns:xlink="http://www.w3.org/1999/xlink"
 xmlns:xodm="http://www.corel.com/coreldraw/odm/2003">
 <defs>
  <style type="text/css">
   <![CDATA[
    .fil0 {fill:black}
    .fil2 {fill:#BFB7B6}
    .fil3 {fill:#D9D4D3}
    .fil1 {fill:#E5E2E1}
   ]]>
  </style>
 </defs>
 <g id="Capa_x0020_1">
  <metadata id="CorelCorpID_0Corel-Layer"/>
  <g id="_3082238788096">
   <path class="fil0" d="M6.31 3.43c0.08,0 1.81,0.96 1.89,1.03 -0.12,0.13 -2.21,1.59 -2.28,1.62l0.35 -2.64 0.04 -0.01zm-4.43 -3.43l12.16 0 0.53 0c0.21,0.03 0.36,0.14 0.12,0.47 -0.09,0.13 -0.18,0.25 -0.28,0.39l-0.28 0.4c-0.33,0.5 -0.37,0.66 -0.68,0.59 -0.22,-0.39 0.16,-0.52 0.55,-1.19l-7.33 2.43c0.13,0.11 0.33,0.2 0.5,0.29l3.59 1.96c0.17,-0.27 0.37,-0.52 0.55,-0.8l1.11 -1.59c0.09,-0.13 0.18,-0.25 0.28,-0.4 0.11,-0.17 0.15,-0.28 0.41,-0.2 0.06,0.09 0.1,0.06 0.09,0.2 -0.01,0.13 -0.24,0.41 -0.33,0.55 -0.08,0.13 -0.15,0.22 -0.24,0.35 -0.08,0.12 -0.15,0.2 -0.23,0.33l-1.19 1.71c-0.37,0.52 -0.3,0.45 -1.02,0.05l-1.51 -0.81c-0.07,0 -0.7,0.47 -0.81,0.55 -0.27,0.2 -0.51,0.37 -0.79,0.56 -0.27,0.19 -0.51,0.38 -0.79,0.56 -0.31,0.21 -0.63,0.56 -0.83,0.31 -0.08,-0.09 -0.5,-3.12 -0.56,-3.5 -0.04,-0.26 -0.16,-0.98 -0.16,-1.19l-1.55 -0.83c-0.09,-0.05 -0.11,-0.07 -0.21,-0.12 -0.14,-0.07 -1.23,-0.64 -1.3,-0.73 -0.07,-0.1 -0.09,-0.32 0.2,-0.35zm9.8 0.95c-0.24,0.05 -0.67,0.22 -0.93,0.31l-3.79 1.26c-1.09,0.36 -1.04,0.2 -1.12,0.79l-0.22 1.64c-0.07,-0.31 -0.47,-2.76 -0.43,-2.91l6.48 -1.09zm0.19 -0.5c-0.27,0.09 -0.9,0.16 -1.22,0.22 -0.41,0.07 -0.82,0.14 -1.23,0.21 -0.82,0.14 -1.64,0.28 -2.46,0.42l-1.85 0.32c-0.23,0.04 -0.29,-0.05 -0.48,-0.16 -0.22,-0.12 -1.69,-0.88 -1.86,-1.01l9.11 0.01z"/>
   <path class="fil1" d="M13.1 2.35c0.07,-0.08 0.11,-0.15 0.17,-0.24 0.07,-0.1 0.12,-0.16 0.18,-0.26 -0.22,-0.39 0.16,-0.52 0.55,-1.19l-7.33 2.43c0.13,0.11 0.33,0.2 0.5,0.29l3.59 1.96c0.17,-0.27 0.37,-0.52 0.55,-0.8l1.11 -1.59c0.09,-0.13 0.18,-0.25 0.28,-0.4 0.11,-0.17 0.15,-0.28 0.41,-0.2z"/>
   <path class="fil1" d="M11.87 0.45l-9.11 -0.01c0.17,0.13 1.63,0.89 1.86,1.01 0.19,0.1 0.25,0.2 0.48,0.16l1.85 -0.32c0.82,-0.14 1.64,-0.28 2.46,-0.42 0.41,-0.07 0.82,-0.14 1.23,-0.21 0.33,-0.05 0.95,-0.13 1.22,-0.22z"/>
   <path class="fil2" d="M5.2 2.05c-0.05,0.15 0.35,2.6 0.43,2.91l0.22 -1.64c0.08,-0.59 0.03,-0.43 1.12,-0.79l3.79 -1.26c0.26,-0.09 0.69,-0.26 0.93,-0.31l-6.48 1.09z"/>
   <path class="fil3" d="M6.27 3.44l-0.35 2.64c0.07,-0.03 2.16,-1.48 2.28,-1.62 -0.08,-0.07 -1.81,-1.03 -1.89,-1.03l-0.04 0.01z"/>
   <path class="fil0" d="M4.2 12.66c0,0.34 0.32,0.28 0.58,0.23 0.31,-0.06 0.33,-0.52 -0.15,-0.44 -0.08,0.01 -0.43,0.03 -0.43,0.22z"/>
   <path class="fil0" d="M5.17 12.39c0,0.1 0.13,0.23 0.23,0.23 0.13,0 0.5,-0.3 0.5,-0.44 0,-0.12 -0.11,-0.23 -0.23,-0.23 -0.09,0 -0.5,0.28 -0.5,0.44z"/>
   <path class="fil0" d="M2.53 11.69c0,0.14 0.24,0.53 0.35,0.53 0.52,0 0.2,-0.42 0.14,-0.52 -0.25,-0.42 -0.49,-0.11 -0.49,-0.01z"/>
   <path class="fil0" d="M3.47 8.34c0,0.5 0.7,0.02 0.7,-0.21 0,-0.16 -0.1,-0.23 -0.23,-0.23 -0.13,0 -0.47,0.26 -0.47,0.44z"/>
   <path class="fil0" d="M4.44 9.1c0,0.13 0.03,0.19 0.22,0.25 0.07,0.02 0.27,0.08 0.33,0.08 0.25,0 0.42,-0.53 -0.35,-0.53 -0.14,0 -0.21,0.07 -0.21,0.21z"/>
   <path class="fil0" d="M3.23 12.45c0,0.15 0.08,0.19 0.19,0.25 0.08,0.04 0.25,0.13 0.34,0.13 0.21,0 0.36,-0.32 0.03,-0.47 -0.05,-0.02 -0.31,-0.14 -0.33,-0.14 -0.11,-0.01 -0.23,0.08 -0.23,0.23z"/>
   <path class="fil0" d="M5.38 9.49c0,0.27 0.7,0.73 0.7,0.23 0,-0.15 -0.27,-0.44 -0.53,-0.44 -0.08,0 -0.18,0.12 -0.18,0.21z"/>
   <path class="fil0" d="M4.29 7.69c0,0.41 0.37,0.23 0.55,0.14 0.38,-0.2 0.18,-0.59 -0.17,-0.43 -0.1,0.05 -0.38,0.16 -0.38,0.29z"/>
   <path class="fil0" d="M5.99 10.22c0,0.86 0.5,0.76 0.5,0.35 0,-0.71 -0.5,-0.48 -0.5,-0.35z"/>
   <path class="fil0" d="M5.85 11.66c0,0.11 0.3,0.5 0.53,-0.17 0.09,-0.26 0.04,-0.39 -0.24,-0.39 -0.17,0 -0.29,0.51 -0.29,0.56z"/>
   <path class="fil0" d="M2.35 10.04c0,0.14 0.28,0.49 0.5,-0.06 0.22,-0.56 -0.21,-0.56 -0.34,-0.37 -0.03,0.05 -0.16,0.37 -0.16,0.43z"/>
   <path class="fil0" d="M0.09 13.66c0,0.84 0.47,0.65 0.51,0.43 0.02,-0.08 -0.02,-0.25 -0.06,-0.35 -0.12,-0.39 -0.45,-0.23 -0.45,-0.08z"/>
   <path class="fil0" d="M0.12 12.1c0,0.21 0.33,0.32 0.44,0.03 0.08,-0.21 0.2,-0.59 -0.14,-0.59 -0.24,0 -0.29,0.37 -0.29,0.56z"/>
   <path class="fil0" d="M2.79 9.13c0,0.16 0.26,0.37 0.49,0.02 0.06,-0.09 0.34,-0.45 -0.02,-0.53 -0.23,-0.06 -0.48,0.44 -0.48,0.51z"/>
   <path class="fil0" d="M0 12.81c0,0.22 -0.04,0.47 0.23,0.47 0.25,0 0.23,-0.25 0.23,-0.47 0,-0.4 -0.47,-0.4 -0.47,0z"/>
   <path class="fil0" d="M0.44 11.16c0,0.16 0.29,0.38 0.48,0.01 0.05,-0.1 0.14,-0.18 0.14,-0.3 0,-0.21 -0.27,-0.4 -0.47,-0.03 -0.04,0.07 -0.15,0.23 -0.15,0.32z"/>
   <path class="fil0" d="M2.29 10.72l0 0.18c0,0.51 0.58,0.65 0.44,-0.18 -0.02,-0.1 0.01,-0.06 -0.05,-0.13 -0.11,-0.14 -0.39,-0.11 -0.39,0.13z"/>
   <path class="fil0" d="M1 10.31c0,0.18 0.19,0.39 0.49,0.08 0.3,-0.3 0.21,-0.52 -0.08,-0.52 -0.08,0 -0.41,0.33 -0.41,0.44z"/>
   <path class="fil0" d="M1.97 9.9c0.38,0 0.54,-0.53 0.15,-0.53 -0.37,0 -0.54,0.53 -0.15,0.53z"/>
   <path class="fil0" d="M5.23 7.34c0,0.33 0.62,0.22 0.62,0 0,-0.5 -0.62,-0.26 -0.62,0z"/>
   <path class="fil0" d="M3.79 9.28c0.13,0 0.41,0.03 0.41,-0.21 0,-0.24 -0.25,-0.3 -0.49,-0.22 -0.21,0.07 -0.19,0.43 0.07,0.43z"/>
   <path class="fil0" d="M0.38 14.63c0,0.12 0.1,0.41 0.29,0.41 0.44,0 0.18,-0.74 -0.17,-0.58 -0.06,0.03 -0.13,0.1 -0.13,0.17z"/>
  </g>
 </g>
</svg>
