<?xml version="1.0" encoding="UTF-8"?>
<!DOCTYPE svg PUBLIC "-//W3C//DTD SVG 1.1//EN" "http://www.w3.org/Graphics/SVG/1.1/DTD/svg11.dtd">
<!-- Creator: CorelDRAW 2020 (64-Bit) -->
<svg xmlns="http://www.w3.org/2000/svg" xml:space="preserve" width="7.1278mm" height="7.1764mm" version="1.1" style="shape-rendering:geometricPrecision; text-rendering:geometricPrecision; image-rendering:optimizeQuality; fill-rule:evenodd; clip-rule:evenodd"
viewBox="0 0 0.66 0.67"
 xmlns:xlink="http://www.w3.org/1999/xlink"
 xmlns:xodm="http://www.corel.com/coreldraw/odm/2003">
 <defs>
  <style type="text/css">
   <![CDATA[
    .fil4 {fill:black}
    .fil2 {fill:#12BF6D}
    .fil7 {fill:#139D6D}
    .fil8 {fill:#48A6C8}
    .fil15 {fill:#592517}
    .fil1 {fill:#71C1E8}
    .fil10 {fill:#74FEBA}
    .fil14 {fill:#863221}
    .fil18 {fill:#8B6357}
    .fil6 {fill:#B24E33}
    .fil16 {fill:#C2E4FC}
    .fil11 {fill:#C4E5FE}
    .fil9 {fill:#E8A61E}
    .fil0 {fill:#F2BE22}
    .fil17 {fill:#F5CF61}
    .fil13 {fill:#F8E5AF}
    .fil3 {fill:#FA5D3D}
    .fil5 {fill:#FDB59E}
    .fil12 {fill:#FFCAC1}
   ]]>
  </style>
 </defs>
 <g id="Capa_x0020_1">
  <metadata id="CorelCorpID_0Corel-Layer"/>
  <g id="_1742328705360">
   <path class="fil0" d="M0.06 0.26c0,-0 0.01,-0 0.01,-0 0.01,-0 0.01,0.01 0.01,0.01 -0.01,0 -0.02,-0 -0.01,-0.01zm0.08 0.05c-0,-0 -0,-0 -0,-0 -0,-0.01 -0,-0.03 -0,-0.04 -0.01,0 -0.04,0 -0.04,-0 -0.01,-0 -0.01,-0.01 -0,-0.01 0,-0 0.06,-0 0.06,0 0,0.01 -0.01,0.05 0.01,0.05 0.02,-0 0,-0.03 0.01,-0.05 0.01,-0.01 0.06,-0 0.08,-0l0 -0.02c0,-0.01 0.01,-0.02 0.01,0.01 -0,0.04 0.01,0.02 -0.08,0.03 -0,0.02 0.01,0.04 -0.01,0.05 -0.01,0.01 -0.03,0 -0.04,-0.01zm-0.1 -0.22c0.01,0 0.01,-0.02 0.02,-0.02 0.01,-0.01 0.04,-0.01 0.05,-0 0.01,0.01 0.01,0.02 0.01,0.02 0.03,0 0.05,0 0.07,0.03 0.01,0.01 0.01,0.07 0,0.08 -0.01,0.03 -0.03,0.03 -0.06,0.03 -0.03,-0 -0.06,-0 -0.09,-0l-0 0.05c0.01,0 0.03,0 0.04,0 0.01,0 0.03,-0 0.04,0 0,0.01 -0,0.02 0.01,0.04 0,0.01 0.02,0.01 0.03,0.01 0.04,-0 0.03,-0.05 0.04,-0.05 0.01,-0.01 0.06,-0 0.08,-0l0 -0.07c-0.02,-0 -0.03,-0 -0.04,-0.01 -0.01,-0.01 -0.02,-0.02 -0.02,-0.04 0,-0.02 0.01,-0.03 0.02,-0.04 0.01,-0.01 0.02,-0.01 0.04,-0.01l-0 -0.07 -0.24 -0 -0 0.05z"/>
   <path class="fil1" d="M0.59 0.41c-0,-0.01 0.02,-0.01 0.02,-0 0,0.01 -0.02,0.01 -0.02,0zm-0.1 0c-0.01,0 -0.07,0 -0.08,0 -0,0.02 0,0.04 -0.01,0.03 -0,-0.01 -0,-0.04 0,-0.04 0.01,-0 0.07,-0 0.08,-0 0,-0.02 -0.01,-0.05 0.02,-0.06 0.01,-0 0.02,0.01 0.02,0.02 0,0.01 -0,0.03 0,0.04 0.01,0 0.04,-0 0.05,0 0,0.01 0,0.01 -0,0.01 -0.01,0 -0.05,0 -0.06,-0 -0,-0.01 -0,-0.02 -0,-0.03 0,-0.01 0,-0.02 -0.01,-0.02 -0.02,-0 -0,0.03 -0.01,0.05zm0.13 0.21l0 -0.05c-0.01,0 -0,-0 -0.01,0.01 -0.02,0.04 -0.07,0.02 -0.07,-0.01 -0.03,0 -0.05,0 -0.07,-0.02 -0.01,-0.01 -0.01,-0.07 -0,-0.09 0,-0.01 0.01,-0.02 0.02,-0.03 0.01,-0.01 0.02,-0.01 0.04,-0.01 0.03,0 0.06,0 0.09,0l0 -0.05c-0.02,-0 -0.07,0 -0.08,-0 -0,-0.01 0,-0.05 -0.04,-0.05 -0.01,-0 -0.03,0.01 -0.03,0.02 -0.01,0.02 -0,0.02 -0.01,0.04 -0.01,0 -0.07,0 -0.08,0l0 0.07c0.01,0 0.04,-0 0.05,0.03 0.01,0.03 0,0.07 -0.05,0.07l-0 0.07 0.24 -0z"/>
   <path class="fil2" d="M0.27 0.61c-0.01,0 -0.01,0 -0.01,-0.01 -0,-0.01 0,-0.01 0.01,-0.01 0,0.01 0,0.01 0,0.02zm0.04 -0.11c-0,-0.01 -0.04,-0 -0.05,-0.01 -0,-0.01 -0,-0.07 -0,-0.08 -0.01,-0 -0.02,0 -0.03,-0 -0.01,-0.01 0.01,-0.01 0.02,-0.01 0.03,0 0.02,-0.01 0.02,0.08 0.02,0 0.06,-0.01 0.06,0.02 -0,0.03 -0.03,0.02 -0.06,0.02 -0,0.01 0,0.04 -0,0.05 -0.02,0 -0.01,-0.01 -0.01,-0.02 0,-0.05 -0.01,-0.04 0.03,-0.04 0.01,0 0.02,0 0.02,-0.01zm-0.27 0.12c0.01,0 0.04,0 0.05,-0 -0,-0.01 -0.01,-0 -0.02,-0.01 -0.02,-0.01 -0.02,-0.04 -0,-0.05 0.01,-0.01 0.01,-0.01 0.02,-0.01 0,-0.02 -0,-0.03 0,-0.04 0.01,-0.03 0.04,-0.03 0.06,-0.03 0.03,0 0.05,-0 0.07,0.02 0.01,0.01 0.01,0.02 0.01,0.04 -0,0.03 -0,0.06 0,0.09l0.05 0c0,-0.01 -0,-0.07 0,-0.08 0,-0.01 0.02,-0 0.04,-0.01 0.02,-0.01 0.02,-0.05 0,-0.06 -0.01,-0.01 -0.03,-0 -0.04,-0.01 -0,-0.01 -0,-0.07 -0,-0.08l-0.07 0c-0,0.06 -0.06,0.07 -0.09,0.04 -0.01,-0.01 -0.01,-0.02 -0.01,-0.04l-0.07 0 0 0.24z"/>
   <path class="fil3" d="M0.4 0.14c0,-0.01 0,-0.03 0,-0.04 -0,-0.02 0.01,-0.02 0.01,-0l0 0.04c0,0.02 -0.05,-0 -0.05,0.01 -0.01,0.02 0.04,0.01 0.05,0.01 0,0 0,0 0,0.01l-0 0.08c0.01,0 0.02,-0 0.03,0 0,0 0,0.01 -0,0.01 -0,0 -0.01,0 -0.01,0 -0.03,0 -0.03,0 -0.03,-0.01l0 -0.07 -0.03 0c-0.03,0 -0.03,-0.02 -0.02,-0.03 0.01,-0.01 0.03,-0.01 0.05,-0.01zm0.01 -0.08c0.01,-0 0.01,0.02 0,0.02 -0.01,0 -0.01,-0.02 -0,-0.02zm-0.02 0.07c-0,0.01 -0.01,0 -0.02,0 -0.04,0 -0.05,0.05 -0.02,0.07 0.02,0.01 0.04,-0 0.04,0.01 0,0 0,-0 0,0l0 0.08 0.07 0c0,-0.02 0,-0.03 0.01,-0.04 0.02,-0.03 0.09,-0.02 0.09,0.04l0.07 -0 0 -0.24c-0.01,0 -0.04,-0 -0.05,0 0,0.01 0.03,0.01 0.03,0.04 0,0.01 -0,0.02 -0.01,0.03 -0.01,0.01 -0.01,0.01 -0.02,0.01 0,0.01 0,0.03 -0,0.04 -0.01,0.03 -0.04,0.03 -0.06,0.03 -0.01,0 -0.03,0 -0.04,-0 -0.01,-0 -0.02,-0.01 -0.03,-0.02 -0.01,-0.01 -0.01,-0.02 -0.01,-0.04 0,-0.03 0,-0.06 0,-0.09l-0.05 -0 -0 0.08c-0,0 -0,0 -0,0z"/>
   <path class="fil4" d="M0.12 0.66c0,-0.07 0,-0.05 -0.02,-0.06 -0.01,-0 -0.02,-0.01 -0.02,-0.02 0.01,-0.01 0.02,0 0.03,0 0.01,-0.01 -0.02,-0.08 0.03,-0.08 0,0.01 0,0.02 0,0.03 0,0.01 -0,0.02 0.01,0.03 0.01,0 0.01,-0.02 0.01,-0.03 0,-0.01 0,-0.02 0,-0.03l0.02 -0c0,0.01 -0,0.05 0,0.06 0.02,0.01 0.01,-0.02 0.01,-0.06 0.01,-0 0.02,0.01 0.02,0.01 0,0.01 -0,0.03 0.01,0.03 0.02,0 0.01,-0.03 -0,-0.05 -0.01,-0.02 -0.03,-0.01 -0.05,-0.01 -0.02,0 -0.04,-0 -0.05,0.02 -0.01,0.01 -0.01,0.04 -0.01,0.06 -0.01,-0 -0.02,-0 -0.02,0 -0.01,0 -0.01,0.01 -0.01,0.02 0,0.02 0.02,0.02 0.03,0.03l-0 0.01c-0.01,0 -0.06,0 -0.06,-0l-0 -0.24 0.07 0c-0,0.02 0,0.03 0.01,0.04 0.03,0.03 0.09,0.02 0.09,-0.04l0.07 -0c0,0.02 -0,0.07 0,0.08 0.01,0 0.02,-0 0.04,0.01 0.02,0.01 0.02,0.05 -0,0.06 -0.01,0.01 -0.03,-0 -0.04,0.01l-0 0.08 -0.06 0c-0,-0.01 -0,-0.02 -0,-0.02 0,-0.01 0,-0.02 -0.01,-0.02 -0.01,0 -0.01,0.01 -0.01,0.01 0,0.01 0,0.01 0,0.02 0,0.01 0,0.03 -0,0.04 0,0 0,0 0,0.01 0.01,0 0.01,-0 0.01,-0 0,-0.01 0,-0.02 0,-0.03 0.02,0 0.06,0 0.07,-0 0,-0.02 0,-0.06 0,-0.08 0.02,0 0.03,-0 0.04,-0.01 0.03,-0.03 0.02,-0.09 -0.04,-0.09l0 -0.07c0,-0.01 0,-0.01 -0.01,-0.02 -0.01,-0 -0.08,-0 -0.09,0 -0.01,0 0,0.02 -0.01,0.04 -0.01,0.01 -0.01,0.02 -0.03,0.02 -0.02,0 -0.04,-0.01 -0.04,-0.03l-0 -0.02c-0,-0 -0,-0.01 -0,-0.01 -0.01,-0 -0.07,-0 -0.08,-0 -0.01,-0 -0.02,-0 -0.02,0.01l-0 0.25c0,0.01 0.01,0.01 0.02,0.01 0.02,-0 0.04,0 0.06,0 0,0.01 -0,0.02 0,0.03 0.01,0 0.01,0 0.01,-0.01z"/>
   <path class="fil4" d="M0.01 0.12c0.01,-0 0.05,0 0.06,-0 0.01,-0.01 0.01,-0.03 0.02,-0.03 0.01,-0 0.01,0 0.01,0.01 -0,0.01 -0.01,0.01 -0,0.02 0.02,0.01 0.08,-0.01 0.08,0.02 -0.02,0 -0.06,-0 -0.06,0.01 0,0.01 0.04,0 0.06,0.01l-0 0.02c-0.01,0 -0.02,0 -0.03,0 -0.01,-0 -0.03,-0 -0.03,0.01 0,0.01 0.03,0 0.06,0.01 -0,0.03 -0.03,0.02 -0.04,0.02l-0 0.01c0,0.01 0,0.01 0.01,0.01 0,0 0.01,0 0.02,-0 0.01,-0 0.02,-0.01 0.02,-0.01 0.01,-0.01 0.01,-0.03 0.01,-0.05 0,-0.06 -0.02,-0.05 -0.08,-0.05 0.01,-0.04 -0.03,-0.05 -0.04,-0.02 -0.01,0.02 -0.01,0.02 -0.02,0.02l-0 -0.01 0 -0.05 0.24 0 0 0.07c-0.02,0 -0.03,0 -0.04,0.01 -0.01,0.01 -0.02,0.02 -0.02,0.04 -0,0.02 0.01,0.03 0.02,0.04 0.01,0.01 0.02,0.01 0.04,0.01l0 0.07c-0.02,0 -0.07,-0 -0.08,0 -0,0.01 0,0.05 -0.04,0.05 -0.01,0 -0.02,-0.01 -0.03,-0.01 -0.01,-0.02 -0,-0.02 -0.01,-0.04 -0.01,-0.01 -0.03,-0 -0.04,-0 -0.01,0 -0.03,0 -0.04,0l0 -0.05 0 -0.01c0.01,0 0.02,-0 0.02,0 0.01,0 0.01,0 0.02,-0.01l-0 -0.01c-0.02,-0 -0.06,-0 -0.07,-0 -0,0 -0.01,0 -0.01,0.01 -0,0.01 0,0.01 0,0.01 0,0 0.02,0 0.02,0 0,0.01 0,0.03 0,0.04 0,0.04 -0.01,0.04 0.08,0.04 0,0.05 0.05,0.07 0.09,0.04 0.01,-0.01 0.01,-0.02 0.01,-0.04l0.07 0c0.01,0 0.01,0 0.02,-0l0 -0.09c-0.01,-0.01 -0.01,-0 -0.02,-0 -0.01,0 -0.01,-0 -0.02,-0 -0.01,-0.01 -0.02,-0.01 -0.02,-0.03 -0,-0.04 0.04,-0.04 0.05,-0.04 0,-0.02 0,-0.07 0,-0.09l-0 -0 -0.2 -0c-0.02,0 -0.05,-0 -0.06,0 -0.01,0.01 -0,0.05 -0,0.07 -0.01,0 -0.02,-0 -0.02,0 -0,0 -0.01,0.01 0,0.01z"/>
   <path class="fil4" d="M0.66 0.55l-0.06 0c-0.01,0.01 -0.01,0.03 -0.02,0.03 -0.01,0 -0.01,-0 -0.01,-0.01 0,-0.01 0.01,-0.01 0.01,-0.02 -0.01,-0.01 -0.06,0 -0.07,-0.01 -0,-0 -0.01,-0.01 -0.01,-0.02 0.01,0 0.02,0 0.03,0 0.01,0 0.03,0 0.02,-0.01 -0,-0.01 -0.02,-0.01 -0.03,-0.01 -0.01,0 -0.02,0 -0.03,-0 -0,-0 -0,-0.01 -0,-0.02l0.05 -0c0.01,-0 0,-0.01 0,-0.01 -0,-0 -0.05,-0 -0.06,-0 0,-0.04 0.04,-0.01 0.05,-0.03l-0 -0.01c-0.01,-0 -0.04,-0 -0.05,0.01 -0.01,0.01 -0.01,0.04 -0.01,0.06 -0,0.02 0,0.04 0.02,0.05 0.02,0.01 0.04,0 0.06,0 -0,0.02 0,0.04 0.02,0.03 0.02,-0 0.02,-0.02 0.03,-0.03l0.01 0 0 0.05c0,0.01 0,0.01 -0,0.01l-0.24 0 0 -0.07c0.05,0 0.06,-0.04 0.05,-0.07 -0.01,-0.03 -0.04,-0.02 -0.05,-0.03l-0 -0.07c0.02,0 0.07,0 0.08,-0 0,-0.02 -0,-0.02 0.01,-0.04 0,-0.01 0.02,-0.02 0.03,-0.02 0.04,0 0.03,0.05 0.04,0.05 0.01,0.01 0.06,-0 0.08,0 0,0 0,-0 0,0.01l-0 0.05c-0.01,0 -0.03,-0 -0.04,0l-0 0.01c0,0.01 0.01,0 0.02,0 0.01,-0 0.01,-0 0.02,-0 0.01,0 0.03,-0 0.04,0l0.01 -0c0,-0.01 0,-0.01 -0.01,-0.01 -0.01,-0 -0.02,0 -0.02,0 0,-0.02 0,-0.06 -0,-0.07 -0.01,-0.01 -0.06,-0 -0.08,-0 0,-0.06 -0.06,-0.07 -0.09,-0.04 -0.01,0.01 -0.01,0.02 -0.01,0.04l-0.07 -0c-0.01,-0 -0.02,0 -0.02,0.01l0 0.06c0,0.01 -0,0.02 0.01,0.03 0.01,0 0.02,-0 0.03,0 0.01,0.01 0.02,0.03 0.01,0.05 -0,0.01 -0.01,0.01 -0.02,0.02 -0.01,0 -0.02,0 -0.03,0 -0.01,0.01 -0,0.01 -0,0.02l0 0.05c-0,0.01 -0,0.01 0,0.02l0.26 0 0 -0 0 -0.07 0.02 0c0,-0 0,-0 0,-0.01 -0,-0 -0,-0 -0.01,-0.01z"/>
   <path class="fil4" d="M0.55 0.01c0,0.06 -0.01,0.05 0.02,0.06 0.01,0 0.02,0.01 0.02,0.02 -0.01,0.01 -0.03,-0.02 -0.03,0.01 -0,0.03 0.01,0.07 -0.02,0.07 0,-0.01 0,-0.05 -0,-0.06 -0.01,-0 -0.01,-0 -0.01,-0 -0,0.01 -0,0.04 -0,0.06l-0.02 0c0,-0.01 0,-0.05 -0,-0.06 -0.01,-0 -0.01,-0 -0.01,0 -0,0.01 -0,0.04 -0,0.06 -0.03,-0 -0.01,-0.04 -0.03,-0.05 -0.01,-0 -0.01,0 -0.01,0.01 -0,0.02 -0,0.03 0.01,0.04 0.01,0.01 0.03,0.01 0.05,0.01 0.02,0 0.04,0 0.05,-0.02 0.01,-0.01 0.01,-0.04 0.01,-0.06 0.01,0 0.01,0.01 0.02,-0 0.01,-0 0.01,-0.01 0.01,-0.02 -0,-0.02 -0.02,-0.02 -0.03,-0.03l0 -0.01c0.01,-0 0.05,-0 0.06,-0 0,0.02 0,0.04 0,0.06l0 0.17c0,0.01 0,0.01 -0,0.01l-0.07 0c-0,-0.06 -0.06,-0.07 -0.09,-0.04 -0.01,0.01 -0.01,0.02 -0.01,0.04 -0.01,0 -0.07,0 -0.07,0 -0,-0.01 -0,-0.07 -0,-0.08 -0,-0.01 -0.02,0 -0.04,-0.01 -0.03,-0.02 -0.02,-0.06 0.02,-0.07 0.01,-0 0.02,0 0.02,-0l0 -0.08c0.01,-0 0.05,-0 0.06,0l0 0.04c0,0 0,0 0.01,0 0.01,-0 0.01,-0.01 0.01,-0.01 -0,-0.01 -0,-0.01 -0,-0.02 0,-0.01 0,-0.03 0,-0.04 -0,-0 0,-0 -0,-0.01 -0,-0 -0,-0 -0.01,-0 -0.01,0.01 -0,0.01 -0,0.03l-0.07 0c-0.01,0.01 -0,0.02 -0,0.04 0,0.01 0,0.03 0,0.04 -0.03,0 -0.04,0.01 -0.05,0.03 -0.01,0.02 -0,0.07 0.05,0.07 0,0.02 -0,0.07 0,0.08 0.01,0.01 0.06,0 0.07,0 0.01,0 0.01,0 0.02,-0 0,-0.02 0,-0.03 0.01,-0.04 0.01,-0.02 0.05,-0.02 0.06,-0 0.01,0.01 0.01,0.02 0.01,0.04 0.01,0.01 0.03,0 0.05,0 0.02,0 0.04,0 0.05,-0 0,-0.01 0,-0.11 0,-0.13 0,-0.04 0,-0.09 0,-0.13l-0 -0 -0.07 -0c0,-0.01 0,-0.01 0,-0.02 -0,-0.01 -0,-0.01 -0,-0.01 -0.01,0 -0.01,0 -0.01,0.01z"/>
   <path class="fil5" d="M0.01 0.12l-0 0.09c0.02,0 0.06,-0 0.07,0l0 0.01 0.01 -0c0,-0.01 0,-0.01 0.01,-0.01l0 0.01 0.01 -0 0 -0.01c0.01,-0 0.04,0.01 0.04,-0.02 -0.02,-0 -0.06,0.01 -0.06,-0.01 -0,-0.01 0.02,-0.01 0.03,-0.01 0.01,0 0.02,0 0.03,-0l0 -0.02c-0.02,-0 -0.06,0 -0.06,-0.01 -0,-0.01 0.03,-0.01 0.06,-0.01 -0,-0.04 -0.06,-0.01 -0.08,-0.02 -0.01,-0.01 0,-0.01 0,-0.02 0,-0.01 -0,-0.01 -0.01,-0.01 -0.01,0 -0.01,0.03 -0.02,0.03 -0.01,0 -0.05,-0 -0.06,0z"/>
   <path class="fil5" d="M0.55 0.5l-0 0 -0.05 0 0 0.02c0.01,0 0.02,0 0.03,0 0.01,0 0.03,-0 0.03,0.01 0,0.01 -0.02,0.01 -0.02,0.01 -0.01,0 -0.02,0 -0.03,0 -0,0.01 0,0.01 0.01,0.02 0.01,0.01 0.07,-0 0.07,0.01 0,0.01 -0,0.01 -0.01,0.02 -0,0.01 0,0.01 0.01,0.01 0.01,-0 0.01,-0.03 0.02,-0.03l0.06 -0 0 -0.09c-0.01,-0 -0.03,-0 -0.04,-0 -0.01,0 -0.01,-0 -0.02,0 -0.01,0 -0.01,0 -0.02,-0 -0,-0 -0,-0 -0.01,-0 -0,-0 -0,0 -0.01,0 -0,0.01 -0.01,0.01 -0.01,0 -0,-0 -0,-0 -0.01,-0 -0,-0 -0,0 -0.01,0 -0.01,0.02 -0.04,-0.01 -0.05,0.03 0.01,0 0.05,-0 0.06,0 0,0 0.01,0.01 -0,0.01z"/>
   <path class="fil5" d="M0.12 0.66l0.09 -0c0,-0.01 0,-0.03 0,-0.04 0,-0.01 -0,-0.01 -0,-0.02 -0,-0.01 -0,-0.01 0.01,-0.01 0,-0.01 0,-0.01 -0,-0.01 -0.01,-0 -0.01,-0 -0,-0.01 0,-0 0,-0 0.01,-0 0,-0.01 0,-0.01 -0,-0.01 -0.01,-0 -0,-0.02 -0.01,-0.03 -0,-0.01 -0.01,-0.01 -0.02,-0.01 0,0.03 0.01,0.07 -0.01,0.06 -0,-0.01 -0,-0.04 -0,-0.06l-0.02 0c0,0.01 0,0.02 0,0.03 0,0.01 0,0.03 -0.01,0.03 -0.01,-0 -0.01,-0.02 -0.01,-0.03 0,-0.01 0,-0.02 0,-0.03 -0.04,0 -0.01,0.07 -0.03,0.08 -0.01,0 -0.02,-0.01 -0.03,-0 -0.01,0.01 0.01,0.02 0.02,0.02 0.02,0.01 0.02,-0 0.02,0.06z"/>
   <path class="fil5" d="M0.45 0.08c-0,0 -0,0 -0,0.01 0,0.01 -0,0 0,0.01 0.01,0 0.01,0.01 -0,0.01 -0,0 -0,0 -0,0.01 0,0.01 -0,0 0,0.01 0.01,0.01 -0.01,0.04 0.03,0.05 0,-0.01 -0,-0.05 0,-0.06 0.01,-0 0.01,-0 0.01,-0 0,0.01 0,0.04 0,0.06l0.02 -0c0,-0.01 -0,-0.05 0,-0.06 0.01,-0 0.01,-0 0.01,0 0,0.01 0,0.04 0,0.06 0.03,-0 0.02,-0.04 0.02,-0.07 0,-0.02 0.02,0.01 0.03,-0.01 0.01,-0.01 -0.01,-0.02 -0.02,-0.02 -0.02,-0.01 -0.02,-0.01 -0.02,-0.06l-0.09 0c0,0.01 0,0.03 0,0.04 0,0.01 0,0.01 0,0.02 0,0.01 0,0.01 -0.01,0.01z"/>
   <path class="fil6" d="M0.45 0.12c-0,-0 -0,-0 -0,-0.01 -0,-0 0,-0 0,-0.01l-0.01 -0c-0,-0.01 -0,-0.01 0.01,-0.01 -0,-0 -0,-0 -0,-0.01 -0,-0 0,-0 0,-0.01 -0.01,-0 -0.01,-0 -0.01,-0l-0 -0 0 -0.03 -0.01 -0c0,0.03 0,0.06 0,0.09 -0,0.02 0,0.03 0.01,0.04 0.01,0.01 0.01,0.02 0.03,0.02 0.01,0 0.03,0 0.04,0 0.02,0 0.05,0 0.06,-0.03 0.01,-0.01 0,-0.03 0,-0.04 0.01,-0 0.02,-0.01 0.02,-0.01 0.01,-0.01 0.01,-0.02 0.01,-0.03 -0,-0.03 -0.03,-0.03 -0.03,-0.04 0.01,-0 0.04,-0 0.05,-0l0 0.24c0,-0 0,-0 0,-0.01l-0 -0.17c0,-0.02 0,-0.04 -0,-0.06 -0.01,-0 -0.05,-0 -0.06,0l-0 0.01c0.01,0.01 0.03,0.01 0.03,0.03 0,0.01 -0,0.02 -0.01,0.02 -0.01,0.01 -0.01,0 -0.02,0 0,0.02 0,0.05 -0.01,0.06 -0.01,0.02 -0.02,0.02 -0.05,0.02 -0.02,0 -0.04,0 -0.05,-0.01 -0.01,-0.01 -0.01,-0.02 -0.01,-0.04 0,-0.01 0,-0.01 0.01,-0.01z"/>
   <path class="fil7" d="M0.04 0.62c0,0 0.06,0 0.06,0l0 -0.01c-0.01,-0.01 -0.03,-0.01 -0.03,-0.03 -0,-0.01 0,-0.02 0.01,-0.02 0.01,-0.01 0.01,-0 0.02,-0 0,-0.02 -0,-0.05 0.01,-0.06 0.01,-0.02 0.02,-0.02 0.05,-0.02 0.02,0 0.04,-0 0.05,0.01 0.01,0.01 0.02,0.05 0,0.05 0,0 0,0.01 0,0.01 0.01,0 0.01,0.01 0,0.01l-0.01 0c0,0 0,0.01 0,0.01 0.01,0 0.01,0.01 0.01,0.02 -0,0.01 -0,0.02 0,0.02l0.06 -0 0 -0.08c-0,0.01 -0,0.07 -0,0.08l-0.05 0c-0,-0.03 -0,-0.06 -0,-0.09 0,-0.02 -0,-0.03 -0.01,-0.04 -0.02,-0.03 -0.04,-0.02 -0.07,-0.02 -0.02,0 -0.05,-0 -0.06,0.03 -0.01,0.01 -0,0.03 -0,0.04 -0.01,0 -0.02,0 -0.02,0.01 -0.01,0.01 -0.01,0.04 0,0.05 0.01,0.01 0.02,0.01 0.02,0.01 -0.01,0 -0.04,0 -0.05,0z"/>
   <path class="fil8" d="M0.62 0.63c0,-0 0,0 0,-0.01l-0 -0.05 -0.01 -0c-0,0.01 -0.01,0.03 -0.03,0.03 -0.02,0 -0.03,-0.02 -0.02,-0.03 -0.02,-0 -0.04,0 -0.06,-0 -0.02,-0.01 -0.02,-0.02 -0.02,-0.05 0,-0.02 -0,-0.04 0.01,-0.06 0.01,-0.01 0.04,-0.02 0.05,-0.01l0 0.01c0,-0 0,-0 0.01,-0 0.01,0 0,-0 0.01,0 -0,-0.01 0.01,-0.01 0.01,-0 0,-0 0,-0 0.01,-0 0.01,0 0,-0 0.01,0l0 -0.01c0.01,-0 0.03,0 0.04,-0l0 -0.05c-0,-0.01 0,-0 -0,-0.01l0 0.05c-0.03,0 -0.06,0 -0.09,0 -0.02,-0 -0.03,0 -0.04,0.01 -0.01,0.01 -0.02,0.02 -0.02,0.03 -0.01,0.02 -0,0.07 0,0.09 0.02,0.03 0.04,0.02 0.07,0.02 0,0.04 0.05,0.05 0.07,0.01 0.01,-0.01 0,-0.01 0.01,-0.01l0 0.05z"/>
   <path class="fil9" d="M0.04 0.09l0 0.01c0.02,0 0.01,0 0.02,-0.02 0.01,-0.03 0.05,-0.02 0.04,0.02 0.05,0 0.08,-0.01 0.08,0.05 0,0.02 0,0.04 -0.01,0.05 -0,0.01 -0.01,0.01 -0.02,0.01 -0,0 -0.01,0 -0.02,0 -0.01,-0 -0.01,-0 -0.01,-0.01l-0.01 0c-0,0.01 -0.01,0.01 -0.01,0.01l-0 -0.01 -0.01 0c-0,0.01 -0.01,0.01 -0.02,0.01 -0.01,-0 -0.02,-0 -0.02,-0l-0 0.01c0.03,0 0.06,-0 0.09,0 0.03,0 0.05,-0.01 0.06,-0.03 0.01,-0.02 0,-0.07 -0,-0.08 -0.01,-0.02 -0.03,-0.03 -0.07,-0.03 -0.01,-0 0,-0.01 -0.01,-0.02 -0.01,-0.01 -0.04,-0.01 -0.05,0 -0.01,0.01 -0.01,0.02 -0.02,0.02z"/>
   <path class="fil10" d="M0.23 0.41c0.01,0 0.02,0 0.03,0 0,0.02 -0,0.07 0,0.08 0.02,0.01 0.05,-0 0.05,0.01 0,0.01 -0.01,0.01 -0.02,0.01 -0.04,-0 -0.03,-0.01 -0.03,0.04 0,0.01 -0,0.03 0.01,0.02 0,-0.01 0,-0.04 0,-0.05 0.02,0 0.05,0.01 0.06,-0.02 0,-0.03 -0.04,-0.02 -0.06,-0.02 0,-0.1 0.01,-0.08 -0.02,-0.08 -0.01,-0 -0.03,-0 -0.02,0.01z"/>
   <path class="fil11" d="M0.49 0.41c0.01,-0.02 -0.01,-0.05 0.01,-0.05 0.01,0 0.01,0.01 0.01,0.02 -0,0.01 -0,0.02 0,0.03 0.01,0 0.05,0 0.06,0 0,-0.01 0,-0.01 0,-0.01 -0.01,-0 -0.04,-0 -0.05,-0 -0,-0.01 0,-0.03 -0,-0.04 -0,-0.01 -0.01,-0.02 -0.02,-0.02 -0.03,0 -0.02,0.03 -0.02,0.06 -0.02,0 -0.07,-0 -0.08,0 -0,0.01 -0,0.04 -0,0.04 0.02,0.01 0.01,-0.01 0.01,-0.03 0.01,0 0.07,0 0.08,-0z"/>
   <path class="fil12" d="M0.4 0.14c-0.02,0 -0.04,-0 -0.05,0.01 -0.01,0.01 -0,0.03 0.02,0.03l0.03 0 -0 0.07c0,0.01 0,0.01 0.03,0.01 0,0 0.01,-0 0.01,-0 0,-0 0,-0.01 0,-0.01 -0.01,-0 -0.02,-0 -0.03,-0l0 -0.08c-0,-0.01 -0,-0 -0,-0.01 -0.01,-0.01 -0.06,0.01 -0.05,-0.01 0.01,-0.02 0.05,0.01 0.05,-0.01l0 -0.04c0,-0.01 -0.01,-0.02 -0.01,0 0,0.01 0,0.03 -0,0.04z"/>
   <path class="fil13" d="M0.1 0.27c0.01,-0 0.04,-0 0.05,0l0 0.04c0,0.02 0.02,0.02 0.04,0.01 0.01,-0.01 0.01,-0.03 0.01,-0.05 0.09,-0 0.08,0.01 0.08,-0.03 0,-0.03 -0.01,-0.02 -0.01,-0.01l-0 0.02c-0.02,0 -0.07,-0 -0.08,0 -0.01,0.02 0.01,0.05 -0.01,0.05 -0.02,0 -0.01,-0.04 -0.01,-0.05 -0,-0.01 -0.06,-0 -0.06,-0 -0.01,0 -0.01,0.01 0,0.01z"/>
   <path class="fil14" d="M0.38 0.12c0,-0 0,0 0,-0l0 -0.08 0.05 0 0.01 0 -0 0.03 0 0 -0 -0.04c-0.01,-0 -0.05,-0 -0.06,-0l-0 0.08z"/>
   <path class="fil15" d="M0.45 0.28l-0.07 0 0 -0.08c-0,-0.01 -0,-0 -0,-0 -0,0.01 -0,0.07 0,0.08 0,0 0.07,0 0.07,-0z"/>
   <path class="fil16" d="M0.59 0.41c0,0.01 0.02,0.01 0.02,-0 -0,-0.01 -0.02,-0.01 -0.02,0z"/>
   <path class="fil13" d="M0.06 0.26c-0,0.01 0,0.01 0.01,0.01 0.01,-0 0.01,-0.01 -0.01,-0.01 -0,0 -0.01,0 -0.01,0z"/>
   <path class="fil10" d="M0.27 0.61c0,-0.01 0,-0.01 -0,-0.02 -0.01,-0 -0.01,0 -0.01,0.01 0,0.01 0.01,0.01 0.01,0.01z"/>
   <path class="fil12" d="M0.4 0.06c-0.01,0 -0.01,0.02 0,0.02 0.01,-0 0.01,-0.02 -0,-0.02z"/>
   <path class="fil4" d="M0.45 0.11c0.01,-0 0.01,-0.01 0,-0.01 -0.01,-0 -0.01,0 -0.01,0.01l0.01 0z"/>
   <path class="fil4" d="M0.21 0.57l0.01 -0c0,-0.01 0,-0.01 -0,-0.01 -0,0 -0,0 -0.01,0 -0,0.01 -0,0.01 0,0.01z"/>
   <path class="fil4" d="M0.1 0.21l0 0.01c0.01,0 0.01,0 0.01,-0.01l-0 -0.01c-0.01,-0 -0.01,-0 -0.01,0.01z"/>
   <path class="fil17" d="M0.14 0.31l-0 -0.04c-0.01,-0 -0.04,-0 -0.05,-0 0.01,0 0.03,0 0.04,0 0,0.01 -0,0.03 0,0.04 0,0 0,0 0,0z"/>
   <path class="fil4" d="M0.55 0.46c0,0.01 0.01,0.01 0.01,-0 -0,-0.01 -0.01,-0.01 -0.01,0z"/>
   <path class="fil18" d="M0.5 0.52l0 -0.02 0.05 0 0 -0 -0.05 0c-0,0.01 -0,0.02 0,0.02z"/>
  </g>
 </g>
</svg>
