<?xml version="1.0" encoding="UTF-8"?>
<!DOCTYPE svg PUBLIC "-//W3C//DTD SVG 1.1//EN" "http://www.w3.org/Graphics/SVG/1.1/DTD/svg11.dtd">
<!-- Creator: CorelDRAW 2020 (64-Bit) -->
<svg xmlns="http://www.w3.org/2000/svg" xml:space="preserve" width="127.145mm" height="127.052mm" version="1.1" style="shape-rendering:geometricPrecision; text-rendering:geometricPrecision; image-rendering:optimizeQuality; fill-rule:evenodd; clip-rule:evenodd"
viewBox="0 0 659.5 659.01"
 xmlns:xlink="http://www.w3.org/1999/xlink"
 xmlns:xodm="http://www.corel.com/coreldraw/odm/2003">
 <defs>
  <style type="text/css">
   <![CDATA[
    .fil0 {fill:black}
    .fil4 {fill:#33B9EF}
    .fil3 {fill:#6BF078}
    .fil1 {fill:#FDBB41}
    .fil2 {fill:#FE6B6B}
   ]]>
  </style>
 </defs>
 <g id="Capa_x0020_1">
  <metadata id="CorelCorpID_0Corel-Layer"/>
  <g id="_1999765777920">
   <path class="fil0" d="M11.81 285.76l76.84 0c0.01,22.5 1.39,32.56 13.63,46.72 8.45,9.77 21.81,18.98 41.25,19.01 18.94,0.03 33.21,-9.63 41.25,-19.01 11.99,-13.98 13.65,-24.37 13.65,-46.69l65.82 0.02c0,15.54 0,31.08 0,46.62 0,12.22 -3.93,35.38 6.67,39.98 9.52,4.12 26.94,-2.46 41.68,4.96 22.07,11.13 24.7,45.31 -0.05,58.27 -14.42,7.55 -32,0.74 -41.73,4.9 -10.52,4.5 -6.57,27.99 -6.57,40.09 0,15.54 0,31.08 0,46.62 -24.26,0.28 -229.2,1.36 -234.93,-1.05 -7.74,-3.25 -6.62,-12.91 -6.58,-22.25l0.03 -177.04c0.06,-11.67 0.51,-17.78 -10.97,-19.39 -14.93,1.2 -10.98,11.95 -10.98,27.64l0 118.01c0,17.58 -2.96,64.08 2.27,75.95 11.43,25.94 35.81,20.11 58.11,20.11l194.85 0c39.9,0 30.19,5.82 30.19,-87.82 23.63,0 34.51,-1.19 47.03,-13.35 25.89,-25.15 25.89,-57.93 0,-83.08 -12.52,-12.16 -23.4,-13.35 -47.03,-13.35l-0.05 -76.84c0,-13.91 2.32,-87.41 -2.12,-93.89 -6.52,-9.5 -29.43,-2.84 -41.37,-6.66 -26.23,-8.38 -29.93,-44.55 -7.43,-58.85 15.71,-9.98 27.63,-2.04 42.3,-5.78 12.79,-3.26 8.62,-26.17 8.62,-39.28 0,-16.04 0,-32.08 0,-48.12l181.18 0c71.4,0 60.4,-10.87 60.4,60.47l-0.03 181.14 -65.87 0c0,-22.52 -1.45,-32.58 -13.53,-46.82 -21.43,-25.26 -60.81,-25.39 -82.69,0.03 -12.21,14.19 -13.58,24.28 -13.58,46.77 -16.66,0.14 -41.46,-5.26 -43.58,11 -0.19,15.65 22.12,10.85 49.15,11.04 27.09,0.19 11.34,-17.77 18.1,-42.28 9.1,-32.99 61.12,-31.79 64.12,9.34 2.91,39.77 -18.07,32.42 87.88,32.88 11.72,0.05 19.74,1.33 21.69,-8.49l0.29 -241.29c0.12,-18.07 -9.34,-31.72 -25.25,-35.13 -8.38,-1.79 -200.94,-0.19 -241.01,-0.53 -11.43,-0.1 -18.84,-0.31 -19.24,11l0 76.8c-22.68,0.27 -32.33,1.18 -46.73,13.61 -25.39,21.92 -25.27,61.08 0.03,82.62 14.24,12.12 24.26,13.37 46.71,13.64l0 65.77c-15.51,0.19 -31.09,0.05 -46.61,0.05 -12.2,0 -35.4,-3.92 -40.02,6.6 -3.62,8.25 8,59.18 -34.08,59.21 -42.19,0.03 -30.34,-50.74 -34.07,-59.21 -4.63,-10.52 -27.82,-6.6 -40.03,-6.6 -15.56,0 -31.12,0 -46.68,0 0,-25.64 -1.65,-228.45 1.05,-235.03 3.18,-7.76 13.01,-6.61 22.3,-6.58l178.42 0.04c10.89,0.08 17.16,0.07 18.65,-10.92 1,-12.59 -10.49,-11.01 -22.79,-10.98l-171.53 0c-17.5,-0 -37.83,-2.11 -46.55,22.06 -3.51,9.71 -1.42,197.91 -1.47,238.66 -0.02,13.78 -2.36,23.62 10.98,24.69z"/>
   <path class="fil1" d="M11.81 307.53c11.48,1.61 11.04,7.72 10.97,19.39l-0.03 177.04c-0.03,9.33 -1.16,18.99 6.58,22.25 5.73,2.41 210.67,1.32 234.93,1.05 0,-15.54 0,-31.08 0,-46.62 0,-12.09 -3.95,-35.59 6.57,-40.09 9.73,-4.16 27.32,2.64 41.73,-4.9 24.75,-12.95 22.12,-47.14 0.05,-58.27 -14.73,-7.43 -32.16,-0.84 -41.68,-4.96 -10.61,-4.59 -6.67,-27.75 -6.67,-39.98 0,-15.54 0,-31.08 0,-46.62l-65.82 -0.02c0,22.33 -1.66,32.71 -13.65,46.69 -8.04,9.38 -22.32,19.05 -41.25,19.01 -19.45,-0.03 -32.81,-9.24 -41.25,-19.01 -12.24,-14.16 -13.62,-24.23 -13.63,-46.72l-76.84 0 0 21.76z"/>
   <path class="fil2" d="M286.21 274.79l22.31 0c2.12,-16.25 26.93,-10.86 43.58,-11 0,-22.49 1.36,-32.58 13.58,-46.77 21.87,-25.42 61.26,-25.29 82.69,-0.03 12.08,14.24 13.53,24.3 13.53,46.82l65.87 0 0.03 -181.14c0,-71.34 11,-60.47 -60.4,-60.47l-181.18 0c0,16.04 0,32.08 0,48.12 0,13.12 4.17,36.03 -8.62,39.28 -14.67,3.74 -26.6,-4.2 -42.3,5.78 -22.49,14.3 -18.8,50.46 7.43,58.85 11.94,3.82 34.85,-2.84 41.37,6.66 4.44,6.47 2.12,79.98 2.12,93.89z"/>
   <path class="fil3" d="M396.03 395.54l0 65.87c22.39,0 32.75,1.29 46.85,13.5 24.97,21.63 25.58,60.44 -0.09,82.67 -14.13,12.23 -24.35,13.59 -46.76,13.59l0 65.87 181.14 0c11.78,0 50.64,3.26 57.1,-3.29 5.96,-6.05 3.26,-102.57 3.26,-117.47 0,-40.25 0,-80.49 0,-120.74l-46.64 -0.02c-12.26,0 -35.25,3.88 -39.97,-6.64 -3.71,-8.28 8.1,-59.1 -34.13,-59.14 -42.27,-0.03 -30.25,50.64 -34.08,59.18 -4.7,10.49 -27.81,6.6 -40.02,6.6 -15.55,0 -31.11,0 -46.66,0z"/>
   <path class="fil4" d="M51.65 100.13c17.91,-8.36 15.05,20.35 15.05,31.95 0,12.14 4.15,39.21 -6.26,43.22 -19.46,7.51 -15.7,-19.53 -15.7,-32.24 0,-13.31 -4.26,-37.72 6.91,-42.93zm-0.09 -54.93c17.71,-8.22 20.18,26.85 8.82,31.24 -19.13,7.4 -20.52,-25.81 -8.82,-31.24zm212.69 -33.87l-21.07 0c-1.5,10.99 -7.76,11 -18.65,10.92l-178.42 -0.04c-9.29,-0.03 -19.12,-1.18 -22.3,6.58 -2.7,6.58 -1.05,209.38 -1.05,235.03 15.56,0 31.12,0 46.68,0 12.2,0 35.39,-3.92 40.03,6.6 3.73,8.47 -8.12,59.24 34.07,59.21 42.08,-0.03 30.46,-50.96 34.08,-59.21 4.62,-10.53 27.82,-6.6 40.02,-6.6 15.52,0 31.1,0.14 46.61,-0.05l0 -65.77c-22.45,-0.27 -32.47,-1.52 -46.71,-13.64 -25.3,-21.54 -25.42,-60.7 -0.03,-82.62 14.4,-12.43 24.06,-13.34 46.73,-13.61l0 -76.8z"/>
   <path class="fil0" d="M396.03 395.54c15.55,0 31.11,0 46.66,0 12.21,0 35.32,3.89 40.02,-6.6 3.82,-8.54 -8.19,-59.21 34.08,-59.18 42.23,0.03 30.42,50.86 34.13,59.14 4.72,10.52 27.71,6.64 39.97,6.64l46.64 0.02c0,40.25 0,80.49 0,120.74 0,14.9 2.69,111.42 -3.26,117.47 -6.45,6.56 -45.31,3.29 -57.1,3.29l-181.14 0 0 -65.87c22.41,0 32.63,-1.36 46.76,-13.59 25.67,-22.24 25.07,-61.05 0.09,-82.67 -14.1,-12.21 -24.46,-13.5 -46.85,-13.5l0 -65.87zm65.87 -37.05l0 15.09 -79.59 0c-3.3,0 -8.23,4.93 -8.23,8.23l0 90.57c0,23.16 38.09,-1.56 58.64,23.69 9.34,11.47 9.34,28.98 0,40.45 -20.55,25.24 -58.64,0.53 -58.64,23.69l0 87.82c0,6.64 4.34,10.98 10.98,10.98l244.25 0c15.1,0 30.19,-15.09 30.19,-30.19l0 -244.25c0,-5.01 -3.79,-10.98 -8.23,-10.98l-79.59 0 0 -15.09c0,-25.31 -25.46,-50.77 -50.77,-50.77l-8.23 0c-25.31,0 -50.77,25.46 -50.77,50.77z"/>
   <path class="fil0" d="M51.65 100.13c-11.16,5.21 -6.91,29.62 -6.91,42.93 0,12.71 -3.76,39.75 15.7,32.24 10.41,-4.01 6.26,-31.08 6.26,-43.22 0,-11.6 2.86,-40.31 -15.05,-31.95z"/>
   <path class="fil0" d="M51.56 45.2c-11.71,5.43 -10.31,38.64 8.82,31.24 11.36,-4.39 8.89,-39.46 -8.82,-31.24z"/>
  </g>
 </g>
</svg>
