<?xml version="1.0" encoding="UTF-8"?>
<!DOCTYPE svg PUBLIC "-//W3C//DTD SVG 1.1//EN" "http://www.w3.org/Graphics/SVG/1.1/DTD/svg11.dtd">
<!-- Creator: CorelDRAW 2020 (64-Bit) -->
<svg xmlns="http://www.w3.org/2000/svg" xml:space="preserve" width="34.0635mm" height="34.0614mm" version="1.1" style="shape-rendering:geometricPrecision; text-rendering:geometricPrecision; image-rendering:optimizeQuality; fill-rule:evenodd; clip-rule:evenodd"
viewBox="0 0 8.6 8.6"
 xmlns:xlink="http://www.w3.org/1999/xlink"
 xmlns:xodm="http://www.corel.com/coreldraw/odm/2003">
 <defs>
  <style type="text/css">
   <![CDATA[
    .fil0 {fill:red}
    .fil1 {fill:white}
   ]]>
  </style>
 </defs>
 <g id="Capa_x0020_1">
  <metadata id="CorelCorpID_0Corel-Layer"/>
  <g id="_1625742841920">
   <path class="fil0" d="M4.18 6.41c0.56,-0.17 0.8,0.67 0.26,0.85 -0.56,0.19 -0.85,-0.67 -0.26,-0.85zm-0.06 -5.08c0.48,-0.08 0.78,0.11 0.86,0.51 0.05,0.23 -0.09,0.97 -0.14,1.24 -0.05,0.33 -0.31,2.32 -0.39,2.44 -0.05,0.08 -0.29,0.19 -0.35,-0.22l-0.45 -3.07c-0.06,-0.41 0.03,-0.84 0.48,-0.91zm4.47 3.22c0.1,-1.43 -0.59,-2.86 -1.69,-3.67 -2.8,-2.08 -6.66,-0.24 -6.89,3.14 -0.16,2.47 1.74,4.43 4.02,4.57 2.35,0.15 4.39,-1.6 4.56,-4.04z"/>
   <path class="fil1" d="M4.11 1.32c-0.44,0.07 -0.54,0.5 -0.48,0.91l0.45 3.07c0.06,0.41 0.3,0.29 0.35,0.22 0.08,-0.11 0.34,-2.11 0.39,-2.44 0.04,-0.27 0.18,-1.01 0.14,-1.24 -0.08,-0.4 -0.38,-0.59 -0.86,-0.51z"/>
   <path class="fil1" d="M4.18 6.41c-0.59,0.17 -0.3,1.04 0.26,0.85 0.53,-0.18 0.3,-1.01 -0.26,-0.85z"/>
  </g>
 </g>
</svg>
