<?xml version="1.0" encoding="UTF-8"?>
<!DOCTYPE svg PUBLIC "-//W3C//DTD SVG 1.1//EN" "http://www.w3.org/Graphics/SVG/1.1/DTD/svg11.dtd">
<!-- Creator: CorelDRAW 2020 (64-Bit) -->
<svg xmlns="http://www.w3.org/2000/svg" xml:space="preserve" width="123.224mm" height="94.7931mm" version="1.1" style="shape-rendering:geometricPrecision; text-rendering:geometricPrecision; image-rendering:optimizeQuality; fill-rule:evenodd; clip-rule:evenodd"
viewBox="0 0 73.57 56.59"
 xmlns:xlink="http://www.w3.org/1999/xlink"
 xmlns:xodm="http://www.corel.com/coreldraw/odm/2003">
 <defs>
  <style type="text/css">
   <![CDATA[
    .fil1 {fill:#114F0E}
    .fil0 {fill:#18CE0F}
   ]]>
  </style>
 </defs>
 <g id="Capa_x0020_1">
  <metadata id="CorelCorpID_0Corel-Layer"/>
  <rect class="fil0" y="-0" width="73.57" height="56.59" rx="5.38" ry="5.81"/>
  <path class="fil1" d="M22.05 51.21c1.46,0.35 5.78,-2.31 7.64,-3.29 1.01,-0.53 6.6,-3.67 7.19,-3.63l10.73 5.53c5.54,3.05 5.01,1.27 3.41,-6.75 -0.32,-1.6 -1.42,-7.06 -1.34,-8.42 0.76,-0.44 1.96,-1.82 2.66,-2.52 0.52,-0.52 0.89,-0.71 1.4,-1.2l6.62 -6.55c1.26,-1.68 0.05,-2.31 -1.65,-2.55l-13.96 -2.04 -2.18 -4.29c-0.76,-1.53 -1.5,-2.97 -2.19,-4.5 -0.69,-1.52 -1.47,-3 -2.22,-4.46 -1.5,-2.91 -2.84,0.29 -3.25,1.1 -1.43,2.83 -2.9,5.75 -4.35,8.84 -0.34,0.73 -0.76,1.48 -1.1,2.24 -0.58,1.27 -0.53,1.1 -2.03,1.33 -2,0.31 -3.91,0.51 -5.84,0.81 -1.93,0.29 -3.74,0.57 -5.66,0.85 -5.13,0.74 -3.21,2.11 -0.8,4.55 0.58,0.59 1.1,0.88 1.77,1.56l6.74 6.64c0.7,0.87 -0.26,4.39 -0.5,5.64 -0.37,1.91 -0.59,3.76 -0.96,5.67 -0.32,1.65 -1.24,4.25 -0.11,5.44z"/>
 </g>
</svg>
