<?xml version="1.0" encoding="UTF-8"?>
<!DOCTYPE svg PUBLIC "-//W3C//DTD SVG 1.1//EN" "http://www.w3.org/Graphics/SVG/1.1/DTD/svg11.dtd">
<!-- Creator: CorelDRAW 2020 (64-Bit) -->
<svg xmlns="http://www.w3.org/2000/svg" xml:space="preserve" width="159.616mm" height="159.615mm" version="1.1" style="shape-rendering:geometricPrecision; text-rendering:geometricPrecision; image-rendering:optimizeQuality; fill-rule:evenodd; clip-rule:evenodd"
viewBox="0 0 133.37 133.37"
 xmlns:xlink="http://www.w3.org/1999/xlink"
 xmlns:xodm="http://www.corel.com/coreldraw/odm/2003">
 <defs>
  <style type="text/css">
   <![CDATA[
    .fil1 {fill:black}
    .fil5 {fill:#99D67F}
    .fil2 {fill:#B1E49B}
    .fil6 {fill:#FEDD55}
    .fil4 {fill:#FEEA98}
    .fil3 {fill:#FFCFC2}
    .fil0 {fill:#FFE1D8}
   ]]>
  </style>
 </defs>
 <g id="Capa_x0020_1">
  <metadata id="CorelCorpID_0Corel-Layer"/>
  <g id="_1703669140688">
   <path class="fil0" d="M45.25 50.33c-0.85,3.03 3.43,15.56 4.69,18.24 3.75,7.92 8.44,14.28 16.09,18.56l18.72 10.46c1.25,0.73 2.68,1.85 4.04,1.82 1.75,0.04 21.22,-6.51 24.64,-7.59 2.42,-0.77 3.75,-1.54 4.72,-3.35 3.35,-6.23 -3.62,-7.79 -3.52,-11.34 0.07,-2.41 2.33,-3.09 3.29,-5.03 1.11,-2.26 0.75,-4.66 -0.43,-6.47 -1.39,-2.13 -3.57,-2.1 -4.57,-3.5 -2.47,-3.48 4.06,-7.29 -0.84,-12.18 -1.63,-1.63 -3.71,-1.3 -4.33,-3.74 -0.68,-2.66 1.37,-3.41 1.55,-6.13 0.31,-4.77 -4.19,-7.79 -9.06,-6.25 -4.11,1.3 -8.19,2.63 -12.26,3.9 -3.67,1.15 -8.98,3.51 -13,2.18 -10.07,-3.34 -1.47,-18.68 -14.86,-25.8 -2.09,-1.11 -4.24,-1.68 -5.48,0.46 -0.96,1.65 0.11,4.71 0.44,6.68 1.21,7.3 1.64,14.37 -2.12,20.54 -1.08,1.77 -2.31,3.25 -3.49,4.58 -0.7,0.79 -3.99,3.42 -4.23,3.98z"/>
   <path class="fil1" d="M49.68 95.51l3.38 10.06c1.13,3.61 2.61,7.02 0.89,10.9 -1.41,3.18 -3.51,4.89 -7.21,6.08 -2.95,0.95 -7.03,2.48 -9.95,3.1 -4.31,0.91 -7.42,-1.61 -8.78,-4.14 -0.85,-1.58 -8.88,-27.6 -9.6,-30.1 -1.5,-3.81 -2.83,-8.91 -4.1,-12.98 -1.3,-4.13 -3.98,-9.48 -1.66,-13.68 2.09,-3.77 6.54,-4.3 11.32,-5.87 4.01,-1.32 9.02,-3.12 13.01,-4.09 1.08,2.4 12.74,40.06 12.71,40.73zm8.91 15.72c-0.35,-3.6 -3.1,-11.05 -4.29,-14.71 -1.84,-5.65 -12.95,-40.31 -13.63,-43.37 1.46,-0.77 3.31,-2.37 4.58,-2.82 0.24,-0.55 3.53,-3.19 4.23,-3.98 1.18,-1.33 2.41,-2.81 3.49,-4.58 3.76,-6.17 3.33,-13.25 2.12,-20.54 -0.33,-1.98 -1.4,-5.03 -0.44,-6.68 1.24,-2.13 3.39,-1.57 5.48,-0.46 13.39,7.12 4.78,22.47 14.86,25.8 4.02,1.33 9.33,-1.03 13,-2.18 4.07,-1.28 8.15,-2.6 12.26,-3.9 4.87,-1.54 9.37,1.48 9.06,6.25 -0.18,2.71 -2.22,3.47 -1.55,6.13 0.62,2.44 2.7,2.11 4.33,3.74 4.9,4.89 -1.63,8.7 0.84,12.18 1,1.41 3.18,1.37 4.57,3.5 1.18,1.81 1.54,4.21 0.43,6.47 -0.96,1.94 -3.22,2.62 -3.29,5.03 -0.11,3.55 6.87,5.11 3.52,11.34 -0.98,1.81 -2.3,2.58 -4.72,3.35 -3.42,1.09 -22.89,7.63 -24.64,7.59 -1.01,0.9 -11.69,3.92 -13.93,4.63l-10.49 3.31c-1.45,0.51 -1.65,1.05 -1.6,2.83 1.24,1.45 2.04,1.25 4.39,0.49 10.72,-3.48 22.46,-6.94 33.01,-10.49 3.21,-1.08 6.09,-1.85 9.32,-2.93 5.18,-1.72 9.23,-2.06 12.04,-6.71 3.6,-5.95 -0.67,-12.63 -2.76,-13.18 0.98,-1.46 4.67,-4.1 3.69,-9.68 -0.59,-3.34 -3.02,-7.07 -6.04,-7.77 1.39,-2.62 2.09,-5.5 0.89,-8.97 -0.49,-1.43 -1.29,-2.56 -2.15,-3.58 -0.58,-0.69 -2.46,-2.07 -3.43,-2.3 4.37,-8.26 -1.62,-15.6 -8.59,-15.64 -3.14,-0.02 -5.98,1.18 -8.83,2.13l-12.48 3.93c-3.27,0.91 -6.14,1.57 -7.8,-1.69 -2.65,-5.22 0.52,-15.1 -10.65,-22.44 -7.54,-4.95 -12.89,-0.52 -13.14,4.27 -0.26,5.01 5.53,18.01 -2.66,26.77 -0.58,0.62 -0.69,0.8 -1.19,1.41 -1.36,1.63 -5.68,4.65 -7.84,5.96 -1.74,1.06 -9.91,3.42 -12.42,4.25 -4.96,1.65 -12.4,3.07 -15.33,6.55 -5.46,6.49 -2.68,10.84 -1.13,16.47l13.2 41.76c1.03,3.24 1.48,5.06 3.49,7.45 0.83,0.99 1.96,1.79 3.05,2.42 1.21,0.7 2.72,1 4.54,1.21 3.17,0.37 9.82,-2.37 12.97,-3.24 7.94,-2.19 12.04,-7.41 11.65,-15.42z"/>
   <path class="fil2" d="M18.42 91.4c1.99,0.57 4.34,1.79 6.69,2.56 2.31,0.75 4.96,1.31 7.45,1.66 2.73,0.39 15.32,1.2 17.13,-0.11 0.03,-0.67 -11.63,-38.32 -12.71,-40.73 -3.99,0.97 -9,2.77 -13.01,4.09 -4.78,1.57 -9.23,2.1 -11.32,5.87 -2.32,4.2 0.36,9.55 1.66,13.68 1.28,4.07 2.6,9.17 4.1,12.98z"/>
   <path class="fil3" d="M58.59 111.23c1.64,-0.13 2.45,-1 4.19,-1.04 -0.06,-1.78 0.14,-2.32 1.6,-2.83l10.49 -3.31c2.24,-0.71 12.92,-3.74 13.93,-4.63 -1.36,0.03 -2.79,-1.09 -4.04,-1.82l-18.72 -10.46c-7.65,-4.28 -12.34,-10.64 -16.09,-18.56 -1.27,-2.67 -5.54,-15.21 -4.69,-18.24 -1.27,0.45 -3.12,2.05 -4.58,2.82 0.68,3.06 11.79,37.71 13.63,43.37 1.19,3.67 3.94,11.11 4.29,14.71z"/>
   <path class="fil4" d="M27.09 37.29c0.3,-0.62 0.49,-1.11 0.89,-1.76 0.42,-0.68 0.73,-0.9 0.94,-1.67 -0.61,-1.19 -0.98,-2.14 0.11,-3.28 2.2,-2.31 4.62,-3.91 7.58,-5.44 2.03,-1.04 4.09,-2.81 2.32,-5.19 -1.78,-2.4 -7.67,-1.8 -13.53,-12.53 -4.14,-7.59 -6.35,-1.62 -8.34,1.83 -5.62,9.75 -13.87,8.35 -13.09,13.09 0.31,1.86 3.1,2.92 4.76,3.84 9.8,5.44 8.85,13.1 12.65,13.42 3.42,0.29 1.87,-2.94 5.71,-2.31z"/>
   <path class="fil5" d="M47.81 111.75c-1.9,11.26 -18.57,8.24 -16.48,-2.81 1.99,-10.59 18.26,-7.73 16.48,2.81zm1.87 -16.24c-1.81,1.31 -14.39,0.5 -17.13,0.11 -2.49,-0.35 -5.14,-0.91 -7.45,-1.66 -2.35,-0.77 -4.7,-1.99 -6.69,-2.56 0.72,2.5 8.75,28.52 9.6,30.1 1.36,2.53 4.47,5.05 8.78,4.14 2.92,-0.62 7,-2.15 9.95,-3.1 3.7,-1.19 5.8,-2.9 7.21,-6.08 1.72,-3.88 0.24,-7.29 -0.89,-10.9l-3.38 -10.06z"/>
   <path class="fil1" d="M27.09 37.29c-3.84,-0.63 -2.29,2.6 -5.71,2.31 -3.8,-0.33 -2.85,-7.99 -12.65,-13.42 -1.66,-0.92 -4.45,-1.98 -4.76,-3.84 -0.78,-4.74 7.46,-3.34 13.09,-13.09 1.99,-3.45 4.2,-9.41 8.34,-1.83 5.86,10.73 11.75,10.13 13.53,12.53 1.77,2.39 -0.29,4.15 -2.32,5.19 -2.96,1.52 -5.38,3.13 -7.58,5.44 -1.09,1.14 -0.72,2.09 -0.11,3.28 2.63,1.28 2.29,-0.61 6.29,-3.34 1.15,-0.78 2.1,-1.2 3.29,-1.92 1.3,-0.78 2.23,-1.09 3.25,-2.22 1.76,-1.97 2.43,-5.28 0.87,-8.04 -2.19,-3.9 -7.76,-3.67 -11.92,-9.7 -1.34,-1.94 -2.8,-5.32 -4.05,-6.63 -1,-1.04 -2.38,-1.79 -3.94,-2.01l-1.85 0c-0.72,0.1 -1.46,0.32 -2.2,0.68 -5.27,2.59 -2.38,7.92 -13.01,13.82 -1.08,0.6 -2.52,1.35 -3.37,2.1 -1.1,0.97 -2.01,2.45 -2.28,4.13l0 2.06c0.09,0.56 0.26,1.13 0.51,1.69 1.35,2.98 3.33,3.43 5.99,4.95 9.33,5.38 7.44,11.86 12.79,13.78 4.32,1.54 8.73,-1.9 8.74,-4.15 0,-0.9 -0.49,-1.18 -0.94,-1.78z"/>
   <path class="fil1" d="M104.7 116.05c2.76,-1.75 5.7,-3.1 7.32,-5.07 0.85,-1.04 1.73,-2.24 2.53,-3.72 4.23,-7.76 2.64,1.85 12.17,7.22 5.2,2.93 2.3,3.42 -1.16,5.61 -1.41,0.89 -2.44,1.74 -3.43,2.83 -1,1.1 -1.8,2.12 -2.61,3.63 -0.62,1.15 -1.26,3.53 -3.17,2.73 -1.15,-0.48 -2.47,-4.84 -5.27,-7.25 -1.2,-1.04 -2.12,-1.62 -3.71,-2.55 -1.54,-0.9 -2.99,-1.09 -2.69,-3.44zm28.67 0.14l0 1.6c-0.26,1.66 -1.34,3.27 -3.39,4.37 -1.96,1.05 -3.06,1.63 -4.63,3.19 -3.56,3.56 -3.49,8.01 -7.88,8.01l-0.19 0 -0.26 0c-1.39,-0 -2.28,-0.08 -3.67,-1.36 -2.98,-2.76 -1.77,-5.37 -7.39,-8.76 -0.87,-0.53 -1.68,-0.85 -2.52,-1.39 -1.66,-1.08 -2.91,-2.49 -2.91,-5.17 0,-3.84 4.18,-5.13 5.95,-6.3 1.89,-1.24 2.79,-2.13 4.01,-4.07 0.53,-0.85 0.85,-1.61 1.39,-2.52 2.18,-3.66 5.91,-4.17 8.62,-2.13 2.63,1.97 1.6,6.02 9.48,10.06 1.92,0.98 3.11,2.66 3.38,4.45z"/>
   <path class="fil6" d="M104.7 116.05c-0.3,2.35 1.15,2.54 2.69,3.44 1.59,0.93 2.5,1.51 3.71,2.55 2.8,2.41 4.12,6.77 5.27,7.25 1.91,0.8 2.55,-1.58 3.17,-2.73 0.81,-1.51 1.61,-2.53 2.61,-3.63 0.99,-1.09 2.02,-1.94 3.43,-2.83 3.46,-2.19 6.36,-2.68 1.16,-5.61 -9.53,-5.37 -7.95,-14.99 -12.17,-7.22 -0.8,1.48 -1.68,2.68 -2.53,3.72 -1.62,1.97 -4.56,3.32 -7.32,5.07z"/>
   <path class="fil1" d="M38.69 106.25c5.66,-1.27 7.04,7.21 2.13,8.56 -5.81,1.61 -8.32,-7.18 -2.13,-8.56zm9.12 5.5c1.78,-10.55 -14.49,-13.4 -16.48,-2.81 -2.08,11.05 14.58,14.08 16.48,2.81z"/>
   <path class="fil4" d="M38.69 106.25c-6.19,1.38 -3.69,10.17 2.13,8.56 4.91,-1.36 3.54,-9.83 -2.13,-8.56z"/>
  </g>
 </g>
</svg>
