<?xml version="1.0" encoding="UTF-8"?>
<!DOCTYPE svg PUBLIC "-//W3C//DTD SVG 1.1//EN" "http://www.w3.org/Graphics/SVG/1.1/DTD/svg11.dtd">
<!-- Creator: CorelDRAW 2020 (64-Bit) -->
<svg xmlns="http://www.w3.org/2000/svg" xml:space="preserve" width="123.224mm" height="94.7931mm" version="1.1" style="shape-rendering:geometricPrecision; text-rendering:geometricPrecision; image-rendering:optimizeQuality; fill-rule:evenodd; clip-rule:evenodd"
viewBox="0 0 69.33 53.33"
 xmlns:xlink="http://www.w3.org/1999/xlink"
 xmlns:xodm="http://www.corel.com/coreldraw/odm/2003">
 <defs>
  <style type="text/css">
   <![CDATA[
    .fil1 {fill:#FF9933}
    .fil0 {fill:yellow}
   ]]>
  </style>
 </defs>
 <g id="Capa_x0020_1">
  <metadata id="CorelCorpID_0Corel-Layer"/>
  <rect class="fil0" y="0" width="69.33" height="53.33" rx="5.07" ry="5.47"/>
  <path class="fil1" d="M48.91 38.77l-8 0c-0.54,0 -1.25,-0.61 -1.25,-1.16 0,-0.86 0.24,-1.64 1.35,-1.64l7.9 0c1.65,0 1.65,2.8 0,2.8zm-9.25 -7.42c0,-0.73 0.25,-1.54 1.16,-1.54l11.28 0c1.52,0 1.68,2.8 -0.29,2.8l-10.7 0c-0.75,0 -1.45,-0.56 -1.45,-1.25zm-17.83 -3.76l0 -0.58c0,-4.74 7.03,-7.28 9.93,-2.22 0.88,1.53 0.8,3.88 -0.27,5.42 -0.2,0.29 -0.38,0.39 -0.41,0.75 0.57,0.13 1.36,1.01 1.76,1.42 0.44,0.45 0.98,1.39 1.26,2.02 0.41,0.94 1.44,4.37 -0.8,4.37l-12.53 0c-2.43,0 -1.24,-5.97 2.41,-7.9 -0.6,-0.89 -1.35,-1.68 -1.35,-3.28zm17.83 -2.41c0,-0.88 0.34,-1.64 1.45,-1.64l10.7 0c1.83,0 2.17,2.89 -0.29,2.89l-10.12 0c-0.87,0 -1.73,-0.42 -1.73,-1.25zm-20.14 -7.9c0,-0.51 0.05,-0.69 0.35,-1 0.21,-0.21 0.53,-0.45 0.9,-0.45l31.23 0c1.57,0 1.8,2.8 -0.1,2.8l-31.04 0c-0.77,0 -1.35,-0.58 -1.35,-1.35zm-7.81 -3.47l0 26.99c0,1.19 0.75,2.35 1.37,2.97 0.67,0.66 1.85,1.27 3.16,1.27l40.29 0c2.47,0 4.53,-2.11 4.53,-4.24l0 -26.99c0,-2.13 -2.06,-4.24 -4.53,-4.24l-40.19 0c-1.38,0 -2.49,0.54 -3.21,1.23 -0.64,0.62 -1.42,1.81 -1.42,3.01z"/>
  <path class="fil1" d="M22.6 35.97l9.06 0c-0.22,-0.45 -0.31,-0.8 -0.59,-1.24 -0.27,-0.41 -0.5,-0.72 -0.9,-1.02 -1.09,-0.81 -1.79,-1.11 -3.22,-1.11 -2.18,0 -4.31,2.02 -4.34,3.37z"/>
  <path class="fil1" d="M24.62 27.3c0,1.22 1.03,2.41 2.22,2.41l0.48 0c2.89,0 2.89,-4.82 0,-4.82l-0.48 0c-1.18,0 -2.22,1.19 -2.22,2.41z"/>
 </g>
</svg>
