<?xml version="1.0" encoding="UTF-8"?>
<!DOCTYPE svg PUBLIC "-//W3C//DTD SVG 1.1//EN" "http://www.w3.org/Graphics/SVG/1.1/DTD/svg11.dtd">
<!-- Creator: CorelDRAW 2020 (64-Bit) -->
<svg xmlns="http://www.w3.org/2000/svg" xml:space="preserve" width="10.8282mm" height="14.071mm" version="1.1" style="shape-rendering:geometricPrecision; text-rendering:geometricPrecision; image-rendering:optimizeQuality; fill-rule:evenodd; clip-rule:evenodd"
viewBox="0 0 1.32 1.72"
 xmlns:xlink="http://www.w3.org/1999/xlink"
 xmlns:xodm="http://www.corel.com/coreldraw/odm/2003">
 <defs>
  <style type="text/css">
   <![CDATA[
    .fil1 {fill:black}
    .fil3 {fill:#3774A4}
    .fil2 {fill:#428CC4}
    .fil0 {fill:white}
   ]]>
  </style>
 </defs>
 <g id="Capa_x0020_1">
  <metadata id="CorelCorpID_0Corel-Layer"/>
  <g id="_2767271809184">
   <path class="fil0" d="M0.32 1.29l0.16 -0 0.01 0 0 0.06 -0.01 0 -0.16 0 -0 -0.06zm0.6 -0.09c-0.07,-0 -0.16,-0 -0.23,-0 -0.08,0 -0.15,0 -0.23,0 -0.17,0 -0.17,0.01 -0.17,-0.06l-0 -0.69c-0,-0.05 0.01,-0.05 0.06,-0.05l0.8 -0c0.06,-0 0.05,0.01 0.05,0.06l0 0.8c0,0.05 -0.01,0.05 -0.06,0.05 -0.04,-0 -0.08,0 -0.11,0 -0.03,0 -0.09,0.01 -0.1,-0.01 -0.02,-0.02 -0.01,-0.08 -0.01,-0.11zm-0.25 -0.92l0.17 -0 0 0.06 -0.17 0 0 -0.06zm-0.06 -0.11l0.29 0 0 0.06 -0.29 0 0 -0.06zm-0.37 0.11l-0 1.17 1.03 0 -0 -1.24c0,-0.04 0,-0.1 -0,-0.14 -0,-0.02 -0.02,-0.03 -0.04,-0.03l-0.62 0c-0.04,0 -0.1,-0 -0.14,0 -0,0.26 0.04,0.23 -0.23,0.23z"/>
   <path class="fil1" d="M0.23 0.29c0.27,0 0.22,0.03 0.23,-0.23 0.04,-0 0.1,-0 0.14,-0l0.62 -0c0.02,0 0.04,0 0.04,0.03 0,0.03 0,0.1 0,0.14l0 1.24 -1.03 0 0 -1.17zm0.04 -0.06c0.01,-0.01 0.12,-0.12 0.13,-0.13l0 0.13 -0.13 -0zm-0.1 0.06c0,0.37 0,0.74 0,1.1 0,0.05 -0.01,0.09 0.02,0.12 0.03,0.02 0.09,0.01 0.13,0.01l0.82 -0 0 0.03c-0,0.03 0,0.05 -0.01,0.08 -0.01,0.02 -0.03,0.03 -0.05,0.04 -0.03,0.01 -0.8,0 -0.9,0 -0.04,0 -0.1,0 -0.12,-0.06 -0.01,-0.03 -0,-0.14 -0,-0.18l0 -1.08c0,-0.06 -0.01,-0.12 0.03,-0.15 0.04,-0.03 0.1,-0.02 0.16,-0.02 -0.04,0.06 -0.07,0.04 -0.07,0.11zm-0.17 -0l0 1.27c0,0.05 0.01,0.09 0.03,0.12 0.02,0.02 0.06,0.05 0.1,0.05l0.94 0c0.06,0 0.13,-0.07 0.13,-0.13l0 -0.07c0.05,0 0.12,0.01 0.12,-0.07l0 -1.34c0,-0.06 -0.03,-0.1 -0.08,-0.1l-0.82 0c-0.02,0 -0.09,0.08 -0.11,0.11 -0.01,0.01 -0.01,0.01 -0.03,0.01 -0.04,-0 -0.14,-0 -0.17,0.01 -0.08,0.02 -0.11,0.08 -0.11,0.16z"/>
   <path class="fil1" d="M0.98 1.2l0.17 -0 0 0.06 -0.17 0 0 -0.06zm-0 -0.11l0.17 -0 0 0.06 -0.17 0 0 -0.06zm-0.46 0l0.4 0 0 0.06 -0.4 -0 0 -0.06zm-0.17 0l0.11 -0 0 0.06 -0.11 -0 0 -0.06zm0.63 -0.11l0.17 -0 0 0.06 -0.17 0 0 -0.06zm-0.46 0l0.4 0 0 0.06 -0.4 -0 0 -0.06zm-0.17 0l0.11 -0 0 0.06 -0.11 -0 0 -0.06zm0.63 -0.11l0.17 0 0 0.06 -0.17 0 0 -0.06zm-0.46 0l0.4 0 0 0.06 -0.01 0 -0.38 0 -0.01 -0 0 -0.06zm-0.17 0l0.11 -0 0 0.06 -0.1 0 -0.01 -0 0 -0.06zm0.63 -0.11l0.17 0 0 0.04 -0 0.01 -0.17 0 -0 -0.01 0 -0.04zm-0.46 0l0.4 0 -0 0.06 -0.01 0 -0.38 0 -0.01 -0 -0 -0.06zm-0.17 0l0.11 -0 0 0.04 -0 0.01 -0.11 -0 -0 -0.06zm0.63 -0.11l0.17 0 0 0.04 -0 0.01 -0.17 0 -0 -0.01 0 -0.04zm-0.46 0l0.4 0 -0 0.06 -0.01 0 -0.38 0 -0.01 -0 -0 -0.06zm-0.17 0l0.11 -0 0 0.04 -0 0.01 -0.11 -0 -0 -0.06zm0 -0.17l0.8 -0 0 0.1 -0 0.01 -0.8 -0 -0 -0.11zm0.57 0.74c0,0.03 -0.01,0.09 0.01,0.11 0.02,0.02 0.08,0.01 0.1,0.01 0.04,0 0.08,-0 0.11,0 0.05,0 0.06,0 0.06,-0.05l-0 -0.8c0,-0.05 0,-0.06 -0.05,-0.06l-0.8 0c-0.05,-0 -0.06,-0 -0.06,0.05l0 0.69c-0,0.08 0,0.06 0.17,0.06 0.08,0 0.15,0 0.23,0 0.07,0 0.16,-0 0.23,0z"/>
   <path class="fil2" d="M1.15 1.55c-0.29,0 -0.57,0 -0.86,0 -0.16,0 -0.14,0.02 -0.14,-0.14l0 -1c0,-0.08 -0.01,-0.08 0.03,-0.11 0,-0.08 0.03,-0.05 0.07,-0.11 -0.06,0 -0.12,-0.01 -0.16,0.02 -0.04,0.03 -0.03,0.1 -0.03,0.15l0 1.08c0,0.04 -0,0.15 0,0.18 0.02,0.06 0.07,0.06 0.12,0.06 0.1,-0 0.86,0 0.9,-0 0.03,-0.01 0.04,-0.02 0.05,-0.04 0.02,-0.03 0.01,-0.04 0.01,-0.08z"/>
   <polygon class="fil0" points="0.35,0.57 1.15,0.57 1.15,0.56 1.15,0.46 0.35,0.46 "/>
   <path class="fil3" d="M1.15 1.55l-0 -0.03 -0.82 0c-0.04,0 -0.1,0.01 -0.13,-0.01 -0.03,-0.03 -0.02,-0.07 -0.02,-0.12 0,-0.37 0,-0.74 -0,-1.1 -0.04,0.04 -0.03,0.03 -0.03,0.11l0 1c0,0.16 -0.03,0.14 0.14,0.14 0.29,0 0.57,0 0.86,0z"/>
   <polygon class="fil0" points="0.52,0.91 0.53,0.92 0.91,0.92 0.92,0.92 0.92,0.86 0.52,0.86 "/>
   <polygon class="fil0" points="0.52,0.8 0.53,0.8 0.91,0.8 0.92,0.8 0.92,0.74 0.52,0.74 "/>
   <polygon class="fil0" points="0.52,0.69 0.53,0.69 0.91,0.69 0.92,0.69 0.92,0.63 0.52,0.63 "/>
   <polygon class="fil0" points="0.52,1.03 0.92,1.03 0.92,0.97 0.52,0.97 "/>
   <polygon class="fil0" points="0.52,1.14 0.92,1.14 0.92,1.09 0.52,1.09 "/>
   <polygon class="fil1" points="0.6,0.23 0.89,0.23 0.89,0.17 0.6,0.17 "/>
   <polygon class="fil1" points="0.32,1.35 0.48,1.35 0.49,1.34 0.49,1.29 0.48,1.29 0.32,1.29 "/>
   <polygon class="fil0" points="0.98,0.92 1.15,0.92 1.15,0.86 0.98,0.86 "/>
   <polygon class="fil0" points="0.98,0.79 0.98,0.8 1.15,0.8 1.15,0.79 1.15,0.74 0.98,0.74 "/>
   <polygon class="fil0" points="0.98,0.67 0.98,0.69 1.15,0.69 1.15,0.67 1.15,0.63 0.98,0.63 "/>
   <polygon class="fil1" points="0.66,0.34 0.83,0.34 0.83,0.29 0.66,0.29 "/>
   <polygon class="fil0" points="0.98,1.03 1.15,1.03 1.15,0.97 0.98,0.97 "/>
   <polygon class="fil0" points="0.98,1.14 1.15,1.14 1.15,1.09 0.98,1.09 "/>
   <polygon class="fil0" points="0.98,1.26 1.15,1.26 1.15,1.2 0.98,1.2 "/>
   <path class="fil0" d="M0.27 0.23l0.13 0 -0 -0.13c-0.01,0.01 -0.12,0.12 -0.13,0.13z"/>
   <polygon class="fil0" points="0.35,0.92 0.36,0.92 0.46,0.92 0.46,0.86 0.35,0.86 "/>
   <polygon class="fil0" points="0.35,0.8 0.46,0.8 0.46,0.79 0.46,0.74 0.35,0.74 "/>
   <polygon class="fil0" points="0.35,0.69 0.46,0.69 0.46,0.67 0.46,0.63 0.35,0.63 "/>
   <polygon class="fil0" points="0.35,1.03 0.46,1.03 0.46,0.97 0.35,0.97 "/>
   <polygon class="fil0" points="0.35,1.14 0.46,1.14 0.46,1.09 0.35,1.09 "/>
  </g>
 </g>
</svg>
