<?xml version="1.0" encoding="UTF-8"?>
<!DOCTYPE svg PUBLIC "-//W3C//DTD SVG 1.1//EN" "http://www.w3.org/Graphics/SVG/1.1/DTD/svg11.dtd">
<!-- Creator: CorelDRAW 2020 (64-Bit) -->
<svg xmlns="http://www.w3.org/2000/svg" xml:space="preserve" width="24.3567mm" height="24.3477mm" version="1.1" style="shape-rendering:geometricPrecision; text-rendering:geometricPrecision; image-rendering:optimizeQuality; fill-rule:evenodd; clip-rule:evenodd"
viewBox="0 0 6.82 6.82"
 xmlns:xlink="http://www.w3.org/1999/xlink"
 xmlns:xodm="http://www.corel.com/coreldraw/odm/2003">
 <defs>
  <style type="text/css">
   <![CDATA[
    .fil3 {fill:#2196F3}
    .fil0 {fill:#231F20}
    .fil4 {fill:#C7C700}
    .fil1 {fill:#EEC6BC}
    .fil2 {fill:yellow}
   ]]>
  </style>
 </defs>
 <g id="Capa_x0020_1">
  <metadata id="CorelCorpID_0Corel-Layer"/>
  <g id="_2767941965856">
   <path class="fil0" d="M0.88 4.23c0.05,0.03 1.67,1.65 1.71,1.71 -0.03,0.05 -0.56,0.58 -0.61,0.61l-1.71 -1.72 0.61 -0.6zm3.85 -0.27l-0.5 -0c0.05,-0.12 0.07,-0.18 0.04,-0.33l0.45 -0 0 0.33zm-0.55 -0.77l0.55 0 0 0.22 -0.55 -0c-0.1,-0.01 -0.11,-0.1 -0.33,-0.11 -0.39,-0.01 -0.92,-0 -1.32,-0l0 -0.11 1.65 -0zm-2.92 1.1c0.03,-0.06 0.46,-0.47 0.54,-0.55 0.17,-0.17 0.17,-0.22 0.31,-0.22l1.62 0c0.09,-0 0.17,-0.01 0.23,0.04 0.14,0.1 0.17,0.4 -0.21,0.4 -0.18,-0 -0.37,0 -0.55,-0 -0.09,-0 -0.19,-0.01 -0.23,0.05 -0.05,0.07 -0,0.14 0.05,0.16 0.06,0.02 1.37,0.01 1.62,0.01 0.3,0 0.22,-0 0.38,-0.16l1.08 -1.08c0.07,-0.07 0.18,-0.23 0.34,-0.19 0.12,0.03 0.24,0.21 0.02,0.4l-0.46 0.49c-0.1,0.09 -0.36,0.39 -0.46,0.49 -0.02,0.02 -0.04,0.04 -0.06,0.06l-0.66 0.7c-0.03,0.03 -0.04,0.04 -0.07,0.07 -0.1,0.12 -0.05,0.09 -0.31,0.09 -0.43,-0 -0.94,-0.02 -1.35,-0 -0.16,0.01 -0.41,0.4 -0.58,0.5l-1.26 -1.27zm2.92 -1.54l0.55 0 0 0.22 -0.55 0 -1.65 0 0 -0.22 1.65 0zm-0.66 -2.52c0.64,-0.07 1.14,0.42 1.2,0.97 0.07,0.64 -0.41,1.15 -0.98,1.21 -0.64,0.07 -1.15,-0.41 -1.21,-0.98 -0.07,-0.65 0.41,-1.14 0.98,-1.21zm-1.21 1.04c0,0.34 0.06,0.58 0.25,0.83 0.18,0.24 0.28,0.29 0.49,0.41l0.03 0.02c-0.15,0 -0.29,0 -0.44,0 -0.4,0 -0.33,-0.09 -0.33,0.77 -0.48,0 -0.31,-0.06 -0.78,0.4l-0.43 0.42c-0.15,-0.1 -0.16,-0.27 -0.35,-0.08l-0.66 0.66c-0.16,0.16 -0.09,0.18 0.14,0.41 0.09,0.09 0.16,0.16 0.25,0.25l1.36 1.36c0.17,0.17 0.18,0.12 0.39,-0.1 0.08,-0.08 0.14,-0.14 0.22,-0.22 0.08,-0.08 0.14,-0.14 0.22,-0.22 0.08,-0.08 0.2,-0.17 0.2,-0.24 0,-0.09 -0.12,-0.16 -0.16,-0.22 0.02,-0.03 0.4,-0.42 0.42,-0.43 0.14,-0.08 1.57,0.05 1.68,-0.04 0.03,-0.02 0.07,-0.07 0.1,-0.1 0.02,-0.02 0.04,-0.03 0.05,-0.06 0.13,-0.16 0.35,-0.36 0.47,-0.5l0.47 -0.49c0.17,-0.2 0.37,-0.39 0.52,-0.56l0.26 -0.28c0.41,-0.41 -0.18,-0.95 -0.55,-0.65 -0.06,0.05 -0.12,0.12 -0.17,0.17 -0.13,0.13 -0.95,0.96 -1.01,1.01 0,-0.34 -0,-0.68 0,-1.02 0,-0.26 0,-0.25 -0.26,-0.25 -0.17,0 -0.34,0 -0.51,0 0.02,-0.02 0,-0.01 0.03,-0.02l0.12 -0.06c0.15,-0.09 0.26,-0.2 0.37,-0.34 0.28,-0.37 0.34,-0.92 0.13,-1.34 -0.05,-0.1 -0.11,-0.2 -0.18,-0.28 -0.14,-0.16 -0.23,-0.24 -0.44,-0.34 -0.45,-0.23 -1.07,-0.15 -1.42,0.18l-0.09 0.08c-0.03,0.03 -0.04,0.05 -0.07,0.08 -0.08,0.08 -0.14,0.19 -0.19,0.29 -0.06,0.13 -0.12,0.32 -0.12,0.51z"/>
   <path class="fil1" d="M1.26 4.29l1.26 1.27c0.17,-0.1 0.42,-0.5 0.58,-0.5 0.41,-0.02 0.92,0 1.35,0 0.26,0 0.21,0.03 0.31,-0.09 0.03,-0.03 0.04,-0.04 0.07,-0.07l0.66 -0.7c0.02,-0.02 0.04,-0.04 0.06,-0.06 0.1,-0.1 0.36,-0.4 0.46,-0.49l0.46 -0.49c0.22,-0.2 0.1,-0.37 -0.02,-0.4 -0.16,-0.04 -0.27,0.12 -0.34,0.19l-1.08 1.08c-0.15,0.15 -0.08,0.16 -0.38,0.16 -0.25,-0 -1.56,0.01 -1.62,-0.01 -0.06,-0.02 -0.1,-0.1 -0.05,-0.16 0.04,-0.06 0.14,-0.05 0.23,-0.05 0.18,0 0.37,-0 0.55,0 0.38,0 0.34,-0.3 0.21,-0.4 -0.07,-0.05 -0.15,-0.04 -0.23,-0.04l-1.62 -0c-0.14,-0 -0.14,0.05 -0.31,0.22 -0.08,0.08 -0.51,0.49 -0.54,0.55z"/>
   <path class="fil2" d="M3.52 0.77c0,-0.1 -0.01,-0.22 0.11,-0.22 0.12,0 0.11,0.11 0.11,0.22 0.11,0 0.28,-0.03 0.32,0.07 0.06,0.14 -0.1,0.15 -0.21,0.15 -0.07,-0 -0.32,-0.01 -0.37,0.01 -0.1,0.04 -0.08,0.19 0.04,0.21 0.13,0.01 0.24,-0.02 0.36,0.03 0.3,0.13 0.25,0.61 -0.14,0.63 0,0.1 0.01,0.22 -0.11,0.22 -0.12,0 -0.11,-0.11 -0.11,-0.22 -0.11,0 -0.28,0.03 -0.32,-0.07 -0.11,-0.25 0.45,-0.11 0.58,-0.16 0.1,-0.04 0.08,-0.19 -0.04,-0.21 -0.13,-0.01 -0.24,0.02 -0.36,-0.03 -0.3,-0.13 -0.25,-0.61 0.14,-0.63zm-0 -0.54c-0.57,0.06 -1.05,0.56 -0.98,1.21 0.06,0.57 0.57,1.05 1.21,0.98 0.57,-0.06 1.04,-0.57 0.98,-1.21 -0.06,-0.56 -0.57,-1.04 -1.2,-0.97z"/>
   <path class="fil3" d="M0.27 4.83l1.71 1.72c0.05,-0.03 0.58,-0.56 0.61,-0.61 -0.03,-0.06 -1.66,-1.68 -1.71,-1.71l-0.61 0.6z"/>
   <path class="fil0" d="M3.52 0.77c-0.39,0.02 -0.44,0.5 -0.14,0.63 0.12,0.05 0.23,0.02 0.36,0.03 0.13,0.01 0.14,0.16 0.04,0.21 -0.13,0.06 -0.69,-0.08 -0.58,0.16 0.04,0.09 0.21,0.07 0.32,0.07 0,0.1 -0.01,0.22 0.11,0.22 0.12,-0 0.11,-0.12 0.11,-0.22 0.39,-0.02 0.44,-0.5 0.14,-0.63 -0.12,-0.05 -0.23,-0.02 -0.36,-0.03 -0.13,-0.01 -0.14,-0.16 -0.04,-0.21 0.05,-0.02 0.3,-0.01 0.37,-0.01 0.1,0 0.27,-0.01 0.21,-0.15 -0.04,-0.1 -0.21,-0.07 -0.32,-0.07 0,-0.1 0.01,-0.22 -0.11,-0.22 -0.12,-0 -0.11,0.11 -0.11,0.22z"/>
   <polygon class="fil2" points="4.18,2.97 4.18,2.75 2.53,2.75 2.53,2.97 "/>
   <path class="fil2" d="M4.18 3.41l0 -0.22 -1.65 0 0 0.11c0.4,0 0.94,-0.01 1.32,0 0.22,0.01 0.23,0.1 0.33,0.11z"/>
   <path class="fil4" d="M4.24 3.96l0.5 0 0 -0.33 -0.45 0c0.02,0.15 0.01,0.21 -0.04,0.33z"/>
   <polygon class="fil4" points="4.18,2.97 4.73,2.97 4.73,2.75 4.18,2.75 "/>
   <polygon class="fil4" points="4.18,3.41 4.73,3.41 4.73,3.19 4.18,3.19 "/>
  </g>
 </g>
</svg>
