<?xml version="1.0" encoding="UTF-8"?>
<!DOCTYPE svg PUBLIC "-//W3C//DTD SVG 1.1//EN" "http://www.w3.org/Graphics/SVG/1.1/DTD/svg11.dtd">
<!-- Creator: CorelDRAW 2020 (64-Bit) -->
<svg xmlns="http://www.w3.org/2000/svg" xml:space="preserve" width="74.3529mm" height="74.3524mm" version="1.1" style="shape-rendering:geometricPrecision; text-rendering:geometricPrecision; image-rendering:optimizeQuality; fill-rule:evenodd; clip-rule:evenodd"
viewBox="0 0 22.12 22.12"
 xmlns:xlink="http://www.w3.org/1999/xlink"
 xmlns:xodm="http://www.corel.com/coreldraw/odm/2003">
 <defs>
  <style type="text/css">
   <![CDATA[
    .fil0 {fill:black}
    .fil3 {fill:#3E8BC5}
    .fil1 {fill:#4397D0}
    .fil8 {fill:#654913}
    .fil7 {fill:#794830}
    .fil5 {fill:#88B337}
    .fil4 {fill:#DC4B3C}
    .fil6 {fill:#FDB62F}
    .fil2 {fill:#FDB681}
   ]]>
  </style>
 </defs>
 <g id="Capa_x0020_1">
  <metadata id="CorelCorpID_0Corel-Layer"/>
  <g id="_1703394948544">
   <path class="fil0" d="M15.49 18.43l5.72 -0 0.17 0 -0 2.95 -5.89 0 -0 -0.17 0 -2.78zm-12.37 -4.91c0.16,-0.16 0.88,-0.37 1.16,-0.48 0.39,-0.16 0.78,-0.3 1.18,-0.46 0.4,-0.16 0.78,-0.3 1.19,-0.46 0.64,-0.25 0.7,-0.34 1.31,-0.34l4.93 0c0.51,-0 0.76,-0.15 1.14,0.52 -0.34,0.2 -1.12,0.45 -1.53,0.61 -0.5,0.19 -0.99,0.39 -1.5,0.58 -1.01,0.38 -1.99,0.78 -2.99,1.15 -0.51,0.19 -1,0.39 -1.53,0.59 -0.92,0.35 -2.26,1.18 -2.78,-0.22 -0.19,-0.51 -0.39,-1 -0.57,-1.49zm-0.66 -1.73l2.95 0.02 -2.57 0.98 -0.37 -1zm15.97 -4.64l0.01 -0.95 0.35 0.84 0.8 2.09c0.23,0.9 -0.63,1.44 -1.3,1.52 0.23,-0.7 0.17,-2.65 0.13,-3.51zm-14.06 3.91c-0.62,0 -1.24,0 -1.86,0 -1.67,0 -1.77,-0.32 -1.77,-1.94 0,-0.6 0,-1.21 0,-1.81 0,-0.73 -0.04,-5.06 0.01,-5.57 0.04,-0.47 0.43,-0.95 0.87,-0.94 0.16,-0.13 12.67,-0.06 14.33,-0.06 0.97,-0 1.76,-0.03 1.75,1.42 -0,0.53 -0,1.07 -0,1.6 0,1.22 0.06,5.51 -0.02,6.36 -0.2,-0.1 -0.92,-0.87 -1.14,-1.09 -0.51,-0.51 -2.26,-2.39 -2.77,-2.63 -1.47,-0.69 -3.14,0.58 -2.77,2.21 0.16,0.7 0.54,0.93 0.86,1.31l1.02 1.14 -8.51 -0zm14.46 0.2c1.07,-0.29 1.91,-1.27 1.37,-2.63 -0.15,-0.39 -1.14,-2.89 -1.17,-3.08 0.29,0.39 1.21,1.16 1.36,1.37 0.93,1.21 1,1.8 1,3.54 0,0.55 0.04,6.88 -0.02,7.24l-6.03 -0.01c-0.56,-0.59 -0.91,-1.96 -0.87,-2.87 0.02,-0.56 0.14,-1.06 0.33,-1.53 0.33,-0.81 0.51,-0.64 0.02,-1.23l-2.7 -2.92c-1.02,-1.19 -0.08,-2.13 0.67,-2.2 0.7,-0.06 0.95,0.34 1.25,0.63l3.72 3.72c0.32,0.32 0.61,0.61 0.93,0.93 0.23,0.23 0.77,0.71 0.92,0.94 0.2,-0.08 0.43,-0.36 0.56,-0.51 -0.13,-0.12 -1.24,-1.18 -1.33,-1.38zm-18.82 -9.57l0 8.34c0,0.84 0.63,1.5 1.29,1.69 0.31,0.09 0.33,-0 0.44,0.29 0.24,0.62 1.23,3.36 1.51,3.76 0.21,0.3 0.46,0.52 0.84,0.67 0.82,0.32 1.51,-0.05 2.31,-0.37l7.65 -2.94c-0.21,0.88 -0.4,1.04 -0.31,2.25 0.16,2 1,2.44 1,3.02l-0 3.33c0.01,0.12 0.03,0.19 0.09,0.26 0.04,0.05 0.13,0.13 0.21,0.13l6.74 0c0.21,0 0.35,-0.14 0.35,-0.35l0 -12.4c0,-1.21 -0.64,-2.44 -1.39,-3.19l-1.86 -1.86c-0.64,-0.64 -0.43,-0.39 -0.42,-2.34 0,-0.65 -0.19,-1.08 -0.52,-1.42l-0.07 -0.06c-0.3,-0.28 -0.69,-0.5 -1.14,-0.5l-15.03 0c-0.43,0 -0.93,0.3 -1.16,0.53 -0.22,0.22 -0.53,0.72 -0.53,1.16z"/>
   <path class="fil1" d="M1.86 8.48l1.45 0.01 0 0.73 -1.48 0 0.02 -0.74zm4.41 -2.21l1.47 -0 0 0.74 -1.47 -0 0 -0.73zm-2.21 -0l1.47 0 0 0.74 -1.47 0 0.01 -0.74zm-2.21 -0l1.47 0.01 0 0.73 -1.47 0 0 -0.74zm0.38 -4.76c0.33,-0.08 1.37,-0.03 1.79,-0.03 1.44,0 1.14,1.22 1.14,2.54 -0,1.45 -1.18,1.15 -2.57,1.14 -1.43,-0 -1.12,-1.28 -1.12,-2.57 0,-0.62 0.23,-0.96 0.75,-1.08zm8.83 0.34l0.74 0 0 1.1 -0.74 0 -0 -1.1zm-6.7 9.22c0.11,-0.19 3.97,-4.03 4.12,-4.11l0 -0.68 0.67 -0 3.38 -3.38 0 -1.04 0.73 -0.02c0.06,0.07 0.11,0.19 0.07,0.23l1.26 -1.28c-0.95,-0.09 -2.29,-0.01 -3.28,-0.01l-9.7 0.02c-0.44,-0.01 -0.83,0.47 -0.87,0.94 -0.05,0.5 -0.01,4.84 -0.01,5.57 0,0.6 0,1.21 0,1.81 0,1.63 0.1,1.94 1.77,1.94 0.62,-0 1.24,0 1.86,-0z"/>
   <path class="fil2" d="M18.82 11.26c0.1,0.2 1.2,1.26 1.33,1.38 -0.13,0.15 -0.36,0.43 -0.56,0.51 -0.15,-0.22 -0.69,-0.71 -0.92,-0.94 -0.32,-0.32 -0.61,-0.61 -0.93,-0.93l-3.72 -3.72c-0.29,-0.29 -0.55,-0.69 -1.25,-0.63 -0.74,0.06 -1.68,1.01 -0.67,2.2l2.7 2.92c0.49,0.59 0.31,0.42 -0.02,1.23 -0.19,0.48 -0.31,0.97 -0.33,1.53 -0.04,0.91 0.32,2.28 0.87,2.87l6.03 0.01c0.06,-0.36 0.02,-6.7 0.02,-7.24 0,-1.74 -0.07,-2.33 -1,-3.54 -0.16,-0.2 -1.07,-0.98 -1.36,-1.37 0.03,0.19 1.01,2.69 1.17,3.08 0.54,1.37 -0.29,2.34 -1.37,2.63z"/>
   <path class="fil3" d="M8.49 8.48l1.46 0.02 0 0.68c-0.19,0.08 -1.22,0.06 -1.47,0.02l0.01 -0.72zm7 -6.64l0.73 0 0 1.1 -0.73 0 -0 -1.1zm-1.47 0l0.73 -0 0 1.1 -0.57 0 -0.16 -0.02 -0 -1.08zm-0.74 -0.02l0 1.12c-0.07,0 -0.68,0.03 -0.71,-0.04 -0.01,-0.01 -0.02,-0.01 -0.03,-0.02l-3.38 3.38 0.79 0 0 0.74c-0.29,0 -1.31,0.08 -1.47,-0.05 -0.15,0.08 -4,3.92 -4.12,4.11l8.51 0 -1.02 -1.14c-0.32,-0.37 -0.7,-0.61 -0.86,-1.31 -0.37,-1.62 1.3,-2.9 2.77,-2.21 0.51,0.24 2.26,2.12 2.77,2.63 0.22,0.22 0.94,0.99 1.14,1.09 0.08,-0.86 0.02,-5.14 0.02,-6.36 0,-0.53 -0,-1.07 0,-1.6 0,-1.45 -0.79,-1.42 -1.75,-1.42 -1.66,0 -14.17,-0.07 -14.33,0.06l9.7 -0.02c0.99,0 2.33,-0.08 3.28,0.01l-1.26 1.28c0.04,-0.04 -0.01,-0.16 -0.07,-0.23z"/>
   <path class="fil4" d="M3.12 13.52c0.18,0.5 0.38,0.99 0.57,1.49 0.53,1.4 1.86,0.58 2.78,0.22 0.52,-0.2 1.02,-0.4 1.53,-0.59 1,-0.38 1.99,-0.78 2.99,-1.15 0.51,-0.19 1,-0.38 1.5,-0.58 0.41,-0.16 1.19,-0.41 1.53,-0.61 -0.38,-0.67 -0.63,-0.52 -1.14,-0.52l-4.93 -0c-0.61,-0 -0.67,0.08 -1.31,0.34 -0.4,0.16 -0.78,0.3 -1.19,0.46 -0.4,0.16 -0.79,0.3 -1.18,0.46 -0.27,0.11 -1,0.32 -1.16,0.48z"/>
   <path class="fil5" d="M16.22 19.17l0.74 0.02 -0.01 0.71 -0.74 -0.01 -0 -0.72zm-0.74 2.04l0 0.17 5.89 -0 0 -2.95 -0.17 -0 -5.72 0 -0 2.78z"/>
   <path class="fil0" d="M4.41 2.93c-0.16,0.08 -0.49,0.04 -0.71,0.04l0 0.68c0.23,0 0.52,-0.04 0.74,0.04l0.01 0.46 -0.06 0.11c-0.09,0.26 -0.43,0.16 -0.98,0.16 -1.07,0 -1.3,0.18 -1.19,-0.73l0.73 -0 -0.02 -0.74 -0.72 -0.01c0,-0.92 -0,-0.73 1.16,-0.73 0.93,0 1.14,-0.16 1.04,0.71zm-2.18 -1.42c-0.52,0.13 -0.75,0.46 -0.75,1.08 -0,1.29 -0.31,2.57 1.12,2.57 1.39,0 2.57,0.3 2.57,-1.14 0,-1.32 0.3,-2.54 -1.14,-2.54 -0.42,-0 -1.46,-0.05 -1.79,0.03z"/>
   <path class="fil6" d="M4.4 4.26l0.01 -0.56 -0.71 -0.01c-0.07,-0.21 -0.04,-0.52 -0.02,-0.76l0.73 -0c0.1,-0.87 -0.11,-0.71 -1.04,-0.71 -1.16,0 -1.16,-0.2 -1.16,0.73l0.72 0.01 0.02 0.74 -0.73 0c-0.11,0.92 0.12,0.73 1.19,0.73 0.56,0 0.9,0.09 0.98,-0.16z"/>
   <path class="fil4" d="M18.43 7.15c0.03,0.86 0.09,2.81 -0.13,3.51 0.66,-0.09 1.52,-0.62 1.3,-1.52l-0.8 -2.09 -0.37 0.11z"/>
   <polygon class="fil7" points="2.83,12.79 5.41,11.82 2.46,11.8 "/>
   <path class="fil0" d="M8.48 6.95c0.17,0.13 1.18,0.05 1.47,0.05l-0 -0.74 -0.79 -0 -0.67 0 -0 0.68z"/>
   <polygon class="fil0" points="4.06,7 5.53,7 5.53,6.27 4.06,6.27 "/>
   <polygon class="fil0" points="6.27,7 7.74,7 7.74,6.27 6.27,6.27 "/>
   <polygon class="fil0" points="1.84,7 3.32,7 3.32,6.28 1.85,6.27 "/>
   <polygon class="fil0" points="1.84,9.22 3.32,9.21 3.31,8.49 1.86,8.48 "/>
   <path class="fil0" d="M8.48 9.2c0.25,0.04 1.28,0.06 1.47,-0.02l-0 -0.68 -1.46 -0.02 -0.01 0.72z"/>
   <polygon class="fil0" points="11.06,2.95 11.8,2.95 11.8,1.84 11.06,1.84 "/>
   <path class="fil0" d="M12.54 2.89c0.01,0.01 0.02,0 0.03,0.02 0.03,0.06 0.64,0.04 0.71,0.04l-0 -1.12 -0.73 0.02 -0 1.04z"/>
   <polygon class="fil0" points="15.49,2.95 16.22,2.95 16.22,1.85 15.49,1.85 "/>
   <polygon class="fil0" points="14.01,2.93 14.17,2.95 14.74,2.95 14.74,1.85 14.01,1.85 "/>
   <polygon class="fil0" points="16.22,19.89 16.96,19.91 16.96,19.19 16.22,19.17 "/>
   <polygon class="fil7" points="18.43,7.15 18.79,7.05 18.44,6.21 "/>
   <path class="fil8" d="M4.4 4.26l0.06 -0.11 -0.01 -0.46c-0.22,-0.08 -0.51,-0.04 -0.74,-0.04l0 -0.68c0.21,0 0.54,0.05 0.71,-0.04l-0.73 0c-0.02,0.24 -0.05,0.55 0.02,0.76l0.71 0.01 -0.01 0.56z"/>
  </g>
 </g>
</svg>
