<?xml version="1.0" encoding="UTF-8"?>
<!DOCTYPE svg PUBLIC "-//W3C//DTD SVG 1.1//EN" "http://www.w3.org/Graphics/SVG/1.1/DTD/svg11.dtd">
<!-- Creator: CorelDRAW 2020 (64-Bit) -->
<svg xmlns="http://www.w3.org/2000/svg" xml:space="preserve" width="19.5721mm" height="19.5723mm" version="1.1" style="shape-rendering:geometricPrecision; text-rendering:geometricPrecision; image-rendering:optimizeQuality; fill-rule:evenodd; clip-rule:evenodd"
viewBox="0 0 4.2 4.2"
 xmlns:xlink="http://www.w3.org/1999/xlink"
 xmlns:xodm="http://www.corel.com/coreldraw/odm/2003">
 <defs>
  <style type="text/css">
   <![CDATA[
    .fil1 {fill:black}
    .fil4 {fill:#18CE0F}
    .fil5 {fill:#C7C700}
    .fil0 {fill:#EBECF1}
    .fil6 {fill:#F1F1F1}
    .fil3 {fill:#FEFEFE}
    .fil2 {fill:yellow}
    .fil7 {fill:white}
   ]]>
  </style>
 </defs>
 <g id="Capa_x0020_1">
  <metadata id="CorelCorpID_0Corel-Layer"/>
  <circle class="fil0" cx="2.1" cy="2.1" r="2.1"/>
  <g id="_2729857908784">
   <path class="fil1" d="M2.21 3.14c0.04,-0.01 0.06,-0.03 0.09,-0.04 0.13,-0.1 0.13,0.02 0.32,-0.03 0.07,-0.02 0.13,-0.06 0.16,-0.1 0.04,-0.05 0.05,-0.11 0.13,-0.12 0.05,0.05 0.19,0.2 0.23,0.25 0.02,0.02 0.04,0.04 0.06,0.06l0.12 0.13c0.02,0.02 0.03,0.04 0.05,0.06 -0.07,-0.01 -0.18,-0.04 -0.26,-0.05 -0.42,-0.09 -0.37,-0.12 -0.44,0.04 -0.03,0.07 -0.07,0.15 -0.09,0.22 -0.02,-0.01 -0.07,-0.08 -0.1,-0.1 -0.02,-0.02 -0.03,-0.03 -0.05,-0.05l-0.14 -0.16c-0.02,-0.03 -0.07,-0.08 -0.09,-0.1zm-1.38 0.2c0.07,-0.08 0.41,-0.46 0.46,-0.5 0.08,0.01 0.09,0.07 0.13,0.13 0.06,0.07 0.17,0.12 0.28,0.11 0.11,-0.01 0.1,-0.05 0.2,0.02 0.03,0.02 0.05,0.03 0.07,0.04 0.02,0.01 0.01,0 0.02,0.01l-0.36 0.4c-0.02,-0.02 -0.08,-0.17 -0.1,-0.22 -0.05,-0.12 -0.04,-0.13 -0.18,-0.1l-0.52 0.11zm1.25 -2.93c0.12,-0.01 0.16,0.07 0.24,0.09 0.11,0.04 0.17,-0.04 0.29,0.01 0.1,0.04 0.1,0.13 0.17,0.18 0.09,0.06 0.16,0.03 0.24,0.1 0.1,0.08 0.05,0.14 0.1,0.24 0.05,0.09 0.12,0.09 0.17,0.16 0.08,0.12 0.01,0.17 0.02,0.28 0.01,0.11 0.09,0.12 0.1,0.23 0.01,0.13 -0.07,0.16 -0.09,0.25 -0.04,0.11 0.04,0.17 -0.01,0.29 -0.04,0.1 -0.13,0.1 -0.18,0.17 -0.06,0.09 -0.03,0.16 -0.1,0.24 -0.08,0.1 -0.14,0.05 -0.24,0.1 -0.09,0.05 -0.09,0.12 -0.16,0.17 -0.12,0.08 -0.17,0.01 -0.28,0.02 -0.11,0.01 -0.13,0.09 -0.24,0.1 -0.13,0.01 -0.15,-0.06 -0.24,-0.09 -0.11,-0.04 -0.17,0.04 -0.29,-0.01 -0.1,-0.04 -0.1,-0.13 -0.17,-0.18 -0.08,-0.06 -0.17,-0.04 -0.24,-0.1 -0.1,-0.08 -0.05,-0.14 -0.1,-0.24 -0.05,-0.09 -0.12,-0.09 -0.17,-0.16 -0.08,-0.12 -0.01,-0.17 -0.02,-0.28 -0.01,-0.11 -0.09,-0.12 -0.1,-0.23 -0.01,-0.13 0.07,-0.16 0.09,-0.25 0.04,-0.11 -0.04,-0.17 0.01,-0.29 0.04,-0.1 0.13,-0.1 0.18,-0.17 0.06,-0.09 0.03,-0.16 0.1,-0.24 0.08,-0.1 0.14,-0.05 0.24,-0.1 0.09,-0.05 0.09,-0.12 0.16,-0.17 0.12,-0.08 0.17,-0.01 0.28,-0.02 0.11,-0.01 0.12,-0.09 0.24,-0.1zm-0.26 -0.01c-0.09,0 -0.18,-0.07 -0.33,0.04 -0.02,0.01 -0.04,0.03 -0.06,0.05 -0.13,0.17 -0.03,0.09 -0.2,0.14 -0.12,0.04 -0.19,0.11 -0.23,0.23 -0.02,0.07 -0.01,0.11 -0.08,0.15 -0.25,0.14 -0.15,0.37 -0.15,0.44 0,0.08 -0.1,0.08 -0.1,0.3 0,0.13 0.1,0.18 0.1,0.26 0,0.07 -0.07,0.18 0.05,0.34 0.05,0.06 0.13,0.09 0.14,0.12 0.02,0.04 0.03,0.13 0.06,0.2 0.03,0.06 0.08,0.1 0.14,0.13 -0.04,0.06 -0.1,0.1 -0.14,0.16l-0.39 0.43c-0.04,0.04 -0.04,0.1 0.03,0.1 0.04,0 0.06,-0.01 0.09,-0.02 0.11,-0.02 0.57,-0.13 0.65,-0.13 0,0.03 0.03,0.07 0.04,0.1 0.02,0.04 0.03,0.07 0.04,0.1 0.04,0.09 0.07,0.25 0.18,0.12 0.01,-0.02 0.01,-0.02 0.03,-0.03 0.01,-0.01 0.02,-0.02 0.03,-0.03 0.01,-0.01 0.01,-0.02 0.03,-0.03l0.09 -0.1c0.06,-0.07 0.11,-0.14 0.18,-0.2 0.03,-0.03 0.04,-0.05 0.06,-0.07 0.03,0.02 0.34,0.37 0.36,0.4 0.16,0.19 0.16,0.15 0.25,-0.05 0.02,-0.04 0.03,-0.06 0.04,-0.1 0.02,-0.04 0.03,-0.07 0.04,-0.1 0.06,0 0.55,0.11 0.64,0.13 0.07,0.02 0.15,0.05 0.15,-0.05 0,-0.01 -0.11,-0.14 -0.13,-0.16l-0.07 -0.08c-0.04,-0.05 -0.11,-0.11 -0.14,-0.15 -0.04,-0.05 -0.18,-0.18 -0.21,-0.23 0.09,-0.05 0.15,-0.12 0.17,-0.22 0.03,-0.13 0,-0.09 0.11,-0.16 0.03,-0.02 0.05,-0.04 0.07,-0.07 0.15,-0.2 -0.01,-0.31 0.08,-0.41 0.09,-0.12 0.11,-0.27 0.02,-0.4 -0.01,-0.01 -0.01,-0.01 -0.02,-0.03 -0.03,-0.04 -0.02,-0.08 -0.01,-0.13 0.04,-0.15 -0.04,-0.29 -0.17,-0.37 -0.1,-0.06 -0.03,-0.17 -0.16,-0.3 -0.12,-0.12 -0.24,-0.06 -0.3,-0.16 -0.15,-0.26 -0.36,-0.16 -0.44,-0.16 -0.02,0 -0.05,-0.01 -0.06,-0.02 -0.01,-0.01 -0.01,-0.01 -0.02,-0.02 -0.1,-0.07 -0.25,-0.08 -0.36,-0.02 -0.04,0.02 -0.07,0.06 -0.12,0.06z"/>
   <path class="fil2" d="M2 0.64c0.44,-0.04 0.88,0.2 1.07,0.57 0.37,0.72 -0.09,1.55 -0.86,1.62 -0.64,0.06 -1.14,-0.42 -1.2,-0.99 -0.06,-0.64 0.42,-1.14 0.99,-1.2zm0.08 -0.22c-0.11,0.01 -0.13,0.09 -0.24,0.1 -0.11,0.01 -0.17,-0.06 -0.28,0.02 -0.07,0.05 -0.08,0.13 -0.16,0.17 -0.1,0.05 -0.16,0.01 -0.24,0.1 -0.06,0.08 -0.04,0.15 -0.1,0.24 -0.05,0.07 -0.13,0.07 -0.18,0.17 -0.05,0.12 0.03,0.18 -0.01,0.29 -0.03,0.09 -0.11,0.12 -0.09,0.25 0.01,0.11 0.09,0.12 0.1,0.23 0.01,0.11 -0.06,0.17 0.02,0.28 0.05,0.07 0.13,0.08 0.17,0.16 0.06,0.1 0.01,0.15 0.1,0.24 0.07,0.06 0.16,0.04 0.24,0.1 0.07,0.05 0.07,0.13 0.17,0.18 0.12,0.05 0.18,-0.03 0.29,0.01 0.09,0.03 0.12,0.11 0.24,0.09 0.11,-0.01 0.13,-0.09 0.24,-0.1 0.11,-0.01 0.17,0.06 0.28,-0.02 0.07,-0.05 0.08,-0.13 0.16,-0.17 0.1,-0.05 0.16,-0.01 0.24,-0.1 0.06,-0.08 0.04,-0.15 0.1,-0.24 0.04,-0.07 0.13,-0.07 0.18,-0.17 0.05,-0.12 -0.03,-0.18 0.01,-0.29 0.03,-0.09 0.11,-0.12 0.09,-0.25 -0.01,-0.11 -0.09,-0.12 -0.1,-0.23 -0.01,-0.11 0.06,-0.17 -0.02,-0.28 -0.05,-0.07 -0.13,-0.08 -0.17,-0.16 -0.05,-0.1 -0.01,-0.16 -0.1,-0.24 -0.08,-0.06 -0.15,-0.04 -0.24,-0.1 -0.07,-0.05 -0.07,-0.14 -0.17,-0.18 -0.12,-0.05 -0.18,0.03 -0.29,-0.01 -0.09,-0.03 -0.12,-0.11 -0.24,-0.09z"/>
   <path class="fil3" d="M2.87 1.4c-0.04,0.48 -0.29,0.91 -0.69,1.17 -0.06,0.04 -0.08,0.05 -0.14,0.01 -0.06,-0.04 -0.19,-0.13 -0.23,-0.18l-0.19 -0.22c-0.12,-0.16 -0.21,-0.37 -0.25,-0.57 -0.09,-0.45 -0.01,-0.35 0.17,-0.39 0.16,-0.03 0.29,-0.1 0.4,-0.21 0.12,-0.12 0.14,-0.21 0.22,-0.12 0.03,0.04 0.06,0.08 0.1,0.11 0.04,0.03 0.04,0.05 0.11,0.1 0.39,0.27 0.53,-0.01 0.5,0.31zm-0.35 1.22l0.1 -0.08c0.08,-0.07 0.17,-0.18 0.23,-0.28 0.18,-0.32 0.18,-0.75 0,-1.07 -0.05,-0.1 -0.15,-0.22 -0.22,-0.28 -0.03,-0.02 -0.07,-0.05 -0.1,-0.08 -0.03,-0.03 -0.17,-0.07 -0.23,-0.08 -0.1,-0.02 -0.19,-0.02 -0.29,-0.01 -0.91,0.09 -1.23,1.27 -0.46,1.8 0.21,0.14 0.48,0.21 0.75,0.15 0.05,-0.01 0.2,-0.05 0.23,-0.08z"/>
   <path class="fil4" d="M1.94 1.76c0.03,-0.02 0.27,-0.27 0.33,-0.32 0.02,-0.02 0.08,-0.1 0.12,-0.09 0.03,0.01 0.1,0.08 0.12,0.1 0.06,0.06 0.04,0.08 -0.01,0.13l-0.43 0.43c-0.13,0.13 -0.11,0.14 -0.24,0.01 -0.14,-0.14 -0.2,-0.16 -0.13,-0.24 0.02,-0.02 0.09,-0.1 0.11,-0.11 0.05,-0.02 0.09,0.06 0.13,0.08zm-0.49 -0.42c-0.02,0.07 0.04,0.31 0.06,0.37 0.1,0.3 0.32,0.62 0.59,0.77 0.08,-0.04 0.19,-0.14 0.25,-0.2 0.22,-0.23 0.37,-0.51 0.4,-0.84l0.01 -0.07c-0,-0.01 0,0 -0,-0.01 -0.01,-0.04 -0.09,-0.02 -0.21,-0.06 -0.06,-0.02 -0.12,-0.05 -0.18,-0.08 -0.06,-0.04 -0.09,-0.06 -0.14,-0.1 -0.03,-0.02 -0.04,-0.03 -0.06,-0.06 -0.02,-0.02 -0.04,-0.05 -0.06,-0.07 -0.02,0.02 -0.04,0.04 -0.06,0.06 -0.05,0.05 -0.15,0.13 -0.21,0.17 -0.11,0.07 -0.23,0.1 -0.38,0.12z"/>
   <path class="fil1" d="M2.52 2.63c-0.03,0.03 -0.18,0.07 -0.23,0.08 -0.26,0.05 -0.54,-0.01 -0.75,-0.15 -0.77,-0.53 -0.45,-1.71 0.46,-1.8 0.1,-0.01 0.19,-0 0.29,0.01 0.05,0.01 0.2,0.05 0.23,0.08 0.14,0.04 0.32,0.22 0.4,0.34 0.23,0.33 0.23,0.79 -0,1.11 -0.08,0.12 -0.26,0.29 -0.4,0.34zm-0.52 -1.99c-0.57,0.06 -1.05,0.55 -0.99,1.2 0.05,0.57 0.56,1.05 1.2,0.99 0.77,-0.07 1.24,-0.89 0.86,-1.62 -0.19,-0.37 -0.63,-0.61 -1.07,-0.57z"/>
   <path class="fil1" d="M1.45 1.35c0.15,-0.02 0.27,-0.05 0.38,-0.12 0.06,-0.04 0.16,-0.11 0.21,-0.17 0.02,-0.02 0.04,-0.05 0.06,-0.06 0.02,0.02 0.04,0.05 0.06,0.07 0.02,0.03 0.04,0.04 0.06,0.06 0.05,0.04 0.08,0.07 0.14,0.1 0.05,0.03 0.11,0.06 0.18,0.08 0.12,0.04 0.2,0.02 0.21,0.06 0,0.01 0,-0 0,0.01l-0.01 0.07c-0.04,0.33 -0.18,0.61 -0.4,0.84 -0.06,0.06 -0.16,0.16 -0.25,0.2 -0.27,-0.15 -0.49,-0.47 -0.59,-0.77 -0.02,-0.07 -0.08,-0.31 -0.06,-0.37zm1.42 0.06c0.03,-0.32 -0.11,-0.04 -0.5,-0.31 -0.07,-0.05 -0.07,-0.06 -0.11,-0.1 -0.04,-0.03 -0.06,-0.07 -0.1,-0.11 -0.08,-0.08 -0.1,0 -0.22,0.12 -0.11,0.11 -0.24,0.18 -0.4,0.21 -0.17,0.03 -0.26,-0.07 -0.17,0.39 0.04,0.2 0.14,0.41 0.25,0.57l0.19 0.22c0.04,0.05 0.17,0.14 0.23,0.18 0.06,0.04 0.08,0.03 0.14,-0.01 0.4,-0.26 0.65,-0.69 0.69,-1.17z"/>
   <path class="fil5" d="M0.83 3.34l0.52 -0.11c0.14,-0.03 0.13,-0.02 0.18,0.1 0.02,0.04 0.07,0.2 0.1,0.22l0.36 -0.4c-0.01,-0.01 -0,-0 -0.02,-0.01 -0.02,-0.01 -0.04,-0.01 -0.07,-0.04 -0.1,-0.08 -0.09,-0.03 -0.2,-0.02 -0.1,0.01 -0.22,-0.04 -0.28,-0.11 -0.04,-0.05 -0.05,-0.12 -0.13,-0.13 -0.05,0.04 -0.39,0.43 -0.46,0.5z"/>
   <path class="fil5" d="M2.21 3.14c0.01,0.03 0.07,0.08 0.09,0.1l0.14 0.16c0.02,0.02 0.03,0.03 0.05,0.05 0.02,0.02 0.07,0.09 0.1,0.1 0.03,-0.07 0.06,-0.15 0.09,-0.22 0.07,-0.16 0.02,-0.13 0.44,-0.04 0.07,0.02 0.19,0.05 0.26,0.05 -0.02,-0.02 -0.03,-0.04 -0.05,-0.06l-0.12 -0.13c-0.02,-0.02 -0.04,-0.04 -0.06,-0.06 -0.05,-0.05 -0.18,-0.21 -0.23,-0.25 -0.08,0.01 -0.09,0.07 -0.13,0.12 -0.03,0.04 -0.09,0.08 -0.16,0.1 -0.18,0.05 -0.18,-0.06 -0.32,0.03 -0.02,0.02 -0.05,0.03 -0.09,0.04z"/>
   <path class="fil1" d="M1.94 1.98l-0.14 -0.14 0.03 -0.03c0.05,0.03 0.09,0.13 0.16,0.06l0.26 -0.26c0.03,-0.03 0.1,-0.11 0.13,-0.13l0.03 0.03c-0.02,0.03 -0.45,0.46 -0.47,0.47zm0 -0.22c-0.03,-0.02 -0.08,-0.1 -0.13,-0.08 -0.02,0.01 -0.1,0.09 -0.11,0.11 -0.07,0.07 -0.01,0.1 0.13,0.24 0.13,0.13 0.11,0.12 0.24,-0.01l0.43 -0.43c0.05,-0.05 0.07,-0.07 0.01,-0.13 -0.02,-0.02 -0.09,-0.1 -0.12,-0.1 -0.04,-0.01 -0.1,0.07 -0.12,0.09 -0.06,0.06 -0.3,0.31 -0.33,0.32z"/>
   <path class="fil6" d="M2.52 2.63c0.14,-0.04 0.32,-0.22 0.4,-0.34 0.23,-0.33 0.23,-0.79 0,-1.11 -0.08,-0.12 -0.26,-0.29 -0.4,-0.34 0.03,0.03 0.07,0.06 0.1,0.08 0.08,0.06 0.17,0.18 0.22,0.28 0.18,0.32 0.18,0.75 0,1.07 -0.06,0.1 -0.14,0.21 -0.23,0.28l-0.1 0.08z"/>
   <path class="fil7" d="M1.94 1.98c0.02,-0.01 0.45,-0.44 0.47,-0.47l-0.03 -0.03c-0.03,0.02 -0.1,0.1 -0.13,0.13l-0.26 0.26c-0.07,0.07 -0.11,-0.03 -0.16,-0.06l-0.03 0.03 0.14 0.14z"/>
  </g>
 </g>
</svg>
