<?xml version="1.0" encoding="UTF-8"?>
<!DOCTYPE svg PUBLIC "-//W3C//DTD SVG 1.1//EN" "http://www.w3.org/Graphics/SVG/1.1/DTD/svg11.dtd">
<!-- Creator: CorelDRAW 2020 (64-Bit) -->
<svg xmlns="http://www.w3.org/2000/svg" xml:space="preserve" width="123.224mm" height="94.7931mm" version="1.1" style="shape-rendering:geometricPrecision; text-rendering:geometricPrecision; image-rendering:optimizeQuality; fill-rule:evenodd; clip-rule:evenodd"
viewBox="0 0 66.71 51.32"
 xmlns:xlink="http://www.w3.org/1999/xlink"
 xmlns:xodm="http://www.corel.com/coreldraw/odm/2003">
 <defs>
  <style type="text/css">
   <![CDATA[
    .fil1 {fill:#FF9933}
    .fil0 {fill:yellow}
   ]]>
  </style>
 </defs>
 <g id="Capa_x0020_1">
  <metadata id="CorelCorpID_0Corel-Layer"/>
  <rect class="fil0" x="-0" y="0" width="66.71" height="51.32" rx="4.88" ry="5.27"/>
  <path class="fil1" d="M43.98 35.79c-1.67,0 -3.55,-0.74 -4.7,-1.87 -1.07,-1.06 -2.13,-2.78 -2.13,-4.45 0,-1.47 -0.02,-2.18 0.64,-3.57 0.2,-0.42 0.36,-0.64 0.6,-1 0.25,-0.38 0.44,-0.53 0.76,-0.85 2.09,-2.09 5.26,-2.6 7.86,-1.33 0.39,0.19 0.68,0.39 1.05,0.64 1.33,0.92 2.3,2.52 2.64,4.1 0.92,4.27 -2.37,8.33 -6.72,8.33zm11.38 -7.4l0 1.07c-0.07,1.56 -0.45,3.1 -1.15,4.5 -0.31,0.61 -0.67,1.19 -1.06,1.72 -1.15,1.55 -2.8,2.92 -4.65,3.7 -0.95,0.4 -2.29,0.8 -3.34,0.87 -0.23,0.02 -0.41,-0 -0.65,0.03 -1.58,0.21 -3.78,-0.39 -5.22,-0.99 -1.13,-0.47 -2.5,-1.46 -3.3,-2.26 -0.48,-0.48 -0.9,-0.95 -1.29,-1.5 -0.19,-0.27 -0.39,-0.56 -0.56,-0.87l-0.45 -0.9c-1.49,-3.04 -1.43,-6.31 -0.16,-9.43 0.22,-0.55 0.55,-1.14 0.88,-1.65 0.59,-0.9 1.54,-1.98 2.36,-2.62 1.21,-0.95 3.52,-2.29 5.01,-2.32l0 -3.79c-0.88,0.59 -0.6,1.01 -2.19,1.01 -0.98,0 -2.02,-1.03 -2.02,-2.02l0 -0.42c0,-0.85 0.74,-1.54 1.2,-2l3.12 -3.12c2.48,-2.51 4.13,-0.21 5.78,1.43 1.11,1.11 2.63,2.27 2.63,3.6 0,0.85 -0.6,1.74 -1.46,2.08 -1.25,0.5 -1.92,-0.18 -2.5,-0.56l0 3.79c2.68,0.62 3.59,1.3 5.34,2.76l0.59 0.59c0.1,0.13 0.18,0.18 0.29,0.3 0.2,0.2 0.4,0.46 0.57,0.69 0.48,0.64 1.03,1.6 1.35,2.36 0.52,1.25 0.82,2.59 0.88,3.95z"/>
  <path class="fil1" d="M24 24.66c-2.45,0 -3.26,-0.35 -5.02,-1.72 -0.19,-0.14 -0.29,-0.24 -0.44,-0.41 -0.54,-0.58 -0.99,-1.32 -1.31,-2.06 -0.59,-1.4 -0.66,-2.89 -0.31,-4.33 0.3,-1.24 0.97,-2.35 1.83,-3.22 2.58,-2.59 7.02,-2.66 9.61,-0.04 1.59,1.6 2.45,3.91 1.97,6.23 -0.1,0.47 -0.21,0.88 -0.38,1.3 -0.35,0.87 -0.77,1.41 -1.3,2.07 -0.9,1.12 -3.03,2.18 -4.65,2.18zm-11.8 -7.42c0,2.04 0.11,3.18 0.88,5.02 0.41,0.98 1.25,2.37 1.92,3.05 0.24,0.24 0.33,0.43 0.55,0.63l0.68 0.59c1.09,0.98 3.77,2.4 5.08,2.42l0 3.54c-1.26,0 -2.34,-0.2 -3.16,0.8 -0.98,1.2 -0.78,3.75 2.4,3.75l0.76 0 0 0.93c0,1.11 0.96,2.19 2.02,2.19 0.75,0 1.41,-0.05 1.95,-0.74 0.62,-0.78 0.57,-1.45 0.57,-2.38 1.06,0 1.98,0.07 2.78,-0.5 0.25,-0.18 0.43,-0.41 0.59,-0.68 0.98,-1.72 -0.5,-3.37 -1.77,-3.37l-1.6 0 0 -3.54c1.44,-0.03 3.85,-1.43 4.99,-2.35 2.2,-1.78 4.12,-5.05 4.12,-8.36 0,-2.47 -0.18,-3.14 -1.06,-5.26 -0.68,-1.63 -2.23,-3.4 -3.66,-4.43 -1.59,-1.15 -3.92,-2.11 -5.99,-2.11 -2.9,0 -3.97,0.2 -6.46,1.55 -0.55,0.3 -1.1,0.71 -1.57,1.13 -0.28,0.25 -0.44,0.36 -0.72,0.63 -0.47,0.47 -1.43,1.66 -1.76,2.28 -0.1,0.19 -0.12,0.26 -0.23,0.44 -0.67,1.11 -1.31,3.2 -1.31,4.76z"/>
 </g>
</svg>
