<svg height="512" viewBox="0 0 64 64" width="512" xmlns="http://www.w3.org/2000/svg" xmlns:xlink="http://www.w3.org/1999/xlink"><linearGradient id="linear-gradient" gradientUnits="userSpaceOnUse" x1="32" x2="32" y1="25.6" y2="88.929"><stop offset="0" stop-color="#00c6ff"/><stop offset="1" stop-color="#0072ff"/></linearGradient><linearGradient id="linear-gradient-2" x1="30.1" x2="36.105" xlink:href="#linear-gradient" y1="-4.73" y2="122.695"/><linearGradient id="linear-gradient-3" gradientUnits="userSpaceOnUse" x1="32" x2="32" y1="17.278" y2="97.123"><stop offset="0" stop-color="#fff"/><stop offset="1" stop-color="#679fe4"/></linearGradient><linearGradient id="linear-gradient-4" x2="32" xlink:href="#linear-gradient" y1="-33.498" y2="-32.18"/><g id="Recording"><path d="m58.353 10h-52.706a5.658 5.658 0 0 0 -5.647 5.657v32.686a5.658 5.658 0 0 0 5.647 5.657h52.706a5.658 5.658 0 0 0 5.647-5.657v-32.686a5.658 5.658 0 0 0 -5.647-5.657z" fill="url(#linear-gradient)"/><path d="m.055 49.091a5.656 5.656 0 0 0 5.592 4.909h52.706a5.658 5.658 0 0 0 5.647-5.657v-25.085c-7.377 22.115-31.972 26.971-63.945 25.833z" fill="url(#linear-gradient-2)"/><g fill="#fff"><path d="m3.765 28.146a1 1 0 0 1 -1-1v-9.265a1 1 0 0 1 2 0v9.265a1 1 0 0 1 -1 1z"/><path d="m3.765 35.42a1 1 0 0 1 -1-1v-1.7a1 1 0 0 1 2 0v1.7a1 1 0 0 1 -1 1z"/><path d="m58.353 51.2h-4.6a1 1 0 1 1 0-2h4.6a.884.884 0 0 0 .882-.883v-4.617a1 1 0 1 1 2 0v4.609a2.886 2.886 0 0 1 -2.882 2.891z"/><path d="m60.235 38.7a1 1 0 0 1 -1-1v-1.013a1 1 0 0 1 2 0v1.013a1 1 0 0 1 -1 1z"/></g><path d="m43.294 25.725h-22.588a9.412 9.412 0 1 0 7.512 3.765h7.564a9.4 9.4 0 1 0 7.512-3.765zm-16.941 9.412a5.647 5.647 0 1 1 -5.647-5.647 5.653 5.653 0 0 1 5.647 5.647zm16.941 5.647a5.647 5.647 0 1 1 5.647-5.647 5.653 5.653 0 0 1 -5.647 5.647z" fill="url(#linear-gradient-3)"/><path d="m7.377 10 9.283 9.3a2.581 2.581 0 0 0 1.826.757h27.028a2.581 2.581 0 0 0 1.826-.757l9.283-9.3z" fill="url(#linear-gradient-4)"/></g></svg>