<svg height="512" viewBox="0 0 128 128" width="512" xmlns="http://www.w3.org/2000/svg"><g><path d="m117.38 119.1-11.02.01h-5.12l-13.17.01-5.4.01-20.55.02h-5.11l-25.41.02s-1.67-20.72 12.49-24.76h56.47s17.91 4.51 16.82 24.69z" fill="#525970"/><path d="m105.55 58.39c4.18 7.76 11.31 13.87 6.65 25.53 0 0-7.09 13.62-22.23 13.5h-37.5c-14.6 0-26.9-26.05-11.67-53.7.98-1.78 2.07-3.57 3.29-5.35a81.046 81.046 0 0 1 13.02-14.72 75.149 75.149 0 0 1 7.23-5.63c1.71-1.17 3.43-2.22 5.15-3.17a60.182 60.182 0 0 1 12.03-5.03 20.821 20.821 0 0 1 17.21 2.6l17.28 11.23c-11.71 13.16-14.09 21.65-12.86 28.29v.01a21.664 21.664 0 0 0 2.4 6.44z" fill="#4b5067"/><path d="m103.767 79.955c-1.02 11.25-12.41 11.06-28.85 10.91-16.45.15-27.83.34-28.86-10.91-.83-16.55 12-32.04 28.86-32.04s29.683 15.49 28.85 32.04z" fill="#c5c6ca"/><g><path d="m34.028 113.829-15.456-101.191a3.3 3.3 0 0 1 2.449-3.7 3.3 3.3 0 0 1 4.037 2.462l21.88 95.428z" fill="#ac5d2d"/><path d="m10.574 18.375 3.818 15.272s37.273-19.636 70.908 6.728c-7.635-12.711-38.362-34.546-74.726-22z" fill="#413e41"/></g><path d="m96.38 68.79a20.431 20.431 0 0 1 -6 14.46v12.04a5 5 0 0 1 -5 5h-20.93a5 5 0 0 1 -5-5v-12.04a20.464 20.464 0 0 1 -5.99-14.46c0-11.53 9.6-20.87 21.46-20.87s21.46 9.34 21.46 20.87z" fill="#eeeff4"/><g fill="#c5c6ca"><g><path d="m69.21 90.77v9.52h-3.5v-9.52a1.75 1.75 0 0 1 3.5 0z"/><path d="m76.67 90.77v9.52h-3.5v-9.52a1.75 1.75 0 0 1 3.5 0z"/><path d="m84.12 90.77v9.52h-3.5v-9.52a1.75 1.75 0 1 1 3.5 0z"/></g><path d="m53.918 64.464h17.915v.679a8.958 8.958 0 0 1 -8.958 8.957 8.957 8.957 0 0 1 -8.957-8.957z"/><path d="m78.463 64.464h17.914v.679a8.957 8.957 0 0 1 -8.957 8.957 8.957 8.957 0 0 1 -8.957-8.957z"/><path d="m79.006 82.852a1.748 1.748 0 0 1 -1.359-.646l-2.667-3.278-2.819 3.308a1.75 1.75 0 1 1 -2.661-2.269l4.183-4.909a1.748 1.748 0 0 1 1.332-.615h.019a1.75 1.75 0 0 1 1.338.645l3.99 4.912a1.751 1.751 0 0 1 -1.356 2.855z"/></g></g><g><path d="m105.08 94.336a30.343 30.343 0 0 0 8.672-9.608 1.608 1.608 0 0 0 .073-.158c5.356-13.4-3.577-20.1-7.479-28.479-2.867-6.15-3.8-14.674 10.971-31.277a1.75 1.75 0 0 0 -.354-2.631l-5.14-3.34a1.749 1.749 0 1 0 -1.906 2.934l3.447 2.241c-9.405 10.959-12.273 18.765-12.273 24.8-4.892-8.258-3.221-13.329.956-18a1.75 1.75 0 0 0 -2.61-2.333c-7.49 8.374-6.338 17.149 3.845 29.305 4.157 8.73 11.812 14.051 7.33 25.391a27.131 27.131 0 0 1 -10.136 9.92 21.624 21.624 0 0 1 -8.364 2.476c0-.1.015-.19.015-.287v-3.226c6.1-.865 12.592-3.255 13.391-12.016a33.233 33.233 0 0 0 -9.118-24.44 29.169 29.169 0 0 0 -42.975 0 33.26 33.26 0 0 0 -9.111 24.509c.8 8.693 7.28 11.079 13.381 11.944.014 3.806-.024 2.845.02 3.607h-5.245a11.929 11.929 0 0 1 -6.822-2.308l-8.363-36.46a56.652 56.652 0 0 1 5.738-13.535c1.4-1.083 9.042-6.692 16.537-6.692a1.75 1.75 0 0 0 0-3.5 27.351 27.351 0 0 0 -11.846 3.169 77.687 77.687 0 0 1 6.374-7.354 60.988 60.988 0 0 1 30.134 12.764 1.75 1.75 0 0 0 2.578-2.279c-3.618-6.023-11.772-13.533-22.853-19.029q1.225-.883 2.491-1.721c2.187-.328 14.109-1.891 20.016 2.02a1.75 1.75 0 1 0 1.932-2.918c-3.97-2.63-9.836-3.226-14.64-3.18a59.047 59.047 0 0 1 8.273-3.145c10.17-3.023 17.249 3.633 18.54 4.192a1.75 1.75 0 0 0 1.9-2.937c-1.227-.522-9.549-8.144-21.441-4.609a61.745 61.745 0 0 0 -15.989 7.33 1.65 1.65 0 0 0 -.2.113c-1.546 1.012-3.049 2.09-4.506 3.2a70.037 70.037 0 0 0 -33.072-5.656l-.487-2.133a5.056 5.056 0 0 0 -9.923 1.907l.273 1.775a70.652 70.652 0 0 0 -7.114 2.038 1.748 1.748 0 0 0 -1.123 2.08l3.823 15.272a1.751 1.751 0 0 0 2.507 1.128 48.466 48.466 0 0 1 4.73-2.018l2.843 18.583a1.75 1.75 0 0 0 1.728 1.485 1.711 1.711 0 0 0 .266-.02 1.75 1.75 0 0 0 1.465-1.995l-2.939-19.222c1.333-.426 2.805-.856 4.4-1.263l6.055 26.415.008.042v.01l.007.034 8.592 37.463.009.042v.013l.007.033 2.553 11.123-9.552 5.18-.7-4.547v-.013l-2.629-17.245a1.75 1.75 0 1 0 -3.459.53l2.572 16.829a40.094 40.094 0 0 0 -1.308 12.657 1.751 1.751 0 0 0 1.745 1.604l85.78-.07a1.749 1.749 0 0 0 1.746-1.655c.825-15.188-8.581-22.127-14.046-24.859zm-37.137 7.7h8.265l-3.8 3.791zm14.429-13.015a1.75 1.75 0 0 0 -1.75 1.75v7.516a1.74 1.74 0 0 0 -.828.249h-3.127v-7.765a1.75 1.75 0 1 0 -3.5 0v7.765h-3.954v-7.765a1.75 1.75 0 1 0 -3.5 0v7.765h-1.266a3.254 3.254 0 0 1 -3.25-3.25v-12.04a1.748 1.748 0 0 0 -.508-1.233 18.772 18.772 0 0 1 -4.96-8.919 10.689 10.689 0 0 0 17.854-7.951v-.679a1.75 1.75 0 0 0 -1.75-1.75h-15.59a19.891 19.891 0 0 1 37.348 0h-15.128a1.75 1.75 0 0 0 -1.75 1.75v.679a10.689 10.689 0 0 0 17.268 8.443 18.748 18.748 0 0 1 -4.844 8.425 1.749 1.749 0 0 0 -.51 1.235v12.04a3.254 3.254 0 0 1 -3.25 3.25h-1.255v-7.765a1.75 1.75 0 0 0 -1.75-1.75zm-26.625-22.807h14.253a7.209 7.209 0 0 1 -14.257 0zm38.734.34a7.2 7.2 0 0 1 -14.189-.34h14.135c.016.114.04.226.054.34zm7.545 13.246c-.468 5.132-3.3 7.671-9.9 8.719v-4.568a22.106 22.106 0 0 0 6-15.165c0-.739-.039-1.468-.111-2.189.195-1.422.339-2.9-.657-3.581-.086-.318-.177-.635-.277-.947a29.529 29.529 0 0 1 4.945 17.731zm-54.218.072a29.614 29.614 0 0 1 4.947-17.814c-.208.65-.384 1.315-.532 1.989-.008.033-.017.065-.023.1a22.166 22.166 0 0 0 5.5 19.8v4.569c-6.6-1.045-9.428-3.579-9.892-8.643zm-27.508-67.5a1.54 1.54 0 0 1 1.142-1.734 1.6 1.6 0 0 1 1.912 1.155l.39 1.691q-1.589.206-3.2.495zm-7.635 7.152c26.344-8.41 49.967 1.609 62.838 12.485a63.633 63.633 0 0 0 -21.315-6.535 1.746 1.746 0 0 0 -.985-.115 73.732 73.732 0 0 0 -24.129 1.48 105.923 105.923 0 0 0 -13.5 4.331zm37 9.04a70.1 70.1 0 0 0 -13.886 21.757l-4.666-20.355a71 71 0 0 1 18.551-1.402zm-16.336 86.861a1.708 1.708 0 0 0 1.535-.056l12.91-7a1.749 1.749 0 0 0 .872-1.93l-1.946-8.495a14.613 14.613 0 0 0 5.77 1.226h6.466a6.777 6.777 0 0 0 3.039 2.39l18.634 15.82-20.353.016-7.816-7.342a1.75 1.75 0 0 0 -2.4 2.551l5.105 4.8-21.86.017c0-.555.009-1.232.044-1.997zm71.165 1.936-8.423-7.861a1.75 1.75 0 0 0 -2.386 2.56l5.683 5.3-13.5.011c-.3-.5.119.027-10.778-9.276l6.076-6.064h4.214a6.741 6.741 0 0 0 5.52-2.882 25.009 25.009 0 0 0 10.511-2.613c4.142 1.532 14.267 6.729 14.264 20.816z"/><path d="m28.894 80.22a1.748 1.748 0 0 0 1.466-1.993l-2.429-15.927a1.751 1.751 0 0 0 -3.461.528l2.43 15.926a1.752 1.752 0 0 0 1.729 1.487 1.713 1.713 0 0 0 .265-.021z"/><path d="m76.369 75.088a1.75 1.75 0 0 0 -1.338-.645h-.019a1.748 1.748 0 0 0 -1.332.615l-4.18 4.909a1.75 1.75 0 1 0 2.664 2.269l2.819-3.308 2.667 3.278a1.75 1.75 0 1 0 2.712-2.206z"/></g></svg>