<?xml version="1.0" ?><svg id="Layer_3" style="enable-background:new 0 0 64 64;" version="1.1" viewBox="0 0 64 64" xml:space="preserve" xmlns="http://www.w3.org/2000/svg" xmlns:xlink="http://www.w3.org/1999/xlink"><g><rect height="40" style="fill:#CCCCCC;" width="40" x="12" y="22"/><path d="M12,22v31h28c1.105,0,2-0.895,2-2V22H12z" style="fill:#F2F2F2;"/><polygon points="32,46 16,46 16,26 26,26 26,32 32,32  " style="fill:#C8CDED;"/><polygon points="32,32 26,26 26,32  " style="fill:#9DA1BF;"/><path d="M26,32v-6H16v14h10c1.105,0,2-0.895,2-2v-6H26z" style="fill:#E2E7F6;"/><path d="M43,43v-8c0-2.209,1.791-4,4-4l10,0c2.209,0,4,1.791,4,4v8" style="fill:#686868;"/><path d="M47,41h-3c-1.105,0-2,0.895-2,2v0c0,1.105,0.895,2,2,2h3" style="fill:#F2B9A1;"/><path d="M57,41h3c1.105,0,2,0.895,2,2v0c0,1.105-0.895,2-2,2h-3" style="fill:#F2B9A1;"/><path d="M42,62v-5.531c0-1.991,1.464-3.678,3.434-3.96L49,52v-3h6v3l3.566,0.509   C60.536,52.791,62,54.479,62,56.469V62" style="fill:#F6B940;"/><path d="M54,59c1.105,0,2-0.895,2-2v-4.857L55,52v-3h-6v3l-3.566,0.509C43.464,52.791,42,54.479,42,56.469   V59H54z" style="fill:#FAD85D;"/><path d="M49,48v4v0c0,1.657,1.343,3,3,3h0c1.657,0,3-1.343,3-3v0v-4" style="fill:#F2B9A1;"/><polygon points="2,22 32,2 62,22  " style="fill:#FAD85D;"/><path d="M50,36L50,36c0,1.657-1.343,3-3,3h-1v5c0,3.314,2.686,6,6,6h0c3.314,0,6-2.686,6-6v-5h-5   C51.343,39,50,37.657,50,36L50,36" style="fill:#FBE1CA;"/><polyline points="53,59 44,59 39,50 25,50 32,62 55,62  " style="fill:#4C506E;"/><g><rect height="2" style="fill:#858BB5;" width="2" x="27" y="37"/></g><g><rect height="2" style="fill:#858BB5;" width="2" x="27" y="41"/></g><g><rect height="2" style="fill:#858BB5;" width="6" x="19" y="37"/></g><g><rect height="2" style="fill:#858BB5;" width="2" x="27" y="33"/></g><g><rect height="2" style="fill:#858BB5;" width="6" x="19" y="33"/></g><g><rect height="2" style="fill:#858BB5;" width="6" x="19" y="41"/></g><path d="M40.769,57.072L37.065,50H25l5.833,10h8.164C40.501,60,41.466,58.404,40.769,57.072z" style="fill:#787FAA;"/><circle cx="35.5" cy="55.5" r="1.5" style="fill:#E2E7F6;"/><path d="M58.705,46H60c1.654,0,3-1.346,3-3c0-0.883-0.391-1.67-1-2.22V35c0-2.757-2.243-5-5-5h-4v-7h9   c0.44,0,0.83-0.288,0.957-0.71c0.128-0.422-0.036-0.878-0.402-1.122l-30-20c-0.336-0.225-0.773-0.225-1.109,0l-30,20   c-0.367,0.244-0.53,0.7-0.402,1.122C1.17,22.712,1.56,23,2,23h9v39c0,0.553,0.448,1,1,1h16v-2H13V23h38v7h-4c-2.757,0-5,2.243-5,5   v5.78c-0.609,0.549-1,1.337-1,2.22c0,1.654,1.346,3,3,3h1.295c0.457,1.53,1.425,2.841,2.705,3.736v1.397l-2.708,0.387   c-1.324,0.189-2.47,0.889-3.248,1.901l-2.17-3.906C39.698,49.197,39.363,49,39,49H25c-0.358,0-0.689,0.191-0.867,0.502   s-0.177,0.692,0.003,1.002l7,12C31.315,62.812,31.645,63,32,63h30c0.552,0,1-0.447,1-1v-5.531c0-2.472-1.846-4.6-4.292-4.949   L56,51.133v-1.397C57.28,48.841,58.248,47.53,58.705,46z M32,3.202L58.697,21H5.303L32,3.202z M60,44h-1v-2h1c0.551,0,1,0.448,1,1   S60.551,44,60,44z M44,44c-0.551,0-1-0.448-1-1s0.449-1,1-1h1v2H44z M45,39v1h-1v-5c0-1.654,1.346-3,3-3h10c1.654,0,3,1.346,3,3v5   h-1v-1c0-0.553-0.448-1-1-1h-5c-1.103,0-2-0.897-2-2c0-0.553-0.448-1-1-1s-1,0.447-1,1c0,1.103-0.897,2-2,2h-1   C45.448,38,45,38.447,45,39z M47,44v-4c1.193,0,2.267-0.525,3-1.357C50.733,39.475,51.807,40,53,40h4v4c0,2.757-2.243,5-5,5   S47,46.757,47,44z M58.425,53.5C59.893,53.709,61,54.985,61,56.469V61h-2v-4h-2v4H32.574l-5.833-10h11.67l4.714,8.485   C43.302,59.803,43.637,60,44,60h9v-2h-8.412l-1.408-2.534c0.37-1.045,1.279-1.807,2.395-1.966l2.606-0.373   C48.672,54.782,50.189,56,52,56c1.812,0,3.328-1.218,3.818-2.873L58.425,53.5z M54,52c0,1.103-0.897,2-2,2s-2-0.897-2-2v-1.295   C50.634,50.895,51.305,51,52,51s1.366-0.105,2-0.295V52z"/><path d="M33,46V32c0-0.277-0.112-0.527-0.294-0.708l-5.998-5.998C26.527,25.112,26.277,25,26,25H16c-0.552,0-1,0.447-1,1v20   c0,0.553,0.448,1,1,1h16C32.552,47,33,46.553,33,46z M27,28.414L29.586,31H27V28.414z M31,45H17V27h8v5c0,0.553,0.448,1,1,1h1v2h2   v-2h2V45z"/><rect height="2" width="2" x="27" y="37"/><rect height="2" width="2" x="27" y="41"/><rect height="2" width="6" x="19" y="37"/><rect height="2" width="6" x="19" y="33"/><rect height="2" width="6" x="19" y="41"/></g></svg>