<?xml version="1.0" encoding="UTF-8"?>
<!DOCTYPE svg PUBLIC "-//W3C//DTD SVG 1.1//EN" "http://www.w3.org/Graphics/SVG/1.1/DTD/svg11.dtd">
<!-- Creator: CorelDRAW 2020 (64-Bit) -->
<svg xmlns="http://www.w3.org/2000/svg" xml:space="preserve" width="13.9528mm" height="16.4481mm" version="1.1" style="shape-rendering:geometricPrecision; text-rendering:geometricPrecision; image-rendering:optimizeQuality; fill-rule:evenodd; clip-rule:evenodd"
viewBox="0 0 1.69 2"
 xmlns:xlink="http://www.w3.org/1999/xlink"
 xmlns:xodm="http://www.corel.com/coreldraw/odm/2003">
 <defs>
  <style type="text/css">
   <![CDATA[
    .fil1 {fill:black}
    .fil3 {fill:#34373F}
    .fil2 {fill:#545965}
    .fil0 {fill:#626877}
   ]]>
  </style>
 </defs>
 <g id="Capa_x0020_1">
  <metadata id="CorelCorpID_0Corel-Layer"/>
  <g id="_2139362484224">
   <path class="fil0" d="M1.26 1.93c0.03,0.01 0.09,-0.02 0.11,-0.04 0.07,-0.05 0.1,-0.11 0.11,-0.19 0.01,-0.07 -0,-0.1 0.04,-0.1 0,-0.02 0,-0.02 0,-0.05 -0.02,-0.02 -0.03,-0.01 -0.02,-0.06 0,-0.02 0.01,-0.07 0,-0.08 -0.01,-0.01 -0.3,-0.03 -0.33,-0.03 -0.02,0 -0.01,0 -0.03,-0 -0,0.06 -0.01,0.11 -0.01,0.17 -0.01,0.13 -0.04,0.25 0.08,0.35 0.05,0.04 0.03,0.02 0.06,0.03z"/>
   <path class="fil0" d="M0.5 1.35c-0,0.04 -0.04,0.03 -0.07,0.04 -0.03,0 -0.07,0.01 -0.1,0.01l0.03 0.33c0.02,0.09 0.09,0.18 0.16,0.2 0.03,0 0.05,-0.01 0.07,-0.02 0.06,-0.03 0.11,-0.1 0.12,-0.17 0.01,-0.05 -0.01,-0.2 -0.02,-0.27 -0,-0.01 -0,-0.03 -0,-0.04 -0,-0.01 -0,-0.02 -0,-0.02 -0.01,-0.06 -0.12,0.03 -0.14,-0.04 -0.02,0 -0.02,0 -0.05,0z"/>
   <path class="fil1" d="M0.55 1.35c0.02,0.07 0.13,-0.02 0.14,0.04 0,0 0,0.02 0,0.02 0,0.01 0,0.03 0,0.04 0.01,0.07 0.02,0.22 0.02,0.27 -0.01,0.08 -0.06,0.14 -0.12,0.17 -0.02,0.01 -0.05,0.03 -0.07,0.02 -0.03,0.02 -0.21,0.01 -0.27,-0.13 -0.02,-0.06 -0.02,-0.12 -0.03,-0.18 -0,-0.03 -0.02,-0.18 -0.01,-0.2 0.02,-0.01 0.09,-0.01 0.12,-0.01 0.03,-0 0.07,-0.01 0.1,-0.01 0.04,-0 0.07,0 0.07,-0.04 -0.01,-0.03 -0.02,-0.03 -0.05,-0.02l-0.15 0.01c-0.06,0 -0.16,0 -0.16,0.08 0,0.05 0.01,0.1 0.01,0.15 0.01,0.12 0.01,0.24 0.09,0.32 0.23,0.22 0.53,0.03 0.53,-0.19 0,-0.11 -0.02,-0.21 -0.02,-0.3 -0,-0.04 -0.01,-0.09 -0.07,-0.09 -0.02,-0 -0.06,0 -0.08,0.01 -0.03,0 -0.05,0 -0.05,0.03z"/>
   <path class="fil1" d="M1.51 1.6c-0.04,0 -0.03,0.04 -0.04,0.1 -0.01,0.08 -0.04,0.14 -0.11,0.19 -0.02,0.02 -0.07,0.04 -0.11,0.04l-0.02 0.01c-0.01,0 -0.02,-0 -0.03,-0 -0.02,-0 -0.03,-0 -0.05,-0.01 -0.03,-0.01 -0.05,-0.02 -0.07,-0.03 -0.04,-0.03 -0.07,-0.07 -0.09,-0.13 -0.02,-0.06 -0.01,-0.13 -0,-0.2 0,-0.04 0.01,-0.17 0.02,-0.2 0.02,-0 0.14,0.01 0.15,0.01 0.03,-0 0.32,0.02 0.33,0.03 0.01,0.01 0,0.06 -0,0.08 -0,0.05 -0,0.04 0.02,0.06 0.03,-0.01 0.03,-0.01 0.04,-0.05 0,-0.05 0.03,-0.15 -0.08,-0.15l-0.45 -0.04c-0.06,0 -0.07,0.05 -0.07,0.09 -0,0.02 -0.01,0.05 -0.01,0.07 -0,0.08 -0.02,0.16 -0.02,0.23 0,0.08 0.05,0.17 0.11,0.22 0.05,0.04 0.11,0.06 0.17,0.07l0.05 0c0.05,-0 0.11,-0.02 0.16,-0.06 0.06,-0.05 0.11,-0.13 0.12,-0.21 0,-0.03 0,-0.05 0.01,-0.08 0.01,-0.03 0,-0.05 -0.03,-0.06z"/>
   <path class="fil1" d="M0.36 0.9c-0.02,-0.08 -0.04,-0.21 -0.05,-0.29 -0,-0.05 0.01,-0.29 0.08,-0.25 0.03,0.02 0.05,0.07 0.05,0.12 0.01,0.05 0.01,0.11 0.01,0.17 -0,0.06 -0,0.11 -0.01,0.17 -0,0.07 0.01,0.1 -0.09,0.09zm-0.11 -0.36c0,0.11 0.02,0.25 0.05,0.36 0,0.02 0.01,0.03 0.02,0.04 0.01,0.01 0.03,0.02 0.04,0.02 0.01,0 0.04,-0 0.05,-0 0.01,-0 0.04,-0.01 0.05,-0.01 0.04,-0.02 0.03,-0.06 0.03,-0.09 0,-0.03 0.01,-0.08 0.01,-0.11 -0,-0.03 0,-0.03 0,-0.06 0,-0.09 0,-0.21 -0.02,-0.28 -0.02,-0.05 -0.05,-0.11 -0.12,-0.11 -0.09,0 -0.12,0.17 -0.12,0.25z"/>
   <path class="fil1" d="M1.33 0.91c-0.01,0 -0.06,-0 -0.07,-0.01 -0.01,-0 -0,0 -0.01,-0.01 -0.01,-0.02 -0.02,-0.26 -0.01,-0.31 0,-0.05 0,-0.11 0.01,-0.15 0.01,-0.03 0.04,-0.1 0.08,-0.07 0.02,0.02 0.04,0.09 0.04,0.12 0.02,0.13 -0.02,0.3 -0.04,0.42zm-0.15 -0.31l0.01 0.26c0,0.03 -0,0.1 0.08,0.1 0.04,0 0.1,0.02 0.12,-0.05 0,-0.02 0.01,-0.03 0.01,-0.05 0.03,-0.15 0.06,-0.32 0.01,-0.47 -0.02,-0.06 -0.07,-0.12 -0.14,-0.08 -0.03,0.02 -0.06,0.06 -0.07,0.1 -0.02,0.05 -0.02,0.13 -0.02,0.19z"/>
   <path class="fil2" d="M0.52 1.92c-0.07,-0.02 -0.15,-0.11 -0.16,-0.2l-0.03 -0.33c-0.03,0 -0.1,0 -0.12,0.01 -0.01,0.02 0.01,0.16 0.01,0.2 0.01,0.06 0.01,0.13 0.03,0.18 0.06,0.14 0.24,0.16 0.27,0.13z"/>
   <path class="fil2" d="M1.26 1.93c-0.03,-0 -0.01,0.02 -0.06,-0.03 -0.11,-0.1 -0.09,-0.23 -0.08,-0.35 0,-0.06 0.01,-0.11 0.01,-0.17 0.02,0 0.01,0 0.03,0 -0.01,-0.01 -0.13,-0.02 -0.15,-0.01 -0.01,0.02 -0.02,0.16 -0.02,0.2 -0.01,0.07 -0.02,0.14 0,0.2 0.02,0.06 0.06,0.1 0.09,0.13 0.02,0.01 0.04,0.03 0.07,0.03 0.01,0 0.03,0.01 0.05,0.01 0.01,0 0.02,0 0.03,0l0.02 -0.01z"/>
   <path class="fil0" d="M0.36 0.9c0.1,0.01 0.08,-0.02 0.09,-0.09 0,-0.06 0.01,-0.11 0.01,-0.17 0,-0.05 0,-0.11 -0.01,-0.17 -0,-0.05 -0.03,-0.1 -0.05,-0.12 -0.07,-0.04 -0.09,0.19 -0.08,0.25 0.01,0.08 0.03,0.22 0.05,0.29z"/>
   <path class="fil0" d="M1.33 0.91c0.02,-0.13 0.07,-0.29 0.04,-0.42 -0.01,-0.03 -0.03,-0.1 -0.04,-0.12 -0.04,-0.03 -0.07,0.04 -0.08,0.07 -0.01,0.04 -0.01,0.1 -0.01,0.15 -0,0.04 0,0.28 0.01,0.31 0.01,0.01 -0,0 0.01,0.01 0.01,0.01 0.06,0.01 0.07,0.01z"/>
   <path class="fil1" d="M1.04 0.28c0.02,-0.09 0.13,-0.19 0.23,-0.21l-0.01 0.12c-0.01,0.01 -0.03,0.01 -0.04,0.02 -0.03,0.02 -0.07,0.07 -0.08,0.11l-0.1 -0.04zm-0.06 0c0,0.05 0.02,0.05 0.07,0.07 0.05,0.02 0.12,0.06 0.14,0 0.01,-0.02 0.01,-0.03 0.03,-0.05 0.04,-0.06 0.06,-0.05 0.08,-0.07 0.02,-0.02 0.02,-0.08 0.03,-0.13 0,-0.02 0.01,-0.05 0,-0.07 -0.03,-0.1 -0.19,0.02 -0.23,0.06 -0.05,0.04 -0.12,0.14 -0.12,0.18z"/>
   <path class="fil1" d="M0.44 0.15c-0,-0.03 -0.01,-0.06 -0.01,-0.09 0.06,0.01 0.11,0.05 0.14,0.08 0.02,0.02 0.08,0.09 0.09,0.13l-0.1 0.04c-0.01,-0.01 -0.03,-0.04 -0.04,-0.06 -0.08,-0.1 -0.08,-0.04 -0.09,-0.11zm0.12 0.23c0.02,0 0.08,-0.03 0.1,-0.03 0.04,-0.02 0.07,-0.02 0.07,-0.06 0,-0.06 -0.09,-0.17 -0.15,-0.21 -0.04,-0.03 -0.17,-0.11 -0.2,-0.04 -0.01,0.02 0,0.11 0.01,0.14 0,0.03 -0,0.05 0.02,0.06 0.01,0.01 0.03,0.01 0.05,0.03 0.07,0.06 0.06,0.12 0.11,0.12z"/>
   <path class="fil1" d="M1.44 0.09c0.07,0.06 0.14,0.15 0.16,0.25l-0.11 0.02c-0.01,-0.04 -0.04,-0.09 -0.06,-0.12 -0.01,-0.02 -0.01,-0.04 -0,-0.07 0,-0.02 0,-0.06 0.01,-0.08zm-0.07 0.15c0,0.03 0.03,0.04 0.06,0.12 0,0.01 0,0.02 0.01,0.03 0.02,0.05 0.08,0.03 0.15,0.02 0.1,-0.02 0.09,-0.06 0.04,-0.16 -0.01,-0.04 -0.05,-0.1 -0.08,-0.13 -0.03,-0.04 -0.02,-0.03 -0.07,-0.07 -0.03,-0.02 -0.07,-0.04 -0.09,0 -0.01,0.01 -0.01,0.04 -0.01,0.06l-0.01 0.13z"/>
   <path class="fil1" d="M0.2 0.35l-0.11 -0.02c0.02,-0.09 0.11,-0.22 0.16,-0.24 0,0.03 0.01,0.05 0.01,0.08 0,0.05 0.01,0.05 -0,0.07 -0.02,0.03 -0.05,0.07 -0.06,0.12zm-0.17 -0.01c0,0.04 0.03,0.05 0.07,0.05 0.14,0.03 0.12,0.04 0.17,-0.07 0.05,-0.13 0.06,-0 0.04,-0.22 -0.01,-0.07 -0.01,-0.09 -0.06,-0.09 -0.04,0 -0.12,0.1 -0.14,0.13 -0.03,0.04 -0.08,0.14 -0.08,0.19z"/>
   <path class="fil1" d="M0.68 1.04l-0.01 0.12 -0.1 0.01 0.01 -0.12 0.11 -0.01zm-0.13 0.19c0.05,0 0.08,-0.01 0.12,-0.01 0.08,-0 0.06,-0.05 0.07,-0.17 0.01,-0.09 -0.06,-0.08 -0.15,-0.06 -0.02,0 -0.03,-0 -0.05,0.01 -0.03,0.02 -0.03,0.09 -0.03,0.15 -0,0.02 -0.01,0.03 0,0.05 0.01,0.01 0.02,0.03 0.04,0.03z"/>
   <path class="fil1" d="M0.99 0.45l0.11 0.04 -0 0.1 -0.11 -0.01 0.01 -0.13zm-0.06 0.09c0,0.05 -0.01,0.06 0.01,0.08 0.02,0.02 0.08,0.02 0.11,0.02 0.06,0 0.1,0.02 0.1,-0.07 -0,-0.07 0.02,-0.11 -0.03,-0.14 -0.01,-0.01 -0.13,-0.05 -0.13,-0.05 -0.03,0 -0.05,0.02 -0.05,0.05l-0 0.1z"/>
   <path class="fil1" d="M0.6 0.49c0.01,-0.01 0.09,-0.04 0.11,-0.04l0 0.13 -0.11 0.01 -0 -0.1zm0.17 0.11l-0 -0.16c-0,-0.03 -0.02,-0.05 -0.05,-0.05 -0.01,0 -0.11,0.04 -0.13,0.05 -0.06,0.02 -0.04,0.07 -0.04,0.14 -0,0.11 0.04,0.08 0.18,0.07 0.03,-0 0.05,-0.02 0.05,-0.04z"/>
   <path class="fil1" d="M1.44 1.09l0.11 0.01c-0,0.02 -0.02,0.1 -0.03,0.12l-0.1 -0.01 0.03 -0.12zm-0.09 0.13c0,0.01 0.01,0.03 0.02,0.03 0.02,0.02 0.12,0.02 0.15,0.02 0.01,0 0.04,-0.02 0.04,-0.02 0.02,-0.02 0.01,-0.03 0.02,-0.05 0.01,-0.05 0.05,-0.13 0,-0.15 -0.02,-0.01 -0.16,-0.02 -0.17,-0.02 -0.04,0.01 -0.05,0.08 -0.06,0.13 -0,0.02 -0.01,0.04 -0.01,0.05z"/>
   <path class="fil1" d="M0.28 1.19c0,0.01 0,0 0,0.01l-0.01 0 -0.09 0.01 -0.03 -0.12 0.11 -0.01 0.02 0.11zm-0.2 -0.11c0,0.03 0.02,0.08 0.02,0.1 0.03,0.11 0.06,0.08 0.16,0.08 0.02,-0 0.04,-0 0.05,-0.01 0.04,-0.03 0.01,-0.08 0,-0.14 -0.02,-0.11 -0.03,-0.08 -0.16,-0.08 -0.03,0 -0.08,0.01 -0.08,0.05z"/>
   <path class="fil1" d="M1.01 1.05l0.1 0.01 0.01 0.12 -0.1 -0.01 -0.01 -0.12zm-0.01 -0.06c-0.05,0 -0.05,0.05 -0.05,0.07 0.02,0.19 0.01,0.15 0.13,0.17 0.05,0.01 0.11,0.02 0.1,-0.07 -0,-0.02 -0,-0.04 -0.01,-0.05 -0.01,-0.07 0.01,-0.11 -0.07,-0.12 -0.04,-0 -0.07,-0.01 -0.11,-0.01z"/>
   <path class="fil1" d="M0.06 0.64c-0,-0.03 -0.01,-0.1 0,-0.13 0.02,-0 0.09,0.01 0.1,0.02l0 0.1 -0.11 0.01zm-0.06 -0.12c0,0.04 -0.01,0.14 0.02,0.17 0.01,0.01 0.02,0.02 0.04,0.02 0.01,-0 0.04,-0 0.05,-0 0.11,-0.01 0.13,0 0.12,-0.1 -0.01,-0.11 0.03,-0.11 -0.09,-0.13 -0.06,-0.01 -0.13,-0.04 -0.13,0.06z"/>
   <path class="fil1" d="M1.53 0.53c0.02,-0 0.09,-0.02 0.11,-0.02l-0 0.13 -0.11 -0.01 0 -0.1zm0.17 0.06c0,-0.19 -0.01,-0.15 -0.17,-0.12 -0.09,0.01 -0.05,0.06 -0.06,0.13 -0.02,0.11 0.04,0.08 0.14,0.1 0.03,0 0.06,0 0.07,-0.02 0.01,-0.02 0.01,-0.06 0.01,-0.09z"/>
   <path class="fil1" d="M0.2 0.8l0.02 0.11 -0.11 0.01 -0.02 -0.11 0.11 -0.01zm-0.17 -0.01l0.02 0.1c0.02,0.1 0.03,0.08 0.16,0.07 0.11,-0.01 0.08,-0.06 0.06,-0.15 -0.02,-0.09 -0.03,-0.08 -0.16,-0.07 -0.02,0 -0.08,0 -0.08,0.05z"/>
   <path class="fil1" d="M0.99 0.76l0.11 0.01 0 0.11 -0.11 -0.01 -0.01 -0.11zm0.13 0.18c0.02,0 0.04,-0.01 0.04,-0.03 0.01,-0.02 0,-0.03 0,-0.05 -0,-0.13 0.02,-0.16 -0.13,-0.16 -0.02,-0 -0.03,-0.01 -0.05,-0 -0.03,0 -0.05,0.03 -0.05,0.07 0.01,0.1 -0.02,0.16 0.07,0.16 0.04,0 0.07,0.01 0.11,0.01z"/>
   <path class="fil1" d="M1.48 0.91c-0,-0.02 0.01,-0.08 0.02,-0.11l0.11 0.01 -0.02 0.11 -0.11 -0.01zm-0.06 0.01c0,0.04 0.04,0.05 0.07,0.05 0.16,0.01 0.14,0.04 0.17,-0.11 0.01,-0.07 0.02,-0.1 -0.06,-0.1 -0.01,-0 -0.04,-0 -0.06,-0.01 -0.08,-0.01 -0.1,-0 -0.11,0.07 -0,0.03 -0.02,0.08 -0.02,0.11z"/>
   <path class="fil1" d="M0.7 0.76l-0.01 0.11 -0.11 0.01 0.01 -0.11 0.11 -0.01zm0.02 -0.06c-0.05,0 -0.07,0.01 -0.11,0.01 -0.09,0 -0.07,0.05 -0.08,0.16 -0,0.09 0.03,0.07 0.09,0.07 0.02,-0 0.03,-0 0.05,-0 0.01,-0 0.04,-0 0.05,-0.01 0.04,-0.02 0.02,-0.09 0.03,-0.15 0.01,-0.04 -0.01,-0.08 -0.04,-0.08z"/>
   <path class="fil0" d="M0.56 0.31l0.1 -0.04c-0.01,-0.04 -0.07,-0.11 -0.09,-0.13 -0.03,-0.03 -0.08,-0.07 -0.14,-0.08 0,0.03 0,0.06 0.01,0.09 0.01,0.07 0.01,0.01 0.09,0.11 0.01,0.01 0.03,0.05 0.04,0.06z"/>
   <path class="fil0" d="M1.04 0.28l0.1 0.04c0.02,-0.04 0.05,-0.08 0.08,-0.11 0.01,-0.01 0.02,-0.01 0.04,-0.02l0.01 -0.12c-0.1,0.03 -0.21,0.12 -0.23,0.21z"/>
   <path class="fil0" d="M0.2 0.35c0.01,-0.04 0.03,-0.09 0.06,-0.12 0.01,-0.02 0.01,-0.02 0,-0.07 -0,-0.03 -0,-0.05 -0.01,-0.08 -0.05,0.03 -0.14,0.16 -0.16,0.24l0.11 0.02z"/>
   <path class="fil0" d="M1.44 0.09c-0.01,0.02 -0.01,0.06 -0.01,0.08 -0,0.03 -0.01,0.05 0,0.07 0.02,0.03 0.05,0.08 0.06,0.12l0.11 -0.02c-0.02,-0.1 -0.09,-0.19 -0.16,-0.25z"/>
   <path class="fil0" d="M1.41 1.2l0.1 0.01c0.01,-0.01 0.03,-0.1 0.03,-0.12l-0.11 -0.01 -0.03 0.12z"/>
   <path class="fil0" d="M0.27 1.2c0.01,-0.01 0.01,-0 0.01,-0.01l-0.02 -0.11 -0.11 0.01 0.03 0.12 0.09 -0.01z"/>
   <path class="fil0" d="M0.06 0.64l0.11 -0.01 -0 -0.1c-0.01,-0.01 -0.09,-0.02 -0.1,-0.02 -0.01,0.03 -0,0.1 -0,0.13z"/>
   <path class="fil0" d="M1.53 0.53l-0 0.1 0.11 0.01 0 -0.13c-0.02,-0 -0.08,0.01 -0.11,0.02z"/>
   <polygon class="fil0" points="0.99,0.59 1.1,0.59 1.1,0.49 0.99,0.45 "/>
   <path class="fil0" d="M0.6 0.49l0 0.1 0.11 -0.01 -0 -0.13c-0.02,0 -0.09,0.03 -0.11,0.04z"/>
   <polygon class="fil0" points="1.02,1.17 1.13,1.18 1.12,1.06 1.01,1.05 "/>
   <polygon class="fil0" points="0.58,1.05 0.57,1.17 0.67,1.16 0.68,1.04 "/>
   <path class="fil0" d="M1.48 0.91l0.11 0.01 0.02 -0.11 -0.11 -0.01c-0,0.02 -0.02,0.09 -0.02,0.11z"/>
   <polygon class="fil0" points="0.09,0.81 0.1,0.92 0.22,0.91 0.2,0.8 "/>
   <polygon class="fil0" points="1,0.87 1.1,0.88 1.1,0.77 0.99,0.76 "/>
   <polygon class="fil0" points="0.6,0.77 0.59,0.88 0.7,0.87 0.7,0.76 "/>
   <path class="fil3" d="M0.27 1.2l0.01 -0c0,-0.01 0,-0.01 -0,-0.01 -0,0.01 -0,0.01 -0.01,0.01z"/>
  </g>
 </g>
</svg>
