<?xml version="1.0" encoding="UTF-8"?>
<!DOCTYPE svg PUBLIC "-//W3C//DTD SVG 1.1//EN" "http://www.w3.org/Graphics/SVG/1.1/DTD/svg11.dtd">
<!-- Creator: CorelDRAW 2020 (64-Bit) -->
<svg xmlns="http://www.w3.org/2000/svg" xml:space="preserve" width="156.189mm" height="163.689mm" version="1.1" style="shape-rendering:geometricPrecision; text-rendering:geometricPrecision; image-rendering:optimizeQuality; fill-rule:evenodd; clip-rule:evenodd"
viewBox="0 0 291.04 305.01"
 xmlns:xlink="http://www.w3.org/1999/xlink"
 xmlns:xodm="http://www.corel.com/coreldraw/odm/2003">
 <defs>
  <style type="text/css">
   <![CDATA[
    .fil0 {fill:#232323}
    .fil6 {fill:#555556}
    .fil5 {fill:#626364}
    .fil9 {fill:#706349}
    .fil8 {fill:#76674B}
    .fil7 {fill:#77684B}
    .fil4 {fill:#7B7B7D}
    .fil3 {fill:#DC291B}
    .fil2 {fill:#FFB74D}
    .fil1 {fill:white}
   ]]>
  </style>
 </defs>
 <g id="Capa_x0020_1">
  <metadata id="CorelCorpID_0Corel-Layer"/>
  <g id="_2834004362944">
   <path class="fil0" d="M197.93 297.25c2.56,-0.81 9.98,-5.78 11.07,-6.21 2.11,-0.83 1.08,0.34 4.26,0.6 0.14,1.68 3.03,12.08 3.65,13.37l27.95 0c2.27,-9.74 3.07,-16.56 8.92,-13.23 2.48,1.41 7.9,4.87 9.91,5.33l19.59 -19.29c-1.34,-4.59 -6.94,-10.52 -6.38,-13.05 0.66,-3.03 2.99,-2.86 6.01,-3.72 2.81,-0.79 5.59,-1.62 8.12,-2.21l0 -27.95c-1.48,-0.71 -11.37,-3.48 -13.37,-3.65 -0.23,-2.82 -1.18,-2.15 -0.74,-3.91 0.24,-0.93 5.56,-8.88 6.2,-11.28 -6.3,-6.8 -13.17,-12.77 -19.56,-19.58l-7.66 4.12 -0 -7.85 -0 0 0 -79.27 -0 -40.99 0 0 0 -30.96c-0.97,-2.19 -3.2,-5.09 -4.25,-6.66l-15.31 -22.97c-1.25,-1.87 -4.3,-5.81 -4.86,-7.9l-1.22 0c-0.39,1.45 -2.21,4.18 -4.27,7.1 -16.2,23.07 -4.77,6.61 -18.51,27.7 -0.64,0.98 -1.14,1.84 -1.37,2.5 -0.39,1.09 -0.53,3.19 -0.57,5.6l0 2.79c0.04,3.22 0.19,6.52 0.19,8.43l-179.82 -0 0.03 -0.04 -14.41 0 -11.54 0c0,10.05 0.24,14.26 0,16.87l0 26.41 0.02 -0.04 -0.02 8.35 0 139.21c0,0 22.09,-0.04 30.87,-0.04l135.05 0.1 0.03 0 4.66 0 0.09 13.84c2.93,0.61 5.29,1.37 8.25,2.16 3.07,0.82 5.19,0.61 5.89,3.8 0.54,2.44 -5.14,9.83 -6.14,12.93 4.2,3.96 18.38,18.68 19.22,19.58zm1.06 -92.15c3.47,0.8 5.78,2.9 8.48,4.29 3.5,1.81 4.63,-0.23 8.14,-1.7 4.65,-1.95 5.58,-0.27 6.92,-5.24 0.61,-2.27 1.01,-7.83 3.5,-7.83 13.83,0 10.54,-1.43 13.28,8.41 1.14,4.07 3.21,3.16 6.81,4.71 3.59,1.54 4.65,3.5 8.19,1.64 2.61,-1.37 4.74,-3.12 7.76,-4.43l8.45 8.13c-0.71,2.87 -2.79,5.76 -4.23,8.31 -1.81,3.19 -0.11,4.03 1.34,7.37 1.49,3.41 0.92,6.39 4.68,7.5 10.7,3.17 8.83,-0.71 8.39,14.68 -8.04,3.5 -9.66,0.23 -11.65,5.95 -2.8,8.04 -4.8,7.68 -2.69,11.37 1.43,2.5 3.04,4.94 4.27,7.76l-8.76 8.43c-2.67,-1.07 -5.08,-2.69 -7.59,-4.11 -3.51,-1.99 -3.33,-0.45 -7.35,1.22 -11.91,4.97 -4.73,0.23 -9.96,13.36 -16.87,0.08 -11.05,1.51 -14.8,-9.11 -1.08,-3.05 -4.48,-2.94 -7.37,-4.21 -3.82,-1.67 -4.04,-3.24 -7.77,-1.1 -2.42,1.39 -5.17,3.31 -7.8,3.88l-8.05 -8.53c1.2,-3.05 3.13,-5.15 4.45,-7.98 1.5,-3.22 -0.64,-4.84 -2.05,-8.18 -1.79,-4.22 -0.25,-5.29 -5,-6.53 -9.42,-2.45 -7.93,0.11 -7.93,-13.16 0,-2.71 8.95,-3.57 10.97,-4.72 0.45,-1 4.53,-11.12 4.54,-11.18 0.22,-2.38 -4.17,-7.39 -4.89,-10.98l7.73 -8.02zm-188.85 -100.51c0.93,-0.47 -0.73,-0.16 1.42,-0.53l194.1 0.15c0.51,1.17 1.94,90.19 0.07,92.23 -1.66,1.82 -0.34,0.02 -0.49,-0.02l-7.25 -3.85 -19.3 19.47c3.52,11.04 16.01,13.99 -8.08,18.78l-0 3.78 -160.75 0.11c-0.13,-0.32 0.19,-58.28 0.19,-61.56 0,-16.25 -0.73,-55.07 0.09,-68.57zm226 -60.48l9.73 0.08 -0.17 143.88c-0.39,-4.52 -2.45,-3.46 -9.87,-3.55l0.31 -140.41zm-20.08 143.95c-1.01,-5.43 -0.79,-140.68 0.02,-143.96l9.72 0.09 -0.07 140.34 -8.82 0.08 -0.86 3.44zm-206.01 -123.9l-5.8 0 199.29 0 2.19 0 0.24 30.09 -195.92 0 0 -30.09zm221.01 -45.81l10.24 15.72 -21.08 -0.1 10.85 -15.62z"/>
   <path class="fil1" d="M169.64 224.74l-68.29 0c-1.28,-0.86 -1.07,0.77 -1.2,-2.93l0.1 -47.39 70.32 0.11 0.27 47.89c-0.32,3.15 0.31,1.68 -1.21,2.31zm-149.55 -49.56c1.01,-1.05 -1,-0.4 1.76,-0.84l6.71 0.03c12.92,0 55.52,-0.66 61.78,0.21 0.74,6.27 0.07,34.19 0.18,44.77 0.06,6.29 0.31,4.79 -1.07,5.38l-69.34 -0.02 -0.01 -49.51zm165.8 -20.7l9.78 -0 -0.12 10.03 -9.85 -0 0.19 -10.03zm-55.22 0l44.92 -0 -0.12 10.03 -44.98 -0 0.17 -10.03zm-110.47 -40.14l100.23 -0 -0.16 50.17 -100.17 -0.03 0.11 -50.14zm110.73 20.07l64.74 0 -0.04 10.03 -65.13 0 0.42 -10.03zm-0.3 -20.07l65.06 0 -0.2 10.03 -64.97 0 0.11 -10.03zm74.61 82.08c0.94,-4.94 0.33,-84.48 0.33,-91.83l-195.43 0c-0.82,13.5 -0.09,52.32 -0.09,68.57 0,6.33 -0.19,61.56 -0.19,61.56l160.75 -0.11 0 -3.78c24.08,-4.79 11.59,-7.74 8.08,-18.78l19.3 -19.47 7.25 3.85z"/>
   <path class="fil2" d="M69.53 74.2c1.16,0.92 0.68,-1.34 1.02,2.31l-0.28 7.73 -8.32 0.25c-2.32,-0.39 -1.03,0.43 -1.72,-0.99l0.07 -9.28 9.23 -0.02zm-20.03 0c1.1,0.9 0.67,-1.26 1,2.3l-0.28 7.73c-1.95,0.32 -3.3,0.23 -5.26,0.25 -4.74,0.04 -4.13,0.33 -4.81,-0.84l0.09 -9.43 9.27 -0.01zm-20.08 0.01c1,0.8 1.02,-1.53 0.95,4.77 -0.02,1.91 0.06,3.34 -0.21,5.24 -1.94,0.35 -8.94,1.22 -10.08,-0.49l0.09 -9.53 9.25 0zm-19.36 20.04l195.92 0 -0.24 -30.09 -2.19 0 -199.29 0 5.8 0 0 30.09z"/>
   <path class="fil2" d="M224.32 215.53c18.07,-4.09 32.6,8.27 35.84,22.54 4.15,18.28 -8.55,32.79 -22.51,36.03 -18.38,4.27 -32.64,-8.14 -36.08,-22.36 -4.51,-18.67 8.41,-32.96 22.75,-36.21zm-25.33 -10.43l-7.73 8.02c0.72,3.59 5.11,8.6 4.89,10.98 -0.01,0.06 -4.09,10.17 -4.54,11.18 -2.02,1.16 -10.97,2.01 -10.97,4.72 0,13.27 -1.5,10.71 7.93,13.16 4.74,1.23 3.21,2.31 5,6.53 1.42,3.35 3.55,4.96 2.05,8.18 -1.31,2.82 -3.25,4.92 -4.45,7.98l8.05 8.53c2.62,-0.58 5.38,-2.49 7.8,-3.88 3.73,-2.15 3.95,-0.58 7.77,1.1 2.9,1.27 6.29,1.15 7.37,4.21 3.75,10.62 -2.07,9.19 14.8,9.11 5.23,-13.13 -1.94,-8.39 9.96,-13.36 4.02,-1.68 3.84,-3.21 7.35,-1.22 2.52,1.43 4.93,3.04 7.59,4.11l8.76 -8.43c-1.23,-2.82 -2.84,-5.26 -4.27,-7.76 -2.1,-3.69 -0.1,-3.32 2.69,-11.37 1.98,-5.71 3.6,-2.44 11.65,-5.95 0.44,-15.39 2.32,-11.51 -8.39,-14.68 -3.76,-1.11 -3.19,-4.09 -4.68,-7.5 -1.46,-3.34 -3.15,-4.17 -1.34,-7.37 1.45,-2.55 3.52,-5.43 4.23,-8.31l-8.45 -8.13c-3.02,1.3 -5.15,3.06 -7.76,4.43 -3.55,1.86 -4.6,-0.1 -8.19,-1.64 -3.6,-1.55 -5.68,-0.63 -6.81,-4.71 -2.75,-9.84 0.55,-8.41 -13.28,-8.41 -2.49,0 -2.89,5.56 -3.5,7.83 -1.33,4.97 -2.27,3.29 -6.92,5.24 -3.51,1.47 -4.64,3.5 -8.14,1.7 -2.7,-1.39 -5.01,-3.49 -8.48,-4.29z"/>
   <path class="fil0" d="M30.12 124.38l0.86 0 77.17 -0.05 2.25 0.27 0.01 29.72 -2.26 0.17 -78.03 0 0 -30.11zm-10.03 40.11l100.17 0.03 0.16 -50.17 -100.23 0 -0.11 50.14z"/>
   <polygon class="fil3" points="30.12,154.49 108.15,154.49 110.41,154.32 110.41,124.6 108.16,124.33 30.99,124.38 30.12,124.38 "/>
   <path class="fil0" d="M110.41 184.59l50 0 0.17 30.1 -50 0 -0.17 -30.1zm-9.06 40.15l68.29 0c1.56,-4.18 0.61,-42.02 0.61,-49.63l-69.84 0c0.34,7.61 -0.62,45.44 0.94,49.63z"/>
   <path class="fil0" d="M30.13 184.59l-1.57 0 51.74 0 0.51 30.1 -50.68 0 0 -30.1zm59.31 40.13c1.51,-5.51 0.44,-41.2 0.44,-49.76l-69.79 0.23 0.01 49.51 69.34 0.02z"/>
   <path class="fil0" d="M250.63 247.9c-4.6,26.52 -43.82,19.67 -39.57,-6.51 4.19,-25.84 44.04,-19.26 39.57,6.51zm-26.3 -32.36c-14.34,3.25 -27.26,17.54 -22.75,36.21 3.44,14.22 17.7,26.63 36.08,22.36 13.97,-3.24 26.66,-17.76 22.51,-36.03 -3.24,-14.27 -17.77,-26.64 -35.84,-22.54z"/>
   <polygon class="fil3" points="30.13,214.69 80.81,214.69 80.3,184.59 28.56,184.59 30.13,184.59 "/>
   <polygon class="fil3" points="110.58,214.69 160.58,214.69 160.4,184.59 110.41,184.59 "/>
   <path class="fil3" d="M216.06 188.06l0.86 -3.44 8.82 -0.08 0.07 -140.34 -9.72 -0.09c-0.81,3.28 -1.03,138.53 -0.02,143.96z"/>
   <path class="fil3" d="M235.83 184.51c7.43,0.09 9.48,-0.97 9.87,3.55l0.17 -143.88 -9.73 -0.08 -0.31 140.41z"/>
   <path class="fil1" d="M250.63 247.9c4.47,-25.77 -35.38,-32.35 -39.57,-6.51 -4.25,26.19 34.97,33.03 39.57,6.51z"/>
   <polygon class="fil0" points="130.52,124.38 195.49,124.38 195.69,114.35 130.63,114.35 "/>
   <polygon class="fil0" points="130.51,144.45 195.64,144.45 195.68,134.42 130.94,134.42 "/>
   <polygon class="fil0" points="130.5,164.52 175.49,164.52 175.6,154.48 130.68,154.49 "/>
   <polygon class="fil2" points="220.22,33.97 241.3,34.07 231.07,18.35 "/>
   <path class="fil4" d="M205.24 196.42c0.16,0.04 -1.17,1.84 0.49,0.02 1.87,-2.05 0.43,-91.07 -0.07,-92.23l-194.1 -0.15c-2.15,0.37 -0.49,0.06 -1.42,0.53l195.43 0c0,7.35 0.61,86.9 -0.33,91.83z"/>
   <polygon class="fil0" points="185.7,164.52 195.55,164.52 195.67,154.48 185.89,154.49 "/>
   <polygon class="fil0" points="20.07,83.74 29.74,83.92 29.41,74.22 20.16,74.21 "/>
   <polygon class="fil0" points="40.14,83.65 49.82,83.93 49.5,74.2 40.23,74.22 "/>
   <polygon class="fil0" points="60.23,83.5 69.88,83.91 69.53,74.2 60.3,74.22 "/>
   <path class="fil5" d="M89.44 224.72c1.38,-0.59 1.13,0.91 1.07,-5.38 -0.11,-10.57 0.56,-38.5 -0.18,-44.77 -6.26,-0.86 -48.86,-0.2 -61.78,-0.21l-6.71 -0.03c-2.76,0.44 -0.75,-0.21 -1.76,0.84l69.79 -0.23c0,8.57 1.07,44.25 -0.44,49.76z"/>
   <path class="fil6" d="M101.35 224.74c-1.56,-4.18 -0.61,-42.02 -0.94,-49.63l69.84 0c0,7.61 0.95,45.44 -0.61,49.63 1.51,-0.63 0.88,0.84 1.21,-2.31l-0.27 -47.89 -70.32 -0.11 -0.1 47.39c0.13,3.7 -0.08,2.06 1.2,2.93z"/>
   <path class="fil7" d="M20.07 83.74c1.14,1.71 8.14,0.84 10.08,0.49 0.27,-1.9 0.19,-3.34 0.21,-5.24 0.07,-6.3 0.05,-3.97 -0.95,-4.77l0.32 9.71 -9.66 -0.19z"/>
   <path class="fil8" d="M40.14 83.65c0.69,1.17 0.08,0.88 4.81,0.84 1.96,-0.02 3.3,0.07 5.26,-0.25l0.28 -7.73c-0.33,-3.57 0.11,-1.4 -1,-2.3l0.33 9.72 -9.68 -0.28z"/>
   <path class="fil9" d="M60.23 83.5c0.69,1.42 -0.6,0.59 1.72,0.99l8.32 -0.25 0.28 -7.73c-0.34,-3.64 0.14,-1.38 -1.02,-2.31l0.35 9.7 -9.65 -0.4z"/>
  </g>
 </g>
</svg>
