<?xml version="1.0" encoding="UTF-8"?>
<!DOCTYPE svg PUBLIC "-//W3C//DTD SVG 1.1//EN" "http://www.w3.org/Graphics/SVG/1.1/DTD/svg11.dtd">
<!-- Creator: CorelDRAW 2020 (64-Bit) -->
<svg xmlns="http://www.w3.org/2000/svg" xml:space="preserve" width="12.4499mm" height="12.4499mm" version="1.1" style="shape-rendering:geometricPrecision; text-rendering:geometricPrecision; image-rendering:optimizeQuality; fill-rule:evenodd; clip-rule:evenodd"
viewBox="0 0 3.17 3.17"
 xmlns:xlink="http://www.w3.org/1999/xlink"
 xmlns:xodm="http://www.corel.com/coreldraw/odm/2003">
 <defs>
  <style type="text/css">
   <![CDATA[
    .fil0 {fill:black}
    .fil4 {fill:#44C554}
    .fil7 {fill:#AAB2BD}
    .fil3 {fill:#CBD0D8}
    .fil6 {fill:#E6E9ED}
    .fil8 {fill:#FEC62A}
    .fil1 {fill:#FECCAB}
    .fil5 {fill:#FFB74D}
    .fil2 {fill:#FFD1B5}
   ]]>
  </style>
 </defs>
 <g id="Capa_x0020_1">
  <metadata id="CorelCorpID_0Corel-Layer"/>
  <g id="_2800375156608">
   <path class="fil0" d="M1.55 3.01c0.02,-0.01 0.03,-0.02 0.04,-0.04 0.02,-0.02 0.01,-0.02 0.03,-0.04 0.03,0.02 0.1,0.07 0.05,0.11 -0.04,0.04 -0.1,-0 -0.12,-0.04zm-0.21 -0.02c-0,-0 -0.02,-0.01 -0.01,-0.04 0,-0.02 0.01,-0.02 0.02,-0.03 0.01,-0.02 0.03,-0.03 0.05,-0.05 0.03,-0.03 0.06,-0.08 0.12,-0.04 0.05,0.06 -0.02,0.11 -0.05,0.13 -0.04,0.04 -0.05,0.07 -0.1,0.05 -0,-0 -0.01,-0.01 -0.02,-0.01 -0.01,-0.01 -0,0 -0.01,-0.01zm-0.15 -0.16c-0.01,-0.01 -0,0.01 -0.01,-0.02 -0.01,-0.04 0.04,-0.08 0.06,-0.1 0.03,-0.03 0.06,-0.08 0.12,-0.05 0.06,0.04 -0.02,0.11 -0.04,0.13 -0.04,0.04 -0.06,0.07 -0.1,0.06 -0.02,-0.01 -0.02,-0.01 -0.02,-0.02zm-0.15 -0.16c-0.04,-0.04 0.02,-0.09 0.05,-0.11 0.03,-0.03 0.07,-0.09 0.12,-0.05 0.09,0.05 -0.09,0.18 -0.09,0.18 -0.02,0.01 -0.07,0.01 -0.07,-0.02zm-0.04 -0.32c0.05,-0.02 0.1,0.04 0.05,0.1 -0.01,0.02 -0.09,0.09 -0.1,0.1 -0.06,0.02 -0.1,-0.05 -0.06,-0.1 0.02,-0.02 0.08,-0.08 0.11,-0.09zm0.65 -0.51c0.05,0 0.15,0.03 0.2,0.05 0.24,0.07 0.21,0.08 0.38,-0.02l0.49 -0.26c0.05,-0.03 0.3,-0.16 0.33,-0.17l0 0.56c-0.01,0.02 -0.19,0.1 -0.22,0.12 -0.13,0.07 -0.54,0.28 -0.64,0.32l-0.38 -0.35c-0.03,-0.02 -0.04,-0.04 -0.08,-0.07 -0.13,-0.1 -0.28,0.02 -0.4,0.1 -0.09,0.06 -0.15,-0.05 -0.09,-0.11 0.03,-0.02 0.15,-0.08 0.19,-0.1 0.06,-0.03 0.13,-0.08 0.21,-0.08zm0.06 0.59c0.01,0.04 -0,-0 0.01,0.02l0.15 0.13c0.06,0.05 0.14,0.1 0.12,0.15 -0.01,0.01 -0,0 -0.01,0.01 -0,0.01 0.01,0.01 -0.02,0.02 -0.04,0.01 -0.06,-0.01 -0.08,-0.03 -0.03,-0.03 -0.23,-0.2 -0.26,-0.21 -0.01,0.01 -0.04,0.06 -0.06,0.07 0.01,0.02 -0,0 0.01,0.01l0.15 0.13c0.05,0.04 0.17,0.11 0.11,0.16 -0,0.01 0.01,0.01 -0.02,0.02 -0.01,0.01 -0.02,0 -0.04,0 -0.04,-0.01 -0.09,-0.06 -0.12,-0.09 -0.07,-0.06 -0.04,-0.09 -0.16,-0.11 -0.02,-0.13 -0.08,-0.13 -0.15,-0.16 -0.01,-0.09 -0.06,-0.14 -0.15,-0.15 -0.01,-0.09 -0.08,-0.17 -0.19,-0.15 -0.06,0.01 -0.14,0.1 -0.19,0.15 -0.02,-0.01 -0.09,-0.05 -0.1,-0.06 -0.02,-0.01 -0.03,-0.02 -0.06,-0.03l0.14 -0.48 0.06 -0.01c0.05,-0.02 0.24,-0.06 0.3,-0.07 0.09,-0.01 0.23,-0 0.31,0.03 0.02,0.01 0,0 0.01,0.01 -0.08,0.05 -0.18,0.08 -0.26,0.13 -0.11,0.07 -0.1,0.2 -0.05,0.26 0.1,0.11 0.19,0.06 0.27,0.01 0.12,-0.07 0.18,-0.13 0.26,-0.07 0.09,0.07 0.22,0.21 0.31,0.28 0.04,0.03 0.14,0.11 0.14,0.15 0,0.03 -0.02,0.05 -0.04,0.05 -0.03,0.01 -0.05,-0.01 -0.07,-0.02l-0.26 -0.21c-0.02,0.02 -0.04,0.06 -0.06,0.07zm-1.29 -0.11c0,-0.08 0.15,-0.57 0.18,-0.72 0.03,0.01 0.1,0.05 0.12,0.07 -0,0.06 -0.07,0.27 -0.09,0.34 -0.03,0.11 -0.06,0.23 -0.1,0.34l-0.1 -0.03zm-0.32 -0.99c0.05,0 0.08,0.02 0.11,0.04l0.29 0.17 -0.18 0.74c-0.04,-0.01 -0.08,-0.02 -0.11,-0.04 -0.06,-0.02 -0.11,-0.02 -0.11,-0.06l0 -0.86zm2.56 0.13l0.09 0.03 -0.55 0.29c0,-0.06 0,-0.13 -0.01,-0.19 -0.01,-0.07 -0.04,-0.09 -0.06,-0.12 0.02,-0.01 0.04,-0.01 0.06,-0.02 0.12,-0.04 0.12,0.03 0.11,-0.19 -0.13,-0.09 -0.17,-0.13 -0.15,-0.35 0.01,-0.14 0.11,-0.24 0.25,-0.24 0.31,0 0.34,0.5 0.1,0.59 0,0.19 -0.02,0.16 0.08,0.19 0.03,0.01 0.06,0.01 0.08,0.02zm-1.69 -0.01c0.02,0 0.04,0.01 0.06,0.02 -0.05,0.09 -0.06,0.04 -0.07,0.21l-0.16 0.03 0 -0.11 -0.26 -0.16 0.07 -0.02c0.05,-0.01 0.04,0 0.04,-0.17 -0.15,-0.05 -0.16,-0.21 -0.15,-0.35 0.02,-0.31 0.48,-0.32 0.51,0.01 0.02,0.2 -0.02,0.25 -0.15,0.34 -0.01,0.22 -0.01,0.15 0.11,0.19zm1.11 0.17c0.02,0.02 0.01,0.14 0.01,0.18 0,0.06 -0.01,0.05 -0.12,0.02 -0.08,-0.02 -0.21,-0.07 -0.29,-0.08 -0.09,-0.01 -0.19,-0.06 -0.28,-0.08 -0.14,-0.04 -0.2,-0.02 -0.34,-0 0,-0.01 -0,-0.02 0,-0.03l0.01 -0.02c-0,-0.1 0.2,-0.13 0.29,-0.15 0.14,-0.03 0.11,0.01 0.11,-0.19 -0.05,-0.02 -0.1,-0.07 -0.13,-0.12 -0.06,-0.12 -0.05,-0.47 0.23,-0.47 0.31,0 0.34,0.5 0.1,0.59 0,0.2 -0.03,0.16 0.12,0.19 0.1,0.03 0.29,0.05 0.28,0.17zm-0.86 -0.7c0,0.13 -0.01,0.24 0.1,0.36 0.02,0.02 0.05,0.03 0.05,0.06 -0.01,0.01 -0.18,0.05 -0.2,0.05 -0.02,0 -0.19,-0.04 -0.2,-0.05 0,-0.03 0.01,-0.02 0.05,-0.07 0.11,-0.11 0.1,-0.21 0.1,-0.35 0,-0.16 -0.1,-0.12 0.04,-0.27 0.03,-0.04 0.06,-0.06 0.1,-0.09 0.26,-0.17 0.59,-0.12 0.77,0.13 0.08,0.11 0.01,0.07 0.01,0.22 0,0.15 -0.01,0.25 0.1,0.36 0.04,0.04 0.05,0.04 0.05,0.07 -0.01,0.01 -0.18,0.05 -0.2,0.05 -0.02,0 -0.19,-0.04 -0.2,-0.05 0,-0.04 0.04,-0.03 0.1,-0.13 0.06,-0.09 0.05,-0.18 0.05,-0.28 0,-0.14 -0.09,-0.27 -0.19,-0.33 -0.23,-0.12 -0.52,0.04 -0.52,0.31zm-0.18 -0.28c-0.01,0.02 -0.01,0.03 -0.04,0.04 -0.06,-0.09 -0.1,-0.02 -0.13,-0.14l-0.03 -0.07 0.16 -0.16 0.14 0.09c0.04,-0.02 0.08,-0.05 0.13,-0.07 0.05,-0.02 0.12,-0.04 0.14,-0.04 0,-0 0,-0 0,-0l0.04 -0.17 0.23 0c0,0.02 0.03,0.16 0.04,0.16l0.01 0.01c0,0 0.01,0 0.02,0.01 0.15,0.04 0.14,0.06 0.24,0.1l0.14 -0.09 0.16 0.16 -0.03 0.07c-0.02,0.06 -0.02,0.06 -0.06,0.08 -0.03,0.02 -0.06,0.04 -0.08,0.06 -0.01,-0.01 -0.02,-0.03 -0.03,-0.04 -0.02,-0.01 -0.01,-0.02 -0.02,-0.03 -0.04,-0.05 -0.13,-0.12 -0.19,-0.15 -0.09,-0.05 -0.2,-0.08 -0.32,-0.08 -0.23,0 -0.4,0.11 -0.53,0.27zm-0.05 -0.47l-0.27 0.27c0.01,0.05 0.04,0.09 0.05,0.13 -0.11,0 -0.19,0.02 -0.26,0.09 -0.13,0.13 -0.11,0.22 -0.11,0.38 0,0.07 0.04,0.16 0.08,0.2 0.05,0.06 0.08,0.06 0.08,0.09 -0.02,0.01 -0.09,0.03 -0.12,0.03 -0.02,0.01 -0.03,0 -0.05,-0.01l-0.09 -0.06c-0.16,-0.1 -0.11,-0.08 -0.3,-0.08l0 1.06c0.03,0 0.22,0.07 0.26,0.08 0.15,0.05 0.19,0.08 0.33,0.08 0.02,0 0.02,-0.02 0.02,-0.04 0.03,0.02 0.13,0.08 0.15,0.09 0,0.14 0.15,0.16 0.15,0.16 0.02,0.01 0.01,0 0.01,0.03 0,0.02 -0,0.01 0.01,0.03 0.01,0.02 0.02,0.03 0.03,0.05 0.02,0.03 0.06,0.05 0.11,0.05 0.02,0.08 0.06,0.15 0.15,0.15 0,0.1 0.11,0.19 0.23,0.14 0.07,-0.03 0.02,0.06 0.19,0.06 0.07,0 0.14,-0.07 0.14,-0.15 0.09,0 0.15,-0.06 0.15,-0.15 0.05,-0.01 0.07,-0.01 0.11,-0.05 0.03,-0.03 0.04,-0.06 0.05,-0.11 0.09,-0.01 0.15,-0.08 0.15,-0.18l0.91 -0.45 0 -0.75c-0.15,0 -0.09,-0.01 -0.2,0.05 -0.02,0.01 -0.03,0.02 -0.05,0.03 -0.03,0.02 -0.02,0.02 -0.05,0 -0.05,-0.02 -0.22,-0.05 -0.25,-0.07 0,-0.04 0.03,-0.03 0.08,-0.09 0.09,-0.11 0.08,-0.2 0.08,-0.33 0,-0.14 -0.09,-0.27 -0.21,-0.32 -0.05,-0.02 -0.08,-0.03 -0.16,-0.03 0.01,-0.05 0.04,-0.08 0.05,-0.13l-0.27 -0.27c-0.22,0.15 -0.12,0.1 -0.31,0.04 -0.05,-0.02 -0.04,-0 -0.06,-0.12 -0.01,-0.03 -0.01,-0.05 -0.01,-0.08l-0.4 0c-0,0.02 -0.01,0.05 -0.01,0.08 -0.03,0.15 -0.01,0.09 -0.13,0.15 -0.1,0.04 -0.05,0.06 -0.24,-0.06z"/>
   <path class="fil1" d="M1.65 1.84c-0.08,0 -0.15,0.04 -0.21,0.08 -0.04,0.02 -0.16,0.08 -0.19,0.1 -0.06,0.06 0,0.17 0.09,0.11 0.12,-0.08 0.27,-0.2 0.4,-0.1 0.03,0.02 0.05,0.04 0.08,0.07l0.38 0.35c0.1,-0.04 0.51,-0.26 0.64,-0.32 0.03,-0.01 0.21,-0.1 0.22,-0.12l0 -0.56c-0.04,0.01 -0.28,0.14 -0.33,0.17l-0.49 0.26c-0.18,0.1 -0.15,0.08 -0.38,0.02 -0.05,-0.01 -0.15,-0.05 -0.2,-0.05z"/>
   <path class="fil2" d="M0.84 1.81c-0.02,0.03 -0.1,0.32 -0.12,0.39 -0.01,0.02 -0.01,0.05 -0.02,0.07 -0.02,0.07 -0.02,0.05 -0.01,0.07 0.01,0.01 0.08,0.05 0.1,0.06 0.05,-0.05 0.13,-0.14 0.19,-0.15 0.11,-0.02 0.18,0.06 0.19,0.15 0.09,0.01 0.14,0.06 0.15,0.15 0.07,0.02 0.13,0.03 0.15,0.16 0.12,0.03 0.09,0.05 0.16,0.11 0.03,0.03 0.09,0.08 0.12,0.09 0.01,0 0.02,0 0.04,-0 0.03,-0.01 0.01,-0.01 0.02,-0.02 -0.01,-0.02 -0.05,-0.04 -0.07,-0.07l-0.23 -0.19c0.01,-0.01 0,-0.01 0.01,-0.02 0,-0 0.01,-0.01 0.01,-0.01l0.01 -0.01c0,-0 0,-0 0,-0 0.01,-0.01 0.05,-0.05 0.06,-0.07 0.03,0.01 0.23,0.18 0.26,0.21 0.02,0.02 0.04,0.04 0.08,0.03 0.03,-0.01 0.02,-0.01 0.02,-0.02l-0.31 -0.26 0.03 -0.04c0,-0 0,-0 0,-0 0.02,-0.01 0.04,-0.05 0.06,-0.07l0.26 0.21c0.02,0.01 0.04,0.03 0.07,0.02 0.02,-0 0.04,-0.02 0.04,-0.05 -0,-0.04 -0.1,-0.12 -0.14,-0.15 -0.08,-0.07 -0.22,-0.21 -0.31,-0.28 -0.08,-0.07 -0.15,-0 -0.26,0.07 -0.09,0.05 -0.18,0.1 -0.27,-0.01 -0.05,-0.06 -0.06,-0.19 0.05,-0.26 0.08,-0.05 0.18,-0.08 0.26,-0.13 -0.01,-0.01 0.01,0 -0.01,-0.01 -0.08,-0.04 -0.22,-0.05 -0.31,-0.03 -0.06,0.01 -0.25,0.05 -0.3,0.07z"/>
   <path class="fil3" d="M1.08 1.6c0.01,0.01 0.1,-0.01 0.13,-0.01 0.15,-0 0.24,0.03 0.38,0.08 0.08,0.02 0.17,0.04 0.25,0.06 0.05,0.01 0.2,0.07 0.24,0.05l0 -0.16c0.01,-0.12 -0.18,-0.14 -0.28,-0.17 -0.15,-0.04 -0.12,0.01 -0.12,-0.19 0.24,-0.09 0.21,-0.59 -0.1,-0.59 -0.28,-0 -0.29,0.34 -0.23,0.47 0.02,0.05 0.08,0.1 0.13,0.12 0,0.2 0.03,0.16 -0.11,0.19 -0.09,0.02 -0.29,0.05 -0.29,0.15z"/>
   <path class="fil3" d="M2.19 1.45c-0,0.02 0.03,0.07 0.05,0.1 0.02,0.05 0.01,0.09 0.01,0.14l0.32 -0.17c0.02,-0.01 0.03,-0.02 0.05,-0.03 0.06,-0.03 0.05,-0.01 0.04,-0.04 -0.02,-0.01 -0.05,-0.01 -0.08,-0.02 -0.11,-0.03 -0.08,0.01 -0.08,-0.19 0.24,-0.09 0.21,-0.59 -0.1,-0.59 -0.14,-0 -0.24,0.11 -0.25,0.24 -0.01,0.22 0.02,0.26 0.15,0.35 0.01,0.22 0.01,0.15 -0.11,0.19z"/>
   <path class="fil3" d="M0.63 1.43c0.02,0.04 0.22,0.12 0.24,0.15l0 0.07 0.05 -0.01c0.01,-0.14 0.06,-0.15 0.06,-0.19 -0.12,-0.04 -0.12,0.03 -0.11,-0.19 0.13,-0.09 0.17,-0.14 0.15,-0.34 -0.03,-0.33 -0.48,-0.33 -0.51,-0.01 -0.01,0.14 0.01,0.3 0.15,0.35 0,0.18 0.01,0.16 -0.04,0.17z"/>
   <path class="fil4" d="M0.1 2.19c0,0.03 0.05,0.04 0.11,0.06 0.04,0.01 0.08,0.03 0.11,0.04l0.18 -0.74 -0.29 -0.17c-0.04,-0.02 -0.06,-0.04 -0.11,-0.04l0 0.86z"/>
   <path class="fil5" d="M0.88 0.53c0.05,0.01 0.12,0.05 0.16,0.09 0.01,0.01 0,0 0.01,0.01 0.13,-0.17 0.3,-0.27 0.53,-0.27 0.12,-0 0.23,0.03 0.32,0.08 0.06,0.03 0.15,0.1 0.19,0.15 0.01,0.01 0.01,0.02 0.02,0.03 0.02,-0.01 0.05,-0.04 0.07,-0.05 0.03,-0.02 0.06,-0.03 0.09,-0.04l0.03 -0.07 -0.16 -0.16 -0.14 0.09c-0.1,-0.04 -0.1,-0.07 -0.24,-0.1 -0.01,-0 -0.01,-0 -0.02,-0.01l-0.01 -0.01c-0.01,-0.01 -0.04,-0.14 -0.04,-0.16l-0.23 -0 -0.04 0.17c-0,0 -0,0 -0,0 -0.01,0.01 -0.09,0.02 -0.14,0.04 -0.05,0.02 -0.09,0.05 -0.13,0.07l-0.14 -0.09 -0.16 0.16 0.03 0.07z"/>
   <path class="fil6" d="M0.42 2.32l0.1 0.03c0.04,-0.12 0.07,-0.23 0.1,-0.34 0.02,-0.07 0.09,-0.28 0.09,-0.34 -0.02,-0.02 -0.09,-0.06 -0.12,-0.07 -0.02,0.15 -0.17,0.64 -0.18,0.72z"/>
   <path class="fil7" d="M1.08 1.6l-0.01 0.02c-0,0.01 -0,0.02 -0,0.03 0.14,-0.02 0.2,-0.03 0.34,0 0.09,0.02 0.19,0.07 0.28,0.08 0.08,0.01 0.21,0.06 0.29,0.08 0.1,0.03 0.12,0.04 0.12,-0.02 -0,-0.04 0.01,-0.16 -0.01,-0.18l-0 0.16c-0.04,0.02 -0.19,-0.04 -0.24,-0.05 -0.08,-0.02 -0.17,-0.04 -0.25,-0.06 -0.14,-0.05 -0.23,-0.08 -0.38,-0.08 -0.02,0 -0.12,0.02 -0.13,0.01z"/>
   <path class="fil7" d="M2.66 1.46c0.01,0.02 0.02,0 -0.04,0.04 -0.02,0.01 -0.03,0.02 -0.05,0.03l-0.32 0.17c-0,-0.05 0,-0.09 -0.01,-0.14 -0.01,-0.04 -0.05,-0.08 -0.05,-0.1 -0.02,0 -0.04,0.01 -0.06,0.02 0.02,0.04 0.05,0.05 0.06,0.12 0.01,0.05 0.01,0.13 0.01,0.19l0.55 -0.29 -0.09 -0.03z"/>
   <path class="fil7" d="M0.98 1.45c0,0.04 -0.05,0.05 -0.06,0.19l-0.05 0.01 -0 -0.07c-0.02,-0.04 -0.22,-0.12 -0.24,-0.15l-0.07 0.02 0.26 0.16 -0 0.11 0.16 -0.03c0.01,-0.17 0.02,-0.13 0.07,-0.21 -0.02,-0.01 -0.04,-0.01 -0.06,-0.02z"/>
   <path class="fil2" d="M0.7 2.34c-0.01,-0.02 -0.01,-0 0.01,-0.07 0.01,-0.02 0.01,-0.04 0.02,-0.07 0.02,-0.07 0.1,-0.36 0.12,-0.39l-0.06 0.01 -0.14 0.48c0.02,0.01 0.03,0.02 0.06,0.03z"/>
   <path class="fil1" d="M1 2.35c-0.03,0.01 -0.09,0.07 -0.11,0.09 -0.05,0.05 -0,0.12 0.06,0.1 0.02,-0.01 0.09,-0.08 0.1,-0.1 0.05,-0.06 -0,-0.12 -0.05,-0.1z"/>
   <path class="fil2" d="M1.82 2.89c0.06,-0.05 -0.06,-0.12 -0.11,-0.16l-0.15 -0.13c-0.01,-0.01 0,0 -0.01,-0.01 -0,0 -0,0 -0,0l-0.01 0.01c-0,0 -0.01,0.01 -0.01,0.01 -0.01,0.01 -0.01,0.01 -0.01,0.02l0.23 0.19c0.03,0.02 0.07,0.05 0.07,0.07z"/>
   <path class="fil2" d="M1.98 2.73c0.01,-0.01 0,0 0.01,-0.01 0.02,-0.05 -0.06,-0.1 -0.12,-0.15l-0.15 -0.13c-0.01,-0.02 0,0.02 -0.01,-0.02 -0,0 -0,0 -0,0l-0.03 0.04 0.31 0.26z"/>
   <path class="fil1" d="M1.04 2.68c0,0.03 0.05,0.03 0.07,0.02 0,-0 0.18,-0.13 0.09,-0.18 -0.02,0.01 -0.03,0.03 -0.04,0.04l-0.08 0.08c-0.01,0.01 -0.03,0.02 -0.04,0.04z"/>
   <path class="fil1" d="M1.34 2.99c0,0.01 -0,0 0.01,0.01 0,0 0.01,0.01 0.02,0.01 0.04,0.01 0.06,-0.02 0.1,-0.05 0.03,-0.03 0.1,-0.08 0.05,-0.13 -0.02,0.01 -0.01,-0 -0.03,0.02l-0.14 0.14z"/>
   <path class="fil1" d="M1.19 2.83c-0,0.01 0,0.02 0.02,0.02 0.05,0.01 0.07,-0.02 0.1,-0.06 0.02,-0.02 0.1,-0.09 0.04,-0.13 -0.03,0.01 -0.03,0.03 -0.04,0.05l-0.12 0.12z"/>
   <path class="fil2" d="M1.55 3.01c0.02,0.03 0.08,0.08 0.12,0.04 0.05,-0.05 -0.02,-0.1 -0.05,-0.11 -0.02,0.02 -0.01,0.02 -0.03,0.04 -0.01,0.01 -0.02,0.03 -0.04,0.04z"/>
   <path class="fil1" d="M1.19 2.83l0.12 -0.12c0.02,-0.02 0.02,-0.04 0.04,-0.05 -0.06,-0.04 -0.09,0.02 -0.12,0.05 -0.02,0.02 -0.07,0.06 -0.06,0.1 0.01,0.03 0,0.01 0.01,0.02z"/>
   <path class="fil1" d="M1.04 2.68c0.01,-0.01 0.03,-0.03 0.04,-0.04l0.08 -0.08c0.01,-0.01 0.02,-0.03 0.04,-0.04 -0.05,-0.04 -0.09,0.02 -0.12,0.05 -0.03,0.03 -0.09,0.08 -0.05,0.11z"/>
   <path class="fil1" d="M1.34 2.99l0.14 -0.14c0.02,-0.03 0.01,-0.01 0.03,-0.02 -0.06,-0.03 -0.09,0.02 -0.12,0.04 -0.02,0.02 -0.04,0.03 -0.05,0.05 -0.01,0.01 -0.01,0.02 -0.02,0.03 -0,0.03 0.01,0.04 0.01,0.04z"/>
   <path class="fil8" d="M1.05 0.63c-0,-0.01 -0,-0 -0.01,-0.01 -0.03,-0.04 -0.11,-0.08 -0.16,-0.09 0.03,0.11 0.07,0.05 0.13,0.14 0.02,-0.01 0.03,-0.02 0.04,-0.04z"/>
   <path class="fil8" d="M2.11 0.62c0.01,0.02 0.02,0.03 0.03,0.04 0.02,-0.02 0.05,-0.04 0.08,-0.06 0.04,-0.02 0.04,-0.02 0.06,-0.08 -0.03,0.01 -0.07,0.02 -0.09,0.04 -0.03,0.02 -0.06,0.05 -0.07,0.05z"/>
  </g>
 </g>
</svg>
