<?xml version="1.0" encoding="UTF-8"?>
<!DOCTYPE svg PUBLIC "-//W3C//DTD SVG 1.1//EN" "http://www.w3.org/Graphics/SVG/1.1/DTD/svg11.dtd">
<!-- Creator: CorelDRAW 2020 (64-Bit) -->
<svg xmlns="http://www.w3.org/2000/svg" xml:space="preserve" width="102.412mm" height="163.689mm" version="1.1" style="shape-rendering:geometricPrecision; text-rendering:geometricPrecision; image-rendering:optimizeQuality; fill-rule:evenodd; clip-rule:evenodd"
viewBox="0 0 119.13 190.4"
 xmlns:xlink="http://www.w3.org/1999/xlink"
 xmlns:xodm="http://www.corel.com/coreldraw/odm/2003">
 <defs>
  <style type="text/css">
   <![CDATA[
    .fil0 {fill:black}
    .fil5 {fill:#784132}
    .fil3 {fill:#A65D4E}
    .fil4 {fill:#B36D59}
    .fil8 {fill:#C28578}
    .fil6 {fill:#D88CAA}
    .fil11 {fill:#F25A6B}
    .fil10 {fill:#F9A58D}
    .fil7 {fill:#FAA68E}
    .fil2 {fill:#FBACC8}
    .fil9 {fill:#FECCBD}
    .fil1 {fill:#FECCBE}
    .fil12 {fill:#FF808C}
   ]]>
  </style>
 </defs>
 <g id="Capa_x0020_1">
  <metadata id="CorelCorpID_0Corel-Layer"/>
  <g id="_2869776206576">
   <path class="fil0" d="M24.17 158.51c0.3,-0.26 21.26,-8.9 22.82,-9.39 6.06,7.39 18.35,7.77 25.04,0.01 1.67,0.54 4.24,1.82 6.11,2.56 2.07,0.82 3.99,1.59 6.1,2.45 4.07,1.66 8.13,3.24 12.24,4.87 3.43,1.36 9.27,3.34 12.14,4.97 4.24,2.41 4.44,6.36 4.44,12.31l-0 3.4c-3.82,1.2 -6.76,2.65 -11.22,3.6 -4.51,0.96 -8.59,1.18 -13.32,1.17 -9.67,-0 -19.34,-0 -29.01,-0 -10.09,0 -33.77,0.76 -42.64,-1.24 -4.3,-0.97 -7.28,-2.47 -10.91,-3.54 0,-6.84 -0.72,-12.46 4.19,-15.57 1.73,-1.09 11.77,-4.97 14.03,-5.6zm44.26 -24.65c-0,3.69 0.98,9.7 -1.3,12.11 -2.1,2.22 -6.25,3.42 -10.08,2.53 -8.43,-1.51 -6.51,-7.29 -6.46,-18.73 8.06,1.13 9.58,1.57 17.84,0.01l0 4.08zm36.07 -28.16c0.62,-0.66 2.03,-1.26 2.93,-1.99 1.02,-0.83 1.63,-1.62 2.65,-2.29l-0.07 56.6 -5.88 -2.44c-3.48,-1.09 -7.05,-2.74 -10.51,-4.12 -3.5,-1.41 -6.94,-2.76 -10.37,-4.13 -4.66,-1.86 -8.56,-2.52 -8.86,-5.62 -0.36,-3.74 -0.08,-10.19 0.01,-14.14 4.2,-1.85 10.35,-6.01 12.81,-8.73 3.01,-3.33 6.96,-6.52 9.32,-11.72 3.56,-0.01 5.01,-0.53 7.97,-1.4zm-89.61 49.89l-5.96 2.4 0.01 -56.58c1.1,0.73 1.64,1.49 2.85,2.46 0.73,0.58 2.23,1.34 2.72,1.83 3.01,0.87 4.36,1.39 7.97,1.4 0.89,1.97 2.98,4.8 4.28,6.34 4.09,4.88 11.99,12.09 17.85,14.1 0.3,14.45 1.63,15.61 -4.07,17.86 -7.82,3.09 -18.4,7.86 -25.64,10.19zm85.3 -54.92c2.75,-5.86 5.2,-12.99 6.2,-20.31 8.56,0.03 1.58,19.59 -6.2,20.31zm-81.38 0c-3.56,-0.32 -7.25,-5.04 -8.55,-8.29 -1.48,-3.69 -3.36,-12 2.35,-12.02 1.02,7.34 3.42,14.43 6.2,20.31zm-0.96 -29.31l0 -5.95c12.52,-0.37 24.97,-1.9 36.32,-5.3 5.41,-1.62 10.3,-3.46 14.83,-5.99 5.69,-3.18 6.48,-3.97 10.2,-8.03l1.26 -1.05 0.3 -1.12 11.36 10.85c3.94,3.14 7.64,6.16 8.81,13.2 2.79,26.46 -17.07,55.3 -39.56,56.9 -14.84,1.05 -26.01,-9.93 -31.54,-17.1 -7.04,-9.14 -11.68,-21.58 -11.98,-36.4zm58.58 -31.83c-3.56,8.54 -20.72,14.63 -32.79,17.1 -34.64,7.1 -32.09,-5.08 -31.67,17.66l-3.04 0.56c0,-8.81 -0.75,-21.56 0.8,-29.78 1.46,-7.78 5.85,-16.55 9.86,-20.68 1.32,-1.89 3.98,-4.95 5.84,-5.57 1.13,-2.43 8.78,-6.47 12.07,-8.11 9.06,-4.24 20.65,-5.91 31.58,-3.9 5.14,0.94 9.63,2.46 13.93,4.62 3.51,1.76 9.22,5.2 11.04,7.64 1.64,0.83 4.19,3.56 5.33,5.32 2.62,2.53 9.67,14.08 9.4,19.71 2.21,2.35 1.29,25.93 1.3,30.7l-3.06 -0.43c0.19,-9.23 -1.15,-14.59 -6.24,-19.72 -4.18,-4.21 -12.21,-9.73 -13.3,-12.54 -2.4,-0.93 -3.49,-6.81 -5.12,-8.47 -1.46,-1.48 -3.78,-0.81 -4.58,0.62 -0.6,1.08 -0.58,3.56 -1.36,5.27zm-76.43 131.15l0 10.78c0,2.59 2.23,3.08 4.47,4.09 6.07,2.74 14.68,4.84 21.94,4.84l66.19 0c7.31,0 18.44,-2.6 24.74,-6.12 0.99,-0.56 1.66,-1.42 1.66,-2.8 0,-6.06 0.76,-11.91 -1.48,-16.37 -1.29,-2.57 -1.54,-1.64 -1.5,-5.56 0.18,-18.48 0.39,-107.69 -0.42,-113.37 -1.71,-11.93 -8.84,-24.97 -17.74,-32.09 -9.88,-7.91 -21.91,-14.08 -35.76,-14.08 -10.76,0 -18.85,1.01 -27.89,5.58 -3.33,1.68 -5.99,3.14 -8.92,5.21 -11.3,7.97 -19.67,20.92 -21.84,35.06 -0.94,6.13 -0.62,94.27 -0.47,113.32 0.05,6.96 -2.98,5.39 -2.98,11.53z"/>
   <path class="fil1" d="M43.61 98.49c1.37,-0.67 22.81,-0.31 26.3,-0.31 4.56,-0 8.83,-0.34 6.88,5.38 -3.55,10.41 -15.69,15.65 -25.69,10.44 -6.21,-3.24 -12.56,-13.02 -7.49,-15.51zm24.82 -15.2c0.79,-15.76 24.11,-16.18 23.81,0.01l-5.98 0c-0.23,-4.07 -1.6,-6.01 -5.94,-5.93 -3.54,0.06 -5.66,2.51 -5.95,5.93l-5.95 -0.01zm-41.67 0.01c-0.33,-16.15 22.98,-15.81 23.79,-0l-5.95 0c-0.29,-3.37 -2.45,-5.87 -5.95,-5.93 -4.34,-0.08 -5.71,1.86 -5.94,5.93l-5.96 0zm-8.92 -11.93c0.3,14.82 4.94,27.26 11.98,36.4 5.53,7.18 16.7,18.16 31.54,17.1 22.48,-1.6 42.34,-30.43 39.56,-56.9 -1.37,-0.8 -1.69,-1.94 -2.68,-2.96l-8.95 -7.41c-1.15,-0.93 -1.54,-1.63 -2.83,-2.74 -2.29,-1.96 -4.69,-6.73 -6.01,-9.82 -1.59,7.26 -4.52,9.93 -9.21,13.18 -4.14,2.88 -9.72,5.3 -15.22,7.09 -11.94,3.89 -24.87,5.51 -38.17,6.05z"/>
   <path class="fil2" d="M24.17 158.51c-1.55,3.83 -1.16,16.16 8.16,19.27 4.32,1.44 58.04,0.73 68.82,0.73 6.95,0 6.41,-0.01 11.9,-2.23 -0,-5.95 -0.2,-9.9 -4.44,-12.31 -2.86,-1.63 -8.71,-3.61 -12.14,-4.97 -4.11,-1.63 -8.16,-3.22 -12.24,-4.87 -2.12,-0.86 -4.03,-1.63 -6.1,-2.45 -1.86,-0.74 -4.44,-2.02 -6.11,-2.56 -6.69,7.76 -18.98,7.38 -25.04,-0.01 -1.55,0.49 -22.51,9.14 -22.82,9.39z"/>
   <path class="fil3" d="M76.43 39.54c-3.98,-0.82 -14.84,-4.78 -17.09,-6.77l-0.61 0.01c-7.8,-0.31 -14.28,-0.53 -21.89,-1.91 -4.91,-0.89 -9.21,-2.21 -13.72,-4.14 -0.76,-0.32 -1.39,-0.59 -2.01,-0.94l-1.52 -1.38c-4,4.13 -8.39,12.9 -9.86,20.68 -1.55,8.22 -0.8,20.97 -0.8,29.78l3.04 -0.56c-0.41,-22.75 -2.96,-10.57 31.67,-17.66 12.08,-2.47 29.23,-8.56 32.79,-17.1z"/>
   <path class="fil4" d="M37.49 10.72c0.05,2.68 3.09,7.01 4.41,8.73 3.72,4.85 3.77,3.77 6.41,6.6 -10.88,-0.18 -18.86,-6.06 -22.9,-7.21 -1.85,0.62 -4.52,3.68 -5.84,5.57l1.52 1.38c0.62,0.35 1.25,0.62 2.01,0.94 4.51,1.93 8.82,3.24 13.72,4.14 7.61,1.39 14.09,1.6 21.89,1.91 -1.18,-1.26 -6.65,-3.62 -9.26,-6.36 12.66,-0.13 21.42,1.65 35.33,-3.37 3.18,-1.15 7.97,-4.01 9.26,-3.96 -1.82,-2.44 -7.53,-5.88 -11.04,-7.64 -4.3,-2.16 -8.8,-3.67 -13.93,-4.62 -10.93,-2.01 -22.53,-0.35 -31.58,3.9z"/>
   <path class="fil5" d="M14.89 155.59c7.24,-2.34 17.82,-7.1 25.64,-10.19 5.7,-2.25 4.37,-3.41 4.07,-17.86 -5.86,-2.01 -13.76,-9.22 -17.85,-14.1 -1.3,-1.55 -3.39,-4.38 -4.28,-6.34 -3.61,-0.01 -4.96,-0.52 -7.97,-1.4 1.05,2.68 0.29,43.25 0.39,49.89z"/>
   <path class="fil5" d="M104.13 155.57c-0.03,-6.45 -0.71,-47.11 0.36,-49.87 -2.96,0.86 -4.41,1.39 -7.97,1.4 -2.36,5.2 -6.31,8.38 -9.32,11.72 -2.46,2.72 -8.61,6.89 -12.81,8.73 -0.08,3.95 -0.37,10.4 -0.01,14.14 0.3,3.1 4.2,3.76 8.86,5.62 3.44,1.37 6.87,2.73 10.37,4.13 3.45,1.39 7.03,3.03 10.51,4.12z"/>
   <path class="fil6" d="M113.05 176.29c-5.49,2.21 -4.95,2.23 -11.9,2.23 -10.78,-0 -64.5,0.71 -68.82,-0.73 -9.32,-3.11 -9.7,-15.44 -8.16,-19.27 -2.26,0.62 -12.3,4.5 -14.03,5.6 -4.92,3.11 -4.19,8.73 -4.19,15.57 3.63,1.06 6.6,2.57 10.91,3.54 8.88,2 32.56,1.24 42.64,1.24 9.67,0 19.34,-0 29.01,0 4.74,0 8.82,-0.22 13.32,-1.17 4.46,-0.95 7.4,-2.4 11.22,-3.6l0 -3.4z"/>
   <path class="fil4" d="M59.33 32.77c2.25,2 13.11,5.95 17.09,6.77 0.78,-1.7 0.77,-4.19 1.36,-5.27 0.79,-1.43 3.12,-2.1 4.58,-0.62 1.64,1.66 2.72,7.54 5.12,8.47 2.82,0.91 7.64,1.42 10.71,1.74 1.81,0.18 9.85,1.27 10.58,0.25 0.26,-5.64 -6.79,-17.19 -9.4,-19.71 -0.38,0.42 -0.21,0.27 -0.68,0.65l-7.71 3.48c-2.97,0.99 -6.24,1.79 -9.51,2.39 -7.2,1.32 -14.5,1.51 -22.15,1.85z"/>
   <path class="fil0" d="M56.82 104.13l5.35 0 7.54 -0c-0.6,1.33 -0.23,1.16 -1.37,1.65 -2.71,5.52 -15.02,5.43 -17.7,-0 -1.13,-0.5 -0.77,-0.34 -1.37,-1.65l7.54 0.01zm-13.21 -5.64c-5.07,2.49 1.28,12.27 7.49,15.51 10,5.22 22.14,-0.03 25.69,-10.44 1.95,-5.72 -2.32,-5.39 -6.88,-5.38 -3.49,0 -24.93,-0.36 -26.3,0.31z"/>
   <path class="fil7" d="M17.85 71.37c13.3,-0.54 26.23,-2.16 38.17,-6.05 5.5,-1.79 11.08,-4.21 15.22,-7.09 4.69,-3.25 7.63,-5.92 9.21,-13.18l-1.26 1.05c-3.72,4.06 -4.51,4.85 -10.2,8.03 -4.53,2.53 -9.42,4.37 -14.83,5.99 -11.35,3.4 -23.79,4.93 -36.32,5.3l-0 5.95z"/>
   <path class="fil3" d="M104.5 105.7c-1.08,2.75 -0.4,43.42 -0.36,49.87l5.88 2.44 0.07 -56.6c-1.02,0.67 -1.64,1.46 -2.65,2.29 -0.9,0.73 -2.31,1.33 -2.93,1.99z"/>
   <path class="fil3" d="M14.89 155.59c-0.09,-6.64 0.67,-47.21 -0.39,-49.89 -0.5,-0.49 -1.99,-1.25 -2.72,-1.83 -1.21,-0.97 -1.75,-1.73 -2.85,-2.46l-0.01 56.58 5.96 -2.4z"/>
   <path class="fil8" d="M58.72 32.77l0.61 -0.01c7.65,-0.34 14.95,-0.53 22.15,-1.85 3.28,-0.6 6.54,-1.4 9.51,-2.39l7.71 -3.48c0.47,-0.38 0.3,-0.23 0.68,-0.65 -1.14,-1.76 -3.69,-4.49 -5.33,-5.32 -1.29,-0.05 -6.08,2.81 -9.26,3.96 -13.91,5.02 -22.67,3.24 -35.33,3.37 2.61,2.75 8.08,5.11 9.26,6.36z"/>
   <path class="fil3" d="M108.78 44.11c-0.73,1.02 -8.77,-0.07 -10.58,-0.25 -3.08,-0.31 -7.9,-0.82 -10.71,-1.74 1.09,2.81 9.12,8.33 13.3,12.54 5.09,5.13 6.43,10.49 6.24,19.72l3.06 0.43c-0.01,-4.77 0.91,-28.36 -1.3,-30.7z"/>
   <path class="fil0" d="M68.44 83.29l5.95 0.01c0.29,-3.42 2.41,-5.87 5.95,-5.93 4.33,-0.08 5.7,1.86 5.94,5.93l5.98 0c0.29,-16.19 -23.02,-15.77 -23.81,-0.01z"/>
   <path class="fil0" d="M26.77 83.3l5.96 0c0.23,-4.07 1.61,-6.01 5.94,-5.93 3.5,0.06 5.65,2.56 5.95,5.93l5.95 -0c-0.81,-15.8 -24.12,-16.15 -23.79,0z"/>
   <path class="fil9" d="M57.04 148.5c3.84,0.89 7.98,-0.31 10.08,-2.53 2.28,-2.41 1.3,-8.42 1.3,-12.11 -4.7,0 -8.68,-0.65 -10.84,2.58 -1.7,2.54 -1.34,8.97 -0.54,12.06z"/>
   <path class="fil10" d="M57.04 148.5c-0.79,-3.09 -1.16,-9.51 0.54,-12.06 2.17,-3.23 6.14,-2.58 10.84,-2.58l-0 -4.08c-8.27,1.56 -9.79,1.12 -17.84,-0.01 -0.05,11.43 -1.97,17.21 6.46,18.73z"/>
   <path class="fil3" d="M25.42 18.83c4.03,1.15 12.01,7.04 22.9,7.21 -2.64,-2.83 -2.69,-1.75 -6.41,-6.6 -1.32,-1.72 -4.37,-6.05 -4.41,-8.73 -3.29,1.65 -10.94,5.68 -12.07,8.11z"/>
   <path class="fil7" d="M80.45 45.04c1.32,3.09 3.72,7.86 6.01,9.82 1.29,1.1 1.69,1.81 2.83,2.74l8.95 7.41c0.99,1.02 1.31,2.16 2.68,2.96 -1.17,-7.04 -4.87,-10.06 -8.81,-13.2l-11.36 -10.85 -0.3 1.12z"/>
   <path class="fil10" d="M18.81 100.67c-2.78,-5.88 -5.18,-12.97 -6.2,-20.31 -5.71,0.02 -3.82,8.34 -2.35,12.02 1.3,3.24 4.99,7.97 8.55,8.29z"/>
   <path class="fil10" d="M100.19 100.67c7.78,-0.72 14.76,-20.28 6.2,-20.31 -1,7.32 -3.45,14.45 -6.2,20.31z"/>
   <path class="fil11" d="M50.65 105.78c2.67,5.43 14.99,5.52 17.7,0 -0.24,-0.02 -5.81,-1.49 -6.17,-1.65l-5.35 0c-0.33,0.14 -5.98,1.63 -6.17,1.65z"/>
   <path class="fil12" d="M68.35 105.78c1.14,-0.49 0.77,-0.32 1.37,-1.65l-7.54 0c0.36,0.15 5.93,1.62 6.17,1.65z"/>
   <path class="fil12" d="M50.65 105.78c0.2,-0.02 5.85,-1.51 6.17,-1.65l-7.54 -0.01c0.6,1.32 0.24,1.16 1.37,1.65z"/>
  </g>
 </g>
</svg>
