<?xml version="1.0" encoding="UTF-8"?>
<!DOCTYPE svg PUBLIC "-//W3C//DTD SVG 1.1//EN" "http://www.w3.org/Graphics/SVG/1.1/DTD/svg11.dtd">
<!-- Creator: CorelDRAW 2020 (64-Bit) -->
<svg xmlns="http://www.w3.org/2000/svg" xml:space="preserve" width="5.4528mm" height="5.4528mm" version="1.1" style="shape-rendering:geometricPrecision; text-rendering:geometricPrecision; image-rendering:optimizeQuality; fill-rule:evenodd; clip-rule:evenodd"
viewBox="0 0 0.29 0.29"
 xmlns:xlink="http://www.w3.org/1999/xlink"
 xmlns:xodm="http://www.corel.com/coreldraw/odm/2003">
 <defs>
  <style type="text/css">
   <![CDATA[
    .fil2 {fill:black}
    .fil5 {fill:#0691CD}
    .fil6 {fill:#0691CE}
    .fil4 {fill:#3FC0F9}
    .fil3 {fill:#61C389}
    .fil1 {fill:#71E49F}
    .fil0 {fill:#B3B3B3}
   ]]>
  </style>
 </defs>
 <g id="Capa_x0020_1">
  <metadata id="CorelCorpID_0Corel-Layer"/>
  <g id="_2982118967600">
   <circle class="fil0" cx="0.14" cy="0.14" r="0.14"/>
   <path class="fil1" d="M0.13 0.21c0.02,0.01 0.04,0 0.06,-0.01 0.01,-0.01 0.01,-0.01 0.01,-0.02 -0,-0 -0.01,-0.01 -0.01,-0.02 -0,-0 -0,-0 -0,-0 -0,-0 -0.01,0 -0.01,0.01 -0,0 -0,0 -0.01,0.01 -0,0 -0.01,0.01 -0.01,0.01 -0.01,0 -0.03,-0.02 -0.03,-0.02 -0,-0 -0.01,-0 -0.01,-0 -0,-0 -0.01,-0.01 -0.01,-0.01 -0,-0.01 -0.01,-0.01 -0.01,-0.01 -0,-0.01 -0.01,-0.02 -0.01,-0.02 0,-0.01 0.01,-0.01 0.01,-0.01 0,-0 0.01,-0.01 0.01,-0.01 0,-0.01 -0,-0.01 -0.01,-0.02 -0,-0 -0.01,-0.01 -0.01,-0.01 -0.01,-0 -0.01,0.01 -0.02,0.01 -0.02,0.02 -0.01,0.05 0,0.07 0.01,0.01 0.02,0.03 0.03,0.04 0.01,0.01 0.02,0.02 0.03,0.02l0 0z"/>
   <path class="fil2" d="M0.13 0.22l0 -0 -0 -0c-0.01,-0.01 -0.02,-0.01 -0.03,-0.02 -0.01,-0.01 -0.02,-0.02 -0.03,-0.04 -0.01,-0.02 -0.02,-0.05 -0,-0.07 0,-0.01 0.01,-0.01 0.02,-0.01 0.01,0 0.01,0.01 0.01,0.01 0,0 0.01,0.01 0.01,0.01 0,0 0,0 0,0.01 0,0.01 -0.02,0.01 -0.02,0.03 0,0.01 0.01,0.02 0.01,0.02 0,0 0,0 0,0l0.01 0.01c0,0 0,0 0,0 0,0 0.01,0 0.01,0.01 0,0 0.02,0.02 0.03,0.02 0.01,-0 0.01,-0.01 0.01,-0.01 0,-0 0,-0 0.01,-0.01 0,-0 0,-0.01 0.01,-0.01 0,-0 0.01,0 0.01,0 0,0 0,0 0.01,0.01 0,0 0.01,0.01 0.01,0.01 0,0 0.01,0.01 0.01,0.01 0,0.01 -0,0.01 -0.01,0.01 -0.01,0.01 -0.03,0.02 -0.05,0.01 -0.01,-0 -0.01,-0.01 -0.02,-0 -0,0 0,0 0,0 0,0 0.01,0 0.01,0 0,0 0,0 0.01,0l0.01 0c0,-0 0,-0 0,-0 0.01,-0 0.02,-0.01 0.03,-0.02l0 -0c0,-0.01 0,-0.01 0,-0.02 -0,-0.01 -0.01,-0.01 -0.02,-0.02 -0,-0 -0.01,-0.01 -0.01,-0.01 -0.01,-0 -0.02,0.01 -0.02,0.01 -0.01,0.01 -0.01,0.01 -0.02,0.01 -0.01,-0 -0.01,-0.01 -0.02,-0.01 -0,-0 -0.01,-0.01 -0.01,-0.01 -0,-0.01 -0.01,-0.02 -0.01,-0.02 -0,-0 0,-0.01 0,-0.01 0.01,-0.01 0.01,-0.01 0.02,-0.02 0,-0.01 0,-0.01 -0,-0.02 -0,-0 -0.01,-0.01 -0.01,-0.01 -0,-0 -0.01,-0.01 -0.01,-0.01 -0.01,-0 -0.01,-0 -0.02,0 -0.01,0.01 -0.02,0.02 -0.02,0.03 -0,0.01 -0,0.01 -0,0.02l0 0.01c0,0.01 0,0.01 0,0.02 0.01,0.03 0.02,0.05 0.05,0.07 0.01,0.01 0.01,0.01 0.02,0.01 0,0 0,0 0,0 0,0 0.01,0 0.01,0z"/>
   <path class="fil2" d="M0.15 0.12c0,0 0,-0 0.01,-0 0,-0 0.04,-0.04 0.04,-0.04l0 0 0 0c-0,0 -0.03,0.03 -0.04,0.04 -0.01,0.01 -0,0.01 -0,0.01 -0,0 -0.02,0 -0.02,0 -0,0 -0,0 -0.01,0 0,-0 0,-0.02 0,-0.02 0,0 0,0 0,0zm0.03 0.02c0,-0 -0.01,-0.01 -0.01,-0.01 0,-0 0.03,-0.03 0.04,-0.04 0.01,-0.01 0.01,-0.01 -0,-0.01 -0.01,-0.01 -0.01,-0.01 -0.01,-0 -0,0 -0.04,0.04 -0.04,0.04 -0,-0 -0.01,-0.01 -0.01,-0l-0.01 0.03c-0,0.01 -0,0.01 0.02,0 0,-0 0.01,-0 0.01,-0 0,-0 0.01,-0 0.01,-0z"/>
   <path class="fil3" d="M0.12 0.17c-0,-0 -0,-0 -0.01,-0.01 -0,-0 -0,-0 -0,-0l-0.01 -0.01c-0,-0 -0,-0 -0,-0 -0,-0.01 -0.01,-0.02 -0.01,-0.02 -0,-0.02 0.03,-0.02 0.02,-0.03 -0,-0 -0,-0.01 -0,-0.01 -0,-0 -0.01,-0.01 -0.01,-0.01 -0,-0 -0.01,-0.01 -0.01,-0.01 0,0 0.01,0.01 0.01,0.01 0,0 0.01,0.01 0.01,0.02 -0,0 -0.01,0.01 -0.01,0.01 -0,0 -0.01,0.01 -0.01,0.01 -0,0.01 0.01,0.02 0.01,0.02 0,0.01 0.01,0.01 0.01,0.01 0,0 0.01,0.01 0.01,0.01 0,0 0.01,0 0.01,0z"/>
   <path class="fil3" d="M0.13 0.21l-0 0c0,0 0,0 0,0 0,0 0,0 0,0 0,-0 0.01,-0 0.02,0 0.02,0 0.04,-0 0.05,-0.01 0,-0 0.01,-0.01 0.01,-0.01 -0,-0.01 -0.01,-0.01 -0.01,-0.01 -0,-0 -0.01,-0.01 -0.01,-0.01 -0,-0 -0,-0 -0.01,-0.01 -0,-0 -0.01,-0 -0.01,-0 0,0 0,-0 0,0 0,0 0.01,0.01 0.01,0.02 0.01,0.01 -0,0.02 -0.01,0.02 -0.01,0.01 -0.04,0.02 -0.06,0.01z"/>
   <path class="fil4" d="M0.2 0.08c-0,0 -0.03,0.03 -0.04,0.04 -0,0 -0.01,-0 -0.01,0 -0,0 -0,0 -0.01,0 -0,0 -0,0.01 -0,0.01 -0,0 -0,0.01 -0,0.01 0,0 0.02,-0 0.02,-0 -0,-0.01 -0.01,-0 0,-0.01 0,-0 0.04,-0.04 0.04,-0.04l-0 -0z"/>
   <path class="fil5" d="M0.2 0.08l-0 -0c-0,0 -0.04,0.04 -0.04,0.04 0,-0 0,0 0.01,-0 0,-0 0.03,-0.03 0.04,-0.04z"/>
   <path class="fil6" d="M0.15 0.13c-0,-0 0,-0.01 0,-0.01 0,-0 0,-0.01 0,-0.01 -0,-0 -0,-0 -0,-0 -0,0 -0,0.02 -0,0.02 0,-0 0.01,-0 0.01,-0z"/>
  </g>
 </g>
</svg>
