<?xml version="1.0" encoding="UTF-8"?>
<!DOCTYPE svg PUBLIC "-//W3C//DTD SVG 1.1//EN" "http://www.w3.org/Graphics/SVG/1.1/DTD/svg11.dtd">
<!-- Creator: CorelDRAW 2020 (64-Bit) -->
<svg xmlns="http://www.w3.org/2000/svg" xml:space="preserve" width="163.689mm" height="163.689mm" version="1.1" style="shape-rendering:geometricPrecision; text-rendering:geometricPrecision; image-rendering:optimizeQuality; fill-rule:evenodd; clip-rule:evenodd"
viewBox="0 0 463.9 463.9"
 xmlns:xlink="http://www.w3.org/1999/xlink"
 xmlns:xodm="http://www.corel.com/coreldraw/odm/2003">
 <defs>
  <style type="text/css">
   <![CDATA[
    .fil1 {fill:black}
    .fil2 {fill:#3992B6}
    .fil0 {fill:#3D9CC1}
    .fil5 {fill:#D0D0D5}
    .fil3 {fill:#EAEAEF}
    .fil4 {fill:#F24444}
   ]]>
  </style>
 </defs>
 <g id="Capa_x0020_1">
  <metadata id="CorelCorpID_0Corel-Layer"/>
  <g id="_2870273446320">
   <path class="fil0" d="M176.33 88.99l0.66 3.35 14.12 -0.04c1.68,-8.91 9.38,-6.96 18.18,-6.95l76.11 0c17.03,-0 31.72,-0.26 33.2,17.1 0.93,10.8 1.07,23.17 -9.17,28.51 -1.62,0.85 -2.66,1.09 -4.61,1.65 -4.7,1.35 -2.72,-0.56 -4.42,2.38 0,26.29 1.72,45.24 -12.45,63.25 -11.85,15.07 -36.72,27.03 -42.23,33.7 4,5.33 11.62,3.96 8.11,15.14 2.56,0.95 3.49,1.85 5.71,3.48 2.43,1.78 3.9,2.33 5.06,4.77 8.39,-6.67 12.66,-1.09 18.2,4.59 26.24,26.92 15.11,59.35 17.6,68.98 0.94,3.62 9.78,0.3 15.87,10.8 3.04,5.24 3.05,15.69 2.27,22.55 -1.93,17.03 -17.03,16.35 -34.04,16.35 -33.97,-0 -67.96,0.11 -101.93,-0.01l5.84 4.76c2.21,1.39 4.25,2.96 6.52,4.33 4.56,2.73 8.48,4.7 13.54,7.32 4.35,2.25 28.39,11.37 29.29,12.09 124.47,-4.15 204.97,-134.62 154.14,-246.27 -6.06,-13.32 -15.35,-29.38 -24.49,-39.88 -19.32,-22.22 -32.39,-32.94 -60.57,-47.25 -19.94,-10.12 -44.28,-15.47 -69.53,-16.88 -3.22,2.42 -31.22,9.57 -53.78,27.01 -2.62,2.02 -4.4,3.53 -7.2,5.16z"/>
   <path class="fil1" d="M-0 224.7c0,39.12 4.72,70.61 21.43,105.42 11.81,24.59 18.37,32.49 32.92,51.34 2.2,2.85 4.3,4.37 6.49,7.11 4.36,5.46 16.38,16.95 21.6,20.98 18.78,14.5 26.94,21.21 51.34,32.92 28.01,13.45 59.17,20.52 90.57,21.43l13.95 0c31.56,-0.92 62.93,-8.03 91.2,-21.14 23.51,-10.9 48.22,-28.24 66.67,-46.59 16.26,-16.16 37.95,-46.05 46.5,-66.76 1.61,-3.9 2.67,-5.77 4.15,-9.44 11.37,-28.25 16.59,-54.12 17.07,-80.98l0 -8.25c-0.26,-14.71 -1.87,-29.8 -4.61,-45.84 -1.98,-11.6 -14.42,-10.17 -14.42,-0.98 0,7.7 4.53,24.44 4.53,41.68 0,39.5 -5.31,66.28 -20.23,98.46 -2.87,6.18 -5.75,11.35 -9.15,17.13 -37.63,64.01 -107.16,108.2 -182.64,108.2 -46.89,0 -74.74,-7.8 -114.16,-28.99l-23.35 -15.61c-2.61,-2.17 -5.21,-3.71 -7.67,-5.92 -12.82,-11.49 -15.45,-14.72 -26.74,-26.71 -17.7,-18.81 -38.58,-59.83 -44.55,-86.83 -11.36,-51.42 -8.46,-97.47 13.82,-145.51 11.14,-24.02 31.45,-51.93 50.22,-68.47l7.33 -6.26c77.76,-63.18 181.1,-68.05 264.53,-11.47 3.24,2.19 6.34,4.54 9.36,6.95 13.64,10.89 21.29,18.92 32.71,31.62 2.13,2.37 5.34,6.75 7.03,9.27 -7.84,-0.17 -23.56,-7.76 -23.56,4.53 0,4.39 2.41,6.21 5.62,7.07 8.17,2.2 29.06,5.62 36.97,5.62 6,0 6.21,-14.05 6.97,-19.31 1.11,-7.72 3,-15.37 3,-23.28 0,-5.81 -16.31,-16.25 -16.31,17.22l-15.63 -17.89c-6.75,-6.61 -2.5,-3.73 -12.68,-12.69 -4.66,-4.11 -7.41,-7.55 -13.88,-12.4 -23.16,-17.36 -50.26,-33.48 -78.5,-41.1 -19.85,-5.36 -38.87,-8.53 -57.94,-9.24l-16.19 0c-15.47,0.58 -31.14,2.82 -47.46,6.88 -35.85,8.93 -65.22,24.63 -93.25,47.19l-21.68 20 -19.07 23.51c-11.81,15.67 -21.71,36.64 -29.01,55.25l-6.42 21.66c-3.6,14.43 -6.88,32.79 -6.88,50.2z"/>
   <path class="fil1" d="M303.29 346.45c3.03,3.03 1.72,13.57 0.62,17.28 -5.9,1.89 -137.88,1.91 -143.94,0.02 -0.99,-3.33 -2.07,-15.62 0.82,-18.12 2.61,-2.25 92.78,-1.08 102.87,-1.08 6.95,0 13.89,0 20.84,0 5.25,-0 15.89,-1.75 18.79,1.9zm-62.49 -129.47c-1.89,3.26 -5.62,5.23 -8.84,6.87 -3.27,-1.55 -7.75,-5.18 -10.81,-7.36 -7.46,-5.29 -26.91,-18.19 -31.3,-23.07 -13.23,-14.7 -14.39,-35.24 -12.22,-60.07l82.42 -0.09c4.76,0 23.3,-1.45 26.35,1.4 0.53,20.96 2.11,40.53 -9.12,54.71 -6.72,8.48 -17.65,15.36 -27.09,21.85 -2.82,1.94 -6,5.05 -9.38,5.76zm-94.6 -95.71c4,9.75 9.48,9.89 14.34,11.73 2.49,0.94 1.73,-0.11 2.93,2 0,26.53 -1.91,45.15 12.42,63.32 11.38,14.42 37.31,27.71 42.26,33.63 -4.09,5.41 -30.59,19.07 -42.23,33.67 -14.18,17.8 -12.46,37.17 -12.46,63.28 -0.69,2.69 -5.03,1.51 -10.13,4.74 -3.44,2.17 -4.29,4.8 -6.66,7.05 -2.49,10.12 -2.93,25.33 3.26,32.19 6.7,7.41 20.5,5.8 32.64,5.73 33.97,0.12 67.96,0.01 101.93,0.01 17.01,0 32.11,0.67 34.04,-16.35 0.78,-6.86 0.77,-17.31 -2.27,-22.55 -6.09,-10.5 -14.93,-7.19 -15.87,-10.8 -2.49,-9.63 8.64,-42.06 -17.6,-68.98 -5.54,-5.69 -9.81,-11.26 -18.2,-4.59 -1.79,8.72 4.22,10.1 8.46,14.33 3.58,3.57 7.23,8.72 9.81,14.66 5.15,11.9 3.73,31.04 3.53,45.16 -3.22,2.54 -49.56,1.19 -53.54,1.19 -18.43,0 -36.85,-0.09 -55.28,-0.09 -4.02,-56.91 9.43,-58.87 43.63,-83.11 3.65,-2.58 6.8,-5.42 10.74,-7.36 3.01,1.58 7.04,3.78 8.8,6.83 2.8,0.59 0.43,0.12 3.08,1.25 1.21,0.52 2.01,1.02 3.63,1.14 3.27,0.24 4.27,-1.32 6.38,-2.23 3.51,-11.18 -4.11,-9.8 -8.11,-15.14 5.51,-6.66 30.39,-18.63 42.23,-33.7 14.17,-18.01 12.45,-36.96 12.45,-63.25 1.7,-2.95 -0.27,-1.03 4.42,-2.38 1.95,-0.56 3,-0.81 4.61,-1.65 10.24,-5.34 10.1,-17.72 9.17,-28.51 -1.49,-17.36 -16.18,-17.1 -33.2,-17.1l-76.11 -0c-8.8,-0.01 -16.51,-1.95 -18.18,6.95 1.02,5.19 2.52,6.71 8.26,7 4.85,0.24 10.42,-0 15.35,-0 15.73,-0 83.11,-0.99 89.13,0.94 1.16,3.72 2.41,14.13 -0.51,17.27 -2.75,3.48 -12.03,1.91 -17.04,1.91l-91.51 0c-5.83,0 -31.29,1.61 -34.28,-1.87 -2.9,-3.21 -1.69,-13.56 -0.51,-17.33 7.97,-2.48 15.14,2.3 16.99,-7.87l-0.66 -3.35c-6.31,-6.77 -20.95,-3.89 -26.35,2.1 -5.77,6.39 -5.88,20.07 -3.79,30.19z"/>
   <path class="fil1" d="M72.48 142.92c10.06,1.93 10.52,-3.58 17.66,-13.84 32.69,-46.99 86.38,-71.93 147.17,-72.27 25.26,1.41 49.59,6.76 69.53,16.88 28.18,14.3 41.25,25.03 60.57,47.25 9.14,10.51 18.42,26.57 24.49,39.88 50.83,111.65 -29.66,242.12 -154.14,246.27 -126.06,4.62 -210.97,-121.66 -171.56,-232.16 3.4,-9.52 7.39,-12.91 0.73,-20 -3.29,-0.29 -4.8,-1.05 -7.65,1.25 -6.82,5.49 -16.71,51.97 -16.72,65.77 -0.06,43.49 6.66,74.82 29.75,111.65 1.56,2.5 3.11,4.82 4.71,7.07 1.6,2.26 3.06,4.42 4.9,6.87 6.08,8.11 15.25,17.92 22.49,24.63 40.85,37.78 103.45,57.69 159.33,46.51 22.04,-4.41 34.6,-8.37 53.07,-17.6l22.31 -13.02c20.22,-14.87 39.21,-31.91 52.25,-53.76 13.64,-22.85 21.22,-39.34 26.69,-66.63 9.25,-46.14 -0.85,-94.79 -24.45,-133.97 -12.1,-20.09 -31.5,-41.98 -50.77,-55.24 -8.56,-5.89 -11.29,-8.33 -21.8,-13.53 -23.27,-11.52 -45.52,-20.12 -72.77,-21.46 -23.76,-1.17 -17.54,-1.81 -44.27,1.06 -3.12,0.33 -6.35,1.24 -9.75,2.03 -3.52,0.81 -6.31,1.13 -9.74,2.04 -35.36,9.47 -50.79,20.28 -77.09,40.7 -9.4,7.3 -35.22,36.33 -37.46,45.08 -1.41,5.48 0.65,6.21 2.52,8.54z"/>
   <path class="fil2" d="M72.48 142.92l-5.55 12.01c6.66,7.09 2.67,10.48 -0.73,20 -39.41,110.49 45.5,236.78 171.56,232.16 -0.9,-0.72 -24.93,-9.83 -29.29,-12.09 -5.06,-2.62 -8.99,-4.59 -13.54,-7.32 -2.28,-1.37 -4.31,-2.94 -6.52,-4.33l-5.84 -4.76c-12.15,0.07 -25.95,1.67 -32.64,-5.73 -6.19,-6.85 -5.75,-22.07 -3.26,-32.19 -2.57,2.69 -1.22,-2.9 -1.98,2.29 -1.45,-4.17 -5.02,-7.75 -7.61,-11.66 -31.48,-47.56 -37.43,-109.27 -17.88,-163.09 3.2,-8.82 17.37,-38.86 25.75,-46.07 0.13,-0.11 0.51,-0.11 0.61,-0.44 0.1,-0.33 0.41,-0.31 0.63,-0.43 -2.1,-10.12 -1.99,-23.8 3.79,-30.19 5.41,-5.98 20.05,-8.87 26.35,-2.1 2.8,-1.64 4.58,-3.14 7.2,-5.16 22.56,-17.44 50.56,-24.59 53.78,-27.01 -60.79,0.34 -114.47,25.28 -147.17,72.27 -7.13,10.25 -7.59,15.77 -17.66,13.84z"/>
   <path class="fil0" d="M146.67 340.68c2.37,-2.25 3.22,-4.87 6.66,-7.05 5.1,-3.22 9.44,-2.05 10.13,-4.74 0,-26.11 -1.73,-45.48 12.46,-63.28 11.64,-14.6 38.14,-28.25 42.23,-33.67 -4.95,-5.93 -30.89,-19.21 -42.26,-33.63 -14.33,-18.17 -12.42,-36.79 -12.42,-63.32 -1.2,-2.11 -0.44,-1.06 -2.93,-2 -4.86,-1.84 -10.34,-1.98 -14.34,-11.73 -0.22,0.13 -0.53,0.1 -0.63,0.43 -0.09,0.33 -0.48,0.33 -0.61,0.44 -8.38,7.22 -22.55,37.26 -25.75,46.07 -19.54,53.82 -13.6,115.53 17.88,163.09 2.59,3.91 6.16,7.5 7.61,11.66 0.75,-5.19 -0.6,0.4 1.98,-2.29z"/>
   <path class="fil3" d="M286.4 329.48c0.2,-14.12 1.62,-33.26 -3.53,-45.16 -2.57,-5.94 -6.23,-11.09 -9.81,-14.66 -4.24,-4.23 -10.25,-5.61 -8.46,-14.33 -1.16,-2.44 -2.63,-2.98 -5.06,-4.77 -2.22,-1.63 -3.15,-2.53 -5.71,-3.48 -2.11,0.91 -3.12,2.47 -6.38,2.23 -1.62,-0.12 -2.41,-0.62 -3.63,-1.14 -2.65,-1.13 -0.27,-0.66 -3.08,-1.25 -2.96,0.5 -14.6,9.14 -18.23,11.83 -25.72,19.01 -22.38,41.87 -22.38,70.72l86.27 0z"/>
   <path class="fil3" d="M240.79 216.98c3.38,-0.71 6.56,-3.82 9.38,-5.76 9.43,-6.49 20.37,-13.37 27.09,-21.85 11.23,-14.18 9.65,-33.75 9.12,-54.71l-86.15 0c-0.15,30.4 -3.22,50.77 21.81,70.06 3.39,2.61 15.67,11.89 18.74,12.26z"/>
   <path class="fil4" d="M191.12 92.3l-14.12 0.04c-1.85,10.17 -9.02,5.39 -16.99,7.87 -1.18,3.77 -2.39,14.12 0.51,17.33 2.99,3.48 28.45,1.87 34.28,1.87l91.51 0c5,0 14.29,1.57 17.04,-1.91 2.93,-3.14 1.68,-13.55 0.51,-17.27 -6.02,-1.92 -73.4,-0.94 -89.13,-0.94 -4.93,0 -10.51,0.25 -15.35,0 -5.75,-0.29 -7.25,-1.8 -8.26,-7z"/>
   <path class="fil4" d="M303.29 346.45c-2.9,-3.66 -13.54,-1.9 -18.79,-1.9 -6.95,0 -13.89,0 -20.84,0 -10.09,0 -100.26,-1.17 -102.87,1.08 -2.89,2.5 -1.81,14.79 -0.82,18.12 6.06,1.89 138.04,1.87 143.94,-0.02 1.1,-3.71 2.41,-14.25 -0.62,-17.28z"/>
   <path class="fil5" d="M240.79 216.98c-3.08,-0.37 -15.36,-9.65 -18.74,-12.26 -25.03,-19.29 -21.96,-39.66 -21.81,-70.06l86.15 0c-3.05,-2.85 -21.59,-1.4 -26.35,-1.4l-82.42 0.09c-2.17,24.84 -1.01,45.37 12.22,60.07 4.39,4.88 23.84,17.77 31.3,23.07 3.06,2.18 7.54,5.81 10.81,7.36 3.22,-1.64 6.95,-3.61 8.84,-6.87z"/>
   <path class="fil5" d="M286.4 329.48l-86.27 0c0,-28.85 -3.34,-51.71 22.38,-70.72 3.64,-2.69 15.27,-11.33 18.23,-11.83 -1.76,-3.05 -5.78,-5.25 -8.8,-6.83 -3.94,1.95 -7.09,4.78 -10.74,7.36 -34.2,24.24 -47.65,26.2 -43.63,83.11 18.43,0 36.85,0.09 55.28,0.09 3.98,0 50.32,1.35 53.54,-1.19z"/>
  </g>
 </g>
</svg>
