<svg id="Capa_1" data-name="Capa 1" xmlns="http://www.w3.org/2000/svg" viewBox="0 0 300 300"><defs><style>.cls-1{fill:#f39e5c;}.cls-2{fill:#d07d40;}.cls-3{fill:#f7c091;}.cls-4{fill:#e39e6a;}.cls-5{fill:#6495cf;}.cls-6{fill:#3f7cbe;}.cls-7{fill:#e95676;}.cls-8{fill:#ca3b61;}.cls-9{fill:#e9ecf0;}</style></defs><title>Iconos_finales</title><path class="cls-1" d="M228.01,144.88l-6.253-50.8L210.04,95.526l0-.008L187.328,82.734a13.686,13.686,0,0,0-7.973-1.7L143.486,84.35A13.686,13.686,0,0,0,132.912,91.1L107.63,134.617a6.015,6.015,0,0,0,3.076,8.647l1.034.391a22.432,22.432,0,0,0,6.078,1.356l-3.2,2.79-6.409,5.584L89.978,168.934a7.787,7.787,0,0,0-.756,10.989l1.849,2.118a10.01,10.01,0,0,0,14.119.964L112.156,191a9.992,9.992,0,0,0,14.118.964l6.959,7.991a10.012,10.012,0,0,0,14.126.97l3.782,3.269a10.013,10.013,0,0,0,14.126.97l5.141-4.485,43.22-33.661.047-.043,17.052-.016Z"/><path class="cls-2" d="M209.487,153.885l-.046.043-43.221,33.66-5.141,4.485a10.012,10.012,0,0,1-14.126-.97l-3.782-3.268a10.014,10.014,0,0,1-14.126-.971l-6.959-7.991a9.991,9.991,0,0,1-14.118-.964L101,169.919a10.008,10.008,0,0,1-12.395.59,7.782,7.782,0,0,0,.617,9.414l1.849,2.118a10.009,10.009,0,0,0,14.118.964L112.158,191a9.99,9.99,0,0,0,14.117.964l6.959,7.991a10.014,10.014,0,0,0,14.126.971l3.782,3.268a10.012,10.012,0,0,0,14.126.97l5.141-4.485,43.221-33.66.046-.043,17.053-.017-1.887-15.325Z"/><path class="cls-3" d="M217.358,175.857,194.2,155.89l-6.44-5.548-4.608-3.969L163.342,129.3l2.288-19.476A13.441,13.441,0,0,0,155.865,95.3l-43.186-11.95a9.995,9.995,0,0,0-11.561,5.075l-5.431,10.6L72.375,97.441,66.4,148.271l-2.595,22.09L86.5,171.87l.047.043,47.406,40.863,5.166,4.457a10.012,10.012,0,0,0,14.12-1.049l6.914-8.022a10.014,10.014,0,0,0,14.121-1.049l6.914-8.029a9.992,9.992,0,0,0,14.113-1.043l6.922-8.029a10.008,10.008,0,0,0,14.112-1.042l1.837-2.128A7.787,7.787,0,0,0,217.358,175.857Z"/><path class="cls-4" d="M217.358,175.857l-7.054-6.082a8.267,8.267,0,0,1-.342,10.367l-1.95,2.26a10.625,10.625,0,0,1-14.981,1.106l-7.349,8.523a10.6,10.6,0,0,1-14.981,1.106l-7.34,8.525a10.63,10.63,0,0,1-14.99,1.113l-7.34,8.516A10.551,10.551,0,0,1,136,214.538l3.124,2.695a10.013,10.013,0,0,0,14.121-1.048l6.913-8.023a10.012,10.012,0,0,0,14.121-1.048l6.915-8.03a9.99,9.99,0,0,0,14.112-1.042l6.922-8.029a10.009,10.009,0,0,0,14.112-1.042l1.838-2.129A7.788,7.788,0,0,0,217.358,175.857Z"/><path class="cls-1" d="M87.683,171.819l-2.746,3.627a8.972,8.972,0,0,0,1.735,12.568h0a8.971,8.971,0,0,0,12.568-1.736l2.747-3.627a8.97,8.97,0,0,0-1.736-12.567h0A8.972,8.972,0,0,0,87.683,171.819Z"/><path class="cls-1" d="M104.413,179.447l-5.173,6.831a8.97,8.97,0,0,0,1.736,12.567h0a8.971,8.971,0,0,0,12.567-1.735l5.173-6.831a8.97,8.97,0,0,0-1.736-12.567h0A8.971,8.971,0,0,0,104.413,179.447Z"/><path class="cls-1" d="M120.592,187.8l-7.049,9.309a8.971,8.971,0,0,0,1.735,12.567h0a8.972,8.972,0,0,0,12.568-1.735l7.05-9.309a8.972,8.972,0,0,0-1.736-12.568h0A8.971,8.971,0,0,0,120.592,187.8Z"/><path class="cls-1" d="M135.305,198.093l-7.459,9.849a8.971,8.971,0,0,0,1.735,12.567h0a8.972,8.972,0,0,0,12.568-1.735l7.459-9.849a8.971,8.971,0,0,0-1.736-12.568h0A8.97,8.97,0,0,0,135.305,198.093Z"/><path class="cls-1" d="M210.044,95.518,187.328,82.734a13.686,13.686,0,0,0-7.973-1.7L143.486,84.35A13.686,13.686,0,0,0,132.912,91.1L107.63,134.617a6.014,6.014,0,0,0,3.076,8.647l1.034.391a22.481,22.481,0,0,0,25.768-7.333l9.686-12.606s23.284,26.958,48.919-4.525"/><path class="cls-5" d="M257.593,77.67l11.881,96.517-27.783,3.42a9.579,9.579,0,0,1-10.678-8.337l-9.541-77.5a9.579,9.579,0,0,1,8.337-10.678Z"/><path class="cls-6" d="M241.226,166.715a10.5,10.5,0,0,1-11.525-8.1l1.312,10.655a9.579,9.579,0,0,0,10.678,8.337l27.783-3.42L268.146,163.4Z"/><path class="cls-7" d="M42.408,77.67,30.526,174.187l27.784,3.421a9.58,9.58,0,0,0,10.678-8.337l9.54-77.5A9.579,9.579,0,0,0,70.191,81.09Z"/><path class="cls-8" d="M58.963,166.475l-27.077-3.333-1.36,11.045,27.784,3.421a9.58,9.58,0,0,0,10.678-8.337L70,161.084A11.251,11.251,0,0,1,58.963,166.475Z"/><circle class="cls-9" cx="250.004" cy="158.292" r="6.97"/><circle class="cls-9" cx="49.608" cy="158.292" r="6.97"/><path d="M150.049,193.483a12.547,12.547,0,0,0-9.9-2.331,12.571,12.571,0,0,0-14.123-10.394,12.734,12.734,0,0,0-2.4.571,12.559,12.559,0,0,0-16.865-8.084,12.581,12.581,0,0,0-20.708-5.019l-13.2-.878,8.09-65.714,14.5.985c.082,0,.164.008.245.008a3.606,3.606,0,0,0,3.208-1.961l5.433-10.6a6.414,6.414,0,0,1,7.389-3.243l8.067,2.231a3.606,3.606,0,1,0,1.922-6.951l-8.066-2.231a13.654,13.654,0,0,0-15.728,6.9l-4.35,8.487-11.732-.8.278-2.258a13.2,13.2,0,0,0-11.475-14.7L42.848,74.091a3.606,3.606,0,0,0-.881,7.158l27.783,3.42a5.972,5.972,0,0,1,5.2,6.659l-9.541,77.5a5.983,5.983,0,0,1-6.658,5.2l-27.784-3.42a3.606,3.606,0,0,0-.881,7.157l27.783,3.42a13.165,13.165,0,0,0,13.161-6.731l9.874.657A12.579,12.579,0,0,0,92.061,193.44a12.866,12.866,0,0,0,1.747-.12c.038,0,.074-.012.111-.018.005.037.008.074.013.112a12.534,12.534,0,0,0,14.3,10.71,12.526,12.526,0,0,0,14.3,10.833c0,.04.008.08.014.12a12.583,12.583,0,0,0,12.432,10.859,12.866,12.866,0,0,0,1.747-.12,12.5,12.5,0,0,0,8.3-4.866l7.459-9.849A12.589,12.589,0,0,0,150.049,193.483Zm-57.227-7.306a5.365,5.365,0,0,1-5.01-8.554L90.558,174a5.365,5.365,0,1,1,8.554,6.478L96.365,184.1A5.331,5.331,0,0,1,92.822,186.177Zm10.33,9.794a5.364,5.364,0,0,1-1.038-7.516l2.747-3.627h0l2.425-3.2a5.365,5.365,0,0,1,8.554,6.479l-5.173,6.83A5.371,5.371,0,0,1,103.152,195.971Zm14.3,10.832a5.367,5.367,0,0,1-1.039-7.515h0l5.173-6.831h0l1.877-2.479a5.365,5.365,0,0,1,8.556,6.476l-7.052,9.311v0A5.371,5.371,0,0,1,117.455,206.8Zm29.278-.055-7.459,9.849a5.365,5.365,0,1,1-8.554-6.478l7.051-9.309,0,0,.406-.535a5.365,5.365,0,1,1,8.553,6.478Z"/><path d="M273.053,173.747a3.606,3.606,0,0,0-4.019-3.138l-27.783,3.42a5.979,5.979,0,0,1-6.659-5.2l-.284-2.313h0l-.066-.536-9.19-74.653a5.972,5.972,0,0,1,5.2-6.659l27.783-3.42a3.606,3.606,0,0,0-.881-7.158l-27.784,3.421A13.2,13.2,0,0,0,217.8,90.939l-7.007.863-21.7-12.21a17.225,17.225,0,0,0-10.072-2.151l-.022,0-6.53.6a3.606,3.606,0,0,0,.664,7.181l6.549-.606a10.045,10.045,0,0,1,5.872,1.253l22.494,12.659a3.606,3.606,0,0,0,2.427.571l8.138-1,5.969,48.484,2.064,16.767-12.98.01a3.605,3.605,0,0,0-2.354.878l-1,.781-32.587-28.085c7.447-2.141,14.546-7.319,21.183-15.47a3.606,3.606,0,0,0-5.592-4.554c-7.419,9.111-15.219,13.8-23.185,13.938-11.6.218-20.131-9.4-20.209-9.494a3.607,3.607,0,0,0-5.589.159l-9.686,12.607a18.764,18.764,0,0,1-21.635,6.156l-1.034-.39a2.408,2.408,0,0,1-1.231-3.463L136.03,92.914a10.1,10.1,0,0,1,7.788-4.973l14.968-1.384a3.606,3.606,0,1,0-.664-7.181L143.154,80.76a17.324,17.324,0,0,0-13.36,8.532l-25.281,43.514a9.619,9.619,0,0,0,4.918,13.831l1.035.391a26.269,26.269,0,0,0,9.294,1.708,25.931,25.931,0,0,0,20.607-10.217l7.227-9.405c3.873,3.337,11.1,8.281,20.32,8.888L215,178.588a4.185,4.185,0,0,1,.44,5.9l-1.836,2.129a6.415,6.415,0,0,1-9.032.662,3.621,3.621,0,0,0-.472-.339L191.88,176.4a3.606,3.606,0,0,0-4.71,5.462l9.934,8.566-4.531,5.259a6.388,6.388,0,0,1-9.03.667l-.053-.041-11.358-9.794a3.606,3.606,0,0,0-4.71,5.462l8.68,7.485-4.558,5.293a6.411,6.411,0,0,1-5.608,2.183,3.606,3.606,0,0,0-.842,7.162,13.847,13.847,0,0,0,1.6.094,13.619,13.619,0,0,0,10.317-4.731l4.873-5.659a13.606,13.606,0,0,0,16.154-3.413l4.882-5.665a13.645,13.645,0,0,0,16.152-3.4l1.838-2.131a11.394,11.394,0,0,0-1.2-16.07l-2.959-2.551,10.818-.009a13.179,13.179,0,0,0,14.56,10.622l27.784-3.421A3.605,3.605,0,0,0,273.053,173.747Z"/><path d="M250,147.716a10.577,10.577,0,1,0,10.576,10.576A10.588,10.588,0,0,0,250,147.716Zm0,13.941a3.365,3.365,0,1,1,3.364-3.365A3.369,3.369,0,0,1,250,161.657Z"/><path d="M60.185,158.292a10.577,10.577,0,1,0-10.577,10.577A10.588,10.588,0,0,0,60.185,158.292Zm-13.941,0a3.365,3.365,0,1,1,3.364,3.365A3.369,3.369,0,0,1,46.244,158.292Z"/></svg>