<svg id="Capa_1" data-name="Capa 1" xmlns="http://www.w3.org/2000/svg" viewBox="0 0 300 300"><defs><style>.cls-1{fill:#bd1622;}.cls-2{fill:#1d1d1b;}</style></defs><title>Iconos_finales</title><circle class="cls-1" cx="149.999" cy="148.839" r="109.051"/><path class="cls-1" d="M268.206,148.839A118.207,118.207,0,1,1,150,30.632,118.342,118.342,0,0,1,268.206,148.839Zm-218.1,0A99.895,99.895,0,1,0,150,48.944,100,100,0,0,0,50.105,148.839Z"/><path class="cls-2" d="M175.454,96.9a9.154,9.154,0,0,1,0,12.911l-39.281,39.28,39.281,39.28a9.156,9.156,0,0,1-12.91,12.91L116.762,155.5a9.152,9.152,0,0,1,0-12.91L162.544,96.81A9.151,9.151,0,0,1,175.454,96.9Z"/><path d="M269.322,150.046A119.322,119.322,0,1,1,150,30.725,119.456,119.456,0,0,1,269.322,150.046Zm-227.689,0A108.366,108.366,0,1,0,150,41.679,108.489,108.489,0,0,0,41.633,150.046Z"/></svg>