<svg id="Capa_1" data-name="Capa 1" xmlns="http://www.w3.org/2000/svg" viewBox="0 0 300 300"><defs><style>.cls-1{fill:#32d736;}.cls-2{fill:#10bb67;}.cls-3{fill:#e1e4fb;}.cls-4{fill:#c5c9f7;}</style></defs><title>Iconos_finales</title><path class="cls-1" d="M150.6,28.965c-65.522,0-119.682,53.229-119.682,118.751S85.074,267.4,150.6,267.4s118.751-54.16,118.751-119.683A118.83,118.83,0,0,0,150.6,28.965Z"/><path class="cls-2" d="M269.347,147.716c0,65.523-53.228,119.683-118.751,119.683V28.965A118.83,118.83,0,0,1,269.347,147.716Z"/><path class="cls-3" d="M227.435,147.716a14.012,14.012,0,0,1-13.971,13.971h-48.9v49.829a13.971,13.971,0,0,1-27.941,0V161.687H86.8a13.971,13.971,0,1,1,0-27.941h49.829v-48.9a13.971,13.971,0,0,1,27.941,0v48.9h48.9A14.011,14.011,0,0,1,227.435,147.716Z"/><path class="cls-4" d="M227.435,147.716a14.012,14.012,0,0,1-13.971,13.971h-48.9v49.829a14.011,14.011,0,0,1-13.971,13.97V70.878a14.011,14.011,0,0,1,13.971,13.97v48.9h48.9A14.011,14.011,0,0,1,227.435,147.716Z"/><path d="M149.985,27.473c-66.611,0-122.371,53.817-122.371,121.419,0,66.906,55.138,122.372,122.371,122.372,67.676,0,121.42-55.832,121.42-122.372A121.351,121.351,0,0,0,149.985,27.473Zm0,229.6A108.373,108.373,0,0,1,41.8,148.892c0-59.074,48.583-107.23,108.182-107.23a107.419,107.419,0,0,1,107.23,107.23C257.215,208.492,209.059,257.075,149.985,257.075Z"/><path d="M207.124,127.465H171.412V91.754a21.427,21.427,0,1,0-42.854,0v35.711H91.894a21.427,21.427,0,0,0,0,42.854h36.664v36.664a21.427,21.427,0,1,0,42.854,0V170.319h35.712a21.427,21.427,0,0,0,0-42.854Zm0,28.57H164.27a7.141,7.141,0,0,0-7.142,7.142v43.806a7.143,7.143,0,0,1-14.285,0V163.177a7.142,7.142,0,0,0-7.142-7.142H91.894a7.143,7.143,0,0,1,0-14.285H135.7a7.143,7.143,0,0,0,7.142-7.142V91.754a7.143,7.143,0,1,1,14.285,0v42.854a7.142,7.142,0,0,0,7.142,7.142h42.854a7.143,7.143,0,0,1,0,14.285Z"/></svg>