<?xml version="1.0" encoding="UTF-8"?>
<!DOCTYPE svg PUBLIC "-//W3C//DTD SVG 1.1//EN" "http://www.w3.org/Graphics/SVG/1.1/DTD/svg11.dtd">
<!-- Creator: CorelDRAW 2020 (64-Bit) -->
<svg xmlns="http://www.w3.org/2000/svg" xml:space="preserve" width="4.4224mm" height="4.4224mm" version="1.1" style="shape-rendering:geometricPrecision; text-rendering:geometricPrecision; image-rendering:optimizeQuality; fill-rule:evenodd; clip-rule:evenodd"
viewBox="0 0 3.96 3.96"
 xmlns:xlink="http://www.w3.org/1999/xlink"
 xmlns:xodm="http://www.corel.com/coreldraw/odm/2003">
 <defs>
  <style type="text/css">
   <![CDATA[
    .fil0 {fill:#422A76}
    .fil1 {fill:white}
   ]]>
  </style>
 </defs>
 <g id="Capa_x0020_1">
  <metadata id="CorelCorpID_0Corel-Layer"/>
  <g id="_1625960743568">
   <circle class="fil0" cx="1.98" cy="1.98" r="1.98"/>
   <g>
    <path class="fil1" d="M2.59 2.04c-0.04,0.3 -0.32,0.56 -0.68,0.51 -0.3,-0.04 -0.56,-0.33 -0.51,-0.68 0.04,-0.3 0.32,-0.56 0.68,-0.51 0.3,0.04 0.56,0.32 0.51,0.67zm-1.32 -0.09c0,0.25 0.1,0.42 0.26,0.57 0.05,0.04 0.12,0.07 0.17,0.11 -0.26,-0.04 -0.54,-0.22 -0.73,-0.36 -0.07,-0.05 -0.3,-0.25 -0.35,-0.31 0.03,-0.04 0.07,-0.07 0.11,-0.11 0.18,-0.2 0.7,-0.52 0.97,-0.56 -0.13,0.09 -0.18,0.09 -0.29,0.24 -0.07,0.1 -0.14,0.25 -0.14,0.41zm0.41 -0.82c-0,0 -0.12,0.03 -0.14,0.04 -0.05,0.02 -0.09,0.03 -0.14,0.05 -0.03,0.01 -0.23,0.1 -0.25,0.12 0,0.05 0.03,-0 0.05,-0.01l0.04 0.02 0 0.06c-0.08,0 -0.02,-0.01 -0.04,0.02 -0,0 -0,0.02 -0,0.02 -0,0.05 0,0.01 0,0.01 -0.01,-0.03 0,-0.02 -0.04,-0.02 -0.07,0 -0.03,-0 -0.05,0.03l-0.01 -0.08c-0,-0.04 0.01,-0 -0,-0.03 -0.05,0.02 -0.22,0.14 -0.27,0.17 -0.02,0.02 -0.04,0.03 -0.06,0.05l-0.06 0.05c-0.04,0.03 -0.09,0.08 -0.12,0.09 -0.05,0.09 -0.13,0.12 -0.2,0.22 0.08,0.1 0.07,0.08 0.15,0.15 0.03,0.03 0.04,0.05 0.07,0.08 0.03,0.02 0.05,0.04 0.08,0.07 0.05,0.05 0.11,0.09 0.17,0.14 0.03,0.03 0.16,0.1 0.18,0.13 0.03,0 0.19,0.1 0.22,0.12 0.55,0.27 1.07,0.23 1.59,-0.06 0.03,-0.02 0.18,-0.12 0.21,-0.12 0.03,-0.04 0.03,-0.01 0.05,-0.05 -0.07,0.01 -0.06,-0.03 -0.2,0 -0.06,0.01 -0.06,0 -0.06,-0 -0.04,0.01 -0.09,0.05 -0.13,0.07 -0.04,0.02 -0.09,0.05 -0.13,0.07 -0.07,0.03 -0.21,0.09 -0.29,0.1 0.47,-0.22 0.6,-0.83 0.17,-1.23 -0.05,-0.04 -0.11,-0.07 -0.17,-0.11 0.11,0.02 0.25,0.07 0.34,0.12l0.02 -0.02c0.03,-0.02 0.03,-0.02 0.01,-0.07 -0,-0 -0,-0.04 -0,-0.04 -0,-0 -0.02,-0.02 -0.02,-0.04 -0.04,-0.04 -0.34,-0.12 -0.43,-0.13 -0.21,-0.03 -0.34,-0.01 -0.55,0.02z"/>
    <path class="fil1" d="M2.42 1.99c-0.12,0.08 -0.2,0.02 -0.22,-0.06 -0.03,-0.11 0.08,-0.19 0.19,-0.14 -0.03,-0.09 -0.12,-0.17 -0.2,-0.21 -0.35,-0.17 -0.71,0.13 -0.64,0.49 0.11,0.49 0.84,0.46 0.87,-0.08l-0.01 0.01z"/>
    <path class="fil0" d="M2.44 1.98c-0.03,0.54 -0.77,0.58 -0.87,0.08 -0.08,-0.35 0.28,-0.66 0.64,-0.49 0.08,0.04 0.17,0.12 0.2,0.21 -0.11,-0.05 -0.22,0.03 -0.19,0.14 0.02,0.08 0.1,0.14 0.22,0.06l0.01 -0.01zm0.15 0.07c0.05,-0.35 -0.21,-0.63 -0.51,-0.67 -0.35,-0.05 -0.63,0.21 -0.68,0.51 -0.05,0.35 0.21,0.63 0.51,0.68 0.36,0.05 0.63,-0.21 0.68,-0.51z"/>
    <path class="fil0" d="M1.27 1.96c-0,-0.16 0.06,-0.32 0.14,-0.41 0.11,-0.15 0.16,-0.16 0.29,-0.24 -0.28,0.04 -0.79,0.36 -0.97,0.56 -0.04,0.04 -0.08,0.06 -0.11,0.11 0.05,0.06 0.28,0.26 0.35,0.31 0.19,0.14 0.48,0.32 0.73,0.36 -0.05,-0.04 -0.12,-0.07 -0.17,-0.11 -0.16,-0.15 -0.26,-0.32 -0.26,-0.57z"/>
    <path class="fil0" d="M2.85 2.4l0.28 -0.2c0.06,-0.05 0.22,-0.18 0.26,-0.24l-0.25 -0.23c-0.03,-0.02 -0.05,-0.05 -0.09,-0.07 -0.1,-0.07 -0.28,-0.2 -0.4,-0.24 -0.09,-0.05 -0.24,-0.1 -0.34,-0.12 0.06,0.04 0.12,0.07 0.17,0.11 0.43,0.39 0.3,1.01 -0.17,1.23 0.08,-0.01 0.22,-0.07 0.29,-0.1 0.04,-0.02 0.09,-0.04 0.13,-0.07 0.04,-0.02 0.09,-0.05 0.13,-0.07z"/>
    <path class="fil1" d="M2.64 1.42c0.13,0.05 0.31,0.17 0.4,0.24 0.03,0.03 0.06,0.05 0.09,0.07l0.25 0.23c-0.04,0.06 -0.19,0.18 -0.26,0.24l-0.28 0.2c0.01,0.01 0.01,0.02 0.06,0 0.14,-0.03 0.13,0.01 0.2,-0 0.03,-0 0.01,0 0.04,-0.02l0.28 -0.24c0.06,-0.07 0.08,-0.07 0.12,-0.12 0.02,-0.02 0.04,-0.04 0.05,-0.07 -0.08,-0.11 -0.09,-0.1 -0.15,-0.16 -0.14,-0.17 -0.6,-0.51 -0.8,-0.56 -0,0.02 0.02,0.04 0.02,0.04 0,0 0,0.04 0,0.04 0.02,0.05 0.02,0.05 -0.01,0.07l-0.02 0.02z"/>
    <path class="fil0" d="M1.04 2.53c-0.02,-0.03 -0.14,-0.1 -0.18,-0.13 -0.06,-0.05 -0.11,-0.09 -0.17,-0.14 -0.03,-0.03 -0.05,-0.05 -0.08,-0.07 -0.04,-0.03 -0.04,-0.05 -0.07,-0.08 -0.07,-0.07 -0.07,-0.05 -0.15,-0.15 0.07,-0.1 0.15,-0.13 0.2,-0.22 -0.06,-0 -0.01,-0 -0.04,0.01 -0.05,0.02 -0.09,0.1 -0.14,0.11 0,0.02 0,0.03 -0.01,0.05 -0,0 -0,0 -0.01,0l-0.03 0.02c0,0.02 -0,0.03 0,0.05l0.06 0.09c0,-0 0.01,0 0.01,0l0 0.06c0.05,-0 -0.01,0 0.04,-0.04l0.03 0.05c-0,-0 -0.01,-0 0.02,0.04l0.02 0.02c0,0 0.01,0.01 0.01,0.02 0.02,0.03 0.09,0.06 0.12,0.09 0,0 0,0 0,0l0.02 0.02c0.01,0.01 0,0.01 0.01,0.01 0.01,0.01 0.02,0.01 0.04,0.01l0.01 0.06c0.05,-0 0,-0 0.04,-0.04l0.04 0.04c0.04,0.04 0.03,-0.01 0.03,0.07 0.06,0 0.02,0 0.07,0.03 0.03,0.01 0.02,0.01 0.07,0.01 0.02,0 -0,0.02 0.04,-0z"/>
    <path class="fil1" d="M1.15 1.35c-0.03,0.01 -0.03,0.01 -0.05,0.03 0.01,0.03 0,-0.01 0,0.03l0.01 0.08c0.02,-0.03 -0.02,-0.03 0.05,-0.03 0.05,-0 0.04,-0.01 0.04,0.02 -0,-0 -0.01,0.04 -0,-0.01 0,-0 0,-0.02 0,-0.02 0.02,-0.03 -0.03,-0.02 0.04,-0.02l-0 -0.06 -0.04 -0.02c-0.02,0.01 -0.05,0.06 -0.05,0.01z"/>
   </g>
  </g>
 </g>
</svg>
