<svg xmlns="http://www.w3.org/2000/svg" viewBox="0 0 256 256"><defs><style>.cls-1{fill:#030303;}.cls-2{fill:#ebf2fd;}.cls-3{fill:#bcd6f9;}.cls-4{fill:#a1a9e1;}.cls-5{fill:#d9616c;}.cls-6{fill:#8790d6;}.cls-7{fill:#9cc5fa;}.cls-8{fill:#dae7f8;}.cls-9{fill:#497ff2;}.cls-10{fill:#704b44;}.cls-11{fill:#030202;}.cls-12{fill:#db626d;}.cls-13{fill:#d84a54;}.cls-14{fill:#fbdacb;}</style></defs><g id="Tombolización"><path class="cls-1" d="M3,113.85V95.3c.76-.28.45-1,.51-1.46,1.08-9.4,3-18.62,6.86-27.29,17.17-38.81,47-60.32,89.3-63.3,23.2-1.64,44.47,5.12,63.47,18.66a5.69,5.69,0,0,0,3.58,1.14c7.73-.05,15.46,0,23.19-.06,2.59,0,4.2.92,4.81,3.45-.76,3.13-1.69,3.9-4.86,3.91H164.74c-5.45,0-7.76,2.24-7.76,7.64q0,27.69,0,55.36a16.29,16.29,0,0,0,.06,1.71c.37,3.65,2.74,6,6.39,6,17.15,0,34.3,0,51.45-.06,1.62,0,3.24.08,4.87.08,5.89,0,8-2.14,8-8.1q0-23,0-46.06c0-3.49.08-7-.06-10.48a6,6,0,0,0-6.23-6.12c-2.19-.05-4.38,0-6.58.07l-5.33-.09c-2.93-.05-4-1-4.54-3.88.47-2.5,2-3.51,4.49-3.46,3.83.07,7.65,0,11.47,0,8.23,0,14,5.61,14.09,13.86q.13,28.78,0,57.57c0,8.35-5.85,14-14.23,14-4.55,0-9.11.05-13.66,0-1.21,0-1.65.28-1.73,1.57a102.37,102.37,0,0,1-1.57,13,100.08,100.08,0,0,1-19.5,43.29c-.9,1.16-.88,1.77.18,2.75,2.27,2.1,4.44,4.31,6.56,6.55.84.88,1.43,1.19,2.59.37a10.52,10.52,0,0,1,6.24-1.7c4.19,0,7.13,2.3,9.82,5.17,1.46,1.55,2.74,3.36,5.42,3a4.41,4.41,0,0,1,3.43,1.62q12.16,12.17,24.31,24.33a4.81,4.81,0,0,1,1.62,3.69,4.62,4.62,0,0,0,2,4.14c1,.85,1.87,1.81,2.77,2.75,5,5.22,5,12-.11,17.15-3.41,3.48-6.94,6.85-10.32,10.37-2.69,2.78-5.41,5.45-9.31,6.46h-4.88a25.46,25.46,0,0,1-8.51-6.58,4.37,4.37,0,0,0-3.94-1.84,5.29,5.29,0,0,1-4.08-1.88l-23.79-23.78a5.81,5.81,0,0,1-2-4.55,3.47,3.47,0,0,0-1.38-3.12c-.91-.81-1.74-1.71-2.59-2.58-4.62-4.65-5.37-9.55-2.2-15.22a1.36,1.36,0,0,0-.27-2c-2.17-2.09-4.38-4.15-6.36-6.4-1.28-1.47-2.15-1.52-3.69-.3A96.28,96.28,0,0,1,141,198.78c-3.06,1.19-4.1.9-6-1.65-.19-3.19.33-3.85,3.52-5.23q52.67-22.8,59.44-79.8c.42-3.62.34-3.63-3.45-3.63-3.61,0-3.57,0-3.88,3.56a83.68,83.68,0,0,1-21.13,49.32c-15.32,17.31-34.55,27.16-57.65,29.26-5.54.5-5.48.56-5.42,5.79,0,1.5.4,2,1.93,1.87,3.88-.35,7.77-.59,11.62-1.29,3.37-.61,4.31-.17,5.83,2.52-.23,3.35-1,4.14-4.35,4.69a90.45,90.45,0,0,1-12.81,1.32c-1.79,0-2.26.49-2.24,2.31.1,10.14.06,20.27,0,30.41,0,7.62-3.54,12.27-10.84,14.4-.12,0-.18.24-.27.36H31.32c-.15-.16-.27-.4-.46-.48-7.42-3.13-9.92-6.87-9.92-14.94,0-18,.09-36.1-.05-54.15,0-5.58,1.34-10.26,6.08-13.58-.33-.43-.56-.76-.82-1.07a101.72,101.72,0,0,1-21.51-46C4.07,119.79,4.26,116.69,3,113.85Zm226.55,106c2-1.92,3.89-3.9,5.93-5.73,1.17-1,1.19-1.68,0-2.81-5.17-5-10.21-10.23-15.37-15.28-1.95-1.91-3.77-5.53-5.94-5.22s-4.1,3.6-6.12,5.6c-.05.05-.06.14-.1.21-5.65,5.6-11.28,11.21-17,16.76-1,1-.43,1.46.24,2.13q10.17,10.16,20.31,20.32c.71.71,1.17,1.06,2.09.12C218.91,230.51,224.24,225.18,229.55,219.82ZM86,175c-17.17,0-34.33-.08-51.5,0a6,6,0,0,0-6.18,6.18q-.09,29.18,0,58.34a6,6,0,0,0,6.18,6.19c17.17,0,34.33,0,51.5,0,1.7,0,3.4.07,5.11.07,5.68,0,8-2.26,8-8q0-22.66,0-45.33c0-3.41,0-6.82,0-10.23-.06-4.77-2.51-7.22-7.22-7.24C89.89,174.87,88,174.93,86,175Zm35.14,6.72a71.43,71.43,0,0,0,28.72-12.63q30.12-21.87,33.58-59c.1-1.1,0-1.63-1.28-1.59-3.25.1-6.5.08-9.75.11-2.52,0-5-.07-7.55-.08-9.7,0-15.21-5.52-15.22-15.25,0-13,0-26,0-39,0-2.75-.09-5.5-.14-8.26,0-1.86.08-3.72.16-5.58a1.89,1.89,0,0,0-1-1.8A74.75,74.75,0,0,0,121.63,27a73.75,73.75,0,0,0-33.37-.37,79.11,79.11,0,0,0-62.86,85c2,22.44,12.2,40.6,29.6,54.81a4.82,4.82,0,0,0,3.3,1.16c11.06-.05,22.12,0,33.19,0a19.2,19.2,0,0,1,3.64.23c6.78,1.32,11,6.57,11.23,13.92,0,1.34.1,2.09,1.8,1.91C112.51,183.14,116.91,183,121.14,181.68ZM44.77,167.55a4.3,4.3,0,0,0-.28-.57l-1.19-1.22c-21.26-21.95-29.59-48.07-24-78.07,10.82-57.93,76.79-88,128-58.6,3.19,1.83,3.18,1.83,5.39-.93a9.67,9.67,0,0,1,1.69-1.75c1-.8.63-1.29-.23-1.79-.64-.36-1.25-.76-1.88-1.13A92.33,92.33,0,0,0,91.77,11.26c-21.57,2.89-40,12.17-55,27.91C16,61.08,7.46,87.27,11.29,117.26c2.38,18.65,10.13,35,22.48,49.14A2.68,2.68,0,0,0,36,167.58C38.84,167.51,41.67,167.55,44.77,167.55Zm182.76,78.1a5,5,0,0,0,3.59-1.79c3.38-3.4,6.77-6.77,10.16-10.16,5.94-5.93,5.89-6.53,0-12.38-1.21-1.2-1.81-1-2.85.09-5.06,5.16-10.2,10.24-15.31,15.35-3.13,3.14-3.13,3.14,0,6.24C224.34,244.26,225.5,245.69,227.53,245.65Zm-45.9-46.11c0,2.82,2.18,3.91,3.52,5.57s2.15,1.8,3.74.12c4.62-4.9,9.48-9.58,14.24-14.35,4-4,4-4-.19-7.8-2.19-2-4.36-2-6.47,0-4.53,4.43-9,8.93-13.46,13.41A4,4,0,0,0,181.63,199.54Zm.21-12.73c.51,0,5-4.56,4.93-4.8a4.9,4.9,0,0,0-.86-1.13c-1.18-1.22-2.39-2.41-3.6-3.61-3.91-3.91-3.88-3.88-7.75.11-.84.86-1,1.37-.05,2.27,2.19,2,4.26,4.22,6.38,6.33C181.22,186.31,181.59,186.59,181.84,186.81Z"/><path class="cls-2" d="M149.49,46c0,2.76.14,5.51.14,8.26,0,13,0,26,0,39,0,9.73,5.52,15.23,15.22,15.25,2.52,0,5,0,7.55.08a41.71,41.71,0,0,1-.44,5.8,73.33,73.33,0,0,1-6.17,22.88c-5.05,11.3-11.93,21.31-21.47,29.41A92.06,92.06,0,0,1,128,177.93c-2.3,1.22-5.07,1.6-6.86,3.75-4.23,1.27-8.63,1.46-13,1.94-1.7.18-1.77-.57-1.8-1.91-.19-7.35-4.45-12.6-11.23-13.92a19.2,19.2,0,0,0-3.64-.23c-11.07,0-22.13,0-33.19,0a4.82,4.82,0,0,1-3.3-1.16c-17.4-14.21-27.59-32.37-29.6-54.81a79.11,79.11,0,0,1,62.86-85,73.75,73.75,0,0,1,33.37.37c.21,1.21,1.34,1.34,2.17,1.7a82.55,82.55,0,0,1,20.09,12.82C145.72,43.06,147.13,45.15,149.49,46ZM104.22,155.35c9.11,0,18.21.05,27.32,0a10.38,10.38,0,0,0,10.58-10.48c.07-9.35.11-18.7,0-28.05a23,23,0,0,0-15.16-21c-1.58-.57-3.22-1-4.83-1.45.51-1.58,1.16-3.14,1.52-4.77,1.3-5.94.91-12,.52-18A19.92,19.92,0,0,0,85,68.3c-1.44,5.83-.66,11.81-.62,17.73a15.35,15.35,0,0,0,1.71,6.8c.65,1.28.57,1.69-1,2a23,23,0,0,0-18.62,23c0,8.7,0,17.4,0,26.11,0,7.06,4.33,11.38,11.39,11.39Q91,155.37,104.22,155.35Z"/><path class="cls-3" d="M194.72,26.44l10.29,0c.55,2.92,1.61,3.83,4.54,3.88l5.33.09a14.23,14.23,0,0,1,2,7.88q-.12,26.84,0,53.66c0,3.21-.22,6.29-2,9.07-17.15,0-34.3.09-51.45.06-3.65,0-6-2.4-6.39-6a16.29,16.29,0,0,1-.06-1.71q0-27.67,0-55.36c0-5.4,2.31-7.63,7.76-7.64h25.12C193,30.34,194,29.57,194.72,26.44Zm-5.46,53.24a4,4,0,0,0,3.13-1.62q9.74-10.74,19.46-21.48A4.67,4.67,0,0,0,212.9,55a3.43,3.43,0,0,0-1.4-4.27c-1.88-1.2-3.55-.7-5,.88-5.51,6.07-11,12.13-16.5,18.24-.89,1-1.45,1.12-2.51.24-3.07-2.53-6.23-4.94-9.38-7.37-2.1-1.62-4.25-1.57-5.63.07s-1.12,3.9,1.09,5.66c4.33,3.43,8.69,6.81,13,10.2A3.81,3.81,0,0,0,189.26,79.68Z"/><path class="cls-4" d="M86,245.59c-17.17,0-34.33.08-51.5,0a6,6,0,0,1-6.18-6.19q-.09-29.17,0-58.34a6,6,0,0,1,6.18-6.18c17.17,0,34.33,0,51.5,0a13.69,13.69,0,0,1,2,7.83c-.12,7.93,0,15.85,0,23.77L48,206.61a31.69,31.69,0,0,0-3.65,0A3.41,3.41,0,0,0,41,210.15a3.51,3.51,0,0,0,3.35,3.75,20,20,0,0,0,2.19,0l41.4,0c0,7.93-.07,15.85,0,23.77A13.74,13.74,0,0,1,86,245.59ZM61.47,221.26H45.63c-3.06,0-4.68,1.32-4.64,3.72s1.6,3.6,4.52,3.6H77.2c2.9,0,4.49-1.3,4.52-3.6s-1.59-3.71-4.64-3.72Zm-3.35-22c4.31,0,8.63,0,12.94,0,2.82,0,4.54-1.41,4.57-3.64S73.91,192,71.11,192q-12.81,0-25.63,0c-2.9,0-4.48,1.32-4.5,3.63s1.58,3.67,4.45,3.69C49.66,199.31,53.89,199.29,58.12,199.29Z"/><path class="cls-5" d="M44.77,167.55c-3.1,0-5.93,0-8.76,0a2.68,2.68,0,0,1-2.24-1.18c-12.35-14.16-20.1-30.49-22.48-49.14C7.46,87.27,16,61.08,36.77,39.17c14.95-15.74,33.43-25,55-27.91a92.33,92.33,0,0,1,60.47,12.23c.63.37,1.24.77,1.88,1.13.86.5,1.24,1,.23,1.79a9.67,9.67,0,0,0-1.69,1.75c-2.21,2.76-2.2,2.76-5.39.93C96.1-.3,30.13,29.76,19.31,87.69c-5.6,30,2.73,56.12,24,78.07L44.49,167A4.3,4.3,0,0,1,44.77,167.55Z"/><path class="cls-5" d="M134.93,197.13a88.49,88.49,0,0,1-9.19,2.37c-1.52-2.69-2.46-3.13-5.83-2.52-3.85.7-7.74.94-11.62,1.29-1.53.14-1.92-.37-1.93-1.87-.06-5.23-.12-5.29,5.42-5.79,23.1-2.1,42.33-12,57.65-29.26A83.68,83.68,0,0,0,190.56,112c.31-3.56.27-3.56,3.88-3.56,3.79,0,3.87,0,3.45,3.63q-6.67,57.06-59.44,79.8C135.26,193.28,134.74,193.94,134.93,197.13Z"/><path class="cls-4" d="M229.55,219.82c-5.31,5.36-10.64,10.69-15.9,16.1-.92.94-1.38.59-2.09-.12q-10.14-10.17-20.31-20.32c-.67-.67-1.24-1.15-.24-2.13,5.69-5.55,11.32-11.16,17-16.76,0,1.22.93,1.84,1.65,2.57q9.17,9.17,18.33,18.34C228.62,218.17,229.52,218.71,229.55,219.82Z"/><path class="cls-6" d="M87.94,206.56c0-7.92-.07-15.84,0-23.77A13.69,13.69,0,0,0,86,175c2,0,3.89-.09,5.84-.07,4.71,0,7.16,2.47,7.22,7.24,0,3.41,0,6.82,0,10.23q0,22.66,0,45.33c0,5.71-2.27,8-8,8-1.71,0-3.41,0-5.11-.07a13.74,13.74,0,0,0,2-7.84c-.12-7.92,0-15.84,0-23.77,1.68-.69,3-1.69,3-3.71S89.62,207.25,87.94,206.56Z"/><path class="cls-7" d="M214.87,101.05c1.78-2.78,2-5.86,2-9.07q-.09-26.83,0-53.66a14.23,14.23,0,0,0-2-7.88c2.2,0,4.39-.12,6.58-.07a6,6,0,0,1,6.23,6.12c.14,3.49.06,7,.06,10.48q0,23,0,46.06c0,6-2.12,8.11-8,8.1C218.11,101.13,216.49,101.08,214.87,101.05Z"/><path class="cls-8" d="M121.14,181.68c1.79-2.15,4.56-2.53,6.86-3.75a92.06,92.06,0,0,0,16.33-11.29c9.54-8.1,16.42-18.11,21.47-29.41A73.33,73.33,0,0,0,172,114.35a41.71,41.71,0,0,0,.44-5.8c3.25,0,6.5,0,9.75-.11,1.3,0,1.38.49,1.28,1.59q-3.39,37.14-33.58,59A71.43,71.43,0,0,1,121.14,181.68Z"/><path class="cls-6" d="M229.55,219.82c0-1.11-.93-1.65-1.59-2.32q-9.15-9.18-18.33-18.34c-.72-.73-1.66-1.35-1.65-2.57,0-.07.05-.16.1-.21,2-2,3.86-5.28,6.12-5.6s4,3.31,5.94,5.22c5.16,5.05,10.2,10.24,15.37,15.28,1.16,1.13,1.14,1.77,0,2.81C233.44,215.92,231.52,217.9,229.55,219.82Z"/><path class="cls-9" d="M227.53,245.65c-2,0-3.19-1.39-4.45-2.65-3.1-3.1-3.1-3.1,0-6.24,5.11-5.11,10.25-10.19,15.31-15.35,1-1.06,1.64-1.29,2.85-.09,5.9,5.85,5.95,6.45,0,12.38-3.39,3.39-6.78,6.76-10.16,10.16A5,5,0,0,1,227.53,245.65Z"/><path class="cls-9" d="M181.63,199.54a4,4,0,0,1,1.38-3c4.47-4.48,8.93-9,13.46-13.41,2.11-2.07,4.28-2,6.47,0,4.2,3.77,4.2,3.77.19,7.8-4.76,4.77-9.62,9.45-14.24,14.35-1.59,1.68-2.48,1.46-3.74-.12S181.63,202.36,181.63,199.54Z"/><path class="cls-8" d="M149.49,46c-2.36-.84-3.77-2.93-5.6-4.45A82.55,82.55,0,0,0,123.8,28.72c-.83-.36-2-.49-2.17-1.7a74.75,74.75,0,0,1,27.06,11.59,1.89,1.89,0,0,1,1,1.8C149.57,42.27,149.54,44.13,149.49,46Z"/><path class="cls-10" d="M181.84,186.81c-.25-.22-.62-.5-1-.83-2.12-2.11-4.19-4.28-6.38-6.33-1-.9-.79-1.41.05-2.27,3.87-4,3.84-4,7.75-.11,1.21,1.2,2.42,2.39,3.6,3.61a4.9,4.9,0,0,1,.86,1.13C186.89,182.25,182.35,186.77,181.84,186.81Z"/><path class="cls-11" d="M104.22,155.35q-13.18,0-26.36,0c-7.06,0-11.38-4.33-11.39-11.39,0-8.71,0-17.41,0-26.11a23,23,0,0,1,18.62-23c1.56-.32,1.64-.73,1-2A15.35,15.35,0,0,1,84.38,86c0-5.92-.82-11.9.62-17.73a19.92,19.92,0,0,1,39.15,3.3c.39,6,.78,12-.52,18-.36,1.63-1,3.19-1.52,4.77,1.61.48,3.25.88,4.83,1.45a23,23,0,0,1,15.16,21c.13,9.35.09,18.7,0,28.05a10.38,10.38,0,0,1-10.58,10.48C122.43,155.4,113.33,155.35,104.22,155.35Zm18.88-7.41c2.28,0,4.55.08,6.82.08,4,0,4.89-.84,4.89-4.78q0-12.06,0-24.11c0-11.4-7.07-18-18.55-17.39-1.6-.36-1.23.63-1.11,1.55.82,6.36,1.56,12.74,2.43,19.09.56,4.05-.49,7.38-3.77,9.93-1.6,1.25-3.13,2.59-4.73,3.84-3.35,2.62-6.19,2.62-9.5,0-1.47-1.15-2.85-2.42-4.36-3.52-3.67-2.7-4.81-6.24-4.13-10.7,1-6.26,1.6-12.56,2.4-18.85.1-.74.36-1.3-.83-1.48-9.46-1.42-18.57,5.68-18.8,15.06s-.08,18.53,0,27.8c0,2.29,1.19,3.52,3.45,3.52Q100.18,148,123.1,147.94ZM104.56,78.68v0H98c-7,0-7,0-6.3,7.07a12.64,12.64,0,0,0,25.17,0c.18-1.77,0-3.57.17-5.35.1-1.37-.36-1.82-1.76-1.78C111.7,78.74,108.13,78.68,104.56,78.68Zm-.2,25.87a5.43,5.43,0,0,1-1.21,0c-1.94-.5-2.55.24-2.74,2.2-.52,5.32-1.21,10.63-2,15.91a4.26,4.26,0,0,0,1.75,4.58c4.26,3.34,4.17,3.37,8.46-.09a3.84,3.84,0,0,0,1.73-3.91c-.74-5-1.31-10.12-1.95-15.19C107.94,104.56,107.94,104.56,104.36,104.55Zm-.13-33.17v0c3.65,0,7.3,0,11,0,1.34,0,1.66-.35,1.27-1.72a12.71,12.71,0,0,0-24.3-.08c-.46,1.51,0,1.85,1.38,1.83C97.1,71.34,100.67,71.38,104.23,71.38Z"/><path class="cls-1" d="M189.26,79.68a3.81,3.81,0,0,1-2.64-1.06c-4.35-3.39-8.71-6.77-13-10.2-2.21-1.76-2.58-3.89-1.09-5.66s3.53-1.69,5.63-.07c3.15,2.43,6.31,4.84,9.38,7.37,1.06.88,1.62.76,2.51-.24,5.46-6.11,11-12.17,16.5-18.24,1.44-1.58,3.11-2.08,5-.88A3.43,3.43,0,0,1,212.9,55a4.67,4.67,0,0,1-1.05,1.61q-9.72,10.76-19.46,21.48A4,4,0,0,1,189.26,79.68Z"/><path class="cls-11" d="M87.94,206.56c1.68.69,3,1.69,3,3.71s-1.29,3-3,3.71l-41.4,0a20,20,0,0,1-2.19,0A3.51,3.51,0,0,1,41,210.15a3.41,3.41,0,0,1,3.35-3.49,31.69,31.69,0,0,1,3.65,0Z"/><path class="cls-11" d="M61.47,221.26H77.08c3,0,4.68,1.33,4.64,3.72s-1.62,3.6-4.52,3.6H45.51c-2.92,0-4.49-1.28-4.52-3.6s1.58-3.71,4.64-3.72Z"/><path class="cls-11" d="M58.12,199.29c-4.23,0-8.46,0-12.69,0-2.87,0-4.46-1.37-4.45-3.69s1.6-3.63,4.5-3.63q12.81,0,25.63,0c2.8,0,4.54,1.45,4.52,3.68s-1.75,3.62-4.57,3.64C66.75,199.31,62.43,199.29,58.12,199.29Z"/><path class="cls-12" d="M123.1,147.94q-22.92,0-45.84.06c-2.26,0-3.44-1.23-3.45-3.52,0-9.27-.17-18.54,0-27.8s9.34-16.48,18.8-15.06c1.19.18.93.74.83,1.48-.8,6.29-1.45,12.59-2.4,18.85-.68,4.46.46,8,4.13,10.7,1.51,1.1,2.89,2.37,4.36,3.52,3.31,2.6,6.15,2.6,9.5,0,1.6-1.25,3.13-2.59,4.73-3.84,3.28-2.55,4.33-5.88,3.77-9.93-.87-6.35-1.61-12.73-2.43-19.09-.12-.92-.49-1.91,1.11-1.55,1.14,1.26,2.28,2.51,3.41,3.78,4.16,4.7,4.11,10.58,4.34,16.28.26,6.24.13,12.5,0,18.75A27.58,27.58,0,0,1,123.1,147.94Z"/><path class="cls-13" d="M123.1,147.94a27.58,27.58,0,0,0,.93-7.39c.11-6.25.24-12.51,0-18.75-.23-5.7-.18-11.58-4.34-16.28-1.13-1.27-2.27-2.52-3.41-3.78,11.48-.64,18.55,6,18.55,17.39q0,12.06,0,24.11c0,3.94-.87,4.79-4.89,4.78C127.65,148,125.38,148,123.1,147.94Z"/><path class="cls-14" d="M104.56,78.68c3.57,0,7.14.06,10.71,0,1.4,0,1.86.41,1.76,1.78-.13,1.78,0,3.58-.17,5.35a12.64,12.64,0,0,1-25.17,0C91,78.66,91,78.66,98,78.66h6.57Z"/><path class="cls-2" d="M104.36,104.55c3.58,0,3.58,0,4,3.49.64,5.07,1.21,10.14,1.95,15.19a3.84,3.84,0,0,1-1.73,3.91c-4.29,3.46-4.2,3.43-8.46.09a4.26,4.26,0,0,1-1.75-4.58c.82-5.28,1.51-10.59,2-15.91.19-2,.8-2.7,2.74-2.2A5.43,5.43,0,0,0,104.36,104.55Z"/><path class="cls-10" d="M104.23,71.38c-3.56,0-7.13,0-10.7,0-1.42,0-1.84-.32-1.38-1.83a12.71,12.71,0,0,1,24.3.08c.39,1.37.07,1.74-1.27,1.72-3.65-.05-7.3,0-11,0Z"/></g></svg>