<svg id="Capa_1" data-name="Capa 1" xmlns="http://www.w3.org/2000/svg" viewBox="0 0 300 300"><defs><style>.cls-1{fill:#917464;}.cls-2{fill:#fbdf97;}.cls-3{fill:#fbc640;}.cls-4{fill:#8ce0ff;}</style></defs><title>Iconos_finales</title><rect class="cls-1" x="201.87" y="165.364" width="32.754" height="105.77" transform="translate(-90.403 218.248) rotate(-45)"/><polygon class="cls-2" points="170.231 193.395 154.077 177.237 177.238 154.077 193.794 170.634 171.033 193.395 170.231 193.395"/><path class="cls-3" d="M102.366,171.594a69.23,69.23,0,1,1,48.954-20.276A68.786,68.786,0,0,1,102.366,171.594Zm0-115.061a45.836,45.836,0,1,0,32.406,13.423A45.536,45.536,0,0,0,102.365,56.533Z"/><path class="cls-4" d="M102.365,150.123a47.765,47.765,0,1,1,33.768-13.99A47.445,47.445,0,0,1,102.365,150.123Z"/><path d="M154.043,50.688h0a73.047,73.047,0,1,0-3.52,106.646l9,9-7.493,7.493a4.817,4.817,0,0,0,0,6.811l15.191,15.195c.043.043.088.086.133.129l73.3,73.3a4.818,4.818,0,0,0,6.811,0l21.8-21.8a4.815,4.815,0,0,0,0-6.811l-73.4-73.4c-.023-.024-.047-.048-.071-.071l-15.157-15.158a4.816,4.816,0,0,0-6.811,0l-7.494,7.493-9-9A73.184,73.184,0,0,0,154.043,50.688Zm90.023,208.365-66.62-66.621,14.986-14.987,66.621,66.621Zm-66.828-96.8,8.384,8.384-14.989,14.989-8.383-8.385ZM57.5,147.232a63.451,63.451,0,1,1,89.735,0l0,0,0,0A63.531,63.531,0,0,1,57.5,147.232Z"/><path d="M153.977,102.365a51.619,51.619,0,1,0-15.12,36.494A51.273,51.273,0,0,0,153.977,102.365Zm-51.612,41.979a41.97,41.97,0,1,1,29.682-71.665h0a41.981,41.981,0,0,1-29.682,71.665Z"/><path d="M132.926,98.156a4.816,4.816,0,0,0-9.543,1.309,21.067,21.067,0,0,1-6.017,17.9,4.816,4.816,0,1,0,6.81,6.813A30.621,30.621,0,0,0,132.926,98.156Z"/><path d="M122.858,90.59c6.2,0,6.208-9.632,0-9.632S116.65,90.59,122.858,90.59Z"/></svg>