<?xml version="1.0" encoding="UTF-8"?>
<!DOCTYPE svg PUBLIC "-//W3C//DTD SVG 1.1//EN" "http://www.w3.org/Graphics/SVG/1.1/DTD/svg11.dtd">
<!-- Creator: CorelDRAW 2020 (64-Bit) -->
<svg xmlns="http://www.w3.org/2000/svg" xml:space="preserve" width="163.689mm" height="163.689mm" version="1.1" style="shape-rendering:geometricPrecision; text-rendering:geometricPrecision; image-rendering:optimizeQuality; fill-rule:evenodd; clip-rule:evenodd"
viewBox="0 0 827.55 827.55"
 xmlns:xlink="http://www.w3.org/1999/xlink"
 xmlns:xodm="http://www.corel.com/coreldraw/odm/2003">
 <defs>
  <style type="text/css">
   <![CDATA[
    .fil5 {fill:#9196AA}
    .fil4 {fill:#BEC3D2}
    .fil3 {fill:#DCE1EB}
    .fil2 {fill:#F2F6FC}
    .fil1 {fill:#AD0E0E;fill-rule:nonzero}
    .fil0 {fill:#F15249;fill-rule:nonzero}
   ]]>
  </style>
 </defs>
 <g id="Capa_x0020_1">
  <metadata id="CorelCorpID_0Corel-Layer"/>
  <g id="_2833858171344">
   <circle class="fil0" cx="413.78" cy="413.78" r="413.78"/>
   <path class="fil1" d="M249.98 684.28l169.22 143.21c226.02,-2.91 408.35,-187 408.35,-413.71 0,-4.85 -0.11,-9.66 -0.28,-14.47l-197.59 -222.13 -379.7 507.1 0 0z"/>
   <path class="fil2" d="M199.46 173.83l210.44 0 0 104.58 -233.77 0c-10.32,0 -22.15,-9.02 -18.76,-18.76l23.33 -67.06c3.39,-9.75 8.44,-18.76 18.76,-18.76z"/>
   <path class="fil3" d="M409.9 173.83l210.18 0c10.32,0 15.5,8.97 18.76,18.76l22.31 67.06c3.26,9.79 -8.44,18.76 -18.76,18.76l-232.49 0 0 -104.58 -0 0z"/>
   <path class="fil3" d="M356.65 104.31l53.24 0 0 34.91 -48.68 0 0 34.61 -36.51 0 0 -37.57c0,-17.57 14.38,-31.95 31.95,-31.95l0 0z"/>
   <path class="fil4" d="M409.9 104.31l51.72 0c17.57,0 31.95,14.38 31.95,31.95l0 37.57 -34.73 0 0 -34.61 -48.93 0 0 -34.91z"/>
   <path class="fil3" d="M409.9 706.4l-115.62 0c-31.79,0 -55.29,-26.11 -57.81,-57.81l-29.45 -370.18 202.88 0 0 427.99 -0 0z"/>
   <path class="fil4" d="M609.75 278.41l-28.46 370.18c-2.44,31.7 -26.01,57.81 -57.81,57.81l-113.59 0 0 -427.99 199.85 0z"/>
   <path class="fil4" d="M409.52 298.7l0 0c0.13,0 0.26,0 0.38,0.01l0 352.92c-0.13,0 -0.25,0.01 -0.38,0.01l-0 0c-9.69,0 -17.62,-7.93 -17.62,-17.62l0 -317.69c0,-9.69 7.93,-17.62 17.62,-17.62z"/>
   <path class="fil5" d="M409.9 298.7c9.52,0.2 17.24,8.05 17.24,17.62l0 317.69c0,9.56 -7.72,17.41 -17.24,17.62l0 -352.92z"/>
   <path class="fil4" d="M306.07 298.7l0 0c9.69,0 17.08,7.95 17.62,17.62l17.75 317.69c0.54,9.68 -7.93,17.62 -17.62,17.62l-0 0c-9.69,0 -17.08,-7.95 -17.62,-17.62l-17.75 -317.69c-0.54,-9.68 7.93,-17.62 17.62,-17.62z"/>
   <path class="fil5" d="M511.75 298.7l-0 0c-9.69,0 -17.08,7.95 -17.62,17.62l-17.75 317.69c-0.54,9.68 7.93,17.62 17.62,17.62l0 0c9.69,0 17.08,-7.95 17.62,-17.62l17.75 -317.69c0.54,-9.68 -7.93,-17.62 -17.62,-17.62z"/>
  </g>
 </g>
</svg>
