<?xml version="1.0" encoding="UTF-8"?>
<!DOCTYPE svg PUBLIC "-//W3C//DTD SVG 1.1//EN" "http://www.w3.org/Graphics/SVG/1.1/DTD/svg11.dtd">
<!-- Creator: CorelDRAW 2020 (64-Bit) -->
<svg xmlns="http://www.w3.org/2000/svg" xml:space="preserve" width="163.663mm" height="163.689mm" version="1.1" style="shape-rendering:geometricPrecision; text-rendering:geometricPrecision; image-rendering:optimizeQuality; fill-rule:evenodd; clip-rule:evenodd"
viewBox="0 0 28905.68 28910.2"
 xmlns:xlink="http://www.w3.org/1999/xlink"
 xmlns:xodm="http://www.corel.com/coreldraw/odm/2003">
 <defs>
  <style type="text/css">
   <![CDATA[
    .fil1 {fill:#373737}
    .fil4 {fill:#446585}
    .fil3 {fill:#577698}
    .fil0 {fill:#CBE45D}
    .fil2 {fill:#E5F0FE}
   ]]>
  </style>
 </defs>
 <g id="Capa_x0020_1">
  <metadata id="CorelCorpID_0Corel-Layer"/>
  <g id="_2869777411072">
   <path class="fil0" d="M13782.83 11622.07c260.46,-137.83 5023.77,-57.91 5749.62,-57.91 436.88,0 4058.28,-60.4 4304.87,55.86 346.49,163.39 297.3,695.39 -21.35,850.89 -173.6,84.72 -9816.83,102.14 -10048.87,11.76 -368.88,-143.66 -382.11,-650.07 15.74,-860.6zm81.6 -2452.69c234.95,-54.54 1546.49,-21.28 1888.33,-16.44 878.33,12.45 709.28,822.24 264.59,941.53 -214.89,57.65 -1597.02,34.48 -1909.26,26.39 -795.57,-20.65 -778.21,-827.4 -243.66,-951.47zm11032.22 -14.15c372.5,-0.41 807.03,-67.4 1004.08,175.73 225.35,278.01 86.24,656.29 -185.18,747.39 -293.24,98.41 -6118.3,38.75 -7255.96,40.16 -365.58,0.44 -843.57,59.66 -1020.3,-178.14 -229.04,-308.18 -47.76,-638.54 244.35,-748.27 217.01,-81.51 6136.42,-35.73 7213.01,-36.88zm-11027.79 -2377.79c312.54,-108.58 5841.16,-31.67 6679.96,-31.67l5054.91 10.53c502.09,88.64 549.12,767.42 84.71,921.67 -357.49,118.76 -5849.6,31.35 -6720.65,31.35l-5057.9 -11.39c-489.99,-85.8 -626.05,-717.26 -41.03,-920.49zm-93.06 -3346.85c228.22,-119.53 5140.04,-52.21 6095.96,-58.5 1259.22,-8.27 823.85,804.37 561.06,915.58 -244.79,103.57 -5132.87,44.45 -6096.23,49.45 -348.2,1.8 -642.09,17.13 -779.99,-225.95 -174.94,-308.43 -3.53,-563.94 219.2,-680.59zm1640.47 12492.61l959.91 0c99.74,-700.67 801.01,-504.36 1518.76,-504.36 2271.22,0 1855.55,-391.74 1855.48,3271.15 -0.02,273.69 -29.92,721.85 24.23,944.48l32.07 89.26c205.76,41.61 1113.76,-924.77 1404.97,-1161.29 567.12,-460.63 1733.16,-1596.23 2357.9,-2157.99 183.98,-165.44 305.32,-234.95 481.28,-423.49 730.98,-783.17 926.92,-563.74 2144.69,-561.39 1309.42,2.51 1750.08,-575.49 1746.99,-1867.86l0.16 -10785.12c2.65,-1292.57 -510.76,-1806.47 -1803.65,-1803.63l-10785.06 0.42c-1782.52,0 -3785.89,-437.97 -3795.78,1633.37l0.97 10841.99c-1.32,949.99 20.28,821.62 327.13,1491.05 823.6,-259.41 1300.23,-1455.3 2281.61,-1437.09 568.41,10.54 928.56,346.45 1106.87,704.47 233.36,468.56 133.42,1177.1 141.45,1726.04z"/>
   <path class="fil1" d="M4579.97 24101.95l2315.16 -10.46c125.54,531.09 587.46,1518.82 811.22,2077.81 702.55,1754.78 818.05,1778.8 -1111.5,1778.8 -694.97,0 -725.44,-585.45 -1187.5,-1740.1 -235.77,-589.12 -678.23,-1532.38 -827.38,-2106.05zm8506.94 -24101.95l1081.34 0 6493.51 0 5709.72 0c392.94,14.45 674.11,35.94 773.1,67.15 1213.41,382.55 1759.86,1255.83 1761.1,2571.2l0 10856.84 0 45.41 0 170.95c-0.79,800.13 -20.75,1026.36 -394.31,1591.48 -944.46,1428.85 -2192.08,981.12 -3276.98,1070.84 -333.47,27.57 -442.99,251.34 -633.08,439.74l-2853.3 2567.37c-384,355.28 -747.65,727.64 -1149.62,1052.51 -229.73,185.66 -342.32,310.6 -782.75,293.68 -1201.49,-46.13 -1073.71,-1364.98 -1073.71,-2206.58 0,-715.23 0,-1430.44 0,-2145.68 -470.52,0 -941.19,-1.13 -1411.7,0.07 -536.23,1.38 -932.8,77.73 -954.05,-451.79 99.74,-700.67 801.01,-504.36 1518.76,-504.36 2271.22,0 1855.55,-391.74 1855.48,3271.15 -0.02,273.69 -29.92,721.85 24.23,944.48l32.07 89.26c205.76,41.61 1113.76,-924.77 1404.97,-1161.29 567.12,-460.63 1733.16,-1596.23 2357.9,-2157.99 183.98,-165.44 305.32,-234.95 481.28,-423.49 730.98,-783.17 926.92,-563.74 2144.69,-561.39 1309.42,2.51 1750.08,-575.49 1746.99,-1867.86l0.16 -10785.12c2.65,-1292.57 -510.76,-1806.47 -1803.65,-1803.63l-10785.06 0.42c-1782.52,0 -3785.89,-437.97 -3795.78,1633.37l0.97 10841.99c-1.32,949.99 20.28,821.62 327.13,1491.05 823.6,-259.41 1300.23,-1455.3 2281.61,-1437.09 568.41,10.54 928.56,346.45 1106.87,704.47 233.36,468.56 133.42,1177.1 141.45,1726.04l-5.78 1919.81c561.89,269.62 579.06,19.04 1370.92,831.23 161.37,165.54 309.86,425.15 405.74,667.08 660.18,1665.48 -717.1,3221.17 -1776.66,3244.78 0,749.51 119.6,3100.75 -76.28,3593.96 -155.21,390.78 -571.94,770.93 -1055.06,811.09 -844.62,70.22 -1030.89,-476.14 -1747.29,-1018.25 -1271.16,-961.93 -2921.03,-1805.78 -4574.8,-1805.78 110.46,230.24 201.06,502.77 306.48,766.36 106.36,265.9 184.11,460 290.46,725.89 383.05,957.7 1102.26,2163.36 58.64,2946.5 -277.16,207.98 -503.66,281.42 -779.11,304.33l-949.31 0 -81.54 0c-821.8,-0.85 -1011.1,-29.28 -1459.08,-492.12 -304.75,-314.87 -1019.5,-2293.92 -1234.25,-2831.24 -104.33,-261.06 -536.49,-1234.99 -556.55,-1476.16 -413.44,-96.33 -803.15,-127.73 -1167.88,-300.25 -970.9,-459.2 -1752.04,-1131.3 -2129.43,-2218.39 -309.15,-890.45 -339.99,-1538.46 -80.2,-2496.34 75.63,-278.79 309.08,-753.68 473.83,-994.32 1955.08,-2855.8 5017.19,-1221.59 8264.41,-1899.3 1093.4,-228.19 1955.45,-685.48 2149.14,-730.61 -47.17,-176.62 -111.83,-201.48 -197.99,-366.66 -464.84,-891.16 -310.23,-2401.72 -310.23,-3472.97l-0.14 -8695.81c-3.14,-846.56 85.68,-1262.01 396.95,-1805.18 517.72,-903.36 1306.17,-1096.52 2135.65,-1130.84zm-5382.17 17328.08c1920.39,-96.43 3943.89,-840.08 5325.08,-1978.81 737.53,-608.09 907.69,-1017.38 1375.77,-795.18 118.26,893.49 46.68,9354.42 46.68,10968.2 0,519.32 -282.18,621.58 -601.77,319.75 -1686.11,-1592.39 -3639.08,-2567.12 -6145.33,-2695.81l-0.44 -5818.14zm7708.51 1566.87c1271.71,391.35 1245.54,2364.1 0,2685.03l0 -2685.03zm-8681.98 4215.75c-507.46,79.58 -1592.31,17.93 -2162.11,18.01 -728.28,0.11 -1307.51,16.09 -1914.05,-264.52 -874.43,-404.54 -1707.35,-1315.53 -1693.37,-2649.46 13.51,-1288.24 834.11,-2249.44 1719.38,-2621.73 644.56,-271.04 1194.18,-247.35 1944.5,-247.28 505.12,0.02 1686.42,-59.82 2115.78,23.75l-10.14 5741.23z"/>
   <path class="fil2" d="M7704.75 17328.08l0.44 5818.14c2506.24,128.68 4459.22,1103.41 6145.33,2695.81 319.59,301.84 601.77,199.58 601.77,-319.75 0,-1613.78 71.58,-10074.71 -46.68,-10968.2 -468.09,-222.2 -638.24,187.09 -1375.77,795.18 -1381.2,1138.74 -3404.69,1882.38 -5325.08,1978.81z"/>
   <path class="fil3" d="M6731.27 23110.7l10.14 -5741.23c-429.36,-83.58 -1610.66,-23.74 -2115.78,-23.75 -750.32,-0.07 -1299.93,-23.75 -1944.5,247.28 -885.27,372.29 -1705.87,1333.49 -1719.38,2621.73 -13.99,1333.93 818.94,2244.92 1693.37,2649.46 606.54,280.61 1185.77,264.62 1914.05,264.52 569.8,-0.09 1654.65,61.57 2162.11,-18.01z"/>
   <path class="fil1" d="M13868.86 6777.44c-585.03,203.23 -448.96,834.69 41.03,920.49l5057.9 11.39c871.06,0 6363.16,87.41 6720.65,-31.35 464.41,-154.26 417.38,-833.03 -84.71,-921.67l-5054.91 -10.53c-838.81,0 -6367.42,-76.92 -6679.96,31.67z"/>
   <path class="fil1" d="M13782.83 11622.07c-397.85,210.53 -384.62,716.94 -15.74,860.6 232.04,90.37 9875.28,72.96 10048.87,-11.76 318.65,-155.49 367.84,-687.5 21.35,-850.89 -246.59,-116.27 -3867.99,-55.86 -4304.87,-55.86 -725.84,0 -5489.16,-79.92 -5749.62,57.91z"/>
   <path class="fil4" d="M4579.97 24101.95c149.15,573.67 591.61,1516.93 827.38,2106.05 462.06,1154.65 492.53,1740.1 1187.5,1740.1 1929.56,0 1814.05,-24.02 1111.5,-1778.8 -223.76,-558.99 -685.68,-1546.72 -811.22,-2077.81l-2315.16 10.46z"/>
   <path class="fil1" d="M17683.64 9192.11c-292.11,109.73 -473.39,440.09 -244.35,748.27 176.72,237.8 654.72,178.58 1020.3,178.14 1137.66,-1.41 6962.73,58.25 7255.96,-40.16 271.42,-91.1 410.53,-469.38 185.18,-747.39 -197.05,-243.13 -631.58,-176.14 -1004.08,-175.73 -1076.58,1.15 -6996,-44.63 -7213.01,36.88z"/>
   <path class="fil1" d="M13775.8 3430.59c-222.73,116.66 -394.14,372.17 -219.2,680.59 137.9,243.08 431.79,227.75 779.99,225.95 963.36,-5 5851.44,54.12 6096.23,-49.45 262.79,-111.22 698.17,-923.85 -561.06,-915.58 -955.92,6.29 -5867.74,-61.04 -6095.96,58.5z"/>
   <path class="fil1" d="M13864.43 9169.38c-534.55,124.07 -551.91,930.82 243.66,951.47 312.24,8.09 1694.37,31.26 1909.26,-26.39 444.69,-119.29 613.74,-929.07 -264.59,-941.53 -341.84,-4.84 -1653.38,-38.1 -1888.33,16.44z"/>
   <path class="fil3" d="M15413.25 21579.99c1245.54,-320.93 1271.71,-2293.69 0,-2685.03l0 2685.03z"/>
  </g>
 </g>
</svg>
