<svg id="Capa_1" data-name="Capa 1" xmlns="http://www.w3.org/2000/svg" viewBox="0 0 300 300"><defs><style>.cls-1{fill:#cfd8dc;}.cls-2{fill:#4caf50;}.cls-3{fill:#455a64;}</style></defs><title>Iconos_finales</title><path class="cls-1" d="M207.9,88.605H97.584a65.185,65.185,0,0,0,0,130.369H207.9a65.185,65.185,0,1,0,0-130.369Z"/><circle class="cls-2" cx="207.896" cy="153.789" r="45.128"/><path class="cls-3" d="M87.555,178.86a15.043,15.043,0,0,1-15.042-15.042V143.761a15.043,15.043,0,1,1,30.085,0v20.057A15.043,15.043,0,0,1,87.555,178.86Zm0-40.113a5.014,5.014,0,0,0-5.014,5.014v20.057a5.015,5.015,0,0,0,10.029,0V143.761A5.014,5.014,0,0,0,87.555,138.747Z"/><path class="cls-3" d="M137.7,178.86a5.013,5.013,0,0,1-4.483-2.768l-10.56-21.119v18.873a5.015,5.015,0,0,1-10.029,0V133.733a5.015,5.015,0,0,1,3.861-4.874,4.954,4.954,0,0,1,5.636,2.637l10.56,21.11V133.733a5.014,5.014,0,0,1,10.028,0v40.113a5.013,5.013,0,0,1-3.86,4.874A4.625,4.625,0,0,1,137.7,178.86Z"/><path d="M207.9,198.917a45.128,45.128,0,1,1,45.128-45.128A45.128,45.128,0,0,1,207.9,198.917Zm0-80.227a35.1,35.1,0,1,0,35.1,35.1A35.1,35.1,0,0,0,207.9,118.69Z"/><path d="M207.9,218.974H97.584a65.185,65.185,0,0,1,0-130.369H207.9a65.185,65.185,0,1,1,0,130.369ZM97.584,98.634a55.156,55.156,0,1,0,0,110.311H207.9a55.156,55.156,0,1,0,0-110.311Z"/><path d="M87.555,178.86a15.043,15.043,0,0,1-15.042-15.042V143.761a15.043,15.043,0,1,1,30.085,0v20.057A15.043,15.043,0,0,1,87.555,178.86Zm0-40.113a5.014,5.014,0,0,0-5.014,5.014v20.057a5.015,5.015,0,0,0,10.029,0V143.761A5.014,5.014,0,0,0,87.555,138.747Z"/><path d="M137.7,178.86a5.013,5.013,0,0,1-4.483-2.768l-10.56-21.119v18.873a5.015,5.015,0,0,1-10.029,0V133.733a5.014,5.014,0,0,1,9.5-2.247l10.56,21.12V133.733a5.014,5.014,0,1,1,10.028,0v40.113a5.013,5.013,0,0,1-3.86,4.874A4.72,4.72,0,0,1,137.7,178.86Z"/></svg>