<?xml version="1.0" encoding="UTF-8"?>
<!DOCTYPE svg PUBLIC "-//W3C//DTD SVG 1.1//EN" "http://www.w3.org/Graphics/SVG/1.1/DTD/svg11.dtd">
<!-- Creator: CorelDRAW 2020 (64-Bit) -->
<svg xmlns="http://www.w3.org/2000/svg" xml:space="preserve" width="13.4246mm" height="14.3766mm" version="1.1" style="shape-rendering:geometricPrecision; text-rendering:geometricPrecision; image-rendering:optimizeQuality; fill-rule:evenodd; clip-rule:evenodd"
viewBox="0 0 97.97 104.91"
 xmlns:xlink="http://www.w3.org/1999/xlink"
 xmlns:xodm="http://www.corel.com/coreldraw/odm/2003">
 <defs>
  <style type="text/css">
   <![CDATA[
    .str0 {stroke:#AABECE;stroke-width:0.56;stroke-miterlimit:22.9256}
    .fil0 {fill:black}
    .fil2 {fill:#7CB8EB}
    .fil1 {fill:#CCECF6}
   ]]>
  </style>
 </defs>
 <g id="Capa_x0020_1">
  <metadata id="CorelCorpID_0Corel-Layer"/>
  <g id="_1849197344704">
   <path class="fil0" d="M56.04 83.9l6.99 0 0 13.98 -6.99 0 0 -13.98zm-10.48 -22.19l6.99 0.13 0 39.53 -6.99 0 -0 -3.5 3.5 0 -0 -3.49 -3.49 0 -0 -3.5 3.5 0 -0 -3.49 -3.46 0 -0.03 -25.69zm-24.46 -4.02c0.39,-0.53 1.18,-0.93 1.75,-1.31l0 1.31 -1.75 0zm34.94 0.22l0 -3.71 10.92 0c-0.27,0.23 -0.08,0.11 -0.51,0.36 -1.93,1.15 -8.27,3.17 -10.41,3.35zm-24.24 -3.71l10.26 0 0 3.49c-1.96,-0.46 -7.91,-2.02 -9.76,-3.13 -0.43,-0.26 -0.24,-0.13 -0.51,-0.36zm24.24 -6.99l20.96 0 0 3.49 -20.96 0 0 -3.49zm-34.94 0l20.96 0 0 3.49 -20.96 0 0 -3.49zm24.45 -22.1l6.99 0.04 0 9.83 -3.49 0 0 3.49 3.49 0 -0 3.5 -3.49 0 0 3.49 3.49 0 -0 13 -6.99 -0.21 -0.01 -33.15zm-0.02 -21.57l7.02 0 -0 18.24 -6.92 -0.21 -0.07 -0.78 -0.02 -17.25zm-24.43 17.47c0.39,-0.53 1.18,-0.93 1.75,-1.31l0 1.31 -1.75 0zm34.94 0.22l0 -3.71 10.92 0c-0.27,0.23 -0.08,0.11 -0.51,0.36l-1.82 0.8c-2.15,0.96 -6.28,2.35 -8.59,2.55zm-24.24 -3.71l10.26 0 0 3.49c-1.88,-0.44 -3.52,-0.84 -5.32,-1.45l-4.94 -2.05zm24.24 -6.99l20.96 0 0 3.49 -20.96 0 0 -3.49zm-34.94 0l20.96 0 0 3.49 -20.96 0 0 -3.49zm0 10.48l0 3.49 1.75 0 0 3.49 -3.49 0 0 3.49 10.48 0 0 -3.49 -3.49 0 0 -3.49 1.75 0 0 -3.49 -1.75 0 0 -1.97c0.79,0.18 1.1,0.57 1.75,0.87 3.41,1.59 10.62,4.51 13.98,4.59l0 19.22 -15.72 0 0 -3.49 1.75 0 0 -3.49 -6.99 0 0 3.49 1.75 0 0 3.49c-6.12,0 -5.19,-1.05 -5.25,7.87 -0.01,2.06 0.22,2.04 1.47,2.68l0.28 0.15c-1.31,0.35 -7.14,5.02 -19.22,5.02l0 3.71c3.88,0 8.39,-0.71 11.53,-1.57 4.74,-1.3 9.06,-3.8 9.43,-3.89l0 3.49 1.75 0 0 3.49 -3.49 0 0 3.49 10.48 0 0 -3.49 -3.49 0 0 -3.49 1.75 0 0 -3.49 -1.75 0 0 -1.97c0.79,0.18 1.1,0.57 1.75,0.87 3.41,1.59 10.62,4.51 13.98,4.59l0 38.22c0,6.42 -1.27,5.45 9.83,5.46 3.83,0 4.15,0.39 4.15,-3.49 12.53,0 10.48,2.04 10.48,-10.48 0,-12.53 2.04,-10.48 -10.48,-10.48l-0.02 -17.49c-0.03,-2.66 -0.14,-0.38 8.94,-3.73 1.25,-0.46 2.23,-0.96 3.45,-1.57l3.35 -1.67 0 1.75 -1.75 0 0 3.49 1.75 0 0 3.49 -3.49 0 0 3.49 10.48 0 0 -3.49 -3.49 0 0 -3.49 1.75 0 0 -3.49 -1.75 0 0 -1.31c1.89,0.5 8,6.77 22.71,6.77l0 -3.49c-4.05,-0.94 -5.59,0.66 -14.76,-3.15 -1.51,-0.63 -2.68,-1.38 -4.02,-2.09 0.88,-1.2 1.34,-0.21 1.32,-2.83 -0.01,-1.46 -0.01,-2.92 -0.01,-4.38 0.01,-1.58 0.23,-2.88 -1.01,-3.36 -1.1,-0.42 -2.96,-0.14 -4.23,-0.14l0 -3.49 1.75 0 0 -3.49 -6.99 0 0 3.49 1.75 0 0 3.49 -15.72 0 -0.02 -17.49c-0.03,-2.66 -0.14,-0.38 8.94,-3.73l6.8 -3.24 0 1.75 -1.75 0 0 3.49 1.75 0 0 3.49 -3.49 0 0 3.49 10.48 0 0 -3.49 -3.49 0 0 -3.49 1.75 0 0 -3.49 -1.75 0 0 -1.31c1.89,0.5 8,6.77 22.71,6.77l0 -3.49c-3.88,-0.32 -7.24,-0.52 -10.46,-1.55 -1.53,-0.49 -2.79,-0.97 -4.3,-1.6 -1.51,-0.63 -2.68,-1.38 -4.02,-2.09 0.88,-1.2 1.34,-0.21 1.32,-2.83 -0.01,-1.46 -0.01,-2.92 -0.01,-4.38 0.02,-4.22 -0.48,-3.49 -5.24,-3.49l0 -3.49 1.75 0 0 -3.49 -6.99 0 0 3.49 1.75 0 0 3.49 -15.72 0c0,-8.04 1.05,-6.99 -6.99,-6.99 -8.04,0 -6.99,-1.05 -6.99,6.99l-15.72 0 0 -3.49 1.75 0 0 -3.49 -6.99 0 0 3.49 1.75 0 0 3.49c-6.12,0 -5.19,-1.05 -5.25,7.87 -0.01,1.92 0.16,2.01 1.33,2.6l0.29 0.15c0.03,0.02 0.1,0.05 0.14,0.08 -1.03,0.27 -4.59,3.34 -13.14,4.55 -7.66,1.08 -6.08,-0.99 -6.08,4.19 5.79,0 11.43,-1.24 16.41,-3.24l4.55 -2.22z"/>
   <polygon class="fil1" points="45.58,87.4 49.05,87.4 49.05,90.89 45.55,90.89 45.56,94.39 49.05,94.39 49.05,97.88 45.55,97.88 45.56,101.38 52.55,101.38 52.55,61.85 45.55,61.71 "/>
   <polygon class="fil1 str0" points="45.56,58.26 52.55,58.47 52.55,45.47 49.06,45.47 49.05,41.98 52.54,41.98 52.55,38.48 49.06,38.48 49.05,34.99 52.55,34.99 52.55,25.16 45.55,25.11 "/>
   <polygon class="fil1" points="45.55,20.79 45.62,21.58 52.55,21.78 52.55,3.54 45.53,3.54 "/>
   <polygon class="fil2" points="56.04,97.88 63.03,97.88 63.03,83.9 56.04,83.9 "/>
   <polygon class="fil2" points="21.1,14.02 42.06,14.02 42.06,10.53 21.1,10.53 "/>
   <polygon class="fil2" points="56.04,14.02 77,14.02 77,10.53 56.04,10.53 "/>
   <polygon class="fil2" points="56.04,50.71 77,50.71 77,47.22 56.04,47.22 "/>
   <polygon class="fil2" points="21.1,50.71 42.06,50.71 42.06,47.22 21.1,47.22 "/>
  </g>
 </g>
</svg>
