<?xml version="1.0" encoding="UTF-8"?>
<!DOCTYPE svg PUBLIC "-//W3C//DTD SVG 1.1//EN" "http://www.w3.org/Graphics/SVG/1.1/DTD/svg11.dtd">
<!-- Creator: CorelDRAW 2020 (64-Bit) -->
<svg xmlns="http://www.w3.org/2000/svg" xml:space="preserve" width="163.689mm" height="163.689mm" version="1.1" style="shape-rendering:geometricPrecision; text-rendering:geometricPrecision; image-rendering:optimizeQuality; fill-rule:evenodd; clip-rule:evenodd"
viewBox="0 0 3158.18 3158.18"
 xmlns:xlink="http://www.w3.org/1999/xlink"
 xmlns:xodm="http://www.corel.com/coreldraw/odm/2003">
 <defs>
  <style type="text/css">
   <![CDATA[
    .fil0 {fill:#333333}
    .fil7 {fill:#3587C9}
    .fil6 {fill:#3588CB}
    .fil3 {fill:#5299D2}
    .fil4 {fill:#C4DCF0}
    .fil1 {fill:#E2ECF7}
    .fil12 {fill:#EEF2F4}
    .fil10 {fill:#F5F8FA}
    .fil9 {fill:#FD2929}
    .fil11 {fill:#FDC929}
    .fil5 {fill:#FF5050}
    .fil8 {fill:#FFB98D}
    .fil2 {fill:#FFD0B4}
   ]]>
  </style>
 </defs>
 <g id="Capa_x0020_1">
  <metadata id="CorelCorpID_0Corel-Layer"/>
  <g id="_2870352030560">
   <path class="fil0" d="M2341.48 2615.96c82.75,-3.05 648.51,-8.46 688.17,4.01 42.03,25.38 29.78,68.15 29.76,124.93 -0.11,318.58 36.28,314.65 -129.45,314.58 -199.24,-0.08 -400.12,2.58 -599.14,-0.23 -83.52,-2.55 -61.21,-83.91 -61.21,-228 0,-154.31 -22.73,-218.52 71.87,-215.3zm-2083.13 -99.14c98.45,-1.4 646.2,-11.33 698.89,4.22 42.99,26.3 29.62,78.81 29.61,137.5 -0,53.46 0,106.92 0,160.38 0,190.79 23.55,241.05 -79.91,240.76 -215.83,-0.61 -433.1,2.62 -648.68,-0.43 -67.18,-2.05 -61.05,-43.58 -60.83,-104.62l0 -333.11c-0.21,-61.55 -6.93,-102.62 60.91,-104.7zm886.81 -641.52l774.7 0.21 46.91 98.33 -1238.5 -0.34 -6.1 -28.4 -29.27 -69.86 452.27 0.07zm914.44 -174.45c46.05,4.02 57.65,22.7 77.07,54.67 16.6,27.34 32.03,55.06 47.29,82.29l95.88 163.21c19.58,23.28 62.44,34.3 82.12,-2.78 18.16,-34.22 -3.16,-703.51 7.33,-770.24 5.37,-34.12 42.27,-58.11 76.54,-34.74 36.22,24.71 21.34,181.88 21.34,237.79 0,86.36 0,172.71 0,259.07 0,77.31 -15.47,210.75 30.35,229.24 91.14,36.78 68.41,-124.43 68.29,-179.9 -0.09,-41.37 -5.79,-88.31 25.28,-104.79 37.6,-19.94 69.37,6.5 73.11,43.18 6.1,59.82 -19.48,209.86 22.66,237.2 35.06,22.75 69.56,-0.76 75.2,-34.56 13.39,-80.29 -29.84,-209.76 55.97,-201.84 76.92,7.11 27.84,153.09 47.34,211.98 10.13,30.59 53.46,44.33 79.97,18.55 46.47,-45.19 -30.98,-176.34 68.45,-181.62 39.98,9.33 45.72,28.46 45.86,73.28l-0.25 345.73c0.06,256.21 -61.58,216.13 -92.53,370.07l-380.2 0.14 -194.58 -0.21 -43.91 0.13 -308.38 -621.16c-34.41,-68.97 -99.33,-175.7 19.81,-194.69zm-1862.04 -546.21l-0.06 442.96c-0.02,42.93 -8.07,99.44 21.81,120.18 41.15,28.56 75.4,-7.01 77.05,-51.92l-0.23 -290.33c-0.11,-43.55 -13.12,-104.21 41.48,-87.63 162.19,39.14 82.17,342.19 114.15,431.54 20.65,57.68 61,86.13 88.44,115.01 65.27,68.72 97.19,129.55 101.42,238.17 9.7,52.11 61.21,71.74 95.16,15.25 0.66,-1.1 1.64,-2.92 2.24,-3.92 0.59,-0.99 1.87,-3.04 2.36,-3.84 0.49,-0.81 2.11,-1.7 2.47,-3.79 0.36,-2.1 1.54,-2.64 2.52,-3.8l164.66 0.13 88.93 -0.1c-11.45,124.83 -65.56,222.35 -88.64,345.31l-516.66 0.1 -98.37 0.03 -49.66 0c0,-368.57 -86.29,-346.42 -141.05,-629.72 -17.23,-89.15 -6.9,-275.31 -6.9,-375.74 -0,-128.12 0.36,-235.91 98.74,-284.85l0.14 26.94zm2078.58 29.71l-6.34 49.22 -54.72 0.14c-57.19,0.05 -376.06,-6.07 -404.51,3.46 -46.25,15.5 -56.87,95.21 39.62,95.38 67.2,0.12 134.49,-0.75 201.71,-0.1l217.78 0.2 -0.52 451.43c-55.83,-71.76 -67.67,-164.85 -184.65,-179.82 -112.43,-14.39 -187.13,67.71 -193.05,172.16l-1274.92 -0.52c-10.48,-15.66 -14.35,-15.53 -23.4,-34.03 -5.75,-3.03 -2.47,-0.93 -10,-6.38 -1.29,-0.93 -5.27,-3.93 -6.59,-5.03 -17.85,-14.86 -31.05,-32.39 -33.68,-58.8 -3.23,-32.4 -0.22,-82.89 -0.21,-117.24 0.01,-287.71 -50.22,-181.87 -49.23,-314.53l0.07 -832.78c-0.28,-123.86 10.99,-111.13 129.51,-111.09l2142.07 -0.02c75.24,0.43 97.41,-0.47 97.13,80.08l-0.19 1210.73c-67.67,-12.7 -66.13,-8.33 -123.87,10.07 -28.54,-51.54 -88.73,-75.64 -172.31,-59.63l0 -204.87c58.59,0 196.4,22.5 196.26,-49.3 -0.13,-68.32 -104.06,-49.39 -196.45,-49.39 -5.95,-95 -70.37,-155.6 -172.76,-146.03 -30.93,8.71 -53.75,17.98 -73.75,34.92 -25.78,21.83 -23.22,36.48 -43.01,61.8zm606.53 -1085.47c201.51,-2.65 176.82,42.85 176.82,258.89l0 1278.18c-46.25,-9.68 -52.95,-9.59 -98.85,0.37l-1.57 -1308.8c-7.62,-62.5 -37.37,-82.23 -72.52,-111.82 -78.24,-24.86 -116.12,-18.22 -203.33,-18.22l-1535.91 0c-76.19,0 -606.57,-9.47 -656.31,9.68 -48.45,18.65 -87.03,59.01 -94.54,120.37 -16.1,131.62 15.66,707.46 -3.31,873.63 -35.75,-12.36 -53.61,-17.12 -97.09,-13.72 0,-307.39 0.22,-614.79 -0,-922.18 -0.06,-80.63 0.69,-143.88 71.46,-162.74 40.13,-10.69 1522.43,-3.88 1600.17,-3.88 303.55,0 612.04,-5.42 914.97,0.26zm-2685.28 918.9c-62.86,30.16 -78.02,28.35 -133.99,94.24 -28.11,33.09 -63.4,112.23 -63.4,171l0 462.62c0,163.22 148.04,416.03 148.04,548.98l0 148.04c0,17.98 -49.35,53.14 -49.35,111.03l0 468.79c0,67.86 67.84,135.7 135.7,135.7l715.53 0c67.86,0 135.7,-67.84 135.7,-135.7l0 -468.79c0,-50.31 -40.56,-106.62 -80.19,-117.2 1.48,-66.52 92.53,-216.36 92.53,-363.93l906.74 0c19.71,0 29.1,33.29 37.02,49.34 30.2,61.25 196.77,384.21 203.55,413.28 -36.22,24.26 -74.02,57.96 -74.02,117.2l0 370.1c0,67.86 67.84,135.7 135.7,135.7l715.52 0c67.86,0 135.7,-67.84 135.7,-135.7l0 -370.1c0,-55.6 -46.58,-112.66 -92.53,-123.37 9.92,-20.68 16.02,-42.97 26.74,-65.78 28.69,-61.05 65.78,-148.27 65.78,-217.96l0 -2066.39c0,-46.09 -32.36,-97.64 -56.8,-122.08 -24.44,-24.44 -75.98,-56.8 -122.08,-56.8l-2603.03 0c-37.19,0 -84.05,24.64 -105.94,42.1 -105.7,84.33 -72.95,229.91 -72.95,377.34 0,199.44 0,398.88 0,598.33z"/>
   <path class="fil1" d="M594.22 1295.35c-6.37,-26.33 -2.73,-197.63 -1.09,-234.64 20.87,-469.39 602.14,-703.71 942.73,-338.82 69.55,74.51 131.71,187.31 140.48,326.99 20.9,332.64 -1.38,283.41 -183.61,283.41l-703.19 0c-58.29,0 -181.31,20.94 -195.32,-36.95zm-1.09 446.52c86.7,23.36 686.35,-106.89 794.23,-138.3 124.76,-36.32 233.61,-70.95 351.04,-117.77 63.92,-25.49 279.24,-117.98 313.49,-153.35 -67.22,-0.65 -134.5,0.22 -201.71,0.1 -96.49,-0.17 -85.87,-79.89 -39.62,-95.38 28.45,-9.54 347.32,-3.41 404.51,-3.46 17.59,-16.56 37.9,-31.32 61.06,-49.36 19.79,-25.32 17.23,-39.97 43.01,-61.8 20,-16.94 42.82,-26.21 73.75,-34.92 19.66,-35.64 69.48,-64.5 87.17,-100.72l-308.95 -0.04c-13.16,196.9 -282.96,197.48 -295.73,0 -46.39,0 -97.84,2.45 -98.07,-49.31 -0.24,-52.4 51.58,-49.25 98.07,-49.25 12.37,-197.47 282.63,-197.19 295.76,-0.03l389.21 -0c19.19,-37.3 48.22,-73.17 68.9,-115.89 21.13,-43.66 46.38,-83.77 58.24,-130.79l-121.91 -0.17c-12.46,196.88 -282.69,197.22 -295.74,0.17l-407.15 -0.01c-43.26,0.26 -85.29,-2.93 -85.4,-49.45 -0.16,-69.05 123.49,-49.26 221.23,-49.26 90.37,0 180.98,0.66 271.32,-0.16 12.87,-197.29 284.29,-196.06 295.74,0.16l156.6 1.48c18.15,-88 36.18,-153.99 42.88,-248.37l-2142.07 0.02c-118.52,-0.04 -129.79,-12.76 -129.51,111.09l-0.07 832.78c-0.99,132.66 49.24,26.82 49.23,314.53 -0,34.35 -3.02,84.84 0.21,117.24 2.63,26.42 15.83,43.95 33.68,58.8 1.32,1.1 5.3,4.1 6.59,5.03 7.53,5.45 4.25,3.35 10,6.38z"/>
   <path class="fil2" d="M2059.6 1700.85c-40.68,106.56 -4.71,136.33 38.39,222.84l294.1 592.88 194.58 0.21c21.45,-17.84 71.41,-43.1 93.86,-58.35 82.7,-56.15 165.65,-145.7 217.29,-239.26 67.4,-122.09 140.31,-366.37 115.96,-491.61 -99.43,5.27 -21.98,136.43 -68.45,181.62 -26.51,25.78 -69.84,12.05 -79.97,-18.55 -19.5,-58.89 29.58,-204.88 -47.34,-211.98 -85.81,-7.93 -42.58,121.55 -55.97,201.84 -5.63,33.8 -40.13,57.3 -75.2,34.56 -42.14,-27.34 -16.56,-177.38 -22.66,-237.2 -3.74,-36.67 -35.51,-63.12 -73.11,-43.18 -31.07,16.48 -25.38,63.42 -25.28,104.79 0.13,55.47 22.86,216.68 -68.29,179.9 -45.83,-18.49 -30.35,-151.93 -30.35,-229.24 0,-86.36 0,-172.71 0,-259.07 0,-55.9 14.88,-213.07 -21.34,-237.79 -34.26,-23.37 -71.17,0.62 -76.54,34.74 -10.5,66.73 10.83,736.02 -7.33,770.24 -19.68,37.09 -62.54,26.06 -82.12,2.78l-95.88 -163.21c-15.26,-27.24 -30.69,-54.96 -47.29,-82.29 -19.42,-31.97 -31.01,-50.65 -77.07,-54.67z"/>
   <path class="fil0" d="M1233.7 1233.66l-197.23 0.02c11.25,-131.76 185.58,-131.99 197.23,-0.02zm-308.4 -537.76c30.57,-27.9 108.76,-45.5 160.25,-51.1 0,44.79 -1.97,89.79 44.27,94.32 47.69,4.67 54.41,-36.88 54.39,-79.12l-0.05 -15.4c76,8.75 191.74,51.33 225.98,94.53 -14.76,19.7 -71.64,62.33 -31.28,102.6 40.25,40.15 82.91,-16.56 102.71,-31.25 42.93,34.66 85.26,149.91 94.32,225.86 -45.6,0 -94.57,-1.32 -94.66,49.3 -0.09,52.41 52.31,49.03 97.82,49.36l0 98.63 -147.84 0.07 -98.84 -0.05c-3.59,-72.76 -19.78,-79.85 -45.33,-129.52 22,-32.59 125.09,-96.26 82.16,-147.74 -29.26,-35.09 -62.32,-12.13 -83.34,8.68 -123.88,122.64 -61.3,68.9 -156.9,71.66 -101.96,2.94 -186.02,80.37 -191.12,196.94l-197.56 0.01 -49.25 -0.09 0 -98.45 49.25 -0.29c62.23,-11.49 67.82,-78.43 2.81,-98.81l-48.88 0.39c8.85,-76.41 50.78,-190.46 94.36,-225.86 14.5,10.29 10.98,6.2 19.95,20.75 16.87,10.86 17.57,21.72 43.59,23.69 21.24,1.61 36.42,-8.26 44.4,-20.51 27.22,-41.84 -14.15,-67.89 -28.65,-85.92l-8.7 -13.2 66.16 -39.47zm-331.08 599.44c14.01,57.89 137.03,36.95 195.32,36.95l703.19 0c182.24,0 204.51,49.23 183.61,-283.41 -8.77,-139.69 -70.93,-252.48 -140.48,-326.99 -340.59,-364.9 -921.85,-130.57 -942.73,338.82 -1.65,37.01 -5.29,208.31 1.09,234.64z"/>
   <path class="fil3" d="M2886.55 215.69l-3.88 -116.81c-302.93,-5.68 -611.42,-0.26 -914.97,-0.26 -77.73,0 -1560.04,-6.81 -1600.17,3.88 -70.77,18.86 -71.52,82.11 -71.46,162.74 0.23,307.39 0,614.79 0,922.18 43.47,-3.4 61.33,1.35 97.09,13.72 18.97,-166.17 -12.79,-742.01 3.31,-873.63 7.5,-61.36 46.09,-101.72 94.54,-120.37 49.74,-19.15 580.12,-9.68 656.31,-9.68l1535.91 0c87.2,0 125.08,-6.64 203.33,18.22z"/>
   <path class="fil2" d="M296.28 2418l98.37 -0.03c34.59,-23.77 196.07,-61.23 357.22,-179.48 48.48,-35.57 135.12,-113.26 159.16,-165.84l-164.66 -0.13c-0.99,1.17 -2.16,1.7 -2.52,3.8 -0.36,2.09 -1.98,2.98 -2.47,3.79 -0.48,0.8 -1.76,2.85 -2.36,3.84 -0.6,0.99 -1.58,2.82 -2.24,3.92 -33.95,56.49 -85.46,36.86 -95.16,-15.25 -63.75,-0.37 -48.59,5.47 -62.09,-49.07 -13.1,-52.94 -34.4,-88.79 -66.72,-130.62 -25.96,-33.59 -103.19,-103.04 -114.41,-144.46 -9.7,-35.79 -3.18,-205.75 -3.36,-255.76 -0.35,-98.31 -16.94,-136.06 -57.42,-204.82 -54.6,-16.58 -41.59,44.08 -41.48,87.63l0.23 290.33c-1.65,44.91 -35.91,80.49 -77.05,51.92 -29.88,-20.74 -21.83,-77.25 -21.81,-120.18l0.06 -442.96c-60.66,54.8 -49.31,220.19 -49.31,313.42 0,362.33 -16.85,292.02 101.35,626.41 48.71,137.79 46.68,166.93 46.68,323.54z"/>
   <path class="fil4" d="M593.13 1741.87c9.04,18.5 12.91,18.37 23.4,34.03l1274.92 0.52c5.92,-104.44 80.61,-186.54 193.05,-172.16 116.99,14.97 128.82,108.06 184.65,179.82l0.52 -451.43 -217.78 -0.2c-34.25,35.38 -249.57,127.87 -313.49,153.35 -117.42,46.82 -226.28,81.44 -351.04,117.77 -107.88,31.41 -707.53,161.66 -794.23,138.3z"/>
   <path class="fil4" d="M2722.19 544.36c61.61,21.79 59.47,96.49 -34.7,97.23 -11.87,47.02 -37.12,87.13 -58.24,130.79 -20.67,42.72 -49.71,78.59 -68.9,115.89 46.13,-0.08 103.02,-3.01 147.84,-0.1 43.36,2.82 73.69,42.91 42.69,79.91 -28.97,34.56 -212.52,18.9 -270.82,18.83 -17.69,36.23 -67.51,65.08 -87.17,100.72 102.39,-9.56 166.81,51.03 172.76,146.03 92.38,0 196.31,-18.92 196.45,49.39 0.14,71.8 -137.68,49.3 -196.26,49.3l0 204.87c83.58,-16 143.77,8.09 172.31,59.63 57.74,-18.39 56.19,-22.77 123.87,-10.07l0.19 -1210.73c0.27,-80.55 -21.9,-79.65 -97.13,-80.08 -6.7,94.37 -24.73,160.36 -42.88,248.37z"/>
   <path class="fil5" d="M925.3 695.91l-38.52 42.63c-16.34,13.43 -1.98,3.15 -18.93,10.04 14.5,18.04 55.87,44.09 28.65,85.92 -7.97,12.26 -23.15,22.12 -44.4,20.51 -26.03,-1.97 -26.72,-12.83 -43.59,-23.69 -27.83,76.83 -54.88,100.7 -65.43,204.72 65.01,20.38 59.42,87.32 -2.81,98.81l0 98.83 197.56 -0.01c5.11,-116.58 89.17,-194.01 191.12,-196.94 95.6,-2.75 33.03,50.98 156.9,-71.66 21.03,-20.82 54.08,-43.77 83.34,-8.68 42.93,51.48 -60.16,115.15 -82.16,147.74 25.55,49.68 41.74,56.76 45.33,129.52l98.84 0.05c0,-135.86 10.04,-243.64 -47.91,-359.23 -21.53,-42.93 -54.29,-96.85 -81.23,-122.62 -34.02,-32.55 -73.98,-74.08 -117.87,-91.85 0.02,42.24 -6.7,83.79 -54.39,79.12 -46.25,-4.52 -44.27,-49.53 -44.27,-94.32 -51.48,5.6 -129.68,23.2 -160.25,51.1z"/>
   <path class="fil3" d="M246.92 3018.7c54.69,-26.56 156.12,-50.4 221.25,-76.84 72.32,-29.34 138.96,-61.55 201.97,-100.25 64.12,-39.38 164.15,-116.48 205.08,-171.38 31.46,-42.2 74.16,-96.62 82.03,-149.18 -52.69,-15.55 -600.44,-5.62 -698.89,-4.22 -23.69,74.02 -12.02,397.76 -11.42,501.87z"/>
   <path class="fil3" d="M2323.32 3034.14c158.08,-20.96 311.27,-52.41 434.58,-121.91 68.2,-38.44 114.07,-69.87 161.01,-116.69 33.71,-33.62 101.45,-108.03 110.73,-175.57 -39.65,-12.47 -605.42,-7.06 -688.17,-4.01 -32.72,48.84 -22.08,125.77 -22.08,196.79 0,44.84 -4.87,191.34 3.92,221.39z"/>
   <path class="fil6" d="M246.92 3018.7l11.34 40.56c215.59,3.05 432.86,-0.19 648.68,0.43 103.46,0.29 79.91,-49.97 79.91,-240.76 0,-53.46 -0,-106.92 0,-160.38 0,-58.69 13.37,-111.21 -29.61,-137.5 -7.87,52.56 -50.57,106.98 -82.03,149.18 -40.93,54.9 -140.95,132 -205.08,171.38 -63.01,38.71 -129.65,70.91 -201.97,100.25 -65.13,26.43 -166.56,50.28 -221.25,76.84z"/>
   <path class="fil7" d="M2886.55 215.69c35.14,29.59 64.89,49.33 72.52,111.82l1.57 1308.8c45.9,-9.96 52.6,-10.05 98.85,-0.37l0 -1278.18c0,-216.04 24.69,-261.54 -176.82,-258.89l3.88 116.81z"/>
   <path class="fil0" d="M2005.56 843.49c89.25,-38.86 85.28,168.49 37.4,188.3 -52.2,21.6 -69.24,-24.74 -69.39,-69.24 -0.18,-53.06 -11.19,-100.26 31.99,-119.07zm474.51 143.42c58.3,0.07 241.85,15.73 270.82,-18.83 31,-36.99 0.67,-77.08 -42.69,-79.91 -44.82,-2.92 -101.71,0.02 -147.84,0.1l-389.21 0c-13.13,-197.16 -283.39,-197.44 -295.76,0.03 -46.49,0 -98.31,-3.15 -98.07,49.25 0.23,51.76 51.68,49.31 98.07,49.31 12.76,197.48 282.57,196.89 295.73,-0l308.95 0.04z"/>
   <path class="fil0" d="M2370.04 653.84c-5.87,-26.23 -5.49,-120.37 7.39,-139.3 23.21,-34.1 78.27,-24.98 87.9,17.61 5.95,26.32 5.67,117.72 -7.13,137.2 -21.52,32.75 -79.3,24.02 -88.16,-15.51zm317.46 -12.26c94.16,-0.74 96.3,-75.44 34.7,-97.23l-156.6 -1.48c-11.45,-196.22 -282.87,-197.45 -295.74,-0.16 -90.34,0.81 -180.95,0.16 -271.32,0.16 -97.74,0 -221.39,-19.8 -221.23,49.26 0.11,46.52 42.14,49.71 85.4,49.45l407.15 0.01c13.05,197.05 283.28,196.71 295.74,-0.17l121.91 0.17z"/>
   <path class="fil6" d="M2323.32 3034.14l7.5 25.11c199.02,2.81 399.9,0.15 599.14,0.23 165.74,0.06 129.35,4 129.45,-314.58 0.02,-56.78 12.26,-99.55 -29.76,-124.93 -9.28,67.54 -77.02,141.95 -110.73,175.57 -46.94,46.81 -92.81,78.25 -161.01,116.69 -123.31,69.49 -276.5,100.95 -434.58,121.91z"/>
   <path class="fil8" d="M2586.67 2516.78l380.2 -0.14c30.95,-153.93 92.59,-113.86 92.53,-370.07l0.25 -345.73c-0.14,-44.82 -5.88,-63.95 -45.86,-73.28 24.35,125.24 -48.56,369.52 -115.96,491.61 -51.65,93.55 -134.59,183.1 -217.29,239.26 -22.46,15.25 -72.42,40.51 -93.86,58.35z"/>
   <path class="fil6" d="M722.16 1945.1l6.1 28.4 1238.5 0.34 -46.91 -98.33 -774.7 -0.21c-32.64,17.77 -375.66,73.36 -423,69.8z"/>
   <path class="fil8" d="M394.66 2417.97l516.66 -0.1c23.08,-122.96 77.18,-220.48 88.64,-345.31l-88.93 0.1c-24.04,52.58 -110.68,130.27 -159.16,165.84 -161.14,118.24 -322.63,155.7 -357.22,179.48z"/>
   <path class="fil9" d="M1184.21 660c43.89,17.77 83.85,59.3 117.87,91.85 26.94,25.77 59.7,79.69 81.23,122.62 57.95,115.59 47.91,223.36 47.91,359.23l147.84 -0.07 0 -98.63c-45.51,-0.34 -97.92,3.05 -97.82,-49.36 0.09,-50.62 49.06,-49.3 94.66,-49.3 -9.06,-75.95 -51.39,-191.2 -94.32,-225.86 -19.8,14.69 -62.46,71.4 -102.71,31.25 -40.37,-40.27 16.51,-82.9 31.28,-102.6 -34.25,-43.2 -149.98,-85.78 -225.98,-94.53l0.05 15.4z"/>
   <path class="fil10" d="M296.28 2418c0,-156.61 2.02,-185.75 -46.68,-323.54 -118.21,-334.39 -101.35,-264.08 -101.35,-626.41 0,-93.23 -11.35,-258.62 49.31,-313.42l-0.14 -26.94c-98.38,48.93 -98.75,156.73 -98.74,284.85 0,100.42 -10.33,286.59 6.9,375.74 54.76,283.29 141.05,261.15 141.05,629.72l49.66 0z"/>
   <path class="fil8" d="M641.62 2072.62c-4.23,-108.62 -36.15,-169.45 -101.42,-238.17 -27.43,-28.88 -67.79,-57.33 -88.44,-115.01 -31.98,-89.36 48.04,-392.41 -114.15,-431.54 40.48,68.76 57.07,106.51 57.42,204.82 0.18,50.01 -6.34,219.97 3.36,255.76 11.23,41.42 88.45,110.87 114.41,144.46 32.33,41.83 53.63,77.68 66.72,130.62 13.5,54.53 -1.66,48.69 62.09,49.07z"/>
   <path class="fil10" d="M2392.08 2516.57l-294.1 -592.88c-43.09,-86.51 -79.07,-116.28 -38.39,-222.84 -119.13,18.99 -54.21,125.72 -19.81,194.69l308.38 621.16 43.91 -0.13z"/>
   <path class="fil10" d="M258.26 3059.26l-11.34 -40.56c-0.59,-104.11 -12.27,-427.85 11.42,-501.87 -67.84,2.08 -61.12,43.15 -60.91,104.7l-0 333.11c-0.22,61.04 -6.35,102.57 60.83,104.62z"/>
   <path class="fil10" d="M2330.82 3059.26l-7.5 -25.11c-8.8,-30.04 -3.92,-176.54 -3.92,-221.39 0,-71.02 -10.63,-147.95 22.08,-196.79 -94.6,-3.22 -71.87,60.99 -71.87,215.3 0,144.09 -22.31,225.45 61.21,228z"/>
   <path class="fil3" d="M722.16 1945.1c47.34,3.56 390.36,-52.03 423,-69.8l-452.27 -0.07 29.27 69.86z"/>
   <path class="fil11" d="M2370.04 653.84c8.86,39.53 66.63,48.26 88.16,15.51 12.8,-19.48 13.08,-110.89 7.13,-137.2 -9.63,-42.59 -64.69,-51.71 -87.9,-17.61 -12.88,18.93 -13.26,113.07 -7.39,139.3z"/>
   <path class="fil11" d="M2005.56 843.49c-43.18,18.8 -32.18,66 -31.99,119.07 0.16,44.5 17.19,90.84 69.39,69.24 47.89,-19.81 51.85,-227.16 -37.4,-188.3z"/>
   <path class="fil11" d="M1233.7 1233.66c-11.65,-131.98 -185.98,-131.74 -197.23,0.02l197.23 -0.02z"/>
   <path class="fil10" d="M743.08 1036.04c10.56,-104.03 37.6,-127.89 65.43,-204.72 -8.97,-14.55 -5.45,-10.46 -19.95,-20.75 -43.58,35.4 -85.51,149.45 -94.36,225.86l48.88 -0.39z"/>
   <polygon class="fil10" points="740.27,1233.68 740.27,1134.85 691.02,1135.14 691.02,1233.59 "/>
   <path class="fil4" d="M2215.07 1233.71l54.72 -0.14 6.34 -49.22c-23.17,18.04 -43.47,32.8 -61.06,49.36z"/>
   <path class="fil12" d="M867.84 748.58c16.96,-6.89 2.59,3.39 18.93,-10.04l38.52 -42.63 -66.16 39.47 8.7 13.2z"/>
  </g>
 </g>
</svg>
