<svg id="Capa_1" data-name="Capa 1" xmlns="http://www.w3.org/2000/svg" viewBox="0 0 300 300"><defs><style>.cls-1{fill:#e6f1fa;}.cls-2{fill:#cee4f7;}.cls-3{fill:#feda43;}.cls-4{fill:#537d91;}.cls-5{fill:#45738a;}.cls-6{fill:#fdb53e;}</style></defs><title>Iconos_finales</title><path class="cls-1" d="M62.347,129.318H86.254v97.145H62.347Z"/><path class="cls-2" d="M75.672,129.318H86.254v97.145H75.672Z"/><path class="cls-1" d="M253.59,102.938,151.642,32.358a2.884,2.884,0,0,0-3.284,0L46.412,102.938v7.969H253.59Z"/><path class="cls-2" d="M151.642,32.358a2.884,2.884,0,0,0-3.284,0l-3.649,2.527,98.3,68.053v7.969H253.59v-7.969Z"/><path class="cls-3" d="M157.968,79.033A7.968,7.968,0,1,1,150,71.063,7.968,7.968,0,0,1,157.968,79.033Z"/><path class="cls-4" d="M91.336,134.811H57.264a2.887,2.887,0,0,1-2.886-2.886v-18.24H94.222v18.24A2.887,2.887,0,0,1,91.336,134.811Z"/><path class="cls-5" d="M83.64,113.685v18.24a2.887,2.887,0,0,1-2.886,2.886H91.336a2.887,2.887,0,0,0,2.886-2.886v-18.24Z"/><path class="cls-4" d="M91.336,220.971H57.264a2.886,2.886,0,0,0-2.886,2.886V242.1H94.222V223.857A2.886,2.886,0,0,0,91.336,220.971Z"/><path class="cls-5" d="M83.64,242.1v-18.24a2.887,2.887,0,0,0-2.886-2.886H91.336a2.887,2.887,0,0,1,2.886,2.886V242.1Z"/><path class="cls-1" d="M138.047,129.318h23.906v97.145H138.047Z"/><path class="cls-2" d="M151.372,129.318h10.581v97.145H151.372Z"/><path class="cls-4" d="M167.036,134.811h-34.07a2.885,2.885,0,0,1-2.886-2.886v-18.24h39.842v18.24A2.887,2.887,0,0,1,167.036,134.811Z"/><path class="cls-5" d="M159.34,113.685v18.24a2.887,2.887,0,0,1-2.886,2.886h10.582a2.887,2.887,0,0,0,2.886-2.886v-18.24Z"/><path class="cls-4" d="M167.036,220.971h-34.07a2.885,2.885,0,0,0-2.886,2.886V242.1h39.842V223.857A2.886,2.886,0,0,0,167.036,220.971Z"/><path class="cls-5" d="M159.34,242.1v-18.24a2.887,2.887,0,0,0-2.886-2.886h10.582a2.887,2.887,0,0,1,2.886,2.886V242.1Z"/><path class="cls-1" d="M213.746,129.318h23.907v97.145H213.746Z"/><path class="cls-2" d="M227.071,129.318h10.582v97.145H227.071Z"/><path class="cls-4" d="M242.736,134.811H208.664a2.887,2.887,0,0,1-2.886-2.886v-18.24h39.844v18.24A2.887,2.887,0,0,1,242.736,134.811Z"/><path class="cls-5" d="M235.04,113.685v18.24a2.887,2.887,0,0,1-2.886,2.886h10.582a2.887,2.887,0,0,0,2.886-2.886v-18.24Z"/><path class="cls-4" d="M242.736,220.971H208.664a2.886,2.886,0,0,0-2.886,2.886V242.1h39.844V223.857A2.886,2.886,0,0,0,242.736,220.971Z"/><path class="cls-5" d="M235.04,242.1v-18.24a2.887,2.887,0,0,0-2.886-2.886h10.582a2.887,2.887,0,0,1,2.886,2.886V242.1Z"/><path class="cls-3" d="M258.672,118.875H41.328a2.887,2.887,0,0,1-2.886-2.886V105.824a2.886,2.886,0,0,1,2.886-2.886H258.672a2.886,2.886,0,0,1,2.886,2.886v10.165A2.887,2.887,0,0,1,258.672,118.875Z"/><path class="cls-6" d="M258.672,102.938H248.09a2.885,2.885,0,0,1,2.886,2.886v10.165a2.887,2.887,0,0,1-2.886,2.886h10.582a2.887,2.887,0,0,0,2.886-2.886V105.824A2.886,2.886,0,0,0,258.672,102.938Z"/><path class="cls-3" d="M261.558,260.812H38.442V239.793a2.886,2.886,0,0,1,2.886-2.885H258.672a2.886,2.886,0,0,1,2.886,2.885Z"/><path class="cls-6" d="M258.672,236.908H248.09a2.886,2.886,0,0,1,2.886,2.885v21.019h10.582V239.793A2.886,2.886,0,0,0,258.672,236.908Z"/><path class="cls-1" d="M266.64,268.781H33.36a2.887,2.887,0,0,1-2.886-2.886V255.73a2.887,2.887,0,0,1,2.886-2.886H266.64a2.887,2.887,0,0,1,2.886,2.886V265.9A2.887,2.887,0,0,1,266.64,268.781Z"/><path class="cls-2" d="M266.64,252.844H256.059a2.887,2.887,0,0,1,2.886,2.886V265.9a2.887,2.887,0,0,1-2.886,2.886H266.64a2.887,2.887,0,0,0,2.886-2.886V255.73A2.887,2.887,0,0,0,266.64,252.844Z"/><path d="M150,90.609a11.577,11.577,0,1,0-11.576-11.576A11.589,11.589,0,0,0,150,90.609Zm0-15.938a4.362,4.362,0,1,1-4.361,4.362A4.366,4.366,0,0,1,150,74.671Z"/><path d="M269.526,249.237h-4.36V236.908a3.609,3.609,0,0,0-3.608-3.608H249.229V220.971a3.607,3.607,0,0,0-3.607-3.608h-4.359V138.419h4.359a3.607,3.607,0,0,0,3.607-3.608V122.482h12.329a3.607,3.607,0,0,0,3.608-3.607V102.938a3.607,3.607,0,0,0-3.608-3.607h-6.841L152.054,28.255a3.61,3.61,0,0,0-4.108,0L45.285,99.331H38.442a3.607,3.607,0,0,0-3.608,3.607v15.937a3.609,3.609,0,0,0,3.608,3.607H50.771v12.329a3.609,3.609,0,0,0,3.607,3.608h4.361v78.944H54.378a3.607,3.607,0,0,0-3.607,3.608V233.3H38.442a3.609,3.609,0,0,0-3.608,3.608v12.329h-4.36a3.606,3.606,0,0,0-3.608,3.607v15.935a3.606,3.606,0,0,0,3.608,3.607H269.526a3.606,3.606,0,0,0,3.608-3.607V252.844A3.607,3.607,0,0,0,269.526,249.237ZM242.014,233.3H209.387v-8.722h32.627Zm-24.66-15.937V138.419h16.692v78.944Zm24.66-86.159H209.387v-8.722h32.627Zm-36.234,7.215h4.359v78.944H205.78a3.606,3.606,0,0,0-3.607,3.608V233.3H173.529V220.971a3.607,3.607,0,0,0-3.607-3.608h-4.361V138.419h4.361a3.609,3.609,0,0,0,3.607-3.608V122.482h28.644v12.329A3.607,3.607,0,0,0,205.78,138.419Zm-72.092-15.937h32.626V131.2H133.688Zm7.966,15.937h16.692v78.944H141.654Zm24.66,86.159V233.3H133.688v-8.722ZM42.049,106.546H105a3.608,3.608,0,0,0,0-7.215H57.96L150,35.609l92.042,63.722H119.433a3.608,3.608,0,1,0,0,7.215H257.951v8.721H42.049Zm15.937,15.936H90.614V131.2H57.986Zm24.66,15.937v78.944H65.954V138.419Zm-24.66,86.159H90.614V233.3H57.986Zm36.236-7.215H89.861V138.419h4.361a3.609,3.609,0,0,0,3.607-3.608V122.482h28.644v12.329a3.607,3.607,0,0,0,3.607,3.608h4.359v78.944H130.08a3.606,3.606,0,0,0-3.607,3.608V233.3H97.829V220.971A3.607,3.607,0,0,0,94.222,217.363ZM42.049,240.515h215.9v8.722H42.049Zm223.87,24.658H34.081v-8.721H265.919Z"/></svg>