<?xml version="1.0" encoding="UTF-8"?>
<!DOCTYPE svg PUBLIC "-//W3C//DTD SVG 1.1//EN" "http://www.w3.org/Graphics/SVG/1.1/DTD/svg11.dtd">
<!-- Creator: CorelDRAW 2020 (64-Bit) -->
<svg xmlns="http://www.w3.org/2000/svg" xml:space="preserve" width="162.863mm" height="163.689mm" version="1.1" style="shape-rendering:geometricPrecision; text-rendering:geometricPrecision; image-rendering:optimizeQuality; fill-rule:evenodd; clip-rule:evenodd"
viewBox="0 0 1108.28 1113.9"
 xmlns:xlink="http://www.w3.org/1999/xlink"
 xmlns:xodm="http://www.corel.com/coreldraw/odm/2003">
 <defs>
  <style type="text/css">
   <![CDATA[
    .fil1 {fill:black}
    .fil0 {fill:#44C554}
    .fil2 {fill:#FEFEFE}
   ]]>
  </style>
 </defs>
 <g id="Capa_x0020_1">
  <metadata id="CorelCorpID_0Corel-Layer"/>
  <g id="_2834043076384">
   <path class="fil0" d="M622.59 661.76c11.59,-12.56 18.95,-24.26 29.88,-37.68 41.19,-50.59 72.84,-20.54 135.1,9.73 38.55,18.74 60.6,22.52 58.22,75.85 -1.08,24.13 -3.39,33.93 -13.17,53.17 -42.24,83.12 -160.9,75.43 -242.66,42.49 -50.17,-20.22 -128.34,-63 -166.45,-101.32l-50.42 -51.88c-4.96,-6.16 -10.37,-12.2 -14.92,-17.7 -19.96,-24.07 -37.46,-47.81 -55.07,-77.65 -79.28,-134.48 -13.76,-258.87 60.99,-266.35 54.54,-5.45 68.56,7.52 85.18,46.13 11.23,26.08 33.52,69.6 39.9,95.11 11.93,47.67 -32.39,67.9 -40.62,86.38 23.67,50.94 130.45,142.7 174.03,143.73zm198.08 247.56c2.17,-3.94 28.14,-24.85 33.25,-27.78 -16.17,-27.26 8.93,-50.41 31.86,-30.12 2.07,-7.43 20.16,-27.26 25.84,-35.25 -20.56,-25.47 8.65,-42.53 34.54,-105.19 53.54,-129.58 35.42,-268.09 -31.76,-380.31 -66.9,-111.76 -225.9,-228.59 -427.55,-194.39 -286.09,48.52 -440.73,361.3 -298.46,622.23 32.49,59.58 31.06,32.55 7.38,116.33 -3.99,14.14 -15.61,50.01 -16.38,62.4l120.33 -32.44c17.78,-4.88 27.82,2.27 39.91,9.37 101.89,59.84 223.64,75.61 339.23,41.04 37.64,-11.25 75.12,-29.25 106.72,-50.01 17.05,-11.19 22.35,-6.35 35.08,4.12z"/>
   <path class="fil1" d="M228.63 133.65c12.2,9.07 19.58,12.22 35.56,2.03 9.78,-6.24 18.32,-12.76 28.73,-19.11 249.69,-152.28 578.8,-59.37 715.19,203.07 146.15,281.23 -2.34,637.85 -323.28,724.33 -107.92,29.08 -235.76,17.11 -330.29,-24.97 -46.71,-20.8 -42.7,-27.98 -72.84,-19.15l-227.78 61.13c5.41,-28.2 47.84,-173.28 59.06,-212.47 7.63,-26.62 11.06,-28.4 -2.49,-51.29 -8.82,-14.91 -15.1,-28.87 -22.23,-45.21 -67.29,-154.32 -49.71,-344.48 44.57,-482.15 22.54,-32.93 12.43,-27.35 4.41,-45.68 -28.67,-6.64 -30.48,5.5 -42.25,23.07 -20.98,31.34 -34.43,58.66 -49.25,92.23 -6.92,15.65 -14.36,35.84 -19.08,52.76 -22.14,79.38 -31.11,159.88 -15.72,252.05 8.27,49.48 28.89,114.55 52.23,158.91 13.17,25.03 13.62,11.95 1.96,51.94 -21.41,73.42 -41.55,149.35 -62.47,222.67 -16.74,58.67 49.71,30.53 83.72,20.61l193.59 -52.39c14.93,-3.92 16.58,-5.57 29.25,0.85 29.14,14.77 73.51,31.08 104.41,39.26 174.01,46.04 355.77,4.79 492.24,-106.36l46.23 -43c3.47,-4.01 4.78,-5.42 8.4,-9.02 38.65,-38.4 78.29,-100.79 99.57,-148.56 14.7,-33.01 26.66,-68.36 35.72,-107.93 18.74,-81.85 15.58,-176.8 -3.89,-254.69 -18.54,-74.17 -51.93,-140.41 -91.81,-193.32 -5.7,-7.55 -9.49,-12.24 -15.22,-19.61 -19.07,-24.5 -30.09,-33.44 -51.56,-55.1 -20.73,-20.93 -54.29,-45.7 -79.56,-61.91 -58.76,-37.68 -133.41,-69.57 -205.36,-79.76 -25.98,-3.68 -52.59,-6.11 -79.38,-6.87l-35.93 0c-46.82,1.38 -93.53,8.36 -137.68,23.09 -56.94,19.01 -95.44,35.6 -145.02,68.29 -21.21,13.99 -30.73,19.17 -21.74,42.27z"/>
   <path class="fil2" d="M911.62 816.17c-5.68,8 -23.77,27.82 -25.84,35.25 14.91,20.11 -3.18,44.83 -31.86,30.12 -5.11,2.92 -31.08,23.84 -33.25,27.78 6.32,22.17 -3.54,27.36 -18.11,36.8 -121.93,78.98 -285.78,92.07 -420.86,36.99 -22.11,-9.01 -68.56,-36.04 -77.26,-34.5 -26.08,4.64 -64.04,17.19 -90.81,24.62 -23.03,6.4 -76.05,28.4 -86.2,5.02 -5.57,-12.83 25.98,-113.73 33.53,-140.42 6.62,-23.41 11.38,-22.16 -1.13,-42.07 -28.76,-45.78 -52.16,-105 -62.64,-167.85 -24.74,-148.38 28.4,-294.11 105.3,-377.58 12.4,-13.46 28.74,-33.6 42.63,-44.45 76.92,-60.1 122.1,-92.58 233.69,-112.39 145.42,-25.82 271.9,23.59 360.6,90.16 174.97,131.33 233.02,382.45 130.71,579.59 -19.16,36.9 -29.11,63.25 -58.5,52.92zm-683 -682.51c-3.76,4.15 -3.21,3.01 -7.74,6.55 -4.17,3.24 -4.48,3.95 -8.04,7.26 -5.53,5.15 -10.44,8.54 -15.95,13.61 14.28,26.26 -3.04,45.01 -31.39,32.33 -7.78,5.94 -7.73,7.71 -13.73,14.88 -4.22,5.04 -10.15,12.94 -14.54,15.9 8.02,18.33 18.13,12.75 -4.41,45.68 -94.28,137.67 -111.86,327.83 -44.57,482.15 7.13,16.34 13.4,30.3 22.23,45.21 13.54,22.9 10.11,24.67 2.49,51.29 -11.22,39.19 -53.65,184.27 -59.06,212.47l227.78 -61.13c30.15,-8.84 26.13,-1.66 72.84,19.15 94.53,42.08 222.38,54.04 330.29,24.97 320.95,-86.48 469.43,-443.1 323.28,-724.33 -136.39,-262.44 -465.5,-355.35 -715.19,-203.07 -10.41,6.35 -18.95,12.88 -28.73,19.11 -15.98,10.19 -23.37,7.04 -35.56,-2.03z"/>
   <path class="fil1" d="M820.67 909.32c-12.74,-10.47 -18.03,-15.31 -35.08,-4.12 -31.59,20.76 -69.08,38.75 -106.72,50.01 -115.59,34.56 -237.35,18.8 -339.23,-41.04 -12.09,-7.1 -22.14,-14.24 -39.91,-9.37l-120.33 32.44c0.77,-12.39 12.39,-48.26 16.38,-62.4 23.68,-83.78 25.12,-56.75 -7.38,-116.33 -142.27,-260.93 12.37,-573.71 298.46,-622.23 201.65,-34.2 360.66,82.64 427.55,194.39 67.17,112.22 85.29,250.73 31.76,380.31 -25.89,62.66 -55.1,79.71 -34.54,105.19 29.39,10.33 39.34,-16.02 58.5,-52.92 102.31,-197.14 44.26,-448.26 -130.71,-579.59 -88.7,-66.57 -215.17,-115.98 -360.6,-90.16 -111.59,19.81 -156.77,52.3 -233.69,112.39 -13.89,10.85 -30.23,30.99 -42.63,44.45 -76.91,83.48 -130.04,229.2 -105.3,377.58 10.48,62.85 33.87,122.07 62.64,167.85 12.51,19.91 7.74,18.65 1.13,42.07 -7.55,26.69 -39.1,127.59 -33.53,140.42 10.15,23.38 63.17,1.38 86.2,-5.02 26.76,-7.43 64.72,-19.99 90.81,-24.62 8.7,-1.54 55.15,25.49 77.26,34.5 135.08,55.08 298.93,41.99 420.86,-36.99 14.57,-9.44 24.43,-14.62 18.11,-36.8z"/>
   <path class="fil1" d="M401.56 334.76c10.25,29.32 26.83,62.54 39.77,92.45 11.94,27.66 4.87,25.65 -9.99,43.17 -12.84,15.14 -23.56,22.24 -26.04,39.27 -8.32,57.32 134.61,179.24 201.21,194.12 40.14,8.97 52.4,-15.26 77.96,-49.84 17.95,-24.28 20.08,-12.06 85.12,19.58 32.77,15.94 33.67,12.04 32.95,31.62 -2.29,63.42 -54.2,85.87 -116.82,80.55 -38.07,-3.23 -71.38,-17.05 -102.35,-30.36 -30.4,-13.08 -60.57,-31.4 -85.19,-47.61 -23.1,-15.22 -70.26,-56.51 -87.27,-78.13 -51.25,-65.09 -131.06,-150.04 -90.41,-248.21 14.52,-35.05 34.17,-52.86 81.06,-46.61zm221.03 327c-43.57,-1.04 -150.36,-92.8 -174.03,-143.73 8.23,-18.48 52.55,-38.71 40.62,-86.38 -6.39,-25.51 -28.67,-69.03 -39.9,-95.11 -16.62,-38.6 -30.64,-51.58 -85.18,-46.13 -74.75,7.48 -140.27,131.87 -60.99,266.35 17.6,29.85 35.1,53.58 55.07,77.65 4.56,5.5 9.96,11.54 14.92,17.7l50.42 51.88c38.11,38.33 116.28,81.11 166.45,101.32 81.76,32.94 200.42,40.63 242.66,-42.49 9.78,-19.24 12.09,-29.04 13.17,-53.17 2.38,-53.33 -19.67,-57.1 -58.22,-75.85 -62.26,-30.27 -93.91,-60.33 -135.1,-9.73 -10.93,13.43 -18.29,25.12 -29.88,37.68z"/>
   <path class="fil2" d="M401.56 334.76c-46.89,-6.25 -66.54,11.56 -81.06,46.61 -40.65,98.17 39.17,183.12 90.41,248.21 17.02,21.62 64.17,62.9 87.27,78.13 24.62,16.21 54.79,34.53 85.19,47.61 30.96,13.31 64.27,27.13 102.35,30.36 62.62,5.32 114.53,-17.13 116.82,-80.55 0.71,-19.58 -0.18,-15.68 -32.95,-31.62 -65.04,-31.64 -67.17,-43.86 -85.12,-19.58 -25.57,34.59 -37.82,58.82 -77.96,49.84 -66.6,-14.88 -209.52,-136.79 -201.21,-194.12 2.47,-17.03 13.2,-24.13 26.04,-39.27 14.85,-17.52 21.93,-15.51 9.99,-43.17 -12.93,-29.92 -29.51,-63.13 -39.77,-92.45z"/>
   <path class="fil1" d="M165.5 193.4c28.35,12.68 45.67,-6.07 31.39,-32.33 -11.86,-7.92 -20.24,-10.45 -31.03,0.35 -11.08,11.09 -8.43,21.04 -0.36,31.99z"/>
   <path class="fil1" d="M853.92 881.55c28.68,14.7 46.77,-10.01 31.86,-30.12 -22.93,-20.29 -48.03,2.86 -31.86,30.12z"/>
  </g>
 </g>
</svg>
