<?xml version="1.0" encoding="UTF-8"?>
<!DOCTYPE svg PUBLIC "-//W3C//DTD SVG 1.1//EN" "http://www.w3.org/Graphics/SVG/1.1/DTD/svg11.dtd">
<!-- Creator: CorelDRAW 2020 (64-Bit) -->
<svg xmlns="http://www.w3.org/2000/svg" xml:space="preserve" width="163.654mm" height="163.689mm" version="1.1" style="shape-rendering:geometricPrecision; text-rendering:geometricPrecision; image-rendering:optimizeQuality; fill-rule:evenodd; clip-rule:evenodd"
viewBox="0 0 567.13 567.25"
 xmlns:xlink="http://www.w3.org/1999/xlink"
 xmlns:xodm="http://www.corel.com/coreldraw/odm/2003">
 <defs>
  <style type="text/css">
   <![CDATA[
    .fil2 {fill:black}
    .fil6 {fill:#6A8529}
    .fil5 {fill:#6C8729}
    .fil3 {fill:#ABD641}
    .fil0 {fill:#B6E445}
    .fil4 {fill:#EDF0F2}
    .fil1 {fill:#FEFEFE}
   ]]>
  </style>
 </defs>
 <g id="Capa_x0020_1">
  <metadata id="CorelCorpID_0Corel-Layer"/>
  <g id="_2869654957872">
   <path class="fil0" d="M139.13 232.4c3.32,-3.16 80.71,-1.39 91.83,-1.39 0,-14.05 -1.96,-82.59 1.09,-89.7 -0.32,-25.61 24.39,-48.05 50.39,-48.47 27.1,-0.44 51.64,21.07 52.29,46.26 3.29,3.44 1.47,80.69 1.47,91.94 9.3,0 90.71,-1.23 91.78,1.37 24.77,0.6 46.32,24.74 46.32,51.16 -0.01,26.37 -21.53,50.53 -46.32,51.15 -3.21,3.1 -80.75,1.38 -91.78,1.38 0,13.76 1.85,83.96 -1.19,90.65 -0.4,25.57 -24.73,47.56 -51.45,47.55 -26.65,-0.01 -50.48,-21.61 -51.33,-46.88 -3.17,-5.93 -1.27,-78.12 -1.27,-91.3 -9.33,0 -90.73,1.26 -91.83,-1.39 -24.83,-0.72 -46.28,-24.78 -46.29,-51.17 -0.01,-26.41 21.47,-50.47 46.29,-51.17zm262.56 287.9c2.16,-3.49 10.66,-7.71 14.45,-10.4 16.85,-11.96 23.63,-17.84 37.98,-31.76 69.8,-67.7 101.16,-181.06 67.95,-278.67 -8.6,-25.27 -17.39,-42.65 -29.61,-63.03 -24.66,-41.11 -53.58,-63.41 -90.98,-88.56 -2.77,-1.86 -1.4,-0.48 -3.56,-3.06 -7.66,-6.85 -47.93,-18.46 -61.46,-21.22 -164.76,-33.6 -319.57,93.86 -318.13,262.26 0.43,50.04 15.68,96.27 36.36,131.71 11.05,18.95 23.65,34.47 36.26,48.34 41.57,45.72 107.59,77.17 171.99,82.11 25.9,1.99 52.77,0.16 77.38,-5.34 13.59,-3.04 54.59,-15.44 61.38,-22.39z"/>
   <path class="fil1" d="M273.44 453.5c28.43,-3.05 41.6,-20.14 41.56,-48.73l0.25 -89.51 89.51 -0.28c28.46,0.06 45.62,-12.82 48.74,-41.56 -0.19,-7.84 -7.4,-14.64 -12.64,-17.96 -9.19,-5.83 -14.97,-5.55 -26.96,-5.52 -20.96,0.05 -41.93,0 -62.89,0 -41.06,0 -33.84,14.49 -33.79,-92.15 0.01,-22.76 -2.21,-35.71 -19.78,-43.63 -18.45,-8.32 -35.68,1.23 -42.86,13.53 -12.22,20.95 2.34,109.54 -7.52,119.39 -9.14,9.13 -98.56,-4.1 -118.66,7.12 -11.68,6.52 -22.88,23.2 -14.59,42.45 7.66,17.78 19.71,20.55 43.96,20.54 104.82,-0.03 92.13,-7.35 92.13,32.7 0,20.96 0.03,41.93 -0,62.89 -0.02,11.97 -0.49,18.16 5.11,27.38 3.39,5.58 10.27,13.14 18.41,13.35z"/>
   <path class="fil2" d="M397.91 44.81c16.96,5.77 49.45,28.85 59.52,38.59 21.67,20.96 24.89,22.17 45.23,50.81 75.68,106.59 56.01,260.84 -42.9,347.3 -11.14,9.74 -40.94,33.71 -58.07,38.79 -6.78,6.94 -47.79,19.35 -61.38,22.39 -24.62,5.5 -51.48,7.32 -77.38,5.34 -64.4,-4.94 -130.41,-36.39 -171.99,-82.11 -12.62,-13.87 -25.21,-29.39 -36.26,-48.34 -20.68,-35.45 -35.93,-81.67 -36.36,-131.71 -1.44,-168.4 153.37,-295.86 318.13,-262.26 13.53,2.76 53.8,14.37 61.46,21.22zm-397.91 228.46c0,52.96 4.93,82.24 26.31,130.33 16.27,36.58 37.76,60.92 64.87,88.35 16.88,17.08 50.07,38.54 71.56,48.5 91.81,42.54 203.56,34.57 284.16,-24.95 7.58,-5.6 21.8,-16.21 28.48,-22.97 17.69,-17.89 23.87,-23.12 39.64,-44.98 8.4,-11.64 19.32,-29.96 25.44,-43.17 20.86,-45.01 26.67,-77.31 26.67,-131.12 0,-19.28 -3.95,-43.53 -8.23,-59.24 -5.12,-18.82 -10.66,-33.82 -18.09,-50.52 -5.3,-11.93 -17.64,-32.9 -25.31,-43.29 -4.79,-6.48 -9.47,-13.55 -14.98,-19.32l-24.58 -25.73c-3.54,-3.58 -5.71,-4.8 -9.15,-8 -40.36,-37.52 -114.04,-67.17 -172.94,-67.17 -63.35,0 -98.21,8.58 -152.83,38.12 -28.79,15.57 -51.85,38.56 -73.85,62.21 -14.14,15.2 -31.76,43.55 -40.5,62.41 -13.12,28.31 -26.67,69.87 -26.67,110.54z"/>
   <path class="fil2" d="M273.44 453.5c-8.14,-0.21 -15.02,-7.77 -18.41,-13.35 -5.6,-9.22 -5.14,-15.41 -5.11,-27.38 0.04,-20.96 0,-41.93 0,-62.89 0,-40.05 12.69,-32.73 -92.13,-32.7 -24.25,0.01 -36.3,-2.76 -43.96,-20.54 -8.29,-19.25 2.91,-35.93 14.59,-42.45 20.09,-11.22 109.52,2.02 118.66,-7.12 9.86,-9.85 -4.7,-98.44 7.52,-119.39 7.18,-12.3 24.4,-21.85 42.86,-13.53 17.57,7.92 19.79,20.88 19.78,43.63 -0.05,106.65 -7.27,92.15 33.79,92.15 20.96,0 41.93,0.04 62.89,-0 11.98,-0.03 17.76,-0.31 26.96,5.52 5.24,3.32 12.44,10.12 12.64,17.96 2.32,2.69 2.55,4.74 2.54,10.13 -0.03,9.17 -3.78,17.96 -10.01,24.12 -9.06,8.96 -20.47,9.51 -36.69,9.5 -15.63,-0.01 -31.25,0 -46.88,0 -52.83,0 -45.24,-7.35 -45.24,46.43 0,15.25 -0.01,30.49 0,45.74 0.01,16.48 -0.57,28.12 -10.12,37.25 -5.38,5.14 -24.2,15.15 -33.66,6.91zm-41.39 -312.19l-0.4 90.76 -92.52 0.33c-24.82,0.7 -46.3,24.76 -46.29,51.17 0.01,26.39 21.46,50.45 46.29,51.17l92.91 0.75 0.19 91.94c0.85,25.27 24.69,46.87 51.33,46.88 26.73,0.01 51.05,-21.99 51.45,-47.55l0.49 -91.7 92.49 -0.33c24.79,-0.63 46.31,-24.79 46.32,-51.15 0.01,-26.42 -21.55,-50.56 -46.32,-51.16l-92.86 -0.78 -0.39 -92.53c-0.65,-25.19 -25.19,-46.7 -52.29,-46.26 -26,0.42 -50.71,22.86 -50.39,48.47z"/>
   <path class="fil3" d="M401.69 520.3c17.13,-5.08 46.92,-29.05 58.07,-38.79 98.91,-86.45 118.59,-240.71 42.9,-347.3 -20.34,-28.64 -23.56,-29.85 -45.23,-50.81 -10.07,-9.74 -42.56,-32.82 -59.52,-38.59 2.16,2.58 0.8,1.2 3.56,3.06 37.4,25.16 66.32,47.46 90.98,88.56 12.23,20.38 21.02,37.76 29.61,63.03 33.21,97.61 1.85,210.97 -67.95,278.67 -14.36,13.92 -21.13,19.8 -37.98,31.76 -3.79,2.69 -12.29,6.91 -14.45,10.4z"/>
   <path class="fil4" d="M273.44 453.5c9.45,8.24 28.27,-1.76 33.66,-6.91 9.56,-9.13 10.13,-20.77 10.12,-37.25 -0.01,-15.25 0,-30.49 0,-45.74 0,-53.78 -7.6,-46.43 45.24,-46.43 15.63,0 31.25,-0.01 46.88,0 16.22,0.01 27.63,-0.54 36.69,-9.5 6.23,-6.16 9.98,-14.95 10.01,-24.12 0.02,-5.39 -0.21,-7.44 -2.54,-10.13 -3.12,28.74 -20.28,41.62 -48.74,41.56l-89.51 0.28 -0.25 89.51c0.04,28.59 -13.12,45.68 -41.56,48.73z"/>
   <path class="fil5" d="M139.13 232.4l92.52 -0.33 0.4 -90.76c-3.05,7.11 -1.09,75.65 -1.09,89.7 -11.12,0 -88.51,-1.77 -91.83,1.39z"/>
   <path class="fil6" d="M335.02 426.75c3.04,-6.69 1.19,-76.89 1.19,-90.65 11.04,0 88.58,1.72 91.78,-1.38l-92.49 0.33 -0.49 91.7z"/>
   <path class="fil6" d="M427.99 232.41c-1.07,-2.61 -82.49,-1.37 -91.78,-1.37 0,-11.25 1.81,-88.49 -1.47,-91.94l0.39 92.53 92.86 0.78z"/>
   <path class="fil5" d="M232.23 427.42l-0.19 -91.94 -92.91 -0.75c1.1,2.64 82.5,1.39 91.83,1.39 0,13.18 -1.89,85.37 1.27,91.3z"/>
  </g>
 </g>
</svg>
