<?xml version="1.0" encoding="UTF-8"?>
<!DOCTYPE svg PUBLIC "-//W3C//DTD SVG 1.1//EN" "http://www.w3.org/Graphics/SVG/1.1/DTD/svg11.dtd">
<!-- Creator: CorelDRAW 2020 (64-Bit) -->
<svg xmlns="http://www.w3.org/2000/svg" xml:space="preserve" width="206.863mm" height="163.87mm" version="1.1" style="shape-rendering:geometricPrecision; text-rendering:geometricPrecision; image-rendering:optimizeQuality; fill-rule:evenodd; clip-rule:evenodd"
viewBox="0 0 821.24 650.57"
 xmlns:xlink="http://www.w3.org/1999/xlink"
 xmlns:xodm="http://www.corel.com/coreldraw/odm/2003">
 <defs>
  <style type="text/css">
   <![CDATA[
    .fil1 {fill:black}
    .fil6 {fill:#60B7FF}
    .fil5 {fill:#89C8FE}
    .fil0 {fill:#FDE35A}
    .fil4 {fill:#FDE97D}
    .fil2 {fill:#FDEFAD}
    .fil3 {fill:#FED402}
   ]]>
  </style>
 </defs>
 <g id="Capa_x0020_1">
  <metadata id="CorelCorpID_0Corel-Layer"/>
  <g id="_2833979362976">
   <path class="fil0" d="M202.73 531.59c5.82,-1.98 128.06,-0.74 151.82,-0.86 30.39,-0.14 20.14,20.07 13.54,22.78 -6.82,2.8 -128.55,1.2 -153.17,1.35 -30.76,0.19 -23.31,-19.48 -12.19,-23.27zm16.65 -46.88c5.09,-2.72 103.66,-2.39 108.84,-0.45 10.61,3.96 8.26,18.29 0.36,21.67 -4.58,1.96 -102.02,2.26 -107.57,0.49 -9.35,-2.98 -12.01,-16.15 -1.63,-21.7zm-107.05 139.29l582.24 -0.03c7.91,-20.79 34.14,-188.54 40.39,-224.79l29.19 -169.85c4.04,-23.73 10.26,-35.88 1.1,-56.89 -11.39,-0.02 -538.25,-1.43 -551.87,0.21 -19.42,2.34 -18.47,26.67 -22.13,46.94 -3.53,19.58 -6.78,38.77 -10.28,58.37l-57.63 321.03c-3.12,10.66 -7.93,16.63 -11.02,25.01z"/>
   <path class="fil1" d="M283.9 27.82c3.66,-3.25 -0.97,-1.45 6.37,-2.36l109.12 0.09c32.7,-0.01 38.58,-4.08 44.86,12.29 3.86,10.06 13.99,32.1 15.49,41.05 -25.32,0.53 -51.02,0.15 -76.39,0.15 -10.66,0 -69.81,2.5 -74.62,-1.92 -8.92,-1.73 -10.79,-13.98 -14.68,-23.82 -3.45,-8.73 -6.73,-16.89 -10.15,-25.49zm537.34 160.48l0 4.72c-0.09,1.98 -0.29,4.04 -0.62,6.16l-27.34 158.73c-3.09,18.57 -6.04,34.96 -9.15,53.41 -4.4,26.13 -3.13,40.74 -19.73,41.91 -5.15,-4.29 -8.84,-2.79 -9.81,-11.55 -0.47,-4.25 1.72,-13.91 2.55,-18.74l20.29 -117.85c1.93,-11.34 20.2,-111.34 19.29,-117.76 -2.1,-14.84 -16.55,-14.92 -31.48,-14.91 -11.39,-0.02 -538.25,-1.43 -551.87,0.21 -19.42,2.34 -18.47,26.67 -22.13,46.94 -3.53,19.58 -6.78,38.77 -10.28,58.37l-57.63 321.03c-3.12,10.66 -7.93,16.63 -11.02,25.01 -3.44,-0.89 421.26,1.95 590.31,0.27 18.88,-0.19 21.56,-7.4 24.29,-24.81l14.56 -84.94c2.73,-15.96 0.76,-31.13 18.8,-30.86 8.62,2.43 9.79,8.8 8.59,16.5l-19.88 116.62c-10.73,44.76 -73.79,32.14 -128.26,32.14l-538.94 0c-20.45,0 -33.54,0.1 -47.62,-6.91 -33.68,-16.78 -34.18,-45.93 -34.18,-74.89l0 -431.47 0 -3.86c0.02,-18.67 0.49,-27.85 10.04,-39.03 13.03,-15.26 32.11,-12.83 38.91,-15.62 17.22,-7.06 -12.86,-63.87 32.41,-75.06 6.9,-1.7 39.29,-7.2 38.45,11.67 -3.05,18.26 -17.19,8.49 -32.31,12.33 -21.48,5.46 6.5,47.39 -22.77,70.05 -12.33,9.55 -26.44,3.86 -34.86,11.67 -10.84,10.05 -5.88,66.2 -5.88,85.6l0 370.52c-0,23.1 -2.87,53.86 34.58,59.96 45.99,3.57 45.97,-54 53.01,-92.64l61.18 -344.63c2.87,-15.42 6.66,-16.6 11.06,-26.43 16.95,-7.11 7,-11.74 45.54,-11.69l411.09 0.01 19.97 -0.17c-0,-26.29 5.13,-45.4 -25.15,-45.39l-317.76 0.01c-20.39,-0.03 -22.02,-4.97 -33.15,-12.31 -5.63,-9.76 -9.75,-20.99 -14.31,-32.55 -3.28,-8.3 -8.47,-28.82 -16.35,-31.62 -8.02,-2.85 -78.43,-0.3 -94.21,-1.23 -6.41,-3.07 -7.35,-3.22 -8.55,-11.49 0.69,-17.85 22.51,-12.83 41.53,-12.83l211.73 0c20.12,0 33.75,-2.22 46.9,6.04 12.27,7.71 14.44,18.67 19.99,32.94l14.91 38.02c44.91,0 89.82,0 134.74,0 26.32,-0 36.48,-1.4 52.57,14.79 14.35,14.44 11.59,28.83 11.59,55.78 20.85,0 41.7,0 62.56,0 23.1,0 40.91,-2.95 55.49,7.06 9.7,6.65 17.56,17.38 18.29,32.76z"/>
   <path class="fil2" d="M58.58 623.88c12.32,-19.81 14.58,-22.82 19.65,-52.34l55.97 -313.08c3.71,-20.78 7.67,-41.51 11.11,-62.51 4.34,-26.48 10.51,-33.79 38.51,-35.77 16.95,-7.11 7,-11.74 45.54,-11.69l411.09 0.01c0,-22.28 1.35,-26.42 -5.18,-45.56l-317.76 0.01c-20.39,-0.03 -22.02,-4.97 -33.15,-12.31 -20.94,0.97 -23.95,-8.61 -30.22,-24.66 -3.99,-10.23 -10.48,-29.67 -15.39,-37.81l-60.72 -0.57c-6.82,0.06 -13.16,1.03 -18.55,-2.37 -6.41,-3.07 -7.35,-3.22 -8.55,-11.49l-31.13 0c-3.05,18.26 -17.19,8.49 -32.31,12.33 -21.48,5.46 6.5,47.39 -22.77,70.05 -12.33,9.55 -26.44,3.86 -34.86,11.67 -10.84,10.05 -5.88,66.2 -5.88,85.6l0 370.52c-0,23.1 -2.87,53.86 34.58,59.96z"/>
   <path class="fil3" d="M112.33 624c-3.44,-0.89 421.26,1.95 590.31,0.27 18.88,-0.19 21.56,-7.4 24.29,-24.81l14.56 -84.94c2.73,-15.96 0.76,-31.13 18.8,-30.86 0,-11.73 3.85,-20.24 4.12,-30.43 -5.15,-4.29 -8.84,-2.79 -9.81,-11.55 -0.47,-4.25 1.72,-13.91 2.55,-18.74l20.29 -117.85c1.93,-11.34 20.2,-111.34 19.29,-117.76 -2.1,-14.84 -16.55,-14.92 -31.48,-14.91 9.16,21.02 2.94,33.16 -1.1,56.89l-29.19 169.85c-6.25,36.25 -32.48,204 -40.39,224.79l-582.24 0.03z"/>
   <path class="fil4" d="M58.58 623.88c45.99,3.57 45.97,-54 53.01,-92.64l61.18 -344.63c2.87,-15.42 6.66,-16.6 11.06,-26.43 -28,1.97 -34.17,9.28 -38.51,35.77 -3.44,21 -7.41,41.73 -11.11,62.51l-55.97 313.08c-5.07,29.52 -7.33,32.53 -19.65,52.34z"/>
   <path class="fil5" d="M308.73 77.12l129.38 0.11 -19.47 -49.19 -134.75 -0.23c3.42,8.59 6.7,16.76 10.15,25.49 3.89,9.83 5.76,22.09 14.68,23.82z"/>
   <path class="fil1" d="M202.73 531.59c-11.12,3.8 -18.57,23.47 12.19,23.27 24.62,-0.16 146.35,1.45 153.17,-1.35 6.6,-2.71 16.85,-22.92 -13.54,-22.78 -23.76,0.11 -146.01,-1.13 -151.82,0.86z"/>
   <path class="fil1" d="M219.38 484.7c-10.38,5.55 -7.72,18.72 1.63,21.7 5.55,1.77 102.99,1.47 107.57,-0.49 7.9,-3.38 10.25,-17.71 -0.36,-21.67 -5.19,-1.93 -103.75,-2.27 -108.84,0.45z"/>
   <path class="fil6" d="M308.73 77.12c4.81,4.42 63.96,1.92 74.62,1.92 25.36,0 51.06,0.38 76.39,-0.15 -1.5,-8.95 -11.63,-30.99 -15.49,-41.05 -6.28,-16.37 -12.16,-12.3 -44.86,-12.29l-109.12 -0.09c-7.34,0.91 -2.71,-0.89 -6.37,2.36l134.75 0.23 19.47 49.19 -129.38 -0.11z"/>
   <path class="fil4" d="M284.37 90.64c-5.63,-9.76 -9.75,-20.99 -14.31,-32.55 -3.28,-8.3 -8.47,-28.82 -16.35,-31.62 -8.02,-2.85 -78.43,-0.3 -94.21,-1.23 5.38,3.4 11.73,2.43 18.55,2.37l60.72 0.57c4.91,8.13 11.39,27.58 15.39,37.81 6.27,16.05 9.27,25.63 30.22,24.66z"/>
   <path class="fil4" d="M640.46 148.5l19.97 -0.17c-0,-26.29 5.13,-45.4 -25.15,-45.39 6.53,19.14 5.18,23.28 5.18,45.56z"/>
  </g>
 </g>
</svg>
