<?xml version="1.0" encoding="UTF-8"?>
<!DOCTYPE svg PUBLIC "-//W3C//DTD SVG 1.1//EN" "http://www.w3.org/Graphics/SVG/1.1/DTD/svg11.dtd">
<!-- Creator: CorelDRAW 2020 (64-Bit) -->
<svg xmlns="http://www.w3.org/2000/svg" xml:space="preserve" width="163.689mm" height="163.689mm" version="1.1" style="shape-rendering:geometricPrecision; text-rendering:geometricPrecision; image-rendering:optimizeQuality; fill-rule:evenodd; clip-rule:evenodd"
viewBox="0 0 1408.34 1408.34"
 xmlns:xlink="http://www.w3.org/1999/xlink"
 xmlns:xodm="http://www.corel.com/coreldraw/odm/2003">
 <defs>
  <style type="text/css">
   <![CDATA[
    .fil1 {fill:black}
    .fil2 {fill:#02A8F3}
    .fil0 {fill:#0376BC}
    .fil3 {fill:#F4F4F4}
   ]]>
  </style>
 </defs>
 <g id="Capa_x0020_1">
  <metadata id="CorelCorpID_0Corel-Layer"/>
  <g id="_2870291783888">
   <path class="fil0" d="M1347.69 58.01c3.16,3.99 5.41,-2.11 -0.9,6.85l-44.42 46.45c-9.3,8.59 -16.28,17.45 -24.97,27.38l-124.74 133.79c12.15,23.61 4.34,30.92 -9.59,45.46 -6.06,6.33 -10.98,9.53 -16.79,16.09l-31.76 34.28c-15.32,14.12 -29.51,45.46 -56.85,21.45 -1.87,11.91 0,5.48 -8.88,14.62l-47.67 51.33c-17.05,19.15 -10.29,16.62 -20.65,16.41 20.9,26.94 -1.51,43.75 -24,65.45 -23.14,22.32 -81.08,90.44 -105.42,114.75l-298.98 319.9c-6.6,7.62 -10.64,10.25 -18,17.66l-87.19 93.84c5.7,22.5 26.73,66.02 36.57,89.5 12.74,30.38 24.62,59.33 37.36,89.15 8.44,19.76 27.82,73.48 37.98,88.46 18.88,27.83 51.43,-8.53 71.59,-30.75l49.32 -46.93c15.55,-15.86 67.53,-58.43 77.55,-76.53l216.96 -410.25c14.51,-26.33 29.9,-54.55 42.88,-80.88 14.06,-28.52 29.33,-54.19 44.05,-82.36l86.41 -164.03c25,-45.33 27.74,-71.77 60.59,-56.99 0.84,-21.46 86.59,-159.9 99.51,-196.23 4.9,13.33 -157.03,1025.53 -173.79,1137.33l42.95 16.92 204.17 -1311.02c-11.39,3.12 -7.54,0.05 -13.31,8.89z"/>
   <path class="fil1" d="M1113.88 1343.22c-23.21,-6.32 -324.57,-131.68 -328.86,-135.68 14.77,-32.44 35.68,-65.58 51.7,-98.51 16.89,-34.73 35.75,-67.51 53.18,-100.93l212.65 -400.59c17.63,-32.6 36.97,-67.83 53.09,-101.06 21.05,-43.4 57.43,-86.47 32.52,-104.35 -32.85,-14.78 -35.59,11.67 -60.59,56.99l-86.41 164.03c-14.72,28.17 -29.99,53.84 -44.05,82.36 -12.98,26.33 -28.37,54.55 -42.88,80.88l-216.96 410.25c-10.03,18.1 -62.01,60.67 -77.55,76.53l-49.32 46.93c-20.15,22.22 -52.71,58.57 -71.59,30.75 -10.16,-14.98 -29.54,-68.71 -37.98,-88.46 -12.74,-29.82 -24.63,-58.77 -37.36,-89.15 -9.84,-23.48 -30.87,-67 -36.57,-89.5l87.19 -93.84c7.36,-7.4 11.41,-10.04 18,-17.66l298.98 -319.9c24.34,-24.3 82.28,-92.42 105.42,-114.75 22.49,-21.7 44.9,-38.51 24,-65.45 -30.99,-5.09 -32.9,6.48 -47.29,23l-155.32 166.51c-6.13,6.88 -11.94,10.75 -18.07,17.57l-346.55 370.41 -344.65 -140.85 4.72 -5.11c0.49,-0.45 1.1,-0.99 1.62,-1.43l643.55 -421.04c67.58,-43.64 635.35,-417.84 649.22,-423.18 5.77,-8.84 1.91,-5.77 13.31,-8.89l-204.17 1311.02 -42.95 -16.92zm-1113.88 -438.25c0,39.88 23.89,44.82 46.83,54.94 7.89,3.48 14.49,5.9 23.51,9.5 17.12,6.85 29.91,12.56 46.74,19.27 16.73,6.67 30.88,11.76 47.02,19l210.95 86.12c6.37,4.33 3.14,0.91 7.5,9.01l43.8 104.73c6,15.21 12.67,31.6 19.33,46.69 9.98,22.6 47.27,121.25 62.75,135.29 4.15,3.77 14.58,11.17 19.61,13.4 11.7,5.19 21.07,5.41 34.53,5.41l1.32 0c37.53,0 72.9,-52.04 100.18,-73.11l89.61 -86.43c32.72,7.62 376.57,159.54 401.6,159.54 35.97,0 47.91,-22.79 52.14,-55.14 10.94,-83.68 28.23,-177.28 40.59,-261.98 8.67,-59.44 17.53,-114.26 26.71,-174.08l80.95 -521.44c4.75,-28.41 52.67,-320.75 52.67,-354.43 0,-18.47 -18.8,-41.26 -49.51,-41.26 -20.71,0 -71.35,37.39 -90.23,50.06 -28.7,19.25 -55.62,36.17 -84.71,55.57 -183.34,122.23 -372.33,241.78 -555.09,363.63 -14.91,9.94 -28.65,19.89 -43.04,28.48 -30.04,17.94 -56.11,38.33 -86.3,56.73 -30.21,18.42 -55.01,37.61 -84.99,55.3l-342.41 224.23c-36.28,24.18 -72.06,39.24 -72.06,70.97z"/>
   <path class="fil2" d="M201.63 871.74c17.6,-7.84 96.03,30.06 117.28,38.87 19.76,8.19 38.13,15.44 58.71,23.82 35.85,14.6 19.03,40.55 7.97,45.47 -16.58,7.39 -144.52,-50.07 -176.81,-63.61 -28.07,-11.78 -26.75,-35.82 -7.15,-44.54zm758.84 -399.61c10.36,0.2 3.6,2.74 20.65,-16.41l47.67 -51.33c8.88,-9.14 7.01,-2.71 8.88,-14.62 -10.67,-20.17 3.36,-33.76 12.95,-43.38l61.47 -64.98c12.11,-13.98 19.86,-17.45 40.57,-8.93l124.74 -133.79c8.69,-9.93 15.68,-18.79 24.97,-27.38l44.42 -46.45c6.31,-8.96 4.06,-2.85 0.9,-6.85 -13.87,5.34 -581.65,379.55 -649.22,423.18l-643.55 421.04c-0.52,0.44 -1.12,0.98 -1.62,1.43l-4.72 5.11 344.65 140.85 346.55 -370.41c6.13,-6.82 11.94,-10.69 18.07,-17.57l155.32 -166.51c14.39,-16.52 16.3,-28.09 47.29,-23z"/>
   <path class="fil2" d="M886.1 1149.05c16.14,-5.79 168.27,62.79 206.12,77.55 51.35,20.02 25.15,46.7 13.93,50.2 -15.01,4.68 -171.77,-63.74 -206.22,-77.96 -13.4,-5.53 -25.37,-7.19 -29.06,-20.55 -4.45,-16.11 3.87,-25.17 15.22,-29.24zm302.06 -746.94c24.91,17.88 -11.46,60.95 -32.52,104.35 -16.12,33.23 -35.46,68.46 -53.09,101.06l-212.65 400.59c-17.43,33.41 -36.29,66.2 -53.18,100.93 -16.01,32.93 -36.93,66.07 -51.7,98.51 4.29,3.99 305.65,129.35 328.86,135.68 16.76,-111.81 178.69,-1124 173.79,-1137.33 -12.92,36.32 -98.67,174.76 -99.51,196.23z"/>
   <path class="fil3" d="M886.1 1149.05c-11.35,4.07 -19.67,13.12 -15.22,29.24 3.69,13.36 15.66,15.02 29.06,20.55 34.45,14.22 191.2,82.65 206.22,77.96 11.22,-3.5 37.42,-30.18 -13.93,-50.2 -37.86,-14.76 -189.98,-83.34 -206.12,-77.55z"/>
   <path class="fil3" d="M201.63 871.74c-19.6,8.73 -20.92,32.76 7.15,44.54 32.29,13.55 160.23,71 176.81,63.61 11.06,-4.93 27.88,-30.87 -7.97,-45.47 -20.59,-8.38 -38.96,-15.63 -58.71,-23.82 -21.25,-8.81 -99.67,-46.7 -117.28,-38.87z"/>
   <path class="fil1" d="M1037.67 389.76c27.33,24 41.53,-7.33 56.85,-21.45l31.76 -34.28c5.81,-6.56 10.73,-9.77 16.79,-16.09 13.93,-14.54 21.74,-21.85 9.59,-45.46 -20.71,-8.52 -28.46,-5.05 -40.57,8.93l-61.47 64.98c-9.58,9.62 -23.62,23.2 -12.95,43.38z"/>
  </g>
 </g>
</svg>
