<?xml version="1.0" encoding="UTF-8"?>
<!DOCTYPE svg PUBLIC "-//W3C//DTD SVG 1.1//EN" "http://www.w3.org/Graphics/SVG/1.1/DTD/svg11.dtd">
<!-- Creator: CorelDRAW 2020 (64-Bit) -->
<svg xmlns="http://www.w3.org/2000/svg" xml:space="preserve" width="163.711mm" height="163.7mm" version="1.1" style="shape-rendering:geometricPrecision; text-rendering:geometricPrecision; image-rendering:optimizeQuality; fill-rule:evenodd; clip-rule:evenodd"
viewBox="0 0 364.24 364.21"
 xmlns:xlink="http://www.w3.org/1999/xlink"
 xmlns:xodm="http://www.corel.com/coreldraw/odm/2003">
 <defs>
  <style type="text/css">
   <![CDATA[
    .fil0 {fill:red}
    .fil1 {fill:white}
   ]]>
  </style>
 </defs>
 <g id="Capa_x0020_1">
  <metadata id="CorelCorpID_0Corel-Layer"/>
  <g id="_2869777395376">
   <path class="fil0" d="M176.97 271.57c23.93,-7.13 33.73,28.28 11.1,35.86 -23.88,8 -35.94,-28.46 -11.1,-35.86zm-2.65 -215.44c20.32,-3.29 32.84,4.83 36.33,21.74 2.04,9.89 -4,41.13 -5.74,52.72 -2.07,13.82 -13.19,98.44 -16.58,103.29 -2.27,3.24 -12.48,8.26 -15.03,-9.13l-19.27 -130.08c-2.6,-17.19 1.45,-35.5 20.3,-38.55zm189.5 136.57c4.32,-60.55 -25.19,-121.01 -71.6,-155.5 -118.43,-88.01 -282.26,-10.28 -291.79,132.89 -6.97,104.67 73.66,187.53 170.14,193.73 99.47,6.4 185.87,-67.66 193.25,-171.12z"/>
   <path class="fil1" d="M174.32 56.13c-18.84,3.05 -22.9,21.37 -20.3,38.55l19.27 130.08c2.55,17.38 12.77,12.37 15.03,9.13 3.39,-4.86 14.51,-89.48 16.58,-103.29 1.74,-11.6 7.78,-42.84 5.74,-52.72 -3.49,-16.91 -16.01,-25.03 -36.33,-21.74z"/>
   <path class="fil1" d="M176.97 271.57c-24.84,7.4 -12.78,43.86 11.1,35.86 22.62,-7.58 12.83,-42.99 -11.1,-35.86z"/>
  </g>
 </g>
</svg>
