<?xml version="1.0" encoding="UTF-8"?>
<!DOCTYPE svg PUBLIC "-//W3C//DTD SVG 1.1//EN" "http://www.w3.org/Graphics/SVG/1.1/DTD/svg11.dtd">
<!-- Creator: CorelDRAW 2020 (64-Bit) -->
<svg xmlns="http://www.w3.org/2000/svg" xml:space="preserve" width="168.22mm" height="168.22mm" version="1.1" style="shape-rendering:geometricPrecision; text-rendering:geometricPrecision; image-rendering:optimizeQuality; fill-rule:evenodd; clip-rule:evenodd"
viewBox="0 0 227.21 227.21"
 xmlns:xlink="http://www.w3.org/1999/xlink"
 xmlns:xodm="http://www.corel.com/coreldraw/odm/2003">
 <defs>
  <style type="text/css">
   <![CDATA[
    .fil2 {fill:#C84146}
    .fil1 {fill:#FE5050}
    .fil4 {fill:#FEACAC}
    .fil0 {fill:#FF5050}
    .fil5 {fill:#FFA7A7}
    .fil3 {fill:#FFFEFE}
   ]]>
  </style>
 </defs>
 <g id="Capa_x0020_1">
  <metadata id="CorelCorpID_0Corel-Layer"/>
  <g id="_1872687288512">
   <path class="fil0" d="M117.93 129.92c-1.01,1.28 -16.64,0.56 -19.41,0.56l-0 -36.75c-1.37,1.05 -0.69,4.9 -0.69,6.57l0.01 35.5c0.02,4.37 -0.72,8.39 -5.48,8.22 -4.86,-0.17 -5.07,-4.35 -5.05,-9.11l0.06 -38.64c-0.05,-2.04 0.41,-2.03 -0.83,-2.58l-0.11 36.34 -18.37 0c-1.19,9.22 -13.02,16.33 -24.33,13.54 -1.12,11.78 -1.8,20.96 -1.43,33.05 0.16,5.2 0.74,10.64 1.43,15.68 0.6,4.38 2.17,10.64 2.3,14.49 2.97,3.57 7.27,7.38 10.65,10.76 4.14,4.14 6.64,7.47 12.57,9.18 0.72,0.21 2.06,0.36 3.84,0.48l38.73 0 43.55 0c3.07,-0.19 5.51,-1.43 7.46,-2.68 4.15,-2.67 42.52,-41.82 49.17,-48.46 3.3,-3.3 8.06,-7.49 10.83,-10.91 3.53,-4.35 4.25,-7.23 4.37,-11.29l0 -5.65 0 -65.68 -31.06 -0.02c-5,-0.14 -3.75,0.12 -4.35,1.2 8.7,2.37 16.38,9.98 15.26,21.24 -0.94,9.44 -9.09,18.3 -19.11,17.85 -2.32,0.88 -7.24,0.42 -9.91,0.42 0,2.86 0,5.71 0,8.57l-0.31 7.41c-0.02,-0.06 -0.11,0.23 -0.17,0.34 -0.86,5.99 -9.55,6.22 -10.26,-0.65 -0.41,-3.97 -0.06,-33.26 -0.06,-39.94 0,-4.02 -0.78,-11.28 1.24,-13.89 0.76,-0.97 0.27,-0.49 1.45,-1.22l1.28 -0.73c0.06,-0.17 0.23,-0.13 0.34,-0.2 -0.86,-0.78 -0.26,-0.9 -3.82,-0.85l-24.44 0.09c-1.83,0.61 -0.64,-0.73 -1.68,1.16 9.47,1.39 16.12,7.77 18.47,16.17 1.72,6.14 1.44,25.65 -1,31.19 -5.87,13.32 -22.28,17.59 -33.67,8.81 -4.54,-3.5 -4.68,-5.41 -7.07,-8.99l-0.43 -0.58z"/>
   <path class="fil1" d="M61.57 87.04c2.66,1.94 8.7,8.73 6.25,14.5 -0.97,2.28 -3.94,4.06 -7.16,2.45 -3.34,-1.66 -1.74,-4.75 -3.84,-6.79 -1.33,1.71 -4.14,9.52 -4.78,12.05 1.54,0.98 4.63,1.96 6.54,3.03 2.04,1.14 3.96,2.52 5.34,3.98 2.74,2.91 5.24,8.09 4.15,13.77l18.37 0 0.11 -36.34c-3.41,-0.28 -8.19,0.35 -11.45,-0.2 -3.3,-0.55 -5.61,-3.66 -4.03,-7.33 1.42,-3.29 4.51,-3.08 8.82,-3.06l24.41 0c3.92,-0 7.88,-0.55 9.62,2.69 1.87,3.48 -0.32,7.01 -3.56,7.65 -3.68,0.73 -8.23,-0.23 -11.83,0.29l0 36.75c2.77,0 18.4,0.72 19.41,-0.56 0.1,-1.93 -1.05,-4.78 -1.14,-7.42 -0.25,-7.16 -0.66,-20.31 1.83,-26.06 3.2,-7.38 11.86,-14.64 23.01,-13.11 1.04,-1.89 -0.15,-0.56 1.68,-1.16l24.44 -0.09c3.56,-0.04 2.96,0.07 3.82,0.85 4.98,1.29 14.21,-0.82 20.23,0.8 0.6,-1.08 -0.65,-1.34 4.35,-1.2l31.06 0.02 0 -6.98c-0.1,-9.48 -1.24,-10.45 -10.98,-20.2l-38.61 -38.61c-3.04,-3.04 -11.56,-12 -14.78,-14.07 -1.85,-1.19 -4.38,-2.47 -7.15,-2.68 -1.21,1.22 -12.62,5.96 -15.26,7.31 -5.04,2.59 -9.92,5.32 -14.34,8.27 -11.06,7.4 -22.4,15.75 -31.53,25.28 -1.92,2 -3.33,3.79 -5.36,5.74 -6.97,6.66 -25.75,33.07 -27.63,40.44z"/>
   <path class="fil2" d="M46.04 206.8c-0.13,-3.85 -1.7,-10.11 -2.3,-14.49 -0.7,-5.05 -1.27,-10.49 -1.43,-15.68 -0.37,-12.09 0.31,-21.28 1.43,-33.05 -8.65,-1.76 -16.27,-8.7 -15.21,-16.5 0.63,-4.66 6.54,-5.86 9.27,-2.45 2.82,3.53 -0.89,6.4 7.76,8.68l2.9 -13.84c-2.42,-1.86 -9.12,-2.46 -15.14,-8.11 -3.65,-3.43 -6.43,-10.7 -3.73,-17.43 4.1,-10.2 19.83,-14.38 31.98,-6.88 1.88,-7.37 20.66,-33.78 27.63,-40.44 2.03,-1.94 3.44,-3.73 5.36,-5.74 9.14,-9.52 20.47,-17.87 31.53,-25.28 4.41,-2.95 9.3,-5.68 14.34,-8.27 2.64,-1.36 14.05,-6.09 15.26,-7.31l-76.26 0c-11.69,0 -13.26,0.14 -19.42,6.32 -17.09,17.15 -33.91,33.92 -51.03,51.03 -4.2,4.2 -8.74,7.46 -8.99,15.48l0 77.61c-0,9.83 0.74,11.17 7.43,17.86l38.61 38.5z"/>
   <path class="fil3" d="M136.42 94.01c4.8,-1.22 9.21,1.32 11.24,3.74 2.85,3.4 2.77,7.46 2.76,12.75 -0,3.96 0.44,12.02 -0.68,15.27 -3.21,9.3 -14.99,9.75 -19.68,3.78 -2.9,-3.69 -2.78,-7.19 -2.78,-12.84 0.01,-11.36 -1.47,-20.01 9.13,-22.7zm-18.49 35.9l0.43 0.58c2.4,3.58 2.54,5.5 7.07,8.99 11.39,8.78 27.8,4.51 33.67,-8.81 2.44,-5.54 2.72,-25.06 1,-31.19 -2.35,-8.4 -9,-14.78 -18.47,-16.17 -11.15,-1.53 -19.81,5.73 -23.01,13.11 -2.49,5.75 -2.08,18.9 -1.83,26.06 0.09,2.64 1.23,5.49 1.14,7.42z"/>
   <path class="fil3" d="M48.45 119.46c15.43,4.43 10,15.95 -2.9,13.84 -8.65,-2.28 -4.93,-5.15 -7.76,-8.68 -2.73,-3.41 -8.64,-2.21 -9.27,2.45 -1.06,7.8 6.56,14.74 15.21,16.5 11.31,2.79 23.14,-4.33 24.33,-13.54 1.09,-5.68 -1.41,-10.86 -4.15,-13.77 -1.38,-1.46 -3.3,-2.84 -5.34,-3.98 -1.91,-1.06 -4.99,-2.05 -6.54,-3.03 -2.36,-0.58 -6.94,-2.6 -8.93,-3.69 -2.2,-1.21 -5.58,-4.2 -3.64,-7.95 2.48,-4.79 14.72,-5.51 17.35,-0.4 2.1,2.04 0.5,5.12 3.84,6.79 3.23,1.61 6.19,-0.17 7.16,-2.45 2.45,-5.77 -3.59,-12.56 -6.25,-14.5 -12.16,-7.49 -27.89,-3.31 -31.98,6.88 -2.7,6.73 0.08,14 3.73,17.43 6.01,5.65 12.71,6.24 15.14,8.11z"/>
   <path class="fil3" d="M188.93 112.2c-1.55,1.08 -9.14,1.02 -11.2,0.3 -0.61,-4.22 -0.31,-13.76 0.12,-18.58 0.01,-0.15 0.11,-0.18 0.17,-0.27 7.93,-0.25 14.45,-0.85 17.55,5 3.19,6.03 -1.05,13.02 -6.64,13.54zm-11.37 27.35l0.16 -16.41c2.35,-0.8 7.6,-0.44 10.23,-0.33 10.02,0.45 18.18,-8.42 19.11,-17.85 1.12,-11.26 -6.57,-18.86 -15.26,-21.24 -6.03,-1.62 -15.26,0.49 -20.23,-0.8 -0.11,0.07 -0.28,0.03 -0.34,0.2l-1.28 0.73c-1.18,0.73 -0.7,0.25 -1.45,1.22 -2.03,2.6 -1.24,9.87 -1.24,13.89 0,6.68 -0.35,35.97 0.06,39.94 0.71,6.87 9.4,6.64 10.26,0.65z"/>
   <path class="fil3" d="M86.54 93.69c1.24,0.55 0.78,0.54 0.83,2.58l-0.06 38.64c-0.02,4.75 0.2,8.94 5.05,9.11 4.76,0.16 5.5,-3.85 5.48,-8.22l-0.01 -35.5c-0,-1.66 -0.68,-5.51 0.69,-6.57 3.6,-0.51 8.16,0.44 11.83,-0.29 3.24,-0.64 5.42,-4.17 3.56,-7.65 -1.74,-3.24 -5.69,-2.7 -9.62,-2.69l-24.41 -0c-4.31,-0.01 -7.4,-0.23 -8.82,3.06 -1.58,3.67 0.73,6.78 4.03,7.33 3.26,0.54 8.04,-0.09 11.45,0.2z"/>
   <path class="fil1" d="M136.42 94.01c-10.6,2.69 -9.13,11.34 -9.13,22.7 -0,5.64 -0.13,9.14 2.78,12.84 4.69,5.97 16.47,5.52 19.68,-3.78 1.12,-3.24 0.68,-11.3 0.68,-15.27 0,-5.29 0.09,-9.35 -2.76,-12.75 -2.03,-2.42 -6.45,-4.96 -11.24,-3.74z"/>
   <path class="fil0" d="M188.93 112.2c5.59,-0.52 9.83,-7.51 6.64,-13.54 -3.1,-5.85 -9.62,-5.26 -17.55,-5l0 18.74 10.92 -0.2z"/>
   <path class="fil2" d="M52.04 109.26c0.65,-2.52 3.45,-10.34 4.78,-12.05 -2.63,-5.1 -14.87,-4.39 -17.35,0.4 -1.94,3.75 1.43,6.74 3.64,7.95 1.99,1.09 6.57,3.11 8.93,3.69z"/>
   <path class="fil1" d="M45.55 133.3c12.9,2.11 18.33,-9.41 2.9,-13.84l-2.9 13.84z"/>
   <path class="fil4" d="M188.93 112.2l-10.92 0.2 0 -18.74c-0.06,0.09 -0.15,0.11 -0.17,0.27 -0.44,4.82 -0.73,14.35 -0.12,18.58 2.07,0.72 9.66,0.78 11.2,-0.3z"/>
   <path class="fil5" d="M177.56 139.55c0.06,-0.11 0.15,-0.4 0.17,-0.34l0.31 -7.41c0,-2.86 0,-5.71 0,-8.57 2.67,0 7.59,0.45 9.91,-0.42 -2.63,-0.11 -7.88,-0.47 -10.23,0.33l-0.16 16.41z"/>
  </g>
 </g>
</svg>
