<svg id="Capa_1" data-name="Capa 1" xmlns="http://www.w3.org/2000/svg" viewBox="0 0 300 300"><defs><style>.cls-1{fill:#d7d5d9;}.cls-2{fill:#77757e;}.cls-3{fill:#ffda44;}.cls-4{opacity:0.19;}.cls-5{fill:#3e3b43;}</style></defs><title>Iconos_finales</title><path class="cls-1" d="M167.664,205.044l-54.9,47.038-8.486,7.27-4.808-5.612a10.883,10.883,0,0,0-15.345-1.183l-3.6,3.088L66.186,238.913l3.6-3.088a10.883,10.883,0,0,0,1.183-15.345h0A10.883,10.883,0,0,0,55.629,219.3l-3.6,3.088L37.687,205.653l6.58-5.218L129.239,97.076,185.227,49.1l8.538-7.315,4.808,5.612a10.883,10.883,0,0,0,15.345,1.183l3.6-3.088,14.337,16.733-3.6,3.088a10.881,10.881,0,0,0-1.183,15.344h0a10.883,10.883,0,0,0,15.345,1.183l3.6-3.088,14.337,16.733-6.579,6.027Z"/><path class="cls-2" d="M192.475,204.065H44.267v-7.39a10.883,10.883,0,0,0-10.882-10.883H28.639V163.758h4.746a10.883,10.883,0,0,0,10.882-10.883h0a10.883,10.883,0,0,0-10.882-10.883H28.639V119.958h4.746a10.883,10.883,0,0,0,10.882-10.883v-12H253.779v7.39a10.882,10.882,0,0,0,10.883,10.882h4.746v22.035h-4.746a10.883,10.883,0,0,0-10.883,10.883h0a10.882,10.882,0,0,0,10.883,10.882h4.746v22.035h-4.746a10.883,10.883,0,0,0-10.883,10.883v12h-61.3Z"/><polygon class="cls-3" points="127.704 114.294 232.325 114.294 232.325 186.847 65.722 186.847 65.722 114.294 99.634 114.294 127.704 114.294"/><path d="M100.889,134.5c1.343,0,1.966,1.439,1.966,2.781,0,1.486-.719,2.829-1.966,2.829h-7V167.58c0,1.295-1.582,1.966-3.117,1.966-1.582,0-3.117-.671-3.117-1.966V140.1H80.606c-1.246,0-1.966-1.295-1.966-2.829,0-1.342.624-2.781,1.966-2.781Z"/><path d="M106.26,136.413c0-1.343,1.534-1.918,3.116-1.918,1.535,0,3.117.575,3.117,1.918V167.58c0,1.295-1.582,1.966-3.117,1.966-1.582,0-3.116-.671-3.116-1.966Z"/><path d="M129.18,139.961c-3.213,0-5.035,1.774-5.035,5.515v13.377c0,3.74,1.822,5.515,5.131,5.515,4.363,0,4.746-3.117,4.89-5.131.1-1.486,1.439-1.966,3.069-1.966,2.158,0,3.165.623,3.165,3.069,0,5.8-4.747,9.494-11.46,9.494-6.042,0-11.029-2.973-11.029-10.98V145.476c0-8.008,5.035-10.981,11.076-10.981,6.665,0,11.413,3.548,11.413,9.111,0,2.494-1.008,3.069-3.117,3.069-1.774,0-3.069-.527-3.117-1.966C134.07,143.222,133.735,139.961,129.18,139.961Z"/><path d="M144.618,136.413c0-1.343,1.534-1.918,3.116-1.918,1.535,0,3.117.575,3.117,1.918V149.5l10.357-14.1a1.982,1.982,0,0,1,1.726-.911c1.582,0,3.6,1.63,3.6,3.213a1.847,1.847,0,0,1-.384,1.2l-8.582,10.741,10.453,15.92a1.868,1.868,0,0,1,.335,1.1c0,1.535-1.917,3.117-3.739,3.117a2.434,2.434,0,0,1-2.158-1.2l-9.014-13.666-2.59,3.26v9.4c0,1.295-1.582,1.966-3.116,1.966-1.583,0-3.117-.671-3.117-1.966V136.413Z"/><path d="M177.317,149.551h7.289c1.247,0,1.966,1.2,1.966,2.494a2.17,2.17,0,0,1-1.966,2.4h-7.289v9.638h13.571c1.247,0,1.966,1.3,1.966,2.781,0,1.3-.624,2.685-1.966,2.685h-17.07c-1.391,0-2.734-.671-2.734-1.966V136.462c0-1.295,1.343-1.966,2.734-1.966h17.07c1.342,0,1.966,1.391,1.966,2.685,0,1.486-.719,2.781-1.966,2.781H177.317v9.589Z"/><path d="M216.444,134.5c1.343,0,1.966,1.439,1.966,2.781,0,1.486-.719,2.829-1.966,2.829h-7V167.58c0,1.295-1.582,1.966-3.116,1.966-1.582,0-3.117-.671-3.117-1.966V140.1h-7.049c-1.247,0-1.966-1.295-1.966-2.829,0-1.342.623-2.781,1.966-2.781Z"/><g class="cls-4"><path class="cls-5" d="M267.011,137.384h4.746V115.349h-4.746a10.883,10.883,0,0,1-10.883-10.883v-7.39h-27.8C200.645,181.339,146.52,184.635,115.6,204.065H256.128v-12a10.882,10.882,0,0,1,10.883-10.882h4.746V159.149h-4.746a10.883,10.883,0,0,1-10.883-10.883h0A10.882,10.882,0,0,1,267.011,137.384Z"/></g><path d="M264.662,141.057h4.746a3.672,3.672,0,0,0,3.673-3.673V115.349a3.672,3.672,0,0,0-3.673-3.672h-4.746a7.218,7.218,0,0,1-7.21-7.21v-1.336L262.84,98.2a3.674,3.674,0,0,0,.308-5.1L248.811,76.366a3.672,3.672,0,0,0-5.178-.4l-3.6,3.088A7.21,7.21,0,1,1,230.647,68.1l3.6-3.088a3.672,3.672,0,0,0,.4-5.178L220.313,43.105a3.674,3.674,0,0,0-5.179-.4l-3.6,3.088a7.211,7.211,0,0,1-10.166-.784L196.556,39.4a3.675,3.675,0,0,0-5.179-.4L127.882,93.4H117.4a3.673,3.673,0,0,0,0,7.346h132.71v3.718a14.571,14.571,0,0,0,14.555,14.555h1.073v14.689h-1.073a14.556,14.556,0,0,0,0,29.111h1.073v14.689h-1.073a14.571,14.571,0,0,0-14.555,14.555v8.327h-25.4a3.673,3.673,0,1,0,0,7.345h29.067a3.672,3.672,0,0,0,3.673-3.672v-12a7.218,7.218,0,0,1,7.21-7.209h4.746a3.672,3.672,0,0,0,3.673-3.673V159.149a3.672,3.672,0,0,0-3.673-3.672h-4.746a7.21,7.21,0,1,1,0-14.42ZM139.171,93.4l54.2-46.436,2.419,2.823a14.555,14.555,0,0,0,20.523,1.583l.815-.7,9.558,11.154-.815.7a14.555,14.555,0,0,0,18.941,22.1l.815-.7,8.114,9.469Z"/><path d="M192.475,200.392H47.94v-3.717a14.572,14.572,0,0,0-14.555-14.556H32.311V167.43h1.074a14.556,14.556,0,0,0,0-29.111H32.311V123.63h1.074A14.571,14.571,0,0,0,47.94,109.075v-8.327H89.855a3.673,3.673,0,0,0,0-7.345H44.267A3.672,3.672,0,0,0,40.6,97.076v12a7.218,7.218,0,0,1-7.21,7.21H28.639a3.671,3.671,0,0,0-3.673,3.673v22.034a3.672,3.672,0,0,0,3.673,3.673h4.746a7.21,7.21,0,0,1,0,14.42H28.639a3.672,3.672,0,0,0-3.673,3.673v22.034a3.672,3.672,0,0,0,3.673,3.673h4.746a7.218,7.218,0,0,1,7.21,7.21v1.986l-5.19,4.115a3.671,3.671,0,0,0-.506,5.267l14.336,16.733a3.672,3.672,0,0,0,5.178.4l3.605-3.088a7.209,7.209,0,0,1,10.166.784,7.218,7.218,0,0,1-.784,10.166l-3.6,3.088a3.672,3.672,0,0,0-.4,5.179l14.337,16.732a3.67,3.67,0,0,0,5.178.4l3.605-3.088a7.209,7.209,0,0,1,10.166.784l4.808,5.611a3.671,3.671,0,0,0,5.178.4l63.384-54.309c.035-.03.066-.063.1-.095h22.321a3.674,3.674,0,0,0,0-7.347ZM104.68,254.174l-2.419-2.823a14.554,14.554,0,0,0-20.523-1.582l-.816.7-9.557-11.155.815-.7a14.555,14.555,0,0,0-18.941-22.106l-.815.7-8.115-9.469H158.875Z"/><path d="M62.049,114.294v72.553a3.672,3.672,0,0,0,3.673,3.673h166.6A3.672,3.672,0,0,0,236,186.847V114.294a3.672,3.672,0,0,0-3.673-3.673H127.7a3.673,3.673,0,1,0,0,7.346H228.652v65.207H69.394V117.967h30.24a3.673,3.673,0,0,0,0-7.346H65.722A3.672,3.672,0,0,0,62.049,114.294Z"/></svg>