<?xml version="1.0" encoding="UTF-8"?>
<!DOCTYPE svg PUBLIC "-//W3C//DTD SVG 1.1//EN" "http://www.w3.org/Graphics/SVG/1.1/DTD/svg11.dtd">
<!-- Creator: CorelDRAW 2020 (64-Bit) -->
<svg xmlns="http://www.w3.org/2000/svg" xml:space="preserve" width="175.191mm" height="163.689mm" version="1.1" style="shape-rendering:geometricPrecision; text-rendering:geometricPrecision; image-rendering:optimizeQuality; fill-rule:evenodd; clip-rule:evenodd"
viewBox="0 0 492.67 460.32"
 xmlns:xlink="http://www.w3.org/1999/xlink"
 xmlns:xodm="http://www.corel.com/coreldraw/odm/2003">
 <defs>
  <style type="text/css">
   <![CDATA[
    .fil0 {fill:black}
    .fil7 {fill:#5E6165}
    .fil3 {fill:#D9EBFE}
    .fil1 {fill:#EBF3FD}
    .fil5 {fill:#FD8087}
    .fil2 {fill:#FD999F}
    .fil6 {fill:#FEDF30}
    .fil4 {fill:#FEE87D}
   ]]>
  </style>
 </defs>
 <g id="Capa_x0020_1">
  <metadata id="CorelCorpID_0Corel-Layer"/>
  <g id="_2869686865200">
   <path class="fil0" d="M173.61 235.47c-0.31,13.59 14.2,9.68 26.54,9.68l250.85 -0.01c21.95,0.12 27.24,2.56 27.24,25.16l-21.62 0.02 -442.18 -0.02c0,-15.86 2.55,-24.98 19.21,-25.17l88.57 0.02c22.41,0 34.41,3.43 34.04,-9.68 -3.15,-6.99 -11.03,-4.81 -24.42,-4.81 -9.94,0 -19.89,0 -29.83,0l53.66 -67.58c3,-3.66 5.36,-6.55 7.92,-10.36l165.51 0 15.17 19.47c5.4,6.6 9.91,12.65 15.32,19.33l26.83 33.79c1.75,2.23 2.96,3.4 4.26,5.36l-194.37 0c-4.47,-0 -9.1,-0.13 -13.53,-0.06 -6.03,0.1 -6.97,0.99 -9.15,4.87zm319.06 22.59l0 56.31 0 112.5c-0.13,9.27 -1.72,14.07 -6.15,19.91 -4.03,5.31 -8.98,8.9 -15.83,11.11 -12.73,4.09 -87.73,1.78 -108.88,1.78 -73.77,0 -147.54,0 -221.32,0 -17.94,0 -100.17,0.96 -110.54,-0.12 -15.09,-1.57 -27.77,-12.24 -29.74,-26.07 -0.08,-0.58 -0.15,-1.2 -0.21,-1.86l0 -25.84 0 -13.53c0.57,-3.69 2.27,-6.29 6.74,-6.69 10.14,1.21 7.69,9.67 7.69,19.52l326.21 -0c9.18,-0.03 12.76,-1.36 15.88,5.43 0.01,12.38 -12.37,9 -34.17,9 -102.55,0 -205.11,0 -307.66,0 -2.99,28.13 16.18,25.15 31.5,25.15l402.3 -0.01c8.88,0.03 17.81,1.21 23.52,-3.74 5.66,-4.9 6.94,-12.22 5.97,-21.4l-98.78 -0.27c-4.09,-1.47 -5.4,-3.68 -5.4,-8.75 3.09,-6.79 6.79,-5.44 15.9,-5.42 7.38,0.02 14.76,0 22.14,0 14.93,0 29.88,0.07 44.81,-0.01l21.58 0.01 -0.01 -120.35 -460.85 0.06c-3.23,0.86 -0.99,-1.04 -2.87,1.67 -0.76,13.87 -0.08,30.05 -0.08,44.27 0,7.38 -0.02,14.76 0,22.13 0.04,9.79 1.59,13.89 -7.7,15.78 -4.46,-1.12 -6.16,-2.76 -6.74,-6.02l0 -16.5 0 -87.09c0.85,-14.93 13.55,-26.81 27.05,-28.28 15.09,-1.64 40.47,-0.1 56.67,-0.1 0.93,-3.47 30.97,-39.84 33.26,-42.75l84.26 -106.27c2.95,-3.71 5.71,-7.1 8.53,-10.71 11.76,-15.05 7.67,-8.37 2.99,-19.35 -14.07,-32.96 21.53,-65.56 54,-45.34 5.2,3.24 9.49,8.46 12.25,13.73 11.58,22.07 -4.03,38.38 -3.81,40.37l33.26 42.76c3,3.99 5.44,6.77 8.54,10.71 3.07,3.91 5.44,6.87 8.55,10.7 9.43,11.62 82.47,102.6 83.41,106.15 17.18,0 39.19,-1.22 55.78,0.03 14.48,1.09 27.03,13.87 27.93,27.38zm-262.69 -188.1c23.41,5.45 11.81,4.87 32.72,0l53.89 67.36 -140.49 0c1.62,-2.42 4.34,-5.42 6.43,-8 2.54,-3.14 4.36,-5.4 6.76,-8.63l26.8 -33.82c2.42,-3.22 4.35,-5.45 6.85,-8.54 1.92,-2.37 5.04,-6.89 7.04,-8.36zm23.1 -53.79c20.86,5.29 21.48,38.95 -5.32,42.55 -14.4,-0.27 -25.67,-10.47 -23.11,-25.83 1.21,-7.27 5.38,-11.88 9.55,-14.52 4.49,-2.84 13.25,-5.61 18.88,-2.19z"/>
   <path class="fil1" d="M121.48 313.41c0,-7.6 5.39,-13.39 11.76,-8.17 4.01,3.29 2.66,14.57 2.66,20.68 -0,14.59 -0.78,31.5 0.15,45.86l10.21 0.07c9.22,-0.05 18.2,3.05 12.15,11.42 -3.07,4.25 -11.82,3.07 -17.92,3.07 -13.58,0 -19.01,1.72 -19.01,-10.39l0 -62.55zm275.87 -7.98c4.47,-2.44 27.62,-0.83 33.08,0.95 8.31,2.71 14.64,9.35 18.12,16.48 8.46,17.31 9.07,62.01 -33.81,62.36 -25.14,0.21 -21.56,5.89 -21.56,-48.72 0,-12.52 -2.28,-27.56 4.17,-31.08zm-191.18 -0.93c52.45,-11.66 70.67,69.03 16.86,80.83 -52.5,11.51 -71.76,-68.63 -16.86,-80.83zm84.46 -0.09c8.91,-2.17 17.32,-0.07 24.47,3.73 14.71,7.81 8.27,14.88 4.67,16.22 -6.63,2.47 -11.56,-6.5 -22.44,-6.35 -9.86,0.14 -16.41,9.52 -7,13.98 7.02,3.33 14.53,5.22 21.25,8.59 6.38,3.2 12.16,8.39 14.11,15.67 4.62,17.29 -11.47,30.15 -27.37,30.04 -22.93,-0.15 -39.14,-19.19 -26.11,-23.94 7.47,-2.73 8.12,5.45 19.58,8.59 8.75,2.4 18.88,-0.24 19.97,-7.68 1.22,-8.29 -9,-10.76 -16.09,-13.53 -7.24,-2.83 -16.12,-5.65 -19.56,-10.25 -11.28,-15.09 -1.19,-31.24 14.53,-35.07zm-218.12 0.15c19.25,-4.42 43.1,8.05 32.26,17.44 -7.71,6.68 -20.06,-13.77 -41.16,2.1 -10.74,8.08 -13.81,27.36 -2.55,38.9 4.47,4.58 9.75,8.51 18.82,8.84 13.01,0.47 15.13,-6.5 18.37,-8.32 7.57,-4.25 15.44,3.73 8.69,11.58 -14.37,16.71 -42.18,13.91 -57.04,-2.88 -19.51,-22.03 -11.39,-59.86 22.6,-67.66zm280.26 67.04c7.75,0 24.9,-2.18 27.77,3.99 5.81,12.49 -13.18,10.44 -20.66,10.44 -12.82,0 -21.52,3.45 -21.58,-10.99 -0.3,-77 -5.76,-71.23 22.54,-71.24 4.07,-0 26.02,-2.9 19.57,10.84 -2.89,6.16 -19.96,3.59 -27.64,3.59l0 19.51c8.75,0 26.53,-3.34 26.32,7.39 -0.2,10.17 -16.83,7.04 -26.23,7.04l-0.09 19.45zm-346.03 -2.95l0 16.92c10.14,1.21 7.69,9.67 7.69,19.52l326.21 -0c9.18,-0.03 12.76,-1.36 15.88,5.43l17.29 -0.02c3.09,-6.79 6.79,-5.44 15.9,-5.42 7.38,0.02 14.76,0 22.14,0 14.93,0 29.88,0.07 44.81,-0.01l0 -118.61 1.38 0 -443.51 0c-0.76,13.87 -0.08,30.05 -0.08,44.27 0,7.38 -0.02,14.76 0,22.13 0.04,9.79 1.59,13.89 -7.7,15.78z"/>
   <path class="fil2" d="M456.61 270.32c0,-9.97 -0.07,-19.64 -5.61,-25.19l-250.85 0.01c-12.33,0 -26.85,3.91 -26.54,-9.68l-17.37 0c0.37,13.12 -11.63,9.68 -34.04,9.68l-88.57 -0.02c-16.66,0.19 -19.21,9.32 -19.21,25.17l442.18 0.02z"/>
   <path class="fil2" d="M448.48 444.65c5.33,-8.77 8.12,-8.02 8.13,-23.47 -12.27,-2.01 -72.12,2.94 -77.41,-1.94 -4.09,-1.47 -5.4,-3.68 -5.4,-8.75l-17.29 0.02c0.01,12.38 -12.37,9 -34.17,9 -102.55,0 -205.11,0 -307.66,0 -2.99,28.13 16.18,25.15 31.5,25.15l402.3 -0.01z"/>
   <path class="fil3" d="M456.65 405.07l21.58 0.01 -0.01 -120.35 -460.85 0.06c-3.23,0.86 -0.99,-1.04 -2.87,1.67l443.51 0 -1.38 0 0 118.61z"/>
   <path class="fil0" d="M208.46 318.63c16.55,-3.86 29.56,7.67 32.3,20.61 3.47,16.37 -7.58,28.9 -20.41,31.95 -34.2,8.13 -47.04,-44.36 -11.89,-52.55zm-2.29 -14.14c-54.9,12.2 -35.64,92.35 16.86,80.83 53.81,-11.8 35.58,-92.49 -16.86,-80.83z"/>
   <path class="fil0" d="M422.8 370.25l-1.47 0.8c-3.42,0.98 1.51,-0.09 -1.74,0.47l-11.6 -0.28c-0.65,-1.73 -2.53,-47.65 0.01,-52.3 18.32,-0.16 27.32,1.47 30.24,19.11 2.45,14.83 -2.99,29.81 -15.44,32.2zm-25.46 -64.83c-6.45,3.52 -4.17,18.55 -4.17,31.08 0,54.61 -3.58,48.93 21.56,48.72 42.89,-0.35 42.27,-45.05 33.81,-62.36 -3.48,-7.13 -9.81,-13.77 -18.12,-16.48 -5.46,-1.78 -28.62,-3.39 -33.08,-0.95z"/>
   <path class="fil0" d="M290.63 304.4c-15.72,3.83 -25.8,19.98 -14.53,35.07 3.44,4.6 12.31,7.42 19.56,10.25 7.09,2.77 17.3,5.24 16.09,13.53 -1.09,7.44 -11.22,10.08 -19.97,7.68 -11.46,-3.15 -12.12,-11.32 -19.58,-8.59 -13.03,4.76 3.18,23.79 26.11,23.94 15.9,0.11 31.99,-12.75 27.37,-30.04 -1.95,-7.28 -7.73,-12.47 -14.11,-15.67 -6.71,-3.37 -14.22,-5.26 -21.25,-8.59 -9.41,-4.47 -2.86,-13.84 7,-13.98 10.88,-0.15 15.81,8.82 22.44,6.35 3.6,-1.34 10.05,-8.4 -4.67,-16.22 -7.15,-3.8 -15.56,-5.9 -24.47,-3.73z"/>
   <path class="fil0" d="M72.51 304.56c-34,7.8 -42.11,45.64 -22.6,67.66 14.87,16.78 42.67,19.58 57.04,2.88 6.75,-7.85 -1.12,-15.83 -8.69,-11.58 -3.24,1.82 -5.36,8.79 -18.37,8.32 -9.07,-0.33 -14.35,-4.25 -18.82,-8.84 -11.26,-11.54 -8.18,-30.82 2.55,-38.9 21.09,-15.87 33.45,4.58 41.16,-2.1 10.84,-9.39 -13.01,-21.86 -32.26,-17.44z"/>
   <path class="fil0" d="M352.77 371.6l0.09 -19.45c9.4,0 26.03,3.14 26.23,-7.04 0.21,-10.73 -17.57,-7.39 -26.32,-7.39l0 -19.51c7.68,0 24.75,2.57 27.64,-3.59 6.45,-13.74 -15.5,-10.84 -19.57,-10.84 -28.31,0 -22.85,-5.76 -22.54,71.24 0.06,14.45 8.76,10.99 21.58,10.99 7.48,0 26.47,2.05 20.66,-10.44 -2.87,-6.17 -20.02,-3.99 -27.77,-3.99z"/>
   <path class="fil1" d="M208.46 318.63c-35.15,8.2 -22.31,60.69 11.89,52.55 12.83,-3.05 23.88,-15.58 20.41,-31.95 -2.74,-12.94 -15.75,-24.47 -32.3,-20.61z"/>
   <path class="fil0" d="M121.48 313.41l0 62.55c0,12.11 5.43,10.39 19.01,10.39 6.1,0 14.85,1.19 17.92,-3.07 6.05,-8.37 -2.93,-11.47 -12.15,-11.42l-10.21 -0.07c-0.93,-14.36 -0.15,-31.27 -0.15,-45.86 0,-6.11 1.34,-17.39 -2.66,-20.68 -6.37,-5.22 -11.76,0.57 -11.76,8.17z"/>
   <path class="fil1" d="M422.8 370.25c12.45,-2.39 17.89,-17.37 15.44,-32.2 -2.91,-17.64 -11.92,-19.28 -30.24,-19.11l0.15 51.75 14.64 -0.44z"/>
   <path class="fil4" d="M247.76 58.72c3.55,-6.58 8.86,-6.68 10.96,-18.73 2.01,-11.53 -1.59,-15.63 -5.64,-23.82 -5.63,-3.42 -14.39,-0.65 -18.88,2.19 -4.17,2.64 -8.34,7.25 -9.55,14.52 -2.55,15.37 8.71,25.57 23.11,25.83z"/>
   <path class="fil5" d="M448.48 444.65c8.88,0.03 17.81,1.21 23.52,-3.74 5.66,-4.9 6.94,-12.22 5.97,-21.4l-98.78 -0.27c5.29,4.88 65.14,-0.07 77.41,1.94 -0,15.44 -2.79,14.7 -8.13,23.47z"/>
   <path class="fil5" d="M456.61 270.32l21.62 -0.02c0,-22.6 -5.28,-25.04 -27.24,-25.16 5.54,5.55 5.61,15.22 5.61,25.19z"/>
   <path class="fil6" d="M247.76 58.72c26.8,-3.59 26.17,-37.25 5.32,-42.55 4.05,8.19 7.65,12.29 5.64,23.82 -2.1,12.05 -7.41,12.15 -10.96,18.73z"/>
   <path class="fil7" d="M422.8 370.25l-14.64 0.44 -0.15 -51.75c-2.54,4.65 -0.67,50.57 -0.01,52.3l11.6 0.28c3.26,-0.56 -1.68,0.51 1.74,-0.47l1.47 -0.8z"/>
  </g>
 </g>
</svg>
