<?xml version="1.0" encoding="UTF-8"?>
<!DOCTYPE svg PUBLIC "-//W3C//DTD SVG 1.1//EN" "http://www.w3.org/Graphics/SVG/1.1/DTD/svg11.dtd">
<!-- Creator: CorelDRAW 2020 (64-Bit) -->
<svg xmlns="http://www.w3.org/2000/svg" xml:space="preserve" width="143.44mm" height="163.689mm" version="1.1" style="shape-rendering:geometricPrecision; text-rendering:geometricPrecision; image-rendering:optimizeQuality; fill-rule:evenodd; clip-rule:evenodd"
viewBox="0 0 261.12 297.98"
 xmlns:xlink="http://www.w3.org/1999/xlink"
 xmlns:xodm="http://www.corel.com/coreldraw/odm/2003">
 <defs>
  <style type="text/css">
   <![CDATA[
    .fil1 {fill:black}
    .fil8 {fill:#00C2FB}
    .fil6 {fill:#00D2FC}
    .fil4 {fill:#61DCFB}
    .fil9 {fill:#8BCAFF}
    .fil5 {fill:#B4DAFD}
    .fil2 {fill:#DAECFE}
    .fil7 {fill:#FEA80F}
    .fil3 {fill:#FFC365}
    .fil0 {fill:#FFD086}
   ]]>
  </style>
 </defs>
 <g id="Capa_x0020_1">
  <metadata id="CorelCorpID_0Corel-Layer"/>
  <g id="_2833924353056">
   <path class="fil0" d="M175.94 186.28l11.7 -0.05c0.68,-4.73 3.08,-4.39 8.07,-4.35 42.02,0.27 41.71,-4.53 41.71,21.24l0 50.05c0,25.04 1.58,20.25 -55.09,20.25 -55.51,0 -56.16,5.43 -56.16,-19.09l0 -50.05c0,-8.67 -1.68,-16.99 4.4,-20.92 3.93,-2.54 28.48,-1.42 36.63,-1.47 4.72,-0.03 7.88,-0.44 8.74,4.39zm-133.42 102.98l206.13 -0.06c5.21,-0.81 3.28,-10.91 3.28,-15.66 0,-19.11 -0.54,-46.52 -0.02,-65.22 0.12,-4.18 0.68,-5.11 4.33,-5.77l0 -11.71c-3.28,-0.48 -2.81,-0.8 -4.17,-2.86 -1.93,-2.7 -1.06,-14.13 -1.06,-18.62l0.58 -55.21 -209.52 0 -0.21 131.45c0,9.73 -1.14,36.07 0.66,43.65z"/>
   <path class="fil1" d="M234.7 84.34c9.61,1.88 16.55,9.61 17.18,20.54l-17.18 0 0 -20.54zm-162.59 -84.34l114.3 0 8.18 0c1.7,0.3 2.69,1.25 5.35,3.93 6.04,6.08 11.69,11.69 17.75,17.75 3.01,3.01 16.55,15.32 16.99,18.51l0.04 34.88c2.83,1.36 13.97,1.74 21.88,14.78 5.41,8.92 4.31,18.7 4.31,32.36l0 55.29c0,6.53 1.58,13.06 -4.66,13.33 -3.28,-0.48 -2.81,-0.8 -4.17,-2.86l-0.12 -74.21 -242.76 -0.18c-0.86,16.72 -0.07,35.5 -0.07,52.28l-0.03 117.6c-0,5.8 1.86,5.84 7.35,5.79 8.68,-0.07 17.39,-0.03 26.07,-0.01l206.13 -0.06c5.21,-0.81 3.28,-10.91 3.28,-15.66 0,-19.11 -0.54,-46.52 -0.02,-65.22 0.12,-4.18 0.68,-5.11 4.33,-5.77 6.42,0.45 4.66,7.62 4.66,14.53l0 57.04c0,6.1 0.78,13.51 -1.52,17.68 -2.32,4.2 -5.84,6.04 -11.98,6.18l-2.19 0c-75.33,-0.52 -152.05,-0.05 -227.57,0 -16.71,0.01 -17.46,-5.03 -17.46,-20.37l0 -152.48c0,-13.76 -1.37,-25.41 3.82,-34.6 5.3,-9.39 12.22,-13.09 22.37,-15.46l0.12 -37.71c0.76,-4.67 4.23,-8.38 8.4,-10.22 4.3,-1.9 12.03,-0.96 17.66,-0.96 0,-8.91 -2.7,-21.78 9.78,-25.72 0.67,-0.21 4.24,-0.36 9.78,-0.47zm-9.68 34.96l100.77 -0c0.32,10.58 -2.41,25.83 4.16,32.4 6.48,6.47 21.98,4.04 32.43,4.12l0 33.39 -139.25 0.02 -25.44 -0.02c0,-16.14 0,-32.28 0,-48.41 0,-24.92 -4.22,-21.57 27.34,-21.49zm-53.29 69.92c0.49,-11.09 7.49,-18.78 17.23,-20.63l-0.01 20.63 -17.21 0zm174.43 -51.97l8.82 8.7 0.89 1.1c-23.37,0.98 -22.07,1.79 -21.13,-21.39l11.42 11.6zm26.77 -25.55l8.71 8.45c0.1,0.79 1.23,0.3 -0.63,0.75 -22.52,0 -20.97,2.44 -20.06,-21.47l11.98 12.27zm-122.2 -18.64l101.29 -0.01c0,10.47 -2.33,25.99 4.14,32.41 6.55,6.49 21.88,4.06 32.4,4.15l0 59.58 -17.46 0c0,-8.38 0,-16.76 0,-25.14 0,-14.37 1.78,-12.81 -5.22,-19.8 -8.49,-8.47 -16.54,-16.54 -25.03,-25.02 -9.29,-9.29 -6.85,-8.71 -16.3,-8.68l-75.2 0 -24.9 -0.01 -0.58 -0c0,-6.81 -1.93,-16.44 4.71,-17.4 5.11,-0.74 16.4,-0.1 22.15,-0.09z"/>
   <path class="fil2" d="M60.53 71.01l78.73 -0.01c10.21,0 21.3,-1.94 20.98,4.62 -0.23,4.69 -4.87,4.13 -9.34,4.11l-90.37 -0.01 0 6.41 86.88 0c3.3,0 26.27,-1.09 29.1,1.08 1.51,1.1 3.32,1.83 2.73,5.13 -0.98,5.46 -12.21,3.44 -20.77,3.44l-97.94 -0.01 0 9.1 139.25 -0.02 0 -33.39c-10.45,-0.09 -25.95,2.35 -32.43,-4.12 -6.57,-6.56 -3.84,-21.82 -4.16,-32.4l-100.77 0c-3.34,3.83 -1.9,12.13 -1.9,17.42 0,6.21 0,12.42 0,18.63z"/>
   <path class="fil3" d="M42.53 289.26c-1.81,-7.58 -0.66,-33.93 -0.66,-43.65l0.21 -131.45 209.52 0 -0.58 55.21c0,4.5 -0.87,15.92 1.06,18.62l-0.12 -74.21 -242.76 -0.18c-0.86,16.72 -0.07,35.5 -0.07,52.28l-0.03 117.6c-0,5.8 1.86,5.84 7.35,5.79 8.68,-0.07 17.39,-0.03 26.07,-0.01z"/>
   <path class="fil4" d="M86.76 26.23l75.2 -0c9.45,-0.02 7.02,-0.6 16.3,8.68 8.48,8.48 16.53,16.55 25.03,25.02 7,6.98 5.22,5.43 5.22,19.8 0,8.38 0,16.76 0,25.14l17.46 -0 0 -59.58c-10.52,-0.09 -25.85,2.34 -32.4,-4.15 -6.47,-6.42 -4.14,-21.94 -4.14,-32.41l-101.29 0.01c-2.1,4.98 -1.38,11.59 -1.38,17.5z"/>
   <path class="fil2" d="M153.76 190.62l0.01 8.58 56.53 -0.02c9.54,0 7.33,6.81 3.46,8.66 -0.18,0.12 -0.39,0.22 -0.56,0.3 -0.18,0.07 -0.35,0.19 -0.57,0.27 -3.14,1.14 -55.82,0.45 -58.86,0.45l0 5.96c7,0 57.23,-0.72 59.2,0.53 2.04,0.47 2.27,1 3.69,2.09 1.15,8.04 -4.18,6.56 -11.04,6.55l-51.85 -0 0 7.34 55.95 -0.02c7.51,-0.02 9.69,3.66 4.62,8.57 -1.2,0.91 0.61,0.35 -2.29,1.01l-58.29 0.05 0 6.49 56.53 -0.02c9.41,0.03 7.87,7.45 2.62,8.66 -1.82,1.21 -52.28,0.54 -59.16,0.54l-0.01 7.4 74.67 0.1 0.25 -73.05c-3.37,-1.01 -27.83,-0.37 -34.73,-0.4 -3.87,-0.02 -5.78,-0.46 -6.3,-4.41l-11.7 0.05c-0.87,4.86 -4.04,4.37 -8.73,4.35 -4.48,-0.02 -8.97,-0 -13.45,-0.01z"/>
   <path class="fil1" d="M187.64 186.24c0.52,3.95 2.43,4.39 6.3,4.41 6.9,0.03 31.36,-0.61 34.73,0.4l-0.25 73.05c-2.32,1.44 -43.74,0.63 -46.1,0.63 -15.71,0 -31.44,0.06 -47.14,-0.05l-0.3 -74.05 18.87 -0.02c4.48,0 8.97,-0.02 13.45,0.01 4.69,0.02 7.86,0.51 8.73,-4.35 -0.86,-4.83 -4.02,-4.42 -8.74,-4.39 -8.15,0.05 -32.71,-1.06 -36.63,1.47 -6.08,3.93 -4.4,12.25 -4.4,20.92l0 50.05c-0,24.52 0.66,19.09 56.16,19.09 56.68,0 55.09,4.79 55.09,-20.25l0 -50.05c0,-25.76 0.31,-20.97 -41.71,-21.24 -4.99,-0.03 -7.39,-0.37 -8.07,4.35z"/>
   <path class="fil5" d="M60.53 104.89l0 -9.1c-2.28,0.01 -5.89,0.38 -7.72,-0.59 -1.83,-0.97 -3.08,-3.64 -1.52,-6.2 2.14,-3.5 12.04,-1.9 16.38,-1.9l72.17 0c11.86,0 24.95,-0.52 36.66,0.13 -2.83,-2.17 -25.8,-1.08 -29.1,-1.08l-86.88 -0 0 -6.41c-4.86,0.01 -10.1,0.89 -9.87,-4.63 0.21,-4.98 5.12,-4.09 9.87,-4.08 0,-6.21 0,-12.42 0,-18.63 0,-5.3 -1.45,-13.59 1.9,-17.42 -31.56,-0.07 -27.34,-3.42 -27.34,21.49 0,16.14 0,32.28 0,48.41l25.44 0.02z"/>
   <path class="fil5" d="M228.43 264.1l-74.67 -0.1 0.01 -7.4c6.87,0 57.34,0.67 59.16,-0.54 -13.21,0.46 -27.19,0.05 -40.48,0.05 -6.6,0 -13.9,0.31 -20.41,0.05 -3.26,-0.13 -5.83,-1.61 -5.28,-5.25 0.51,-3.4 3.32,-3.49 7.02,-3.49l0 -6.49 58.29 -0.05c2.9,-0.67 1.09,-0.1 2.29,-1.01 -13.06,0.88 -28.58,0.15 -41.9,0.15 -6.34,0 -14.94,0.5 -21,0.02 -6.04,-0.48 -8,-8.7 2.32,-8.72l0 -7.34c-3.7,-0 -6.5,-0.11 -7.02,-3.49 -0.56,-3.65 2.02,-5.12 5.28,-5.25 6.52,-0.25 13.8,0.05 20.41,0.05 13.35,0 27.24,-0.37 40.52,0.04 -1.96,-1.26 -52.19,-0.53 -59.2,-0.53l0 -5.96c3.05,0 55.72,0.68 58.86,-0.45 0.22,-0.08 0.39,-0.2 0.57,-0.27 0.18,-0.07 0.39,-0.18 0.56,-0.3l-62.31 0.08c-3.17,-0.24 -5.58,-2.18 -4.57,-5.79 0.8,-2.84 3.42,-2.92 6.89,-2.93l-0.01 -8.58 -18.87 0.02 0.3 74.05c15.7,0.11 31.43,0.05 47.14,0.05 2.36,0 43.77,0.81 46.1,-0.63z"/>
   <path class="fil1" d="M60.53 95.79l97.94 0.01c8.56,0 19.79,2.02 20.77,-3.44 0.59,-3.3 -1.22,-4.04 -2.73,-5.13 -11.71,-0.65 -24.8,-0.13 -36.66,-0.13l-72.17 0c-4.34,0 -14.24,-1.6 -16.38,1.9 -1.56,2.56 -0.31,5.22 1.52,6.2 1.83,0.97 5.44,0.6 7.72,0.59z"/>
   <path class="fil1" d="M60.53 79.73l90.37 0.01c4.47,0.02 9.11,0.59 9.34,-4.11 0.32,-6.56 -10.77,-4.62 -20.98,-4.62l-78.73 0.01c-4.75,-0.01 -9.66,-0.9 -9.87,4.08 -0.23,5.52 5.01,4.64 9.87,4.63z"/>
   <path class="fil1" d="M214.34 239.88c5.07,-4.91 2.89,-8.59 -4.62,-8.57l-55.95 0.02c-10.33,0.02 -8.36,8.23 -2.32,8.72 6.05,0.49 14.66,-0.02 21,-0.02 13.32,0 28.85,0.73 41.9,-0.15z"/>
   <path class="fil1" d="M153.76 223.99l51.85 0c6.86,0 12.2,1.49 11.04,-6.55 -1.42,-1.09 -1.66,-1.62 -3.69,-2.09 -13.28,-0.41 -27.17,-0.04 -40.52,-0.04 -6.61,0 -13.89,-0.3 -20.41,-0.05 -3.26,0.12 -5.84,1.6 -5.28,5.25 0.52,3.39 3.32,3.49 7.02,3.49z"/>
   <path class="fil1" d="M212.92 256.07c5.25,-1.21 6.79,-8.64 -2.62,-8.66l-56.53 0.02c-3.7,0 -6.51,0.09 -7.02,3.49 -0.55,3.64 2.03,5.12 5.28,5.25 6.51,0.25 13.81,-0.05 20.41,-0.05 13.3,0 27.27,0.42 40.48,-0.05z"/>
   <path class="fil1" d="M213.76 207.84c3.87,-1.85 6.09,-8.66 -3.46,-8.66l-56.53 0.02c-3.47,0 -6.09,0.09 -6.89,2.93 -1.01,3.6 1.4,5.54 4.57,5.79l62.31 -0.08z"/>
   <path class="fil6" d="M86.76 26.23c0,-5.91 -0.72,-12.51 1.38,-17.5 -5.74,-0.01 -17.04,-0.65 -22.15,0.09 -6.64,0.96 -4.71,10.59 -4.71,17.4l0.58 0 24.9 0.01z"/>
   <path class="fil7" d="M9.14 104.88l17.21 0 0.01 -20.63c-9.74,1.85 -16.74,9.54 -17.23,20.63z"/>
   <path class="fil7" d="M234.7 104.88l17.18 0c-0.63,-10.92 -7.57,-18.65 -17.18,-20.54l-0 20.54z"/>
   <path class="fil8" d="M219.05 35.82l-8.38 -0.24c-1.03,-1.88 -1.98,-6.32 -0.33,-8.21l-11.98 -12.27c-0.91,23.91 -2.46,21.47 20.06,21.47 1.87,-0.44 0.73,0.04 0.63,-0.75z"/>
   <path class="fil9" d="M192.4 61.62c-1.85,1.17 -7.28,0.78 -7.95,0.17 -1.36,-2.62 -1.39,-5.51 -0.88,-8.87l-11.42 -11.6c-0.95,23.18 -2.25,22.37 21.13,21.39l-0.89 -1.1z"/>
   <path class="fil5" d="M192.4 61.62l-8.82 -8.7c-0.51,3.36 -0.49,6.25 0.88,8.87 0.67,0.61 6.1,1 7.95,-0.17z"/>
   <path class="fil6" d="M219.05 35.82l-8.71 -8.45c-1.65,1.89 -0.7,6.33 0.33,8.21l8.38 0.24z"/>
  </g>
 </g>
</svg>
