<svg id="Capa_1" data-name="Capa 1" xmlns="http://www.w3.org/2000/svg" viewBox="0 0 300 300"><defs><style>.cls-1{fill:#a9dbf5;}.cls-2{fill:#88c3e0;}.cls-3{fill:#4380a0;}.cls-4{fill:#3b7191;}.cls-5{fill:#bbf7ff;}.cls-6{fill:#8bf0ff;}.cls-7{fill:#f75632;}.cls-8{fill:#e33629;}.cls-9{fill:#f3f3f3;}.cls-10{fill:#e4e4e4;}</style></defs><title>Iconos_finales</title><path class="cls-1" d="M262.565,251.525H37.435a6.721,6.721,0,0,1-6.721-6.721v-10.56a6.72,6.72,0,0,1,6.721-6.72h225.13a6.719,6.719,0,0,1,6.72,6.72V244.8A6.72,6.72,0,0,1,262.565,251.525Z"/><path class="cls-2" d="M262.565,227.524h-14.4a6.72,6.72,0,0,1,6.72,6.72V244.8a6.721,6.721,0,0,1-6.72,6.721h14.4a6.72,6.72,0,0,0,6.72-6.721v-10.56A6.719,6.719,0,0,0,262.565,227.524Z"/><path class="cls-3" d="M243.605,227.518,56.4,227.524a9.6,9.6,0,0,1-9.6-9.6l0-124.8a9.6,9.6,0,0,1,9.6-9.6L243.6,83.517a9.6,9.6,0,0,1,9.6,9.6l0,124.8A9.6,9.6,0,0,1,243.605,227.518Z"/><path class="cls-4" d="M253.205,217.918a9.6,9.6,0,0,1-9.6,9.6H229.2a9.6,9.6,0,0,0,9.6-9.6l0-124.8a9.6,9.6,0,0,0-9.576-9.6H243.6a9.6,9.6,0,0,1,9.6,9.6Z"/><path class="cls-5" d="M238.8,213.118H224.4l-163.2,0L61.2,97.922l163.2,0h14.4Z"/><path class="cls-6" d="M224.4,97.918h14.4v115.2H224.4Z"/><path class="cls-7" d="M150,161.761H82.126a2.689,2.689,0,0,1-2.689-2.69V75.519a2.689,2.689,0,0,1,2.689-2.689H150Z"/><path class="cls-8" d="M217.874,161.761H150V72.83h67.874a2.689,2.689,0,0,1,2.689,2.689v83.552A2.689,2.689,0,0,1,217.874,161.761Z"/><path class="cls-9" d="M150,161.761,93.494,142.22a2.688,2.688,0,0,1-1.81-2.541V51.166a2.689,2.689,0,0,1,3.568-2.541L150,67.558Z"/><path class="cls-10" d="M150,161.761l56.506-19.541a2.688,2.688,0,0,0,1.81-2.541V51.166a2.689,2.689,0,0,0-3.569-2.541L150,67.558Z"/><path class="cls-2" d="M165.25,239.044h-30.5a5.391,5.391,0,0,1-5.391-5.391v-6.129h41.282v6.129A5.391,5.391,0,0,1,165.25,239.044Z"/><path d="M262.565,223.923h-7.211a13.117,13.117,0,0,0,1.451-6l0-124.8a13.216,13.216,0,0,0-13.2-13.2H224.163v-4.4a6.3,6.3,0,0,0-6.288-6.288h-5.958V51.163a6.29,6.29,0,0,0-8.346-5.943l-11.34,3.921a3.6,3.6,0,0,0,2.353,6.805l10.132-3.5v86.586L153.6,156.705V70.119l26.467-9.153a3.6,3.6,0,1,0-2.353-6.8L150,63.745,96.429,45.22a6.29,6.29,0,0,0-8.346,5.943V69.229H82.125a6.3,6.3,0,0,0-6.288,6.288v4.4H56.4a13.216,13.216,0,0,0-13.2,13.2v12.8a3.6,3.6,0,0,0,7.2,0V93.12a6.007,6.007,0,0,1,6-6H75.837v7.2H61.2a3.6,3.6,0,0,0-3.6,3.6l.005,115.2a3.6,3.6,0,0,0,3.6,3.6l177.6-.005a3.6,3.6,0,0,0,3.6-3.6l0-115.2a3.6,3.6,0,0,0-3.6-3.6H224.163v-7.2H243.6a6.007,6.007,0,0,1,6,6l0,124.8a6.007,6.007,0,0,1-6,6l-187.2,0a6.007,6.007,0,0,1-6-6l0-96.595a3.6,3.6,0,0,0-7.2,0l0,96.6a13.111,13.111,0,0,0,1.449,6H37.435a10.333,10.333,0,0,0-10.321,10.32V244.8a10.333,10.333,0,0,0,10.321,10.321H180.568a3.6,3.6,0,0,0,0-7.2H37.435a3.124,3.124,0,0,1-3.12-3.121v-10.56a3.123,3.123,0,0,1,3.12-3.12h88.324v2.53a9,9,0,0,0,8.991,8.991h30.5a9,9,0,0,0,8.991-8.991v-2.53h88.324a3.123,3.123,0,0,1,3.12,3.12V244.8a3.124,3.124,0,0,1-3.12,3.121H196.286a3.6,3.6,0,1,0,0,7.2h66.279A10.333,10.333,0,0,0,272.886,244.8v-10.56a10.333,10.333,0,0,0-10.321-10.321Zm-54.881-78.3a6.293,6.293,0,0,0,4.233-5.943V76.429h5.046v81.73H171.426ZM95.284,52.442,146.4,70.119v86.586L95.284,139.028ZM83.037,76.429h5.046v63.249a6.294,6.294,0,0,0,4.234,5.943l36.257,12.538H83.037ZM235.2,101.515l0,108-170.4,0,0-108H75.837v57.551a6.3,6.3,0,0,0,6.288,6.288h135.75a6.3,6.3,0,0,0,6.288-6.288V101.515ZM167.041,233.653a1.794,1.794,0,0,1-1.791,1.791h-30.5a1.794,1.794,0,0,1-1.791-1.791v-2.53h34.082Z"/><path d="M197.288,175.627H102.713a3.6,3.6,0,1,0,0,7.2h94.575a3.6,3.6,0,1,0,0-7.2Z"/><path d="M164.047,190.9H102.713a3.6,3.6,0,1,0,0,7.2h61.334a3.6,3.6,0,0,0,0-7.2Z"/></svg>