<svg id="Capa_1" data-name="Capa 1" xmlns="http://www.w3.org/2000/svg" viewBox="0 0 300 300"><defs><style>.cls-1{fill:#f7b059;}.cls-2{fill:#ee7c4d;}.cls-3{fill:#fcee6d;}.cls-4{fill:none;stroke:#000;stroke-miterlimit:10;stroke-width:4px;}</style></defs><title>Iconos_finales</title><path class="cls-1" d="M134.619,47.332V76.673h31.888V47.332a15.948,15.948,0,1,0-31.888,0Z"/><path class="cls-2" d="M166.507,47.332a16.126,16.126,0,0,0-15.944-16.3V76.673h15.944Z"/><path class="cls-1" d="M150.563,269.484c-21.351,0-38.721-17.758-38.721-39.586a6.911,6.911,0,0,1,6.833-6.986H182.45a6.911,6.911,0,0,1,6.833,6.986C189.283,251.726,171.913,269.484,150.563,269.484Z"/><path class="cls-2" d="M182.45,222.912H150.563v46.572c21.35,0,38.72-17.758,38.72-39.586A6.911,6.911,0,0,0,182.45,222.912Z"/><path class="cls-3" d="M212.06,159.748v-32.31c0-34.669-27.588-62.874-61.5-62.874s-61.5,28.205-61.5,62.874v32.31A137.3,137.3,0,0,1,83.819,197.3l44.5,13.972h44.5l44.5-13.972a137.291,137.291,0,0,1-5.247-37.549Z"/><path class="cls-1" d="M217.307,197.3a137.291,137.291,0,0,1-5.247-37.549v-32.31c0-34.669-27.588-62.874-61.5-62.874V211.269h22.248Z"/><path class="cls-1" d="M229.381,226.432A136.064,136.064,0,0,1,217.306,197.3H83.819a136.013,136.013,0,0,1-12.075,29.135,7.118,7.118,0,0,0,.023,6.972H229.358a7.116,7.116,0,0,0,.023-6.972Z"/><path class="cls-2" d="M229.381,226.432A136.064,136.064,0,0,1,217.306,197.3H150.563V233.4h78.8a7.118,7.118,0,0,0,.022-6.972Z"/><path class="cls-4" d="M258.382,115.9a7.216,7.216,0,1,0-10.205,10.2,36.13,36.13,0,0,1,0,51.027,7.216,7.216,0,1,0,10.205,10.205,50.56,50.56,0,0,0,0-71.437Z"/><path class="cls-4" d="M227.766,136.306a7.217,7.217,0,0,0,0,10.206,7.215,7.215,0,0,1,0,10.205,7.216,7.216,0,0,0,10.205,10.206,21.674,21.674,0,0,0,0-30.617,7.216,7.216,0,0,0-10.205,0Z"/><path class="cls-4" d="M51.823,115.9a7.216,7.216,0,0,0-10.2,0,50.56,50.56,0,0,0,0,71.437,7.216,7.216,0,1,0,10.2-10.205,36.13,36.13,0,0,1,0-51.027,7.216,7.216,0,0,0,0-10.2Z"/><path class="cls-4" d="M67.131,169.036a7.217,7.217,0,0,0,5.1-12.319,7.216,7.216,0,0,1,0-10.206,7.216,7.216,0,1,0-10.206-10.2,21.673,21.673,0,0,0,0,30.616A7.192,7.192,0,0,0,67.131,169.036Z"/><path d="M150.539,273.586a38.378,38.378,0,0,1-37.82-31.647l-.574-3.211H60.9a3.572,3.572,0,0,1,0-7.143h7.888l1.1-2.066a148.209,148.209,0,0,0,17.319-69.37V125.6a63.088,63.088,0,0,1,39.879-58.827l2.45-.978V47.415a21,21,0,0,1,42,0V65.794l2.45.978A63.087,63.087,0,0,1,213.868,125.6v34.55a148.2,148.2,0,0,0,17.318,69.37l1.1,2.066h7.889a3.572,3.572,0,0,1,0,7.143H188.932l-.575,3.211A38.38,38.38,0,0,1,150.539,273.586Zm-30.1-29.9a31.281,31.281,0,0,0,60.191,0l1.408-4.963H119.034ZM87.205,206.6a155.678,155.678,0,0,1-7.579,19.432l-2.611,5.555H224.061l-2.611-5.555a155.8,155.8,0,0,1-7.58-19.432l-.857-2.73H88.063ZM150.539,69.412A56.252,56.252,0,0,0,94.352,125.6v34.55a154.959,154.959,0,0,1-3.327,31.874l-.99,4.7H211.04l-.989-4.7a154.889,154.889,0,0,1-3.327-31.874V125.6A56.25,56.25,0,0,0,150.539,69.412Zm0-7.142a63.714,63.714,0,0,1,9.383.7l4.474.668V47.415a13.858,13.858,0,0,0-27.716,0V63.634l4.474-.668A63.741,63.741,0,0,1,150.539,62.27Z"/></svg>