<svg id="Capa_1" data-name="Capa 1" xmlns="http://www.w3.org/2000/svg" viewBox="0 0 300 300"><defs><style>.cls-1{fill:#bed8fb;}.cls-2{fill:#ddeafb;}.cls-3{fill:#cbe2ff;}.cls-4{fill:#dd636e;}.cls-5{fill:#da4a54;}</style></defs><title>Iconos_finales</title><path class="cls-1" d="M85.431,102.45v58.233H39.686V118.769A16.32,16.32,0,0,1,56,102.45H85.431Z"/><path class="cls-2" d="M260.314,122.227V250.363a19.182,19.182,0,0,1-19.181,19.185H83.531a19.188,19.188,0,0,1-18.656-14.711L64.8,243.868l-.448-65.321V49.637A19.182,19.182,0,0,1,83.531,30.452h85.007c7.64,0,32.381,21.095,54.251,43.311,19.956,20.278,37.525,41.489,37.525,48.464Z"/><path class="cls-3" d="M260.314,122.227v46.939c0-.053,0-.106,0-.163-1.443-57.595-48.358-60.26-63.7-75.6l26.18-19.638c19.956,20.278,37.525,41.489,37.525,48.464Z"/><path class="cls-3" d="M168.536,30.452H121.6c.052,0,.105,0,.163,0,57.595,1.444,60.26,48.359,75.6,63.7L217,67.976C196.722,48.021,175.511,30.452,168.536,30.452Z"/><path class="cls-1" d="M260.314,122.23v8.115a30.942,30.942,0,0,0-30.94-30.939H210.543a19.187,19.187,0,0,1-19.184-19.184V61.391A30.942,30.942,0,0,0,160.42,30.452h8.115A55.105,55.105,0,0,1,207.5,46.589l36.679,36.679a55.106,55.106,0,0,1,16.138,38.962Z"/><path class="cls-3" d="M194.226,175.642v43.027a25.2,25.2,0,0,1-25.2,25.2H64.8l-.448-65.321v-28.1H169.027A25.2,25.2,0,0,1,194.226,175.642Z"/><path class="cls-4" d="M210.544,160.286v43.027a25.2,25.2,0,0,1-25.2,25.2H56.007a14.3,14.3,0,0,1-1.439-.067,16.311,16.311,0,0,1-14.88-16.251V118.768a16.319,16.319,0,0,0,14.88,16.251,14.3,14.3,0,0,0,1.439.068H185.345A25.2,25.2,0,0,1,210.544,160.286Z"/><path class="cls-5" d="M54.568,135.019v93.426a16.311,16.311,0,0,1-14.88-16.251V118.768a16.319,16.319,0,0,0,14.88,16.251Z"/><path d="M263.922,122.23a58.324,58.324,0,0,0-17.2-41.513L210.049,44.038a58.324,58.324,0,0,0-41.513-17.195H102.371a3.609,3.609,0,0,0,0,7.217h58.05a27.362,27.362,0,0,1,27.331,27.331V80.222a22.818,22.818,0,0,0,22.792,22.792h18.831A27.361,27.361,0,0,1,256.7,130.253v120.11a15.593,15.593,0,0,1-15.572,15.577H83.53a15.515,15.515,0,0,1-15.052-11.562l-.154-22.256H185.345a28.84,28.84,0,0,0,28.807-28.807v-7.8a3.608,3.608,0,1,0-7.216,0v7.8a21.616,21.616,0,0,1-21.591,21.591H56a12.725,12.725,0,0,1-12.71-12.71V134.1A19.836,19.836,0,0,0,56,138.694h129.34a21.615,21.615,0,0,1,21.591,21.591v20.8a3.609,3.609,0,0,0,7.217,0v-20.8a28.84,28.84,0,0,0-28.808-28.807H67.956V49.637A15.593,15.593,0,0,1,83.529,34.06h4.412a3.609,3.609,0,0,0,0-7.217H83.529A22.818,22.818,0,0,0,60.74,49.637V98.842H56a19.949,19.949,0,0,0-19.926,19.926V212.2A19.949,19.949,0,0,0,56,232.122h5.1l.158,22.74a3.6,3.6,0,0,0,.1.814,22.71,22.71,0,0,0,22.166,17.481h157.6a22.818,22.818,0,0,0,22.789-22.794ZM56,106.059H60.74v25.419H56a12.71,12.71,0,1,1,0-25.419ZM229.374,95.8H210.543a15.594,15.594,0,0,1-15.575-15.576V61.391A34.449,34.449,0,0,0,184.39,36.534a51.247,51.247,0,0,1,20.556,12.607l36.679,36.678a51.24,51.24,0,0,1,12.606,20.556A34.448,34.448,0,0,0,229.374,95.8Z"/><path d="M181.392,162.4a3.608,3.608,0,1,0,0-7.216h-18.6a3.608,3.608,0,0,0-3.608,3.608v45.9a3.609,3.609,0,0,0,7.217,0V184.913h13.516a3.608,3.608,0,1,0,0-7.216H166.4V162.4Z"/><path d="M115.481,155.183a3.609,3.609,0,0,0-3.609,3.615v45.145a3.827,3.827,0,0,0,3.7,4.353h.014c.392,0,9.647-.037,13.336-.1a20.341,20.341,0,0,0,16.054-8.167c3.64-4.752,5.645-11.246,5.645-18.288,0-15.885-8.9-26.557-22.143-26.557Zm27.925,26.557c0,11.178-6.007,19.09-14.609,19.24-2.194.038-6.518.066-9.628.083-.018-5.264-.048-14.9-.048-19.374,0-3.743-.016-13.836-.027-19.29h9.385c7.217,0,14.927,5.081,14.927,19.341Z"/><path d="M76.194,154.844a3.607,3.607,0,0,0-3.608,3.6v46.243a3.608,3.608,0,0,0,7.216,0V188.193c2.994-.016,7.148-.037,9.266-.037a16.658,16.658,0,1,0,0-33.312ZM98.763,171.5a9.7,9.7,0,0,1-9.7,9.44c-2.107,0-6.2.02-9.2.037-.016-3.075-.037-7.327-.037-9.477,0-1.813-.012-6.242-.021-9.439h9.255A9.7,9.7,0,0,1,98.763,171.5Z"/></svg>