<svg id="Capa_1" data-name="Capa 1" xmlns="http://www.w3.org/2000/svg" viewBox="0 0 300 300"><defs><style>.cls-1{fill:#558b30;}.cls-2{fill:#8bc34a;}</style></defs><title>Iconos_finales</title><path class="cls-1" d="M265.22,232.605l-12.271,20.438a25.347,25.347,0,0,1-8.368,8.529,23.384,23.384,0,0,1-6.317,2.776c-20.357,5.592-65.3,6.759-137.312-65.3S30.063,82.1,35.656,61.74a23.4,23.4,0,0,1,2.776-6.316,25.35,25.35,0,0,1,8.529-8.369L67.4,34.785a10.189,10.189,0,0,1,13.719,3.1L98.861,64.436l14.845,22.288a10.277,10.277,0,0,1-2.212,13.72l-4.909,3.822-13.4,10.38a10.238,10.238,0,0,0-2.7,12.954c5.392,9.656,10.461,21.041,35.646,46.267s36.611,30.254,46.267,35.645a10.238,10.238,0,0,0,12.954-2.695l10.38-13.4,3.822-4.909A10.274,10.274,0,0,1,213.28,186.3l22.973,15.328,25.869,17.259A10.191,10.191,0,0,1,265.22,232.605Z"/><path class="cls-2" d="M257.173,240.651,244.9,261.089c-.12.161-.2.322-.322.483a23.4,23.4,0,0,1-6.316,2.776c-20.358,5.592-65.3,6.759-137.312-65.3S30.063,82.1,35.656,61.74a23.4,23.4,0,0,1,2.776-6.316c.161-.121.322-.2.483-.322L59.352,42.831a10.191,10.191,0,0,1,13.72,3.1L90.814,72.482,105.66,94.77a10.35,10.35,0,0,1-2.213,13.72L89.969,118.95l-4.828,3.742a10.213,10.213,0,0,0-2.7,12.954c5.391,9.656,10.46,21.041,35.645,46.267s36.611,30.255,46.267,35.645a10.215,10.215,0,0,0,12.955-2.695l3.741-4.828,10.461-13.478a10.347,10.347,0,0,1,13.719-2.212l22.972,15.328,25.869,17.26A10.188,10.188,0,0,1,257.173,240.651Z"/><path d="M220.425,270.705a71.319,71.319,0,0,0,18.91-2.47,28.8,28.8,0,0,0,17.058-13.144l12.287-20.422a14.19,14.19,0,0,0-4.3-19.134l-48.866-32.588a14.262,14.262,0,0,0-19.1,3.1l-14.234,18.3a6.084,6.084,0,0,1-7.8,1.642l-2.708-1.493c-8.976-4.892-20.144-10.983-42.645-33.493s-28.6-33.686-33.5-42.646l-1.485-2.707a6.093,6.093,0,0,1,1.61-7.83l18.289-14.23a14.27,14.27,0,0,0,3.106-19.1L84.461,35.629a14.19,14.19,0,0,0-19.126-4.3L44.9,43.6A28.83,28.83,0,0,0,31.757,60.657C24.4,87.468,29.935,133.739,98.1,201.908,152.317,256.124,192.681,270.705,220.425,270.705ZM39.518,62.786A20.826,20.826,0,0,1,49.041,50.5L69.475,38.24a6.157,6.157,0,0,1,8.3,1.867l17.7,26.577,14.858,22.285a6.192,6.192,0,0,1-1.344,8.287L90.7,111.486a14.082,14.082,0,0,0-3.73,18.073l1.453,2.639c5.142,9.43,11.534,21.162,34.873,44.5s35.066,29.727,44.492,34.869l2.644,1.456a14.081,14.081,0,0,0,18.072-3.729L202.732,191a6.2,6.2,0,0,1,8.288-1.343l48.861,32.587a6.152,6.152,0,0,1,1.867,8.3l-12.259,20.434a20.792,20.792,0,0,1-12.271,9.511c-24.75,6.8-67.992,1.167-133.429-64.271S32.723,87.54,39.518,62.786Z"/><path d="M166.088,69.545a68.471,68.471,0,0,1,68.394,68.4,4.023,4.023,0,0,0,8.046,0A76.524,76.524,0,0,0,166.088,61.5a4.023,4.023,0,1,0,0,8.046Z"/><path d="M166.088,93.684a44.308,44.308,0,0,1,44.255,44.256,4.023,4.023,0,1,0,8.046,0,52.362,52.362,0,0,0-52.3-52.3,4.023,4.023,0,0,0,0,8.046Z"/><path d="M166.088,117.823A20.142,20.142,0,0,1,186.2,137.94a4.023,4.023,0,1,0,8.046,0,28.2,28.2,0,0,0-28.162-28.163,4.023,4.023,0,0,0,0,8.046Z"/></svg>