<?xml version="1.0" encoding="UTF-8"?>
<!DOCTYPE svg PUBLIC "-//W3C//DTD SVG 1.1//EN" "http://www.w3.org/Graphics/SVG/1.1/DTD/svg11.dtd">
<!-- Creator: CorelDRAW 2020 (64-Bit) -->
<svg xmlns="http://www.w3.org/2000/svg" xml:space="preserve" width="163.622mm" height="163.689mm" version="1.1" style="shape-rendering:geometricPrecision; text-rendering:geometricPrecision; image-rendering:optimizeQuality; fill-rule:evenodd; clip-rule:evenodd"
viewBox="0 0 6639.94 6642.66"
 xmlns:xlink="http://www.w3.org/1999/xlink"
 xmlns:xodm="http://www.corel.com/coreldraw/odm/2003">
 <defs>
  <style type="text/css">
   <![CDATA[
    .fil1 {fill:black}
    .fil4 {fill:#43A5F4}
    .fil2 {fill:#63B4F5}
    .fil3 {fill:#DFDFDF}
    .fil0 {fill:#EDEDED}
    .fil5 {fill:#FFA726}
    .fil6 {fill:#FFB64C}
   ]]>
  </style>
 </defs>
 <g id="Capa_x0020_1">
  <metadata id="CorelCorpID_0Corel-Layer"/>
  <g id="_2869673959568">
   <path class="fil0" d="M1778.43 5115.3c-15.12,-61.09 -4.17,-357.68 -4.17,-442.3 0,-423.48 -43.49,-359.3 525.16,-359.3 423.48,0 359.3,-43.33 359.3,525.16 0,423.42 43.26,359.3 -525.16,359.3 -121.84,0 -326.31,33.56 -355.13,-82.87zm-1105.73 0c-15.13,-61.09 -4.18,-357.68 -4.18,-442.3 0,-132.51 -35.6,-324.75 86.89,-354.68 64.32,-15.72 351.4,-4.62 438.27,-4.62 423.48,0 359.3,-43.33 359.3,525.16 0,423.42 43.27,359.3 -525.16,359.3 -121.84,0 -326.31,33.56 -355.12,-82.87zm1174.43 -1895.65c57.29,-27.75 338.29,-11.68 424.64,-11.68 443,0 386.95,-57.62 386.95,497.53 0,442.95 57.51,386.95 -497.52,386.95 -442.98,0 -386.94,57.6 -386.94,-497.52 0,-141.65 -36.53,-322.27 72.88,-375.27zm-1105.73 0c57.28,-27.75 338.3,-11.68 424.64,-11.68 443,0 386.95,-57.62 386.95,497.53 0,442.95 57.51,386.95 -497.52,386.95 -119.25,0 -330.16,36.21 -375.47,-66.46 -22.33,-50.6 -11.48,-353.4 -11.48,-431.06 0,-141.65 -36.53,-322.27 72.88,-375.27zm2211.46 -1105.73c57.28,-27.75 338.29,-11.68 424.64,-11.68 119.25,0 330.18,-36.2 375.48,66.45 22.32,50.57 11.47,353.43 11.47,431.07 0,442.95 57.51,386.95 -497.52,386.95 -442.98,0 -386.95,57.6 -386.95,-497.52 0,-141.65 -36.53,-322.27 72.88,-375.27zm-1105.73 0c57.29,-27.75 338.29,-11.68 424.64,-11.68 443.01,0 386.95,-57.62 386.95,497.52 0,442.95 57.51,386.95 -497.52,386.95 -442.98,0 -386.94,57.6 -386.94,-497.52 0,-141.65 -36.53,-322.27 72.88,-375.27zm-1620.88 3164.3c83.88,53.81 87.78,98.93 231.11,130.99 110.21,24.64 933.4,12.14 1081.86,12.14 169.08,0 1397.92,21.35 1445.85,-13.57 0.96,-49.67 -62.9,-250.99 -77.87,-334.33 -23.48,-130.63 -31.37,-265.66 -25.37,-400.96 11.06,-249.18 71.14,-487.55 164.95,-687.86l-56.22 -2.77 0.06 -220.63 0.06 -442.53 442.54 -0.06 107 -1.73c56.62,-26.05 148.64,-108.68 220.73,-153.83 81.98,-51.36 154.14,-87.65 244.81,-128.68 157.27,-71.17 407.97,-144.76 600.69,-150.35l-508.9 -7.96 -8.06 -120.18c-142.97,-33.81 -103.8,-167.89 -103.8,-321.98 0.01,-123.31 -32.87,-297.78 86.89,-327.04 63.05,-15.41 339.76,-4.62 424.45,-4.62 399.26,0 252.37,22.55 357.08,41.48 32.15,-12.08 19.1,-61.85 18.43,-110 -0.58,-41.68 -0.36,-83.35 -0.36,-125.03 0,-82.95 0,-165.9 0,-248.85l-4646.1 0 0.15 3618.38z"/>
   <path class="fil1" d="M4726.99 775.43c212.69,-0.77 404.42,-17.6 509.47,117.21 107.34,137.74 76.1,344.97 76.1,546.14l-442.13 0.02 -4644.32 0.03c0,-212.39 -31.8,-441.68 95.27,-568.3 127.21,-126.76 354.8,-95.28 568.31,-95.28 0,223.49 57.37,441.62 331.65,441.65 274.1,0.02 331.65,-220.02 331.65,-441.65l884.65 0c0.07,133.8 3.98,226.77 70.12,317.17 124.3,169.88 408.85,157.86 523.21,0 65.83,-90.85 70.04,-183.4 70.04,-317.17l884.65 0c0.12,223.38 57.36,441.62 331.72,441.65 116.24,0.01 219.61,-66.5 261.62,-124.48 65.82,-90.85 70.03,-183.4 70.03,-317.17l77.96 0.19zm-520.05 77.9c-0.62,-113.52 -0.16,-227.1 -0.2,-340.63 -0.04,-111.53 -27.05,-250 72.06,-270.74 32.97,-29.75 74.45,-26.18 114.95,14.48 57.03,57.26 34.21,333.32 34.26,449.77 0.04,102.4 19,231.41 -58.1,274.55 -97.16,54.37 -159.89,-29.6 -162.97,-127.42zm-1548.02 0c-0.62,-113.52 -0.16,-227.1 -0.2,-340.63 -0.04,-111.53 -27.05,-250 72.06,-270.74 19.32,-17.44 5.71,-24.69 61.14,-15.73 130.63,21.11 87.99,295.77 88.06,479.97 0.04,102.4 19,231.41 -58.1,274.55 -97.16,54.37 -159.89,-29.6 -162.97,-127.42zm-1548.02 0c-0.62,-113.52 -0.16,-227.1 -0.2,-340.63 -0.04,-111.53 -27.05,-250 72.06,-270.74 19.32,-17.44 5.71,-24.69 61.14,-15.73 130.63,21.11 87.99,295.77 88.06,479.97 0.03,102.4 19,231.41 -58.1,274.55 -97.16,54.37 -159.88,-29.6 -162.97,-127.42zm1768.29 4897.77c-23.95,-139.68 -141.2,-110.62 -275.69,-110.51l-1948.87 0.07c-269.57,0.6 -425.41,-90.04 -428.37,-362.44l-0.15 -3618.38 4646.1 0 440.39 -0.01 -0.32 912.57c-0.66,109.18 7.53,174.76 110.83,192.48 143.47,-8.7 110.59,-140.06 110.57,-289.5l0 -1202.48c0,-273.37 16.64,-400.18 -203.84,-597.82 -171.91,-154.1 -372.68,-120.91 -680.74,-120.91 0,-177.51 39.56,-554.16 -331.72,-554.16 -371.28,0 -331.72,376.65 -331.72,554.16l-884.58 0c0,-177.51 39.55,-554.16 -331.73,-554.16 -371.28,0 -331.72,376.65 -331.72,554.16l-884.59 0c0,-177.51 39.57,-554.16 -331.71,-554.16 -371.28,0 -331.72,376.65 -331.72,554.16 -179.31,0 -397.73,-20.43 -533.66,33.02 -130.42,51.28 -240.69,158.04 -300.71,279.79 -71.07,144.12 -50.21,312.45 -50.21,516.49 0,341.66 -13.16,3906.24 3.14,4018.97 21.87,151.44 113.69,269.36 215.62,351.06 135.53,108.63 237.8,108.18 472.33,108.18l2004.51 0.37c112.65,1.05 172.04,-3.54 178.56,-110.94z"/>
   <path class="fil0" d="M4721.8 4104.05c55.61,-26.59 111.4,8.68 132.27,45.94 55.41,98.95 -38.43,485.79 37.16,585.28 59.74,78.63 284.61,259.28 303.88,318.92 20.37,63.07 -16.27,116.14 -59.39,134.12 -98.34,41.03 -201.18,-103.81 -245.52,-148.25 -288.93,-289.59 -241.04,-170.93 -241.04,-588.21 0,-137.09 -34.72,-296.45 72.65,-347.81zm-649.27 1639.7c235.3,31.7 405.62,-17.16 607.42,-76.71 19.24,-7.02 41.57,-17.86 71.8,-24.92 130.44,-96.83 246.11,-110.12 422.49,-305.67 436.06,-483.44 471.34,-1203.32 129.68,-1659.22 -74.56,-71.5 -304.14,-119.13 -433.73,-131.26 0,122.28 34.14,323.39 -110.53,323.5 -144.79,0.11 -110.5,-201.19 -110.5,-323.5 -584.79,54.74 -1044.19,514.92 -1099.51,1099.45 122.37,0 323.63,-34.35 323.53,110.51 -0.09,144.66 -201.18,110.52 -323.48,110.52 19.34,206.53 86.37,386.73 179.25,533.13 54.89,86.53 246.59,331.03 343.58,344.18z"/>
   <path class="fil1" d="M4630.93 3102.54c955.58,-77.79 1712.25,654 1782.07,1521.77 76.94,956.37 -654.01,1713.91 -1517.74,1784.22 -959.99,78.13 -1716.78,-649.75 -1788.47,-1515.92 -79.8,-964.14 651.63,-1719.04 1524.14,-1790.06zm-1090.7 214.35c-37.39,46.72 -58.84,72.28 -107,100.66 -19.01,33.42 -46.78,59.96 -75.69,88.29 -37.2,36.47 -42.34,48.02 -69.83,82.41 -46.8,58.52 -85.91,117.88 -127.05,174.09l-113.88 222.28c-93.82,200.31 -153.9,438.68 -164.95,687.86 -6,135.31 1.9,270.33 25.37,400.96 14.97,83.33 78.82,284.66 77.87,334.33 39.78,39.34 61.79,124.58 87.85,178.13 28.89,59.35 60.26,106.06 87.87,165.2 390.98,614.64 1147.51,1016.98 1943.4,855.93 417.18,-84.41 836.89,-305.18 1098.95,-642.57 182.66,-235.17 316.38,-453.34 386.64,-760.55 179.4,-784.41 -132.27,-1579.92 -779.63,-2009.87 -96.71,-64.23 -271.89,-169.66 -387.06,-199.12 -193.8,-56.79 -325.54,-97.13 -550.9,-115.12l-112.62 -3.58 -153.12 7.8c-192.72,5.58 -443.42,79.18 -600.69,150.35 -90.67,41.03 -162.83,77.32 -244.81,128.68 -72.09,45.15 -164.11,127.79 -220.73,153.83z"/>
   <path class="fil2" d="M4870.43 1438.79c0,-112.55 10.26,-291.51 -4.72,-395.61 -8.01,-55.6 -24.84,-106.32 -47.3,-147.22 -31.64,-57.59 -64.9,-74.56 -91.42,-120.54l-77.96 -0.19c0,133.77 -4.2,226.32 -70.03,317.17 -42.01,57.98 -145.38,124.49 -261.62,124.48 -274.36,-0.03 -331.6,-218.27 -331.72,-441.65l-884.65 0c0,133.77 -4.22,226.32 -70.04,317.17 -114.36,157.86 -398.91,169.88 -523.21,0 -66.14,-90.39 -70.05,-183.37 -70.12,-317.17l-884.65 0c0,221.63 -57.56,441.68 -331.65,441.65 -274.28,-0.03 -331.65,-218.16 -331.65,-441.65 -213.5,0 -441.1,-31.48 -568.31,95.28 -127.07,126.62 -95.27,355.92 -95.27,568.3l4644.32 -0.03z"/>
   <path class="fil2" d="M4633.21 3325.19c830.14,-85.49 1488.5,562.61 1557.74,1302.69 77.66,829.99 -555.25,1489.15 -1297.5,1558.54 -834.06,77.98 -1492.86,-549.62 -1563.98,-1294 -81.01,-847.68 549.33,-1489.55 1303.74,-1567.23zm-2.28 -222.65c-872.51,71.03 -1603.94,825.92 -1524.14,1790.06 71.69,866.18 828.48,1594.05 1788.47,1515.92 863.73,-70.31 1594.68,-827.85 1517.74,-1784.22 -69.81,-867.78 -826.49,-1599.57 -1782.07,-1521.77z"/>
   <path class="fil1" d="M5303.91 3677.24c158.47,50.44 361.89,252.49 442.55,368.2 109.24,156.7 200.36,358.03 223.09,599.99 -122.39,0 -323.63,-34.49 -323.47,110.51 0.16,144.74 201.05,110.52 323.47,110.52 -55.39,586.65 -512.99,1043.63 -1099.37,1099.37 0,-144.59 38.84,-313.4 -118.44,-323.7 -30.22,7.07 -52.56,17.9 -71.8,24.92 -41.82,93.07 -30.79,180.97 -30.79,298.84 -169.1,-16.19 -513.65,-117.98 -576.63,-222.13 -96.99,-13.14 -288.69,-257.64 -343.58,-344.18 -92.87,-146.4 -159.9,-326.6 -179.25,-533.13 122.29,0 323.38,34.14 323.48,-110.52 0.1,-144.86 -201.16,-110.51 -323.53,-110.51 55.32,-584.52 514.71,-1044.71 1099.51,-1099.45 0,122.31 -34.29,323.6 110.5,323.5 144.67,-0.11 110.53,-201.22 110.53,-323.5 129.59,12.14 359.17,59.76 433.73,131.26zm-670.71 -352.04c-754.41,77.69 -1384.75,719.55 -1303.74,1567.23 71.13,744.38 729.92,1371.97 1563.98,1294 742.25,-69.39 1375.16,-728.55 1297.5,-1558.54 -69.25,-740.08 -727.6,-1388.18 -1557.74,-1302.69z"/>
   <path class="fil3" d="M4751.74 5642.12c157.28,10.3 118.44,179.11 118.44,323.7 586.38,-55.74 1043.97,-512.72 1099.37,-1099.37 -122.42,0 -323.31,34.23 -323.47,-110.52 -0.16,-145 201.08,-110.51 323.47,-110.51 -22.73,-241.96 -113.85,-443.29 -223.09,-599.99 -80.66,-115.71 -284.08,-317.75 -442.55,-368.2 341.66,455.9 306.38,1175.77 -129.68,1659.22 -176.38,195.55 -292.05,208.84 -422.49,305.67z"/>
   <path class="fil3" d="M2879.18 5751.1l281.62 0c-27.61,-59.14 -58.99,-105.84 -87.87,-165.2 -26.06,-53.55 -48.07,-138.79 -87.85,-178.13 -47.93,34.92 -1276.77,13.57 -1445.85,13.57 -148.46,0 -971.65,12.5 -1081.86,-12.14 -143.33,-32.05 -147.23,-77.18 -231.11,-130.99 2.96,272.4 158.81,363.04 428.37,362.44l1948.87 -0.07c134.49,-0.1 251.74,-29.17 275.69,110.51z"/>
   <path class="fil3" d="M4854.14 2143.72c26.82,106.02 26.76,363.75 -0.09,469.79 29.73,11.11 15.3,-15.9 19.47,53.81 1.02,16.98 -0.93,51.25 -1.14,70.25 -0.54,47.34 -0.17,94.86 -0.17,142.22 225.36,17.99 357.1,58.34 550.9,115.12l0 -230.04c-103.3,-17.72 -111.49,-83.29 -110.83,-192.48l0.32 -912.57 -440.39 0.01c0,82.94 0,165.9 0,248.85 0,41.68 -0.22,83.36 0.36,125.03 0.67,48.15 13.72,97.92 -18.43,110z"/>
   <path class="fil1" d="M889.6 4866.95l-0.03 -332.19 332.19 0.02 110.14 0.01 0 442.3 -442.28 0 -0.02 -110.14zm-216.9 248.35c28.81,116.43 233.29,82.87 355.12,82.87 568.43,0 525.16,64.12 525.16,-359.3 0,-568.5 64.17,-525.16 -359.3,-525.16 -86.88,0 -373.95,-11.1 -438.27,4.62 -122.49,29.94 -86.89,222.17 -86.89,354.68 0,84.62 -10.95,381.21 4.18,442.3z"/>
   <path class="fil1" d="M889.6 3761.22l-0.03 -332.19 332.19 0.02 110.14 0.02 0 442.29 -442.28 0 -0.02 -110.14zm-148.2 -541.57c-109.41,53 -72.88,233.62 -72.88,375.27 0,77.66 -10.85,380.46 11.48,431.06 45.3,102.67 256.22,66.46 375.47,66.46 555.03,0 497.52,56 497.52,-386.95 0,-555.15 56.05,-497.53 -386.95,-497.53 -86.34,0 -367.36,-16.07 -424.64,11.68z"/>
   <path class="fil1" d="M3101.05 2655.49l-0.02 -332.19 332.2 0.02 110.13 0.02 0 442.29 -442.28 0 -0.02 -110.14zm-148.19 -541.57c-109.41,53 -72.88,233.62 -72.88,375.27 0,555.12 -56.03,497.52 386.95,497.52 555.03,0 497.52,56 497.52,-386.95 0,-77.64 10.84,-380.5 -11.47,-431.07 -45.3,-102.65 -256.22,-66.45 -375.48,-66.45 -86.35,0 -367.36,-16.08 -424.64,11.68z"/>
   <path class="fil1" d="M1995.32 4866.95l-0.02 -332.19 332.2 0.02 110.13 0.01 0 442.3 -442.28 0 -0.02 -110.14zm-216.89 248.35c28.82,116.43 233.29,82.87 355.13,82.87 568.43,0 525.16,64.12 525.16,-359.3 0,-568.5 64.17,-525.16 -359.3,-525.16 -568.65,0 -525.16,-64.17 -525.16,359.3 0,84.62 -10.94,381.21 4.17,442.3z"/>
   <path class="fil1" d="M1995.32 2655.49l-0.02 -332.19 332.2 0.02 110.13 0.02 0 442.29 -442.28 0 -0.02 -110.14zm-148.19 -541.57c-109.41,53 -72.88,233.62 -72.88,375.27 0,555.12 -56.03,497.52 386.94,497.52 555.03,0 497.52,56 497.52,-386.95 0,-555.14 56.07,-497.52 -386.95,-497.52 -86.35,0 -367.35,-16.08 -424.64,11.68z"/>
   <path class="fil1" d="M1995.32 3761.22l-0.02 -332.19 332.2 0.02 110.13 0.02 0 442.29 -442.28 0 -0.02 -110.14zm-148.19 -541.57c-109.41,53 -72.88,233.62 -72.88,375.27 0,555.12 -56.03,497.52 386.94,497.52 555.03,0 497.52,56 497.52,-386.95 0,-555.15 56.05,-497.53 -386.95,-497.53 -86.35,0 -367.35,-16.07 -424.64,11.68z"/>
   <path class="fil1" d="M4089.51 2755.88c76.78,-12.12 99.35,-28.43 116.29,-100.4l0.97 -332.19 332.2 0.02 110.13 0.02c0,150.36 -39.97,305.23 110.49,331.04 69.41,-12.09 61.56,-35.16 94.46,-40.86 26.84,-106.04 26.91,-363.77 0.09,-469.79 -104.72,-18.93 42.17,-41.48 -357.08,-41.48 -84.69,0 -361.4,-10.79 -424.45,4.62 -119.76,29.27 -86.88,203.73 -86.89,327.04 -0,154.09 -39.17,288.17 103.8,321.98z"/>
   <path class="fil4" d="M4870.43 1438.79l442.13 -0.02c0,-201.17 31.24,-408.39 -76.1,-546.14 -105.05,-134.81 -296.79,-117.98 -509.47,-117.21 26.52,45.99 59.78,62.95 91.42,120.54 22.47,40.89 39.29,91.62 47.3,147.22 14.98,104.1 4.72,283.06 4.72,395.61z"/>
   <path class="fil1" d="M4721.8 4104.05c-107.37,51.36 -72.65,210.72 -72.65,347.81 0,417.28 -47.89,298.61 241.04,588.21 44.34,44.44 147.18,189.28 245.52,148.25 43.12,-17.99 79.76,-71.05 59.39,-134.12 -19.27,-59.63 -244.14,-240.29 -303.88,-318.92 -75.59,-99.49 18.25,-486.33 -37.16,-585.28 -20.87,-37.27 -76.66,-72.53 -132.27,-45.94z"/>
   <path class="fil5" d="M4205.8 2655.49c-16.94,71.97 -39.51,88.28 -116.29,100.4l8.06 120.18 508.9 7.96 153.12 -7.8 0 -221.85c-150.47,-25.81 -110.49,-180.67 -110.49,-331.04l-110.13 -0.02c0,271.35 -61.73,332.18 -333.16,332.18z"/>
   <path class="fil6" d="M2990.63 3761.22l170.03 1.12c41.14,-56.2 80.25,-115.57 127.05,-174.09 27.49,-34.39 32.62,-45.95 69.83,-82.41 28.91,-28.33 56.68,-54.87 75.69,-88.29l0 -98.92 -442.54 0.06 -0.06 442.53z"/>
   <path class="fil3" d="M1110.9 853.33c3.09,97.82 65.81,181.79 162.97,127.42 77.1,-43.15 58.14,-172.15 58.1,-274.55 -0.07,-184.21 42.56,-458.86 -88.06,-479.97 -55.44,-8.96 -41.82,-1.71 -61.14,15.73 75.68,38.64 40.45,254.28 40.72,339.95 0.47,143.93 -20.27,223.62 -112.58,271.43z"/>
   <path class="fil3" d="M2658.92 853.33c3.08,97.82 65.81,181.79 162.97,127.42 77.1,-43.15 58.14,-172.15 58.1,-274.55 -0.07,-184.21 42.57,-458.86 -88.06,-479.97 -55.44,-8.96 -41.82,-1.71 -61.14,15.73 75.68,38.64 40.44,254.28 40.72,339.95 0.47,143.93 -20.28,223.62 -112.58,271.43z"/>
   <path class="fil3" d="M4206.94 853.33c3.08,97.82 65.81,181.79 162.97,127.42 77.1,-43.15 58.14,-172.15 58.1,-274.55 -0.04,-116.44 22.77,-392.5 -34.26,-449.77 -40.49,-40.66 -81.97,-44.22 -114.95,-14.48 75.68,38.64 40.44,254.28 40.72,339.95 0.47,143.93 -20.27,223.62 -112.58,271.43z"/>
   <path class="fil6" d="M4205.8 2655.49c271.43,0 333.16,-60.83 333.16,-332.18l-332.2 -0.02 -0.97 332.19z"/>
   <path class="fil6" d="M1995.32 2655.49c270.88,0 332.18,-61.59 332.18,-332.18l-332.2 -0.02 0.02 332.19z"/>
   <path class="fil6" d="M1995.32 3761.22c270.88,0 332.18,-61.59 332.18,-332.17l-332.2 -0.02 0.02 332.19z"/>
   <path class="fil6" d="M889.6 3761.22c270.87,0 332.16,-61.59 332.16,-332.17l-332.19 -0.02 0.03 332.19z"/>
   <path class="fil6" d="M889.6 4866.95c270.87,0 332.16,-61.59 332.16,-332.17l-332.19 -0.02 0.03 332.19z"/>
   <path class="fil6" d="M1995.32 4866.95c270.88,0 332.18,-61.59 332.18,-332.17l-332.2 -0.02 0.02 332.19z"/>
   <path class="fil6" d="M3101.05 2655.49c270.88,0 332.18,-61.59 332.18,-332.18l-332.2 -0.02 0.02 332.19z"/>
   <path class="fil5" d="M889.6 3761.22l0.02 110.14 442.28 0 0 -442.29 -110.14 -0.02c0,270.59 -61.29,332.17 -332.16,332.17z"/>
   <path class="fil5" d="M1995.32 3761.22l0.02 110.14 442.28 0 0 -442.29 -110.13 -0.02c0,270.59 -61.29,332.17 -332.18,332.17z"/>
   <path class="fil5" d="M1995.32 4866.95l0.02 110.14 442.28 0 0 -442.3 -110.13 -0.01c0,270.59 -61.29,332.17 -332.18,332.17z"/>
   <path class="fil5" d="M3101.05 2655.49l0.02 110.14 442.28 0 0 -442.29 -110.13 -0.02c0,270.59 -61.29,332.18 -332.18,332.18z"/>
   <path class="fil5" d="M1995.32 2655.49l0.02 110.14 442.28 0 0 -442.29 -110.13 -0.02c0,270.59 -61.29,332.18 -332.18,332.18z"/>
   <path class="fil5" d="M889.6 4866.95l0.02 110.14 442.28 0 0 -442.3 -110.14 -0.01c0,270.59 -61.29,332.17 -332.16,332.17z"/>
   <path class="fil3" d="M4072.53 5743.75c62.98,104.15 407.53,205.94 576.63,222.13 0,-117.87 -11.03,-205.77 30.79,-298.84 -201.8,59.55 -372.11,108.41 -607.42,76.71z"/>
   <path class="fil0" d="M2658.92 853.33c92.3,-47.81 113.05,-127.49 112.58,-271.43 -0.28,-85.66 34.96,-301.31 -40.72,-339.95 -99.11,20.74 -72.1,159.21 -72.06,270.74 0.04,113.53 -0.42,227.12 0.2,340.63z"/>
   <path class="fil0" d="M4206.94 853.33c92.31,-47.81 113.05,-127.49 112.58,-271.43 -0.28,-85.66 34.96,-301.31 -40.72,-339.95 -99.11,20.74 -72.1,159.21 -72.06,270.74 0.04,113.53 -0.42,227.12 0.2,340.63z"/>
   <path class="fil0" d="M1110.9 853.33c92.31,-47.81 113.05,-127.49 112.58,-271.43 -0.27,-85.66 34.96,-301.31 -40.72,-339.95 -99.11,20.74 -72.1,159.21 -72.06,270.74 0.04,113.53 -0.42,227.12 0.2,340.63z"/>
   <path class="fil0" d="M4759.59 2654.38l0 221.85 112.62 3.58c0,-47.36 -0.37,-94.88 0.17,-142.22 0.22,-19 2.16,-53.27 1.14,-70.25 -4.17,-69.71 10.25,-42.71 -19.47,-53.81 -32.9,5.7 -25.05,28.77 -94.46,40.86z"/>
   <polygon class="fil5" points="3046.79,3984.62 3160.67,3762.34 2990.63,3761.22 2990.57,3981.85 "/>
   <path class="fil5" d="M3433.23 3417.55c48.16,-28.37 69.62,-53.93 107,-100.66l-107 1.73 0 98.92z"/>
  </g>
 </g>
</svg>
