<?xml version="1.0" encoding="UTF-8"?>
<!DOCTYPE svg PUBLIC "-//W3C//DTD SVG 1.1//EN" "http://www.w3.org/Graphics/SVG/1.1/DTD/svg11.dtd">
<!-- Creator: CorelDRAW 2020 (64-Bit) -->
<svg xmlns="http://www.w3.org/2000/svg" xml:space="preserve" width="163.902mm" height="163.785mm" version="1.1" style="shape-rendering:geometricPrecision; text-rendering:geometricPrecision; image-rendering:optimizeQuality; fill-rule:evenodd; clip-rule:evenodd"
viewBox="0 0 393.78 393.5"
 xmlns:xlink="http://www.w3.org/1999/xlink"
 xmlns:xodm="http://www.corel.com/coreldraw/odm/2003">
 <defs>
  <style type="text/css">
   <![CDATA[
    .fil0 {fill:#422A76}
   ]]>
  </style>
 </defs>
 <g id="Capa_x0020_1">
  <metadata id="CorelCorpID_0Corel-Layer"/>
  <path class="fil0" d="M198.15 303.36c-12.17,0 -15.8,-7.02 -27.38,-18.6l-54.76 -54.76c-6.11,-6.09 -8.15,-7.28 -8.15,-16.93 0,-8.96 8.5,-15.89 14.21,-15.89 6.4,0 8.75,-0.59 13.65,3.07 8.54,6.37 37.95,38.56 43.2,42.08l-0 -127.09c-0.02,-9.88 0.05,-17.96 8.67,-23.1 8.54,-5.09 16.68,-2.85 22.48,3.65 4.77,5.34 3.97,8.4 3.96,17.78l0 128.76c3.77,-1.01 34.16,-32.88 38.25,-37 4.57,-4.6 8.89,-8.99 16.93,-8.99 14.53,0 23.08,18.52 12.36,29.91 -18.22,19.37 -46.74,46.69 -66.91,66.86 -4.35,4.35 -8.27,10.24 -16.51,10.24zm-198.15 -109.53c0,55.17 19.92,103.94 58.32,142.34 76.49,76.5 200.83,76.35 277.16,0 46.31,-46.32 69.13,-115.33 53.3,-182.47 -5.11,-21.69 -16.16,-50.2 -29.97,-68.69 -19.93,-26.68 -34.53,-41.05 -63.51,-58.55 -53.91,-32.55 -122.5,-34.48 -179.09,-9.05 -32.01,14.38 -60.18,37.69 -80.25,66.07 -3.23,4.57 -6.58,9.61 -9.46,14.79 -15.41,27.7 -26.5,58.35 -26.5,95.57z"/>
 </g>
</svg>
