<svg id="Capa_1" data-name="Capa 1" xmlns="http://www.w3.org/2000/svg" viewBox="0 0 300 300"><defs><style>.cls-1{fill:#ff5a59;}.cls-2{fill:#2bb4f3;}.cls-3{fill:#1687c4;}.cls-4{fill:#f2a077;}.cls-5{fill:#f9dc6a;}.cls-6{fill:#e5ac51;}.cls-7{fill:#fca;}</style></defs><title>Iconos_finales</title><path class="cls-1" d="M218.552,270.629H78.784l2.356-17,9.628-69.485,1.1-7.919a27.164,27.164,0,0,1,26.906-23.436h59.8a27.164,27.164,0,0,1,26.906,23.436l1.1,7.919,9.628,69.485Z"/><path class="cls-2" d="M229.592,239.74a22.475,22.475,0,0,1-13.4,13.891,26.11,26.11,0,0,1-9.354,1.673H192.384V235.6h14.459c3.332,0,3.863-1.541,4.12-2.283.994-2.887.293-9.037-4.675-17.621-3.355-5.8-9.606-14.326-21.108-24.866v79.8H112.157v-79.8c-11.5,10.54-17.754,19.069-21.109,24.866-4.967,8.584-5.669,14.734-4.674,17.621.256.742.788,2.283,4.119,2.283h14.46V255.3H90.493a26.1,26.1,0,0,1-9.353-1.673,22.474,22.474,0,0,1-13.4-13.891c-2.277-6.608-3.043-17.855,6.247-33.913a114.348,114.348,0,0,1,16.777-21.681,193.193,193.193,0,0,1,15.944-14.711A19.268,19.268,0,0,1,119,164.994h59.33a19.27,19.27,0,0,1,12.291,4.441,193.193,193.193,0,0,1,15.944,14.711,114.348,114.348,0,0,1,16.777,21.681C232.635,221.885,231.87,233.132,229.592,239.74Z"/><path class="cls-3" d="M223.346,205.827a114.356,114.356,0,0,0-16.778-21.681,193.193,193.193,0,0,0-15.944-14.711,19.266,19.266,0,0,0-12.291-4.441H170.8a17.255,17.255,0,0,1,11.464,4.441,185.593,185.593,0,0,1,14.872,14.711,113.8,113.8,0,0,1,15.65,21.681c8.665,16.058,7.951,27.305,5.826,33.913a21.845,21.845,0,0,1-12.494,13.891,22.9,22.9,0,0,1-8.725,1.673h9.453a26.11,26.11,0,0,0,9.354-1.673,22.475,22.475,0,0,0,13.395-13.891C231.87,233.132,232.635,221.885,223.346,205.827Z"/><path class="cls-3" d="M183.9,255.3V235.6h1.276V195.061c-2.305-2.65-4.953-5.477-8-8.466v84.034h8V255.3Z"/><path class="cls-1" d="M109.217,165l7.563,9.45a8.5,8.5,0,0,0,6.635,3.189h50.506a8.5,8.5,0,0,0,6.636-3.189l7.562-9.45v-4.354h-78.9Z"/><path class="cls-4" d="M134.372,138.423v27.934a14.3,14.3,0,0,0,14.3,14.3h0a14.3,14.3,0,0,0,14.3-14.3V138.423Z"/><path class="cls-5" d="M100.622,64.355v43.2h96.093V60.573A17.211,17.211,0,0,0,179.5,43.362h-6.988l-.529-1.09a17.022,17.022,0,0,0-15.313-9.588H132.292A31.671,31.671,0,0,0,100.622,64.355Z"/><path class="cls-6" d="M179.5,43.361h-6.988l-.529-1.089a17.022,17.022,0,0,0-15.313-9.588h-7.9a17.024,17.024,0,0,1,15.314,9.588l.529,1.089H171.6a17.211,17.211,0,0,1,17.211,17.211v46.984h7.9V60.572A17.211,17.211,0,0,0,179.5,43.361Z"/><path class="cls-7" d="M203.174,105.931v4.119a8.706,8.706,0,0,1-8.706,8.706h-8.574a37.277,37.277,0,0,1-74.452,0h-8.575a8.7,8.7,0,0,1-8.7-8.7v-4.119a8.705,8.705,0,0,1,8.7-8.706h8.521V81.661h31.3a30.215,30.215,0,0,0,29.753-24.936,1.571,1.571,0,0,1,2.61-.9,33.007,33.007,0,0,1,10.9,24.551v16.85h8.521A8.7,8.7,0,0,1,203.174,105.931Z"/><path class="cls-4" d="M194.468,97.226h-8.521V80.376a33.007,33.007,0,0,0-10.9-24.551,1.572,1.572,0,0,0-2.61.9,29.949,29.949,0,0,1-1.979,6.626,32.942,32.942,0,0,1,4.716,17.025v16.85l-.054,21.53a37.275,37.275,0,0,1-31.839,34.94,37.275,37.275,0,0,0,42.611-34.94h8.575a8.706,8.706,0,0,0,8.706-8.7v-4.12A8.7,8.7,0,0,0,194.468,97.226Z"/><polygon class="cls-5" points="160.736 199.788 149.279 199.788 148.058 199.788 136.601 199.788 130.49 206.968 143.628 228.782 153.709 228.782 166.846 206.968 160.736 199.788"/><path class="cls-7" d="M187.488,231.415H183a6.1,6.1,0,0,0-6.1,6.1V253.3a6.1,6.1,0,0,0,6.1,6.1h4.49a4.9,4.9,0,0,0,4.9-4.9V236.312A4.9,4.9,0,0,0,187.488,231.415Z"/><path class="cls-7" d="M109.849,231.415h4.49a6.1,6.1,0,0,1,6.1,6.1V253.3a6.1,6.1,0,0,1-6.1,6.1h-4.49a4.9,4.9,0,0,1-4.9-4.9V236.312A4.9,4.9,0,0,1,109.849,231.415Z"/><path d="M230.5,212.065a3.591,3.591,0,0,0-6.605,2.819c4.784,11.214,3.892,19.07,2.3,23.687a18.919,18.919,0,0,1-11.278,11.706,22.609,22.609,0,0,1-8.077,1.436H195.976V239.189h10.866c4.859,0,6.767-2.55,7.519-4.709.778-2.265,1.85-8.807-4.966-20.581-3.227-5.582-9.627-14.575-21.792-25.717a3.59,3.59,0,0,0-6.016,2.647v37.11a9.694,9.694,0,0,0-8.278,9.573V253.3a9.7,9.7,0,0,0,8.278,9.573v7.758a3.591,3.591,0,0,0,7.181,0v-7.751a8.493,8.493,0,0,0,5.965-3.984h12.109a30.727,30.727,0,0,0,6.367-.661L215,271.121a3.592,3.592,0,0,0,3.553,3.1,3.491,3.491,0,0,0,.5-.035,3.59,3.59,0,0,0,3.064-4.049l-1.986-14.325a25.956,25.956,0,0,0,12.864-14.9C234.99,235.1,236.183,225.382,230.5,212.065ZM203.18,217.5c4.5,7.776,4.891,12.735,4.448,14.455a4.526,4.526,0,0,1-.786.057H194.79a8.492,8.492,0,0,0-6.021-4.076V199.282C196.42,207.084,200.774,213.333,203.18,217.5Zm-22.688,35.8V237.512A2.509,2.509,0,0,1,183,235.005h4.49a1.309,1.309,0,0,1,1.306,1.307V254.5a1.308,1.308,0,0,1-1.306,1.307H183A2.509,2.509,0,0,1,180.492,253.3Z"/><path d="M131.348,121.19a18.693,18.693,0,0,0,34.638.006,3.591,3.591,0,0,0-6.655-2.7,11.508,11.508,0,0,1-21.322.006,3.591,3.591,0,0,0-6.661,2.688Z"/><path d="M130.006,103.229a3.591,3.591,0,0,0,3.591-3.591v-1.8a3.591,3.591,0,0,0-7.182,0v1.8A3.591,3.591,0,0,0,130.006,103.229Z"/><path d="M167.33,103.229a3.591,3.591,0,0,0,3.591-3.591v-1.8a3.591,3.591,0,1,0-7.181,0v1.8A3.59,3.59,0,0,0,167.33,103.229Z"/><path d="M163.47,197.461a3.592,3.592,0,0,0-2.734-1.263H136.6a3.592,3.592,0,0,0-2.735,1.263l-6.11,7.179a3.59,3.59,0,0,0-.341,4.18l13.137,21.814a3.589,3.589,0,0,0,3.076,1.738h10.081a3.591,3.591,0,0,0,3.076-1.738l13.137-21.814a3.59,3.59,0,0,0-.341-4.18Zm-11.79,27.73h-6.023L134.9,207.328l3.36-3.949h20.818l3.36,3.949Z"/><path d="M115.749,227.938V190.829a3.591,3.591,0,0,0-6.017-2.648c-12.165,11.142-18.565,20.135-21.79,25.715-6.817,11.777-5.745,18.318-4.96,20.6.745,2.14,2.653,4.69,7.512,4.69H101.36v12.525H90.494a22.591,22.591,0,0,1-8.071-1.434,18.921,18.921,0,0,1-11.284-11.708c-2.032-5.9-2.647-16.064,5.96-30.944a111.266,111.266,0,0,1,16.244-20.98l.006-.007.006-.006A191.111,191.111,0,0,1,109,172.2c.28-.231.567-.449.859-.658l4.116,5.145a12.029,12.029,0,0,0,9.439,4.536H138.73a17.855,17.855,0,0,0,19.878,0h15.315a12.032,12.032,0,0,0,9.44-4.537l4.115-5.144c.289.208.574.424.851.652a191.2,191.2,0,0,1,15.652,14.439l.01.01h0a121.217,121.217,0,0,1,13.02,15.844,3.591,3.591,0,1,0,5.947-4.026,127.1,127.1,0,0,0-12.989-15.947l-.939-6.782A30.882,30.882,0,0,0,178.567,149.2h-4.989a40.777,40.777,0,0,0,15.582-26.854h5.307a12.311,12.311,0,0,0,12.3-12.295V105.93a12.3,12.3,0,0,0-6.459-10.817V60.572a20.825,20.825,0,0,0-20.8-20.8h-4.771a20.752,20.752,0,0,0-18.061-10.677H132.295a35.3,35.3,0,0,0-22.433,8.057,3.591,3.591,0,1,0,4.573,5.537,28.1,28.1,0,0,1,17.86-6.412h24.378c9.5,0,12.462,8.48,12.611,8.652a3.591,3.591,0,0,0,3.231,2.024h6.99a13.637,13.637,0,0,1,13.621,13.621V93.636H189.54V80.379a36.773,36.773,0,0,0-12.08-27.216A5.162,5.162,0,0,0,168.9,56.1a26.562,26.562,0,0,1-26.219,21.971h-31.3a3.59,3.59,0,0,0-3.591,3.59V93.636h-3.586V64.354a27.838,27.838,0,0,1,2.422-11.424A3.591,3.591,0,0,0,100.075,50,34.992,34.992,0,0,0,97.03,64.355V95.113a12.305,12.305,0,0,0-6.459,10.817v4.122a12.312,12.312,0,0,0,12.3,12.295h5.309A41.131,41.131,0,0,0,123.769,149.2h-5a30.882,30.882,0,0,0-30.464,26.534l-.937,6.774a117.06,117.06,0,0,0-16.486,21.522c-9.963,17.225-9.053,29.561-6.535,36.877a25.955,25.955,0,0,0,12.865,14.9l-1.986,14.326a3.59,3.59,0,0,0,3.064,4.049,3.642,3.642,0,0,0,.5.034,3.593,3.593,0,0,0,3.553-3.1l1.786-12.888a30.72,30.72,0,0,0,6.367.661H102.6a8.489,8.489,0,0,0,5.965,3.983v7.751a3.591,3.591,0,1,0,7.181,0V262.87a9.7,9.7,0,0,0,8.278-9.573V237.511A9.7,9.7,0,0,0,115.749,227.938Zm22.214-61.579v-9.977c.936,0,4.791,1.292,10.705,1.292a40.789,40.789,0,0,0,10.2-1.286l.027-.006h.482v9.977a10.7,10.7,0,1,1-21.41,0Zm63.422,7.709q-4.019-3.7-8.477-7.4c-.413-.341-.837-.662-1.269-.971a3.589,3.589,0,0,0-6.324-2.94l-7.56,9.449a4.886,4.886,0,0,1-3.832,1.842H164.83a17.817,17.817,0,0,0,1.725-7.684v-9.978h12.012A23.683,23.683,0,0,1,201.385,174.068Zm-86.355-55.5a3.59,3.59,0,0,0-3.585-3.407H102.87a5.122,5.122,0,0,1-5.118-5.113V105.93a5.122,5.122,0,0,1,5.118-5.113h8.517a3.591,3.591,0,0,0,3.591-3.591V85.252h27.706a33.738,33.738,0,0,0,32.434-24.236,29.584,29.584,0,0,1,7.241,19.362V97.226a3.59,3.59,0,0,0,3.59,3.591h8.518a5.121,5.121,0,0,1,5.118,5.113v4.122a5.122,5.122,0,0,1-5.118,5.113h-8.575a3.591,3.591,0,0,0-3.586,3.4,33.684,33.684,0,0,1-67.276,0Zm3.74,37.81h12.012v9.977a17.86,17.86,0,0,0,1.725,7.684h-9.093a4.883,4.883,0,0,1-3.832-1.841l-7.56-9.45a3.589,3.589,0,0,0-6.324,2.941c-.434.31-.861.634-1.277.976q-4.445,3.69-8.469,7.4A23.683,23.683,0,0,1,118.77,156.382ZM89.71,231.95c-.443-1.739-.046-6.694,4.448-14.457,2.405-4.16,6.759-10.409,14.41-18.211v28.649a8.492,8.492,0,0,0-6.021,4.076H90.494A4.6,4.6,0,0,1,89.71,231.95ZM116.845,253.3a2.509,2.509,0,0,1-2.506,2.506h-4.49a1.308,1.308,0,0,1-1.307-1.306V236.312a1.308,1.308,0,0,1,1.307-1.306h4.49a2.509,2.509,0,0,1,2.506,2.506Z"/></svg>