<svg id="Capa_1" data-name="Capa 1" xmlns="http://www.w3.org/2000/svg" viewBox="0 0 300 300"><defs><style>.cls-1{fill:#ca7a33;}.cls-2{fill:#b1532b;}.cls-3{fill:#983424;}.cls-4{fill:#f7fcff;}.cls-5{fill:#ecf3fb;}.cls-6{fill:#7e2b1b;}.cls-7{fill:#e0e6f5;}.cls-8{fill:#fdd752;}.cls-9{fill:#f8bd3f;}</style></defs><title>Iconos_finales</title><path class="cls-1" d="M61.015,31.968A29.282,29.282,0,0,0,31.766,61.217V227.539l40.582-4.253,8.2-85.428-8.2-105.89Z"/><path class="cls-2" d="M72.348,31.968V210.517l71.2-7.462L157.828,123.9,143.547,31.968Z"/><path class="cls-3" d="M211.249,31.968h-67.7V204.074l67.7-7.047Z"/><path class="cls-4" d="M67.676,204.074a23.71,23.71,0,0,0-23.71,23.709c0,.228.011.454.018.68a23.7,23.7,0,0,0,23.692,23.029h75.871V204.074Z"/><path class="cls-5" d="M192.282,228.483v-.02c.011-9.955,8.805-18.05,18.966-18.05l-11.686-6.339H143.547v47.418h59.4l8.305-4.959c-10.169,0-18.968-8.086-18.968-18.05Z"/><path class="cls-2" d="M63.2,210.413h9.146l4.357-7.19-4.357-6.2H63.2a31.436,31.436,0,1,0,0,62.871h9.146l5.859-6.692-5.859-6.692H63.2a18.051,18.051,0,1,1,0-36.1Z"/><path class="cls-5" d="M72.348,235.038h71.2l6.6-6.575-6.6-6.811h-71.2Z"/><path class="cls-3" d="M72.348,197.027v13.386h71.2l5.888-6.339-5.888-7.047Z"/><path class="cls-3" d="M72.348,259.9h71.2l7.629-5.742-7.629-7.632-71.2-.01Z"/><path class="cls-6" d="M143.547,197.027h67.7v13.386h-67.7Z"/><path class="cls-7" d="M193.544,235.038a17.653,17.653,0,0,1-1.262-6.555v-.019a17.657,17.657,0,0,1,1.372-6.812H143.547v13.386Z"/><path class="cls-3" d="M121.239,71.22V84.551h22.308l6.6-6.666-6.6-6.665Z"/><path class="cls-3" d="M106.168,100.161v13.331h37.379l7.629-6.666-7.629-6.665Z"/><path class="cls-6" d="M143.547,71.22h22.308V84.551H143.547Z"/><path class="cls-6" d="M143.547,100.161h37.379v13.331H143.547Z"/><path class="cls-6" d="M211.249,259.9V246.533l-67.7-.008V259.9Z"/><path class="cls-8" d="M162.844,211.473A48.481,48.481,0,0,0,211.271,259.9l8.145-45.721-8.145-51.131A48.481,48.481,0,0,0,162.844,211.473Z"/><path class="cls-9" d="M211.271,163.047V259.9a48.426,48.426,0,0,0,0-96.852Z"/><path d="M221.834,149.6V29.093H60.229A30.823,30.823,0,0,0,29.093,59.818V240.687h.15a33.37,33.37,0,0,0,33.178,30.22h147a61.265,61.265,0,0,0,12.415-121.3Zm-14.191-1.232a61.572,61.572,0,0,0-59.455,55.881H86.073V42.874h121.57ZM60.229,42.873H71.882V204.252H62.421a33.135,33.135,0,0,0-19.137,6.066V59.818A16.965,16.965,0,0,1,60.229,42.873Zm2.192,213.843a19.137,19.137,0,1,1,0-38.273h86.117a60.943,60.943,0,0,0,3,12.128H65.055v14.191h93.793a62,62,0,0,0,10.84,11.954Zm147,.411a47.3,47.3,0,1,1,47.3-47.3A47.351,47.351,0,0,1,209.419,257.127Z"/><path d="M123.928,70.466h47.494V84.657H123.928Z"/><path d="M107.885,101.274h79.58v14.191h-79.58Z"/><path d="M220.082,184.142v17.292h17.292V217.9H220.082v17.292H203.619V217.9H186.327V201.434h17.292V184.142Z"/></svg>