<svg id="Capa_1" data-name="Capa 1" xmlns="http://www.w3.org/2000/svg" viewBox="0 0 300 300"><defs><style>.cls-1{fill:#dcd6cf;}.cls-2{fill:#c7c2bc;}.cls-3{fill:#50b4cd;}.cls-4{fill:#e1504c;}.cls-5{fill:#f5a945;}.cls-6{fill:#101121;}</style></defs><title>Iconos_finales</title><path class="cls-1" d="M252.463,53.685a16.389,16.389,0,0,1,16.394,16.394V250.414a16.389,16.389,0,0,1-16.394,16.394H47.537a16.389,16.389,0,0,1-16.394-16.394V70.079A16.389,16.389,0,0,1,47.537,53.685Z"/><path class="cls-2" d="M47.537,266.808H252.463a16.39,16.39,0,0,0,16.394-16.394v-88.7c-38.786,42.435-129,73.653-237.714,79.482v9.218A16.39,16.39,0,0,0,47.537,266.808Z"/><path class="cls-3" d="M104.916,111.064H137.7v32.788H104.916Z"/><path class="cls-3" d="M162.3,111.064h32.788v32.788H162.3Z"/><path class="cls-3" d="M219.675,111.064h32.788v32.788H219.675Z"/><path class="cls-3" d="M47.537,164.345H80.325v32.788H47.537Z"/><path class="cls-3" d="M104.916,164.345H137.7v32.788H104.916Z"/><path class="cls-3" d="M162.3,164.345h32.788v32.788H162.3Z"/><path class="cls-3" d="M219.675,164.345h32.788v32.788H219.675Z"/><path class="cls-3" d="M47.537,217.626H80.325v32.788H47.537Z"/><path class="cls-3" d="M104.916,217.626H137.7v32.788H104.916Z"/><path class="cls-3" d="M162.3,217.626h32.788v32.788H162.3Z"/><path class="cls-4" d="M268.857,94.67H31.143V70.079A16.394,16.394,0,0,1,47.537,53.685H252.463a16.394,16.394,0,0,1,16.394,16.394Z"/><path class="cls-5" d="M80.325,74.177a8.2,8.2,0,0,1-8.2-8.2V41.389a8.2,8.2,0,1,1,16.394,0V65.98A8.2,8.2,0,0,1,80.325,74.177Z"/><path class="cls-5" d="M125.409,74.177a8.2,8.2,0,0,1-8.2-8.2V41.389a8.2,8.2,0,1,1,16.394,0V65.98A8.2,8.2,0,0,1,125.409,74.177Z"/><path class="cls-5" d="M174.591,74.177a8.2,8.2,0,0,1-8.2-8.2V41.389a8.2,8.2,0,0,1,16.394,0V65.98A8.2,8.2,0,0,1,174.591,74.177Z"/><path class="cls-5" d="M219.675,74.177a8.2,8.2,0,0,1-8.2-8.2V41.389a8.2,8.2,0,0,1,16.394,0V65.98A8.2,8.2,0,0,1,219.675,74.177Z"/><path class="cls-6" d="M47.537,270.907H252.463a20.517,20.517,0,0,0,20.493-20.493V70.079a20.517,20.517,0,0,0-20.493-20.493H231.971v-8.2a12.3,12.3,0,1,0-24.592,0v8.2H186.887v-8.2a12.3,12.3,0,1,0-24.591,0v8.2H137.7v-8.2a12.3,12.3,0,1,0-24.591,0v8.2H92.621v-8.2a12.3,12.3,0,1,0-24.592,0v8.2H47.537A20.517,20.517,0,0,0,27.044,70.079V250.414A20.517,20.517,0,0,0,47.537,270.907Zm204.926-8.2H47.537a12.309,12.309,0,0,1-12.3-12.3V98.768H264.759V250.414A12.309,12.309,0,0,1,252.463,262.709ZM215.576,41.389a4.1,4.1,0,0,1,8.2,0V65.98a4.1,4.1,0,1,1-8.2,0Zm-45.083,0a4.1,4.1,0,0,1,8.2,0V65.98a4.1,4.1,0,1,1-8.2,0Zm-49.183,0a4.1,4.1,0,0,1,8.2,0V65.98a4.1,4.1,0,1,1-8.2,0Zm-45.083,0a4.1,4.1,0,0,1,8.2,0V65.98a4.1,4.1,0,1,1-8.2,0ZM47.537,57.783H68.029v8.2a12.3,12.3,0,1,0,24.592,0v-8.2h20.492v8.2a12.3,12.3,0,1,0,24.591,0v-8.2H162.3v8.2a12.3,12.3,0,1,0,24.591,0v-8.2h20.492v8.2a12.3,12.3,0,1,0,24.592,0v-8.2h20.492a12.31,12.31,0,0,1,12.3,12.3V90.571H35.241V70.079A12.31,12.31,0,0,1,47.537,57.783Z"/><path class="cls-6" d="M137.7,106.965H104.916a4.1,4.1,0,0,0-4.1,4.1v32.788a4.1,4.1,0,0,0,4.1,4.1H137.7a4.1,4.1,0,0,0,4.1-4.1V111.064A4.1,4.1,0,0,0,137.7,106.965Zm-4.1,32.789H109.015V115.163h24.591Z"/><path class="cls-6" d="M195.084,106.965H162.3a4.1,4.1,0,0,0-4.1,4.1v32.788a4.1,4.1,0,0,0,4.1,4.1h32.788a4.1,4.1,0,0,0,4.1-4.1V111.064A4.1,4.1,0,0,0,195.084,106.965Zm-4.1,32.789H166.394V115.163h24.591Z"/><path class="cls-6" d="M252.463,106.965H219.675a4.1,4.1,0,0,0-4.1,4.1v32.788a4.1,4.1,0,0,0,4.1,4.1h32.788a4.1,4.1,0,0,0,4.1-4.1V111.064A4.1,4.1,0,0,0,252.463,106.965Zm-4.1,32.789H223.773V115.163h24.592Z"/><path class="cls-6" d="M80.325,160.246H47.537a4.1,4.1,0,0,0-4.1,4.1v32.788a4.1,4.1,0,0,0,4.1,4.1H80.325a4.1,4.1,0,0,0,4.1-4.1V164.345A4.1,4.1,0,0,0,80.325,160.246Zm-22.19,20.493-6.5,6.5v-13Zm-.7-12.3h13l-6.5,6.5Zm6.5,18.092,6.5,6.5h-13Zm5.8-5.8,6.5-6.5v13Z"/><path class="cls-6" d="M137.7,160.246H104.916a4.1,4.1,0,0,0-4.1,4.1v32.788a4.1,4.1,0,0,0,4.1,4.1H137.7a4.1,4.1,0,0,0,4.1-4.1V164.345A4.1,4.1,0,0,0,137.7,160.246Zm-22.189,20.493-6.5,6.5v-13Zm-.7-12.3h13l-6.5,6.5Zm6.5,18.092,6.5,6.5h-13Zm5.8-5.8,6.5-6.5v13Z"/><path class="cls-6" d="M195.084,160.246H162.3a4.1,4.1,0,0,0-4.1,4.1v32.788a4.1,4.1,0,0,0,4.1,4.1h32.788a4.1,4.1,0,0,0,4.1-4.1V164.345A4.1,4.1,0,0,0,195.084,160.246Zm-22.19,20.493-6.5,6.5v-13Zm-.7-12.3h13l-6.5,6.5Zm6.5,18.092,6.5,6.5h-13Zm5.8-5.8,6.5-6.5v13Z"/><path class="cls-6" d="M252.463,160.246H219.675a4.1,4.1,0,0,0-4.1,4.1v32.788a4.1,4.1,0,0,0,4.1,4.1h32.788a4.1,4.1,0,0,0,4.1-4.1V164.345A4.1,4.1,0,0,0,252.463,160.246Zm-4.1,32.789H223.773V168.443h24.592Z"/><path class="cls-6" d="M80.325,213.527H47.537a4.1,4.1,0,0,0-4.1,4.1v32.788a4.1,4.1,0,0,0,4.1,4.1H80.325a4.1,4.1,0,0,0,4.1-4.1V217.626A4.1,4.1,0,0,0,80.325,213.527Zm-4.1,32.788H51.635V221.724H76.227Z"/><path class="cls-6" d="M137.7,213.527H104.916a4.1,4.1,0,0,0-4.1,4.1v32.788a4.1,4.1,0,0,0,4.1,4.1H137.7a4.1,4.1,0,0,0,4.1-4.1V217.626A4.1,4.1,0,0,0,137.7,213.527Zm-4.1,32.788H109.015V221.724h24.591Z"/><path class="cls-6" d="M195.084,213.527H162.3a4.1,4.1,0,0,0-4.1,4.1v32.788a4.1,4.1,0,0,0,4.1,4.1h32.788a4.1,4.1,0,0,0,4.1-4.1V217.626A4.1,4.1,0,0,0,195.084,213.527Zm-4.1,32.788H166.394V221.724h24.591Z"/></svg>