<svg id="Capa_1" data-name="Capa 1" xmlns="http://www.w3.org/2000/svg" viewBox="0 0 300 300"><defs><style>.cls-1{fill:#ffc250;}.cls-2{fill:#eab14d;}.cls-3{fill:#f5f5f5;}.cls-4{fill:#eaeaea;}.cls-5{fill:#c2d0da;}.cls-6{fill:#66b49d;}.cls-7{fill:#fc8086;}.cls-8{fill:#8c9ba6;}.cls-9{fill:#c9e2e7;}.cls-10{fill:#7c8b96;}</style></defs><title>Iconos_finales</title><path class="cls-1" d="M206.254,266.037H58.419a8.573,8.573,0,0,1-8.573-8.573V61.629a8.572,8.572,0,0,1,8.573-8.572H206.254a8.572,8.572,0,0,1,8.572,8.572V257.464A8.571,8.571,0,0,1,206.254,266.037Z"/><path class="cls-2" d="M206.254,53.056H177.562a8.573,8.573,0,0,1,8.573,8.573V257.464a8.572,8.572,0,0,1-8.573,8.572h28.692a8.572,8.572,0,0,0,8.572-8.572V61.629a8.572,8.572,0,0,0-8.572-8.573Z"/><path class="cls-3" d="M63.858,248.96V70.133a3.064,3.064,0,0,1,3.064-3.064H197.75a3.064,3.064,0,0,1,3.064,3.064V248.96a3.064,3.064,0,0,1-3.064,3.065H66.922a3.064,3.064,0,0,1-3.064-3.065Z"/><path class="cls-4" d="M197.751,67.069H169.059a3.064,3.064,0,0,1,3.064,3.064V248.96a3.064,3.064,0,0,1-3.064,3.065h28.692a3.064,3.064,0,0,0,3.064-3.065V70.133A3.064,3.064,0,0,0,197.751,67.069Z"/><path class="cls-5" d="M150.548,44.632V40.118a6.155,6.155,0,0,0-6.155-6.155H120.28a6.155,6.155,0,0,0-6.155,6.155v4.514a2.518,2.518,0,0,1-2.518,2.517H101.572a6.045,6.045,0,0,0-6.045,6.045V67.068h73.62V53.194a6.046,6.046,0,0,0-6.045-6.045H153.067A2.518,2.518,0,0,1,150.548,44.632Z"/><path class="cls-6" d="M81.682,116.816V89.83A5.414,5.414,0,0,1,87.1,84.416h26.987A5.414,5.414,0,0,1,119.5,89.83v26.986a5.414,5.414,0,0,1-5.414,5.414H87.1A5.413,5.413,0,0,1,81.682,116.816Z"/><path class="cls-6" d="M81.682,173.04V146.054A5.414,5.414,0,0,1,87.1,140.64h26.987a5.414,5.414,0,0,1,5.414,5.414V173.04a5.414,5.414,0,0,1-5.414,5.414H87.1A5.414,5.414,0,0,1,81.682,173.04Z"/><path class="cls-6" d="M81.682,229.264V202.277a5.414,5.414,0,0,1,5.414-5.414h26.987a5.414,5.414,0,0,1,5.414,5.414v26.987a5.414,5.414,0,0,1-5.414,5.413H87.1A5.414,5.414,0,0,1,81.682,229.264Z"/><path class="cls-7" d="M236.534,125.4l-3.439-4.53-12.866-8.147-4.946-.779-65.88,104.1a27.119,27.119,0,0,0-3.453,8.153,21.219,21.219,0,0,1,18.808,11.91,27.118,27.118,0,0,0,5.895-6.607Z"/><path class="cls-8" d="M245.834,93.337l-5.559-3.52A9.286,9.286,0,0,0,227.46,92.7l-5.1,8.056,1.626,3.278,15.47,9.8,4.154.382,5.1-8.062a9.285,9.285,0,0,0-2.879-12.811Z"/><path class="cls-9" d="M215.291,111.909l7.082-11.186,21.254,13.457-7.082,11.185Z"/><path class="cls-10" d="M164.759,236.106,146,251.222a3.56,3.56,0,0,1-5.695-3.605L145.95,224.2A21.221,21.221,0,0,1,164.759,236.106Z"/><path d="M110.147,94.339a3.5,3.5,0,0,0-4.9.745L98.317,104.5l-2.37-3.256a3.5,3.5,0,1,0-5.664,4.124l4.09,5.616a4.884,4.884,0,0,0,3.923,2h.012a4.884,4.884,0,0,0,3.921-1.982l8.663-11.769a3.505,3.505,0,0,0-.745-4.9Z"/><path d="M110.147,151.787a3.5,3.5,0,0,0-4.9.744l-6.932,9.418-2.37-3.256a3.5,3.5,0,1,0-5.664,4.124l4.089,5.616a4.882,4.882,0,0,0,3.923,2h.012a4.885,4.885,0,0,0,3.921-1.983l8.663-11.768a3.5,3.5,0,0,0-.744-4.9Z"/><path d="M110.147,206.786a3.5,3.5,0,0,0-4.9.744l-6.932,9.418-2.37-3.255a3.5,3.5,0,1,0-5.664,4.123l4.089,5.616a4.885,4.885,0,0,0,3.923,2h.012a4.882,4.882,0,0,0,3.921-1.983l8.663-11.768a3.5,3.5,0,0,0-.744-4.9Z"/><path d="M136.938,99.509h43.294a3.5,3.5,0,1,0,0-7.006H136.938a3.5,3.5,0,1,0,0,7.006Z"/><path d="M136.938,114.144h21.647a3.5,3.5,0,0,0,0-7.007H136.938a3.5,3.5,0,0,0,0,7.007Z"/><path d="M136.938,155.732h29.048a3.5,3.5,0,0,0,0-7.006H136.938a3.5,3.5,0,1,0,0,7.006Z"/><path d="M158.585,170.367a3.5,3.5,0,0,0,0-7.006H136.938a3.5,3.5,0,1,0,0,7.006Z"/><path d="M114.085,80.913H87.1a8.928,8.928,0,0,0-8.917,8.917v26.987a8.928,8.928,0,0,0,8.917,8.917h26.987A8.928,8.928,0,0,0,123,116.817V89.83a8.927,8.927,0,0,0-8.917-8.917Zm1.912,35.9a1.914,1.914,0,0,1-1.911,1.911H87.1a1.913,1.913,0,0,1-1.911-1.911V89.83A1.913,1.913,0,0,1,87.1,87.919h26.987A1.913,1.913,0,0,1,116,89.83Z"/><path d="M114.085,137.137H87.1a8.928,8.928,0,0,0-8.917,8.917V173.04a8.928,8.928,0,0,0,8.917,8.917h26.987A8.927,8.927,0,0,0,123,173.04V146.054A8.927,8.927,0,0,0,114.085,137.137ZM116,173.04a1.913,1.913,0,0,1-1.911,1.911H87.1a1.913,1.913,0,0,1-1.911-1.911V146.054a1.913,1.913,0,0,1,1.911-1.911h26.987A1.913,1.913,0,0,1,116,146.054Z"/><path d="M114.085,193.359H87.1a8.928,8.928,0,0,0-8.917,8.917v26.987A8.928,8.928,0,0,0,87.1,238.18h26.987A8.927,8.927,0,0,0,123,229.263V202.276A8.928,8.928,0,0,0,114.085,193.359Zm1.912,35.9a1.913,1.913,0,0,1-1.911,1.911H87.1a1.913,1.913,0,0,1-1.911-1.911V202.276a1.913,1.913,0,0,1,1.911-1.911h26.987A1.913,1.913,0,0,1,116,202.276Z"/><path d="M247.711,90.379l-5.56-3.521A12.787,12.787,0,0,0,224.5,90.824l-5.1,8.055-7.079,11.186-8.006,12.65V70.133a6.575,6.575,0,0,0-6.567-6.567h-25.1V56.56h33.6a5.075,5.075,0,0,1,5.07,5.07V91.967a3.5,3.5,0,1,0,7.006,0V61.63a12.09,12.09,0,0,0-12.075-12.076h-34.33a9.56,9.56,0,0,0-8.823-5.907h-9.049V40.119a9.67,9.67,0,0,0-9.659-9.658H120.283a9.67,9.67,0,0,0-9.659,9.658v3.528h-9.05a9.559,9.559,0,0,0-8.822,5.908H58.422A12.089,12.089,0,0,0,46.346,61.63V257.464a12.089,12.089,0,0,0,12.076,12.075H206.256a12.089,12.089,0,0,0,12.076-12.075V178.919a3.5,3.5,0,1,0-7.006,0v78.544a5.076,5.076,0,0,1-5.07,5.07H58.422a5.075,5.075,0,0,1-5.07-5.07V61.63a5.075,5.075,0,0,1,5.07-5.07H92.027v7.006h-25.1a6.575,6.575,0,0,0-6.567,6.568V248.96a6.575,6.575,0,0,0,6.567,6.567H197.752a6.575,6.575,0,0,0,6.568-6.567V182.853L239.5,127.269l0,0,7.077-11.182,5.1-8.061a12.8,12.8,0,0,0-3.964-17.643Zm-13.67,1.641a5.737,5.737,0,0,1,4.362.756l5.559,3.522a5.789,5.789,0,0,1,1.793,7.978l-3.228,5.1L227.2,99.667l3.226-5.1a5.743,5.743,0,0,1,3.619-2.55ZM167.7,227.625a23.555,23.555,0,0,1-2.219,2.958,24.639,24.639,0,0,0-3.723-3.986L227.027,123.52l4.676,2.961Zm-23.921,20.892a.39.39,0,0,0-.066-.025l0,0c7.588-31.513,3.894-16.171,4.949-20.552a17.633,17.633,0,0,1,11.566,7.324c-18.548,14.946-16.18,13.011-16.444,13.251Zm79.675-142.93,15.331,9.709-3.332,5.265-15.331-9.708ZM99.032,53.273q0-.065.006-.129c0-.015,0-.03,0-.045a2.544,2.544,0,0,1,2.537-2.447H111.61a6.027,6.027,0,0,0,6.02-6.02V40.119a2.656,2.656,0,0,1,2.653-2.653H144.4a2.657,2.657,0,0,1,2.654,2.653v4.513a6.027,6.027,0,0,0,6.02,6.02H163.1a2.543,2.543,0,0,1,2.537,2.447c0,.015,0,.03,0,.045,0,.042,0,.085.006.128V63.566H99.032Zm-31.668,17.3h129.95v63.214L160.65,191.722a3.5,3.5,0,0,0,5.92,3.746l49.8-78.695,4.737,3L155.834,222.849a24.6,24.6,0,0,0-5.195-1.662,23.764,23.764,0,0,1,1.726-3.271l5.446-8.6a3.5,3.5,0,0,0-5.92-3.746l-5.446,8.6a30.573,30.573,0,0,0-3.9,9.206v0L136.9,246.8a7.321,7.321,0,0,0-.2,1.726H67.364Zm129.95,177.949H154.936l12.023-9.688a30.529,30.529,0,0,0,6.656-7.461l23.7-37.448Z"/></svg>