<?xml version="1.0" encoding="UTF-8"?>
<!DOCTYPE svg PUBLIC "-//W3C//DTD SVG 1.1//EN" "http://www.w3.org/Graphics/SVG/1.1/DTD/svg11.dtd">
<!-- Creator: CorelDRAW 2020 (64-Bit) -->
<svg xmlns="http://www.w3.org/2000/svg" xml:space="preserve" width="163.689mm" height="163.689mm" version="1.1" style="shape-rendering:geometricPrecision; text-rendering:geometricPrecision; image-rendering:optimizeQuality; fill-rule:evenodd; clip-rule:evenodd"
viewBox="0 0 278.07 278.07"
 xmlns:xlink="http://www.w3.org/1999/xlink"
 xmlns:xodm="http://www.corel.com/coreldraw/odm/2003">
 <defs>
  <style type="text/css">
   <![CDATA[
    .fil1 {fill:black}
    .fil5 {fill:#006DF0}
    .fil11 {fill:#2E5787}
    .fil8 {fill:#44682A}
    .fil2 {fill:#55A2FE}
    .fil6 {fill:#64C37D}
    .fil10 {fill:#747476}
    .fil9 {fill:#777778}
    .fil3 {fill:#90DB5A}
    .fil4 {fill:#C6C5CA}
    .fil0 {fill:#DFDFE1}
    .fil12 {fill:#E0F5D1}
    .fil7 {fill:#FEFEFE}
   ]]>
  </style>
 </defs>
 <g id="Capa_x0020_1">
  <metadata id="CorelCorpID_0Corel-Layer"/>
  <g id="_2833858204848">
   <path class="fil0" d="M139 256.31c12.84,-0.32 25.81,-1.87 37.8,-6.2 3.31,-1.2 7.84,-3.32 10.78,-4.03l3.06 7.01c-2.99,3.01 -17.81,6.93 -23.29,8.24 -9.19,2.2 -18.51,2.96 -28.34,3.2l0 -8.22zm59.78 -16.24l2.33 3.09c0.84,1.43 1.33,2.21 1.94,3.4l-7.2 4.28 -3.6 -7.23 6.54 -3.55zm4.83 -3.33c2.28,-1.12 4.06,-2.86 6.12,-4.11 1.82,1.73 3.82,3.98 4.88,6.34 -1.65,1.59 -4.64,3.87 -6.76,4.81l-4.24 -7.04zm4.04 -30c-0.68,-2.45 -0.68,-5.87 0,-8.32 2.49,-0.41 5.81,-0.59 8.35,0.14l-0.18 8.03c-2.36,0.74 -5.68,0.56 -8.17,0.15zm-13.58 0c-0.68,-2.45 -0.68,-5.87 0,-8.32 2.49,-0.41 5.81,-0.59 8.35,0.14l-0.18 8.03c-2.36,0.74 -5.68,0.56 -8.17,0.15zm-13.58 0c-0.68,-2.45 -0.68,-5.87 0,-8.32 2.49,-0.41 5.81,-0.59 8.35,0.14l-0.18 8.03c-2.36,0.74 -5.68,0.56 -8.17,0.15zm47.71 -114.03c0.31,0.94 -0.93,1.19 -1.58,1.28l-19.51 -0.04 0.01 80.9 -12.22 0 0.3 3.95c-0.8,0.76 0.28,0.22 -1.35,0.77 -1.7,0.57 -45.8,0.19 -47.39,0.19l0 4.35 21.88 0c0,3.95 0.23,1.05 -1,2.17 -0.95,0.39 -1.78,1.52 -2.42,2.64l10.57 0.13c-1.91,3.16 -5.53,6.21 -7.08,9.14l6.84 0.38 -0.17 8.02c-2.37,0.72 -5.67,0.54 -8.38,0.15l-0.16 -6.39c-0.09,0.11 -39.79,49.08 -41.64,50.45 -1.72,-1.43 -2.58,-3.09 -3.95,-4.6l-1.73 -1.47c-2.36,2.71 -8.35,10.79 -10.61,12.55l-14.92 -18.04c-4.86,-5.81 -9.58,-12.01 -14.62,-17.97l-29.22 -36.33 32.99 -0c1,-4.05 0.31,-75.19 0.31,-85.8l51.07 -0.14c0.73,0.85 0.55,0.34 0.95,2.01 0.11,0.44 0.05,1.71 0.07,2.22l7.59 0 -0 -9.26 -33.13 0c0,-3.95 -0.23,-1.05 1,-2.17 1.12,-0.46 6.27,-7.05 7.38,-8.45 2.43,-3.07 4.61,-5.81 7.29,-9.01l14.67 -17.92c4.73,-6.14 9.64,-11.86 14.63,-17.96 2.49,-3.04 4.96,-5.86 7.32,-8.98 1.7,-2.25 5.66,-7.28 7.46,-8.68 2.67,2.33 8.44,11.14 10.41,11.95 1.41,-0.03 0.28,0.68 1.89,-0.86 0.94,-0.9 1.64,-2.85 3.99,-4.61l12.75 15.37c2,2.41 4.15,5.19 6.33,7.8l6.36 7.75c4.09,5.38 8.56,10.23 12.65,15.61 3.37,4.44 8.97,10.47 12.28,15.12 -2.66,0.25 -7.95,-0.83 -9.88,0.62 0.46,2.09 0.77,1.42 1.97,3.18zm-163.03 -21.29l41.27 0 -0.54 8.14 -41.27 0 0.54 -8.14zm180.26 0.88c5.55,9.88 9.48,17.26 13.41,29.49 3.92,12.2 5.23,23.73 5.68,37.28l-8.22 0c-0.44,-12.27 -1.77,-24.02 -5.3,-34.91 -5.49,-16.93 -10.7,-22.85 -12.52,-27.77l6.95 -4.09zm-14.58 -6.67c1.89,-1.26 4.03,-3.18 5.82,-4.76 1.5,0.98 4.19,4.55 5.24,6.48l-3.42 2.8c-1.05,0.72 -1.86,1.27 -3.15,1.9 -1.31,-1.41 -3.93,-4.8 -4.5,-6.42zm-8.74 -9.07c0.82,-1.56 4.51,-5.24 5.99,-6.02l5.14 5.94c-0.87,1.23 -4.41,4.33 -5.8,5.22l-5.33 -5.15zm-114.04 -44.52c-2.92,2.96 -85.3,28.27 -87.74,127.02 2.33,0.44 1.22,-0.73 1.57,6.42 0.68,14.21 4.3,28.79 10.03,41.45 4.51,9.97 15.78,28.19 24.11,34.77l-4.13 4.56 1.93 1.8c5.63,6.57 16.32,16.36 23.42,21.09 4.71,3.14 9.42,6.5 14.78,9.12l16.03 7.77c18.05,5.97 46.73,4.37 65.01,-0.61 80.05,-21.77 120.55,-112.11 82.44,-185.84 -9.73,-18.83 -19.96,-29.9 -33.09,-41.34 -11.66,-10.15 -29.88,-20.24 -48.92,-25.49 -18.39,-5.07 -47.25,-6.75 -65.44,-0.72z"/>
   <path class="fil1" d="M108.07 266.04c-11.97,-1.57 -32.13,-11.8 -40.24,-17.24 -12.96,-8.7 -20.65,-16 -29.84,-26.64 -39.61,-45.86 -39.52,-120.9 0.26,-166.52 9.17,-10.52 16.76,-17.84 29.9,-26.58 8.05,-5.35 28.05,-15.47 39.92,-17.03 18.2,-6.02 47.06,-4.35 65.44,0.72 19.04,5.25 37.26,15.34 48.92,25.49 13.13,11.44 23.36,22.51 33.09,41.34 38.11,73.73 -2.39,164.08 -82.44,185.84 -18.29,4.97 -46.96,6.58 -65.01,0.61zm23.48 -266.04l14.99 0c8.79,0.48 17.65,1.8 26.49,4.01 4.67,1.17 8.55,2.4 12.91,3.92 11.08,3.87 24.11,10.68 33.23,17.27 27.27,19.73 46.85,47.19 54.98,80.25 2.26,9.18 3.55,18.54 3.9,27.92l0 10.64c-0.53,14.26 -3.21,28.43 -7.94,41.93 -1.44,4.13 -3.04,8.2 -4.91,11.92 -16.25,32.24 -35.41,51.37 -67.7,67.53 -16.33,8.17 -36.29,12.39 -56.37,12.67l-4.26 0c-20.19,-0.29 -40.27,-4.57 -56.7,-12.85 -32.24,-16.25 -51.37,-35.41 -67.53,-67.7 -9.63,-19.25 -12.67,-40.29 -12.67,-62.28 0,-26.21 10.07,-55.41 25.21,-76.35 25.54,-35.3 64.47,-56.62 106.35,-58.88z"/>
   <path class="fil1" d="M91.34 193.05l-0.03 -3.82 0.24 -81.93c4.95,-0.14 31.89,-0.74 34.43,0.3l0.36 85.47 24.1 0.07c-0.8,1.99 -7.18,9.36 -9.14,11.71 -6.14,7.34 -22.15,27.76 -27.18,33.02l-5.49 6.52 -21.09 -25.59c-3.34,-4.35 -6.97,-8.67 -10.49,-12.88 -1.93,-2.31 -9.43,-11.13 -10.03,-12.83l24.32 -0.03zm27.89 51.67l40.05 -49.05c1.47,-1.93 4.2,-5.44 5.65,-6.75 0.65,-1.11 1.47,-2.25 2.42,-2.64 -1.2,-2.1 0.47,-0.51 -1.71,-1.26l-31.35 -0.17 -0.06 -85.88 -51.07 0.14c0,10.61 0.7,81.75 -0.31,85.8l-32.99 0 29.22 36.33c5.04,5.96 9.76,12.16 14.62,17.97l14.92 18.04c2.27,-1.76 8.26,-9.84 10.61,-12.55z"/>
   <path class="fil1" d="M174.91 40.56c1.12,0.41 8.4,9.92 9.27,10.96 3.26,3.89 26.18,31.51 26.81,33.47l-24.23 0 -0.11 85.39c-2.12,1.29 -29.44,0.42 -34.38,0.42 -1.21,-4.39 -0.34,-34.06 -0.34,-41.01 0,-13.57 0.03,-27.15 -0,-40.72l-0.02 -3.82 -24.45 -0.37c4.21,-6.15 31.65,-39.07 39.34,-48.43l2.64 -2.76c2.06,2.34 3.91,4.22 5.46,6.87zm-64.2 51.22c1.04,2.81 -0.72,0.2 1.24,1.06 1.59,0.7 28.7,0.14 31.66,0.34l0.17 85.77 51.43 -0.15 -0.3 -3.95c0.01,-13.75 0,-27.5 0,-41.25 0,-7.48 -0.97,-35.29 0.3,-40.46 6.27,0 28.58,0.73 32.99,-0.43 -1.2,-1.76 -1.52,-1.08 -1.97,-3.18 -2.37,-1.63 -22.51,-26.79 -23.6,-28.21 -2.55,-3.3 -21.69,-25.98 -22.77,-28.58 -1.97,-0.8 -7.75,-9.62 -10.41,-11.95 -1.8,1.4 -5.76,6.43 -7.46,8.68 -2.36,3.12 -4.83,5.94 -7.32,8.98 -4.99,6.1 -9.9,11.82 -14.63,17.96l-14.67 17.92c-2.68,3.21 -4.85,5.94 -7.29,9.01 -1.11,1.4 -6.26,7.99 -7.38,8.45z"/>
   <path class="fil2" d="M173.43 137.08l7.89 0.04 -0.09 27.32 -8.07 0.02 0.26 -27.38zm0 -13.58l7.84 0.04 0.06 8.11 -8.21 0.03 0.3 -8.18zm0 -13.58l7.84 0.04 0.06 8.11 -8.21 0.03 0.3 -8.18zm9.87 -38.75l8.42 0.22 -0.26 8.43 -8.39 -0.27 0.23 -8.38zm-13.58 0l8.42 0.22 -0.26 8.43 -8.39 -0.27 0.23 -8.38zm-13.58 0l8.42 0.22 -0.26 8.43 -8.39 -0.27 0.23 -8.38zm-4.24 14.08l0.02 3.82 12.22 0 -0.01 81.29 22.52 0.01 0.11 -85.39 24.23 0c-0.63,-1.96 -23.56,-29.58 -26.81,-33.47 -0.87,-1.04 -8.16,-10.55 -9.27,-10.96 -1.25,0.58 -17.11,20.4 -18.4,21.98 -3.11,3.79 -5.83,7.33 -9.01,11.09 -2.94,3.47 -6.14,7.37 -8.83,10.95 3.44,0.49 10.85,-0.79 13.24,0.68z"/>
   <path class="fil3" d="M112.65 140.81l7.92 -0.04c0.38,3.5 0.5,24.63 -0.15,27.37l-7.84 -0.1 0.07 -27.23zm8.1 -13.32l-0.03 7.87 -7.78 -0 -0.38 -0.77c-0.33,-1.25 -0.02,0.41 -0.18,-0.95l0.14 -6.43c1.54,-0.18 2.7,-0.16 4.23,-0.17l3.18 0.14c0.11,0.02 0.34,0.28 0.42,0.15 0.08,-0.13 0.26,0.12 0.39,0.17zm0 -13.58l-0.03 7.87 -7.78 -0 -0.41 -8.15c1.54,-0.18 2.7,-0.16 4.23,-0.17l3.59 0.29c0.08,-0.13 0.26,0.12 0.39,0.17zm-29.45 75.32l0.03 3.82c-3.18,1.2 -9.34,0.34 -13.28,0.36 0.78,1.35 7.17,9.27 8.27,10.04l0.3 -5.17 25.29 0.18 -0.27 8.4 -22.52 0.04c0.91,1.77 4.45,5.83 5.92,7.62 2.42,2.95 4.04,4.9 6.36,7.75 4.28,5.26 8.76,10.44 12.7,15.58 5.04,-5.25 21.05,-25.68 27.18,-33.02 1.96,-2.35 8.34,-9.72 9.14,-11.71l-24.1 -0.07 -0.36 -85.47 -22.46 0 0 81.33 -12.21 0.31z"/>
   <path class="fil4" d="M108.07 266.04l-16.03 -7.77c-5.36,-2.63 -10.07,-5.99 -14.78,-9.12 -7.1,-4.73 -17.79,-14.51 -23.42,-21.09l-1.93 -1.8c-0.99,0.58 -0.84,0.62 -2.03,1.33 -1.61,-2.46 -9.35,-10.25 -13.91,-16.99 -14.63,-21.65 -21.83,-43.41 -22.39,-71.56l6.76 0.01c2.44,-98.75 84.82,-124.06 87.74,-127.02 -11.87,1.56 -31.87,11.67 -39.92,17.03 -13.14,8.73 -20.73,16.06 -29.9,26.58 -39.77,45.62 -39.87,120.66 -0.26,166.52 9.19,10.64 16.88,17.94 29.84,26.64 8.11,5.45 28.27,15.67 40.24,17.24z"/>
   <path class="fil5" d="M186.66 170.39l-22.52 -0.01 0.01 -81.29 -12.22 0c0.03,13.57 0,27.15 0,40.72 0,6.95 -0.87,36.62 0.34,41.01 4.94,0 32.26,0.87 34.38,-0.42z"/>
   <path class="fil4" d="M194.91 174.86l12.22 0 -0.01 -80.9 19.51 0.04c0.65,-0.09 1.89,-0.34 1.58,-1.28 -4.41,1.16 -26.72,0.43 -32.99,0.43 -1.28,5.17 -0.3,32.98 -0.3,40.46 0,13.75 0.01,27.5 -0,41.25z"/>
   <path class="fil6" d="M91.31 189.23l12.21 -0.31 -0 -81.33 22.46 0c-2.55,-1.04 -29.48,-0.44 -34.43,-0.3l-0.24 81.93z"/>
   <path class="fil4" d="M134.23 98.98l0.06 85.88 31.35 0.17c2.19,0.75 0.52,-0.85 1.71,1.26 1.24,-1.12 1,1.78 1,-2.17l-21.88 -0 0 -4.35c1.59,0 45.69,0.38 47.39,-0.19 1.63,-0.55 0.55,-0 1.35,-0.77l-51.43 0.15 -0.17 -85.77c-2.96,-0.2 -30.07,0.36 -31.66,-0.34 -1.96,-0.86 -0.2,1.76 -1.24,-1.06 -1.24,1.12 -1,-1.78 -1,2.17l33.13 0 0 9.26 -7.59 0c-0.02,-0.51 0.03,-1.78 -0.07,-2.22 -0.4,-1.66 -0.22,-1.16 -0.95,-2.01z"/>
   <path class="fil1" d="M51.92 226.26l4.13 -4.56c-8.33,-6.58 -19.6,-24.8 -24.11,-34.77 -5.72,-12.66 -9.34,-27.24 -10.03,-41.45 -0.34,-7.15 0.76,-5.98 -1.57,-6.42l-6.76 -0.01c0.56,28.15 7.77,49.91 22.39,71.56 4.56,6.75 12.3,14.53 13.91,16.99 1.19,-0.71 1.04,-0.75 2.03,-1.33z"/>
   <path class="fil4" d="M119.24 244.72l1.73 1.47c1.37,1.51 2.23,3.17 3.95,4.6 1.84,-1.37 41.54,-50.34 41.64,-50.45l0.31 -2.03 1.56 -0.13c1.55,-2.93 5.17,-5.99 7.08,-9.14l-10.57 -0.13c-1.45,1.32 -4.19,4.82 -5.65,6.75l-40.05 49.05z"/>
   <path class="fil4" d="M179.86 32.74c1.08,2.61 20.22,25.28 22.77,28.58 1.09,1.41 21.23,26.58 23.6,28.21 1.93,-1.45 7.23,-0.36 9.88,-0.62 -3.31,-4.65 -8.91,-10.68 -12.28,-15.12 -4.08,-5.37 -8.56,-10.23 -12.65,-15.61l-6.36 -7.75c-2.18,-2.61 -4.33,-5.39 -6.33,-7.8l-12.75 -15.37c-2.36,1.76 -3.05,3.7 -3.99,4.61 -1.61,1.54 -0.48,0.83 -1.89,0.86z"/>
   <path class="fil7" d="M238.49 76.39c1.82,4.92 7.03,10.84 12.52,27.77 3.53,10.89 4.86,22.64 5.3,34.91l8.22 0c-0.45,-13.55 -1.76,-25.08 -5.68,-37.28 -3.93,-12.24 -7.86,-19.61 -13.41,-29.49l-6.95 4.09z"/>
   <path class="fil5" d="M151.91 85.26c-2.39,-1.47 -9.81,-0.19 -13.24,-0.68 2.69,-3.58 5.88,-7.48 8.83,-10.95 3.18,-3.75 5.9,-7.29 9.01,-11.09 1.29,-1.58 17.15,-21.4 18.4,-21.98 -1.55,-2.65 -3.4,-4.53 -5.46,-6.87l-2.64 2.76c-7.7,9.36 -35.13,42.29 -39.34,48.43l24.45 0.37z"/>
   <path class="fil6" d="M114.12 237.85c-3.94,-5.14 -8.42,-10.32 -12.7,-15.58 -2.32,-2.85 -3.94,-4.8 -6.36,-7.75 -1.47,-1.79 -5.01,-5.85 -5.92,-7.62l-2.63 -0.24 -0.17 -3.22c-1.09,-0.77 -7.49,-8.7 -8.27,-10.04 3.95,-0.01 10.1,0.84 13.28,-0.36l-24.32 0.03c0.6,1.69 8.09,10.51 10.03,12.83 3.52,4.21 7.14,8.53 10.49,12.88l21.09 25.59 5.49 -6.52z"/>
   <path class="fil7" d="M139 256.31l0 8.22c9.83,-0.24 19.15,-1 28.34,-3.2 5.47,-1.31 20.3,-5.23 23.29,-8.24l-3.06 -7.01c-2.93,0.71 -7.46,2.84 -10.78,4.03 -11.98,4.33 -24.96,5.88 -37.8,6.2z"/>
   <polygon class="fil1" points="64.63,79.56 105.91,79.56 106.45,71.42 65.17,71.42 "/>
   <path class="fil7" d="M112.58 168.05l7.84 0.1c0.66,-2.74 0.54,-23.87 0.15,-27.37l-7.92 0.04 -0.07 27.23z"/>
   <polygon class="fil7" points="173.17,164.46 181.24,164.44 181.33,137.12 173.43,137.08 "/>
   <polygon class="fil1" points="86.89,202.03 86.82,206.41 90.7,206.34 111.54,206.35 111.45,198.81 86.9,198.81 "/>
   <path class="fil7" d="M230.85 65.63c0.57,1.62 3.19,5.01 4.5,6.42 1.29,-0.62 2.09,-1.18 3.15,-1.9l3.42 -2.8c-1.05,-1.93 -3.74,-5.5 -5.24,-6.48 -1.78,1.58 -3.93,3.5 -5.82,4.76z"/>
   <path class="fil7" d="M203.61 236.74l4.24 7.04c2.12,-0.94 5.11,-3.22 6.76,-4.81 -1.06,-2.36 -3.06,-4.61 -4.88,-6.34 -2.07,1.26 -3.84,2.99 -6.12,4.11z"/>
   <path class="fil7" d="M222.11 56.55l5.33 5.15c1.4,-0.89 4.93,-3.99 5.8,-5.22l-5.14 -5.94c-1.48,0.78 -5.17,4.45 -5.99,6.02z"/>
   <polygon class="fil7" points="173.13,131.68 181.34,131.65 181.28,123.54 173.43,123.5 "/>
   <polygon class="fil7" points="173.13,118.1 181.34,118.07 181.28,109.97 173.43,109.92 "/>
   <path class="fil7" d="M192.24 243.62l3.6 7.23 7.2 -4.28c-0.62,-1.19 -1.11,-1.98 -1.94,-3.4l-2.33 -3.09 -6.54 3.55z"/>
   <polygon class="fil7" points="112.95,135.36 120.73,135.36 120.76,127.49 112.95,127.49 "/>
   <polygon class="fil7" points="112.95,121.78 120.73,121.78 120.76,113.91 112.95,113.91 "/>
   <polygon class="fil1" points="180.69,206.41 188.36,206.41 188.36,198.74 180.68,198.74 "/>
   <polygon class="fil1" points="156.41,79.33 164.09,79.33 164.08,71.66 156.41,71.66 "/>
   <polygon class="fil1" points="207.85,206.41 215.51,206.41 215.52,198.74 207.85,198.74 "/>
   <polygon class="fil1" points="194.26,206.41 201.94,206.41 201.9,198.74 194.27,198.74 "/>
   <polygon class="fil1" points="169.99,79.33 177.63,79.33 177.66,71.66 169.99,71.66 "/>
   <polygon class="fil1" points="183.57,79.33 191.21,79.33 191.24,71.66 183.57,71.66 "/>
   <polygon class="fil1" points="167.11,206.4 174.77,206.4 174.77,198.76 169.99,198.77 167.08,198.7 167.12,201.49 "/>
   <path class="fil8" d="M86.9 198.81l24.55 0 0.09 7.54 -20.84 -0.01 -3.88 0.08 0.07 -4.38 0 -3.23zm-0.57 4.64l0.17 3.22 2.63 0.24 22.52 -0.04 0.27 -8.4 -25.29 -0.18 -0.3 5.17z"/>
   <path class="fil9" d="M194.27 198.74l7.63 0 0.04 7.67 -7.68 0 0.01 -7.67zm-0.19 7.99c2.49,0.41 5.81,0.59 8.17,-0.15l0.18 -8.03c-2.54,-0.74 -5.86,-0.55 -8.35,-0.14 -0.68,2.45 -0.68,5.87 0,8.32z"/>
   <path class="fil9" d="M207.85 198.74l7.67 0 -0.01 7.67 -7.66 0 0 -7.67zm-0.19 7.99c2.49,0.41 5.81,0.59 8.17,-0.15l0.18 -8.03c-2.54,-0.74 -5.86,-0.55 -8.35,-0.14 -0.68,2.45 -0.68,5.87 0,8.32z"/>
   <path class="fil9" d="M180.68 198.74l7.68 0 0 7.67 -7.67 0 -0.01 -7.67zm-0.19 7.99c2.49,0.41 5.81,0.59 8.17,-0.15l0.18 -8.03c-2.54,-0.74 -5.86,-0.55 -8.35,-0.14 -0.68,2.45 -0.68,5.87 0,8.32z"/>
   <path class="fil10" d="M167.12 201.49l-0.04 -2.8 2.91 0.07 4.78 -0.01 0 7.64 -7.66 0 0.02 -4.91zm-0.57 -1.14l0.16 6.39c2.71,0.4 6.01,0.57 8.38,-0.15l0.17 -8.02 -6.84 -0.38 -1.56 0.13 -0.31 2.03z"/>
   <path class="fil11" d="M183.57 71.66l7.67 0 -0.03 7.67 -7.64 0 0 -7.67zm-0.49 7.9l8.39 0.27 0.26 -8.43 -8.42 -0.22 -0.23 8.38z"/>
   <path class="fil11" d="M169.99 71.66l7.67 0 -0.03 7.67 -7.64 0 0 -7.67zm-0.49 7.9l8.39 0.27 0.26 -8.43 -8.42 -0.22 -0.23 8.38z"/>
   <path class="fil11" d="M156.41 71.66l7.67 0 0 7.67 -7.67 0 0 -7.67zm-0.49 7.9l8.39 0.27 0.26 -8.43 -8.42 -0.22 -0.23 8.38z"/>
   <path class="fil12" d="M112.95 135.36l0 -7.86 7.8 0c-0.13,-0.06 -0.32,-0.3 -0.39,-0.17 -0.08,0.13 -0.3,-0.13 -0.42,-0.15l-3.18 -0.14c-1.54,0.01 -2.7,-0.01 -4.23,0.17l-0.14 6.43c0.15,1.36 -0.15,-0.3 0.18,0.95l0.38 0.77z"/>
   <path class="fil12" d="M112.95 121.78l0 -7.86 7.8 0c-0.13,-0.06 -0.32,-0.3 -0.39,-0.17l-3.59 -0.29c-1.54,0.01 -2.7,-0.01 -4.23,0.17l0.41 8.15z"/>
  </g>
 </g>
</svg>
