<svg id="Capa_1" data-name="Capa 1" xmlns="http://www.w3.org/2000/svg" viewBox="0 0 300 300"><defs><style>.cls-1{fill:#195c85;}.cls-2{fill:#fdbd40;}.cls-3{fill:#7fcac9;}.cls-4{fill:#fff;}</style></defs><title>Iconos_finales</title><path class="cls-1" d="M87.531,162.091H192.317V85.517a52.392,52.392,0,0,0-52.393-52.393h0A52.391,52.391,0,0,0,87.532,85.517v44.332h24.181V85.517a28.211,28.211,0,0,1,28.211-28.212h0a28.212,28.212,0,0,1,28.212,28.212v76.574H111.713"/><path class="cls-2" d="M71.411,109.7a4.02,4.02,0,0,1-2.85-1.181l-8.06-8.06a4.03,4.03,0,0,1,5.7-5.7l8.061,8.06a4.031,4.031,0,0,1-2.849,6.88Z"/><path class="cls-2" d="M63.35,150a4.029,4.029,0,0,1-2.849-6.879l8.06-8.061a4.03,4.03,0,0,1,5.7,5.7l-8.061,8.06A4.016,4.016,0,0,1,63.35,150Z"/><path class="cls-2" d="M71.411,125.819H55.29a4.03,4.03,0,0,1,0-8.06H71.411a4.03,4.03,0,0,1,0,8.06Z"/><path class="cls-2" d="M127.834,109.7a4.03,4.03,0,0,1-2.85-6.879l8.061-8.061a4.03,4.03,0,0,1,5.7,5.7l-8.061,8.06A4.018,4.018,0,0,1,127.834,109.7Z"/><path class="cls-2" d="M135.894,150a4.016,4.016,0,0,1-2.849-1.181l-8.061-8.06a4.03,4.03,0,0,1,5.7-5.7l8.06,8.061A4.03,4.03,0,0,1,135.894,150Z"/><path class="cls-2" d="M143.954,125.819h-16.12a4.03,4.03,0,0,1,0-8.06h16.12a4.03,4.03,0,0,1,0,8.06Z"/><path class="cls-3" d="M63.35,162.091H216.5v88.664a16.121,16.121,0,0,1-16.12,16.121H79.471A16.121,16.121,0,0,1,63.35,250.755V162.091Z"/><rect class="cls-1" x="111.713" y="186.272" width="56.423" height="24.181"/><path class="cls-4" d="M200.378,254.786a4.032,4.032,0,0,1-4.03-4.03V226.574a4.03,4.03,0,0,1,8.06,0v24.182A4.032,4.032,0,0,1,200.378,254.786Z"/><path class="cls-4" d="M200.378,214.483a4.031,4.031,0,0,1-4.03-4.03v-8.06a4.03,4.03,0,1,1,8.06,0v8.06A4.032,4.032,0,0,1,200.378,214.483Z"/><path class="cls-2" d="M228.589,141.939a16.121,16.121,0,1,1,16.121-16.12A16.121,16.121,0,0,1,228.589,141.939Zm0-24.181a8.061,8.061,0,1,0,8.061,8.061A8.059,8.059,0,0,0,228.589,117.758Z"/><path class="cls-2" d="M228.589,117.758a4.032,4.032,0,0,1-4.03-4.03V57.305a4.03,4.03,0,1,1,8.06,0v56.423A4.032,4.032,0,0,1,228.589,117.758Z"/><path class="cls-2" d="M244.71,69.4H228.589a4.03,4.03,0,0,1,0-8.06H244.71a4.03,4.03,0,1,1,0,8.06Z"/><path class="cls-2" d="M244.71,85.517H228.589a4.03,4.03,0,0,1,0-8.06H244.71a4.03,4.03,0,0,1,0,8.06Z"/><path d="M74.26,102.818,66.2,94.758a4.03,4.03,0,0,0-5.7,5.7l8.06,8.061a4.03,4.03,0,0,0,5.7-5.7Z"/><path d="M68.561,135.06l-8.06,8.061a4.03,4.03,0,1,0,5.6,5.8c.032-.032.068-.065.1-.1l8.061-8.06a4.03,4.03,0,0,0-5.7-5.7Z"/><path d="M71.411,117.758H55.29a4.03,4.03,0,0,0,0,8.06H71.411a4.03,4.03,0,0,0,0-8.06Z"/><path d="M127.834,109.7a4.018,4.018,0,0,0,2.849-1.181l8.061-8.06a4.03,4.03,0,0,0-5.7-5.7l-8.061,8.06a4.031,4.031,0,0,0,2.85,6.88Z"/><path d="M124.984,140.759l8.061,8.06a4.03,4.03,0,0,0,5.7-5.7l-8.06-8.061a4.03,4.03,0,0,0-5.7,5.7Z"/><path d="M127.834,125.819h16.12a4.03,4.03,0,0,0,0-8.06h-16.12a4.03,4.03,0,0,0,0,8.06Z"/><path d="M216.5,158.061H196.347V85.517a56.423,56.423,0,1,0-112.846,0v44.332a4.032,4.032,0,0,0,4.03,4.03h24.182a4.032,4.032,0,0,0,4.03-4.03V85.517a24.181,24.181,0,1,1,48.362,0v72.544H63.35a4.031,4.031,0,0,0-4.03,4.03v88.664a20.175,20.175,0,0,0,20.151,20.152H200.378a20.175,20.175,0,0,0,20.151-20.152V162.091A4.032,4.032,0,0,0,216.5,158.061ZM139.924,53.275a32.28,32.28,0,0,0-32.242,32.242v40.3H91.562v-40.3a48.363,48.363,0,1,1,96.725,0v72.544H172.166V85.517A32.279,32.279,0,0,0,139.924,53.275Zm72.544,197.48a12.089,12.089,0,0,1-12.09,12.091H79.471A12.09,12.09,0,0,1,67.38,250.755V166.121H212.468Z"/><path d="M168.136,182.242H111.713a4.032,4.032,0,0,0-4.031,4.03v24.181a4.032,4.032,0,0,0,4.031,4.03h56.423a4.032,4.032,0,0,0,4.03-4.03V186.272A4.032,4.032,0,0,0,168.136,182.242Zm-4.03,24.181H115.743V190.3h48.363Z"/><path d="M200.378,254.786a4.032,4.032,0,0,0,4.03-4.03V226.574a4.03,4.03,0,0,0-8.06,0v24.182A4.031,4.031,0,0,0,200.378,254.786Z"/><path d="M200.378,214.483a4.032,4.032,0,0,0,4.03-4.03v-8.06a4.03,4.03,0,1,0-8.06,0v8.06A4.03,4.03,0,0,0,200.378,214.483Z"/><path d="M244.71,69.4a4.03,4.03,0,1,0,0-8.06H232.619v-4.03a4.03,4.03,0,1,0-8.06,0V110.27a16.12,16.12,0,1,0,8.061,0V85.517h12.09a4.03,4.03,0,0,0,0-8.06H232.62V69.4Zm-8.06,56.424a8.061,8.061,0,1,1-8.061-8.061A8.058,8.058,0,0,1,236.65,125.819Z"/><path d="M167.489,256.17a8.094,8.094,0,1,0-8.093-8.093A8.1,8.1,0,0,0,167.489,256.17Zm0-11.143a3.05,3.05,0,1,1-3.049,3.05A3.052,3.052,0,0,1,167.489,245.027Z"/></svg>