<svg id="Capa_1" data-name="Capa 1" xmlns="http://www.w3.org/2000/svg" viewBox="0 0 300 300"><defs><style>.cls-1{fill:#ed664c;}.cls-2{fill:#fdc75b;}</style></defs><title>Iconos_finales</title><path class="cls-1" d="M265.87,186.292v26.63c0,9.133-24.082,16.632-53.741,16.632s-53.549-7.306-53.549-16.439l-.048-2.981-.384-21.15h.144c4.23,7.835,26.342,13.844,52.972,13.844,29.659,0,54.318-7.4,54.318-16.536Z"/><path class="cls-1" d="M265.87,160.094v26.2h-.288c0,9.133-24.611,16.536-54.318,16.536-26.63,0-48.742-6.009-52.972-13.844h-.1l-.1-5.624-.385-22.641c1.827,8.605,25.14,15.431,53.6,15.431,29.226,0,53.741-7.163,54.462-16.1h.1Z"/><path class="cls-2" d="M265.774,159.662a1.329,1.329,0,0,1-.048.432c-.769,8.941-25.284,16.1-54.462,16.1-28.457,0-51.722-6.826-53.6-15.431a4.366,4.366,0,0,1-.144-1.1,4.961,4.961,0,0,1,.288-1.683c2.74-8.267,25.14-14.757,52.588-14.853h.817C240.923,143.078,265.774,150.481,265.774,159.662Z"/><path class="cls-1" d="M210.447,142.453v.673c-27.448.144-49.9,6.586-52.588,14.853l-2.307-1.153c-5.432,0-10.719-.241-15.671-.721l-1.249.24a52.729,52.729,0,0,0-17.4-29.418l.432-.481a143.826,143.826,0,0,0,33.889,3.75c29.659,0,54.51-7.451,54.51-16.584h.385v28.841Z"/><path class="cls-1" d="M210.447,87.03v26.582h-.385c0,9.133-24.851,16.584-54.51,16.584a141.288,141.288,0,0,1-33.889-3.75l-.432.481a52.773,52.773,0,0,0-18.7-10.335l.144-.481L102,88.087c1.827,8.653,25.14,15.478,53.6,15.478,29.611,0,54.414-7.4,54.51-16.535Z"/><path class="cls-2" d="M210.062,86.933v.049c-.1,9.133-24.9,16.535-54.51,16.535-28.457,0-51.722-6.826-53.6-15.478a4.373,4.373,0,0,1-.144-1.106c0-9.133,24.034-16.535,53.693-16.535C185.211,70.4,210.062,77.848,210.062,86.933Z"/><path class="cls-1" d="M158.2,189.032l.384,21.15-2.595.048a138.372,138.372,0,0,1-32.88-3.557l-.673-.721a52.956,52.956,0,0,0,14.9-23.313h1.3a159.259,159.259,0,0,0,16.968.817l2.548-.048Z"/><path class="cls-1" d="M157.715,160.767l.385,22.641-2.548.048c-5.913,0-11.633-.288-16.968-.817h-1.3a52.623,52.623,0,0,0,2.355-15.671,54.9,54.9,0,0,0-1.057-10.623l1.249-.24c4.952.48,10.239.721,15.671.721l2.307,1.153a5.17,5.17,0,0,0-.288,1.683A8.875,8.875,0,0,0,157.715,160.767Z"/><path class="cls-2" d="M138.584,156.345a54.9,54.9,0,0,1,1.057,10.623,52.428,52.428,0,1,1-1.057-10.623Z"/><path d="M251.113,143.318c-9.806-2.98-22.256-4.71-35.715-5V87.03a4.7,4.7,0,0,0-.721-2.4c-1.346-5.816-7.835-10.527-19.324-13.988-10.815-3.269-24.948-5.047-39.8-5.047-14.8,0-28.793,1.778-39.417,5.047C107.435,73.33,97,78.329,97,86.933a7.46,7.46,0,0,0,.144,1.587l.529,21.919A57.542,57.542,0,1,0,86.909,224.507a57.189,57.189,0,0,0,36.244-12.883,142.094,142.094,0,0,0,30.765,3.365c2.451,13.315,31.293,19.42,58.163,19.42,14.805,0,28.793-1.826,39.417-5.143,8.748-2.692,19.131-7.739,19.131-16.344V160.094a5.53,5.53,0,0,0-.048-.913C270.293,152.5,263.755,147.164,251.113,143.318ZM107.387,113.179l-.337-13.555a55.2,55.2,0,0,0,10.383,3.989c10.431,3.029,23.939,4.663,38.119,4.663,14.805,0,28.986-1.778,39.8-5.047a58.779,58.779,0,0,0,10.431-4.182v12.594a2.61,2.61,0,0,0-.433,1.875c0,.625-2.307,3.941-12.738,7.114-9.758,2.98-23.265,4.663-37.013,4.663-11.873,0-23.506-1.25-32.735-3.606-.144-.048-.24-.048-.385-.1A61.892,61.892,0,0,0,107.387,113.179ZM155.552,135c14.853,0,29.034-1.778,39.849-5.047a58.322,58.322,0,0,0,10.383-4.134v12.594c-20.67.673-41.868,5-49.751,13.652h-.481c-4.615,0-9.085-.192-13.219-.481a55.972,55.972,0,0,0-8.6-17.881A187.565,187.565,0,0,0,155.552,135Zm-11.344,26.246c2.788.192,5.72.289,8.7.337L153.2,178.6c-3.365-.048-6.682-.192-9.855-.433a58.7,58.7,0,0,0,1.106-11.248C144.448,165.046,144.352,163.171,144.208,161.248Zm-3.557,26.39c4.085.337,8.316.577,12.738.625v.865l.288,16.3a144.512,144.512,0,0,1-22.256-1.923A60.344,60.344,0,0,0,140.651,187.638Zm22.3-.288-.048-4.038-.193-11.056a58.374,58.374,0,0,0,10.479,4.038c10.431,3.028,23.939,4.662,38.119,4.662,14.613,0,28.553-1.73,39.272-4.9a55.183,55.183,0,0,0,10.528-4.134v12.739c0,.48-.289,1.057-.289,1.586,0,.673-2.259,3.942-12.642,7.114-9.854,2.981-22.977,4.615-36.869,4.615C184.634,198.021,166.7,192.012,162.955,187.35Zm98.012-27.736v.048c-.048.721-2.451,4.038-13.123,7.21-9.854,2.932-22.832,4.519-36.532,4.519-13.267,0-25.861-1.539-35.427-4.278-10.335-2.981-13.171-6.3-13.459-7.307,0-.1,0-.144-.048-.144h0a.289.289,0,0,1,.048-.192c.432-1.3,3.845-4.471,13.8-7.259,9.325-2.644,21.486-4.134,34.273-4.134h.817c13.748,0,27.207,1.587,37.013,4.567C258.516,155.72,260.871,158.893,260.967,159.614ZM119.02,79.915c9.709-2.98,22.688-4.662,36.532-4.662,13.748,0,27.255,1.682,37.013,4.662C203,83.088,205.3,86.357,205.3,86.982h0c0,.672-2.355,3.989-12.786,7.114-9.758,2.932-23.217,4.614-36.965,4.614-13.267,0-25.861-1.538-35.427-4.326-10.335-2.98-13.219-6.249-13.459-7.306,0-.1-.048-.1-.048-.1h0C106.666,86.068,108.877,82.992,119.02,79.915Zm.144,122.48a47.919,47.919,0,1,1-32.255-83.351,48.964,48.964,0,0,1,14.181,2.115,48.117,48.117,0,0,1,32.783,36.1,51.039,51.039,0,0,1,.961,9.662,48.047,48.047,0,0,1-15.67,35.475Zm129.546,17.69c-9.71,3.028-22.737,4.71-36.581,4.71-13.892,0-26.87-1.634-36.484-4.566-10.143-3.125-12.258-6.345-12.258-7.066v-.1l-.24-13.94a63.1,63.1,0,0,0,11.969,4.374c10.095,2.644,22.929,4.134,36.1,4.134,14.853,0,28.937-1.779,39.7-5.048a59.211,59.211,0,0,0,10.094-4.085V212.97C261.063,213.6,258.852,216.96,248.71,220.085Z"/><path d="M86.909,143.463a8.575,8.575,0,0,1,8.557,8.556,4.807,4.807,0,0,0,9.614,0,18.126,18.126,0,0,0-13.219-17.5v-2.163a4.807,4.807,0,0,0-9.614,0v2.067a18.141,18.141,0,0,0,4.662,35.667,8.556,8.556,0,1,1-8.508,8.556,4.807,4.807,0,0,0-9.614,0,18.311,18.311,0,0,0,13.46,17.545v4.182a4.807,4.807,0,0,0,9.614,0v-4.23a18.178,18.178,0,0,0-4.952-35.667,8.508,8.508,0,0,1,0-17.016Z"/></svg>