<?xml version="1.0" encoding="UTF-8"?>
<!DOCTYPE svg PUBLIC "-//W3C//DTD SVG 1.1//EN" "http://www.w3.org/Graphics/SVG/1.1/DTD/svg11.dtd">
<!-- Creator: CorelDRAW 2020 (64-Bit) -->
<svg xmlns="http://www.w3.org/2000/svg" xml:space="preserve" width="161.478mm" height="163.689mm" version="1.1" style="shape-rendering:geometricPrecision; text-rendering:geometricPrecision; image-rendering:optimizeQuality; fill-rule:evenodd; clip-rule:evenodd"
viewBox="0 0 284.26 288.15"
 xmlns:xlink="http://www.w3.org/1999/xlink"
 xmlns:xodm="http://www.corel.com/coreldraw/odm/2003">
 <defs>
  <style type="text/css">
   <![CDATA[
    .fil1 {fill:black}
    .fil4 {fill:#6FC6FE}
    .fil5 {fill:#7570D6}
    .fil2 {fill:#86D9FE}
    .fil3 {fill:#917CE1}
    .fil6 {fill:#FAC5AA}
    .fil0 {fill:#FBD6BB}
   ]]>
  </style>
 </defs>
 <g id="Capa_x0020_1">
  <metadata id="CorelCorpID_0Corel-Layer"/>
  <g id="_2833996771888">
   <path class="fil0" d="M266.33 123.58c-1.76,2.1 -7.6,4.49 -10.32,6 -2.79,1.55 -8.51,5.41 -12.52,2.22 -1.58,-1.11 -3.28,-1.7 -2.82,-5.09 0.88,-6.49 21.94,-9.29 20.45,-23.16 -0.49,-4.51 -4.19,-9.35 -8.16,-9.34 -4.49,2.24 -8.93,4.6 -13.4,7.09 -4.79,2.66 -10.43,5.82 -14.33,0.29l2.16 -1.35c-2.09,-7.14 5.09,-8.61 15.52,-15.83 8.19,-5.67 3.7,-19.81 -3.46,-20.02 -7.72,1.38 -21.14,16.29 -28.42,7.66 1.8,-2.05 1.09,-0.02 1.91,-2.38 0.28,-9.51 10.4,-8.82 17.32,-16.49 7,-7.76 1.97,-19.16 -7.65,-19.81 -6.28,-0.42 -16.64,8.01 -21.97,11.56l-30.78 20.42c-12.01,8.07 -8.27,-7.09 -19.98,-26.31 -7.19,-11.8 -13.79,-18.89 -23.39,-27.28 -8.88,-7.77 -20.17,2.13 -15.39,11.46 1.96,3.83 3.97,6.47 5.9,11 8.97,21.14 4.69,35.82 -0.45,57.16l-8.07 34.74c-0.84,3.6 -0.58,3.35 1.24,5.99 2.22,3.23 4.55,6.65 6.8,10.07 4.69,7.13 9.08,13.79 13.64,20.71 2.98,4.53 25.86,39.55 27.25,40.64 5.85,-3.03 8.69,-6.82 17.5,-8.12 9.02,-1.33 13.91,2.58 22.25,-2.58 19.3,-11.94 42.79,-28.35 62.34,-41.22 6.84,-4.5 20.09,-10.59 14.36,-22.13 -1.5,-3.03 -4.1,-4.84 -7.5,-5.91z"/>
   <path class="fil1" d="M71.83 164c-3.42,5.16 -1.1,6.22 2.18,11.1 6.23,9.27 44.67,65.54 45.91,69.28 -2.32,0.8 -31.32,20.35 -34.15,22.24 -4.57,3.06 -3.71,2.65 -9.2,-0.11 -14.49,-7.26 -29.38,-18.89 -39.15,-31.18 -12.14,-15.27 -24.35,-37.02 -26.4,-58.06l33.39 -22.36c3.14,-2.03 7.97,-5.69 11.12,-7.01 5.21,6.31 4.82,10.49 10.98,8.9 5.26,-4.71 -0.6,-9.4 -3.21,-13.86 0.49,-0.66 0.11,-0.25 0.87,-0.91 0.21,-0.19 0.7,-0.55 0.98,-0.74 0.71,-0.49 0.97,-0.6 1.72,-1.09 1.32,-0.84 2.31,-1.49 3.69,-2.48 2.48,-1.78 4.69,-3.15 7.08,-4.72 3.26,-2.15 13.02,-9.5 15.59,-8.55 1.96,0.73 18.33,26.58 20.8,30.35l30.71 46.4c1.84,2.78 3.26,4.94 5.14,7.81 6.22,9.46 8.68,9.6 0.95,14.62 -4.91,3.19 -20.25,13.87 -23.28,15.02l-39.89 -59.17c-2.27,-3.36 -4.29,-6.37 -6.57,-9.74 -2.4,-3.55 -3.15,-7.54 -9.26,-5.72zm46.01 -164l3.22 0c3.38,0.28 6.76,1.43 9.77,3.47 3.27,2.22 14.01,13.17 16.66,16.55 1.39,1.78 2.44,2.81 3.79,4.65 1.07,1.47 2.28,3.8 3.76,4.68 1.4,0.82 10.44,2.54 12.97,3.35 4.04,1.3 8.62,2.77 12.43,4.45 11.83,5.23 6.6,5.92 21.4,-3.95 3.11,-2.07 6.44,-4.61 9.93,-6.39 14.58,-7.45 28.47,2.45 30.45,14.42 1.16,7.03 -0.39,8.39 -1.55,13.35 3.46,1.66 4.93,1.84 8.14,4.24 7.44,5.56 9.87,17.08 5.37,25.59 1.39,0.67 2.89,1.06 4.41,1.78 6.97,3.3 12.1,11.31 11.94,19.03 -0.08,3.66 -1.58,6.58 -2.28,9.58 3.84,0.32 7.58,3.07 10.08,5.68 4.85,5.05 7.49,13.08 4.93,20.59 -3.44,10.1 -12.41,13.8 -22.33,20.44 0,5.86 -0.4,9.71 -1.09,14.67 -0.78,5.57 -0.32,9.06 -6.3,9.53 -5.88,-5.26 -2.92,-3.97 -1.97,-17.81l-39.65 26.08c-7.27,4 -12.2,9.8 -23.01,10.56 -5.74,0.41 -9.98,-1.42 -15.7,0.38 -4.92,1.55 -7.25,4.63 -10.91,5.95 1.71,4.82 3.82,7.51 0.94,13.35 -1.69,3.43 -5.8,5.64 -9.08,7.81l-51.15 33.84c-1.92,1.26 -9.17,5.98 -10.12,7.07 3.55,2.22 23.23,6.22 28.01,5.44 6.18,3.8 37.21,-1.88 46.61,-4.86 13.77,-4.37 25.56,-10.97 35.3,-18.16 18.02,-13.31 32.44,-31.56 40.7,-52.72 1.66,-4.25 1.51,-7 7.28,-6.32 3.26,2.03 3.7,3.18 1.95,7.66 -7.63,19.49 -16.19,32.27 -30.79,46.87 -4.06,4.06 -7.32,7 -11.92,10.6 -13.55,10.61 -27.95,16.98 -44.29,22.12 -2.56,0.81 -6.65,1.66 -9.08,2.18 -5.85,1.25 -11.83,2.04 -17.84,2.39l-14.44 0c-23.63,-1.33 -47.05,-9.08 -65.84,-21.61 -22.89,-15.26 -39.17,-36.01 -49.43,-61.44 -2.2,-5.46 -3.83,-10.93 -5.27,-16.68 -2.34,-9.33 -4.99,-28.36 -3.34,-40.82 4.03,-30.5 10.46,-47.91 28.54,-71.64 10.36,-13.6 27.6,-27.02 42.97,-34.7 16.97,-8.47 30.46,-10.49 32.45,-11.44 -3.68,-5.5 -5.13,-13.59 -1.47,-20.04 0.57,-1.01 2.58,-3.77 3.35,-4.53 3.12,-3.13 7.21,-4.9 11.49,-5.25zm-108.18 166.89c-3.59,-63.38 38.63,-117.62 99.27,-128.46 10.63,22.42 -2.88,52.13 -7.88,80.4 -4.16,-2.09 -7.21,-5.68 -14.12,-2.45 -7.76,3.63 -73.93,49.97 -77.27,50.5zm157.89 -110.75c-0.92,-0.97 -6.43,-14.56 -6.51,-15.87 4.72,1.46 15.99,4.46 19.3,7.01 -1.64,2.12 -9.94,6.58 -12.79,8.86zm45.38 13.52l1.64 1.49c6.65,4.58 17.04,-13.47 24.88,-6.77 7.16,0.2 11.65,14.35 3.46,20.02 -10.44,7.22 -17.61,8.69 -15.52,15.83 0.1,0.06 0.23,0.17 0.28,0.2 0.05,0.04 0.22,0.16 0.28,0.21 4.3,3.01 5.87,0.48 11.58,-3.3 2.57,-1.7 9.3,-6.7 13.43,-3.14 3.98,-0.01 7.68,4.83 8.16,9.34 1.49,13.87 -19.57,16.67 -20.45,23.16 -0.46,3.39 1.25,3.98 2.82,5.09 4.59,0.13 7.96,-3.28 11.07,-5.34 2.98,-1.97 7.15,-4.6 11.77,-2.88 3.4,1.07 5.99,2.88 7.5,5.91 5.73,11.53 -7.53,17.63 -14.36,22.13 -19.55,12.87 -43.04,29.28 -62.34,41.22 -8.34,5.16 -13.23,1.25 -22.25,2.58 -8.81,1.3 -11.64,5.09 -17.5,8.12 -1.39,-1.09 -24.27,-36.11 -27.25,-40.64 -4.55,-6.92 -8.95,-13.58 -13.64,-20.71 -2.25,-3.42 -4.58,-6.84 -6.8,-10.07 -1.81,-2.64 -2.08,-2.39 -1.24,-5.99l8.07 -34.74c5.14,-21.35 9.41,-36.02 0.45,-57.16 -1.92,-4.54 -3.94,-7.17 -5.9,-11 -4.77,-9.32 6.51,-19.23 15.39,-11.46 9.59,8.4 16.2,15.48 23.39,27.28 11.71,19.21 7.97,34.37 19.98,26.31l30.78 -20.42c5.34,-3.56 15.69,-11.99 21.97,-11.56 9.63,0.65 14.66,12.04 7.65,19.81 -6.92,7.67 -17.04,6.98 -17.32,16.49z"/>
   <path class="fil2" d="M71.83 164c-0.85,-1.5 -1.48,-2.39 -2.47,-3.91l-2.45 -2.98c-0.07,-0.23 -0.27,-0.22 -0.41,-0.31 -6.16,1.59 -5.77,-2.59 -10.98,-8.9 -3.15,1.32 -7.98,4.98 -11.12,7.01l-33.39 22.36c2.05,21.04 14.26,42.79 26.4,58.06 9.77,12.29 24.66,23.91 39.15,31.18 5.5,2.76 4.63,3.16 9.2,0.11 2.84,-1.89 31.83,-21.44 34.15,-22.24 -1.24,-3.74 -39.68,-60.01 -45.91,-69.28 -3.28,-4.88 -5.6,-5.94 -2.18,-11.1z"/>
   <path class="fil3" d="M9.66 166.89c3.33,-0.54 69.51,-46.87 77.27,-50.5 6.92,-3.23 9.96,0.36 14.12,2.45 5,-28.27 18.52,-57.99 7.88,-80.4 -60.64,10.83 -102.87,65.08 -99.27,128.46z"/>
   <path class="fil4" d="M66.49 156.81c0.15,0.09 0.35,0.08 0.41,0.31l2.45 2.98c0.99,1.52 1.63,2.41 2.47,3.91 6.11,-1.81 6.86,2.18 9.26,5.72 2.28,3.37 4.3,6.38 6.57,9.74l39.89 59.17c3.03,-1.15 18.37,-11.83 23.28,-15.02 7.72,-5.01 5.26,-5.16 -0.95,-14.62 -1.88,-2.87 -3.31,-5.03 -5.14,-7.81l-30.71 -46.4c-2.47,-3.77 -18.84,-29.62 -20.8,-30.35 -2.56,-0.95 -12.32,6.4 -15.59,8.55 -2.39,1.57 -4.61,2.94 -7.08,4.72 -1.39,1 -2.37,1.64 -3.69,2.48 -0.75,0.48 -1.01,0.59 -1.72,1.09 -0.28,0.19 -0.77,0.55 -0.98,0.74 -0.75,0.67 -0.38,0.25 -0.87,0.91 2.6,4.46 8.46,9.15 3.21,13.86z"/>
   <path class="fil3" d="M120.92 278.39c4.81,-1.34 3.18,2.29 17.78,-3.84 17.12,-7.19 26.89,-13.94 40.06,-25.81 13.03,-11.75 31.49,-40.37 33.17,-54.75 -7.27,4 -12.2,9.8 -23.01,10.56 -5.74,0.41 -9.98,-1.42 -15.7,0.38 -4.92,1.55 -7.25,4.63 -10.91,5.95 1.71,4.82 3.82,7.51 0.94,13.35 -1.69,3.43 -5.8,5.64 -9.08,7.81l-51.15 33.84c-1.92,1.26 -9.17,5.98 -10.12,7.07 3.55,2.22 23.23,6.22 28.01,5.44z"/>
   <path class="fil5" d="M211.92 193.99c-1.68,14.38 -20.14,43 -33.17,54.75 -13.17,11.87 -22.94,18.63 -40.06,25.81 -14.59,6.12 -12.97,2.5 -17.78,3.84 6.18,3.8 37.21,-1.88 46.61,-4.86 13.77,-4.37 25.56,-10.97 35.3,-18.16 18.02,-13.31 32.44,-31.56 40.7,-52.72 1.66,-4.25 1.51,-7 7.28,-6.32 0.91,-3.61 2.06,-6.65 2.74,-10.61 -5.88,-5.26 -2.92,-3.97 -1.97,-17.81l-39.65 26.08z"/>
   <path class="fil5" d="M167.55 56.14c2.84,-2.28 11.15,-6.75 12.79,-8.86 -3.31,-2.54 -14.58,-5.55 -19.3,-7.01 0.09,1.31 5.59,14.9 6.51,15.87z"/>
   <path class="fil6" d="M212.93 69.66c-0.82,2.36 -0.11,0.33 -1.91,2.38 7.28,8.63 20.7,-6.28 28.42,-7.66 -7.84,-6.7 -18.22,11.35 -24.88,6.77l-1.64 -1.49z"/>
   <path class="fil6" d="M227.38 100.23l-2.16 1.35c3.9,5.53 9.54,2.36 14.33,-0.29 4.48,-2.48 8.91,-4.84 13.4,-7.09 -4.13,-3.56 -10.86,1.44 -13.43,3.14 -5.71,3.77 -7.28,6.31 -11.58,3.3 -0.07,-0.05 -0.23,-0.17 -0.28,-0.21 -0.05,-0.04 -0.18,-0.15 -0.28,-0.2z"/>
   <path class="fil6" d="M243.49 131.8c4.01,3.19 9.73,-0.67 12.52,-2.22 2.72,-1.51 8.56,-3.9 10.32,-6 -4.62,-1.71 -8.78,0.91 -11.77,2.88 -3.11,2.06 -6.49,5.47 -11.07,5.34z"/>
  </g>
 </g>
</svg>
