<svg id="Capa_1" data-name="Capa 1" xmlns="http://www.w3.org/2000/svg" viewBox="0 0 300 300"><defs><style>.cls-1{fill:#1138f7;}.cls-2{fill:#1d1d1b;}</style></defs><title>Iconos_finales</title><circle class="cls-1" cx="151.526" cy="153.303" r="110.247"/><path class="cls-1" d="M151.526,272.807a119.5,119.5,0,1,1,119.5-119.5A119.64,119.64,0,0,1,151.526,272.807Zm0-220.495A100.991,100.991,0,1,0,252.517,153.3,101.1,101.1,0,0,0,151.526,52.312Z"/><path class="cls-2" d="M204.033,179.036a9.251,9.251,0,0,1-13.052,0L151.27,139.325l-39.712,39.711a9.256,9.256,0,0,1-13.052-13.051L144.79,119.7a9.253,9.253,0,0,1,13.052,0l46.284,46.284A9.251,9.251,0,0,1,204.033,179.036Z"/><path d="M150.305,273.935A120.632,120.632,0,1,1,270.936,153.3,120.768,120.768,0,0,1,150.305,273.935Zm0-230.188A109.556,109.556,0,1,0,259.861,153.3,109.68,109.68,0,0,0,150.305,43.747Z"/></svg>