<?xml version="1.0" encoding="UTF-8"?>
<!DOCTYPE svg PUBLIC "-//W3C//DTD SVG 1.1//EN" "http://www.w3.org/Graphics/SVG/1.1/DTD/svg11.dtd">
<!-- Creator: CorelDRAW 2020 (64-Bit) -->
<svg xmlns="http://www.w3.org/2000/svg" xml:space="preserve" width="163.689mm" height="163.689mm" version="1.1" style="shape-rendering:geometricPrecision; text-rendering:geometricPrecision; image-rendering:optimizeQuality; fill-rule:evenodd; clip-rule:evenodd"
viewBox="0 0 718.23 718.23"
 xmlns:xlink="http://www.w3.org/1999/xlink"
 xmlns:xodm="http://www.corel.com/coreldraw/odm/2003">
 <defs>
  <style type="text/css">
   <![CDATA[
    .fil2 {fill:#5E542D}
    .fil1 {fill:#F2F200}
    .fil0 {fill:yellow}
   ]]>
  </style>
 </defs>
 <g id="Capa_x0020_1">
  <metadata id="CorelCorpID_0Corel-Layer"/>
  <g id="_2833940580064">
   <circle class="fil0" cx="359.12" cy="359.12" r="359.12"/>
   <path class="fil1" d="M359.12 0c198.34,0 359.12,160.78 359.12,359.12 0,198.34 -160.78,359.12 -359.12,359.12l0 -718.23z"/>
   <path class="fil2" d="M226.53 447.2l44.17 45.66 -62.74 16.91 18.57 -62.57zm209.54 -222.7c7.27,-6.66 15.29,-19.47 28.65,-21.33 17.82,-2.48 27.31,8.18 34.67,15.54 33.9,33.9 6.64,49.27 -6.3,63.8l-57.02 -58.01zm23.04 -45.14c-23.16,4.91 -31.54,18.82 -51.41,38.7l-181.21 181.26c-6.64,6.64 -16.93,12.74 -20.38,24.2 -4.92,16.35 -29.34,102.14 -27.58,108.28 3.93,13.71 20.61,6.47 31.04,3.67 12.03,-3.23 24.57,-6.71 36.46,-9.99l51.48 -14.45c7.17,-2.84 7.6,-5.65 12.51,-10.74 63.86,-66.19 137.27,-136.89 203.53,-203.52 9.13,-9.18 14.46,-11.37 21.26,-25.3 21.58,-44.22 -31.16,-101.56 -75.7,-92.11z"/>
  </g>
 </g>
</svg>
