<svg id="Capa_1" data-name="Capa 1" xmlns="http://www.w3.org/2000/svg" viewBox="0 0 300 300"><defs><style>.cls-1{fill:#90a4ae;}.cls-2{fill:#607d8b;}.cls-3{fill:#eceff1;}</style></defs><title>Iconos_finales</title><path class="cls-1" d="M259.33,145.028l-90.412-18.974V266.028h88.131a10.4,10.4,0,0,0,10.369-10.369V155.086A10.325,10.325,0,0,0,259.33,145.028Z"/><path class="cls-2" d="M160.209,52.024,46.156,34.709A10.352,10.352,0,0,0,34.129,44.973V255.659A10.4,10.4,0,0,0,44.5,266.028H168.918V62.289a10.361,10.361,0,0,0-8.709-10.265Z"/><path class="cls-3" d="M127.444,219.37V273.8H80.787V219.37A10.372,10.372,0,0,1,91.155,209h25.921A10.372,10.372,0,0,1,127.444,219.37Z"/><path d="M168.918,273.8H44.5a18.165,18.165,0,0,1-18.145-18.145V44.984A18.148,18.148,0,0,1,47.473,27.077L161.411,44.341a18.117,18.117,0,0,1,15.283,17.916V266.028A7.779,7.779,0,0,1,168.918,273.8ZM44.508,42.392a2.558,2.558,0,0,0-1.68.6,2.61,2.61,0,0,0-.923,1.991V255.659a2.593,2.593,0,0,0,2.592,2.592H161.142V62.257a2.587,2.587,0,0,0-2.167-2.561L45.036,42.443A3.254,3.254,0,0,0,44.508,42.392Z"/><path d="M257.049,273.8H168.918a7.779,7.779,0,0,1-7.776-7.776V126.054a7.773,7.773,0,0,1,9.362-7.61l90.382,18.932a18.059,18.059,0,0,1,14.308,17.73V255.659A18.165,18.165,0,0,1,257.049,273.8Zm-80.355-15.553h80.355a2.593,2.593,0,0,0,2.592-2.592V155.106a2.574,2.574,0,0,0-2.021-2.529l-80.926-16.953Z"/><path d="M127.444,271.212H80.787a7.78,7.78,0,0,1-7.777-7.777V219.37a18.165,18.165,0,0,1,18.145-18.145h25.921a18.165,18.165,0,0,1,18.145,18.145v44.065A7.78,7.78,0,0,1,127.444,271.212ZM88.563,255.659h31.105V219.37a2.593,2.593,0,0,0-2.592-2.592H91.155a2.593,2.593,0,0,0-2.592,2.592Z"/><path d="M85.971,87.173H70.418a7.777,7.777,0,0,1,0-15.553H85.971a7.777,7.777,0,0,1,0,15.553Z"/><path d="M137.813,87.173H122.26a7.777,7.777,0,0,1,0-15.553h15.553a7.777,7.777,0,0,1,0,15.553Z"/><path d="M85.971,118.278H70.418a7.777,7.777,0,0,1,0-15.553H85.971a7.777,7.777,0,0,1,0,15.553Z"/><path d="M137.813,118.278H122.26a7.777,7.777,0,0,1,0-15.553h15.553a7.777,7.777,0,0,1,0,15.553Z"/><path d="M85.971,149.383H70.418a7.777,7.777,0,0,1,0-15.553H85.971a7.777,7.777,0,0,1,0,15.553Z"/><path d="M137.813,149.383H122.26a7.777,7.777,0,0,1,0-15.553h15.553a7.777,7.777,0,0,1,0,15.553Z"/><path d="M85.971,180.488H70.418a7.776,7.776,0,0,1,0-15.552H85.971a7.776,7.776,0,0,1,0,15.552Z"/><path d="M137.813,180.488H122.26a7.776,7.776,0,0,1,0-15.552h15.553a7.776,7.776,0,1,1,0,15.552Z"/><path d="M225.944,180.488H210.392a7.776,7.776,0,1,1,0-15.552h15.552a7.776,7.776,0,1,1,0,15.552Z"/><path d="M225.944,211.593H210.392a7.776,7.776,0,1,1,0-15.552h15.552a7.776,7.776,0,1,1,0,15.552Z"/><path d="M225.944,242.7H210.392a7.777,7.777,0,1,1,0-15.553h15.552a7.777,7.777,0,0,1,0,15.553Z"/></svg>