<svg id="Capa_1" data-name="Capa 1" xmlns="http://www.w3.org/2000/svg" viewBox="0 0 300 300"><defs><style>.cls-1{fill:#9f9f9f;}.cls-2{fill:#bfbfbf;}.cls-3{fill:gray;}.cls-4{fill:#595959;}.cls-5{fill:#696969;}</style></defs><title>Iconos_finales</title><polygon class="cls-1" points="164.785 32.6 179.217 75.898 157.568 75.898 157.568 32.6 164.785 32.6"/><polygon class="cls-2" points="157.568 32.6 164.785 75.898 121.487 75.898 135.919 32.6 157.568 32.6"/><polygon class="cls-1" points="245.092 77.821 224.681 118.642 209.373 103.334 239.99 72.718 245.092 77.821"/><polygon class="cls-2" points="239.99 72.718 214.476 108.437 183.86 77.821 224.681 57.41 239.99 72.718"/><polygon class="cls-1" points="269.902 166.583 226.604 181.015 226.604 159.366 269.902 159.366 269.902 166.583"/><polygon class="cls-2" points="269.902 159.366 226.604 166.583 226.604 123.285 269.902 137.717 269.902 159.366"/><polygon class="cls-1" points="224.681 246.89 183.86 226.479 199.168 211.171 229.784 241.788 224.681 246.89"/><polygon class="cls-2" points="229.784 241.788 194.065 216.274 224.681 185.658 245.092 226.479 229.784 241.788"/><polygon class="cls-1" points="135.919 271.7 121.487 228.402 143.136 228.402 143.136 271.7 135.919 271.7"/><polygon class="cls-2" points="143.136 271.7 135.919 228.402 179.217 228.402 164.785 271.7 143.136 271.7"/><polygon class="cls-1" points="55.612 226.479 76.023 185.658 91.331 200.966 60.714 231.582 55.612 226.479"/><polygon class="cls-2" points="60.714 231.582 86.228 195.863 116.844 226.479 76.023 246.89 60.714 231.582"/><polygon class="cls-1" points="30.802 137.717 74.1 123.285 74.1 144.934 30.802 144.934 30.802 137.717"/><polygon class="cls-2" points="30.802 144.934 74.1 137.717 74.1 181.015 30.802 166.583 30.802 144.934"/><polygon class="cls-1" points="76.023 57.41 116.844 77.821 101.536 93.129 70.92 62.512 76.023 57.41"/><polygon class="cls-2" points="70.92 62.512 106.639 88.026 76.023 118.642 55.612 77.821 70.92 62.512"/><path class="cls-2" d="M150.352,58.338a93.812,93.812,0,1,0,93.812,93.812A93.812,93.812,0,0,0,150.352,58.338Zm0,144.326a50.514,50.514,0,1,1,50.514-50.514A50.514,50.514,0,0,1,150.352,202.664Z"/><path class="cls-3" d="M150.352,87.2A64.947,64.947,0,1,0,215.3,152.15,64.947,64.947,0,0,0,150.352,87.2Zm0,101.029a36.082,36.082,0,1,1,36.081-36.082A36.083,36.083,0,0,1,150.352,188.232Z"/><path class="cls-4" d="M150.352,101.636a50.514,50.514,0,1,1,0,101.028L172,152.15Z"/><path class="cls-5" d="M150.352,101.636c19.893,0,36.081,22.659,36.081,50.514s-16.188,50.514-36.081,50.514a50.514,50.514,0,0,1,0-101.028Zm14.433,50.514a14.433,14.433,0,1,0-14.433,14.433A14.451,14.451,0,0,0,164.785,152.15Z"/><path d="M150.352,83.6a68.555,68.555,0,1,0,68.555,68.555A68.633,68.633,0,0,0,150.352,83.6Zm0,129.894a61.339,61.339,0,1,1,61.339-61.339A61.409,61.409,0,0,1,150.352,213.489Z"/><path d="M168.393,152.15a18.041,18.041,0,1,0-18.041,18.041A18.061,18.061,0,0,0,168.393,152.15Zm-28.866,0a10.825,10.825,0,1,1,10.825,10.825A10.836,10.836,0,0,1,139.527,152.15Z"/><path d="M271.043,134.295l-27.029-9.01a96.917,96.917,0,0,0-8.439-20.36l12.745-25.49a3.609,3.609,0,0,0-.676-4.165L227.233,54.859a3.608,3.608,0,0,0-4.165-.676l-25.49,12.745a96.939,96.939,0,0,0-20.36-8.439l-9.011-27.03a3.608,3.608,0,0,0-3.422-2.467H135.919a3.609,3.609,0,0,0-3.423,2.467l-9.009,27.029a96.925,96.925,0,0,0-20.361,8.439L77.636,54.182a3.609,3.609,0,0,0-4.165.676L53.061,75.269a3.606,3.606,0,0,0-.676,4.165l12.745,25.49a96.886,96.886,0,0,0-8.439,20.36l-27.03,9.011a3.606,3.606,0,0,0-2.467,3.422v28.866a3.609,3.609,0,0,0,2.467,3.423l27.029,9.009a96.925,96.925,0,0,0,8.439,20.361l-12.745,25.49a3.609,3.609,0,0,0,.676,4.165l20.411,20.41a3.606,3.606,0,0,0,4.165.676l25.49-12.745a96.864,96.864,0,0,0,20.36,8.439l9.01,27.03a3.608,3.608,0,0,0,3.423,2.467h28.865a3.608,3.608,0,0,0,3.423-2.467l9.01-27.03a96.886,96.886,0,0,0,20.36-8.439l25.49,12.745a3.606,3.606,0,0,0,4.165-.676l20.411-20.41a3.61,3.61,0,0,0,.676-4.165l-12.745-25.49a96.925,96.925,0,0,0,8.439-20.361l27.029-9.009a3.608,3.608,0,0,0,2.467-3.423V137.717A3.6,3.6,0,0,0,271.043,134.295Zm-4.749,29.687-26.389,8.8a3.611,3.611,0,0,0-2.347,2.5,89.678,89.678,0,0,1-9.191,22.174,3.607,3.607,0,0,0-.108,3.428L240.7,225.766,223.969,242.5l-24.886-12.444a3.609,3.609,0,0,0-3.429.109,89.656,89.656,0,0,1-22.173,9.191,3.609,3.609,0,0,0-2.5,2.347l-8.8,26.389H138.52l-8.8-26.389a3.611,3.611,0,0,0-2.5-2.347,89.713,89.713,0,0,1-22.174-9.19,3.607,3.607,0,0,0-3.428-.109L76.736,242.5,60,225.767l12.444-24.886a3.607,3.607,0,0,0-.109-3.428,89.678,89.678,0,0,1-9.191-22.174,3.605,3.605,0,0,0-2.347-2.5l-26.389-8.8V140.318l26.389-8.8a3.609,3.609,0,0,0,2.347-2.5,89.713,89.713,0,0,1,9.19-22.174,3.607,3.607,0,0,0,.109-3.428L60,78.534,76.735,61.8l24.886,12.443a3.6,3.6,0,0,0,3.428-.108,89.678,89.678,0,0,1,22.174-9.191,3.605,3.605,0,0,0,2.5-2.347l8.8-26.39h23.664l8.8,26.389a3.609,3.609,0,0,0,2.5,2.347,89.678,89.678,0,0,1,22.174,9.191,3.607,3.607,0,0,0,3.428.108L223.968,61.8,240.7,78.533l-12.444,24.886a3.609,3.609,0,0,0,.109,3.429,89.694,89.694,0,0,1,9.191,22.173,3.605,3.605,0,0,0,2.347,2.5l26.389,8.8v23.664Z"/><path d="M150.352,98.028A54.183,54.183,0,0,0,96.23,152.15a53.623,53.623,0,0,0,10.793,32.4,3.609,3.609,0,1,0,5.775-4.329,46.455,46.455,0,0,1-9.352-28.071,46.906,46.906,0,1,1,46.906,46.906A46.461,46.461,0,0,1,122.28,189.7a3.608,3.608,0,0,0-4.328,5.775,53.623,53.623,0,0,0,32.4,10.793,54.122,54.122,0,0,0,0-108.244Z"/></svg>