<?xml version="1.0" encoding="UTF-8"?>
<!DOCTYPE svg PUBLIC "-//W3C//DTD SVG 1.1//EN" "http://www.w3.org/Graphics/SVG/1.1/DTD/svg11.dtd">
<!-- Creator: CorelDRAW 2020 (64-Bit) -->
<svg xmlns="http://www.w3.org/2000/svg" xml:space="preserve" width="165.054mm" height="163.765mm" version="1.1" style="shape-rendering:geometricPrecision; text-rendering:geometricPrecision; image-rendering:optimizeQuality; fill-rule:evenodd; clip-rule:evenodd"
viewBox="0 0 1908.62 1893.72"
 xmlns:xlink="http://www.w3.org/1999/xlink"
 xmlns:xodm="http://www.corel.com/coreldraw/odm/2003">
 <defs>
  <style type="text/css">
   <![CDATA[
    .str0 {stroke:#1A1A1A;stroke-width:0.88;stroke-miterlimit:22.9256}
    .fil1 {fill:#1A1A1A}
    .fil7 {fill:#1D73BA}
    .fil2 {fill:#2A6BA1}
    .fil5 {fill:#40484A}
    .fil0 {fill:#64B5F6}
    .fil3 {fill:#DC291B}
    .fil8 {fill:#F24142}
    .fil9 {fill:#FEFEFE}
    .fil6 {fill:#FFB74D}
    .fil4 {fill:#FFD1B5}
   ]]>
  </style>
 </defs>
 <g id="Capa_x0020_1">
  <metadata id="CorelCorpID_0Corel-Layer"/>
  <g id="_2833970169792">
   <path class="fil0" d="M826.2 1712.03c-16.58,-51.35 27.75,-38.74 116.93,-38.74 73.29,0 488.97,-6.03 501.57,5.46 9.52,8.68 8.3,23.05 1.07,31.39 -10.69,12.32 -93.9,7.09 -118.85,7.09 -86.29,0 -470.67,5.82 -500.71,-5.2zm191.74 -731.98c-38.34,-23.72 -85.99,-106.48 -105.46,-166.55 -25.03,-77.25 -54.88,-118.21 -44.82,-217.84 24.13,-238.98 293.38,-340.99 406.26,-188.28 25.32,34.24 14.39,25.93 35.86,31.27 122.19,30.37 114.3,215.55 89.33,286.02 -8.63,24.34 -18.09,28.21 -25.16,41.85 -5.42,10.45 -10.74,37.66 -15.31,51.81 -19.42,60.12 -67.83,137.02 -106.17,162.66l22.72 81.04c73.45,4.4 101.81,2.46 158.42,35.29 36.04,20.9 73.46,58.76 92.8,97.22 29.94,59.55 29.1,91.01 29.1,165.91 -0.01,229.51 22.77,197.64 -98.18,197.63 -112.99,-0.01 -714.77,3.94 -727.47,-2.64 -20.7,-14.24 -12.79,-58.94 -12.79,-86.93 0,-32.29 0,-64.59 0,-96.88 0,-68.09 -1.51,-113.64 24.37,-168.31 73.44,-155.13 235.72,-136.63 250.14,-140.69 11.75,-7.19 12.33,-26.21 16.33,-39.81 4.52,-15.34 8.8,-26.8 10.04,-42.77zm-179.63 -802.36c16.82,-5.5 292.66,-1.2 335.83,-1.2l253.18 -0c33.6,2.59 30.11,37.97 7.02,43.12 -5.28,1.18 -562.99,4.62 -591.87,0.67 -25.73,-3.53 -29.59,-34.27 -4.15,-42.58zm-216.71 1668.76l720.22 0c58.77,0 191.53,7.06 241.84,-1.79 82.97,-14.59 67.05,-111.72 67.05,-171.22l0.01 -1207.24c-0.07,-80.74 -0.01,-161.46 -0.01,-242.19 -0.01,-212.99 -13.84,-178.08 -301.44,-178.08l-726.41 0 -1.26 1800.53z"/>
   <path class="fil1 str0" d="M622.86 45.92l726.41 0c287.6,0 301.43,-34.91 301.44,178.08 0,80.74 -0.06,161.46 0.01,242.19l-0.01 1207.24c0,59.5 15.92,156.63 -67.05,171.22 -50.31,8.85 -183.07,1.79 -241.84,1.79l-720.22 0 1.26 -1800.53zm1285.32 589.07l0 43.59c0,38.98 -39.26,78.25 -78.25,78.25l-134.14 0 0 96.88 134.14 0c48.46,0 72.84,38.41 78.25,80.59l0 37.22c-3.3,25.88 -13.4,49.28 -29.09,61.76 -40.08,31.87 -117.7,21.64 -183.29,21.64l0 711.68c0,74.76 -62.33,126.69 -145.32,126.69l-1210.97 0c-42.89,0 -78.2,-11.89 -101.56,-32.58 -20.09,-17.8 -43.76,-53.9 -43.76,-90.38l0 -141.59 -156.49 0c-24.53,0 -35.02,-9.67 -37.26,-20.38l0 -9.43c1.98,-9.98 9.81,-18.63 18.63,-18.63l175.12 0 0 -391.24 -167.67 0c-35.85,0 -25.07,-29.32 -22.36,-40.99 29.32,-14.07 150.95,-7.45 190.03,-7.45l0 -391.24 -175.12 0c-11.96,0 -18.17,-10.33 -18.63,-21.07l0 -2.58c0.46,-10.73 6.67,-21.07 18.63,-21.07l175.12 0 0 -391.24 -175.12 0c-8.82,0 -16.66,-8.64 -18.63,-18.63l0 -9.43c2.24,-10.7 12.73,-20.38 37.26,-20.38l156.49 0 0 -141.59c0,-66.11 60.33,-122.96 126.69,-122.96l1248.23 0c67.72,0 126.69,58.96 126.69,126.69l0 134.14 134.14 0c39.97,0 78.25,38.17 78.25,78.25l0 40.99c0,103.5 -143.73,81.97 -212.38,81.97l0 93.15c65.15,0 149.48,-10.96 185.56,23.1 19.97,18.85 25.51,35.81 26.83,56.27zm-1553.73 946.11c17.76,-56.46 112.79,-45.88 113.15,21.54 0.37,69.75 -96.51,79.79 -113.17,22.59 27.41,-0.17 51.55,3.15 71.76,-5.92 14.9,-49.03 -31.63,-37.83 -71.74,-38.2zm0.29 -437.31c13.3,-55.66 114.14,-49.23 112.86,22.91 -1.18,66.18 -94.77,79.24 -113,20.94 26.89,-0.51 72.95,8.68 74.86,-21.3 2.11,-33 -50.72,-22.43 -74.72,-22.55zm1340.01 -245.65l116.56 0c34.63,0 52.21,10.28 52.21,45 0,37.83 1.71,64.95 -52.21,64.95l-116.67 0 0.11 -109.95zm-1340.44 -193.23c24.17,-58.86 113.3,-42.06 113.31,22.11 0.01,68.18 -94.47,80.04 -113.34,22.39 27.9,-0.09 75.57,9.17 75.26,-22.31 -0.31,-31.49 -47.73,-22.11 -75.23,-22.19zm1341.97 -103.51c118.15,0 167.44,-16.88 167.47,54.83 0.04,72.81 -48.19,55.81 -169.2,55.81l1.72 -110.64zm-1.41 -295.47l123.89 0c30.26,0 44.78,14.61 44.78,44.76 0,80.92 -24.85,65.03 -167.08,65.47l-1.83 -13.31 0.25 -96.92zm-1340.46 -37.41c16.56,-57.51 110.55,-46.16 113.15,18.81 2.78,69.51 -94.25,81.97 -113.1,25.28 40.31,-0.38 86.41,10.84 71.79,-38.28 -20.06,-8.92 -44.6,-5.73 -71.84,-5.81zm-47.43 0.13l-67.52 -0.13c-2.14,-41.94 -2.02,-96.04 -0.47,-137.81 1.56,-42.16 26.24,-72.41 60.02,-81.46 26.42,-7.08 239.17,-5.48 277.64,-2.76l1.12 1799.27c-36.93,2.89 -251.34,4.52 -277.84,-2.29 -32.73,-8.42 -58.39,-38.58 -60.78,-76.85 -2.49,-39.98 -1.77,-100.75 0.31,-141.08l67.61 -0.54c34.89,125.49 201.21,95.99 204.32,-18.58 2.93,-108.06 -136.32,-142.93 -190.03,-59.26 -24.95,38.87 11.61,34.25 -82.41,34.04l0 -393.45c87.88,-0.66 58.01,-7.56 81.44,31.59 51.32,85.77 190.07,52.35 191.01,-52.63 0.95,-105.92 -153.8,-161.15 -205.12,-22.81l-66.4 -0.14 -0.94 -394.28 68.69 -0.22c27.35,120.28 200.99,100.03 203.8,-18.45 2.88,-121.34 -172.04,-147.98 -203.67,-25.86l-68.8 -0.04 0 -392.06c89.85,-0.77 58.39,-6.41 81.39,30.9 52.67,85.44 190.72,51.38 191.1,-52.68 0.44,-120.59 -170.25,-146.77 -204.47,-22.42z"/>
   <path class="fil2" d="M306.97 268.65c34.22,-124.35 204.91,-98.16 204.47,22.42 -0.38,104.06 -138.43,138.12 -191.1,52.68 -23,-37.32 8.46,-31.67 -81.39,-30.9l0 392.06 68.8 0.04c31.63,-122.13 206.55,-95.48 203.67,25.86 -2.81,118.48 -176.45,138.73 -203.8,18.45l-68.69 0.22 0.94 394.28 66.4 0.14c51.32,-138.34 206.06,-83.11 205.12,22.81 -0.94,104.98 -139.69,138.39 -191.01,52.63 -23.43,-39.15 6.45,-32.24 -81.44,-31.59l-0 393.45c94.03,0.21 57.46,4.83 82.41,-34.04 53.71,-83.67 192.97,-48.8 190.03,59.26 -3.11,114.57 -169.43,144.07 -204.32,18.58l-67.61 0.54c-2.08,40.33 -2.8,101.1 -0.31,141.08 2.39,38.27 28.05,68.43 60.78,76.85 26.5,6.82 240.91,5.18 277.84,2.29l-1.12 -1799.27c-38.47,-2.73 -251.21,-4.32 -277.64,2.76 -33.78,9.05 -58.46,39.3 -60.02,81.46 -1.55,41.77 -1.67,95.87 0.47,137.81l67.52 0.13z"/>
   <path class="fil3" d="M837.12 1354.98c43.67,-15.74 39.12,16.56 39.02,53.9 -0.09,34.99 -0.01,69.99 -0.01,105.26l520.92 -1.04c0,-31.01 0.01,-62.02 0,-93.04 -0.01,-26.25 -8.16,-71 22.71,-69.74 28.57,1.16 20.8,43.32 20.79,69.74 -0.01,31.36 0,62.71 0,94.28l71.5 -1.85c0,-85.8 11.78,-226.67 -21.88,-293.09 -35.72,-70.5 -99.02,-112.32 -204.27,-112.32 -15.52,3.5 -2.9,44.32 -50.76,87.11 -80.42,71.91 -216.91,46.52 -243.08,-87.11 -272.87,0 -231.22,238.68 -231.23,406.9l71.2 0.16c0,-40.95 -5.91,-127.82 5.06,-159.15z"/>
   <path class="fil1" d="M837.12 1354.98c-10.97,31.34 -5.06,118.2 -5.06,159.15l-71.2 -0.16c0,-168.21 -41.65,-406.9 231.23,-406.9 26.17,133.64 162.67,159.02 243.08,87.11 47.86,-42.79 35.24,-83.61 50.76,-87.11 105.24,0 168.54,41.82 204.27,112.32 33.66,66.42 21.88,207.29 21.88,293.09l-71.5 1.85c-0,-31.56 -0.01,-62.92 -0,-94.28 0.01,-26.42 7.77,-68.58 -20.79,-69.74 -30.88,-1.26 -22.73,43.49 -22.71,69.74 0.01,31.01 0,62.03 0,93.04l-520.92 1.04c0,-35.27 -0.09,-70.27 0.01,-105.26 0.1,-37.34 4.64,-69.64 -39.02,-53.9zm377.96 -344.74c10.07,41.71 33.2,78.38 13.33,121.46 -49.01,106.27 -222.39,50.76 -187.48,-64.69 3.52,-11.63 11.97,-46.64 17.71,-55 71.63,28.9 86.92,22.47 156.44,-1.76zm38.25 -438.89c42.8,22.24 64.74,67.61 73.04,126.49 10.09,71.58 -5.14,102.4 -31.04,157.73 -35.58,76.01 -132.48,181.64 -236.32,102.15 -33.98,-26.01 -66.05,-64.8 -87.65,-113.56 -22.04,-49.76 -36.65,-107.21 7.07,-148.95 43.34,-41.38 101.9,-19.19 166.35,-34.91 91.49,-22.32 90.44,-72.48 108.55,-88.95zm-332.56 128.33c-40.68,-62.04 9.44,-307.69 195.04,-321.14 118.5,-8.59 128.66,95.62 167.02,101.3 45.43,6.73 61.21,19.68 75.14,59.68 11.02,31.66 13.33,87.53 8.47,123.2 -18.15,-38.57 -18.44,-66.76 -47.02,-95.95 -17.26,-17.62 -58.82,-55.11 -97.9,-42.43 -27.17,14.81 11.74,93.26 -140.51,99.85 -46.18,2 -100.98,1.58 -136.31,40.99 -9.14,10.2 -13.73,23.14 -23.93,34.49zm97.17 280.36c-1.24,15.97 -5.52,27.43 -10.04,42.77 -4.01,13.59 -4.58,32.61 -16.33,39.81 -14.42,4.07 -176.7,-14.44 -250.14,140.69 -25.88,54.67 -24.37,100.22 -24.37,168.31 0,32.29 0,64.58 0,96.88 0,27.99 -7.9,72.69 12.79,86.93 12.7,6.58 614.48,2.64 727.47,2.64 120.94,0.01 98.16,31.88 98.18,-197.63 0,-74.9 0.85,-106.36 -29.1,-165.91 -19.33,-38.46 -56.76,-76.32 -92.8,-97.22 -56.61,-32.83 -84.97,-30.9 -158.42,-35.29l-22.72 -81.04c38.34,-25.64 86.76,-102.54 106.17,-162.66 4.57,-14.15 9.89,-41.36 15.31,-51.81 7.07,-13.64 16.53,-17.51 25.16,-41.85 24.98,-70.46 32.87,-255.65 -89.33,-286.02 -21.47,-5.34 -10.54,2.98 -35.86,-31.27 -112.89,-152.71 -382.13,-50.7 -406.26,188.28 -10.06,99.63 19.79,140.59 44.82,217.84 19.47,60.07 67.12,142.83 105.46,166.55z"/>
   <path class="fil4" d="M1253.34 571.36c-18.1,16.46 -17.06,66.63 -108.55,88.95 -64.45,15.72 -123.01,-6.46 -166.35,34.91 -43.72,41.74 -29.11,99.19 -7.07,148.95 21.6,48.76 53.66,87.54 87.65,113.56 103.84,79.49 200.74,-26.15 236.32,-102.15 25.9,-55.32 41.13,-86.15 31.04,-157.73 -8.3,-58.88 -30.24,-104.25 -73.04,-126.49z"/>
   <path class="fil5" d="M920.77 699.69c10.19,-11.36 14.79,-24.3 23.93,-34.49 35.33,-39.41 90.13,-38.99 136.31,-40.99 152.25,-6.6 113.34,-85.04 140.51,-99.85 39.08,-12.68 80.64,24.81 97.9,42.43 28.59,29.19 28.87,57.38 47.02,95.95 4.85,-35.67 2.55,-91.54 -8.47,-123.2 -13.93,-40 -29.71,-52.95 -75.14,-59.68 -38.35,-5.68 -48.51,-109.89 -167.02,-101.3 -185.6,13.45 -235.71,259.1 -195.04,321.14z"/>
   <path class="fil1" d="M838.32 177.69c-25.43,8.31 -21.58,39.05 4.15,42.58 28.88,3.96 586.59,0.51 591.87,-0.67 23.1,-5.15 26.58,-40.52 -7.02,-43.12l-253.18 0c-43.18,0 -319.02,-4.29 -335.83,1.2z"/>
   <path class="fil4" d="M1215.08 1010.25c-69.52,24.23 -84.81,30.66 -156.44,1.76 -5.75,8.37 -14.19,43.37 -17.71,55 -34.91,115.46 138.47,170.96 187.48,64.69 19.87,-43.09 -3.26,-79.76 -13.33,-121.46z"/>
   <path class="fil1" d="M1326.92 1717.23c24.95,0 108.16,5.22 118.85,-7.09 7.23,-8.34 8.45,-22.71 -1.07,-31.39 -12.6,-11.49 -428.28,-5.46 -501.57,-5.46 -89.17,0 -133.51,-12.61 -116.93,38.74 30.04,11.02 414.42,5.2 500.71,5.2z"/>
   <path class="fil6" d="M1694.55 712.04c121,0 169.24,17 169.2,-55.81 -0.04,-71.71 -49.32,-54.83 -167.47,-54.83l-1.72 110.64z"/>
   <path class="fil7" d="M1694.62 402.85l1.83 13.31c142.24,-0.44 167.08,15.45 167.08,-65.47 0,-30.15 -14.52,-44.76 -44.78,-44.76l-123.89 0 -0.25 96.92z"/>
   <path class="fil8" d="M1694.64 1008.09l116.67 0c53.93,0 52.21,-27.12 52.21,-64.95 0,-34.72 -17.58,-45 -52.21,-45l-116.56 0 -0.11 109.95z"/>
   <path class="fil9" d="M354.74 1143.79c24,0.12 76.82,-10.45 74.72,22.55 -1.91,29.98 -47.98,20.79 -74.86,21.3 18.23,58.31 111.82,45.24 113,-20.94 1.29,-72.14 -99.55,-78.58 -112.86,-22.91z"/>
   <path class="fil9" d="M354.45 1581.1c40.11,0.38 86.64,-10.82 71.74,38.2 -20.21,9.07 -44.35,5.75 -71.76,5.92 16.66,57.2 113.54,47.16 113.17,-22.59 -0.36,-67.42 -95.4,-78 -113.15,-21.54z"/>
   <path class="fil9" d="M354.4 268.52c27.24,0.08 51.78,-3.11 71.84,5.81 14.62,49.12 -31.48,37.91 -71.79,38.28 18.85,56.69 115.88,44.23 113.1,-25.28 -2.6,-64.97 -96.59,-76.32 -113.15,-18.81z"/>
   <path class="fil9" d="M354.3 704.91c27.5,0.08 74.92,-9.3 75.23,22.19 0.31,31.48 -47.37,22.23 -75.26,22.31 18.87,57.64 113.35,45.79 113.34,-22.39 -0.01,-64.17 -89.14,-80.97 -113.31,-22.11z"/>
  </g>
 </g>
</svg>
