<?xml version="1.0" encoding="UTF-8" standalone="no"?>
<svg
   xmlns:dc="http://purl.org/dc/elements/1.1/"
   xmlns:cc="http://creativecommons.org/ns#"
   xmlns:rdf="http://www.w3.org/1999/02/22-rdf-syntax-ns#"
   xmlns:svg="http://www.w3.org/2000/svg"
   xmlns="http://www.w3.org/2000/svg"
   xmlns:sodipodi="http://sodipodi.sourceforge.net/DTD/sodipodi-0.dtd"
   xmlns:inkscape="http://www.inkscape.org/namespaces/inkscape"
   height="512pt"
   viewBox="0 -51 512.00003 512"
   width="512pt"
   version="1.1"
   id="svg40"
   sodipodi:docname="identificacion.svg"
   inkscape:version="1.0.1 (3bc2e813f5, 2020-09-07)">
  <metadata
     id="metadata46">
    <rdf:RDF>
      <cc:Work
         rdf:about="">
        <dc:format>image/svg+xml</dc:format>
        <dc:type
           rdf:resource="http://purl.org/dc/dcmitype/StillImage" />
      </cc:Work>
    </rdf:RDF>
  </metadata>
  <defs
     id="defs44" />
  <sodipodi:namedview
     pagecolor="#ffffff"
     bordercolor="#666666"
     borderopacity="1"
     objecttolerance="10"
     gridtolerance="10"
     guidetolerance="10"
     inkscape:pageopacity="0"
     inkscape:pageshadow="2"
     inkscape:window-width="1920"
     inkscape:window-height="1051"
     id="namedview42"
     showgrid="false"
     inkscape:zoom="1.2524414"
     inkscape:cx="341.33333"
     inkscape:cy="341.33333"
     inkscape:window-x="0"
     inkscape:window-y="0"
     inkscape:window-maximized="1"
     inkscape:current-layer="svg40" />
  <path
     d="m292.058594 85.625h203.84375c2.761718 0 4.996094 2.238281 4.996094 4.996094v305.027344c0 2.757812-2.234376 4.996093-4.996094 4.996093h-482.019532c-2.761718 0-4.996093-2.238281-4.996093-4.996093v-305.027344c0-2.757813 2.234375-4.996094 4.996093-4.996094h202.230469"
     fill="#f5f0eb"
     id="path2" />
  <path
     d="m115.46875 220.488281c-14.4375 0-26.140625-11.703125-26.140625-26.140625v-19.703125c0-14.433593 11.703125-26.136719 26.140625-26.136719s26.140625 11.703126 26.140625 26.136719v19.703125c0 14.4375-11.703125 26.140625-26.140625 26.140625zm0 0"
     fill="#f2d1a5"
     id="path4" />
  <path
     d="m50.128906 303.085938v-28.207032c0-13.601562 3.917969-26.914062 11.285156-38.34375 6.460938-10.023437 17.566407-16.078125 29.488282-16.078125h48.480468c11.921876 0 23.03125 6.054688 29.488282 16.078125 7.367187 11.429688 11.285156 24.742188 11.285156 38.34375v28.207032zm0 0"
     fill="#00ee8a"
     id="path6" />
  <path
     d="m116.542969 148.507812h-2.136719c-13.847656 0-25.074219 11.222657-25.074219 25.070313v5.910156c7.054688 1.921875 15.445313 3.4375 20.363281 1.625 9.652344-3.558593 17.734376-7.53125 25.496094-5.707031 1.578125.371094 3.84375-.519531 6.410156-2.222656-.207031-13.664063-11.34375-24.675782-25.058593-24.675782zm0 0"
     fill="#919196"
     id="path8" />
  <path
     d="m8.886719 303.011719v92.566406c0 2.757813 2.234375 4.996094 4.996093 4.996094h482.019532c2.757812 0 4.996094-2.238281 4.996094-4.996094v-92.566406zm0 0"
     fill="#919196"
     id="path10" />
  <path
     d="m333.613281 352.460938c0 10.285156-8.335937 18.621093-18.617187 18.621093-10.285156 0-18.621094-8.335937-18.621094-18.621093 0-10.28125 8.335938-18.617188 18.621094-18.617188 10.28125 0 18.617187 8.335938 18.617187 18.617188zm0 0"
     fill="#00ee8a"
     id="path12" />
  <path
     d="m401.441406 352.460938c0 10.285156-8.335937 18.621093-18.621094 18.621093-10.28125 0-18.617187-8.335937-18.617187-18.621093 0-10.28125 8.335937-18.617188 18.617187-18.617188 10.285157 0 18.621094 8.335938 18.621094 18.617188zm0 0"
     fill="#ff415b"
     id="path14" />
  <path
     d="m469.066406 352.460938c0 10.285156-8.335937 18.621093-18.621094 18.621093-10.28125 0-18.617187-8.335937-18.617187-18.621093 0-10.28125 8.335937-18.617188 18.617187-18.617188 10.285157 0 18.621094 8.335938 18.621094 18.617188zm0 0"
     fill="#ff9f22"
     id="path16" />
  <path
     d="M 497.01172,75.632812 H 303.15625 207.23047 14.988281 C 6.722656,75.632812 0,82.355469 0,90.621094 V 395.64844 c 0,8.26172 6.722656,14.98828 14.988281,14.98828 H 497.01172 c 8.26562,0 14.98828,-6.72656 14.98828,-14.98828 V 90.621094 c 0,-8.265625 -6.72266,-14.988282 -14.98828,-14.988282 z m -4.9961,314.949218 H 19.984375 V 313.00781 H 50.09375 c 0.375,0.043 0.757812,0.0664 1.144531,0.0664 H 181.26562 c 0.38672,0 0.76954,-0.0234 1.14454,-0.0664 H 492.01562 Z M 100.42578,194.34766 V 191.625 c 1.69141,0.17969 3.30078,0.28125 4.8125,0.28125 3.46484,0 6.46094,-0.47656 9.01953,-1.41797 1.51563,-0.55859 2.9961,-1.125 4.4375,-1.68359 5.58594,-2.14844 10.48828,-4.02735 14.02735,-3.84375 v 9.38672 c 0,8.6875 -6.90235,15.77734 -15.51172,16.11328 h -1.26953 c -8.60938,-0.33594 -15.51563,-7.42578 -15.51563,-16.11328 z m 29.13281,-29.26172 c -6.22656,0.53906 -12.19922,2.82422 -18.03515,5.07031 -1.35938,0.51953 -2.75,1.05469 -4.17188,1.57813 -0.0234,0.008 -1.72656,0.55078 -6.61719,-0.20313 1.45704,-7.41797 8.00391,-13.03125 15.83985,-13.03125 5.32422,0 10.04297,2.60156 12.98437,6.58594 z m -37.546871,65.36328 h 14.570311 v 22.63672 c 0,5.51562 4.47656,9.99218 9.99219,9.99218 5.51953,0 9.99609,-4.47656 9.99609,-9.99218 v -22.63672 h 13.92188 c 8.5625,0 16.44922,4.29687 21.08984,11.49609 6.33984,9.83985 9.69141,21.22656 9.69141,32.9336 v 18.14062 H 61.230469 v -18.14062 c 0,-11.70704 3.351562,-23.09375 9.691406,-32.9336 4.640625,-7.19922 12.523437,-11.49609 21.089844,-11.49609 z M 492.01562,293.01953 H 191.25781 v -18.14062 c 0,-15.55469 -4.45312,-30.6836 -12.8789,-43.75782 -6.85938,-10.64453 -17.66797,-17.74609 -29.85157,-19.93359 2.66407,-5.03125 4.17969,-10.76172 4.17969,-16.83984 v -19.70313 c 0,-0.3789 -0.0156,-0.75781 -0.0273,-1.13281 0.004,-0.16016 0.0234,-0.32031 0.0234,-0.48047 -0.29687,-19.03516 -16.01953,-34.51953 -35.05468,-34.51953 h -2.13672 c -19.335939,0 -35.062501,15.73047 -35.062501,35.06641 v 0.875 c 0,0.0664 -0.0078,0.1289 -0.0078,0.19531 v 19.69922 c 0,6.04297 1.5,11.73828 4.128906,16.74609 -12.425781,2.05859 -23.476562,9.21094 -30.449218,20.02734 -8.425782,13.07422 -12.878906,28.20703 -12.878906,43.75782 v 18.14453 H 19.984375 V 95.617188 h 187.246095 95.92578 188.85937 z"
     id="path20"
     sodipodi:nodetypes="sccssssssssccccsscccscscccsccsccccscscssscscsccscsccsccssccssssssccsccccccc" />
  <path
     d="m316.101562 381.074219c15.777344 0 28.613282-12.835938 28.613282-28.613281 0-15.777344-12.835938-28.609376-28.613282-28.609376-15.777343 0-28.613281 12.832032-28.613281 28.609376 0 15.777343 12.835938 28.613281 28.613281 28.613281zm0-37.238281c4.757813 0 8.628907 3.867187 8.628907 8.625 0 4.757812-3.871094 8.628906-8.628907 8.628906-4.757812 0-8.628906-3.871094-8.628906-8.628906 0-4.757813 3.871094-8.625 8.628906-8.625zm0 0"
     id="path22" />
  <path
     d="m383.929688 381.074219c15.777343 0 28.609374-12.835938 28.609374-28.613281 0-15.777344-12.832031-28.609376-28.609374-28.609376-15.777344 0-28.613282 12.832032-28.613282 28.609376 0 15.777343 12.835938 28.613281 28.613282 28.613281zm0-37.238281c4.757812 0 8.625 3.867187 8.625 8.625 0 4.757812-3.867188 8.628906-8.625 8.628906-4.757813 0-8.628907-3.871094-8.628907-8.628906 0-4.757813 3.871094-8.625 8.628907-8.625zm0 0"
     id="path24" />
  <path
     d="m451.554688 381.074219c15.777343 0 28.609374-12.835938 28.609374-28.613281 0-15.777344-12.832031-28.609376-28.609374-28.609376-15.777344 0-28.613282 12.832032-28.613282 28.609376 0 15.777343 12.835938 28.613281 28.613282 28.613281zm0-37.238281c4.757812 0 8.625 3.867187 8.625 8.625 0 4.757812-3.871094 8.628906-8.625 8.628906-4.757813 0-8.628907-3.871094-8.628907-8.628906 0-4.757813 3.871094-8.625 8.628907-8.625zm0 0"
     id="path26" />
  <path
     d="m242.414062 158.921875c0 5.519531 4.472657 9.992187 9.992188 9.992187h165.117188c5.519531 0 9.992187-4.472656 9.992187-9.992187 0-5.515625-4.472656-9.992187-9.992187-9.992187h-165.117188c-5.519531 0-9.992188 4.476562-9.992188 9.992187zm0 0"
     id="path28" />
  <path
     d="m457.742188 187.898438h-205.335938c-5.519531 0-9.992188 4.476562-9.992188 9.992187 0 5.519531 4.472657 9.992187 9.992188 9.992187h205.335938c5.515624 0 9.992187-4.472656 9.992187-9.992187 0-5.515625-4.476563-9.992187-9.992187-9.992187zm0 0"
     id="path30" />
  <path
     d="m333.339844 223.871094h-82.433594c-5.515625 0-9.992188 4.472656-9.992188 9.992187 0 5.515625 4.476563 9.992188 9.992188 9.992188h82.433594c5.519531 0 9.996094-4.476563 9.996094-9.992188 0-5.519531-4.476563-9.992187-9.996094-9.992187zm0 0"
     id="path32" />
  <path
     d="m458.242188 223.871094h-81.4375c-5.519532 0-9.992188 4.472656-9.992188 9.992187 0 5.515625 4.472656 9.992188 9.992188 9.992188h81.4375c5.515624 0 9.992187-4.476563 9.992187-9.992188 0-5.519531-4.476563-9.992187-9.992187-9.992187zm0 0"
     id="path34" />
  <path
     d="m450.832031 167.59375.292969.226562c1.804688 1.371094 3.929688 2.035157 6.035156 2.035157 3.019532 0 6-1.363281 7.964844-3.949219 3.339844-4.394531 2.484375-10.664062-1.914062-14.003906l-.292969-.222656c-4.394531-3.335938-10.660157-2.480469-14 1.914062-3.339844 4.394531-2.484375 10.664062 1.914062 14zm0 0"
     id="path36" />
</svg>
