<?xml version="1.0" encoding="UTF-8"?>
<!DOCTYPE svg PUBLIC "-//W3C//DTD SVG 1.1//EN" "http://www.w3.org/Graphics/SVG/1.1/DTD/svg11.dtd">
<!-- Creator: CorelDRAW 2020 (64-Bit) -->
<svg xmlns="http://www.w3.org/2000/svg" xml:space="preserve" width="30.684mm" height="31.9513mm" version="1.1" style="shape-rendering:geometricPrecision; text-rendering:geometricPrecision; image-rendering:optimizeQuality; fill-rule:evenodd; clip-rule:evenodd"
viewBox="0 0 22.94 23.88"
 xmlns:xlink="http://www.w3.org/1999/xlink"
 xmlns:xodm="http://www.corel.com/coreldraw/odm/2003">
 <defs>
  <style type="text/css">
   <![CDATA[
    .fil1 {fill:#323232}
    .fil3 {fill:#C45B31}
    .fil0 {fill:coral}
    .fil2 {fill:white}
   ]]>
  </style>
 </defs>
 <g id="Capa_x0020_1">
  <metadata id="CorelCorpID_0Corel-Layer"/>
  <path class="fil0" d="M12.85 8.84c0.39,-0 0.64,0.02 0.72,0.38 0.05,0.23 0.01,6.97 0.02,7.48 0.74,0 0.96,-0.04 0.96,0.75 -0,0.43 0.11,1.3 -0.17,1.54 -0.23,0.2 -4.19,0.1 -5.03,0.1 -0.64,0 -1,0.06 -1,-0.6 0,-1.76 -0.16,-1.79 0.96,-1.79l-0.01 -5.44c-0.98,0 -0.96,-0.14 -0.96,-0.95 0,-1.92 -0.37,-1.44 4.5,-1.47zm-1.81 -5.49c1.43,-0.23 2.53,0.75 2.76,1.91 0.29,1.45 -0.81,2.57 -1.92,2.78 -1.4,0.26 -2.54,-0.75 -2.78,-1.91 -0.29,-1.43 0.8,-2.6 1.94,-2.78zm-2.25 -2.1l-0.14 0.11c-0.18,0.1 -0.63,0.28 -1.15,0.58 -0.52,0.3 -1.3,0.84 -1.73,1.25l-0.27 0.25c-0.05,0.05 -0.08,0.08 -0.12,0.12l-0.07 0.07c-0.51,0.44 -1.47,1.69 -1.8,2.3 -0.56,1 -0.86,1.7 -1.17,2.84 -0.81,3.02 -0.19,6.25 1.59,8.94 0.15,0.22 0.26,0.35 0.42,0.56 0.1,0.13 0.13,0.16 0.23,0.28 0.1,0.12 0.12,0.16 0.24,0.28 0.37,0.36 0.25,0.32 0.07,1.51 -0.08,0.53 -0.24,1.24 -0.25,1.65 0.32,-0.1 0.84,-0.42 1.12,-0.56 0.24,-0.12 0.83,-0.52 1.15,-0.4 1.08,0.37 1.07,0.55 2.57,0.84 5.39,1.04 10.86,-2.33 12.22,-7.81 0.93,-3.76 -0.24,-7.49 -2.87,-10.11 -0.99,-0.99 -2.49,-2.04 -4.26,-2.54 -1.79,-0.51 -3.95,-0.68 -5.77,-0.12z"/>
  <path class="fil1" d="M8.79 1.25c1.82,-0.56 3.98,-0.39 5.77,0.12 1.76,0.5 3.27,1.56 4.26,2.54 2.63,2.63 3.81,6.36 2.87,10.11 -1.36,5.48 -6.82,8.85 -12.22,7.81 -1.51,-0.29 -1.49,-0.47 -2.57,-0.84 -0.32,-0.11 -0.91,0.28 -1.15,0.4 -0.28,0.14 -0.8,0.46 -1.12,0.56 -0.15,0.12 -0.95,0.52 -1.21,0.65 0.05,-0.7 0.56,-3.24 0.52,-3.58 -0.03,-0.23 -0.62,-0.79 -0.89,-1.16 -1.63,-2.2 -2.52,-4.88 -2.04,-8.02 0.37,-2.44 1.45,-4.12 2.66,-5.54l1.06 -0.99c0.37,-0.29 0.75,-0.59 1.2,-0.85 0.73,-0.44 2,-1.06 2.86,-1.21zm-0.14 -0.94c-0.14,0.11 -0.41,0.16 -0.61,0.19 -0.22,0.09 -0.53,0.19 -0.76,0.28 -0.26,0.1 -0.47,0.21 -0.73,0.31l-0.71 0.35 -0.01 -0.01c-0.1,0.14 -0.52,0.38 -0.68,0.43 -0.09,0.12 -0.26,0.2 -0.41,0.3l-0.18 0.14c-0.17,0.15 -0.38,0.31 -0.57,0.46 -0.59,0.47 -1.33,1.37 -1.46,1.47 -0.05,0.13 -0,0.13 -0.17,0.18 -0.03,0.13 -0.08,0.16 -0.17,0.28 -0.02,0.03 -0.08,0.12 -0.1,0.13 -0.05,0.06 -0.03,0.05 -0.08,0.07 -0.07,0.16 -0.19,0.42 -0.35,0.5 -0.02,0.16 -0,0.12 -0.13,0.25 -0.04,0.15 -0.27,0.57 -0.35,0.66l-0.2 0.46 -0.12 0.24 -0.25 0.69c-0.06,0.22 -0.15,0.48 -0.22,0.71 -0.06,0.21 -0.09,0.53 -0.21,0.69 0.03,0.25 -0.06,0.44 -0.08,0.7 -0.01,0.1 -0.02,0.19 -0.03,0.29 -0.01,0.05 -0.01,0.07 -0.03,0.12 -0.03,0.12 -0.01,0.06 -0.05,0.11 0.01,0.04 0,2.32 0,2.33 0.07,0.11 0.01,-0.02 0.06,0.14 0.01,0.02 0.02,0.1 0.02,0.13 0.01,0.08 0.02,0.16 0.03,0.24l0.17 0.91c0.06,0.16 0.13,0.48 0.18,0.69 0.06,0.22 0.14,0.42 0.21,0.63 0.09,0.25 0.21,0.49 0.3,0.74l0.03 0.05 0.26 0.62c0.14,0.12 0.29,0.4 0.36,0.58l0.08 0.15c0.13,0.13 0.27,0.31 0.34,0.5 0.11,0.14 0.3,0.32 0.33,0.5 0.21,0.08 0.15,0.11 0.27,0.29 0.08,0.06 0.26,0.25 0.32,0.35 0.09,0.16 0.03,0.33 -0.01,0.51 -0.01,0.18 -0.01,0.3 -0.1,0.42 0.05,0.34 -0.1,0.76 -0.13,1.12 -0.01,0.08 -0.02,0.16 -0.04,0.24l-0.07 0.18c0.03,0.25 -0.04,0.5 -0.08,0.75 -0.02,0.12 -0.03,0.24 -0.05,0.36 -0.01,0.06 -0.02,0.14 -0.03,0.2l-0.07 0.18 0.01 0.19c0,0.2 -0.03,0.3 0.16,0.45 0.01,0.01 0.05,0.03 0.06,0.04l0.1 0.07 0.25 0c0.01,-0.01 0.03,-0.03 0.04,-0.02l0.75 -0.39c0.19,-0.1 0.46,-0.28 0.67,-0.3 0.08,-0.1 -0.01,-0.05 0.17,-0.11l0.56 -0.29c0.15,-0.17 0.49,-0.3 0.7,-0.36l0.11 -0.03c0.09,-0.12 0.14,-0.11 0.28,-0.19 0.12,-0.06 0.18,-0.11 0.3,-0.17 0.25,-0.15 0.49,0.04 0.75,0.15 0.09,0.03 0.16,0.05 0.25,0.08 0.15,0.05 0.12,0.03 0.21,0.13l0.2 0.04c0.18,0.03 0.23,0.05 0.4,0.1 0.05,0.01 0.13,0.03 0.19,0.05 0.18,0.05 0.1,0 0.19,0.1 0.22,-0.02 0.36,0.04 0.57,0.09 0.12,0.01 0.22,0.03 0.35,0.05 0.18,0.03 0.23,0.01 0.35,0.09 0.32,-0.04 0.87,0.05 1.25,0.06 0.33,0.01 0.92,-0.07 1.22,-0.01 0.01,-0.01 0.02,-0.03 0.03,-0.02 0.01,0.01 0.02,-0.01 0.03,-0.02 0.04,-0.01 0.09,-0.02 0.13,-0.02 0.29,-0.01 0.57,-0.11 0.84,-0.08 0.1,-0.07 0.03,-0.03 0.18,-0.07 0.05,-0.01 0.14,-0.03 0.19,-0.04 0.13,-0.03 0.25,-0.06 0.37,-0.09l0.74 -0.21 0.05 -0.03 0.6 -0.21c0.15,-0.08 0.53,-0.25 0.71,-0.32 0.14,-0.06 0.25,-0.13 0.41,-0.2l0.18 -0.09c0.12,-0.07 0.25,-0.15 0.38,-0.23 0.16,-0.1 0.22,-0.16 0.38,-0.23 0.1,-0.14 0.04,-0.07 0.23,-0.14l0.5 -0.39 0.4 -0.31c0.11,-0.14 0.2,-0.21 0.32,-0.27 0.09,-0.09 0.1,-0.11 0.19,-0.23 0.09,-0.11 0.08,-0.11 0.2,-0.17 0.08,-0.13 0.13,-0.17 0.27,-0.23 0.09,-0.16 0.23,-0.4 0.43,-0.48 0.03,-0.08 -0.01,-0.02 0.06,-0.12 0.03,-0.05 0.05,-0.07 0.08,-0.1 0.07,-0.09 0.09,-0.12 0.15,-0.18 0.03,-0.06 0.01,-0.02 0.06,-0.08 0.01,-0.01 0.03,-0.04 0.04,-0.05 0.09,-0.1 0.02,-0.05 0.13,-0.11 0.03,-0.15 -0,-0.07 0.11,-0.22l0.76 -1.2 0.26 -0.57 0.07 -0.13c0.06,-0.19 0.13,-0.52 0.29,-0.64 -0,-0.17 0.15,-0.6 0.22,-0.81 0.02,-0.07 0.03,-0.13 0.06,-0.22 0.01,-0.03 0.02,-0.09 0.03,-0.11 0.06,-0.13 0.02,-0.04 0.06,-0.09l0.04 -0.33c0.05,-0.18 0.05,-0.43 0.15,-0.56 -0.05,-0.34 0.07,-0.71 0.08,-1.07 0.01,-0.06 0.01,-0.12 0.02,-0.18 0.03,-0.16 0,-0.04 0.04,-0.1 -0.05,-0.19 -0.05,-0.88 0,-1.07 -0.04,-0.06 -0,0.05 -0.04,-0.1 -0.01,-0.04 -0.01,-0.09 -0.01,-0.14 -0.01,-0.25 -0.07,-0.51 -0.04,-0.75 -0.08,-0.11 -0.06,-0.17 -0.09,-0.35 -0.02,-0.12 -0.04,-0.24 -0.06,-0.35l-0.11 -0.56 -0.07 -0.23 -0.23 -0.75 -0.23 -0.65 -0.13 -0.34c-0.06,-0.06 -0.04,-0.01 -0.11,-0.13 -0.06,-0.1 -0.03,-0.05 -0.06,-0.17 -0.07,-0.1 -0.35,-0.64 -0.41,-0.77l-0.11 -0.17c-0.14,-0.17 -0.23,-0.36 -0.38,-0.56 -0.04,-0.04 -0.05,-0.05 -0.11,-0.12 -0.03,-0.04 -0.04,-0.06 -0.08,-0.11 -0.09,-0.13 -0.11,-0.14 -0.17,-0.25 -0.15,-0.13 -0.09,-0.05 -0.12,-0.2 -0.14,-0.06 -0.32,-0.31 -0.49,-0.49 -0.13,-0.15 -0.28,-0.32 -0.46,-0.48 -0.16,-0.14 -0.32,-0.32 -0.48,-0.45 -0.12,-0.09 -0.43,-0.32 -0.49,-0.45 -0.12,-0.03 -0.01,0.02 -0.11,-0.03 -0,-0 -0.07,-0.05 -0.08,-0.06 -0.05,-0.04 -0.1,-0.07 -0.16,-0.11 -0.13,-0.08 -0.27,-0.19 -0.37,-0.28 -0.24,-0.11 -0.51,-0.3 -0.74,-0.43 -0.24,-0.13 -0.54,-0.24 -0.77,-0.4 -0.21,-0.06 -0.45,-0.18 -0.67,-0.26 -0.1,-0.04 -0.22,-0.09 -0.33,-0.13 -0.15,-0.05 -0.23,-0.05 -0.33,-0.15 -0.18,0.01 -0.56,-0.11 -0.76,-0.17 -0.32,-0.06 -0.61,-0.13 -0.94,-0.18 -0.16,-0.02 -0.33,-0.05 -0.48,-0.07 -0.09,-0.01 -0.17,-0.02 -0.26,-0.02l-0.26 -0.05 -1.49 0 -0.3 0.05c-0.51,0.03 -1.64,0.27 -1.77,0.26z"/>
  <path class="fil1" d="M9.25 9.74l3.43 0 -0 6.58c0,1.08 -0.19,1.26 0.96,1.26l-0 0.61 -4.39 -0 0 -0.6c1.17,0 0.96,-0.21 0.96,-1.31 0,-0.62 0.05,-5.43 -0.04,-5.67 -0.13,-0.33 -0.54,-0.27 -0.9,-0.27l-0.02 -0.59zm0.05 1.51l0.01 5.44c-1.12,0 -0.96,0.03 -0.96,1.79 -0,0.67 0.37,0.61 1,0.6 0.84,-0 4.8,0.09 5.03,-0.1 0.28,-0.24 0.17,-1.1 0.17,-1.54 0,-0.79 -0.22,-0.75 -0.96,-0.75 -0.01,-0.51 0.03,-7.25 -0.02,-7.48 -0.08,-0.36 -0.33,-0.38 -0.72,-0.38 -4.87,0.02 -4.5,-0.46 -4.5,1.47 -0,0.81 -0.02,0.95 0.96,0.95z"/>
  <path class="fil2" d="M10.21 16.28c0,1.09 0.21,1.31 -0.96,1.31l-0 0.6 4.39 0 0 -0.61c-1.15,0 -0.96,-0.18 -0.96,-1.26l0 -6.58 -3.43 0 0.02 0.59c0.37,0 0.77,-0.06 0.9,0.27 0.09,0.24 0.04,5.05 0.04,5.67z"/>
  <path class="fil3" d="M4.63 21.97c0.01,-0.42 0.17,-1.12 0.25,-1.65 0.18,-1.19 0.29,-1.14 -0.07,-1.51 -0.12,-0.12 -0.13,-0.15 -0.24,-0.28 -0.1,-0.12 -0.14,-0.15 -0.23,-0.28 -0.16,-0.21 -0.27,-0.34 -0.42,-0.56 -1.78,-2.68 -2.4,-5.92 -1.59,-8.94 0.31,-1.14 0.61,-1.84 1.17,-2.84 0.34,-0.61 1.3,-1.86 1.8,-2.3l0.07 -0.07c0.04,-0.04 0.07,-0.07 0.12,-0.12l0.27 -0.25c0.43,-0.41 1.22,-0.95 1.73,-1.25 0.51,-0.3 0.97,-0.48 1.15,-0.58l0.14 -0.11c-0.86,0.15 -2.13,0.78 -2.86,1.21 -0.45,0.27 -0.83,0.57 -1.2,0.85l-1.06 0.99c-1.22,1.42 -2.29,3.1 -2.66,5.54 -0.48,3.14 0.41,5.82 2.04,8.02 0.28,0.37 0.86,0.93 0.89,1.16 0.05,0.34 -0.47,2.88 -0.52,3.58 0.27,-0.13 1.06,-0.53 1.21,-0.65z"/>
  <path class="fil1" d="M11.26 4.22c1.95,-0.25 2.31,2.69 0.39,2.93 -1.99,0.25 -2.31,-2.69 -0.39,-2.93zm-0.22 -0.88c-1.14,0.18 -2.23,1.35 -1.94,2.78 0.23,1.16 1.37,2.17 2.78,1.91 1.11,-0.21 2.21,-1.33 1.92,-2.78 -0.23,-1.17 -1.32,-2.14 -2.76,-1.91z"/>
  <path class="fil2" d="M11.26 4.22c-1.92,0.25 -1.6,3.19 0.39,2.93 1.92,-0.24 1.56,-3.18 -0.39,-2.93z"/>
 </g>
</svg>
