<?xml version="1.0" encoding="UTF-8"?>
<!DOCTYPE svg PUBLIC "-//W3C//DTD SVG 1.1//EN" "http://www.w3.org/Graphics/SVG/1.1/DTD/svg11.dtd">
<!-- Creator: CorelDRAW 2020 (64-Bit) -->
<svg xmlns="http://www.w3.org/2000/svg" xml:space="preserve" width="15.9572mm" height="15.9572mm" version="1.1" style="shape-rendering:geometricPrecision; text-rendering:geometricPrecision; image-rendering:optimizeQuality; fill-rule:evenodd; clip-rule:evenodd"
viewBox="0 0 2.78 2.78"
 xmlns:xlink="http://www.w3.org/1999/xlink"
 xmlns:xodm="http://www.corel.com/coreldraw/odm/2003">
 <defs>
  <style type="text/css">
   <![CDATA[
    .fil2 {fill:black}
    .fil9 {fill:#46F8FF}
    .fil3 {fill:#5EAC24}
    .fil7 {fill:#BCFCFD}
    .fil8 {fill:#CD2A00}
    .fil0 {fill:#EBECF1}
    .fil1 {fill:#FCE8AA}
    .fil6 {fill:#FDD222}
    .fil4 {fill:#FECD00}
    .fil5 {fill:#FF3051}
    .fil10 {fill:#FF7956}
   ]]>
  </style>
 </defs>
 <g id="Capa_x0020_1">
  <metadata id="CorelCorpID_0Corel-Layer"/>
  <circle class="fil0" cx="1.39" cy="1.39" r="1.39"/>
  <g id="_2729974824208">
   <path class="fil1" d="M1 0.52c0,-0.04 0.01,-0.05 0.05,-0.05 0.22,0.01 0.42,0.12 0.55,0.29 0.07,0.1 0.16,0.34 0.11,0.42l-0.66 0c-0.04,0 -0.05,-0.01 -0.05,-0.05l0 -0.62zm1.02 0.61l0.03 -0c0,-0.02 0,-0.05 -0,-0.07l0 0.06 -0.26 -0 0 -0.06 0.23 0 0 -0.13 -0.23 -0 0 -0.06 0.26 -0 0 0.06 0 -0.07 -0.03 -0 0 -0.13c-0.3,-0 -0.26,0.02 -0.26,-0.36 -0.1,-0.01 -0.56,-0 -0.73,-0 -0.04,-0 -0.07,-0.01 -0.09,0.03 -0.02,0.02 -0.01,0.77 -0.01,0.86 0.11,0 0.21,0 0.32,0 0.09,0 0.24,-0.01 0.32,0 0.02,0.01 0.02,0.01 0.02,0.07 -0,0.03 -0,0.05 -0.01,0.08 -0.02,0.12 -0.06,0.2 -0.13,0.3 -0.01,0.02 -0.03,0.03 -0.04,0.05 -0.1,0.12 -0.3,0.21 -0.47,0.22 0,0.19 -0.03,0.23 0.06,0.23l1.02 -0c0.01,-0.04 0.02,-0.19 0,-0.22 -0.04,0.06 -0.06,0.09 -0.13,0.12 -0.2,0.1 -0.42,-0.04 -0.43,-0.26 -0,-0.29 0.38,-0.43 0.55,-0.14 0.01,-0.03 0,-0.33 0,-0.38l-0.23 -0 0 -0.07 0.23 -0 0 -0.13z"/>
   <path class="fil2" d="M0.49 1.75c0.02,-0.02 0.33,-0.33 0.36,-0.36 0.07,-0.07 0.04,-0.06 0.12,-0.06l0.55 0c-0.02,0.33 -0.29,0.59 -0.63,0.59 -0.14,0 -0.36,-0.08 -0.41,-0.17zm-0.05 -0.04c-0.03,-0.03 -0.02,-0.02 -0.05,-0.06 -0.02,-0.02 -0.03,-0.04 -0.04,-0.07 -0.03,-0.05 -0.05,-0.11 -0.06,-0.17 -0.07,-0.36 0.19,-0.71 0.58,-0.74l0 0.55c0,0.04 0.01,0.05 -0.02,0.07l-0.32 0.32c-0.02,0.02 -0.08,0.07 -0.09,0.09zm0.5 -1.31c0.01,-0.04 0.04,-0.03 0.09,-0.03 0.17,0 0.63,-0.01 0.73,0 0,0.38 -0.03,0.36 0.26,0.36l0.1 0c0,0.16 0.01,1.42 -0.01,1.47 -0.03,0.01 -0.06,0.01 -0.1,0.01l-1.02 0c-0.08,0 -0.06,-0.04 -0.06,-0.23 0.17,-0.01 0.38,-0.1 0.47,-0.22 0.02,-0.02 0.03,-0.03 0.04,-0.05 0.07,-0.1 0.11,-0.18 0.13,-0.3 0,-0.03 0.01,-0.05 0.01,-0.08 0,-0.06 0,-0.06 -0.02,-0.07 -0.08,-0.01 -0.23,-0 -0.32,-0 -0.11,0 -0.21,0 -0.32,0 0,-0.1 -0.01,-0.84 0.01,-0.86zm0.93 0.27c-0.06,0 -0.05,-0.04 -0.05,-0.1 0,-0.05 0,-0.1 0,-0.15l0.24 0.25 -0.02 0 -0.17 0zm-1 -0.06c-0.2,0.01 -0.36,0.11 -0.46,0.21 -0.05,0.05 -0.1,0.13 -0.13,0.2 -0.08,0.16 -0.08,0.39 0,0.56 0.03,0.07 0.08,0.15 0.13,0.2 0.13,0.12 0.27,0.19 0.46,0.21 0,0.34 -0.03,0.3 0.35,0.3 0.22,0 0.43,0 0.65,0 0.35,0 0.31,0.03 0.31,-0.34l0 -1.14c0,-0.06 0.01,-0.1 -0.02,-0.14 -0.11,-0.11 -0.22,-0.21 -0.32,-0.32 -0.04,-0.04 -0.06,-0.03 -0.13,-0.03l-0.48 0c-0.24,0 -0.35,-0.04 -0.35,0.14 0,0.05 0,0.11 0,0.16z"/>
   <path class="fil3" d="M0.49 1.75c0.05,0.09 0.27,0.17 0.41,0.17 0.34,0 0.61,-0.26 0.63,-0.59l-0.55 -0c-0.08,-0 -0.06,-0.01 -0.12,0.06 -0.03,0.03 -0.34,0.35 -0.36,0.36z"/>
   <path class="fil4" d="M0.45 1.71c0.01,-0.02 0.07,-0.07 0.09,-0.09l0.32 -0.32c0.03,-0.03 0.02,-0.03 0.02,-0.07l-0 -0.55c-0.39,0.03 -0.65,0.37 -0.58,0.74 0.01,0.06 0.03,0.12 0.06,0.17 0.02,0.03 0.03,0.04 0.04,0.07 0.03,0.05 0.02,0.03 0.05,0.06z"/>
   <path class="fil5" d="M1.56 1.13c-0.01,-0.25 -0.17,-0.47 -0.39,-0.57l-0.02 -0.01 -0.07 -0.01 -0 0.59 0.49 0z"/>
   <path class="fil2" d="M1.14 0.55c0.15,0.02 0.29,0.12 0.35,0.19 0.09,0.1 0.15,0.21 0.16,0.38l-0.1 0 -0.49 -0 0 -0.59 0.07 0.01zm-0.14 -0.03l0 0.62c0,0.04 0.01,0.05 0.05,0.05l0.66 -0c0.05,-0.08 -0.04,-0.32 -0.11,-0.42 -0.13,-0.18 -0.33,-0.29 -0.55,-0.29 -0.04,-0 -0.05,0.01 -0.05,0.05z"/>
   <path class="fil6" d="M2.02 1.71c0.05,0.08 0.04,0.2 -0,0.28 0,0 -0,0.22 -0,0.22 0.04,-0 0.06,0 0.1,-0.01 0.02,-0.04 0.01,-1.31 0.01,-1.47l-0.1 -0c0,0.19 -0,0.97 -0,0.97z"/>
   <path class="fil2" d="M1.76 2.08c-0.13,-0.01 -0.23,-0.1 -0.23,-0.23 -0,-0.13 0.1,-0.23 0.24,-0.23 0.3,0.02 0.29,0.44 -0,0.46zm0.26 -0.09c0.05,-0.08 0.05,-0.2 0,-0.28 -0.17,-0.28 -0.56,-0.14 -0.55,0.14 0,0.21 0.23,0.36 0.43,0.26 0.06,-0.03 0.09,-0.06 0.13,-0.12z"/>
   <path class="fil7" d="M1.76 2.08c0.01,-0.01 0.04,-0.03 0.05,-0.05 0.02,-0.02 0.03,-0.03 0.04,-0.06 0.02,-0.04 0.05,-0.12 0.02,-0.17l-0.08 0.07c-0.03,0.03 -0.05,0.05 -0.07,0.08 -0.06,0.06 -0.07,-0 -0.16,-0.08 0.01,-0.02 0.03,-0.04 0.05,-0.04 0.01,0.02 0.05,0.06 0.07,0.07l0.16 -0.17c-0.01,-0.01 -0.01,-0.01 -0.02,-0.03 -0.01,-0.02 -0.01,-0.01 -0.02,-0.03 -0.02,-0.02 -0.04,-0.03 -0.05,-0.05 -0.13,0 -0.24,0.1 -0.24,0.23 0,0.13 0.1,0.22 0.23,0.23z"/>
   <path class="fil8" d="M1.56 1.13l0.1 -0c-0.01,-0.18 -0.08,-0.28 -0.16,-0.38 -0.06,-0.07 -0.2,-0.18 -0.35,-0.19l0.02 0.01c0.22,0.09 0.38,0.32 0.39,0.57z"/>
   <path class="fil9" d="M1.86 1.73c0.02,0.01 0.03,0.03 0.05,0.04 -0.01,0.02 -0.02,0.01 -0.03,0.04 0.02,0.04 -0.01,0.13 -0.02,0.17 -0.01,0.03 -0.02,0.04 -0.04,0.06 -0.02,0.02 -0.04,0.03 -0.05,0.05 0.3,-0.02 0.3,-0.43 0,-0.46 0.01,0.02 0.04,0.04 0.05,0.05 0.01,0.01 0.01,0.01 0.02,0.03 0.01,0.02 0.01,0.02 0.02,0.03z"/>
   <path class="fil10" d="M1.87 0.67l0.17 0 0.02 -0 -0.24 -0.25c-0,0.05 -0,0.1 -0,0.15 -0,0.06 -0.01,0.1 0.05,0.1z"/>
   <path class="fil2" d="M1.88 1.81c0.01,-0.02 0.01,-0.02 0.03,-0.04 -0.01,-0.02 -0.03,-0.03 -0.05,-0.04l-0.16 0.17c-0.02,-0.01 -0.06,-0.06 -0.07,-0.07 -0.02,0.01 -0.04,0.03 -0.05,0.04 0.09,0.08 0.1,0.15 0.16,0.08 0.03,-0.03 0.05,-0.04 0.07,-0.08l0.08 -0.07z"/>
   <polygon class="fil2" points="2.02,1.32 2.05,1.32 2.05,1.26 2.02,1.26 1.79,1.26 1.79,1.32 "/>
   <polygon class="fil2" points="2.05,1.06 2.02,1.06 1.79,1.06 1.79,1.13 2.05,1.13 "/>
   <polygon class="fil2" points="1.79,0.93 2.02,0.93 2.05,0.93 2.05,0.87 1.79,0.87 "/>
  </g>
 </g>
</svg>
