<?xml version="1.0" encoding="UTF-8"?>
<!DOCTYPE svg PUBLIC "-//W3C//DTD SVG 1.1//EN" "http://www.w3.org/Graphics/SVG/1.1/DTD/svg11.dtd">
<!-- Creator: CorelDRAW 2020 (64-Bit) -->
<svg xmlns="http://www.w3.org/2000/svg" xml:space="preserve" width="19.5721mm" height="19.5723mm" version="1.1" style="shape-rendering:geometricPrecision; text-rendering:geometricPrecision; image-rendering:optimizeQuality; fill-rule:evenodd; clip-rule:evenodd"
viewBox="0 0 4.09 4.09"
 xmlns:xlink="http://www.w3.org/1999/xlink"
 xmlns:xodm="http://www.corel.com/coreldraw/odm/2003">
 <defs>
  <style type="text/css">
   <![CDATA[
    .fil1 {fill:black}
    .fil4 {fill:#22A5FC}
    .fil6 {fill:#BEBEBB}
    .fil5 {fill:#DB2534}
    .fil0 {fill:#EBECF1}
    .fil2 {fill:#FC4755}
    .fil3 {fill:white}
   ]]>
  </style>
 </defs>
 <g id="Capa_x0020_1">
  <metadata id="CorelCorpID_0Corel-Layer"/>
  <circle class="fil0" cx="2.05" cy="2.05" r="2.05"/>
  <g id="_2729896136032">
   <path class="fil1" d="M2.64 2.89c0.02,0.03 0.04,0.06 0.06,0.09 0.02,0.02 0.05,0.08 0.08,0.08 0.04,0 0.07,-0.05 0.08,-0.08 0.02,-0.03 0.05,-0.07 0.07,-0.1 0.09,0.01 0.26,0.09 0.17,0.18 -0.14,0.13 -0.49,0.12 -0.62,0.01 -0.1,-0.09 0.06,-0.17 0.16,-0.19zm0.84 -1.14c-0.07,0.33 -0.38,0.75 -0.59,1.04 -0.03,0.05 -0.06,0.1 -0.1,0.14l-0.03 -0.04c-0.05,-0.07 -0.18,-0.24 -0.21,-0.29 -0.03,-0.01 -0.21,-0.31 -0.25,-0.36 -0.25,-0.42 -0.4,-0.96 0.01,-1.34 0.35,-0.32 0.99,-0.2 1.17,0.32 0.05,0.14 0.05,0.38 -0,0.53zm-1.52 -0.33c0,0.2 0.01,0.31 0.08,0.49 0.07,0.19 0.21,0.45 0.33,0.62l0.2 0.28c-0.08,0.02 -0.22,0.1 -0.22,0.2 0,0.18 0.24,0.26 0.4,0.26 0.13,0 0.22,-0 0.34,-0.06 0.03,-0.02 0.07,-0.04 0.09,-0.06 0.1,-0.12 0.04,-0.24 -0.09,-0.31 -0.02,-0.01 -0.06,-0.03 -0.08,-0.03 0.02,-0.03 0.23,-0.33 0.29,-0.42 0.09,-0.15 0.19,-0.31 0.24,-0.48 0.11,-0.32 0.13,-0.63 -0.07,-0.92 -0.07,-0.1 -0.2,-0.22 -0.32,-0.27 -0.33,-0.15 -0.69,-0.09 -0.95,0.16 -0.05,0.05 -0.1,0.11 -0.13,0.16 -0.01,0.02 -0.02,0.04 -0.03,0.06 -0.04,0.08 -0.08,0.2 -0.08,0.32z"/>
   <path class="fil2" d="M2.74 0.83c0.37,-0.03 0.65,0.25 0.68,0.58 0.03,0.37 -0.25,0.66 -0.58,0.69 -0.37,0.03 -0.66,-0.25 -0.68,-0.58 -0.03,-0.37 0.25,-0.66 0.58,-0.69zm-0.19 1.78c0.02,0.01 0.01,0 0.04,-0.01l0.11 -0.06c0.05,-0.03 0.1,-0.06 0.14,-0.09l0.22 -0.17c0.06,-0.05 0.19,-0.19 0.24,-0.26l0.18 -0.27c0.05,-0.14 0.05,-0.38 0,-0.53 -0.18,-0.52 -0.82,-0.64 -1.17,-0.32 -0.41,0.37 -0.26,0.92 -0.01,1.34 0.03,0.06 0.22,0.35 0.25,0.36z"/>
   <path class="fil3" d="M2.66 1.24c-0.02,-0.06 -0.03,-0.1 0.01,-0.15 0.06,-0.09 0.2,-0.09 0.25,0 0.03,0.06 0.02,0.09 0,0.15 0.05,0.03 0.07,0.08 0.07,0.16 -0,0.11 0.02,0.16 -0.03,0.2 -0.03,0.03 -0.02,0.05 -0.02,0.1 0,0.22 0.01,0.19 -0.15,0.19 -0.16,0 -0.15,0.03 -0.15,-0.2 0,-0.06 0.01,-0.06 -0.02,-0.09 -0.04,-0.04 -0.03,-0.1 -0.03,-0.2 -0,-0.08 0.02,-0.13 0.07,-0.16zm0.06 -0.31c-0.27,0.04 -0.51,0.29 -0.46,0.6 0.04,0.27 0.29,0.5 0.6,0.46 0.27,-0.04 0.5,-0.29 0.46,-0.61 -0.04,-0.27 -0.28,-0.5 -0.6,-0.46z"/>
   <path class="fil1" d="M0.82 3.37c0.01,-0.02 0.08,-0.09 0.1,-0.1l0.07 0.07c-0.02,0.03 -0.07,0.08 -0.1,0.1 -0.02,-0.01 -0.05,-0.05 -0.07,-0.07zm0.1 -0.23c0.01,-0.03 0.04,-0.06 0.06,-0.07 0.03,0.03 0.06,0.1 0.15,0.16 0.02,0.02 0.04,0.02 0.06,0.04 -0.02,0.02 -0.04,0.05 -0.07,0.07l-0.2 -0.2zm0.54 -0.94c0.31,-0.04 0.56,0.2 0.59,0.47 0.04,0.32 -0.19,0.56 -0.47,0.6 -0.32,0.04 -0.56,-0.19 -0.6,-0.47 -0.04,-0.32 0.19,-0.56 0.47,-0.6zm-0.57 0.53c0,0.13 0.03,0.17 0.05,0.25 -0.03,0.02 -0.13,0.12 -0.13,0.15 0,0.04 0.02,0.04 0.04,0.07 -0.02,0.06 -0.15,0.11 -0.15,0.18 0,0.04 0.06,0.08 0.08,0.11 0.02,0.02 0.07,0.08 0.11,0.08 0.03,0 0.13,-0.13 0.17,-0.15 0.07,0.05 0.05,0.09 0.15,-0.01 0.02,-0.02 0.05,-0.06 0.08,-0.07 0.03,0.01 0.07,0.02 0.1,0.03 0.14,0.03 0.29,0.01 0.42,-0.05 0.2,-0.09 0.36,-0.33 0.36,-0.57 0,-0.24 -0.16,-0.48 -0.36,-0.57 -0.19,-0.08 -0.36,-0.08 -0.55,-0 -0.03,0.01 -0.07,0.04 -0.1,0.06 -0.16,0.11 -0.27,0.31 -0.27,0.51z"/>
   <path class="fil1" d="M2.72 0.93c0.32,-0.04 0.56,0.19 0.6,0.46 0.04,0.32 -0.19,0.57 -0.46,0.61 -0.32,0.04 -0.57,-0.19 -0.6,-0.46 -0.05,-0.32 0.19,-0.57 0.46,-0.6zm0.02 -0.1c-0.33,0.03 -0.61,0.32 -0.58,0.69 0.03,0.33 0.32,0.61 0.68,0.58 0.33,-0.03 0.61,-0.32 0.58,-0.69 -0.03,-0.33 -0.32,-0.61 -0.68,-0.58z"/>
   <path class="fil3" d="M1.33 2.68c0,-0.11 0.08,-0.19 0.19,-0.19l0 0.1c-0.06,0.01 -0.09,0.04 -0.1,0.1l-0.1 -0zm0.15 -0.29c-0.18,0.02 -0.32,0.17 -0.3,0.38 0.02,0.17 0.18,0.32 0.38,0.3 0.17,-0.02 0.32,-0.18 0.3,-0.38 -0.02,-0.17 -0.18,-0.32 -0.38,-0.3z"/>
   <path class="fil4" d="M1.09 2.79c-0.03,-0.26 0.15,-0.46 0.37,-0.5 0.26,-0.04 0.46,0.15 0.49,0.37 0.04,0.26 -0.15,0.46 -0.37,0.49 -0.26,0.04 -0.46,-0.15 -0.49,-0.37zm0.37 -0.59c-0.28,0.03 -0.51,0.28 -0.47,0.6 0.03,0.27 0.28,0.51 0.6,0.47 0.27,-0.03 0.5,-0.28 0.47,-0.6 -0.03,-0.27 -0.28,-0.5 -0.59,-0.47z"/>
   <path class="fil1" d="M1.48 2.39c0.2,-0.03 0.36,0.12 0.38,0.3 0.02,0.2 -0.12,0.36 -0.3,0.38 -0.2,0.02 -0.36,-0.12 -0.38,-0.3 -0.02,-0.21 0.12,-0.36 0.3,-0.38zm-0.39 0.4c0.03,0.22 0.24,0.41 0.49,0.37 0.22,-0.03 0.41,-0.23 0.37,-0.49 -0.03,-0.22 -0.23,-0.41 -0.49,-0.37 -0.22,0.03 -0.41,0.23 -0.37,0.5z"/>
   <polygon class="fil1" points="1.09,1.61 0.89,1.61 0.89,1.36 0.79,1.36 0.79,1.61 0.7,1.61 0.7,1.7 1.87,1.7 1.87,1.61 1.77,1.61 1.77,1.22 1.67,1.22 1.67,1.61 1.48,1.61 1.48,1.36 1.38,1.36 1.38,1.61 1.18,1.61 1.18,1.22 1.09,1.22 "/>
   <path class="fil5" d="M2.56 2.61c0.03,0.05 0.16,0.22 0.21,0.29l0.03 0.04c0.04,-0.04 0.07,-0.09 0.1,-0.14 0.2,-0.29 0.52,-0.71 0.59,-1.04l-0.18 0.27c-0.06,0.07 -0.18,0.21 -0.24,0.26l-0.22 0.17c-0.04,0.03 -0.09,0.06 -0.14,0.09l-0.11 0.06c-0.02,0.01 -0.02,0.01 -0.04,0.01z"/>
   <path class="fil1" d="M1.91 0.84l-0.01 0.08 -0.06 -0.07 0.08 -0.01zm-0.23 -0.03c0,0.06 0.05,0.07 0.07,0.11 -0.03,0.02 -0.05,0.04 -0.08,0.06 -0.03,0.02 -0.05,0.04 -0.08,0.06 -0.03,0.02 -0.05,0.04 -0.08,0.06l-0.06 0.05c-0.01,0.01 -0.01,0.01 -0.02,0.02 -0.34,-0.22 -0.25,-0.2 -0.41,-0.14 -0.05,0.02 -0.31,0.14 -0.34,0.15 0,0.03 0.03,0.07 0.04,0.09 0.04,-0 0.39,-0.18 0.41,-0.18 0.02,0 0.26,0.18 0.3,0.18 0.03,0 0.17,-0.12 0.2,-0.13l0.2 -0.15c0.01,0.01 0.14,0.17 0.16,0.02l0.03 -0.2c0.02,-0.11 -0.08,-0.07 -0.2,-0.06 -0.04,0.01 -0.14,0.01 -0.14,0.05z"/>
   <path class="fil1" d="M2.74 1.8c0,-0.05 -0,-0.11 0,-0.16 0,-0.1 -0.04,-0.07 -0.05,-0.11 -0,-0.02 -0,-0.13 -0,-0.16 0,-0.06 0.04,-0.06 0.1,-0.06 0.06,0 0.1,-0 0.1,0.06 0,0.02 0,0.14 -0,0.16 -0.01,0.04 -0.05,0.01 -0.05,0.11 0,0.05 0,0.11 0,0.16l-0.1 0zm0.03 -0.68c0.05,-0.03 0.09,0.06 0.04,0.09 -0.05,0.02 -0.1,-0.06 -0.04,-0.09zm-0.11 0.12c-0.05,0.03 -0.07,0.08 -0.07,0.16 0,0.1 -0.01,0.16 0.03,0.2 0.03,0.03 0.02,0.04 0.02,0.09 -0,0.23 -0.01,0.2 0.15,0.2 0.16,0 0.15,0.02 0.15,-0.19 -0,-0.05 -0.01,-0.07 0.02,-0.1 0.05,-0.04 0.03,-0.09 0.03,-0.2 0,-0.08 -0.01,-0.14 -0.07,-0.16 0.02,-0.06 0.03,-0.09 -0,-0.15 -0.05,-0.09 -0.19,-0.09 -0.25,-0 -0.04,0.06 -0.03,0.09 -0.01,0.15z"/>
   <path class="fil6" d="M2.64 2.89c-0.09,0.01 -0.26,0.09 -0.16,0.19 0.13,0.12 0.49,0.12 0.62,-0.01 0.09,-0.09 -0.08,-0.17 -0.17,-0.18 -0.01,0.03 -0.05,0.07 -0.07,0.1 -0.02,0.03 -0.04,0.08 -0.08,0.08 -0.03,-0 -0.06,-0.06 -0.08,-0.08 -0.02,-0.03 -0.05,-0.06 -0.06,-0.09z"/>
   <path class="fil4" d="M2.74 1.8l0.1 0c-0,-0.05 -0,-0.11 -0,-0.16 -0,-0.1 0.04,-0.07 0.05,-0.11 0,-0.02 0,-0.13 0,-0.16 -0,-0.06 -0.04,-0.06 -0.1,-0.06 -0.06,0 -0.1,-0 -0.1,0.06 -0,0.02 -0,0.14 0,0.16 0.01,0.04 0.05,0.01 0.05,0.11 -0,0.05 -0,0.11 -0,0.16z"/>
   <path class="fil4" d="M0.92 3.13l0.2 0.2c0.02,-0.01 0.05,-0.04 0.07,-0.07 -0.02,-0.02 -0.04,-0.02 -0.06,-0.04 -0.09,-0.07 -0.12,-0.14 -0.15,-0.16 -0.02,0.01 -0.05,0.04 -0.06,0.07z"/>
   <path class="fil1" d="M1.33 2.68l0.1 0c0.01,-0.06 0.04,-0.09 0.1,-0.1l-0 -0.1c-0.11,0.01 -0.19,0.08 -0.19,0.19z"/>
   <path class="fil4" d="M0.82 3.37c0.02,0.02 0.05,0.05 0.07,0.07 0.03,-0.03 0.08,-0.07 0.1,-0.1l-0.07 -0.07c-0.02,0.02 -0.09,0.08 -0.1,0.1z"/>
   <path class="fil4" d="M2.78 1.13c-0.07,0.03 -0.02,0.11 0.04,0.09 0.06,-0.03 0.02,-0.11 -0.04,-0.09z"/>
   <polygon class="fil4" points="1.83,0.85 1.9,0.91 1.91,0.84 "/>
  </g>
 </g>
</svg>
