<?xml version="1.0" encoding="UTF-8"?>
<!DOCTYPE svg PUBLIC "-//W3C//DTD SVG 1.1//EN" "http://www.w3.org/Graphics/SVG/1.1/DTD/svg11.dtd">
<!-- Creator: CorelDRAW 2020 (64-Bit) -->
<svg xmlns="http://www.w3.org/2000/svg" xml:space="preserve" width="194.24mm" height="194.18mm" version="1.1" style="shape-rendering:geometricPrecision; text-rendering:geometricPrecision; image-rendering:optimizeQuality; fill-rule:evenodd; clip-rule:evenodd"
viewBox="0 0 256.78 256.71"
 xmlns:xlink="http://www.w3.org/1999/xlink"
 xmlns:xodm="http://www.corel.com/coreldraw/odm/2003">
 <defs>
  <style type="text/css">
   <![CDATA[
    .fil2 {fill:black}
    .fil6 {fill:#010304}
    .fil7 {fill:#020405}
    .fil8 {fill:#020508}
    .fil3 {fill:#428CE9}
    .fil0 {fill:#4FA4F1}
    .fil5 {fill:#71B6F4}
    .fil1 {fill:#E9EAEE}
    .fil4 {fill:#FEFEFE}
   ]]>
  </style>
 </defs>
 <g id="Capa_x0020_1">
  <metadata id="CorelCorpID_0Corel-Layer"/>
  <g id="_1752537984864">
   <path class="fil0" d="M81.82 40.82c-5.88,2.44 -15.5,9.63 -19.4,13.48 -7.42,7.3 -9.29,8.68 -15.56,17.53 -7.46,10.51 -19.34,37.91 -16.89,49.13 1.31,4.84 -2.1,2.04 3.42,15.07 12.23,28.9 46.76,49.58 78.66,53.08l-0.01 -69.17c-18.49,0 -16.64,2.7 -16.57,-18.64 0.01,-4.37 1.27,-6.13 5.67,-6.2 6.04,-0.1 43.87,-0.84 46.28,0.83 3.15,2.18 1.84,16.48 1.84,21.43l-0.01 71.15c20.32,-3.04 38.23,-12.3 50.59,-22.12 11.79,-9.37 21.64,-22.14 26.53,-37.09 1.05,-3.21 -0.02,-5.32 0.8,-8.27 0.95,-4.77 -1.95,-16.26 -3.37,-20.78 -10.95,3.9 -8.29,-4.48 -17.49,-19.27 -9.84,-15.82 -23.84,-28.33 -41.09,-35.93 -6.37,-2.81 -23.09,-8.25 -30.74,-7.53 1.94,1.84 8.47,2.18 13.79,9.5 3.55,4.87 5.78,10.48 4.94,17.97 -3.25,28.86 -46.01,28.83 -49.26,0.04 -2.38,-21.1 17.67,-26.5 18.75,-27.5 -6.03,-0.52 -17.8,2.7 -23.38,4.59 -3.33,1.13 -7.16,3.2 -10,3.98 -3.88,1.07 -8.21,-1.45 -7.5,-5.27z"/>
   <path class="fil1" d="M121.81 20.94c34.12,-2.56 61.29,12.15 79.18,27.63 1.23,1.07 2.1,2.31 3.24,3.47 1.15,1.16 2.3,1.97 3.5,3.21 15.7,16.2 26.58,42.25 28.14,66.01 4.05,61.69 -43.41,110.43 -100.17,114.24 -61.69,4.14 -110.63,-43.32 -114.41,-100.1 -2.01,-30.13 9.73,-62.41 31.05,-82.9 19.36,-18.6 40.72,-29.4 69.47,-31.56zm126.7 103.14c0,-3.46 -0.47,-5.43 -0.52,-8.13l-0.9 -7.89c-0.47,-2.46 -1.03,-5.06 -1.82,-7.24l-1.86 -7.75c-0.66,-2.26 -1.94,-4.93 -2.13,-7.27 -1.61,-1.26 -2.67,-5.14 -3.46,-7.21l-3.26 -7.05 -4.08 -6.91c-1.45,-1.95 -3,-4.25 -4.19,-6.34 -1.24,-1.11 -4.47,-4.96 -5,-6.59 -1,-1.13 -1.68,-1.65 -2.61,-2.74 -0.86,-1.02 -1.4,-1.82 -2.22,-2.78l-5.9 -5.85c-1.04,-0.95 -1.62,-1.28 -2.73,-2.22 -1.08,-0.91 -1.64,-1.62 -2.74,-2.63 -1.5,-0.6 -5.52,-3.83 -6.6,-4.97 -1.29,-0.75 -1.96,-1.31 -3.15,-2.14 -1.2,-0.84 -1.95,-1.13 -3.18,-2.07l-6.95 -4.06 -7.01 -3.27c-0.53,-0.2 -6.86,-2.56 -7.04,-3.19 -0.05,-0.16 -0.19,-0.17 -0.28,-0.26 -2.11,-0.19 -5.08,-1.49 -7.15,-2.17l-7.75 -1.82c-1.24,-0.79 -5.91,-1.66 -7.75,-1.68l-7.39 -1.05c-2.72,-0.05 -4.63,-0.53 -8.12,-0.51 -15.83,0.58 -25.57,1.08 -39.96,5.53 -80.73,24.98 -109.06,123.69 -59.57,187.05 3.45,4.42 7.03,8.69 10.54,12.2 3.54,3.53 7.78,7.07 12.21,10.54 60.82,47.66 159.12,24.86 187.06,-59.56 4.52,-13.65 4.87,-24.61 5.53,-39.96z"/>
   <path class="fil2" d="M29.97 120.96c-2.45,-11.21 9.43,-38.62 16.89,-49.13 6.28,-8.85 8.14,-10.23 15.56,-17.53 3.91,-3.84 13.52,-11.03 19.4,-13.48 2.6,-2.43 15.44,-6.86 19.94,-8.16 51.51,-14.89 107.88,16.11 122.03,67.58 1.42,4.51 4.31,16 3.37,20.78 2.05,3.43 0.02,19.23 -0.74,23.88 -7.66,46.63 -48.72,82.44 -97.84,82.56 -15.86,0.04 -29.63,-3.71 -42.26,-9.44 -13.85,-6.28 -28.08,-18.14 -35.95,-28.67 -6.11,-8.18 -10.08,-14.64 -14.11,-24.67 -3.69,-9.2 -10.23,-36.88 -6.29,-43.73zm91.84 -100.02c-28.75,2.16 -50.11,12.95 -69.47,31.56 -21.32,20.49 -33.06,52.77 -31.05,82.9 3.78,56.78 52.72,104.24 114.41,100.1 56.76,-3.81 104.22,-52.55 100.17,-114.24 -1.56,-23.75 -12.44,-49.81 -28.14,-66.01 -1.2,-1.24 -2.35,-2.05 -3.5,-3.21 -1.14,-1.16 -2.01,-2.4 -3.24,-3.47 -17.9,-15.48 -45.06,-30.19 -79.18,-27.63z"/>
   <path class="fil2" d="M248.51 124.08c-0.66,15.35 -1.01,26.31 -5.53,39.96 -27.93,84.42 -126.24,107.23 -187.06,59.56 -4.43,-3.47 -8.67,-7.01 -12.21,-10.54 -3.51,-3.51 -7.09,-7.78 -10.54,-12.2 -49.49,-63.37 -21.15,-162.08 59.57,-187.05 14.38,-4.45 24.13,-4.95 39.96,-5.53 0,-3.45 0.52,-5.62 0.52,-8.28 -24.63,0 -46.93,3.83 -68.14,16.64 -1.46,0.88 -2.45,1.3 -3.93,2.27 -5.06,3.33 -13.52,8.97 -17.49,13.01 -2.58,2.62 -6.12,4.92 -9.17,8.92 -3.03,3.96 -6.46,6.76 -10.86,13.44 -20.43,31.03 -28.71,64.15 -20.46,101.63 2.94,13.37 7.7,24.59 13.39,35.2 4.74,8.83 13.89,20.69 21.16,27.96l9.57 8.52c1.23,1.01 2.15,1.76 3.44,2.77 9.11,7.13 20.46,13.13 31.17,17.43 43.11,17.28 91.15,8.74 127.1,-19.5 15.3,-12.02 26.39,-26.79 35.03,-44.07 10.28,-20.54 12.75,-37.81 12.75,-60.66 -2.66,0 -4.82,0.52 -8.27,0.52z"/>
   <path class="fil3" d="M227.16 121.02c-0.81,2.95 0.25,5.06 -0.8,8.27 -4.89,14.94 -14.74,27.72 -26.53,37.09 -12.36,9.82 -30.27,19.08 -50.59,22.12l0.01 1.75c5.66,0 11.98,-1.54 12.41,4.63 0.16,2.26 0.22,15.32 -0.18,16.93 -1.15,4.69 -8.99,3.25 -13.78,3.25l-34.12 0c-4.79,0 -12.64,1.44 -13.78,-3.25 -0.4,-1.63 -0.33,-14.65 -0.17,-16.94 0.41,-6.08 6.35,-4.63 11.89,-4.63 0.63,-0.82 0.5,1.11 0.53,-1.14 -31.9,-3.5 -66.43,-24.18 -78.66,-53.08 -5.52,-13.04 -2.1,-10.24 -3.42,-15.07 -3.93,6.85 2.6,34.53 6.29,43.73 4.03,10.03 7.99,16.49 14.11,24.67 7.87,10.53 22.1,22.38 35.95,28.67 12.62,5.73 26.39,9.48 42.26,9.44 49.12,-0.13 90.18,-35.93 97.84,-82.56 0.76,-4.65 2.79,-20.45 0.74,-23.88z"/>
   <path class="fil2" d="M103.75 103.4l37.1 0 0.13 89.44c0.01,6.89 4.73,5.68 12.41,5.68l0 8.28 -45.5 0 -0 -8.28c7.63,0 12.41,1.2 12.41,-5.68l0 -75.48c0,-7.35 -5.73,-5.68 -16.54,-5.68l0 -8.28zm8.29 85.71c-0.04,2.26 0.1,0.32 -0.53,1.14 -5.54,0 -11.48,-1.45 -11.89,4.63 -0.15,2.29 -0.22,15.31 0.17,16.94 1.14,4.69 9,3.25 13.78,3.25l34.12 0c4.79,0 12.63,1.44 13.78,-3.25 0.4,-1.61 0.33,-14.67 0.18,-16.93 -0.43,-6.17 -6.75,-4.63 -12.41,-4.63l-0.01 -1.75 0.01 -71.15c0,-4.95 1.31,-19.24 -1.84,-21.43 -2.4,-1.66 -40.24,-0.92 -46.28,-0.83 -4.41,0.07 -5.66,1.82 -5.67,6.2 -0.07,21.34 -1.93,18.64 16.57,18.64l0.01 69.17z"/>
   <path class="fil4" d="M103.75 111.67c10.81,0 16.54,-1.66 16.54,5.68l0 75.48c0,6.89 -4.78,5.68 -12.41,5.68l0 8.28 45.5 0 -0 -8.28c-7.67,0 -12.4,1.2 -12.41,-5.68l-0.13 -89.44 -37.1 0 0 8.28z"/>
   <path class="fil5" d="M81.82 40.82c-0.7,3.82 3.62,6.34 7.5,5.27 2.83,-0.78 6.66,-2.85 10,-3.98 5.58,-1.9 17.35,-5.12 23.38,-4.59 1.84,0.13 10,0.13 11.77,-0.01 7.65,-0.72 24.37,4.73 30.74,7.53 17.24,7.6 31.25,20.11 41.09,35.93 9.2,14.79 6.55,23.17 17.49,19.27 -14.16,-51.47 -70.52,-82.47 -122.03,-67.58 -4.5,1.3 -17.34,5.73 -19.94,8.16z"/>
   <path class="fil2" d="M112.11 63.59c-1.75,-22.14 30.98,-24.43 32.91,-3.08 0.87,9.57 -6.38,17.26 -14.93,17.99 -9.46,0.81 -17.3,-6.37 -17.98,-14.91zm10.59 -26.07c-1.08,1 -21.13,6.4 -18.75,27.5 3.24,28.79 46,28.82 49.26,-0.04 0.84,-7.48 -1.38,-13.09 -4.94,-17.97 -5.33,-7.31 -11.85,-7.65 -13.79,-9.5 -1.78,0.14 -9.93,0.13 -11.77,0.01z"/>
   <path class="fil4" d="M112.11 63.59c0.68,8.54 8.52,15.72 17.98,14.91 8.55,-0.73 15.8,-8.42 14.93,-17.99 -1.93,-21.35 -34.67,-19.05 -32.91,3.08z"/>
   <path class="fil6" d="M221.28 51.7c0.53,1.62 3.76,5.47 5,6.59 2.05,-1.03 4.35,-3.27 6.72,-4.52 -1.43,-2.7 -3.46,-4.68 -5.17,-7.24 -2.29,1.53 -4.13,3.57 -6.55,5.17z"/>
   <path class="fil6" d="M198.49 30.5c1.08,1.14 5.09,4.37 6.6,4.97 1.61,-2.36 3.66,-4.27 5.17,-6.52 -2.56,-1.71 -4.54,-3.74 -7.24,-5.17 -1.36,2.58 -3.28,4.29 -4.53,6.72z"/>
   <path class="fil6" d="M170.88 15.51c0.09,0.09 0.24,0.1 0.28,0.26 0.18,0.62 6.51,2.99 7.04,3.19 1.3,-1.98 2.41,-5.29 3.62,-7.58 -1.81,-0.96 -5.88,-2.9 -8.27,-3.1 -0.54,1.12 -0.72,2.02 -1.25,3.4 -0.57,1.49 -0.93,2.28 -1.42,3.84z"/>
   <path class="fil6" d="M237.81 78.58c0.79,2.07 1.86,5.95 3.46,7.21 2.3,-0.48 4.92,-2.02 7.24,-2.56 -0.17,-2.08 -2.25,-6.65 -3.1,-8.27 -2.5,1.32 -5.21,2.08 -7.6,3.62z"/>
   <path class="fil7" d="M155.97 11.51l7.75 1.82c0.59,-2.31 2.01,-5.61 2.07,-8.17 -2.77,-0.64 -5.51,-1.42 -8.27,-2.07 -0.26,3.14 -1.55,4.77 -1.55,8.41z"/>
   <path class="fil8" d="M140.83 8.79l7.39 1.05c0.45,-0.96 1.43,-6.83 1.55,-8.29 -3.01,-0.25 -5.21,-1.03 -8.79,-1.03 0,3.02 -1.02,5.11 -0.15,8.27z"/>
   <path class="fil7" d="M243.41 93.06l1.86 7.75c3.36,-0.07 5.15,-1.48 8.41,-1.55 -0.54,-2.31 -1.89,-6.16 -2.07,-8.27 -3.37,0 -5.37,1.36 -8.21,2.07z"/>
   <path class="fil8" d="M247.09 108.05l0.9 7.89c2.81,0.8 4.9,-0.14 8.27,-0.14 0,-3.58 -0.78,-5.78 -1.03,-8.79 -2.89,0.06 -4.87,1.03 -8.14,1.03z"/>
   <path class="fil6" d="M230.47 64.62l4.08 6.91c2.76,-1.11 5.05,-2.34 7.24,-3.8 -1.39,-2.62 -2.53,-4.84 -4.14,-7.24 -1.95,0.46 -5.64,3.03 -7.18,4.14z"/>
   <path class="fil7" d="M210.56 40.33l5.9 5.85 5.8 -5.74c-1.33,-1.91 -4.55,-5.61 -6.84,-5.8 -0.66,2.47 -3.16,3.86 -4.87,5.69z"/>
   <path class="fil6" d="M185.21 22.23l6.95 4.06 4.14 -7.16c-1.84,-1.23 -5.43,-3.6 -7.75,-4.14 -0.58,2.48 -2.81,5.55 -3.33,7.24z"/>
  </g>
 </g>
</svg>
