<svg id="Capa_1" data-name="Capa 1" xmlns="http://www.w3.org/2000/svg" viewBox="0 0 300 300"><defs><style>.cls-1{fill:#ffc107;}</style></defs><title>Iconos_finales</title><path class="cls-1" d="M150.773,31.41A122.308,122.308,0,1,0,273.081,153.717,122.443,122.443,0,0,0,150.773,31.41Z"/><path d="M160.965,214.871a10.192,10.192,0,1,1-10.192-10.192A10.192,10.192,0,0,1,160.965,214.871Z"/><path d="M150.773,276.025A122.308,122.308,0,1,1,273.081,153.717,122.443,122.443,0,0,1,150.773,276.025Zm0-229.326A107.019,107.019,0,1,0,257.792,153.717,107.136,107.136,0,0,0,150.773,46.7Z"/><path d="M150.773,181.747a7.647,7.647,0,0,1-7.644-7.644v-10.3a22.973,22.973,0,0,1,15.309-21.628c12.179-4.29,20.365-17.255,20.365-26.684a28.03,28.03,0,0,0-56.059,0,7.644,7.644,0,1,1-15.288,0,43.318,43.318,0,0,1,86.635,0c0,17.011-13.424,35.062-30.567,41.1a7.671,7.671,0,0,0-5.107,7.217v10.3A7.647,7.647,0,0,1,150.773,181.747Z"/></svg>