<?xml version="1.0" encoding="UTF-8"?>
<!DOCTYPE svg PUBLIC "-//W3C//DTD SVG 1.1//EN" "http://www.w3.org/Graphics/SVG/1.1/DTD/svg11.dtd">
<!-- Creator: CorelDRAW 2020 (64-Bit) -->
<svg xmlns="http://www.w3.org/2000/svg" xml:space="preserve" width="169.258mm" height="169.259mm" version="1.1" style="shape-rendering:geometricPrecision; text-rendering:geometricPrecision; image-rendering:optimizeQuality; fill-rule:evenodd; clip-rule:evenodd"
viewBox="0 0 166.56 166.56"
 xmlns:xlink="http://www.w3.org/1999/xlink"
 xmlns:xodm="http://www.corel.com/coreldraw/odm/2003">
 <defs>
  <style type="text/css">
   <![CDATA[
    .fil1 {fill:black}
    .fil0 {fill:#38C2FC}
    .fil2 {fill:#44C554}
   ]]>
  </style>
 </defs>
 <g id="Capa_x0020_1">
  <metadata id="CorelCorpID_0Corel-Layer"/>
  <g id="_1752630801984">
   <path class="fil0" d="M59.63 9.43c2.49,2.84 9.33,2.97 13.74,3.7 8.23,1.37 8.01,1.32 5.42,9.06 -0.84,2.51 -0.92,4.57 -3.25,5.54 -9.43,3.9 -4.63,-1.68 -13.41,12.94 -2.63,4.38 -3.93,4.27 -9.78,7.78 -9.59,5.76 -7.24,4.21 -20.26,6.08 -4.38,0.63 -4.64,-0.43 -4.35,4.35 0.12,1.9 2.72,3.9 3.77,4.9 2.46,2.35 1.77,2.87 1.8,7 1.86,-0.86 5.44,-7.04 8.07,-2.56 1.56,2.64 3.44,6.78 4.69,9.5 3.5,0 7.01,0 10.51,0 2.64,0 8.01,-0.64 9.42,1.01 1.55,1.82 5.89,10.5 7.87,12.87 2.21,0 8.24,-0.28 10.02,0.11 3.3,0.72 1.78,4.82 1.21,7.69 -0.57,2.84 -1.1,5.63 -1.67,8.41 -0.54,2.62 -1.97,3.35 -4.53,5.91 -1.76,1.76 -3.27,3.31 -5.04,5.04 -3.07,3 -1.12,2.64 -1.71,8.74 -0.24,2.52 -3.14,3.92 -5.03,5.34 -1.36,1.02 -4.67,3.76 -6.02,4.37 -0.49,15.53 2.81,18.23 -11.6,12.68 -2.37,-0.91 -2.89,-3.74 -3.88,-6.2 -3.38,-8.46 -3.96,-7.76 -3.96,-15.85 0,-6.48 0.31,-13.75 -0.05,-20.13 -3.15,-0.4 -7.7,-1.39 -10.89,-2.13 -3.01,-0.7 -3.58,-3.48 -5.68,-7.68 -2.33,-4.65 -2.83,-4.27 -2.83,-10.4 0,-4.97 -0.58,-4.78 2.19,-7.47 0.88,-0.86 1.19,-0.97 1.68,-2.1l-10.18 -6.66c-6.11,-4.07 -3.95,-2.33 -6.89,-10.4 -2.94,5.35 -3.87,22.99 -3.04,30.15 1.21,10.57 3.69,18.23 7.68,26.74 2.4,5.12 7.87,13.42 12.03,17.57 0.86,0.86 1.26,1.58 2.12,2.44 5.17,5.1 11.85,10.48 19.89,14.6 25.75,13.18 55.95,11.22 80.24,-5.54 4.62,-3.18 15.44,-12.65 17.39,-17.02 -6.09,-6.23 -6.57,-5.05 -6.55,-10.41 0.04,-9.3 0.85,-5.99 -3.04,-13.76 -1.48,-2.95 -7.91,-14.64 -8.06,-17.45 -0.15,-2.85 0.07,-5.91 -0.03,-8.8 -0.54,-0.6 -5.58,-3.97 -6.08,-4.06 -0.95,-0.17 -6.82,1.54 -8.23,1.91 -3.54,0.94 -4.82,-0.32 -7.79,-1.6l-14.78 -6.36c-2.47,-1.29 -2.14,-3.75 -2.75,-8.01 -0.43,-3.01 -0.86,-6.05 -1.3,-9.11 -0.68,-4.74 -1.48,-5.46 1.38,-8.28 1.82,-1.8 3.4,-3.38 5.21,-5.2 2.98,-3 2.62,-2.57 8.17,-2.57 17.04,0.01 12.66,-1.25 18.81,7.55 1.02,1.46 1.66,1.18 3.67,1.51 3.05,0.49 6.19,1.01 9.2,1.54 5.03,0.9 9.63,-2.52 16.17,-4.04 -1.27,-3.11 -6.62,-8.8 -8.02,-11.17 -2.84,1.09 -5.92,4.9 -9.08,4.47 -3.61,-0.5 -7.73,-1.56 -11.39,-2.28 -2.23,-0.44 -9.43,-2.99 -10.42,-2.88 -2.87,0.33 -8.84,2.86 -11.47,2.34 -2.25,-0.44 -8.95,-2.58 -9.74,-3.98 -1.12,-2 1.91,-6.61 3.44,-9.66 2.66,-5.32 1.34,-5.61 8.17,-5.6 4.49,0.01 8.02,0.68 11.44,-2.51 -2.12,-1.47 -8.82,-3.1 -11.81,-3.84 -8.54,-2.11 -19.63,-2.51 -28.39,-1.12 -2.64,0.42 -10.64,1.85 -12.46,3.01z"/>
   <path class="fil1" d="M55.48 145.92c-2.34,-0.39 -3.3,-0.62 -4.12,-2.74 -0.63,-1.63 -1.29,-3.26 -1.94,-4.89 -2.16,-5.4 -2.22,-4.81 -2.22,-11.42 0,-4.66 0,-9.33 0,-13.99 0,-6.67 1.09,-9.44 -3.36,-10.37 -1.79,-0.37 -10.64,-1.81 -11.42,-2.53 -0.24,-0.22 -4.43,-8.48 -4.56,-9.07 -0.23,-1.04 -0.27,-5.6 0.08,-6.42l10.11 -10.2c0.82,0.95 2.2,4.13 2.86,5.47 1.35,2.72 1.24,3.5 4.93,3.51 5.07,0.01 11.64,-0.38 16.53,0.07 1.7,3.27 3.89,6.58 5.82,9.8 3.08,5.12 2.21,4.01 11.63,4.01 -1.39,10.5 -1.39,9.13 -6.82,14.58 -7.27,7.28 -6.39,4.81 -6.39,14.58 -1.14,1.02 -2.95,2.24 -4.36,3.3 -9.46,7.1 -6.01,3.4 -6.79,16.31zm31.94 20.64l-9.01 0c-5.28,-0.29 -10.55,-1.11 -15.74,-2.49 -8.51,-2.26 -14.21,-4.77 -21.46,-8.8 -10.19,-5.65 -22.19,-16.97 -28.3,-27.33 -2.94,-4.97 -4.6,-7.63 -6.87,-13.3 -3.62,-9.07 -5.67,-18.62 -6.04,-28.24l0 -6.39c0.3,-7.61 1.65,-15.2 4.11,-22.57 0.88,-2.63 2.2,-5.1 1.42,-6.71 1.67,-0.39 2.28,-2.31 3.3,-4.84 2.15,-5.37 12.2,-19.17 16.55,-22.49 1.99,-1.52 4.62,-4.47 8.46,-7.16 1.64,-1.15 2.99,-2.22 4.82,-3.31 8.42,-5.03 17.82,-9.59 27.75,-11.28 4.27,-0.73 9.08,-1.67 13.95,-1.67 15.03,0 26.15,1.92 38.17,7.7 4.69,2.25 8.68,4.54 12.71,7.46 9.73,7.04 13.66,11.37 20.31,20.36l3.95 6.13c7.88,14.67 11.06,24.91 11.06,43.92 0,21.22 -10.07,42.43 -24.32,56.69 -14.33,14.33 -34.24,23.18 -54.82,24.32zm42.66 -114.76c6.63,1.1 5.59,1.22 11.68,-0.81 3.45,-1.15 7.09,-2.55 10.5,-3.46 3.67,8.58 4.1,7.96 6.64,18.02 1.68,6.66 2.45,15.29 1.93,22.36 -0.88,11.96 -5.35,28.3 -12.21,37.22 -0.9,-0.85 -2.97,-2.72 -3.7,-3.62 -1.13,-1.4 -0.57,-4.95 -0.57,-7 0.01,-5.92 -1.27,-6.76 -3.56,-11.32 -1.71,-3.41 -3.29,-6.56 -5,-9.96 -2.98,-5.93 -2.56,-4.99 -2.54,-12.55 0.01,-2.88 0.33,-4.09 -1.75,-5.6 -9.77,-7.06 -8.55,-5.95 -15.7,-4.16 -2.3,0.58 -3.9,1.45 -6.03,0.52 -4.37,-1.92 -12.16,-5.01 -15.64,-6.81 -0.7,-4.88 -1.35,-9.7 -2.09,-14.54 -0.4,-2.61 -0.32,-1.96 2.79,-5.04 2.32,-2.31 2.7,-3.4 4.72,-3.4l11.71 0c2.67,0 4.56,7.02 6.93,8.02 1.82,0.77 9.39,1.72 11.9,2.13zm-31.33 -32.36c6.07,0 8.87,0.71 13.01,-1.38 6.05,-3.05 6.55,-4.23 9.16,-2.69 3.16,1.87 5.89,3.39 8.53,5.47 1.54,1.21 2.56,1.99 3.96,3.19 1.1,0.94 2.65,2.25 3.55,3.3 -4.19,4.09 -5.39,2.83 -9.79,1.94 -3.96,-0.8 -7.05,-1.38 -10.7,-2.6 -5.68,-1.89 -4.5,-1.98 -10.57,-0.46 -3.78,0.95 -6.9,2.21 -10.31,-0.24l3.17 -6.53zm-70.98 52.91c-1.13,-0.46 -10.49,-6.58 -11.2,-7.29 -1.1,-1.11 -4.67,-12.16 -4.28,-13.41 0.97,-3.06 4.83,-9.08 6.54,-11.67 6.97,-10.6 16.87,-19.4 28.91,-25.76 7.24,-3.82 4.09,-2.52 11.41,1.75 2.85,1.66 11.08,1.72 14.87,3.02 -1.34,3.76 -0.56,3.61 -2.59,4.29 -8.28,2.81 -5.75,0.69 -11.15,9.67 -2.85,4.74 -2.82,5.96 -6.09,7.9 -12.4,7.38 -7.55,5.95 -19.85,7.74 -2.58,0.38 -10.31,1 -11.44,2.29 -1.34,1.54 -0.98,10.69 0.15,12.25 0.68,0.94 2.48,2.58 3.39,3.44 1.95,1.84 1.32,2.45 1.32,5.77zm21.74 77.54c14.4,5.55 11.11,2.85 11.6,-12.68 1.36,-0.62 4.66,-3.35 6.02,-4.37 1.89,-1.41 4.78,-2.82 5.03,-5.34 0.59,-6.1 -1.36,-5.74 1.71,-8.74 1.78,-1.73 3.29,-3.28 5.04,-5.04 2.56,-2.56 3.99,-3.29 4.53,-5.91 0.57,-2.78 1.1,-5.57 1.67,-8.41 0.57,-2.87 2.09,-6.97 -1.21,-7.69 -1.78,-0.39 -7.81,-0.11 -10.02,-0.11 -1.98,-2.36 -6.32,-11.05 -7.87,-12.87 -1.4,-1.65 -6.77,-1.01 -9.42,-1.01 -3.5,0 -7.01,0 -10.51,0 -1.25,-2.72 -3.14,-6.86 -4.69,-9.5 -2.63,-4.47 -6.21,1.7 -8.07,2.56 -0.03,-4.12 0.66,-4.64 -1.8,-7 -1.04,-1 -3.65,-3 -3.77,-4.9 -0.3,-4.78 -0.03,-3.72 4.35,-4.35 13.02,-1.87 10.66,-0.32 20.26,-6.08 5.85,-3.52 7.15,-3.4 9.78,-7.78 8.78,-14.62 3.98,-9.04 13.41,-12.94 2.33,-0.96 2.41,-3.03 3.25,-5.54 2.58,-7.74 2.81,-7.7 -5.42,-9.06 -4.41,-0.73 -11.25,-0.85 -13.74,-3.7 1.82,-1.17 9.82,-2.6 12.46,-3.01 8.76,-1.39 19.85,-0.99 28.39,1.12 3,0.74 9.69,2.38 11.81,3.84 -3.43,3.2 -6.96,2.52 -11.44,2.51 -6.83,-0.01 -5.51,0.27 -8.17,5.6 -1.53,3.05 -4.56,7.66 -3.44,9.66 0.79,1.41 7.49,3.54 9.74,3.98 2.63,0.52 8.59,-2.01 11.47,-2.34 0.99,-0.12 8.18,2.44 10.42,2.88 3.66,0.72 7.78,1.78 11.39,2.28 3.16,0.44 6.24,-3.37 9.08,-4.47 1.4,2.36 6.75,8.05 8.02,11.17 -6.54,1.51 -11.13,4.93 -16.17,4.04 -3.01,-0.53 -6.15,-1.05 -9.2,-1.54 -2.01,-0.32 -2.65,-0.05 -3.67,-1.51 -6.15,-8.79 -1.78,-7.54 -18.81,-7.55 -5.55,-0 -5.19,-0.43 -8.17,2.57 -1.81,1.82 -3.39,3.4 -5.21,5.2 -2.86,2.83 -2.06,3.54 -1.38,8.28 0.44,3.06 0.87,6.09 1.3,9.11 0.61,4.26 0.27,6.72 2.75,8.01l14.78 6.36c2.97,1.29 4.25,2.54 7.79,1.6 1.41,-0.37 7.28,-2.08 8.23,-1.91 0.51,0.09 5.54,3.46 6.08,4.06 0.09,2.9 -0.12,5.95 0.03,8.8 0.14,2.81 6.58,14.51 8.06,17.45 3.89,7.77 3.08,4.46 3.04,13.76 -0.03,5.36 0.45,4.19 6.55,10.41 -1.96,4.37 -12.78,13.84 -17.39,17.02 -24.29,16.76 -54.49,18.72 -80.24,5.54 -8.04,-4.12 -14.72,-9.5 -19.89,-14.6 -0.87,-0.86 -1.26,-1.58 -2.12,-2.44 -4.16,-4.14 -9.63,-12.44 -12.03,-17.57 -3.99,-8.52 -6.47,-16.17 -7.68,-26.74 -0.82,-7.16 0.11,-24.8 3.04,-30.15 2.94,8.07 0.78,6.33 6.89,10.4l10.18 6.66c-0.49,1.13 -0.8,1.25 -1.68,2.1 -2.77,2.69 -2.19,2.5 -2.19,7.47 -0,6.13 0.51,5.75 2.83,10.4 2.1,4.19 2.67,6.98 5.68,7.68 3.19,0.74 7.74,1.73 10.89,2.13 0.36,6.38 0.05,13.65 0.05,20.13 0,8.09 0.58,7.39 3.96,15.85 0.99,2.47 1.5,5.29 3.88,6.2z"/>
   <path class="fil2" d="M94.13 64.63c3.47,1.79 11.26,4.89 15.64,6.81 2.13,0.94 3.73,0.06 6.03,-0.52 7.15,-1.79 5.93,-2.9 15.7,4.16 2.08,1.5 1.76,2.72 1.75,5.6 -0.02,7.56 -0.44,6.62 2.54,12.55 1.71,3.4 3.28,6.55 5,9.96 2.29,4.56 3.57,5.4 3.56,11.32 -0,2.05 -0.56,5.61 0.57,7 0.73,0.91 2.79,2.77 3.7,3.62 6.86,-8.92 11.34,-25.25 12.21,-37.22 0.52,-7.07 -0.25,-15.7 -1.93,-22.36 -2.53,-10.06 -2.96,-9.44 -6.64,-18.02 -3.41,0.91 -7.05,2.31 -10.5,3.46 -6.09,2.03 -5.05,1.91 -11.68,0.81 -2.5,-0.42 -10.07,-1.37 -11.9,-2.13 -2.37,-1 -4.26,-8.02 -6.93,-8.02l-11.71 0c-2.02,0 -2.4,1.09 -4.72,3.4 -3.11,3.09 -3.19,2.43 -2.79,5.04 0.74,4.83 1.4,9.66 2.09,14.54z"/>
   <path class="fil2" d="M55.48 145.92c0.78,-12.92 -2.67,-9.21 6.79,-16.31 1.41,-1.06 3.21,-2.28 4.36,-3.3 0,-9.77 -0.88,-7.3 6.39,-14.58 5.44,-5.45 5.43,-4.07 6.82,-14.58 -9.42,0 -8.55,1.11 -11.63,-4.01 -1.93,-3.21 -4.12,-6.53 -5.82,-9.8 -4.89,-0.45 -11.46,-0.06 -16.53,-0.07 -3.69,-0.01 -3.59,-0.79 -4.93,-3.51 -0.67,-1.34 -2.05,-4.52 -2.86,-5.47l-10.11 10.2c-0.36,0.82 -0.32,5.38 -0.08,6.42 0.13,0.59 4.32,8.84 4.56,9.07 0.77,0.72 9.62,2.16 11.42,2.53 4.45,0.93 3.36,3.7 3.36,10.37 0,4.66 0,9.33 0,13.99 -0,6.6 0.06,6.01 2.22,11.42 0.65,1.63 1.32,3.26 1.94,4.89 0.82,2.13 1.78,2.35 4.12,2.74z"/>
   <path class="fil2" d="M27.77 72.36c0,-3.32 0.63,-3.93 -1.32,-5.77 -0.9,-0.85 -2.71,-2.5 -3.39,-3.44 -1.13,-1.55 -1.48,-10.7 -0.15,-12.25 1.12,-1.29 8.85,-1.91 11.44,-2.29 12.3,-1.79 7.45,-0.37 19.85,-7.74 3.27,-1.95 3.24,-3.17 6.09,-7.9 5.4,-8.98 2.87,-6.86 11.15,-9.67 2.03,-0.69 1.25,-0.53 2.59,-4.29 -3.79,-1.3 -12.02,-1.36 -14.87,-3.02 -7.32,-4.27 -4.18,-5.57 -11.41,-1.75 -12.04,6.36 -21.93,15.16 -28.91,25.76 -1.7,2.59 -5.57,8.61 -6.54,11.67 -0.39,1.25 3.18,12.3 4.28,13.41 0.71,0.71 10.07,6.83 11.2,7.29z"/>
   <path class="fil2" d="M98.76 19.45l-3.17 6.53c3.41,2.45 6.53,1.18 10.31,0.24 6.07,-1.52 4.89,-1.44 10.57,0.46 3.65,1.22 6.74,1.8 10.7,2.6 4.4,0.89 5.6,2.15 9.79,-1.94 -0.9,-1.04 -2.45,-2.36 -3.55,-3.3 -1.4,-1.19 -2.42,-1.97 -3.96,-3.19 -2.64,-2.08 -5.37,-3.6 -8.53,-5.47 -2.61,-1.54 -3.11,-0.36 -9.16,2.69 -4.14,2.09 -6.94,1.38 -13.01,1.38z"/>
  </g>
 </g>
</svg>
