<svg id="Capa_1" enable-background="new 0 0 510.004 510.004" height="512" viewBox="0 0 510.004 510.004" width="512" xmlns="http://www.w3.org/2000/svg"><g><path d="m212.524 491.292c-54.897 21.705-119.874 10.507-165.11-34.09-66.07-65.16-62.27-172.93 6.27-233.56 15.36-13.42 26.88-30.18 34.15-48.64 0 0 31.37-18.9 32.85-28.53 1.81-11.78-24.67-35.47-24.67-35.47-1.704-14.418-3.621-18.928-19.23-72.62-5.58-19.24 8.84-38.38 28.81-38.38h101.26c19.96 0 34.4 19.13 28.8 38.38-15.252 52.397-17.667 58.778-19.24 72.62-.06.52-27.12 24.07-27.18 24.62-2.22 21 34.51 38.97 35.35 39.38.165 0 3.146 9.054 10.26 20.48 20.687 33.527 49.494 40.305 68.55 94.55 2.75 7.81 9.33 132.58 10.82 136.35 3.05 7.71-93.99 61.86-101.69 64.91z" fill="#fb3"/><path d="m212.524 491.292c-17.982 7.11-36.934 10.71-56.3 10.71v-502h50.63c19.96 0 34.4 19.13 28.8 38.38-15.246 52.376-17.682 58.912-19.24 72.62-.06.52-27.12 24.07-27.18 24.62-2.22 21 34.51 38.97 35.35 39.38.462 0 6.109 19.073 23.9 38.58 12.062 13.522 39.105 31.46 54.91 76.45 2.75 7.81 9.33 132.58 10.82 136.35 3.05 7.71-93.99 61.86-101.69 64.91z" fill="#e68a2e"/><path d="m224.594 175.002h-136.75c8.195-20.87 10.789-44.099 8.16-64h120.42c-2.587 19.586-.064 43.353 8.17 64z" fill="#97de3d"/><path d="m224.594 175.002h-68.37v-64h60.2c-2.587 19.586-.064 43.353 8.17 64z" fill="#59c36a"/><path d="m270.984 416.002v85h-78.98v-55c0-16.57 13.43-30 30-30z" fill="#eef4ff"/><path d="m231.494 416.002h39.49v85h-39.49z" fill="#d9e6fc"/><path d="m350.984 280.002v222h-80v-192c0-16.57 13.43-30 30-30z" fill="#97de3d"/><path d="m314.284 280.002h36.7v222h-36.7z" fill="#59c36a"/><path d="m431.324 208.002v291h-80.34v-261c0-16.57 13.43-30 30-30z" fill="#ffe14d"/><path d="m391.154 208.002h40.17v293h-40.17z" fill="#fb3"/><path d="m510.004 166.002v314l-10.425 18.298-68.254-2.298v-330c0-16.57 13.43-30 30-30h18.68c16.569 0 29.999 13.43 29.999 30z" fill="#ff5b5b"/><path d="m510.004 166.002v314l-5.319 18.553-34.021-.766v-361.787h9.34c16.57 0 30 13.43 30 30z" fill="#e50058"/><path d="m510.004 480.002v30h-495c-8.28 0-15-6.72-15-15s6.72-15 15-15z" fill="#4d578c"/><path d="m190.764 269.082c-45.436 102.475-31.803 71.728-50.12 113.04-3.338 7.493-12.109 11.01-19.8 7.63-7.57-3.36-10.99-12.22-7.63-19.79 49.74-112.154 40.577-91.492 50.13-113.04 3.36-7.57 12.22-10.99 19.79-7.63 7.58 3.36 10.99 12.22 7.63 19.79z" fill="#eef4ff"/><path d="m190.764 269.082-34.54 77.9v-74l7.12-16.06c3.36-7.57 12.22-10.99 19.79-7.63 7.58 3.36 10.99 12.22 7.63 19.79z" fill="#d9e6fc"/><path d="m144.651 280.162c0-13.47-10.58-24.43-23.58-24.43-12.99 0-23.57 10.96-23.57 24.43s10.58 24.42 23.57 24.42c13 0 23.58-10.95 23.58-24.42z" fill="#eef4ff"/><path d="m193.221 334.732c-13 0-23.57 10.96-23.57 24.43s10.57 24.42 23.57 24.42 23.57-10.95 23.57-24.42-10.57-24.43-23.57-24.43z" fill="#d9e6fc"/></g></svg>