<?xml version="1.0" encoding="UTF-8"?>
<!DOCTYPE svg PUBLIC "-//W3C//DTD SVG 1.1//EN" "http://www.w3.org/Graphics/SVG/1.1/DTD/svg11.dtd">
<!-- Creator: CorelDRAW 2020 (64-Bit) -->
<svg xmlns="http://www.w3.org/2000/svg" xml:space="preserve" width="110.002mm" height="111.749mm" version="1.1" style="shape-rendering:geometricPrecision; text-rendering:geometricPrecision; image-rendering:optimizeQuality; fill-rule:evenodd; clip-rule:evenodd"
viewBox="0 0 50.77 51.57"
 xmlns:xlink="http://www.w3.org/1999/xlink"
 xmlns:xodm="http://www.corel.com/coreldraw/odm/2003">
 <defs>
  <style type="text/css">
   <![CDATA[
    .fil0 {fill:black}
    .fil5 {fill:#213746}
    .fil9 {fill:#31495D}
    .fil7 {fill:#3C7715}
    .fil11 {fill:#416278}
    .fil8 {fill:#4C8C23}
    .fil12 {fill:#563939}
    .fil2 {fill:#569C2D}
    .fil3 {fill:#74BE4C}
    .fil10 {fill:#AEB9CC}
    .fil4 {fill:#EAA96E}
    .fil1 {fill:#FACA98}
    .fil6 {fill:white}
   ]]>
  </style>
 </defs>
 <g id="Capa_x0020_1">
  <metadata id="CorelCorpID_0Corel-Layer"/>
  <g id="_1704189886496">
   <path class="fil0" d="M15.3 47.29l-1.32 1.31c-0.17,0.31 -0.55,0.71 -0.9,0.88l-6.05 -6.1c-0.41,-0.29 -0.72,-0.68 -1.09,-1.06 -0.37,-0.37 -0.77,-0.67 -1.03,-1.09l-2.79 -2.73 4.3 -4.35 10.99 10.99c-0.16,0.36 -1.73,1.9 -2.1,2.16zm16.95 -19.18c-0.73,1.81 -2.12,2.7 -4.56,2.7 -2.43,-0 -4.95,-0.05 -7.37,0.02 0.29,0.49 4.47,4.54 5.16,5.13 2.24,1.94 5.38,1.51 8.75,1.51 0.84,0 1.68,-0 2.52,0 1.49,0 1.12,0.12 1.92,-0.68l5.14 -5.14c0.92,-0.9 2.25,-1.64 3.62,-1.2 0.44,0.1 0.79,0.19 1.09,0.48 -0.36,0.5 -8.66,8.66 -10.05,10.09 -0.31,0.32 -0.31,0.46 -0.91,0.47 -5.17,0.1 -10.95,-0.01 -16.23,-0.01 -0.57,0 -2.25,-0.13 -2.64,0.1 -0.32,0.18 -0.94,1.03 -1.37,1.32l-8.65 -8.6 1.98 -1.96c0.44,-0.56 1.25,-1.28 1.8,-1.83 0.42,-0.42 1.43,-1.58 1.84,-1.74 0.17,-0.33 0.36,-0.46 0.63,-0.73 0.16,-0.16 0.45,-0.5 0.6,-0.61 0.46,-0.35 1.63,-0.17 2.29,-0.17l14.66 0 -0.23 0.84zm5.5 5.73c0.38,-0.54 1.5,-1.54 2.04,-2.09 0.94,-0.94 3.1,-3.36 4.27,-3.79 0.99,-0.37 2.49,-0.31 3.17,0.36l-0.4 0.35c-0,0 0.07,0.13 -0.4,0.22 -0.89,0.17 -1.5,0.05 -2.74,0.92 -0.77,0.55 -3.43,3.32 -4.29,4.17 -0.43,0.43 -1.72,1.94 -2.24,2 -1.01,0.12 -7.46,0.08 -8.37,-0.09 -1.27,-0.24 -2.09,-0.82 -2.81,-1.44 -0.33,-0.29 -1.86,-1.74 -2.05,-2.14l9.5 -0.01c0.83,0.01 0.71,0.05 1.15,-0.41 0.27,-0.29 0.48,-0.55 0.8,-0.74 0.27,-0.43 1.19,-1.24 1.63,-1.68 1.05,-1.05 2.33,-2.61 3.58,-2.97 1.04,-0.29 2.91,0.18 2.33,0.27l-4.32 4.08c-0.71,0.71 -1.37,1.35 -2.06,2.07 -0.76,0.79 -1.61,0.33 -3.69,0.45l0.02 1.46c0.97,0.05 2.01,0 2.99,0.01 1.64,0.02 0.83,-0.41 1.9,-1.01zm-5.5 -3.04c0.68,-1.15 0.87,-0.51 1.43,-0.93l3.63 -3.63c0.53,-0.5 1.19,-0.94 2.18,-0.94 -0.3,0.24 -0.64,0.38 -0.97,0.63 -0.57,0.43 -3.37,3.3 -4.07,4 -0.87,0.87 -0.53,0.9 -2.2,0.86zm1.79 -3.49l0 -1.51 -18.85 0c-0.29,0 -1.66,1.51 -1.94,1.79 -0.76,0.76 -5.2,5.29 -5.62,5.57l-1.19 -1.13 -6.45 6.4 13.1 13.15 6.45 -6.4 -1.16 -1.21c1.64,-1.13 -0.52,-0.93 4.76,-0.93l14.11 0c1.68,0 1.24,0.12 2.14,-0.78 0.36,-0.36 11.05,-10.94 11.36,-11.41 -0.44,-0.29 -1.22,-1.38 -2.22,-1.61l0.93 -0.99c-0.3,-0.44 -0.54,-0.52 -0.9,-0.85 -1.64,-1.48 -3.15,-0.88 -3.89,-1.45 -0.31,-0.24 -0.69,-0.5 -1.06,-0.65 -1.41,-0.58 -0.71,0.02 -1.81,-0.81 -1.61,-1.22 -3.98,-0.73 -5.48,0.6 -0.69,0.61 -1.61,1.79 -2.29,2.24z"/>
   <path class="fil0" d="M43.51 20.25l-25.45 0.03 -5.4 -0.01 0 -13.94c1.54,0 30.29,-0.14 31,0.07l0.01 12.15c0,0.3 0,0.61 0.01,0.91 0.01,0.88 0.01,0.65 -0.17,0.79zm-33.46 -16.41l-0.4 0 31.39 -0 0.01 1 -29.87 0.01 0 12.93 -1.13 0 0 -13.94zm-2.96 -2.35l30.99 0 -0.01 0.86 -29.49 0.01c-0.14,2.32 -0.02,10.19 -0.02,13.07l-1.47 0 0 -13.94zm-1.57 15.14c0,0.23 0.07,0.3 0.3,0.3l2.72 0c0,3.02 -0.62,2.42 2.62,2.42l0 2.42 33.76 0c0.23,0 0.3,-0.07 0.3,-0.3l0 -16.63 -2.62 0c0,-1.45 0.22,-2.52 -0.3,-2.52l-2.72 0 0 -2.32 -34.06 0 0 16.63z"/>
   <path class="fil1" d="M14.3 28.78c-0.41,0.16 -1.42,1.32 -1.84,1.74 -0.55,0.55 -1.36,1.26 -1.8,1.83 0.07,0.52 1.19,1.39 1.56,1.76 3.91,3.91 5.04,5.85 10.93,5.85 2.72,-0 11.04,0.22 13.16,-0.31 1.95,-0.49 2.93,-1.28 4.29,-2.46l6.98 -6.53 -0.13 -0.21c-1.36,-0.44 -2.7,0.29 -3.62,1.2l-5.14 5.14c-0.8,0.8 -0.43,0.69 -1.92,0.68 -0.84,-0 -1.68,-0 -2.52,-0 -3.37,0 -6.51,0.42 -8.75,-1.51 -0.69,-0.6 -4.87,-4.65 -5.16,-5.13 2.42,-0.07 4.94,-0.02 7.37,-0.02 2.44,0.01 3.83,-0.89 4.56,-2.7 -2.91,-0.18 -6.33,-0.02 -9.3,-0.02 -1.55,0 -3.09,0 -4.64,-0 -1.94,-0 -2.37,0.18 -4.02,0.69z"/>
   <path class="fil2" d="M18.06 20.28c0,-2.01 0.16,-3.43 0.93,-5.08 0.35,-0.74 0.68,-1.29 1.09,-1.84 0.38,-0.51 1.05,-1.29 1.51,-1.52 0.58,-1.6 0.77,-2.2 1.78,-3.26 0.67,-0.7 1.9,-1.5 3.22,-1.81 4.47,-1.06 6.72,2.37 7.11,2.58l9.82 -0.05 0 10.96c0.17,-0.14 0.18,0.09 0.17,-0.79 -0,-0.3 -0.01,-0.61 -0.01,-0.91l-0.01 -12.15c-0.7,-0.2 -29.46,-0.07 -31,-0.07l0 13.94 5.4 0.01z"/>
   <path class="fil3" d="M21.59 11.83c-0.46,0.23 -1.13,1.01 -1.51,1.52 -0.41,0.55 -0.74,1.1 -1.09,1.84 -0.77,1.65 -0.93,3.07 -0.93,5.08l25.45 -0.03 0 -10.96 -9.82 0.05c0.1,0.54 2.23,3.01 0.6,6.73 -1.8,4.12 -7.42,5.37 -10.86,1.99 -1.43,-1.4 -2.27,-3.44 -1.84,-6.23z"/>
   <path class="fil4" d="M10.66 32.35l-1.98 1.96 8.65 8.6c0.43,-0.28 1.05,-1.13 1.37,-1.32 0.39,-0.22 2.07,-0.1 2.64,-0.1 5.29,0 11.06,0.11 16.23,0.01 0.6,-0.01 0.6,-0.16 0.91,-0.47 1.39,-1.43 9.69,-9.59 10.05,-10.09 -0.3,-0.29 -0.65,-0.38 -1.09,-0.48l0.13 0.21 -6.98 6.53c-1.35,1.18 -2.34,1.97 -4.29,2.46 -2.12,0.53 -10.43,0.31 -13.16,0.31 -5.89,0 -7.02,-1.94 -10.93,-5.85 -0.37,-0.37 -1.49,-1.25 -1.56,-1.76z"/>
   <path class="fil5" d="M6.58 40.49l0 0zm-1.68 0.74c0.68,-0.5 0.92,-0.45 1.49,-0.65 0.02,-0.01 0.05,-0.02 0.07,-0.03l0.12 -0.06c2.76,0.41 2.36,0.49 4.8,2.93 0.67,0.67 3.44,3.54 3.92,3.87 0.37,-0.26 1.94,-1.8 2.1,-2.16l-10.99 -10.99 -4.3 4.35 2.79 2.73z"/>
   <path class="fil0" d="M24.96 17.38c-0.86,-0.62 -1.67,-1.68 -1.94,-3.12 -0.28,-1.52 0.18,-3.1 0.9,-4.03 0.63,-0.82 1.62,-1.7 3.01,-2.03 0.72,-0.17 1.52,-0.2 2.26,-0.04 0.37,0.08 0.68,0.16 1,0.31 0.43,0.2 0.61,0.25 0.83,0.53 1.46,0.44 3.67,4.3 1.39,7.31 -2.53,3.35 -6.6,2.19 -7.46,1.06zm-3.37 -5.55c-0.43,2.79 0.41,4.83 1.84,6.23 3.44,3.38 9.06,2.13 10.86,-1.99 1.63,-3.73 -0.5,-6.2 -0.6,-6.73 -0.39,-0.22 -2.64,-3.64 -7.11,-2.58 -1.32,0.31 -2.56,1.11 -3.22,1.81 -1.01,1.06 -1.2,1.66 -1.78,3.26z"/>
   <path class="fil4" d="M30.21 33.36l1.34 0 -0.03 1.49 -1.31 0 -0.01 -1.49zm5.18 -2.21c-0.33,0.19 -0.53,0.45 -0.8,0.74 -0.44,0.46 -0.31,0.42 -1.15,0.41l-9.5 0.01c0.2,0.41 1.72,1.85 2.05,2.14 0.71,0.62 1.54,1.21 2.81,1.44 0.91,0.17 7.36,0.22 8.37,0.09 0.51,-0.06 1.81,-1.58 2.24,-2 0.86,-0.86 3.52,-3.63 4.29,-4.17 1.23,-0.87 1.85,-0.75 2.74,-0.92 0.47,-0.09 0.39,-0.22 0.4,-0.22 -2.51,-0.1 -2.47,-0.05 -5.1,2l-3.97 3.18c-1.07,0.6 -0.26,1.03 -1.9,1.01 -0.98,-0.01 -2.02,0.04 -2.99,-0.01l-0.02 -1.46c2.08,-0.12 2.93,0.35 3.69,-0.45 0.69,-0.72 1.36,-1.36 2.06,-2.07l4.32 -4.08c-3.26,0.4 -4.85,2.46 -7.19,4.26 -0.46,0.35 -0.23,0.2 -0.34,0.12z"/>
   <path class="fil6" d="M28.56 9.34l0 1.05c0.5,0.06 0.99,0.19 1.31,0.43l-0 1.22c-0.52,-0.28 -1.77,-1.09 -2.53,-0.4 -0.28,1.22 1.96,0.76 2.77,1.76 0.43,0.54 0.18,1.36 -0.14,1.77 -0.3,0.38 -1.2,0.65 -1.36,0.95l-0.03 0.95 -0.96 0.01 -0.09 -1.13c-0.41,-0.26 -1.03,-0.38 -1.41,-0.74l-0.01 -1.38c0.65,0.74 1.32,1.27 2.58,0.99 0.5,-0.11 0.59,-0.25 0.51,-0.82 -0.83,-0.45 -2.28,-0.48 -2.77,-1.15 -0.55,-0.74 -0.39,-1.91 1.07,-2.47l0.01 -0.45c-0.98,0.43 -2,1.71 -2.48,2.92 -0.25,0.63 -0.42,1.41 -0.43,2.16 -0.01,1.01 0.25,1.52 0.36,2.37 0.86,1.12 4.93,2.28 7.46,-1.06 2.27,-3.01 0.07,-6.87 -1.39,-7.31 -1.07,-0.11 -1.54,0.13 -2.47,0.33z"/>
   <path class="fil7" d="M7.08 15.43l1.47 0c0,-2.88 -0.12,-10.75 0.02,-13.07l29.49 -0.01 0.01 -0.86 -30.99 0 0 13.94z"/>
   <polygon class="fil8" points="10.05,17.78 11.17,17.78 11.17,4.85 41.04,4.84 41.04,3.84 9.65,3.84 10.05,3.84 "/>
   <path class="fil9" d="M4.9 41.22c0.26,0.43 0.67,0.73 1.03,1.09 0.37,0.37 0.68,0.77 1.09,1.06l0.23 -0.09c0.59,-0.12 1.65,0.33 2.09,0.66l4.62 4.66 1.32 -1.31c-0.48,-0.33 -3.25,-3.2 -3.92,-3.87 -2.44,-2.44 -2.04,-2.52 -4.8,-2.93l-0.12 0.06c-0.02,0.01 -0.05,0.02 -0.07,0.03 -0.58,0.21 -0.81,0.15 -1.49,0.65z"/>
   <path class="fil10" d="M24.96 17.38c-0.11,-0.84 -0.38,-1.36 -0.36,-2.37 0.01,-0.75 0.18,-1.53 0.43,-2.16 0.48,-1.21 1.5,-2.49 2.48,-2.92l-0 -0.87 0.9 -0.01c0.23,0.15 0.14,-0.13 0.17,0.29 0.92,-0.2 1.39,-0.44 2.47,-0.33 -0.22,-0.28 -0.4,-0.33 -0.83,-0.53 -0.32,-0.15 -0.63,-0.23 -1,-0.31 -0.75,-0.16 -1.54,-0.13 -2.26,0.04 -1.4,0.33 -2.38,1.21 -3.01,2.03 -0.72,0.93 -1.19,2.51 -0.9,4.03 0.27,1.44 1.09,2.5 1.94,3.12z"/>
   <path class="fil0" d="M27.5 9.93l-0.01 0.45c-1.46,0.56 -1.62,1.74 -1.07,2.47 0.49,0.66 1.94,0.7 2.77,1.15 0.08,0.58 -0,0.71 -0.51,0.82 -1.26,0.28 -1.93,-0.25 -2.58,-0.99l0.01 1.38c0.39,0.36 1,0.48 1.41,0.74l0.09 1.13 0.96 -0.01 0.03 -0.95c0.16,-0.3 1.06,-0.57 1.36,-0.95 0.32,-0.41 0.58,-1.23 0.14,-1.77 -0.81,-1.01 -3.05,-0.55 -2.77,-1.76 0.76,-0.69 2.01,0.12 2.53,0.4l0 -1.22c-0.32,-0.24 -0.8,-0.36 -1.31,-0.43l-0 -1.05c-0.03,-0.42 0.06,-0.14 -0.17,-0.29l-0.9 0.01 0 0.87z"/>
   <path class="fil4" d="M14.3 28.78c1.65,-0.51 2.08,-0.69 4.02,-0.69 1.55,0 3.09,0 4.64,0 2.97,0 6.39,-0.16 9.3,0.02l0.23 -0.84 -14.66 -0c-0.66,0 -1.83,-0.18 -2.29,0.17 -0.15,0.11 -0.44,0.45 -0.6,0.61 -0.27,0.27 -0.46,0.4 -0.63,0.73z"/>
   <path class="fil11" d="M13.97 48.59l-4.62 -4.66c-0.45,-0.33 -1.5,-0.78 -2.09,-0.66l-0.23 0.09 6.05 6.1c0.35,-0.17 0.74,-0.56 0.9,-0.88z"/>
   <path class="fil1" d="M37.75 33.84l3.97 -3.18c2.63,-2.05 2.59,-2.09 5.1,-2l0.4 -0.35c-0.68,-0.67 -2.18,-0.73 -3.17,-0.36 -1.17,0.44 -3.32,2.85 -4.27,3.79 -0.54,0.54 -1.66,1.54 -2.04,2.09z"/>
   <path class="fil4" d="M32.25 30.8c1.67,0.04 1.33,0.01 2.2,-0.86 0.7,-0.7 3.5,-3.56 4.07,-4 0.33,-0.25 0.68,-0.39 0.97,-0.63 -0.99,-0.01 -1.65,0.43 -2.18,0.94l-3.63 3.63c-0.56,0.41 -0.75,-0.22 -1.43,0.93z"/>
   <path class="fil1" d="M35.39 31.15c0.11,0.08 -0.11,0.23 0.34,-0.12 2.34,-1.8 3.93,-3.86 7.19,-4.26 0.58,-0.09 -1.29,-0.56 -2.33,-0.27 -1.26,0.35 -2.53,1.91 -3.58,2.97 -0.43,0.43 -1.35,1.25 -1.63,1.68z"/>
   <polygon class="fil0" points="0.68,23.08 2.29,23.08 2.29,21.36 0.68,21.36 "/>
   <path class="fil0" d="M1.89 8.97l0 1.41 1.61 0c0,-2.03 0.29,-1.71 -1.31,-1.71 -0.23,0 -0.3,0.07 -0.3,0.3z"/>
   <polygon class="fil0" points="44.92,41.82 46.53,41.82 46.53,40.21 44.92,40.21 "/>
   <polygon class="fil0" points="8.54,25.7 10.05,25.7 10.05,23.99 8.54,23.99 "/>
   <polygon class="fil0" points="42.6,49.78 44.12,49.78 44.12,48.07 42.6,48.07 "/>
   <polygon class="fil0" points="27.39,47.37 28.9,47.37 28.9,45.65 27.39,45.65 "/>
   <polygon class="fil0" points="30.21,34.85 31.52,34.85 31.55,33.36 30.21,33.36 "/>
   <path class="fil12" d="M5.85 37.99c-0.67,0.46 -0.02,1.19 0.51,0.95 0.67,-0.3 0.15,-1.41 -0.51,-0.95z"/>
   <path class="fil0" d="M5.85 37.99c0.66,-0.46 1.18,0.65 0.51,0.95 -0.53,0.24 -1.18,-0.48 -0.51,-0.95zm0.74 2.49l0 0z"/>
  </g>
 </g>
</svg>
