<?xml version="1.0" encoding="UTF-8"?>
<!DOCTYPE svg PUBLIC "-//W3C//DTD SVG 1.1//EN" "http://www.w3.org/Graphics/SVG/1.1/DTD/svg11.dtd">
<!-- Creator: CorelDRAW 2020 (64-Bit) -->
<svg xmlns="http://www.w3.org/2000/svg" xml:space="preserve" width="13.465mm" height="13.465mm" version="1.1" style="shape-rendering:geometricPrecision; text-rendering:geometricPrecision; image-rendering:optimizeQuality; fill-rule:evenodd; clip-rule:evenodd"
viewBox="0 0 0.67 0.67"
 xmlns:xlink="http://www.w3.org/1999/xlink"
 xmlns:xodm="http://www.corel.com/coreldraw/odm/2003">
 <defs>
  <style type="text/css">
   <![CDATA[
    .fil0 {fill:#EBECF1}
    .fil8 {fill:black;fill-rule:nonzero}
    .fil3 {fill:#565C62;fill-rule:nonzero}
    .fil2 {fill:#596674;fill-rule:nonzero}
    .fil5 {fill:#BAB8B9;fill-rule:nonzero}
    .fil4 {fill:#D9D7D8;fill-rule:nonzero}
    .fil7 {fill:#DB2534;fill-rule:nonzero}
    .fil6 {fill:#FC4755;fill-rule:nonzero}
    .fil1 {fill:yellow;fill-rule:nonzero}
   ]]>
  </style>
 </defs>
 <g id="Capa_x0020_1">
  <metadata id="CorelCorpID_0Corel-Layer"/>
  <circle class="fil0" cx="0.34" cy="0.34" r="0.34"/>
  <g id="_2103369601744">
   <path class="fil1" d="M0.27 0.51c-0.01,0 -0.02,-0.01 -0.02,-0.02l0 -0.06c0,-0.01 0.01,-0.02 0.02,-0.02l0.12 0c0.05,0 0.09,-0.04 0.09,-0.09 0,-0.05 -0.04,-0.09 -0.09,-0.09l-0.03 0c-0.01,0 -0.02,-0.01 -0.02,-0.02 0,-0.01 0.01,-0.02 0.02,-0.02l0.03 0c0.08,0 0.14,0.06 0.14,0.14 0,0.08 -0.06,0.14 -0.14,0.14l-0.1 0 0 0.04c0,0.01 -0.01,0.02 -0.02,0.02l0 0zm0 0z"/>
   <path class="fil2" d="M0.31 0.33l-0.08 0c-0,0 -0.01,-0 -0.01,-0.01l0 -0.27 0.1 0 0 0.27c0,0 -0,0.01 -0.01,0.01l0 0zm0 0z"/>
   <path class="fil3" d="M0.26 0.33l0 -0.27 -0.03 0 0 0.27c0,0 0,0.01 0.01,0.01l0.03 0c-0,0 -0.01,-0 -0.01,-0.01zm0 0z"/>
   <path class="fil4" d="M0.33 0.28l-0.11 0c-0.01,0 -0.01,-0.01 -0.01,-0.01l0 -0.14c0,-0.01 0.01,-0.01 0.01,-0.01l0.11 0c0.01,0 0.01,0.01 0.01,0.01l0 0.14c0,0.01 -0.01,0.01 -0.01,0.01zm0 0z"/>
   <path class="fil5" d="M0.24 0.26l0 -0.14c0,-0.01 0.01,-0.01 0.01,-0.01l-0.03 0c-0.01,0 -0.01,0.01 -0.01,0.01l0 0.14c0,0.01 0.01,0.01 0.01,0.01l0.03 0c-0.01,0 -0.01,-0.01 -0.01,-0.01l0 0zm0 0z"/>
   <path class="fil4" d="M0.33 0.09l-0.11 0c-0,0 -0,-0 -0,-0l0 -0.03c0,-0 0,-0 0,-0l0.11 0c0,0 0,0 0,0l0 0.03c0,0 -0,0 -0,0zm0 0z"/>
   <path class="fil5" d="M0.24 0.08l0 -0.03c0,-0 0,-0 0,-0l-0.03 0c-0,0 -0,0 -0,0l0 0.03c0,0 0,0 0,0l0.03 0c-0,0 -0,-0 -0,-0l0 0zm0 0z"/>
   <path class="fil6" d="M0.39 0.19c0,0.03 -0.02,0.05 -0.05,0.05 -0.03,0 -0.05,-0.02 -0.05,-0.05 0,-0.03 0.02,-0.05 0.05,-0.05 0.03,0 0.05,0.02 0.05,0.05zm0 0z"/>
   <path class="fil7" d="M0.32 0.19c0,-0.02 0.02,-0.04 0.04,-0.05 -0,-0 -0.01,-0 -0.02,-0 -0.03,0 -0.05,0.02 -0.05,0.05 0,0.03 0.02,0.05 0.05,0.05 0.01,0 0.01,-0 0.02,-0 -0.02,-0.01 -0.04,-0.03 -0.04,-0.05zm0 0z"/>
   <path class="fil6" d="M0.37 0.44l-0.19 0c-0.01,0 -0.02,-0.01 -0.02,-0.02 0,-0.01 0.01,-0.02 0.02,-0.02l0.19 0c0.01,0 0.02,0.01 0.02,0.02 0,0.01 -0.01,0.02 -0.02,0.02zm0 0z"/>
   <path class="fil7" d="M0.18 0.42c0,-0.01 0.01,-0.02 0.02,-0.02l-0.03 0c-0.01,0 -0.02,0.01 -0.02,0.02 0,0.01 0.01,0.02 0.02,0.02l0.03 0c-0.01,0 -0.02,-0.01 -0.02,-0.02zm0 0z"/>
   <path class="fil2" d="M0.52 0.56l-0.35 0c-0.01,0 -0.01,-0.01 -0.01,-0.01l0 -0.05c0,-0.01 0.01,-0.01 0.01,-0.01l0.35 0c0.01,0 0.01,0.01 0.01,0.01l0 0.05c0,0.01 -0.01,0.01 -0.01,0.01zm0 0z"/>
   <path class="fil3" d="M0.18 0.55l0 -0.05c0,-0.01 0.01,-0.01 0.01,-0.01l-0.03 0c-0.01,0 -0.01,0.01 -0.01,0.01l0 0.05c0,0.01 0.01,0.01 0.01,0.01l0.03 0c-0.01,0 -0.01,-0.01 -0.01,-0.01zm0 0z"/>
   <path class="fil8" d="M0.52 0.47l-0.04 0c-0,0 -0.01,0 -0.01,0.01 0,0 0,0.01 0.01,0.01l0.04 0c0,0 0.01,0 0.01,0.01l0 0.05c0,0 -0,0.01 -0.01,0.01l-0.35 0c-0,0 -0.01,-0 -0.01,-0.01l0 -0.05c0,-0 0,-0.01 0.01,-0.01l0.28 0c0,0 0.01,-0 0.01,-0.01 0,-0 -0,-0.01 -0.01,-0.01l-0.14 0 0 -0.02 0.09 0c0.08,0 0.15,-0.07 0.15,-0.15 0,-0.08 -0.07,-0.15 -0.15,-0.15 -0.01,-0.01 -0.02,-0.03 -0.04,-0.03l0 -0.01c0,-0.01 -0.01,-0.02 -0.02,-0.02l-0 0 0 -0.01c0.01,-0 0.01,-0.01 0.01,-0.01l0 -0.03c0,-0.01 -0.01,-0.01 -0.01,-0.01l-0.11 0c-0.01,0 -0.01,0.01 -0.01,0.01l0 0.03c0,0.01 0,0.01 0.01,0.01l0 0.01 -0 0c-0.01,0 -0.02,0.01 -0.02,0.02l0 0.14c0,0.01 0.01,0.02 0.02,0.02l0 0 0 0.04c0,0.01 0.01,0.02 0.02,0.02l0.08 0c0.01,0 0.02,-0.01 0.02,-0.02l0 -0.04 0 0c0.01,0 0.02,-0.01 0.02,-0.02l0 -0.01c0.02,-0 0.03,-0.01 0.04,-0.03 0.04,0 0.08,0.04 0.08,0.08 0,0.04 -0.04,0.08 -0.08,0.08l-0.22 0c-0.02,0 -0.03,0.01 -0.03,0.03 0,0.02 0.01,0.03 0.03,0.03l0.07 0 0 0.02 -0.08 0c-0.01,0 -0.02,0.01 -0.02,0.02l0 0.05c0,0.01 0.01,0.02 0.02,0.02l0.35 0c0.01,0 0.02,-0.01 0.02,-0.02l0 -0.05c0,-0.01 -0.01,-0.02 -0.02,-0.02zm-0.3 -0.42l0.1 0 0 0.03 -0.1 0 0 -0.03zm0.01 0.04l0.08 0 0 0.01 -0.08 0 0 -0.01zm0.1 0.17l-0.04 0c-0,0 -0.01,0 -0.01,0.01 0,0 0,0.01 0.01,0.01l0.03 0 0 0.04c0,0 -0,0 -0,0l-0.08 0c-0,0 -0,-0 -0,-0l0 -0.04 0.03 0c0,0 0.01,-0 0.01,-0.01 0,-0 -0,-0.01 -0.01,-0.01l-0.04 0c-0,0 -0,-0 -0,-0l0 -0.14c0,-0 0,-0 0,-0l0.11 0c0,0 0,0 0,0l0 0.01c-0.03,0 -0.05,0.03 -0.05,0.06 0,0.03 0.02,0.06 0.05,0.06l0 0.01c0,0 -0,0 -0,0l0 0zm0.01 -0.03c-0,0 -0,-0 -0,-0 -0,0 -0,0 -0,0 -0.02,-0 -0.04,-0.02 -0.04,-0.04 0,-0.02 0.02,-0.04 0.04,-0.04 0.02,0 0.04,0.02 0.04,0.04 0,0.02 -0.02,0.04 -0.04,0.04l0 0zm0.15 0.07c0,-0.05 -0.04,-0.09 -0.09,-0.1 0,-0.01 0,-0.01 0,-0.02 0,-0.01 -0,-0.01 -0,-0.02 0.07,0 0.12,0.06 0.12,0.13 0,0.07 -0.06,0.13 -0.12,0.13 0,-0 0,-0.01 0,-0.02 0,-0.01 -0,-0.01 -0,-0.02 0.05,-0 0.09,-0.05 0.09,-0.1l0 0zm-0.33 0.11c0,-0.01 0.01,-0.02 0.02,-0.02l0.19 0c0.01,0 0.02,0.01 0.02,0.02 0,0.01 -0.01,0.02 -0.02,0.02l-0.12 0c0,0 -0,-0 -0,-0 -0,0 -0,0 -0,0l-0.07 0c-0.01,0 -0.02,-0.01 -0.02,-0.02l0 0zm0.1 0.03l0.03 0 0 0.02 -0.03 0 0 -0.02zm0 0z"/>
  </g>
 </g>
</svg>
