<?xml version="1.0" encoding="UTF-8"?>
<!DOCTYPE svg PUBLIC "-//W3C//DTD SVG 1.1//EN" "http://www.w3.org/Graphics/SVG/1.1/DTD/svg11.dtd">
<!-- Creator: CorelDRAW 2020 (64-Bit) -->
<svg xmlns="http://www.w3.org/2000/svg" xml:space="preserve" width="21.863mm" height="21.863mm" version="1.1" style="shape-rendering:geometricPrecision; text-rendering:geometricPrecision; image-rendering:optimizeQuality; fill-rule:evenodd; clip-rule:evenodd"
viewBox="0 0 85.69 85.69"
 xmlns:xlink="http://www.w3.org/1999/xlink"
 xmlns:xodm="http://www.corel.com/coreldraw/odm/2003">
 <defs>
  <style type="text/css">
   <![CDATA[
    .fil1 {fill:black}
    .fil12 {fill:#1CA8FF}
    .fil9 {fill:#60B8FD}
    .fil5 {fill:#665E68}
    .fil6 {fill:#7B6C79}
    .fil18 {fill:#918291}
    .fil16 {fill:#935B43}
    .fil8 {fill:#AD6A50}
    .fil10 {fill:#B5DCFF}
    .fil2 {fill:#BC7A61}
    .fil4 {fill:#C58E77}
    .fil0 {fill:#CCCCCC}
    .fil7 {fill:#D9ECFF}
    .fil15 {fill:#ED5469}
    .fil14 {fill:#F16F80}
    .fil13 {fill:#FDCCBD}
    .fil17 {fill:#FFB1A0}
    .fil11 {fill:#FFCEBE}
    .fil3 {fill:#FFDDCD}
   ]]>
  </style>
 </defs>
 <g id="Capa_x0020_1">
  <metadata id="CorelCorpID_0Corel-Layer"/>
  <circle class="fil0" cx="42.84" cy="42.84" r="42.84"/>
  <g id="_3043642408272">
   <path class="fil1" d="M43.06 49.32c0.69,0.44 1.26,0.8 1.95,1.25 0.64,0.42 1.31,1 2.02,1.24l-0.85 22.27 -3.39 0.02 -3.42 -0.03 -0.84 -22.16c0.65,-0.51 1.42,-0.94 2.12,-1.39 0.76,-0.49 1.41,-0.99 2.11,-1.38l0.3 0.18zm-6.15 -47.95l1.32 0c1.87,0.17 3.61,0.97 5.62,0.7 1.47,-0.2 2.67,-0.59 3.85,-0.7l1.21 0c0.76,0.08 1.56,0.33 2.45,0.87 1.99,1.19 2.69,3.2 3.39,5.69 0.32,1.15 0.61,2.3 0.91,3.63 0.18,0.8 0.67,3.01 0.67,3.72 1.28,0 2.89,-0.1 3.92,0.18 0.89,0.24 1.71,1.06 1.79,2.16 0.25,3.37 -0.26,4.68 -3.22,4.68 1.91,3.6 -1.02,7.33 -4.39,7.61 -0.64,2.74 -1.41,4.86 -3.32,6.77 -1.02,1.02 -1.36,0.53 -1.36,2.01 0.35,0.09 1.54,0.75 1.95,0.98 2.02,1.13 2.6,1.22 4.11,3.06 0.54,0.66 3.92,1.71 4.92,2.1 3.36,1.34 4.86,1.48 7.35,4.06 0.46,0.47 0.89,1.12 1.25,1.68 0.37,0.58 0.65,1.26 0.88,1.9 0.86,2.32 0.81,5.06 0.76,7.74 -0.02,0.96 -0.38,1.5 -1.18,1.55 -1.76,-0.26 -0.98,-2.31 -1.13,-5.81 -0.1,-2.25 -0.94,-3.89 -1.97,-5.24 -1.08,-1.41 -2.19,-1.99 -4.33,-2.84 -1.6,-0.63 -3.52,-1.45 -5.13,-1.96 0.14,1.32 1.57,2.79 0.73,4.22 -0.6,1.02 -2.75,1.34 -3.48,2.17 0.8,1.31 2.95,4.19 2.87,5.26 -0.06,0.74 -5.89,11.84 -6.89,13.75 -0.4,0.76 -1,2.13 -1.39,2.73l11.39 0.07 0 -15.08c0,-1.3 -0.49,-3.97 1,-4.09 1.68,-0.13 1.19,2.4 1.19,3.79l0 15.33c0.93,0.1 2.08,0.04 3.04,0.04 4.38,0 2.66,0.36 2.98,-8.05 0.04,-1.16 0.39,-1 1.08,-1.46 0.85,0.35 1.17,0.38 1.22,1.6 0.03,0.84 -0.01,1.79 -0.01,2.64 0,2.99 0.84,7.3 -3.11,7.46l-48.26 0 -2.13 0c-0.86,-0.06 -1.42,-0.29 -2.16,-1.13 -0.93,-1.05 -0.69,-2.7 -0.69,-4.58 0,-3.56 0,-7.12 0,-10.68 -1.42,0.95 -2.54,3.68 -5.82,0.4 -0.8,-0.8 -1.63,-1.28 -1.87,-2.68 -0.26,-1.5 0.71,-2.23 1.43,-2.95 1.57,-1.57 3.04,-3.04 4.61,-4.61 1.17,-1.17 2.33,-2.91 4.34,-2.37 0.73,0.2 0.92,0.47 1.37,0.76l1.5 -1.43c-0.54,-0.81 -1.19,-1.54 -1.61,-2.49 -1.43,-3.21 -1.51,-6.6 -0.19,-9.7 1.45,-3.43 5.16,-6.67 8.82,-6.98 -0.23,-0.86 -1.93,-2.46 -0.44,-5.56 -1.08,0 -1.25,0.08 -2.01,-0.33 -1.92,-1.05 -1.29,-4.63 -0.97,-5.28 0.52,-1.05 1.6,-1.42 3.12,-1.42 2.95,0 2.56,0.16 2.71,-0.8 0.53,-3.31 1.54,-8.65 3.5,-11.14 0.49,-0.62 1.8,-1.45 2.67,-1.72 0.39,-0.12 0.76,-0.2 1.13,-0.24zm-24.41 57.26c-0.21,0.36 -0.47,0.76 -0.95,0.92 -0.53,-0.08 -2.12,-1.66 -2.37,-2.14 0.06,-0.83 1.4,-1.85 1.91,-2.36 0.74,-0.74 1.38,-1.38 2.12,-2.12 2.63,-2.63 3.41,-4.15 4.48,-2.11 0.45,0.01 1.28,0.92 1.16,1.46 -0.04,0.17 -5.85,6.08 -6.36,6.33zm20.4 -7.99c0.59,-0.19 1.19,-0.43 1.75,-0.71 0.59,-0.3 1,-0.76 1.57,-0.83l0.75 21c-0.84,-1.44 -1.82,-3.38 -2.51,-4.86 -0.78,-1.66 -1.69,-3.25 -2.55,-4.91 -1.96,-3.82 -1.89,-2.15 1.16,-7 0.77,-1.22 0.28,-1.71 -0.17,-2.69zm-12.53 23.46c-3.84,0.02 -3.48,0.5 -3.48,-3.36 0,-1.54 -0.12,-12.76 0.09,-13.27 0.14,-0.35 2.93,-3.05 3.31,-3.32 1.35,-2.04 0.79,-2.66 -0.07,-4.06l1.54 -1.53c1.48,0.9 2.11,1.63 4.32,2.24 1.02,0.28 1.7,0.3 2.74,0.43 0.57,0.07 1.84,0.67 2.26,1.07 -0.63,1.19 -3.03,4.1 -2.86,5.4 0.13,1 7.68,14.66 8.26,16.4l-11.38 0 0 -15.37c0,-1.28 0.49,-3.8 -1.11,-3.8 -1.61,0 -1.08,2.86 -1.08,4.09l0 15.06 -2.54 0.01zm29.27 -32.89c0.5,0.11 1.82,0.89 2.38,1.19 0.81,0.44 1.45,0.88 1.93,1.59 0.4,0.59 1.85,4.27 1.96,5.08 -2.21,0.84 -4.95,1.97 -3.35,4.36 2.64,3.95 2.81,3.54 1.89,5.35 -0.96,1.9 -1.98,3.84 -2.93,5.71l-2.2 4.22c-0.27,0.53 -0.38,0.98 -0.79,1.35l1.11 -28.85zm-2.33 3.63l-0.17 4.41c-0.4,-0.06 -2.2,-1.31 -2.56,-1.64l2.73 -2.77zm-8.9 4.43c-0.01,-0.5 -0.13,-1.82 -0.04,-2.21 0.06,-0.27 0.67,-1.05 0.89,-1.28 0.24,0.35 1.3,1.04 1.72,1.83 -0.62,0.53 -1.75,1.33 -2.57,1.66zm4.45 -3.2c-0.2,0.03 -0.92,-0.64 -1.26,-1 -2.25,-2.38 -0.87,-1.09 -0.57,-5.19l1.75 0.09c2.28,-0.01 2.92,-0.52 4.74,-0.88 -0.08,3.08 0.18,1.98 -1.09,3.31 -0.74,0.78 -2.93,3.33 -3.57,3.68zm-13.97 -16.19c5.42,-0.02 9.6,3.78 9.93,8.95 0.2,3.15 -1.01,5.29 -2.41,7.02 -0.79,0.98 -3.92,3.32 -6.18,3.03 -0.92,0.59 -3.24,-0.05 -4.21,-0.39 -9.39,-3.35 -8.18,-17.84 2.85,-18.61zm9.64 -7.6l13.72 0c0,3.56 0.46,7.93 -1.17,10.73 -1.43,2.46 -4.8,5 -7.21,4.61 -0.56,0.34 -2.35,0.23 -2.91,-0.11 -0.1,-0.1 -1.49,-7.31 -7.65,-9.07l-0 -6.16 5.22 -0zm17.67 4.44c-0.4,0.44 -0.91,0.76 -1.76,0.86l0 -5.29 1.44 -0.01c0.41,0.12 0.24,0.01 0.44,0.31 0.97,1.14 1.04,3.28 -0.12,4.13zm-25.09 0.84c-2,-0.09 -3.64,-2.51 -2.05,-4.72 0.51,-0.71 0.89,-0.65 2.06,-0.53l-0.01 5.24zm-0.69 -9.98c3.3,-0.01 28.34,-0.25 29.32,0.12 0.09,0.61 0.16,1.79 -0.05,2.2l-0.45 0.19c-0.1,0.02 -0.46,0.02 -0.57,0.02 -5.41,-0.01 -32.51,0.14 -32.8,-0.15 -0.23,-0.49 -0.15,-1.61 -0.07,-2.28 0.85,-0.25 3.56,-0.1 4.61,-0.1zm9.37 -13.65c2.07,0.28 2.65,0.68 4.84,0.25 2.98,-0.57 5.83,-1.63 7.3,2.31 0.46,1.23 0.98,2.9 1.24,4.28 -1.63,0 -3.26,0 -4.89,0 -2.38,0 -3.27,-0.34 -3.99,0.69 -0.07,2.13 2.23,1.5 4.14,1.5 1.74,0 3.49,-0.01 5.23,0 0.18,0.65 0.4,1.45 0.32,2.08 0.05,0.11 0.09,0.07 0.04,0.26 -0.05,0.2 0.02,0.01 -0.17,0.11l-22.13 -0.03 0.49 -2.41 8.29 -0.04c0.66,-0.27 0.83,-0.64 0.79,-1.47 -0.53,-0.65 -0.45,-0.7 -1.62,-0.7 -0.79,-0 -1.57,0.01 -2.36,0.01l-4.63 -0.05c0.97,-4.35 1.8,-8.25 7.13,-6.79z"/>
   <path class="fil2" d="M69.74 64.58l0.04 -2.83c-1.76,-0.26 -0.98,-2.31 -1.13,-5.81 -0.1,-2.25 -0.94,-3.89 -1.97,-5.24 -1.08,-1.41 -2.19,-1.99 -4.33,-2.84 -1.6,-0.63 -3.52,-1.45 -5.13,-1.96 0.14,1.32 1.57,2.79 0.73,4.22 -0.6,1.02 -2.75,1.34 -3.48,2.17 0.8,1.31 2.95,4.19 2.87,5.26 -0.06,0.74 -5.89,11.84 -6.89,13.75 -0.4,0.76 -1,2.13 -1.39,2.73l11.39 0.07 0 -15.08c0,-1.3 -0.49,-3.97 1,-4.09 1.68,-0.13 1.19,2.4 1.19,3.79l0 15.33c0.93,0.1 2.08,0.04 3.04,0.04 4.38,0 2.66,0.36 2.98,-8.05 0.04,-1.16 0.39,-1 1.08,-1.46z"/>
   <path class="fil2" d="M20.28 54.14c-0.16,3.21 -0.02,6.76 -0.02,10 0,2.53 -0.29,7.73 0.1,9.95l2.54 -0.01 -0 -15.06c0,-1.23 -0.52,-4.09 1.08,-4.09 1.6,-0 1.11,2.51 1.11,3.8l0 15.37 11.38 0c-0.58,-1.74 -8.13,-15.41 -8.26,-16.4 -0.17,-1.3 2.23,-4.21 2.86,-5.4 -0.43,-0.4 -1.69,-1 -2.26,-1.07 -1.04,-0.14 -1.72,-0.15 -2.74,-0.43 -2.2,-0.61 -2.84,-1.34 -4.32,-2.24l-1.54 1.53c0.87,1.4 1.42,2.03 0.07,4.06z"/>
   <path class="fil3" d="M43.86 37.61c2.41,0.39 5.78,-2.16 7.21,-4.61 1.63,-2.8 1.17,-7.16 1.17,-10.73l-13.72 -0c0,2.97 -0.31,7.06 0.62,9.72 0.83,2.38 2.87,4.85 4.72,5.62z"/>
   <path class="fil4" d="M48.52 70.05c0.4,-0.38 0.52,-0.82 0.79,-1.35l2.2 -4.22c0.95,-1.86 1.96,-3.81 2.93,-5.71 0.92,-1.81 0.74,-1.4 -1.89,-5.35 -1.6,-2.39 1.14,-3.52 3.35,-4.36 -0.11,-0.82 -1.56,-4.49 -1.96,-5.08 -0.48,-0.7 -1.12,-1.15 -1.93,-1.59 -0.56,-0.3 -1.88,-1.09 -2.38,-1.19l-1.11 28.85z"/>
   <path class="fil2" d="M39.78 3.93c-0.33,0.56 -0.61,0.8 -0.91,1.51 -0.23,0.54 -0.44,1.15 -0.62,1.72 -0.33,1.06 -0.84,2.52 -0.97,3.61 0.79,-0 1.57,-0.01 2.36,-0.01 1.17,0 1.09,0.05 1.62,0.7 0.33,0.36 0.27,-0.44 0.27,0.4l2.51 0c-0.02,-0.84 -0.06,-0.05 0.23,-0.4 0.72,-1.03 1.61,-0.69 3.99,-0.69 1.63,0 3.26,0 4.89,0 -0.25,-1.38 -0.78,-3.05 -1.24,-4.28 -1.46,-3.94 -4.32,-2.89 -7.3,-2.31 -2.19,0.42 -2.77,0.03 -4.84,-0.25z"/>
   <path class="fil5" d="M42.78 74.1c0,-7.44 0.12,-15.86 -0,-23.27 -0.01,-0.85 -0.11,-1.19 0.28,-1.51l-0.3 -0.18c-0.7,0.39 -1.35,0.89 -2.11,1.38 -0.7,0.45 -1.47,0.89 -2.12,1.39l0.84 22.16 3.42 0.03z"/>
   <path class="fil6" d="M42.78 74.1l3.39 -0.02 0.85 -22.27c-0.71,-0.24 -1.38,-0.82 -2.02,-1.24 -0.69,-0.45 -1.26,-0.81 -1.95,-1.25 -0.38,0.32 -0.29,0.66 -0.28,1.51 0.12,7.41 0,15.83 0,23.27z"/>
   <path class="fil1" d="M30.03 34.34c2.33,-0.03 4.39,2.47 4.48,4.92 0.1,2.67 -1.88,4.98 -4.16,5.27 -1.41,0.73 -3.69,-0.39 -4.47,-1.02 -2.36,-1.92 -2.6,-5.7 -0.1,-8 0.57,-0.52 3.15,-1.96 4.26,-1.16zm-4.57 -1.4c-0.03,0.03 -0.07,0.03 -0.09,0.08l-1.33 1.05c-0.33,0.3 -0.87,0.96 -1.17,1.46 -1.86,3.13 -1.32,6.67 1.25,9.28 0.3,0.3 0.34,0.38 0.69,0.62 0.49,0.34 0.45,0.18 0.76,0.61 0.57,0.08 1.08,0.41 1.71,0.58 4.83,1.28 9.53,-2.34 9.41,-7.37 -0.12,-4.97 -4.85,-8.29 -9.47,-6.98 -0.66,0.19 -1.26,0.57 -1.77,0.67z"/>
   <path class="fil4" d="M59.69 19.9c0.21,-0.41 0.14,-1.58 0.05,-2.2 -0.98,-0.37 -26.02,-0.13 -29.32,-0.12l-0.01 2.36c2.78,0.21 17.91,0.03 21.96,0.03 1.83,0 5.74,0.21 7.32,-0.08z"/>
   <path class="fil4" d="M32.89 50.63c0.45,0.98 0.93,1.47 0.17,2.69 -3.06,4.86 -3.12,3.18 -1.16,7 0.86,1.66 1.77,3.25 2.55,4.91 0.69,1.48 1.67,3.42 2.51,4.86l-0.75 -21c-0.56,0.08 -0.97,0.54 -1.57,0.83 -0.56,0.28 -1.16,0.52 -1.75,0.71z"/>
   <path class="fil7" d="M25.46 32.95c0.52,-0.1 1.11,-0.48 1.77,-0.67 4.61,-1.31 9.34,2.01 9.47,6.98 0.12,5.03 -4.58,8.65 -9.41,7.37 -0.63,-0.17 -1.14,-0.5 -1.71,-0.58 -0.28,0.34 -0.38,-0.07 0.73,0.98 0.3,0.29 0.63,0.63 0.99,0.91 1.71,1.34 1.22,0.45 2.93,0.93 2.26,0.29 5.39,-2.05 6.18,-3.03 1.4,-1.73 2.61,-3.87 2.41,-7.02 -0.33,-5.17 -4.51,-8.97 -9.93,-8.95 -0.25,0.24 -0.75,0.52 -1.02,0.69 -0.47,0.3 -0.59,0.42 -1,0.76 -0.35,0.28 -1.55,1.31 -1.4,1.63z"/>
   <path class="fil8" d="M20.36 74.09c-0.39,-2.22 -0.1,-7.42 -0.1,-9.95 0,-3.25 -0.14,-6.79 0.02,-10 -0.38,0.27 -3.16,2.97 -3.31,3.32 -0.21,0.51 -0.09,11.73 -0.09,13.27 -0,3.87 -0.36,3.38 3.48,3.36z"/>
   <path class="fil9" d="M30.35 44.53c2.28,-0.29 4.26,-2.6 4.16,-5.27 -0.09,-2.46 -2.15,-4.96 -4.48,-4.92 -1.38,0.98 -2.63,2.78 -2.59,5.22 0.03,2.04 1.51,4.85 2.9,4.97z"/>
   <path class="fil10" d="M30.23 48.87c-1.71,-0.48 -1.22,0.41 -2.93,-0.93 -0.36,-0.28 -0.69,-0.62 -0.99,-0.91 -1.1,-1.06 -1.01,-0.65 -0.73,-0.98 -0.31,-0.43 -0.27,-0.27 -0.76,-0.61 -0.34,-0.24 -0.39,-0.32 -0.69,-0.62 -2.57,-2.61 -3.11,-6.15 -1.25,-9.28 0.3,-0.5 0.83,-1.16 1.17,-1.46l1.33 -1.05c0.01,-0.05 0.06,-0.05 0.09,-0.08 -0.15,-0.31 1.05,-1.34 1.4,-1.63 0.41,-0.33 0.53,-0.45 1,-0.76 0.27,-0.17 0.77,-0.45 1.02,-0.69 -11.03,0.77 -12.25,15.26 -2.85,18.61 0.96,0.34 3.29,0.98 4.21,0.39z"/>
   <path class="fil11" d="M43.86 37.61c-1.85,-0.77 -3.89,-3.24 -4.72,-5.62 -0.93,-2.66 -0.62,-6.75 -0.62,-9.72l-5.22 0 0 6.16c6.16,1.76 7.55,8.96 7.65,9.07 0.56,0.35 2.35,0.46 2.91,0.11z"/>
   <path class="fil8" d="M40.47 12.93l-3.72 0.28 -0.37 2 13.21 0c0.93,0 3.79,0.26 4.38,-0.17 0.08,-0.62 -0.14,-1.42 -0.32,-2.08 -1.74,-0.02 -3.49,-0 -5.23,-0 -1.91,0 -4.21,0.63 -4.14,-1.5 -0.3,0.35 -0.25,-0.44 -0.23,0.4l-2.51 0c-0,-0.84 0.05,-0.05 -0.27,-0.4 0.04,0.83 -0.13,1.2 -0.79,1.47z"/>
   <path class="fil12" d="M30.35 44.53c-1.4,-0.12 -2.87,-2.94 -2.9,-4.97 -0.04,-2.44 1.21,-4.24 2.59,-5.22 -1.1,-0.79 -3.69,0.64 -4.26,1.16 -2.51,2.31 -2.26,6.09 0.1,8 0.78,0.64 3.06,1.75 4.47,1.02z"/>
   <path class="fil8" d="M37.28 10.77c0.14,-1.09 0.64,-2.55 0.97,-3.61 0.18,-0.57 0.39,-1.18 0.62,-1.72 0.3,-0.71 0.58,-0.95 0.91,-1.51 -5.33,-1.46 -6.15,2.45 -7.13,6.79l4.63 0.05z"/>
   <path class="fil13" d="M42.77 39.97c0,1.58 -0.17,4.71 0.08,6.1 0.63,-0.34 2.83,-2.9 3.57,-3.68 1.27,-1.33 1.01,-0.23 1.09,-3.31 -1.82,0.36 -2.46,0.87 -4.74,0.88z"/>
   <path class="fil14" d="M12.49 58.62c0.51,-0.26 6.32,-6.16 6.36,-6.33 0.12,-0.54 -0.71,-1.45 -1.16,-1.46 -0.56,-0.06 -1.18,0.82 -1.94,1.58l-3.7 3.76c-0.55,0.82 -0.37,2.27 0.44,2.46z"/>
   <path class="fil15" d="M12.49 58.62c-0.81,-0.19 -0.99,-1.64 -0.44,-2.46l3.7 -3.76c0.76,-0.76 1.37,-1.63 1.94,-1.58 -1.06,-2.04 -1.85,-0.53 -4.48,2.11 -0.74,0.74 -1.38,1.38 -2.12,2.12 -0.51,0.51 -1.85,1.52 -1.91,2.36 0.24,0.48 1.83,2.06 2.37,2.14 0.48,-0.17 0.75,-0.56 0.95,-0.92z"/>
   <path class="fil16" d="M53.96 15.04c-0.59,0.43 -3.44,0.17 -4.38,0.17l-13.21 -0 0.37 -2 3.72 -0.28 -8.29 0.04 -0.49 2.41 22.13 0.03c0.2,-0.1 0.13,0.09 0.17,-0.11 0.05,-0.19 0.01,-0.15 -0.04,-0.26z"/>
   <path class="fil2" d="M59.69 19.9c-1.59,0.29 -5.49,0.08 -7.32,0.08 -4.05,0 -19.18,0.18 -21.96,-0.03l0.01 -2.36c-1.05,-0 -3.77,-0.15 -4.61,0.1 -0.09,0.66 -0.16,1.78 0.07,2.28 0.28,0.29 27.38,0.14 32.8,0.15 0.11,0 0.48,-0 0.57,-0.02l0.45 -0.19z"/>
   <path class="fil17" d="M42.85 46.07c-0.25,-1.39 -0.08,-4.52 -0.08,-6.1l-1.75 -0.09c-0.31,4.1 -1.68,2.81 0.57,5.19 0.35,0.37 1.07,1.03 1.26,1z"/>
   <path class="fil17" d="M30.85 26.92c-0.08,-0.51 -0.65,-1.05 -0.64,-2.28 0.01,-1.08 0.49,-1.5 0.65,-2.22l-0.01 4.5zm0.25 0.64l0.01 -5.24c-1.16,-0.12 -1.54,-0.18 -2.06,0.53 -1.6,2.2 0.05,4.63 2.05,4.72z"/>
   <path class="fil17" d="M56.2 26.71c-0.08,-0.74 -0.04,-1.49 -0.05,-2.23l0.03 -1.59c0.07,-0.34 0.02,-0.15 0.14,-0.32 -0.21,-0.3 -0.03,-0.19 -0.44,-0.31l-1.44 0.01 0 5.29c0.85,-0.11 1.36,-0.42 1.76,-0.86z"/>
   <path class="fil18" d="M44.57 47.61c0.36,0.33 2.16,1.58 2.56,1.64l0.17 -4.41 -2.73 2.77z"/>
   <path class="fil6" d="M38.4 49.27c0.81,-0.33 1.95,-1.12 2.57,-1.66 -0.42,-0.8 -1.48,-1.49 -1.72,-1.83 -0.22,0.23 -0.83,1.01 -0.89,1.28 -0.09,0.39 0.03,1.71 0.04,2.21z"/>
   <path class="fil13" d="M56.2 26.71c1.17,-0.86 1.09,-2.99 0.12,-4.13 -0.13,0.17 -0.07,-0.03 -0.14,0.32l-0.03 1.59c0,0.74 -0.03,1.49 0.05,2.23z"/>
   <path class="fil11" d="M30.85 26.92l0.01 -4.5c-0.17,0.71 -0.65,1.13 -0.65,2.22 -0.01,1.23 0.56,1.77 0.64,2.28z"/>
  </g>
 </g>
</svg>
