<?xml version="1.0" encoding="UTF-8"?>
<!DOCTYPE svg PUBLIC "-//W3C//DTD SVG 1.1//EN" "http://www.w3.org/Graphics/SVG/1.1/DTD/svg11.dtd">
<!-- Creator: CorelDRAW 2020 (64-Bit) -->
<svg xmlns="http://www.w3.org/2000/svg" xml:space="preserve" width="167.225mm" height="113.017mm" version="1.1" style="shape-rendering:geometricPrecision; text-rendering:geometricPrecision; image-rendering:optimizeQuality; fill-rule:evenodd; clip-rule:evenodd"
viewBox="0 0 119.23 80.58"
 xmlns:xlink="http://www.w3.org/1999/xlink"
 xmlns:xodm="http://www.corel.com/coreldraw/odm/2003">
 <defs>
  <style type="text/css">
   <![CDATA[
    .fil4 {fill:black}
    .fil0 {fill:#373737}
    .fil2 {fill:#6C4931}
    .fil1 {fill:#AC6F42}
    .fil5 {fill:#FD9701}
    .fil6 {fill:#FEC108}
    .fil7 {fill:#FEEA3A}
    .fil3 {fill:#FFDB00}
   ]]>
  </style>
 </defs>
 <g id="Capa_x0020_1">
  <metadata id="CorelCorpID_0Corel-Layer"/>
  <g id="_1703705161648">
   <path class="fil0" d="M22.65 42.61c-0.42,-1.73 1.34,-2.84 2.77,-1.93 0.66,0.42 2.21,2.13 2.88,2.8 0.93,0.93 5.1,4.74 5.37,5.76 0.43,1.64 -1.35,2.82 -2.76,1.92 -0.53,-0.34 -8.1,-7.9 -8.26,-8.54zm-22.65 26.69l0 -1.45c0.16,-1.05 0.66,-2.11 1.62,-3.06l11.86 -11.85c1.03,-1.03 1.91,-1.91 2.94,-2.94 1.18,-1.18 1.72,-2.37 3.72,-1.31 0.78,2.18 0.56,2.21 -0.83,3.58l-15.12 15.09c-1.21,1.18 -0.57,2.8 0.72,3.06 1.49,0.3 2.43,-1.06 3.11,-1.75l7.55 -7.55c1.52,-1.52 9.3,-9.11 9.98,-10.07 -0.4,-0.67 -3.21,-3.55 -3.95,-3.85 -0.88,-1.24 -1.99,-1.86 -2.47,-3.6 -0.95,-3.41 1.41,-6.61 4.79,-6.87 2.16,-0.17 3.1,0.78 4.35,1.42l2.35 -2.47c-0.86,-0.58 -4.04,-3.74 -4.55,-4.68 -0.95,-1.75 -1.15,-3.56 -0.21,-5.33 0.41,-0.78 0.57,-0.56 0.83,-1.37l-2.36 -2.26c-1.95,1.3 -3.81,2.07 -6.37,0.7 -1.57,-0.84 -3.29,-3.12 -2.75,-5.62 0.53,-2.48 2.13,-3.51 3.61,-5l8.5 -8.5c1.41,-1.41 2.75,-3.24 5.03,-3.57 2.81,-0.41 4.79,1.12 5.69,2.82 1.36,2.56 0.34,4.47 -0.87,6.32l2.47 2.35c3.63,-2.43 5.49,-1.96 8.76,1.31l12.9 12.9c3.21,3.21 3.53,5.27 1.16,8.7l2.35 2.47c0.86,-0.58 1.66,-1.29 2.96,-1.45 3.89,-0.47 6.78,2.46 6.23,6.23 -0.33,2.28 -2.17,3.62 -3.57,5.03 -1.45,1.45 -2.75,2.75 -4.2,4.2 -1.9,1.9 -6.7,7.5 -9.2,7.8 -1.66,0.2 -2.77,-0.02 -3.73,-0.64 -3.27,-2.13 -3.37,-5.3 -1.24,-8.41l-2.35 -2.47c-1.65,1.1 -3.57,2.57 -6.79,0.7 -1.54,-0.89 -3.22,-3.45 -4.7,-4.43l-2.35 2.47c2.08,2.39 2.1,5.35 -0.15,7.61 -3.51,3.53 -6.97,0.32 -7.61,0.15l-17.88 17.78c-1.12,1.12 -1.73,1.89 -3.48,2.4 -3.22,0.93 -6.31,-1.59 -6.75,-4.61zm70.29 -27.74c-0.36,0.91 -10.04,10.29 -12.04,12.31 -3.17,3.21 -4.49,0.12 -3.87,-1.13 0.29,-0.58 10.28,-10.37 12.12,-12.22 0.6,-0.6 1.15,-1.62 2.46,-1.43 1.07,0.16 1.82,1.24 1.32,2.47zm-39.48 -0.63c0.36,-0.66 1.92,-2.21 2.63,-2.57 0.69,0.94 1.85,1.49 2.24,2.66l-2.22 2.3c-1.01,-0.47 -1.88,-1.64 -2.66,-2.39zm24.01 6.2c-1.02,-0.56 -1.83,-1.6 -2.55,-2.39 0.39,-0.72 6.68,-7.01 7.52,-7.6 0.69,0.4 2.14,1.81 2.5,2.55l-7.47 7.43zm-25.81 -18.37c-0.47,-1.71 2.34,-3.78 3.13,-4.58 1.35,-1.34 2.54,-2.54 3.88,-3.88 1.34,-1.35 2.53,-2.54 3.88,-3.88 0.98,-0.98 2.72,-3.61 4.68,-2.24 0.97,0.68 2.93,2.88 3.91,3.86 1.38,1.38 2.61,2.61 3.99,3.99 1.15,1.15 7.44,7.11 7.73,8.06 0.42,1.38 -0.53,2.03 -1.1,2.59l-5.88 5.87c-1.34,1.34 -2.54,2.53 -3.88,3.88 -0.93,0.93 -2.89,3.82 -4.79,2.2l-7.79 -7.94c-1.07,-1.07 -7.56,-7.25 -7.75,-7.93zm-2.01 -9.44c0.59,-1.16 6.03,-6.12 7.35,-7.55 0.81,0.36 2.19,1.77 2.59,2.54l-7.58 7.48c-0.77,-0.61 -1.87,-1.59 -2.36,-2.46zm5.63 -15.52c1.17,-0.52 2.19,0.24 2.34,1.31 0.18,1.35 -0.85,1.82 -1.45,2.41l-12.21 12.15c-1.3,0.54 -2.45,-0.35 -2.54,-1.46 -0.1,-1.11 0.99,-1.82 1.51,-2.34l11.22 -11.22c0.11,-0.12 0.45,-0.47 0.53,-0.53 0.39,-0.3 0.11,-0.11 0.61,-0.34z"/>
   <path class="fil1" d="M42.12 24.43c-0.79,0.67 -2.42,2.69 -3.44,2.93 -1.9,0.44 -2.91,-1.66 -1.37,-3.25 2.24,-2.32 4.34,-5.26 7.99,-1.61 1.13,1.13 2.11,2.12 3.25,3.26 1.03,1.03 2.83,2.94 0.72,4.03 -1.61,0.83 -3.2,-1.43 -3.89,-2.12 -1.12,-1.12 -2.15,-2.16 -3.25,-3.23zm-13.11 4.33c0.19,0.69 6.68,6.87 7.75,7.93l7.79 7.94c1.89,1.62 3.85,-1.27 4.79,-2.2 1.35,-1.34 2.54,-2.53 3.88,-3.88l5.88 -5.87c0.57,-0.56 1.53,-1.21 1.1,-2.59 -0.29,-0.95 -6.58,-6.91 -7.73,-8.06 -1.38,-1.38 -2.6,-2.6 -3.99,-3.99 -0.98,-0.98 -2.94,-3.18 -3.91,-3.86 -1.95,-1.37 -3.7,1.26 -4.68,2.24 -1.35,1.34 -2.54,2.53 -3.88,3.88 -1.34,1.35 -2.53,2.54 -3.88,3.88 -0.8,0.79 -3.6,2.87 -3.13,4.58z"/>
   <path class="fil0" d="M44.76 76.94c-0.06,-4.41 1.21,-3.53 5.38,-3.53l18.04 0c4.2,-0 5.27,-0.81 5.21,3.6l-28.63 -0.07zm3.6 -7.16c-0.12,-2.39 -0.12,-3.52 2.41,-3.52l16.78 0c2.48,0 2.34,1.53 2.24,3.59l-21.43 -0.07zm-3.67 0.32c-3.56,1.88 -3.57,3.54 -3.57,6.92 0,1.76 1.53,3.57 3.15,3.57l29.58 0c1.48,0 3.15,-1.67 3.15,-3.15 0,-3.81 0.25,-5.33 -3.57,-7.34 0,-2.79 0.06,-3.87 -1.22,-5.49 -1.01,-1.28 -2.62,-2.06 -4.86,-2.06l-16.57 0c-2.06,0 -3.8,0.81 -4.77,1.94 -1.32,1.55 -1.31,2.86 -1.31,5.61z"/>
   <path class="fil2" d="M20.14 48.69c0.78,2.18 0.56,2.21 -0.83,3.58l-15.12 15.09c-1.21,1.18 -0.57,2.8 0.72,3.06 1.49,0.3 2.43,-1.06 3.11,-1.75l7.55 -7.55c1.52,-1.52 9.3,-9.11 9.98,-10.07 -0.4,-0.67 -3.21,-3.55 -3.95,-3.85l-1.47 1.49z"/>
   <path class="fil2" d="M44.76 76.94l28.63 0.07c0.06,-4.4 -1.01,-3.6 -5.21,-3.6l-18.04 0c-4.17,0 -5.44,-0.88 -5.38,3.53z"/>
   <path class="fil1" d="M70.29 41.56c0.49,-1.23 -0.26,-2.32 -1.32,-2.47 -1.31,-0.19 -1.85,0.82 -2.46,1.43 -1.85,1.85 -11.83,11.64 -12.12,12.22 -0.62,1.24 0.7,4.33 3.87,1.13 2,-2.02 11.67,-11.4 12.04,-12.31z"/>
   <path class="fil2" d="M48.36 69.78l21.43 0.07c0.1,-2.06 0.24,-3.59 -2.24,-3.59l-16.78 0c-2.53,0 -2.53,1.13 -2.41,3.52z"/>
   <path class="fil1" d="M32.63 3.81c-0.5,0.22 -0.22,0.04 -0.61,0.34 -0.08,0.06 -0.42,0.41 -0.53,0.53l-11.22 11.22c-0.52,0.52 -1.6,1.22 -1.51,2.34 0.09,1.11 1.24,2 2.54,1.46l12.21 -12.15c0.6,-0.59 1.63,-1.06 1.45,-2.41 -0.15,-1.08 -1.18,-1.83 -2.34,-1.31z"/>
   <path class="fil0" d="M42.12 24.43c1.1,1.07 2.13,2.11 3.25,3.23 0.69,0.69 2.29,2.95 3.89,2.12 2.1,-1.09 0.31,-3 -0.72,-4.03 -1.14,-1.13 -2.11,-2.12 -3.25,-3.26 -3.64,-3.65 -5.75,-0.71 -7.99,1.61 -1.53,1.59 -0.52,3.69 1.37,3.25 1.03,-0.24 2.66,-2.26 3.44,-2.93z"/>
   <path class="fil2" d="M22.65 42.61c0.15,0.64 7.73,8.2 8.26,8.54 1.41,0.91 3.19,-0.27 2.76,-1.92 -0.27,-1.02 -4.44,-4.83 -5.37,-5.76 -0.67,-0.67 -2.21,-2.38 -2.88,-2.8 -1.43,-0.9 -3.19,0.2 -2.77,1.93z"/>
   <path class="fil2" d="M62.29 39.7c-0.36,-0.74 -1.8,-2.16 -2.5,-2.55 -0.84,0.59 -7.14,6.88 -7.52,7.6 0.72,0.79 1.53,1.83 2.55,2.39l7.47 -7.43z"/>
   <path class="fil2" d="M27 19.32c0.5,0.87 1.59,1.85 2.36,2.46l7.58 -7.48c-0.4,-0.77 -1.77,-2.17 -2.59,-2.54 -1.32,1.43 -6.76,6.39 -7.35,7.55z"/>
   <path class="fil2" d="M30.81 40.93c0.78,0.75 1.64,1.92 2.66,2.39l2.22 -2.3c-0.4,-1.17 -1.55,-1.72 -2.24,-2.66 -0.71,0.36 -2.27,1.92 -2.63,2.57z"/>
   <g>
    <path class="fil3" d="M100.74 27.98c0.05,-0.71 -0.1,-1.55 0.81,-1.53 0.82,0.02 0.72,0.79 0.76,1.51 0.96,0.14 1.65,0.42 2.15,0.91 0.4,0.4 0.97,1.3 0.9,2.19 -0.07,0.94 -1.35,1.14 -1.54,-0.1 -0.12,-0.83 -0.62,-1.46 -1.53,-1.42l0 3.03c1.12,0.18 1.49,0.28 2.15,0.92 1.57,1.53 1.37,4.78 -2.13,5.28 -0.06,0.74 0.05,1.56 -0.85,1.51 -0.84,-0.05 -0.66,-0.84 -0.73,-1.53 -1.88,-0.1 -3.16,-1.65 -3.05,-3.08 0.07,-0.88 1.34,-1.2 1.54,0.08 0.14,0.9 0.59,1.38 1.53,1.47l-0 -3.08c-4.03,-0.18 -4.07,-5.96 -0.01,-6.15zm-11.34 -2.01l-1.72 2.98 -0 9.07c1.73,0 2.78,-0.09 4.39,0.46 1.1,0.37 2.31,1.14 2.51,2.26 0.14,0.81 0.01,8.03 0.04,9.62l2.28 0c0.16,-0.76 0.37,-0.84 1.24,-0.84 2.64,0.01 12.44,0.26 13.62,-0.51 0.18,-0.24 0.92,-0.66 1.35,-1.01 1.08,-0.88 2.13,-2.47 2.52,-3.8 0.09,-0.3 0.06,-0.35 -0.01,-0.48 -0.51,1.71 -1.91,2.91 -3.49,3.57 -0.61,0.25 -3.77,1.22 -4.19,0.29 -0.28,-0.61 0.1,-1.04 0.58,-1.13 1.66,-0.3 3.56,-0.18 4.99,-2.02 1.44,-1.86 0.8,-3.5 1.36,-3.96 0.56,-0.47 0.92,-0.04 1.23,0.23l0.06 -0c0.19,-4.94 -2.31,-11.1 -4.85,-14.79l-1.28 -1.69c-0.17,-0.22 -0.29,-0.32 -0.46,-0.53 -0.65,-0.78 -3.5,-3.7 -4.29,-3.61l-0.53 0.07 0.79 0.8c0.29,0.28 0.57,0.48 0.87,0.76 1.22,1.11 0.05,1.89 -0.61,1.52 -0.42,-0.23 -1.26,-1.19 -1.69,-1.56 -0.66,-0.58 -1.37,-1.41 -1.75,-1.39 -0.14,0.99 0.43,3.04 -0.78,3.05 -1.08,0.01 -0.78,-1.62 -0.78,-3.06 -0.68,0.11 -2.97,2.77 -3.5,2.99 -0.53,0.22 -0.97,-0.06 -1.08,-0.47 -0.21,-0.79 1.35,-1.68 2.11,-2.57l-0.7 -0.29c-0.62,-0.23 -0.67,-0.08 -1.89,0.76 -2.1,1.45 -1.96,1.62 -3.23,2.73 -0.32,0.28 -0.59,0.65 -0.94,1.04 -0.24,0.27 -0.64,0.76 -0.88,1.11 -0.36,0.52 -0.55,0.63 -1.26,0.4z"/>
    <path class="fil4" d="M74.6 50.91c3.3,1.28 5.15,1.27 8.45,0 0.05,1.65 0.27,2.07 -1.04,2.64 -1.8,0.79 -4.51,0.78 -6.32,0.03 -1.37,-0.57 -1.15,-0.98 -1.1,-2.67zm26.43 -41.41l1.08 0c0.5,0.09 1.04,0.31 1.6,0.73 0.47,0.36 0.79,0.75 1.56,0.79 1.45,0.09 2,-1.56 3.31,-1.43 1.97,0.19 1.37,2.6 1.37,3.24 1.25,0.29 2.29,1.32 2.7,2.45 0.39,1.07 0.22,2.19 -0.4,3.1 -0.22,0.32 -0.39,0.4 -0.58,0.68 0.23,0.11 0.55,0.15 0.85,0.24 0.97,0.28 3.59,1.58 3.43,2.61 -0.04,0.26 -0.2,0.49 -0.39,0.59 -0.76,0.4 -1,-0.27 -1.35,-0.55 -1.1,-0.87 -2.95,-1.53 -4.51,-1.53l2.01 1.96c2.75,2.75 4.7,6.23 5.99,9.89 0.78,2.23 1.49,4.99 1.57,7.72l0 1.05c-0.07,2.08 -0.54,4.09 -1.68,5.76 -0.14,0.21 -0.27,0.37 -0.43,0.57 -0.17,0.21 -0.27,0.36 -0.44,0.55l-1.05 0.94c-1.09,0.88 -2.64,1.54 -4.07,1.88 -2.39,0.58 -8.73,0.36 -11.55,0.36 -2.2,0 -2.8,0.29 -3.13,-0.72 0.16,-0.76 0.37,-0.84 1.24,-0.84 2.64,0.01 12.44,0.26 13.62,-0.51 1.49,-0.27 3.2,-1.5 3.86,-2.28 3.29,-3.88 2.09,-9.85 0.51,-14.19 -1.66,-4.57 -3.9,-7.77 -7.25,-10.7 -0.54,-0.47 -1.08,-0.9 -1.69,-1.29 -0.59,-0.37 -1.27,-1.09 -1.92,-0.48l-0.53 0.07 0.79 0.8c0.29,0.28 0.57,0.48 0.87,0.76 1.22,1.11 0.05,1.89 -0.61,1.52 -0.42,-0.23 -1.26,-1.19 -1.69,-1.56 -0.66,-0.58 -1.37,-1.41 -1.75,-1.39 -0.14,0.99 0.43,3.04 -0.78,3.05 -1.08,0.01 -0.78,-1.62 -0.78,-3.06 -0.68,0.11 -2.97,2.77 -3.5,2.99 -0.53,0.22 -0.97,-0.06 -1.08,-0.47 -0.21,-0.79 1.35,-1.68 2.11,-2.57l-0.7 -0.29c-0.62,-0.23 -0.67,-0.08 -1.89,0.76 -2.1,1.45 -1.96,1.62 -3.23,2.73 -0.32,0.28 -0.59,0.65 -0.94,1.04 -0.24,0.27 -0.64,0.76 -0.88,1.11 -0.36,0.52 -0.55,0.63 -1.26,0.4 -0.01,-0.02 -0.03,-0.04 -0.04,-0.05 -0.17,-0.21 -0.35,-0.42 -0.2,-0.85l1.08 -1.45c0.24,-0.29 0.45,-0.35 0.51,-0.77 0.1,-0.76 0.06,-4.21 -0.02,-5.03 -1.75,0.58 -1.89,0.92 -4.24,0.92 -2.68,-0 -3.22,-0.72 -4.2,-0.9l0.01 5.5c1.73,0.32 2.98,0.25 4.26,1.24 1.48,1.14 1.1,2.17 1.11,4.37l-0 9.07c1.73,0 2.78,-0.09 4.39,0.46 1.1,0.37 2.31,1.14 2.51,2.26 0.14,0.81 0.01,8.03 0.04,9.62 0.01,0.76 0.06,1.13 -0.24,1.66 -0.63,1.12 -2.28,1.76 -3.6,1.99 -2.51,0.44 -4.63,0.01 -6.26,-0.85 -0.07,0.28 -0.14,0.39 -0.29,0.61 -0.89,1.23 -2.4,1.62 -3.93,1.84 -0.23,0.03 -0.46,0.06 -0.7,0.07l-1.5 0c-1.37,-0.09 -2.67,-0.42 -3.49,-0.92 -0.33,-0.2 -0.75,-0.45 -0.98,-0.73 -0.32,-0.37 -0.48,-0.78 -0.56,-1.23l0 -3.17 0 -0.78c0.02,-0.64 0.15,-1.24 0.8,-1.76 0.48,-0.39 1.52,-1 2.27,-1.07 0,-4.54 0,-9.08 0,-13.62 0,-1.32 -0.21,-5.9 0.15,-6.71 0.62,-1.41 2.9,-2.28 4.45,-2.31 0,-1.53 -0.08,-6.77 0,-7.85 0.15,-2.01 3.08,-2.78 4.79,-2.96 2.48,-0.26 5.11,0.47 6.19,1.63 0.77,0.83 0.65,1.71 0.65,3.23 0,1.29 0,2.59 0,3.88 0.58,-0.39 2.55,-2.23 3.34,-2.44 -0.13,-0.49 -1.12,-1.16 -1.86,-3.01 -0.4,-1.01 -1.48,-4.81 -0.33,-5.85 0.46,-0.42 1.11,-0.53 1.74,-0.25 1.14,0.52 1.69,1.75 3.3,1.05 0.2,-0.09 1.15,-1.09 2.49,-1.32zm-16.44 33.71c1.69,0.53 1.78,0.93 4.24,0.93 2.64,-0 2.74,-0.53 4.23,-0.92 0,2.26 -0,4.52 0,6.78 0,0.54 0.1,1.17 -0.21,1.49 -0.16,0.17 -0.74,0.49 -1.09,0.62 -1.94,0.74 -5.61,0.63 -6.92,-0.57 -0.35,-0.32 -0.25,-0.86 -0.25,-1.46 0,-2.29 0,-4.59 0,-6.88zm-9.99 5.62c-0.16,-1.27 4.04,-2.04 6.68,-1.28 4.56,1.31 -0.83,3.6 -4.94,2.41 -0.58,-0.17 -1.68,-0.65 -1.74,-1.13zm10.01 -7.67c-0.18,-1.15 3.03,-1.63 4.13,-1.64 0.88,-0.01 1.75,0.09 2.57,0.33 2.1,0.64 2.44,1.63 0.12,2.37 -2.62,0.83 -6.64,0.04 -6.81,-1.06zm-1.56 5.44c-0.84,-0.25 -1.37,-0.58 -2.39,-0.77 -1.15,-0.21 -1.92,-0.05 -3,-0.12l0 -17.09c1.52,0.4 1.69,0.91 4.22,0.91 2.42,0 2.53,-0.4 4.25,-0.93l0 9.6c-0.16,0.28 -0.64,0.33 -0.91,0.44 -0.87,0.36 -2,1.06 -2.15,2.19 -0.18,1.45 -0.02,4.2 -0.02,5.78zm-5.36 -20.05c-0.25,-1.23 3.92,-2.14 6.69,-1.32 2.16,0.64 2.39,1.69 0.1,2.38 -1.54,0.46 -3.5,0.5 -5.04,0.04 -0.63,-0.19 -1.65,-0.63 -1.75,-1.1zm30.71 -7.85c-0.71,0 -0.6,0.06 -0.9,-0.09 0.1,-0.36 0.71,-0.78 1.23,-1.83 0.26,-0.52 0.83,-1.64 0.84,-2.32 0.95,0.08 1.71,1.26 1.71,1.98 0,1.27 -1.57,2.25 -2.89,2.25zm-22.79 -4.53c1.55,-0.15 3.67,0.08 4.7,0.89 2.13,1.69 -5.12,3.14 -7.61,1.2 -1.54,-1.2 1.83,-1.98 2.91,-2.09zm18.41 4.27c0.04,-0.28 0.83,-1.91 1.03,-2.45 0.8,-2.17 -0.53,-1.92 -0.84,-1.74 -0.48,0.28 -1.61,4.3 -2.4,4.5 -0.71,0.18 -0.85,-0.23 -1,-0.47 -0.11,-0.17 -0.22,-0.34 -0.34,-0.56 -0.42,-0.76 -0.84,-1.65 -1.12,-2.49 -0.18,-0.56 -0.19,-0.96 -0.74,-1.06 -0.54,-0.1 -0.93,0.26 -0.93,0.76 0.01,0.89 1.38,3.36 1.55,3.82 -3.1,-0.15 -4.7,-4.1 -4.67,-7.51 0.74,0.23 1.24,1.28 2.91,1.35 0.67,0.03 1.27,-0.12 1.78,-0.38 0.8,-0.41 0.69,-0.56 1.21,-0.87 2.32,-1.35 2.62,2.25 6.37,0.94 0.44,-0.3 1.27,-0.95 1.59,-1.04 0.04,3.33 -1.6,7.45 -4.63,7.49 0.09,-0.27 -0,-0.13 0.21,-0.27z"/>
    <path class="fil5" d="M83.06 46.59c0,-1.58 -0.16,-4.33 0.02,-5.78 0.14,-1.12 1.28,-1.82 2.15,-2.19 0.28,-0.12 0.75,-0.17 0.91,-0.44l0 -9.6c-1.71,0.53 -1.83,0.93 -4.25,0.93 -2.54,-0 -2.7,-0.51 -4.22,-0.91l0 17.09c1.08,0.07 1.84,-0.09 3,0.12 1.02,0.19 1.55,0.52 2.39,0.77z"/>
    <path class="fil3" d="M84.6 43.21c0,2.29 0,4.59 -0,6.88 -0,0.6 -0.09,1.14 0.25,1.46 1.31,1.2 4.97,1.31 6.92,0.57 0.35,-0.13 0.93,-0.45 1.09,-0.62 0.31,-0.32 0.21,-0.95 0.21,-1.49 -0,-2.26 0,-4.52 0,-6.78 -1.49,0.39 -1.59,0.91 -4.23,0.92 -2.46,0 -2.55,-0.4 -4.24,-0.93z"/>
    <path class="fil4" d="M102.3 34.15c1.98,-0.04 1.97,3.12 -0,3.03l0 -3.03zm-1.55 -1.57c-2.02,-0.17 -2.09,-2.89 0,-3.07l-0 3.07zm-0.01 -4.61c-4.05,0.19 -4.02,5.97 0.01,6.15l0 3.08c-0.94,-0.08 -1.39,-0.57 -1.53,-1.47 -0.2,-1.27 -1.47,-0.96 -1.54,-0.08 -0.11,1.43 1.17,2.99 3.05,3.08 0.08,0.69 -0.11,1.47 0.73,1.53 0.9,0.06 0.79,-0.77 0.85,-1.51 3.5,-0.5 3.7,-3.75 2.13,-5.28 -0.66,-0.64 -1.03,-0.74 -2.15,-0.92l0 -3.03c0.91,-0.03 1.41,0.6 1.53,1.42 0.19,1.24 1.47,1.04 1.54,0.1 0.07,-0.89 -0.5,-1.79 -0.9,-2.19 -0.5,-0.5 -1.19,-0.77 -2.15,-0.91 -0.04,-0.72 0.06,-1.49 -0.76,-1.51 -0.91,-0.02 -0.76,0.82 -0.81,1.53z"/>
    <path class="fil3" d="M104.02 18.44c0.14,0.17 -0.09,0.23 0.5,-0.37 1.44,-1.47 2.26,-3.73 2.33,-5.81 -3.75,1.31 -4.05,-2.29 -6.37,-0.94 -0.52,0.3 -0.41,0.46 -1.21,0.87 -0.52,0.27 -1.12,0.42 -1.78,0.38 -1.67,-0.08 -2.18,-1.13 -2.91,-1.35 -0.03,3.41 1.57,7.36 4.67,7.51 -0.17,-0.46 -1.54,-2.93 -1.55,-3.82 -0,-0.5 0.39,-0.86 0.93,-0.76 0.55,0.1 0.56,0.51 0.74,1.06 0.28,0.84 0.7,1.73 1.12,2.49 0.12,0.22 0.23,0.39 0.34,0.56 0.16,0.25 0.3,0.65 1,0.47 0.8,-0.2 1.92,-4.21 2.4,-4.5 0.3,-0.18 1.63,-0.42 0.84,1.74 -0.2,0.54 -1,2.18 -1.03,2.45z"/>
    <path class="fil5" d="M87.67 28.95l1.72 -2.98c-0.01,-0.02 -0.03,-0.04 -0.04,-0.05 -0.17,-0.21 -0.35,-0.42 -0.2,-0.85l1.08 -1.45c0.24,-0.29 0.45,-0.35 0.51,-0.77 0.1,-0.76 0.06,-4.21 -0.02,-5.03 -1.75,0.58 -1.89,0.92 -4.24,0.92 -2.68,-0 -3.22,-0.72 -4.2,-0.9l0.01 5.5c1.73,0.32 2.98,0.25 4.26,1.24 1.48,1.14 1.1,2.17 1.11,4.37z"/>
    <path class="fil6" d="M105.25 20.08c0.79,-0.08 3.64,2.83 4.29,3.61 0.17,0.21 0.29,0.31 0.46,0.53l1.28 1.69c2.54,3.69 5.03,9.85 4.85,14.79l-0.06 0c0.11,0.9 -0.11,2.3 -0.47,3.02 0.07,0.13 0.1,0.18 0.01,0.48 -0.39,1.33 -1.44,2.92 -2.52,3.8 -0.43,0.35 -1.17,0.77 -1.35,1.01 1.49,-0.27 3.2,-1.5 3.86,-2.28 3.29,-3.88 2.09,-9.85 0.51,-14.19 -1.66,-4.57 -3.9,-7.77 -7.25,-10.7 -0.54,-0.47 -1.08,-0.9 -1.69,-1.29 -0.59,-0.37 -1.27,-1.09 -1.92,-0.48z"/>
    <path class="fil3" d="M77.69 26.55c0.1,0.47 1.11,0.91 1.75,1.1 1.54,0.46 3.5,0.42 5.04,-0.04 2.29,-0.69 2.07,-1.74 -0.1,-2.38 -2.77,-0.82 -6.95,0.09 -6.69,1.32z"/>
    <path class="fil7" d="M74.6 48.82c0.06,0.48 1.15,0.96 1.74,1.13 4.11,1.18 9.5,-1.1 4.94,-2.41 -2.63,-0.76 -6.84,0.01 -6.68,1.28z"/>
    <path class="fil3" d="M85.62 14.17c-1.08,0.11 -4.45,0.89 -2.91,2.09 2.49,1.94 9.74,0.49 7.61,-1.2 -1.02,-0.81 -3.15,-1.04 -4.7,-0.89z"/>
    <path class="fil7" d="M84.62 41.16c0.18,1.11 4.2,1.9 6.81,1.06 2.32,-0.74 1.99,-1.73 -0.12,-2.37 -0.82,-0.25 -1.69,-0.34 -2.57,-0.33 -1.1,0.01 -4.31,0.49 -4.13,1.64z"/>
    <path class="fil3" d="M74.6 50.91c-0.05,1.69 -0.27,2.1 1.1,2.67 1.81,0.75 4.52,0.76 6.32,-0.03 1.31,-0.57 1.08,-0.99 1.04,-2.64 -3.3,1.27 -5.15,1.28 -8.45,0z"/>
    <path class="fil4" d="M115.61 43.72c0.37,-0.71 0.59,-2.12 0.47,-3.02 -0.31,-0.27 -0.66,-0.7 -1.23,-0.23 -0.56,0.47 0.08,2.11 -1.36,3.96 -1.43,1.85 -3.33,1.72 -4.99,2.02 -0.48,0.09 -0.85,0.51 -0.58,1.13 0.41,0.92 3.58,-0.04 4.19,-0.29 1.58,-0.66 2.98,-1.86 3.49,-3.57z"/>
    <path class="fil6" d="M106.86 12.26c-0.07,2.08 -0.89,4.34 -2.33,5.81 -0.59,0.6 -0.36,0.54 -0.5,0.37 -0.21,0.15 -0.11,0.01 -0.21,0.27 3.03,-0.04 4.67,-4.17 4.63,-7.49 -0.32,0.1 -1.14,0.74 -1.59,1.04z"/>
    <path class="fil3" d="M100.75 32.59l0 -3.07c-2.09,0.18 -2.03,2.9 -0,3.07z"/>
    <path class="fil3" d="M102.3 37.18c1.97,0.09 1.98,-3.06 0,-3.03l-0 3.03z"/>
   </g>
  </g>
 </g>
</svg>
