<svg id="Capa_1" data-name="Capa 1" xmlns="http://www.w3.org/2000/svg" viewBox="0 0 300 300"><defs><style>.cls-1{fill:#656970;}.cls-2{fill:#a0a2a8;}.cls-3{fill:#ffd34e;}.cls-4{fill:#dae2ef;}.cls-5{fill:#2aabb5;}.cls-6{fill:#5ad2e6;}.cls-7{fill:#b3593d;}</style></defs><title>Iconos_finales</title><rect class="cls-1" x="33.817" y="247.292" width="232.366" height="18.892"/><rect class="cls-2" x="46.096" y="228.4" width="207.807" height="18.892"/><polygon class="cls-3" points="46.096 107.494 253.904 107.494 257.682 88.602 42.318 88.602 46.096 107.494"/><rect class="cls-4" x="57.904" y="107.494" width="18.892" height="102.015"/><rect class="cls-4" x="223.205" y="107.494" width="18.892" height="102.015"/><polygon class="cls-5" points="150 33.817 33.817 88.602 266.183 88.602 150 33.817"/><circle class="cls-6" cx="150" cy="73.961" r="14.641"/><rect class="cls-4" x="76.795" y="107.494" width="146.41" height="120.906"/><polygon class="cls-4" points="84.824 209.508 49.875 209.508 46.096 228.4 88.602 228.4 88.602 228.4 84.824 209.508"/><polygon class="cls-4" points="250.125 209.508 215.176 209.508 211.398 228.4 211.398 228.4 253.904 228.4 250.125 209.508"/><path class="cls-7" d="M150,164.169c-18.259,0-37.783,11.96-37.783,26.715V228.4h75.566V190.884C187.783,176.129,168.259,164.169,150,164.169Z"/><path d="M266.183,242.569h-7.556V228.4c0-.025,0-.048,0-.073a4.6,4.6,0,0,0-.089-.859l-.008-.037-3.77-18.849a4.722,4.722,0,0,0-4.631-3.8h-3.306V112.217H253.9a4.723,4.723,0,0,0,4.631-3.8l3.019-15.095h4.629c4.911,0,6.467-6.895,2.015-9L152.014,29.545a4.725,4.725,0,0,0-4.028,0S32.366,84.065,31.8,84.329c-4.46,2.1-2.929,9,2.013,9h4.629l3.019,15.1a4.723,4.723,0,0,0,4.631,3.8h7.085v92.569H49.875a4.724,4.724,0,0,0-4.632,3.8l-3.769,18.849-.009.043,0,.025a4.87,4.87,0,0,0-.088.9v14.169H33.817a4.722,4.722,0,0,0-4.723,4.723v18.891a4.722,4.722,0,0,0,4.723,4.723H266.183a4.723,4.723,0,0,0,4.723-4.723V247.292A4.723,4.723,0,0,0,266.183,242.569ZM89.455,208.582a4.723,4.723,0,0,0-4.631-3.8H81.518V150H218.482v54.786h-3.306a4.723,4.723,0,0,0-4.631,3.8l-3.019,15.1h-15.02V190.884c0-8.559-5.017-16.658-14.125-22.806a50.97,50.97,0,0,0-56.762,0c-9.108,6.147-14.125,14.246-14.125,22.8v32.793H92.474Zm42.126-86.919H81.518v-9.446H218.482v9.446H169.364a4.723,4.723,0,1,0,0,9.445h49.118v9.446H81.518v-9.446h50.063a4.723,4.723,0,1,0,0-9.445ZM183.06,223.677H154.723v-54.5c14.919,1.782,28.337,11.66,28.337,21.707Zm-37.783,0H116.94V190.884c0-10.047,13.418-19.924,28.337-21.707Zm-94.458,9.446H249.181v9.446H50.819Zm166.34-9.446,1.889-9.446h27.206l1.889,9.446Zm10.769-18.891V112.217h9.446v92.569ZM150,39.038l95.094,44.841H166.618a19.364,19.364,0,1,0-33.237,0H54.906Zm9.918,34.923A9.918,9.918,0,1,1,150,64.043,9.929,9.929,0,0,1,159.918,73.961Zm-109.95,28.81-1.889-9.446H251.921l-1.889,9.446Zm12.658,9.446h9.446v92.569H62.626Zm-8.88,102.014H80.952l1.889,9.446H51.857ZM261.46,261.46H38.54v-9.446H261.46Z"/><path d="M150.472,131.108a4.723,4.723,0,1,0-4.723-4.723A4.73,4.73,0,0,0,150.472,131.108Z"/><circle cx="131.108" cy="201.952" r="4.722"/><circle cx="168.892" cy="201.952" r="4.722"/></svg>