<?xml version="1.0" encoding="UTF-8"?>
<!DOCTYPE svg PUBLIC "-//W3C//DTD SVG 1.1//EN" "http://www.w3.org/Graphics/SVG/1.1/DTD/svg11.dtd">
<!-- Creator: CorelDRAW 2020 (64-Bit) -->
<svg xmlns="http://www.w3.org/2000/svg" xml:space="preserve" width="229.297mm" height="229.345mm" version="1.1" style="shape-rendering:geometricPrecision; text-rendering:geometricPrecision; image-rendering:optimizeQuality; fill-rule:evenodd; clip-rule:evenodd"
viewBox="0 0 329.73 329.8"
 xmlns:xlink="http://www.w3.org/1999/xlink"
 xmlns:xodm="http://www.corel.com/coreldraw/odm/2003">
 <defs>
  <style type="text/css">
   <![CDATA[
    .str0 {stroke:white;stroke-width:0.11;stroke-miterlimit:22.9256}
    .fil1 {fill:black}
    .fil2 {fill:#ABD641}
    .fil0 {fill:#B6E445}
    .fil3 {fill:white}
   ]]>
  </style>
 </defs>
 <g id="Capa_x0020_1">
  <metadata id="CorelCorpID_0Corel-Layer"/>
  <path class="fil0" d="M233.54 302.5c1.26,-2.03 6.2,-4.48 8.4,-6.05 9.8,-6.95 13.74,-10.37 22.08,-18.46 40.58,-39.36 58.81,-105.27 39.5,-162.02 -5,-14.69 -10.11,-24.8 -17.22,-36.65 -14.34,-23.9 -31.15,-36.86 -52.89,-51.49 -1.61,-1.08 -0.82,-0.28 -2.07,-1.78 -4.46,-3.98 -27.87,-10.73 -35.73,-12.33 -95.79,-19.54 -185.79,54.57 -184.96,152.48 0.25,29.09 9.12,55.97 21.14,76.58 6.43,11.02 13.75,20.04 21.08,28.11 24.17,26.58 62.55,44.87 99.99,47.74 15.06,1.16 30.68,0.09 44.99,-3.1 7.9,-1.76 31.74,-8.98 35.68,-13.01z"/>
  <path class="fil1" d="M231.34 26.05c9.86,3.35 28.75,16.77 34.6,22.44 12.6,12.19 14.47,12.89 26.3,29.54 44,61.97 32.56,151.65 -24.94,201.92 -6.48,5.66 -23.8,19.6 -33.76,22.55 -3.94,4.04 -27.78,11.25 -35.68,13.01 -14.31,3.2 -29.93,4.26 -44.99,3.1 -37.44,-2.87 -75.82,-21.16 -99.99,-47.74 -7.33,-8.07 -14.66,-17.09 -21.08,-28.11 -12.02,-20.61 -20.89,-47.48 -21.14,-76.58 -0.84,-97.91 89.17,-172.01 184.96,-152.48 7.87,1.6 31.28,8.35 35.73,12.33zm-231.34 132.83c0,30.79 2.86,47.81 15.3,75.78 9.46,21.27 21.95,35.42 37.71,51.37 9.81,9.93 29.11,22.41 41.6,28.2 53.38,24.73 118.35,20.1 165.21,-14.51 4.41,-3.26 12.67,-9.42 16.56,-13.36 10.28,-10.4 13.88,-13.44 23.04,-26.15 4.88,-6.77 11.23,-17.42 14.79,-25.1 12.13,-26.17 15.51,-44.95 15.51,-76.23 0,-11.21 -2.3,-25.31 -4.78,-34.44 -2.98,-10.94 -6.2,-19.66 -10.52,-29.37 -3.08,-6.93 -10.26,-19.13 -14.72,-25.17 -2.78,-3.77 -5.5,-7.88 -8.71,-11.24l-14.29 -14.96c-2.06,-2.08 -3.32,-2.79 -5.32,-4.65 -23.46,-21.81 -66.3,-39.05 -100.55,-39.05 -36.83,0 -57.1,4.99 -88.85,22.16 -16.74,9.05 -30.15,22.42 -42.94,36.17 -8.22,8.84 -18.47,25.32 -23.55,36.28 -7.63,16.46 -15.51,40.62 -15.51,64.26z"/>
  <path class="fil2" d="M233.54 302.5c9.96,-2.96 27.28,-16.89 33.76,-22.55 57.51,-50.26 68.95,-139.95 24.94,-201.92 -11.83,-16.65 -13.7,-17.35 -26.3,-29.54 -5.85,-5.66 -24.74,-19.08 -34.6,-22.44 1.26,1.5 0.46,0.7 2.07,1.78 21.75,14.63 38.56,27.59 52.89,51.49 7.11,11.85 12.22,21.95 17.22,36.65 19.31,56.75 1.08,122.66 -39.5,162.02 -8.35,8.09 -12.29,11.51 -22.08,18.46 -2.2,1.56 -7.14,4.02 -8.4,6.05z"/>
  <polygon class="fil3 str0" points="70.63,203.57 200.69,74.73 214.15,75.55 257.36,116.93 260.42,126.31 254.51,135.69 130.97,260.45 73.79,263.4 69.71,244.55 "/>
  <path class="fil1" d="M73.55 234.47l0 -28.13c0,-2.34 0.65,-2.92 0.82,-4.89l15.16 4.82c1.78,0.73 2.06,2.55 2.77,4.16 9.25,21.19 4.84,17.53 17.43,22.93 3.29,1.41 6.18,2.69 9.43,4.02 4.95,2.03 3.72,1.34 5.82,7.64 0.72,2.17 3.03,8.12 3.21,10.24 -1.98,0.16 -2.56,0.82 -4.89,0.82l-28.13 0c-1.37,0 -14.42,-13.81 -16.41,-15.8 -1.04,-1.04 -5.2,-4.49 -5.2,-5.81zm59.93 15.08c-0.22,-2.66 -3.67,-10.22 -3.67,-12.23 0,-0.01 68.87,-69.55 70.93,-70.93l8.25 8.05c-1.53,2.24 -62.01,62.21 -70.32,70.52 -1.37,1.37 -3.34,4.09 -5.2,4.59zm-8.25 -17.22c-1.47,-0.27 -19.13,-7.75 -19.65,-8.28 -0.53,-0.52 -8.01,-18.18 -8.38,-19.75l70.83 -70.63 27.92 27.72 -70.73 70.93zm-32.92 -32.51c-1.2,0 -4.59,-1.33 -5.96,-1.78 -1.77,-0.59 -4.54,-1.74 -6.27,-1.88 0.46,-1.74 7.36,-7.97 9.07,-9.68 3.23,-3.23 6.15,-6.15 9.38,-9.38 6.35,-6.35 12.4,-12.4 18.75,-18.75 8.21,-8.21 17.27,-17.86 25.87,-25.5l11.94 -12.11 8.25 8.05c-1.49,2.18 -71.02,71.03 -71.03,71.03zm79.39 -95.49l53.61 53.81 -11.42 11.62 -53.81 -53.6 11.62 -11.82zm35.16 -30.47c7.64,0 10.84,4.93 14.78,8.87l27.11 26.7c4.62,4.37 7.03,6.85 7.03,13.35 0,6.44 -6.31,10.99 -11.72,16.41l-14.37 14.17 -53.3 -53.51c1.04,-1.6 18.13,-18.32 20.99,-21.2 2.26,-2.27 5.14,-4.79 9.48,-4.79zm-139.83 130.45l0 49.33c0,4.48 4.48,8.97 8.97,8.97l49.33 0c5.45,0 8.3,-3.21 11.11,-6.01 3.02,-3.02 5.74,-5.74 8.76,-8.76l103.95 -103.95c5.32,-5.32 13.55,-11.31 13.55,-21.5 0,-7.29 -3.31,-11.66 -7.85,-16.2l-36.99 -35.99c-5.16,-3.44 -12.59,-3.96 -18.77,-1.22 -4.61,2.05 -9.57,7.74 -13.14,11.32l-97.02 97.02c-4.18,4.18 -8.05,8.05 -12.23,12.23 -3.67,3.67 -9.68,7.87 -9.68,14.78z"/>
 </g>
</svg>
