<svg id="Capa_1" data-name="Capa 1" xmlns="http://www.w3.org/2000/svg" viewBox="0 0 300 300"><defs><style>.cls-1{fill:#97d4ac;}.cls-2{fill:#e3e3e3;}.cls-3{fill:#fff3dc;}.cls-4{fill:#ffc433;}.cls-5{opacity:0.1;isolation:isolate;}</style></defs><title>Iconos_finales</title><path class="cls-1" d="M69.715,252.966V47.034h0a15.364,15.364,0,0,1,15.319-15.32h143.46a.59.59,0,0,1,.589.59V237.647H210.612Z"/><path class="cls-2" d="M220.774,237.647H85.034a15.363,15.363,0,0,0-15.319,15.319h0a15.364,15.364,0,0,0,15.319,15.32h135.74V237.647Z"/><path class="cls-3" d="M188.129,130.069h-67.3a2.887,2.887,0,0,1-2.887-2.886V95.831a2.888,2.888,0,0,1,2.887-2.887h67.3a2.887,2.887,0,0,1,2.886,2.887v31.352A2.887,2.887,0,0,1,188.129,130.069Z"/><polygon class="cls-4" points="197.028 71.447 183.975 69.853 170.92 71.447 170.92 31.714 197.028 31.714 197.028 71.447"/><path class="cls-5" d="M228.494,31.714h-20.2a.59.59,0,0,1,.59.59V237.647h-8.309v30.639h20.2V237.647h8.308V32.3A.59.59,0,0,0,228.494,31.714Z"/><path d="M230.285,98.524a3.608,3.608,0,0,0,3.608-3.608V32.3a4.2,4.2,0,0,0-4.2-4.2H85.034A18.948,18.948,0,0,0,66.107,47.034V252.966a18.948,18.948,0,0,0,18.928,18.927h145.25a3.608,3.608,0,1,0,0-7.215h-5.9V241.254h5.9a3.607,3.607,0,0,0,3.608-3.607V114.862a3.608,3.608,0,1,0-7.215,0V234.039H85.034a18.828,18.828,0,0,0-11.712,4.076V47.034A11.725,11.725,0,0,1,85.034,35.322h82.279V71.447a3.608,3.608,0,0,0,3.608,3.608h26.107a3.608,3.608,0,0,0,3.608-3.608V35.322h26.042V94.916A3.608,3.608,0,0,0,230.285,98.524ZM85.034,241.254H217.167v8.105h-28.8a3.608,3.608,0,1,0,0,7.215h28.8v8.1H85.034a11.712,11.712,0,1,1,0-23.424ZM193.421,67.84H174.529V35.322h18.892Z"/><path d="M89.293,146.041v76.607a3.608,3.608,0,0,0,7.216,0V146.041a3.608,3.608,0,0,0-7.216,0Z"/><path d="M125.708,97.2a3.608,3.608,0,1,0,0-7.215h-5.171a6.5,6.5,0,0,0-6.494,6.494v31.352a6.5,6.5,0,0,0,6.494,6.5h67.3a6.5,6.5,0,0,0,6.494-6.5V96.482a6.5,6.5,0,0,0-6.494-6.494H137.808a3.608,3.608,0,1,0,0,7.215h49.305v29.91H121.258V97.2Z"/><path d="M173.632,115.766a3.608,3.608,0,0,0,0-7.216h-38.3a3.608,3.608,0,0,0,0,7.216Z"/></svg>