<svg id="Capa_1" data-name="Capa 1" xmlns="http://www.w3.org/2000/svg" viewBox="0 0 300 300"><defs><style>.cls-1{fill:#f8e99b;}.cls-2{fill:#f6e27d;}.cls-3{fill:#efc27b;}</style></defs><title>Iconos_finales</title><circle class="cls-1" cx="150.352" cy="152.874" r="117.82"/><path class="cls-2" d="M150.352,35.054c-3.307,0-6.581.144-9.819.411a117.819,117.819,0,0,1,0,234.818c3.238.267,6.512.411,9.819.411a117.82,117.82,0,0,0,0-235.64Z"/><circle class="cls-2" cx="150.352" cy="152.874" r="85.092"/><path class="cls-3" d="M150.352,67.782a85.8,85.8,0,0,0-9.819.568,85.093,85.093,0,0,1,0,169.049,85.093,85.093,0,1,0,9.819-169.617Z"/><path d="M150.352,30.145A122.735,122.735,0,0,0,54.9,230.023a4.909,4.909,0,0,0,7.632-6.177A112.908,112.908,0,1,1,79.381,240.7a4.909,4.909,0,1,0-6.176,7.633A122.731,122.731,0,1,0,150.352,30.145Z"/><path d="M200.306,83.806a4.91,4.91,0,0,0-1.487-6.781,90.057,90.057,0,1,0,20.759,18.332,4.909,4.909,0,1,0-7.548,6.279,80.09,80.09,0,1,1-18.506-16.342A4.91,4.91,0,0,0,200.306,83.806Z"/><path d="M150.352,111.965c10.246,0,21.272,4.608,21.272,14.727a4.91,4.91,0,0,0,9.819,0c0-14.4-12.5-22.663-26.182-24.256V93.964a4.91,4.91,0,0,0-9.819,0v8.472c-13.686,1.593-26.182,9.853-26.182,24.256,0,16.125,15.353,23.8,28.9,30.573,12.069,6.034,23.469,11.734,23.469,21.792,0,10.118-11.027,14.727-21.273,14.727s-21.273-4.609-21.273-14.727a4.909,4.909,0,1,0-9.818,0c0,14.4,12.5,22.662,26.182,24.255v8.472a4.909,4.909,0,1,0,9.818,0v-8.472c13.686-1.593,26.182-9.853,26.182-24.255,0-16.125-15.352-23.8-28.9-30.573-12.068-6.035-23.468-11.734-23.468-21.792C129.079,116.573,140.106,111.965,150.352,111.965Z"/></svg>