<?xml version="1.0" encoding="UTF-8"?>
<!DOCTYPE svg PUBLIC "-//W3C//DTD SVG 1.1//EN" "http://www.w3.org/Graphics/SVG/1.1/DTD/svg11.dtd">
<!-- Creator: CorelDRAW 2020 (64-Bit) -->
<svg xmlns="http://www.w3.org/2000/svg" xml:space="preserve" width="155.475mm" height="155.475mm" version="1.1" style="shape-rendering:geometricPrecision; text-rendering:geometricPrecision; image-rendering:optimizeQuality; fill-rule:evenodd; clip-rule:evenodd"
viewBox="0 0 151.83 151.83"
 xmlns:xlink="http://www.w3.org/1999/xlink"
 xmlns:xodm="http://www.corel.com/coreldraw/odm/2003">
 <defs>
  <style type="text/css">
   <![CDATA[
    .fil0 {fill:black}
    .fil10 {fill:#525456}
    .fil9 {fill:#69592F}
    .fil5 {fill:#959EA8}
    .fil2 {fill:#B17845}
    .fil4 {fill:#E6E9ED}
    .fil3 {fill:#F0D0B4}
    .fil8 {fill:#FA6E51}
    .fil1 {fill:#FBD670}
    .fil7 {fill:#FD816D}
    .fil6 {fill:#FEC629}
   ]]>
  </style>
 </defs>
 <g id="Capa_x0020_1">
  <metadata id="CorelCorpID_0Corel-Layer"/>
  <g id="_2439710160896">
   <path class="fil0" d="M63.84 142.2l-0.04 4.77c-1.77,0.16 -3.44,0.07 -5.08,0.07l-4.14 -0.02c-0.51,-0.09 -0.42,-0.13 -0.68,-0.27 -0.16,-4.84 -0.01,-9.61 0.49,-14.39l23.98 -0.14 0 14.7 -9.8 -0.02c0,-5.32 -0.28,-4.39 1.65,-8.16 -1,-1.11 -2.13,-2.67 -3.61,-3.27 -1.13,1.53 -2.81,3.78 -2.77,6.72zm26.98 -1.9c-1.14,-0.73 -2.08,-2.38 -2.88,-3.45 -3.48,-4.65 -1.79,-2.12 -0.17,-14.4l5.71 0c0.39,3.42 1.39,7.1 1.73,10.44 0.26,2.53 -2.93,4.41 -4.38,7.41zm-1.55 -25.25c0.92,0.89 1.43,1.36 2.28,2.47l-3.75 -0.01 -0.55 -5c0.82,0.92 1.22,1.78 2.02,2.54zm-50.08 -12.15c7.05,-0.39 16.14,-0.17 23.09,0.59 9.05,0.99 11.56,2.41 19.26,4.45 0.36,3.17 0.89,6.43 1.37,9.62 0.56,3.69 -0.43,6.28 -0.83,9.76l-26.79 0c0.29,-1.87 0.81,-3.82 1.31,-5.5 0.36,-1.21 0.83,-4.29 2.13,-4.29 4.68,0 7.12,0.31 11.23,2.17l2.1 -4.43c-5.8,-2.4 -8.03,-2.65 -15.1,-2.65 -5.78,0 -11.99,0.21 -17.75,-0.03l-0.01 -9.71zm-4.92 9.64c-4.66,0.67 -9.83,0.09 -9.75,-4.9 0.08,-4.73 5.14,-5.5 9.77,-4.65l-0.02 9.56zm39.87 -12.02c-1.11,-0.09 -3.03,-0.63 -4.15,-0.89l1.35 -0.73c1.64,-0.69 3.6,-1.94 4.88,-2.24 -0.58,1.1 -1.8,2.68 -2.08,3.86zm-20.26 -12.52c7.9,-0.44 10.65,-2.91 13.81,-3.53l4.71 8.35c-3.06,2.61 -13.41,4.73 -18.51,5.03l-0 -9.84zm-18.58 -3.52c3.79,0.89 5.87,3.07 13.69,3.53l-0.05 9.8c-5.87,-0.35 -14.23,-2.24 -18.52,-5.06l4.88 -8.27zm39.27 -4.59c0.56,-0.37 0.16,-0.19 0.76,-0.4 0.53,1.39 2.12,9.74 1.78,10.67 -0.88,-0.3 -0.28,0.14 -0.97,-0.83l-4.11 -7.49 2.54 -1.95zm29.62 -2.98c0.6,-1.28 2.1,-2.92 3.07,-4.07 3.78,-4.51 5.91,-9.26 11.67,-9.16 4.43,0.08 6.84,3.31 8.77,5.24 2.34,2.35 4.47,4.48 6.81,6.83 3.94,3.95 3,3.92 0.07,9 -7.76,13.47 -6.76,8.97 -4.23,19.48 1.46,6.07 -5.46,2.12 -8.17,1.6l-2.33 3.79c-1.52,-1.98 -1.49,-1.57 -3.67,-2.8 -2.57,-1.44 0.96,-6.76 -10.1,-8.64l-1.41 4.42c1.19,0.83 2.91,1 4.35,1.61 1.86,0.77 0.9,1.98 1.77,3.88 1.82,4.01 4.23,1.67 5.37,5.74 -9.34,7.46 -25.66,3.94 -27.75,-13.11l-4.61 1.34c-0.32,1.97 -0.01,-1.04 -0.06,0.47 -0,0.09 0.13,0.88 0.14,1.03l-4.93 -1.58c0.29,-0.67 3.25,-5.69 3.68,-6.02 0.47,-0.36 2.9,-1.03 3.69,-1.35 5.02,-2.09 11.05,-7.05 12.86,-11.57 -1.28,-1.09 -3.09,-1.95 -4.27,-2.96 -1.24,-1.06 -1.92,-3.57 -0.48,-5.24 3.39,-3.93 6.81,1.27 9.77,2.08zm-91.57 -0.11c0.91,-0.8 7.4,-4.57 8.57,-4.87 1.02,2.59 7.2,8.66 9.76,9.79 -0.39,1.18 -4.25,7.88 -4.92,8.58 -4.42,-3.07 -11.12,-8.67 -13.41,-13.5zm69.87 13.88c-1.49,-5.92 -2.53,-13.41 -3.6,-19.52 -1.17,-6.64 0.04,-13.6 3.07,-18.57 2.86,-4.69 6.47,-8.37 11.91,-10.92 6.5,-3.06 12.62,-2.5 20.32,-2.48 12.37,0.03 23.55,6.22 28.92,16.72 3.44,6.73 3.85,10.66 3.85,19.13 -0,3.09 0.34,8.82 -0,11.6 -0.34,2.71 -2.29,1.1 -3.22,0.37 -1.08,-0.84 -2.2,-1.51 -3.18,-2.48 0.57,-2.76 2.53,-3.62 0.95,-7.74 -0.84,-2.19 -7.41,-8.19 -9.4,-10.18 -1.59,-1.59 -3.07,-3.32 -4.91,-4.87 -3.6,-3.03 -10.03,-3.84 -14.86,-1.32 -3.82,1.99 -6.55,6.74 -9.41,9.87 -2.29,-1.05 -3.62,-2.22 -7.02,-1.65 -4.88,0.82 -7.98,5.54 -6.99,10.34 0.72,3.5 2.43,3.54 3.43,5.69 -1.35,0.64 -1.58,1.77 -4.39,3.57 -1.49,0.96 -3.45,1.96 -5.46,2.45zm-72.39 -18.32c-2.64,-3.21 -4.75,-13.3 -5.04,-18.49l9.8 0c0.44,7.97 2.83,10.42 3.54,13.8l-8.3 4.69zm38.06 -52.57c15.26,-1.71 29.07,8.07 33.55,21.87 0.87,2.66 0.87,1.97 -1.46,4.78 -4.6,5.57 -8.07,15.01 -6.33,24.69 0.32,1.81 0.73,2.11 -0.45,3.22 -2.09,1.98 -4.16,3.51 -6.86,5 -3.47,1.91 -7.46,3.28 -11.99,3.74 -18.56,1.89 -33.22,-12.11 -34.85,-28.52 -1.86,-18.67 12.03,-32.94 28.39,-34.78zm44.67 10.7c0.97,1.25 1.94,3.75 2.38,5.45 -3.49,0.9 -6.05,2.87 -8.72,4.35l-2.04 -5.12 8.37 -4.68zm-87.78 18.48c0.3,-5.15 2.41,-15.34 5.09,-18.55l8.24 4.87c-1.44,5.07 -3.02,5.91 -3.53,13.68l-9.8 -0zm66.87 -27.78c0.37,-1.37 1.64,-3.15 2.37,-4.43l2.23 -3.76c0.03,-0.04 0.12,-0.07 0.15,-0.18 0.02,-0.11 0.1,-0.12 0.15,-0.18 3.71,1.79 12.13,10.05 13.42,13.46 -0.85,0.71 -7.43,4.53 -8.38,4.73 -1.73,-2.04 -2.76,-3.72 -4.4,-5.37 -1.01,-1.01 -4.09,-3.66 -5.53,-4.27zm-59.36 4.9c2.02,-4.01 9.52,-11.5 13.54,-13.53 0.61,0.74 4.54,7.55 4.83,8.59 -2.42,0.98 -8.81,7.37 -9.78,9.78 -1.11,-0.33 -7.77,-4.18 -8.59,-4.84zm41.32 -21.06c5.4,0.31 14.96,2.39 18.55,5.11l-4.66 8.31c-4.93,-1.4 -6.12,-3.11 -13.88,-3.62l-0 -9.8zm-23.38 5.06c3.11,-2.61 13.37,-4.75 18.49,-5.05l0 9.8c-2.54,0.17 -5.06,0.57 -7.38,1.25 -2.25,0.65 -4.38,1.75 -6.4,2.34l-4.7 -8.34zm-30.49 39.14c0,12.99 2.13,21.17 9.25,31.67 1.65,2.43 4.18,5.31 6.24,7.4 0.93,0.94 1.58,1.32 2.52,2.22 4.13,3.94 10.3,6.69 11.05,7.34 -5.01,0.11 -9.49,4.71 -9.49,8.9 0,7.31 4.23,11.02 11.56,10.98 7.11,-0.04 14.24,-0 21.35,-0 -0.23,2.77 -3.56,9.58 -3.56,21.35l0 12.75 34.4 0 0 -12.75c0.17,0.2 0.13,0.14 0.41,0.48l6.71 9.01c1.03,-0.69 10.08,-13.05 10.08,-13.05l-2.08 -13.05c6.9,0 11.29,0.42 16.21,-1.87 3.27,-1.52 8.93,-5.99 9.58,-8.8 2.04,0.17 1.41,0.89 4.74,0.89 3.47,0 6.52,-3 6.52,-7.41 0,-1.62 -0.58,-3.22 -0.95,-4.68l-0.86 -3.33c-0.19,-0.97 -0.15,-0.52 0,-0.97l4.18 -7.32c2.64,1.4 4.29,4.15 8.01,4.15 2.97,0 5.93,-2.63 5.93,-5.63l0 -18.09c0,-7.9 -4.06,-17.17 -9.12,-22.61 -0.96,-1.03 -1.04,-1.52 -2.28,-2.47 -4.67,-3.58 -4.49,-4.29 -11.15,-7.23 -7.51,-3.32 -14.14,-2.97 -22.53,-2.97 -2.25,0 -5.01,0.17 -6.82,0.59 -0.16,-1.93 -2.17,-5.52 -2.97,-7.12 -4.24,-8.52 -11.54,-15.8 -19.7,-20.63 -6.26,-3.71 -15.77,-6.94 -23.6,-6.94 -9.27,0 -16.38,0.91 -24.22,4.84 -11.33,5.67 -18.94,13.28 -24.61,24.61 -2.31,4.61 -4.84,13.02 -4.84,19.77z"/>
   <path class="fil1" d="M49.02 24.9c0.45,-0.66 -0.61,-0.36 1.07,-0.53l3.72 0.1c0.53,1.67 0.2,7.78 0.21,9.97 1.45,0.79 2.72,0.94 4.2,1.93 4.72,3.17 5.45,7.04 5.45,12.57l-4.9 -0.05c0,-10.45 -5.32,-9.72 -14.64,-9.72 -0.8,11.81 8.18,8.69 13.25,11.37 7.05,3.73 6.28,10.88 6.28,17.99l-9.78 0.02 -0.01 9.78 -4.89 -0.03c0,-12.06 0.72,-9.54 -2.15,-10.67 -0.81,-0.32 -1.3,-0.55 -1.97,-1 -4.9,-3.27 -5.68,-6.98 -5.68,-12.77l4.89 0.14c0,10.36 5.38,9.66 14.6,9.66 1.43,-11.41 -8.71,-8.93 -13.14,-11.35 -7.47,-4.09 -6.36,-11.25 -6.36,-18.03l9.77 -0.01 0.06 -9.38zm-0.87 -5.11c-16.36,1.84 -30.25,16.11 -28.39,34.78 1.64,16.41 16.3,30.41 34.85,28.52 4.53,-0.46 8.53,-1.83 11.99,-3.74 2.7,-1.49 4.77,-3.03 6.86,-5 1.18,-1.12 0.78,-1.42 0.45,-3.22 -1.74,-9.68 1.73,-19.12 6.33,-24.69 2.32,-2.81 2.32,-2.12 1.46,-4.78 -4.49,-13.8 -18.29,-23.58 -33.55,-21.87z"/>
   <path class="fil2" d="M82.47 90.68c2.01,-0.49 3.97,-1.5 5.46,-2.45 2.81,-1.8 3.04,-2.93 4.39,-3.57 -1,-2.15 -2.71,-2.19 -3.43,-5.69 -0.99,-4.8 2.11,-9.53 6.99,-10.34 3.4,-0.57 4.73,0.61 7.02,1.65 2.86,-3.13 5.59,-7.88 9.41,-9.87 4.83,-2.52 11.27,-1.71 14.86,1.32 1.84,1.55 3.32,3.28 4.91,4.87 1.98,1.99 8.56,7.99 9.4,10.18 1.58,4.12 -0.38,4.97 -0.95,7.74 0.98,0.97 2.11,1.64 3.18,2.48 0.93,0.72 2.87,2.34 3.22,-0.37 0.35,-2.77 0,-8.51 0,-11.6 0,-8.47 -0.41,-12.4 -3.85,-19.13 -5.36,-10.5 -16.55,-16.69 -28.92,-16.72 -7.7,-0.02 -13.82,-0.58 -20.32,2.48 -5.43,2.56 -9.05,6.23 -11.91,10.92 -3.03,4.97 -4.24,11.93 -3.07,18.57 1.08,6.11 2.11,13.6 3.6,19.52z"/>
   <path class="fil3" d="M122.17 80.15c0.76,0.95 2.88,7.8 3.26,9.41 -1.11,0.81 -7.79,2.98 -9.58,3.26l-1.41 -4.54 4.91 -1.59 -1.62 -5.14 4.45 -1.4zm-18 -3.24c-2.96,-0.81 -6.38,-6.01 -9.77,-2.08 -1.44,1.67 -0.76,4.18 0.48,5.24 1.18,1.01 2.98,1.87 4.27,2.96 -1.81,4.52 -7.83,9.48 -12.86,11.57 -0.79,0.33 -3.22,1 -3.69,1.35 -0.43,0.33 -3.39,5.35 -3.68,6.02l4.93 1.58c-0.01,-0.15 -0.14,-0.94 -0.14,-1.03 0.05,-1.51 -0.26,1.5 0.06,-0.47l4.61 -1.34c2.09,17.05 18.42,20.57 27.75,13.11 -1.15,-4.07 -3.55,-1.72 -5.37,-5.74 -0.86,-1.9 0.09,-3.11 -1.77,-3.88 -1.45,-0.6 -3.16,-0.77 -4.35,-1.61l1.41 -4.42c11.06,1.88 7.54,7.2 10.1,8.64 2.18,1.22 2.15,0.82 3.67,2.8l2.33 -3.79c2.71,0.52 9.63,4.48 8.17,-1.6 -2.53,-10.51 -3.53,-6.01 4.23,-19.48 2.93,-5.08 3.87,-5.05 -0.07,-9 -2.34,-2.35 -4.47,-4.48 -6.81,-6.83 -1.92,-1.92 -4.33,-5.16 -8.77,-5.24 -5.76,-0.11 -7.89,4.65 -11.67,9.16 -0.96,1.14 -2.47,2.78 -3.07,4.07z"/>
   <path class="fil4" d="M39.19 112.61c5.76,0.25 11.97,0.03 17.75,0.03 7.08,-0 9.31,0.25 15.1,2.65l-2.1 4.43c-4.11,-1.86 -6.55,-2.17 -11.23,-2.17 -1.3,0 -1.77,3.08 -2.13,4.29 -0.5,1.68 -1.02,3.63 -1.31,5.5l26.79 0c0.4,-3.48 1.39,-6.07 0.83,-9.76 -0.48,-3.19 -1.01,-6.45 -1.37,-9.62 -7.7,-2.04 -10.21,-3.46 -19.26,-4.45 -6.95,-0.76 -16.03,-0.98 -23.09,-0.59l0.01 9.71z"/>
   <path class="fil0" d="M54.02 34.45c-0.44,-0.79 -0.29,-1.42 -0.28,-2.42 0.01,-0.79 0,-1.58 0,-2.37 0,-1.64 0,-3.27 -0,-4.93l-4.72 0.18 -0.06 9.38 -9.77 0.01c0,6.78 -1.11,13.94 6.36,18.03 4.43,2.42 14.56,-0.06 13.14,11.35 -9.23,0 -14.6,0.7 -14.6,-9.66l-4.89 -0.14c-0,5.78 0.78,9.5 5.68,12.77 0.67,0.45 1.16,0.68 1.97,1 2.87,1.13 2.15,-1.4 2.15,10.67l4.89 0.03 0.01 -9.78 9.78 -0.02c-0,-7.11 0.77,-14.26 -6.28,-17.99 -5.07,-2.68 -14.06,0.44 -13.25,-11.37 9.32,0 14.64,-0.73 14.64,9.72l4.9 0.05c-0,-5.54 -0.73,-9.4 -5.45,-12.57 -1.48,-0.99 -2.75,-1.14 -4.2,-1.93z"/>
   <path class="fil5" d="M53.89 146.75l9.69 0c0,-0.89 -0.4,-4.14 0.25,-4.55 -0.04,-2.93 1.64,-5.19 2.77,-6.72 1.47,0.6 2.61,2.15 3.61,3.27 -1.94,3.77 -1.65,2.84 -1.65,8.16l9.8 0.02 0 -14.7 -23.98 0.14c-0.5,4.78 -0.65,9.55 -0.49,14.39z"/>
   <path class="fil6" d="M53.87 88l0 9.84c5.1,-0.3 15.45,-2.42 18.51,-5.03l-4.71 -8.35c-3.16,0.62 -5.91,3.1 -13.81,3.53z"/>
   <path class="fil6" d="M53.87 14.82c7.76,0.5 8.96,2.22 13.88,3.62l4.66 -8.31c-3.59,-2.72 -13.15,-4.8 -18.55,-5.11l0 9.8z"/>
   <path class="fil6" d="M12.55 26.08c0.81,0.66 7.48,4.51 8.59,4.84 0.97,-2.42 7.37,-8.8 9.78,-9.78 -0.3,-1.04 -4.22,-7.85 -4.83,-8.59 -4.02,2.03 -11.52,9.52 -13.54,13.53z"/>
   <path class="fil6" d="M10.08 72.36l8.3 -4.69c-0.71,-3.38 -3.09,-5.83 -3.54,-13.8l-9.8 -0c0.29,5.19 2.4,15.28 5.04,18.49z"/>
   <path class="fil6" d="M12.6 76.8c2.29,4.83 8.99,10.42 13.41,13.5 0.67,-0.7 4.53,-7.4 4.92,-8.58 -2.56,-1.13 -8.74,-7.19 -9.76,-9.79 -1.16,0.31 -7.66,4.07 -8.57,4.87z"/>
   <path class="fil6" d="M30.49 10.08l4.7 8.34c2.02,-0.59 4.15,-1.68 6.4,-2.34 2.33,-0.67 4.84,-1.08 7.38,-1.25l0 -9.8c-5.12,0.29 -15.38,2.43 -18.49,5.05z"/>
   <path class="fil6" d="M5.04 48.97l9.8 0c0.51,-7.77 2.09,-8.61 3.53,-13.68l-8.24 -4.87c-2.68,3.21 -4.79,13.4 -5.09,18.55z"/>
   <path class="fil6" d="M71.91 21.18c1.45,0.61 4.53,3.25 5.53,4.27 1.64,1.65 2.67,3.33 4.4,5.37 0.95,-0.2 7.53,-4.02 8.38,-4.73 -1.29,-3.41 -9.71,-11.67 -13.42,-13.46 -0.05,0.06 -0.13,0.07 -0.15,0.18 -0.02,0.11 -0.12,0.14 -0.15,0.18l-2.23 3.76c-0.73,1.28 -2,3.05 -2.37,4.43z"/>
   <path class="fil6" d="M30.4 92.75c4.29,2.82 12.65,4.71 18.52,5.06l0.05 -9.8c-7.82,-0.46 -9.91,-2.64 -13.69,-3.53l-4.88 8.27z"/>
   <path class="fil7" d="M90.81 140.3c1.45,-3 4.64,-4.88 4.38,-7.41 -0.34,-3.34 -1.34,-7.02 -1.73,-10.44l-5.71 0c-1.61,12.28 -3.31,9.75 0.17,14.4 0.81,1.08 1.74,2.72 2.88,3.45z"/>
   <path class="fil3" d="M34.26 112.55l0.02 -9.56c-4.64,-0.85 -9.7,-0.07 -9.77,4.65 -0.08,5 5.08,5.57 9.75,4.9z"/>
   <path class="fil0" d="M117.72 81.55l1.62 5.14 -4.91 1.59 1.41 4.54c1.79,-0.29 8.48,-2.45 9.58,-3.26 -0.38,-1.61 -2.5,-8.45 -3.26,-9.41l-4.45 1.4z"/>
   <path class="fil6" d="M84.45 35.17l2.04 5.12c2.67,-1.48 5.23,-3.45 8.72,-4.35 -0.44,-1.7 -1.41,-4.21 -2.38,-5.45l-8.37 4.68z"/>
   <path class="fil6" d="M72.02 81.84l4.11 7.49c0.69,0.97 0.09,0.53 0.97,0.83 0.34,-0.93 -1.25,-9.28 -1.78,-10.67 -0.6,0.2 -0.2,0.02 -0.76,0.4l-2.54 1.95z"/>
   <path class="fil8" d="M87.8 117.51l3.75 0.01c-0.86,-1.1 -1.36,-1.58 -2.28,-2.47 -0.79,-0.76 -1.2,-1.62 -2.02,-2.54l0.55 5z"/>
   <path class="fil9" d="M54.02 34.45c-0.01,-2.18 0.31,-8.29 -0.21,-9.97l-3.72 -0.1c-1.69,0.17 -0.63,-0.14 -1.07,0.53l4.72 -0.18c0,1.66 0,3.3 0,4.93 0,0.79 0.01,1.58 -0,2.37 -0.01,1 -0.16,1.63 0.28,2.42z"/>
   <path class="fil10" d="M53.89 146.75c0.26,0.14 0.17,0.18 0.68,0.27l4.14 0.02c1.64,0 3.31,0.09 5.08,-0.07l0.04 -4.77c-0.66,0.41 -0.25,3.66 -0.25,4.55l-9.69 0z"/>
  </g>
 </g>
</svg>
