<?xml version="1.0" encoding="UTF-8"?>
<!DOCTYPE svg PUBLIC "-//W3C//DTD SVG 1.1//EN" "http://www.w3.org/Graphics/SVG/1.1/DTD/svg11.dtd">
<!-- Creator: CorelDRAW 2020 (64-Bit) -->
<svg xmlns="http://www.w3.org/2000/svg" xml:space="preserve" width="195.638mm" height="178.015mm" version="1.1" style="shape-rendering:geometricPrecision; text-rendering:geometricPrecision; image-rendering:optimizeQuality; fill-rule:evenodd; clip-rule:evenodd"
viewBox="0 0 238.8 217.29"
 xmlns:xlink="http://www.w3.org/1999/xlink"
 xmlns:xodm="http://www.corel.com/coreldraw/odm/2003">
 <defs>
  <style type="text/css">
   <![CDATA[
    .fil0 {fill:black}
    .fil3 {fill:#14AB0C}
    .fil1 {fill:#18CE0F}
    .fil12 {fill:#2E4467}
    .fil10 {fill:#4A688B}
    .fil13 {fill:#5376A3}
    .fil6 {fill:#5A86CC}
    .fil7 {fill:#7FB4FA}
    .fil8 {fill:#80B6FC}
    .fil4 {fill:#B1E3FA}
    .fil5 {fill:#C8C3CA}
    .fil11 {fill:#D16161}
    .fil14 {fill:#D97B7B}
    .fil2 {fill:#F2F0F3}
    .fil9 {fill:#FEDE00}
   ]]>
  </style>
 </defs>
 <g id="Capa_x0020_1">
  <metadata id="CorelCorpID_0Corel-Layer"/>
  <g id="_1752837449952">
   <path class="fil0" d="M160.47 181.12l15.36 -0.02 0.04 28.57c-1.65,1 -14.56,0.48 -15.7,0.18 -0.16,-0.98 -0.85,-26.89 0.29,-28.73zm-64.6 -164.25l0 8.9c13.59,-0.01 13.74,1.14 13.74,14.52 7,0 10.16,5.94 15.86,6.06 0,-10.22 -0.62,-13.48 11.2,-13.53 10.91,-0.05 9.79,5.54 9.79,14.46 5.65,0.47 13.52,5.22 18.39,8.2 9.53,5.83 18,13.01 26.27,20.36l10.22 9.37c2.09,2.09 6.31,1.25 11.81,1.25 0,-13.37 0,-26.74 0,-40.11 0,-7.8 -1.26,-13.13 4.69,-15.36 2.44,-0.91 6.59,-0.49 9.77,-0.5 6.4,-0.01 10.94,0.25 11.19,7.98l0 2.57c-0.33,49.13 0,99.35 0,148.49l0 17.75c-0.91,5.81 -3.9,9.83 -12.59,9.78 -6.68,-0.05 -13.38,-0.01 -20.06,-0.01 -9.42,0 -15.99,1.55 -16.3,-3.73 0.52,-2.85 1.19,-3.35 4.45,-3.45l0.19 -0.75 -0 -5.09 -0 -48.08c0,-3.99 -1.49,-13.01 3.27,-13.26 5.22,-0.27 3.72,8.34 3.72,12.32l-0 49.02 0.07 5.84 11.41 -0 0.19 -5.83 -0 -48.08c0,-3.99 -1.49,-13.01 3.27,-13.26 5.22,-0.27 3.72,8.34 3.72,12.32l-0 49.02 0.07 5.84c7.15,-0 11.57,1.93 11.6,-5.85l-0.06 -109.64c-0.69,-1.6 0.32,-0.37 -1.37,-0.77 -0.17,-0.04 -1.56,-0.09 -1.8,-0.08l-26.9 0.11 -0.19 34.98 11.67 0 -0 -5.8c0.02,-5.44 0.01,-10.88 -0.01,-16.32 -0.03,-8.44 6.81,-7.11 7.03,-1.41l-0 24.77c0,3.72 0.02,4.25 -2.35,5.64l-34.79 0.11 -0.19 77.72c-0.24,2.89 -1.52,3.71 -4.63,3.76l-25.21 -0.03c-29.69,0 -63.07,0.5 -92.38,0.03 -3.11,-0.05 -4.39,-0.87 -4.63,-3.76l0 -9.3 -0.06 -128.29c-0.62,-1.43 -0.79,-0.84 -5.53,-0.81l-43.19 0.06c-0.71,4.24 -0.1,114.17 -0.19,128.08 -0.06,8.82 3.37,6.81 11.48,6.81l0.19 -5.83 -0 -109.18c0,-3.94 -1.45,-12.54 3.27,-12.79 5.12,-0.27 3.72,7.77 3.72,11.86l-0 110.11 0.07 5.84 11.36 -0 0.24 -5.83 -0 -109.18c0,-3.94 -1.45,-12.54 3.27,-12.79 5.12,-0.27 3.72,7.77 3.72,11.86l-0 110.11 0.01 5.09 0.18 0.75c3.27,0.1 3.93,0.61 4.46,3.45 -0.28,4.84 -4.73,3.73 -9.77,3.73 -4.51,0 -9.02,0 -13.52,0 -10.03,0 -18.01,1.53 -22.99,-3.59 -2.2,-2.26 -2.6,-4.08 -2.66,-7.17l0 -3.7 0 -119.4 0 -6.45c0.16,-6.76 1.57,-8.94 11.19,-8.94 4.48,-8.47 23.7,-27.26 35.45,-27.52 0,-3.16 -0.47,-7.86 0.51,-10.21 0.94,-2.26 3.44,-4.01 6.49,-4.24 3.99,-0.3 12.82,-0.21 20.71,-0.11l0 -8.85 7.15 -14.2c0.5,-1.55 1.91,-2.67 3.57,-2.67 1.36,0 2.55,0.75 3.21,1.87l0.01 -0.02 7.56 15.02zm-7.28 8.96l0 -0.02 -3.46 0.01 -3.48 -0.02 0 -2.78c0.02,1.73 0.03,3.47 0,5.16 -0.07,3.37 -0.36,3.46 -2.35,4.72l-25.46 0.1 -0.21 7 49 0 0 -3.48 -0.09 -3.52c-3.17,0 -6.72,0.17 -9.74,0.01 -4.38,-0.23 -4.48,-3.08 -4.2,-7.18zm-6.56 -9.73l-0.38 0.77 0 2.6c0.04,-1.13 0.16,-2.26 0.38,-3.37zm149.72 22.31l0.06 42.42 -0.01 5.8 -11.65 0 0.19 -48.97 9.18 -0.12c2.26,0.17 1.64,-0.5 2.24,0.87zm-54.84 93.23c-2.03,5.66 -0.71,12.82 -1.16,19.16 -2.43,-2.88 -11.8,-15.71 -13.02,-19.26 -1.78,-1.53 -8.11,-13.76 -9.83,-17.02 -6.96,-13.14 -21.02,-48.42 -19.86,-60.53l6.7 0.02c1.15,3.59 1.81,7.67 2.93,11.53 3.39,11.63 7.57,19.83 12.58,30.34 2.8,5.87 7.21,13.07 10.67,18.23 2.01,3 3.89,5.81 5.77,8.7 1.95,3.01 4.04,5.36 5.83,8.09l-0.59 0.74zm17.59 -32.14l0 29.11 -5.82 -0.03c-4.72,0.04 -3.75,0.61 -6.91,-3.76 -13.25,-18.33 -31.54,-48.49 -34.49,-70.02 10.96,2.39 28.72,17.38 37.39,24.68 2.99,2.52 8.22,7.88 10.97,9.55 -1.06,4.72 -1.13,5.1 -1.15,10.46zm-40.73 31.7l13.19 19.64c6.3,9.2 8.95,9.1 8.89,15.36 -0.02,2.64 0.02,5.27 -0.04,7.91l-15.54 0c-0.25,-6.58 0.83,-20.29 -0.2,-25.76 -1.46,-7.76 -12.3,-5.74 -19.68,-5.74 -7.31,0 -18.82,-1.85 -21.64,3.83 -1.59,3.2 -0.76,20 -0.77,24.85 0.01,5.93 0,11.85 0,17.78 0,2.94 -0.07,5.96 -0.02,8.89 0.06,3.57 1,4.92 4.71,4.77 2.03,-1.22 2.25,-1.65 2.32,-4.3l-0.03 -48.59c0.1,-0.06 0.23,-0.15 0.3,-0.17l1.12 -0.29c3.89,-0.43 25.84,-0.06 27.1,0.22l-0.23 60.26c-4.15,0.9 -42.09,0.09 -52.98,0.14 -0.42,0 -1.46,0.01 -1.83,-0.06 -1.1,-0.21 -0.41,0.23 -1.04,-0.53 -0.19,-3.68 -0.07,-7.76 -0.05,-11.48 0.02,-4.24 0.28,-7.06 -4.57,-6.55 -1.5,0.75 -2,0.98 -2.25,2.87l-0.2 15.65c-3.95,0.46 -9.68,0.13 -13.83,0.13 -1.5,0 -12.65,0.63 -13.51,-0.49l0.02 -65.2 6 0.01 21.32 0.12 0.02 31.55c-0.01,3.82 -0.83,6.83 2.7,7.87 5.72,0.8 3.62,-4.9 4.54,-9.08 2.76,0 5.56,0.05 8.32,0.02 3.42,-0.04 4.6,-0.36 5.06,-3.51 -0.54,-3.14 -1.78,-3.51 -5.06,-3.53 -2.84,-0.02 -5.72,0.02 -8.56,0.02 0,-36 4.94,-30.47 -34.37,-30.47l0 -56.47c-0.03,-13.42 -2.08,-12.87 -14.92,-12.87 -8.32,0 -19.96,0.67 -27.88,-0.12 1.4,-2.7 4.93,-5.92 7.12,-8.24 10.66,-11.28 17.31,-12.64 31.95,-12.64 10.11,0 20.21,0 30.32,0 7.72,0 18.38,-1.09 24.03,1.88l2.29 1.66c-7.9,6.57 -26.92,2.18 -37.87,3.49 -4.16,0.49 -4.77,6.28 -0.13,6.9 6.27,0.84 20.52,0.14 27.54,0.06 12.57,-0.13 14.55,-6.73 20.37,-6.61 2.49,20.67 10.16,41.84 19.04,59.85l8.94 16.98zm-14.42 -90.46l0.07 2.39 0 3.85 -7.02 0.02 0.23 -7c1.21,0 2.4,-0.05 3.59,-0.06 1.85,-0.02 2.62,-0.44 3.13,0.81z"/>
   <path class="fil1" d="M62.96 80.87c6.64,0 5.81,2.49 5.8,8.39 -0.02,9.72 -0.57,35.79 0.1,42.14 5.29,0.79 84.17,0.19 84.89,-0.19l-8.94 -16.98c-8.88,-18.01 -16.54,-39.18 -19.04,-59.85 -5.82,-0.12 -7.8,6.48 -20.37,6.61 -7.02,0.07 -21.27,0.77 -27.54,-0.06 -4.64,-0.62 -4.03,-6.4 0.13,-6.9 10.95,-1.3 29.97,3.08 37.87,-3.49l-2.29 -1.66c-5.65,-2.97 -16.31,-1.88 -24.03,-1.88 -10.11,0 -20.21,0 -30.32,0 -14.64,0 -21.29,1.36 -31.95,12.64 -2.19,2.31 -5.72,5.54 -7.12,8.24 7.92,0.79 19.56,0.12 27.88,0.12 12.84,0 14.9,-0.55 14.92,12.87z"/>
   <path class="fil2" d="M18.66 204.04l-0 -109.18c0,-3.94 -1.45,-12.54 3.27,-12.79 5.12,-0.27 3.72,7.77 3.72,11.86l-0 110.11 11.67 0 -0 -109.18c0,-3.94 -1.45,-12.54 3.27,-12.79 5.12,-0.27 3.72,7.77 3.72,11.86l-0 110.11 11.67 -0.01 -0.06 -128.29 -43.04 0c-0.47,22.22 -0.05,44.89 -0.05,67.16l0 50.37c0,6.84 -1.79,10.77 5.85,10.77z"/>
   <path class="fil2" d="M213.14 122.82c0.02,-5.44 0.01,-10.88 -0.01,-16.32 -0.03,-8.44 6.81,-7.11 7.03,-1.41l-0 24.77c0,3.72 0.01,4.25 -2.35,5.64 -2.14,1.57 -10.8,0.87 -14.46,0.87 -4.9,0 -9.81,-0.01 -14.7,0l0.01 63.94c0.33,3.44 2.56,3.73 5.84,3.73l-0 -48.08c0,-3.99 -1.49,-13.01 3.27,-13.26 5.22,-0.27 3.72,8.34 3.72,12.32l-0 49.02 11.67 0 -0 -48.08c0,-3.99 -1.49,-13.01 3.27,-13.26 5.22,-0.27 3.72,8.34 3.72,12.32l-0 49.02 11.67 -0.01 -0.06 -109.64 -24.44 0c0,5.75 0,11.5 0,17.26 0,9.88 -1.04,11.17 5.84,11.17z"/>
   <path class="fil3" d="M110.95 171.31l7.02 -0.02c0.01,-4.85 -0.81,-21.65 0.77,-24.85 2.81,-5.68 14.33,-3.83 21.64,-3.83 7.38,0 18.22,-2.02 19.68,5.73 1.03,5.47 -0.05,19.18 0.2,25.76l15.54 0c0.07,-2.64 0.02,-5.27 0.04,-7.91 0.06,-6.26 -2.59,-6.15 -8.89,-15.36l-13.19 -19.64c-0.72,0.37 -79.6,0.98 -84.89,0.19 -0.67,-6.35 -0.12,-32.41 -0.1,-42.14 0.01,-5.91 0.83,-8.39 -5.8,-8.39l-0 56.47c39.31,0 34.37,-5.52 34.37,30.47 2.85,0 5.72,-0.04 8.56,-0.02 3.28,0.02 4.52,0.39 5.06,3.53z"/>
   <path class="fil1" d="M188.67 128.6c0,-5.81 0,-11.61 0,-17.42 0,-7.06 -2.01,-11.67 5.82,-11.67 0.02,-5.35 0.08,-5.73 1.15,-10.46 -2.76,-1.66 -7.98,-7.03 -10.97,-9.55 -8.67,-7.31 -26.43,-22.29 -37.39,-24.68 2.95,21.53 21.24,51.69 34.49,70.02 3.16,4.37 2.19,3.8 6.91,3.76z"/>
   <path class="fil4" d="M90.13 204.04c0.09,-2.86 -0.68,-7.55 0.38,-9.79 0.26,-1.89 0.75,-2.12 2.25,-2.87l1.08 -0.91c0,-1.21 0.07,-2.6 0.04,-3.77 -0.08,-2.39 0.34,-1.46 -0.84,-2.81 -3.52,-1.04 -2.71,-4.05 -2.7,-7.87l-0.02 -31.55 -21.32 -0.12c-0.63,3.74 -0.21,41.96 -0.21,50.33 -0,11.57 -1.08,9.37 21.34,9.37z"/>
   <path class="fil4" d="M152.99 204.05l0.03 -54.27 -22.25 0.08 -0.01 47.62c-0.05,9.14 3.06,6.58 22.22,6.58z"/>
   <path class="fil5" d="M18.66 204.04c-7.64,-0 -5.85,-3.93 -5.85,-10.77l0 -50.37c0,-22.27 -0.42,-44.94 0.05,-67.16l43.04 -0c-0.62,-1.43 -0.79,-0.84 -5.53,-0.81l-43.19 0.06c-0.71,4.24 -0.1,114.17 -0.19,128.08 -0.06,8.82 3.37,6.81 11.48,6.81l0.19 -5.83z"/>
   <path class="fil1" d="M162.72 131.55l14.18 0.1 0.59 -0.74c-1.79,-2.73 -3.88,-5.08 -5.83,-8.09 -1.87,-2.89 -3.75,-5.71 -5.76,-8.7 -3.46,-5.15 -7.87,-12.36 -10.68,-18.23 -5.01,-10.5 -9.19,-18.7 -12.58,-30.34 -1.12,-3.86 -1.78,-7.94 -2.93,-11.53l-6.7 -0.02c-1.15,12.11 12.9,47.38 19.86,60.53 1.73,3.26 8.05,15.49 9.83,17.03z"/>
   <path class="fil6" d="M93.03 183.88c1.19,1.36 0.77,0.43 0.84,2.81 0.04,1.17 -0.04,2.57 -0.04,3.77l-1.08 0.91c4.85,-0.51 4.59,2.31 4.57,6.55 -0.02,3.72 -0.15,7.8 0.05,11.48l24.07 0.03 0 -5.91c2.5,0 0.13,0.14 1.2,-0.8 -3.7,0.16 -4.65,-1.2 -4.71,-4.77 -0.05,-2.93 0.02,-5.95 0.02,-8.89 0,-5.93 0.01,-11.85 -0,-17.78l-7.02 0.02c-0.46,3.14 -1.64,3.47 -5.06,3.5 -2.75,0.03 -5.55,-0.02 -8.32,-0.02 -0.92,4.18 1.18,9.89 -4.54,9.08z"/>
   <path class="fil5" d="M182.83 213.32l7.02 0c0.52,-2.85 1.19,-3.35 4.45,-3.45l0.19 -0.75 -0 -5.09c-3.28,-0 -5.51,-0.29 -5.84,-3.73l-0.01 -63.94c4.9,-0.01 9.8,-0 14.7,-0 3.66,0 12.32,0.7 14.46,-0.87l-34.79 0.1 -0.19 77.73z"/>
   <path class="fil7" d="M122.66 202.73c-1.07,0.94 1.3,0.8 -1.2,0.8l0 5.91 31.48 0.21 0.04 -5.6c-19.17,0 -22.27,2.56 -22.22,-6.58l0.01 -47.62 -5.82 -0.02 0.03 48.59c-0.07,2.65 -0.29,3.08 -2.32,4.3z"/>
   <path class="fil8" d="M62.98 209.53l26.92 0 0.23 -5.49c-22.42,0 -21.35,2.2 -21.34,-9.37 0,-8.36 -0.42,-46.59 0.21,-50.33l-6 -0.01 -0.01 65.2z"/>
   <polygon class="fil6" points="175.87,209.68 175.83,181.11 160.47,181.12 160.47,209.68 "/>
   <path class="fil5" d="M231.8 80.84c-5.66,-0 -5.89,-0.85 -5.85,-6.51l0.01 -35.92 5.78 -0c-0.59,-1.37 0.02,-0.7 -2.24,-0.87l-9.18 0.12 -0.19 48.97 11.65 0 0.01 -5.8z"/>
   <path class="fil9" d="M79.29 32.91c-1.76,1.19 -3.45,0.86 -5.6,0.83l-16.56 0.01 0.01 2.55 45.47 0.22 -0.09 -3.52c-3.17,0 -6.72,0.17 -9.74,0.01 -7.24,-0.38 -2.8,-7.9 -4.25,-16.46 -0.32,-1.9 -2.28,-5.05 -3.28,-6.97 -2.87,2.86 -3.66,7.13 -3.64,11.11 0.01,2.46 0.07,5.04 0.02,7.49 -0.07,3.37 -0.36,3.46 -2.35,4.72z"/>
   <path class="fil5" d="M213.14 122.82c-6.88,-0 -5.84,-1.29 -5.84,-11.17 0,-5.75 0,-11.5 0,-17.26l24.44 -0c-0.69,-1.6 0.33,-0.37 -1.37,-0.77 -0.17,-0.04 -1.56,-0.09 -1.8,-0.09l-26.89 0.11 -0.19 34.98 11.67 0 -0 -5.8z"/>
   <path class="fil2" d="M231.8 80.84l-0.06 -42.42 -5.78 0 -0.01 35.92c-0.04,5.65 0.19,6.5 5.85,6.51z"/>
   <path class="fil9" d="M102.61 36.53l-45.47 -0.22 -0.01 -2.55 16.56 -0.01c2.14,0.02 3.84,0.35 5.6,-0.83l-25.46 0.1 -0.21 7 49 0 0 -3.48z"/>
   <path class="fil3" d="M188.67 128.6l5.82 0.03 0 -29.12c-7.83,0 -5.82,4.61 -5.82,11.67 0,5.81 0,11.61 0,17.42z"/>
   <path class="fil3" d="M176.9 131.65l-14.18 -0.1c1.22,3.55 10.59,16.38 13.02,19.26 0.45,-6.34 -0.87,-13.5 1.16,-19.16z"/>
   <path class="fil5" d="M48.94 213.32l7.02 0 0 -9.3 -11.67 0.01 0.01 5.09 0.18 0.75c3.27,0.1 3.93,0.61 4.46,3.45z"/>
   <path class="fil10" d="M130.77 149.86l22.25 -0.08 -0.03 54.27 -0.04 5.6 -31.48 -0.21 -24.07 -0.03c0.63,0.76 -0.06,0.32 1.04,0.53 0.37,0.07 1.41,0.06 1.83,0.06 10.88,-0.05 48.82,0.76 52.98,-0.14l0.23 -60.26c-1.26,-0.28 -23.21,-0.65 -27.1,-0.22l-1.12 0.29c-0.07,0.03 -0.2,0.11 -0.3,0.17l5.82 0.02z"/>
   <polygon class="fil5" points="213.15,204.04 201.48,204.04 201.55,209.87 212.96,209.87 "/>
   <polygon class="fil5" points="37.32,204.04 25.65,204.04 25.72,209.87 37.08,209.87 "/>
   <path class="fil5" d="M231.8 204.03l-11.67 0.01 0.07 5.84c7.15,-0 11.57,1.93 11.6,-5.85z"/>
   <path class="fil11" d="M139.42 43.14l-3.5 0.21 -0 -2.6 3.43 -0c-0.51,-1.25 -1.28,-0.83 -3.13,-0.81 -1.19,0.01 -2.38,0.06 -3.59,0.06l-0.23 7 7.03 -0.02 -0 -3.84z"/>
   <path class="fil12" d="M175.87 209.68l-15.4 0 -0 -28.55c-1.14,1.84 -0.45,27.75 -0.29,28.73 1.13,0.3 14.05,0.83 15.7,-0.18z"/>
   <path class="fil13" d="M90.13 204.04l-0.23 5.49 -26.92 0c0.86,1.13 12.01,0.5 13.51,0.5 4.14,0 9.88,0.33 13.83,-0.13l0.2 -15.65c-1.06,2.25 -0.29,6.93 -0.38,9.79z"/>
   <polygon class="fil14" points="139.42,43.14 139.34,40.75 135.92,40.75 135.92,43.36 "/>
  </g>
 </g>
</svg>
