<svg id="Capa_1" enable-background="new 0 0 512 512" height="512" viewBox="0 0 512 512" width="512" xmlns="http://www.w3.org/2000/svg"><g><g><path d="m353.237 139.54h-59.76v134.212l-129.37.001v-134.213h-59.759v139.505h1.622l24.469 79.803v143.132h195.729l.143-143.132 25.059-79.803h1.867z" fill="#b8ecbc"/><circle cx="228.376" cy="261.351" fill="#ffdcd5" r="65.447"/><path d="m379.411 10.02c-40.489 0-75.077 25.279-88.844 60.909h-227.434l-25.76 34.307 25.76 34.307h227.434c13.767 35.63 48.354 60.909 88.844 60.909 52.583 0 95.216-42.633 95.216-95.216s-42.633-95.216-95.216-95.216zm22.284 122.849c-15.26 0-27.634-12.374-27.634-27.634s12.374-27.634 27.634-27.634 27.634 12.374 27.634 27.634-12.375 27.634-27.634 27.634z" fill="#fff2a0"/><path d="m293.477 261.183c-26.685 3.334-52.38-20.713-52.38-20.713-29.033 31.043-78.169 13.941-78.169 13.941s8.937-60.327 65.018-58.507c61.119 1.982 65.531 65.279 65.531 65.279z" fill="#ffa96b"/></g><g><circle cx="189.172" cy="461.902" r="10"/><circle cx="205.821" cy="285.207" r="10.02"/><circle cx="250.575" cy="285.207" r="10.02"/><path d="m379.411 0c-21.665 0-42.475 6.534-60.179 18.897-15.376 10.737-27.472 25.164-35.289 42.013h-22.797c-5.534 0-10.02 4.486-10.02 10.02 0 5.533 4.486 10.02 10.02 10.02h29.423c4.14 0 7.854-2.546 9.346-6.408 6.133-15.87 16.78-29.431 30.791-39.214 14.322-10.001 31.165-15.288 48.705-15.288 46.977 0 85.195 38.218 85.195 85.196 0 46.977-38.218 85.195-85.195 85.195-17.541 0-34.383-5.287-48.705-15.288-14.011-9.784-24.659-23.343-30.791-39.213-1.492-3.862-5.206-6.408-9.346-6.408h-222.43l-18.234-24.286 18.234-24.286h21.672c5.534 0 10.02-4.486 10.02-10.02 0-5.533-4.486-10.02-10.02-10.02h-26.679c-3.152 0-6.12 1.483-8.012 4.004l-25.758 34.305c-2.676 3.564-2.676 8.468 0 12.031l25.758 34.305c1.892 2.521 4.861 4.004 8.012 4.004h31.196v85.069c0 26.957 4.007 53.693 11.909 79.467l14.182 46.254v141.63c0 5.533 4.486 10.02 10.02 10.02h195.729c5.53 0 10.014-4.479 10.02-10.01l.141-141.601 14.272-45.45c8.262-26.311 12.451-53.635 12.451-81.212v-24.525c5.373.837 10.838 1.267 16.359 1.267 58.026 0 105.234-47.207 105.234-105.234s-47.208-105.234-105.234-105.234zm-185.404 269.098c18.559.496 34.599-4.664 46.963-15.018 8.842 6.92 24.489 16.869 41.887 17.409-4.779 25.735-27.383 45.288-54.482 45.288-28.896 0-52.684-22.23-55.195-50.484 5.268 1.268 12.578 2.583 20.827 2.805zm-18.904-23.013c6.647-23.16 28.004-40.161 53.272-40.161 27.175 0 49.829 19.663 54.521 45.506-8.115-.407-16.077-4.202-21.718-7.649-8.014-4.898-13.462-10.319-13.501-10.358-1.963-1.983-4.667-3.061-7.454-2.966-2.789.092-5.413 1.344-7.241 3.454-18.079 20.871-47.824 14.957-57.879 12.174zm53.272-60.2c-21.893 0-41.629 9.379-55.427 24.32v-60.645h110.832l.012 60.634c-13.797-14.935-33.529-24.309-55.417-24.309zm114.637 47.842c0 25.538-3.88 50.842-11.53 75.208l-14.73 46.911c-.304.969-.459 1.978-.46 2.992l-.093 93.044h-81.771c-5.534 0-10.02 4.486-10.02 10.02s4.486 10.02 10.02 10.02h81.751l-.02 20.039h-175.7v-133.113c0-.995-.148-1.985-.44-2.937l-14.622-47.69c-7.318-23.868-11.028-48.628-11.028-73.592v-85.069h38.542v111.79c0 41.613 33.854 75.467 75.466 75.467 41.613 0 75.467-33.854 75.467-75.467v-.001s0 0 0-.001l-.017-82.886c4.673 4.815 9.82 9.209 15.406 13.11 7.433 5.19 15.419 9.339 23.78 12.422v29.733z"/><path d="m439.349 105.234c0-20.761-16.891-37.653-37.653-37.653s-37.653 16.891-37.653 37.653 16.891 37.654 37.653 37.654c20.762-.001 37.653-16.892 37.653-37.654zm-55.266 0c0-9.712 7.901-17.614 17.614-17.614 9.712 0 17.613 7.901 17.613 17.614s-7.901 17.614-17.613 17.614c-9.713 0-17.614-7.902-17.614-17.614z"/><path d="m129.889 95.186c5.534 0 10.02-4.486 10.02-10.02v-35.569c0-5.533-4.486-10.02-10.02-10.02s-10.02 4.486-10.02 10.02v35.569c0 5.534 4.486 10.02 10.02 10.02z"/><path d="m175.478 95.186c5.534 0 10.02-4.486 10.02-10.02v-35.569c0-5.533-4.486-10.02-10.02-10.02s-10.02 4.486-10.02 10.02v35.569c.001 5.534 4.486 10.02 10.02 10.02z"/><path d="m221.067 95.186c5.534 0 10.02-4.486 10.02-10.02v-35.569c0-5.533-4.486-10.02-10.02-10.02s-10.02 4.486-10.02 10.02v35.569c.001 5.534 4.486 10.02 10.02 10.02z"/></g></g></svg>