<?xml version="1.0" encoding="UTF-8"?>
<!DOCTYPE svg PUBLIC "-//W3C//DTD SVG 1.1//EN" "http://www.w3.org/Graphics/SVG/1.1/DTD/svg11.dtd">
<!-- Creator: CorelDRAW 2020 (64-Bit) -->
<svg xmlns="http://www.w3.org/2000/svg" xml:space="preserve" width="23.1661mm" height="23.1661mm" version="1.1" style="shape-rendering:geometricPrecision; text-rendering:geometricPrecision; image-rendering:optimizeQuality; fill-rule:evenodd; clip-rule:evenodd"
viewBox="0 0 6.23 6.23"
 xmlns:xlink="http://www.w3.org/1999/xlink"
 xmlns:xodm="http://www.corel.com/coreldraw/odm/2003">
 <defs>
  <style type="text/css">
   <![CDATA[
    .str0 {stroke:#B7E546;stroke-width:0.02;stroke-miterlimit:22.9256}
    .fil1 {fill:black}
    .fil2 {fill:#B7E546}
    .fil0 {fill:white}
   ]]>
  </style>
 </defs>
 <g id="Capa_x0020_1">
  <metadata id="CorelCorpID_0Corel-Layer"/>
  <g id="_2770218574384">
   <path class="fil0" d="M3.75 2.32c0.16,-0.04 0.2,0.2 0.06,0.23 -0.16,0.04 -0.21,-0.19 -0.06,-0.23zm-0.8 -1.25c0.16,0.06 0.31,0.15 0.41,0.23 0.1,0.08 0.23,0.22 0.3,0.34 0.04,0.07 0.08,0.14 0.11,0.22 0.04,0.09 0.03,0.19 -0.06,0.21 -0.16,0.03 -0.12,-0.12 -0.29,-0.35 -0.42,-0.58 -1,-0.45 -1.08,-0.54 -0.06,-0.07 -0.02,-0.17 0.07,-0.2 0.13,-0.03 0.43,0.05 0.54,0.09zm-0.69 -0.33c-0.43,0.05 -0.72,0.2 -1.02,0.48 -0.04,0.04 -0.06,0.08 -0.1,0.12 -0.25,0.27 -0.46,0.78 -0.4,1.29 0.05,0.42 0.21,0.72 0.48,1.01 0.04,0.04 0.08,0.06 0.12,0.1 0.57,0.53 1.6,0.54 2.18,0.02l0.21 -0.21c0.53,-0.57 0.54,-1.6 0.02,-2.18 -0.04,-0.04 -0.06,-0.07 -0.1,-0.11 -0.04,-0.04 -0.08,-0.06 -0.12,-0.1 -0.27,-0.25 -0.78,-0.46 -1.28,-0.4z"/>
   <path class="fil1" d="M4.5 4.83l0.34 -0.34c0.12,0.11 0.82,0.81 0.99,0.99 0.05,0.05 0.12,0.09 0.15,0.18 0.07,0.19 -0.11,0.37 -0.3,0.31 -0.1,-0.03 -0.43,-0.39 -0.52,-0.48 -0.14,-0.14 -0.57,-0.55 -0.66,-0.66zm-2.12 -4.83l0.13 0c0.34,0.01 0.67,0.08 0.96,0.23 0.28,0.14 0.29,0.15 0.54,0.34 0.2,0.15 0.41,0.42 0.54,0.64 0.35,0.58 0.43,1.36 0.2,2.02 -0.1,0.28 -0.14,0.31 -0.27,0.56 0.06,0.04 0.85,0.84 0.92,0.92 0.11,0.11 0.73,0.7 0.79,0.82 0.05,0.09 0.05,0.15 0.05,0.24l0 0.02 0 0c0,0.2 -0.2,0.41 -0.43,0.44l-0.12 0c-0.1,-0.01 -0.2,-0.06 -0.3,-0.16 -0.17,-0.17 -1.56,-1.55 -1.6,-1.61 -0.09,0.05 -0.18,0.1 -0.27,0.15 -0.04,0.02 -0.1,0.05 -0.14,0.06 -0.37,0.15 -0.6,0.18 -1.02,0.18 -0.43,0 -0.99,-0.2 -1.32,-0.45 -0.15,-0.12 -0.18,-0.13 -0.32,-0.27 -0.05,-0.05 -0.1,-0.1 -0.15,-0.16 -0.19,-0.24 -0.2,-0.26 -0.34,-0.54 -0.17,-0.35 -0.23,-0.68 -0.23,-1.11 0,-0.43 0.2,-0.99 0.45,-1.32 0.05,-0.06 0.08,-0.11 0.13,-0.17 0.04,-0.05 0.09,-0.1 0.14,-0.15 0.17,-0.17 0.3,-0.27 0.5,-0.39 0.34,-0.2 0.75,-0.32 1.16,-0.33zm1.6 4.31c0.06,-0.04 0.29,-0.26 0.33,-0.33 0.05,0.02 0.32,0.3 0.35,0.34 -0.03,0.03 -0.05,0.06 -0.08,0.09l-0.17 0.17c-0.03,0.03 -0.06,0.05 -0.09,0.08 -0.04,-0.03 -0.32,-0.3 -0.34,-0.35zm-1.62 -4.06c0.79,-0.04 1.46,0.38 1.84,0.89 0.67,0.89 0.54,2.15 -0.25,2.87 -0.4,0.37 -0.84,0.59 -1.43,0.61 -0.68,0.03 -1.25,-0.27 -1.59,-0.6 -1.2,-1.17 -0.71,-2.96 0.54,-3.56 0.28,-0.13 0.52,-0.2 0.88,-0.22z"/>
   <path class="fil2" d="M2.36 0.49c0.52,-0.03 1.07,0.19 1.41,0.53 0.3,0.3 0.58,0.73 0.61,1.34 0.05,1.04 -0.76,1.97 -1.86,2.02 -0.52,0.03 -1.07,-0.19 -1.41,-0.53 -0.3,-0.3 -0.58,-0.73 -0.61,-1.34 -0.03,-0.52 0.19,-1.07 0.53,-1.41 0.3,-0.3 0.73,-0.58 1.34,-0.61zm0 -0.24c-0.36,0.02 -0.6,0.09 -0.88,0.22 -1.26,0.59 -1.74,2.38 -0.54,3.56 0.34,0.33 0.9,0.63 1.59,0.6 0.59,-0.02 1.03,-0.24 1.43,-0.61 0.78,-0.73 0.91,-1.98 0.25,-2.87 -0.38,-0.51 -1.05,-0.93 -1.84,-0.89z"/>
   <path class="fil1 str0" d="M2.26 0.74c0.5,-0.06 1.01,0.15 1.28,0.4 0.04,0.04 0.08,0.06 0.12,0.1 0.04,0.04 0.06,0.07 0.1,0.11 0.52,0.58 0.51,1.61 -0.02,2.18l-0.21 0.21c-0.58,0.52 -1.61,0.51 -2.18,-0.02 -0.04,-0.04 -0.08,-0.06 -0.12,-0.1 -0.26,-0.29 -0.43,-0.59 -0.48,-1.01 -0.06,-0.51 0.14,-1.01 0.4,-1.29 0.04,-0.04 0.06,-0.08 0.1,-0.12 0.3,-0.27 0.59,-0.42 1.02,-0.48zm0.1 -0.25c-0.61,0.03 -1.04,0.31 -1.34,0.61 -0.34,0.34 -0.55,0.89 -0.53,1.41 0.03,0.61 0.31,1.04 0.61,1.34 0.34,0.34 0.89,0.55 1.41,0.53 1.1,-0.06 1.92,-0.98 1.86,-2.02 -0.03,-0.61 -0.31,-1.04 -0.61,-1.34 -0.34,-0.34 -0.89,-0.55 -1.41,-0.53z"/>
   <path class="fil2" d="M4.5 4.83c0.09,0.11 0.52,0.52 0.66,0.66 0.09,0.09 0.41,0.45 0.52,0.48 0.19,0.06 0.37,-0.13 0.3,-0.31 -0.03,-0.09 -0.1,-0.13 -0.15,-0.18 -0.17,-0.17 -0.87,-0.88 -0.99,-0.99l-0.34 0.34z"/>
   <path class="fil1" d="M2.41 0.98c-0.09,0.02 -0.13,0.12 -0.07,0.2 0.08,0.09 0.65,-0.04 1.08,0.54 0.17,0.23 0.14,0.38 0.29,0.35 0.1,-0.02 0.1,-0.12 0.06,-0.21 -0.03,-0.08 -0.07,-0.15 -0.11,-0.22 -0.08,-0.12 -0.2,-0.26 -0.3,-0.34 -0.1,-0.09 -0.25,-0.18 -0.41,-0.23 -0.12,-0.04 -0.41,-0.12 -0.54,-0.09z"/>
   <path class="fil0" d="M3.98 4.31c0.02,0.05 0.3,0.32 0.34,0.35 0.03,-0.03 0.06,-0.05 0.09,-0.08l0.17 -0.17c0.03,-0.03 0.05,-0.06 0.08,-0.09 -0.03,-0.04 -0.3,-0.32 -0.35,-0.34 -0.04,0.06 -0.26,0.29 -0.33,0.33z"/>
   <path class="fil1" d="M3.75 2.32c-0.15,0.04 -0.11,0.27 0.06,0.23 0.15,-0.03 0.1,-0.27 -0.06,-0.23z"/>
  </g>
 </g>
</svg>
