<svg height="512pt" viewBox="-32 0 512 512" width="512pt" xmlns="http://www.w3.org/2000/svg"><path d="m208 104h232v320h-232zm0 0" fill="#ffe082"/><path d="m88 464v-320c0-22.089844 17.910156-40 40-40h152l-72 360zm0 0" fill="#a6e7ff"/><path d="m208 423.921875c.175781-.96875.257812-1.9375.40625-2.90625-.140625.96875-.230469 1.929687-.40625 2.90625zm0 0" fill="#ffd54f"/><path d="m209.761719 407.121094c-.082031 2.703125-.257813 5.390625-.53125 8.078125.289062-2.703125.433593-5.40625.539062-8.101563zm0 0" fill="#ffd54f"/><path d="m345.839844 104h-.480469l-129.136719 319.457031c40.246094-2.285156 79.015625-15.96875 111.777344-39.457031l88.71875-299.601562c-21.421875 12.8125-45.917969 19.585937-70.878906 19.601562zm0 0" fill="#ffd54f"/><path d="m128 288 16 8c47.40625 23.703125 73.480469 75.851562 64 128h8l129.847656-321.199219c12.492188-30.933593-.875-66.277343-30.710937-81.199219l-11.136719-5.601562zm0 0" fill="#ffe082"/><path d="m128 424h312v80h-312c-22.089844 0-40-17.910156-40-40s17.910156-40 40-40zm0 0" fill="#e0e0e0"/><g fill="#fff"><path d="m376 216h40v16h-40zm0 0"/><path d="m368 256h48v16h-48zm0 0"/><path d="m352 296h64v16h-64zm0 0"/><path d="m344 336h72v16h-72zm0 0"/><path d="m328 376h88v16h-88zm0 0"/><path d="m392 176h24v16h-24zm0 0"/></g><path d="m421.601562 96 8.597657-29.0625-17.597657 10.574219c-17.089843 10.226562-36.296874 16.390625-56.144531 18.007812 7.628907-32.507812-7.960937-66.019531-37.746093-81.121093l-17.542969-8.757813-58.464844 90.359375h-114.703125c-26.5.027344-47.972656 21.5-48 48v320c.027344 26.5 21.5 47.972656 48 48h320v-416zm-17.875 4-82.605468 279.0625c-27.519532 19.132812-59.304688 31.238281-92.578125 35.257812l122.320312-302.578124c18.207031-.570313 36.144531-4.554688 52.878907-11.742188zm-96.894531-73.601562 4.71875 2.363281c26.015625 13.15625 37.679688 44 26.882813 71.078125l-120.625 298.398437c-1.773438-46.535156-28.667969-88.4375-70.234375-109.4375l-8-4zm-210.832031 117.601562c0-17.671875 14.328125-32 32-32h104.351562l-115.917968 179.199219 24 12c41.863281 21.164062 66.066406 66.210937 60.605468 112.800781h-73.039062c-11.824219.003906-23.226562 4.394531-32 12.320312zm336 312h-304v16h304v24h-304c-17.671875 0-32-14.328125-32-32s14.328125-32 32-32h304zm0-40h-145.894531c16.472656-6.613281 32.097656-15.167969 46.542969-25.488281l2.238281-1.601563 81.992187-276.910156h15.121094zm0 0"/><path d="m0 0h192v16h-192zm0 0"/><path d="m0 32h128v16h-128zm0 0"/><path d="m0 64h64v16h-64zm0 0"/></svg>