<svg id="Capa_1" data-name="Capa 1" xmlns="http://www.w3.org/2000/svg" viewBox="0 0 300 300"><defs><style>.cls-1{fill:#f2dfa6;}.cls-2{opacity:0.15;isolation:isolate;}.cls-3{fill:#76c9d2;}.cls-4{fill:#507cdd;}.cls-5{fill:#f6d83e;}.cls-6{fill:#fff;}.cls-7{fill:#394049;}</style></defs><title>Iconos_finales</title><path class="cls-1" d="M252.042,238.314H103.187a7.35,7.35,0,0,1-7.35-7.35V39.772a7.35,7.35,0,0,1,7.35-7.35H252.042a7.35,7.35,0,0,1,7.351,7.35V230.965A7.35,7.35,0,0,1,252.042,238.314Z"/><path class="cls-2" d="M224.96,49.351H95.837V230.965a7.35,7.35,0,0,0,7.35,7.35H232.311V56.7A7.352,7.352,0,0,0,224.96,49.351Z"/><path class="cls-3" d="M209.781,267.577H60.926a7.349,7.349,0,0,1-7.35-7.35V69.034a7.35,7.35,0,0,1,7.35-7.35H209.781a7.351,7.351,0,0,1,7.351,7.35V260.227A7.351,7.351,0,0,1,209.781,267.577Z"/><rect class="cls-4" x="53.056" y="202.902" width="164.074" height="38.723"/><rect class="cls-5" x="195.299" y="61.686" width="11.203" height="205.891"/><path class="cls-6" d="M167.93,135.368H100.694a4.858,4.858,0,0,0-4.857,4.857v19.549a4.858,4.858,0,0,0,4.857,4.857H167.93a4.858,4.858,0,0,0,4.857-4.857V140.225A4.858,4.858,0,0,0,167.93,135.368Z"/><path class="cls-7" d="M58.731,93.5H47.379a6.77,6.77,0,0,1-6.771-6.771h0a6.77,6.77,0,0,1,6.771-6.771H58.731A6.77,6.77,0,0,1,65.5,86.729h0A6.77,6.77,0,0,1,58.731,93.5Z"/><path class="cls-7" d="M58.731,132.225H47.379a6.77,6.77,0,0,1-6.771-6.771h0a6.77,6.77,0,0,1,6.771-6.771H58.731a6.77,6.77,0,0,1,6.771,6.771h0A6.77,6.77,0,0,1,58.731,132.225Z"/><path class="cls-7" d="M58.731,170.951H47.379a6.771,6.771,0,0,1-6.771-6.772h0a6.771,6.771,0,0,1,6.771-6.771H58.731a6.771,6.771,0,0,1,6.771,6.771h0A6.771,6.771,0,0,1,58.731,170.951Z"/><path class="cls-7" d="M58.731,209.676H47.379a6.771,6.771,0,0,1-6.771-6.772h0a6.771,6.771,0,0,1,6.771-6.771H58.731A6.771,6.771,0,0,1,65.5,202.9h0A6.771,6.771,0,0,1,58.731,209.676Z"/><path class="cls-7" d="M58.731,248.4H47.379a6.771,6.771,0,0,1-6.771-6.772h0a6.771,6.771,0,0,1,6.771-6.771H58.731a6.771,6.771,0,0,1,6.771,6.771h0A6.771,6.771,0,0,1,58.731,248.4Z"/><path class="cls-2" d="M209.781,61.684h-13.37a7.35,7.35,0,0,1,7.35,7.35V260.227a7.35,7.35,0,0,1-7.35,7.35h13.37a7.35,7.35,0,0,0,7.351-7.35V69.034A7.351,7.351,0,0,0,209.781,61.684Z"/><path d="M92.288,140.225v19.549a8.415,8.415,0,0,0,8.406,8.405H167.93a8.415,8.415,0,0,0,8.406-8.405V140.225a8.415,8.415,0,0,0-8.406-8.405H100.694A8.415,8.415,0,0,0,92.288,140.225Zm7.1,0a1.309,1.309,0,0,1,1.308-1.308H167.93a1.309,1.309,0,0,1,1.308,1.308v19.549a1.309,1.309,0,0,1-1.308,1.308H100.694a1.309,1.309,0,0,1-1.308-1.308V140.225Zm14.49,13.323h40.872a3.549,3.549,0,0,0,0-7.1H113.876a3.549,3.549,0,1,0,0,7.1ZM259.392,57.282a3.549,3.549,0,0,0,3.549-3.549V39.772a10.911,10.911,0,0,0-10.9-10.9H103.187a10.912,10.912,0,0,0-10.9,10.9V58.136H60.926a10.912,10.912,0,0,0-10.9,10.9v7.374H47.379a10.32,10.32,0,1,0,0,20.64h2.648v18.085H47.379a10.321,10.321,0,1,0,0,20.641h2.648v18.084H47.379a10.321,10.321,0,1,0,0,20.641h2.648v18.085H47.379a10.32,10.32,0,1,0,0,20.64h2.648V231.31H47.379a10.32,10.32,0,1,0,0,20.64h2.648v8.278a10.912,10.912,0,0,0,10.9,10.9H78.708a3.549,3.549,0,1,0,0-7.1H60.926a3.806,3.806,0,0,1-3.8-3.8v-8.279h1.607a10.32,10.32,0,0,0,0-20.64H57.124V213.224h1.607a10.32,10.32,0,1,0,0-20.64H57.124V174.5h1.607a10.32,10.32,0,1,0,0-20.64H57.124V135.774h1.607a10.32,10.32,0,1,0,0-20.64H57.124V97.049h1.607a10.32,10.32,0,1,0,0-20.64H57.124V69.034a3.806,3.806,0,0,1,3.8-3.8H191.751V166.352a3.549,3.549,0,0,0,7.1,0V65.233h4.106v198.8h-4.106V181.168a3.549,3.549,0,0,0-7.1,0v82.861H95.837a3.549,3.549,0,1,0,0,7.1H209.781a10.911,10.911,0,0,0,10.9-10.9V241.863h31.362a10.912,10.912,0,0,0,10.9-10.9V69.556a3.549,3.549,0,0,0-7.1,0V230.965a3.805,3.805,0,0,1-3.8,3.8H220.68V180.63h16a3.549,3.549,0,1,0,0-7.1h-16V156.6h16a3.549,3.549,0,1,0,0-7.1h-16V132.569h16a3.549,3.549,0,0,0,0-7.1h-16V108.538h16a3.549,3.549,0,1,0,0-7.1h-16V69.035a10.911,10.911,0,0,0-10.9-10.9H99.386V39.772a3.806,3.806,0,0,1,3.8-3.8H252.042a3.806,3.806,0,0,1,3.8,3.8V53.734A3.548,3.548,0,0,0,259.392,57.282ZM58.731,238.406a3.223,3.223,0,0,1,0,6.446H47.379a3.223,3.223,0,0,1,0-6.446Zm0-38.725a3.223,3.223,0,0,1,0,6.446H47.379a3.223,3.223,0,1,1,0-6.446Zm0-38.725a3.223,3.223,0,0,1,0,6.446H47.379a3.223,3.223,0,0,1,0-6.446Zm0-38.725a3.223,3.223,0,1,1,0,6.446H47.379a3.223,3.223,0,1,1,0-6.446Zm0-38.725a3.223,3.223,0,1,1,0,6.446H47.379a3.223,3.223,0,0,1,0-6.446Zm151.32-18.26a3.8,3.8,0,0,1,3.532,3.788V260.227a3.8,3.8,0,0,1-3.532,3.788Z"/></svg>