<?xml version="1.0" encoding="UTF-8"?>
<!DOCTYPE svg PUBLIC "-//W3C//DTD SVG 1.1//EN" "http://www.w3.org/Graphics/SVG/1.1/DTD/svg11.dtd">
<!-- Creator: CorelDRAW 2020 (64-Bit) -->
<svg xmlns="http://www.w3.org/2000/svg" xml:space="preserve" width="10.4801mm" height="10.4801mm" version="1.1" style="shape-rendering:geometricPrecision; text-rendering:geometricPrecision; image-rendering:optimizeQuality; fill-rule:evenodd; clip-rule:evenodd"
viewBox="0 0 8.12 8.12"
 xmlns:xlink="http://www.w3.org/1999/xlink"
 xmlns:xodm="http://www.corel.com/coreldraw/odm/2003">
 <defs>
  <style type="text/css">
   <![CDATA[
    .fil0 {fill:#62296D}
    .fil1 {fill:#62296D}
   ]]>
  </style>
 </defs>
 <g id="Capa_x0020_1">
  <metadata id="CorelCorpID_0Corel-Layer"/>
  <g id="_2210326271456">
   <path class="fil0" d="M4.77 0.13l0 0.19c0,0.07 -0.06,0.13 -0.13,0.13l-0.22 0c-0.02,0 -0.01,0 -0.03,0 -0,0 -0,0 -0,0 -0.03,0 -0.13,0.01 -0.14,0.16l0 0 0 0 0 0 0 0 0 0 0 0 0 0 0 0 0 0.01 0 0 0 0c0,0 0,0 0,0l0 1.13 -0 0c0.5,0.04 0.96,0.24 1.32,0.55 -0.01,-0 -0.01,-0.01 -0.02,-0.01l0.81 -0.81c0.09,-0.1 0.04,-0.17 0.02,-0.2 -0,-0 -0.01,-0.01 -0.01,-0.01l-0.17 -0.17c-0.05,-0.05 -0.05,-0.13 0,-0.18l0.14 -0.14c0.05,-0.05 0.13,-0.05 0.18,0l0.83 0.83c0.05,0.05 0.05,0.13 0,0.18l-0.14 0.14c-0.05,0.05 -0.13,0.05 -0.18,0l-0.16 -0.16c-0.01,-0.01 -0.01,-0.01 -0.02,-0.02 -0,-0 -0,-0 -0,-0 -0.02,-0.02 -0.1,-0.08 -0.21,0.01l-0 0 -0 0 -0 0 -0 0 -0.01 0.01c-0,0 -0,0 -0,0l-0.8 0.8c0.31,0.36 0.5,0.81 0.55,1.31l1.14 0c0.13,-0 0.15,-0.09 0.15,-0.13 0,-0.01 0,-0.01 0,-0.02l0 -0.24c0,-0.07 0.06,-0.13 0.13,-0.13l0.19 0c0.07,0 0.13,0.06 0.13,0.13l0 1.17c0,0.07 -0.06,0.13 -0.13,0.13l-0.19 0c-0.07,0 -0.13,-0.06 -0.13,-0.13l0 -0.22c0,-0.02 0,-0.01 0,-0.03 0,-0 0,-0 0,-0 -0,-0.03 -0.01,-0.13 -0.16,-0.14l-0 0 -0 0 -0 0 -0 0 -0 0 -0 0 -0 0 -0 0 -0.01 0 -0 0 -0 0c-0,0 -0,0 -0,0l-1.12 0c-0.04,0.5 -0.24,0.95 -0.54,1.31l0 -0 0.8 0.8c0.1,0.09 0.17,0.04 0.2,0.02 0,-0 0.01,-0.01 0.01,-0.01l0.17 -0.17c0.05,-0.05 0.13,-0.05 0.18,0l0.14 0.14c0.05,0.05 0.05,0.13 0,0.18l-0.83 0.83c-0.05,0.05 -0.13,0.05 -0.18,0l-0.14 -0.14c-0.05,-0.05 -0.05,-0.13 0,-0.18l0.16 -0.16c0.01,-0.01 0.01,-0.01 0.02,-0.02 0,-0 0,-0 0,-0 0.02,-0.02 0.08,-0.1 -0.01,-0.21l-0 -0 -0 0 -0 -0 -0 -0 -0 -0 -0 -0 -0 -0 -0 -0 -0 -0 -0 -0 -0 -0 -0 -0 -0 -0 -0 -0 -0 -0 -0.01 -0.01 -0 -0 -0 -0 -0 -0c-0,-0 -0,-0 -0,-0l-0.79 -0.79c-0.36,0.3 -0.81,0.5 -1.31,0.54l0 0 0 1.14c0,0.13 0.09,0.15 0.13,0.15 0.01,0 0.01,0 0.02,0l0.24 0c0.07,0 0.13,0.06 0.13,0.13l0 0.19c0,0.07 -0.06,0.13 -0.13,0.13l-1.17 0c-0.07,0 -0.13,-0.06 -0.13,-0.13l0 -0.19c0,-0.07 0.06,-0.13 0.13,-0.13l0.22 0c0.02,0 0.01,0 0.03,0 0,0 0,0 0,0 0.03,-0 0.13,-0.01 0.14,-0.16l0 -0 0 -0.01 0 -0c0,-0 -0,-0 -0,-0l0 -1.12 0 0c-0.5,-0.04 -0.95,-0.24 -1.31,-0.55l0 0 -0.81 0.81c-0.09,0.1 -0.04,0.17 -0.02,0.2 0,0 0.01,0.01 0.01,0.01l0.17 0.17c0.05,0.05 0.05,0.13 0,0.18l-0.14 0.14c-0.05,0.05 -0.13,0.05 -0.18,0l-0.83 -0.83c-0.05,-0.05 -0.05,-0.13 0,-0.18l0.14 -0.14c0.05,-0.05 0.13,-0.05 0.18,0l0.16 0.16c0.01,0.01 0.01,0.01 0.02,0.02 0,0 0,0 0,0 0.02,0.02 0.1,0.08 0.21,-0.01l0 -0 0 -0 0 -0 0 -0 0 -0 0 -0 0 -0 0 -0 0 -0 0 -0 0 -0 0 -0 0 -0 0 -0 0 -0 0.01 -0.01 0 -0 0 -0 0 -0c0,-0 0,-0 0,-0l0.8 -0.8c-0.3,-0.36 -0.49,-0.81 -0.53,-1.31l0 0 -1.15 0c-0.13,0 -0.15,0.09 -0.15,0.13 -0,0.01 -0,0.01 -0,0.02l0 0.24c0,0.07 -0.06,0.13 -0.13,0.13l-0.19 0c-0.07,0 -0.13,-0.06 -0.13,-0.13l0 -1.17c0,-0.07 0.06,-0.13 0.13,-0.13l0.19 0c0.07,0 0.13,0.06 0.13,0.13l0 0.22c0,0.02 0,0.01 0,0.03 0,0 0,0 0,0 0,0.03 0.01,0.13 0.16,0.14l0 0 0.01 0 0 0c0,0 0,-0 0,-0l1.13 0c0.04,-0.49 0.24,-0.94 0.54,-1.3l-0.82 -0.82c-0.1,-0.09 -0.17,-0.04 -0.2,-0.02 -0,0 -0.01,0.01 -0.01,0.01l-0.17 0.17c-0.05,0.05 -0.13,0.05 -0.18,0l-0.14 -0.14c-0.05,-0.05 -0.05,-0.13 0,-0.18l0.83 -0.83c0.05,-0.05 0.13,-0.05 0.18,0l0.14 0.14c0.05,0.05 0.05,0.13 0,0.18l-0.16 0.16c-0.01,0.01 -0.01,0.01 -0.02,0.02 -0,0 -0,0 -0,0 -0.02,0.02 -0.08,0.1 0.01,0.21l0 0 0 0 0 0 0 0 0.01 0.01c0,0 0,0 0,0l0.8 0.8c0.36,-0.3 0.81,-0.5 1.3,-0.54l0 -1.15c-0,-0.13 -0.09,-0.15 -0.13,-0.15 -0.01,-0 -0.01,-0 -0.02,-0l-0.24 0c-0.07,0 -0.13,-0.06 -0.13,-0.13l0 -0.19c0,-0.07 0.06,-0.13 0.13,-0.13l1.17 0c0.07,0 0.13,0.06 0.13,0.13zm-0.53 1.63c-0.02,-0 -0.03,-0 -0.05,-0 0.02,0 0.03,0 0.05,0zm-0.06 -0c-0.02,-0 -0.04,-0 -0.05,-0 0.02,0 0.04,0 0.05,0zm-0.06 -0c-0.02,-0 -0.04,-0 -0.06,-0 0.02,0 0.04,0 0.06,0zm-0.06 -0c-0.02,0 -0.04,0 -0.06,0 0.02,-0 0.04,-0 0.06,-0zm-0.06 0c-0.02,0 -0.03,0 -0.05,0 0.02,-0 0.03,-0 0.05,-0zm-0.07 0c-0.01,0 -0.02,0 -0.03,0 0.01,-0 0.02,-0 0.03,-0zm1.67 0.57c0.01,0 0.01,0.01 0.02,0.01 -0.01,-0 -0.01,-0.01 -0.02,-0.01zm0.04 0.04c0.01,0 0.01,0.01 0.02,0.01 -0.01,-0 -0.01,-0.01 -0.02,-0.01zm0.04 0.04c0.01,0 0.01,0.01 0.02,0.01 -0.01,-0 -0.01,-0.01 -0.02,-0.01zm0.04 0.04c0,0.01 0.01,0.01 0.01,0.02 -0,-0.01 -0.01,-0.01 -0.01,-0.02zm0.04 0.04c0,0.01 0.01,0.01 0.01,0.02 -0,-0.01 -0.01,-0.01 -0.01,-0.02zm0.04 0.04c0,0.01 0.01,0.01 0.01,0.02 -0,-0.01 -0.01,-0.01 -0.01,-0.02zm0.59 1.39c0,0.01 0,0.02 0,0.03 -0,-0.01 -0,-0.02 -0,-0.03zm0 0.05c0,0.02 0,0.03 0,0.05 -0,-0.02 -0,-0.03 -0,-0.05zm0 0.05c0,0.02 0,0.04 0,0.06 0,-0.02 -0,-0.04 -0,-0.06zm0 0.06c0,0.02 -0,0.04 -0,0.06 0,-0.02 0,-0.04 0,-0.06zm-0 0.06c-0,0.02 -0,0.04 -0,0.05 0,-0.02 0,-0.04 0,-0.05zm-0 0.06c-0,0.02 -0,0.03 -0,0.05 0,-0.02 0,-0.03 0,-0.05zm-2.15 2.19c-0.02,0 -0.03,0 -0.05,0 0.02,-0 0.03,-0 0.05,-0zm-0.06 0c-0.02,0 -0.04,0 -0.05,0 0.02,-0 0.04,-0 0.05,-0zm-0.06 0c-0.02,0 -0.04,0 -0.06,0 0.02,0 0.04,-0 0.06,-0zm-0.06 0c-0.02,0 -0.04,-0 -0.06,-0 0.02,0 0.04,0 0.06,0zm-0.06 -0c-0.02,-0 -0.03,-0 -0.05,-0 0.02,0 0.03,0 0.05,0zm-0.07 -0c-0.01,-0 -0.02,-0 -0.03,-0 0.01,0 0.02,0 0.03,0zm-1.4 -0.57c-0.01,-0.01 -0.01,-0.01 -0.02,-0.02 0.01,0.01 0.01,0.01 0.02,0.02zm-0.04 -0.04c-0.01,-0.01 -0.01,-0.01 -0.02,-0.02 0.01,0.01 0.01,0.01 0.02,0.02zm-0.04 -0.04c-0.01,-0.01 -0.01,-0.01 -0.02,-0.02 0.01,0.01 0.01,0.01 0.02,0.02zm-0.04 -0.04c-0.01,-0.01 -0.01,-0.01 -0.02,-0.02 0.01,0.01 0.01,0.01 0.02,0.02zm-0.04 -0.04c-0,-0.01 -0.01,-0.01 -0.01,-0.02 0,0.01 0.01,0.01 0.01,0.02zm-0.04 -0.04c-0,-0 -0.01,-0.01 -0.01,-0.01 0,0 0.01,0.01 0.01,0.01zm-0.04 -0.04c-0,-0.01 -0.01,-0.01 -0.01,-0.02 0,0.01 0.01,0.01 0.01,0.02zm-0.55 -1.34c-0,-0.02 -0,-0.03 -0,-0.05 0,0.02 0,0.03 0,0.05zm-0 -0.06c-0,-0.02 -0,-0.04 -0,-0.05 0,0.02 0,0.04 0,0.05zm-0 -0.06c-0,-0.02 -0,-0.04 -0,-0.06 0,0.02 0,0.04 0,0.06zm-0 -0.06c0,-0.02 0,-0.04 0,-0.06 -0,0.02 -0,0.04 -0,0.06zm0 -0.06c0,-0.02 0,-0.03 0,-0.05 -0,0.02 -0,0.03 -0,0.05zm0 -0.07c0,-0.01 0,-0.02 0,-0.03 -0,0.01 -0,0.02 -0,0.03zm2.32 -1.77c1.05,0 1.91,0.85 1.91,1.91 0,1.05 -0.85,1.91 -1.91,1.91 -1.05,0 -1.91,-0.85 -1.91,-1.91 0,-1.05 0.85,-1.91 1.91,-1.91z"/>
   <path class="fil1" d="M2.85 0.48c0.35,0 0.64,0.29 0.64,0.64 0,0.35 -0.29,0.64 -0.64,0.64 -0.35,0 -0.64,-0.29 -0.64,-0.64 0,-0.35 0.29,-0.64 0.64,-0.64zm0 0.38c0.15,0 0.26,0.12 0.26,0.26 0,0.15 -0.12,0.26 -0.26,0.26 -0.15,0 -0.26,-0.12 -0.26,-0.26 0,-0.15 0.12,-0.26 0.26,-0.26z"/>
   <path class="fil1" d="M5.76 0.68c0.25,0.25 0.25,0.65 0,0.9 -0.25,0.25 -0.65,0.25 -0.9,0 -0.25,-0.25 -0.25,-0.65 0,-0.9 0.25,-0.25 0.65,-0.25 0.9,0zm-0.27 0.27c0.1,0.1 0.1,0.27 0,0.37 -0.1,0.1 -0.27,0.1 -0.37,0 -0.1,-0.1 -0.1,-0.27 0,-0.37 0.1,-0.1 0.27,-0.1 0.37,0z"/>
   <path class="fil1" d="M7.66 2.87c0,0.35 -0.29,0.64 -0.64,0.64 -0.35,0 -0.64,-0.29 -0.64,-0.64 0,-0.35 0.29,-0.64 0.64,-0.64 0.35,0 0.64,0.29 0.64,0.64zm-0.38 0c0,0.15 -0.12,0.26 -0.26,0.26 -0.15,0 -0.26,-0.12 -0.26,-0.26 0,-0.15 0.12,-0.26 0.26,-0.26 0.15,0 0.26,0.12 0.26,0.26z"/>
   <path class="fil1" d="M7.46 5.78c-0.25,0.25 -0.65,0.25 -0.9,0 -0.25,-0.25 -0.25,-0.65 0,-0.9 0.25,-0.25 0.65,-0.25 0.9,0 0.25,0.25 0.25,0.65 0,0.9zm-0.27 -0.27c-0.1,0.1 -0.27,0.1 -0.37,0 -0.1,-0.1 -0.1,-0.27 0,-0.37 0.1,-0.1 0.27,-0.1 0.37,0 0.1,0.1 0.1,0.27 0,0.37z"/>
   <path class="fil1" d="M5.27 6.4c0.35,0 0.64,0.29 0.64,0.64 0,0.35 -0.29,0.64 -0.64,0.64 -0.35,0 -0.64,-0.29 -0.64,-0.64 0,-0.35 0.29,-0.64 0.64,-0.64zm0 0.38c0.15,0 0.26,0.12 0.26,0.26 0,0.15 -0.12,0.26 -0.26,0.26 -0.15,0 -0.26,-0.12 -0.26,-0.26 0,-0.15 0.12,-0.26 0.26,-0.26z"/>
   <path class="fil1" d="M3.27 6.58c0.25,0.25 0.25,0.65 0,0.9 -0.25,0.25 -0.65,0.25 -0.9,0 -0.25,-0.25 -0.25,-0.65 0,-0.9 0.25,-0.25 0.65,-0.25 0.9,0zm-0.27 0.27c0.1,0.1 0.1,0.27 0,0.37 -0.1,0.1 -0.27,0.1 -0.37,0 -0.1,-0.1 -0.1,-0.27 0,-0.37 0.1,-0.1 0.27,-0.1 0.37,0z"/>
   <path class="fil1" d="M1.74 5.29c0,0.35 -0.29,0.64 -0.64,0.64 -0.35,0 -0.64,-0.29 -0.64,-0.64 0,-0.35 0.29,-0.64 0.64,-0.64 0.35,0 0.64,0.29 0.64,0.64zm-0.38 0c0,0.15 -0.12,0.26 -0.26,0.26 -0.15,0 -0.26,-0.12 -0.26,-0.26 0,-0.15 0.12,-0.26 0.26,-0.26 0.15,0 0.26,0.12 0.26,0.26z"/>
   <path class="fil1" d="M1.56 3.29c-0.25,0.25 -0.65,0.25 -0.9,0 -0.25,-0.25 -0.25,-0.65 0,-0.9 0.25,-0.25 0.65,-0.25 0.9,0 0.25,0.25 0.25,0.65 0,0.9zm-0.27 -0.27c-0.1,0.1 -0.27,0.1 -0.37,0 -0.1,-0.1 -0.1,-0.27 0,-0.37 0.1,-0.1 0.27,-0.1 0.37,0 0.1,0.1 0.1,0.27 0,0.37z"/>
  </g>
 </g>
</svg>
