<?xml version="1.0" encoding="UTF-8"?>
<!DOCTYPE svg PUBLIC "-//W3C//DTD SVG 1.1//EN" "http://www.w3.org/Graphics/SVG/1.1/DTD/svg11.dtd">
<!-- Creator: CorelDRAW 2020 (64-Bit) -->
<svg xmlns="http://www.w3.org/2000/svg" xml:space="preserve" width="167.265mm" height="167.264mm" version="1.1" style="shape-rendering:geometricPrecision; text-rendering:geometricPrecision; image-rendering:optimizeQuality; fill-rule:evenodd; clip-rule:evenodd"
viewBox="0 0 150.18 150.18"
 xmlns:xlink="http://www.w3.org/1999/xlink"
 xmlns:xodm="http://www.corel.com/coreldraw/odm/2003">
 <defs>
  <style type="text/css">
   <![CDATA[
    .fil1 {fill:black}
    .fil4 {fill:#148CE0}
    .fil0 {fill:#38C2FC}
    .fil3 {fill:#8B94A3}
    .fil2 {fill:#EBEBEB}
   ]]>
  </style>
 </defs>
 <g id="Capa_x0020_1">
  <metadata id="CorelCorpID_0Corel-Layer"/>
  <g id="_1752630803520">
   <path class="fil0" d="M62.98 101.74l4.84 0 0 4.84 -4.84 0 -0 -4.84zm-9.67 0l4.82 0 0 4.84 -4.84 0 0.02 -4.84zm-9.68 0l4.81 0 -0.01 4.84 -4.83 0 0.03 -4.84zm33.83 4.83l-4.79 0.01 -0.05 -4.82c-0.97,-0.6 -15.56,-3.46 -17.92,-3.93 -6.54,-1.31 -14.24,-0.68 -21.27,-0.68 -0.63,-0.35 -0.59,0.03 -0.23,-0.56 4.77,-4.66 9.24,-9.22 13.95,-13.93 2.47,-2.47 6.13,-5.24 6.16,-7.54l-0.02 -27.89c0,-4.84 -0.61,-8.8 2.59,-11.58 2.8,-2.42 8.06,-1.73 12.46,-1.73 4.46,0 9.54,0.22 13.93,-0.04l0.09 -9.56 -77.09 0 -0.59 94.38 77.44 0c0.26,-1.52 0.18,-13.17 -0.04,-15.13l-4.32 -0.9 -0.22 3.67c-0.01,0.06 -0.04,0.16 -0.08,0.23z"/>
   <path class="fil1" d="M4.99 130.8l77.37 0.07c0,3.05 0.46,8.09 -0.84,10.49 -1.32,2.44 -3.4,3.98 -7.31,3.98l-61.3 0c-5.11,0 -8.06,-2.95 -8.06,-8.06l0.14 -6.47zm8.12 -130.8l57.29 0 4.6 0c2.5,0.07 4.39,0.41 6.54,1.77 2.62,1.65 4.48,4.23 5.34,7.27 1.1,3.89 0.54,19 0.54,24.69 16.03,0 32.07,0 48.1,0 3.92,0 8.35,-0.4 10.96,1.07 3.4,1.91 3.69,4.4 3.71,7.21l0 36.89 0 11.42c-0.53,3.27 -2.08,5.78 -6.15,6.48 -3.89,0.67 -52.72,0.28 -59.31,0.28 -1.3,-0.61 -22.33,-0.2 -25.77,-0.2 -3.46,0 -24.43,0.49 -25.75,-0.3 4.77,-4.66 9.24,-9.22 13.95,-13.93 2.47,-2.47 6.13,-5.24 6.16,-7.54l-0.02 -27.89c0,-4.84 -0.61,-8.8 2.59,-11.58 2.8,-2.42 8.06,-1.73 12.46,-1.73 4.46,0 9.54,0.22 13.93,-0.04l0.09 -9.56 -77.09 0c-0.54,0.59 -0.51,-0.02 -0.47,2.66 0.26,15.21 0.01,32.54 0.01,47.82 0,16.98 0.03,33.96 0.03,50.94 0.91,0.31 73.02,0.66 77.51,0.13l0.05 -24.13c0.31,-0 0.86,0.03 1.2,0.01l1.22 -0.26c0.86,0.46 1.33,0.29 2.59,0.29 0,8.51 0,17.01 0,25.52 0,9.51 1.24,15.28 -5.05,20.47 -2.85,2.36 -5.22,2.41 -10.02,2.41l-0.23 0 -0.24 0 -37.84 0 -22.58 0c-1.14,-0.09 -2.02,-0.22 -2.55,-0.39 -3.52,-1.17 -5.5,-2.69 -7.27,-5.63 -1.14,-1.89 -1.52,-3.47 -1.63,-5.35l0 -5.63 0 -114.69 0 -6.85c0.12,-1.67 0.41,-3.25 1.09,-4.68 2.35,-4.96 6.62,-6.94 12.02,-6.95zm43.84 79.83c1.37,-1.31 1.22,-1.04 1.19,-3.56l-0.01 -28.75c0,-10.56 -0.48,-8.76 10.21,-8.76l57.78 0c3.11,0 16.8,-0.65 18.35,0.66 1.45,1.23 0.85,6.77 0.85,8.98l0 28.75c0,13.27 1.4,14.94 -4.53,14.91l-95.99 -0 12.14 -12.22zm-52.1 -60.45c0,-4.01 -0.71,-9.28 1.73,-11.92 2.96,-3.21 5.51,-2.61 10.73,-2.61l53.09 0c12.53,-0 11.96,3.26 11.96,14.53l-77.51 0z"/>
   <path class="fil2" d="M96.88 79.94l-4.83 0 -0 -31.49 6.72 0.01 3.15 11.25 2.79 -11.26 6.68 0.01 0.03 31.47 -4.75 0.01 -0.59 -16.99 -0.89 3.53c-0.68,2.74 -2.84,12.16 -3.55,13.47l-4.64 -18.57 -0.12 18.58zm19.4 -7.27l4.56 0 0.73 1.97c0.28,0.61 0.71,1.2 1.1,1.56 3.7,3.43 9.7,-0.48 7.73,-5.38 -2.03,-5.05 -9.39,-0.85 -13.17,-8.55 -3.08,-6.28 1.36,-12.36 6.56,-13.54 6.76,-1.54 11.38,3.46 11.82,9.41l-4.84 0c-0.65,-8.01 -12.11,-4.91 -9.28,1.93 2.09,5.04 9.52,0.63 13.08,8.34 2.94,6.35 -0.97,12.15 -6,13.55 -7.01,1.95 -11.85,-3.25 -12.31,-9.27zm-44.13 0c1.04,0.58 0.06,-0.14 0.98,2.02 2.3,5.39 11.2,2.31 8.84,-3.84 -1.35,-3.52 -3.71,-2.34 -7.35,-3.5 -9.48,-3.03 -8.74,-16.46 0.78,-18.62 5.69,-1.29 11.27,2.5 11.77,9.42l-4.75 -0.14c-2.73,-9.3 -12.11,-3.15 -9.26,2.3 1.6,3.07 4.24,2.16 7.59,3.27 2.38,0.79 4.6,2.91 5.54,5.01 2.87,6.36 -1.4,12.29 -6.57,13.48 -6.76,1.56 -11.36,-3.47 -11.87,-9.36l4.31 -0.03zm-27.35 19.38l95.99 0c5.93,0.03 4.53,-1.64 4.53,-14.91l0 -28.75c0,-2.21 0.6,-7.76 -0.85,-8.98 -1.55,-1.31 -15.24,-0.66 -18.35,-0.66l-57.78 0c-10.7,0 -10.21,-1.8 -10.21,8.76l0.01 28.75c0.03,2.52 0.18,2.25 -1.19,3.56l-12.14 12.22z"/>
   <path class="fil3" d="M4.85 19.38l77.51 -0c0,-11.27 0.57,-14.53 -11.96,-14.53l-53.09 0c-5.22,-0 -7.77,-0.61 -10.73,2.61 -2.44,2.65 -1.73,7.91 -1.73,11.92z"/>
   <path class="fil3" d="M33.96 135.65l19.3 0.04 0.02 4.7c-2.04,0.26 -17.98,0.31 -19.37,-0.09l0.05 -4.66zm-29.12 1.62c0,5.11 2.95,8.06 8.06,8.06l61.3 0c3.91,0 6,-1.54 7.31,-3.98 1.3,-2.4 0.84,-7.44 0.84,-10.49l-77.37 -0.07 -0.14 6.47z"/>
   <path class="fil4" d="M84.82 101.49l-0.09 -4.4c-1.3,-0.61 -22.33,-0.2 -25.77,-0.2 -3.46,0 -24.43,0.49 -25.75,-0.3 -0.36,0.59 -0.4,0.21 0.23,0.56 7.03,0 14.73,-0.63 21.27,0.68 2.36,0.47 16.94,3.33 17.92,3.93l4.87 -0.02 -0.03 4.83c0.03,-0.07 0.06,-0.17 0.08,-0.23l0.22 -3.67 4.32 0.9c0.22,1.97 0.3,13.61 0.04,15.13l-77.44 0 0.59 -94.38c-0.54,0.59 -0.51,-0.02 -0.47,2.66 0.26,15.21 0.01,32.54 0.01,47.82 0,16.98 0.03,33.96 0.03,50.94 0.91,0.31 73.02,0.66 77.51,0.13l0.05 -24.13c0.31,-0 0.86,0.03 1.2,0.01l1.22 -0.26z"/>
   <path class="fil1" d="M97 61.35l4.64 18.57c0.71,-1.3 2.87,-10.72 3.55,-13.47l0.89 -3.53 0.59 16.99 4.75 -0.01 -0.03 -31.47 -6.68 -0.01 -2.79 11.26 -3.15 -11.25 -6.72 -0.01 0 31.49 4.83 0 0.12 -18.58z"/>
   <path class="fil1" d="M116.29 72.67c0.46,6.02 5.3,11.22 12.31,9.27 5.02,-1.4 8.94,-7.2 6,-13.55 -3.57,-7.71 -11,-3.3 -13.08,-8.34 -2.83,-6.84 8.63,-9.94 9.28,-1.93l4.84 0c-0.44,-5.95 -5.06,-10.94 -11.82,-9.41 -5.21,1.18 -9.65,7.26 -6.56,13.54 3.78,7.71 11.14,3.5 13.17,8.55 1.97,4.9 -4.03,8.81 -7.73,5.38 -0.38,-0.36 -0.82,-0.94 -1.1,-1.56l-0.73 -1.97 -4.56 -0z"/>
   <path class="fil1" d="M72.16 72.67l-4.31 0.03c0.51,5.89 5.11,10.92 11.87,9.36 5.17,-1.19 9.44,-7.12 6.57,-13.48 -0.94,-2.1 -3.16,-4.22 -5.54,-5.01 -3.34,-1.11 -5.98,-0.2 -7.59,-3.27 -2.85,-5.45 6.54,-11.6 9.26,-2.3l4.75 0.14c-0.51,-6.92 -6.08,-10.71 -11.77,-9.42 -9.51,2.16 -10.25,15.58 -0.78,18.62 3.64,1.17 6,-0.02 7.35,3.5 2.36,6.15 -6.54,9.23 -8.84,3.84 -0.92,-2.16 0.06,-1.44 -0.98,-2.02z"/>
   <path class="fil1" d="M33.91 140.31c1.39,0.4 17.34,0.35 19.37,0.09l-0.02 -4.7 -19.3 -0.04 -0.05 4.66z"/>
   <polygon class="fil1" points="53.29,106.58 58.13,106.58 58.13,101.74 53.31,101.74 "/>
   <polygon class="fil1" points="43.6,106.58 48.43,106.58 48.44,101.74 43.63,101.74 "/>
   <polygon class="fil1" points="62.97,106.58 67.81,106.58 67.81,101.74 62.99,101.74 "/>
   <polygon class="fil1" points="72.67,106.58 77.51,106.58 77.51,101.74 72.69,101.74 "/>
  </g>
 </g>
</svg>
