<svg viewBox="-66 1 511 511.999" xmlns="http://www.w3.org/2000/svg"><path d="m124.535156 452.320312c-12.789062 0-23.160156-10.367187-23.160156-23.15625v-60.507812c0-12.789062 10.371094-23.160156 23.160156-23.160156h114.949219c47.175781 0 85.554687-38.378906 85.554687-85.554688 0-47.175781-38.378906-85.554687-85.554687-85.554687h-31.8125c-12.789063 0-23.160156-10.371094-23.160156-23.160157 0-12.789062 10.371093-23.15625 23.160156-23.15625h31.8125c72.714844 0 131.867187 59.15625 131.867187 131.871094s-59.152343 131.871094-131.867187 131.871094h-91.792969v37.351562c0 12.789063-10.367187 23.15625-23.15625 23.15625zm0 0" fill="#fadc60"/><path d="m163.183594 286.515625h-77.300782c-4.734374 0-8.574218-3.839844-8.574218-8.574219v-257.0625h94.449218v257.0625c0 4.734375-3.839843 8.574219-8.574218 8.574219zm0 0" fill="#596674"/><path d="m107.308594 277.941406v-257.0625h-30v257.0625c0 4.734375 3.839844 8.574219 8.574218 8.574219h30c-4.734374 0-8.574218-3.839844-8.574218-8.574219zm0 0" fill="#565c62"/><path d="m179.597656 230.011719h-110.125c-6.296875 0-11.402344-5.105469-11.402344-11.398438v-134.769531c0-6.296875 5.105469-11.398438 11.402344-11.398438h110.125c6.296875 0 11.398438 5.105469 11.398438 11.398438v134.769531c0 6.292969-5.105469 11.398438-11.398438 11.398438zm0 0" fill="#d9d7d8"/><path d="m88.070312 218.613281v-134.769531c0-6.296875 5.105469-11.398438 11.402344-11.398438h-30c-6.296875 0-11.402344 5.105469-11.402344 11.398438v134.769531c0 6.296875 5.105469 11.398438 11.402344 11.398438h30c-6.296875 0-11.402344-5.105469-11.402344-11.398438zm0 0" fill="#bab8b9"/><path d="m176.996094 48.667969h-104.925782c-2.617187 0-4.738281-2.121094-4.738281-4.738281v-31.691407c0-2.617187 2.121094-4.738281 4.738281-4.738281h104.925782c2.617187 0 4.738281 2.121094 4.738281 4.738281v31.691407c0 2.617187-2.121094 4.738281-4.738281 4.738281zm0 0" fill="#d9d7d8"/><path d="m97.332031 43.929688v-31.691407c0-2.617187 2.121094-4.738281 4.738281-4.738281h-30c-2.617187 0-4.738281 2.121094-4.738281 4.738281v31.691407c0 2.617187 2.121094 4.738281 4.738281 4.738281h30c-2.617187 0-4.738281-2.121094-4.738281-4.738281zm0 0" fill="#bab8b9"/><path d="m241.066406 151.226562c0 27.65625-22.414062 50.070313-50.070312 50.070313-27.652344 0-50.070313-22.414063-50.070313-50.070313 0-27.652343 22.417969-50.070312 50.070313-50.070312 27.65625 0 50.070312 22.417969 50.070312 50.070312zm0 0" fill="#fd6f71"/><path d="m170.925781 151.226562c0-22.425781 14.746094-41.40625 35.070313-47.78125-4.734375-1.484374-9.773438-2.289062-15-2.289062-27.652344 0-50.070313 22.417969-50.070313 50.070312 0 27.65625 22.417969 50.070313 50.070313 50.070313 5.226562 0 10.265625-.800781 15-2.285156-20.324219-6.375-35.070313-25.355469-35.070313-47.785157zm0 0" fill="#e36465"/><path d="m217.910156 391.8125h-186.753906c-12.789062 0-23.15625-10.371094-23.15625-23.160156 0-12.789063 10.367188-23.15625 23.15625-23.15625h186.753906c12.789063 0 23.15625 10.367187 23.15625 23.15625 0 12.792968-10.367187 23.160156-23.15625 23.160156zm0 0" fill="#fd6f71"/><path d="m38 368.652344c0-12.789063 10.367188-23.15625 23.15625-23.15625h-30c-12.789062 0-23.15625 10.367187-23.15625 23.15625 0 12.789062 10.367188 23.160156 23.15625 23.160156h30c-12.789062 0-23.15625-10.367188-23.15625-23.160156zm0 0" fill="#e36465"/><path d="m358.898438 504.5h-338.441407c-6.878906 0-12.457031-5.578125-12.457031-12.457031v-51.65625c0-6.882813 5.578125-12.457031 12.457031-12.457031h338.441407c6.878906 0 12.453124 5.578124 12.453124 12.457031v51.65625c0 6.878906-5.574218 12.457031-12.453124 12.457031zm0 0" fill="#596674"/><path d="m38 492.042969v-51.660157c0-6.878906 5.578125-12.453124 12.457031-12.453124h-30c-6.878906 0-12.457031 5.574218-12.457031 12.453124v51.660157c0 6.878906 5.578125 12.457031 12.457031 12.457031h30c-6.878906 0-12.457031-5.578125-12.457031-12.457031zm0 0" fill="#565c62"/><path d="m358.898438 420.429688h-42.363282c-4.144531 0-7.5 3.355468-7.5 7.5 0 4.140624 3.355469 7.5 7.5 7.5h42.363282c2.730468 0 4.953124 2.222656 4.953124 4.953124v51.660157c0 2.734375-2.222656 4.957031-4.953124 4.957031h-338.441407c-2.734375 0-4.957031-2.222656-4.957031-4.957031v-51.660157c0-2.730468 2.222656-4.953124 4.957031-4.953124h268.074219c4.144531 0 7.5-3.359376 7.5-7.5 0-4.144532-3.355469-7.5-7.5-7.5h-133.339844v-21.117188h84.292969c76.847656 0 139.367187-62.523438 139.367187-139.371094 0-76.777344-62.40625-139.253906-139.160156-139.367187-8.9375-14.148438-23.863281-24.144531-41.191406-26.410157v-10.320312c0-10.421875-8.480469-18.898438-18.902344-18.898438h-.339844v-8.996093c5.671876-1.0625 9.980469-6.042969 9.980469-12.019531v-31.691407c-.003906-6.75-5.492187-12.238281-12.242187-12.238281h-104.925782c-6.746093 0-12.238281 5.488281-12.238281 12.238281v31.691407c0 5.976562 4.308594 10.957031 9.976563 12.019531v8.992187h-.335938c-10.421875 0-18.902344 8.480469-18.902344 18.902344v134.765625c0 10.421875 8.480469 18.902344 18.902344 18.902344h.335938v40.429687c0 8.863282 7.214844 16.074219 16.074218 16.074219h77.300782c8.863281 0 16.074218-7.210937 16.074218-16.074219v-40.429687h.339844c10.421875 0 18.902344-8.480469 18.902344-18.902344v-10.316406c17.328125-2.265625 32.25-12.257813 41.1875-26.402344 42.945312.109375 77.851562 35.078125 77.851562 78.050781 0 43.039063-35.015624 78.054688-78.054687 78.054688h-208.328125c-16.902344 0-30.65625 13.753906-30.65625 30.65625 0 16.90625 13.753906 30.660156 30.65625 30.660156h62.71875v21.113281h-73.417969c-11.003906 0-19.957031 8.953125-19.957031 19.957031v51.660157c0 11.003906 8.953125 19.957031 19.957031 19.957031h338.441407c11.003906 0 19.953124-8.953125 19.953124-19.957031v-51.660157c0-11.003906-8.949218-19.953124-19.953124-19.953124zm-284.066407-405.429688h99.402344v26.167969h-99.402344zm9.976563 41.167969h79.449218v8.773437h-79.449218zm94.789062 166.34375h-41.0625c-4.144531 0-7.5 3.359375-7.5 7.5 0 4.144531 3.355469 7.5 7.5 7.5h25.722656v40.429687c0 .59375-.480468 1.074219-1.074218 1.074219h-77.300782c-.59375 0-1.074218-.480469-1.074218-1.074219v-40.429687h25.726562c4.140625 0 7.5-3.355469 7.5-7.5 0-4.140625-3.359375-7.5-7.5-7.5h-41.0625c-2.152344 0-3.902344-1.75-3.902344-3.898438v-134.769531c0-2.148438 1.75-3.898438 3.902344-3.898438h110.125c2.148438 0 3.898438 1.75 3.898438 3.898438v10.320312c-28.210938 3.6875-50.070313 27.863282-50.070313 57.066407 0 29.199219 21.859375 53.375 50.070313 57.066406v10.316406c0 2.148438-1.75 3.898438-3.898438 3.898438zm11.414063-28.710938c-.003907 0-.011719-.003906-.015625-.003906s-.007813.003906-.011719.003906c-23.46875-.007812-42.558594-19.101562-42.558594-42.570312 0-23.476563 19.097657-42.570313 42.570313-42.570313s42.570312 19.097656 42.570312 42.570313c.003906 23.46875-19.089844 42.558593-42.554687 42.570312zm141.527343 66.140625c0-49.015625-38.089843-89.296875-86.222656-92.804687 1.457032-5.058594 2.25-10.390625 2.25-15.910157 0-5.355468-.75-10.535156-2.125-15.457031 65.355469 3.621094 117.410156 57.929688 117.410156 124.171875 0 66.960938-53.191406 121.71875-119.539062 124.265625 2.699219-4.5625 4.257812-9.878906 4.257812-15.554687 0-5.765625-1.605468-11.164063-4.382812-15.773438 49.132812-2.457031 88.351562-43.203125 88.351562-92.9375zm-317.039062 108.710938c0-8.632813 7.023438-15.65625 15.65625-15.65625h186.753906c8.632813 0 15.65625 7.023437 15.65625 15.65625 0 8.636718-7.023437 15.660156-15.65625 15.660156h-116.515625c-.003906 0-.011719-.003906-.019531-.003906-.003906 0-.011719.003906-.015625.003906h-70.203125c-8.632812 0-15.65625-7.023438-15.65625-15.660156zm93.375 30.660156h31.316406v21.117188h-31.316406zm0 0"/></svg>