<?xml version="1.0" encoding="UTF-8"?>
<!DOCTYPE svg PUBLIC "-//W3C//DTD SVG 1.1//EN" "http://www.w3.org/Graphics/SVG/1.1/DTD/svg11.dtd">
<!-- Creator: CorelDRAW 2020 (64-Bit) -->
<svg xmlns="http://www.w3.org/2000/svg" xml:space="preserve" width="123.224mm" height="94.7931mm" version="1.1" style="shape-rendering:geometricPrecision; text-rendering:geometricPrecision; image-rendering:optimizeQuality; fill-rule:evenodd; clip-rule:evenodd"
viewBox="0 0 68.05 52.35"
 xmlns:xlink="http://www.w3.org/1999/xlink"
 xmlns:xodm="http://www.corel.com/coreldraw/odm/2003">
 <defs>
  <style type="text/css">
   <![CDATA[
    .fil1 {fill:#690000}
    .fil0 {fill:red}
   ]]>
  </style>
 </defs>
 <g id="Capa_x0020_1">
  <metadata id="CorelCorpID_0Corel-Layer"/>
  <rect class="fil0" y="-0" width="68.05" height="52.35" rx="4.98" ry="5.37"/>
  <path class="fil1" d="M33.65 10.98c0,0.94 0.76,2.01 1.48,2.08l0 3.19 -6 0 0 -1.63c1.17,-0.27 1.79,-1.67 1.38,-3.08 -0.26,-0.9 -1.41,-2.85 -2.05,-2.85 -1.15,0 -2.37,2.61 -2.37,3.56 0,1.16 0.48,2.14 1.48,2.37l0 1.63 -6.45 0c-1.67,0 -2.67,0.99 -2.67,2.52l0 4.22c0,0.84 0.75,0.96 1.64,1.32l2.09 0.87c0.87,0.29 1.6,0.29 2.47,-0 0.75,-0.25 1.42,-0.6 2.15,-0.88 1.56,-0.6 2.73,0.81 4.54,1.07 1.2,0.17 2.26,-0.44 3.4,-0.91 1.07,-0.44 1.27,-0.45 2.34,-0.02 1.59,0.64 2.77,1.42 4.56,0.62 0.33,-0.15 0.71,-0.29 1.04,-0.44 0.75,-0.33 1.38,-0.68 2.34,-0.34l2.1 0.87c1.83,0.66 2.87,-0.1 4.61,-0.82 0.38,-0.15 0.67,-0.27 1.05,-0.43 0.39,-0.17 0.64,-0.38 0.64,-0.91 0,-1.16 0.15,-4.46 -0.2,-5.29 -0.11,-0.27 -0.34,-0.63 -0.53,-0.8 -0.47,-0.42 -1.06,-0.66 -1.94,-0.66l-6.45 0 0 -1.63c1,-0.23 1.48,-1.21 1.48,-2.37 0,-0.96 -1.31,-3.56 -2.3,-3.56 -0.76,0 -1.85,1.96 -2.1,2.79 -0.43,1.44 0.16,2.86 1.36,3.14l0 1.63 -6 0 0 -3.19c0.73,-0.06 1.48,-1.17 1.48,-2 0,-1.43 -0.78,-3.16 -1.31,-4.39 -0.56,-1.31 -1.35,-1.36 -1.92,-0.1 -0.51,1.1 -1.36,3.2 -1.36,4.42z"/>
  <path class="fil1" d="M16.98 36.55c0,1.31 0.39,2.37 1.32,3.12 0.77,0.62 1.59,0.95 2.98,0.95l29.35 0c1.38,0 2.2,-0.33 2.98,-0.95 0.93,-0.75 1.32,-1.82 1.32,-3.12 0,-0.94 -1.03,-2.08 -2.3,-2.08l-33.35 0c-1.25,0 -2.3,1.12 -2.3,2.08z"/>
  <path class="fil1" d="M20.01 25.88l0 7.11 31.87 0 0 -7.11c-2.27,1.09 -3.55,1.39 -6.05,0.34 -2.06,-0.87 -1.16,-0.77 -3.74,0.25 -3.15,1.25 -5.14,-0.84 -6.16,-0.87 -0.23,-0.01 -2.15,0.91 -2.75,1.07 -2.04,0.56 -3.35,-0.19 -5.17,-0.95 -0.55,-0.23 -0.99,0.06 -1.86,0.45 -2.48,1.1 -3.87,0.8 -6.15,-0.29z"/>
 </g>
</svg>
