<?xml version="1.0" encoding="UTF-8"?>
<!DOCTYPE svg PUBLIC "-//W3C//DTD SVG 1.1//EN" "http://www.w3.org/Graphics/SVG/1.1/DTD/svg11.dtd">
<!-- Creator: CorelDRAW 2020 (64-Bit) -->
<svg xmlns="http://www.w3.org/2000/svg" xml:space="preserve" width="123.224mm" height="94.7931mm" version="1.1" style="shape-rendering:geometricPrecision; text-rendering:geometricPrecision; image-rendering:optimizeQuality; fill-rule:evenodd; clip-rule:evenodd"
viewBox="0 0 70.7 54.39"
 xmlns:xlink="http://www.w3.org/1999/xlink"
 xmlns:xodm="http://www.corel.com/coreldraw/odm/2003">
 <defs>
  <style type="text/css">
   <![CDATA[
    .fil1 {fill:#690000}
    .fil0 {fill:red}
   ]]>
  </style>
 </defs>
 <g id="Capa_x0020_1">
  <metadata id="CorelCorpID_0Corel-Layer"/>
  <rect class="fil0" y="-0" width="70.7" height="54.39" rx="5.17" ry="5.58"/>
  <path class="fil1" d="M35.26 8.3c6.04,0 10.93,4.89 10.93,10.93 0,2.95 -1.17,5.62 -3.06,7.59l-0 0c2.79,1.6 5.86,4.6 7.46,7.29 2.51,4.23 3.82,11.93 -0.76,11.93l-14.69 0 -14.69 0c-4.58,0 -3.27,-7.71 -0.76,-11.93 1.6,-2.69 4.98,-5.62 7.78,-7.22l-0 -0c-1.93,-1.97 -3.13,-4.67 -3.13,-7.65 0,-6.04 4.89,-10.93 10.93,-10.93z"/>
 </g>
</svg>
