<svg id="Capa_1" data-name="Capa 1" xmlns="http://www.w3.org/2000/svg" viewBox="0 0 300 300"><defs><style>.cls-1{fill:#97de3d;}.cls-2{fill:#59c36a;}.cls-3{fill:#f0f7ff;}.cls-4{fill:#dfe7f4;}</style></defs><title>Iconos_finales</title><path class="cls-1" d="M200.368,50.92H98.216c-31.686,0-57.887,25.775-57.887,57.46v38.308c0,29.528,22.809,53.919,51.5,57.105v32.278a6.384,6.384,0,0,0,10.9,4.514l14.639-14.64,21.8-21.8h61.2c31.686,0,57.887-25.775,57.887-57.46V108.38c0-31.685-26.2-57.46-57.887-57.46Z"/><path class="cls-2" d="M200.368,204.148c31.686,0,57.887-25.775,57.887-57.46V108.38c0-31.685-26.2-57.46-57.887-57.46h-83V225.945l21.8-21.8Z"/><path class="cls-3" d="M117.369,89.227a38.321,38.321,0,0,0-31.23,60.509l-5.206,5.206a6.384,6.384,0,0,0,4.514,10.9h31.922a38.307,38.307,0,1,0,0-76.614Z"/><path class="cls-4" d="M155.677,127.534a38.349,38.349,0,0,0-38.308-38.307v76.614A38.349,38.349,0,0,0,155.677,127.534Z"/><path d="M207.332,42.5H92.668c-35.827,0-64.975,28.934-64.975,64.5v43c0,33.161,25.339,60.557,57.809,64.108V250.33A7.167,7.167,0,0,0,97.736,255.4l40.9-40.9h68.7c35.827,0,64.975-28.934,64.975-64.5V107c0-35.564-29.148-64.5-64.975-64.5ZM257.974,150c0,27.661-22.718,50.165-50.642,50.165H135.667a7.163,7.163,0,0,0-5.067,2.1L99.835,233.029v-25.7a7.167,7.167,0,0,0-7.167-7.166c-27.924,0-50.642-22.5-50.642-50.165V107c0-27.661,22.718-50.165,50.642-50.165H207.332c27.924,0,50.642,22.5,50.642,50.165Z"/><path d="M114.168,85.5A43.013,43.013,0,0,0,79.113,153.42l-5.845,5.846A7.166,7.166,0,0,0,78.336,171.5h35.832a43,43,0,0,0,0-86Zm0,71.664H95.179a7.17,7.17,0,0,0-1.281-8.4,28.666,28.666,0,1,1,20.27,8.4Z"/><path d="M221.664,142.833H214.5V107a7.166,7.166,0,0,0-12.234-5.067l-14.333,14.333A7.167,7.167,0,0,0,198.066,126.4l2.1-2.1v18.531H193a7.167,7.167,0,1,0,0,14.333h28.665a7.167,7.167,0,1,0,0-14.333Z"/></svg>