<?xml version="1.0" encoding="UTF-8"?>
<!DOCTYPE svg PUBLIC "-//W3C//DTD SVG 1.1//EN" "http://www.w3.org/Graphics/SVG/1.1/DTD/svg11.dtd">
<!-- Creator: CorelDRAW 2020 (64-Bit) -->
<svg xmlns="http://www.w3.org/2000/svg" xml:space="preserve" width="15.9572mm" height="15.9571mm" version="1.1" style="shape-rendering:geometricPrecision; text-rendering:geometricPrecision; image-rendering:optimizeQuality; fill-rule:evenodd; clip-rule:evenodd"
viewBox="0 0 2.97 2.97"
 xmlns:xlink="http://www.w3.org/1999/xlink"
 xmlns:xodm="http://www.corel.com/coreldraw/odm/2003">
 <defs>
  <style type="text/css">
   <![CDATA[
    .fil0 {fill:#EBECF1}
    .fil8 {fill:black;fill-rule:nonzero}
    .fil3 {fill:#5B5D6D;fill-rule:nonzero}
    .fil6 {fill:#5BD0FC;fill-rule:nonzero}
    .fil7 {fill:#CBE580;fill-rule:nonzero}
    .fil2 {fill:#D8DEEC;fill-rule:nonzero}
    .fil4 {fill:#ED6D66;fill-rule:nonzero}
    .fil5 {fill:#F0F2FA;fill-rule:nonzero}
    .fil1 {fill:#F9D889;fill-rule:nonzero}
   ]]>
  </style>
 </defs>
 <g id="Capa_x0020_1">
  <metadata id="CorelCorpID_0Corel-Layer"/>
  <circle class="fil0" cx="1.48" cy="1.48" r="1.48"/>
  <g id="_2729896131952">
   <polygon class="fil1" points="0.73,1.65 0.62,1.15 0.68,1.14 0.64,0.92 0.76,0.9 0.72,0.72 0.87,0.68 0.83,0.51 1.2,0.45 1.7,0.46 1.83,0.45 1.86,0.36 2.1,0.38 2.1,0.47 2.22,0.49 2.27,0.69 2.33,0.7 2.32,0.88 2.41,0.91 2.39,1.11 2.51,1.14 2.45,1.66 1.93,1.67 1.83,1.87 1.25,1.88 1.14,1.67 "/>
   <polygon class="fil2" points="0.36,1.69 0.37,1.96 0.44,2.19 1.43,2.22 2.29,2.18 2.62,2.16 2.68,1.7 2.62,1.6 2.49,1.48 2.45,1.66 1.93,1.67 1.83,1.87 1.25,1.88 1.14,1.67 0.73,1.65 0.65,1.39 "/>
   <g>
    <path class="fil3" d="M1.52 1.97c-0.07,0.01 -0.21,-0.02 -0.24,0.07 -0.01,0.04 0.02,0.05 0.05,0.06 0.08,0.01 0.16,0.01 0.24,0.01 0.06,0 0.12,0 0.18,-0.01 0.04,-0.01 0.06,-0.02 0.07,-0.06 0.01,-0.05 -0.02,-0.05 -0.06,-0.06 -0.08,-0.01 -0.16,-0.01 -0.24,-0z"/>
    <path class="fil3" d="M0.63 1.4c-0.06,0.06 -0.13,0.12 -0.18,0.18 -0.02,0.03 -0.06,0.06 -0.06,0.09 0.06,0.01 0.13,-0.01 0.19,-0.01 0.05,0 0.09,0 0.14,-0 0.01,-0.06 -0.02,-0.12 -0.03,-0.17 -0.01,-0.03 -0.01,-0.08 -0.05,-0.09z"/>
    <path class="fil3" d="M2.49 1.49c-0.02,0.04 -0.02,0.09 -0.02,0.13 -0,0.02 -0.01,0.04 -0.01,0.06 0.06,0 0.13,0.01 0.19,0.01 0.01,-0.05 -0.03,-0.08 -0.06,-0.11 -0.04,-0.03 -0.06,-0.07 -0.1,-0.08z"/>
   </g>
   <path class="fil4" d="M1.92 1.12c-0,-0.01 0,-0.02 0,-0.03 -0,-0.01 -0.01,-0.05 -0.01,-0.06 0.01,-0.01 0.07,-0 0.09,-0.01 0.05,-0 0.11,-0 0.16,-0 0.02,-0 0.03,-0 0.05,-0 0.01,0.02 0,0.04 0,0.06 0,0.01 0,0.02 0,0.03 -0.06,0.01 -0.13,0.01 -0.19,0.01 -0.04,-0 -0.08,-0.01 -0.11,0z"/>
   <path class="fil5" d="M1.91 0.87c0,-0.03 0,-0.05 0,-0.08 0.02,-0 0.03,-0 0.05,0 0.04,0.01 0.08,0 0.12,0 0.01,0 0.03,-0 0.04,0 0.01,0.01 0.01,0.06 0,0.07 -0.02,0 -0.04,-0 -0.07,-0 -0.06,0 -0.11,0 -0.16,-0.01z"/>
   <path class="fil6" d="M1.86 0.66c0,-0.02 0,-0.03 0.01,-0.05 0,-0.01 0,-0.03 0.01,-0.04 0.01,-0.01 0.03,-0.01 0.05,-0.01 0.06,-0 0.12,0.01 0.18,0.01 0,0.01 0.01,0.01 0.01,0.03 0,0.02 0,0.05 -0,0.08 -0.04,0.01 -0.08,-0 -0.11,-0 -0.04,0 -0.09,-0 -0.14,-0z"/>
   <path class="fil7" d="M2.07 0.37c-0.04,-0.01 -0.08,-0.01 -0.13,-0.01 -0.02,-0 -0.04,0 -0.06,0.01 -0.01,0 -0.02,-0 -0.03,0 -0.01,0.01 -0.01,0.02 -0.01,0.03 -0,0.02 -0.01,0.04 -0.01,0.07 0.01,0 0.02,0 0.03,0 0.03,0 0.06,0 0.1,0.01 0.04,0.01 0.08,0.01 0.12,0.01 0.01,0 0.03,0 0.03,-0 0.01,-0.01 -0.01,-0.04 -0.01,-0.05 -0.01,-0.02 -0.01,-0.03 -0.04,-0.06z"/>
   <path class="fil8" d="M2.71 1.7c0,-0.01 0,-0.01 -0,-0.02 -0.03,-0.05 -0.07,-0.09 -0.1,-0.13 -0.02,-0.02 -0.04,-0.04 -0.05,-0.06 -0.01,-0.01 -0.02,-0.03 -0.04,-0.04 0.01,-0.11 0.02,-0.22 0.02,-0.32 0,-0.02 -0.01,-0.03 -0.03,-0.03 -0.03,-0 -0.06,-0 -0.09,-0 0.01,-0.06 0.02,-0.12 0.03,-0.18 0,-0.02 -0.01,-0.03 -0.03,-0.04 -0.02,-0 -0.05,-0 -0.07,-0.01 0.01,-0.06 0.01,-0.12 0.01,-0.17 -0,-0.02 -0.01,-0.03 -0.03,-0.03 -0.01,-0 -0.03,-0 -0.04,-0 0,-0.05 -0,-0.11 -0.02,-0.17 -0.01,-0.02 -0.02,-0.04 -0.04,-0.04 -0.03,-0.01 -0.06,-0.01 -0.1,-0.01 0,-0.02 0,-0.04 -0,-0.06 -0,-0.02 -0.01,-0.03 -0.02,-0.03 -0.02,-0.01 -0.05,-0.01 -0.07,-0.01 -0.02,-0 -0.04,-0.01 -0.07,-0.01 -0.02,-0 -0.05,-0.01 -0.07,-0.01 -0.02,-0 -0.05,-0.01 -0.07,0 -0.01,0.01 -0.02,0.02 -0.02,0.03 -0,0.02 0,0.04 0,0.06 -0.02,-0 -0.05,-0 -0.07,-0 -0.25,-0.01 -0.51,-0.01 -0.76,0.02 -0.03,0 -0.07,0.01 -0.1,0.01 -0.03,0 -0.06,0 -0.07,0.03 -0.01,0.03 0,0.06 0.01,0.09 0.01,0.03 0.01,0.06 0.02,0.08 -0.01,0 -0.02,0 -0.02,0 -0.03,0 -0.06,0.01 -0.09,0.01 -0.02,-0 -0.03,0.02 -0.03,0.03 0.01,0.06 0.02,0.12 0.05,0.18 -0.03,0 -0.06,0.01 -0.1,0.01 -0.02,0 -0.03,0.02 -0.03,0.04 0.01,0.06 0.03,0.13 0.05,0.18 -0.02,-0 -0.03,-0 -0.05,-0 -0.02,-0 -0.03,0.02 -0.03,0.04 0.01,0.07 0.03,0.14 0.04,0.22 -0.03,0.03 -0.06,0.06 -0.08,0.08 -0.03,0.03 -0.06,0.07 -0.1,0.1 -0.03,0.03 -0.06,0.06 -0.09,0.1 -0.02,0.02 -0.03,0.04 -0.03,0.07 -0.01,0.05 -0,0.1 0,0.14 0,0.05 0.01,0.1 0.02,0.15 0.01,0.05 0.02,0.1 0.04,0.15 0.02,0.04 0.06,0.06 0.1,0.06 0.44,0.05 0.88,0.02 1.32,0.01 0.22,-0.01 0.44,-0.01 0.66,-0.02 0.05,-0 0.1,-0 0.14,-0.02 0.04,-0.02 0.05,-0.07 0.06,-0.11 0.03,-0.1 0.04,-0.21 0.05,-0.32 0,-0.02 0,-0.04 -0,-0.06zm-0.21 -0.19c0.02,0.03 0.04,0.05 0.06,0.08 0.02,0.02 0.03,0.04 0.05,0.06 -0,0 -0.01,0 -0.01,0l-0.09 -0c-0.01,-0 -0.02,-0 -0.03,-0 0.01,-0.05 0.01,-0.09 0.02,-0.14zm-0.28 -0.91c0,0.02 0,0.04 0,0.06 -0.03,-0 -0.06,-0 -0.1,-0 0,-0.02 0,-0.04 -0,-0.06 0.03,0 0.06,0 0.09,0.01zm-0.36 -0.2l0 -0.01c0,-0 0,-0 0,-0 0.01,0 0.02,0 0.02,0 0.03,0 0.06,0 0.09,0.01 0.03,0 0.06,0.01 0.09,0.01l0.01 0c0,0 0.01,0 0.01,0 0,0 0,0.01 0,0.01 0,0.01 0,0.02 0,0.03 -0.07,-0.01 -0.15,-0.01 -0.22,-0.01 0,-0.01 0,-0.02 0.01,-0.04zm-1 0.12c0,-0.01 0.02,-0.01 0.03,-0.01 0.01,-0 0.03,-0 0.04,-0.01 0.03,-0 0.06,-0.01 0.09,-0.01 0.11,-0.01 0.22,-0.02 0.33,-0.02 0.23,-0 0.45,0 0.68,0.02 0.03,0 0.06,0 0.09,0.01 0.01,0 0.03,0 0.04,0 0.01,0 0.04,-0 0.05,0.01 0,0 0,0 0,0 0,0.01 0,0.02 0.01,0.03 0,0.01 0,0.02 0,0.02 -0,-0.01 -0.26,-0.02 -0.29,-0.02 -0.02,-0 -0.04,-0 -0.05,0 -0.01,0 -0.02,0.01 -0.03,0.01 -0.01,0 -0.03,0 -0.04,0 -0.08,0 -0.16,0 -0.24,0 -0.1,0 -0.2,-0 -0.3,-0 -0,-0.03 -0.04,-0.05 -0.08,-0.05 -0.06,-0 -0.13,0.01 -0.19,0 -0.01,-0 -0.02,0.01 -0.02,0.01 -0.01,0.01 -0.01,0.03 -0.01,0.05 -0.03,0 -0.07,0.01 -0.11,0.01 -0,-0.01 -0,-0.01 -0,-0.02 -0,-0.01 -0.01,-0.03 -0.01,-0.04zm1.22 0.14c-0.07,-0 -0.14,-0.01 -0.2,-0.01 0,-0.02 -0,-0.06 0.02,-0.07 0.01,-0 0.02,-0 0.04,-0 0.03,0 0.06,0 0.09,0.01 0.01,0 0.01,0 0.02,0 0.01,0 0.02,0 0.03,0.01 0.01,0.01 0.02,0.01 0.02,0.02 -0,0.02 -0,0.03 -0,0.05zm-0.24 -0.01c-0.26,-0.01 -0.52,-0.01 -0.78,0 -0.06,0 -0.12,0 -0.17,0.01 -0.01,0 -0.01,0 -0.02,0 -0,-0.02 -0,-0.04 -0,-0.05 0.04,-0 0.08,-0 0.12,0 0.01,0 0.01,-0.01 0.02,-0.01 0.01,-0.01 0.01,-0.03 0.02,-0.04 0.04,-0 0.07,-0 0.11,-0 0.02,-0 0.13,-0.01 0.11,0.03 -0,0.01 0.01,0.02 0.02,0.02 0.1,0 0.21,0 0.31,0 0.09,-0 0.18,0 0.27,-0.01 -0,0 -0,0.01 -0,0.01 -0,0.02 -0,0.03 0,0.05zm-1.03 0.06c0.03,-0 0.06,-0.01 0.08,-0.01 0.05,-0 0.1,-0 0.15,-0.01 0.1,-0 0.21,-0 0.31,-0.01 0.21,-0 0.41,0 0.62,0.01 0.11,0 0.22,0.01 0.33,0.02 0,0.02 0,0.04 0,0.05 -0.07,0 -0.14,0 -0.21,0 -0.05,-0.01 -0.09,-0.01 -0.14,-0.01 -0.01,0 -0.03,-0 -0.05,0 -0.05,-0 -0.1,-0 -0.15,-0 -0.1,-0 -0.19,-0 -0.29,-0 -0.05,-0 -0.1,-0 -0.14,-0 -0.02,-0 -0.05,-0 -0.07,-0 -0.01,-0 -0.02,0 -0.03,-0 -0.01,-0 -0.01,-0.02 -0.02,-0.02 -0.01,-0.01 -0.02,-0.02 -0.04,-0.02 -0.02,-0 -0.05,0 -0.08,0 -0.06,0 -0.11,0 -0.17,0 -0.01,-0 -0.02,0.01 -0.02,0.01 -0,0.01 -0.01,0.02 -0.01,0.04 -0.04,0.01 -0.09,0.01 -0.13,0.01 -0,-0.03 -0.01,-0.05 -0.01,-0.08 0.02,-0 0.04,-0.01 0.05,-0.01zm1.49 0.09c-0,0.02 -0,0.04 -0,0.06 -0.04,-0 -0.09,-0 -0.13,-0.01 -0,-0.02 -0,-0.04 -0,-0.05 -0,-0 -0,-0 -0,-0 0.05,0 0.09,0 0.14,0zm-0.18 0.05c-0.02,-0 -0.03,-0 -0.05,-0 -0.05,-0 -0.09,-0 -0.14,-0 0,-0.01 0,-0.03 0,-0.03 0,0 0,-0 0.01,-0 0.01,-0 0.01,-0 0.02,-0 0.01,-0 0.02,-0 0.03,-0 0.04,-0 0.09,0 0.13,0.01 0,0.01 0,0.02 0,0.03zm-0.24 -0.01c-0.05,-0 -0.11,-0 -0.16,-0 -0.23,-0 -0.46,-0 -0.69,0.01 -0.08,0 -0.16,0.01 -0.25,0.02 -0,-0.02 -0.01,-0.04 -0.01,-0.06 0.05,-0 0.1,-0 0.14,-0 0.01,-0 0.01,-0 0.02,-0.01 0.01,-0.01 0.01,-0.03 0.02,-0.04 0.04,-0 0.09,-0.01 0.13,-0.01 0.02,-0 0.05,-0 0.07,-0 0.01,-0 0.02,-0 0.03,-0 0.01,0 0.01,0.02 0.02,0.02 0.02,0.03 0.06,0.02 0.09,0.02 0.05,-0 0.1,-0 0.14,-0 0.15,-0 0.3,0 0.45,-0 -0,0.01 -0,0.03 0,0.05zm-0.55 0.05c0.23,-0 0.46,-0 0.69,0.01 0.12,0.01 0.24,0.02 0.36,0.03 -0,0.03 -0.01,0.05 -0.01,0.08 -0.03,-0 -0.06,0 -0.08,0 -0.02,0 -0.04,0 -0.05,0 0,-0 0,-0 0,-0 0,-0.01 -0.01,-0.02 -0.03,-0.03 -0.05,-0 -0.11,-0 -0.16,-0 -0.05,0 -0.1,-0 -0.15,0.01 -0.01,0 -0.02,0.01 -0.02,0.02 -0.18,0 -0.37,-0 -0.55,-0 -0.05,-0 -0.09,-0 -0.14,-0 -0.02,-0 -0.05,0 -0.07,-0 -0.02,-0 -0.02,-0.02 -0.02,-0.03 -0.02,-0.03 -0.06,-0.02 -0.09,-0.02 -0.04,0 -0.09,0 -0.13,0 -0.01,-0 -0.02,0.01 -0.02,0.02 -0,0.01 0,0.03 -0,0.05 -0.01,0.02 -0.04,0.02 -0.06,0.02 -0.04,0 -0.08,0 -0.12,0 -0.01,-0.03 -0.01,-0.07 -0.02,-0.1 0.22,-0.04 0.44,-0.04 0.66,-0.05zm1.04 0.15c-0,0.02 -0.01,0.03 -0.01,0.05 -0.04,-0 -0.08,-0 -0.12,-0 0,-0.02 0,-0.03 0,-0.05 0.02,0 0.04,0 0.05,0 0.03,0 0.05,0 0.08,0zm-0.18 -0.01c-0,0.02 -0,0.03 -0,0.05 -0.08,-0 -0.17,-0 -0.25,-0 0,-0.02 0,-0.03 0.01,-0.05 0.04,-0.01 0.09,-0.01 0.13,-0.01 0.04,-0 0.08,-0 0.12,0zm-0.3 0.01c-0,0.01 -0,0.02 -0,0.04 -0.29,0 -0.57,0.01 -0.86,0.01 -0.11,0 -0.21,0.01 -0.32,0.01 -0,-0.01 -0.01,-0.03 -0.01,-0.04 0.02,0 0.05,0 0.07,0 0.03,0 0.07,0.01 0.09,-0 0.04,-0.01 0.05,-0.04 0.05,-0.07 0.04,-0 0.08,-0 0.11,-0 0.02,-0 0.05,-0.01 0.06,0.01 0.01,0.01 0.01,0.02 0.01,0.03 0.01,0.01 0.02,0.01 0.04,0.01 0.02,0 0.05,-0 0.07,-0 0.05,-0 0.09,-0 0.14,-0 0.18,-0 0.37,-0 0.55,-0zm-0.91 0.1c0.12,-0 0.24,-0.01 0.37,-0.01 0.25,-0 0.49,-0 0.74,-0 0.13,0 0.26,0 0.39,0.01 -0,0.04 -0,0.09 -0,0.13 -0.2,-0 -0.39,-0 -0.59,-0 -0.1,0 -0.2,0 -0.31,0.01 -0.04,0 -0.09,0.01 -0.13,0 -0.02,-0 -0.04,-0.01 -0.04,-0.03 -0,-0.01 -0,-0.03 -0.01,-0.04 -0.01,-0.01 -0.04,-0.01 -0.05,-0.01 -0.03,-0 -0.06,-0 -0.08,0 -0.06,0 -0.11,0 -0.17,0 -0.01,-0 -0.02,0.01 -0.02,0.01 -0,0.02 -0,0.03 -0.01,0.05 -0,0 0,0.02 -0,0.02 -0,0 -0.02,0 -0.03,0 -0.04,0 -0.08,0 -0.12,0.01 -0.08,0 -0.15,0.01 -0.23,0.01 -0.01,-0.05 -0.02,-0.1 -0.03,-0.15 0.11,-0.01 0.22,-0.01 0.34,-0.01zm1.49 0.17c-0.01,0.11 -0.02,0.21 -0.04,0.32 -0.08,-0 -0.16,-0 -0.25,-0 -0.06,-0 -0.11,-0 -0.17,-0 -0.04,-0 -0.1,-0.01 -0.12,0.03 -0.02,0.05 -0.04,0.1 -0.06,0.15 -0,0.01 -0.01,0.02 -0.01,0.03 -0.01,0.01 -0.02,0.01 -0.03,0.01 -0.03,0 -0.06,0 -0.08,0 -0.11,0 -0.22,0 -0.33,-0 -0.03,-0 -0.05,-0 -0.08,-0 -0.02,-0 -0.04,-0 -0.05,-0.03 -0.02,-0.05 -0.04,-0.1 -0.07,-0.14 -0.03,-0.04 -0.08,-0.04 -0.12,-0.04 -0.05,-0 -0.11,-0 -0.16,-0 -0.05,-0 -0.11,-0 -0.16,0 -0.01,-0.1 -0.03,-0.19 -0.05,-0.29 0.09,0 0.18,-0 0.27,-0 0.02,-0 0.05,-0 0.07,-0 0.02,-0 0.03,0 0.05,-0.01 0.02,-0.01 0.03,-0.05 0.03,-0.08 0.04,-0 0.09,-0 0.13,-0 0.02,-0 0.05,-0 0.07,-0 0.01,-0 0.02,-0 0.03,0 0.01,0 0.01,-0 0.02,0 0.01,0 0.01,0 0.01,0.01 0,0.01 0,0.03 0.01,0.04 0.01,0.01 0.02,0.02 0.03,0.02 0.04,0.01 0.08,0.01 0.12,0 0.2,-0.01 0.4,-0.01 0.61,-0.01 0.11,0 0.22,0 0.33,0zm-2.05 0.32c0.03,-0.03 0.06,-0.05 0.08,-0.08 0.03,-0.03 0.06,-0.05 0.08,-0.08 0.02,-0.02 0.04,-0.03 0.05,-0.05 0.02,0.07 0.03,0.14 0.05,0.21 -0.04,0 -0.08,0 -0.13,0.01 -0.02,0 -0.04,0 -0.07,0.01 -0.02,0 -0.05,0 -0.07,0 -0.01,0 -0.01,0 -0.02,0 0.01,-0 0.01,-0.01 0.02,-0.01zm2.24 0.08c-0,0.01 -0,0.02 -0,0.03 -0,0.03 -0,0.05 -0.01,0.08 -0,0.05 -0.01,0.1 -0.02,0.15 -0,0.02 -0.01,0.04 -0.01,0.07 -0,0.02 -0.01,0.05 -0.02,0.07 -0.01,0.02 -0.03,0.02 -0.05,0.02 -0.03,0 -0.05,0.01 -0.08,0.01 -0.05,0 -0.1,0.01 -0.15,0.01 -0.1,0.01 -0.2,0.01 -0.3,0.01 -0.41,0.01 -0.82,0.04 -1.23,0.02 -0.1,-0 -0.2,-0.01 -0.3,-0.02 -0.02,-0 -0.03,-0.01 -0.04,-0.03 -0.01,-0.02 -0.01,-0.05 -0.02,-0.07 -0.01,-0.05 -0.02,-0.1 -0.03,-0.15 -0.01,-0.05 -0.01,-0.1 -0.01,-0.15 -0,-0.01 -0.01,-0.05 0.01,-0.06 0.01,-0 0.02,-0 0.02,-0 0.01,-0 0.03,-0 0.04,-0 0.03,-0 0.06,-0 0.09,-0.01 0.15,-0.01 0.31,-0.01 0.46,-0 0.02,0 0.05,0 0.07,0 0.01,0 0.03,-0 0.04,0 0.01,0 0.01,0.01 0.02,0.02 0.02,0.04 0.04,0.09 0.06,0.13 0.02,0.04 0.06,0.05 0.1,0.05 0.05,0 0.1,0 0.15,0.01 0.1,0 0.2,0 0.3,-0 0.04,-0 0.09,0 0.12,-0.04 0.02,-0.04 0.04,-0.09 0.05,-0.13 0.01,-0.02 0.01,-0.05 0.04,-0.06 0.03,-0 0.05,0 0.08,0 0.05,0 0.1,0 0.15,0 0.1,0 0.21,0.01 0.31,0.01 0.02,0 0.05,0 0.07,0l0.03 0c0.01,0 0.03,-0 0.04,0 0,0 0,0 0,0 -0,0 -0,0.01 -0,0.01z"/>
   <path class="fil8" d="M1.79 1.95c-0.01,-0.01 -0.03,-0.01 -0.05,-0.01 -0.08,0 -0.16,0 -0.23,0.01 -0.06,0 -0.13,0 -0.19,0.01 -0.02,0 -0.04,0.01 -0.05,0.03 -0.01,0.02 -0.01,0.04 -0.01,0.05 -0,0.02 0,0.04 0.01,0.05 0.01,0.01 0.03,0.02 0.05,0.02 0.14,0.02 0.28,0.02 0.41,0.01 0.04,-0 0.09,-0.01 0.11,-0.06 0.02,-0.06 -0,-0.09 -0.04,-0.11zm-0.01 0.12c-0.02,0.01 -0.04,0.01 -0.06,0.01 -0.07,0 -0.14,0.01 -0.21,0.01 -0.03,-0 -0.07,-0 -0.1,-0.01 -0.03,-0 -0.05,0 -0.08,-0.01 -0.02,-0.01 -0.04,-0.03 -0.03,-0.05 0.01,-0.03 0.04,-0.03 0.07,-0.03 0.13,-0 0.25,-0 0.38,-0.01 0,0 0.01,0 0.01,0 0.02,0 0.05,-0 0.05,0.03 0,0.02 -0,0.04 -0.02,0.05z"/>
   <g>
   </g>
   <g>
   </g>
   <g>
   </g>
   <g>
   </g>
   <g>
   </g>
   <g>
   </g>
   <g>
   </g>
   <g>
   </g>
   <g>
   </g>
   <g>
   </g>
   <g>
   </g>
   <g>
   </g>
   <g>
   </g>
   <g>
   </g>
   <g>
   </g>
  </g>
 </g>
</svg>
