<?xml version="1.0" encoding="UTF-8"?>
<!DOCTYPE svg PUBLIC "-//W3C//DTD SVG 1.1//EN" "http://www.w3.org/Graphics/SVG/1.1/DTD/svg11.dtd">
<!-- Creator: CorelDRAW 2020 (64-Bit) -->
<svg xmlns="http://www.w3.org/2000/svg" xml:space="preserve" width="10.713mm" height="8.6204mm" version="1.1" style="shape-rendering:geometricPrecision; text-rendering:geometricPrecision; image-rendering:optimizeQuality; fill-rule:evenodd; clip-rule:evenodd"
viewBox="0 0 18.01 14.49"
 xmlns:xlink="http://www.w3.org/1999/xlink"
 xmlns:xodm="http://www.corel.com/coreldraw/odm/2003">
 <defs>
  <style type="text/css">
   <![CDATA[
    .fil7 {fill:black;fill-rule:nonzero}
    .fil2 {fill:#5B5D6D;fill-rule:nonzero}
    .fil5 {fill:#5BD0FC;fill-rule:nonzero}
    .fil6 {fill:#CBE580;fill-rule:nonzero}
    .fil1 {fill:#D8DEEC;fill-rule:nonzero}
    .fil3 {fill:#ED6D66;fill-rule:nonzero}
    .fil4 {fill:#F0F2FA;fill-rule:nonzero}
    .fil0 {fill:#F9D889;fill-rule:nonzero}
   ]]>
  </style>
 </defs>
 <g id="Capa_x0020_1">
  <metadata id="CorelCorpID_0Corel-Layer"/>
  <polygon class="fil0" points="3.01,9.95 2.18,6.17 2.62,6.11 2.33,4.43 3.27,4.3 2.98,2.88 4.06,2.58 3.76,1.29 6.6,0.89 10.33,0.95 11.31,0.88 11.53,0.23 13.33,0.38 13.39,1.05 14.28,1.14 14.6,2.66 15.06,2.78 15,4.1 15.71,4.37 15.53,5.82 16.43,6.09 16,10.01 12.1,10.1 11.32,11.61 6.98,11.62 6.11,10.09 "/>
  <polygon class="fil1" points="0.23,10.26 0.3,12.26 0.87,13.99 8.31,14.24 14.77,13.96 17.29,13.75 17.71,10.31 17.3,9.57 16.33,8.61 16,10.01 12.1,10.1 11.32,11.61 6.98,11.62 6.11,10.09 3.01,9.95 2.4,7.99 "/>
  <path class="fil2" d="M8.97 12.34c-0.52,0.11 -1.57,-0.17 -1.77,0.51 -0.09,0.31 0.12,0.4 0.39,0.45 0.57,0.1 1.22,0.05 1.8,0.05 0.45,0 0.93,0 1.38,-0.08 0.29,-0.05 0.44,-0.15 0.49,-0.47 0.05,-0.35 -0.17,-0.4 -0.45,-0.42 -0.61,-0.05 -1.22,-0.05 -1.83,-0.04z"/>
  <path class="fil2" d="M2.3 8.02c-0.46,0.46 -0.97,0.88 -1.39,1.39 -0.17,0.2 -0.42,0.44 -0.49,0.7 0.44,0.06 0.97,-0.08 1.43,-0.07 0.35,0.01 0.7,0.01 1.05,-0.03 0.06,-0.42 -0.12,-0.91 -0.24,-1.31 -0.08,-0.25 -0.1,-0.59 -0.36,-0.69z"/>
  <path class="fil2" d="M16.31 8.75c-0.11,0.3 -0.12,0.65 -0.17,0.96 -0.02,0.15 -0.06,0.28 -0.05,0.43 0.47,0.03 0.96,0.09 1.43,0.07 0.04,-0.36 -0.22,-0.63 -0.48,-0.83 -0.27,-0.21 -0.43,-0.51 -0.72,-0.63z"/>
  <path class="fil3" d="M11.96 5.91c-0,-0.09 0,-0.17 0,-0.26 -0,-0.09 -0.09,-0.37 -0.04,-0.44 0.07,-0.1 0.56,-0.04 0.68,-0.04 0.41,-0.02 0.82,-0.01 1.23,-0.03 0.13,-0.01 0.26,-0.03 0.38,-0.01 0.04,0.12 0.01,0.32 0.01,0.45 0,0.08 0,0.17 0.01,0.25 -0.48,0.06 -0.97,0.09 -1.45,0.06 -0.3,-0.02 -0.59,-0.05 -0.82,0.01z"/>
  <path class="fil4" d="M11.93 4.06c0,-0.19 0.01,-0.38 0.02,-0.57 0.14,-0 0.26,-0 0.39,0.02 0.31,0.04 0.63,0.02 0.94,0.03 0.1,0 0.23,-0.03 0.29,0.03 0.08,0.08 0.06,0.45 0.03,0.55 -0.17,0 -0.33,-0.02 -0.51,-0 -0.43,0.03 -0.81,0.02 -1.17,-0.07z"/>
  <path class="fil5" d="M11.54 2.49c0.03,-0.12 0.03,-0.25 0.05,-0.38 0.01,-0.08 0,-0.26 0.06,-0.33 0.06,-0.08 0.26,-0.09 0.34,-0.1 0.45,-0.03 0.9,0.1 1.35,0.1 0.03,0.09 0.07,0.09 0.07,0.2 0.01,0.17 0.03,0.41 -0.01,0.57 -0.27,0.04 -0.57,-0.04 -0.84,-0.02 -0.34,0.02 -0.67,-0 -1.03,-0.03z"/>
  <path class="fil6" d="M13.16 0.28c-0.3,-0.09 -0.63,-0.11 -0.95,-0.11 -0.15,-0 -0.3,0.03 -0.46,0.04 -0.06,0 -0.17,-0.02 -0.22,0.01 -0.09,0.04 -0.08,0.12 -0.1,0.23 -0.03,0.17 -0.07,0.33 -0.07,0.5 0.07,0.02 0.16,0.01 0.24,0.01 0.25,0 0.49,0.02 0.73,0.06 0.31,0.05 0.61,0.07 0.92,0.07 0.05,0 0.23,0.04 0.26,-0.02 0.04,-0.08 -0.04,-0.29 -0.07,-0.37 -0.05,-0.14 -0.09,-0.26 -0.27,-0.42z"/>
  <path class="fil7" d="M17.99 10.29c0.01,-0.04 0.01,-0.08 -0.02,-0.13 -0.2,-0.36 -0.5,-0.67 -0.77,-0.98 -0.14,-0.16 -0.27,-0.31 -0.41,-0.47 -0.09,-0.1 -0.19,-0.21 -0.3,-0.3 0.09,-0.81 0.15,-1.63 0.17,-2.44 0,-0.12 -0.1,-0.22 -0.22,-0.22 -0.23,-0.01 -0.47,-0.01 -0.7,-0.01 0.09,-0.46 0.17,-0.91 0.24,-1.37 0.02,-0.15 -0.06,-0.26 -0.21,-0.27 -0.18,-0.02 -0.37,-0.04 -0.55,-0.05 0.05,-0.43 0.07,-0.87 0.05,-1.31 -0,-0.12 -0.09,-0.2 -0.21,-0.21 -0.11,-0.01 -0.22,-0.01 -0.33,-0.02 0.03,-0.41 -0.03,-0.86 -0.13,-1.25 -0.04,-0.16 -0.13,-0.27 -0.29,-0.31 -0.23,-0.06 -0.49,-0.05 -0.72,-0.07 0,-0.15 0.01,-0.31 -0.01,-0.45 -0.02,-0.11 -0.07,-0.2 -0.19,-0.24 -0.15,-0.05 -0.35,-0.04 -0.51,-0.06 -0.16,-0.02 -0.33,-0.04 -0.49,-0.06 -0.17,-0.02 -0.35,-0.04 -0.52,-0.05 -0.15,-0.01 -0.37,-0.04 -0.51,0.03 -0.1,0.05 -0.14,0.14 -0.15,0.25 -0,0.15 0,0.3 0.01,0.45 -0.19,-0.01 -0.38,-0.01 -0.56,-0.02 -1.9,-0.05 -3.84,-0.1 -5.73,0.12 -0.26,0.03 -0.52,0.07 -0.78,0.11 -0.21,0.03 -0.46,0.02 -0.56,0.25 -0.08,0.19 0.02,0.48 0.06,0.68 0.04,0.21 0.09,0.42 0.16,0.62 -0.06,0 -0.12,0.01 -0.17,0.01 -0.23,0.02 -0.46,0.06 -0.69,0.04 -0.12,-0.01 -0.24,0.12 -0.23,0.23 0.04,0.48 0.18,0.92 0.36,1.36 -0.24,0.03 -0.49,0.06 -0.73,0.09 -0.16,0.02 -0.23,0.12 -0.21,0.28 0.07,0.47 0.21,0.94 0.39,1.39 -0.13,-0 -0.26,-0 -0.39,-0.01 -0.16,-0.01 -0.25,0.15 -0.22,0.29 0.11,0.54 0.22,1.09 0.33,1.63 -0.23,0.19 -0.43,0.42 -0.64,0.63 -0.25,0.25 -0.49,0.5 -0.73,0.76 -0.22,0.24 -0.46,0.47 -0.66,0.73 -0.12,0.16 -0.21,0.32 -0.19,0.5 -0.05,0.35 -0.01,0.74 0.01,1.09 0.02,0.39 0.07,0.78 0.14,1.16 0.06,0.37 0.13,0.78 0.28,1.13 0.14,0.33 0.44,0.43 0.77,0.47 3.29,0.38 6.63,0.15 9.93,0.05 1.65,-0.05 3.31,-0.06 4.96,-0.19 0.34,-0.03 0.77,-0 1.08,-0.16 0.31,-0.16 0.39,-0.51 0.47,-0.82 0.2,-0.78 0.33,-1.6 0.34,-2.4 0,-0.15 0.01,-0.32 -0.02,-0.47zm-1.56 -1.43c0.15,0.2 0.32,0.39 0.47,0.58 0.11,0.15 0.23,0.3 0.35,0.45 -0.03,0 -0.06,0 -0.09,0l-0.67 -0.01c-0.07,-0 -0.13,-0 -0.2,-0 0.05,-0.34 0.1,-0.68 0.15,-1.03zm-2.12 -6.85c0.01,0.16 0.02,0.32 0.02,0.48 -0.24,-0.01 -0.48,-0.02 -0.72,-0.03 0.01,-0.16 0.01,-0.33 -0.01,-0.49 0.23,0.02 0.47,0.04 0.7,0.04zm-2.74 -1.54l0.01 -0.07c0,-0.01 0.01,-0.02 0.01,-0.03 0.04,0.01 0.14,0 0.14,0 0.24,0 0.47,0.03 0.7,0.05 0.22,0.03 0.44,0.05 0.66,0.08l0.07 0.01c0.03,0.01 0.05,0.02 0.06,0.02 0,0.02 0,0.04 0,0.06 0,0.08 0,0.16 0,0.24 -0.56,-0.04 -1.13,-0.07 -1.69,-0.1 0.01,-0.09 0.02,-0.18 0.04,-0.27zm-7.55 0.93c0.02,-0.06 0.13,-0.06 0.21,-0.08 0.09,-0.02 0.19,-0.03 0.29,-0.05 0.22,-0.03 0.45,-0.06 0.67,-0.08 0.83,-0.09 1.67,-0.12 2.51,-0.12 1.7,-0.01 3.41,0.02 5.11,0.13 0.23,0.02 0.47,0.03 0.7,0.05 0.11,0.01 0.22,0.02 0.33,0.03 0.09,0.01 0.3,-0.01 0.37,0.04 0,0 0,0 0.02,0.03 0.03,0.04 0.03,0.16 0.04,0.21 0.01,0.06 0.02,0.12 0.03,0.18 -0.01,-0.05 -1.99,-0.16 -2.17,-0.17 -0.13,-0.01 -0.27,-0.02 -0.39,0.02 -0.08,0.02 -0.14,0.06 -0.22,0.09 -0.1,0.03 -0.21,0.03 -0.31,0.04 -0.61,0.01 -1.21,0.03 -1.82,0.03 -0.74,0 -1.49,-0.01 -2.23,-0.03 -0.04,-0.25 -0.33,-0.37 -0.59,-0.37 -0.48,-0 -0.97,0.05 -1.45,0.02 -0.07,-0 -0.11,0.05 -0.14,0.1 -0.04,0.11 -0.07,0.23 -0.09,0.35 -0.26,0.03 -0.53,0.04 -0.79,0.06 -0.01,-0.05 -0.01,-0.11 -0.02,-0.16 -0.01,-0.07 -0.07,-0.24 -0.05,-0.31zm9.24 1.04c-0.51,-0.02 -1.03,-0.04 -1.54,-0.05 0.01,-0.17 -0.02,-0.46 0.17,-0.54 0.09,-0.04 0.18,-0.03 0.27,-0.02 0.21,0.01 0.43,0.03 0.64,0.04 0.04,0 0.08,0.01 0.12,0.01 0.08,0 0.15,0.01 0.22,0.04 0.09,0.04 0.12,0.09 0.12,0.18 -0,0.12 -0.02,0.23 -0,0.35zm-1.84 -0.06c-1.95,-0.05 -3.9,-0.05 -5.85,0.02 -0.44,0.01 -0.88,0.03 -1.32,0.06 -0.04,0 -0.08,0.01 -0.12,0.01 -0,-0.14 -0.02,-0.27 -0.03,-0.41 0.29,-0 0.59,-0.02 0.88,0 0.06,0 0.1,-0.04 0.12,-0.09 0.04,-0.11 0.08,-0.22 0.11,-0.33 0.28,-0.03 0.56,-0.02 0.83,-0.03 0.15,-0 0.95,-0.1 0.83,0.21 -0.03,0.08 0.05,0.17 0.13,0.17 0.79,0.02 1.58,0.02 2.37,0.02 0.68,-0.01 1.37,0 2.05,-0.05 -0,0.03 -0,0.06 -0.01,0.08 -0.01,0.12 -0.01,0.24 0,0.36zm-7.8 0.49c0.21,-0.03 0.42,-0.04 0.63,-0.06 0.38,-0.02 0.75,-0.04 1.13,-0.05 0.78,-0.02 1.57,-0.04 2.35,-0.04 1.56,-0.01 3.11,0.01 4.67,0.07 0.82,0.03 1.64,0.08 2.46,0.14 0.01,0.13 0.01,0.26 0.01,0.4 -0.53,0.01 -1.06,0.01 -1.59,0.01 -0.35,-0.04 -0.71,-0.06 -1.07,-0.04 -0.11,0 -0.25,-0.01 -0.36,0.04 -0.37,-0 -0.73,-0 -1.1,-0.01 -0.72,-0 -1.45,-0.01 -2.17,-0.02 -0.36,-0 -0.72,-0.01 -1.08,-0.01 -0.17,-0 -0.35,-0 -0.52,-0 -0.06,-0 -0.17,0.01 -0.22,-0.01 -0.08,-0.03 -0.08,-0.12 -0.13,-0.19 -0.06,-0.09 -0.17,-0.11 -0.27,-0.12 -0.19,-0.01 -0.38,0.01 -0.57,0.02 -0.42,0.02 -0.84,0.03 -1.27,0.03 -0.07,-0 -0.12,0.05 -0.14,0.11 -0.03,0.09 -0.06,0.18 -0.09,0.27 -0.33,0.04 -0.67,0.06 -1,0.1 -0.03,-0.19 -0.06,-0.38 -0.09,-0.57 0.14,-0.03 0.28,-0.04 0.41,-0.06zm11.25 0.7c-0.01,0.15 -0.02,0.3 -0.04,0.45 -0.32,-0.02 -0.65,-0.03 -0.97,-0.05 -0.01,-0.13 -0.02,-0.27 -0.03,-0.4 -0,-0 -0,-0.01 -0,-0.01 0.35,0 0.69,0.01 1.04,0.01zm-1.36 0.39c-0.13,-0 -0.26,-0.01 -0.39,-0.01 -0.36,-0.01 -0.72,-0.02 -1.07,-0.03 0,-0.09 0,-0.19 0.01,-0.26 0.01,0 0.03,-0 0.06,-0.01 0.05,-0 0.09,-0.01 0.14,-0.01 0.08,-0 0.16,-0.01 0.25,-0.01 0.33,-0 0.66,0.03 0.99,0.08 0.01,0.08 0.01,0.16 0.02,0.24zm-1.79 -0.04c-0.4,-0.01 -0.8,-0.01 -1.21,-0.01 -1.74,-0 -3.49,-0.02 -5.23,0.07 -0.62,0.03 -1.24,0.07 -1.86,0.13 -0.03,-0.14 -0.06,-0.28 -0.08,-0.42 0.36,-0.01 0.72,-0.03 1.08,-0.03 0.04,-0 0.1,-0.02 0.11,-0.07 0.04,-0.09 0.08,-0.19 0.12,-0.28 0.33,-0.03 0.65,-0.04 0.98,-0.05 0.17,-0.01 0.35,-0.01 0.52,-0.02 0.06,-0 0.17,-0.03 0.23,-0.01 0.09,0.03 0.09,0.12 0.14,0.18 0.15,0.21 0.48,0.15 0.71,0.15 0.36,-0 0.72,-0 1.08,-0 1.14,-0 2.27,0 3.41,-0 -0.02,0.11 -0,0.24 0.01,0.36zm-4.15 0.36c1.74,-0.02 3.48,-0.03 5.22,0.04 0.92,0.04 1.83,0.12 2.75,0.19 -0.02,0.2 -0.04,0.4 -0.07,0.61 -0.21,-0.01 -0.43,0.01 -0.64,0.02 -0.13,0.01 -0.27,0.01 -0.4,0.03 0,-0.01 0,-0.02 0,-0.03 0.01,-0.1 -0.09,-0.19 -0.19,-0.19 -0.4,-0.01 -0.79,-0.02 -1.19,-0.01 -0.37,0 -0.75,-0.02 -1.12,0.08 -0.08,0.02 -0.13,0.09 -0.14,0.17 -1.38,0 -2.77,-0 -4.15,-0.01 -0.35,-0 -0.7,-0 -1.04,-0 -0.17,-0 -0.36,0.02 -0.52,-0 -0.14,-0.02 -0.12,-0.15 -0.18,-0.26 -0.13,-0.24 -0.42,-0.18 -0.65,-0.18 -0.34,0.01 -0.68,0.03 -1.01,0.01 -0.08,-0.01 -0.15,0.07 -0.15,0.15 -0,0.11 0.01,0.23 -0.03,0.34 -0.06,0.17 -0.29,0.13 -0.43,0.14 -0.29,0.01 -0.59,0.02 -0.88,0.03 -0.05,-0.26 -0.1,-0.52 -0.14,-0.77 1.64,-0.29 3.31,-0.33 4.97,-0.35zm7.85 1.1c-0.02,0.12 -0.05,0.24 -0.07,0.35 -0.31,-0.01 -0.63,-0.01 -0.94,-0.01 0.01,-0.12 0.01,-0.24 0.02,-0.36 0.13,0.02 0.28,0.02 0.41,0.02 0.2,0.01 0.39,0.02 0.59,0zm-1.38 -0.05c-0.01,0.13 -0.02,0.26 -0.02,0.39 -0.64,-0.01 -1.28,-0.01 -1.91,-0.01 0.02,-0.11 0.04,-0.23 0.05,-0.34 0.31,-0.06 0.65,-0.04 0.96,-0.04 0.31,-0 0.61,-0 0.92,0zm-2.26 0.11c-0,0.09 -0,0.18 -0.01,0.28 -2.17,0 -4.33,0.04 -6.5,0.1 -0.81,0.02 -1.62,0.08 -2.43,0.09 -0.02,-0.1 -0.05,-0.21 -0.07,-0.31 0.18,0.01 0.37,0.01 0.55,0.02 0.22,0.01 0.49,0.05 0.71,-0 0.27,-0.07 0.36,-0.32 0.36,-0.56 0.28,-0.02 0.57,-0.02 0.85,-0.03 0.15,-0 0.37,-0.07 0.44,0.09 0.04,0.09 0.04,0.18 0.11,0.26 0.07,0.09 0.17,0.11 0.28,0.11 0.17,0.01 0.35,-0 0.52,-0 0.35,-0 0.7,-0 1.04,-0.01 1.38,-0.01 2.76,-0.02 4.14,-0.02zm-6.84 0.77c0.92,-0.03 1.85,-0.05 2.77,-0.06 1.86,-0.03 3.72,-0.03 5.58,-0 0.98,0.01 1.95,0.03 2.93,0.06 -0,0.34 -0.01,0.68 -0.03,1.01 -1.48,-0.03 -2.96,-0.03 -4.44,-0.01 -0.77,0.01 -1.54,0.03 -2.31,0.05 -0.33,0.01 -0.68,0.06 -1.01,0.02 -0.13,-0.02 -0.28,-0.05 -0.3,-0.2 -0.02,-0.11 -0.01,-0.23 -0.1,-0.32 -0.11,-0.1 -0.27,-0.08 -0.41,-0.08 -0.21,-0 -0.42,-0 -0.63,0 -0.43,0 -0.86,0.03 -1.29,0.01 -0.06,-0 -0.13,0.05 -0.14,0.11 -0.02,0.12 -0.03,0.24 -0.04,0.37 -0,0.04 0.01,0.14 -0.02,0.17 -0.03,0.03 -0.16,0.01 -0.2,0.01 -0.31,0.01 -0.63,0.03 -0.94,0.04 -0.57,0.03 -1.14,0.05 -1.71,0.11 -0.08,-0.39 -0.17,-0.78 -0.25,-1.17 0.84,-0.09 1.69,-0.09 2.54,-0.11zm11.23 1.28c-0.05,0.8 -0.14,1.6 -0.28,2.4 -0.62,-0.01 -1.24,-0.02 -1.87,-0.03 -0.42,-0.01 -0.85,-0.01 -1.27,-0.02 -0.32,-0 -0.73,-0.09 -0.9,0.24 -0.19,0.36 -0.33,0.75 -0.49,1.12 -0.02,0.06 -0.05,0.17 -0.1,0.21 -0.06,0.06 -0.17,0.04 -0.26,0.04 -0.21,0 -0.42,0.01 -0.63,0.02 -0.82,0.02 -1.65,0.01 -2.47,-0.02 -0.2,-0.01 -0.39,-0.02 -0.59,-0.03 -0.18,-0.01 -0.3,-0.03 -0.39,-0.2 -0.17,-0.35 -0.28,-0.75 -0.49,-1.07 -0.21,-0.32 -0.6,-0.27 -0.93,-0.29 -0.41,-0.02 -0.82,-0.03 -1.23,-0.03 -0.4,-0 -0.8,-0 -1.2,0.01 -0.1,-0.73 -0.24,-1.46 -0.39,-2.18 0.68,0.01 1.37,-0.01 2.05,-0.03 0.19,-0.01 0.37,-0.01 0.56,-0.02 0.11,-0 0.25,0.01 0.35,-0.05 0.18,-0.1 0.19,-0.4 0.19,-0.62 0.33,-0.03 0.67,-0.03 1,-0.03 0.18,-0 0.37,-0 0.55,-0 0.09,-0 0.17,0 0.26,0 0.04,0 0.09,-0.01 0.13,0 0.07,0.02 0.06,0.03 0.08,0.11 0.02,0.11 0.01,0.19 0.08,0.29 0.06,0.09 0.16,0.15 0.26,0.18 0.28,0.1 0.61,0.04 0.9,0.03 1.53,-0.05 3.05,-0.08 4.58,-0.07 0.83,0 1.66,0.01 2.49,0.03zm-15.49 2.39c0.21,-0.2 0.42,-0.4 0.63,-0.6 0.21,-0.2 0.42,-0.4 0.63,-0.61 0.13,-0.13 0.28,-0.26 0.41,-0.39 0.12,0.53 0.24,1.06 0.39,1.58 -0.32,0.01 -0.63,0.03 -0.95,0.05 -0.17,0.01 -0.34,0.03 -0.51,0.04 -0.18,0 -0.37,0.01 -0.55,0.02 -0.06,0 -0.11,0.01 -0.17,0.01 0.04,-0.04 0.08,-0.07 0.12,-0.11zm16.86 0.6c-0,0.08 -0.01,0.17 -0.01,0.25 -0.01,0.21 -0.02,0.41 -0.04,0.62 -0.03,0.38 -0.08,0.75 -0.16,1.12 -0.03,0.17 -0.07,0.33 -0.1,0.5 -0.04,0.16 -0.06,0.37 -0.15,0.51 -0.08,0.13 -0.24,0.14 -0.38,0.15 -0.19,0.02 -0.39,0.04 -0.59,0.06 -0.38,0.03 -0.76,0.05 -1.14,0.07 -0.76,0.04 -1.53,0.06 -2.29,0.08 -3.07,0.09 -6.16,0.26 -9.24,0.12 -0.75,-0.03 -1.53,-0.06 -2.28,-0.17 -0.16,-0.02 -0.25,-0.07 -0.32,-0.22 -0.07,-0.17 -0.1,-0.35 -0.15,-0.53 -0.09,-0.36 -0.16,-0.73 -0.21,-1.11 -0.05,-0.37 -0.07,-0.74 -0.08,-1.11 -0,-0.1 -0.04,-0.36 0.05,-0.43 0.04,-0.03 0.14,-0.02 0.18,-0.02 0.11,-0.01 0.22,-0.02 0.34,-0.03 0.23,-0.02 0.46,-0.04 0.69,-0.05 1.16,-0.05 2.32,-0.07 3.49,-0.02 0.19,0.01 0.37,0.02 0.56,0.03 0.08,0 0.19,-0.01 0.26,0.02 0.07,0.03 0.1,0.1 0.13,0.16 0.15,0.33 0.27,0.68 0.45,0.99 0.18,0.3 0.46,0.35 0.78,0.37 0.37,0.02 0.74,0.03 1.1,0.04 0.76,0.02 1.52,0.02 2.28,-0.01 0.32,-0.01 0.7,0.02 0.88,-0.3 0.16,-0.3 0.27,-0.65 0.4,-0.96 0.06,-0.14 0.1,-0.4 0.28,-0.42 0.19,-0.02 0.4,0.01 0.6,0.02 0.37,0.01 0.75,0.02 1.12,0.03 0.79,0.02 1.57,0.04 2.36,0.07 0.19,0.01 0.37,0.01 0.56,0.02l0.26 0.01c0.08,0 0.24,-0.02 0.31,0.01 0,0 0.01,0.01 0.02,0.01 -0,0.02 -0,0.08 -0,0.09z"/>
  <path class="fil7" d="M11.02 12.22c-0.11,-0.04 -0.24,-0.06 -0.39,-0.06 -0.59,0.01 -1.17,0.02 -1.75,0.05 -0.47,0.02 -0.95,0.01 -1.42,0.07 -0.15,0.02 -0.32,0.07 -0.4,0.2 -0.08,0.12 -0.09,0.27 -0.09,0.41 -0,0.14 0,0.3 0.1,0.41 0.09,0.09 0.22,0.11 0.34,0.13 1.03,0.14 2.08,0.13 3.12,0.06 0.32,-0.02 0.7,-0.1 0.82,-0.44 0.15,-0.43 -0.01,-0.72 -0.33,-0.83zm-0.11 0.88c-0.14,0.07 -0.3,0.08 -0.45,0.09 -0.53,0.04 -1.05,0.06 -1.58,0.05 -0.26,-0 -0.53,-0.01 -0.79,-0.04 -0.19,-0.03 -0.41,0.01 -0.6,-0.05 -0.15,-0.05 -0.27,-0.21 -0.23,-0.36 0.05,-0.19 0.3,-0.23 0.5,-0.24 0.94,-0.02 1.89,-0.03 2.83,-0.07 0.03,0 0.06,0 0.09,0.01 0.18,0.01 0.38,-0.02 0.39,0.21 0.01,0.16 -0,0.33 -0.16,0.41z"/>
 </g>
</svg>
