<?xml version="1.0" encoding="UTF-8"?>
<!DOCTYPE svg PUBLIC "-//W3C//DTD SVG 1.1//EN" "http://www.w3.org/Graphics/SVG/1.1/DTD/svg11.dtd">
<!-- Creator: CorelDRAW 2020 (64-Bit) -->
<svg xmlns="http://www.w3.org/2000/svg" xml:space="preserve" width="19.5722mm" height="19.5723mm" version="1.1" style="shape-rendering:geometricPrecision; text-rendering:geometricPrecision; image-rendering:optimizeQuality; fill-rule:evenodd; clip-rule:evenodd"
viewBox="0 0 4.12 4.12"
 xmlns:xlink="http://www.w3.org/1999/xlink"
 xmlns:xodm="http://www.corel.com/coreldraw/odm/2003">
 <defs>
  <style type="text/css">
   <![CDATA[
    .fil2 {fill:black}
    .fil8 {fill:#10BDE0}
    .fil4 {fill:#7C7C7C}
    .fil7 {fill:#C7C700}
    .fil1 {fill:#C8DEFE}
    .fil5 {fill:#C9DFFF}
    .fil0 {fill:#EBECF1}
    .fil3 {fill:yellow}
    .fil6 {fill:white}
   ]]>
  </style>
 </defs>
 <g id="Capa_x0020_1">
  <metadata id="CorelCorpID_0Corel-Layer"/>
  <circle class="fil0" cx="2.06" cy="2.06" r="2.06"/>
  <g id="_2730291007600">
   <path class="fil1" d="M1.99 1.48l0.41 0 -0.01 0 0 0.09 -0.4 0 -0 -0.09zm-1.11 0l0.53 0 0 0.09 -0.01 0 -0.52 0 -0 -0.09zm0 -0.18l0.09 0 1.41 0 0 0.09 -1.5 0 0 -0.09zm0.49 -0.27l0.01 0 0.75 0 -0.01 0 0 0.09 -0.75 0 0 -0.09zm0.75 2.26l0.12 0c-0.01,-0.02 -0.03,-0.04 -0.03,-0.08l-0 -1.24c0,-0.18 0.18,-0.14 0.31,-0.14l0 -0.09 -0.04 0 0 -0.97 -1.24 0c-0,0.07 -0,0.15 -0,0.22 0,0.07 0.01,0.15 -0.03,0.19 -0.04,0.04 -0.13,0.03 -0.19,0.03 -0.07,0 -0.15,0 -0.22,0l0 2.03 0.09 0c0,-0.05 -0,-0.13 0,-0.18 0.01,-0.06 0.08,-0.04 0.13,-0.04l0 -0.13c-0.16,0 -0.13,-0 -0.13,-0.15 0,-0.15 -0.02,-0.15 0.13,-0.15 0,-0.21 -0.02,-0.22 0.09,-0.22 0.08,0 0.24,0.01 0.31,-0 -0.03,-0.03 -0.02,-0.01 -0.08,-0.08 -0.22,-0.28 -0.02,-0.7 0.34,-0.71 0.21,-0 0.36,0.13 0.42,0.29 0.04,0.1 0.04,0.2 0,0.3 -0.02,0.06 -0.06,0.12 -0.1,0.16 -0.02,0.02 -0.03,0.02 -0.05,0.04 0.02,0.02 0.04,0.01 0.04,0.07 0,0.27 0.02,0.24 -0.13,0.24l0 0.13c0.16,0 0.13,0 0.13,0.15 0,0.15 0.02,0.15 -0.13,0.15l0 0.13 0.27 0 0 0.04z"/>
   <path class="fil2" d="M0.97 3.12l0.8 0 0 0.13 -0.8 0 0 -0.13zm0.13 -0.22l0.8 0 0 0.13 -0.8 0 0 -0.13zm-0.13 -0.22l0.8 0 0 0.13 -0.8 0 0 -0.13zm0.13 -0.22l0.8 0 0 0.13 -0.8 0 0 -0.13zm0.54 -0.79c0.21,-0.03 0.36,0.13 0.39,0.31 0.03,0.21 -0.13,0.37 -0.31,0.39 -0.2,0.02 -0.37,-0.14 -0.39,-0.31 -0.02,-0.18 0.11,-0.37 0.31,-0.39zm-0.49 -0.82l0 0.02 0 0.27 -0.27 0 -0.02 -0 0.29 -0.29zm0.97 2.46l0 -0.04 -0.27 0 0 -0.13c0.16,0 0.13,-0 0.13,-0.15 0,-0.15 0.02,-0.15 -0.13,-0.15l0 -0.13c0.15,0 0.13,0.03 0.13,-0.24 -0,-0.07 -0.02,-0.06 -0.04,-0.07 0.02,-0.02 0.03,-0.02 0.05,-0.04 0.04,-0.05 0.08,-0.1 0.1,-0.16 0.04,-0.1 0.03,-0.2 -0,-0.3 -0.05,-0.15 -0.21,-0.29 -0.42,-0.29 -0.37,0 -0.56,0.43 -0.34,0.71 0.06,0.08 0.05,0.05 0.08,0.08 -0.07,0.01 -0.23,0 -0.31,0 -0.11,-0 -0.09,0.01 -0.09,0.22 -0.16,0 -0.13,0 -0.13,0.15 0,0.15 -0.02,0.15 0.13,0.15l0 0.13c-0.06,0 -0.12,-0.02 -0.13,0.04 -0.01,0.05 -0,0.13 -0,0.18l-0.09 0 0 -2.03c0.07,0 0.15,0 0.22,0 0.07,0 0.15,0.01 0.19,-0.03 0.04,-0.04 0.03,-0.13 0.03,-0.19 0,-0.07 0,-0.15 0,-0.22l1.24 0 -0 0.97 0.04 0 0.04 0c0,-0.29 0,-0.58 0,-0.87 0,-0.08 0.01,-0.14 -0.04,-0.17 -0.04,-0.02 -0.15,-0.01 -0.21,-0.01l-1.09 -0c-0.07,-0 -0.06,0.01 -0.14,0.08l-0.33 0.33c-0.07,0.07 -0.06,0.04 -0.06,0.16 0,0.65 0,1.31 -0,1.96 -0,0.04 0,0.06 0.02,0.09 0.02,0.02 0.04,0.03 0.08,0.03l1.31 -0 -0 -0.04z"/>
   <path class="fil2" d="M2.83 2.9l0.44 0 0 0.29c0,0.05 -0.02,0.06 -0.06,0.06l-0.38 0 0 -0.35zm-0.53 0l0.44 0 0 0.35 -0.38 0c-0.05,0 -0.06,-0.02 -0.06,-0.06l0 -0.29zm0.53 -0.44l0.44 0 0 0.35 -0.44 0 0 -0.35zm-0.53 0l0.44 0 0 0.35 -0.44 0 0 -0.35zm-0 -0.47c0,-0.05 0.02,-0.06 0.06,-0.06l0.85 0c0.05,0 0.06,0.02 0.06,0.06l-0 0.38 -0.97 0 0 -0.38zm-0.05 1.31c0.06,0.05 0.06,0.04 0.17,0.04l0.66 0c0.06,0 0.16,0.01 0.21,-0.01 0.05,-0.02 0.08,-0.07 0.08,-0.14l0 -1.21c0,-0.06 -0.02,-0.11 -0.08,-0.14 -0.04,-0.02 -0.27,-0.01 -0.32,-0.01 -0.15,0 -0.29,-0 -0.44,0 -0.13,0 -0.3,-0.03 -0.31,0.14l0 1.24c0,0.03 0.02,0.05 0.03,0.08z"/>
   <path class="fil3" d="M1.64 1.75l0.09 0 0 0.04 0.09 0 0 0.09 -0.12 0c-0.07,0 -0.07,0.07 -0.03,0.08 0.02,0.01 0.04,0.01 0.07,0.02 0.02,0.01 0.03,0.02 0.05,0.04 0.1,0.12 -0.06,0.21 -0.06,0.22l0 0.04 -0.09 0 0 -0.04 -0.09 0 -0 -0.09 0.12 0c0.07,0 0.07,-0.07 0.03,-0.08 -0.02,-0.01 -0.04,-0.01 -0.07,-0.02 -0.02,-0.01 -0.03,-0.02 -0.05,-0.04 -0.03,-0.03 -0.04,-0.08 -0.02,-0.13 0.03,-0.07 0.08,-0.06 0.08,-0.1l0 -0.03zm0.01 -0.08c-0.21,0.03 -0.34,0.21 -0.31,0.39 0.02,0.17 0.19,0.33 0.39,0.31 0.18,-0.02 0.33,-0.18 0.31,-0.39 -0.02,-0.18 -0.18,-0.34 -0.39,-0.31z"/>
   <path class="fil2" d="M2.83 0.77l0.09 0 0 0.09 -0.09 0 0 -0.09zm-0.09 0.97l0 -0.8 0.27 0 0 0.8 0.09 0 0 -0.75 0.09 0 0 0.57 0.09 0c0,-0.14 0,-0.28 0,-0.42 0,-0.23 0.02,-0.24 -0.18,-0.24 -0,-0.05 -0.04,-0.04 -0.09,-0.04 0,-0.19 0.02,-0.18 -0.13,-0.18 -0.16,0 -0.13,-0.01 -0.13,0.18 -0.11,0 -0.09,0 -0.09,0.15l0 0.73 0.09 0z"/>
   <path class="fil4" d="M2.39 2.24c-0.01,-0.02 -0,-0.1 -0,-0.13 -0,-0.13 0,-0.1 0.3,-0.1l0.4 -0c0.12,-0 0.1,0.01 0.1,0.17 0,0.04 0.01,0.09 -0.03,0.1 -0.03,0.01 -0.57,0 -0.66,0 -0.04,0 -0.09,0.01 -0.1,-0.03zm-0.09 -0.26l0 0.38 0.97 0 0 -0.38c0,-0.05 -0.02,-0.06 -0.06,-0.06l-0.85 0c-0.05,0 -0.06,0.02 -0.06,0.06z"/>
   <polygon class="fil5" points="2.74,1.75 3.01,1.75 3.01,0.95 2.74,0.95 "/>
   <path class="fil2" d="M2.48 2.1l0.62 0 0 0.09 -0.62 0 0 -0.09zm-0.09 0.14c0.01,0.04 0.06,0.03 0.1,0.03 0.1,-0 0.63,0 0.66,-0 0.04,-0.01 0.04,-0.05 0.03,-0.1 -0,-0.16 0.02,-0.17 -0.1,-0.17l-0.4 0c-0.29,0 -0.3,-0.03 -0.3,0.1 0,0.03 -0,0.11 0,0.13z"/>
   <path class="fil6" d="M2.92 2.59l0.27 0 0 0.09 -0.27 0 0 -0.09zm-0.09 0.22l0.44 0 0 -0.35 -0.44 0 0 0.35z"/>
   <polygon class="fil2" points="0.89,1.39 2.39,1.39 2.39,1.3 0.97,1.3 0.89,1.3 "/>
   <path class="fil6" d="M3.01 3.14l0.09 0 0 0.04 -0.09 0 0 -0.04zm-0.09 -0.11l0.27 0 0 0.09 -0.27 0 0 -0.09zm0.09 -0.07l0.09 0 0 0.04 -0.09 0 0 -0.04zm-0.18 0.29l0.38 0c0.05,0 0.06,-0.02 0.06,-0.06l0 -0.29 -0.44 0 0 0.35z"/>
   <path class="fil6" d="M2.48 2.5l0.09 0 0 0.09 0.09 0 0 0.09 -0.09 0 0 0.09 -0.09 0 0 -0.09 -0.09 0 0 -0.09 0.09 0 0 -0.09zm-0.18 0.31l0.44 0 0 -0.35 -0.44 0 0 0.35z"/>
   <path class="fil6" d="M2.4 3.01l0.06 -0.05c0.03,0.01 0.04,0.04 0.07,0.06 0.03,-0.02 0.04,-0.05 0.07,-0.06l0.05 0.06c-0.01,0.03 -0.04,0.04 -0.06,0.07 0.02,0.03 0.05,0.04 0.06,0.07l-0.06 0.05c-0.03,-0.01 -0.04,-0.04 -0.07,-0.06 -0.03,0.02 -0.04,0.04 -0.07,0.06l-0.05 -0.06c0.01,-0.03 0.04,-0.04 0.06,-0.07 -0.01,-0.02 -0.03,-0.03 -0.04,-0.05 -0,-0.01 -0.02,-0.02 -0.02,-0.02zm-0.1 0.18c0,0.05 0.02,0.06 0.06,0.06l0.38 0 0 -0.35 -0.44 0 0 0.29z"/>
   <polygon class="fil3" points="1.11,3.03 1.9,3.03 1.9,2.9 1.11,2.9 "/>
   <polygon class="fil3" points="1.11,2.59 1.9,2.59 1.9,2.45 1.11,2.45 "/>
   <polygon class="fil7" points="0.97,2.81 1.77,2.81 1.77,2.67 0.97,2.67 "/>
   <polygon class="fil7" points="0.97,3.25 1.77,3.25 1.77,3.12 0.97,3.12 "/>
   <path class="fil2" d="M1.64 1.78c0,0.04 -0.05,0.03 -0.08,0.1 -0.02,0.05 -0,0.1 0.02,0.13 0.01,0.01 0.02,0.03 0.05,0.04 0.03,0.01 0.05,0.01 0.07,0.02 0.04,0.02 0.04,0.08 -0.03,0.08l-0.12 0 0 0.09 0.09 0 0 0.04 0.09 0 -0 -0.04c0,-0.01 0.15,-0.1 0.06,-0.22 -0.01,-0.01 -0.02,-0.03 -0.05,-0.04 -0.03,-0.01 -0.05,-0.01 -0.07,-0.02 -0.04,-0.02 -0.04,-0.08 0.03,-0.08l0.12 0 -0 -0.09 -0.09 0 -0 -0.04 -0.09 0 0 0.03z"/>
   <polygon class="fil2" points="1.37,1.13 2.12,1.13 2.12,1.04 2.14,1.04 1.38,1.04 1.37,1.04 "/>
   <polygon class="fil8" points="2.48,2.19 3.1,2.19 3.1,2.1 2.48,2.1 "/>
   <polygon class="fil2" points="0.89,1.57 1.41,1.57 1.42,1.57 1.42,1.48 0.89,1.48 "/>
   <polygon class="fil8" points="0.86,1.12 0.89,1.13 1.15,1.13 1.15,0.86 1.15,0.84 "/>
   <path class="fil2" d="M2.45 3.2c0.03,-0.01 0.04,-0.04 0.07,-0.06 0.03,0.02 0.04,0.04 0.07,0.06l0.06 -0.05c-0.01,-0.03 -0.04,-0.04 -0.06,-0.07 0.02,-0.03 0.04,-0.04 0.06,-0.07l-0.05 -0.06c-0.03,0.01 -0.04,0.04 -0.07,0.06 -0.03,-0.02 -0.04,-0.05 -0.07,-0.06l-0.06 0.05c0,0 0.01,0.02 0.02,0.02 0.01,0.02 0.03,0.03 0.04,0.05 -0.02,0.03 -0.05,0.04 -0.06,0.07l0.05 0.06z"/>
   <polygon class="fil2" points="2.48,2.59 2.39,2.59 2.39,2.67 2.48,2.67 2.48,2.76 2.57,2.76 2.57,2.67 2.65,2.67 2.65,2.59 2.57,2.59 2.57,2.5 2.48,2.5 "/>
   <polygon class="fil2" points="1.99,1.57 2.39,1.57 2.39,1.48 2.4,1.48 1.99,1.48 "/>
   <polygon class="fil2" points="2.92,2.67 3.19,2.67 3.19,2.59 2.92,2.59 "/>
   <polygon class="fil2" points="2.92,3.12 3.19,3.12 3.19,3.03 2.92,3.03 "/>
   <polygon class="fil8" points="2.83,0.86 2.92,0.86 2.92,0.77 2.83,0.77 "/>
   <polygon class="fil2" points="3.01,3.01 3.1,3.01 3.1,2.96 3.01,2.96 "/>
   <polygon class="fil2" points="3.01,3.18 3.1,3.18 3.1,3.14 3.01,3.14 "/>
  </g>
 </g>
</svg>
