<svg id="Capa_1" data-name="Capa 1" xmlns="http://www.w3.org/2000/svg" viewBox="0 0 300 300"><defs><style>.cls-1{fill:#58595b;}.cls-2{fill:#414042;}.cls-3{fill:#9bc9ff;}.cls-4{fill:#ed1c24;}.cls-5{fill:#f15a29;}.cls-6{fill:#ff9811;}</style></defs><title>Iconos_finales</title><g id="Dept"><circle class="cls-1" cx="121.809" cy="178.183" r="88.648"/><path class="cls-2" d="M121.809,89.535c-2.014,0-4.029.093-6.044.23a88.623,88.623,0,0,1,0,176.836c2.015.137,4.03.23,6.044.23a88.648,88.648,0,0,0,0-177.3Z"/><path class="cls-3" d="M122.015,174.153A12.14,12.14,0,0,1,110.4,157.991a11.767,11.767,0,0,1,7.33-7.333,12.148,12.148,0,0,1,15.432,7.253,6.146,6.146,0,0,0,5.722,4.154h0a6.092,6.092,0,0,0,5.661-8.232A24.093,24.093,0,0,0,129.868,139.3v-5.44a8.059,8.059,0,1,0-16.118,0v5.44a24.648,24.648,0,0,0-11.786,37.3,22,22,0,0,0,19.64,9.639A12.136,12.136,0,0,1,133.221,202.4a11.786,11.786,0,0,1-7.487,7.39,12.145,12.145,0,0,1-15.276-7.306,6.144,6.144,0,0,0-5.721-4.154h0a6.092,6.092,0,0,0-5.662,8.232A24.1,24.1,0,0,0,113.75,221.1v5.44a8.059,8.059,0,0,0,16.118,0V221.1a24.646,24.646,0,0,0,11.786-37.3A22,22,0,0,0,122.015,174.153Z"/><path class="cls-4" d="M109.721,65.358v8.059H133.9V65.358a8.059,8.059,0,0,0-8.059-8.058H117.78A8.059,8.059,0,0,0,109.721,65.358Z"/><polygon class="cls-5" points="254.785 36.363 242.693 41.182 230.6 36.359 228.731 49.241 218.516 57.3 228.731 65.358 230.6 78.237 242.693 73.417 242.693 57.3 242.693 73.417 254.785 78.237 256.655 65.358 266.869 57.3 256.655 49.241 254.785 36.363"/><path class="cls-6" d="M122.015,174.153A12.14,12.14,0,0,1,110.4,157.991a11.767,11.767,0,0,1,7.33-7.333,12.148,12.148,0,0,1,15.432,7.253,6.146,6.146,0,0,0,5.722,4.154h0a6.092,6.092,0,0,0,5.661-8.232A24.093,24.093,0,0,0,129.868,139.3v-5.44a8.059,8.059,0,1,0-16.118,0v5.44a24.648,24.648,0,0,0-11.786,37.3,22,22,0,0,0,19.64,9.639A12.136,12.136,0,0,1,133.221,202.4a11.786,11.786,0,0,1-7.487,7.39,12.145,12.145,0,0,1-15.276-7.306,6.144,6.144,0,0,0-5.721-4.154h0a6.092,6.092,0,0,0-5.662,8.232A24.1,24.1,0,0,0,113.75,221.1v5.44a8.059,8.059,0,0,0,16.118,0V221.1a24.646,24.646,0,0,0,11.786-37.3A22,22,0,0,0,122.015,174.153Z"/><path class="cls-2" d="M151.273,94.572l-5.287-21.155H97.633L92.346,94.572A88.691,88.691,0,0,1,151.273,94.572Z"/><path d="M109.721,133.859V136.6a28.369,28.369,0,0,0-14.478,15.973,30,30,0,0,0,3.284,26.131,25.843,25.843,0,0,0,23.145,11.564,7.763,7.763,0,0,1,6.641,3.32,8.061,8.061,0,0,1,1.088,7.531,7.766,7.766,0,0,1-4.9,4.836,8.1,8.1,0,0,1-10.255-4.864,10.073,10.073,0,1,0-19.132,6.314c.059.181.124.359.194.536A27.939,27.939,0,0,0,109.721,223.8v2.736a12.089,12.089,0,0,0,24.177,0v-2.744a28.351,28.351,0,0,0,14.477-15.973,30,30,0,0,0-3.284-26.131,26.11,26.11,0,0,0-23.145-11.564,8.11,8.11,0,0,1-7.728-10.851,7.743,7.743,0,0,1,4.791-4.795,8.058,8.058,0,0,1,10.347,4.778l.021.057A10.073,10.073,0,1,0,148.509,153c-.06-.181-.124-.359-.194-.536A27.941,27.941,0,0,0,133.9,136.6v-2.736a12.089,12.089,0,0,0-24.177,0Zm16.118,0v5.44a4.028,4.028,0,0,0,2.708,3.8,20.207,20.207,0,0,1,12.213,12.089,2.167,2.167,0,0,1-.25,1.99,1.945,1.945,0,0,1-1.612.842,2.142,2.142,0,0,1-1.942-1.515,16.2,16.2,0,0,0-20.5-9.67,15.715,15.715,0,0,0-9.864,9.876,16.167,16.167,0,0,0,15.489,21.469A17.976,17.976,0,0,1,138.2,185.9a22.136,22.136,0,0,1,2.567,19.213,20.181,20.181,0,0,1-12.246,12.181,4.028,4.028,0,0,0-2.683,3.8v5.44a4.03,4.03,0,1,1-8.059,0V221.1a4.028,4.028,0,0,0-2.708-3.8A20.2,20.2,0,0,1,102.859,205.2a2.167,2.167,0,0,1,.25-1.99,1.945,1.945,0,0,1,1.612-.842,2.15,2.15,0,0,1,1.946,1.519,16.222,16.222,0,0,0,20.3,9.751,15.718,15.718,0,0,0,10.074-9.945,16.141,16.141,0,0,0-2.229-14.848,16.4,16.4,0,0,0-13.281-6.637,18.026,18.026,0,0,1-16.117-7.716,22.123,22.123,0,0,1-2.567-19.208A20.175,20.175,0,0,1,115.1,143.1a4.029,4.029,0,0,0,2.684-3.8v-5.44a4.03,4.03,0,0,1,8.059,0Z"/><path d="M269.364,54.136l-8.942-7.063-1.64-11.283a4.032,4.032,0,0,0-5.48-3.163l-10.609,4.215-10.6-4.223a4.032,4.032,0,0,0-5.48,3.163l-1.636,11.283-8.953,7.071a4.03,4.03,0,0,0,0,6.327l8.941,7.063,1.64,11.283a4.028,4.028,0,0,0,5.48,3.163l6.58-2.611V89.535a12.088,12.088,0,0,1-12.088,12.088H206.428a12.088,12.088,0,0,1-12.089-12.088V49.241a20.171,20.171,0,0,0-20.147-20.148H137.927A20.172,20.172,0,0,0,117.78,49.241V53.27a12.088,12.088,0,0,0-12.088,12.088v4.03H97.633a4.029,4.029,0,0,0-3.909,3.05L88.945,91.55a92.678,92.678,0,1,0,65.728,0L149.9,72.438a4.03,4.03,0,0,0-3.909-3.05h-8.059v-4.03A12.088,12.088,0,0,0,125.839,53.27V49.241a12.088,12.088,0,0,1,12.088-12.089h36.265A12.088,12.088,0,0,1,186.28,49.241V89.535a20.171,20.171,0,0,0,20.148,20.147h20.147a20.171,20.171,0,0,0,20.147-20.147V79.361l6.572,2.619a3.977,3.977,0,0,0,1.487.3,4.029,4.029,0,0,0,3.989-3.449l1.636-11.283,8.953-7.063a4.027,4.027,0,0,0,0-6.326ZM206.428,178.183a84.619,84.619,0,1,1-84.619-84.618A84.619,84.619,0,0,1,206.428,178.183ZM145.635,88.624a92.577,92.577,0,0,0-47.652,0l2.8-11.177h42.059ZM129.868,65.358v4.03H113.75v-4.03a4.03,4.03,0,0,1,4.03-4.029h8.059A4.029,4.029,0,0,1,129.868,65.358ZM254.16,62.191a4.033,4.033,0,0,0-1.49,2.587l-1.137,7.833-4.811-1.926V57.3a4.03,4.03,0,1,0-8.059,0V70.685L233.852,72.6l-1.136-7.825a4.034,4.034,0,0,0-1.491-2.587l-6.2-4.891,6.2-4.892a4.034,4.034,0,0,0,1.491-2.587l1.136-7.833,7.35,2.929a4.053,4.053,0,0,0,2.982,0l7.349-2.929,1.137,7.825a4.033,4.033,0,0,0,1.49,2.587l6.2,4.9Z"/></g></svg>