<svg height="512pt" viewBox="0 0 512 512" width="512pt" xmlns="http://www.w3.org/2000/svg"><path d="m195.882812 355.34375c-14.898437-10.769531-28.460937-24.332031-39.230468-39.230469-2.578125-3.558593-6.574219-5.816406-10.957032-6.167969-4.628906-.308593-8.714843 1.230469-11.804687 4.351563l-33.21875 33.21875-4.597656 37.773437 25.894531 25.894532 42.519531.132812 33.210938-33.210937c3.105469-3.105469 4.703125-7.425781 4.351562-11.808594-.351562-4.378906-2.609375-8.375-6.167969-10.953125zm0 0" fill="#465a61"/><path d="m57.300781 512c-3.839843 0-7.675781-1.464844-10.605469-4.394531l-42.304687-42.304688c-5.84375-5.84375-5.859375-15.335937-.015625-21.195312l96.304688-96.632813 63.84375 63.84375-96.632813 96.304688c-2.929687 2.914062-6.765625 4.378906-10.589844 4.378906zm0 0" fill="#ff7816"/><path d="m301.996094 0c-115.800782 0-210 94.199219-210 210 0 45.300781 14.097656 87.898438 40.199218 123.601562 12.902344 17.699219 28.5 33.296876 45.902344 45.898438 36 26.398438 78.597656 40.5 123.898438 40.5 115.800781 0 210-94.199219 210-210s-94.199219-210-210-210zm0 0" fill="#697c86"/><path d="m511.996094 210c0 115.800781-94.199219 210-210 210v-420c115.800781 0 210 94.199219 210 210zm0 0" fill="#596c76"/><path d="m301.996094 60c-82.800782 0-150 67.199219-150 150s67.199218 150 150 150c82.800781 0 150-67.199219 150-150s-67.199219-150-150-150zm0 0" fill="#fdbf00"/><path d="m372.496094 190.5-75 75c-2.699219 3-6.601563 4.5-10.5 4.5-3.898438 0-7.800782-1.5-10.5-4.5l-45-45c-6-5.699219-6-15.300781 0-21 5.699218-6 15.296875-6 21 0l34.5 34.199219 15-15 49.5-49.199219c5.703125-6 15.300781-6 21 0 6 5.699219 6 15.300781 0 21zm0 0" fill="#596c76"/><path d="m451.996094 210c0 82.800781-67.199219 150-150 150v-300c82.800781 0 150 67.199219 150 150zm0 0" fill="#ff9f00"/><path d="m372.496094 190.5-70.5 70.5v-42.300781l49.5-49.199219c5.699218-6 15.296875-6 21 0 6 5.699219 6 15.300781 0 21zm0 0" fill="#465a61"/></svg>