<?xml version="1.0" encoding="UTF-8"?>
<!DOCTYPE svg PUBLIC "-//W3C//DTD SVG 1.1//EN" "http://www.w3.org/Graphics/SVG/1.1/DTD/svg11.dtd">
<!-- Creator: CorelDRAW 2020 (64-Bit) -->
<svg xmlns="http://www.w3.org/2000/svg" xml:space="preserve" width="13.4277mm" height="6.8204mm" version="1.1" style="shape-rendering:geometricPrecision; text-rendering:geometricPrecision; image-rendering:optimizeQuality; fill-rule:evenodd; clip-rule:evenodd"
viewBox="0 0 86.96 44.17"
 xmlns:xlink="http://www.w3.org/1999/xlink"
 xmlns:xodm="http://www.corel.com/coreldraw/odm/2003">
 <defs>
  <style type="text/css">
   <![CDATA[
    .fil0 {fill:white}
   ]]>
  </style>
 </defs>
 <g id="Capa_x0020_1">
  <metadata id="CorelCorpID_0Corel-Layer"/>
  <path class="fil0" d="M86.96 22.09c0,0 -40.27,-49.69 -86.96,0 46.69,49.69 86.96,0 86.96,0zm-42.94 -17.13c9.88,0 17.88,8.01 17.88,17.88 0,9.88 -8.01,17.88 -17.88,17.88 -9.88,0 -17.88,-8.01 -17.88,-17.88 0,-9.88 8.01,-17.88 17.88,-17.88zm0 4.93c1.95,0 3.8,0.43 5.45,1.2 -1.91,1.35 -3.15,3.57 -3.15,6.08 0,4.11 3.33,7.44 7.44,7.44 1.13,0 2.21,-0.26 3.17,-0.71 -0.54,6.66 -6.12,11.9 -12.92,11.9 -7.16,0 -12.96,-5.8 -12.96,-12.96 0,-7.16 5.8,-12.96 12.96,-12.96z"/>
  <path class="fil0" d="M44.03 9.88c1.95,0 3.8,0.43 5.45,1.2 -1.91,1.35 -3.15,3.57 -3.15,6.08 0,4.11 3.33,7.44 7.44,7.44 1.13,0 2.21,-0.26 3.17,-0.71 -0.54,6.66 -6.12,11.9 -12.92,11.9 -7.16,0 -12.96,-5.8 -12.96,-12.96 0,-7.16 5.8,-12.96 12.96,-12.96z"/>
 </g>
</svg>
