<svg width="1280" height="662" xmlns="http://www.w3.org/2000/svg" version="1.0" preserveAspectRatio="xMidYMid meet">
 <metadata>Created by potrace 1.15, written by Peter Selinger 2001-2017</metadata>

 <g>
  <title>Layer 1</title>
  <g transform="translate(0 662) scale(0.1 -0.1)" fill="#000000" id="svg_1">
   <path d="m6330,6609c-1718,-102 -3518,-884 -5200,-2260c-336,-274 -685,-593 -956,-873l-173,-178l91,-99c144,-156 523,-517 803,-764c1394,-1232 2845,-2012 4275,-2299c486,-97 816,-130 1320,-130c383,-1 517,7 845,49c1372,176 2726,781 3982,1781c517,411 1037,915 1406,1362l78,93l-27,32c-463,555 -984,1081 -1491,1504c-1537,1283 -3211,1885 -4953,1782zm464,-584c362,-42 679,-139 1002,-304c957,-491 1538,-1464 1501,-2511c-22,-585 -223,-1125 -593,-1590c-87,-109 -314,-336 -424,-424c-403,-322 -876,-525 -1410,-607c-214,-33 -590,-33 -810,0c-560,83 -1055,305 -1470,656c-119,101 -310,302 -403,423c-298,389 -481,840 -542,1332c-30,243 -15,583 35,831c237,1162 1221,2047 2440,2193c160,19 514,20 674,1z" id="svg_2" fill="#ffffff"/>
   <path d="m6325,4819c-557,-58 -1040,-395 -1274,-889c-180,-380 -196,-802 -47,-1188c166,-430 522,-771 959,-917c203,-68 276,-79 527,-79c212,0 232,1 345,28c147,34 230,64 360,126c437,210 750,611 852,1090c28,130 25,469 -4,600c-58,259 -165,475 -334,677c-331,394 -863,606 -1384,552z" id="svg_3" fill="#ffffff"/>
  </g>
 </g>
</svg>