<?xml version="1.0" encoding="UTF-8"?>
<!DOCTYPE svg PUBLIC "-//W3C//DTD SVG 1.1//EN" "http://www.w3.org/Graphics/SVG/1.1/DTD/svg11.dtd">
<!-- Creator: CorelDRAW 2020 (64-Bit) -->
<svg xmlns="http://www.w3.org/2000/svg" xml:space="preserve" width="18.324mm" height="18.324mm" version="1.1" style="shape-rendering:geometricPrecision; text-rendering:geometricPrecision; image-rendering:optimizeQuality; fill-rule:evenodd; clip-rule:evenodd"
viewBox="0 0 222.65 222.65"
 xmlns:xlink="http://www.w3.org/1999/xlink"
 xmlns:xodm="http://www.corel.com/coreldraw/odm/2003">
 <defs>
  <style type="text/css">
   <![CDATA[
    .str0 {stroke:#2196F3;stroke-width:2.43;stroke-miterlimit:22.9256}
    .fil0 {fill:none}
    .fil1 {fill:#0D6EFD}
    .fil2 {fill:white}
   ]]>
  </style>
 </defs>
 <g id="Capa_x0020_1">
  <metadata id="CorelCorpID_0Corel-Layer"/>
  <circle class="fil0 str0" cx="111.33" cy="111.33" r="110.11"/>
  <path class="fil1" d="M194.79 105.34c0,0 -75.55,-93.23 -163.16,0 87.61,93.23 163.16,0 163.16,0z"/>
  <path class="fil2" d="M114.23 73.2c18.53,0 33.56,15.02 33.56,33.56 0,18.53 -15.02,33.56 -33.56,33.56 -18.53,0 -33.56,-15.02 -33.56,-33.56 0,-18.53 15.02,-33.56 33.56,-33.56zm0 9.24c3.65,0 7.12,0.81 10.23,2.25 -3.58,2.53 -5.92,6.7 -5.92,11.41 0,7.71 6.25,13.97 13.97,13.97 2.13,0 4.14,-0.48 5.95,-1.33 -1.01,12.5 -11.47,22.32 -24.23,22.32 -13.43,0 -24.31,-10.88 -24.31,-24.31 0,-13.43 10.88,-24.31 24.31,-24.31z"/>
  <path class="fil1" d="M114.23 82.44c3.65,0 7.12,0.81 10.23,2.25 -3.58,2.53 -5.92,6.7 -5.92,11.41 0,7.71 6.25,13.97 13.97,13.97 2.13,0 4.14,-0.48 5.95,-1.33 -1.01,12.5 -11.47,22.32 -24.23,22.32 -13.43,0 -24.31,-10.88 -24.31,-24.31 0,-13.43 10.88,-24.31 24.31,-24.31z"/>
 </g>
</svg>
