<?xml version="1.0" encoding="UTF-8"?>
<!DOCTYPE svg PUBLIC "-//W3C//DTD SVG 1.1//EN" "http://www.w3.org/Graphics/SVG/1.1/DTD/svg11.dtd">
<!-- Creator: CorelDRAW 2020 (64-Bit) -->
<svg xmlns="http://www.w3.org/2000/svg" xml:space="preserve" width="27.6976mm" height="14.313mm" version="1.1" style="shape-rendering:geometricPrecision; text-rendering:geometricPrecision; image-rendering:optimizeQuality; fill-rule:evenodd; clip-rule:evenodd"
viewBox="0 0 9.08 4.69"
 xmlns:xlink="http://www.w3.org/1999/xlink"
 xmlns:xodm="http://www.corel.com/coreldraw/odm/2003">
 <defs>
  <style type="text/css">
   <![CDATA[
    .fil0 {fill:#0C6EFB;fill-rule:nonzero}
   ]]>
  </style>
 </defs>
 <g id="Capa_x0020_1">
  <metadata id="CorelCorpID_0Corel-Layer"/>
  <g id="_2770220825728">
   <g>
    <g id="svg_1">
     <path id="svg_2" class="fil0" d="M4.49 0.01c-1.22,0.07 -2.5,0.63 -3.69,1.6 -0.24,0.19 -0.49,0.42 -0.68,0.62l-0.12 0.13 0.06 0.07c0.1,0.11 0.37,0.37 0.57,0.54 0.99,0.87 2.02,1.43 3.03,1.63 0.34,0.07 0.58,0.09 0.94,0.09 0.27,0 0.37,-0 0.6,-0.03 0.97,-0.12 1.93,-0.55 2.83,-1.26 0.37,-0.29 0.74,-0.65 1,-0.97l0.06 -0.07 -0.02 -0.02c-0.33,-0.39 -0.7,-0.77 -1.06,-1.07 -1.09,-0.91 -2.28,-1.34 -3.51,-1.26l0 0zm0.33 0.41c0.26,0.03 0.48,0.1 0.71,0.22 0.68,0.35 1.09,1.04 1.06,1.78 -0.02,0.42 -0.16,0.8 -0.42,1.13 -0.06,0.08 -0.22,0.24 -0.3,0.3 -0.29,0.23 -0.62,0.37 -1,0.43 -0.15,0.02 -0.42,0.02 -0.57,0 -0.4,-0.06 -0.75,-0.22 -1.04,-0.47 -0.08,-0.07 -0.22,-0.21 -0.29,-0.3 -0.21,-0.28 -0.34,-0.6 -0.38,-0.95 -0.02,-0.17 -0.01,-0.41 0.02,-0.59 0.17,-0.82 0.87,-1.45 1.73,-1.56 0.11,-0.01 0.36,-0.01 0.48,-0l0 0z"/>
     <path id="svg_3" class="fil0" d="M4.49 1.28c-0.4,0.04 -0.74,0.28 -0.9,0.63 -0.13,0.27 -0.14,0.57 -0.03,0.84 0.12,0.31 0.37,0.55 0.68,0.65 0.14,0.05 0.2,0.06 0.37,0.06 0.15,0 0.16,-0 0.24,-0.02 0.1,-0.02 0.16,-0.05 0.26,-0.09 0.31,-0.15 0.53,-0.43 0.6,-0.77 0.02,-0.09 0.02,-0.33 -0,-0.43 -0.04,-0.18 -0.12,-0.34 -0.24,-0.48 -0.23,-0.28 -0.61,-0.43 -0.98,-0.39z"/>
    </g>
   </g>
  </g>
 </g>
</svg>
