<?xml version="1.0" encoding="UTF-8"?>
<!DOCTYPE svg PUBLIC "-//W3C//DTD SVG 1.1//EN" "http://www.w3.org/Graphics/SVG/1.1/DTD/svg11.dtd">
<!-- Creator: CorelDRAW 2020 (64-Bit) -->
<svg xmlns="http://www.w3.org/2000/svg" xml:space="preserve" width="22.9635mm" height="20.3866mm" version="1.1" style="shape-rendering:geometricPrecision; text-rendering:geometricPrecision; image-rendering:optimizeQuality; fill-rule:evenodd; clip-rule:evenodd"
viewBox="0 0 14077.7 12497.94"
 xmlns:xlink="http://www.w3.org/1999/xlink"
 xmlns:xodm="http://www.corel.com/coreldraw/odm/2003">
 <defs>
  <style type="text/css">
   <![CDATA[
    .str0 {stroke:#0D6EFD;stroke-width:122.61;stroke-miterlimit:22.9256}
    .fil0 {fill:#0D6EFD}
    .fil1 {fill:white}
   ]]>
  </style>
 </defs>
 <g id="Capa_x0020_1">
  <metadata id="CorelCorpID_0Corel-Layer"/>
  <rect class="fil0 str0" x="61.29" y="61.22" width="13955.12" height="12375.34" rx="1678.6" ry="1678.6"/>
  <path class="fil1" d="M12297.41 6317.69c0,0 -4744.74,-5855.09 -10246.52,0 5501.79,5855.09 10246.52,0 10246.52,0zm-5059.11 -2018.52c1163.87,0 2107.35,943.48 2107.35,2107.35 0,1163.87 -943.48,2107.35 -2107.35,2107.35 -1163.87,0 -2107.35,-943.48 -2107.35,-2107.35 0,-1163.87 943.48,-2107.35 2107.35,-2107.35zm0 580.49c229.52,0 447.16,50.76 642.41,141.37 -224.68,158.84 -371.44,420.73 -371.44,716.77 0,484.43 392.78,877.21 877.15,877.21 133.64,0 260.24,-30.1 373.65,-83.5 -63.7,784.82 -720.64,1401.85 -1521.77,1401.85 -843.31,0 -1526.85,-683.55 -1526.85,-1526.85 0,-843.31 683.55,-1526.85 1526.85,-1526.85z"/>
  <path class="fil1" d="M7238.3 4879.67c229.52,0 447.16,50.76 642.41,141.37 -224.68,158.84 -371.44,420.73 -371.44,716.77 0,484.43 392.78,877.21 877.15,877.21 133.64,0 260.24,-30.1 373.65,-83.5 -63.7,784.82 -720.64,1401.85 -1521.77,1401.85 -843.31,0 -1526.85,-683.55 -1526.85,-1526.85 0,-843.31 683.55,-1526.85 1526.85,-1526.85z"/>
 </g>
</svg>
