<svg id="Capa_1" data-name="Capa 1" xmlns="http://www.w3.org/2000/svg" viewBox="0 0 300 300"><defs><style>.cls-1{fill:#ddd;}.cls-2{fill:#467eb7;}.cls-3{fill:#ffd488;}.cls-4{fill:#f9c662;}</style></defs><title>Iconos_finales</title><rect class="cls-1" x="83.193" y="36.976" width="155.786" height="228.828"/><rect class="cls-2" x="102.247" y="61.464" width="117.679" height="28.019"/><rect class="cls-3" x="180.697" y="61.464" width="39.226" height="28.019"/><rect class="cls-2" x="102.247" y="111.897" width="117.679" height="28.019"/><rect class="cls-3" x="141.47" y="111.897" width="39.226" height="28.019"/><rect class="cls-2" x="102.247" y="162.333" width="117.679" height="28.019"/><rect class="cls-2" x="102.247" y="212.764" width="117.679" height="28.019"/><rect class="cls-3" x="180.697" y="212.764" width="39.226" height="28.019"/><path class="cls-3" d="M139.537,219.506a45.824,45.824,0,0,1-45.826,45.827,45.9,45.9,0,0,1-21.594-5.4,45.911,45.911,0,0,1-24.083-36.8q-.147-1.794-.145-3.629a45.823,45.823,0,0,1,45.822-45.822q1.835,0,3.629.145a45.811,45.811,0,0,1,42.2,45.677Z"/><path class="cls-4" d="M124.878,185.92,60.125,250.674a45.578,45.578,0,0,1-12.091-27.539l49.305-49.3A45.566,45.566,0,0,1,124.878,185.92Z"/><path class="cls-4" d="M139.215,214.075,88.28,265.01a45.449,45.449,0,0,1-16.163-5.076l62.022-62.021A45.437,45.437,0,0,1,139.215,214.075Z"/><path d="M238.975,85.047a3.5,3.5,0,0,0-3.5,3.5V262.3H130.192a3.5,3.5,0,0,0,0,7H238.975a3.5,3.5,0,0,0,3.5-3.5V88.55A3.5,3.5,0,0,0,238.975,85.047Z"/><path d="M238.975,33.474H83.191a3.5,3.5,0,0,0-3.5,3.5V160.929a3.5,3.5,0,1,0,7.005,0V40.479H235.473V76.874a3.5,3.5,0,0,0,7,0v-39.9A3.5,3.5,0,0,0,238.975,33.474Z"/><path d="M102.244,92.985H219.921a3.5,3.5,0,0,0,3.5-3.5V61.464a3.5,3.5,0,0,0-3.5-3.5H102.244a3.5,3.5,0,0,0-3.5,3.5V89.483A3.5,3.5,0,0,0,102.244,92.985Zm42.729-7V64.966h32.221V85.98Zm71.446,0H184.2V64.966h32.221ZM105.746,64.966h32.221V85.98H105.746Z"/><path d="M98.742,139.915a3.5,3.5,0,0,0,3.5,3.5h9.969a3.5,3.5,0,1,0,0-7h-6.466V115.4h32.221v21.013H123.889a3.5,3.5,0,1,0,0,7h96.033a3.5,3.5,0,0,0,3.5-3.5V111.9a3.5,3.5,0,0,0-3.5-3.5H102.244a3.5,3.5,0,0,0-3.5,3.5v28.019ZM144.973,115.4h32.221v21.014H144.973Zm71.446,21.013H184.2V115.4h32.221Z"/><path d="M102.244,165.833h35.723v24.516a3.5,3.5,0,0,0,3.5,3.5h78.451a3.5,3.5,0,0,0,3.5-3.5V162.33a3.5,3.5,0,0,0-3.5-3.5H102.244a3.5,3.5,0,1,0,0,7Zm42.729,0h32.221v21.013H144.973Zm71.446,21.013H184.2V165.832h32.221Z"/><path d="M146.015,237.279a3.5,3.5,0,0,0,0,7h73.907a3.5,3.5,0,0,0,3.5-3.5V212.763a3.5,3.5,0,0,0-3.5-3.5H149.751a3.5,3.5,0,0,0,0,7h27.443v21.013ZM184.2,216.266h32.221v21.013H184.2Z"/><path d="M102.163,200.684a8.133,8.133,0,0,1,3.17,6.221,3.5,3.5,0,1,0,7,0c0-7.846-6.523-14.4-15.124-15.816v-1.828a3.5,3.5,0,1,0-7,0v1.828c-8.6,1.421-15.125,7.971-15.125,15.816s6.523,14.4,15.125,15.816v18.07a12.378,12.378,0,0,1-4.95-2.458,8.136,8.136,0,0,1-3.17-6.222,3.5,3.5,0,0,0-7,0c0,7.846,6.523,14.4,15.125,15.816v1.828a3.5,3.5,0,1,0,7,0v-1.828c8.6-1.421,15.124-7.971,15.124-15.816s-6.523-14.395-15.124-15.816v-18.07A12.369,12.369,0,0,1,102.163,200.684Zm-16.9,12.442a7.69,7.69,0,0,1,0-12.443,12.372,12.372,0,0,1,4.95-2.458v17.359A12.352,12.352,0,0,1,85.259,213.126Zm16.9,12.765a7.69,7.69,0,0,1,0,12.443,12.374,12.374,0,0,1-4.949,2.458V223.433A12.355,12.355,0,0,1,102.163,225.891Z"/><path d="M143.038,219.508a49.327,49.327,0,1,0-49.327,49.327A49.383,49.383,0,0,0,143.038,219.508ZM93.711,261.83a42.322,42.322,0,1,1,42.322-42.321A42.369,42.369,0,0,1,93.711,261.83Z"/></svg>