<?xml version="1.0" encoding="UTF-8"?>
<!DOCTYPE svg PUBLIC "-//W3C//DTD SVG 1.1//EN" "http://www.w3.org/Graphics/SVG/1.1/DTD/svg11.dtd">
<!-- Creator: CorelDRAW 2020 (64-Bit) -->
<svg xmlns="http://www.w3.org/2000/svg" xml:space="preserve" width="183.053mm" height="183.053mm" version="1.1" style="shape-rendering:geometricPrecision; text-rendering:geometricPrecision; image-rendering:optimizeQuality; fill-rule:evenodd; clip-rule:evenodd"
viewBox="0 0 170.11 170.11"
 xmlns:xlink="http://www.w3.org/1999/xlink"
 xmlns:xodm="http://www.corel.com/coreldraw/odm/2003">
 <defs>
  <style type="text/css">
   <![CDATA[
    .fil0 {fill:black}
    .fil8 {fill:#642A32}
    .fil9 {fill:#766861}
    .fil7 {fill:#F7C4BC}
    .fil5 {fill:#F9BE2C}
    .fil6 {fill:#FA445F}
    .fil4 {fill:#FC697E}
    .fil3 {fill:#FDF4F4}
    .fil1 {fill:#FEDECE}
    .fil2 {fill:#FFE04C}
   ]]>
  </style>
 </defs>
 <g id="Capa_x0020_1">
  <metadata id="CorelCorpID_0Corel-Layer"/>
  <g id="_1703870999824">
   <path class="fil0" d="M40.87 140.87c0.49,-1.59 2.74,-3.09 3.84,-4.36 2.27,0.95 9.18,11.34 26.38,11.57 12.8,0.18 23.12,1.16 33.54,-4.25 7.33,-3.81 14.21,-11.38 17.09,-20.78 2.69,-8.76 1.6,-26.64 1.6,-36.74l19.54 -0.08c1.09,4.69 -0.65,16.09 -1.88,20.54 -10.41,37.78 -50.8,57.03 -85.45,42.68 -4.12,-1.71 -12.46,-6.1 -14.68,-8.58zm84.69 -140.87l3.21 0c4.1,0.49 8.12,2.93 10.67,8.08l29.02 58.03c0.73,1.43 1.4,3.06 1.66,5.01l0 3.35c-0.03,0.27 -0.07,0.54 -0.12,0.82 -0.38,2.09 -1.38,4.14 -2.63,5.68 -0.23,0.28 -0.39,0.47 -0.62,0.71 -0.06,0.07 -0.25,0.28 -0.32,0.35 -2.13,2.21 -3.91,3.23 -7.28,4.02 0,5.44 -0.03,10.03 -0.6,14.68 -2.58,20.85 -11.62,35.47 -25.89,49.2 -0.81,0.78 -1.31,1.05 -2.17,1.82l-6.23 4.74c-12.35,8.2 -26.21,12.8 -40.27,13.62l-9.21 0c-12.09,-0.71 -24.11,-4.22 -35.23,-10.64 -0.77,-0.45 -1.34,-0.9 -2.23,-1.42l-8.68 -6.27c-2.37,-2.02 -2.08,-2.11 -1.4,-4.44 2.13,-1.12 2.86,-0.97 4.48,0.37 14.54,12.04 32.45,18.38 51.89,17.31 5.08,-0.28 17.18,-2.13 20.72,-4.26 5.92,-1.26 16.44,-7.77 20.32,-10.85 5.87,-4.65 10.86,-9.39 15.26,-15.64 8.64,-12.26 15.22,-28.23 14.1,-47.54 -0.28,-1.1 -1.54,-0.7 -2.83,-0.69 -1.15,0.01 -2.12,-0.06 -3.25,0.1 -0.18,0.69 -0.19,7.51 -0.12,8.59 0.62,5.32 -2.87,17 -4.68,21.49 -15.79,39.2 -64.37,56.11 -101.99,31.07 -2.32,-1.54 -6.07,-3.4 -5.21,-7.67 0.46,-2.27 4.62,-5.6 5.91,-6.96 -0.7,-1.78 -2.04,-3.37 -2.8,-5.48 -1.55,0.7 -3.75,3.31 -4.99,4.56 -1.4,1.4 -2.95,3.38 -6.31,2.37 -2.78,-0.84 -6.49,-7.36 -8.07,-10.22 -13.6,-24.6 -10.82,-55.3 6.63,-76.31 1.47,-1.78 2.36,-3.9 5.52,-2.65 1.69,3.29 -0.21,3.69 -3.98,8.85 -1.99,2.72 -3.74,5.68 -5.34,8.95 -7.26,14.83 -8.51,31.84 -3.34,47.73 1.64,5.02 6.68,15.75 10.09,18.82 1.57,-0.45 2.73,-2.24 3.9,-3.41 1.22,-1.23 2.57,-2.74 3.82,-3.74 -0.29,-2.54 -0.96,-4.68 -1.11,-7.46 -0.33,-6.15 -0.07,-19.34 -0.07,-25.93 0,-6.47 -0.3,-15.51 9.07,-16.99 3.84,-0.6 4.74,0.6 7.42,1.39 0.09,-4.97 -0.63,-18.8 0.81,-22.34 1.19,-2.93 3.04,-4.64 5.79,-5.85 3.96,-1.73 6.55,-0.67 9.93,0.71 0,-15.88 17.39,-15.68 20.96,-5.15 4.97,-2.22 3.55,-1.82 9.52,-1.62l3.54 -7.25c-3.19,-2.08 -12.65,-3.86 -17.12,-4.28 -12.22,-1.16 -24.64,1.16 -35.27,6.81 -4.3,2.29 -6.07,3.43 -9.73,6.23 -1.71,1.31 -2.51,1.02 -4.18,0.31 -0.71,-2.23 -0.43,-3.09 1.17,-4.31 16.57,-12.66 38.23,-17.55 58.77,-12.2 3.05,0.8 5.86,2.01 8.54,2.71 1.03,-1.01 2.28,-3.79 2.72,-5.39 -3.95,-1.14 -7.56,-2.72 -12.15,-3.73 -22.35,-4.89 -44.44,0.66 -61.99,14.16 -4,3.08 -8.88,7.87 -12.05,11.87 -11.22,14.13 -18.5,32.94 -16.09,54.83 1.47,13.33 5.94,24.45 13.06,34.72 4.45,6.42 5.96,5.69 4.19,9.53 -1.22,0.5 -2.5,0.6 -3.46,-0.29 -1.3,-1.2 -6.12,-8.03 -7.16,-9.79 -4.46,-7.54 -6.39,-11.16 -9.12,-20.45 -1.82,-6.2 -2.78,-12.74 -2.95,-19.29l0 -4.43c0.26,-9.64 2.17,-19.12 5.46,-27.34 0.81,-2.02 1.63,-3.99 2.51,-5.8l6.37 -10.58c5.18,-7 9.63,-12.02 16.57,-17.32 6.61,-5.06 13.86,-9.35 21.88,-12.01 16.72,-5.53 34.12,-6.53 51.09,-0.83 1.2,0.4 2.07,0.66 3.21,1.11 0.99,0.39 2.06,0.69 2.89,1.09l3.77 -7.2c0.61,-1.23 1.24,-2.73 1.89,-3.76 2.04,-3.25 5.83,-5.51 9.93,-5.99zm-29.33 80.92c-3.87,0.13 -7.19,-3.79 -7.36,-7.81 -0.15,-3.38 2.85,-8.2 4.22,-10.94l24.92 -49.83c1.55,-3.11 3.53,-7.02 7.45,-7.06 3.19,-1.27 7.04,1.26 8.21,2.94 1.84,2.65 25.18,49.96 27.27,54.12 2.63,5.23 6.92,11.31 1.58,16.45 -2.49,2.4 -4.79,2.48 -9.01,2.48 -8.68,-0.01 -56.27,0.46 -57.28,-0.35zm10.41 10.15l0.18 -4.86c1.11,-0.24 10.33,-0.5 11.52,0.19 0.17,9.55 1.02,28.77 -1.87,36.69 -3,8.21 -11.06,16.97 -20.43,18.77 -3.24,1.77 -25.18,1.56 -29.76,0.82 -9.06,-1.47 -16.09,-7.05 -19.82,-12.37 -5.96,-8.5 -5.68,-14.88 -5.68,-26.66 0,-3.16 -0.47,-21.33 0.47,-23.56 1.73,-4.07 7.79,-5.01 10.25,-0.68 2.47,4.35 -1.63,17.74 2.9,21.02 2.3,1.66 14.15,1.07 18.68,13.55 0.91,2.5 0.9,3.9 1.23,6.63 0.34,2.8 3.1,3.63 4.47,1.66 2.35,-3.38 -1.89,-19.12 -14.75,-24.16 -1.46,-0.57 -5.48,-1.18 -6.4,-1.86 -0.81,-0.79 -0.34,-27.91 -0.34,-28.81 0,-2.96 -0.35,-12.08 0.24,-14.26 0.98,-3.59 5.87,-5.83 9.27,-2.7 2.93,2.7 2.01,7.9 2.01,12.64l-0 21.93c-0.01,2.37 -0.22,4.78 2.08,5.18 4.41,0.76 2.9,-8.62 2.9,-11.82 0,-9.75 0,-19.49 0,-29.24 0,-4.78 -0.43,-9.34 3.8,-10.8 3.7,-1.28 7.74,0.82 7.74,6.81 0,4.88 -0.01,9.75 -0.01,14.63 0,1.98 0.3,5.37 -0.15,7.12 -0.61,2.39 -1.39,3 -1.3,6.17 0.08,2.88 1.15,4.12 1.41,6.03 0.61,4.45 -1.59,12.32 3.24,11.05 2.36,-0.62 1.75,-3.47 1.8,-5.8 1.7,0.54 2.85,1.37 5.04,1.69 1.96,0.29 4.43,0.16 6.48,0.16 0,1.83 -0.51,4.71 0.66,5.98 1.38,1.52 3.77,0.87 4.15,-1.14zm-16.27 -34.89c-0.44,-6.57 -0.79,-12.65 6.46,-12.57l-6.46 12.57z"/>
   <path class="fil1" d="M96.02 141.87l5.49 -4.14c4.9,-4.19 8.61,-9.39 10.54,-16.41 2.13,-7.75 1.16,-25.86 1.16,-34.92l-6.25 -0.02c0,1.48 0.24,3.64 -0.32,4.69 -0.38,2.01 -2.76,2.66 -4.15,1.14 -1.16,-1.28 -0.66,-4.16 -0.66,-5.98 -2.05,0 -4.51,0.13 -6.48,-0.16 -2.19,-0.32 -3.34,-1.15 -5.04,-1.69 -0.04,2.33 0.56,5.18 -1.8,5.8 -4.82,1.27 -2.63,-6.6 -3.24,-11.05 -0.26,-1.91 -1.33,-3.15 -1.41,-6.03 -0.09,-3.18 0.69,-3.78 1.3,-6.17 0.45,-1.75 0.15,-5.14 0.15,-7.12 0,-4.88 0.01,-9.75 0.01,-14.63 -0,-5.98 -4.04,-8.08 -7.74,-6.81 -4.23,1.46 -3.8,6.02 -3.8,10.8 0,9.75 0,19.49 0,29.24 0,3.2 1.51,12.59 -2.9,11.82 -2.3,-0.4 -2.1,-2.8 -2.08,-5.18l0 -21.93c0,-4.73 0.92,-9.94 -2.01,-12.64 -3.4,-3.13 -8.29,-0.9 -9.27,2.7 -0.59,2.18 -0.24,11.29 -0.24,14.26 0,0.9 -0.46,28.02 0.34,28.81 0.92,0.68 4.94,1.29 6.4,1.86 12.86,5.05 17.11,20.79 14.75,24.16 -1.37,1.97 -4.14,1.14 -4.47,-1.66 -0.33,-2.73 -0.33,-4.13 -1.23,-6.63 -4.53,-12.48 -16.38,-11.89 -18.68,-13.55 -4.53,-3.27 -0.43,-16.67 -2.9,-21.02 -2.46,-4.33 -8.52,-3.39 -10.25,0.68 -0.95,2.23 -0.47,20.4 -0.47,23.56 0,11.78 -0.28,18.16 5.68,26.66 3.74,5.33 10.76,10.9 19.82,12.37 4.57,0.74 26.52,0.95 29.76,-0.82z"/>
   <path class="fil2" d="M119.04 68.11c-1,-10.58 14.55,-12.07 15.84,-1.97 0.61,4.75 -2.87,8.57 -6.96,9.01 -4.67,0.5 -8.49,-2.95 -8.88,-7.04zm17.96 -37.54c-0.4,4 -0.8,7.93 -1.19,11.93 -0.43,4.36 -0.96,7.3 -3.99,9.25 -3.04,1.95 -7.3,1.73 -10.09,-0.35 -2.91,-2.18 -3.18,-4.95 -3.66,-9.68 -0.79,-7.88 -3.54,-17.48 3.61,-20.37 3.94,-1.59 16.46,-2.12 15.32,9.23zm-40.78 50.35c1.6,-0.44 50.14,-0.31 58.64,-0.16 2.33,0.04 2.22,-0.28 3.31,-1.99 3.99,-6.24 0.55,-11.09 -2.04,-16.28 -4.8,-9.61 -9.57,-19.14 -14.4,-28.8l-12.52 -25.02c-0.8,-1.5 -1.5,-2.22 -2.3,-3.29l-1.47 -0.12c-3.92,0.04 -5.9,3.95 -7.45,7.06l-24.92 49.83c-1.37,2.74 -4.37,7.56 -4.22,10.94 0.18,4.02 3.49,7.94 7.36,7.81z"/>
   <path class="fil3" d="M36.51 40.67c-1.49,1.39 -3.14,2.86 -4.71,4.22 1.69,3.29 -0.21,3.69 -3.98,8.85 -1.99,2.72 -3.74,5.68 -5.34,8.95 -7.26,14.83 -8.51,31.84 -3.34,47.73 1.64,5.02 6.68,15.75 10.09,18.82 1.57,-0.45 2.73,-2.24 3.9,-3.41 1.22,-1.23 2.57,-2.74 3.82,-3.74 -0.29,-2.54 -0.96,-4.68 -1.11,-7.46 -0.33,-6.15 -0.07,-19.34 -0.07,-25.93 0,-6.47 -0.3,-15.51 9.07,-16.99 3.84,-0.6 4.74,0.6 7.42,1.39 0.09,-4.97 -0.63,-18.8 0.81,-22.34 1.19,-2.93 3.04,-4.64 5.79,-5.85 3.96,-1.73 6.55,-0.67 9.93,0.71 0,-15.88 17.39,-15.68 20.96,-5.15 4.97,-2.22 3.55,-1.82 9.52,-1.62l3.54 -7.25c-3.19,-2.08 -12.65,-3.86 -17.12,-4.28 -12.22,-1.16 -24.64,1.16 -35.27,6.81 -4.3,2.29 -6.07,3.43 -9.73,6.23 -1.71,1.31 -2.51,1.02 -4.18,0.31z"/>
   <path class="fil4" d="M22.69 142.87l4.56 4.46c2.13,-1.12 2.86,-0.97 4.48,0.37 14.54,12.04 32.45,18.38 51.89,17.31 5.08,-0.28 17.18,-2.13 20.72,-4.26 0.86,-0.83 7.13,-3.88 9.62,-5.6 9.23,-6.41 16.14,-12.71 22.32,-22.21 8.63,-13.27 13.07,-27.32 12.61,-46.59 -0.71,0.17 -0.44,0 -0.81,0.37 0.18,2.3 0.71,6.18 -0.26,7.99 0.62,5.32 -2.87,17 -4.68,21.49 -15.79,39.2 -64.37,56.11 -101.99,31.07 -2.32,-1.54 -6.07,-3.4 -5.21,-7.67 0.46,-2.27 4.62,-5.6 5.91,-6.96 -0.7,-1.78 -2.04,-3.37 -2.8,-5.48 -1.55,0.7 -3.75,3.31 -4.99,4.56 -1.4,1.4 -2.95,3.38 -6.31,2.37 -2.78,-0.84 -6.49,-7.36 -8.07,-10.22 -13.6,-24.6 -10.82,-55.3 6.63,-76.31 1.47,-1.78 2.36,-3.9 5.52,-2.65 1.56,-1.36 3.22,-2.83 4.71,-4.22 -0.71,-2.23 -0.43,-3.09 1.17,-4.31 16.57,-12.66 38.23,-17.55 58.77,-12.2 3.05,0.8 5.86,2.01 8.54,2.71 1.03,-1.01 2.28,-3.79 2.72,-5.39 -3.95,-1.14 -7.56,-2.72 -12.15,-3.73 -22.35,-4.89 -44.44,0.66 -61.99,14.16 -4,3.08 -8.88,7.87 -12.05,11.87 -11.22,14.13 -18.5,32.94 -16.09,54.83 1.47,13.33 5.94,24.45 13.06,34.72 4.45,6.42 5.96,5.69 4.19,9.53z"/>
   <path class="fil3" d="M40.87 140.87c2.22,2.48 10.56,6.87 14.68,8.58 34.65,14.36 75.04,-4.9 85.45,-42.68 1.23,-4.45 2.97,-15.85 1.88,-20.54l-19.54 0.08c0,10.1 1.09,27.98 -1.6,36.74 -2.89,9.4 -9.76,16.97 -17.09,20.78 -10.42,5.42 -20.74,4.43 -33.54,4.25 -17.2,-0.24 -24.1,-10.62 -26.38,-11.57 -1.11,1.27 -3.35,2.77 -3.84,4.36z"/>
   <path class="fil5" d="M96.22 80.92c1,0.81 48.59,0.34 57.28,0.35 4.23,0 6.53,-0.08 9.01,-2.48 5.34,-5.14 1.05,-11.22 -1.58,-16.45 -2.09,-4.16 -25.44,-51.47 -27.27,-54.12 -1.16,-1.68 -5.02,-4.21 -8.21,-2.94l1.47 0.12c0.79,1.06 1.49,1.78 2.3,3.29l12.52 25.02c4.83,9.65 9.59,19.19 14.4,28.8 2.59,5.19 6.04,10.04 2.04,16.28 -1.09,1.7 -0.99,2.03 -3.31,1.99 -8.5,-0.16 -57.04,-0.28 -58.64,0.16z"/>
   <path class="fil0" d="M132.06 29.9c-0.48,4.71 -0.74,10.38 -1.51,14.92 -0.37,2.2 -2,4.12 -4.78,3.18 -2.29,-0.77 -2.38,-3.03 -2.65,-5.74 -0.25,-2.58 -1.75,-13.06 -1.03,-14.84 0.84,-2.09 3.73,-1.83 6.49,-1.74 2.66,0.09 3.74,1.55 3.47,4.22zm4.94 0.66c1.14,-11.35 -11.38,-10.81 -15.32,-9.23 -7.16,2.89 -4.41,12.49 -3.61,20.37 0.48,4.73 0.75,7.5 3.66,9.68 2.79,2.09 7.05,2.3 10.09,0.35 3.03,-1.94 3.56,-4.89 3.99,-9.25 0.4,-3.99 0.79,-7.92 1.19,-11.93z"/>
   <path class="fil6" d="M104.33 160.75c5.92,-1.26 16.44,-7.77 20.32,-10.85 5.87,-4.65 10.86,-9.39 15.26,-15.64 8.64,-12.26 15.22,-28.23 14.1,-47.54 -1.44,-0.68 -3.49,-0.36 -5.14,-0.37 0.46,19.27 -3.97,33.32 -12.61,46.59 -6.18,9.49 -13.09,15.8 -22.32,22.21 -2.49,1.73 -8.76,4.77 -9.62,5.6z"/>
   <path class="fil7" d="M96.02 141.87c9.37,-1.8 17.43,-10.56 20.43,-18.77 2.89,-7.92 2.04,-27.15 1.87,-36.69l-5.12 -0c0,9.06 0.98,27.18 -1.16,34.92 -1.93,7.01 -5.64,12.21 -10.54,16.41l-5.49 4.14z"/>
   <path class="fil3" d="M132.06 29.9c0.27,-2.67 -0.81,-4.13 -3.47,-4.22 -2.76,-0.09 -5.65,-0.35 -6.49,1.74 -0.72,1.78 0.78,12.26 1.03,14.84 0.27,2.7 0.36,4.97 2.65,5.74 2.77,0.94 4.41,-0.98 4.78,-3.18 0.77,-4.54 1.03,-10.21 1.51,-14.92z"/>
   <path class="fil0" d="M126.31 64.36c3.83,-1 4.92,4.82 1.52,5.72 -4.03,1.06 -5.5,-4.68 -1.52,-5.72zm-7.27 3.75c0.39,4.09 4.21,7.54 8.88,7.04 4.09,-0.44 7.57,-4.26 6.96,-9.01 -1.29,-10.1 -16.84,-8.61 -15.84,1.97z"/>
   <path class="fil1" d="M90.36 56.18l6.46 -12.57c-7.25,-0.09 -6.9,5.99 -6.46,12.57z"/>
   <path class="fil3" d="M126.31 64.36c-3.98,1.04 -2.51,6.78 1.52,5.72 3.4,-0.9 2.31,-6.72 -1.52,-5.72z"/>
   <path class="fil8" d="M147.79 94.71c0.98,-1.81 0.44,-5.69 0.26,-7.99 0.37,-0.37 0.1,-0.2 0.81,-0.37 1.65,0.01 3.7,-0.32 5.14,0.37 -0.28,-1.1 -1.54,-0.7 -2.83,-0.69 -1.15,0.01 -2.12,-0.06 -3.25,0.1 -0.18,0.69 -0.19,7.51 -0.12,8.59z"/>
   <path class="fil9" d="M106.63 91.07c0.56,-1.05 0.32,-3.21 0.32,-4.69l6.25 0.02 5.12 0c-1.19,-0.69 -10.4,-0.43 -11.52,-0.19l-0.18 4.86z"/>
  </g>
 </g>
</svg>
