<svg id="Line" height="512" viewBox="0 0 64 64" width="512" xmlns="http://www.w3.org/2000/svg"><path d="m31 21.5h-9a3 3 0 0 0 -3 3v32a3 3 0 0 0 3 3h9z" fill="#c4a2fc"/><path d="m44 27.5a1 1 0 0 0 1 1h5a1 1 0 0 0 1-1v-6h-7z" fill="#c4a2fc"/><path d="m63 24.5a3 3 0 0 0 -3-3h-7v6a3 3 0 0 1 -3 3h-5a3 3 0 0 1 -3-3v-6h-9v38h27a3 3 0 0 0 3-3zm-7 29h-6a1 1 0 0 1 0-2h6a1 1 0 0 1 0 2zm0-4h-9a1 1 0 0 1 0-2h9a1 1 0 0 1 0 2z" fill="#c4a2fc"/><g fill="#151a6a"><path d="m44 15.5h-26.142a3.981 3.981 0 0 0 -7.716 0h-2.142a1 1 0 0 0 0 2h2.142a3.981 3.981 0 0 0 7.716 0h26.142a1 1 0 0 0 0-2zm-30 3a2 2 0 1 1 2-2 2 2 0 0 1 -2 2z"/><path d="m44 26.5h-2.142a3.981 3.981 0 0 0 -7.716 0h-26.142a1 1 0 0 0 0 2h26.142a3.981 3.981 0 0 0 7.716 0h2.142a1 1 0 0 0 0-2zm-6 3a2 2 0 1 1 2-2 2 2 0 0 1 -2 2z"/><path d="m44 37.5h-26.142a3.981 3.981 0 0 0 -7.716 0h-2.142a1 1 0 0 0 0 2h2.142a3.981 3.981 0 0 0 7.716 0h26.142a1 1 0 0 0 0-2zm-30 3a2 2 0 1 1 2-2 2 2 0 0 1 -2 2z"/><path d="m48 4.5h-44a3 3 0 0 0 -3 3v40a3 3 0 0 0 3 3h44a3 3 0 0 0 3-3v-40a3 3 0 0 0 -3-3zm1 43a1 1 0 0 1 -1 1h-44a1 1 0 0 1 -1-1v-40a1 1 0 0 1 1-1h44a1 1 0 0 1 1 1z"/></g></svg>