<?xml version="1.0" encoding="UTF-8"?>
<!DOCTYPE svg PUBLIC "-//W3C//DTD SVG 1.1//EN" "http://www.w3.org/Graphics/SVG/1.1/DTD/svg11.dtd">
<!-- Creator: CorelDRAW 2020 (64-Bit) -->
<svg xmlns="http://www.w3.org/2000/svg" xml:space="preserve" width="16.8123mm" height="10.3751mm" version="1.1" style="shape-rendering:geometricPrecision; text-rendering:geometricPrecision; image-rendering:optimizeQuality; fill-rule:evenodd; clip-rule:evenodd"
viewBox="0 0 3.2 1.98"
 xmlns:xlink="http://www.w3.org/1999/xlink"
 xmlns:xodm="http://www.corel.com/coreldraw/odm/2003">
 <defs>
  <style type="text/css">
   <![CDATA[
    .fil9 {fill:black;fill-rule:nonzero}
    .fil5 {fill:#3F7CBE;fill-rule:nonzero}
    .fil4 {fill:#6495CF;fill-rule:nonzero}
    .fil7 {fill:#CA3B61;fill-rule:nonzero}
    .fil1 {fill:#D07D40;fill-rule:nonzero}
    .fil3 {fill:#E39E6A;fill-rule:nonzero}
    .fil6 {fill:#E95676;fill-rule:nonzero}
    .fil8 {fill:#E9ECF0;fill-rule:nonzero}
    .fil0 {fill:#F39E5C;fill-rule:nonzero}
    .fil2 {fill:#F7C091;fill-rule:nonzero}
    .fil10 {fill:white;fill-rule:nonzero}
   ]]>
  </style>
 </defs>
 <g id="Capa_x0020_1">
  <metadata id="CorelCorpID_0Corel-Layer"/>
  <g id="_2730172024544">
   <path class="fil0" d="M2.62 0.92l-0.08 -0.66 -0.15 0.02 0 -0 -0.3 -0.17c-0.03,-0.01 -0.06,-0.02 -0.09,-0.02 -0.01,0 -0.01,0 -0.02,0l-0.47 0.04c-0.06,0.01 -0.11,0.04 -0.14,0.09l-0.33 0.57c-0.01,0.01 -0.01,0.03 -0.01,0.04 0,0.03 0.02,0.06 0.05,0.07l0.01 0.01c0.03,0.01 0.05,0.02 0.08,0.02l-0.04 0.04 -0.08 0.07 -0.24 0.2c-0.02,0.02 -0.03,0.05 -0.03,0.08 0,0.02 0.01,0.05 0.02,0.07l0.02 0.03c0.02,0.03 0.06,0.04 0.1,0.04 0.03,0 0.06,-0.01 0.09,-0.03l0.09 0.1c0.02,0.03 0.06,0.04 0.1,0.04 0.03,0 0.06,-0.01 0.09,-0.03l0.09 0.1c0.02,0.03 0.06,0.04 0.1,0.04 0.03,0 0.06,-0.01 0.09,-0.03l0.05 0.04c0.02,0.03 0.06,0.04 0.1,0.04 0.03,0 0.06,-0.01 0.09,-0.03l0.07 -0.06 0.56 -0.44 0 -0 0.22 -0 -0.04 -0.29z"/>
   <path class="fil1" d="M2.37 1.04l-0 0 -0.56 0.44 -0.07 0.06c-0.02,0.02 -0.05,0.03 -0.09,0.03 -0.04,0 -0.07,-0.02 -0.1,-0.04l-0.05 -0.04c-0.02,0.02 -0.05,0.03 -0.09,0.03 -0.04,0 -0.07,-0.02 -0.1,-0.04l-0.09 -0.1c-0.02,0.02 -0.05,0.03 -0.09,0.03 -0.04,0 -0.07,-0.02 -0.1,-0.04l-0.09 -0.1c-0.02,0.02 -0.05,0.03 -0.09,0.03 -0.03,0 -0.05,-0.01 -0.08,-0.02 -0.01,0.02 -0.02,0.04 -0.02,0.06 0,0.02 0.01,0.05 0.02,0.07l0.02 0.03c0.02,0.03 0.06,0.04 0.1,0.04 0.03,0 0.06,-0.01 0.09,-0.03l0.09 0.1c0.02,0.03 0.06,0.04 0.1,0.04 0.03,0 0.06,-0.01 0.09,-0.03l0.09 0.1c0.02,0.03 0.06,0.04 0.1,0.04 0.03,0 0.06,-0.01 0.09,-0.03l0.05 0.04c0.02,0.03 0.06,0.04 0.1,0.04 0.03,0 0.06,-0.01 0.09,-0.03l0.07 -0.06 0.56 -0.44 0 -0 0.22 -0 -0.02 -0.2 -0.25 0.03z"/>
   <path class="fil2" d="M2.48 1.32l-0.3 -0.26 -0.08 -0.07 -0.06 -0.05 -0.26 -0.22 0.03 -0.25c0,-0.01 0,-0.01 0,-0.02 0,-0.08 -0.05,-0.15 -0.13,-0.17l-0.56 -0.16c-0.01,-0 -0.02,-0 -0.03,-0 -0.05,0 -0.09,0.03 -0.12,0.07l-0.07 0.14 -0.3 -0.02 -0.08 0.66 -0.03 0.29 0.3 0.02 0 0 0.62 0.53 0.07 0.06c0.02,0.02 0.05,0.03 0.09,0.03 0.04,0 0.07,-0.02 0.1,-0.05l0.09 -0.1c0.02,0.02 0.05,0.03 0.09,0.03 0.04,0 0.07,-0.02 0.1,-0.05l0.09 -0.1c0.02,0.02 0.05,0.03 0.09,0.03 0.04,0 0.07,-0.02 0.1,-0.05l0.09 -0.1c0.02,0.02 0.05,0.03 0.09,0.03 0.04,0 0.07,-0.02 0.1,-0.05l0.02 -0.03c0.02,-0.02 0.02,-0.04 0.02,-0.07 0,-0.03 -0.01,-0.06 -0.04,-0.08l0 0z"/>
   <path class="fil3" d="M2.48 1.32l-0.09 -0.08c0.01,0.02 0.02,0.04 0.02,0.06 0,0.03 -0.01,0.05 -0.03,0.07l-0.03 0.03c-0.03,0.03 -0.06,0.05 -0.1,0.05 -0.03,0 -0.07,-0.01 -0.09,-0.03l-0.1 0.11c-0.03,0.03 -0.06,0.05 -0.1,0.05 -0.03,0 -0.07,-0.01 -0.09,-0.03l-0.1 0.11c-0.03,0.03 -0.06,0.05 -0.1,0.05 -0.03,0 -0.07,-0.01 -0.09,-0.03l-0.1 0.11c-0.02,0.02 -0.04,0.03 -0.07,0.04l0.04 0.04c0.02,0.02 0.05,0.03 0.09,0.03 0.04,0 0.07,-0.02 0.1,-0.05l0.09 -0.1c0.02,0.02 0.05,0.03 0.09,0.03 0.04,0 0.07,-0.02 0.1,-0.05l0.09 -0.1c0.02,0.02 0.05,0.03 0.09,0.03 0.04,0 0.07,-0.02 0.1,-0.05l0.09 -0.1c0.02,0.02 0.05,0.03 0.09,0.03 0.04,0 0.07,-0.02 0.1,-0.05l0.02 -0.03c0.02,-0.02 0.02,-0.04 0.02,-0.07 0,-0.03 -0.01,-0.06 -0.04,-0.08l0 0z"/>
   <path class="fil0" d="M0.79 1.27l-0.04 0.05c-0.02,0.02 -0.02,0.05 -0.02,0.07 0,0.04 0.02,0.07 0.05,0.09l0 0c0.02,0.02 0.05,0.02 0.07,0.02 0.04,0 0.07,-0.02 0.09,-0.05l0.04 -0.05c0.02,-0.02 0.02,-0.05 0.02,-0.07 0,-0.04 -0.02,-0.07 -0.05,-0.09l0 0c-0.02,-0.02 -0.05,-0.02 -0.07,-0.02 -0.04,0 -0.07,0.02 -0.09,0.05l0 0z"/>
   <path class="fil0" d="M1.01 1.37l-0.07 0.09c-0.02,0.02 -0.02,0.05 -0.02,0.07 0,0.04 0.02,0.07 0.05,0.09l0 0c0.02,0.02 0.05,0.02 0.07,0.02 0.04,0 0.07,-0.02 0.09,-0.05l0.07 -0.09c0.02,-0.02 0.02,-0.05 0.02,-0.07 0,-0.04 -0.02,-0.07 -0.05,-0.09l0 0c-0.02,-0.02 -0.05,-0.02 -0.07,-0.02 -0.04,0 -0.07,0.02 -0.09,0.05l0 0z"/>
   <path class="fil0" d="M1.22 1.48l-0.09 0.12c-0.02,0.02 -0.02,0.05 -0.02,0.07 0,0.04 0.02,0.07 0.05,0.09l0 0c0.02,0.02 0.05,0.02 0.07,0.02 0.04,0 0.07,-0.02 0.09,-0.05l0.09 -0.12c0.02,-0.02 0.02,-0.05 0.02,-0.07 0,-0.04 -0.02,-0.07 -0.05,-0.09l0 0c-0.02,-0.02 -0.05,-0.02 -0.07,-0.02 -0.04,0 -0.07,0.02 -0.09,0.05l0 0z"/>
   <path class="fil0" d="M1.41 1.61l-0.1 0.13c-0.02,0.02 -0.02,0.05 -0.02,0.07 0,0.04 0.02,0.07 0.05,0.09l0 0c0.02,0.02 0.05,0.02 0.07,0.02 0.04,0 0.07,-0.02 0.09,-0.05l0.1 -0.13c0.02,-0.02 0.02,-0.05 0.02,-0.07 0,-0.04 -0.02,-0.07 -0.05,-0.09l-0 0c-0.02,-0.02 -0.05,-0.02 -0.07,-0.02 -0.04,0 -0.07,0.02 -0.09,0.05l-0 -0z"/>
   <g>
    <path class="fil0" d="M2.38 0.28l-0.3 -0.17c-0.03,-0.01 -0.06,-0.02 -0.09,-0.02 -0.01,0 -0.01,0 -0.02,0l-0.47 0.04c-0.06,0.01 -0.11,0.04 -0.14,0.09l-0.33 0.57c-0.01,0.01 -0.01,0.03 -0.01,0.04 0,0.03 0.02,0.06 0.05,0.07l0.01 0.01c0.03,0.01 0.07,0.02 0.1,0.02 0.09,0 0.18,-0.04 0.23,-0.11l0.13 -0.16c0,0 0.3,0.35 0.64,-0.06l0.18 -0.31zm0 0l0 0 0 0z"/>
   </g>
   <path class="fil4" d="M3 0.05l0.15 1.26 -0.36 0.04c-0.01,0 -0.01,0 -0.02,0 -0.06,0 -0.12,-0.05 -0.12,-0.11l-0.12 -1.01c-0,-0.01 -0,-0.01 -0,-0.02 0,-0.06 0.05,-0.12 0.11,-0.12l0.36 -0.04z"/>
   <path class="fil5" d="M2.79 1.21c-0.01,0 -0.01,0 -0.02,0 -0.06,0 -0.12,-0.04 -0.13,-0.11l0.02 0.14c0.01,0.06 0.06,0.11 0.12,0.11 0.01,0 0.01,-0 0.02,-0l0.36 -0.04 -0.02 -0.14 -0.35 0.04z"/>
   <path class="fil6" d="M0.2 0.05l-0.15 1.26 0.36 0.04c0.01,0 0.01,0 0.02,0 0.06,0 0.12,-0.05 0.12,-0.11l0.12 -1.01c0,-0.01 0,-0.01 0,-0.02 0,-0.06 -0.05,-0.12 -0.11,-0.12l-0.36 -0.04z"/>
   <path class="fil7" d="M0.42 1.2l-0.35 -0.04 -0.02 0.14 0.36 0.04c0.01,0 0.01,0 0.02,0 0.06,0 0.12,-0.05 0.12,-0.11l0.01 -0.11c-0.03,0.04 -0.07,0.07 -0.13,0.07 -0.01,0 -0.01,-0 -0.02,-0l0 0z"/>
   <circle class="fil8" cx="2.9" cy="1.1" r="0.09"/>
   <circle class="fil8" cx="0.29" cy="1.1" r="0.09"/>
   <path class="fil9" d="M1.6 1.55c-0.03,-0.02 -0.06,-0.03 -0.1,-0.03 -0.01,0 -0.02,0 -0.03,0 -0.01,-0.08 -0.08,-0.14 -0.16,-0.14 -0.01,0 -0.02,0 -0.02,0 -0.01,0 -0.02,0 -0.03,0.01 -0.02,-0.07 -0.08,-0.12 -0.16,-0.12 -0.02,0 -0.04,0 -0.06,0.01 -0.02,-0.07 -0.08,-0.11 -0.16,-0.11 -0.04,0 -0.08,0.02 -0.11,0.05l-0.17 -0.01 0.11 -0.85 0.19 0.01c0,0 0,0 0,0 0.02,0 0.03,-0.01 0.04,-0.03l0.07 -0.14c0.01,-0.03 0.04,-0.05 0.07,-0.05 0.01,0 0.01,0 0.02,0l0.1 0.03c0,0 0.01,0 0.01,0 0.03,0 0.05,-0.02 0.05,-0.05 0,-0.02 -0.01,-0.04 -0.03,-0.05l-0.1 -0.03c-0.02,-0 -0.03,-0.01 -0.05,-0.01 -0.07,0 -0.13,0.04 -0.16,0.1l-0.06 0.11 -0.15 -0.01 0 -0.03c0,-0.01 0,-0.01 0,-0.02 0,-0.09 -0.06,-0.16 -0.15,-0.17l-0.36 -0.04c-0,-0 -0,-0 -0.01,-0 -0.03,0 -0.05,0.02 -0.05,0.05 0,0.02 0.02,0.04 0.04,0.05l0.36 0.04c0.04,0 0.07,0.04 0.07,0.08 0,0 -0,0.01 -0,0.01l-0.12 1.01c-0,0.04 -0.04,0.07 -0.08,0.07 -0,0 -0.01,-0 -0.01,-0l-0.36 -0.04c-0,-0 -0,-0 -0,-0 -0.03,0 -0.05,0.02 -0.05,0.05 0,0.02 0.02,0.04 0.04,0.05l0.36 0.04c0.01,0 0.01,0 0.02,0 0.06,0 0.12,-0.03 0.15,-0.09l0.13 0.01c-0.01,0.02 -0.02,0.05 -0.02,0.07 0,0.09 0.07,0.16 0.16,0.16 0.01,0 0.02,-0 0.02,-0 0,0 0,-0 0,-0 0,0 0,0 0,0 0.01,0.08 0.08,0.14 0.16,0.14 0.01,0 0.02,-0 0.02,-0 0.01,0.08 0.08,0.14 0.16,0.14 0.01,0 0.02,-0 0.02,-0 0,0 0,0 0,0 0.01,0.08 0.08,0.14 0.16,0.14 0.01,0 0.02,-0 0.02,-0 0.04,-0.01 0.08,-0.03 0.11,-0.06l0.1 -0.13c0.02,-0.03 0.03,-0.06 0.03,-0.1 0,-0.05 -0.02,-0.1 -0.06,-0.13l0 0zm-0.76 -0.09c-0.04,-0.01 -0.07,-0.03 -0.07,-0.07 0,-0.02 0,-0.03 0.01,-0.04l0.05 -0.06c0.01,-0.02 0.03,-0.03 0.06,-0.03 0.04,0 0.07,0.03 0.07,0.07 0,0.02 -0,0.03 -0.01,0.04l-0.04 0.05c-0.01,0.01 -0.04,0.04 -0.07,0.04zm0.16 0.11c-0.02,-0.01 -0.03,-0.03 -0.03,-0.06 0,-0.02 0,-0.03 0.01,-0.04l0.04 -0.05 0 0 0.03 -0.04c0.01,-0.02 0.03,-0.03 0.06,-0.03 0.04,0 0.07,0.03 0.07,0.07 0,0.02 -0.01,0.03 -0.01,0.04 -0.02,0.03 -0.05,0.06 -0.07,0.09 -0.01,0.01 -0.03,0.02 -0.04,0.02 -0.03,0 -0.05,-0.01 -0.05,-0.01l0 0zm0.18 0.13c-0.02,-0.01 -0.03,-0.03 -0.03,-0.06 0,-0.02 0,-0.03 0.01,-0.04l0 0 0.07 -0.09 0 0 0.02 -0.03c0.01,-0.02 0.03,-0.03 0.06,-0.03 0.04,0 0.07,0.03 0.07,0.07 0,0.02 -0,0.03 -0.01,0.04l-0.09 0.12 0 0c0,0 -0.04,0.05 -0.1,0.01zm0.38 0.02l-0.1 0.13c-0.01,0.02 -0.03,0.03 -0.06,0.03 -0.04,0 -0.07,-0.03 -0.07,-0.07 0,-0.02 0,-0.03 0.01,-0.04l0.09 -0.12 0 0 0.01 -0.01c0.01,-0.02 0.03,-0.03 0.06,-0.03 0.04,0 0.07,0.03 0.07,0.07 0,0.02 -0.02,0.06 -0.01,0.04l0 -0z"/>
   <path class="fil9" d="M3.2 1.3c-0,-0.02 -0.02,-0.04 -0.05,-0.04 -0,0 -0,0 -0.01,0l-0.36 0.04c-0,0 -0.01,0 -0.01,0 -0.04,0 -0.07,-0.03 -0.08,-0.07l-0 -0.03 0 0 -0 -0.01 -0.12 -0.97c-0,-0 -0,-0.01 -0,-0.01 0,-0.04 0.03,-0.07 0.07,-0.08l0.36 -0.04c0.02,-0 0.04,-0.02 0.04,-0.05 0,-0.03 -0.02,-0.05 -0.05,-0.05 -0,0 -0,0 -0.01,0l-0.36 0.04c-0.09,0.01 -0.15,0.08 -0.15,0.17 0,0 0,0 0,0l-0.09 0.01 -0.28 -0.16c-0.03,-0.02 -0.07,-0.03 -0.11,-0.03 -0.01,0 -0.01,0 -0.02,0l-0 0 -0.08 0.01c-0.02,0 -0.04,0.02 -0.04,0.05 0,0.03 0.02,0.05 0.05,0.05 0,0 0,-0 0,-0l0.09 -0.01c0,-0 0.01,-0 0.01,-0 0.02,0 0.04,0.01 0.06,0.02l0.29 0.16c0.01,0.01 0.02,0.01 0.03,0.01 0,0 0,-0 0.01,-0l0.11 -0.01 0.08 0.63 0.03 0.22 -0.17 0c-0.01,0 -0.02,0 -0.03,0.01l-0.01 0.01 -0.42 -0.37c0.1,-0.03 0.19,-0.1 0.28,-0.2 0.01,-0.01 0.01,-0.02 0.01,-0.03 0,-0.03 -0.02,-0.05 -0.05,-0.05 -0.01,0 -0.03,0.01 -0.04,0.02 -0.1,0.12 -0.2,0.18 -0.3,0.18 -0.15,0 -0.26,-0.12 -0.26,-0.12 -0.01,-0.01 -0.02,-0.02 -0.04,-0.02 -0.01,0 -0.03,0.01 -0.04,0.02l-0.13 0.16c-0.05,0.06 -0.12,0.1 -0.19,0.1 -0.03,0 -0.06,-0.01 -0.09,-0.02l-0.01 -0.01c-0.01,-0 -0.02,-0.02 -0.02,-0.03 0,-0.01 0,-0.01 0,-0.02l0.33 -0.57c0.02,-0.04 0.06,-0.06 0.1,-0.06l0.19 -0.02c0.02,-0 0.04,-0.02 0.04,-0.05 0,-0.03 -0.02,-0.05 -0.05,-0.05 -0,0 -0,0 -0,0l-0.19 0.02c-0.07,0.01 -0.14,0.05 -0.17,0.11l-0.33 0.57c-0.01,0.02 -0.02,0.04 -0.02,0.06 0,0.05 0.03,0.1 0.08,0.12l0.01 0.01c0.04,0.01 0.08,0.02 0.12,0.02 0.11,-0 0.2,-0.05 0.27,-0.13l0.09 -0.12c0.05,0.04 0.14,0.11 0.26,0.12l0.61 0.53c0.01,0.01 0.02,0.03 0.02,0.04 0,0.01 -0,0.03 -0.01,0.04l-0.02 0.03c-0.02,0.02 -0.04,0.03 -0.06,0.03 -0.02,0 -0.04,-0.01 -0.05,-0.02 -0,-0 -0,-0 -0.01,-0l-0.16 -0.14c-0.01,-0.01 -0.02,-0.01 -0.03,-0.01 -0.03,0 -0.05,0.02 -0.05,0.05 0,0.01 0.01,0.03 0.02,0.04l0.13 0.11 -0.06 0.07c-0.02,0.02 -0.04,0.03 -0.06,0.03 -0.02,0 -0.04,-0.01 -0.05,-0.02l-0 -0 -0.15 -0.13c-0.01,-0.01 -0.02,-0.01 -0.03,-0.01 -0.03,0 -0.05,0.02 -0.05,0.05 0,0.01 0.01,0.03 0.02,0.04l0.11 0.1 -0.06 0.07c-0.02,0.02 -0.04,0.03 -0.06,0.03 -0,0 -0.01,-0 -0.01,-0 -0,-0 -0,-0 -0,-0 -0.03,0 -0.05,0.02 -0.05,0.05 0,0.02 0.02,0.04 0.04,0.05 0.01,0 0.01,0 0.02,0 0.05,0 0.1,-0.02 0.13,-0.06l0.06 -0.07c0.02,0.01 0.05,0.02 0.08,0.02 0.05,0 0.1,-0.02 0.13,-0.06l0.06 -0.07c0.02,0.01 0.05,0.02 0.08,0.02 0.05,0 0.1,-0.02 0.13,-0.06l0.02 -0.03c0.02,-0.03 0.04,-0.06 0.04,-0.1 0,-0.04 -0.02,-0.08 -0.05,-0.11l-0.04 -0.03 0.14 -0c0.02,0.08 0.09,0.14 0.17,0.14 0.01,0 0.01,-0 0.02,-0l0.36 -0.04c0.02,-0 0.04,-0.02 0.04,-0.05 0,-0 -0,-0 -0,-0.01l0 0z"/>
   <path class="fil9" d="M2.9 0.96c0,0 -0,0 -0,0 -0.08,0 -0.14,0.06 -0.14,0.14 0,0.08 0.06,0.14 0.14,0.14 0.08,0 0.14,-0.06 0.14,-0.14 0,0 0,-0 0,-0 -0,-0.08 -0.06,-0.14 -0.14,-0.14l0 0z"/>
   <path class="fil10" d="M2.9 1.02c0,0 -0,0 -0,0 -0.04,0 -0.08,0.03 -0.08,0.08 0,0.04 0.03,0.08 0.08,0.08 0.04,0 0.08,-0.03 0.08,-0.08 0,0 0,0 0,0 -0,-0.04 -0.03,-0.08 -0.08,-0.08l0 0z"/>
   <circle class="fil8" cx="0.29" cy="1.1" r="0.09"/>
   <path class="fil9" d="M0.29 0.96c0,0 -0,0 -0,0 -0.08,0 -0.14,0.06 -0.14,0.14 0,0.08 0.06,0.14 0.14,0.14 0.08,0 0.14,-0.06 0.14,-0.14 0,0 0,-0 0,-0 -0,-0.08 -0.06,-0.14 -0.14,-0.14l0 0z"/>
   <path class="fil10" d="M0.29 1.02c0,0 0,0 0,0 -0.04,0 -0.08,0.03 -0.08,0.08 0,0.04 0.03,0.08 0.08,0.08 0.04,0 0.08,-0.03 0.08,-0.08 0,0 0,0 0,0 -0,-0.04 -0.03,-0.08 -0.08,-0.08l0 0z"/>
  </g>
 </g>
</svg>
