<?xml version="1.0" encoding="UTF-8"?>
<!DOCTYPE svg PUBLIC "-//W3C//DTD SVG 1.1//EN" "http://www.w3.org/Graphics/SVG/1.1/DTD/svg11.dtd">
<!-- Creator: CorelDRAW 2020 (64-Bit) -->
<svg xmlns="http://www.w3.org/2000/svg" xml:space="preserve" width="15.9571mm" height="15.9572mm" version="1.1" style="shape-rendering:geometricPrecision; text-rendering:geometricPrecision; image-rendering:optimizeQuality; fill-rule:evenodd; clip-rule:evenodd"
viewBox="0 0 2.84 2.84"
 xmlns:xlink="http://www.w3.org/1999/xlink"
 xmlns:xodm="http://www.corel.com/coreldraw/odm/2003">
 <defs>
  <style type="text/css">
   <![CDATA[
    .fil0 {fill:#EBECF1}
    .fil10 {fill:black;fill-rule:nonzero}
    .fil6 {fill:#3F7CBE;fill-rule:nonzero}
    .fil5 {fill:#6495CF;fill-rule:nonzero}
    .fil8 {fill:#CA3B61;fill-rule:nonzero}
    .fil2 {fill:#D07D40;fill-rule:nonzero}
    .fil4 {fill:#E39E6A;fill-rule:nonzero}
    .fil7 {fill:#E95676;fill-rule:nonzero}
    .fil9 {fill:#E9ECF0;fill-rule:nonzero}
    .fil1 {fill:#F39E5C;fill-rule:nonzero}
    .fil3 {fill:#F7C091;fill-rule:nonzero}
    .fil11 {fill:white;fill-rule:nonzero}
   ]]>
  </style>
 </defs>
 <g id="Capa_x0020_1">
  <metadata id="CorelCorpID_0Corel-Layer"/>
  <circle class="fil0" cx="1.42" cy="1.42" r="1.42"/>
  <g id="_2729857886128">
   <path class="fil1" d="M2.17 1.44l-0.06 -0.5 -0.12 0.01 0 -0 -0.23 -0.13c-0.02,-0.01 -0.04,-0.02 -0.07,-0.02 -0,0 -0.01,0 -0.01,0l-0.36 0.03c-0.04,0 -0.08,0.03 -0.1,0.07l-0.25 0.43c-0.01,0.01 -0.01,0.02 -0.01,0.03 0,0.02 0.02,0.05 0.04,0.06l0.01 0c0.02,0.01 0.04,0.01 0.06,0.01l-0.03 0.03 -0.06 0.06 -0.18 0.15c-0.02,0.01 -0.03,0.04 -0.03,0.06 0,0.02 0.01,0.04 0.02,0.05l0.02 0.02c0.02,0.02 0.05,0.03 0.07,0.03 0.02,0 0.05,-0.01 0.07,-0.02l0.07 0.08c0.02,0.02 0.05,0.03 0.07,0.03 0.02,0 0.05,-0.01 0.07,-0.02l0.07 0.08c0.02,0.02 0.05,0.03 0.07,0.03 0.02,0 0.05,-0.01 0.07,-0.02l0.04 0.03c0.02,0.02 0.05,0.03 0.07,0.03 0.02,0 0.05,-0.01 0.07,-0.02l0.05 -0.04 0.43 -0.33 0 -0 0.17 -0 -0.03 -0.22z"/>
   <path class="fil2" d="M1.98 1.53l-0 0 -0.43 0.33 -0.05 0.04c-0.02,0.02 -0.04,0.02 -0.07,0.02 -0.03,0 -0.06,-0.01 -0.07,-0.03l-0.04 -0.03c-0.02,0.02 -0.04,0.02 -0.07,0.02 -0.03,0 -0.06,-0.01 -0.07,-0.03l-0.07 -0.08c-0.02,0.02 -0.04,0.02 -0.07,0.02 -0.03,0 -0.06,-0.01 -0.07,-0.03l-0.07 -0.08c-0.02,0.02 -0.04,0.02 -0.07,0.02 -0.02,0 -0.04,-0.01 -0.06,-0.02 -0.01,0.01 -0.01,0.03 -0.01,0.04 0,0.02 0.01,0.04 0.02,0.05l0.02 0.02c0.02,0.02 0.05,0.03 0.07,0.03 0.02,0 0.05,-0.01 0.07,-0.02l0.07 0.08c0.02,0.02 0.05,0.03 0.07,0.03 0.02,0 0.05,-0.01 0.07,-0.02l0.07 0.08c0.02,0.02 0.05,0.03 0.07,0.03 0.02,0 0.05,-0.01 0.07,-0.02l0.04 0.03c0.02,0.02 0.05,0.03 0.07,0.03 0.02,0 0.05,-0.01 0.07,-0.02l0.05 -0.04 0.43 -0.33 0 -0 0.17 -0 -0.02 -0.15 -0.19 0.02z"/>
   <path class="fil3" d="M2.06 1.75l-0.23 -0.2 -0.06 -0.05 -0.05 -0.04 -0.2 -0.17 0.02 -0.19c0,-0.01 0,-0.01 0,-0.02 0,-0.06 -0.04,-0.11 -0.1,-0.13l-0.43 -0.12c-0.01,-0 -0.02,-0 -0.03,-0 -0.04,0 -0.07,0.02 -0.09,0.05l-0.05 0.11 -0.23 -0.02 -0.06 0.5 -0.03 0.22 0.22 0.01 0 0 0.47 0.4 0.05 0.04c0.02,0.02 0.04,0.02 0.06,0.02 0.03,0 0.06,-0.01 0.08,-0.03l0.07 -0.08c0.02,0.02 0.04,0.02 0.06,0.02 0.03,0 0.06,-0.01 0.08,-0.03l0.07 -0.08c0.02,0.02 0.04,0.02 0.06,0.02 0.03,0 0.06,-0.01 0.08,-0.03l0.07 -0.08c0.02,0.02 0.04,0.02 0.06,0.02 0.03,0 0.06,-0.01 0.08,-0.03l0.02 -0.02c0.01,-0.01 0.02,-0.03 0.02,-0.05 0,-0.02 -0.01,-0.04 -0.03,-0.06l0 0z"/>
   <path class="fil4" d="M2.06 1.75l-0.07 -0.06c0.01,0.01 0.02,0.03 0.02,0.05 0,0.02 -0.01,0.04 -0.02,0.05l-0.02 0.02c-0.02,0.02 -0.05,0.04 -0.08,0.04 -0.03,0 -0.05,-0.01 -0.07,-0.03l-0.07 0.08c-0.02,0.02 -0.05,0.04 -0.08,0.04 -0.03,0 -0.05,-0.01 -0.07,-0.03l-0.07 0.08c-0.02,0.02 -0.05,0.04 -0.08,0.04 -0.03,0 -0.05,-0.01 -0.07,-0.03l-0.07 0.08c-0.01,0.02 -0.03,0.03 -0.05,0.03l0.03 0.03c0.02,0.02 0.04,0.02 0.06,0.02 0.03,0 0.06,-0.01 0.08,-0.03l0.07 -0.08c0.02,0.02 0.04,0.02 0.06,0.02 0.03,0 0.06,-0.01 0.08,-0.03l0.07 -0.08c0.02,0.02 0.04,0.02 0.06,0.02 0.03,0 0.06,-0.01 0.08,-0.03l0.07 -0.08c0.02,0.02 0.04,0.02 0.06,0.02 0.03,0 0.06,-0.01 0.08,-0.03l0.02 -0.02c0.01,-0.01 0.02,-0.03 0.02,-0.05 0,-0.02 -0.01,-0.04 -0.03,-0.06l0 0z"/>
   <path class="fil1" d="M0.78 1.71l-0.03 0.04c-0.01,0.02 -0.02,0.03 -0.02,0.05 0,0.03 0.01,0.05 0.04,0.07l0 0c0.02,0.01 0.03,0.02 0.05,0.02 0.03,0 0.05,-0.01 0.07,-0.04l0.03 -0.04c0.01,-0.02 0.02,-0.03 0.02,-0.05 0,-0.03 -0.01,-0.05 -0.04,-0.07l0 0c-0.02,-0.01 -0.03,-0.02 -0.05,-0.02 -0.03,0 -0.05,0.01 -0.07,0.04l0 0z"/>
   <path class="fil1" d="M0.94 1.78l-0.05 0.07c-0.01,0.02 -0.02,0.03 -0.02,0.05 0,0.03 0.01,0.05 0.04,0.07l-0 0c0.02,0.01 0.03,0.02 0.05,0.02 0.03,0 0.05,-0.01 0.07,-0.04l0.05 -0.07c0.01,-0.02 0.02,-0.03 0.02,-0.05 0,-0.03 -0.01,-0.05 -0.04,-0.07l0 0c-0.02,-0.01 -0.03,-0.02 -0.05,-0.02 -0.03,0 -0.05,0.01 -0.07,0.04l0 0z"/>
   <path class="fil1" d="M1.1 1.86l-0.07 0.09c-0.01,0.02 -0.02,0.03 -0.02,0.05 0,0.03 0.01,0.05 0.04,0.07l0 0c0.02,0.01 0.03,0.02 0.05,0.02 0.03,0 0.05,-0.01 0.07,-0.04l0.07 -0.09c0.01,-0.02 0.02,-0.03 0.02,-0.05 0,-0.03 -0.01,-0.05 -0.04,-0.07l0 0c-0.02,-0.01 -0.03,-0.02 -0.05,-0.02 -0.03,0 -0.05,0.01 -0.07,0.04l0 0z"/>
   <path class="fil1" d="M1.25 1.97l-0.07 0.1c-0.01,0.02 -0.02,0.03 -0.02,0.05 0,0.03 0.01,0.05 0.04,0.07l0 0c0.02,0.01 0.03,0.02 0.05,0.02 0.03,0 0.05,-0.01 0.07,-0.04l0.07 -0.1c0.01,-0.02 0.02,-0.03 0.02,-0.05 0,-0.03 -0.01,-0.05 -0.04,-0.07l0 0c-0.02,-0.01 -0.03,-0.02 -0.05,-0.02 -0.03,0 -0.05,0.01 -0.07,0.04l-0 0z"/>
   <g>
    <path class="fil1" d="M1.99 0.95l-0.23 -0.13c-0.02,-0.01 -0.04,-0.02 -0.07,-0.02 -0,0 -0.01,0 -0.01,0l-0.36 0.03c-0.04,0 -0.08,0.03 -0.1,0.07l-0.25 0.43c-0.01,0.01 -0.01,0.02 -0.01,0.03 0,0.02 0.02,0.05 0.04,0.06l0.01 0c0.03,0.01 0.05,0.01 0.08,0.01 0.07,0 0.13,-0.03 0.18,-0.09l0.1 -0.12c0,0 0.23,0.27 0.48,-0.04l0.14 -0.23zm0 0l0 0 0 0z"/>
   </g>
   <path class="fil5" d="M2.46 0.77l0.12 0.96 -0.28 0.03c-0,0 -0.01,0 -0.01,0 -0.05,0 -0.09,-0.04 -0.09,-0.08l-0.09 -0.77c-0,-0 -0,-0.01 -0,-0.01 0,-0.05 0.04,-0.09 0.08,-0.09l0.28 -0.03z"/>
   <path class="fil6" d="M2.3 1.66c-0,0 -0.01,0 -0.01,0 -0.05,0 -0.09,-0.03 -0.1,-0.08l0.01 0.11c0.01,0.05 0.05,0.08 0.09,0.08 0,0 0.01,-0 0.01,-0l0.28 -0.03 -0.01 -0.11 -0.27 0.03z"/>
   <path class="fil7" d="M0.33 0.77l-0.12 0.96 0.28 0.03c0,0 0.01,0 0.01,0 0.05,0 0.09,-0.04 0.09,-0.08l0.09 -0.77c0,-0 0,-0.01 0,-0.01 0,-0.05 -0.04,-0.09 -0.08,-0.09l-0.28 -0.03z"/>
   <path class="fil8" d="M0.49 1.65l-0.27 -0.03 -0.01 0.11 0.28 0.03c0,0 0.01,0 0.01,0 0.05,0 0.09,-0.04 0.09,-0.08l0.01 -0.08c-0.02,0.03 -0.06,0.05 -0.1,0.05 -0,0 -0.01,-0 -0.01,-0l0 0z"/>
   <circle class="fil9" cx="2.39" cy="1.57" r="0.07"/>
   <circle class="fil9" cx="0.4" cy="1.57" r="0.07"/>
   <path class="fil10" d="M1.39 1.92c-0.02,-0.02 -0.05,-0.03 -0.08,-0.03 -0.01,0 -0.02,0 -0.02,0 -0.01,-0.06 -0.06,-0.1 -0.12,-0.1 -0.01,0 -0.01,0 -0.02,0 -0.01,0 -0.02,0 -0.02,0.01 -0.02,-0.05 -0.06,-0.09 -0.12,-0.09 -0.02,0 -0.03,0 -0.05,0.01 -0.02,-0.05 -0.06,-0.09 -0.12,-0.09 -0.03,0 -0.06,0.01 -0.09,0.04l-0.13 -0.01 0.08 -0.65 0.14 0.01c0,0 0,0 0,0 0.01,0 0.03,-0.01 0.03,-0.02l0.05 -0.11c0.01,-0.02 0.03,-0.03 0.06,-0.03 0.01,0 0.01,0 0.02,0l0.08 0.02c0,0 0.01,0 0.01,0 0.02,0 0.04,-0.02 0.04,-0.04 0,-0.02 -0.01,-0.03 -0.03,-0.03l-0.08 -0.02c-0.01,-0 -0.02,-0 -0.04,-0 -0.05,0 -0.1,0.03 -0.12,0.07l-0.04 0.08 -0.12 -0.01 0 -0.02c0,-0.01 0,-0.01 0,-0.02 0,-0.07 -0.05,-0.12 -0.11,-0.13l-0.28 -0.03c-0,-0 -0,-0 -0,-0 -0.02,0 -0.04,0.02 -0.04,0.04 0,0.02 0.01,0.03 0.03,0.04l0.28 0.03c0.03,0 0.05,0.03 0.05,0.06 0,0 -0,0 -0,0.01l-0.09 0.77c-0,0.03 -0.03,0.05 -0.06,0.05 -0,0 -0,-0 -0.01,-0l-0.28 -0.03c-0,-0 -0,-0 -0,-0 -0.02,0 -0.04,0.02 -0.04,0.04 0,0.02 0.01,0.03 0.03,0.04l0.28 0.03c0.01,0 0.01,0 0.02,0 0.05,0 0.09,-0.03 0.11,-0.07l0.1 0.01c-0.01,0.02 -0.01,0.04 -0.01,0.06 0,0.07 0.06,0.12 0.12,0.12 0.01,0 0.01,-0 0.02,-0 0,0 0,-0 0,-0 0,0 0,0 0,0 0.01,0.06 0.06,0.11 0.12,0.11 0.01,0 0.01,-0 0.02,-0 0.01,0.06 0.06,0.11 0.12,0.11 0.01,0 0.01,-0 0.02,-0 0,0 0,0 0,0 0.01,0.06 0.06,0.11 0.12,0.11 0.01,0 0.01,-0 0.02,-0 0.03,-0 0.06,-0.02 0.08,-0.05l0.07 -0.1c0.02,-0.02 0.03,-0.05 0.03,-0.08 0,-0.04 -0.02,-0.08 -0.05,-0.1l0 0zm-0.58 -0.07c-0.03,-0 -0.05,-0.02 -0.05,-0.05 0,-0.01 0,-0.02 0.01,-0.03l0.03 -0.04c0.01,-0.01 0.03,-0.02 0.04,-0.02 0.03,0 0.05,0.02 0.05,0.05 0,0.01 -0,0.02 -0.01,0.03l-0.03 0.04c-0.01,0.01 -0.03,0.03 -0.05,0.03zm0.12 0.09c-0.01,-0.01 -0.02,-0.03 -0.02,-0.04 0,-0.01 0,-0.02 0.01,-0.03l0.03 -0.04 -0 0 0.02 -0.03c0.01,-0.01 0.03,-0.02 0.04,-0.02 0.03,0 0.05,0.02 0.05,0.05 0,0.01 -0,0.02 -0.01,0.03 -0.02,0.02 -0.04,0.05 -0.05,0.07 -0,0.01 -0.02,0.02 -0.03,0.02 -0.03,0 -0.04,-0.01 -0.04,-0.01l0 0zm0.14 0.1c-0.01,-0.01 -0.02,-0.03 -0.02,-0.04 0,-0.01 0,-0.02 0.01,-0.03l0 0 0.05 -0.07 0 0 0.02 -0.02c0.01,-0.01 0.03,-0.02 0.04,-0.02 0.03,0 0.05,0.02 0.05,0.05 0,0.01 -0,0.02 -0.01,0.03l-0.07 0.09 0 0c0,0 -0.03,0.04 -0.07,0.01zm0.29 0.02l-0.07 0.1c-0.01,0.01 -0.03,0.02 -0.04,0.02 -0.03,0 -0.05,-0.02 -0.05,-0.05 0,-0.01 0,-0.02 0.01,-0.03l0.07 -0.09 0 0 0 -0.01c0.01,-0.01 0.03,-0.02 0.04,-0.02 0.03,0 0.05,0.02 0.05,0.05 0,0.01 -0.02,0.04 -0.01,0.03l0 -0z"/>
   <path class="fil10" d="M2.61 1.73c-0,-0.02 -0.02,-0.03 -0.04,-0.03 -0,0 -0,0 -0,0l-0.28 0.03c-0,0 -0,0 -0.01,0 -0.03,0 -0.06,-0.02 -0.06,-0.05l-0 -0.02 0 0 -0 -0.01 -0.09 -0.74c-0,-0 -0,-0 -0,-0.01 0,-0.03 0.02,-0.06 0.05,-0.06l0.28 -0.03c0.02,-0 0.03,-0.02 0.03,-0.04 0,-0.02 -0.02,-0.04 -0.04,-0.04 -0,0 -0,0 -0,0l-0.28 0.03c-0.07,0.01 -0.11,0.06 -0.11,0.13 0,0 0,0 0,0l-0.07 0.01 -0.22 -0.12c-0.03,-0.01 -0.05,-0.02 -0.08,-0.02 -0.01,0 -0.01,0 -0.02,0l-0 0 -0.06 0.01c-0.02,0 -0.03,0.02 -0.03,0.04 0,0.02 0.02,0.04 0.04,0.04 0,0 0,-0 0,-0l0.06 -0.01c0,-0 0.01,-0 0.01,-0 0.02,0 0.03,0 0.05,0.01l0.22 0.13c0.01,0 0.01,0.01 0.02,0.01 0,0 0,-0 0,-0l0.08 -0.01 0.06 0.48 0.02 0.17 -0.13 0c-0.01,0 -0.02,0 -0.02,0.01l-0.01 0.01 -0.32 -0.28c0.07,-0.02 0.14,-0.07 0.21,-0.15 0.01,-0.01 0.01,-0.01 0.01,-0.02 0,-0.02 -0.02,-0.04 -0.04,-0.04 -0.01,0 -0.02,0 -0.03,0.01 -0.07,0.09 -0.15,0.14 -0.23,0.14 -0.11,0 -0.2,-0.09 -0.2,-0.09 -0.01,-0.01 -0.02,-0.01 -0.03,-0.01 -0.01,0 -0.02,0.01 -0.03,0.01l-0.1 0.12c-0.04,0.05 -0.09,0.07 -0.15,0.07 -0.02,0 -0.05,-0 -0.07,-0.01l-0.01 -0c-0.01,-0 -0.02,-0.01 -0.02,-0.02 0,-0 0,-0.01 0,-0.01l0.25 -0.43c0.02,-0.03 0.05,-0.05 0.08,-0.05l0.15 -0.01c0.02,-0 0.03,-0.02 0.03,-0.04 0,-0.02 -0.02,-0.04 -0.04,-0.04 -0,0 -0,0 -0,0l-0.15 0.01c-0.06,0.01 -0.1,0.04 -0.13,0.08l-0.25 0.43c-0.01,0.01 -0.01,0.03 -0.01,0.05 0,0.04 0.02,0.08 0.06,0.09l0.01 0c0.03,0.01 0.06,0.02 0.09,0.02 0.08,-0 0.16,-0.04 0.2,-0.1l0.07 -0.09c0.04,0.03 0.11,0.08 0.2,0.09l0.47 0.4c0.01,0.01 0.01,0.02 0.01,0.03 0,0.01 -0,0.02 -0.01,0.03l-0.02 0.02c-0.01,0.01 -0.03,0.02 -0.05,0.02 -0.02,0 -0.03,-0.01 -0.04,-0.02 -0,-0 -0,-0 -0,-0l-0.12 -0.1c-0.01,-0.01 -0.01,-0.01 -0.02,-0.01 -0.02,0 -0.04,0.02 -0.04,0.04 0,0.01 0,0.02 0.01,0.03l0.1 0.08 -0.04 0.05c-0.01,0.01 -0.03,0.02 -0.05,0.02 -0.02,0 -0.03,-0.01 -0.04,-0.02l-0 -0 -0.11 -0.1c-0.01,-0.01 -0.01,-0.01 -0.02,-0.01 -0.02,0 -0.04,0.02 -0.04,0.04 0,0.01 0,0.02 0.01,0.03l0.09 0.07 -0.05 0.05c-0.01,0.01 -0.03,0.02 -0.05,0.02 -0,0 -0,-0 -0.01,-0 -0,-0 -0,-0 -0,-0 -0.02,0 -0.04,0.02 -0.04,0.04 0,0.02 0.01,0.03 0.03,0.04 0.01,0 0.01,0 0.02,0 0.04,0 0.08,-0.02 0.1,-0.05l0.05 -0.06c0.02,0.01 0.04,0.01 0.06,0.01 0.04,0 0.08,-0.02 0.1,-0.05l0.05 -0.06c0.02,0.01 0.04,0.01 0.06,0.01 0.04,0 0.08,-0.02 0.1,-0.05l0.02 -0.02c0.02,-0.02 0.03,-0.05 0.03,-0.07 0,-0.03 -0.01,-0.06 -0.04,-0.09l-0.03 -0.03 0.11 -0c0.01,0.06 0.07,0.11 0.13,0.11 0.01,0 0.01,-0 0.02,-0l0.28 -0.03c0.02,-0 0.03,-0.02 0.03,-0.04 0,-0 -0,-0 -0,-0l0 0z"/>
   <path class="fil10" d="M2.39 1.47c0,0 -0,0 -0,0 -0.06,0 -0.1,0.05 -0.1,0.1 0,0.06 0.05,0.1 0.1,0.1 0.06,0 0.1,-0.05 0.1,-0.1 0,0 0,-0 0,-0 -0,-0.06 -0.05,-0.1 -0.1,-0.1l0 0z"/>
   <path class="fil11" d="M2.39 1.51c0,0 -0,0 -0,0 -0.03,0 -0.06,0.03 -0.06,0.06 0,0.03 0.03,0.06 0.06,0.06 0.03,0 0.06,-0.03 0.06,-0.06 0,0 0,-0 0,-0 -0,-0.03 -0.03,-0.06 -0.06,-0.06l0 0z"/>
   <circle class="fil9" cx="0.4" cy="1.57" r="0.07"/>
   <path class="fil10" d="M0.4 1.47c0,0 -0,0 -0,0 -0.06,0 -0.1,0.05 -0.1,0.1 0,0.06 0.05,0.1 0.1,0.1 0.06,0 0.1,-0.05 0.1,-0.1 0,0 0,-0 0,-0 -0,-0.06 -0.05,-0.1 -0.1,-0.1l0 0z"/>
   <path class="fil11" d="M0.4 1.51c0,0 -0,0 -0,0 -0.03,0 -0.06,0.03 -0.06,0.06 0,0.03 0.03,0.06 0.06,0.06 0.03,0 0.06,-0.03 0.06,-0.06 0,0 0,-0 0,-0 -0,-0.03 -0.03,-0.06 -0.06,-0.06l0 0z"/>
  </g>
 </g>
</svg>
