<svg id="Capa_1" data-name="Capa 1" xmlns="http://www.w3.org/2000/svg" viewBox="0 0 300 300"><defs><style>.cls-1{fill:#7986cb;}.cls-2{fill:#81d3a2;}</style></defs><title>Iconos_finales</title><rect class="cls-1" x="120.396" y="45.415" width="69.79" height="21.81"/><polygon class="cls-2" points="190.186 56.32 190.186 67.224 120.396 67.224 120.396 56.32 76.777 56.32 76.777 263.509 233.805 263.509 233.805 56.32 190.186 56.32"/><path d="M233.805,51.957H194.549V45.415a4.363,4.363,0,0,0-4.362-4.362H120.4a4.362,4.362,0,0,0-4.361,4.362v6.542H76.777a4.363,4.363,0,0,0-4.362,4.362v207.19a4.363,4.363,0,0,0,4.362,4.361H233.805a4.362,4.362,0,0,0,4.362-4.361V56.32A4.363,4.363,0,0,0,233.805,51.957ZM124.758,49.776h61.066V62.862H124.758V49.776ZM229.444,259.147H81.139v-8.723h21.81a4.362,4.362,0,0,0,0-8.724H81.139V60.681h34.9v6.543a4.362,4.362,0,0,0,4.362,4.362h69.79a4.363,4.363,0,0,0,4.362-4.362V60.681h34.9V259.147Z"/><path d="M122.347,98.218a4.362,4.362,0,0,0-5.852,1.951L110.477,112.2l-4.444-4.445a4.362,4.362,0,0,0-6.169,6.169l8.724,8.724a4.362,4.362,0,0,0,6.986-1.134l8.723-17.447A4.361,4.361,0,0,0,122.347,98.218Z"/><path d="M133.482,110.843a4.363,4.363,0,0,0,4.362,4.362h69.79a4.362,4.362,0,0,0,0-8.724h-69.79A4.362,4.362,0,0,0,133.482,110.843Z"/><path d="M122.347,141.837a4.36,4.36,0,0,0-5.852,1.951l-6.018,12.034-4.444-4.444a4.362,4.362,0,1,0-6.169,6.169l8.724,8.724a4.362,4.362,0,0,0,6.986-1.134l8.723-17.448A4.36,4.36,0,0,0,122.347,141.837Z"/><path d="M207.634,150.1h-69.79a4.362,4.362,0,1,0,0,8.724h69.79a4.362,4.362,0,0,0,0-8.724Z"/><path d="M122.347,185.456a4.36,4.36,0,0,0-5.852,1.951l-6.018,12.034L106.033,195a4.362,4.362,0,1,0-6.169,6.169l8.724,8.723a4.361,4.361,0,0,0,6.986-1.134l8.723-17.447A4.36,4.36,0,0,0,122.347,185.456Z"/><path d="M207.634,193.719h-69.79a4.362,4.362,0,1,0,0,8.723h69.79a4.362,4.362,0,0,0,0-8.723Z"/><path d="M120.06,244.4a4.28,4.28,0,0,0-.4-.754,4.122,4.122,0,0,0-.541-.663,4.4,4.4,0,0,0-3.934-1.2,4.571,4.571,0,0,0-.82.253,4.078,4.078,0,0,0-.751.4,4.21,4.21,0,0,0-1.2,1.2,4.009,4.009,0,0,0-.4.754,4.087,4.087,0,0,0-.248.816,4.272,4.272,0,0,0-.087.85,4.39,4.39,0,0,0,1.278,3.084,4.221,4.221,0,0,0,.663.541,4.168,4.168,0,0,0,.751.4,4.6,4.6,0,0,0,.82.253,4.27,4.27,0,0,0,.851.083,4.343,4.343,0,0,0,.85-.083,4.424,4.424,0,0,0,.815-.253,4.072,4.072,0,0,0,.755-.4,4.221,4.221,0,0,0,.663-.541,4.4,4.4,0,0,0,1.278-3.084,4.264,4.264,0,0,0-.087-.85A4.09,4.09,0,0,0,120.06,244.4Z"/></svg>