<?xml version="1.0" encoding="UTF-8"?>
<!DOCTYPE svg PUBLIC "-//W3C//DTD SVG 1.1//EN" "http://www.w3.org/Graphics/SVG/1.1/DTD/svg11.dtd">
<!-- Creator: CorelDRAW 2020 (64-Bit) -->
<svg xmlns="http://www.w3.org/2000/svg" xml:space="preserve" width="169.542mm" height="169.578mm" version="1.1" style="shape-rendering:geometricPrecision; text-rendering:geometricPrecision; image-rendering:optimizeQuality; fill-rule:evenodd; clip-rule:evenodd"
viewBox="0 0 227.19 227.24"
 xmlns:xlink="http://www.w3.org/1999/xlink"
 xmlns:xodm="http://www.corel.com/coreldraw/odm/2003">
 <defs>
  <style type="text/css">
   <![CDATA[
    .fil1 {fill:black}
    .fil2 {fill:#ABD641}
    .fil0 {fill:#B6E445}
    .fil5 {fill:#CCCCCC}
    .fil4 {fill:#FEFEFE}
    .fil3 {fill:white}
   ]]>
  </style>
 </defs>
 <g id="Capa_x0020_1">
  <metadata id="CorelCorpID_0Corel-Layer"/>
  <g id="_1753898745984">
   <path class="fil0" d="M160.92 208.43c0.87,-1.4 4.27,-3.09 5.79,-4.17 6.75,-4.79 9.47,-7.15 15.22,-12.72 27.96,-27.12 40.52,-72.53 27.22,-111.63 -3.44,-10.12 -6.97,-17.09 -11.86,-25.25 -9.88,-16.47 -21.46,-25.4 -36.45,-35.48 -1.11,-0.75 -0.56,-0.19 -1.43,-1.23 -3.07,-2.74 -19.2,-7.39 -24.62,-8.5 -66,-13.46 -128.02,37.6 -127.44,105.06 0.17,20.05 6.28,38.56 14.57,52.77 4.43,7.59 9.47,13.81 14.53,19.37 16.65,18.32 43.1,30.91 68.9,32.89 10.38,0.8 21.14,0.07 31,-2.14 5.44,-1.22 21.87,-6.19 24.59,-8.97z"/>
   <path class="fil1" d="M159.4 17.95c6.79,2.31 19.81,11.56 23.84,15.46 8.68,8.4 9.97,8.88 18.12,20.35 30.32,42.7 22.44,104.49 -17.19,139.13 -4.46,3.9 -16.4,13.5 -23.26,15.54 -2.72,2.78 -19.14,7.75 -24.59,8.97 -9.86,2.2 -20.62,2.93 -31,2.14 -25.8,-1.98 -52.24,-14.58 -68.9,-32.89 -5.05,-5.56 -10.1,-11.77 -14.53,-19.37 -8.28,-14.2 -14.39,-32.72 -14.57,-52.77 -0.58,-67.46 61.44,-118.52 127.44,-105.06 5.42,1.11 21.55,5.76 24.62,8.5zm-159.4 91.52c0,21.22 1.97,32.95 10.54,52.21 6.52,14.66 15.13,24.41 25.99,35.39 6.76,6.84 20.06,15.44 28.67,19.43 36.78,17.04 81.55,13.85 113.84,-10 3.04,-2.24 8.73,-6.49 11.41,-9.2 7.08,-7.17 9.56,-9.26 15.88,-18.02 3.36,-4.66 7.74,-12 10.19,-17.29 8.36,-18.03 10.69,-30.97 10.69,-52.53 0,-7.72 -1.58,-17.44 -3.3,-23.73 -2.05,-7.54 -4.27,-13.55 -7.25,-20.24 -2.12,-4.78 -7.07,-13.18 -10.14,-17.34 -1.92,-2.6 -3.79,-5.43 -6,-7.74l-9.85 -10.31c-1.42,-1.43 -2.29,-1.92 -3.67,-3.21 -16.17,-15.03 -45.68,-26.91 -69.28,-26.91 -25.38,0 -39.34,3.44 -61.22,15.27 -11.53,6.24 -20.77,15.45 -29.59,24.92 -5.66,6.09 -12.72,17.45 -16.22,25 -5.25,11.34 -10.69,27.99 -10.69,44.28z"/>
   <path class="fil2" d="M160.92 208.43c6.86,-2.04 18.8,-11.64 23.26,-15.54 39.62,-34.63 47.51,-96.43 17.19,-139.13 -8.15,-11.48 -9.44,-11.96 -18.12,-20.35 -4.03,-3.9 -17.05,-13.15 -23.84,-15.46 0.87,1.03 0.32,0.48 1.43,1.23 14.98,10.08 26.57,19.01 36.45,35.48 4.9,8.16 8.42,15.13 11.86,25.25 13.3,39.1 0.74,84.51 -27.22,111.63 -5.75,5.58 -8.46,7.93 -15.22,12.72 -1.52,1.08 -4.92,2.77 -5.79,4.17z"/>
   <path class="fil1" d="M131.29 146.43c-17.12,12.06 -55.09,0.64 -55.1,-32.79 -0,-33.34 37.83,-44.89 55.11,-32.79 9.84,4.22 19.7,17.35 19.69,32.79 -0,15.44 -9.86,28.57 -19.71,32.79zm24.67 -58.92c9.29,3.32 25.68,18.95 29.4,26.14 -3.72,7.16 -20.11,22.82 -29.4,26.13 -1.55,2.43 -10.61,5.63 -14.26,6.47 2.38,-3.77 5.9,-5.11 10.09,-13.46 2.62,-5.21 4.5,-12.22 4.5,-19.15 0,-20.21 -11.18,-27.23 -14.59,-32.61 3.64,0.85 12.73,4.05 14.26,6.47zm-114.13 26.14c6.04,-11.74 28.67,-29.04 43.67,-32.61 -2.39,3.76 -5.9,5.11 -10.1,13.45 -2.67,5.29 -4.5,12.16 -4.5,19.15 0,20.27 11.17,27.19 14.6,32.61 -9.82,-2.34 -18.46,-8.1 -25.16,-13.23 -5.58,-4.28 -15.17,-12.91 -18.51,-19.38zm132.55 20.53c3.78,-4.43 15.4,-14.53 17.06,-20.53 -1.65,-5.99 -14.02,-17.03 -17.89,-21.04 -2.27,-1.29 -4.75,-3.69 -7.3,-5.48 -6.85,-4.82 -17.48,-9.91 -25.87,-12.26 -14.24,-4 -29.95,-5.1 -45.08,-2.13 -18.68,3.67 -29.65,10.65 -42.34,20.53 -3,2.34 -17.21,17.14 -17.21,20.38 1.25,4.52 8.35,11.5 11.19,14.4 13.51,13.8 28.62,22.95 49.52,26.7 15.38,2.76 31.59,1.46 45.56,-2.79 19.27,-5.86 27.9,-15.59 32.36,-17.78z"/>
   <path class="fil3" d="M98.76 102.27c1.02,-2.01 1.44,-2.44 3.47,-3.46l0.09 -3.57c23.9,-11.97 43.71,16.22 26.4,33.53 -17.31,17.31 -45.52,-2.54 -33.53,-26.55l3.58 0.06zm32.53 44.16c1.01,-2.52 2.84,-3.74 4.72,-6.86 1.43,-2.37 2.64,-4.74 3.74,-7.55 4.44,-11.34 4.42,-25.99 -0.2,-37.27 -4.13,-10.09 -6.79,-10.26 -8.25,-13.91 -17.28,-12.09 -55.11,-0.55 -55.11,32.79 0,33.42 37.97,44.84 55.1,32.79z"/>
   <path class="fil1" d="M157.37 150.94c-5.24,4.92 -27.02,9.71 -36.28,10.42 -25.28,1.95 -52.75,-6.54 -70.72,-22.61 -5.07,-4.53 -7.06,-6.45 -11.68,-11.63 -2.26,-2.53 -3.32,-4.34 -5.73,-6.27 -9.96,-7.98 -1.66,-12.23 6.06,-21.06 20.5,-23.46 49.93,-36.58 82.67,-33.82 9.11,0.77 30.54,5.53 35.68,10.37 14.97,4.95 40.46,31.31 40.45,37.3 -0,6.02 -25.52,32.34 -40.45,37.3zm-120.11 -57.63c-0.82,1.71 -6.01,7.77 -8.09,9.32 -3.03,2.26 -5.9,5.1 -5.9,11.01 0,10.13 10.01,12.06 14,20.33 8.11,4.89 19.48,23.4 55.44,30.86 12.95,2.69 27.01,2.75 39.96,0.33 8.09,-1.51 16.69,-4.15 24.07,-7.65 3.61,-1.71 5.13,-3.08 7.87,-3.29 1.27,-1.78 10.89,-7.68 13.19,-9.55 2.4,-1.94 3.65,-3.08 6.02,-5.26 2.13,-1.97 3.74,-4.02 6.12,-5.43l7.6 -9.81c1.35,-1.83 6.17,-8.24 6.18,-10.52 0,-4.11 -12.27,-17.52 -13.77,-20.34 -2.39,-1.41 -3.98,-3.47 -6.12,-5.44 -2.38,-2.19 -3.6,-3.31 -6.02,-5.26 -2.28,-1.84 -11.96,-7.79 -13.2,-9.54 -2.38,-0.18 -1.62,-0.15 -4.08,-1.43 -1.38,-0.71 -2.36,-1.19 -3.78,-1.87 -7.4,-3.5 -15.96,-6.13 -24.07,-7.65 -24.95,-4.66 -49.65,-0.03 -71.13,12.18 -13.46,7.64 -20.32,16.64 -24.28,19.01z"/>
   <path class="fil3" d="M157.37 150.94c3.15,-3.18 7.62,-5.92 13.74,-12.27l3.13 -3.13c0.81,-1.44 0.8,-0.35 0.13,-1.36 -4.46,2.19 -13.09,11.91 -32.36,17.78 -13.97,4.25 -30.17,5.55 -45.56,2.79 -20.89,-3.74 -36.01,-12.9 -49.52,-26.7 -2.84,-2.9 -9.94,-9.89 -11.19,-14.4 0,-3.25 14.21,-18.04 17.21,-20.38 12.69,-9.88 23.65,-16.86 42.34,-20.53 15.13,-2.97 30.84,-1.87 45.08,2.13 8.39,2.36 19.02,7.44 25.87,12.26 2.54,1.79 5.02,4.19 7.3,5.48 1.96,-1.9 -15.09,-15.17 -16.18,-16.26 -5.15,-4.84 -26.57,-9.6 -35.68,-10.37 -32.74,-2.76 -62.17,10.35 -82.67,33.82 -7.72,8.84 -16.02,13.08 -6.06,21.06 2.41,1.93 3.48,3.74 5.73,6.27 4.63,5.18 6.62,7.1 11.68,11.63 17.97,16.07 45.44,24.56 70.72,22.61 9.27,-0.71 31.05,-5.5 36.28,-10.42z"/>
   <path class="fil4" d="M41.83 113.64c3.34,6.47 12.93,15.09 18.51,19.38 6.69,5.13 15.33,10.89 25.16,13.23 -3.43,-5.42 -14.6,-12.34 -14.6,-32.61 -0,-6.99 1.83,-13.86 4.5,-19.15 4.2,-8.34 7.71,-9.69 10.1,-13.45 -15,3.57 -37.62,20.87 -43.67,32.61z"/>
   <path class="fil4" d="M155.96 139.77c0.81,-1.15 21.76,-19.76 21.77,-26.13 0,-6.4 -20.9,-24.92 -21.77,-26.13 -1.53,-2.42 -10.62,-5.62 -14.26,-6.47 3.41,5.38 14.6,12.39 14.59,32.61 -0,6.92 -1.88,13.93 -4.5,19.15 -4.2,8.35 -7.72,9.69 -10.09,13.46 3.65,-0.85 12.72,-4.05 14.26,-6.47z"/>
   <path class="fil3" d="M102.23 98.81c-2.02,1.02 -2.44,1.45 -3.47,3.46 2.29,4.65 -5.31,11.76 1.77,20.9 3.33,4.3 10.55,9.05 18.47,5.54 3.92,-14.6 3.82,-15.53 0.01,-30.13 -7.63,-3.82 -12.26,2.47 -16.79,0.23z"/>
   <path class="fil1" d="M102.23 98.81c4.52,2.23 9.15,-4.05 16.79,-0.23 13.79,3.7 13.84,26.5 -0.01,30.13 -7.92,3.5 -15.15,-1.24 -18.47,-5.54 -7.08,-9.14 0.52,-16.25 -1.77,-20.9l-3.58 -0.06c-11.98,24.02 16.23,43.86 33.53,26.55 17.31,-17.31 -2.49,-45.5 -26.4,-33.53l-0.09 3.57z"/>
   <path class="fil5" d="M173.55 92.61c3.87,4.01 16.24,15.05 17.89,21.04 -1.66,6.01 -13.28,16.1 -17.06,20.53 0.66,1.01 0.68,-0.07 -0.13,1.36l-3.13 3.13c-6.12,6.35 -10.59,9.09 -13.74,12.27 14.93,-4.96 40.45,-31.28 40.45,-37.3 0,-5.99 -25.49,-32.35 -40.45,-37.3 1.09,1.09 18.14,14.37 16.18,16.26z"/>
   <path class="fil5" d="M131.29 146.43c9.84,-4.22 19.7,-17.34 19.71,-32.79 0,-15.44 -9.86,-28.57 -19.69,-32.79 1.46,3.65 4.12,3.82 8.25,13.91 4.62,11.28 4.64,25.93 0.2,37.27 -1.1,2.81 -2.31,5.18 -3.74,7.55 -1.88,3.11 -3.71,4.34 -4.72,6.86z"/>
   <path class="fil5" d="M155.96 139.77c9.29,-3.32 25.68,-18.97 29.4,-26.13 -3.73,-7.18 -20.11,-22.81 -29.4,-26.14 0.87,1.22 21.77,19.73 21.77,26.13 -0,6.37 -20.95,24.99 -21.77,26.13z"/>
   <path class="fil5" d="M119 128.71c13.85,-3.63 13.8,-26.44 0.01,-30.13 3.81,14.6 3.91,15.54 -0.01,30.13z"/>
  </g>
 </g>
</svg>
