<?xml version="1.0" encoding="UTF-8"?>
<!DOCTYPE svg PUBLIC "-//W3C//DTD SVG 1.1//EN" "http://www.w3.org/Graphics/SVG/1.1/DTD/svg11.dtd">
<!-- Creator: CorelDRAW 2020 (64-Bit) -->
<svg xmlns="http://www.w3.org/2000/svg" xml:space="preserve" width="100.541mm" height="100.542mm" version="1.1" style="shape-rendering:geometricPrecision; text-rendering:geometricPrecision; image-rendering:optimizeQuality; fill-rule:evenodd; clip-rule:evenodd"
viewBox="0 0 76.1 76.1"
 xmlns:xlink="http://www.w3.org/1999/xlink"
 xmlns:xodm="http://www.corel.com/coreldraw/odm/2003">
 <defs>
  <style type="text/css">
   <![CDATA[
    .fil1 {fill:#F96332}
    .fil0 {fill:coral}
    .fil2 {fill:white}
   ]]>
  </style>
 </defs>
 <g id="Capa_x0020_1">
  <metadata id="CorelCorpID_0Corel-Layer"/>
  <circle class="fil0" cx="38.05" cy="38.05" r="38.05"/>
  <path class="fil1" d="M38.05 0c21.02,0 38.05,17.04 38.05,38.05 0,21.02 -17.04,38.05 -38.05,38.05l0 -76.1z"/>
  <g id="_2521296800752">
   <path class="fil0" d="M30.14 24.83c3.43,-0.97 6.23,1.65 6.81,4.26 0.74,3.37 -1.57,6.03 -4.14,6.7 -6.96,1.79 -10.22,-8.82 -2.67,-10.95zm12.66 -6.18l-2.85 0.05c-0.38,0.56 -0.37,1.32 -1.47,1.27 -1.03,-0.04 -0.99,-0.72 -1.36,-1.27l-2.29 -0.02c-0.29,0.41 -0.08,0.51 -0.52,0.93 -0.67,0.65 -3.14,0.38 -4.47,0.38 -2.03,0 -11.07,-0.29 -12.32,0.36 -1.76,0.91 -1.58,2.56 -1.58,4.77 0,4.23 0,8.46 0,12.68 0,4.07 -0.23,8.83 0.02,12.82 1.08,-1.31 4.37,-6.22 5.68,-8.05 1.29,-1.81 2.47,-3.98 5.76,-3.56 2.67,0.34 3.62,2.48 4.84,4.34 0.49,0.74 1.33,2.15 1.86,2.75 0.84,-1.17 1.73,-2.91 2.5,-4.23 1.08,-1.86 3.83,-7.25 5.34,-8.3 1.42,-0.99 3.21,-1.65 5.37,-1.12 2.95,0.73 4.84,4.05 6.9,6.73l5.94 7.75c0.15,-1.32 0.04,-20.85 0.04,-22.77 0,-2.01 -0.18,-3.22 -1.76,-3.91 -1.31,-0.58 -11.44,-0.17 -14.04,-0.27 -1.08,-0.04 -1.44,-0.36 -1.6,-1.35z"/>
   <path class="fil2" d="M16.46 54.81c0.19,-0.49 0.92,-1.45 1.24,-1.89l6.22 -8.89c0.71,-1.03 1.65,-2.98 3.65,-2.19 0.85,0.34 1,0.83 1.51,1.6l8.34 12.72 -16.74 0c-2.06,0 -3.37,0.02 -4.21,-1.35zm19.34 -6.03c0.23,-0.72 4.67,-8.21 5.44,-9.56 0.55,-0.96 1.24,-2.26 1.84,-3.02 0.63,-0.79 2.16,-1.49 3.63,-1.1 1.38,0.37 1.94,1.27 2.66,2.2 1.46,1.88 2.8,3.69 4.27,5.58l6.42 8.42c0.56,1.03 -0.03,3.25 -0.66,3.92 -1.01,1.09 -2.36,0.93 -4.06,0.93 -4.55,-0 -10.46,0.15 -14.7,-0.01l-2.44 -3.76c-0.71,-1.09 -1.57,-2.61 -2.4,-3.61zm7.01 -30.13c0.16,0.99 0.52,1.31 1.6,1.35 2.59,0.1 12.73,-0.31 14.04,0.27 1.57,0.7 1.76,1.91 1.76,3.91 -0,1.92 0.11,21.46 -0.04,22.77l-5.94 -7.75c-2.07,-2.68 -3.95,-6 -6.9,-6.73 -2.16,-0.53 -3.95,0.13 -5.37,1.12 -1.5,1.05 -4.25,6.43 -5.34,8.3 -0.77,1.33 -1.66,3.06 -2.5,4.23 -0.53,-0.61 -1.37,-2.01 -1.86,-2.75 -1.23,-1.87 -2.18,-4 -4.84,-4.34 -3.29,-0.43 -4.46,1.75 -5.76,3.56 -1.31,1.83 -4.6,6.74 -5.68,8.05 -0.25,-3.99 -0.02,-8.75 -0.02,-12.82 0,-4.23 0,-8.46 0,-12.68 0,-2.21 -0.18,-3.86 1.58,-4.77 1.25,-0.65 10.29,-0.36 12.32,-0.36 1.33,0 3.8,0.26 4.47,-0.38 0.44,-0.42 0.23,-0.52 0.52,-0.93 -0.75,-1.78 -0.7,-1.38 -4.18,-1.38l-11.06 -0c-2.22,-0 -2.97,0.26 -4.26,1.27 -0.93,0.73 -1.85,2.14 -2.05,3.48 -0.15,1.02 -0.03,24.71 -0.03,27.63 0,3.22 -0.59,6.34 2.7,8.36 1.51,0.93 2.38,0.81 4.72,0.81l33.19 0c3.05,0 6.34,0.56 8.28,-2.79 0.92,-1.6 0.76,-2.41 0.76,-4.77l0 -27.66c0,-2.22 -0.26,-2.97 -1.27,-4.26 -2.2,-2.82 -5.57,-2.08 -8.99,-2.08l-8.38 -0.01c-0.9,0.02 -1.48,0.49 -1.46,1.36z"/>
   <path class="fil0" d="M35.8 48.78c0.82,0.99 1.69,2.52 2.4,3.61l2.44 3.76c4.24,0.16 10.15,0.01 14.7,0.01 1.7,0 3.04,0.16 4.06,-0.93 0.62,-0.67 1.22,-2.89 0.66,-3.92l-6.42 -8.42c-1.47,-1.89 -2.81,-3.69 -4.27,-5.58 -0.72,-0.92 -1.28,-1.83 -2.66,-2.2 -1.47,-0.39 -3,0.31 -3.63,1.1 -0.6,0.75 -1.29,2.05 -1.84,3.02 -0.77,1.35 -5.21,8.84 -5.44,9.56z"/>
   <path class="fil0" d="M16.46 54.81c0.84,1.37 2.15,1.35 4.21,1.35l16.74 -0 -8.34 -12.72c-0.5,-0.77 -0.66,-1.26 -1.51,-1.6 -1.99,-0.79 -2.94,1.17 -3.65,2.19l-6.22 8.89c-0.32,0.43 -1.05,1.4 -1.24,1.89z"/>
   <path class="fil2" d="M28.52 30.79c-0.6,-4.06 5.43,-4.52 5.85,-0.9 0.2,1.73 -0.96,3.06 -2.39,3.31 -1.78,0.31 -3.25,-0.97 -3.46,-2.41zm1.63 -5.97c-7.56,2.14 -4.3,12.74 2.67,10.95 2.57,-0.66 4.88,-3.33 4.14,-6.7 -0.57,-2.61 -3.38,-5.23 -6.81,-4.26z"/>
   <path class="fil0" d="M28.52 30.79c0.21,1.44 1.68,2.72 3.46,2.41 1.42,-0.25 2.59,-1.59 2.39,-3.31 -0.42,-3.62 -6.45,-3.16 -5.85,0.9z"/>
   <path class="fil2" d="M37.12 18.7c0.37,0.55 0.33,1.23 1.36,1.27 1.11,0.04 1.09,-0.71 1.47,-1.27 -0.09,-0.23 -0.17,-1.37 -1.35,-1.41 -0.48,-0.02 -0.73,0.12 -0.99,0.37 -0.5,0.46 -0.26,0.45 -0.49,1.05z"/>
  </g>
 </g>
</svg>
