<?xml version="1.0" encoding="UTF-8"?>
<!DOCTYPE svg PUBLIC "-//W3C//DTD SVG 1.1//EN" "http://www.w3.org/Graphics/SVG/1.1/DTD/svg11.dtd">
<!-- Creator: CorelDRAW 2020 (64-Bit) -->
<svg xmlns="http://www.w3.org/2000/svg" xml:space="preserve" width="15.9572mm" height="15.9572mm" version="1.1" style="shape-rendering:geometricPrecision; text-rendering:geometricPrecision; image-rendering:optimizeQuality; fill-rule:evenodd; clip-rule:evenodd"
viewBox="0 0 3.06 3.06"
 xmlns:xlink="http://www.w3.org/1999/xlink"
 xmlns:xodm="http://www.corel.com/coreldraw/odm/2003">
 <defs>
  <style type="text/css">
   <![CDATA[
    .fil2 {fill:black}
    .fil6 {fill:#26A599}
    .fil7 {fill:#322824}
    .fil1 {fill:#8D6E63}
    .fil8 {fill:#E3E9EB}
    .fil0 {fill:#EBECF1}
    .fil3 {fill:#EECEB2}
    .fil4 {fill:#FDC728}
    .fil5 {fill:#FEF8C3}
    .fil9 {fill:white}
   ]]>
  </style>
 </defs>
 <g id="Capa_x0020_1">
  <metadata id="CorelCorpID_0Corel-Layer"/>
  <circle class="fil0" cx="1.53" cy="1.53" r="1.53"/>
  <path class="fil1" d="M1.14 2.2c0.06,-0.03 0.05,0.05 0.05,0.09 -0,0.04 0.01,0.12 -0.02,0.13 -0.06,0.02 -0.05,-0.05 -0.05,-0.09 0,-0.04 -0.01,-0.12 0.02,-0.13zm0.87 -0.6l-0.08 0c-0.02,0.04 -0.08,0.14 -0.1,0.15 0.01,0.02 -0.02,0.01 0.03,0.01 0,0 0.02,-0 0.02,-0 0.02,-0 0.04,-0 0.06,-0 0,-0.04 0.05,-0.04 0.08,-0.02 0.1,0.05 0.09,0.19 -0.02,0.22 -0.04,0.01 -0.19,0 -0.25,0 -0.09,0 -0.7,0.01 -0.74,-0 -0.1,-0.03 -0.12,-0.18 -0.02,-0.22 0.04,-0.01 0.08,-0.01 0.08,0.02 0.03,0 0.07,0 0.11,-0 -0.01,-0.01 -0.02,-0.02 -0.03,-0.03 -0.01,-0.01 -0.02,-0.03 -0.03,-0.04 -0.01,-0.02 -0.04,-0.07 -0.05,-0.08l-0.07 -0c-0,0.05 -0.02,0.05 -0.06,0.05l-0.33 -0 0 0.54c0.09,0 0.18,0 0.27,0 0.17,0 0.16,-0.02 0.16,0.12 0,0.04 0.01,0.1 -0.02,0.11 -0.02,0.01 -0.37,0 -0.4,0l0 0.08 1.71 0 0 -0.85c-0.06,0 -0.12,0 -0.18,0 -0.08,0 -0.13,0.01 -0.13,-0.05z"/>
  <path class="fil2" d="M1.47 1.19c0.14,-0.02 0.25,0.08 0.26,0.19 0.02,0.14 -0.08,0.25 -0.19,0.27 -0.14,0.02 -0.25,-0.08 -0.27,-0.19 -0.02,-0.14 0.08,-0.25 0.2,-0.27zm0.07 -0.08c-0.1,0.01 -0.14,0 -0.21,0.06 -0.2,0.15 -0.15,0.43 0.04,0.53 0.26,0.13 0.55,-0.15 0.42,-0.41 -0.02,-0.05 -0.05,-0.06 -0.06,-0.09l0.06 -0.05c0.05,0.04 0.1,0.16 0.11,0.24 0.02,0.29 -0.28,0.52 -0.57,0.37 -0.24,-0.12 -0.29,-0.48 -0.03,-0.66 0.07,-0.05 0.17,-0.07 0.28,-0.06 -0.01,0.01 -0.01,0.02 -0.02,0.03 -0.01,0.01 -0,0.03 -0.01,0.04zm-0.19 -0.23c0,-0.09 0.07,-0.16 0.16,-0.16 0.09,0 0.16,0.07 0.16,0.16 0,0.04 -0.02,0.06 -0.02,0.09 -0.02,0 -0.03,-0.01 -0.05,-0.01 -0.05,-0.01 -0.11,-0.01 -0.16,-0 -0.02,0 -0.03,0.01 -0.05,0.01 -0.01,-0.02 -0.03,-0.06 -0.03,-0.09zm-0.32 -0.07c-0.04,0 -0.25,-0.01 -0.29,-0.03 -0.03,-0.02 -0.02,-0.06 0.01,-0.07 0.01,-0 0.16,0.02 0.19,0.02 0.07,0 0.14,0 0.21,-0l-0.03 0.08c-0.02,0.01 -0.06,0 -0.09,0zm0.2 0.23c-0.08,-0.08 -0.06,-0.34 0.13,-0.44 0.09,-0.05 0.18,-0.03 0.29,-0.03 0.11,0 0.21,0 0.32,0l-0 0.34c-0.15,-0.03 -0.13,-0.05 -0.16,0.05 -0.03,0.1 -0.12,0.19 -0.15,0.19 -0.03,-0 -0.07,-0.04 -0.02,-0.07 0.06,-0.05 0.11,-0.13 0.1,-0.23 -0.03,-0.24 -0.36,-0.29 -0.45,-0.06 -0.05,0.11 -0,0.16 0.01,0.22 -0.03,0.01 -0.04,0.02 -0.06,0.03zm-0.21 -0.44c-0.03,-0.01 -0.14,-0.04 -0.09,-0.09 0.02,-0.02 0.05,-0.01 0.08,0 0.1,0.04 0.13,0.04 0.24,0.07 0,0 0,0 0,0 -0,0.01 -0.04,0.05 -0.05,0.06 -0.05,-0 -0.12,-0.03 -0.16,-0.04zm1.02 0.33l0 -0.02 -0 -0.43 0.26 -0.06 -0.15 0.58 -0.09 -0.03c-0.02,-0.01 -0.02,-0 -0.02,-0.04zm-0.97 0.67c0.01,0.01 0.04,0.06 0.05,0.08 0.01,0.01 0.02,0.03 0.03,0.04 0.01,0.01 0.02,0.02 0.03,0.03l0.05 0.04c0.05,0.04 0.16,0.09 0.22,0.08 -0.1,0.01 -0.22,0 -0.32,0 -0.04,0 -0.13,0.02 -0.13,-0.04 0,-0.06 0.09,-0.02 0.07,-0.09 -0,-0.04 -0.04,-0.04 -0.08,-0.02 -0.11,0.04 -0.09,0.19 0.02,0.22 0.04,0.01 0.65,0 0.74,0 0.05,0 0.21,0.01 0.25,-0 0.1,-0.03 0.12,-0.17 0.02,-0.22 -0.03,-0.02 -0.08,-0.02 -0.08,0.02 -0.01,0.07 0.07,0.02 0.07,0.08 0,0.06 -0.08,0.04 -0.12,0.04 -0.1,0 -0.23,0.01 -0.33,-0 0.07,-0 0.2,-0.06 0.25,-0.12l0.02 -0.02c0.03,-0.01 0.09,-0.1 0.1,-0.15 0.04,-0.07 0.05,-0.2 0.03,-0.29 -0.01,-0.05 -0.03,-0.08 -0.05,-0.12 -0.01,-0.03 -0.05,-0.08 -0.08,-0.1 0.01,-0.03 0.05,-0.08 0.05,-0.12 0.03,0 0.06,0.01 0.08,0.01 0,0.05 0.07,0.06 0.15,0.08 0.13,0.04 0.09,0.05 0.17,-0.26l0.09 -0.38c0.04,-0.17 -0.02,-0.1 -0.28,-0.05 -0.14,0.03 -0.14,0.02 -0.14,0.1 -0.11,0 -0.48,-0.01 -0.57,0.01 -0.1,0.03 -0.3,-0.04 -0.39,-0.08 -0.02,-0.01 -0.06,-0.01 -0.08,-0.01 -0.05,0.01 -0.08,0.05 -0.08,0.11 -0,0.04 0.02,0.08 0.05,0.1l0.03 0.02c-0.09,0 -0.17,-0.04 -0.22,-0 -0.08,0.05 -0.09,0.2 0.05,0.22 0.08,0.01 0.22,0.03 0.3,0.03 0.03,0 0.04,-0 0.06,-0 0,0.07 0.01,0.1 0.03,0.16 0.01,0.02 0.01,0.03 0.02,0.04 -0.01,0.02 -0.02,0.03 -0.04,0.05 -0.04,0.06 -0.07,0.11 -0.09,0.18 -0.03,0.1 -0.01,0.21 0.02,0.29z"/>
  <path class="fil2" d="M0.61 2.28l0.35 0 -0 0.08 -0.34 0 -0 -0.08zm1.4 -0.67c0,0.06 0.05,0.05 0.13,0.05 0.06,0 0.12,0 0.18,0l-0 0.85 -1.71 0 -0 -0.08c0.04,0 0.38,0 0.4,-0 0.03,-0.01 0.02,-0.08 0.02,-0.11 0,-0.13 0.01,-0.12 -0.16,-0.12 -0.09,0 -0.18,0 -0.27,0l-0 -0.54 0.33 0c0.04,0 0.06,-0 0.06,-0.05 -0,-0.02 -0.02,-0.03 -0.04,-0.03l-0.37 0c-0.06,-0 -0.05,0.03 -0.05,0.1 0,0.2 0,0.4 0,0.6 0,0.34 -0.04,0.31 0.14,0.31 0.55,0 1.1,-0 1.65,0 0.09,0 0.07,-0.01 0.07,-0.23 0,-0.08 0,-0.7 0,-0.75 -0,-0.05 -0.06,-0.03 -0.12,-0.03 -0.05,0 -0.1,0 -0.15,0 -0.06,0 -0.11,-0.01 -0.12,0.03z"/>
  <path class="fil3" d="M1.23 1.04c0.02,-0.01 0.04,-0.03 0.06,-0.03 -0.01,-0.05 -0.06,-0.11 -0.01,-0.22 0.1,-0.22 0.42,-0.17 0.45,0.06 0.01,0.1 -0.04,0.18 -0.1,0.23 -0.04,0.03 -0.01,0.07 0.02,0.07 0.03,0 0.12,-0.08 0.15,-0.19 0.03,-0.11 0.02,-0.08 0.16,-0.05l0 -0.34c-0.11,0 -0.21,0 -0.32,0 -0.11,0 -0.2,-0.01 -0.29,0.03 -0.19,0.1 -0.21,0.35 -0.13,0.44z"/>
  <path class="fil4" d="M1.54 1.11c0,-0.01 0,-0.02 0.01,-0.04 0,-0.01 0.01,-0.02 0.02,-0.03 -0.11,-0.01 -0.2,0.01 -0.28,0.06 -0.25,0.18 -0.2,0.54 0.03,0.66 0.29,0.15 0.59,-0.08 0.57,-0.37 -0.01,-0.08 -0.05,-0.2 -0.11,-0.24l-0.06 0.05c0.01,0.02 0.03,0.03 0.06,0.09 0.13,0.26 -0.16,0.54 -0.42,0.41 -0.19,-0.1 -0.24,-0.38 -0.04,-0.53 0.07,-0.06 0.12,-0.05 0.21,-0.06z"/>
  <path class="fil5" d="M1.54 1.47c-0.04,-0.01 -0.08,0.01 -0.12,-0.03 -0.02,-0.02 -0.04,-0.06 -0.02,-0.11 0.02,-0.06 0.06,-0.04 0.07,-0.07 0.01,-0.02 0.02,-0.03 0.04,-0.03 0.02,0 0.02,0.02 0.04,0.04 0.11,0 0.07,0.06 0.06,0.07 -0.03,0.02 -0.1,0 -0.14,0.01l-0 0.02c0.03,0.03 0.08,-0.01 0.12,0.03 0.03,0.02 0.05,0.06 0.03,0.11 -0.02,0.05 -0.06,0.06 -0.07,0.06 -0.02,0.01 -0.01,0.05 -0.06,0.04 -0.01,-0 -0.02,-0.01 -0.02,-0.02l-0.01 -0.02c-0.03,0 -0.05,0 -0.07,-0.02 -0.01,-0.02 0,-0.05 0.02,-0.06 0.05,-0.01 0.14,0.02 0.12,-0.04zm-0.07 -0.27c-0.12,0.02 -0.22,0.12 -0.2,0.27 0.02,0.11 0.13,0.22 0.27,0.19 0.12,-0.02 0.22,-0.13 0.19,-0.27 -0.02,-0.12 -0.13,-0.22 -0.26,-0.19z"/>
  <path class="fil6" d="M2.05 0.95c0,0.02 0,0.02 0.02,0.02l0.09 0.03 0.15 -0.58 -0.26 0.06 0 0.42c0,0.02 -0,0.03 -0,0.05z"/>
  <path class="fil2" d="M1.54 1.47c0.02,0.06 -0.08,0.02 -0.12,0.04 -0.02,0.01 -0.03,0.03 -0.02,0.06 0.01,0.02 0.04,0.02 0.07,0.02l0.01 0.02c0.01,0.01 0.01,0.01 0.02,0.02 0.04,0.01 0.04,-0.03 0.06,-0.04 0.01,-0.01 0.05,-0.01 0.07,-0.06 0.02,-0.05 -0.01,-0.09 -0.03,-0.11 -0.05,-0.04 -0.09,-0 -0.12,-0.03l0 -0.02c0.04,-0.01 0.11,0.01 0.14,-0.01 0.01,-0.01 0.05,-0.07 -0.06,-0.07 -0.01,-0.01 -0.01,-0.03 -0.04,-0.04 -0.03,-0.01 -0.04,0.01 -0.04,0.03 -0.02,0.03 -0.05,0.02 -0.07,0.07 -0.02,0.05 0,0.08 0.02,0.11 0.04,0.04 0.07,0.02 0.12,0.03z"/>
  <path class="fil7" d="M1.93 1.77c-0.02,0 -0.04,-0 -0.06,0 -0,0 -0.02,0 -0.02,0 -0.05,-0 -0.01,0.01 -0.03,-0.01l-0.02 0.02c-0.05,0.06 -0.18,0.12 -0.25,0.12 0.1,0.01 0.23,0 0.33,0 0.04,0 0.13,0.02 0.12,-0.04 -0,-0.06 -0.09,-0.02 -0.07,-0.08z"/>
  <path class="fil7" d="M1.18 1.76c-0.03,0.01 -0.07,0 -0.11,0 0.01,0.06 -0.07,0.03 -0.07,0.09 -0,0.05 0.08,0.04 0.13,0.04 0.1,0 0.23,0.01 0.32,-0 -0.05,0 -0.17,-0.04 -0.22,-0.08l-0.05 -0.04z"/>
  <path class="fil3" d="M1.03 0.81c0.03,0 0.07,0 0.09,-0l0.03 -0.08c-0.07,0 -0.14,0.01 -0.21,0 -0.03,-0 -0.18,-0.02 -0.19,-0.02 -0.03,0.01 -0.03,0.05 -0.01,0.07 0.04,0.02 0.25,0.03 0.29,0.03z"/>
  <polygon class="fil8" points="0.61,2.35 0.96,2.35 0.96,2.28 0.61,2.28 "/>
  <path class="fil3" d="M1.19 0.65c0.01,-0.01 0.05,-0.05 0.05,-0.06 0,-0 0,-0 -0,-0 -0.1,-0.02 -0.14,-0.02 -0.24,-0.07 -0.03,-0.01 -0.05,-0.03 -0.08,-0 -0.05,0.05 0.06,0.08 0.09,0.09 0.04,0.01 0.12,0.04 0.16,0.04z"/>
  <path class="fil2" d="M1.14 2.2c-0.04,0.02 -0.02,0.09 -0.02,0.13 -0,0.04 -0.01,0.12 0.05,0.09 0.04,-0.01 0.02,-0.09 0.02,-0.13 0,-0.04 0,-0.12 -0.05,-0.09z"/>
  <circle class="fil9" cx="2.12" cy="0.89" r="0.05"/>
 </g>
</svg>
