<?xml version="1.0" encoding="UTF-8"?>
<!DOCTYPE svg PUBLIC "-//W3C//DTD SVG 1.1//EN" "http://www.w3.org/Graphics/SVG/1.1/DTD/svg11.dtd">
<!-- Creator: CorelDRAW 2020 (64-Bit) -->
<svg xmlns="http://www.w3.org/2000/svg" xml:space="preserve" width="90.9273mm" height="111.306mm" version="1.1" style="shape-rendering:geometricPrecision; text-rendering:geometricPrecision; image-rendering:optimizeQuality; fill-rule:evenodd; clip-rule:evenodd"
viewBox="0 0 47.23 57.82"
 xmlns:xlink="http://www.w3.org/1999/xlink"
 xmlns:xodm="http://www.corel.com/coreldraw/odm/2003">
 <defs>
  <style type="text/css">
   <![CDATA[
    .fil1 {fill:black}
    .fil10 {fill:#3D587B}
    .fil6 {fill:#3F597D}
    .fil3 {fill:#5C7389}
    .fil11 {fill:#7E7D7D}
    .fil5 {fill:#AAD541}
    .fil8 {fill:#ABD641}
    .fil4 {fill:#B6E445}
    .fil2 {fill:#F0E8E6}
    .fil0 {fill:#F9F7F7}
    .fil9 {fill:#FEA442}
    .fil7 {fill:#FFBF54}
   ]]>
  </style>
 </defs>
 <g id="Capa_x0020_1">
  <metadata id="CorelCorpID_0Corel-Layer"/>
  <g id="_1703349421792">
   <path class="fil0" d="M27.28 51.72c-0.31,0.74 -1.81,0.5 -2.74,0.5 -1,0 -7.36,0.12 -7.84,-0.1 -0.39,-0.18 -0.58,-0.73 -0.3,-1.19 0.37,-0.63 1.88,-0.4 2.73,-0.4 0.94,0 7.35,-0.11 7.77,0.1 0.38,0.18 0.58,0.67 0.39,1.1zm-4.08 -5.53c-0.27,0.66 -1.09,0.51 -1.93,0.5l-12.2 -0c-0.95,0 -4.45,0.4 -3.41,-1.31 0.39,-0.65 3.42,-0.38 4.43,-0.38l9.71 0c1.08,0 4.08,-0.45 3.4,1.19zm3.84 -41.31c0.49,0.16 1.93,0.19 2.33,-0.05 0.28,-0.74 0.69,-0.63 1.61,-0.63 2.38,0.01 4.55,-0.4 5.33,1.09 0.46,0.89 0.28,3 -0.2,3.67 -0.66,0.92 -2.14,0.75 -3.55,0.75l-21.68 0c-1.55,0 -2.63,0.24 -3.43,-0.86 -0.47,-0.66 -0.55,-2.76 -0.12,-3.6 0.55,-1.07 1.77,-1.05 3.22,-1.05l12.87 0c2.04,0 3.3,-0.32 3.62,0.67zm14.79 49.73l0 -3.79c-0.15,-0.34 -0.22,-0.27 -0.56,-0.47l-5.94 -6.37c-1.01,-1.19 0.25,-0.26 -2.3,-0.85l-23.4 -0.05c-1.06,0 -3.74,0.39 -4.05,-0.55 -0.53,-1.59 2.21,-1.15 3.26,-1.15l22.54 0c-0.42,-2.38 0.97,-1.27 -1.2,-3.56 -0.28,0.05 -1.96,1.06 -3.23,1.51 -1.21,0.43 -2.62,0.7 -4,0.76 -1.5,0.06 -2.91,-0.15 -4.28,-0.48 -1.32,-0.32 -7.46,-0.16 -9.27,-0.16 -1.12,0 -4.01,0.5 -3.87,-0.95 0.1,-1.08 2.28,-0.75 3.98,-0.75 1.64,0 3.27,0.01 4.91,-0l-0.46 -0.44c-2.31,-1.78 -1.05,-1.49 -4,-1.48 -0.91,0 -2.35,0.06 -1.83,-1.2 0.32,-0.78 1.86,-0.49 2.66,-0.49 -0.11,-0.28 -0.91,-1.68 -1.1,-1.92 -1.07,-0 -3.8,0.39 -4.12,-0.55 -0.54,-1.62 2.36,-1.15 3.43,-1.15 -0.32,-1.49 -0.27,-1.89 -0.84,-1.93 -0.25,-0.02 -0.75,0.01 -1.02,0.01 -0.6,0.01 -1.23,0.03 -1.49,-0.39 -0.39,-0.63 0.02,-1.1 0.48,-1.24l0.33 -0.15 1.84 0.02 -0.01 -1.81 -1.82 0 -0.29 -0.13c-0.89,-0.23 -0.83,-1.26 -0.14,-1.54 0.37,-0.15 2.04,-0.07 2.59,-0.08l0.46 -1.9c-1.1,-0.01 -4.02,0.46 -3.51,-1.15 0.3,-0.95 3.07,-0.55 4.17,-0.55 0.28,-0.21 1.18,-1.71 1.22,-1.92 -1.62,0 -6.47,0.62 -5.31,-1.31 0.49,-0.81 4.53,-0.13 6.58,-0.38 0.37,-0.05 2.19,-1.56 2.65,-1.91 -1.72,-0.06 -4.51,0.19 -6.04,-0.03 -1.08,-0.15 -0.97,-1.43 -0.14,-1.64l9.18 -0.04c2.07,0 3.68,-0.58 5.8,-0.34 0.97,0.11 1.81,0.34 2.78,0.34l9.26 -0c0.87,-0 2.16,-0.24 2.35,0.66 0.26,1.28 -1.5,1.03 -2.12,1.03 -1.88,-0 -4.32,-0.13 -6.14,0.02 0.17,0.08 2.03,1.42 2.25,1.88 1.89,0.09 7.05,-0.64 5.91,1.3 -0.4,0.68 -2.99,0.41 -4.24,0.41 0.11,0.43 0.81,1.22 1.05,1.92 0.93,0.01 2.87,-0.33 3.23,0.49 0.66,1.5 -1.86,1.2 -2.37,1.2 -0,1.04 1.16,2.98 0.57,6.79 -0.55,3.57 -1.8,4.67 -2.16,5.69 0.36,0.48 1.09,0.86 1.54,1.35 0.67,-0.07 0.82,-0.33 1.67,-0.18 0.56,0.1 0.9,0.36 1.22,0.69 0.86,0.89 1.22,1.01 1.05,2.81 0.47,0.27 0.66,0.52 1.09,0.93 0.23,0.22 0.92,0.86 1.2,0.99l0 -33.8c0,-5.98 1.26,-4.97 -9.5,-4.97 -9.62,0 -19.52,-0.11 -29.07,0 -0.22,0.89 -0.08,21.32 -0.08,22.81 0,7.64 0,15.28 0,22.92 0,1.84 -0.07,3.82 -0,5.65 0.08,2.05 2.33,1.53 4.19,1.53 11.48,0 22.97,0 34.45,0z"/>
   <path class="fil1" d="M37.09 41.33l1.44 -1.46 5.76 5.1c2.26,1.77 0.78,3.99 -0.18,4.01 -0.16,0.12 -0.26,0.21 -0.71,0.23 -0.82,0.04 -1.44,-0.3 -1.91,-0.88l-3.55 -4.01c-0.36,-0.35 -0.49,-0.61 -0.91,-1.01 -0.28,-0.27 -0.64,-0.69 -0.86,-1.08 0.32,-0.34 0.58,-0.64 0.92,-0.9zm-33.45 -41.33l32.88 0 4.1 0c1.4,0.19 2.57,0.79 2.86,2.41 0.16,0.92 0.04,36.55 0.04,37.34 0,3.04 -0.35,1.71 1.33,3.42 0.71,0.72 1.59,1.1 2.13,2.5 1,2.56 -1.05,5.26 -3.46,5.26 0,1.28 0.01,2.57 0,3.84 -0.01,1.27 -0.53,1.92 -1.26,2.47 -0.56,0.42 -1.03,0.55 -1.64,0.58l-1.51 0 -33.76 0 -2.3 0c-0.44,-0.03 -0.84,-0.11 -1.17,-0.26 -2.31,-1.09 -1.84,-3.48 -1.84,-5.61 0,-1.47 -0.32,-2.78 0.9,-2.83 1.14,0.2 0.84,1.28 0.84,2.38 -0,1 -0.03,2.05 -0,3.05 0.06,2.09 2.17,1.58 4.58,1.58 8.21,0 16.41,0 24.62,0l9.27 0c1.06,-0.03 1.51,-0.5 1.59,-1.52l0 -3.79c-0.15,-0.34 -0.22,-0.27 -0.56,-0.47l-5.94 -6.37c-1.01,-1.19 0.25,-0.26 -2.3,-0.85l-23.4 -0.05c-1.06,0 -3.74,0.39 -4.05,-0.55 -0.53,-1.59 2.21,-1.15 3.26,-1.15l22.54 0c-0.42,-2.38 0.97,-1.27 -1.2,-3.56 -0.28,0.05 -1.96,1.06 -3.23,1.51 -1.21,0.43 -2.62,0.7 -4,0.76 -1.5,0.06 -2.91,-0.15 -4.28,-0.48 -1.32,-0.32 -7.46,-0.16 -9.27,-0.16 -1.12,0 -4.01,0.5 -3.87,-0.95 0.1,-1.08 2.28,-0.75 3.98,-0.75 1.64,0 3.27,0.01 4.91,-0l-0.46 -0.44c-2.31,-1.78 -1.05,-1.49 -4,-1.48 -0.91,0 -2.35,0.06 -1.83,-1.2 0.32,-0.78 1.86,-0.49 2.66,-0.49 -0.11,-0.28 -0.91,-1.68 -1.1,-1.92 -1.07,-0 -3.8,0.39 -4.12,-0.55 -0.54,-1.62 2.36,-1.15 3.43,-1.15 -0.32,-1.49 -0.27,-1.89 -0.84,-1.93 -0.25,-0.02 -0.75,0.01 -1.02,0.01 -0.6,0.01 -1.23,0.03 -1.49,-0.39 -0.39,-0.63 0.02,-1.1 0.48,-1.24l2.2 -0.03 0.06 -1.99 -2.22 -0.05c-0.89,-0.23 -0.83,-1.26 -0.14,-1.54 0.37,-0.15 2.04,-0.07 2.59,-0.08l0.46 -1.9c-1.1,-0.01 -4.02,0.46 -3.51,-1.15 0.3,-0.95 3.07,-0.55 4.17,-0.55 0.28,-0.21 1.18,-1.71 1.22,-1.92 -1.62,0 -6.47,0.62 -5.31,-1.31 0.49,-0.81 4.53,-0.13 6.58,-0.38 0.37,-0.05 2.19,-1.56 2.65,-1.91 -1.72,-0.06 -4.51,0.19 -6.04,-0.03 -1.08,-0.15 -0.97,-1.43 -0.14,-1.64l9.18 -0.04c2.07,0 3.68,-0.58 5.8,-0.34 0.97,0.11 1.81,0.34 2.78,0.34l9.26 -0c0.87,-0 2.16,-0.24 2.35,0.66 0.26,1.28 -1.5,1.03 -2.12,1.03 -1.88,-0 -4.32,-0.13 -6.14,0.02 0.17,0.08 2.03,1.42 2.25,1.88 1.89,0.09 7.05,-0.64 5.91,1.3 -0.4,0.68 -2.99,0.41 -4.24,0.41 0.11,0.43 0.81,1.22 1.05,1.92 0.93,0.01 2.87,-0.33 3.23,0.49 0.66,1.5 -1.86,1.2 -2.37,1.2 -0,1.04 1.16,2.98 0.57,6.79 -0.55,3.57 -1.8,4.67 -2.16,5.69 0.36,0.48 1.09,0.86 1.54,1.35 0.67,-0.07 0.82,-0.33 1.67,-0.18 0.56,0.1 0.9,0.36 1.22,0.69 0.86,0.89 1.22,1.01 1.05,2.81 0.47,0.27 0.66,0.52 1.09,0.93 0.23,0.22 0.92,0.86 1.2,0.99l0 -33.8c0,-5.98 1.26,-4.97 -9.5,-4.97 -9.62,0 -19.52,-0.11 -29.07,0 -1.95,0.17 -1.48,2.09 -1.48,4.51l0 38.51c0,1.11 0.24,1.94 -0.84,2.11 -0.83,0.03 -0.91,-0.57 -0.91,-1.43l0 -39.87c0,-1.63 -0.19,-3.1 0.51,-4.12 0.92,-1.33 1.81,-1.41 3.08,-1.42zm32.2 40.04c-0.25,0.46 -0.67,0.77 -1.04,1.15 -0.49,0.49 -0.78,0.65 -1.39,0.1 -0.62,-0.55 -0.54,-0.95 0.01,-1.49 0.41,-0.39 0.72,-0.84 1.21,-1.1 0.14,-0.36 0.77,-0.87 1.05,-1.16 0.42,-0.42 0.62,-0.88 1.41,-0.82 0.14,0.1 0.7,0.69 0.8,0.87 0.16,0.56 -0.94,1.42 -1.46,1.94l-0.59 0.49zm-2.29 -2.85c-0.22,0.37 -0.56,0.65 -0.86,0.93 -0.44,-0.31 -0.71,-0.99 -1.15,-1.25 0.26,-0.51 1.09,-1.27 1.49,-1.57l0.6 0.48 0.84 0.58 -0.91 0.84zm-6.61 0.26c-0.29,0.28 -0.63,0.37 -1.58,0.61 -6.28,1.6 -12.7,-2 -14.7,-8.11 -0.59,-1.79 -1.01,-6.2 -0.04,-7.22 -0.02,-1.64 2.19,-4.45 2.9,-5.21 1.08,-1.16 2.88,-2.41 4.92,-3.1 2.21,-0.76 4.78,-0.87 7.1,-0.24 2.33,0.64 3.78,1.64 5.19,2.82 3.14,2.63 4.6,7.64 3.69,11.82 -0.56,2.57 -2.05,4.87 -3.73,6.43 -0.65,0.6 -2.9,2.19 -3.73,2.2z"/>
   <path class="fil0" d="M26 26.81c-0.34,0.38 -1.36,1.17 -1.48,1.65 0.51,0.95 -0.36,1.45 -1.36,2.46 -2.08,2.09 -3.07,2.08 -5.16,0.02 -0.87,-0.86 -3.51,-3.17 -3.72,-4.3 -0.25,-1.31 0.4,-2.29 1.18,-2.75 2.38,-1.38 4.07,1.53 5.13,2.36 0.51,-0.31 3.93,-3.83 4.81,-4.73 2.31,-2.34 5.52,0.46 4.07,2.94 -0.34,0.57 -1.07,1.2 -1.51,1.65 -0.62,0.63 -0.83,1.16 -1.96,0.7zm-10.49 6.49c0.11,0.32 0.06,0.22 0.34,0.47 0.16,0.14 0.27,0.22 0.44,0.34 0.29,0.21 0.61,0.51 1.05,0.55 0.66,-0.5 2.3,0.46 3.41,0.65 3.75,0.65 7.36,-1.09 9.32,-3.92 4.62,-6.69 -1.06,-15.73 -9.11,-14.54 -4.9,0.73 -8.36,5.18 -7.92,10.13 0.16,1.83 0.89,3.5 1.92,4.86 0.37,0.49 0.75,0.66 0.55,1.47z"/>
   <path class="fil2" d="M0.94 46.83l0 2.29c1.14,0.2 0.84,1.28 0.84,2.38 -0,1 -0.03,2.05 -0,3.05 0.06,2.09 2.17,1.58 4.58,1.58 8.21,0 16.41,0 24.62,0l9.27 0c1.06,-0.03 1.51,-0.5 1.59,-1.52 -11.48,0 -22.97,0 -34.45,0 -1.86,0 -4.11,0.52 -4.19,-1.53 -0.07,-1.83 0,-3.81 0,-5.65 0,-7.64 0,-15.28 0,-22.92 0,-1.49 -0.14,-21.92 0.08,-22.81 -1.95,0.17 -1.48,2.09 -1.48,4.51l0 38.51c0,1.11 0.24,1.94 -0.84,2.11z"/>
   <path class="fil1" d="M15.51 33.3c0.2,-0.81 -0.17,-0.97 -0.55,-1.47 -1.03,-1.36 -1.75,-3.02 -1.92,-4.86 -0.44,-4.95 3.01,-9.4 7.92,-10.13 8.05,-1.19 13.73,7.85 9.11,14.54 -1.96,2.84 -5.57,4.58 -9.32,3.92 -1.11,-0.19 -2.75,-1.15 -3.41,-0.65 -0.47,0.78 -0.25,1.19 0.58,1.55 8.47,3.58 16.96,-3.74 15.26,-12.32 -1.81,-9.12 -13.52,-11.97 -19.41,-4.74 -3.21,3.94 -3.37,9.75 0.1,14 0.62,0.76 0.95,0.8 1.64,0.16z"/>
   <path class="fil1" d="M29.37 4.83l0.03 0.64c0.83,0.64 1.28,0.43 2.48,0.42 3.11,-0 2.96,-0.39 2.95,1.3 0,0.9 -0,0.84 -0.91,0.83 -4.29,-0.06 -24.53,0.22 -25.13,-0.13l0.03 -1.94c0.88,-0.18 15.98,-0.03 17.64,-0.08 0.39,-0.23 0.61,-0.42 0.58,-1 -0.32,-1 -1.58,-0.67 -3.62,-0.67l-12.87 -0c-1.45,-0 -2.67,-0.02 -3.22,1.05 -0.43,0.84 -0.35,2.94 0.12,3.6 0.8,1.1 1.88,0.86 3.43,0.86l21.68 0c1.4,0 2.89,0.18 3.55,-0.75 0.48,-0.67 0.66,-2.78 0.2,-3.67 -0.78,-1.49 -2.95,-1.08 -5.33,-1.09 -0.92,-0.01 -1.33,-0.12 -1.61,0.63z"/>
   <path class="fil3" d="M17.34 34.66c-0.44,-0.04 -0.75,-0.34 -1.05,-0.55 -0.18,-0.13 -0.29,-0.2 -0.44,-0.34 -0.27,-0.25 -0.23,-0.15 -0.34,-0.47 -0.69,0.64 -1.02,0.61 -1.64,-0.16 -3.47,-4.25 -3.31,-10.06 -0.1,-14 5.89,-7.22 17.6,-4.37 19.41,4.74 1.71,8.59 -6.79,15.9 -15.26,12.32 -0.84,-0.35 -1.05,-0.76 -0.58,-1.55zm-6.74 -11.93c-0.18,4.83 0.18,6.81 3.11,10.59l0.99 1.04c1.08,1.05 3.18,2.34 5.11,2.91 2.53,0.76 4.51,0.71 7.12,0.18 0.83,-0.01 3.08,-1.6 3.73,-2.2 1.68,-1.56 3.17,-3.86 3.73,-6.43 0.91,-4.18 -0.54,-9.19 -3.69,-11.82 -1.41,-1.18 -2.86,-2.19 -5.19,-2.82 -2.32,-0.63 -4.89,-0.52 -7.1,0.24 -2.04,0.7 -3.83,1.95 -4.92,3.1 -0.71,0.76 -2.92,3.57 -2.9,5.21z"/>
   <path class="fil1" d="M24.53 28.45c-0.89,-0.71 -1.46,0.13 -1.95,0.63 -0.44,0.44 -1.12,1.23 -1.62,1.55 -0.79,0.34 -1.2,-0.37 -1.57,-0.74 -0.46,-0.46 -0.84,-0.84 -1.3,-1.3 -0.46,-0.46 -0.84,-0.84 -1.3,-1.3 -0.2,-0.2 -0.46,-0.42 -0.62,-0.62 -0.35,-0.45 -0.33,-0.75 -0.03,-1.02 0.07,-0.33 -0.22,-0.04 0.21,-0.33 0.75,-0.49 1.7,0.82 2.27,1.39 1.13,1.13 1.72,2.12 2.6,1.36l5.46 -5.49c0.41,-0.3 0.85,-0.35 1.14,0.07 0.12,0.07 0.03,-0.1 0.21,0.2 0.18,0.31 0.08,0.66 -0.14,0.93 -1,1.23 -2.35,1.56 -1.89,3.03 1.13,0.46 1.34,-0.07 1.96,-0.7 0.44,-0.45 1.18,-1.07 1.51,-1.65 1.45,-2.48 -1.76,-5.28 -4.07,-2.94 -0.88,0.89 -4.3,4.42 -4.81,4.73 -1.06,-0.84 -2.75,-3.74 -5.13,-2.36 -0.78,0.45 -1.43,1.44 -1.18,2.75 0.22,1.13 2.85,3.44 3.72,4.3 2.09,2.06 3.08,2.07 5.16,-0.02 1,-1.01 1.88,-1.51 1.36,-2.46z"/>
   <path class="fil4" d="M26.46 5.88c-0.03,0.03 -0.08,0.01 -0.11,0.07l-0.22 0.11c-0.41,0.13 -16.23,0.05 -16.62,0.05 0.02,1.39 0.91,1.1 2.16,1.1l23.16 0c0.01,-1.69 0.16,-1.3 -2.95,-1.3 -1.2,0 -1.65,0.22 -2.48,-0.42l-0.03 -0.64c-0.4,0.23 -1.85,0.21 -2.33,0.05 0.03,0.59 -0.18,0.77 -0.58,1z"/>
   <path class="fil1" d="M23.2 46.19c0.68,-1.64 -2.32,-1.19 -3.4,-1.19l-9.71 0c-1.01,0 -4.03,-0.27 -4.43,0.38 -1.04,1.71 2.46,1.31 3.41,1.31l12.2 0c0.84,0 1.66,0.16 1.93,-0.5z"/>
   <path class="fil3" d="M37.09 41.33c0.07,0.52 0.41,0.64 0.78,1.02l4.36 4.79c0.31,0.38 1.5,1.67 1.88,1.84 0.96,-0.03 2.44,-2.24 0.18,-4.01l-5.76 -5.1 -1.44 1.46z"/>
   <path class="fil5" d="M34.84 7.2l-23.16 0c-1.25,0 -2.14,0.29 -2.16,-1.1 0.4,-0 16.21,0.08 16.62,-0.05l0.22 -0.11c0.03,-0.05 0.08,-0.03 0.11,-0.07 -1.66,0.05 -16.75,-0.1 -17.64,0.08l-0.03 1.94c0.6,0.35 20.83,0.07 25.13,0.13 0.91,0.01 0.91,0.08 0.91,-0.83z"/>
   <path class="fil4" d="M21.21 28.07c-0.88,0.76 -1.47,-0.22 -2.6,-1.36 -0.57,-0.57 -1.52,-1.87 -2.27,-1.39 -0.43,0.28 -0.15,0 -0.21,0.33 0.11,0.47 3.04,3.14 3.6,3.67 0.24,0.23 0.39,0.39 0.63,0.61 0.11,0.1 0.19,0.16 0.29,0.27 0.25,0.26 0.15,0.11 0.31,0.43 0.5,-0.32 1.19,-1.12 1.62,-1.55 0.5,-0.5 1.06,-1.34 1.95,-0.63 0.11,-0.47 1.13,-1.26 1.48,-1.65 -0.47,-1.47 0.89,-1.81 1.89,-3.03 0.22,-0.27 0.32,-0.62 0.14,-0.93 -0.18,-0.31 -0.09,-0.13 -0.21,-0.2 -0.37,0.01 -0.08,-0.11 -0.44,0.17l-4.39 4.31c-0.29,0.28 -0.51,0.5 -0.79,0.79 -0.08,0.09 -0.27,0.31 -0.4,0.35 -0.27,0.06 -0.23,-0.04 -0.58,-0.2z"/>
   <path class="fil6" d="M26.92 37.44c-2.61,0.53 -4.58,0.58 -7.12,-0.18 -1.93,-0.58 -4.03,-1.86 -5.11,-2.91l-0.99 -1.04c-2.93,-3.78 -3.29,-5.76 -3.11,-10.59 -0.97,1.01 -0.54,5.43 0.04,7.22 2,6.12 8.42,9.71 14.7,8.11 0.95,-0.24 1.29,-0.33 1.58,-0.61z"/>
   <path class="fil1" d="M27.28 51.72c0.18,-0.44 -0.02,-0.92 -0.39,-1.1 -0.42,-0.21 -6.83,-0.1 -7.77,-0.1 -0.85,0 -2.36,-0.23 -2.73,0.4 -0.28,0.47 -0.08,1.01 0.3,1.19 0.49,0.23 6.84,0.1 7.84,0.1 0.93,0 2.43,0.24 2.74,-0.5z"/>
   <path class="fil6" d="M44.1 48.98c-0.37,-0.17 -1.56,-1.47 -1.88,-1.84l-4.36 -4.79c-0.37,-0.38 -0.71,-0.49 -0.78,-1.02 -0.34,0.26 -0.61,0.57 -0.92,0.9 0.21,0.39 0.58,0.8 0.86,1.08 0.42,0.41 0.55,0.66 0.91,1.01l3.55 4.01c0.46,0.57 1.09,0.91 1.91,0.88 0.45,-0.02 0.55,-0.11 0.71,-0.23z"/>
   <path class="fil7" d="M34.62 38.71c0.31,0.4 0.8,1.11 1.21,1.33l0.59 -0.49c0.52,-0.53 1.62,-1.38 1.46,-1.94 -0.11,-0.18 -0.66,-0.77 -0.8,-0.87 -0.79,-0.06 -0.99,0.4 -1.41,0.82 -0.28,0.28 -0.91,0.8 -1.05,1.16z"/>
   <path class="fil8" d="M21.21 28.07c0.35,0.16 0.31,0.26 0.58,0.2 0.14,-0.03 0.32,-0.26 0.4,-0.35 0.28,-0.29 0.5,-0.51 0.79,-0.79l4.39 -4.31c0.36,-0.28 0.07,-0.16 0.44,-0.17 -0.29,-0.42 -0.72,-0.36 -1.14,-0.07l-5.46 5.49z"/>
   <path class="fil9" d="M35.83 40.04c-0.42,-0.22 -0.9,-0.93 -1.21,-1.33 -0.49,0.26 -0.8,0.7 -1.21,1.1 -0.55,0.53 -0.63,0.94 -0.01,1.49 0.61,0.55 0.91,0.39 1.39,-0.1 0.38,-0.38 0.79,-0.69 1.04,-1.15z"/>
   <path class="fil8" d="M20.95 30.64c-0.16,-0.32 -0.06,-0.16 -0.31,-0.43 -0.1,-0.11 -0.18,-0.16 -0.29,-0.27 -0.24,-0.23 -0.39,-0.39 -0.63,-0.61 -0.56,-0.53 -3.48,-3.2 -3.6,-3.67 -0.29,0.27 -0.31,0.58 0.03,1.02 0.16,0.21 0.42,0.42 0.62,0.62 0.46,0.46 0.84,0.84 1.3,1.3 0.46,0.46 0.84,0.84 1.3,1.3 0.37,0.37 0.78,1.08 1.57,0.74z"/>
   <path class="fil10" d="M33.54 37.19c-0.15,-0.01 -0.16,0.09 -0.37,-0.19 -0.09,-0.12 -0.15,-0.26 -0.11,-0.47 0.09,-0.41 0.32,-0.27 0.55,-0.75l-0.6 -0.48c-0.4,0.3 -1.23,1.06 -1.49,1.57 0.45,0.26 0.71,0.94 1.15,1.25 0.3,-0.28 0.64,-0.56 0.86,-0.93z"/>
   <path class="fil3" d="M33.54 37.19l0.91 -0.84 -0.84 -0.58c-0.23,0.48 -0.45,0.34 -0.55,0.75 -0.05,0.21 0.01,0.35 0.11,0.47 0.21,0.28 0.23,0.19 0.37,0.19z"/>
   <polygon class="fil11" points="6.15,27 8.35,26.97 8.4,24.98 6.18,24.93 6.48,25.06 8.3,25.06 8.31,26.87 6.47,26.85 "/>
  </g>
 </g>
</svg>
