<?xml version="1.0" encoding="UTF-8"?>
<!DOCTYPE svg PUBLIC "-//W3C//DTD SVG 1.1//EN" "http://www.w3.org/Graphics/SVG/1.1/DTD/svg11.dtd">
<!-- Creator: CorelDRAW 2020 (64-Bit) -->
<svg xmlns="http://www.w3.org/2000/svg" xml:space="preserve" width="188.186mm" height="172.492mm" version="1.1" style="shape-rendering:geometricPrecision; text-rendering:geometricPrecision; image-rendering:optimizeQuality; fill-rule:evenodd; clip-rule:evenodd"
viewBox="0 0 232.21 212.85"
 xmlns:xlink="http://www.w3.org/1999/xlink"
 xmlns:xodm="http://www.corel.com/coreldraw/odm/2003">
 <defs>
  <style type="text/css">
   <![CDATA[
    .str1 {stroke:black;stroke-width:0.09;stroke-miterlimit:22.9256}
    .str0 {stroke:black;stroke-width:0.09;stroke-miterlimit:22.9256}
    .fil1 {fill:black}
    .fil2 {fill:black}
    .fil4 {fill:#9C4040}
    .fil3 {fill:#E86A6A}
    .fil0 {fill:#FF5454}
   ]]>
  </style>
 </defs>
 <g id="Capa_x0020_1">
  <metadata id="CorelCorpID_0Corel-Layer"/>
  <g id="_1752557273120">
   <ellipse class="fil0 str0" cx="96.4" cy="116.34" rx="86.78" ry="86.88"/>
   <path class="fil1 str1" d="M96.4 212.8c53.21,0 96.35,-43.19 96.35,-96.46 0,-53.27 -43.14,-96.46 -96.35,-96.46 -53.21,0 -96.35,43.19 -96.35,96.46 0,53.28 43.14,96.46 96.35,96.46zm0 -9.58c47.92,0 86.78,-38.9 86.78,-86.88 0,-47.98 -38.85,-86.88 -86.78,-86.88 -47.93,0 -86.78,38.9 -86.78,86.88 0,47.98 38.85,86.88 86.78,86.88z"/>
   <path class="fil2 str0" d="M196.35 0.81l0.02 0c8.46,2.11 11.57,15.14 5.8,21.67l-47.03 53.26 51.5 42.73c59.99,49.77 -0.75,86.95 -29.58,54.3l-53.8 -60.93 -53.8 60.93c-28.84,32.65 -89.57,-4.53 -29.58,-54.3l51.5 -42.73 -47.03 -53.26c-5.77,-6.53 -2.65,-19.56 5.8,-21.67l0.02 -0c8.45,-2.11 14.95,0.23 21.67,5.8l51.43 42.67 51.43 -42.67c6.72,-5.57 13.21,-7.91 21.67,-5.8zm-48.13 82.77l-17.69 20.03 43.73 48.7c15.08,16.79 26.05,22.77 36.13,14.21 8.99,-7.63 8.65,-23.45 -12.17,-40.94l-50.01 -42zm-48.75 -14.55l15.81 -13.12 -47.86 -40.2c-3.61,-3.03 -7.26,-6.62 -11.47,-4.52l-0.01 0c-4.21,2.1 -0.73,8.55 1.29,10.8l42.24 47.04zm-1.18 14.55l17.69 20.03 -43.73 48.7c-15.08,16.79 -26.05,22.77 -36.13,14.21 -8.99,-7.63 -8.65,-23.45 12.17,-40.94l50.01 -42zm48.75 -14.55l-15.81 -13.12 47.86 -40.2c3.61,-3.03 7.26,-6.62 11.47,-4.52l0.01 0c4.21,2.1 0.73,8.55 -1.29,10.8l-42.24 47.04zm-40.63 7.73l16.84 18.75 16.84 -18.75 -16.84 -14.15 -16.84 14.15z"/>
   <path class="fil3" d="M190.55 11.19l0.01 0c4.21,2.1 0.73,8.55 -1.29,10.8l-117.03 130.32c-15.08,16.79 -26.05,22.77 -36.13,14.21 -8.99,-7.63 -8.65,-23.45 12.17,-40.94l130.81 -109.87c3.61,-3.03 7.26,-6.62 11.47,-4.52z"/>
   <path class="fil3" d="M55.94 11.19l-0.01 0c-4.21,2.1 -0.73,8.55 1.29,10.8l117.03 130.32c15.08,16.79 26.05,22.77 36.13,14.21 8.99,-7.63 8.65,-23.45 -12.17,-40.94l-130.81 -109.87c-3.61,-3.03 -7.26,-6.62 -11.47,-4.52z"/>
   <path class="fil4" d="M204.5 169.86l-114.65 -135.31 -22.44 -18.84c-3.61,-3.03 -7.26,-6.62 -11.47,-4.52l-0.01 0c-4.21,2.1 -0.73,8.55 1.29,10.8l56.64 63.07 -71.86 84.8c8.53,2.55 18.04,-3.96 30.24,-17.54l51.01 -56.8 51.01 56.8c12.2,13.59 21.71,20.09 30.24,17.54zm-75.62 -102.52l27.78 -32.78 22.44 -18.84c3.61,-3.03 7.26,-6.62 11.47,-4.52l0.01 0c4.21,2.1 0.73,8.55 -1.29,10.8l-49.18 54.77 -11.22 -9.42z"/>
  </g>
 </g>
</svg>
