<?xml version="1.0" encoding="UTF-8"?>
<!DOCTYPE svg PUBLIC "-//W3C//DTD SVG 1.1//EN" "http://www.w3.org/Graphics/SVG/1.1/DTD/svg11.dtd">
<!-- Creator: CorelDRAW 2020 (64-Bit) -->
<svg xmlns="http://www.w3.org/2000/svg" xml:space="preserve" width="19.5722mm" height="19.5723mm" version="1.1" style="shape-rendering:geometricPrecision; text-rendering:geometricPrecision; image-rendering:optimizeQuality; fill-rule:evenodd; clip-rule:evenodd"
viewBox="0 0 4.17 4.17"
 xmlns:xlink="http://www.w3.org/1999/xlink"
 xmlns:xodm="http://www.corel.com/coreldraw/odm/2003">
 <defs>
  <style type="text/css">
   <![CDATA[
    .fil1 {fill:black}
    .fil3 {fill:#22A5FC}
    .fil7 {fill:#959EA9}
    .fil4 {fill:#C7C700}
    .fil9 {fill:#CBD0D8}
    .fil0 {fill:#EBECF1}
    .fil5 {fill:#FC4755}
    .fil8 {fill:#FEDEC4}
    .fil6 {fill:yellow}
    .fil2 {fill:white}
   ]]>
  </style>
 </defs>
 <g id="Capa_x0020_1">
  <metadata id="CorelCorpID_0Corel-Layer"/>
  <circle class="fil0" cx="2.09" cy="2.09" r="2.09"/>
  <g id="_2768117064144">
   <path class="fil1" d="M1.05 2.91c0.02,0.01 0.15,0.09 0.16,0.1l-0.24 0.43c-0.04,0.07 -0.06,0.09 -0.13,0.04 -0.1,-0.07 -0.08,-0.08 0.04,-0.28 0.03,-0.06 0.14,-0.25 0.16,-0.29zm0.21 0.02c-0.02,-0.01 -0.15,-0.08 -0.17,-0.1 0.02,-0.04 0.06,-0.09 0.07,-0.14 0.02,0.01 0.06,0.04 0.08,0.05 0.03,0.02 0.06,0.03 0.09,0.05l-0.07 0.14zm0.07 -0.46c-0,-0.15 -0.01,-0.27 0.07,-0.38 0.15,-0.21 0.45,-0.2 0.6,-0 0.08,0.11 0.07,0.22 0.07,0.38 -0.12,0.06 -0.19,0.11 -0.37,0.11 -0.18,0 -0.25,-0.05 -0.37,-0.11zm0.33 -0.99c0.11,-0.02 0.2,0.06 0.21,0.14 0.02,0.11 -0.06,0.2 -0.14,0.22 -0.23,0.05 -0.32,-0.31 -0.07,-0.36zm0.59 -0.65l1.2 0 -0 0.65 -0.46 0 0 0.24c0,0.03 -0.01,0.04 -0.03,0.03l-0.22 -0.27 -0.48 -0 0 -0.65zm-1.02 1.55c-0.01,-0.01 -0.02,-0.02 -0.03,-0.03 -0.16,-0.2 -0.2,-0.45 -0.09,-0.69 0.15,-0.35 0.62,-0.5 0.95,-0.26 0.03,0.02 0.08,0.06 0.1,0.09 0.04,0.09 0.03,0.02 0.08,0.1 0.12,0.19 0.14,0.46 0.02,0.66l-0.07 0.11c-0.01,0.01 -0.02,0.02 -0.03,0.03 -0.01,-0.07 0,-0.12 -0.01,-0.19 -0.03,-0.14 -0.14,-0.27 -0.28,-0.32 0.01,-0.02 0.03,-0.03 0.05,-0.06 0.01,-0.02 0.03,-0.04 0.04,-0.07 0.02,-0.06 0.02,-0.13 -0,-0.19 -0.09,-0.24 -0.43,-0.24 -0.52,-0 -0.03,0.09 -0.02,0.18 0.03,0.26 0.02,0.03 0.04,0.04 0.05,0.06 -0.09,0.03 -0.17,0.11 -0.22,0.18 -0.09,0.15 -0.06,0.21 -0.07,0.32zm1.21 -0.82c0.01,0.04 0.04,0.09 0.05,0.14 0.05,0.16 0.04,0.34 -0.01,0.49 -0.17,0.52 -0.78,0.72 -1.21,0.46 -0.1,-0.06 -0.14,-0.1 -0.2,-0.17 -0.27,-0.29 -0.27,-0.81 -0,-1.09 0.06,-0.07 0.11,-0.11 0.21,-0.17 0.18,-0.11 0.41,-0.14 0.61,-0.09 0.15,0.04 0.18,0.08 0.26,0.11l-0 0.11c-0.01,-0.01 -0.03,-0.02 -0.05,-0.03 -0.22,-0.15 -0.51,-0.17 -0.74,-0.05 -0.33,0.17 -0.49,0.57 -0.35,0.93 0.26,0.65 1.2,0.61 1.4,-0.08 0.03,-0.1 0.03,-0.21 0.02,-0.31 -0.03,-0.15 -0.06,-0.16 -0.09,-0.25l0.1 -0zm-0.28 -0.43c-0.18,-0.1 -0.28,-0.12 -0.5,-0.12 -0.12,0 -0.27,0.04 -0.35,0.09 -0.18,0.09 -0.29,0.19 -0.4,0.37 -0.06,0.1 -0.13,0.29 -0.13,0.43 0,0.2 0.02,0.29 0.1,0.46 0.03,0.06 0.06,0.1 0.09,0.15 0.01,0.01 0.01,0.02 0.03,0.03l0.06 0.06c0.01,0.01 0.02,0.02 0.03,0.03 -0.01,0.02 -0.08,0.15 -0.1,0.19 -0.02,0.03 -0.03,0.06 -0.05,0.09 -0.02,0.03 -0.03,0.06 -0.05,0.09 -0.02,0.03 -0.03,0.06 -0.05,0.09 -0.02,0.03 -0.03,0.06 -0.05,0.09 -0.02,0.03 -0.03,0.06 -0.05,0.09 -0.04,0.08 -0.04,0.05 -0.04,0.14 0,0.1 0.16,0.18 0.2,0.18 0.09,0 0.12,-0.03 0.16,-0.1 0.01,-0.02 0.02,-0.03 0.03,-0.05l0.17 -0.31c0.02,-0.03 0.04,-0.07 0.06,-0.1 0.02,-0.03 0.04,-0.07 0.06,-0.1 0.02,-0.03 0.04,-0.07 0.06,-0.1 0.17,0.04 0.14,0.04 0.32,0.04 0.12,0 0.27,-0.04 0.35,-0.09 0.1,-0.05 0.18,-0.1 0.26,-0.18 0.15,-0.15 0.27,-0.39 0.27,-0.61 0,-0.15 -0.01,-0.28 -0.07,-0.41 0.16,0 0.13,-0.02 0.2,0.06l0.12 0.14c0.04,0.05 0.05,0.07 0.12,0.07 0.06,0 0.1,-0.05 0.1,-0.1l0 -0.17 0.38 0c0.04,0 0.08,-0.04 0.08,-0.08l0 -0.67c0,-0.04 -0.04,-0.08 -0.08,-0.08l-1.22 0c-0.03,0 -0.06,0.03 -0.07,0.05 -0.02,0.04 -0.01,0.3 -0.01,0.35z"/>
   <path class="fil2" d="M3.27 1.29l0.09 0 0 0.09 -0.09 0 -0 -0.09zm-0.18 0l0.09 0 0 0.09 -0.09 0 -0 -0.09zm-0.18 0l0.09 0 0 0.09 -0.09 0 0 -0.09zm-0.55 0l0.46 0 0 0.09 -0.46 0 -0 -0.09zm-0 -0.18l1.02 0 -0 0.09 -1.01 0 -0 -0.09zm0 -0.18l1.01 0 0 0.09 -1.01 0 -0 -0.09zm-0.09 0.55l0.48 0 0.22 0.27c0.02,0.02 0.03,0 0.03,-0.03l0 -0.24 0.46 0 0 -0.65 -1.2 0 -0 0.65z"/>
   <path class="fil3" d="M1.24 2.38c0.02,-0.12 -0.02,-0.18 0.07,-0.32 0.04,-0.07 0.12,-0.15 0.22,-0.18 -0.01,-0.02 -0.03,-0.03 -0.05,-0.06 -0.05,-0.07 -0.07,-0.17 -0.03,-0.26 0.09,-0.24 0.43,-0.24 0.52,0 0.02,0.06 0.02,0.13 0,0.19 -0.01,0.03 -0.02,0.05 -0.04,0.07 -0.02,0.03 -0.04,0.04 -0.05,0.06 0.14,0.04 0.24,0.18 0.28,0.32 0.02,0.07 0.01,0.12 0.01,0.19 0.01,-0.01 0.02,-0.01 0.03,-0.03l0.07 -0.11c0.12,-0.2 0.11,-0.46 -0.02,-0.66 -0.05,-0.07 -0.04,-0 -0.08,-0.1 -0.01,-0.03 -0.07,-0.07 -0.1,-0.09 -0.34,-0.24 -0.8,-0.09 -0.95,0.26 -0.1,0.24 -0.07,0.49 0.09,0.69 0.01,0.01 0.02,0.02 0.03,0.03z"/>
   <path class="fil4" d="M2.45 1.57l-0.1 0c0.03,0.09 0.06,0.1 0.09,0.25 0.02,0.1 0.01,0.21 -0.02,0.31 -0.19,0.69 -1.14,0.73 -1.4,0.08 -0.14,-0.36 0.02,-0.76 0.35,-0.93 0.24,-0.12 0.52,-0.1 0.74,0.05 0.02,0.01 0.04,0.03 0.05,0.03l0 -0.11c-0.08,-0.03 -0.11,-0.08 -0.26,-0.11 -0.21,-0.05 -0.43,-0.02 -0.61,0.09 -0.1,0.06 -0.14,0.1 -0.21,0.17 -0.27,0.29 -0.27,0.8 0,1.09 0.07,0.07 0.11,0.11 0.2,0.17 0.42,0.26 1.03,0.06 1.21,-0.46 0.05,-0.15 0.06,-0.33 0.01,-0.49 -0.02,-0.05 -0.04,-0.09 -0.05,-0.14z"/>
   <path class="fil5" d="M1.34 2.47c0.12,0.06 0.18,0.11 0.37,0.11 0.18,0 0.25,-0.05 0.37,-0.11 0,-0.16 0.01,-0.27 -0.07,-0.38 -0.15,-0.2 -0.44,-0.21 -0.6,0 -0.08,0.11 -0.07,0.23 -0.07,0.38z"/>
   <path class="fil1" d="M3.09 2.02c0.02,0.01 0.14,0.17 0.17,0.21 0.02,0.02 0.05,0.06 0.06,0.08l-0.13 0c0,0.35 -0.11,0.61 -0.39,0.77 -0.06,0.04 -0.19,0.1 -0.27,0.11 0.07,-0.04 0.2,-0.17 0.26,-0.23 0.15,-0.18 0.22,-0.39 0.22,-0.65l-0.13 -0c0.02,-0.03 0.22,-0.28 0.23,-0.29zm-0.41 0.38l0.22 0c0,0.21 -0.1,0.41 -0.25,0.56 -0.19,0.19 -0.4,0.26 -0.63,0.37l-0.02 0.01c0.15,0 0.35,-0.02 0.5,-0.05 0.2,-0.04 0.4,-0.15 0.54,-0.29 0.04,-0.05 0.08,-0.11 0.11,-0.16 0.06,-0.1 0.12,-0.28 0.12,-0.44l0.23 0c-0.01,-0.02 -0.19,-0.25 -0.2,-0.27 -0.04,-0.05 -0.07,-0.09 -0.1,-0.13l-0.08 -0.1c-0.01,-0.01 -0.02,-0.03 -0.03,-0.03 -0.01,0.01 -0.02,0.02 -0.03,0.03l-0.18 0.23c-0.01,0.01 -0.02,0.02 -0.02,0.03 -0.02,0.03 -0.18,0.22 -0.18,0.24z"/>
   <path class="fil6" d="M3.09 2.02c-0.01,0.01 -0.21,0.25 -0.23,0.29l0.13 0c0,0.26 -0.06,0.47 -0.22,0.65 -0.06,0.07 -0.19,0.19 -0.26,0.23 0.08,-0.01 0.21,-0.07 0.27,-0.11 0.28,-0.16 0.39,-0.43 0.39,-0.77l0.13 -0c-0.01,-0.02 -0.04,-0.06 -0.06,-0.08 -0.03,-0.04 -0.15,-0.2 -0.17,-0.21z"/>
   <path class="fil7" d="M1.05 2.91c-0.03,0.03 -0.13,0.23 -0.16,0.29 -0.12,0.21 -0.14,0.22 -0.04,0.28 0.07,0.05 0.09,0.03 0.13,-0.04l0.24 -0.43c-0.01,-0.01 -0.14,-0.09 -0.16,-0.1z"/>
   <path class="fil8" d="M1.67 1.48c-0.25,0.05 -0.16,0.41 0.07,0.36 0.09,-0.02 0.17,-0.11 0.14,-0.22 -0.02,-0.09 -0.11,-0.17 -0.21,-0.14z"/>
   <polygon class="fil1" points="2.35,1.01 3.36,1.01 3.36,0.92 2.35,0.92 "/>
   <polygon class="fil1" points="2.35,1.2 3.36,1.2 3.36,1.11 2.35,1.11 "/>
   <polygon class="fil1" points="2.35,1.38 2.81,1.38 2.81,1.29 2.35,1.29 "/>
   <path class="fil9" d="M1.34 2.78c-0.03,-0.02 -0.06,-0.03 -0.09,-0.05 -0.02,-0.01 -0.06,-0.04 -0.08,-0.05 -0.01,0.04 -0.05,0.09 -0.07,0.14 0.02,0.02 0.14,0.09 0.17,0.1l0.07 -0.14z"/>
   <polygon class="fil1" points="3.09,1.38 3.18,1.38 3.18,1.29 3.09,1.29 "/>
   <polygon class="fil1" points="3.27,1.38 3.36,1.38 3.36,1.29 3.27,1.29 "/>
   <polygon class="fil1" points="2.9,1.38 3,1.38 3,1.29 2.9,1.29 "/>
  </g>
 </g>
</svg>
