<svg id="Capa_1" data-name="Capa 1" xmlns="http://www.w3.org/2000/svg" viewBox="0 0 300 300"><defs><style>.cls-1{fill:#fee9ab;}.cls-2{fill:#ffd422;}.cls-3{fill:#ff7956;}.cls-4{fill:#bdfdff;}.cls-5{fill:#ff3051;}.cls-6{fill:#46f8ff;}.cls-7{fill:#cd2a00;}.cls-8{fill:#5eac24;}.cls-9{fill:#ffcd00;}</style></defs><title>Iconos_finales</title><g id="Analysis-report-document-develop-infromation"><path class="cls-1" d="M266.9,77.428v181.43a8.088,8.088,0,0,1-8.063,8.064H121.76a8.088,8.088,0,0,1-8.063-8.064V41.142a8.088,8.088,0,0,1,8.063-8.064h100.8V69.364a8.088,8.088,0,0,0,8.063,8.064Z"/><path class="cls-2" d="M266.9,77.428v181.43a8.088,8.088,0,0,1-8.063,8.064H242.714a8.088,8.088,0,0,0,8.063-8.064V77.428Z"/><path class="cls-3" d="M266.9,77.428H230.618a8.088,8.088,0,0,1-8.063-8.064V33.078Z"/><circle class="cls-4" cx="218.523" cy="218.54" r="32.254"/><path class="cls-5" d="M210.46,133.873H129.824V53.237a80.613,80.613,0,0,1,80.636,80.588Z"/><path class="cls-6" d="M250.777,218.54a32.253,32.253,0,0,1-32.254,32.254,33.163,33.163,0,0,1-8.063-1.008,32.274,32.274,0,0,0,0-62.492,33.212,33.212,0,0,1,8.063-1.008A32.254,32.254,0,0,1,250.777,218.54Z"/><path class="cls-7" d="M210.46,133.873H194.332A80.635,80.635,0,0,0,129.824,54.85V53.237a80.613,80.613,0,0,1,80.636,80.588Z"/><path class="cls-8" d="M113.7,150h80.635A80.635,80.635,0,0,1,56.688,207.009Z"/><path class="cls-9" d="M113.7,69.364V150L56.688,207.009A80.636,80.636,0,0,1,113.7,69.364Z"/><path d="M269.767,74.565l-44.35-44.349a4.16,4.16,0,0,0-2.862-1.169H121.76a12.132,12.132,0,0,0-12.095,12.1V65.534a84.559,84.559,0,0,0,0,168.932v24.392a12.132,12.132,0,0,0,12.1,12.095H258.841a12.131,12.131,0,0,0,12.095-12.095V77.428A4.164,4.164,0,0,0,269.767,74.565ZM226.587,42.8l30.6,30.6h-26.57a4.032,4.032,0,0,1-4.031-4.032ZM37.093,150a76.7,76.7,0,0,1,72.572-76.483v74.83L56.849,201.163A76.117,76.117,0,0,1,37.093,150Zm25.441,56.848,52.816-52.816h74.83A76.455,76.455,0,0,1,62.534,206.848Zm200.339,52.01a4.032,4.032,0,0,1-4.032,4.032H121.76a4.032,4.032,0,0,1-4.031-4.032V234.466A84.723,84.723,0,0,0,198.364,150a4.032,4.032,0,0,0-4.032-4.032h-76.6V41.142a4.032,4.032,0,0,1,4.031-4.032h96.763V69.364a12.132,12.132,0,0,0,12.1,12.1h32.255Z"/><path d="M129.824,49.206a4.032,4.032,0,0,0-4.032,4.031v80.636a4.032,4.032,0,0,0,4.032,4.032H210.46a4.032,4.032,0,0,0,4.031-4.032A84.76,84.76,0,0,0,129.824,49.206Zm4.032,80.635V57.39a76.673,76.673,0,0,1,72.451,72.451Z"/><path d="M218.523,182.254a36.286,36.286,0,1,0,36.286,36.286A36.286,36.286,0,0,0,218.523,182.254Zm0,64.509a28.223,28.223,0,1,1,28.222-28.223A28.222,28.222,0,0,1,218.523,246.763Z"/><path d="M210.46,224.935l-9.245-9.245-5.7,5.7,12.1,12.1a4.032,4.032,0,0,0,5.7,0L237.5,209.3l-5.7-5.7Z"/><path d="M222.555,97.587h32.254v8.063H222.555Z"/><path d="M222.555,121.778h32.254v8.063H222.555Z"/><path d="M222.555,145.968h32.254v8.064H222.555Z"/></g></svg>