<?xml version="1.0" encoding="iso-8859-1"?>
<!-- Generator: Adobe Illustrator 19.0.0, SVG Export Plug-In . SVG Version: 6.00 Build 0)  -->
<svg version="1.1" id="Capa_1" xmlns="http://www.w3.org/2000/svg" xmlns:xlink="http://www.w3.org/1999/xlink" x="0px" y="0px"
	 viewBox="0 0 512 512" style="enable-background:new 0 0 512 512;" xml:space="preserve">
<g>
	<path style="fill:#31E8BB;" d="M362.667,384v32H320v-32v-85.333V256h42.667V384z"/>
	<path style="fill:#31E8BB;" d="M277.333,384v32h-42.667v-32V234.667V192h42.667v106.667v42.667V384z"/>
</g>
<g>
	<path style="fill:#FF7260;" d="M320,384v32h-42.667v-32v-42.667v-42.667H320V384z"/>
	<path style="fill:#FF7260;" d="M234.667,384v32H192v-32V234.667h42.667V384z"/>
</g>
<path style="fill:#AAC4DA;" d="M448,96h-64c-11.767-0.035-21.298-9.566-21.333-21.333v-64L448,96z"/>
<path style="fill:#D9EEF7;" d="M362.667,416V256H320v42.667h-42.667V192h-42.667v42.667H192V416H362.667z M448,96v384
	c-0.035,11.768-9.566,21.298-21.333,21.333H85.333C73.566,501.298,64.035,491.768,64,480V32
	c0.035-11.767,9.566-21.298,21.333-21.333h277.333v64C362.702,86.434,372.233,95.965,384,96H448z"/>
<g>
	<path style="fill:#4C5B66;" d="M117.333,64H224v21.333H117.333V64z"/>
	<path style="fill:#4C5B66;" d="M117.333,106.667h21.333V128h-21.333V106.667z"/>
	<path style="fill:#4C5B66;" d="M160,106.667h21.333V128H160V106.667z"/>
	<path style="fill:#4C5B66;" d="M455.541,88.459L370.208,3.125c-2-2.001-4.713-3.125-7.541-3.125H85.333c-17.673,0-32,14.327-32,32
		l0,0v448c0,17.673,14.327,32,32,32h341.333c17.673,0,32-14.327,32-32V96C458.666,93.171,457.542,90.459,455.541,88.459z
		 M437.333,480c0,5.891-4.776,10.667-10.667,10.667H85.333c-5.891,0-10.667-4.776-10.667-10.667V32
		c0-5.891,4.776-10.667,10.667-10.667H352v53.333c0,17.673,14.327,32,32,32h21.333V85.333H384c-5.891,0-10.667-4.776-10.667-10.667
		V36.416l64,64V480z"/>
	<path style="fill:#4C5B66;" d="M384,405.333H160V202.667c0-5.891-4.776-10.667-10.667-10.667h-32v21.333h21.333V416
		c0,5.891,4.776,10.667,10.667,10.667h224V448h21.333v-32C394.667,410.109,389.891,405.333,384,405.333z"/>
	<path style="fill:#4C5B66;" d="M224,224h-32c-5.891,0-10.667,4.776-10.667,10.667V384h21.333V245.333H224V384h21.333V202.667
		h21.333V384H288v-74.667h21.333V384h21.333V266.667H352V384h21.333V256c0-5.891-4.776-10.667-10.667-10.667H320
		c-5.891,0-10.667,4.776-10.667,10.667v32H288v-96c0-5.891-4.776-10.667-10.667-10.667h-42.667c-5.891,0-10.667,4.776-10.667,10.667
		V224z"/>
</g>
<g>
</g>
<g>
</g>
<g>
</g>
<g>
</g>
<g>
</g>
<g>
</g>
<g>
</g>
<g>
</g>
<g>
</g>
<g>
</g>
<g>
</g>
<g>
</g>
<g>
</g>
<g>
</g>
<g>
</g>
</svg>
