<?xml version="1.0" encoding="UTF-8"?>
<!DOCTYPE svg PUBLIC "-//W3C//DTD SVG 1.1//EN" "http://www.w3.org/Graphics/SVG/1.1/DTD/svg11.dtd">
<!-- Creator: CorelDRAW 2020 (64-Bit) -->
<svg xmlns="http://www.w3.org/2000/svg" xml:space="preserve" width="6.3763mm" height="6.3763mm" version="1.1" style="shape-rendering:geometricPrecision; text-rendering:geometricPrecision; image-rendering:optimizeQuality; fill-rule:evenodd; clip-rule:evenodd"
viewBox="0 0 0.64 0.64"
 xmlns:xlink="http://www.w3.org/1999/xlink"
 xmlns:xodm="http://www.corel.com/coreldraw/odm/2003">
 <defs>
  <style type="text/css">
   <![CDATA[
    .fil0 {fill:black}
    .fil14 {fill:#3F4668}
    .fil15 {fill:#4B537B}
    .fil7 {fill:#57BE92}
    .fil12 {fill:#645C64}
    .fil3 {fill:#79C9A5}
    .fil13 {fill:#868486}
    .fil5 {fill:#8694DD}
    .fil6 {fill:#B98080}
    .fil4 {fill:#C49090}
    .fil11 {fill:#C9BFC8}
    .fil8 {fill:#E5E1E5}
    .fil1 {fill:#EEECEE}
    .fil2 {fill:#FDCDBE}
    .fil9 {fill:#FDFDFD}
    .fil10 {fill:#FFB09E}
   ]]>
  </style>
 </defs>
 <g id="Capa_x0020_1">
  <metadata id="CorelCorpID_0Corel-Layer"/>
  <g id="_1742675736320">
   <path class="fil0" d="M0.5 0.62l-0.25 0c-0,-0.03 -0.01,-0.07 -0.01,-0.1 -0.01,-0.06 -0.02,-0.06 0.05,-0.06 0.08,0 0.15,-0 0.23,0 0.03,0 0.03,-0.01 0.02,0.07 -0,0.03 -0.01,0.06 -0.01,0.09l-0.03 0zm-0.12 -0.62l0.02 0c0.01,0 0.02,0 0.02,0 0.03,0.01 0.06,0.02 0.07,0.04 0.06,0.07 0.02,0.13 0.05,0.18 0.01,0.03 0.05,0.05 0.02,0.11 -0.01,0.01 -0.02,0.03 -0.04,0.03 0,0 0,0 0.01,0 0.01,0 0.04,0.02 0.05,0.02 0.02,0.01 0.03,0.03 0.04,0.05 0.01,0.02 0,0.05 0,0.08 0,0.03 0,0.06 0,0.09 0.01,0 0.02,-0 0.02,0.01l0 0c-0,0.01 -0,0.01 -0.01,0.01l-0.16 0c-0.15,0 -0.3,-0 -0.44,0l-0.01 0c-0.01,-0 -0.01,-0 -0.01,-0.01l0 -0c0,-0.01 0.01,-0.01 0.02,-0.01 0.04,0 0.09,-0 0.13,0l0.08 -0c-0,-0.03 -0.01,-0.06 -0.01,-0.1 -0,-0.03 -0.02,-0.07 0.02,-0.08l0.03 -0c0,-0.01 0,-0.03 0,-0.04l-0 -0.01c-0,-0 -0,-0 -0,-0 -0.02,0.01 -0.04,0.02 -0.06,0.02 -0.02,0.01 -0.03,0.02 -0.04,0.04 -0.01,0.02 -0.01,0.09 -0.01,0.12 0,0.01 0,0.03 -0.01,0.03 -0.01,-0 -0.01,-0.02 -0.01,-0.03 0,-0.03 -0,-0.1 0.01,-0.12 0.01,-0.02 0.02,-0.04 0.04,-0.05 0.01,-0 0.05,-0.02 0.06,-0.03l0 -0c-0.02,-0 -0.06,-0.04 -0.05,-0.1 0,-0.01 0.01,-0.02 0.01,-0.02 0.05,-0.06 -0,-0.1 0.05,-0.18 0,-0.01 0.01,-0.02 0.02,-0.02l0.01 -0.01c0.01,-0.01 0.02,-0.02 0.03,-0.02 0.02,-0.01 0.04,-0.01 0.06,-0.01zm0.12 0.38c0.02,0.01 0.04,0.02 0.06,0.03 0.02,0.01 0.03,0.02 0.04,0.04 0.01,0.02 0,0.13 0,0.16l-0.06 0c0,-0.03 0.01,-0.06 0.01,-0.1 0,-0.03 0.02,-0.08 -0.02,-0.08 -0.01,0 -0.03,0 -0.04,-0l-0 -0.05c0,-0.01 0,-0 0,-0.01zm-0.21 0.03c0.01,0 0.03,0.01 0.04,0.01 0.02,0 0.03,0 0.05,0 0.03,-0 0.06,-0.01 0.09,-0.01 0,0 0,0 0,0 0,0 0,0 0,0l-0 0.02c-0.01,0 -0.19,0 -0.19,-0l-0 -0.02 0 0zm0.05 -0.08l0.01 -0.02c0.03,0.01 0.05,0 0.08,0 0,0 0,0.01 0.01,0.02 0,0.01 0.01,0.01 0.01,0.01 0,0 0,0 0.01,0.01 0.01,0.01 0.03,0.01 0.03,0.02l0 0.02c-0.02,0.01 -0.07,0.01 -0.1,0.01 -0.03,0 -0.05,-0 -0.08,-0.01 -0,-0 -0.01,-0 -0.01,-0 -0,-0 -0.01,-0 -0.01,-0l0 -0.02c0,-0.01 0.02,-0.01 0.04,-0.02 0,-0 0.01,-0.01 0.01,-0.01zm0.11 -0.02c0.01,-0.01 0.02,-0.01 0.03,-0.02 0.03,-0.04 0.02,-0.07 0.02,-0.13l0.02 -0c0,0.04 -0,0.06 0.02,0.09 0,0.01 0.01,0.01 0.01,0.02 0.01,0.02 0.01,0.04 -0.01,0.06 -0.03,0.04 -0.1,0.02 -0.1,-0.02zm-0.17 0.04c-0.05,0 -0.07,-0.05 -0.05,-0.08 0,-0.01 0.01,-0.01 0.02,-0.02 0.02,-0.03 0.02,-0.05 0.02,-0.09l0.02 0c0,0.05 -0.01,0.09 0.02,0.13 0.01,0.01 0.01,0.01 0.03,0.02 -0,0.02 -0.03,0.04 -0.05,0.04zm0.12 -0.08c-0.01,0 -0.01,-0 -0.01,-0.01 -0,-0.01 0.01,-0.01 0.03,-0.01 0.02,0 0.02,0.02 0,0.02l-0.01 0zm0.03 -0.14c-0,0.01 0.01,0.02 0.02,0.02 0.01,0.01 0.02,0.01 0.03,0.01 0,0.01 0,0.02 0,0.03 0,0.01 0,0.02 -0,0.03 -0.01,0.01 -0.02,0.02 -0.03,0.03l-0 -0.01c-0.01,-0.01 -0.05,-0.01 -0.05,-0.01 -0.02,0.01 -0.02,0.03 -0.01,0.05 0.01,0.01 0.02,0.01 0.03,0.01 0.03,0 0.03,-0.01 0.03,-0.02 0,-0 0.01,-0 0.01,-0.01 0.01,-0.01 0.01,-0.01 0.02,-0.02 -0,0.03 -0.02,0.04 -0.04,0.05 -0.02,0.01 -0.06,0.01 -0.08,0 -0.02,-0.01 -0.04,-0.03 -0.05,-0.05 -0.01,-0.02 -0,-0.07 -0,-0.09 0.04,-0 0.08,-0.03 0.12,-0.05 0.02,-0.02 0.04,-0.04 0.06,-0.06 0.01,0.01 0.02,0.03 0.03,0.04 0.01,0.02 0.01,0.03 0.01,0.06 -0.02,0 -0.05,-0 -0.07,-0.02 -0.01,-0.01 -0.01,-0.01 -0.02,-0zm-0.17 0.02c-0,-0.05 0.03,-0.09 0.06,-0.11 0.02,-0.01 0.04,-0.02 0.07,-0.02 0.02,0 0.05,0.01 0.07,0.02 -0.01,0.01 -0.03,0.04 -0.04,0.05 -0,0 -0.01,0.01 -0.01,0.01 -0.04,0.03 -0.09,0.05 -0.14,0.05z"/>
   <path class="fil1" d="M0.42 0.54c-0.01,0.05 -0.08,0.03 -0.07,-0.01 0,-0.02 0.02,-0.03 0.04,-0.03 0.02,0 0.03,0.02 0.03,0.04zm0.08 0.07c0,-0.03 0.01,-0.05 0.01,-0.08 0,-0.02 0.01,-0.06 0.01,-0.08 -0.08,-0 -0.15,-0 -0.23,-0 -0.07,0 -0.06,-0.01 -0.05,0.06 0,0.03 0.01,0.07 0.01,0.1l0.25 -0z"/>
   <path class="fil2" d="M0.42 0.13c-0,-0.01 -0,-0 -0.01,-0.01l-0.01 -0.01c-0.03,0.02 -0.07,0.05 -0.12,0.05 0,0.02 -0,0.07 0,0.09 0.01,0.02 0.02,0.04 0.05,0.05 0.02,0.01 0.06,0.01 0.08,-0 0.02,-0.01 0.04,-0.03 0.04,-0.05 -0.01,0 -0.01,0.01 -0.02,0.02 -0,0 -0.01,0 -0.01,0.01 -0.01,0.01 -0.01,0.02 -0.03,0.02 -0.01,-0 -0.02,0 -0.03,-0.01 -0.02,-0.01 -0.01,-0.04 0.01,-0.05 0.01,-0 0.04,-0.01 0.05,0.01l0 0.01c0.01,-0.01 0.03,-0.02 0.03,-0.03 0,-0.01 0,-0.01 0,-0.03 0,-0.01 0,-0.02 -0,-0.03 -0.01,-0 -0.02,-0.01 -0.03,-0.01 -0.01,-0.01 -0.02,-0.01 -0.02,-0.02z"/>
   <path class="fil3" d="M0.14 0.1c0.01,-0.01 0.02,0.01 0.01,0.02 -0.01,0.01 -0.02,-0.01 -0.01,-0.02zm-0.04 0c0.01,-0.01 0.02,0.01 0.01,0.02 -0.01,0.01 -0.02,-0.01 -0.01,-0.02zm-0.04 0c0.01,-0.01 0.02,0.01 0.01,0.02 -0.01,0 -0.01,0 -0.01,-0 -0,-0.01 -0,-0.01 0,-0.01zm0.08 0.1c-0,-0.01 -0.01,-0.01 -0,-0.02 0,-0 0.01,-0.01 0.01,-0.02 0.03,-0.05 -0,-0.11 -0.04,-0.13 -0,-0 -0,-0 -0,-0 -0,-0 -0,0 -0,-0 -0,-0 -0,-0 -0,-0 -0.06,-0 -0.1,0.05 -0.09,0.11 0.01,0.03 0.02,0.05 0.04,0.06 0.03,0.02 0.05,0.01 0.09,0.01z"/>
   <path class="fil4" d="M0.25 0.15c0.05,0 0.1,-0.02 0.14,-0.05 0,-0 0.01,-0.01 0.01,-0.01 0.01,-0.01 0.04,-0.04 0.04,-0.05 -0.01,-0.01 -0.05,-0.02 -0.07,-0.02 -0.03,-0 -0.05,0.01 -0.07,0.02 -0.03,0.02 -0.06,0.06 -0.06,0.11z"/>
   <path class="fil5" d="M0.15 0.6l0 0.02 0.08 -0c-0,-0.03 -0.01,-0.06 -0.01,-0.1 -0,-0.03 -0.02,-0.07 0.02,-0.08 0.01,-0 0.02,-0 0.03,-0l-0 -0.06c-0.02,0.01 -0.04,0.02 -0.06,0.02 -0.02,0.01 -0.03,0.02 -0.04,0.04 -0.01,0.02 -0.01,0.09 -0.01,0.12 0,0.01 0,0.03 -0.01,0.03z"/>
   <path class="fil0" d="M0.15 0.2c-0.04,0 -0.06,0 -0.09,-0.01 -0.02,-0.01 -0.04,-0.03 -0.04,-0.06 -0.01,-0.06 0.04,-0.11 0.09,-0.11 0.07,0 0.11,0.07 0.07,0.13 -0,0.01 -0.01,0.02 -0.02,0.02 -0.01,0.01 -0.01,0.01 -0,0.02l-0.02 0zm-0.05 -0.2l0.02 0c0.01,0 0.03,0 0.04,0.01 0.01,0 0.01,0.01 0.02,0.01 0.04,0.03 0.06,0.09 0.03,0.13 -0.01,0.02 -0.01,0.02 -0.02,0.03 0,0 0.01,0 0.01,0.01 0.01,0.01 0,0.02 -0.01,0.02l-0.09 0c-0.03,0 -0.05,-0.01 -0.07,-0.03 -0.02,-0.02 -0.03,-0.05 -0.03,-0.08 0,-0.05 0.05,-0.1 0.1,-0.1z"/>
   <path class="fil5" d="M0.53 0.44c0.03,0 0.02,0.05 0.02,0.08 -0,0.03 -0.01,0.06 -0.01,0.1l0.06 0c0,-0.03 0,-0.14 -0,-0.16 -0.01,-0.02 -0.02,-0.03 -0.04,-0.04 -0.02,-0.01 -0.04,-0.02 -0.06,-0.03l-0 0.06c0.01,0 0.03,-0 0.04,0z"/>
   <path class="fil4" d="M0.44 0.32c0,0.04 0.07,0.06 0.1,0.02 0.01,-0.02 0.02,-0.04 0.01,-0.06 -0,-0.01 -0.01,-0.01 -0.01,-0.02 -0.02,-0.03 -0.02,-0.05 -0.02,-0.09l-0.02 0c-0,0.06 0.01,0.09 -0.02,0.13 -0.01,0.01 -0.01,0.01 -0.03,0.02z"/>
   <path class="fil4" d="M0.27 0.36c0.02,0 0.05,-0.02 0.05,-0.04 -0.01,-0.01 -0.02,-0.01 -0.03,-0.02 -0.03,-0.04 -0.02,-0.08 -0.02,-0.13l-0.02 -0c0,0.04 -0,0.06 -0.02,0.09 -0.01,0.01 -0.01,0.01 -0.02,0.02 -0.02,0.03 0,0.08 0.05,0.08z"/>
   <path class="fil2" d="M0.43 0.35c-0.08,0.01 -0.09,-0.01 -0.1,-0.01 -0,0 -0.01,0.01 -0.01,0.01 -0.02,0.02 -0.04,0.02 -0.04,0.02l0 0.02c0,0 0.01,0 0.01,0 0,0 0.01,0 0.01,0 0.02,0.01 0.05,0.01 0.08,0.01 0.02,-0 0.08,-0.01 0.1,-0.01l-0 -0.02c-0.01,-0.01 -0.02,-0.01 -0.03,-0.02 -0,-0 -0.01,-0.01 -0.01,-0.01z"/>
   <path class="fil6" d="M0.41 0.12l0.01 0.01c0,0 0,0 0.01,0.01 0.01,-0.01 0.01,-0 0.02,0 0.02,0.01 0.05,0.02 0.07,0.02 -0,-0.02 -0,-0.04 -0.01,-0.06 -0.01,-0.01 -0.02,-0.03 -0.03,-0.04 -0.02,0.03 -0.04,0.05 -0.06,0.06z"/>
   <path class="fil7" d="M0.15 0.2l0.02 -0c-0.01,-0.01 -0.01,-0.02 0,-0.02 0.01,-0.01 0.01,-0.01 0.02,-0.02 0.03,-0.06 -0.01,-0.13 -0.07,-0.13 0,0 0,0 0,0 0,0 0,0 0,0 0,0 0,0 0,0 0.04,0.02 0.07,0.08 0.04,0.13 -0.01,0.01 -0.01,0.02 -0.01,0.02 -0.01,0.01 0,0.02 0,0.02z"/>
   <path class="fil8" d="M0.5 0.62l0.03 -0c0,-0.03 0.01,-0.06 0.01,-0.09 0.01,-0.08 0.01,-0.07 -0.02,-0.07 0,0.02 -0,0.06 -0.01,0.08 -0,0.03 -0.01,0.05 -0.01,0.08z"/>
   <path class="fil0" d="M0.38 0.52c0.02,-0.01 0.03,0.03 0.01,0.03 -0.02,0.01 -0.03,-0.03 -0.01,-0.03zm0.04 0.02c0,-0.02 -0.01,-0.04 -0.03,-0.04 -0.02,-0 -0.04,0.01 -0.04,0.03 -0.01,0.05 0.06,0.06 0.07,0.01z"/>
   <path class="fil9" d="M0.29 0.42c-0,0 -0,-0 -0,0.01 0,0 0,0.01 0,0.01l0.19 0 0 -0.02c-0.03,0.01 -0.06,0.01 -0.09,0.01 -0.02,0 -0.03,-0 -0.05,-0 -0.01,-0 -0.03,-0.01 -0.04,-0.01z"/>
   <path class="fil10" d="M0.33 0.34c0.01,-0 0.02,0.02 0.1,0.01 -0,-0 -0.01,-0.01 -0.01,-0.01 -0,-0 -0,-0.01 -0.01,-0.02 -0.03,0 -0.05,0 -0.08,-0l-0.01 0.02z"/>
   <path class="fil11" d="M0.38 0.52c-0.02,0.01 -0.01,0.04 0.01,0.03 0.02,-0.01 0.01,-0.04 -0.01,-0.03z"/>
   <path class="fil12" d="M0.39 0.27l0.01 0c0.02,0 0.02,-0.02 -0,-0.02 -0.01,0 -0.03,-0 -0.03,0.01 0,0.01 0.01,0.01 0.01,0.01z"/>
   <path class="fil13" d="M0.29 0.42l-0 -0 0 0.02c0.01,0 0.18,0 0.19,0l0 -0.02c-0,-0 -0,-0 -0,-0 -0,-0 -0,-0 -0,-0l-0 0.02 -0.19 0c0,-0 0,-0.01 -0,-0.01 -0,-0.01 -0,-0.01 0,-0.01z"/>
   <path class="fil0" d="M0.07 0.1c-0,0 -0.01,0.01 -0,0.01 0,0 0.01,0.01 0.01,0 0.01,-0.01 0,-0.02 -0.01,-0.02z"/>
   <path class="fil0" d="M0.1 0.1c-0.01,0.01 -0,0.02 0.01,0.02 0.01,-0.01 0,-0.02 -0.01,-0.02z"/>
   <path class="fil0" d="M0.14 0.1c-0.01,0.01 -0,0.02 0.01,0.02 0.01,-0.01 0,-0.02 -0.01,-0.02z"/>
   <path class="fil14" d="M0.53 0.44c-0.01,-0 -0.03,-0 -0.04,-0l0 -0.06c-0,0 -0,-0 -0,0.01l0 0.05c0.01,0 0.03,0 0.04,0z"/>
   <path class="fil15" d="M0.23 0.44l0.03 -0c0,-0.01 0,-0.03 0,-0.04l-0 -0.01c-0,-0 -0,-0 -0,-0l0 0.06c-0.01,0 -0.02,-0 -0.03,0z"/>
  </g>
 </g>
</svg>
