<svg height="512" viewBox="0 0 512 512" width="512" xmlns="http://www.w3.org/2000/svg"><g id="Fill_out_line" data-name="Fill out line"><path d="m56 256h40v232h-40z" fill="#4ba477"/><path d="m128 352h40v136h-40z" fill="#a2c32a"/><path d="m200 424h40v64h-40z" fill="#e88604"/><path d="m272 384h40v104h-40z" fill="#eebe33"/><path d="m344 384h40v104h-40z" fill="#eebe33"/><path d="m416 456h40v32h-40z" fill="#e44b4d"/><path d="m456 352v24l-160-160-72 72-144-144-56 56 24 24 32-32 144 144 72-72 136 136h-24v32h80v-80z" fill="#e44b4d"/><path d="m266.63648 30.4352-83.77848 137.2276a16 16 0 0 0 13.65621 24.3372h167.05969a16 16 0 0 0 13.67817-24.30106l-83.28124-137.22761a16 16 0 0 0 -27.33435-.03613z" fill="#eebe33"/><path d="m272 136-8-56h32l-8 56z" fill="#e44b4d"/><path d="m464 456a7.9979 7.9979 0 0 0 -8-8h-40a7.9979 7.9979 0 0 0 -8 8v24h-16v-96a7.9979 7.9979 0 0 0 -8-8h-40a7.9979 7.9979 0 0 0 -8 8v96h-16v-96a7.9979 7.9979 0 0 0 -8-8h-40a7.9979 7.9979 0 0 0 -8 8v96h-16v-56a7.9979 7.9979 0 0 0 -8-8h-40a7.9979 7.9979 0 0 0 -8 8v56h-16v-128a7.9979 7.9979 0 0 0 -8-8h-40a7.9979 7.9979 0 0 0 -8 8v128h-16v-224a7.9979 7.9979 0 0 0 -8-8h-40a7.9979 7.9979 0 0 0 -8 8v224h-16v16h464v-16h-32zm-400 24v-216h24v216zm72 0v-120h24v120zm72 0v-48h24v48zm72 0v-88h24v88zm72 0v-88h24v88zm72 0v-16h24v16z"/><path d="m488 344h-32a8.00039 8.00039 0 0 0 -8 8v4.68652l-146.34277-146.34375a8.003 8.003 0 0 0 -11.31446 0l-66.34277 66.34375-138.34277-138.34375a8.003 8.003 0 0 0 -11.31446 0l-56 56a8.00122 8.00122 0 0 0 0 11.31446l24 24a8.003 8.003 0 0 0 11.31446 0l26.34277-26.34375 138.34277 138.34375a8.003 8.003 0 0 0 11.31446 0l66.34277-66.34375 116.68652 116.68652h-4.68652a8.00039 8.00039 0 0 0 -8 8v32a8.00039 8.00039 0 0 0 8 8h80a8.00039 8.00039 0 0 0 8-8v-80a8.00039 8.00039 0 0 0 -8-8zm-8 80h-64v-16h16a8.00066 8.00066 0 0 0 5.65723-13.65723l-136-136a8.003 8.003 0 0 0 -11.31446 0l-66.34277 66.34375-138.34277-138.34375a8.003 8.003 0 0 0 -11.31446 0l-26.34277 26.34375-12.68652-12.68652 44.68652-44.68652 138.34277 138.34375a8.003 8.003 0 0 0 11.31446 0l66.34277-66.34375 154.34277 154.34375a8.00066 8.00066 0 0 0 13.65723-5.65723v-16h16z"/><path d="m196.51465 200h167.05957a23.9991 23.9991 0 0 0 20.5166-36.45117l-83.28125-137.22754a23.8227 23.8227 0 0 0 -20.48437-11.54883h-.0332a23.82831 23.82831 0 0 0 -20.4834 11.49414l-83.77833 137.22754a24.00023 24.00023 0 0 0 20.48438 36.50586zm-6.82813-28.168 83.77832-137.22751v-.001a7.88 7.88 0 0 1 6.82911-3.83106h.00976a7.88237 7.88237 0 0 1 6.82813 3.84961l83.28125 137.22852a7.9992 7.9992 0 0 1 -6.83887 12.14944h-167.05957a7.99936 7.99936 0 0 1 -6.82813-12.168z"/><path d="m264.08008 137.13184a8.00073 8.00073 0 0 0 7.91992 6.86816h16a8.00073 8.00073 0 0 0 7.91992-6.86816l8-56a8.00061 8.00061 0 0 0 -7.91992-9.13184h-32a8.00061 8.00061 0 0 0 -7.91992 9.13184zm22.69629-49.13184-5.71485 40h-2.123l-5.71485-40z"/><circle cx="280" cy="160" r="8"/></g></svg>