<svg id="_x33_0" enable-background="new 0 0 64 64" height="512" viewBox="0 0 64 64" width="512" xmlns="http://www.w3.org/2000/svg"><g><g><g><path d="m24.88 49.24v.01l-2.88 5.75-2.88-5.75v-.01l.88-5.24h4z" fill="#e6e9ed"/></g><g><path d="m22 38 2.89 2.32-.89 3.68h-4l-.89-3.68z" fill="#ccd1d9"/></g><g><path d="m19.11 40.32.89 3.68-.88 5.24-1.88-3.77-1.31-2.61z" fill="#fcd770"/></g><g><path d="m28.07 42.86-1.31 2.61-1.88 3.77-.88-5.24.89-3.68z" fill="#fcd770"/></g><g><path d="m22 38-2.89 2.32-3.18 2.54-3.51-7.03 4.58-.83z" fill="#ffc729"/></g><g><path d="m31.58 35.84-3.51 7.02-3.18-2.54-2.89-2.32 4.99-3h.01z" fill="#ffc729"/></g><g><path d="m10 62h-8v-16.9c0-2.01.68-3.95 1.94-5.52 1.33-1.66 3.21-2.79 5.31-3.17l.75-.14v6.73l7.24 2.47-3.24 3.53 8 6v7z" fill="#ff826e"/></g><g><path d="m34 62h-12v-7l8-6-3.24-3.53 7.24-2.47v-6.72l.72.13c.67.12 1.31.32 1.92.59 1.32.56 2.48 1.45 3.39 2.58 1.26 1.57 1.94 3.51 1.94 5.52v2.9 14z" fill="#ff826e"/></g><g><path d="m19.12 49.25 2.88 5.75-8-6 3.24-3.53 1.88 3.77z" fill="#fc6e51"/></g><g><path d="m17.24 45.47-7.24-2.47v-6.73l2.42-.44 3.51 7.03z" fill="#fc6e51"/></g><g><path d="m26.76 45.47 3.24 3.53-8 6 2.88-5.75v-.01z" fill="#fc6e51"/></g><g><path d="m34 36.28v6.72l-7.24 2.47 1.31-2.61 3.51-7.02z" fill="#fc6e51"/></g><g><path d="m62 20.38v26.62c0 .26-.1.49-.26.67l-10.74-13.67 3.95-5.02v-.01l7-8.91c.03.1.05.21.05.32z" fill="#dfb28b"/></g><g><path d="m61.95 20.06-7 8.91c-.53-5.05-4.77-8.97-9.95-8.97h16.92c.01.02.02.04.03.06z" fill="#ecc19c"/></g><g><path d="m61.92 20h-16.92-9.17-.01c-.15-.46-.42-.86-.76-1.18.3-.92.52-1.87.68-2.82h22.7l3.31 3.72c.07.08.13.18.17.28z" fill="#e6e9ed"/></g><g><path d="m51 34 10.74 13.67c-.18.2-.45.33-.74.33h-19-.03v-2.9c0-2.01-.68-3.95-1.94-5.52-.91-1.13-2.07-2.02-3.39-2.58l.01-.01 2.35-2.99h6 2z" fill="#d3a06c"/></g><g><path d="m46.66 2.75 11.78 13.25h-22.7c.17-1.04.26-2.1.26-3.16v-1.84l7.34-8.25c.42-.48 1.02-.75 1.66-.75s1.24.27 1.66.75z" fill="#cf9e76"/></g><g><path d="m47 34h-2-6l-3.95-5.02c.51-5.05 4.77-8.98 9.95-8.98s9.42 3.92 9.95 8.97v.01l-3.95 5.02z" fill="#fcd770"/></g><g><path d="m35.83 20h9.17c-5.18 0-9.44 3.93-9.95 8.98l-3.63-4.62c.04-.12.08-.24.12-.36h1.46c.83 0 1.58-.34 2.12-.88s.88-1.29.88-2.12c0-.35-.06-.69-.18-1z" fill="#ecc19c"/></g><g><path d="m34 36.28-2.42-.44-4.58-.84h-.01-.02l-.97-4.84c2.52-1.09 4.49-3.2 5.42-5.8l3.63 4.62 3.95 5.02-2.35 2.99-.01.01c-.61-.27-1.25-.47-1.92-.59z" fill="#dfb28b"/></g><g><path d="m36 11v1.84c0 1.06-.09 2.12-.26 3.16-.16.95-.38 1.9-.68 2.82-.53-.5-1.26-.82-2.06-.82h-1v-5.07c2.39-1.38 4-3.97 4-6.93z" fill="#656d78"/></g><g><path d="m16.15 11.51-1.72 1.03c-1.51.91-2.43 2.53-2.43 4.29v1.17h-1c-.8 0-1.52.31-2.05.81l-.6-2.43c-.23-.92-.35-1.86-.35-2.8 0-3.2 1.3-6.1 3.39-8.19s4.99-3.39 8.19-3.39h14.42c1.1 0 2 .9 2 2v2c0 2.96-1.61 5.55-4 6.93-1.17.68-2.54 1.07-4 1.07h-8.51c-1.58 0-2.92-1.05-3.34-2.49z" fill="#656d78"/></g><g><path d="m35.82 20c.12.31.18.65.18 1 0 .83-.34 1.58-.88 2.12s-1.29.88-2.12.88h-1.46c.3-.95.46-1.95.46-3v-3h1c.8 0 1.53.32 2.06.82.34.32.61.72.76 1.18z" fill="#f0d0b4"/></g><g><path d="m26 30.16c-1.22.54-2.58.84-4 .84-1.43 0-2.8-.3-4.03-.85-1.14-.5-2.17-1.21-3.04-2.08-1.12-1.12-1.98-2.51-2.47-4.07-.3-.95-.46-1.95-.46-3v-3-1.17c0-1.76.92-3.38 2.43-4.29l1.72-1.03c.42 1.44 1.76 2.49 3.34 2.49h8.51c1.46 0 2.83-.39 4-1.07v5.07 3c0 1.05-.16 2.05-.46 3-.04.12-.08.24-.12.36-.93 2.6-2.9 4.71-5.42 5.8z" fill="#f0d0b4"/></g><g><path d="m26.99 35-4.99 3-5-3 .97-4.85c1.23.55 2.6.85 4.03.85 1.42 0 2.78-.3 4-.84l.97 4.84z" fill="#f0d0b4"/></g><g><path d="m12.46 24h-1.46c-.83 0-1.58-.34-2.12-.88s-.88-1.29-.88-2.12c0-.86.36-1.64.95-2.19.53-.5 1.25-.81 2.05-.81h1v3c0 1.05.16 2.05.46 3z" fill="#f0d0b4"/></g></g><g><path d="m18 19c.552 0 1 .449 1 1h2c0-1.654-1.346-3-3-3s-3 1.346-3 3h2c0-.551.448-1 1-1z"/><path d="m26 19c.552 0 1 .449 1 1h2c0-1.654-1.346-3-3-3s-3 1.346-3 3h2c0-.551.448-1 1-1z"/><path d="m26.896 24.473.052-.154-1.896-.638-.052.157c-.432 1.293-1.637 2.162-3 2.162s-2.568-.869-3-2.165l-.052-.154-1.896.638.052.151c.703 2.112 2.67 3.53 4.896 3.53s4.193-1.418 4.896-3.527z"/><path d="m62.494 19.051-15.082-16.967c-.611-.689-1.49-1.084-2.412-1.084s-1.801.395-2.411 1.083l-5.589 6.287v-2.37-2c0-1.654-1.346-3-3-3h-14.425c-6.933 0-12.575 5.641-12.575 12.575 0 1.027.126 2.053.376 3.05l.482 1.929c-.529.678-.858 1.521-.858 2.446 0 2.206 1.794 4 4 4h.764c.961 2.451 2.771 4.478 5.074 5.708l-.686 3.43-7.079 1.287c-2.335.425-4.438 1.679-5.919 3.531-1.388 1.737-2.154 3.918-2.154 6.142v17.902h41.969v-14h18.031c1.103 0 2-.897 2-2v-26.62c0-.49-.18-.963-.506-1.329zm-10.222 14.949 8.728-11.109v22.218zm-7.272-5c-.552 0-1-.449-1-1v-1h1c.552 0 1 .449 1 1v1h2v-1c0-1.302-.839-2.402-2-2.816v-2.184h-2v2h-2v3c0 1.654 1.346 3 3 3 .552 0 1 .449 1 1v1h-1c-.552 0-1-.449-1-1v-1h-2v1c0 .352.072.686.184 1h-2.698l-3.382-4.305c.637-4.411 4.39-7.695 8.896-7.695 4.505 0 8.258 3.284 8.896 7.695l-3.382 4.305h-2.514v-1c0-1.654-1.346-3-3-3zm-10.104 6.425-7.08-1.287-.683-3.416c1.907-1.011 3.484-2.563 4.52-4.454l6.075 7.732-1.416 1.802c-.46-.157-.931-.289-1.416-.377zm-23.896 1.682.858-.156 3.392 6.785-4.25-1.451zm16.184-1.051 2.905.528-2.36 4.719-3.982-3.186zm-6.337 8.944h2.306l.682 4.093-1.835 3.671-1.835-3.67zm4.509 1.052-.336-2.015.476-1.96 1.319 1.056zm-1.583-5.353-.559 2.301h-2.428l-.559-2.301 1.773-1.418zm-5.269 1.378.476 1.96-.336 2.015-1.46-2.919zm-1.513 5.141 2.221 4.441-3.728-2.796zm10.018 0 1.507 1.645-3.728 2.796zm5.131-10.262.86.157v5.172l-4.25 1.451zm2.86-25.312v1.193c0 1.503-.188 2.992-.548 4.445-.451-.176-.939-.282-1.452-.282v-3.522c.756-.507 1.429-1.127 2-1.834zm24.773 7.356h-23.329c-.085-.146-.177-.285-.28-.419.153-.523.284-1.05.394-1.581h21.437zm-4.288 7.673c-.734-2.337-2.216-4.311-4.157-5.673h8.615zm-22.3-1.692c1.262-.059 2.371-.697 3.062-1.664-.758.994-1.347 2.126-1.733 3.356zm-.185-3.981v-2c1.103 0 2 .897 2 2s-.897 2-2 2h-.191c.12-.65.191-1.316.191-2zm4 0h1.671c-.886.622-1.68 1.366-2.347 2.221.426-.636.676-1.4.676-2.221zm7.084-17.589c.463-.522 1.368-.523 1.833.001l10.3 11.588h-19.345c.076-.717.128-1.437.128-2.162v-1.458zm-33.084 19.589c-1.103 0-2-.897-2-2s.897-2 2-2v2c0 .684.071 1.35.191 2zm0-6.169v.169c-.495 0-.965.102-1.403.267l-.282-1.127c-.209-.839-.315-1.702-.315-2.565 0-5.831 4.744-10.575 10.575-10.575h14.425c.552 0 1 .449 1 1v2c0 3.86-3.141 7-7 7h-8.513c-1.371 0-2.487-1.116-2.487-2.487 0-1.072.684-2.021 1.699-2.359l.616-.205-.631-1.897-.617.205c-1.835.611-3.067 2.322-3.067 4.256 0 .168.032.328.05.491l-1.137.682c-1.797 1.079-2.913 3.05-2.913 5.145zm2 4.169v-4.169c0-1.396.744-2.711 1.942-3.43l.778-.467c.8 1.239 2.186 2.066 3.767 2.066h8.513c1.053 0 2.06-.191 3-.525v6.525c0 4.962-4.037 9-9 9s-9-4.038-9-9zm9 11c1.131 0 2.223-.172 3.251-.491l.602 3.013-3.853 2.312-3.881-2.329.601-3.005c1.036.324 2.138.5 3.28.5zm-5.192 4.051 3.444 2.066-3.982 3.186-2.362-4.725zm-13.808 9.047c0-1.771.609-3.509 1.717-4.893 1.087-1.36 2.598-2.308 4.283-2.714v6.224l6.464 2.207-2.948 3.215 8.484 6.363v5.5h-10v-14h-2v14h-6zm37.969 15.902h-5.969v-14h-2v14h-10v-5.5l8.483-6.362-2.948-3.215 6.465-2.208v-6.217c1.672.41 3.171 1.356 4.253 2.708 1.106 1.384 1.716 3.121 1.716 4.893zm-.154-22.044c-.74-.924-1.634-1.699-2.634-2.297l1.305-1.659h11.029l9.428 12h-16.974v-1.902c0-2.223-.765-4.405-2.154-6.142z"/></g></g></svg>