<?xml version="1.0" encoding="iso-8859-1"?>
<!-- Generator: Adobe Illustrator 19.0.0, SVG Export Plug-In . SVG Version: 6.00 Build 0)  -->
<svg version="1.1" id="Capa_1" xmlns="http://www.w3.org/2000/svg" xmlns:xlink="http://www.w3.org/1999/xlink" x="0px" y="0px"
	 viewBox="0 0 512 512" style="enable-background:new 0 0 512 512;" xml:space="preserve">
<circle style="fill:#FFA700;" cx="256" cy="256" r="256"/>
<path style="fill:#FF6900;" d="M512,256c0-19.766-2.244-39.008-6.484-57.488l-93.303-93.782c-3.254-3.941-8.163-6.469-13.643-6.469
	H114.383c-9.745,0-17.719,7.974-17.719,17.719v279.896c0,5.468,2.517,10.367,6.443,13.621l96.644,96.289
	C217.853,509.844,236.674,512,256,512C397.385,512,512,397.385,512,256z"/>
<path style="fill:#006EF5;" d="M398.093,413.667H113.907c-9.745,0-17.719-7.973-17.719-17.719V116.052
	c0-9.745,7.973-17.719,17.719-17.719h284.186c9.745,0,17.719,7.974,17.719,17.719v279.896
	C415.812,405.693,407.838,413.667,398.093,413.667z"/>
<path style="fill:#0043A3;" d="M415.81,116.05v279.9c0,9.74-7.97,17.72-17.72,17.72H256V98.33h142.09
	C407.84,98.33,415.81,106.31,415.81,116.05z"/>
<path style="fill:#FFFFFF;" d="M161.792,98.333v97.563c0,7.237,5.867,13.104,13.104,13.104h162.208
	c7.237,0,13.104-5.867,13.104-13.104V98.333H161.792z M221,190.917h-31V114h31V190.917z"/>
<path style="fill:#FFF4AA;" d="M256,98.33V209h81.1c7.24,0,13.11-5.87,13.11-13.1V98.33H256z"/>
<rect x="144.37" y="261" style="fill:#FFFFFF;" width="223.25" height="152.67"/>
<rect x="256" y="261" style="fill:#FFF4AA;" width="111.62" height="152.67"/>
<rect x="163.38" y="281.33" style="fill:#00D4D1;" width="185.23" height="113.17"/>
<rect x="256" y="281.33" style="fill:#009CA0;" width="92.61" height="113.17"/>
<rect x="176" y="302.26" style="fill:#FFFFFF;" width="160" height="8.813"/>
<rect x="256" y="302.26" style="fill:#DADADC;" width="80" height="8.82"/>
<rect x="176" y="333.51" style="fill:#FFFFFF;" width="160" height="8.813"/>
<rect x="256" y="333.51" style="fill:#DADADC;" width="80" height="8.81"/>
<rect x="176" y="364.76" style="fill:#FFFFFF;" width="160" height="8.813"/>
<rect x="256" y="364.76" style="fill:#DADADC;" width="80" height="8.81"/>
<g>
</g>
<g>
</g>
<g>
</g>
<g>
</g>
<g>
</g>
<g>
</g>
<g>
</g>
<g>
</g>
<g>
</g>
<g>
</g>
<g>
</g>
<g>
</g>
<g>
</g>
<g>
</g>
<g>
</g>
</svg>
