<svg height="512" viewBox="0 0 64 64" width="512" xmlns="http://www.w3.org/2000/svg"><g id="Smartphone"><rect fill="#4370ff" height="4" rx="2" width="8" x="28" y="55"/><path d="m48 52h-32v-18h10a2 2 0 0 0 2-2v-12a2 2 0 0 0 -2-2h-10v-6h32v18h-10a2 2 0 0 0 -2 2v12a2 2 0 0 0 2 2h10z" fill="#4370ff"/><path d="m57 10a5 5 0 0 1 5 5v1a0 0 0 0 1 0 0h-10a0 0 0 0 1 0 0v-1a5 5 0 0 1 5-5z" fill="#4370ff"/><path d="m7 56a5 5 0 0 1 5 5v1a0 0 0 0 1 0 0h-10a0 0 0 0 1 0 0v-1a5 5 0 0 1 5-5z" fill="#4370ff"/><g fill="none"><path d="m57 11a4 4 0 0 0 -4 4h8a4 4 0 0 0 -4-4z"/><path d="m53 10.54a5.965 5.965 0 0 1 8 0v-7.54h-8zm4-6.54a2 2 0 1 1 -2 2 2 2 0 0 1 2-2z"/><path d="m34 58a1 1 0 0 0 0-2h-4a1 1 0 0 0 0 2z"/><path d="m7 57a4 4 0 0 0 -4 4h8a4 4 0 0 0 -4-4z"/><path d="m3 56.54a5.965 5.965 0 0 1 8 0v-7.54h-8zm4-6.54a2 2 0 1 1 -2 2 2 2 0 0 1 2-2z"/><path d="m17 17h9a3 3 0 0 1 3 3v12a3 3 0 0 1 -3 3h-9v16h30v-4h-9a3 3 0 0 1 -3-3v-12a3 3 0 0 1 3-3h9v-16h-30z"/></g><path d="m34 60a3 3 0 0 0 0-6h-4a3 3 0 0 0 0 6zm-5-3a1 1 0 0 1 1-1h4a1 1 0 0 1 0 2h-4a1 1 0 0 1 -1-1z"/><circle cx="24" cy="7" r="2"/><path d="m29 6h14v2h-14z"/><path d="m12 21h13v2h-13z"/><path d="m8 21h2v2h-2z"/><path d="m8 25h17v2h-17z"/><path d="m8 29h13v2h-13z"/><path d="m23 29h2v2h-2z"/><path d="m43 33h13v2h-13z"/><path d="m39 33h2v2h-2z"/><path d="m39 37h17v2h-17z"/><path d="m39 41h13v2h-13z"/><path d="m54 41h2v2h-2z"/><path d="m9 2h2v2h-2z"/><path d="m9 6h2v2h-2z"/><path d="m9 10h2v2h-2z"/><path d="m53 52h2v2h-2z"/><path d="m53 56h2v2h-2z"/><path d="m53 60h2v2h-2z"/><path d="m62 1h-10a1 1 0 0 0 -1 1v14a1 1 0 0 0 1 1h4v8h-7v-14h-32v-5a3 3 0 0 1 3-3h24a3 3 0 0 1 3 3v3h2v-3a5.006 5.006 0 0 0 -5-5h-24a5.006 5.006 0 0 0 -5 5v11h-11.7a2.305 2.305 0 0 0 -1.278 4.219l1.978 1.316v9.465a3 3 0 0 0 3 3h6v-2h-6a1 1 0 0 1 -1-1v-10a1 1 0 0 0 -.445-.832l-2.42-1.613a.3.3 0 0 1 .165-.555h22.7a1 1 0 0 1 1 1v12a1 1 0 0 1 -1 1h-11v4h-8a1 1 0 0 0 -1 1v9h-4a1 1 0 0 0 -1 1v14a1 1 0 0 0 1 1h10a1 1 0 0 0 1-1v-14a1 1 0 0 0 -1-1h-4v-8h7v14h32v5a3 3 0 0 1 -3 3h-24a3 3 0 0 1 -3-3v-3h-2v3a5.006 5.006 0 0 0 5 5h24a5.006 5.006 0 0 0 5-5v-13h-11a1 1 0 0 1 -1-1v-12a1 1 0 0 1 1-1h22.7a.3.3 0 0 1 .168.555l-2.42 1.613a1 1 0 0 0 -.448.832v10a1 1 0 0 1 -1 1h-6v2h6a3 3 0 0 0 3-3v-9.465l1.975-1.316a2.305 2.305 0 0 0 -1.275-4.219h-11.7v-2h8a1 1 0 0 0 1-1v-9h4a1 1 0 0 0 1-1v-14a1 1 0 0 0 -1-1zm-59 60a4 4 0 0 1 8 0zm8-12v7.54a5.965 5.965 0 0 0 -8 0v-7.54zm36-20h-9a3 3 0 0 0 -3 3v12a3 3 0 0 0 3 3h9v4h-30v-16h9a3 3 0 0 0 3-3v-12a3 3 0 0 0 -3-3h-9v-4h30zm6-14a4 4 0 0 1 8 0zm8-4.46a5.965 5.965 0 0 0 -8 0v-7.54h8z"/><circle cx="57" cy="6" r="2"/><circle cx="7" cy="52" r="2"/></g></svg>