<svg height="512pt" viewBox="-102 0 512 512" width="512pt" xmlns="http://www.w3.org/2000/svg"><path d="m8.535156 76.800781h290.132813v358.398438h-290.132813zm0 0" fill="#ffeb99"/><path d="m264.535156 8.535156h-221.867187c-18.851563 0-34.132813 15.28125-34.132813 34.132813v34.132812h290.132813v-34.132812c0-18.851563-15.28125-34.132813-34.132813-34.132813zm0 0" fill="#acabb1"/><path d="m8.535156 469.332031c0 18.851563 15.28125 34.132813 34.132813 34.132813h221.863281c18.851562 0 34.136719-15.28125 34.136719-34.132813v-34.132812h-290.132813zm0 0" fill="#acabb1"/><g fill="#3e3d42"><path d="m264.535156 0h-221.867187c-23.554688.0273438-42.6406252 19.113281-42.667969 42.667969v426.664062c.0273438 23.554688 19.113281 42.640625 42.667969 42.667969h221.863281c23.554688-.027344 42.640625-19.113281 42.667969-42.667969v-426.664062c-.027344-23.554688-19.113281-42.6406252-42.664063-42.667969zm-221.867187 17.066406h221.863281c14.140625 0 25.601562 11.460938 25.601562 25.601563v25.597656h-273.066406v-25.597656c0-14.140625 11.460938-25.601563 25.601563-25.601563zm247.464843 68.265625v341.335938h-273.066406v-341.335938zm-25.597656 409.601563h-221.867187c-14.140625 0-25.601563-11.460938-25.601563-25.601563v-25.597656h273.066406v25.597656c0 14.140625-11.460937 25.601563-25.597656 25.601563zm0 0"/><path d="m162.132812 460.800781h-17.066406c-4.710937 0-8.53125 3.820313-8.53125 8.53125 0 4.714844 3.820313 8.535157 8.53125 8.535157h17.066406c4.714844 0 8.535157-3.820313 8.535157-8.535157 0-4.710937-3.820313-8.53125-8.535157-8.53125zm0 0"/><path d="m51.199219 51.199219h17.066406c4.714844 0 8.535156-3.820313 8.535156-8.53125 0-4.714844-3.820312-8.535157-8.535156-8.535157h-17.066406c-4.710938 0-8.53125 3.820313-8.53125 8.535157 0 4.710937 3.820312 8.53125 8.53125 8.53125zm0 0"/><path d="m102.398438 51.199219h51.203124c4.710938 0 8.53125-3.820313 8.53125-8.53125 0-4.714844-3.820312-8.535157-8.53125-8.535157h-51.203124c-4.710938 0-8.53125 3.820313-8.53125 8.535157 0 4.710937 3.820312 8.53125 8.53125 8.53125zm0 0"/><path d="m59.734375 264.53125h17.066406c4.710938 0 8.53125 3.820312 8.53125 8.535156v17.066406c0 4.710938-3.820312 8.535157-8.53125 8.535157h-17.066406c-4.714844 0-8.535156-3.820313-8.535156-8.535157 0-4.710937-3.820313-8.535156-8.53125-8.535156-4.714844 0-8.535157 3.820313-8.535157 8.535156 0 14.140626 11.460938 25.601563 25.601563 25.601563h17.066406c14.136719 0 25.597657-11.460937 25.597657-25.601563v-17.066406c0-14.136718-11.460938-25.597656-25.597657-25.597656h-17.066406c-4.714844 0-8.535156-3.820312-8.535156-8.535156v-17.066406c0-4.710938 3.820312-8.535157 8.535156-8.535157h17.066406c4.710938 0 8.53125 3.820313 8.53125 8.535157 0 4.714843 3.820313 8.535156 8.535157 8.535156 4.710937 0 8.53125-3.820313 8.53125-8.535156 0-14.140626-11.460938-25.601563-25.597657-25.601563h-17.066406c-14.140625 0-25.601563 11.460937-25.601563 25.601563v17.066406c0 14.136718 11.460938 25.597656 25.601563 25.597656zm0 0"/><path d="m247.46875 298.667969h-17.066406c-4.714844 0-8.535156-3.820313-8.535156-8.535157 0-4.710937-3.820313-8.535156-8.535157-8.535156-4.710937 0-8.53125 3.820313-8.53125 8.535156 0 14.140626 11.460938 25.601563 25.597657 25.601563h17.066406c14.140625 0 25.601562-11.460937 25.601562-25.601563v-17.066406c0-14.136718-11.460937-25.597656-25.601562-25.597656h-17.0625c-4.714844 0-8.535156-3.820312-8.535156-8.535156v-17.066406c0-4.710938 3.820312-8.535157 8.535156-8.535157h17.066406c4.710938 0 8.53125 3.820313 8.53125 8.535157 0 4.714843 3.820312 8.535156 8.535156 8.535156 4.710938 0 8.53125-3.820313 8.53125-8.535156 0-14.140626-11.460937-25.601563-25.597656-25.601563h-17.066406c-14.140625 0-25.601563 11.460937-25.601563 25.601563v17.066406c0 14.136718 11.460938 25.597656 25.601563 25.597656h17.066406c4.710938 0 8.53125 3.820312 8.53125 8.535156v17.066406c0 4.710938-3.820312 8.535157-8.53125 8.535157zm0 0"/><path d="m119.464844 315.734375c4.714844 0 8.535156-3.820313 8.535156-8.535156v-85.332031l20.480469 15.359374c3.035156 2.277344 7.207031 2.277344 10.238281 0l20.480469-15.359374v85.332031c0 4.710937 3.820312 8.535156 8.535156 8.535156 4.710937 0 8.53125-3.820313 8.53125-8.535156v-102.398438c0-4.714843-3.820313-8.535156-8.53125-8.535156-1.847656 0-3.644531.601563-5.121094 1.707031l-29.011719 21.761719-29.015624-21.761719c-3.769532-2.828125-9.117188-2.0625-11.945313 1.707032-1.109375 1.476562-1.707031 3.273437-1.707031 5.121093v102.398438c0 4.714843 3.820312 8.535156 8.53125 8.535156zm0 0"/></g></svg>