<?xml version="1.0" encoding="UTF-8"?>
<!DOCTYPE svg PUBLIC "-//W3C//DTD SVG 1.1//EN" "http://www.w3.org/Graphics/SVG/1.1/DTD/svg11.dtd">
<!-- Creator: CorelDRAW 2020 (64-Bit) -->
<svg xmlns="http://www.w3.org/2000/svg" xml:space="preserve" width="186.217mm" height="181.621mm" version="1.1" style="shape-rendering:geometricPrecision; text-rendering:geometricPrecision; image-rendering:optimizeQuality; fill-rule:evenodd; clip-rule:evenodd"
viewBox="0 0 203.01 198"
 xmlns:xlink="http://www.w3.org/1999/xlink"
 xmlns:xodm="http://www.corel.com/coreldraw/odm/2003">
 <defs>
  <style type="text/css">
   <![CDATA[
    .fil7 {fill:#009933}
    .fil6 {fill:#18CE0F}
    .fil8 {fill:white}
    .fil5 {fill:black;fill-rule:nonzero}
    .fil0 {fill:#BED8FB;fill-rule:nonzero}
    .fil2 {fill:#CBE2FF;fill-rule:nonzero}
    .fil4 {fill:#DA4A54;fill-rule:nonzero}
    .fil3 {fill:#DD636E;fill-rule:nonzero}
    .fil1 {fill:#DDEAFB;fill-rule:nonzero}
   ]]>
  </style>
 </defs>
 <g id="Capa_x0020_1">
  <metadata id="CorelCorpID_0Corel-Layer"/>
  <path class="fil0" d="M35.69 54.67l0 42.11 -33.08 0 0 -30.31c0,-6.52 5.28,-11.8 11.8,-11.8l21.28 0z"/>
  <path class="fil1" d="M162.16 68.98l0 92.66c0,0 0,0 0,0 0,7.66 -6.21,13.87 -13.87,13.87l-113.97 0c-6.42,-0 -12,-4.4 -13.49,-10.64l-0.05 -7.93 -0.32 -47.24 0 -93.22c0,-0 0,-0 0,-0 0,-7.66 6.21,-13.87 13.87,-13.87l61.47 0c5.52,0 23.42,15.25 39.23,31.32 14.43,14.66 27.14,30 27.14,35.05z"/>
  <path class="fil2" d="M162.16 68.98l0 33.94c0,-0.04 0,-0.08 0,-0.12 -1.04,-41.65 -34.97,-43.58 -46.06,-54.67l18.93 -14.2c14.43,14.66 27.14,30 27.14,35.05l-0 -0z"/>
  <path class="fil2" d="M95.79 2.61l-33.94 0c0.04,0 0.08,0 0.12,0 41.65,1.04 43.58,34.97 54.67,46.06l14.2 -18.93c-14.66,-14.43 -30,-27.14 -35.05,-27.14z"/>
  <path class="fil0" d="M162.16 68.98l0 5.87c0,-12.36 -10.02,-22.37 -22.37,-22.37l-13.62 0c-7.66,0 -13.87,-6.21 -13.87,-13.87l0 -13.62c0,-12.36 -10.02,-22.37 -22.37,-22.37l5.87 0c0,0 0,0 0,0 10.57,0 20.71,4.2 28.17,11.67l26.52 26.52c7.47,7.46 11.67,17.61 11.67,28.17l-0 -0z"/>
  <path class="fil2" d="M114.37 107.6l0 31.11c0,10.06 -8.16,18.22 -18.22,18.22l-75.37 0 -0.32 -47.24 0 -20.32 75.69 0c10.06,-0 18.22,8.16 18.22,18.22l0 0z"/>
  <path class="fil3" d="M126.17 96.5l0 31.11c0,10.06 -8.16,18.22 -18.22,18.22l-93.53 0c-0.01,0 -0.03,0 -0.04,0 -0.33,0 -0.67,-0.02 -1,-0.05 -6.09,-0.54 -10.76,-5.64 -10.76,-11.75 0,0 0,-0 0,-0l-0 -67.56c0,6.11 4.67,11.21 10.76,11.75 0.33,0.03 0.67,0.05 1.01,0.05 0.01,0 0.02,0 0.03,0l93.53 -0c10.06,0 18.22,8.16 18.22,18.22l0 -0z"/>
  <path class="fil4" d="M13.37 78.23l0 67.56c-6.09,-0.54 -10.76,-5.64 -10.76,-11.75 0,0 0,-0 0,-0l-0 -67.56c0,6.11 4.67,11.21 10.76,11.75l-0 0z"/>
  <path class="fil5" d="M164.77 68.98c0,-0.03 0,-0.08 0,-0.11 0,-11.23 -4.48,-22 -12.44,-29.91l-26.52 -26.53c-7.91,-7.95 -18.68,-12.43 -29.9,-12.43 -0.04,0 -0.08,0 -0.11,0l-47.85 0c-1.42,0.02 -2.57,1.19 -2.57,2.61 0,1.42 1.14,2.59 2.57,2.61l41.98 -0c10.91,0.01 19.75,8.86 19.76,19.76l0 13.62c0.01,9.1 7.39,16.47 16.48,16.48l13.62 0c10.88,0.01 19.71,8.81 19.76,19.7l0 86.86c-0.01,6.22 -5.04,11.26 -11.26,11.27l-113.97 0c-0.01,-0 -0.02,-0 -0.04,-0 -5.1,0 -9.55,-3.43 -10.85,-8.36l-0.11 -16.09 84.62 0c11.5,-0.01 20.82,-9.33 20.83,-20.83l0 -5.64c0,-1.44 -1.17,-2.61 -2.61,-2.61 -1.44,0 -2.61,1.17 -2.61,2.61l0 5.64c-0.01,8.62 -7,15.61 -15.61,15.61l-93.53 0c-5.07,-0.01 -9.19,-4.12 -9.19,-9.19l-0 -56.47c2.58,2.15 5.83,3.32 9.18,3.32 0,0 0.01,0 0.01,0l93.53 0c8.62,0.01 15.61,7 15.61,15.61l0 15.04c0.02,1.42 1.19,2.57 2.61,2.57 1.42,0 2.59,-1.14 2.61,-2.57l0 -15.04c-0.01,-11.5 -9.33,-20.82 -20.83,-20.83l-84.88 -0 0 -59.18c0.01,-6.22 5.04,-11.26 11.26,-11.26l3.19 0c1.42,-0.02 2.57,-1.19 2.57,-2.61 0,-1.42 -1.14,-2.59 -2.57,-2.61l-3.19 0c-9.1,0.01 -16.47,7.39 -16.48,16.48l-0 35.58 -3.43 0c-7.95,0.01 -14.4,6.46 -14.41,14.41l-0 67.56c0.01,7.95 6.46,14.4 14.41,14.41l3.69 0 0.11 16.44c0,0.2 0.03,0.4 0.07,0.59 1.75,7.41 8.37,12.64 15.98,12.64 0.01,0 0.03,0 0.05,0l113.97 0c9.1,-0.01 16.47,-7.39 16.48,-16.48l0.01 -92.66zm-150.36 -11.69l3.43 0 0 18.38 -3.43 -0c-0.03,0 -0.05,0 -0.08,0 -5.08,0 -9.19,-4.12 -9.19,-9.19 0,-5.08 4.12,-9.19 9.19,-9.19 0.03,0 0.05,0 0.08,0l-0 0zm125.37 -7.42l-13.62 0c-6.22,-0.01 -11.26,-5.05 -11.26,-11.26l0 -13.62c0,-0 0,-0.01 0,-0.01 0,-6.78 -2.76,-13.27 -7.65,-17.96 5.6,1.81 10.71,4.94 14.86,9.12l26.52 26.52c4.18,4.16 7.31,9.26 9.11,14.86 -4.69,-4.88 -11.18,-7.65 -17.96,-7.65 -0,0 -0.01,0 -0.02,0l-0 0z"/>
  <path class="fil5" d="M105.09 98.03c1.44,-0 2.61,-1.17 2.61,-2.61 0,-1.44 -1.17,-2.61 -2.61,-2.61l-13.45 0c-1.44,-0 -2.61,1.17 -2.61,2.61l0 33.19c0.02,1.42 1.19,2.57 2.61,2.57 1.42,0 2.59,-1.14 2.61,-2.57l-0 -14.3 9.77 0c1.44,-0 2.61,-1.17 2.61,-2.61 0,-1.44 -1.17,-2.61 -2.61,-2.61l-9.77 0 0 -11.06 10.84 0z"/>
  <path class="fil5" d="M57.42 92.81c0,-0 0,-0 0,-0 -1.44,0 -2.61,1.17 -2.61,2.61 0,0 0,0 0,0l0 32.65c-0.02,0.13 -0.03,0.25 -0.03,0.38 0,1.5 1.2,2.73 2.7,2.77l0.01 0c0.28,0 6.98,-0.03 9.64,-0.07 4.58,-0.05 8.87,-2.24 11.61,-5.91 2.63,-3.44 4.08,-8.13 4.08,-13.22 0,-11.49 -6.44,-19.2 -16.01,-19.2l-9.4 -0zm20.11 19.18c0,8.08 -4.34,13.8 -10.56,13.91 -1.59,0.03 -4.71,0.05 -6.96,0.06 -0.01,-3.81 -0.03,-10.77 -0.03,-14.01 0,-2.71 -0.01,-10.01 -0.02,-13.95l6.79 0c5.22,0 10.79,3.67 10.79,13.99l-0 0z"/>
  <path class="fil5" d="M29.01 92.56c0,-0 -0,-0 -0,-0 -1.44,0 -2.61,1.16 -2.61,2.6l0 33.44c-0,1.44 1.17,2.61 2.61,2.61 1.44,0 2.61,-1.17 2.61,-2.61l-0 -11.93c2.17,-0.01 5.17,-0.03 6.7,-0.03 0.06,-0 0.13,0 0.19,0 6.65,0 12.05,-5.39 12.05,-12.05 0,-6.65 -5.39,-12.05 -12.05,-12.05 -0.06,0 -0.13,0 -0.19,0l-9.31 0zm16.32 12.04c-0.1,3.8 -3.21,6.83 -7.01,6.83 0,0 -0,0 -0,0 -1.52,0 -4.48,0.01 -6.65,0.03 -0.01,-2.22 -0.03,-5.3 -0.03,-6.85 0,-1.31 -0.01,-4.51 -0.02,-6.83l6.69 0c0,-0 0,-0 0,-0 3.8,0 6.91,3.03 7.01,6.83l0 -0z"/>
  <g id="_2800524763200">
   <path class="fil6" d="M168.41 196.39c-0.91,-0.37 -16.66,-16.44 -19.06,-18.84 -0.5,-0.5 -0.87,-0.87 -1.37,-1.37 -1.3,-1.3 -1.24,-0.92 -1.04,-1.31 -0.39,-0.51 -1.14,-0.87 -1.56,-1.22l-4.29 -4.32c-1.95,-1.98 -3.77,-3.83 -5.72,-5.81l-5.64 -5.71c-1.54,-1.31 -4.65,-3.78 -4.68,-6.84 -0.03,-3.07 2.12,-4.47 4.49,-6.84 0.83,-0.83 1.74,-2.01 3.12,-2.55 4.53,-1.79 7.59,2.79 10.77,6.01 1.13,1.15 4.78,5.15 5.77,5.75l22.45 -22.19c1.26,-1.24 2.74,-3.41 5.36,-3.66 3.55,-0.35 5.41,2.59 8.15,5.29 1.5,1.48 0.8,0.71 1.64,2.21 0.06,0.11 0.06,0.1 0.15,0.25l0.17 0.25 0.08 -0.09c0.79,0.44 1.33,1.2 2,1.76l13.8 12.6c0,-5.34 -1.46,-11.43 -3.03,-15.31 -7.52,-18.63 -24.1,-29.61 -42.18,-30.12l-2.66 0c-6.86,0.19 -13.88,1.89 -20.65,5.25l-9.41 6.51c-0.51,0.45 -0.77,0.58 -1.28,1.1 -0.73,0.73 -1.66,1.54 -2.27,2.31 -3.86,4.83 -6.26,7.56 -8.89,14.17 -2.05,5.15 -3.13,10.41 -3.35,15.61l0 3.79c0.35,8.69 3.14,17.09 7.98,24.37 3.41,5.13 8.64,10.28 13.98,13.48 6.08,3.64 13.21,6.64 20.51,6.95 6.31,0.27 8.67,0.32 14.82,-0.93l1.6 -0.41c0.03,-0.01 0.1,-0.04 0.13,-0.05 0.03,-0.01 0.08,-0.03 0.12,-0.06z"/>
   <path class="fil7" d="M146.94 174.86c-0.2,0.39 -0.27,0 1.04,1.31 0.5,0.5 0.87,0.87 1.37,1.37 2.4,2.4 18.15,18.48 19.06,18.84 3.74,-0.42 10.78,-4.22 13.99,-6.35 2.42,-1.6 6.26,-4.78 8.21,-6.99 0.3,-0.34 0.28,-0.39 0.56,-0.72 4.08,-4.82 6.64,-8.55 9.07,-15.09 1.81,-4.87 2.07,-7.55 2.72,-12.47 0.02,-0.15 0.04,-0.32 0.05,-0.49l0 -4.54 -13.8 -12.6c-0.67,-0.56 -1.2,-1.32 -2,-1.76l-0.08 0.09c-0.19,3.18 0.98,3.17 -2.79,6.9l-25.28 25.05c-0.95,0.94 -1.51,1.77 -2.43,2.69 -0.87,0.87 -1.61,1.6 -2.48,2.47 -3.65,3.65 -4.5,2.35 -7.2,2.28z"/>
   <path class="fil8" d="M146.94 174.86c2.7,0.08 3.56,1.37 7.2,-2.28 0.87,-0.87 1.6,-1.6 2.48,-2.47 0.93,-0.92 1.48,-1.76 2.43,-2.69l25.28 -25.05c3.77,-3.73 2.6,-3.72 2.79,-6.9l-0.17 -0.25c-0.09,-0.15 -0.09,-0.14 -0.15,-0.25 -0.84,-1.5 -0.15,-0.73 -1.64,-2.21 -2.74,-2.7 -4.6,-5.64 -8.15,-5.29 -2.63,0.26 -4.11,2.42 -5.36,3.66l-22.45 22.19c-0.98,-0.6 -4.64,-4.6 -5.77,-5.75 -3.17,-3.22 -6.24,-7.8 -10.77,-6.01 -1.38,0.54 -2.3,1.73 -3.12,2.55 -2.37,2.37 -4.52,3.77 -4.49,6.84 0.03,3.06 3.14,5.53 4.68,6.84l5.64 5.71c1.95,1.98 3.77,3.83 5.72,5.81l4.29 4.32c0.42,0.35 1.17,0.71 1.56,1.22z"/>
  </g>
 </g>
</svg>
