<?xml version="1.0" encoding="UTF-8"?>
<!DOCTYPE svg PUBLIC "-//W3C//DTD SVG 1.1//EN" "http://www.w3.org/Graphics/SVG/1.1/DTD/svg11.dtd">
<!-- Creator: CorelDRAW 2020 (64-Bit) -->
<svg xmlns="http://www.w3.org/2000/svg" xml:space="preserve" width="159.932mm" height="159.932mm" version="1.1" style="shape-rendering:geometricPrecision; text-rendering:geometricPrecision; image-rendering:optimizeQuality; fill-rule:evenodd; clip-rule:evenodd"
viewBox="0 0 195.62 195.62"
 xmlns:xlink="http://www.w3.org/1999/xlink"
 xmlns:xodm="http://www.corel.com/coreldraw/odm/2003">
 <defs>
  <style type="text/css">
   <![CDATA[
    .fil3 {fill:black}
    .fil5 {fill:#7A7673}
    .fil0 {fill:#D62E3D}
    .fil4 {fill:#F1B986}
    .fil2 {fill:#F1CFA4}
    .fil1 {fill:white}
   ]]>
  </style>
 </defs>
 <g id="Capa_x0020_1">
  <metadata id="CorelCorpID_0Corel-Layer"/>
  <g id="_1752685923712">
   <path class="fil0" d="M173.33 103.54c-3.27,39.84 -37.55,73.2 -81.45,69.78 -39.66,-3.09 -72.96,-37.82 -69.58,-81.49 3.07,-39.63 37.86,-72.98 81.4,-69.54 39.46,3.12 73.21,37.72 69.63,81.25zm-166.07 -34.87c-0.22,1.06 -1.12,4.2 -1.49,5.07 2.8,2.82 2.66,0.43 1.32,8.24 -7.84,45.79 19.77,91.69 64.96,104.24 56.33,15.63 102.14,-20.7 114.08,-62.35 14.22,-49.61 -14.24,-100.45 -61.97,-114.3 -31.63,-9.18 -66.4,-0.67 -87.52,19.43 -2.14,2.04 -3.89,3.34 -5.88,5.59 -7.86,8.87 -13.25,16.47 -17.99,27.86 -1.55,3.73 -1.24,6.47 -5.52,6.23z"/>
   <path class="fil1" d="M109.2 46.36c0.95,1.16 -0,2.28 0.78,3.64 5.15,-1.21 9.27,-0.59 12.1,2.54 3.05,3.38 2.8,7.79 2.8,13.34 7.22,-2.35 13.32,0.53 15.02,6.66 0.95,3.44 0.4,17.96 0.4,22.6 0,11.22 1.12,21.74 -2.65,32.18 -1.18,3.26 -1.71,6.46 -5.8,5.53 -0.73,1.77 -2.63,3.55 -2.6,4.99 0.92,3.17 -0.25,4.44 -3.8,7.07 -9.15,6.79 -16.23,5.97 -27.63,5.97 -13.98,0 -25.04,1.79 -33.75,-11.31 -9.13,-13.75 -6.19,-27.02 -8.64,-36.45 -0.9,-3.47 -2.65,-4.53 -2.23,-9.11 0.54,-6.05 5.83,-10.62 11.77,-10.52 3.88,0.06 5.7,1.68 7.87,3.08 0.71,-8.45 -0.01,-19.38 0.07,-28.14 0.09,-10.54 9.5,-13.34 15.22,-10.5 0.99,-3.67 0.53,-4.7 3.01,-7.26 1.59,-1.63 3.4,-3.11 6.66,-3.44 6.01,-0.62 11.17,3.81 11.41,9.1zm-16.9 -18.34c-36.73,2.92 -67.59,35.04 -64.27,75.53 2.99,36.49 35.01,67.27 75.34,64.06 36.63,-2.92 67.48,-35.06 64.25,-75.31 -2.95,-36.7 -34.96,-67.49 -75.31,-64.28z"/>
   <path class="fil2" d="M97.81 43.17c-2.31,4.09 -1.52,9.08 -1.52,14.14l0.01 37.46c0.02,2.94 -0.16,3.71 -2.66,4.77 -1.47,1.02 -4.01,1.7 -5.03,-0.56 -0.64,-1.41 -0.3,-19.81 -0.3,-22.18 0,-3.43 0.69,-19.69 -0.85,-22.13 -0.79,-1.25 -2.79,-2.42 -4.94,-1.84 -2.46,3.36 -1.65,8.81 -1.65,13.27 0,4.84 0,9.68 0,14.52 0,9.6 0,19.19 0,28.79 13.52,0.02 23.2,5.53 28.51,15.43 1.14,2.13 1.33,4.87 -1.37,5.35 -3.8,0.67 -3.67,-5.06 -8.47,-8.88 -13.97,-11.1 -25.08,-2.55 -26.49,-7.92 -1.15,-4.37 1.02,-11.93 -0.92,-16.64 -1.32,-3.19 -4.31,-9.73 -9.36,-7.03 -3.41,7.58 -1.03,6.47 0.62,13.11 1.24,4.97 0.82,10.14 1.47,15.26 1.38,10.73 4.39,17.9 10.02,24.08 2.26,4.25 24.08,3 30.19,3 5.31,0.01 9.96,-0.5 13.95,-2.84 6.02,-3.53 5.87,-6.92 10.21,-4.48 -0.03,-1.44 1.87,-3.22 2.6,-4.99 -3.2,-3.08 0.39,-4.58 2.1,-13.85 1.09,-5.91 0.62,-28.54 0.62,-36.09 0,-3.24 1.44,-14.12 -5.8,-12.15 -2.66,3.78 -1.64,10.98 -1.64,15.97 0,2.8 -0.01,5.61 0,8.41 0.02,3.67 0.46,4.72 -2.94,5.46 -6.27,2.29 -5.03,-3.28 -5.03,-8.52l0 -29.04c0.01,-4.8 -0.66,-9 -6.22,-7.89 -1.41,4.34 -1.22,4.66 -1.22,9.8 0,6.25 0.62,28.67 -0.72,31.47l-1.83 0.3c-1.47,1.42 -4.2,2.26 -5.19,-0.47 -0.48,-1.33 -0.23,-23.14 -0.23,-25.57 0,-3.56 0.68,-22.98 -0.73,-25.44 -0.67,-1.17 -2.99,-3.07 -5.19,-2.07z"/>
   <path class="fil3" d="M7.26 68.68c4.28,0.24 3.97,-2.5 5.52,-6.23 4.74,-11.4 10.13,-19 17.99,-27.86 1.99,-2.25 3.73,-3.54 5.88,-5.59 21.12,-20.1 55.89,-28.61 87.52,-19.43 47.73,13.85 76.19,64.7 61.97,114.3 -11.94,41.66 -57.76,77.99 -114.08,62.35 -45.19,-12.54 -72.81,-58.45 -64.96,-104.24 1.34,-7.81 1.47,-5.42 -1.32,-8.24 -3.81,0.31 -3.75,3.16 -4.46,7.42 -0.74,4.42 -1.16,8.82 -1.31,13.17l0 6.74c1.44,42.48 30.05,79.38 70.84,90.96 7.32,2.08 14.83,3.27 22.35,3.6l8.69 0c16.9,-0.74 33.55,-5.78 47.97,-14.83 21.29,-13.35 39.73,-37.9 44.25,-65.02 0.58,-3.47 0.95,-7.33 1.42,-10.81 0.04,-0.29 0.07,-0.59 0.1,-0.9l0 -11.08c-0.27,-4.35 -0.76,-8.57 -1.2,-11.18 -3.08,-18.19 -10.15,-32.78 -20.84,-46.02 -17.2,-21.31 -43.24,-34.14 -70.24,-35.79l-11.91 0c-9.57,0.59 -19.11,2.63 -28.28,6.22 -14.98,5.87 -25.68,13.29 -36.7,24.43 -3.39,3.42 -8.07,9.81 -10.71,13.74 -3.11,4.64 -8.96,15.88 -10.19,20.42 -0.59,2.19 0.49,3.03 1.71,3.86z"/>
   <path class="fil3" d="M129.24 137.84c-4.34,-2.44 -4.2,0.95 -10.21,4.48 -4,2.35 -8.65,2.85 -13.95,2.84 -6.11,-0.01 -27.93,1.24 -30.19,-3 -3.31,-1.33 -6.68,-6.04 -8.41,-9.96 -5.71,-12.94 -3.22,-21.12 -5.51,-30.42 -0.46,-1.88 -5.22,-9.86 1.81,-12.07 5.05,-2.69 8.04,3.84 9.36,7.03 1.94,4.71 -0.22,12.27 0.92,16.64 1.41,5.37 12.52,-3.18 26.49,7.92 4.81,3.82 4.68,9.55 8.47,8.88 2.7,-0.48 2.51,-3.21 1.37,-5.35 -5.31,-9.91 -14.98,-15.42 -28.51,-15.43l-2.24 0.06 0 -45.28c-0,-5.6 -1.14,-10.12 3.89,-11.36 2.15,-0.58 4.15,0.59 4.94,1.84 1.54,2.44 0.85,18.7 0.85,22.13 0,2.37 -0.34,20.77 0.3,22.18 1.02,2.26 3.56,1.58 5.03,0.56 1.19,-5.23 0.4,-23.25 0.4,-30 -0,-4.97 0,-9.93 0,-14.9 -0,-4.99 -1.16,-10.3 3.76,-11.46 2.2,-1 4.52,0.9 5.19,2.07 1.41,2.46 0.73,21.88 0.73,25.44 0,2.43 -0.25,24.24 0.23,25.57 0.99,2.73 3.72,1.89 5.19,0.47 0.94,-4.41 0.31,-17.31 0.31,-22.6 0,-3.82 0.01,-7.65 -0,-11.47 -0.01,-3.89 0.04,-6.2 3.47,-7.5 5.56,-1.12 6.23,3.09 6.22,7.89l-0 29.04c-0,5.24 -1.24,10.81 5.03,8.52 1.45,-3.86 0.7,-11.76 0.7,-16.55 0,-2.68 -0.15,-5.8 0.01,-8.43 0.17,-2.96 1.31,-4.26 3.88,-4.87 7.24,-1.96 5.8,8.91 5.8,12.15 0,7.55 0.46,30.17 -0.62,36.09 -1.71,9.27 -5.3,10.77 -2.1,13.85 4.09,0.93 4.62,-2.27 5.8,-5.53 3.77,-10.44 2.65,-20.96 2.65,-32.18 0,-4.65 0.55,-19.17 -0.4,-22.6 -1.69,-6.13 -7.8,-9.01 -15.02,-6.66 0,-5.55 0.25,-9.95 -2.8,-13.34 -2.83,-3.13 -6.95,-3.75 -12.1,-2.54l-0.63 0.33 -0.15 -3.97c-0.24,-5.28 -5.4,-9.72 -11.41,-9.1 -3.26,0.33 -5.07,1.81 -6.66,3.44 -2.48,2.56 -2.02,3.59 -3.01,7.26 -5.72,-2.84 -15.12,-0.04 -15.22,10.5 -0.08,8.76 0.64,19.69 -0.07,28.14 -2.18,-1.4 -3.99,-3.02 -7.87,-3.08 -5.94,-0.1 -11.23,4.47 -11.77,10.52 -0.41,4.58 1.33,5.64 2.23,9.11 2.45,9.43 -0.49,22.7 8.64,36.45 8.7,13.11 19.77,11.31 33.75,11.31 11.4,0 18.47,0.82 27.63,-5.97 3.55,-2.63 4.72,-3.9 3.8,-7.07z"/>
   <path class="fil3" d="M92.3 28.01c40.36,-3.21 72.37,27.58 75.31,64.28 3.23,40.25 -27.62,72.4 -64.25,75.31 -40.33,3.21 -72.35,-27.57 -75.34,-64.06 -3.32,-40.5 27.55,-72.62 64.27,-75.53zm81.03 75.53c3.58,-43.53 -30.17,-78.13 -69.63,-81.25 -43.53,-3.44 -78.33,29.92 -81.4,69.54 -3.38,43.67 29.92,78.4 69.58,81.49 43.9,3.42 78.17,-29.94 81.45,-69.78z"/>
   <path class="fil4" d="M80.88 109.41c0,-9.6 0,-19.19 0,-28.79 0,-4.84 0,-9.68 0,-14.52 0,-4.46 -0.81,-9.91 1.65,-13.27 -5.03,1.24 -3.89,5.75 -3.89,11.36l-0 45.28 2.24 -0.06z"/>
   <path class="fil4" d="M93.65 99.54c2.5,-1.07 2.67,-1.83 2.66,-4.77l-0.01 -37.46c0,-5.06 -0.79,-10.05 1.52,-14.14 -4.93,1.16 -3.76,6.47 -3.76,11.46 0,4.97 -0,9.93 -0,14.9 0,6.75 0.79,24.77 -0.4,30z"/>
   <path class="fil4" d="M74.89 142.16c-5.62,-6.18 -8.64,-13.35 -10.02,-24.08 -0.66,-5.12 -0.23,-10.29 -1.47,-15.26 -1.65,-6.63 -4.04,-5.53 -0.62,-13.11 -7.03,2.21 -2.27,10.19 -1.81,12.07 2.29,9.29 -0.2,17.48 5.51,30.42 1.73,3.92 5.1,8.62 8.41,9.96z"/>
   <path class="fil4" d="M109.15 96.73l1.83 -0.3c1.34,-2.81 0.72,-25.22 0.72,-31.47 -0,-5.14 -0.19,-5.45 1.22,-9.8 -3.43,1.3 -3.48,3.61 -3.47,7.5 0.01,3.82 0,7.64 0,11.47 0,5.29 0.63,18.19 -0.31,22.6z"/>
   <path class="fil4" d="M124.17 100.6c3.4,-0.74 2.96,-1.79 2.94,-5.46 -0.02,-2.8 -0,-5.61 -0,-8.41 0,-4.99 -1.02,-12.19 1.64,-15.97 -2.57,0.61 -3.7,1.91 -3.88,4.87 -0.15,2.63 -0.01,5.74 -0.01,8.43 0,4.79 0.75,12.69 -0.7,16.55z"/>
   <path class="fil5" d="M109.97 50c-0.78,-1.37 0.18,-2.48 -0.78,-3.64l0.15 3.97 0.63 -0.33z"/>
  </g>
 </g>
</svg>
