<?xml version="1.0" encoding="UTF-8"?>
<!DOCTYPE svg PUBLIC "-//W3C//DTD SVG 1.1//EN" "http://www.w3.org/Graphics/SVG/1.1/DTD/svg11.dtd">
<!-- Creator: CorelDRAW 2020 (64-Bit) -->
<svg xmlns="http://www.w3.org/2000/svg" xml:space="preserve" width="15.957mm" height="15.9572mm" version="1.1" style="shape-rendering:geometricPrecision; text-rendering:geometricPrecision; image-rendering:optimizeQuality; fill-rule:evenodd; clip-rule:evenodd"
viewBox="0 0 2.86 2.86"
 xmlns:xlink="http://www.w3.org/1999/xlink"
 xmlns:xodm="http://www.corel.com/coreldraw/odm/2003">
 <defs>
  <style type="text/css">
   <![CDATA[
    .fil1 {fill:black}
    .fil9 {fill:#6C5D30}
    .fil11 {fill:#725A12}
    .fil10 {fill:#775D13}
    .fil12 {fill:#7C6836}
    .fil13 {fill:#8F7940}
    .fil8 {fill:#BD6052}
    .fil5 {fill:#E6E9ED}
    .fil0 {fill:#EBECF1}
    .fil2 {fill:#EECEB2}
    .fil7 {fill:#FAD670}
    .fil4 {fill:#FD816D}
    .fil3 {fill:#FDE8A6}
    .fil6 {fill:#FFC729}
   ]]>
  </style>
 </defs>
 <g id="Capa_x0020_1">
  <metadata id="CorelCorpID_0Corel-Layer"/>
  <circle class="fil0" cx="1.43" cy="1.43" r="1.43"/>
  <g id="_2769705429216">
   <path class="fil1" d="M2.03 2.24l0.33 0 -0 0.06c-0.01,0 0,0 -0.01,0 -0,0 -0.01,0 -0.01,0l-0.31 -0 -0 -0.05c0,-0.02 0,-0.01 0,-0.01zm0.46 -1.42l0 0.03c-0,0.07 -0.02,0.14 -0.05,0.2 -0.02,0.05 -0.07,0.1 -0.1,0.14l-0.07 0.05c-0.2,0.13 -0.45,0.11 -0.62,-0.06 -0.01,-0.01 -0,-0.01 -0.01,-0.01l0 0.55c0.03,0 0.05,0.03 0.06,0.06l0.2 0 0 -0.32c0,-0.04 0.03,-0.07 0.07,-0.07l0.39 0c0.04,0 0.07,0.03 0.07,0.08l0 0.83c0,0.04 -0.02,0.07 -0.06,0.08l-0.35 0c-0.02,-0 -0.01,-0.01 -0.03,-0 -0.01,0 -0.02,0 -0.04,0l-0.38 0c-0.04,0 -0.06,-0.03 -0.06,-0.06l-0.47 0c-0.08,0 -0.15,-0.02 -0.2,-0.06 -0.02,-0.01 -0.03,-0.02 -0.05,-0.03 -0.01,0.01 -0.03,0.02 -0.05,0.02l-0.27 0 0 -0.46 0.06 0 0 -0.32c0,-0.04 0.03,-0.08 0.07,-0.08l0.2 0c0.03,0 0.05,0.02 0.06,0.03 0.01,0.02 0.01,0.23 0.01,0.26 0.02,-0.01 0.04,-0.04 0.06,-0.04 0,-0.09 0,-0.18 0,-0.27 0,-0.2 -0.01,-0.18 0.25,-0.18 0.07,0 0.09,0.03 0.09,0.1l0 0.29 0.06 0 0 -0.54c0,-0.04 0.02,-0.08 0.06,-0.08l0.15 0c-0,-0.03 -0.02,-0.06 -0.02,-0.14 0,-0.14 0.07,-0.26 0.14,-0.33 0.08,-0.08 0.2,-0.15 0.33,-0.15 0.09,0 0.15,0.01 0.23,0.05 0.17,0.08 0.27,0.25 0.28,0.43zm-0.85 1.49c0,-0 0,-0 0,-0 0.02,-0.02 0.04,-0.02 0.06,-0.06l0.27 0 0 0.06 -0.33 -0zm0.4 -0.2l0.33 0 -0 0.06c-0,0 0,0 -0.01,0 -0,0 -0.01,0 -0.01,0l-0.31 -0c-0,-0.02 -0.01,-0.06 0,-0.07zm-1.5 -0.26l0.19 0 0 0 -0 0.33 -0.2 0 -0 -0.33zm1.15 0.29c0.01,-0.01 0.01,-0.02 0.02,-0.03l0.27 0 0 0.06 -0.26 0c-0.01,-0 -0,0 -0.01,-0.01l-0.02 -0.03zm-0.37 -0.1c0.06,0 0.12,0 0.18,0 0.07,0 0.14,-0.01 0.14,0.03 -0,0.03 -0.03,0.03 -0.06,0.03l-0.27 -0 0 -0.07zm0.72 -0.07l0.33 0 -0 0.06c-0.01,0.01 -0.02,0 -0.04,0 -0.06,-0 -0.26,0 -0.29,-0l-0 -0.05c0,-0.02 -0,-0 0,-0.01zm-0.35 0.03c0.01,-0.01 0.01,-0.02 0.02,-0.03l0.27 0 0 0.06 -0.26 0c-0.01,-0 -0.02,-0.02 -0.02,-0.03zm-0.37 -0.1c0.06,0 0.12,0 0.18,0 0.07,0 0.14,-0.01 0.14,0.03 -0,0.03 -0.03,0.03 -0.06,0.03l-0.27 -0 0 -0.07zm0.72 -0.07l0.33 0 -0 0.06c-0,0 -0,0 -0.02,0l-0.31 -0c-0,-0.01 -0.01,-0.05 0,-0.07zm-0.35 0.03c0.01,-0.01 0.01,-0.02 0.02,-0.03l0.27 0 0 0.06 -0.27 -0c-0.01,-0.02 -0.01,-0.02 -0.02,-0.03zm-0.37 -0.03c0.02,-0.01 0.04,-0.02 0.06,-0.03 0.02,-0.01 0.03,-0.04 0.05,-0.04l0.17 0c0.04,0 0.06,0.03 0.03,0.06 -0.02,0.01 -0.07,0.01 -0.1,0.01 -0.07,0 -0.15,0 -0.22,0zm0.65 -0.13l0.38 -0 0.02 0 0 0.06 -0.02 0 -0.38 0 0 -0.07zm-1.37 -0.26l0.2 0 0 0.27c0,0.04 -0.01,0.04 -0.02,0.06 -0.06,-0.02 -0.11,-0.01 -0.17,-0.01l0 -0.33zm0.65 0.72c0.06,0.01 0.34,-0.01 0.37,0 0.02,0.01 0.02,0.05 -0,0.06 -0.01,0.01 -0.07,0 -0.09,0 -0.09,0 -0.51,0.01 -0.56,-0.01 -0.07,-0.01 -0.17,-0.08 -0.17,-0.11l-0 -0.19c-0,-0.04 -0,-0.04 0.02,-0.08 0.08,-0.14 0.2,-0.2 0.37,-0.2 0.03,0 0.17,-0 0.19,0 0.02,0.01 0.02,0.05 0.01,0.07 -0.05,0.1 -0.15,0.03 -0.21,0.07 -0.02,0.01 -0.08,0.08 -0.09,0.09 0.02,0.01 0.03,0.03 0.05,0.04 0.09,-0.08 0.05,-0.09 0.14,-0.09l0 0.33zm0.72 -0.59l0.38 -0 0.02 0 0 0.07 -0.02 0 -0.38 0 0 -0.07zm-0.59 -0.55l0.17 0c0.03,0.06 0.02,0.06 0.02,0.15 0,0.16 0.01,0.38 -0,0.53l-0.13 0c0,-0.03 0,-0.05 -0.01,-0.08 -0.01,-0.02 -0.03,-0.03 -0.05,-0.04l0 -0.56zm-0.39 0.23c0.01,-0.01 -0,-0 0.01,-0.01l0.19 0 -0 0.33 -0.07 0c-0.06,0 -0.08,0.02 -0.13,0.02l-0 -0.35zm0.98 0.19l0.38 -0 0.02 0 0 0.06 -0.02 0 -0.38 0 0 -0.07zm0.09 -0.2c-0.01,0.01 -0.01,0.01 -0.02,0 -0,-0.01 -0,-0.02 -0,-0.03 -0,-0.04 0,-0.03 0.01,-0.03 0.05,-0.01 0.07,-0.02 0.11,-0.03 0.01,0.01 0.03,0.04 0.03,0.06 -0.04,0.01 -0.09,0.04 -0.13,0.03zm-0.24 -0.04c0.01,-0.02 0.02,-0.04 0.03,-0.06 0.04,0.02 0.07,0.02 0.12,0.03l0 0.06c-0.06,0 -0.1,-0.02 -0.15,-0.04zm0.46 -0.15c0.01,-0.01 0.01,-0.01 0.02,-0.02 0.01,0.01 0.02,0.01 0.03,0.02l0.02 0.02c0,-0 0,0 0,0 -0.01,0.03 -0.08,0.09 -0.11,0.11 -0.01,-0.01 -0.03,-0.04 -0.03,-0.05l0.07 -0.06zm-0.57 -0.02c0.02,0.01 0.02,0.03 0.04,0.05 0.02,0.02 0.03,0.02 0.05,0.04 -0,0.01 -0.01,0.02 -0.02,0.03l-0.02 0.03c-0.04,-0.02 -0.08,-0.07 -0.11,-0.11l0.05 -0.03zm-0.09 -0.03c-0.02,-0.05 -0.04,-0.09 -0.04,-0.15l0.06 0c0.01,0.05 0.01,0.08 0.03,0.12 -0.01,0.01 -0.04,0.03 -0.06,0.03zm0.74 -0.15c0.01,-0.01 0.04,-0 0.06,-0 -0,0.06 -0.02,0.1 -0.04,0.15l-0.06 -0.03c0,-0.02 0.01,-0.04 0.02,-0.06 0.01,-0.02 0.01,-0.04 0.01,-0.06zm-0.4 -0.33c0.17,-0.03 0.31,0.1 0.34,0.25 0.03,0.18 -0.1,0.31 -0.25,0.34 -0.18,0.03 -0.31,-0.1 -0.33,-0.25 -0.03,-0.17 0.1,-0.31 0.25,-0.33zm-0.31 0.25c-0.01,0.01 0.01,0 -0.01,0.01l-0.05 -0c-0,-0.01 -0,-0.01 0,-0.02 -0,-0.04 0.02,-0.09 0.04,-0.13l0.06 0.03c-0.01,0.04 -0.02,0.06 -0.03,0.11zm0.74 -0.14c0.01,0.04 0.04,0.09 0.04,0.15 -0.01,0 -0.05,0 -0.05,0 -0.02,-0 -0.01,-0.02 -0.02,-0.04 -0.01,-0.03 -0.02,-0.06 -0.03,-0.08l0.06 -0.03zm-0.17 -0.11c0,-0.01 0.02,-0.05 0.03,-0.06 0.03,0.02 0.09,0.08 0.11,0.11 -0.01,0.01 -0.04,0.03 -0.06,0.03 -0.03,-0.04 -0.04,-0.05 -0.08,-0.08zm-0.56 0.05c0.01,-0.03 0.08,-0.09 0.11,-0.11 0.01,0.01 0.01,0.02 0.02,0.03 0.01,0.01 0.01,0.02 0.01,0.03 -0.04,0.04 -0.04,0.03 -0.09,0.08 -0.01,-0 -0.05,-0.02 -0.05,-0.03zm0.5 -0.09c-0.03,-0.01 -0.05,-0.02 -0.08,-0.02 -0.04,-0.01 -0.04,0.01 -0.04,-0.07 0.05,-0 0.11,0.02 0.15,0.04 -0,0.01 -0.02,0.05 -0.03,0.06zm-0.33 -0.06c0.05,-0.02 0.09,-0.04 0.15,-0.04l-0 0.06c-0.05,0.01 -0.07,0.02 -0.12,0.03l-0.03 -0.06z"/>
   <path class="fil2" d="M1.25 2.18l0 -0.33c-0.09,0 -0.05,0.01 -0.14,0.09 -0.02,-0.01 -0.03,-0.03 -0.05,-0.04 0.01,-0.01 0.08,-0.08 0.09,-0.09 0.06,-0.04 0.17,0.02 0.21,-0.07 0.01,-0.02 0.02,-0.06 -0.01,-0.07 -0.02,-0.01 -0.16,-0 -0.19,-0 -0.17,-0 -0.29,0.06 -0.37,0.2 -0.02,0.04 -0.02,0.04 -0.02,0.08l0 0.19c0,0.04 0.11,0.1 0.17,0.11 0.06,0.01 0.47,0.01 0.56,0.01 0.02,0 0.08,0 0.09,-0 0.03,-0.01 0.03,-0.05 0,-0.06 -0.03,-0.01 -0.31,0 -0.37,-0z"/>
   <path class="fil3" d="M2.11 0.84c0.06,-0.01 0.1,0.03 0.12,0.07 0.01,0.06 -0.03,0.11 -0.07,0.12 -0.13,0.03 -0.18,-0.16 -0.05,-0.19zm-0.27 -0.19c0.06,-0.02 0.11,0.02 0.12,0.07 0.02,0.06 -0.02,0.11 -0.06,0.12 -0.12,0.04 -0.18,-0.15 -0.06,-0.19zm-0.03 0.33c0.03,-0.03 0.31,-0.32 0.33,-0.32l0.04 0.04c-0.01,0.02 -0.29,0.29 -0.32,0.33l-0.05 -0.05zm0.14 -0.43c-0.15,0.02 -0.27,0.16 -0.25,0.33 0.02,0.15 0.16,0.27 0.33,0.25 0.15,-0.02 0.27,-0.16 0.25,-0.34 -0.02,-0.15 -0.16,-0.27 -0.34,-0.25z"/>
   <path class="fil4" d="M1.38 1.6c0.02,0.01 0.04,0.02 0.05,0.04 0.01,0.03 0.01,0.05 0.01,0.08l0.13 -0c0.01,-0.15 0,-0.37 0,-0.53 0,-0.09 0.01,-0.09 -0.02,-0.15l-0.17 -0 -0 0.56z"/>
   <path class="fil1" d="M1.31 0.54c0,0.01 0.01,0.01 0.02,0.01l0.12 -0 -0.32 0.28c-0.01,0.01 -0.01,0.01 -0.03,0.02 -0.02,0.01 -0.04,0.04 -0.05,0.04 -0,-0.01 -0.08,-0.11 -0.09,-0.13l-0.36 0.26c-0.03,0.02 -0.1,0.07 -0.12,0.09 0.01,0.01 0.03,0.04 0.04,0.06 0.01,-0 0.02,-0.01 0.03,-0.02l0.41 -0.29c0.01,0.01 0.04,0.05 0.05,0.06 0.02,0.02 0.03,0.04 0.05,0.07l0.55 -0.47c0.01,-0.01 0.03,-0.02 0.04,-0.03l-0.32 0 0 0.06z"/>
   <polygon class="fil5" points="0.53,2.18 0.73,2.18 0.73,1.85 0.72,1.85 0.53,1.85 "/>
   <path class="fil4" d="M1.12 1.59l0.06 -0 0 -0.32c-0.04,0 -0.17,-0.01 -0.19,0l0 0.35c0.05,-0.01 0.07,-0.02 0.13,-0.02z"/>
   <path class="fil4" d="M0.6 1.79c0.06,0 0.12,-0.01 0.17,0.01 0.01,-0.03 0.02,-0.02 0.02,-0.06l-0 -0.27 -0.2 -0 0 0.33z"/>
   <path class="fil1" d="M1.81 0.98l0.05 0.05c0.04,-0.03 0.32,-0.31 0.32,-0.33l-0.04 -0.04c-0.02,0.01 -0.29,0.29 -0.33,0.32z"/>
   <path class="fil1" d="M2.12 0.91c0.04,-0.01 0.05,0.05 0.02,0.06 -0.04,0.01 -0.06,-0.05 -0.02,-0.06zm-0.01 -0.06c-0.13,0.03 -0.08,0.22 0.05,0.19 0.04,-0.01 0.08,-0.06 0.07,-0.12 -0.01,-0.04 -0.06,-0.09 -0.12,-0.07z"/>
   <path class="fil1" d="M1.86 0.71c0.04,-0.02 0.06,0.05 0.03,0.06 -0.04,0.02 -0.06,-0.04 -0.03,-0.06zm-0.02 -0.06c-0.12,0.04 -0.07,0.23 0.06,0.19 0.04,-0.01 0.08,-0.06 0.06,-0.12 -0.01,-0.04 -0.06,-0.09 -0.12,-0.07z"/>
   <polygon class="fil6" points="1.97,1.66 2.34,1.66 2.36,1.66 2.36,1.59 2.34,1.59 1.97,1.59 "/>
   <polygon class="fil7" points="1.97,1.79 2.34,1.79 2.36,1.79 2.36,1.72 2.34,1.72 1.97,1.72 "/>
   <polygon class="fil7" points="1.97,1.53 2.34,1.53 2.36,1.53 2.36,1.46 2.34,1.46 1.97,1.46 "/>
   <path class="fil2" d="M1.31 1.98l0.27 0c0.03,0 0.06,0 0.06,-0.03 0,-0.05 -0.07,-0.03 -0.14,-0.03 -0.06,0 -0.12,0 -0.18,0l-0 0.07z"/>
   <path class="fil2" d="M1.31 2.11l0.27 0c0.03,0 0.06,0 0.06,-0.03 0,-0.05 -0.07,-0.03 -0.14,-0.03 -0.06,0 -0.12,0 -0.18,0l-0 0.07z"/>
   <polygon class="fil6" points="2.36,1.92 2.36,1.85 2.03,1.85 2.03,1.92 "/>
   <polygon class="fil7" points="2.36,2.05 2.36,1.98 2.03,1.98 2.03,2.05 "/>
   <polygon class="fil6" points="2.36,2.18 2.36,2.11 2.03,2.11 2.03,2.18 "/>
   <polygon class="fil7" points="2.36,2.31 2.36,2.24 2.03,2.24 2.03,2.31 "/>
   <path class="fil6" d="M1.64 2.31l0.33 0 0 -0.06 -0.27 -0c-0.02,0.04 -0.03,0.04 -0.06,0.06 -0,0 -0,0 -0,0z"/>
   <path class="fil7" d="M1.68 2.15l0.02 0.03c0.01,0.01 -0,0 0.01,0.01l0.26 -0 0 -0.06 -0.27 -0c-0.01,0.02 -0.01,0.02 -0.02,0.03z"/>
   <path class="fil7" d="M1.68 1.88c0.01,0.01 0.01,0.02 0.02,0.03l0.27 0 0 -0.06 -0.27 -0c-0,0.01 -0.01,0.02 -0.02,0.03z"/>
   <path class="fil6" d="M1.68 2.01c0,0.01 0.01,0.03 0.02,0.03l0.26 -0 0 -0.06 -0.27 -0c-0,0.01 -0.01,0.02 -0.02,0.03z"/>
   <path class="fil2" d="M1.31 1.85c0.07,0 0.15,0 0.22,0 0.03,0 0.08,0.01 0.1,-0.01 0.03,-0.02 0.01,-0.06 -0.03,-0.06l-0.17 0c-0.03,0 -0.03,0.02 -0.05,0.04 -0.02,0.01 -0.05,0.02 -0.06,0.03z"/>
   <path class="fil7" d="M2.21 0.55c0.04,0.03 0.05,0.04 0.08,0.08 0.01,-0 0.05,-0.02 0.06,-0.03 -0.02,-0.03 -0.08,-0.09 -0.11,-0.11 -0.01,0.01 -0.03,0.04 -0.03,0.06z"/>
   <path class="fil7" d="M2.21 1.13c0,0.01 0.02,0.05 0.03,0.05 0.03,-0.01 0.09,-0.08 0.11,-0.11 -0,-0 -0,-0 -0,-0l-0.02 -0.02c-0.01,-0.01 -0.02,-0.01 -0.03,-0.02 -0.01,0.01 -0.01,0.01 -0.02,0.02l-0.07 0.06z"/>
   <path class="fil7" d="M2.15 0.51c0.01,-0.01 0.03,-0.04 0.03,-0.06 -0.04,-0.01 -0.09,-0.04 -0.15,-0.04 0,0.08 -0.01,0.06 0.04,0.07 0.03,0.01 0.06,0.02 0.08,0.02z"/>
   <path class="fil7" d="M1.65 0.6c0.01,0.01 0.04,0.03 0.05,0.03 0.05,-0.05 0.04,-0.05 0.09,-0.08 -0,-0.01 -0.01,-0.02 -0.01,-0.03 -0.01,-0.01 -0.01,-0.02 -0.02,-0.03 -0.03,0.02 -0.09,0.08 -0.11,0.11z"/>
   <path class="fil7" d="M2.33 0.69c0.01,0.03 0.02,0.05 0.03,0.08 0,0.02 -0,0.03 0.02,0.04 0.01,0 0.04,-0 0.05,-0 0,-0.05 -0.02,-0.11 -0.04,-0.15l-0.06 0.03z"/>
   <path class="fil7" d="M2.36 0.88c-0,0.02 -0.01,0.04 -0.01,0.06 -0.01,0.02 -0.02,0.04 -0.02,0.06l0.06 0.03c0.02,-0.05 0.04,-0.09 0.04,-0.15 -0.02,-0 -0.05,-0 -0.06,0z"/>
   <path class="fil7" d="M1.82 0.46l0.03 0.06c0.04,-0.01 0.06,-0.02 0.12,-0.03l0 -0.06c-0.06,0 -0.1,0.02 -0.15,0.04z"/>
   <path class="fil7" d="M1.62 1.02c0.01,-0.01 0.05,-0.02 0.06,-0.03 -0.02,-0.04 -0.02,-0.07 -0.03,-0.12l-0.06 -0c-0,0.06 0.02,0.1 0.04,0.15z"/>
   <path class="fil7" d="M1.82 1.22c0.05,0.02 0.09,0.04 0.15,0.04l-0 -0.06c-0.05,-0.01 -0.08,-0.01 -0.12,-0.03 -0.01,0.01 -0.03,0.04 -0.03,0.06z"/>
   <path class="fil7" d="M2.04 1.2c-0.01,0.02 -0,0.04 -0,0.06l0.02 -0c0.04,0 0.09,-0.02 0.13,-0.03 -0,-0.02 -0.02,-0.05 -0.03,-0.06 -0.04,0.01 -0.06,0.02 -0.11,0.03z"/>
   <path class="fil7" d="M1.65 1.08c0.02,0.04 0.07,0.08 0.11,0.11l0.02 -0.03c0,-0.01 0.01,-0.02 0.02,-0.03 -0.01,-0.02 -0.03,-0.02 -0.05,-0.04 -0.02,-0.02 -0.03,-0.03 -0.04,-0.05l-0.05 0.03z"/>
   <path class="fil7" d="M1.58 0.79l-0 0.02c0.02,-0 0.04,0 0.06,-0 0.01,-0.05 0.02,-0.07 0.03,-0.11l-0.06 -0.03c-0.01,0.04 -0.04,0.09 -0.04,0.13z"/>
   <path class="fil4" d="M1.86 0.71c-0.04,0.02 -0.02,0.07 0.03,0.06 0.04,-0.01 0.02,-0.08 -0.03,-0.06z"/>
   <path class="fil4" d="M2.12 0.91c-0.05,0.01 -0.02,0.07 0.02,0.06 0.04,-0.01 0.02,-0.07 -0.02,-0.06z"/>
   <path class="fil8" d="M1.12 1.59l0.07 -0 0 -0.33 -0.19 -0c-0.01,0 -0.01,-0 -0.01,0.01 0.03,-0.01 0.15,-0 0.19,-0l0 0.32 -0.06 0z"/>
   <path class="fil9" d="M2.36 2.05l-0.33 0 0 -0.06c-0,0.01 -0,-0.01 -0,0.01l0 0.05c0.03,0 0.23,0 0.29,0 0.01,0 0.03,0 0.04,-0z"/>
   <path class="fil10" d="M2.36 2.18l-0.33 0 0 -0.06c-0.01,0.01 -0.01,0.05 -0,0.07l0.31 0c0,-0 0.01,-0 0.01,-0 0.01,-0 0,0 0.01,-0z"/>
   <path class="fil11" d="M2.36 1.92l-0.32 0 0 -0.06c-0.01,0.01 -0.01,0.05 -0,0.07l0.31 0c0.02,-0 0.01,-0 0.02,-0z"/>
   <path class="fil12" d="M2.36 2.31l-0.32 0 0 -0.06c-0,0 -0,-0 -0,0.01l0 0.05 0.31 0c0,-0 0.01,-0 0.01,-0 0.01,-0 0,0 0.01,-0z"/>
   <path class="fil13" d="M2.05 1.26l-0.02 0c0,-0.02 -0,-0.04 0,-0.06 -0.01,0 -0.01,-0.01 -0.01,0.03 0,0.01 -0,0.02 0,0.03 0.01,0 0.01,0 0.02,-0z"/>
   <path class="fil13" d="M1.64 0.8c-0.02,0.01 -0.04,0 -0.06,0l0 -0.02c-0.01,0.01 -0,0.01 -0,0.02l0.05 0c0.02,-0 0.01,0 0.01,-0.01z"/>
  </g>
 </g>
</svg>
