<?xml version="1.0" encoding="UTF-8"?>
<!DOCTYPE svg PUBLIC "-//W3C//DTD SVG 1.1//EN" "http://www.w3.org/Graphics/SVG/1.1/DTD/svg11.dtd">
<!-- Creator: CorelDRAW 2020 (64-Bit) -->
<svg xmlns="http://www.w3.org/2000/svg" xml:space="preserve" width="9.4071mm" height="9.4071mm" version="1.1" style="shape-rendering:geometricPrecision; text-rendering:geometricPrecision; image-rendering:optimizeQuality; fill-rule:evenodd; clip-rule:evenodd"
viewBox="0 0 13.86 13.86"
 xmlns:xlink="http://www.w3.org/1999/xlink"
 xmlns:xodm="http://www.corel.com/coreldraw/odm/2003">
 <defs>
  <style type="text/css">
   <![CDATA[
    .fil0 {fill:black}
    .fil8 {fill:#6C5D30}
    .fil10 {fill:#725A12}
    .fil9 {fill:#775D13}
    .fil11 {fill:#7C6836}
    .fil12 {fill:#8F7940}
    .fil7 {fill:#BD6052}
    .fil4 {fill:#E6E9ED}
    .fil1 {fill:#EECEB2}
    .fil6 {fill:#FAD670}
    .fil3 {fill:#FD816D}
    .fil2 {fill:#FDE8A6}
    .fil5 {fill:#FFC729}
   ]]>
  </style>
 </defs>
 <g id="Capa_x0020_1">
  <metadata id="CorelCorpID_0Corel-Layer"/>
  <path class="fil0" d="M10.74 12.96l2.23 0 -0 0.43c-0.04,0.03 0.01,0.01 -0.05,0.03 -0.01,0 -0.06,0 -0.08,0l-2.1 -0.01 -0.02 -0.37c0.01,-0.12 0.01,-0.06 0.03,-0.08zm3.12 -9.73l0 0.22c-0.01,0.46 -0.12,0.93 -0.33,1.39 -0.15,0.32 -0.45,0.69 -0.69,0.94l-0.45 0.36c-1.35,0.9 -3.08,0.74 -4.22,-0.38 -0.05,-0.05 -0.03,-0.05 -0.1,-0.09l0 3.79c0.17,0.01 0.34,0.22 0.38,0.38l1.38 0 0 -2.22c0,-0.26 0.2,-0.46 0.46,-0.46l2.68 0c0.28,0 0.46,0.22 0.46,0.51l0 5.68c0,0.28 -0.15,0.49 -0.41,0.51l-2.38 0c-0.16,-0.01 -0.1,-0.05 -0.2,-0.02 -0.04,0.01 -0.13,0.02 -0.25,0.02l-2.59 0c-0.24,0 -0.43,-0.2 -0.43,-0.43l-3.25 0c-0.52,0 -1.01,-0.13 -1.4,-0.38 -0.12,-0.08 -0.22,-0.16 -0.33,-0.24 -0.08,0.06 -0.19,0.16 -0.32,0.16l-1.84 0 0 -3.14 0.43 0 0 -2.17c0,-0.29 0.18,-0.51 0.46,-0.51l1.35 0c0.17,0 0.32,0.11 0.39,0.23 0.09,0.16 0.04,1.56 0.04,1.8 0.11,-0.07 0.31,-0.24 0.43,-0.27 0,-0.62 0,-1.25 0,-1.87 0,-1.38 -0.1,-1.24 1.68,-1.24 0.46,0 0.6,0.22 0.6,0.68l0 2 0.41 0 0 -3.68c0,-0.29 0.17,-0.54 0.41,-0.54l1.06 0c-0,-0.2 -0.11,-0.38 -0.11,-0.97 0,-0.95 0.49,-1.8 0.97,-2.28 0.56,-0.56 1.4,-0.99 2.23,-0.99 0.64,0 1.04,0.04 1.61,0.32 1.18,0.56 1.87,1.69 1.91,2.92zm-5.84 10.18c0.01,-0.01 0.01,-0.01 0.02,-0.02 0.17,-0.13 0.3,-0.14 0.41,-0.43l1.84 0 0 0.44 -2.26 -0zm2.72 -1.34l2.23 0.01 0 0.43c-0.03,0.03 0.01,0.01 -0.06,0.03 -0.01,0 -0.06,0 -0.08,0l-2.1 -0.01c-0.03,-0.11 -0.04,-0.38 0.01,-0.46zm-10.31 -1.78l1.33 0 0.03 0 -0 2.24 -1.34 0 -0.01 -2.24zm7.9 2.01c0.05,-0.08 0.08,-0.11 0.12,-0.22l1.84 0 0 0.44 -1.78 0c-0.07,-0.03 -0.02,0 -0.07,-0.06l-0.1 -0.17zm-2.51 -0.67c0.41,0 0.83,0 1.24,0 0.49,0 0.99,-0.09 0.98,0.23 -0.01,0.22 -0.21,0.22 -0.41,0.22l-1.82 -0 0.02 -0.45zm4.91 -0.45l2.23 0.01 -0 0.43c-0.06,0.05 -0.17,0.03 -0.27,0.03 -0.42,-0 -1.75,0.02 -1.96,-0.01l-0.02 -0.37c0.02,-0.16 -0,-0.03 0.03,-0.09zm-2.41 0.22c0.04,-0.07 0.08,-0.12 0.12,-0.22l1.84 0 0 0.44 -1.78 0c-0.07,-0.02 -0.14,-0.17 -0.17,-0.23zm-2.51 -0.67c0.41,0 0.83,0 1.24,0 0.49,0 0.99,-0.09 0.98,0.23 -0.01,0.22 -0.21,0.22 -0.41,0.22l-1.82 -0 0.02 -0.45zm4.91 -0.45l2.23 0.01 -0 0.43c-0.03,0.03 -0.01,0.03 -0.13,0.03l-2.1 -0.01c-0.03,-0.09 -0.04,-0.37 0.01,-0.46zm-2.41 0.23c0.04,-0.07 0.08,-0.12 0.11,-0.22l1.84 0 0 0.44 -1.84 -0c-0.04,-0.12 -0.05,-0.13 -0.11,-0.22zm-2.51 -0.22c0.11,-0.08 0.3,-0.12 0.42,-0.21 0.12,-0.08 0.18,-0.24 0.35,-0.24l1.16 0c0.28,0 0.41,0.22 0.23,0.39 -0.11,0.1 -0.48,0.06 -0.66,0.06 -0.5,0 -0.99,0 -1.49,0zm4.47 -0.89l2.57 -0 0.11 0 0 0.44 -0.11 0 -2.58 0 0 -0.45zm-9.39 -1.79l1.34 0.01 0 1.86c0,0.27 -0.09,0.25 -0.17,0.44 -0.39,-0.13 -0.74,-0.08 -1.18,-0.08l0 -2.23zm4.47 4.91c0.43,0.05 2.36,-0.05 2.56,0.03 0.16,0.07 0.17,0.33 -0.01,0.4 -0.1,0.04 -0.49,0.02 -0.63,0.02 -0.63,0 -3.46,0.04 -3.86,-0.04 -0.45,-0.09 -1.16,-0.52 -1.19,-0.77l-0 -1.3c-0,-0.3 -0.02,-0.3 0.11,-0.55 0.52,-0.97 1.34,-1.37 2.52,-1.37 0.2,0 1.16,-0.02 1.27,0.02 0.16,0.07 0.13,0.31 0.06,0.48 -0.31,0.66 -1.03,0.23 -1.45,0.5 -0.12,0.08 -0.57,0.54 -0.65,0.64 0.1,0.1 0.19,0.23 0.32,0.3 0.63,-0.53 0.35,-0.6 0.94,-0.6l0 2.23zm4.92 -4.02l2.57 -0 0.11 0 0 0.45 -0.11 0 -2.57 0 0 -0.45zm-4.02 -3.8l1.16 0c0.24,0.43 0.17,0.44 0.17,1.04 0,1.12 0.04,2.62 -0,3.65l-0.91 0c0.02,-0.23 0.03,-0.37 -0.07,-0.55 -0.09,-0.16 -0.21,-0.22 -0.36,-0.31l0.01 -3.84zm-2.69 1.6c0.04,-0.05 -0,-0.03 0.08,-0.05l1.27 0.01 -0 2.24 -0.46 0.01c-0.38,0 -0.57,0.11 -0.88,0.16l-0 -2.37zm6.71 1.3l2.57 -0 0.11 0 0 0.44 -0.11 0 -2.58 0 0 -0.45zm0.59 -1.38c-0.06,0.05 -0.06,0.04 -0.15,0.03 -0.01,-0.08 -0.01,-0.16 -0.01,-0.24 -0,-0.27 0,-0.19 0.05,-0.21 0.34,-0.05 0.48,-0.12 0.77,-0.2 0.07,0.08 0.19,0.28 0.22,0.39 -0.24,0.09 -0.59,0.25 -0.88,0.24zm-1.61 -0.24c0.04,-0.11 0.16,-0.31 0.22,-0.39 0.26,0.12 0.48,0.17 0.8,0.21l0 0.44c-0.39,0 -0.71,-0.15 -1.02,-0.26zm3.13 -1.05c0.04,-0.06 0.07,-0.09 0.12,-0.15 0.06,0.04 0.12,0.07 0.2,0.11l0.16 0.11c0,-0 0.01,0.01 0.01,0.01 -0.1,0.19 -0.55,0.64 -0.73,0.73 -0.06,-0.06 -0.18,-0.28 -0.22,-0.37l0.46 -0.43zm-3.9 -0.15c0.11,0.09 0.16,0.19 0.28,0.31 0.12,0.12 0.21,0.17 0.31,0.28 -0.03,0.06 -0.08,0.14 -0.11,0.2l-0.12 0.17c-0.26,-0.17 -0.56,-0.47 -0.73,-0.73l0.37 -0.23zm-0.61 -0.18c-0.12,-0.31 -0.26,-0.64 -0.26,-1.02l0.44 0.01c0.04,0.31 0.1,0.54 0.21,0.79 -0.08,0.06 -0.29,0.19 -0.39,0.22zm5.08 -1c0.1,-0.04 0.3,-0.02 0.44,-0.02 -0.01,0.41 -0.14,0.69 -0.27,1.03l-0.39 -0.21c0.03,-0.14 0.1,-0.25 0.14,-0.4 0.03,-0.13 0.05,-0.28 0.08,-0.4zm-2.76 -2.23c1.19,-0.19 2.15,0.68 2.3,1.68 0.18,1.21 -0.68,2.14 -1.69,2.3 -1.2,0.19 -2.13,-0.69 -2.29,-1.68 -0.19,-1.2 0.68,-2.13 1.68,-2.29zm-2.14 1.73c-0.04,0.05 0.05,0.03 -0.1,0.05l-0.35 -0.01c-0.01,-0.1 -0.02,-0.06 0.02,-0.14 -0,-0.31 0.15,-0.64 0.25,-0.9l0.38 0.23c-0.08,0.29 -0.15,0.43 -0.2,0.77zm5.07 -0.99c0.09,0.3 0.29,0.65 0.25,1.02 -0.07,0 -0.31,0.01 -0.37,0 -0.11,-0.02 -0.08,-0.1 -0.1,-0.24 -0.04,-0.22 -0.13,-0.38 -0.18,-0.57l0.39 -0.21zm-1.2 -0.75c0.02,-0.1 0.15,-0.33 0.22,-0.38 0.22,0.11 0.63,0.52 0.73,0.73 -0.05,0.06 -0.29,0.2 -0.38,0.21 -0.23,-0.27 -0.3,-0.33 -0.57,-0.57zm-3.81 0.35c0.09,-0.19 0.54,-0.63 0.73,-0.73 0.07,0.06 0.09,0.12 0.13,0.19 0.04,0.07 0.07,0.11 0.1,0.18 -0.29,0.26 -0.27,0.21 -0.58,0.58 -0.09,-0.03 -0.32,-0.16 -0.38,-0.22zm3.41 -0.59c-0.18,-0.04 -0.34,-0.13 -0.56,-0.17 -0.29,-0.05 -0.24,0.06 -0.24,-0.47 0.38,-0.03 0.72,0.16 1.02,0.25 -0.03,0.1 -0.16,0.32 -0.22,0.39zm-2.27 -0.38c0.35,-0.12 0.58,-0.25 1.03,-0.27l-0.01 0.44c-0.37,0.05 -0.51,0.14 -0.8,0.21l-0.21 -0.38z"/>
  <path class="fil1" d="M5.36 12.51l0 -2.23c-0.59,0 -0.32,0.06 -0.94,0.6 -0.13,-0.07 -0.22,-0.2 -0.32,-0.3 0.07,-0.1 0.53,-0.56 0.65,-0.64 0.42,-0.27 1.14,0.16 1.45,-0.5 0.08,-0.17 0.11,-0.41 -0.06,-0.48 -0.11,-0.05 -1.06,-0.02 -1.27,-0.02 -1.19,-0 -2.01,0.4 -2.52,1.37 -0.13,0.24 -0.11,0.24 -0.11,0.55l0 1.3c0.03,0.25 0.74,0.68 1.19,0.77 0.4,0.08 3.23,0.04 3.86,0.04 0.13,0 0.53,0.02 0.63,-0.02 0.18,-0.07 0.18,-0.33 0.01,-0.4 -0.2,-0.08 -2.12,0.02 -2.56,-0.03z"/>
  <path class="fil2" d="M11.26 3.37c0.4,-0.09 0.72,0.19 0.79,0.5 0.1,0.4 -0.18,0.72 -0.48,0.8 -0.86,0.23 -1.21,-1.09 -0.32,-1.3zm-1.84 -1.33c0.42,-0.13 0.76,0.15 0.84,0.45 0.11,0.4 -0.14,0.73 -0.44,0.83 -0.86,0.27 -1.24,-1.01 -0.4,-1.28zm-0.18 2.26c0.23,-0.24 2.14,-2.17 2.24,-2.22l0.29 0.29c-0.05,0.11 -1.98,2.02 -2.22,2.25l-0.31 -0.32zm0.96 -2.94c-1,0.16 -1.87,1.1 -1.68,2.29 0.16,0.99 1.09,1.87 2.29,1.68 1.01,-0.16 1.87,-1.09 1.69,-2.3 -0.15,-1 -1.11,-1.87 -2.3,-1.68z"/>
  <path class="fil3" d="M6.26 8.53c0.15,0.09 0.28,0.15 0.36,0.31 0.1,0.18 0.08,0.32 0.07,0.55l0.91 -0c0.04,-1.03 0,-2.53 0,-3.65 0,-0.6 0.07,-0.61 -0.17,-1.04l-1.16 -0 -0.01 3.84z"/>
  <path class="fil0" d="M5.79 1.27c0,0.09 0.07,0.08 0.16,0.08l0.79 -0 -2.17 1.89c-0.07,0.06 -0.09,0.09 -0.17,0.15 -0.1,0.08 -0.27,0.26 -0.36,0.29 -0.02,-0.09 -0.55,-0.76 -0.62,-0.87l-2.48 1.76c-0.2,0.14 -0.69,0.51 -0.84,0.59 0.07,0.1 0.22,0.3 0.24,0.38 0.09,-0.02 0.13,-0.06 0.19,-0.11l2.79 -1.98c0.07,0.05 0.27,0.35 0.34,0.44 0.12,0.16 0.23,0.3 0.33,0.45l3.74 -3.24c0.1,-0.08 0.17,-0.15 0.26,-0.22l-2.19 0 0 0.38z"/>
  <polygon class="fil4" points="0.45,12.52 1.79,12.52 1.79,10.28 1.76,10.28 0.43,10.28 "/>
  <path class="fil3" d="M4.46 8.5l0.43 -0.02 0 -2.21c-0.26,0 -1.13,-0.04 -1.32,0.02l0 2.37c0.31,-0.06 0.51,-0.16 0.88,-0.16z"/>
  <path class="fil3" d="M0.89 9.83c0.44,0.01 0.79,-0.05 1.18,0.08 0.08,-0.19 0.17,-0.17 0.17,-0.44l-0 -1.86 -1.34 -0.01 0 2.23z"/>
  <path class="fil0" d="M9.24 4.3l0.31 0.32c0.25,-0.24 2.18,-2.14 2.22,-2.25l-0.29 -0.29c-0.11,0.05 -2.02,1.98 -2.24,2.22z"/>
  <path class="fil0" d="M11.35 3.81c0.27,-0.08 0.36,0.35 0.11,0.42 -0.27,0.08 -0.43,-0.33 -0.11,-0.42zm-0.1 -0.44c-0.9,0.21 -0.54,1.53 0.32,1.3 0.3,-0.08 0.58,-0.4 0.48,-0.8 -0.08,-0.31 -0.4,-0.59 -0.79,-0.5z"/>
  <path class="fil0" d="M9.53 2.48c0.29,-0.13 0.42,0.31 0.18,0.4 -0.29,0.11 -0.44,-0.28 -0.18,-0.4zm-0.11 -0.44c-0.84,0.27 -0.45,1.55 0.4,1.28 0.3,-0.1 0.55,-0.43 0.44,-0.83 -0.08,-0.3 -0.42,-0.58 -0.84,-0.45z"/>
  <polygon class="fil5" points="10.28,8.94 12.86,8.94 12.96,8.94 12.96,8.49 12.86,8.49 10.28,8.49 "/>
  <polygon class="fil6" points="10.28,9.83 12.86,9.83 12.96,9.83 12.96,9.39 12.86,9.39 10.29,9.39 "/>
  <polygon class="fil6" points="10.28,8.05 12.86,8.05 12.96,8.05 12.96,7.6 12.86,7.6 10.29,7.6 "/>
  <path class="fil1" d="M5.81 11.18l1.82 0c0.2,0 0.4,0 0.41,-0.22 0.01,-0.33 -0.48,-0.23 -0.98,-0.23 -0.41,0 -0.83,0 -1.24,0l-0.02 0.45z"/>
  <path class="fil1" d="M5.81 12.07l1.82 0c0.2,0 0.4,0 0.41,-0.22 0.01,-0.33 -0.49,-0.23 -0.98,-0.23 -0.41,0 -0.83,0 -1.24,0l-0.02 0.45z"/>
  <polygon class="fil5" points="12.96,10.71 12.96,10.28 10.74,10.28 10.74,10.72 "/>
  <polygon class="fil6" points="12.96,11.61 12.96,11.18 10.74,11.17 10.74,11.61 "/>
  <polygon class="fil5" points="12.96,12.5 12.96,12.07 10.74,12.07 10.74,12.51 "/>
  <polygon class="fil6" points="12.96,13.39 12.96,12.97 10.74,12.96 10.74,13.4 "/>
  <path class="fil5" d="M8.02 13.41l2.26 0 0 -0.44 -1.84 -0c-0.11,0.29 -0.24,0.3 -0.41,0.43 -0.01,0 -0.01,0.01 -0.02,0.02z"/>
  <path class="fil6" d="M8.33 12.29l0.1 0.17c0.05,0.06 -0,0.02 0.07,0.06l1.78 -0 0 -0.44 -1.84 -0c-0.04,0.1 -0.07,0.14 -0.12,0.22z"/>
  <path class="fil6" d="M8.33 10.5c0.06,0.1 0.08,0.1 0.11,0.22l1.84 0 0 -0.44 -1.84 -0c-0.03,0.1 -0.07,0.15 -0.11,0.22z"/>
  <path class="fil5" d="M8.33 11.4c0.03,0.06 0.1,0.21 0.17,0.23l1.78 -0 0 -0.44 -1.84 -0c-0.03,0.09 -0.07,0.15 -0.12,0.22z"/>
  <path class="fil1" d="M5.82 10.28c0.5,0 0.99,0 1.49,0 0.18,0 0.55,0.03 0.66,-0.06 0.18,-0.16 0.05,-0.39 -0.23,-0.39l-1.16 0c-0.17,0 -0.23,0.16 -0.35,0.24 -0.12,0.08 -0.31,0.12 -0.42,0.21z"/>
  <path class="fil6" d="M11.94 1.35c0.27,0.23 0.33,0.3 0.57,0.57 0.09,-0.02 0.33,-0.16 0.38,-0.21 -0.11,-0.22 -0.52,-0.63 -0.73,-0.73 -0.06,0.06 -0.2,0.29 -0.22,0.38z"/>
  <path class="fil6" d="M11.94 5.36c0.03,0.09 0.15,0.32 0.22,0.37 0.19,-0.08 0.63,-0.54 0.73,-0.73 -0,-0.01 -0.01,-0.02 -0.01,-0.01l-0.16 -0.11c-0.07,-0.04 -0.13,-0.07 -0.2,-0.11 -0.05,0.06 -0.07,0.1 -0.12,0.15l-0.46 0.43z"/>
  <path class="fil6" d="M11.53 1.11c0.06,-0.07 0.19,-0.29 0.22,-0.39 -0.3,-0.09 -0.65,-0.28 -1.02,-0.25 0,0.53 -0.05,0.42 0.24,0.47 0.22,0.04 0.38,0.13 0.56,0.17z"/>
  <path class="fil6" d="M8.12 1.71c0.06,0.06 0.29,0.19 0.38,0.22 0.31,-0.37 0.29,-0.32 0.58,-0.58 -0.03,-0.07 -0.06,-0.11 -0.1,-0.18 -0.04,-0.07 -0.06,-0.14 -0.13,-0.19 -0.19,0.1 -0.64,0.54 -0.73,0.73z"/>
  <path class="fil6" d="M12.74 2.32c0.05,0.19 0.14,0.35 0.18,0.57 0.02,0.14 -0.01,0.22 0.1,0.24 0.05,0.01 0.29,-0 0.37,-0 0.03,-0.38 -0.16,-0.72 -0.25,-1.02l-0.39 0.21z"/>
  <path class="fil6" d="M12.96 3.6c-0.03,0.12 -0.05,0.27 -0.08,0.4 -0.04,0.15 -0.1,0.26 -0.14,0.4l0.39 0.21c0.12,-0.33 0.25,-0.61 0.27,-1.03 -0.14,-0 -0.34,-0.02 -0.44,0.02z"/>
  <path class="fil6" d="M9.26 0.73l0.21 0.38c0.29,-0.07 0.43,-0.16 0.8,-0.21l0.01 -0.44c-0.44,0.01 -0.68,0.15 -1.03,0.27z"/>
  <path class="fil6" d="M7.88 4.6c0.1,-0.04 0.31,-0.16 0.39,-0.22 -0.11,-0.25 -0.17,-0.48 -0.21,-0.79l-0.44 -0.01c-0,0.38 0.14,0.71 0.26,1.02z"/>
  <path class="fil6" d="M9.26 5.98c0.31,0.11 0.63,0.26 1.02,0.26l-0 -0.44c-0.32,-0.05 -0.54,-0.1 -0.8,-0.21 -0.06,0.09 -0.18,0.29 -0.22,0.39z"/>
  <path class="fil6" d="M10.76 5.8c-0.04,0.14 -0.02,0.29 -0.02,0.44l0.13 -0.02c0.29,0.01 0.63,-0.15 0.88,-0.24 -0.03,-0.11 -0.15,-0.31 -0.22,-0.39 -0.29,0.08 -0.43,0.16 -0.77,0.2z"/>
  <path class="fil6" d="M8.12 5.01c0.17,0.26 0.47,0.56 0.73,0.73l0.12 -0.17c0.03,-0.06 0.08,-0.14 0.11,-0.2 -0.1,-0.11 -0.19,-0.15 -0.31,-0.28 -0.12,-0.12 -0.17,-0.22 -0.28,-0.31l-0.37 0.23z"/>
  <path class="fil6" d="M7.63 3l-0.01 0.12c0.14,-0 0.3,0.02 0.44,-0.02 0.05,-0.34 0.12,-0.48 0.2,-0.77l-0.38 -0.23c-0.09,0.26 -0.25,0.59 -0.25,0.9z"/>
  <path class="fil3" d="M9.53 2.48c-0.27,0.12 -0.12,0.51 0.18,0.4 0.24,-0.09 0.11,-0.54 -0.18,-0.4z"/>
  <path class="fil3" d="M11.35 3.81c-0.32,0.09 -0.16,0.5 0.11,0.42 0.25,-0.07 0.17,-0.5 -0.11,-0.42z"/>
  <path class="fil7" d="M4.46 8.5l0.46 -0.01 0 -2.24 -1.27 -0.01c-0.08,0.02 -0.04,-0.01 -0.08,0.05 0.19,-0.06 1.06,-0.02 1.32,-0.02l0 2.21 -0.43 0.02z"/>
  <path class="fil8" d="M12.96 11.61l-2.23 0 0 -0.44c-0.03,0.05 -0.01,-0.08 -0.03,0.09l0.02 0.37c0.22,0.03 1.54,0.01 1.96,0.01 0.1,0 0.21,0.02 0.27,-0.03z"/>
  <path class="fil9" d="M12.96 12.5l-2.23 0 0 -0.44c-0.05,0.08 -0.04,0.35 -0.01,0.46l2.1 0.01c0.02,-0 0.06,-0 0.08,-0 0.06,-0.01 0.02,0 0.06,-0.03z"/>
  <path class="fil10" d="M12.96 10.71l-2.23 0 0 -0.44c-0.05,0.08 -0.04,0.37 -0.01,0.46l2.1 0.01c0.12,-0 0.1,-0 0.13,-0.03z"/>
  <path class="fil11" d="M12.96 13.39l-2.23 0 0 -0.44c-0.02,0.03 -0.02,-0.03 -0.03,0.08l0.02 0.37 2.1 0.01c0.02,-0 0.06,-0 0.08,-0 0.06,-0.01 0.02,0 0.05,-0.03z"/>
  <path class="fil12" d="M10.87 6.22l-0.13 0.02c0,-0.14 -0.02,-0.3 0.02,-0.44 -0.04,0.02 -0.05,-0.06 -0.05,0.21 0,0.08 -0,0.16 0.01,0.24 0.09,0.01 0.09,0.02 0.15,-0.03z"/>
  <path class="fil12" d="M8.06 3.1c-0.14,0.04 -0.29,0.02 -0.44,0.02l0.01 -0.12c-0.04,0.07 -0.03,0.04 -0.02,0.14l0.35 0.01c0.15,-0.02 0.06,0 0.1,-0.05z"/>
 </g>
</svg>
