<?xml version="1.0" encoding="UTF-8"?>
<!DOCTYPE svg PUBLIC "-//W3C//DTD SVG 1.1//EN" "http://www.w3.org/Graphics/SVG/1.1/DTD/svg11.dtd">
<!-- Creator: CorelDRAW 2020 (64-Bit) -->
<svg xmlns="http://www.w3.org/2000/svg" xml:space="preserve" width="101.286mm" height="87.9014mm" version="1.1" style="shape-rendering:geometricPrecision; text-rendering:geometricPrecision; image-rendering:optimizeQuality; fill-rule:evenodd; clip-rule:evenodd"
viewBox="0 0 48.85 42.39"
 xmlns:xlink="http://www.w3.org/1999/xlink"
 xmlns:xodm="http://www.corel.com/coreldraw/odm/2003">
 <defs>
  <style type="text/css">
   <![CDATA[
    .fil0 {fill:black}
    .fil9 {fill:#72353E}
    .fil10 {fill:#78444A}
    .fil8 {fill:#C4D2DD}
    .fil7 {fill:#D8E6EB}
    .fil4 {fill:#E4384F}
    .fil6 {fill:#E63850}
    .fil5 {fill:#E7F8FB}
    .fil1 {fill:#EB5368}
    .fil2 {fill:#F17181}
    .fil3 {fill:#F78B98}
   ]]>
  </style>
 </defs>
 <g id="Capa_x0020_1">
  <metadata id="CorelCorpID_0Corel-Layer"/>
  <g id="_1703290408960">
   <path class="fil0" d="M13.28 30.79l24.6 -0c1.56,-0 2.31,0.2 2.32,1.84 0,1.22 0.09,2.87 -0.02,4.04 -0.15,0.13 0.18,0.15 -0.86,0.14 -4.75,-0.07 -10.03,-0 -14.79,-0 -5.27,0 -10.55,-0.01 -15.82,-0.01 -0.11,-0.63 -0.1,-4.67 0.08,-5.12 0.5,-1.23 2.68,-0.91 4.5,-0.89zm35.57 -14.4l0 0.52c-0.01,0.05 -0.01,0.09 -0.02,0.14 -0.07,0.39 -0.51,1.82 -0.71,2.16 -0.35,0.61 -1.08,0.96 -1.92,0.71 -1.17,-0.34 -10.44,-3.19 -10.9,-3.23 0,1.06 0.31,2.88 -0.76,2.83 -0.94,-0.14 -0.72,-0.9 -0.72,-1.88l0 -8.06 -2.43 0c-0.47,0.37 -0.31,1.41 -1.66,1.91 -0.81,0.3 -9.74,0.23 -10.57,0.02 -1.55,-0.74 -1.2,-1.56 -1.7,-1.93l-2.43 0c0,1.95 0,3.91 0,5.87 0,4.78 0.38,7.95 -2.09,12.18 -0.26,0.44 -1.01,1.44 -1.11,1.72l25.09 0c0.1,-0.11 0.14,0.01 -0,-0.16 -0.12,-0.3 -0.39,-0.57 -0.58,-0.85 -0.94,-1.4 -2.43,-4.81 -2.35,-6.21 0.03,-0.52 0.33,-0.51 0.62,-0.77 1.03,0.45 0.63,0.17 1.05,1.83 0.59,2.33 1.38,3.71 2.83,5.57 0.5,0.64 0.49,0.54 0.81,0.62 0.46,0.12 0.62,0.17 1.02,0.41 1.9,1.14 1.37,4.07 1.37,6.93 0.51,0.25 0.67,0.09 1.17,0.55 0.99,0.91 0.74,3.37 0.42,4.01 -0.17,0.34 -0.52,0.68 -0.86,0.86 -0.46,0.24 -0.74,0.22 -1.4,0.22l-13.07 -0c-1.23,0 -2.5,0.26 -2.58,-0.67 0.08,-0.89 0.56,-0.79 1.43,-0.79l13.17 0c0.54,0 1.58,0.17 1.89,-0.2 0.36,-0.37 0.21,-1.93 0.06,-2.39 -0.8,-0.24 -29.17,-0.08 -30.9,-0.09 -0.93,0.01 -3.42,-0.11 -4.09,0.09 -0.15,0.46 -0.3,2.02 0.06,2.39 0.34,0.37 3.23,0.19 3.89,0.2 3.79,0.03 8.55,-0.13 12.08,0.02 0.41,0.2 0.46,0.21 0.52,0.77 -0.04,0.56 -0.43,0.67 -1.04,0.67l-14.8 -0c-1.11,0.01 -1.77,-0.39 -2.1,-1.14 -0.28,-0.63 -0.3,-2.2 -0.1,-2.97 0.34,-1.33 1.27,-1.3 1.72,-1.52 0,-1.11 0,-2.23 0,-3.34 -0,-1.55 0.11,-2.86 1.43,-3.62 1.26,-0.73 1.05,0.23 2.67,-2.2 2.57,-3.86 2.29,-6.56 2.29,-10.88 -0.37,0.03 -0.74,0.2 -1.12,0.31 -0.34,0.09 -0.69,0.21 -1.1,0.33l-6.54 1.95c-1.6,0.51 -3.25,1.33 -4.1,-0.12 -0.14,-0.24 -0.63,-1.88 -0.68,-2.19 -0,-0.02 -0.01,-0.04 -0.01,-0.06l0 -0.49c0.08,-0.65 0.51,-0.95 0.95,-1.25 0,-4.05 -0.3,-5.75 1.41,-8.32 0.66,-0.99 1.52,-1.71 2.54,-2.33 2.67,-1.62 7.6,-3.05 10.78,-3.62 2.64,-0.47 5.72,-0.9 8.74,-0.9 5.91,0 12.09,1.36 16.32,3.05 2.14,0.86 3.84,1.51 5.28,3.21 2.2,2.61 1.88,4.7 1.88,8.9 0.43,0.29 0.86,0.6 0.95,1.22zm-8.07 -1.75c0.46,-0.01 6.08,1.68 6.62,1.93l-0.53 1.95c-0.57,-0.03 -6,-1.65 -6.65,-1.93l-4.47 -1.32c0.01,-0.53 0.32,-1.61 0.56,-1.97 0.33,-0.05 4.26,1.11 4.47,1.33zm-34.47 2.65c-0.62,0.25 -3.76,1.21 -4.34,1.24 -0.13,-0.47 -0.59,-1.55 -0.47,-1.96l4.28 -1.34c1.02,-0.24 6.29,-2 6.75,-1.92 0.24,0.35 0.55,1.44 0.56,1.97l-6.78 2zm28.99 -5.08l0 -2.96c1.57,0.36 1.19,1.94 0.89,2.42 -0.16,0.25 -0.09,0.13 -0.39,0.28l-0.5 0.26zm-22.9 -1.72c0,-0.74 0.5,-1.09 1.14,-1.24l0 2.96c-0.14,-0.08 -0.27,-0.15 -0.43,-0.23 -0.41,-0.2 -0.71,-0.36 -0.71,-1.48zm6.68 -1.14l0 -1.05 10.69 0c0,0.92 0.22,1.91 -1.05,1.91l-8.59 0c-0.6,0 -1.05,-0.27 -1.05,-0.86zm14.66 -3.61c0.23,0.25 0.16,1.99 0.08,2.42l-2.33 0.05c-0.16,-0.03 -0.16,-0.06 -0.22,-0.09l0.02 -2.41 2.46 0.03zm-18.64 -0l2.47 -0.02 0.01 2.41c-0.02,0.01 -0.05,0.03 -0.07,0.04 -0.02,0.01 -0.05,0.03 -0.07,0.03 -0.22,0.06 0.06,0.01 -0.17,0.03l-0.96 -0c-0.42,0 -0.89,0.05 -1.29,-0.06 -0.07,-0.37 -0.14,-2.26 0.08,-2.42zm-8.79 7.82l-3.93 1.2c0.02,-3.17 -0.37,-6.78 2.99,-8.81 0.61,-0.37 1.91,-1.06 2.64,-1.26 0.35,-0.38 4.14,-1.48 5,-1.7 1.69,-0.43 3.87,-0.89 5.66,-1.06 0.05,0.86 0.06,2.3 1.66,2.54 0.58,0.09 7.76,0.08 8.27,-0.01 1.45,-0.28 1.52,-1.57 1.57,-2.53 3.52,0.33 8.65,1.68 11.47,3.07 2,0.98 2.99,1.48 4.01,3.25 1.01,1.77 0.8,4.26 0.81,6.51l-4.69 -1.42 -4.18 -1.22c0.37,-1.87 0.59,-1.3 -0.09,-3.16 -0.17,-0.08 -0.52,-0.56 -1,-0.81 -0.39,-0.2 -0.9,-0.34 -1.25,-0.55 0,-2.31 0.23,-3.34 -2.33,-3.33 -2.46,0.01 -3.08,-0.12 -3.01,2.53l-10.9 -0.03c0,-2.67 -0.68,-2.49 -3.17,-2.5 -2.49,-0.01 -2.24,1.12 -2.24,3.33 -1.06,0.66 -1.62,0.42 -2.29,1.52 -0.69,1.14 -0.37,1.8 -0.06,3l-4.94 1.44zm13.83 -11.82c3.27,-0.27 5.27,-0.3 8.56,-0 0.18,1.78 -0.23,1.33 -4.38,1.33 -3.83,0 -4.37,0.45 -4.18,-1.33z"/>
   <path class="fil1" d="M8.01 4.69c-0.8,1.15 -1.36,2.06 -1.7,3.72 -0.07,0.32 -0.31,4.34 -0.18,4.84 0.09,0.33 -0.12,0.08 0.18,0.3l4.94 -1.44c-0.31,-1.2 -0.64,-1.86 0.06,-3 0.67,-1.1 1.22,-0.86 2.29,-1.52 0,-2.21 -0.25,-3.34 2.24,-3.33 2.49,0.01 3.17,-0.17 3.17,2.5l10.9 0.03c-0.07,-2.65 0.55,-2.52 3.01,-2.53 2.57,-0.01 2.33,1.02 2.33,3.33 0.35,0.21 0.86,0.35 1.25,0.55 0.49,0.25 0.84,0.74 1,0.81 1.06,0.53 2.24,0.43 3.1,1.19 0.31,0.27 0.7,0.67 0.91,1.19 0.31,0.79 0.09,1.49 0.27,2l4.69 1.42c-0.01,-2.25 0.2,-4.75 -0.81,-6.51 -1.02,-1.77 -2,-2.26 -4.01,-3.25 -2.83,-1.39 -7.96,-2.75 -11.47,-3.07 -0.05,0.96 -0.12,2.25 -1.57,2.53 -0.51,0.1 -7.68,0.1 -8.27,0.01 -1.59,-0.24 -1.6,-1.68 -1.66,-2.54 -1.79,0.17 -3.97,0.63 -5.66,1.06 -0.86,0.22 -4.65,1.32 -5,1.7z"/>
   <path class="fil2" d="M40.17 36.67c0.11,-1.17 0.02,-2.81 0.02,-4.04 -0,-1.64 -0.75,-1.85 -2.32,-1.84l-24.6 0c-0.15,0.35 -0.4,0.65 -0.47,1.1l-0.03 4.78 27.4 0z"/>
   <path class="fil1" d="M19.16 11.52l0.02 3.49 0.38 -0.32c0.16,-0.13 0.25,-0.18 0.44,-0.33 2.34,-1.73 5.31,-1.84 7.9,-0.58 2.21,1.07 4.45,3.94 4.02,7.57 -0.72,6.18 -8.21,8.89 -12.79,4.53 -0.29,-0.27 -0.38,-0.5 -0.73,-0.8 -0.28,0.08 -0.34,0.49 -0.58,1.03 -0.76,1.7 -0.99,1.79 -1.9,3.1l20.99 -0.03c-0.12,-0.3 -0.39,-0.57 -0.58,-0.85 -0.94,-1.4 -2.43,-4.81 -2.35,-6.21 0.03,-0.52 0.33,-0.51 0.62,-0.77 0.04,-0.56 -0.08,-1.15 -0.08,-1.84 -0.94,-0.14 -0.72,-0.9 -0.72,-1.88l0 -8.06 -2.43 0c-0.47,0.37 -0.31,1.41 -1.66,1.91 -0.81,0.3 -9.74,0.23 -10.57,0.02z"/>
   <path class="fil3" d="M22.95 40.92c0.41,0.2 0.46,0.21 0.52,0.77l1.91 0c0.08,-0.89 0.56,-0.79 1.43,-0.79l13.17 0c0.54,0 1.58,0.17 1.89,-0.2 0.36,-0.37 0.21,-1.93 0.06,-2.39 -0.8,-0.24 -29.17,-0.08 -30.9,-0.09l-0.03 2.51c3.09,0.21 8.06,-0.11 11.34,0 0.28,0.01 0.43,0.03 0.62,0.18z"/>
   <path class="fil4" d="M36.92 29.2l-20.99 0.03c0.91,-1.31 1.14,-1.41 1.9,-3.1 0.24,-0.54 0.3,-0.95 0.58,-1.03 -0.16,-0.34 -0.46,-0.69 -0.68,-1.13 -0.67,-1.34 -0.98,-2.73 -0.81,-4.29 0.16,-1.55 0.67,-2.59 1.5,-3.74 0.17,-0.24 0.16,-0.27 0.39,-0.48 0.11,-0.1 0.14,-0.1 0.24,-0.23 0.16,-0.18 0.09,-0.11 0.14,-0.21l-0.02 -3.49c-1.55,-0.74 -1.2,-1.56 -1.7,-1.93l-2.43 0c0,1.95 0,3.91 0,5.87 0,4.78 0.38,7.95 -2.09,12.18 -0.26,0.44 -1.01,1.44 -1.11,1.72l25.09 0c0.1,-0.11 0.14,0.01 -0,-0.16z"/>
   <path class="fil0" d="M25.11 26.5l-0.3 0.1c-2.64,0.42 -6.43,-2.08 -6.5,-5.99 -0.07,-3.63 2.94,-6.5 6.69,-6.22 3.07,0.34 5.52,2.75 5.56,6.03 0.04,3.93 -3.76,6.4 -5.44,6.08zm-5.93 -11.49c-0.05,0.1 0.01,0.03 -0.14,0.21 -0.11,0.13 -0.13,0.13 -0.24,0.23 -0.22,0.21 -0.21,0.24 -0.39,0.48 -0.83,1.16 -1.34,2.19 -1.5,3.74 -0.16,1.56 0.14,2.95 0.81,4.29 0.22,0.44 0.53,0.79 0.68,1.13 0.35,0.3 0.44,0.53 0.73,0.8 4.58,4.36 12.07,1.65 12.79,-4.53 0.42,-3.63 -1.81,-6.5 -4.02,-7.57 -2.6,-1.26 -5.56,-1.15 -7.9,0.58 -0.19,0.14 -0.28,0.2 -0.44,0.33l-0.38 0.32z"/>
   <path class="fil5" d="M22.5 16.75c0.67,-0.04 1.1,-0.46 2.21,-0.38 2.01,0.14 3.8,1.79 3.83,4.04 0.04,2.3 -1.72,3.97 -3.67,4.18 -1.14,0.12 -1.53,-0.27 -2.27,-0.32 -0.21,0.11 -0.21,-0.07 0.35,0.67 0.46,0.61 1.38,1.41 2.15,1.56 1.68,0.32 5.48,-2.15 5.44,-6.08 -0.04,-3.27 -2.5,-5.69 -5.56,-6.03 -0.42,0.41 -0.98,0.58 -1.43,1.06 -0.26,0.28 -1.11,1.04 -1.06,1.3z"/>
   <path class="fil0" d="M25.82 18.28c1.24,0.18 1.99,3.31 0.25,4.36 -0.34,0.2 -0.03,0.08 -0.34,0.12 -0.78,0.96 -3.97,0.39 -4,-2.24 -0.03,-2.71 3.34,-3.28 4.08,-2.24zm-3.31 -1.52c-0.32,0.42 -2.22,1.22 -2.2,3.76 0.02,2.63 2,3.39 2.31,3.76 0.74,0.05 1.12,0.44 2.27,0.32 1.95,-0.21 3.71,-1.88 3.67,-4.18 -0.04,-2.25 -1.83,-3.9 -3.83,-4.04 -1.11,-0.08 -1.54,0.34 -2.21,0.38z"/>
   <path class="fil6" d="M6.31 13.56c-0.29,-0.22 -0.09,0.03 -0.18,-0.3 -0.13,-0.5 0.11,-4.52 0.18,-4.84 0.33,-1.66 0.89,-2.57 1.7,-3.72 -0.73,0.2 -2.03,0.88 -2.64,1.26 -3.36,2.02 -2.97,5.64 -2.99,8.81l3.93 -1.2z"/>
   <path class="fil7" d="M25.11 26.5c-0.77,-0.15 -1.69,-0.96 -2.15,-1.56 -0.56,-0.73 -0.56,-0.56 -0.35,-0.67 -0.31,-0.36 -2.29,-1.13 -2.31,-3.76 -0.02,-2.54 1.88,-3.34 2.2,-3.76 -0.05,-0.26 0.8,-1.02 1.06,-1.3 0.45,-0.48 1,-0.65 1.43,-1.06 -3.75,-0.28 -6.76,2.59 -6.69,6.22 0.08,3.91 3.86,6.4 6.5,5.99l0.3 -0.1z"/>
   <path class="fil1" d="M40.17 36.67l-27.4 0 0.03 -4.78c0.07,-0.45 0.32,-0.75 0.47,-1.1 -1.82,-0.02 -4,-0.34 -4.5,0.89 -0.18,0.45 -0.18,4.49 -0.08,5.12 5.27,0 10.55,0.01 15.82,0.01 4.76,0 10.04,-0.07 14.79,0 1.04,0.02 0.71,-0.01 0.86,-0.14z"/>
   <path class="fil3" d="M5.78 15.23l0.53 2.06 6.78 -2c-0.01,-0.53 -0.32,-1.63 -0.56,-1.97 -0.46,-0.08 -5.74,1.68 -6.75,1.92z"/>
   <path class="fil3" d="M40.23 16.6c0.65,0.28 6.08,1.9 6.65,1.93l0.53 -1.95c-0.54,-0.25 -6.16,-1.95 -6.62,-1.93 -0.29,0.18 -0.65,1.58 -0.56,1.96z"/>
   <path class="fil8" d="M25.73 22.75c-0.28,-0.05 -0.23,-0.1 -0.4,-0.38 -0.38,-0.62 -0.58,-1.17 -0.56,-1.96 0.02,-0.63 0.42,-2.21 1.05,-2.14 -0.75,-1.05 -4.11,-0.47 -4.08,2.24 0.02,2.63 3.22,3.2 4,2.24z"/>
   <path class="fil4" d="M20.15 1.74c-0.19,1.78 0.35,1.33 4.18,1.33 4.14,0 4.55,0.45 4.38,-1.33 -3.29,-0.3 -5.28,-0.27 -8.56,0z"/>
   <path class="fil2" d="M22.95 40.92c-0.19,-0.15 -0.34,-0.17 -0.62,-0.18 -3.28,-0.12 -8.25,0.21 -11.34,-0l0.03 -2.51c-0.93,0.01 -3.42,-0.11 -4.09,0.09 -0.15,0.46 -0.3,2.02 0.06,2.39 0.34,0.37 3.23,0.19 3.89,0.2 3.79,0.03 8.55,-0.13 12.08,0.02z"/>
   <path class="fil6" d="M41.78 13.34c-0.18,-0.51 0.05,-1.21 -0.27,-2 -0.21,-0.52 -0.59,-0.91 -0.91,-1.19 -0.86,-0.75 -2.04,-0.65 -3.1,-1.19 0.68,1.86 0.46,1.29 0.09,3.16l4.18 1.22z"/>
   <path class="fil2" d="M40.23 16.6c-0.1,-0.38 0.26,-1.78 0.56,-1.96 -0.21,-0.22 -4.14,-1.38 -4.47,-1.33 -0.24,0.36 -0.55,1.44 -0.56,1.97l4.47 1.32z"/>
   <path class="fil2" d="M6.31 17.29l-0.53 -2.06 -4.28 1.34c-0.11,0.41 0.34,1.48 0.47,1.96 0.58,-0.03 3.73,-0.99 4.34,-1.24z"/>
   <path class="fil7" d="M25.73 22.75c0.31,-0.04 -0.01,0.08 0.34,-0.12 1.75,-1.04 0.99,-4.18 -0.25,-4.36 -0.63,-0.07 -1.03,1.51 -1.05,2.14 -0.02,0.79 0.18,1.34 0.56,1.96 0.17,0.28 0.13,0.33 0.4,0.38z"/>
   <polygon class="fil2" points="17.59,8.12 17.58,5.72 15.1,5.73 15.08,8.12 "/>
   <polygon class="fil3" points="31.26,8.12 33.75,8.12 33.74,5.74 31.28,5.71 "/>
   <path class="fil9" d="M17.59 8.12l-2.51 0 0.02 -2.39c-0.21,0.16 -0.15,2.06 -0.08,2.42 0.4,0.11 0.86,0.06 1.29,0.06l0.96 0c0.23,-0.03 -0.05,0.03 0.17,-0.03 0.02,-0.01 0.05,-0.03 0.07,-0.03 0.02,-0.01 0.05,-0.02 0.07,-0.04z"/>
   <path class="fil10" d="M31.26 8.12c0.06,0.03 0.06,0.06 0.22,0.09l2.33 -0.05c0.08,-0.43 0.15,-2.17 -0.08,-2.42l0.01 2.38 -2.49 0z"/>
  </g>
 </g>
</svg>
