<?xml version="1.0" encoding="UTF-8"?>
<!DOCTYPE svg PUBLIC "-//W3C//DTD SVG 1.1//EN" "http://www.w3.org/Graphics/SVG/1.1/DTD/svg11.dtd">
<!-- Creator: CorelDRAW 2020 (64-Bit) -->
<svg xmlns="http://www.w3.org/2000/svg" xml:space="preserve" width="123.224mm" height="94.7931mm" version="1.1" style="shape-rendering:geometricPrecision; text-rendering:geometricPrecision; image-rendering:optimizeQuality; fill-rule:evenodd; clip-rule:evenodd"
viewBox="0 0 62.11 47.78"
 xmlns:xlink="http://www.w3.org/1999/xlink"
 xmlns:xodm="http://www.corel.com/coreldraw/odm/2003">
 <defs>
  <style type="text/css">
   <![CDATA[
    .fil1 {fill:#FF9933}
    .fil0 {fill:yellow}
   ]]>
  </style>
 </defs>
 <g id="Capa_x0020_1">
  <metadata id="CorelCorpID_0Corel-Layer"/>
  <rect class="fil0" x="-0" y="0" width="62.11" height="47.78" rx="4.54" ry="4.9"/>
  <path class="fil1" d="M14.56 15.14c0,2.42 0.4,3.53 1.21,5.56 0.2,0.51 0.68,1.67 0.94,2.1l2.89 4.63 1.68 2.11c0.8,0.86 1.74,1.98 2.61,2.74l2.44 2.09c3.24,2.54 8.68,5.61 12.6,5.61 1.15,0 1.9,-0.08 2.86,-0.73 0.57,-0.39 1.15,-0.93 1.57,-1.48l1.1 -1.13c0.37,-0.36 0.67,-0.5 1.07,-1.17 1.07,-1.79 -0.35,-3.13 -1.67,-4.35l-2.57 -2.5c-0.31,-0.31 -0.51,-0.55 -0.89,-0.8 -2.01,-1.35 -3.45,0.71 -4.9,2.16 -1.11,1.11 -0.9,1.28 -2.21,0.62 -0.2,-0.1 -0.24,-0.15 -0.43,-0.25 -1.85,-1.03 -4.26,-2.9 -5.5,-4.46l-2.39 -2.89c-0.19,-0.25 -0.38,-0.55 -0.53,-0.82 -1.39,-2.58 -1.38,-1.51 1.78,-4.79 1.11,-1.16 1.27,-2.57 0.1,-3.73 -0.83,-0.82 -3.38,-3.55 -4.07,-4.13 -0.96,-0.8 -1.93,-1.27 -3.16,-0.56 -0.61,0.35 -1.91,1.74 -2.39,2.22 -0.26,0.26 -0.48,0.48 -0.74,0.74 -0.25,0.25 -0.52,0.54 -0.72,0.84 -0.37,0.57 -0.69,1.44 -0.69,2.36z"/>
  <path class="fil1" d="M46.52 22.04c0.39,0 0.97,-0.14 1.35,-0.2 0.42,-0.07 0.91,-0.2 1.35,-0.2l-0.34 -1.69c-0.27,-1.03 -0.66,-2.1 -1.08,-3.05 -0.22,-0.5 -0.41,-0.95 -0.69,-1.41 -0.14,-0.23 -0.22,-0.41 -0.36,-0.65 -0.15,-0.25 -0.24,-0.38 -0.4,-0.62 -0.3,-0.45 -0.54,-0.83 -0.86,-1.24 -1.99,-2.48 -3.67,-4.03 -6.72,-5.67 -0.26,-0.14 -0.41,-0.2 -0.69,-0.32 -0.27,-0.11 -0.42,-0.21 -0.7,-0.32 -0.47,-0.19 -0.99,-0.39 -1.52,-0.58l-1.64 -0.46c-0.3,-0.07 -0.58,-0.12 -0.85,-0.17 -0.33,-0.05 -0.6,-0.14 -0.94,-0.14l-0.37 2.54c0.01,0.23 -0.11,0.13 0.67,0.27 2.77,0.5 5.28,1.6 7.48,3.36 0.2,0.16 0.38,0.26 0.57,0.45 0.2,0.2 0.32,0.26 0.51,0.44 0.19,0.17 0.33,0.33 0.51,0.51 1.73,1.73 2.53,3.08 3.6,5.27 0.34,0.7 1.11,3.17 1.13,3.88z"/>
  <path class="fil1" d="M31.69 14.93c0.88,0.07 2.14,0.53 2.93,0.93 0.54,0.27 1.26,0.74 1.72,1.13 1.43,1.21 2.53,2.89 3,4.72 0.07,0.26 0.1,0.59 0.2,0.81 0.32,-0.03 2.47,-0.39 2.64,-0.47 0,-1.14 -0.98,-3.24 -1.55,-4.2 -0.7,-1.16 -1.65,-2.23 -2.69,-3.06 -0.29,-0.23 -0.49,-0.41 -0.81,-0.62l-1.32 -0.78c-1.14,-0.59 -2.08,-0.82 -3.27,-1.07 -0.62,-0.13 -0.45,-0.22 -0.67,1.33 -0.05,0.38 -0.16,0.92 -0.19,1.3z"/>
 </g>
</svg>
