<?xml version="1.0" encoding="UTF-8"?>
<!DOCTYPE svg PUBLIC "-//W3C//DTD SVG 1.1//EN" "http://www.w3.org/Graphics/SVG/1.1/DTD/svg11.dtd">
<!-- Creator: CorelDRAW 2020 (64-Bit) -->
<svg xmlns="http://www.w3.org/2000/svg" xml:space="preserve" width="203.561mm" height="184.764mm" version="1.1" style="shape-rendering:geometricPrecision; text-rendering:geometricPrecision; image-rendering:optimizeQuality; fill-rule:evenodd; clip-rule:evenodd"
viewBox="0 0 228.09 207.03"
 xmlns:xlink="http://www.w3.org/1999/xlink"
 xmlns:xodm="http://www.corel.com/coreldraw/odm/2003">
 <defs>
  <style type="text/css">
   <![CDATA[
    .fil1 {fill:black}
    .fil7 {fill:#AF712D}
    .fil9 {fill:#DBD2CD}
    .fil10 {fill:#DDD3CE}
    .fil8 {fill:#E9E1DE}
    .fil4 {fill:#EAE2DF}
    .fil2 {fill:#F6F2EF}
    .fil5 {fill:#FEA242}
    .fil0 {fill:#FEBE54}
    .fil6 {fill:#FF8A3C}
    .fil3 {fill:#FFA442}
   ]]>
  </style>
 </defs>
 <g id="Capa_x0020_1">
  <metadata id="CorelCorpID_0Corel-Layer"/>
  <path class="fil0" d="M39.33 184.88c-0.76,-5.48 8.21,-3.95 12.35,-3.95 4.12,0 12.98,-1.54 13.71,2.74 0.96,5.62 -8.29,3.94 -12.37,3.94 -4.01,0 -13.09,1.54 -13.68,-2.73zm26.34 -53.21l1.8 -8.84c-3.49,-2.35 -1.66,-5.35 0.19,-8.85 18.55,-35.09 67.31,-38.26 89.9,-4.68 25.92,38.52 -9.13,89.9 -54.78,79.69 -23.81,-5.33 -40.09,-26.02 -40.9,-49.1 -0.14,-3.87 -0.64,-8.38 3.79,-8.22zm131.07 65.21c0.21,-1.78 0.5,-32.73 -0.16,-35.3l-13.87 -34.21c-1.26,-3.08 -3.56,-6.56 0.4,-8.35 -0.94,-1.97 -2.61,-5.89 -3.12,-8.13 -4.34,0.19 -4.13,-0.39 -5.51,-3.82l-7.86 -19.31c-1.97,-4.8 -3.52,-11.12 -6.67,-11.66 -2.72,-0.46 -84.5,-0.12 -90.75,-0.07 -1.32,4.43 -3.71,9.8 -5.47,13.97l-16.54 41.38c-3.67,9.15 -7.17,18.09 -10.95,27.36 -2.44,5.99 -1.64,10.72 -1.64,17.67 0,3.67 -0.67,16.99 0.48,19.23 1.09,1.7 5.41,1.07 8.58,1.07l132.31 0c6.17,0 14.91,-0.5 20.76,0.16z"/>
  <path class="fil1" d="M79.35 34.19l2.98 -0.07 8.58 0.02c0.12,9.66 -2.21,19.8 4.53,22.32 1.89,0.71 30.94,0.76 35.06,0.43 3.61,-0.29 3.8,-1.7 5.78,-3.3 1.66,-4.89 0.83,-13.66 0.9,-19.41l3.32 -0.06 8.31 0.05c0.06,0.11 0.16,0.14 0.17,0.32 0.61,6.68 0.64,30.96 0.11,34.85l-70.1 0.13c-0.1,-0.8 -0.87,-33.28 0.35,-35.29zm148.74 19.27l0 2.48c-0.27,1.97 -1.22,3.95 -2.84,8.49 -1.78,4.99 -3.62,11.25 -11,11.76 -2.3,0.16 -35.22,-6.49 -38.8,-7.08 -3.72,-0.61 -5.89,-1.31 -8.09,-3.49 -3.47,-3.46 -4.35,-13.04 -5.15,-18.01 -0.89,-5.5 -0.16,-4.84 -6.3,-4.84l0 26.28c11.04,0 12.04,3.83 15.02,11.26l10.08 24.68c1.69,4.14 0.66,3.48 -1.04,5.91 -4.34,0.19 -4.13,-0.39 -5.51,-3.82l-7.86 -19.31c-1.97,-4.8 -3.52,-11.12 -6.67,-11.66 -2.72,-0.46 -84.5,-0.12 -90.75,-0.07 -3.29,0.25 -3.58,1.38 -4.64,4.11 -9.32,24.14 -20.81,51.46 -30.74,75.74 -2.59,6.32 -2.54,5.66 -2.54,13.41 0,5.49 0,10.99 0,16.48 0,4.18 -1.42,12.91 2.34,14.03 2.18,0.65 58.03,0.23 65.28,0.23l24.53 -0.01c4.2,0.17 2.98,1.05 4.43,3.32 -1.14,3.15 -0.71,3.42 -6.23,3.37l-63.71 -0.01c-3.88,0 -24.28,0.57 -27.02,-0.61 -8.12,-3.5 -6.4,-12.38 -6.4,-20.78 0,-5.15 -0.78,-22.73 0.88,-26.74l28.97 -71.27c4.99,-12.56 5.13,-18.27 17.82,-18.27l0 -26.28c-2.91,0 -4.96,-0.68 -5.71,1.42 -0.55,1.54 -2.01,13.37 -3.23,17.26 -2.14,6.81 -7.83,7.09 -12.48,8.01l-28.86 5.45c-4.38,0.73 -7.07,2.16 -11.6,0.34 -2.99,-1.2 -4.94,-3.9 -6.11,-7.25 -2.57,-7.36 -4.13,-9.29 -4.17,-12.73l0 -0.3c0.02,-1.99 0.53,-4.51 1.6,-8.81 1.03,-4.12 4.44,-18.92 5.67,-21.51 5.91,-12.51 14.58,-12.75 26.33,-15.1 4.69,-0.94 7.79,-2.69 9.61,1.83 -1.34,2.98 -0.18,3.25 -4.53,4.12 -2.51,0.5 -4.92,0.97 -7.46,1.5 -5.34,1.11 -10.41,1.45 -13.42,4.73 -3.61,1.84 -4.99,7.6 -6.32,12.95 -1.28,5.13 -2.73,10.51 -3.79,15.63 1.43,-0.06 2.87,-0.23 4,-0.95 2.84,0.4 24.88,-4.4 29.66,-5.29 5.13,-0.95 9.93,-1.89 15,-2.84 4.98,-0.94 3.2,-0.26 5.95,-2.97 1.64,-1.61 3.79,-2.13 6.68,-2.15l3.33 0c0.03,-8.45 4.42,-8.65 12.34,-8.64 7.82,0 12.93,-0.08 12.96,8.6l3.29 0.04 26.31 0 3.29 -0.02c0.01,-3.56 0.65,-5.53 2.99,-7.27 2.48,-1.84 5.95,-1.35 9.53,-1.34 8.08,0 12.75,-0.07 12.78,8.64l3.33 -0c3.18,0.03 5.19,0.56 6.91,2.38 2.67,2.83 1.97,2.02 6.47,2.84 6.77,1.24 44.67,8.85 47.92,8.99 -1.15,-6.17 -3.48,-15.58 -5.37,-21.65 -2.75,-8.78 -9.57,-9.95 -16.32,-11.34 -36.05,-7.37 -61.65,-12.13 -99.49,-10.28 -8.52,0.42 -17.01,1.17 -25.34,2.22 -4.04,0.51 -8.14,1.12 -12.09,1.78 -4.33,0.72 -8.83,2.75 -10.02,-1.67 -0.31,-4.3 3.18,-3.99 6.83,-4.64 3.43,-0.62 6.55,-1.15 9.96,-1.62 11.5,-1.59 20.19,-2.12 31.68,-3.07l23.14 -0.02c4.2,-0.01 6.61,0.39 10.71,0.43l21.06 2.11c11.78,1.55 50.04,7.82 56.76,11.84 10.4,6.22 11.16,18.19 14.47,31.41 0.93,3.73 1.49,5.96 1.69,7.67zm-130.53 -10.7l32.97 0 0 7.13 -32.97 0 0 -7.13zm75.91 5.76l47.01 8.72 -3.31 9.37c-1.42,2.74 -2.64,2.99 -6.28,2.29l-37.36 -7.21c-2.53,-1.03 -2.43,-3.2 -2.94,-6 -0.48,-2.64 -1.08,-5.46 -1.39,-8.13l4.25 0.97zm-116.46 9.39c-0.46,3.32 -1.64,3.77 -4.91,4.38 -5.53,1.03 -36.49,7.19 -38.27,6.89 -2.52,-0.42 -2.95,-2.75 -3.87,-5.2 -0.67,-1.78 -2.16,-5.13 -2.24,-6.78l3.42 -0.56 47.74 -9.14 -1.87 10.41z"/>
  <path class="fil0" d="M51.78 9.36c-1.59,0.12 -7.24,1.37 -8.57,2.01 -1.34,2.98 -0.18,3.25 -4.53,4.12 -2.51,0.5 -4.92,0.97 -7.46,1.5 -5.34,1.11 -10.41,1.45 -13.42,4.73 -0.42,3.85 -2.38,10.05 -3.38,14.12 -0.56,2.29 -1.09,4.49 -1.65,6.79 -0.62,2.55 -1.84,5.63 -1.09,6.72 2.84,0.4 24.88,-4.4 29.66,-5.29 5.13,-0.95 9.93,-1.89 15,-2.84 4.98,-0.94 3.2,-0.26 5.95,-2.97 1.64,-1.61 3.79,-2.13 6.68,-2.15 0,-5 -0.47,-8.64 3.29,-11.03 2.33,-1.48 22.63,-1.64 25.45,0.16 3.62,2.32 3.17,5.58 3.17,10.86l26.31 0c0,-13.73 3.66,-11.96 16.25,-11.96 3.69,0 9.94,-0.78 12.63,1.12 3.57,2.51 3.03,5.85 3.03,10.85 3.18,0.03 5.19,0.56 6.91,2.38 2.67,2.83 1.97,2.02 6.47,2.84 6.77,1.24 44.67,8.85 47.92,8.99 -1.15,-6.17 -3.48,-15.58 -5.37,-21.65 -2.75,-8.78 -9.57,-9.95 -16.32,-11.34 -36.05,-7.37 -61.65,-12.13 -99.49,-10.28 -8.52,0.42 -17.01,1.17 -25.34,2.22 -4.04,0.51 -8.14,1.12 -12.09,1.78 -4.33,0.72 -8.83,2.75 -10.02,-1.67z"/>
  <path class="fil2" d="M104.4 168.4c-1.14,-5.99 3.04,-10.86 7.88,-11.65 6.06,-1 10.77,3.23 11.48,8.16 1.87,12.96 -17.06,15.55 -19.36,3.49zm24.57 -14.26c-2.43,-13.21 17.38,-16.28 19.36,-3.53 2.02,13.01 -17.12,15.71 -19.36,3.53zm-30.08 0.89c-3.43,12.17 -22.43,7.15 -18.88,-5.54 3.43,-12.27 22.48,-7.23 18.88,5.54zm3.83 -15.15c-2.44,-15.39 20.78,-18.33 22.68,-3.4 0.86,6.71 -3.94,12.15 -9.86,12.92 -6.68,0.86 -11.95,-3.97 -12.82,-9.51zm26.22 -14.25c-1.02,-5.93 2.95,-10.66 7.92,-11.47 5.88,-0.96 10.69,3.17 11.46,7.95 2.09,13 -17.22,16.03 -19.38,3.52zm-49.17 0c-2.17,-13.4 17.51,-15.34 19.38,-3.42 0.9,5.74 -3.11,10.5 -7.95,11.3 -5.82,0.97 -10.67,-3.18 -11.43,-7.88zm32.1 -25.53c12.38,-3.05 17.04,15.85 4.62,19.06 -12.31,3.19 -17.88,-15.79 -4.62,-19.06zm-38.16 17.62c-1.95,10.38 -3.04,17.04 0.1,27.6 4.69,15.79 16.24,27.21 31.71,32.5 10.59,3.62 17.85,2.61 28.6,0.65 3.95,-0.3 12.79,-8.54 15.61,-12.24 15.23,-19.99 11.66,-45.17 -3.47,-60.36 -15.24,-15.3 -41.31,-18.6 -60.52,-3.61 -2.75,2.15 -11.51,10.96 -12.04,15.47z"/>
  <path class="fil1" d="M67.47 122.83c2.23,0.24 3.08,0.02 4.06,-1.42 1,-1.49 0.81,-2.46 2.2,-3.69 0.53,-4.51 9.29,-13.32 12.04,-15.47 19.21,-14.99 45.28,-11.68 60.52,3.61 15.13,15.19 18.7,40.37 3.47,60.36 -2.82,3.7 -11.67,11.94 -15.61,12.24 -1.16,1.31 -3.51,1.99 -5.22,2.57 -2.02,0.68 -4.12,1.27 -6.35,1.71 -25.23,4.98 -50.05,-12.67 -53.61,-38.39 -0.74,-5.37 1.21,-11.38 -3.29,-12.69 -4.43,-0.15 -3.92,4.36 -3.79,8.22 0.81,23.08 17.09,43.77 40.9,49.1 45.65,10.21 80.7,-41.17 54.78,-79.69 -22.6,-33.58 -71.35,-30.41 -89.9,4.68 -1.85,3.51 -3.69,6.51 -0.19,8.85z"/>
  <path class="fil0" d="M148.84 65.99l-0.02 -31.82 -8.31 -0.05c0,3.92 -0.02,7.84 0,11.76 0.02,4.62 0.13,6.81 -4.22,7.71 -1.98,1.6 -2.17,3.01 -5.78,3.3 -4.13,0.33 -33.17,0.28 -35.06,-0.43 -6.74,-2.53 -4.41,-12.67 -4.53,-22.32l-8.58 -0.02c0,5.61 -0.82,27.97 0.58,31.32 3.41,1.35 57.26,0.55 65.93,0.55z"/>
  <path class="fil1" d="M183.1 119.02c-3.96,1.79 -1.66,5.27 -0.4,8.35l13.87 34.21c0.66,2.57 0.37,33.52 0.16,35.3 -0.81,3.19 -1.96,3.17 -5.6,3.16l-41.89 -0.01c-7,0 -11.97,-1.33 -12.78,3.56 0.33,3.83 3.66,3.12 7.88,3.12l33.41 0c6.42,0 16.69,1.33 20.87,-1.4 5.91,-3.85 4.97,-8.58 4.97,-17.75 0,-7.42 -0.03,-14.85 0,-22.28 0.03,-6.76 -2.34,-10.27 -5.22,-17.5 -2.15,-5.4 -4.22,-10.48 -6.42,-15.85 -1.04,-2.54 -2.12,-5.05 -3.25,-7.89 -0.63,-1.57 -2.14,-7.02 -5.6,-5.01z"/>
  <path class="fil3" d="M127.86 203.34l8.6 0.25c0.81,-4.89 5.78,-3.56 12.78,-3.56l41.89 0.01c3.64,0.01 4.79,0.03 5.6,-3.16 -5.85,-0.66 -14.6,-0.16 -20.76,-0.16l-132.31 0c-3.18,0 -7.49,0.63 -8.58,-1.07 -1.15,-2.24 -0.48,-15.56 -0.48,-19.23 0,-6.95 -0.81,-11.67 1.64,-17.67 3.78,-9.27 7.28,-18.21 10.95,-27.36l16.54 -41.38c1.76,-4.18 4.14,-9.54 5.47,-13.97 -3.29,0.25 -3.58,1.38 -4.64,4.11 -9.32,24.14 -20.81,51.46 -30.74,75.74 -2.59,6.32 -2.54,5.66 -2.54,13.41 0,5.49 0,10.99 0,16.48 0,4.18 -1.42,12.91 2.34,14.03 2.18,0.65 58.03,0.23 65.28,0.23l24.53 -0.01c4.2,0.17 2.98,1.05 4.43,3.32z"/>
  <path class="fil4" d="M67.47 122.83l-1.8 8.84c4.5,1.32 2.55,7.33 3.29,12.69 3.55,25.72 28.38,43.37 53.61,38.39 2.22,-0.44 4.32,-1.02 6.35,-1.71 1.71,-0.58 4.06,-1.26 5.22,-2.57 -10.75,1.95 -18.01,2.97 -28.6,-0.65 -15.47,-5.28 -27.02,-16.71 -31.71,-32.5 -3.14,-10.56 -2.06,-17.22 -0.1,-27.6 -1.39,1.23 -1.2,2.2 -2.2,3.69 -0.98,1.45 -1.83,1.67 -4.06,1.42z"/>
  <path class="fil5" d="M11.14 56.65c-0.69,1.82 0.23,2.86 0.94,4.76 0.75,2 0.73,3.2 2.44,4.35 1.9,0.27 39,-6.68 42.49,-7.84l1.87 -10.41 -47.74 9.14z"/>
  <path class="fil5" d="M217.17 66.62l3.31 -9.37 -47.01 -8.72c-1.69,0.02 -0.56,1.73 0.09,5.58 0.5,3 0.15,4.32 2.98,5.04l40.64 7.48z"/>
  <path class="fil1" d="M109.91 135.84c4.14,-7.19 12.95,1.76 6.98,5.91 -4.29,3.23 -9.43,-1.58 -6.98,-5.91zm-7.19 4.05c0.88,5.54 6.15,10.38 12.82,9.51 5.92,-0.76 10.71,-6.2 9.86,-12.92 -1.9,-14.93 -25.12,-11.99 -22.68,3.4z"/>
  <path class="fil3" d="M148.84 65.99c-8.67,0 -62.52,0.8 -65.93,-0.55 -1.4,-3.35 -0.58,-25.71 -0.58,-31.32l-2.98 0.07 -0.06 34.83 69.5 0 0.04 -3.03z"/>
  <path class="fil1" d="M137.21 149.68c0.74,-1.78 5.77,-0.04 4.12,4.16 -2.46,4.18 -9.05,-0.98 -4.12,-4.16zm-8.24 4.46c2.24,12.19 21.38,9.48 19.36,-3.53 -1.98,-12.76 -21.79,-9.69 -19.36,3.53z"/>
  <path class="fil1" d="M91.79 153.9c-0.05,0.09 -0.23,1.67 -2.61,1.44 -3.54,-0.35 -3.77,-4.64 -1.11,-5.64 1.03,-1.38 3.94,-0.57 4.46,1.92 0.55,2.63 -0.72,2.27 -0.74,2.28zm7.11 1.13c3.6,-12.77 -15.45,-17.82 -18.88,-5.54 -3.55,12.7 15.45,17.71 18.88,5.54z"/>
  <path class="fil1" d="M136.78 121.47c0.04,-0.03 0.25,-0.34 0.7,-0.52l2.21 -0.06c2.71,0.92 2.38,4.49 1.54,4.29 -1.16,1.87 -3.15,2.69 -4.92,0.9 -0.58,-0.59 -0.91,-1.6 -0.81,-2.63 0.15,-1.44 0.43,-1.52 1.29,-1.99zm-7.83 4.16c2.16,12.51 21.47,9.49 19.38,-3.52 -0.77,-4.78 -5.58,-8.91 -11.46,-7.95 -4.97,0.81 -8.94,5.54 -7.92,11.47z"/>
  <path class="fil1" d="M112.18 107.18c4.39,-2.87 6.09,3.52 4.5,3.75 -1.04,1.7 -2.84,2.96 -4.86,0.88 -0.72,-0.75 -1,-1.49 -0.88,-2.61 0.17,-1.57 0.55,-1.51 1.23,-2.02zm-0.3 -7.08c-13.26,3.27 -7.69,22.24 4.62,19.06 12.42,-3.21 7.75,-22.11 -4.62,-19.06z"/>
  <path class="fil1" d="M112.55 163.97c2.61,-3.83 6.39,4.58 4.26,3.54 -1.4,3.65 -6.09,2.08 -5.9,-1.32 0.09,-1.65 0.64,-1.81 1.64,-2.23zm-8.15 4.43c2.3,12.05 21.24,9.47 19.36,-3.49 -0.71,-4.93 -5.42,-9.16 -11.48,-8.16 -4.84,0.8 -9.02,5.66 -7.88,11.65z"/>
  <path class="fil1" d="M91.89 125.62c-2.81,3.95 -8.71,-1.68 -3.68,-4.45 1.17,-1.87 6.5,1.16 3.68,4.45zm-12.11 0.01c0.76,4.7 5.61,8.85 11.43,7.88 4.84,-0.8 8.85,-5.57 7.95,-11.3 -1.88,-11.92 -21.55,-9.98 -19.38,3.42z"/>
  <path class="fil6" d="M217.17 66.62l-40.64 -7.48c-2.83,-0.72 -2.47,-2.04 -2.98,-5.04 -0.65,-3.85 -1.78,-5.56 -0.09,-5.58l-4.25 -0.97c0.31,2.67 0.91,5.49 1.39,8.13 0.51,2.8 0.41,4.97 2.94,6l37.36 7.21c3.64,0.7 4.86,0.45 6.28,-2.29z"/>
  <path class="fil6" d="M57.01 57.92c-3.48,1.16 -40.59,8.12 -42.49,7.84 -1.72,-1.14 -1.69,-2.35 -2.44,-4.35 -0.71,-1.9 -1.63,-2.93 -0.94,-4.76l-3.42 0.56c0.08,1.65 1.57,5.01 2.24,6.78 0.92,2.44 1.34,4.77 3.87,5.2 1.78,0.3 32.74,-5.86 38.27,-6.89 3.27,-0.61 4.45,-1.06 4.91,-4.38z"/>
  <path class="fil1" d="M39.33 184.88c0.59,4.27 9.67,2.73 13.68,2.73 4.09,0 13.33,1.68 12.37,-3.94 -0.73,-4.27 -9.59,-2.74 -13.71,-2.74 -4.14,0 -13.11,-1.53 -12.35,3.95z"/>
  <path class="fil3" d="M68.98 36.08l3.33 0c0.03,-8.45 4.42,-8.65 12.34,-8.64 7.82,0 12.93,-0.08 12.96,8.6l3.29 0.04c0,-5.28 0.45,-8.54 -3.17,-10.86 -2.82,-1.81 -23.12,-1.64 -25.45,-0.16 -3.76,2.38 -3.29,6.02 -3.29,11.03z"/>
  <path class="fil3" d="M127.2 36.08l3.29 -0.02c0.01,-3.56 0.65,-5.53 2.99,-7.27 2.48,-1.84 5.95,-1.35 9.53,-1.34 8.08,0 12.75,-0.07 12.78,8.64l3.33 -0c0,-4.99 0.54,-8.34 -3.03,-10.85 -2.69,-1.89 -8.95,-1.12 -12.63,-1.12 -12.59,0 -16.25,-1.77 -16.25,11.96z"/>
  <path class="fil3" d="M11.69 49.34c-0.75,-1.09 0.47,-4.17 1.09,-6.72 0.56,-2.31 1.09,-4.5 1.65,-6.79 1,-4.07 2.96,-10.27 3.38,-14.12 -3.61,1.84 -4.99,7.6 -6.32,12.95 -1.28,5.13 -2.73,10.51 -3.79,15.63 1.43,-0.06 2.87,-0.23 4,-0.95z"/>
  <path class="fil7" d="M148.81 34.18l0.02 31.82 -0.04 3.03 -69.5 0 0.06 -34.83c-1.22,2.01 -0.46,34.48 -0.35,35.29l70.1 -0.13c0.53,-3.89 0.5,-28.17 -0.11,-34.85 -0.02,-0.18 -0.11,-0.21 -0.17,-0.32z"/>
  <path class="fil3" d="M136.28 53.6c4.35,-0.9 4.25,-3.09 4.22,-7.71 -0.02,-3.92 -0,-7.84 -0,-11.76l-3.32 0.06c-0.07,5.75 0.76,14.52 -0.9,19.41z"/>
  <path class="fil8" d="M109.91 135.84c2.06,2.74 2.77,5.5 6.98,5.91 5.97,-4.16 -2.84,-13.1 -6.98,-5.91z"/>
  <path class="fil9" d="M116.89 141.75c-4.21,-0.41 -4.92,-3.17 -6.98,-5.91 -2.45,4.33 2.69,9.14 6.98,5.91z"/>
  <path class="fil8" d="M112.18 107.18c0.42,1.25 0.75,1.94 1.53,2.75 1,1.03 1.54,1.5 2.97,1 1.59,-0.23 -0.1,-6.62 -4.5,-3.75z"/>
  <path class="fil8" d="M88.21 121.17c-0.95,2.24 1.77,3.85 3.68,4.45 2.82,-3.28 -2.51,-6.32 -3.68,-4.45z"/>
  <path class="fil8" d="M91.79 153.9c0.02,-0.01 1.29,0.34 0.74,-2.28 -0.52,-2.5 -3.44,-3.3 -4.46,-1.92 -0.18,1.45 -0.02,1.65 1.02,2.68 0.79,0.79 1.49,1.18 2.71,1.52z"/>
  <path class="fil8" d="M116.81 167.51c2.13,1.04 -1.65,-7.38 -4.26,-3.54 -0.08,2.3 1.35,2.38 2.68,4l1.57 -0.46z"/>
  <path class="fil9" d="M116.81 167.51l-1.57 0.46c-1.33,-1.62 -2.76,-1.7 -2.68,-4 -1.01,0.42 -1.56,0.58 -1.64,2.23 -0.18,3.39 4.5,4.97 5.9,1.32z"/>
  <path class="fil8" d="M136.78 121.47c0.84,1.87 2.18,4.35 4.45,3.72 0.84,0.2 1.17,-3.37 -1.54,-4.29l-2.21 0.06c-0.44,0.18 -0.66,0.48 -0.7,0.52z"/>
  <path class="fil9" d="M141.33 153.84c-2.2,-0.06 -4.44,-2.26 -4.12,-4.16 -4.93,3.17 1.67,8.33 4.12,4.16z"/>
  <path class="fil9" d="M141.23 125.19c-2.26,0.64 -3.61,-1.85 -4.45,-3.72 -0.86,0.47 -1.14,0.56 -1.29,1.99 -0.1,1.03 0.23,2.04 0.81,2.63 1.77,1.79 3.76,0.97 4.92,-0.9z"/>
  <path class="fil9" d="M91.79 153.9c-1.22,-0.34 -1.92,-0.73 -2.71,-1.52 -1.04,-1.04 -1.2,-1.23 -1.02,-2.68 -2.65,1 -2.42,5.29 1.11,5.64 2.38,0.23 2.56,-1.34 2.61,-1.44z"/>
  <path class="fil8" d="M137.21 149.68c-0.31,1.9 1.93,4.1 4.12,4.16 1.64,-4.2 -3.39,-5.93 -4.12,-4.16z"/>
  <path class="fil10" d="M91.89 125.62c-1.92,-0.59 -4.64,-2.21 -3.68,-4.45 -5.02,2.77 0.87,8.4 3.68,4.45z"/>
  <path class="fil9" d="M116.68 110.93c-1.42,0.5 -1.97,0.04 -2.97,-1 -0.78,-0.81 -1.11,-1.5 -1.53,-2.75 -0.68,0.5 -1.07,0.45 -1.23,2.02 -0.12,1.12 0.16,1.87 0.88,2.61 2.02,2.08 3.81,0.82 4.86,-0.88z"/>
 </g>
</svg>
