<?xml version="1.0" encoding="UTF-8"?>
<!DOCTYPE svg PUBLIC "-//W3C//DTD SVG 1.1//EN" "http://www.w3.org/Graphics/SVG/1.1/DTD/svg11.dtd">
<!-- Creator: CorelDRAW 2020 (64-Bit) -->
<svg xmlns="http://www.w3.org/2000/svg" xml:space="preserve" width="87.207mm" height="88.4158mm" version="1.1" style="shape-rendering:geometricPrecision; text-rendering:geometricPrecision; image-rendering:optimizeQuality; fill-rule:evenodd; clip-rule:evenodd"
viewBox="0 0 447.13 453.33"
 xmlns:xlink="http://www.w3.org/1999/xlink"
 xmlns:xodm="http://www.corel.com/coreldraw/odm/2003">
 <defs>
  <style type="text/css">
   <![CDATA[
    .fil0 {fill:black}
    .fil6 {fill:#515151}
    .fil5 {fill:#7F7F7F}
    .fil4 {fill:#989898}
    .fil1 {fill:#B2B2B2}
    .fil3 {fill:#CCCCCC}
    .fil2 {fill:#E7E7E7}
   ]]>
  </style>
 </defs>
 <g id="Capa_x0020_1">
  <metadata id="CorelCorpID_0Corel-Layer"/>
  <g id="_2032360486304">
   <path class="fil0" d="M311.78 423.94c-0.28,8.89 -0.24,14.99 -9.03,15.91 -7.32,0.77 -18.75,0.09 -26.51,0.09 -30.79,0 -22.87,-0.44 -25.27,-27.17 -0.66,-7.32 -7.77,-7.51 -14.99,-10.37 -17.44,-6.92 -16.32,-13.28 -33.33,6.56 -6.97,8.13 -12.94,2.31 -17.25,-2.04 -8.82,-8.9 -17.48,-17.09 -26.11,-26.14 -12.67,-13.29 14.84,-22.18 14.14,-31.81 -0.16,-2.13 -6.34,-14.43 -7.72,-17.98 -3.59,-9.28 -1.67,-13.22 -13.4,-13.21 -7.64,0.01 -18.26,1.87 -22.03,-4.44 -2.25,-3.77 -1.68,-20.3 -0.99,-25.35 10.28,0 34.51,1.56 42.17,-2.29 9.37,-4.71 11.27,-12.23 11.11,-21.9 -0.12,-6.77 -1.19,-6.24 4.24,-7.66l9.73 -4.29 4.13 3.96c-4.82,17.1 -8.15,28.34 -4.25,48.11 15.76,80.02 124.6,96.49 162.04,22.63 7,-13.8 10.6,-28.89 9.08,-46.81 -0.7,-8.19 -2.61,-16.05 -5.32,-23.08 -3.86,-10.01 -3.24,-13.08 -13.78,-13.66 -3.29,5.47 -5.36,4.86 -1.25,12.79 11.27,21.72 9.13,50.34 -3.95,70.61 -3.26,5.04 -11.97,16.35 -16.55,17.69 -6.37,8.72 -28.26,16.12 -43.35,16.54 -48.09,1.32 -86.57,-43.8 -71.34,-96.44 6.52,-0.5 7.55,1.46 14.56,-1.39 6.45,-2.77 17.33,-15.46 22.17,-20.29 10.8,-10.79 15.38,-11.92 15.9,-26.41 17.91,-2.25 27.85,-3.11 44.3,3.55 6.21,2.51 11.9,5.71 16.36,9.33 5.08,4.12 8.6,9.03 15.65,3.82 1.83,-5.21 0.86,-7.09 -2.24,-10.15 -6.65,-6.56 -19.1,-13.5 -28.33,-16.82 -20.86,-7.5 -30.78,-4.51 -51.82,-2.16l-6.18 -6.1 6.41 -14.89c34.29,-0 29.1,-16.85 29.1,-47.46 24.57,-1.91 23.96,2.17 23.83,18.85 -0.11,14.68 3.76,9.69 23.52,18.9 5.48,2.56 9.89,6.77 15.56,2.47 8.34,-6.33 13.07,-20.63 24.91,-9.27 5.69,5.46 30.01,28.81 30.78,33.16 2.27,12.81 -18.18,15.69 -14.39,26.54 1.39,3.99 4.76,9.8 6.72,14.6 1.56,3.83 3.82,13.13 6.17,15.05 8.35,6.83 28.76,-7.87 28.8,14.48 0.01,6.7 0.7,37.73 -0.71,41.76 -4.71,13.48 -26.27,-1.12 -31.12,11.35 -2.16,5.55 -3.36,9.85 -5.84,15.41 -1.82,4.07 -6.6,10.51 -4.93,14.89 2.64,6.92 21.07,14.57 13.84,25.92 -2.82,4.43 -16.4,16.79 -21.03,21.45 -7.06,7.09 -13.83,18.56 -25.56,6.69 -14.68,-14.86 -11.25,-12.96 -25.67,-6.57 -5.28,2.34 -10.23,3.6 -15.6,5.65 -7.2,2.75 -5.51,8.97 -5.35,17.39zm-142.55 -162.38c-0.18,15.69 -3.31,13.04 -24.02,13.04 -17.47,0 -26.41,3.09 -26.57,-9.8 -0.26,-20.81 2.7,-15.87 -14.4,-22.84 -15.1,-6.15 -12.49,-10 -23.81,1.39 -10.15,10.22 -10.9,11.08 -21.45,0.47 -6.25,-6.28 -11.88,-11.91 -18.15,-18.15 -3.38,-3.36 -6.58,-7.52 -1.38,-12.68 12.93,-12.82 14.89,-11.86 9.42,-22.8 -1.99,-3.98 -3.62,-8.13 -5.13,-12.6 -2.17,-6.42 -2.46,-8.24 -10.06,-8.34 -4.91,-0.07 -13.69,1.27 -17.38,-1.42 -5.02,-3.65 -2.89,-25.38 -2.91,-33.25 -0.05,-20.79 3.31,-14.79 21.18,-15.86 6.64,-0.4 7.11,-4.01 8.95,-9.67 1.37,-4.22 3.25,-8.86 5.1,-12.64 5.88,-12 0.5,-9.96 -9.84,-21.88 -6.16,-7.1 2.68,-12.58 11.59,-21.51 6.09,-6.1 14.56,-17.01 20.39,-16.11 8.36,1.29 9.25,16.23 23.08,12.64 1.74,-2.78 10.53,-5.58 14.27,-6.97 6.99,-2.61 10.42,-1.95 10.6,-10.65 0.11,-5.66 -2.1,-14.81 3.59,-17.62 2.98,-1.47 15.83,-0.92 20.25,-0.92 25.08,0 26.71,-3.02 26.63,15.86 -0.06,14.54 2.82,7.3 23.94,18.42 15.79,8.32 16.21,-14.56 27.87,-10.33 2.77,1 18.55,17.57 21.85,20.86 12.37,12.33 10.38,12.4 -1.33,23.93 -7.48,7.37 -1.35,8.78 5.75,30.09 2.66,7.99 6.59,6.55 14.85,6.46 7.81,-0.08 12.09,0.55 12.41,8.76 2.18,56.36 -3.54,38.38 -21.9,42.04 -5.65,1.13 -6.11,7.37 -8.28,12.85 -6.85,17.27 -12.22,14.41 0.95,27.49 3.13,3.11 8.58,6.65 4.3,13.13 -1.8,2.73 -7.86,8.15 -10.51,10.79 -22.7,22.72 -18.35,22.01 -34.71,6.36 -5.38,-5.15 -7.52,-3.56 -14.12,-0.27 -20.52,10.21 -21.17,1.32 -21.01,21.71zm-63.87 -232.34c-4.35,1.01 -11.39,4.26 -15.05,6.2 -3.97,-5.92 -12.46,-12.4 -20.36,-12.4 -12.83,0 -20.77,11.48 -27.67,18.37 -6.48,6.48 -19.26,16.02 -19.26,27.67 0,13.83 12.4,20 12.4,22.14 0,1.8 -4.45,12.53 -5.31,14.17 -9.09,0 -15.08,-1 -20.9,3 -4.39,3.02 -9.2,8.63 -9.2,15.59l0 39.84c0,7.3 4.55,12.52 9.06,15.73 5.62,4 12.7,3.75 21.93,3.75 1.64,3.09 4.45,9.59 5.31,13.28 -5.69,8.49 -13.28,8.51 -13.28,23.02 0,10.48 12.87,20.4 18.82,26.34 9.3,9.3 14.66,18.81 29,18.81 10.96,0 15,-9.1 21.25,-13.28 3.58,1.89 8.92,4.3 13.28,5.31 0,13.6 -1.98,20.48 9.74,28.33 0,15.73 -3.35,39.18 15.76,45.34 3.81,1.23 14.89,0.71 20.54,0.71l7.08 17.71c-5.59,3.75 -15.94,14 -15.94,23.02 0,9.3 2.06,13.82 8.61,20.6 4.39,4.54 8.39,8.35 12.86,12.82 6.93,6.93 18.4,21.47 30.77,21.47 14.27,0 17.97,-10.78 25.68,-15.94 5.98,1.39 10.14,5.64 16.82,6.2 0,12.24 -1.47,21.49 6.7,29.61 3.6,3.57 8.86,6.7 14.55,6.7l46.04 0c7.51,0 14.66,-5.73 17.45,-10.88 3.93,-7.26 3.8,-13.83 3.8,-24.53 7.08,-1.65 13.1,-5.33 16.82,-6.2 5.22,3.5 21.52,27.89 42.73,6.42l26.56 -26.56c21.11,-20.85 -2.08,-36.67 -5.54,-41.84 1.06,-4.57 5.34,-11.12 7.08,-18.59 11,0 15.95,1.24 23.23,-3.34 4.82,-3.03 10.42,-9.62 10.42,-17.03l0 -45.16c0,-8.5 -4.26,-14.43 -9.53,-17.92 -7.85,-5.21 -11.13,-4.22 -23.23,-4.22 -1.13,-4.84 -5.75,-15.29 -7.97,-19.48 6.07,-4.07 14.17,-12.94 14.17,-23.02 0,-12.68 -14.02,-23.31 -21.03,-30.33 -13.53,-13.53 -17.18,-21.91 -34.75,-21.91 -7.88,0 -16.25,8.46 -19.48,13.28 -6.7,-1.56 -12.78,-6.53 -19.48,-7.08 0,-6.24 -0.06,-10.98 -1.25,-16.46 -3.97,-18.36 -23.02,-17.19 -36.83,-17.19 -2.99,-6.23 -3.03,-8.87 -9.21,-12.93 -5.87,-3.86 -10.2,-3.01 -19.13,-3.01 -1.17,-5.04 -4,-10.9 -6.2,-15.05 5.74,-8.57 11.51,-7.85 11.51,-22.14 0,-10.48 -12.87,-20.4 -18.81,-26.34 -6.42,-6.42 -15.65,-18.82 -27.23,-18.82 -12.71,0 -13.26,6.75 -20.36,11.51 -4.96,-1.15 -9.26,-4.83 -15.05,-5.31 0,-9.34 -0.16,-13.85 -3.88,-20.03 -2.72,-4.52 -8.81,-9.19 -15.6,-9.19l-39.84 0c-6.94,0 -12.1,4.57 -15.22,8.69 -4.3,5.68 -3.38,11.19 -3.38,20.53z"/>
   <path class="fil1" d="M340.93 232.81c0.61,3.69 1.4,3.17 3.7,6.07 1.39,1.74 1.99,3.25 3.81,4.14 10.54,0.58 9.93,3.65 13.78,13.66 2.71,7.02 4.62,14.88 5.32,23.08 1.52,17.91 -2.08,33 -9.08,46.81 -37.44,73.86 -146.28,57.39 -162.04,-22.63 -3.89,-19.77 -0.57,-31.02 4.25,-48.11l-4.13 -3.96 -9.73 4.29c-7.09,10.93 0.06,52.78 3.71,65.05 5.8,19.52 15.51,35.72 25.71,48.69 17.98,22.87 51.67,49.08 95.54,54.05 -0.16,-8.42 -1.85,-14.64 5.35,-17.39 5.37,-2.05 10.33,-3.31 15.6,-5.65 14.42,-6.39 10.99,-8.28 25.67,6.57 11.73,11.87 18.51,0.4 25.56,-6.69 4.63,-4.65 18.21,-17.01 21.03,-21.45 7.23,-11.35 -11.21,-19 -13.84,-25.92 -1.67,-4.38 3.11,-10.82 4.93,-14.89 2.48,-5.56 3.69,-9.86 5.84,-15.41 4.85,-12.47 26.41,2.13 31.12,-11.35 1.41,-4.03 0.72,-35.06 0.71,-41.76 -0.04,-22.35 -20.44,-7.65 -28.8,-14.48 -2.35,-1.92 -4.61,-11.22 -6.17,-15.05 -1.96,-4.8 -5.33,-10.61 -6.72,-14.6 -3.78,-10.85 16.66,-13.73 14.39,-26.54 -0.77,-4.35 -25.09,-27.71 -30.78,-33.16 -11.84,-11.36 -16.56,2.94 -24.91,9.27 -5.66,4.3 -10.07,0.09 -15.56,-2.47 -19.76,-9.22 -23.63,-4.22 -23.52,-18.9 0.13,-16.68 0.74,-20.76 -23.83,-18.85 0,30.61 5.19,47.46 -29.1,47.46l-6.41 14.89 6.18 6.1c21.04,-2.35 30.96,-5.34 51.82,2.16 9.24,3.32 21.69,10.26 28.33,16.82 3.1,3.06 4.07,4.94 2.24,10.15z"/>
   <path class="fil2" d="M183.68 86.89c1.35,2.08 2.96,3.12 4.76,4.45 1.12,0.83 2.11,1.42 2.97,2.35 1.88,2.01 0.88,0.62 1.96,2.96 6.55,-3.3 8.42,-1.83 11.69,2.87 2.49,3.58 4.94,7.19 7.01,11.54 4.11,8.67 6.87,18.81 7.34,29.68 1.05,24.42 -8.54,40.62 -19.35,54.01 -4.04,5.01 -13.54,12.31 -21.06,16.14 -28.89,14.69 -61.28,10.1 -83.47,-8.91 -48.59,-41.63 -28.55,-120.13 34.32,-132.27 10.97,-2.12 22.71,-1.56 33.1,1.14 4.82,1.25 9.39,2.89 13.69,4.88 6.09,2.82 6.92,3.76 7.04,11.16zm-89.83 -37.33c-50.05,55.55 -43.87,137.27 13.25,185.09 13.68,11.45 38.18,24.28 62.13,26.9 -0.17,-20.39 0.48,-11.49 21.01,-21.71 6.6,-3.29 8.74,-4.88 14.12,0.27 16.36,15.65 12.01,16.36 34.71,-6.36 2.64,-2.65 8.71,-8.06 10.51,-10.79 4.28,-6.49 -1.17,-10.02 -4.3,-13.13 -13.16,-13.08 -7.79,-10.22 -0.95,-27.49 2.17,-5.48 2.62,-11.73 8.28,-12.85 18.36,-3.66 24.08,14.31 21.9,-42.04 -0.32,-8.21 -4.6,-8.84 -12.41,-8.76 -8.26,0.08 -12.18,1.53 -14.85,-6.46 -7.1,-21.3 -13.23,-22.72 -5.75,-30.09 11.7,-11.52 13.7,-11.59 1.33,-23.93 -3.3,-3.29 -19.08,-19.86 -21.85,-20.86 -11.66,-4.23 -12.08,18.65 -27.87,10.33 -21.11,-11.13 -24,-3.88 -23.94,-18.42 0.08,-18.87 -1.55,-15.86 -26.63,-15.86 -4.42,0 -17.27,-0.55 -20.25,0.92 -5.69,2.81 -3.47,11.96 -3.59,17.62 -0.17,8.71 -3.61,8.05 -10.6,10.65 -3.74,1.4 -12.52,4.19 -14.27,6.97z"/>
   <path class="fil3" d="M169.23 261.56c-23.95,-2.62 -48.45,-15.45 -62.13,-26.9 -57.13,-47.83 -63.31,-129.54 -13.25,-185.09 -13.83,3.59 -14.72,-11.35 -23.08,-12.64 -5.83,-0.9 -14.31,10.01 -20.39,16.11 -8.9,8.93 -17.75,14.4 -11.59,21.51 10.34,11.92 15.72,9.88 9.84,21.88 -1.85,3.77 -3.73,8.42 -5.1,12.64 -1.83,5.66 -2.31,9.27 -8.95,9.67 -17.87,1.07 -21.23,-4.94 -21.18,15.86 0.02,7.87 -2.11,29.6 2.91,33.25 3.7,2.69 12.47,1.35 17.38,1.42 7.6,0.1 7.89,1.92 10.06,8.34 1.51,4.47 3.14,8.62 5.13,12.6 5.46,10.93 3.51,9.98 -9.42,22.8 -5.21,5.16 -2,9.32 1.38,12.68 6.27,6.24 11.9,11.87 18.15,18.15 10.54,10.61 11.3,9.75 21.45,-0.47 11.32,-11.4 8.71,-7.54 23.81,-1.39 17.1,6.96 14.14,2.03 14.4,22.84 0.16,12.89 9.1,9.8 26.57,9.8 20.71,0 23.84,2.65 24.02,-13.04z"/>
   <path class="fil4" d="M311.78 423.94c-43.87,-4.97 -77.56,-31.18 -95.54,-54.05 -10.2,-12.97 -19.91,-29.17 -25.71,-48.69 -3.65,-12.27 -10.79,-54.12 -3.71,-65.05 -5.43,1.41 -4.36,0.88 -4.24,7.66 0.17,9.66 -1.74,17.19 -11.11,21.9 -7.66,3.85 -31.88,2.29 -42.17,2.29 -0.69,5.05 -1.26,21.58 0.99,25.35 3.77,6.32 14.4,4.45 22.03,4.44 11.73,-0.01 9.81,3.93 13.4,13.21 1.38,3.56 7.56,15.85 7.72,17.98 0.7,9.63 -26.8,18.52 -14.14,31.81 8.63,9.05 17.29,17.24 26.11,26.14 4.31,4.35 10.28,10.17 17.25,2.04 17.01,-19.84 15.89,-13.47 33.33,-6.56 7.22,2.86 14.33,3.05 14.99,10.37 2.4,26.73 -5.52,27.17 25.27,27.17 7.76,0 19.19,0.68 26.51,-0.09 8.79,-0.92 8.75,-7.02 9.03,-15.91z"/>
   <path class="fil5" d="M273.7 241.4c27.91,-5.01 50.14,15.59 53.84,38.44 4.45,27.49 -14.9,49.32 -37.39,53.61 -28.64,5.47 -51.02,-15.08 -54.94,-38.32 -4.19,-24.88 12.24,-49.02 38.48,-53.73zm-47.15 21.42c-2.08,12.99 2.7,28.69 7.45,38.86 5.63,12.05 13.28,19.76 20.55,26.38 16.35,14.88 44.65,23.13 72.13,16.05 4.59,-1.34 13.3,-12.65 16.55,-17.69 13.08,-20.27 15.22,-48.89 3.95,-70.61 -4.11,-7.92 -2.03,-7.32 1.25,-12.79 -1.82,-0.89 -2.42,-2.41 -3.81,-4.14 -2.31,-2.89 -3.1,-2.38 -3.7,-6.07 -7.06,5.21 -10.58,0.3 -15.65,-3.82 -4.45,-3.61 -10.15,-6.81 -16.36,-9.33 -16.44,-6.66 -26.38,-5.8 -44.3,-3.55 -0.52,14.49 -5.1,15.62 -15.9,26.41 -4.84,4.83 -15.72,17.53 -22.17,20.29z"/>
   <path class="fil0" d="M193.37 96.65c-5.16,8.32 4.36,11.16 9.83,28.63 3.62,11.57 3.69,24.97 0.26,36.57 -3.34,11.3 -9.59,20.26 -16.02,26.48 -4.35,4.21 -18.1,15.39 -27.24,14.99l-5.41 1.95c-14.98,2.53 -31.18,-0.44 -43.58,-8.38 -28.78,-18.44 -37.98,-55.31 -21.24,-83.89 6.31,-10.77 19.81,-24.84 34.85,-27.87 6.17,-4 23.22,-3.7 31.29,-2.14 5.04,0.97 9.86,2.62 14.03,4.54 9.09,4.18 7.31,3.25 13.52,-0.63 -0.12,-7.4 -0.95,-8.34 -7.04,-11.16 -4.3,-1.99 -8.87,-3.63 -13.69,-4.88 -10.39,-2.7 -22.12,-3.26 -33.1,-1.14 -62.88,12.14 -82.91,90.64 -34.32,132.27 22.18,19.01 54.58,23.6 83.47,8.91 7.52,-3.83 17.02,-11.13 21.06,-16.14 10.81,-13.39 20.4,-29.59 19.35,-54.01 -0.47,-10.87 -3.23,-21.01 -7.34,-29.68 -2.07,-4.36 -4.52,-7.96 -7.01,-11.54 -3.27,-4.7 -5.14,-6.17 -11.69,-2.87z"/>
   <path class="fil1" d="M124.84 85.13c-6.41,7.47 -10.57,10.83 -15.69,21.39 -1.47,3.02 -10.16,26.93 -5.57,28.51 4.92,-16.92 17.09,-30.84 37.23,-32.22 44.04,-3.02 60.55,54.15 24.99,76.26 -27.41,17.05 -50.1,-5.13 -51.54,-5.53 -1.38,0.6 -1.68,-1.08 0.32,2.11l6.87 8.37c2.46,2.75 6.69,6.37 10.45,9.04 6.2,4.41 18.9,11.33 28.32,10.27 9.14,0.41 22.89,-10.78 27.24,-14.99 6.43,-6.22 12.68,-15.18 16.02,-26.48 3.43,-11.59 3.36,-24.99 -0.26,-36.57 -5.47,-17.48 -15,-20.32 -9.83,-28.63 -1.08,-2.34 -0.08,-0.95 -1.96,-2.96 -0.87,-0.92 -1.86,-1.52 -2.97,-2.35 -1.8,-1.33 -3.42,-2.37 -4.76,-4.45 -6.2,3.88 -4.42,4.81 -13.52,0.63 -4.17,-1.92 -8.99,-3.56 -14.03,-4.54 -8.07,-1.56 -25.12,-1.86 -31.29,2.14z"/>
   <path class="fil0" d="M280.68 254.11c18.13,0 33.65,14.88 33.65,30.99l0 4.43c0,21.48 -24.95,38.48 -47.24,27.76 -5.55,-2.67 -5.65,-3.16 -9.66,-7.16 -12.75,-12.73 -11.99,-33.69 0.42,-46.09 4.67,-4.66 13.89,-9.92 22.84,-9.92zm-6.98 -12.72c-26.24,4.71 -42.68,28.85 -38.48,53.73 3.92,23.24 26.3,43.79 54.94,38.32 22.48,-4.29 41.84,-26.12 37.39,-53.61 -3.7,-22.85 -25.93,-43.45 -53.84,-38.44z"/>
   <path class="fil6" d="M326.69 344.11c-27.48,7.08 -55.78,-1.17 -72.13,-16.05 -7.27,-6.62 -14.92,-14.32 -20.55,-26.38 -4.75,-10.17 -9.54,-25.87 -7.45,-38.86 -7.01,2.85 -8.03,0.88 -14.56,1.39 -15.23,52.64 23.25,97.76 71.34,96.44 15.08,-0.41 36.98,-7.82 43.35,-16.54z"/>
   <path class="fil0" d="M171.77 143.44c0,15.23 -12.3,28.33 -27.45,28.33 -25.22,0 -38.38,-30.98 -18.01,-49 17.68,-15.64 45.45,-1.19 45.45,20.66zm-68.19 -8.41c-1.08,8.4 -1.62,14.15 1.25,22.22 2.95,8.29 5.96,10.45 9.43,16.29 1.44,0.4 24.13,22.59 51.54,5.53 35.56,-22.12 19.05,-79.28 -24.99,-76.26 -20.14,1.38 -32.31,15.3 -37.23,32.22z"/>
   <path class="fil4" d="M160.21 203.33c-9.43,1.06 -22.12,-5.86 -28.32,-10.27 -3.75,-2.67 -7.98,-6.29 -10.45,-9.04l-6.87 -8.37c-2,-3.19 -1.7,-1.52 -0.32,-2.11 -3.47,-5.84 -6.48,-8 -9.43,-16.29 -2.87,-8.07 -2.33,-13.82 -1.25,-22.22 -4.59,-1.58 4.1,-25.49 5.57,-28.51 5.12,-10.55 9.28,-13.92 15.69,-21.39 -15.05,3.03 -28.55,17.1 -34.85,27.87 -16.74,28.58 -7.54,65.45 21.24,83.89 12.4,7.95 28.6,10.92 43.58,8.38l5.41 -1.95z"/>
  </g>
 </g>
</svg>
