<?xml version="1.0" encoding="UTF-8"?>
<!DOCTYPE svg PUBLIC "-//W3C//DTD SVG 1.1//EN" "http://www.w3.org/Graphics/SVG/1.1/DTD/svg11.dtd">
<!-- Creator: CorelDRAW 2020 (64-Bit) -->
<svg xmlns="http://www.w3.org/2000/svg" xml:space="preserve" width="10.5108mm" height="9.037mm" version="1.1" style="shape-rendering:geometricPrecision; text-rendering:geometricPrecision; image-rendering:optimizeQuality; fill-rule:evenodd; clip-rule:evenodd"
viewBox="0 0 17.34 14.91"
 xmlns:xlink="http://www.w3.org/1999/xlink"
 xmlns:xodm="http://www.corel.com/coreldraw/odm/2003">
 <defs>
  <style type="text/css">
   <![CDATA[
    .fil1 {fill:black}
    .fil4 {fill:#9CC33C}
    .fil3 {fill:#9EC53C}
    .fil2 {fill:#AAD440}
    .fil0 {fill:#C1EC56}
   ]]>
  </style>
 </defs>
 <g id="Capa_x0020_1">
  <metadata id="CorelCorpID_0Corel-Layer"/>
  <path class="fil0" d="M6.26 7.82c-0.18,-1.48 0.93,-2.65 2.21,-2.8 1.48,-0.17 2.66,0.94 2.8,2.23 0.16,1.49 -0.94,2.65 -2.26,2.79 -1.47,0.16 -2.61,-0.95 -2.76,-2.22zm-2.58 -0.14c-0.2,-1.07 1.39,-1.35 1.6,-0.33 0.21,1.08 -1.4,1.37 -1.6,0.33zm8.57 -0.03c-0.16,-1.06 1.43,-1.3 1.61,-0.27 0.18,1.09 -1.45,1.33 -1.61,0.27zm-9.77 -2.03l0 3.82c0.55,0.17 0.87,0.45 1.01,1.02l10.54 0c0.14,-0.52 0.47,-0.91 1.02,-1.01l0 -3.83c-0.75,-0.34 -0.68,-0.28 -1.03,-1.01l-10.46 -0.01c-0.23,0.05 0.07,0.6 -1.08,1.02z"/>
  <path class="fil1" d="M4.37 14.34l-1.42 -2.43c0.49,-0.01 0.36,-0.12 0.75,0.57 0.12,0.22 0.19,0.47 0.52,0.34 0.9,-0.37 0.94,0.44 1.3,0.42 0.13,-0.01 1.04,-0.56 1.23,-0.67 0.25,-0.14 1.05,-0.67 1.28,-0.67l0.54 0.01c-0.07,0.08 -4.01,2.38 -4.2,2.43zm12.97 -7.17l0 0.05c-0.01,0.18 -0.11,0.34 -0.35,0.49 -0.17,0.1 -0.33,0.19 -0.5,0.28 0,0.79 0,1.58 0,2.37 0,0.66 0.13,1.26 -0.31,1.49 -0.13,0.07 -0.31,0.07 -0.51,0.07 -1.58,-0.01 -3.16,-0 -4.74,-0 -1.42,0 -1.02,-0.17 -2.34,0.64l-3.37 1.95c-0.77,0.43 -1.02,0.71 -1.52,-0.19l-0.46 -0.79c-0.09,-0.16 -0.88,-1.48 -0.9,-1.6 -1.47,0 -1.33,-0.01 -1.32,-1.93 0,-0.42 -0.03,-0.36 -0.18,-0.63 -0.1,-0.19 -0.19,-0.34 -0.3,-0.52 -0.1,-0.17 -0.19,-0.34 -0.3,-0.52 -0.09,-0.16 -0.22,-0.35 -0.24,-0.54l0 -0.16c0.02,-0.1 0.06,-0.2 0.15,-0.29 0.13,-0.13 0.7,-0.44 0.86,-0.53 0,-0.78 0,-1.56 0,-2.34 0,-1.19 -0.01,-1.32 1.02,-1.32l5.28 -0c0.13,-0.02 3.85,-2.19 4.07,-2.33 0.25,-0.15 1.37,-0.82 1.52,-0.82 0.48,0 0.55,0.27 0.76,0.63l1.22 2.1c0.06,0.12 0.2,0.31 0.23,0.42 0.26,0 0.52,-0 0.78,-0 0.25,0 0.42,0.09 0.52,0.26 0.16,0.27 0.09,1.11 0.09,1.47 -0,0.49 -0.07,0.54 0.12,0.86 0.03,0.06 0.04,0.08 0.07,0.13 0.28,0.5 0.64,0.94 0.65,1.31zm-13.33 4.73l2.75 0 -1.17 0.7c-0.54,-0.42 -0.58,-0.45 -1.42,-0.38l-0.16 -0.33zm-2.4 -0.54c-0.04,-0.1 -0.08,-7.24 -0.02,-7.67l14.35 0.01c0.05,0.38 0.02,7.55 -0.01,7.66l-14.32 -0zm-1.06 -3.65c0.12,-0.06 0.36,-0.24 0.49,-0.26l-0 1.11c-0.07,-0.07 -0.46,-0.73 -0.49,-0.85zm15.96 -1.06l0.29 0.54 -0.31 0.16 0.02 -0.7zm-4.75 -4.36c0.56,0.42 0.56,0.44 1.41,0.38l0.27 0.47 -0.12 0.01 -2.88 0 -0.15 -0.02 1.47 -0.85zm1.23 -1.74l1.49 2.6c-0.49,0 -0.37,0.05 -0.6,-0.34 -0.35,-0.59 -0.38,-0.9 -0.81,-0.72 -0.33,0.14 -0.63,0.07 -0.84,-0.13 -0.5,-0.48 -0.1,-0.49 -2.1,0.64 -0.25,0.14 -0.84,0.55 -1.11,0.55 -0.17,0 -0.37,0.02 -0.53,-0.02l4.5 -2.58z"/>
  <path class="fil1" d="M2.48 5.62c1.15,-0.42 0.85,-0.97 1.08,-1.02l10.46 0.01c0.35,0.73 0.28,0.67 1.03,1.01l-0 3.83c-0.55,0.11 -0.87,0.49 -1.02,1.01l-10.54 -0c-0.14,-0.57 -0.47,-0.84 -1.01,-1.02l0 -3.82zm0.66 -1.54c-0.3,0.15 0,0.45 -0.45,0.84 -0.35,0.29 -0.74,0.01 -0.75,0.52 -0.02,1.23 0,2.6 0,3.86 -0,0.83 0.04,0.49 0.57,0.71 0.47,0.19 0.44,0.66 0.49,0.8 0.06,0.21 0.25,0.19 0.45,0.19 1.23,-0.01 10.74,0.04 10.92,-0.02 0.25,-0.09 0.1,-0.54 0.45,-0.84 0.33,-0.29 0.76,-0.02 0.77,-0.52 0.04,-1.13 -0,-2.66 -0,-3.86 0,-0.86 -0.04,-0.5 -0.57,-0.72 -0.47,-0.19 -0.43,-0.61 -0.49,-0.8 -0.08,-0.28 -0.63,-0.19 -1.11,-0.19 -1.02,0 -10.11,-0.04 -10.27,0.03z"/>
  <path class="fil2" d="M3.14 4.09c0.15,-0.07 9.24,-0.03 10.27,-0.03 0.49,0 1.03,-0.09 1.11,0.19 0.05,0.18 0.02,0.6 0.49,0.8 0.54,0.22 0.58,-0.14 0.57,0.72 -0,1.21 0.04,2.74 0,3.86 -0.02,0.5 -0.44,0.23 -0.77,0.52 -0.34,0.3 -0.19,0.75 -0.45,0.84 -0.18,0.06 -9.68,0.02 -10.92,0.02 -0.2,0 -0.39,0.02 -0.45,-0.19 -0.04,-0.14 -0.02,-0.61 -0.49,-0.8 -0.53,-0.21 -0.57,0.13 -0.57,-0.71 0,-1.26 -0.03,-2.63 -0,-3.86 0.01,-0.51 0.41,-0.23 0.75,-0.52 0.46,-0.39 0.15,-0.69 0.45,-0.84zm-1.54 7.28l14.32 0c0.03,-0.11 0.06,-7.28 0.01,-7.66l-14.35 -0.01c-0.06,0.42 -0.02,7.56 0.02,7.67z"/>
  <path class="fil2" d="M9.06 8.93c-0.05,0.14 -0.05,0.26 -0.15,0.32 -0.11,0.07 -0.27,0.04 -0.34,-0.03 -0.14,-0.15 0.02,-0.23 -0.16,-0.31 -0.13,-0.06 -0.15,-0.04 -0.3,-0.14 -0.77,-0.56 -0.13,-1.15 0.12,-0.73 0.08,0.13 0.07,0.2 0.19,0.29 0.29,0.22 1.02,0.07 0.79,-0.31 -0.16,-0.25 -0.9,-0.17 -1.22,-0.57 -0.36,-0.46 -0.09,-1.02 0.3,-1.21 0.26,-0.12 0.16,0.01 0.23,-0.24 0.08,-0.28 0.42,-0.25 0.49,-0.04 0.09,0.24 -0.09,0.16 0.18,0.26 0.7,0.28 0.64,1.09 0.15,0.86 -0.21,-0.1 -0.11,-0.37 -0.51,-0.41 -0.3,-0.03 -0.49,0.1 -0.46,0.41 0.08,0.16 0.57,0.22 0.73,0.27 0.26,0.08 0.47,0.23 0.59,0.43 0.14,0.25 0.12,0.58 -0.02,0.8 -0.13,0.19 -0.32,0.31 -0.61,0.38zm-2.27 -1.2c0.1,1.01 1,1.89 2.15,1.78 1.04,-0.09 1.9,-1 1.8,-2.16 -0.09,-1.03 -1.02,-1.91 -2.17,-1.79 -1.02,0.1 -1.89,1.02 -1.78,2.17z"/>
  <path class="fil1" d="M6.79 7.72c-0.12,-1.15 0.76,-2.07 1.78,-2.17 1.15,-0.11 2.08,0.76 2.17,1.79 0.1,1.16 -0.77,2.06 -1.8,2.16 -1.15,0.1 -2.04,-0.77 -2.15,-1.78zm-0.53 0.1c0.15,1.27 1.29,2.37 2.76,2.22 1.31,-0.14 2.42,-1.3 2.26,-2.79 -0.14,-1.29 -1.32,-2.4 -2.8,-2.23 -1.28,0.15 -2.39,1.32 -2.21,2.8z"/>
  <path class="fil1" d="M9.06 8.93c0.29,-0.07 0.48,-0.19 0.61,-0.38 0.15,-0.22 0.17,-0.55 0.02,-0.8 -0.11,-0.2 -0.33,-0.35 -0.59,-0.43 -0.17,-0.05 -0.65,-0.11 -0.73,-0.27 -0.03,-0.3 0.17,-0.44 0.46,-0.41 0.4,0.04 0.3,0.31 0.51,0.41 0.48,0.22 0.55,-0.58 -0.15,-0.86 -0.27,-0.11 -0.09,-0.02 -0.18,-0.26 -0.08,-0.21 -0.41,-0.23 -0.49,0.04 -0.08,0.26 0.03,0.12 -0.23,0.24 -0.39,0.19 -0.66,0.75 -0.3,1.21 0.32,0.41 1.07,0.32 1.22,0.57 0.24,0.38 -0.5,0.53 -0.79,0.31 -0.11,-0.09 -0.11,-0.16 -0.19,-0.29 -0.25,-0.42 -0.89,0.18 -0.12,0.73 0.15,0.11 0.16,0.08 0.3,0.14 0.18,0.09 0.02,0.17 0.16,0.31 0.07,0.08 0.23,0.1 0.34,0.03 0.11,-0.07 0.1,-0.18 0.15,-0.32z"/>
  <path class="fil3" d="M8.48 3.13c0.16,0.04 0.36,0.03 0.53,0.02 0.27,-0.01 0.86,-0.41 1.11,-0.55 2,-1.13 1.6,-1.11 2.1,-0.64 0.22,0.21 0.52,0.27 0.84,0.13 0.42,-0.18 0.46,0.13 0.81,0.72 0.23,0.39 0.11,0.34 0.6,0.34l-1.49 -2.6 -4.5 2.58z"/>
  <path class="fil3" d="M4.37 14.34c0.19,-0.06 4.13,-2.35 4.2,-2.43l-0.54 -0.01c-0.23,0 -1.03,0.53 -1.28,0.67 -0.19,0.11 -1.1,0.66 -1.23,0.67 -0.35,0.02 -0.4,-0.79 -1.3,-0.42 -0.33,0.14 -0.4,-0.12 -0.52,-0.34 -0.39,-0.69 -0.26,-0.59 -0.75,-0.57l1.42 2.43z"/>
  <path class="fil1" d="M12.98 7.27c0.34,-0.12 0.47,0.43 0.15,0.51 -0.34,0.09 -0.51,-0.39 -0.15,-0.51zm-0.73 0.38c0.16,1.06 1.79,0.82 1.61,-0.27 -0.17,-1.03 -1.76,-0.79 -1.61,0.27z"/>
  <path class="fil1" d="M4.41 7.27c0.35,-0.1 0.45,0.44 0.16,0.52 -0.36,0.1 -0.52,-0.41 -0.16,-0.52zm-0.73 0.42c0.2,1.04 1.81,0.76 1.6,-0.33 -0.2,-1.02 -1.8,-0.74 -1.6,0.33z"/>
  <path class="fil0" d="M10.28 3.14l0.15 0.02 2.88 -0 0.12 -0.01 -0.27 -0.47c-0.86,0.07 -0.86,0.04 -1.41,-0.38l-1.47 0.85z"/>
  <path class="fil0" d="M4.17 12.23c0.84,-0.07 0.87,-0.04 1.42,0.38l1.17 -0.7 -2.75 -0 0.16 0.33z"/>
  <path class="fil4" d="M0.54 7.71c0.03,0.13 0.42,0.78 0.49,0.85l0 -1.11c-0.13,0.02 -0.37,0.19 -0.49,0.26z"/>
  <path class="fil2" d="M4.41 7.27c-0.37,0.1 -0.21,0.61 0.16,0.52 0.29,-0.08 0.2,-0.61 -0.16,-0.52z"/>
  <path class="fil2" d="M12.98 7.27c-0.36,0.12 -0.19,0.6 0.15,0.51 0.32,-0.09 0.19,-0.63 -0.15,-0.51z"/>
  <polygon class="fil3" points="16.49,7.35 16.8,7.19 16.51,6.65 "/>
 </g>
</svg>
