<?xml version="1.0" encoding="UTF-8"?>
<!DOCTYPE svg PUBLIC "-//W3C//DTD SVG 1.1//EN" "http://www.w3.org/Graphics/SVG/1.1/DTD/svg11.dtd">
<!-- Creator: CorelDRAW 2020 (64-Bit) -->
<svg xmlns="http://www.w3.org/2000/svg" xml:space="preserve" width="19.5722mm" height="19.5723mm" version="1.1" style="shape-rendering:geometricPrecision; text-rendering:geometricPrecision; image-rendering:optimizeQuality; fill-rule:evenodd; clip-rule:evenodd"
viewBox="0 0 4.23 4.23"
 xmlns:xlink="http://www.w3.org/1999/xlink"
 xmlns:xodm="http://www.corel.com/coreldraw/odm/2003">
 <defs>
  <style type="text/css">
   <![CDATA[
    .fil2 {fill:black}
    .fil5 {fill:#9CC33C}
    .fil4 {fill:#9EC53C}
    .fil3 {fill:#AAD440}
    .fil1 {fill:#C1EC56}
    .fil0 {fill:#EBECF1}
   ]]>
  </style>
 </defs>
 <g id="Capa_x0020_1">
  <metadata id="CorelCorpID_0Corel-Layer"/>
  <circle class="fil0" cx="2.12" cy="2.12" r="2.12"/>
  <g id="_2768117067312">
   <path class="fil1" d="M1.7 2.08c-0.03,-0.29 0.18,-0.51 0.43,-0.54 0.29,-0.03 0.51,0.18 0.54,0.43 0.03,0.29 -0.18,0.51 -0.43,0.54 -0.28,0.03 -0.5,-0.18 -0.53,-0.43zm-0.5 -0.03c-0.04,-0.21 0.27,-0.26 0.31,-0.06 0.04,0.21 -0.27,0.26 -0.31,0.06zm1.65 -0.01c-0.03,-0.2 0.28,-0.25 0.31,-0.05 0.04,0.21 -0.28,0.26 -0.31,0.05zm-1.88 -0.39l0 0.74c0.11,0.03 0.17,0.09 0.2,0.2l2.03 0c0.03,-0.1 0.09,-0.17 0.2,-0.19l0 -0.74c-0.14,-0.07 -0.13,-0.05 -0.2,-0.2l-2.02 -0c-0.04,0.01 0.01,0.12 -0.21,0.2z"/>
   <path class="fil2" d="M1.34 3.34l-0.27 -0.47c0.09,-0 0.07,-0.02 0.14,0.11 0.02,0.04 0.04,0.09 0.1,0.06 0.17,-0.07 0.18,0.08 0.25,0.08 0.02,-0 0.2,-0.11 0.24,-0.13 0.05,-0.03 0.2,-0.13 0.25,-0.13l0.1 0c-0.01,0.02 -0.77,0.46 -0.81,0.47zm2.5 -1.38l0 0.01c-0,0.03 -0.02,0.07 -0.07,0.09 -0.03,0.02 -0.06,0.04 -0.1,0.05 0,0.15 0,0.3 0,0.46 0,0.13 0.03,0.24 -0.06,0.29 -0.02,0.01 -0.06,0.01 -0.1,0.01 -0.3,-0 -0.61,-0 -0.91,-0 -0.27,0 -0.2,-0.03 -0.45,0.12l-0.65 0.38c-0.15,0.08 -0.2,0.14 -0.29,-0.04l-0.09 -0.15c-0.02,-0.03 -0.17,-0.29 -0.17,-0.31 -0.28,0 -0.26,-0 -0.25,-0.37 0,-0.08 -0,-0.07 -0.03,-0.12 -0.02,-0.04 -0.04,-0.07 -0.06,-0.1 -0.02,-0.03 -0.04,-0.07 -0.06,-0.1 -0.02,-0.03 -0.04,-0.07 -0.05,-0.1l0 -0.03c0,-0.02 0.01,-0.04 0.03,-0.06 0.02,-0.03 0.13,-0.08 0.17,-0.1 0,-0.15 0,-0.3 0,-0.45 0,-0.23 -0,-0.25 0.2,-0.25l1.02 -0c0.03,-0 0.74,-0.42 0.78,-0.45 0.05,-0.03 0.26,-0.16 0.29,-0.16 0.09,0 0.11,0.05 0.15,0.12l0.23 0.41c0.01,0.02 0.04,0.06 0.04,0.08 0.05,0 0.1,-0 0.15,-0 0.05,0 0.08,0.02 0.1,0.05 0.03,0.05 0.02,0.21 0.02,0.28 0,0.09 -0.01,0.1 0.02,0.17 0.01,0.01 0.01,0.01 0.01,0.03 0.05,0.1 0.12,0.18 0.13,0.25zm-2.57 0.91l0.53 0 -0.23 0.14c-0.1,-0.08 -0.11,-0.09 -0.27,-0.07l-0.03 -0.06zm-0.46 -0.1c-0.01,-0.02 -0.02,-1.4 -0,-1.48l2.76 0c0.01,0.07 0,1.45 -0,1.48l-2.76 -0zm-0.2 -0.7c0.02,-0.01 0.07,-0.05 0.09,-0.05l-0 0.21c-0.01,-0.01 -0.09,-0.14 -0.09,-0.16zm3.08 -0.2l0.06 0.1 -0.06 0.03 0 -0.13zm-0.92 -0.84c0.11,0.08 0.11,0.09 0.27,0.07l0.05 0.09 -0.02 0 -0.55 0 -0.03 -0 0.28 -0.16zm0.24 -0.34l0.29 0.5c-0.09,0 -0.07,0.01 -0.11,-0.06 -0.07,-0.11 -0.07,-0.17 -0.16,-0.14 -0.06,0.03 -0.12,0.01 -0.16,-0.03 -0.1,-0.09 -0.02,-0.1 -0.41,0.12 -0.05,0.03 -0.16,0.11 -0.21,0.11 -0.03,0 -0.07,0 -0.1,-0l0.87 -0.5z"/>
   <path class="fil2" d="M0.98 1.66c0.22,-0.08 0.16,-0.19 0.21,-0.2l2.02 0c0.07,0.14 0.05,0.13 0.2,0.2l-0 0.74c-0.11,0.02 -0.17,0.09 -0.2,0.19l-2.03 -0c-0.03,-0.11 -0.09,-0.16 -0.2,-0.2l0 -0.74zm0.13 -0.3c-0.06,0.03 0,0.09 -0.09,0.16 -0.07,0.06 -0.14,0 -0.15,0.1 -0,0.24 0,0.5 0,0.74 -0,0.16 0.01,0.1 0.11,0.14 0.09,0.04 0.09,0.13 0.09,0.15 0.01,0.04 0.05,0.04 0.09,0.04 0.24,-0 2.07,0.01 2.1,-0 0.05,-0.02 0.02,-0.1 0.09,-0.16 0.06,-0.06 0.15,-0 0.15,-0.1 0.01,-0.22 -0,-0.51 -0,-0.74 0,-0.17 -0.01,-0.1 -0.11,-0.14 -0.09,-0.04 -0.08,-0.12 -0.09,-0.15 -0.02,-0.05 -0.12,-0.04 -0.21,-0.04 -0.2,0 -1.95,-0.01 -1.98,0.01z"/>
   <path class="fil3" d="M1.1 1.36c0.03,-0.01 1.78,-0.01 1.98,-0.01 0.09,0 0.2,-0.02 0.21,0.04 0.01,0.04 0,0.12 0.09,0.15 0.1,0.04 0.11,-0.03 0.11,0.14 -0,0.23 0.01,0.53 0,0.74 -0,0.1 -0.08,0.04 -0.15,0.1 -0.07,0.06 -0.04,0.14 -0.09,0.16 -0.03,0.01 -1.87,0 -2.1,0 -0.04,0 -0.08,0 -0.09,-0.04 -0.01,-0.03 -0,-0.12 -0.09,-0.15 -0.1,-0.04 -0.11,0.02 -0.11,-0.14 0,-0.24 -0,-0.51 -0,-0.74 0,-0.1 0.08,-0.05 0.15,-0.1 0.09,-0.07 0.03,-0.13 0.09,-0.16zm-0.3 1.4l2.76 0c0.01,-0.02 0.01,-1.4 0,-1.48l-2.76 -0c-0.01,0.08 -0,1.46 0,1.48z"/>
   <path class="fil3" d="M2.24 2.3c-0.01,0.03 -0.01,0.05 -0.03,0.06 -0.02,0.01 -0.05,0.01 -0.07,-0.01 -0.03,-0.03 0,-0.04 -0.03,-0.06 -0.03,-0.01 -0.03,-0.01 -0.06,-0.03 -0.15,-0.11 -0.02,-0.22 0.02,-0.14 0.01,0.02 0.01,0.04 0.04,0.06 0.06,0.04 0.2,0.01 0.15,-0.06 -0.03,-0.05 -0.17,-0.03 -0.24,-0.11 -0.07,-0.09 -0.02,-0.2 0.06,-0.23 0.05,-0.02 0.03,0 0.04,-0.05 0.02,-0.05 0.08,-0.05 0.1,-0.01 0.02,0.05 -0.02,0.03 0.03,0.05 0.14,0.05 0.12,0.21 0.03,0.17 -0.04,-0.02 -0.02,-0.07 -0.1,-0.08 -0.06,-0.01 -0.09,0.02 -0.09,0.08 0.02,0.03 0.11,0.04 0.14,0.05 0.05,0.02 0.09,0.04 0.11,0.08 0.03,0.05 0.02,0.11 -0,0.15 -0.02,0.04 -0.06,0.06 -0.12,0.07zm-0.44 -0.23c0.02,0.2 0.19,0.36 0.41,0.34 0.2,-0.02 0.37,-0.19 0.35,-0.42 -0.02,-0.2 -0.2,-0.37 -0.42,-0.35 -0.2,0.02 -0.37,0.2 -0.34,0.42z"/>
   <path class="fil2" d="M1.81 2.07c-0.02,-0.22 0.15,-0.4 0.34,-0.42 0.22,-0.02 0.4,0.15 0.42,0.35 0.02,0.22 -0.15,0.4 -0.35,0.42 -0.22,0.02 -0.39,-0.15 -0.41,-0.34zm-0.1 0.02c0.03,0.24 0.25,0.46 0.53,0.43 0.25,-0.03 0.47,-0.25 0.43,-0.54 -0.03,-0.25 -0.25,-0.46 -0.54,-0.43 -0.25,0.03 -0.46,0.25 -0.43,0.54z"/>
   <path class="fil2" d="M2.24 2.3c0.06,-0.01 0.09,-0.04 0.12,-0.07 0.03,-0.04 0.03,-0.11 0,-0.15 -0.02,-0.04 -0.06,-0.07 -0.11,-0.08 -0.03,-0.01 -0.13,-0.02 -0.14,-0.05 -0.01,-0.06 0.03,-0.08 0.09,-0.08 0.08,0.01 0.06,0.06 0.1,0.08 0.09,0.04 0.11,-0.11 -0.03,-0.17 -0.05,-0.02 -0.02,-0 -0.03,-0.05 -0.02,-0.04 -0.08,-0.04 -0.1,0.01 -0.01,0.05 0.01,0.02 -0.04,0.05 -0.08,0.04 -0.13,0.14 -0.06,0.23 0.06,0.08 0.21,0.06 0.24,0.11 0.05,0.07 -0.1,0.1 -0.15,0.06 -0.02,-0.02 -0.02,-0.03 -0.04,-0.06 -0.05,-0.08 -0.17,0.03 -0.02,0.14 0.03,0.02 0.03,0.02 0.06,0.03 0.03,0.02 0,0.03 0.03,0.06 0.01,0.01 0.04,0.02 0.07,0.01 0.02,-0.01 0.02,-0.03 0.03,-0.06z"/>
   <path class="fil4" d="M2.13 1.18c0.03,0.01 0.07,0.01 0.1,0 0.05,-0 0.17,-0.08 0.21,-0.11 0.39,-0.22 0.31,-0.21 0.41,-0.12 0.04,0.04 0.1,0.05 0.16,0.03 0.08,-0.04 0.09,0.02 0.16,0.14 0.04,0.08 0.02,0.06 0.11,0.06l-0.29 -0.5 -0.87 0.5z"/>
   <path class="fil4" d="M1.34 3.34c0.04,-0.01 0.8,-0.45 0.81,-0.47l-0.1 -0c-0.04,0 -0.2,0.1 -0.25,0.13 -0.04,0.02 -0.21,0.13 -0.24,0.13 -0.07,0 -0.08,-0.15 -0.25,-0.08 -0.06,0.03 -0.08,-0.02 -0.1,-0.06 -0.07,-0.13 -0.05,-0.11 -0.14,-0.11l0.27 0.47z"/>
   <path class="fil2" d="M3 1.98c0.07,-0.02 0.09,0.08 0.03,0.1 -0.07,0.02 -0.1,-0.08 -0.03,-0.1zm-0.14 0.07c0.03,0.21 0.34,0.16 0.31,-0.05 -0.03,-0.2 -0.34,-0.15 -0.31,0.05z"/>
   <path class="fil2" d="M1.35 1.98c0.07,-0.02 0.09,0.08 0.03,0.1 -0.07,0.02 -0.1,-0.08 -0.03,-0.1zm-0.14 0.08c0.04,0.2 0.35,0.15 0.31,-0.06 -0.04,-0.2 -0.35,-0.14 -0.31,0.06z"/>
   <path class="fil1" d="M2.48 1.18l0.03 0 0.55 -0 0.02 -0 -0.05 -0.09c-0.16,0.01 -0.16,0.01 -0.27,-0.07l-0.28 0.16z"/>
   <path class="fil1" d="M1.3 2.93c0.16,-0.01 0.17,-0.01 0.27,0.07l0.23 -0.14 -0.53 -0 0.03 0.06z"/>
   <path class="fil5" d="M0.6 2.06c0.01,0.02 0.08,0.15 0.09,0.16l0 -0.21c-0.03,0 -0.07,0.04 -0.09,0.05z"/>
   <path class="fil3" d="M1.35 1.98c-0.07,0.02 -0.04,0.12 0.03,0.1 0.06,-0.02 0.04,-0.12 -0.03,-0.1z"/>
   <path class="fil3" d="M3 1.98c-0.07,0.02 -0.04,0.12 0.03,0.1 0.06,-0.02 0.04,-0.12 -0.03,-0.1z"/>
   <polygon class="fil4" points="3.68,1.99 3.74,1.96 3.68,1.86 "/>
  </g>
 </g>
</svg>
