<?xml version="1.0" encoding="UTF-8"?>
<!DOCTYPE svg PUBLIC "-//W3C//DTD SVG 1.1//EN" "http://www.w3.org/Graphics/SVG/1.1/DTD/svg11.dtd">
<!-- Creator: CorelDRAW 2020 (64-Bit) -->
<svg xmlns="http://www.w3.org/2000/svg" xml:space="preserve" width="123.224mm" height="94.7931mm" version="1.1" style="shape-rendering:geometricPrecision; text-rendering:geometricPrecision; image-rendering:optimizeQuality; fill-rule:evenodd; clip-rule:evenodd"
viewBox="0 0 72.02 55.4"
 xmlns:xlink="http://www.w3.org/1999/xlink"
 xmlns:xodm="http://www.corel.com/coreldraw/odm/2003">
 <defs>
  <style type="text/css">
   <![CDATA[
    .fil1 {fill:#114F0E}
    .fil0 {fill:#18CE0F}
   ]]>
  </style>
 </defs>
 <g id="Capa_x0020_1">
  <metadata id="CorelCorpID_0Corel-Layer"/>
  <rect class="fil0" y="-0" width="72.02" height="55.4" rx="5.27" ry="5.68"/>
  <path class="fil1" d="M26.68 13.32c4.52,-0.47 21.4,-0.34 25.77,0.78 2.57,0.66 3.61,2.3 4.19,4.78 0.83,3.57 0.83,13.12 0.16,16.85 -1.06,5.93 -4.73,6.09 -11.27,6.42 -5.76,0.29 -11.83,0.2 -17.58,0.02 -2.84,-0.09 -9.1,-0.26 -11.07,-2.42 -2.84,-3.12 -2.19,-16.48 -1.63,-20.03 1.06,-6.62 5.27,-5.76 11.44,-6.4zm21.43 17.47c-0.33,1.28 -0.42,2.36 -1.46,3.08 -1.07,0.74 -2.52,0.51 -3.39,-0.32 -1.51,-1.43 -1.62,-5.12 -1.16,-7.5 1.01,-5.18 4.8,-3.98 5.66,-1.56 0.55,1.54 -1.03,1.47 5.2,1.33 0.43,-1.46 -0.97,-5 -2.56,-6.42 -4.2,-3.74 -13.81,-2.84 -13.81,9.11 0,11.73 10.17,12.63 13.99,8.63 1.61,-1.68 2.15,-3.55 2.67,-6.41l-5.14 0.05zm-13.06 0.04c-0.95,-0.23 -3.93,-0.12 -5.05,-0.08 -0.46,2.03 -1.25,4.43 -4.05,3.33 -3.05,-1.19 -2.73,-9.75 -0.18,-11.32 0.97,-0.6 2.21,-0.29 2.97,0.38 1.08,0.96 0.83,1.53 1.27,2.65l4.89 0.03c0.54,-3.42 -3.07,-9.34 -9.34,-8.27 -9.31,1.58 -9.89,19.78 0.02,21.58 6.02,1.09 9.61,-4.11 9.47,-8.3zm26.86 16.2c0.28,-0.95 0.08,-16.69 0.08,-19.17 0,-4.57 -0.2,-15.67 0.04,-19.45l-52.05 -0.02c0.14,4.67 -0.35,37.67 0.16,38.93l51.78 -0.29z"/>
 </g>
</svg>
