<?xml version="1.0" encoding="UTF-8"?>
<!DOCTYPE svg PUBLIC "-//W3C//DTD SVG 1.1//EN" "http://www.w3.org/Graphics/SVG/1.1/DTD/svg11.dtd">
<!-- Creator: CorelDRAW 2020 (64-Bit) -->
<svg xmlns="http://www.w3.org/2000/svg" xml:space="preserve" width="93.0103mm" height="93.0565mm" version="1.1" style="shape-rendering:geometricPrecision; text-rendering:geometricPrecision; image-rendering:optimizeQuality; fill-rule:evenodd; clip-rule:evenodd"
viewBox="0 0 35.81 35.83"
 xmlns:xlink="http://www.w3.org/1999/xlink"
 xmlns:xodm="http://www.corel.com/coreldraw/odm/2003">
 <defs>
  <style type="text/css">
   <![CDATA[
    .fil0 {fill:black}
    .fil4 {fill:#9FD368}
    .fil1 {fill:#B3DC7E}
    .fil5 {fill:#E6E9ED}
    .fil2 {fill:#FBD670}
    .fil3 {fill:#FEC629}
   ]]>
  </style>
 </defs>
 <g id="Capa_x0020_1">
  <metadata id="CorelCorpID_0Corel-Layer"/>
  <g id="_1703076400064">
   <path class="fil0" d="M18.46 26.57c-0.65,8.12 -10.49,10.6 -15.07,5.2 -1.59,-1.87 -2.34,-3.77 -2.22,-6.43 0.17,-3.72 2.27,-5.44 4.36,-7.54 0.19,-0.19 0.31,-0.42 0.61,-0.47l6.5 -0c1.24,-0 0.92,-0.08 1.58,0.58 2.33,2.33 4.59,4.34 4.24,8.66zm-12.88 -11.49c0.29,-0.14 6.5,-0.06 7.71,-0.06 1.76,-0.01 1.06,0.98 0.81,1.1 -0.28,0.13 -6.54,0.05 -7.74,0.06 -0.43,0 -0.85,0.03 -1.04,-0.26 -0.26,-0.38 -0.03,-0.69 0.27,-0.84zm-0.17 -3.81c-0.38,-0.76 -1.21,-1.9 -0.52,-2.76 0.27,-0.34 0.92,-0.6 1.33,-0.21 0.3,0.29 0.47,0.67 1.02,0.85 1.56,0.53 1.9,-1.06 2.58,-1.05 0.65,0 1.06,1.64 2.63,1.03 0.59,-0.23 0.68,-0.63 1.05,-0.9 0.46,-0.34 1.05,0.03 1.28,0.32 0.84,1.11 -1.08,3.38 -1.83,5.31l-1.77 -0 0.92 -3.32 -1.11 -0.29 -0.8 2.82c-0.07,0.24 -0.23,1.22 -0.56,0.62l-0.98 -3.45 -1.13 0.3 0.96 3.33 -1.79 0c-0.3,-0.77 -0.89,-1.81 -1.28,-2.59zm18.72 -10.11l2.56 0.02 0.29 1.31c2.23,0.42 2.62,1.39 3.17,1.04 0.25,-0.16 0.65,-0.44 0.89,-0.53l1.78 1.77c-0.1,0.27 -0.39,0.66 -0.56,0.94 -0.27,0.45 0.68,1.07 1.07,3.11l1.32 0.3 -0.01 2.57 -1.31 0.29c-0.42,2.26 -1.4,2.61 -1.04,3.16 0.16,0.25 0.44,0.66 0.53,0.89l-1.77 1.78c-0.26,-0.09 -0.66,-0.39 -0.94,-0.56 -0.44,-0.27 -1.08,0.68 -3.11,1.07l-0.3 1.32 -2.56 -0.02 -0.29 -1.31c-2.24,-0.42 -2.61,-1.39 -3.16,-1.04 -0.25,0.16 -0.66,0.44 -0.89,0.53l-1.78 -1.77c0.1,-0.27 0.39,-0.66 0.56,-0.94 0.19,-0.31 -0.12,-0.6 -0.3,-0.93 -0.32,-0.59 -0.63,-1.44 -0.77,-2.17l-2.03 -0.5c0.06,-0.36 0.34,-0.76 0.49,-1.09 0.23,-0.52 0.16,-0.7 0.25,-1.26l1.29 -0.31c0.15,-0.76 0.45,-1.61 0.79,-2.23 0.21,-0.37 0.48,-0.57 0.25,-0.93 -0.16,-0.25 -0.44,-0.65 -0.53,-0.89l1.77 -1.78c0.29,0.1 0.65,0.4 0.94,0.56 0.33,0.18 0.56,-0.1 0.94,-0.3 0.61,-0.32 1.42,-0.63 2.17,-0.77l0.3 -1.32zm-1.24 0.36c-0.52,0.04 -1.07,0.32 -1.53,0.57 -0.47,0.26 -0.5,0.16 -0.99,-0.15 -0.24,-0.15 -0.57,-0.39 -0.88,-0.42 -0.09,0.25 0.02,0.03 -0.14,0.22l-0.18 0.18c-0.01,0.01 -0.03,0.03 -0.04,0.04l-0.81 0.78c-0.01,0.01 -0.02,0.03 -0.03,0.04l-0.07 0.07c-0.09,0.1 -0.12,0.12 -0.21,0.22l-0.74 0.78c-0.25,0.28 -0.54,0.48 -0.74,0.78 0.33,0.62 0.85,1.17 0.7,1.49 -0.25,0.55 -0.65,1.12 -0.7,1.76 -0.29,0.01 -0.48,0.09 -0.72,0.14 -0.41,-0.77 -1.23,-1.08 -2.09,-1.08 -1.02,0 -1.36,1.16 -1.88,1.16 -0.57,0 -0.69,-1.16 -2.17,-1.16 -1.02,0 -1.36,1.16 -1.88,1.16 -0.57,0 -0.69,-1.16 -2.17,-1.16 -1.11,0 -2.17,1.05 -2.17,2.17 0,1.11 0.41,1.77 0.87,2.67 0.19,0.39 0.98,1.8 1.01,2.17 -1.57,0.13 -1.61,2.7 -0.65,2.96 -0.09,0.35 -1.26,1.36 -1.57,1.68 -0.61,0.61 -1,1.02 -1.49,1.76 -0.49,0.74 -0.75,1.26 -1.1,2.15 -0.47,1.21 -0.54,2.66 -0.54,4.01 0,1.76 0.61,3.13 1.32,4.45 0.77,1.43 2.08,2.73 3.49,3.51 0.79,0.44 1.56,0.78 2.43,1.03 2.78,0.8 5.94,0.13 8.23,-1.46 0.5,-0.35 0.87,-0.68 1.29,-1.09 1.64,-1.64 2.87,-4.04 2.87,-6.44 0,-2.52 -0.26,-4.12 -1.57,-6.08 -0.59,-0.89 -2.37,-2.88 -3.12,-3.38 0.37,-0.56 0.65,-0.77 0.65,-1.59 0,-0.7 -0.66,-1.46 -1.3,-1.52 0.04,-0.52 0.46,-0.88 0.58,-1.37 0.44,0.1 1.19,0.36 1.66,0.36 0.05,0.65 0.44,1.18 0.7,1.76 0.18,0.4 -0.6,1.12 -0.7,1.56l0.76 0.76c0.14,0.14 0.22,0.22 0.36,0.36 0.09,0.09 0.12,0.11 0.18,0.18l0.39 0.41c0.01,0.01 0.03,0.02 0.04,0.03l0.14 0.15c0.34,0.36 0.79,0.89 1.17,1.14 0.44,-0.1 1.2,-0.87 1.56,-0.7l0.83 0.41c0.26,0.11 0.62,0.27 0.93,0.3 0,0.58 0.28,0.97 0.29,1.52l4.48 0c0.01,-0.54 0.29,-0.93 0.29,-1.52 0.31,-0.03 0.67,-0.19 0.93,-0.3l0.83 -0.4c0.18,-0.09 0.16,-0.09 0.35,0.02 0.41,0.22 0.72,0.57 1.2,0.68l3.05 -3.01c-0.13,-0.49 -0.44,-0.79 -0.67,-1.18 -0.22,-0.37 0.12,-0.65 0.36,-1.23 0.11,-0.26 0.27,-0.62 0.3,-0.93 0.54,0 0.98,-0.24 1.52,-0.29l0 -4.48c-0.54,-0.01 -0.93,-0.29 -1.52,-0.29 -0.03,-0.31 -0.19,-0.67 -0.3,-0.93l-0.41 -0.83c-0.18,-0.4 0.6,-1.12 0.71,-1.56l-3.01 -3.05c-0.57,0.15 -1.2,0.91 -1.58,0.72 -0.52,-0.27 -1.16,-0.65 -1.76,-0.7 0,-0.58 -0.28,-0.97 -0.29,-1.52l-4.48 0c-0.01,0.54 -0.29,0.93 -0.29,1.52z"/>
   <path class="fil1" d="M9.82 33.5l0 -1.16c1.64,-0.06 2.73,-0.49 3.79,-1.27 0.77,-0.57 1.86,-1.7 2.17,-2.96l1.1 0.37c-0.43,1.53 -1.62,2.78 -2.52,3.48 -1.11,0.86 -2.7,1.49 -4.54,1.53zm6.35 -7.51l1.17 0 -0.11 1.24 -1.12 -0.17 0.07 -1.07zm-13.79 -1.23l1.13 0.17 -0.04 1.06 -1.17 -0 0.08 -1.23zm6.29 -0.72c0,0.64 0.22,1 0.59,1.22 0.38,0.22 1.01,0.14 1.52,0.36 0.37,0.16 0.77,0.56 0.97,0.83 0.55,0.78 0.38,2.44 0.38,3.59l-1.73 0 -0 1.16 -1.15 0 0 -1.25c-1,-0.23 -1.68,-1.09 -1.73,-2.22l1.15 -0c0.12,1.33 1.29,1.16 2.31,1.16 0,-0.91 0.13,-1.73 -0.59,-2.15 -0.38,-0.22 -1.01,-0.14 -1.52,-0.36 -1.71,-0.74 -1.36,-2.71 -1.36,-4.42l1.7 0 0.04 -1.16 1.15 0 -0 1.25c0.98,0.22 1.67,1.07 1.73,2.22l-1.15 0c-0.12,-1.35 -1.31,-1.16 -2.32,-1.16l0.01 0.94zm-5.98 -0.52c0.13,-0.92 1.35,-2.65 1.8,-3.02 0.65,-0.53 2.09,-2.16 2.45,-2.39l0.77 0.78c-1.04,1.21 -3.43,2.88 -3.92,4.95l-1.1 -0.33zm15.78 3.05c0.35,-4.31 -1.91,-6.33 -4.24,-8.66 -0.67,-0.66 -0.34,-0.58 -1.58,-0.58l-6.5 0c-0.3,0.05 -0.42,0.28 -0.61,0.47 -2.09,2.1 -4.19,3.82 -4.36,7.54 -0.12,2.66 0.63,4.56 2.22,6.43 4.58,5.4 14.42,2.91 15.07,-5.2z"/>
   <path class="fil2" d="M24.26 13.01c0.33,-0.19 4.15,-4.1 4.78,-4.73l0.79 0.82 -5.58 5.55 -2.68 -2.68 0.82 -0.79 1.88 1.83zm0.45 -8.34c-2.95,0.39 -5.48,3.02 -5.02,6.47 0.39,2.91 3.07,5.43 6.47,4.98 2.92,-0.39 5.43,-3.05 4.98,-6.47 -0.38,-2.9 -3.05,-5.43 -6.43,-4.98z"/>
   <path class="fil3" d="M24.64 3.52c4.04,-0.49 7.23,2.56 7.65,6.06 0.5,4.07 -2.55,7.29 -6.06,7.7 -4.09,0.48 -7.27,-2.54 -7.7,-6.05 -0.51,-4.12 2.56,-7.28 6.11,-7.71zm-0.81 -1.04c-0.75,0.14 -1.56,0.45 -2.17,0.77 -0.38,0.2 -0.61,0.49 -0.94,0.3 -0.29,-0.16 -0.64,-0.46 -0.94,-0.56l-1.77 1.78c0.09,0.24 0.36,0.64 0.53,0.89 0.23,0.36 -0.04,0.56 -0.25,0.93 -0.34,0.61 -0.65,1.46 -0.79,2.23l-1.29 0.31c-0.1,0.56 -0.02,0.74 -0.25,1.26 -0.15,0.34 -0.43,0.73 -0.49,1.09l2.03 0.5c0.14,0.73 0.45,1.59 0.77,2.17 0.18,0.33 0.49,0.62 0.3,0.93 -0.17,0.28 -0.46,0.66 -0.56,0.94l1.78 1.77c0.24,-0.08 0.64,-0.36 0.89,-0.53 0.55,-0.35 0.92,0.62 3.16,1.04l0.29 1.31 2.56 0.02 0.3 -1.32c2.03,-0.39 2.67,-1.34 3.11,-1.07 0.28,0.17 0.67,0.47 0.94,0.56l1.77 -1.78c-0.08,-0.24 -0.37,-0.64 -0.53,-0.89 -0.36,-0.56 0.62,-0.9 1.04,-3.16l1.31 -0.29 0.01 -2.57 -1.32 -0.3c-0.39,-2.04 -1.34,-2.66 -1.07,-3.11 0.17,-0.28 0.46,-0.67 0.56,-0.94l-1.78 -1.77c-0.24,0.09 -0.64,0.37 -0.89,0.53 -0.55,0.35 -0.93,-0.63 -3.17,-1.04l-0.29 -1.31 -2.56 -0.02 -0.3 1.32z"/>
   <path class="fil0" d="M24.71 4.67c3.38,-0.45 6.04,2.07 6.43,4.98 0.45,3.42 -2.05,6.09 -4.98,6.47 -3.41,0.45 -6.09,-2.06 -6.47,-4.98 -0.46,-3.45 2.07,-6.08 5.02,-6.47zm-0.07 -1.15c-3.55,0.43 -6.61,3.58 -6.11,7.71 0.43,3.51 3.61,6.54 7.7,6.05 3.51,-0.41 6.55,-3.63 6.06,-7.7 -0.43,-3.49 -3.61,-6.55 -7.65,-6.06z"/>
   <path class="fil4" d="M6.69 13.86l1.79 0 -0.96 -3.33 1.13 -0.3 0.98 3.45c0.32,0.6 0.49,-0.38 0.56,-0.62l0.8 -2.82 1.11 0.29 -0.92 3.32 1.77 0c0.75,-1.93 2.67,-4.21 1.83,-5.31 -0.23,-0.3 -0.82,-0.67 -1.28,-0.32 -0.36,0.27 -0.46,0.68 -1.05,0.9 -1.57,0.61 -1.98,-1.03 -2.63,-1.03 -0.67,-0.01 -1.01,1.59 -2.58,1.05 -0.55,-0.19 -0.73,-0.57 -1.02,-0.85 -0.41,-0.39 -1.05,-0.13 -1.33,0.21 -0.69,0.86 0.14,2 0.52,2.76 0.39,0.78 0.99,1.82 1.28,2.59z"/>
   <path class="fil0" d="M8.65 23.1c1.01,0 2.2,-0.19 2.32,1.16l1.15 -0c-0.06,-1.15 -0.75,-1.99 -1.73,-2.22l0 -1.25 -1.15 0 -0.04 1.16 -1.7 0c0,1.71 -0.35,3.68 1.36,4.42 0.51,0.22 1.13,0.13 1.52,0.36 0.72,0.42 0.59,1.25 0.59,2.15 -1.02,0 -2.19,0.18 -2.31,-1.16l-1.15 0c0.05,1.13 0.73,1.99 1.73,2.22l-0 1.25 1.15 0 0 -1.16 1.73 0c0,-1.15 0.17,-2.81 -0.38,-3.59 -0.2,-0.27 -0.6,-0.67 -0.97,-0.83 -0.51,-0.22 -1.13,-0.14 -1.52,-0.36 -0.38,-0.22 -0.59,-0.58 -0.59,-1.22l-0.01 -0.94z"/>
   <path class="fil0" d="M24.26 13.01l-1.88 -1.83 -0.82 0.79 2.68 2.68 5.58 -5.55 -0.79 -0.82c-0.63,0.63 -4.45,4.54 -4.78,4.73z"/>
   <path class="fil5" d="M5.58 15.08c-0.29,0.14 -0.53,0.45 -0.27,0.84 0.2,0.29 0.61,0.26 1.04,0.26 1.19,-0.01 7.45,0.06 7.74,-0.06 0.25,-0.11 0.95,-1.1 -0.81,-1.1 -1.2,0.01 -7.42,-0.08 -7.71,0.06z"/>
   <path class="fil0" d="M9.82 33.5c1.83,-0.04 3.42,-0.67 4.54,-1.53 0.91,-0.7 2.1,-1.95 2.52,-3.48l-1.1 -0.37c-0.31,1.26 -1.41,2.39 -2.17,2.96 -1.06,0.78 -2.15,1.21 -3.79,1.27l0 1.16z"/>
   <path class="fil0" d="M2.68 23.52l1.1 0.33c0.49,-2.07 2.88,-3.74 3.92,-4.95l-0.77 -0.78c-0.36,0.23 -1.81,1.85 -2.45,2.39 -0.45,0.37 -1.67,2.09 -1.8,3.02z"/>
   <polygon class="fil0" points="16.1,27.06 17.23,27.23 17.34,25.99 16.17,25.99 "/>
   <polygon class="fil0" points="2.3,25.99 3.47,25.99 3.51,24.93 2.38,24.76 "/>
  </g>
 </g>
</svg>
