<?xml version="1.0" encoding="UTF-8"?>
<!DOCTYPE svg PUBLIC "-//W3C//DTD SVG 1.1//EN" "http://www.w3.org/Graphics/SVG/1.1/DTD/svg11.dtd">
<!-- Creator: CorelDRAW 2020 (64-Bit) -->
<svg xmlns="http://www.w3.org/2000/svg" xml:space="preserve" width="39.4896mm" height="39.4896mm" version="1.1" style="shape-rendering:geometricPrecision; text-rendering:geometricPrecision; image-rendering:optimizeQuality; fill-rule:evenodd; clip-rule:evenodd"
viewBox="0 0 11.54 11.54"
 xmlns:xlink="http://www.w3.org/1999/xlink"
 xmlns:xodm="http://www.corel.com/coreldraw/odm/2003">
 <defs>
  <style type="text/css">
   <![CDATA[
    .fil2 {fill:black}
    .fil5 {fill:#0691CD}
    .fil6 {fill:#0691CE}
    .fil4 {fill:#3FC0F9}
    .fil3 {fill:#61C389}
    .fil1 {fill:#71E49F}
    .fil0 {fill:#B3B3B3}
   ]]>
  </style>
 </defs>
 <g id="Capa_x0020_1">
  <metadata id="CorelCorpID_0Corel-Layer"/>
  <g id="_1663095502032">
   <circle class="fil0" cx="5.77" cy="5.77" r="5.77"/>
   <path class="fil1" d="M5.24 8.6c0.73,0.28 1.67,0.08 2.26,-0.38 0.3,-0.23 0.57,-0.52 0.37,-0.94 -0.06,-0.12 -0.46,-0.53 -0.6,-0.65 -0.06,-0.05 -0.06,-0.01 -0.14,-0.03 -0.14,-0 -0.23,0.12 -0.29,0.21 -0.07,0.1 -0.14,0.18 -0.21,0.28 -0.14,0.18 -0.27,0.37 -0.58,0.41 -0.48,0.06 -1.1,-0.61 -1.26,-0.68 -0.07,-0.03 -0.22,-0.15 -0.27,-0.19 -0.16,-0.13 -0.34,-0.28 -0.47,-0.43 -0.19,-0.2 -0.23,-0.22 -0.42,-0.48 -0.19,-0.25 -0.47,-0.61 -0.41,-0.92 0.05,-0.27 0.24,-0.37 0.41,-0.5 0.16,-0.12 0.39,-0.24 0.46,-0.44 0.12,-0.31 -0.09,-0.5 -0.21,-0.63 -0.15,-0.15 -0.31,-0.29 -0.45,-0.46 -0.33,-0.1 -0.59,0.26 -0.74,0.48 -0.63,0.95 -0.42,1.94 0.02,2.9 0.23,0.49 0.67,1.11 1.05,1.44 0.37,0.33 0.81,0.67 1.3,0.88l0.19 0.1z"/>
   <path class="fil2" d="M5.24 8.72l0 -0.12 -0.19 -0.1c-0.48,-0.21 -0.92,-0.55 -1.3,-0.88 -0.38,-0.33 -0.82,-0.95 -1.05,-1.44 -0.44,-0.96 -0.65,-1.95 -0.02,-2.9 0.15,-0.23 0.42,-0.58 0.74,-0.48 0.23,0.04 0.41,0.27 0.53,0.39 0.15,0.15 0.3,0.3 0.45,0.45 0.06,0.06 0.16,0.15 0.18,0.28 0.1,0.55 -0.94,0.57 -0.91,1.32 0.01,0.26 0.31,0.68 0.47,0.88 0.04,0.05 0.06,0.08 0.1,0.13l0.21 0.24c0.04,0.04 0.07,0.07 0.11,0.11 0.05,0.05 0.2,0.16 0.23,0.23 0.16,0.06 0.78,0.73 1.26,0.68 0.31,-0.04 0.44,-0.23 0.58,-0.41 0.08,-0.1 0.14,-0.18 0.21,-0.28 0.06,-0.08 0.15,-0.21 0.29,-0.21 0.08,-0.07 0.26,0.03 0.31,0.07 0.07,0.05 0.15,0.14 0.21,0.21 0.14,0.14 0.28,0.28 0.42,0.42 0.11,0.11 0.31,0.26 0.33,0.52 0.02,0.29 -0.17,0.43 -0.3,0.54 -0.49,0.43 -1.24,0.63 -1.94,0.5 -0.34,-0.06 -0.58,-0.21 -0.65,-0.06 -0.04,0.05 0.01,0.11 0.05,0.13 0.07,0.04 0.46,0.13 0.55,0.14 0.06,0.01 0.14,0.02 0.23,0.03l0.54 0c0.04,-0 0.08,-0.01 0.12,-0.01 0.56,-0.1 0.92,-0.3 1.33,-0.64l0.16 -0.18c0.15,-0.21 0.17,-0.5 0.06,-0.73 -0.1,-0.21 -0.49,-0.55 -0.66,-0.73 -0.13,-0.13 -0.32,-0.36 -0.51,-0.42 -0.47,-0.14 -0.66,0.21 -0.86,0.47 -0.24,0.32 -0.41,0.57 -0.87,0.3 -0.28,-0.17 -0.43,-0.3 -0.67,-0.49 -0.13,-0.1 -0.47,-0.46 -0.57,-0.59 -0.16,-0.21 -0.51,-0.61 -0.51,-0.88 -0,-0.15 0.06,-0.25 0.13,-0.33 0.23,-0.23 0.59,-0.35 0.73,-0.66 0.11,-0.23 0.03,-0.5 -0.15,-0.68 -0.16,-0.16 -0.31,-0.31 -0.46,-0.46 -0.15,-0.15 -0.3,-0.34 -0.49,-0.44 -0.25,-0.13 -0.52,-0.1 -0.73,0.04 -0.32,0.2 -0.63,0.75 -0.75,1.11 -0.08,0.23 -0.12,0.45 -0.12,0.66l0 0.21c0.01,0.24 0.05,0.48 0.12,0.74 0.27,1.08 0.99,2.11 1.87,2.77 0.31,0.23 0.43,0.28 0.71,0.45 0.06,0.03 0.09,0.05 0.16,0.07 0.1,0.04 0.23,0.16 0.31,0.03z"/>
   <path class="fil2" d="M6.1 4.67c0.15,0.02 0.15,-0.04 0.23,-0.1 0.05,-0.08 1.56,-1.57 1.59,-1.59l0.16 0.17 0.12 0.1c-0.04,0.07 -1.3,1.31 -1.47,1.48 -0.41,0.41 -0.19,0.31 -0.04,0.55 -0.05,0.03 -0.62,0.12 -0.7,0.12 -0.05,0.04 -0.2,0.05 -0.28,0.06 0.01,-0.13 0.14,-0.92 0.17,-0.98 0.1,0.06 0.12,0.12 0.2,0.19zm1.03 0.71c0,-0.07 -0.26,-0.31 -0.3,-0.34 0.05,-0.08 1.4,-1.4 1.53,-1.54 0.26,-0.26 0.24,-0.23 -0.1,-0.56 -0.34,-0.34 -0.31,-0.38 -0.56,-0.13 -0.13,0.13 -1.49,1.47 -1.54,1.55 -0.08,-0.05 -0.4,-0.5 -0.49,-0.19l-0.22 1.29c-0.06,0.37 -0.02,0.35 0.75,0.2 0.16,-0.03 0.34,-0.06 0.51,-0.09 0.19,-0.03 0.42,-0.02 0.42,-0.19z"/>
   <path class="fil3" d="M4.8 6.83c-0.02,-0.06 -0.17,-0.17 -0.23,-0.23 -0.04,-0.04 -0.07,-0.07 -0.11,-0.11l-0.21 -0.24c-0.04,-0.05 -0.06,-0.08 -0.1,-0.13 -0.16,-0.2 -0.46,-0.62 -0.47,-0.88 -0.03,-0.75 1.01,-0.77 0.91,-1.32 -0.02,-0.13 -0.12,-0.22 -0.18,-0.28 -0.15,-0.15 -0.3,-0.3 -0.45,-0.45 -0.12,-0.12 -0.3,-0.35 -0.53,-0.39 0.14,0.16 0.3,0.31 0.45,0.46 0.13,0.12 0.33,0.32 0.21,0.63 -0.08,0.19 -0.3,0.32 -0.46,0.44 -0.17,0.13 -0.36,0.23 -0.41,0.5 -0.06,0.31 0.23,0.67 0.41,0.92 0.19,0.26 0.23,0.28 0.42,0.48 0.14,0.14 0.31,0.3 0.47,0.43 0.06,0.05 0.2,0.16 0.27,0.19z"/>
   <path class="fil3" d="M5.24 8.6l-0 0.12c0.06,0 0.09,0.03 0.13,0.04 0.05,0.02 0.1,0.04 0.15,0.05 0.06,-0.15 0.31,-0 0.65,0.06 0.7,0.13 1.45,-0.07 1.94,-0.5 0.13,-0.12 0.32,-0.25 0.3,-0.54 -0.02,-0.25 -0.22,-0.4 -0.33,-0.52 -0.14,-0.14 -0.28,-0.28 -0.42,-0.42 -0.06,-0.06 -0.14,-0.16 -0.21,-0.21 -0.05,-0.04 -0.23,-0.14 -0.31,-0.07 0.08,0.02 0.09,-0.02 0.14,0.03 0.14,0.12 0.54,0.53 0.6,0.65 0.2,0.42 -0.07,0.71 -0.37,0.94 -0.59,0.45 -1.53,0.65 -2.26,0.38z"/>
   <path class="fil4" d="M8.08 3.15c-0.12,0.06 -1.31,1.33 -1.44,1.42 -0.16,0.11 -0.21,-0.01 -0.32,0 -0.08,0.06 -0.08,0.12 -0.23,0.1 -0,0.11 -0.04,0.26 -0.06,0.37 -0.02,0.09 -0.08,0.3 -0.04,0.36 0.08,0.01 0.65,-0.08 0.7,-0.12 -0.15,-0.25 -0.37,-0.14 0.04,-0.55 0.17,-0.17 1.43,-1.41 1.47,-1.48l-0.12 -0.1z"/>
   <path class="fil5" d="M8.08 3.15l-0.16 -0.17c-0.04,0.02 -1.54,1.51 -1.59,1.59 0.11,-0.01 0.16,0.11 0.32,-0 0.13,-0.09 1.32,-1.36 1.44,-1.42z"/>
   <path class="fil6" d="M6 5.4c-0.04,-0.07 0.03,-0.27 0.04,-0.36 0.02,-0.11 0.05,-0.26 0.06,-0.37 -0.08,-0.06 -0.1,-0.12 -0.2,-0.19 -0.03,0.05 -0.16,0.85 -0.17,0.98 0.08,-0.01 0.22,-0.02 0.28,-0.06z"/>
  </g>
 </g>
</svg>
