<?xml version="1.0" encoding="UTF-8"?>
<!DOCTYPE svg PUBLIC "-//W3C//DTD SVG 1.1//EN" "http://www.w3.org/Graphics/SVG/1.1/DTD/svg11.dtd">
<!-- Creator: CorelDRAW 2020 (64-Bit) -->
<svg xmlns="http://www.w3.org/2000/svg" xml:space="preserve" width="19.4874mm" height="19.4874mm" version="1.1" style="shape-rendering:geometricPrecision; text-rendering:geometricPrecision; image-rendering:optimizeQuality; fill-rule:evenodd; clip-rule:evenodd"
viewBox="0 0 29.91 29.91"
 xmlns:xlink="http://www.w3.org/1999/xlink"
 xmlns:xodm="http://www.corel.com/coreldraw/odm/2003">
 <defs>
  <style type="text/css">
   <![CDATA[
    .fil0 {fill:black}
    .fil2 {fill:#366CB6}
    .fil3 {fill:#6C797A}
    .fil5 {fill:#AEB4BB}
    .fil1 {fill:#E5EBED}
    .fil4 {fill:#EAB917}
   ]]>
  </style>
 </defs>
 <g id="Capa_x0020_1">
  <metadata id="CorelCorpID_0Corel-Layer"/>
  <g id="_2253640996560">
   <path class="fil0" d="M1.87 28.67l-0.66 -0.61c0.5,-0.57 1.14,-1.15 1.68,-1.69 0.3,-0.3 1.46,-1.55 1.74,-1.68l0.57 0.59c-0.13,0.26 -1.35,1.4 -1.64,1.7 -0.58,0.58 -1.12,1.11 -1.69,1.69zm0.09 1.24l-0.18 0c-0.22,-0.06 -0.48,-0.32 -0.97,-0.8 -0.46,-0.46 -0.75,-0.71 -0.8,-0.95l0 -0.15c0.03,-0.15 0.16,-0.33 0.39,-0.56 0.51,-0.51 3.21,-3.27 3.46,-3.43 -0.17,-0.33 -0.41,-0.6 -0.41,-1.11 0,-0.54 0.43,-1.06 0.76,-1.29 -0.08,-0.12 -0.12,-0.13 -0.21,-0.26 -0.07,-0.09 -0.1,-0.15 -0.16,-0.24 -1.04,-1.57 -0.9,-3.7 0.39,-4.97l3.51 -3.5c0.27,-0.27 0.54,-0.68 1.05,-0.15 0.25,0.26 0.68,0.62 0.86,0.89 0.83,-0.55 2.64,-3.1 3.62,-3.1 0.61,0 0.81,0.01 1.21,0.42 0.32,0.33 0.42,0.61 0.42,1.1 0,0.83 -1.5,2.05 -2.26,2.82 -0.24,0.24 -0.66,0.61 -0.85,0.88l2.64 2.61c0.44,-0.29 2.51,-2.63 3.07,-2.94 1.23,-0.68 3.22,0.9 1.47,2.64 -0.38,0.38 -2.19,2.24 -2.44,2.41 0.46,0.69 1.24,0.94 1.13,1.48 -0.07,0.31 -1.83,1.94 -2.13,2.24 -1.21,1.21 -2.44,2.82 -4.19,2.82 -1.85,0 -1.95,-0.32 -3.04,-1.05 -0.25,0.38 -0.77,0.76 -1.4,0.76 -0.33,0 -0.79,-0.3 -0.99,-0.41l-2.96 2.99c-0.5,0.5 -0.75,0.8 -0.98,0.86zm5.63 -4.91c-0.79,0.78 -0.73,0.52 -1.96,-0.71 -1.16,-1.16 -1.54,-1.19 -0.7,-1.98l2.66 2.69zm8.86 -3.41c-0.94,0.88 -3.26,3.53 -4.29,3.95 -1.2,0.49 -2.45,0.06 -3.13,-0.57 -1.41,-1.3 -2.74,-2.76 -4.12,-4.12 -0.66,-0.65 -0.95,-1.99 -0.54,-3.11 0.21,-0.57 0.56,-0.89 0.88,-1.22l3.06 -3.06c0.69,0.62 1.34,1.36 2.01,2.03 1.94,1.94 4.22,4.27 6.12,6.1zm-1.26 -2.72c0.12,-0.25 1.91,-1.96 2.25,-2.31 0.25,-0.25 0.41,-0.58 0.98,-0.5 0.4,0.53 0.19,0.67 -0.17,1.02l-2.43 2.43 -0.63 -0.64zm-4.78 -4.8c0.48,-0.54 1.09,-1.1 1.62,-1.63 1.05,-1.05 1.17,-1.43 1.82,-0.95 0.08,0.57 -0.26,0.73 -0.53,1.01 -0.43,0.43 -2.03,2.1 -2.28,2.23l-0.62 -0.66z"/>
   <path class="fil1" d="M18.48 5.07c0.8,-0.19 1.47,0.23 1.85,0.59 0.29,0.27 1.07,1.01 1.28,1.29 0.22,0.3 0.11,0.75 -0.24,0.82 -0.62,0.13 -1.36,-1.32 -2.12,-1.67 -0.76,-0.35 -1.35,0.47 -1.64,0.76 -0.23,0.23 -0.42,0.41 -0.64,0.64 -0.66,0.7 -1.39,-0.03 -0.65,-0.77 0.7,-0.69 1.25,-1.44 2.16,-1.66zm3.77 10.69c0.26,-0.18 0.72,-0.69 0.97,-0.95 0.96,-0.96 2.24,-1.95 2.48,-3.19 0.21,-1.11 -0.17,-2.04 -0.9,-2.77 -1.22,-1.21 -2.6,-2.53 -3.77,-3.77 -0.56,-0.6 -1.6,-1.13 -2.79,-0.87 -1.22,0.27 -2.23,1.55 -3.17,2.5 -0.24,0.24 -0.76,0.7 -0.92,0.95l8.1 8.09z"/>
   <path class="fil0" d="M22.25 15.76l-8.1 -8.09c0.15,-0.25 0.67,-0.71 0.92,-0.95 0.95,-0.95 1.96,-2.23 3.17,-2.5 1.19,-0.26 2.23,0.27 2.79,0.87 1.17,1.24 2.54,2.56 3.77,3.77 0.74,0.73 1.12,1.66 0.9,2.77 -0.24,1.24 -1.52,2.22 -2.48,3.19 -0.26,0.26 -0.72,0.77 -0.97,0.95zm5.77 -15.76l0.11 0c0.25,0.04 0.5,0.32 0.98,0.8 0.46,0.46 0.75,0.71 0.8,0.95l0 0.15c-0.03,0.15 -0.16,0.33 -0.39,0.56 -0.51,0.51 -3.21,3.27 -3.46,3.43 0.17,0.33 0.41,0.6 0.41,1.11 0,0.54 -0.43,1.06 -0.76,1.29 0.11,0.16 0.26,0.3 0.38,0.49 0.91,1.37 0.9,3.09 0.02,4.47 -0.28,0.44 -0.82,0.91 -1.21,1.3 -2.99,2.99 -2.37,2.92 -3.91,1.37l-5.84 -5.84c-2.49,-2.49 -2.64,-2.24 -1.69,-3.18l1.9 -1.9c1.33,-1.33 1.75,-1.85 3.81,-1.85 1.22,0 1.81,0.62 2.45,1.05 0.24,-0.36 0.75,-0.76 1.34,-0.76 0.46,0 0.75,0.25 1.05,0.41l1.97 -2c1.23,-1.23 1.67,-1.8 2.04,-1.85zm-5.69 4.91c0.77,-0.87 0.92,-0.34 1.97,0.71 1.16,1.16 1.53,1.16 0.69,1.98l-2.66 -2.69zm2.37 -0.28c0.1,-0.23 2.95,-3.03 3.36,-3.42l0.63 0.59c-0.09,0.19 -3.19,3.3 -3.39,3.39l-0.59 -0.57z"/>
   <path class="fil1" d="M8.07 15.07c0.42,-0.23 0.64,0.05 0.84,0.26l4.29 4.3c2.28,2.28 2.29,1.63 0.03,3.89 -1.13,1.13 -1.34,1.67 -2.06,0.94l-4.29 -4.29c-1.86,-1.86 -2.18,-1.81 -1.28,-2.71 0.45,-0.45 2.08,-2.18 2.47,-2.39zm8.37 6.52c-1.9,-1.83 -4.18,-4.16 -6.12,-6.1 -0.67,-0.67 -1.33,-1.41 -2.01,-2.03l-3.06 3.06c-0.32,0.32 -0.68,0.65 -0.88,1.22 -0.41,1.12 -0.12,2.47 0.54,3.11 1.38,1.36 2.71,2.82 4.12,4.12 0.68,0.63 1.94,1.06 3.13,0.57 1.02,-0.42 3.34,-3.07 4.29,-3.95z"/>
   <path class="fil0" d="M8.28 16.18c0.25,0.11 3.45,3.38 4.1,4.03 0.41,0.42 0.92,0.98 1.34,1.33 -0.1,0.23 -1.7,1.79 -2,2.05l-5.41 -5.44 1.96 -1.98zm-0.21 -1.11c-0.39,0.21 -2.03,1.94 -2.47,2.39 -0.9,0.9 -0.58,0.84 1.28,2.71l4.29 4.29c0.72,0.73 0.93,0.19 2.06,-0.94 2.26,-2.26 2.25,-1.61 -0.03,-3.89l-4.29 -4.3c-0.21,-0.21 -0.42,-0.49 -0.84,-0.26z"/>
   <path class="fil2" d="M8.54 19.04c-0.17,-0.49 0.33,-0.85 0.74,-0.58 0.14,0.09 2.18,2.13 2.22,2.29 0.14,0.48 -0.32,0.78 -0.74,0.55 -0.19,-0.1 -2.15,-2.06 -2.22,-2.27zm-2.23 -0.89l5.41 5.44c0.29,-0.26 1.89,-1.82 2,-2.05 -0.43,-0.35 -0.93,-0.92 -1.34,-1.33 -0.65,-0.65 -3.85,-3.93 -4.1,-4.03l-1.96 1.98z"/>
   <path class="fil0" d="M18.48 5.07c-0.91,0.22 -1.47,0.97 -2.16,1.66 -0.74,0.74 -0.01,1.47 0.65,0.77 0.22,-0.23 0.41,-0.42 0.64,-0.64 0.29,-0.29 0.88,-1.11 1.64,-0.76 0.76,0.35 1.5,1.8 2.12,1.67 0.35,-0.07 0.46,-0.52 0.24,-0.82 -0.21,-0.28 -0.99,-1.02 -1.28,-1.29 -0.39,-0.36 -1.05,-0.78 -1.85,-0.59z"/>
   <path class="fil3" d="M24.7 4.63l0.59 0.57c0.2,-0.09 3.3,-3.2 3.39,-3.39l-0.63 -0.59c-0.41,0.38 -3.26,3.19 -3.36,3.42z"/>
   <path class="fil3" d="M1.87 28.67c0.57,-0.58 1.11,-1.11 1.69,-1.69 0.3,-0.3 1.51,-1.43 1.64,-1.7l-0.57 -0.59c-0.29,0.13 -1.44,1.38 -1.74,1.68 -0.54,0.54 -1.18,1.11 -1.68,1.69l0.66 0.61z"/>
   <path class="fil4" d="M10.41 14.07l0.62 0.66c0.25,-0.13 1.85,-1.8 2.28,-2.23 0.27,-0.27 0.62,-0.44 0.53,-1.01 -0.65,-0.48 -0.77,-0.1 -1.82,0.95 -0.53,0.53 -1.14,1.09 -1.62,1.63z"/>
   <path class="fil4" d="M15.19 18.87l0.63 0.64 2.43 -2.43c0.36,-0.36 0.57,-0.49 0.17,-1.02 -0.57,-0.08 -0.73,0.25 -0.98,0.5 -0.34,0.34 -2.14,2.06 -2.25,2.31z"/>
   <path class="fil0" d="M8.54 19.04c0.07,0.2 2.03,2.16 2.22,2.27 0.42,0.23 0.88,-0.08 0.74,-0.55 -0.05,-0.16 -2.08,-2.2 -2.22,-2.29 -0.41,-0.27 -0.9,0.09 -0.74,0.58z"/>
   <path class="fil5" d="M22.33 4.91l2.66 2.69c0.83,-0.81 0.47,-0.81 -0.69,-1.98 -1.05,-1.05 -1.19,-1.58 -1.97,-0.71z"/>
   <path class="fil5" d="M7.58 25l-2.66 -2.69c-0.84,0.79 -0.46,0.82 0.7,1.98 1.23,1.23 1.17,1.49 1.96,0.71z"/>
  </g>
 </g>
</svg>
