<?xml version="1.0" encoding="UTF-8"?>
<!DOCTYPE svg PUBLIC "-//W3C//DTD SVG 1.1//EN" "http://www.w3.org/Graphics/SVG/1.1/DTD/svg11.dtd">
<!-- Creator: CorelDRAW 2020 (64-Bit) -->
<svg xmlns="http://www.w3.org/2000/svg" xml:space="preserve" width="7.0453mm" height="7.0453mm" version="1.1" style="shape-rendering:geometricPrecision; text-rendering:geometricPrecision; image-rendering:optimizeQuality; fill-rule:evenodd; clip-rule:evenodd"
viewBox="0 0 0.56 0.56"
 xmlns:xlink="http://www.w3.org/1999/xlink"
 xmlns:xodm="http://www.corel.com/coreldraw/odm/2003">
 <defs>
  <style type="text/css">
   <![CDATA[
    .fil0 {fill:#252525}
    .fil4 {fill:#666666}
    .fil3 {fill:gray}
    .fil5 {fill:#978474}
    .fil1 {fill:#999999}
    .fil2 {fill:#CCCCCC}
   ]]>
  </style>
 </defs>
 <g id="Capa_x0020_1">
  <metadata id="CorelCorpID_0Corel-Layer"/>
  <g id="_1743068691424">
   <path class="fil0" d="M0.14 0.17l0.28 0 0 0.02 -0.28 0 0 -0.02zm0.12 -0.17l0.05 0c0.01,0 0.01,0.01 0.01,0.05l0.04 0c0,-0.01 -0,-0.02 0.01,-0.03 0.01,-0.01 0.03,-0.01 0.04,0 0.01,0.01 0.01,0.01 0.01,0.03 0.01,0 0.02,-0 0.02,0l0.01 0.01c0,0 0,0 0.01,0 0.01,0 0.01,0.01 0.01,0.01 0.01,0 0.01,0.01 0.02,0.01 0.02,0.01 0.03,0.01 0.05,0.02 0.01,0 0.02,0 0.03,0.01l0 0.01c-0,0 -0,0 -0,0 -0,0.01 -0.01,0 -0.02,0 -0.04,-0.01 -0.07,-0.02 -0.1,-0.04 0,0.01 0,0.03 -0.01,0.03l-0.11 -0 0 0.05 0.04 0c0,-0.01 -0,-0.02 0.01,-0.03 0.01,-0.01 0.03,-0.01 0.04,0 0.01,0.01 0.01,0.01 0.01,0.03 0.02,0 0.02,-0 0.03,0 0.02,0.02 0.05,0.03 0.07,0.04 0.02,0.01 0.04,0.01 0.05,0.01l0 0.01c-0,0 -0,0 -0,0 -0,0.01 -0.01,0 -0.02,0 -0.04,-0.01 -0.07,-0.02 -0.1,-0.04 0,0.01 0,0.03 -0.01,0.03l-0.11 -0 0 0.32c0,0.02 0,0.03 -0.01,0.03 -0.01,-0.01 -0.01,-0.01 -0.01,-0.03l0 -0.28 0 -0.03 -0.03 0 0 0.03 0 0.3c0,0.01 -0,0.01 -0.01,0.02 -0.02,0 -0.01,-0.01 -0.01,-0.03l0 -0.31c-0.02,0 -0.05,0 -0.07,0 -0.05,0 -0.05,0 -0.05,-0.03 -0.02,0.01 -0.04,0.02 -0.06,0.03 -0.01,0 -0.05,0.02 -0.06,0.01 -0,-0 -0,-0 -0,-0l0 -0.01c0,-0.01 0.02,-0.01 0.03,-0.01 0.02,-0 0.04,-0.01 0.05,-0.02l0.04 -0.02c0.01,-0.01 0.01,-0.01 0.03,-0.01 0,-0.01 -0,-0.02 0.01,-0.03 0.01,-0.01 0.03,-0.01 0.04,0 0.01,0.01 0.01,0.01 0.01,0.03l0.04 0 0 -0.05c-0.02,0 -0.05,0 -0.07,0 -0.05,0 -0.05,0 -0.05,-0.03 -0.02,0.01 -0.04,0.02 -0.06,0.03 -0.01,0 -0.05,0.02 -0.06,0.01 -0,-0 -0,-0 -0,-0l0 -0.01c0,-0.01 0.03,-0.01 0.05,-0.01 0.03,-0.01 0.04,-0.02 0.06,-0.03l0.01 -0.01c0.01,-0 0.02,-0 0.02,-0 0,-0.01 -0,-0.02 0.01,-0.03 0.01,-0.01 0.03,-0.01 0.04,0 0.01,0.01 0.01,0.01 0.01,0.03l0.04 0c0,-0.04 -0.01,-0.05 0.01,-0.05zm0.12 0.16c0,-0.01 -0,-0.02 0.01,-0.02 0.01,0 0.01,0.01 0.01,0.02l-0.02 0zm-0.11 -0.02l0 -0.03 0.03 0 0 0.03 0 0.02 -0.03 0 0 -0.02zm-0.1 0.02c0,-0.01 -0,-0.02 0.01,-0.02 0.01,0 0.01,0.01 0.01,0.02l-0.02 0zm-0.03 -0.09l0.28 0 0 0.02 -0.28 0 0 -0.02zm0.24 -0.02c0,-0.01 -0,-0.02 0.01,-0.02 0.01,0 0.01,0.01 0.01,0.02l-0.02 0zm-0.11 -0.03l0.03 0 0 0.03 -0.03 0 0 -0.03zm-0.1 0.03c0,-0.01 -0,-0.02 0.01,-0.02 0.01,0 0.01,0.01 0.01,0.02l-0.02 0z"/>
   <path class="fil0" d="M0.43 0.3l0.02 0 0 0.03 -0.02 0 0 -0.03zm0 -0.03l0.02 0 0 0.02 -0.02 0 0 -0.02zm-0.01 0.29c0.01,-0.01 0.01,-0.01 0.01,-0.02l-0 -0.16 0 -0.03 0.02 0 0 0.03 -0 0.16c-0,0.01 -0,0.01 0.01,0.02 0.02,0 0.01,-0.01 0.01,-0.04l0 -0.16c0.02,0 0.04,0 0.05,0 0.01,-0 0.01,-0.01 0.01,-0.02 -0,-0 -0.05,-0 -0.06,-0l0 -0.03c0.02,0 0.04,0 0.05,0 0.01,-0 0.01,-0.01 0.01,-0.02 -0,-0 -0.05,-0 -0.06,-0 0,-0.01 0,-0.02 -0,-0.03 -0,-0.01 -0.02,-0.01 -0.03,-0.01 -0.03,0 -0.03,-0 -0.03,0.03l-0.04 0c-0.01,0 -0.02,-0 -0.02,0.01 -0,0.01 0,0.01 0.01,0.01 0.02,-0 0.03,-0 0.05,-0l0 0.03 -0.04 0c-0.01,0 -0.02,-0 -0.02,0.01 -0,0.01 0,0.01 0.01,0.01 0.02,-0 0.03,-0 0.05,-0l-0 0.19c-0,0.01 0,0.02 0.01,0.02z"/>
   <path class="fil0" d="M0.11 0.3l0.02 0 0 0.03 -0.02 0 0 -0.03zm0 -0.03l0.02 0 0 0.02 -0.02 0 0 -0.02zm-0.01 0.29c0.01,-0.01 0.01,-0.01 0.01,-0.02l-0 -0.16 0 -0.03 0.02 0 0 0.03 -0 0.16c-0,0.01 -0,0.01 0.01,0.02 0.02,0 0.01,-0.01 0.01,-0.04l0 -0.16c0.02,0 0.03,-0 0.05,0 0.01,0 0.01,-0 0.01,-0.01 -0,-0.01 -0.01,-0.01 -0.03,-0.01l-0.03 0 0 -0.03c0.02,0 0.03,-0 0.05,0 0.01,0 0.01,-0 0.01,-0.01 -0,-0.01 -0.01,-0.01 -0.03,-0.01 -0.01,0 -0.02,0 -0.03,0 0,-0.04 0,-0.03 -0.03,-0.03 -0.03,0 -0.03,-0 -0.03,0.03 -0.01,0 -0.05,-0 -0.06,0 -0.01,0.01 -0,0.01 0.01,0.02 0.02,0 0.04,-0 0.05,-0l0 0.03c-0.01,0 -0.05,-0 -0.06,0 -0.01,0.01 -0,0.01 0.01,0.02 0.02,0 0.04,-0 0.05,-0l-0 0.19c-0,0.01 0,0.02 0.01,0.02z"/>
   <path class="fil1" d="M0.26 0.56l0.05 0c-0.01,-0.01 -0.01,-0.01 -0.01,-0.03l0 -0.28 -0.03 0 0 0.3c0,0.01 -0,0.01 -0.01,0.02z"/>
   <polygon class="fil2" points="0.14,0.09 0.42,0.09 0.42,0.07 0.14,0.07 "/>
   <polygon class="fil2" points="0.14,0.19 0.42,0.19 0.42,0.17 0.14,0.17 "/>
   <path class="fil3" d="M0.11 0.56l0.03 0c-0.01,-0.01 -0.01,-0.01 -0.01,-0.02l0 -0.16 -0.02 0 0 0.16c0,0.01 -0,0.01 -0.01,0.02z"/>
   <path class="fil3" d="M0.42 0.56l0.03 0c-0.01,-0.01 -0.01,-0.01 -0.01,-0.02l0 -0.16 -0.02 0 0 0.16c0,0.01 -0,0.01 -0.01,0.02z"/>
   <polygon class="fil1" points="0.26,0.05 0.3,0.05 0.3,0.02 0.26,0.02 "/>
   <polygon class="fil3" points="0.26,0.14 0.3,0.14 0.3,0.1 0.26,0.1 "/>
   <polygon class="fil3" points="0.26,0.24 0.3,0.24 0.3,0.21 0.26,0.21 "/>
   <polygon class="fil1" points="0.3,0.14 0.26,0.14 0.26,0.16 0.3,0.16 "/>
   <polygon class="fil3" points="0.43,0.34 0.44,0.34 0.44,0.3 0.43,0.3 "/>
   <polygon class="fil3" points="0.11,0.34 0.13,0.34 0.13,0.3 0.11,0.3 "/>
   <polygon class="fil4" points="0.11,0.38 0.13,0.38 0.13,0.36 0.11,0.36 "/>
   <polygon class="fil4" points="0.43,0.38 0.44,0.38 0.44,0.36 0.43,0.36 "/>
   <polygon class="fil3" points="0.11,0.29 0.13,0.29 0.13,0.27 0.11,0.27 "/>
   <polygon class="fil3" points="0.43,0.29 0.44,0.29 0.44,0.27 0.43,0.27 "/>
   <path class="fil5" d="M0.37 0.16l0.02 0c-0,-0.01 0,-0.02 -0.01,-0.02 -0.01,0 -0.01,0.01 -0.01,0.02z"/>
   <path class="fil5" d="M0.37 0.05l0.02 0c0,-0.01 0,-0.02 -0.01,-0.02 -0.01,0 -0.01,0.01 -0.01,0.02z"/>
   <path class="fil5" d="M0.17 0.05l0.02 0c0,-0.01 0,-0.02 -0.01,-0.02 -0.01,0 -0.01,0.01 -0.01,0.02z"/>
   <path class="fil5" d="M0.17 0.16l0.02 0c0,-0.01 0,-0.02 -0.01,-0.02 -0.01,0 -0.01,0.01 -0.01,0.02z"/>
  </g>
 </g>
</svg>
