<?xml version="1.0" encoding="UTF-8"?>
<!DOCTYPE svg PUBLIC "-//W3C//DTD SVG 1.1//EN" "http://www.w3.org/Graphics/SVG/1.1/DTD/svg11.dtd">
<!-- Creator: CorelDRAW 2020 (64-Bit) -->
<svg xmlns="http://www.w3.org/2000/svg" xml:space="preserve" width="111.154mm" height="173.918mm" version="1.1" style="shape-rendering:geometricPrecision; text-rendering:geometricPrecision; image-rendering:optimizeQuality; fill-rule:evenodd; clip-rule:evenodd"
viewBox="0 0 51.36 80.36"
 xmlns:xlink="http://www.w3.org/1999/xlink"
 xmlns:xodm="http://www.corel.com/coreldraw/odm/2003">
 <defs>
  <style type="text/css">
   <![CDATA[
    .fil0 {fill:#0B0B0B}
    .fil4 {fill:#5E5E5E}
    .fil1 {fill:#5F5F5F}
    .fil3 {fill:#7E7E7E}
    .fil2 {fill:#8B8B8B}
   ]]>
  </style>
 </defs>
 <g id="Capa_x0020_1">
  <metadata id="CorelCorpID_0Corel-Layer"/>
  <g id="_1752088588832">
   <path class="fil0" d="M15.22 24.7c0.34,-0.98 0.99,-1.64 1.32,-2.54 1.04,0.42 2.26,1.99 3.1,2.82 0.88,0.88 2.16,1.97 2.89,3.04 -0.31,0.54 -1.72,1.48 -2.19,1.77l-5.12 -5.1zm2.9 -4.75c0.69,-1.13 1.72,-2.7 2.64,-3.55l7.82 7.73 -3.84 2.46 -6.62 -6.63zm7.48 -8.74l9.49 9.49c-0.19,0.25 -0.07,0.13 -0.31,0.36 -0.58,0.52 -3.14,1.7 -3.81,1.92 -1.98,-1.76 -7.27,-7.53 -8.55,-8.42 0.47,-1.01 2.27,-2.93 3.19,-3.34zm1.85 -1.64c0.62,-0.74 2.91,-1.93 4.11,-2.13l8.35 8.32c-0.45,1.33 -1.93,2.85 -2.74,3.49l-9.71 -9.67zm-8.91 22.26c3.26,1.37 2.43,0.28 7,-2.77 1.99,-1.33 4.39,-2.89 6.84,-3.96 3.65,-1.59 7.07,-3.82 9.17,-7.02 0.86,-1.31 1.75,-2.35 0.53,-3.66 -1.19,-1.16 -7.06,-6.79 -7.56,-7.73 1.89,-0.13 3.8,0.19 5.03,1.1 1.77,1.31 0.87,3.12 2.75,3.32 1.84,-0.5 1.07,-2.03 0.44,-3.4 -2.31,-3.76 -7.47,-4.33 -12.31,-2.63 -5.26,1.84 -10.4,7.68 -13.28,11.84 -1.15,1.65 -2.2,3.26 -3.36,5.15 -1.84,2.99 -1.39,3.49 0.61,5.48 0.89,0.88 3.74,3.5 4.15,4.29z"/>
   <path class="fil0" d="M21.43 60.09c0.56,-0.8 1.11,-1.66 1.79,-2.27 0.73,0.57 5.44,5.22 5.92,6.03 -0.94,0.31 -1.63,1 -2.63,1.33l-5.08 -5.09zm13.46 -0.49c-0.69,0.74 -2.6,2.19 -3.57,2.61 -0.87,-0.55 -5.98,-5.67 -6.55,-6.55l2.85 -4.94c0.87,-1.78 1.8,-3.68 2.7,-5.42 0.71,0.36 9.36,9.02 9.76,9.81 -1.11,0.83 -1.83,1.98 -3.16,2.8 -2.57,-1.91 -5.48,-6.77 -7.15,-5.46 -2.01,1.57 3.68,4.68 5.12,7.16zm-2.83 -16.4c0.45,-0.91 2.14,-2.26 3.41,-2.74 1.19,0.84 3.17,3.07 4.32,4.23 1.38,1.38 2.87,2.75 4.12,4.16 -0.45,1.5 -1.23,3.25 -2.26,4.08 -1.08,-0.87 -9.17,-8.92 -9.59,-9.73zm12.53 2.7c-0.92,-0.64 -2.45,-2.36 -3.36,-3.27 -0.57,-0.57 -2.9,-2.46 -2.97,-3.26 4.68,-0.75 6.73,1.99 6.33,6.52zm-20.46 20.57c1.78,0.98 1.57,2.1 4.66,0.36 1.52,-0.85 2.8,-1.73 4.08,-2.56 4.16,-2.69 5.86,-4.63 9.04,-7.56 2.69,-2.49 5.11,-7.4 5.21,-11.43 0.07,-2.82 -0.57,-3.47 -1.3,-5.61 -0.95,-0.47 -1.4,-2.53 -5.16,-2.89 -6.4,-0.61 -11.56,4.71 -14.03,10.25 -1.76,3.95 -3.87,7.27 -6.19,10.21 -1.67,2.12 -2.51,2.9 -0.22,5.16 0.73,0.72 3.62,3.42 3.92,4.08z"/>
   <path class="fil0" d="M22.89 67.13l-7.22 -7.06c10.13,-9.6 8.96,-19.7 19.13,-23.98 3.73,-1.57 9.6,-1.26 10.99,1.25 0.76,0.41 1.31,1.34 1.73,2.11 1.5,2.78 1.53,6.3 0.77,9.31 -1.35,5.36 -3.83,7.57 -7.24,11.03 -4.25,4.31 -9.68,7.67 -15.18,10.49l-2.99 -3.15zm-9.84 -7.33c0,2.03 1.11,2.46 2.75,4.1l6.23 6.23c3.69,3.69 3.08,3.64 9.3,0.06 6.62,-3.81 15.79,-10.83 18.65,-18.31 1.32,-3.45 1.8,-6.79 0.98,-10.48 -0.91,-4.09 -3.81,-7.47 -7.89,-8.51 -6.66,-1.7 -12.91,1.86 -17,6.9 -2.49,3.06 -3.84,7.04 -5.91,10.49l-3.42 4.88c-0.69,0.81 -1.21,1.45 -1.96,2.19 -0.63,0.62 -1.71,1.34 -1.71,2.44z"/>
   <path class="fil0" d="M17.7 32.88c-0.31,-0.14 0.03,0.1 -0.46,-0.29 -0.2,-0.16 -0.33,-0.31 -0.52,-0.51l-2.8 -2.81c-1.3,-1.29 -2.42,-2.46 -3.75,-3.74 0.3,-1.74 4.36,-7.77 5.34,-9.2l3.17 -4.1c4.83,-5.41 11.05,-11.06 19.1,-9.53 1.05,0.2 1.93,0.5 2.81,0.93 0.49,0.24 0.75,0.35 1.21,0.67l0.86 0.89c3.58,1.95 5.93,14.65 -9.59,21.43 -1.73,0.75 -3.23,1.71 -4.68,2.58 -1.54,0.92 -3,1.95 -4.27,3l-3.81 3.43c-0.87,-0.82 -2.01,-1.68 -2.6,-2.75zm-10.22 -7.55c0,1.62 0.97,2.11 1.82,2.96 1.5,1.5 9.14,9.37 9.95,9.78 2.08,1.06 2.88,-1.01 4.51,-2.27 1.59,-1.23 1.93,-1.79 4.19,-3.29 5.78,-3.83 8.03,-3.88 12.51,-7.21 3.01,-2.23 7.29,-7.53 7.29,-12.64 0,-4.17 -0.18,-6.41 -3.47,-9.61 -2.69,-2.61 -6.06,-3.06 -9.81,-3.06 -6.61,0 -12.62,4.67 -16.67,9.49l-1.46 1.66c-2.26,2.68 -8.86,12.09 -8.86,14.18z"/>
   <path class="fil0" d="M12.76 40.08c0.86,0.46 2.28,1.89 2.77,2.73l-2.29 2.6c-1.5,1.44 -3.97,3.47 -6.4,2.76 -1.21,-0.35 -2.34,-1.31 -2.72,-2.13 -3.59,-3 -0.35,-10.26 1.57,-13.16 1.22,1.06 2.39,2.33 3.58,3.52 0.67,0.67 1.19,1.2 1.87,1.87l1.34 1.35c0.3,0.37 0.16,0.17 0.28,0.46zm-12.76 1.44c0,3.55 1.67,6.73 4.5,8.38 4.1,2.4 7.73,0.06 10.61,-2.82 0.9,-0.9 1.81,-1.83 2.51,-2.89 1.02,-1.55 0.64,-2.4 -0.54,-3.55l-8.1 -8.09c-1.42,-1.42 -3.54,-4.28 -5.62,-0.74 -1.67,2.83 -3.36,6.18 -3.36,9.72z"/>
   <path class="fil0" d="M15.36 71.6l3.04 3.11c-2.18,1.15 -4.36,2.48 -7.17,2.98 -3.12,0.56 -6.27,-0.73 -7.1,-2.64 -1.04,-0.62 -1.26,-2.06 -1.1,-3.2 0.16,-1.19 0.79,-2.12 1.32,-2.89 1.14,-1.67 2.58,-2.84 4.12,-4.14 0.76,0.37 6.24,5.89 6.89,6.77zm-14.97 1.08c0,3.79 4.64,7.68 8.51,7.68 4.58,0 6.82,-1.28 10.45,-3.26 3.78,-2.06 0.76,-4.32 -0.53,-5.62l-8.2 -8.2c-0.55,-0.57 -0.69,-0.93 -1.62,-1.09 -0.79,-0.14 -1.39,0.19 -1.93,0.56 -2.69,1.77 -6.67,5.99 -6.67,9.93z"/>
   <path class="fil1" d="M34.89 59.6c-1.44,-2.48 -7.13,-5.59 -5.12,-7.16 1.67,-1.3 4.59,3.56 7.15,5.46 1.33,-0.82 2.05,-1.97 3.16,-2.8 -0.4,-0.79 -9.06,-9.46 -9.76,-9.81 -0.9,1.74 -1.83,3.64 -2.7,5.42l-2.85 4.94c0.58,0.88 5.68,6 6.55,6.55 0.97,-0.42 2.88,-1.87 3.57,-2.61z"/>
   <path class="fil2" d="M17.7 32.88c0.31,-0.13 0.34,-0.13 0.54,-0.34 0.5,-0.51 0.33,-0.07 0.29,-0.71 -0.41,-0.78 -3.26,-3.41 -4.15,-4.29 -2.01,-1.99 -2.45,-2.48 -0.61,-5.48 1.16,-1.89 2.21,-3.5 3.36,-5.15 2.89,-4.15 8.02,-9.99 13.28,-11.84 4.84,-1.7 10,-1.13 12.31,2.63 0.55,-0.31 0.1,0.2 0.25,-0.49 0.06,-0.27 0.06,-0.48 0.03,-0.77 -0.05,-0.48 -0.2,-0.83 -0.36,-1.27l-0.86 -0.89c-0.46,-0.32 -0.71,-0.43 -1.21,-0.67 -0.88,-0.43 -1.76,-0.73 -2.81,-0.93 -8.04,-1.53 -14.27,4.12 -19.1,9.53l-3.17 4.1c-0.98,1.43 -5.04,7.46 -5.34,9.2 1.33,1.28 2.45,2.44 3.75,3.74l2.8 2.81c0.19,0.19 0.32,0.34 0.52,0.51 0.49,0.4 0.15,0.16 0.46,0.29z"/>
   <path class="fil2" d="M22.89 67.13c0.45,0.12 0.44,0.19 0.9,-0.09 0.74,-0.47 0.35,0.05 0.35,-0.56 -0.29,-0.66 -3.19,-3.36 -3.92,-4.08 -2.29,-2.27 -1.45,-3.04 0.22,-5.16 2.31,-2.94 4.43,-6.25 6.19,-10.21 2.47,-5.54 7.63,-10.86 14.03,-10.25 3.76,0.36 4.22,2.43 5.16,2.89 0.52,-0.14 0.45,0.27 0.27,-0.99 -0.06,-0.45 -0.21,-0.85 -0.3,-1.34 -1.39,-2.51 -7.26,-2.82 -10.99,-1.25 -10.18,4.28 -9,14.38 -19.13,23.98l7.22 7.06z"/>
   <path class="fil3" d="M42.73 7.72c0.63,1.37 1.4,2.9 -0.44,3.4l-0.22 3.31c1.23,1.31 0.33,2.35 -0.53,3.66 -2.1,3.2 -5.51,5.43 -9.17,7.02 -2.45,1.06 -4.84,2.63 -6.84,3.96 -4.58,3.05 -3.74,4.14 -7,2.77 0.04,0.64 0.21,0.19 -0.29,0.71 -0.2,0.2 -0.24,0.2 -0.54,0.34 0.59,1.07 1.73,1.93 2.6,2.75l3.81 -3.43c1.27,-1.04 2.73,-2.07 4.27,-3 1.45,-0.87 2.95,-1.83 4.68,-2.58 15.53,-6.77 13.18,-19.48 9.59,-21.43 0.17,0.45 0.31,0.8 0.36,1.27 0.03,0.29 0.04,0.49 -0.03,0.77 -0.16,0.69 0.29,0.18 -0.25,0.49z"/>
   <path class="fil3" d="M45.83 39.67c0.74,2.13 1.38,2.78 1.3,5.61 -0.1,4.03 -2.52,8.94 -5.21,11.43 -3.17,2.93 -4.88,4.87 -9.04,7.56 -1.29,0.83 -2.57,1.71 -4.08,2.56 -3.09,1.74 -2.88,0.63 -4.66,-0.36 0,0.61 0.39,0.1 -0.35,0.56 -0.45,0.28 -0.45,0.21 -0.9,0.09l2.99 3.15c5.5,-2.82 10.93,-6.18 15.18,-10.49 3.41,-3.46 5.89,-5.66 7.24,-11.03 0.76,-3.01 0.73,-6.53 -0.77,-9.31 -0.42,-0.77 -0.97,-1.7 -1.73,-2.11 0.09,0.49 0.23,0.89 0.3,1.34 0.18,1.25 0.25,0.84 -0.27,0.99z"/>
   <path class="fil1" d="M32.06 43.2c0.42,0.8 8.51,8.85 9.59,9.73 1.03,-0.83 1.81,-2.58 2.26,-4.08 -1.25,-1.41 -2.73,-2.77 -4.12,-4.16 -1.15,-1.15 -3.14,-3.39 -4.32,-4.23 -1.27,0.48 -2.96,1.82 -3.41,2.74z"/>
   <path class="fil1" d="M25.6 11.22c-0.92,0.42 -2.72,2.33 -3.19,3.34 1.27,0.89 6.57,6.66 8.55,8.42 0.68,-0.23 3.24,-1.4 3.81,-1.92 0.24,-0.22 0.13,-0.11 0.31,-0.36l-9.49 -9.49z"/>
   <path class="fil1" d="M37.16 19.25c0.82,-0.64 2.29,-2.16 2.74,-3.49l-8.35 -8.32c-1.2,0.2 -3.49,1.39 -4.11,2.13l9.71 9.67z"/>
   <path class="fil0" d="M7.96 44.12c-0.89,-0.69 -1.95,-2.48 -0.91,-3.99l2.77 2.94c-0.66,0.37 -0.99,0.68 -1.86,1.06zm-2.15 1.52c0.63,0.38 1.11,1.06 2.24,0.99 0.95,-0.06 1.79,-0.64 2.42,-1.07 1.77,-1.2 2.29,-2.04 1.43,-4.4 -1.66,-0.46 -3.72,-5.57 -6.48,-3.35 -0.84,0.68 -1.25,2.65 -1.21,4.12 0.05,2.15 0.91,2.54 1.61,3.72z"/>
   <path class="fil0" d="M8.23 70.55c0.79,0.37 2.39,2.1 2.93,2.75 -1.38,0.89 -3.34,0.24 -4.01,-1.08l1.07 -1.67zm-2.24 4.41c1.72,0.88 2.45,1.51 5.01,1.06 2.13,-0.38 3.29,-0.97 2.84,-3.45 -1.02,-1.12 -1.66,-1.79 -2.67,-2.79 -0.75,-0.75 -1.75,-2.34 -3.58,-1.72 -0.85,0.29 -2.14,1.96 -2.6,3 -1.2,2.68 0.84,2.92 0.99,3.9z"/>
   <path class="fil1" d="M24.74 26.59l3.84 -2.46 -7.82 -7.73c-0.92,0.85 -1.95,2.42 -2.64,3.55l6.62 6.63z"/>
   <path class="fil2" d="M4.12 46.05c0.34,0.02 0.68,0.07 1.02,-0 1.17,-0.26 0.31,-0 0.68,-0.41 -0.7,-1.17 -1.55,-1.57 -1.61,-3.72 -0.04,-1.48 0.37,-3.44 1.21,-4.12 2.76,-2.22 4.82,2.89 6.48,3.35 0.6,-0.06 0.77,-0.45 0.86,-1.08 -0.11,-0.29 0.02,-0.09 -0.28,-0.46l-1.34 -1.35c-0.67,-0.67 -1.19,-1.19 -1.87,-1.87 -1.19,-1.19 -2.36,-2.46 -3.58,-3.52 -1.92,2.9 -5.16,10.16 -1.57,13.16z"/>
   <path class="fil2" d="M4.14 75.05c0.67,0.16 1.65,0.53 1.86,-0.09 -0.16,-0.98 -2.19,-1.22 -0.99,-3.9 0.47,-1.04 1.75,-2.72 2.6,-3 1.83,-0.62 2.83,0.97 3.58,1.72 1,1 1.64,1.67 2.67,2.79 0.37,-0.06 0.63,-0.13 0.89,-0.27 0.9,-0.52 0.35,-0.06 0.63,-0.7 -0.65,-0.88 -6.13,-6.41 -6.89,-6.77 -1.54,1.29 -2.98,2.46 -4.12,4.14 -0.52,0.77 -1.16,1.7 -1.32,2.89 -0.16,1.14 0.07,2.58 1.1,3.2z"/>
   <path class="fil3" d="M13.85 72.57c0.44,2.48 -0.71,3.07 -2.84,3.45 -2.55,0.45 -3.29,-0.18 -5.01,-1.06 -0.21,0.62 -1.19,0.25 -1.86,0.09 0.82,1.92 3.98,3.2 7.1,2.64 2.81,-0.5 4.99,-1.83 7.17,-2.98l-3.04 -3.11c-0.28,0.64 0.27,0.18 -0.63,0.7 -0.25,0.14 -0.51,0.22 -0.89,0.27z"/>
   <path class="fil3" d="M11.9 41.16c0.87,2.37 0.34,3.2 -1.43,4.4 -0.63,0.43 -1.47,1 -2.42,1.07 -1.13,0.08 -1.61,-0.6 -2.24,-0.99 -0.37,0.41 0.5,0.15 -0.68,0.41 -0.34,0.07 -0.68,0.02 -1.02,0 0.37,0.82 1.5,1.77 2.72,2.13 2.43,0.7 4.9,-1.33 6.4,-2.76l2.29 -2.6c-0.49,-0.84 -1.91,-2.27 -2.77,-2.73 -0.08,0.63 -0.26,1.01 -0.86,1.08z"/>
   <path class="fil1" d="M20.34 29.8c0.47,-0.29 1.88,-1.23 2.19,-1.77 -0.73,-1.07 -2.01,-2.16 -2.89,-3.04 -0.84,-0.84 -2.06,-2.4 -3.1,-2.82 -0.33,0.9 -0.99,1.56 -1.32,2.54l5.12 5.1z"/>
   <path class="fil1" d="M26.51 65.18c1,-0.33 1.69,-1.02 2.63,-1.33 -0.48,-0.81 -5.19,-5.46 -5.92,-6.03 -0.68,0.61 -1.23,1.47 -1.79,2.27l5.08 5.09z"/>
   <path class="fil1" d="M42.07 14.42l0.22 -3.31c-1.89,-0.2 -0.98,-2.01 -2.75,-3.32 -1.24,-0.92 -3.14,-1.23 -5.03,-1.1 0.51,0.94 6.37,6.56 7.56,7.73z"/>
   <path class="fil1" d="M44.59 45.9c0.4,-4.53 -1.65,-7.28 -6.33,-6.52 0.07,0.79 2.39,2.68 2.97,3.26 0.91,0.91 2.44,2.63 3.36,3.27z"/>
   <path class="fil4" d="M7.16 72.23c0.67,1.32 2.63,1.97 4.01,1.08 -0.54,-0.65 -2.14,-2.38 -2.93,-2.75l-1.07 1.67z"/>
   <path class="fil4" d="M7.96 44.12c0.87,-0.38 1.2,-0.69 1.86,-1.06l-2.77 -2.94c-1.04,1.51 0.01,3.3 0.91,3.99z"/>
  </g>
 </g>
</svg>
