<?xml version="1.0" encoding="UTF-8"?>
<!DOCTYPE svg PUBLIC "-//W3C//DTD SVG 1.1//EN" "http://www.w3.org/Graphics/SVG/1.1/DTD/svg11.dtd">
<!-- Creator: CorelDRAW 2020 (64-Bit) -->
<svg xmlns="http://www.w3.org/2000/svg" xml:space="preserve" width="18.6324mm" height="17.0095mm" version="1.1" style="shape-rendering:geometricPrecision; text-rendering:geometricPrecision; image-rendering:optimizeQuality; fill-rule:evenodd; clip-rule:evenodd"
viewBox="0 0 3.01 2.75"
 xmlns:xlink="http://www.w3.org/1999/xlink"
 xmlns:xodm="http://www.corel.com/coreldraw/odm/2003">
 <defs>
  <style type="text/css">
   <![CDATA[
    .fil0 {fill:black}
    .fil7 {fill:#3C87D0}
    .fil5 {fill:#45585F}
    .fil1 {fill:#586B75}
    .fil3 {fill:#5D98D6}
    .fil6 {fill:#C4E2FF}
    .fil4 {fill:#C68C7A}
    .fil2 {fill:#E9F5FF}
   ]]>
  </style>
 </defs>
 <g id="Capa_x0020_1">
  <metadata id="CorelCorpID_0Corel-Layer"/>
  <g id="_2139063599264">
   <path class="fil0" d="M2.38 1.87c0.04,-0.01 0.08,0.02 0.07,0.07 -0.01,0.03 -0.05,0.07 -0.07,0.09 -0.02,0.02 -0.14,0.15 -0.16,0.15 -0.05,0.02 -0.09,-0.02 -0.08,-0.07 0.01,-0.03 0.05,-0.07 0.07,-0.09 0.04,-0.04 0.12,-0.14 0.17,-0.15zm0.63 0.58l0 0.02c-0,0.03 -0.03,0.05 -0.08,0.02l-0.44 -0.45c-0.03,0.02 -0.17,0.16 -0.18,0.18 0.03,0.02 0.08,0.08 0.11,0.11l0.22 0.22c0.03,0.03 0.09,0.1 0.12,0.11 0.01,0.01 0.02,0.03 0.01,0.05 -0.03,0.07 -0.11,-0.03 -0.12,-0.04 -0.04,-0.04 -0.4,-0.41 -0.42,-0.41 -0.06,0 -0.08,0.01 -0.12,-0.02 -0.03,-0.02 -0.06,-0.05 -0.06,-0.1l-0.07 0.02c-0.03,0.01 -0.05,0.01 -0.08,0.01 -0.11,0.02 -0.25,-0.03 -0.35,-0.09 -0.02,-0.01 -0.03,-0.02 -0.05,-0.04l-0.06 0.04c-0.1,0.05 -0.27,0.01 -0.35,-0.07 -0.12,-0.13 -0.06,-0.27 -0.03,-0.44 0.04,-0.18 0.11,-0.09 0.23,-0.08 0,-0.04 0.02,-0.06 0.02,-0.09 -0.03,-0 -0.07,-0.01 -0.1,-0.02 -0.09,-0.02 -0.1,-0.03 -0.08,-0.13 0.04,-0.15 0.06,-0.24 0.03,-0.4 -0.02,-0.09 -0.04,-0.21 -0.04,-0.3 0,-0.16 0.1,-0.37 0.21,-0.47 0.04,-0.03 0.1,-0.06 0.16,-0.07 0.35,-0.06 0.49,0.38 0.44,0.67 -0.01,0.03 -0.08,0.31 -0.1,0.35 0.02,-0 0.02,-0 0.04,-0 0.13,0.01 0.24,0.04 0.34,0.12 0.04,0.03 0.08,0.05 0.05,0.1 -0.03,0.01 -0.05,0.01 -0.07,-0 -0.02,-0.02 -0.03,-0.03 -0.06,-0.04 -0.03,-0.02 -0.1,-0.05 -0.15,-0.06 -0.14,-0.05 -0.32,0 -0.43,0.09 -0.09,0.07 -0.18,0.2 -0.18,0.39 0,0.17 0.09,0.31 0.18,0.38 0.05,0.04 0.11,0.08 0.19,0.09 0.06,0.02 0.19,0.02 0.25,-0.01 0.09,-0.02 0.13,-0.07 0.17,-0.12 0.03,-0.03 0.12,-0.11 0.14,-0.15 0.03,-0.06 0.05,-0.17 0.04,-0.24 -0.01,-0.16 -0.08,-0.16 -0.02,-0.23 0.03,0 0.04,-0 0.06,0.02 0.05,0.08 0.08,0.33 0.03,0.44 0.05,0.01 0.08,0.03 0.11,0.07 0.05,0.08 -0,0.1 0.04,0.14 0.06,0.06 0.12,0.12 0.18,0.18l0.27 0.26c0.01,0.01 0.01,0.02 0.01,0.03zm-1.64 -0.56c0.02,0.03 0.05,0.07 0.07,0.09 -0.05,0.02 -0.14,0.04 -0.19,0.01 -0.07,0 -0.14,-0.09 -0.14,-0.17 0,-0.07 0.04,-0.19 0.05,-0.26 0.04,0.01 0.1,0.01 0.13,0.03 0.01,0.15 0.02,0.19 0.08,0.3zm0.22 -0.81c-0.01,0.01 -0.06,0.04 -0.07,0.05 -0.11,0.08 -0.12,0.13 -0.17,0.19l-0.13 -0.03c0.02,-0.13 0.06,-0.21 0.05,-0.36 -0.01,-0.12 -0.05,-0.24 -0.05,-0.36 -0,-0.16 0.08,-0.36 0.18,-0.44 0.04,-0.03 0.08,-0.05 0.15,-0.05 0.11,0 0.17,0.06 0.21,0.13 0.16,0.26 0.07,0.52 -0.02,0.78 -0,0.01 -0,0.01 -0.01,0.02 -0.01,0.02 -0.11,0.05 -0.15,0.06z"/>
   <path class="fil1" d="M0.65 1.93c0.01,-0.02 -0,-0.05 -0.01,-0.08 -0.1,-0.36 0,-0.36 -0.01,-0.63 -0.01,-0.23 -0.19,-0.51 -0.31,-0.49 -0.1,-0 -0.18,0.15 -0.2,0.24 -0.09,0.26 0.02,0.47 0.11,0.72 0.02,0.05 0.04,0.11 0.06,0.16 0.02,0.05 0.05,0.11 0.06,0.17l0.3 -0.08z"/>
   <path class="fil1" d="M1.59 1.09c0.03,-0.06 0.07,-0.19 0.09,-0.25 0.03,-0.09 0.06,-0.17 0.06,-0.27 0,-0.2 -0.08,-0.34 -0.19,-0.47 -0.07,0 -0.11,0.02 -0.15,0.05 -0.1,0.07 -0.19,0.28 -0.18,0.44 0,0.12 0.04,0.24 0.05,0.36 0.01,0.15 -0.03,0.23 -0.05,0.36l0.13 0.03c0.05,-0.06 0.05,-0.11 0.17,-0.19 0.01,-0.01 0.06,-0.04 0.07,-0.05z"/>
   <path class="fil0" d="M0.71 0.92c-0.06,0.02 0,0.08 0.02,0.21 0.01,0.09 -0,0.17 -0.02,0.26 -0.05,0.36 0.03,0.34 0.04,0.51l-0.1 0.03 -0.3 0.08c-0.01,-0.05 -0.04,-0.11 -0.06,-0.17 -0.02,-0.05 -0.04,-0.11 -0.06,-0.16 -0.09,-0.25 -0.2,-0.46 -0.11,-0.72 0.03,-0.09 0.1,-0.24 0.2,-0.24 0.02,-0.02 0.07,-0.01 0.1,-0.01 0.03,0.01 0.06,0.02 0.08,0.03 0.09,0.05 0.06,0.1 0.14,0.07 0.03,-0.04 0.01,-0.06 -0.02,-0.09 -0.01,-0.01 -0.02,-0.02 -0.04,-0.03 -0.02,-0.01 -0.03,-0.02 -0.05,-0.03 -0.07,-0.04 -0.14,-0.05 -0.24,-0.03 -0.03,0.01 -0.07,0.03 -0.1,0.04 -0.06,0.04 -0.1,0.1 -0.13,0.16 -0.02,0.04 -0.03,0.07 -0.04,0.11 -0.02,0.06 -0.03,0.11 -0.03,0.17l0 0.09c0.01,0.15 0.07,0.3 0.13,0.45l0.16 0.43c0.02,0.04 0.06,0.04 0.1,0.02l0.34 -0.09c0.12,-0.03 0.15,-0.03 0.12,-0.14 -0.07,-0.23 -0.07,-0.25 -0.03,-0.5 0.02,-0.16 0.02,-0.23 -0.02,-0.38 -0.01,-0.02 -0.03,-0.09 -0.07,-0.06z"/>
   <path class="fil2" d="M1.8 1.23c0.22,-0.04 0.4,0.13 0.43,0.31 0.03,0.22 -0.13,0.39 -0.31,0.42 -0.23,0.04 -0.4,-0.13 -0.43,-0.31 -0.03,-0.22 0.13,-0.39 0.31,-0.42zm0.19 0.84c0.01,-0.02 0.03,-0.03 0.06,-0.04 0.22,-0.17 0.28,-0.48 0.12,-0.72 -0.08,-0.12 -0.16,-0.15 -0.19,-0.18 -0.14,-0.05 -0.32,0 -0.43,0.09 -0.09,0.07 -0.18,0.2 -0.18,0.39 0,0.17 0.09,0.31 0.18,0.38 0.05,0.04 0.11,0.08 0.19,0.09 0.06,0.02 0.19,0.02 0.25,-0.01z"/>
   <path class="fil3" d="M1.93 1.87c0.03,-0.02 0.04,-0.03 0.06,-0.05 0.05,-0.06 0.09,-0.13 0.09,-0.22 -0,-0.06 -0.02,-0.12 -0.04,-0.16 -0.05,-0.09 -0.07,-0.07 -0.09,-0.11 -0.19,-0.04 -0.36,0.09 -0.36,0.27 -0,0.1 0.05,0.18 0.1,0.22 0.06,0.04 0.16,0.09 0.25,0.06z"/>
   <path class="fil0" d="M1.94 1.32c0.12,0.03 0.21,0.14 0.21,0.28 -0,0.14 -0.1,0.25 -0.22,0.27 -0.09,0.03 -0.2,-0.01 -0.25,-0.06 -0.05,-0.04 -0.1,-0.12 -0.1,-0.22 0,-0.18 0.17,-0.31 0.36,-0.27zm-0.13 -0.09c-0.18,0.03 -0.34,0.2 -0.31,0.42 0.03,0.19 0.2,0.35 0.43,0.31 0.18,-0.03 0.34,-0.2 0.31,-0.42 -0.03,-0.19 -0.2,-0.35 -0.43,-0.31z"/>
   <path class="fil4" d="M2.76 2.67l0.18 -0.18 -0.44 -0.45c-0.03,0.02 -0.17,0.16 -0.18,0.18 0.03,0.02 0.08,0.08 0.11,0.11l0.22 0.22c0.03,0.03 0.09,0.1 0.12,0.11z"/>
   <path class="fil0" d="M0.73 2.2c0.02,-0.02 0.06,-0.02 0.09,-0.03 0.01,0.02 0.07,0.22 0.07,0.26 0.01,0.1 -0.06,0.17 -0.14,0.19 -0.1,0.05 -0.2,0.01 -0.24,-0.06 -0.02,-0.04 -0.07,-0.22 -0.08,-0.27 0.02,-0.02 0.28,-0.08 0.3,-0.08zm-0.39 0.06c0,0.03 0.01,0.05 0.02,0.08l0.06 0.22c0.03,0.07 0.12,0.16 0.22,0.16 0.07,0 0.09,-0 0.16,-0.03 0.04,-0.01 0.06,-0.03 0.09,-0.05 0.06,-0.05 0.09,-0.13 0.09,-0.22 0,-0.03 -0.01,-0.07 -0.02,-0.1l-0.05 -0.19c-0.03,-0.1 -0.13,-0.05 -0.22,-0.03 -0.05,0.01 -0.09,0.02 -0.14,0.04 -0.03,0.01 -0.16,0.04 -0.19,0.06 -0.01,0.01 -0.03,0.04 -0.03,0.06z"/>
   <path class="fil5" d="M0.32 0.73c0.12,-0.02 0.3,0.26 0.31,0.49 0.01,0.27 -0.09,0.27 0.01,0.63 0.01,0.03 0.02,0.06 0.01,0.08l0.1 -0.03c-0.01,-0.16 -0.09,-0.15 -0.04,-0.51 0.01,-0.09 0.03,-0.17 0.02,-0.26 -0.02,-0.14 -0.08,-0.19 -0.02,-0.21 -0.01,-0.03 -0.04,-0.08 -0.06,-0.1 -0.08,0.03 -0.05,-0.02 -0.14,-0.07 -0.02,-0.01 -0.05,-0.02 -0.08,-0.03 -0.03,-0 -0.08,-0.01 -0.1,0.01z"/>
   <path class="fil1" d="M0.75 2.61c0.05,-0.05 0.05,-0.14 0.04,-0.21 -0.01,-0.03 -0.04,-0.19 -0.06,-0.2 -0.02,-0 -0.28,0.06 -0.3,0.08 0.01,0.06 0.06,0.23 0.08,0.27 0.04,0.07 0.14,0.11 0.24,0.06z"/>
   <path class="fil5" d="M1.59 1.09c0.04,-0.01 0.13,-0.04 0.15,-0.06 0,-0.01 0,-0.01 0.01,-0.02 0.09,-0.26 0.18,-0.52 0.02,-0.78 -0.04,-0.07 -0.1,-0.13 -0.21,-0.13 0.11,0.13 0.2,0.27 0.19,0.47 -0,0.11 -0.04,0.18 -0.06,0.27 -0.02,0.06 -0.06,0.2 -0.09,0.25z"/>
   <path class="fil1" d="M1.24 1.99c0.05,-0.01 0.12,-0.05 0.12,-0.1 -0.06,-0.12 -0.07,-0.16 -0.08,-0.3 -0.03,-0.02 -0.09,-0.02 -0.13,-0.03 -0.01,0.07 -0.05,0.19 -0.05,0.26 -0,0.09 0.07,0.18 0.14,0.17z"/>
   <path class="fil6" d="M1.99 2.07c0.09,-0.02 0.13,-0.07 0.17,-0.12 0.03,-0.03 0.12,-0.11 0.14,-0.15 0.03,-0.06 0.05,-0.17 0.04,-0.24 -0.01,-0.16 -0.08,-0.16 -0.02,-0.23 -0.01,-0.01 -0.01,-0.01 -0.01,-0.02 -0.01,-0.01 -0.01,-0.01 -0.02,-0.02 -0.01,-0.02 -0.02,-0.03 -0.04,-0.04 -0.03,0.01 -0.05,0.01 -0.07,-0 -0.02,-0.02 -0.03,-0.03 -0.06,-0.04 -0.03,-0.02 -0.1,-0.05 -0.15,-0.06 0.03,0.03 0.11,0.06 0.19,0.18 0.16,0.24 0.1,0.55 -0.12,0.72 -0.02,0.02 -0.04,0.03 -0.06,0.04z"/>
   <path class="fil1" d="M2.38 1.87c-0.04,0.01 -0.13,0.11 -0.17,0.15 -0.02,0.02 -0.07,0.06 -0.07,0.09 -0.01,0.05 0.03,0.09 0.08,0.07 0.02,-0.01 0.14,-0.13 0.16,-0.15 0.02,-0.02 0.07,-0.06 0.07,-0.09 0.01,-0.05 -0.03,-0.08 -0.07,-0.07z"/>
   <path class="fil5" d="M0.73 2.2c0.01,0.02 0.05,0.17 0.06,0.2 0.02,0.07 0.02,0.16 -0.04,0.21 0.08,-0.02 0.15,-0.09 0.14,-0.19 -0,-0.04 -0.05,-0.23 -0.07,-0.26 -0.03,0 -0.07,0.01 -0.09,0.03z"/>
   <path class="fil7" d="M1.93 1.87c0.11,-0.02 0.22,-0.13 0.22,-0.27 0,-0.14 -0.09,-0.25 -0.21,-0.28 0.02,0.04 0.04,0.02 0.09,0.11 0.03,0.04 0.04,0.1 0.04,0.16 0,0.09 -0.03,0.16 -0.09,0.22 -0.02,0.02 -0.03,0.03 -0.06,0.05z"/>
   <path class="fil5" d="M1.24 1.99c0.05,0.04 0.14,0.02 0.19,-0.01 -0.02,-0.03 -0.05,-0.06 -0.07,-0.09 -0.01,0.05 -0.07,0.09 -0.12,0.1z"/>
  </g>
 </g>
</svg>
