<?xml version="1.0" encoding="UTF-8"?>
<!DOCTYPE svg PUBLIC "-//W3C//DTD SVG 1.1//EN" "http://www.w3.org/Graphics/SVG/1.1/DTD/svg11.dtd">
<!-- Creator: CorelDRAW 2020 (64-Bit) -->
<svg xmlns="http://www.w3.org/2000/svg" xml:space="preserve" width="9.6595mm" height="7.5445mm" version="1.1" style="shape-rendering:geometricPrecision; text-rendering:geometricPrecision; image-rendering:optimizeQuality; fill-rule:evenodd; clip-rule:evenodd"
viewBox="0 0 4.99 3.9"
 xmlns:xlink="http://www.w3.org/1999/xlink"
 xmlns:xodm="http://www.corel.com/coreldraw/odm/2003">
 <defs>
  <style type="text/css">
   <![CDATA[
    .fil0 {fill:black}
    .fil2 {fill:#00F0A3}
    .fil4 {fill:#09A5ED}
    .fil5 {fill:#118ECD}
    .fil3 {fill:#E4F6FF}
    .fil1 {fill:#F4FBFF}
   ]]>
  </style>
 </defs>
 <g id="Capa_x0020_1">
  <metadata id="CorelCorpID_0Corel-Layer"/>
  <g id="_2032441284416">
   <path class="fil0" d="M2.99 3.67c0.06,-0.08 0.11,-0.11 0.2,-0.26 0.05,-0.07 0.13,-0.23 0.15,-0.32l0.52 0c-0.04,0.09 -0.29,0.29 -0.38,0.35 -0.11,0.07 -0.35,0.21 -0.5,0.23zm2 -2.22l0 0.89 0 0.12c-0.01,0.11 -0.09,0.07 -0.64,0.07 -0.03,0.14 -0.18,0.42 -0.27,0.54 -0.61,0.81 -1.63,1.05 -2.54,0.56 -0.15,-0.08 -0.33,-0.22 -0.45,-0.35 -0.02,-0.02 -0.03,-0.04 -0.05,-0.06 -0.15,-0.16 -0.35,-0.48 -0.4,-0.69 -0.58,0 -0.64,0.06 -0.64,-0.11l0 -0.8 0 -0.2c0,-0.04 0.02,-0.06 0.04,-0.08 0.05,-0.03 0.51,-0.01 0.61,-0.01 0.01,-0.06 0.03,-0.1 0.05,-0.15 0.02,-0.05 0.04,-0.09 0.06,-0.14 0.13,-0.23 0.13,-0.23 0.28,-0.41 0.02,-0.02 0.02,-0.03 0.04,-0.05 0.09,-0.09 0.14,-0.16 0.23,-0.12 0.03,0.12 -0,0.1 -0.07,0.17 -0.03,0.02 -0.04,0.04 -0.07,0.07 -0.01,0.01 -0.02,0.02 -0.03,0.04 -0.01,0.01 -0.01,0.02 -0.02,0.02 -0.01,0.02 0,-0.01 -0.01,0.02l0.52 0c0.02,-0.09 0.11,-0.24 0.15,-0.32 0.1,-0.16 0.16,-0.19 0.2,-0.26 -0.09,0.02 -0.21,0.07 -0.29,0.1 -0.18,0.08 -0.13,0.12 -0.25,0.05 0,-0.06 -0,-0.08 0.04,-0.11 0.08,-0.05 0.2,-0.1 0.3,-0.14 0.14,-0.06 0.29,-0.09 0.46,-0.11 0.57,-0.07 1.03,0.1 1.44,0.4l0.22 0.2c0.17,0.2 0.36,0.47 0.42,0.73 0.09,0 0.08,0.01 0.11,0.07 -0.03,0.04 -0.01,0.06 -0.07,0.07l-0.44 0 -0 0.79 -0 0.1 0.9 0 0 -0.9 -0.11 -0c-0.06,-0 -0.08,-0.02 -0.09,-0.08 0.01,-0.09 0.11,-0.07 0.21,-0.07 0.12,-0 0.14,0.01 0.14,0.1zm-1.88 1.8c-0.01,0.05 -0.06,0.12 -0.09,0.16 -0.04,0.05 -0.07,0.09 -0.11,0.13 -0.07,0.07 -0.17,0.16 -0.31,0.19l-0.03 0.01c-0.01,-0.08 -0.01,-0.6 0,-0.65l0.62 -0 -0.01 0.02c-0.01,0.04 -0.05,0.13 -0.08,0.15zm-0.71 0.47c-0.07,-0.01 -0.15,-0.06 -0.2,-0.09 -0.07,-0.05 -0.1,-0.08 -0.15,-0.14 -0.05,-0.04 -0.21,-0.3 -0.24,-0.4l-0.01 -0.01 0.63 -0c0.02,0.05 0.01,0.57 0,0.65l-0.03 -0.01zm-0.58 -0.27c0.03,0.02 0.06,0.08 0.09,0.11 0.03,0.04 0.06,0.07 0.09,0.1 -0.11,-0.02 -0.26,-0.1 -0.36,-0.15l-0.23 -0.15c-0.03,-0.03 -0.05,-0.03 -0.07,-0.07 -0.03,-0.01 -0.09,-0.07 -0.11,-0.1 -0.03,-0.03 -0.09,-0.08 -0.1,-0.12l0.52 -0c0.02,0.06 0.05,0.13 0.08,0.19 0.02,0.04 0.09,0.14 0.09,0.18zm0.6 -0.92c0.02,0.01 0.01,0.02 0.01,0.09l-0 0.32c-0.01,0 -0.57,0.02 -0.65,0.01 -0.05,-0.01 -0.02,-0 -0.04,-0.02 -0.04,-0.07 -0.09,-0.3 -0.1,-0.39l0.78 0zm0.84 0.39c-0.01,0.03 -0.04,0.02 -0.08,0.02 -0.13,-0 -0.55,0.01 -0.61,-0.01l-0 -0.31c-0,-0.02 -0,-0.03 -0,-0.05 0,-0.05 0,-0.04 0.01,-0.05l0.78 -0c-0.01,0.09 -0.07,0.32 -0.1,0.39zm0.16 0c-0,-0.05 0.07,-0.31 0.09,-0.39l0.3 -0 0.39 0c-0.04,0.13 -0.14,0.32 -0.2,0.4l-0.57 0 0 -0.01zm-3.27 -0.65l0 -0.79 3.64 0c0.02,0.02 0.01,-0.02 0.01,0.04l-0 0.86c-0.61,0.02 -1.38,0 -2.02,0 -0.11,0 -0.23,0 -0.34,0 -0.09,0 -0.25,-0.03 -0.29,0.04 -0.01,0.09 0.03,0.1 0.12,0.1 0.07,-0 0.16,-0.01 0.22,0l0.09 0.4 -0.57 0c-0.07,-0.09 -0.17,-0.28 -0.21,-0.4 0.09,-0 0.15,0.01 0.15,-0.09 -0.03,-0.07 -0.07,-0.06 -0.16,-0.06l-0.64 0 -0 -0.1zm3.11 -1.33c0.03,0.07 0.09,0.3 0.1,0.39l-0.78 -0c-0.02,-0.01 -0.01,-0.02 -0.01,-0.09l0 -0.32c0.01,-0 0.57,-0.02 0.65,-0.01 0.05,0.01 0.02,0 0.04,0.02zm-1.52 -0c0.01,-0.03 0.09,-0.02 0.16,-0.02 0.1,0 0.47,-0.01 0.52,0.01l0 0.38c-0.01,0.03 0,0 -0.01,0.02l-0.78 0c0.01,-0.09 0.07,-0.32 0.1,-0.39zm2.28 0.39l-0.52 -0c-0.02,-0.09 -0.09,-0.35 -0.09,-0.4l-0.01 -0.01 0.58 -0c0.06,0.08 0.17,0.28 0.2,0.4l-0.17 0zm-2.54 -0l-0.68 0c0.03,-0.11 0.14,-0.34 0.2,-0.41l0.58 0 -0.1 0.4zm1.11 -1.19c0.15,0.02 0.3,0.16 0.36,0.24 0.05,0.06 0.2,0.28 0.23,0.39l0.01 0.01 -0.63 0c-0.01,-0.05 -0.01,-0.57 -0,-0.65 0.02,-0 0.02,-0 0.03,0.01zm-0.79 0.63c0.03,-0.11 0.17,-0.31 0.22,-0.38 0.06,-0.08 0.22,-0.23 0.37,-0.24 0.02,-0.01 0,-0.01 0.03,-0.01 0.01,0.07 0.01,0.6 -0,0.65l-0.62 0 0.01 -0.02zm1.19 -0.57c0.19,0.03 0.56,0.25 0.7,0.38 0.04,0.04 0.16,0.14 0.18,0.19l-0.52 0c-0.03,-0.14 -0.16,-0.34 -0.25,-0.45 -0.04,-0.05 -0.08,-0.08 -0.11,-0.12z"/>
   <polygon class="fil1" points="0.15,2.29 3.8,2.29 3.79,2.29 3.79,1.5 0.15,1.5 "/>
   <path class="fil2" d="M4.49 2.14c-0.15,0.04 -0.25,0.02 -0.33,-0.08 -0.08,-0.11 -0.04,-0.24 0.03,-0.32 0.16,-0.16 0.5,-0.06 0.4,0.29 0.02,0.03 0.13,0.11 0.06,0.17 -0.07,0.07 -0.14,-0.04 -0.17,-0.06zm-0.54 0.15c0.13,0 0.27,0 0.4,0 0.07,0 0.34,0.02 0.37,-0.02 0.03,-0.04 0.01,-0.67 0.01,-0.77 -0.06,-0 -0.08,-0.02 -0.09,-0.08l-0.19 0.01c-0.03,0.04 -0.01,0.06 -0.07,0.07l-0.44 0 -0 0.79z"/>
   <path class="fil3" d="M0.15 2.29l0 0.1 0.64 -0c0.09,-0 0.13,-0.02 0.16,0.06 0.03,0.03 0.03,0.02 0.08,0.02 0.04,-0 0.07,-0 0.11,-0 0.01,-0.05 0.01,-0.02 0.02,-0.03 0.05,-0.07 0.2,-0.04 0.29,-0.04 0.11,0 0.23,0 0.34,0 0.64,0 1.41,0.02 2.02,-0l0 -0.86c-0.01,-0.06 0,-0.02 -0.01,-0.04l0 0.79 0.01 0 -3.66 0z"/>
   <path class="fil4" d="M2.41 1.35l0 -0.4c-0.11,0 -0.61,-0.02 -0.68,0.01 -0.04,0.07 -0.09,0.3 -0.1,0.39l0.78 -0z"/>
   <path class="fil4" d="M2.58 1.35l0.78 0c-0.01,-0.09 -0.07,-0.32 -0.1,-0.39 -0.06,-0.02 -0.57,-0.01 -0.68,-0.01l0 0.4z"/>
   <path class="fil4" d="M1.74 2.94c0.06,0.02 0.57,0.01 0.68,0.01l-0 -0.4 -0.78 -0c0.01,0.09 0.06,0.32 0.1,0.39z"/>
   <path class="fil4" d="M3.25 2.94c0.03,-0.07 0.09,-0.3 0.1,-0.39l-0.78 0 -0 0.4c0.11,0 0.62,0.02 0.68,-0.01z"/>
   <path class="fil4" d="M0.95 2.45c0,0.1 -0.05,0.09 -0.15,0.09 0.04,0.13 0.14,0.32 0.21,0.4l0.57 -0 -0.09 -0.4c-0.06,-0.01 -0.15,-0 -0.22,-0 -0.08,0 -0.13,-0.01 -0.12,-0.1 -0.01,0.01 -0.01,-0.02 -0.02,0.03 -0.04,0 -0.07,0 -0.11,0 -0.05,0 -0.05,0.01 -0.08,-0.02z"/>
   <path class="fil4" d="M3.19 0.79c-0.03,-0.11 -0.17,-0.32 -0.23,-0.39 -0.07,-0.08 -0.22,-0.22 -0.36,-0.24 -0.02,0.01 -0.02,-0.01 -0.02,0.06l0 0.58c0.09,0 0.57,0.01 0.61,-0.01z"/>
   <path class="fil4" d="M1.81 0.79c0.04,0.02 0.52,0.01 0.61,0.01l0 -0.57c0,-0 0,-0.04 0,-0.04 -0.01,-0.05 0.01,-0.02 -0.02,-0.03 -0.14,0.02 -0.3,0.17 -0.37,0.24 -0.06,0.07 -0.2,0.27 -0.22,0.38z"/>
   <path class="fil4" d="M1.58 0.95l-0.58 -0c-0.06,0.07 -0.17,0.29 -0.2,0.41l0.68 -0 0.1 -0.4z"/>
   <path class="fil4" d="M1.46 0.38c-0.02,0.02 -0.05,0.04 -0.07,0.06 -0.03,0.02 -0.05,0.04 -0.08,0.05 0.03,0.12 -0,0.1 -0.07,0.17 -0.03,0.02 -0.04,0.04 -0.07,0.07 -0.01,0.01 -0.02,0.02 -0.03,0.04 -0.01,0.01 -0.01,0.02 -0.02,0.02 -0.01,0.02 0,-0.01 -0.01,0.02l0.52 0c0.02,-0.09 0.11,-0.24 0.15,-0.32 0.1,-0.16 0.16,-0.19 0.2,-0.26 -0.09,0.02 -0.21,0.07 -0.29,0.1 -0.18,0.08 -0.13,0.12 -0.25,0.05z"/>
   <path class="fil4" d="M2.04 3.5c0.14,-0 0.24,0 0.38,-0.01l0 -0.39c-0.1,0 -0.56,-0.02 -0.61,0.01 0.03,0.1 0.19,0.35 0.24,0.4z"/>
   <path class="fil4" d="M4.02 1.35c0.01,-0.07 -0.06,-0.33 -0.09,-0.39 -0.07,0 -0.48,0.01 -0.51,-0.01 -0,0.05 0.07,0.31 0.09,0.4l0.52 0z"/>
   <path class="fil5" d="M2.99 3.67c0.15,-0.02 0.39,-0.16 0.5,-0.23 0.09,-0.06 0.34,-0.26 0.38,-0.35l-0.52 -0c-0.02,0.09 -0.11,0.24 -0.15,0.32 -0.1,0.16 -0.15,0.18 -0.2,0.26z"/>
   <path class="fil4" d="M2.99 0.22c0.03,0.04 0.07,0.08 0.11,0.12 0.09,0.11 0.21,0.32 0.25,0.45l0.52 -0c-0.02,-0.05 -0.14,-0.15 -0.18,-0.19 -0.14,-0.14 -0.51,-0.35 -0.7,-0.38z"/>
   <path class="fil2" d="M3.95 2.29l-0 0.1 0.9 0 0 -0.9 -0.11 -0c0,0.1 0.01,0.73 -0.01,0.77 -0.03,0.04 -0.31,0.02 -0.37,0.02 -0.13,0 -0.27,0 -0.4,0z"/>
   <path class="fil0" d="M4.34 1.82c0.13,-0.04 0.18,0.17 0.05,0.2 -0.14,0.03 -0.19,-0.16 -0.05,-0.2zm0.14 0.32c0.03,0.03 0.11,0.13 0.17,0.06 0.07,-0.07 -0.04,-0.14 -0.06,-0.17 0.1,-0.35 -0.24,-0.45 -0.4,-0.29 -0.07,0.07 -0.11,0.21 -0.03,0.32 0.08,0.1 0.18,0.12 0.33,0.08z"/>
   <path class="fil5" d="M3.42 2.94l-0 0.01 0.57 -0c0.07,-0.08 0.17,-0.28 0.2,-0.4l-0.39 -0c0,0.07 -0.19,0.29 -0.25,0.36 -0.06,0.07 -0.07,0.01 -0.14,0.04z"/>
   <path class="fil4" d="M2.57 3.46c0.1,-0.02 0.19,-0.05 0.28,-0.08 0.1,-0.04 0.17,-0.08 0.26,-0.12 0.02,-0.02 0.07,-0.11 0.08,-0.15 -0.04,-0.02 -0.52,-0.01 -0.61,-0.01l0 0.36z"/>
   <path class="fil4" d="M1.34 3.31c0.06,0.01 0.16,0.07 0.23,0.09 0.04,0.01 0.21,0.07 0.25,0.06 -0.01,-0.03 -0.08,-0.14 -0.09,-0.18 -0.03,-0.06 -0.07,-0.13 -0.08,-0.19l-0.52 0c0.02,0.04 0.07,0.09 0.1,0.12 0.02,0.02 0.08,0.09 0.11,0.1z"/>
   <path class="fil5" d="M2.57 3.46l0 0.26c0.01,0.01 -0.02,0.01 0.02,0.01 0.14,-0.02 0.24,-0.11 0.31,-0.19 0.05,-0.05 0.07,-0.08 0.11,-0.13 0.03,-0.04 0.08,-0.1 0.09,-0.16 -0.09,0.04 -0.15,0.08 -0.26,0.12 -0.09,0.03 -0.18,0.06 -0.28,0.08z"/>
   <path class="fil4" d="M3.42 2.94c0.07,-0.03 0.08,0.03 0.14,-0.04 0.05,-0.07 0.25,-0.28 0.25,-0.36l-0.3 0c-0.02,0.08 -0.09,0.34 -0.09,0.39z"/>
   <path class="fil5" d="M2.04 3.5c0.06,0.06 0.08,0.09 0.15,0.14 0.05,0.03 0.13,0.08 0.2,0.09 0.04,0 0.01,0 0.02,-0.01l0 -0.23c-0.14,0.01 -0.24,0.01 -0.38,0.01z"/>
   <path class="fil5" d="M3.42 0.96c0.03,0.02 0.44,0.01 0.51,0.01 0.03,0.06 0.11,0.32 0.09,0.39l0.17 -0c-0.03,-0.12 -0.14,-0.33 -0.2,-0.4l-0.58 0 0.01 0.01z"/>
   <path class="fil5" d="M1.82 3.46c-0.04,0.01 -0.2,-0.05 -0.25,-0.06 -0.07,-0.02 -0.17,-0.08 -0.23,-0.09 0.02,0.04 0.04,0.04 0.07,0.07l0.23 0.15c0.09,0.05 0.24,0.12 0.36,0.15 -0.03,-0.03 -0.06,-0.06 -0.09,-0.1 -0.03,-0.03 -0.06,-0.09 -0.09,-0.11z"/>
   <path class="fil2" d="M4.34 1.82c-0.14,0.04 -0.08,0.23 0.05,0.2 0.13,-0.03 0.08,-0.24 -0.05,-0.2z"/>
   <path class="fil4" d="M3.19 0.79c-0.04,0.02 -0.52,0.01 -0.61,0.01l-0 -0.58c-0,-0.07 0,-0.05 0.02,-0.06 -0.01,-0.01 -0.01,-0.01 -0.03,-0.01 -0.01,0.08 -0.01,0.6 0,0.65l0.63 -0 -0.01 -0.01z"/>
   <path class="fil4" d="M1.81 0.79l-0.01 0.02 0.62 -0c0.01,-0.05 0.01,-0.57 0,-0.65 -0.03,-0 -0.01,-0 -0.03,0.01 0.03,0.01 0.02,-0.03 0.02,0.03 0,0 -0,0.04 -0,0.04l-0 0.57c-0.09,0 -0.57,0.01 -0.61,-0.01z"/>
   <path class="fil5" d="M2.6 3.73c-0.04,0 -0.01,0 -0.02,-0.01l-0 -0.26 0 -0.36c0.09,0 0.57,-0.01 0.61,0.01l0.01 -0.02 -0.62 0c-0.01,0.05 -0.01,0.57 -0,0.65l0.03 -0.01z"/>
   <path class="fil4" d="M1.81 3.11c0.05,-0.03 0.52,-0.01 0.61,-0.01l-0 0.39 -0 0.23c-0.01,0.01 0.02,0.01 -0.02,0.01l0.03 0.01c0.01,-0.08 0.01,-0.6 -0,-0.65l-0.63 0 0.01 0.01z"/>
   <path class="fil4" d="M1.74 2.94c0.01,0.02 -0.02,0.01 0.04,0.02 0.08,0.01 0.64,-0 0.65,-0.01l0 -0.32c0,-0.07 0.01,-0.07 -0.01,-0.09l0 0.4c-0.11,0 -0.61,0.02 -0.68,-0.01z"/>
   <path class="fil4" d="M2.58 1.35l-0 -0.4c0.11,0 0.61,-0.02 0.68,0.01 -0.01,-0.02 0.01,-0.01 -0.04,-0.02 -0.08,-0.01 -0.64,0 -0.65,0.01l-0 0.32c-0,0.07 -0.01,0.07 0.01,0.09z"/>
   <path class="fil4" d="M3.25 2.94c-0.06,0.02 -0.57,0.01 -0.68,0.01l0 -0.4c-0.01,0.01 -0.01,-0 -0.01,0.05 -0,0.02 0,0.03 0,0.05l0 0.31c0.06,0.01 0.48,0 0.61,0.01 0.04,0 0.06,0.01 0.08,-0.02z"/>
   <path class="fil4" d="M2.41 1.35c0.02,-0.02 0,0.01 0.01,-0.02l-0 -0.38c-0.05,-0.01 -0.42,-0.01 -0.52,-0.01 -0.07,0 -0.15,-0.01 -0.16,0.02 0.07,-0.02 0.57,-0.01 0.68,-0.01l-0 0.4z"/>
  </g>
 </g>
</svg>
