<svg id="Capa_1" data-name="Capa 1" xmlns="http://www.w3.org/2000/svg" xmlns:xlink="http://www.w3.org/1999/xlink" viewBox="0 0 198.425 198.425"><defs><style>.cls-1{fill:none;}.cls-2{clip-path:url(#clip-path);}.cls-3{fill:#ffdfba;}.cls-4{fill:#fe4f60;}.cls-5{fill:#42434d;}.cls-6{fill:#ffebd2;}.cls-7{fill:#fff3e4;}.cls-8{fill:#ffd6a6;}.cls-9{fill:#ff6d7a;}.cls-10{fill:#e84857;}.cls-11{fill:#4d4e59;}</style><clipPath id="clip-path"><rect class="cls-1" x="38.062" y="9.425" width="121.875" height="180"/></clipPath></defs><title>User</title><g class="cls-2"><path class="cls-3" d="M156.743,168.705v14.722a3,3,0,0,1-3,3H44.257a3,3,0,0,1-3-3V168.705a27.963,27.963,0,0,1,27.968-27.96,15.523,15.523,0,0,0,13.034-7.072c2.779-4.272,2.493-7.987,2.493-10.99l.056-.137A37.123,37.123,0,0,1,61.881,88.238V87.064a9.25,9.25,0,0,1-9.375-9.2V62.279c-.119-5.426.128-24.559,13.949-37.881,16.069-15.489,41.537-14.222,59.983-5.935a.751.751,0,0,1-.026,1.379L121.6,21.821a.752.752,0,0,0,.205,1.442l2.336.25a37.842,37.842,0,0,1,28.017,17.379.807.807,0,0,1-.1.926A22.683,22.683,0,0,0,145.869,57.4V77.863a9.2,9.2,0,0,1-9.2,9.2h-.547v1.174a37.127,37.127,0,0,1-22.929,34.308l.056.137c0,2.917-.31,6.682,2.493,10.99a15.524,15.524,0,0,0,13.034,7.072,27.963,27.963,0,0,1,27.968,27.96Zm0,0"/><path class="cls-4" d="M156.743,168.705v14.722a3,3,0,0,1-3,3H44.257a3,3,0,0,1-3-3V168.705a27.966,27.966,0,0,1,27.967-27.96,15.524,15.524,0,0,0,13.035-7.072,25.734,25.734,0,0,0,33.482,0,15.524,15.524,0,0,0,13.035,7.072,27.966,27.966,0,0,1,27.967,27.96Zm0,0"/><path class="cls-5" d="M152.159,40.894a.8.8,0,0,1-.1.923A22.7,22.7,0,0,0,145.869,57.4V77.863c0,4.645-3.5,9.2-9.75,9.2V63.9a18,18,0,0,0-18-18H79.876a18,18,0,0,0-18,18V87.064a9.248,9.248,0,0,1-9.373-9.2V62.279c-.119-5.426.128-24.559,13.949-37.881,16.069-15.489,41.537-14.222,59.983-5.935a.751.751,0,0,1-.026,1.379L121.6,21.823a.75.75,0,0,0,.205,1.44l2.336.25a37.835,37.835,0,0,1,28.015,17.381Zm0,0"/></g><path class="cls-6" d="M136.121,88.238A37.121,37.121,0,0,1,99,125.356c-19.307,0-37.119-15.008-37.119-38.292V63.9a18,18,0,0,1,18-18h38.246a18,18,0,0,1,18,18Zm0,0"/><path class="cls-7" d="M90.6,112.208c6.1,3.818,1.291,13.182-5.39,10.5A37.122,37.122,0,0,1,61.881,88.238V63.9a17.908,17.908,0,0,1,3.157-10.187,4.433,4.433,0,0,1,8.091,2.689V80.738A36.853,36.853,0,0,0,90.6,112.208Zm0,0"/><path class="cls-8" d="M113.672,128.841a37.226,37.226,0,0,1-29.344,0,23.213,23.213,0,0,0,.424-6.158l.056-.137a37.2,37.2,0,0,0,28.384,0l.056.137a23.213,23.213,0,0,0,.424,6.158Zm0,0"/><path class="cls-9" d="M84.333,149.8a15.271,15.271,0,0,1-4.467.69,28.041,28.041,0,0,0-28.111,27.865v2.818a5.249,5.249,0,0,1-5.248,5.25h-2.25a3,3,0,0,1-3-3V168.705a27.965,27.965,0,0,1,27.967-27.96,15.524,15.524,0,0,0,13.035-7.072,25.827,25.827,0,0,0,3.567,2.558A7.492,7.492,0,0,1,84.333,149.8Zm0,0"/><path class="cls-10" d="M113.667,149.8a15.271,15.271,0,0,0,4.467.69,28.041,28.041,0,0,1,28.111,27.865v2.818a5.249,5.249,0,0,0,5.248,5.25h2.25a3,3,0,0,0,3-3V168.705a27.965,27.965,0,0,0-27.967-27.96,15.524,15.524,0,0,1-13.035-7.072,25.827,25.827,0,0,1-3.567,2.558,7.492,7.492,0,0,0,1.493,13.572Zm0,0"/><path class="cls-11" d="M126.412,19.842c-4.409,1.815-5.037,2.216-6.563,1.977C95.224,18,73.62,28.192,66.283,52.111v0a17.907,17.907,0,0,0-4.4,11.789V77.972c0,6.071-9.375,6.492-9.375-.109V62.279c-.119-5.426.128-24.559,13.949-37.881,16.069-15.489,41.537-14.222,59.983-5.935a.751.751,0,0,1-.026,1.379Zm0,0"/><path d="M159.742,168.707v17.719a3,3,0,0,1-6,0V168.707a24.946,24.946,0,0,0-24.961-24.961,18.417,18.417,0,0,1-15.846-8.9,3,3,0,1,1,5.123-3.12,12.467,12.467,0,0,0,10.723,6.018,30.942,30.942,0,0,1,30.96,30.96ZM107.4,138.637a3,3,0,0,1-2.292,3.571,28.713,28.713,0,0,1-22.315-4.365,18.188,18.188,0,0,1-13.57,5.9,24.948,24.948,0,0,0-24.963,24.961v17.719a3,3,0,0,1-6,0V168.707a30.943,30.943,0,0,1,30.96-30.96,12.505,12.505,0,0,0,12.535-12.5v-.789A40.187,40.187,0,0,1,58.909,89.719a12.244,12.244,0,0,1-9.4-11.856V62.311c-.164-7.611.967-26.674,14.866-40.072C81.537,5.693,109.062,6.744,129.3,16.487a3.007,3.007,0,0,1,.634,5,40.477,40.477,0,0,1,24.774,17.825,3.31,3.31,0,0,1,.69,2.356,3.019,3.019,0,0,1-.861,1.9A19.6,19.6,0,0,0,148.869,57.4v20.46a3,3,0,0,1-6,0V57.4A25.539,25.539,0,0,1,148.7,41.1a34.646,34.646,0,0,0-24.872-14.6l-5.271-.566a3,3,0,0,1-.822-5.756l2.4-.988C88.9,8.3,55.505,20.4,55.505,62.279V77.863A6.2,6.2,0,0,0,58.88,83.35V63.905a21.024,21.024,0,0,1,21-21h38.246a21.02,21.02,0,0,1,21,21v24.56c0,26.087-25.492,45.9-51.432,38.265a18.366,18.366,0,0,1-1.569,6.125,22.71,22.71,0,0,0,17.708,3.492,3,3,0,0,1,3.57,2.292ZM99,122.356a34.158,34.158,0,0,0,34.12-34.12V63.9a15.013,15.013,0,0,0-15-15H79.878a15.014,15.014,0,0,0-15,15V88.236A34.158,34.158,0,0,0,99,122.356Zm30.372,51.7h-9a3,3,0,0,0,0,6h9a3,3,0,0,0,0-6Zm0,0"/></svg>