<svg id="Capa_1" data-name="Capa 1" xmlns="http://www.w3.org/2000/svg" viewBox="0 0 198.425 198.425"><defs><style>.cls-1{fill:#ffdfba;}.cls-2{fill:#ffad5f;}.cls-3{fill:#42434d;}.cls-4{fill:#ffebd2;}.cls-5{fill:#ff9015;}.cls-6{fill:#ff6b00;}.cls-7{fill:#fff3e4;}.cls-8{fill:#ffd6a6;}.cls-9{fill:#4d4e59;}</style></defs><title>User</title><path class="cls-1" d="M155.476,166.707V181.05a2.923,2.923,0,0,1-2.922,2.924H45.871a2.923,2.923,0,0,1-2.921-2.924V166.707a27.105,27.105,0,0,1,27.1-27.244,15.118,15.118,0,0,0,15.279-15.1v-2.494l.054-.136A36.173,36.173,0,0,1,63.044,88.3V87.157a9.011,9.011,0,0,1-9.134-8.966V42.584a9.865,9.865,0,0,1,9.863-9.866A29.068,29.068,0,0,1,90.755,14.451h25.066a29.059,29.059,0,0,1,29.06,29.06V77.658a9.5,9.5,0,0,1-9.5,9.5V88.3a36.174,36.174,0,0,1-22.341,33.429l.054.136v2.494a15.117,15.117,0,0,0,15.279,15.1,27.106,27.106,0,0,1,27.1,27.244Zm0,0"/><path class="cls-2" d="M155.476,166.707V181.05a2.923,2.923,0,0,1-2.922,2.924H45.871a2.923,2.923,0,0,1-2.921-2.924V166.707a27.106,27.106,0,0,1,27.1-27.245,15.107,15.107,0,0,0,6.183-1.249v0a25.1,25.1,0,0,0,45.961,0v0a15.107,15.107,0,0,0,6.183,1.249,27.107,27.107,0,0,1,27.1,27.245Zm0,0"/><path class="cls-3" d="M144.881,43.511V77.658a9.5,9.5,0,0,1-9.5,9.5V64.589a17.537,17.537,0,0,0-17.536-17.537H80.579A17.536,17.536,0,0,0,63.044,64.589V87.157a9.011,9.011,0,0,1-9.134-8.966V42.584a9.865,9.865,0,0,1,9.863-9.866A29.068,29.068,0,0,1,90.755,14.451h25.066a29.059,29.059,0,0,1,29.06,29.06Zm0,0"/><path class="cls-4" d="M135.382,88.3a36.169,36.169,0,1,1-72.338,0V64.589A17.536,17.536,0,0,1,80.579,47.052h37.267a17.537,17.537,0,0,1,17.536,17.537Zm0,0"/><path class="cls-5" d="M77.923,141.413a5.833,5.833,0,0,1-3.535,8.711c-9.181,2.375-21.21,8.554-21.21,25.987v7.863H45.871a2.923,2.923,0,0,1-2.921-2.924V166.707A27.249,27.249,0,0,1,58.98,141.87h0c8.7-3.9,11.177-1.124,17.249-3.654a24.817,24.817,0,0,0,1.691,3.2Zm0,0"/><path class="cls-6" d="M120.381,141.413a5.832,5.832,0,0,0,3.536,8.711c9.179,2.375,21.208,8.554,21.208,25.987v7.863h7.307a2.925,2.925,0,0,0,2.923-2.924V166.707a27.25,27.25,0,0,0-16.033-24.837h0c-8.7-3.9-11.176-1.124-17.247-3.654a25.069,25.069,0,0,1-1.691,3.2Zm0,0"/><path class="cls-7" d="M91.022,111.655c5.948,3.72,1.258,12.845-5.251,10.231A36.17,36.17,0,0,1,63.044,88.3V64.589a17.457,17.457,0,0,1,3.077-9.926A4.319,4.319,0,0,1,74,57.172V80.993a35.9,35.9,0,0,0,17.018,30.662Zm0,0"/><path class="cls-8" d="M113.509,127.862a36.258,36.258,0,0,1-28.593,0,22.6,22.6,0,0,0,.414-6l.054-.136a36.246,36.246,0,0,0,27.657,0l.054.136a22.586,22.586,0,0,0,.414,6Zm0,0"/><path class="cls-9" d="M128.861,17.534a4.161,4.161,0,0,1-1.923,7.879c-.128,0-25.094,0-25.223,0A29.067,29.067,0,0,0,75.6,41.727a4.034,4.034,0,0,1-2.853,2.154,9.867,9.867,0,0,0-7.876,9.663v3.245a17.439,17.439,0,0,0-1.826,7.8V80.845a4.158,4.158,0,0,1-7.555,2.405,8.885,8.885,0,0,1-1.579-5.059V42.584a9.865,9.865,0,0,1,9.863-9.866A29.068,29.068,0,0,1,90.755,14.451h25.066a28.961,28.961,0,0,1,13.04,3.083Zm0,0"/><path d="M158.4,166.707v17.267a2.923,2.923,0,0,1-5.846,0V166.707a24.306,24.306,0,0,0-24.322-24.32,17.946,17.946,0,0,1-15.44-8.67,2.923,2.923,0,0,1,4.993-3.04,12.14,12.14,0,0,0,10.447,5.864A30.15,30.15,0,0,1,158.4,166.707Zm-40.779-21.283a2.922,2.922,0,0,1-.353,4.117,28.118,28.118,0,0,1-15.134,6.44V169.36a2.922,2.922,0,1,1-5.843,0V155.986A28.028,28.028,0,0,1,74.764,141.8a18.207,18.207,0,0,1-4.569.581,24.307,24.307,0,0,0-24.324,24.322v17.267a2.923,2.923,0,0,1-5.846,0V166.707a30.15,30.15,0,0,1,30.168-30.166,12.185,12.185,0,0,0,12.213-12.182v-.769A39.159,39.159,0,0,1,60.148,89.744a11.928,11.928,0,0,1-9.162-11.553V42.584A12.811,12.811,0,0,1,61.79,29.95,31.812,31.812,0,0,1,90.755,11.529h25.066A32.018,32.018,0,0,1,147.8,43.511v34.68a2.922,2.922,0,0,1-5.844,0V43.511a26.167,26.167,0,0,0-26.138-26.136H90.755a26.011,26.011,0,0,0-24.267,16.43,2.924,2.924,0,0,1-2.715,1.838,6.949,6.949,0,0,0-6.941,6.941V78.191a6.033,6.033,0,0,0,3.287,5.346V64.59a20.483,20.483,0,0,1,20.46-20.46h37.267a20.483,20.483,0,0,1,20.46,20.459V88.52c0,25.419-24.84,44.726-50.116,37.285a17.966,17.966,0,0,1-8.058,13.612,22.175,22.175,0,0,0,33.372,5.651,2.921,2.921,0,0,1,4.117.356Zm-18.408-23.88A33.285,33.285,0,0,0,132.46,88.3V64.589a14.628,14.628,0,0,0-14.614-14.612H80.579A14.63,14.63,0,0,0,65.966,64.59V88.3a33.284,33.284,0,0,0,33.247,33.245Zm0,0"/></svg>