<svg id="Capa_1" data-name="Capa 1" xmlns="http://www.w3.org/2000/svg" xmlns:xlink="http://www.w3.org/1999/xlink" viewBox="0 0 198.425 198.425"><defs><style>.cls-1{fill:none;}.cls-2{fill:#c79a83;}.cls-3{fill:#42434d;}.cls-4{clip-path:url(#clip-path);}.cls-5{fill:#e0b7a3;}.cls-6{fill:#4d4e59;}.cls-7{fill:#bdeffc;}.cls-8{fill:#6bdad5;}.cls-9{fill:#a07765;}.cls-10{fill:#f2d1c2;}.cls-11{fill:#00a19b;}.cls-12{fill:#10cfc9;}</style><clipPath id="clip-path"><rect class="cls-1" x="44.661" y="8.8" width="116.164" height="175.38"/></clipPath></defs><title>User</title><path class="cls-2" d="M157.786,163.99v14.344a2.892,2.892,0,0,1-2.859,2.924H50.558a2.892,2.892,0,0,1-2.859-2.924V163.99C47.7,149,59.548,136.6,74.213,136.744a14.953,14.953,0,0,0,14.948-15.106v-2.494l.053-.135A36.189,36.189,0,0,1,67.358,85.577V84.434a8.914,8.914,0,0,1-8.936-8.967V57.212c0-25.123,19.922-45.49,44.5-45.49s44.5,20.367,44.5,45.49V74.933a9.4,9.4,0,0,1-9.294,9.5c0,16.468-9.371,29.173-21.875,34.54l.072.17v2.494a14.953,14.953,0,0,0,14.948,15.106c14.666-.139,26.514,12.255,26.514,27.246Zm0,0"/><path class="cls-3" d="M147.421,57.212V74.933a9.4,9.4,0,0,1-9.294,9.5V61.864c0-14.714-16.829-23.159-28.454-13.253a10.623,10.623,0,0,1-13.8.056,17.171,17.171,0,0,0-28.519,13.2v22.57a8.913,8.913,0,0,1-8.936-8.967V57.212c0-25.123,19.922-45.49,44.5-45.49s44.5,20.367,44.5,45.49Zm0,0"/><g class="cls-4"><path class="cls-5" d="M138.127,85.124c0,19.933-15.592,36.473-35.119,36.625-19.646.146-35.65-16.091-35.65-36.172V61.864a17.17,17.17,0,0,1,28.519-13.2,10.623,10.623,0,0,0,13.8-.056,17.165,17.165,0,0,1,28.454,13.253Zm0,0"/><path class="cls-6" d="M114.734,22.7A44.268,44.268,0,0,0,74.016,47.464a4.553,4.553,0,0,1-.953,1.3,17.838,17.838,0,0,0-5.7,13.1v13.71c0,5.864-8.636,6.2-8.926.346-.017-.355-.01-18.617-.01-18.265,0-30.588,28.768-53.074,57.707-43.894,4.956,1.574,3.794,9.06-1.4,8.937Zm0,0"/></g><path class="cls-7" d="M105.6,150.328v16.315a2.859,2.859,0,1,1-5.717,0V150.328a23.77,23.77,0,0,0,5.717,0Zm0,0"/><path class="cls-8" d="M157.786,163.99v14.344a2.892,2.892,0,0,1-2.859,2.924H50.558a2.892,2.892,0,0,1-2.859-2.924V163.99C47.7,149,59.548,136.6,74.211,136.742a14.474,14.474,0,0,0,6.049-1.249v0a24.349,24.349,0,0,0,44.965,0v0a14.474,14.474,0,0,0,6.049,1.249c14.664-.137,26.512,12.257,26.512,27.248Zm0,0"/><path class="cls-9" d="M116.729,125.142a34.765,34.765,0,0,1-27.973,0,23.1,23.1,0,0,0,.405-6l.053-.135a34.756,34.756,0,0,0,27.058,0l.052.135a23.09,23.09,0,0,0,.405,6Zm0,0"/><path class="cls-10" d="M88.184,103.575c5.6,5.816-2.33,14.747-8.433,9.485A35.75,35.75,0,0,1,67.358,85.577V61.864a18,18,0,0,1,3.028-9.977,4.218,4.218,0,0,1,7.7,2.56V78.269a36.215,36.215,0,0,0,10.1,25.306Zm0,0"/><path class="cls-11" d="M81.915,138.694a5.871,5.871,0,0,1-3.459,8.711c-8.981,2.375-20.75,8.555-20.75,25.989v7.864H50.558a2.892,2.892,0,0,1-2.859-2.924V163.99a27.29,27.29,0,0,1,15.683-24.84h0c8.516-3.9,10.935-1.123,16.875-3.653a24.871,24.871,0,0,0,1.655,3.2Zm0,0"/><path class="cls-12" d="M123.452,138.694a5.869,5.869,0,0,0,3.459,8.711c8.981,2.375,20.749,8.555,20.749,25.989v7.864h7.148a2.893,2.893,0,0,0,2.859-2.924V163.99a27.29,27.29,0,0,0-15.684-24.84h0c-8.513-3.9-10.934-1.123-16.873-3.653a25.251,25.251,0,0,1-1.654,3.2Zm0,0"/><path d="M160.647,163.99v17.268a2.861,2.861,0,1,1-5.72,0V163.99a24.048,24.048,0,0,0-23.795-24.322A17.483,17.483,0,0,1,116.027,131a2.959,2.959,0,0,1,.955-4.016,2.824,2.824,0,0,1,3.93.974,11.826,11.826,0,0,0,10.22,5.865c16.31,0,29.515,13.493,29.515,30.169Zm-39.895-21.285a2.966,2.966,0,0,1-.346,4.117,27.2,27.2,0,0,1-14.805,6.441v13.38a2.859,2.859,0,1,1-5.717,0V153.268a27.4,27.4,0,0,1-21.06-14.183,17.45,17.45,0,0,1-4.47.583c-13.18,0-23.8,10.9-23.8,24.322v17.268a2.86,2.86,0,1,1-5.719,0V163.99c0-16.672,13.2-30.169,29.514-30.169A12.053,12.053,0,0,0,86.3,121.64V120.9A39.128,39.128,0,0,1,64.527,87.021a11.879,11.879,0,0,1-8.966-11.554V57.212C55.561,30.518,76.808,8.8,102.92,8.8s47.359,21.718,47.359,48.412V75.467a2.859,2.859,0,1,1-5.717,0V57.212c0-23.471-18.681-42.565-41.642-42.565S61.281,33.741,61.281,57.212V75.467A6.051,6.051,0,0,0,64.5,80.814V61.864a20.534,20.534,0,0,1,4.311-12.685,19,19,0,0,1,13.635-7.606A20.026,20.026,0,0,1,97.69,46.406a7.811,7.811,0,0,0,10.15-.039,19.973,19.973,0,0,1,33.146,15.5V85.122c0,25.94-24.17,45.408-49.029,37.981A18.028,18.028,0,0,1,84.076,136.7a21.42,21.42,0,0,0,32.648,5.654,2.814,2.814,0,0,1,4.028.354Zm-18.011-23.88c17.927,0,32.528-15.179,32.528-33.7V61.864a14.475,14.475,0,0,0-14.3-14.615,14.669,14.669,0,0,0-9.47,3.61,13.442,13.442,0,0,1-17.44.066,14.462,14.462,0,0,0-10.968-3.543,13.3,13.3,0,0,0-9.8,5.422,14.673,14.673,0,0,0-3.077,9.06V85.575c0,18.369,14.536,33.25,32.525,33.25Zm0,0"/></svg>