<svg id="Capa_1" data-name="Capa 1" xmlns="http://www.w3.org/2000/svg" viewBox="0 0 198.425 198.425"><defs><style>.cls-1{fill:#694b4b;}.cls-2{fill:#5a4146;}.cls-3{fill:#e6af78;}.cls-4{fill:#d5dced;}.cls-5{fill:#f0c087;}.cls-6{fill:#c7cfe2;}.cls-7{fill:#ff507d;}.cls-8{fill:#d23c69;}.cls-9{fill:#d29b6e;}</style></defs><title>User</title><path class="cls-1" d="M58.6,97.858c-.742-10.44-8.485-18.951-18.951-18.951S21.44,87.418,20.7,97.858c-.442,6.225,0,16.245-2.708,21.66,0,0,2.708,5.414,12.693,8.129l17.988-.007c9.93-2.708,12.638-8.122,12.638-8.122C58.6,114.1,59.044,104.083,58.6,97.858Z"/><path class="cls-2" d="M36.942,97.858c-10.433-5.216-8.286-15.438-.853-18.6-8.623,1.683-14.736,9.385-15.391,18.6-.442,6.225,0,16.245-2.708,21.66,0,0,2.708,5.414,12.693,8.129l8.551,0Z"/><path class="cls-3" d="M59.526,134.157l-8.761-4.381a5.414,5.414,0,0,1-2.994-4.843V116.81H31.528v8.123a5.416,5.416,0,0,1-2.994,4.843l-8.761,4.381a8.12,8.12,0,0,0-4.49,7.264v18.707H64.016V141.421A8.121,8.121,0,0,0,59.526,134.157Z"/><path class="cls-4" d="M64.016,141.422a8.122,8.122,0,0,0-4.49-7.265l-8.761-4.381a5.365,5.365,0,0,1-1.335-.968l-3.108,3.458a8.8,8.8,0,0,1-13.345,0l-3.107-3.458a5.42,5.42,0,0,1-1.335.968l-8.762,4.381a8.12,8.12,0,0,0-4.49,7.264v18.708H64.017V141.422Z"/><path class="cls-5" d="M39.65,122.225h0a16.242,16.242,0,0,1-14.333-8.592,7.921,7.921,0,0,1,2.576-10.107,21.154,21.154,0,0,0,1.886-1.493,15.632,15.632,0,0,0,3.708-4.885,2.667,2.667,0,0,1,3.038-1.476,46.649,46.649,0,0,1,18.4,9.431,2.586,2.586,0,0,1,.918,2.144A16.247,16.247,0,0,1,39.65,122.225Z"/><path class="cls-3" d="M54.925,105.1a46.643,46.643,0,0,0-18.389-9.426,2.68,2.68,0,0,0-3.053,1.484,15.482,15.482,0,0,1-2.474,3.611v.01a14.683,14.683,0,0,1-1.229,1.254,19.032,19.032,0,0,1-1.809,1.439,8.056,8.056,0,0,0-2.053,11.174A16.275,16.275,0,0,0,37.187,122a11.778,11.778,0,0,1-5.659-10.6V109.3c.615-.454,1.234-.907,1.856-1.462a21.543,21.543,0,0,0,3.872-4.568,40.9,40.9,0,0,1,14.111,7.677c.513.45,1.232,1.086,2.722,2.484a16.3,16.3,0,0,0,1.756-6.191A2.586,2.586,0,0,0,54.925,105.1Z"/><path class="cls-6" d="M16.934,136.541a8.1,8.1,0,0,0-1.651,4.88v18.707h10.83V146.487a5.418,5.418,0,0,0-2.032-4.229Z"/><path class="cls-6" d="M62.366,136.541a8.1,8.1,0,0,1,1.651,4.88v18.707H53.187V146.487a5.418,5.418,0,0,1,2.032-4.229Z"/><path class="cls-2" d="M137.116,89.736v1.9a21.667,21.667,0,0,0,1.112,6.85l4.3,12.91h8.122V81.614h-5.415A8.122,8.122,0,0,0,137.116,89.736Z"/><path class="cls-1" d="M174.4,94.631l-4.79,16.765L147.946,92.444a5.415,5.415,0,0,1-5.415-5.415h0a8.122,8.122,0,0,1,8.122-8.122H175.02V90.169A16.227,16.227,0,0,1,174.4,94.631Z"/><rect class="cls-3" x="147.946" y="119.517" width="16.246" height="16.246"/><path class="cls-4" d="M177.251,129.817l-13.061-3.732-8.122,9.677-8.122-9.677-13.061,3.732a8.123,8.123,0,0,0-5.891,7.81v22.5h54.148v-22.5A8.123,8.123,0,0,0,177.251,129.817Z"/><path class="cls-5" d="M156.068,122.225h0a16.244,16.244,0,0,1-16.244-16.244h0a13.074,13.074,0,0,1,3.828-9.244l2.667-2.667a5.353,5.353,0,0,1,3.93-1.591c8.655.273,16.316,2.127,20.5,6.217a5.345,5.345,0,0,1,1.56,3.834v3.45A16.243,16.243,0,0,1,156.068,122.225Z"/><path class="cls-3" d="M147.946,105.98a5.4,5.4,0,0,1,5.739-5.406c5.466.348,13.576,1.262,18.552,3.655-.162-1.142-.653-4.72-1.485-5.533-4.187-4.09-11.848-5.944-20.5-6.217h0a5.353,5.353,0,0,0-3.93,1.591l-2.667,2.667a13.068,13.068,0,0,0-3.829,9.243h0a16.24,16.24,0,0,0,11.744,15.6,16.108,16.108,0,0,1-3.622-10.184V105.98Z"/><path class="cls-6" d="M172.312,145.694a8.122,8.122,0,0,1,2.379-5.743l6.97-6.97a8.1,8.1,0,0,1,1.481,4.646v22.5h-10.83Z"/><path class="cls-7" d="M138.11,130.462l-22.653-8.237L99.213,127.64l-16.245-5.415-22.652,8.237a10.831,10.831,0,0,0-7.129,10.178v19.488h92.051V140.64A10.83,10.83,0,0,0,138.11,130.462Z"/><path class="cls-8" d="M142.324,133.261a10.815,10.815,0,0,1,2.914,7.379v19.489H128.994v-9.051a10.831,10.831,0,0,1,3.172-7.658Z"/><path class="cls-2" d="M128.994,66.391V43.71a5.415,5.415,0,0,0-5.415-5.415H91.09a21.66,21.66,0,0,0-21.659,21.66v6.436a27.073,27.073,0,0,0,1.389,8.561l.9,2.7a8.148,8.148,0,0,1,.416,2.568v1.39h54.149v-1.39a8.119,8.119,0,0,1,.416-2.568l.9-2.7A27.046,27.046,0,0,0,128.994,66.391Z"/><path class="cls-1" d="M82.968,49.294a11,11,0,0,0,11,11H95.49l.735,21.321h30.062V80.225a8.131,8.131,0,0,1,.417-2.569l.9-2.7a27.084,27.084,0,0,0,1.389-8.562V43.71A5.414,5.414,0,0,0,123.58,38.3H93.967A11,11,0,0,0,82.968,49.294Z"/><rect class="cls-3" x="82.967" y="103.272" width="32.488" height="24.365"/><path class="cls-9" d="M82.968,115.526a35.048,35.048,0,0,0,32.489,0V103.273H82.968v12.253Z"/><path class="cls-8" d="M99.213,127.64l-8.635,8.635A2.708,2.708,0,0,1,86.507,136l-8.954-11.8,2.342-4.935a2.707,2.707,0,0,1,3.866-1.145Z"/><path class="cls-8" d="M99.213,127.64l8.634,8.635a2.709,2.709,0,0,0,4.072-.278l8.953-11.8-2.342-4.935a2.707,2.707,0,0,0-3.866-1.145Z"/><path class="cls-5" d="M99.213,111.4h0A27.074,27.074,0,0,1,72.139,84.322V81.614l4.505-3a8.123,8.123,0,0,0,3.617-6.759v-9.19s21.66-8.122,37.9,5.415v3.774a8.125,8.125,0,0,0,3.617,6.76l4.505,3v2.708A27.075,27.075,0,0,1,99.213,111.4Z"/><path class="cls-8" d="M56.1,133.261a10.82,10.82,0,0,0-2.914,7.379v19.489H69.431v-9.051a10.834,10.834,0,0,0-3.171-7.658Z"/><path class="cls-3" d="M93.145,69.17c5.888-.739,16.193-1.162,25.019,2.681V68.077c-16.244-13.537-37.9-5.415-37.9-5.415v9.19a8.12,8.12,0,0,1-3.617,6.758l-4.505,3v2.707a27.065,27.065,0,0,0,23.8,26.858h0a26.961,26.961,0,0,1-7.559-18.735v-17.9A5.418,5.418,0,0,1,93.145,69.17Z"/><path d="M163.05,97.415a2.533,2.533,0,0,0,2.266-4.532c-5.884-2.941-16.917-2.975-17.383-2.975a2.533,2.533,0,1,0,0,5.066C150.779,94.974,159.045,95.412,163.05,97.415Z"/><path d="M177.945,128.948l-10.462-2.989a1.063,1.063,0,0,1-.767-1.017V121.45a18.958,18.958,0,0,0,2.422-1.986,18.635,18.635,0,0,0,5.7-13.481v-4.819l1.011-2.022a16.165,16.165,0,0,0,1.7-7.19V78.9a2.534,2.534,0,0,0-2.533-2.533H150.641a16.094,16.094,0,0,0-16.075,16.076v.151a13.434,13.434,0,0,0,1.411,5.977l1.3,2.595V105.3a19.765,19.765,0,0,0,8.126,15.981v3.659c0,.565,0,.8-2.091,1.4l-5.1,1.459-14.767-5.37a2.531,2.531,0,0,0-.69-1.939l-4.719-4.957v-8.322c.5-.412.991-.834,1.468-1.28a29.733,29.733,0,0,0,9.366-21.613V77.669a29.27,29.27,0,0,0,2.709-12.313V38.272a2.534,2.534,0,0,0-2.534-2.533H91.119a24.228,24.228,0,0,0-24.2,24.2v5.418A29.291,29.291,0,0,0,69.627,77.67v5.718a30.954,30.954,0,0,0,10.834,23.624v8.518l-4.719,4.957a2.532,2.532,0,0,0-.69,1.94l-15.585,5.667a13.281,13.281,0,0,0-3.132,1.64l-2.447-1.223c7.285-3.171,9.593-7.631,9.7-7.853a2.535,2.535,0,0,0,0-2.265c-1.827-3.653-2.048-10.347-2.225-15.726-.059-1.791-.116-3.483-.223-4.989-.863-12.15-10.1-21.313-21.485-21.313S19.036,85.528,18.173,97.678c-.107,1.507-.163,3.2-.222,4.99-.178,5.378-.4,12.072-2.225,15.724a2.531,2.531,0,0,0,0,2.266c.111.221,2.414,4.672,9.713,7.847l-6.8,3.4a10.6,10.6,0,0,0-5.892,9.534v18.714a2.533,2.533,0,0,0,5.066,0V141.438a5.563,5.563,0,0,1,3.091-5l8.465-4.233,2.945,2.8A10.653,10.653,0,0,0,47,135l2.944-2.8,2.76,1.38a13.343,13.343,0,0,0-2.037,7.072v19.5a2.533,2.533,0,0,0,5.066,0v-19.5a8.327,8.327,0,0,1,5.464-7.8L77.63,126.88l6.84,10.261a5.226,5.226,0,0,0,3.845,2.309c.175.017.349.025.522.025a5.22,5.22,0,0,0,3.7-1.535l4.173-4.173v26.386a2.533,2.533,0,0,0,5.066,0V133.767l4.174,4.173a5.217,5.217,0,0,0,3.7,1.536c.174,0,.348-.009.522-.026a5.221,5.221,0,0,0,3.845-2.308l6.841-10.261,16.432,5.975a8.325,8.325,0,0,1,5.464,7.8v19.5a2.533,2.533,0,1,0,5.066,0v-19.5a13.388,13.388,0,0,0-3.747-9.268l.626-.179a13.835,13.835,0,0,0,2.357-.851l6.468,6.467v23.327a2.533,2.533,0,0,0,5.066,0V136.826l6.422-6.422a6.129,6.129,0,0,0,1.078.428l10.462,2.989a5.615,5.615,0,0,1,4.056,5.377v20.955a2.533,2.533,0,0,0,5.066,0V139.2A10.705,10.705,0,0,0,177.945,128.948ZM50.317,124.482v-3.021a18.73,18.73,0,0,0,6.688-8.257,27.944,27.944,0,0,0,1.442,6.052C57.438,120.485,55.05,122.778,50.317,124.482ZM23.227,98.037a18.8,18.8,0,0,1,5.121-11.81,15.74,15.74,0,0,1,22.623,0,18.809,18.809,0,0,1,5.121,11.81c.1,1.411.155,3.056.212,4.8l.015.452a22.76,22.76,0,0,0-12.511-9.142,31.841,31.841,0,0,0-9.635-1.527,2.531,2.531,0,0,0-1.753.774l-4.571,4.74a2.533,2.533,0,0,0,3.647,3.517L35.3,97.7c3.275.16,13.812,1.385,17.91,10.409a13.716,13.716,0,0,1-27.266-2.13,2.534,2.534,0,0,0-2.533-2.533,2.584,2.584,0,0,0-.416.037c.007-.218.014-.436.022-.652C23.072,101.094,23.126,99.449,23.227,98.037Zm-2.356,21.218a27.915,27.915,0,0,0,1.444-6.066A18.882,18.882,0,0,0,29,121.438v3.036C24.262,122.769,21.886,120.5,20.871,119.255Zm14.936,12.074-2.356-2.238a5.236,5.236,0,0,0,.616-2.474v-2.7a18.841,18.841,0,0,0,11.184,0v2.7a5.236,5.236,0,0,0,.616,2.474l-2.355,2.239A5.59,5.59,0,0,1,35.807,131.329ZM74.693,83.388V77.1a2.529,2.529,0,0,0-.252-1.1,24.3,24.3,0,0,1-2.456-10.645V59.939A19.156,19.156,0,0,1,91.119,40.805H126.5V65.357A24.3,24.3,0,0,1,124.048,76a2.529,2.529,0,0,0-.252,1.1v7.213a24.321,24.321,0,0,1-7.765,17.916,24.9,24.9,0,0,1-1.945,1.646l-.043.032a24.353,24.353,0,0,1-16.437,4.9C84.757,107.982,74.693,96.813,74.693,83.388Zm22.585,30.481q1,.065,1.993.065a29.337,29.337,0,0,0,13.691-3.356v4.627l-13.717,9.377-13.718-9.377v-4.728A28.512,28.512,0,0,0,97.278,113.869Zm-8.322,20.488a.157.157,0,0,1-.141.05.16.16,0,0,1-.129-.077l-7.878-11.817,2.535-2.664,11.951,8.169Zm20.847-.027a.16.16,0,0,1-.128.078.157.157,0,0,1-.142-.051l-6.338-6.338,11.951-8.169,2.535,2.663ZM142.34,105.3v-4.736a2.526,2.526,0,0,0-.267-1.132l-1.565-3.13a8.347,8.347,0,0,1-.876-3.712v-.151a11.021,11.021,0,0,1,11.009-11.009h21.843V91.953a11.07,11.07,0,0,1-1.162,4.923l-1.279,2.558a2.529,2.529,0,0,0-.267,1.132v5.417a13.719,13.719,0,0,1-14.142,13.711C148.3,119.474,142.34,113.018,142.34,105.3Zm13.142,19.456c.195.006.389.009.583.009a18.821,18.821,0,0,0,5.585-.845v1.02a6.077,6.077,0,0,0,.183,1.476l-5.775,5.776-5.749-5.749a6.918,6.918,0,0,0,.157-1.5v-1.069A17.775,17.775,0,0,0,155.482,124.758Z"/><path d="M172.308,141.368a2.533,2.533,0,0,0-2.533,2.533v16.251a2.533,2.533,0,0,0,5.066,0V143.9A2.533,2.533,0,0,0,172.308,141.368Z"/><path d="M26.117,144.716a2.534,2.534,0,0,0-2.533,2.534v12.9a2.533,2.533,0,1,0,5.066,0v-12.9A2.534,2.534,0,0,0,26.117,144.716Z"/><path d="M82.818,64.938a.167.167,0,0,1,.133-.171,79.921,79.921,0,0,1,16.456-.8c7.9.526,13.621,2.508,17.006,5.893A2.533,2.533,0,1,0,120,66.274c-9.581-9.58-29.626-7.749-37.8-6.517a5.2,5.2,0,0,0-4.443,5.181v5.836a2.533,2.533,0,0,0,5.066,0V64.938Z"/><path d="M69.452,146.785a2.533,2.533,0,0,0-2.533,2.533v10.834a2.533,2.533,0,0,0,5.066,0V149.318A2.533,2.533,0,0,0,69.452,146.785Z"/><path d="M129.037,146.785a2.534,2.534,0,0,0-2.533,2.533v10.834a2.534,2.534,0,0,0,5.067,0V149.318A2.534,2.534,0,0,0,129.037,146.785Z"/></svg>