<?xml version="1.0" encoding="UTF-8"?>
<!DOCTYPE svg PUBLIC "-//W3C//DTD SVG 1.1//EN" "http://www.w3.org/Graphics/SVG/1.1/DTD/svg11.dtd">
<!-- Creator: CorelDRAW 2020 (64-Bit) -->
<svg xmlns="http://www.w3.org/2000/svg" xml:space="preserve" width="122.521mm" height="122.522mm" version="1.1" style="shape-rendering:geometricPrecision; text-rendering:geometricPrecision; image-rendering:optimizeQuality; fill-rule:evenodd; clip-rule:evenodd"
viewBox="0 0 87.57 87.57"
 xmlns:xlink="http://www.w3.org/1999/xlink"
 xmlns:xodm="http://www.corel.com/coreldraw/odm/2003">
 <defs>
  <style type="text/css">
   <![CDATA[
    .fil1 {fill:black}
    .fil4 {fill:#00F0A3}
    .fil7 {fill:#09A5ED}
    .fil3 {fill:#0ACDF9}
    .fil5 {fill:#118ECD}
    .fil8 {fill:#554D55}
    .fil6 {fill:#685D65}
    .fil2 {fill:#DFDDE1}
    .fil0 {fill:#EFEFF2}
    .fil9 {fill:#FAB1B7}
   ]]>
  </style>
 </defs>
 <g id="Capa_x0020_1">
  <metadata id="CorelCorpID_0Corel-Layer"/>
  <g id="_1703298159600">
   <path class="fil0" d="M24.8 28.13c-0.89,0.48 -1.95,1.18 -2.77,1.8 0.33,1.31 -0.06,1.57 -0.88,2.16 -0.75,0.54 -1.37,1.01 -2.05,1.55 -0.87,0.7 -3.33,2.71 -3.82,3.37 -1.32,1.78 -0.85,10.2 -0.32,12.67 0.23,1.09 0.88,1.45 1.48,1.94 2.57,2.12 2.99,2.59 6.03,4.75 1.31,0.93 7.56,4.8 9.27,4.81 1.39,0.13 2.69,0.35 4.17,0.4l3.83 -0.12c0.64,-0.19 0.22,-0.03 0.49,-0.25 -7.03,-1.24 -12.76,-7.29 -13.99,-14.41 -1.57,-9.02 3.87,-16.04 9.31,-18.78 6.23,-3.14 13.68,-2.63 19.09,1.66 0.84,0.66 1.16,1.06 1.86,1.73 4.94,4.75 6.28,12.31 3.91,18.73 -0.45,1.2 -0.54,1.73 -2.12,1.48 -0.62,1.23 -1.25,1.89 -1.87,2.93l0.32 0.83c1.34,-0.55 4.79,-3.09 5.8,-3.98 5.77,-5.05 6.78,-13.47 2.46,-19.43 -0.43,-0.59 -0.87,-0.93 -1.15,-1.53 -0.66,-0.98 -6.6,-3.73 -8.34,-4.38 -3.25,-1.22 -6.74,-2.09 -10.52,-2.24 -4.06,-0.16 -7.61,0.51 -11.16,1.61 -1.62,0.5 -3.18,1.18 -4.66,1.85 -0.79,0.36 -1.42,0.7 -2.15,1.1 -1.43,0.79 -1.78,0.02 -2.22,-0.26z"/>
   <path class="fil1" d="M44.63 49.51c-3.23,0.47 -5.7,-1.61 -6.35,-4.01 0.91,-0.53 2.96,-0.61 4.77,-2.44 1.83,-1.85 1.91,-3.85 2.44,-4.77 0.99,0.27 2.15,0.97 2.74,1.74 0.33,0.43 0.36,0.44 0.42,0.91 1.39,1.08 1,4.15 0.23,5.56 -0.79,1.46 -2.04,2.65 -4.26,3.01zm-8.63 -18.06c7.56,-1.48 9.63,9.81 2.32,11.34 -7.63,1.6 -9.86,-9.86 -2.32,-11.34zm10.7 2.3c2.89,0.58 5.34,3.07 6.48,5.28 2.77,5.4 0.34,12.74 -6.34,14.83 -2.8,0.88 -6.71,0.44 -9.07,-1.5l-0.2 -0.18c-1.91,-0.87 -3.97,-4.28 -4.26,-7.55l2.27 0.69c0.66,4.27 3.86,5.37 4.79,6.17 2.64,0.7 4.24,1.11 6.91,-0.1 3.96,-1.79 5.9,-6.51 4.31,-10.61 -1.22,-3.12 -3.07,-3.6 -3.69,-4.42l-2.53 -0.8 -0.75 -2.31 2.07 0.48zm-6.46 27.48c5.31,1.07 11.72,-0.53 15.36,-4.08 0.63,-0.61 1.02,-0.83 1.14,-1.74l-0.32 -0.83c-1.61,-0.99 -1.45,0.09 -4.1,1.86 -1.31,0.88 -2.82,1.61 -4.59,2.08 -6.97,1.86 -14.21,-1.38 -17.53,-7.8 -1.49,-2.87 -2.3,-7.51 -1.05,-10.96 1.13,2.34 1.58,2.41 1.56,3.86 -0.08,4.64 2.26,8.65 5.79,11.06 5.09,3.46 11.94,2.91 16.51,-1.65 4.4,-4.4 5.14,-11.35 1.65,-16.51 -2.48,-3.65 -6.51,-5.85 -11.22,-5.77 -1.29,0.02 -1.12,-0.17 -1.96,-0.72 -0.63,-0.41 -1.14,-0.52 -1.74,-0.88 3.03,-1 6.87,-0.62 9.65,0.49 5.38,2.14 9.12,7.15 9.57,12.97 0.13,1.75 -0.04,3.51 -0.46,5.13 -0.65,2.54 -1.52,2.39 -0.21,3.89 1.58,0.25 1.68,-0.27 2.12,-1.48 2.38,-6.42 1.03,-13.98 -3.91,-18.73 -0.7,-0.68 -1.02,-1.07 -1.86,-1.73 -5.41,-4.29 -12.86,-4.8 -19.09,-1.66 -5.44,2.74 -10.88,9.76 -9.31,18.78 1.24,7.12 6.96,13.17 13.99,14.41z"/>
   <path class="fil1" d="M11.95 46.91c-0.41,-0.32 -2.16,-2.4 -2.16,-3.12 0,-0.7 1.78,-2.85 2.16,-3.13 -0.12,2.27 -0.11,3.98 0,6.25zm63.67 0c0.06,-1.12 0.14,-2.15 0.14,-3.29 -0,-0.69 -0.26,-2.39 0.04,-2.96 0.34,0.62 2.07,2.51 1.97,3.26 -0.09,0.67 -1.74,2.68 -2.15,3zm-50.82 -18.78c0.44,0.29 0.79,1.05 2.22,0.26 0.73,-0.4 1.36,-0.74 2.15,-1.1 1.48,-0.67 3.04,-1.34 4.66,-1.85 3.55,-1.1 7.1,-1.77 11.16,-1.61 3.78,0.15 7.27,1.02 10.52,2.24 1.74,0.65 7.68,3.4 8.34,4.38 1.41,0.47 6.39,4.54 7.72,5.89 0.65,0.66 0.83,0.46 1.06,1.67 0.63,3.22 0.73,6.65 0.26,9.89 -0.46,3.16 -1.17,3.44 -4.66,6.14 -9.23,7.15 -20.39,11.98 -32.52,8.59 -0.83,-0.23 -3.31,-0.86 -3.97,-1.45 -1.71,-0.01 -7.96,-3.88 -9.27,-4.81 -3.03,-2.16 -3.46,-2.63 -6.03,-4.75 -0.59,-0.49 -1.24,-0.86 -1.48,-1.94 -0.53,-2.47 -1.01,-10.89 0.32,-12.67 0.49,-0.66 2.94,-2.67 3.82,-3.37 0.68,-0.54 1.3,-1.01 2.05,-1.55 0.82,-0.59 1.21,-0.86 0.88,-2.16 -1,-0.77 -1.13,-0.91 -2.26,-0.08 -2.91,2.13 -3.5,2.73 -5.95,5 -1.36,1.25 -2.29,1.95 -3.65,3.7 -3.56,4.58 -4.33,4.96 -0.95,9.19 4.37,5.47 9.86,9.83 15.92,13.33 3.14,1.81 6.84,3.33 10.48,4.23 3.09,0.77 3.48,0.63 6.34,1.01 3.59,0.49 9.52,-0.72 12.8,-1.81 3.21,-1.07 7.2,-2.92 9.97,-4.74l5.21 -3.69c3.27,-2.43 11.57,-10.1 10.45,-13.13 -0.77,-2.07 -3.29,-4.78 -4.82,-6.3l-4.7 -4.36c-5.91,-5.5 -16.2,-10.27 -23.97,-10.92 -6.38,-0.53 -13.13,0.74 -18.37,3.38 -2.67,1.35 -4.08,1.42 -3.71,3.38z"/>
   <path class="fil2" d="M56.74 55.39c-0.12,0.91 -0.51,1.13 -1.14,1.74 -3.65,3.55 -10.05,5.16 -15.36,4.08 -0.27,0.22 0.15,0.06 -0.49,0.25l-3.83 0.12c-1.48,-0.05 -2.78,-0.27 -4.17,-0.4 0.66,0.6 3.14,1.22 3.97,1.45 12.13,3.39 23.29,-1.44 32.52,-8.59 3.49,-2.7 4.2,-2.97 4.66,-6.14 0.47,-3.24 0.36,-6.67 -0.26,-9.89 -0.24,-1.21 -0.42,-1.01 -1.06,-1.67 -1.34,-1.36 -6.32,-5.43 -7.72,-5.89 0.28,0.59 0.72,0.94 1.15,1.53 4.32,5.96 3.31,14.38 -2.46,19.43 -1.01,0.89 -4.46,3.43 -5.8,3.98z"/>
   <path class="fil1" d="M2.59 66.33l2.13 0.08c0,1.99 -0.34,15.26 0.42,16.02 0.76,0.76 14.04,0.42 16.04,0.42l0.06 2.16 -18.68 0 0.02 -18.68zm-2.59 -1.16l0 21.04c0,0.83 0.54,1.37 1.37,1.37l21.04 0c1.95,0 1.54,-3.01 1.54,-4.96 0,-1.35 -0.37,-2.39 -1.71,-2.39l-14.88 0 0 -14.88c0,-2.14 -2.78,-1.71 -4.96,-1.71 -1.23,0 -2.39,0.31 -2.39,1.54z"/>
   <path class="fil1" d="M66.41 82.85c1.99,0 15.26,0.34 16.02,-0.42 0.76,-0.76 0.42,-14.06 0.42,-16.07l2.16 -0.03 0 18.68 -18.68 0 0.08 -2.16zm13.81 -17.51l0 14.88 -14.88 0c-2.15,0 -1.54,2.52 -1.54,5.99 0,0.83 0.54,1.37 1.37,1.37l21.04 0c0.83,0 1.37,-0.54 1.37,-1.37l0 -21.04c0,-2.04 -2.93,-1.54 -5.3,-1.54 -1.18,0 -2.05,0.55 -2.05,1.71z"/>
   <path class="fil1" d="M2.57 2.57l18.68 0 -0.08 2.16c-2.72,0 -5.44,0 -8.16,0 -9.91,0 -8.26,-1.39 -8.26,8.28 0,2.73 0,5.46 0,8.2l-2.17 0.05 0 -18.68zm-2.57 -1.2l0 21.04c0,2.04 2.93,1.54 5.3,1.54 1.18,0 2.05,-0.55 2.05,-1.71l0 -14.88 14.88 0c2.17,0 1.54,-2.65 1.54,-5.99 0,-0.83 -0.54,-1.37 -1.37,-1.37l-21.04 0c-0.83,0 -1.37,0.54 -1.37,1.37z"/>
   <path class="fil1" d="M85.01 21.24l-2.16 -0.08c0,-2.72 0,-5.44 0,-8.16 0,-9.9 1.39,-8.27 -8.28,-8.27 -2.73,0 -5.45,0 -8.19,0l-0.05 -0.63 0 -1.54 18.68 0 0 18.68zm-21.38 -18.85c0,1.98 -0.42,4.96 1.71,4.96l14.88 0 0 14.88c0,2.17 2.65,1.54 5.99,1.54 0.83,0 1.37,-0.54 1.37,-1.37l0 -21.04c0,-0.83 -0.54,-1.37 -1.37,-1.37l-21.04 0c-1.23,0 -1.54,1.16 -1.54,2.39z"/>
   <path class="fil3" d="M56.42 54.56c0.62,-1.04 1.25,-1.7 1.87,-2.93 -1.3,-1.5 -0.43,-1.35 0.21,-3.89 0.41,-1.62 0.59,-3.38 0.46,-5.13 -0.45,-5.82 -4.19,-10.82 -9.57,-12.97 -2.79,-1.11 -6.62,-1.49 -9.65,-0.49 0.61,0.36 1.11,0.47 1.74,0.88 0.84,0.54 0.67,0.74 1.96,0.72 4.71,-0.08 8.75,2.12 11.22,5.77 3.49,5.15 2.75,12.11 -1.65,16.51 -4.57,4.56 -11.42,5.11 -16.51,1.65 -3.54,-2.41 -5.88,-6.41 -5.79,-11.06 0.03,-1.44 -0.43,-1.52 -1.56,-3.86 -1.25,3.45 -0.44,8.09 1.05,10.96 3.32,6.42 10.57,9.65 17.53,7.8 1.76,-0.47 3.27,-1.2 4.59,-2.08 2.65,-1.77 2.49,-2.85 4.1,-1.86z"/>
   <path class="fil0" d="M36 31.44c-7.54,1.48 -5.3,12.94 2.32,11.34 7.3,-1.53 5.23,-12.82 -2.32,-11.34z"/>
   <path class="fil4" d="M2.57 21.24l2.17 -0.05c-0,-2.74 -0,-5.47 -0,-8.2 0,-9.67 -1.64,-8.28 8.26,-8.28 2.72,0 5.44,0 8.16,0l0.08 -2.16 -18.68 0 0 18.68z"/>
   <path class="fil4" d="M66.33 4.11l0.05 0.63c2.74,-0 5.47,-0 8.19,-0 9.67,0 8.28,-1.63 8.28,8.27 0,2.72 0,5.44 0,8.16l2.16 0.08 0 -18.68 -18.68 0 0 1.54z"/>
   <path class="fil4" d="M66.41 82.85l-0.08 2.16 18.68 0 0 -18.68 -2.16 0.03c0,2.02 0.34,15.31 -0.42,16.07 -0.76,0.76 -14.03,0.42 -16.02,0.42z"/>
   <path class="fil4" d="M2.57 85.01l18.68 0 -0.06 -2.16c-2,0 -15.28,0.35 -16.04,-0.42 -0.76,-0.76 -0.42,-14.03 -0.42,-16.02l-2.13 -0.08 -0.02 18.68z"/>
   <path class="fil5" d="M47.89 36.36c0.62,0.82 2.48,1.29 3.69,4.42 1.6,4.1 -0.35,8.82 -4.31,10.61 -2.67,1.2 -4.27,0.8 -6.91,0.1 -0.32,0.61 -2.04,0.6 -2.8,0.68l0.2 0.18c2.35,1.94 6.27,2.37 9.07,1.5 6.68,-2.09 9.11,-9.43 6.34,-14.83 -1.13,-2.21 -3.59,-4.7 -6.48,-5.28 0.39,0.61 1.54,2.05 1.2,2.62z"/>
   <path class="fil6" d="M44.63 49.51c0.33,-0.54 0.44,-0.49 0.86,-0.94 1.7,-1.8 3.54,-5.22 3.17,-7.64 -0.06,-0.48 -0.1,-0.49 -0.42,-0.91 -0.59,-0.77 -1.75,-1.47 -2.74,-1.74 -0.54,0.92 -0.61,2.92 -2.44,4.77 -1.81,1.83 -3.86,1.92 -4.77,2.44 0.65,2.4 3.12,4.48 6.35,4.01z"/>
   <path class="fil7" d="M37.57 52.17c0.77,-0.08 2.48,-0.08 2.8,-0.68 -0.93,-0.8 -4.13,-1.9 -4.79,-6.17l-2.27 -0.69c0.29,3.27 2.35,6.68 4.26,7.55z"/>
   <path class="fil8" d="M44.63 49.51c2.22,-0.36 3.48,-1.55 4.26,-3.01 0.76,-1.41 1.15,-4.49 -0.23,-5.56 0.37,2.41 -1.47,5.84 -3.17,7.64 -0.42,0.45 -0.53,0.4 -0.86,0.94z"/>
   <path class="fil9" d="M11.95 46.91c-0.11,-2.27 -0.12,-3.98 -0,-6.25 -0.38,0.28 -2.15,2.44 -2.16,3.13 -0,0.72 1.75,2.8 2.16,3.12z"/>
   <path class="fil9" d="M75.62 46.91c0.41,-0.32 2.06,-2.33 2.15,-3 0.1,-0.74 -1.63,-2.63 -1.97,-3.26 -0.3,0.57 -0.05,2.27 -0.04,2.96 0.01,1.14 -0.08,2.17 -0.14,3.29z"/>
   <path class="fil7" d="M47.89 36.36c0.35,-0.58 -0.81,-2.01 -1.2,-2.62l-2.07 -0.48 0.75 2.31 2.53 0.8z"/>
  </g>
 </g>
</svg>
