<?xml version="1.0" encoding="UTF-8"?>
<!DOCTYPE svg PUBLIC "-//W3C//DTD SVG 1.1//EN" "http://www.w3.org/Graphics/SVG/1.1/DTD/svg11.dtd">
<!-- Creator: CorelDRAW 2020 (64-Bit) -->
<svg xmlns="http://www.w3.org/2000/svg" xml:space="preserve" width="71.1991mm" height="71.1991mm" version="1.1" style="shape-rendering:geometricPrecision; text-rendering:geometricPrecision; image-rendering:optimizeQuality; fill-rule:evenodd; clip-rule:evenodd"
viewBox="0 0 19.54 19.54"
 xmlns:xlink="http://www.w3.org/1999/xlink"
 xmlns:xodm="http://www.corel.com/coreldraw/odm/2003">
 <defs>
  <style type="text/css">
   <![CDATA[
    .str0 {stroke:white;stroke-width:0.19;stroke-miterlimit:22.9256}
    .str1 {stroke:white;stroke-width:0.02;stroke-miterlimit:22.9256}
    .fil2 {fill:black}
    .fil6 {fill:#4D585F}
    .fil3 {fill:#5E6A74}
    .fil1 {fill:#ACC608}
    .fil5 {fill:#E59542}
    .fil4 {fill:#FEC150}
    .fil0 {fill:white}
   ]]>
  </style>
 </defs>
 <g id="Capa_x0020_1">
  <metadata id="CorelCorpID_0Corel-Layer"/>
  <g id="_1703299885312">
   <circle class="fil0 str0" cx="9.77" cy="9.77" r="9.67"/>
   <g>
    <path class="fil1" d="M12.56 5.83c0.07,0.09 0.03,1.4 0.03,1.63 0.27,0 0.54,0 0.8,0 0.21,0 0.63,-0.05 0.79,0.02 0.6,0.03 0.73,0.81 0.27,1.08 -0.32,0.19 -1.42,0.02 -1.88,0.09 0,0.45 -0,0.9 0,1.35 0,0.37 -0.07,0.81 -0.58,0.81 -0.49,0 -0.59,-0.39 -0.59,-0.78 0,-0.46 0,-0.92 0,-1.38 -0.45,0 -0.91,-0 -1.36,0 -0.24,0 -0.38,0.02 -0.56,-0.11 -0.28,-0.2 -0.36,-0.62 -0.04,-0.92 0.15,-0.14 0.32,-0.14 0.57,-0.14 0.46,0 0.92,0 1.38,0 0.06,-0.41 -0.07,-1.55 0.06,-1.83 0.25,-0.54 1.06,-0.4 1.1,0.18zm-3.19 -0.67c-0.09,0.01 -0.09,0.06 -0.15,0.12 -0.05,0.05 -0.1,0.08 -0.12,0.15 0.1,0.25 -0.07,0.29 -0.32,0.71 -0.14,0.23 -0.26,0.5 -0.35,0.79 -0.47,1.52 0.06,3.14 1.27,4.08 0.1,0.08 0.56,0.4 0.72,0.42 0.41,0.08 0.67,0.17 1.14,0.18 0.75,0.01 1.47,-0.19 2.09,-0.57 0.53,-0.33 0.99,-0.77 1.32,-1.31 0.17,-0.28 0.31,-0.57 0.41,-0.92 0.27,-0.92 0.19,-1.43 -0.01,-2.33 -0.03,-0.31 -0.68,-1.06 -0.96,-1.29 -1.34,-1.12 -3.18,-1.16 -4.65,-0.12 -0.13,0.09 -0.18,0.19 -0.38,0.1z"/>
    <path class="fil2" d="M8.08 12.22c0.1,0.06 0.17,0.14 0.25,0.23 0.08,0.08 0.14,0.16 0.07,0.3 -0.06,0.12 -0.28,0.48 -0.35,0.56l-0.37 -0.36c-0.09,-0.05 -0.89,-0.85 -0.94,-0.94 0.04,-0.04 0.6,-0.44 0.76,-0.37 0.04,0.02 0.54,0.49 0.58,0.58zm3.68 -9.08l0.48 0c0.92,0.04 1.83,0.34 2.6,0.9 0.08,0.06 0.11,0.07 0.18,0.13 0.55,0.45 0.87,0.81 1.23,1.42 0.32,0.53 0.64,1.47 0.65,2.2l0 0.11c-0,0.42 -0.01,0.7 -0.08,1.06 -0.36,1.78 -1.54,3.18 -3.28,3.76 -1.37,0.46 -2.68,0.26 -3.88,-0.34 -0.27,-0.13 -0.48,-0.3 -0.7,-0.45l-0.29 0.28c0.1,0.15 0.18,0.21 0.16,0.49 -0.01,0.18 -0.33,0.67 -0.43,0.82 -0.11,0.16 -0.18,0.2 -0.43,0.2 -0.02,0.07 -0.15,0.26 -0.19,0.33 -0.08,0.11 -0.13,0.2 -0.21,0.31 -0.28,0.42 -0.24,0.48 -0.54,0.48 -0.04,-0.1 -0.1,-0.06 -0.09,-0.21 0.01,-0.1 0.23,-0.41 0.29,-0.5 0.09,-0.14 0.37,-0.52 0.42,-0.66 -0.1,-0.1 -0.2,-0.24 -0.34,-0.31 -0.03,-0.07 -0.09,-0.11 -0.16,-0.19l-0.58 -0.58c-0.13,0.05 -0.37,0.22 -0.5,0.31 -0.53,0.37 -1.47,0.94 -1.9,1.35 -0.51,0.49 0.2,1.56 0.48,1.62 0.09,0.2 0.91,0.57 1.29,0.25 0.16,-0.14 0.27,-0.31 0.41,-0.5 0.25,-0.33 0.22,-0.42 0.5,-0.34 0.13,0.21 0.09,0.2 -0.11,0.49 -0.11,0.15 -0.2,0.27 -0.32,0.41 -0.22,0.28 -0.49,0.42 -0.77,0.46l-0.29 0c-0.81,-0.09 -1.64,-0.93 -1.76,-1.73l0 -0.36c0.02,-0.14 0.07,-0.28 0.15,-0.41 0.25,-0.4 2.47,-1.84 2.58,-1.87 0,-0.26 0.04,-0.33 0.21,-0.44 0.17,-0.11 0.64,-0.41 0.83,-0.42 0.27,-0.01 0.32,0.06 0.46,0.15l0.29 -0.28c-0.16,-0.24 -0.33,-0.46 -0.47,-0.73 -0.13,-0.25 -0.26,-0.52 -0.35,-0.82 -0.39,-1.33 -0.29,-2.63 0.38,-3.87 0.17,-0.31 0.49,-0.76 0.75,-1.02 0.28,-0.27 0.32,-0.32 0.62,-0.55 0.79,-0.6 1.74,-0.92 2.7,-0.97zm-3.38 8.26l0.21 0.19c0.05,0.06 0.02,0.01 0.06,0.09l-0.28 0.26 -0.26 -0.28 0.27 -0.26zm7.97 -4.48c0.14,0.15 0.17,1.03 0.16,1.29 -0.01,0.43 -0.09,0.85 -0.22,1.23 -0.27,0.8 -0.49,1.05 -0.92,1.62 -0.07,0.09 -0.1,0.1 -0.18,0.18 -0.16,0.16 -0.16,0.18 -0.38,0.35 -0.14,0.11 -0.26,0.2 -0.43,0.3 -0.67,0.4 -1.41,0.65 -2.23,0.67 -0.25,0.01 -1.15,-0.02 -1.29,-0.16 -0.49,0 -1.6,-0.67 -1.99,-1.08 -0.27,-0.28 -0.47,-0.48 -0.69,-0.84 -1.22,-2 -0.76,-4.24 0.61,-5.63 0.98,-0.99 2.7,-1.71 4.59,-1.11 0.38,0.12 0.75,0.3 1.04,0.49 0.16,0.11 0.54,0.38 0.66,0.51 0.08,0.08 0.08,0.1 0.18,0.18 0.38,0.34 1.09,1.56 1.08,1.99z"/>
    <path class="fil2" d="M9.37 5.16c0.21,0.09 0.26,-0.01 0.38,-0.1 1.47,-1.04 3.31,-0.99 4.65,0.12 0.28,0.23 0.94,0.98 0.96,1.29 0.04,0.04 0,-0.01 0.05,0.06l0.08 0.18c0.52,1.43 0.18,2.95 -0.85,3.98 -0.78,0.78 -1.94,1.23 -3.16,1.06 -0.22,-0.03 -0.83,-0.17 -1.03,-0.3 -0.03,-0.02 -0.02,-0.02 -0.05,-0.04 -0.16,-0.01 -0.62,-0.34 -0.72,-0.42 -1.2,-0.94 -1.74,-2.56 -1.27,-4.08 0.09,-0.29 0.21,-0.56 0.35,-0.79 0.25,-0.42 0.42,-0.46 0.32,-0.71 -0.24,-0.17 -0.39,0.1 -0.56,0.37 -0.14,0.21 -0.24,0.41 -0.35,0.66 -0.46,1.1 -0.42,2.28 0.07,3.36 0.89,1.97 3.42,2.97 5.45,2 3.27,-1.56 3.15,-5.98 0.09,-7.48 -1.4,-0.69 -3.14,-0.49 -4.35,0.47 -0.11,0.09 -0.19,0.19 -0.07,0.35z"/>
    <path class="fil3" d="M9.09 5.43c0.01,-0.07 0.07,-0.1 0.12,-0.15 0.06,-0.06 0.07,-0.11 0.15,-0.12 -0.12,-0.17 -0.04,-0.26 0.07,-0.35 1.21,-0.96 2.95,-1.16 4.35,-0.47 3.06,1.51 3.18,5.92 -0.09,7.48 -2.03,0.97 -4.56,-0.03 -5.45,-2 -0.49,-1.08 -0.53,-2.26 -0.07,-3.36 0.11,-0.25 0.22,-0.45 0.35,-0.66 0.17,-0.27 0.32,-0.53 0.56,-0.37zm1.77 6.98c0.55,0.04 0.62,0.13 1.34,0.06 1.82,-0.19 3.3,-1.37 3.94,-3.07 0.36,-0.96 0.29,-1.56 0.2,-2.47 0.02,-0.43 -0.69,-1.65 -1.08,-1.99 -0.1,-0.09 -0.1,-0.1 -0.18,-0.18 -0.12,-0.13 -0.5,-0.4 -0.66,-0.51 -0.29,-0.19 -0.66,-0.37 -1.04,-0.49 -1.89,-0.6 -3.61,0.12 -4.59,1.11 -1.37,1.38 -1.83,3.63 -0.61,5.63 0.22,0.36 0.42,0.57 0.69,0.84 0.39,0.4 1.5,1.08 1.99,1.08z"/>
    <path class="fil2" d="M9.62 8.07c0.05,-0.24 0.16,-0.2 0.42,-0.2 1.9,0.01 1.75,0.14 1.75,-0.56l0 -1.42c0.01,-0.05 0.01,-0.08 0.04,-0.11 0.07,-0.07 0.01,-0.03 0.09,-0.04 0.05,-0.05 0.25,-0.07 0.25,0.25l-0 1.69c0.03,0.21 0.11,0.2 0.33,0.2 0.17,-0 0.35,-0 0.52,-0 0.36,0 0.72,0 1.07,-0 0.15,0.01 0.25,0.05 0.24,0.21 -0.01,0.16 -0.11,0.18 -0.27,0.18 -0.3,0 -0.61,-0 -0.91,-0 -1.15,0 -0.99,-0.36 -0.98,1.8 0,0.17 0.02,0.31 -0.12,0.35 -0.15,0.05 -0.24,-0.03 -0.26,-0.15 -0.03,-0.17 -0,-1.52 -0.01,-1.85 -0.03,-0.08 -0.07,-0.12 -0.16,-0.15 -0.37,-0.01 -0.75,-0 -1.12,-0 -0.18,0 -0.36,-0 -0.55,0 -0.2,0 -0.31,0 -0.34,-0.19zm4.56 -0.58l-1.62 -0.01 -0 -1.65c-0.05,-0.58 -0.86,-0.72 -1.1,-0.18 -0.13,0.28 -0.01,1.42 -0.06,1.83 -0.46,0 -0.92,0 -1.38,-0 -0.25,-0 -0.42,-0 -0.57,0.14 -0.32,0.3 -0.25,0.73 0.04,0.92 0.18,0.12 0.32,0.11 0.56,0.11 0.45,-0 0.91,-0 1.36,-0 0,0.46 0,0.92 -0,1.38 -0,0.39 0.1,0.78 0.59,0.78 0.51,-0 0.58,-0.44 0.58,-0.81 -0,-0.45 -0,-0.9 -0,-1.35 0.45,-0.07 1.56,0.1 1.88,-0.09 0.47,-0.28 0.34,-1.06 -0.27,-1.08z"/>
    <path class="fil4" d="M4.65 15.68c0.83,0.24 1.1,-0.31 1.58,-0.97 0.19,-0.26 0.36,-0.5 0.54,-0.76l0.54 -0.79c-0.03,-0.07 -0.09,-0.11 -0.16,-0.19l-0.58 -0.58c-0.13,0.05 -0.37,0.22 -0.5,0.31 -0.53,0.37 -1.47,0.94 -1.9,1.35 -0.51,0.49 0.2,1.56 0.48,1.62z"/>
    <path class="fil1" d="M10.41 11.42c0.02,0.02 0.01,0.02 0.05,0.04 0.2,0.13 0.81,0.27 1.03,0.3 1.22,0.17 2.37,-0.28 3.16,-1.06 1.03,-1.03 1.37,-2.56 0.85,-3.98l-0.08 -0.18c-0.04,-0.07 -0.01,-0.02 -0.05,-0.06 0.2,0.9 0.28,1.41 0.01,2.33 -0.1,0.34 -0.24,0.64 -0.41,0.92 -0.33,0.54 -0.78,0.98 -1.32,1.31 -0.62,0.38 -1.35,0.58 -2.09,0.57 -0.47,-0.01 -0.73,-0.1 -1.14,-0.18z"/>
    <path class="fil5" d="M4.65 15.68c0.09,0.2 0.91,0.57 1.29,0.25 0.16,-0.14 0.27,-0.31 0.41,-0.5 0.25,-0.33 0.22,-0.42 0.5,-0.34 0.02,-0.07 0.13,-0.22 0.18,-0.26 -0.04,-0.1 -0.1,-0.06 -0.09,-0.21 0.01,-0.1 0.23,-0.41 0.29,-0.5 0.09,-0.14 0.37,-0.52 0.42,-0.66 -0.1,-0.1 -0.2,-0.24 -0.34,-0.31l-0.54 0.79c-0.19,0.25 -0.35,0.49 -0.54,0.76 -0.47,0.65 -0.75,1.21 -1.58,0.97z"/>
    <path class="fil0" d="M9.62 8.07c0.36,0.01 0.73,0 1.09,0 0.18,0 0.36,0 0.55,-0 0.3,-0 0.21,0.01 0.36,0.19 0.08,0.03 0.13,0.07 0.16,0.15l0.02 0.04c0.04,0.13 0.02,1.58 0.02,1.72 0.24,-0.15 0.17,-0.55 0.17,-0.97 0,-1.41 -0.31,-1.12 1.72,-1.13 0.19,-0 0.32,-0.03 0.4,-0.2 -0.36,0 -0.72,0 -1.07,0 -0.17,0 -0.35,-0 -0.52,0 -0.22,0 -0.3,0 -0.33,-0.2 -0.21,-0.04 -0.19,-0.13 -0.19,-0.36l0 -1.56 -0.06 -0.01c-0.08,0.01 -0.02,-0.03 -0.09,0.04 -0.03,0.03 -0.04,0.06 -0.04,0.11l-0 1.42c0,0.7 0.15,0.57 -1.75,0.56 -0.26,-0 -0.37,-0.04 -0.42,0.2z"/>
    <path class="fil6" d="M10.86 12.41c0.14,0.14 1.04,0.17 1.29,0.16 0.82,-0.02 1.56,-0.27 2.23,-0.67 0.17,-0.1 0.28,-0.19 0.43,-0.3 0.22,-0.17 0.22,-0.19 0.38,-0.35 0.08,-0.08 0.11,-0.09 0.18,-0.18 0.44,-0.57 0.66,-0.82 0.92,-1.62 0.13,-0.38 0.2,-0.81 0.22,-1.23 0.01,-0.26 -0.02,-1.14 -0.16,-1.29 0.09,0.91 0.16,1.51 -0.2,2.47 -0.64,1.7 -2.12,2.88 -3.94,3.07 -0.72,0.07 -0.78,-0.01 -1.34,-0.06z"/>
    <path class="fil0 str1" d="M11.78 8.41c0.01,0.33 -0.02,1.68 0.01,1.85 0.02,0.12 0.11,0.2 0.26,0.15 0.14,-0.04 0.13,-0.18 0.12,-0.35 -0.01,-2.16 -0.17,-1.8 0.98,-1.8 0.3,0 0.61,0 0.91,0 0.17,-0 0.26,-0.02 0.27,-0.18 0.01,-0.16 -0.09,-0.2 -0.24,-0.21 -0.07,0.18 -0.21,0.2 -0.4,0.2 -2.03,0.02 -1.72,-0.28 -1.72,1.13 0,0.42 0.07,0.82 -0.17,0.97 0,-0.14 0.02,-1.59 -0.02,-1.72l-0.02 -0.04z"/>
    <path class="fil3" d="M7.67 12.95c0.08,-0.13 0.39,-0.61 0.4,-0.73 -0.04,-0.09 -0.54,-0.57 -0.58,-0.58 -0.16,-0.07 -0.72,0.33 -0.76,0.37 0.05,0.1 0.85,0.9 0.94,0.94z"/>
    <path class="fil6" d="M7.67 12.95l0.37 0.36c0.07,-0.09 0.29,-0.44 0.35,-0.56 0.07,-0.14 0.01,-0.22 -0.07,-0.3 -0.08,-0.08 -0.15,-0.17 -0.25,-0.23 -0.01,0.11 -0.32,0.6 -0.4,0.73z"/>
    <path class="fil0" d="M12.18 7.67l0 -1.69c-0,-0.32 -0.21,-0.29 -0.25,-0.25l0.06 0.01 -0 1.56c-0,0.23 -0.02,0.32 0.19,0.36z"/>
    <path class="fil0" d="M11.63 8.26c-0.15,-0.18 -0.06,-0.19 -0.36,-0.19 -0.18,0 -0.36,0 -0.55,0 -0.36,0 -0.73,0.01 -1.09,-0 0.03,0.2 0.14,0.19 0.34,0.19 0.18,-0 0.36,-0 0.55,-0 0.37,0 0.75,-0.01 1.12,0z"/>
    <path class="fil3" d="M8.11 11.66l0.26 0.28 0.28 -0.26c-0.04,-0.07 -0.01,-0.03 -0.06,-0.09l-0.21 -0.19 -0.27 0.26z"/>
    <path class="fil1" d="M14.18 7.48c-0.16,-0.07 -0.58,-0.02 -0.79,-0.02 -0.27,0 -0.54,0 -0.8,0 0,-0.23 0.04,-1.54 -0.03,-1.63l0 1.65 1.62 0.01z"/>
   </g>
  </g>
 </g>
</svg>
