<?xml version="1.0" encoding="UTF-8"?>
<!DOCTYPE svg PUBLIC "-//W3C//DTD SVG 1.1//EN" "http://www.w3.org/Graphics/SVG/1.1/DTD/svg11.dtd">
<!-- Creator: CorelDRAW 2020 (64-Bit) -->
<svg xmlns="http://www.w3.org/2000/svg" xml:space="preserve" width="81.7067mm" height="81.7067mm" version="1.1" style="shape-rendering:geometricPrecision; text-rendering:geometricPrecision; image-rendering:optimizeQuality; fill-rule:evenodd; clip-rule:evenodd"
viewBox="0 0 26.35 26.35"
 xmlns:xlink="http://www.w3.org/1999/xlink"
 xmlns:xodm="http://www.corel.com/coreldraw/odm/2003">
 <defs>
  <style type="text/css">
   <![CDATA[
    .str0 {stroke:white;stroke-width:0.02;stroke-miterlimit:22.9256}
    .fil1 {fill:black}
    .fil6 {fill:#4D585F}
    .fil2 {fill:#5E6A74}
    .fil0 {fill:#ACC608}
    .fil4 {fill:#E59542}
    .fil3 {fill:#FEC150}
    .fil5 {fill:white}
   ]]>
  </style>
 </defs>
 <g id="Capa_x0020_1">
  <metadata id="CorelCorpID_0Corel-Layer"/>
  <g id="_1703100540640">
   <path class="fil0" d="M17.75 5.32c0.15,0.19 0.06,2.77 0.06,3.23 0.53,0 1.06,0 1.59,0 0.41,0 1.25,-0.09 1.56,0.04 1.19,0.05 1.45,1.6 0.53,2.14 -0.63,0.37 -2.82,0.04 -3.72,0.18 0,0.89 -0,1.78 0,2.67 0,0.74 -0.14,1.6 -1.15,1.6 -0.96,0 -1.17,-0.77 -1.17,-1.55 0,-0.91 0,-1.83 0,-2.74 -0.9,0 -1.79,-0 -2.69,0 -0.47,0 -0.76,0.03 -1.11,-0.21 -0.56,-0.39 -0.71,-1.24 -0.07,-1.83 0.3,-0.28 0.64,-0.27 1.13,-0.27 0.91,0 1.82,0 2.73,0 0.11,-0.81 -0.13,-3.07 0.13,-3.62 0.49,-1.06 2.1,-0.79 2.19,0.36zm-6.33 -1.34c-0.17,0.03 -0.18,0.11 -0.3,0.24 -0.09,0.09 -0.21,0.16 -0.23,0.3 0.2,0.5 -0.13,0.58 -0.63,1.41 -0.28,0.46 -0.52,0.99 -0.7,1.56 -0.94,3.01 0.12,6.21 2.51,8.07 0.2,0.16 1.11,0.8 1.42,0.83 0.81,0.16 1.33,0.34 2.26,0.35 1.48,0.02 2.92,-0.38 4.15,-1.13 1.06,-0.64 1.96,-1.53 2.61,-2.59 0.33,-0.55 0.62,-1.14 0.81,-1.81 0.53,-1.83 0.38,-2.84 -0.02,-4.62 -0.05,-0.62 -1.36,-2.09 -1.91,-2.55 -2.65,-2.21 -6.3,-2.3 -9.2,-0.25 -0.25,0.18 -0.35,0.37 -0.76,0.19z"/>
   <path class="fil1" d="M8.87 17.98c0.2,0.11 0.33,0.28 0.5,0.45 0.16,0.16 0.28,0.31 0.14,0.59 -0.13,0.25 -0.55,0.94 -0.7,1.12l-0.73 -0.72c-0.17,-0.09 -1.76,-1.67 -1.86,-1.87 0.08,-0.08 1.2,-0.87 1.51,-0.73 0.08,0.03 1.07,0.98 1.15,1.16zm7.29 -17.98l0.95 0c1.82,0.09 3.62,0.68 5.14,1.78 0.15,0.11 0.21,0.15 0.35,0.26 1.1,0.89 1.71,1.6 2.45,2.81 0.64,1.06 1.27,2.91 1.3,4.36l0 0.23c-0.01,0.83 -0.02,1.38 -0.16,2.09 -0.71,3.53 -3.05,6.29 -6.5,7.45 -2.71,0.91 -5.31,0.52 -7.69,-0.67 -0.53,-0.26 -0.94,-0.6 -1.39,-0.9l-0.58 0.55c0.2,0.3 0.35,0.42 0.31,0.98 -0.03,0.35 -0.66,1.34 -0.85,1.62 -0.21,0.32 -0.35,0.39 -0.85,0.39 -0.03,0.13 -0.29,0.51 -0.38,0.65 -0.15,0.23 -0.26,0.39 -0.41,0.62 -0.56,0.84 -0.48,0.95 -1.06,0.95 -0.08,-0.2 -0.19,-0.12 -0.17,-0.41 0.01,-0.2 0.46,-0.8 0.58,-0.98 0.18,-0.27 0.74,-1.04 0.83,-1.31 -0.2,-0.21 -0.4,-0.48 -0.67,-0.62 -0.06,-0.15 -0.18,-0.23 -0.32,-0.37l-1.15 -1.14c-0.26,0.1 -0.74,0.44 -0.99,0.62 -1.04,0.73 -2.92,1.87 -3.76,2.67 -1.01,0.96 0.4,3.08 0.94,3.21 0.19,0.39 1.81,1.14 2.55,0.49 0.32,-0.28 0.54,-0.62 0.82,-0.99 0.5,-0.66 0.43,-0.83 0.99,-0.67 0.25,0.41 0.17,0.41 -0.23,0.97 -0.21,0.3 -0.4,0.53 -0.62,0.82 -0.43,0.56 -0.97,0.84 -1.53,0.9l-0.58 0c-1.6,-0.19 -3.26,-1.83 -3.48,-3.44l0 -0.71c0.04,-0.28 0.14,-0.55 0.3,-0.81 0.49,-0.79 4.9,-3.64 5.11,-3.69 0,-0.52 0.09,-0.65 0.42,-0.87 0.34,-0.22 1.27,-0.82 1.64,-0.84 0.54,-0.03 0.63,0.12 0.91,0.3l0.58 -0.55c-0.32,-0.47 -0.66,-0.91 -0.93,-1.44 -0.25,-0.5 -0.51,-1.03 -0.69,-1.63 -0.77,-2.63 -0.57,-5.2 0.76,-7.67 0.33,-0.61 0.97,-1.5 1.49,-2.01 0.55,-0.54 0.64,-0.64 1.23,-1.09 1.56,-1.18 3.44,-1.82 5.34,-1.91zm-6.69 16.35l0.42 0.37c0.1,0.11 0.05,0.03 0.13,0.17l-0.56 0.52 -0.52 -0.55 0.53 -0.51zm15.78 -8.87c0.28,0.3 0.34,2.05 0.32,2.56 -0.03,0.85 -0.18,1.69 -0.43,2.44 -0.53,1.58 -0.96,2.09 -1.83,3.21 -0.14,0.18 -0.2,0.2 -0.36,0.36 -0.32,0.32 -0.32,0.36 -0.75,0.69 -0.28,0.21 -0.52,0.4 -0.85,0.6 -1.32,0.8 -2.8,1.29 -4.42,1.34 -0.49,0.01 -2.28,-0.04 -2.55,-0.32 -0.98,0 -3.17,-1.33 -3.94,-2.13 -0.54,-0.55 -0.93,-0.95 -1.36,-1.67 -2.41,-3.96 -1.5,-8.41 1.22,-11.15 1.95,-1.96 5.35,-3.39 9.09,-2.2 0.75,0.24 1.49,0.59 2.06,0.98 0.32,0.21 1.07,0.75 1.31,1 0.16,0.16 0.16,0.19 0.36,0.36 0.76,0.67 2.17,3.08 2.13,3.94z"/>
   <path class="fil1" d="M11.43 3.98c0.41,0.19 0.51,-0.01 0.76,-0.19 2.91,-2.05 6.55,-1.97 9.2,0.25 0.55,0.46 1.86,1.94 1.91,2.55 0.08,0.08 0.01,-0.02 0.1,0.12l0.15 0.36c1.04,2.83 0.36,5.85 -1.68,7.89 -1.55,1.55 -3.84,2.43 -6.25,2.1 -0.43,-0.06 -1.65,-0.33 -2.04,-0.6 -0.07,-0.04 -0.05,-0.03 -0.09,-0.08 -0.31,-0.02 -1.22,-0.67 -1.42,-0.83 -2.38,-1.86 -3.45,-5.07 -2.51,-8.07 0.18,-0.58 0.42,-1.1 0.7,-1.56 0.5,-0.83 0.83,-0.91 0.63,-1.41 -0.48,-0.34 -0.76,0.19 -1.11,0.72 -0.27,0.42 -0.49,0.81 -0.7,1.31 -0.91,2.18 -0.82,4.52 0.14,6.66 1.76,3.9 6.77,5.88 10.79,3.96 6.48,-3.1 6.23,-11.84 0.18,-14.82 -2.77,-1.36 -6.22,-0.97 -8.61,0.93 -0.23,0.18 -0.38,0.37 -0.15,0.7z"/>
   <path class="fil2" d="M10.89 4.53c0.03,-0.14 0.14,-0.21 0.23,-0.3 0.12,-0.13 0.13,-0.22 0.3,-0.24 -0.24,-0.33 -0.08,-0.52 0.15,-0.7 2.39,-1.9 5.84,-2.29 8.61,-0.93 6.06,2.98 6.31,11.72 -0.18,14.82 -4.02,1.92 -9.02,-0.06 -10.79,-3.96 -0.97,-2.14 -1.05,-4.48 -0.14,-6.66 0.21,-0.5 0.43,-0.9 0.7,-1.31 0.35,-0.53 0.63,-1.06 1.11,-0.72zm3.5 13.82c1.09,0.09 1.23,0.26 2.64,0.11 3.61,-0.37 6.55,-2.72 7.81,-6.08 0.72,-1.9 0.58,-3.09 0.41,-4.9 0.04,-0.86 -1.37,-3.27 -2.13,-3.94 -0.2,-0.17 -0.2,-0.2 -0.36,-0.36 -0.25,-0.25 -0.99,-0.79 -1.31,-1 -0.58,-0.38 -1.31,-0.74 -2.06,-0.98 -3.74,-1.2 -7.14,0.23 -9.09,2.2 -2.72,2.74 -3.63,7.19 -1.22,11.15 0.44,0.72 0.83,1.12 1.36,1.67 0.77,0.8 2.97,2.13 3.94,2.13z"/>
   <path class="fil1" d="M11.94 9.75c0.09,-0.47 0.32,-0.4 0.83,-0.39 3.77,0.02 3.46,0.28 3.46,-1.12l0 -2.82c0.01,-0.09 0.02,-0.16 0.08,-0.22 0.14,-0.14 0.02,-0.06 0.19,-0.08 0.09,-0.09 0.49,-0.14 0.5,0.49l-0 3.35c0.06,0.41 0.22,0.4 0.65,0.4 0.34,-0 0.69,-0 1.03,-0 0.71,0 1.42,0.01 2.12,-0 0.3,0.01 0.5,0.1 0.48,0.42 -0.02,0.31 -0.21,0.36 -0.54,0.36 -0.6,0 -1.2,-0 -1.8,-0 -2.28,0 -1.96,-0.71 -1.94,3.57 0,0.34 0.03,0.62 -0.25,0.7 -0.3,0.09 -0.48,-0.07 -0.52,-0.31 -0.06,-0.33 -0,-3.01 -0.02,-3.66 -0.06,-0.17 -0.15,-0.24 -0.31,-0.3 -0.73,-0.01 -1.48,-0 -2.21,-0 -0.36,0 -0.72,-0 -1.08,0 -0.39,0 -0.62,0.01 -0.67,-0.38zm9.03 -1.15l-3.21 -0.01 -0.01 -3.26c-0.09,-1.15 -1.69,-1.42 -2.19,-0.36 -0.26,0.55 -0.02,2.81 -0.13,3.62 -0.91,0 -1.82,0 -2.73,-0 -0.49,-0 -0.83,-0.01 -1.13,0.27 -0.64,0.59 -0.49,1.44 0.07,1.83 0.35,0.24 0.64,0.21 1.11,0.21 0.9,-0 1.79,-0 2.69,-0 0,0.91 0,1.83 -0,2.74 -0,0.78 0.21,1.55 1.17,1.55 1.01,-0 1.15,-0.86 1.15,-1.6 -0,-0.89 -0,-1.78 -0,-2.67 0.9,-0.14 3.09,0.19 3.72,-0.18 0.93,-0.55 0.67,-2.09 -0.53,-2.14z"/>
   <path class="fil3" d="M2.08 24.83c1.64,0.47 2.19,-0.62 3.13,-1.92 0.38,-0.52 0.71,-1 1.08,-1.5l1.08 -1.57c-0.06,-0.15 -0.18,-0.23 -0.32,-0.37l-1.15 -1.14c-0.26,0.1 -0.74,0.44 -0.99,0.62 -1.04,0.73 -2.92,1.87 -3.76,2.67 -1.01,0.96 0.4,3.08 0.94,3.21z"/>
   <path class="fil0" d="M13.49 16.4c0.04,0.05 0.03,0.03 0.09,0.08 0.39,0.26 1.6,0.54 2.04,0.6 2.41,0.33 4.7,-0.55 6.25,-2.1 2.04,-2.05 2.72,-5.06 1.68,-7.89l-0.15 -0.36c-0.09,-0.14 -0.01,-0.04 -0.1,-0.12 0.39,1.78 0.55,2.8 0.02,4.62 -0.2,0.67 -0.48,1.26 -0.81,1.81 -0.65,1.06 -1.55,1.95 -2.61,2.59 -1.23,0.75 -2.66,1.15 -4.15,1.13 -0.93,-0.01 -1.45,-0.2 -2.26,-0.35z"/>
   <path class="fil4" d="M2.08 24.83c0.19,0.39 1.81,1.14 2.55,0.49 0.32,-0.28 0.54,-0.62 0.82,-0.99 0.5,-0.66 0.43,-0.83 0.99,-0.67 0.04,-0.14 0.25,-0.43 0.36,-0.51 -0.08,-0.2 -0.19,-0.12 -0.17,-0.41 0.01,-0.2 0.46,-0.8 0.58,-0.98 0.18,-0.27 0.74,-1.04 0.83,-1.31 -0.2,-0.21 -0.4,-0.48 -0.67,-0.62l-1.08 1.57c-0.37,0.5 -0.7,0.97 -1.08,1.5 -0.94,1.3 -1.48,2.39 -3.13,1.92z"/>
   <path class="fil5" d="M11.94 9.75c0.72,0.01 1.45,0 2.17,0 0.36,0 0.72,0 1.08,-0 0.6,-0 0.42,0.03 0.72,0.38 0.16,0.06 0.25,0.14 0.31,0.3l0.04 0.08c0.08,0.26 0.03,3.12 0.03,3.4 0.48,-0.31 0.34,-1.09 0.34,-1.93 0,-2.8 -0.62,-2.21 3.4,-2.24 0.37,-0 0.64,-0.05 0.78,-0.4 -0.71,0.01 -1.42,0 -2.12,0 -0.34,0 -0.69,-0 -1.03,0 -0.43,0 -0.59,0.01 -0.65,-0.4 -0.42,-0.08 -0.38,-0.26 -0.38,-0.72l0 -3.09 -0.12 -0.03c-0.17,0.01 -0.04,-0.06 -0.19,0.08 -0.06,0.06 -0.07,0.13 -0.08,0.22l-0 2.82c0,1.4 0.3,1.14 -3.46,1.12 -0.51,-0 -0.74,-0.08 -0.83,0.39z"/>
   <path class="fil6" d="M14.39 18.35c0.27,0.28 2.06,0.34 2.55,0.32 1.62,-0.05 3.09,-0.54 4.42,-1.34 0.33,-0.2 0.56,-0.38 0.85,-0.6 0.43,-0.33 0.43,-0.37 0.75,-0.69 0.16,-0.16 0.22,-0.17 0.36,-0.36 0.87,-1.13 1.31,-1.63 1.83,-3.21 0.25,-0.75 0.4,-1.6 0.43,-2.44 0.02,-0.51 -0.04,-2.26 -0.32,-2.56 0.17,1.81 0.31,3 -0.41,4.9 -1.27,3.36 -4.2,5.7 -7.81,6.08 -1.42,0.15 -1.55,-0.02 -2.64,-0.11z"/>
   <path class="fil5 str0" d="M16.21 10.43c0.02,0.65 -0.04,3.33 0.02,3.66 0.04,0.24 0.22,0.39 0.52,0.31 0.28,-0.08 0.25,-0.36 0.25,-0.7 -0.03,-4.27 -0.34,-3.57 1.94,-3.57 0.6,0 1.2,0.01 1.8,0 0.33,-0 0.52,-0.05 0.54,-0.36 0.02,-0.32 -0.18,-0.4 -0.48,-0.42 -0.15,0.35 -0.42,0.4 -0.78,0.4 -4.02,0.03 -3.4,-0.56 -3.4,2.24 0,0.83 0.15,1.62 -0.34,1.93 0,-0.28 0.05,-3.14 -0.03,-3.4l-0.04 -0.08z"/>
   <path class="fil2" d="M8.08 19.42c0.16,-0.26 0.78,-1.22 0.79,-1.44 -0.08,-0.18 -1.07,-1.12 -1.15,-1.16 -0.32,-0.14 -1.43,0.65 -1.51,0.73 0.1,0.19 1.69,1.77 1.86,1.87z"/>
   <path class="fil6" d="M8.08 19.42l0.73 0.72c0.15,-0.18 0.57,-0.87 0.7,-1.12 0.15,-0.28 0.02,-0.44 -0.14,-0.59 -0.17,-0.17 -0.3,-0.34 -0.5,-0.45 -0.01,0.23 -0.63,1.18 -0.79,1.44z"/>
   <path class="fil5" d="M17 8.96l0 -3.35c-0.01,-0.63 -0.41,-0.58 -0.5,-0.49l0.12 0.03 -0 3.09c-0,0.46 -0.04,0.64 0.38,0.72z"/>
   <path class="fil5" d="M15.9 10.13c-0.3,-0.36 -0.11,-0.39 -0.72,-0.38 -0.36,0 -0.72,0 -1.08,0 -0.72,0 -1.45,0.01 -2.17,-0 0.05,0.39 0.28,0.38 0.67,0.38 0.36,-0 0.72,-0 1.08,-0 0.74,0 1.48,-0.01 2.21,0z"/>
   <path class="fil2" d="M8.94 16.87l0.52 0.55 0.56 -0.52c-0.08,-0.15 -0.03,-0.06 -0.13,-0.17l-0.42 -0.37 -0.53 0.51z"/>
   <path class="fil0" d="M20.97 8.59c-0.31,-0.13 -1.15,-0.04 -1.56,-0.04 -0.53,0 -1.06,0 -1.59,0 0,-0.45 0.09,-3.04 -0.06,-3.23l0.01 3.26 3.21 0.01z"/>
  </g>
 </g>
</svg>
