<?xml version="1.0" encoding="UTF-8"?>
<!DOCTYPE svg PUBLIC "-//W3C//DTD SVG 1.1//EN" "http://www.w3.org/Graphics/SVG/1.1/DTD/svg11.dtd">
<!-- Creator: CorelDRAW 2020 (64-Bit) -->
<svg xmlns="http://www.w3.org/2000/svg" xml:space="preserve" width="69.7339mm" height="76.3364mm" version="1.1" style="shape-rendering:geometricPrecision; text-rendering:geometricPrecision; image-rendering:optimizeQuality; fill-rule:evenodd; clip-rule:evenodd"
viewBox="0 0 19 20.8"
 xmlns:xlink="http://www.w3.org/1999/xlink"
 xmlns:xodm="http://www.corel.com/coreldraw/odm/2003">
 <defs>
  <style type="text/css">
   <![CDATA[
    .fil0 {fill:black}
    .fil8 {fill:#0282FB}
    .fil6 {fill:#22A5FC}
    .fil14 {fill:#49679B}
    .fil5 {fill:#6D7EAA}
    .fil12 {fill:#E31E2B}
    .fil4 {fill:#EDE0DB}
    .fil3 {fill:#F6F1EF}
    .fil1 {fill:#FC4755}
    .fil7 {fill:#FCB43E}
    .fil10 {fill:#FD9901}
    .fil11 {fill:#FED1A2}
    .fil9 {fill:#FED1A3}
    .fil13 {fill:#FFBC85}
    .fil2 {fill:#FFE4C0}
   ]]>
  </style>
 </defs>
 <g id="Capa_x0020_1">
  <metadata id="CorelCorpID_0Corel-Layer"/>
  <g id="_1703440187552">
   <g id="_2695373620192">
    <path class="fil0" d="M13.92 9.44c0.1,-0.12 0.32,-0.28 0.52,-0.24 0.42,0.07 1.15,0.47 1.4,0.92 0.23,0.41 0.22,0.8 0.22,1.31 0,0.36 0.03,0.37 -0.15,0.6 -0.15,0.19 -0.19,0.27 -0.37,0.4 -0.08,0.15 -0.55,0.55 -0.76,0.7 -2.47,1.63 -5.43,1.03 -7.04,-1.17 -0.16,-0.21 -0.11,-0.31 -0.1,-0.62 0,-1.18 0.28,-1.7 1.51,-2.11 0.28,-0.09 0.33,-0.01 0.53,0.11 0.15,0.09 0.28,0.17 0.43,0.26 0.61,0.35 1.43,0.99 1.97,0.85 0.24,-0.06 0.73,-0.38 0.95,-0.51 0.16,-0.1 0.77,-0.47 0.91,-0.5l-0 0zm-2.11 -9.44l0.1 0c0.45,0.01 0.91,0.1 1.32,0.28 0.41,0.18 0.92,0.52 1.2,0.88 0.44,0.57 0.64,0.85 0.83,1.61l0.06 0.32c0.06,0.51 0.07,0.91 0.07,1.43 0.56,0.33 1.38,1.44 1.67,2.14 0.89,2.13 0.54,4.08 -0.77,5.86 -0.56,0.76 -1.23,1.16 -1.99,1.58 -0.11,0.06 -0.05,0.01 -0.13,0.09 -0.32,0.01 -2,0.98 -4.34,0.09 -1.32,-0.5 -2.22,-1.35 -2.85,-2.36 -1.13,-1.8 -1.11,-4.2 0.08,-6.07 0.3,-0.48 0.84,-1.07 1.24,-1.36 0,-0.51 0.01,-0.91 0.07,-1.42 0.02,-0.71 0.59,-1.67 1.11,-2.16 0.61,-0.58 1.46,-0.91 2.33,-0.92l-0 0zm-1.23 8.58l0.13 -0.3c0.39,0.05 0.61,0.24 1.13,0.24 0.5,-0 0.71,-0.16 1.1,-0.23 0.38,0.59 0.04,0.19 0.56,0.65l-0.38 0.22c-0.22,0.16 -0.49,0.3 -0.74,0.44 -0.25,0.15 -0.47,0.36 -0.77,0.19 -0.48,-0.27 -0.99,-0.57 -1.43,-0.84l0.4 -0.37 0 0zm4.59 -2.64l0.21 -0.61c0.4,0.42 0.48,0.47 0.8,0.99 0.22,0.35 0.41,0.77 0.54,1.21 0.23,0.79 0.29,2.16 -0.01,2.91l-0.06 0.12c-0,-0.01 -0.01,0.02 -0.02,0.03 -0.22,-1.05 -0.47,-1.04 -0.96,-1.52 -0.17,-0.07 -0.34,-0.18 -0.54,-0.27 -0.83,-0.34 -1.51,-0.26 -1.61,-0.83l0.52 -0.42c0.44,-0.36 0.92,-1.05 1.14,-1.61l-0 0zm-8.15 4.67c-0.29,-1.13 -0.4,-1.96 -0.05,-3.13 0.21,-0.69 0.86,-1.86 1.36,-2.17 0.08,0.59 0.4,1.16 0.68,1.54 0.26,0.35 0.77,0.9 1.17,1.09 -0.13,0.52 -0.38,0.45 -0.89,0.6 -0.73,0.22 -1.43,0.47 -1.86,1.07 -0.37,0.52 -0.29,0.75 -0.42,0.99l0 0zm4.44 -2.78c-0.54,0.07 -1.5,-0.77 -1.85,-1.21 -0.63,-0.78 -0.7,-1.19 -0.7,-2.41 0.26,-0.05 0.49,-0.14 0.67,-0.26 0.63,-0.39 0.36,-0.73 1.18,-0.51 1.11,0.3 1.12,0.29 2.27,-0.03 0.63,-0.17 0.55,0.25 1.15,0.59 0.21,0.1 0.35,0.16 0.59,0.21 0,1.44 -0.15,1.77 -0.88,2.62 -0.36,0.42 -1,0.86 -1.62,1.02 -0.23,0.06 -0.5,0.09 -0.73,0.01l-0.06 -0.03 -0 0zm1.84 -6.77c0.36,0.13 0.8,0.66 0.99,0.99 0.25,0.44 0.41,0.93 0.45,1.52 -0.31,-0.06 -0.55,-0.28 -0.66,-0.47 -0.16,-0.09 -0.29,-0.26 -0.55,-0.33 -0.63,-0.16 -1.18,0.45 -2.18,0.19 -0.44,-0.12 -0.99,-0.34 -1.43,-0.09 -0.37,0.21 -0.49,0.61 -1,0.7 0.13,-1.78 1.4,-2.97 2.92,-2.97 0.39,0 1.32,0.22 1.46,0.45l0 0z"/>
    <path class="fil0" d="M5.33 16.06l0.51 0.48 -0.64 0.65c-0.14,-0.08 -0.4,-0.35 -0.47,-0.48 -0.17,-0.08 -0.91,-0.87 -1.1,-1.07l0.64 -0.65c0.14,0.07 0.44,0.41 0.56,0.53 0.15,0.15 0.43,0.36 0.5,0.54l-0 0zm-3.44 4.74l-0.36 0c-0.71,-0.07 -1.32,-0.59 -1.5,-1.42 -0.07,-0.31 -0.01,-0.66 0.08,-0.91 0.11,-0.3 0.22,-0.43 0.42,-0.63 0.66,-0.66 0.73,-0.93 1.21,-0.82 0.14,0.44 0.08,0.42 -0.2,0.69 -0.43,0.43 -0.88,0.75 -0.91,1.29 -0.02,0.34 0.11,0.67 0.3,0.81 0.19,0.31 0.75,0.47 1.22,0.29 0.33,-0.13 0.69,-0.58 0.91,-0.8 0.56,-0.56 1.15,-1.11 1.67,-1.68 -0.09,-0.13 -0.33,-0.37 -0.47,-0.46l-1.06 -1.08c-0.32,0.16 -0.46,0.73 -0.98,0.49 -0.11,-0.19 -0.15,-0.29 0.03,-0.47l0.94 -0.93c0.73,-0.73 0.9,-1.11 1.48,-0.71l1.33 -1.35c-0.03,-0.12 -0.25,-0.43 -0.33,-0.56 -1.35,-2.23 -1.27,-5.31 0.18,-7.47 0.46,-0.69 0.45,-0.58 0.76,-0.98 0.13,-0.16 0.26,-0.29 0.43,-0.42 0.19,-0.15 0.29,-0.29 0.57,-0.1 0.15,0.51 -0.03,0.4 -0.44,0.84 -2.99,3.2 -2.29,8.03 1.51,10.25 0.55,0.32 1.34,0.6 2.08,0.72 0.67,0.11 1.95,0.15 2.56,-0.08 1.29,-0.22 2.5,-1.09 3.14,-1.72 1.87,-1.85 2.45,-4.74 1.36,-7.25 -0.43,-1 -0.93,-1.56 -1.64,-2.26 -0.25,-0.24 -0.31,-0.2 -0.18,-0.59 0.28,-0.15 0.41,-0.06 0.6,0.13 0.31,0.31 0.6,0.58 0.87,0.92l0.37 0.52c0.53,0.86 0.81,1.47 1.02,2.51 0.79,3.93 -1.86,7.64 -5.52,8.37 -1.38,0.28 -2.94,0.17 -4.22,-0.38l-0.89 -0.45c-0.18,-0.1 -0.35,-0.23 -0.52,-0.35l-1.37 1.35c0.39,0.59 0.04,0.75 -0.52,1.31 -0.48,0.48 -2.85,2.94 -3.21,3.13 -0.24,0.13 -0.48,0.21 -0.72,0.23l-0 -0zm3.79 -5.32l-0.57 -0.55 1.34 -1.32c0.21,0.26 0.45,0.39 0.45,0.51 0.12,0.08 0.21,0.15 0.29,0.25l-1.32 1.31 -0.19 -0.21 0 0z"/>
    <path class="fil1" d="M15.54 12.42c0.14,-0.56 -0,-1.61 -0.25,-2.04 -0.29,-0.48 -0.72,-0.71 -1.36,-0.95 -0.14,0.03 -0.74,0.4 -0.91,0.5 -0.21,0.13 -0.71,0.45 -0.95,0.51 -0.53,0.14 -1.36,-0.5 -1.97,-0.85 -0.15,-0.09 -0.28,-0.16 -0.43,-0.26 -0.2,-0.12 -0.25,-0.2 -0.53,-0.11 -1.23,0.41 -1.5,0.93 -1.51,2.11 -0,0.31 -0.05,0.41 0.1,0.62 1.61,2.19 4.57,2.8 7.04,1.17 0.22,-0.14 0.68,-0.54 0.76,-0.7l0 0z"/>
    <path class="fil2" d="M11.48 7.83c0.91,-0.31 1.47,-0.73 1.94,-1.32 0.57,-0.72 0.81,-1.32 0.77,-2.51 -0.6,-0.34 -0.52,-0.76 -1.15,-0.59 -1.14,0.32 -1.16,0.33 -2.27,0.03 -0.81,-0.22 -0.55,0.12 -1.18,0.51 -0.18,0.11 -0.41,0.21 -0.67,0.26 0,1.21 0.07,1.62 0.7,2.41 0.36,0.44 1.31,1.28 1.85,1.21l-0 -0z"/>
    <path class="fil3" d="M7.61 3.57c0.15,0.51 -0.03,0.4 -0.44,0.84 -2.99,3.2 -2.29,8.03 1.51,10.25 0.55,0.32 1.34,0.6 2.08,0.72 0.67,0.11 1.95,0.15 2.56,-0.08 0.01,-0.01 0.02,-0.03 0.03,-0.03 0,0.01 0.02,-0.02 0.03,-0.03l0.66 -0.78c0.03,-0.05 0.06,-0.09 0.1,-0.15 0.11,-0.17 0.09,-0.06 0.05,-0.14 -0.32,0.01 -2,0.98 -4.34,0.09 -1.32,-0.5 -2.22,-1.35 -2.85,-2.36 -1.13,-1.8 -1.11,-4.2 0.08,-6.07 0.3,-0.48 0.84,-1.07 1.24,-1.36 0,-0.51 0.01,-0.91 0.07,-1.42 -0.14,0.06 -0.27,0.14 -0.39,0.23 -0.11,0.08 -0.26,0.2 -0.37,0.26l0 0z"/>
    <path class="fil4" d="M14.18 14.19c0.04,0.08 0.06,-0.03 -0.05,0.14 -0.04,0.06 -0.07,0.1 -0.1,0.15l-0.66 0.78c-0.01,0.01 -0.02,0.03 -0.03,0.03 -0,-0.01 -0.02,0.02 -0.03,0.03 1.29,-0.22 2.5,-1.09 3.14,-1.72 1.87,-1.85 2.45,-4.74 1.36,-7.25 -0.43,-1 -0.93,-1.56 -1.64,-2.26 -0.25,-0.24 -0.31,-0.2 -0.18,-0.59 -0.24,-0.12 -0.43,-0.31 -0.68,-0.41 0.06,0.51 0.07,0.91 0.07,1.43 0.56,0.33 1.38,1.44 1.67,2.14 0.89,2.13 0.54,4.08 -0.77,5.86 -0.56,0.76 -1.23,1.16 -1.99,1.58 -0.11,0.06 -0.05,0.01 -0.13,0.09l0 0z"/>
    <path class="fil5" d="M14.1 3.11c0.1,-0.03 0.05,-0.11 0.03,-0.25 -0.02,-0.1 -0.04,-0.21 -0.07,-0.31 -0.24,-0.94 -0.49,-1.02 -0.74,-1.49 -0.15,-0.23 -1.08,-0.45 -1.46,-0.45 -1.52,-0 -2.79,1.18 -2.92,2.97 0.51,-0.1 0.63,-0.49 1,-0.7 0.44,-0.24 0.99,-0.02 1.43,0.09 0.99,0.26 1.55,-0.34 2.18,-0.19 0.27,0.07 0.4,0.24 0.55,0.33l0 0z"/>
    <path class="fil6" d="M7.03 10.61c0.13,-0.24 0.05,-0.48 0.42,-0.99 0.43,-0.6 1.13,-0.85 1.86,-1.07 0.51,-0.15 0.77,-0.08 0.89,-0.6 -0.4,-0.19 -0.91,-0.74 -1.17,-1.09 -0.29,-0.38 -0.6,-0.96 -0.68,-1.54 -0.5,0.31 -1.15,1.49 -1.36,2.17 -0.35,1.17 -0.24,2 0.05,3.13l-0 -0z"/>
    <path class="fil7" d="M2.23 16.58l-0.49 0.44c0.14,0.44 0.08,0.42 -0.2,0.69 -0.43,0.43 -0.88,0.75 -0.91,1.29 -0.02,0.34 0.11,0.67 0.3,0.81 0.52,0.01 0.78,-0.1 1.09,-0.37 0.26,-0.23 0.51,-0.5 0.76,-0.75 0.26,-0.26 1.38,-1.32 1.49,-1.53l-1.06 -1.08c-0.32,0.16 -0.46,0.73 -0.98,0.49z"/>
    <path class="fil8" d="M15.18 5.93c0.31,0.37 0.5,2.5 0.49,3.13 0.49,0.47 0.74,0.47 0.96,1.52 0.01,-0.01 0.02,-0.03 0.02,-0.03l0.06 -0.12c0.3,-0.75 0.24,-2.12 0.01,-2.91 -0.13,-0.44 -0.32,-0.86 -0.54,-1.21 -0.33,-0.52 -0.4,-0.57 -0.8,-0.99l-0.21 0.61 0 0z"/>
    <path class="fil6" d="M15.67 9.06c0.01,-0.63 -0.18,-2.76 -0.49,-3.13 -0.23,0.56 -0.71,1.26 -1.14,1.62l-0.52 0.42c0.1,0.57 0.78,0.49 1.62,0.83 0.2,0.08 0.38,0.2 0.54,0.27l0 -0z"/>
    <path class="fil9" d="M11.48 7.83l0.06 0.03c0.23,0.08 0.5,0.05 0.73,-0.01 0.62,-0.15 1.26,-0.59 1.62,-1.02 0.73,-0.85 0.88,-1.18 0.88,-2.62 -0.25,-0.05 -0.38,-0.11 -0.59,-0.21 0.03,1.18 -0.2,1.79 -0.77,2.51 -0.47,0.58 -1.03,1.01 -1.94,1.32l0 0z"/>
    <path class="fil10" d="M0.93 19.82c0.19,0.31 0.75,0.47 1.22,0.29 0.33,-0.13 0.69,-0.58 0.91,-0.8 0.56,-0.56 1.15,-1.11 1.67,-1.68 -0.09,-0.13 -0.33,-0.37 -0.47,-0.46 -0.11,0.21 -1.23,1.27 -1.49,1.53 -0.25,0.25 -0.49,0.52 -0.76,0.75 -0.31,0.26 -0.56,0.38 -1.09,0.37l-0 0z"/>
    <path class="fil11" d="M13.13 9.15c-0.25,-0.12 -0.35,-0.21 -0.45,-0.46 -0.43,0.05 -0.55,0.18 -1.11,0.13 -0.39,-0.04 -0.65,-0.15 -0.98,-0.24l-0.4 0.37c0.44,0.27 0.95,0.57 1.43,0.84 0.31,0.17 0.52,-0.04 0.77,-0.19 0.25,-0.15 0.52,-0.29 0.74,-0.44l0 0z"/>
    <path class="fil12" d="M13.92 9.44c0.64,0.24 1.07,0.46 1.36,0.95 0.25,0.42 0.39,1.48 0.25,2.04 0.18,-0.13 0.22,-0.21 0.37,-0.4 0.18,-0.23 0.15,-0.24 0.15,-0.6 -0,-0.5 0.02,-0.89 -0.22,-1.31 -0.25,-0.45 -0.98,-0.85 -1.4,-0.92 -0.2,-0.03 -0.42,0.13 -0.52,0.25l-0 -0z"/>
    <path class="fil3" d="M4.72 16.71c0.13,-0.03 0.23,-0.18 0.33,-0.28 0.06,-0.07 0.1,-0.1 0.16,-0.16 0.12,-0.12 0.13,-0.08 0.11,-0.21 -0.08,-0.17 -0.35,-0.38 -0.5,-0.54 -0.13,-0.12 -0.43,-0.47 -0.56,-0.53l-0.64 0.65c0.19,0.2 0.93,0.99 1.1,1.07l0 -0z"/>
    <path class="fil5" d="M5.68 15.48l1.15 -1.13c0.13,-0.13 0.13,-0.06 0.07,-0.22 -0.01,-0.13 -0.25,-0.26 -0.45,-0.51l-1.34 1.32 0.57 0.55 0 -0z"/>
    <path class="fil13" d="M10.59 8.58c0.34,0.09 0.59,0.2 0.98,0.24 0.56,0.06 0.68,-0.08 1.11,-0.13 0.11,0.25 0.21,0.34 0.45,0.46l0.38 -0.22c-0.52,-0.47 -0.18,-0.07 -0.56,-0.65 -0.39,0.07 -0.6,0.23 -1.1,0.23 -0.53,0 -0.74,-0.18 -1.13,-0.24l-0.13 0.3 -0 -0z"/>
    <path class="fil14" d="M14.1 3.11c0.11,0.19 0.36,0.41 0.66,0.47 -0.04,-0.59 -0.2,-1.08 -0.45,-1.52 -0.19,-0.34 -0.64,-0.87 -0.99,-0.99 0.26,0.46 0.5,0.55 0.74,1.49 0.02,0.1 0.05,0.21 0.07,0.31 0.02,0.14 0.07,0.22 -0.03,0.25l0 -0z"/>
    <path class="fil4" d="M4.72 16.71c0.07,0.13 0.33,0.4 0.47,0.48l0.64 -0.65 -0.51 -0.48c0.02,0.13 0.01,0.1 -0.11,0.21 -0.07,0.06 -0.1,0.1 -0.16,0.16 -0.1,0.1 -0.2,0.25 -0.33,0.28l0 -0z"/>
    <path class="fil14" d="M5.68 15.48l0.19 0.21 1.32 -1.31c-0.08,-0.11 -0.17,-0.17 -0.29,-0.25 0.06,0.16 0.06,0.09 -0.07,0.22l-1.15 1.13z"/>
   </g>
  </g>
 </g>
</svg>
