<?xml version="1.0" encoding="UTF-8"?>
<!DOCTYPE svg PUBLIC "-//W3C//DTD SVG 1.1//EN" "http://www.w3.org/Graphics/SVG/1.1/DTD/svg11.dtd">
<!-- Creator: CorelDRAW 2020 (64-Bit) -->
<svg xmlns="http://www.w3.org/2000/svg" xml:space="preserve" width="135.45mm" height="135.45mm" version="1.1" style="shape-rendering:geometricPrecision; text-rendering:geometricPrecision; image-rendering:optimizeQuality; fill-rule:evenodd; clip-rule:evenodd"
viewBox="0 0 4198.95 4198.95"
 xmlns:xlink="http://www.w3.org/1999/xlink"
 xmlns:xodm="http://www.corel.com/coreldraw/odm/2003">
 <defs>
  <style type="text/css">
   <![CDATA[
    .fil1 {fill:black}
    .fil8 {fill:#544F57}
    .fil5 {fill:#645D67}
    .fil11 {fill:#8B808E}
    .fil7 {fill:#8BB2EA}
    .fil12 {fill:#A097A3}
    .fil3 {fill:#A4CCFF}
    .fil9 {fill:#D7E1F2}
    .fil4 {fill:#E5EBF7}
    .fil10 {fill:#ECEBEC}
    .fil2 {fill:whitesmoke}
    .fil0 {fill:#FEDF7C}
    .fil6 {fill:#FFD064}
   ]]>
  </style>
 </defs>
 <g id="Capa_x0020_1">
  <metadata id="CorelCorpID_0Corel-Layer"/>
  <g id="_2762876988800">
   <path class="fil0" d="M57.41 2763.13l0 165.96c89.4,16.19 65.57,96.94 65.57,187.32l-0.08 763.08c4.8,216.75 190.57,196.49 311.76,196.49l2550.04 -0.04c31.81,-49.56 66.97,-65.51 76.82,-155.4l1.6 -1588.73 -69.26 -15.53c-18.36,24.54 -106.52,172.06 -104.86,191.77 3.89,46.31 81.16,86.14 -7.52,234.03 -77.07,128.53 -145.62,253.93 -222.41,384.37 -75.75,128.67 -147.14,252.44 -222.02,384.9 -82.57,146.05 -204.73,248.91 -391,207.07 -145.93,-32.78 -270.26,-162.12 -265.61,-339.66 3.42,-130.61 134.35,-312.17 192.23,-413.65 72.46,-127.03 150.29,-257.26 221.86,-385.1 107.61,-192.22 138.37,-303.41 310.7,-295.46l105.34 -192.34c-136.69,-1.35 -559.58,6 -666.89,-2.15 -50.65,-3.85 -88.9,-16.8 -128.88,-42.67l-33.97 -18.32c-140.58,7.32 -221.82,-36.51 -261.26,-136.93 -44.69,-113.82 -30.39,-201.62 -103.9,-292.87l-940 -0.11c-102.02,0 -207.04,-12.78 -281.03,38.68 -69.17,48.11 -71.71,129.65 -71.66,240.19l0.32 787.68c-0,61.87 -7.31,88.27 -65.89,97.4z"/>
   <path class="fil1" d="M2064.04 3595c-106.08,-20.61 -200.88,-148.92 -146.99,-283.53l334.16 -584.67c53.16,-93.18 108.36,-198.33 165.34,-284.81 50.57,-74.03 136.23,1.21 191.69,34.47 249.01,149.34 243.46,66.31 44.88,414.39 -51.78,90.77 -105.91,185.92 -158.5,276.38 -48.93,84.16 -184.61,350.48 -256.08,399.74 -44.34,30.56 -114.15,47.65 -174.5,28.02zm-1450.19 -3595l2125.32 0 139.09 0c42.72,2.75 78.56,11.84 126.12,38.24 179.01,99.35 161.25,266.06 161.25,437.43 95.18,0 45.66,-19.18 219.28,2.15 197.28,24.24 337.76,104.65 486.09,219.2 75.32,58.17 162.35,167.36 210.47,257 67.28,125.34 106.55,251.98 117.51,380.7l0 150.25c-6.56,77.88 -23.23,156.61 -50.13,236.34 -55.59,164.79 -156.97,305.51 -288.5,416.8 -110.14,93.19 -333.15,207.41 -489.68,207.41 0,206.36 13.74,1546.67 -9.52,1630.69 -43.18,155.95 -157.19,207.72 -285.36,222.75l-312 0 -2477.12 0c-61.92,-2.32 -101.01,-18.39 -142.47,-45.76 -107.68,-71.07 -137.24,-151.52 -144.17,-254.21l0 -216.7 0 -701.14c3.72,-28.28 16.87,-45.69 57.41,-52.06 89.4,16.19 65.57,96.94 65.57,187.32l-0.08 763.08c4.8,216.75 190.57,196.49 311.76,196.49l2550.04 -0.04c183.91,0.03 263.45,-39.35 263.04,-229.58l-0.11 -1493.73 -184.52 -20.82 -69.26 -15.53c-18.36,24.54 -106.52,172.06 -104.86,191.77 3.89,46.31 81.16,86.14 -7.52,234.03 -77.07,128.53 -145.62,253.93 -222.41,384.37 -75.75,128.67 -147.14,252.44 -222.02,384.9 -82.57,146.05 -204.73,248.91 -391,207.07 -145.93,-32.78 -270.26,-162.12 -265.61,-339.66 3.42,-130.61 134.35,-312.17 192.23,-413.65 72.46,-127.03 150.29,-257.26 221.86,-385.1 107.61,-192.22 138.37,-303.41 310.7,-295.46l105.34 -192.34c-136.69,-1.35 -559.58,6 -666.89,-2.15 -50.65,-3.85 -88.9,-16.8 -128.88,-42.67l-33.97 -18.32c-23.79,-44.88 -53.63,-52.26 -77.02,-124.32 -17.31,-53.32 -27.66,-104.22 -40.63,-156.57 -35,-141.33 -93,-149.35 -247.51,-148.91l-940 -0.11c-102.02,0 -207.04,-12.78 -281.03,38.68 -69.17,48.11 -71.71,129.65 -71.66,240.19l0.32 787.68c-0,61.87 -7.31,88.27 -65.89,97.4 -40.73,-2.06 -53.78,-25.15 -57.41,-58.17l0 -88.81 0 -821.4c3.09,-186.84 127.96,-315.19 278.84,-318.55 0,-185.03 -11.06,-1108.03 5.58,-1208.18 15.53,-93.45 50.33,-145.4 107.17,-196.27 69.33,-62.06 136.67,-71.36 222.26,-71.74zm2203.32 2359.42c-2.34,25.14 1.86,13.4 -14.86,40.64 -7.37,12.02 -16,22.9 -23.55,33.16l-164.75 -97.44 42.84 -68.31c8.89,-30.69 32.44,-69.71 49.96,-91.49l164.14 95.72c-9.12,32.05 -27.93,68.97 -53.79,87.71zm28.65 -1795.29c-13.98,13.05 -61.76,36.16 -78.31,46.64 -27.92,17.67 -50.71,32.86 -72.61,50.28 -56.09,44.6 -87.43,76.31 -132.37,121.97 -43.23,43.91 -72.74,85.84 -109.05,145.03 -33.92,55.3 -78.72,104.52 -17.56,161.51 73,15.87 84.66,-26.7 110.84,-76.18 23.99,-45.36 42.22,-68.05 72.7,-107.8 47.2,-61.55 118.79,-127.53 187.72,-173.16 284.16,-188.08 510.25,-118.9 574.05,-129.92 124.07,31.35 185.61,45.99 285.25,102.18 78.15,44.07 162.28,113.41 207.3,169.91 484.39,607.92 14.69,1304.93 -511.31,1347.14 -286.83,54.14 -588.61,-117.59 -703.89,-254.88 -360.09,-428.84 -121.57,-660.62 -262.97,-716.17 -87.15,2.1 -77.44,81.14 -77.03,168.12 0.36,77.5 9.89,148.67 27.84,220.77 28.72,115.36 93.69,253.69 151.26,325.05 -66.6,12.92 -245.89,3.7 -324.4,3.7 -84.29,0 -232.96,16.1 -293.75,-26.16 -123.03,-85.54 -44.5,-310.47 -225.18,-422.85 -115.64,-71.93 -444.4,-43.05 -604.62,-43.05 -214.21,0 -428.42,0 -642.64,0 0,-311.66 0,-623.32 0,-934.98 0,-159.17 -31.11,-307.96 82.76,-387.6 72.92,-51 323.71,-30.71 428.66,-30.71 619.43,0 1238.94,0.95 1858.36,-0.04 114.83,0.46 177.66,5.93 230.83,84.31 46.48,68.52 32.46,202.56 29.92,293.51 -74.7,13.55 -127.4,42.73 -191.82,63.38z"/>
   <path class="fil2" d="M760.42 1111.37c20.59,-6.66 1302.86,-10.9 1333.36,1.72 46.69,19.32 46.47,91.74 -0.07,111.06 -18.49,7.68 -1303.72,11.68 -1335.48,1.82 -50.01,-15.52 -55.14,-96.07 2.19,-114.6zm0 -369.05c48.58,-15.7 711.14,-4.17 822.38,-4.17l621.48 2.15c54.95,11.96 66.28,92.45 12.44,114.8 -34.68,14.4 -723.49,5.95 -822.55,5.95l-622.48 -1.3c-65.7,-10.12 -71.25,-98.05 -11.28,-117.43zm0 -369.05c33.87,-10.95 1498.59,-7.33 1774.21,-4.55 111.49,1.13 105.08,94.93 51.14,117.33 -26.8,11.13 -1502.18,7.2 -1774.28,6.28 -126.8,-0.43 -106.17,-101.25 -51.07,-119.06zm1635.2 877.4l40.3 -161.13c-61.16,-56.99 -16.36,-106.21 17.56,-161.51 36.31,-59.19 65.82,-101.12 109.05,-145.03 44.94,-45.65 76.28,-77.37 132.37,-121.97 21.9,-17.42 44.7,-32.61 72.61,-50.28 16.55,-10.47 64.33,-33.59 78.31,-46.64 21.81,-49.62 10.87,-199.57 9.27,-261.27 -2.06,-78.81 -41.95,-148.29 -78.2,-179.93 -619.42,0.99 -1238.93,0.04 -1858.36,0.04 -104.94,0 -355.74,-20.29 -428.66,30.71 -113.88,79.65 -82.76,228.43 -82.76,387.6 0,311.66 0,623.32 0,934.98 214.21,0 428.42,0 642.64,0 160.22,0 488.98,-28.88 604.62,43.05 180.68,112.38 102.15,337.32 225.18,422.85 60.79,42.26 209.46,26.16 293.75,26.16 78.51,0 257.8,9.23 324.4,-3.7 -57.56,-71.36 -122.53,-209.69 -151.26,-325.05 -17.95,-72.1 -27.48,-143.27 -27.84,-220.77 -0.41,-86.98 -10.12,-166.02 77.03,-168.12z"/>
   <path class="fil3" d="M3857.99 1492.6c-43.75,304.26 -318.7,567.92 -679.23,519.42 -305.64,-41.11 -566.84,-322.25 -519.51,-681.17 40.29,-305.55 325.5,-566.55 685.13,-516.96 298.01,41.09 564.49,324.83 513.6,678.71zm-1422.07 -403.05l-40.3 161.13c141.4,55.55 -97.11,287.33 262.97,716.17 115.28,137.29 417.05,309.03 703.89,254.88l31.61 -18.16c68.1,-32.26 116.8,-63.47 174.41,-111.18 351.86,-291.41 430.03,-784.5 167.1,-1177.82 -63.96,-95.68 -223.38,-255.74 -363.49,-302.55 11.81,-27.95 -4.69,-4.88 9.13,-9.53 -63.81,11.01 -289.89,-58.16 -574.05,129.92 -68.93,45.63 -140.52,111.61 -187.72,173.16 -30.49,39.75 -48.71,62.43 -72.7,107.8 -26.18,49.48 -37.84,92.05 -110.84,76.18z"/>
   <path class="fil4" d="M3280.47 1893.28c32.01,-39.07 277.75,-160.02 276.26,-482.69 -0.53,-113.73 -37.31,-217.73 -88.18,-294.62 -24.65,-37.26 -60.3,-80.53 -86.03,-102.64l-98.99 -77.02c-0.84,-3.05 -3.33,-3.16 -4.9,-4.82 -280.4,-4.68 -505.37,209.09 -501.67,487.37 3.52,264.73 227.8,491.54 503.51,474.44z"/>
   <path class="fil1" d="M3280.47 1893.28c-275.72,17.1 -500,-209.71 -503.51,-474.44 -3.7,-278.28 221.27,-492.05 501.67,-487.37 255.67,16.12 460.89,214.93 461.65,479 0.76,264.11 -205.79,470.13 -459.8,482.81zm577.52 -400.68c50.89,-353.88 -215.59,-637.63 -513.6,-678.71 -359.63,-49.58 -644.84,211.41 -685.13,516.96 -47.33,358.93 213.87,640.06 519.51,681.17 360.53,48.5 635.48,-215.16 679.23,-519.42z"/>
   <path class="fil5" d="M2064.04 3595l91.7 -143.69c30.25,-53.13 57.24,-97.7 86.79,-151.04 111.76,-201.67 241.59,-404.88 348.94,-602.27 35.82,-65.86 29.88,-126.52 -19.13,-169.3 -19.02,-16.61 -129.24,-79.47 -155.8,-86.71 -56.98,86.48 -112.18,191.63 -165.34,284.81l-334.16 584.67c-53.89,134.61 40.92,262.92 146.99,283.53z"/>
   <path class="fil6" d="M2984.69 4075.94c183.91,0.03 263.45,-39.35 263.04,-229.58l-0.11 -1493.73 -184.52 -20.82 -1.6 1588.73c-9.85,89.9 -45.01,105.84 -76.82,155.4z"/>
   <path class="fil7" d="M3362.48 2221.73c526,-42.22 995.7,-739.22 511.31,-1347.14 -45.02,-56.5 -129.15,-125.84 -207.3,-169.91 -99.64,-56.18 -161.18,-70.83 -285.25,-102.18 -13.82,4.65 2.68,-18.42 -9.13,9.53 140.11,46.81 299.53,206.87 363.49,302.55 262.93,393.32 184.76,886.42 -167.1,1177.82 -57.61,47.71 -106.31,78.92 -174.41,111.18l-31.61 18.16z"/>
   <path class="fil1" d="M760.42 373.28c-55.1,17.81 -75.73,118.63 51.07,119.06 272.11,0.93 1747.48,4.85 1774.28,-6.28 53.93,-22.4 60.35,-116.2 -51.14,-117.33 -275.62,-2.79 -1740.34,-6.4 -1774.21,4.55z"/>
   <path class="fil8" d="M2416.54 2441.99c26.56,7.24 136.78,70.1 155.8,86.71 49.01,42.78 54.94,103.44 19.13,169.3 -107.35,197.39 -237.19,400.6 -348.94,602.27 -29.55,53.33 -56.54,97.9 -86.79,151.04l-91.7 143.69c60.34,19.63 130.16,2.54 174.5,-28.02 71.47,-49.26 207.15,-315.58 256.08,-399.74 52.59,-90.46 106.72,-185.61 158.5,-276.38 198.58,-348.09 204.13,-265.05 -44.88,-414.39 -55.47,-33.26 -141.12,-108.51 -191.69,-34.47z"/>
   <path class="fil1" d="M760.42 742.32c-59.97,19.39 -54.42,107.31 11.28,117.43l622.48 1.3c99.05,0 787.87,8.45 822.55,-5.95 53.83,-22.35 42.51,-102.84 -12.44,-114.8l-621.48 -2.15c-111.24,0 -773.8,-11.53 -822.38,4.17z"/>
   <path class="fil1" d="M760.42 1111.37c-57.33,18.53 -52.2,99.09 -2.19,114.6 31.77,9.86 1316.99,5.86 1335.48,-1.82 46.53,-19.32 46.75,-91.74 0.07,-111.06 -30.5,-12.62 -1312.77,-8.38 -1333.36,-1.72z"/>
   <path class="fil9" d="M3280.47 1893.28c254.01,-12.68 460.56,-218.7 459.8,-482.81 -0.76,-264.06 -205.97,-462.87 -461.65,-479 1.57,1.67 4.06,1.77 4.9,4.82l98.99 77.02c25.74,22.12 61.38,65.39 86.03,102.64 50.87,76.89 87.65,180.89 88.18,294.62 1.49,322.67 -244.25,443.62 -276.26,482.69z"/>
   <path class="fil6" d="M1780.82 2029.08c-23.79,-44.88 -53.63,-52.26 -77.02,-124.32 -17.31,-53.32 -27.66,-104.22 -40.63,-156.57 -35,-141.33 -93,-149.35 -247.51,-148.91 73.51,91.25 59.21,179.05 103.9,292.87 39.43,100.42 120.68,144.25 261.26,136.93z"/>
   <path class="fil10" d="M2845.82 564.12c64.42,-20.65 117.12,-49.83 191.82,-63.38 2.54,-90.95 16.56,-224.99 -29.92,-293.51 -53.17,-78.38 -115.99,-83.86 -230.83,-84.31 36.25,31.64 76.14,101.13 78.2,179.93 1.61,61.7 12.55,211.65 -9.27,261.27z"/>
   <path class="fil11" d="M2656.85 2267.47c32.51,14.24 122.04,67.47 160.32,91.95 25.86,-18.74 44.67,-55.66 53.79,-87.71l-164.14 -95.72c-17.52,21.78 -41.07,60.8 -49.96,91.49z"/>
   <path class="fil12" d="M2817.17 2359.42c-38.28,-24.48 -127.8,-77.71 -160.32,-91.95l-42.84 68.31 164.75 97.44c7.55,-10.26 16.18,-21.15 23.55,-33.16 16.72,-27.24 12.51,-15.5 14.86,-40.64z"/>
  </g>
 </g>
</svg>
