<?xml version="1.0" encoding="UTF-8"?>
<!DOCTYPE svg PUBLIC "-//W3C//DTD SVG 1.1//EN" "http://www.w3.org/Graphics/SVG/1.1/DTD/svg11.dtd">
<!-- Creator: CorelDRAW 2020 (64-Bit) -->
<svg xmlns="http://www.w3.org/2000/svg" xml:space="preserve" width="137.082mm" height="126.771mm" version="1.1" style="shape-rendering:geometricPrecision; text-rendering:geometricPrecision; image-rendering:optimizeQuality; fill-rule:evenodd; clip-rule:evenodd"
viewBox="0 0 241.96 223.76"
 xmlns:xlink="http://www.w3.org/1999/xlink"
 xmlns:xodm="http://www.corel.com/coreldraw/odm/2003">
 <defs>
  <style type="text/css">
   <![CDATA[
    .fil0 {fill:#4D4D4D}
    .fil1 {fill:#F96332}
   ]]>
  </style>
 </defs>
 <g id="Capa_x0020_1">
  <metadata id="CorelCorpID_0Corel-Layer"/>
  <path class="fil0" d="M115.6 153.82l0.01 0.04 47.07 0c4.06,-7.33 11.87,-12.29 20.85,-12.29 13.15,0 23.82,10.66 23.82,23.82 0,13.15 -10.66,23.82 -23.82,23.82 -8.77,0 -16.43,-4.74 -20.56,-11.79l-47.46 0c-5.54,26.47 -29.02,46.35 -57.13,46.35 -32.24,0 -58.37,-26.14 -58.37,-58.37 0,-27.66 19.23,-50.82 45.05,-56.85l6.66 23.41c-15.64,3.1 -27.43,16.89 -27.43,33.44 0,18.83 15.26,34.09 34.09,34.09 18.83,0 34.09,-15.26 34.09,-34.09 0,-4.04 -0.7,-7.91 -1.99,-11.51l25.13 -0.06z"/>
  <path class="fil0" d="M144.94 121.33l0.03 -0.03 -23.54 -40.77c-8.38,0.15 -16.58,-4.14 -21.07,-11.91 -6.58,-11.39 -2.67,-25.96 8.72,-32.53 11.39,-6.58 25.96,-2.67 32.53,8.72 4.38,7.59 4.11,16.59 0.07,23.7l23.73 41.1c25.7,-8.43 54.65,1.95 68.71,26.3 16.12,27.92 6.55,63.62 -21.37,79.74 -23.95,13.83 -53.63,8.75 -71.76,-10.6l16.94 -17.47c10.5,11.99 28.34,15.31 42.67,7.03 16.31,-9.41 21.89,-30.26 12.48,-46.57 -9.41,-16.31 -30.26,-21.89 -46.57,-12.48 -3.5,2.02 -6.5,4.57 -8.97,7.48l-12.61 -21.74z"/>
  <path class="fil1" d="M102.61 113.73l-0.04 -0.01 -23.54 40.77c4.32,7.18 4.71,16.43 0.22,24.2 -6.58,11.39 -21.14,15.29 -32.53,8.72 -11.39,-6.58 -15.29,-21.14 -8.72,-32.53 4.38,-7.59 12.32,-11.86 20.49,-11.91l23.73 -41.1c-20.15,-18.04 -25.63,-48.3 -11.57,-72.65 16.12,-27.92 51.82,-37.49 79.74,-21.37 23.95,13.83 34.39,42.07 26.7,67.44l-23.6 -5.94c5.14,-15.09 -0.91,-32.2 -15.24,-40.47 -16.31,-9.41 -37.16,-3.83 -46.57,12.48 -9.41,16.31 -3.83,37.16 12.48,46.57 3.5,2.02 7.2,3.35 10.96,4.03l-12.52 21.79z"/>
 </g>
</svg>
