<?xml version="1.0" encoding="UTF-8"?>
<!DOCTYPE svg PUBLIC "-//W3C//DTD SVG 1.1//EN" "http://www.w3.org/Graphics/SVG/1.1/DTD/svg11.dtd">
<!-- Creator: CorelDRAW 2020 (64-Bit) -->
<svg xmlns="http://www.w3.org/2000/svg" xml:space="preserve" width="89.245mm" height="89.6959mm" version="1.1" style="shape-rendering:geometricPrecision; text-rendering:geometricPrecision; image-rendering:optimizeQuality; fill-rule:evenodd; clip-rule:evenodd"
viewBox="0 0 36.85 37.03"
 xmlns:xlink="http://www.w3.org/1999/xlink"
 xmlns:xodm="http://www.corel.com/coreldraw/odm/2003">
 <defs>
  <style type="text/css">
   <![CDATA[
    .fil1 {fill:black}
    .fil0 {fill:#44C554}
    .fil2 {fill:#FEFEFE}
   ]]>
  </style>
 </defs>
 <g id="Capa_x0020_1">
  <metadata id="CorelCorpID_0Corel-Layer"/>
  <g id="_1703394917584">
   <g id="_2834043076384">
    <path class="fil0" d="M20.7 22c0.39,-0.42 0.63,-0.81 0.99,-1.25 1.37,-1.68 2.42,-0.68 4.49,0.32 1.28,0.62 2.01,0.75 1.94,2.52 -0.04,0.8 -0.11,1.13 -0.44,1.77 -1.4,2.76 -5.35,2.51 -8.07,1.41 -1.67,-0.67 -4.27,-2.09 -5.53,-3.37l-1.68 -1.72c-0.16,-0.2 -0.34,-0.41 -0.5,-0.59 -0.66,-0.8 -1.25,-1.59 -1.83,-2.58 -2.64,-4.47 -0.46,-8.61 2.03,-8.85 1.81,-0.18 2.28,0.25 2.83,1.53 0.37,0.87 1.11,2.31 1.33,3.16 0.4,1.58 -1.08,2.26 -1.35,2.87 0.79,1.69 4.34,4.74 5.79,4.78l0 -0zm6.59 8.23c0.07,-0.13 0.94,-0.83 1.11,-0.92 -0.54,-0.91 0.3,-1.68 1.06,-1 0.07,-0.25 0.67,-0.91 0.86,-1.17 -0.68,-0.85 0.29,-1.41 1.15,-3.5 1.78,-4.31 1.18,-8.91 -1.06,-12.64 -2.22,-3.72 -7.51,-7.6 -14.21,-6.46 -9.51,1.61 -14.65,12.01 -9.92,20.69 1.08,1.98 1.03,1.08 0.25,3.87 -0.13,0.47 -0.52,1.66 -0.54,2.07l4 -1.08c0.59,-0.16 0.92,0.08 1.33,0.31 3.39,1.99 7.43,2.51 11.28,1.36 1.25,-0.37 2.5,-0.97 3.55,-1.66 0.57,-0.37 0.74,-0.21 1.17,0.14l0 0z"/>
    <path class="fil1" d="M7.6 4.44c0.41,0.3 0.65,0.41 1.18,0.07 0.33,-0.21 0.61,-0.42 0.96,-0.64 8.3,-5.06 19.24,-1.97 23.78,6.75 4.86,9.35 -0.08,21.2 -10.75,24.08 -3.59,0.97 -7.84,0.57 -10.98,-0.83 -1.55,-0.69 -1.42,-0.93 -2.42,-0.64l-7.57 2.03c0.18,-0.94 1.59,-5.76 1.96,-7.06 0.25,-0.88 0.37,-0.94 -0.08,-1.71 -0.29,-0.5 -0.5,-0.96 -0.74,-1.5 -2.24,-5.13 -1.65,-11.45 1.48,-16.03 0.75,-1.09 0.41,-0.91 0.15,-1.52 -0.95,-0.22 -1.01,0.18 -1.4,0.77 -0.7,1.04 -1.14,1.95 -1.64,3.07 -0.23,0.52 -0.48,1.19 -0.63,1.75 -0.74,2.64 -1.03,5.32 -0.52,8.38 0.27,1.64 0.96,3.81 1.74,5.28 0.44,0.83 0.45,0.4 0.07,1.73 -0.71,2.44 -1.38,4.97 -2.08,7.4 -0.56,1.95 1.65,1.01 2.78,0.69l6.44 -1.74c0.5,-0.13 0.55,-0.19 0.97,0.03 0.97,0.49 2.44,1.03 3.47,1.31 5.78,1.53 11.83,0.16 16.36,-3.54l1.54 -1.43c0.12,-0.13 0.16,-0.18 0.28,-0.3 1.28,-1.28 2.6,-3.35 3.31,-4.94 0.49,-1.1 0.89,-2.27 1.19,-3.59 0.62,-2.72 0.52,-5.88 -0.13,-8.47 -0.62,-2.47 -1.73,-4.67 -3.05,-6.43 -0.19,-0.25 -0.32,-0.41 -0.51,-0.65 -0.63,-0.81 -1,-1.11 -1.71,-1.83 -0.69,-0.7 -1.8,-1.52 -2.64,-2.06 -1.95,-1.25 -4.44,-2.31 -6.83,-2.65 -0.86,-0.12 -1.75,-0.2 -2.64,-0.23l-1.19 0c-1.56,0.05 -3.11,0.28 -4.58,0.77 -1.89,0.63 -3.17,1.18 -4.82,2.27 -0.71,0.47 -1.02,0.64 -0.72,1.41l-0 -0z"/>
    <path class="fil2" d="M30.31 27.13c-0.19,0.27 -0.79,0.92 -0.86,1.17 0.5,0.67 -0.11,1.49 -1.06,1 -0.17,0.1 -1.03,0.79 -1.11,0.92 0.21,0.74 -0.12,0.91 -0.6,1.22 -4.05,2.63 -9.5,3.06 -13.99,1.23 -0.74,-0.3 -2.28,-1.2 -2.57,-1.15 -0.87,0.15 -2.13,0.57 -3.02,0.82 -0.77,0.21 -2.53,0.94 -2.87,0.17 -0.19,-0.43 0.86,-3.78 1.11,-4.67 0.22,-0.78 0.38,-0.74 -0.04,-1.4 -0.96,-1.52 -1.73,-3.49 -2.08,-5.58 -0.82,-4.93 0.94,-9.78 3.5,-12.55 0.41,-0.45 0.96,-1.12 1.42,-1.48 2.56,-2 4.06,-3.08 7.77,-3.74 4.83,-0.86 9.04,0.78 11.99,3 5.82,4.37 7.75,12.71 4.35,19.27 -0.64,1.23 -0.97,2.1 -1.94,1.76l-0 0zm-22.71 -22.69c-0.13,0.14 -0.11,0.1 -0.26,0.22 -0.14,0.11 -0.15,0.13 -0.27,0.24 -0.18,0.17 -0.35,0.28 -0.53,0.45 0.47,0.87 -0.1,1.5 -1.04,1.07 -0.26,0.2 -0.26,0.26 -0.46,0.49 -0.14,0.17 -0.34,0.43 -0.48,0.53 0.27,0.61 0.6,0.42 -0.15,1.52 -3.13,4.58 -3.72,10.9 -1.48,16.03 0.24,0.54 0.45,1.01 0.74,1.5 0.45,0.76 0.34,0.82 0.08,1.71 -0.37,1.3 -1.78,6.13 -1.96,7.06l7.57 -2.03c1,-0.29 0.87,-0.06 2.42,0.64 3.14,1.4 7.39,1.8 10.98,0.83 10.67,-2.87 15.61,-14.73 10.75,-24.08 -4.53,-8.72 -15.48,-11.81 -23.78,-6.75 -0.35,0.21 -0.63,0.43 -0.96,0.64 -0.53,0.34 -0.78,0.23 -1.18,-0.07l0 0z"/>
    <path class="fil1" d="M27.28 30.23c-0.42,-0.35 -0.6,-0.51 -1.17,-0.14 -1.05,0.69 -2.3,1.29 -3.55,1.66 -3.84,1.15 -7.89,0.63 -11.28,-1.36 -0.4,-0.24 -0.74,-0.47 -1.33,-0.31l-4 1.08c0.03,-0.41 0.41,-1.6 0.54,-2.07 0.79,-2.79 0.84,-1.89 -0.25,-3.87 -4.73,-8.67 0.41,-19.07 9.92,-20.69 6.7,-1.14 11.99,2.75 14.21,6.46 2.23,3.73 2.84,8.34 1.06,12.64 -0.86,2.08 -1.83,2.65 -1.15,3.5 0.98,0.34 1.31,-0.53 1.94,-1.76 3.4,-6.55 1.47,-14.9 -4.35,-19.27 -2.95,-2.21 -7.15,-3.86 -11.99,-3 -3.71,0.66 -5.21,1.74 -7.77,3.74 -0.46,0.36 -1,1.03 -1.42,1.48 -2.56,2.78 -4.32,7.62 -3.5,12.55 0.35,2.09 1.13,4.06 2.08,5.58 0.42,0.66 0.26,0.62 0.04,1.4 -0.25,0.89 -1.3,4.24 -1.11,4.67 0.34,0.78 2.1,0.05 2.87,-0.17 0.89,-0.25 2.15,-0.66 3.02,-0.82 0.29,-0.05 1.83,0.85 2.57,1.15 4.49,1.83 9.94,1.4 13.99,-1.23 0.48,-0.31 0.81,-0.49 0.6,-1.22l-0 -0z"/>
    <path class="fil1" d="M13.35 11.13c0.34,0.97 0.89,2.08 1.32,3.07 0.4,0.92 0.16,0.85 -0.33,1.44 -0.43,0.5 -0.78,0.74 -0.87,1.31 -0.28,1.91 4.48,5.96 6.69,6.45 1.33,0.3 1.74,-0.51 2.59,-1.66 0.6,-0.81 0.67,-0.4 2.83,0.65 1.09,0.53 1.12,0.4 1.1,1.05 -0.08,2.11 -1.8,2.85 -3.88,2.68 -1.27,-0.11 -2.37,-0.57 -3.4,-1.01 -1.01,-0.43 -2.01,-1.04 -2.83,-1.58 -0.77,-0.51 -2.34,-1.88 -2.9,-2.6 -1.7,-2.16 -4.36,-4.99 -3.01,-8.25 0.48,-1.17 1.14,-1.76 2.69,-1.55l0 -0zm7.35 10.87c-1.45,-0.03 -5,-3.09 -5.79,-4.78 0.27,-0.61 1.75,-1.29 1.35,-2.87 -0.21,-0.85 -0.95,-2.29 -1.33,-3.16 -0.55,-1.28 -1.02,-1.71 -2.83,-1.53 -2.49,0.25 -4.66,4.38 -2.03,8.85 0.59,0.99 1.17,1.78 1.83,2.58 0.15,0.18 0.33,0.38 0.5,0.59l1.68 1.72c1.27,1.27 3.87,2.7 5.53,3.37 2.72,1.1 6.66,1.35 8.07,-1.41 0.33,-0.64 0.4,-0.97 0.44,-1.77 0.08,-1.77 -0.65,-1.9 -1.94,-2.52 -2.07,-1.01 -3.12,-2.01 -4.49,-0.32 -0.36,0.45 -0.61,0.84 -0.99,1.25l-0 0z"/>
    <path class="fil2" d="M13.35 11.13c-1.56,-0.21 -2.21,0.38 -2.69,1.55 -1.35,3.26 1.3,6.09 3.01,8.25 0.57,0.72 2.13,2.09 2.9,2.6 0.82,0.54 1.82,1.15 2.83,1.58 1.03,0.44 2.14,0.9 3.4,1.01 2.08,0.18 3.81,-0.57 3.88,-2.68 0.02,-0.65 -0.01,-0.52 -1.1,-1.05 -2.16,-1.05 -2.23,-1.46 -2.83,-0.65 -0.85,1.15 -1.26,1.96 -2.59,1.66 -2.21,-0.49 -6.97,-4.55 -6.69,-6.45 0.08,-0.57 0.44,-0.8 0.87,-1.31 0.49,-0.58 0.73,-0.52 0.33,-1.44 -0.43,-0.99 -0.98,-2.1 -1.32,-3.07l0 0z"/>
    <path class="fil1" d="M5.5 6.43c0.94,0.42 1.52,-0.2 1.04,-1.07 -0.39,-0.26 -0.67,-0.35 -1.03,0.01 -0.37,0.37 -0.28,0.7 -0.01,1.06l0 -0z"/>
    <path class="fil1" d="M28.39 29.31c0.95,0.49 1.55,-0.33 1.06,-1 -0.76,-0.67 -1.6,0.1 -1.06,1z"/>
   </g>
  </g>
 </g>
</svg>
