<?xml version="1.0" encoding="UTF-8"?>
<!DOCTYPE svg PUBLIC "-//W3C//DTD SVG 1.1//EN" "http://www.w3.org/Graphics/SVG/1.1/DTD/svg11.dtd">
<!-- Creator: CorelDRAW 2020 (64-Bit) -->
<svg xmlns="http://www.w3.org/2000/svg" xml:space="preserve" width="243.002mm" height="113.907mm" version="1.1" style="shape-rendering:geometricPrecision; text-rendering:geometricPrecision; image-rendering:optimizeQuality; fill-rule:evenodd; clip-rule:evenodd"
viewBox="0 0 332.19 155.71"
 xmlns:xlink="http://www.w3.org/1999/xlink"
 xmlns:xodm="http://www.corel.com/coreldraw/odm/2003">
 <defs>
  <style type="text/css">
   <![CDATA[
    .fil0 {fill:black}
    .fil2 {fill:#47494C}
    .fil1 {fill:#A05D2F}
   ]]>
  </style>
 </defs>
 <g id="Capa_x0020_1">
  <metadata id="CorelCorpID_0Corel-Layer"/>
  <g id="_2410076058112">
   <path class="fil0" d="M238.11 116.6l80.45 -0.01 2.56 0.07 0 27.6 -2.56 0.06 -0.65 -0.01 -79.86 0 0.05 -27.71zm94.08 -9.63l0 42.9c0,3.98 -3.09,5.84 -7.14,5.84l-92.13 0c-7.8,0 -5.84,-9.33 -5.84,-15.57 -3.08,0.72 -74.37,15.57 -79.8,15.57l-140.14 0c-4.05,0 -7.14,-1.86 -7.14,-5.84l0 -39.58c0,-6.93 3.47,-12.28 6.47,-16.24 6.66,-8.8 21.35,-10.53 31.98,-12.79l54.71 -12.12c9.6,-2.11 8.03,-0.96 15.97,-6.09 2.61,-1.69 4.07,-2.53 6.64,-4.39 1.82,-1.33 4.86,-3.63 6.86,-4.17 -0.7,-3.01 -4.31,-7.49 -5.84,-10.38 3.29,-1.74 6.79,-5 10.38,-5.84 0.94,4.03 4.25,5.7 5.19,9.73l9.08 -5.19c-0.84,-3.59 -4.1,-7.09 -5.84,-10.38 2.32,-1.55 7.33,-5.59 10.38,-5.84 0.97,3.62 4.34,6.08 5.19,9.73 2.8,-1.48 6.22,-4.52 9.08,-5.19 -1.1,-4.71 -4.86,-6.83 -5.84,-11.03 3.52,-0.94 6.27,-4.85 10.38,-5.19 0.69,2.6 3.82,6.5 5.19,9.08 1.93,-0.45 7.24,-3.95 9.08,-5.19 -1.79,-3.38 -5.3,-8.08 -5.84,-10.38 3.36,-1.78 6.29,-4.02 9.73,-5.84 1.82,3.44 4.06,6.38 5.84,9.73 2.78,-0.74 7.73,-4.59 10.59,-6.28 2,-1.18 8.97,-6.05 10.82,-6.05 7.73,0 24.81,30.49 53.85,30.49 31.17,0 32.32,-13.63 41.52,-13.63 6.3,0 17.35,34.66 18.74,39 5.51,17.2 7.33,33.99 7.86,51.1zm-320.92 26.27c38.2,-0.65 76.98,-0.03 115.25,-0.03 9.18,0 19.69,0.81 28.45,-0.99l72.03 -14.25 0 10.64c-19.49,4.93 -50.76,10.17 -72.75,14.66 -10.23,2.09 -72.35,1.03 -85.48,1.03 -18.96,0 -38.87,0.59 -57.74,-0.06l0.23 -11zm-0.2 -11.15c0,-12.87 0.09,-20.76 10.04,-25.1 5.4,-2.36 21.04,-5 27.88,-6.51 18.25,-4.04 37.67,-9.09 55.84,-12.34 0.46,8.12 0.42,9.36 3.2,16.28 1.62,4.02 2.85,10.75 7.58,11.08 10.62,0.76 41.97,-13.62 64.43,-7.88 6.82,1.74 21.39,8.46 23.43,13.64 -20.08,3.87 -46.64,10.9 -65.92,10.9 -40.95,-0 -86.85,1.2 -126.48,-0.06zm231.08 -16.6c0.71,-3.51 10.6,-14.67 12.82,-16.63l7.81 -7.1c9.29,-7.98 37.9,-24.14 49.95,-24.63 3.66,8.11 9.01,38.59 8.09,48.36l-78.67 0zm-125.05 -30.58c2.16,-5.61 6.44,-8.28 12.02,-10.97l3.08 4.35c0.9,1.48 1.85,2.76 2.76,3.82 3.07,-1.42 7.14,-3.7 9.03,-5.95l-4.94 -8.43c1.52,-1.42 7.29,-5.04 9.04,-5.7l5.77 8.42 8.91 -6.01 -5.03 -8.39c1.18,-1.49 7.15,-5.15 9.31,-5.87 1.42,2.59 3.35,6.34 5.54,8.31 2.47,-1.34 6.81,-4.05 9.03,-5.6l-5.27 -9.26c3.51,-1.5 5.84,-4.01 9.53,-5.31 1.05,2.54 3.49,6.67 5.5,8.4l8.95 -5.66c-1.57,-3.01 -4.16,-6.02 -5.24,-9.3 4.95,-1.91 10.22,-7.17 15.3,-8.83 2.06,2.21 3.24,3.42 5.59,5.31 2.06,1.66 3.33,3.31 5.39,4.97 2.17,1.75 3.64,3.37 5.96,5.08 17.67,13.02 37.36,17.34 59.29,10.45 6.72,-2.11 10.57,-5.11 15.73,-7.46 1.78,1.88 5.88,11.61 6.46,14.75 -2.52,1.5 -10.77,3.71 -14.36,5.07 -21.49,8.17 -43.21,22.18 -56.45,40.22 -11.74,15.99 -4.9,15.14 -21.57,17.14 -3.35,-5.24 -10.57,-11.2 -17.23,-15.06 -29.78,-17.27 -53.53,-3.38 -79.15,-0.02 -3.36,-4.09 -5.18,-12.67 -2.93,-18.5z"/>
   <path class="fil1" d="M195.08 21.78c1.08,3.27 3.68,6.29 5.24,9.3l-8.95 5.66c-2.02,-1.73 -4.45,-5.87 -5.5,-8.4 -3.69,1.3 -6.02,3.82 -9.53,5.31l5.27 9.26c-2.21,1.56 -6.55,4.27 -9.03,5.6 -2.19,-1.96 -4.11,-5.71 -5.54,-8.31 -2.16,0.72 -8.13,4.38 -9.31,5.87l5.03 8.39 -8.91 6.01 -5.77 -8.42c-1.75,0.66 -7.53,4.28 -9.04,5.7l4.94 8.43c-1.89,2.25 -5.95,4.53 -9.03,5.95 -0.91,-1.06 -1.86,-2.34 -2.76,-3.82l-3.08 -4.35c-5.57,2.69 -9.85,5.36 -12.02,10.97 -2.25,5.82 -0.43,14.41 2.93,18.5 25.63,-3.36 49.37,-17.25 79.15,0.02 6.66,3.86 13.88,9.82 17.23,15.06 16.68,-2 9.83,-1.15 21.57,-17.14 13.25,-18.04 34.97,-32.05 56.45,-40.22 3.59,-1.36 11.85,-3.57 14.36,-5.07 -0.58,-3.15 -4.68,-12.88 -6.46,-14.75 -5.16,2.35 -9.02,5.35 -15.73,7.46 -21.93,6.89 -41.62,2.57 -59.29,-10.45 -2.32,-1.71 -3.79,-3.33 -5.96,-5.08 -2.07,-1.66 -3.34,-3.31 -5.39,-4.97 -2.35,-1.89 -3.53,-3.1 -5.59,-5.31 -5.09,1.66 -10.36,6.92 -15.3,8.83z"/>
   <path class="fil1" d="M11.07 122.1c39.63,1.25 85.53,0.06 126.48,0.06 19.28,0 45.84,-7.02 65.92,-10.9 -2.04,-5.18 -16.6,-11.9 -23.43,-13.64 -22.47,-5.74 -53.82,8.64 -64.43,7.88 -4.73,-0.34 -5.97,-7.06 -7.58,-11.08 -2.78,-6.92 -2.74,-8.16 -3.2,-16.28 -18.17,3.26 -37.59,8.31 -55.84,12.34 -6.83,1.51 -22.47,4.15 -27.88,6.51 -9.95,4.34 -10.04,12.23 -10.04,25.1z"/>
   <path class="fil1" d="M242.15 105.5l78.67 -0c0.92,-9.77 -4.43,-40.25 -8.09,-48.36 -12.05,0.49 -40.66,16.65 -49.95,24.63l-7.81 7.1c-2.23,1.96 -12.11,13.11 -12.82,16.63z"/>
   <path class="fil2" d="M11.27 133.24l-0.23 11c18.87,0.65 38.78,0.06 57.74,0.06 13.13,0 75.25,1.06 85.48,-1.03 21.99,-4.49 53.26,-9.73 72.75,-14.66l0 -10.64 -72.03 14.25c-8.77,1.79 -19.27,0.99 -28.45,0.99 -38.27,0 -77.05,-0.62 -115.25,0.03z"/>
   <polygon class="fil2" points="238.06,144.31 317.92,144.31 318.57,144.32 321.13,144.26 321.12,116.66 318.57,116.59 238.11,116.6 "/>
  </g>
 </g>
</svg>
