<?xml version="1.0" encoding="UTF-8"?>
<!DOCTYPE svg PUBLIC "-//W3C//DTD SVG 1.1//EN" "http://www.w3.org/Graphics/SVG/1.1/DTD/svg11.dtd">
<!-- Creator: CorelDRAW 2020 (64-Bit) -->
<svg xmlns="http://www.w3.org/2000/svg" xml:space="preserve" width="200.154mm" height="88.8119mm" version="1.1" style="shape-rendering:geometricPrecision; text-rendering:geometricPrecision; image-rendering:optimizeQuality; fill-rule:evenodd; clip-rule:evenodd"
viewBox="0 0 10311.22 4575.26"
 xmlns:xlink="http://www.w3.org/1999/xlink"
 xmlns:xodm="http://www.corel.com/coreldraw/odm/2003">
 <defs>
  <style type="text/css">
   <![CDATA[
    .fil0 {fill:white}
   ]]>
  </style>
 </defs>
 <g id="Capa_x0020_1">
  <metadata id="CorelCorpID_0Corel-Layer"/>
  <path class="fil0" d="M9954.03 3101.59c72.94,-39.69 129.28,-235.58 152.56,-312.11 172.07,-565.54 56.21,-1251.44 -100.35,-1802.89 -61.94,-218.2 -124.32,-531.52 -317.59,-470.31 -153.27,48.54 -324.18,186.26 -872.71,344.25 -291.67,84.01 -279.93,49.24 -443.15,80.32 -552.58,105.25 -1239.36,-129.03 -1726.28,-479.78 -366.34,-263.89 -654.71,-764.31 -1194.09,-211.58 57.38,151.29 318.93,303.91 165.88,464.14 -162.96,170.61 -299.47,-142.79 -416.38,-247.53l-444.5 394.08c96.85,116.2 300.59,304.19 164.99,443.25 -159.47,163.54 -291.08,-124.25 -397.47,-229.5 -74.25,33.09 -198.78,139.48 -244.04,217.48 15.54,63.44 297.06,766.2 324.94,799.53 83.91,100.3 609.72,145.05 870.87,211.89 1314.96,336.58 1484.93,809.63 1762.05,975.61l2715.26 -176.87z"/>
  <path class="fil0" d="M212.47 3301.38c313.19,156.7 1349.98,383.09 1716.36,432.93 591.4,80.44 1130.66,124.26 1663.55,109.51 306.36,-8.48 941.34,-46.32 1230.01,-111.29 130.2,-29.31 250.91,-52.27 390.48,-84.12 138.5,-31.61 256.85,-70.05 400.29,-107.33 408.73,-106.25 439.07,-104.73 805.43,-176.94 103.99,-20.49 312.45,-39.02 391.91,-68.88l-167.57 -139.17c-442.31,-370.92 -1289.35,-598.6 -1827.08,-663.04 -595.18,-71.31 -500.98,-415.96 -700.06,-754 -84.44,29.75 -382.84,256.32 -490.05,323.31 -673.71,421 -1294.81,540.14 -2047.25,575.99l-527.38 32.25c-182.53,18.68 -317.62,-0.24 -513.75,129.03 -163.34,107.66 -325.3,322.67 -324.88,501.73z"/>
  <path class="fil0" d="M14.09 3569.13c-29.45,83.76 -3.63,148.54 -3.37,234.63 0.29,97.5 -17.2,135.34 108.67,179.36 1130.6,395.37 2114.89,599.55 3303.87,591.92 159.03,-1.03 323.42,2.42 466.19,-9.3 418.71,-34.35 952.09,-71.7 1349.39,-186.37l889.16 -225.85c422.4,-104.63 596.83,-84.25 885.63,-138.01 8.37,-64.62 -7.89,-354.77 -24.88,-412.14 -63.33,-11.54 -362.38,38.86 -437.96,51.69 -598.23,101.56 -657.89,144.76 -1269.15,296 -76.33,18.89 -138.28,34.03 -213.9,45.2l-634.93 100.68c-158.53,30.93 -281.14,29.16 -435.65,40.21 -944.26,67.56 -2128.3,-38.13 -3078.62,-294.82l-904.43 -273.22z"/>
  <path class="fil0" d="M7342.55 4333.83c83.74,38.66 622.69,-16.71 755.36,-19.39l1480.23 -87.98c130.44,-11.78 240.73,-19.56 372.38,-25.18 104.33,-4.45 260.89,-4.64 356.89,-28.39 16.34,-47.79 -23.37,-715 -53.13,-769.54l-1482.05 84c-129.98,8.45 -252.04,10.3 -372.91,22.72l-1087.2 70.5c-20.03,137.95 47.79,596.97 30.43,753.26z"/>
 </g>
</svg>
