<svg width="34" height="30" viewBox="0 0 34 30" fill="none" xmlns="http://www.w3.org/2000/svg">
<g id="Analistas">
<path id="Vector" d="M22.7037 29.2028C22.6413 29.3821 22.6015 29.572 22.3996 29.6677C22.0808 29.8164 21.8046 29.6411 21.6983 29.2108C21.7063 29.1245 21.7183 29.0394 21.7222 28.9531C21.8298 26.5319 21.94 24.1108 22.0397 21.6883C22.0609 21.157 22.0397 20.6258 22.0397 20.0945C21.0847 20.3602 20.6491 20.1888 20.078 19.3309C19.5583 18.5481 19.0377 17.7659 18.5161 16.9841C18.4497 16.8858 18.4192 16.753 18.2253 16.834C17.3421 17.2045 16.4164 17.4715 15.569 17.9191C15.3034 18.0612 15.0643 18.0705 14.8226 17.8859C14.6433 17.4715 14.6898 17.2776 15.0883 17.0611C15.8479 16.6467 16.674 16.3891 17.4789 16.0876C17.9751 15.9118 18.4228 15.6215 18.7858 15.2402C19.1005 14.9069 19.3754 14.5191 19.8097 14.3105C19.835 14.2973 19.8735 14.2654 19.8708 14.2455C19.8323 13.8391 20.0382 13.3995 19.7274 13.0302C19.2144 12.4278 18.8529 11.7116 18.6729 10.9411C18.6476 10.8348 18.6423 10.7206 18.4763 10.6874C17.4829 10.4869 17.0512 9.86664 17.1588 8.85461C17.2106 8.36586 17.3819 7.95414 17.8109 7.68851C17.9968 7.57297 17.9079 7.42289 17.8786 7.29008C17.6685 6.33838 17.5868 5.36284 17.6356 4.38945C17.7086 3.16094 18.4325 2.31226 19.6278 2.04531C19.7534 2.01553 19.8708 1.95839 19.9718 1.87797C21.3836 0.852654 22.9773 0.521951 24.6906 0.645467C25.7624 0.722498 26.7784 0.977498 27.6709 1.60039C28.8742 2.43976 29.4533 3.64172 29.6458 5.06547C29.7441 5.9057 29.7195 6.75576 29.5728 7.5889C29.5555 7.67095 29.5566 7.75581 29.5762 7.83735C29.5957 7.91889 29.6331 7.99508 29.6857 8.06039C30.0841 8.59164 30.0722 9.57445 29.6857 10.1177C29.5887 10.2747 29.4567 10.4071 29.3 10.5045C29.1434 10.602 28.9662 10.6619 28.7825 10.6795C28.6942 10.6725 28.6066 10.7009 28.5391 10.7584C28.4716 10.8159 28.4297 10.8979 28.4226 10.9862C28.2517 11.7367 27.8997 12.4339 27.3973 13.017C27.0812 13.3968 27.2857 13.8457 27.2472 14.2614C27.2472 14.3265 27.3309 14.3105 27.38 14.3371C27.4578 14.374 27.5283 14.4244 27.5886 14.4859C28.4824 15.7011 29.7972 16.2191 31.1586 16.6666C32.0883 16.9734 32.836 17.506 33.2703 18.4078C33.3967 18.7083 33.5075 19.015 33.6023 19.3269V21.3416C33.4894 21.3908 33.5425 21.4917 33.5386 21.5674C33.4323 24.0749 33.3278 26.582 33.2251 29.0886C33.2079 29.4791 33.0697 29.6756 32.7922 29.7141C32.5146 29.7527 32.3406 29.5813 32.237 29.2055C32.2729 28.4816 32.3127 27.7578 32.3433 27.034C32.4398 24.6885 32.5345 22.3422 32.6275 19.9949C32.6575 19.7481 32.6246 19.4978 32.5318 19.2671C32.0218 19.7745 31.5238 20.2672 31.0297 20.7626C30.946 20.8477 30.8712 20.9411 30.8066 21.0415C30.5722 21.3689 30.4405 21.7586 30.4281 22.1611C30.4281 24.5092 30.4281 26.8556 30.4281 29.2002C30.3776 29.4923 30.2382 29.7155 29.9141 29.7062C29.6126 29.6969 29.4692 29.4897 29.4347 29.2015C29.4347 29.0819 29.444 28.9637 29.444 28.8442C29.444 26.7112 29.444 24.5783 29.444 22.4453C29.4331 21.974 29.5205 21.5055 29.7004 21.0697C29.8804 20.6339 30.149 20.2403 30.4892 19.9139C30.8358 19.5712 31.1825 19.2299 31.5185 18.878C31.6938 18.6934 32.059 18.5074 31.9993 18.3215C31.9116 18.0492 31.5756 17.8832 31.2794 17.761C31.1997 17.7278 31.1214 17.6933 31.0404 17.6627C30.3577 17.3971 29.6724 17.1395 28.9924 16.8659C28.8025 16.7888 28.7015 16.8074 28.5807 16.9987C28.0428 17.8341 27.4797 18.6548 26.9351 19.4862C26.8187 19.6816 26.6601 19.8485 26.4711 19.9749C26.282 20.1012 26.0671 20.1838 25.8421 20.2167C25.5672 20.2579 25.3108 20.1516 25.0545 20.0905C24.9868 20.2008 25.0266 20.3097 25.0306 20.4146C25.101 22.1558 25.1634 23.897 25.2484 25.6381C25.3015 26.8334 25.3679 28.0155 25.429 29.2041C25.3706 29.4698 25.2497 29.7035 24.9443 29.7155C24.6016 29.7287 24.4861 29.4658 24.3997 29.1922C24.3997 28.6091 24.3772 28.0274 24.3466 27.4444C24.243 25.4522 24.1647 23.452 24.081 21.4559C24.0504 20.7373 24.0558 20.7466 23.3226 20.7466C23.0929 20.7466 23.0344 20.825 23.0304 21.0441C23.0158 21.8118 23.0012 22.5795 22.9481 23.3445C22.9109 23.8943 22.9122 24.4455 22.883 24.9953C22.8086 26.3978 22.7276 27.799 22.7037 29.2028ZM20.8895 6.38695C20.5748 6.14123 20.2852 5.86497 20.0249 5.56219C19.9348 5.46608 19.8864 5.33818 19.8904 5.20651C19.8944 5.07483 19.9504 4.9501 20.0461 4.85961C20.2666 4.65773 20.4858 4.66836 20.7328 4.89547C20.9147 5.06414 21.0781 5.25539 21.2733 5.4068C22.1818 6.11734 23.2536 6.33648 24.3679 6.38031C25.2956 6.40284 26.2226 6.31366 27.129 6.11469C27.2538 6.07394 27.3895 6.08365 27.5072 6.14174C27.6248 6.19982 27.7151 6.30167 27.7586 6.42547C27.8914 6.72164 28.0149 7.02047 28.1384 7.32062C28.1849 7.43219 28.2447 7.51054 28.3801 7.47601C28.4917 7.44679 28.6205 7.44281 28.6232 7.27281C28.6232 7.18781 28.6604 7.10414 28.6697 7.01914C28.7493 6.39702 28.7493 5.76727 28.6697 5.14515C28.4651 3.74797 27.825 2.65226 26.4982 2.06258C25.5326 1.63359 24.506 1.54594 23.4594 1.63226C22.3107 1.71135 21.213 2.13744 20.3118 2.85414C20.159 2.975 19.9731 2.98695 19.7951 3.01883C19.2639 3.1264 18.8734 3.4239 18.7419 3.94851C18.4497 5.11461 18.6529 6.26476 18.9411 7.40164C19.0235 7.72305 19.5029 7.78015 19.6955 7.51984C19.7776 7.39767 19.8919 7.3006 20.0257 7.23942C20.1596 7.17823 20.3078 7.15531 20.4539 7.1732C20.8231 7.67258 20.8204 7.76289 20.3835 8.24367C20.2664 8.37112 20.1408 8.49048 20.0076 8.60094C19.5614 8.97547 19.3303 8.97281 18.8787 8.58765C18.7114 8.44422 18.5161 8.39242 18.3475 8.51859C18.0606 8.73242 18.1217 9.04984 18.1655 9.35664C18.2027 9.60898 18.3687 9.70726 18.6184 9.72984C19.1616 9.77765 19.4804 10.0473 19.5893 10.5666C19.6799 10.9671 19.8224 11.3542 20.0129 11.718C20.9054 13.4977 23.3333 14.3384 25.1422 13.5123C25.746 13.2553 26.2788 12.8561 26.695 12.3487C27.1113 11.8414 27.3987 11.2409 27.5328 10.5984C27.6656 10.0566 27.9604 9.79093 28.4837 9.7325C28.91 9.68601 29.0535 9.45625 28.995 8.90773C28.9579 8.55047 28.7786 8.42562 28.3575 8.46281C27.7679 8.51726 27.5301 8.37648 27.295 7.83859C27.2293 7.71424 27.1755 7.58395 27.1343 7.44945C27.0719 7.15992 26.9019 7.15461 26.6562 7.19844C25.5069 7.41083 24.3299 7.42699 23.1752 7.24625C22.3667 7.10386 21.5916 6.81249 20.8895 6.38695ZM20.8722 14.0542C20.8722 14.3437 20.8722 14.5855 20.8722 14.8192C20.8717 14.8728 20.8842 14.9258 20.9087 14.9735C20.9332 15.0211 20.9691 15.0621 21.013 15.0928C21.8099 15.7901 22.6068 16.4873 23.4036 17.1912C23.5285 17.3028 23.6015 17.2948 23.7224 17.1912C24.5193 16.4873 25.3161 15.7914 26.113 15.0928C26.1581 15.0643 26.1955 15.0252 26.2219 14.9789C26.2483 14.9326 26.2629 14.8805 26.2644 14.8272C26.2551 14.5841 26.2644 14.3411 26.2644 14.0529C24.4542 15.0623 22.6878 15.0676 20.8722 14.0542ZM25.6787 19.2525C25.7701 19.2464 25.8584 19.2168 25.9349 19.1665C26.0115 19.1163 26.0737 19.047 26.1157 18.9656C26.5659 18.2803 27.0228 17.599 27.477 16.9163C27.9618 16.1885 27.9578 16.1925 27.3309 15.5962C27.2114 15.4833 27.1436 15.4713 27.0161 15.5842C26.1529 16.3519 25.2843 17.1138 24.4104 17.8699C24.2882 17.9748 24.2922 18.0346 24.4011 18.1355C24.7278 18.4503 25.0439 18.7757 25.3653 19.0958C25.446 19.186 25.5581 19.2421 25.6787 19.2525ZM22.8445 17.9934C22.0822 17.3294 21.3318 16.6653 20.5708 16.0012C20.3622 15.8219 20.1723 15.478 19.9306 15.5178C19.6889 15.5577 19.5215 15.8737 19.321 16.0677C19.305 16.0823 19.2918 16.1009 19.2745 16.1141C19.1895 16.1819 19.1988 16.247 19.2572 16.3346C19.8655 17.2404 20.4632 18.1515 21.0768 19.0533C21.1079 19.108 21.1516 19.1546 21.2042 19.1891C21.2569 19.2237 21.3169 19.2453 21.3795 19.2522C21.4421 19.259 21.5055 19.251 21.5643 19.2286C21.6232 19.2063 21.676 19.1703 21.7183 19.1237C22.0981 18.7624 22.462 18.3786 22.8445 17.9934ZM23.5391 19.7718C24 19.7718 24 19.7718 24.0013 19.473C24.0013 19.1502 23.7529 18.7345 23.5657 18.7425C23.3784 18.7505 23.134 19.1834 23.1035 19.4756C23.057 19.8847 23.3412 19.7492 23.5365 19.7718H23.5391Z" fill="#030303"/>
<path id="Vector_2" d="M17.4692 29.2081C17.4293 29.4923 17.2899 29.7048 16.9884 29.7128C16.6869 29.7208 16.5196 29.5043 16.4757 29.2068C16.501 28.6994 16.5275 28.1921 16.5501 27.6834C16.5807 26.9596 16.6046 26.2358 16.6378 25.5119C16.6909 24.399 16.7626 23.286 16.7546 22.1717C16.752 21.8265 16.6486 21.4895 16.4571 21.2022C15.9617 21.8131 15.4411 22.363 15.0108 22.9845C14.7642 23.3181 14.6206 23.7165 14.5978 24.1307C14.5579 25.8187 14.5646 27.5081 14.5978 29.1962C14.526 29.329 14.526 29.5016 14.3799 29.6105C14.0585 29.8496 13.7332 29.6876 13.5698 29.1975C13.5698 27.7047 13.5733 26.2119 13.5804 24.719C13.5804 23.7256 13.846 22.8225 14.4955 22.0508C14.8714 21.6046 15.2233 21.1384 15.6164 20.7081C15.8117 20.4916 15.728 20.4053 15.5301 20.3176C14.8899 20.0321 14.2432 19.7585 13.6083 19.4637C13.4171 19.3747 13.3334 19.4092 13.2271 19.5872C12.8287 20.2645 12.4064 20.9339 11.9867 21.6019C11.5431 22.3045 10.9414 22.3776 10.3146 21.8171C10.0861 21.6126 9.84839 21.4187 9.56018 21.1743V29.2214C9.54026 29.5122 9.38354 29.6969 9.098 29.7115C8.76464 29.7301 8.63714 29.4883 8.56675 29.2041V21.1902C8.28386 21.4346 8.06737 21.6298 7.84292 21.8144C7.12573 22.4041 6.57456 22.3032 6.09245 21.5037C5.70198 20.8555 5.29557 20.214 4.90776 19.5686C4.83339 19.4477 4.77495 19.3627 4.60495 19.4358C3.94089 19.7412 3.2662 20.0347 2.59417 20.3269C2.38698 20.4172 2.37768 20.5169 2.52511 20.6842C2.81729 21.0162 3.08425 21.3708 3.38042 21.7002C4.17729 22.5914 4.593 23.6074 4.55847 24.828C4.51729 26.2889 4.55847 27.7498 4.55847 29.2108C4.5319 29.5136 4.36854 29.7075 4.06706 29.7088C3.76557 29.7101 3.61815 29.491 3.57432 29.2041C3.57432 27.5705 3.57432 25.9369 3.57432 24.3033C3.56932 24.021 3.50838 23.7425 3.39503 23.4839C3.03909 22.6365 2.34714 22.0389 1.80128 21.335C1.68042 21.1796 1.62331 21.3164 1.57948 21.412C1.42562 21.7475 1.35456 22.1151 1.37229 22.4838C1.44136 24.136 1.49182 25.7895 1.58347 27.4417C1.61667 28.0354 1.60339 28.6304 1.65651 29.224C1.65882 29.2895 1.64748 29.3547 1.62321 29.4155C1.59894 29.4763 1.56227 29.5313 1.51555 29.5772C1.46882 29.6231 1.41306 29.6587 1.35181 29.6818C1.29056 29.7049 1.22516 29.715 1.15979 29.7115C0.894169 29.7115 0.704247 29.499 0.686981 29.1563C0.633856 28.1071 0.592684 27.0579 0.554169 26.0087C0.506356 24.8944 0.453231 23.7801 0.414715 22.6658C0.345653 21.0428 1.06151 19.9258 2.54104 19.2737C2.72831 19.1914 2.91159 19.0944 3.10417 19.0307C4.19041 18.6926 5.15335 18.0428 5.87331 17.162C5.90784 17.1208 5.94503 17.0677 5.99151 17.0531C6.43511 16.903 6.27972 16.5312 6.30362 16.2257C6.31292 16.1022 6.21597 16.0637 6.14026 16.0079C5.15407 15.3039 4.45738 14.2655 4.17995 13.086C4.1494 12.9625 4.14409 12.8536 3.95815 12.831C3.16792 12.734 2.69511 12.1895 2.66589 11.39C2.64464 10.8295 2.72831 10.3076 3.19714 9.92905C3.34722 9.80553 3.26222 9.66342 3.23698 9.53991C3.0475 8.59096 3.11817 7.60844 3.44151 6.69639C3.82135 5.55759 4.56051 4.57282 5.54792 3.89006C5.64165 3.83391 5.72096 3.75664 5.77953 3.6644C5.8381 3.57217 5.87431 3.46752 5.88526 3.35881C6.06589 1.99084 7.16026 0.868577 8.46448 0.679983C10.0157 0.454202 11.4049 1.15014 12.0079 2.4703C12.1573 2.75882 12.2442 3.07561 12.2629 3.39998C12.2592 3.48456 12.279 3.56851 12.32 3.64256C12.361 3.71662 12.4217 3.77791 12.4953 3.81967C13.5777 4.53702 14.3783 5.607 14.7611 6.84779C15.0397 7.72866 15.0854 8.66665 14.8939 9.57045C14.8691 9.65 14.8699 9.73532 14.8961 9.81441C14.9223 9.89351 14.9726 9.9624 15.04 10.0114C15.6908 10.5825 15.728 12.4419 14.4875 12.7553C14.0625 12.8629 13.9563 13.0634 13.8553 13.4194C13.5544 14.4462 12.9186 15.3429 12.0491 15.9667C11.7117 16.2124 11.7489 16.7344 12.0717 16.9933C12.3993 17.2588 12.7016 17.554 12.9748 17.8752C13.3427 18.3055 13.8155 18.5393 14.3335 18.7053C14.7837 18.9085 15.2326 19.1144 15.6828 19.3162C16.9738 19.8966 17.6923 20.8781 17.7335 22.3072C17.7507 22.9008 17.7016 23.5025 17.6777 24.0895C17.6095 25.7957 17.54 27.5019 17.4692 29.2081ZM11.1393 3.09983C11.1566 3.11045 11.1805 3.13303 11.1885 3.12905C11.2257 3.10647 11.2097 3.07858 11.1885 3.05334C10.8033 1.76905 9.12057 1.17936 7.90136 1.90451C7.66337 2.03491 7.45413 2.21198 7.28618 2.42512C7.11822 2.63826 6.99498 2.8831 6.92386 3.14498C7.50171 2.93714 8.10553 2.81021 8.71815 2.7678C9.5386 2.73223 10.3587 2.8447 11.1393 3.09983ZM5.88261 9.34202C6.29034 9.62889 6.32222 9.87327 6.00347 10.2478C5.85836 10.4226 5.69693 10.5831 5.52136 10.7272C5.0605 11.1005 4.82807 11.1058 4.39112 10.7272C4.23706 10.5944 4.0644 10.528 3.88909 10.6276C3.55839 10.8136 3.63011 11.1483 3.65401 11.4431C3.6547 11.5002 3.66672 11.5567 3.68939 11.6091C3.71206 11.6616 3.74491 11.709 3.78606 11.7487C3.8272 11.7884 3.87581 11.8194 3.92906 11.8402C3.98231 11.8609 4.03915 11.8708 4.09628 11.8694C4.68464 11.9186 4.9755 12.1669 5.10167 12.742C5.24412 13.365 5.52108 13.9493 5.91315 14.454C6.95307 15.8339 9.0794 16.3651 10.6479 15.6493C11.9362 15.0609 12.7331 14.0847 13.0478 12.7048C13.1621 12.2041 13.4874 11.888 13.9895 11.8801C14.4915 11.8721 14.5473 11.4325 14.4849 10.9836C14.4357 10.6369 14.2007 10.4882 13.8102 10.6223C13.6454 10.6908 13.4628 10.7038 13.29 10.6592C13.1172 10.6146 12.9637 10.515 12.8526 10.3753C12.7674 10.2876 12.6632 10.2205 12.5482 10.1791C12.4331 10.1377 12.3101 10.123 12.1885 10.1362C10.9994 10.164 9.81329 10.0058 8.673 9.66741C7.85148 9.40535 7.07387 9.02169 6.36604 8.5292C6.09245 8.25428 5.80425 7.99795 5.54792 7.70311C5.29159 7.40826 5.38456 7.03904 5.7219 6.90623C5.97557 6.80264 6.16151 6.93545 6.32089 7.10944C6.68831 7.52226 7.12079 7.8722 7.6012 8.14537C9.01034 8.94225 10.5496 9.17069 12.1314 9.15741C12.6228 9.15741 13.0385 9.21319 13.4091 9.55584C13.6322 9.76436 13.8952 9.6528 13.951 9.35928C14.1502 8.39716 14.0245 7.39614 13.5937 6.51311C12.4316 4.14639 9.59339 3.09451 7.11112 4.11584C5.09503 4.94326 3.90104 6.91686 4.13878 9.01928C4.17729 9.35264 4.19057 9.70061 4.65011 9.72983C4.68212 9.73694 4.71099 9.75417 4.73245 9.77897C4.91307 9.95827 5.04589 9.87858 5.1787 9.70858C5.35534 9.48545 5.5519 9.27959 5.88261 9.346V9.34202ZM10.8511 17.2271C10.8511 16.6613 10.8511 16.6613 10.3491 16.7848C9.42445 17.0206 8.45256 16.9953 7.54143 16.7118C7.45909 16.6865 7.36612 16.5922 7.28909 16.7118C7.21206 16.8313 7.30768 17.6521 7.4219 17.7623C7.92393 18.267 8.43393 18.7664 8.92932 19.2777C9.06214 19.4105 9.1219 19.384 9.23347 19.2697C9.66245 18.8288 10.0901 18.3839 10.5403 17.9655C10.7741 17.7424 10.9242 17.5126 10.8511 17.2311V17.2271ZM6.34745 18.0771C6.28768 18.1276 6.23722 18.1647 6.19339 18.2099C6.06057 18.3427 5.92776 18.4941 5.77901 18.6203C5.74489 18.6415 5.71583 18.6699 5.69386 18.7035C5.6719 18.7371 5.65756 18.7751 5.65187 18.8149C5.64617 18.8546 5.64925 18.8951 5.66089 18.9336C5.67253 18.972 5.69245 19.0074 5.71925 19.0373C6.12831 19.6855 6.52985 20.3389 6.92386 20.9976C7.03011 21.1756 7.10714 21.1557 7.24128 21.0348C7.53878 20.7692 7.84026 20.5036 8.15636 20.2605C8.33565 20.1277 8.33034 20.0334 8.17628 19.8833C7.61979 19.3388 7.07393 18.7837 6.52409 18.2338C6.47097 18.1847 6.41253 18.1382 6.34745 18.0811V18.0771ZM11.0371 21.1464C11.1619 21.1464 11.1792 21.0441 11.2217 20.9751C11.5298 20.4797 11.8339 19.983 12.1421 19.4862C12.575 18.7876 12.575 18.789 11.9721 18.2245L11.9495 18.2019C11.8565 18.0824 11.7742 18.0798 11.6626 18.194C11.0862 18.7792 10.5058 19.3601 9.92143 19.9365C9.80589 20.0507 9.81386 20.1171 9.93206 20.2154C10.2721 20.4983 10.6054 20.7905 10.9414 21.0787C10.972 21.1031 11.0039 21.1257 11.0371 21.1464Z" fill="#030303"/>
<path id="Vector_3" d="M25.428 29.2041C25.3669 28.0155 25.2952 26.8268 25.2474 25.6381C25.169 23.8969 25.1 22.1558 25.0296 20.4146C25.0296 20.3097 24.9857 20.2008 25.0535 20.0905C25.3191 20.1516 25.5661 20.2579 25.8411 20.2167C26.0661 20.1838 26.281 20.1012 26.47 19.9749C26.6591 19.8485 26.8176 19.6816 26.9341 19.4862C27.4786 18.6548 28.0418 17.834 28.5796 16.9987C28.7005 16.8127 28.8014 16.7941 28.9914 16.8658C29.6714 17.1408 30.3567 17.3971 31.0393 17.6627C31.1204 17.6933 31.1987 17.7278 31.2784 17.761C31.5746 17.8832 31.9106 18.0492 31.9982 18.3215C32.058 18.5074 31.6928 18.6933 31.5175 18.878C31.1814 19.2299 30.8348 19.5712 30.4882 19.9139C30.1479 20.2403 29.8793 20.6339 29.6994 21.0697C29.5195 21.5055 29.4321 21.9739 29.4429 22.4453C29.4496 24.5783 29.4429 26.7112 29.4429 28.8442C29.4429 28.9637 29.4429 29.0819 29.4336 29.2015L25.428 29.2041Z" fill="#D9D7DA"/>
<path id="Vector_4" d="M17.4677 29.2081C17.5368 27.5019 17.6063 25.7952 17.6762 24.0881C17.7002 23.4945 17.7493 22.8928 17.732 22.3058C17.6909 20.8767 16.9723 19.8953 15.6814 19.3149C15.2312 19.113 14.7823 18.9071 14.332 18.7039C14.3626 18.3533 14.5671 18.1063 14.8181 17.8871C15.0598 18.0717 15.2923 18.0624 15.5645 17.9203C16.4159 17.4728 17.3416 17.2058 18.2208 16.8353C18.4147 16.7542 18.4452 16.8871 18.5116 16.9853C19.034 17.7663 19.5547 18.5485 20.0735 19.3321C20.6446 20.1901 21.0802 20.3561 22.0352 20.0958C22.0352 20.627 22.0537 21.1583 22.0352 21.6895C21.9355 24.1121 21.8253 26.5332 21.7177 28.9544C21.7177 29.0407 21.7018 29.1257 21.6938 29.2121L17.4677 29.2081ZM19.946 22.0428C19.6445 22.0428 19.343 22.0349 19.0416 22.0428C18.7401 22.0508 18.5329 22.2288 18.5316 22.5063C18.5245 22.569 18.531 22.6324 18.5505 22.6923C18.57 22.7523 18.602 22.8073 18.6445 22.8539C18.6871 22.9004 18.739 22.9373 18.797 22.9621C18.8549 22.9869 18.9175 22.9991 18.9805 22.9978C19.6034 23.0203 20.2276 23.019 20.8505 22.9978C20.9136 22.999 20.9762 22.9866 21.0341 22.9616C21.0921 22.9365 21.1439 22.8993 21.1862 22.8525C21.2285 22.8056 21.2603 22.7502 21.2793 22.6901C21.2984 22.6299 21.3043 22.5663 21.2967 22.5037C21.2967 22.2248 21.1068 22.0535 20.7854 22.0428C20.5052 22.0349 20.2249 22.0428 19.946 22.0428Z" fill="#D9D7DA"/>
<path id="Vector_5" d="M9.55469 29.2214V21.1743C9.84289 21.4187 10.0859 21.6126 10.3091 21.8171C10.9359 22.3776 11.5376 22.3045 11.9812 21.602C12.4009 20.9379 12.8192 20.2646 13.2216 19.5872C13.3279 19.4092 13.4116 19.3747 13.6028 19.4637C14.2377 19.7585 14.8845 20.0321 15.5246 20.3177C15.7225 20.4053 15.8062 20.4917 15.6109 20.7081C15.2125 21.1385 14.8659 21.6046 14.49 22.0509C13.8419 22.8225 13.5762 23.7256 13.5749 24.7191C13.5749 26.2119 13.5714 27.7047 13.5643 29.1975C12.3575 29.1975 11.1498 29.1975 9.94117 29.1975C9.81234 29.2042 9.68352 29.2161 9.55469 29.2214Z" fill="#5C525F"/>
<path id="Vector_6" d="M4.55357 29.2148C4.55357 27.7539 4.51771 26.2929 4.55357 24.832C4.5881 23.6115 4.17373 22.5954 3.37553 21.7043C3.07936 21.3749 2.8124 21.0203 2.52021 20.6883C2.37279 20.5209 2.3874 20.4226 2.58928 20.331C3.26131 20.0388 3.93334 19.7453 4.60006 19.4398C4.77139 19.3615 4.8285 19.4465 4.90287 19.5726C5.30131 20.2181 5.69975 20.8596 6.08756 21.5077C6.56967 22.3046 7.12084 22.4082 7.83803 21.8185C8.06248 21.6339 8.27896 21.4387 8.56186 21.1943V29.2082L4.55357 29.2148ZM6.58561 24.2012C6.35982 24.2012 6.13404 24.2012 5.90826 24.2012C5.84576 24.1951 5.78269 24.2021 5.72303 24.2217C5.66338 24.2413 5.60845 24.273 5.56174 24.315C5.51503 24.357 5.47756 24.4082 5.4517 24.4654C5.42584 24.5226 5.41217 24.5846 5.41154 24.6474C5.40199 24.7069 5.40494 24.7678 5.4202 24.8261C5.43546 24.8844 5.4627 24.939 5.50018 24.9862C5.53766 25.0334 5.58456 25.0723 5.63789 25.1004C5.69123 25.1285 5.74984 25.1452 5.80998 25.1494C6.32179 25.213 6.83972 25.2094 7.35061 25.1388C7.62553 25.0963 7.74904 24.8891 7.7185 24.6182C7.7113 24.5034 7.65944 24.3961 7.57404 24.3191C7.48864 24.2422 7.37649 24.2017 7.26162 24.2065C7.03982 24.1905 6.81139 24.2012 6.58561 24.2012Z" fill="#5C525F"/>
<path id="Vector_7" d="M30.4258 29.2069C30.4258 26.8587 30.4258 24.5124 30.4258 22.1678C30.4382 21.7653 30.5699 21.3756 30.8043 21.0482C30.8689 20.9478 30.9437 20.8544 31.0274 20.7693C31.5215 20.2739 32.0195 19.7811 32.5295 19.2738C32.6223 19.5045 32.6552 19.7548 32.6252 20.0016C32.5366 22.3471 32.4419 24.6934 32.3409 27.0407C32.3104 27.7645 32.2705 28.4883 32.2347 29.2122L30.4258 29.2069Z" fill="#D9D7DA"/>
<path id="Vector_8" d="M1.64643 29.2281C1.59331 28.6344 1.60659 28.0394 1.57338 27.4457C1.48174 25.7935 1.43127 24.14 1.36221 22.4878C1.34384 22.1178 1.41491 21.7488 1.5694 21.412C1.61323 21.3164 1.67034 21.1796 1.7912 21.335C2.34104 22.0389 3.03299 22.6366 3.38495 23.4839C3.4983 23.7425 3.55924 24.0211 3.56424 24.3034C3.56424 25.937 3.56424 27.5706 3.56424 29.2042C2.92674 29.2081 2.28659 29.1723 1.64643 29.2281Z" fill="#5C525F"/>
<path id="Vector_9" d="M14.5928 29.1961C14.5662 27.5081 14.5596 25.8187 14.5928 24.1307C14.6157 23.7165 14.7592 23.318 15.0058 22.9845C15.4362 22.3629 15.9568 21.8131 16.4522 21.2021C16.6436 21.4895 16.747 21.8264 16.7497 22.1717C16.7576 23.286 16.6859 24.3989 16.6328 25.5119C16.5996 26.2357 16.5757 26.9596 16.5451 27.6834C16.5226 28.1921 16.496 28.6994 16.4708 29.2068L14.5928 29.1961Z" fill="#5C525F"/>
<path id="Vector_10" d="M22.7031 29.2028C22.727 27.7989 22.808 26.3978 22.8824 24.9953C22.9116 24.4454 22.9103 23.8942 22.9475 23.3444C23.0006 22.5794 23.0152 21.8117 23.0298 21.0441C23.0298 20.8249 23.0923 20.7466 23.322 20.7466C24.0552 20.7466 24.0498 20.7373 24.0804 21.4558C24.1641 23.448 24.2424 25.4495 24.346 27.4443C24.3766 28.0274 24.3978 28.6091 24.3991 29.1921L22.7031 29.2028Z" fill="#5C525F"/>
<path id="Vector_11" d="M20.8892 6.38696C21.5904 6.81219 22.3646 7.10356 23.1722 7.24626C24.3268 7.42788 25.5037 7.41262 26.6532 7.2011C26.8989 7.15728 27.0689 7.16259 27.1313 7.45212C27.1725 7.58662 27.2263 7.71691 27.292 7.84126C27.5245 8.37251 27.7622 8.51993 28.3545 8.46548C28.7756 8.42829 28.9549 8.55314 28.992 8.9104C29.0505 9.45892 28.907 9.68868 28.4807 9.73517C27.9574 9.7936 27.6586 10.0592 27.5298 10.6011C27.3957 11.2435 27.1083 11.844 26.692 12.3514C26.2758 12.8588 25.743 13.258 25.1392 13.515C23.3302 14.3411 20.9024 13.5004 20.0099 11.7207C19.8194 11.3569 19.6769 10.9698 19.5863 10.5692C19.4774 10.0499 19.1586 9.78032 18.6154 9.73251C18.3657 9.70993 18.1997 9.61165 18.1625 9.35931C18.1187 9.05915 18.0576 8.73509 18.3445 8.52126C18.5145 8.38845 18.7097 8.44688 18.8757 8.59032C19.3273 8.97548 19.5584 8.97813 20.0046 8.6036C20.1378 8.49315 20.2634 8.37379 20.3805 8.24634C20.8174 7.76556 20.8201 7.67524 20.4509 7.17587C20.678 6.95806 20.7577 6.6579 20.8892 6.38696Z" fill="#C29671"/>
<path id="Vector_12" d="M20.8876 6.38697C20.7548 6.6526 20.6764 6.95807 20.4467 7.17322C20.3013 7.15649 20.1541 7.18011 20.0213 7.24149C19.8885 7.30287 19.7751 7.39964 19.6936 7.52119C19.501 7.78682 19.0216 7.72439 18.9393 7.40299C18.651 6.26877 18.4478 5.11861 18.74 3.94986C18.8728 3.41861 19.2607 3.12377 19.7932 3.02018C19.9712 2.98564 20.1571 2.97635 20.3099 2.85549C21.2111 2.13879 22.3088 1.7127 23.4575 1.63361C24.5081 1.54729 25.5307 1.63361 26.4963 2.06393C27.8244 2.65361 28.4632 3.74799 28.6691 5.1465C28.7488 5.76862 28.7488 6.39837 28.6691 7.02049C28.6598 7.10549 28.6239 7.18916 28.6226 7.27416C28.6226 7.44416 28.4898 7.44814 28.3796 7.47736C28.2468 7.51189 28.1843 7.43354 28.1378 7.32197C28.0143 7.02182 27.8908 6.72299 27.758 6.42682C27.715 6.30314 27.6254 6.20116 27.5083 6.1426C27.3912 6.08405 27.2559 6.07356 27.1311 6.11338C26.2247 6.31235 25.2977 6.40153 24.37 6.379C23.2557 6.33518 22.1839 6.11338 21.2754 5.40549C21.0802 5.25408 20.9168 5.06283 20.7349 4.89416C20.4878 4.66705 20.2687 4.65643 20.0482 4.8583C19.9525 4.94879 19.8965 5.07353 19.8925 5.2052C19.8885 5.33688 19.9369 5.46477 20.027 5.56088C20.2859 5.86392 20.5742 6.14063 20.8876 6.38697Z" fill="#5C525F"/>
<path id="Vector_13" d="M20.8699 14.0542C22.6855 15.0676 24.4559 15.0623 26.2555 14.0463C26.2555 14.3345 26.2555 14.5775 26.2555 14.8206C26.2539 14.8739 26.2393 14.9259 26.2129 14.9723C26.1865 15.0186 26.1491 15.0577 26.1041 15.0862C25.3072 15.7848 24.5103 16.4807 23.7135 17.1846C23.5926 17.2922 23.5195 17.3002 23.3947 17.1846C22.5978 16.4807 21.801 15.7835 21.0041 15.0862C20.9601 15.0555 20.9243 15.0145 20.8998 14.9668C20.8752 14.9192 20.8627 14.8662 20.8633 14.8126C20.8753 14.5815 20.8699 14.3438 20.8699 14.0542Z" fill="#C29671"/>
<path id="Vector_14" d="M25.6773 19.2525C25.5584 19.2428 25.4475 19.1888 25.3666 19.1011C25.0451 18.781 24.7291 18.4556 24.4023 18.1409C24.2934 18.0346 24.2894 17.9749 24.4116 17.8753C25.2855 17.1182 26.1541 16.3563 27.0174 15.5895C27.1502 15.4767 27.2126 15.4886 27.3322 15.6015C27.9591 16.1978 27.963 16.1938 27.4783 16.9217C27.0241 17.6043 26.5672 18.2856 26.1169 18.971C26.0741 19.0518 26.0111 19.1201 25.9341 19.1695C25.8571 19.2188 25.7686 19.2474 25.6773 19.2525Z" fill="#D9D7DA"/>
<path id="Vector_15" d="M22.8434 17.9934C22.4636 18.3786 22.0997 18.7624 21.7172 19.1263C21.6749 19.173 21.6221 19.2089 21.5632 19.2313C21.5044 19.2536 21.441 19.2617 21.3784 19.2548C21.3158 19.248 21.2558 19.2263 21.2031 19.1918C21.1505 19.1572 21.1068 19.1106 21.0757 19.0559C20.4621 18.1541 19.8644 17.243 19.2561 16.3372C19.1977 16.2496 19.1884 16.1845 19.2734 16.1168C19.2907 16.1035 19.3039 16.0849 19.3199 16.0703C19.5204 15.8764 19.7024 15.559 19.9295 15.5204C20.1566 15.4819 20.3611 15.8246 20.5697 16.0039C21.328 16.6587 22.0784 17.3254 22.8434 17.9934Z" fill="#D9D7DA"/>
<path id="Vector_16" d="M23.5339 19.7718C23.3387 19.7493 23.0544 19.8847 23.0983 19.4757C23.1288 19.1835 23.3732 18.7505 23.5605 18.7425C23.7477 18.7346 23.9961 19.1503 23.9961 19.473C23.9948 19.7718 23.9948 19.7718 23.5339 19.7718Z" fill="#5C525F"/>
<path id="Vector_17" d="M6.36692 8.52917C7.0745 9.02306 7.85212 9.40807 8.67387 9.67136C9.81416 10.0097 11.0003 10.1679 12.1894 10.1402C12.311 10.127 12.434 10.1416 12.5491 10.183C12.6641 10.2245 12.7682 10.2916 12.8535 10.3793C12.9655 10.5181 13.1197 10.6166 13.2927 10.66C13.4657 10.7034 13.6481 10.6892 13.8124 10.6196C14.2029 10.4868 14.4379 10.6343 14.4871 10.9809C14.5495 11.4298 14.4871 11.8681 13.9917 11.8774C13.4963 11.8867 13.1643 12.2014 13.05 12.7021C12.7353 14.0821 11.9384 15.0582 10.6501 15.6466C9.08161 16.3638 6.95528 15.8325 5.91536 14.4513C5.52328 13.9466 5.24632 13.3623 5.10387 12.7393C4.97106 12.1643 4.68684 11.9159 4.09848 11.8668C4.04135 11.8682 3.98451 11.8582 3.93126 11.8375C3.87801 11.8168 3.8294 11.7857 3.78826 11.746C3.74712 11.7063 3.71426 11.6589 3.69159 11.6065C3.66893 11.554 3.6569 11.4976 3.65621 11.4404C3.63231 11.1456 3.56059 10.8109 3.89129 10.625C4.06661 10.5253 4.23926 10.5904 4.39332 10.7246C4.83028 11.1084 5.05739 11.1031 5.52356 10.7246C5.69817 10.5837 5.85914 10.4268 6.00434 10.2557C6.32309 9.87722 6.29121 9.63683 5.88348 9.34996C6.08004 9.0923 6.28723 8.84527 6.36692 8.52917Z" fill="#FDDFB3"/>
<path id="Vector_18" d="M6.36474 8.52922C6.28505 8.85196 6.07787 9.09899 5.8813 9.35266C5.5506 9.28625 5.35005 9.48547 5.17607 9.71524C5.04326 9.88524 4.91044 9.96492 4.73115 9.78563C4.71089 9.75589 4.68079 9.73425 4.64615 9.72453C4.18661 9.69531 4.17333 9.34735 4.13482 9.01399C3.89974 6.91688 5.09372 4.94328 7.10982 4.11586C9.59208 3.09453 12.4303 4.14242 13.5924 6.51844C14.0232 7.40147 14.1489 8.40249 13.9497 9.36461C13.8939 9.65813 13.6309 9.76305 13.4078 9.56117C13.0372 9.2132 12.6215 9.15344 12.1301 9.16274C10.5483 9.17602 9.00904 8.94227 7.5999 8.15071C7.11949 7.87753 6.687 7.52759 6.31958 7.11477C6.16021 6.93547 5.97427 6.80266 5.7206 6.9036C5.38326 7.02844 5.28763 7.4043 5.54661 7.70047C5.8056 7.99664 6.09115 8.24766 6.36474 8.52922Z" fill="#C29671"/>
<path id="Vector_19" d="M10.8494 17.2311C10.9225 17.5127 10.7724 17.7425 10.5333 17.9656C10.0831 18.3839 9.65545 18.8289 9.22647 19.2698C9.1149 19.384 9.0485 19.4026 8.92233 19.2778C8.42693 18.7664 7.91693 18.2671 7.4149 17.7624C7.306 17.6521 7.2024 16.8327 7.28209 16.7118C7.36178 16.591 7.45209 16.6906 7.53444 16.7118C8.44556 16.9953 9.41746 17.0206 10.3421 16.7849C10.8494 16.6653 10.8494 16.6653 10.8494 17.2311Z" fill="#FDDFB3"/>
<path id="Vector_20" d="M6.3468 18.0811C6.41188 18.1382 6.47032 18.1846 6.52344 18.2364C7.07329 18.7863 7.61915 19.3414 8.17563 19.886C8.32969 20.0361 8.33501 20.1264 8.15571 20.2632C7.83961 20.5062 7.53813 20.7705 7.24063 21.0375C7.10782 21.1583 7.02946 21.1782 6.92321 21.0003C6.53008 20.3415 6.12855 19.6881 5.7186 19.04C5.6918 19.0101 5.67188 18.9746 5.66024 18.9362C5.6486 18.8978 5.64552 18.8573 5.65122 18.8175C5.65691 18.7778 5.67125 18.7397 5.69322 18.7061C5.71518 18.6725 5.74425 18.6441 5.77836 18.6229C5.92446 18.4968 6.05461 18.3493 6.19274 18.2125C6.24055 18.1687 6.28704 18.1315 6.3468 18.0811Z" fill="#5C525F"/>
<path id="Vector_21" d="M11.0366 21.1464C11.0035 21.1257 10.9716 21.103 10.941 21.0786C10.605 20.7904 10.277 20.4982 9.93164 20.2154C9.81344 20.1171 9.79883 20.0507 9.92102 19.9364C10.5072 19.3618 11.0876 18.781 11.6622 18.1939C11.7738 18.0797 11.8561 18.0824 11.9491 18.2019L11.9716 18.2245C12.5746 18.7889 12.5746 18.7876 12.1416 19.4862C11.8335 19.9829 11.5294 20.4797 11.2213 20.975C11.1788 21.0468 11.1615 21.1464 11.0366 21.1464Z" fill="#5C525F"/>
<path id="Vector_22" d="M11.1387 3.09982C10.3577 2.84453 9.53706 2.73206 8.71617 2.76779C8.10354 2.8102 7.49973 2.93713 6.92188 3.14497C6.993 2.88309 7.11624 2.63825 7.28419 2.42511C7.45215 2.21197 7.66139 2.0349 7.89938 1.9045C9.11859 1.17935 10.8013 1.77169 11.1865 3.05333L11.1387 3.09982Z" fill="#C29671"/>
<path id="Vector_23" d="M11.1859 3.05334C11.2084 3.07858 11.2244 3.10647 11.1859 3.12905C11.1779 3.12905 11.154 3.11045 11.1367 3.09983L11.1859 3.05334Z" fill="#C29671"/>
<path id="Vector_24" d="M19.9459 22.0428C20.2248 22.0428 20.505 22.0349 20.7853 22.0428C21.1067 22.0535 21.2939 22.2248 21.2966 22.5037C21.3055 22.5671 21.3004 22.6316 21.2819 22.6929C21.2633 22.7541 21.2316 22.8106 21.189 22.8584C21.1465 22.9061 21.094 22.9441 21.0353 22.9695C20.9765 22.995 20.913 23.0073 20.849 23.0057C20.2261 23.027 19.6019 23.0283 18.979 23.0057C18.916 23.0071 18.8534 22.9949 18.7955 22.9701C18.7376 22.9453 18.6856 22.9084 18.6431 22.8619C18.6006 22.8153 18.5685 22.7602 18.549 22.7003C18.5295 22.6404 18.5231 22.577 18.5301 22.5143C18.5301 22.2368 18.7213 22.0614 19.0401 22.0508C19.3588 22.0402 19.6444 22.0428 19.9459 22.0428Z" fill="#030303"/>
<path id="Vector_25" d="M6.58447 24.2011C6.81025 24.2011 7.03603 24.1944 7.26181 24.2011C7.37668 24.1963 7.48883 24.2368 7.57423 24.3137C7.65964 24.3907 7.71149 24.4981 7.71869 24.6128C7.75189 24.8784 7.62572 25.0909 7.3508 25.1334C6.83991 25.204 6.32199 25.2076 5.81017 25.144C5.75003 25.1398 5.69142 25.1231 5.63809 25.095C5.58475 25.0669 5.53785 25.028 5.50037 24.9808C5.46289 24.9336 5.43565 24.8791 5.42039 24.8207C5.40513 24.7624 5.40218 24.7015 5.41173 24.642C5.4131 24.5798 5.42727 24.5185 5.45337 24.462C5.47946 24.4055 5.51692 24.355 5.56341 24.3137C5.60989 24.2723 5.6644 24.2409 5.72354 24.2216C5.78268 24.2022 5.84517 24.1952 5.90712 24.2011C6.13291 24.2011 6.35869 24.2011 6.58447 24.2011Z" fill="#030303"/>
</g>
</svg>
