<svg width="32" height="34" viewBox="0 0 32 34" fill="none" xmlns="http://www.w3.org/2000/svg">
<g id="AprobarCargue">
<path id="Vector" d="M28.9713 8.72787V21.0954C28.8079 21.3384 28.5728 21.3915 28.2952 21.3889C27.0681 21.3783 25.8409 21.3889 24.6137 21.3796C24.3826 21.3796 24.3188 21.4367 24.3188 21.6718C24.3281 23.8167 24.3255 25.9616 24.3255 28.1065C24.3255 28.7002 24.2113 28.8144 23.6229 28.8144H5.52586C4.95211 28.8144 4.83524 28.6989 4.83524 28.1238C4.83524 25.9696 4.83524 23.8154 4.83524 21.6612C4.83524 21.4433 4.78477 21.3769 4.55899 21.3796C3.3318 21.3915 2.10461 21.3796 0.877425 21.3796C0.308987 21.3796 0.184144 21.2547 0.184144 20.6903C0.184144 16.821 0.18193 12.9522 0.177503 9.08381C0.167893 8.93578 0.198644 8.78792 0.266475 8.656C0.334306 8.52408 0.436674 8.41305 0.562659 8.33475C1.91867 7.40506 3.26274 6.44881 4.6161 5.51115C4.68789 5.47178 4.74721 5.41309 4.78735 5.34173C4.82749 5.27037 4.84684 5.1892 4.84321 5.1074C4.83258 3.94662 4.84321 2.78451 4.84321 1.62373C4.84321 1.09912 4.96805 0.966309 5.50727 0.966309H23.6574C24.1887 0.966309 24.3215 1.09912 24.3215 1.63037C24.3215 2.77256 24.3295 3.91607 24.3215 5.05826C24.3145 5.15785 24.3357 5.25739 24.3827 5.34548C24.4297 5.43357 24.5005 5.50664 24.5871 5.55631C25.9152 6.46873 27.2261 7.39709 28.5463 8.31748C28.7178 8.41951 28.8633 8.56 28.9713 8.72787ZM14.5956 9.3335H1.50032C1.12446 9.3335 1.12446 9.3335 1.12446 9.71201C1.12446 13.1873 1.12446 16.6625 1.12446 20.1378C1.12446 20.3835 1.17227 20.4738 1.44453 20.4738C10.204 20.4658 18.9625 20.4658 27.7202 20.4738C27.9858 20.4738 28.0442 20.3915 28.0429 20.1404C28.0358 16.6572 28.0358 13.1727 28.0429 9.68678C28.0429 9.32818 28.0429 9.32818 27.671 9.32818L14.5956 9.3335ZM14.589 1.896H6.01993C5.88711 1.896 5.7543 1.85748 5.7543 2.09389C5.76315 4.13566 5.76315 6.17699 5.7543 8.21787C5.7543 8.37459 5.81008 8.40381 5.94953 8.39982C6.28555 8.39186 6.62289 8.3892 6.96024 8.39982C7.1236 8.39982 7.16344 8.34936 7.16078 8.19396C7.15149 7.68928 7.16078 7.18326 7.16078 6.67725C7.16078 6.23764 7.31352 6.08092 7.74914 6.08092H21.4288C21.8485 6.08092 22.0039 6.24029 22.0066 6.65865C22.0066 7.14607 22.0159 7.6335 22.0066 8.11959C22.0066 8.32545 22.0371 8.42107 22.2722 8.40248C22.5621 8.37924 22.8535 8.37924 23.1434 8.40248C23.3732 8.42107 23.4091 8.33607 23.4091 8.1249C23.4011 6.14865 23.4011 4.1724 23.4091 2.19615C23.4091 1.94646 23.3493 1.88936 23.1023 1.88936C20.2654 1.896 17.4272 1.896 14.589 1.896ZM14.581 27.8994H22.7583C23.4038 27.8994 23.4038 27.8994 23.4038 27.2433C23.4038 25.3839 23.4038 23.5152 23.4038 21.6505C23.4038 21.4433 23.3586 21.3729 23.1381 21.3849C22.8207 21.4048 22.502 21.3969 22.1832 21.3849C22.0345 21.3849 21.9893 21.4274 21.992 21.5748C22.0013 22.0437 21.992 22.5045 21.992 22.98C21.992 23.6029 21.8791 23.7158 21.2548 23.7158H11.4041C10.1955 23.7158 8.98696 23.7158 7.77836 23.7158C7.30688 23.7158 7.1568 23.5617 7.15547 23.0915C7.15547 22.5948 7.1475 22.0981 7.15547 21.6027C7.15547 21.4261 7.105 21.3769 6.93367 21.3849C6.62402 21.4023 6.31364 21.4023 6.00399 21.3849C5.78485 21.3703 5.745 21.4473 5.74633 21.6505C5.74633 23.6427 5.75563 25.6349 5.74633 27.6364C5.74633 27.8754 5.83133 27.902 6.03453 27.902C8.88469 27.8932 11.7335 27.8901 14.581 27.8927V27.8994ZM14.5638 8.39451C16.6423 8.39451 18.7195 8.39451 20.798 8.39451C21.0384 8.39451 21.1008 8.32811 21.0835 8.09967C21.0669 7.80949 21.0669 7.5186 21.0835 7.22842C21.0928 7.04381 21.0317 6.99068 20.8471 6.99467C20.2202 7.00662 19.592 6.99467 18.9652 6.99467C15.4368 6.99467 11.9075 6.99467 8.37735 6.99467C8.15289 6.99467 8.0586 7.03584 8.07719 7.28021C8.09977 7.56044 8.09977 7.84202 8.07719 8.12225C8.05992 8.35201 8.14625 8.39451 8.35875 8.38787C10.4213 8.38389 12.4945 8.38787 14.5638 8.38787V8.39451ZM14.5757 22.7861H19.098C19.6877 22.7861 20.2773 22.7781 20.867 22.7861C21.0437 22.7861 21.0902 22.7343 21.0822 22.5643C21.0636 22.2746 21.0636 21.984 21.0822 21.6944C21.1021 21.4433 21.0224 21.3849 20.7741 21.3862C18.0408 21.3955 15.3075 21.3862 12.5742 21.3862C11.1784 21.3862 9.78516 21.3862 8.3893 21.3862C8.15821 21.3862 8.04532 21.4181 8.07321 21.6851C8.09778 21.9559 8.09778 22.2284 8.07321 22.4992C8.05328 22.7396 8.13696 22.7887 8.36672 22.7874C10.4386 22.7754 12.5065 22.7794 14.5757 22.7794V22.7861ZM2.12586 8.39053C3.02899 8.39053 3.8418 8.39053 4.6493 8.39053C4.77414 8.39053 4.83524 8.36795 4.83258 8.22318C4.82461 7.7092 4.83258 7.19521 4.83258 6.68123C4.83258 6.54842 4.80203 6.5099 4.67985 6.59623C3.85508 7.18193 3.02367 7.76232 2.12586 8.39053ZM27.0362 8.39053L24.3255 6.49662C24.3255 7.12084 24.3255 7.67865 24.3255 8.23646C24.3255 8.36928 24.3746 8.39318 24.4915 8.39318C25.3083 8.3892 26.1291 8.39053 27.0362 8.39053Z" fill="black"/>
<path id="Vector_2" d="M14.5963 9.3335H27.6637C28.0343 9.3335 28.0356 9.3335 28.0356 9.69209C28.0356 13.1771 28.0356 16.6616 28.0356 20.1458C28.0356 20.3968 27.9812 20.4791 27.7129 20.4791C18.9552 20.4712 10.1967 20.4712 1.43727 20.4791C1.165 20.4791 1.11719 20.3888 1.11719 20.1431C1.12516 16.6687 1.12516 13.1935 1.11719 9.71732C1.12516 9.3335 1.12516 9.3335 1.50102 9.3335H14.5963ZM16.9484 19.0753C17.3602 19.0753 17.7719 19.0753 18.1849 19.0753C19.1066 19.0753 19.6857 18.4869 19.691 17.5586C19.691 17.0526 19.691 16.5479 19.691 16.0419C19.691 14.9794 19.1332 14.4269 18.08 14.4255C17.5487 14.4255 17.0175 14.4255 16.4783 14.4255C16.1569 14.4255 15.9869 14.2555 15.9816 13.9421C15.9736 13.3435 15.9736 12.7441 15.9816 12.1438C15.9816 11.829 16.1569 11.6683 16.477 11.6577C16.7107 11.6497 16.9458 11.6577 17.1795 11.6577C17.8263 11.6577 18.4718 11.6577 19.1186 11.6577C19.5489 11.6577 19.7827 11.3443 19.6379 11.0083C19.5343 10.7785 19.3324 10.7201 19.1066 10.7201C18.2354 10.7201 17.3641 10.7081 16.4942 10.7201C15.6243 10.732 15.0585 11.3217 15.0426 12.181C15.032 12.7521 15.032 13.3232 15.0426 13.8943C15.0572 14.7841 15.6455 15.3552 16.5394 15.3672C17.0706 15.3672 17.6019 15.3672 18.1411 15.3672C18.6033 15.3672 18.7507 15.5119 18.7534 15.9662C18.7534 16.4815 18.7534 16.9968 18.7534 17.5121C18.7534 18.0062 18.6205 18.139 18.1159 18.1403C17.2818 18.1403 16.4477 18.1403 15.615 18.1403C15.2644 18.1403 15.0519 18.3315 15.0492 18.6012C15.0466 18.8708 15.271 19.0713 15.6296 19.074C16.0679 19.0726 16.5075 19.07 16.9484 19.07V19.0753ZM22.4734 15.9356L23.8016 18.6078C23.8499 18.7303 23.9211 18.8426 24.0114 18.9385C24.076 19.008 24.1623 19.0536 24.2562 19.0676C24.3501 19.0815 24.446 19.0632 24.528 19.0155C24.6196 18.9764 24.6941 18.9056 24.7377 18.8161C24.7814 18.7266 24.7913 18.6244 24.7658 18.5281C24.7384 18.4197 24.6983 18.3149 24.6462 18.216C24.1349 17.184 23.6249 16.1521 23.103 15.1268C23.0606 15.0564 23.0382 14.9758 23.0382 14.8937C23.0382 14.8115 23.0606 14.731 23.103 14.6606C23.6422 13.5981 24.1734 12.5356 24.6967 11.4731C24.8495 11.1663 24.7764 10.8914 24.5294 10.7719C24.2823 10.6523 24.026 10.7546 23.8653 11.0627C23.6515 11.4784 23.4456 11.8994 23.2358 12.3178C22.9861 12.8158 22.7351 13.3152 22.4695 13.8465C22.407 13.7283 22.3619 13.6472 22.3207 13.5649C21.9187 12.7627 21.5167 11.9596 21.1148 11.1557C21.0732 11.061 21.0201 10.9718 20.9567 10.8901C20.8876 10.8138 20.7947 10.7634 20.6931 10.747C20.5915 10.7307 20.4874 10.7494 20.3979 10.8001C20.3084 10.8508 20.2388 10.9305 20.2006 11.026C20.1624 11.1215 20.1579 11.2272 20.1877 11.3257C20.2201 11.4133 20.2578 11.4989 20.3006 11.582C20.8013 12.5874 21.2954 13.5954 21.8094 14.5942C21.865 14.6878 21.8939 14.795 21.8927 14.9039C21.8915 15.0128 21.8604 15.1194 21.8027 15.2118C21.2795 16.2265 20.7748 17.2504 20.2661 18.2665C20.0921 18.6171 20.1492 18.8801 20.4175 19.0142C20.6858 19.1483 20.9209 19.0275 21.1015 18.6715C21.2343 18.4139 21.3671 18.1536 21.492 17.8946L22.4734 15.9356ZM6.66875 13.8106C6.22604 12.9252 5.78599 12.0455 5.34859 11.1716C5.30324 11.069 5.24572 10.9723 5.17727 10.8834C5.1176 10.8034 5.03151 10.747 4.93425 10.7244C4.837 10.7018 4.73488 10.7144 4.64602 10.7599C4.55794 10.7951 4.48405 10.8585 4.43596 10.9402C4.38788 11.022 4.36833 11.1174 4.38039 11.2115C4.39988 11.3313 4.4413 11.4466 4.50258 11.5515C5.01391 12.5834 5.52391 13.614 6.04719 14.6407C6.09152 14.715 6.11493 14.7999 6.11493 14.8864C6.11493 14.9729 6.09152 15.0578 6.04719 15.1321C5.50664 16.1946 4.97805 17.2571 4.45344 18.3196C4.30203 18.6251 4.38172 18.8907 4.63672 19.0142C4.89172 19.1377 5.12281 19.0354 5.27953 18.7379C5.42031 18.4723 5.54516 18.2067 5.67797 17.9411C6.00336 17.289 6.33008 16.6382 6.6568 15.9834C6.74257 16.0398 6.80598 16.1244 6.83609 16.2225C7.23984 17.0247 7.64271 17.8273 8.04469 18.6304C8.0905 18.733 8.14991 18.8291 8.22133 18.9159C8.28357 18.9933 8.37196 19.0451 8.46983 19.0618C8.5677 19.0784 8.66828 19.0587 8.75258 19.0062C8.84857 18.9645 8.92542 18.8882 8.96795 18.7926C9.01049 18.697 9.01562 18.5888 8.98234 18.4896C8.94642 18.3831 8.90201 18.2796 8.84953 18.1801C8.34086 17.1588 7.83484 16.1348 7.31555 15.1175C7.27354 15.0472 7.25136 14.9669 7.25136 14.8851C7.25136 14.8032 7.27354 14.7229 7.31555 14.6526C7.8468 13.6194 8.35813 12.5808 8.87609 11.5422C8.96324 11.4183 9.00542 11.2683 8.99563 11.1172C8.98387 11.0183 8.93927 10.9261 8.86896 10.8556C8.79864 10.785 8.70669 10.7401 8.60781 10.728C8.36078 10.6895 8.19875 10.821 8.0925 11.0308L6.83609 13.5662C6.804 13.6616 6.74662 13.7466 6.67008 13.8119L6.66875 13.8106ZM9.46844 14.8824C9.46844 16.0777 9.46844 17.273 9.46844 18.4776C9.46844 18.888 9.64375 19.0673 10.0462 19.0673C11.2167 19.0673 12.3868 19.0673 13.5564 19.0673C13.8951 19.0673 14.1129 18.8747 14.1129 18.5998C14.1129 18.3249 13.907 18.1589 13.5816 18.135C13.5073 18.1283 13.4316 18.135 13.3572 18.135C12.4766 18.135 11.5974 18.1257 10.7169 18.135C10.4685 18.135 10.4034 18.0699 10.4048 17.8215C10.4141 15.6872 10.4048 13.5529 10.4048 11.4187C10.407 11.2984 10.3968 11.1782 10.3742 11.0601C10.3566 10.9614 10.3039 10.8724 10.2257 10.8097C10.1476 10.7469 10.0494 10.7146 9.94922 10.7187C9.84931 10.7109 9.74989 10.739 9.66882 10.7979C9.58775 10.8568 9.53036 10.9427 9.50695 11.0401C9.48026 11.1487 9.4682 11.2604 9.47109 11.3722C9.46844 12.5436 9.468 13.7141 9.46977 14.8837L9.46844 14.8824Z" fill="#62C17C"/>
<path id="Vector_3" d="M14.5886 1.896C17.4268 1.896 20.265 1.896 23.1019 1.896C23.3489 1.896 23.4113 1.95311 23.4087 2.20279C23.398 4.17904 23.398 6.15529 23.4087 8.13154C23.4087 8.34272 23.3688 8.42772 23.143 8.40912C22.8531 8.38588 22.5617 8.38588 22.2718 8.40912C22.0354 8.42772 21.9995 8.33209 22.0062 8.12623C22.0195 7.64014 22.0062 7.15272 22.0062 6.66529C22.0062 6.24693 21.8481 6.08756 21.4284 6.08756H7.74875C7.31312 6.08756 7.16305 6.24428 7.16039 6.68389C7.16039 7.1899 7.16039 7.69592 7.16039 8.20061C7.16039 8.356 7.1232 8.41178 6.95984 8.40647C6.6225 8.39451 6.28516 8.39717 5.94914 8.40647C5.81633 8.40647 5.75391 8.38123 5.75391 8.22451C5.75922 6.18363 5.75922 4.1423 5.75391 2.10053C5.75391 1.86412 5.88672 1.90264 6.01953 1.90264L14.5886 1.896ZM14.6085 4.68506H10.0836C9.46734 4.68506 9.48328 4.68506 9.46203 5.31459C9.45406 5.57092 9.53375 5.6174 9.77414 5.6174C12.8554 5.60811 15.938 5.6174 19.0205 5.6174C19.6979 5.6174 19.6846 5.6174 19.6966 4.92678C19.6966 4.71959 19.6288 4.68639 19.4416 4.68639C17.8305 4.68506 16.2195 4.68506 14.6085 4.68506ZM14.5886 3.28654H11.5246C10.8605 3.28654 10.8752 3.28654 10.8605 3.95061C10.8605 4.17772 10.9256 4.22553 11.1408 4.2242C13.295 4.21623 15.4505 4.2242 17.6048 4.2242C18.298 4.2242 18.2901 4.2242 18.2954 3.52428C18.2954 3.32107 18.2356 3.28123 18.0444 3.28256C16.8929 3.28522 15.7414 3.2799 14.5886 3.2799V3.28654Z" fill="#CCCCCC"/>
<path id="Vector_4" d="M14.5807 27.8927C11.7332 27.8927 8.88572 27.8927 6.03822 27.8927C5.83501 27.8927 5.74869 27.8674 5.75002 27.627C5.76197 25.6349 5.75931 23.636 5.75002 21.6412C5.75002 21.4367 5.78853 21.3596 6.00767 21.3756C6.31732 21.3929 6.62771 21.3929 6.93736 21.3756C7.10869 21.3676 7.16447 21.4167 7.15916 21.5934C7.1472 22.0888 7.15916 22.5855 7.15916 23.0822C7.15916 23.5524 7.31056 23.7064 7.78205 23.7064C8.99064 23.7064 10.1992 23.7064 11.4078 23.7064H21.2718C21.896 23.7064 22.0076 23.5935 22.0089 22.9706C22.0089 22.5018 22.0089 22.041 22.0089 21.5655C22.0089 21.4181 22.0514 21.3703 22.2002 21.3756C22.5189 21.3849 22.8377 21.3928 23.1551 21.3756C23.3702 21.3623 23.4207 21.4327 23.4207 21.6412C23.4127 23.5006 23.4207 25.3692 23.4207 27.2339C23.4207 27.89 23.4207 27.89 22.7752 27.89L14.5807 27.8927ZM14.6086 24.1739H10.0571C9.46877 24.1739 9.48736 24.1739 9.4608 24.7729C9.44884 25.0598 9.54845 25.0996 9.80478 25.0983C12.8843 25.0903 15.9646 25.0903 19.0459 25.0983C19.694 25.0983 19.6807 25.0983 19.6967 24.4422C19.6967 24.2045 19.6143 24.1766 19.4111 24.1766C17.8107 24.1832 16.209 24.1792 14.6086 24.1792V24.1739ZM14.5608 26.4888H17.65C18.2942 26.4888 18.2849 26.4888 18.2968 25.8367C18.2968 25.6189 18.245 25.5592 18.0232 25.5605C15.8624 25.5698 13.7002 25.5605 11.538 25.5671C11.3242 25.5671 11.0373 25.4954 10.9151 25.6043C10.7703 25.7371 10.8925 26.028 10.8646 26.2485C10.8407 26.4463 10.9111 26.4955 11.1077 26.4942C12.2592 26.4888 13.4106 26.4942 14.5608 26.4942V26.4888Z" fill="#CCCCCC"/>
<path id="Vector_5" d="M14.5644 8.38786C12.4952 8.38786 10.426 8.38786 8.35807 8.38786C8.14557 8.38786 8.05924 8.34669 8.07651 8.12224C8.09908 7.84201 8.09908 7.56043 8.07651 7.28021C8.05791 7.03583 8.15221 6.99333 8.37666 6.99466C11.9059 7.00086 15.4352 7.00086 18.9645 6.99466C19.5914 6.99466 20.2196 7.00263 20.8464 6.99466C21.031 6.99466 21.0921 7.0438 21.0828 7.22841C21.0662 7.51859 21.0662 7.80948 21.0828 8.09966C21.1001 8.3281 21.0377 8.39583 20.7973 8.3945C18.7201 8.38255 16.6429 8.38786 14.5644 8.38786Z" fill="#FCFCFC"/>
<path id="Vector_6" d="M14.5743 22.7794C12.5051 22.7794 10.4372 22.7794 8.368 22.7794C8.13823 22.7794 8.05456 22.7316 8.07448 22.4912C8.09905 22.2204 8.09905 21.9479 8.07448 21.677C8.04659 21.4114 8.15948 21.3769 8.39057 21.3782C9.7851 21.3888 11.1796 21.3782 12.5755 21.3782C15.3088 21.3782 18.0421 21.3782 20.7753 21.3782C21.0237 21.3782 21.1034 21.4353 21.0835 21.6863C21.0649 21.976 21.0649 22.2666 21.0835 22.5563C21.0914 22.7263 21.0449 22.7807 20.8683 22.7781C20.2786 22.7661 19.6889 22.7781 19.0992 22.7781L14.5743 22.7794Z" fill="#FCFCFC"/>
<path id="Vector_7" d="M2.125 8.39048C3.02281 7.76228 3.85156 7.18189 4.68297 6.59884C4.80516 6.51251 4.83703 6.54439 4.8357 6.68384C4.8357 7.19783 4.82906 7.71181 4.8357 8.2258C4.8357 8.37056 4.77727 8.39314 4.65242 8.39314C3.84094 8.38915 3.02813 8.39048 2.125 8.39048Z" fill="#669966"/>
<path id="Vector_8" d="M27.0376 8.39046C26.1305 8.39046 25.311 8.39046 24.4903 8.39046C24.3734 8.39046 24.3229 8.36124 24.3242 8.23374C24.3242 7.67593 24.3242 7.11812 24.3242 6.4939L27.0376 8.39046Z" fill="#669966"/>
<path id="Vector_9" d="M16.9464 19.07C16.5055 19.07 16.0659 19.07 15.6249 19.07C15.2663 19.07 15.0405 18.8801 15.0445 18.5972C15.0485 18.3143 15.2597 18.1403 15.6103 18.1363C16.443 18.1284 17.2771 18.1363 18.1112 18.1363C18.6132 18.1363 18.7473 18.0035 18.7487 17.5081C18.7487 16.9928 18.7487 16.4775 18.7487 15.9622C18.7487 15.508 18.5986 15.3645 18.1364 15.3632C17.6052 15.3632 17.0739 15.3632 16.5347 15.3632C15.6409 15.3552 15.0525 14.7802 15.0379 13.8903C15.029 13.3192 15.029 12.7481 15.0379 12.177C15.0538 11.3151 15.6276 10.7294 16.4895 10.7161C17.3515 10.7028 18.2307 10.7161 19.102 10.7161C19.3304 10.7161 19.5323 10.7745 19.6332 11.0043C19.7846 11.3403 19.5442 11.6498 19.1139 11.6538C18.4671 11.6617 17.8216 11.6538 17.1748 11.6538C16.9411 11.6538 16.706 11.6538 16.4723 11.6538C16.1522 11.6644 15.9822 11.8251 15.9769 12.1399C15.9689 12.7384 15.9689 13.3378 15.9769 13.9381C15.9769 14.2516 16.1522 14.4163 16.4736 14.4216C17.0048 14.4295 17.5361 14.4216 18.0753 14.4216C19.1285 14.4216 19.685 14.982 19.6863 16.0379C19.6863 16.5439 19.6863 17.0486 19.6863 17.5546C19.6863 18.4843 19.102 19.066 18.1802 19.0713C17.7698 19.0727 17.3581 19.07 16.9464 19.07Z" fill="black"/>
<path id="Vector_10" d="M22.4732 15.9303L21.4917 17.8946C21.3589 18.1536 21.2328 18.4139 21.1013 18.6715C20.9207 19.0275 20.6816 19.1457 20.4173 19.0142C20.153 18.8827 20.0919 18.6157 20.2659 18.2664C20.7746 17.2438 21.2792 16.2198 21.8025 15.2118C21.8602 15.1193 21.8913 15.0128 21.8925 14.9039C21.8937 14.795 21.8648 14.6878 21.8092 14.5942C21.2952 13.5954 20.8011 12.5874 20.3004 11.582C20.2576 11.4989 20.2199 11.4133 20.1875 11.3257C20.154 11.2256 20.1565 11.1169 20.1945 11.0185C20.2326 10.92 20.3038 10.838 20.396 10.7864C20.4881 10.7349 20.5953 10.7172 20.6991 10.7364C20.803 10.7556 20.8968 10.8104 20.9645 10.8914C21.0279 10.9731 21.081 11.0623 21.1225 11.157C21.5254 11.9592 21.9274 12.7623 22.3285 13.5662C22.3696 13.6486 22.4148 13.7296 22.4772 13.8478C22.7428 13.3165 22.9939 12.8172 23.2435 12.3191C23.4534 11.9007 23.6592 11.4797 23.8731 11.064C24.0325 10.7559 24.2835 10.651 24.5371 10.7732C24.7908 10.8954 24.8572 11.1716 24.7045 11.4744C24.1732 12.5369 23.642 13.5994 23.1107 14.6619C23.0683 14.7323 23.0459 14.8129 23.0459 14.895C23.0459 14.9771 23.0683 15.0577 23.1107 15.1281C23.6327 16.1534 24.1427 17.1854 24.654 18.2173C24.7061 18.3163 24.7462 18.421 24.7735 18.5294C24.7991 18.6257 24.7891 18.7279 24.7455 18.8174C24.7018 18.9069 24.6274 18.9777 24.5358 19.0168C24.4537 19.0645 24.3579 19.0829 24.264 19.0689C24.1701 19.0549 24.0838 19.0094 24.0192 18.9398C23.9289 18.8439 23.8577 18.7317 23.8093 18.6091L22.4732 15.9303Z" fill="black"/>
<path id="Vector_11" d="M6.66933 13.8118C6.74344 13.7456 6.79847 13.6608 6.82871 13.5661L8.09839 11.0308C8.20464 10.8209 8.36402 10.6894 8.61371 10.7279C8.71258 10.74 8.80454 10.785 8.87485 10.8555C8.94516 10.9261 8.98977 11.0182 9.00152 11.1171C9.01131 11.2682 8.96914 11.4182 8.88199 11.5421C8.36402 12.5807 7.84738 13.6193 7.32144 14.6526C7.27944 14.7228 7.25725 14.8031 7.25725 14.885C7.25725 14.9668 7.27944 15.0471 7.32144 15.1174C7.84074 16.1347 8.34675 17.1587 8.85543 18.1801C8.90791 18.2795 8.95232 18.383 8.98824 18.4895C9.02152 18.5888 9.01638 18.6969 8.97385 18.7925C8.93131 18.8882 8.85446 18.9644 8.75847 19.0061C8.67417 19.0586 8.5736 19.0783 8.47573 19.0617C8.37786 19.0451 8.28946 18.9932 8.22722 18.9158C8.15207 18.8296 8.08906 18.7336 8.03996 18.6303C7.63621 17.8281 7.23334 17.0255 6.83136 16.2224C6.80453 16.1249 6.74498 16.0395 6.66269 15.9807C6.33597 16.6354 6.00925 17.2862 5.68386 17.9383C5.55105 18.204 5.41824 18.4762 5.28543 18.7352C5.12871 19.0327 4.88699 19.1336 4.64261 19.0115C4.39824 18.8893 4.30793 18.6223 4.45933 18.3168C4.99058 17.2543 5.52183 16.1918 6.05308 15.1293C6.09742 15.0551 6.12083 14.9702 6.12083 14.8836C6.12083 14.7971 6.09742 14.7122 6.05308 14.6379C5.5298 13.6113 5.0198 12.5807 4.50847 11.5487C4.44719 11.4439 4.40577 11.3286 4.38629 11.2087C4.37422 11.1147 4.39377 11.0193 4.44186 10.9375C4.48994 10.8558 4.56383 10.7923 4.65191 10.7572C4.74077 10.7116 4.84289 10.6991 4.94015 10.7217C5.0374 10.7443 5.1235 10.8006 5.18316 10.8807C5.25161 10.9695 5.30913 11.0663 5.35449 11.1689C5.79188 12.049 6.23017 12.93 6.66933 13.8118Z" fill="black"/>
<path id="Vector_12" d="M9.46941 14.8837C9.46941 13.7132 9.46941 12.5431 9.46941 11.3735C9.46652 11.2617 9.47858 11.15 9.50527 11.0414C9.52868 10.944 9.58607 10.8581 9.66714 10.7992C9.74821 10.7403 9.84763 10.7122 9.94754 10.72C10.0477 10.7155 10.1461 10.7475 10.2245 10.81C10.3029 10.8725 10.356 10.9614 10.3739 11.06C10.398 11.1789 10.4096 11.3 10.4084 11.4213C10.4084 13.5556 10.4084 15.6899 10.4084 17.8242C10.4084 18.0725 10.4721 18.1416 10.7205 18.1376C11.6011 18.123 12.4803 18.131 13.3608 18.1376C13.4352 18.1376 13.5109 18.1376 13.5853 18.1376C13.9133 18.1615 14.1165 18.3421 14.1165 18.6025C14.1165 18.8628 13.8987 19.0686 13.56 19.07C12.3895 19.07 11.2194 19.07 10.0498 19.07C9.65137 19.07 9.4734 18.8907 9.47207 18.4803C9.46676 17.2796 9.46941 16.0817 9.46941 14.8837Z" fill="black"/>
<path id="Vector_13" d="M14.608 4.68517C16.219 4.68517 17.83 4.68517 19.441 4.68517C19.6283 4.68517 19.6973 4.71837 19.696 4.92556C19.688 5.61485 19.696 5.61618 19.02 5.61618C15.9374 5.61618 12.8548 5.61618 9.77358 5.61618C9.53319 5.61618 9.45351 5.5697 9.46147 5.31337C9.48272 4.68517 9.46147 4.68384 10.083 4.68384L14.608 4.68517Z" fill="black"/>
<path id="Vector_14" d="M14.5904 3.27979C15.7432 3.27979 16.8947 3.27979 18.0435 3.27979C18.2347 3.27979 18.2972 3.3183 18.2945 3.5215C18.2945 4.22143 18.2945 4.22143 17.6039 4.22143C15.4497 4.22143 13.2941 4.22143 11.1399 4.22143C10.9247 4.22143 10.8543 4.17494 10.8597 3.94783C10.8729 3.28377 10.8597 3.28377 11.5237 3.28377L14.5904 3.27979Z" fill="black"/>
<path id="Vector_15" d="M14.6097 24.1792C16.2101 24.1792 17.8118 24.1792 19.4122 24.1792C19.6154 24.1792 19.7044 24.2084 19.6978 24.4448C19.6818 25.1009 19.6978 25.1009 19.047 25.1009C15.9675 25.1009 12.8871 25.1009 9.80588 25.1009C9.54955 25.1009 9.44994 25.0624 9.46189 24.7755C9.48845 24.1778 9.46986 24.1765 10.0582 24.1765L14.6097 24.1792Z" fill="black"/>
<path id="Vector_16" d="M14.5618 26.4942C13.4116 26.4942 12.2601 26.4942 11.1086 26.4942C10.9121 26.4942 10.843 26.4463 10.8656 26.2484C10.8935 26.028 10.7713 25.7331 10.9161 25.6043C11.0382 25.4954 11.3251 25.5671 11.5389 25.5671C13.7011 25.5671 15.8633 25.5671 18.0242 25.5605C18.246 25.5605 18.3031 25.6189 18.2978 25.8367C18.2858 26.4888 18.2978 26.4888 17.651 26.4888L14.5618 26.4942Z" fill="black"/>
<g id="Capa_1">
<g id="1704046157808">
<path id="Vector_17" d="M20.4165 33.3726C25.1424 33.3726 28.9736 29.5385 28.9736 24.8089C28.9736 20.0792 25.1424 16.2451 20.4165 16.2451C15.6905 16.2451 11.8594 20.0792 11.8594 24.8089C11.8594 29.5385 15.6905 33.3726 20.4165 33.3726Z" fill="#B7E546"/>
<path id="Vector_18" fill-rule="evenodd" clip-rule="evenodd" d="M20.4153 16.2397C22.1094 16.2395 23.7655 16.7416 25.1742 17.6826C26.5829 18.6236 27.6809 19.9612 28.3294 21.5262C28.9778 23.0912 29.1476 24.8134 28.8173 26.475C28.487 28.1365 27.6713 29.6628 26.4735 30.8608C25.2757 32.0588 23.7496 32.8746 22.0881 33.2052C20.4266 33.5358 18.7044 33.3663 17.1392 32.7181C15.5741 32.0698 14.2363 30.972 13.2951 29.5635C12.3539 28.1549 11.8516 26.4989 11.8516 24.8048C11.8516 22.5335 12.7538 20.3551 14.3597 18.7489C15.9657 17.1426 18.1439 16.2401 20.4153 16.2397ZM20.4153 17.099C21.9411 17.0988 23.4326 17.551 24.7013 18.3985C25.9701 19.246 26.959 20.4507 27.543 21.8603C28.127 23.2698 28.2798 24.8209 27.9822 26.3173C27.6846 27.8138 26.95 29.1884 25.8711 30.2672C24.7922 31.3461 23.4176 32.0808 21.9212 32.3784C20.4247 32.676 18.8737 32.5231 17.4641 31.9391C16.0545 31.3551 14.8498 30.3662 14.0023 29.0975C13.1548 27.8288 12.7026 26.3372 12.7029 24.8115C12.7039 22.7667 13.517 20.806 14.9632 19.3605C16.4095 17.915 18.3705 17.103 20.4153 17.103V17.099Z" fill="black"/>
<path id="Vector_19" fill-rule="evenodd" clip-rule="evenodd" d="M27.397 18.6929L27.9694 18.2028C28.1567 18.0222 28.3678 17.8867 28.5644 17.7061C28.83 17.4564 30.0559 16.4178 30.3268 16.3049C30.3744 16.2826 30.4249 16.2674 30.4769 16.2598H30.9059C31.0668 16.2982 31.2177 16.3703 31.3488 16.4713C31.4799 16.5722 31.5881 16.6998 31.6664 16.8455C31.7446 16.9913 31.7912 17.152 31.803 17.317C31.8147 17.482 31.7914 17.6477 31.7346 17.803C31.6523 18.0142 30.793 18.9559 30.5393 19.2348L29.7783 20.0555C29.6056 20.2734 29.4702 20.4022 29.2962 20.6134L28.5431 21.4421L28.3559 21.6599C28.3399 21.6679 28.3253 21.6825 28.3027 21.6971L28.3107 21.713L27.7383 22.3771C27.7303 22.3705 27.7303 22.3625 27.7224 22.3545L27.0224 23.1315C26.6001 23.5379 25.2959 25.1117 24.8974 25.5035C24.6528 25.7567 24.4219 26.0227 24.2055 26.3004L22.0579 28.691C21.9251 28.8424 21.8321 28.9168 21.7046 29.0748C21.5771 29.2329 21.4788 29.3086 21.35 29.46C21.1388 29.7084 20.8387 29.9713 20.3034 29.9116C19.6394 29.8359 19.2795 29.1054 18.7588 28.428L16.8158 25.8741C16.582 25.5646 16.2354 25.3242 16.4997 24.8793C16.8012 24.7465 16.9207 24.8116 17.0867 25.0121C17.2195 25.1622 17.3205 25.3202 17.448 25.4862C17.7136 25.8329 17.9301 26.1264 18.1944 26.473C18.4427 26.7971 18.6991 27.1371 18.9395 27.4598C19.1506 27.7255 19.4893 28.2275 19.6925 28.4161C19.8134 28.6724 20.2809 29.4866 20.7245 29.0416C21.0485 28.7176 21.3195 28.3869 21.6143 28.0469C21.6887 27.9566 21.7564 27.9141 21.8321 27.8291C21.9078 27.7441 21.9649 27.6551 22.0579 27.5634C22.2465 27.3669 22.3448 27.2314 22.5028 27.0654C23.3236 26.1995 24.4459 24.8288 25.1923 24.0758L29.6428 19.0887C29.7265 18.9917 29.7756 18.9559 29.862 18.8629L30.5473 18.066C30.6974 17.8934 30.878 17.7725 30.9922 17.5693C31.0238 17.5191 31.0426 17.462 31.0469 17.4029C31.0513 17.3438 31.0411 17.2845 31.0173 17.2302C30.9934 17.176 30.9566 17.1284 30.9101 17.0916C30.8636 17.0549 30.8088 17.0301 30.7505 17.0195C30.4849 16.9743 30.3135 17.2147 30.1634 17.3355L28.6467 18.6305C28.4741 18.7633 28.2855 18.9173 28.1341 19.0528C27.9534 19.2109 27.7582 19.3543 27.6028 19.5123C27.4596 19.6156 27.3238 19.7287 27.1964 19.851C27.0238 20.0091 26.956 20.0542 26.7674 20.2123L24.2028 22.3758C23.6224 22.842 23.0952 23.34 22.5081 23.7916C21.2119 24.8009 20.7816 25.7731 19.5624 24.8541L16.8357 22.8353C16.505 22.5936 15.6842 21.8937 15.4199 21.9309C15.3675 21.9381 15.3174 21.9571 15.2734 21.9865C15.2293 22.0158 15.1925 22.0548 15.1657 22.1004C15.1389 22.146 15.1227 22.1971 15.1184 22.2499C15.1142 22.3026 15.1219 22.3557 15.141 22.405C15.2924 22.9362 16.6484 23.8288 15.9924 24.2963C15.5554 24.4012 15.4611 24.0851 15.1264 23.6561C14.9378 23.4077 14.6138 23.0465 14.4783 22.7742C14.3867 22.5861 14.3506 22.3759 14.3742 22.168C14.3978 21.9602 14.4801 21.7634 14.6115 21.6006C14.7429 21.4378 14.918 21.3159 15.1162 21.249C15.3144 21.1821 15.5276 21.1731 15.7307 21.223C16.0774 21.3053 19.136 23.6415 19.7682 24.1077C20.2729 24.4848 20.3486 24.6655 20.7696 24.3042L25.1166 20.6359L25.3822 20.4168C25.5934 20.2282 25.9134 19.9958 26.1127 19.7846L27.3863 18.6929H27.397Z" fill="black"/>
<path id="Vector_20" fill-rule="evenodd" clip-rule="evenodd" d="M15.9993 24.304C16.1321 24.3412 16.083 24.3266 16.1733 24.409C16.211 24.451 16.246 24.4954 16.2782 24.5418C16.3628 24.6476 16.4409 24.7585 16.512 24.8738C16.8135 24.741 16.933 24.8061 17.099 25.0066C17.2318 25.158 17.3328 25.3161 17.4603 25.4808C17.7259 25.8274 17.9424 26.1209 18.2067 26.4675C18.455 26.7916 18.7114 27.1316 18.9517 27.4543C19.1629 27.72 19.5016 28.2233 19.7048 28.4119C19.9385 28.2605 20.0222 28.0653 20.2095 27.8807C20.2942 27.7983 20.3723 27.7095 20.4432 27.615C20.5415 27.4955 20.6013 27.457 20.7089 27.3375L27.6151 19.5932C27.6377 19.4962 27.6536 19.5932 27.6151 19.5188C27.4709 19.6213 27.3346 19.7345 27.2074 19.8575C27.0347 20.0155 26.967 20.0607 26.7784 20.2187L24.2098 22.3875C23.6307 22.855 23.1035 23.3518 22.5151 23.8047C21.2202 24.814 20.7885 25.7849 19.5707 24.8672L16.844 22.8484C16.512 22.608 15.6912 21.9081 15.4269 21.9453C15.3745 21.9525 15.3244 21.9715 15.2804 22.0008C15.2364 22.0302 15.1996 22.0692 15.1729 22.1149C15.1461 22.1605 15.1301 22.2117 15.126 22.2644C15.122 22.3172 15.1299 22.3702 15.1493 22.4194C15.2994 22.9507 16.6554 23.8432 15.9993 24.3107V24.304Z" fill="#668C04"/>
<path id="Vector_21" fill-rule="evenodd" clip-rule="evenodd" d="M27.6094 19.5135C27.6479 19.5878 27.6399 19.4909 27.6173 19.5878L20.7111 27.3321C20.6171 27.4193 20.5284 27.512 20.4455 27.6097C20.3761 27.7054 20.2978 27.7944 20.2117 27.8753C20.0165 28.0639 19.9328 28.2592 19.707 28.4066C19.8279 28.6616 20.2954 29.4757 20.739 29.0308C21.063 28.7067 21.334 28.376 21.6275 28.0374C21.7032 27.9471 21.7709 27.9046 21.8466 27.8182C21.9223 27.7319 21.9795 27.6456 22.0724 27.5526C22.261 27.3574 22.358 27.2206 22.5173 27.0559C23.3381 26.1899 24.4604 24.818 25.2055 24.0649L29.6573 19.0792C29.7397 18.9809 29.7902 18.9463 29.8765 18.8534L30.5618 18.0565C30.7119 17.8838 30.8925 17.763 31.0054 17.5598C31.037 17.5097 31.0558 17.4527 31.0602 17.3936C31.0647 17.3346 31.0546 17.2754 31.0309 17.2212C31.0072 17.1669 30.9706 17.1193 30.9242 17.0825C30.8779 17.0457 30.8232 17.0208 30.765 17.0099C30.4994 16.9648 30.328 17.2065 30.1766 17.326L28.6559 18.6223C28.482 18.7551 28.2947 18.9078 28.1433 19.0433C27.9627 19.2013 27.7674 19.3448 27.612 19.5028L27.6094 19.5135Z" fill="#4C6902"/>
</g>
</g>
</g>
</svg>
