<svg width="34" height="34" viewBox="0 0 34 34" fill="none" xmlns="http://www.w3.org/2000/svg">
<g id="Ayudar">
<path id="Vector" d="M7.6402 1.49787C7.43567 1.18045 7.60567 0.945371 7.81285 0.718262H8.19801C8.88598 1.38232 9.48231 2.11545 10.1158 2.82201C11.4599 4.32014 12.796 5.82535 14.1241 7.33764C14.2768 7.51029 14.3512 7.5249 14.5398 7.3735C14.9124 7.06803 15.383 6.90792 15.8645 6.92282C16.3461 6.93771 16.8059 7.1266 17.1589 7.45451C18.0381 8.28326 18.8854 9.15318 19.7182 10.0231C20.114 10.4609 20.4132 10.9773 20.5961 11.5385C20.9825 12.601 21.3743 13.6635 21.7542 14.726C21.7807 14.82 21.8305 14.9058 21.899 14.9755C21.9675 15.0451 22.0524 15.0964 22.146 15.1244C23.2231 15.5003 24.2909 15.9014 25.364 16.2919C26.0601 16.5428 26.6909 16.9468 27.2101 17.4739C27.918 18.1884 28.61 18.9215 29.3484 19.5989C30.5782 20.7358 30.1453 22.708 28.5874 23.1848C28.5416 23.2068 28.4973 23.2317 28.4546 23.2592C28.6458 23.4305 28.8264 23.5793 28.9925 23.7453C30.3498 25.0973 31.7049 26.4516 33.0579 27.808C33.1694 27.9209 33.2996 28.0232 33.3235 28.1945C33.344 28.2839 33.3381 28.3773 33.3065 28.4633C33.2749 28.5494 33.219 28.6244 33.1455 28.6793C32.9197 28.8546 32.7032 28.7616 32.4814 28.654C32.0139 28.1002 31.4681 27.6221 30.9661 27.1015C30.7961 26.9262 30.6261 26.6526 30.4348 26.626C30.1997 26.5954 30.0603 26.9248 29.8757 27.0935C29.5715 27.3737 29.448 27.4003 29.0788 27.209C28.8782 26.8478 28.8968 26.7083 29.1811 26.4122C29.2947 26.2839 29.4167 26.1632 29.5463 26.0509C29.7282 25.9088 29.7017 25.8158 29.5463 25.6591C28.266 24.3947 26.9976 23.1211 25.7239 21.8501C25.6602 21.785 25.5911 21.7239 25.4743 21.6137V21.9829C25.4743 24.0282 25.4743 26.0731 25.4743 28.1175C25.4958 28.5373 25.3823 28.953 25.1502 29.3035C25.0639 29.4244 25.0811 29.4934 25.1794 29.5997C25.5779 30.03 25.5779 30.034 25.9763 29.6236C26.0281 29.5704 26.0732 29.5107 26.1211 29.4549L26.1941 29.3752V29.3845L27.3496 28.249C27.6497 27.9541 27.7971 27.9355 28.1624 28.1454C28.355 28.4495 28.2832 28.6979 28.0296 28.9422C27.5236 29.4337 27.0414 29.949 26.5314 30.4337C26.3296 30.625 26.2977 30.7352 26.5195 30.9477C27.1676 31.564 27.7892 32.2108 28.4214 32.8443C28.5648 33.1099 28.5475 33.349 28.2979 33.5243C28.0482 33.6996 27.8171 33.604 27.6139 33.4008C26.5514 32.3303 25.4849 31.2616 24.4144 30.1947C24.3659 30.1352 24.3012 30.0911 24.2281 30.0675C24.1551 30.044 24.0768 30.042 24.0027 30.0619C23.2271 30.1947 22.5856 29.9423 22.1433 29.2809C22.0344 29.1202 21.9707 29.1029 21.7993 29.188C21.407 29.3951 20.9509 29.4461 20.5225 29.3308C20.0941 29.2155 19.7251 28.9424 19.4897 28.5664C19.3768 28.399 19.3078 28.3831 19.1298 28.4721C18.8868 28.5977 18.6183 28.6662 18.3448 28.6723C18.0713 28.6784 17.8 28.622 17.5516 28.5073C17.3032 28.3927 17.0843 28.2228 16.9115 28.0107C16.7387 27.7986 16.6166 27.5499 16.5546 27.2834C16.5081 27.0895 16.4829 27.047 16.277 27.1187C16.003 27.2217 15.708 27.2565 15.4175 27.2201C15.1271 27.1836 14.8498 27.0771 14.6097 26.9097C14.3696 26.7422 14.1738 26.5189 14.0392 26.2589C13.9046 25.9989 13.8353 25.7101 13.8372 25.4174C13.8239 24.7108 13.8266 24.0029 13.8372 23.2924C13.8372 23.0932 13.7828 23.0268 13.5849 23.0387C13.3193 23.0522 13.0531 23.0487 12.788 23.0281C11.5024 22.9232 10.7573 21.7398 11.2089 20.5299C11.2235 20.4914 11.2354 20.4515 11.2633 20.3705C11.0721 20.3705 10.8968 20.3705 10.7214 20.3705C10.4351 20.3687 10.1532 20.2987 9.89919 20.1665C9.64516 20.0343 9.42621 19.8435 9.26041 19.61C9.09461 19.3765 8.98672 19.1069 8.94563 18.8235C8.90454 18.54 8.93144 18.2509 9.0241 17.9799C9.09316 17.7754 9.10512 17.705 8.84746 17.6705C7.78496 17.527 7.10496 16.4287 7.40379 15.398C7.43699 15.2865 7.47285 15.1762 7.51137 15.0501C7.06558 15.0659 6.62736 14.9317 6.26692 14.6689C6.02686 14.4958 5.83531 14.264 5.71065 13.9956C5.58599 13.7272 5.53241 13.4313 5.55504 13.1362C5.56601 13.0536 5.5551 12.9695 5.52341 12.8923C5.49171 12.8152 5.44034 12.7477 5.37442 12.6966C5.10879 12.4669 4.85379 12.2172 4.59746 11.9741C4.29731 11.6886 4.27738 11.5624 4.46465 11.1879C4.82059 10.9807 4.95074 10.9926 5.26152 11.2742C5.45809 11.4548 5.65996 11.6341 5.84457 11.8254C5.95746 11.9409 6.03317 11.9834 6.17793 11.8479C6.49798 11.5558 6.91738 11.3967 7.35067 11.403C8.05723 11.3951 8.76379 11.3844 9.47567 11.403C9.91912 11.4068 10.346 11.5723 10.6761 11.8684C11.0062 12.1645 11.2169 12.5709 11.2686 13.0114C11.3178 13.3753 11.2102 13.7179 11.088 14.0619C13.1346 14.1589 13.557 14.4896 13.7549 16.1657C14.0205 15.8881 14.2742 15.6344 14.5332 15.3794C14.6368 15.2772 14.5823 15.2254 14.5053 15.1537C14.3047 14.9611 14.1068 14.7672 13.9129 14.5666C13.6832 14.3262 13.6699 14.0619 13.8691 13.8561C14.0683 13.6502 14.3379 13.6515 14.581 13.8773C14.7855 14.0659 14.9794 14.2665 15.1773 14.4604C15.2198 14.5015 15.249 14.5706 15.3234 14.5613C15.5479 14.5334 15.8161 14.0301 15.7139 13.8242C15.4147 13.2559 15.0433 12.7287 14.6089 12.2557C14.4801 12.1254 14.4051 11.9514 14.399 11.7683C14.6075 11.2769 14.9754 11.2118 15.3287 11.6115C15.7514 12.0833 16.1243 12.5973 16.4417 13.1455C16.4789 13.2093 16.4749 13.3926 16.6555 13.2637C17.1522 12.9091 17.2425 12.2995 16.8454 11.8373C16.5957 11.5451 16.3328 11.2622 16.0791 10.9714C15.8254 10.6805 15.8135 10.5092 16.0499 10.1745C16.2504 10.0709 16.4868 10.0058 16.6449 10.1838C17.1682 10.7762 17.8402 11.2689 18.0421 12.0923C18.1058 12.3314 17.9637 12.6063 18.1443 12.8215C18.3077 13.0154 18.4976 13.1854 18.6756 13.366C19.1378 14.0752 19.8483 14.3528 20.6678 14.5347C20.2893 13.5094 19.9333 12.5266 19.5614 11.5491C19.4328 11.2071 19.2352 10.8952 18.9811 10.6327C18.1736 9.80795 17.3621 8.98451 16.536 8.17701C16.3501 8.00396 16.1094 7.9016 15.8557 7.88776C15.6021 7.87393 15.3517 7.9495 15.1481 8.10131C15.0153 8.20092 14.9489 8.28193 15.1016 8.42271C15.1596 8.46659 15.208 8.52192 15.2438 8.58526C15.2795 8.6486 15.3019 8.71862 15.3095 8.79096C15.3171 8.8633 15.3097 8.93644 15.2879 9.00583C15.2661 9.07522 15.2303 9.13938 15.1826 9.19436C14.8028 9.40154 14.6646 9.37764 14.3565 9.03232L7.6402 1.49787ZM14.0431 22.0692C14.2425 22.1091 14.4479 22.1091 14.6474 22.0692C14.8503 22.0399 15.0357 21.9377 15.1689 21.7818C15.302 21.6259 15.374 21.4269 15.3712 21.2219C15.3661 21.0113 15.2834 20.81 15.1391 20.6565C14.9947 20.5031 14.7988 20.4084 14.5889 20.3904C14.4296 20.3772 14.2689 20.3904 14.1095 20.3904C13.6911 20.3904 13.2741 20.3719 12.8571 20.3904C12.6456 20.3941 12.4436 20.4788 12.2929 20.6271C12.1421 20.7754 12.054 20.976 12.0469 21.1873C12.0378 21.2943 12.0499 21.4021 12.0825 21.5045C12.1151 21.6068 12.1676 21.7017 12.2369 21.7837C12.3063 21.8658 12.3911 21.9333 12.4866 21.9826C12.582 22.0318 12.6863 22.0617 12.7933 22.0705C13.209 22.111 13.6277 22.1097 14.0431 22.0665V22.0692ZM9.03074 12.3885C8.4629 12.3517 7.89327 12.3517 7.32543 12.3885C7.2151 12.3899 7.10619 12.4137 7.00527 12.4583C6.90435 12.5029 6.8135 12.5675 6.73819 12.6482C6.66288 12.7288 6.60466 12.8239 6.56703 12.9276C6.52941 13.0313 6.51316 13.1416 6.51926 13.2518C6.5196 13.3619 6.54179 13.4709 6.58454 13.5724C6.62729 13.6739 6.68975 13.766 6.76832 13.8432C6.84688 13.9204 6.93997 13.9812 7.04222 14.0222C7.14446 14.0632 7.25381 14.0834 7.36395 14.0819C7.8952 14.0951 8.42645 14.0819 8.96832 14.0819C9.15898 14.0925 9.35008 14.0925 9.54074 14.0819C9.69632 14.069 9.84506 14.0123 9.96966 13.9182C10.0943 13.8242 10.1896 13.6967 10.2446 13.5506C10.3062 13.4136 10.3277 13.2619 10.3068 13.1132C10.2859 12.9645 10.2234 12.8246 10.1264 12.7099C9.83824 12.3367 9.43715 12.3354 9.03074 12.3885ZM11.4825 16.7222C11.6619 16.7514 11.8449 16.7514 12.0243 16.7222C12.2301 16.6955 12.4189 16.5938 12.5544 16.4367C12.69 16.2795 12.7628 16.0779 12.759 15.8705C12.7552 15.663 12.6751 15.4642 12.5339 15.3121C12.3927 15.16 12.2004 15.0653 11.9938 15.0461C11.823 15.0374 11.6519 15.0374 11.4811 15.0461C10.7002 15.0461 9.92059 15.0301 9.13965 15.0461C8.92311 15.0454 8.71505 15.1302 8.56082 15.2822C8.40658 15.4342 8.31866 15.641 8.31621 15.8576C8.30642 15.968 8.31977 16.0792 8.35541 16.1842C8.39105 16.2891 8.44819 16.3855 8.52319 16.4671C8.59818 16.5487 8.68938 16.6138 8.79096 16.6582C8.89253 16.7026 9.00224 16.7253 9.11309 16.7248C9.89402 16.7487 10.6856 16.7275 11.4758 16.7248L11.4825 16.7222ZM12.9607 19.405C13.1519 19.405 13.3445 19.4236 13.5344 19.405C13.7427 19.3887 13.9376 19.296 14.0818 19.1448C14.2259 18.9936 14.3091 18.7944 14.3153 18.5856C14.3216 18.3768 14.2505 18.173 14.1157 18.0134C13.9808 17.8538 13.7918 17.7496 13.5849 17.7209C13.3968 17.6831 13.2032 17.6831 13.0151 17.7209C12.2568 17.7209 11.4984 17.693 10.74 17.709C10.6271 17.7075 10.5149 17.7289 10.4105 17.772C10.306 17.815 10.2114 17.8789 10.1323 17.9596C10.0532 18.0403 9.99132 18.1362 9.95036 18.2415C9.90941 18.3468 9.89024 18.4593 9.89402 18.5722C9.902 18.7996 9.99966 19.0145 10.1657 19.1701C10.3317 19.3256 10.5525 19.4091 10.7799 19.4023C11.4997 19.4276 12.2275 19.4103 12.954 19.4076L12.9607 19.405ZM15.1414 17.8112C15.3114 18.3239 15.3539 18.8352 15.1003 19.3359C15.0219 19.49 15.1268 19.5046 15.2331 19.5537C15.9742 19.9123 16.3965 20.5857 16.3447 21.3108C16.2876 22.121 15.8254 22.7054 15.0166 22.9697C14.8705 23.0175 14.8174 23.0719 14.8187 23.2287C14.828 23.9352 14.8187 24.6418 14.8254 25.3537C14.8254 25.8849 15.2052 26.2833 15.6807 26.2833C16.1561 26.2833 16.5094 25.8995 16.5147 25.3404C16.5147 24.8091 16.5147 24.2699 16.5147 23.7347C16.5036 23.6385 16.518 23.5411 16.5565 23.4523C16.5949 23.3635 16.6561 23.2863 16.7339 23.2287C16.8032 23.1776 16.8858 23.1476 16.9718 23.1421C17.0577 23.1367 17.1434 23.1562 17.2186 23.1981C17.3052 23.2419 17.3767 23.3106 17.4241 23.3953C17.4714 23.48 17.4923 23.5769 17.4843 23.6736C17.4843 24.6909 17.4843 25.7083 17.4843 26.7283C17.4843 27.0417 17.5533 27.3233 17.8123 27.5251C17.9306 27.628 18.0766 27.6937 18.232 27.7141C18.3875 27.7344 18.5455 27.7084 18.6862 27.6394C18.8456 27.5714 18.9801 27.4561 19.0716 27.309C19.1631 27.1619 19.2071 26.9902 19.1975 26.8172C19.1975 25.9832 19.1975 25.1478 19.1975 24.3124C19.1934 24.2481 19.2023 24.1836 19.2237 24.1228C19.2452 24.062 19.2786 24.0062 19.3222 23.9587C19.3657 23.9112 19.4184 23.873 19.4771 23.8463C19.5358 23.8197 19.5993 23.8052 19.6637 23.8037C19.7937 23.8051 19.9181 23.8573 20.0101 23.9491C20.1022 24.0409 20.1547 24.1651 20.1564 24.2951C20.1644 24.3801 20.1564 24.4665 20.1564 24.5515C20.1564 25.5476 20.1564 26.5437 20.1564 27.5384C20.1564 28.0883 20.5549 28.4575 21.0742 28.4229C21.5271 28.3924 21.8392 28.0378 21.8445 27.5251C21.8525 26.7867 21.8445 26.0483 21.8445 25.3085C21.8445 24.9366 22.0371 24.7228 22.3399 24.7281C22.6427 24.7334 22.7994 24.9353 22.8074 25.2965C22.8074 25.3922 22.8074 25.4891 22.8074 25.5847C22.8074 26.4626 22.8007 27.3405 22.8074 28.2184C22.8154 28.8161 23.2058 29.1853 23.7596 29.1335C24.2298 29.0897 24.5167 28.7218 24.518 28.1533C24.518 25.6379 24.518 23.1224 24.518 20.6069C24.518 20.3413 24.5379 20.1102 24.8168 19.9947C25.0957 19.8791 25.2817 20.0332 25.4636 20.2165C26.0365 20.7955 26.612 21.371 27.1902 21.943C27.3066 22.0766 27.4551 22.1783 27.6217 22.2387C27.7883 22.2991 27.9675 22.3162 28.1425 22.2883C28.3524 22.2722 28.5522 22.1918 28.7148 22.058C28.8774 21.9242 28.9947 21.7435 29.0509 21.5406C29.1208 21.3422 29.1307 21.1275 29.0795 20.9235C29.0282 20.7194 28.9181 20.535 28.7627 20.3931C27.9764 19.6055 27.1915 18.8166 26.4 18.0344C26.0314 17.6752 25.5891 17.4006 25.1037 17.2295C23.761 16.7381 22.4209 16.2427 21.0755 15.7579C19.8483 15.3157 18.5414 15.0129 17.7552 13.8189C17.6755 13.698 17.6051 13.6861 17.4896 13.8029C16.451 14.8522 15.4044 15.8934 14.33 16.9679C14.6762 17.1667 14.9575 17.4615 15.1401 17.8165L15.1414 17.8112Z" fill="#040403"/>
<path id="Vector_2" d="M14.4012 11.7722C14.4076 11.9535 14.4815 12.126 14.6084 12.2556C15.0417 12.7297 15.4117 13.2578 15.7095 13.8268C15.8117 14.0313 15.5434 14.536 15.319 14.5639C15.2446 14.5732 15.2154 14.5042 15.1729 14.463C14.9737 14.2691 14.7745 14.0646 14.5766 13.8799C14.3335 13.6542 14.0652 13.6515 13.8647 13.8587C13.6641 14.0659 13.6788 14.3288 13.9085 14.5692C14.1011 14.7698 14.307 14.9677 14.5009 15.1563C14.5779 15.228 14.6337 15.2798 14.5288 15.3821C14.2631 15.6317 14.0227 15.8907 13.7505 16.1683C13.5526 14.4922 13.1302 14.1615 11.0836 14.0646C11.2058 13.7206 11.3134 13.3779 11.2642 13.014C11.2125 12.5736 11.0018 12.1671 10.6717 11.871C10.3415 11.5749 9.91471 11.4094 9.47125 11.4056C8.76602 11.3844 8.05945 11.395 7.34625 11.4056C6.91526 11.4035 6.4995 11.5649 6.18281 11.8572C6.03805 11.99 5.96234 11.9502 5.84945 11.8346C5.66219 11.6434 5.46297 11.4641 5.26641 11.2835C4.95695 11.0019 4.8268 10.9899 4.46953 11.1971L3.5093 10.298C3.69523 9.92744 3.67398 9.79861 3.37648 9.51572L1.50781 7.74002C1.58484 7.65236 1.65656 7.55939 1.73891 7.47439C3.18656 6.02408 4.6351 4.5751 6.08453 3.12744C6.17352 3.03846 6.24258 2.92025 6.38203 2.89502C6.45887 2.95143 6.53207 3.01264 6.60117 3.0783C7.08992 3.62682 7.57469 4.17799 8.06211 4.7265C8.62391 5.34939 9.18836 5.98025 9.7475 6.60846C10.5683 7.53195 11.3873 8.45676 12.2045 9.38291C12.6163 9.85307 13.0147 10.3511 13.4477 10.7947C13.7677 11.1201 13.9948 11.5345 14.4012 11.7722Z" fill="#A8D7FA"/>
<path id="Vector_3" d="M14.402 11.7722C13.9956 11.5345 13.7685 11.1201 13.4484 10.796C13.0155 10.3511 12.617 9.85307 12.2053 9.38292C11.3872 8.45588 10.5682 7.53107 9.74828 6.60846C9.18914 5.98026 8.62469 5.3494 8.06422 4.72651C7.57016 4.17799 7.0907 3.62284 6.60195 3.07831C6.53285 3.01265 6.45966 2.95143 6.38281 2.89502C6.64844 2.47932 7.04687 2.20042 7.37094 1.83252C7.46789 1.72362 7.60469 1.64659 7.63656 1.48987L14.3569 9.03495C14.665 9.38026 14.8031 9.40417 15.183 9.19698L16.0502 10.1771C15.8152 10.5092 15.8191 10.6712 16.0795 10.974C16.3398 11.2768 16.5961 11.5478 16.8458 11.8399C17.2442 12.3021 17.1526 12.9117 16.6559 13.2664C16.4752 13.3992 16.4792 13.2119 16.442 13.1481C16.1257 12.6015 15.7541 12.0888 15.333 11.6181C14.9784 11.2157 14.6092 11.2808 14.402 11.7722Z" fill="#8CC8FA"/>
<path id="Vector_4" d="M28.4341 32.8496C27.8019 32.2161 27.1804 31.5693 26.5322 30.953C26.3104 30.7405 26.3423 30.6303 26.5442 30.439C27.0542 29.9543 27.5363 29.439 28.0423 28.9475C28.292 28.7045 28.3637 28.4561 28.1751 28.1507L28.9481 27.3684C29.6865 28.1799 30.4887 28.9276 31.2604 29.7059C31.2936 29.7404 31.356 29.7458 31.4051 29.7643C30.4799 30.6914 29.5604 31.618 28.6466 32.5441C28.5563 32.6331 28.4341 32.6995 28.4341 32.8496Z" fill="#7CA0AE"/>
<path id="Vector_5" d="M31.3984 29.7657C31.3493 29.7471 31.2869 29.7418 31.2537 29.7073C30.482 28.929 29.6798 28.1813 28.9414 27.3698C28.9441 27.3535 28.9441 27.3369 28.9414 27.3206L29.0862 27.2104C29.4514 27.4016 29.5749 27.3751 29.883 27.0949C30.0677 26.9262 30.2071 26.5968 30.4422 26.6274C30.6388 26.6539 30.8088 26.9275 30.9734 27.1028C31.4755 27.6234 32.0213 28.1016 32.4888 28.6554C32.1498 29.0488 31.7856 29.4197 31.3984 29.7657Z" fill="#688C96"/>
<path id="Vector_6" d="M1.50897 7.74007L3.37897 9.51046C3.67647 9.79335 3.69772 9.92218 3.51179 10.2927C3.16647 10.5026 3.01639 10.4919 2.71491 10.217C2.11814 9.65921 1.52314 9.09918 0.92991 8.53694C0.65366 8.27132 0.597879 8.03757 0.753269 7.81179C0.90866 7.58601 1.15171 7.54749 1.50897 7.74007Z" fill="#040505"/>
<path id="Vector_7" d="M28.1363 22.2857C27.9613 22.3135 27.7821 22.2965 27.6155 22.2361C27.4489 22.1757 27.3004 22.0739 27.184 21.9403C26.6076 21.3666 26.0321 20.7911 25.4574 20.2138C25.2755 20.0305 25.0909 19.8764 24.8106 19.992C24.5304 20.1075 24.5105 20.3439 24.5118 20.6043C24.5118 23.1197 24.5118 25.6352 24.5118 28.1507C24.5118 28.7191 24.2236 29.087 23.7534 29.1308C23.2036 29.1826 22.8091 28.8134 22.8012 28.2157C22.7919 27.3378 22.8012 26.46 22.8012 25.5821C22.8012 25.4864 22.8012 25.3895 22.8012 25.2939C22.7932 24.9326 22.6259 24.7307 22.3337 24.7254C22.0415 24.7201 21.8409 24.9339 21.8383 25.3058C21.8383 26.0456 21.8383 26.784 21.8383 27.5225C21.8383 28.0351 21.5209 28.3897 21.068 28.4203C20.5513 28.4548 20.1555 28.0856 20.1502 27.5357C20.1409 26.5396 20.1502 25.5436 20.1502 24.5488C20.1502 24.4638 20.1502 24.3775 20.1502 24.2925C20.1485 24.1624 20.096 24.0382 20.0039 23.9464C19.9119 23.8546 19.7875 23.8024 19.6575 23.8011C19.5931 23.8025 19.5296 23.817 19.4709 23.8436C19.4122 23.8703 19.3595 23.9085 19.316 23.956C19.2724 24.0035 19.2389 24.0594 19.2175 24.1201C19.1961 24.1809 19.1872 24.2454 19.1913 24.3097C19.1847 25.1451 19.1913 25.9805 19.1913 26.8146C19.2008 26.9875 19.1569 27.1592 19.0654 27.3063C18.9739 27.4534 18.8393 27.5687 18.68 27.6367C18.5392 27.7057 18.3813 27.7317 18.2258 27.7114C18.0704 27.6911 17.9244 27.6253 17.8061 27.5225C17.5471 27.3193 17.4767 27.0377 17.478 26.7256C17.478 25.7082 17.478 24.6909 17.478 23.6709C17.4861 23.5742 17.4652 23.4773 17.4178 23.3926C17.3705 23.3079 17.299 23.2392 17.2124 23.1954C17.1372 23.1535 17.0515 23.1341 16.9656 23.1395C16.8796 23.1449 16.797 23.1749 16.7277 23.226C16.6499 23.2836 16.5887 23.3608 16.5503 23.4496C16.5118 23.5384 16.4974 23.6358 16.5085 23.732C16.5085 24.2632 16.5085 24.8025 16.5085 25.3377C16.5085 25.8968 16.1672 26.2674 15.6745 26.2807C15.1817 26.2939 14.8245 25.8915 14.8191 25.351C14.8112 24.6444 14.8191 23.9378 14.8125 23.226C14.8125 23.0693 14.8643 23.0148 15.0104 22.967C15.8232 22.7014 16.2854 22.1183 16.3385 21.3082C16.3903 20.583 15.968 19.9096 15.2269 19.5511C15.1259 19.5019 15.021 19.4873 15.0941 19.3332C15.3477 18.8325 15.3052 18.3212 15.1352 17.8086C15.5257 17.3384 15.9812 16.9333 16.4102 16.5017C17.0743 15.8376 17.7516 15.7181 18.6295 16.0727C20.1795 16.7009 21.7347 17.3158 23.2873 17.9321C23.9912 18.2123 24.707 18.4633 25.2609 19.0198C26.087 19.8419 26.9091 20.6693 27.7338 21.4914C27.9525 21.7041 28.0941 21.9835 28.1363 22.2857Z" fill="#EDF3F4"/>
<path id="Vector_8" d="M28.1368 22.2857C28.0932 21.9883 27.9533 21.7135 27.7384 21.5034C26.9136 20.6813 26.0915 19.8539 25.2654 19.0318C24.7116 18.4819 23.9957 18.2243 23.2918 17.944C21.7392 17.3238 20.184 16.7089 18.6341 16.0847C17.7562 15.73 17.0841 15.8429 16.4148 16.5136C15.9858 16.9453 15.5302 17.3504 15.1398 17.8205C14.9551 17.4632 14.6704 17.1673 14.3203 16.9692C15.3948 15.8947 16.4453 14.8535 17.4799 13.8043C17.5995 13.6834 17.6698 13.6993 17.7455 13.8202C18.5358 15.0155 19.8427 15.317 21.0659 15.7593C22.4113 16.244 23.7513 16.7394 25.0941 17.2308C25.5794 17.4019 26.0217 17.6765 26.3903 18.0357C27.1872 18.8179 27.9668 19.6068 28.753 20.3944C28.9084 20.5363 29.0186 20.7207 29.0698 20.9248C29.1211 21.1288 29.1111 21.3435 29.0413 21.5419C28.9846 21.7435 28.8675 21.9228 28.7058 22.0558C28.5441 22.1888 28.3455 22.269 28.1368 22.2857Z" fill="#DCEAEE"/>
<path id="Vector_9" d="M29.0872 27.2103L28.9424 27.3206C28.8096 27.3139 28.7459 27.2023 28.6635 27.1213C28.3288 26.792 27.9995 26.4573 27.6674 26.1252C27.5703 26.0174 27.4418 25.9429 27.2999 25.9121C27.1581 25.8814 27.0102 25.896 26.8772 25.9539C26.7321 25.9967 26.6053 26.0864 26.5166 26.209C26.4279 26.3316 26.3824 26.4801 26.3871 26.6313C26.3632 27.5543 26.4708 28.4906 26.2012 29.3911V29.3818L26.1281 29.4615C26.0803 29.5173 26.0352 29.577 25.9834 29.6302C25.5849 30.0406 25.5849 30.0366 25.1865 29.6063C25.0882 29.5 25.0709 29.4309 25.1573 29.3101C25.3893 28.9596 25.5029 28.5439 25.4813 28.1241C25.4813 26.0788 25.4813 24.0339 25.4813 21.9895V21.6202C25.5982 21.7305 25.6673 21.7916 25.731 21.8566C27.0047 23.1277 28.2731 24.4013 29.5534 25.6657C29.7101 25.8224 29.7366 25.9154 29.5534 26.0575C29.4238 26.1698 29.3018 26.2905 29.1881 26.4188C28.9066 26.7096 28.888 26.8491 29.0872 27.2103Z" fill="#FBD230"/>
<path id="Vector_10" d="M16.0487 10.1772L15.1814 9.20103C15.229 9.14605 15.2649 9.08189 15.2867 9.0125C15.3085 8.94311 15.3159 8.86997 15.3083 8.79763C15.3007 8.72529 15.2783 8.65528 15.2426 8.59193C15.2068 8.52859 15.1584 8.47326 15.1004 8.42938C14.9477 8.2886 15.0114 8.20759 15.1469 8.10798C15.3505 7.95617 15.6009 7.8806 15.8545 7.89443C16.1081 7.90827 16.3489 8.01063 16.5348 8.18368C17.3609 8.99118 18.1723 9.81462 18.9798 10.6394C19.234 10.9019 19.4316 11.2138 19.5602 11.5558C19.9321 12.5333 20.288 13.5161 20.6666 14.5414C19.8471 14.3595 19.1366 14.0819 18.6744 13.3727C18.5636 12.9052 18.3468 12.4694 18.0409 12.099C17.8323 11.2756 17.167 10.7828 16.6437 10.1905C16.4856 10.0085 16.2492 10.0736 16.0487 10.1772Z" fill="#FAD130"/>
<path id="Vector_11" d="M12.9538 19.4076C12.2273 19.4076 11.4929 19.4209 10.773 19.4076C10.5457 19.4144 10.3248 19.3309 10.1588 19.1753C9.99282 19.0198 9.89516 18.8049 9.88719 18.5775C9.8834 18.4646 9.90257 18.352 9.94353 18.2467C9.98448 18.1414 10.0464 18.0455 10.1255 17.9648C10.2046 17.8841 10.2992 17.8203 10.4036 17.7772C10.5081 17.7342 10.6202 17.7127 10.7332 17.7142C11.4916 17.6983 12.2499 17.7209 13.0083 17.7262C13.3217 18.3013 13.3934 18.8617 12.9538 19.4076Z" fill="#FCE064"/>
<path id="Vector_12" d="M11.4767 16.7249C10.6798 16.7249 9.89491 16.7488 9.10468 16.7249C8.99384 16.7253 8.88412 16.7026 8.78255 16.6582C8.68097 16.6139 8.58977 16.5488 8.51478 16.4672C8.43978 16.3855 8.38264 16.2892 8.347 16.1842C8.31136 16.0793 8.29801 15.968 8.3078 15.8576C8.31025 15.6411 8.39817 15.4343 8.55241 15.2823C8.70665 15.1303 8.9147 15.0454 9.13124 15.0461C9.91218 15.0368 10.6918 15.0461 11.4727 15.0461C11.6132 15.3035 11.6871 15.5918 11.6878 15.885C11.6885 16.1782 11.6159 16.4669 11.4767 16.7249Z" fill="#FBD230"/>
<path id="Vector_13" d="M26.2031 29.3885C26.4688 28.4827 26.3652 27.5517 26.3891 26.6286C26.3843 26.4774 26.4299 26.3289 26.5186 26.2064C26.6072 26.0838 26.734 25.9941 26.8791 25.9513C27.0122 25.8934 27.1601 25.8788 27.3019 25.9095C27.4437 25.9403 27.5723 26.0148 27.6694 26.1226C27.9961 26.46 28.3334 26.7867 28.6655 27.1187C28.7478 27.1997 28.8102 27.3113 28.9444 27.3179C28.947 27.3342 28.947 27.3508 28.9444 27.3671L28.1714 28.1493C27.8062 27.9395 27.6587 27.9581 27.3586 28.2529L26.2031 29.3885Z" fill="#FCE064"/>
<path id="Vector_14" d="M8.96927 14.0698C8.43802 14.0698 7.8988 14.0884 7.3649 14.0698C7.25476 14.0714 7.14541 14.0511 7.04317 14.0102C6.94092 13.9692 6.84783 13.9083 6.76927 13.8311C6.6907 13.7539 6.62824 13.6619 6.58549 13.5604C6.54274 13.4589 6.52055 13.3499 6.52021 13.2398C6.51576 13.1306 6.53324 13.0216 6.57161 12.9193C6.60998 12.8169 6.66847 12.7233 6.74361 12.644C6.81876 12.5646 6.90905 12.5011 7.00914 12.4572C7.10923 12.4133 7.2171 12.3899 7.32638 12.3884C7.89422 12.3516 8.46385 12.3516 9.03169 12.3884C9.28536 12.9595 9.36638 13.5227 8.96927 14.0698Z" fill="#FCE064"/>
<path id="Vector_15" d="M14.0421 22.0666C13.6265 22.1084 13.2079 22.1084 12.7923 22.0666C12.6853 22.0577 12.581 22.0278 12.4856 21.9786C12.3901 21.9294 12.3052 21.8619 12.2359 21.7798C12.1666 21.6978 12.1141 21.6029 12.0815 21.5005C12.0489 21.3982 12.0368 21.2904 12.0459 21.1834C12.053 20.972 12.1411 20.7715 12.2918 20.6232C12.4426 20.4749 12.6446 20.3901 12.8561 20.3865C13.2731 20.3732 13.6901 20.3865 14.1085 20.3865C14.1241 20.4682 14.1458 20.5485 14.1736 20.6269C14.2865 20.8557 14.334 21.1112 14.3108 21.3653C14.2876 21.6194 14.1946 21.8621 14.0421 22.0666Z" fill="#FAD130"/>
<path id="Vector_16" d="M8.96875 14.0699C9.36719 13.5227 9.28484 12.9596 9.02453 12.3911C9.43758 12.3354 9.83867 12.3367 10.1269 12.7046C10.2238 12.8193 10.2863 12.9591 10.3073 13.1079C10.3282 13.2566 10.3066 13.4082 10.2451 13.5453C10.1901 13.6914 10.0947 13.8188 9.97009 13.9129C9.84549 14.0069 9.69675 14.0637 9.54117 14.0765C9.35039 14.0849 9.15929 14.0827 8.96875 14.0699Z" fill="#F1CA30"/>
<path id="Vector_17" d="M12.9531 19.4076C13.3927 18.8617 13.321 18.3013 13.0076 17.7315C13.1956 17.6937 13.3893 17.6937 13.5773 17.7315C13.7843 17.7602 13.9733 17.8644 14.1081 18.024C14.2429 18.1836 14.3141 18.3874 14.3078 18.5962C14.3015 18.805 14.2184 19.0042 14.0742 19.1554C13.9301 19.3066 13.7352 19.3993 13.5269 19.4156C13.337 19.4275 13.147 19.4089 12.9531 19.4076Z" fill="#EDC730"/>
<path id="Vector_18" d="M14.043 22.0666C14.1947 21.8627 14.2873 21.621 14.3107 21.368C14.3341 21.115 14.2875 20.8604 14.1758 20.6322C14.148 20.5538 14.1263 20.4735 14.1107 20.3918C14.2701 20.3918 14.4308 20.3732 14.5902 20.3918C14.8 20.4097 14.9959 20.5045 15.1403 20.6579C15.2846 20.8113 15.3673 21.0126 15.3724 21.2232C15.3752 21.4282 15.3033 21.6273 15.1701 21.7832C15.0369 21.9391 14.8515 22.0412 14.6486 22.0706C14.4484 22.1093 14.2426 22.1079 14.043 22.0666Z" fill="#EEBD2B"/>
<path id="Vector_19" d="M11.4766 16.7248C11.6145 16.4684 11.6868 16.1818 11.6868 15.8907C11.6868 15.5996 11.6145 15.313 11.4766 15.0566C11.6473 15.048 11.8184 15.048 11.9892 15.0566C12.1959 15.0758 12.3882 15.1705 12.5293 15.3226C12.6705 15.4747 12.7507 15.6735 12.7545 15.881C12.7582 16.0885 12.6854 16.2901 12.5498 16.4472C12.4143 16.6044 12.2256 16.706 12.0198 16.7327C11.8395 16.7594 11.656 16.7568 11.4766 16.7248Z" fill="#F4C22C"/>
<path id="Vector_20" d="M18.043 12.095C18.3489 12.4654 18.5657 12.9012 18.6765 13.3686C18.4985 13.188 18.3086 13.018 18.1452 12.8241C17.9646 12.609 18.1067 12.334 18.043 12.095Z" fill="#FCE064"/>
</g>
</svg>
