<svg width="32" height="34" viewBox="0 0 32 34" fill="none" xmlns="http://www.w3.org/2000/svg">
<g id="Calendario">
<path id="Vector" d="M21.9955 33.7049C21.6634 33.5548 21.2956 33.5588 20.9476 33.4685C18.2515 32.7606 16.3257 31.135 15.1583 28.6102C15.1338 28.5261 15.0804 28.4533 15.0075 28.4047C14.9346 28.3561 14.8469 28.3348 14.7599 28.3446C11.9841 28.3526 9.20741 28.3526 6.42985 28.3446C5.99556 28.3446 5.89064 28.2689 5.77243 27.885C5.84813 27.4866 5.98626 27.3737 6.41259 27.3737H14.1277C14.6974 27.3737 14.6974 27.3737 14.5845 26.8C14.561 26.706 14.5472 26.6099 14.5434 26.5131C14.5434 26.2475 14.4106 26.2023 14.1675 26.2023C10.5404 26.2116 6.91462 26.2023 3.28751 26.2116C2.71461 26.2276 2.15071 26.0667 1.67251 25.7508C1.62868 25.7215 1.59149 25.6804 1.5304 25.699C1.5204 25.9081 1.5517 26.1171 1.62252 26.3142C1.69334 26.5112 1.80228 26.6924 1.94314 26.8473C2.08399 27.0022 2.25398 27.1278 2.44341 27.217C2.63284 27.3062 2.83798 27.3572 3.04712 27.3671C3.42298 27.3817 3.80017 27.3671 4.17735 27.3671C4.5997 27.3671 4.72189 27.468 4.82548 27.8811C4.74446 28.2131 4.53993 28.3618 4.19329 28.3406C3.66204 28.3087 3.13876 28.3924 2.61681 28.2808C2.05305 28.1704 1.54273 27.8738 1.16773 27.4386C0.792741 27.0034 0.574812 26.4548 0.548917 25.8809C0.514385 25.0747 0.532979 24.2672 0.532979 23.4597C0.532979 20.6733 0.532979 17.8869 0.532979 15.1005C0.532979 14.637 0.61001 14.5334 1.00978 14.4285C1.39892 14.5228 1.49853 14.6436 1.49985 15.0593C1.49985 16.2865 1.49985 17.5124 1.49985 18.7396C1.49985 20.3333 1.49321 21.9271 1.49985 23.5208C1.50649 24.5222 2.19978 25.2328 3.16665 25.2341C6.83582 25.2341 10.505 25.2341 14.1742 25.2341C14.38 25.2341 14.4398 25.1876 14.4398 24.9685C14.4728 23.1712 15.0838 21.4322 16.1823 20.0093C16.2394 19.9336 16.3217 19.8765 16.327 19.7636C15.7254 19.5564 15.5063 19.2549 15.4996 18.6161C15.4996 18.2933 15.4877 17.9706 15.4996 17.6479C15.5042 17.3862 15.612 17.137 15.7996 16.9547C15.9872 16.7723 16.2394 16.6715 16.501 16.6743C16.8663 16.6624 17.2328 16.6624 17.5981 16.6743C17.8373 16.6748 18.0684 16.7613 18.2491 16.9181C18.4298 17.0749 18.5481 17.2915 18.5822 17.5283C18.5995 17.62 18.6127 17.7116 18.6287 17.8072C22.0114 16.0621 25.2255 16.3118 28.324 18.5563V18.2269C28.324 16.0103 28.324 13.7936 28.332 11.5757C28.332 11.2808 28.2563 11.2104 27.9641 11.2104C19.2587 11.2184 10.5537 11.2184 1.84915 11.2104C1.80495 11.2139 1.76054 11.2139 1.71634 11.2104C1.53571 11.1839 1.47462 11.2543 1.47993 11.4402C1.49189 11.9024 1.47993 12.3699 1.48657 12.8281C1.49321 13.1827 1.35376 13.4032 0.99251 13.4696C0.636573 13.3992 0.510401 13.1761 0.511729 12.8215C0.511729 10.3684 0.511729 7.91536 0.511729 5.46232C0.540948 3.88849 1.66587 2.78083 3.26626 2.77552C4.38454 2.77552 5.50415 2.76489 6.62243 2.78216C6.88806 2.78216 6.95579 2.71974 6.95579 2.45146C6.95515 2.0089 7.11642 1.58139 7.4092 1.24952C7.70197 0.917644 8.10604 0.704328 8.54522 0.649777C8.9844 0.595226 9.42837 0.703209 9.79344 0.953372C10.1585 1.20353 10.4195 1.5786 10.5271 2.00786C10.5515 2.10184 10.567 2.19788 10.5736 2.29474C10.6121 2.77685 10.6108 2.77685 11.1128 2.77685C13.6947 2.77685 16.2766 2.77685 18.8584 2.78482C19.1506 2.78482 19.2569 2.74099 19.2635 2.41825C19.264 2.17742 19.3125 1.93911 19.4061 1.71722C19.4998 1.49534 19.6367 1.29433 19.8088 1.12595C19.981 0.957557 20.185 0.82516 20.4089 0.736488C20.6328 0.647817 20.8722 0.604646 21.1129 0.609499C21.3537 0.614352 21.5911 0.66713 21.8113 0.764752C22.0314 0.862373 22.2299 1.00288 22.3952 1.17807C22.5604 1.35326 22.6891 1.55962 22.7737 1.7851C22.8583 2.01057 22.8972 2.25065 22.888 2.4913C22.888 2.74232 22.9624 2.78482 23.1921 2.78349C24.3117 2.77021 25.43 2.77552 26.5496 2.78349C28.1899 2.78349 29.3055 3.89247 29.3068 5.53403C29.3068 10.0966 29.3068 14.6587 29.3068 19.2204C29.3031 19.4427 29.3811 19.6586 29.5259 19.8273C31.4995 22.3508 32.0188 25.1651 30.8979 28.164C29.769 31.1854 27.5205 32.9771 24.3476 33.5973C24.167 33.6332 23.9651 33.5787 23.8057 33.7129L21.9955 33.7049ZM14.8887 8.12786C19.2564 8.12786 23.6246 8.12786 27.9933 8.12786C28.2589 8.12786 28.3452 8.08005 28.3386 7.79982C28.3174 7.01489 28.3386 6.22864 28.3293 5.44372C28.3213 4.46888 27.6506 3.77028 26.6731 3.75302C25.4898 3.7331 24.3064 3.75302 23.1231 3.73974C22.9318 3.73974 22.8747 3.80747 22.8946 3.98278C22.9039 4.05716 22.8946 4.13286 22.8946 4.20857C22.9092 4.43169 22.807 4.69732 22.9398 4.86466C23.0447 4.99747 23.3037 4.89122 23.4923 4.91513C23.5033 4.9144 23.5144 4.9144 23.5255 4.91513C23.6503 4.92851 23.7647 4.99083 23.8436 5.08843C23.9225 5.18602 23.9595 5.31092 23.9465 5.43575C23.9459 5.49539 23.9332 5.55429 23.9093 5.60892C23.8853 5.66355 23.8506 5.71279 23.8072 5.75371C23.7638 5.79462 23.7126 5.82636 23.6567 5.84704C23.6008 5.86771 23.5412 5.87689 23.4817 5.87403C23.3313 5.88532 23.1804 5.88532 23.0301 5.87403C22.9419 5.86061 22.8518 5.87597 22.7731 5.91785C22.6944 5.95972 22.6313 6.02586 22.5931 6.10646C21.941 7.12778 20.5292 7.27388 19.7536 6.35083C19.4402 5.9763 19.152 5.81958 18.6911 5.86739C18.6264 5.87598 18.5605 5.87029 18.4982 5.85073C18.4359 5.83117 18.3787 5.79821 18.3304 5.75417C18.2822 5.71013 18.2442 5.65607 18.2191 5.59579C18.194 5.5355 18.1824 5.47045 18.1851 5.40521C18.1851 5.13294 18.371 4.94568 18.6738 4.90849C18.8598 4.88458 19.1121 5.00677 19.2144 4.83677C19.3007 4.692 19.2409 4.45958 19.2449 4.267C19.2409 4.20243 19.2409 4.13767 19.2449 4.0731C19.2861 3.80747 19.1812 3.73177 18.9116 3.7331C16.3297 3.74372 13.7465 3.73974 11.1646 3.73974C10.5816 3.73974 10.5816 3.73974 10.5816 4.30685C10.5816 4.87396 10.5816 4.86997 11.1301 4.90849C11.1835 4.91149 11.2365 4.91995 11.2881 4.93372C11.4013 4.95513 11.502 5.01912 11.5694 5.1125C11.6369 5.20589 11.666 5.32157 11.6507 5.43575C11.6508 5.55127 11.6059 5.66227 11.5256 5.74531C11.4453 5.82834 11.3359 5.87688 11.2204 5.88068C11.0702 5.89462 10.919 5.89462 10.7688 5.88068C10.5391 5.85411 10.4102 5.93911 10.2801 6.1463C9.62665 7.14107 8.16571 7.26458 7.4286 6.33357C7.13376 5.96169 6.85087 5.81958 6.4179 5.88068C6.3967 5.88266 6.37535 5.88266 6.35415 5.88068C6.06993 5.85677 5.87071 5.66818 5.87868 5.41052C5.87441 5.29007 5.9163 5.17254 5.99579 5.08195C6.07528 4.99135 6.18636 4.93453 6.30634 4.9231C6.44498 4.90406 6.58535 4.90094 6.7247 4.9138C6.88806 4.92575 6.95845 4.87396 6.94782 4.69997C6.93122 4.4745 6.93122 4.2481 6.94782 4.02263C6.96907 3.79021 6.88274 3.73575 6.65962 3.73841C5.53071 3.74903 4.40181 3.73841 3.27024 3.73841C2.18649 3.73841 1.50517 4.42505 1.49853 5.51544C1.49853 6.26849 1.51181 7.02153 1.49056 7.77325C1.48259 8.05614 1.55829 8.12919 1.84384 8.12786C6.19389 8.12255 10.5422 8.12255 14.8887 8.12786ZM22.9451 17.6625C21.4535 17.6596 19.9947 18.0993 18.7532 18.926C17.5117 19.7526 16.5433 20.9291 15.9708 22.3063C15.3982 23.6836 15.2472 25.1998 15.5368 26.663C15.8264 28.1261 16.5436 29.4705 17.5977 30.5258C18.6517 31.5812 19.9951 32.3 21.4579 32.5914C22.9207 32.8828 24.4371 32.7337 25.8151 32.1628C27.1931 31.592 28.3707 30.6251 29.1989 29.3846C30.0271 28.1441 30.4686 26.6858 30.4676 25.1943C30.4662 23.1988 29.6735 21.2852 28.2633 19.8733C26.8531 18.4614 24.9406 17.6663 22.9451 17.6625ZM14.8874 9.10403C10.7135 9.10403 6.53965 9.10403 2.36579 9.10403C2.08954 9.10403 1.73095 8.9845 1.55696 9.15583C1.38298 9.32716 1.53173 9.68708 1.49853 9.96068C1.46532 10.2343 1.5822 10.2741 1.82392 10.2728C10.3965 10.2666 18.9696 10.2635 27.5431 10.2635C28.3333 10.2635 28.32 10.2635 28.3399 9.45732C28.3399 9.17974 28.2828 9.10005 27.9906 9.10005C23.6229 9.10802 19.2551 9.10935 14.8874 9.10403ZM21.9264 3.79153V2.56036C21.9264 2.53911 21.9264 2.51786 21.9264 2.49661C21.9065 1.98794 21.5559 1.61872 21.087 1.61208C20.9735 1.6086 20.8604 1.62836 20.7548 1.67014C20.6491 1.71193 20.5531 1.77486 20.4726 1.85507C20.3922 1.93528 20.3289 2.03109 20.2868 2.13661C20.2447 2.24214 20.2246 2.35515 20.2277 2.46872C20.21 3.35414 20.21 4.23646 20.2277 5.11568C20.2238 5.22925 20.2429 5.34244 20.2838 5.44845C20.3248 5.55445 20.3868 5.65106 20.4661 5.73246C20.5454 5.81387 20.6403 5.87838 20.7452 5.92211C20.8501 5.96584 20.9628 5.98789 21.0764 5.98693C21.5519 5.98693 21.9171 5.60177 21.9264 5.07849C21.9304 4.64818 21.9238 4.21786 21.9251 3.78755L21.9264 3.79153ZM9.61337 3.80747C9.61337 3.37716 9.61337 2.94685 9.61337 2.51653C9.60275 1.97864 9.25212 1.61341 8.76603 1.61607C8.27993 1.61872 7.924 1.98794 7.92001 2.52052C7.9147 3.37052 7.9147 4.22052 7.92001 5.07052C7.92001 5.60177 8.27064 5.97896 8.75407 5.98958C9.23751 6.00021 9.60407 5.62036 9.61337 5.06653C9.61735 4.64286 9.61204 4.22318 9.61204 3.80349L9.61337 3.80747ZM17.0642 17.6412C16.3881 17.6505 16.4532 17.535 16.4545 18.2269C16.4545 18.9415 16.3709 18.8326 17.0695 18.8379C17.448 18.8379 17.6592 18.624 17.6578 18.2442C17.6525 17.5682 17.7428 17.6479 17.0642 17.6412Z" fill="#030202"/>
<path id="Vector_2" d="M1.00781 13.4936C1.36375 13.4271 1.50852 13.2067 1.50187 12.8521C1.49125 12.3899 1.50188 11.9224 1.49523 11.4642C1.49523 11.2782 1.55102 11.2079 1.73164 11.2344C1.77584 11.2379 1.82025 11.2379 1.86445 11.2344C10.569 11.2344 19.274 11.2344 27.9794 11.2344C28.2716 11.2344 28.3486 11.3048 28.3473 11.5996C28.334 13.8176 28.3393 16.0343 28.3393 18.2509V18.5803C25.2421 16.3357 22.028 16.0861 18.644 17.8312C18.628 17.7356 18.6148 17.6439 18.5975 17.5523C18.5634 17.3155 18.4451 17.0989 18.2644 16.9421C18.0837 16.7853 17.8526 16.6987 17.6134 16.6983C17.2481 16.6864 16.8816 16.6864 16.5163 16.6983C16.2547 16.6955 16.0025 16.7962 15.8149 16.9786C15.6273 17.161 15.5195 17.4102 15.5149 17.6718C15.4963 17.9946 15.5056 18.3173 15.5149 18.64C15.5149 19.2789 15.7407 19.5804 16.3423 19.7875C16.3423 19.8951 16.2547 19.9575 16.1976 20.0332C15.0991 21.4562 14.4881 23.1951 14.4551 24.9925C14.4551 25.2063 14.39 25.2581 14.1895 25.2581C10.5203 25.2528 6.85112 25.2528 3.18195 25.2581C2.21508 25.2581 1.5218 24.5462 1.51516 23.5448C1.50586 21.9511 1.51516 20.3573 1.51516 18.7636C1.51516 17.5364 1.51516 16.3105 1.51516 15.0833C1.51516 14.6676 1.41422 14.5521 1.02508 14.4525L1.00781 13.4936ZM27.1719 13.9677C27.1719 13.7844 27.1719 13.6025 27.1719 13.4192C27.1758 13.1581 27.0772 12.906 26.8971 12.7169C26.717 12.5279 26.4699 12.4172 26.209 12.4085C25.8105 12.3912 25.4121 12.3886 25.0137 12.4085C24.7582 12.4214 24.5175 12.532 24.3412 12.7174C24.165 12.9028 24.0667 13.1488 24.0667 13.4046C24.0574 13.7698 24.0588 14.1364 24.0667 14.5016C24.0641 14.6309 24.087 14.7594 24.1341 14.8799C24.1812 15.0003 24.2517 15.1102 24.3414 15.2034C24.4311 15.2965 24.5383 15.3711 24.6568 15.4227C24.7754 15.4744 24.903 15.5021 25.0323 15.5043C25.4188 15.5216 25.8066 15.5216 26.193 15.5043C26.7761 15.4804 27.1573 15.0714 27.1692 14.4817C27.1705 14.3117 27.1679 14.1404 27.1679 13.9677H27.1719ZM10.0523 18.2575C10.0523 18.0849 10.0523 17.9136 10.0523 17.7409C10.0444 17.118 9.65391 16.7076 9.03367 16.693C8.65781 16.685 8.28062 16.6784 7.90477 16.693C7.64921 16.6999 7.40648 16.8064 7.22833 16.9898C7.05019 17.1731 6.95073 17.4188 6.95117 17.6745C6.94187 18.0291 6.95117 18.385 6.95117 18.737C6.95117 19.3519 7.36023 19.7716 7.97117 19.7902C8.32578 19.8008 8.68039 19.8021 9.03367 19.7902C9.64727 19.7716 10.0444 19.3546 10.0523 18.7357C10.055 18.5803 10.0523 18.4182 10.0523 18.2575ZM10.0523 13.9916C10.0523 13.7977 10.0523 13.6038 10.0523 13.4112C10.0545 13.1501 9.95392 12.8986 9.77229 12.711C9.59065 12.5234 9.34253 12.4147 9.08148 12.4085C8.695 12.3912 8.30719 12.3912 7.9207 12.4085C7.65964 12.4164 7.41206 12.5262 7.23088 12.7144C7.04971 12.9025 6.94932 13.154 6.95117 13.4152C6.94409 13.7809 6.94409 14.1466 6.95117 14.5122C6.94904 14.7732 7.0502 15.0243 7.23259 15.211C7.41498 15.3976 7.66377 15.5045 7.92469 15.5083C8.12789 15.5189 8.33375 15.5083 8.53695 15.5163C9.64062 15.5946 10.1466 15.2321 10.0523 13.9916ZM21.3507 15.5096C21.5008 15.5096 21.7053 15.5189 21.9098 15.5096C22.1708 15.5076 22.4203 15.4026 22.6044 15.2176C22.7884 15.0326 22.892 14.7825 22.8927 14.5215C22.9046 14.1457 22.9059 13.7685 22.8927 13.3926C22.8887 13.1366 22.7866 12.8919 22.6074 12.709C22.4282 12.5261 22.1857 12.419 21.9298 12.4098C21.5316 12.3898 21.1326 12.3898 20.7345 12.4098C20.4792 12.4218 20.2385 12.5317 20.0623 12.7168C19.8862 12.9019 19.7882 13.1477 19.7888 13.4032C19.7888 13.6078 19.8008 13.8123 19.7888 14.0155C19.6972 15.2135 20.1926 15.5986 21.3507 15.5096ZM12.7843 20.9709C12.6116 20.9709 12.439 20.9709 12.2677 20.9709C11.6527 20.9855 11.2384 21.3893 11.2238 22.0002C11.2145 22.3548 11.2118 22.7107 11.2238 23.0627C11.2231 23.1953 11.2485 23.3267 11.2987 23.4495C11.3489 23.5722 11.4228 23.6839 11.5162 23.778C11.6096 23.8721 11.7206 23.9469 11.843 23.9981C11.9653 24.0492 12.0965 24.0757 12.2291 24.0761C12.5944 24.0867 12.9596 24.0854 13.3248 24.0761C13.5861 24.0796 13.8381 23.9794 14.0256 23.7974C14.2131 23.6154 14.3207 23.3665 14.3249 23.1052C14.3395 22.7187 14.3382 22.3309 14.3249 21.9444C14.3246 21.8151 14.2985 21.6871 14.2482 21.568C14.1979 21.4489 14.1243 21.341 14.0318 21.2506C13.9393 21.1602 13.8298 21.0892 13.7095 21.0416C13.5893 20.994 13.4608 20.9709 13.3315 20.9736C13.1495 20.9669 12.9662 20.9722 12.7843 20.9709ZM17.0648 15.5043V15.5136C17.2269 15.5136 17.3876 15.5136 17.5483 15.5136C18.2123 15.4964 18.6108 15.1046 18.6241 14.4511C18.632 14.1071 18.6373 13.7618 18.6241 13.4192C18.6252 13.1575 18.524 12.9058 18.3422 12.7177C18.1603 12.5296 17.9121 12.4201 17.6505 12.4125C17.2641 12.3952 16.8763 12.3965 16.4898 12.4125C16.2434 12.4119 16.0062 12.5053 15.8263 12.6736C15.6464 12.8419 15.5374 13.0724 15.5216 13.3182C15.493 13.7578 15.493 14.1988 15.5216 14.6384C15.5404 14.8656 15.6407 15.0783 15.804 15.2375C15.9672 15.3966 16.1825 15.4913 16.4101 15.5043C16.6279 15.5176 16.843 15.5043 17.0648 15.5043ZM2.67594 22.5102C2.67594 22.6829 2.67594 22.8542 2.67594 23.0268C2.68656 23.6604 3.09562 24.0694 3.72914 24.0761C4.07312 24.0761 4.41711 24.0827 4.76109 24.0761C5.02752 24.0785 5.28403 23.9752 5.47428 23.7886C5.66454 23.6021 5.77298 23.3477 5.77578 23.0813C5.78906 22.7054 5.79039 22.3282 5.77578 21.9524C5.77194 21.6913 5.66535 21.4423 5.47914 21.2593C5.29292 21.0764 5.04209 20.9742 4.78102 20.9749C4.39453 20.9643 4.00672 20.9629 3.62023 20.9749C3.37046 20.9813 3.13282 21.084 2.95688 21.2614C2.78095 21.4388 2.6803 21.6773 2.67594 21.9272C2.6693 22.1224 2.67594 22.3163 2.67594 22.5102ZM2.67594 13.969C2.67594 14.1404 2.67594 14.313 2.67594 14.4843C2.68922 15.0913 3.07438 15.4897 3.68266 15.5096C4.05852 15.5216 4.4357 15.5229 4.81156 15.5096C5.06761 15.5048 5.31166 15.4002 5.49175 15.2181C5.67184 15.0361 5.77375 14.7909 5.77578 14.5348C5.79039 14.1589 5.78906 13.7818 5.77578 13.4059C5.77491 13.2737 5.74801 13.143 5.69661 13.0211C5.64522 12.8993 5.57033 12.7888 5.47623 12.696C5.38213 12.6031 5.27066 12.5297 5.14819 12.4799C5.02571 12.4301 4.89463 12.4049 4.76242 12.4058C4.39719 12.3965 4.03195 12.3952 3.66672 12.4058C3.53477 12.4065 3.40427 12.4333 3.28275 12.4848C3.16123 12.5362 3.0511 12.6112 2.95873 12.7054C2.86635 12.7996 2.79357 12.9112 2.74457 13.0337C2.69558 13.1562 2.67135 13.2872 2.67328 13.4192C2.6693 13.6025 2.67461 13.7857 2.67461 13.969H2.67594ZM4.2325 16.6917C4.04922 16.6917 3.86594 16.6917 3.68398 16.6917C3.54921 16.6883 3.41517 16.7126 3.29019 16.7632C3.16521 16.8137 3.05195 16.8894 2.95743 16.9856C2.86291 17.0817 2.78915 17.1962 2.74073 17.322C2.69231 17.4479 2.67025 17.5823 2.67594 17.717C2.67594 18.0716 2.67594 18.4262 2.67594 18.7795C2.66951 19.0406 2.76682 19.2935 2.94656 19.483C3.1263 19.6724 3.3738 19.7829 3.63484 19.7902C4.03298 19.8122 4.43202 19.8122 4.83016 19.7902C5.08537 19.7789 5.32631 19.6693 5.50256 19.4844C5.67882 19.2995 5.77672 19.0535 5.77578 18.7981C5.78906 18.4329 5.78773 18.0663 5.77578 17.7011C5.77701 17.569 5.75204 17.438 5.70232 17.3157C5.65259 17.1934 5.5791 17.0821 5.48609 16.9883C5.39309 16.8946 5.28241 16.8202 5.16048 16.7695C5.03854 16.7188 4.90776 16.6928 4.7757 16.693C4.59641 16.6864 4.41312 16.6917 4.23117 16.6917H4.2325ZM14.3263 18.2629C14.3263 18.0915 14.3263 17.9189 14.3263 17.7475C14.313 17.0981 13.9278 16.7036 13.2837 16.693C12.9397 16.693 12.5944 16.685 12.2517 16.693C12.1172 16.6889 11.9832 16.712 11.8577 16.7609C11.7323 16.8098 11.6181 16.8835 11.5218 16.9777C11.4256 17.0718 11.3494 17.1844 11.2977 17.3087C11.246 17.433 11.22 17.5664 11.2211 17.7011C11.2105 18.0557 11.2118 18.4116 11.2211 18.7636C11.2186 18.8984 11.2432 19.0324 11.2934 19.1575C11.3436 19.2827 11.4184 19.3965 11.5134 19.4922C11.6084 19.5879 11.7216 19.6636 11.8464 19.7148C11.9711 19.766 12.1049 19.7916 12.2398 19.7902C12.605 19.8021 12.9716 19.8048 13.3368 19.7902C13.4688 19.7897 13.5995 19.7629 13.721 19.7113C13.8426 19.6598 13.9527 19.5845 14.0448 19.4899C14.1369 19.3953 14.2092 19.2833 14.2576 19.1604C14.3059 19.0375 14.3293 18.9062 14.3263 18.7742C14.3342 18.6068 14.3289 18.4355 14.3302 18.2629H14.3263ZM10.0523 22.5222C10.0523 22.3508 10.0523 22.1782 10.0523 22.0068C10.0417 21.3906 9.6393 20.9842 9.01906 20.9722C8.66445 20.9722 8.30852 20.9643 7.95656 20.9722C7.82457 20.9701 7.69348 20.9944 7.57104 21.0438C7.44861 21.0932 7.33731 21.1666 7.24371 21.2597C7.15012 21.3528 7.07613 21.4637 7.02611 21.5858C6.97609 21.708 6.95106 21.839 6.9525 21.971C6.94586 22.3362 6.94586 22.7028 6.9525 23.068C6.95099 23.329 7.05154 23.5802 7.23268 23.768C7.41382 23.9558 7.6612 24.0654 7.92203 24.0734C8.30984 24.0867 8.69721 24.0867 9.08414 24.0734C9.34485 24.0658 9.59223 23.9565 9.77341 23.7688C9.95458 23.5812 10.0552 23.3302 10.0537 23.0693C10.0563 22.8887 10.0523 22.7054 10.0523 22.5222ZM14.3302 13.9823C14.3302 13.799 14.3302 13.6157 14.3302 13.4338C14.3345 13.2963 14.3105 13.1594 14.2596 13.0317C14.2086 12.9039 14.1319 12.788 14.0342 12.6912C13.9365 12.5943 13.82 12.5187 13.6917 12.4689C13.5635 12.4191 13.4264 12.3963 13.289 12.4018C12.945 12.4018 12.601 12.3939 12.257 12.4018C12.1241 12.398 11.9916 12.4205 11.8674 12.4681C11.7432 12.5157 11.6296 12.5874 11.5333 12.6792C11.4369 12.7709 11.3597 12.8809 11.3062 13.0027C11.2526 13.1244 11.2237 13.2556 11.2211 13.3886C11.2038 13.7645 11.2052 14.1417 11.2211 14.5175C11.2218 14.7787 11.3253 15.0291 11.5092 15.2146C11.6932 15.4 11.9427 15.5055 12.2039 15.5083C12.5041 15.5216 12.8055 15.515 13.107 15.5083C13.965 15.5083 14.3249 15.1511 14.3263 14.3037L14.3302 13.9823Z" fill="#E8F2F9"/>
<path id="Vector_3" d="M4.82325 27.893C4.71965 27.48 4.59747 27.3817 4.17512 27.379C3.79794 27.379 3.42075 27.3883 3.04489 27.379C2.83505 27.3695 2.62917 27.3186 2.43907 27.2292C2.24898 27.1398 2.07843 27.0138 1.93723 26.8582C1.79603 26.7027 1.68697 26.5208 1.61631 26.323C1.54565 26.1252 1.5148 25.9154 1.52551 25.7056C1.58661 25.687 1.6238 25.7282 1.66762 25.7574C2.14582 26.0733 2.70973 26.2342 3.28262 26.2182C6.90973 26.2182 10.5355 26.2182 14.1626 26.2089C14.4097 26.2089 14.5425 26.2528 14.5385 26.5197C14.5423 26.6165 14.5561 26.7126 14.5797 26.8066C14.6925 27.3803 14.6925 27.3803 14.1228 27.3803H6.41036C5.98403 27.3803 5.8459 27.4932 5.7702 27.8917L4.82325 27.893Z" fill="#E8F2F9"/>
<path id="Vector_4" d="M14.8869 8.12798C10.5404 8.12798 6.19342 8.12798 1.84602 8.12798C1.56048 8.12798 1.48478 8.05626 1.49274 7.77337C1.51399 7.02032 1.49274 6.26728 1.50071 5.51556C1.50735 4.42517 2.18868 3.74118 3.27243 3.73853C4.40267 3.73853 5.53024 3.73853 6.66181 3.73853C6.88493 3.73853 6.97126 3.79032 6.95001 4.02274C6.9334 4.24822 6.9334 4.47461 6.95001 4.70009C6.96063 4.87407 6.89024 4.92587 6.72688 4.91392C6.58753 4.90106 6.44717 4.90418 6.30852 4.92321C6.18831 4.934 6.07676 4.99036 5.99676 5.08073C5.91675 5.17111 5.87434 5.28867 5.87821 5.40931C5.87024 5.66696 6.06946 5.85556 6.35368 5.87946C6.37488 5.88145 6.39623 5.88145 6.41743 5.87946C6.8504 5.81837 7.13329 5.96048 7.42813 6.33235C8.16657 7.26204 9.6222 7.13985 10.273 6.13579C10.4058 5.93524 10.532 5.85024 10.7617 5.87017C10.9134 5.88798 11.0663 5.89154 11.2186 5.88079C11.3339 5.8791 11.444 5.83274 11.5257 5.75148C11.6075 5.67022 11.6545 5.56041 11.6569 5.44517C11.6721 5.33099 11.6431 5.2153 11.5756 5.12191C11.5082 5.02853 11.4075 4.96455 11.2943 4.94313C11.2426 4.92936 11.1897 4.9209 11.1363 4.9179C10.5877 4.87938 10.5877 4.87938 10.5877 4.31626C10.5877 3.75313 10.5877 3.74915 11.1708 3.74915C13.7527 3.74915 16.3359 3.74915 18.9177 3.74251C19.1834 3.74251 19.2923 3.81556 19.2511 4.08251C19.2471 4.14708 19.2471 4.21184 19.2511 4.27642C19.2511 4.46899 19.3069 4.70142 19.2206 4.84618C19.1183 5.01618 18.8659 4.89399 18.68 4.9179C18.3772 4.95509 18.1873 5.14235 18.1913 5.41462C18.1886 5.47987 18.2002 5.54492 18.2253 5.6052C18.2504 5.66548 18.2884 5.71954 18.3366 5.76358C18.3848 5.80763 18.4421 5.84058 18.5044 5.86014C18.5667 5.8797 18.6325 5.88539 18.6973 5.87681C19.1608 5.83431 19.449 5.98571 19.7598 6.36024C20.5354 7.28993 21.9472 7.1372 22.5993 6.11587C22.6368 6.03575 22.6988 5.96972 22.7765 5.92742C22.8542 5.88513 22.9433 5.86879 23.0309 5.88079C23.1813 5.89208 23.3322 5.89208 23.4825 5.88079C23.5421 5.88365 23.6016 5.87447 23.6576 5.85379C23.7135 5.83312 23.7647 5.80138 23.8081 5.76046C23.8515 5.71955 23.8862 5.6703 23.9101 5.61567C23.934 5.56104 23.9467 5.50215 23.9474 5.44251C23.9604 5.31768 23.9234 5.19277 23.8444 5.09518C23.7655 4.99759 23.6511 4.93527 23.5263 4.92188C23.5153 4.92116 23.5042 4.92116 23.4931 4.92188C23.3045 4.89798 23.0456 5.00688 22.9406 4.87142C22.8078 4.70407 22.9101 4.43845 22.8955 4.21532C22.8955 4.13962 22.9021 4.06392 22.8955 3.98954C22.8756 3.81423 22.9327 3.74517 23.1239 3.74649C24.3073 3.75579 25.4906 3.73985 26.674 3.75978C27.6515 3.77704 28.3222 4.47563 28.3302 5.45048C28.3368 6.2354 28.3182 7.02165 28.3395 7.80657C28.3461 8.08681 28.2531 8.13595 27.9942 8.13462C23.6264 8.12665 19.2582 8.12665 14.8895 8.13462L14.8869 8.12798Z" fill="#FD4054"/>
<path id="Vector_5" d="M22.9447 17.6624C24.4361 17.6626 25.8939 18.1053 27.1335 18.9344C28.3732 19.7636 29.339 20.9418 29.9088 22.3201C30.4785 23.6983 30.6266 25.2146 30.3342 26.6771C30.0418 28.1395 29.3222 29.4823 28.2663 30.5356C27.2105 31.5888 25.8659 32.3052 24.4027 32.594C22.9395 32.8827 21.4236 32.7309 20.0468 32.1578C18.6699 31.5846 17.4941 30.6159 16.668 29.3742C15.842 28.1324 15.4029 26.6736 15.4063 25.1822C15.4073 24.1934 15.6032 23.2145 15.9826 22.3014C16.362 21.3883 16.9176 20.5589 17.6177 19.8606C18.3177 19.1623 19.1485 18.6088 20.0625 18.2316C20.9765 17.8544 21.9559 17.661 22.9447 17.6624ZM22.9673 18.8351C21.7071 18.8293 20.4736 19.1976 19.4229 19.8934C18.3721 20.5891 17.5515 21.581 17.0649 22.7434C16.5783 23.9059 16.4475 25.1866 16.6893 26.4233C16.931 27.6601 17.5343 28.7974 18.4228 29.691C19.3112 30.5847 20.4449 31.1947 21.6803 31.4436C22.9156 31.6926 24.197 31.5693 25.3623 31.0895C26.5276 30.6097 27.5242 29.7949 28.2261 28.7483C28.928 27.7016 29.3035 26.4703 29.3051 25.2101C29.3072 23.5251 28.6414 21.908 27.4534 20.7131C26.2654 19.5181 24.6522 18.8428 22.9673 18.8351Z" fill="#4DA8F3"/>
<path id="Vector_6" d="M14.8861 9.10393C19.253 9.10393 23.6203 9.10128 27.9881 9.09596C28.2803 9.09596 28.3427 9.17565 28.3374 9.45323C28.3188 10.2501 28.3374 10.2594 27.5405 10.2594C18.967 10.2594 10.394 10.2629 1.82136 10.27C1.57965 10.27 1.46277 10.2275 1.49597 9.95792C1.52918 9.68831 1.38176 9.32307 1.55441 9.15307C1.72707 8.98307 2.08566 9.10128 2.36324 9.10128C6.53798 9.10128 10.7118 9.10128 14.8848 9.10128L14.8861 9.10393Z" fill="#FD4054"/>
<path id="Vector_7" d="M21.9255 3.78743C21.9255 4.21775 21.9255 4.64806 21.9255 5.07837C21.9162 5.60165 21.5509 5.98548 21.0755 5.98681C20.9618 5.98777 20.8492 5.96572 20.7443 5.92199C20.6394 5.87826 20.5444 5.81375 20.4652 5.73235C20.3859 5.65094 20.3239 5.55433 20.2829 5.44833C20.2419 5.34233 20.2228 5.22913 20.2268 5.11556C20.2109 4.23014 20.2109 3.34782 20.2268 2.4686C20.2237 2.35503 20.2438 2.24202 20.2859 2.1365C20.328 2.03097 20.3912 1.93517 20.4717 1.85495C20.5521 1.77474 20.6482 1.71181 20.7538 1.67002C20.8595 1.62824 20.9725 1.60848 21.0861 1.61196C21.5549 1.6186 21.9055 1.98782 21.9255 2.4965C21.9255 2.51775 21.9255 2.539 21.9255 2.56025V3.78743Z" fill="#E8F2F9"/>
<path id="Vector_8" d="M9.61141 3.80348C9.61141 4.22317 9.61141 4.64286 9.61141 5.06254C9.60211 5.61637 9.24352 5.99223 8.75211 5.98559C8.2607 5.97895 7.9207 5.59778 7.91805 5.06653C7.91273 4.21653 7.91273 3.36653 7.91805 2.51653C7.91805 1.98528 8.27398 1.61473 8.76406 1.61207C9.25414 1.60942 9.60078 1.97465 9.61141 2.51254C9.61805 2.94286 9.61141 3.37317 9.61141 3.80348Z" fill="#E8F2F9"/>
<path id="Vector_9" d="M17.0654 17.6413C17.744 17.6413 17.6537 17.5616 17.659 18.2443C17.659 18.6241 17.4492 18.8406 17.0707 18.8379C16.3721 18.8379 16.4571 18.9415 16.4558 18.227C16.4544 17.535 16.3893 17.6506 17.0654 17.6413Z" fill="#294189"/>
<path id="Vector_10" d="M27.1676 13.9675C27.1676 14.1402 27.1676 14.3115 27.1676 14.4842C27.1556 15.0738 26.7691 15.4829 26.1914 15.5068C25.8049 15.5228 25.4171 15.5228 25.0306 15.5068C24.9013 15.5046 24.7737 15.4768 24.6552 15.4252C24.5366 15.3735 24.4294 15.299 24.3397 15.2059C24.25 15.1127 24.1796 15.0028 24.1325 14.8823C24.0853 14.7619 24.0624 14.6334 24.0651 14.5041C24.0571 14.1388 24.0558 13.7723 24.0651 13.407C24.0651 13.1513 24.1634 12.9053 24.3396 12.7199C24.5158 12.5345 24.7566 12.4239 25.012 12.411C25.4105 12.3897 25.8089 12.3924 26.2073 12.411C26.4683 12.4196 26.7154 12.5304 26.8955 12.7194C27.0755 12.9084 27.1742 13.1606 27.1702 13.4217C27.1716 13.6023 27.1676 13.7842 27.1676 13.9675ZM26.1967 13.9675C26.1967 13.3659 26.1967 13.3659 25.5805 13.3659C25.0266 13.3659 25.0266 13.3659 25.0266 13.9303C25.0266 14.532 25.0266 14.532 25.6389 14.532C26.1967 14.5346 26.1967 14.5346 26.1967 13.9702V13.9675Z" fill="#030202"/>
<path id="Vector_11" d="M10.05 18.2575C10.05 18.4182 10.05 18.5803 10.05 18.741C10.0421 19.3599 9.65159 19.7769 9.03135 19.7955C8.67674 19.8075 8.32214 19.8061 7.96885 19.7955C7.35792 19.7769 6.95549 19.3572 6.94885 18.7423C6.94885 18.3877 6.94089 18.0318 6.94885 17.6798C6.94769 17.4244 7.04629 17.1786 7.22366 16.9948C7.40103 16.8109 7.64315 16.7036 7.89846 16.6957C8.27432 16.6784 8.65151 16.685 9.02737 16.6957C9.64362 16.7103 10.0381 17.1207 10.046 17.7436C10.0527 17.9136 10.05 18.0849 10.05 18.2575ZM8.47354 18.8393C9.0805 18.8393 9.0805 18.8393 9.0805 18.2296C9.0805 17.6745 9.08049 17.6745 8.51339 17.6745C7.91174 17.6745 7.91174 17.6745 7.91174 18.2841C7.91174 18.8393 7.91175 18.8393 8.47354 18.8393Z" fill="#030202"/>
<path id="Vector_12" d="M10.0531 13.9916C10.1474 15.2321 9.64141 15.5946 8.53641 15.5163C8.3332 15.5017 8.12734 15.5163 7.92414 15.5083C7.66323 15.5045 7.41443 15.3976 7.23204 15.2109C7.04966 15.0243 6.94849 14.7731 6.95063 14.5122C6.94354 14.1456 6.94354 13.78 6.95063 13.4152C6.94877 13.154 7.04916 12.9025 7.23034 12.7143C7.41151 12.5262 7.6591 12.4164 7.92016 12.4085C8.30664 12.3912 8.69445 12.3912 9.08094 12.4085C9.34199 12.4147 9.5901 12.5234 9.77174 12.711C9.95337 12.8986 10.054 13.1501 10.0518 13.4112C10.0571 13.6038 10.0531 13.7977 10.0531 13.9916ZM9.08359 13.9624C9.08359 13.3687 9.08359 13.3687 8.49125 13.3687C7.89891 13.3687 7.91484 13.3687 7.91484 13.9424C7.91484 14.5162 7.91484 14.5348 8.5032 14.5348C9.09156 14.5348 9.08359 14.5348 9.08359 13.9624Z" fill="#030202"/>
<path id="Vector_13" d="M21.351 15.5096C20.1928 15.5986 19.6974 15.2135 19.7878 14.0155C19.8037 13.8123 19.7878 13.6078 19.7878 13.4032C19.7871 13.1477 19.8851 12.9018 20.0613 12.7168C20.2374 12.5317 20.4782 12.4218 20.7334 12.4098C21.1316 12.3898 21.5305 12.3898 21.9287 12.4098C22.1846 12.4189 22.4272 12.526 22.6064 12.7089C22.7856 12.8918 22.8877 13.1366 22.8916 13.3926C22.9049 13.7685 22.9035 14.1456 22.8916 14.5215C22.8909 14.7824 22.7873 15.0326 22.6033 15.2176C22.4193 15.4026 22.1697 15.5075 21.9088 15.5096C21.7056 15.5189 21.501 15.5096 21.351 15.5096ZM21.3244 14.5348C21.9287 14.5348 21.9287 14.5348 21.9287 13.9849C21.9287 13.3687 21.9287 13.3687 21.3257 13.3687C20.7573 13.3687 20.7573 13.3687 20.7573 13.9517C20.7573 14.5348 20.7573 14.5348 21.3244 14.5348Z" fill="#030202"/>
<path id="Vector_14" d="M12.7821 20.9721C12.9641 20.9721 13.1474 20.9721 13.3293 20.9721C13.4586 20.9695 13.5871 20.9926 13.7074 21.0402C13.8276 21.0878 13.9372 21.1588 14.0297 21.2492C14.1222 21.3396 14.1957 21.4475 14.246 21.5666C14.2964 21.6857 14.3224 21.8137 14.3228 21.943C14.336 22.3295 14.3374 22.7173 14.3228 23.1038C14.3186 23.365 14.2109 23.6139 14.0234 23.7959C13.836 23.978 13.584 24.0782 13.3227 24.0746C12.9575 24.0826 12.5922 24.0839 12.227 24.0746C12.0946 24.0746 11.9635 24.0485 11.8412 23.9979C11.7189 23.9472 11.6078 23.873 11.5142 23.7794C11.4206 23.6858 11.3463 23.5746 11.2957 23.4523C11.245 23.33 11.2189 23.199 11.2189 23.0666C11.207 22.712 11.2096 22.356 11.2189 22.0041C11.2335 21.3931 11.6479 20.9894 12.2628 20.9748C12.4368 20.9681 12.6095 20.9708 12.7821 20.9721ZM12.7277 21.9443C12.1805 21.9443 12.1805 21.9443 12.1805 22.4756C12.1805 23.1051 12.1805 23.1051 12.7994 23.1051C13.3506 23.1051 13.3506 23.1051 13.3506 22.5738C13.3506 21.9509 13.3506 21.9509 12.7277 21.9509V21.9443Z" fill="#030202"/>
<path id="Vector_15" d="M17.0658 15.5043C16.8506 15.5043 16.6355 15.5176 16.4217 15.5043C16.194 15.4914 15.9788 15.3966 15.8155 15.2375C15.6523 15.0783 15.552 14.8656 15.5331 14.6384C15.5046 14.1988 15.5046 13.7578 15.5331 13.3182C15.5486 13.0736 15.6563 12.8439 15.8345 12.6755C16.0128 12.5071 16.2482 12.4127 16.4934 12.4111C16.8799 12.3952 17.2677 12.3939 17.6542 12.4111C17.9157 12.4188 18.1639 12.5283 18.3458 12.7164C18.5277 12.9045 18.6288 13.1562 18.6277 13.4179C18.6423 13.7605 18.637 14.1058 18.6277 14.4498C18.6144 15.1139 18.2159 15.499 17.5519 15.5123C17.3912 15.5123 17.2305 15.5123 17.0684 15.5123L17.0658 15.5043ZM17.0552 14.5348H17.2491C17.6661 14.5348 17.6661 14.5348 17.6661 14.1178V14.0208C17.6661 13.3687 17.6661 13.3647 17.022 13.37C16.4124 13.37 16.4642 13.2598 16.4615 13.9425C16.4535 14.5348 16.4549 14.5348 17.0485 14.5348H17.0552Z" fill="#030202"/>
<path id="Vector_16" d="M2.67483 22.5102C2.67483 22.3163 2.66819 22.1223 2.67483 21.9298C2.67919 21.6799 2.77984 21.4415 2.95577 21.264C3.13171 21.0866 3.36935 20.984 3.61912 20.9775C4.00561 20.9629 4.39342 20.9642 4.7799 20.9775C5.0403 20.9768 5.29054 21.0784 5.47665 21.2606C5.66275 21.4427 5.76979 21.6907 5.77467 21.951C5.78928 22.3269 5.78795 22.7041 5.77467 23.0799C5.77346 23.2121 5.7462 23.3427 5.69447 23.4643C5.64273 23.5859 5.56753 23.6961 5.47317 23.7886C5.3788 23.8811 5.26712 23.9541 5.14452 24.0034C5.02192 24.0528 4.8908 24.0774 4.75865 24.076C4.41467 24.0827 4.07069 24.076 3.7267 24.076C3.09319 24.0694 2.68412 23.6603 2.6735 23.0268C2.6735 22.8541 2.6735 22.6828 2.6735 22.5102H2.67483ZM4.23537 21.951C3.64037 21.951 3.64037 21.951 3.64037 22.5394C3.64037 23.1277 3.64037 23.1171 4.21545 23.1171C4.81311 23.1171 4.81311 23.1171 4.81311 22.5274C4.81311 21.9377 4.81311 21.951 4.23537 21.951Z" fill="#030202"/>
<path id="Vector_17" d="M2.67412 13.969C2.67412 13.7857 2.67412 13.6025 2.67412 13.4205C2.67218 13.2886 2.69642 13.1576 2.74541 13.0351C2.7944 12.9125 2.86719 12.8009 2.95956 12.7067C3.05193 12.6125 3.16206 12.5375 3.28358 12.4861C3.4051 12.4347 3.53561 12.4078 3.66755 12.4072C4.03279 12.3952 4.39802 12.3965 4.76326 12.4072C5.0298 12.4057 5.28602 12.5101 5.47574 12.6973C5.66546 12.8845 5.77318 13.1394 5.77529 13.4059C5.78857 13.7818 5.7899 14.159 5.77529 14.5348C5.77221 14.7907 5.66948 15.0352 5.48893 15.2165C5.30838 15.3978 5.06424 15.5015 4.80841 15.5057C4.43255 15.5229 4.05537 15.5216 3.67951 15.5057C3.07123 15.4857 2.68607 15.0873 2.67279 14.4804C2.67013 14.313 2.67412 14.1404 2.67412 13.969ZM4.20677 13.3687C3.64099 13.3687 3.64099 13.3687 3.64099 13.9239C3.64099 14.5348 3.64099 14.5348 4.24529 14.5348C4.81373 14.5348 4.81373 14.5348 4.81373 13.981C4.81373 13.3687 4.81373 13.3687 4.20677 13.3687Z" fill="#030202"/>
<path id="Vector_18" d="M4.22877 16.6916C4.41072 16.6916 4.59401 16.6916 4.77596 16.6916C4.9079 16.6917 5.03851 16.718 5.16023 16.769C5.28194 16.8199 5.39236 16.8945 5.4851 16.9883C5.57785 17.0822 5.65107 17.1935 5.70055 17.3158C5.75003 17.4381 5.77478 17.569 5.77338 17.7009C5.78401 18.0662 5.78533 18.4327 5.77338 18.798C5.77428 19.0541 5.67582 19.3006 5.49873 19.4856C5.32163 19.6706 5.07968 19.7798 4.82377 19.7901C4.42564 19.8121 4.02659 19.8121 3.62846 19.7901C3.36742 19.7828 3.11991 19.6723 2.94018 19.4829C2.76044 19.2934 2.66312 19.0404 2.66955 18.7794C2.66158 18.4248 2.66291 18.0702 2.66955 17.7169C2.66387 17.5822 2.68592 17.4478 2.73434 17.3219C2.78277 17.1961 2.85652 17.0816 2.95104 16.9854C3.04556 16.8893 3.15882 16.8136 3.28381 16.7631C3.40879 16.7125 3.54282 16.6882 3.6776 16.6916C3.86221 16.6863 4.04682 16.6916 4.22877 16.6916ZM3.63908 18.2402C3.63908 18.8391 3.63908 18.8418 4.22213 18.8378C4.90213 18.8378 4.80651 18.9095 4.81049 18.2654C4.81049 17.6744 4.81049 17.6744 4.21947 17.6744C3.62846 17.6744 3.63908 17.6744 3.63908 18.2402Z" fill="#030202"/>
<path id="Vector_19" d="M14.3315 18.2628C14.3315 18.4355 14.3315 18.6068 14.3315 18.7794C14.3345 18.9115 14.3111 19.0427 14.2628 19.1656C14.2145 19.2885 14.1421 19.4005 14.05 19.4951C13.9579 19.5897 13.8478 19.665 13.7262 19.7166C13.6047 19.7682 13.4741 19.795 13.342 19.7955C12.9768 19.8101 12.6102 19.8074 12.245 19.7955C12.1093 19.7975 11.9747 19.7721 11.8491 19.7208C11.7235 19.6695 11.6096 19.5934 11.5141 19.4971C11.4186 19.4007 11.3435 19.2861 11.2934 19.1601C11.2433 19.034 11.2191 18.8991 11.2223 18.7635C11.213 18.4089 11.2117 18.053 11.2223 17.701C11.2208 17.5662 11.2466 17.4324 11.2981 17.3078C11.3497 17.1832 11.4258 17.0703 11.5221 16.9759C11.6184 16.8815 11.7328 16.8075 11.8584 16.7584C11.9839 16.7094 12.1182 16.6862 12.2529 16.6903C12.5956 16.6823 12.9409 16.6903 13.2849 16.6903C13.9264 16.7009 14.3142 17.0887 14.3275 17.7448C14.3341 17.9188 14.3315 18.0915 14.3315 18.2628ZM12.1839 18.2628C12.1905 18.9269 12.1095 18.8273 12.7683 18.8366H12.8001C13.354 18.8366 13.354 18.8366 13.354 18.2721C13.354 17.6718 13.354 17.6718 12.7709 17.6718C12.1879 17.6718 12.1839 17.6744 12.1839 18.2655V18.2628Z" fill="#030202"/>
<path id="Vector_20" d="M10.0515 22.5221C10.0515 22.7054 10.0515 22.8887 10.0515 23.0706C10.053 23.3315 9.95237 23.5825 9.7712 23.7701C9.59003 23.9578 9.34264 24.0671 9.08193 24.0747C8.69589 24.088 8.30852 24.088 7.91982 24.0747C7.659 24.0667 7.41161 23.9571 7.23047 23.7693C7.04933 23.5815 6.94879 23.3303 6.95029 23.0693C6.94365 22.7041 6.94365 22.3375 6.95029 21.9723C6.94886 21.8403 6.97389 21.7093 7.0239 21.5871C7.07392 21.465 7.14791 21.3541 7.24151 21.261C7.3351 21.1679 7.4464 21.0945 7.56884 21.0451C7.69127 20.9957 7.82236 20.9714 7.95436 20.9735C8.30897 20.9642 8.6649 20.9656 9.01686 20.9735C9.63709 20.9855 10.0395 21.3919 10.0501 22.0081C10.0541 22.1781 10.0515 22.3495 10.0515 22.5221ZM8.4949 21.951C7.91318 21.951 7.91318 21.951 7.91318 22.5102C7.91318 23.1171 7.91318 23.1171 8.51084 23.1171C9.08193 23.1171 9.08193 23.1171 9.08193 22.542C9.08193 21.967 9.08193 21.951 8.4949 21.951Z" fill="#030202"/>
<path id="Vector_21" d="M14.3276 13.9822V14.3049C14.3276 15.1523 13.9664 15.5082 13.1084 15.5095C12.8069 15.5095 12.5054 15.5175 12.2053 15.5095C11.9425 15.5078 11.6911 15.402 11.5062 15.2153C11.3212 15.0286 11.2178 14.7762 11.2185 14.5135C11.2039 14.1376 11.2026 13.7604 11.2185 13.3845C11.2248 13.1178 11.3367 12.8644 11.5297 12.6801C11.7227 12.4958 11.981 12.3957 12.2478 12.4017C12.5918 12.3938 12.9358 12.4017 13.2797 12.4017C13.4172 12.3962 13.5543 12.419 13.6825 12.4688C13.8107 12.5186 13.9273 12.5942 14.025 12.6911C14.1227 12.7879 14.1994 12.9038 14.2503 13.0316C14.3012 13.1593 14.3253 13.2962 14.321 13.4337C14.3316 13.6196 14.3276 13.8029 14.3276 13.9822ZM13.3501 13.957C13.3501 13.3646 13.3501 13.3646 12.7565 13.3646C12.1628 13.3646 12.1801 13.3646 12.1801 13.9384C12.1801 14.5121 12.1801 14.5307 12.7697 14.5307C13.3594 14.5307 13.3501 14.5347 13.3501 13.961V13.957Z" fill="#030202"/>
<path id="Vector_22" d="M22.9679 18.8351C24.2277 18.8404 25.4576 19.2193 26.502 19.9238C27.5463 20.6283 28.3582 21.6268 28.8349 22.7929C29.3116 23.959 29.4316 25.2404 29.1798 26.4747C28.928 27.7091 28.3157 28.841 27.4203 29.7272C26.525 30.6135 25.3869 31.2142 24.15 31.4533C22.9131 31.6925 21.6331 31.5594 20.4719 31.0708C19.3107 30.5822 18.3206 29.7601 17.6268 28.7086C16.933 27.6571 16.5667 26.4234 16.5743 25.1636C16.5771 24.3279 16.7449 23.5009 17.068 22.73C17.391 21.9592 17.8631 21.2598 18.4571 20.6719C19.0511 20.0839 19.7554 19.619 20.5294 19.3038C21.3035 18.9886 22.1322 18.8293 22.9679 18.8351ZM22.96 19.8033C21.8916 19.7983 20.8458 20.1104 19.9549 20.7001C19.0641 21.2897 18.3681 22.1305 17.9553 23.1158C17.5425 24.1012 17.4312 25.1869 17.6357 26.2355C17.8402 27.2841 18.3512 28.2484 19.1041 29.0064C19.8569 29.7645 20.8177 30.2821 21.8648 30.4938C22.912 30.7056 23.9984 30.6018 24.9866 30.1958C25.9748 29.7898 26.8203 29.0997 27.4161 28.2129C28.0119 27.3261 28.3312 26.2824 28.3336 25.2141C28.3374 23.7843 27.7737 22.4114 26.7662 21.397C25.7587 20.3825 24.3897 19.8093 22.96 19.8033Z" fill="#030202"/>
<path id="Vector_23" d="M26.1974 13.9703C26.1974 14.5347 26.1974 14.5347 25.6396 14.5347C25.0273 14.5347 25.0273 14.5347 25.0273 13.9331C25.0273 13.3687 25.0273 13.3687 25.5812 13.3687C26.1974 13.3687 26.1974 13.3687 26.1974 13.9703Z" fill="#294189"/>
<path id="Vector_24" d="M8.47586 18.8391C7.91406 18.8391 7.91406 18.8391 7.91406 18.2839C7.91406 17.6743 7.91406 17.6743 8.5157 17.6743C9.08281 17.6743 9.08281 17.6743 9.08281 18.2295C9.08281 18.8391 9.08281 18.8391 8.47586 18.8391Z" fill="#294189"/>
<path id="Vector_25" d="M9.08281 13.9624C9.08281 14.5348 9.08281 14.5348 8.50242 14.5348C7.92203 14.5348 7.91406 14.5348 7.91406 13.9425C7.91406 13.3501 7.91406 13.3687 8.49047 13.3687C9.06688 13.3687 9.08281 13.3687 9.08281 13.9624Z" fill="#294189"/>
<path id="Vector_26" d="M21.3249 14.5347C20.7578 14.5347 20.7578 14.5347 20.7578 13.9517C20.7578 13.3687 20.7578 13.3687 21.3262 13.3687C21.9292 13.3687 21.9292 13.3687 21.9292 13.9849C21.9292 14.5347 21.9292 14.5347 21.3249 14.5347Z" fill="#294189"/>
<path id="Vector_27" d="M12.7308 21.9509C13.3537 21.9509 13.3537 21.9509 13.3537 22.5791C13.3537 23.1104 13.3537 23.1104 12.8025 23.1104C12.1836 23.1104 12.1836 23.1104 12.1836 22.4809C12.1836 21.9509 12.1836 21.9509 12.7308 21.9509Z" fill="#294189"/>
<path id="Vector_28" d="M17.0477 14.5347C16.4541 14.5347 16.4527 14.5347 16.4541 13.9423C16.4541 13.2597 16.4049 13.3739 17.0145 13.3699C17.6587 13.3699 17.6587 13.3699 17.6587 14.0207V14.115C17.6587 14.532 17.6587 14.532 17.2417 14.532L17.0477 14.5347Z" fill="#294189"/>
<path id="Vector_29" d="M4.23573 21.9509C4.81347 21.9509 4.81347 21.9509 4.81347 22.5273C4.81347 23.1037 4.81347 23.1157 4.21581 23.117C3.64206 23.117 3.64206 23.117 3.64073 22.5393C3.63941 21.9616 3.64073 21.9509 4.23573 21.9509Z" fill="#294189"/>
<path id="Vector_30" d="M4.20641 13.3687C4.81336 13.3687 4.81336 13.3687 4.81336 13.9809C4.81336 14.5347 4.81336 14.5347 4.24492 14.5347C3.64062 14.5347 3.64062 14.5347 3.64062 13.9238C3.64062 13.3687 3.64062 13.3687 4.20641 13.3687Z" fill="#294189"/>
<path id="Vector_31" d="M3.64062 18.2401C3.64062 17.6743 3.64062 17.6743 4.22102 17.6743C4.80141 17.6743 4.81602 17.6743 4.81203 18.2653C4.81203 18.9095 4.90367 18.8351 4.22367 18.8378C3.64062 18.8417 3.64062 18.8391 3.64062 18.2401Z" fill="#294189"/>
<path id="Vector_32" d="M12.1837 18.2653C12.1837 17.6743 12.1838 17.6743 12.7708 17.6743C13.3578 17.6743 13.3538 17.6743 13.3538 18.2746C13.3538 18.8391 13.3538 18.8391 12.8 18.8391H12.7681C12.1094 18.8298 12.1904 18.9347 12.1837 18.2653Z" fill="#294189"/>
<path id="Vector_33" d="M8.49578 21.9509C9.08281 21.9509 9.08281 21.9509 9.08281 22.5419C9.08281 23.133 9.08281 23.1157 8.51172 23.117C7.91406 23.117 7.91406 23.117 7.91406 22.5101C7.91406 21.9509 7.91406 21.9509 8.49578 21.9509Z" fill="#294189"/>
<path id="Vector_34" d="M13.3537 13.9611C13.3537 14.5348 13.3537 14.5348 12.7733 14.5348C12.1929 14.5348 12.1836 14.5348 12.1836 13.9425C12.1836 13.3501 12.1836 13.3687 12.76 13.3687C13.3364 13.3687 13.3537 13.3687 13.3537 13.9611Z" fill="#294189"/>
<path id="Vector_35" d="M22.9604 19.8033C24.0285 19.807 25.0715 20.1274 25.9574 20.724C26.8433 21.3206 27.5324 22.1666 27.9374 23.1548C28.3424 24.1431 28.4452 25.2294 28.2327 26.2761C28.0203 27.3228 27.5021 28.283 26.7438 29.0351C25.9855 29.7873 25.0211 30.2977 23.9727 30.5016C22.9243 30.7056 21.839 30.594 20.854 30.1809C19.869 29.7679 19.0287 29.072 18.4393 28.1813C17.85 27.2905 17.538 26.245 17.543 25.1769C17.5442 24.4679 17.6855 23.7661 17.9587 23.1118C18.2319 22.4576 18.6317 21.8637 19.1351 21.3644C19.6385 20.8651 20.2356 20.4701 20.892 20.2022C21.5485 19.9344 22.2514 19.7988 22.9604 19.8033ZM23.424 22.5047C23.424 22.182 23.424 21.8593 23.424 21.5365C23.4341 21.4292 23.4144 21.3212 23.3669 21.2244C23.3184 21.1267 23.2367 21.0493 23.1365 21.0063C23.0362 20.9632 22.9239 20.9572 22.8197 20.9893C22.7081 21.0163 22.6101 21.0826 22.5435 21.176C22.4769 21.2695 22.4462 21.3838 22.4571 21.498C22.4571 22.1315 22.4571 22.7664 22.4571 23.4012C22.4571 23.6071 22.4372 23.7439 22.2061 23.8435C22.0349 23.9237 21.8822 24.0385 21.7576 24.1807C21.633 24.3229 21.5393 24.4893 21.4822 24.6696C21.3521 25.0326 21.3616 25.431 21.5089 25.7874C21.6561 26.1439 21.9307 26.4328 22.2791 26.598C22.6299 26.7676 23.0324 26.7957 23.4033 26.6765C23.7742 26.5573 24.085 26.3 24.2713 25.9579C24.3088 25.8616 24.3786 25.7814 24.4687 25.731C24.5589 25.6806 24.6638 25.6632 24.7654 25.6816C25.0443 25.6949 25.3258 25.6949 25.6034 25.6816C25.6683 25.6822 25.7326 25.6697 25.7925 25.645C25.8525 25.6203 25.9069 25.5839 25.9526 25.5379C25.9982 25.4918 26.0342 25.4371 26.0584 25.3769C26.0826 25.3168 26.0946 25.2524 26.0935 25.1876C26.0935 24.9219 25.8916 24.7293 25.5835 24.7201C25.2754 24.7108 24.9593 24.7108 24.6538 24.7201C24.5864 24.7332 24.5166 24.721 24.4577 24.6857C24.3988 24.6503 24.3551 24.5945 24.3351 24.5288C24.1965 24.197 23.9319 23.9337 23.5993 23.797C23.5397 23.7776 23.4889 23.7378 23.4559 23.6846C23.4228 23.6313 23.4096 23.5681 23.4187 23.5061C23.4293 23.1715 23.424 22.8381 23.424 22.5047Z" fill="#E8F2F9"/>
<path id="Vector_36" d="M23.4221 22.5049C23.4221 22.8383 23.4221 23.169 23.4221 23.505C23.4131 23.567 23.4263 23.6302 23.4593 23.6834C23.4924 23.7366 23.5432 23.7764 23.6027 23.7958C23.9353 23.9326 24.2 24.1958 24.3385 24.5276C24.3586 24.5933 24.4023 24.6492 24.4611 24.6845C24.52 24.7198 24.5899 24.7321 24.6573 24.7189C24.968 24.7096 25.2802 24.7109 25.5869 24.7189C25.8937 24.7269 26.0903 24.9155 26.097 25.1864C26.098 25.2512 26.0861 25.3156 26.0619 25.3758C26.0377 25.4359 26.0017 25.4907 25.956 25.5367C25.9104 25.5827 25.8559 25.6192 25.796 25.6439C25.736 25.6686 25.6717 25.681 25.6069 25.6805C25.3293 25.6951 25.0477 25.6951 24.7688 25.6805C24.6672 25.662 24.5623 25.6795 24.4722 25.7299C24.3821 25.7803 24.3123 25.8605 24.2748 25.9567C24.0885 26.2988 23.7776 26.5562 23.4067 26.6753C23.0358 26.7945 22.6333 26.7664 22.2826 26.5969C21.9341 26.4316 21.6596 26.1427 21.5123 25.7863C21.365 25.4299 21.3556 25.0314 21.4857 24.6684C21.5427 24.4882 21.6365 24.3217 21.7611 24.1795C21.8856 24.0374 22.0383 23.9225 22.2095 23.8423C22.4406 23.7427 22.4632 23.6059 22.4605 23.4001C22.4526 22.7652 22.4605 22.1304 22.4605 21.4969C22.4497 21.3826 22.4803 21.2683 22.5469 21.1749C22.6135 21.0814 22.7116 21.0152 22.8231 20.9882C22.9274 20.956 23.0397 20.962 23.14 21.0051C23.2402 21.0482 23.3219 21.1255 23.3703 21.2233C23.4178 21.32 23.4376 21.4281 23.4274 21.5354C23.4234 21.8594 23.4221 22.1822 23.4221 22.5049ZM23.5337 25.193C23.5272 25.0372 23.4615 24.8898 23.3499 24.7809C23.2383 24.672 23.0893 24.6099 22.9334 24.6073C22.777 24.6129 22.6293 24.6801 22.5225 24.7944C22.4157 24.9087 22.3586 25.0606 22.3636 25.2169C22.3639 25.2917 22.3791 25.3657 22.4083 25.4346C22.4375 25.5035 22.4801 25.5659 22.5336 25.6181C22.5871 25.6704 22.6505 25.7115 22.72 25.7391C22.7896 25.7667 22.8639 25.7801 22.9387 25.7787C23.0163 25.7796 23.0933 25.7651 23.1653 25.7361C23.2372 25.7071 23.3028 25.6641 23.3581 25.6097C23.4134 25.5553 23.4574 25.4904 23.4875 25.4189C23.5176 25.3474 23.5333 25.2706 23.5337 25.193Z" fill="#030202"/>
<path id="Vector_37" d="M23.5336 25.1929C23.5329 25.2703 23.5169 25.3467 23.4866 25.4179C23.4564 25.4891 23.4123 25.5537 23.357 25.6078C23.3018 25.662 23.2364 25.7047 23.1646 25.7336C23.0927 25.7624 23.016 25.7768 22.9386 25.7759C22.8638 25.7773 22.7895 25.7639 22.7199 25.7363C22.6504 25.7087 22.587 25.6676 22.5335 25.6153C22.48 25.5631 22.4374 25.5007 22.4082 25.4318C22.379 25.3629 22.3638 25.2889 22.3635 25.2141C22.3592 25.0583 22.4167 24.907 22.5234 24.7933C22.6301 24.6796 22.7774 24.6127 22.9333 24.6072C23.0892 24.6098 23.2382 24.6719 23.3498 24.7807C23.4614 24.8896 23.5272 25.0371 23.5336 25.1929Z" fill="#FD4054"/>
</g>
</svg>
