<svg width="34" height="33" viewBox="0 0 34 33" fill="none" xmlns="http://www.w3.org/2000/svg">
<g id="CalendarioRecaudo">
<path id="Vector" d="M20.916 0.00482421H21.6106C21.7463 0.0489817 21.8793 0.100863 22.0091 0.160215C22.2962 0.296564 22.5373 0.513935 22.7025 0.785552C22.8676 1.05717 22.9498 1.37117 22.9388 1.68889C22.9388 2.15506 22.9388 2.15506 23.4195 2.15506C24.0291 2.15506 24.6401 2.13514 25.2484 2.16436C25.5711 2.18029 25.6468 2.08732 25.6388 1.76592C25.6202 0.890683 25.9642 0.399277 26.7677 0.0699024C26.8062 0.0539649 26.8488 0.0486523 26.858 -0.000488281H27.5527C28.5009 0.303652 28.9339 0.959746 28.8648 1.94521C28.8449 2.22943 29.0348 2.14709 29.1716 2.14842C30.3829 2.15506 31.0217 2.79123 31.0217 3.99717C31.0217 7.75311 31.0217 11.5095 31.0217 15.2663C31.0217 15.5386 31.0682 15.6355 31.3697 15.6315C32.5371 15.6143 33.1786 16.2717 33.1786 17.4418C33.1786 21.7883 33.1786 26.1344 33.1786 30.48C33.1786 31.6952 32.5477 32.3287 31.3378 32.3287H9.13156C7.94422 32.3287 7.29742 31.6859 7.29609 30.5012C7.29609 28.5329 7.29609 26.566 7.29609 24.5977C7.29609 24.3162 7.23633 24.2179 6.94281 24.2404C6.64819 24.2752 6.34972 24.2275 6.08056 24.1028C5.8114 23.978 5.5821 23.7811 5.41813 23.5339C5.19091 23.1995 5.09145 22.7946 5.13789 22.393C5.15914 22.138 5.0675 22.0836 4.82844 22.0889C4.14445 22.1062 3.45914 22.0703 2.77648 22.1008C1.86406 22.1407 1.19867 21.8246 0.878594 20.9281C0.878594 20.9135 0.845391 20.9095 0.828125 20.9002V20.0794C0.934375 20.029 0.914453 19.9161 0.934375 19.8337C1.76401 16.4514 2.59099 13.0674 3.41531 9.68154C3.98729 7.36087 4.55794 5.03886 5.12727 2.71553C5.23352 2.28256 5.39289 2.15771 5.8325 2.15639C6.36375 2.15639 6.90695 2.13514 7.44219 2.16303C7.76492 2.18029 7.86719 2.09529 7.84859 1.76459C7.80477 0.959746 8.1793 0.400605 8.92836 0.0938086C8.97352 0.0752148 9.03461 0.0752148 9.04391 0.00748046H9.73851C9.9218 0.116387 10.137 0.130996 10.3229 0.25584C10.9033 0.654277 11.1198 1.20811 11.0666 1.88412C11.0494 2.10193 11.1105 2.16967 11.3323 2.16436C11.983 2.14709 12.6338 2.15771 13.2846 2.15771C13.7627 2.15771 13.7667 2.15771 13.7667 1.69021C13.7667 0.923887 14.1253 0.397949 14.8292 0.0964648C14.8823 0.0738867 14.962 0.0818555 14.9753 0.000839874H15.6726C15.8977 0.0741205 16.1134 0.173522 16.3154 0.297012C16.5592 0.467847 16.7519 0.701934 16.8727 0.974093C16.9934 1.24625 17.0377 1.54618 17.0007 1.84162C16.9795 2.10725 17.0658 2.171 17.3248 2.16303C17.945 2.14178 18.5666 2.15506 19.1841 2.15506C19.6928 2.15506 19.6941 2.15506 19.7021 1.65436C19.7154 0.91459 20.0607 0.401934 20.7407 0.109746C20.7991 0.0845117 20.8921 0.0991211 20.916 0.00482421ZM30.9487 19.5283C31.2263 19.7049 31.545 19.7673 31.8545 19.8603C32.0789 19.928 32.0962 19.839 32.0935 19.6558C32.0935 19.0276 32.0709 18.398 32.0935 17.7698C32.1334 16.7246 31.889 16.6715 30.9553 16.7419C30.3577 16.7419 29.76 16.7419 29.1623 16.7166C28.9206 16.7087 28.8967 16.8189 28.9485 17.0008C29.2447 18.1297 29.8835 18.9983 30.946 19.5216L30.9487 19.5283ZM31.0191 28.4267C29.8835 28.938 29.2195 29.8491 28.9366 31.0444C28.8967 31.2171 28.9631 31.2622 29.1291 31.2583C29.7162 31.2476 30.3045 31.249 30.8916 31.245C31.1014 31.245 31.3113 31.2609 31.5198 31.253C31.5964 31.2573 31.673 31.2453 31.7446 31.2177C31.8161 31.19 31.881 31.1475 31.9348 31.0928C31.9886 31.0381 32.0301 30.9726 32.0566 30.9006C32.083 30.8285 32.0938 30.7517 32.0882 30.6752C32.0962 29.8783 32.0882 29.0815 32.0948 28.2846C32.0948 28.1 32.0178 28.0654 31.8664 28.104C31.5755 28.1837 31.2767 28.2421 31.0191 28.4147V28.4267ZM28.8728 6.44623C29.1384 6.44623 29.3961 6.44623 29.6564 6.4635C29.8716 6.47811 29.9486 6.40904 29.9446 6.18459C29.9313 5.42092 29.9446 4.65592 29.938 3.89092C29.9399 3.81778 29.9332 3.74467 29.918 3.67311C29.8317 3.3185 29.5276 3.16045 29.0335 3.23482C28.7068 3.28396 28.914 3.55092 28.8662 3.71295C28.8399 3.84417 28.8261 3.97757 28.825 4.11139C28.57 4.93084 28.0016 5.3824 27.2313 5.37842C26.8818 5.38099 26.5412 5.26864 26.2619 5.05866C25.9825 4.84868 25.7799 4.55271 25.6853 4.21631C25.624 3.97076 25.602 3.71703 25.6202 3.46459C25.6282 3.28396 25.5605 3.22951 25.3825 3.23217C24.7623 3.24014 24.142 3.23217 23.5231 3.23217C22.9534 3.23217 22.9534 3.23217 22.9334 3.79529C22.9293 4.08087 22.8496 4.36025 22.7023 4.60494C22.555 4.84964 22.3454 5.05089 22.095 5.1882C21.8446 5.3255 21.5622 5.39393 21.2767 5.38652C20.9912 5.3791 20.7127 5.29611 20.4698 5.146C19.8681 4.77678 19.653 4.20834 19.7048 3.52834C19.722 3.29725 19.6543 3.21623 19.4099 3.22287C18.8003 3.24014 18.1894 3.22287 17.5798 3.22287C17.0153 3.22287 17.0153 3.22287 16.9994 3.79396C16.9929 4.18137 16.847 4.55347 16.5884 4.84204C16.3298 5.13061 15.9759 5.31632 15.5916 5.36514C14.723 5.44881 13.9845 4.93748 13.8092 4.11139C13.7717 3.89215 13.7606 3.66921 13.776 3.44732C13.776 3.2667 13.7189 3.21225 13.5409 3.2149C12.9313 3.22287 12.3217 3.2149 11.7108 3.2149C11.0998 3.2149 11.0879 3.2149 11.0666 3.82053C11.0566 4.20646 10.9085 4.57599 10.6492 4.86206C10.39 5.14812 10.0368 5.33176 9.65367 5.37965C9.27059 5.42753 8.88303 5.33649 8.56134 5.12304C8.23965 4.90959 8.00515 4.58789 7.90039 4.21631C7.84197 3.97029 7.82359 3.71646 7.84594 3.46459C7.84594 3.28264 7.78617 3.23084 7.60953 3.23615C7.23234 3.24678 6.8525 3.25076 6.47398 3.23615C6.25617 3.22553 6.20836 3.31318 6.20836 3.51107C6.21766 4.3624 6.20836 5.21506 6.20836 6.06639C6.20836 6.47147 6.20836 6.47146 6.61477 6.47146H28.4956C28.6205 6.46217 28.7466 6.45287 28.8728 6.44623ZM28.8728 15.6103C29.1238 15.6183 29.3762 15.6103 29.6245 15.6382C29.8968 15.6687 29.9486 15.5585 29.9473 15.3048C29.938 13.0351 29.9473 10.7653 29.9393 8.49553C29.9393 8.18607 30.0814 7.75842 29.8742 7.59639C29.6445 7.41842 29.2301 7.54061 28.8954 7.55521C28.8848 7.5575 28.8746 7.56107 28.8648 7.56584C28.7825 7.56584 28.6988 7.54725 28.6152 7.54725C21.2494 7.54725 13.8836 7.54459 6.51781 7.53928C6.25219 7.53928 6.215 7.62826 6.215 7.86201C6.22031 12.7123 6.22031 17.5626 6.215 22.4129C6.215 23.0146 6.38234 23.1647 6.98797 23.1819C7.23234 23.1819 7.30141 23.1262 7.30008 22.8751C7.28813 21.0543 7.30008 19.2347 7.29211 17.4139C7.26764 16.9794 7.40378 16.5512 7.67461 16.2106C8.05977 15.7551 8.56578 15.6249 9.13555 15.6249C15.5752 15.6302 22.0148 15.6302 28.4545 15.6249C28.5992 15.6276 28.7347 15.6169 28.8715 15.6103H28.8728ZM31.0297 20.7608C29.2872 20.0462 28.1755 18.8084 27.8502 16.9212C27.8196 16.7432 27.7173 16.7179 27.5593 16.7179C22.6771 16.7179 17.7949 16.7179 12.9127 16.7179C12.7414 16.7179 12.6644 16.7498 12.6232 16.9451C12.161 19.1497 10.8249 20.4938 8.61492 20.9507C8.44625 20.9852 8.38781 21.0383 8.38781 21.2163C8.39313 23.0571 8.39313 24.8983 8.38781 26.74C8.38781 26.9272 8.4582 26.9963 8.63219 27.0295C10.7572 27.4412 12.1916 28.8544 12.6073 30.982C12.6577 31.2397 12.7613 31.2676 12.9765 31.2676C17.8162 31.2622 22.6559 31.2622 27.4955 31.2676C27.732 31.2676 27.8329 31.2012 27.8608 30.9687C27.9162 30.5728 28.0317 30.1876 28.2034 29.8265C28.7759 28.5622 29.7388 27.7188 31.0177 27.2154C31.2927 27.1517 31.5662 27.0826 31.8438 27.0255C31.8817 27.0242 31.9189 27.0147 31.9529 26.9978C31.9868 26.9809 32.0167 26.9569 32.0407 26.9275C32.0646 26.8981 32.0819 26.8638 32.0915 26.8271C32.101 26.7904 32.1026 26.7521 32.0962 26.7147C32.0842 25.9896 32.0962 25.2644 32.0962 24.5393C32.0962 23.4688 32.0962 22.397 32.0962 21.3252C32.0962 21.0928 32.0709 20.964 31.792 20.944C31.5327 20.9048 31.2772 20.8435 31.0284 20.7608H31.0297ZM5.13922 7.39451C5.11348 7.42511 5.08995 7.45751 5.06883 7.49146C4.02492 11.7618 2.98234 16.0322 1.94109 20.3026C1.83484 20.7369 2.07391 21.0197 2.52016 21.0224C3.27719 21.0224 4.03555 21.0065 4.79125 21.0317C5.09273 21.041 5.14586 20.9414 5.14586 20.6651C5.13701 16.3647 5.13479 12.0638 5.13922 7.7624V7.39451ZM10.1516 31.2583C10.562 31.2583 10.971 31.2583 11.3814 31.2583C11.5036 31.2583 11.5647 31.2503 11.5421 31.0869C11.3548 29.7163 9.93641 28.2766 8.60031 28.104C8.44492 28.084 8.36789 28.104 8.36922 28.2886C8.37719 29.0854 8.36922 29.8823 8.37852 30.6792C8.38648 31.059 8.6043 31.2476 8.9868 31.253C9.3693 31.2583 9.76375 31.2583 10.1516 31.2583ZM8.36789 18.479C8.36789 18.8775 8.36789 19.2759 8.36789 19.6744C8.36789 19.8258 8.37984 19.8988 8.57641 19.8643C9.97492 19.6226 11.2552 18.3622 11.5222 16.9663C11.5607 16.7618 11.5222 16.714 11.319 16.7166C10.5527 16.7259 9.78633 16.7166 9.02 16.7166C8.56313 16.7166 8.38117 16.9092 8.3732 17.3807C8.36789 17.7433 8.36789 18.1112 8.36789 18.479ZM26.7093 2.68896C26.7093 3.03693 26.7093 3.38357 26.7093 3.73021C26.7093 4.07686 26.9045 4.28936 27.2073 4.30396C27.2815 4.31045 27.3561 4.30105 27.4263 4.2764C27.4965 4.25175 27.5607 4.2124 27.6145 4.16099C27.6683 4.10958 27.7105 4.04729 27.7383 3.97828C27.7661 3.90926 27.7789 3.83511 27.7758 3.76076C27.7935 3.04623 27.7935 2.33126 27.7758 1.61584C27.7758 1.54437 27.7615 1.47362 27.7335 1.40783C27.7056 1.34204 27.6647 1.28257 27.6132 1.23297C27.5617 1.18337 27.5008 1.14466 27.434 1.11916C27.3673 1.09367 27.296 1.08191 27.2246 1.08459C26.9245 1.09521 26.7199 1.3117 26.7106 1.64904C26.7013 1.98639 26.7093 2.34232 26.7093 2.68896ZM14.8491 2.69959C14.8491 3.04623 14.8491 3.3942 14.8491 3.74084C14.8491 4.08748 15.0523 4.29334 15.3591 4.30396C15.4332 4.30937 15.5075 4.29893 15.5771 4.27334C15.6468 4.24774 15.7102 4.20759 15.7631 4.15555C15.816 4.10352 15.8572 4.0408 15.884 3.97157C15.9108 3.90235 15.9224 3.82822 15.9183 3.75412C15.9289 3.04889 15.9276 2.34365 15.9183 1.63842C15.917 1.56822 15.9019 1.49896 15.8738 1.43461C15.8457 1.37025 15.8052 1.31205 15.7547 1.26334C15.7041 1.21462 15.6444 1.17634 15.5791 1.15069C15.5137 1.12503 15.444 1.1125 15.3737 1.11381C15.3035 1.11512 15.2343 1.13024 15.1699 1.15831C15.1056 1.18639 15.0474 1.22686 14.9987 1.27742C14.95 1.32799 14.9117 1.38765 14.886 1.45301C14.8604 1.51837 14.8478 1.58814 14.8491 1.65834C14.8438 2.00498 14.8491 2.35693 14.8491 2.69959ZM20.7805 2.69029C20.7805 3.04756 20.7739 3.40482 20.7805 3.76342C20.776 3.8319 20.7855 3.90058 20.8083 3.96531C20.8311 4.03003 20.8668 4.08946 20.9132 4.13999C20.9597 4.19052 21.0159 4.23111 21.0784 4.25929C21.141 4.28748 21.2087 4.30268 21.2773 4.30396C21.3486 4.31077 21.4206 4.30269 21.4887 4.28022C21.5568 4.25776 21.6195 4.22141 21.6728 4.17347C21.7261 4.12553 21.7689 4.06705 21.7984 4.00173C21.8279 3.9364 21.8436 3.86565 21.8444 3.79396C21.8616 3.06881 21.8603 2.34232 21.8444 1.61584C21.8423 1.54608 21.8265 1.47741 21.7978 1.41375C21.7692 1.3501 21.7283 1.29271 21.6775 1.24486C21.6267 1.19701 21.567 1.15963 21.5017 1.13487C21.4364 1.1101 21.367 1.09843 21.2972 1.10053C21.2274 1.10262 21.1588 1.11843 21.0951 1.14707C21.0314 1.1757 20.9741 1.21659 20.9262 1.2674C20.8784 1.31821 20.841 1.37795 20.8162 1.4432C20.7915 1.50846 20.7798 1.57795 20.7819 1.64771C20.7739 1.99568 20.7805 2.34232 20.7805 2.69029ZM8.91773 2.65975C8.91773 3.01701 8.91773 3.37428 8.91773 3.73287C8.91773 4.09146 9.14086 4.30529 9.44898 4.30529C9.75711 4.30529 9.98023 4.08482 9.98023 3.73021C9.98023 3.04623 9.98023 2.36225 9.98023 1.67826C9.98023 1.33162 9.76109 1.09123 9.45961 1.08326C9.15812 1.07529 8.91508 1.321 8.90844 1.68092C8.91242 2.00631 8.91773 2.33303 8.91773 2.65975Z" fill="#030302"/>
<path id="Vector_2" d="M31.0167 27.2115C29.7377 27.7148 28.7748 28.5582 28.2024 29.8226C28.0306 30.1836 27.9151 30.5688 27.8597 30.9648C27.8318 31.1972 27.7269 31.2649 27.4945 31.2636C22.6548 31.2565 17.8151 31.2565 12.9754 31.2636C12.7603 31.2636 12.6567 31.2357 12.6062 30.978C12.1905 28.853 10.7601 27.4373 8.63111 27.0255C8.45713 26.9923 8.38541 26.9233 8.38674 26.736C8.39205 24.8935 8.39205 23.0522 8.38674 21.2123C8.38674 21.041 8.44517 20.9879 8.61385 20.9467C10.8238 20.4885 12.1599 19.1444 12.6208 16.9398C12.662 16.7445 12.739 16.7126 12.9103 16.7126C17.7925 16.7126 22.6747 16.7126 27.5569 16.7126C27.7123 16.7126 27.8225 16.7379 27.8477 16.9158C28.1731 18.8031 29.2848 20.0409 31.0273 20.7555C31.0246 22.9097 31.0211 25.0617 31.0167 27.2115ZM19.6997 27.9273C19.0356 27.6312 18.6824 27.1716 18.6253 26.489C18.5894 26.0613 18.3729 25.8501 18.0223 25.8807C17.6916 25.9099 17.5229 26.1463 17.5535 26.5687C17.6292 27.6312 18.1485 28.4161 19.11 28.8265C19.5363 29.0124 19.7847 29.1665 19.7156 29.6751C19.6771 29.962 19.9095 30.1267 20.1885 30.1692C20.3157 30.183 20.4435 30.1486 20.5468 30.0729C20.65 29.9972 20.7211 29.8857 20.7463 29.7601C20.7762 29.6058 20.7855 29.4481 20.7742 29.2913C20.7673 29.2565 20.7674 29.2206 20.7747 29.1858C20.7819 29.1511 20.796 29.1181 20.8162 29.0889C20.8364 29.0596 20.8622 29.0348 20.8922 29.0157C20.9221 28.9966 20.9556 28.9838 20.9906 28.9779C21.5484 28.8177 22.0392 28.4809 22.3894 28.0181C22.7395 27.5553 22.9302 26.9914 22.9327 26.4111C22.9353 25.8308 22.7496 25.2653 22.4035 24.7994C22.0574 24.3336 21.5696 23.9925 21.0132 23.8274C20.9756 23.823 20.9393 23.8108 20.9066 23.7918C20.8739 23.7727 20.8454 23.7471 20.823 23.7166C20.8006 23.6861 20.7847 23.6513 20.7763 23.6144C20.7679 23.5775 20.7672 23.5392 20.7742 23.502C20.7848 23.0279 20.7742 22.5551 20.7742 22.0809V20.5841C21.0737 20.6947 21.3345 20.8901 21.5249 21.1465C21.7152 21.4028 21.8268 21.7091 21.846 22.0278C21.8911 22.4448 22.0824 22.6441 22.4224 22.6241C22.7624 22.6042 22.9536 22.3386 22.9191 21.9216C22.8195 20.9175 22.3493 20.1312 21.4276 19.7036C21.0026 19.5057 20.6387 19.3636 20.7635 18.8031C20.7635 18.7766 20.7503 18.742 20.741 18.7128C20.7103 18.5941 20.6384 18.4902 20.5381 18.4197C20.4379 18.3491 20.3158 18.3165 20.1938 18.3276C20.0659 18.3328 19.9446 18.3858 19.8539 18.476C19.7632 18.5663 19.7096 18.6872 19.7037 18.8151C19.6917 18.9512 19.6917 19.088 19.7037 19.2241C19.7183 19.3888 19.6572 19.4605 19.4965 19.5137C18.2746 19.9121 17.5269 20.9082 17.5362 22.1101C17.5455 23.3121 18.2972 24.3055 19.4938 24.6814C19.5264 24.6859 19.5578 24.6969 19.5861 24.7137C19.6144 24.7306 19.639 24.7529 19.6586 24.7793C19.6781 24.8058 19.6922 24.8359 19.6999 24.8679C19.7077 24.8999 19.709 24.9331 19.7037 24.9656C19.697 25.9338 19.6997 26.9007 19.6997 27.9273ZM25.6324 23.7238C25.6321 24.0082 25.6881 24.2899 25.7974 24.5524C25.9066 24.815 26.0668 25.0533 26.2688 25.2535C26.4707 25.4538 26.7104 25.612 26.9739 25.7189C27.2374 25.8259 27.5195 25.8795 27.8039 25.8767C28.088 25.8751 28.3691 25.8176 28.631 25.7074C28.8928 25.5973 29.1305 25.4366 29.3303 25.2346C29.5301 25.0326 29.6881 24.7932 29.7954 24.5301C29.9026 24.267 29.9571 23.9854 29.9555 23.7012C29.9539 23.4171 29.8964 23.1361 29.7862 22.8742C29.676 22.6123 29.5154 22.3747 29.3134 22.1749C29.1113 21.9751 28.872 21.8171 28.6089 21.7098C28.3458 21.6025 28.0641 21.5481 27.78 21.5497C27.4957 21.5495 27.2142 21.6058 26.9518 21.7153C26.6894 21.8248 26.4514 21.9854 26.2516 22.1877C26.0518 22.3899 25.8941 22.6299 25.7879 22.8936C25.6816 23.1573 25.6287 23.4395 25.6324 23.7238ZM10.5423 23.7238C10.5432 24.0079 10.6 24.2891 10.7097 24.5512C10.8193 24.8133 10.9796 25.0512 11.1813 25.2512C11.383 25.4513 11.6222 25.6097 11.8851 25.7172C12.1481 25.8248 12.4297 25.8794 12.7138 25.878C13.2793 25.8592 13.815 25.6198 14.2061 25.2109C14.5973 24.802 14.8128 24.2563 14.8066 23.6905C14.8003 23.1247 14.5728 22.5838 14.1727 22.1837C13.7726 21.7835 13.2318 21.556 12.666 21.5497C12.0975 21.5588 11.5557 21.7921 11.1584 22.1988C10.7612 22.6055 10.5407 23.1527 10.5449 23.7212L10.5423 23.7238Z" fill="#60A817"/>
<path id="Vector_3" d="M28.8712 15.6104C28.7384 15.6104 28.6055 15.6276 28.4621 15.6276C22.0216 15.6276 15.582 15.6276 9.1432 15.6276C8.56812 15.6276 8.06211 15.7604 7.68227 16.2133C7.41143 16.5539 7.2753 16.9822 7.29977 17.4166C7.29977 19.2375 7.29977 21.057 7.30773 22.8779C7.30773 23.1289 7.24 23.1913 6.99562 23.1846C6.39 23.1674 6.22266 23.0173 6.22266 22.4157C6.22266 17.5654 6.22266 12.715 6.22266 7.86473C6.22266 7.63098 6.26117 7.54199 6.52547 7.54199C13.8913 7.54996 21.257 7.55262 28.6228 7.54996C28.7065 7.54996 28.7902 7.56191 28.8725 7.56855L28.8712 15.6104ZM9.99852 13.4681C10.5601 13.4531 11.0935 13.2193 11.4851 12.8165C11.8766 12.4136 12.0951 11.8737 12.0941 11.312C12.0931 10.7502 11.8725 10.2111 11.4795 9.80975C11.0865 9.40838 10.5521 9.17651 9.99055 9.16363C9.70341 9.15705 9.41787 9.20799 9.15072 9.31344C8.88357 9.4189 8.64022 9.57675 8.43501 9.77768C8.22979 9.97862 8.06686 10.2186 7.9558 10.4835C7.84473 10.7483 7.78779 11.0327 7.78832 11.3199C7.78886 11.6072 7.84685 11.8914 7.95889 12.1558C8.07093 12.4203 8.23476 12.6596 8.44071 12.8598C8.64667 13.06 8.8906 13.2169 9.15814 13.3214C9.42567 13.4259 9.71141 13.4757 9.99852 13.4681ZM26.1525 13.4681C26.7141 13.4558 27.2487 13.2244 27.6422 12.8234C28.0356 12.4224 28.2567 11.8835 28.2582 11.3217C28.2598 10.7599 28.0417 10.2198 27.6505 9.81658C27.2593 9.41338 26.726 9.17906 26.1645 9.16363C25.8774 9.15544 25.5916 9.20476 25.3239 9.30869C25.0562 9.41261 24.812 9.56904 24.6057 9.76876C24.3994 9.96849 24.2351 10.2075 24.1225 10.4716C24.0099 10.7358 23.9513 11.0199 23.9502 11.307C23.949 11.5942 24.0053 11.8787 24.1158 12.1437C24.2262 12.4088 24.3886 12.6491 24.5933 12.8505C24.7981 13.0518 25.041 13.2102 25.3078 13.3163C25.5747 13.4224 25.8601 13.474 26.1472 13.4681H26.1525ZM15.3761 13.4681C15.6633 13.4761 15.9493 13.4266 16.2171 13.3225C16.4849 13.2183 16.7292 13.0617 16.9356 12.8617C17.1419 12.6617 17.3062 12.4225 17.4187 12.158C17.5312 11.8936 17.5896 11.6094 17.5906 11.322C17.5916 11.0347 17.535 10.75 17.4243 10.4848C17.3136 10.2197 17.151 9.97931 16.946 9.77794C16.741 9.57657 16.4978 9.41824 16.2307 9.31229C15.9636 9.20633 15.678 9.15488 15.3907 9.16098C15.1035 9.15293 14.8175 9.20244 14.5497 9.30658C14.2819 9.41073 14.0376 9.5674 13.8312 9.76738C13.6249 9.96735 13.4606 10.2066 13.3481 10.471C13.2356 10.7354 13.1772 11.0197 13.1762 11.307C13.1752 11.5944 13.2318 11.879 13.3425 12.1442C13.4532 12.4094 13.6158 12.6497 13.8208 12.8511C14.0258 13.0525 14.269 13.2108 14.5361 13.3168C14.8032 13.4227 15.0888 13.4742 15.3761 13.4681ZM19.747 11.8743C19.6415 11.8648 19.5355 11.887 19.4428 11.9381C19.35 11.9893 19.2746 12.0669 19.2263 12.1612C19.1717 12.2527 19.1487 12.3597 19.1609 12.4655C19.1732 12.5714 19.22 12.6703 19.2941 12.7469C19.4756 12.9515 19.669 13.1453 19.8731 13.3273C19.9269 13.3829 19.9928 13.4254 20.0655 13.4516C20.1383 13.4779 20.2161 13.4871 20.293 13.4786C20.3699 13.4702 20.4439 13.4442 20.5092 13.4028C20.5745 13.3614 20.6295 13.3056 20.67 13.2396C21.4022 12.163 22.127 11.0797 22.8441 9.98973C22.883 9.93251 22.9101 9.86806 22.9236 9.80021C22.9371 9.73236 22.9369 9.66248 22.9229 9.59472C22.9089 9.52697 22.8814 9.46271 22.8421 9.40577C22.8028 9.34883 22.7525 9.30036 22.6941 9.26324C22.4284 9.07066 22.1123 9.15035 21.8905 9.47973C21.3805 10.2368 20.8741 10.9969 20.3712 11.7601C20.2477 11.9487 20.152 12.1586 19.8944 11.9075C19.8572 11.873 19.7762 11.8796 19.747 11.873V11.8743Z" fill="#F3F3F3"/>
<path id="Vector_4" d="M28.8713 6.44631C28.7452 6.45295 28.619 6.46225 28.4941 6.46225H6.62125C6.21484 6.46225 6.21484 6.46225 6.21484 6.05717C6.21484 5.20584 6.21484 4.35318 6.21484 3.50186C6.21484 3.30397 6.25867 3.21631 6.48047 3.22693C6.85898 3.24287 7.23883 3.23889 7.61602 3.22693C7.79266 3.22693 7.85906 3.27342 7.85242 3.45537C7.82645 3.70988 7.84215 3.96693 7.89891 4.21639C8.00263 4.58657 8.23511 4.90756 8.55449 5.12156C8.87386 5.33556 9.25915 5.42851 9.64097 5.38366C10.0228 5.33882 10.376 5.15913 10.6371 4.87696C10.8982 4.59478 11.05 4.22866 11.0652 3.84451C11.0864 3.23889 11.0864 3.23889 11.7093 3.23889C12.3322 3.23889 12.9298 3.23889 13.5395 3.23889C13.7174 3.23889 13.7798 3.29068 13.7745 3.47131C13.7591 3.6932 13.7702 3.91613 13.8077 4.13537C13.983 4.96147 14.7215 5.47279 15.5901 5.38912C15.9772 5.34024 16.3333 5.15256 16.5925 4.86091C16.8517 4.56927 16.9962 4.19348 16.9992 3.80334C17.0152 3.23225 17.0152 3.23225 17.5796 3.23225C18.1892 3.23225 18.8002 3.2442 19.4098 3.23225C19.6541 3.22561 19.7219 3.30662 19.7046 3.53772C19.6555 4.21639 19.8666 4.78084 20.4683 5.14607C20.7115 5.29568 20.99 5.37812 21.2755 5.38501C21.5609 5.3919 21.8431 5.32299 22.0932 5.1853C22.3434 5.0476 22.5525 4.84606 22.6994 4.60119C22.8463 4.35632 22.9256 4.0769 22.9293 3.79139C22.9492 3.22826 22.9492 3.22826 23.519 3.22826C24.1405 3.22826 24.7608 3.22826 25.3784 3.22826C25.5563 3.22826 25.6241 3.28006 25.6161 3.46068C25.5979 3.71312 25.6198 3.96685 25.6812 4.2124C25.774 4.55031 25.9757 4.84819 26.2549 5.05995C26.5341 5.27171 26.8753 5.38553 27.2258 5.38381C28.0001 5.38381 28.5685 4.93623 28.8195 4.11678C28.8952 4.20709 28.8647 4.316 28.8647 4.41693C28.8713 5.09295 28.87 5.77029 28.8713 6.44631Z" fill="#F14234"/>
<path id="Vector_5" d="M5.13766 7.39453V7.76242C5.13766 12.0638 5.13988 16.3647 5.1443 20.6652C5.1443 20.9414 5.09118 21.041 4.78969 21.0317C4.03399 21.0065 3.27563 21.0317 2.5186 21.0224C2.06571 21.0224 1.83329 20.7369 1.93954 20.3026C2.9799 16.0313 4.02248 11.761 5.06727 7.49148C5.0884 7.45753 5.11192 7.42513 5.13766 7.39453Z" fill="#CDD6DA"/>
<path id="Vector_6" d="M28.8712 15.6103L28.8633 7.56583C28.873 7.56105 28.8833 7.55749 28.8938 7.5552C29.2285 7.54059 29.6429 7.42239 29.8727 7.59637C30.0798 7.75841 29.9364 8.18606 29.9377 8.49552C29.9377 10.7653 29.9377 13.035 29.9457 15.3048C29.9457 15.5585 29.8952 15.6687 29.623 15.6382C29.3746 15.609 29.1223 15.6182 28.8712 15.6103Z" fill="#C1C8CC"/>
<path id="Vector_7" d="M10.1534 31.2582C9.76563 31.2582 9.37649 31.2582 8.98867 31.2582C8.60086 31.2582 8.38836 31.0643 8.38039 30.6845C8.36578 29.8876 8.38039 29.0907 8.37109 28.2938C8.37109 28.1119 8.4468 28.0893 8.60219 28.1092C9.93828 28.2819 11.3567 29.7242 11.544 31.0935C11.5666 31.2569 11.5055 31.2662 11.3833 31.2649C10.9729 31.2569 10.5638 31.2582 10.1534 31.2582Z" fill="#A1C000"/>
<path id="Vector_8" d="M8.36619 18.4792C8.36619 18.1113 8.36619 17.7434 8.36619 17.3755C8.37416 16.908 8.55612 16.7194 9.01299 16.7114C9.77932 16.7114 10.5456 16.7114 11.312 16.7114C11.5138 16.7114 11.5537 16.7566 11.5152 16.9611C11.2496 18.3623 9.96791 19.6267 8.57205 19.8657C8.37549 19.9003 8.36088 19.8272 8.36354 19.6758C8.37416 19.276 8.36619 18.8776 8.36619 18.4792Z" fill="#A1C000"/>
<path id="Vector_9" d="M31.0195 27.2114C31.0195 25.0617 31.0231 22.9114 31.0302 20.7607C31.2792 20.8421 31.5346 20.9021 31.7938 20.94C32.0727 20.96 32.1006 21.0888 32.098 21.3212C32.0873 22.393 32.098 23.4648 32.098 24.5353C32.098 25.2604 32.0913 25.9856 32.098 26.7107C32.1044 26.7481 32.1028 26.7864 32.0933 26.8231C32.0837 26.8598 32.0664 26.8941 32.0424 26.9235C32.0185 26.9529 31.9886 26.9769 31.9547 26.9938C31.9207 27.0107 31.8835 27.0202 31.8456 27.0215C31.568 27.0746 31.2945 27.1477 31.0195 27.2114Z" fill="#539314"/>
<path id="Vector_10" d="M30.892 31.2477C30.305 31.2477 29.7166 31.2477 29.1296 31.261C28.9636 31.261 28.8972 31.2198 28.937 31.0471C29.2199 29.8492 29.884 28.9381 31.0195 28.4148C31.0195 29.0098 31.0195 29.6101 31.0195 30.2011C31.0222 30.5557 31.0461 30.9117 30.892 31.2477Z" fill="#A1C000"/>
<path id="Vector_11" d="M30.9455 19.5217C29.875 18.9984 29.2415 18.1298 28.9467 16.9982C28.8989 16.8163 28.9188 16.7061 29.1605 16.714C29.7581 16.7353 30.3558 16.7326 30.9535 16.7393C30.983 16.9125 31.0034 17.0872 31.0146 17.2625C31.0212 17.9266 31.0146 18.5787 31.0146 19.2361C31.0185 19.3318 31.0491 19.4447 30.9455 19.5217Z" fill="#A1C000"/>
<path id="Vector_12" d="M28.8733 6.44626C28.8733 5.77025 28.8733 5.0929 28.8733 4.41689C28.8733 4.31595 28.9038 4.20704 28.8281 4.11673C28.8293 3.98292 28.8431 3.84951 28.8693 3.71829C28.9171 3.55626 28.7099 3.28931 29.0366 3.24017C29.5307 3.16579 29.8335 3.32384 29.9212 3.67845C29.9364 3.75002 29.943 3.82313 29.9411 3.89626C29.9411 4.66126 29.9411 5.42626 29.9477 6.18993C29.9477 6.41439 29.8747 6.48345 29.6595 6.46884C29.3966 6.44493 29.1349 6.45157 28.8733 6.44626Z" fill="#C41D1D"/>
<path id="Vector_13" d="M30.8906 31.2477C31.0447 30.9117 31.0234 30.5558 31.0234 30.2012C31.0234 29.6062 31.0234 29.0059 31.0234 28.4148C31.2811 28.2422 31.5799 28.1837 31.8708 28.108C32.0222 28.0695 32.1005 28.108 32.0992 28.2887C32.0899 29.0855 32.0992 29.8824 32.0926 30.6793C32.0982 30.7558 32.0874 30.8326 32.0609 30.9046C32.0345 30.9766 31.993 31.0422 31.9392 31.0969C31.8854 31.1515 31.8205 31.1941 31.7489 31.2217C31.6774 31.2494 31.6007 31.2614 31.5241 31.257C31.3103 31.2637 31.1005 31.2504 30.8906 31.2477Z" fill="#8EAA00"/>
<path id="Vector_14" d="M26.7077 2.68908C26.7077 2.34244 26.7077 1.99448 26.7077 1.64783C26.7077 1.30119 26.9215 1.09401 27.2217 1.08338C27.2931 1.0807 27.3643 1.09246 27.4311 1.11796C27.4979 1.14345 27.5588 1.18216 27.6103 1.23176C27.6617 1.28136 27.7026 1.34083 27.7306 1.40662C27.7585 1.47241 27.7729 1.54316 27.7728 1.61463C27.7914 2.32916 27.7914 3.04414 27.7728 3.75955C27.776 3.8339 27.7632 3.90805 27.7354 3.97707C27.7075 4.04609 27.6653 4.10838 27.6115 4.15979C27.5577 4.21119 27.4936 4.25054 27.4234 4.27519C27.3532 4.29985 27.2785 4.30924 27.2044 4.30276C26.9016 4.28815 26.7143 4.07963 26.7064 3.72901C26.6984 3.37838 26.7077 3.03705 26.7077 2.68908Z" fill="#7D8C92"/>
<path id="Vector_15" d="M14.8506 2.69964C14.8506 2.353 14.8506 2.00503 14.8506 1.65839C14.8493 1.58819 14.8618 1.51842 14.8875 1.45306C14.9131 1.38771 14.9514 1.32804 15.0001 1.27748C15.0489 1.22691 15.107 1.18644 15.1714 1.15837C15.2358 1.13029 15.305 1.11517 15.3752 1.11386C15.4454 1.11255 15.5152 1.12509 15.5805 1.15074C15.6459 1.1764 15.7056 1.21468 15.7561 1.26339C15.8067 1.31211 15.8472 1.3703 15.8752 1.43466C15.9033 1.49902 15.9184 1.56827 15.9197 1.63847C15.929 2.34371 15.9304 3.04894 15.9197 3.75417C15.9239 3.82827 15.9122 3.90241 15.8855 3.97163C15.8587 4.04085 15.8175 4.10357 15.7646 4.15561C15.7117 4.20764 15.6483 4.2478 15.5786 4.27339C15.5089 4.29898 15.4346 4.30942 15.3606 4.30402C15.0538 4.29339 14.8572 4.08355 14.8506 3.74089C14.844 3.39824 14.8506 3.04628 14.8506 2.69964Z" fill="#7D8C92"/>
<path id="Vector_16" d="M20.7807 2.69035C20.7807 2.34238 20.7741 1.99574 20.7807 1.64777C20.7786 1.578 20.7903 1.50851 20.8151 1.44325C20.8398 1.378 20.8772 1.31826 20.9251 1.26745C20.9729 1.21664 21.0303 1.17575 21.094 1.14712C21.1576 1.11849 21.2263 1.10267 21.296 1.10058C21.3658 1.09849 21.4353 1.11016 21.5006 1.13492C21.5658 1.15969 21.6256 1.19706 21.6764 1.24491C21.7272 1.29276 21.7681 1.35015 21.7967 1.41381C21.8253 1.47746 21.8411 1.54613 21.8432 1.61589C21.8578 2.34238 21.8592 3.06886 21.8432 3.79402C21.8425 3.86571 21.8268 3.93645 21.7973 4.00178C21.7677 4.0671 21.725 4.12559 21.6716 4.17353C21.6183 4.22147 21.5557 4.25782 21.4876 4.28028C21.4195 4.30274 21.3475 4.31082 21.2761 4.30402C21.2075 4.30273 21.1399 4.28753 21.0773 4.25935C21.0147 4.23116 20.9585 4.19058 20.9121 4.14005C20.8656 4.08951 20.8299 4.03009 20.8071 3.96536C20.7843 3.90063 20.7749 3.83195 20.7794 3.76347C20.7741 3.40488 20.7807 3.04761 20.7807 2.69035Z" fill="#7D8C92"/>
<path id="Vector_17" d="M30.9453 19.5217C31.0463 19.4447 31.0157 19.3318 31.0157 19.2322C31.0157 18.5748 31.0157 17.916 31.0157 17.2586C31.0045 17.0832 30.9841 16.9085 30.9546 16.7353C31.8843 16.6649 32.1327 16.718 32.0928 17.7633C32.0689 18.3915 32.0848 19.021 32.0928 19.6492C32.0928 19.8325 32.0782 19.9215 31.8537 19.8537C31.5443 19.7555 31.2255 19.6984 30.9453 19.5217Z" fill="#8EAA00"/>
<path id="Vector_18" d="M8.91797 2.65982C8.91797 2.3331 8.91797 2.00638 8.91797 1.68099C8.91797 1.32107 9.15703 1.07271 9.46914 1.08334C9.78125 1.09396 9.98711 1.3317 9.98977 1.67834C9.98977 2.36232 9.98977 3.0463 9.98977 3.73029C9.98977 4.0849 9.77195 4.30404 9.45852 4.30537C9.14508 4.3067 8.92727 4.0849 8.92727 3.73295C8.92727 3.38099 8.91797 3.02107 8.91797 2.65982Z" fill="#7D8C92"/>
<path id="Vector_19" d="M19.7027 27.9273C19.7027 26.9006 19.7027 25.9351 19.7027 24.9656C19.708 24.9331 19.7067 24.8999 19.699 24.8679C19.6912 24.8359 19.6772 24.8058 19.6576 24.7793C19.6381 24.7528 19.6134 24.7305 19.5851 24.7137C19.5568 24.6969 19.5255 24.6859 19.4929 24.6813C18.2976 24.3055 17.5432 23.3054 17.5352 22.1101C17.5273 20.9148 18.2737 19.9107 19.4955 19.5136C19.6562 19.4605 19.7173 19.3888 19.7027 19.2241C19.6908 19.088 19.6908 18.9511 19.7027 18.815C19.7086 18.6872 19.7622 18.5662 19.8529 18.4759C19.9437 18.3857 20.0649 18.3328 20.1928 18.3276C20.3149 18.3164 20.4369 18.349 20.5372 18.4196C20.6374 18.4902 20.7093 18.5941 20.74 18.7127C20.7493 18.742 20.7692 18.7765 20.7626 18.8031C20.639 19.3635 21.003 19.5056 21.4266 19.7035C22.3483 20.1312 22.8185 20.9174 22.9181 21.9215C22.9593 22.3385 22.7614 22.6041 22.4214 22.6241C22.0814 22.644 21.8901 22.4448 21.845 22.0277C21.8258 21.709 21.7142 21.4028 21.5239 21.1464C21.3336 20.8901 21.0727 20.6947 20.7732 20.5841V22.0875C20.7732 22.5616 20.7798 23.0345 20.7732 23.5086C20.7662 23.5458 20.7669 23.5841 20.7753 23.621C20.7837 23.6579 20.7996 23.6927 20.8221 23.7232C20.8445 23.7537 20.8729 23.7793 20.9056 23.7984C20.9384 23.8174 20.9746 23.8295 21.0123 23.834C21.5686 23.9991 22.0564 24.3402 22.4025 24.806C22.7486 25.2719 22.9343 25.8374 22.9317 26.4177C22.9292 26.998 22.7385 27.5619 22.3884 28.0247C22.0382 28.4875 21.5474 28.8242 20.9897 28.9845C20.9547 28.9904 20.9212 29.0032 20.8912 29.0223C20.8612 29.0413 20.8354 29.0662 20.8152 29.0954C20.795 29.1247 20.7809 29.1576 20.7737 29.1924C20.7665 29.2272 20.7663 29.2631 20.7732 29.2979C20.7846 29.4547 20.7752 29.6124 20.7453 29.7667C20.7202 29.8922 20.649 30.0038 20.5458 30.0795C20.4426 30.1552 20.3147 30.1896 20.1875 30.1758C19.9086 30.1333 19.6762 29.9686 19.7147 29.6817C19.7837 29.1731 19.5354 29.0177 19.109 28.8331C18.1475 28.416 17.6282 27.6258 17.5525 26.5752C17.5219 26.1502 17.6853 25.9112 18.0213 25.8873C18.3719 25.8567 18.5884 26.0679 18.6243 26.4956C18.6854 27.1716 19.0347 27.6311 19.7027 27.9273ZM19.6868 20.6226C19.0413 20.8045 18.6057 21.4487 18.6243 22.1659C18.6455 22.8299 19.1037 23.4395 19.6868 23.5697V20.6226ZM20.7812 27.91C21.4373 27.6444 21.8437 27.1131 21.8503 26.4716C21.8665 26.1755 21.7981 25.8808 21.653 25.622C21.5079 25.3633 21.2921 25.1513 21.0308 25.0107C20.9458 24.9602 20.7851 24.8115 20.7838 25.0811C20.7785 26.0134 20.7812 26.9445 20.7812 27.906V27.91Z" fill="#F2F3F1"/>
<path id="Vector_20" d="M25.633 23.7237C25.6293 23.4394 25.6821 23.1572 25.7884 22.8935C25.8947 22.6298 26.0523 22.3899 26.2521 22.1876C26.4519 21.9853 26.69 21.8247 26.9523 21.7152C27.2147 21.6057 27.4962 21.5494 27.7806 21.5496C28.0647 21.548 28.3463 21.6024 28.6094 21.7097C28.8725 21.817 29.1119 21.975 29.3139 22.1748C29.5159 22.3746 29.6766 22.6122 29.7868 22.8741C29.897 23.136 29.9545 23.417 29.956 23.7012C29.9576 23.9853 29.9032 24.2669 29.7959 24.53C29.6887 24.7931 29.5306 25.0325 29.3308 25.2345C29.131 25.4365 28.8934 25.5972 28.6315 25.7074C28.3696 25.8175 28.0886 25.8751 27.8045 25.8766C27.5201 25.8794 27.238 25.8258 26.9745 25.7188C26.711 25.6119 26.4713 25.4537 26.2693 25.2535C26.0674 25.0532 25.9071 24.8149 25.7979 24.5524C25.6887 24.2898 25.6326 24.0081 25.633 23.7237ZM27.758 24.769C27.9002 24.7756 28.0422 24.7535 28.1757 24.7042C28.3092 24.6548 28.4314 24.5792 28.5351 24.4817C28.6388 24.3842 28.7218 24.2669 28.7793 24.1367C28.8367 24.0065 28.8675 23.866 28.8696 23.7237C28.8603 23.4428 28.7478 23.1751 28.5534 22.972C28.3591 22.7688 28.0967 22.6445 27.8164 22.6227C27.5297 22.6237 27.2547 22.7368 27.0502 22.9378C26.8457 23.1388 26.7279 23.4118 26.7221 23.6985C26.7151 23.838 26.7369 23.9774 26.7861 24.1081C26.8352 24.2389 26.9107 24.3581 27.0078 24.4584C27.1049 24.5588 27.2216 24.6381 27.3507 24.6916C27.4797 24.745 27.6184 24.7713 27.758 24.769Z" fill="#030302"/>
<path id="Vector_21" d="M10.5469 23.721C10.5427 23.1519 10.7637 22.6041 11.1618 22.1973C11.5599 21.7905 12.1028 21.5576 12.6719 21.5496C13.2377 21.5559 13.7786 21.7834 14.1787 22.1836C14.5788 22.5837 14.8063 23.1246 14.8126 23.6904C14.8188 24.2562 14.6033 24.8019 14.2121 25.2108C13.821 25.6197 13.2853 25.8591 12.7197 25.8779C12.4353 25.8795 12.1534 25.8249 11.8901 25.7173C11.6268 25.6096 11.3873 25.4511 11.1855 25.2507C10.9836 25.0503 10.8233 24.812 10.7137 24.5495C10.6041 24.287 10.5475 24.0055 10.5469 23.721ZM12.6799 24.7689C12.8217 24.7748 12.9632 24.752 13.0959 24.7018C13.2286 24.6516 13.3498 24.5751 13.4522 24.4768C13.5546 24.3785 13.636 24.2605 13.6916 24.13C13.7471 23.9994 13.7757 23.859 13.7756 23.7171C13.7687 23.4313 13.653 23.1589 13.4521 22.9555C13.2512 22.7521 12.9802 22.6331 12.6945 22.6227C12.4155 22.6313 12.1502 22.7461 11.9528 22.9435C11.7554 23.1409 11.6407 23.4061 11.632 23.6852C11.6231 23.8268 11.6438 23.9687 11.6928 24.1018C11.7418 24.235 11.8181 24.3564 11.9167 24.4584C12.0153 24.5604 12.1341 24.6407 12.2656 24.6942C12.397 24.7476 12.5381 24.7731 12.6799 24.7689Z" fill="#030302"/>
<path id="Vector_22" d="M9.99932 13.4681C9.57392 13.4694 9.15766 13.3447 8.80311 13.1096C8.44855 12.8745 8.17158 12.5397 8.00716 12.1474C7.84273 11.755 7.79823 11.3228 7.87927 10.9051C7.9603 10.4875 8.16324 10.1033 8.46247 9.80091C8.76169 9.49853 9.1438 9.29158 9.56054 9.20618C9.97728 9.12078 10.41 9.16076 10.804 9.32107C11.1981 9.48137 11.5358 9.75483 11.7745 10.1069C12.0133 10.459 12.1424 10.8739 12.1456 11.2993C12.1491 11.5832 12.0961 11.8649 11.9898 12.1282C11.8835 12.3914 11.7259 12.6309 11.5262 12.8327C11.3265 13.0345 11.0887 13.1946 10.8265 13.3037C10.5644 13.4128 10.2832 13.4687 9.99932 13.4681ZM11.0618 11.3126C11.052 11.034 10.9345 10.7701 10.7339 10.5764C10.5334 10.3828 10.2655 10.2746 9.9867 10.2746C9.70793 10.2746 9.44004 10.3828 9.23949 10.5764C9.03894 10.7701 8.92138 11.034 8.91158 11.3126C8.90651 11.4569 8.93056 11.6009 8.9823 11.7357C9.03405 11.8706 9.11243 11.9937 9.21276 12.0976C9.3131 12.2015 9.43333 12.2842 9.5663 12.3406C9.69927 12.3971 9.84224 12.4262 9.9867 12.4262C10.1312 12.4262 10.2741 12.3971 10.4071 12.3406C10.5401 12.2842 10.6603 12.2015 10.7606 12.0976C10.861 11.9937 10.9394 11.8706 10.9911 11.7357C11.0428 11.6009 11.0669 11.4569 11.0618 11.3126Z" fill="#030302"/>
<path id="Vector_23" d="M26.1513 13.4681C25.7246 13.467 25.3077 13.3391 24.9538 13.1007C24.5999 12.8622 24.3248 12.524 24.1636 12.1289C24.0023 11.7338 23.9621 11.2996 24.048 10.8816C24.134 10.4636 24.3422 10.0806 24.6463 9.78117C24.9504 9.48175 25.3366 9.27947 25.7559 9.20001C26.1752 9.12054 26.6087 9.16748 27.0012 9.33487C27.3938 9.50225 27.7277 9.78253 27.9607 10.1401C28.1936 10.4977 28.315 10.9164 28.3095 11.3431C28.3049 11.9111 28.075 12.4539 27.6703 12.8524C27.2656 13.2509 26.7192 13.4724 26.1513 13.4681ZM27.2324 11.3272C27.2375 11.1828 27.2134 11.0389 27.1617 10.904C27.1099 10.7692 27.0316 10.6461 26.9312 10.5422C26.8309 10.4383 26.7106 10.3556 26.5777 10.2992C26.4447 10.2427 26.3017 10.2136 26.1573 10.2136C26.0128 10.2136 25.8699 10.2427 25.7369 10.2992C25.6039 10.3556 25.4837 10.4383 25.3833 10.5422C25.283 10.6461 25.2046 10.7692 25.1529 10.904C25.1011 11.0389 25.0771 11.1828 25.0822 11.3272C25.092 11.6058 25.2095 11.8697 25.4101 12.0633C25.6106 12.257 25.8785 12.3652 26.1573 12.3652C26.4361 12.3652 26.7039 12.257 26.9045 12.0633C27.105 11.8697 27.2226 11.6058 27.2324 11.3272Z" fill="#030302"/>
<path id="Vector_24" d="M15.3767 13.4693C14.9512 13.4677 14.5356 13.3402 14.1825 13.1027C13.8294 12.8652 13.5545 12.5284 13.3925 12.1349C13.2306 11.7414 13.1888 11.3087 13.2725 10.8914C13.3562 10.4742 13.5616 10.0911 13.8628 9.79044C14.164 9.48981 14.5475 9.28511 14.9649 9.20219C15.3823 9.11926 15.8149 9.16182 16.2081 9.32449C16.6014 9.48715 16.9376 9.76265 17.1745 10.1162C17.4113 10.4698 17.5381 10.8856 17.5389 11.3111C17.5387 11.5948 17.4827 11.8757 17.3739 12.1377C17.2651 12.3998 17.1058 12.6378 16.905 12.8382C16.7042 13.0386 16.4659 13.1975 16.2036 13.3058C15.9414 13.4141 15.6604 13.4697 15.3767 13.4693ZM16.4552 11.3217C16.4566 11.1796 16.4297 11.0387 16.3761 10.9071C16.3226 10.7755 16.2434 10.6558 16.1431 10.5551C16.0429 10.4544 15.9237 10.3746 15.7923 10.3204C15.661 10.2662 15.5201 10.2386 15.378 10.2393C15.0915 10.2438 14.8182 10.3609 14.6172 10.5651C14.4162 10.7694 14.3036 11.0445 14.3036 11.331C14.3077 11.6115 14.421 11.8794 14.6193 12.0778C14.8177 12.2762 15.0856 12.3894 15.3661 12.3935C15.5086 12.3971 15.6504 12.3719 15.783 12.3196C15.9156 12.2672 16.0364 12.1887 16.138 12.0886C16.2396 11.9886 16.32 11.8692 16.3745 11.7374C16.429 11.6057 16.4564 11.4643 16.4552 11.3217Z" fill="#030302"/>
<path id="Vector_25" d="M19.748 11.8729C19.7772 11.8729 19.8582 11.8729 19.8954 11.9101C20.1531 12.1584 20.2487 11.9512 20.3722 11.7627C20.8742 10.9994 21.3807 10.2393 21.8916 9.48226C22.1134 9.15289 22.4228 9.0732 22.6951 9.26578C22.7531 9.3029 22.8031 9.35124 22.8422 9.40796C22.8813 9.46469 22.9086 9.52865 22.9226 9.59609C22.9366 9.66353 22.9369 9.73308 22.9236 9.80066C22.9103 9.86824 22.8837 9.93248 22.8452 9.98961C22.1307 11.0787 21.4077 12.1615 20.6764 13.2382C20.6359 13.3041 20.5809 13.36 20.5156 13.4014C20.4502 13.4428 20.3763 13.4687 20.2994 13.4772C20.2225 13.4856 20.1447 13.4764 20.0719 13.4502C19.9991 13.424 19.9333 13.3814 19.8795 13.3259C19.6753 13.1438 19.482 12.95 19.3004 12.7455C19.2263 12.6689 19.1795 12.57 19.1673 12.4641C19.155 12.3582 19.178 12.2513 19.2327 12.1598C19.2806 12.0664 19.3552 11.9893 19.4469 11.9382C19.5386 11.8872 19.6434 11.8644 19.748 11.8729Z" fill="#60A817"/>
<path id="Vector_26" d="M19.6842 20.6187V23.5658C19.1064 23.4329 18.6482 22.8247 18.6217 22.1619C18.6031 21.4447 19.0387 20.8006 19.6842 20.6187Z" fill="#60A817"/>
<path id="Vector_27" d="M20.7773 27.9061C20.7773 26.9446 20.7773 26.0135 20.7773 25.0825C20.7773 24.8169 20.9394 24.9617 21.0244 25.0121C21.2856 25.1527 21.5014 25.3647 21.6465 25.6235C21.7916 25.8822 21.8601 26.1769 21.8438 26.4731C21.8345 27.1066 21.4334 27.6445 20.7773 27.9061Z" fill="#60A817"/>
<path id="Vector_28" d="M27.7599 24.7691C27.6202 24.7714 27.4816 24.7451 27.3525 24.6916C27.2235 24.6382 27.1068 24.5589 27.0097 24.4585C26.9126 24.3582 26.8371 24.2389 26.7879 24.1082C26.7388 23.9775 26.717 23.8381 26.7239 23.6986C26.7298 23.4119 26.8476 23.1389 27.0521 22.9379C27.2566 22.7369 27.5315 22.6238 27.8183 22.6228C28.0986 22.6446 28.361 22.7689 28.5553 22.972C28.7496 23.1752 28.8622 23.4429 28.8715 23.7238C28.8693 23.8661 28.8386 24.0065 28.7811 24.1367C28.7237 24.2669 28.6406 24.3843 28.5369 24.4818C28.4333 24.5793 28.311 24.6549 28.1776 24.7043C28.0441 24.7536 27.902 24.7757 27.7599 24.7691Z" fill="#008700"/>
<path id="Vector_29" d="M12.6787 24.7691C12.5368 24.7738 12.3955 24.7488 12.2638 24.6957C12.1321 24.6427 12.013 24.5627 11.9139 24.4609C11.8149 24.3592 11.7383 24.2379 11.6888 24.1048C11.6394 23.9717 11.6183 23.8297 11.6269 23.688C11.6355 23.4089 11.7502 23.1437 11.9477 22.9463C12.1451 22.7489 12.4103 22.6341 12.6894 22.6255C12.9751 22.6359 13.246 22.7549 13.4469 22.9583C13.6478 23.1617 13.7635 23.4341 13.7705 23.7199C13.7702 23.8612 13.7415 24.001 13.686 24.131C13.6305 24.261 13.5494 24.3784 13.4475 24.4764C13.3456 24.5743 13.225 24.6507 13.0929 24.701C12.9608 24.7513 12.82 24.7744 12.6787 24.7691Z" fill="#008700"/>
<path id="Vector_30" d="M11.0689 11.3124C11.0739 11.4568 11.0499 11.6007 10.9981 11.7355C10.9464 11.8704 10.868 11.9935 10.7677 12.0974C10.6674 12.2013 10.5471 12.284 10.4141 12.3404C10.2812 12.3969 10.1382 12.426 9.99375 12.426C9.8493 12.426 9.70632 12.3969 9.57335 12.3404C9.44038 12.284 9.32015 12.2013 9.21981 12.0974C9.11948 11.9935 9.0411 11.8704 8.98935 11.7355C8.93761 11.6007 8.91356 11.4568 8.91863 11.3124C8.92843 11.0338 9.04599 10.7699 9.24654 10.5763C9.44709 10.3826 9.71498 10.2744 9.99375 10.2744C10.2725 10.2744 10.5404 10.3826 10.741 10.5763C10.9415 10.7699 11.0591 11.0338 11.0689 11.3124Z" fill="#FAD800"/>
<path id="Vector_31" d="M27.2329 11.3272C27.2231 11.6058 27.1056 11.8697 26.905 12.0633C26.7045 12.257 26.4366 12.3652 26.1578 12.3652C25.879 12.3652 25.6112 12.257 25.4106 12.0633C25.21 11.8697 25.0925 11.6058 25.0827 11.3272C25.0776 11.1828 25.1017 11.0389 25.1534 10.9041C25.2052 10.7692 25.2835 10.6461 25.3839 10.5422C25.4842 10.4383 25.6044 10.3556 25.7374 10.2992C25.8704 10.2427 26.0134 10.2136 26.1578 10.2136C26.3023 10.2136 26.4452 10.2427 26.5782 10.2992C26.7112 10.3556 26.8314 10.4383 26.9318 10.5422C27.0321 10.6461 27.1105 10.7692 27.1622 10.9041C27.214 11.0389 27.238 11.1828 27.2329 11.3272Z" fill="#FAD800"/>
<path id="Vector_32" d="M16.4535 11.3217C16.4535 11.4629 16.4254 11.6027 16.3708 11.733C16.3161 11.8632 16.2361 11.9812 16.1353 12.0801C16.0345 12.1791 15.915 12.2569 15.7838 12.3091C15.6526 12.3613 15.5123 12.3868 15.3711 12.3842C15.0906 12.3801 14.8227 12.2668 14.6243 12.0684C14.426 11.8701 14.3127 11.6022 14.3086 11.3217C14.3086 11.0351 14.4212 10.76 14.6222 10.5558C14.8232 10.3515 15.0965 10.2345 15.383 10.23C15.5254 10.2301 15.6663 10.2586 15.7975 10.3138C15.9286 10.369 16.0475 10.4498 16.1472 10.5514C16.2468 10.653 16.3252 10.7735 16.3778 10.9057C16.4304 11.038 16.4562 11.1794 16.4535 11.3217Z" fill="#FAD800"/>
</g>
</svg>
