<svg width="34" height="34" viewBox="0 0 34 34" fill="none" xmlns="http://www.w3.org/2000/svg">
<g id="Cambiar">
<path id="Vector" d="M13.2246 22.0654C13.2937 21.6457 13.4278 21.5341 13.9007 21.5341C16.2661 21.5341 18.6314 21.5248 20.9968 21.5434C21.3328 21.5434 21.3886 21.4451 21.386 21.145C21.37 19.5008 21.386 17.8565 21.3767 16.2123C21.3767 15.9613 21.3767 15.7209 21.6516 15.5908C21.9265 15.4606 22.1125 15.6213 22.3064 15.774L32.8756 24.0934C33.3311 24.4507 33.3258 24.7575 32.8583 25.1015L22.2028 33.0954C22.1058 33.1685 22.0049 33.2362 21.9053 33.3066H21.5865C21.3209 33.1366 21.2744 32.8883 21.2757 32.5934C21.285 31.0129 21.2757 29.4311 21.2864 27.8507C21.2864 27.609 21.2226 27.5585 20.9889 27.5585C17.6473 27.5673 14.3057 27.5673 10.9642 27.5585C9.61879 27.5585 8.30793 27.3752 7.05816 26.8307C5.24527 26.0338 3.98355 24.6884 3.11894 22.9419C2.48872 21.6322 2.10728 20.2167 1.99402 18.7676C1.97011 18.502 2.01261 18.2669 2.2809 18.1567C2.54918 18.0465 2.73511 18.1766 2.91308 18.3825C4.14691 19.8102 5.73004 20.6576 7.5323 21.1317C8.75833 21.4359 10.0204 21.5699 11.2829 21.5301C11.4303 21.5301 11.5791 21.5301 11.7278 21.5301C12.113 21.5461 12.2458 21.6696 12.3069 22.0614C12.2352 22.3682 12.0413 22.4904 11.7278 22.4824C11.2723 22.4718 10.8168 22.4824 10.3625 22.4691C8.61207 22.408 6.91871 22.0919 5.31566 21.3455C4.74988 21.0799 4.23324 20.7319 3.69402 20.4225V20.4318L3.62629 20.3587C3.49982 20.2225 3.34277 20.1182 3.16808 20.0546C3.25354 20.6393 3.40963 21.2115 3.63293 21.7586C4.7273 24.7176 7.08605 26.4322 10.2005 26.5783C11.1979 26.6248 12.1927 26.6102 13.1901 26.6115C16.0536 26.6115 18.9183 26.6115 21.7818 26.6115C22.1071 26.674 22.236 26.8772 22.2346 27.1986C22.2346 28.0672 22.2346 28.9358 22.2426 29.8044V31.8218C22.3452 31.804 22.4388 31.752 22.5082 31.6744L28.5087 27.1773C29.5712 26.3804 30.6337 25.5703 31.7161 24.7787C31.9313 24.6207 31.9114 24.5383 31.7161 24.3936C31.3469 24.1279 30.9936 23.8411 30.635 23.5622C30.6223 23.545 30.6081 23.529 30.5925 23.5144C27.9071 21.3849 25.2172 19.263 22.5229 17.1486C22.4764 17.1115 22.4325 17.0517 22.3316 17.1022V17.4342C22.3316 18.8978 22.3316 20.3614 22.3316 21.825C22.3316 22.3124 22.1736 22.489 21.726 22.489C19.0857 22.489 16.4453 22.489 13.805 22.489C13.4969 22.489 13.2964 22.3722 13.2246 22.0654Z" fill="#040303"/>
<path id="Vector_2" d="M20.683 6.89172H21.5145C21.6114 7.30343 21.719 7.39375 22.1506 7.39109C23.1255 7.39109 24.1003 7.38312 25.0605 7.58101C27.3254 8.04763 28.967 9.31953 29.9852 11.3967C29.8405 11.4246 29.7475 11.3197 29.6439 11.2533C28.0369 10.208 26.2519 9.69539 24.362 9.56257C23.3513 9.49351 22.3339 9.46695 21.3166 9.4789C19.6192 9.50015 17.9219 9.4882 16.2259 9.4789C15.4339 9.47487 14.6424 9.51611 13.8552 9.60242C12.7488 9.72593 12.1153 10.3993 12.0927 11.5043C11.7461 11.5827 11.6677 11.8363 11.6677 12.1471C11.6677 13.1273 11.6584 14.1061 11.6545 15.0849C10.6982 14.5005 9.86414 13.7568 8.98094 13.0741C7.68867 12.086 6.41766 11.0634 5.13867 10.0487C4.50516 9.54664 3.87695 9.03797 3.24609 8.53195C3.27501 8.50191 3.3056 8.47353 3.33773 8.44695L11.604 2.24328C11.6438 2.21406 11.681 2.16625 11.7687 2.20875V2.50492C11.7687 3.91539 11.7687 5.3263 11.7687 6.73765C11.7687 7.24101 11.9121 7.38976 12.4035 7.38976H20.0376C20.4705 7.38976 20.5609 7.31539 20.683 6.89172Z" fill="#E02437"/>
<path id="Vector_3" d="M22.2413 29.7938C22.2413 28.9252 22.2293 28.0566 22.2333 27.188C22.2333 26.8653 22.1005 26.6568 21.7804 26.601C21.7127 25.3738 20.8188 24.5158 19.593 24.5145C16.8371 24.5145 14.0826 24.5145 11.3267 24.5145C10.5463 24.5158 9.76693 24.4558 8.99586 24.3352C8.07328 24.1995 7.18648 23.8834 6.38615 23.4048C5.58581 22.9262 4.88762 22.2947 4.33148 21.5461C4.07383 21.2101 3.77898 20.8821 3.69531 20.4345C4.23453 20.744 4.75781 21.0919 5.31695 21.3576C6.9107 22.104 8.60938 22.4201 10.3638 22.4811C10.818 22.4971 11.2736 22.4811 11.7291 22.4944C12.0373 22.5024 12.2365 22.3802 12.3082 22.0734H13.2273C13.299 22.3802 13.4929 22.4971 13.8077 22.4971C16.448 22.4971 19.0883 22.4971 21.7286 22.4971C22.1762 22.4971 22.3329 22.3231 22.3342 21.833C22.3342 20.3694 22.3342 18.9058 22.3342 17.4422V17.1102C22.4352 17.0597 22.479 17.1195 22.5255 17.1567C25.2171 19.2658 27.9057 21.3828 30.5912 23.5078C30.6067 23.5224 30.6209 23.5384 30.6337 23.5556C30.5759 23.6573 30.4937 23.7431 30.3946 23.8053C27.9615 25.6301 25.5266 27.4528 23.0899 29.2732C22.827 29.4658 22.5932 29.7301 22.2413 29.7938Z" fill="#1BBA85"/>
<path id="Vector_4" d="M29.9871 11.394C28.9724 9.31414 27.3308 8.04224 25.0624 7.57828C24.1022 7.38039 23.1273 7.38571 22.1525 7.38836C21.7208 7.38836 21.6133 7.30071 21.5163 6.88899C21.5787 6.62336 21.7421 6.44805 22.021 6.44274C23.5085 6.41219 24.9893 6.44274 26.4158 6.95672C28.485 7.69649 29.926 9.11625 30.8849 11.0593C31.5102 12.3605 31.8911 13.7655 32.0085 15.2044C32.0337 15.4793 32.0085 15.7277 31.719 15.8432C31.4294 15.9588 31.2634 15.8153 31.0881 15.6108C29.8556 14.1777 28.2618 13.3463 26.4636 12.8642C25.3632 12.584 24.2308 12.45 23.0954 12.4658C19.7101 12.4658 16.322 12.4658 12.9406 12.4658C12.6604 12.4658 12.6179 12.5561 12.6192 12.8071C12.6311 14.4739 12.6192 16.1394 12.6192 17.8062C12.6192 18.0572 12.6192 18.2963 12.3403 18.4251C12.0614 18.5539 11.8954 18.4025 11.7094 18.2551L1.1163 9.89985C0.676692 9.55453 0.679349 9.24774 1.12825 8.91039L11.821 0.893831C12.0136 0.750394 12.2035 0.620237 12.4572 0.75305C12.7108 0.885862 12.7228 1.10899 12.7228 1.35071C12.7228 2.9325 12.7228 4.51297 12.7148 6.09477C12.7148 6.36039 12.7573 6.44805 13.0508 6.44539C15.3644 6.43078 17.678 6.44539 19.9916 6.43477C20.3369 6.43477 20.5933 6.52907 20.6862 6.89164C20.564 7.31532 20.4737 7.38969 20.0408 7.38969H12.4054C11.914 7.38969 11.7705 7.24094 11.7705 6.73758C11.7705 5.32711 11.7705 3.9162 11.7705 2.50485V2.20867C11.6829 2.16617 11.6457 2.20867 11.6058 2.24321L3.33958 8.44688C3.30745 8.47345 3.27686 8.50183 3.24794 8.53188C2.92255 8.76563 2.6038 9.01266 2.27044 9.23844C2.07122 9.37125 2.08052 9.45493 2.27044 9.60235C5.33664 12.0089 8.40018 14.419 11.4611 16.8327C11.5142 16.8738 11.562 16.9509 11.659 16.8951V15.0902C11.659 14.1113 11.6696 13.1325 11.6722 12.1523C11.6722 11.8416 11.7506 11.5879 12.0972 11.5095C15.6628 11.5095 19.2288 11.5095 22.7953 11.5095C23.3998 11.4998 24.0044 11.5206 24.6068 11.572C26.4237 11.7566 28.1357 12.2466 29.7068 13.2029C30.088 13.4353 30.4121 13.7448 30.8079 13.9506C30.8198 13.9613 30.8411 13.9838 30.8437 13.9812C30.8769 13.9573 30.8583 13.94 30.8318 13.9267C30.6909 13.0419 30.4055 12.1862 29.9871 11.394Z" fill="#040303"/>
<path id="Vector_5" d="M3.69656 20.4279C3.78023 20.8715 4.07508 21.2035 4.33273 21.5395C4.88887 22.288 5.58706 22.9196 6.3874 23.3982C7.18773 23.8768 8.07453 24.1929 8.99711 24.3286C9.76818 24.4492 10.5475 24.5092 11.328 24.5079C14.0838 24.5079 16.8384 24.5079 19.5942 24.5079C20.8201 24.5079 21.7192 25.3672 21.7816 26.5944C18.9182 26.5944 16.0534 26.605 13.19 26.5944C12.1926 26.5944 11.1978 26.6077 10.2004 26.5612C7.08461 26.4151 4.72719 24.7018 3.63281 21.7414C3.41085 21.1998 3.25478 20.6335 3.16797 20.0547C3.34516 20.1208 3.50373 20.2288 3.63016 20.3695L3.69789 20.4425L3.69656 20.4279Z" fill="#149261"/>
<path id="Vector_6" d="M22.2422 29.7938C22.5941 29.73 22.8279 29.4657 23.0909 29.2625C25.532 27.4483 27.9668 25.6257 30.3955 23.7946C30.4947 23.7325 30.5768 23.6467 30.6346 23.5449C30.9932 23.8238 31.3465 24.1107 31.7157 24.3763C31.9162 24.5211 31.9362 24.6034 31.7157 24.7615C30.6399 25.5584 29.5761 26.3552 28.5083 27.1601L22.5131 31.6638C22.4437 31.7414 22.3501 31.7934 22.2475 31.8112L22.2422 29.7938Z" fill="#149261"/>
<path id="Vector_7" d="M29.9862 11.3939C30.4043 12.1879 30.6888 13.0454 30.8283 13.9319L30.8044 13.9558C30.4059 13.75 30.0845 13.4405 29.7034 13.2081C28.1322 12.2518 26.4202 11.7618 24.6034 11.5772C24.0009 11.5258 23.3963 11.505 22.7918 11.5147C19.2253 11.5094 15.6593 11.5094 12.0938 11.5147C12.1163 10.4097 12.7498 9.73637 13.8562 9.61286C14.6434 9.52654 15.4349 9.48531 16.2269 9.48934C17.9229 9.48934 19.6202 9.50528 21.3176 9.48934C22.3349 9.47739 23.3523 9.50395 24.363 9.57301C26.2529 9.70582 28.0379 10.2185 29.6449 11.2611C29.7498 11.3168 29.8415 11.4218 29.9862 11.3939Z" fill="#C41A32"/>
<path id="Vector_8" d="M11.6575 15.0903V16.8952C11.5605 16.951 11.5127 16.8739 11.4596 16.8328C8.39692 14.4227 5.33338 12.0126 2.26896 9.60245C2.08169 9.45503 2.07239 9.37269 2.26896 9.23854C2.60497 9.01276 2.92372 8.76573 3.24911 8.53198C3.87997 9.038 4.50818 9.54667 5.14169 10.0487C6.42068 11.0634 7.69169 12.086 8.98396 13.0795C9.86716 13.7595 10.7012 14.5059 11.6575 15.0903Z" fill="#C41A32"/>
<path id="Vector_9" d="M30.8286 13.9321C30.8552 13.9454 30.8738 13.9627 30.8405 13.9866C30.8405 13.9866 30.8166 13.9667 30.8047 13.956L30.8286 13.9321Z" fill="#C41A32"/>
</g>
</svg>
