<svg width="34" height="33" viewBox="0 0 34 33" fill="none" xmlns="http://www.w3.org/2000/svg">
<g id="Capa 27">
<path id="Vector" d="M33.3356 9.71218V23.7465C33.1509 24.0214 32.888 24.0825 32.5679 24.0798C31.176 24.0666 29.7788 24.0798 28.3909 24.0679C28.1253 24.0679 28.0563 24.133 28.0576 24.3999C28.0682 26.8344 28.0576 29.2675 28.0576 31.7046C28.0576 32.378 27.9248 32.5081 27.2607 32.5081H6.72923C6.07579 32.5081 5.94431 32.3753 5.94431 31.7245C5.94431 29.2794 5.94431 26.8344 5.94431 24.3906C5.94431 24.1436 5.88853 24.0679 5.63087 24.0705C4.239 24.0838 2.84181 24.0772 1.45392 24.0772C0.809777 24.0772 0.666339 23.9351 0.666339 23.2949C0.666339 18.9041 0.666339 14.5142 0.666339 10.1252C0.654527 9.95673 0.688838 9.78821 0.765588 9.63775C0.842338 9.48729 0.958627 9.36059 1.10196 9.27124C2.63993 8.20874 4.16595 7.13163 5.70259 6.06647C5.78311 6.02041 5.84907 5.95267 5.89298 5.87096C5.93689 5.78925 5.95697 5.69685 5.95095 5.60429C5.939 4.28546 5.94431 2.96796 5.95095 1.64913C5.95095 1.05015 6.10103 0.904053 6.70931 0.904053H27.3085C27.9155 0.904053 28.0656 1.05147 28.0656 1.65179C28.0656 2.94804 28.0735 4.24562 28.0589 5.54186C28.0505 5.65501 28.0745 5.76822 28.1281 5.8682C28.1817 5.96818 28.2628 6.05079 28.3617 6.10632C29.8599 7.13827 31.3513 8.20077 32.8495 9.23936C33.0459 9.35729 33.2122 9.51913 33.3356 9.71218ZM17.0209 10.3922H2.15915C1.73548 10.3922 1.73548 10.3922 1.73548 10.8291C1.73548 14.7719 1.73548 18.7155 1.73548 22.6601C1.73548 22.9376 1.7886 23.0412 2.09806 23.0412C12.036 23.0315 21.9748 23.0315 31.9145 23.0412C32.2186 23.0412 32.2824 22.9469 32.281 22.6627C32.2731 18.7093 32.2731 14.7551 32.281 10.7999C32.281 10.3935 32.281 10.3922 31.86 10.3922H17.0209ZM17.0129 1.95858H7.28837C7.13431 1.95858 6.9829 1.91343 6.98423 2.18171C6.99485 4.49884 6.99485 6.81598 6.98423 9.13311C6.98423 9.30976 7.04665 9.34296 7.2047 9.33897C7.58587 9.32968 7.9697 9.32702 8.3522 9.33897C8.53681 9.33897 8.58196 9.28187 8.57931 9.10522C8.56868 8.53147 8.57267 7.95772 8.57931 7.37866C8.57931 6.88062 8.75196 6.70265 9.24337 6.70265H24.7718C25.2473 6.70265 25.4239 6.88327 25.4266 7.35741C25.4266 7.90991 25.4385 8.46374 25.4266 9.01491C25.4266 9.24999 25.4611 9.35757 25.7294 9.33632C26.0582 9.30975 26.3887 9.30975 26.7175 9.33632C26.9831 9.35757 27.0256 9.26061 27.0243 9.02022C27.0155 6.77835 27.0155 4.53603 27.0243 2.29327C27.0243 2.01038 26.9566 1.9453 26.6763 1.9453C23.453 1.95858 20.2336 1.95858 17.0129 1.95858ZM16.9996 31.4602H26.2832C27.015 31.4602 27.015 31.4602 27.015 30.7151C27.015 28.5994 27.015 26.4837 27.015 24.3694C27.015 24.1343 26.9645 24.0533 26.7188 24.0692C26.3589 24.0918 25.9963 24.0825 25.6351 24.0692C25.4677 24.0692 25.4159 24.1183 25.4186 24.2857C25.4279 24.8169 25.4186 25.3482 25.4186 25.8794C25.4186 26.586 25.2858 26.7135 24.5819 26.7135H13.3977C12.0271 26.7135 10.6547 26.7135 9.28056 26.7135C8.74931 26.7135 8.57532 26.5369 8.574 26.0043C8.574 25.4412 8.5647 24.878 8.574 24.3149C8.574 24.113 8.51689 24.0586 8.32298 24.0679C7.97262 24.0871 7.62147 24.0871 7.2711 24.0679C7.02275 24.0519 6.97626 24.1396 6.97759 24.3707C6.98556 26.6356 6.98556 28.8996 6.97759 31.1627C6.97759 31.435 7.07454 31.4642 7.30431 31.4642C10.5396 31.458 13.7714 31.4567 16.9996 31.4602ZM16.9797 9.32569C19.3384 9.32569 21.6959 9.32569 24.0546 9.32569C24.3202 9.32569 24.3973 9.24999 24.3787 8.98968C24.3588 8.66105 24.3588 8.33151 24.3787 8.00288C24.3893 7.79304 24.3202 7.73726 24.1131 7.73726C23.4025 7.75054 22.6906 7.73726 21.9788 7.73726C17.9731 7.73726 13.9684 7.73726 9.96454 7.73726C9.70954 7.73726 9.60196 7.78507 9.62321 8.06265C9.64845 8.38045 9.64845 8.69976 9.62321 9.01757C9.60329 9.28319 9.70157 9.32702 9.94196 9.32569C12.2888 9.32171 14.6356 9.32569 16.9837 9.32569H16.9797ZM16.9943 25.6616H22.1249C22.7889 25.6616 23.4636 25.6537 24.1317 25.6616C24.3335 25.6616 24.3867 25.6019 24.3774 25.4093C24.3561 25.0807 24.3561 24.7511 24.3774 24.4225C24.3999 24.1383 24.3096 24.0719 24.0281 24.0719C20.9256 24.0838 17.8244 24.0798 14.7219 24.0798C13.1401 24.0798 11.557 24.0798 9.97384 24.0732C9.70821 24.0732 9.58337 24.1091 9.61524 24.4132C9.64422 24.7224 9.64422 25.0337 9.61524 25.3429C9.59134 25.6085 9.68696 25.6709 9.9486 25.6696C12.302 25.6523 14.6502 25.6563 16.9996 25.6563L16.9943 25.6616ZM2.87103 9.32968C3.89501 9.32968 4.81673 9.32968 5.73978 9.32968C5.88056 9.32968 5.95095 9.30444 5.94829 9.13976C5.939 8.55671 5.94829 7.97366 5.94829 7.39062C5.94829 7.23124 5.91243 7.19538 5.77431 7.29233C4.83267 7.95772 3.8897 8.61647 2.87103 9.32968ZM31.1375 9.32968L28.0602 7.18077C28.0602 7.88733 28.0602 8.52085 28.0602 9.15437C28.0602 9.2978 28.116 9.33233 28.2475 9.33101C29.1772 9.32702 30.1082 9.32968 31.1375 9.32968Z" fill="black"/>
<path id="Vector_2" d="M17.0226 10.3921H31.8511C32.2708 10.3921 32.2721 10.3921 32.2721 10.7998C32.2721 14.755 32.2721 18.7093 32.2721 22.6626C32.2721 22.9469 32.2097 23.0412 31.9056 23.0412C21.9677 23.0314 12.0289 23.0314 2.08916 23.0412C1.77971 23.0412 1.72526 22.9376 1.72659 22.66C1.73455 18.7154 1.73455 14.7718 1.72659 10.829C1.72659 10.3934 1.72659 10.3921 2.15026 10.3921H17.0226ZM19.6908 21.4487C20.1583 21.4487 20.6205 21.4487 21.0933 21.4487C22.1399 21.4421 22.7973 20.7847 22.8039 19.7222C22.8039 19.1484 22.8039 18.5747 22.8039 17.9956C22.8039 16.8003 22.1717 16.1641 20.9764 16.1615C20.3708 16.1615 19.7652 16.1615 19.1596 16.1615C18.7943 16.1615 18.6004 15.9689 18.5964 15.6129C18.5876 14.9329 18.5876 14.2525 18.5964 13.5716C18.5964 13.2144 18.7943 13.0324 19.1582 13.0204C19.4239 13.0112 19.6895 13.0204 19.9551 13.0204C20.6882 13.0204 21.416 13.0204 22.1558 13.0204C22.6432 13.0204 22.9155 12.6645 22.7442 12.2833C22.626 12.0177 22.3975 11.9566 22.1385 11.9566C21.1504 11.9566 20.1623 11.942 19.1742 11.9566C18.186 11.9712 17.5446 12.6379 17.526 13.6168C17.514 14.2649 17.5153 14.913 17.526 15.5612C17.5419 16.5719 18.2086 17.224 19.2246 17.2319C19.8303 17.2319 20.4359 17.2319 21.0415 17.2319C21.5728 17.2319 21.7335 17.3979 21.7361 17.9133C21.7361 18.4976 21.7361 19.082 21.7361 19.6664C21.7361 20.2282 21.5821 20.3783 21.0123 20.3796C20.0667 20.3796 19.1197 20.3796 18.1741 20.3796C17.7756 20.3796 17.5366 20.5961 17.5326 20.9029C17.5286 21.2097 17.7836 21.4341 18.1967 21.4341C18.6907 21.4514 19.1914 21.4487 19.6908 21.4487ZM25.9609 17.884L27.471 20.9175C27.5261 21.0561 27.6068 21.1831 27.7087 21.292C27.787 21.3675 27.8873 21.416 27.9951 21.4305C28.1028 21.4451 28.2124 21.4249 28.3079 21.3729C28.4034 21.321 28.4798 21.2399 28.5261 21.1415C28.5724 21.0431 28.5862 20.9326 28.5653 20.8258C28.5354 20.7032 28.4909 20.5845 28.4325 20.4726C27.8521 19.3025 27.2744 18.1311 26.6807 16.9676C26.6329 16.8873 26.6076 16.7955 26.6076 16.702C26.6076 16.6085 26.6329 16.5167 26.6807 16.4364C27.2926 15.234 27.8964 14.0281 28.4923 12.8186C28.6649 12.4693 28.5826 12.1545 28.3024 12.0217C28.0221 11.8889 27.7313 12.0031 27.5506 12.3524C27.3076 12.8239 27.0739 13.3007 26.8361 13.7762C26.5519 14.3419 26.269 14.909 25.9662 15.5107C25.8958 15.3779 25.8453 15.2862 25.7975 15.1919C25.3415 14.2808 24.8851 13.3693 24.4282 12.4573C24.3818 12.3506 24.322 12.2502 24.2503 12.1585C24.1735 12.0665 24.067 12.0043 23.9492 11.9825C23.8313 11.9607 23.7096 11.9808 23.605 12.0392C23.5005 12.0977 23.4196 12.1908 23.3764 12.3026C23.3331 12.4143 23.3303 12.5376 23.3684 12.6512C23.4068 12.7507 23.4512 12.8479 23.5012 12.9421C24.0696 14.0829 24.6301 15.2265 25.2145 16.3594C25.2774 16.4658 25.3099 16.5875 25.3085 16.7111C25.3071 16.8347 25.2718 16.9556 25.2065 17.0606C24.6128 18.2121 24.0404 19.3742 23.4627 20.5337C23.2648 20.9321 23.3299 21.2309 23.634 21.3823C23.9381 21.5337 24.2051 21.3983 24.411 20.9945C24.5597 20.701 24.7058 20.4062 24.8532 20.1113L25.9609 17.884ZM8.0312 15.4801C7.53005 14.4796 7.03112 13.4818 6.5344 12.4865C6.48214 12.3705 6.41663 12.2608 6.33916 12.1598C6.26956 12.0758 6.17489 12.0162 6.069 11.9898C5.9631 11.9634 5.85154 11.9716 5.75063 12.0131C5.64971 12.0547 5.56474 12.1274 5.50813 12.2207C5.45153 12.314 5.42627 12.423 5.43604 12.5317C5.45559 12.6677 5.50065 12.7989 5.56885 12.9182C6.14791 14.0883 6.7283 15.2583 7.32065 16.4218C7.3712 16.5063 7.3979 16.6029 7.3979 16.7013C7.3979 16.7998 7.3712 16.8964 7.32065 16.9809C6.70838 18.1762 6.10807 19.3888 5.51041 20.5987C5.33909 20.9454 5.42807 21.2482 5.7176 21.3876C6.00713 21.5271 6.26877 21.4115 6.44674 21.0742C6.60612 20.774 6.75354 20.4672 6.90495 20.1631L8.01659 17.9412C8.1401 18.0129 8.16135 18.1231 8.20784 18.2161C8.66604 19.1272 9.12026 20.0396 9.57979 20.9494C9.631 21.0659 9.69853 21.1746 9.78034 21.2721C9.85052 21.3613 9.95132 21.4213 10.0632 21.4404C10.1751 21.4596 10.2901 21.4365 10.386 21.3757C10.6104 21.2429 10.7273 21.0543 10.6516 20.7887C10.6122 20.6679 10.5629 20.5506 10.5042 20.438C9.9251 19.2786 9.35135 18.1165 8.76698 16.9663C8.71859 16.8862 8.69302 16.7943 8.69302 16.7007C8.69302 16.6071 8.71859 16.5152 8.76698 16.4351C9.36463 15.2623 9.95034 14.0829 10.5387 12.9049C10.6131 12.7548 10.7087 12.6034 10.6715 12.4241C10.6584 12.3117 10.608 12.2068 10.5283 12.1264C10.4486 12.046 10.3442 11.9946 10.2319 11.9805C9.95034 11.938 9.76706 12.0868 9.6462 12.3245C9.16541 13.2834 8.68508 14.2423 8.20518 15.2012C8.17173 15.3084 8.11029 15.4047 8.02721 15.4801H8.0312ZM11.2041 16.7007C11.2041 18.0607 11.2041 19.4207 11.2041 20.7807C11.2041 21.2469 11.4033 21.4447 11.8602 21.4514C13.1883 21.4514 14.5164 21.4514 15.8446 21.4514C16.2284 21.4514 16.4754 21.2322 16.4741 20.9201C16.4728 20.608 16.2417 20.4208 15.8698 20.3889C15.7848 20.3889 15.6998 20.3889 15.6148 20.3889C14.616 20.3889 13.6226 20.3783 12.6185 20.3889C12.337 20.3889 12.2626 20.3145 12.2639 20.0329C12.2759 17.6104 12.2639 15.1893 12.2639 12.7668C12.2654 12.6294 12.252 12.4922 12.2241 12.3577C12.204 12.2458 12.1441 12.1449 12.0555 12.0737C11.967 12.0024 11.8556 11.9656 11.742 11.9699C11.6288 11.9608 11.5161 11.9925 11.4243 12.0592C11.3325 12.126 11.2675 12.2234 11.2413 12.3338C11.2104 12.4571 11.1961 12.5839 11.1988 12.711C11.2005 14.0427 11.2023 15.3726 11.2041 16.7007Z" fill="#62C17C"/>
<path id="Vector_3" d="M17.0117 1.95865C20.2324 1.95865 23.4518 1.95865 26.6725 1.95068C26.9528 1.95068 27.0231 2.01576 27.0205 2.29865C27.0072 4.54141 27.0072 6.78373 27.0205 9.02561C27.0205 9.266 26.9753 9.36295 26.7137 9.3417C26.3849 9.31513 26.0544 9.31513 25.7256 9.3417C25.4599 9.36295 25.4161 9.25537 25.4228 9.02029C25.4387 8.46912 25.4307 7.91529 25.4228 7.36279C25.4228 6.88865 25.2435 6.70803 24.768 6.70803H9.24354C8.74947 6.70803 8.57947 6.886 8.57947 7.38404C8.57947 7.95779 8.57947 8.53154 8.57947 9.1106C8.57947 9.28725 8.53697 9.351 8.35236 9.34436C7.96986 9.33107 7.58604 9.33373 7.20486 9.34436C7.04682 9.34436 6.98307 9.31514 6.9844 9.1385C6.98971 6.82136 6.98971 4.50423 6.9844 2.18709C6.9844 1.92146 7.13447 1.96396 7.28854 1.96396L17.0117 1.95865ZM17.033 5.12357H11.8985C11.2012 5.12357 11.2171 5.12357 11.1946 5.83678C11.1839 6.12896 11.2756 6.18209 11.5478 6.18076C15.0452 6.17191 18.5426 6.16969 22.04 6.17412C22.8103 6.17412 22.7997 6.17412 22.8077 5.39186C22.8077 5.15678 22.732 5.11826 22.5195 5.12623C20.6906 5.12092 18.8578 5.11693 17.033 5.11693V5.12357ZM17.0117 3.52982H13.5347C12.7856 3.52982 12.7976 3.52982 12.7817 4.28951C12.7817 4.54717 12.856 4.60029 13.1004 4.60029C15.5455 4.591 17.9906 4.60029 20.4356 4.60029C21.2232 4.60029 21.2126 4.60029 21.2206 3.80342C21.2206 3.57232 21.1515 3.52717 20.935 3.5285C19.6268 3.53514 18.3186 3.52982 17.0117 3.52982Z" fill="#CCCCCC"/>
<path id="Vector_4" d="M16.9986 31.4602C13.7668 31.4602 10.5351 31.4602 7.30329 31.4602C7.07353 31.4602 6.97525 31.4309 6.97658 31.1587C6.98986 28.8956 6.98986 26.6315 6.97658 24.3666C6.97658 24.1356 7.02173 24.0479 7.27009 24.0638C7.62045 24.0831 7.97161 24.0831 8.32197 24.0638C8.51587 24.0545 8.57829 24.109 8.57298 24.3109C8.5597 24.874 8.57298 25.4371 8.57298 26.0002C8.57298 26.5315 8.74431 26.7081 9.27954 26.7095C10.6502 26.7095 12.0226 26.7095 13.3967 26.7095H24.5902C25.2994 26.7095 25.4269 26.5766 25.4269 25.8754C25.4269 25.3441 25.4269 24.8129 25.4269 24.2816C25.4269 24.1143 25.476 24.0598 25.6434 24.0652C26.0046 24.0771 26.3672 24.0864 26.7271 24.0652C26.9728 24.0492 27.0246 24.1302 27.0233 24.3653C27.014 26.4797 27.0233 28.5954 27.0233 30.7111C27.0233 31.4562 27.0233 31.4562 26.2915 31.4562L16.9986 31.4602ZM17.0292 27.246H11.8694C11.2053 27.246 11.2226 27.246 11.1934 27.926C11.1788 28.2514 11.2917 28.2952 11.5825 28.2952C15.0781 28.2846 18.5738 28.2886 22.0747 28.2886C22.8105 28.2886 22.7959 28.2886 22.8145 27.5435C22.8211 27.2779 22.7202 27.2407 22.4891 27.242C20.6669 27.25 18.85 27.246 17.0331 27.246H17.0292ZM16.9774 29.8731H20.481C21.2127 29.8731 21.2021 29.8731 21.2167 29.132C21.2167 28.8849 21.157 28.8172 20.906 28.8185C18.4529 28.8291 15.9985 28.8185 13.5455 28.8185C13.3038 28.8185 12.977 28.7375 12.8402 28.861C12.6756 29.0084 12.8137 29.3431 12.7831 29.5928C12.7539 29.8173 12.8336 29.8731 13.0581 29.8717C14.3676 29.8664 15.6705 29.8731 16.9813 29.8731H16.9774Z" fill="#CCCCCC"/>
<path id="Vector_5" d="M16.9854 9.32574C14.6373 9.32574 12.2905 9.32574 9.94637 9.32574C9.70598 9.32574 9.6077 9.27926 9.62762 9.01762C9.65285 8.69981 9.65285 8.3805 9.62762 8.06269C9.60637 7.78512 9.71395 7.7373 9.96895 7.7373C13.9737 7.74527 17.9784 7.74527 21.9832 7.7373C22.695 7.7373 23.4069 7.74527 24.1175 7.7373C24.3286 7.7373 24.3977 7.79309 24.3831 8.00293C24.3632 8.33156 24.3632 8.6611 24.3831 8.98973C24.4017 9.25535 24.3313 9.32707 24.059 9.32574C21.7016 9.32043 19.3442 9.32574 16.9854 9.32574Z" fill="#FCFCFC"/>
<path id="Vector_6" d="M16.9983 25.6563C14.6502 25.6563 12.302 25.6563 9.95922 25.6563C9.6936 25.6563 9.60196 25.6019 9.62586 25.3296C9.65483 25.0204 9.65483 24.7091 9.62586 24.3999C9.59399 24.0958 9.72282 24.0586 9.98446 24.0599C11.5676 24.0719 13.1507 24.0666 14.7325 24.0666C17.835 24.0666 20.9362 24.0666 24.0387 24.0586C24.3202 24.0586 24.4106 24.125 24.388 24.4092C24.3667 24.7378 24.3667 25.0674 24.388 25.396C24.3973 25.5886 24.3441 25.6523 24.1423 25.6484C23.4782 25.6351 22.8048 25.6484 22.1355 25.6484L16.9983 25.6563Z" fill="#FCFCFC"/>
<path id="Vector_7" d="M2.87109 9.32969C3.88977 8.61648 4.83273 7.95773 5.77305 7.295C5.90586 7.19804 5.94836 7.2339 5.94703 7.39328C5.94703 7.97633 5.93906 8.55937 5.94703 9.14242C5.94703 9.30711 5.8793 9.33234 5.73852 9.33234C4.8168 9.32703 3.89508 9.32969 2.87109 9.32969Z" fill="#669966"/>
<path id="Vector_8" d="M31.1372 9.32968C30.1079 9.32968 29.1769 9.32968 28.2459 9.32968C28.1131 9.32968 28.0573 9.29647 28.0586 9.15304C28.0586 8.51952 28.0586 7.88601 28.0586 7.17944L31.1372 9.32968Z" fill="#669966"/>
<path id="Vector_9" d="M19.6903 21.4488C19.191 21.4488 18.6903 21.4488 18.1909 21.4488C17.7832 21.4488 17.5268 21.2336 17.5268 20.9175C17.5268 20.6015 17.7712 20.3982 18.1683 20.3943C19.1139 20.385 20.0609 20.3943 21.0065 20.3943C21.5763 20.3943 21.729 20.2429 21.7303 19.6811C21.7303 19.0967 21.7303 18.5123 21.7303 17.9279C21.7303 17.4126 21.5603 17.2493 21.0357 17.2466C20.4301 17.2466 19.8245 17.2466 19.2189 17.2466C18.2028 17.2386 17.5361 16.5825 17.5202 15.5758C17.5096 14.9277 17.5082 14.2796 17.5202 13.6315C17.5388 12.6526 18.1843 11.9886 19.1684 11.9713C20.1525 11.954 21.1446 11.9713 22.1328 11.9713C22.3918 11.9713 22.6202 12.0364 22.7384 12.298C22.9097 12.6792 22.6375 13.0298 22.15 13.0351C21.4156 13.0444 20.6825 13.0351 19.9493 13.0351C19.6837 13.0351 19.4181 13.0351 19.1525 13.0351C18.7886 13.0471 18.5946 13.229 18.5907 13.5863C18.5818 14.2663 18.5818 14.9467 18.5907 15.6276C18.5907 15.9836 18.7886 16.1695 19.1538 16.1761C19.7594 16.1854 20.365 16.1761 20.9707 16.1761C22.166 16.1761 22.7982 16.8123 22.7982 18.0103C22.7982 18.584 22.7982 19.1578 22.7982 19.7368C22.7915 20.7914 22.1341 21.4515 21.0875 21.4634C20.6253 21.4515 20.1578 21.4488 19.6903 21.4488Z" fill="black"/>
<path id="Vector_10" d="M25.9578 17.8841L24.8435 20.1127C24.6961 20.4076 24.55 20.7024 24.4012 20.9959C24.1954 21.3944 23.9244 21.5272 23.6243 21.3837C23.3241 21.2403 23.2551 20.9335 23.453 20.5351C24.0307 19.3756 24.6031 18.2135 25.1968 17.062C25.2621 16.9571 25.2974 16.8362 25.2988 16.7125C25.3002 16.5889 25.2677 16.4672 25.2048 16.3608C24.6204 15.2279 24.0599 14.0844 23.4915 12.9435C23.4415 12.8493 23.3971 12.7522 23.3587 12.6527C23.3206 12.5391 23.3234 12.4157 23.3666 12.304C23.4098 12.1922 23.4907 12.0991 23.5953 12.0407C23.6999 11.9822 23.8216 11.9622 23.9394 11.9839C24.0572 12.0057 24.1637 12.068 24.2405 12.1599C24.3122 12.2516 24.372 12.352 24.4185 12.4587C24.8771 13.3698 25.3336 14.2814 25.7878 15.1934C25.8356 15.2877 25.8861 15.3793 25.9565 15.5121C26.2593 14.9105 26.5422 14.3434 26.8264 13.7776C27.0641 13.3021 27.2979 12.8253 27.5409 12.3538C27.7215 12.0045 28.0071 11.885 28.2926 12.0231C28.5782 12.1613 28.6552 12.4707 28.4826 12.82C27.8849 14.0286 27.2811 15.2345 26.671 16.4378C26.6232 16.5182 26.5979 16.6099 26.5979 16.7034C26.5979 16.7969 26.6232 16.8887 26.671 16.9691C27.2647 18.1325 27.8424 19.3039 28.4228 20.474C28.4811 20.586 28.5257 20.7046 28.5556 20.8273C28.5764 20.934 28.5627 21.0446 28.5164 21.1429C28.4701 21.2413 28.3937 21.3224 28.2982 21.3744C28.2027 21.4263 28.0931 21.4465 27.9853 21.4319C27.8776 21.4174 27.7773 21.3689 27.699 21.2934C27.5971 21.1845 27.5164 21.0575 27.4612 20.9189L25.9578 17.8841Z" fill="black"/>
<path id="Vector_11" d="M8.02463 15.4802C8.10868 15.4051 8.17106 15.3088 8.20526 15.2013C8.68781 14.2442 9.16815 13.2853 9.64627 12.3246C9.76713 12.0869 9.95041 11.9381 10.232 11.9806C10.3443 11.9947 10.4487 12.0461 10.5284 12.1265C10.6081 12.2069 10.6585 12.3118 10.6716 12.4242C10.7061 12.6035 10.6105 12.7549 10.5388 12.905C9.94776 14.083 9.36205 15.2624 8.7644 16.4352C8.71601 16.5153 8.69044 16.6072 8.69044 16.7008C8.69044 16.7944 8.71601 16.8862 8.7644 16.9664C9.35409 18.1192 9.92783 19.2813 10.5056 20.4408C10.5643 20.5534 10.6136 20.6707 10.653 20.7914C10.734 21.057 10.6171 21.2509 10.3874 21.3784C10.2915 21.4392 10.1765 21.4623 10.0646 21.4432C9.95273 21.424 9.85193 21.3641 9.78174 21.2748C9.69983 21.1769 9.6323 21.0678 9.58119 20.9508C9.12166 20.041 8.66744 19.1286 8.20924 18.2175C8.16276 18.1245 8.14151 18.0143 8.01799 17.9426L6.90502 20.1632C6.75362 20.4673 6.60619 20.7741 6.44682 21.0743C6.26885 21.4116 5.99791 21.5219 5.71768 21.3877C5.43744 21.2536 5.33916 20.9455 5.51049 20.5988C6.10815 19.3889 6.7058 18.1816 7.32073 16.981C7.37128 16.8965 7.39797 16.7999 7.39797 16.7014C7.39797 16.603 7.37128 16.5064 7.32073 16.4219C6.72838 15.2584 6.14799 14.0884 5.56893 12.9183C5.50073 12.799 5.45567 12.6678 5.43612 12.5318C5.42635 12.4231 5.45161 12.3141 5.50821 12.2208C5.56482 12.1275 5.64979 12.0548 5.7507 12.0132C5.85162 11.9716 5.96318 11.9635 6.06908 11.9899C6.17497 12.0163 6.26964 12.0759 6.33924 12.1599C6.41671 12.2609 6.48222 12.3706 6.53448 12.4866C7.02942 13.4827 7.52614 14.4806 8.02463 15.4802Z" fill="black"/>
<path id="Vector_12" d="M11.2035 16.7009C11.2035 15.3728 11.2035 14.0446 11.2035 12.7165C11.2009 12.5894 11.2152 12.4626 11.246 12.3393C11.2723 12.2289 11.3372 12.1315 11.4291 12.0647C11.5209 11.998 11.6336 11.9663 11.7468 11.9754C11.8604 11.9711 11.9717 12.0079 12.0603 12.0792C12.1489 12.1504 12.2088 12.2513 12.2289 12.3632C12.2568 12.4978 12.2701 12.6349 12.2687 12.7723C12.2687 15.1948 12.2753 17.616 12.2687 20.0385C12.2687 20.32 12.3418 20.3984 12.6233 20.3944C13.6221 20.3771 14.6155 20.3944 15.6196 20.3944C15.7046 20.3944 15.7896 20.3944 15.8746 20.3944C16.2464 20.4223 16.4789 20.6268 16.4789 20.9256C16.4789 21.2245 16.2332 21.4569 15.8493 21.4569C14.5212 21.4569 13.1931 21.4569 11.865 21.4569C11.4081 21.4569 11.2102 21.2524 11.2089 20.7862C11.2009 19.4169 11.2035 18.0569 11.2035 16.7009Z" fill="black"/>
<path id="Vector_13" d="M17.0345 5.11691C18.8633 5.11691 20.6922 5.11691 22.521 5.11691C22.7335 5.11691 22.8105 5.1541 22.8092 5.38254C22.8012 6.1648 22.8092 6.1648 22.0416 6.1648C18.5442 6.1648 15.0468 6.16702 11.5494 6.17145C11.2837 6.17145 11.1855 6.11965 11.1961 5.82746C11.2187 5.11559 11.1961 5.11426 11.9 5.11426L17.0345 5.11691Z" fill="black"/>
<path id="Vector_14" d="M17.0115 3.52979C18.3183 3.52979 19.6265 3.52979 20.9348 3.52979C21.1512 3.52979 21.2216 3.57361 21.2203 3.80471C21.2123 4.60158 21.2203 4.60158 20.4354 4.60158C17.9903 4.60158 15.5452 4.60158 13.1001 4.60158C12.8558 4.60158 12.7774 4.54846 12.7814 4.2908C12.7973 3.53111 12.7814 3.53111 13.5344 3.53111L17.0115 3.52979Z" fill="black"/>
<path id="Vector_15" d="M17.0345 27.2461C18.8514 27.2461 20.6683 27.2461 22.4798 27.2461C22.7109 27.2461 22.8119 27.278 22.8052 27.5476C22.7866 28.2927 22.8052 28.2927 22.0655 28.2927C18.5698 28.2927 15.0742 28.2927 11.5733 28.2993C11.2824 28.2993 11.1748 28.2555 11.1841 27.9301C11.2134 27.2514 11.1921 27.2501 11.8602 27.2501L17.0345 27.2461Z" fill="black"/>
<path id="Vector_16" d="M16.9813 29.8731C15.6744 29.8731 14.3676 29.8664 13.062 29.8731C12.8376 29.8731 12.7579 29.8186 12.7871 29.5942C12.8176 29.3445 12.6795 29.0098 12.8442 28.8624C12.977 28.7388 13.3077 28.8212 13.5494 28.8199C16.0025 28.8199 18.4569 28.8199 20.9099 28.8199C21.1609 28.8199 21.2247 28.8863 21.2207 29.1333C21.2061 29.8744 21.2207 29.8744 20.4849 29.8744L16.9813 29.8731Z" fill="black"/>
</g>
</svg>
