<svg width="33" height="33" viewBox="0 0 33 33" fill="none" xmlns="http://www.w3.org/2000/svg">
<g id="Capa 43">
<g id="Capa_1">
<g id="2400509024688">
<path id="Vector" fill-rule="evenodd" clip-rule="evenodd" d="M8.40219 23.1503C8.76609 23.2659 9.46469 23.3655 9.74492 23.5488C9.56297 23.7666 9.39828 23.8981 9.19242 24.1119C8.71164 24.6113 8.47656 24.2939 6.95055 23.663C5.42453 23.0321 4.89859 23.2752 4.89594 21.3162C5.02875 21.372 6.13906 22.21 7.09531 22.6377C7.52099 22.8329 7.9573 23.0041 8.40219 23.1503ZM11.5897 0.0144043H12.7704C14.1029 0.0707183 15.4139 0.369566 16.6392 0.896279C18.1608 1.53888 19.5391 2.47796 20.694 3.65878L21.71 4.89659C22.0168 4.67214 24.1006 1.59354 26.7662 2.03183C27.1389 2.11452 27.49 2.2747 27.7968 2.50198C28.1514 2.79151 28.2338 2.84065 28.5073 3.29886C29.1873 4.42644 29.2723 6.08792 29.1063 7.54089C28.7557 10.6381 27.6042 13.0553 25.8777 15.2639C25.5736 15.626 25.2419 15.9639 24.8855 16.2746C24.721 16.4438 24.5434 16.5996 24.3543 16.7408C23.6663 17.2601 23.6331 16.7222 22.9677 16.6678C22.8761 17.0596 22.5573 17.4022 22.467 17.794C22.7858 17.7872 23.1007 17.8645 23.38 18.0181C23.6594 18.1718 23.8933 18.3963 24.0583 18.6691C24.2233 18.9419 24.3134 19.2534 24.3197 19.5722C24.3259 19.8909 24.2481 20.2057 24.094 20.4848L31.0002 26.6632C33.4958 28.7524 31.9459 31.7513 29.7093 32.0647H28.9416C28.6177 32.0195 28.3035 31.9207 28.012 31.7725C27.5405 31.5361 26.8764 31.0049 26.6201 30.5307C26.4647 30.2452 26.5935 30.1974 26.6559 29.941C27.1022 29.8321 27.1872 29.7232 27.5365 30.1177C27.7782 30.3913 27.8738 30.5785 28.2324 30.8017C28.7836 31.1457 29.793 31.2612 30.3056 30.8163C31.1516 30.4617 31.7878 28.8799 30.7638 27.7696L24.0674 21.7585C23.8204 21.5592 23.7075 21.3282 23.3821 21.2192C23.0594 21.6867 22.1934 22.2897 21.9464 22.7333C21.7042 22.8614 21.5117 23.0665 21.3992 23.3164C21.892 23.7932 22.2731 24.3138 22.6809 24.7096L25.9374 28.3367C26.2695 28.6793 26.3027 28.8108 26.0875 29.3102C25.531 29.443 25.4739 29.3341 25.1897 28.9609L20.6475 23.9273C20.2491 24.0216 20.2677 24.1517 19.6448 24.1185C18.7071 24.0681 17.9567 23.23 17.9567 22.2379C16.3444 23.0906 14.5381 23.7294 12.5712 23.7387C12.3959 23.7387 12.1435 23.76 12.0824 23.7586C10.3014 23.7334 11.2005 23.6019 10.1181 24.6007C9.8525 24.8517 9.11539 25.5383 8.79 25.4679L5.54938 24.1398C4.43109 23.6949 4.44039 23.7958 4.22922 23.145C3.64484 21.3521 4.25711 20.8089 3.70727 20.2869C3.13888 19.6999 2.62168 19.0654 2.16133 18.3903C1.11477 16.8484 0.341797 14.6955 0.242188 12.3553V11.3446C0.257937 10.9592 0.293401 10.5749 0.348438 10.1932C0.746875 7.4519 1.80938 5.59651 3.54391 3.62558L5.05266 2.31737C6.81508 0.933467 9.18711 0.128623 11.591 0.0144043H11.5897ZM20.9702 22.2964C20.7431 22.6775 19.8161 23.6059 19.164 22.9007C18.5119 22.1954 19.4681 21.3494 19.8108 21.0838C20.2092 20.6003 20.8069 20.0731 21.2717 19.6082C21.6011 19.2775 22.4312 18.2336 23.1377 19.0544C23.7872 19.8075 22.7393 20.5804 22.4259 20.8885C22.1124 21.1967 21.2385 22.1542 20.9649 22.299L20.9702 22.2964ZM11.3466 0.999873C17.5888 0.517764 22.5573 5.38269 22.9916 11.0803C23.4711 17.3624 18.6314 22.3322 12.8979 22.7678C6.63844 23.238 1.65 18.401 1.225 12.6781C1.10609 11.0722 1.34561 9.4599 1.92625 7.95792C2.893 5.48584 4.71693 3.44413 7.06477 2.20581C8.3936 1.51279 9.85145 1.10221 11.3466 0.999873ZM23.3449 15.7261C23.7234 14.2001 24.0263 13.22 23.9652 11.4668C23.8483 8.08808 22.3369 6.01355 22.3196 5.81831C22.3023 5.62308 23.2134 4.63097 23.3635 4.49019C25.6731 2.21511 28.2364 2.2244 28.2165 6.34159C28.2045 8.85175 27.1673 11.7431 25.8259 13.7127C25.4195 14.3117 24.6305 15.2892 24.1139 15.6956C23.7434 15.9891 23.8031 15.8988 23.3436 15.7314L23.3449 15.7261Z" fill="black"/>
<path id="Vector_2" fill-rule="evenodd" clip-rule="evenodd" d="M6.21205 10.8572C6.18947 11.0565 5.88268 11.5213 5.75385 11.6541C6.2944 12.2505 5.90791 12.285 5.23854 13.904C5.03666 14.3927 4.34604 15.9201 4.60369 16.3743C5.00903 17.0534 5.5105 17.6703 6.09252 18.2058C6.65555 18.7696 7.30359 19.2415 8.01299 19.6043C8.77847 20.0165 9.60263 20.309 10.4567 20.4715C11.0903 20.5911 12.9669 20.7372 13.538 20.5061C13.7717 20.4091 14.036 19.7464 14.1582 19.5033C15.5355 16.7515 16.5741 13.3037 16.416 10.1626C16.2022 5.54475 13.3746 4.68944 10.4594 6.85029C9.50238 7.55095 8.64847 8.38251 7.92268 9.32061C7.67963 9.64467 7.46447 9.90764 7.23072 10.2503C6.99697 10.593 6.81369 11.0844 6.21205 10.848V10.8572Z" fill="#65727A"/>
<path id="Vector_3" fill-rule="evenodd" clip-rule="evenodd" d="M6.21169 10.8573C6.81333 11.0937 6.99263 10.6129 7.22903 10.2596C7.46544 9.90636 7.67927 9.64738 7.92231 9.32995C8.64811 8.39185 9.50201 7.5603 10.459 6.85964C13.3743 4.68949 16.2018 5.5448 16.421 10.1574C16.5737 13.2984 15.5351 16.7462 14.1632 19.4981C14.041 19.7411 13.7767 20.4039 13.5429 20.5008C12.9718 20.7372 11.0952 20.5858 10.4617 20.4663C9.60758 20.3038 8.78342 20.0113 8.01794 19.599C7.30854 19.2362 6.66049 18.7643 6.09747 18.2005C5.51357 17.6654 5.0103 17.0485 4.60333 16.369C4.34567 15.9148 5.0363 14.3875 5.23817 13.8987C5.90224 12.2797 6.29271 12.2452 5.75349 11.6489C4.94731 11.5984 5.22224 12.0154 4.87161 12.3448C4.8238 12.4896 3.88747 14.7354 3.87286 14.7553C3.3695 13.9107 3.3031 11.6223 3.47442 10.5545C4.02028 7.023 6.96075 3.70667 10.6383 3.27769C11.6729 2.98683 13.3318 3.17542 14.3571 3.43175C19.7453 4.77581 22.7482 11.3035 19.5368 16.4939C18.5991 18.0106 16.6003 19.773 14.9109 20.1542C15.3093 19.1342 15.6733 18.5857 16.2258 17.0676C17.3679 13.9292 18.1502 8.77347 16.1567 6.13847C15.4475 5.20081 14.3093 4.70808 13.0781 4.78777C11.8469 4.86745 10.6715 5.52886 9.92513 6.07339C8.66424 7.0118 7.55821 8.14202 6.64731 9.42292C6.00981 10.3101 5.90224 10.3526 6.21169 10.8546V10.8573ZM11.236 2.22449C6.20505 2.66409 1.95239 7.14519 2.45442 12.7512C2.90599 17.7981 7.36849 22.0388 13.0077 21.5288C18.0333 21.0746 22.286 16.5961 21.76 10.9649C21.2912 5.95253 16.854 1.73706 11.236 2.22449Z" fill="black"/>
<path id="Vector_4" fill-rule="evenodd" clip-rule="evenodd" d="M11.2351 2.2243C16.853 1.7329 21.2903 5.94305 21.7591 10.9647C22.2904 16.5959 18.0324 21.0744 13.0068 21.5286C7.36756 22.0386 2.90506 17.7913 2.4535 12.751C1.95146 7.14899 6.20412 2.6679 11.2351 2.2243ZM11.3466 0.995786C9.85156 1.09888 8.39386 1.50942 7.06474 2.20172C4.71649 3.4414 2.89259 5.48451 1.92623 7.95782C1.34559 9.4598 1.10607 11.0721 1.22498 12.678C1.64998 18.4009 6.63842 23.2379 12.8979 22.7717C18.6314 22.3388 23.4711 17.3689 22.9916 11.0842C22.5573 5.38258 17.5915 0.521645 11.3466 1.00375V0.995786Z" fill="#F8C74E"/>
<path id="Vector_5" fill-rule="evenodd" clip-rule="evenodd" d="M18.5725 8.88356C19.5314 8.27528 19.8926 10.8757 19.9152 11.5929C19.9418 12.4283 19.7585 14.5414 19.0293 14.8628C17.5525 15.5122 17.1554 9.78403 18.5725 8.88622V8.88356ZM10.6316 3.27754C10.6151 3.28931 10.5978 3.29996 10.5798 3.30942C10.5665 3.30942 10.5466 3.33067 10.5307 3.33997L10.4337 3.38911C10.3886 3.41036 10.3009 3.43957 10.2544 3.45817L9.34996 3.92567C8.9582 4.15172 8.58435 4.40747 8.23168 4.69067C6.07348 6.37606 4.63379 9.28997 4.80246 12.3447H4.87019C5.21418 12.0153 4.9459 11.5982 5.75207 11.6487C5.88488 11.5159 6.18769 11.0537 6.21027 10.8518C5.90082 10.3498 6.0084 10.3073 6.6459 9.41879C7.55687 8.13719 8.66286 7.0061 9.92371 6.06661C10.6701 5.52207 11.8641 4.86067 13.0767 4.78098C14.2893 4.70129 15.4461 5.19403 16.1553 6.13168C18.1475 8.76668 17.3665 13.9225 16.2243 17.0608C15.6718 18.5789 15.3066 19.1274 14.9095 20.1461C16.6029 19.7729 18.5977 18.0104 19.5354 16.4924C22.7428 11.3034 19.7399 4.77567 14.3557 3.43161C13.329 3.17528 11.6702 2.98668 10.6369 3.27754H10.6316Z" fill="#A9E2F8"/>
<path id="Vector_6" fill-rule="evenodd" clip-rule="evenodd" d="M23.3446 15.7261C23.8041 15.8934 23.743 15.9837 24.1149 15.6902C24.6302 15.2838 25.4204 14.3063 25.8268 13.7073C27.1669 11.7377 28.2042 8.84637 28.2175 6.33621C28.2387 2.21902 25.6741 2.21902 23.3645 4.4848C23.2144 4.6309 22.302 5.62832 22.3206 5.81293C22.3392 5.99754 23.8493 8.0827 23.9661 11.4614C24.0272 13.2146 23.7244 14.1947 23.3459 15.7207L23.3446 15.7261Z" fill="#3D4B54"/>
<path id="Vector_7" fill-rule="evenodd" clip-rule="evenodd" d="M21.9453 22.7293C22.1459 22.9152 22.2388 23.056 22.4593 23.2366L25.4555 26.375C25.6362 26.5715 25.8181 26.6937 26.0014 26.8929L27.9936 28.9741C28.4956 29.5133 29.5541 30.6808 30.3098 30.8122C31.1559 30.459 31.792 28.8772 30.768 27.7655L24.0716 21.7544C23.8246 21.5552 23.7117 21.3241 23.3863 21.2152C23.0636 21.6827 22.1977 22.2857 21.9506 22.7293H21.9453Z" fill="#B97D55"/>
<path id="Vector_8" fill-rule="evenodd" clip-rule="evenodd" d="M7.60923 27.6965C7.19751 29.0751 5.94775 31.6238 4.12954 30.8668C2.04837 29.9982 3.38314 26.8824 4.00603 26.0483L7.60923 27.6965ZM4.81087 31.9983C5.99821 31.9983 6.87743 31.0687 7.37681 30.3701C7.80048 29.7724 8.69165 28.0073 8.69165 27.4283C8.69165 27.0192 8.04884 26.8147 7.65439 26.6513L3.87189 24.9248C3.78114 24.9183 3.6902 24.934 3.60689 24.9706C3.52359 25.0072 3.45044 25.0634 3.39376 25.1346L2.62212 26.6155C2.03111 27.9223 1.6247 29.9012 2.75493 31.1085C3.12814 31.5003 4.06579 31.9983 4.81087 31.9983Z" fill="black"/>
<path id="Vector_9" fill-rule="evenodd" clip-rule="evenodd" d="M7.60947 27.6965L4.00627 26.0483C3.38338 26.8811 2.04861 29.9982 4.12978 30.8668C5.94799 31.6238 7.19775 29.0751 7.60947 27.6965Z" fill="#3D4B54"/>
<path id="Vector_10" fill-rule="evenodd" clip-rule="evenodd" d="M4.86944 12.3447H4.80171C4.63303 9.29001 6.07272 6.3761 8.23092 4.69071C8.58297 4.40793 8.95591 4.1522 9.34655 3.92571L10.251 3.45821C10.2962 3.43962 10.3838 3.4104 10.4303 3.38915C10.4489 3.38118 10.51 3.34931 10.5273 3.34001C10.5445 3.33071 10.5631 3.3161 10.5764 3.30946C10.5943 3.3 10.6117 3.28935 10.6282 3.27759C6.95061 3.70657 4.01014 7.0229 3.46428 10.5544C3.29827 11.6169 3.36468 13.9106 3.86272 14.7552C3.87733 14.738 4.81366 12.4895 4.86147 12.3447H4.86944Z" fill="#8FD0E5"/>
<path id="Vector_11" fill-rule="evenodd" clip-rule="evenodd" d="M26.0842 29.3062C26.2018 29.3744 26.3018 29.469 26.3764 29.5825C26.4906 29.7299 26.569 29.8069 26.6527 29.9371C27.0989 29.8282 27.1839 29.7193 27.5332 30.1137C27.7749 30.3873 27.8705 30.5746 28.2291 30.7977C28.7803 31.1417 29.7897 31.2573 30.3023 30.8123C29.5466 30.6795 28.4881 29.5134 27.9861 28.9742L25.9939 26.893C25.8106 26.6938 25.6287 26.5716 25.4494 26.3751L22.4518 23.2367C22.2313 23.0561 22.1384 22.9153 21.9378 22.7294C21.6956 22.8574 21.5031 23.0626 21.3906 23.3124C21.8834 23.7892 22.2645 24.3098 22.6723 24.7056L25.9302 28.3327C26.2622 28.6754 26.2941 28.8069 26.0789 29.3062H26.0842Z" fill="#996441"/>
<path id="Vector_12" fill-rule="evenodd" clip-rule="evenodd" d="M18.5716 8.8836C17.1544 9.78407 17.5516 15.5123 19.0284 14.8602C19.7576 14.5388 19.9408 12.4257 19.9143 11.5903C19.8917 10.8771 19.5305 8.27532 18.5716 8.8836Z" fill="white"/>
<path id="Vector_13" fill-rule="evenodd" clip-rule="evenodd" d="M19.8125 21.0837C19.8209 21.3941 19.9443 21.6904 20.1588 21.9149C20.3733 22.1395 20.6636 22.2764 20.9733 22.299C21.2389 22.1542 22.1314 21.1847 22.4342 20.8885C22.737 20.5923 23.7955 19.8074 23.1461 19.0544C22.4395 18.2336 21.6108 19.2775 21.2801 19.6082C20.8139 20.073 20.2176 20.6003 19.8191 21.0837H19.8125Z" fill="#B97D55"/>
<path id="Vector_14" fill-rule="evenodd" clip-rule="evenodd" d="M9.74352 23.5487C9.46992 23.3655 8.76469 23.2658 8.40078 23.1503C7.9559 23.004 7.51959 22.8329 7.09391 22.6376C6.13766 22.21 5.02203 21.3719 4.89453 21.3162C4.89453 23.2738 5.40719 23.0268 6.94914 23.663C8.49109 24.2991 8.71023 24.6112 9.19102 24.1119C9.39688 23.898 9.55891 23.7652 9.74352 23.5487Z" fill="#3D4B54"/>
<path id="Vector_15" fill-rule="evenodd" clip-rule="evenodd" d="M20.9724 22.2964C20.6627 22.2738 20.3724 22.1369 20.158 21.9124C19.9435 21.6878 19.82 21.3916 19.8116 21.0812C19.469 21.3468 18.4995 22.1795 19.1662 22.9007C19.8329 23.6219 20.7453 22.6776 20.9724 22.2964Z" fill="#986341"/>
</g>
</g>
</g>
</svg>
