<svg width="31" height="30" viewBox="0 0 31 30" fill="none" xmlns="http://www.w3.org/2000/svg">
<g id="Centro de costo 1" clip-path="url(#clip0_219_132615)">
<g id="Capa_x0020_1">
<g id="_2310404804336">
<path id="Vector" fill-rule="evenodd" clip-rule="evenodd" d="M29.1676 28.3147C29.2434 28.4326 29.3062 29.7843 29.152 29.9319C28.9992 30.0777 26.0135 30.0032 25.5867 30.0032H1.88088C0.769485 30.0032 0.880235 30.2143 0.880235 29.1282C0.880883 27.9754 0.427519 28.2377 3.64511 28.2377L28.7667 28.2428C28.9914 28.2435 29.0257 28.213 29.1676 28.3147ZM14.7409 0.77478H15.3251C15.5822 0.816878 15.8717 0.914676 16.215 1.0876L17.4287 1.75599C17.59 1.84537 17.6256 1.88164 17.8017 1.97101L28.0568 7.6575C28.3159 7.79157 28.5892 7.9347 28.8561 8.09403C29.8172 8.66786 30.0879 8.58107 30.1164 9.16461V10.5811C30.0853 10.8809 29.9992 11.1445 29.7822 11.4411C29.4428 11.9055 28.9033 12.1873 28.1164 12.1873C27.882 12.6309 26.6488 14.2112 26.6022 14.379C26.5594 14.5344 26.5866 15.32 26.5866 15.5402C26.5866 16.5875 26.5128 24.9242 26.6333 25.1995C26.6657 25.2739 26.8373 25.5019 26.8975 25.5822L27.6294 26.6153C28.4772 27.7474 27.8198 27.1671 29.2881 27.3685C29.6358 27.4164 29.8502 27.6321 29.9998 27.8918C30.0581 27.9928 30.0957 28.2344 30.1164 28.5259V29.9339C30.1061 30.0667 30.0931 30.1645 30.0788 30.2078C30.0024 30.4358 29.7213 30.7208 29.5083 30.8141C29.4247 30.8503 29.2291 30.8756 28.961 30.8931H24.7635H24.4604H24.1573H23.8542H23.551H23.2479H22.9448H22.6417H22.3386H22.0355H21.7324H21.4293H21.1262H20.8231H20.52H20.2169H19.9138H19.6107H19.3076H19.0044H18.7013H18.3982H18.0951H17.792H17.4889H17.1858H16.8827H16.5796H16.2765H15.9734H15.6703H15.3672H15.0641H14.761H14.4579H14.1547H13.8516H13.5485H13.2454H12.9423H12.6392H12.3361H12.033H11.7299H11.4268H11.1237H10.8206H10.5175H10.2144H9.91125H9.60815H9.30504H9.00194H8.69883H8.39572H8.09262H7.78951H7.4864H7.1833H6.88019H6.57708H6.27398H5.97087H5.66776H5.36466H1.20212C0.895779 30.873 0.67104 30.8419 0.57972 30.7959C0.193712 30.6016 0.0557599 30.3037 0.0117188 29.9624V28.952V28.2655C0.026615 28.1288 0.0635318 28 0.145137 27.8504C0.279851 27.6042 0.541507 27.4099 0.84008 27.3691C2.33748 27.1638 1.64707 27.7558 2.52401 26.5829L3.51169 25.1587C3.60237 24.8938 3.54084 20.9942 3.54084 20.364C3.54084 19.7792 3.62762 14.5694 3.49161 14.2954C3.42879 14.1685 2.23061 12.6018 2.0117 12.1873C1.388 12.1873 0.87894 12.0597 0.466379 11.6154C0.0421589 11.1581 0.0130141 10.7585 0.0117188 10.184V10.0111V9.01889C0.0395683 8.74298 0.154852 8.72355 0.559642 8.50011C1.01689 8.24752 1.41844 8.01048 1.87505 7.75659L5.85494 5.55972C6.10753 5.43148 6.29082 5.31166 6.53887 5.18407C6.90804 4.99431 6.93848 5.039 7.24677 5.2456C7.29729 6.03381 6.97022 5.9386 6.36141 6.30194C5.92294 6.5636 5.47346 6.80906 5.00067 7.05841C4.65093 7.243 2.50004 8.40231 2.36403 8.55322L27.9286 8.63677C27.4221 8.31553 26.8619 7.99882 26.3127 7.70931C24.7039 6.86152 22.8885 5.7728 21.2803 4.91918L16.2856 2.14847C15.8387 1.88617 14.8905 1.33177 14.3711 1.90884C14.0103 1.98462 10.623 3.95805 9.80309 4.39263C9.53755 4.53317 9.30116 4.66529 9.04986 4.81555C8.58873 5.09081 8.58743 4.95998 8.24676 4.74431C8.1522 4.25079 8.29015 4.21258 8.65479 4.00792L13.4235 1.3648C13.9209 1.10833 14.3031 0.855091 14.7538 0.776076L14.7409 0.77478ZM21.7492 27.3128C21.9053 27.033 22.0834 26.7953 22.2797 26.5278C22.4494 26.2973 22.6897 25.989 22.7933 25.7558L24.7304 25.7545L25.9539 25.7571C26.0394 25.9773 26.3418 26.3419 26.4992 26.568C26.6676 26.8102 26.8755 27.0861 27.0309 27.3374L21.8218 27.3607L21.7492 27.3128ZM3.15224 27.2318C3.33877 26.9818 3.4819 26.7532 3.66454 26.5C3.79925 26.3128 4.08423 25.9559 4.1613 25.761L6.09781 25.7565L7.31995 25.7552C7.43329 26.0026 7.68783 26.3238 7.85946 26.5602C8.03627 26.8037 8.25906 27.0965 8.39637 27.3484L3.08035 27.3588L3.15224 27.2312V27.2318ZM5.74613 14.6464H7.0719L7.04664 24.8737L4.99678 24.8763C4.37438 24.8853 4.47671 24.9106 4.41842 24.7759L4.40935 14.6458L5.74613 14.6464ZM22.586 20.1406C23.1605 20.048 23.0426 19.6302 23.042 19.07V14.6464L24.3801 14.6458L25.7039 14.6464L25.6838 24.8737L23.6437 24.8763C23.0232 24.8853 23.1255 24.9106 23.0523 24.7759C22.9915 24.2759 23.0407 23.388 23.0407 22.8342C23.0407 22.2111 23.2415 21.4061 22.5847 21.3148C21.9701 21.3206 22.1139 22.2047 22.1139 22.8342C22.1139 23.5019 22.1119 24.1697 22.1165 24.8368C22.1204 25.3614 21.8367 25.6153 21.4416 26.1619C21.1424 26.5758 20.8574 26.9546 20.5841 27.3633H9.52525L8.13407 25.4015C8.01878 25.2338 7.99741 25.2228 7.99158 24.9559L7.99611 19.8336C7.99611 19.2798 7.91451 14.5001 8.04534 14.2358L9.46696 12.1866H20.6437C20.691 12.3634 21.0129 12.7455 21.1385 12.9275C22.3328 14.6529 22.1145 13.9301 22.1145 15.6574L22.1119 19.366C22.1145 19.8303 22.1728 20.0706 22.5854 20.1399L22.586 20.1406ZM25.7939 12.1646L27.018 12.1639C26.8723 12.4755 26.621 12.7734 26.4357 13.0376C26.2803 13.2585 26.053 13.6808 25.8211 13.765C25.7479 13.7779 23.0051 13.8187 22.8205 13.7164C22.6106 13.4865 21.8503 12.4573 21.7279 12.1646L25.7939 12.1659V12.1646ZM7.16322 12.1639H8.38536C8.22409 12.5597 7.55052 13.3116 7.28951 13.7643L4.46441 13.7727C4.17037 13.7559 4.22801 13.73 4.18721 13.6944C4.03759 13.5882 3.19952 12.3854 3.09719 12.1639H7.16387H7.16322ZM0.879588 9.51565L29.2265 9.5273C29.2265 11.1102 29.2511 11.2825 27.4098 11.2825H2.35108C1.62116 11.2825 0.879588 11.322 0.879588 10.2469V9.51629V9.51565Z" fill="black"/>
<path id="Vector_2" fill-rule="evenodd" clip-rule="evenodd" d="M14.5432 3.52476C15.7776 3.16401 16.7621 4.04095 17.0108 4.93667C17.3553 6.18083 16.4959 7.18276 15.5969 7.42887C13.0853 8.1154 11.8599 4.30908 14.5432 3.52476ZM8.23429 4.74237C8.07173 4.8298 7.91823 4.89716 7.75243 4.99819C7.58015 5.10312 7.44673 5.19573 7.2343 5.24495C7.28482 6.03316 6.95775 5.93795 6.34894 6.30129C5.91047 6.56295 5.46099 6.80841 4.9882 7.05776C4.63846 7.24235 2.48757 8.40167 2.35156 8.55257L26.5321 8.54027C26.3183 8.48651 25.2646 7.87252 24.9965 7.71773C22.6014 6.33497 19.7348 4.88485 17.4272 3.52217C16.9233 3.22424 16.4162 2.96712 15.9104 2.68539C15.6196 2.52347 14.6183 1.89071 14.3592 1.90819C13.9985 1.98397 10.6112 3.9574 9.79127 4.39198C9.52573 4.53252 9.28933 4.66465 9.03804 4.81491C8.5769 5.09016 8.57561 4.95933 8.23494 4.74366L8.23429 4.74237Z" fill="#ADE49B"/>
<path id="Vector_3" fill-rule="evenodd" clip-rule="evenodd" d="M29.1686 28.3148C29.0267 28.2124 28.9924 28.2429 28.7677 28.2429L3.64608 28.2377C0.428491 28.2377 0.881208 27.9754 0.881208 29.1282C0.881208 30.2144 0.770457 30.0032 1.88185 30.0032H25.5876C26.0151 30.0032 29.0002 30.0784 29.153 29.932C29.3072 29.7843 29.245 28.4333 29.1686 28.3148Z" fill="#3D6C92"/>
<path id="Vector_4" fill-rule="evenodd" clip-rule="evenodd" d="M0.878906 10.2456C0.878906 11.3207 1.62048 11.2812 2.3504 11.2812H27.4091C29.2498 11.2812 29.2258 11.109 29.2258 9.52606L0.878906 9.5144V10.245V10.2456Z" fill="#3C6B91"/>
<path id="Vector_5" fill-rule="evenodd" clip-rule="evenodd" d="M14.6156 16.8692C14.6201 15.9819 15.4925 15.9845 15.4977 16.8692C16.0068 17.0156 16.0767 16.9178 16.4362 17.2779C17.3436 18.1859 16.4997 19.0997 16.0547 18.5402C15.7762 18.1898 16.1389 17.8653 15.5003 17.785L15.4971 19.2461C15.7827 19.4326 16.0036 19.2345 16.4932 19.7493C17.0165 20.2999 17.1784 22.544 15.5204 22.6146C15.4589 22.9987 15.4925 23.294 15.056 23.2947C14.6182 23.2947 14.6532 22.9993 14.5916 22.6146C13.8494 22.5984 13.2179 22.011 13.2821 21.2474C13.3177 20.8264 13.7827 20.6878 14.0334 20.9754C14.3229 21.307 13.9822 21.6444 14.615 21.7325C14.615 19.649 14.7374 20.4119 14.0308 20.0939C13.0638 19.6587 13.0845 17.886 13.6461 17.307C14.0327 16.9087 14.0586 17.0279 14.6143 16.8698L14.6156 16.8692ZM14.6635 23.8717C15.4446 23.6509 15.1713 24.0796 16.0036 23.4877C16.385 23.2163 16.613 22.9708 16.9051 22.6237C17.3792 22.0602 17.8131 21.1289 17.8915 20.1302C18.1382 17.0013 15.5703 15.8129 15.4096 15.6088C13.0385 15.3109 11.1215 17.2643 10.9071 19.3219C10.764 20.6949 11.275 21.6956 11.8838 22.4773C12.2762 22.9818 13.6461 24 14.6635 23.8711V23.8717Z" fill="#FEE079"/>
<path id="Vector_6" fill-rule="evenodd" clip-rule="evenodd" d="M15.4086 15.6088C19.2292 15.8977 20.4759 20.7584 17.7551 22.9443C17.3788 23.2461 16.9572 23.5116 16.4002 23.7098C16.0064 23.8497 15.0394 24.1126 14.6625 23.8711C13.6457 23.9999 12.2752 22.9818 11.8827 22.4773C11.2739 21.6949 10.7629 20.6943 10.9061 19.3219C11.1204 17.2642 13.0375 15.3109 15.4086 15.6088ZM9.99674 19.5984C9.99674 21.1632 10.4559 22.3128 11.511 23.3782C13.8354 25.726 17.9747 25.2227 19.6042 21.9708C20.4947 20.1943 20.2097 17.8815 18.8937 16.4657C18.27 15.7947 18.0129 15.5726 17.1152 15.1263C15.2804 14.215 12.9617 14.783 11.5103 16.1121L10.9482 16.785C10.761 17.0635 10.6451 17.2383 10.4857 17.5576C10.2247 18.081 9.99609 18.8368 9.99609 19.5978L9.99674 19.5984Z" fill="black"/>
<path id="Vector_7" fill-rule="evenodd" clip-rule="evenodd" d="M15.4972 21.7358L15.5011 20.1982C15.9597 20.2416 15.9584 20.4916 15.9597 20.9515C15.961 21.4262 15.9616 21.6684 15.4972 21.7364V21.7358ZM14.5996 17.7844L14.6164 19.32C14.132 19.265 14.1514 19.0169 14.1527 18.5389C14.154 18.0545 14.154 17.8407 14.5996 17.7844ZM14.6151 16.8693C14.0588 17.0273 14.0335 16.9081 13.6469 17.3064C13.0853 17.8854 13.0646 19.6581 14.0316 20.0933C14.7375 20.4113 14.6158 19.6484 14.6158 21.7319C13.9836 21.6438 14.3237 21.3064 14.0342 20.9748C13.7829 20.6872 13.3178 20.8258 13.2829 21.2468C13.2188 22.0104 13.8502 22.5972 14.5925 22.614C14.654 22.9987 14.619 23.2941 15.0568 23.2941C15.4934 23.2941 15.4597 22.9981 15.5212 22.614C17.1792 22.5441 17.0173 20.2999 16.494 19.7488C16.0044 19.2339 15.7835 19.4321 15.4979 19.2455L15.5011 17.7844C16.1397 17.8647 15.777 18.1898 16.0555 18.5396C16.4998 19.0992 17.3444 18.1853 16.437 17.2773C16.0775 16.9178 16.0069 17.015 15.4985 16.8686C15.4933 15.9839 14.6209 15.9813 14.6164 16.8686L14.6151 16.8693Z" fill="black"/>
<path id="Vector_8" fill-rule="evenodd" clip-rule="evenodd" d="M22.5859 20.1399V21.3147C23.2427 21.4054 23.0419 22.2111 23.0419 22.8342C23.0419 23.3879 22.992 24.2752 23.0536 24.7759H24.3806V14.6458L23.0425 14.6464V19.0699C23.0432 19.6302 23.1617 20.0479 22.5866 20.1405L22.5859 20.1399Z" fill="#EAF6FE"/>
<path id="Vector_9" fill-rule="evenodd" clip-rule="evenodd" d="M23.0547 24.7752C23.1279 24.91 23.0255 24.8847 23.646 24.8756L25.6861 24.873L25.7062 14.6458L24.3824 14.6451V24.7752H23.0553H23.0547Z" fill="#D8ECFE"/>
<path id="Vector_10" fill-rule="evenodd" clip-rule="evenodd" d="M4.41797 24.7752C4.47626 24.9099 4.37393 24.8847 4.99633 24.8756L7.04619 24.873L7.07145 14.6458H5.74568V24.7752H4.41797Z" fill="#D8ECFE"/>
<path id="Vector_11" fill-rule="evenodd" clip-rule="evenodd" d="M4.41922 24.7752H5.74629V14.6458L4.41016 14.6451L4.41922 24.7752Z" fill="#EAF6FE"/>
<path id="Vector_12" fill-rule="evenodd" clip-rule="evenodd" d="M14.3592 1.90759C14.619 1.8901 15.6196 2.52287 15.9104 2.68478C16.4162 2.96652 16.9233 3.22429 17.4272 3.52157C19.7355 4.88425 22.6014 6.33437 24.9965 7.71713C25.264 7.87192 26.3183 8.48591 26.5321 8.53966L2.35156 8.55197L27.9161 8.63552C27.4097 8.31428 26.8494 7.99757 26.3002 7.70806C24.6914 6.86027 22.876 5.77155 21.2679 4.91793L16.2731 2.14722C15.8262 1.88492 14.878 1.33052 14.3586 1.90759H14.3592Z" fill="#89D9A3"/>
<path id="Vector_13" fill-rule="evenodd" clip-rule="evenodd" d="M14.6641 23.8717C15.0417 24.1127 16.008 23.8504 16.4017 23.7105C16.9587 23.5123 17.3804 23.2467 17.7567 22.9449C20.4775 20.7591 19.2307 15.8984 15.4102 15.6095C15.5708 15.8135 18.1388 17.002 17.892 20.1308C17.813 21.1295 17.3797 22.0602 16.9056 22.6243C16.6135 22.9715 16.3856 23.217 16.0041 23.4883C15.1718 24.0803 15.4451 23.6515 14.6641 23.8724V23.8717Z" fill="#FAD269"/>
<path id="Vector_14" fill-rule="evenodd" clip-rule="evenodd" d="M14.5424 4.47294C15.2062 3.96517 16.2431 4.66918 16.1991 5.54029C16.1602 6.31684 15.179 7.00271 14.4491 6.43406C13.6913 5.90363 13.7321 4.85506 14.5424 4.47294ZM14.543 3.52476C11.8597 4.30908 13.0851 8.1154 15.5968 7.42888C16.4957 7.18276 17.3552 6.18148 17.0106 4.93667C16.7625 4.04095 15.7775 3.16401 14.543 3.52476Z" fill="black"/>
<path id="Vector_15" fill-rule="evenodd" clip-rule="evenodd" d="M22.8231 13.7144C23.1955 13.7235 23.5692 13.7177 23.9416 13.7183C24.3321 13.719 24.6709 13.8103 24.8749 13.5299C25.0931 13.23 25.687 12.4359 25.7965 12.1633L21.7305 12.162C21.8529 12.4554 22.6132 13.4839 22.8231 13.7138V13.7144Z" fill="#ADE49B"/>
<path id="Vector_16" fill-rule="evenodd" clip-rule="evenodd" d="M4.18703 13.6931C4.54454 13.7533 4.92925 13.7184 5.29259 13.719C5.65528 13.7197 6.03805 13.8097 6.23559 13.5403C6.39491 13.3233 6.51991 13.1186 6.69348 12.8809C6.83079 12.6925 7.09763 12.355 7.16434 12.1633H3.09766C3.19999 12.3848 4.03806 13.5875 4.18767 13.6938L4.18703 13.6931Z" fill="#ADE49B"/>
<path id="Vector_17" fill-rule="evenodd" clip-rule="evenodd" d="M3.15234 27.2312C3.36737 27.4184 4.83368 27.3271 5.11541 27.3271C5.79157 27.3271 6.46773 27.3271 7.14389 27.3271C6.90944 26.7876 6.37123 26.3057 6.09792 25.7559L4.1614 25.7604C4.08433 25.9553 3.79936 26.3129 3.66465 26.4994C3.482 26.7526 3.33952 26.9812 3.15234 27.2312Z" fill="#ADE49B"/>
<path id="Vector_18" fill-rule="evenodd" clip-rule="evenodd" d="M21.75 27.3128L25.7785 27.3277L25.2454 26.5291C25.0712 26.2973 24.8394 25.9896 24.7312 25.7545L22.794 25.7558C22.6904 25.9883 22.4501 26.2966 22.2804 26.5278C22.0842 26.7953 21.9054 27.033 21.75 27.3128Z" fill="#ADE49B"/>
<path id="Vector_19" fill-rule="evenodd" clip-rule="evenodd" d="M14.5425 4.47295C14.944 5.08629 14.981 5.93019 14.65 6.30649C14.5541 6.41594 14.6066 6.38485 14.4492 6.43408C15.1791 7.00272 16.1603 6.31685 16.1992 5.5403C16.2432 4.66984 15.2063 3.96518 14.5425 4.47295Z" fill="#335E80"/>
<path id="Vector_20" fill-rule="evenodd" clip-rule="evenodd" d="M21.75 27.3128L21.8225 27.3607L27.0317 27.3374C26.8763 27.0861 26.6684 26.8096 26.5 26.568C26.3426 26.3419 26.0401 25.9773 25.9546 25.7571L24.7312 25.7545C24.8394 25.9896 25.0712 26.2973 25.2454 26.5291L25.7785 27.3277L21.75 27.3128Z" fill="#89D9A3"/>
<path id="Vector_21" fill-rule="evenodd" clip-rule="evenodd" d="M22.8203 13.7144C23.0055 13.8168 25.7478 13.776 25.8209 13.763C26.0528 13.6788 26.2801 13.2572 26.4356 13.0357C26.6208 12.7721 26.8721 12.4742 27.0178 12.162L25.7937 12.1626C25.6843 12.4353 25.0904 13.2293 24.8721 13.5292C24.6681 13.8096 24.3294 13.7183 23.9388 13.7177C23.5658 13.717 23.1927 13.7229 22.8203 13.7138V13.7144Z" fill="#89D9A3"/>
<path id="Vector_22" fill-rule="evenodd" clip-rule="evenodd" d="M3.15392 27.2312L3.08203 27.3587L8.39805 27.3484C8.26075 27.0964 8.03795 26.8037 7.86114 26.5602C7.68951 26.3238 7.43498 26.0025 7.32164 25.7551L6.09949 25.7564C6.37281 26.3063 6.91102 26.7882 7.14547 27.3277C6.46931 27.3277 5.79315 27.3277 5.11699 27.3277C4.83526 27.3277 3.36895 27.419 3.15392 27.2318V27.2312Z" fill="#89D9A3"/>
<path id="Vector_23" fill-rule="evenodd" clip-rule="evenodd" d="M4.18489 13.693C4.22634 13.7286 4.1687 13.7552 4.46209 13.7714L7.2872 13.763C7.54821 13.3103 8.22178 12.559 8.38304 12.1626H7.1609C7.09419 12.3543 6.82736 12.6917 6.69005 12.8802C6.51648 13.1179 6.39148 13.3226 6.23215 13.5395C6.03462 13.809 5.65185 13.7189 5.28916 13.7183C4.92517 13.7176 4.54046 13.7526 4.18359 13.6924L4.18489 13.693Z" fill="#89D9A3"/>
<path id="Vector_24" fill-rule="evenodd" clip-rule="evenodd" d="M14.4487 6.43403C14.6061 6.3848 14.5536 6.41589 14.6495 6.30644C14.9804 5.93014 14.9435 5.08624 14.542 4.4729C13.7317 4.85502 13.6909 5.90294 14.4487 6.43403Z" fill="#3D6C92"/>
<path id="Vector_25" fill-rule="evenodd" clip-rule="evenodd" d="M15.4961 21.7357C15.9605 21.6677 15.9598 21.4255 15.9585 20.9507C15.9572 20.4909 15.9585 20.2416 15.5 20.1975L15.4961 21.7351V21.7357Z" fill="#FEE079"/>
<path id="Vector_26" fill-rule="evenodd" clip-rule="evenodd" d="M14.5996 17.7844C14.1541 17.8408 14.1541 18.0551 14.1528 18.539C14.1515 19.0169 14.132 19.265 14.6165 19.32L14.5996 17.7844Z" fill="#FEE079"/>
</g>
</g>
</g>
<defs>
<clipPath id="clip0_219_132615">
<rect width="30.1176" height="30.1176" fill="white" transform="translate(0 0.77478)"/>
</clipPath>
</defs>
</svg>
