<svg width="28" height="33" viewBox="0 0 28 33" fill="none" xmlns="http://www.w3.org/2000/svg">
<g id="CompromisoPago">
<path id="Vector" d="M19.7123 6.44921C20.0403 6.48906 20.1864 6.68695 20.1838 7.00304C20.1838 7.35632 20.2276 7.71492 20.1227 8.06554C20.0815 8.19835 20.1439 8.2475 20.2249 8.31921C20.9501 8.94875 21.2516 9.74164 21.0006 10.6727C20.7496 11.6037 20.0828 12.1336 19.1412 12.3023C19.0856 12.3029 19.0325 12.3252 18.9931 12.3644C18.9537 12.4036 18.9311 12.4565 18.93 12.5121C18.7388 13.7412 18.0862 14.8511 17.1052 15.6159C17.0616 15.6433 17.0257 15.6814 17.0009 15.7264C16.976 15.7715 16.963 15.8221 16.9631 15.8736C16.9697 16.1764 16.9777 16.4792 16.9631 16.7807C16.9524 16.9759 17.0959 16.9972 17.2114 17.0463L22.1029 18.9296C22.4509 19.0624 22.8028 19.1952 23.1508 19.328C23.9867 19.6668 24.7044 20.244 25.2147 20.9876C25.725 21.7312 26.0054 22.6085 26.0209 23.5103C26.0421 25.2369 26.0275 26.9741 26.0209 28.7059C26.0193 28.8602 26.0592 29.012 26.1364 29.1455C26.2923 29.4233 26.3813 29.7336 26.3963 30.0518C26.4114 30.37 26.3521 30.6873 26.2232 30.9786C26.0944 31.2699 25.8994 31.5271 25.6538 31.7299C25.4082 31.9328 25.1187 32.0756 24.8083 32.1471C24.7685 32.1564 24.7273 32.1564 24.7127 32.2055H14.9403C14.773 32.086 14.6296 31.9505 14.6163 31.7261C14.7358 31.3436 14.8394 31.2666 15.2458 31.2666H21.2303C20.5663 30.4365 19.9367 29.6595 19.3165 28.8759C19.2798 28.8331 19.2326 28.8005 19.1795 28.7814C19.1264 28.7623 19.0693 28.7574 19.0137 28.767C15.673 28.767 12.3332 28.767 8.99432 28.767C8.92319 28.7643 8.85255 28.7799 8.78926 28.8125C8.72596 28.8451 8.67216 28.8935 8.63307 28.953C8.14167 29.5745 7.64096 30.1908 7.14557 30.8123C7.03135 30.9544 6.91979 31.0966 6.77768 31.2745H12.7542C13.1607 31.2745 13.2629 31.3516 13.3838 31.7341C13.3705 31.9572 13.2271 32.094 13.0597 32.2135H3.23159C2.90088 32.0515 2.5476 31.9373 2.27135 31.669C1.92555 31.3533 1.69862 30.9284 1.62851 30.4655C1.55841 30.0025 1.64937 29.5295 1.8862 29.1256C1.95634 28.9996 1.98992 28.8566 1.98315 28.7126C1.98315 27.063 1.98315 25.414 1.98315 23.7653C1.98315 21.6496 3.10807 20.016 5.07104 19.2497C6.97159 18.5126 8.86948 17.7688 10.7714 17.037C10.9825 16.956 11.0264 16.8391 11.0449 16.6253C11.0994 16.0409 10.9546 15.6133 10.4712 15.2029C9.67432 14.5295 9.26128 13.5985 9.08729 12.5719C9.0873 12.4972 9.0579 12.4255 9.00546 12.3723C8.95302 12.3191 8.88174 12.2887 8.80706 12.2877C7.05526 11.9848 6.3394 10.0298 7.47893 8.6632C7.61174 8.51179 7.61174 8.43078 7.4869 8.28335C7.26427 8.02846 7.13952 7.7027 7.13495 7.36429C7.12698 5.99765 7.03534 4.62703 7.17479 3.2657C7.3501 1.58296 8.84159 0.196401 10.531 0.157886C12.2575 0.118042 13.996 0.128667 15.7279 0.157886C16.8409 0.173823 17.4877 0.731636 17.7666 1.82734C17.8383 2.10757 17.9937 2.2125 18.2806 2.21382C18.7444 2.2003 19.1961 2.36268 19.5452 2.66838C19.8943 2.97408 20.1148 3.40049 20.1625 3.86203C20.1885 4.14235 20.1964 4.42404 20.1864 4.70539C20.1864 5.02414 19.966 5.14367 19.707 5.22468C19.3696 5.145 19.2196 4.93648 19.2488 4.58718C19.2621 4.42055 19.2621 4.25312 19.2488 4.08648C19.2076 3.51007 18.8211 3.15679 18.2447 3.15679C17.5089 3.15015 17.0494 2.79023 16.8701 2.08367C16.6908 1.3771 16.396 1.11015 15.6934 1.10218C14.2537 1.08492 12.814 1.10218 11.373 1.10218C11.114 1.10218 10.8537 1.08226 10.5934 1.09421C9.35424 1.14468 8.24659 2.13546 8.11378 3.36796C7.98096 4.65226 8.06995 5.94585 8.06862 7.23546C8.06862 7.69898 8.35815 7.99117 8.82034 8.05492C9.3157 8.11469 9.81646 8.11469 10.3118 8.05492C10.341 8.0656 10.3713 8.07274 10.4021 8.07617C11.6944 8.07617 12.9867 8.09476 14.2789 8.07617C14.746 8.08307 15.2065 7.96569 15.6133 7.73605C16.02 7.50641 16.3585 7.17276 16.5939 6.76929C16.7532 6.51296 16.9259 6.30445 17.2579 6.38015C17.5899 6.45585 17.6776 6.69359 17.7095 7.00703C17.7289 7.29048 17.8546 7.55616 18.0614 7.75094C18.2683 7.94571 18.541 8.05522 18.8251 8.05757C19.0907 8.04828 19.2342 7.92476 19.2448 7.65914C19.2541 7.45062 19.2448 7.2421 19.2448 7.03359C19.2567 6.64179 19.3391 6.53953 19.7123 6.44921ZM8.98635 10.168C8.98635 9.84656 8.98635 9.52515 9.00229 9.20375C9.00229 9.07093 8.95979 9.03109 8.82963 9.01117C8.45112 8.95539 8.18284 9.14398 7.97299 9.64734C7.90094 9.81364 7.8662 9.9937 7.87122 10.1749C7.87625 10.356 7.9209 10.5339 8.00206 10.6959C8.08321 10.858 8.19888 11.0003 8.34094 11.1128C8.48301 11.2254 8.648 11.3054 8.82432 11.3473C8.97174 11.3792 9.00628 11.3274 9.00229 11.1933C8.99565 10.8466 8.99432 10.5053 8.99034 10.1627L8.98635 10.168ZM20.0178 9.59023C19.9514 9.33523 19.7641 9.1732 19.5795 9.00187C19.3949 8.83054 19.2435 8.95671 19.0854 9.00187C18.9274 9.04703 19.0017 9.19578 19.0004 9.29804C19.0004 9.5889 19.0004 9.87976 19.011 10.1706C19.011 10.504 19.011 10.8347 18.9951 11.172C18.9951 11.346 19.0363 11.3872 19.2103 11.3354C19.3878 11.2874 19.5527 11.2012 19.6933 11.0827C19.834 10.9641 19.9469 10.8163 20.0243 10.6494C20.1016 10.4826 20.1415 10.3008 20.141 10.1169C20.1406 9.93298 20.0999 9.7514 20.0217 9.58492L20.0178 9.59023ZM5.71385 20.0373C4.91977 20.2399 4.21527 20.7001 3.71061 21.3459C3.20595 21.9916 2.92959 22.7864 2.92479 23.6059C2.91151 24.9341 2.92479 26.2542 2.92479 27.5784C2.92479 27.6235 2.89956 27.6846 2.9912 27.7112C3.71635 26.7948 4.44461 25.8744 5.17596 24.95C5.53057 24.533 5.91838 24.1531 6.45893 23.9964C6.65151 23.9393 6.68073 23.8344 6.67807 23.6591C6.6701 23.003 6.67807 22.3455 6.67807 21.6894C6.67807 20.6535 7.26776 20.0691 8.31167 20.0678H9.92932C9.65977 19.6695 9.44323 19.2378 9.28518 18.7835C9.24932 18.668 9.18026 18.6507 9.07135 18.6945C7.98141 19.1301 6.89057 19.564 5.79885 19.9961L5.71385 20.0373ZM14.0014 20.0559C14.6588 20.0559 15.3295 19.9987 15.9696 20.0864C16.7824 20.1953 17.2048 19.7929 17.5289 19.1567C17.5714 19.073 17.6178 18.992 17.6617 18.907C17.9419 18.3306 17.9406 18.3306 17.3615 18.1102C17.2956 18.0791 17.2277 18.0525 17.1583 18.0305C16.3468 17.8326 15.9046 17.3664 16.0294 16.4859C16.0507 16.3371 16.0068 16.2747 15.8368 16.3437C15.2504 16.564 14.6304 16.6818 14.004 16.6917C13.5051 16.6691 13.0105 16.5893 12.5298 16.454C11.9892 16.284 11.9879 16.288 11.976 16.8524C11.964 17.4169 11.798 17.6493 11.292 17.8445C10.9732 17.9773 10.6571 18.1102 10.3331 18.2164C10.1657 18.2748 10.1033 18.3346 10.1764 18.5259C10.3722 19.0537 10.6705 19.5376 11.0542 19.9496C11.0855 19.9905 11.1257 20.0237 11.1717 20.0467C11.2177 20.0697 11.2684 20.0819 11.3199 20.0824C12.211 20.0625 13.1062 20.0598 14.0014 20.0559ZM8.24393 25.0682C7.51479 24.5741 6.62229 24.6977 6.04456 25.4042C5.02323 26.654 4.01917 27.917 3.00979 29.1761C2.90839 29.2946 2.81436 29.4192 2.72823 29.5493C2.6189 29.7154 2.55635 29.9078 2.54715 30.1064C2.53795 30.305 2.58245 30.5025 2.67595 30.6779C2.76946 30.8534 2.90853 31.0004 3.07852 31.1035C3.24852 31.2066 3.44316 31.262 3.64198 31.2639C4.08956 31.2785 4.53713 31.2639 4.98471 31.2639C5.39245 31.3462 5.68331 31.2134 5.9144 30.8548C6.17206 30.4657 6.49081 30.1191 6.78432 29.7538C7.38995 28.9994 8.00354 28.2517 8.59854 27.4894C9.24003 26.6686 9.07268 25.5888 8.24393 25.0682ZM21.581 25.0682C21.2635 24.8451 20.8762 24.7439 20.4902 24.7829C20.1041 24.8219 19.745 24.9986 19.4785 25.2807C19.1944 25.5709 19.0285 25.9564 19.013 26.3622C18.9975 26.7681 19.1337 27.1651 19.3949 27.4761C20.3591 28.6913 21.3379 29.8973 22.3074 31.1098C22.3398 31.1619 22.3853 31.2044 22.4395 31.2331C22.4936 31.2618 22.5544 31.2756 22.6156 31.2732C23.1667 31.2612 23.7192 31.2626 24.2717 31.2599C24.4907 31.28 24.7105 31.2316 24.9008 31.1214C25.0911 31.0113 25.2425 30.8448 25.3342 30.645C25.5693 30.1815 25.4538 29.7551 25.143 29.3673C24.092 28.056 23.0406 26.7465 21.9887 25.4387C21.8853 25.2836 21.7452 25.1564 21.581 25.0682ZM13.6614 21.0944C13.6773 21.0573 13.7025 21.0148 13.6268 21.0214H10.1856C9.50831 21.0214 8.83096 21.0015 8.15495 21.0108C7.80565 21.0108 7.6144 21.2352 7.61307 21.6005C7.61307 22.2645 7.61307 22.9352 7.61307 23.6019C7.61307 23.7746 7.64893 23.8477 7.84151 23.8848C8.17487 23.9492 8.49225 24.0788 8.77545 24.2661C9.05864 24.4534 9.3021 24.6947 9.49185 24.9763C9.68161 25.2578 9.81394 25.5741 9.88126 25.9069C9.94858 26.2396 9.94957 26.5825 9.88417 26.9156C9.82706 27.2304 9.67034 27.508 9.56542 27.8161H10.187C11.2906 27.8161 12.3943 27.8254 13.4993 27.8254C13.5604 27.8254 13.6627 27.8719 13.672 27.7603C13.6825 27.7193 13.6769 27.6759 13.6564 27.6388C13.6359 27.6018 13.602 27.574 13.5617 27.5611C13.4915 27.5411 13.4227 27.5162 13.3559 27.4867C12.6918 27.1879 12.2682 26.6898 12.1911 25.9514C12.1526 25.5901 12.3239 25.3591 12.6028 25.3272C12.8817 25.2953 13.081 25.4959 13.1261 25.8584C13.1378 26.0136 13.1932 26.1622 13.2858 26.2873C13.3784 26.4123 13.5044 26.5086 13.6494 26.565C13.6494 26.0138 13.6494 25.5025 13.6494 24.9712C13.6494 24.8238 13.5458 24.8119 13.4542 24.7747C12.6241 24.4334 12.1765 23.8198 12.1818 23.0282C12.1818 22.2619 12.652 21.6323 13.4595 21.3189C13.5777 21.2764 13.6693 21.2366 13.6614 21.0931V21.0944ZM11.9348 9.03374C11.3424 9.03374 10.7488 9.03375 10.1564 9.01382C9.95721 9.01382 9.9426 9.10414 9.94393 9.26085C9.94393 10.0843 9.94393 10.9077 9.94393 11.7298C9.94701 12.4621 10.1505 13.1795 10.5323 13.8044C11.3903 15.2109 13.0252 15.863 14.348 15.6969C16.133 15.6425 17.7905 14.1324 18.0017 12.3381C18.1345 11.2265 18.0309 10.1069 18.0588 8.99125C18.0635 8.95003 18.0543 8.90843 18.0326 8.87305C18.011 8.83768 17.9781 8.81056 17.9392 8.79601C17.5228 8.58791 17.1826 8.25375 16.9671 7.84109C16.0985 8.76015 15.0227 9.06695 13.8074 9.02179C13.1859 8.99789 12.559 9.02711 11.9335 9.03242L11.9348 9.03374ZM18.4718 27.8294C18.4293 27.7404 18.4094 27.6966 18.3868 27.6514C17.5899 26.0258 18.4346 24.2567 20.201 23.8848C20.3936 23.8437 20.3963 23.752 20.3963 23.6046C20.3963 22.9684 20.3963 22.3323 20.3963 21.6961C20.3963 21.1794 20.2236 21.0108 19.6964 21.0108H16.1569C15.6867 21.0108 15.2179 21.0108 14.7478 21.0108C14.684 21.0108 14.5884 20.9736 14.5751 21.0865C14.5659 21.1278 14.5718 21.171 14.5918 21.2083C14.6118 21.2456 14.6445 21.2745 14.684 21.2897C14.7517 21.3162 14.8235 21.3335 14.8899 21.3627C15.5739 21.6642 15.9882 22.1742 16.0626 22.9286C16.0958 23.2699 15.9298 23.4877 15.6403 23.5103C15.3507 23.5329 15.1674 23.3602 15.1289 23.0109C15.1094 22.7803 15.0013 22.5661 14.8274 22.4133C14.773 22.3655 14.7159 22.2911 14.6415 22.3163C14.5671 22.3416 14.5884 22.4412 14.5884 22.5089C14.5884 22.9073 14.599 23.3058 14.5884 23.7042C14.5791 23.9247 14.6455 24.0243 14.8633 24.1026C15.7784 24.448 16.2605 25.3657 16.0095 26.2609C15.9288 26.5597 15.7735 26.8331 15.5581 27.0554C15.3428 27.2778 15.0744 27.4417 14.7783 27.5319C14.68 27.5677 14.5778 27.5969 14.5804 27.7351C14.5831 27.8732 14.6933 27.8294 14.761 27.8307C15.9736 27.8294 17.1889 27.828 18.4705 27.828L18.4718 27.8294ZM25.0407 27.7258C25.066 27.6846 25.0832 27.6687 25.0832 27.6527C25.0832 26.2449 25.131 24.8344 25.0673 23.4293C25.0049 22.0507 24.3435 20.9391 23.0844 20.3534C21.739 19.7278 20.3219 19.2537 18.9367 18.7091C18.8291 18.668 18.7574 18.6706 18.7202 18.7901C18.5592 19.2417 18.3433 19.6717 18.0774 20.0705C18.679 20.0705 19.2395 20.0705 19.8039 20.0705C20.719 20.0705 21.3326 20.6907 21.3379 21.6031C21.3379 22.3017 21.3446 23.0003 21.3379 23.6989C21.3275 23.7638 21.3429 23.8302 21.3809 23.8839C21.4189 23.9375 21.4764 23.9741 21.5411 23.9858C22.0176 24.1469 22.4343 24.4482 22.7364 24.8504C22.9954 25.1771 23.2584 25.5012 23.52 25.8266C24.0207 26.4561 24.5267 27.0856 25.0394 27.7244L25.0407 27.7258ZM14.603 26.5876C14.9589 26.3844 15.1435 26.1241 15.1249 25.7562C15.1196 25.5964 15.0672 25.4417 14.9743 25.3116C14.8815 25.1814 14.7523 25.0815 14.603 25.0244V26.5876ZM13.6481 23.8118C13.6481 23.3523 13.6481 22.9259 13.6481 22.5009C13.6481 22.4425 13.672 22.3681 13.6082 22.3323C13.5445 22.2964 13.4754 22.3681 13.4249 22.4119C12.9482 22.8104 13.0398 23.5037 13.6467 23.8105L13.6481 23.8118Z" fill="#020302"/>
<path id="Vector_2" d="M11.3721 1.09685C12.8131 1.09685 14.2528 1.0756 15.6925 1.09685C16.395 1.10482 16.6978 1.38771 16.8692 2.07833C17.0405 2.76896 17.508 3.14083 18.2438 3.15146C18.8202 3.15146 19.2067 3.51138 19.2478 4.08778C19.2611 4.25442 19.2611 4.42185 19.2478 4.58849C19.2186 4.93778 19.3687 5.1463 19.706 5.22599C19.706 5.63505 19.706 6.04411 19.7153 6.45318C19.3382 6.54349 19.2558 6.64575 19.2505 7.03357C19.2505 7.24208 19.2571 7.4506 19.2505 7.65911C19.2399 7.92474 19.0964 8.05755 18.8308 8.05755C18.5472 8.05418 18.2752 7.94404 18.0692 7.74908C17.8632 7.55413 17.7382 7.28868 17.7192 7.00567C17.6873 6.69224 17.5943 6.45317 17.2676 6.3788C16.9409 6.30442 16.7589 6.51161 16.6035 6.76794C16.3682 7.17141 16.0297 7.50506 15.623 7.7347C15.2162 7.96434 14.7557 8.08172 14.2886 8.07482C12.9964 8.09341 11.7041 8.07482 10.4118 8.07482C10.3811 8.07122 10.3509 8.06455 10.3215 8.05489C10.1199 7.7145 10.0272 7.32058 10.0559 6.92599C10.0745 5.87677 10.0639 4.82622 10.0625 3.77568C10.0448 3.29801 10.1426 2.82313 10.3474 2.39125C10.5522 1.95938 10.8582 1.58325 11.2392 1.29474C11.2748 1.27383 11.3052 1.24519 11.3282 1.21093C11.3512 1.17668 11.3662 1.13768 11.3721 1.09685Z" fill="#7A6B78"/>
<path id="Vector_3" d="M26.222 18.2575C26.2234 18.3362 26.2042 18.4138 26.1664 18.4828C26.1285 18.5517 26.0733 18.6096 26.0062 18.6507C25.9391 18.6917 25.8625 18.7145 25.7839 18.7169C25.7052 18.7192 25.6274 18.7009 25.558 18.6639C25.0068 18.373 24.4689 18.057 23.9403 17.7342C23.8897 17.7049 23.8458 17.6654 23.8114 17.6182C23.7769 17.571 23.7527 17.5171 23.7402 17.46C23.7277 17.4029 23.7272 17.3438 23.7388 17.2865C23.7504 17.2293 23.7738 17.175 23.8075 17.1273C23.9403 16.9002 24.1608 16.8098 24.3958 16.9373C24.9523 17.2388 25.4982 17.5602 26.0414 17.8856C26.1035 17.9243 26.1534 17.9797 26.1854 18.0455C26.2174 18.1113 26.23 18.1848 26.222 18.2575Z" fill="#050505"/>
<path id="Vector_4" d="M4.25912 17.3438C4.26148 17.4328 4.23867 17.5206 4.19333 17.5972C4.14798 17.6738 4.08194 17.736 4.00279 17.7768C3.5074 18.0623 3.01599 18.3518 2.51661 18.6294C2.23771 18.7835 1.9774 18.7171 1.8406 18.4793C1.7038 18.2416 1.77685 17.9813 2.05177 17.8153C2.54318 17.5244 3.03591 17.2349 3.53662 16.9613C3.88458 16.7727 4.25247 16.9759 4.25912 17.3438Z" fill="#050505"/>
<path id="Vector_5" d="M4.25771 12.3036C4.25771 12.6317 3.92966 12.8854 3.63482 12.7339C3.06372 12.4404 2.50724 12.115 1.96005 11.7777C1.75154 11.6449 1.72099 11.4164 1.83521 11.196C1.94943 10.9755 2.16857 10.8732 2.38771 10.9795C2.98314 11.2743 3.55976 11.6056 4.11427 11.9716C4.16336 12.0111 4.20207 12.062 4.22707 12.1199C4.25206 12.1777 4.26258 12.2408 4.25771 12.3036Z" fill="#050505"/>
<path id="Vector_6" d="M26.219 11.399C26.2257 11.4826 26.208 11.5663 26.1682 11.6401C26.1284 11.7138 26.068 11.7745 25.9945 11.8147C25.4832 12.1149 24.9745 12.4164 24.4565 12.7046C24.4039 12.7385 24.3449 12.7613 24.2831 12.7717C24.2213 12.7822 24.1581 12.7799 24.0973 12.7651C24.0364 12.7503 23.9792 12.7233 23.9291 12.6858C23.8789 12.6482 23.837 12.6008 23.8058 12.5465C23.7733 12.4902 23.7527 12.4277 23.7453 12.3631C23.7379 12.2985 23.7438 12.233 23.7627 12.1708C23.7817 12.1085 23.8132 12.0508 23.8553 12.0012C23.8974 11.9516 23.9493 11.9112 24.0076 11.8825C24.499 11.5916 24.9931 11.3047 25.4938 11.0298C25.8484 10.8346 26.211 11.0272 26.219 11.399Z" fill="#050505"/>
<path id="Vector_7" d="M25.802 15.2985C25.5204 15.2985 25.2389 15.2985 24.9586 15.2985C24.6253 15.2985 24.4114 15.1046 24.4141 14.827C24.4167 14.5494 24.6319 14.3635 24.9666 14.3608C25.5178 14.3608 26.0703 14.3608 26.6214 14.3608C26.9349 14.3608 27.1407 14.5521 27.1527 14.819C27.1646 15.086 26.9455 15.2932 26.6214 15.2985C26.3425 15.3025 26.0716 15.2985 25.802 15.2985Z" fill="#040404"/>
<path id="Vector_8" d="M2.22664 15.2985C1.94508 15.2985 1.66484 15.2985 1.38328 15.2985C1.06984 15.2985 0.863984 15.1112 0.852031 14.8429C0.840078 14.5747 1.05789 14.3648 1.38328 14.3608C1.94641 14.3608 2.5082 14.3608 3.07 14.3608C3.37812 14.3608 3.58664 14.5667 3.58398 14.8323C3.58133 15.0979 3.37281 15.2905 3.06336 15.2972C2.78844 15.3038 2.50687 15.2985 2.22664 15.2985Z" fill="#040404"/>
<path id="Vector_9" d="M11.9337 9.0325C12.5593 9.0325 13.1861 8.99797 13.8117 9.02055C15.0269 9.0657 16.1027 8.75492 16.9713 7.83984C17.1868 8.2525 17.527 8.58666 17.9435 8.79477C17.9823 8.80931 18.0152 8.83643 18.0368 8.87181C18.0585 8.90718 18.0677 8.94879 18.063 8.99C18.0351 10.1056 18.1361 11.2252 18.0059 12.3369C17.7947 14.1312 16.1372 15.6413 14.3522 15.6957C12.7917 14.8404 11.9616 13.5348 11.9364 11.7459C11.9231 10.8414 11.9337 9.93695 11.9337 9.0325Z" fill="#FDCCBD"/>
<path id="Vector_10" d="M14.6172 31.7288H13.3873C13.2665 31.3463 13.1642 31.2693 12.7578 31.2693H6.78125C6.92336 31.0913 7.03492 30.9492 7.14914 30.8071C7.64453 30.1895 8.14523 29.5732 8.63664 28.9477C8.67573 28.8882 8.72953 28.8398 8.79282 28.8072C8.85612 28.7747 8.92676 28.759 8.99789 28.7618C12.3386 28.7671 15.6784 28.7671 19.0173 28.7618C19.0728 28.7521 19.13 28.7571 19.1831 28.7762C19.2362 28.7953 19.2834 28.8278 19.3201 28.8707C19.9403 29.6543 20.5685 30.4312 21.2339 31.2613H15.2467C14.8403 31.2693 14.7367 31.3463 14.6172 31.7288Z" fill="#5FB8FC"/>
<path id="Vector_11" d="M18.4714 27.828C17.1951 27.828 15.9745 27.828 14.7527 27.828C14.6849 27.828 14.5747 27.8785 14.572 27.7324C14.5694 27.5863 14.6716 27.565 14.7699 27.5292C15.066 27.439 15.3344 27.2751 15.5497 27.0527C15.7651 26.8304 15.9204 26.557 16.0011 26.2581C16.2521 25.363 15.77 24.4453 14.8549 24.0999C14.6371 24.0189 14.5707 23.9193 14.58 23.7015C14.5973 23.3031 14.58 22.9046 14.58 22.5062C14.58 22.4385 14.5468 22.3428 14.6331 22.3136C14.7195 22.2844 14.7659 22.3628 14.8191 22.4106C14.993 22.5634 15.101 22.7775 15.1205 23.0082C15.1591 23.3575 15.3423 23.5302 15.6319 23.5076C15.9214 23.485 16.0874 23.2672 16.0542 22.9259C15.9798 22.1715 15.5655 21.6615 14.8815 21.36C14.8151 21.3308 14.7487 21.3135 14.6756 21.287C14.6361 21.2718 14.6034 21.2429 14.5835 21.2056C14.5635 21.1683 14.5575 21.1251 14.5667 21.0838C14.58 20.9709 14.6756 21.0081 14.7394 21.0081C15.2095 21.0081 15.6784 21.0081 16.1485 21.0081H19.684C20.2152 21.0081 20.3839 21.1767 20.3839 21.6934C20.3839 22.3295 20.3839 22.9657 20.3839 23.6019C20.3839 23.7467 20.3839 23.841 20.1887 23.8821C18.4223 24.254 17.5749 26.0231 18.3745 27.6487C18.409 27.6938 18.4289 27.739 18.4714 27.828Z" fill="#71D276"/>
<path id="Vector_12" d="M25.039 27.7244C24.5263 27.0856 24.0203 26.456 23.513 25.8265C23.2473 25.5011 22.9817 25.177 22.7294 24.8503C22.4272 24.4482 22.0106 24.1468 21.5341 23.9857C21.4694 23.974 21.4119 23.9374 21.3739 23.8838C21.3359 23.8302 21.3204 23.7637 21.3309 23.6988C21.3415 23.0002 21.3388 22.3017 21.3309 21.6031C21.3309 20.6906 20.712 20.077 19.7969 20.0704C19.2364 20.0704 18.6759 20.0704 18.0703 20.0704C18.3363 19.6716 18.5522 19.2416 18.7131 18.7901C18.7503 18.6706 18.822 18.6679 18.9296 18.7091C20.3148 19.2536 21.732 19.7277 23.0773 20.3533C24.3364 20.939 24.9978 22.0506 25.0602 23.4292C25.124 24.8344 25.0762 26.2449 25.0762 27.6527C25.0815 27.6673 25.0642 27.6832 25.039 27.7244Z" fill="#5FB7FB"/>
<path id="Vector_13" d="M10.1875 21.024H13.6287C13.6393 21.048 13.6513 21.0732 13.6632 21.0971C13.6712 21.2405 13.5795 21.2804 13.46 21.3269C12.6525 21.6403 12.1877 22.2698 12.1823 23.0362C12.1823 23.833 12.6246 24.4413 13.4547 24.7826C13.5463 24.8198 13.6526 24.8318 13.6499 24.9792C13.6499 25.4985 13.6499 26.0165 13.6499 26.573C13.5049 26.5165 13.3789 26.4202 13.2863 26.2952C13.1937 26.1702 13.1383 26.0215 13.1266 25.8664C13.0815 25.5051 12.8836 25.3059 12.6034 25.3351C12.3231 25.3644 12.1531 25.6008 12.1916 25.9594C12.2687 26.7031 12.6884 27.1958 13.3564 27.4947C13.4232 27.5242 13.492 27.549 13.5623 27.569C13.6026 27.5819 13.6364 27.6098 13.6569 27.6468C13.6774 27.6838 13.683 27.7273 13.6725 27.7683C13.6632 27.8798 13.5609 27.8333 13.4998 27.8333C12.3948 27.8333 11.2912 27.8333 10.1875 27.824C10.1875 25.5556 10.1875 23.2889 10.1875 21.024Z" fill="#72D377"/>
<path id="Vector_14" d="M11.3753 1.09695C11.3698 1.13826 11.355 1.17778 11.332 1.21252C11.309 1.24727 11.2784 1.27632 11.2425 1.2975C10.8603 1.5849 10.5531 1.96023 10.3468 2.39165C10.1406 2.82308 10.0415 3.29788 10.0578 3.77578C10.0578 4.82633 10.0697 5.87688 10.0512 6.92609C10.0225 7.32068 10.1151 7.71461 10.3168 8.055C9.82137 8.1141 9.3207 8.1141 8.82529 8.055C8.36311 7.99125 8.07357 7.69906 8.07357 7.23555C8.07357 5.94594 7.98061 4.65234 8.11873 3.36805C8.25154 2.13555 9.3592 1.14477 10.5983 1.0943C10.856 1.07703 11.1163 1.09297 11.3753 1.09695Z" fill="#645C66"/>
<path id="Vector_15" d="M11.9343 9.03234C11.9343 9.93679 11.9237 10.8412 11.9343 11.7457C11.9609 13.5347 12.7896 14.8402 14.3502 15.6955C13.0221 15.8616 11.3925 15.2094 10.5345 13.803C10.1527 13.1781 9.9492 12.4607 9.94613 11.7284C9.9355 10.9063 9.94613 10.0829 9.94613 9.25945C9.94613 9.10273 9.95941 9.0071 10.1586 9.01242C10.7483 9.02835 11.346 9.02703 11.9343 9.03234Z" fill="#FCAF9E"/>
<path id="Vector_16" d="M5.17055 24.9513C4.44008 25.873 3.71182 26.7934 2.98578 27.7125C2.89414 27.6819 2.91938 27.6208 2.91938 27.5797C2.91938 26.2515 2.90742 24.9314 2.91938 23.6072C2.92418 22.7877 3.20053 21.9929 3.70519 21.3472C4.20986 20.7014 4.91435 20.2412 5.70844 20.0386C5.75094 20.2019 5.63141 20.3122 5.57563 20.437C5.36711 20.8806 5.18781 21.3388 5.17719 21.8329C5.15727 22.8715 5.17055 23.9114 5.17055 24.9513Z" fill="#1CA6FC"/>
<path id="Vector_17" d="M24.2717 31.2585C23.7192 31.2585 23.1667 31.2585 22.6155 31.2718C22.5543 31.2743 22.4935 31.2604 22.4394 31.2317C22.3853 31.203 22.3397 31.1605 22.3074 31.1085C21.3378 29.8959 20.359 28.69 19.3948 27.4747C19.1336 27.1638 18.9974 26.7667 19.0129 26.3609C19.0284 25.9551 19.1943 25.5695 19.4785 25.2793C19.7449 24.9972 20.104 24.8205 20.4901 24.7815C20.8762 24.7425 21.2634 24.8438 21.5809 25.0668C21.54 25.0714 21.5008 25.0858 21.4668 25.109C21.4327 25.1321 21.4049 25.1633 21.3856 25.1996C20.8717 25.8943 20.8677 26.9979 21.4042 27.6766C22.3538 28.8746 23.3154 30.0646 24.2717 31.2585Z" fill="#FCA48D"/>
<path id="Vector_18" d="M4.98385 31.2585C4.53628 31.2585 4.0887 31.2785 3.64112 31.2585C3.44232 31.2564 3.24778 31.2007 3.07796 31.0973C2.90813 30.9939 2.7693 30.8467 2.67607 30.6711C2.58284 30.4955 2.53864 30.298 2.54814 30.0994C2.55763 29.9009 2.62046 29.7085 2.73003 29.5426C2.81616 29.4126 2.91019 29.2879 3.01159 29.1694C4.02096 27.9103 5.02502 26.646 6.04635 25.3975C6.62409 24.691 7.51659 24.5674 8.24573 25.0615C8.20491 25.0669 8.16591 25.0817 8.1318 25.1047C8.09768 25.1278 8.0694 25.1585 8.04917 25.1943C7.05042 26.4383 6.04945 27.6801 5.04628 28.9197C4.37823 29.7471 4.35565 30.5028 4.98385 31.2585Z" fill="#FCA48D"/>
<path id="Vector_19" d="M4.98275 31.2586C4.35455 30.5029 4.37712 29.7472 5.04517 28.9225C6.04923 27.6811 7.0502 26.4406 8.04806 25.201C8.06829 25.1652 8.09658 25.1345 8.13069 25.1115C8.16481 25.0884 8.20381 25.0736 8.24462 25.0682C9.07337 25.5902 9.24072 26.67 8.60322 27.4854C8.00822 28.2478 7.39462 28.9955 6.789 29.7499C6.49548 30.1151 6.17673 30.4618 5.91908 30.8509C5.68134 31.2082 5.39048 31.341 4.98275 31.2586Z" fill="#FDAF9E"/>
<path id="Vector_20" d="M24.2721 31.2586C23.3159 30.0633 22.3543 28.8679 21.4047 27.6726C20.8734 26.994 20.8734 25.8903 21.3861 25.1957C21.4053 25.1593 21.4332 25.1282 21.4672 25.105C21.5013 25.0819 21.5404 25.0674 21.5813 25.0629C21.748 25.1501 21.8904 25.2775 21.9957 25.4334C23.0494 26.7421 24.1008 28.0516 25.15 29.362C25.4608 29.7498 25.5763 30.1761 25.3413 30.6397C25.2498 30.8414 25.0976 31.0095 24.9059 31.1205C24.7142 31.2314 24.4926 31.2797 24.2721 31.2586Z" fill="#FDAF9E"/>
<path id="Vector_21" d="M14.0037 20.0559C13.1085 20.0559 12.2134 20.0626 11.3182 20.0719C11.2668 20.0714 11.2161 20.0591 11.1701 20.0361C11.124 20.0131 11.0839 19.9799 11.0526 19.9391C10.6689 19.5271 10.3705 19.0432 10.1747 18.5153C10.1017 18.3241 10.1641 18.2643 10.3314 18.2059C10.6555 18.093 10.9716 17.9602 11.2903 17.834C11.7963 17.6334 11.9637 17.3904 11.9743 16.8419C11.9849 16.2934 11.9876 16.2787 12.5281 16.4434C13.0088 16.5788 13.5035 16.6586 14.0024 16.6812L14.0037 20.0559Z" fill="#FCA48D"/>
<path id="Vector_22" d="M14 20.0558V16.6837C14.6264 16.6737 15.2464 16.556 15.8328 16.3357C16.0028 16.2666 16.0466 16.3291 16.0254 16.4778C15.9005 17.361 16.3428 17.8245 17.1543 18.0224C17.2237 18.0445 17.2916 18.0711 17.3575 18.1021C17.9366 18.3292 17.9379 18.3292 17.6577 18.899C17.6165 18.984 17.57 19.065 17.5248 19.1487C17.2008 19.7862 16.7784 20.1886 15.9656 20.0784C15.3281 19.9987 14.6641 20.0598 14 20.0558Z" fill="#FDAF9E"/>
<path id="Vector_23" d="M10.1873 21.024C10.1873 23.288 10.1873 25.552 10.1873 27.8161H9.56308C9.668 27.5079 9.82871 27.2304 9.88183 26.9156C9.94683 26.5825 9.9455 26.2399 9.87791 25.9073C9.81033 25.5748 9.67781 25.2588 9.48795 24.9776C9.29809 24.6963 9.05462 24.4552 8.77147 24.2682C8.48832 24.0811 8.17106 23.9517 7.83785 23.8875C7.64527 23.8503 7.60808 23.7772 7.60941 23.6046C7.61738 22.9405 7.60941 22.2764 7.60941 21.6031C7.60941 21.2379 7.80199 21.0174 8.15128 21.0134C8.83261 21.0041 9.50996 21.0187 10.1873 21.024Z" fill="#4ACA5A"/>
<path id="Vector_24" d="M5.17387 24.9513C5.17387 23.9114 5.16059 22.8714 5.17387 21.8315C5.18184 21.3375 5.36114 20.8793 5.57231 20.4357C5.63207 20.3029 5.75161 20.1979 5.70512 20.0372L5.78879 19.9974C6.87963 19.5644 7.97046 19.1306 9.06129 18.6958C9.1702 18.6533 9.23926 18.6693 9.27512 18.7848C9.43317 19.2391 9.64971 19.6708 9.91926 20.0691H8.30692C7.26301 20.0691 6.67465 20.6548 6.67332 21.6907C6.67332 22.3468 6.67332 23.0043 6.67332 23.6604C6.67332 23.8357 6.64676 23.9406 6.45418 23.9977C5.91629 24.1584 5.52848 24.5369 5.17387 24.9513Z" fill="#5FB7FB"/>
<path id="Vector_25" d="M20.0232 9.58496C20.1 9.7508 20.1397 9.93137 20.1397 10.1141C20.1397 10.2969 20.0998 10.4774 20.023 10.6432C19.9462 10.809 19.8342 10.9561 19.6948 11.0743C19.5554 11.1924 19.3919 11.2788 19.2157 11.3275C19.0418 11.3793 18.994 11.3381 19.0006 11.1641C19.0125 10.8307 19.0112 10.5 19.0165 10.1627C19.1861 10.1331 19.3528 10.0887 19.5146 10.0299C19.7138 9.92762 19.9648 9.85855 20.0232 9.58496Z" fill="#FCA48D"/>
<path id="Vector_26" d="M8.9906 10.1627C8.9906 10.5054 8.99061 10.8467 9.00654 11.188C9.00654 11.3208 8.976 11.374 8.82857 11.3421C8.65225 11.3002 8.48726 11.2201 8.3452 11.1076C8.20313 10.9951 8.08746 10.8528 8.00631 10.6907C7.92515 10.5287 7.8805 10.3508 7.87548 10.1696C7.87046 9.98845 7.90519 9.80839 7.97725 9.64209C8.21764 10.0033 8.61076 10.0697 8.9906 10.1627Z" fill="#FCA48D"/>
<path id="Vector_27" d="M20.0215 9.58496C19.9631 9.85855 19.7174 9.92762 19.5129 10.0246C19.3511 10.0834 19.1844 10.1278 19.0148 10.1574C19.0148 9.86652 18.9989 9.57566 19.0042 9.2848C19.0042 9.18254 18.9338 9.03113 19.0892 8.98863C19.2446 8.94613 19.4106 8.83059 19.5832 8.98863C19.7559 9.14668 19.9551 9.32996 20.0215 9.58496Z" fill="#FCAF9E"/>
<path id="Vector_28" d="M8.98992 10.1625C8.61008 10.0696 8.21695 10.0032 7.97656 9.64191C8.18641 9.13988 8.45469 8.94996 8.8332 9.00574C8.96602 9.02566 9.01117 9.06684 9.00586 9.19832C8.99523 9.51973 8.99391 9.84113 8.98992 10.1625Z" fill="#FCAF9E"/>
<path id="Vector_29" d="M14.6016 26.5863V25.0231C14.7509 25.0802 14.8801 25.1801 14.9729 25.3103C15.0657 25.4404 15.1181 25.5951 15.1235 25.7549C15.1421 26.1228 14.9575 26.3831 14.6016 26.5863Z" fill="#71D276"/>
<path id="Vector_30" d="M13.6474 23.8104C13.0404 23.5036 12.9488 22.8077 13.4229 22.4106C13.4747 22.3667 13.5252 22.287 13.6062 22.3309C13.6872 22.3747 13.646 22.4411 13.646 22.4995C13.6474 22.9245 13.6474 23.3509 13.6474 23.8104Z" fill="#71D276"/>
<path id="Vector_31" d="M13.6634 21.0931C13.6515 21.0692 13.6395 21.044 13.6289 21.0201C13.7046 21.0135 13.6794 21.056 13.6634 21.0931Z" fill="#4ACA5A"/>
</g>
</svg>
