<svg width="34" height="32" viewBox="0 0 34 32" fill="none" xmlns="http://www.w3.org/2000/svg">
<g id="ControlPago">
<path id="Vector" d="M17.8978 22.6507C18.0931 23.0584 18.2963 23.4635 18.4835 23.8726C18.6708 24.2816 18.5818 24.5287 18.1847 24.7345C17.2517 25.2289 16.1789 25.3932 15.1406 25.2007C15.2894 25.5035 15.4222 25.7678 15.5484 26.0347C15.7449 26.4491 15.6559 26.7174 15.2389 26.9206C13.693 27.6763 12.1683 27.6511 10.6688 26.7878C10.6157 26.7572 10.5719 26.6842 10.4616 26.732V28.1345C10.4616 29.3126 10.4616 30.4919 10.4616 31.67C10.4616 31.8798 10.4245 31.9741 10.196 31.9529C9.9304 31.929 9.65282 31.9449 9.38188 31.9436C9.38188 28.7561 9.3779 25.5686 9.36993 22.3811C9.36671 22.1214 9.43966 21.8666 9.57977 21.6479C10.6728 19.8762 11.7752 18.1085 12.8456 16.3222C13.8205 14.6926 13.3981 12.7362 11.8761 11.606C11.7074 11.4732 11.6224 11.4825 11.4843 11.6565C10.3527 13.0882 9.18001 14.488 8.0843 15.9463C7.64602 16.528 7.17985 16.7578 6.46001 16.714C5.42805 16.6529 4.97251 16.2451 4.97251 15.2065V5.10084C4.97251 5.02115 4.97251 4.94146 4.97251 4.86178C4.97251 4.78209 4.94329 4.72897 4.83969 4.71303C4.23008 4.60943 3.78915 4.90162 3.66696 5.5099C3.458 6.52902 3.25391 7.54946 3.05469 8.57123C2.93915 9.15162 2.94047 9.15162 2.36407 9.0799C1.85938 8.93514 1.85938 8.93646 1.96829 8.42646C2.1861 7.36396 2.39594 6.30147 2.61907 5.23897C2.8329 4.21631 3.54876 3.61998 4.59133 3.64522C4.94993 3.65318 5.03626 3.55357 5.02165 3.20561C4.99243 2.48178 5.01102 1.75529 5.01368 1.02881C5.01368 0.563965 5.20891 0.364746 5.67774 0.364746H32.6493C33.1354 0.364746 33.324 0.557324 33.3253 1.04607C33.3253 1.95318 33.3081 2.86029 33.3346 3.7674C33.3452 4.10607 33.2616 4.2442 32.9189 4.17779C32.8744 4.17531 32.8298 4.17843 32.7861 4.18709C32.7304 4.17742 32.6738 4.1743 32.6174 4.17779C32.308 4.23092 32.219 4.10873 32.2323 3.79795C32.2575 3.14053 32.219 2.48178 32.2482 1.82436C32.2628 1.49631 32.1459 1.44717 31.8498 1.44717C23.3994 1.45514 14.9489 1.45735 6.49852 1.45381C6.44193 1.45779 6.38512 1.45779 6.32852 1.45381C6.15454 1.4299 6.0961 1.49498 6.09743 1.67826C6.09743 2.69693 6.07087 3.71561 6.06422 4.73295C6.04032 8.18873 6.05626 11.6538 6.05626 15.1069C6.05626 15.2092 6.05626 15.3115 6.05626 15.4124C6.05473 15.4466 6.06229 15.4806 6.07815 15.5109C6.09401 15.5412 6.11762 15.5668 6.14657 15.5851C6.32586 15.69 6.94344 15.5771 7.07626 15.4097C7.56589 14.7997 8.05287 14.1892 8.53719 13.5783C8.83868 13.2024 8.81876 12.9687 8.45883 12.634C8.27378 12.464 8.03726 12.3607 7.7868 12.3404C7.33258 12.2926 7.17719 12.12 7.17719 11.6565C7.17719 9.38803 7.17719 7.11959 7.17719 4.85115C7.17719 4.38764 7.33391 4.21764 7.78813 4.1685C8.05385 4.15262 8.30484 4.04114 8.49477 3.85463C8.6847 3.66813 8.80072 3.41919 8.82141 3.15381C8.87454 2.67967 9.0379 2.53357 9.5293 2.53357C15.7795 2.53357 22.0292 2.53357 28.2784 2.53357C28.7592 2.53357 28.9173 2.681 28.9731 3.16709C28.9864 3.3223 29.0329 3.47285 29.1094 3.60855C29.1859 3.74426 29.2907 3.86197 29.4166 3.95374C29.5424 4.04552 29.6866 4.10921 29.8392 4.14053C29.9918 4.17185 30.1493 4.17006 30.3012 4.13529C30.9095 4.00248 31.1406 4.19506 31.1419 4.82857V11.6405C31.1419 12.3245 30.936 12.4945 30.272 12.3617C30.096 12.327 29.9143 12.336 29.7427 12.3879C29.571 12.4399 29.4148 12.5331 29.2876 12.6595C29.1604 12.7859 29.0662 12.9416 29.0132 13.1129C28.9602 13.2842 28.9501 13.4659 28.9837 13.642C29.1165 14.314 28.9491 14.5186 28.2705 14.5186H15.2734C15.0078 14.5186 14.697 14.4429 14.5098 14.5624C14.3225 14.6819 14.4527 15.0299 14.377 15.261C14.2787 15.5585 14.369 15.6129 14.6625 15.6129C20.4018 15.605 26.141 15.605 31.8803 15.6129C32.2004 15.6129 32.2376 15.5107 32.2376 15.2331C32.2278 12.1032 32.2256 8.97232 32.2309 5.84061C32.2309 5.27482 32.2309 5.27482 32.7781 5.24826C33.3213 5.27482 33.3213 5.27482 33.3213 5.83795C33.3213 9.19368 33.3213 12.5503 33.3213 15.9078C33.3213 16.536 33.1659 16.6927 32.5444 16.694C32.1818 16.694 31.8179 16.714 31.4566 16.6874C31.1485 16.6635 31.0184 16.7512 30.9254 17.0712C30.272 19.4619 29.5973 21.8405 28.9199 24.2232C28.6676 25.1144 28.0792 25.4384 27.1934 25.1874L18.2166 22.664C18.1302 22.6387 18.0413 22.6281 17.9509 22.6095C17.9363 22.5976 17.9151 22.5697 17.9058 22.5737C17.8633 22.5869 17.8832 22.6201 17.8978 22.6507ZM9.59571 12.2714C10.0938 11.6538 10.5719 11.0482 11.0566 10.4492C11.301 10.1464 11.5467 10.0707 11.823 10.2433C12.9386 10.9366 13.8563 11.8079 14.2295 13.1174C14.3052 13.383 14.4221 13.4348 14.6745 13.4348C17.8832 13.426 21.092 13.426 24.3007 13.4348C25.4004 13.4348 26.5005 13.4348 27.6011 13.4348C27.7419 13.4348 27.8667 13.472 27.8959 13.2369C28.0513 12.1094 28.73 11.4373 29.8642 11.27C30.0329 11.2447 30.0621 11.189 30.0608 11.0402C30.0608 9.19146 30.0608 7.34316 30.0608 5.49529C30.0608 5.32264 30.013 5.27615 29.839 5.25357C28.9983 5.146 28.3781 4.70772 28.0553 3.92545C28.0298 3.83199 27.971 3.75104 27.8901 3.69775C27.8092 3.64446 27.7117 3.62248 27.6157 3.63592C23.9076 3.64212 20.1999 3.64212 16.4927 3.63592H10.1336C9.97423 3.63592 9.84407 3.62131 9.76969 3.83514C9.66822 4.13733 9.49797 4.41182 9.27233 4.63699C9.0467 4.86217 8.77185 5.03187 8.46946 5.13272C8.40983 5.14465 8.3569 5.17862 8.3212 5.22785C8.28551 5.27708 8.26968 5.33796 8.27688 5.39834C8.28219 7.30287 8.28219 9.20652 8.27688 11.1093C8.27688 11.2089 8.2543 11.3178 8.38844 11.359C8.881 11.5206 9.30574 11.8417 9.59571 12.2714ZM27.5984 16.7007H27.1681C22.9859 16.7007 18.8009 16.714 14.6227 16.6834C14.0569 16.6834 13.7368 16.8388 13.4938 17.3342C13.3676 17.5998 13.4127 17.641 13.6545 17.714C15.4195 18.2453 17.1833 18.7765 18.9457 19.3197C20.829 19.8935 22.7114 20.469 24.5929 21.0463C24.7257 21.0848 24.8452 21.1791 24.9661 20.9812C25.137 20.7054 25.3685 20.4722 25.643 20.2994C25.9176 20.1265 26.228 20.0186 26.5506 19.9838C26.6634 19.9679 26.7405 19.94 26.7724 19.8204C27.0433 18.7872 27.3169 17.7632 27.5984 16.7007ZM29.8961 16.7724C29.9054 16.6768 29.8058 16.7033 29.7367 16.702C29.5216 16.702 29.3038 16.7193 29.0913 16.702C28.8256 16.6728 28.6995 16.7591 28.6291 17.0394C28.3409 18.2041 28.0234 19.3609 27.7127 20.519C27.5798 21.0104 27.447 21.1008 26.941 21.0702C26.346 21.033 25.9449 21.2987 25.7457 21.8671C25.5877 22.3133 25.3645 22.4302 24.9116 22.2921L19.4889 20.6399C17.3347 19.9838 15.1791 19.3304 13.0289 18.6637C12.8111 18.5959 12.6982 18.6278 12.5946 18.8257C12.4736 19.0561 12.3369 19.278 12.1856 19.4897C12.0209 19.7195 12.0527 19.8138 12.3383 19.8882C17.3506 21.2916 22.3608 22.7007 27.3687 24.1156C27.803 24.2365 27.8043 24.2351 27.9252 23.8075L29.7739 17.2319C29.8138 17.0885 29.8496 16.9451 29.8961 16.7684V16.7724ZM11.1217 21.2163C10.9079 21.5643 10.7326 21.8551 10.5493 22.146C10.4826 22.2509 10.4501 22.3738 10.4563 22.4979C10.4563 23.3373 10.4563 24.1785 10.4563 25.0214C10.451 25.0822 10.4585 25.1434 10.4785 25.201C10.4984 25.2587 10.5302 25.3115 10.5719 25.3561C11.4113 26.2433 13.009 26.6218 14.1578 26.2087C14.3384 26.145 14.3544 26.0759 14.2707 25.9219C14.0768 25.5513 13.8988 25.1715 13.7182 24.7943C13.6687 24.6923 13.5902 24.6073 13.4924 24.5499C12.7442 24.0691 12.1495 23.3836 11.7791 22.575C11.5733 22.1274 11.3555 21.6944 11.1217 21.2163ZM12.2759 21.0968C12.5667 21.6453 12.7792 22.2323 13.1445 22.7383C13.5766 23.3263 14.179 23.7672 14.87 24.0017C15.5609 24.2361 16.3073 24.2527 17.008 24.0492C17.2577 23.9762 17.3068 23.8965 17.1766 23.6601C16.9469 23.2444 16.7477 22.8127 16.5471 22.3824C16.519 22.3101 16.4741 22.2456 16.4162 22.1941C16.3582 22.1426 16.2888 22.1056 16.2138 22.0862C15.0184 21.7569 13.8231 21.4222 12.6278 21.0808C12.5719 21.0563 12.511 21.045 12.45 21.0478C12.389 21.0506 12.3294 21.0673 12.2759 21.0968Z" fill="#010201"/>
<path id="Vector_2" d="M2.36171 9.07992C2.93811 9.15163 2.93679 9.15163 3.05233 8.57124C3.25598 7.54947 3.46051 6.52859 3.66593 5.50859C3.78811 4.90163 4.22905 4.60945 4.83866 4.71171C4.94093 4.73031 4.97147 4.76484 4.97147 4.86046C4.97147 4.95609 4.97147 5.01984 4.97147 5.09953V15.2026C4.97147 16.2412 5.42702 16.6489 6.45897 16.71C7.17882 16.7538 7.64499 16.5241 8.08327 15.9423C9.17897 14.4814 10.3517 13.0842 11.4833 11.6525C11.6161 11.4785 11.7064 11.4759 11.8751 11.602C13.3971 12.7323 13.8194 14.6886 12.8446 16.3182C11.7741 18.1045 10.6718 19.8723 9.57874 21.644C9.43863 21.8626 9.36567 22.1175 9.36889 22.3771C9.37775 25.5646 9.38173 28.7521 9.38085 31.9396H3.37507C3.37507 28.869 3.37507 25.7984 3.37507 22.7277C3.37182 22.6381 3.35936 22.5491 3.33788 22.4621C2.86064 20.2149 2.38163 17.9699 1.90085 15.7272C1.82913 15.3885 1.74147 15.0631 1.81983 14.6939C2.10007 13.4016 2.35108 12.1027 2.61671 10.8052C2.7203 10.2925 2.72296 10.2925 2.21827 10.1504C2.19436 9.78382 2.37632 9.44515 2.36171 9.07992Z" fill="#FDD3CE"/>
<path id="Vector_3" d="M32.7851 5.25085C32.2379 5.27741 32.2379 5.27741 32.2379 5.84319C32.2379 8.97314 32.2401 12.104 32.2446 15.2357C32.2446 15.5133 32.2074 15.6169 31.8873 15.6155C26.1472 15.6031 20.4079 15.6031 14.6695 15.6155C14.376 15.6155 14.2857 15.5611 14.3839 15.2636C14.4597 15.0325 14.3388 14.6792 14.5168 14.565C14.6947 14.4508 15.0201 14.5212 15.2804 14.5212H28.2788C28.9575 14.5212 29.1222 14.3166 28.992 13.6446C28.9584 13.4685 28.9685 13.2868 29.0215 13.1155C29.0745 12.9442 29.1687 12.7885 29.2959 12.6621C29.4231 12.5357 29.5794 12.4425 29.751 12.3905C29.9226 12.3386 30.1044 12.3296 30.2803 12.3643C30.9443 12.4971 31.1502 12.3271 31.1502 11.6431V4.83382C31.1502 4.2003 30.9178 4.01038 30.3095 4.14054C30.1576 4.17531 30.0001 4.17709 29.8475 4.14578C29.6949 4.11446 29.5508 4.05076 29.4249 3.95899C29.299 3.86722 29.1943 3.7495 29.1177 3.6138C29.0412 3.47809 28.9947 3.32755 28.9814 3.17233C28.9256 2.68624 28.7675 2.53882 28.2868 2.53882C22.0366 2.53882 15.7869 2.53882 9.53762 2.53882C9.04622 2.53882 8.88286 2.68491 8.82973 3.15905C8.80855 3.42139 8.6942 3.66748 8.50737 3.85285C8.32054 4.03822 8.07355 4.15063 7.81106 4.16976C7.35684 4.2189 7.20012 4.3889 7.20012 4.85241C7.20012 7.12085 7.20012 9.38929 7.20012 11.6577C7.20012 12.1212 7.35551 12.2939 7.80973 12.3417C8.06019 12.3619 8.29671 12.4652 8.48176 12.6352C8.84168 12.9699 8.86161 13.2037 8.56012 13.5795C8.07137 14.1905 7.58439 14.801 7.09918 15.411C6.96637 15.5783 6.34481 15.6912 6.1695 15.5863C6.14055 15.5681 6.11694 15.5425 6.10108 15.5122C6.08522 15.4818 6.07766 15.4479 6.07918 15.4137C6.07918 15.3127 6.07918 15.2105 6.07918 15.1082C6.07918 11.6484 6.06325 8.18866 6.08848 4.7289C6.08848 3.71022 6.127 2.69155 6.12168 1.67421C6.12168 1.49093 6.17879 1.42585 6.35278 1.44976C6.40937 1.45374 6.46618 1.45374 6.52278 1.44976C14.9741 1.44976 23.4245 1.44754 31.874 1.44312C32.1662 1.44312 32.2831 1.49226 32.2725 1.8203C32.2432 2.47772 32.2818 3.13647 32.2565 3.7939C32.2432 4.10468 32.3322 4.22687 32.6417 4.17374C32.6981 4.17025 32.7547 4.17337 32.8104 4.18304L32.7851 5.25085Z" fill="#9EDB6D"/>
<path id="Vector_4" d="M2.22027 10.1504C2.72098 10.2925 2.71832 10.2925 2.61871 10.8052C2.35309 12.1028 2.1034 13.4017 1.82184 14.6939C1.74348 15.0578 1.83113 15.3885 1.90285 15.7272C2.37921 17.97 2.8591 20.2141 3.34254 22.4595C3.36402 22.5465 3.37648 22.6355 3.37973 22.7251C3.37973 25.7957 3.37973 28.8663 3.37973 31.937C3.03043 31.937 2.56957 32.0592 2.36238 31.8852C2.1552 31.7112 2.29996 31.2211 2.29996 30.8811C2.29465 28.3196 2.29465 25.7576 2.29996 23.1953C2.29996 22.3346 2.02504 21.5258 1.85637 20.6971C1.48582 18.8802 1.07809 17.0713 0.695586 15.2517C0.606602 14.8281 0.791211 14.427 0.868242 14.0192C1.09535 12.8239 1.35566 11.6286 1.56816 10.4227C1.63059 10.0747 1.77535 10.0242 2.05957 10.1265C2.11201 10.1408 2.16595 10.1488 2.22027 10.1504Z" fill="#010201"/>
<path id="Vector_5" d="M9.59779 12.2715C9.30949 11.841 8.88618 11.5186 8.39451 11.3551C8.2617 11.3139 8.28295 11.205 8.28295 11.1054C8.28295 9.20086 8.28295 7.29721 8.28295 5.39445C8.27575 5.33407 8.29158 5.27319 8.32727 5.22396C8.36296 5.17473 8.4159 5.14076 8.47553 5.12882C8.77792 5.02797 9.05277 4.85828 9.2784 4.6331C9.50403 4.40793 9.67429 4.13343 9.77576 3.83125C9.85014 3.61742 9.98029 3.63203 10.1397 3.63203H16.5001C20.2082 3.63203 23.9159 3.63203 27.6231 3.63203C27.7191 3.61859 27.8166 3.64057 27.8975 3.69386C27.9784 3.74715 28.0372 3.8281 28.0627 3.92156C28.3881 4.71046 29.0057 5.14875 29.8464 5.24968C30.0204 5.27226 30.0695 5.31875 30.0682 5.4914C30.0629 7.34015 30.0629 9.18846 30.0682 11.0363C30.0682 11.1851 30.0403 11.2409 29.8716 11.2661C28.7374 11.4334 28.0587 12.1055 27.9033 13.233C27.8715 13.4681 27.7493 13.4309 27.6085 13.4309C26.5088 13.4309 25.4087 13.4309 24.3081 13.4309C21.0994 13.4309 17.8906 13.4309 14.6819 13.4309C14.4295 13.4309 14.3126 13.3791 14.2369 13.1135C13.8584 11.808 12.9407 10.9367 11.8224 10.2434C11.5462 10.0708 11.3005 10.1465 11.0561 10.4493C10.574 11.0483 10.0958 11.6539 9.59779 12.2715ZM19.1922 4.71711C18.4363 4.71211 17.696 4.93199 17.0653 5.34878C16.4347 5.76557 15.9422 6.36046 15.6505 7.05782C15.3588 7.75519 15.2811 8.52354 15.4271 9.26521C15.5732 10.0069 15.9364 10.6884 16.4708 11.2231C17.0051 11.7578 17.6863 12.1215 18.4279 12.2681C19.1695 12.4147 19.9379 12.3375 20.6355 12.0462C21.333 11.755 21.9283 11.263 22.3455 10.6326C22.7627 10.0023 22.9831 9.26215 22.9787 8.50625C22.972 7.5038 22.5711 6.54425 21.8625 5.83515C21.1539 5.12606 20.1946 4.72441 19.1922 4.71711ZM27.3389 5.81015H26.5247C25.6774 5.81015 25.684 5.81015 25.7 6.66015C25.7 6.85406 25.7584 6.90586 25.9483 6.9032C26.6828 6.89257 27.4186 6.9032 28.153 6.9032C29.0256 6.9032 29.0203 6.9032 28.9765 6.01867C28.9685 5.85531 28.922 5.8075 28.7626 5.81015C28.2912 5.81015 27.813 5.81015 27.3389 5.81015Z" fill="#9EDB6D"/>
<path id="Vector_6" d="M27.6002 16.7007C27.3186 17.7632 27.045 18.7912 26.7741 19.8178C26.7422 19.9374 26.6652 19.9653 26.5523 19.9812C26.2306 20.0159 25.9209 20.1234 25.6469 20.2956C25.3728 20.4677 25.1415 20.6999 24.9705 20.9746C24.8496 21.1712 24.7235 21.0782 24.5973 21.0397C22.714 20.4677 20.8316 19.8922 18.9501 19.3132C17.1877 18.7753 15.4239 18.236 13.6589 17.7075C13.4171 17.6344 13.372 17.5879 13.4982 17.3276C13.7412 16.8322 14.0613 16.6728 14.6271 16.6768C18.808 16.7074 22.9943 16.6941 27.1725 16.6941L27.6002 16.7007Z" fill="#62C321"/>
<path id="Vector_7" d="M29.8957 16.7684C29.8493 16.9451 29.8134 17.0885 29.7735 17.2306L27.9248 23.7982C27.8039 24.2259 27.8026 24.2272 27.3683 24.1063C22.3586 22.6959 17.3485 21.2867 12.3379 19.8789C12.0537 19.7992 12.0205 19.7049 12.1852 19.4805C12.3366 19.2687 12.4732 19.0468 12.5943 18.8164C12.6978 18.6185 12.8107 18.5866 13.0285 18.6544C15.1788 19.3184 17.3343 19.9745 19.4886 20.6306L24.9113 22.2788C25.3642 22.4116 25.5873 22.3001 25.7453 21.8538C25.9446 21.2907 26.3457 21.0251 26.9407 21.0569C27.4493 21.0875 27.5808 20.9972 27.7123 20.5058C28.0231 19.3476 28.3405 18.1909 28.6287 17.0261C28.6991 16.7459 28.82 16.6595 29.0909 16.6887C29.3034 16.7126 29.5212 16.6887 29.7364 16.6887C29.8054 16.7007 29.905 16.6728 29.8957 16.7684Z" fill="#62C321"/>
<path id="Vector_8" d="M11.1214 21.2163C11.3552 21.6944 11.573 22.1274 11.7855 22.5644C12.1552 23.3715 12.7484 24.0559 13.4948 24.5366C13.5925 24.594 13.6711 24.679 13.7206 24.781C13.9012 25.1582 14.0792 25.538 14.2731 25.9086C14.3567 26.0679 14.3408 26.1317 14.1602 26.1954C13.0087 26.6085 11.411 26.23 10.5742 25.3428C10.5326 25.2983 10.5007 25.2454 10.4808 25.1878C10.4609 25.1301 10.4534 25.0689 10.4587 25.0081C10.4587 24.1687 10.4587 23.3276 10.4587 22.4847C10.4525 22.3606 10.485 22.2376 10.5517 22.1327C10.7323 21.8551 10.9076 21.5643 11.1214 21.2163Z" fill="#F8B5AE"/>
<path id="Vector_9" d="M12.2773 21.0968C12.3304 21.0679 12.3892 21.0515 12.4495 21.0488C12.5098 21.046 12.5699 21.057 12.6253 21.0808C13.8206 21.4182 15.0159 21.7568 16.2113 22.0862C16.2863 22.1056 16.3557 22.1426 16.4137 22.1941C16.4716 22.2456 16.5165 22.3101 16.5446 22.3824C16.7452 22.8127 16.943 23.2443 17.1741 23.66C17.307 23.8965 17.2552 23.9761 17.0055 24.0492C16.3059 24.2509 15.5612 24.2334 14.8719 23.9991C14.1825 23.7647 13.5816 23.3247 13.1499 22.7383C12.7807 22.2323 12.5682 21.6453 12.2773 21.0968Z" fill="#F8B5AE"/>
<path id="Vector_10" d="M17.8998 22.6506C17.8852 22.62 17.8653 22.5868 17.9118 22.5696C17.9211 22.5696 17.9423 22.5935 17.957 22.6054L17.8998 22.6506Z" fill="#FEFEFE"/>
<path id="Vector_11" d="M19.191 4.71706C19.9439 4.721 20.6788 4.94783 21.303 5.36893C21.9271 5.79004 22.4126 6.38656 22.6981 7.08324C22.9836 7.77992 23.0564 8.54556 22.9073 9.28357C22.7582 10.0216 22.3939 10.6989 21.8603 11.2301C21.3267 11.7613 20.6477 12.1226 19.9091 12.2683C19.1704 12.4141 18.4051 12.3378 17.7097 12.0492C17.0143 11.7605 16.42 11.2724 16.0017 10.6463C15.5834 10.0203 15.3599 9.28436 15.3594 8.53144C15.3599 8.02922 15.4595 7.53204 15.6524 7.06837C15.8454 6.60469 16.1279 6.18364 16.4838 5.82932C16.8398 5.475 17.2621 5.19438 17.7266 5.00352C18.1912 4.81266 18.6888 4.71532 19.191 4.71706ZM16.4484 8.52878C16.4479 9.06718 16.6071 9.59363 16.9059 10.0415C17.2046 10.4894 17.6295 10.8386 18.1268 11.045C18.6241 11.2513 19.1714 11.3055 19.6995 11.2007C20.2276 11.0959 20.7128 10.8368 21.0936 10.4562C21.4744 10.0756 21.7337 9.59055 21.8388 9.06251C21.9438 8.53446 21.8899 7.98711 21.6838 7.48973C21.4777 6.99234 21.1287 6.56726 20.681 6.26828C20.2332 5.9693 19.7068 5.80985 19.1684 5.81011C18.4477 5.81151 17.7569 6.09835 17.2471 6.60786C16.7374 7.11737 16.4502 7.80806 16.4484 8.52878Z" fill="#010201"/>
<path id="Vector_12" d="M27.3381 5.81006C27.8123 5.81006 28.2877 5.81006 28.7619 5.81006C28.9212 5.81006 28.9677 5.85521 28.9757 6.01857C29.0195 6.90311 29.0248 6.90311 28.1523 6.90311C27.4178 6.90311 26.682 6.89646 25.9476 6.90311C25.7576 6.90311 25.7032 6.85397 25.6992 6.66006C25.6833 5.80873 25.6766 5.81006 26.524 5.81006H27.3381Z" fill="#010201"/>
<path id="Vector_13" d="M16.4492 8.52876C16.4503 7.99082 16.6107 7.46525 16.9103 7.01846C17.2099 6.57167 17.6352 6.22369 18.1325 6.0185C18.6298 5.8133 19.1767 5.76009 19.7042 5.86559C20.2317 5.97108 20.7161 6.23055 21.0962 6.61121C21.4763 6.99187 21.7351 7.47665 21.8398 8.00431C21.9445 8.53196 21.8905 9.07881 21.6846 9.57578C21.4787 10.0728 21.1301 10.4975 20.6828 10.7965C20.2356 11.0954 19.7098 11.2551 19.1719 11.2554C18.4493 11.2547 17.7566 10.9671 17.246 10.4558C16.7355 9.94446 16.4489 9.25133 16.4492 8.52876Z" fill="#FEFEFE"/>
</g>
</svg>
