<svg width="34" height="34" viewBox="0 0 34 34" fill="none" xmlns="http://www.w3.org/2000/svg">
<g id="Cuota">
<path id="Vector" d="M0.796875 16.0185C0.942969 15.6771 0.915078 15.3066 0.974844 14.956C1.81555 9.92238 4.4625 6.13457 8.83336 3.54339C10.4665 2.59562 12.2617 1.95971 14.1273 1.66808C14.2209 1.65303 14.3154 1.64328 14.4102 1.63886C14.569 1.62495 14.7271 1.67218 14.8522 1.77092C14.9774 1.86965 15.0601 2.01244 15.0835 2.17011C15.1078 2.32853 15.0692 2.49018 14.9759 2.62048C14.8826 2.75078 14.742 2.8394 14.5841 2.86738C14.029 2.98558 13.4672 3.07058 12.9187 3.22332C8.80148 4.3655 5.69367 6.80925 3.72937 10.5878C0.541875 16.7064 1.97359 23.9275 7.1825 28.4378C9.37603 30.3613 12.1155 31.5519 15.0184 31.8431C19.372 32.3013 23.1944 31.0595 26.4788 28.1642C26.5585 28.0951 26.6355 28.0221 26.7166 27.9557C27.0194 27.7073 27.3806 27.7193 27.621 27.9836C27.679 28.0454 27.7237 28.1184 27.7525 28.1981C27.7812 28.2778 27.7933 28.3626 27.7881 28.4472C27.7829 28.5317 27.7604 28.6144 27.7221 28.6899C27.6838 28.7655 27.6304 28.8325 27.5652 28.8867C27.0245 29.4047 26.4446 29.8802 25.8307 30.3091C23.6417 31.8664 21.0866 32.8301 18.4145 33.1061C18.3706 33.1061 18.3321 33.1168 18.3215 33.1672H14.9109C14.8856 33.0836 14.8126 33.1075 14.7541 33.0995C13.3407 32.9399 11.9579 32.5762 10.6489 32.0197C5.23901 29.638 2.01432 25.5332 0.974844 19.7053C0.91375 19.3614 0.953594 19.0001 0.796875 18.6734V16.0185Z" fill="#030303"/>
<path id="Vector_2" d="M33.2045 17.9163C33.0332 18.3466 33.0504 18.8128 32.9601 19.259C32.4307 21.9662 31.0699 24.4408 29.0674 26.3379C28.75 26.6434 28.4033 26.6115 28.074 26.2636C26.8831 25.0098 25.6935 23.7543 24.5053 22.497L19.5248 17.2376C19.2393 16.9361 19.1808 16.6267 19.3588 16.3584C19.5368 16.0901 19.7718 16.0702 20.0508 16.0702C23.3719 16.0702 26.6923 16.0702 30.0117 16.0702C30.8086 16.0702 31.5948 16.0848 32.385 16.0702C32.7662 16.0596 33.0358 16.1844 33.2018 16.5271L33.2045 17.9163ZM21.4493 17.3664C21.4307 17.4541 21.4997 17.4847 21.5396 17.5258C23.8417 19.9616 26.1464 22.3965 28.4538 24.8305C28.6251 25.0125 28.6968 24.9208 28.8111 24.7933C30.594 22.8508 31.6762 20.368 31.8857 17.7397C31.9202 17.3346 31.9136 17.3346 31.4952 17.3346H21.7826C21.6706 17.3165 21.5558 17.3275 21.4493 17.3664Z" fill="#030202"/>
<path id="Vector_3" d="M17.3135 10.8295C17.3135 12.8217 17.3135 14.8139 17.3135 16.8061C17.3108 16.8987 17.3274 16.9908 17.3624 17.0766C17.3974 17.1624 17.45 17.2399 17.5167 17.3041C20.2553 20.1879 22.9908 23.0735 25.7232 25.9609C26.1615 26.4244 26.1495 26.7312 25.6741 27.1562C22.8677 29.6796 19.5713 30.8245 15.8154 30.6226C9.94375 30.3078 4.81586 25.8559 3.65109 20.0932C2.37343 13.7926 5.55297 7.67657 11.4605 5.09868C13.0782 4.39333 14.8248 4.03153 16.5897 4.03618C17.0758 4.03618 17.3122 4.27524 17.3122 4.78391C17.314 6.80001 17.3144 8.81521 17.3135 10.8295ZM16.0465 11.058C16.0465 9.24376 16.0465 7.42954 16.0465 5.61266C16.0465 5.34704 15.9668 5.28993 15.7291 5.32579C15.2403 5.40282 14.7436 5.43735 14.2602 5.53961C11.6867 6.06712 9.3553 7.4193 7.61953 9.39118C4.45859 12.9041 3.70156 18.3069 5.7814 22.5396C5.88367 22.7455 5.95937 22.7574 6.14929 22.6445C9.35893 20.7294 12.573 18.8209 15.7915 16.919C15.8737 16.8789 15.9414 16.8144 15.9854 16.7342C16.0294 16.6541 16.0475 16.5623 16.0372 16.4714C16.0438 14.6665 16.0465 12.8616 16.0465 11.058ZM17.3135 18.9391V26.2132C17.3269 26.3606 17.3106 26.5092 17.2657 26.6502C17.2214 26.7822 17.132 26.8945 17.0133 26.9673C16.8946 27.0401 16.754 27.0689 16.6162 27.0486C16.4784 27.0399 16.3476 26.9843 16.2457 26.8911C16.1437 26.7978 16.0767 26.6725 16.0558 26.5359C16.0458 26.4309 16.0431 26.3253 16.0478 26.2198C16.0478 23.6796 16.0478 21.1384 16.0478 18.5964C16.0478 18.5061 16.0943 18.3799 16.0159 18.3308C15.915 18.2657 15.8247 18.3813 15.7397 18.4317C12.7682 20.1955 9.79633 21.9583 6.82398 23.7203C6.58226 23.8624 6.58093 23.9474 6.73367 24.1546C9.51078 27.9331 13.2269 29.6942 17.9112 29.3157C20.2407 29.1271 22.3126 28.2346 24.1534 26.8002C24.5027 26.528 24.5 26.5253 24.2052 26.2145C24.0723 26.0684 23.9395 25.9184 23.7961 25.7736C22.3033 24.1967 20.8096 22.6202 19.315 21.0441C18.6682 20.3602 18.0214 19.6828 17.3135 18.9391Z" fill="#020202"/>
<path id="Vector_4" d="M25.5927 14.7687H19.4555C18.8007 14.7687 18.6055 14.5748 18.6055 13.9227C18.6055 9.84179 18.6055 5.76046 18.6055 1.67869C18.6055 1.0319 18.818 0.822052 19.4568 0.831348C22.927 0.884498 26.2392 2.2911 28.6872 4.75128C31.1353 7.21146 32.5254 10.5306 32.5614 14.001C32.5614 14.5323 32.337 14.7687 31.7937 14.7687H25.5927ZM25.5728 13.5003C27.3658 13.5003 29.1587 13.5003 30.9504 13.5003C31.1828 13.5003 31.2864 13.4698 31.2572 13.1935C31.2134 12.7752 31.1709 12.3555 31.0925 11.9424C30.6051 9.33736 29.274 6.96504 27.3046 5.1915C25.3352 3.41796 22.837 2.34176 20.1952 2.12893C19.907 2.10502 19.8712 2.19002 19.8712 2.44236C19.8791 6.01502 19.8791 9.58856 19.8712 13.163C19.8712 13.4618 19.9695 13.503 20.2311 13.5017C22.0095 13.495 23.7918 13.5003 25.5728 13.5003Z" fill="#030403"/>
<path id="Vector_5" d="M16.3987 2.73058C16.2346 2.7264 16.0787 2.65743 15.9652 2.53873C15.8518 2.42003 15.7899 2.26125 15.7931 2.09707C15.7945 2.01306 15.8124 1.93015 15.8459 1.85308C15.8794 1.77601 15.9277 1.70631 15.9882 1.64796C16.0486 1.5896 16.12 1.54375 16.1982 1.51301C16.2764 1.48228 16.3599 1.46728 16.4439 1.46886C16.6081 1.47859 16.7626 1.55016 16.8762 1.66918C16.9898 1.7882 17.0541 1.94583 17.0561 2.11035C17.0543 2.19441 17.0357 2.27727 17.0015 2.3541C16.9674 2.43093 16.9183 2.50021 16.8571 2.55792C16.7959 2.61562 16.7239 2.6606 16.6452 2.69024C16.5665 2.71988 16.4827 2.73359 16.3987 2.73058Z" fill="#070707"/>
<path id="Vector_6" d="M21.4484 17.3666C21.5548 17.3303 21.6685 17.3216 21.7791 17.3413H31.4944C31.9127 17.3413 31.9194 17.3413 31.8848 17.7464C31.6754 20.3747 30.5931 22.8576 28.8102 24.8001C28.696 24.9329 28.6243 25.0192 28.453 24.8373C26.1509 22.3962 23.8461 19.9613 21.5387 17.5326C21.4989 17.4848 21.4298 17.4542 21.4484 17.3666Z" fill="#F0695A"/>
<path id="Vector_7" d="M16.0481 11.0579C16.0481 12.8615 16.0481 14.6664 16.0481 16.47C16.0584 16.5609 16.0404 16.6527 15.9964 16.7329C15.9524 16.813 15.8846 16.8776 15.8024 16.9176C12.5839 18.8186 9.36984 20.7271 6.1602 22.6432C5.97028 22.7561 5.89458 22.7441 5.79231 22.5382C3.71247 18.3042 4.46419 12.9014 7.63044 9.3898C9.36621 7.41793 11.6976 6.06575 14.2711 5.53824C14.7545 5.43597 15.2512 5.40543 15.74 5.32441C15.9777 5.28855 16.06 5.34832 16.0574 5.61129C16.0428 7.42949 16.0481 9.24371 16.0481 11.0579Z" fill="#FDD26B"/>
<path id="Vector_8" d="M17.3136 18.9391C18.0215 19.6829 18.6683 20.3602 19.3058 21.0389C20.8048 22.614 22.3003 24.1896 23.7922 25.7657C23.925 25.9105 24.0578 26.0605 24.2013 26.2066C24.4961 26.5174 24.4988 26.5201 24.1495 26.7923C22.31 28.2267 20.2381 29.1192 17.9073 29.3078C13.223 29.6863 9.50689 27.9252 6.72978 24.1467C6.57704 23.9395 6.57837 23.8545 6.82009 23.7124C9.79863 21.9584 12.771 20.1964 15.7371 18.4265C15.8221 18.376 15.9124 18.2605 16.0134 18.3255C16.0917 18.376 16.0452 18.5022 16.0452 18.5912C16.0452 21.1332 16.0452 23.6743 16.0452 26.2146C16.0406 26.32 16.0432 26.4256 16.0532 26.5307C16.0741 26.6673 16.1411 26.7926 16.2431 26.8858C16.345 26.979 16.4758 27.0346 16.6137 27.0433C16.7515 27.0637 16.892 27.0349 17.0108 26.9621C17.1295 26.8892 17.2188 26.777 17.2631 26.6449C17.3081 26.5039 17.3243 26.3553 17.3109 26.208V18.9391H17.3136Z" fill="#00819F"/>
<path id="Vector_9" d="M25.5754 13.5004C23.7944 13.5004 22.012 13.5004 20.231 13.5004C19.9654 13.5004 19.8698 13.4605 19.8711 13.1617C19.8826 9.58816 19.8826 6.01462 19.8711 2.44108C19.8711 2.18873 19.907 2.10373 20.1952 2.12764C22.839 2.34055 25.3392 3.41823 27.3094 5.19417C29.2795 6.9701 30.6099 9.34543 31.0951 11.9531C31.1734 12.3662 31.216 12.7858 31.2598 13.2042C31.289 13.4805 31.1854 13.5123 30.953 13.511C29.16 13.4964 27.3684 13.5004 25.5754 13.5004ZM21.8699 3.7267C21.4901 3.7267 21.2324 3.94452 21.1833 4.24733C21.1275 4.58866 21.3281 4.86889 21.7225 4.98709C25.1482 6.01064 27.3741 8.23525 28.4003 11.6609C28.4216 11.7644 28.4657 11.8618 28.5294 11.9461C28.593 12.0304 28.6746 12.0995 28.7682 12.1483C28.8767 12.2053 29.0003 12.227 29.1218 12.2103C29.2432 12.1937 29.3564 12.1395 29.4456 12.0554C29.682 11.8522 29.7112 11.5932 29.6182 11.305C28.4672 7.48707 25.988 4.98532 22.1807 3.79975C22.0559 3.76256 21.931 3.74131 21.8699 3.7267Z" fill="#48DF96"/>
<path id="Vector_10" d="M21.8678 3.72656C21.9289 3.74117 22.0538 3.76242 22.1733 3.79961C25.9841 4.98518 28.4651 7.48693 29.6161 11.3048C29.7038 11.593 29.6799 11.852 29.4435 12.0552C29.3543 12.1394 29.2411 12.1935 29.1197 12.2102C28.9982 12.2269 28.8746 12.2052 28.7661 12.1482C28.6725 12.0993 28.5909 12.0303 28.5272 11.9459C28.4636 11.8616 28.4195 11.7642 28.3982 11.6608C27.3729 8.23599 25.147 6.01138 21.7204 4.98695C21.322 4.86875 21.1254 4.58852 21.1812 4.24719C21.2303 3.94438 21.488 3.72922 21.8678 3.72656Z" fill="#010302"/>
</g>
</svg>
