<svg width="28" height="34" viewBox="0 0 28 34" fill="none" xmlns="http://www.w3.org/2000/svg">
<g id="Equipo">
<path id="Vector" d="M8.4118 14.981C8.44899 14.2997 8.40383 13.6742 8.47821 13.0499C8.79829 10.3127 11.1703 8.1226 13.9102 8.05487C15.2782 8.00867 16.6166 8.45921 17.6781 9.32322C18.7396 10.1872 19.4525 11.4063 19.6849 12.7551C19.7474 13.1503 19.7736 13.5504 19.7633 13.9504C19.7566 14.2917 19.7633 14.6331 19.7633 15.0435C20.3605 14.3064 21.1672 13.7679 22.0769 13.4989C24.8739 12.702 27.7679 14.7699 27.8489 17.6731C27.8914 19.2217 27.8662 20.773 27.8582 22.3216C27.8674 22.6674 27.7488 23.0045 27.5251 23.2683C27.3014 23.5322 26.9883 23.7044 26.6456 23.752C26.4159 23.7931 26.3654 23.8848 26.3388 24.1066C26.0533 26.4972 25.7545 28.8785 25.4596 31.2639C25.4078 31.6835 25.3507 32.1019 25.3069 32.5216C25.2006 33.5124 24.3466 34.0131 23.4475 33.5934C23.397 33.5676 23.3406 33.5555 23.284 33.5583C23.2274 33.5611 23.1725 33.5787 23.1248 33.6093C22.2907 33.9985 21.4327 33.5363 21.3172 32.6199C21.0064 30.1695 20.7089 27.7191 20.4061 25.2687C20.3543 24.8503 20.2959 24.432 20.2481 24.0123C20.2498 23.9814 20.2454 23.9505 20.235 23.9213C20.2246 23.8922 20.2085 23.8654 20.1875 23.8426C20.1666 23.8198 20.1413 23.8015 20.1131 23.7886C20.085 23.7758 20.0545 23.7688 20.0236 23.7679C19.1749 23.6046 18.7353 23.06 18.73 22.1981C18.73 21.8621 18.722 21.526 18.73 21.1914C18.73 21.0081 18.73 20.8832 18.4936 21.0001C18.4458 21.0265 18.3913 21.038 18.3369 21.0333C17.8574 20.9563 17.8521 21.2883 17.8056 21.6137C17.3682 25.2147 16.9277 28.8152 16.4841 32.4153C16.3447 33.5376 15.2251 34.0888 14.2529 33.5164C14.2037 33.4787 14.1435 33.4582 14.0816 33.4582C14.0196 33.4582 13.9594 33.4787 13.9102 33.5164C12.954 34.0821 11.8344 33.5482 11.6896 32.4392C11.4094 30.2704 11.1584 28.0976 10.8927 25.9314C10.7002 24.3735 10.5036 22.8156 10.3177 21.2564C10.2977 21.0997 10.2446 21.0466 10.0972 21.0665C10.0531 21.0727 10.0084 21.0727 9.96438 21.0665C9.79837 21.0386 9.63368 21.0081 9.46766 20.9775C9.46766 21.1714 9.45438 21.3653 9.44641 21.5592C9.43313 21.9046 9.47962 22.2525 9.41055 22.5965C9.36085 22.8854 9.22256 23.1516 9.01482 23.3584C8.80709 23.5652 8.54019 23.7023 8.2511 23.7506C8.03594 23.7865 7.94563 23.8569 7.91907 24.0814C7.68133 26.0935 7.43165 28.1016 7.18462 30.1124C7.07969 30.961 6.98274 31.811 6.86321 32.6584C6.84121 32.856 6.77171 33.0454 6.66064 33.2104C6.54958 33.3753 6.40025 33.5109 6.2254 33.6057C6.05055 33.7004 5.85538 33.7514 5.65654 33.7544C5.4577 33.7573 5.2611 33.7121 5.08352 33.6226C5.02619 33.5876 4.96066 33.5683 4.89352 33.5667C4.82637 33.5651 4.75998 33.5811 4.70102 33.6133C4.52231 33.7069 4.32343 33.7554 4.1217 33.7545C3.91997 33.7537 3.7215 33.7036 3.54357 33.6085C3.36563 33.5135 3.21363 33.3764 3.10078 33.2091C2.98794 33.0419 2.91767 32.8497 2.8961 32.6491C2.62118 30.5015 2.36485 28.3513 2.09922 26.201C2.00891 25.4706 1.91727 24.7401 1.8336 24.0083C1.83654 23.9505 1.8168 23.8939 1.7786 23.8505C1.74039 23.8071 1.68673 23.7803 1.62907 23.7759C0.699381 23.5647 0.319537 23.0866 0.320865 22.129C0.320865 20.676 0.295631 19.2231 0.332818 17.7714C0.360901 16.7484 0.732337 15.7646 1.38736 14.9783C2.04238 14.192 2.94289 13.6489 3.94399 13.4364C5.4554 13.1177 6.80211 13.5135 7.96024 14.5321C8.10633 14.6596 8.23516 14.8044 8.4118 14.981ZM17.1588 10.2715C17.0759 10.1854 16.9872 10.1051 16.8932 10.0311C15.4124 8.96862 13.8093 8.74682 12.1624 9.5251C10.4359 10.3432 9.5354 11.7975 9.4743 13.6941C9.41454 15.5349 9.45969 17.3783 9.46102 19.2217C9.46102 19.7145 9.73727 20.0332 10.1503 20.0332C10.5634 20.0332 10.8343 19.7145 10.8356 19.2178C10.8356 18.1889 10.8356 17.1592 10.8356 16.1285C10.8356 15.3596 10.8356 14.5906 10.8356 13.8203C10.8356 13.4032 11.1119 13.1363 11.4532 13.2146C11.768 13.2877 11.8769 13.5095 11.8769 13.8203C11.8769 15.6185 11.8689 17.4181 11.8769 19.2164C11.8879 19.455 11.8512 19.6934 11.7689 19.9176C11.6866 20.1418 11.5603 20.3473 11.3974 20.522C11.3556 20.5625 11.3249 20.6131 11.3081 20.6689C11.2914 20.7247 11.2892 20.7839 11.3018 20.8407C11.4346 21.8501 11.5595 22.8595 11.687 23.8702C11.7109 24.0946 11.7334 24.3204 11.7613 24.5462C11.9924 26.425 12.2244 28.3043 12.4573 30.1841C12.5449 30.8933 12.6286 31.6025 12.7229 32.3091C12.7548 32.5521 12.8982 32.7168 13.1532 32.7075C13.4082 32.6982 13.5516 32.5256 13.5649 32.2586C13.5649 32.1617 13.5649 32.0634 13.5649 31.9664V23.4864C13.5578 23.3782 13.5613 23.2697 13.5756 23.1623C13.5933 23.0425 13.6527 22.9327 13.7433 22.8524C13.8339 22.772 13.9499 22.7261 14.0709 22.7227C14.1984 22.719 14.3228 22.762 14.4207 22.8438C14.5185 22.9255 14.5831 23.0402 14.6022 23.1663C14.6144 23.2738 14.618 23.3822 14.6128 23.4903V32.0448C14.6128 32.1324 14.6128 32.2188 14.6128 32.3104C14.6092 32.4154 14.6473 32.5176 14.7186 32.5947C14.79 32.6719 14.889 32.7176 14.994 32.7221C15.2503 32.7434 15.4004 32.5893 15.4482 32.3503C15.4867 32.159 15.4987 31.9638 15.5226 31.7699C15.7519 29.9025 15.9821 28.0343 16.2132 26.1652C16.4337 24.3828 16.655 22.6 16.8773 20.8168C16.8882 20.769 16.8861 20.7191 16.8712 20.6724C16.8562 20.6256 16.829 20.5838 16.7923 20.5512C16.596 20.3434 16.4461 20.0962 16.3527 19.826C16.3341 19.6228 16.3009 19.4183 16.3009 19.2151C16.3009 17.4443 16.3009 15.6734 16.3009 13.9026C16.2963 13.814 16.2994 13.7251 16.3102 13.637C16.3218 13.5223 16.3741 13.4155 16.4577 13.3361C16.5413 13.2566 16.6505 13.2098 16.7657 13.204C16.8743 13.1894 16.9847 13.2117 17.0791 13.2673C17.1735 13.3229 17.2465 13.4087 17.2863 13.5108C17.3357 13.643 17.3543 13.7847 17.3408 13.9252L17.3527 17.361C17.3527 17.9999 17.3408 18.6387 17.3434 19.2775C17.3434 19.7198 17.6316 20.0253 18.0248 20.0266C18.4179 20.0279 18.7167 19.7224 18.7181 19.2842C18.7181 17.3464 18.7526 15.406 18.7048 13.4683C18.697 12.8547 18.5546 12.2503 18.2874 11.6979C18.0203 11.1455 17.635 10.6585 17.1588 10.2715ZM4.37032 28.8785C4.37032 27.7523 4.37032 26.6252 4.37032 25.4971C4.37032 25.0987 4.55493 24.8729 4.86704 24.8623C5.17915 24.8517 5.39829 25.104 5.40758 25.4998C5.40758 25.5755 5.40758 25.6512 5.40758 25.7269C5.40758 27.8838 5.40758 30.0406 5.40758 32.1975C5.40758 32.2945 5.40758 32.3928 5.40758 32.4897C5.4047 32.5444 5.42335 32.5981 5.45953 32.6393C5.49571 32.6804 5.54655 32.7058 5.6012 32.71C5.65584 32.7141 5.70994 32.6968 5.75194 32.6616C5.79394 32.6264 5.8205 32.5761 5.82594 32.5216C5.84454 32.4379 5.85915 32.3516 5.86977 32.2666C5.9955 31.2572 6.12034 30.2474 6.2443 29.2371C6.4754 27.3459 6.70251 25.4546 6.93758 23.5634C6.94915 23.5116 6.94807 23.4577 6.93443 23.4064C6.9208 23.3551 6.895 23.3078 6.85922 23.2685C6.57899 22.9631 6.50063 22.5925 6.50196 22.1874C6.5086 20.8221 6.50196 19.4568 6.50196 18.0915C6.49858 17.9938 6.50392 17.896 6.5179 17.7993C6.53941 17.6874 6.5981 17.5859 6.68445 17.5115C6.77081 17.4371 6.87977 17.394 6.99367 17.3892C7.10758 17.3845 7.21976 17.4183 7.31203 17.4853C7.40429 17.5522 7.47125 17.6484 7.50204 17.7581C7.53065 17.8961 7.54269 18.037 7.5379 18.1778C7.5379 19.5219 7.5379 20.8646 7.5379 22.2087C7.5379 22.5567 7.69727 22.7519 7.96024 22.7532C8.22321 22.7546 8.40118 22.5474 8.40251 22.222C8.40251 20.7478 8.42508 19.2735 8.40251 17.8006C8.36532 15.4964 6.10883 13.8641 3.90282 14.5135C2.39938 14.9531 1.38735 16.3424 1.36876 18.0251C1.35415 19.413 1.36876 20.7996 1.36876 22.1874C1.36652 22.2629 1.37096 22.3385 1.38204 22.4132C1.39488 22.4944 1.43254 22.5697 1.48984 22.6287C1.54715 22.6876 1.6213 22.7274 1.70211 22.7426C1.78194 22.7623 1.86587 22.7572 1.94273 22.728C2.01959 22.6988 2.08575 22.6469 2.13243 22.5792C2.21575 22.4508 2.25016 22.2967 2.22938 22.1449C2.22938 20.769 2.22938 19.3926 2.22938 18.0158C2.22938 17.628 2.42196 17.3942 2.73407 17.3849C3.04618 17.3756 3.26532 17.632 3.26532 18.0264C3.26532 19.4431 3.26532 20.8629 3.26532 22.2857C3.27982 22.6149 3.17141 22.9378 2.96118 23.1915C2.89966 23.2653 2.85652 23.3527 2.83528 23.4464C2.81404 23.5402 2.81531 23.6376 2.83899 23.7307C3.13915 26.1461 3.43797 28.5633 3.73547 30.9823C3.79657 31.4764 3.86829 31.9704 3.92407 32.4645C3.94133 32.6106 4.00376 32.7221 4.16579 32.7115C4.32782 32.7009 4.35837 32.5867 4.36766 32.4578C4.36766 32.3821 4.36766 32.3064 4.36766 32.2294L4.37032 28.8785ZM23.8127 28.8985V32.3449C23.8127 32.5149 23.8207 32.7009 24.0385 32.7062C24.2563 32.7115 24.2523 32.5349 24.2723 32.3768C24.6335 29.4549 24.997 26.5331 25.3627 23.6112C25.374 23.5427 25.3696 23.4726 25.3498 23.4061C25.3301 23.3396 25.2954 23.2785 25.2484 23.2274C25.02 22.9474 24.9015 22.5937 24.9151 22.2326C24.9151 21.2352 24.9151 20.2404 24.9151 19.2417C24.9151 18.8193 24.9151 18.397 24.9151 17.9733C24.9151 17.6253 25.1395 17.3823 25.4317 17.3796C25.7239 17.377 25.9431 17.6094 25.9537 17.9614C25.9537 18.0583 25.9537 18.1566 25.9537 18.2535C25.9537 19.5817 25.9537 20.8978 25.9537 22.2193C25.9537 22.5487 26.1396 22.7705 26.3973 22.7506C26.6788 22.724 26.8143 22.5527 26.813 22.2685C26.813 20.7079 26.8462 19.146 26.7917 17.5868C26.7253 15.6331 24.7345 14.0779 22.8074 14.4073C21.9579 14.5411 21.1846 14.975 20.6278 15.6302C20.0709 16.2855 19.7675 17.1187 19.7726 17.9786C19.754 19.3333 19.7726 20.688 19.7726 22.0427C19.7726 22.5221 19.9054 22.7466 20.2002 22.7546C20.4951 22.7625 20.6332 22.546 20.6332 22.0586C20.6332 20.7146 20.6332 19.3705 20.6332 18.0264C20.6332 17.628 20.855 17.3743 21.1645 17.3823C21.4739 17.3903 21.6652 17.6214 21.6665 18.0145C21.6665 19.4342 21.6665 20.854 21.6665 22.2738C21.6665 22.562 21.6452 22.8635 21.4487 23.0706C21.2003 23.3363 21.2362 23.6112 21.2734 23.9087C21.6169 26.7013 21.9622 29.4939 22.3093 32.2865C22.3306 32.4565 22.3 32.7102 22.5616 32.7035C22.8233 32.6969 22.7529 32.4379 22.7675 32.2746C22.7755 32.1776 22.7675 32.0793 22.7675 31.981V25.606C22.7675 25.1239 22.9601 24.8543 23.2988 24.8583C23.6374 24.8623 23.8101 25.1067 23.8101 25.6127L23.8127 28.8985Z" fill="black"/>
<path id="Vector_2" d="M10.6914 4.00406C10.6899 3.33133 10.8877 2.67322 11.2599 2.11283C11.6321 1.55244 12.162 1.11491 12.7827 0.855471C13.4034 0.596036 14.087 0.526335 14.7473 0.655171C15.4076 0.784007 16.0149 1.1056 16.4925 1.57935C16.9701 2.05309 17.2967 2.65774 17.4309 3.31694C17.5652 3.97615 17.501 4.66035 17.2467 5.28314C16.9924 5.90594 16.5592 6.43941 16.0018 6.81618C15.4445 7.19295 14.788 7.39614 14.1153 7.40007C13.6673 7.4027 13.2232 7.31685 12.8084 7.14746C12.3936 6.97807 12.0164 6.72846 11.6983 6.41295C11.3802 6.09745 11.1275 5.72225 10.9547 5.30888C10.7819 4.8955 10.6925 4.45209 10.6914 4.00406ZM16.4568 3.97883C16.4513 3.5128 16.3081 3.05882 16.0452 2.67398C15.7823 2.28915 15.4115 1.99065 14.9794 1.81605C14.5473 1.64145 14.0732 1.59855 13.6168 1.69273C13.1603 1.78692 12.7419 2.01398 12.4142 2.34537C12.0865 2.67676 11.8641 3.09766 11.7751 3.55512C11.686 4.01258 11.7342 4.48617 11.9136 4.9163C12.093 5.34643 12.3956 5.7139 12.7834 5.97247C13.1711 6.23104 13.6267 6.36916 14.0927 6.36945C14.4057 6.37036 14.7157 6.30895 15.0047 6.18881C15.2936 6.06866 15.5558 5.89217 15.7759 5.66965C15.9959 5.44712 16.1694 5.18301 16.2864 4.89271C16.4033 4.60242 16.4612 4.29175 16.4568 3.97883Z" fill="black"/>
<path id="Vector_3" d="M4.87214 7.4744C5.42381 7.47152 5.96395 7.63231 6.42423 7.93643C6.88451 8.24055 7.24426 8.67434 7.45798 9.18294C7.67171 9.69153 7.7298 10.2521 7.62491 10.7937C7.52002 11.3353 7.25686 11.8337 6.86872 12.2257C6.48058 12.6177 5.9849 12.8859 5.44436 12.9962C4.90382 13.1065 4.34271 13.054 3.832 12.8454C3.32129 12.6367 2.88392 12.2814 2.57521 11.8241C2.2665 11.3669 2.10032 10.8284 2.09769 10.2767C2.09416 9.53727 2.38444 8.82666 2.90472 8.30115C3.42499 7.77565 4.13266 7.47827 4.87214 7.4744ZM3.13894 10.2382C3.13446 10.5852 3.23326 10.9256 3.42277 11.2162C3.61229 11.5068 3.88395 11.7345 4.20322 11.8704C4.5225 12.0062 4.87495 12.044 5.21576 11.979C5.55657 11.9139 5.87034 11.749 6.11718 11.5052C6.36401 11.2613 6.53275 10.9496 6.60194 10.6096C6.67113 10.2696 6.63765 9.91675 6.50574 9.59584C6.37384 9.27493 6.14948 9.0005 5.86119 8.80745C5.5729 8.61439 5.23371 8.51143 4.88675 8.51167C4.65862 8.51027 4.43245 8.55382 4.22114 8.63983C4.00984 8.72584 3.81755 8.85263 3.65525 9.01296C3.49295 9.17328 3.36382 9.36401 3.27523 9.57424C3.18664 9.78448 3.14033 10.0101 3.13894 10.2382Z" fill="black"/>
<path id="Vector_4" d="M23.3008 7.4745C23.8524 7.4745 24.3917 7.63808 24.8503 7.94454C25.309 8.25101 25.6665 8.6866 25.8776 9.19624C26.0887 9.70587 26.1439 10.2667 26.0363 10.8077C25.9287 11.3487 25.663 11.8457 25.273 12.2357C24.8829 12.6258 24.3859 12.8914 23.8449 12.999C23.3039 13.1067 22.7431 13.0514 22.2335 12.8403C21.7238 12.6292 21.2882 12.2717 20.9818 11.8131C20.6753 11.3544 20.5117 10.8152 20.5117 10.2636C20.5105 9.89696 20.5818 9.53373 20.7215 9.19479C20.8613 8.85585 21.0667 8.5479 21.3259 8.28866C21.5851 8.02943 21.8931 7.82403 22.232 7.68431C22.571 7.54458 22.9342 7.47327 23.3008 7.4745ZM25.046 10.2463C25.0435 9.7824 24.8568 9.33848 24.5271 9.01219C24.1973 8.68591 23.7514 8.50399 23.2875 8.50646C22.8236 8.50892 22.3797 8.69557 22.0534 9.02534C21.7271 9.35511 21.5452 9.80099 21.5477 10.2649C21.5501 10.7288 21.7368 11.1727 22.0666 11.499C22.2298 11.6606 22.4234 11.7884 22.636 11.8752C22.8487 11.9619 23.0764 12.006 23.3061 12.0047C23.5358 12.0035 23.763 11.9571 23.9748 11.868C24.1865 11.779 24.3787 11.6491 24.5402 11.4859C24.7018 11.3226 24.8296 11.1291 24.9164 10.9164C25.0031 10.7037 25.0472 10.476 25.046 10.2463Z" fill="black"/>
<path id="Vector_5" d="M17.3515 17.3663L17.3396 13.9304C17.3531 13.79 17.3345 13.6482 17.2851 13.516C17.2453 13.4139 17.1723 13.3282 17.0779 13.2725C16.9835 13.2169 16.8731 13.1946 16.7645 13.2092C16.6493 13.215 16.54 13.2619 16.4565 13.3413C16.3729 13.4207 16.3205 13.5275 16.3089 13.6422C16.2981 13.7303 16.295 13.8192 16.2996 13.9078C16.2996 15.6787 16.2996 17.4517 16.2996 19.227C16.2996 19.4302 16.3328 19.6347 16.3514 19.8379C16.2186 19.8871 16.1721 20.0172 16.1018 20.1235C15.2649 21.412 14.1544 22.5003 12.8492 23.311C12.4853 23.5368 12.1307 23.7944 11.6924 23.8741C11.5596 22.8634 11.4387 21.854 11.3072 20.8446C11.2946 20.7878 11.2968 20.7286 11.3136 20.6728C11.3303 20.617 11.361 20.5664 11.4028 20.5259C11.5657 20.3512 11.692 20.1457 11.7743 19.9215C11.8567 19.6973 11.8934 19.4589 11.8823 19.2203C11.873 17.4221 11.8757 15.6225 11.8823 13.8242C11.8823 13.5134 11.7734 13.2929 11.4586 13.2185C11.1173 13.1402 10.8437 13.4071 10.8411 13.8242C10.8411 14.5945 10.8411 15.3635 10.8411 16.1325C10.8411 17.1631 10.8411 18.1928 10.8411 19.2217C10.8411 19.7184 10.5754 20.0358 10.1557 20.0371C9.73605 20.0385 9.46644 19.7184 9.46644 19.2257C9.46644 17.3822 9.41996 15.5388 9.47972 13.698C9.54082 11.8014 10.4373 10.3471 12.1678 9.52902C13.8147 8.75073 15.4178 8.97519 16.8986 10.035C16.9926 10.109 17.0813 10.1893 17.1643 10.2754C17.1566 10.4375 17.1904 10.5989 17.2625 10.7443C17.6689 11.9244 17.8741 13.1644 17.8695 14.4125C17.8661 14.9279 17.8181 15.4421 17.7261 15.9492C17.6397 16.426 17.6012 16.9253 17.3515 17.3663Z" fill="#FDCF65"/>
<path id="Vector_6" d="M4.37141 28.8785V32.2267C4.37141 32.3037 4.37141 32.3794 4.37141 32.4551C4.36211 32.5879 4.31164 32.6982 4.16953 32.7088C4.02742 32.7194 3.94508 32.6078 3.92781 32.4618C3.86539 31.9677 3.795 31.4736 3.73922 30.9796C3.44083 28.5624 3.14201 26.1452 2.84273 23.728C2.81906 23.6349 2.81779 23.5374 2.83902 23.4437C2.86026 23.35 2.90341 23.2626 2.96492 23.1888C3.17516 22.935 3.28356 22.6122 3.26906 22.283C3.26906 20.8663 3.26906 19.4466 3.26906 18.0237C3.26906 17.6253 3.04992 17.3729 2.73781 17.3822C2.4257 17.3915 2.23445 17.6253 2.23312 18.0131C2.23312 19.3908 2.23312 20.7672 2.23312 22.1422C2.2539 22.2939 2.21949 22.4481 2.13617 22.5765C2.0895 22.6442 2.02333 22.6961 1.94647 22.7253C1.86961 22.7544 1.78569 22.7595 1.70586 22.7399C1.62504 22.7247 1.55089 22.6849 1.49359 22.626C1.43628 22.567 1.39862 22.4917 1.38578 22.4105C1.37471 22.3358 1.37026 22.2602 1.3725 22.1847C1.3725 20.7968 1.36055 19.4103 1.3725 18.0224C1.39109 16.3396 2.40312 14.9504 3.90656 14.5108C6.11258 13.864 8.36906 15.4963 8.41289 17.7979C8.44078 19.2708 8.42086 20.745 8.41289 22.2193C8.41289 22.5473 8.23227 22.7505 7.97062 22.7505C7.70898 22.7505 7.54961 22.5539 7.54828 22.206C7.54828 20.8619 7.54828 19.5192 7.54828 18.1751C7.55307 18.0343 7.54103 17.8934 7.51242 17.7554C7.48163 17.6457 7.41468 17.5495 7.32241 17.4825C7.23014 17.4156 7.11796 17.3817 7.00406 17.3865C6.89015 17.3913 6.78119 17.4344 6.69484 17.5088C6.60848 17.5832 6.54979 17.6846 6.52828 17.7966C6.5143 17.8933 6.50897 17.9911 6.51234 18.0888C6.51234 19.4541 6.51234 20.8194 6.51234 22.1847C6.51234 22.5898 6.58937 22.9603 6.86961 23.2658C6.90538 23.3051 6.93118 23.3523 6.94482 23.4037C6.95846 23.455 6.95954 23.5088 6.94797 23.5607C6.71289 25.4519 6.48578 27.3432 6.25469 29.2344C6.13161 30.2438 6.00677 31.2536 5.88016 32.2639C5.86953 32.3489 5.85492 32.4352 5.83633 32.5189C5.83088 32.5734 5.80432 32.6236 5.76232 32.6588C5.72033 32.694 5.66622 32.7114 5.61158 32.7073C5.55694 32.7031 5.50609 32.6777 5.46991 32.6366C5.43373 32.5954 5.41509 32.5417 5.41797 32.487C5.41797 32.39 5.41797 32.2918 5.41797 32.1948C5.41797 30.0379 5.41797 27.8811 5.41797 25.7242C5.41797 25.6485 5.41797 25.5728 5.41797 25.4971C5.40734 25.0986 5.19086 24.8476 4.87742 24.8596C4.56398 24.8715 4.3807 25.1 4.3807 25.4944C4.37273 26.6242 4.36964 27.7522 4.37141 28.8785Z" fill="#6FECEC"/>
<path id="Vector_7" d="M23.8135 28.8985V25.6153C23.8135 25.1093 23.6475 24.8649 23.3022 24.861C22.9569 24.857 22.7709 25.1266 22.7709 25.6087V31.9837C22.7709 32.082 22.7709 32.1803 22.7709 32.2772C22.7563 32.4459 22.844 32.6996 22.5651 32.7062C22.2862 32.7128 22.334 32.4592 22.3127 32.2892C21.9648 29.4974 21.6195 26.7048 21.2768 23.9113C21.2396 23.6138 21.2038 23.3336 21.4521 23.0733C21.6487 22.8661 21.6713 22.5646 21.6699 22.2764C21.6699 20.8567 21.6699 19.4369 21.6699 18.0171C21.6699 17.6187 21.4813 17.3942 21.1679 17.3849C20.8545 17.3756 20.6366 17.6306 20.6366 18.0291C20.6366 19.3731 20.6366 20.7172 20.6366 22.0613C20.6366 22.5487 20.5038 22.7665 20.2037 22.7572C19.9035 22.7479 19.776 22.5248 19.776 22.0453C19.776 20.6906 19.7614 19.336 19.776 17.9813C19.771 17.1214 20.0744 16.2882 20.6312 15.6329C21.188 14.9776 21.9613 14.5437 22.8108 14.4099C24.7419 14.0806 26.7327 15.6358 26.7952 17.5895C26.8496 19.1487 26.8124 20.7106 26.8164 22.2711C26.8164 22.5553 26.6836 22.7267 26.4007 22.7532C26.1431 22.7771 25.9571 22.5553 25.9571 22.222C25.9571 20.9005 25.9571 19.579 25.9571 18.2562C25.9571 18.1592 25.9571 18.061 25.9571 17.964C25.9465 17.6121 25.7366 17.3783 25.4352 17.3823C25.1337 17.3863 24.9252 17.628 24.9185 17.976C24.9119 18.3996 24.9185 18.822 24.9185 19.2443C24.9185 20.2417 24.9185 21.2365 24.9185 22.2353C24.9049 22.5964 25.0234 22.95 25.2519 23.23C25.2988 23.2811 25.3335 23.3422 25.3533 23.4088C25.3731 23.4753 25.3775 23.5454 25.3661 23.6138C25.0013 26.5357 24.6378 29.4576 24.2757 32.3795C24.2558 32.5375 24.2425 32.7142 24.042 32.7089C23.8414 32.7035 23.8149 32.5176 23.8162 32.3476L23.8135 28.8985Z" fill="#F47B8A"/>
<path id="Vector_8" d="M11.6953 23.8702C12.1336 23.7905 12.4922 23.5328 12.8521 23.307C14.1573 22.4964 15.2678 21.4081 16.1047 20.1195C16.1751 20.0133 16.2189 19.8831 16.3544 19.834C16.4497 20.1 16.6 20.343 16.7953 20.5472C16.832 20.5798 16.8592 20.6216 16.8742 20.6684C16.8892 20.7151 16.8913 20.765 16.8803 20.8128C16.6572 22.5952 16.4358 24.3779 16.2162 26.1612C15.9852 28.0303 15.7549 29.8985 15.5256 31.7659C15.5017 31.9598 15.4898 32.155 15.4512 32.3463C15.4034 32.5866 15.2534 32.7447 14.997 32.7181C14.892 32.7136 14.7931 32.6678 14.7217 32.5907C14.6503 32.5136 14.6123 32.4114 14.6159 32.3064C14.6092 32.2201 14.6159 32.1338 14.6159 32.0408V23.4903C14.621 23.3822 14.6175 23.2738 14.6052 23.1662C14.5861 23.0402 14.5216 22.9255 14.4237 22.8437C14.3258 22.762 14.2014 22.7189 14.074 22.7227C13.9529 22.726 13.8369 22.7719 13.7463 22.8523C13.6557 22.9327 13.5963 23.0425 13.5786 23.1623C13.5644 23.2697 13.5608 23.3782 13.568 23.4863V31.9691C13.568 32.066 13.568 32.1643 13.568 32.2613C13.56 32.5269 13.4272 32.7022 13.1562 32.7102C12.8853 32.7181 12.7578 32.5534 12.7259 32.3117C12.6343 31.6038 12.5506 30.8946 12.4603 30.1867C12.2283 28.307 11.9964 26.4277 11.7644 24.5488C11.7418 24.3204 11.7192 24.0946 11.6953 23.8702Z" fill="#E4BA5C"/>
<path id="Vector_9" d="M17.3512 17.3663C17.6009 16.9254 17.6394 16.426 17.7191 15.9452C17.8112 15.4381 17.8592 14.924 17.8625 14.4086C17.8672 13.1605 17.662 11.9204 17.2556 10.7403C17.1835 10.5949 17.1497 10.4336 17.1573 10.2715C17.6342 10.6591 18.0199 11.1469 18.287 11.7003C18.5542 12.2537 18.6963 12.8591 18.7033 13.4736C18.7511 15.4113 18.7192 17.3517 18.7165 19.2895C18.7165 19.7277 18.4177 20.0345 18.0233 20.0319C17.6288 20.0292 17.3446 19.7251 17.3419 19.2828C17.3393 18.644 17.3472 18.0052 17.3512 17.3663Z" fill="#E4BA5C"/>
<path id="Vector_10" d="M16.4559 3.9788C16.4582 4.44541 16.3223 4.90226 16.0654 5.29175C15.8084 5.68123 15.4419 5.98591 15.012 6.16736C14.5821 6.34881 14.1081 6.39891 13.6498 6.31133C13.1914 6.22376 12.7693 6.00243 12.4366 5.67527C12.1039 5.3481 11.8755 4.92975 11.7802 4.47296C11.685 4.01617 11.7271 3.5414 11.9013 3.10852C12.0755 2.67564 12.374 2.30403 12.7591 2.04055C13.1442 1.77707 13.5987 1.63353 14.0653 1.62801C14.3766 1.62539 14.6854 1.68411 14.974 1.80083C15.2627 1.91754 15.5255 2.08997 15.7475 2.30827C15.9695 2.52656 16.1463 2.78644 16.2678 3.07307C16.3894 3.3597 16.4533 3.66747 16.4559 3.9788Z" fill="#FDCF65"/>
<path id="Vector_11" d="M3.14071 10.2383C3.14069 10.0098 3.18605 9.78349 3.27414 9.57262C3.36223 9.36174 3.49132 9.17046 3.6539 9.00985C3.81648 8.84924 4.00933 8.72251 4.22127 8.637C4.4332 8.5515 4.66001 8.50891 4.88852 8.51173C5.23398 8.51253 5.57141 8.61593 5.85802 8.8088C6.14463 9.00166 6.36749 9.27531 6.49835 9.59503C6.6292 9.91475 6.66214 10.2661 6.59299 10.6046C6.52385 10.9431 6.35573 11.2534 6.10996 11.4961C5.8642 11.7389 5.55186 11.9032 5.21257 11.9682C4.87328 12.0332 4.52233 11.996 4.20424 11.8612C3.88615 11.7265 3.61524 11.5003 3.4259 11.2114C3.23655 10.9224 3.13729 10.5837 3.14071 10.2383Z" fill="#6FECEC"/>
<path id="Vector_12" d="M25.045 10.2489C25.0495 10.5963 24.9505 10.9371 24.7605 11.2279C24.5706 11.5187 24.2984 11.7464 23.9786 11.882C23.6587 12.0175 23.3058 12.0548 22.9647 11.989C22.6237 11.9232 22.3099 11.7573 22.0635 11.5126C21.817 11.2678 21.649 10.9552 21.5809 10.6146C21.5127 10.274 21.5475 9.92081 21.6809 9.60007C21.8142 9.27933 22.04 9.00554 22.3295 8.81361C22.619 8.62168 22.9591 8.5203 23.3065 8.52238C23.5342 8.5208 23.76 8.5643 23.9709 8.65036C24.1818 8.73642 24.3735 8.86335 24.5351 9.02383C24.6967 9.18432 24.8249 9.37518 24.9125 9.58544C25 9.7957 25.045 10.0212 25.045 10.2489Z" fill="#F47B8A"/>
</g>
</svg>
