<svg xmlns="http://www.w3.org/2000/svg" viewBox="0 0 256 256"><defs><style>.cls-1{fill:#fdfdfd;}.cls-2{fill:#2aa768;}.cls-3{fill:#6f3d36;}.cls-4{fill:#dae2e8;}.cls-5{fill:#272727;}.cls-6{fill:#fcfcfc;}</style></defs><g id="ValidadorRecaudo"><path d="M88.1,6.29h6.66c.07.38.36.42.68.48,7.65,1.54,12.72,6.15,15.24,13.39.69,2,1.55,2.53,3.45,2.36,3-.27,5.76.32,7.71,2.76a3.56,3.56,0,0,0,3.23,1.36q17.1-.06,34.2,0A22.51,22.51,0,0,1,164,27c7.83,1.76,12.68,8.1,12.7,16.62q.06,24.95,0,49.87c0,1.71.39,2.25,2.16,2.39a75.57,75.57,0,0,1,40,15.08c2.67,2,3,3.35,1.7,6.52-3,2-3.83,2-7-.31-15.64-11.34-33-15.6-52.11-12.51-37.64,6.1-63.29,42-56.78,79.38a68.86,68.86,0,0,0,78.43,56.72c35.8-5.34,61.53-38.22,58.2-74.07a68.84,68.84,0,0,0-16.53-39.15c-2.14-2.52-2.27-3.68-.63-6.62,3.15-1.62,4.42-1.4,6.77,1.32a75.57,75.57,0,0,1,17,34c.67,3.11,1.22,6.25,1.83,9.38v14.74c-1,2.49-1,5.18-1.52,7.77-10.67,51.83-69.24,77.8-114.71,50.82a9.53,9.53,0,0,0-5.11-1.4q-52.3.06-104.59,0c-10.8,0-17.5-6.71-17.51-17.46,0-58.63.09-117.26-.08-175.89,0-9.64,7-18,17.73-17.63,11.32.34,22.66.08,34,.06.83,0,1.88.4,2.46-.43,2.41-3.47,5.93-3.94,9.7-3.65,1.36.1,1.64-.58,2-1.71A20,20,0,0,1,84,7.77C85.34,7.21,86.73,6.78,88.1,6.29Zm19.06,206.89c-.5-.89-.79-1.43-1.1-2-8.79-15.19-12.46-31.61-9.7-48.88,5.09-31.8,23.37-52.84,53.81-63.3,1.51-.52,2.25-1,2.23-2.82q-.14-21.52,0-43c0-1.94-.58-2.3-2.37-2.28-8.32.09-16.64.07-25,0a3.86,3.86,0,0,0-3.43,1.5A7,7,0,0,1,116,54.93H67a7.13,7.13,0,0,1-5.82-2.74,3.08,3.08,0,0,0-2.79-1.25c-8.48,0-17,.07-25.44,0-1.82,0-2.37.39-2.37,2.31q.09,78.79,0,157.6c0,2.08.64,2.41,2.52,2.4,15.06-.08,30.12,0,45.17,0Zm13.35,15.55c-2.08-1.93-4.05-3.54-5.75-5.41a6.07,6.07,0,0,0-5-2.14q-39.45.1-78.92,0c-5,0-8.38-3.35-8.38-8.34q0-80.82,0-161.66a8,8,0,0,1,8.4-8.33c7.53,0,15.06,0,22.59,0,5.66,0,5.58,0,5.64-5.6,0-2-.65-2.54-2.59-2.52-10.93.08-21.87,0-32.8,0-6.31,0-9.34,3-9.34,9.29V220c0,6.28,3,9.3,9.33,9.3h93.91A4.19,4.19,0,0,0,120.51,228.73ZM91.39,46.82H114c.93,0,1.92.24,1.89-1.32-.07-4.52,0-9,0-13.55,0-1-.39-1.4-1.4-1.37-1.82.06-3.65,0-5.47,0-3.82,0-4.89-1-5.28-4.78-.83-7.92-7.91-13-15.39-11a12.06,12.06,0,0,0-8.87,10.84c-.35,3.76-1.55,4.89-5.24,4.91-1.75,0-3.5.11-5.23,0-1.54-.13-1.84.48-1.82,1.89.09,4.2.11,8.4,0,12.59,0,1.56.53,1.81,1.91,1.8C76.49,46.79,83.94,46.82,91.39,46.82ZM168.48,68q0-12.24,0-24.47c0-5.73-2.93-8.67-8.62-8.68H129c-5.19,0-5.07,0-5.22,5.1-.07,2.49.85,3.06,3.17,3,8.24-.12,16.48,0,24.72,0,5.63,0,8.75,3.15,8.76,8.82q0,20.79,0,41.58c0,.63,0,1.27,0,1.9,0,1,.37,1.46,1.44,1.31,1.41-.2,2.82-.33,4.23-.46,1.79-.17,2.48-1,2.46-2.9C168.42,84.74,168.49,76.35,168.48,68Z"/><path class="cls-1" d="M107.16,213.18H78.27c-15,0-30.11,0-45.17,0-1.88,0-2.52-.32-2.52-2.4q.09-78.8,0-157.6c0-1.92.55-2.33,2.37-2.31,8.48.09,17,.06,25.44,0a3.08,3.08,0,0,1,2.79,1.25A7.13,7.13,0,0,0,67,54.92h49a7,7,0,0,0,5.67-2.51,3.86,3.86,0,0,1,3.43-1.5c8.32.06,16.64.08,25,0,1.79,0,2.38.34,2.37,2.28q-.14,21.51,0,43c0,1.83-.72,2.3-2.23,2.82-30.44,10.46-48.72,31.5-53.81,63.3-2.76,17.27.91,33.69,9.7,48.88C106.37,211.75,106.66,212.29,107.16,213.18ZM75.23,91.46q13.89,0,27.79,0c2.87,0,4.47-1.31,4.65-3.65.22-2.76-1.59-4.44-4.87-4.44q-27.43,0-54.88,0c-3.22,0-5,1.49-5,4.06s1.73,4,5,4Q61.56,91.48,75.23,91.46ZM69.34,128c-7.28,0-14.56,0-21.84,0-2.86,0-4.57,1.53-4.61,4s1.67,4.11,4.47,4.11q21.84,0,43.68,0a4.35,4.35,0,0,0,2.29-.45,3.82,3.82,0,0,0,2.14-4.34A4,4,0,0,0,91.18,128Zm-6.2,52.76c5.15,0,10.3,0,15.45,0,3,0,4.78-1.57,4.78-4.08s-1.75-4-4.81-4H47.66c-3.06,0-4.78,1.49-4.77,4s1.77,4,4.8,4.06C52.84,180.79,58,180.77,63.14,180.77ZM128,95.59a4.86,4.86,0,0,0,3.54-2c3.82-5.13,7.69-10.22,11.5-15.36,1.77-2.39,1.51-4.81-.52-6.24s-4.27-.82-6,1.39q-4,5.28-8,10.62c-.67.91-1.05,1.22-2.15.36a3.74,3.74,0,0,0-5.49.42,3.94,3.94,0,0,0,.19,5.57c1.28,1.4,2.67,2.69,4,4A4.76,4.76,0,0,0,128,95.59Z"/><path class="cls-2" d="M220.56,117.48l3.59,3.44c-1.63,2.94-1.5,4.1.64,6.62a68.84,68.84,0,0,1,16.53,39.15c3.33,35.85-22.4,68.73-58.2,74.07A68.86,68.86,0,0,1,104.69,184c-6.51-37.34,19.14-73.28,56.78-79.38,19.07-3.09,36.47,1.17,52.11,12.51C216.73,119.46,217.59,119.52,220.56,117.48Zm-60.84,95.71a9.69,9.69,0,0,0,7.81-3.43q18.41-21,36.86-41.93c3.56-4.05,7.15-8.06,10.65-12.15,3.21-3.74,3.12-8.49-.38-11.46q-6.43-5.46-13.2-10.5c-3.81-2.85-8.42-2-11.3,1.82-.62.82-1.16,1.7-1.72,2.56q-13.08,20.27-26.14,40.54c-1.43,2.21-1.52,2.2-3.26.05-2.2-2.7-4.38-5.42-6.57-8.13-3.69-4.59-9.46-4.69-13.23-.14-3.13,3.78-6.19,7.63-9.21,11.5-3.19,4.07-2.56,8.74,1.56,11.84q11.6,8.7,23.23,17.35C156.5,212.36,158.32,213.29,159.72,213.19Z"/><path class="cls-3" d="M120.51,228.73a4.19,4.19,0,0,1-2.86.57H23.74c-6.3,0-9.33-3-9.33-9.3V44.09c0-6.27,3-9.29,9.34-9.29,10.93,0,21.87,0,32.8,0,1.94,0,2.62.5,2.59,2.52-.06,5.6,0,5.6-5.64,5.6-7.53,0-15.06,0-22.59,0a8,8,0,0,0-8.4,8.33q0,80.84,0,161.66c0,5,3.4,8.34,8.38,8.34q39.47,0,78.92,0a6.07,6.07,0,0,1,5,2.14C116.46,225.19,118.43,226.8,120.51,228.73Z"/><path class="cls-4" d="M91.39,46.82c-7.45,0-14.9,0-22.34,0-1.38,0-2-.24-1.91-1.8.12-4.19.1-8.39,0-12.59,0-1.41.28-2,1.82-1.89,1.73.14,3.48,0,5.23,0,3.69,0,4.89-1.15,5.24-4.91a12.06,12.06,0,0,1,8.87-10.84c7.48-2,14.56,3,15.39,11,.39,3.79,1.46,4.76,5.28,4.78,1.82,0,3.65,0,5.47,0,1,0,1.4.34,1.4,1.37,0,4.51-.06,9,0,13.55,0,1.56-1,1.32-1.89,1.32Zm.14-16.19a4.12,4.12,0,0,0,4.07-4.06,4.18,4.18,0,0,0-4.09-4.06,4,4,0,0,0-4,4.11A3.85,3.85,0,0,0,91.53,30.63Z"/><path class="cls-3" d="M168.48,68c0,8.4-.06,16.79.06,25.19,0,1.94-.67,2.73-2.46,2.9-1.41.13-2.82.26-4.23.46-1.07.15-1.45-.33-1.44-1.31,0-.63,0-1.27,0-1.9q0-20.79,0-41.58c0-5.67-3.13-8.82-8.76-8.82-8.24,0-16.48-.08-24.72,0-2.32,0-3.24-.54-3.17-3,.15-5.1,0-5.1,5.22-5.1h30.89c5.69,0,8.61,3,8.62,8.68Q168.5,55.71,168.48,68Z"/><path d="M75.23,91.46q-13.66,0-27.32,0c-3.29,0-5-1.42-5-4s1.81-4.06,5-4.06q27.45,0,54.88,0c3.28,0,5.09,1.68,4.87,4.44-.18,2.34-1.78,3.65-4.65,3.65Q89.13,91.48,75.23,91.46Z"/><path d="M69.34,128H91.18a4,4,0,0,1,4.29,3.31,3.82,3.82,0,0,1-2.14,4.34,4.35,4.35,0,0,1-2.29.45q-21.84,0-43.68,0c-2.8,0-4.51-1.64-4.47-4.11s1.75-4,4.61-4C54.78,128,62.06,128,69.34,128Z"/><path d="M63.14,180.77c-5.15,0-10.3,0-15.45,0-3,0-4.79-1.54-4.8-4.06s1.71-4,4.77-4h30.9c3.06,0,4.81,1.49,4.81,4s-1.79,4.07-4.78,4.08C73.44,180.79,68.29,180.77,63.14,180.77Z"/><path d="M128,95.59a4.76,4.76,0,0,1-2.83-1.23c-1.35-1.33-2.74-2.62-4-4a3.94,3.94,0,0,1-.19-5.57,3.74,3.74,0,0,1,5.49-.42c1.1.86,1.48.55,2.15-.36q3.93-5.35,8-10.62c1.69-2.21,4-2.74,6-1.39s2.29,3.85.52,6.24c-3.81,5.14-7.68,10.23-11.5,15.36A4.86,4.86,0,0,1,128,95.59Z"/><path d="M159.72,213.19c-1.4.1-3.22-.83-4.9-2.08q-11.62-8.67-23.23-17.35c-4.12-3.1-4.75-7.77-1.56-11.84,3-3.87,6.08-7.72,9.21-11.5,3.77-4.55,9.54-4.45,13.23.14,2.19,2.71,4.37,5.43,6.57,8.13,1.74,2.15,1.83,2.16,3.26-.05q13.08-20.26,26.14-40.54c.56-.86,1.1-1.74,1.72-2.56,2.88-3.82,7.49-4.67,11.3-1.82q6.75,5,13.2,10.5c3.5,3,3.59,7.72.38,11.46-3.5,4.09-7.09,8.1-10.65,12.15q-18.44,21-36.86,41.93A9.69,9.69,0,0,1,159.72,213.19Zm-14.15-37.84c-.34.38-.71.78-1,1.2-2.4,3-4.73,6.15-7.21,9.14-1,1.17-.75,1.72.39,2.56q10.71,7.88,21.32,15.9c1.21.92,1.84.92,2.87-.25q23.09-26.37,46.28-52.66c.93-1.05.83-1.55-.26-2.35-3.18-2.36-6.37-4.73-9.36-7.31-1.57-1.35-2.2-1.15-3.28.54q-14.82,23.34-29.81,46.58c-2.67,4.17-5.29,4.33-8.36.53q-5.15-6.39-10.29-12.77C146.49,176.06,146.3,175.49,145.57,175.35Z"/><path class="cls-5" d="M91.53,30.63a3.85,3.85,0,0,1-4-4,4,4,0,0,1,4-4.11,4.18,4.18,0,0,1,4.09,4.06A4.12,4.12,0,0,1,91.53,30.63Z"/><path class="cls-6" d="M145.57,175.35c.73.14.92.71,1.24,1.11q5.16,6.38,10.29,12.77c3.07,3.8,5.69,3.64,8.36-.53q14.94-23.28,29.81-46.58c1.08-1.69,1.71-1.89,3.28-.54,3,2.58,6.18,4.95,9.36,7.31,1.09.8,1.19,1.3.26,2.35Q185,177.54,161.89,203.9c-1,1.17-1.66,1.17-2.87.25q-10.59-8-21.32-15.9c-1.14-.84-1.37-1.39-.39-2.56,2.48-3,4.81-6.09,7.21-9.14C144.86,176.13,145.23,175.73,145.57,175.35Z"/></g></svg>