<svg xmlns="http://www.w3.org/2000/svg" viewBox="0 0 256 256"><defs><style>.cls-1{fill:#080705;}.cls-2{fill:#f0eef1;}.cls-3{fill:#e4b25f;}.cls-4{fill:#e29c7d;}.cls-5{fill:#1d190d;}.cls-6{fill:#726672;}.cls-7{fill:#eedb74;}.cls-8{fill:#e8b560;}.cls-9{fill:#dedade;}.cls-10{fill:#8f7f8f;}.cls-11{fill:#eec454;}.cls-12{fill:#b4d8a0;}.cls-13{fill:#d98a62;}.cls-14{fill:#f9db74;}</style></defs><g id="SinIdentificar-3" data-name="SinIdentificar"><path class="cls-1" d="M73.92,81.31A2.91,2.91,0,0,1,71.55,78c.07-2.42,0-4.83,0-7.25a5.72,5.72,0,0,1,6-6c6-.07,11.94-.11,17.9,0a5,5,0,0,0,4.21-2c13.76-14.76,30.44-19.23,49.85-13.95,2.27.61,3.4,1.78,3.11,4.16a3.78,3.78,0,0,1-4.73.74,6.69,6.69,0,0,0-1.76-.33,28.78,28.78,0,0,0-8.67-1.52,41.84,41.84,0,0,0-31.06,11.22c-.32.29-.83.56-.65,1.07.23.68.89.42,1.37.43q3.61.07,7.25.06,20.39,0,40.77-.06h10.3A28.28,28.28,0,0,0,160,59.86c-1.63-1.17-2.29-2.54-1.1-4.4,1.31-1.13,2.56-.9,3.88,0a47,47,0,0,1,8.76,8.09c.56.65,1.06,1.3,2,1.12s.92-1.09,1.13-1.76a39.24,39.24,0,0,1,10.73-17c.69-.63,1.33-1.55,2.52-.92.85,1.27-.14,1.9-.9,2.61A37,37,0,0,0,177.5,62.1c-1,2.64-.68,2.91,2.15,2.69,1.44-.12,1.39-1.23,1.74-2,5.24-12.22,14.4-19.58,27.64-20.92,13.73-1.39,24.53,4.2,31.89,15.85a32.89,32.89,0,0,1-1.54,36.71c-.69.93-1.25,2.29-2.83,1.25-.41-1.24.51-2,1.11-2.8a30.81,30.81,0,0,0-4.42-40.92c-7.34-6.54-16-9.24-25.79-7.49-10,1.48-17.18,7-22.18,15.52-.82,1.41-2.39,3.25-1.59,4.42s3.06.35,4.7.27c2.86.38,5.89-.55,8.61,1.43a40.53,40.53,0,0,1,.65-4.26c1.41-5.31,5.26-8.06,10.27-9.52.76-.22,1.64-.12,1.76-1.35.15-1.73,1.44-2.41,3-2.52,1.71-.13,3.25.38,3.77,2.18.29,1,.81,1.06,1.61,1.15a17.61,17.61,0,0,1,6.31,1.69c3.29,1.71,4.19,4.65,2.46,8-1.5,2.91-3.84,3.52-7.26,1.88-3-1.43-3-1.43-3,1.74a3.86,3.86,0,0,1,0,.68c-.49,2.46.53,3.7,2.9,4.64,4.29,1.7,7.68,4.54,8.88,9.3,2,7.81-2.06,14.92-9.8,17.48-.84.28-1.91.17-2.07,1.64-.19,1.79-1.67,2.42-3.3,2.47s-3-.48-3.5-2.24c-.15-.54-.22-1-.92-1.06a22.11,22.11,0,0,1-9.85-3.62c0,2.33.11,4.36,0,6.37a2.42,2.42,0,0,0,1.91,2.81c11.55,4.25,22.11,2.58,31.72-5.11.75-.59,1.32-1.53,2.5-1.27,1,1.11.36,1.85-.51,2.61a32.8,32.8,0,0,1-19,8.21,33.61,33.61,0,0,1-14.73-1.93c-.56-.21-1.35-1.17-1.81.14a2.85,2.85,0,0,0,2,4c13.72,4,26.19,1.61,36.7-8.12s14.29-22.28,10.82-36.35c-6-24.41-34.2-35.65-55.64-22.42-.93.57-1.77,1.54-3,.68-.42-1.36.56-1.88,1.46-2.46a39.48,39.48,0,1,1,31.42,71.43,39.21,39.21,0,0,1-21.48-.31c-2-.59-2.38-.16-2.29,1.79.15,3.24.08,6.5,0,9.75,0,1.15.29,1.63,1.48,2,4.8,1.59,6.68,6.51,4.22,11a2,2,0,0,0,0,2.37,7.1,7.1,0,0,1,0,7.55,2,2,0,0,0,0,2.38,7.28,7.28,0,0,1,0,7.75c-.29.5-.68.86-.36,1.61,3.13,7.38,4.74,15.24,7,22.89,3.48,11.63,6.77,23.32,10.13,35,.85,3-.42,4.41-3.23,3.78-1.33-.3-1.28-1.55-1.88-2.35-1.41-5.08-2.79-10.17-4.24-15.24q-4.56-16-9.21-31.93c-.17-.58.09-1.88-1.06-1.58-1.49.38-3.42.6-2.87,3.08a12.88,12.88,0,0,1,0,2.71c0,4.78-1.78,6.75-6.52,7.11-1.08.08-1.47.37-1.37,1.46.21,2.33.33,4.67.5,7q1,13.77,2,27.53a2.37,2.37,0,0,1-2.69,2.28,2.33,2.33,0,0,1-2.6-2.37c-.37-5.34-.77-10.67-1.09-16-.07-1.17-.62-1.47-1.65-1.66q-6.79-1.22-13.56-2.59a2.79,2.79,0,0,0-2.81.86c-5.24,5.1-10.54,10.14-15.83,15.19-5.13,4.88-10.42,4.56-15-.89-.06-.07-.25,0-.42-.05v5.15c-.37,1.41-.91,2.4-2.72,2.39s-2.36-1-2.71-2.39a22.67,22.67,0,0,0-.05-5.45c-5.14,6-10.2,6.18-15.69,1-.38-.36-.74-.76-1.15-1.09a3,3,0,0,1-.77-4.37c1.7-1,3.15-.65,4.45.76a24.19,24.19,0,0,0,2.14,2c2.09,1.81,4.38,1.63,6.11-.52,1.14-1.41,2.12-2.94,3.25-4.36.65-.8.73-1.3-.21-2-5.59-4-11.12-8.1-16.71-12.11a4.37,4.37,0,0,0-5.65.23c-.78.6-1.48,1.3-2.29,1.86-1.17.81-.92,1.44,0,2.24s2.08,2,3.16,2.93c1.35,1.17,1.89,2.5,1,4.2-1.78,1.39-3.28,1-4.75-.57s-3-2.79-4.38-4.24a2.34,2.34,0,0,0-2.38-.81c-4.58.93-9.16,1.8-13.75,2.64-1,.18-1.55.52-1.62,1.68-.31,5.33-.72,10.66-1.09,16a2.34,2.34,0,0,1-2.61,2.37,2.38,2.38,0,0,1-2.69-2.29q1.26-17.15,2.55-34.3c.1-1.32-.34-1.62-1.6-1.69-4.23-.2-6.26-2.41-6.3-6.64,0-1.36-.06-2.72,0-4.07.13-2.16-1.82-1.73-2.87-2.15s-.87,1-1,1.54q-3.57,12.15-7,24.33c-2.17,7.61-4.29,15.23-6.44,22.84-.6.8-.54,2.05-1.87,2.36-2.8.64-4.09-.8-3.23-3.77q5.69-19.78,11.4-39.56c.08-.29.13-.58.25-1.13a67,67,0,0,1-10.42.63c-18.61-.13-32.19-8.84-41-24.84C0,134.82,2.79,110.52,18.88,96c.83-.75,1.56-1.76,2.92-1,1.15,1.86-.55,2.56-1.51,3.46a44,44,0,0,0,38.49,75c3.25-.63,4.21-2,4-5.58-20.08,5.76-36.47-3.57-44.63-15.5-9-13.13-9.54-31.06-.1-43.92,14.09-19.17,32.46-22,53.47-12.23,0-5.74,1.16-4.65-4.39-6.8C53.33,84,40,85.31,27.32,93c-1,.63-2,1.44-3.31.8-.49-1.32.09-2.08,1.21-2.77,14.4-8.86,29.37-10,44.93-3.37,1.26.54,2.43,1.26,3.78.3,2.13.34,2.76,1.66,2.75,3.71,0,10,0,20,.06,29.92a21.24,21.24,0,0,1-.1,2.26c-.24,1.58.35,2.11,2,2a39.38,39.38,0,0,1,5.21,0c5.17.23,8.3,4,7.44,9.14-.2,1.18.29,1.53,1.09,2.08,4.64,3.18,4.71,9.43.09,12.54A2,2,0,0,0,91.3,152a7,7,0,0,1-3.94,7.88c-1.38.63-1.83,1.19-1.7,2.78.3,3.74-2.54,7.26-6.18,7.32-2.65,0-3.21,1-2.83,3.27.07.45,0,.9.08,1.36-.45,2,.31,2.62,2.35,2.62,17.22-.07,34.44,0,51.65-.06,1.87,0,3.3.36,3.71,2.43-.3,2-1.56,2.74-3.5,2.7-2.71-.06-5.42,0-8.14,0-4.51,0-4.51,0-4.35,4.55-.63,1.24-.22,2,.9,2.8q7.26,5.16,14.41,10.51a2.08,2.08,0,0,0,3,0q7.14-5.35,14.41-10.52c1.12-.79,1.52-1.57.9-2.8a22.39,22.39,0,0,1,.06-2.46c.23-1.68-.42-2.26-2.11-2.12s-3.6,0-5.39,0c-1.94.06-3.15-.72-3.49-2.69.44-1.85,1.64-2.46,3.5-2.45,6.65.07,13.3.05,19.95,0q10.77,0,21.53-.12c.83,0,1.66.13,2.48.12,6.3-.13,5.11,1.05,5.29-5.42,0-1.25-.3-1.64-1.61-1.68-4.87-.15-7.7-3.24-7.4-8,.06-1-.06-1.42-1-1.88-3.86-1.83-5.23-4.44-4.6-8.55a1.55,1.55,0,0,0-.7-1.84c-5.23-3.7-5.26-9.4-.09-13a1.54,1.54,0,0,0,.8-1.8c-.8-5.42,2.33-9.12,7.78-9.27,1.81,0,3.63-.07,5.44,0,1.11,0,1.39-.35,1.39-1.41q0-26.4,0-52.78c0-1.43-.53-1.85-1.87-1.78-2,.09-3.93.07-5.89.1-.6,0-1.2-.08-1.81-.08h-105a6.89,6.89,0,0,1-.91,0c-1.27-.13-1.76.4-1.71,1.69.07,2.11,0,4.23,0,6.34S75.93,81,73.92,81.31Zm6.59,81.48c-.13-1.39-1-1.9-2.29-1.91-1.94,0-3.88,0-5.82,0-1.24,0-2.2.46-2.15,2-.13,1.58.79,2.19,2.19,2.23,2,0,3.94.06,5.9,0A2,2,0,0,0,80.51,162.79Zm119.72.06c.05-1.5-.92-1.93-2.16-2-1.94,0-3.88,0-5.82,0-1.27,0-2.16.52-2.29,1.91a2,2,0,0,0,2.17,2.28c2,.07,3.94.05,5.9,0C199.43,165,200.35,164.43,200.23,162.85Zm-15.95-29.5c-.1,1.82,1.05,2.36,2.55,2.37q5.5.06,11,0c1.55,0,2.57-.7,2.63-2.39a2.18,2.18,0,0,0-2.4-2.35c-3.83,0-7.65-.05-11.47,0C185.16,131,184.15,131.68,184.28,133.35Zm-98.09,0c.12-1.82-1-2.35-2.54-2.37-3.67,0-7.35,0-11,0-1.56,0-2.57.68-2.63,2.37s1.08,2.38,2.63,2.39q5.5,0,11,0C85.15,135.71,86.29,135.17,86.19,133.35Zm114.23,19.47c-.29-1.47-1.33-1.93-2.67-1.93-3.63,0-7.26,0-10.89,0-1.31,0-2.41.39-2.55,2-.32,1.84.62,2.73,2.33,2.76q5.63.1,11.24,0C199.65,155.62,200.69,154.76,200.42,152.82Zm-130.37,0c-.27,1.94.77,2.8,2.54,2.82q5.63.09,11.24,0c1.71,0,2.65-.92,2.33-2.76-.11-1.57-1.23-1.94-2.5-2-3.66,0-7.32,0-11,0A2.33,2.33,0,0,0,70.05,152.82Zm110.06-10.49c-.49,2.16.18,3.3,2.21,3.33,5.25.07,10.52.07,15.77,0a2.18,2.18,0,0,0,2.33-2.81,2.36,2.36,0,0,0-2.66-1.9H182.43C181.41,141,180.47,141.18,180.11,142.33Zm-89.75,0C90,141.18,89.06,141,88,141H72.71a2.36,2.36,0,0,0-2.66,1.9,2.18,2.18,0,0,0,2.33,2.81q7.89.12,15.78,0C90.19,145.63,90.85,144.48,90.36,142.33ZM45.77,166.39c4.7.92,9.31.37,13.94-.62,2.93-.62,5.3-1.6,5.62-5.05a4.72,4.72,0,0,1,.76-1.63c.27-.47.51-.9.11-1.44a9.17,9.17,0,0,1-1.52-4.56A21.18,21.18,0,0,1,56.74,157c-.84.19-1,.73-1.08,1.47-.27,1.84-1.61,2.68-3.27,3s-3.76.09-4.19-1.44c-.79-2.82-3-2.49-4.87-2.95a22.31,22.31,0,0,1-6.89-2.82,10.88,10.88,0,0,1-4.51-4.95,7.8,7.8,0,0,1,2.45-8.58c2.25-1.88,4.35-1.81,7.46.25,1.39.92,2.78,1.83,4.2,2.69.87.53,1.4.32,1.38-.82,0-2-.08-3.94,0-5.9a2.14,2.14,0,0,0-1.65-2.51,26,26,0,0,1-6.28-3.13,14.79,14.79,0,0,1-5.34-19.15c2.28-4.8,6.4-7.29,11.34-8.66,1-.26,1.85-.3,2-1.68.21-2,1.73-2.75,3.52-2.91s3.71.34,4.31,2.2c.52,1.64,1.5,1.73,2.82,1.88a16.48,16.48,0,0,1,8.08,2.72c2.91,2.11,3.39,5.58,1.31,9.1-1.73,3-4.4,3.65-7.79,2l-2.26-1.06c-1.22-.58-2-.56-1.81,1.16a32.88,32.88,0,0,1,0,4.76A2,2,0,0,0,57.23,124a26.47,26.47,0,0,1,7.67,4.34c.34.29.75,1.06,1.27.49a9.87,9.87,0,0,1,4.94-3c.64-.17.46-.88.46-1.39,0-7.71,0-15.42,0-23.13a2.12,2.12,0,0,0-1.09-2C62.87,94.59,54.7,92.54,45.77,94a8.38,8.38,0,0,0-1.12,0C18.35,98.35,5.31,129,20.5,150.85,26.61,159.65,35,165,45.77,166.39Zm4.38-26.32c0,1.51,0,3,0,4.53,0,2.79-.58,3.16-3.31,2.33s-4.76-2.59-7.07-4c-2-1.23-3.31-.89-4.58,1-1.6,2.42-1.24,4.72,1.19,6.81,3.3,2.84,7.31,3.86,11.52,4.23,1.43.12,2.35.51,2.25,2.11-.06,1.09.3,1.77,1.53,1.68,1.08-.07,1.42-.73,1.31-1.69-.18-1.61.56-2.24,2.12-2.55a15.14,15.14,0,0,0,9-4.87c1.1-1.29,2.15-2.51,1-4.42a3.29,3.29,0,0,1-.21-2.64c1.29-2.92,1-5.64.06-8.63a6.71,6.71,0,0,0-2.14-3.73,27.17,27.17,0,0,0-8-4.2A2.39,2.39,0,0,1,53,123.37c.1-3,.09-5.9,0-8.84-.06-1.92.85-2.35,2.53-2.12a19,19,0,0,1,5.53,2c2.25,1.06,3.59.52,4.52-1.71,1.06-2.53.49-4.18-2-5.41a22.15,22.15,0,0,0-8.37-1.85c-1.43-.1-2.36-.46-2.2-2.11.11-1.14-.44-1.7-1.58-1.68s-1.33.8-1.26,1.71c.12,1.64-.72,2.22-2.26,2.46a18.79,18.79,0,0,0-4.33,1.3c-6.19,2.6-9.1,8.08-7.79,14.66.94,4.75,4.36,7.55,8.52,8.94C49.17,132.3,51.63,134.79,50.15,140.07Zm161.77-57c0,1.44,0,2.88,0,4.31,0,1.8-.76,2.23-2.44,1.74-2.38-.7-4.27-2.23-6.31-3.5-1.77-1.1-3.28-.61-4,1.19a4.9,4.9,0,0,0,1.48,5.69,15.9,15.9,0,0,0,8.82,3.2c1.42.12,2.62.24,2.49,2.1-.07.89.45,1.2,1.26,1.16s1.16-.42,1.06-1.16c-.23-1.7.76-2.16,2.19-2.49,6-1.42,9.36-5,10-10.55s-1.66-9.75-7.55-12c-3.88-1.5-4.91-3.56-4.69-7.48.35-6.36.65-6.74,6.46-4,1.74.83,3.15,1,4.15-1s.61-3.7-1.41-4.75A15.29,15.29,0,0,0,216.8,54c-1.54-.06-2.74-.26-2.56-2.23.08-.8-.52-1-1.19-1s-1.18.19-1.09.86c.31,2.3-1.29,2.45-2.89,2.84-4.08,1-7.47,2.93-8.93,7.18-2.06,5.94.21,10.95,7,13.68C211,76.87,213.13,78.72,211.92,83.06ZM98.9,182.3c-4.16,0-8.31,0-12.47,0-1.2,0-1.75.26-1.82,1.57-.16,3.39-.44,6.78-.72,10.16-.1,1.18.11,1.62,1.45,1.3a68.54,68.54,0,0,1,8-1.53c4.41-.5,8.26-1.91,11.42-5.21a8.28,8.28,0,0,1,6.82-2.49c1.5.13,1.81-.38,1.74-1.73s0-2.14-1.73-2.08C107.37,182.39,103.14,182.3,98.9,182.3Zm72.66,0c-4.31,0-8.62,0-12.93,0-1,0-1.69.25-1.44,1.37.18.82-.73,2.47.8,2.32,4.74-.47,7.74,2.45,10.95,5.07a6.16,6.16,0,0,0,2.86,1.7c4.46.78,8.92,1.61,13.35,2.55,1.36.29,1.55-.15,1.45-1.32-.27-3.31-.55-6.62-.67-9.94-.05-1.57-.78-1.78-2.12-1.76C179.73,182.36,175.64,182.32,171.56,182.32Zm-25.39,29.91a4.21,4.21,0,0,0,2.81-1.18q7.86-7.52,15.72-15c.41-.39.93-.71.39-1.49-2.44-3.51-6.19-4.21-9.6-1.73L144,201.2c-5.81,4.24-5.81,4.23-.83,9.61A4.29,4.29,0,0,0,146.17,212.23ZM209.61,86.58a15.44,15.44,0,0,1,0-1.83c.57-3.85-.15-6.72-4.6-7.84-2.38-.6-4.19-2.6-6.12-4.81,0,3.6,0,6.62,0,9.63,0,.69-.25,1.71,1.09,1.15,1.86-.76,3.37.07,4.86,1S207.57,86,209.61,86.58Z"/><path class="cls-2" d="M186.07,177.11q-10.75.06-21.53.12c-6.65,0-13.3,0-19.95,0-1.86,0-3.06.6-3.5,2.45h-6.65c-.41-2.07-1.84-2.43-3.71-2.43-17.21,0-34.43,0-51.65.06-2,0-2.8-.64-2.35-2.62,1.11-.16,2.22-.32,3.34-.46,4.46-.54,8.79-4.09,9.52-8.44a8,8,0,0,1,2.7-4.7,10.3,10.3,0,0,0,3.42-7.62,3.25,3.25,0,0,1,1.11-2.36,11.83,11.83,0,0,0,.74-15.28c-.8-1-1.79-1.9-1.88-3.48a11.15,11.15,0,0,0-11.45-10.74H76.74c0-10-.09-20-.06-29.92,0-2-.62-3.37-2.75-3.71V81.31c2-.28,2.82-1.46,2.75-3.45s0-4.23,0-6.34c0-1.29.44-1.82,1.71-1.69a6.89,6.89,0,0,0,.91,0h105c.61,0,1.21,0,1.81.08q0,24.47,0,48.92c0,1.6-.14,2.52-2.18,2.87a11.31,11.31,0,0,0-9.14,10.18,4.9,4.9,0,0,1-1.42,3.44c-4.19,4-3.61,12,.45,15.94a2.55,2.55,0,0,1,.93,2,10.63,10.63,0,0,0,3.76,8.15,6,6,0,0,1,2.3,4.17,6.38,6.38,0,0,0,2.5,4.68A6.53,6.53,0,0,1,186.07,177.11Zm-58.93-46.39c0,2.41,0,4.83,0,7.25.11,4.81,3.55,8.33,8.06,8.33s7.84-3.39,8-8.11a44.54,44.54,0,0,0,0-5.66c-.14-1.75.41-2.58,2.12-3.3a26,26,0,1,0-36.16-24.4c-.06,4.53,2.84,8,7.11,8.51a8.06,8.06,0,0,0,8.75-6.54c.16-.81.14-1.65.22-2.48a10,10,0,1,1,10.35,11c-5.58.4-8.47,3.48-8.5,9.08C127.13,126.48,127.14,128.6,127.14,130.72Zm8.18,37a8,8,0,1,0-8.17-8A8.14,8.14,0,0,0,135.32,167.68Z"/><path class="cls-3" d="M24,93.77c1.32.64,2.28-.17,3.31-.8,12.68-7.66,26-8.93,39.8-3.58,5.55,2.15,4.41,1.06,4.39,6.8-21-9.81-39.38-6.94-53.47,12.23-9.44,12.86-8.88,30.79.1,43.92,8.16,11.93,24.55,21.26,44.63,15.5.22,3.61-.74,4.95-4,5.58a44,44,0,0,1-38.49-75c1-.9,2.66-1.6,1.51-3.46Z"/><path class="cls-4" d="M54.21,218.13c2.15-7.61,4.27-15.23,6.44-22.84q3.47-12.18,7-24.33c.17-.57,0-2,1-1.54s3,0,2.87,2.15c-.07,1.35,0,2.71,0,4.07,0,4.23,2.07,6.44,6.3,6.64,1.26.07,1.7.37,1.6,1.69q-1.32,17.15-2.55,34.3Z"/><path class="cls-4" d="M193.57,218.28q-1-13.77-2-27.53c-.17-2.33-.29-4.67-.5-7-.1-1.09.29-1.38,1.37-1.46,4.74-.36,6.5-2.33,6.52-7.11a12.88,12.88,0,0,0,0-2.71c-.55-2.48,1.38-2.7,2.87-3.08,1.15-.3.89,1,1.06,1.58q4.66,15.94,9.21,31.93c1.45,5.07,2.83,10.16,4.24,15.24Z"/><path class="cls-3" d="M189.76,44c1.26.86,2.1-.11,3-.68,21.44-13.23,49.62-2,55.64,22.42,3.47,14.07-.17,26.49-10.82,36.35s-23,12.13-36.7,8.12a2.85,2.85,0,0,1-2-4c.46-1.31,1.25-.35,1.81-.14A33.61,33.61,0,0,0,215.47,108a32.8,32.8,0,0,0,19-8.21c.87-.76,1.56-1.5.51-2.61a1.55,1.55,0,0,0,1.53-1.52c1.58,1,2.14-.32,2.83-1.25a32.89,32.89,0,0,0,1.54-36.71C233.56,46,222.76,40.44,209,41.83c-13.24,1.34-22.4,8.7-27.64,20.92-.35.81-.3,1.92-1.74,2-2.83.22-3.12-.05-2.15-2.69a37,37,0,0,1,9.57-14.41c.76-.71,1.75-1.34.9-2.61Z"/><path class="cls-2" d="M82.22,218.19c.37-5.32.78-10.65,1.09-16,.07-1.16.59-1.5,1.62-1.68,4.59-.84,9.17-1.71,13.75-2.64a2.34,2.34,0,0,1,2.38.81c1.42,1.45,3,2.77,4.38,4.24s3,2,4.75.57a25.45,25.45,0,0,0,4.67,4.72,3,3,0,0,0,.77,4.37c.41.33.77.73,1.15,1.09,5.49,5.22,10.55,5,15.69-1a22.67,22.67,0,0,1,.05,5.45Z"/><path class="cls-2" d="M138,218.18V213c.17,0,.36,0,.42.05,4.55,5.45,9.84,5.77,15,.89,5.29-5.05,10.59-10.09,15.83-15.19a2.79,2.79,0,0,1,2.81-.86q6.77,1.37,13.56,2.59c1,.19,1.58.49,1.65,1.66.32,5.35.72,10.68,1.09,16Z"/><path class="cls-3" d="M215.5,135.14c.32-.16.63-.33.94-.5.94.33,1.56-.34,2.27-.74a20.83,20.83,0,1,1-4.27,3.27C215,136.61,215.89,136.21,215.5,135.14Zm26.84,29.67c.18-.35.35-.7.52-1.05,1.11.31,1.45-.59,1.9-1.25a18.19,18.19,0,0,0,2.79-14.71,18.8,18.8,0,1,0-15.32,22.66C236.19,169.81,240,168.49,242.34,164.81Z"/><path class="cls-5" d="M215.5,135.14c.39,1.07-.52,1.47-1.06,2a21,21,0,1,0,4.27-3.27c-.71.4-1.33,1.07-2.27.74-.18-1.07.63-1.41,1.35-1.84,13.66-8.13,31.48.22,33.6,16,2,15.06-10.19,25.11-21.25,25.37-13.11.3-21.86-9.69-22.92-18.63-.85-7.23.86-13.63,5.86-19C213.71,135.78,214.3,134.86,215.5,135.14Z"/><path class="cls-6" d="M146.17,53.45a6.69,6.69,0,0,1,1.76.33,3.78,3.78,0,0,0,4.73-.74c2.33.17,3.9,2.32,6.25,2.42-1.19,1.86-.53,3.23,1.1,4.4a28.28,28.28,0,0,1,5.47,4.79h-10.3a19.51,19.51,0,0,0-6.32-8.45C147.89,55.38,146.3,55.1,146.17,53.45Z"/><path class="cls-7" d="M45.77,94c8.93-1.44,17.1.61,24.73,5.28a2.12,2.12,0,0,1,1.09,2c0,7.71,0,15.42,0,23.13,0,.51.18,1.22-.46,1.39a9.87,9.87,0,0,0-4.94,3c-.52.57-.93-.2-1.27-.49A26.47,26.47,0,0,0,57.23,124a2,2,0,0,1-1.54-2.35,32.88,32.88,0,0,0,0-4.76c-.14-1.72.59-1.74,1.81-1.16l2.26,1.06c3.39,1.62,6.06.92,7.79-2,2.08-3.52,1.6-7-1.31-9.1A16.48,16.48,0,0,0,58.16,103c-1.32-.15-2.3-.24-2.82-1.88-.6-1.86-2.45-2.37-4.31-2.2s-3.31.92-3.52,2.91c-.15,1.38-1,1.42-2,1.68-4.94,1.37-9.06,3.86-11.34,8.66a14.79,14.79,0,0,0,5.34,19.15,26,26,0,0,0,6.28,3.13,2.14,2.14,0,0,1,1.65,2.51c-.1,2,0,3.93,0,5.9,0,1.14-.51,1.35-1.38.82-1.42-.86-2.81-1.77-4.2-2.69-3.11-2.06-5.21-2.13-7.46-.25a7.8,7.8,0,0,0-2.45,8.58,10.88,10.88,0,0,0,4.51,4.95,22.31,22.31,0,0,0,6.89,2.82c1.9.46,4.08.13,4.87,2.95.43,1.53,2.54,1.76,4.19,1.44s3-1.16,3.27-3c.11-.74.24-1.28,1.08-1.47a21.18,21.18,0,0,0,7.94-3.88,9.17,9.17,0,0,0,1.52,4.56c.4.54.16,1-.11,1.44a4.72,4.72,0,0,0-.76,1.63c-.32,3.45-2.69,4.43-5.62,5.05-4.63,1-9.24,1.54-13.94.62a4.68,4.68,0,0,0-1.8-.89,37.38,37.38,0,0,1-20.65-19.82,36.24,36.24,0,0,1-1.5-27.24A37.41,37.41,0,0,1,37.35,98.26C40,96.53,43,95.47,45.77,94Z"/><path class="cls-7" d="M236.55,95.64A1.55,1.55,0,0,1,235,97.16c-1.18-.26-1.75.68-2.5,1.27-9.61,7.69-20.17,9.36-31.72,5.11a2.42,2.42,0,0,1-1.91-2.81c.14-2,0-4,0-6.37A22.11,22.11,0,0,0,208.77,98c.7.07.77.52.92,1.06.49,1.76,1.86,2.3,3.5,2.24s3.11-.68,3.3-2.47c.16-1.47,1.23-1.36,2.07-1.64,7.74-2.56,11.76-9.67,9.8-17.48-1.2-4.76-4.59-7.6-8.88-9.3-2.37-.94-3.39-2.18-2.9-4.64a3.86,3.86,0,0,0,0-.68c0-3.17,0-3.17,3-1.74,3.42,1.64,5.76,1,7.26-1.88,1.73-3.36.83-6.3-2.46-8a17.61,17.61,0,0,0-6.31-1.69c-.8-.09-1.32-.16-1.61-1.15-.52-1.8-2.06-2.31-3.77-2.18-1.56.11-2.85.79-3,2.52-.12,1.23-1,1.13-1.76,1.35-5,1.46-8.86,4.21-10.27,9.52a40.53,40.53,0,0,0-.65,4.26c-2.72-2-5.75-1-8.61-1.43a4.52,4.52,0,0,1,.13-1.34,33.37,33.37,0,0,1,9.91-13.47,55.86,55.86,0,0,1,9-5.4c9.83-1.75,18.45,1,25.79,7.49a30.81,30.81,0,0,1,4.42,40.92C237.06,93.68,236.14,94.4,236.55,95.64Z"/><path class="cls-8" d="M50.15,140.07c1.48-5.28-1-7.77-5.86-9.4-4.16-1.39-7.58-4.19-8.52-8.94-1.31-6.58,1.6-12.06,7.79-14.66a18.79,18.79,0,0,1,4.33-1.3c1.54-.24,2.38-.82,2.26-2.46-.07-.91.1-1.69,1.26-1.71s1.69.54,1.58,1.68c-.16,1.65.77,2,2.2,2.11a22.15,22.15,0,0,1,8.37,1.85c2.48,1.23,3,2.88,2,5.41-.93,2.23-2.27,2.77-4.52,1.71a19,19,0,0,0-5.53-2c-1.68-.23-2.59.2-2.53,2.12.08,2.94.09,5.89,0,8.84A2.39,2.39,0,0,0,54.83,126a27.17,27.17,0,0,1,8,4.2A6.71,6.71,0,0,1,65,134c.91,3,1.23,5.71-.06,8.63a3.29,3.29,0,0,0,.21,2.64c1.14,1.91.09,3.13-1,4.42a15.14,15.14,0,0,1-9,4.87c-1.56.31-2.3.94-2.12,2.55.11,1-.23,1.62-1.31,1.69-1.23.09-1.59-.59-1.53-1.68.1-1.6-.82-2-2.25-2.11-4.21-.37-8.22-1.39-11.52-4.23-2.43-2.09-2.79-4.39-1.19-6.81,1.27-1.92,2.61-2.26,4.58-1,2.31,1.44,4.41,3.21,7.07,4s3.28.46,3.31-2.33C50.16,143.09,50.15,141.58,50.15,140.07Zm2.05.89h0v4.28c0,1.69.74,2.3,2.45,1.81,3-.87,4.8-3,4.77-5.81,0-2.62-2.65-5.78-5.3-6.36-1.28-.28-1.85.4-1.9,1.57C52.16,138,52.2,139.45,52.2,141Zm-1.38-22.72v-4.08a1.39,1.39,0,0,0-1.46-1.62c-1.88-.11-4.85,1.87-5.59,3.72a4.69,4.69,0,0,0,1.75,5.62,15,15,0,0,0,2.93,1.7c1.46.68,2.35.21,2.38-1.49C50.84,120.8,50.83,119.52,50.82,118.24Z"/><path class="cls-9" d="M186.07,177.11a6.53,6.53,0,0,0-2.75-6.87,6.38,6.38,0,0,1-2.5-4.68,6,6,0,0,0-2.3-4.17,10.63,10.63,0,0,1-3.76-8.15,2.55,2.55,0,0,0-.93-2c-4.06-3.89-4.64-12-.45-15.94a4.9,4.9,0,0,0,1.42-3.44,11.31,11.31,0,0,1,9.14-10.18c2-.35,2.18-1.27,2.18-2.87q0-24.47,0-48.92c2,0,3.93,0,5.89-.1,1.34-.07,1.87.35,1.87,1.78q-.06,26.39,0,52.78c0,1.06-.28,1.46-1.39,1.41-1.81-.09-3.63-.06-5.44,0-5.45.15-8.58,3.85-7.78,9.27a1.54,1.54,0,0,1-.8,1.8c-5.17,3.61-5.14,9.31.09,13a1.55,1.55,0,0,1,.7,1.84c-.63,4.11.74,6.72,4.6,8.55,1,.46,1.07.92,1,1.88-.3,4.77,2.53,7.86,7.4,8,1.31,0,1.65.43,1.61,1.68-.18,6.47,1,5.29-5.29,5.42C187.73,177.24,186.9,177.15,186.07,177.11Z"/><path class="cls-8" d="M211.92,83.06c1.21-4.34-.91-6.19-4.81-7.76-6.76-2.73-9-7.74-7-13.68,1.46-4.25,4.85-6.2,8.93-7.18,1.6-.39,3.2-.54,2.89-2.84-.09-.67.52-.86,1.09-.86s1.27.22,1.19,1c-.18,2,1,2.17,2.56,2.23a15.29,15.29,0,0,1,6.57,1.56c2,1.05,2.45,2.65,1.41,4.75s-2.41,1.81-4.15,1c-5.81-2.77-6.11-2.39-6.46,4-.22,3.92.81,6,4.69,7.48,5.89,2.27,8.15,6.54,7.55,12s-4,9.13-10,10.55c-1.43.33-2.42.79-2.19,2.49.1.74-.32,1.12-1.06,1.16s-1.33-.27-1.26-1.16c.13-1.86-1.07-2-2.49-2.1a15.9,15.9,0,0,1-8.82-3.2,4.9,4.9,0,0,1-1.48-5.69c.75-1.8,2.26-2.29,4-1.19,2,1.27,3.93,2.8,6.31,3.5,1.68.49,2.48.06,2.44-1.74C211.9,85.94,211.92,84.5,211.92,83.06Zm1.78.76c0,1.28,0,2.56,0,3.83s.66,1.89,2,1.42c2.06-.7,3.63-1.87,3.94-4.17.33-2.5-1-4.13-3-5.35-.7-.43-1.42-1-2.29-.64s-.65,1.41-.68,2.2S213.7,82.92,213.7,83.82Zm-1.22-19.17c0-.9,0-1.81,0-2.71.09-1.77-.63-2.35-2.34-1.76-2,.67-3.63,1.7-3.87,3.94s1.34,3.69,3.22,4.7c2.29,1.24,3,.86,3-1.68C212.49,66.31,212.48,65.48,212.48,64.65Z"/><path class="cls-10" d="M146.17,53.45c.13,1.65,1.72,1.93,2.69,2.75a19.51,19.51,0,0,1,6.32,8.45q-20.38,0-40.77.06-3.63,0-7.25-.06c-.48,0-1.14.25-1.37-.43-.18-.51.33-.78.65-1.07A41.84,41.84,0,0,1,137.5,51.93,28.78,28.78,0,0,1,146.17,53.45Z"/><path class="cls-11" d="M45.77,94C43,95.47,40,96.53,37.35,98.26a37.41,37.41,0,0,0-15.53,20.18,36.24,36.24,0,0,0,1.5,27.24A37.38,37.38,0,0,0,44,165.5a4.68,4.68,0,0,1,1.8.89C35,165,26.61,159.65,20.5,150.85,5.31,129,18.35,98.35,44.65,94A8.38,8.38,0,0,1,45.77,94Z"/><path class="cls-9" d="M76.74,121.56h7.49a11.15,11.15,0,0,1,11.45,10.74c.09,1.58,1.08,2.49,1.88,3.48a11.83,11.83,0,0,1-.74,15.28,3.25,3.25,0,0,0-1.11,2.36,10.3,10.3,0,0,1-3.42,7.62,8,8,0,0,0-2.7,4.7c-.73,4.35-5.06,7.9-9.52,8.44-1.12.14-2.23.3-3.34.46,0-.46,0-.91-.08-1.36-.38-2.24.18-3.22,2.83-3.27,3.64-.06,6.48-3.58,6.18-7.32-.13-1.59.32-2.15,1.7-2.78A7,7,0,0,0,91.3,152a2,2,0,0,1,1.13-2.49c4.62-3.11,4.55-9.36-.09-12.54-.8-.55-1.29-.9-1.09-2.08.86-5.11-2.27-8.91-7.44-9.14a39.38,39.38,0,0,0-5.21,0c-1.61.13-2.2-.4-2-2A21.24,21.24,0,0,0,76.74,121.56Z"/><path class="cls-4" d="M152,186.88c.62,1.23.22,2-.9,2.8q-7.27,5.17-14.41,10.52a2.08,2.08,0,0,1-3,0q-7.14-5.34-14.41-10.51c-1.12-.8-1.53-1.56-.9-2.8Z"/><path class="cls-12" d="M114.86,208.23a25.45,25.45,0,0,1-4.67-4.72c.84-1.7.3-3-1-4.2-1.08-.95-2.06-2-3.16-2.93s-1.2-1.43,0-2.24c.81-.56,1.51-1.26,2.29-1.86a4.37,4.37,0,0,1,5.65-.23c5.59,4,11.12,8.1,16.71,12.11.94.68.86,1.18.21,2-1.13,1.42-2.11,3-3.25,4.36-1.73,2.15-4,2.33-6.11.52a24.19,24.19,0,0,1-2.14-2C118,207.58,116.56,207.2,114.86,208.23Z"/><path class="cls-12" d="M146.17,212.23a4.29,4.29,0,0,1-3-1.42c-5-5.38-5-5.37.83-9.61l11.53-8.41c3.41-2.48,7.16-1.78,9.6,1.73.54.78,0,1.1-.39,1.49q-7.84,7.53-15.72,15A4.21,4.21,0,0,1,146.17,212.23Z"/><path class="cls-13" d="M152,186.88H118.45c-.16-4.55-.16-4.55,4.35-4.55,2.72,0,5.43-.05,8.14,0,1.94,0,3.2-.68,3.5-2.7h6.65c.34,2,1.55,2.75,3.49,2.69,1.79-.06,3.6.1,5.39,0s2.34.44,2.11,2.12A22.39,22.39,0,0,0,152,186.88Z"/><path class="cls-11" d="M207.45,44.43a55.86,55.86,0,0,0-9,5.4,33.37,33.37,0,0,0-9.91,13.47,4.52,4.52,0,0,0-.13,1.34c-1.64.08-4,.82-4.7-.27s.77-3,1.59-4.42C190.27,51.39,197.47,45.91,207.45,44.43Z"/><path class="cls-7" d="M209.61,86.58c-2-.54-3.32-1.74-4.75-2.67s-3-1.79-4.86-1c-1.34.56-1.09-.46-1.09-1.15,0-3,0-6,0-9.63,1.93,2.21,3.74,4.21,6.12,4.81,4.45,1.12,5.17,4,4.6,7.84A15.44,15.44,0,0,0,209.61,86.58Z"/><path class="cls-13" d="M90.36,142.33c.49,2.15-.17,3.3-2.2,3.33q-7.89.1-15.78,0a2.18,2.18,0,0,1-2.33-2.81l18.47,0C89.18,142.89,89.9,143,90.36,142.33Z"/><path class="cls-13" d="M200.42,142.84a2.18,2.18,0,0,1-2.33,2.81c-5.25.08-10.52.08-15.77,0-2,0-2.7-1.17-2.21-3.33.47.68,1.18.56,1.84.56Z"/><path class="cls-13" d="M86.16,152.86c.32,1.84-.62,2.73-2.33,2.76q-5.61.1-11.24,0c-1.77,0-2.81-.88-2.54-2.82Z"/><path class="cls-13" d="M200.42,152.82c.27,1.94-.77,2.8-2.54,2.82q-5.61.09-11.24,0c-1.71,0-2.65-.92-2.33-2.76Z"/><path class="cls-13" d="M86.19,133.35c.1,1.82-1,2.36-2.55,2.37q-5.51.06-11,0c-1.55,0-2.57-.7-2.63-2.39Z"/><path class="cls-4" d="M90.36,142.33c-.46.68-1.18.56-1.84.56l-18.47,0a2.36,2.36,0,0,1,2.66-1.9H88C89.06,141,90,141.18,90.36,142.33Z"/><path class="cls-4" d="M200.42,142.84l-18.47,0c-.66,0-1.37.12-1.84-.56.36-1.15,1.3-1.38,2.32-1.38h15.33A2.36,2.36,0,0,1,200.42,142.84Z"/><path class="cls-13" d="M200.47,133.34c-.06,1.69-1.08,2.38-2.63,2.39q-5.51,0-11,0c-1.5,0-2.65-.55-2.55-2.37Z"/><path class="cls-4" d="M86.19,133.35H70c.06-1.69,1.07-2.36,2.63-2.37,3.67,0,7.35,0,11,0C85.16,131,86.31,131.53,86.19,133.35Z"/><path class="cls-4" d="M200.47,133.34H184.28c-.13-1.67.88-2.33,2.32-2.35,3.82-.06,7.64-.05,11.47,0A2.18,2.18,0,0,1,200.47,133.34Z"/><path class="cls-4" d="M86.16,152.86l-16.11,0a2.33,2.33,0,0,1,2.62-1.93c3.67,0,7.33,0,11,0C84.93,150.92,86.05,151.29,86.16,152.86Z"/><path class="cls-4" d="M200.42,152.82l-16.11,0c.14-1.57,1.24-2,2.55-2,3.63,0,7.26,0,10.89,0C199.09,150.89,200.13,151.35,200.42,152.82Z"/><path class="cls-13" d="M200.23,162.85c.12,1.58-.8,2.19-2.2,2.23-2,0-3.93.06-5.9,0a2,2,0,0,1-2.17-2.28Z"/><path class="cls-13" d="M80.51,162.79a2,2,0,0,1-2.17,2.28c-2,.07-3.93.05-5.9,0-1.4,0-2.32-.65-2.19-2.23Z"/><path class="cls-4" d="M80.51,162.79l-10.26.06c0-1.5.91-1.93,2.15-2,1.94,0,3.88,0,5.82,0C79.49,160.89,80.38,161.4,80.51,162.79Z"/><path class="cls-4" d="M200.23,162.85,190,162.79c.13-1.39,1-1.9,2.29-1.91,1.94,0,3.88,0,5.82,0C199.31,160.92,200.28,161.35,200.23,162.85Z"/><path class="cls-1" d="M127.14,130.72c0-2.12,0-4.24,0-6.35,0-5.6,2.92-8.68,8.5-9.08a10,10,0,1,0-10.35-11c-.08.83-.06,1.67-.22,2.48a8.06,8.06,0,0,1-8.75,6.54c-4.27-.51-7.17-4-7.11-8.51a26,26,0,1,1,36.16,24.4c-1.71.72-2.26,1.55-2.12,3.3a44.54,44.54,0,0,1,0,5.66c-.21,4.72-3.61,8.11-8,8.11s-8-3.52-8.06-8.33C127.1,135.55,127.14,133.13,127.14,130.72Zm6.71,9.95c2.46.94,4.09.06,4.21-2.43s0-5.12,0-7.68c0-4.1,0-4.1,3.83-5.41,11.58-4,17.63-17.46,12.45-27.81-4.59-12.92-22.17-17.12-32.82-7.81a20.34,20.34,0,0,0-7.24,15.53,2.75,2.75,0,0,0,2.81,3.15c1.77.07,2.73-1.08,3-2.8.07-.45.06-.9.09-1.36a15.1,15.1,0,0,1,17.08-13.66c8.72,1.36,14.57,9.67,12.7,18a14.94,14.94,0,0,1-13.67,11.93c-3.05.3-3.93.92-4,3.28-.08,4.83,0,9.67,0,14.51A2.3,2.3,0,0,0,133.85,140.67Z"/><path class="cls-1" d="M135.32,167.68a8,8,0,1,1,7.94-8.2A8.17,8.17,0,0,1,135.32,167.68Zm2.29-9.41c-.65-1.42-1.84-1.64-3.19-1.35a2.42,2.42,0,0,0-1.94,1.94c-.29,1.35-.06,2.54,1.36,3.19a2.74,2.74,0,0,0,3.77-3.78Z"/><path class="cls-7" d="M242.86,163.76c-.17.35-.34.7-.52,1.05-1.21-.69-1.77.43-2.49,1a16.63,16.63,0,0,1-14.68,3c-.43-.29-.85-.61-1.3-.87a18.22,18.22,0,0,1-6-26.37c1.69-2.43,4.22-4,6.25-6.05v0a.76.76,0,0,0,1-.3,8.67,8.67,0,0,1,1.29-.39c7.26-.91,13.21,1.46,17.25,7.57s4,12.63.2,19C243.47,162.12,242.56,162.68,242.86,163.76Zm-15.32-7.44c-.11.61.38,1.5-.32,1.84s-1.22-.42-1.75-.8c-1.59-1.13-3.12-1.62-4.57.17s-1.12,3.65.63,5.21a8.86,8.86,0,0,0,4.24,2,3,3,0,0,1,2.2,1.3,1.88,1.88,0,0,0,3.34-.17,3.23,3.23,0,0,1,2-1.56,7.61,7.61,0,0,0,5.09-6.87,7.36,7.36,0,0,0-4.24-7.59c-.6-.32-1.26-.53-1.83-.89-1.43-.91-.89-2.41-.59-3.46s1.28-.07,1.86.18c1.88.82,3.08.13,3.85-1.57,1-2.22-.09-3.94-2.88-4.83-1.08-.34-2.33,0-3.23-1.23-1.24-1.68-2.45-1.5-3.68.34a2,2,0,0,1-1.2.88c-3.53,1.09-5.73,3.32-5.85,7.16s2.12,5.84,5.28,7.12C227.25,154.12,227.87,154.87,227.54,156.32Z"/><path class="cls-5" d="M242.86,163.76c-.3-1.08.61-1.64,1-2.39,3.77-6.38,3.88-12.84-.2-19s-10-8.48-17.25-7.57a8.67,8.67,0,0,0-1.29.39,1.08,1.08,0,0,0-1,.3v0a10.6,10.6,0,0,0-4.31,1.87,17.37,17.37,0,0,0-7.7,18c1.3,6.72,6.76,12.34,13,13.44a16.63,16.63,0,0,0,14.68-3c.72-.53,1.28-1.65,2.49-1-2.36,3.68-6.15,5-10.11,5.65a18.77,18.77,0,1,1,15.32-22.66,18.19,18.19,0,0,1-2.79,14.71C244.31,163.17,244,164.07,242.86,163.76Z"/><path class="cls-1" d="M52.2,141c0-1.51,0-3,0-4.51,0-1.17.62-1.85,1.9-1.57,2.65.58,5.27,3.74,5.3,6.36,0,2.78-1.79,4.94-4.77,5.81-1.71.49-2.44-.12-2.45-1.81V141ZM55,143.73c2.38-1.64,2.31-3.59,0-4.71Z"/><path class="cls-1" d="M50.83,118.24c0,1.28,0,2.56,0,3.85,0,1.7-.92,2.17-2.38,1.49a15,15,0,0,1-2.93-1.7,4.69,4.69,0,0,1-1.75-5.62c.74-1.85,3.71-3.83,5.59-3.72a1.39,1.39,0,0,1,1.46,1.62C50.82,115.52,50.82,116.88,50.83,118.24ZM48.2,118c-.38-.59.53-1.83-.74-1.86-.79,0-1.29.93-1.26,1.84s.54,1.81,1.33,1.81C48.68,119.82,47.89,118.67,48.2,118Z"/><path class="cls-1" d="M213.7,83.82c0-.9,0-1.81,0-2.71s-.3-1.76.68-2.2,1.59.21,2.29.64c2,1.22,3.34,2.85,3,5.35-.31,2.3-1.88,3.47-3.94,4.17-1.38.47-2,0-2-1.42S213.7,85.1,213.7,83.82Zm2.43,2.35c1.78-1.54,1.78-2.32,0-3.93A11.53,11.53,0,0,0,216.13,86.17Z"/><path class="cls-1" d="M212.48,64.65c0,.83,0,1.66,0,2.49,0,2.54-.69,2.92-3,1.68-1.88-1-3.49-2.31-3.22-4.7s1.9-3.27,3.87-3.94c1.71-.59,2.43,0,2.34,1.76C212.45,62.84,212.48,63.75,212.48,64.65Zm-2.37,1.73c0-1.3.54-2.44-.26-3.3-.36-.39-.91.3-1.1.77C208.28,65.05,208.84,65.75,210.11,66.38Z"/><path class="cls-14" d="M133.85,140.67a2.3,2.3,0,0,1-1.5-2.53c0-4.84-.08-9.68,0-14.51,0-2.36.91-3,4-3.28A14.94,14.94,0,0,0,150,108.42c1.87-8.36-4-16.67-12.7-18a15.1,15.1,0,0,0-17.08,13.66c0,.46,0,.91-.09,1.36-.25,1.72-1.21,2.87-3,2.8a2.75,2.75,0,0,1-2.81-3.15,20.34,20.34,0,0,1,7.24-15.53c10.65-9.31,28.23-5.11,32.82,7.81-.37,2.45.4,4.84,0,7.37-1.26,9-5.95,15.25-14.06,19-3.05,1.41-3.72,2.15-3.76,5.36,0,4,.79,8.2-2.72,11.37C133.84,140.49,133.86,140.59,133.85,140.67Z"/><path class="cls-11" d="M133.85,140.67c0-.08,0-.18,0-.22,3.51-3.17,2.68-7.38,2.72-11.37,0-3.21.71-4,3.76-5.36,8.11-3.76,12.8-10,14.06-19,.36-2.53-.41-4.92,0-7.37,5.18,10.35-.87,23.86-12.45,27.81-3.83,1.31-3.83,1.31-3.83,5.41,0,2.56.07,5.13,0,7.68S136.31,141.61,133.85,140.67Z"/><path class="cls-14" d="M133.84,162.05c-1.42-.65-1.65-1.84-1.36-3.19a2.42,2.42,0,0,1,1.94-1.94c1.35-.29,2.54-.07,3.19,1.35A11.74,11.74,0,0,0,133.84,162.05Z"/><path class="cls-11" d="M133.84,162.05a11.74,11.74,0,0,1,3.77-3.78,2.74,2.74,0,0,1-3.77,3.78Z"/><path class="cls-5" d="M227.54,156.32c.33-1.45-.29-2.2-1.63-2.75-3.16-1.28-5.39-3.4-5.28-7.12s2.32-6.07,5.85-7.16a2,2,0,0,0,1.2-.88c1.23-1.84,2.44-2,3.68-.34.9,1.22,2.15.89,3.23,1.23,2.79.89,3.89,2.61,2.88,4.83-.77,1.7-2,2.39-3.85,1.57-.58-.25-1.56-1.22-1.86-.18s-.84,2.55.59,3.46c.57.36,1.23.57,1.83.89a7.36,7.36,0,0,1,4.24,7.59,7.61,7.61,0,0,1-5.09,6.87,3.23,3.23,0,0,0-2,1.56,1.88,1.88,0,0,1-3.34.17,3,3,0,0,0-2.2-1.3,8.86,8.86,0,0,1-4.24-2c-1.75-1.56-2-3.54-.63-5.21s3-1.3,4.57-.17c.53.38,1.08,1.13,1.75.8S227.43,156.93,227.54,156.32Zm1.37.34c-.38,1.05.74,2.67-.55,3.27s-2.36-.63-3.45-1.27c-.07,0-.12-.1-.18-.14-.89-.63-1.81-1.32-2.74-.13a2.17,2.17,0,0,0,.31,3.22,10.18,10.18,0,0,0,3.16,1.71c1.28.55,3.39-.34,3.71,2,1.46-.24,1.74-2,3.45-2.31,2.91-.56,4.35-3.06,4.46-6.05.12-3.53-2-5.41-4.94-6.51-1.55-.57-2.16-1.43-1.95-3a9.19,9.19,0,0,0,0-2c-.17-1.9.7-2.28,2.31-1.66a11,11,0,0,1,1.46.61,1.38,1.38,0,0,0,2.21-.67,1.69,1.69,0,0,0-.72-2.49,8.69,8.69,0,0,0-3-.89c-1-.18-2.11.11-2.37-1.46-.12-.7-1-.52-1,.13-.12,1.4-1.17,1.36-2.06,1.64-3.11,1-4.73,2.74-5,5.47s1,4.85,4.11,6.05C228.4,153,229.52,154.15,228.91,156.66Z"/><path class="cls-11" d="M225.17,168.74c-6.28-1.1-11.74-6.72-13-13.44a17.37,17.37,0,0,1,7.7-18,10.6,10.6,0,0,1,4.31-1.87c-2,2.06-4.56,3.62-6.25,6.05a18.22,18.22,0,0,0,6,26.37C224.32,168.13,224.74,168.45,225.17,168.74Z"/><path class="cls-11" d="M224.13,135.48a1.08,1.08,0,0,1,1-.3A.76.76,0,0,1,224.13,135.48Z"/><path class="cls-3" d="M55,143.73V139C57.28,140.14,57.35,142.09,55,143.73Z"/><path class="cls-3" d="M48.2,118c-.31.63.48,1.78-.67,1.79-.79,0-1.31-.91-1.33-1.81s.47-1.85,1.26-1.84C48.73,116.21,47.82,117.45,48.2,118Z"/><path class="cls-3" d="M216.13,86.17a11.53,11.53,0,0,1,0-3.93C217.91,83.85,217.91,84.63,216.13,86.17Z"/><path class="cls-3" d="M210.11,66.38c-1.27-.63-1.83-1.33-1.36-2.53.19-.47.74-1.16,1.1-.77C210.65,63.94,210.15,65.08,210.11,66.38Z"/><path class="cls-3" d="M228.91,156.66c.61-2.51-.51-3.67-2.79-4.54-3.15-1.2-4.34-3.3-4.11-6.05s1.85-4.52,5-5.47c.89-.28,1.94-.24,2.06-1.64.05-.65.92-.83,1-.13.26,1.57,1.38,1.28,2.37,1.46a8.69,8.69,0,0,1,3,.89,1.69,1.69,0,0,1,.72,2.49,1.38,1.38,0,0,1-2.21.67,11,11,0,0,0-1.46-.61c-1.61-.62-2.48-.24-2.31,1.66a9.19,9.19,0,0,1,0,2c-.21,1.59.4,2.45,1.95,3,3,1.1,5.06,3,4.94,6.51-.11,3-1.55,5.49-4.46,6.05-1.71.34-2,2.07-3.45,2.31-.32-2.33-2.43-1.44-3.71-2a10.18,10.18,0,0,1-3.16-1.71,2.17,2.17,0,0,1-.31-3.22c.93-1.19,1.85-.5,2.74.13.06,0,.11.1.18.14,1.09.64,2.24,1.84,3.45,1.27S228.53,157.71,228.91,156.66Zm.88.42c.51.95-.81,2.77,1.1,2.86a2.42,2.42,0,0,0,2.45-2.69,2.7,2.7,0,0,0-2.56-2.91C229.13,154.38,230.23,156.14,229.79,157.08Zm-.41-10.68c-.56-.85.81-2.54-1-2.69a2.41,2.41,0,0,0-2.6,2.33c-.15,1.18,1.62,3,2.74,2.79C230,148.53,228.91,147.2,229.38,146.4Z"/><path class="cls-5" d="M229.79,157.08c.44-.94-.66-2.7,1-2.74a2.7,2.7,0,0,1,2.56,2.91,2.42,2.42,0,0,1-2.45,2.69C229,159.85,230.3,158,229.79,157.08Z"/><path class="cls-5" d="M229.38,146.4c-.47.8.65,2.13-.9,2.43-1.12.22-2.89-1.61-2.74-2.79a2.41,2.41,0,0,1,2.6-2.33C230.19,143.86,228.82,145.55,229.38,146.4Z"/></g></svg>