<svg xmlns="http://www.w3.org/2000/svg" viewBox="0 0 256 256"><defs><style>.cls-1{fill:#010101;}.cls-2{fill:#9d9d9d;}.cls-3{fill:#a3c300;}.cls-4{fill:#5fa817;}.cls-5{fill:#699;}.cls-6{fill:#fde93a;}</style></defs><g id="CuentaBanco"><path class="cls-1" d="M6.78,187.19V68.34c.17-.14.42-.25.49-.42,2.33-6.22,6.9-8.67,13.41-8.64,24.22.11,48.45,0,72.67.1,2,0,2.43-.57,2.41-2.49-.1-9.55-.06-19.09,0-28.64,0-13,8.48-21.46,21.45-21.46H227.72a25.48,25.48,0,0,1,4,.2c10.62,1.73,17.48,9.86,17.48,20.78q0,100.25,0,200.5,0,.82,0,1.65A20.42,20.42,0,0,1,234,248.62c-.61.15-1.47-.32-1.85.6H111.9c-.09-.51-.54-.48-.9-.59-10.38-3.46-15.28-10.23-15.29-21.16,0-9.38-.06-18.76.05-28.13,0-2.11-.44-2.73-2.65-2.72-24.6.09-49.19,0-73.78.06a12.26,12.26,0,0,1-10.21-5C8,190.34,7.71,188.62,6.78,187.19ZM241.06,128V77.57q0-25,0-49.94C241,21,236.89,16,230.53,15.08a36.08,36.08,0,0,0-5.2-.22H117.63c-.79,0-1.58,0-2.37,0a12,12,0,0,0-11.42,11.67c-.11,10.34,0,20.67-.07,31,0,1.26.23,1.8,1.66,1.79q22.6-.06,45.21,0c1.28,0,1.63-.43,1.58-1.64-.07-2,0-4.1,0-6.15a12.22,12.22,0,0,1,12.42-12.48c5.2-.08,10.41,0,15.62,0a12.21,12.21,0,0,1,9.1,3.86c2.61,2.75,3.35,6.12,3.35,9.8q0,75.27,0,150.54a22.46,22.46,0,0,1-.13,2.59,12,12,0,0,1-12.07,11c-5.36.11-10.73.12-16.09,0a12.09,12.09,0,0,1-12.09-11.06,46.74,46.74,0,0,1-.06-7.1c.08-1.64-.4-2.12-2.08-2.11q-22.12.11-44.26,0c-1.9,0-2.15.65-2.14,2.3.07,9.78,0,19.56,0,29.35a14.71,14.71,0,0,0,.32,3.51c1.41,5.83,6.15,9.35,12.57,9.35h98.94c4,0,8.05.09,12.07-.06,8.95-.34,13.35-5,13.35-13.93ZM115.45,83.56v0q-33.26,0-66.5,0c-1.61,0-2.28.42-2.77,2A19.18,19.18,0,0,1,33.1,98.69c-1.49.48-2.09,1.06-2.09,2.75q.07,26.63-.07,53.25c0,1.57.54,2.12,1.95,2.56A19.1,19.1,0,0,1,46.12,170.3c.58,1.84,1.48,2.14,3.19,2.14q66.27,0,132.53.06c2.3,0,2.67-.75,2.66-2.79q-.09-41.65,0-83.31c0-2.2-.43-2.91-2.8-2.9C159.63,83.6,137.54,83.56,115.45,83.56ZM100.93,188.61v0H179.3c5.14,0,5,0,5.19-5.2.08-2.3-.58-2.86-2.86-2.86q-66.52.1-133.06,0c-5.94,0-8.19-1.65-10-7.33a11.84,11.84,0,0,0-8.52-8.4c-5.28-1.51-7.19-4.08-7.19-9.6V100.77c0-5.52,1.9-8.07,7.21-9.6a11.84,11.84,0,0,0,8.51-8.4c1.76-5.68,4-7.31,10-7.32l130.69,0c5.16,0,5,0,5.21-5.18.07-2.27-.53-2.87-2.84-2.87q-80.49.09-161,0c-4.56,0-5.81,1.23-5.81,5.69q0,54.93,0,109.85c0,4.38,1.28,5.68,5.59,5.68ZM172.51,59.25c1.5,0,3,.06,4.5,0,2.41-.12,5.71,1.08,7-.51s.41-4.67.39-7.1c0-2.82-1.39-4.31-4.16-4.36-5.2-.09-10.41-.1-15.61,0-2.69,0-4.12,1.63-4.22,4.39-.08,2,.06,4,0,5.91-.07,1.38.46,1.74,1.77,1.71C165.58,59.2,169.05,59.25,172.51,59.25Zm-.06,137.5c-3.46,0-6.93,0-10.4,0-1.12,0-1.77.17-1.71,1.52.1,2.12-.05,4.26.06,6.38.13,2.48,1.57,4,4,4.08,5.35.12,10.72.12,16.07,0,2.51-.06,3.8-1.6,3.87-4.16.06-2.05-.06-4.1,0-6.14.08-1.42-.53-1.71-1.8-1.68C179.23,196.8,175.84,196.75,172.45,196.75Z"/><path class="cls-2" d="M241.06,128v99.17c0,9-4.4,13.59-13.35,13.93-4,.15-8.05.06-12.07.06H116.7c-6.42,0-11.16-3.52-12.57-9.35a14.71,14.71,0,0,1-.32-3.51c0-9.79,0-19.57,0-29.35,0-1.65.24-2.31,2.14-2.3q22.13.13,44.26,0c1.68,0,2.16.47,2.08,2.11a46.74,46.74,0,0,0,.06,7.1,12.09,12.09,0,0,0,12.09,11.06c5.36.12,10.73.11,16.09,0a12,12,0,0,0,12.07-11,22.46,22.46,0,0,0,.13-2.59q0-75.27,0-150.54c0-3.68-.74-7-3.35-9.8a12.21,12.21,0,0,0-9.1-3.86c-5.21,0-10.42-.07-15.62,0a12.22,12.22,0,0,0-12.42,12.48c0,2-.06,4.11,0,6.15.05,1.21-.3,1.64-1.58,1.64q-22.6-.06-45.21,0c-1.43,0-1.66-.53-1.66-1.79,0-10.34,0-20.67.07-31a12,12,0,0,1,11.42-11.67c.79-.05,1.58,0,2.37,0h107.7a36.08,36.08,0,0,1,5.2.22C236.89,16,241,21,241.05,27.63q0,25,0,49.94Z"/><path class="cls-3" d="M115.45,83.56c22.09,0,44.18,0,66.26-.06,2.37,0,2.81.7,2.8,2.9q-.1,41.66,0,83.31c0,2-.36,2.79-2.66,2.79q-66.26-.13-132.53-.06c-1.71,0-2.61-.3-3.19-2.14a19.1,19.1,0,0,0-13.23-13.05c-1.41-.44-1.95-1-1.95-2.56q.14-26.62.07-53.25c0-1.69.6-2.27,2.09-2.75A19.18,19.18,0,0,0,46.18,85.48c.49-1.57,1.16-2,2.77-2q33.24.09,66.5,0Zm52.89,44.5a36.31,36.31,0,1,0-36.48,36.34A36.35,36.35,0,0,0,168.34,128.06ZM63.28,111.87A16.13,16.13,0,1,0,79.54,128,16.23,16.23,0,0,0,63.28,111.87Z"/><path class="cls-4" d="M100.93,188.61H20.44c-4.31,0-5.59-1.3-5.59-5.68q0-54.92,0-109.85c0-4.46,1.25-5.69,5.81-5.69q80.49,0,161,0c2.31,0,2.91.6,2.84,2.87-.17,5.18-.05,5.18-5.21,5.18l-130.69,0c-6,0-8.2,1.64-10,7.32a11.84,11.84,0,0,1-8.51,8.4c-5.31,1.53-7.21,4.08-7.21,9.6v54.45c0,5.52,1.91,8.09,7.19,9.6a11.84,11.84,0,0,1,8.52,8.4c1.76,5.68,4,7.33,10,7.33q66.54,0,133.06,0c2.28,0,2.94.56,2.86,2.86-.17,5.19-.05,5.2-5.19,5.2H100.93Z"/><path class="cls-5" d="M172.51,59.25c-3.46,0-6.93,0-10.4,0-1.31,0-1.84-.33-1.77-1.71.11-2,0-3.94,0-5.91.1-2.76,1.53-4.34,4.22-4.39,5.2-.1,10.41-.09,15.61,0,2.77,0,4.13,1.54,4.16,4.36,0,2.43.82,5.6-.39,7.1s-4.57.39-7,.51C175.51,59.31,174,59.25,172.51,59.25Z"/><path class="cls-5" d="M172.45,196.75c3.39,0,6.78.05,10.17,0,1.27,0,1.88.26,1.8,1.68-.1,2,0,4.09,0,6.14-.07,2.56-1.36,4.1-3.87,4.16-5.35.12-10.72.12-16.07,0-2.47-.05-3.91-1.6-4-4.08-.11-2.12,0-4.26-.06-6.38-.06-1.35.59-1.53,1.71-1.52C165.52,196.78,169,196.75,172.45,196.75Z"/><path class="cls-1" d="M168.34,128.06A36.31,36.31,0,1,1,132.22,91.6,36.36,36.36,0,0,1,168.34,128.06Zm-64.54,0A28.23,28.23,0,1,0,132,99.68,28.38,28.38,0,0,0,103.8,128.07Z"/><path class="cls-1" d="M63.28,111.87A16.13,16.13,0,1,1,47.15,128,16.21,16.21,0,0,1,63.28,111.87Zm0,24.19a8.06,8.06,0,1,0-8-8.22A8.07,8.07,0,0,0,63.25,136.06Z"/><path class="cls-6" d="M103.8,128.07a28.23,28.23,0,1,1,28.3,28.25A28.38,28.38,0,0,1,103.8,128.07Z"/><path class="cls-6" d="M63.25,136.06a8.06,8.06,0,1,1,8.17-8A8.12,8.12,0,0,1,63.25,136.06Z"/></g></svg>