<svg width="35" height="35" viewBox="0 0 35 35" fill="none" xmlns="http://www.w3.org/2000/svg">
<g clip-path="url(#clip0_213_67859)">
<rect x="8.19922" y="2.16968" width="24" height="28" rx="2" fill="#2FB776"/>
<path d="M8.19922 23.1697H32.1992V28.1697C32.1992 29.2742 31.3038 30.1697 30.1992 30.1697H10.1992C9.09465 30.1697 8.19922 29.2742 8.19922 28.1697V23.1697Z" fill="url(#paint0_linear_213_67859)"/>
<rect x="20.1992" y="16.1697" width="12" height="7" fill="#229C5B"/>
<rect x="20.1992" y="9.16968" width="12" height="7" fill="#27AE68"/>
<path d="M8.19922 4.16968C8.19922 3.06511 9.09465 2.16968 10.1992 2.16968H20.1992V9.16968H8.19922V4.16968Z" fill="#1D854F"/>
<rect x="8.19922" y="9.16968" width="12" height="7" fill="#197B43"/>
<rect x="8.19922" y="16.1697" width="12" height="7" fill="#1B5B38"/>
<path d="M8.19922 12.1697C8.19922 10.5128 9.54236 9.16968 11.1992 9.16968H17.1992C18.8561 9.16968 20.1992 10.5128 20.1992 12.1697V24.1697C20.1992 25.8265 18.8561 27.1697 17.1992 27.1697H8.19922V12.1697Z" fill="black" fill-opacity="0.3"/>
<rect x="0.199219" y="7.16968" width="18" height="18" rx="2" fill="url(#paint1_linear_213_67859)"/>
<path d="M13.1992 21.1697L10.3814 16.0697L13.0755 11.1697H10.8762L9.21297 14.2982L7.57723 11.1697H5.30918L8.01709 16.0697L5.19922 21.1697H7.39853L9.17173 17.8554L10.9312 21.1697H13.1992Z" fill="white"/>
</g>
<defs>
<linearGradient id="paint0_linear_213_67859" x1="8.19922" y1="26.6697" x2="32.1992" y2="26.6697" gradientUnits="userSpaceOnUse">
<stop stop-color="#163C27"/>
<stop offset="1" stop-color="#2A6043"/>
</linearGradient>
<linearGradient id="paint1_linear_213_67859" x1="0.199219" y1="16.1697" x2="18.1992" y2="16.1697" gradientUnits="userSpaceOnUse">
<stop stop-color="#185A30"/>
<stop offset="1" stop-color="#176F3D"/>
</linearGradient>
<clipPath id="clip0_213_67859">
<rect width="34" height="34" fill="white" transform="translate(0.199219 0.169678)"/>
</clipPath>
</defs>
</svg>
