<svg width="35" height="35" viewBox="0 0 35 35" fill="none" xmlns="http://www.w3.org/2000/svg">
<g id="Icon=Icon_Costos">
<path id="Vector" d="M34.0958 31.5359C33.9878 31.7008 33.8407 31.8365 33.6676 31.9309C32.4577 32.6238 31.2479 33.3167 30.0477 34.018C29.9132 34.1126 29.7528 34.1634 29.5883 34.1634C29.4239 34.1634 29.2634 34.1126 29.1289 34.018C27.9315 33.307 26.7217 32.6155 25.5077 31.9392C25.3681 31.8736 25.2518 31.7672 25.1741 31.6341C25.0964 31.5009 25.061 31.3473 25.0725 31.1936C25.0845 29.7883 25.0845 28.3831 25.0725 26.9778C25.0608 26.8242 25.0961 26.6707 25.1735 26.5376C25.251 26.4045 25.367 26.298 25.5063 26.2322C26.7286 25.5421 27.9449 24.8413 29.1552 24.1299C29.282 24.0425 29.4323 23.9957 29.5862 23.9957C29.7402 23.9957 29.8905 24.0425 30.0172 24.1299C31.2368 24.8464 32.466 25.5476 33.6939 26.2502C33.8552 26.3426 33.9927 26.4712 34.0958 26.6258V31.5359ZM29.5696 25.1457C28.5926 25.6432 27.6682 26.2281 26.6745 26.7838C27.6793 27.3381 28.5953 27.9271 29.571 28.4177C30.2293 28.1544 30.8016 27.7345 31.4197 27.4005C31.7731 27.2106 32.1127 27 32.4965 26.7796C31.6179 26.2738 30.7878 25.7929 29.9535 25.3176C29.8315 25.2538 29.7276 25.1457 29.5696 25.1457ZM30.1129 32.6945C30.1555 32.689 30.1973 32.6788 30.2376 32.664C31.1204 32.1582 31.999 31.6454 32.8846 31.1479C33.0356 31.0619 33.0315 30.9497 33.0315 30.8166C33.0315 30.1302 33.0315 29.4446 33.0315 28.76V27.7095C32.0614 28.2639 31.1606 28.7905 30.2501 29.3102C30.2009 29.3362 30.1611 29.3768 30.1363 29.4265C30.1114 29.4763 30.1027 29.5325 30.1115 29.5874C30.1142 30.6101 30.1129 31.6385 30.1129 32.7V32.6945ZM29.0471 32.7291C29.0471 31.608 29.0471 30.5603 29.0471 29.5125C29.0471 29.3518 28.9363 29.3158 28.8337 29.2562C28.0105 28.7794 27.1869 28.3041 26.3627 27.8301C26.3059 27.7969 26.2477 27.7151 26.1438 27.7899C26.1438 28.8182 26.1438 29.8576 26.1438 30.897C26.1396 30.9464 26.1507 30.9958 26.1755 31.0386C26.2002 31.0815 26.2375 31.1157 26.2823 31.1368C27.1818 31.6592 28.0798 32.1762 29.0471 32.7347V32.7291Z" fill="#030302"/>
<path id="Vector_2" d="M0 26.6175C0.11088 26.4546 0.259139 26.3206 0.432388 26.2266C1.65194 25.5337 2.8715 24.8408 4.07997 24.1229C4.20672 24.0356 4.35702 23.9888 4.51097 23.9888C4.66491 23.9888 4.81522 24.0356 4.94197 24.1229C6.16337 24.838 7.38939 25.5439 8.62004 26.2405C8.74809 26.3034 8.85469 26.4027 8.92645 26.526C8.99821 26.6493 9.03191 26.791 9.02332 26.9334C9.01501 28.3599 9.01501 29.7869 9.02332 31.2144C9.0316 31.3569 8.99762 31.4987 8.92563 31.6219C8.85363 31.7452 8.74684 31.8445 8.61865 31.9073C7.38801 32.6058 6.16199 33.3121 4.94058 34.0263C4.81383 34.1136 4.66352 34.1604 4.50958 34.1604C4.35564 34.1604 4.20533 34.1136 4.07858 34.0263C2.87981 33.3222 1.66996 32.6293 0.460105 31.9433C0.275647 31.8473 0.117638 31.7074 0 31.5359V26.6175ZM4.52898 25.154C4.14787 25.2524 3.84853 25.5046 3.51315 25.6903C2.88258 26.0396 2.26588 26.4068 1.60482 26.7865C2.55691 27.3409 3.46603 27.8606 4.37654 28.383C4.42579 28.4025 4.47761 28.4146 4.53037 28.4191C5.51294 27.934 6.42899 27.3339 7.42404 26.7907C7.22309 26.6729 7.06233 26.5759 6.8988 26.4858C6.10609 26.0465 5.34803 25.5448 4.52898 25.154ZM1.06434 27.7081C1.06434 28.8168 1.06434 29.8784 1.06434 30.9358C1.06434 31.1021 1.18768 31.1298 1.28608 31.1866C1.96376 31.5816 2.6456 31.971 3.32606 32.3618C3.53255 32.4796 3.74182 32.5947 3.98434 32.7305C3.98434 31.9821 3.98434 31.2878 3.98434 30.5921C3.98434 30.1957 4.10075 29.7246 3.92614 29.4224C3.75152 29.1203 3.28587 28.9887 2.94356 28.7891C2.3324 28.4343 1.72262 28.0865 1.06572 27.7081H1.06434ZM7.94928 27.7081C6.97918 28.2625 6.07283 28.7933 5.16371 29.3116C5.12086 29.3356 5.0866 29.3725 5.06572 29.4169C5.04485 29.4614 5.03841 29.5113 5.04729 29.5596C5.04729 30.5297 5.04729 31.4998 5.04729 32.4769C5.04729 32.664 5.08194 32.718 5.26764 32.6155C6.10655 32.1239 6.94869 31.6384 7.79406 31.1589C7.84319 31.1356 7.88437 31.0983 7.91246 31.0517C7.94055 31.0051 7.95432 30.9513 7.95205 30.897C7.94928 29.8576 7.95067 28.8196 7.95067 27.7123L7.94928 27.7081Z" fill="#030302"/>
<path id="Vector_3" d="M17.7851 0.1698C18.0262 0.308386 18.3075 0.287598 18.5681 0.349961C20.025 0.693754 21.3184 1.53041 22.2293 2.7183C23.1401 3.9062 23.6126 5.37235 23.5666 6.86857C23.5206 8.3648 22.9591 9.79918 21.977 10.9289C20.9949 12.0586 19.6525 12.8143 18.1773 13.068C14.0627 13.7817 10.3458 10.5194 10.5384 6.37567C10.6091 4.86919 11.2004 3.43394 12.2114 2.31481C13.2223 1.19569 14.5903 0.46205 16.0819 0.239093C16.1428 0.229392 16.2204 0.254337 16.2482 0.1698H17.7851ZM17.052 1.24384C16.93 1.24384 16.808 1.23552 16.6875 1.24384C12.8154 1.49884 10.4123 5.67858 12.1973 9.11135C13.2062 11.0516 14.8457 12.0508 17.0478 12.0937C17.3463 12.1196 17.6469 12.0985 17.9389 12.0314C20.9407 11.477 22.8241 8.89239 22.4416 5.86429C22.1131 3.27412 19.6504 1.17039 17.052 1.24384Z" fill="#040403"/>
<path id="Vector_4" d="M21.5671 29.0842C21.5671 29.7924 21.5602 30.5006 21.5671 31.2087C21.5779 31.3521 21.5456 31.4953 21.4742 31.6201C21.4028 31.7448 21.2957 31.8453 21.1666 31.9086C19.9286 32.6126 18.6952 33.3249 17.4664 34.0456C17.343 34.1277 17.1978 34.1709 17.0496 34.1697C16.9013 34.1684 16.7569 34.1228 16.6349 34.0387C15.4153 33.3208 14.1893 32.6145 12.9568 31.9197C12.8233 31.8547 12.7123 31.7512 12.6382 31.6224C12.564 31.4937 12.5302 31.3458 12.541 31.1977C12.5503 29.7804 12.5503 28.3636 12.541 26.9472C12.5312 26.8048 12.5642 26.6627 12.6359 26.5392C12.7075 26.4157 12.8144 26.3165 12.9429 26.2543C14.193 25.5466 15.4403 24.8287 16.6848 24.1007C16.7992 24.0235 16.9341 23.9823 17.0721 23.9823C17.2101 23.9823 17.345 24.0235 17.4594 24.1007C18.6993 24.825 19.9443 25.5429 21.1943 26.2543C21.3225 26.3194 21.4282 26.4213 21.4979 26.5471C21.5676 26.6728 21.5979 26.8165 21.5851 26.9597C21.5602 27.6679 21.5671 28.376 21.5671 29.0842ZM17.0506 28.4218C17.1712 28.4035 17.2844 28.3522 17.3777 28.2735C18.1168 27.8522 18.8559 27.4272 19.5951 26.9985C19.7018 26.9361 19.839 26.9029 19.911 26.7588C19.322 26.4192 18.7414 26.0769 18.1524 25.7471C17.7879 25.5434 17.4497 25.2897 17.0437 25.1512C16.0514 25.6279 15.1354 26.2391 14.1334 26.7823C14.7362 27.1302 15.2947 27.4614 15.8629 27.7774C16.2621 27.9963 16.6265 28.2652 17.0506 28.4218ZM16.5143 32.736C16.5143 31.6273 16.5143 30.5699 16.5143 29.5111C16.5143 29.3461 16.3923 29.3184 16.2939 29.2602C15.4707 28.7835 14.6466 28.3081 13.8216 27.8342C13.7592 27.7995 13.7024 27.7247 13.5957 27.7857C13.5957 28.7031 13.6178 29.6316 13.5846 30.5574C13.5721 30.9413 13.6982 31.1436 14.0322 31.3224C14.8637 31.7631 15.6648 32.2467 16.5171 32.736H16.5143ZM20.4986 27.7469C20.4547 27.7521 20.4114 27.7623 20.3697 27.7774C19.4883 28.2832 18.6083 28.7932 17.7228 29.2935C17.6704 29.322 17.6286 29.3667 17.6036 29.4209C17.5787 29.4751 17.5718 29.5359 17.5842 29.5942C17.5842 30.2456 17.5842 30.8983 17.5842 31.551V32.7332C18.546 32.1788 19.4537 31.655 20.3642 31.1353C20.4135 31.1095 20.4534 31.0689 20.4783 31.0191C20.5032 30.9693 20.5117 30.913 20.5028 30.8581C20.5 29.8437 20.5014 28.8154 20.5014 27.7538L20.4986 27.7469Z" fill="#030303"/>
<path id="Vector_5" d="M10.437 18.4936C12.3453 18.4936 14.2536 18.4853 16.162 18.5019C16.4682 18.5019 16.5264 18.4146 16.5167 18.1347C16.496 17.4597 16.5084 16.7834 16.5167 16.1085C16.5167 15.6928 16.7274 15.4502 17.0586 15.4572C17.3898 15.4641 17.5797 15.7039 17.5811 16.0947C17.5811 16.7876 17.5963 17.4681 17.5811 18.1541C17.5728 18.4312 17.6421 18.5005 17.922 18.5005C21.7054 18.4894 25.4888 18.4936 29.2722 18.4936C29.3831 18.4936 29.4953 18.4936 29.6048 18.4936C29.9124 18.5185 30.1092 18.6945 30.1106 18.998C30.1199 20.0827 30.1199 21.1678 30.1106 22.2534C30.1119 22.3202 30.0998 22.3866 30.075 22.4486C30.0501 22.5106 30.0131 22.5671 29.966 22.6145C29.919 22.6619 29.8629 22.6994 29.8011 22.7248C29.7393 22.7501 29.673 22.7628 29.6062 22.762C29.4713 22.7704 29.3386 22.7254 29.2367 22.6367C29.1347 22.548 29.0718 22.4228 29.0615 22.2881C29.0467 22.0671 29.043 21.8456 29.0504 21.6242C29.0504 21.0159 29.0504 20.4061 29.0504 19.7977C29.0504 19.6245 29.0241 19.5468 28.8218 19.5482C25.1493 19.5538 21.4767 19.5538 17.8042 19.5482C17.5977 19.5482 17.5769 19.63 17.5797 19.7991C17.5797 20.5641 17.5797 21.3235 17.5797 22.0913C17.5797 22.5195 17.394 22.7537 17.0586 22.7606C16.7232 22.7676 16.5154 22.5264 16.5154 22.0802C16.5154 21.3166 16.5154 20.5557 16.5154 19.788C16.5154 19.6023 16.4682 19.5496 16.2784 19.5496C12.6169 19.5552 8.95551 19.5552 5.29407 19.5496C5.07926 19.5496 5.04046 19.6161 5.04323 19.8115C5.05432 20.5544 5.04323 21.2958 5.04323 22.0372C5.0471 22.1476 5.03685 22.2579 5.01274 22.3657C4.9879 22.4932 4.91363 22.6057 4.80614 22.6787C4.69865 22.7516 4.56667 22.7791 4.439 22.7551C4.31425 22.7508 4.19632 22.6971 4.1111 22.6059C4.02588 22.5147 3.98032 22.3934 3.98443 22.2687C3.97612 21.1725 3.97196 20.0762 3.98443 18.98C3.98443 18.6682 4.19924 18.5019 4.50829 18.495C4.95315 18.4853 5.39662 18.495 5.8401 18.495L10.437 18.4936Z" fill="#040404"/>
<path id="Vector_6" d="M30.1049 32.7001C30.1049 31.6386 30.1049 30.6102 30.1049 29.5819C30.0961 29.5271 30.1048 29.4708 30.1297 29.4211C30.1545 29.3714 30.1943 29.3307 30.2435 29.3048C31.154 28.7851 32.0603 28.2598 33.0249 27.7041V28.7601C33.0249 29.4447 33.0249 30.1303 33.0249 30.8167C33.0249 30.9553 33.0249 31.062 32.878 31.148C31.9924 31.6455 31.1138 32.1582 30.231 32.6641C30.1905 32.6809 30.1482 32.693 30.1049 32.7001Z" fill="#E0A46D"/>
<path id="Vector_7" d="M29.0409 32.7346C28.0708 32.1802 27.1756 31.6578 26.2762 31.1422C26.2313 31.1212 26.194 31.0869 26.1693 31.0441C26.1445 31.0012 26.1334 30.9518 26.1376 30.9025C26.1376 29.8631 26.1376 28.8237 26.1376 27.7954C26.2415 27.7205 26.2997 27.7954 26.3565 27.8356C27.1825 28.3077 28.0062 28.783 28.8275 29.2616C28.9301 29.3212 29.0423 29.3572 29.0409 29.518C29.0382 30.5657 29.0409 31.6134 29.0409 32.7346Z" fill="#F0CFA3"/>
<path id="Vector_8" d="M29.5586 25.1458C29.7166 25.1347 29.8205 25.2483 29.9425 25.3176C30.774 25.793 31.6055 26.2739 32.4855 26.7797C32.1044 27.0001 31.7621 27.2107 31.4087 27.4006C30.7906 27.7346 30.2183 28.1545 29.56 28.4178C29.56 27.3313 29.5595 26.2406 29.5586 25.1458Z" fill="#C18757"/>
<path id="Vector_9" d="M29.5644 25.1458C29.5644 26.2369 29.5644 27.3276 29.5644 28.4178C28.5943 27.9272 27.6727 27.334 26.668 26.7838C27.663 26.2337 28.5874 25.6488 29.5644 25.1458Z" fill="#E0A56D"/>
<path id="Vector_10" d="M1.07058 27.7084C1.72747 28.0867 2.33725 28.4346 2.94564 28.7893C3.28795 28.9889 3.75498 29.1233 3.92821 29.4227C4.10145 29.722 3.98503 30.196 3.98642 30.5923C3.98642 31.2853 3.98642 31.9782 3.98642 32.7307C3.7439 32.5921 3.53463 32.4799 3.32814 32.3621C2.64768 31.9713 1.96584 31.5818 1.28816 31.1869C1.18976 31.1301 1.06503 31.1023 1.06642 30.936C1.07335 29.8786 1.07058 28.8212 1.07058 27.7084Z" fill="#EECEA3"/>
<path id="Vector_11" d="M7.95161 27.7125C7.95161 28.8212 7.95161 29.8578 7.95161 30.9C7.95388 30.9543 7.94012 31.0082 7.91202 31.0547C7.88393 31.1013 7.84275 31.1386 7.79362 31.1619C6.94918 31.6424 6.10704 32.1279 5.26721 32.6185C5.0815 32.7266 5.04685 32.6725 5.04685 32.4799C5.04685 31.5098 5.04685 30.5397 5.04685 29.5626C5.03797 29.5143 5.04441 29.4644 5.06529 29.4199C5.08616 29.3755 5.12042 29.3386 5.16327 29.3146C6.07516 28.7977 6.98151 28.2724 7.95161 27.7125Z" fill="#E1A66E"/>
<path id="Vector_12" d="M4.53492 28.4191C4.48216 28.4147 4.43034 28.4025 4.38109 28.3831C3.47058 27.8606 2.56146 27.3354 1.60938 26.7866C2.26627 26.4069 2.88714 26.0396 3.5177 25.6904C3.85308 25.5047 4.15242 25.2524 4.53354 25.1541C4.53354 26.2415 4.534 27.3298 4.53492 28.4191Z" fill="#E0A46D"/>
<path id="Vector_13" d="M4.53125 28.4191C4.53125 27.3317 4.53125 26.2433 4.53125 25.1541C5.35029 25.5449 6.10836 26.0465 6.90107 26.4859C7.0646 26.5759 7.22536 26.673 7.42631 26.7908C6.42988 27.334 5.51382 27.9341 4.53125 28.4191Z" fill="#C18757"/>
<path id="Vector_14" d="M17.0482 12.0924C14.8447 12.0495 13.2053 11.0489 12.1977 9.11007C10.4127 5.67868 12.8158 1.49755 16.6879 1.24255C16.8085 1.24255 16.9304 1.24255 17.0524 1.24255C17.0524 1.86619 17.0524 1.86619 17.683 1.89529C17.7273 1.89529 17.773 1.89529 17.8215 1.89529C19.0901 2.10193 20.2252 2.80267 20.9784 3.84416C21.7316 4.88566 22.0416 6.1831 21.8405 7.45258C21.6754 8.4866 21.1766 9.43823 20.4202 10.1623C19.6638 10.8865 18.6913 11.3433 17.6511 11.4633C17.0552 11.5436 17.0552 11.5436 17.0482 12.0924ZM17.0482 4.38014C17.2929 4.36298 17.5371 4.41991 17.7489 4.54351C17.9607 4.6671 18.1305 4.85164 18.2359 5.07306C18.423 5.41953 18.7113 5.5304 18.9968 5.38073C19.2822 5.23105 19.3501 4.92616 19.1741 4.57554C19.0436 4.29899 18.8553 4.05362 18.622 3.85592C18.3887 3.65823 18.1158 3.5128 17.8215 3.42944C17.6469 3.37677 17.5735 3.3158 17.5762 3.11901C17.5762 2.71711 17.4584 2.58684 17.0482 2.48428C17.0482 1.8454 16.9873 1.79135 16.3553 1.91885C16.2902 1.93271 16.2264 1.94934 16.1613 1.96181C15.038 2.16865 14.0248 2.76824 13.3029 3.65341C12.581 4.53859 12.1974 5.65164 12.2208 6.79362C12.2441 7.9356 12.6728 9.03206 13.4302 9.88702C14.1877 10.742 15.2245 11.2997 16.3553 11.4605C17.0177 11.5533 17.0482 11.5312 17.0482 10.8687C17.4127 10.7897 17.6164 10.5791 17.579 10.1924C17.5568 9.98316 17.694 9.97484 17.8368 9.93604C18.5574 9.74479 19.1478 9.3817 19.3709 8.62502C19.6273 7.75609 19.1769 6.89963 18.2775 6.45892C17.8798 6.26767 17.464 6.20808 17.0482 6.08474V4.38014Z" fill="#F2D644"/>
<path id="Vector_15" d="M17.0508 12.0922C17.0619 11.5379 17.0619 11.5379 17.6467 11.47C18.6862 11.3492 19.6577 10.8919 20.4133 10.1679C21.1688 9.44386 21.667 8.4927 21.832 7.4593C22.0331 6.18981 21.7231 4.89237 20.9699 3.85088C20.2167 2.80938 19.0816 2.10865 17.813 1.90201C17.77 1.89508 17.7243 1.90201 17.6744 1.90201C17.0508 1.8632 17.0508 1.8632 17.0508 1.24373C19.6507 1.16473 22.1133 3.27401 22.4418 5.86279C22.8243 8.89089 20.9409 11.4769 17.9391 12.0299C17.6481 12.0968 17.3483 12.1178 17.0508 12.0922Z" fill="#E3C323"/>
<path id="Vector_16" d="M16.5137 32.7361C15.6628 32.2469 14.8604 31.766 14.0344 31.3239C13.7004 31.1451 13.5743 30.9428 13.5868 30.5589C13.62 29.6318 13.5979 28.7032 13.5979 27.7872C13.7046 27.7262 13.7614 27.8011 13.8238 27.8357C14.6479 28.3097 15.472 28.785 16.2961 29.2617C16.3945 29.32 16.5179 29.3477 16.5165 29.5126C16.5109 30.57 16.5137 31.6288 16.5137 32.7361Z" fill="#EECEA3"/>
<path id="Vector_17" d="M20.4988 27.7538C20.4988 28.8154 20.4988 29.8437 20.4988 30.872C20.5078 30.9269 20.4992 30.9832 20.4743 31.0329C20.4495 31.0827 20.4095 31.1234 20.3602 31.1491C19.4497 31.6688 18.542 32.1927 17.5802 32.747V31.5649C17.5802 30.9122 17.5802 30.2594 17.5802 29.6081C17.5679 29.5497 17.5747 29.4889 17.5997 29.4347C17.6246 29.3805 17.6664 29.3359 17.7188 29.3073C18.6044 28.807 19.4844 28.297 20.3658 27.7912C20.4085 27.7735 20.4532 27.7609 20.4988 27.7538Z" fill="#E0A46D"/>
<path id="Vector_18" d="M17.0508 25.1458C17.4499 25.2843 17.7881 25.538 18.1595 25.7417C18.7485 26.0715 19.3291 26.4138 19.9181 26.7533C19.8461 26.8919 19.7089 26.9307 19.6021 26.9931C18.863 27.4227 18.1239 27.8477 17.3848 28.2681C17.2915 28.3468 17.1783 28.3981 17.0577 28.4164C17.0531 27.3308 17.0508 26.2406 17.0508 25.1458Z" fill="#C18757"/>
<path id="Vector_19" d="M17.042 25.1458C17.042 26.2369 17.042 27.3271 17.042 28.4164C16.6151 28.2598 16.2507 27.9909 15.8585 27.772C15.2903 27.456 14.7318 27.1248 14.1289 26.7769C15.135 26.2392 16.0511 25.628 17.042 25.1458Z" fill="#E0A56D"/>
<path id="Vector_20" d="M17.0449 10.8715C17.0449 11.5339 17.0199 11.5561 16.352 11.4632C15.2208 11.3037 14.1833 10.7471 13.4249 9.8929C12.6664 9.03868 12.2365 7.94256 12.212 6.8005C12.1876 5.65844 12.5701 4.54489 13.2912 3.65895C14.0123 2.773 15.025 2.17241 16.1482 1.96456C16.2134 1.95209 16.2771 1.93546 16.3423 1.9216C16.977 1.7941 17.0421 1.84815 17.0352 2.48703C16.7386 2.5286 16.4975 2.68521 16.5197 2.9901C16.5446 3.33102 16.3728 3.40585 16.1122 3.49732C15.7473 3.6206 15.4294 3.85357 15.2019 4.16439C14.9744 4.47521 14.8485 4.8487 14.8414 5.2338C14.8414 6.00988 15.2571 6.58362 16.0526 6.93009C16.37 7.06868 16.7137 7.10609 17.038 7.21696C17.038 7.79348 17.038 8.37046 17.038 8.9479C16.345 8.96453 15.957 8.71646 15.702 8.09144C15.5717 7.77269 15.3084 7.63688 15.0174 7.73804C14.7264 7.83921 14.6016 8.1053 14.6973 8.43097C14.9398 9.23339 15.5066 9.70319 16.291 9.9277C16.4448 9.97205 16.5224 10.0192 16.5072 10.1882C16.4781 10.5777 16.679 10.7897 17.0449 10.8715Z" fill="#F7E796"/>
<path id="Vector_21" d="M17.0454 10.8713C16.6795 10.7923 16.4786 10.5803 16.5146 10.1923C16.5299 10.0232 16.4523 9.97608 16.2984 9.93173C15.514 9.70722 14.9472 9.2388 14.7047 8.43501C14.6063 8.10517 14.7338 7.83909 15.0248 7.74208C15.3159 7.64507 15.5792 7.77672 15.7094 8.09547C15.9644 8.72049 16.3497 8.96856 17.0454 8.95193C17.3427 8.98614 17.6433 8.93063 17.9088 8.79256C18.1583 8.67476 18.3578 8.49875 18.3647 8.19941C18.3705 8.0606 18.3373 7.92296 18.269 7.80199C18.2007 7.68103 18.0999 7.58156 17.9781 7.5148C17.6977 7.33707 17.3768 7.23358 17.0454 7.21406C16.7211 7.1032 16.3774 7.06439 16.0601 6.92719C15.2604 6.58073 14.8447 6.00698 14.8488 5.2309C14.856 4.8458 14.9819 4.47231 15.2094 4.16149C15.4368 3.85067 15.7548 3.6177 16.1197 3.49442C16.3802 3.3988 16.552 3.32812 16.5271 2.9872C16.5049 2.68231 16.7461 2.52571 17.0426 2.48413C17.4584 2.58668 17.5762 2.71695 17.5706 3.11885C17.5706 3.31565 17.6413 3.37662 17.8159 3.42929C18.1102 3.51265 18.3831 3.65807 18.6164 3.85577C18.8498 4.05346 19.038 4.29884 19.1685 4.57539C19.3445 4.92601 19.2725 5.23367 18.9912 5.38057C18.7098 5.52748 18.4174 5.41938 18.2303 5.07291C18.1249 4.85149 17.9551 4.66695 17.7433 4.54336C17.5315 4.41976 17.2873 4.36283 17.0426 4.37998C16.7884 4.36918 16.5369 4.4364 16.322 4.57262C16.1949 4.64085 16.0896 4.74343 16.0181 4.86865C15.9465 4.99387 15.9116 5.13668 15.9173 5.28079C15.9256 5.594 16.1169 5.7797 16.383 5.90304C16.5868 6.0139 16.8135 6.07604 17.0454 6.08459C17.4612 6.20793 17.8769 6.26752 18.2761 6.45877C19.1755 6.89947 19.6259 7.75594 19.3695 8.62487C19.1464 9.3857 18.556 9.74464 17.8353 9.93589C17.6968 9.97469 17.5582 9.98301 17.5776 10.1923C17.6136 10.5789 17.4099 10.7896 17.0454 10.8713Z" fill="#040402"/>
<path id="Vector_22" d="M17.0478 6.08464C16.8169 6.07567 16.5911 6.01354 16.3881 5.90309C16.122 5.77975 15.9308 5.59404 15.9225 5.28084C15.9168 5.13673 15.9517 4.99391 16.0232 4.86869C16.0948 4.74347 16.2001 4.6409 16.3272 4.57267C16.5421 4.43644 16.7936 4.36923 17.0478 4.38003V6.08464Z" fill="#F7E796"/>
<path id="Vector_23" d="M17.0508 7.21423C17.3812 7.23231 17.7016 7.33387 17.9821 7.50942C18.1039 7.57618 18.2047 7.67565 18.273 7.79662C18.3413 7.91758 18.3745 8.05523 18.3687 8.19403C18.3618 8.49338 18.1622 8.66938 17.9128 8.78718C17.6476 8.92451 17.3474 8.97952 17.0508 8.94517C17.0508 8.36865 17.0508 7.79167 17.0508 7.21423Z" fill="#F2D644"/>
</g>
</svg>
