<svg width="34" height="33" viewBox="0 0 34 33" fill="none" xmlns="http://www.w3.org/2000/svg">
<g id="Metas">
<path id="Vector" d="M20.5577 5.96587C20.8233 5.65774 20.9561 5.62853 21.316 5.80782C22.3771 6.34397 23.3601 7.02225 24.2379 7.82392C24.4132 7.98462 24.4849 7.94743 24.6629 7.81595C25.1941 7.42415 25.2818 6.9872 25.0427 6.37095C24.7904 5.71884 24.6589 5.02157 24.4677 4.34423C24.3809 4.07789 24.373 3.79214 24.4448 3.5214C24.5167 3.25066 24.6653 3.00646 24.8727 2.81821C25.647 2.0479 26.428 1.27626 27.189 0.497979C27.4161 0.288202 27.6818 0.124475 27.9712 0.0158691H28.5397C29.2582 0.232354 29.6022 0.746338 29.7443 1.45954C29.8306 1.9111 29.9767 2.35071 30.0856 2.79696C30.094 2.86384 30.1249 2.92588 30.1731 2.97293C30.2214 3.01998 30.2842 3.04925 30.3512 3.05595C30.9104 3.18876 31.4655 3.34149 32.0207 3.48892C32.273 3.54563 32.5052 3.66989 32.6923 3.84839C32.8795 4.02689 33.0146 4.25291 33.0832 4.50228C33.0978 4.54876 33.0832 4.61118 33.1549 4.62314V5.19024C32.8999 5.7972 32.3979 6.20095 31.953 6.65118C31.4217 7.18243 30.8798 7.71368 30.3486 8.25821C30.1572 8.46986 29.9085 8.62142 29.6327 8.6945C29.3569 8.76759 29.0658 8.75905 28.7947 8.66993C27.9168 8.42556 27.0349 8.19314 26.1584 7.94079C26.0924 7.91169 26.0187 7.90529 25.9488 7.9226C25.8788 7.9399 25.8166 7.97994 25.7719 8.03642C25.5766 8.25556 25.2406 8.43485 25.1995 8.67923C25.1623 8.89571 25.5195 9.10157 25.6962 9.31673C28.0089 12.1501 29.0829 15.3894 28.9182 19.0346C28.638 25.2941 24.0241 30.7049 17.8682 32.0064C15.0372 32.6304 12.0818 32.3517 9.41734 31.2095C9.17297 31.1073 9.01094 31.1046 8.78515 31.2852C7.89719 31.9802 6.79621 32.3466 5.66892 32.3224C4.54162 32.2982 3.45739 31.8848 2.60008 31.1524C2.25211 30.8509 2.22687 30.7195 2.44469 30.3157C2.7289 30.1537 2.96531 30.2121 3.215 30.4233C3.63918 30.7923 4.13955 31.0631 4.68042 31.2164C5.2213 31.3698 5.78935 31.4019 6.34406 31.3105C7.32057 31.1669 8.20828 30.6639 8.83328 29.9C9.45827 29.1361 9.7755 28.1663 9.72281 27.1807C9.67013 26.1951 9.25132 25.2647 8.54845 24.5718C7.84557 23.8788 6.90929 23.4733 5.92304 23.4347C3.2482 23.3205 1.23078 25.8851 1.95992 28.4709C2.05156 28.7937 2.06219 29.0646 1.77398 29.2838C1.2932 29.3183 1.18297 29.2466 1.06078 28.787C0.618513 27.1561 0.912029 25.6673 1.95594 24.3365C2.01598 24.2758 2.05447 24.1971 2.0655 24.1124C2.07654 24.0277 2.05951 23.9417 2.01703 23.8677C-1.4361 15.9175 3.12336 6.72688 11.5463 4.66032C13.9674 4.06147 16.5046 4.12109 18.8948 4.83298C19.3198 4.95649 19.3995 5.06673 19.3942 5.49704C19.1286 5.84103 19.0555 5.85962 18.5827 5.72681C15.2744 4.79712 12.055 5.04149 9.00164 6.62063C5.13015 8.62079 2.78734 11.8083 1.99711 16.0928C1.55086 18.5259 1.84039 20.9046 2.76344 23.2049C2.84711 23.4121 2.9082 23.4188 3.08351 23.3006C3.67337 22.8917 4.35485 22.6344 5.06773 22.5515C5.34929 22.5196 5.33336 22.4333 5.25101 22.2208C3.7582 18.2125 4.33461 14.5177 7.17812 11.3302C9.66969 8.52384 12.8811 7.46267 16.5998 8.01384C18.5283 8.30071 20.219 9.13212 21.6945 10.4045C21.8632 10.5506 21.9455 10.5373 22.093 10.3859C22.5888 9.87056 23.0939 9.36454 23.6084 8.86782C23.7598 8.7204 23.7545 8.64603 23.5951 8.50657C22.7841 7.78803 21.8875 7.17243 20.9255 6.67376C20.6214 6.51571 20.4514 6.31782 20.5577 5.96587ZM5.42234 18.6933C5.42234 19.6881 5.71984 21.0281 6.31086 22.3058C6.34064 22.3812 6.39036 22.4471 6.45468 22.4965C6.51901 22.5458 6.59554 22.5768 6.67609 22.586C8.73867 23.0044 10.2248 24.5038 10.6087 26.5558C10.614 26.6164 10.6358 26.6743 10.6716 26.7235C10.7074 26.7726 10.7559 26.811 10.8119 26.8347C11.767 27.3009 12.7972 27.5941 13.8546 27.7006C16.6083 27.9663 19.0383 27.1977 21.1447 25.395C25.0308 22.0521 25.4558 15.9653 22.0744 12.1138C21.9323 11.9504 21.8579 11.9278 21.6985 12.0952C21.1978 12.6184 20.6825 13.1311 20.1605 13.6331C20.0091 13.7779 20.0277 13.8589 20.1512 14.009C21.3306 15.4699 21.8433 17.1487 21.6387 19.0054C21.5444 19.9063 21.2704 20.7791 20.8328 21.5722C20.3953 22.3652 19.8031 23.0625 19.0913 23.6227C18.3795 24.1829 17.5626 24.5947 16.6889 24.8336C15.8152 25.0726 14.9025 25.1339 14.0047 25.0138C10.1186 24.537 7.40258 20.7014 8.24593 16.891C8.48385 15.7553 9.00924 14.6995 9.77183 13.8249C10.5344 12.9502 11.5087 12.2859 12.6015 11.8954C13.6942 11.5049 14.8689 11.4014 16.0131 11.5948C17.1573 11.7881 18.2328 12.2718 19.1366 12.9996C19.2893 13.1205 19.361 13.1072 19.4885 12.977C19.9866 12.4644 20.4899 11.9557 21.0066 11.4617C21.1805 11.2943 21.1991 11.2066 20.9973 11.0406C18.7753 9.22243 16.2359 8.49063 13.4123 8.9329C8.79047 9.65407 5.4157 13.6464 5.42234 18.6933ZM27.9726 18.162C27.9795 17.6586 27.9462 17.1554 27.873 16.6573C27.6633 14.9908 27.1295 13.3814 26.3018 11.9199C25.8221 11.0833 25.2669 10.2924 24.643 9.55712C24.5009 9.38978 24.4225 9.36853 24.2618 9.53587C23.797 10.0233 23.3255 10.5041 22.8327 10.9623C22.6083 11.1708 22.6056 11.2877 22.8062 11.532C25.2512 14.5137 25.9724 17.8831 24.7758 21.5448C22.8832 27.3354 16.5959 30.1949 10.9394 27.9198C10.7229 27.8334 10.6552 27.8667 10.6286 28.0977C10.5492 28.8129 10.2941 29.4972 9.88617 30.0899C9.74273 30.3011 9.80648 30.3556 10.0044 30.4339C12.3954 31.4101 15.0249 31.6443 17.5508 31.1059C23.6628 29.8044 27.9712 24.4799 27.9726 18.162ZM20.725 18.2829C20.7303 16.9789 20.2956 15.7113 19.4912 14.685C19.3663 14.5217 19.2893 14.5004 19.1352 14.6598C18.6704 15.1459 18.1923 15.62 17.7088 16.0875C17.576 16.2203 17.576 16.2934 17.673 16.4488C17.9379 16.8364 18.1153 17.277 18.1931 17.74C18.2708 18.203 18.247 18.6774 18.1232 19.1302C17.9056 19.9574 17.3793 20.6698 16.6524 21.1206C15.9256 21.5715 15.0536 21.7266 14.2159 21.5541C12.4322 21.1556 11.2807 19.4649 11.6061 17.7158C11.6987 17.1781 11.9221 16.6713 12.2567 16.2403C12.5913 15.8093 13.0267 15.4672 13.5247 15.2441C14.0227 15.021 14.5679 14.9239 15.1122 14.9612C15.6566 14.9985 16.1834 15.1691 16.6463 15.458C16.8296 15.5695 16.9252 15.5523 17.066 15.4062C17.5255 14.9289 17.9939 14.461 18.4712 14.0024C18.6252 13.8549 18.6199 13.7819 18.4486 13.6557C17.0262 12.6078 15.4523 12.2293 13.7152 12.5733C12.6309 12.7941 11.6317 13.3182 10.8336 14.0846C10.0355 14.851 9.47141 15.8282 9.20692 16.9026C8.94243 17.9771 8.98841 19.1045 9.33951 20.1538C9.69061 21.2031 10.3324 22.1312 11.1902 22.83C12.0481 23.5289 13.0867 23.9699 14.1853 24.1017C15.2839 24.2334 16.3974 24.0506 17.3961 23.5744C18.3949 23.0983 19.238 22.3483 19.8273 21.4118C20.4166 20.4753 20.7279 19.3907 20.725 18.2842V18.2829ZM16.1855 16.2748C15.9175 16.0991 15.617 15.9791 15.3017 15.9219C14.9865 15.8647 14.6629 15.8715 14.3504 15.9418C14.0378 16.0121 13.7425 16.1445 13.4821 16.3312C13.2217 16.5178 13.0015 16.7549 12.8345 17.0284C12.6676 17.3019 12.5573 17.6061 12.5102 17.923C12.4631 18.2399 12.4803 18.5631 12.5606 18.8732C12.6409 19.1834 12.7827 19.4743 12.9776 19.7286C13.1725 19.9828 13.4166 20.1953 13.6952 20.3534C14.1418 20.613 14.6603 20.7209 15.1733 20.6611C15.6863 20.6013 16.1662 20.377 16.541 20.0217C16.9159 19.6665 17.1656 19.1993 17.2528 18.6903C17.34 18.1812 17.2601 17.6576 17.0248 17.1978C16.9212 16.9933 16.8562 16.9322 16.6636 17.1301C16.1788 17.6414 15.6715 18.1302 15.1721 18.6269C15.1097 18.6989 15.0268 18.7502 14.9345 18.7739C14.8422 18.7977 14.7449 18.7927 14.6555 18.7597C14.5748 18.7345 14.5029 18.6869 14.4481 18.6225C14.3934 18.5581 14.358 18.4795 14.346 18.3958C14.3062 18.1859 14.4204 18.0372 14.5598 17.8991C15.0951 17.3652 15.629 16.8339 16.1855 16.2748ZM26.0202 6.38423C26.0594 6.36413 26.0968 6.34058 26.1318 6.31384C27.1058 5.33988 28.0824 4.36813 29.0616 3.3986C29.1179 3.3441 29.1569 3.2742 29.1737 3.19766C29.1904 3.12113 29.1843 3.04134 29.1559 2.96829C29.0231 2.46095 28.8903 1.95228 28.7575 1.44759C28.6048 0.901728 28.2342 0.802119 27.8358 1.1979C27.0987 1.93103 26.3748 2.6761 25.6245 3.40126C25.5129 3.49717 25.4334 3.62501 25.3968 3.76753C25.3603 3.91004 25.3683 4.06035 25.4199 4.19813C25.5368 4.59657 25.6417 4.98571 25.7506 5.38017C25.837 5.70954 25.9259 6.03892 26.0202 6.38423ZM32.1389 4.89009C32.152 4.78588 32.1252 4.68057 32.0639 4.59532C32.0025 4.51008 31.9112 4.45121 31.8082 4.43056C31.2212 4.27517 30.6341 4.11712 30.0498 3.94978C29.9947 3.93466 29.9362 3.93716 29.8827 3.95692C29.8291 3.97669 29.783 4.01274 29.7509 4.06001C28.8 5.01095 27.8517 5.96454 26.8955 6.91017C26.7348 7.06954 26.7627 7.13063 26.9659 7.18509C27.6547 7.36217 28.3427 7.54767 29.0298 7.74157C29.1396 7.77818 29.2578 7.78158 29.3695 7.75134C29.4813 7.7211 29.5816 7.65857 29.658 7.57157C30.4265 6.79506 31.1999 6.02209 31.9782 5.25267C32.0319 5.2094 32.0746 5.15393 32.1025 5.09086C32.1305 5.02779 32.1429 4.95896 32.1389 4.89009Z" fill="#040303"/>
<path id="Vector_2" d="M20.5582 5.96592C20.4533 6.31787 20.6219 6.51576 20.9208 6.6685C21.8827 7.16717 22.7793 7.78277 23.5903 8.50131C23.7497 8.63412 23.755 8.71514 23.6036 8.86256C23.09 9.35928 22.5849 9.86529 22.0882 10.3806C21.9421 10.532 21.8598 10.5453 21.6898 10.3992C20.2142 9.13217 18.5235 8.30076 16.5951 8.00857C12.8763 7.4574 9.6689 8.51857 7.17734 11.3183C4.33382 14.5137 3.75742 18.2072 5.25023 22.2155C5.32859 22.428 5.34851 22.5144 5.06695 22.5462C4.35406 22.6292 3.67258 22.8864 3.08273 23.2953C2.90742 23.4135 2.84632 23.4069 2.76265 23.1997C1.83296 20.8994 1.55007 18.5207 1.99632 16.0876C2.78788 11.8083 5.1307 8.62084 8.99687 6.61936C12.0516 5.04021 15.2696 4.79584 18.578 5.72553C19.0508 5.85834 19.1278 5.83975 19.3894 5.49576C19.7895 5.62495 20.1801 5.78205 20.5582 5.96592Z" fill="#EC6060"/>
<path id="Vector_3" d="M1.77344 29.2865C2.06164 29.0673 2.05102 28.7964 1.95938 28.4736C1.23023 25.8878 3.24766 23.3232 5.9225 23.4374C6.90618 23.4794 7.83894 23.8863 8.53887 24.5788C9.23879 25.2713 9.65569 26.1996 9.70827 27.1828C9.76084 28.1659 9.44532 29.1335 8.82324 29.8966C8.20115 30.6598 7.3171 31.1638 6.34352 31.3105C5.78705 31.4028 5.21706 31.3708 4.67444 31.2167C4.13183 31.0626 3.63006 30.7903 3.20516 30.4193C2.95547 30.2082 2.71906 30.1537 2.43484 30.3118C2.14392 30.021 1.91843 29.6714 1.77344 29.2865ZM3.93297 26.0086C3.7051 26.0234 3.48562 26.1003 3.29833 26.231C3.11104 26.3616 2.96307 26.541 2.87047 26.7497C2.74785 26.9736 2.69735 27.2299 2.72587 27.4835C2.7544 27.7372 2.86056 27.9758 3.02984 28.1668C3.38445 28.5945 3.76562 29.0022 4.14945 29.4047C4.79492 30.082 5.73125 30.086 6.37805 29.4047C7.0793 28.6653 7.77036 27.9163 8.45125 27.1575C8.57479 27.0314 8.67172 26.8818 8.73625 26.7175C8.80079 26.5532 8.83162 26.3776 8.82691 26.2011C8.8222 26.0247 8.78205 25.851 8.70885 25.6904C8.63564 25.5298 8.53087 25.3855 8.40078 25.2662C7.85094 24.7522 7.03813 24.7947 6.48828 25.3725C6.13367 25.7457 5.78039 26.1215 5.44172 26.508C5.30891 26.6568 5.23055 26.6647 5.10305 26.508C4.82945 26.1853 4.48281 26.0073 3.93297 26.0086Z" fill="#56BB90"/>
<path id="Vector_4" d="M5.42191 18.6933C5.41527 13.6465 8.79004 9.66208 13.4079 8.9356C16.2355 8.49333 18.7749 9.22513 20.9982 11.0433C21.2 11.2094 21.1814 11.297 21.0075 11.4644C20.4908 11.9584 19.9875 12.4671 19.4894 12.9797C19.3566 13.1126 19.2902 13.1232 19.1375 13.0023C18.2337 12.2745 17.1582 11.7908 16.014 11.5975C14.8698 11.4041 13.6951 11.5076 12.6024 11.8981C11.5096 12.2886 10.5353 12.9529 9.77273 13.8276C9.01014 14.7022 8.48475 15.758 8.24684 16.8937C7.40348 20.7041 10.1195 24.5331 14.0082 25.0139C14.9065 25.1345 15.8199 25.0735 16.6942 24.8347C17.5686 24.5958 18.3861 24.184 19.0983 23.6234C19.8106 23.0629 20.4031 22.3651 20.8407 21.5714C21.2784 20.7777 21.5523 19.9043 21.6463 19.0028C21.8508 17.1434 21.3382 15.466 20.1588 14.0064C20.0366 13.8563 20.0167 13.7753 20.1681 13.6305C20.69 13.1285 21.2054 12.6158 21.7061 12.0926C21.8654 11.9252 21.9398 11.9478 22.0819 12.1111C25.4607 15.9627 25.0357 22.0522 21.1522 25.3924C19.0511 27.1995 16.6211 27.9681 13.8621 27.698C12.8047 27.5915 11.7745 27.2983 10.8194 26.8321C10.7634 26.8084 10.7149 26.77 10.6791 26.7208C10.6433 26.6717 10.6216 26.6137 10.6162 26.5532C10.2311 24.5012 8.74621 23.0018 6.68363 22.5808C6.60308 22.5715 6.52655 22.5406 6.46222 22.4912C6.3979 22.4418 6.34818 22.3759 6.3184 22.3005C5.71941 21.0255 5.41793 19.6854 5.42191 18.6933Z" fill="#F7F5F6"/>
<path id="Vector_5" d="M27.9707 18.162C27.9707 24.4799 23.6609 29.8043 17.5489 31.0966C15.023 31.6349 12.3935 31.4008 10.0025 30.4246C9.80458 30.3462 9.73684 30.2918 9.88427 30.0806C10.2922 29.4879 10.5473 28.8035 10.6267 28.0884C10.6533 27.8573 10.721 27.8228 10.9375 27.9104C16.594 30.1855 22.8813 27.326 24.7739 21.5354C25.9692 17.8738 25.2493 14.5043 22.8043 11.5227C22.6037 11.2783 22.6064 11.1614 22.8308 10.9529C23.3236 10.4947 23.795 10.0139 24.2599 9.52652C24.4206 9.35918 24.499 9.38043 24.6411 9.54777C25.2655 10.286 25.8207 11.08 26.2999 11.9198C27.128 13.3821 27.6617 14.9925 27.8711 16.6599C27.9441 17.1571 27.9774 17.6594 27.9707 18.162Z" fill="#EC6060"/>
<path id="Vector_6" d="M20.7265 18.2829C20.7294 19.3893 20.4181 20.4739 19.8288 21.4104C19.2395 22.3469 18.3965 23.0969 17.3977 23.5731C16.3989 24.0492 15.2855 24.2321 14.1869 24.1003C13.0882 23.9685 12.0496 23.5275 11.1918 22.8287C10.3339 22.1298 9.69216 21.2017 9.34106 20.1524C8.98996 19.1031 8.94398 17.9757 9.20847 16.9013C9.47296 15.8269 10.037 14.8496 10.8351 14.0832C11.6332 13.3168 12.6325 12.7927 13.7167 12.5719C15.4539 12.2279 17.0277 12.6065 18.4501 13.6543C18.6215 13.7872 18.6268 13.8536 18.4727 14.001C17.9946 14.4596 17.5262 14.9276 17.0676 15.4048C16.9268 15.5509 16.8312 15.5682 16.6479 15.4566C16.185 15.1677 15.6581 14.9971 15.1138 14.9598C14.5694 14.9225 14.0242 15.0196 13.5262 15.2427C13.0283 15.4658 12.5928 15.8079 12.2582 16.2389C11.9237 16.67 11.7002 17.1767 11.6076 17.7144C11.2822 19.4636 12.4337 21.1582 14.2174 21.5527C15.0551 21.7253 15.9271 21.5701 16.654 21.1193C17.3808 20.6684 17.9072 19.9561 18.1247 19.1289C18.2485 18.676 18.2723 18.2016 18.1946 17.7386C18.1169 17.2756 17.9394 16.835 17.6745 16.4474C17.5722 16.292 17.5789 16.2136 17.7104 16.0861C18.1938 15.6186 18.6719 15.1445 19.1368 14.6584C19.2908 14.499 19.3679 14.5256 19.4927 14.6836C20.2974 15.7103 20.7321 16.9784 20.7265 18.2829Z" fill="#EC6060"/>
<path id="Vector_7" d="M16.1863 16.2748C15.6298 16.8326 15.0959 17.3678 14.5607 17.9004C14.4279 18.0332 14.307 18.1873 14.3469 18.3971C14.3588 18.4808 14.3942 18.5594 14.449 18.6238C14.5038 18.6882 14.5756 18.7358 14.6563 18.761C14.7457 18.794 14.8431 18.799 14.9354 18.7752C15.0277 18.7515 15.1106 18.7002 15.173 18.6282C15.6723 18.1315 16.1797 17.6427 16.6644 17.1314C16.857 16.9282 16.9221 16.9986 17.0257 17.1991C17.2609 17.6579 17.3416 18.1805 17.2556 18.6888C17.1695 19.1972 16.9215 19.6641 16.5484 20.0199C16.1753 20.3758 15.6971 20.6014 15.1853 20.6633C14.6734 20.7252 14.1553 20.6199 13.7082 20.3632C13.261 20.1065 12.9089 19.7121 12.7042 19.2389C12.4996 18.7657 12.4534 18.239 12.5726 17.7373C12.6917 17.2357 12.9699 16.7861 13.3655 16.4555C13.7612 16.1249 14.2531 15.931 14.7679 15.9029C15.2682 15.8735 15.7648 16.0037 16.1863 16.2748Z" fill="#F7F5F6"/>
<path id="Vector_8" d="M26.0184 6.38428C25.9241 6.03897 25.8352 5.7096 25.7435 5.38155C25.6346 4.98311 25.5297 4.58467 25.4128 4.19952C25.3612 4.06173 25.3532 3.91142 25.3897 3.76891C25.4263 3.6264 25.5058 3.49855 25.6174 3.40264C26.3624 2.67749 27.0916 1.93241 27.8287 1.19928C28.2271 0.800846 28.5977 0.903111 28.7504 1.44897C28.8925 1.95366 29.0227 2.46233 29.1488 2.96967C29.1772 3.04273 29.1833 3.12251 29.1666 3.19905C29.1498 3.27559 29.1108 3.34548 29.0545 3.39999C28.0744 4.36863 27.0978 5.34259 26.1247 6.32186C26.0911 6.34559 26.0555 6.36647 26.0184 6.38428Z" fill="#595959"/>
<path id="Vector_9" d="M32.1375 4.89012C32.141 4.95932 32.1279 5.02837 32.0993 5.09146C32.0706 5.15456 32.0272 5.20985 31.9728 5.25269C31.1971 6.02301 30.4264 6.79597 29.6605 7.5716C29.5841 7.65859 29.4838 7.72113 29.372 7.75137C29.2603 7.7816 29.1421 7.77821 29.0323 7.7416C28.3452 7.55124 27.6572 7.36574 26.9684 7.18512C26.7612 7.13066 26.7373 7.06957 26.898 6.91019C27.8542 5.96457 28.8025 5.01098 29.7535 4.06004C29.7857 4.01301 29.8319 3.97723 29.8854 3.9577C29.939 3.93817 29.9973 3.93588 30.0523 3.95113C30.6367 4.11848 31.2237 4.27652 31.8107 4.43191C31.9127 4.45342 32.0029 4.51246 32.0634 4.59732C32.1239 4.68219 32.1504 4.78669 32.1375 4.89012Z" fill="#595959"/>
<path id="Vector_10" d="M3.93501 26.0085C4.48486 26.0085 4.8315 26.1852 5.09978 26.5079C5.23259 26.6633 5.30697 26.6553 5.43845 26.5079C5.77712 26.1214 6.13041 25.7456 6.48502 25.3724C7.03486 24.7946 7.84767 24.7521 8.39751 25.2661C8.52761 25.3854 8.63237 25.5297 8.70558 25.6903C8.77879 25.8509 8.81894 26.0246 8.82365 26.2011C8.82836 26.3775 8.79752 26.5531 8.73299 26.7174C8.66845 26.8817 8.57153 27.0313 8.44798 27.1574C7.76533 27.9135 7.07426 28.6621 6.37478 29.4032C5.72798 30.0859 4.79166 30.0819 4.14619 29.4032C3.76236 29.0048 3.38119 28.5931 3.02658 28.1654C2.85729 27.9744 2.75113 27.7357 2.72261 27.4821C2.69408 27.2284 2.74458 26.9722 2.8672 26.7483C2.96041 26.5391 3.10928 26.3594 3.29757 26.229C3.48587 26.0985 3.70636 26.0223 3.93501 26.0085ZM7.86892 26.229C7.87138 26.158 7.8521 26.0879 7.81365 26.028C7.77521 25.9682 7.71943 25.9216 7.65377 25.8943C7.57146 25.857 7.47891 25.8488 7.3913 25.871C7.3037 25.8932 7.22625 25.9445 7.17166 26.0165C6.75462 26.4747 6.33228 26.9289 5.91259 27.3845C5.42252 27.9157 5.12369 27.9157 4.64025 27.3978L4.38259 27.1215C4.20861 26.9329 4.00408 26.8745 3.80353 27.0578C3.60298 27.241 3.63884 27.4482 3.81416 27.6395C4.14619 28.0047 4.47822 28.3739 4.81291 28.7325C5.10244 29.0393 5.41986 29.0407 5.71072 28.7325C6.38541 28.0114 7.0508 27.2809 7.7215 26.5557C7.81138 26.4702 7.86428 26.353 7.86892 26.229Z" fill="#040303"/>
<path id="Vector_11" d="M7.869 26.2291C7.86335 26.3517 7.81052 26.4673 7.72158 26.5518C7.05752 27.277 6.38549 28.0128 5.7108 28.7286C5.41994 29.0407 5.10252 29.0394 4.81299 28.7286C4.47432 28.37 4.14893 28.0008 3.81424 27.6356C3.63893 27.4443 3.60439 27.2372 3.80361 27.0539C4.00283 26.8706 4.20869 26.929 4.38268 27.1176L4.64033 27.3939C5.12377 27.9158 5.4226 27.9118 5.91268 27.3806C6.33236 26.925 6.75471 26.4708 7.17174 26.0126C7.22633 25.9406 7.30378 25.8893 7.39139 25.8671C7.47899 25.8449 7.57154 25.8531 7.65385 25.8904C7.72017 25.9179 7.77641 25.9652 7.81491 26.0258C7.8534 26.0864 7.87229 26.1574 7.869 26.2291Z" fill="#F7F5F6"/>
</g>
</svg>
