<svg width="34" height="34" viewBox="0 0 34 34" fill="none" xmlns="http://www.w3.org/2000/svg">
<g id="Presupuesto">
<path id="Vector" d="M0.78125 28.3564C0.902109 28.2714 0.863594 28.1293 0.886172 28.0164C1.25008 26.1278 2.61273 24.7997 4.50266 24.5022C4.63547 24.481 4.70852 24.4597 4.68727 24.2937C4.65713 24.074 4.67424 23.8504 4.73746 23.6379C4.80067 23.4253 4.90853 23.2287 5.05383 23.0612C5.15344 22.9417 5.12687 22.8846 5.04453 22.7757C4.61023 22.2032 4.53719 21.5803 4.86391 20.9389C5.19062 20.2974 5.72055 20.0092 6.42977 20.0092C7.01547 20.0092 7.01547 20.0092 7.01547 19.4128C7.01547 14.327 7.01547 9.24162 7.01547 4.15667C7.01547 2.84448 7.56398 1.86964 8.74203 1.27464C9.12064 1.08606 9.53829 0.989152 9.96125 0.99175C13.6641 0.99175 17.3669 0.99175 21.0697 0.99175C21.937 0.99175 22.6634 1.35433 23.2505 1.98253C24.1633 2.94675 25.0766 3.91053 25.9904 4.87386C26.2752 5.16443 26.4994 5.50877 26.6499 5.88681C26.8004 6.26486 26.8742 6.66906 26.867 7.07589C26.867 8.47573 26.8736 9.87691 26.867 11.2768C26.867 11.5158 26.9267 11.5689 27.1605 11.5689C27.9733 11.5689 28.7874 11.5132 29.5962 11.5955C30.5216 11.6833 31.3864 12.0946 32.0384 12.757C32.6904 13.4195 33.0879 14.2907 33.1609 15.2173C33.1539 15.2483 33.1495 15.2798 33.1477 15.3116C33.1477 20.0291 33.1477 24.7462 33.1477 29.4628C33.1477 29.5385 33.0972 29.6341 33.2048 29.6859V29.8187C33.0812 29.8891 33.1251 30.0232 33.1025 30.1255C32.724 31.787 31.7066 32.8229 30.0637 33.2678C29.9509 33.2984 29.8101 33.236 29.7224 33.3582H19.4613C19.4427 33.2718 19.3657 33.2904 19.3099 33.2785C17.3058 32.8296 16.0773 31.0286 16.1636 29.2742C16.1636 29.1573 16.1822 29.0085 16.0002 29.0603C15.8183 29.1121 15.5487 28.881 15.4929 29.2383C15.4521 29.532 15.3292 29.8083 15.1383 30.0352C15.0413 30.1467 15.0506 30.2052 15.1383 30.3181C15.5752 30.8865 15.6536 31.5134 15.3295 32.1535C15.0055 32.7937 14.433 33.1018 13.7039 33.1018C10.8431 33.1018 7.98323 33.1018 5.12422 33.1018C4.1734 33.0967 3.25054 32.7796 2.49739 32.1992C1.74425 31.6188 1.20246 30.8072 0.955234 29.8891C0.896797 29.6726 0.922031 29.4349 0.78125 29.241V28.3564ZM3.68453 25.7546C3.225 25.9273 2.88766 26.2434 2.5543 26.6206C2.91687 26.7135 3.16656 26.6604 3.33125 26.3231C3.4458 26.1359 3.57932 25.961 3.72969 25.8011C3.75094 25.7759 3.81602 25.7639 3.78281 25.7228C3.74961 25.6816 3.70844 25.7175 3.68453 25.7546ZM6.35539 32.0778C6.47738 32.1091 6.60177 32.1299 6.72727 32.1403C8.16563 32.1589 9.2507 31.5585 9.90547 30.2689C10.2177 29.6784 10.3405 29.006 10.257 28.3433C10.1736 27.6805 9.88811 27.0595 9.4393 26.5648C8.64242 25.675 7.63969 25.2367 6.41781 25.4545C6.35487 25.4514 6.29178 25.4536 6.22922 25.4611C5.79223 25.5482 5.37682 25.721 5.00699 25.9695C4.63715 26.218 4.32022 26.5374 4.07448 26.9091C3.82874 27.2808 3.65908 27.6974 3.57528 28.1351C3.49148 28.5727 3.49521 29.0226 3.58625 29.4588C3.87047 30.8347 5.07242 31.9716 6.35539 32.0778ZM18.262 13.1959C17.9028 13.4575 17.6119 13.8018 17.414 14.1997C17.2161 14.5976 17.117 15.0373 17.1252 15.4816C17.1119 20.1336 17.1119 24.7864 17.1252 29.4402C17.1306 30.2145 17.4382 30.9562 17.9826 31.5069C18.5269 32.0577 19.2648 32.3741 20.0391 32.3886C23.119 32.4139 26.1989 32.4032 29.2788 32.3886C29.9399 32.3968 30.5801 32.157 31.0731 31.7166C31.87 31.107 32.21 30.2862 32.21 29.3034C32.21 24.747 32.21 20.1902 32.21 15.633C32.21 13.8108 30.9416 12.5305 29.1102 12.5212C26.1471 12.5053 23.1841 12.5132 20.221 12.5212C19.4919 12.5212 18.8185 12.6978 18.262 13.1959ZM15.5115 26.2753C15.5513 26.7521 15.4783 27.205 15.1582 27.5768C14.9869 27.7721 15.1091 27.865 15.2193 27.9846C15.2658 28.035 16.0627 28.0563 16.1158 28.0178C16.1689 27.9792 16.1636 27.9049 16.1636 27.8438L16.1516 26.2673C16.1516 26.1411 16.1636 26.015 16.1636 25.8901C16.1636 22.4786 16.1636 19.0671 16.1636 15.6556C16.1562 15.3082 16.191 14.9613 16.2672 14.6223C16.7174 12.7948 18.282 11.5743 20.217 11.5676C21.9688 11.5583 23.7206 11.5557 25.4711 11.5756C25.8058 11.5756 25.8602 11.4773 25.8576 11.1771C25.8403 9.84902 25.8509 8.52089 25.8496 7.19277C25.8496 7.04534 25.839 6.89792 25.8323 6.7505C25.8257 6.56323 25.7487 6.48488 25.5415 6.49284C24.487 6.5048 23.4324 6.49284 22.3766 6.49284C21.7045 6.49284 21.597 6.38261 21.597 5.69597C21.597 4.56972 21.597 3.43816 21.597 2.31589C21.597 2.08745 21.5637 1.99316 21.2955 1.99316C17.5608 2.00378 13.8261 2.00599 10.0914 1.9998C9.8703 1.99069 9.64947 2.02359 9.44063 2.09675C8.54016 2.36238 8.03813 3.08222 8.03813 4.13277C8.03813 9.3098 8.03813 14.4895 8.03813 19.6718C8.03813 19.7236 8.03813 19.7768 8.03813 19.8285C8.0275 19.9614 8.08727 20.0132 8.22273 20.0105C8.63312 20.0012 9.04484 19.9999 9.45524 19.9959C10.8657 19.9959 12.2775 20.0145 13.688 20.0052C14.4224 20.0052 14.9802 20.2841 15.3136 20.9349C15.478 21.226 15.5487 21.5606 15.5161 21.8933C15.4836 22.226 15.3493 22.5406 15.1316 22.7943C15.1123 22.8106 15.0968 22.8309 15.0862 22.8539C15.0756 22.8768 15.07 22.9018 15.07 22.9271C15.07 22.9523 15.0756 22.9773 15.0862 23.0003C15.0968 23.0232 15.1123 23.0435 15.1316 23.0599C15.6629 23.7917 15.6629 24.4836 15.1409 25.2088C15.0732 25.3031 15.0294 25.3602 15.129 25.4744C15.3189 25.7068 15.4501 25.9815 15.5115 26.2753ZM10.0941 21.0212H6.51609C5.99945 21.0212 5.69 21.2935 5.69797 21.7291C5.70594 22.1647 6.01406 22.4144 6.51078 22.4144H13.6574C14.1714 22.4144 14.4968 22.1421 14.4981 21.7185C14.4995 21.2948 14.1794 21.0225 13.6627 21.0212H10.0941ZM10.0941 23.4304C8.89078 23.4304 7.68883 23.4304 6.48555 23.4304C6.06586 23.4304 5.78031 23.6456 5.71656 23.9909C5.65281 24.3362 5.72586 24.4451 6.08578 24.4451C6.77109 24.4451 7.46703 24.384 8.12047 24.6324C8.56809 24.7841 9.04025 24.8503 9.51234 24.8276C10.9268 24.8196 12.3399 24.8276 13.7544 24.8276C14.275 24.8276 14.5991 24.4212 14.4729 23.955C14.3826 23.619 14.1183 23.4371 13.7026 23.4357C12.4958 23.4295 11.2929 23.4278 10.0941 23.4304ZM9.68234 32.0792H12.7981C13.1355 32.0792 13.4728 32.0911 13.8102 32.0792C13.9915 32.0725 14.1636 31.9972 14.2916 31.8685C14.4195 31.7398 14.4939 31.5673 14.4995 31.3859C14.501 31.2934 14.4836 31.2015 14.4484 31.1159C14.4133 31.0303 14.361 30.9528 14.2949 30.888C14.2288 30.8233 14.1502 30.7727 14.0639 30.7393C13.9776 30.7059 13.8854 30.6905 13.7929 30.6939C12.8539 30.6846 11.9149 30.6939 10.9773 30.6939C10.9202 30.6877 10.8627 30.6994 10.8127 30.7276C10.7627 30.7557 10.7227 30.7987 10.6984 30.8507C10.4346 31.3167 10.0906 31.7326 9.68234 32.0792ZM10.0927 25.837C10.4318 26.2242 10.7066 26.6631 10.9069 27.1372C10.9211 27.1712 10.9465 27.1993 10.9788 27.217C11.0112 27.2346 11.0486 27.2407 11.0848 27.2342C12.0238 27.2342 12.9628 27.2435 13.9018 27.2169C14.2923 27.2063 14.5552 26.8078 14.4835 26.428C14.4118 26.0482 14.1395 25.8423 13.7026 25.8383C12.9429 25.8383 12.1832 25.8383 11.4235 25.8383L10.0927 25.837ZM12.5498 29.6646C12.9389 29.6646 13.328 29.6726 13.7172 29.6646C14.1767 29.6527 14.4928 29.3671 14.5021 28.97C14.5114 28.5729 14.2166 28.2728 13.7703 28.2608C12.9827 28.2382 12.1925 28.2528 11.4036 28.2475C11.2495 28.2475 11.203 28.3126 11.2163 28.4587C11.2432 28.7835 11.2267 29.1104 11.1672 29.4309C11.1353 29.6102 11.1977 29.6739 11.3823 29.67C11.7715 29.6607 12.1606 29.6673 12.5498 29.6673V29.6646ZM25.1656 5.48214L22.6143 2.79402C22.6143 3.69316 22.6143 4.50995 22.6143 5.32675C22.6143 5.45956 22.6714 5.48347 22.7856 5.48214C23.548 5.48214 24.313 5.48214 25.1656 5.48214ZM2.22758 29.3167C2.10805 29.3525 1.90086 29.2463 1.86766 29.395C1.84337 29.5143 1.84793 29.6376 1.88097 29.7547C1.91401 29.8719 1.97456 29.9794 2.05758 30.0684C2.20898 30.2225 2.47461 30.1162 2.69109 30.1162C2.70703 30.1162 2.74156 30.071 2.73758 30.0511C2.70749 29.8232 2.6559 29.5986 2.58352 29.3804C2.53172 29.2556 2.35242 29.3446 2.22758 29.3167ZM2.14656 28.3671C2.61672 28.3671 2.65258 28.3285 2.67781 27.7734C2.68977 27.4746 2.45469 27.622 2.33781 27.6153C1.9593 27.5941 1.8132 27.7667 1.81586 28.2236C1.81586 28.5185 2.06422 28.2834 2.14656 28.3671ZM2.78938 31.0924C2.92219 31.3819 3.40961 31.7232 3.68852 31.7272C3.27945 31.0618 3.27945 31.0618 2.78938 31.0924Z" fill="#030302"/>
<path id="Vector_2" d="M9.44141 2.10066C9.65025 2.0275 9.87108 1.9946 10.0922 2.00371C13.8269 2.00371 17.5616 2.0015 21.2963 1.99707C21.5619 1.99707 21.5991 2.09137 21.5977 2.3198C21.5884 3.44605 21.5977 4.57762 21.5977 5.69988C21.5977 6.38387 21.7053 6.49676 22.3773 6.49676C23.4332 6.49676 24.4877 6.5034 25.5423 6.49676C25.7495 6.49676 25.8265 6.56715 25.8331 6.75441C25.8331 6.90184 25.8504 7.04926 25.8504 7.19668C25.8504 8.52481 25.8411 9.85293 25.8584 11.1811C25.8584 11.4852 25.8066 11.5875 25.4719 11.5795C23.7214 11.5596 21.9696 11.5622 20.2178 11.5715C18.2827 11.5835 16.7182 12.804 16.268 14.6262C16.1917 14.9652 16.157 15.3121 16.1644 15.6595C16.1644 19.071 16.1644 22.4825 16.1644 25.894C16.1644 26.0189 16.1564 26.145 16.1524 26.2712L15.5123 26.2792C15.4514 25.9802 15.3182 25.7007 15.1245 25.465C15.0248 25.3561 15.0687 25.299 15.1364 25.1994C15.6544 24.4743 15.6544 23.7823 15.1271 23.0505C15.1078 23.0342 15.0923 23.0138 15.0817 22.9909C15.071 22.968 15.0655 22.943 15.0655 22.9177C15.0655 22.8924 15.071 22.8674 15.0817 22.8445C15.0923 22.8216 15.1078 22.8012 15.1271 22.7849C15.3448 22.5312 15.479 22.2166 15.5116 21.8839C15.5441 21.5512 15.4734 21.2166 15.3091 20.9255C14.9757 20.2747 14.4179 19.9958 13.6834 19.9958C12.273 20.0051 10.8612 19.9958 9.4507 19.9865C9.4507 14.18 9.4507 8.3734 9.4507 2.56684C9.45203 2.41543 9.44539 2.25871 9.44141 2.10066ZM13.8455 16.71C13.8455 17.3475 13.6077 17.6225 13.0566 17.6982C12.8216 17.7378 12.5803 17.7151 12.3568 17.6324C12.1333 17.5497 11.9354 17.4098 11.7829 17.2267C11.5438 16.9611 11.2038 17.0567 11.1082 17.3927C11.084 17.4849 11.0847 17.5819 11.1101 17.6738C11.1355 17.7657 11.1848 17.8493 11.253 17.916C11.5069 18.2021 11.8473 18.3975 12.2225 18.4725C12.4071 18.5136 12.4536 18.5854 12.4536 18.7633C12.4536 19.1312 12.6289 19.3251 12.9118 19.3211C13.1947 19.3171 13.362 19.1246 13.358 18.7527C13.3518 18.7178 13.353 18.6819 13.3614 18.6475C13.3698 18.613 13.3853 18.5807 13.4069 18.5525C13.4286 18.5244 13.4558 18.5011 13.487 18.4841C13.5181 18.4671 13.5525 18.4568 13.5878 18.4539C13.9392 18.364 14.2434 18.1443 14.4391 17.8389C14.5866 17.6143 14.6852 17.3611 14.7283 17.0959C14.7714 16.8307 14.7581 16.5593 14.6893 16.2995C14.6205 16.0398 14.4977 15.7974 14.329 15.5883C14.1603 15.3791 13.9493 15.2079 13.71 15.0857C13.5041 14.9835 13.2823 14.9104 13.0698 14.8201C12.8387 14.7427 12.6162 14.6416 12.4058 14.5186C12.2865 14.4388 12.1946 14.3243 12.1424 14.1906C12.0901 14.0569 12.0801 13.9105 12.1136 13.7709C12.1321 13.6387 12.1924 13.516 12.2855 13.4204C12.3787 13.3249 12.4999 13.2615 12.6316 13.2396C13.0651 13.1302 13.5239 13.1861 13.9185 13.3964C14.2107 13.5398 14.4006 13.48 14.5241 13.233C14.6477 12.986 14.5733 12.7854 14.3063 12.6287C14.116 12.5135 13.9022 12.4427 13.6808 12.4215C13.451 12.4016 13.3076 12.3339 13.3541 12.0603C13.3636 11.9969 13.3577 11.9322 13.3369 11.8717C13.3161 11.8111 13.281 11.7564 13.2345 11.7123C13.1802 11.6469 13.1075 11.5992 13.0258 11.5755C12.9441 11.5519 12.8572 11.5532 12.7763 11.5795C12.6765 11.6017 12.5883 11.6599 12.5286 11.7429C12.4688 11.8259 12.4417 11.928 12.4523 12.0297C12.4828 12.3365 12.354 12.4587 12.0777 12.561C11.8788 12.6351 11.7016 12.758 11.5624 12.9183C11.4231 13.0786 11.3264 13.2713 11.2809 13.4787C11.0564 14.3207 11.3566 15.0074 12.1415 15.3939C12.4895 15.5639 12.8613 15.6874 13.2146 15.8481C13.6184 16.034 13.8614 16.3289 13.8455 16.71ZM18.636 9.86488C17.361 9.86488 16.0856 9.86488 14.8097 9.86488C14.6835 9.86047 14.5573 9.87162 14.4338 9.89809C14.3377 9.92617 14.2532 9.98444 14.1928 10.0643C14.1324 10.1441 14.0993 10.2413 14.0984 10.3414C14.0976 10.4415 14.1289 10.5392 14.1879 10.6201C14.2468 10.701 14.3303 10.7608 14.4259 10.7906C14.5384 10.8175 14.6542 10.8291 14.7698 10.8251H22.5195C22.6246 10.8288 22.7297 10.8203 22.8329 10.7999C22.9356 10.7762 23.0272 10.7183 23.0928 10.6359C23.1585 10.5534 23.1942 10.4511 23.1942 10.3457C23.1942 10.2403 23.1585 10.138 23.0928 10.0555C23.0272 9.97298 22.9356 9.91516 22.8329 9.89144C22.7197 9.86882 22.6043 9.85946 22.4889 9.86355L18.636 9.86488ZM15.3755 8.45309C16.7461 8.45309 18.1185 8.45309 19.4927 8.45309C19.8778 8.45309 20.1036 8.26715 20.0956 7.96699C20.0877 7.66684 19.8698 7.50348 19.5006 7.50348C18.6466 7.50348 17.7927 7.50348 16.9387 7.50348C15.0616 7.50348 13.1849 7.50348 11.3088 7.50348C11.1016 7.50348 10.9037 7.5141 10.7709 7.70004C10.7178 7.76614 10.6848 7.84599 10.6756 7.93022C10.6665 8.01445 10.6815 8.09955 10.7191 8.17551C10.8253 8.39598 11.0073 8.4584 11.237 8.45707C12.6147 8.45264 13.9942 8.45132 15.3755 8.45309ZM11.9104 10.8264H12.5745C12.5957 10.8278 12.617 10.8278 12.6382 10.8264C12.9463 10.8012 13.1283 10.6325 13.1363 10.3643C13.1442 10.096 12.9609 9.87816 12.6395 9.86488C12.1561 9.85027 11.6713 9.8516 11.1879 9.86488C10.8718 9.86488 10.6659 10.0747 10.6646 10.3404C10.6633 10.606 10.8718 10.8065 11.1839 10.8211C11.4203 10.8331 11.6687 10.8251 11.9104 10.8264ZM22.0971 8.45176H22.728C22.8496 8.45049 22.9662 8.40249 23.0534 8.31769C23.1407 8.2329 23.192 8.1178 23.1968 7.99621C23.2 7.93307 23.1904 7.86994 23.1684 7.81066C23.1464 7.75138 23.1126 7.69722 23.0689 7.65147C23.0253 7.60572 22.9728 7.56935 22.9146 7.54459C22.8565 7.51983 22.7938 7.5072 22.7306 7.50746C22.3322 7.49418 21.9338 7.49551 21.5353 7.50746C21.4712 7.50406 21.4071 7.51375 21.3468 7.53594C21.2866 7.55813 21.2315 7.59236 21.1849 7.63654C21.1383 7.68072 21.1012 7.73392 21.0759 7.7929C21.0505 7.85188 21.0375 7.91541 21.0375 7.97961C21.0375 8.04381 21.0505 8.10734 21.0759 8.16632C21.1012 8.2253 21.1383 8.2785 21.1849 8.32268C21.2315 8.36686 21.2866 8.40109 21.3468 8.42328C21.4071 8.44547 21.4712 8.45516 21.5353 8.45176C21.7186 8.45973 21.9125 8.45176 22.0971 8.45176Z" fill="#FDD8A9"/>
<path id="Vector_3" d="M18.2617 13.1958C18.8182 12.6978 19.4916 12.5211 20.2154 12.5198C23.1784 12.5198 26.1415 12.5065 29.1045 12.5198C30.936 12.5291 32.203 13.8094 32.2044 15.6316C32.2115 20.1889 32.2115 24.7457 32.2044 29.302C32.2044 30.2848 31.8617 31.1056 31.0675 31.7152C30.9413 31.7152 30.8152 31.7059 30.689 31.7059C27.5511 31.7059 24.4127 31.7059 21.2739 31.7059C20.8305 31.7087 20.3965 31.5782 20.0281 31.3314C20.408 31.3314 20.7878 31.3314 21.1663 31.3194C21.3012 31.322 21.4352 31.2972 21.5602 31.2465C21.6852 31.1959 21.7987 31.1205 21.8938 31.0248C21.9888 30.9291 22.0635 30.8151 22.1134 30.6898C22.1632 30.5644 22.1871 30.4303 22.1837 30.2954C22.1837 29.7642 22.1916 29.221 22.1837 28.6844C22.1904 28.4387 22.1015 28.2 21.9358 28.0184C21.7701 27.8369 21.5405 27.7266 21.2952 27.7109C20.6958 27.6631 20.0936 27.6631 19.4942 27.7109C18.9245 27.7521 18.5791 28.1439 18.5645 28.7123C18.5566 29.1015 18.5645 29.4919 18.5552 29.8811C18.4224 29.8558 18.4038 29.739 18.368 29.646C18.1777 29.199 18.074 28.7199 18.0625 28.2342C18.0625 23.9284 18.0625 19.6231 18.0625 15.3182C18.0625 14.6036 18.0625 13.8904 18.2617 13.1958ZM22.3789 18.0647H23.4507C23.5224 18.3636 23.6845 18.5508 24.0178 18.5508C25.7444 18.5508 27.4577 18.5588 29.1776 18.5508C29.5732 18.5552 29.9556 18.4084 30.2466 18.1403C30.5377 17.8722 30.7154 17.5032 30.7434 17.1085C30.8065 16.4264 30.8065 15.74 30.7434 15.0579C30.7221 14.6621 30.5473 14.2903 30.2561 14.0215C29.965 13.7526 29.5804 13.6079 29.1842 13.6182C26.1667 13.6058 23.1488 13.6058 20.1304 13.6182C19.2153 13.6182 18.5725 14.3022 18.5605 15.2119C18.5526 15.7804 18.5539 16.3488 18.5605 16.9172C18.5725 17.8668 19.2485 18.5376 20.2048 18.5495C20.7214 18.5561 21.2394 18.5495 21.756 18.5495C22.1545 18.5468 22.274 18.4512 22.3842 18.0647H22.3789ZM30.8125 27.4718C30.8125 26.6086 30.8218 25.7453 30.8125 24.882C30.8197 24.5778 30.7106 24.2824 30.5075 24.0558C30.3044 23.8293 30.0226 23.6887 29.7195 23.6628C29.2374 23.6037 28.7499 23.6037 28.2678 23.6628C27.9761 23.6952 27.7062 23.8331 27.5091 24.0505C27.3119 24.268 27.2011 24.55 27.1973 24.8435C27.1858 26.5594 27.1858 28.2758 27.1973 29.9926C27.2022 30.2963 27.3109 30.5892 27.5054 30.8224C27.7 31.0556 27.9686 31.2151 28.2665 31.2743C28.6317 31.3579 29.0023 31.3128 29.3702 31.3128C30.2441 31.3128 30.8098 30.7457 30.8165 29.8691C30.8191 29.0722 30.8125 28.2727 30.8125 27.4718ZM22.8517 25.4491C22.8517 25.744 22.8318 26.0401 22.8517 26.3323C22.8661 26.5869 22.9786 26.826 23.1656 26.9994C23.3526 27.1727 23.5995 27.2669 23.8545 27.262C24.3857 27.274 24.9289 27.2753 25.4655 27.262C25.7274 27.2656 25.9801 27.1656 26.1686 26.9837C26.3572 26.8019 26.4663 26.553 26.4722 26.2911C26.4908 25.7347 26.4895 25.1755 26.4722 24.619C26.4753 24.373 26.3832 24.1353 26.2151 23.9556C26.0471 23.7759 25.8161 23.6682 25.5704 23.6548C24.9727 23.601 24.3716 23.5984 23.7734 23.6468C23.2342 23.684 22.8902 24.0546 22.8517 24.5925C22.8437 24.8807 22.8544 25.1662 22.8544 25.4491H22.8517ZM24.6553 31.3194C24.9209 31.3194 25.1866 31.3194 25.4522 31.3194C25.5896 31.3226 25.7262 31.2977 25.8537 31.2463C25.9811 31.1949 26.0968 31.1181 26.1936 31.0205C26.2904 30.923 26.3663 30.8067 26.4167 30.6789C26.4671 30.551 26.491 30.4142 26.4868 30.2768C26.4948 29.7624 26.4948 29.2476 26.4868 28.7322C26.4775 28.1558 26.1149 27.7388 25.5438 27.7056C24.9656 27.6744 24.3862 27.6744 23.808 27.7056C23.2435 27.7348 22.8929 28.0894 22.8637 28.6552C22.8345 29.221 22.8345 29.7908 22.8637 30.3579C22.8929 30.925 23.3126 31.3088 23.9062 31.3208C24.152 31.3234 24.4043 31.3194 24.658 31.3194H24.6553ZM22.1837 25.4531C22.1837 25.1795 22.1837 24.9059 22.1837 24.6323C22.1895 24.398 22.108 24.1699 21.9551 23.9922C21.8022 23.8145 21.5888 23.7 21.3563 23.6708C20.707 23.5984 20.0518 23.5984 19.4026 23.6708C19.1688 23.6945 18.9526 23.8059 18.7976 23.9826C18.6426 24.1593 18.5603 24.3881 18.5672 24.623C18.5583 25.1702 18.5583 25.717 18.5672 26.2633C18.5638 26.3928 18.5862 26.5217 18.6331 26.6425C18.68 26.7633 18.7503 26.8736 18.8402 26.967C18.93 27.0604 19.0374 27.1351 19.1563 27.1866C19.2752 27.2382 19.4032 27.2656 19.5327 27.2673C20.0892 27.2872 20.6497 27.2859 21.2062 27.2673C21.3383 27.2658 21.4688 27.2379 21.59 27.1853C21.7112 27.1326 21.8206 27.0563 21.9119 26.9608C22.0032 26.8653 22.0745 26.7525 22.1216 26.6291C22.1688 26.5057 22.1908 26.3741 22.1863 26.242C22.1916 25.9777 22.1877 25.7161 22.1863 25.4531H22.1837ZM22.1837 21.2031C22.1837 20.9189 22.1916 20.6347 22.1837 20.3518C22.1795 20.1017 22.08 19.8626 21.9055 19.6834C21.731 19.5042 21.4946 19.3983 21.2447 19.3876C20.6656 19.3676 20.0852 19.3676 19.5075 19.3876C19.2574 19.3964 19.0203 19.5013 18.8455 19.6803C18.6706 19.8594 18.5714 20.0989 18.5685 20.3491C18.5566 20.9162 18.5552 21.4847 18.5685 22.0518C18.5705 22.2968 18.6673 22.5315 18.8387 22.7066C19.0101 22.8817 19.2427 22.9835 19.4876 22.9908C20.0759 23.0107 20.667 23.012 21.2553 22.9908C21.5059 22.9825 21.7434 22.8766 21.917 22.6957C22.0907 22.5148 22.1869 22.2733 22.185 22.0226C22.193 21.7529 22.1863 21.4793 22.1863 21.2071L22.1837 21.2031ZM24.6434 22.9934C24.9289 22.9934 25.2145 23.004 25.4987 22.9934C25.7555 22.9941 26.0022 22.8933 26.185 22.713C26.3679 22.5326 26.472 22.2873 26.4748 22.0305C26.4948 21.4727 26.4934 20.9136 26.4748 20.3558C26.4711 20.0989 26.3672 19.8536 26.1854 19.672C26.0037 19.4905 25.7582 19.387 25.5013 19.3836C24.9435 19.369 24.383 19.3703 23.8239 19.3836C23.5833 19.3811 23.3507 19.4702 23.1732 19.6326C22.9957 19.7951 22.8865 20.0189 22.8677 20.2588C22.8384 20.8777 22.8398 21.5006 22.8677 22.1182C22.8826 22.3473 22.9817 22.5628 23.146 22.7231C23.3103 22.8835 23.5281 22.9774 23.7575 22.9868C24.055 23.0133 24.3512 22.9974 24.646 22.9974L24.6434 22.9934ZM29.0262 22.9934C29.3104 22.9934 29.5946 23.004 29.8788 22.9934C30.1238 22.9883 30.3573 22.8887 30.5306 22.7155C30.7038 22.5422 30.8034 22.3087 30.8085 22.0637C30.8253 21.4864 30.8253 20.9109 30.8085 20.3372C30.8027 20.0867 30.7002 19.8482 30.5224 19.6717C30.3446 19.4951 30.1054 19.3943 29.8549 19.3902C29.2865 19.3743 28.718 19.3743 28.1496 19.3902C27.8991 19.3969 27.6607 19.4991 27.4831 19.6759C27.3056 19.8527 27.2024 20.0907 27.1947 20.3411C27.1774 20.9083 27.1787 21.4754 27.1947 22.0425C27.2003 22.2924 27.3015 22.5306 27.4774 22.7082C27.6532 22.8858 27.8905 22.9893 28.1403 22.9974C28.4338 23.0133 28.7287 23.0001 29.0235 23.0001L29.0262 22.9934Z" fill="#79C88F"/>
<path id="Vector_4" d="M20.0298 31.33C20.3982 31.5768 20.8322 31.7073 21.2756 31.7045C24.4144 31.7098 27.5528 31.7098 30.6907 31.7045C30.8169 31.7045 30.943 31.7112 31.0692 31.7138C30.5762 32.1543 29.936 32.394 29.2749 32.3859C26.195 32.3991 23.1151 32.4098 20.0352 32.3859C19.2609 32.3713 18.523 32.0549 17.9786 31.5042C17.4343 30.9534 17.1267 30.2118 17.1212 29.4374C17.1106 24.7837 17.1106 20.1308 17.1212 15.4788C17.1131 15.0345 17.2122 14.5948 17.4101 14.1969C17.608 13.799 17.8989 13.4547 18.2581 13.1931C18.0536 13.8877 18.0629 14.6009 18.0629 15.3181C18.0682 19.6239 18.0682 23.9292 18.0629 28.2341C18.074 28.7173 18.1762 29.1941 18.3644 29.6393C18.4002 29.7323 18.4228 29.8491 18.5516 29.8744C18.5516 29.9992 18.5596 30.1241 18.5609 30.2502C18.5689 30.9143 18.974 31.3127 19.6487 31.3207C19.7788 31.322 19.905 31.3273 20.0298 31.33Z" fill="#4CB867"/>
<path id="Vector_5" d="M9.4428 2.10083C9.4428 2.25888 9.45343 2.4156 9.45343 2.57364C9.45343 8.38021 9.45343 14.1868 9.45343 19.9933C9.04304 19.9933 8.63132 19.9933 8.22093 20.0079C8.08811 20.0079 8.02569 19.9628 8.03632 19.826C8.03632 19.7742 8.03632 19.7211 8.03632 19.6693C8.03632 14.4914 8.03632 9.31388 8.03632 4.13685C8.0403 3.09161 8.54233 2.36247 9.4428 2.10083Z" fill="#FDC377"/>
<path id="Vector_6" d="M6.41608 25.4544C7.63796 25.2406 8.63405 25.6749 9.43757 26.5648C9.88638 27.0595 10.1719 27.6805 10.2553 28.3432C10.3387 29.006 10.216 29.6784 9.90374 30.2689C9.24765 31.5585 8.1639 32.1588 6.72554 32.1402C6.60005 32.1299 6.47565 32.109 6.35366 32.0778C6.35366 32.0074 6.29788 31.9742 6.24476 31.9344C5.78945 31.5943 5.4141 31.1586 5.14507 30.658C4.31632 29.1068 4.58858 27.0017 6.08538 25.7719C6.20358 25.6696 6.35897 25.6151 6.41608 25.4544ZM6.98319 26.1637C6.82249 26.1823 6.64054 26.2287 6.60866 26.3708C6.53296 26.7016 6.2753 26.849 6.05218 27.0416C5.95218 27.1365 5.87889 27.256 5.83968 27.3882C5.72383 27.6643 5.72162 27.975 5.83352 28.2528C5.94543 28.5306 6.16241 28.753 6.43733 28.8717C6.66312 28.9833 6.90483 29.063 7.13062 29.1758C7.21847 29.2148 7.28733 29.287 7.32216 29.3766C7.357 29.4662 7.35498 29.5659 7.31655 29.654C7.25015 29.8585 7.07085 29.8665 6.89952 29.8572C6.74154 29.8412 6.59453 29.7691 6.48515 29.654C6.2514 29.4362 6.03226 29.4202 5.84499 29.5929C5.7521 29.6804 5.69518 29.7994 5.68536 29.9266C5.67553 30.0538 5.71351 30.1801 5.79187 30.2808C5.91464 30.455 6.08949 30.5856 6.29124 30.6541C6.35139 30.669 6.40611 30.7006 6.4491 30.7452C6.49209 30.7899 6.52162 30.8457 6.53429 30.9064C6.55627 31.0059 6.61243 31.0945 6.69299 31.1569C6.77355 31.2192 6.87341 31.2514 6.97522 31.2477C7.08224 31.2534 7.18783 31.2212 7.27353 31.1569C7.35923 31.0925 7.41959 31.0001 7.44405 30.8958C7.4513 30.8449 7.47048 30.7965 7.50003 30.7545C7.52958 30.7125 7.56865 30.6781 7.61405 30.6541C8.12804 30.4123 8.30468 29.9648 8.29272 29.4362C8.28077 28.8757 7.99124 28.4866 7.4746 28.2674C7.28999 28.1904 7.10405 28.1173 6.9221 28.0337C6.80257 27.9779 6.7003 27.9008 6.73085 27.7428C6.7614 27.5848 6.91147 27.5848 7.03233 27.5755C7.21187 27.5707 7.3898 27.6104 7.5503 27.691C7.60181 27.7193 7.65866 27.7366 7.71723 27.7417C7.77579 27.7468 7.83478 27.7396 7.89041 27.7206C7.94604 27.7016 7.9971 27.6712 8.0403 27.6314C8.08351 27.5915 8.11791 27.5431 8.14132 27.4891C8.17214 27.4393 8.19266 27.3838 8.20165 27.3259C8.21065 27.268 8.20796 27.2089 8.19372 27.1521C8.17948 27.0952 8.15399 27.0418 8.11875 26.995C8.08352 26.9482 8.03926 26.9089 7.98858 26.8795C7.90437 26.8172 7.80869 26.772 7.70702 26.7467C7.64047 26.7386 7.5781 26.7099 7.5286 26.6647C7.47909 26.6194 7.4449 26.5599 7.43077 26.4944C7.37101 26.2712 7.19171 26.1849 6.98319 26.1637Z" fill="#EA8500"/>
<path id="Vector_7" d="M10.0942 21.0212H13.6682C14.1848 21.0212 14.5049 21.2935 14.5035 21.7185C14.5022 22.1435 14.1768 22.4144 13.6628 22.4144H6.50823C6.01151 22.4144 5.70206 22.1488 5.69542 21.7291C5.68878 21.3094 5.99956 21.0212 6.5162 21.0212H10.0942Z" fill="#FDA633"/>
<path id="Vector_8" d="M10.0945 23.4291C11.2978 23.4291 12.5007 23.4291 13.703 23.4291C14.1188 23.4291 14.383 23.6124 14.4734 23.9484C14.5995 24.4146 14.2755 24.8197 13.7548 24.821C12.3404 24.821 10.9273 24.821 9.51281 24.821C9.04072 24.8437 8.56856 24.7775 8.12094 24.6258C7.4675 24.3774 6.77156 24.4398 6.08625 24.4385C5.72633 24.4385 5.65063 24.3455 5.71703 23.9843C5.78344 23.623 6.06633 23.4252 6.48602 23.4238C7.68399 23.4278 8.88594 23.4305 10.0945 23.4291Z" fill="#FC9611"/>
<path id="Vector_9" d="M6.41708 25.4545C6.35997 25.6152 6.20458 25.6737 6.08637 25.7719C4.58958 27.0018 4.31731 29.1069 5.14606 30.6581C5.41395 31.1583 5.7879 31.5939 6.24177 31.9344C6.29489 31.9743 6.34536 32.0075 6.35067 32.0779C5.0677 31.9716 3.86575 30.8347 3.57887 29.4588C3.48786 29.0224 3.48424 28.5724 3.5682 28.1346C3.65217 27.6968 3.82206 27.28 4.06807 26.9083C4.31407 26.5366 4.63131 26.2173 5.00145 25.9689C5.37158 25.7205 5.78727 25.5479 6.2245 25.4612C6.28838 25.4534 6.35281 25.4512 6.41708 25.4545Z" fill="#C46F00"/>
<path id="Vector_10" d="M9.68359 32.0791C10.093 31.729 10.437 31.309 10.6996 30.8386C10.7239 30.7867 10.7639 30.7436 10.8139 30.7155C10.8639 30.6874 10.9215 30.6757 10.9785 30.6819C11.9162 30.6819 12.8552 30.6819 13.7941 30.6819C13.8866 30.6785 13.9788 30.6939 14.0651 30.7273C14.1515 30.7607 14.2301 30.8113 14.2962 30.876C14.3623 30.9408 14.4145 31.0183 14.4497 31.1039C14.4849 31.1895 14.5022 31.2814 14.5007 31.3739C14.4951 31.5553 14.4208 31.7278 14.2928 31.8565C14.1649 31.9852 13.9928 32.0605 13.8114 32.0672C13.4741 32.0844 13.1367 32.0672 12.7994 32.0672L9.68359 32.0791Z" fill="#A75F00"/>
<path id="Vector_11" d="M10.0938 25.8396H11.4219C12.1816 25.8396 12.9413 25.8396 13.7009 25.8396C14.1379 25.8396 14.4102 26.0574 14.4819 26.4293C14.5536 26.8012 14.2906 27.2076 13.9002 27.2182C12.9612 27.2448 12.0222 27.2328 11.0832 27.2355C11.0469 27.2419 11.0095 27.2359 10.9772 27.2182C10.9448 27.2006 10.9195 27.1725 10.9052 27.1385C10.7057 26.6651 10.4317 26.2266 10.0938 25.8396Z" fill="#EA8500"/>
<path id="Vector_12" d="M12.5507 29.6672C12.1615 29.6672 11.7724 29.6672 11.3833 29.6672C11.1987 29.6672 11.1362 29.6075 11.1681 29.4282C11.2276 29.1077 11.2441 28.7808 11.2172 28.456C11.204 28.3099 11.2505 28.2448 11.4045 28.2448C12.1934 28.2448 12.9837 28.2355 13.7712 28.2581C14.2175 28.2701 14.511 28.5861 14.503 28.9673C14.4951 29.3485 14.1776 29.65 13.7181 29.6619C13.329 29.6752 12.9398 29.6672 12.5507 29.6672Z" fill="#C46F00"/>
<path id="Vector_13" d="M25.166 5.48207C24.3133 5.48207 23.5483 5.48207 22.7846 5.48207C22.6704 5.48207 22.612 5.45551 22.6133 5.32668C22.6133 4.50988 22.6133 3.69309 22.6133 2.79395L25.166 5.48207Z" fill="#FDA633"/>
<path id="Vector_14" d="M15.5127 26.2753L16.1528 26.2673L16.1648 27.8438C16.1648 27.9049 16.1781 27.9766 16.117 28.0178C16.0559 28.059 15.267 28.0351 15.2205 27.9846C15.1102 27.8651 14.9881 27.7721 15.1594 27.5769C15.4795 27.209 15.5525 26.7521 15.5127 26.2753Z" fill="#FDC377"/>
<path id="Vector_15" d="M2.22685 29.3167C2.35169 29.3446 2.53099 29.2543 2.58278 29.3805C2.65525 29.5991 2.70684 29.8241 2.73685 30.0525C2.73685 30.0724 2.7063 30.1176 2.69036 30.1176C2.47388 30.1176 2.20825 30.2238 2.05685 30.0698C1.97383 29.9808 1.91327 29.8733 1.88024 29.7561C1.8472 29.639 1.84264 29.5157 1.86692 29.3964C1.90013 29.2463 2.10731 29.3526 2.22685 29.3167Z" fill="#C46F00"/>
<path id="Vector_16" d="M2.14844 28.367C2.06609 28.2833 1.81773 28.5184 1.81641 28.2236C1.81641 27.7667 1.95984 27.594 2.33836 27.6153C2.45523 27.6153 2.69031 27.4745 2.67836 27.7733C2.65844 28.3258 2.61859 28.367 2.14844 28.367Z" fill="#C46F00"/>
<path id="Vector_17" d="M3.72617 25.8025C3.5758 25.9623 3.44229 26.1372 3.32773 26.3244C3.16305 26.6618 2.91336 26.7149 2.55078 26.6219C2.8775 26.2447 3.22148 25.9286 3.68102 25.756L3.72617 25.8025Z" fill="#C46F00"/>
<path id="Vector_18" d="M2.78906 31.0923C3.28578 31.0618 3.28578 31.0618 3.6882 31.7272C3.40266 31.7232 2.92188 31.3806 2.78906 31.0923Z" fill="#C46F00"/>
<path id="Vector_19" d="M3.68359 25.7547C3.7075 25.7175 3.75266 25.6896 3.77922 25.7228C3.80578 25.756 3.74734 25.7759 3.72609 25.8012C3.71812 25.7866 3.6982 25.7706 3.68359 25.7547Z" fill="#C46F00"/>
<path id="Vector_20" d="M13.8487 16.7101C13.8646 16.329 13.6216 16.0341 13.2244 15.8548C12.8712 15.6941 12.4993 15.5706 12.1513 15.4006C11.3664 15.0141 11.0662 14.3275 11.2907 13.4855C11.3362 13.2781 11.433 13.0854 11.5722 12.925C11.7114 12.7647 11.8886 12.6419 12.0876 12.5677C12.3638 12.4655 12.4927 12.3433 12.4621 12.0365C12.4528 11.9358 12.4804 11.8352 12.5398 11.7533C12.5992 11.6715 12.6862 11.614 12.7848 11.5916C12.8657 11.5653 12.9526 11.5639 13.0343 11.5876C13.116 11.6113 13.1887 11.6589 13.243 11.7244C13.2895 11.7685 13.3246 11.8232 13.3454 11.8837C13.3662 11.9443 13.3721 12.009 13.3626 12.0723C13.3161 12.3459 13.4595 12.4137 13.6893 12.4336C13.9107 12.4547 14.1245 12.5256 14.3148 12.6408C14.5805 12.7975 14.6535 13.0033 14.5327 13.2451C14.4118 13.4868 14.2192 13.5519 13.927 13.4084C13.5324 13.1981 13.0736 13.1422 12.6401 13.2517C12.5084 13.2736 12.3872 13.3369 12.2941 13.4325C12.2009 13.528 12.1407 13.6508 12.1221 13.783C12.0886 13.9225 12.0986 14.069 12.1509 14.2027C12.2031 14.3363 12.295 14.4508 12.4143 14.5307C12.6247 14.6537 12.8472 14.7547 13.0784 14.8322C13.2909 14.9225 13.5127 14.9955 13.7185 15.0978C13.9549 15.2207 14.1631 15.3916 14.3296 15.5996C14.4961 15.8076 14.6174 16.0481 14.6855 16.3057C14.7537 16.5633 14.7672 16.8323 14.7254 17.0954C14.6835 17.3585 14.5871 17.61 14.4423 17.8337C14.2466 18.1391 13.9424 18.3588 13.591 18.4487C13.5557 18.4516 13.5213 18.4619 13.4902 18.4789C13.459 18.4959 13.4318 18.5192 13.4101 18.5473C13.3885 18.5755 13.373 18.6078 13.3646 18.6423C13.3562 18.6767 13.355 18.7126 13.3612 18.7475C13.3612 19.1194 13.1979 19.3119 12.915 19.3159C12.6321 19.3199 12.4581 19.126 12.4568 18.7581C12.4568 18.5801 12.4103 18.5084 12.2257 18.4673C11.8505 18.3923 11.5101 18.1969 11.2562 17.9108C11.188 17.8441 11.1387 17.7605 11.1133 17.6686C11.0879 17.5767 11.0872 17.4797 11.1114 17.3875C11.207 17.0515 11.547 16.9572 11.7861 17.2215C11.9377 17.406 12.1352 17.5474 12.3588 17.6316C12.5823 17.7157 12.8241 17.7396 13.0598 17.7009C13.6109 17.6226 13.8513 17.3476 13.8487 16.7101Z" fill="#030302"/>
<path id="Vector_21" d="M18.6391 9.86495H22.4987C22.614 9.86086 22.7295 9.87022 22.8427 9.89284C22.9454 9.91655 23.037 9.97438 23.1026 10.0569C23.1682 10.1394 23.2039 10.2417 23.2039 10.3471C23.2039 10.4525 23.1682 10.5548 23.1026 10.6372C23.037 10.7197 22.9454 10.7776 22.8427 10.8013C22.7395 10.8217 22.6343 10.8302 22.5292 10.8265H14.773C14.6573 10.8305 14.5416 10.8189 14.429 10.792C14.3334 10.7622 14.25 10.7024 14.191 10.6215C14.132 10.5406 14.1007 10.4429 14.1016 10.3428C14.1025 10.2427 14.1356 10.1455 14.196 10.0657C14.2564 9.98583 14.3409 9.92756 14.437 9.89948C14.5604 9.87301 14.6866 9.86186 14.8128 9.86628C16.0878 9.86539 17.3633 9.86495 18.6391 9.86495Z" fill="#0E0C0A"/>
<path id="Vector_22" d="M15.3757 8.45311C13.9945 8.45311 12.6132 8.45311 11.232 8.45311C11.0022 8.45311 10.8203 8.39201 10.714 8.17154C10.6765 8.09558 10.6614 8.01049 10.6706 7.92626C10.6798 7.84203 10.7128 7.76217 10.7658 7.69607C10.8986 7.51014 11.0965 7.49951 11.3037 7.49951C13.1799 7.49951 15.0565 7.49951 16.9336 7.49951C17.7876 7.49951 18.6416 7.49951 19.4956 7.49951C19.8648 7.49951 20.0826 7.6735 20.0906 7.96303C20.0985 8.25256 19.8728 8.44912 19.4876 8.44912C18.117 8.45355 16.7464 8.45488 15.3757 8.45311Z" fill="#030302"/>
<path id="Vector_23" d="M11.9138 10.8251C11.672 10.8251 11.429 10.8331 11.1873 10.8251C10.8752 10.8105 10.668 10.6113 10.668 10.3443C10.668 10.0774 10.8752 9.87549 11.1913 9.86884C11.6747 9.85689 12.1595 9.85556 12.6429 9.86884C12.9643 9.87814 13.1476 10.0787 13.1383 10.3616C13.129 10.6445 12.9484 10.7945 12.6402 10.8238C12.619 10.8251 12.5977 10.8251 12.5765 10.8238L11.9138 10.8251Z" fill="#0E0C0A"/>
<path id="Vector_24" d="M22.1001 8.45179C21.9115 8.45179 21.7216 8.45976 21.533 8.45179C21.4689 8.4552 21.4048 8.44551 21.3445 8.42331C21.2843 8.40112 21.2292 8.36689 21.1826 8.32272C21.136 8.27854 21.0989 8.22534 21.0736 8.16636C21.0482 8.10737 21.0352 8.04385 21.0352 7.97965C21.0352 7.91545 21.0482 7.85192 21.0736 7.79294C21.0989 7.73395 21.136 7.68075 21.1826 7.63657C21.2292 7.5924 21.2843 7.55817 21.3445 7.53598C21.4048 7.51379 21.4689 7.5041 21.533 7.5075C21.9315 7.49687 22.3299 7.49554 22.7283 7.5075C22.7916 7.50723 22.8542 7.51987 22.9123 7.54463C22.9705 7.56939 23.023 7.60576 23.0666 7.6515C23.1103 7.69725 23.1441 7.75142 23.1661 7.8107C23.1881 7.86997 23.1978 7.93311 23.1945 7.99625C23.1897 8.11783 23.1384 8.23293 23.0511 8.31773C22.9639 8.40253 22.8473 8.45052 22.7257 8.45179H22.0948H22.1001Z" fill="#030302"/>
<path id="Vector_25" d="M23.4551 18.066H22.3833C22.3248 17.738 22.1309 17.5879 21.7962 17.5959C21.5678 17.6025 21.3407 17.5852 21.1123 17.5786C20.8167 16.6003 20.8167 15.5566 21.1123 14.5784C21.1326 14.5725 21.1535 14.5685 21.1747 14.5664C23.8309 14.5664 26.4872 14.5664 29.1434 14.5664C29.5551 14.5664 29.7902 14.8055 29.8075 15.2172C29.8208 15.7219 29.8075 16.2279 29.8075 16.7339C29.8075 17.398 29.6003 17.5972 28.9336 17.5985H24.1231C23.6769 17.5985 23.5985 17.6556 23.4551 18.066Z" fill="#3C99E0"/>
<path id="Vector_26" d="M21.1177 17.5774C21.3461 17.584 21.5732 17.6013 21.8016 17.5946C22.1363 17.5867 22.3329 17.7367 22.3887 18.0648C22.2784 18.4513 22.1589 18.5469 21.7658 18.5496C21.2491 18.5496 20.7312 18.5496 20.2145 18.5496C19.2583 18.5376 18.5823 17.8669 18.5703 16.9173C18.5703 16.3488 18.5703 15.7804 18.5703 15.212C18.5823 14.2996 19.2251 13.6182 20.1402 13.6182C23.1577 13.6032 26.1756 13.6032 29.194 13.6182C29.5902 13.608 29.9747 13.7526 30.2659 14.0215C30.5571 14.2903 30.7319 14.6622 30.7532 15.0579C30.8163 15.74 30.8163 16.4264 30.7532 17.1085C30.7251 17.5032 30.5474 17.8723 30.2564 18.1403C29.9654 18.4084 29.583 18.5553 29.1873 18.5509C27.4674 18.5642 25.7475 18.5509 24.0276 18.5509C23.6942 18.5509 23.5322 18.3636 23.4605 18.0661C23.6039 17.6557 23.6823 17.5986 24.1245 17.5973H28.935C29.5991 17.5973 29.8076 17.3914 29.8089 16.7327C29.8089 16.2267 29.8182 15.7206 29.8089 15.216C29.797 14.8042 29.5619 14.5665 29.1448 14.5652C26.4886 14.5599 23.8323 14.5599 21.1761 14.5652C21.155 14.5672 21.1341 14.5712 21.1137 14.5771C20.7989 14.5771 20.4841 14.5572 20.1707 14.5678C19.7723 14.5798 19.5332 14.8202 19.5279 15.2319C19.5199 15.7871 19.5212 16.3422 19.5279 16.8974C19.5279 17.3144 19.7643 17.5734 20.1787 17.596C20.4841 17.6079 20.8002 17.584 21.1177 17.5774Z" fill="#020404"/>
<path id="Vector_27" d="M30.8114 27.472C30.8114 28.2688 30.8114 29.0724 30.8114 29.8732C30.8114 30.7498 30.2389 31.3169 29.365 31.3169C28.9971 31.3169 28.6266 31.362 28.2614 31.2784C27.9635 31.2192 27.6949 31.0597 27.5003 30.8265C27.3058 30.5933 27.197 30.3004 27.1922 29.9967C27.1807 28.2808 27.1807 26.5644 27.1922 24.8476C27.1959 24.5541 27.3068 24.2721 27.504 24.0546C27.7011 23.8372 27.971 23.6993 28.2627 23.6669C28.7448 23.6078 29.2323 23.6078 29.7143 23.6669C30.0175 23.6928 30.2993 23.8334 30.5024 24.0599C30.7055 24.2865 30.8146 24.5819 30.8074 24.8861C30.8207 25.7494 30.8074 26.6127 30.8074 27.4759L30.8114 27.472ZM28.1551 29.6182C28.1153 30.2504 28.2229 30.3673 28.8457 30.3686H29.1632C29.794 30.3686 29.891 30.2624 29.8458 29.6209C29.8458 28.0643 29.8507 26.5073 29.8604 24.9499C29.8668 24.9026 29.8621 24.8546 29.8466 24.8096C29.8311 24.7645 29.8053 24.7237 29.7712 24.6904C29.7372 24.6571 29.6958 24.6323 29.6504 24.6178C29.605 24.6034 29.5568 24.5997 29.5098 24.6072H28.4978C28.2654 24.6072 28.1418 24.7201 28.1418 24.9525C28.1445 26.5064 28.1489 28.0617 28.1551 29.6182Z" fill="#030302"/>
<path id="Vector_28" d="M22.8565 25.4491C22.8565 25.1662 22.8392 24.8807 22.8565 24.5991C22.895 24.0612 23.239 23.6907 23.7782 23.6535C24.3763 23.605 24.9775 23.6077 25.5752 23.6615C25.8209 23.6748 26.0519 23.7826 26.2199 23.9623C26.388 24.142 26.4801 24.3797 26.477 24.6257C26.4942 25.1822 26.4956 25.7413 26.477 26.2978C26.471 26.5596 26.3619 26.8086 26.1734 26.9904C25.9849 27.1722 25.7322 27.2722 25.4703 27.2686C24.939 27.2819 24.3958 27.2806 23.8592 27.2686C23.6043 27.2735 23.3574 27.1794 23.1704 27.006C22.9834 26.8326 22.8709 26.5935 22.8565 26.339C22.8366 26.0401 22.8565 25.744 22.8565 25.4491ZM25.5353 25.4584C25.5353 24.6164 25.5353 24.6164 24.68 24.6164C23.8247 24.6164 23.8181 24.6164 23.8234 25.4876C23.8234 26.323 23.8234 26.323 24.6574 26.323C25.534 26.323 25.534 26.323 25.5353 25.4584Z" fill="#020404"/>
<path id="Vector_29" d="M24.6573 31.3195C24.4036 31.3195 24.1513 31.3195 23.8989 31.3195C23.3053 31.3075 22.8843 30.9396 22.8564 30.3566C22.8285 29.7735 22.8298 29.2197 22.8564 28.6539C22.8829 28.0881 23.2362 27.7335 23.8007 27.7043C24.3789 27.6731 24.9583 27.6731 25.5365 27.7043C26.1076 27.7375 26.4662 28.1546 26.4795 28.731C26.4875 29.2463 26.4875 29.7611 26.4795 30.2756C26.4837 30.4129 26.4598 30.5497 26.4094 30.6776C26.359 30.8054 26.2831 30.9217 26.1863 31.0192C26.0895 31.1168 25.9738 31.1936 25.8463 31.245C25.7189 31.2964 25.5823 31.3213 25.4449 31.3181C25.1832 31.3248 24.9203 31.3195 24.6573 31.3195ZM25.5325 29.4973C25.5325 29.2874 25.5325 29.0763 25.5325 28.8678C25.5325 28.7203 25.4794 28.6606 25.3293 28.6619C24.8884 28.6619 24.4475 28.6619 24.0012 28.6619C23.8684 28.6619 23.8113 28.7177 23.8139 28.8505C23.8139 29.0816 23.8139 29.3113 23.8139 29.5424C23.8139 30.3672 23.8139 30.3672 24.656 30.3672C25.5299 30.3685 25.5299 30.3685 25.5325 29.4973Z" fill="#020404"/>
<path id="Vector_30" d="M22.1876 25.4532C22.1876 25.7188 22.1876 25.9778 22.1876 26.2408C22.192 26.3728 22.1701 26.5044 22.1229 26.6279C22.0758 26.7513 22.0045 26.8641 21.9132 26.9596C21.8219 27.0551 21.7124 27.1314 21.5913 27.184C21.4701 27.2367 21.3396 27.2646 21.2075 27.2661C20.651 27.2847 20.0905 27.286 19.534 27.2661C19.4045 27.2644 19.2765 27.2369 19.1576 27.1854C19.0387 27.1339 18.9313 27.0592 18.8414 26.9658C18.7516 26.8724 18.6812 26.7621 18.6344 26.6413C18.5875 26.5205 18.5651 26.3916 18.5685 26.262C18.5605 25.7148 18.5605 25.1681 18.5685 24.6218C18.5616 24.3869 18.6439 24.158 18.7989 23.9814C18.9539 23.8047 19.17 23.6933 19.4039 23.6695C20.0531 23.5971 20.7083 23.5971 21.3575 23.6695C21.5901 23.6987 21.8035 23.8133 21.9564 23.991C22.1093 24.1686 22.1907 24.3968 22.185 24.6311C22.1929 24.906 22.1863 25.1796 22.1876 25.4532ZM20.3575 26.3231C20.5673 26.3231 20.7785 26.3231 20.9883 26.3231C21.1596 26.3231 21.238 26.266 21.234 26.0854C21.2261 25.6657 21.234 25.2447 21.234 24.825C21.234 24.6537 21.161 24.6098 21.0056 24.6125C20.5846 24.6125 20.1636 24.6218 19.7425 24.6125C19.5539 24.6125 19.5101 24.6935 19.5168 24.8595C19.5261 25.0694 19.5168 25.2805 19.5168 25.4904C19.5234 26.3231 19.5234 26.3231 20.3575 26.3231Z" fill="#030302"/>
<path id="Vector_31" d="M20.0328 31.3301C19.908 31.3301 19.7818 31.3221 19.6556 31.3208C18.9809 31.3142 18.5759 30.9157 18.5679 30.2503C18.5679 30.1175 18.5679 29.9993 18.5586 29.8745C18.5586 29.4853 18.5586 29.0949 18.5679 28.7057C18.5812 28.1373 18.9265 27.7455 19.4976 27.7043C20.0969 27.6565 20.6992 27.6565 21.2985 27.7043C21.5438 27.72 21.7735 27.8303 21.9392 28.0118C22.1049 28.1934 22.1937 28.4321 22.187 28.6778C22.1977 29.2091 22.1963 29.7523 22.187 30.2888C22.1905 30.4237 22.1665 30.5578 22.1167 30.6832C22.0669 30.8085 21.9922 30.9225 21.8971 31.0182C21.8021 31.1139 21.6886 31.1893 21.5636 31.24C21.4385 31.2906 21.3046 31.3154 21.1697 31.3128C20.7925 31.3288 20.4127 31.3274 20.0328 31.3301ZM21.2361 29.4946C21.2361 29.2848 21.2361 29.0749 21.2361 28.8651C21.2361 28.7177 21.1843 28.6592 21.0342 28.6619C20.5933 28.6619 20.151 28.6619 19.7061 28.6619C19.5733 28.6619 19.5148 28.715 19.5175 28.8478C19.5175 29.0789 19.5175 29.31 19.5175 29.5411C19.5175 30.3672 19.5175 30.3672 20.3569 30.3685C21.2414 30.3685 21.2414 30.3685 21.2361 29.4946Z" fill="#030302"/>
<path id="Vector_32" d="M22.1885 21.2072C22.1885 21.4728 22.1885 21.753 22.1885 22.0266C22.1903 22.2774 22.0942 22.5189 21.9205 22.6998C21.7468 22.8807 21.5094 22.9865 21.2588 22.9948C20.6704 23.0148 20.0794 23.0134 19.491 22.9948C19.2461 22.9876 19.0135 22.8858 18.8422 22.7107C18.6708 22.5356 18.5739 22.3009 18.572 22.0558C18.5587 21.4887 18.56 20.9203 18.572 20.3532C18.5749 20.1029 18.6741 19.8634 18.8489 19.6844C19.0238 19.5053 19.2608 19.4005 19.511 19.3916C20.0887 19.373 20.6691 19.373 21.2481 19.3916C21.4973 19.4038 21.7326 19.5103 21.906 19.6897C22.0794 19.869 22.1781 20.1077 22.1818 20.3572C22.1964 20.6387 22.1885 20.923 22.1885 21.2072ZM20.3517 22.0412C20.5721 22.0412 20.7952 22.0346 21.0157 22.0412C21.1791 22.0479 21.2428 21.9881 21.2362 21.8221C21.2269 21.591 21.2362 21.3586 21.2362 21.1262C21.2362 20.3293 21.2362 20.3293 20.426 20.3359C20.1352 20.3359 19.762 20.2031 19.576 20.3997C19.3901 20.5962 19.5269 20.9442 19.5256 21.2258C19.5256 22.0412 19.5256 22.0412 20.3517 22.0412Z" fill="#030302"/>
<path id="Vector_33" d="M24.6477 22.9975C24.3528 22.9975 24.0567 23.0121 23.7618 22.9975C23.5324 22.9881 23.3146 22.8942 23.1503 22.7338C22.986 22.5735 22.8869 22.358 22.872 22.1289C22.8454 21.5086 22.8441 20.8857 22.872 20.2695C22.8908 20.0296 23 19.8058 23.1775 19.6433C23.355 19.4809 23.5876 19.3918 23.8282 19.3943C24.3874 19.381 24.9478 19.3796 25.5057 19.3943C25.7626 19.3977 26.008 19.5012 26.1898 19.6827C26.3716 19.8643 26.4754 20.1096 26.4792 20.3664C26.4964 20.9243 26.4978 21.4834 26.4792 22.0412C26.4764 22.298 26.3722 22.5433 26.1894 22.7237C26.0065 22.904 25.7598 23.0048 25.503 23.0041C25.2188 23.016 24.9332 23.0041 24.6477 23.0041V22.9975ZM24.6769 22.0412C24.8668 22.0412 25.0568 22.0306 25.2453 22.0412C25.4565 22.0571 25.5561 21.9947 25.5362 21.7636C25.5203 21.5657 25.5362 21.3652 25.5362 21.166C25.5362 20.3332 25.5362 20.3293 24.6928 20.3346C24.4272 20.3346 24.0779 20.219 23.896 20.3797C23.6928 20.559 23.8296 20.911 23.8269 21.1925C23.8163 22.0412 23.8243 22.0412 24.6769 22.0412Z" fill="#030302"/>
<path id="Vector_34" d="M29.0252 23.0002C28.7304 23.0002 28.4355 23.0121 28.1407 23.0002C27.8909 22.9921 27.6536 22.8886 27.4777 22.711C27.3019 22.5334 27.2007 22.2951 27.1951 22.0453C27.1804 21.4781 27.1791 20.911 27.1951 20.3439C27.2028 20.0935 27.306 19.8555 27.4835 19.6787C27.6611 19.5019 27.8995 19.3997 28.15 19.393C28.7184 19.3762 29.2869 19.3762 29.8553 19.393C30.1058 19.397 30.345 19.4979 30.5228 19.6744C30.7005 19.851 30.8031 20.0895 30.8089 20.3399C30.8248 20.9181 30.8248 21.4936 30.8089 22.0665C30.8038 22.3115 30.7042 22.545 30.531 22.7183C30.3577 22.8915 30.1242 22.9911 29.8792 22.9962C29.5936 23.0135 29.3094 23.0002 29.0252 23.0002ZM29.8473 21.4064C29.8473 21.1235 29.8473 20.8406 29.8633 20.5564C29.8633 20.3997 29.8247 20.3306 29.6521 20.3346C29.2204 20.3453 28.7888 20.3439 28.3572 20.3346C28.1885 20.3346 28.134 20.3944 28.1407 20.5551C28.1526 20.838 28.1526 21.1222 28.1579 21.4051C28.1587 21.5195 28.1533 21.6339 28.142 21.7478C28.1035 22.0014 28.2097 22.0758 28.4541 22.0585C28.7197 22.0386 28.9973 22.0585 29.2696 22.0585C29.8938 22.0506 29.8938 22.0506 29.8473 21.4038V21.4064Z" fill="#030302"/>
<path id="Vector_35" d="M6.98686 26.1637C7.19537 26.1849 7.37467 26.2713 7.43444 26.4904C7.44856 26.556 7.48275 26.6155 7.53226 26.6607C7.58177 26.7059 7.64413 26.7346 7.71069 26.7428C7.81236 26.7681 7.90804 26.8132 7.99225 26.8756C8.04292 26.905 8.08718 26.9443 8.12242 26.9911C8.15765 27.0379 8.18314 27.0913 8.19738 27.1481C8.21162 27.2049 8.21432 27.2641 8.20532 27.322C8.19632 27.3798 8.1758 27.4354 8.14498 27.4852C8.12158 27.5391 8.08717 27.5876 8.04396 27.6274C8.00076 27.6673 7.94971 27.6977 7.89408 27.7167C7.83844 27.7357 7.77946 27.7429 7.72089 27.7378C7.66233 27.7327 7.60547 27.7154 7.55397 27.6871C7.39346 27.6065 7.21554 27.5668 7.036 27.5715C6.91514 27.5808 6.77037 27.5715 6.73451 27.7389C6.69865 27.9062 6.80623 27.9739 6.92576 28.0297C7.10772 28.1134 7.29365 28.1864 7.47826 28.2635C7.9949 28.4826 8.28444 28.8717 8.29639 29.4322C8.30834 29.9635 8.1317 30.4084 7.61772 30.6501C7.57231 30.6741 7.53324 30.7085 7.50369 30.7506C7.47415 30.7926 7.45496 30.841 7.44772 30.8918C7.42406 30.9969 7.36404 31.0902 7.27826 31.1554C7.19248 31.2205 7.08645 31.2532 6.97889 31.2478C6.87708 31.2514 6.77721 31.2192 6.69665 31.1569C6.61609 31.0945 6.55994 31.0059 6.53795 30.9064C6.52528 30.8458 6.49576 30.7899 6.45276 30.7453C6.40977 30.7006 6.35505 30.669 6.2949 30.6541C6.09315 30.5857 5.91831 30.455 5.79553 30.2809C5.71717 30.1802 5.6792 30.0538 5.68902 29.9266C5.69885 29.7994 5.75577 29.6804 5.84865 29.5929C6.03592 29.4203 6.25506 29.4362 6.48881 29.654C6.59913 29.7712 6.74828 29.8444 6.9085 29.8599C7.07983 29.8692 7.25912 29.8599 7.32553 29.6567C7.34497 29.6129 7.35558 29.5657 7.35675 29.5179C7.35793 29.47 7.34964 29.4223 7.33236 29.3777C7.31509 29.333 7.28917 29.2922 7.25609 29.2576C7.22301 29.2229 7.18342 29.1952 7.13959 29.1759C6.91381 29.063 6.67209 28.9833 6.44631 28.8717C6.17091 28.7535 5.95333 28.5313 5.8409 28.2535C5.72848 27.9757 5.73031 27.6647 5.846 27.3882C5.88521 27.256 5.9585 27.1365 6.0585 27.0416C6.28162 26.849 6.53928 26.7016 6.61498 26.3709C6.64287 26.2288 6.82615 26.1823 6.98686 26.1637Z" fill="#030302"/>
<path id="Vector_36" d="M21.1159 17.5773C20.8024 17.5839 20.4863 17.6078 20.1742 17.5919C19.7598 17.5693 19.5274 17.3103 19.5234 16.8933C19.5234 16.3381 19.5234 15.783 19.5234 15.2278C19.5234 14.8201 19.7625 14.5797 20.1663 14.5638C20.4797 14.5531 20.7945 14.5638 21.1092 14.5731C20.8151 15.5532 20.8174 16.5984 21.1159 17.5773Z" fill="#1E7FCB"/>
<path id="Vector_37" d="M28.1565 29.6181C28.1565 28.0616 28.1525 26.505 28.1445 24.9485C28.1445 24.716 28.268 24.6031 28.5005 24.6031H29.5125C29.5598 24.5958 29.6082 24.5996 29.6538 24.6144C29.6994 24.6291 29.7408 24.6544 29.7748 24.6881C29.8088 24.7219 29.8344 24.7631 29.8495 24.8086C29.8646 24.854 29.8688 24.9024 29.8618 24.9498C29.8547 26.5081 29.8498 28.0651 29.8472 29.6208C29.288 29.7215 28.7153 29.7206 28.1565 29.6181Z" fill="#FC9611"/>
<path id="Vector_38" d="M28.1562 29.6182C28.7152 29.7198 29.2879 29.7198 29.8469 29.6182C29.8921 30.2596 29.7951 30.3659 29.1642 30.3659H28.8468C28.2226 30.3672 28.115 30.2504 28.1562 29.6182Z" fill="#EA8500"/>
<path id="Vector_39" d="M25.5323 25.4585C25.5323 26.3231 25.5323 26.3231 24.6544 26.3231C23.8243 26.3231 23.8243 26.3231 23.8203 25.4877C23.8203 24.6165 23.8203 24.6165 24.677 24.6165C25.5336 24.6165 25.5349 24.6165 25.5323 25.4585Z" fill="#317E46"/>
<path id="Vector_40" d="M25.5309 29.4973C25.5309 30.3685 25.5309 30.3685 24.6623 30.3672C23.8243 30.3672 23.8243 30.3672 23.8203 29.5424C23.8203 29.3113 23.8203 29.0816 23.8203 28.8505C23.8203 28.7176 23.8734 28.6619 24.0076 28.6619C24.4498 28.6619 24.8908 28.6619 25.3357 28.6619C25.4858 28.6619 25.5429 28.7203 25.5389 28.8677C25.527 29.0762 25.5323 29.2874 25.5309 29.4973Z" fill="#317E46"/>
<path id="Vector_41" d="M20.3595 26.3231C19.5267 26.3231 19.5267 26.3231 19.5241 25.4903C19.5241 25.2805 19.5241 25.0693 19.5241 24.8595C19.5174 24.6935 19.5613 24.6085 19.7498 24.6124C20.1709 24.6231 20.5919 24.6204 21.0129 24.6124C21.1683 24.6124 21.244 24.6536 21.2413 24.8249C21.232 25.2446 21.2307 25.6656 21.2413 26.0853C21.2413 26.266 21.167 26.3284 20.9956 26.3231C20.7805 26.3178 20.5693 26.3231 20.3595 26.3231Z" fill="#317E46"/>
<path id="Vector_42" d="M21.2328 29.4946C21.2328 30.3685 21.2328 30.3685 20.3589 30.3685C19.5235 30.3685 19.5235 30.3685 19.5195 29.5411C19.5195 29.31 19.5195 29.0789 19.5195 28.8478C19.5195 28.715 19.574 28.6606 19.7081 28.6619C20.1491 28.6619 20.5913 28.6619 21.0362 28.6619C21.1863 28.6619 21.2434 28.7177 21.2381 28.8651C21.2275 29.0749 21.2328 29.2848 21.2328 29.4946Z" fill="#317E46"/>
<path id="Vector_43" d="M20.3513 22.0412C19.5265 22.0412 19.5225 22.0412 19.5252 21.2284C19.5252 20.9469 19.4057 20.583 19.5757 20.4023C19.7457 20.2217 20.1348 20.3412 20.4257 20.3386C21.2358 20.3266 21.2358 20.3386 21.2358 21.1288C21.2358 21.3612 21.2265 21.5937 21.2358 21.8248C21.2425 21.9908 21.1787 22.0505 21.0154 22.0439C20.7949 22.0346 20.5718 22.0412 20.3513 22.0412Z" fill="#317E46"/>
<path id="Vector_44" d="M24.6741 22.0412C23.8215 22.0412 23.8135 22.0412 23.8241 21.1952C23.8241 20.9177 23.6913 20.5617 23.8932 20.3824C24.0738 20.2217 24.4244 20.3399 24.6901 20.3373C25.5348 20.3373 25.5347 20.3373 25.5334 21.1687C25.5334 21.3679 25.5188 21.5671 25.5334 21.7663C25.5533 21.9974 25.4537 22.0598 25.2426 22.0439C25.054 22.0306 24.864 22.0412 24.6741 22.0412Z" fill="#317E46"/>
<path id="Vector_45" d="M28.1584 21.4024C28.1584 21.1195 28.1584 20.8353 28.1412 20.5524C28.1345 20.3917 28.189 20.328 28.3576 20.332C28.7893 20.3413 29.2209 20.3426 29.6526 20.332C29.8252 20.332 29.8704 20.397 29.8637 20.5538C29.8518 20.838 29.8518 21.1209 29.8478 21.4038L28.1584 21.4024Z" fill="#FC9611"/>
<path id="Vector_46" d="M28.1565 21.4023H29.8458C29.8923 22.0491 29.8923 22.0491 29.2681 22.0491C28.9958 22.0491 28.7222 22.0345 28.4526 22.0491C28.2082 22.0664 28.102 21.992 28.1405 21.7384C28.1516 21.6267 28.1569 21.5145 28.1565 21.4023Z" fill="#EA8500"/>
</g>
</svg>
