<svg width="34" height="32" viewBox="0 0 34 32" fill="none" xmlns="http://www.w3.org/2000/svg">
<g id="Relacionar">
<path id="Vector" d="M33.4656 10.3166C33.3687 10.3391 33.3793 10.4334 33.358 10.4958C33.2503 10.8289 33.0581 11.1284 32.8002 11.3651C32.5423 11.6018 32.2275 11.7677 31.8865 11.8466C31.8207 11.859 31.7597 11.8896 31.7104 11.9349C31.6611 11.9802 31.6255 12.0384 31.6076 12.1029C31.313 12.9082 30.776 13.6025 30.0705 14.0901C29.3651 14.5777 28.5259 14.8346 27.6684 14.8255C26.7697 14.8308 25.8696 14.8308 24.9683 14.8255C24.1111 14.8348 23.2721 14.5787 22.5662 14.0925C21.8603 13.6063 21.322 12.9136 21.0251 12.1095C21.0036 12.0412 20.9635 11.9801 20.9093 11.9332C20.8552 11.8863 20.789 11.8554 20.7183 11.8439C20.4555 11.7775 20.2084 11.6597 19.9913 11.4973C19.7743 11.335 19.5915 11.1312 19.4536 10.8979C19.3157 10.6645 19.2253 10.4061 19.1878 10.1377C19.1502 9.86923 19.1662 9.59599 19.2348 9.33374C19.2977 9.05377 19.4593 8.80578 19.69 8.63509C19.9206 8.4644 20.205 8.38239 20.4912 8.40405C20.7169 8.41733 20.7568 8.35757 20.7568 8.15436C20.7488 6.68723 20.7488 5.21921 20.7568 3.7503C20.7581 2.22429 21.6719 1.0396 23.1062 0.703583C23.3468 0.648987 23.5927 0.621369 23.8394 0.621239C25.4889 0.621239 27.1398 0.60663 28.7906 0.621239C30.3485 0.635849 31.5438 1.61999 31.8267 3.10085C31.8655 3.34408 31.8811 3.59045 31.8732 3.83663C31.8785 5.27278 31.8785 6.70892 31.8732 8.14507C31.8732 8.33499 31.8851 8.41999 32.1282 8.41069C32.7577 8.36686 33.2425 8.74538 33.4059 9.35499C33.4178 9.40413 33.4059 9.46522 33.4683 9.4878L33.4656 10.3166ZM24.5937 1.60007C24.0625 1.54561 23.5193 1.5403 23.0146 1.74483C21.9016 2.19772 21.563 3.22835 21.7502 4.591C22.3319 4.14874 22.9827 4.05975 23.6707 4.166C24.0966 4.3406 24.492 4.58179 24.8421 4.88054C24.9996 5.0089 25.1636 5.12903 25.3335 5.24046C25.9843 5.66413 26.6444 5.65616 27.2951 5.24046C27.5107 5.10057 27.7162 4.94568 27.9101 4.77694C28.7667 4.04913 29.6831 3.86452 30.6885 4.45155C30.8771 4.56179 30.905 4.47546 30.9023 4.30811C30.9023 4.05179 30.9023 3.79413 30.9023 3.53647C30.8912 3.11064 30.7431 2.69974 30.4799 2.36478C30.2167 2.02982 29.8525 1.78866 29.4414 1.6771C29.2574 1.62018 29.0668 1.58715 28.8743 1.57882C27.4439 1.5828 26.0188 1.55093 24.5937 1.60007ZM25.3641 13.8454C26.0812 13.8454 26.7984 13.8587 27.5156 13.8587C29.5437 13.8587 30.9023 12.5053 30.9076 10.4826C30.9076 9.15444 30.8771 7.82632 30.9236 6.49819C30.9422 5.96694 30.7191 5.65483 30.3339 5.3839C29.7601 4.98546 29.2714 4.98546 28.7136 5.39851C28.5077 5.55124 28.3151 5.7146 28.104 5.86866C26.9273 6.75186 25.7041 6.75054 24.526 5.86866C24.2697 5.67741 24.0094 5.49015 23.7517 5.30155C23.7392 5.28421 23.7245 5.26858 23.7079 5.25507C23.2072 4.97483 22.6866 5.05718 22.1726 5.48483C22.0181 5.59565 21.8939 5.74343 21.8113 5.91466C21.7287 6.0859 21.6903 6.27511 21.6998 6.46499C21.7343 7.76921 21.7117 9.07608 21.713 10.3816C21.7054 10.6936 21.7331 11.0055 21.7954 11.3113C22.1673 12.9728 23.5737 13.9729 25.3641 13.8454ZM31.8719 10.8026C32.0824 10.7089 32.2567 10.5493 32.3686 10.3478C32.4805 10.1463 32.5238 9.91395 32.4921 9.68569C32.4602 9.49843 32.3739 9.35233 32.1641 9.36694C31.9542 9.38155 31.8719 9.521 31.8719 9.71757C31.8719 10.0682 31.8719 10.4188 31.8719 10.8026ZM20.7435 10.1505V9.67241C20.7477 9.59421 20.7207 9.51754 20.6684 9.45926C20.6161 9.40097 20.5428 9.36586 20.4646 9.36163C20.3864 9.3574 20.3097 9.38441 20.2514 9.43672C20.1932 9.48902 20.158 9.56234 20.1538 9.64054C20.1202 9.81342 20.1296 9.99194 20.1812 10.1603C20.2329 10.3287 20.3252 10.4818 20.45 10.6061C20.5164 10.6712 20.5828 10.7801 20.6784 10.7522C20.7993 10.7163 20.7316 10.5875 20.7395 10.5012C20.7515 10.3856 20.7435 10.2674 20.7435 10.1505Z" fill="black"/>
<path id="Vector_2" d="M25.1133 20.8977C25.5608 20.8087 25.6844 20.8711 25.8676 21.2775C26.2024 22.0336 26.3735 22.8519 26.3697 23.6788C26.3697 24.0108 26.3803 24.3428 26.3697 24.6749C26.3551 25.0799 26.3803 25.4093 26.7402 25.7374C27.3033 26.2487 27.2011 27.3736 26.6074 28.0576C26.5253 28.1466 26.4623 28.2513 26.4221 28.3655C26.3819 28.4797 26.3654 28.6009 26.3737 28.7217C26.3843 29.5039 26.3737 30.2862 26.3737 31.0685C26.3737 31.5665 26.2116 31.7325 25.7216 31.7325H14.208C13.698 31.7325 13.544 31.5731 13.544 31.0499C13.544 30.2251 13.544 29.4003 13.544 28.5742C13.547 28.4959 13.534 28.4178 13.5056 28.3447C13.4773 28.2716 13.4343 28.2051 13.3793 28.1492C13.1477 27.908 12.9805 27.6123 12.8932 27.2894C12.806 26.9666 12.8014 26.6269 12.8799 26.3018C12.937 26.0362 13.0419 25.7706 13.2783 25.6231C13.544 25.4585 13.5599 25.2433 13.5599 24.9777C13.5599 23.9829 13.5015 22.9855 13.7844 22.0106C14.463 19.6731 16.6093 17.9705 19.0358 17.9028C20.0983 17.8722 21.1608 17.7978 22.198 18.098C23.0244 18.33 23.7877 18.7459 24.4306 19.3146C24.7746 19.62 24.7958 19.7488 24.5807 20.146C24.2805 20.3438 24.0375 20.2642 23.7838 20.0331C23.1392 19.444 22.3338 19.0602 21.4702 18.9307C20.5658 18.7979 19.656 18.8457 18.7476 18.8922C18.4173 18.9182 18.0919 18.9869 17.7794 19.0967C16.7861 19.4302 15.9301 20.0812 15.3435 20.9494C14.7569 21.8175 14.4722 22.8546 14.5334 23.9006C14.5507 24.3521 14.5334 24.3508 14.9651 24.299C15.0979 24.2831 15.244 24.2884 15.3821 24.2738C16.1489 24.2119 16.9089 24.0831 17.6532 23.8886C19.2469 23.5327 20.8075 23.0997 22.0918 22.0093C22.3933 21.7543 22.6894 21.8074 22.8966 22.1421C22.963 22.2524 23.0215 22.3666 23.0905 22.4755C23.651 23.3587 24.3098 24.125 25.4094 24.3681C25.448 23.4251 25.3962 22.5021 24.9831 21.6374C24.833 21.3492 24.8623 21.1062 25.1133 20.8977ZM17.3172 24.9883C16.7461 25.0706 16.175 25.1623 15.6026 25.2274C15.4246 25.2473 15.3728 25.2978 15.3755 25.4744C15.3861 26.1172 15.3755 26.7613 15.3755 27.4042C15.3821 29.496 16.9692 30.9317 19.053 30.7417C19.8233 30.7417 20.595 30.7829 21.364 30.7484C23.0002 30.6753 24.2208 29.6421 24.4744 28.0788C24.6285 27.1372 24.5063 26.1756 24.5302 25.2247C24.5302 25.1317 24.4798 25.0919 24.4067 25.06C23.558 24.6762 22.9458 24.0228 22.4384 23.271C22.3401 23.1276 22.2751 23.0917 22.1183 23.202C21.5766 23.5647 20.9945 23.8633 20.3838 24.0918C19.3877 24.4916 18.3558 24.7386 17.3172 24.9883ZM23.9804 30.7643C24.4466 30.7643 24.8105 30.7563 25.1757 30.7643C25.3576 30.7643 25.4174 30.7059 25.4134 30.5253C25.4041 30.0445 25.4134 29.5624 25.4134 29.0816C25.4134 28.9873 25.4639 28.8731 25.3311 28.7735C25.071 29.5479 24.6039 30.2365 23.9804 30.7643ZM15.9359 30.7643C15.2533 30.1959 14.8641 29.5318 14.5454 28.8106C14.5082 29.411 14.5108 29.9953 14.5069 30.5797C14.5069 30.7471 14.6025 30.767 14.7353 30.7656C15.0992 30.759 15.4618 30.7617 15.9346 30.7617L15.9359 30.7643ZM25.4984 27.691C25.7083 27.6001 25.8822 27.4422 25.9929 27.2421C26.1037 27.042 26.1451 26.8108 26.1107 26.5847C26.0762 26.4014 26.0005 26.254 25.7773 26.2753C25.5542 26.2965 25.4984 26.4426 25.4984 26.6352V27.691ZM14.4126 27.7136V26.6219C14.4126 26.4267 14.3355 26.2885 14.1204 26.2753C13.9052 26.262 13.8322 26.4187 13.799 26.598C13.7233 27.0097 13.9517 27.4467 14.4139 27.711L14.4126 27.7136Z" fill="black"/>
<path id="Vector_3" d="M10.0828 5.15539C10.1798 4.78218 10.306 4.67328 10.6871 4.67195C11.8878 4.67195 13.0879 4.67195 14.2877 4.67195C14.6994 4.67195 14.8774 4.85523 14.8707 5.26562C14.8561 6.17273 14.9504 7.08648 14.6941 7.98164C14.401 9.05486 13.7514 9.99634 12.852 10.6512C12.7748 10.6954 12.7118 10.7605 12.6699 10.8389C12.6281 10.9174 12.6093 11.0061 12.6156 11.0948C12.6328 11.6512 12.6275 12.2091 12.6156 12.7669C12.6156 12.9475 12.6302 13.0205 12.8506 13.0139C13.5466 12.9953 14.0274 13.4389 14.1017 14.1255C14.2146 15.1721 13.6515 16.0141 12.6302 16.3116C12.5644 16.3271 12.504 16.3599 12.4552 16.4066C12.4064 16.4533 12.371 16.5122 12.3526 16.5773C12.074 17.3248 11.575 17.9701 10.9216 18.4278C10.2683 18.8855 9.49132 19.134 8.69361 19.1405C7.7719 19.1578 6.84885 19.1751 5.92846 19.1405C4.2019 19.0688 2.9933 18.2042 2.31065 16.6171C2.28483 16.5397 2.23969 16.4702 2.17949 16.4151C2.1193 16.36 2.04604 16.3212 1.96666 16.3023C1.47529 16.1661 1.05617 15.844 0.797913 15.4043C0.539655 14.9647 0.462499 14.4418 0.582756 13.9462C0.63291 13.6752 0.779693 13.4316 0.995856 13.2607C1.21202 13.0897 1.48288 13.003 1.75815 13.0166C1.99322 13.0166 2.06229 12.9568 2.02377 12.7377C2.01447 12.6631 2.01447 12.5877 2.02377 12.5132C2.05299 12.1652 2.02377 11.8757 1.67049 11.6473C1.3544 11.4387 1.26408 11.0562 1.26276 10.6764C1.26276 9.93664 1.24549 9.19687 1.26276 8.45843C1.29862 7.1821 2.20838 6.30421 3.48604 6.28828C3.93627 6.28828 4.38651 6.27898 4.83674 6.28828C4.90851 6.29863 4.9817 6.28531 5.04522 6.25031C5.10873 6.21532 5.1591 6.16057 5.18869 6.09437C5.4001 5.69936 5.70798 5.36423 6.0837 5.12018C6.45941 4.87613 6.89076 4.73107 7.3376 4.69851C7.7533 4.65999 8.17299 4.6746 8.59002 4.67328C8.92338 4.67328 9.0801 4.87382 9.13455 5.17929C9.06549 5.50734 8.86893 5.65609 8.52893 5.63749C8.39316 5.63666 8.25746 5.64375 8.12252 5.65874C8.00697 5.64945 7.8901 5.63351 7.77322 5.63484C6.5394 5.64679 5.80627 6.38788 5.80494 7.61906C5.80494 8.04671 5.79565 8.47437 5.80494 8.90203C5.80752 9.19227 5.88157 9.4774 6.02056 9.73221C6.15955 9.98703 6.35919 10.2037 6.60182 10.363C7.03877 10.6698 7.53151 10.6884 8.04682 10.6379C8.72151 10.6379 9.39752 10.6737 10.0709 10.6472C11.4561 10.5927 12.516 9.94593 13.2783 8.79976C13.8866 7.88601 13.9424 6.85406 13.9012 5.80218C13.8932 5.5857 13.7431 5.64148 13.6276 5.64015C12.6421 5.64015 11.6553 5.64015 10.6699 5.64015C10.2794 5.63351 10.1771 5.54453 10.0828 5.15539ZM3.68393 7.27109C2.86979 7.15421 2.25885 7.65624 2.2469 8.4664C2.2376 9.03351 2.2469 9.60195 2.2469 10.1704C2.2469 10.9513 2.07557 11.1492 3.23502 11.0629C3.9283 11.1187 4.55651 10.9779 5.06252 10.4652C5.14221 10.3842 5.24713 10.3125 5.16612 10.1664C4.82612 9.56078 4.83807 8.89539 4.83408 8.22867C4.83408 7.90593 4.99877 7.46234 4.75307 7.29101C4.52862 7.13429 4.11158 7.25382 3.77955 7.25249C3.74712 7.25536 3.71507 7.26159 3.68393 7.27109ZM4.83674 11.7947C4.33483 11.9826 3.79939 12.0645 3.26424 12.0351C3.02385 12.0191 2.98533 12.1174 2.98799 12.3299C2.99862 13.2304 2.98799 14.1295 2.99596 15.03C2.99443 15.2869 3.0198 15.5433 3.07166 15.795C3.42494 17.3648 4.76104 18.2945 6.44643 18.1617C7.2433 18.1617 8.03221 18.1883 8.82377 18.1617C10.3086 18.1152 11.6049 16.8336 11.6474 15.3461C11.6832 14.0724 11.6553 12.7961 11.662 11.5198C11.662 11.3591 11.6288 11.3126 11.4628 11.3723C10.8606 11.5678 10.2277 11.6515 9.59541 11.6194C9.00572 11.6101 8.41604 11.6048 7.82635 11.6194C7.18156 11.664 6.54066 11.489 6.00815 11.1227C5.91518 11.0562 5.85408 11.0363 5.76908 11.1319C5.50877 11.4162 5.1701 11.6034 4.83674 11.7973V11.7947ZM12.6249 15.2956C13.0233 15.03 13.1867 14.7126 13.1561 14.2942C13.1428 14.1242 13.1083 13.9662 12.8905 13.9728C12.6727 13.9794 12.6249 14.1176 12.6249 14.3009C12.6275 14.613 12.6249 14.9237 12.6249 15.2983V15.2956ZM2.02643 15.2505V14.2584C2.02643 14.1016 1.97463 13.9927 1.79666 13.9728C1.61869 13.9529 1.53104 14.0737 1.50182 14.2384C1.46909 14.4414 1.5024 14.6496 1.59684 14.8323C1.69128 15.0149 1.84186 15.1625 2.02643 15.2531V15.2505Z" fill="black"/>
<path id="Vector_4" d="M10.0825 5.15552C10.1768 5.54599 10.2791 5.63364 10.6775 5.63364C11.663 5.63364 12.6498 5.63364 13.6353 5.63364C13.7508 5.63364 13.9009 5.57919 13.9089 5.79567C13.9474 6.84755 13.8943 7.8795 13.286 8.79325C12.5236 9.94208 11.4638 10.5915 10.0786 10.6433C9.40519 10.6699 8.72918 10.6433 8.05449 10.634C8.05449 10.5251 7.96816 10.4707 7.90973 10.3963C7.56309 9.95005 7.31871 9.46661 7.34129 8.87958C7.36121 8.36825 7.34926 7.85692 7.34129 7.34427C7.34089 6.88336 7.49158 6.43504 7.77027 6.06794C7.87519 5.92317 8.05184 5.83685 8.11824 5.65888C8.25318 5.64389 8.38888 5.63679 8.52465 5.63763C8.86066 5.65622 9.0559 5.50481 9.13027 5.17942L10.0825 5.15552Z" fill="#A97962"/>
<path id="Vector_5" d="M25.1148 20.8978C24.8638 21.1063 24.8319 21.3507 24.9713 21.6429C25.3844 22.5075 25.4362 23.4305 25.3977 24.3735C24.298 24.1304 23.6392 23.3641 23.0788 22.4809C23.0097 22.372 22.946 22.2578 22.8849 22.1475C22.6777 21.8102 22.3815 21.7571 22.08 22.0147C20.7957 23.1051 19.2352 23.5381 17.6414 23.894C17.6302 22.8708 17.7376 21.8498 17.9615 20.8513C18.1358 20.1691 18.396 19.5117 18.7358 18.895C19.6442 18.8485 20.554 18.7993 21.4585 18.9335C22.322 19.063 23.1274 19.4468 23.772 20.0358C24.0297 20.2669 24.2728 20.3466 24.5689 20.1487C24.7787 20.3769 24.9619 20.6282 25.1148 20.8978Z" fill="#DB626D"/>
<path id="Vector_6" d="M12.6262 27.8479C12.6262 28.2118 12.2916 28.4137 11.913 28.2663C10.786 27.8313 9.7224 27.247 8.75077 26.5291C6.56178 24.9202 4.89403 22.7033 3.95491 20.1541C3.93632 20.1049 3.91905 20.0531 3.90444 20.0027C3.86181 19.8858 3.86559 19.7571 3.91501 19.643C3.96442 19.5288 4.0557 19.438 4.17007 19.3891C4.22862 19.3619 4.2922 19.3472 4.35674 19.346C4.42129 19.3448 4.48537 19.3571 4.54489 19.3821C4.6044 19.4071 4.65804 19.4443 4.70236 19.4912C4.74668 19.5382 4.7807 19.5939 4.80226 19.6547C5.02007 20.1767 5.22062 20.7053 5.48358 21.2073C6.96135 24.0566 9.1833 26.0961 12.1494 27.326C12.5107 27.4694 12.6276 27.5916 12.6262 27.8479Z" fill="black"/>
<path id="Vector_7" d="M17.0086 1.42746C18.0052 1.4191 18.9995 1.52606 19.9716 1.74621C20.3355 1.82855 20.4949 2.053 20.4179 2.35582C20.3461 2.63605 20.1071 2.75425 19.7538 2.68253C16.468 2.01847 13.3536 2.48996 10.4383 4.18199C10.3055 4.26168 10.1647 4.3573 9.99074 4.33207C9.88831 4.324 9.79143 4.28222 9.71526 4.21325C9.63908 4.14429 9.58791 4.05203 9.56973 3.95089C9.54637 3.84531 9.56001 3.73491 9.60837 3.63818C9.65673 3.54146 9.73687 3.46431 9.83535 3.41964C10.6664 2.91415 11.5499 2.50044 12.4704 2.18582C13.9292 1.67794 15.4638 1.42151 17.0086 1.42746Z" fill="black"/>
<path id="Vector_8" d="M30.8911 15.8244C30.7808 18.924 29.6362 21.8976 27.6399 24.2713C27.4366 24.517 27.1458 24.5608 26.932 24.3948C26.7181 24.2288 26.6836 23.918 26.9014 23.655C28.8052 21.3754 29.8727 18.5136 29.9269 15.5441C29.9215 15.4479 29.9255 15.3514 29.9388 15.2559C29.9534 15.1424 30.01 15.0384 30.0976 14.9646C30.1852 14.8908 30.2972 14.8526 30.4116 14.8575C30.4712 14.8539 30.5309 14.8622 30.5872 14.8819C30.6436 14.9016 30.6954 14.9323 30.7398 14.9722C30.7842 15.0121 30.8202 15.0605 30.8457 15.1144C30.8712 15.1684 30.8857 15.2269 30.8884 15.2865C30.8986 15.4656 30.8995 15.6452 30.8911 15.8244Z" fill="black"/>
<path id="Vector_9" d="M23.7499 5.30022C24.0075 5.48881 24.2678 5.67608 24.5242 5.86733C25.7022 6.75186 26.9254 6.75319 28.1021 5.86733C28.3067 5.71327 28.5006 5.54991 28.7117 5.39717C29.2749 4.98014 29.7583 4.97749 30.3321 5.38256C30.7172 5.64819 30.9403 5.96561 30.9217 6.49686C30.8753 7.82499 30.9085 9.15311 30.9058 10.4812C30.9058 12.504 29.5418 13.8573 27.5138 13.8573C26.7966 13.8573 26.0794 13.8494 25.3622 13.844C25.3622 13.7458 25.2865 13.7112 25.2161 13.6501C25.0174 13.5077 24.8309 13.3491 24.6583 13.176C23.7964 12.2383 23.5958 11.1015 23.6888 9.87959C23.6888 9.84764 23.697 9.81623 23.7125 9.78833C23.7281 9.76044 23.7506 9.73699 23.7778 9.72022C24.0434 9.79592 24.2147 9.66577 24.309 9.436C24.3797 9.27958 24.4152 9.10958 24.4132 8.93796C24.4111 8.76633 24.3715 8.59724 24.2971 8.44256C24.1882 8.2128 24.0168 8.09459 23.7525 8.19553C23.6808 8.14506 23.6835 8.06272 23.6835 7.99498V5.50342C23.6874 5.43038 23.6808 5.35334 23.7499 5.30022ZM26.3145 12.4402C26.6721 12.4399 27.0168 12.3064 27.2814 12.0657C27.5124 11.8598 27.547 11.5995 27.3756 11.3817C27.3373 11.3298 27.2886 11.2864 27.2326 11.2543C27.1766 11.2222 27.1145 11.2021 27.0504 11.1953C26.9862 11.1884 26.9213 11.1949 26.8598 11.2144C26.7983 11.234 26.7415 11.266 26.693 11.3087C26.592 11.4059 26.4573 11.4602 26.3171 11.4602C26.177 11.4602 26.0422 11.4059 25.9413 11.3087C25.8925 11.2665 25.8356 11.2348 25.7742 11.2153C25.7127 11.1959 25.6479 11.1892 25.5838 11.1957C25.5196 11.2021 25.4575 11.2216 25.4011 11.2529C25.3447 11.2842 25.2954 11.3267 25.256 11.3777C25.1775 11.4817 25.1435 11.6125 25.1614 11.7415C25.1793 11.8705 25.2477 11.9871 25.3516 12.0657C25.6153 12.3051 25.9583 12.4386 26.3145 12.4402ZM29.1713 8.96053C29.1713 8.50764 28.9667 8.15436 28.6985 8.15569C28.4302 8.15702 28.2243 8.50499 28.211 8.92733C28.1978 9.34967 28.4169 9.7242 28.6812 9.74147C28.9455 9.75874 29.1699 9.41874 29.1713 8.96053Z" fill="#C18858"/>
<path id="Vector_10" d="M24.5963 1.60011C26.0214 1.55097 27.4465 1.58285 28.8716 1.58683C29.064 1.59516 29.2546 1.62819 29.4387 1.68511C29.8498 1.79668 30.214 2.03784 30.4771 2.3728C30.7403 2.70775 30.8885 3.11865 30.8996 3.54449C30.9062 3.80214 30.8996 4.0598 30.8996 4.31613C30.8996 4.48347 30.8744 4.5698 30.6858 4.45957C29.6804 3.87253 28.764 4.06113 27.9073 4.78496C27.7135 4.95369 27.508 5.10858 27.2924 5.24847C26.6416 5.65886 25.9816 5.66683 25.3308 5.24847C25.1609 5.13705 24.9969 5.01691 24.8394 4.88855C24.4896 4.58792 24.0942 4.34493 23.668 4.16871C23.6759 3.54714 23.6759 2.92957 24.0173 2.36777C24.1899 2.09152 24.437 1.87503 24.5963 1.60011Z" fill="#365D7C"/>
<path id="Vector_11" d="M23.7521 5.30027C23.6831 5.3534 23.6897 5.43308 23.6897 5.50347V7.99636C23.6897 8.07074 23.6897 8.14644 23.7588 8.19691C23.3364 8.67902 23.3444 9.27668 23.78 9.7216C23.7528 9.73837 23.7304 9.76181 23.7148 9.78971C23.6992 9.81761 23.691 9.84902 23.691 9.88097C23.5981 11.1028 23.7986 12.2397 24.6606 13.1774C24.8331 13.3505 25.0197 13.5091 25.2184 13.6515C25.2888 13.706 25.3592 13.7471 25.3645 13.8454C23.5768 13.9782 22.177 12.9728 21.7958 11.3047C21.7335 10.9989 21.7059 10.687 21.7135 10.375C21.7135 9.06949 21.7347 7.76261 21.7002 6.4584C21.6924 6.2688 21.7322 6.08027 21.8159 5.91C21.8997 5.73972 22.0247 5.59312 22.1796 5.48355C22.6936 5.0559 23.2142 4.97355 23.7149 5.25379C23.7292 5.26771 23.7417 5.28332 23.7521 5.30027Z" fill="#AE7849"/>
<path id="Vector_12" d="M24.5953 1.6001C24.432 1.87502 24.1889 2.08885 24.0216 2.3651C23.6803 2.9269 23.6803 3.54447 23.6723 4.16604C22.9843 4.06244 22.3335 4.14877 21.7518 4.59104C21.5645 3.22838 21.9032 2.20041 23.0162 1.74486C23.5209 1.54033 24.0588 1.54565 24.5953 1.6001Z" fill="#2A4B63"/>
<path id="Vector_13" d="M31.875 10.8028C31.875 10.4189 31.875 10.0683 31.875 9.71767C31.875 9.52111 31.9627 9.38033 32.1672 9.36705C32.3717 9.35377 32.4634 9.49986 32.4952 9.6858C32.527 9.91406 32.4836 10.1464 32.3718 10.3479C32.2599 10.5494 32.0855 10.709 31.875 10.8028Z" fill="#AE7849"/>
<path id="Vector_14" d="M20.7444 10.1504C20.7444 10.2673 20.7524 10.3855 20.7444 10.501C20.7365 10.5874 20.8042 10.7162 20.6833 10.7521C20.5851 10.78 20.5213 10.671 20.4549 10.606C20.3296 10.482 20.2368 10.329 20.1847 10.1606C20.1326 9.99218 20.1227 9.81353 20.1561 9.64042C20.1603 9.56222 20.1954 9.48891 20.2537 9.4366C20.312 9.3843 20.3887 9.35729 20.4669 9.36151C20.545 9.36574 20.6184 9.40086 20.6707 9.45914C20.723 9.51743 20.75 9.5941 20.7458 9.6723V10.1504H20.7444Z" fill="#AE7849"/>
<path id="Vector_15" d="M17.3177 24.9884C18.3563 24.7387 19.3936 24.4917 20.3884 24.0919C20.999 23.8634 21.5811 23.5648 22.1229 23.2021C22.2796 23.0918 22.3447 23.1277 22.443 23.2711C22.9556 24.0229 23.5626 24.6763 24.4113 25.0601C24.4843 25.092 24.5441 25.1318 24.5348 25.2248C24.5109 26.1757 24.633 27.1373 24.479 28.0789C24.2253 29.6422 23.0048 30.6754 21.3685 30.7485C20.5995 30.783 19.8279 30.7485 19.0576 30.7418C19.047 30.6834 18.9991 30.6595 18.9553 30.6276C18.1507 30.0681 17.5883 29.2242 17.3815 28.2662C17.424 28.2357 17.4652 28.2025 17.5143 28.1759C17.8716 27.9621 17.8795 27.6606 17.5316 27.4401C17.4612 27.395 17.3881 27.3525 17.3164 27.3073L17.335 26.8823C17.667 27.1559 17.9141 27.0961 18.0748 26.707C18.3537 26.0297 18.0376 25.4971 17.3217 25.4386L17.3177 24.9884ZM19.974 29.3447C20.3283 29.3369 20.6669 29.1972 20.9236 28.9529C21.0174 28.8712 21.0758 28.7563 21.0864 28.6324C21.0971 28.5085 21.0592 28.3853 20.9807 28.2888C20.943 28.239 20.8955 28.1973 20.8411 28.1664C20.7868 28.1355 20.7268 28.116 20.6646 28.1091C20.6025 28.1021 20.5396 28.1079 20.4798 28.126C20.42 28.1441 20.3645 28.1742 20.3166 28.2144C20.063 28.4136 19.8505 28.4097 19.5995 28.2144C19.5511 28.1748 19.4953 28.1454 19.4353 28.1279C19.3754 28.1104 19.3125 28.1053 19.2504 28.1127C19.1884 28.1202 19.1285 28.1401 19.0744 28.1712C19.0203 28.2024 18.973 28.2442 18.9354 28.2941C18.8593 28.392 18.8235 28.5153 18.8354 28.6388C18.8472 28.7622 18.9058 28.8765 18.9991 28.9582C19.2616 29.2044 19.6074 29.3425 19.9673 29.3447H19.974ZM22.5413 25.4665C22.1136 25.4559 22.0339 25.4811 21.9024 25.6551C21.6793 25.9526 21.6753 26.5649 21.8945 26.8717C22.0857 27.1373 22.362 27.1307 22.5466 26.8544C22.6626 26.6726 22.7179 26.4587 22.7046 26.2435C22.7046 26.1107 22.7259 26.0482 22.8693 26.0376C22.9077 26.0393 22.946 26.0325 22.9814 26.0175C23.0167 26.0025 23.0483 25.9798 23.0738 25.951C23.0993 25.9222 23.118 25.8881 23.1285 25.8511C23.1391 25.8142 23.1413 25.7754 23.1349 25.7375C23.123 25.5369 22.9822 25.4718 22.8029 25.4718C22.7086 25.4665 22.6276 25.4665 22.5413 25.4665ZM22.9742 27.3007C22.7153 27.2856 22.4603 27.3697 22.261 27.5357C22.2201 27.5704 22.1875 27.6138 22.1654 27.6626C22.1432 27.7114 22.1322 27.7646 22.1331 27.8182C22.134 27.8718 22.1468 27.9245 22.1705 27.9726C22.1942 28.0207 22.2283 28.0629 22.2703 28.0962C22.5864 28.3618 23.277 28.3698 23.5984 28.1148C23.6466 28.0806 23.6859 28.0355 23.7133 27.9831C23.7407 27.9308 23.7553 27.8727 23.7559 27.8137C23.7565 27.7546 23.7432 27.6963 23.717 27.6433C23.6908 27.5904 23.6524 27.5445 23.6051 27.5092C23.4253 27.3687 23.2023 27.295 22.9742 27.3007Z" fill="#FCDBCC"/>
<path id="Vector_16" d="M18.7345 18.8923C18.3946 19.5091 18.1345 20.1664 17.9602 20.8487C17.7363 21.8471 17.6289 22.8682 17.6401 23.8914C16.8958 24.0858 16.1358 24.2147 15.369 24.2766C15.2362 24.2912 15.0901 24.2858 14.952 24.3018C14.5217 24.3509 14.5376 24.3523 14.5203 23.9033C14.4573 22.8561 14.7412 21.8172 15.3279 20.9474C15.9146 20.0776 16.7716 19.4254 17.7663 19.0916C18.079 18.9835 18.4045 18.9166 18.7345 18.8923Z" fill="#C95668"/>
<path id="Vector_17" d="M17.3325 26.8836C17.3325 27.0257 17.3205 27.1679 17.3139 27.3086C17.0702 27.2861 16.8244 27.3059 16.5874 27.3671C16.351 27.4361 16.173 27.5663 16.1704 27.824C16.1677 28.0816 16.3802 28.2025 16.5874 28.2383C16.852 28.267 17.1183 28.2763 17.3843 28.2662C17.5911 29.2242 18.1535 30.0681 18.9581 30.6276C19.002 30.6595 19.0498 30.6834 19.0604 30.7418C16.9713 30.9318 15.3895 29.4961 15.3828 27.4043C15.3828 26.7615 15.3895 26.1173 15.3828 25.4745C15.3828 25.2979 15.432 25.2474 15.6099 25.2275C16.1823 25.1624 16.7534 25.0707 17.3245 24.9884V25.44C17.2103 25.4559 17.0934 25.4652 16.9805 25.4904C16.9281 25.5018 16.8811 25.5306 16.8471 25.572C16.8131 25.6135 16.7942 25.6653 16.7933 25.7189C16.7813 25.8331 16.8119 25.9725 16.9168 25.9845C17.2183 26.0204 17.1957 26.2236 17.1957 26.4321C17.2138 26.5896 17.2602 26.7426 17.3325 26.8836Z" fill="#FAC7BA"/>
<path id="Vector_18" d="M23.9805 30.7644C24.6018 30.2353 25.0666 29.5464 25.3245 28.7722C25.4573 28.8718 25.4055 28.986 25.4069 29.0803C25.4069 29.5611 25.4069 30.0432 25.4069 30.524C25.4069 30.7046 25.3511 30.7684 25.1691 30.7631C24.8105 30.7564 24.4466 30.7644 23.9805 30.7644Z" fill="#C95668"/>
<path id="Vector_19" d="M15.9355 30.7618C15.4613 30.7618 15.0988 30.7618 14.7402 30.7618C14.6074 30.7618 14.5104 30.7432 14.5117 30.5758C14.5117 29.9915 14.5117 29.4071 14.5502 28.8068C14.865 29.5293 15.2542 30.1933 15.9355 30.7618Z" fill="#C95668"/>
<path id="Vector_20" d="M25.5 27.6884V26.6325C25.5 26.4399 25.5638 26.2938 25.7789 26.2726C25.9941 26.2513 26.0777 26.4054 26.1123 26.582C26.1467 26.8082 26.1053 27.0393 25.9945 27.2395C25.8837 27.4396 25.7099 27.5974 25.5 27.6884Z" fill="#FAC7BA"/>
<path id="Vector_21" d="M14.4135 27.711C13.9513 27.4454 13.7228 27.0098 13.7999 26.5954C13.8331 26.4161 13.8955 26.2581 14.1213 26.2727C14.3471 26.2873 14.4121 26.4241 14.4135 26.6193V27.711Z" fill="#FAC7BA"/>
<path id="Vector_22" d="M4.83868 11.7973C5.17204 11.6034 5.51071 11.4161 5.76836 11.1253C5.85336 11.0297 5.91446 11.0496 6.00743 11.116C6.53859 11.486 7.1796 11.6649 7.82563 11.6233C8.41532 11.6074 9.005 11.6127 9.59469 11.6233C10.228 11.6554 10.8617 11.5712 11.4647 11.375C11.6307 11.3152 11.6639 11.3617 11.6639 11.5224C11.6639 12.7987 11.6852 14.0751 11.6493 15.3487C11.6068 16.8336 10.3106 18.1179 8.82571 18.1617C8.02883 18.1869 7.24125 18.1617 6.44836 18.1617C6.39476 18.0821 6.32452 18.015 6.2425 17.9651C5.39118 17.2931 4.87985 16.4351 4.83336 15.3315C4.8818 15.2552 4.90753 15.1668 4.90753 15.0765C4.90753 14.9861 4.8818 14.8977 4.83336 14.8215V14.2278C5.14016 14.35 5.28625 14.2982 5.42039 14.0086C5.4893 13.8704 5.52726 13.7189 5.53162 13.5645C5.53598 13.4102 5.50663 13.2567 5.44563 13.1148C5.34602 12.8784 5.18 12.7562 4.91438 12.8359C4.76032 12.4933 4.87719 12.14 4.83868 11.7973ZM7.305 16.8814C7.48773 16.884 7.66915 16.8502 7.83861 16.7817C8.00806 16.7133 8.16214 16.6117 8.2918 16.4829C8.3848 16.4005 8.44218 16.2853 8.45184 16.1614C8.4615 16.0375 8.4227 15.9147 8.3436 15.8189C8.30634 15.7697 8.25949 15.7285 8.20589 15.6979C8.15229 15.6673 8.09304 15.6479 8.03173 15.6408C7.97041 15.6337 7.9083 15.6392 7.84914 15.6568C7.78997 15.6744 7.73499 15.7038 7.6875 15.7432C7.43649 15.9437 7.22532 15.9451 6.97297 15.7432C6.92565 15.7025 6.87056 15.6719 6.81104 15.6531C6.75152 15.6344 6.68881 15.6279 6.62671 15.6341C6.56462 15.6403 6.50443 15.6591 6.44981 15.6892C6.39518 15.7194 6.34724 15.7603 6.30891 15.8096C6.26654 15.8581 6.23456 15.9148 6.21493 15.9761C6.19531 16.0374 6.18846 16.1021 6.1948 16.1662C6.20115 16.2303 6.22056 16.2924 6.25183 16.3487C6.28311 16.405 6.32559 16.4543 6.37664 16.4936C6.62604 16.7354 6.95769 16.8739 7.305 16.8814ZM10.5124 15.5294C10.7077 15.545 10.9029 15.4985 11.0702 15.3965C11.1252 15.3688 11.1722 15.3278 11.2072 15.2772C11.2422 15.2266 11.2639 15.168 11.2704 15.1068C11.2768 15.0456 11.2679 14.9838 11.2443 14.927C11.2207 14.8702 11.1832 14.8202 11.1353 14.7816C10.8458 14.5266 10.1286 14.5306 9.85766 14.8002C9.7036 14.9543 9.66774 15.1229 9.84703 15.3022C9.93508 15.3865 10.0405 15.4506 10.1559 15.4898C10.2713 15.529 10.3939 15.5425 10.5151 15.5294H10.5124ZM9.13914 13.5372C9.13914 13.5797 9.13914 13.6222 9.13914 13.67C9.16305 14.0365 9.3636 14.3181 9.59204 14.3128C9.82047 14.3075 9.99844 14.0472 10.0383 13.6886C10.0412 13.6443 10.0412 13.6 10.0383 13.5558C10.0383 13.1467 9.84039 12.8133 9.58938 12.8054C9.33836 12.7974 9.1418 13.1148 9.1418 13.5345L9.13914 13.5372Z" fill="#FCDBCC"/>
<path id="Vector_23" d="M4.83703 11.7974C4.87555 12.14 4.75867 12.4933 4.90742 12.8293C4.54086 13.245 4.51961 13.7245 4.84234 14.2278C4.84234 14.4257 4.84234 14.6263 4.84234 14.8215C4.53953 14.5718 4.17828 14.5997 3.83031 14.6422C3.72238 14.65 3.62006 14.6934 3.53934 14.7654C3.45861 14.8375 3.40402 14.9343 3.38406 15.0406C3.36016 15.2492 3.54609 15.3767 3.73469 15.451C3.91617 15.5183 4.11108 15.5413 4.30325 15.5182C4.49541 15.4951 4.67931 15.4266 4.83969 15.3182C4.88617 16.4219 5.3975 17.2799 6.24883 17.9519C6.32937 18.0065 6.39693 18.0781 6.44672 18.1617C4.76133 18.2946 3.42523 17.3649 3.07195 15.7977C3.02009 15.546 2.99472 15.2896 2.99625 15.0327C2.98695 14.1322 2.99625 13.2331 2.98828 12.3326C2.98828 12.1201 3.02414 12.0218 3.26453 12.0378C3.79968 12.0672 4.33512 11.9853 4.83703 11.7974Z" fill="#FAC7BA"/>
<path id="Vector_24" d="M8.12344 5.65875C8.05703 5.83672 7.88039 5.92437 7.77547 6.06781C7.49677 6.43491 7.34608 6.88324 7.34648 7.34414C7.34648 7.8568 7.36242 8.36812 7.34648 8.87945C7.32391 9.47047 7.56828 9.94992 7.91492 10.3962C7.97336 10.4705 8.06102 10.529 8.05969 10.6339C7.55102 10.6844 7.05164 10.6658 6.61469 10.359C6.37206 10.1997 6.17242 9.98305 6.03343 9.72824C5.89444 9.47342 5.82039 9.18829 5.81781 8.89805C5.80586 8.47039 5.81781 8.04273 5.81781 7.61508C5.81781 6.38391 6.55227 5.64281 7.78609 5.63086C7.89102 5.63352 8.00789 5.64945 8.12344 5.65875Z" fill="#966A53"/>
<path id="Vector_25" d="M3.68212 7.27127C3.71231 7.26105 3.74346 7.25393 3.77509 7.25002C4.10712 7.25002 4.52415 7.13182 4.7486 7.28854C4.99431 7.45986 4.82829 7.90346 4.82962 8.22619C4.82962 8.89025 4.82165 9.55432 5.16165 10.1639C5.24267 10.31 5.13774 10.3817 5.05806 10.4628C4.55204 10.9754 3.92384 11.1162 3.23056 11.0604C3.23056 10.2914 3.24649 9.52244 3.22126 8.75479C3.17931 8.21952 3.34426 7.68855 3.68212 7.27127Z" fill="#A97962"/>
<path id="Vector_26" d="M3.68298 7.27126C3.34511 7.68854 3.18017 8.21951 3.22212 8.75478C3.24735 9.52243 3.23009 10.2914 3.23142 11.0604C2.07196 11.1467 2.24329 10.9488 2.24329 10.1679C2.24329 9.59947 2.23665 9.03103 2.24329 8.46392C2.25524 7.65908 2.86884 7.15704 3.68298 7.27126Z" fill="#966A53"/>
<path id="Vector_27" d="M12.625 15.2984C12.625 14.9238 12.625 14.613 12.625 14.3036C12.625 14.1203 12.6728 13.9822 12.8906 13.9755C13.1084 13.9689 13.1483 14.1269 13.1562 14.2969C13.1868 14.7153 13.0234 15.0341 12.625 15.2984Z" fill="#FAC7BA"/>
<path id="Vector_28" d="M2.02513 15.2532C1.84057 15.1625 1.68998 15.015 1.59554 14.8324C1.5011 14.6497 1.46779 14.4415 1.50052 14.2385C1.5324 14.0765 1.60279 13.9583 1.79537 13.9729C1.98794 13.9875 2.0238 14.1057 2.02513 14.2584V15.2532Z" fill="#FAC7BA"/>
<path id="Vector_29" d="M26.314 12.4401C25.958 12.4388 25.615 12.3059 25.3511 12.0669C25.2473 11.9883 25.1789 11.8717 25.1609 11.7427C25.143 11.6137 25.177 11.4829 25.2555 11.3789C25.2949 11.3279 25.3443 11.2855 25.4006 11.2542C25.457 11.2229 25.5191 11.2034 25.5833 11.1969C25.6474 11.1904 25.7122 11.1971 25.7737 11.2166C25.8352 11.236 25.892 11.2677 25.9408 11.3099C26.0418 11.4071 26.1765 11.4614 26.3167 11.4614C26.4568 11.4614 26.5916 11.4071 26.6925 11.3099C26.741 11.2673 26.7978 11.2352 26.8593 11.2157C26.9208 11.1962 26.9857 11.1896 27.0499 11.1965C27.1141 11.2034 27.1761 11.2235 27.2321 11.2556C27.2881 11.2877 27.3368 11.331 27.3752 11.3829C27.5439 11.6007 27.508 11.8611 27.2809 12.0669C27.0162 12.3071 26.6715 12.4402 26.314 12.4401Z" fill="black"/>
<path id="Vector_30" d="M23.7778 9.72164C23.3421 9.27672 23.3342 8.67906 23.7565 8.19695C24.0221 8.09602 24.1921 8.21422 24.3011 8.44399C24.3755 8.59866 24.4151 8.76775 24.4172 8.93938C24.4192 9.11101 24.3837 9.281 24.313 9.43742C24.2147 9.66188 24.0461 9.79469 23.7778 9.72164Z" fill="black"/>
<path id="Vector_31" d="M29.1718 8.96061C29.1718 9.41881 28.9579 9.75748 28.6817 9.74155C28.4054 9.72561 28.1983 9.34311 28.2115 8.92741C28.2248 8.5117 28.444 8.15709 28.699 8.15577C28.954 8.15444 29.1744 8.50772 29.1718 8.96061Z" fill="black"/>
<path id="Vector_32" d="M19.9688 29.3446C19.609 29.3414 19.2637 29.2024 19.0019 28.9555C18.9086 28.8738 18.85 28.7596 18.8382 28.6361C18.8263 28.5127 18.8621 28.3893 18.9382 28.2914C18.9758 28.2415 19.023 28.1997 19.0772 28.1685C19.1313 28.1374 19.1912 28.1175 19.2532 28.11C19.3153 28.1026 19.3781 28.1078 19.4381 28.1252C19.4981 28.1427 19.5539 28.1721 19.6022 28.2117C19.8533 28.4096 20.0658 28.4136 20.3194 28.2117C20.3673 28.1715 20.4228 28.1414 20.4826 28.1233C20.5424 28.1052 20.6053 28.0994 20.6674 28.1064C20.7295 28.1133 20.7896 28.1329 20.8439 28.1638C20.8983 28.1946 20.9458 28.2363 20.9835 28.2861C21.062 28.3826 21.0999 28.5058 21.0892 28.6297C21.0785 28.7536 21.0202 28.8685 20.9264 28.9502C20.6681 29.1973 20.3262 29.3381 19.9688 29.3446Z" fill="black"/>
<path id="Vector_33" d="M22.5406 25.4665C22.6269 25.4665 22.7119 25.4665 22.7969 25.4665C22.9762 25.4665 23.117 25.5369 23.1289 25.7321C23.1353 25.77 23.1331 25.8089 23.1225 25.8458C23.112 25.8828 23.0933 25.9169 23.0678 25.9457C23.0423 25.9744 23.0107 25.9972 22.9754 26.0121C22.94 26.0271 22.9017 26.034 22.8633 26.0323C22.7199 26.0429 22.6933 26.1053 22.6986 26.2382C22.7119 26.4534 22.6566 26.6673 22.5406 26.8491C22.356 27.1253 22.0797 27.132 21.8885 26.8664C21.6693 26.5596 21.6733 25.9473 21.8964 25.6498C22.0332 25.4785 22.1129 25.4532 22.5406 25.4665Z" fill="black"/>
<path id="Vector_34" d="M17.3314 26.8836C17.2573 26.7433 17.2092 26.5908 17.1893 26.4334C17.1893 26.2249 17.2118 26.0217 16.9103 25.9858C16.8054 25.9725 16.7775 25.8331 16.7868 25.7202C16.7877 25.6666 16.8067 25.6148 16.8407 25.5734C16.8747 25.5319 16.9217 25.5031 16.9741 25.4918C17.087 25.4665 17.2039 25.4572 17.3181 25.4413C18.0339 25.4997 18.35 26.0323 18.0711 26.7096C17.9104 27.0975 17.6621 27.1572 17.3314 26.8836Z" fill="black"/>
<path id="Vector_35" d="M22.974 27.3007C23.2008 27.296 23.4222 27.3696 23.6009 27.5092C23.6483 27.5444 23.6866 27.5904 23.7128 27.6433C23.7391 27.6963 23.7524 27.7546 23.7517 27.8137C23.7511 27.8727 23.7365 27.9308 23.7091 27.9831C23.6817 28.0354 23.6424 28.0806 23.5943 28.1148C23.2768 28.3698 22.5862 28.3605 22.2661 28.0962C22.2241 28.0629 22.1901 28.0207 22.1663 27.9726C22.1426 27.9245 22.1298 27.8718 22.129 27.8182C22.1281 27.7646 22.1391 27.7114 22.1612 27.6626C22.1833 27.6137 22.216 27.5704 22.2568 27.5357C22.4571 27.3687 22.7137 27.2846 22.974 27.3007Z" fill="#EAA699"/>
<path id="Vector_36" d="M17.3819 28.2661C17.116 28.2763 16.8496 28.267 16.5851 28.2382C16.3779 28.2024 16.164 28.0842 16.168 27.8239C16.172 27.5636 16.3486 27.4361 16.5851 27.367C16.822 27.3058 17.0678 27.2861 17.3115 27.3086C17.3833 27.3524 17.4563 27.3949 17.5267 27.4414C17.8747 27.6618 17.8667 27.9633 17.5094 28.1772C17.4656 28.2024 17.4244 28.2356 17.3819 28.2661Z" fill="#EAA699"/>
<path id="Vector_37" d="M7.30132 16.8814C6.95518 16.8775 6.62322 16.7433 6.37164 16.5055C6.32058 16.4663 6.2781 16.417 6.24682 16.3607C6.21555 16.3044 6.19614 16.2423 6.1898 16.1782C6.18345 16.1141 6.1903 16.0494 6.20992 15.9881C6.22955 15.9267 6.26153 15.8701 6.3039 15.8216C6.34223 15.7723 6.39017 15.7314 6.4448 15.7012C6.49943 15.671 6.55961 15.6523 6.6217 15.6461C6.6838 15.6399 6.74651 15.6463 6.80603 15.6651C6.86555 15.6838 6.92064 15.7145 6.96796 15.7552C7.22031 15.953 7.43148 15.9517 7.68249 15.7552C7.72998 15.7157 7.78497 15.6863 7.84413 15.6687C7.90329 15.6511 7.9654 15.6457 8.02672 15.6528C8.08804 15.6599 8.14728 15.6793 8.20088 15.7099C8.25448 15.7405 8.30133 15.7817 8.33859 15.8309C8.41769 15.9267 8.45649 16.0495 8.44683 16.1734C8.43717 16.2972 8.37979 16.4125 8.28679 16.4949C8.15631 16.6214 8.002 16.7207 7.83283 16.787C7.66366 16.8534 7.48299 16.8855 7.30132 16.8814Z" fill="black"/>
<path id="Vector_38" d="M10.5148 15.5294C10.3944 15.5421 10.2726 15.5286 10.158 15.4896C10.0433 15.4506 9.93848 15.3871 9.85077 15.3036C9.67147 15.1243 9.70733 14.9556 9.86139 14.8016C10.127 14.536 10.8495 14.528 11.1391 14.783C11.187 14.8216 11.2244 14.8716 11.248 14.9284C11.2716 14.9852 11.2806 15.047 11.2741 15.1082C11.2676 15.1694 11.2459 15.2279 11.2109 15.2785C11.176 15.3292 11.1289 15.3702 11.074 15.3979C10.9061 15.4997 10.7104 15.5457 10.5148 15.5294Z" fill="#EAA699"/>
<path id="Vector_39" d="M4.83271 15.3314C4.67233 15.4398 4.48843 15.5084 4.29627 15.5315C4.1041 15.5545 3.90919 15.5315 3.72771 15.4643C3.53911 15.3899 3.35318 15.2624 3.37708 15.0539C3.39704 14.9475 3.45163 14.8507 3.53236 14.7787C3.61308 14.7066 3.7154 14.6632 3.82333 14.6554C4.1713 14.6129 4.53255 14.585 4.83536 14.8347C4.88075 14.9097 4.90453 14.9958 4.90406 15.0835C4.90359 15.1711 4.8789 15.2569 4.83271 15.3314Z" fill="#EAA699"/>
<path id="Vector_40" d="M9.14098 13.5347C9.14098 13.1097 9.33887 12.7949 9.59785 12.8029C9.85684 12.8109 10.0481 13.1442 10.0468 13.5533C10.0496 13.5975 10.0496 13.6419 10.0468 13.6861C10.0069 14.0394 9.81699 14.305 9.60051 14.3103C9.38402 14.3156 9.17152 14.0341 9.14762 13.6675C9.13832 13.6197 9.14098 13.5772 9.14098 13.5347Z" fill="black"/>
<path id="Vector_41" d="M4.84182 14.2278C4.51377 13.7244 4.54033 13.2476 4.91221 12.8292C5.17783 12.7496 5.34252 12.8717 5.44346 13.1082C5.50815 13.2497 5.54096 13.4037 5.53959 13.5593C5.53821 13.7149 5.50267 13.8683 5.43549 14.0086C5.29471 14.2982 5.14861 14.3499 4.84182 14.2278Z" fill="black"/>
</g>
</svg>
