<svg width="32" height="30" viewBox="0 0 32 30" fill="none" xmlns="http://www.w3.org/2000/svg">
<g id="SinIdentificar">
<path id="Vector" d="M0.0625 27.3045C0.36 26.4226 1.07984 25.8727 1.70008 25.2485C3.12383 23.8133 4.55422 22.3842 5.99125 20.9613C6.15461 20.8006 6.16922 20.6957 6.03773 20.5045C4.29113 17.9334 3.53502 14.8166 3.90934 11.731C4.28365 8.6454 5.76305 5.79984 8.07375 3.72094C10.9066 1.16298 14.2734 0.067273 18.0732 0.473679C23.4534 1.05274 27.7008 4.68516 29.1484 9.84626C29.336 10.5351 29.4693 11.2376 29.5469 11.9474C29.588 12.2927 29.4858 12.4374 29.1272 12.5636C28.8084 12.541 28.6504 12.3724 28.6145 12.0523C28.5734 11.6817 28.5136 11.3125 28.4419 10.9473C27.0527 3.82055 19.5833 -0.430774 12.7328 2.00235C6.18914 4.33055 2.98438 11.602 5.75086 17.9797C7.32602 21.6134 10.0739 23.9257 13.9202 24.9178C14.1473 24.9763 14.296 24.9616 14.4195 24.7279C14.5822 24.4384 14.7641 24.1602 14.9641 23.8952C15.0969 23.7145 15.0823 23.6627 14.8432 23.6189C13.432 23.3653 12.0878 22.8251 10.8936 22.0318C9.69928 21.2385 8.68027 20.2088 7.89944 19.0063C7.1186 17.8038 6.5925 16.454 6.35363 15.0403C6.11475 13.6265 6.16815 12.1789 6.51055 10.7866C8.09367 4.35712 15.158 0.92657 21.1359 3.76079C24.8825 5.53782 26.8986 8.59251 27.212 12.7363C27.3205 14.3674 27.0278 16.0004 26.3594 17.4923C26.3209 17.5813 26.2266 17.6676 26.3023 17.7791L27.1762 19.1073C27.9865 17.6528 28.482 16.0441 28.6305 14.3858C28.661 14.0498 28.7898 13.8359 29.1391 13.7895C29.5256 13.9329 29.6027 14.0285 29.5681 14.4309C29.4095 16.3044 28.8361 18.1191 27.8894 19.7434C27.8358 19.8146 27.8075 19.9017 27.8092 19.9908C27.8109 20.0798 27.8424 20.1658 27.8987 20.2348C29.1383 22.1102 30.369 23.9895 31.5909 25.8727C32.0955 26.6484 32.0411 27.5116 31.458 28.1677C31.0423 28.6352 30.5031 28.788 29.8948 28.788C26.4833 28.788 23.0718 28.788 19.6603 28.788C18.2087 28.788 16.757 28.788 15.3054 28.788C14.2429 28.788 13.5058 28.1757 13.3504 27.2022C13.2734 26.7174 13.4314 26.2831 13.6784 25.8488C13.1977 25.6934 12.7222 25.5513 12.2534 25.3866C11.2763 25.0433 10.3509 24.5678 9.50281 23.9735C9.31555 23.8407 9.21062 23.8566 9.04992 24.0213C8.09102 24.9975 7.11883 25.9617 6.15063 26.9286C5.84516 27.2327 5.73094 27.25 5.36305 27.0548C5.16516 26.7652 5.21961 26.5235 5.4693 26.2858C5.78008 25.9963 6.06828 25.6841 6.37508 25.3893C6.48664 25.2831 6.50789 25.2113 6.38437 25.0918C5.88854 24.6039 5.39714 24.1116 4.91016 23.6149C4.79727 23.4994 4.73617 23.5313 4.64453 23.6282C3.54883 24.7306 2.44383 25.8223 1.35344 26.9299C1.24051 27.0417 1.15101 27.1749 1.09018 27.3217C1.02934 27.4685 0.99839 27.626 0.999132 27.7849C0.999874 27.9438 1.0323 28.101 1.0945 28.2472C1.1567 28.3935 1.24744 28.5258 1.36141 28.6366C1.58327 28.8671 1.88695 29.0011 2.2068 29.0096C2.52665 29.018 2.83698 28.9002 3.0707 28.6817C3.30844 28.4666 3.52625 28.2288 3.75602 28.0044C4.03094 27.7388 4.18766 27.7188 4.52102 27.9247C4.70297 28.2049 4.65383 28.4466 4.41211 28.6698C4.22219 28.8451 4.04555 29.0337 3.86227 29.2156C2.58992 30.4787 0.738516 30.051 0.143516 28.3563C0.12625 28.3112 0.134219 28.2514 0.0678125 28.2381L0.0625 27.3045ZM17.8727 19.434C17.5871 19.4659 17.3733 19.4977 17.1568 19.5124C13.1299 19.7833 9.89062 16.2319 10.5866 12.2475C11.0355 9.68688 12.5787 7.97227 15.0703 7.2843C17.5938 6.58837 19.7878 7.31485 21.5117 9.29641C22.537 10.4758 22.9886 11.8876 22.9727 13.4521C22.9727 13.557 22.8916 13.6938 23.0948 13.7443C23.6646 13.8771 24.0352 14.2756 24.338 14.7537C24.7523 15.4177 25.1906 16.0672 25.617 16.7193C25.7086 16.6808 25.7086 16.6117 25.7285 16.5559C26.431 14.6766 26.5093 12.6209 25.9516 10.6936C24.2344 4.6347 17.2418 1.83766 11.8403 5.04641C8.4443 7.06782 6.68187 10.8437 7.28086 14.8267C7.87453 18.7699 11.1098 22.0504 15.0105 22.7118C15.5179 22.7981 15.7835 22.7025 16.0478 22.2576C16.6056 21.3159 17.2338 20.4168 17.8753 19.434H17.8727ZM22.6114 27.8463C25.0498 27.8463 27.4878 27.8463 29.9254 27.8463C30.3358 27.8463 30.6824 27.7348 30.8883 27.347C31.0941 26.9591 30.9786 26.6351 30.7555 26.3004C28.3339 22.5985 25.9127 18.897 23.492 15.1959C22.9833 14.4177 22.278 14.4177 21.772 15.1959C20.08 17.7796 18.3889 20.3637 16.6986 22.9482C15.9513 24.0931 15.2036 25.2383 14.4554 26.3841C14.142 26.8688 14.2389 27.4041 14.6772 27.6949C14.8956 27.818 15.146 27.8721 15.3957 27.8503L22.6114 27.8463ZM16.7411 7.98423C15.4003 7.97836 14.1074 8.48183 13.1236 9.39283C12.1399 10.3038 11.5388 11.5544 11.4419 12.8916C11.1497 16.6582 14.8379 19.5323 18.4119 18.321C18.5785 18.2688 18.7203 18.1572 18.8103 18.0076C19.5474 16.8681 20.2952 15.7365 21.0349 14.5996C21.2127 14.2924 21.4788 14.0457 21.7986 13.8917C21.8746 13.8636 21.9389 13.8107 21.981 13.7415C22.0232 13.6724 22.0408 13.591 22.031 13.5106C22.0598 12.797 21.9444 12.085 21.6917 11.4171C21.439 10.7492 21.0543 10.139 20.5605 9.62317C20.0667 9.1073 19.474 8.69629 18.8177 8.41469C18.1615 8.13309 17.4552 7.98668 16.7411 7.98423ZM8.52797 23.2032C8.46954 23.1752 8.41356 23.1423 8.36063 23.1049C7.82904 22.6577 7.33753 22.1648 6.89172 21.632C6.78945 21.5085 6.72969 21.5311 6.62609 21.632C6.2799 21.9862 5.92573 22.3404 5.56359 22.6945C5.45734 22.7968 5.45602 22.8632 5.56359 22.9681C6.05766 23.4542 6.54641 23.947 7.03516 24.441C7.1268 24.5353 7.18922 24.5738 7.30078 24.453C7.65141 24.0864 8.01531 23.7331 8.37391 23.3732C8.42969 23.3334 8.45359 23.2922 8.52797 23.2032Z" fill="black"/>
<path id="Vector_2" d="M29.1377 13.7895C28.7884 13.8359 28.6596 14.0551 28.6291 14.3858C28.4811 16.0455 27.9856 17.6555 27.1748 19.1113L26.3009 17.7831C26.2278 17.6716 26.3195 17.5852 26.358 17.4963C27.0264 16.0044 27.3191 14.3714 27.2106 12.7402C26.8972 8.59649 24.8811 5.54181 21.1345 3.76478C15.1579 0.930556 8.09227 4.3611 6.50915 10.7839C6.16572 12.1767 6.11153 13.625 6.34991 15.0395C6.5883 16.454 7.1142 17.8046 7.89512 19.0079C8.67605 20.2111 9.69541 21.2415 10.8902 22.0353C12.085 22.829 13.4299 23.3694 14.8418 23.6229C15.0809 23.6667 15.0915 23.7185 14.9627 23.8991C14.7627 24.1642 14.5808 24.4424 14.4181 24.7319C14.2946 24.9656 14.1525 24.9802 13.9188 24.9218C10.0672 23.9297 7.32462 21.6174 5.74946 17.9837C2.98563 11.6087 6.18774 4.33454 12.7407 2.00634C19.5912 -0.426787 27.0606 3.82454 28.4498 10.9513C28.5215 11.3165 28.5826 11.6857 28.6224 12.0563C28.6583 12.3763 28.8163 12.545 29.1351 12.5676C29.1351 12.9727 29.1364 13.3804 29.1377 13.7895Z" fill="#7EB1F8"/>
<path id="Vector_3" d="M4.51408 27.9193C4.18072 27.7134 4.02401 27.728 3.74908 27.999C3.51932 28.2234 3.30151 28.4611 3.06377 28.6763C2.83005 28.8948 2.51972 29.0126 2.19987 29.0041C1.88002 28.9957 1.57634 28.8617 1.35447 28.6311C1.24051 28.5204 1.14977 28.388 1.08757 28.2418C1.02536 28.0956 0.992943 27.9384 0.992201 27.7795C0.991459 27.6206 1.02241 27.4631 1.08325 27.3163C1.14408 27.1695 1.23358 27.0363 1.34651 26.9245C2.4369 25.8168 3.5419 24.7251 4.6376 23.6228C4.73455 23.5258 4.79565 23.49 4.90322 23.6095C5.39375 24.1098 5.88692 24.6016 6.38276 25.0851C6.50494 25.2046 6.48502 25.2763 6.37346 25.3826C6.06666 25.6774 5.77846 25.9895 5.46768 26.279C5.21799 26.5141 5.16354 26.7585 5.36143 27.048L4.51408 27.9193Z" fill="#FD626D"/>
<path id="Vector_4" d="M17.874 19.4339C17.2325 20.4168 16.6043 21.3159 16.0465 22.2575C15.7809 22.7025 15.5152 22.7981 15.0092 22.7118C11.1085 22.0477 7.87322 18.7699 7.27954 14.8267C6.68056 10.8423 8.44298 7.06379 11.839 5.04637C17.2405 1.83762 24.2331 4.63465 25.945 10.6962C26.5026 12.6235 26.4244 14.6792 25.7219 16.5586C25.702 16.6143 25.702 16.6834 25.6103 16.7219C25.184 16.0698 24.7457 15.4204 24.3313 14.7563C24.0285 14.2729 23.658 13.885 23.0882 13.7469C22.885 13.6964 22.9647 13.5597 22.966 13.4547C22.9873 11.8902 22.5357 10.4784 21.5051 9.29903C19.7865 7.31746 17.5924 6.59098 15.069 7.28692C12.5748 7.97489 11.0342 9.68949 10.5852 12.2475C9.88665 16.2318 13.1286 19.7806 17.1581 19.5096C17.3746 19.4977 17.5924 19.4658 17.874 19.4339Z" fill="#EAF2FD"/>
<path id="Vector_5" d="M22.614 27.8464H15.3956C15.1459 27.8682 14.8955 27.8141 14.6771 27.691C14.2388 27.4002 14.1458 26.8649 14.4553 26.3802C15.1999 25.2291 15.9477 24.0838 16.6985 22.9443C18.3896 20.3598 20.0808 17.7757 21.7719 15.1921C22.278 14.4178 22.9832 14.4178 23.4919 15.1921C25.9161 18.8949 28.3395 22.5977 30.762 26.3005C30.9812 26.6352 31.0901 26.9646 30.8948 27.3471C30.6996 27.7296 30.3423 27.8464 29.9319 27.8464C27.4935 27.8464 25.0555 27.8464 22.618 27.8464H22.614ZM21.153 20.2217C21.153 20.7197 21.1464 21.2178 21.153 21.7158C21.153 22.1075 21.3086 22.4831 21.5856 22.7601C21.8626 23.0371 22.2382 23.1927 22.6299 23.1927C23.0216 23.1927 23.3972 23.0371 23.6742 22.7601C23.9512 22.4831 24.1068 22.1075 24.1068 21.7158C24.1201 20.7215 24.1201 19.7258 24.1068 18.7288C24.1127 18.5309 24.0788 18.3338 24.0072 18.1492C23.9355 17.9646 23.8276 17.7962 23.6897 17.6541C23.5517 17.512 23.3867 17.399 23.2043 17.3219C23.0219 17.2447 22.8259 17.205 22.6279 17.205C22.4299 17.205 22.2339 17.2447 22.0515 17.3219C21.8691 17.399 21.7041 17.512 21.5662 17.6541C21.4283 17.7962 21.3203 17.9646 21.2486 18.1492C21.177 18.3338 21.1431 18.5309 21.149 18.7288C21.1411 19.2269 21.1477 19.7236 21.1477 20.2163L21.153 20.2217ZM24.1134 25.501C24.1113 25.2092 24.0229 24.9245 23.8593 24.6829C23.6958 24.4413 23.4643 24.2535 23.1942 24.1431C22.9241 24.0328 22.6273 24.0049 22.3414 24.0629C22.0554 24.1209 21.793 24.2623 21.5872 24.4691C21.3814 24.676 21.2415 24.9392 21.185 25.2255C21.1285 25.5117 21.158 25.8083 21.2698 26.0779C21.3816 26.3474 21.5706 26.5778 21.8132 26.7401C22.0557 26.9024 22.3408 26.9893 22.6326 26.9898C23.0256 26.9877 23.4017 26.8297 23.6783 26.5506C23.9549 26.2715 24.1095 25.894 24.1081 25.501H24.1134Z" fill="#FD626D"/>
<path id="Vector_6" d="M16.74 7.98418C17.4542 7.98645 18.1606 8.13273 18.817 8.41425C19.4734 8.69577 20.0663 9.10676 20.5603 9.62264C21.0542 10.1385 21.439 10.7487 21.6918 11.4167C21.9445 12.0847 22.06 12.7969 22.0312 13.5105C22.041 13.5909 22.0234 13.6723 21.9812 13.7415C21.9391 13.8107 21.8748 13.8636 21.7988 13.8917C21.479 14.0457 21.2129 14.2923 21.0351 14.5996C20.2954 15.7364 19.5476 16.868 18.8105 18.0075C18.7205 18.1572 18.5787 18.2687 18.4121 18.321C14.8381 19.5296 11.1499 16.6582 11.4421 12.8916C11.539 11.5546 12.1399 10.3042 13.1234 9.39323C14.1068 8.48227 15.3994 7.97865 16.74 7.98418ZM16.2525 16.0552C15.7306 15.8374 15.4557 15.4947 15.4012 14.9675C15.3654 14.6248 15.1582 14.4495 14.8806 14.484C14.603 14.5186 14.4543 14.7403 14.4822 15.0803C14.5167 15.5118 14.6817 15.9225 14.9552 16.2579C15.2288 16.5933 15.5978 16.8376 16.0135 16.9583C16.1675 17.0061 16.2512 17.05 16.2791 17.2332C16.2839 17.2882 16.2996 17.3416 16.3253 17.3904C16.3509 17.4392 16.386 17.4824 16.4286 17.5175C16.4711 17.5526 16.5202 17.5789 16.5729 17.5948C16.6257 17.6108 16.6811 17.6161 16.736 17.6104C16.987 17.6104 17.1636 17.4696 17.1796 17.2226C17.1915 17.0194 17.3124 17.0035 17.4452 16.957C18.5356 16.609 19.1718 15.5571 18.9221 14.488C18.7322 13.6911 18.1996 13.1785 17.4253 12.9288C17.25 12.873 17.1796 12.8093 17.1836 12.614C17.1982 12.0031 17.1836 11.3908 17.1915 10.7799C17.1915 10.7055 17.1397 10.6006 17.2393 10.5594C17.339 10.5182 17.3961 10.5979 17.4638 10.6404C17.6369 10.7457 17.7814 10.892 17.8845 11.0665C17.9876 11.2409 18.0461 11.4381 18.0548 11.6405C18.0553 11.7215 18.0775 11.801 18.1192 11.8705C18.1609 11.94 18.2204 11.9971 18.2916 12.0357C18.3628 12.0744 18.4431 12.0933 18.5241 12.0903C18.6051 12.0874 18.6838 12.0628 18.7521 12.019C18.9792 11.8782 19.0084 11.6551 18.9712 11.4174C18.8304 10.4983 18.3072 9.90199 17.4306 9.6098C17.2885 9.56199 17.1822 9.53277 17.1729 9.33488C17.1671 9.22896 17.1201 9.12951 17.0419 9.0578C16.9637 8.98608 16.8606 8.94777 16.7546 8.95105C16.6999 8.94264 16.6442 8.94533 16.5906 8.95894C16.537 8.97255 16.4867 8.99681 16.4427 9.03027C16.3987 9.06374 16.3619 9.10572 16.3345 9.15372C16.3071 9.20172 16.2896 9.25475 16.2831 9.30964C16.2565 9.51816 16.1503 9.57527 15.9843 9.62175C15.6853 9.711 15.4097 9.86528 15.1773 10.0735C14.945 10.2818 14.7615 10.5389 14.6402 10.8264C14.1448 11.9619 14.773 13.2276 16.0215 13.6393C16.1543 13.6818 16.2645 13.6938 16.2605 13.8877C16.2446 14.5943 16.2525 15.3021 16.2525 16.0552Z" fill="#FCDD7B"/>
<path id="Vector_7" d="M8.52737 23.2031C8.453 23.2921 8.42245 23.3359 8.38659 23.3678C8.028 23.7277 7.66409 24.081 7.31347 24.4476C7.19925 24.5671 7.13683 24.5299 7.04784 24.4356C6.55909 23.9416 6.07034 23.4488 5.57628 22.9627C5.4687 22.8578 5.47003 22.7914 5.57628 22.6891C5.93045 22.3421 6.28461 21.9879 6.63878 21.6266C6.73839 21.5244 6.79816 21.5018 6.90441 21.6266C7.35022 22.1594 7.84172 22.6523 8.37331 23.0995C8.42181 23.1381 8.47333 23.1728 8.52737 23.2031Z" fill="#FD626D"/>
<path id="Vector_8" d="M21.1491 20.2164C21.1491 19.7183 21.1491 19.2216 21.1491 18.7236C21.1432 18.5256 21.177 18.3285 21.2487 18.1439C21.3203 17.9593 21.4283 17.7909 21.5662 17.6488C21.7041 17.5067 21.8692 17.3938 22.0516 17.3166C22.2339 17.2395 22.4299 17.1997 22.628 17.1997C22.826 17.1997 23.022 17.2395 23.2044 17.3166C23.3868 17.3938 23.5518 17.5067 23.6897 17.6488C23.8276 17.7909 23.9356 17.9593 24.0073 18.1439C24.0789 18.3285 24.1128 18.5256 24.1068 18.7236C24.1192 19.7197 24.1192 20.7153 24.1068 21.7105C24.1068 22.1022 23.9512 22.4779 23.6743 22.7548C23.3973 23.0318 23.0217 23.1874 22.63 23.1874C22.2383 23.1874 21.8626 23.0318 21.5857 22.7548C21.3087 22.4779 21.1531 22.1022 21.1531 21.7105C21.1438 21.2125 21.1531 20.7144 21.1531 20.2164H21.1491ZM23.1732 20.2164C23.1732 19.7409 23.1732 19.2641 23.1732 18.7873C23.1732 18.4115 22.9434 18.1644 22.6246 18.1671C22.3059 18.1697 22.0854 18.4154 22.0828 18.794C22.0828 19.7467 22.0828 20.6994 22.0828 21.6521C22.0828 22.0359 22.3006 22.2697 22.63 22.267C22.9593 22.2643 23.1679 22.0346 23.1732 21.6468C23.1838 21.166 23.1732 20.6892 23.1732 20.2164Z" fill="black"/>
<path id="Vector_9" d="M24.1087 25.5009C24.1069 25.7928 24.0187 26.0777 23.8552 26.3195C23.6917 26.5613 23.4603 26.7493 23.1901 26.8598C22.9199 26.9703 22.6231 26.9984 22.337 26.9404C22.0509 26.8824 21.7883 26.741 21.5825 26.5341C21.3766 26.3271 21.2367 26.0638 21.1802 25.7774C21.1238 25.491 21.1534 25.1943 21.2654 24.9247C21.3773 24.6552 21.5666 24.4247 21.8093 24.2626C22.052 24.1004 22.3373 24.0137 22.6292 24.0134C22.8242 24.0134 23.0172 24.052 23.1972 24.1268C23.3773 24.2017 23.5407 24.3114 23.6782 24.4496C23.8157 24.5878 23.9245 24.7519 23.9984 24.9323C24.0723 25.1127 24.1098 25.306 24.1087 25.5009ZM22.6478 24.9498C22.5386 24.9456 22.4307 24.974 22.3376 25.0312C22.2446 25.0884 22.1705 25.1719 22.1249 25.2712C22.0793 25.3704 22.0641 25.481 22.0813 25.5888C22.0985 25.6967 22.1473 25.7971 22.2216 25.8772C22.2958 25.9574 22.3921 26.0137 22.4983 26.0392C22.6046 26.0646 22.716 26.058 22.8184 26.0201C22.9209 25.9823 23.0098 25.9149 23.074 25.8265C23.1382 25.7381 23.1748 25.6327 23.179 25.5235C23.1821 25.4504 23.1705 25.3773 23.145 25.3087C23.1194 25.2401 23.0805 25.1772 23.0304 25.1238C22.9804 25.0704 22.9201 25.0275 22.8533 24.9976C22.7865 24.9677 22.7143 24.9515 22.6411 24.9498H22.6478Z" fill="black"/>
<path id="Vector_10" d="M16.2553 16.0554C16.2553 15.2983 16.2473 14.5944 16.2553 13.8892C16.2553 13.6953 16.1437 13.6833 16.0162 13.6408C14.7638 13.2291 14.1396 11.9634 14.635 10.8279C14.7563 10.5404 14.9398 10.2833 15.1721 10.075C15.4045 9.86678 15.6801 9.71249 15.9791 9.62325C16.1477 9.57012 16.2447 9.51965 16.2779 9.31114C16.2844 9.25624 16.3018 9.20321 16.3293 9.15521C16.3567 9.10721 16.3935 9.06523 16.4375 9.03177C16.4815 8.9983 16.5318 8.97404 16.5854 8.96043C16.639 8.94682 16.6947 8.94414 16.7494 8.95254C16.8554 8.94926 16.9585 8.98757 17.0367 9.05929C17.1149 9.13101 17.1619 9.23045 17.1677 9.33637C17.177 9.53426 17.2833 9.56348 17.4254 9.61129C18.3006 9.90348 18.8252 10.4998 18.966 11.4189C19.0032 11.6566 18.974 11.8797 18.7469 12.0205C18.6786 12.0642 18.5999 12.0889 18.5189 12.0918C18.4379 12.0948 18.3576 12.0759 18.2864 12.0372C18.2152 11.9986 18.1556 11.9415 18.114 11.872C18.0723 11.8025 18.0501 11.723 18.0496 11.642C18.0413 11.4399 17.9834 11.243 17.8811 11.0686C17.7787 10.8942 17.635 10.7477 17.4626 10.6419C17.3948 10.5994 17.3205 10.5264 17.2381 10.5609C17.1558 10.5954 17.1969 10.707 17.1969 10.7867C17.1969 11.3976 17.1969 12.0099 17.189 12.6208C17.189 12.8161 17.2554 12.8864 17.4307 12.9356C18.205 13.1853 18.7376 13.6926 18.9275 14.4948C19.1798 15.5639 18.541 16.6198 17.4506 16.9638C17.3098 17.0089 17.193 17.0249 17.185 17.2294C17.1691 17.4764 16.9924 17.6119 16.7414 17.6172C16.6866 17.6229 16.6311 17.6176 16.5784 17.6017C16.5256 17.5857 16.4765 17.5594 16.434 17.5243C16.3915 17.4892 16.3564 17.446 16.3307 17.3972C16.305 17.3484 16.2893 17.295 16.2845 17.24C16.2606 17.0568 16.1769 17.0129 16.0189 16.9651C15.6033 16.8444 15.2342 16.6001 14.9607 16.2647C14.6871 15.9293 14.5221 15.5186 14.4876 15.0872C14.4623 14.7472 14.6124 14.524 14.886 14.4908C15.1596 14.4576 15.3708 14.6316 15.4066 14.9743C15.4584 15.4949 15.736 15.8336 16.2553 16.0554ZM17.185 16.0301C17.6976 15.8614 18.0084 15.4763 18.0416 15.0048C18.0447 14.7812 17.9855 14.5611 17.8705 14.3692C17.7556 14.1773 17.5895 14.0212 17.3909 13.9184C17.2275 13.8347 17.1797 13.86 17.1823 14.0512C17.1969 14.7007 17.189 15.3528 17.189 16.0301H17.185ZM16.2553 12.739C16.2553 12.0524 16.246 11.4109 16.2553 10.7694C16.2553 10.4958 16.161 10.5264 15.9897 10.6366C15.6045 10.885 15.3774 11.2263 15.4093 11.6991C15.4531 12.2025 15.7533 12.5132 16.2553 12.739Z" fill="black"/>
<path id="Vector_11" d="M23.1724 20.2163C23.1724 20.6931 23.1724 21.1699 23.1724 21.6467C23.1724 22.0345 22.9586 22.2656 22.6292 22.2669C22.2998 22.2683 22.0847 22.0358 22.082 21.652C22.082 20.7002 22.082 19.7475 22.082 18.7939C22.082 18.4154 22.3052 18.1697 22.6239 18.167C22.9427 18.1644 23.1671 18.4114 23.1724 18.7872C23.183 19.2601 23.1724 19.7369 23.1724 20.2163Z" fill="#EAF2FD"/>
<path id="Vector_12" d="M22.6411 24.9497C22.7504 24.9502 22.8571 24.9832 22.9477 25.0444C23.0383 25.1056 23.1087 25.1923 23.15 25.2936C23.1913 25.3948 23.2016 25.506 23.1797 25.6131C23.1578 25.7202 23.1045 25.8184 23.0268 25.8952C22.949 25.9721 22.8502 26.0241 22.7428 26.0448C22.6354 26.0654 22.5244 26.0538 22.4236 26.0113C22.3229 25.9687 22.2371 25.8973 22.1769 25.806C22.1168 25.7147 22.0852 25.6076 22.086 25.4982C22.0863 25.4257 22.1009 25.354 22.129 25.2872C22.1572 25.2204 22.1982 25.1598 22.2497 25.1088C22.3013 25.0579 22.3624 25.0176 22.4296 24.9903C22.4967 24.963 22.5686 24.9492 22.6411 24.9497Z" fill="#EAF2FD"/>
<path id="Vector_13" d="M17.1875 16.03C17.1875 15.3526 17.1875 14.7018 17.1875 14.0471C17.1875 13.8598 17.2327 13.8346 17.396 13.9142C17.5947 14.0171 17.7608 14.1732 17.8757 14.365C17.9906 14.5569 18.0499 14.777 18.0468 15.0007C18.0109 15.4761 17.7002 15.8613 17.1875 16.03Z" fill="#FCDD7B"/>
<path id="Vector_14" d="M16.2551 12.739C15.753 12.5172 15.4582 12.2077 15.417 11.6937C15.3852 11.2236 15.6123 10.8822 15.9974 10.6312C16.1661 10.5236 16.263 10.4984 16.263 10.764C16.2458 11.4108 16.2551 12.0523 16.2551 12.739Z" fill="#FCDD7B"/>
</g>
</svg>
