<svg width="34" height="26" viewBox="0 0 34 26" fill="none" xmlns="http://www.w3.org/2000/svg">
<g id="SinIdentificar">
<path id="Vector" d="M10.0175 6.9686C9.91795 6.95103 9.82926 6.89517 9.77042 6.813C9.71159 6.73082 9.68728 6.62887 9.70271 6.52899C9.71201 6.20758 9.70271 5.8875 9.70271 5.5661C9.69738 5.46004 9.71434 5.35405 9.7525 5.25495C9.79066 5.15585 9.84917 5.06586 9.92426 4.99077C9.99935 4.91568 10.0893 4.85717 10.1884 4.81901C10.2875 4.78085 10.3935 4.76389 10.4996 4.76922C11.2965 4.75993 12.0854 4.75461 12.8769 4.76922C12.9847 4.77368 13.0919 4.75183 13.1893 4.70555C13.2868 4.65927 13.3714 4.58995 13.4361 4.5036C15.2636 2.54329 17.4789 1.94961 20.0568 2.65086C20.3583 2.73188 20.5083 2.88727 20.4698 3.20336C20.3925 3.28974 20.2878 3.34672 20.1733 3.36463C20.0588 3.38255 19.9416 3.36029 19.8416 3.30164C19.766 3.27663 19.6874 3.26188 19.6079 3.25782C19.2367 3.13188 18.8483 3.06379 18.4564 3.05594C17.7037 3.01145 16.9497 3.12062 16.2406 3.3768C15.5314 3.63299 14.8817 4.03083 14.3312 4.5461C14.2887 4.58461 14.221 4.62047 14.2449 4.68821C14.2754 4.77852 14.3631 4.74399 14.4269 4.74532C14.7465 4.75151 15.0674 4.75417 15.3897 4.75328C17.1951 4.75328 19 4.75063 20.8045 4.74532H22.1725C21.9593 4.50689 21.7165 4.29667 21.45 4.11977C21.2335 3.96438 21.1458 3.78243 21.3039 3.53539C21.4779 3.38532 21.6439 3.41586 21.8192 3.53539C22.2511 3.8427 22.642 4.20375 22.9826 4.60985C23.057 4.69618 23.1234 4.7825 23.2483 4.7586C23.3731 4.73469 23.3704 4.61383 23.3983 4.52485C23.6692 3.66127 24.1604 2.88313 24.8234 2.26704C24.9151 2.18336 25.0001 2.06118 25.1581 2.14485C25.271 2.31352 25.1395 2.39719 25.0386 2.49149C24.4705 3.02416 24.0371 3.68422 23.7742 4.41727C23.6414 4.76789 23.6839 4.80375 24.0597 4.77454C24.251 4.7586 24.2444 4.61118 24.2908 4.50891C24.9868 2.88594 26.2033 1.90844 27.9618 1.73047C29.7853 1.54586 31.2197 2.28829 32.1972 3.83555C32.6521 4.57633 32.8756 5.436 32.8392 6.30455C32.8028 7.1731 32.508 8.01102 31.9926 8.7111C31.901 8.83461 31.8266 9.01524 31.6168 8.87711C31.5623 8.71243 31.6845 8.61149 31.7642 8.50524C32.3536 7.68635 32.6196 6.67859 32.5113 5.6755C32.4029 4.6724 31.9278 3.7447 31.1772 3.07055C30.2023 2.20196 29.0522 1.84336 27.7519 2.07579C26.4238 2.27235 25.4702 3.00547 24.8061 4.13704C24.6972 4.3243 24.4887 4.56868 24.595 4.72407C24.7012 4.87946 25.0014 4.77055 25.2192 4.75993C25.599 4.81039 26.0015 4.68688 26.3627 4.94985C26.3814 4.75986 26.4102 4.571 26.449 4.38407C26.6363 3.67883 27.1476 3.3136 27.813 3.11969C27.914 3.09047 28.0308 3.10375 28.0468 2.94039C28.0667 2.71063 28.238 2.62032 28.4452 2.60571C28.6723 2.58844 28.8769 2.65618 28.9459 2.89524C28.9844 3.02805 29.0535 3.03602 29.1597 3.04797C29.4506 3.06987 29.7349 3.146 29.9978 3.27243C30.4347 3.49954 30.5543 3.89 30.3245 4.33493C30.1253 4.72141 29.8145 4.80243 29.3603 4.58461C28.9619 4.39469 28.9619 4.39469 28.9619 4.81571C28.9645 4.84575 28.9645 4.87597 28.9619 4.90602C28.8968 5.23274 29.0322 5.39743 29.347 5.52227C29.9168 5.74805 30.367 6.12524 30.5264 6.75743C30.792 7.79469 30.2528 8.73899 29.2248 9.07899C29.1133 9.11618 28.9711 9.10157 28.9499 9.2968C28.9247 9.53453 28.7281 9.61821 28.5116 9.62485C28.2951 9.63149 28.1132 9.5611 28.0468 9.32735C28.0269 9.25563 28.0176 9.19454 27.9246 9.18657C27.4563 9.13361 27.0075 8.96871 26.6164 8.70579C26.6164 9.01524 26.631 9.28485 26.6164 9.5518C26.6012 9.63486 26.6192 9.72057 26.6667 9.79041C26.7142 9.86024 26.7872 9.90859 26.8701 9.925C28.404 10.4895 29.8065 10.2677 31.0829 9.24633C31.1825 9.16797 31.2582 9.04313 31.4149 9.07766C31.5477 9.22508 31.4627 9.32336 31.3472 9.4243C30.6458 10.0506 29.7605 10.4331 28.8237 10.5147C28.1607 10.5762 27.4922 10.4887 26.8674 10.2584C26.793 10.2305 26.6881 10.103 26.627 10.277C26.6027 10.3287 26.5905 10.3853 26.5912 10.4424C26.592 10.4996 26.6056 10.5558 26.6312 10.6069C26.6567 10.658 26.6935 10.7027 26.7388 10.7375C26.7841 10.7724 26.8367 10.7966 26.8926 10.8082C28.7148 11.3395 30.371 11.022 31.7669 9.72977C33.1627 8.4375 33.6647 6.77071 33.2039 4.90204C32.407 1.66008 28.6617 0.16727 25.8142 1.92438C25.6907 2.00008 25.5791 2.12891 25.4158 2.01469C25.36 1.83407 25.4901 1.765 25.6097 1.68797C26.2473 1.2814 26.9654 1.01757 27.7146 0.914576C28.4638 0.811585 29.2264 0.871872 29.9501 1.0913C30.6738 1.31073 31.3415 1.68411 31.9073 2.18582C32.4732 2.68754 32.9238 3.30571 33.2283 3.99794C33.5328 4.69018 33.6839 5.44008 33.6714 6.19622C33.6588 6.95236 33.4828 7.69683 33.1555 8.37857C32.8282 9.06032 32.3573 9.66319 31.7751 10.1458C31.1929 10.6285 30.5132 10.9795 29.7826 11.1748C28.8464 11.4269 27.8584 11.4126 26.9298 11.1336C26.6642 11.0552 26.6137 11.1123 26.6257 11.3713C26.6456 11.8016 26.6363 12.2346 26.6257 12.6663C26.6257 12.819 26.6642 12.8827 26.8222 12.9319C27.4597 13.1431 27.7094 13.7965 27.3827 14.3928C27.3492 14.4384 27.3311 14.4936 27.3311 14.5502C27.3311 14.6068 27.3492 14.662 27.3827 14.7076C27.477 14.8578 27.527 15.0316 27.527 15.2089C27.527 15.3863 27.477 15.5601 27.3827 15.7103C27.3489 15.7561 27.3306 15.8115 27.3306 15.8684C27.3306 15.9253 27.3489 15.9807 27.3827 16.0264C27.4796 16.1806 27.5311 16.359 27.5311 16.5411C27.5311 16.7232 27.4796 16.9016 27.3827 17.0557C27.3442 17.1221 27.2924 17.1699 27.3349 17.2695C27.7506 18.2497 27.9644 19.2936 28.2646 20.3096C28.7268 21.8542 29.1637 23.4068 29.61 24.958C29.7229 25.3565 29.5542 25.5438 29.181 25.4601C29.0044 25.4202 29.011 25.2542 28.9313 25.148C28.744 24.4733 28.5608 23.7973 28.3682 23.1239C27.9644 21.7072 27.5567 20.2937 27.145 18.8832C27.1224 18.8062 27.1569 18.6335 27.0042 18.6734C26.8063 18.7238 26.55 18.753 26.623 19.0824C26.6357 19.2021 26.6357 19.3227 26.623 19.4423C26.623 20.0772 26.3866 20.3388 25.7571 20.3866C25.6136 20.3973 25.5619 20.4358 25.5751 20.5806C25.603 20.89 25.619 21.2008 25.6415 21.5102C25.7301 22.7295 25.8186 23.9482 25.9072 25.1666C25.9059 25.2107 25.8953 25.2541 25.8762 25.2939C25.8571 25.3337 25.8297 25.3691 25.796 25.3976C25.7624 25.4262 25.723 25.4473 25.6806 25.4597C25.6382 25.4721 25.5937 25.4754 25.5499 25.4694C25.5059 25.4745 25.4613 25.4702 25.4191 25.4566C25.377 25.443 25.3382 25.4206 25.3055 25.3907C25.2727 25.3609 25.2468 25.3244 25.2294 25.2836C25.212 25.2429 25.2035 25.1989 25.2046 25.1546C25.1554 24.4454 25.1023 23.7375 25.0598 23.0296C25.0505 22.8742 24.9775 22.8344 24.8407 22.8091C24.2395 22.7011 23.6392 22.5865 23.0397 22.4652C22.9731 22.4476 22.9028 22.449 22.8369 22.4692C22.771 22.4893 22.712 22.5275 22.6665 22.5794C21.9706 23.2567 21.2667 23.9261 20.5641 24.5968C19.8828 25.2449 19.1802 25.2024 18.5719 24.4786C18.564 24.4693 18.5387 24.4786 18.5161 24.472V25.1559C18.467 25.3432 18.3953 25.4747 18.1549 25.4734C17.9145 25.472 17.8415 25.3405 17.795 25.1559C17.8219 24.9153 17.8196 24.6722 17.7883 24.4321C17.1057 25.229 16.4336 25.2529 15.7045 24.5649C15.654 24.5171 15.6062 24.464 15.5518 24.4202C15.5049 24.3905 15.4647 24.3514 15.4338 24.3053C15.4029 24.2592 15.382 24.2072 15.3724 24.1526C15.3627 24.0979 15.3646 24.0419 15.3779 23.988C15.3912 23.9342 15.4156 23.8837 15.4495 23.8398C15.6753 23.707 15.8679 23.7534 16.0405 23.9407C16.1298 24.0349 16.2247 24.1236 16.3247 24.2063C16.6023 24.4467 16.9065 24.4228 17.1362 24.1373C17.2876 23.95 17.4178 23.7468 17.5679 23.5582C17.6542 23.452 17.6648 23.3855 17.54 23.2926C16.7976 22.7613 16.0631 22.2168 15.3207 21.6842C15.2123 21.5996 15.0773 21.5562 14.9399 21.5618C14.8024 21.5674 14.6715 21.6216 14.5703 21.7148C14.4667 21.7945 14.3737 21.8874 14.2661 21.9618C14.1108 22.0694 14.144 22.153 14.2661 22.2593C14.3883 22.3656 14.5424 22.5249 14.6858 22.6484C14.8651 22.8038 14.9369 22.9805 14.8186 23.2063C14.5822 23.3909 14.383 23.3391 14.1878 23.1306C13.9926 22.922 13.7894 22.76 13.6061 22.5674C13.5691 22.5213 13.5197 22.4866 13.4637 22.4676C13.4077 22.4485 13.3474 22.4458 13.29 22.4598C12.6817 22.5834 12.0734 22.6989 11.4638 22.8105C11.331 22.8344 11.2579 22.8795 11.2486 23.0336C11.2075 23.7415 11.153 24.4494 11.1039 25.1586C11.1047 25.2029 11.0961 25.247 11.0786 25.2877C11.061 25.3284 11.0349 25.3649 11.0021 25.3947C10.9692 25.4246 10.9304 25.447 10.8882 25.4606C10.8459 25.4741 10.8013 25.4785 10.7572 25.4734C10.7134 25.4791 10.6688 25.4757 10.6264 25.4631C10.584 25.4506 10.5447 25.4293 10.511 25.4007C10.4774 25.372 10.4501 25.3366 10.431 25.2967C10.4118 25.2569 10.4013 25.2134 10.4 25.1692C10.5115 23.6507 10.6244 22.1322 10.7386 20.6138C10.7519 20.4384 10.6935 20.3986 10.5261 20.3893C9.96435 20.3627 9.69474 20.0692 9.68943 19.5074C9.68943 19.3268 9.68146 19.1462 9.68943 18.9669C9.70669 18.68 9.44771 18.7371 9.30826 18.6813C9.1688 18.6255 9.19271 18.8141 9.17544 18.8859C8.85935 19.9616 8.54946 21.0388 8.24576 22.1172C7.95755 23.1279 7.67599 24.1399 7.39044 25.1506C7.31076 25.2569 7.31873 25.4229 7.14209 25.4641C6.77021 25.5491 6.59888 25.3578 6.7131 24.9634C7.2169 23.212 7.72159 21.4607 8.22716 19.7093C8.23779 19.6708 8.24443 19.6323 8.26037 19.5592C7.80194 19.6231 7.33924 19.651 6.87646 19.6429C4.40482 19.6256 2.60123 18.4688 1.43115 16.3438C0.199976 14.0754 0.570523 10.8481 2.70748 8.91961C2.81771 8.82 2.91466 8.68586 3.09529 8.7868C3.24802 9.03383 3.02224 9.1268 2.89474 9.24633C1.98796 10.1171 1.38619 11.2572 1.17878 12.4971C0.971361 13.7371 1.16936 15.0109 1.74338 16.1294C2.31739 17.2479 3.23682 18.1515 4.36514 18.7059C5.49347 19.2604 6.77052 19.4362 8.00669 19.2073C8.43833 19.1236 8.56583 18.9416 8.53794 18.4662C5.87107 19.2312 3.69427 17.992 2.61052 16.4076C1.41521 14.6638 1.34349 12.2824 2.59724 10.5745C4.46857 8.02844 6.90833 7.65258 9.69872 8.95016C9.69872 8.18782 9.85279 8.33258 9.11568 8.04704C7.28287 7.32586 5.51248 7.49985 3.82841 8.52118C3.6956 8.60485 3.56279 8.71243 3.3888 8.62743C3.32373 8.45211 3.40076 8.35118 3.54951 8.25954C5.46201 7.08282 7.45021 6.93141 9.51677 7.81196C9.68412 7.88368 9.83951 7.9793 10.0188 7.8518C10.3017 7.89696 10.3854 8.07227 10.384 8.34453C10.384 9.67266 10.384 11.0008 10.392 12.3183C10.3929 12.4185 10.3885 12.5187 10.3787 12.6184C10.3469 12.8283 10.4252 12.8987 10.6444 12.8841C10.8747 12.8688 11.1059 12.8688 11.3363 12.8841C12.0229 12.9146 12.4386 13.4153 12.3244 14.098C12.2979 14.2547 12.3629 14.3012 12.4692 14.3742C13.0854 14.7966 13.0947 15.6266 12.4811 16.0397C12.4208 16.0643 12.3717 16.1103 12.343 16.1688C12.3144 16.2273 12.3082 16.2944 12.3258 16.3571C12.3716 16.5651 12.3447 16.7825 12.2494 16.973C12.1542 17.1635 11.9964 17.3156 11.8025 17.4037C11.6192 17.4873 11.5594 17.5617 11.5767 17.7729C11.6165 18.2696 11.2394 18.7371 10.7559 18.7451C10.404 18.7451 10.3296 18.8779 10.3801 19.1794C10.3894 19.2391 10.3801 19.2989 10.3907 19.36C10.3309 19.6256 10.4319 19.708 10.7028 19.708C12.9898 19.6987 15.2768 19.708 17.5626 19.7C17.8109 19.7 18.0008 19.7478 18.0553 20.0227C18.0154 20.2884 17.8481 20.3866 17.5904 20.3813C17.2305 20.3734 16.8706 20.3813 16.5094 20.3813C15.9104 20.3813 15.9104 20.3813 15.9316 20.9856C15.8479 21.1503 15.9024 21.2513 16.0511 21.3575C16.694 21.8144 17.3319 22.2797 17.965 22.7534C17.9908 22.7802 18.0217 22.8015 18.0559 22.8161C18.0902 22.8307 18.127 22.8382 18.1642 22.8382C18.2014 22.8382 18.2382 22.8307 18.2725 22.8161C18.3067 22.8015 18.3376 22.7802 18.3634 22.7534C18.9956 22.2797 19.6335 21.8139 20.2772 21.3562C20.426 21.2513 20.4791 21.1477 20.3968 20.9843C20.3934 20.8753 20.3961 20.7663 20.4047 20.6576C20.4353 20.4345 20.349 20.3574 20.1245 20.376C19.9001 20.3946 19.6464 20.376 19.4086 20.376C19.151 20.384 18.9903 20.2804 18.9451 20.0188C19.0036 19.7731 19.1629 19.692 19.41 19.6934C20.2932 19.7027 21.1764 19.7 22.0596 19.6934C23.0132 19.6934 23.9663 19.688 24.919 19.6774C25.0293 19.6774 25.1395 19.6947 25.2484 19.6934C26.0851 19.6761 25.9271 19.8328 25.951 18.9735C25.951 18.8075 25.9111 18.7557 25.7372 18.7504C25.0904 18.7305 24.7145 18.3201 24.7544 17.6879C24.7623 17.5551 24.7464 17.4993 24.6215 17.4382C24.1089 17.1952 23.9269 16.8485 24.0106 16.3027C24.0258 16.2575 24.0249 16.2084 24.0079 16.1638C23.9909 16.1192 23.959 16.0819 23.9176 16.0583C23.223 15.5669 23.219 14.8098 23.9057 14.3317C23.9485 14.3106 23.9826 14.2751 24.002 14.2314C24.0214 14.1877 24.0249 14.1386 24.0119 14.0927C23.9057 13.3728 24.3214 12.8814 25.0452 12.8615C25.2856 12.8615 25.5273 12.8522 25.7677 12.8615C25.9151 12.8615 25.9523 12.815 25.9523 12.6742C25.9523 10.3367 25.9523 8.00011 25.9523 5.66438C25.9523 5.47446 25.8819 5.41868 25.704 5.42797C25.4383 5.43993 25.182 5.43727 24.9217 5.44125C24.842 5.44125 24.7623 5.43063 24.6813 5.43063H10.736C10.6957 5.43329 10.6554 5.43329 10.6151 5.43063C10.4465 5.41336 10.3814 5.48375 10.388 5.65508C10.3973 5.93532 10.388 6.21688 10.388 6.49711C10.388 6.77735 10.2844 6.92743 10.0175 6.9686ZM10.8927 17.7902C10.8754 17.6056 10.7599 17.5378 10.5886 17.5365C10.3309 17.5365 10.0733 17.5365 9.8156 17.5365C9.65091 17.5365 9.52341 17.5976 9.53005 17.8021C9.51279 18.012 9.63498 18.093 9.82091 18.0983C10.0865 18.0983 10.3442 18.1063 10.6045 18.0983C10.6451 18.1023 10.6861 18.0969 10.7243 18.0826C10.7625 18.0682 10.7968 18.0452 10.8247 18.0154C10.8526 17.9856 10.8732 17.9498 10.885 17.9107C10.8968 17.8717 10.8994 17.8304 10.8927 17.7902ZM26.793 17.7981C26.7997 17.5989 26.6708 17.5418 26.5061 17.5325C26.2485 17.5325 25.9908 17.5325 25.7332 17.5325C25.5645 17.5325 25.4463 17.6016 25.429 17.7862C25.4232 17.826 25.4265 17.8667 25.4387 17.9051C25.4509 17.9434 25.4717 17.9785 25.4995 18.0077C25.5272 18.0369 25.5613 18.0594 25.599 18.0734C25.6367 18.0875 25.6772 18.0928 25.7172 18.089C25.9829 18.0983 26.2405 18.0956 26.5008 18.089C26.6868 18.0837 26.809 18.008 26.793 17.7981ZM24.6747 13.8802C24.6614 14.1219 24.8141 14.1936 25.0133 14.1949C25.5003 14.2002 25.9873 14.2002 26.4743 14.1949C26.6801 14.1949 26.8156 14.102 26.8236 13.8775C26.8271 13.835 26.8213 13.7923 26.8064 13.7524C26.7915 13.7124 26.7681 13.6763 26.7376 13.6465C26.7072 13.6167 26.6705 13.5939 26.6303 13.5799C26.59 13.5659 26.5472 13.5609 26.5048 13.5654C25.9961 13.5654 25.4888 13.5588 24.9815 13.5654C24.7915 13.5681 24.6574 13.6584 24.6747 13.8802ZM11.6471 13.8802C11.663 13.6384 11.5143 13.5681 11.3097 13.5654C10.8223 13.5654 10.3336 13.5654 9.8488 13.5654C9.64162 13.5654 9.50747 13.6557 9.49951 13.8802C9.49154 14.1046 9.64294 14.1963 9.8488 14.1976C10.3358 14.1976 10.8228 14.1976 11.3097 14.1976C11.509 14.1936 11.6604 14.1219 11.6471 13.8802ZM26.8183 16.466C26.7797 16.2708 26.6416 16.2097 26.4636 16.2097C25.9815 16.2097 25.4994 16.2097 25.0173 16.2097C24.8433 16.2097 24.6972 16.2615 24.6786 16.4753C24.6361 16.7197 24.761 16.8379 24.9881 16.8419C25.4866 16.8507 25.9842 16.8507 26.4809 16.8419C26.716 16.8379 26.8541 16.7237 26.8183 16.466ZM9.50349 16.466C9.46763 16.7237 9.60576 16.8379 9.84083 16.8406C10.3393 16.8485 10.8369 16.8485 11.3336 16.8406C11.5608 16.8406 11.6856 16.7184 11.6431 16.474C11.6285 16.2655 11.4797 16.2163 11.3111 16.2084C10.825 16.2084 10.3389 16.2084 9.85013 16.2084C9.77017 16.1976 9.68918 16.2186 9.62443 16.2667C9.55968 16.3148 9.51628 16.3864 9.50349 16.466ZM24.1208 15.0728C24.0558 15.3597 24.1447 15.5111 24.4144 15.5151C25.1116 15.5244 25.8115 15.5244 26.5088 15.5151C26.5566 15.5205 26.605 15.514 26.6497 15.496C26.6943 15.4781 26.7338 15.4493 26.7645 15.4122C26.7952 15.3752 26.8162 15.3311 26.8256 15.2839C26.835 15.2367 26.8325 15.1879 26.8183 15.1419C26.8033 15.0623 26.7582 14.9917 26.6924 14.9446C26.6265 14.8976 26.545 14.8779 26.465 14.8895H24.429C24.2935 14.8962 24.1686 14.9201 24.1208 15.0728ZM12.2009 15.0728C12.1531 14.9201 12.0283 14.8962 11.8875 14.8962H9.85677C9.7767 14.8845 9.69522 14.9042 9.62937 14.9513C9.56352 14.9983 9.51842 15.069 9.50349 15.1485C9.48927 15.1945 9.48674 15.2433 9.49612 15.2905C9.5055 15.3377 9.5265 15.3818 9.55722 15.4189C9.58794 15.4559 9.62741 15.4847 9.67206 15.5027C9.71671 15.5206 9.76513 15.5272 9.81294 15.5217C10.5115 15.5323 11.2101 15.5323 11.9087 15.5217C12.1783 15.5111 12.266 15.3584 12.2009 15.0728ZM6.2788 18.2683C6.90302 18.3905 7.51529 18.3174 8.13021 18.1859C8.51935 18.1036 8.83412 17.9734 8.87662 17.5152C8.89608 17.4373 8.93034 17.3638 8.97755 17.2988C9.01341 17.2363 9.04529 17.1792 8.99216 17.1075C8.87222 16.9272 8.80253 16.7181 8.79029 16.5019C8.47927 16.7473 8.11992 16.9243 7.73576 17.0212C7.62419 17.0464 7.60294 17.1181 7.59232 17.2164C7.55646 17.4608 7.37849 17.5723 7.15802 17.6148C6.93755 17.6573 6.65865 17.6268 6.60154 17.4236C6.49662 17.0491 6.2031 17.0929 5.95474 17.0318C5.63089 16.9591 5.32156 16.8325 5.03966 16.6573C4.77585 16.5065 4.56626 16.2765 4.44068 15.9998C4.37186 15.7994 4.36615 15.5827 4.42434 15.379C4.48252 15.1752 4.60179 14.9942 4.76607 14.8603C5.0649 14.6106 5.3438 14.6199 5.75685 14.8935C5.94146 15.0157 6.12607 15.1366 6.31466 15.2508C6.43021 15.3212 6.5006 15.2933 6.49794 15.1419C6.49794 14.8763 6.48732 14.6186 6.49794 14.3583C6.51251 14.2851 6.49769 14.2091 6.45669 14.1467C6.41568 14.0843 6.35179 14.0406 6.2788 14.0249C5.98328 13.9247 5.7027 13.7848 5.44474 13.6092C5.03165 13.3492 4.73017 12.9447 4.59906 12.4745C4.46795 12.0043 4.5166 11.5021 4.73552 11.0659C5.03834 10.4284 5.58552 10.0977 6.24162 9.91571C6.37443 9.88118 6.48732 9.87586 6.50724 9.69258C6.53513 9.42696 6.73701 9.32735 6.97474 9.3061C7.21248 9.28485 7.46748 9.35125 7.54716 9.59829C7.61623 9.8161 7.74638 9.82805 7.92169 9.84797C8.3049 9.87218 8.67499 9.99676 8.99482 10.2092C9.3813 10.4895 9.44505 10.9503 9.1688 11.4178C8.93904 11.8163 8.58443 11.9026 8.13419 11.6834L7.83404 11.5427C7.67201 11.4656 7.56841 11.4683 7.59365 11.6967C7.60892 11.9072 7.60892 12.1185 7.59365 12.3289C7.58071 12.3974 7.59518 12.4681 7.63393 12.526C7.67268 12.5839 7.73262 12.6243 7.80084 12.6384C8.17022 12.7722 8.51454 12.9671 8.81951 13.2148C8.86466 13.2533 8.91912 13.3556 8.98818 13.2798C9.16222 13.0845 9.39072 12.9458 9.64427 12.8814C9.72927 12.8588 9.70537 12.7645 9.70537 12.6968C9.70537 11.6728 9.70537 10.6488 9.70537 9.62485C9.70901 9.57139 9.69733 9.51799 9.67169 9.47094C9.64604 9.42389 9.60751 9.38513 9.5606 9.35922C8.5499 8.73235 7.46482 8.46008 6.2788 8.65399C6.22928 8.65067 6.17958 8.65067 6.13005 8.65399C2.63709 9.23172 0.90521 13.3024 2.92263 16.2044C3.73412 17.3731 4.84841 18.0837 6.2788 18.2683ZM6.86052 14.7727C6.86052 14.9732 6.86052 15.1711 6.86052 15.3743C6.86052 15.7448 6.78349 15.794 6.42091 15.6838C6.05833 15.5735 5.78873 15.3398 5.48193 15.1525C5.2163 14.9891 5.04232 15.0343 4.87365 15.2853C4.66115 15.6067 4.70896 15.9122 5.03169 16.1898C5.46998 16.567 6.00255 16.7024 6.56169 16.7516C6.75162 16.7675 6.8738 16.8193 6.86052 17.0318C6.85255 17.1766 6.90037 17.2669 7.06373 17.2549C7.20716 17.2456 7.25232 17.158 7.23771 17.0305C7.2138 16.8166 7.31209 16.733 7.51927 16.6918C7.9807 16.6215 8.40329 16.3928 8.71459 16.045C8.86068 15.8737 9.00013 15.7116 8.8474 15.458C8.81871 15.4047 8.80142 15.346 8.79661 15.2856C8.79181 15.2252 8.79961 15.1645 8.81951 15.1073C8.99084 14.7195 8.95232 14.3583 8.82748 13.9612C8.78965 13.7693 8.68978 13.5953 8.54326 13.4658C8.22271 13.2218 7.86357 13.0333 7.48076 12.908C7.40366 12.8899 7.33611 12.8436 7.29139 12.7782C7.24666 12.7128 7.22799 12.6331 7.23904 12.5547C7.25232 12.1563 7.25099 11.7711 7.23904 11.3806C7.23107 11.1256 7.35193 11.0685 7.57505 11.0991C7.83217 11.149 8.07996 11.2386 8.30951 11.3647C8.60834 11.5055 8.7863 11.4338 8.90982 11.1376C9.0506 10.8016 8.9749 10.5824 8.64419 10.4191C8.29318 10.2656 7.91556 10.1821 7.53255 10.1734C7.34263 10.1601 7.21912 10.1123 7.24037 9.89313C7.25498 9.74172 7.18193 9.66735 7.03052 9.67C6.87912 9.67266 6.85388 9.77625 6.86318 9.89711C6.87912 10.1149 6.76755 10.192 6.56302 10.2238C6.36508 10.258 6.17199 10.316 5.98794 10.3965C5.16584 10.7418 4.77935 11.4696 4.95334 12.3435C5.07818 12.9744 5.5324 13.3463 6.0849 13.5309C6.73037 13.7407 7.05709 14.0714 6.86052 14.7727ZM28.3456 7.20235C28.3456 7.3936 28.3456 7.58485 28.3456 7.77477C28.3456 8.01383 28.2447 8.07094 28.0215 8.00586C27.7054 7.9129 27.4544 7.70969 27.1835 7.54102C26.9484 7.39493 26.7479 7.46 26.6522 7.69907C26.5989 7.82934 26.5892 7.97342 26.6246 8.10967C26.66 8.24593 26.7387 8.36702 26.8488 8.45477C27.1876 8.71104 27.5959 8.85916 28.0202 8.87977C28.2088 8.89571 28.3682 8.91164 28.3509 9.15868C28.3416 9.27688 28.4107 9.31805 28.5183 9.31274C28.6258 9.30743 28.6723 9.25696 28.659 9.15868C28.6285 8.93289 28.76 8.8718 28.9499 8.82797C29.7468 8.63938 30.193 8.16391 30.278 7.4268C30.363 6.68969 30.0576 6.13188 29.2753 5.83305C28.76 5.63383 28.6232 5.36024 28.6524 4.83961C28.6989 3.99493 28.7387 3.94446 29.5104 4.30836C29.7415 4.4186 29.9287 4.44118 30.0615 4.17555C30.1944 3.90993 30.1426 3.68414 29.8743 3.54469C29.5997 3.41168 29.2988 3.34222 28.9937 3.34149C28.7892 3.33352 28.6298 3.30696 28.6537 3.04532C28.6644 2.93907 28.5847 2.9125 28.4957 2.9125C28.4067 2.9125 28.339 2.93774 28.3509 3.02672C28.3921 3.33219 28.1796 3.35211 27.9671 3.40391C27.4252 3.53672 26.975 3.79305 26.7811 4.3575C26.5075 5.14641 26.809 5.8118 27.7108 6.17438C28.2234 6.37891 28.5063 6.62461 28.3456 7.20102V7.20235ZM13.3351 20.3813C12.7826 20.3813 12.2315 20.3813 11.679 20.3813C11.5196 20.3813 11.4465 20.4159 11.4372 20.5898C11.416 21.0401 11.3788 21.4903 11.3416 21.9392C11.3283 22.0959 11.3562 22.1544 11.5342 22.1119C11.884 22.0231 12.2388 21.9553 12.5967 21.9087C13.1824 21.8423 13.6937 21.655 14.1134 21.2167C14.2294 21.0964 14.3712 21.0041 14.5281 20.9468C14.6851 20.8895 14.853 20.8687 15.0192 20.886C15.2184 20.9033 15.2596 20.8355 15.2503 20.6563C15.241 20.477 15.2503 20.372 15.0205 20.38C14.4601 20.3933 13.8983 20.3813 13.3351 20.3813ZM22.9853 20.3813C22.4129 20.3813 21.8404 20.3813 21.268 20.3813C21.1352 20.3813 21.0436 20.4145 21.0768 20.5633C21.1007 20.6722 20.9798 20.8913 21.183 20.8714C21.8126 20.809 22.211 21.1968 22.6373 21.5448C22.7408 21.6534 22.8722 21.7316 23.0172 21.7705C23.6095 21.8741 24.2019 21.9844 24.7902 22.1092C24.9708 22.1477 24.9961 22.0893 24.9828 21.9339C24.9469 21.4943 24.9097 21.0547 24.8938 20.6138C24.8872 20.4052 24.7902 20.3773 24.6122 20.38C24.0704 20.3893 23.5272 20.384 22.9853 20.384V20.3813ZM19.6132 24.3538C19.7528 24.35 19.8859 24.294 19.9864 24.197C20.6823 23.5312 21.3783 22.8671 22.0742 22.2048C22.1286 22.153 22.1977 22.1105 22.126 22.007C21.8019 21.5408 21.3039 21.4478 20.851 21.7772L19.325 22.8915C18.5533 23.4546 18.5533 23.4533 19.2147 24.1678C19.2653 24.2241 19.3266 24.2698 19.395 24.3022C19.4634 24.3346 19.5376 24.353 19.6132 24.3564V24.3538ZM28.0388 7.66852C28.034 7.58758 28.034 7.50642 28.0388 7.42547C28.1145 6.91414 28.0189 6.53297 27.4279 6.38422C27.1118 6.30454 26.8714 6.03891 26.6151 5.74539C26.6151 6.22352 26.6151 6.62461 26.6151 7.02438C26.6151 7.11602 26.5819 7.25149 26.7598 7.17711C27.0069 7.07618 27.2074 7.18641 27.4053 7.30993C27.6032 7.43344 27.7679 7.59149 28.0388 7.66852Z" fill="#080705"/>
<path id="Vector_2" d="M24.9131 19.6921C23.9613 19.6974 23.0082 19.7027 22.0537 19.708C21.1705 19.708 20.2873 19.708 19.4041 19.708C19.157 19.708 18.9977 19.7877 18.9392 20.0334H18.056C18.0016 19.7585 17.8116 19.7107 17.5633 19.7107C15.2776 19.7107 12.9905 19.7107 10.7035 19.7186C10.4379 19.7186 10.3316 19.6336 10.3914 19.3707C10.5388 19.3494 10.6862 19.3282 10.835 19.3096C11.4273 19.2379 12.0024 18.7664 12.0994 18.1886C12.1426 17.9452 12.2694 17.7244 12.458 17.5644C12.6002 17.4368 12.714 17.2808 12.7923 17.1065C12.8705 16.9322 12.9113 16.7434 12.9122 16.5524C12.9138 16.4928 12.9277 16.4342 12.9531 16.3802C12.9785 16.3263 13.0147 16.2782 13.0596 16.2389C13.3136 15.9671 13.4629 15.6139 13.4809 15.2423C13.4989 14.8707 13.3844 14.5047 13.1579 14.2096C13.0516 14.0768 12.9202 13.9572 12.9082 13.7474C12.894 13.3572 12.7262 12.9883 12.4414 12.7212C12.1566 12.4541 11.7778 12.3102 11.3875 12.321H10.3927C10.3927 10.9929 10.3808 9.66473 10.3848 8.34723C10.3848 8.0816 10.3024 7.89965 10.0195 7.85449V6.96863C10.2852 6.93144 10.3941 6.77473 10.3848 6.51043C10.3755 6.24613 10.3848 5.94863 10.3848 5.6684C10.3848 5.49707 10.4432 5.42668 10.6119 5.44394C10.6521 5.44661 10.6925 5.44661 10.7327 5.44394H24.678C24.7591 5.44394 24.8387 5.44394 24.9184 5.45457C24.9184 7.62118 24.9184 9.78691 24.9184 11.9518C24.9184 12.1643 24.8998 12.2864 24.6289 12.3329C24.3067 12.3948 24.0135 12.5604 23.7943 12.8046C23.5751 13.0487 23.4419 13.3579 23.415 13.685C23.4147 13.8561 23.3469 14.0203 23.2264 14.1418C22.6699 14.6731 22.747 15.7356 23.2862 16.2589C23.3253 16.2911 23.3568 16.3317 23.3781 16.3776C23.3995 16.4236 23.4103 16.4738 23.4097 16.5245C23.4089 16.7304 23.4533 16.934 23.5395 17.121C23.6258 17.308 23.7519 17.4738 23.9091 17.6069C23.9951 17.6735 24.0666 17.757 24.1191 17.8522C24.1716 17.9475 24.2041 18.0525 24.2145 18.1607C24.222 18.2821 24.2556 18.4004 24.3129 18.5077C24.3702 18.6149 24.4499 18.7086 24.5466 18.7823C24.6923 18.8792 24.8054 19.018 24.8708 19.1804C24.9362 19.3428 24.951 19.5211 24.9131 19.6921ZM17.0865 13.5309C17.0865 13.851 17.0865 14.1724 17.0865 14.4938C17.1011 15.1326 17.558 15.6001 18.157 15.6001C18.7559 15.6001 19.1982 15.1499 19.2195 14.523C19.2354 14.2727 19.2354 14.0216 19.2195 13.7713C19.2009 13.5389 19.2739 13.4286 19.501 13.333C20.0729 13.0901 20.5687 12.6974 20.9361 12.1962C21.3034 11.6951 21.5288 11.1041 21.5883 10.4856C21.6479 9.86709 21.5394 9.24397 21.2744 8.68195C21.0094 8.11993 20.5976 7.63983 20.0826 7.29227C19.5675 6.94471 18.9682 6.74257 18.3478 6.70717C17.7275 6.67176 17.1091 6.8044 16.5578 7.09111C16.0065 7.37781 15.5428 7.80795 15.2156 8.33617C14.8884 8.86439 14.7097 9.47112 14.6985 10.0924C14.6905 10.694 15.0757 11.1549 15.6428 11.2226C15.9102 11.2502 16.1782 11.1761 16.3935 11.0152C16.6088 10.8543 16.7556 10.6183 16.8049 10.354C16.8262 10.2464 16.8235 10.1349 16.8341 10.0246C16.8598 9.77124 16.9578 9.53056 17.1165 9.3313C17.2751 9.13203 17.4877 8.98259 17.7289 8.90078C17.9701 8.81897 18.2298 8.80824 18.4769 8.86988C18.724 8.93151 18.9482 9.06291 19.1228 9.24841C19.2973 9.43392 19.4148 9.66569 19.4613 9.91612C19.5078 10.1665 19.4813 10.4251 19.385 10.6608C19.2886 10.8966 19.1265 11.0997 18.918 11.246C18.7094 11.3922 18.4632 11.4754 18.2087 11.4856C17.4677 11.5387 17.0838 11.9478 17.0798 12.6915C17.0852 12.9678 17.0865 13.2493 17.0865 13.5309ZM18.1729 18.445C18.382 18.4405 18.5852 18.3744 18.7569 18.255C18.9286 18.1356 19.0613 17.9682 19.1383 17.7737C19.2152 17.5792 19.2331 17.3663 19.1896 17.1617C19.1461 16.9571 19.0431 16.7699 18.8937 16.6235C18.7442 16.4772 18.5549 16.3782 18.3494 16.339C18.144 16.2998 17.9315 16.3221 17.7387 16.4032C17.5458 16.4842 17.3812 16.6204 17.2654 16.7946C17.1496 16.9688 17.0879 17.1733 17.0878 17.3825C17.0941 17.6657 17.2113 17.9352 17.4142 18.1329C17.6171 18.3306 17.8896 18.4408 18.1729 18.4396V18.445Z" fill="#F0EEF1"/>
<path id="Vector_3" d="M3.3891 8.62356C3.56441 8.70856 3.69191 8.60098 3.82871 8.51731C5.51277 7.49997 7.28183 7.3313 9.11465 8.04184C9.85176 8.32739 9.70035 8.18262 9.69769 8.94497C6.90863 7.64208 4.46754 8.02325 2.59621 10.5693C1.34246 12.2772 1.41683 14.6586 2.60949 16.4024C3.69324 17.9868 5.87004 19.226 8.53691 18.461C8.56613 18.9404 8.43863 19.1184 8.00566 19.2021C6.76949 19.431 5.49243 19.2552 4.36411 18.7008C3.23579 18.1463 2.31636 17.2427 1.74234 16.1242C1.16833 15.0057 0.970327 13.7319 1.17774 12.4919C1.38516 11.252 1.98693 10.1119 2.89371 9.24114C3.02652 9.12161 3.24699 9.02864 3.09425 8.78161L3.3891 8.62356Z" fill="#E4B25F"/>
<path id="Vector_4" d="M7.39844 25.14C7.68398 24.1293 7.96555 23.1173 8.25375 22.1066C8.56099 21.0282 8.87089 19.951 9.18344 18.8753C9.20602 18.7996 9.18344 18.6096 9.31625 18.6707C9.44906 18.7318 9.71469 18.6707 9.69742 18.9563C9.68812 19.1356 9.69742 19.3162 9.69742 19.4968C9.69742 20.0586 9.97234 20.3521 10.5341 20.3787C10.7015 20.388 10.7599 20.4278 10.7466 20.6032C10.6298 22.1216 10.5169 23.6401 10.408 25.1586L7.39844 25.14Z" fill="#E29C7D"/>
<path id="Vector_5" d="M25.9083 25.16C25.8197 23.9408 25.7312 22.722 25.6426 21.5037C25.6201 21.1942 25.6041 20.8834 25.5762 20.574C25.5629 20.4292 25.6147 20.3907 25.7582 20.3801C26.3877 20.3322 26.6215 20.0706 26.6241 19.4358C26.6368 19.3161 26.6368 19.1955 26.6241 19.0758C26.5511 18.7465 26.8074 18.7172 27.0053 18.6668C27.158 18.6269 27.1235 18.7996 27.1461 18.8766C27.5587 20.288 27.9664 21.7015 28.3693 23.1173C28.5618 23.7907 28.7451 24.4667 28.9324 25.1414L25.9083 25.16Z" fill="#E29C7D"/>
<path id="Vector_6" d="M25.4021 2.01337C25.5695 2.12759 25.6811 1.99876 25.8006 1.92306C28.6481 0.165952 32.3907 1.65744 33.1903 4.90072C33.6511 6.76939 33.1677 8.41892 31.7532 9.72845C30.3388 11.038 28.6986 11.3395 26.879 10.8069C26.8231 10.7952 26.7705 10.7711 26.7252 10.7362C26.6799 10.7014 26.6431 10.6567 26.6176 10.6056C26.592 10.5545 26.5784 10.4982 26.5776 10.4411C26.5769 10.3839 26.5891 10.3274 26.6134 10.2756C26.6745 10.1017 26.7794 10.2292 26.8538 10.257C27.4807 10.4883 28.1515 10.5759 28.8168 10.5134C29.7535 10.4318 30.6388 10.0493 31.3402 9.42298C31.4557 9.32205 31.5474 9.22376 31.4079 9.07634C31.4614 9.07566 31.5125 9.05422 31.5504 9.01654C31.5883 8.97886 31.6101 8.92791 31.6111 8.87447C31.821 9.00728 31.8954 8.83197 31.987 8.70845C32.5024 8.00838 32.7971 7.17045 32.8335 6.3019C32.87 5.43335 32.6464 4.57368 32.1915 3.8329C31.2193 2.279 29.785 1.54056 27.9575 1.72517C26.199 1.90314 24.9825 2.88064 24.2865 4.50361C24.24 4.61119 24.2467 4.75861 24.0554 4.76923C23.6796 4.79845 23.6411 4.76259 23.7699 4.41197C24.0364 3.68256 24.472 3.02669 25.0409 2.49814C25.1418 2.40384 25.2733 2.32017 25.1604 2.1515L25.4021 2.01337Z" fill="#E4B25F"/>
<path id="Vector_7" d="M11.1211 25.148C11.1702 24.4415 11.2247 23.7336 11.2659 23.023C11.2752 22.869 11.3442 22.8238 11.481 22.7999C12.0906 22.6883 12.6989 22.5728 13.3072 22.4493C13.3647 22.4353 13.4249 22.4379 13.4809 22.457C13.5369 22.4761 13.5863 22.5107 13.6233 22.5568C13.8119 22.7494 14.0217 22.9247 14.205 23.12C14.3883 23.3152 14.6034 23.3856 14.8359 23.1957C15.0143 23.4308 15.2229 23.6416 15.4561 23.8226C15.4222 23.8664 15.3978 23.9169 15.3845 23.9708C15.3712 24.0247 15.3693 24.0807 15.379 24.1353C15.3886 24.19 15.4095 24.242 15.4404 24.2881C15.4713 24.3342 15.5115 24.3733 15.5584 24.4029C15.6128 24.4468 15.6606 24.4999 15.7111 24.5477C16.4402 25.241 17.1123 25.2118 17.7949 24.4149C17.8262 24.655 17.8285 24.8981 17.8016 25.1387L11.1211 25.148Z" fill="#F0EEF1"/>
<path id="Vector_8" d="M18.5273 25.1467V24.4587C18.5499 24.4587 18.5752 24.4587 18.5831 24.4654C19.1874 25.1892 19.89 25.2317 20.5753 24.5836C21.2779 23.9129 21.9818 23.2435 22.6777 22.5661C22.7232 22.5143 22.7821 22.4761 22.8481 22.4559C22.914 22.4357 22.9843 22.4344 23.0509 22.4519C23.6504 22.5732 24.2507 22.6879 24.8519 22.7959C24.9847 22.8211 25.0617 22.861 25.071 23.0164C25.1135 23.7269 25.1666 24.4348 25.2158 25.1414L18.5273 25.1467Z" fill="#F0EEF1"/>
<path id="Vector_9" d="M28.8229 14.1178C28.8654 14.0965 28.9066 14.074 28.9478 14.0514C29.0726 14.0952 29.155 14.0062 29.2493 13.9531C29.8577 13.6014 30.5771 13.4945 31.2615 13.654C31.9459 13.8135 32.544 14.2274 32.9343 14.8118C33.3246 15.3962 33.4778 16.1073 33.3629 16.8006C33.2481 17.4938 32.8736 18.1174 32.3157 18.5447C31.7578 18.972 31.0582 19.1709 30.3589 19.1011C29.6596 19.0313 29.0131 18.698 28.5507 18.1689C28.0882 17.6397 27.8444 16.9544 27.8689 16.2521C27.8933 15.5498 28.1841 14.8831 28.6822 14.3874C28.7565 14.313 28.8747 14.2599 28.8229 14.1178ZM32.3876 18.0583C32.4115 18.0119 32.4341 17.9654 32.4567 17.9189C32.6041 17.9601 32.6493 17.8405 32.709 17.7529C32.9059 17.4722 33.0408 17.1528 33.1046 16.8159C33.1685 16.4791 33.16 16.1325 33.0796 15.7992C32.9731 15.3233 32.7296 14.8891 32.3792 14.55C32.0288 14.2109 31.5867 13.9819 31.1076 13.8912C30.6285 13.8004 30.1333 13.8519 29.6832 14.0394C29.233 14.2268 28.8476 14.542 28.5745 14.9459C28.3014 15.3499 28.1525 15.825 28.1463 16.3126C28.1401 16.8002 28.2768 17.2789 28.5395 17.6897C28.8022 18.1005 29.1795 18.4254 29.6247 18.6242C30.0699 18.8231 30.5636 18.8872 31.0449 18.8087C31.5708 18.7224 32.0769 18.5471 32.3876 18.0583Z" fill="#E4B25F"/>
<path id="Vector_10" d="M28.8227 14.118C28.8745 14.2601 28.7536 14.3132 28.6819 14.3836C28.179 14.883 27.8851 15.5552 27.86 16.2634C27.8348 16.9717 28.0802 17.663 28.5463 18.1969C29.0124 18.7308 29.6643 19.0672 30.3695 19.1378C31.0747 19.2083 31.7803 19.0078 32.343 18.5769C32.9057 18.146 33.2832 17.517 33.3989 16.8178C33.5146 16.1186 33.3597 15.4015 32.9658 14.8124C32.5719 14.2232 31.9685 13.8061 31.2781 13.6458C30.5877 13.4855 29.8622 13.594 29.249 13.9493C29.1547 14.0024 29.0724 14.0914 28.9475 14.0476C28.9236 13.9055 29.0312 13.8603 29.1268 13.8032C30.941 12.7235 33.3078 13.8324 33.5893 15.9282C33.8549 17.9284 32.236 19.2631 30.7671 19.2977C29.0259 19.3375 27.8638 18.0107 27.723 16.8234C27.6101 15.8631 27.8372 15.0131 28.5013 14.2999C28.5849 14.203 28.6633 14.0808 28.8227 14.118Z" fill="#1D190D"/>
<path id="Vector_11" d="M19.6133 3.26832C19.6928 3.27239 19.7714 3.28713 19.847 3.31215C19.947 3.3708 20.0642 3.39305 20.1787 3.37514C20.2932 3.35722 20.398 3.30024 20.4752 3.21387C20.7847 3.23645 20.9932 3.52199 21.3053 3.53527C21.1473 3.7823 21.2349 3.96426 21.4514 4.11965C21.7199 4.29956 21.9641 4.51339 22.1779 4.75582H20.8099C20.6385 4.31173 20.3481 3.92344 19.9705 3.63355C19.8417 3.52465 19.6305 3.48746 19.6133 3.26832Z" fill="#726672"/>
<path id="Vector_12" d="M6.27915 8.65399C7.46517 8.46274 8.55024 8.735 9.5636 9.35524C9.61051 9.38115 9.64905 9.41991 9.67469 9.46696C9.70033 9.51401 9.71202 9.5674 9.70837 9.62086C9.70837 10.6448 9.70837 11.6688 9.70837 12.6928C9.70837 12.7606 9.73227 12.8548 9.64727 12.8774C9.39372 12.9418 9.16522 13.0806 8.99118 13.2759C8.92212 13.3516 8.86767 13.2493 8.82251 13.2108C8.51646 12.9642 8.17123 12.7707 7.80118 12.6384C7.7329 12.6237 7.67316 12.5827 7.63488 12.5243C7.5966 12.4659 7.58287 12.3947 7.59665 12.3263C7.61192 12.1158 7.61192 11.9045 7.59665 11.6941C7.57806 11.4656 7.67501 11.463 7.83704 11.54L8.1372 11.6808C8.58743 11.8959 8.94204 11.803 9.17181 11.4152C9.44806 10.9477 9.38431 10.4855 8.99782 10.2066C8.67759 9.99552 8.30753 9.87231 7.9247 9.8493C7.74938 9.82938 7.61923 9.81743 7.55017 9.59961C7.47048 9.35258 7.22477 9.28485 6.97774 9.30743C6.73071 9.33 6.53813 9.42961 6.51024 9.69391C6.49032 9.87719 6.37743 9.88251 6.24462 9.91704C5.58852 10.099 5.04134 10.4297 4.73853 11.0672C4.5196 11.5035 4.47095 12.0056 4.60206 12.4758C4.73318 12.946 5.03465 13.3505 5.44774 13.6106C5.7057 13.7862 5.98628 13.926 6.28181 14.0263C6.35479 14.0419 6.41869 14.0857 6.45969 14.148C6.50069 14.2104 6.51551 14.2864 6.50095 14.3596C6.48767 14.6252 6.50095 14.8816 6.50095 15.1432C6.50095 15.2946 6.43321 15.3225 6.31767 15.2521C6.12907 15.1379 5.94446 15.017 5.75985 14.8948C5.34681 14.6213 5.0679 14.612 4.76907 14.8616C4.6048 14.9955 4.48552 15.1765 4.42734 15.3803C4.36915 15.5841 4.37486 15.8008 4.44368 16.0012C4.56926 16.2778 4.77885 16.5079 5.04267 16.6586C5.32456 16.8338 5.63389 16.9604 5.95774 17.0331C6.21009 17.0942 6.49962 17.0504 6.60454 17.4249C6.66165 17.6281 6.94188 17.6587 7.16103 17.6162C7.38017 17.5737 7.55946 17.4621 7.59532 17.2177C7.60993 17.1195 7.6272 17.0477 7.73876 17.0225C8.12259 16.9268 8.48192 16.7512 8.79329 16.5072C8.80554 16.7234 8.87522 16.9325 8.99517 17.1128C9.04829 17.1845 9.01642 17.2456 8.98056 17.3041C8.93335 17.3691 8.89908 17.4426 8.87962 17.5206C8.83712 17.9788 8.52235 18.1089 8.13321 18.1913C7.51829 18.3241 6.90603 18.3958 6.28181 18.2736C6.21161 18.2174 6.13005 18.177 6.04274 18.1554C5.43509 17.9183 4.88011 17.5638 4.40952 17.1121C3.93894 16.6605 3.56197 16.1205 3.30017 15.5231C2.76506 14.3891 2.69358 13.0911 3.10095 11.9052C3.45214 10.7966 4.1811 9.84627 5.16087 9.21977C5.51282 8.99001 5.91126 8.84922 6.27915 8.65399Z" fill="#EEDB74"/>
<path id="Vector_13" d="M31.6184 8.87175C31.6174 8.92566 31.5952 8.977 31.5567 9.01475C31.5182 9.0525 31.4665 9.07364 31.4126 9.07363C31.2558 9.0391 31.1801 9.16394 31.0805 9.2423C29.8042 10.2636 28.4017 10.4854 26.8677 9.92097C26.7849 9.90456 26.7118 9.85621 26.6644 9.78637C26.6169 9.71654 26.5988 9.63083 26.614 9.54777C26.6326 9.28215 26.614 9.01652 26.614 8.70175C27.0069 8.96662 27.458 9.13248 27.9289 9.18519C28.0219 9.19449 28.0311 9.25425 28.0511 9.32597C28.1161 9.55972 28.2981 9.63144 28.5159 9.62347C28.7337 9.6155 28.929 9.53316 28.9542 9.29543C28.9754 9.10019 29.1176 9.1148 29.2291 9.07761C30.2571 8.73761 30.791 7.79332 30.5307 6.75605C30.3713 6.12386 29.9211 5.74668 29.3513 5.5209C29.0365 5.39605 28.9011 5.23136 28.9661 4.90464C28.9688 4.8746 28.9688 4.84438 28.9661 4.81433C28.9661 4.39332 28.9661 4.39332 29.3646 4.58324C29.8188 4.80105 30.1296 4.71605 30.3288 4.33355C30.5586 3.8873 30.439 3.49683 30.0021 3.27105C29.7392 3.14462 29.4549 3.0685 29.164 3.0466C29.0578 3.03464 28.9887 3.02535 28.9502 2.89386C28.8812 2.6548 28.6766 2.58707 28.4495 2.60433C28.2423 2.61894 28.071 2.70925 28.0511 2.93902C28.0351 3.10238 27.9183 3.0891 27.8173 3.11832C27.1533 3.31222 26.6406 3.67746 26.4533 4.38269C26.4145 4.56962 26.3857 4.75848 26.367 4.94847C26.0058 4.68285 25.6033 4.81566 25.2235 4.75855C25.2203 4.6987 25.2262 4.63871 25.2408 4.58058C25.5205 3.88221 25.9735 3.26655 26.5569 2.7916C26.932 2.51555 27.3322 2.27543 27.7522 2.07441C29.0578 1.84199 30.2026 2.20722 31.1775 3.06918C31.9281 3.74333 32.4032 4.67103 32.5116 5.67412C32.6199 6.67721 32.3539 7.68497 31.7645 8.50386C31.6861 8.61144 31.564 8.70707 31.6184 8.87175Z" fill="#EEDB74"/>
<path id="Vector_14" d="M6.86069 14.7727C7.05725 14.0714 6.72788 13.7407 6.08241 13.5243C5.52991 13.3396 5.07569 12.9678 4.95084 12.3369C4.77686 11.463 5.16334 10.7352 5.98545 10.3899C6.1695 10.3094 6.36259 10.2514 6.56053 10.2172C6.76506 10.1854 6.87663 10.1083 6.86069 9.89051C6.85139 9.76965 6.87397 9.66606 7.02803 9.6634C7.18209 9.66074 7.25249 9.73512 7.23788 9.88652C7.21663 10.1057 7.34014 10.1521 7.53006 10.1668C7.91307 10.1755 8.29069 10.259 8.6417 10.4125C8.97108 10.5758 9.04014 10.795 8.90733 11.131C8.78381 11.4271 8.60584 11.4989 8.30702 11.3581C8.07747 11.232 7.82968 11.1424 7.57256 11.0925C7.34944 11.0619 7.22858 11.119 7.23655 11.374C7.24717 11.7645 7.2485 12.1563 7.23655 12.5481C7.22493 12.6275 7.24381 12.7083 7.2894 12.7744C7.33498 12.8404 7.40389 12.8867 7.48225 12.904C7.86507 13.0294 8.2242 13.2179 8.54475 13.4618C8.69452 13.5931 8.79598 13.7708 8.83295 13.9665C8.95381 14.365 8.99631 14.7249 8.82499 15.1127C8.80509 15.1699 8.79729 15.2306 8.80209 15.2909C8.80689 15.3513 8.82419 15.41 8.85288 15.4633C9.00428 15.717 8.86483 15.879 8.72006 16.0504C8.40877 16.3981 7.98618 16.6268 7.52475 16.6971C7.31756 16.7383 7.21928 16.822 7.24319 17.0358C7.2578 17.1686 7.21264 17.251 7.0692 17.2603C6.90584 17.2722 6.85803 17.1819 6.866 17.0371C6.87928 16.8246 6.75709 16.7715 6.56717 16.7569C6.00803 16.7078 5.47545 16.5723 5.03717 16.1951C4.71444 15.9175 4.66663 15.6121 4.87913 15.2907C5.0478 15.0357 5.22577 14.9905 5.48741 15.1579C5.7942 15.3491 6.07311 15.5842 6.42639 15.6891C6.77967 15.794 6.86202 15.7502 6.866 15.3796C6.86202 15.1738 6.86069 14.9732 6.86069 14.7727ZM7.13295 14.8909V15.4593C7.13295 15.6838 7.23124 15.7648 7.45834 15.6997C7.85678 15.5842 8.09584 15.3013 8.09186 14.9281C8.09186 14.5801 7.73991 14.1604 7.38795 14.0834C7.21795 14.0462 7.14225 14.1365 7.13561 14.2919C7.12764 14.4978 7.13295 14.6904 7.13295 14.8962V14.8909ZM6.94967 11.8734V11.3315C6.95434 11.3041 6.95273 11.2759 6.94496 11.2491C6.93719 11.2224 6.92346 11.1977 6.90481 11.177C6.88615 11.1563 6.86305 11.1401 6.83724 11.1296C6.81143 11.1191 6.78357 11.1146 6.75577 11.1164C6.50608 11.1018 6.11163 11.3647 6.01334 11.6104C5.96106 11.7427 5.9556 11.8888 5.99788 12.0246C6.04016 12.1604 6.12764 12.2776 6.24577 12.3568C6.36654 12.4465 6.49708 12.5223 6.63491 12.5826C6.82881 12.6729 6.94702 12.6105 6.951 12.3847C6.95233 12.2134 6.951 12.0434 6.94967 11.8734Z" fill="#E8B560"/>
<path id="Vector_15" d="M24.9117 19.6922C24.9503 19.521 24.9361 19.3421 24.8708 19.1792C24.8056 19.0163 24.6925 18.877 24.5465 18.7797C24.4498 18.706 24.3701 18.6124 24.3128 18.5051C24.2555 18.3979 24.222 18.2795 24.2145 18.1582C24.2041 18.0499 24.1716 17.9449 24.119 17.8497C24.0665 17.7544 23.995 17.6709 23.909 17.6043C23.7519 17.4713 23.6257 17.3054 23.5395 17.1184C23.4532 16.9314 23.4089 16.7278 23.4096 16.5219C23.4102 16.4712 23.3995 16.421 23.3781 16.3751C23.3567 16.3291 23.3253 16.2885 23.2861 16.2563C22.7469 15.7397 22.6699 14.6625 23.2264 14.1393C23.3469 14.0177 23.4146 13.8536 23.4149 13.6824C23.4418 13.3554 23.5751 13.0462 23.7943 12.802C24.0135 12.5579 24.3066 12.3922 24.6289 12.3304C24.8945 12.2839 24.9184 12.1617 24.9184 11.9492C24.9184 9.78257 24.9184 7.61684 24.9184 5.452C25.184 5.452 25.4403 5.452 25.7006 5.43872C25.8786 5.42942 25.949 5.4852 25.949 5.67512C25.9437 8.01174 25.9437 10.3484 25.949 12.685C25.949 12.8257 25.9118 12.8789 25.7644 12.8722C25.524 12.8603 25.2823 12.8643 25.0419 12.8722C24.3181 12.8922 23.9024 13.3836 24.0086 14.1034C24.0216 14.1494 24.0181 14.1985 23.9987 14.2421C23.9793 14.2858 23.9452 14.3213 23.9024 14.3425C23.2157 14.8219 23.2197 15.579 23.9143 16.069C23.9557 16.0927 23.9876 16.13 24.0046 16.1746C24.0215 16.2191 24.0225 16.2682 24.0073 16.3134C23.9236 16.8593 24.1056 17.2059 24.6182 17.449C24.751 17.51 24.7603 17.5711 24.751 17.6986C24.7112 18.3322 25.0871 18.7425 25.7339 18.7611C25.9078 18.7611 25.953 18.8182 25.9477 18.9843C25.9238 19.8436 26.0805 19.6868 25.2451 19.7041C25.1322 19.7094 25.022 19.6975 24.9117 19.6922Z" fill="#DEDADE"/>
<path id="Vector_16" d="M28.3438 7.20095C28.5045 6.62454 28.2229 6.37884 27.7049 6.17032C26.8071 5.80774 26.5096 5.14235 26.7752 4.35345C26.9692 3.78899 27.4194 3.53001 27.9613 3.39985C28.1738 3.34806 28.3863 3.32813 28.3451 3.02267C28.3331 2.93368 28.4142 2.90845 28.4899 2.90845C28.5656 2.90845 28.6585 2.93767 28.6479 3.04126C28.624 3.30688 28.7807 3.32946 28.9879 3.33743C29.2906 3.3406 29.5887 3.41139 29.8605 3.54462C30.1261 3.68407 30.1859 3.89657 30.0477 4.17548C29.9096 4.45438 29.7277 4.41587 29.4966 4.30829C28.7249 3.9404 28.6851 3.99087 28.6386 4.83954C28.6094 5.36017 28.7462 5.63642 29.2615 5.83298C30.0438 6.13446 30.3439 6.70157 30.2642 7.42673C30.1845 8.15189 29.733 8.63931 28.9361 8.8279C28.7462 8.87173 28.6147 8.93282 28.6452 9.1586C28.6585 9.25689 28.6027 9.30735 28.5045 9.31267C28.4062 9.31798 28.3278 9.27681 28.3371 9.1586C28.3544 8.91157 28.195 8.89298 28.0064 8.8797C27.5821 8.85909 27.1738 8.71097 26.835 8.4547C26.7249 8.36695 26.6462 8.24586 26.6108 8.1096C26.5754 7.97334 26.5851 7.82927 26.6385 7.69899C26.7381 7.45993 26.9386 7.39485 27.1697 7.54095C27.4353 7.70962 27.6917 7.91282 28.0077 8.00579C28.2309 8.07087 28.3371 8.01376 28.3318 7.7747C28.3411 7.58345 28.3438 7.3922 28.3438 7.20095ZM28.5802 7.30188C28.5802 7.47188 28.5802 7.64188 28.5802 7.81056C28.5802 7.97923 28.6678 8.06157 28.8458 7.99915C29.1194 7.90618 29.3279 7.75079 29.3691 7.44532C29.4129 7.11329 29.2363 6.89681 28.9706 6.73478C28.8777 6.67767 28.782 6.60196 28.6665 6.64978C28.551 6.69759 28.5802 6.83704 28.5762 6.94196C28.5722 7.04688 28.5802 7.18235 28.5802 7.30188ZM28.4181 4.75587C28.4181 4.63634 28.4181 4.51548 28.4181 4.39595C28.4301 4.16087 28.3345 4.08384 28.1074 4.1622C27.8417 4.25118 27.6252 4.38798 27.5934 4.68548C27.5615 4.98298 27.7713 5.17556 28.021 5.3097C28.3252 5.47438 28.4195 5.42392 28.4195 5.08657C28.4195 4.97634 28.4181 4.8661 28.4181 4.75587Z" fill="#E8B560"/>
<path id="Vector_17" d="M19.614 3.26844C19.6313 3.48758 19.8425 3.52477 19.9713 3.63368C20.3489 3.92356 20.6393 4.31186 20.8107 4.75594C19.0062 4.75594 17.2013 4.7586 15.3959 4.76391C15.0745 4.76391 14.7535 4.76125 14.433 4.75594C14.3693 4.75594 14.2816 4.78914 14.2511 4.69883C14.2272 4.6311 14.2949 4.59524 14.3374 4.55672C14.8879 4.04145 15.5375 3.64361 16.2467 3.38743C16.9559 3.13124 17.7098 3.02208 18.4626 3.06657C18.8545 3.07442 19.2428 3.1425 19.614 3.26844Z" fill="#8F7F8F"/>
<path id="Vector_18" d="M6.2803 8.6541C5.91241 8.84933 5.51397 8.99012 5.16202 9.21988C4.18224 9.84459 3.45241 10.7929 3.09944 11.9C2.69207 13.0859 2.76355 14.3839 3.29866 15.5178C3.56092 16.1156 3.9385 16.6559 4.40979 17.1075C4.88109 17.5592 5.43683 17.9135 6.04522 18.1502C6.13252 18.1718 6.21409 18.2122 6.28429 18.2684C4.84991 18.0838 3.73561 17.3732 2.92413 16.2045C0.906708 13.3025 2.63858 9.23183 6.13155 8.6541C6.18108 8.65078 6.23077 8.65078 6.2803 8.6541Z" fill="#EEC454"/>
<path id="Vector_19" d="M10.3934 12.3143H11.3881C11.7785 12.3035 12.1573 12.4474 12.4421 12.7145C12.7269 12.9816 12.8946 13.3505 12.9088 13.7407C12.9208 13.9505 13.0523 14.0714 13.1585 14.2029C13.3851 14.498 13.4995 14.864 13.4815 15.2356C13.4636 15.6072 13.3143 15.9604 13.0602 16.2323C13.0154 16.2715 12.9791 16.3196 12.9537 16.3735C12.9283 16.4275 12.9144 16.4861 12.9128 16.5457C12.912 16.7367 12.8711 16.9255 12.7929 17.0998C12.7147 17.2741 12.6008 17.4301 12.4586 17.5577C12.2701 17.7177 12.1433 17.9385 12.1 18.1819C12.0031 18.7597 11.428 19.2312 10.8356 19.3029C10.6869 19.3215 10.5395 19.3427 10.392 19.364C10.392 19.3029 10.392 19.2431 10.3814 19.1833C10.3309 18.8858 10.4053 18.7557 10.7573 18.749C11.2407 18.7411 11.6179 18.2736 11.5781 17.7769C11.5608 17.5657 11.6206 17.4913 11.8038 17.4076C11.9985 17.3194 12.1569 17.1667 12.2522 16.9754C12.3475 16.784 12.374 16.5657 12.3271 16.3571C12.3055 16.2932 12.3089 16.2235 12.3368 16.1621C12.3647 16.1007 12.4149 16.0522 12.4772 16.0264C13.0908 15.6133 13.0815 14.7833 12.4652 14.3609C12.359 14.2879 12.2939 14.2414 12.3205 14.0847C12.4347 13.406 12.019 12.9013 11.3324 12.8708C11.102 12.8555 10.8708 12.8555 10.6404 12.8708C10.4266 12.888 10.3482 12.8176 10.3748 12.6051C10.386 12.5086 10.3922 12.4115 10.3934 12.3143Z" fill="#DEDADE"/>
<path id="Vector_20" d="M20.3873 20.9896C20.4696 21.153 20.4165 21.2552 20.2678 21.3615C19.6241 21.8193 18.9861 22.285 18.3539 22.7587C18.3282 22.7855 18.2972 22.8069 18.263 22.8215C18.2288 22.836 18.1919 22.8436 18.1547 22.8436C18.1175 22.8436 18.0807 22.836 18.0464 22.8215C18.0122 22.8069 17.9813 22.7855 17.9555 22.7587C17.3233 22.2859 16.6854 21.8206 16.0417 21.3628C15.8929 21.2566 15.8385 21.1556 15.9221 20.991L20.3873 20.9896Z" fill="#E29C7D"/>
<path id="Vector_21" d="M15.4553 23.8252C15.2221 23.6442 15.0136 23.4335 14.8351 23.1983C14.9466 22.9725 14.8749 22.7999 14.7023 22.6405C14.5588 22.5143 14.4287 22.3749 14.2826 22.2514C14.1365 22.1278 14.1232 22.0614 14.2826 21.9539C14.3902 21.8795 14.4831 21.7865 14.5867 21.7068C14.6879 21.6136 14.8189 21.5594 14.9563 21.5538C15.0937 21.5482 15.2287 21.5916 15.3371 21.6763C16.0795 22.2075 16.814 22.7521 17.5564 23.2846C17.6812 23.375 17.6706 23.4414 17.5843 23.5503C17.4342 23.7389 17.3041 23.9487 17.1527 24.1293C16.9229 24.4149 16.6214 24.4388 16.3412 24.1984C16.2411 24.1157 16.1462 24.027 16.0569 23.9328C15.8723 23.7389 15.6811 23.6884 15.4553 23.8252Z" fill="#B4D8A0"/>
<path id="Vector_22" d="M19.614 24.3564C19.5384 24.353 19.4642 24.3346 19.3958 24.3022C19.3274 24.2698 19.2661 24.2241 19.2155 24.1678C18.5515 23.4533 18.5515 23.4546 19.3258 22.8915L20.8571 21.7745C21.31 21.4452 21.808 21.5381 22.1321 22.0043C22.2038 22.1079 22.1321 22.1504 22.0803 22.2022C21.3861 22.8689 20.6902 23.533 19.9925 24.1944C19.8915 24.2946 19.7562 24.3525 19.614 24.3564Z" fill="#B4D8A0"/>
<path id="Vector_23" d="M20.3878 20.9896H15.932C15.9107 20.3853 15.9107 20.3853 16.5097 20.3853C16.871 20.3853 17.2309 20.3787 17.5908 20.3853C17.8485 20.3853 18.0158 20.295 18.0557 20.0267H18.9389C18.984 20.2924 19.1447 20.392 19.4024 20.384C19.6401 20.376 19.8805 20.3973 20.1182 20.384C20.356 20.3707 20.429 20.4424 20.3985 20.6656C20.389 20.7733 20.3855 20.8815 20.3878 20.9896Z" fill="#D98A62"/>
<path id="Vector_24" d="M27.7516 2.07056C27.3315 2.27157 26.9313 2.5117 26.5563 2.78774C25.9728 3.2627 25.5199 3.87836 25.2401 4.57673C25.2255 4.63486 25.2197 4.69484 25.2228 4.7547C25.005 4.76532 24.6916 4.8636 24.5986 4.71884C24.5056 4.57407 24.7009 4.3204 24.8098 4.13181C25.4698 2.99493 26.4261 2.26712 27.7516 2.07056Z" fill="#EEC454"/>
<path id="Vector_25" d="M28.0407 7.66841C27.7751 7.59669 27.5998 7.43732 27.4099 7.3138C27.22 7.19028 27.0114 7.07607 26.7644 7.18099C26.5864 7.25536 26.6196 7.11989 26.6196 7.02825C26.6196 6.62982 26.6196 6.23138 26.6196 5.74927C26.876 6.04278 27.1164 6.30841 27.4325 6.3881C28.0235 6.53685 28.1191 6.91935 28.0434 7.42935C28.0379 7.50891 28.037 7.58874 28.0407 7.66841Z" fill="#EEDB74"/>
<path id="Vector_26" d="M12.2025 15.0728C12.2676 15.3583 12.18 15.511 11.9103 15.515C11.2118 15.5239 10.5132 15.5239 9.81457 15.515C9.76675 15.5205 9.71833 15.5139 9.67368 15.496C9.62903 15.478 9.58956 15.4492 9.55884 15.4122C9.52812 15.3751 9.50712 15.331 9.49774 15.2838C9.48836 15.2366 9.49089 15.1878 9.50511 15.1418H11.9582C12.0458 15.1471 12.1414 15.1617 12.2025 15.0728Z" fill="#D98A62"/>
<path id="Vector_27" d="M26.819 15.1406C26.8332 15.1866 26.8357 15.2354 26.8263 15.2826C26.8169 15.3298 26.7959 15.3739 26.7652 15.4109C26.7345 15.448 26.695 15.4768 26.6504 15.4948C26.6057 15.5127 26.5573 15.5193 26.5095 15.5138C25.8122 15.5244 25.1123 15.5244 24.4151 15.5138C24.1494 15.5138 24.0565 15.3584 24.1215 15.0715C24.184 15.1618 24.2783 15.1459 24.3659 15.1459L26.819 15.1406Z" fill="#D98A62"/>
<path id="Vector_28" d="M11.6413 16.4713C11.6838 16.7157 11.559 16.8339 11.3319 16.8379C10.8352 16.8468 10.3376 16.8468 9.83907 16.8379C9.60399 16.8379 9.46586 16.721 9.50172 16.4634L11.6413 16.4713Z" fill="#D98A62"/>
<path id="Vector_29" d="M26.8197 16.4661C26.8556 16.7237 26.7175 16.8379 26.4824 16.8406C25.9857 16.8486 25.4881 16.8486 24.9896 16.8406C24.7625 16.8406 24.6376 16.7184 24.6801 16.474L26.8197 16.4661Z" fill="#D98A62"/>
<path id="Vector_30" d="M11.6489 13.8801C11.6622 14.1218 11.5161 14.1935 11.3102 14.1949C10.8224 14.2002 10.3354 14.2002 9.8493 14.1949C9.64344 14.1949 9.50797 14.1019 9.5 13.8774L11.6489 13.8801Z" fill="#D98A62"/>
<path id="Vector_31" d="M12.2013 15.0729C12.1402 15.1632 12.0446 15.1472 11.957 15.1472H9.50391C9.51883 15.0677 9.56394 14.997 9.62978 14.95C9.69563 14.903 9.77711 14.8832 9.85719 14.8949H11.8879C12.0287 14.8962 12.1535 14.9201 12.2013 15.0729Z" fill="#E29C7D"/>
<path id="Vector_32" d="M26.8185 15.1404H24.3655C24.2778 15.1404 24.1835 15.1564 24.1211 15.0661C24.1689 14.9133 24.2937 14.8828 24.4292 14.8828H26.4652C26.5461 14.8712 26.6282 14.8917 26.6942 14.9398C26.7602 14.988 26.8048 15.0599 26.8185 15.1404Z" fill="#E29C7D"/>
<path id="Vector_33" d="M26.8255 13.8789C26.8175 14.1034 26.6821 14.195 26.4762 14.1963C25.9883 14.1963 25.5014 14.1963 25.0153 14.1963C24.816 14.1963 24.6633 14.1233 24.6766 13.8816L26.8255 13.8789Z" fill="#D98A62"/>
<path id="Vector_34" d="M11.6463 13.8802H9.49609C9.50406 13.6557 9.6382 13.5668 9.84539 13.5654C10.3328 13.5654 10.8216 13.5654 11.3063 13.5654C11.5095 13.5681 11.6623 13.6385 11.6463 13.8802Z" fill="#E29C7D"/>
<path id="Vector_35" d="M26.8236 13.8789H24.6734C24.6561 13.6571 24.7902 13.5694 24.9815 13.5668C25.4888 13.5588 25.9962 13.5601 26.5049 13.5668C26.5472 13.5623 26.5901 13.5673 26.6303 13.5813C26.6705 13.5953 26.7072 13.618 26.7376 13.6478C26.7681 13.6777 26.7916 13.7138 26.8064 13.7538C26.8213 13.7937 26.8272 13.8364 26.8236 13.8789Z" fill="#E29C7D"/>
<path id="Vector_36" d="M11.6435 16.4714H9.50391C9.517 16.3918 9.56072 16.3204 9.62573 16.2725C9.69074 16.2246 9.7719 16.204 9.85187 16.2151C10.3393 16.2151 10.8254 16.2151 11.3128 16.2151C11.4802 16.2138 11.6289 16.2629 11.6435 16.4714Z" fill="#E29C7D"/>
<path id="Vector_37" d="M26.8193 16.4661H24.6797C24.6983 16.2575 24.8444 16.2004 25.0184 16.2004C25.5005 16.2004 25.9826 16.2004 26.4647 16.2004C26.6427 16.2097 26.7808 16.2708 26.8193 16.4661Z" fill="#E29C7D"/>
<path id="Vector_38" d="M26.7926 17.7981C26.8085 18.008 26.6863 18.089 26.5004 18.0943C26.2347 18.0943 25.9784 18.1023 25.7168 18.0943C25.6767 18.0982 25.6362 18.0928 25.5985 18.0788C25.5608 18.0647 25.5268 18.0422 25.499 18.013C25.4712 17.9839 25.4505 17.9488 25.4383 17.9104C25.4261 17.872 25.4227 17.8314 25.4286 17.7915L26.7926 17.7981Z" fill="#D98A62"/>
<path id="Vector_39" d="M10.8916 17.79C10.8974 17.8299 10.8941 17.8705 10.8819 17.9089C10.8697 17.9473 10.849 17.9824 10.8212 18.0116C10.7934 18.0407 10.7594 18.0632 10.7217 18.0773C10.6839 18.0914 10.6435 18.0967 10.6034 18.0929C10.3378 18.1022 10.0815 18.0995 9.81983 18.0929C9.63389 18.0929 9.5117 18.0065 9.52897 17.7967L10.8916 17.79Z" fill="#D98A62"/>
<path id="Vector_40" d="M10.8939 17.7901L9.53125 17.7981C9.53125 17.5989 9.65211 17.5418 9.8168 17.5325C10.0745 17.5325 10.3321 17.5325 10.5898 17.5325C10.7584 17.5378 10.8766 17.6055 10.8939 17.7901Z" fill="#E29C7D"/>
<path id="Vector_41" d="M26.7923 17.798L25.4336 17.79C25.4509 17.6054 25.5664 17.5377 25.7377 17.5364C25.9954 17.5364 26.253 17.5364 26.5107 17.5364C26.6701 17.5417 26.7989 17.5988 26.7923 17.798Z" fill="#E29C7D"/>
<path id="Vector_42" d="M17.0846 13.5308C17.0846 13.2493 17.0846 12.9677 17.0846 12.6875C17.0846 11.9437 17.4724 11.5347 18.2135 11.4815C18.468 11.4713 18.7142 11.3881 18.9227 11.2419C19.1313 11.0957 19.2934 10.8926 19.3897 10.6568C19.486 10.421 19.5125 10.1625 19.466 9.91207C19.4196 9.66164 19.302 9.42987 19.1275 9.24437C18.953 9.05887 18.7288 8.92747 18.4816 8.86583C18.2345 8.80419 17.9748 8.81492 17.7336 8.89673C17.4924 8.97854 17.2798 9.12798 17.1212 9.32725C16.9625 9.52651 16.8645 9.76719 16.8389 10.0206C16.8282 10.1308 16.8309 10.2424 16.8097 10.35C16.7604 10.6142 16.6135 10.8503 16.3982 11.0112C16.1829 11.1721 15.9149 11.2461 15.6475 11.2186C15.0804 11.1508 14.6953 10.6873 14.7032 10.0883C14.7145 9.46707 14.8931 8.86034 15.2203 8.33212C15.5476 7.8039 16.0113 7.37376 16.5625 7.08706C17.1138 6.80036 17.7322 6.66772 18.3526 6.70312C18.9729 6.73853 19.5722 6.94066 20.0873 7.28822C20.6024 7.63578 21.0141 8.11588 21.2791 8.67791C21.5441 9.23993 21.6526 9.86304 21.593 10.4815C21.5335 11.1001 21.3082 11.691 20.9408 12.1922C20.5734 12.6933 20.0777 13.086 19.5057 13.329C19.2786 13.4246 19.2056 13.5348 19.2242 13.7672C19.2401 14.0176 19.2401 14.2686 19.2242 14.519C19.1963 15.1458 18.7447 15.5961 18.1617 15.5961C17.5786 15.5961 17.0992 15.1286 17.0912 14.4897C17.0793 14.1723 17.0846 13.8509 17.0846 13.5308ZM17.9757 14.8523C18.3025 14.9772 18.5189 14.8603 18.5349 14.5296C18.5508 14.1989 18.5349 13.8496 18.5349 13.5096C18.5349 12.9651 18.5349 12.9651 19.0436 12.7911C20.5815 12.2598 21.385 10.4722 20.6971 9.09755C20.0875 7.38162 17.7526 6.8238 16.3382 8.06029C16.0375 8.31343 15.7957 8.62914 15.6296 8.98538C15.4635 9.34162 15.3772 9.72981 15.3766 10.1229C15.3688 10.1758 15.3727 10.2297 15.388 10.281C15.4034 10.3322 15.4298 10.3794 15.4654 10.4193C15.501 10.4592 15.5449 10.4908 15.594 10.5119C15.6432 10.5329 15.6964 10.543 15.7498 10.5412C15.9849 10.5505 16.1124 10.3978 16.1482 10.1694C16.1575 10.1096 16.1562 10.0498 16.1602 9.98873C16.1836 9.71812 16.2618 9.45509 16.3899 9.21559C16.518 8.97609 16.6935 8.76512 16.9056 8.59547C17.1177 8.42582 17.3621 8.30103 17.6239 8.22867C17.8857 8.1563 18.1595 8.13788 18.4286 8.17451C19.5868 8.35513 20.3637 9.4588 20.1154 10.5651C20.0285 10.9919 19.8037 11.3782 19.4756 11.6645C19.1476 11.9509 18.7344 12.1213 18.2998 12.1496C17.8947 12.1894 17.7779 12.2718 17.7686 12.5852C17.7579 13.2267 17.7686 13.8695 17.7686 14.5123C17.7567 14.5844 17.7711 14.6583 17.8091 14.7207C17.8472 14.7831 17.9063 14.8298 17.9757 14.8523Z" fill="#080705"/>
<path id="Vector_43" d="M18.1717 18.4397C17.9624 18.4412 17.7573 18.3808 17.5821 18.2662C17.407 18.1515 17.2696 17.9877 17.1872 17.7952C17.1049 17.6027 17.0812 17.3903 17.1192 17.1844C17.1572 16.9785 17.2551 16.7885 17.4008 16.6381C17.5464 16.4877 17.7332 16.3837 17.9377 16.3391C18.1422 16.2945 18.3554 16.3113 18.5504 16.3874C18.7454 16.4635 18.9136 16.5956 19.0338 16.7669C19.1541 16.9383 19.221 17.1413 19.2262 17.3506C19.2274 17.6339 19.1177 17.9063 18.9207 18.1098C18.7236 18.3133 18.4548 18.4317 18.1717 18.4397ZM18.4758 17.1899C18.3895 17.0013 18.2315 16.9721 18.0522 17.0106C17.9882 17.0224 17.9293 17.0534 17.8833 17.0994C17.8373 17.1454 17.8063 17.2043 17.7945 17.2683C17.756 17.4476 17.7865 17.6056 17.9751 17.6919C18.045 17.7354 18.1275 17.7539 18.2092 17.7444C18.2908 17.735 18.3669 17.6981 18.425 17.6399C18.4831 17.5817 18.5197 17.5055 18.529 17.4238C18.5382 17.3421 18.5195 17.2596 18.4758 17.1899Z" fill="#080705"/>
<path id="Vector_44" d="M32.4543 17.919C32.4317 17.9655 32.4091 18.012 32.3852 18.0585C32.2245 17.9668 32.1501 18.1156 32.0545 18.1913C31.7834 18.4056 31.4657 18.5533 31.1271 18.6225C30.7884 18.6917 30.4383 18.6805 30.1048 18.5897C30.0477 18.5512 29.9919 18.5087 29.9322 18.4742C29.6369 18.3087 29.3796 18.0831 29.1769 17.8119C28.9742 17.5408 28.8307 17.2301 28.7556 16.9001C28.6805 16.57 28.6755 16.2278 28.7409 15.8957C28.8063 15.5636 28.9407 15.2489 29.1353 14.9719C29.3597 14.6492 29.6957 14.4407 29.9654 14.1684C29.9884 14.18 30.015 14.1823 30.0397 14.1749C30.0644 14.1675 30.0853 14.1509 30.0982 14.1285C30.1538 14.1069 30.2111 14.0895 30.2695 14.0767C31.2337 13.9559 32.024 14.2707 32.5605 15.0821C33.0971 15.8936 33.0918 16.7596 32.5871 17.6056C32.5353 17.7012 32.4144 17.7756 32.4543 17.919ZM30.4196 16.9309C30.405 17.0119 30.47 17.1301 30.3771 17.1753C30.2841 17.2204 30.215 17.1195 30.1447 17.069C29.9335 16.9189 29.7303 16.8539 29.5377 17.0916C29.3451 17.3293 29.389 17.5764 29.6214 17.7835C29.7818 17.921 29.9763 18.0128 30.1845 18.0492C30.2429 18.0547 30.2994 18.073 30.3499 18.1028C30.4004 18.1327 30.4437 18.1733 30.4767 18.2218C30.4997 18.2615 30.5332 18.2941 30.5736 18.316C30.6139 18.3379 30.6595 18.3483 30.7054 18.3459C30.7512 18.3436 30.7955 18.3287 30.8334 18.3028C30.8714 18.2769 30.9014 18.2411 30.9203 18.1992C30.9483 18.1486 30.9863 18.1041 31.0319 18.0685C31.0776 18.0329 31.1299 18.0069 31.1859 17.9921C31.377 17.9252 31.5436 17.8024 31.6642 17.6398C31.7847 17.4771 31.8536 17.2819 31.8619 17.0796C31.8873 16.8736 31.8463 16.6648 31.7451 16.4836C31.6439 16.3023 31.4875 16.158 31.2988 16.0716C31.2191 16.0291 31.1315 16.0012 31.0557 15.9534C30.8658 15.8325 30.9375 15.6333 30.9774 15.4939C31.0172 15.3544 31.1474 15.4846 31.2244 15.5178C31.4741 15.6267 31.6335 15.535 31.7357 15.3092C31.8686 15.0144 31.7238 14.786 31.3532 14.6678C31.2098 14.6226 31.0438 14.6678 30.9243 14.5044C30.7596 14.2813 30.5989 14.3052 30.4355 14.5496C30.3994 14.6076 30.3423 14.6494 30.2761 14.6664C29.8073 14.8112 29.5151 15.1074 29.4992 15.6174C29.4832 16.1274 29.7807 16.393 30.2004 16.563C30.3811 16.6387 30.4634 16.7383 30.4196 16.9309Z" fill="#EEDB74"/>
<path id="Vector_45" d="M32.4543 17.9189C32.4145 17.7755 32.5353 17.7011 32.5871 17.6015C33.0878 16.7542 33.1024 15.8962 32.5606 15.0781C32.0187 14.26 31.2324 13.9518 30.2695 14.0727C30.2112 14.0855 30.1539 14.1028 30.0982 14.1245C30.0745 14.1194 30.0499 14.1203 30.0267 14.1273C30.0034 14.1343 29.9824 14.147 29.9654 14.1643C29.7584 14.2033 29.5628 14.2881 29.393 14.4127C29.0019 14.6622 28.6952 15.0237 28.5128 15.4502C28.3303 15.8767 28.2807 16.3482 28.3703 16.8033C28.543 17.6958 29.2681 18.4422 30.0969 18.5883C30.4304 18.6791 30.7805 18.6903 31.1191 18.6211C31.4578 18.5519 31.7754 18.4042 32.0466 18.1899C32.1422 18.1195 32.2166 17.9707 32.3773 18.0571C32.0638 18.5458 31.5605 18.7211 31.0345 18.8075C30.5543 18.885 30.0618 18.8202 29.6179 18.6213C29.1739 18.4223 28.7979 18.0978 28.5362 17.6878C28.2744 17.2777 28.1383 16.8 28.1447 16.3136C28.1512 15.8271 28.2998 15.3532 28.5722 14.9502C28.8447 14.5471 29.2291 14.2327 29.6782 14.0455C30.1272 13.8583 30.6212 13.8065 31.0992 13.8967C31.5773 13.9868 32.0185 14.2148 32.3686 14.5527C32.7186 14.8905 32.9622 15.3234 33.0692 15.7979C33.1496 16.1312 33.1582 16.4778 33.0943 16.8147C33.0304 17.1515 32.8955 17.4709 32.6987 17.7516C32.6469 17.8406 32.6057 17.9601 32.4543 17.9189Z" fill="#1D190D"/>
<path id="Vector_46" d="M7.13156 14.8962C7.13156 14.6956 7.13156 14.4977 7.13156 14.2972C7.13156 14.1418 7.21391 14.0515 7.38391 14.0887C7.73586 14.1657 8.08383 14.5854 8.08781 14.9333C8.08781 15.3026 7.85008 15.5894 7.4543 15.705C7.22719 15.7701 7.13023 15.6891 7.12891 15.4646V14.8962H7.13156ZM7.50344 15.2587C7.81953 15.0409 7.81023 14.7819 7.50344 14.6332V15.2587Z" fill="#080705"/>
<path id="Vector_47" d="M6.95003 11.8733C6.95003 12.0433 6.95003 12.2133 6.95003 12.3847C6.95003 12.6104 6.82785 12.6729 6.63394 12.5826C6.49612 12.5222 6.36557 12.4465 6.2448 12.3568C6.12667 12.2776 6.0392 12.1604 5.99692 12.0246C5.95463 11.8888 5.96009 11.7426 6.01238 11.6104C6.11066 11.3647 6.50511 11.1017 6.7548 11.1163C6.78261 11.1145 6.81046 11.119 6.83627 11.1295C6.86209 11.14 6.88519 11.1562 6.90384 11.1769C6.9225 11.1976 6.93622 11.2223 6.94399 11.2491C6.95176 11.2758 6.95338 11.304 6.94871 11.3315C6.94871 11.5121 6.94871 11.6927 6.95003 11.8733ZM6.60074 11.8415C6.55027 11.7631 6.67113 11.5984 6.50246 11.5944C6.39753 11.5944 6.33113 11.7179 6.33511 11.8388C6.3391 11.9597 6.40683 12.0792 6.51175 12.0792C6.66449 12.0832 6.55957 11.9304 6.60074 11.8415Z" fill="#080705"/>
<path id="Vector_48" d="M28.5839 7.30195C28.5839 7.18242 28.5839 7.06156 28.5839 6.94203C28.5839 6.8225 28.544 6.70828 28.6742 6.64984C28.8043 6.59141 28.8854 6.67773 28.9783 6.73484C29.2439 6.89687 29.4219 7.11336 29.3768 7.44539C29.3356 7.75086 29.1271 7.90625 28.8535 7.99922C28.6702 8.06164 28.5879 7.99922 28.5879 7.81062C28.5879 7.62203 28.5839 7.47195 28.5839 7.30195ZM28.9066 7.61406C29.143 7.40953 29.143 7.30594 28.9066 7.09211C28.8767 7.26481 28.8767 7.44136 28.9066 7.61406Z" fill="#080705"/>
<path id="Vector_49" d="M28.4199 4.75589C28.4199 4.86612 28.4199 4.97636 28.4199 5.08659C28.4199 5.42394 28.3282 5.47441 28.0214 5.30972C27.7718 5.17691 27.5579 5.00292 27.5938 4.6855C27.6296 4.36808 27.8461 4.2512 28.1078 4.16222C28.3349 4.08386 28.4305 4.16222 28.4186 4.39597C28.4159 4.5155 28.4199 4.63636 28.4199 4.75589ZM28.1051 4.98566C28.1051 4.813 28.1768 4.66159 28.0706 4.54737C28.0228 4.49558 27.9497 4.58722 27.9245 4.64964C27.8621 4.80901 27.9364 4.90198 28.1051 4.98566Z" fill="#080705"/>
<path id="Vector_50" d="M17.9766 14.8523C17.9094 14.8284 17.8527 14.7817 17.8163 14.7203C17.7799 14.659 17.7662 14.5868 17.7774 14.5163C17.7774 13.8735 17.7668 13.2307 17.7774 12.5892C17.7774 12.2758 17.8983 12.1908 18.3087 12.1536C18.7428 12.1248 19.1553 11.9541 19.4829 11.6678C19.8105 11.3815 20.0349 10.9955 20.1216 10.5691C20.3699 9.45883 19.5903 8.35516 18.4349 8.17852C18.1657 8.14189 17.8919 8.16031 17.6301 8.23268C17.3683 8.30504 17.124 8.42983 16.9118 8.59948C16.6997 8.76913 16.5243 8.9801 16.3961 9.2196C16.268 9.4591 16.1898 9.72213 16.1664 9.99273C16.1664 10.0538 16.1664 10.1136 16.1545 10.1734C16.1213 10.4018 15.9938 10.5545 15.756 10.5452C15.7026 10.547 15.6494 10.537 15.6003 10.5159C15.5511 10.4948 15.5072 10.4632 15.4716 10.4233C15.436 10.3834 15.4096 10.3362 15.3943 10.285C15.3789 10.2337 15.375 10.1798 15.3828 10.1269C15.3834 9.73382 15.4697 9.34563 15.6358 8.98939C15.8019 8.63315 16.0437 8.31744 16.3444 8.0643C17.7588 6.82781 20.0937 7.38563 20.7033 9.10156C20.6541 9.42695 20.7564 9.74437 20.7033 10.0804C20.5359 11.2757 19.9131 12.1058 18.8359 12.6038C18.4309 12.7911 18.3419 12.8894 18.3366 13.3157C18.3366 13.847 18.4415 14.4048 17.9753 14.8258C17.9753 14.8284 17.978 14.8417 17.9766 14.8523Z" fill="#F9DB74"/>
<path id="Vector_51" d="M17.9766 14.8523C17.9766 14.8417 17.9766 14.8284 17.9766 14.8231C18.4427 14.4021 18.3325 13.8429 18.3378 13.313C18.3378 12.8867 18.4321 12.7818 18.8372 12.6011C19.9143 12.1018 20.5372 11.273 20.7045 10.0777C20.7523 9.74169 20.6501 9.42427 20.7045 9.09888C21.3925 10.4735 20.589 12.2678 19.051 12.7924C18.5423 12.9664 18.5423 12.9664 18.5423 13.5109C18.5423 13.8509 18.5516 14.1922 18.5423 14.5309C18.533 14.8696 18.3033 14.9772 17.9766 14.8523Z" fill="#EEC454"/>
<path id="Vector_52" d="M17.9764 17.6919C17.7878 17.6056 17.7573 17.4476 17.7958 17.2683C17.8076 17.2043 17.8386 17.1454 17.8846 17.0994C17.9306 17.0534 17.9895 17.0224 18.0535 17.0106C18.2328 16.9721 18.3908 17.0013 18.4771 17.1899C18.2739 17.3166 18.1026 17.4884 17.9764 17.6919Z" fill="#F9DB74"/>
<path id="Vector_53" d="M17.9766 17.692C18.1027 17.4884 18.274 17.3166 18.4773 17.1899C18.5209 17.2597 18.5396 17.3421 18.5304 17.4238C18.5211 17.5055 18.4845 17.5817 18.4264 17.6399C18.3684 17.6982 18.2923 17.735 18.2106 17.7445C18.1289 17.7539 18.0464 17.7354 17.9766 17.692Z" fill="#EEC454"/>
<path id="Vector_54" d="M30.4216 16.9309C30.4655 16.7384 30.3831 16.6388 30.2052 16.5657C29.7855 16.3957 29.4893 16.1141 29.5039 15.6201C29.5185 15.126 29.812 14.8139 30.2809 14.6691C30.347 14.6521 30.4041 14.6103 30.4402 14.5523C30.6036 14.3079 30.7643 14.2867 30.929 14.5071C31.0485 14.6692 31.2145 14.6253 31.358 14.6705C31.7285 14.7887 31.8746 15.0171 31.7405 15.312C31.6382 15.5377 31.4748 15.6294 31.2291 15.5205C31.1521 15.4873 31.022 15.3584 30.9821 15.4966C30.9423 15.6347 30.8705 15.8352 31.0605 15.9561C31.1362 16.0039 31.2238 16.0318 31.3035 16.0743C31.4923 16.1608 31.6486 16.3051 31.7498 16.4863C31.8511 16.6675 31.892 16.8763 31.8666 17.0824C31.8583 17.2847 31.7894 17.4798 31.6689 17.6425C31.5484 17.8052 31.3817 17.9279 31.1906 17.9948C31.1347 18.0096 31.0823 18.0356 31.0366 18.0712C30.991 18.1068 30.953 18.1513 30.925 18.202C30.9061 18.2438 30.8761 18.2796 30.8382 18.3055C30.8003 18.3314 30.7559 18.3463 30.7101 18.3486C30.6642 18.351 30.6187 18.3406 30.5783 18.3187C30.538 18.2968 30.5044 18.2642 30.4814 18.2245C30.4484 18.176 30.4051 18.1354 30.3546 18.1055C30.3041 18.0757 30.2476 18.0574 30.1892 18.0519C29.9811 18.0155 29.7865 17.9238 29.6261 17.7863C29.3937 17.5791 29.3605 17.3161 29.5424 17.0943C29.7244 16.8725 29.9409 16.9216 30.1494 17.0717C30.2198 17.1222 30.2928 17.2218 30.3818 17.178C30.4708 17.1341 30.407 17.012 30.4216 16.9309ZM30.6036 16.9761C30.5531 17.1156 30.7019 17.3307 30.5305 17.4104C30.3592 17.4901 30.2171 17.3267 30.0723 17.2417C30.063 17.2417 30.0564 17.2284 30.0484 17.2231C29.9302 17.1395 29.808 17.0478 29.6845 17.2059C29.657 17.2357 29.6361 17.2709 29.6232 17.3094C29.6103 17.3478 29.6056 17.3885 29.6095 17.4289C29.6134 17.4693 29.6257 17.5084 29.6458 17.5436C29.6658 17.5789 29.693 17.6095 29.7257 17.6335C29.851 17.7335 29.9931 17.8104 30.1454 17.8606C30.3154 17.9337 30.5956 17.8155 30.6381 18.1263C30.832 18.0944 30.8692 17.8606 31.0963 17.8195C31.4828 17.7451 31.6741 17.4131 31.6887 17.0159C31.7046 16.5471 31.423 16.2974 31.0326 16.1513C30.8267 16.0756 30.7457 15.9614 30.7736 15.7529C30.7833 15.6646 30.7833 15.5756 30.7736 15.4873C30.751 15.2349 30.8666 15.1845 31.0804 15.2668C31.1469 15.2891 31.2117 15.3162 31.2743 15.3478C31.2976 15.3674 31.3255 15.3808 31.3553 15.3869C31.3851 15.3929 31.416 15.3915 31.4451 15.3827C31.4742 15.3738 31.5007 15.3579 31.5221 15.3363C31.5435 15.3147 31.5592 15.288 31.5678 15.2588C31.5861 15.2316 31.5983 15.2007 31.6034 15.1683C31.6084 15.1358 31.6064 15.1027 31.5972 15.0712C31.5881 15.0396 31.5722 15.0105 31.5506 14.9858C31.529 14.9611 31.5022 14.9414 31.4722 14.9281C31.3476 14.8649 31.2126 14.8249 31.0737 14.8099C30.9409 14.786 30.7935 14.8245 30.759 14.616C30.743 14.5231 30.6262 14.547 30.6262 14.6333C30.6102 14.8192 30.4708 14.8139 30.3526 14.8511C29.9395 14.9839 29.7244 15.215 29.6885 15.5776C29.6527 15.9402 29.8213 16.2217 30.2344 16.3811C30.5359 16.49 30.6846 16.6427 30.6036 16.9761Z" fill="#1D190D"/>
<path id="Vector_55" d="M30.106 18.5805C29.2719 18.4344 28.5468 17.688 28.3794 16.7955C28.2898 16.3404 28.3394 15.8688 28.5219 15.4424C28.7043 15.0159 29.011 14.6543 29.4021 14.4049C29.5719 14.2803 29.7675 14.1954 29.9745 14.1565C29.7089 14.4301 29.3689 14.6373 29.1444 14.96C28.9498 15.237 28.8154 15.5517 28.75 15.8838C28.6846 16.216 28.6897 16.5581 28.7648 16.8882C28.8399 17.2183 28.9834 17.5289 29.186 17.8C29.3887 18.0712 29.646 18.2968 29.9413 18.4623C29.9931 18.4995 30.0489 18.542 30.106 18.5805Z" fill="#EEC454"/>
<path id="Vector_56" d="M29.9688 14.163C29.9857 14.1456 30.0068 14.1329 30.03 14.1259C30.0532 14.119 30.0779 14.118 30.1016 14.1231C30.0887 14.1455 30.0678 14.162 30.0431 14.1695C30.0184 14.1769 29.9918 14.1745 29.9688 14.163Z" fill="#EEC454"/>
<path id="Vector_57" d="M7.50391 15.2588V14.6306C7.80672 14.782 7.81602 15.041 7.50391 15.2588Z" fill="#E4B25F"/>
<path id="Vector_58" d="M6.60164 11.8415C6.56047 11.9252 6.66539 12.0779 6.51266 12.0793C6.40773 12.0793 6.33867 11.9584 6.33602 11.8389C6.33336 11.7193 6.39844 11.5932 6.50336 11.5945C6.67203 11.6038 6.55117 11.7685 6.60164 11.8415Z" fill="#E4B25F"/>
<path id="Vector_59" d="M28.9052 7.61399C28.8753 7.44129 28.8753 7.26474 28.9052 7.09204C29.1416 7.30587 29.1416 7.40946 28.9052 7.61399Z" fill="#E4B25F"/>
<path id="Vector_60" d="M28.1049 4.98577C27.9362 4.90209 27.8618 4.80913 27.9242 4.64975C27.9495 4.58733 28.0225 4.49569 28.0703 4.54749C28.1766 4.6617 28.1102 4.81311 28.1049 4.98577Z" fill="#E4B25F"/>
<path id="Vector_61" d="M30.6022 16.9761C30.6832 16.6428 30.5345 16.4887 30.2317 16.3731C29.8133 16.2138 29.6553 15.9349 29.6858 15.5696C29.7164 15.2044 29.9315 14.9693 30.3499 14.8431C30.4681 14.806 30.6075 14.8113 30.6235 14.6253C30.6301 14.539 30.7457 14.5151 30.7563 14.6081C30.7908 14.8166 30.9396 14.7781 31.0711 14.802C31.2099 14.8169 31.3449 14.857 31.4695 14.9202C31.4995 14.9334 31.5263 14.9531 31.5479 14.9778C31.5695 15.0025 31.5854 15.0317 31.5945 15.0632C31.6037 15.0947 31.6057 15.1279 31.6007 15.1603C31.5956 15.1927 31.5834 15.2236 31.5651 15.2509C31.5566 15.2801 31.5409 15.3067 31.5194 15.3283C31.498 15.3499 31.4715 15.3659 31.4424 15.3747C31.4133 15.3835 31.3824 15.385 31.3526 15.3789C31.3228 15.3728 31.2949 15.3594 31.2716 15.3399C31.209 15.3082 31.1442 15.2812 31.0777 15.2588C30.8639 15.1765 30.7483 15.227 30.7709 15.4793C30.7806 15.5676 30.7806 15.6567 30.7709 15.7449C30.743 15.9561 30.824 16.0703 31.0299 16.1434C31.4283 16.2895 31.7019 16.5418 31.686 17.008C31.6714 17.4064 31.4801 17.7371 31.0936 17.8115C30.8665 17.8567 30.828 18.0864 30.6354 18.1183C30.5929 17.8088 30.3127 17.927 30.1427 17.8527C29.9904 17.8025 29.8483 17.7256 29.723 17.6256C29.6903 17.6016 29.6631 17.5709 29.6431 17.5357C29.623 17.5004 29.6107 17.4613 29.6068 17.4209C29.6029 17.3806 29.6076 17.3398 29.6205 17.3014C29.6334 17.263 29.6543 17.2277 29.6818 17.1979C29.8054 17.0399 29.9275 17.1315 30.0457 17.2152C30.0537 17.2152 30.0604 17.2285 30.0696 17.2338C30.2144 17.3188 30.3672 17.4781 30.5279 17.4024C30.6886 17.3267 30.5518 17.1156 30.6022 16.9761ZM30.7191 17.0319C30.7868 17.1581 30.6115 17.3998 30.8652 17.4117C30.9109 17.4126 30.9563 17.4037 30.9983 17.3856C31.0403 17.3675 31.078 17.3406 31.1088 17.3068C31.1396 17.273 31.1628 17.233 31.1769 17.1895C31.191 17.146 31.1957 17.0999 31.1906 17.0545C31.1944 17.0066 31.1885 16.9585 31.1734 16.9129C31.1582 16.8674 31.1341 16.8253 31.1024 16.7893C31.0706 16.7533 31.032 16.7239 30.9888 16.7031C30.9455 16.6823 30.8985 16.6703 30.8506 16.668C30.6314 16.6733 30.7775 16.907 30.7191 17.0319ZM30.6647 15.6135C30.5903 15.5006 30.7722 15.2761 30.5318 15.2562C30.4886 15.2528 30.4451 15.2581 30.4041 15.272C30.363 15.2859 30.3251 15.308 30.2928 15.3369C30.2606 15.3658 30.2345 15.401 30.2162 15.4404C30.1979 15.4797 30.1878 15.5223 30.1865 15.5656C30.1666 15.7224 30.4017 15.9641 30.5504 15.9362C30.747 15.8963 30.6022 15.7197 30.6647 15.6135Z" fill="#E4B25F"/>
<path id="Vector_62" d="M30.7188 17.0319C30.7772 16.907 30.6311 16.6733 30.8516 16.668C30.8995 16.6703 30.9465 16.6823 30.9897 16.7031C31.033 16.7239 31.0716 16.7532 31.1033 16.7893C31.135 16.8253 31.1592 16.8674 31.1743 16.9129C31.1895 16.9585 31.1954 17.0066 31.1916 17.0545C31.1967 17.0999 31.192 17.1459 31.1779 17.1895C31.1638 17.233 31.1406 17.273 31.1098 17.3068C31.079 17.3406 31.0413 17.3675 30.9993 17.3856C30.9573 17.4037 30.9119 17.4126 30.8662 17.4117C30.6138 17.3998 30.7865 17.1541 30.7188 17.0319Z" fill="#1D190D"/>
<path id="Vector_63" d="M30.6643 15.6134C30.6019 15.7196 30.7506 15.8963 30.5448 15.9361C30.396 15.9654 30.161 15.7223 30.1809 15.5656C30.1822 15.5222 30.1923 15.4796 30.2106 15.4403C30.2288 15.401 30.2549 15.3658 30.2872 15.3368C30.3195 15.3079 30.3573 15.2858 30.3984 15.2719C30.4395 15.2581 30.483 15.2527 30.5262 15.2561C30.7719 15.2761 30.5899 15.5005 30.6643 15.6134Z" fill="#1D190D"/>
</g>
</svg>
