<svg width="28" height="34" viewBox="0 0 28 34" fill="none" xmlns="http://www.w3.org/2000/svg">
<g id="SinIdentificar">
<path id="Vector" d="M1.00875 33.6382C0.984844 33.5492 0.894531 33.5505 0.833438 33.5187C0.628184 33.4219 0.455856 33.2669 0.337813 33.0731C0.219771 32.8793 0.161205 32.6551 0.169375 32.4283C0.169375 30.8531 0.157422 29.2766 0.169375 27.7015C0.180087 26.6405 0.511431 25.6076 1.11989 24.7385C1.72835 23.8693 2.58547 23.2044 3.57867 22.8313C5.85109 21.956 8.11555 21.0622 10.3866 20.183C10.4608 20.1606 10.5252 20.1138 10.5694 20.0501C10.6135 19.9864 10.6348 19.9097 10.6297 19.8323C10.7001 19.0846 10.5566 18.5042 9.91117 17.965C9.04523 17.2465 8.58305 16.2185 8.39578 15.1002C8.34398 14.8001 8.20984 14.6713 7.91367 14.6075C5.99852 14.1891 5.25609 12.096 6.48328 10.566C6.64664 10.3628 6.65328 10.2021 6.49789 9.99758C6.25765 9.69062 6.12552 9.3129 6.12203 8.92312C6.12203 7.41305 6.04367 5.89898 6.15258 4.39289C6.29734 2.41398 8.05977 0.753826 10.048 0.721951C12.0083 0.690076 13.9699 0.698045 15.9316 0.721951C17.2331 0.736561 17.9902 1.37406 18.3076 2.64242C18.3979 2.99969 18.5214 3.09531 18.8933 3.09398C20.1484 3.09398 21.0701 3.9918 21.0767 5.24687C21.0834 6.59758 21.1179 7.94961 21.0581 9.29766C21.0375 9.51639 21.0655 9.73699 21.1401 9.94363C21.2148 10.1503 21.3341 10.3379 21.4898 10.493C21.7815 10.8203 21.9818 11.2188 22.0707 11.6482C22.1595 12.0776 22.1337 12.5228 21.9959 12.9391C21.858 13.3553 21.613 13.7279 21.2854 14.0194C20.9578 14.3109 20.5592 14.511 20.1298 14.5995C19.7924 14.6739 19.653 14.8173 19.5892 15.152C19.3572 16.4292 18.6702 17.5791 17.6555 18.3887C17.4443 18.5627 17.3261 18.7433 17.3646 19.0155C17.3646 19.0687 17.3646 19.1231 17.3646 19.1763C17.3859 19.4844 17.2398 19.8642 17.4244 20.0807C17.609 20.2972 17.9689 20.3463 18.2571 20.4526C20.3569 21.268 22.4699 22.0463 24.5564 22.903C26.615 23.7437 27.6217 25.372 27.8196 27.5434C27.8409 27.7878 27.8196 28.0362 27.8289 28.2819C27.8528 28.6352 27.7134 28.8583 27.3614 28.938C26.943 28.8184 26.8634 28.7148 26.8607 28.2819C26.8607 28.1105 26.8607 27.9392 26.8607 27.7679C26.8544 26.8901 26.5828 26.0347 26.0815 25.3141C25.5801 24.5936 24.8726 24.0415 24.0517 23.7304C21.7461 22.8459 19.4458 21.9441 17.1455 21.0569C16.9235 20.9885 16.7303 20.8487 16.5961 20.6592C16.4618 20.4697 16.3939 20.2411 16.403 20.009C16.3951 19.6026 16.3924 19.1948 16.403 18.7884C16.401 18.5947 16.4437 18.403 16.5278 18.2284C16.6119 18.0538 16.7351 17.901 16.8878 17.7817C17.8628 17.0404 18.5129 15.9504 18.702 14.7403C18.7331 14.5155 18.8276 14.3042 18.9743 14.1311C19.1211 13.958 19.3141 13.8303 19.5308 13.7628C19.6809 13.711 19.8416 13.6884 19.9956 13.6433C20.3633 13.5507 20.6838 13.3255 20.8956 13.011C21.1074 12.6965 21.1955 12.3148 21.1431 11.9393C21.0799 11.508 20.8525 11.1177 20.5083 10.8502C20.3171 10.7002 20.1746 10.4969 20.0987 10.266C20.0228 10.0351 20.017 9.78687 20.082 9.55266C20.0999 9.46889 20.1079 9.3833 20.1059 9.29766C20.1059 7.93766 20.1125 6.57633 20.1059 5.21633C20.1096 5.05999 20.0809 4.90457 20.0217 4.75983C19.9624 4.6151 19.8739 4.48418 19.7617 4.3753C19.6494 4.26641 19.5159 4.18192 19.3694 4.12712C19.2229 4.07232 19.0667 4.04841 18.9105 4.05687C18.0685 4.05687 17.5598 3.66906 17.358 2.86156C17.1495 2.03281 16.7948 1.69812 15.9515 1.68617C14.2913 1.66226 12.6312 1.68617 10.971 1.68617C10.7359 1.68617 10.4995 1.67156 10.2645 1.67422C8.48344 1.68883 7.12609 3.00234 7.09023 4.78734C7.06367 6.11547 7.09023 7.44359 7.09023 8.77172C7.08339 8.99718 7.14498 9.21943 7.26688 9.40922C7.73438 10.1237 7.7118 10.5501 7.18852 11.2102C7.06152 11.3576 6.96525 11.5289 6.90536 11.714C6.84546 11.8991 6.82315 12.0943 6.83973 12.2882C6.85631 12.482 6.91144 12.6706 7.0019 12.8429C7.09235 13.0152 7.21631 13.1676 7.36648 13.2913C7.63257 13.5125 7.95406 13.6567 8.29617 13.7084C8.85797 13.8239 9.21258 14.1679 9.30953 14.735C9.48816 15.9249 10.1202 16.9995 11.0733 17.7339C11.248 17.868 11.3875 18.0425 11.4801 18.2423C11.5726 18.4422 11.6153 18.6614 11.6045 18.8814C11.6045 19.1816 11.6045 19.4817 11.6045 19.7819C11.6045 20.5854 11.4518 20.8005 10.6961 21.0954C8.39313 21.9932 6.07953 22.8645 3.78984 23.8034C2.1682 24.4675 1.26641 25.7598 1.16148 27.4916C1.06719 29.104 1.14023 30.727 1.13492 32.3446C1.13492 32.5757 1.22789 32.678 1.46031 32.6753C2.10313 32.666 2.74594 32.666 3.38875 32.662C3.59195 32.662 3.79781 32.6541 3.99836 32.6766C4.25469 32.7059 4.31977 32.6076 4.31711 32.3579C4.30648 30.8784 4.31711 29.4002 4.31711 27.9206C4.31335 27.7925 4.32584 27.6644 4.3543 27.5395C4.38386 27.4426 4.44377 27.3577 4.52518 27.2975C4.6066 27.2372 4.70522 27.2046 4.80652 27.2046C4.90783 27.2046 5.00645 27.2372 5.08786 27.2975C5.16928 27.3577 5.22918 27.4426 5.25875 27.5395C5.28715 27.6644 5.29964 27.7925 5.29594 27.9206C5.29594 29.4002 5.30258 30.8784 5.29594 32.3579C5.29594 32.6102 5.365 32.678 5.61734 32.6766C11.2114 32.6696 16.8059 32.6696 22.4009 32.6766C22.6559 32.6766 22.7209 32.6049 22.7196 32.3552C22.7077 30.8863 22.713 29.4188 22.7196 27.9498C22.716 27.8326 22.7231 27.7152 22.7409 27.5992C22.7596 27.4884 22.8169 27.3878 22.9028 27.3153C22.9886 27.2427 23.0973 27.2029 23.2097 27.2029C23.3221 27.2029 23.4308 27.2427 23.5166 27.3153C23.6024 27.3878 23.6598 27.4884 23.6785 27.5992C23.6956 27.7157 23.7027 27.8335 23.6998 27.9512C23.6998 29.4201 23.6998 30.8877 23.6998 32.3566C23.6998 32.6102 23.7702 32.6793 24.0212 32.6753C24.8353 32.6594 25.6508 32.6753 26.4649 32.6687C26.8527 32.6687 26.8793 32.6395 26.8806 32.2423C26.8806 31.7602 26.8806 31.2768 26.8806 30.7947C26.8806 30.3962 27.0028 30.2634 27.3973 30.2023C27.7107 30.2568 27.8502 30.448 27.8462 30.7628C27.8462 31.221 27.8462 31.6805 27.8462 32.1388C27.8462 33.0445 27.6748 33.3102 26.882 33.6342L1.00875 33.6382Z" fill="#020203"/>
<path id="Vector_2" d="M27.3813 30.2063C26.9828 30.2701 26.8673 30.4042 26.8646 30.7987C26.8646 31.2808 26.8646 31.7642 26.8646 32.2463C26.8646 32.6448 26.8367 32.6727 26.4489 32.6727C25.6348 32.6727 24.8193 32.6634 24.0052 32.6793C23.7542 32.6793 23.6811 32.6142 23.6838 32.3605C23.6957 30.8916 23.6838 29.4241 23.6838 27.9552C23.6867 27.8375 23.6796 27.7197 23.6625 27.6032C23.6438 27.4924 23.5864 27.3918 23.5006 27.3193C23.4148 27.2467 23.3061 27.2069 23.1937 27.2069C23.0813 27.2069 22.9726 27.2467 22.8868 27.3193C22.8009 27.3918 22.7436 27.4924 22.7249 27.6032C22.7071 27.7192 22.7 27.8365 22.7036 27.9538C22.7036 29.4227 22.697 30.8903 22.7036 32.3592C22.7036 32.6089 22.6399 32.6806 22.3849 32.6806C16.7899 32.6727 11.1954 32.6727 5.60134 32.6806C5.349 32.6806 5.27861 32.6142 5.27994 32.3619C5.29189 30.8823 5.28658 29.4041 5.27994 27.9246C5.28364 27.7965 5.27114 27.6684 5.24275 27.5434C5.21318 27.4465 5.15328 27.3617 5.07186 27.3014C4.99045 27.2412 4.89182 27.2086 4.79052 27.2086C4.68922 27.2086 4.5906 27.2412 4.50918 27.3014C4.42777 27.3617 4.36786 27.4465 4.3383 27.5434C4.30984 27.6684 4.29735 27.7965 4.30111 27.9246C4.30111 29.4041 4.30111 30.8823 4.30111 32.3619C4.30111 32.6116 4.23869 32.7098 3.98236 32.6806C3.78181 32.658 3.57595 32.67 3.37275 32.666C3.37275 30.9209 3.34619 29.1757 3.38205 27.4305C3.39798 26.6058 3.70611 25.8793 4.40736 25.3573C4.87028 25.0308 5.37508 24.7681 5.90814 24.5764C8.18056 23.6799 10.4583 22.7927 12.7281 21.8883C13.3496 21.6399 13.8822 21.2176 13.7999 20.341C13.7494 19.8098 13.7906 19.2705 13.7919 18.7353C14.9779 18.803 15.5782 17.8548 15.4095 16.864C15.3113 16.2823 14.9938 15.8812 14.4374 15.6992C14.1883 15.6082 13.9184 15.5903 13.6595 15.6477C13.4006 15.7052 13.1636 15.8355 12.9764 16.0233C12.6763 16.3022 12.5634 16.6634 12.5129 17.0539C12.4249 17.0136 12.3525 16.9455 12.307 16.86C11.9212 16.2535 11.6598 15.5763 11.5381 14.8678C11.4517 14.3923 11.2924 14.2449 10.8156 14.1466C10.0492 13.982 9.46884 13.5463 9.18728 12.7866C8.92165 12.0615 9.12353 11.4041 9.58572 10.8197C9.8872 10.4452 9.91908 10.1556 9.63751 9.75719C9.40413 9.42251 9.28489 9.02149 9.29751 8.61367C9.30814 7.37055 9.28291 6.12742 9.30681 4.88562C9.32806 3.69031 9.76501 2.68625 10.7372 1.9425C10.8235 1.87609 10.9524 1.83359 10.9749 1.69813C12.6351 1.69813 14.2952 1.67422 15.9554 1.69813C16.7988 1.71008 17.1507 2.04477 17.3619 2.87352C17.5638 3.67703 18.0724 4.06883 18.9145 4.06883C19.0697 4.06026 19.2251 4.0837 19.3709 4.13769C19.5167 4.19168 19.6498 4.27507 19.762 4.38268C19.8742 4.49029 19.9631 4.61982 20.0232 4.76323C20.0832 4.90664 20.1132 5.06087 20.1111 5.21633C20.1191 6.57633 20.1111 7.93766 20.1111 9.29766C20.1132 9.3833 20.1051 9.46889 20.0872 9.55266C20.0218 9.78649 20.027 10.0344 20.1022 10.2653C20.1773 10.4962 20.319 10.6997 20.5095 10.8502C20.8494 11.1184 21.0733 11.5068 21.1351 11.9353C21.1875 12.3108 21.0994 12.6925 20.8876 13.007C20.6758 13.3215 20.3553 13.5467 19.9876 13.6393C19.8335 13.6845 19.6728 13.707 19.5228 13.7588C19.3061 13.8263 19.1131 13.954 18.9663 14.1271C18.8195 14.3002 18.7251 14.5115 18.694 14.7363C18.5049 15.9464 17.8547 17.0364 16.8798 17.7777C16.727 17.897 16.6038 18.0498 16.5197 18.2244C16.4357 18.399 16.393 18.5907 16.395 18.7845C16.3844 19.1909 16.387 19.5986 16.395 20.005C16.3859 20.2371 16.4538 20.4657 16.588 20.6552C16.7223 20.8447 16.9155 20.9845 17.1374 21.0529C19.4431 21.9401 21.7434 22.8419 24.0437 23.7264C24.8645 24.0375 25.5721 24.5896 26.0734 25.3102C26.5748 26.0307 26.8464 26.8861 26.8527 27.7639C26.8527 27.9352 26.8527 28.1066 26.8527 28.2779C26.8527 28.7109 26.935 28.8091 27.3534 28.934C27.3693 29.3577 27.376 29.7866 27.3813 30.2063ZM13.3629 4.28664C13.2062 4.04359 13.0189 3.89617 12.6988 3.9825C10.8474 4.4832 9.40642 6.50594 9.55517 8.4118C9.57657 8.6061 9.63732 8.794 9.73371 8.96406C9.8301 9.13412 9.96011 9.28276 10.1158 9.40094C10.2715 9.51912 10.4497 9.60435 10.6394 9.65144C10.8291 9.69853 11.0264 9.70649 11.2193 9.67484C11.9617 9.53008 12.3814 8.99883 12.4492 8.13023C12.4708 7.83855 12.5742 7.55887 12.7475 7.32325C12.9208 7.08763 13.157 6.9056 13.429 6.79803C13.7009 6.69046 13.9977 6.66169 14.2853 6.71503C14.5729 6.76837 14.8396 6.90165 15.0549 7.09961C15.2808 7.2934 15.4431 7.55076 15.5206 7.83813C15.598 8.1255 15.5871 8.42955 15.4892 8.71062C15.3166 9.295 14.9088 9.64031 14.3192 9.78109C13.4386 9.98695 12.8277 10.5076 12.6285 11.3934C12.4753 12.1519 12.4681 12.9326 12.6072 13.6938C12.7188 14.383 13.3749 14.828 14.0974 14.7961C14.4272 14.7793 14.7406 14.6475 14.9833 14.4235C15.226 14.1996 15.3824 13.8976 15.4255 13.5702C15.4576 13.3264 15.4678 13.0801 15.456 12.8345C15.4427 12.5795 15.5118 12.4466 15.7721 12.3364C17.5173 11.6006 18.5373 9.90727 18.4496 7.94562C18.3713 6.19516 17.1295 4.58812 15.4162 4.02234C15.0177 3.88953 14.8743 3.94398 14.6472 4.30922C14.2239 4.22492 13.7889 4.21727 13.3629 4.28664Z" fill="#518DAE"/>
<path id="Vector_3" d="M13.8098 18.7314C13.8098 19.2626 13.7673 19.8058 13.8178 20.3371C13.9001 21.2136 13.3675 21.636 12.746 21.8843C10.4762 22.7888 8.19847 23.6773 5.92605 24.5725C5.39298 24.7642 4.88818 25.0269 4.42526 25.3534C3.72401 25.8754 3.41589 26.6018 3.39995 27.4266C3.36409 29.1718 3.38933 30.9169 3.39066 32.6621C2.74784 32.6621 2.10503 32.6621 1.46222 32.6754C1.2298 32.6754 1.1355 32.5758 1.13683 32.3447C1.13683 30.727 1.06909 29.104 1.16339 27.4917C1.26566 25.7651 2.17011 24.4702 3.79175 23.8035C6.07745 22.8645 8.39105 21.9933 10.698 21.0954C11.4537 20.8006 11.6051 20.5854 11.6064 19.7819C11.6064 19.4818 11.6064 19.1816 11.6064 18.8815C11.6172 18.6615 11.5745 18.4422 11.482 18.2424C11.3895 18.0425 11.2499 17.8681 11.0752 17.734C10.1221 16.9996 9.49006 15.9249 9.31144 14.735C9.21448 14.1679 8.85987 13.824 8.29808 13.7084C7.95596 13.6567 7.63448 13.5125 7.36839 13.2914C7.21938 13.1675 7.0965 13.0153 7.00688 12.8435C6.91726 12.6718 6.86271 12.4839 6.8464 12.2908C6.83008 12.0978 6.85233 11.9034 6.91185 11.719C6.97137 11.5346 7.06696 11.3639 7.19308 11.2168C7.71636 10.5528 7.73894 10.1304 7.27144 9.41591C7.14954 9.22612 7.08795 9.00387 7.0948 8.77841C7.0948 7.45028 7.07355 6.12216 7.0948 4.79403C7.13066 3.01036 8.488 1.69552 10.269 1.68091C10.5041 1.68091 10.7405 1.68888 10.9756 1.69286C10.953 1.82567 10.8242 1.87083 10.7378 1.93724C9.76565 2.68099 9.3287 3.68771 9.30745 4.88036C9.28355 6.12216 9.30745 7.36528 9.29815 8.60841C9.28553 9.01623 9.40477 9.41725 9.63815 9.75192C9.91972 10.1504 9.88784 10.4452 9.58636 10.8144C9.11886 11.3988 8.91566 12.0562 9.18792 12.7814C9.46948 13.5437 10.0499 13.9767 10.8388 14.1454C11.3156 14.2436 11.475 14.3911 11.5613 14.8665C11.6831 15.575 11.9445 16.2522 12.3303 16.8587C12.3772 16.9439 12.451 17.0111 12.5401 17.05C12.5879 18.058 12.92 18.4976 13.8098 18.7314Z" fill="#467A9D"/>
<path id="Vector_4" d="M14.6416 4.31193C14.8687 3.94669 15.0121 3.89357 15.4106 4.02505C17.1238 4.59083 18.3656 6.19786 18.444 7.94833C18.5317 9.90997 17.5143 11.6033 15.7665 12.3391C15.5009 12.4493 15.4371 12.5822 15.4504 12.8372C15.4622 13.0828 15.452 13.3291 15.4199 13.5729C15.3768 13.9003 15.2203 14.2023 14.9777 14.4263C14.735 14.6502 14.4215 14.7821 14.0917 14.7988C13.3692 14.8307 12.7131 14.3858 12.6016 13.6965C12.4625 12.9353 12.4697 12.1546 12.6228 11.3961C12.822 10.5103 13.433 9.98966 14.3135 9.7838C14.9032 9.65099 15.311 9.29771 15.4836 8.71333C15.5699 8.43183 15.5747 8.13166 15.4975 7.84754C15.4202 7.56342 15.2641 7.30698 15.0473 7.10787C14.8304 6.90876 14.5615 6.77513 14.2719 6.72244C13.9822 6.66975 13.6835 6.70015 13.4104 6.81013C13.1354 6.90969 12.8966 7.0895 12.725 7.32629C12.5533 7.56307 12.4566 7.84593 12.4475 8.13826C12.3798 9.00685 11.9601 9.5381 11.2177 9.68286C11.0248 9.71452 10.8275 9.70655 10.6377 9.65946C10.448 9.61237 10.2699 9.52714 10.1142 9.40896C9.95847 9.29079 9.82846 9.14214 9.73207 8.97208C9.63568 8.80202 9.57494 8.61412 9.55353 8.41982C9.40478 6.51529 10.8458 4.49122 12.6972 3.99052C13.0173 3.90419 13.2045 4.05161 13.3613 4.29466C13.3958 4.64927 13.2205 4.84716 12.8938 4.94677C12.6897 4.99769 12.4975 5.08792 12.328 5.2124C11.2788 5.65997 10.3783 7.20458 10.5151 8.3056C10.5536 8.61372 10.7807 8.76115 11.1061 8.68544C11.4514 8.61107 11.4594 8.33349 11.482 8.06521C11.567 7.09966 12.0424 6.38779 12.911 5.97474C13.9257 5.4913 14.8647 5.70911 15.7253 6.37318C16.2566 6.95224 16.5713 7.61232 16.5222 8.4238C16.4824 9.07326 16.1942 9.60185 15.7838 10.0813L15.7014 10.149C15.3477 10.4277 14.941 10.6315 14.5061 10.748C14.453 10.748 14.3999 10.748 14.3667 10.7958C13.9284 10.9087 13.5698 11.2607 13.5432 11.7003C13.5098 12.2637 13.5049 12.8284 13.5286 13.3923C13.5432 13.7509 13.8221 13.893 14.1927 13.7761C14.437 13.7044 14.4716 13.5012 14.4782 13.2927C14.4888 13.0045 14.4782 12.715 14.4782 12.4254C14.4782 11.9221 14.611 11.7441 15.0918 11.5741C16.5528 11.0535 17.4824 9.77849 17.4824 8.2538C17.4824 6.72911 16.5806 5.46474 15.1011 4.94013C14.797 4.83521 14.6137 4.65724 14.6416 4.31193Z" fill="#020203"/>
<path id="Vector_5" d="M14.5144 10.7494C14.9493 10.6329 15.356 10.4291 15.7097 10.1504C15.7196 10.1517 15.7297 10.151 15.7393 10.1482C15.7489 10.1455 15.7578 10.1408 15.7655 10.1344C15.7733 10.1281 15.7796 10.1202 15.7841 10.1113C15.7887 10.1024 15.7914 10.0927 15.792 10.0827C15.8777 10.0947 15.9646 10.0723 16.0338 10.0203C16.9634 9.56871 17.403 8.23128 16.8944 7.32816C16.6287 6.86863 16.3233 6.44628 15.7349 6.37457C14.8743 5.70253 13.9353 5.49136 12.9206 5.97613C12.052 6.38918 11.5766 7.10105 11.4916 8.0666C11.469 8.33222 11.461 8.61246 11.1157 8.68683C11.0798 8.52184 11.0607 8.35364 11.0586 8.1848C11.1303 7.38792 11.3016 6.63886 11.7798 5.9748C11.9644 5.7198 12.2207 5.5166 12.3376 5.21378C12.5071 5.0893 12.6993 4.99908 12.9034 4.94816C13.2301 4.84855 13.4054 4.65066 13.3709 4.29605C13.7956 4.22716 14.2292 4.23481 14.6512 4.31863C14.6233 4.66394 14.8052 4.84191 15.116 4.95214C16.5955 5.48339 17.5 6.74644 17.4973 8.26582C17.4947 9.78519 16.5743 11.0549 15.1067 11.5861C14.6286 11.7561 14.4984 11.9341 14.4931 12.4375C14.4931 12.727 14.4931 13.0165 14.4931 13.3047C14.4865 13.5132 14.452 13.7164 14.2076 13.7882C13.9632 13.0816 14.0894 12.3604 14.1146 11.6419C14.1252 11.3378 14.3736 11.1107 14.3802 10.8078C14.4059 10.8156 14.4335 10.814 14.4581 10.8033C14.4826 10.7926 14.5026 10.7735 14.5144 10.7494Z" fill="#FA7D83"/>
<path id="Vector_6" d="M13.8102 18.7314C12.9203 18.4976 12.5883 18.058 12.5352 17.05C12.5856 16.6595 12.6985 16.2983 12.9987 16.0194C13.1859 15.8315 13.4229 15.7012 13.6818 15.6438C13.9407 15.5864 14.2106 15.6042 14.4596 15.6953C15.0161 15.8772 15.3335 16.2783 15.4318 16.8601C15.5952 17.8508 14.9962 18.7991 13.8102 18.7314ZM14.2086 16.6476C14.1119 16.5879 13.9956 16.5684 13.8847 16.5932C13.7738 16.618 13.677 16.6852 13.6149 16.7804C13.542 16.9005 13.5034 17.0383 13.5034 17.1788C13.5034 17.3193 13.542 17.4571 13.6149 17.5772C13.6448 17.6248 13.6838 17.666 13.7297 17.6984C13.7755 17.7308 13.8274 17.7539 13.8822 17.7662C13.937 17.7786 13.9937 17.78 14.049 17.7703C14.1043 17.7607 14.1572 17.7402 14.2046 17.7101C14.2962 17.6552 14.3721 17.5777 14.4251 17.485C14.478 17.3922 14.5062 17.2874 14.5068 17.1807C14.5075 17.0739 14.4807 16.9688 14.4289 16.8754C14.3771 16.782 14.3022 16.7036 14.2113 16.6476H14.2086Z" fill="#020203"/>
<path id="Vector_7" d="M15.7266 6.37573C16.3149 6.44745 16.6257 6.86979 16.886 7.32933C17.3947 8.23245 16.9604 9.56987 16.0254 10.0214C15.9563 10.0734 15.8693 10.0959 15.7837 10.0839C16.1941 9.6044 16.4823 9.07581 16.5221 8.42636C16.5713 7.61487 16.2578 6.95479 15.7266 6.37573Z" fill="#E0626C"/>
<path id="Vector_8" d="M12.3267 5.21631C12.2098 5.51912 11.9535 5.72232 11.7689 5.97732C11.2907 6.64139 11.1194 7.39709 11.0477 8.18732C11.0498 8.35616 11.0689 8.52436 11.1048 8.68936C10.7807 8.76506 10.5523 8.61764 10.5138 8.30951C10.377 7.1992 11.2775 5.66123 12.3267 5.21631Z" fill="#E0626C"/>
<path id="Vector_9" d="M14.3749 10.7944C14.3616 11.0972 14.1093 11.3257 14.1093 11.6285C14.084 12.347 13.9579 13.0682 14.2022 13.7747C13.837 13.8916 13.5581 13.7495 13.5382 13.3909C13.5145 12.827 13.5194 12.2623 13.5528 11.6989C13.5807 11.2593 13.9366 10.9073 14.3749 10.7944Z" fill="#E0626C"/>
<path id="Vector_10" d="M14.5145 10.7493C14.5008 10.7726 14.4792 10.7903 14.4536 10.7991C14.428 10.8078 14.4001 10.8071 14.375 10.7971C14.4082 10.7426 14.4613 10.7439 14.5145 10.7493Z" fill="#E0626C"/>
<path id="Vector_11" d="M15.7855 10.0825C15.7848 10.0925 15.7821 10.1022 15.7776 10.1111C15.773 10.12 15.7667 10.1279 15.759 10.1342C15.7513 10.1406 15.7423 10.1453 15.7327 10.148C15.7231 10.1508 15.713 10.1515 15.7031 10.1503L15.7855 10.0825Z" fill="#E0626C"/>
<path id="Vector_12" d="M14.2051 17.7006C14.1577 17.7308 14.1048 17.7513 14.0495 17.7609C13.9941 17.7705 13.9374 17.7691 13.8826 17.7568C13.8278 17.7445 13.776 17.7214 13.7302 17.689C13.6843 17.6566 13.6453 17.6154 13.6154 17.5678C13.5425 17.4477 13.5039 17.3099 13.5039 17.1694C13.5039 17.0289 13.5425 16.8911 13.6154 16.771C13.6775 16.6757 13.7743 16.6086 13.8852 16.5838C13.9961 16.5589 14.1124 16.5785 14.2091 16.6381C14.0999 16.7936 14.0411 16.9788 14.0403 17.1688C14.0396 17.3587 14.0971 17.5443 14.2051 17.7006Z" fill="#E0626C"/>
<path id="Vector_13" d="M14.2056 17.7007C14.0997 17.546 14.043 17.3629 14.043 17.1754C14.043 16.9879 14.0997 16.8048 14.2056 16.6501C14.2942 16.7062 14.3672 16.7838 14.4177 16.8756C14.4683 16.9674 14.4948 17.0706 14.4948 17.1754C14.4948 17.2803 14.4683 17.3834 14.4177 17.4752C14.3672 17.5671 14.2942 17.6446 14.2056 17.7007Z" fill="#FA7D83"/>
</g>
</svg>
