<svg width="30" height="33" viewBox="0 0 30 33" fill="none" xmlns="http://www.w3.org/2000/svg">
<g id="Validador">
<path id="Vector" d="M11.0412 2.91779C10.8008 2.57779 10.5989 2.28826 10.393 2.00272C10.1128 1.61358 10.0358 1.19654 10.2602 0.762247C10.4847 0.32795 10.8592 0.147325 11.3466 0.15131C12.6256 0.159278 13.9046 0.15131 15.1836 0.15131C15.6564 0.15131 16.0216 0.326622 16.2461 0.74631C16.4705 1.166 16.4121 1.59498 16.1332 1.98678C15.9287 2.27498 15.7268 2.56451 15.517 2.86334C15.6325 2.95897 15.7547 2.91514 15.8623 2.91514C18.5398 2.91514 21.2159 2.91514 23.8934 2.91514C24.859 2.91514 25.5456 3.44639 25.7528 4.32428C25.7875 4.50359 25.8004 4.68641 25.7913 4.86881C25.7913 6.87959 25.7913 8.88904 25.7913 10.8998C25.781 10.987 25.799 11.0752 25.8428 11.1513C25.8866 11.2274 25.9538 11.2873 26.0344 11.3222C28.1594 12.5042 29.3055 14.3211 29.3002 16.7436C29.2949 19.1661 28.1395 20.9577 26.0344 22.1344C25.9533 22.1679 25.8856 22.2272 25.8416 22.303C25.7977 22.3789 25.78 22.4672 25.7913 22.5541C25.798 25.1028 25.7687 27.6515 25.8086 30.1988C25.8259 31.3065 25.0117 32.191 23.8164 32.191C16.7747 32.1653 9.73562 32.1653 2.69922 32.191C1.61281 32.191 0.707031 31.438 0.707031 30.1988C0.722969 21.7705 0.722969 13.3418 0.707031 4.91264C0.707031 3.74654 1.51453 2.89522 2.7218 2.91248C5.36609 2.94834 8.01039 2.92311 10.6547 2.92311L11.0412 2.91779ZM17.5091 19.0147C17.3338 18.4635 17.1638 17.9442 17.1266 17.3957C17.1147 17.235 16.9938 17.2536 16.8902 17.2536H15.4718C14.4398 17.2536 13.4079 17.2536 12.3759 17.2536C11.9948 17.2536 11.7663 17.0517 11.761 16.7383C11.7557 16.4248 11.9828 16.2243 12.3627 16.2229C13.793 16.2229 15.2221 16.2137 16.6525 16.2296C16.9805 16.2296 17.1837 16.1951 17.1572 15.8006C17.1548 15.6495 17.1833 15.4994 17.2409 15.3597C17.3245 15.1233 17.2754 15.0529 17.0111 15.0555C15.6989 15.0688 14.388 15.0622 13.0759 15.0622C12.8102 15.0622 12.5446 15.0728 12.2697 15.0622C12.1569 15.0592 12.0482 15.0193 11.9601 14.9487C11.8721 14.8781 11.8096 14.7806 11.7822 14.6712C11.7548 14.5617 11.764 14.4463 11.8084 14.3425C11.8528 14.2388 11.9299 14.1524 12.028 14.0966C12.1553 14.0377 12.2967 14.0165 12.4357 14.0355C14.1131 14.0355 15.7892 14.0355 17.4666 14.0355C17.5386 14.0448 17.6117 14.0308 17.6752 13.9957C17.7388 13.9606 17.7894 13.9062 17.8199 13.8403C18.8426 12.0314 20.3752 10.9583 22.4445 10.6767C22.6277 10.6515 22.6915 10.593 22.6902 10.3965C22.6813 9.02053 22.6813 7.64459 22.6902 6.26865C22.6902 6.08803 22.6437 6.03358 22.4591 6.0349C21.2124 6.04199 19.9653 6.04199 18.7177 6.0349C18.5477 6.0349 18.5066 6.08537 18.5026 6.25272C18.4933 6.68967 18.322 6.85568 17.8903 6.85568C14.8055 6.85568 11.7198 6.85568 8.63328 6.85568C8.20164 6.85568 8.01703 6.68568 8.00773 6.25537C8.00773 6.06147 7.93734 6.03225 7.76734 6.03358C6.54193 6.04066 5.31607 6.04066 4.08977 6.03358C3.89852 6.03358 3.83609 6.07076 3.83742 6.27795C3.84273 13.7925 3.84273 21.3075 3.83742 28.8229C3.83742 29.0141 3.87461 29.0765 4.08047 29.0765C9.17693 29.0695 14.2729 29.0695 19.3685 29.0765C19.597 29.0765 19.6235 28.9929 19.6222 28.8003C19.6116 28.0911 19.6155 27.3819 19.6222 26.6753C19.6222 26.1892 19.7988 26.0112 20.2862 26.0112C20.9955 26.0112 21.7047 26.0112 22.4112 26.0112C22.5985 26.0112 22.6995 25.9953 22.6955 25.7562C22.6795 24.8531 22.6835 23.95 22.6955 23.0469C22.6955 22.8662 22.637 22.8237 22.463 22.7998C21.6177 22.7007 20.803 22.4236 20.0725 21.9868C19.3421 21.5501 18.7124 20.9635 18.225 20.2658C18.1772 20.1908 18.1096 20.1306 18.0296 20.0917C17.9497 20.0528 17.8606 20.0367 17.7721 20.0453C16.2355 20.0519 14.6975 20.0453 13.1609 20.0453C12.8594 20.0453 12.5579 20.0572 12.2577 20.0453C12.166 20.0434 12.0766 20.0165 11.9991 19.9675C11.9216 19.9184 11.8589 19.8492 11.8179 19.7672C11.7769 19.6851 11.7591 19.5934 11.7664 19.502C11.7737 19.4106 11.8058 19.3229 11.8593 19.2484C11.9921 19.0492 12.2046 19.016 12.4291 19.0173C13.7297 19.0173 15.0304 19.0173 16.3311 19.0173L17.5091 19.0147ZM1.7443 17.5351C1.7443 21.7382 1.7443 25.9439 1.7443 30.1523C1.7443 30.8868 2.00062 31.1484 2.72578 31.1484H23.7859C24.519 31.1484 24.762 30.9014 24.762 30.1563V23.1199C24.762 22.671 24.762 22.671 24.3078 22.7454C24.204 22.7731 24.0977 22.79 23.9904 22.7958C23.7593 22.7852 23.7115 22.8888 23.7128 23.104C23.7234 24.189 23.7128 25.2755 23.7208 26.3619C23.7249 26.4798 23.7032 26.5972 23.6573 26.7059C23.6115 26.8146 23.5425 26.912 23.4552 26.9914C22.5007 27.9361 21.5506 28.8862 20.605 29.8415C20.5253 29.9281 20.4281 29.9966 20.3197 30.0425C20.2113 30.0883 20.0944 30.1103 19.9768 30.1072C14.473 30.1072 8.96885 30.1072 3.46422 30.1072C2.9768 30.1072 2.80016 29.9372 2.80016 29.4497C2.80016 21.5146 2.80016 13.58 2.80016 5.64576C2.80016 5.17693 2.97148 5.01092 3.4443 5.00959H7.26133C8.00375 5.00959 7.99312 5.00959 8.00375 4.28045C8.00375 4.03342 7.94797 3.9524 7.68633 3.95506C6.05273 3.96701 4.41781 3.95506 2.78422 3.9617C1.98734 3.9617 1.7443 4.19811 1.7443 4.99631V17.5351ZM23.1975 21.8157C24.2018 21.8159 25.1836 21.5187 26.0192 20.9616C26.8548 20.4044 27.5066 19.6123 27.8925 18.6851C28.2784 17.7579 28.381 16.7372 28.1875 15.7518C27.9939 14.7663 27.5128 13.8603 26.8049 13.1479C26.097 12.4355 25.194 11.9488 24.2098 11.7491C23.2255 11.5494 22.2042 11.6456 21.2746 12.0257C20.345 12.4058 19.5488 13.0527 18.9865 13.8848C18.4241 14.7168 18.1208 15.6968 18.1148 16.7011C18.1119 18.0529 18.6455 19.3506 19.5984 20.3095C20.5513 21.2684 21.8457 21.8101 23.1975 21.8157ZM13.2605 5.82373C14.5713 5.82373 15.8822 5.82373 17.1917 5.82373C17.4202 5.82373 17.4866 5.75733 17.4786 5.53287C17.4627 5.09326 17.4627 4.65233 17.4786 4.21272C17.4866 3.99889 17.4148 3.94709 17.2063 3.94709C16.347 3.95772 15.4877 3.94709 14.6284 3.94709C14.3787 3.94709 14.1516 3.90459 14.0268 3.66022C13.902 3.41584 13.9909 3.20865 14.1397 3.00412C14.5102 2.49014 14.8741 1.97217 15.238 1.4542C15.2845 1.38779 15.3709 1.32139 15.3164 1.22842C15.262 1.13545 15.1836 1.18193 15.1092 1.18193C13.8847 1.18193 12.6602 1.18193 11.4356 1.18193C11.3559 1.18193 11.2523 1.14342 11.2045 1.2417C11.1567 1.33998 11.243 1.4024 11.2895 1.47014C11.6437 1.9704 11.9979 2.46977 12.352 2.96826C12.4995 3.17412 12.6389 3.37998 12.5008 3.64693C12.3627 3.91389 12.1116 3.94842 11.8367 3.94842C11.0173 3.95108 10.1845 3.96568 9.35844 3.95108C9.07953 3.95108 9.0118 4.03608 9.02508 4.29772C9.04647 4.69587 9.04647 5.09488 9.02508 5.49303C9.0118 5.75865 9.08883 5.841 9.36242 5.83834C10.6613 5.81045 11.9616 5.82373 13.2605 5.82373ZM24.762 7.64858V4.90865C24.762 4.21006 24.5084 3.95373 23.8151 3.95373H19.2702C18.4946 3.95373 18.5052 3.95373 18.4999 4.72404C18.4999 4.95381 18.569 5.00959 18.7908 5.00826C20.1973 4.99897 21.6051 5.00826 23.0116 5.00826C23.5561 5.00826 23.7181 5.17162 23.7181 5.72147V9.97147C23.7181 10.601 23.7181 10.601 24.3118 10.7219C24.3757 10.7271 24.4388 10.7386 24.5004 10.7564C24.7182 10.848 24.766 10.7697 24.766 10.5519C24.7567 9.58232 24.762 8.61545 24.762 7.64858ZM21.8481 27.0392C21.5148 27.0392 21.1721 27.0392 20.8308 27.0392C20.7166 27.0392 20.6488 27.0644 20.6515 27.1986C20.6515 27.5492 20.6515 27.8985 20.6515 28.2345L21.8481 27.0392Z" fill="#030303"/>
<path id="Vector_2" d="M17.509 19.0147H16.3296C15.0298 19.0147 13.7291 19.0147 12.4276 19.0147C12.2031 19.0147 11.9959 19.0465 11.8578 19.2458C11.8043 19.3203 11.7722 19.4079 11.7649 19.4994C11.7576 19.5908 11.7754 19.6825 11.8164 19.7645C11.8575 19.8465 11.9201 19.9158 11.9976 19.9648C12.0751 20.0138 12.1646 20.0407 12.2562 20.0426C12.5564 20.0599 12.8579 20.0426 13.1594 20.0426C14.696 20.0426 16.234 20.0426 17.7706 20.0426C17.8591 20.0341 17.9482 20.0501 18.0282 20.089C18.1081 20.1279 18.1757 20.1882 18.2235 20.2631C18.7109 20.9608 19.3406 21.5474 20.071 21.9842C20.8015 22.421 21.6162 22.698 22.4616 22.7972C22.6355 22.8211 22.6953 22.8636 22.694 23.0442C22.6847 23.9473 22.6807 24.8504 22.694 25.7536C22.694 25.9926 22.597 26.0099 22.4098 26.0086C21.6992 26.0006 20.99 26.0019 20.2848 26.0086C19.7987 26.0086 19.6207 26.1839 19.6207 26.6726C19.6207 27.3832 19.6141 28.0924 19.6207 28.7976C19.6207 28.9902 19.5955 29.0739 19.367 29.0739C14.2706 29.0659 9.17456 29.0659 4.07898 29.0739C3.87312 29.0739 3.83594 29.0115 3.83594 28.8202C3.84125 21.3057 3.84125 13.7907 3.83594 6.27529C3.83594 6.0681 3.89703 6.02959 4.08828 6.03092C5.31458 6.03977 6.54044 6.03977 7.76586 6.03092C7.93586 6.03092 8.00227 6.05881 8.00625 6.25271C8.01555 6.68303 8.20016 6.8517 8.6318 6.85303C11.7166 6.85303 14.8023 6.85303 17.8888 6.85303C18.3205 6.85303 18.4918 6.68701 18.5011 6.25006C18.5011 6.08271 18.5462 6.03092 18.7162 6.03224C19.9638 6.03933 21.2109 6.03933 22.4576 6.03224C22.6422 6.03224 22.69 6.08537 22.6887 6.26599C22.6825 7.64193 22.6825 9.01787 22.6887 10.3938C22.6887 10.5904 22.6262 10.6488 22.443 10.674C20.3737 10.9556 18.8411 12.0287 17.8184 13.8376C17.788 13.9035 17.7373 13.958 17.6737 13.9931C17.6102 14.0282 17.5371 14.0421 17.4652 14.0329C15.7877 14.0262 14.1116 14.0329 12.4342 14.0329C12.2953 14.0139 12.1538 14.0351 12.0265 14.094C11.9284 14.1498 11.8513 14.2361 11.8069 14.3399C11.7625 14.4436 11.7533 14.5591 11.7807 14.6685C11.8081 14.778 11.8706 14.8755 11.9586 14.9461C12.0467 15.0167 12.1554 15.0565 12.2682 15.0595C12.5338 15.0754 12.7995 15.0595 13.0744 15.0595C14.3866 15.0595 15.6974 15.0595 17.0096 15.0529C17.2752 15.0529 17.323 15.1206 17.2394 15.357C17.1818 15.4968 17.1533 15.6468 17.1557 15.7979C17.1849 16.1964 16.9791 16.2309 16.651 16.2269C15.2206 16.211 13.7916 16.219 12.3612 16.2203C11.9813 16.2203 11.7555 16.4195 11.7595 16.7356C11.7635 17.0517 11.9933 17.2496 12.3745 17.2509C13.4064 17.2509 14.4384 17.2509 15.4703 17.2509H16.8887C16.9963 17.2509 17.1132 17.2323 17.1252 17.393C17.1637 17.9442 17.3337 18.4635 17.509 19.0147ZM16.1689 10.0525H19.7827C19.901 10.0569 20.0195 10.0534 20.1373 10.0419C20.2515 10.0277 20.3573 9.97494 20.4374 9.89239C20.5174 9.80985 20.5669 9.70244 20.5776 9.58794C20.5883 9.47344 20.5595 9.35873 20.4962 9.26279C20.4328 9.16685 20.3385 9.09544 20.229 9.06037C20.1049 9.02945 19.9769 9.01648 19.8491 9.02185C17.4001 9.02185 14.9515 9.02185 12.5033 9.02185C12.3856 9.01688 12.2678 9.0267 12.1527 9.05107C12.084 9.06583 12.0194 9.09511 11.963 9.13694C11.9067 9.17877 11.86 9.23219 11.826 9.2936C11.792 9.355 11.7716 9.42298 11.7661 9.49294C11.7606 9.5629 11.7701 9.63323 11.7941 9.6992C11.8857 9.97678 12.1022 10.0565 12.3745 10.0551C13.6371 10.0516 14.9019 10.0507 16.1689 10.0525ZM16.1689 24.023H13.2351C12.9123 24.023 12.5896 24.023 12.2682 24.023C12.2036 24.0211 12.1392 24.0319 12.0787 24.0549C12.0183 24.0779 11.9629 24.1126 11.9159 24.157C11.8689 24.2014 11.8311 24.2547 11.8048 24.3138C11.7784 24.3728 11.7639 24.4365 11.7622 24.5012C11.7579 24.5684 11.7668 24.6358 11.7886 24.6996C11.8104 24.7634 11.8445 24.8222 11.889 24.8728C11.9336 24.9234 11.9876 24.9647 12.0481 24.9944C12.1086 25.024 12.1744 25.0415 12.2416 25.0457C12.3168 25.051 12.3923 25.051 12.4674 25.0457H19.877C20.0165 25.059 20.1572 25.039 20.2874 24.9872C20.3874 24.9435 20.4697 24.8672 20.5208 24.7707C20.572 24.6743 20.5889 24.5633 20.569 24.456C20.5615 24.3476 20.5167 24.2452 20.442 24.1662C20.3674 24.0872 20.2677 24.0366 20.1599 24.023C20.0534 24.0091 19.9458 24.005 19.8385 24.0111L16.1689 24.023ZM14.8487 12.2412C15.6766 12.2412 16.504 12.2412 17.331 12.2412C17.7414 12.2412 17.9765 12.054 17.9791 11.7352C17.9818 11.4165 17.7348 11.204 17.339 11.204C15.6948 11.204 14.051 11.204 12.4077 11.204C11.9999 11.204 11.7662 11.3992 11.7635 11.7206C11.7609 12.042 11.9893 12.2333 12.3984 12.2346C13.2138 12.2408 14.0297 12.243 14.8461 12.2412H14.8487ZM14.8487 22.2407C15.6762 22.2407 16.5036 22.2407 17.331 22.2407C17.7387 22.2407 17.9752 22.0508 17.9778 21.732C17.9805 21.4133 17.7321 21.2101 17.3363 21.2101C15.693 21.2101 14.0492 21.2101 12.405 21.2101C11.9986 21.2101 11.7648 21.4053 11.7622 21.7267C11.7595 22.0481 11.9906 22.2407 12.3984 22.242C13.2138 22.2433 14.0306 22.2407 14.8474 22.2407H14.8487ZM7.61047 27.1933C7.69628 27.1859 7.77975 27.1615 7.85594 27.1213C7.93214 27.0812 7.9995 27.0261 8.05406 26.9595C8.68758 26.318 9.32508 25.6792 9.95726 25.0351C10.2402 24.7495 10.2641 24.4414 10.0343 24.2169C9.80453 23.9925 9.50305 24.031 9.21617 24.3179C8.73008 24.804 8.24398 25.2901 7.76586 25.7788C7.645 25.9037 7.5693 25.9355 7.43781 25.7894C7.25055 25.5836 7.03937 25.391 6.83883 25.2051C6.5918 24.9806 6.2943 24.9753 6.08844 25.1798C5.88258 25.3844 5.87461 25.6925 6.12828 25.9488C6.48422 26.3061 6.84812 26.6554 7.2107 27.0113C7.2616 27.0671 7.32327 27.1119 7.39197 27.1432C7.46068 27.1744 7.535 27.1915 7.61047 27.1933ZM10.187 14.604C10.1945 14.5015 10.169 14.3993 10.1143 14.3124C10.0595 14.2254 9.97848 14.1582 9.88289 14.1205C9.7784 14.0757 9.66226 14.0655 9.55157 14.0916C9.44088 14.1176 9.34147 14.1785 9.26797 14.2653C8.76328 14.7793 8.25063 15.284 7.75125 15.8019C7.63305 15.9241 7.56266 15.9347 7.44445 15.8019C7.25453 15.5974 7.04601 15.4035 6.84547 15.2162C6.58914 14.9812 6.2757 14.9798 6.0725 15.2003C5.8693 15.4208 5.87859 15.6997 6.12164 15.9454C6.47625 16.304 6.83617 16.6586 7.20406 17.0079C7.48562 17.2735 7.73531 17.2735 8.02086 16.9906C8.68492 16.3265 9.33836 15.6625 9.99578 14.9984C10.0542 14.9506 10.1015 14.8907 10.1345 14.8228C10.1676 14.755 10.1855 14.6807 10.187 14.6053V14.604ZM6.40719 20.036C6.3172 20.0435 6.23087 20.075 6.15709 20.127C6.08331 20.1791 6.02477 20.2499 5.9875 20.3322C5.93545 20.4278 5.91748 20.5382 5.93655 20.6454C5.95562 20.7526 6.01059 20.8501 6.09242 20.9219C6.43242 21.2645 6.78172 21.5979 7.12836 21.9339C7.475 22.2699 7.72734 22.2858 8.08461 21.9272C8.7044 21.3075 9.32419 20.6823 9.94398 20.0519C10.2388 19.7544 10.2694 19.4357 10.0303 19.2126C9.79125 18.9894 9.51234 19.0266 9.21617 19.3228C8.73937 19.8009 8.25726 20.2751 7.79508 20.7678C7.63437 20.9391 7.54273 20.9272 7.39664 20.7678C7.22797 20.5752 7.03141 20.4052 6.84812 20.2246C6.79184 20.1642 6.72353 20.1162 6.6476 20.0837C6.57166 20.0512 6.48977 20.035 6.40719 20.036ZM7.58523 12.1854C7.67739 12.1846 7.76816 12.1628 7.85073 12.1219C7.9333 12.0809 8.00554 12.0219 8.06203 11.949C8.68758 11.3155 9.31578 10.6847 9.94133 10.0498C10.2348 9.75232 10.2667 9.43357 10.029 9.21045C9.79125 8.98732 9.51234 9.02318 9.21484 9.32068C8.73805 9.79881 8.25461 10.2716 7.79242 10.7644C7.63305 10.9344 7.54008 10.9264 7.39398 10.7644C7.22598 10.5818 7.04866 10.408 6.86273 10.2437C6.58648 9.9781 6.28898 9.97013 6.06586 10.2012C5.84273 10.4323 5.8693 10.7126 6.12695 10.9702C6.48289 11.3262 6.84812 11.6741 7.20937 12.0327C7.2587 12.0819 7.31736 12.1208 7.3819 12.147C7.44644 12.1732 7.51557 12.1863 7.58523 12.1854ZM14.2338 26.2118C13.6109 26.2118 12.988 26.2118 12.3652 26.2118C11.9827 26.2118 11.7582 26.4097 11.7609 26.7258C11.7635 27.0419 11.9906 27.2397 12.3718 27.2411C13.6114 27.2411 14.847 27.2411 16.0786 27.2411C16.4478 27.2411 16.6895 27.0219 16.6869 26.7178C16.6842 26.4137 16.4531 26.2131 16.0706 26.2118C15.4584 26.2144 14.8461 26.2171 14.2338 26.2171V26.2118Z" fill="#EDF2F5"/>
<path id="Vector_3" d="M1.74285 17.5352V4.98836C1.74285 4.19016 1.98457 3.9511 2.78145 3.9511C4.41504 3.9511 6.04996 3.9511 7.68356 3.94446C7.94918 3.94446 8.00496 4.02282 8.00098 4.26985C7.99035 4.99899 8.00098 4.99899 7.25855 4.99899H3.45348C2.98066 4.99899 2.80934 5.16633 2.80934 5.63516C2.80934 13.5694 2.80934 21.504 2.80934 29.4391C2.80934 29.9266 2.98199 30.0966 3.4734 30.0966C8.97715 30.0966 14.4813 30.0966 19.986 30.0966C20.1036 30.0997 20.2205 30.0777 20.3289 30.0319C20.4372 29.986 20.5345 29.9175 20.6142 29.8309C21.5589 28.8765 22.509 27.9264 23.4643 26.9808C23.5517 26.9014 23.6206 26.804 23.6665 26.6953C23.7124 26.5866 23.734 26.4692 23.73 26.3513C23.7233 25.2648 23.73 24.1784 23.722 23.0934C23.722 22.8782 23.7685 22.7746 23.9996 22.7852C24.1068 22.7794 24.2132 22.7625 24.317 22.7348C24.7712 22.6604 24.7712 22.6604 24.7712 23.1093V30.1404C24.7712 30.8855 24.5282 31.1325 23.795 31.1325H2.72434C1.99918 31.1325 1.74285 30.8669 1.74285 30.1364C1.74197 25.9387 1.74197 21.7382 1.74285 17.5352Z" fill="#D58935"/>
<path id="Vector_4" d="M23.1986 21.8157C22.1933 21.8152 21.2107 21.5166 20.375 20.9578C19.5394 20.3989 18.8882 19.6049 18.5037 18.676C18.1192 17.7471 18.0188 16.7251 18.215 15.7391C18.4113 14.7532 18.8954 13.8475 19.6063 13.1367C20.3171 12.4258 21.2228 11.9417 22.2087 11.7454C23.1947 11.5491 24.2167 11.6496 25.1456 12.0341C26.0745 12.4185 26.8685 13.0698 27.4274 13.9054C27.9862 14.7411 28.2848 15.7237 28.2853 16.729C28.2836 18.0775 27.7471 19.3703 26.7935 20.3239C25.8399 21.2775 24.5471 21.814 23.1986 21.8157ZM27.0196 14.8909C27.012 14.8042 26.9987 14.7181 26.9798 14.6332C26.9221 14.4037 26.8041 14.1938 26.638 14.0252C26.472 13.8565 26.2639 13.7354 26.0353 13.6741C25.8067 13.6129 25.5659 13.6139 25.3378 13.677C25.1097 13.7401 24.9026 13.8629 24.7379 14.0329C23.9091 14.8439 23.0897 15.6652 22.2795 16.4966C22.0777 16.7038 21.9834 16.6838 21.8333 16.4594C21.6609 16.2131 21.4742 15.9772 21.2741 15.7528C21.171 15.6013 21.0376 15.4728 20.8824 15.3754C20.7272 15.2779 20.5534 15.2137 20.3722 15.1867C20.1909 15.1596 20.006 15.1704 19.8291 15.2183C19.6522 15.2662 19.4871 15.3502 19.3443 15.4651C19.2014 15.5799 19.0839 15.723 18.999 15.8855C18.9142 16.0479 18.8639 16.2262 18.8513 16.409C18.8387 16.5919 18.8641 16.7753 18.9259 16.9479C18.9877 17.1204 19.0845 17.2783 19.2102 17.4116C19.7627 18.1253 20.3236 18.8336 20.893 19.5366C21.0047 19.6861 21.1474 19.8096 21.3113 19.8988C21.4752 19.988 21.6564 20.0407 21.8426 20.0533C22.0288 20.0659 22.2155 20.0382 22.3899 19.9719C22.5644 19.9057 22.7224 19.8025 22.8533 19.6695C24.1243 18.4197 25.3767 17.146 26.6384 15.8896C26.7682 15.759 26.8692 15.6027 26.9349 15.4306C27.0005 15.2586 27.0294 15.0747 27.0196 14.8909Z" fill="#63B3F3"/>
<path id="Vector_5" d="M13.2604 5.82375C11.9615 5.82375 10.6613 5.81579 9.36235 5.82375C9.08876 5.82375 9.01172 5.74274 9.02501 5.47844C9.0464 5.08029 9.0464 4.68128 9.02501 4.28313C9.01172 4.0175 9.07946 3.92985 9.35836 3.93649C10.1845 3.95508 11.0119 3.93649 11.8393 3.94446C12.1049 3.94446 12.3573 3.91391 12.5034 3.64297C12.6495 3.37204 12.5034 3.17016 12.3546 2.9643C12.0004 2.4667 11.6463 1.96732 11.2921 1.46618C11.2456 1.39844 11.1593 1.33336 11.2071 1.23774C11.2549 1.14211 11.3585 1.17797 11.4382 1.17797C12.6627 1.17797 13.8873 1.17797 15.1118 1.17797C15.1835 1.17797 15.2738 1.14875 15.319 1.22446C15.3641 1.30016 15.2871 1.38383 15.2406 1.45024C14.8767 1.96821 14.5128 2.48618 14.1423 3.00016C13.9935 3.20469 13.9059 3.41454 14.0294 3.65625C14.1529 3.89797 14.3787 3.9511 14.6284 3.9511C15.4877 3.9511 16.347 3.9511 17.2063 3.9511C17.4148 3.9511 17.4865 4.00688 17.4785 4.21672C17.4626 4.65633 17.4626 5.09727 17.4785 5.53688C17.4865 5.76133 17.4201 5.82907 17.1916 5.82774C15.8821 5.81844 14.5713 5.82375 13.2604 5.82375Z" fill="#8B99A5"/>
<path id="Vector_6" d="M24.7621 7.64861C24.7621 8.61548 24.7621 9.58236 24.7621 10.5492C24.7621 10.767 24.7143 10.8454 24.4965 10.7538C24.4361 10.7381 24.3742 10.7283 24.3119 10.7245C23.7182 10.6037 23.7182 10.6037 23.7182 9.97415V5.72415C23.7182 5.17431 23.5562 5.01228 23.0117 5.01095C21.6052 5.01095 20.1974 5.01095 18.7909 5.01095C18.5691 5.01095 18.4987 4.9565 18.5 4.72673C18.5 3.95642 18.5 3.95642 19.2703 3.95642H23.8152C24.5085 3.95642 24.7608 4.21275 24.7621 4.91134V7.64861Z" fill="#D58935"/>
<path id="Vector_7" d="M21.8477 27.0445L20.6523 28.2398C20.6523 27.9038 20.6523 27.5545 20.6523 27.2039C20.6523 27.071 20.7174 27.0431 20.8316 27.0445C21.1716 27.0458 21.509 27.0445 21.8477 27.0445Z" fill="#EDF2F5"/>
<path id="Vector_8" d="M16.1688 10.0525C14.9018 10.0525 13.6347 10.0525 12.3677 10.0525C12.1021 10.0525 11.879 9.97412 11.7873 9.69654C11.7634 9.63058 11.7538 9.56025 11.7593 9.49028C11.7648 9.42032 11.7853 9.35235 11.8192 9.29094C11.8532 9.22954 11.8999 9.17612 11.9563 9.13429C12.0126 9.09245 12.0773 9.06317 12.1459 9.04842C12.2611 9.02404 12.3789 9.01423 12.4965 9.0192C14.9456 9.0192 17.3942 9.0192 19.8424 9.0192C19.9702 9.01383 20.0981 9.0268 20.2222 9.05772C20.3318 9.09278 20.426 9.1642 20.4894 9.26014C20.5528 9.35608 20.5815 9.47079 20.5708 9.58528C20.5602 9.69978 20.5107 9.80719 20.4306 9.88974C20.3506 9.97228 20.2447 10.025 20.1306 10.0392C20.0128 10.0507 19.8943 10.0543 19.776 10.0498L16.1688 10.0525Z" fill="#030303"/>
<path id="Vector_9" d="M16.1668 24.023H19.8391C19.9464 24.017 20.054 24.021 20.1605 24.0349C20.2683 24.0485 20.368 24.0991 20.4426 24.1781C20.5172 24.2571 20.5621 24.3595 20.5696 24.4679C20.5895 24.5752 20.5725 24.6862 20.5214 24.7826C20.4703 24.8791 20.388 24.9554 20.288 24.9992C20.1578 25.0509 20.0171 25.0709 19.8776 25.0576H12.468C12.3928 25.0629 12.3174 25.0629 12.2422 25.0576C12.175 25.0534 12.1092 25.0359 12.0487 25.0063C11.9882 24.9766 11.9341 24.9353 11.8896 24.8847C11.8451 24.8341 11.811 24.7753 11.7892 24.7115C11.7674 24.6477 11.7585 24.5803 11.7628 24.5131C11.7645 24.4484 11.779 24.3847 11.8053 24.3257C11.8317 24.2666 11.8695 24.2134 11.9165 24.1689C11.9635 24.1245 12.0188 24.0898 12.0793 24.0668C12.1397 24.0438 12.2041 24.033 12.2688 24.0349C12.5902 24.023 12.9129 24.0349 13.2357 24.0349L16.1668 24.023Z" fill="#030303"/>
<path id="Vector_10" d="M14.847 12.2412C14.0306 12.2412 13.2138 12.2412 12.3966 12.2412C11.9875 12.2412 11.7591 12.0513 11.7617 11.7272C11.7644 11.4031 11.9981 11.2106 12.4059 11.2106C14.0483 11.2106 15.6921 11.2106 17.3372 11.2106C17.7356 11.2106 17.98 11.4217 17.9774 11.7418C17.9747 12.0619 17.7396 12.2465 17.3292 12.2478C16.5014 12.2452 15.674 12.243 14.847 12.2412Z" fill="#030303"/>
<path id="Vector_11" d="M14.8483 22.2407C14.0315 22.2407 13.2147 22.2407 12.3979 22.2407C11.9902 22.2407 11.7591 22.0494 11.7617 21.7254C11.7644 21.4013 11.9981 21.2101 12.4046 21.2087C14.0488 21.2087 15.6926 21.2087 17.3359 21.2087C17.7343 21.2087 17.98 21.4173 17.9774 21.7307C17.9747 22.0441 17.7383 22.238 17.3306 22.2394C16.5031 22.2433 15.6757 22.2407 14.8483 22.2407Z" fill="#030303"/>
<path id="Vector_12" d="M7.61079 27.1932C7.53564 27.1915 7.46163 27.1746 7.39317 27.1435C7.32471 27.1125 7.26321 27.068 7.21235 27.0126C6.84977 26.6607 6.48587 26.3114 6.12993 25.9501C5.87626 25.6938 5.8643 25.4029 6.09009 25.1811C6.31587 24.9593 6.59344 24.9819 6.84048 25.2064C7.04634 25.395 7.25219 25.5849 7.43946 25.7907C7.57227 25.9368 7.64665 25.905 7.76751 25.7801C8.24563 25.2861 8.73173 24.8 9.21782 24.3192C9.50469 24.0323 9.80751 23.9978 10.0359 24.2182C10.2644 24.4387 10.2418 24.7495 9.95891 25.0364C9.32673 25.6805 8.68923 26.3193 8.05571 26.9608C8.00088 27.0274 7.93325 27.0822 7.85682 27.1222C7.78039 27.1621 7.69673 27.1863 7.61079 27.1932Z" fill="#030303"/>
<path id="Vector_13" d="M10.1882 14.6053C10.1874 14.6817 10.1699 14.7569 10.1369 14.8258C10.1038 14.8946 10.0561 14.9554 9.99699 15.0037C9.33293 15.6678 8.6848 16.3319 8.02207 16.9959C7.74316 17.2735 7.49082 17.2788 7.20527 17.0132C6.83738 16.6679 6.47746 16.3133 6.12285 15.9507C5.8798 15.705 5.86918 15.4274 6.07371 15.2056C6.27824 14.9838 6.59035 14.9865 6.84668 15.2216C7.05254 15.4101 7.25574 15.6027 7.44566 15.8073C7.56386 15.9401 7.63426 15.9255 7.75246 15.8073C8.25183 15.2893 8.76449 14.7846 9.26918 14.2706C9.34268 14.1838 9.44209 14.123 9.55278 14.0969C9.66347 14.0708 9.7796 14.081 9.8841 14.1259C9.979 14.1633 10.0596 14.2299 10.1142 14.3161C10.1689 14.4022 10.1948 14.5035 10.1882 14.6053Z" fill="#030303"/>
<path id="Vector_14" d="M6.40907 20.036C6.49104 20.0345 6.57243 20.05 6.6481 20.0815C6.72377 20.1131 6.79207 20.16 6.84868 20.2193C7.03196 20.3999 7.22852 20.5699 7.39719 20.7625C7.54196 20.9272 7.6336 20.9391 7.79563 20.7625C8.25782 20.2697 8.73993 19.7956 9.21672 19.3175C9.51289 19.0213 9.79446 18.9868 10.0309 19.2072C10.2673 19.4277 10.2394 19.7491 9.94454 20.0466C9.32474 20.6735 8.70495 21.2986 8.08516 21.9219C7.72789 22.2805 7.49282 22.2805 7.12891 21.9286C6.765 21.5766 6.43297 21.2645 6.09297 20.9165C6.01114 20.8448 5.95617 20.7473 5.9371 20.6401C5.91803 20.5329 5.936 20.4225 5.98805 20.3269C6.02616 20.2454 6.08522 20.1756 6.1592 20.1245C6.23318 20.0734 6.31941 20.0428 6.40907 20.036Z" fill="#030303"/>
<path id="Vector_15" d="M7.58592 12.1854C7.44734 12.1815 7.31598 12.1228 7.22069 12.0221C6.85944 11.6701 6.4942 11.3221 6.13826 10.9596C5.88061 10.7019 5.86334 10.4164 6.07717 10.1906C6.291 9.9648 6.59381 9.97277 6.87404 10.2331C7.05997 10.3974 7.23729 10.5711 7.40529 10.7537C7.55006 10.9197 7.64303 10.9277 7.80373 10.7537C8.26592 10.261 8.74936 9.78816 9.22615 9.31004C9.52365 9.01254 9.80256 8.978 10.0403 9.1998C10.278 9.4216 10.2462 9.74168 9.95264 10.0392C9.32709 10.674 8.69889 11.3049 8.07334 11.9384C8.01685 12.0146 7.94339 12.0766 7.85879 12.1194C7.77419 12.1623 7.68076 12.1849 7.58592 12.1854Z" fill="#030303"/>
<path id="Vector_16" d="M14.2347 26.2171C14.847 26.2171 15.4592 26.2171 16.0715 26.2171C16.454 26.2171 16.6851 26.4137 16.6878 26.7231C16.6904 27.0326 16.4487 27.2451 16.0795 27.2464C14.8399 27.2517 13.6043 27.2517 12.3727 27.2464C11.9915 27.2464 11.7644 27.0459 11.7617 26.7311C11.7591 26.4163 11.9835 26.2198 12.366 26.2171C12.9889 26.2145 13.6118 26.2171 14.2347 26.2171Z" fill="#030303"/>
<path id="Vector_17" d="M27.0191 14.8908C27.0274 15.0729 26.9978 15.2548 26.9322 15.4249C26.8666 15.595 26.7664 15.7496 26.6379 15.879C25.3789 17.142 24.1238 18.409 22.8528 19.6588C22.7219 19.7918 22.5638 19.895 22.3894 19.9612C22.215 20.0275 22.0283 20.0553 21.8421 20.0427C21.6559 20.03 21.4747 19.9773 21.3108 19.8882C21.1469 19.799 21.0042 19.6754 20.8924 19.526C20.324 18.8256 19.7631 18.1173 19.2097 17.401C19.0839 17.2677 18.9871 17.1098 18.9254 16.9372C18.8636 16.7647 18.8382 16.5812 18.8508 16.3984C18.8634 16.2155 18.9137 16.0373 18.9985 15.8748C19.0834 15.7123 19.2009 15.5692 19.3438 15.4544C19.4866 15.3396 19.6517 15.2556 19.8286 15.2077C20.0055 15.1597 20.1904 15.149 20.3717 15.176C20.5529 15.203 20.7266 15.2673 20.8819 15.3647C21.0371 15.4622 21.1705 15.5907 21.2736 15.7422C21.4737 15.9665 21.6604 16.2025 21.8328 16.4487C21.9828 16.6732 22.0771 16.6931 22.279 16.4859C23.0865 15.6527 23.906 14.8315 24.7374 14.0222C24.902 13.8523 25.1091 13.7294 25.3372 13.6663C25.5653 13.6033 25.8061 13.6023 26.0347 13.6635C26.2633 13.7247 26.4714 13.8459 26.6375 14.0145C26.8036 14.1831 26.9215 14.393 26.9792 14.6225C26.9987 14.711 27.012 14.8006 27.0191 14.8908ZM20.235 16.288C20.1812 16.2864 20.1281 16.3007 20.0823 16.329C20.0365 16.3573 20 16.3985 19.9774 16.4474C19.8977 16.5988 19.9774 16.713 20.061 16.8286C20.5684 17.4678 21.0762 18.1062 21.5844 18.7437C21.8607 19.0917 21.9629 19.0997 22.2737 18.7889C23.3362 17.7264 24.3987 16.6639 25.4612 15.6014C25.6126 15.4486 25.768 15.3012 25.9101 15.1405C25.9352 15.1158 25.9551 15.0863 25.9687 15.0538C25.9823 15.0214 25.9893 14.9865 25.9893 14.9513C25.9893 14.916 25.9823 14.8812 25.9687 14.8487C25.9551 14.8162 25.9352 14.7867 25.9101 14.762C25.8863 14.7333 25.8568 14.7097 25.8236 14.6927C25.7904 14.6756 25.7541 14.6655 25.7168 14.6629C25.6796 14.6603 25.6422 14.6652 25.607 14.6775C25.5717 14.6897 25.5393 14.709 25.5117 14.7341C25.4462 14.7892 25.3841 14.8482 25.3257 14.9108C24.3757 15.859 23.4239 16.81 22.4703 17.7636C22.113 18.1208 21.8221 18.1009 21.506 17.7065C21.1899 17.312 20.8646 16.9003 20.5432 16.4965C20.4635 16.3903 20.3878 16.2787 20.235 16.288Z" fill="#030303"/>
<path id="Vector_18" d="M20.2357 16.2893C20.3884 16.2787 20.4641 16.3903 20.5438 16.4899C20.8652 16.8883 21.184 17.2974 21.5067 17.6998C21.8294 18.1022 22.1137 18.1142 22.4709 17.7569C23.4245 16.8086 24.3741 15.859 25.3197 14.9081C25.3781 14.8455 25.4402 14.7865 25.5057 14.7314C25.5333 14.7063 25.5657 14.6871 25.601 14.6748C25.6362 14.6626 25.6736 14.6576 25.7109 14.6602C25.7481 14.6628 25.7844 14.673 25.8176 14.69C25.8509 14.707 25.8803 14.7306 25.9041 14.7593C25.9292 14.7841 25.9491 14.8135 25.9628 14.846C25.9764 14.8785 25.9834 14.9134 25.9834 14.9486C25.9834 14.9838 25.9764 15.0187 25.9628 15.0512C25.9491 15.0837 25.9292 15.1131 25.9041 15.1379C25.762 15.2986 25.6066 15.446 25.4552 15.5987C24.3927 16.6612 23.3302 17.7237 22.2677 18.7862C21.9569 19.097 21.8547 19.089 21.5784 18.7411C21.0693 18.1036 20.5615 17.4652 20.0551 16.8259C19.9661 16.713 19.8917 16.5961 19.9714 16.4447C19.994 16.3947 20.0315 16.3529 20.0789 16.3251C20.1262 16.2972 20.181 16.2847 20.2357 16.2893Z" fill="#EDF2F5"/>
</g>
</svg>
