<?xml version="1.0" encoding="UTF-8"?>
<!DOCTYPE svg PUBLIC "-//W3C//DTD SVG 1.1//EN" "http://www.w3.org/Graphics/SVG/1.1/DTD/svg11.dtd">
<!-- Creator: CorelDRAW 2020 (64-Bit) -->
<svg xmlns="http://www.w3.org/2000/svg" xml:space="preserve" width="202.813mm" height="202.812mm" version="1.1" style="shape-rendering:geometricPrecision; text-rendering:geometricPrecision; image-rendering:optimizeQuality; fill-rule:evenodd; clip-rule:evenodd"
viewBox="0 0 154.81 154.81"
 xmlns:xlink="http://www.w3.org/1999/xlink"
 xmlns:xodm="http://www.corel.com/coreldraw/odm/2003">
 <defs>
  <style type="text/css">
   <![CDATA[
    .fil3 {fill:black}
    .fil0 {fill:#0282FB}
    .fil1 {fill:#22A5FC}
    .fil4 {fill:#B7B8C2}
    .fil2 {fill:#D4D5DB}
   ]]>
  </style>
 </defs>
 <g id="Capa_x0020_1">
  <metadata id="CorelCorpID_0Corel-Layer"/>
  <g id="_2410074619088">
   <circle class="fil0" cx="77.4" cy="77.4" r="77.4"/>
   <circle class="fil1" cx="77.4" cy="77.4" r="72.08"/>
   <g>
    <path class="fil2" d="M83.48 81.04l-0.07 4.88c1.79,0.23 1.84,1.16 1.84,2.87 -0.01,5.99 0.32,30.19 -0.22,32.27 -1.37,5.24 -8.3,6.34 -11.2,1.85 -1.8,-2.77 -1.03,-13.38 -1.03,-17.58 0,-2.78 -0.21,-35.41 0.1,-37.24 0.94,-5.54 7.88,-6.86 11.2,-2.58 1.57,2.02 1.16,5.4 1.16,8.23 0,4.12 0.7,6.83 -1.76,7.3zm22.41 19.38l-0.23 4.89c1.67,0.48 1.6,1.44 1.44,3.29 -0.26,2.95 -0.69,11.56 -1.36,13.24 -2.02,5.04 -9.42,5.17 -11.56,-0.08 -0.95,-2.33 0.56,-14.8 0.82,-18.16 0.48,-6.03 0.95,-12.02 1.43,-18.07 0.23,-2.81 1.12,-16.47 1.56,-18.1 1.52,-5.56 9.12,-6.11 11.61,-0.95 1.23,2.55 -0.3,14.2 -0.59,17.84l-1.06 13.5c-0.12,1.65 -0.28,2.51 -2.06,2.6zm-53.12 11.41c0.5,-1.44 -0.03,-3.48 -0.12,-5.06 -2.58,-0.18 -2.09,-3.11 -2.43,-7.34l-2.14 -27.03c-0.28,-3.44 -0.34,-6.14 1.76,-7.91 2.91,-2.45 9.89,-2.92 10.55,5.59l3.58 45.21c0.26,3.34 0.94,5.94 -1.24,8.27 -1.56,1.66 -3.97,2.97 -7.03,1.71 -4.26,-1.75 -3.88,-5.93 -4.25,-10.33 -0.17,-2.02 -0.16,-2.4 1.33,-3.1zm1.99 23.25c3.25,0.48 29.83,0.15 35.43,0.15 4.94,0 12.5,0.65 16.64,-1.11 3.73,-1.59 6.94,-5.31 7.53,-10.45 1.23,-10.77 1.77,-22.26 2.63,-33.13 0.38,-4.82 2.79,-31.04 2.5,-33.47l-0.14 -0.71 -62.7 0c-7.48,0 -14.3,-1.95 -13.53,7.09 1.09,12.83 2.05,25.69 3.05,38.5 0.51,6.49 1.02,12.94 1.54,19.43 0.26,3.32 0.56,5.75 2.07,8.32 2.2,3.74 3.93,4.1 4.98,5.37z"/>
    <path class="fil3" d="M119.5 57.06c0.3,2.43 -2.11,28.65 -2.5,33.47 -0.86,10.87 -1.4,22.37 -2.63,33.13 -0.59,5.14 -3.8,8.86 -7.53,10.45 -4.14,1.76 -11.7,1.11 -16.64,1.11 -5.6,0 -32.18,0.33 -35.43,-0.15 -3.64,-0.39 -6.66,-2.56 -8.14,-4.4 -2.23,-2.76 -2.79,-4.71 -3.13,-9.07l-3.6 -45.44c-0.59,-7.39 -1.56,-15.5 -1.71,-22.84l81.73 0c-0.03,1.01 0.08,3.07 -0.42,3.73zm-46.33 -42.63l1.26 0c1.27,0.04 2.05,0.31 2.16,1.7 -0.54,4.23 -5.2,-0.61 -12.83,5.15 -0.73,0.55 -1.25,1.21 -1.86,1.78 -0.82,0.78 -2.6,3.16 -2.68,4.57 -0.45,0.41 -0.53,0.72 -0.74,1.5 -0.18,0.65 -0.28,1.04 -0.25,1.72l4.7 0 1.34 -3.04c3.62,-5.07 6.64,-4.87 14.52,-4.87 2.95,0 6.44,-0.34 9.11,0.61 2.86,1.01 3.93,2.43 5.37,4.29l1.35 3.02 4.71 -0.01c0,-1.01 -0.32,-2.57 -0.99,-3.13 -0.1,-2.58 -3.82,-6.19 -6.46,-7.67 -1.57,-0.88 -3.18,-1.53 -5.25,-1.82 -2.53,-0.35 -4.82,0.62 -5.16,-2.1 0.1,-1.4 0.9,-1.66 2.14,-1.7l1.57 0c4.15,0.08 7.49,1.43 10.69,3.82 3.5,2.6 7.22,8.2 7.22,12.47 9.01,0 16.45,-0.94 22.79,5.89 2.32,2.5 4.22,6.24 4.64,9.7 0.8,6.66 -1.58,7.01 -6.77,7.01 -0.41,4.9 -0.97,10.03 -1.22,15.06l-0.66 7.61c-0.14,1.05 -0.29,2.92 -0.31,3.82 -0.12,4.87 -1,10.67 -1.21,15.07l-1.18 15.1c-0.12,1.14 -0.26,2.65 -0.28,3.61 -0.09,3.35 -0.72,11.9 -1.73,14.55 -2.21,5.8 -7.77,10.26 -13.83,10.71l-48.81 -0.02c-6.06,-0.64 -11.47,-4.93 -13.61,-10.7 -0.83,-2.24 -0.93,-4.42 -1.21,-7.05 -0.39,-3.68 -0.38,-7.86 -0.83,-11.32 -0.65,-4.91 -0.69,-10.43 -1.19,-15.1l-0.94 -11.22c-0.06,-4.43 -1.11,-10.93 -1.22,-15.07 -0.11,-4.15 -0.85,-10.7 -1.21,-15.07 -2.94,0 -4.41,0.24 -5.9,-1.39 -2.93,-3.2 0.45,-11.59 3.66,-15.2 6.05,-6.82 13.62,-6.02 22.42,-6.02 0,-2.65 1.6,-5.93 2.67,-7.54 3.86,-5.81 8.98,-8.61 16.03,-8.75zm40.69 20.28c5,-0.32 10.43,4.48 12.14,9.05 0.57,1.53 1.49,4.3 0.74,5.76 -0.49,0.42 -87.43,0.19 -90.19,0.15 -1.61,0.03 -3.87,0.3 -5.25,-0.15 -1.47,-2.91 2.1,-11.95 10.08,-14.42 4.13,-1.28 18.48,-0.67 23.79,-0.67 5.02,0 47.85,-0.43 48.69,0.27zm-40.43 -8.13c4.15,0 11.69,-0.62 14.49,1.07 1.13,0.68 2.2,1.7 2.52,3.07l-23.33 0c0.53,-2.29 3.46,-4.13 6.32,-4.13z"/>
    <path class="fil2" d="M36.54 49.68c2.76,0.04 89.7,0.27 90.19,-0.15 0.74,-1.46 -0.17,-4.23 -0.74,-5.76 -1.71,-4.57 -7.14,-9.37 -12.14,-9.05 -1.74,0.46 -67.37,-0.34 -69.14,0.16 -0.92,0.26 -2.67,1.86 -3.29,2.48 -3.15,3.11 -5.17,7.44 -4.88,12.32z"/>
    <path class="fil4" d="M54.76 135.07c-1.05,-1.27 -2.78,-1.63 -4.98,-5.37 -1.51,-2.57 -1.81,-5.01 -2.07,-8.32 -0.52,-6.49 -1.03,-12.95 -1.54,-19.43 -1,-12.81 -1.97,-25.67 -3.05,-38.5 -0.77,-9.04 6.05,-7.09 13.53,-7.09l62.7 0 0.14 0.71c0.5,-0.66 0.39,-2.71 0.42,-3.73l-81.73 0c0.15,7.34 1.12,15.44 1.71,22.84l3.6 45.44c0.34,4.36 0.9,6.31 3.13,9.07 1.48,1.83 4.5,4.01 8.14,4.4z"/>
    <path class="fil3" d="M105.66 105.3c-2.75,0.16 -2.18,2.86 -2.4,5.57 -0.18,2.27 -0.33,9.29 -1.46,10.43 -0.6,0.6 -1.8,1.02 -2.86,0.56 -2.18,-0.96 -1.42,-3.99 -1.24,-6.33l3.51 -44.22c0.18,-2.33 0.25,-4.98 3.01,-4.75 2.74,0.23 2.31,3.03 2.11,5.56 -0.39,4.88 -0.77,9.74 -1.16,14.62 -0.2,2.49 -0.39,4.94 -0.59,7.41 -0.3,3.81 -1.05,5.55 1.3,6.27 1.78,-0.09 1.94,-0.95 2.06,-2.6l1.06 -13.5c0.29,-3.64 1.83,-15.28 0.59,-17.84 -2.5,-5.16 -10.09,-4.6 -11.61,0.95 -0.45,1.63 -1.34,15.29 -1.56,18.1 -0.48,6.05 -0.96,12.03 -1.43,18.07 -0.26,3.36 -1.77,15.83 -0.82,18.16 2.14,5.25 9.55,5.12 11.56,0.08 0.67,-1.68 1.1,-10.29 1.36,-13.24 0.16,-1.85 0.23,-2.82 -1.44,-3.29z"/>
    <path class="fil3" d="M83.41 85.92c-2.51,0.4 -1.81,2.93 -1.81,5.55l0 22.6c0,1.81 0.38,5.67 -0.51,6.92 -1.24,1.75 -3.95,1.28 -4.54,-0.8 -0.27,-0.98 -0.26,-51.05 0.07,-52.02 0.73,-2.15 3.91,-2.16 4.72,-0.17 0.6,1.47 0.12,8.42 0.25,10.84 0.09,1.58 0.49,1.95 1.88,2.18 2.46,-0.47 1.76,-3.18 1.76,-7.3 0,-2.83 0.41,-6.21 -1.16,-8.23 -3.32,-4.28 -10.26,-2.96 -11.2,2.58 -0.31,1.83 -0.1,34.46 -0.1,37.24 0,4.21 -0.76,14.81 1.03,17.58 2.91,4.49 9.83,3.39 11.2,-1.85 0.55,-2.08 0.21,-26.28 0.22,-32.27 0,-1.71 -0.05,-2.64 -1.84,-2.87z"/>
    <path class="fil3" d="M52.65 106.76c1.45,-0.4 1.7,-0.89 1.6,-2.65l-2.64 -33.1c-0.2,-2.36 0.11,-5.02 2.96,-4.41 2.38,0.5 2.14,3.27 2.33,5.68l3.51 44.18c0.19,2.32 0.76,5.16 -1.88,5.57 -3.94,0.61 -3.07,-4.76 -3.52,-8.22 -0.2,-1.55 -0.63,-1.88 -2.24,-1.99 -1.49,0.7 -1.5,1.08 -1.33,3.1 0.37,4.39 -0.01,8.57 4.25,10.33 3.06,1.26 5.48,-0.05 7.03,-1.71 2.18,-2.33 1.49,-4.93 1.24,-8.27l-3.58 -45.21c-0.66,-8.51 -7.64,-8.04 -10.55,-5.59 -2.1,1.77 -2.04,4.47 -1.76,7.91l2.14 27.03c0.34,4.23 -0.15,7.16 2.43,7.34z"/>
    <path class="fil4" d="M83.41 85.92l0.07 -4.88c-1.39,-0.24 -1.8,-0.6 -1.88,-2.18 -0.13,-2.43 0.35,-9.38 -0.25,-10.84 -0.81,-1.99 -3.99,-1.97 -4.72,0.17 -0.33,0.97 -0.35,51.04 -0.07,52.02 0.58,2.08 3.29,2.54 4.54,0.8 0.89,-1.25 0.51,-5.12 0.51,-6.92l0 -22.6c0,-2.62 -0.7,-5.16 1.81,-5.55z"/>
    <path class="fil4" d="M52.65 106.76c0.09,1.58 0.63,3.63 0.12,5.06 1.61,0.1 2.04,0.44 2.24,1.99 0.45,3.46 -0.42,8.83 3.52,8.22 2.64,-0.41 2.06,-3.25 1.88,-5.57l-3.51 -44.18c-0.19,-2.41 0.05,-5.17 -2.33,-5.68 -2.86,-0.61 -3.16,2.06 -2.96,4.41l2.64 33.1c0.09,1.76 -0.15,2.25 -1.6,2.65z"/>
    <path class="fil4" d="M105.66 105.3l0.23 -4.89c-2.35,-0.72 -1.61,-2.46 -1.3,-6.27 0.2,-2.47 0.39,-4.91 0.59,-7.41 0.39,-4.88 0.76,-9.74 1.16,-14.62 0.2,-2.53 0.63,-5.34 -2.11,-5.56 -2.76,-0.23 -2.83,2.42 -3.01,4.75l-3.51 44.22c-0.18,2.34 -0.94,5.37 1.24,6.33 1.05,0.47 2.25,0.05 2.86,-0.56 1.14,-1.14 1.28,-8.16 1.46,-10.43 0.21,-2.7 -0.35,-5.41 2.4,-5.57z"/>
    <path class="fil2" d="M59.21 27.64c0.85,0.5 3.88,0.18 5.05,0.17 3.62,-5.07 6.64,-4.87 14.52,-4.87 2.95,0 6.44,-0.34 9.11,0.61 2.86,1.01 3.93,2.43 5.37,4.29l5.06 -0.12c-0.1,-2.58 -3.82,-6.19 -6.46,-7.67 -1.57,-0.88 -3.18,-1.53 -5.25,-1.82 -2.53,-0.35 -4.82,0.62 -5.16,-2.1l-4.87 0c-0.54,4.23 -5.2,-0.61 -12.83,5.15 -0.73,0.55 -1.25,1.21 -1.86,1.78 -0.82,0.78 -2.6,3.16 -2.68,4.57z"/>
    <path class="fil4" d="M36.54 49.68c-0.29,-4.89 1.73,-9.21 4.88,-12.32 0.62,-0.61 2.37,-2.22 3.29,-2.48 1.78,-0.5 67.4,0.3 69.14,-0.16 -0.84,-0.7 -43.68,-0.27 -48.69,-0.27 -5.31,0 -19.66,-0.61 -23.79,0.67 -7.99,2.47 -11.55,11.51 -10.08,14.42 1.37,0.44 3.64,0.18 5.25,0.15z"/>
    <path class="fil4" d="M93.25 27.83l1.35 3.02 4.71 -0.01c0,-1.01 -0.32,-2.57 -0.99,-3.13l-5.06 0.12z"/>
    <path class="fil4" d="M64.26 27.81c-1.17,0.02 -4.2,0.33 -5.05,-0.17 -0.45,0.41 -0.53,0.72 -0.74,1.5 -0.18,0.65 -0.28,1.04 -0.25,1.72l4.7 0 1.34 -3.04z"/>
   </g>
  </g>
 </g>
</svg>
