<svg xmlns="http://www.w3.org/2000/svg" viewBox="0 0 256 256"><defs><style>.cls-1,.cls-10,.cls-11,.cls-2,.cls-3,.cls-4,.cls-5,.cls-6,.cls-7,.cls-8,.cls-9{fill-rule:evenodd;}.cls-2{fill:#ff0;}.cls-3{fill:#fefefe;}.cls-4{fill:#18ce0f;}.cls-5{fill:#c7c700;}.cls-6{fill:#f1f1f1;}.cls-7{fill:#fff;}.cls-8{fill:#e7e7e7;}.cls-9{fill:#ccc;}.cls-10{fill:#b2b2b2;}.cls-11{fill:#989898;}</style></defs><g id="GarantiasConfig"><path class="cls-1" d="M79.62,12.23c-4.58,0-9.39-3.53-17.3,2A15.18,15.18,0,0,0,59.24,17c-6.89,8.93-1.33,4.72-10.67,7.51A17,17,0,0,0,36.48,36.75c-1.06,3.69-.35,5.87-4,8-13.22,7.58-8.12,19.48-8.12,23.16,0,4.07-5.45,4-5.45,16,0,6.79,5.45,9.31,5.45,13.82,0,3.69-3.95,9.59,2.79,17.94,2.43,3,6.69,4.83,7.63,6.2,1.29,1.88,1.5,6.79,3.39,10.43a16.66,16.66,0,0,0,7.29,6.9c-2,2.92-5.17,5.28-7.43,8.21L17.32,170c-2,2.13-1.94,5.55,1.56,5.55a23,23,0,0,0,4.94-.88c5.94-1.16,30.22-7.12,34.34-7.12.12,1.37,1.45,3.87,2,5.25.81,1.94,1.57,3.61,2.29,5.35,1.94,4.7,3.92,13.4,9.76,6.39a22.92,22.92,0,0,1,1.47-1.81c.61-.63,1.06-1,1.64-1.63s.72-1,1.45-1.82L81.72,174c3.22-3.47,6.06-7.23,9.45-10.55,1.36-1.33,1.9-2.57,3.37-3.55,1.63,1.1,17.86,19.6,19,21,8.23,9.84,8.55,7.89,13.09-2.7.83-1.92,1.48-3.41,2.29-5.35s1.46-3.64,2.34-5.3c3.25.07,28.89,6,33.69,7.05,3.56.82,8.14,2.65,8.14-2.68,0-.76-6-7.29-7-8.29l-3.64-4c-2.27-2.45-5.68-5.62-7.56-8.08-2.17-2.86-9.53-9.77-11.27-12.37a17.41,17.41,0,0,0,9.1-11.63c1.6-6.76.18-4.56,5.66-8.53a15.19,15.19,0,0,0,3.74-3.53c7.89-10.63-.27-16.21,4-21.84,4.73-6.23,5.71-14.55,1-21.25-.5-.7-.67-.71-1.15-1.4-1.6-2.3-1.2-4.43-.6-6.85,2-8.08-2.23-15.58-9-19.52-5.12-3-1.72-9.26-8.24-15.77-6.35-6.35-12.82-3.26-15.73-8.28-7.89-13.63-18.87-8.36-23.29-8.36A6.63,6.63,0,0,1,106,11c-.62-.43-.66-.59-1.19-1A17.88,17.88,0,0,0,85.87,9c-2,1.2-3.69,3.21-6.25,3.21m13.71.51c6.54-.74,8.28,3.46,12.87,4.93,5.83,1.86,9-2.23,15.31.33,5.24,2.13,5.39,6.88,8.9,9.29,4.58,3.14,8.67,1.71,12.73,5.09,5.19,4.33,2.64,7.29,5.53,12.66,2.43,4.52,6.6,4.74,9.25,8.57,4.27,6.16.42,9.15,1,15s4.72,6.6,5.38,12.43c.79,7-3.45,8.24-5,13.06-1.88,5.86,2.26,8.94-.34,15.31-2.16,5.28-6.9,5.41-9.28,8.89-3.12,4.58-1.72,8.67-5.1,12.73-4.35,5.24-7.26,2.65-12.65,5.54-4.54,2.44-4.74,6.59-8.57,9.25-6.12,4.26-9.17.43-15,1-5.6.54-6.89,4.73-12.54,5.32-6.83.71-8.16-3.41-12.94-4.94-5.89-1.87-8.95,2.28-15.31-.33-5.28-2.16-5.4-6.89-8.89-9.28-4.43-3-9.17-1.89-12.76-5.07-5.05-4.48-2.58-7.21-5.52-12.68-2.44-4.54-6.6-4.75-9.25-8.57-4.28-6.17-.42-9.14-1-15s-4.71-6.61-5.37-12.43c-.79-6.92,3.44-8.27,5-13.07,1.88-5.87-2.26-8.94.33-15.31,2.14-5.26,6.87-5.38,9.28-8.89,3.13-4.56,1.74-8.71,5.1-12.72,4.28-5.1,7.25-2.63,12.67-5.53,4.54-2.44,4.72-6.59,8.56-9.26,6.15-4.27,9.14-.42,15-1S87.26,13.43,93.33,12.74Zm-65.92,155C31.26,163.67,49.32,143.33,52,141c4.24.56,4.91,3.9,7.1,6.71,3,3.81,9.22,6.29,14.64,5.81,5.66-.51,5.29-2.75,10.66,1.25a26.25,26.25,0,0,0,3.52,1.95c.81.53.32.1.87.76L69.48,178.83c-1.28-1.12-4.29-9.24-5.25-11.52-2.67-6.36-2-7-9.46-5.33ZM100.32,157a15.26,15.26,0,0,0,4.6-2.35c7.07-5.09,7.1,1.12,16.83-1.72a17.2,17.2,0,0,0,8.35-5.47c2.08-2.77,2.89-6,7-6.44,2.79,2.54,9.88,10.58,12.39,13.42,1.12,1.27,2.08,2.05,3.17,3.37l6.3,6.79c1.09,1,1.76,2.17,2.7,3.14-3.64-.28-9.69-2-13.58-2.83-22-4.55-19.66-6.14-23.24,2.38-1.62,3.84-3.47,7.68-4.86,11.53-1.25-.76-3.92-4.21-5.07-5.45s-1.55-1.49-2.46-2.64l-7.37-8.27C103.77,161.06,101.11,158.49,100.32,157Z"/><path class="cls-2" d="M93.33,12.74c-6.07.69-6.75,4.74-12.62,5.32s-8.85-3.27-15,1c-3.84,2.67-4,6.82-8.56,9.26-5.42,2.9-8.39.43-12.67,5.53-3.36,4-2,8.16-5.1,12.72C37,50.08,32.24,50.2,30.1,55.46c-2.59,6.37,1.55,9.44-.33,15.31-1.54,4.8-5.77,6.15-5,13.07.66,5.82,4.79,6.49,5.37,12.43s-3.29,8.83,1,15c2.65,3.82,6.81,4,9.25,8.57,2.94,5.47.47,8.2,5.52,12.68,3.59,3.18,8.33,2,12.76,5.07,3.49,2.39,3.61,7.12,8.89,9.28,6.36,2.61,9.42-1.54,15.31.33,4.78,1.53,6.11,5.65,12.94,4.94,5.65-.59,6.94-4.78,12.54-5.32,5.84-.57,8.89,3.26,15-1,3.83-2.66,4-6.81,8.57-9.25,5.39-2.89,8.3-.3,12.65-5.54,3.38-4.06,2-8.15,5.1-12.73,2.38-3.48,7.12-3.61,9.28-8.89,2.6-6.37-1.54-9.45.34-15.31,1.53-4.82,5.77-6.1,5-13.06-.66-5.83-4.79-6.5-5.38-12.43s3.28-8.84-1-15c-2.65-3.83-6.82-4-9.25-8.57-2.89-5.37-.34-8.33-5.53-12.66-4.06-3.38-8.15-2-12.73-5.09-3.51-2.41-3.66-7.16-8.9-9.29-6.3-2.56-9.48,1.53-15.31-.33-4.59-1.47-6.33-5.67-12.87-4.93m-4.1,11.77c23.16-2.28,46.43,10.79,56.41,30.12,19.81,38.37-4.58,81.8-45.58,85.74C66.3,143.61,39.46,118.08,36.62,88,33.39,53.84,58.84,27.5,89.23,24.51Z"/><path class="cls-3" d="M116.73,129.7l5.07-4c4.46-3.52,9-9.43,12.07-14.88,9.67-17.07,9.69-39.72,0-56.78C131,49,126.14,42.5,122,39.32c-1.56-1.21-3.61-2.61-5.29-4.15s-9.17-3.53-11.91-4.08a51.5,51.5,0,0,0-15.38-.77c-48.19,4.79-65.08,67.34-24.38,95.42a52.44,52.44,0,0,0,39.45,8.11c2.86-.56,10.55-2.62,12.22-4.15M135,65a81.84,81.84,0,0,1-36.36,62c-3.08,2-4,2.8-7.38.56s-10-7.05-12.26-9.57L69,106.18A81.46,81.46,0,0,1,55.61,75.91c-4.9-24.06-.42-18.65,8.76-20.39A39.47,39.47,0,0,0,85.75,44.19c6.32-6.26,7.5-10.94,11.68-6.48,1.75,1.87,3.09,4,5.14,5.78s2.11,2.57,5.79,5.11C129.27,63,136.4,48.23,135,65Z"/><path class="cls-4" d="M59.88,62C59,65.63,62,78.25,63.16,81.81c5.23,16.11,17.09,32.68,31.38,40.74,4.46-2.33,10.2-7.5,13.16-10.58A75.33,75.33,0,0,0,129,67.4l.35-3.92c0-.72.06.06-.07-.61-.44-2.14-5-1-11.08-3a45.75,45.75,0,0,1-9.37-4.09,50.15,50.15,0,0,1-7.58-5.51,24.73,24.73,0,0,1-3.37-3.18,26.88,26.88,0,0,0-3.34-3.63,26.07,26.07,0,0,0-3.17,3.44c-2.4,2.87-7.79,6.89-11.13,8.87C74.33,59.3,67.85,61,59.88,62M85.81,84c1.6-.93,14.32-14,17.45-17.18,1.15-1.16,4.16-5.07,6.42-4.6,1.36.28,5.1,4.44,6.16,5.49,3.25,3.21,2.14,4.11-.55,6.78L92.37,97.37c-6.78,6.79-5.61,7.51-12.58.54-7.33-7.33-10.67-8.68-6.73-12.58,1-1,4.94-5.25,6.06-5.61C81.8,78.87,84,82.91,85.81,84Z"/><path class="cls-1" d="M89.23,24.51C58.84,27.5,33.39,53.84,36.62,88c2.84,30.1,29.68,55.63,63.44,52.39,41-3.94,65.39-47.37,45.58-85.74-10-19.33-33.25-32.4-56.41-30.12m27.5,105.19c-1.67,1.53-9.36,3.59-12.22,4.15a52.44,52.44,0,0,1-39.45-8.11C24.36,97.66,41.25,35.11,89.44,30.32a51.5,51.5,0,0,1,15.38.77c2.74.55,10.37,2.61,11.91,4.08,7.43,2.31,16.69,11.39,21.11,17.79,12,17.38,12.07,41.58,0,59C133.41,118.3,124.17,127.41,116.73,129.7Z"/><path class="cls-1" d="M135,65c1.36-16.75-5.77-1.94-26.68-16.38-3.68-2.54-3.72-3.33-5.79-5.11s-3.39-3.91-5.14-5.78c-4.18-4.46-5.36.22-11.68,6.48A39.47,39.47,0,0,1,64.37,55.52c-9.18,1.74-13.66-3.67-8.76,20.39A81.46,81.46,0,0,0,69,106.18L79,117.94c2.31,2.52,9,7.38,12.26,9.57s4.3,1.47,7.38-.56A81.84,81.84,0,0,0,135,65M59.88,62c8-.95,14.45-2.67,20.36-6.2,3.34-2,8.73-6,11.13-8.87a26.07,26.07,0,0,1,3.17-3.44,26.88,26.88,0,0,1,3.34,3.63,24.73,24.73,0,0,0,3.37,3.18,50.15,50.15,0,0,0,7.58,5.51,45.75,45.75,0,0,0,9.37,4.09c6.09,2,10.64.86,11.08,3,.13.67,0-.11.07.61L129,67.4A75.33,75.33,0,0,1,107.7,112c-3,3.08-8.7,8.25-13.16,10.58-14.29-8.06-26.15-24.63-31.38-40.74C62,78.25,59,65.63,59.88,62Z"/><path class="cls-5" d="M27.41,167.75,54.77,162c7.48-1.64,6.79-1,9.46,5.33,1,2.28,4,10.4,5.25,11.52l19.29-21.32c-.55-.66-.06-.23-.87-.76a26.25,26.25,0,0,1-3.52-1.95c-5.37-4-5-1.76-10.66-1.25-5.42.48-11.67-2-14.64-5.81-2.19-2.81-2.86-6.15-7.1-6.71-2.66,2.3-20.72,22.64-24.57,26.72"/><path class="cls-5" d="M100.32,157c.79,1.48,3.45,4.05,4.76,5.46l7.37,8.27c.91,1.15,1.43,1.53,2.46,2.64s3.82,4.69,5.07,5.45c1.39-3.85,3.24-7.69,4.86-11.53,3.58-8.52,1.22-6.93,23.24-2.38,3.89.8,9.94,2.55,13.58,2.83-.94-1-1.61-2.1-2.7-3.14l-6.3-6.79c-1.09-1.32-2-2.1-3.17-3.37-2.51-2.84-9.6-10.88-12.39-13.42-4.11.47-4.92,3.67-7,6.44a17.2,17.2,0,0,1-8.35,5.47c-9.73,2.84-9.76-3.37-16.83,1.72a15.26,15.26,0,0,1-4.6,2.35"/><path class="cls-1" d="M85.81,84c-1.77-1.06-4-5.1-6.69-4.25-1.12.36-5.07,4.63-6.06,5.61-3.94,3.9-.6,5.25,6.73,12.58,7,7,5.8,6.25,12.58-.54l22.92-22.91c2.69-2.67,3.8-3.57.55-6.78-1.06-1.05-4.8-5.21-6.16-5.49-2.26-.47-5.27,3.44-6.42,4.6C100.13,69.92,87.41,83,85.81,84m0,11.63-7.46-7.22,1.53-1.75c2.54,1.52,4.64,6.76,8.32,3.3L102,76.1c1.72-1.72,5.31-5.76,7.07-6.82l1.64,1.41C109.79,72.18,87.11,94.85,85.81,95.6Z"/><path class="cls-6" d="M116.73,129.7c7.44-2.29,16.68-11.4,21.11-17.78,12.07-17.38,12-41.58,0-59-4.42-6.4-13.68-15.48-21.11-17.79,1.68,1.54,3.73,2.94,5.29,4.15,4.12,3.18,9,9.63,11.84,14.73,9.7,17.06,9.68,39.71,0,56.78-3.09,5.45-7.61,11.36-12.07,14.88Z"/><path class="cls-7" d="M85.81,95.6c1.3-.75,24-23.42,24.92-24.91l-1.64-1.41c-1.76,1.06-5.35,5.1-7.07,6.82L88.2,89.93c-3.68,3.46-5.78-1.78-8.32-3.3l-1.53,1.75Z"/><path class="cls-7" d="M174.22,158.06a16.37,16.37,0,1,1-16.36,16.37,16.37,16.37,0,0,1,16.36-16.37"/><path class="cls-1" d="M184,229.88c-.08,7.38-1.55,6.13-11.3,6.13-8.21,0-12.42,1.46-12.5-4.61-.12-9.79,1.27-7.47-6.77-10.74-7.11-2.89-5.88-4.71-11.2.65-4.78,4.81-5.13,5.22-10.09.23-2.94-3-5.59-5.61-8.54-8.54-1.59-1.58-3.1-3.54-.65-6,6.09-6,7-5.58,4.44-10.73a45.08,45.08,0,0,1-2.42-5.93c-1-3-1.16-3.87-4.73-3.92-2.31,0-6.44.6-8.18-.67-2.36-1.71-1.36-11.94-1.37-15.64,0-9.78,1.56-7,10-7.46,3.12-.19,3.34-1.89,4.21-4.55a45.47,45.47,0,0,1,2.4-5.94c2.76-5.65.23-4.69-4.63-10.3-2.9-3.34,1.26-5.92,5.45-10.12,2.86-2.87,6.85-8,9.59-7.58,3.94.61,4.35,7.64,10.86,5.95.82-1.31,4.95-2.63,6.71-3.28,3.29-1.23,4.91-.92,5-5,.05-2.66-1-7,1.69-8.29,1.4-.69,7.44-.43,9.52-.43,11.8,0,12.57-1.42,12.53,7.46,0,6.85,1.33,3.44,11.26,8.67,7.43,3.92,7.63-6.85,13.12-4.86,1.3.47,8.72,8.27,10.28,9.81,5.82,5.81,4.88,5.84-.63,11.26-3.52,3.47-.63,4.14,2.7,14.16,1.26,3.76,3.11,3.08,7,3,3.67,0,5.69.26,5.84,4.12,1,26.51-1.67,18.06-10.31,19.78-2.66.53-2.87,3.47-3.89,6.05-3.22,8.12-5.75,6.78.44,12.93,1.47,1.46,4,3.13,2,6.18a55.87,55.87,0,0,1-4.95,5.08c-10.68,10.69-8.63,10.35-16.33,3-2.53-2.42-3.54-1.67-6.64-.12-9.66,4.8-10,.62-9.89,10.21m-18.78,12.44c4.84,0,16.24.73,19.84-1.08,4.41-2.21,5.3-5.76,5.22-10.3,0-3.19-.55-2.94,2-3.6l4.58-2,1.94,1.86,5.33,3.94c3.06-.23,3.55.69,6.84-.65,3-1.3,8.16-7.27,10.43-9.55,5.09-5.07,7.24-5.6,7.49-12.42l-2.87-5.85-2.9-2.87,3-7c16.13,0,13.69-7.92,13.69-22.32l-.06-6.56c-1.41-2.93-1.43-4.17-4.33-6.08s-4.8-1.42-9-1.42a32.46,32.46,0,0,0-2.91-7.08c2.7-4,5.41-3.69,5.41-10.41,0-4.93-6.06-9.6-8.85-12.4-3-3-7.36-8.85-12.81-8.85-6,0-6.24,3.18-9.58,5.42-2.33-.55-4.36-2.28-7.08-2.5,0-4.39-.08-6.52-1.83-9.43a9.15,9.15,0,0,0-7.34-4.32H162.75c-3.27,0-5.7,2.15-7.16,4.09-2,2.67-1.59,5.26-1.59,9.66a36.78,36.78,0,0,0-7.08,2.91c-1.87-2.78-5.87-5.83-9.59-5.83-6,0-9.77,5.4-13,8.64-3,3.06-9.07,7.54-9.07,13,0,6.51,5.84,9.41,5.84,10.42,0,.84-2.1,5.89-2.5,6.66-4.28,0-7.1-.47-9.84,1.41-2.06,1.43-4.33,4.07-4.33,7.34v18.75a9.21,9.21,0,0,0,4.27,7.4c2.64,1.88,6,1.76,10.31,1.76a33.83,33.83,0,0,1,2.5,6.25c-2.67,4-6.25,4-6.25,10.83,0,4.93,6.06,9.6,8.86,12.39,4.38,4.38,6.9,8.86,13.64,8.86,5.16,0,7.06-4.28,10-6.25a29.24,29.24,0,0,0,6.25,2.5c0,6.4-.94,9.63,4.58,13.33Z"/><path class="cls-8" d="M148.58,130.14c-23.55,26.13-20.64,64.58,6.23,87.08,6.44,5.39,18,11.43,29.24,12.66-.08-9.6.22-5.41,9.88-10.21,3.1-1.55,4.11-2.3,6.64.12,7.7,7.36,5.65,7.7,16.33-3a54.57,54.57,0,0,0,4.95-5.08c2-3.05-.55-4.72-2-6.18-6.19-6.15-3.66-4.81-.44-12.93,1-2.58,1.23-5.52,3.89-6.05,8.64-1.72,11.33,6.73,10.31-19.78-.15-3.86-2.17-4.16-5.84-4.12-3.89,0-5.73.72-7-3-3.34-10-6.22-10.69-2.7-14.16,5.51-5.42,6.45-5.45.63-11.25-1.56-1.55-9-9.35-10.28-9.82-5.49-2-5.69,8.77-13.12,4.86C185.35,124,184,127.43,184,120.58c0-8.88-.73-7.46-12.53-7.46-2.08,0-8.12-.26-9.52.43-2.68,1.32-1.64,5.63-1.69,8.29-.08,4.1-1.7,3.79-5,5-1.76.65-5.89,2-6.71,3.28m42.26,17.56a8.08,8.08,0,0,0,2.24,2.1,10,10,0,0,1,1.4,1.1c.89.95.42.29.92,1.39,3.08-1.55,4-.86,5.5,1.35a36.89,36.89,0,0,1,3.3,5.44,36.28,36.28,0,0,1,3.45,14c.5,11.49-4,19.11-9.1,25.41a36.18,36.18,0,0,1-9.91,7.59c-13.59,6.92-28.83,4.75-39.27-4.19-22.86-19.59-13.44-56.52,16.15-62.23a35.94,35.94,0,0,1,15.57.53,37.75,37.75,0,0,1,6.44,2.3C190.4,143.78,190.78,144.22,190.84,147.7Z"/><path class="cls-9" d="M184.05,229.88c-11.27-1.23-22.8-7.27-29.24-12.66-26.87-22.5-29.78-60.95-6.23-87.08-6.51,1.69-6.92-5.34-10.86-5.95-2.74-.42-6.73,4.71-9.59,7.58-4.19,4.2-8.35,6.78-5.45,10.12,4.86,5.61,7.39,4.65,4.63,10.3a46.91,46.91,0,0,0-2.4,5.94c-.87,2.66-1.09,4.36-4.21,4.55-8.41.5-10-2.32-10,7.46,0,3.7-1,13.93,1.37,15.64,1.74,1.27,5.87.64,8.18.67,3.57.05,3.71.91,4.73,3.93a45.5,45.5,0,0,0,2.42,5.92C130,201.45,129.08,201,123,207c-2.45,2.43-.94,4.39.65,6,3,2.93,5.6,5.58,8.54,8.54,5,5,5.31,4.58,10.09-.23,5.32-5.36,4.09-3.54,11.2-.65,8.05,3.27,6.65,1,6.77,10.74.08,6.07,4.29,4.61,12.5,4.61,9.75,0,11.22,1.25,11.31-6.13"/><path class="cls-1" d="M195.4,152.29c-2.42,3.92,2.06,5.25,4.63,13.48a30.33,30.33,0,0,1,.13,17.2,29,29,0,0,1-7.54,12.46c-2.05,2-8.52,7.24-12.82,7l-2.54.92a29.64,29.64,0,0,1-20.5-3.94c-13.55-8.68-17.87-26-10-39.47,3-5.07,9.32-11.69,16.4-13.12,2.9-1.88,10.92-1.74,14.72-1a29,29,0,0,1,6.6,2.13c4.28,2,3.44,1.53,6.36-.3-.06-3.48-.44-3.92-3.31-5.25a37.75,37.75,0,0,0-6.44-2.3,35.94,35.94,0,0,0-15.57-.53c-29.59,5.71-39,42.64-16.15,62.23,10.44,8.94,25.68,11.11,39.27,4.19a36.18,36.18,0,0,0,9.91-7.59c5.08-6.3,9.6-13.92,9.1-25.41a36.28,36.28,0,0,0-3.45-14,36.89,36.89,0,0,0-3.3-5.44c-1.54-2.21-2.42-2.9-5.5-1.35"/><path class="cls-10" d="M163.16,146.87c-3,3.52-5,5.1-7.38,10.07-.69,1.42-4.78,12.67-2.62,13.41,2.31-8,8-14.51,17.51-15.16,20.72-1.42,28.49,25.48,11.76,35.88-12.9,8-23.57-2.41-24.25-2.6-.65.28-.79-.51.15,1l3.23,3.94a33.42,33.42,0,0,0,4.92,4.25c2.91,2.07,8.89,5.33,13.32,4.83,4.3.19,10.77-5.07,12.82-7A29,29,0,0,0,200.16,183a30.33,30.33,0,0,0-.13-17.2c-2.57-8.23-7.05-9.56-4.63-13.48-.5-1.1,0-.44-.92-1.39a10,10,0,0,0-1.4-1.1,8.08,8.08,0,0,1-2.24-2.1c-2.92,1.83-2.08,2.27-6.36.3a29,29,0,0,0-6.6-2.13c-3.8-.74-11.82-.88-14.72,1"/><path class="cls-1" d="M153.16,170.35c-.51,4-.77,6.66.58,10.45s2.81,4.92,4.44,7.67c.68.19,11.35,10.62,24.25,2.6,16.73-10.4,9-37.3-11.76-35.88-9.47.65-15.2,7.2-17.51,15.16m32.08,4c0,7.16-5.79,13.33-12.91,13.33a13,13,0,0,1-8.48-23.06C172.17,157.23,185.24,164,185.24,174.31Z"/><path class="cls-11" d="M179.8,202.48c-4.43.5-10.41-2.76-13.32-4.83a33.42,33.42,0,0,1-4.92-4.25l-3.23-3.94c-.94-1.5-.8-.71-.15-1-1.63-2.75-3.05-3.77-4.44-7.67s-1.09-6.5-.58-10.45c-2.16-.74,1.93-12,2.62-13.41,2.4-5,4.36-6.55,7.38-10.07-7.08,1.43-13.43,8-16.4,13.12-7.87,13.44-3.55,30.79,10,39.47a29.64,29.64,0,0,0,20.5,3.94Z"/></g></svg>