<svg xmlns="http://www.w3.org/2000/svg" viewBox="0 0 256 256"><defs><style>.cls-1,.cls-2,.cls-3,.cls-4,.cls-5,.cls-6,.cls-7{fill-rule:evenodd;}.cls-2{fill:#ff0;}.cls-3{fill:#fefefe;}.cls-4{fill:#18ce0f;}.cls-5{fill:#c7c700;}.cls-6{fill:#f1f1f1;}.cls-7{fill:#fff;}</style></defs><g id="Garantia"><path class="cls-1" d="M108.15,15.26c-6.09,0-12.48-4.7-23,2.62a19.87,19.87,0,0,0-4.09,3.65c-9.17,11.86-1.78,6.26-14.19,10C58.54,34,53.2,39.5,50.8,47.85c-1.41,4.9-.47,7.79-5.35,10.6-17.58,10.08-10.8,25.9-10.8,30.79,0,5.41-7.25,5.37-7.25,21.27,0,9,7.25,12.39,7.25,18.38,0,4.91-5.25,12.75,3.71,23.85,3.23,4,8.89,6.42,10.14,8.24,1.71,2.5,2,9,4.51,13.86A22.09,22.09,0,0,0,62.7,184c-2.6,3.89-6.87,7-9.88,10.92L25.33,225c-2.63,2.84-2.58,7.39,2.07,7.39,2.5,0,4.1-.69,6.57-1.17,7.89-1.55,40.17-9.47,45.65-9.47.15,1.82,1.93,5.14,2.7,7,1.08,2.58,2.08,4.79,3,7.11,2.57,6.25,5.22,17.81,13,8.49a29.16,29.16,0,0,1,1.94-2.4c.82-.84,1.42-1.31,2.19-2.17.91-1,1-1.38,1.93-2.42l6.54-7c4.27-4.62,8.06-9.62,12.57-14,1.8-1.76,2.52-3.41,4.47-4.71,2.17,1.45,23.74,26,25.28,27.9,10.94,13.08,11.37,10.49,17.4-3.59,1.1-2.56,2-4.54,3.05-7.11s1.94-4.85,3.11-7.05c4.31.1,38.41,7.92,44.78,9.38,4.74,1.08,10.82,3.52,10.82-3.58,0-1-8-9.68-9.3-11l-4.83-5.31c-3-3.26-7.55-7.48-10-10.76-2.9-3.79-12.67-13-15-16.44a23.16,23.16,0,0,0,12.1-15.45c2.12-9,.23-6.07,7.52-11.34a20.31,20.31,0,0,0,5-4.7c10.49-14.12-.37-21.54,5.3-29,6.28-8.29,7.59-19.34,1.31-28.25-.66-.94-.88-1-1.52-1.86-2.14-3.06-1.6-5.89-.8-9.11,2.69-10.73-3-20.7-12-25.95-6.8-3.95-2.29-12.31-10.95-21-8.44-8.44-17-4.32-20.91-11-10.49-18.12-25.08-11.1-31-11.1a8.78,8.78,0,0,1-4.15-1.66c-.82-.57-.87-.78-1.59-1.31-6.82-5.14-17.76-5.77-25.13-1.3-2.62,1.59-4.9,4.27-8.3,4.27m18.22.67c8.7-1,11,4.6,17.11,6.55,7.74,2.47,12-3,20.35.45,7,2.82,7.17,9.14,11.83,12.33,6.09,4.19,11.52,2.28,16.92,6.77,6.91,5.76,3.51,9.69,7.35,16.84,3.24,6,8.78,6.3,12.3,11.39,5.67,8.18.55,12.16,1.32,19.94s6.26,8.77,7.14,16.52c1.05,9.25-4.57,11-6.62,17.36-2.49,7.79,3,11.89-.44,20.35-2.87,7-9.18,7.19-12.34,11.82-4.15,6.08-2.28,11.52-6.77,16.92-5.79,7-9.67,3.52-16.83,7.37-6,3.24-6.29,8.75-11.39,12.3-8.13,5.65-12.19.56-19.94,1.31-7.46.73-9.16,6.29-16.67,7.08-9.09.94-10.86-4.54-17.21-6.56-7.83-2.5-11.89,3-20.35-.44-7-2.88-7.18-9.16-11.83-12.34-5.88-4-12.18-2.52-16.95-6.74-6.72-6-3.43-9.58-7.33-16.85-3.25-6-8.79-6.32-12.3-11.39-5.69-8.2-.56-12.15-1.32-20s-6.26-8.78-7.14-16.52c-1-9.19,4.57-11,6.62-17.37,2.5-7.8-3-11.89.44-20.35,2.84-7,9.14-7.15,12.34-11.82C58.82,54.84,57,49.33,61.44,44c5.69-6.78,9.63-3.5,16.83-7.36,6-3.24,6.28-8.75,11.39-12.3,8.18-5.68,12.14-.56,19.94-1.33S118.3,16.84,126.37,15.93ZM38.74,222c5.12-5.44,29.13-32.47,32.66-35.53,5.64.75,6.53,5.18,9.44,8.92,4,5.06,12.26,8.36,19.46,7.72,7.53-.67,7-3.65,14.18,1.66,2.17,1.62,3.56,1.88,4.67,2.6s.43.13,1.16,1L94.67,236.71c-1.7-1.49-5.7-12.28-7-15.32-3.55-8.44-2.63-9.26-12.57-7.07Zm96.92-14.29a20.52,20.52,0,0,0,6.12-3.12c9.39-6.76,9.44,1.49,22.38-2.28A23,23,0,0,0,175.25,195c2.76-3.68,3.84-7.93,9.3-8.56,3.72,3.38,13.13,14.06,16.47,17.85,1.49,1.69,2.77,2.72,4.22,4.47l8.37,9c1.45,1.38,2.34,2.88,3.59,4.17-4.83-.37-12.88-2.69-18-3.76-29.27-6-26.14-8.17-30.9,3.16-2.14,5.11-4.61,10.21-6.46,15.32-1.65-1-5.2-5.58-6.74-7.24-1.36-1.48-2.05-2-3.26-3.5L142,215C140.24,213.08,136.71,209.67,135.66,207.7Z"/><path class="cls-2" d="M126.37,15.93c-8.07.91-9,6.3-16.77,7.07s-11.76-4.35-19.94,1.33c-5.11,3.55-5.34,9.06-11.39,12.3-7.2,3.86-11.14.58-16.83,7.36C57,49.33,58.82,54.84,54.66,60.9c-3.2,4.67-9.5,4.82-12.34,11.82-3.44,8.46,2.06,12.55-.44,20.35-2.05,6.38-7.67,8.18-6.62,17.37.88,7.74,6.36,8.62,7.14,16.52s-4.37,11.75,1.32,20c3.51,5.07,9.05,5.35,12.3,11.39,3.9,7.27.61,10.9,7.33,16.85,4.77,4.22,11.07,2.72,16.95,6.74,4.65,3.18,4.81,9.46,11.83,12.34,8.46,3.46,12.52-2.06,20.35.44,6.35,2,8.12,7.5,17.21,6.56,7.51-.79,9.21-6.35,16.67-7.08,7.75-.75,11.81,4.34,19.94-1.31,5.1-3.55,5.36-9.06,11.39-12.3,7.16-3.85,11-.4,16.83-7.37,4.49-5.4,2.62-10.84,6.77-16.92,3.16-4.63,9.47-4.8,12.34-11.82,3.45-8.46-2-12.56.44-20.35,2.05-6.41,7.67-8.11,6.62-17.36-.88-7.75-6.37-8.64-7.14-16.52s4.35-11.76-1.32-19.94c-3.52-5.09-9.06-5.38-12.3-11.39-3.84-7.15-.44-11.08-7.35-16.84-5.4-4.49-10.83-2.58-16.92-6.77-4.66-3.19-4.86-9.51-11.83-12.33-8.37-3.41-12.61,2-20.35-.45-6.1-1.95-8.41-7.53-17.11-6.55m-5.45,15.65c30.78-3,61.72,14.34,75,40,26.33,51-6.08,108.74-60.59,114C90.44,189.9,54.77,156,51,115.94,46.69,70.56,80.52,35.55,120.92,31.58Z"/><path class="cls-3" d="M157.48,171.4l6.73-5.31c5.93-4.66,11.94-12.53,16-19.77,12.86-22.69,12.89-52.8,0-75.48C176.4,64.06,170,55.49,164.51,51.26c-2.08-1.61-4.8-3.47-7-5.51-2-2-12.19-4.7-15.84-5.43a68.64,68.64,0,0,0-20.44-1c-64.06,6.36-86.51,89.51-32.41,126.84a69.74,69.74,0,0,0,52.45,10.77c3.79-.74,14-3.48,16.24-5.51m24.33-86a108.77,108.77,0,0,1-48.33,82.38c-4.09,2.7-5.35,3.72-9.81.73s-13.23-9.36-16.3-12.7L94,140.14A108.34,108.34,0,0,1,76.23,99.9c-6.51-32-.56-24.79,11.65-27.11a52.45,52.45,0,0,0,28.41-15.06c8.41-8.31,10-14.54,15.53-8.61,2.33,2.48,4.11,5.33,6.83,7.68s2.8,3.42,7.7,6.8C174.14,82.79,183.62,63.11,181.81,85.37Z"/><path class="cls-4" d="M81.91,81.37c-1.2,4.86,2.81,21.64,4.35,26.37,7,21.42,22.72,43.44,41.72,54.16,5.92-3.1,13.55-10,17.5-14.06,15.73-16.31,25.7-36.2,28.3-59.25l.47-5.21c-.05-.95.09.08-.1-.82-.58-2.85-6.62-1.38-14.72-4A61.49,61.49,0,0,1,147,73.14a67.47,67.47,0,0,1-10.07-7.32,33.87,33.87,0,0,1-4.49-4.23A35.09,35.09,0,0,0,128,56.77a34.06,34.06,0,0,0-4.21,4.57c-3.19,3.81-10.36,9.15-14.79,11.79-7.87,4.69-16.48,7-27.07,8.24m34.46,29.24c2.14-1.23,19-18.68,23.2-22.84,1.53-1.53,5.53-6.74,8.54-6.11,1.81.38,6.78,5.9,8.19,7.3,4.31,4.27,2.84,5.46-.73,9L125.1,128.43c-9,9-7.46,10-16.72.72-9.75-9.75-14.19-11.54-9-16.72,1.32-1.31,6.57-7,8.06-7.46C111,103.84,114,109.2,116.37,110.61Z"/><path class="cls-1" d="M120.92,31.58c-40.4,4-74.23,39-69.94,84.36,3.79,40,39.46,74,84.33,69.65,54.51-5.24,86.92-63,60.59-114-13.26-25.69-44.2-43.06-75-40M157.48,171.4c-2.23,2-12.45,4.77-16.24,5.51a69.74,69.74,0,0,1-52.45-10.77C34.69,128.81,57.14,45.66,121.2,39.3a68.64,68.64,0,0,1,20.44,1c3.65.73,13.79,3.47,15.84,5.43,9.88,3.07,22.19,15.14,28.06,23.64,16,23.11,16,55.28,0,78.38C179.64,156.25,167.37,168.35,157.48,171.4Z"/><path class="cls-1" d="M181.81,85.37c1.81-22.26-7.67-2.58-35.46-21.77-4.9-3.38-4.95-4.42-7.7-6.8s-4.5-5.2-6.83-7.68c-5.55-5.93-7.12.3-15.53,8.61A52.45,52.45,0,0,1,87.88,72.79C75.67,75.11,69.72,67.92,76.23,99.9A108.34,108.34,0,0,0,94,140.14l13.38,15.64c3.07,3.34,12,9.8,16.3,12.7s5.72,2,9.81-.73a108.77,108.77,0,0,0,48.33-82.38m-99.9-4c10.59-1.27,19.2-3.55,27.07-8.24,4.43-2.64,11.6-8,14.79-11.79A34.06,34.06,0,0,1,128,56.77a35.09,35.09,0,0,1,4.43,4.82,33.87,33.87,0,0,0,4.49,4.23A67.47,67.47,0,0,0,147,73.14a61.49,61.49,0,0,0,12.46,5.44c8.1,2.6,14.14,1.13,14.72,4,.19.9,0-.13.1.82l-.47,5.21c-2.6,23-12.57,42.94-28.3,59.25-3.95,4.09-11.58,11-17.5,14.06-19-10.72-34.76-32.74-41.72-54.16C84.72,103,80.71,86.23,81.91,81.37Z"/><path class="cls-5" d="M38.74,222l36.38-7.67c9.94-2.19,9-1.37,12.57,7.07,1.28,3,5.28,13.83,7,15.32l25.64-28.34c-.73-.88-.08-.31-1.16-1s-2.5-1-4.67-2.6c-7.14-5.31-6.65-2.33-14.18-1.66-7.2.64-15.51-2.66-19.46-7.72-2.91-3.74-3.8-8.17-9.44-8.92-3.53,3.06-27.54,30.09-32.66,35.53"/><path class="cls-5" d="M135.66,207.7c1.05,2,4.58,5.38,6.32,7.26l9.81,11c1.21,1.52,1.9,2,3.26,3.5,1.54,1.66,5.09,6.24,6.74,7.24,1.85-5.11,4.32-10.21,6.46-15.32,4.76-11.33,1.63-9.2,30.9-3.16,5.17,1.07,13.22,3.39,18,3.76-1.25-1.29-2.14-2.79-3.59-4.17l-8.37-9c-1.45-1.75-2.73-2.78-4.22-4.47-3.34-3.79-12.75-14.47-16.47-17.85-5.46.63-6.54,4.88-9.3,8.56a23,23,0,0,1-11.09,7.28c-12.94,3.77-13-4.48-22.38,2.28a20.52,20.52,0,0,1-6.12,3.12"/><path class="cls-1" d="M116.37,110.61c-2.35-1.41-5.33-6.77-8.89-5.64-1.49.47-6.74,6.15-8.06,7.46-5.23,5.18-.79,7,9,16.72,9.26,9.26,7.7,8.3,16.72-.72L155.57,98c3.57-3.55,5-4.74.73-9-1.41-1.4-6.38-6.92-8.19-7.3-3-.63-7,4.58-8.54,6.11-4.16,4.16-21.06,21.61-23.2,22.84m0,15.47-9.92-9.6,2-2.33c3.38,2,6.17,9,11.06,4.39l18.37-18.39c2.29-2.29,7.06-7.66,9.4-9.07L149.49,93C148.25,94.94,118.1,125.07,116.37,126.08Z"/><path class="cls-6" d="M157.48,171.4c9.89-3.05,22.16-15.15,28.06-23.63,16-23.1,16-55.27,0-78.38-5.87-8.5-18.18-20.57-28.06-23.64,2.23,2,5,3.9,7,5.51,5.48,4.23,11.89,12.8,15.74,19.58,12.89,22.68,12.86,52.79,0,75.48-4.1,7.24-10.11,15.11-16,19.77Z"/><path class="cls-7" d="M116.37,126.08c1.73-1,31.88-31.14,33.12-33.12l-2.17-1.88c-2.34,1.41-7.11,6.78-9.4,9.07l-18.37,18.39c-4.89,4.6-7.68-2.37-11.06-4.39l-2,2.33Z"/></g></svg>