<svg xmlns="http://www.w3.org/2000/svg" viewBox="0 0 256 256"><defs><style>.cls-1,.cls-10,.cls-11,.cls-12,.cls-13,.cls-14,.cls-2,.cls-3,.cls-4,.cls-5,.cls-6,.cls-7,.cls-8,.cls-9{fill-rule:evenodd;}.cls-2{fill:#e1ad82;}.cls-3{fill:#ffcebe;}.cls-4{fill:#f0f5f6;}.cls-5{fill:#d39c72;}.cls-6{fill:#d0e2e5;}.cls-7{fill:#dc4955;}.cls-8{fill:#485858;}.cls-9{fill:#fee07d;}.cls-10{fill:#fbad9c;}.cls-11{fill:#ffb09e;}.cls-12{fill:#755745;}.cls-13{fill:#907f47;}.cls-14{fill:#c1aa5f;}</style></defs><g id="Transportadora"><path class="cls-1" d="M124.44,14.46l24.64.11V47.45c-3.63-1.5-8.16-7.93-12.6-7.76-2.71.11-5,2.57-6.7,3.86-1.29,1-4.59,3.44-5.33,4Zm72.43,38.22c1.78.76,3.32,2.89,4.85,4.43l4.48,4.47c15,15,14.77,18.23,35.36,18.23l-.1,48.66c-.85,1.13.1.37-1.36.72l-70.64,0c-3.84,0-9.85,1.05-11.09-2.87a4.42,4.42,0,0,1,1.95-5.14c1.91-1.09,16.67-.46,20.92-.69,1.61-1.12,3.5-2.8,1.67-5.48-1.4-2.05-4.47-1.47-6.85-1.46-5.74,0-11.53,0-17.27,0-4.09,0-7.74.12-8-4s3.33-4.55,6.88-4.56c7.27,0,15.86.4,23-.09,3.31-1.13,4.05-4.49,1.28-6.32-1.78-1.18-7.23-.64-9.63-.64H151c-3.9,0-8.07.08-8-4.33,0-4.6,4.21-4.22,8.5-4.21,4.7,0,28.64,1,30.83-.86a3.67,3.67,0,0,0-.06-5.37c-2-1.62-20.26-.85-23.39-.83-4,0-8,.15-8.06-4.3s4.26-4.27,8.08-4.3c7.44.05,14.9,0,22.35,0,3.77,0,7.55,0,11.32,0s6.38.11,7-3.53c-.65-3.4-7-8.26-9.2-10.71-4.16-4.58.74-10,5.14-8A2.47,2.47,0,0,1,196.87,52.68ZM64.63,7.38H169.8c2.48.16,3.5,1,3.8,3.3-.87,5.38-7.68,3.76-17.46,3.76,0,11.55.25,23.37,0,34.89-.11,5.56-4.9,8.9-9.62,5.47-3.23-2.35-6.39-5.34-9.68-7.67-3,1.72-6.59,5.22-9.69,7.48-4.62,3.37-9.58.55-9.79-4.85-.44-11.4,0-23.81,0-35.32H74.29l-9.12.06-.3,1c-.51,2.11-.24,4.78-.24,7,0,16.85-.54,121.27.14,127.13l134.38,0c1.57,0,3.15,0,4.72,0,.56,0,1.87.06,2.36,0l1.93-.58.54,0c.91-2,.66-11.22.16-12.91l-48.1-.31c-6.53-.42-11.1-6.63-8.89-15.42-3.31-2.65-4.17-1.06-6.67-5.41-2.06-3.6-1.62-6.15-.79-10.14-2.64-1.78-8.57-3.53-8.53-11.31,0-8.31,7.2-10.17,8.58-11.3-2.69-9.71,3.21-15.6,12.75-15.62,9.26,0,21.07.66,30-.09-2.07-2.42-5.32-4.89-5.47-10.22a12,12,0,0,1,5.84-10.61c10.72-6.39,17,5.48,21.3,8.25,0-4.83.76-37.44-.52-38.83s-2.61-.74-6.39-.74l-15.08,0c-2.61-.28-3.09-1.26-3.61-3.73.15-2.14,1.49-3,3.4-3.3H208c4.32.63,7.76,2.52,8.13,7.54V57.81c0,4.08-.22,3.4,2,5.53,1.3,1.25,2.26,2.23,3.54,3.52,9.41,9.48,15.33,3.62,22.76,6,3.82,1.23,4.19,3.64,4.21,8v47.89c0,3.87-.5,6.23-4.14,7.37-3.28,1-22.9.37-28.37.37,0,7.5,1.23,15.17-3.2,18.47-2.81,2.08-4.46,1.8-9,1.79h-139v43.82c2.56,1.36,6.81,4.82,7.54,7.54l55.57,0c2.55.32,3.33,1.48,3.8,3.93-2.62,4.14-1.48,3.29-11.31,3.29H76.3c0,4.34,1,1.48.33,12.91,7.68,0,96.2.47,99.15-.21,5.57-1.29,6.79-9.11,1.61-11.88-2.6-1.38-23.09-.86-28.66-.82-5.78,0-4.71.31-7.07-3.4.92-4.26,3.5-3.87,8.48-3.86,3.93,0,7.86,0,11.79,0,9.12,0,14.94-1.35,20.88,3.15a13.34,13.34,0,0,1,3.3,17.27c-4,7.24-10,6.91-16.65,6.91H73.81a25.32,25.32,0,0,1-20.73,13.19H49a25.64,25.64,0,0,1-16.28-7.4c-12.43-12.43-8.84-33.42,4.84-40.66V107.74c0-8.39-.82-8.29,3.56-9.9,1.36.82,2.65.84,3.28,2.59.75,2.06.29,93.93.29,96.91l8.89-.57,4,.62V38.47c0-4.06.3-6.79-1.63-9.92-1.28-2.08-3.77-4.57-7.36-4.47-1.66-1.35-13.61-.49-16.69-.49-5.05,0-12.72-1.15-15.65,2.06a6.36,6.36,0,0,0,3.19,10.62c3.34.77,14,.25,18.11.28,3.95.82,3.68,2.26,5.69,3,1.67,5.29,1.44,5.82,1.44,12.08V78.53c0,9,.52,7.62-3.54,9.89-1.61-.57-2.61-.38-3.3-2.17s-.29-32-.29-34.58c0-6.72.92-7.77-1.83-8.06-2.42-.26-7.25,0-10,0-3.35,0-6.58.26-9.22-.67A13.27,13.27,0,0,1,7.38,31V29.3A13.53,13.53,0,0,1,21,16.31c4-.09,26-.27,29.3.43a22.44,22.44,0,0,1,7,2.89c0-3.58-.26-5,.92-7.56A8,8,0,0,1,64.63,7.38ZM47.17,204.26a18.68,18.68,0,0,1,22.4,14.27c2.57,11.55-5.37,20.41-14.19,22.52C31.12,246.83,22.32,209.46,47.17,204.26Z"/><path class="cls-2" d="M74.29,14.44l-.12,134.29c7.93,0,129.85-.7,134,.32l.54,0,0-12.58c-5,0-47.28.74-48-.64-6.53-.42-11.1-6.63-8.89-15.42-3.31-2.65-4.17-1.06-6.67-5.41-2.06-3.6-1.62-6.15-.79-10.14-2.64-1.78-8.57-3.53-8.53-11.31,0-8.31,7.2-10.17,8.58-11.3-2.69-9.71,3.21-15.6,12.75-15.62,9.26,0,21.07.66,30-.09-2.07-2.42-5.32-4.89-5.47-10.22a12,12,0,0,1,5.84-10.61c10.72-6.39,17,5.48,21.3,8.25,0-4.83.76-37.44-.52-38.83s-2.61-.74-6.39-.74l-15.08,0c-2.61-.28-3.09-1.26-3.61-3.73H173.6c-.87,5.38-7.68,3.76-17.46,3.76,0,11.55.25,23.37,0,34.89-.11,5.56-4.9,8.9-9.62,5.47-3.23-2.35-6.39-5.34-9.68-7.67-3,1.72-6.59,5.22-9.69,7.48-4.62,3.37-9.58.55-9.79-4.85-.44-11.4,0-23.81,0-35.32Zm13.52,77c-4.25-.2-7.06-1.11-7.64-5C79.52,82,84,79.4,87.73,76c10-9.3,11.2-10,18-3,2.22,2.28,7.5,6.45,9.47,8.89a5.73,5.73,0,0,1,1,5.1c-.92,3.75-3.72,4.1-7.84,4.52-1.25,21.56,4.19,25.76-10.57,25.78C83.51,117.24,89.23,111.72,87.81,91.39Zm-6.46,40.19c-7,0-7-7.06-.47-7.06h33.93c7.31,0,6.7,7.06.47,7.06Z"/><path class="cls-3" d="M199.54,70.23c-.6,3.64-3.23,3.55-7,3.53s-7.55,0-11.32,0c-7.45,0-14.91,0-22.35,0-1.48,3.57-1.56,5,0,8.6,3.13,0,21.41-.79,23.39.83a3.67,3.67,0,0,1,.06,5.37c-2.19,1.82-26.13.85-30.83.86l-1.21,2c-.83,2.47.12,4.61.75,6.5h21.26c2.4,0,7.85-.54,9.63.64,2.77,1.83,2,5.19-1.28,6.32-2.41,1.95-17.48-.26-22,.94-1.75,2.64-.65,5.06.12,7.73,5.74.06,11.53,0,17.27,0,2.38,0,5.45-.59,6.85,1.46,1.83,2.68-.06,4.36-1.67,5.48-1,.74-.06.42-1.85.82l-13.32.13c-1.17,2-1.45,4.89.06,6.87l75.33.13.1-48.66c-20.59,0-20.37-3.24-35.36-18.23l-4.48-4.47c-1.53-1.54-3.07-3.67-4.85-4.43-5.08,6.12,7.5,14.68,9.29,17.51Z"/><path class="cls-4" d="M37.53,36.55c3.95.82,3.68,2.26,5.69,3,3.11,1.19,5.72.75,6.47,4.15.45,2.07.17,7.83.17,10.28V195.85a8.46,8.46,0,0,1,1.82.08l1.39.57c.11-.13.33.16.48.27l4,.62V38.47c0-4.06.3-6.79-1.63-9.92-1.28-2.08-3.77-4.57-7.36-4.47-3.07.85-22.29.25-27.12.26-2,2.87-2.82,8.41.09,11.16,1,.53,10,.15,12.23.16l2.85.42c.14.05.35.36.45.23s.32.15.46.24"/><path class="cls-5" d="M208.16,149.05c-4.14-1-126.06-.3-134-.32l.12-134.29-9.12.06-.3,1c-.51,2.11-.24,4.78-.24,7,0,16.85-.54,121.27.14,127.13l134.38,0c1.57,0,3.15,0,4.72,0,.56,0,1.87.06,2.36,0Z"/><path class="cls-4" d="M141.66,212l-9.89.11c-2.62,4.14-1.48,3.29-11.31,3.29H76.3c0,4.34,1,1.48.33,12.91,7.68,0,96.2.47,99.15-.21,5.57-1.29,6.79-9.11,1.61-11.88-2.6-1.38-23.09-.86-28.66-.82-5.78,0-4.71.31-7.07-3.4"/><path class="cls-6" d="M41.12,88.42a24.28,24.28,0,0,0,0,9.42c1.36.82,2.65.84,3.28,2.59.75,2.06.29,93.93.29,96.91l8.89-.57c-.15-.11-.37-.4-.48-.27l-1.39-.57a8.46,8.46,0,0,0-1.82-.08V54c0-2.45.28-8.21-.17-10.28-.75-3.4-3.36-3-6.47-4.15,1.67,5.29,1.44,5.82,1.44,12.08V78.53c0,9,.52,7.62-3.54,9.89"/><path class="cls-1" d="M87.81,91.39c1.42,20.33-4.3,25.85,10,25.84,14.76,0,9.32-4.22,10.57-25.78,4.12-.42,6.92-.77,7.84-4.52a5.73,5.73,0,0,0-1-5.1c-2-2.44-7.25-6.61-9.47-8.89-6.85-7-8-6.28-18,3C84,79.4,79.52,82,80.17,86.34c.58,3.94,3.39,4.85,7.64,5M98.66,75.91a93.8,93.8,0,0,1,8.64,8.32c-4.52.16-6,.09-6,5.13v20.8H94.94V89.36c0-4.4-1.43-4.83-5.51-5.19Z"/><path class="cls-1" d="M142.14,183.13c0,2.89,3.23,6.12,6.12,6.12h3.3c0,14.37,2.71,12.73,17.9,12.73,2.89,0,6.13-3.24,6.13-6.13v-6.6c3.1,0,5.6.37,7.82-1.6a5.86,5.86,0,0,0,2.07-5c0-3.58-1.94-4.54-3.88-6.48a58.87,58.87,0,0,0-5.27-5.1c-3.32-2.57-9.75-12.55-16.16-7.14l-14,12.39c-2.22,1.71-4,3.06-4,6.8m26.42,2-.15,9.62-9.4-.39c-.12-13.18,1-11.9-8.32-12.33,1.4-1.59,11.69-11.13,14.18-12.19,3.8,4.76,8.25,7.24,12.3,12.24C172.57,182.12,169.5,181.15,168.56,185.17Z"/><path class="cls-1" d="M88,182.19c0,7,5.11,7.06,9.42,7.06,0,14.08,2.09,12.73,17,12.73,8.09,0,7.06-7.83,7.06-12.73,4.23,0,9.9.2,9.9-7.06,0-3.65-6.78-8.61-9.31-10.95-6.63-6.13-10.22-13.62-18.85-5l-11,9.71c-1.57,1.25-4.17,3.59-4.17,6.2m26.38,2.74-.12,9.86c-2.23.49-7.45.59-9.6-.1l-.22-10.08c-1-3.32-4.31-2.45-8-2.51a29.75,29.75,0,0,1,3.28-3.22L110.09,170l12.81,12.16C119.32,182.13,115.19,181.27,114.33,184.93Z"/><path class="cls-7" d="M124.45,47.56c.74-.57,4-3,5.33-4,1.67-1.29,4-3.75,6.7-3.86,4.44-.17,9,6.26,12.6,7.76V14.57l-24.64-.11Z"/><path class="cls-8" d="M47.17,204.26c-24.85,5.2-16,42.57,8.21,36.79,8.82-2.11,16.76-11,14.19-22.52a18.68,18.68,0,0,0-22.4-14.27m1.38,6.58c7.19-1.74,13.14,3.44,14.4,9a12.16,12.16,0,0,1-9,14.55C38.59,238.15,32.28,214.8,48.55,210.84Z"/><path class="cls-1" d="M48.55,210.84c-16.27,4-10,27.31,5.44,23.6a12.16,12.16,0,0,0,9-14.55c-1.26-5.61-7.21-10.79-14.4-9m1.15,6.95c6.45-2.06,9.36,8.26,2.6,9.77C46,229,43.28,219.84,49.7,217.79Z"/><path class="cls-1" d="M81.35,131.58h33.93c6.23,0,6.84-7.06-.47-7.06H80.88c-6.53,0-6.5,7.06.47,7.06"/><path class="cls-9" d="M159,194.4h9.07v-8l.47-1.26c.94-4,4-3,8.61-3-4-5-8.5-7.48-12.3-12.24-2.49,1.06-12.78,10.6-14.18,12.19,9.36.43,8.2-.85,8.32,12.33"/><path class="cls-9" d="M104.39,184.61l.76,1.31-.08,8.7h8.81c0-2.85-.66-7.55.45-9.69.86-3.66,5-2.8,8.57-2.81L110.09,170l-10.38,8.92a29.75,29.75,0,0,0-3.28,3.22c3.65.06,6.92-.81,8,2.51"/><path class="cls-4" d="M89.44,84.17c4.08.36,5.51.79,5.51,5.19v20.8h6.35V89.36c0-5,1.49-5,6-5.13a93.8,93.8,0,0,0-8.64-8.32Z"/><path class="cls-10" d="M241.46,128.47l-75.33-.13c-1.51-2-1.23-4.91-.06-6.87l13.32-.13c1.79-.4.85-.08,1.85-.82-4.25.23-19-.4-20.92.69a4.42,4.42,0,0,0-1.95,5.14c1.24,3.92,7.25,2.87,11.09,2.87l70.64,0c1.46-.35.51.41,1.36-.72"/><path class="cls-11" d="M199.54,70.23l6.62,0c-1.79-2.83-14.37-11.39-9.29-17.51a2.47,2.47,0,0,0-1.39-1.14c-4.4-2-9.3,3.4-5.14,8,2.23,2.45,8.55,7.31,9.2,10.71"/><path class="cls-6" d="M37.53,36.55c-.14-.09-.35-.38-.46-.24s-.31-.18-.45-.23l-2.85-.42c-2.27,0-11.26.37-12.23-.16-2.91-2.75-2.07-8.29-.09-11.16,4.83,0,24.05.59,27.12-.26-1.66-1.35-13.61-.49-16.69-.49-5.05,0-12.72-1.15-15.65,2.06a6.36,6.36,0,0,0,3.19,10.62c3.34.77,14,.25,18.11.28"/><path class="cls-4" d="M49.7,217.79c-6.42,2.05-3.71,11.18,2.6,9.77,6.76-1.51,3.85-11.83-2.6-9.77"/><path class="cls-11" d="M158.79,113.57c-.77-2.67-1.87-5.09-.12-7.73,4.49-1.2,19.56,1,22-.94-7.11.49-15.7.08-23,.09-3.55,0-7.14.52-6.88,4.56s3.91,4.06,8,4"/><path class="cls-11" d="M151,97.94c-.63-1.89-1.58-4-.75-6.5l1.21-2c-4.29,0-8.46-.39-8.5,4.21,0,4.41,4.14,4.33,8,4.33"/><path class="cls-11" d="M158.87,82.34c-1.54-3.59-1.46-5,0-8.6-3.82,0-8.12-.07-8.08,4.3s4.07,4.27,8.06,4.3"/><path class="cls-12" d="M208.7,149.1c.91-2,.66-11.22.16-12.91l-48.1-.31c.7,1.38,43,.64,48,.64Z"/><path class="cls-13" d="M114.33,184.93c-1.11,2.14-.45,6.84-.45,9.69h-8.81l.08-8.7-.76-1.31.22,10.08c2.15.69,7.37.59,9.6.1Z"/><polygon class="cls-14" points="159 194.4 168.41 194.79 168.56 185.17 168.09 186.43 168.08 194.4 159 194.4"/></g></svg>