<svg xmlns="http://www.w3.org/2000/svg" viewBox="0 0 256 256"><defs><style>.cls-1{fill:#e84e1b;}.cls-1,.cls-10,.cls-2,.cls-3,.cls-4,.cls-5,.cls-6,.cls-7,.cls-8{fill-rule:evenodd;}.cls-2{fill:#3b2a78;}.cls-11,.cls-3{fill:#d7482f;}.cls-4{fill:#502e73;}.cls-5{fill:#66316c;}.cls-6,.cls-9{fill:#c14240;}.cls-7{fill:#7a3464;}.cls-8{fill:#91385a;}.cls-10,.cls-12{fill:#ab3d4d;}</style></defs><g id="Deudu"><path class="cls-1" d="M5.19,25.68H15.93V14h84.34c18.4,0,40.68,0,56.94,6,3.24,1.18,5.25,1.64,8,2.77l7.66,3h21L184.32,20a50.71,50.71,0,0,0-8.89-4.41l-12.9-5c-1.32-.4-1.49-.45-2.77-.87l-5.2-1.37-.41-.1-.41-.1A117.43,117.43,0,0,0,141.9,5.56c-18.05-3-23.81-1.83-42.14-1.83l-87.43,0c-9.41-.06-7.14,7.18-7.14,22"/><path class="cls-2" d="M193.3,230.76H172.86l-22.18,7.47-.41.1L141,240.27c-12.62,2.1-26.77,2.38-39.44,0l-.43-.09L76.26,232.8c-1.83-.78-3.09-1.7-5.12-2H51.71a8.52,8.52,0,0,0,3.09,2.53l11,6.27c35.06,17.46,78.1,16.68,112.63-.17,4.09-2,11.36-6,14.82-8.63"/><path class="cls-3" d="M30.24,59H40.47V39c7.15-2.76,76.33,1.43,80.6-1.19a5.42,5.42,0,0,0,0-8.87c-2.35-1.43-9.63-.67-13.13-.67H40.46c-13.53,0-10.22.05-10.22,30.72"/><path class="cls-4" d="M179.5,209.22H158l-26.93,6.36-15.47.31-13.52-2.34c-4.8-1.06-12.43-4.19-14.11-4.33H67.56c1,1.48.6,1,2.19,1.9,5.21,3.07,5.87,4,11.9,6.49l6.5,2.7a96.84,96.84,0,0,0,35.13,6.29c16.62.08,41.21-6.49,54.8-16.25Z"/><path class="cls-5" d="M175.41,184.71H157.52c-2,.41-3.5,1.52-5.27,2.41l-.7.35-.37.15-.37.14a88,88,0,0,1-17.52,4.46l-2.84.15c-2.25.11-2.2.43-4.61.52a70.15,70.15,0,0,1-9.08-.6l-23.13-7.58H76.76c1.95,2.81,6.66,5.57,9.4,7.5a64.05,64.05,0,0,0,11.19,5.69c22.18,8.42,41.32,6.46,62.57-2.61l10.75-6.6a36.52,36.52,0,0,0,4.74-4"/><path class="cls-6" d="M79.31,96.22H90.05V88.07c8.92,0,26.15-1,34,.22,2.81.42,5.71.16,8,.69,15.37,3.52,15.88,6.56,18.77,7.24H165.7l-5.5-5.72a9.17,9.17,0,0,0-1.13-.86l-.3-.19-12.92-7.57c-.71-.26-.61-.19-1.46-.53-7.19-2.81-13.38-3.5-21.63-3.5H92.09c-14.63,0-12.78-.36-12.78,18.37"/><path class="cls-7" d="M166.21,158.68H151.9c-2.45,1.11-1.84,1.27-3.67,2.48l-4,2.14a52.09,52.09,0,0,1-13.5,3.89c-6.23.94-12.55-.2-18.4-2.24l-4.23-1.83c-.58-.29-1.23-.64-1.72-.9l-2.47-1.56a23.5,23.5,0,0,0-2.63-2H87.49a29,29,0,0,0,6.64,7.62c6.18,5,11.66,8.17,19.53,10.11a50.88,50.88,0,0,0,13.21,1.65c10.12-.05,25.29-5.1,32.06-11.89,2.59-2.6,2.83-1.38,7.28-7.49"/><path class="cls-8" d="M154.46,129H144.23c-.65,1.39-.32,1.21-.74,2.94a27.25,27.25,0,0,1-.85,2.71,14.84,14.84,0,0,1-3.63,5.06l-.26.26-4.36,2.8c-.47.19-1.14.39-1.5.49a15.5,15.5,0,0,1-12.47-1.6l-2.78-2.34c-2.79-3.24-3.06-5.7-3.06-10.32H103.85c0,27.62,35.61,35.47,48.06,10.32A28,28,0,0,0,154.46,129"/><path class="cls-6" d="M183.08,96.22h11.25c-.66-2.72-5-9.58-6.87-12l-2.22-2.87L185,81.1,174.33,70.32C170.31,67.07,160.19,60,155,59H132c.15,6.32,5.94,5.09,14.13,7.8,14.14,4.68,26.71,13.62,34.65,26.26.87,1.39,1.25,2.42,2.34,3.17"/><path class="cls-3" d="M214.77,59H227l-1.67-2.92-.22-.28-.44-.57L211.32,40l-.25-.26-5.2-5c-3.59-2.66-7.69-6.52-12.05-9h-21c.1.07.27,0,.32.19l1,.55A113.29,113.29,0,0,1,205.7,49.11l6.58,7.28a12.74,12.74,0,0,0,2.49,2.6"/><path class="cls-6" d="M233.69,96.22h10.73c-.6-1.21-3.74-12.43-6.13-17.29l-1.1-2.53a19.29,19.29,0,0,0-.94-2.07l-1.2-2.4c-1.54-3.09-6.39-11.86-8-12.94H214.77l10.75,17.32c1.31,2.55,3,6.32,4.3,9.57Z"/><path class="cls-5" d="M158,209.22H179.5c7.9-4.15,21.21-17.49,25.05-24.51H191.77l-16.06,14.66Z"/><path class="cls-5" d="M67.56,209.22H88l-16.35-9.64-.3-.22-.29-.22L58,186.59c-1.22-1.47-.19-.83-1.7-1.88H44c.73,3,7.81,11.18,10.35,13.71,2.71,2.68,10,10,13.17,10.8"/><rect class="cls-9" x="5.19" y="58.99" width="10.73" height="37.23"/><rect class="cls-9" x="54.78" y="58.99" width="10.73" height="37.23"/><path class="cls-10" d="M166.21,129H177c0-9.71-1.63-16.45-5.55-24-2.27-4.39-3.51-5.29-5.7-8.69H150.88c1.18,1.83,6.33,4.28,10.91,13.2,3.36,6.54,4.42,10.27,4.42,19.53"/><rect class="cls-9" x="30.24" y="58.99" width="10.22" height="37.23"/><path class="cls-4" d="M172.86,230.76H193.3c5.59-3.42,19.6-14.91,24-21.54h-13.8L199.05,213l-.25.27-6.74,5.53c-.12.1-.83.6-.87.63L187.58,222c-6.08,4-9.65,5.44-13.53,7.87Z"/><path class="cls-8" d="M151.9,158.68h14.31c1.11-1.79,2.41-3.33,3.88-5.86a54.14,54.14,0,0,0,3.29-6.93c1.48-3.68,3.57-11.42,3.57-16.94H166.21a31.7,31.7,0,0,1-1.46,9.36l-10.17,17.43a13.06,13.06,0,0,0-2.68,2.94"/><path class="cls-4" d="M51.71,230.76H71.14L49.78,216.33,42,209.22H28.71c.42,1.57,3.5,4.81,4.72,6.06,3.45,3.49,14,14.05,18.28,15.48"/><path class="cls-7" d="M157.52,184.71h17.89c3.09-2.18,8.54-8.33,10.89-11.59a61.33,61.33,0,0,0,4.45-6.75c1.12-2.08,2.86-5.55,4.09-7.69H183.08l-3.57,5.63c-2.14,3.21-7.38,9.63-10.66,12.35l-.3.22Z"/><path class="cls-10" d="M190.75,129h10.73a74,74,0,0,0-1.74-18.11c-.59-2.71-3.53-12.35-5.41-14.62H183.08c.51,2.27,2.14,4.68,3,6.81a59.53,59.53,0,0,1,2.63,7.59c1.79,6.82,2,10.11,2,18.33"/><rect class="cls-11" x="5.19" y="25.68" width="10.73" height="33.31"/><rect class="cls-12" x="5.19" y="96.22" width="10.73" height="32.73"/><rect class="cls-12" x="54.78" y="96.22" width="10.73" height="32.73"/><rect class="cls-12" x="79.31" y="96.22" width="10.73" height="32.73"/><path class="cls-7" d="M76.76,184.71H93.63l-8.85-6.51a22.85,22.85,0,0,1-4.8-4.32c-7.23-8.63-5.06-6.79-9.87-15.2H58.87c1.19,2.31,1.79,4.67,3.22,7.53,3,6,9.88,15.12,14.67,18.5"/><path class="cls-10" d="M237.78,129H248a135.55,135.55,0,0,0-.66-17.16c-.26-2.2-.84-5.81-1.25-7.93-.62-3.24-1.43-4.73-1.67-7.64H233.69c.05,2.54,1.08,5.23,1.58,7.73s1.11,5.35,1.4,7.78A146.28,146.28,0,0,1,237.78,129"/><path class="cls-10" d="M144.23,129h10.23c0-9.69-2.56-15.2-7.54-20l-.25-.25-.51-.51a7,7,0,0,0-1.7-1.43c-4.33-2.86-13.54-7.08-15.69.21-3,10.09,15.46,1.45,15.46,22"/><path class="cls-8" d="M6.73,161.11H17.46c-.05-2.38-.84-5.32-1-7a74.63,74.63,0,0,1-.55-8.17c0-5.66,0-11.32,0-17H5.19l.53,24.63c.16,2.13,1,5.36,1,7.53"/><path class="cls-8" d="M87.49,158.68h13.8l-3.74-3.93a33,33,0,0,1-6.28-11.57,40.36,40.36,0,0,1-.87-4.26,73.72,73.72,0,0,1-.35-10H79.31c0,6.76.25,11.8,1.86,17.13a38,38,0,0,0,2.57,6.62c1,2.09,2.5,5,3.75,6"/><path class="cls-8" d="M183.08,158.68h11.76c.43-2,1.62-4.13,2.37-6.33s1.6-5,2.1-7.08A75.45,75.45,0,0,0,201.48,129H190.75a61.37,61.37,0,0,1-6.49,26.83Z"/><path class="cls-8" d="M58.87,158.68H70.11c-4.36-9.75-4.6-18.81-4.6-29.73H54.78a111.6,111.6,0,0,0,.79,16.19,55.63,55.63,0,0,0,1.35,6.8c.56,2.24,1.47,4.55,1.95,6.74"/><path class="cls-8" d="M232.66,158.68h11.25c.17-2.12,1.07-4.59,1.5-6.68.5-2.45,1-4.74,1.36-7.3A99.19,99.19,0,0,0,248,129H237.78c-.65,2.81-.28,5-.72,8.07-.39,2.69-.56,4.92-1,7.68-.69,4.08-2,10.85-3.37,14"/><path class="cls-5" d="M203.53,209.22h13.8c2.87-2.1,10.75-14.17,12.88-17.73l3.48-6.78H221.93c-.64.92-1.62,2.7-2,3.22-2.21,3.56-8.31,12.59-11.46,15.57a52.78,52.78,0,0,0-5,5.72"/><path class="cls-5" d="M28.71,209.22H42c-1.47-2.19-6.06-6.84-9-11.36-.63-1-1.25-1.93-2.05-3.09l-5.82-10.06H13.88c1.14,4.74,11.67,22.41,14.83,24.51"/><path class="cls-7" d="M44,184.71H56.31c-1.59-3.11-4.16-5.62-7.33-12.1-.19-.4-.5-1-.68-1.35a60.1,60.1,0,0,1-4.77-12.58H32.8c.12,5.34,8.35,23.8,11.24,26"/><path class="cls-7" d="M221.93,184.71h11.76c3.61-4.32,10.06-25.72,10.22-26H232.66c-.18,2.13-1.49,5.45-2.11,7.12Z"/><path class="cls-7" d="M191.77,184.71h12.78c2.47-3,11.14-16.88,10.72-20.79a5.18,5.18,0,0,0-6.06-4.79c-3.63.41-6.18,7.67-7.72,10.8Z"/><path class="cls-10" d="M103.85,129h10.73V113.2c0-5.79.32-11.14-5.15-11.29-6.2-.17-5.59,7.41-5.58,10.77,0,5.42,0,10.85,0,16.27"/><path class="cls-7" d="M13.88,184.71H25.13l-2.19-5.42c-.27-.67-1.55-3.92-2.09-5.59l-3.39-12.59H6.73c1.65,7.66,3.76,17,7.15,23.6"/><path class="cls-10" d="M40.47,96.22H30.24c0,2.84-.44,20.91.32,22.76,1.23,3,7,4.42,9.41-.17,1-1.88.5-19.67.5-22.59"/><path class="cls-8" d="M32.8,158.68H43.53c-1.61-3.6-1.46-8.48-2.85-10.93-.51-.9-.25-.46-.65-.92a5.39,5.39,0,0,0-8.66,1.25,3.34,3.34,0,0,0-.58,2c-.1,1.23,1.1,7.09,2,8.64"/><path class="cls-8" d="M39.44,129H31.26c-2.2,2.6-2,11.54,4.07,11.3a6,6,0,0,0,3.11-1.05l1.91-2.61Z"/><path class="cls-3" d="M132,59h23l-.65-.41-.67-.36-11-3.34c-3-.61-10.54-3.07-10.7,4.11"/><path class="cls-3" d="M54.78,59H65.51c-.15-7.35-8.2-7.1-10.06-2.88l-.14.35A6.53,6.53,0,0,0,54.78,59"/><path class="cls-10" d="M31.26,129h8.18a4.91,4.91,0,0,0-8.18,0"/></g></svg>