<svg xmlns="http://www.w3.org/2000/svg" viewBox="0 0 256 256"><defs><style>.cls-1{fill:#c30;}.cls-1,.cls-2,.cls-3,.cls-4{fill-rule:evenodd;}.cls-2{fill:#d4d5db;}.cls-4{fill:#b7b8c2;}</style></defs><g id="Eliminar"><path class="cls-1" d="M128,13A115,115,0,1,1,13,128,115,115,0,0,1,128,13"/><path class="cls-2" d="M94.36,213.67c4.84.72,44.33.23,52.65.23,7.34,0,18.56,1,24.72-1.64a19,19,0,0,0,11.19-15.53c1.83-16,2.63-33.07,3.91-49.22.56-7.17,4.14-46.13,3.71-49.74l-.21-1H97.18c-11.12,0-21.25-2.9-20.11,10.54,1.61,19,3,38.16,4.53,57.19.76,9.64,1.52,19.23,2.29,28.87.39,4.93.83,8.55,3.07,12.37,3.27,5.56,5.84,6.1,7.4,8m-3-34.53c.75-2.14-.05-5.18-.18-7.52-3.84-.28-3.11-4.63-3.62-10.91l-3.18-40.16c-.41-5.11-.5-9.12,2.61-11.75,4.32-3.65,14.7-4.35,15.68,8.3L108,184.27c.38,5,1.4,8.82-1.84,12.28-2.32,2.47-5.9,4.42-10.45,2.54-6.34-2.6-5.77-8.81-6.32-15.34C89.17,180.75,89.19,180.18,91.4,179.14Zm78.92-16.95-.34,7.26c2.48.71,2.38,2.14,2.14,4.89-.38,4.38-1,17.17-2,19.67-3,7.49-14,7.68-17.18-.11-1.42-3.47.82-22,1.22-27,.7-9,1.41-17.85,2.13-26.84.33-4.18,1.66-24.46,2.32-26.89,2.26-8.26,13.55-9.09,17.26-1.42,1.83,3.79-.45,21.1-.88,26.5l-1.58,20.06C173.2,160.77,173,162.05,170.32,162.19ZM137,133.4l-.11,7.25c2.66.35,2.74,1.73,2.74,4.26,0,8.9.48,44.86-.33,48a9.23,9.23,0,0,1-16.65,2.75c-2.67-4.12-1.54-19.87-1.54-26.12,0-4.14-.31-52.61.15-55.34,1.39-8.23,11.71-10.19,16.64-3.83,2.32,3,1.72,8,1.72,12.23C139.65,128.67,140.69,132.69,137,133.4Z"/><path class="cls-3" d="M122.09,52.5c6.17,0,17.37-.92,21.53,1.58a7.64,7.64,0,0,1,3.75,4.56H112.7c.79-3.4,5.14-6.14,9.39-6.14m60.07,12.08c7.42-.48,15.49,6.65,18,13.45.85,2.27,2.21,6.39,1.1,8.56-.73.63-129.9.28-134,.22-2.39,0-5.76.44-7.79-.22-2.19-4.32,3.11-17.75,15-21.42,6.14-1.91,27.46-1,35.35-1C117.27,64.17,180.91,63.54,182.16,64.58ZM121.7,34.44h1.88c1.89.07,3,.47,3.2,2.53-.8,6.28-7.73-.9-19.06,7.66A32,32,0,0,0,105,47.27c-1.21,1.16-3.85,4.71-4,6.79a3.75,3.75,0,0,0-1.11,2.23,7.09,7.09,0,0,0-.37,2.54h7l2-4.52c5.39-7.53,9.87-7.23,21.58-7.23,4.38,0,9.56-.5,13.53.91,4.25,1.49,5.84,3.6,8,6.36l2,4.5,7,0c0-1.49-.48-3.82-1.48-4.65-.15-3.83-5.68-9.19-9.59-11.39a21.57,21.57,0,0,0-7.8-2.69c-3.76-.53-7.17.91-7.67-3.13.16-2.08,1.34-2.46,3.18-2.53h2.34a26.39,26.39,0,0,1,15.89,5.67c5.19,3.87,10.72,12.19,10.72,18.53,13.39,0,24.44-1.41,33.86,8.75a27.5,27.5,0,0,1,6.89,14.41c1.18,9.9-2.35,10.42-10.06,10.42-.6,7.28-1.44,14.89-1.81,22.38l-1,11.3c-.21,1.56-.44,4.34-.47,5.67-.18,7.24-1.49,15.86-1.8,22.39L190,176.4c-.18,1.7-.38,3.94-.42,5.36-.13,5-1.06,17.67-2.57,21.62-3.29,8.62-11.54,15.24-20.55,15.92l-72.52,0a24.79,24.79,0,0,1-20.21-15.89c-1.24-3.33-1.39-6.56-1.8-10.48-.58-5.46-.56-11.68-1.24-16.81-1-7.29-1-15.5-1.76-22.44L67.57,137c-.09-6.58-1.65-16.24-1.81-22.38S64.5,98.71,64,92.22c-4.36,0-6.55.36-8.77-2.06-4.36-4.76.67-17.22,5.43-22.59,9-10.13,20.24-8.93,33.31-8.93,0-3.93,2.38-8.81,4-11.2C103.63,38.8,111.23,34.64,121.7,34.44Zm68.84,63.33c.43,3.61-3.15,42.57-3.71,49.74-1.28,16.15-2.08,33.23-3.91,49.22a19,19,0,0,1-11.19,15.53c-6.16,2.61-17.38,1.64-24.72,1.64-8.32,0-47.81.49-52.65-.23a18.88,18.88,0,0,1-12.09-6.52c-3.31-4.1-4.14-7-4.66-13.48l-5.34-67.51c-.87-11-2.31-23-2.53-33.92H191.16C191.11,93.74,191.28,96.79,190.54,97.77Z"/><path class="cls-2" d="M67.29,86.81c4.1.06,133.27.41,134-.22,1.11-2.17-.25-6.29-1.1-8.56-2.54-6.8-10.61-13.93-18-13.45-2.59.68-100.09-.51-102.73.24-1.36.39-4,2.77-4.88,3.68a23.66,23.66,0,0,0-7.26,18.31"/><path class="cls-4" d="M94.36,213.67c-1.56-1.88-4.13-2.42-7.4-8-2.24-3.82-2.68-7.44-3.07-12.37-.77-9.64-1.53-19.23-2.29-28.87-1.49-19-2.92-38.14-4.53-57.19-1.14-13.44,9-10.54,20.11-10.54h93.15l.21,1c.74-1,.57-4,.62-5.53H69.74c.22,10.9,1.66,22.94,2.53,33.92l5.34,67.51c.52,6.48,1.35,9.38,4.66,13.48a18.88,18.88,0,0,0,12.09,6.52"/><path class="cls-3" d="M170,169.45c-4.08.23-3.25,4.25-3.57,8.27-.26,3.37-.48,13.81-2.17,15.5a4,4,0,0,1-4.24.83c-3.24-1.43-2.11-5.93-1.84-9.41L163.37,119c.27-3.46.37-7.4,4.48-7.06s3.43,4.51,3.13,8.26c-.59,7.25-1.14,14.47-1.72,21.72-.3,3.7-.58,7.33-.88,11-.45,5.66-1.55,8.24,1.94,9.32,2.65-.14,2.88-1.42,3.07-3.87L175,138.26c.43-5.4,2.71-22.71.88-26.5-3.71-7.67-15-6.84-17.26,1.42-.66,2.43-2,22.71-2.32,26.89-.72,9-1.43,17.88-2.13,26.84-.4,5-2.64,23.52-1.22,27,3.18,7.79,14.18,7.6,17.18.11,1-2.5,1.64-15.29,2-19.67.24-2.75.34-4.18-2.14-4.89"/><path class="cls-3" d="M136.92,140.65c-3.72.6-2.68,4.36-2.68,8.26v33.57c0,2.69.56,8.43-.77,10.29a3.78,3.78,0,0,1-6.73-1.18c-.41-1.46-.39-75.85.1-77.29a3.82,3.82,0,0,1,7-.26c.89,2.19.18,12.51.38,16.12.13,2.35.73,2.89,2.8,3.24,3.66-.71,2.62-4.73,2.62-10.85,0-4.2.6-9.23-1.72-12.23-4.93-6.36-15.25-4.4-16.64,3.83-.46,2.73-.15,51.2-.15,55.34,0,6.25-1.13,22,1.54,26.12a9.23,9.23,0,0,0,16.65-2.75c.81-3.09.31-39.05.33-48,0-2.53-.08-3.91-2.74-4.26"/><path class="cls-3" d="M91.22,171.62c2.16-.6,2.52-1.32,2.38-3.94l-3.93-49.17c-.29-3.5.16-7.46,4.4-6.56,3.53.75,3.18,4.85,3.47,8.43L102.75,186c.27,3.44,1.13,7.67-2.79,8.27-5.85.9-4.56-7.07-5.23-12.21-.3-2.3-.94-2.8-3.33-3-2.21,1-2.23,1.61-2,4.61.55,6.53,0,12.74,6.32,15.34,4.55,1.88,8.13-.07,10.45-2.54,3.24-3.46,2.22-7.32,1.84-12.28l-5.32-67.17c-1-12.65-11.36-11.95-15.68-8.3-3.11,2.63-3,6.64-2.61,11.75l3.18,40.16c.51,6.28-.22,10.63,3.62,10.91"/><path class="cls-4" d="M136.92,140.65l.11-7.25c-2.07-.35-2.67-.89-2.8-3.24-.2-3.61.51-13.93-.38-16.12a3.82,3.82,0,0,0-7,.26c-.49,1.44-.51,75.83-.1,77.29a3.78,3.78,0,0,0,6.73,1.18c1.33-1.86.77-7.6.77-10.29V148.91c0-3.9-1-7.66,2.68-8.26"/><path class="cls-4" d="M91.22,171.62c.13,2.34.93,5.38.18,7.52,2.39.15,3,.65,3.33,3,.67,5.14-.62,13.11,5.23,12.21,3.92-.6,3.06-4.83,2.79-8.27l-5.21-65.65c-.29-3.58.06-7.68-3.47-8.43-4.24-.9-4.69,3.06-4.4,6.56l3.93,49.17c.14,2.62-.22,3.34-2.38,3.94"/><path class="cls-4" d="M170,169.45l.34-7.26c-3.49-1.08-2.39-3.66-1.94-9.32.3-3.67.58-7.3.88-11,.58-7.25,1.13-14.47,1.72-21.72.3-3.75.94-7.92-3.13-8.26s-4.21,3.6-4.48,7.06l-5.21,65.69c-.27,3.48-1.4,8,1.84,9.41a4,4,0,0,0,4.24-.83c1.69-1.69,1.91-12.13,2.17-15.5.32-4-.51-8,3.57-8.27"/><path class="cls-2" d="M101,54.06c1.25.74,5.76.28,7.49.25,5.39-7.53,9.87-7.23,21.58-7.23,4.38,0,9.56-.5,13.53.91,4.25,1.49,5.84,3.6,8,6.36l7.52-.17c-.15-3.83-5.68-9.19-9.59-11.39a21.57,21.57,0,0,0-7.8-2.69c-3.76-.53-7.17.91-7.67-3.13h-7.23c-.8,6.28-7.73-.9-19.06,7.66A32,32,0,0,0,105,47.27c-1.21,1.16-3.85,4.71-4,6.79"/><path class="cls-4" d="M67.29,86.81A23.66,23.66,0,0,1,74.55,68.5c.92-.91,3.52-3.29,4.88-3.68,2.64-.75,100.14.44,102.73-.24-1.25-1-64.89-.41-72.34-.41-7.89,0-29.21-.91-35.35,1-11.86,3.67-17.16,17.1-15,21.42,2,.66,5.4.27,7.79.22"/><path class="cls-4" d="M151.55,54.35l2,4.5,7,0c0-1.49-.48-3.82-1.48-4.65Z"/><path class="cls-4" d="M108.46,54.31c-1.73,0-6.24.49-7.49-.25a3.75,3.75,0,0,0-1.11,2.23,7.09,7.09,0,0,0-.37,2.54h7Z"/></g></svg>