<svg xmlns="http://www.w3.org/2000/svg" viewBox="0 0 256 256"><defs><style>.cls-1{fill:#fd4949;}.cls-1,.cls-2,.cls-3,.cls-4,.cls-5,.cls-6,.cls-7,.cls-8,.cls-9{fill-rule:evenodd;}.cls-3{fill:#feda56;}.cls-4{fill:#4ce066;}.cls-5{fill:#e7343f;}.cls-6{fill:#a8eefc;}.cls-7{fill:#7ee5f2;}.cls-8{fill:#43c666;}.cls-9{fill:#fdbb25;}</style></defs><g id="Ubicacion"><path class="cls-1" d="M124.05,193.86c2.15-1,15.54-14.12,18.29-17.28C172,142.49,201.11,101,180.58,52.92,177.26,45.16,170.53,36.8,166,32.29a75.54,75.54,0,0,0-15.28-11.46c-1.62-.87-4.56-1.87-5.87-3.46-8.92-3.93-26.45-2.11-35.72.33C92.7,22,82.11,31.48,72.77,43.23a64.39,64.39,0,0,0-7.58,13.06c-17.11,36.53,6.38,79.58,28.14,105.92,7.79,9.43,11,12.44,19.78,21.48,1.89,1.94,3.33,2.9,5.27,5a63.55,63.55,0,0,0,5.67,5.13m-19.49-126a19.69,19.69,0,0,1,4.36-5.07c-1.29-4.41-.08-5.72,6.43-8.44,32.4-13.52,59.27,26.3,36.59,51.59-18.62,20.77-52,9.68-55.85-16.84a33.11,33.11,0,0,1,1-14.11C98.47,70.37,99.25,66.48,104.56,67.89Z"/><path class="cls-2" d="M124.05,193.86a63.55,63.55,0,0,1-5.67-5.13c-1.94-2.14-3.38-3.1-5.27-5-8.79-9-12-12.05-19.78-21.48C71.57,135.87,48.08,92.82,65.19,56.29a64.39,64.39,0,0,1,7.58-13.06C82.11,31.48,92.7,22,109.17,17.7c9.27-2.44,26.8-4.26,35.72-.33C161.7,19.76,179,35.28,187.69,50,198.47,68.3,198.8,89.94,192,111.35c-6,18.77-17.22,35.55-27,48-7.25,9.2-14.51,16.62-22.3,24.58-2.47,2.51-12.29,11.67-14.68,13.1a24.05,24.05,0,0,1-4-3.18M48.49,164.27H72.06c-.26,1.94-3.29,8.56-4.27,10.9-.63,1.47-3.3,9.81-5,10.17l-23.08-.07Zm138.73,24.87c-.57-3.75-2.32-3.83-6.21-3.81-6.11,0-25.9.41-29.37-.18l16-18c.84-1,1.25-1.83,2.14-2.14,1-1.3,2.62-.84,4.62-.81,10.76.15,22.75-.33,33.17.05l8.57,21.06h-8.78c-2.83,0-6.24-.17-9,0s-4.19,1.3-3.84,4.34c.69,1.69.9,2.15,2.82,2.63l21.91.16,4.65,11.44-8.84.05H162.24c-4.37,0-13.62-1.67-13.92,3.33-.17,2.79,4.26,5.43,6.2,7.2l20.68,18.23c1.57,1.22,8.52,7.21,9.2,8.25-5.2,0-10.4,0-15.6,0-3.81,0-4.17.39-6.5-1.46l-71-60.34c-4.64-2.58-6.16,4-7.37,7-1.47,3.66-3,7.29-4.53,10.94-3.1,7.38-6,14.63-9,21.91-3,7.13-6.37,14.71-9,21.94H48.3c1.5-5.08,4.9-12.2,7-17.28,6.71-16,9.72-19.78-.48-19.73-4.69,0-20.17.33-22.76-.22l4.72-11.24c5.24-.51,12.56-.1,18-.1,10,0,12.83,1.35,14.76-3.22,1.2-2.87,9.36-24.59,11-24.91,6.68-1.28,7.12,2.7,12.23,8.25,8.26,9,10.78,12.56,20.31,20.95,5.86,5.17,12.91,14.08,17.38,10.73l11-9.65c2.64-2.71,3.16-2.16,8-2.15h31C184.09,192.44,186.43,192.63,187.22,189.14ZM217.83,211l9.1,0L239.16,241H230c-8.21-.05-16.44,0-24.65,0-3.78,0-9.19.75-11.47-1.17L161.41,211ZM122.79,8H133a76.77,76.77,0,0,1,67.62,54c5.69,18.39,3.34,36.21-2.54,54a122.93,122.93,0,0,1-10,21.88c-1,1.77-1.85,3.26-2.93,5l-6.29,9.65c-1.15,1.74-2.09,2.8-3,4.5H203c5.42,0,8.83-1.06,10.61,3l27.77,67.41c1.33,3.3,2.68,6.19,4,9.58,1.57,3.94,3.88,7.47,1.61,10a3.18,3.18,0,0,1-1.89,1h-4.47c-74.19-.39-149.06,0-223.35,0h-.51c-10.49,0-10.94-.16-5-13.94,2.21-5.12,1.59-6.7,6.61-6.7,4.4,6,1.07,3.72-1.61,13.57h23c1.7-.35,6.18-13.2,6.82-14.72,2-4.79,4.64-10.42,6.18-15.13L29,211c-.66,2.11-1.65,4.13-2.54,6.31-1.24,3-1.53,4.22-5.4,3.8-4-2.34-1.58-5.43.6-10.93l18.64-45.14c2.71-6.14,1.87-8.05,7.94-8,10.63.08,21.27,0,31.9,0L73.8,147.5C67.63,138.05,61.6,127,58,116c-1.46-4.4-2.48-7.71-3.58-12.37-3.15-13.34-2.82-29.17,1-41.64,7.31-23.61,24-40.57,46-49.2A72.54,72.54,0,0,1,122.79,8ZM91,188.22c5.12,3.66,14.29,12.21,19.72,16.64,11.72,9.58,23.38,20.28,34.73,29.53,1.86,1.52,6.27,5,7.51,6.59l-84-.11Z"/><path class="cls-3" d="M215.07,204l-4.44-11.1c-3.4-.19-10.87.77-13.28-.55-1.92-.48-2.13-.94-2.82-2.63-.83-1.18-1.27-.79-3.18-.81a19.57,19.57,0,0,0-4.13.27c-.79,3.49-3.13,3.3-6.69,3.27h-31c-4.85,0-5.37-.56-8,2.15l-11,9.65c-4.47,3.35-11.52-5.56-17.38-10.73-9.53-8.39-12.05-12-20.31-20.95-5.11-5.55-5.55-9.53-12.23-8.25-1.67.32-9.83,22-11,24.91-1.93,4.57-4.74,3.22-14.76,3.22-5.47,0-12.79-.41-18,.1L32.1,203.74c2.59.55,18.07.24,22.76.22,10.2-.05,7.19,3.77.48,19.73-2.14,5.08-5.54,12.2-7,17.28H61.39c2.63-7.23,6-14.81,9-21.94,3-7.28,6-14.53,9-21.91,1.53-3.65,3.06-7.28,4.53-10.94,1.21-3,2.73-9.58,7.37-7l71,60.34c2.33,1.85,2.69,1.48,6.5,1.46,5.2,0,10.4,0,15.6,0-.68-1-7.63-7-9.2-8.25L154.52,214.5c-1.94-1.77-6.37-4.41-6.2-7.2.3-5,9.55-3.33,13.92-3.33Z"/><path class="cls-4" d="M69,240.87l84,.11c-1.24-1.62-5.65-5.07-7.51-6.59-11.35-9.25-23-19.95-34.73-29.53-5.43-4.43-14.6-13-19.72-16.64Z"/><path class="cls-5" d="M124.05,193.86a24.05,24.05,0,0,0,4,3.18c2.39-1.43,12.21-10.59,14.68-13.1,7.79-8,15-15.38,22.3-24.58,9.81-12.46,21.07-29.24,27-48,6.79-21.41,6.46-43-4.32-61.33-8.69-14.74-26-30.26-42.8-32.65,1.31,1.59,4.25,2.59,5.87,3.46A75.54,75.54,0,0,1,166,32.29c4.49,4.51,11.22,12.87,14.54,20.63C201.11,101,172,142.49,142.34,176.58c-2.75,3.16-16.14,16.24-18.29,17.28"/><path class="cls-6" d="M230,241c0-2.18-4.67-12.42-5.78-15.1-1.85-4.45-4.26-11.2-6.42-14.87l-56.42,0,32.5,28.77c2.28,1.92,7.69,1.17,11.47,1.17,8.21,0,16.44,0,24.65,0"/><path class="cls-2" d="M108.92,62.82c5.41,3.49,6.54-3.77,18.61-3.77,18.82,0,29.92,17.88,24,34.32C146,108.8,124.92,115.28,112,103.73c-7.32-6.51-11.13-16.32-8-26.55.9-3,3.59-6.78.65-9.29-5.31-1.41-6.09,2.48-7.49,7.13a33.11,33.11,0,0,0-1,14.11c3.87,26.52,37.23,37.61,55.85,16.84,22.68-25.29-4.19-65.11-36.59-51.59-6.51,2.72-7.72,4-6.43,8.44"/><path class="cls-4" d="M187.22,189.14a19.57,19.57,0,0,1,4.13-.27c1.91,0,2.35-.37,3.18.81-.35-3,1-4.18,3.84-4.34s6.18,0,9,0L199,165H169.8c-.89.31-1.3,1.13-2.14,2.14l-16,18c3.47.59,23.26.21,29.37.18,3.89,0,5.64.06,6.21,3.81"/><path class="cls-6" d="M21.09,221.13a49.69,49.69,0,0,0-2.64,6.28c4.4,6,1.07,3.72-1.61,13.57h23c1.7-.35,6.18-13.2,6.82-14.72,2-4.79,4.64-10.42,6.18-15.13L29,211c-.66,2.11-1.65,4.13-2.54,6.31-1.24,3-1.53,4.22-5.4,3.8"/><path class="cls-4" d="M39.74,185.27l23.08.07c1.67-.36,4.34-8.7,5-10.17,1-2.34,4-9,4.27-10.9H48.49Z"/><path class="cls-7" d="M230,241h9.13l-12.23-29.93-9.1,0c2.16,3.67,4.57,10.42,6.42,14.87,1.11,2.68,5.8,12.92,5.78,15.1"/><path class="cls-8" d="M207.38,185.35h8.78l-8.57-21.06c-10.42-.38-22.41.1-33.17-.05-2,0-3.59-.49-4.62.81H199Z"/><path class="cls-9" d="M215.07,204l8.84-.05-4.65-11.44-21.91-.16c2.41,1.32,9.88.36,13.28.55Z"/></g></svg>