<svg xmlns="http://www.w3.org/2000/svg" viewBox="0 0 256 256"><defs><style>.cls-1{fill:#4fa4f1;}.cls-1,.cls-2,.cls-3,.cls-4,.cls-5,.cls-6,.cls-7,.cls-8,.cls-9{fill-rule:evenodd;}.cls-2{fill:#e9eaee;}.cls-4{fill:#428ce9;}.cls-5{fill:#fefefe;}.cls-6{fill:#71b6f4;}.cls-7{fill:#010304;}.cls-8{fill:#020405;}.cls-9{fill:#020508;}</style></defs><g id="Informacion"><path class="cls-1" d="M84.48,46.19C79,48.48,70,55.2,66.34,58.79c-6.94,6.82-8.68,8.11-14.55,16.38C44.82,85,33.72,110.61,36,121.09c1.23,4.52-2,1.9,3.19,14.09,11.43,27,43.7,46.34,73.52,49.61V120.14c-17.29,0-15.55,2.52-15.49-17.42,0-4.09,1.19-5.73,5.31-5.79,5.64-.09,41-.79,43.25.77,2.94,2,1.71,15.4,1.71,20v66.5a102.34,102.34,0,0,0,47.29-20.67c11-8.76,20.22-20.7,24.79-34.67,1-3,0-5,.75-7.73.88-4.46-1.82-15.2-3.15-19.42-10.22,3.65-7.74-4.18-16.34-18a85.82,85.82,0,0,0-38.41-33.58c-5.95-2.63-21.58-7.72-28.73-7,1.82,1.72,7.91,2,12.89,8.87a22.79,22.79,0,0,1,4.62,16.79c-3,27-43,26.95-46,0C102.93,49.08,121.67,44,122.68,43.1c-5.64-.49-16.64,2.52-21.85,4.29-3.12,1.06-6.69,3-9.34,3.73-3.63,1-7.67-1.36-7-4.93"/><path class="cls-2" d="M240.27,124c0-3.23-.44-5.07-.48-7.6l-.85-7.37a44.67,44.67,0,0,0-1.7-6.77L235.5,95c-.62-2.11-1.82-4.6-2-6.79-1.5-1.18-2.49-4.8-3.23-6.74l-3.05-6.59-3.81-6.45a65.32,65.32,0,0,1-3.92-5.93c-1.16-1-4.18-4.63-4.67-6.15-.93-1.06-1.57-1.54-2.44-2.56s-1.31-1.7-2.07-2.6l-5.51-5.47c-1-.89-1.52-1.2-2.56-2.08s-1.53-1.51-2.56-2.46a31.16,31.16,0,0,1-6.17-4.64c-1.2-.71-1.83-1.23-2.94-2s-1.83-1.06-3-1.93l-6.5-3.8-6.55-3.06c-.49-.18-6.41-2.39-6.58-3,0-.16-.18-.16-.26-.25-2-.17-4.75-1.39-6.69-2l-7.24-1.7c-1.16-.74-5.53-1.55-7.25-1.57l-6.9-1c-2.55,0-4.33-.49-7.6-.47-14.79.54-23.9,1-37.34,5.16C19.24,44.29-7.25,136.54,39,195.77a127.46,127.46,0,0,0,9.85,11.4A127.22,127.22,0,0,0,60.27,217C117.12,261.57,209,240.26,235.1,161.35c4.22-12.75,4.55-23,5.17-37.35M121.85,27.61c31.89-2.4,57.28,11.35,74,25.82,1.16,1,2,2.16,3,3.24s2.15,1.84,3.27,3c14.67,15.14,24.84,39.49,26.3,61.69,3.79,57.66-40.57,103.21-93.62,106.78C77.17,232,31.43,187.64,27.9,134.58,26,106.42,37,76.25,56.92,57.1,75,39.71,95,29.62,121.85,27.61Z"/><path class="cls-3" d="M121.85,27.61C95,29.62,75,39.71,56.92,57.1,37,76.25,26,106.42,27.9,134.58c3.53,53.06,49.27,97.43,106.93,93.56,53-3.57,97.41-49.12,93.62-106.78-1.46-22.2-11.63-46.55-26.3-61.69-1.12-1.16-2.19-1.92-3.27-3s-1.87-2.24-3-3.24c-16.72-14.47-42.11-28.22-74-25.82M36,121.09C33.72,110.61,44.82,85,51.79,75.17c5.87-8.27,7.61-9.56,14.55-16.38C70,55.2,79,48.48,84.48,46.19c2.42-2.27,14.43-6.41,18.63-7.63,48.14-13.91,100.82,15.07,114.05,63.17,1.33,4.22,4,15,3.15,19.42,1.91,3.2,0,18-.7,22.31-7.16,43.59-45.53,77.06-91.44,77.17a93.08,93.08,0,0,1-39.5-8.82C75.73,205.94,62.43,194.86,55.08,185A92.52,92.52,0,0,1,41.89,162C38.44,153.36,32.33,127.49,36,121.09Z"/><path class="cls-3" d="M240.27,124c-.62,14.35-1,24.6-5.17,37.35C209,240.26,117.12,261.57,60.27,217a127.22,127.22,0,0,1-11.41-9.85A127.46,127.46,0,0,1,39,195.77C-7.25,136.54,19.24,44.29,94.69,20.94c13.44-4.16,22.55-4.62,37.34-5.16,0-3.23.49-5.25.49-7.74-23,0-43.87,3.58-63.69,15.55-1.37.82-2.3,1.21-3.68,2.12C60.42,28.83,52.51,34.1,48.8,37.87c-2.41,2.45-5.72,4.6-8.57,8.34s-6,6.32-10.15,12.56c-19.09,29-26.84,60-19.13,95a124.93,124.93,0,0,0,12.52,32.9c4.43,8.26,13,19.34,19.77,26.13l8.95,8c1.16.94,2,1.64,3.22,2.58a122.51,122.51,0,0,0,29.13,16.29c40.29,16.15,85.19,8.16,118.8-18.23,14.3-11.23,24.66-25,32.74-41.18C245.69,161,248,144.88,248,123.52c-2.49,0-4.51.48-7.73.48"/><path class="cls-4" d="M220.31,121.15c-.76,2.75.24,4.73-.75,7.73-4.57,14-13.77,25.91-24.79,34.67a102.34,102.34,0,0,1-47.29,20.67v1.64c5.29,0,11.2-1.45,11.6,4.32.15,2.12.21,14.32-.16,15.83-1.08,4.38-8.41,3-12.88,3h-31.9c-4.47,0-11.81,1.34-12.88-3-.37-1.52-.31-13.69-.16-15.83.38-5.68,5.93-4.32,11.11-4.32.59-.77.47,1,.5-1.07-29.82-3.27-62.09-22.6-73.52-49.61-5.15-12.19-2-9.57-3.19-14.09-3.68,6.4,2.43,32.27,5.88,40.87A92.52,92.52,0,0,0,55.08,185c7.35,9.84,20.65,20.92,33.59,26.79a93.08,93.08,0,0,0,39.5,8.82c45.91-.11,84.28-33.58,91.44-77.17.72-4.34,2.61-19.11.7-22.31"/><path class="cls-3" d="M112.72,184.79c0,2.11.09.3-.5,1.07-5.18,0-10.73-1.36-11.11,4.32-.15,2.14-.21,14.31.16,15.83,1.07,4.38,8.41,3,12.88,3h31.9c4.47,0,11.8,1.34,12.88-3,.37-1.51.31-13.71.16-15.83-.4-5.77-6.31-4.32-11.6-4.32V117.72c0-4.62,1.23-18-1.71-20-2.25-1.56-37.61-.86-43.25-.77-4.12.06-5.29,1.7-5.31,5.79-.06,19.94-1.8,17.42,15.49,17.42ZM105,104.67h34.67l.13,83.6c0,6.44,4.42,5.31,11.59,5.31v7.74H108.84v-7.74c7.13,0,11.59,1.13,11.59-5.31V117.72c0-6.86-5.35-5.31-15.46-5.31Z"/><path class="cls-5" d="M105,112.41c10.11,0,15.46-1.55,15.46,5.31v70.55c0,6.44-4.46,5.31-11.59,5.31v7.74h42.52v-7.74c-7.17,0-11.59,1.13-11.59-5.31l-.13-83.6H105Z"/><path class="cls-6" d="M84.48,46.19c-.66,3.57,3.38,5.93,7,4.93,2.65-.73,6.22-2.67,9.34-3.73C106,45.62,117,42.61,122.68,43.1c1.72.12,9.34.12,11,0,7.15-.68,22.78,4.41,28.73,7a85.82,85.82,0,0,1,38.41,33.58c8.6,13.83,6.12,21.66,16.34,18-13.23-48.1-65.91-77.08-114-63.17-4.2,1.22-16.21,5.36-18.63,7.63"/><path class="cls-3" d="M122.68,43.1c-1,.93-19.75,6-17.53,25.7,3,26.91,43,26.94,46,0A22.79,22.79,0,0,0,146.57,52c-5-6.83-11.07-7.15-12.89-8.87-1.66.12-9.28.12-11,0m-9.9,24.37c-1.64-20.69,29-22.84,30.76-2.88a15.45,15.45,0,0,1-30.76,2.88Z"/><path class="cls-5" d="M112.78,67.47a15.45,15.45,0,0,0,30.76-2.88c-1.8-20-32.4-17.81-30.76,2.88"/><path class="cls-7" d="M214.82,56.36c.49,1.52,3.51,5.11,4.67,6.15,1.91-1,4.07-3,6.28-4.22-1.33-2.53-3.23-4.37-4.83-6.77-2.14,1.44-3.86,3.34-6.12,4.84"/><path class="cls-7" d="M193.51,36.55a31.16,31.16,0,0,0,6.17,4.64c1.51-2.2,3.42-4,4.83-6.09-2.39-1.61-4.24-3.5-6.76-4.84-1.28,2.41-3.07,4-4.24,6.29"/><path class="cls-7" d="M167.71,22.53c.08.09.22.09.26.25.17.58,6.09,2.79,6.58,3,1.22-1.85,2.25-4.94,3.39-7.08-1.69-.9-5.5-2.72-7.73-2.9-.51,1.05-.68,1.88-1.18,3.17s-.86,2.13-1.32,3.59"/><path class="cls-7" d="M230.27,81.48C231,83.42,232,87,233.5,88.22c2.15-.44,4.6-1.88,6.77-2.39-.16-1.94-2.1-6.22-2.9-7.73-2.33,1.23-4.87,1.94-7.1,3.38"/><path class="cls-8" d="M153.78,18.8,161,20.5c.56-2.16,1.88-5.24,1.94-7.63-2.59-.6-5.15-1.33-7.73-1.93-.25,2.93-1.45,4.45-1.45,7.86"/><path class="cls-9" d="M139.63,16.25l6.9,1A53.33,53.33,0,0,0,148,9.49c-2.82-.24-4.87-1-8.22-1,0,2.83-.95,4.78-.13,7.73"/><path class="cls-8" d="M235.5,95l1.74,7.25c3.14-.06,4.82-1.38,7.86-1.45-.5-2.15-1.77-5.76-1.93-7.73-3.15,0-5,1.27-7.67,1.93"/><path class="cls-9" d="M238.94,109l.85,7.37c2.62.75,4.58-.13,7.73-.13,0-3.34-.73-5.4-1-8.21-2.7.06-4.55,1-7.61,1"/><path class="cls-7" d="M223.41,68.44l3.81,6.45A36.25,36.25,0,0,0,234,71.34a73,73,0,0,0-3.87-6.77c-1.82.43-5.27,2.83-6.71,3.87"/><path class="cls-8" d="M204.8,45.73l5.51,5.47,5.43-5.36c-1.25-1.79-4.26-5.25-6.4-5.43-.61,2.31-3,3.61-4.54,5.32"/><path class="cls-7" d="M181.1,28.81l6.5,3.8,3.87-6.69c-1.72-1.15-5.08-3.36-7.25-3.87-.54,2.32-2.63,5.19-3.12,6.76"/></g></svg>