<svg xmlns="http://www.w3.org/2000/svg" viewBox="0 0 256 256"><defs><style>.cls-1{fill:#f9d889;}.cls-2{fill:#d8deec;}.cls-3{fill:#5b5d6d;}.cls-4{fill:#ed6d66;}.cls-5{fill:#f0f2fa;}.cls-6{fill:#5bd0fc;}.cls-7{fill:#cbe580;}.cls-8{fill:#fff;}.cls-10,.cls-11,.cls-12,.cls-13,.cls-8,.cls-9{fill-rule:evenodd;}.cls-10{fill:#e7e7e7;}.cls-11{fill:#ccc;}.cls-12{fill:#b2b2b2;}.cls-13{fill:#989898;}</style></defs><g id="MasivoConfig"><polygon class="cls-1" points="44.79 130.8 35.15 87.14 40.24 86.44 36.91 67.16 47.77 65.58 44.44 49.28 56.89 45.77 53.38 30.87 86.17 26.31 129.29 27.01 140.51 26.14 143.14 18.6 163.83 20.35 164.53 28.06 174.88 29.11 178.56 46.65 183.82 48.05 183.12 63.3 191.36 66.46 189.25 83.11 199.59 86.27 194.69 131.5 149.63 132.55 140.69 149.91 90.55 150.08 80.56 132.37 44.79 130.8"/><polygon class="cls-2" points="12.74 134.37 13.52 157.44 20.11 177.41 105.98 180.32 180.42 177.02 209.5 174.69 214.35 134.96 209.69 126.43 198.45 115.38 194.69 131.5 149.63 132.55 140.69 149.91 90.55 150.08 80.56 132.37 44.79 130.8 37.75 108.2 12.74 134.37"/><path class="cls-3" d="M113.54,158.41c-6,1.26-18.06-2-20.46,5.9-1.09,3.57,1.34,4.6,4.45,5.16,6.59,1.2,14.1.56,20.77.57,5.22,0,10.76.06,15.9-.91,3.31-.63,5.11-1.72,5.68-5.44.61-4-1.93-4.58-5.23-4.85a201.16,201.16,0,0,0-21.11-.43"/><path class="cls-3" d="M36.59,108.59c-5.34,5.36-11.17,10.21-16,16-1.95,2.33-4.82,5.08-5.61,8.13,5.12.65,11.2-.87,16.49-.79a103.65,103.65,0,0,0,12.08-.35c.64-4.88-1.34-10.5-2.77-15.1-.88-2.85-1.14-6.86-4.15-7.92"/><path class="cls-3" d="M198.26,116.93c-1.32,3.46-1.38,7.48-1.94,11.11a24.43,24.43,0,0,0-.58,5c5.38.35,11,1.05,16.45.76.44-4.16-2.56-7.31-5.59-9.6s-4.93-5.84-8.34-7.23"/><path class="cls-4" d="M148.08,84.21c0-1,0-2,0-3s-1-4.24-.49-5.07c.75-1.15,6.49-.42,7.83-.49,4.73-.26,9.47-.07,14.2-.36a23.23,23.23,0,0,1,4.4-.13c.5,1.41.07,3.72.16,5.24.05,1,0,1.94.07,2.91a93.88,93.88,0,0,1-16.76.73c-3.42-.21-6.82-.61-9.43.14"/><path class="cls-5" d="M147.73,62.88c0-2.18.07-4.37.28-6.53a28.89,28.89,0,0,1,4.54.22c3.54.5,7.25.24,10.82.36,1.16,0,2.64-.32,3.4.39.95.9.68,5.15.32,6.39-1.94.06-3.87-.18-5.86-.05-4.92.31-9.39.28-13.5-.78"/><path class="cls-6" d="M143.22,44.75a32.53,32.53,0,0,0,.59-4.4c.13-.94.05-3,.7-3.84s3-1.07,4-1.14c5.2-.33,10.39,1.12,15.56,1.1.38,1,.8,1,.84,2.29.06,2,.34,4.68-.09,6.61-3.1.51-6.58-.43-9.74-.24a79.06,79.06,0,0,1-11.84-.38"/><path class="cls-7" d="M162,19.27A43.43,43.43,0,0,0,151,18c-1.77,0-3.51.39-5.27.52a10.14,10.14,0,0,0-2.53.07c-1,.44-.93,1.44-1.14,2.68a38.74,38.74,0,0,0-.86,5.75,10.51,10.51,0,0,0,2.75.09,50.67,50.67,0,0,1,8.43.72,71.69,71.69,0,0,0,10.55.84c.63,0,2.6.41,3-.25.5-.94-.5-3.33-.81-4.24A10.21,10.21,0,0,0,162,19.27"/><path d="M212.35,136.84c0,1-.07,1.95-.12,2.93-.13,2.38-.26,4.75-.47,7.12a125.76,125.76,0,0,1-1.79,13q-.54,2.9-1.19,5.76c-.43,1.89-.71,4.22-1.7,5.93-.9,1.55-2.75,1.6-4.36,1.77-2.25.25-4.5.46-6.76.65-4.37.37-8.75.63-13.13.85-8.81.44-17.63.68-26.45.94-35.47,1-71.13,3-106.61,1.4-8.69-.4-17.64-.64-26.26-1.9-1.79-.27-2.94-.78-3.64-2.53a45.36,45.36,0,0,1-1.69-6.06,113.48,113.48,0,0,1-2.4-12.77,110,110,0,0,1-.88-12.82c0-1.14-.46-4.2.53-4.92.46-.33,1.59-.21,2.12-.24,1.3-.08,2.59-.21,3.88-.31,2.66-.23,5.33-.43,8-.64,13.41-.58,26.82-.85,40.25-.25q3.22.14,6.44.33a11.91,11.91,0,0,1,3,.25c.82.31,1.12,1.15,1.47,1.91,1.77,3.75,3.11,7.86,5.25,11.42s5.32,4,9,4.21q6.38.34,12.74.51,13.17.34,26.35-.06c3.68-.11,8.1.29,10.15-3.42,1.9-3.46,3.12-7.48,4.63-11.12.68-1.66,1.18-4.67,3.17-4.84a59.15,59.15,0,0,1,6.91.21q6.47.21,13,.39c9.06.27,18.13.51,27.19.81l6.48.21,3,.1c.9,0,2.72-.24,3.57.12l.26.09a6.91,6.91,0,0,0,0,1m-194.5-6.93q3.62-3.5,7.25-7t7.22-7c1.54-1.51,3.2-3,4.75-4.51,1.33,6.12,2.78,12.21,4.44,18.25q-5.46.19-10.92.58-2.93.22-5.84.5c-2.11,0-4.23.11-6.34.22-.64,0-1.29.07-1.93.15C17,130.74,17.42,130.32,17.85,129.91Zm178.76-27.55a236.44,236.44,0,0,1-3.25,27.71l-21.52-.38-14.68-.24c-3.68,0-8.38-1.06-10.42,2.83-2.16,4.13-3.77,8.67-5.63,12.95A8.47,8.47,0,0,1,140,147.7c-.71.66-2,.46-2.95.48-2.4,0-4.81.15-7.22.21q-14.23.31-28.47-.24c-2.26-.09-4.53-.19-6.79-.32S91,147.5,90,145.5c-2-4-3.24-8.6-5.71-12.34s-6.9-3.13-10.74-3.3q-7.08-.3-14.18-.36c-4.6,0-9.21,0-13.83.1-1.18-8.45-2.78-16.83-4.5-25.19,7.88.16,15.75-.12,23.63-.37l6.49-.2c1.31,0,2.88.1,4.06-.56,2.09-1.16,2.2-4.58,2.22-7.1,3.83-.35,7.73-.31,11.56-.37,2.14,0,4.27,0,6.4,0h3a6.69,6.69,0,0,1,1.55,0c.86.2.74.33.92,1.22.25,1.25.11,2.22.87,3.34a6,6,0,0,0,3,2.12c3.23,1.11,7.06.48,10.39.37q26.4-.89,52.81-.85C177.47,102,187,102.14,196.61,102.36ZM67,87.54Q83,87,99,86.8q32.21-.45,64.41,0,16.89.22,33.76.64-.06,5.86-.36,11.7-25.6-.46-51.23-.17-13.31.15-26.62.55c-3.79.11-7.88.7-11.65.24-1.55-.19-3.18-.59-3.49-2.3-.24-1.3-.08-2.64-1.15-3.63-1.23-1.15-3.15-.92-4.69-.93-2.42,0-4.83,0-7.25,0-5,0-10,.39-14.92.15a1.68,1.68,0,0,0-1.6,1.22c-.22,1.41-.36,2.83-.48,4.25,0,.42.13,1.65-.21,2s-1.83.11-2.34.14c-3.61.15-7.22.29-10.82.46-6.59.32-13.17.61-19.73,1.24-.94-4.5-1.91-9-2.87-13.49C47.43,87.85,57.29,87.85,67,87.54Zm79-8.84-.06,3.2c-25,0-50,.49-75,1.19-9.29.27-18.67.92-28,1-.27-1.21-.53-2.42-.77-3.63l6.34.18c2.58.07,5.67.6,8.18,0,3.11-.79,4.11-3.65,4.14-6.5,3.27-.27,6.57-.25,9.83-.35,1.71,0,4.21-.78,5,1,.47,1,.49,2.07,1.24,3a4.16,4.16,0,0,0,3.25,1.3c2,.09,4,0,6,0l12-.08Q122.1,78.76,146,78.7ZM172,77.48c-.1,1.5-.2,3-.25,4.5q-11-.09-22.07-.09c.21-1.32.42-2.65.61-4,3.62-.67,7.47-.46,11.12-.49S168.5,77.42,172,77.48Zm15.87.63c-.26,1.36-.54,2.72-.85,4.07q-5.43-.09-10.86-.15c.11-1.4.17-2.8.23-4.2a43.78,43.78,0,0,0,4.67.22A67.26,67.26,0,0,0,187.9,78.11ZM97.35,65.4c20.07-.23,40.17-.33,60.23.49,10.6.44,21.14,1.39,31.71,2.18q-.3,3.51-.86,7a62.13,62.13,0,0,0-7.34.29c-1.46.1-3.06.12-4.57.37,0-.13,0-.25,0-.38a2.2,2.2,0,0,0-2.18-2.18Q167.48,73,160.6,73c-4.27,0-8.7-.17-12.88.89a2.28,2.28,0,0,0-1.63,2q-23.93,0-47.87-.08l-12,0a40.3,40.3,0,0,1-6,0c-1.64-.26-1.39-1.77-2.06-3-1.47-2.79-4.84-2.1-7.48-2-3.87.09-7.8.35-11.66.09a1.79,1.79,0,0,0-1.77,1.77,13.57,13.57,0,0,1-.31,3.92c-.65,2-3.31,1.54-5,1.59-3.39.09-6.78.2-10.17.31-.57-3-1.11-5.94-1.67-8.93C58.92,66,78.22,65.63,97.35,65.4Zm47.88-4.18c-4.64-.06-9.28-.11-13.92-.11-20.11,0-40.28-.18-60.37.76q-10.77.51-21.51,1.54c-.38-1.6-.7-3.22-1-4.84,4.14-.07,8.27-.34,12.41-.35a1.49,1.49,0,0,0,1.32-.75c.47-1.09.91-2.18,1.34-3.28,3.76-.3,7.52-.45,11.3-.6l6-.24a9.57,9.57,0,0,1,2.67-.1c1,.31,1.07,1.37,1.6,2.09,1.78,2.4,5.59,1.79,8.15,1.78q6.26,0,12.51,0c13.11,0,26.21,0,39.31,0A15.71,15.71,0,0,0,145.23,61.22Zm20.7.5-4.48-.14q-6.19-.18-12.4-.29c0-1,0-2.2.1-3a1.55,1.55,0,0,0,.68-.12l1.63-.08c.94,0,1.89-.07,2.84-.07a71.73,71.73,0,0,1,11.44.89C165.8,59.85,165.86,60.78,165.93,61.72Zm15.68-4.5c-.08,1.72-.21,3.44-.41,5.16-3.73-.23-7.47-.39-11.21-.52l-.33-4.66a.59.59,0,0,0,0-.14Q175.63,57.09,181.61,57.22ZM51.84,49.13c2.41-.33,4.83-.52,7.26-.67,4.35-.28,8.7-.43,13.05-.56q13.57-.4,27.16-.5,26.94-.18,53.87.87c9.46.37,18.91.94,28.35,1.59.1,1.54.15,3.06.15,4.59q-9.17.11-18.33.08a74.35,74.35,0,0,0-12.3-.52,13,13,0,0,0-4.15.43l-12.65-.06c-8.34,0-16.69-.13-25-.2l-12.51-.1-6,0a8,8,0,0,1-2.59-.16c-1-.4-.93-1.42-1.46-2.15a3.78,3.78,0,0,0-3.11-1.38c-2.16-.09-4.38.15-6.54.23-4.88.18-9.75.39-14.63.33a1.74,1.74,0,0,0-1.63,1.24c-.36,1-.7,2.1-1,3.16-3.85.44-7.72.71-11.58,1.16-.35-2.21-.67-4.43-1-6.63A47.14,47.14,0,0,1,51.84,49.13Zm90-5.6q-33.75-.83-67.51.18c-5.07.16-10.15.33-15.21.67l-1.37.1c0-1.58-.18-3.16-.33-4.74,3.39-.06,6.8-.18,10.18,0A1.48,1.48,0,0,0,69,38.68a31.72,31.72,0,0,0,1.31-3.77c3.18-.29,6.43-.24,9.61-.33,1.68,0,11-1.17,9.52,2.37-.4,1,.59,1.92,1.48,1.94,9.1.21,18.21.25,27.32.19,7.84-.06,15.81,0,23.65-.62,0,.33-.05.66-.07,1A25.61,25.61,0,0,0,141.82,43.53Zm21.24.69q-8.91-.36-17.8-.6c.15-1.94-.22-5.33,1.93-6.23a7,7,0,0,1,3.15-.28l7.4.48,1.4.09a7.71,7.71,0,0,1,2.58.47,2,2,0,0,1,1.39,2.07A31.32,31.32,0,0,0,163.06,44.22Zm-106.61-12c.23-.7,1.47-.69,2.4-.87,1.09-.22,2.19-.4,3.3-.57,2.56-.39,5.14-.71,7.72-1,9.61-1,19.26-1.35,28.92-1.41,19.65-.12,39.36.19,59,1.55q4,.29,8.06.63c1.27.12,2.54.23,3.81.36,1,.1,3.46-.13,4.24.43,0,0,0,.05.24.38a9.25,9.25,0,0,1,.49,2.37c.13.7.24,1.4.32,2.1-.07-.56-22.9-1.8-25.08-2a11.73,11.73,0,0,0-4.54.21c-.86.27-1.66.74-2.52,1a12.34,12.34,0,0,1-3.59.41c-7,.12-14,.35-21,.39-8.58,0-17.16-.12-25.73-.39-.43-2.93-3.86-4.25-6.8-4.27-5.55,0-11.17.62-16.72.21A1.64,1.64,0,0,0,67.41,33a23.8,23.8,0,0,0-1.06,4c-3,.34-6.09.48-9.14.67-.06-.62-.13-1.23-.22-1.85C56.87,35,56.19,33,56.45,32.23Zm87.14-10.72.12-.79c0-.14.07-.26.09-.37a11.06,11.06,0,0,0,1.57.06,71.37,71.37,0,0,1,8.13.6c2.54.3,5.07.61,7.61.93l.79.09a1.12,1.12,0,0,0,.69.19c0,.23,0,.46,0,.69,0,.94.05,1.88.05,2.81-6.51-.5-13-.85-19.55-1.11C143.27,23.58,143.42,22.54,143.59,21.51Zm31.63,17.73c.13,1.84.18,3.69.27,5.54l-8.28-.38a44.08,44.08,0,0,0-.07-5.63C169.83,39,172.53,39.19,175.22,39.24Zm24.46,79.05c1.75,2.32,3.73,4.54,5.43,6.75,1.32,1.72,2.64,3.51,4,5.25h-1l-7.77-.11-2.33,0C198.61,126.21,199.18,122.26,199.68,118.29Zm18,16.45a2,2,0,0,0-.24-1.51c-2.33-4.14-5.81-7.74-8.92-11.31-1.56-1.79-3.11-3.59-4.68-5.37a22.65,22.65,0,0,0-3.49-3.43c1.06-9.37,1.75-18.79,1.91-28.18a2.56,2.56,0,0,0-2.52-2.52l-8.07-.16c1-5.25,1.92-10.51,2.72-15.81A2.56,2.56,0,0,0,192,63.3q-3.16-.34-6.35-.6a93.92,93.92,0,0,0,.55-15.09,2.45,2.45,0,0,0-2.4-2.4l-3.82-.2a49.81,49.81,0,0,0-1.45-14.47,4.46,4.46,0,0,0-3.35-3.63,52.38,52.38,0,0,0-8.32-.85,32,32,0,0,0-.1-5.19,3.07,3.07,0,0,0-2.15-2.72c-1.77-.59-4-.52-5.83-.74s-3.77-.48-5.66-.7-4-.46-6-.55c-1.78-.08-4.23-.45-5.89.32a3,3,0,0,0-1.67,2.87c-.06,1.7,0,3.42.08,5.14-2.17-.07-4.33-.14-6.5-.19-22-.54-44.28-1.11-66.15,1.41-3,.35-6,.81-9,1.22-2.38.32-5.34.22-6.42,2.85-.92,2.22.21,5.56.67,7.79.49,2.4,1.06,4.84,1.79,7.2l-2,.15c-2.64.21-5.29.73-7.92.48a2.69,2.69,0,0,0-2.68,2.68,54.47,54.47,0,0,0,4.13,15.73c-2.82.3-5.63.64-8.44,1A2.62,2.62,0,0,0,34.61,68a69.44,69.44,0,0,0,4.49,16c-1.5,0-3,0-4.5-.11a2.64,2.64,0,0,0-2.51,3.3c1.28,6.27,2.52,12.57,3.84,18.84a101.26,101.26,0,0,0-7.4,7.25c-2.85,2.87-5.63,5.8-8.39,8.77-2.55,2.74-5.28,5.41-7.58,8.37-1.4,1.8-2.39,3.71-2.21,5.81-.6,4-.14,8.57.11,12.62A121,121,0,0,0,12,162.35c.75,4.3,1.45,9,3.2,13.05,1.66,3.81,5.06,4.94,8.92,5.39,38,4.39,76.51,1.74,114.57.53,19.06-.61,38.22-.71,57.24-2.15,3.92-.3,8.92,0,12.5-1.84s4.5-5.89,5.42-9.45a120.46,120.46,0,0,0,4-27.69A26.27,26.27,0,0,0,217.64,134.74Z"/><path d="M136,167.21a13.58,13.58,0,0,1-5.25,1c-6.07.42-12.15.67-18.24.56a81.33,81.33,0,0,1-9.1-.47c-2.21-.29-4.78.16-6.87-.57-1.69-.6-3.1-2.39-2.63-4.11.61-2.23,3.5-2.7,5.8-2.75,10.88-.23,21.78-.32,32.65-.8l1,.06c2,.13,4.42-.18,4.51,2.37.06,1.88,0,3.76-1.89,4.71m1.23-10.2a13,13,0,0,0-4.44-.68q-10.14.1-20.25.6c-5.46.26-10.91.12-16.35.81a6.48,6.48,0,0,0-4.66,2.33,8.31,8.31,0,0,0-1,4.76c0,1.67,0,3.52,1.19,4.72a6.4,6.4,0,0,0,3.92,1.5,171.52,171.52,0,0,0,36,.67c3.71-.27,8.09-1.11,9.47-5.11C142.77,161.6,140.89,158.34,137.22,157Z"/><path class="cls-8" d="M177.87,155.16a16.45,16.45,0,1,1-16.45,16.45,16.45,16.45,0,0,1,16.45-16.45"/><path class="cls-9" d="M189.7,227.35c-.09,7.42-1.57,6.17-11.36,6.17-8.26,0-12.49,1.46-12.57-4.64-.12-9.84,1.28-7.51-6.81-10.8-7.14-2.91-5.9-4.73-11.26.66-4.8,4.84-5.15,5.24-10.14.23-2.95-3-5.62-5.64-8.58-8.59-1.6-1.59-3.12-3.56-.65-6,6.11-6.06,7-5.61,4.45-10.78a46.08,46.08,0,0,1-2.42-6c-1-3-1.17-3.89-4.76-3.94-2.32,0-6.47.6-8.22-.67C115,181.3,116,171,116,167.3c0-9.84,1.57-7,10-7.5,3.14-.19,3.36-1.9,4.23-4.57a49.08,49.08,0,0,1,2.41-6c2.79-5.67.24-4.71-4.65-10.34-2.91-3.36,1.27-6,5.48-10.18,2.88-2.88,6.89-8,9.64-7.62,4,.61,4.38,7.68,10.92,6,.82-1.31,5-2.64,6.75-3.3,3.3-1.23,4.93-.92,5-5,.05-2.67-1-7,1.69-8.33,1.41-.7,7.49-.44,9.58-.44,11.86,0,12.63-1.42,12.6,7.5,0,6.88,1.33,3.46,11.32,8.72,7.47,3.93,7.66-6.89,13.18-4.89,1.3.48,8.77,8.31,10.33,9.87,5.85,5.83,4.91,5.86-.63,11.32-3.54,3.48-.64,4.15,2.72,14.22,1.26,3.78,3.12,3.1,7,3.06,3.69,0,5.72.26,5.87,4.14,1,26.66-1.68,18.16-10.36,19.89-2.68.53-2.89,3.48-3.92,6.08-3.23,8.16-5.77,6.81.45,13,1.48,1.47,4.06,3.14,2,6.21a55,55,0,0,1-5,5.1c-10.74,10.75-8.68,10.41-16.42,3-2.54-2.43-3.55-1.68-6.68-.13-9.7,4.84-10,.63-9.93,10.27m-18.88,12.5c4.86,0,16.32.74,19.94-1.08,4.43-2.22,5.33-5.79,5.25-10.35-.06-3.21-.56-3,2-3.62l4.6-2,1.95,1.87,5.35,4c3.09-.24,3.57.69,6.89-.65,3.05-1.31,8.19-7.32,10.48-9.6,5.11-5.1,7.28-5.64,7.52-12.49L231.94,200,229,197.09l3-7c16.22,0,13.76-8,13.76-22.44l-.05-6.59c-1.42-3-1.44-4.2-4.36-6.11s-4.82-1.43-9-1.43a33.34,33.34,0,0,0-2.93-7.12c2.71-4.05,5.44-3.71,5.44-10.47,0-4.95-6.09-9.64-8.9-12.45-3-3-7.4-8.9-12.88-8.9-6,0-6.27,3.19-9.63,5.44-2.34-.54-4.38-2.28-7.12-2.51,0-4.42-.07-6.55-1.83-9.47a9.19,9.19,0,0,0-7.38-4.35H168.29c-3.29,0-5.72,2.16-7.2,4.11-2,2.69-1.6,5.29-1.6,9.71a37.38,37.38,0,0,0-7.11,2.93c-1.88-2.8-5.9-5.86-9.64-5.86-6.06,0-9.82,5.43-13.08,8.69-3.07,3.06-9.11,7.57-9.11,13.08,0,6.54,5.86,9.46,5.86,10.47,0,.85-2.1,5.93-2.51,6.7-4.3,0-7.13-.47-9.89,1.42-2.07,1.43-4.35,4.08-4.35,7.38v18.84a9.26,9.26,0,0,0,4.29,7.44c2.66,1.89,6,1.77,10.37,1.77a34.15,34.15,0,0,1,2.51,6.28c-2.69,4-6.28,4-6.28,10.89,0,5,6.09,9.65,8.9,12.46,4.4,4.4,6.93,8.9,13.71,8.9,5.19,0,7.1-4.31,10.05-6.29a29,29,0,0,0,6.28,2.52c0,6.43-.93,9.68,4.61,13.4Z"/><path class="cls-10" d="M154.05,127.09c-23.67,26.27-20.75,64.92,6.27,87.54,6.47,5.41,18.05,11.48,29.38,12.72-.08-9.64.23-5.44,9.93-10.27,3.12-1.55,4.13-2.3,6.68.13,7.74,7.4,5.68,7.74,16.42-3a55,55,0,0,0,5-5.1c2-3.07-.56-4.74-2-6.21-6.22-6.19-3.68-4.84-.45-13,1-2.6,1.25-5.55,3.92-6.08,8.68-1.73,11.39,6.77,10.36-19.89-.15-3.88-2.18-4.18-5.87-4.14-3.91,0-5.76.72-7-3.06-3.36-10.07-6.26-10.74-2.72-14.22,5.54-5.45,6.48-5.49.63-11.32-1.56-1.56-9-9.39-10.33-9.87-5.52-2-5.71,8.82-13.18,4.89-10-5.26-11.35-1.84-11.32-8.72,0-8.92-.74-7.49-12.6-7.49-2.09,0-8.17-.27-9.58.43-2.69,1.33-1.64,5.65-1.69,8.33-.08,4.12-1.71,3.81-5,5-1.77.66-5.93,2-6.75,3.3m42.48,17.66a8,8,0,0,0,2.25,2.1,9.47,9.47,0,0,1,1.41,1.11c.89.95.42.29.93,1.4,3.09-1.56,4-.86,5.52,1.36a37.53,37.53,0,0,1,3.32,5.46,36.65,36.65,0,0,1,3.47,14c.5,11.54-4,19.21-9.15,25.54a36.7,36.7,0,0,1-10,7.63c-13.67,7-29,4.78-39.48-4.21-23-19.69-13.5-56.82,16.23-62.56a36.2,36.2,0,0,1,15.66.54,38.1,38.1,0,0,1,6.47,2.31C196.08,140.8,196.47,141.25,196.53,144.75Z"/><path class="cls-11" d="M189.7,227.35c-11.33-1.24-22.91-7.31-29.38-12.72-27-22.62-29.94-61.27-6.27-87.54-6.54,1.7-7-5.37-10.92-6-2.75-.42-6.76,4.74-9.64,7.62-4.21,4.22-8.39,6.81-5.48,10.17,4.89,5.64,7.44,4.68,4.65,10.35a49.08,49.08,0,0,0-2.41,6c-.86,2.67-1.09,4.38-4.23,4.57-8.45.51-10-2.33-10,7.5,0,3.72-1,14,1.38,15.73,1.75,1.27,5.9.64,8.22.67,3.59,0,3.73.91,4.76,3.94a46.08,46.08,0,0,0,2.42,6c2.59,5.17,1.66,4.72-4.45,10.78-2.47,2.44-1,4.41.65,6,3,3,5.63,5.61,8.58,8.59,5,5,5.34,4.6,10.14-.23,5.36-5.39,4.12-3.57,11.26-.66,8.09,3.29,6.69,1,6.81,10.8.08,6.1,4.31,4.64,12.57,4.64,9.79,0,11.27,1.25,11.36-6.17"/><path class="cls-9" d="M201.12,149.36c-2.44,3.94,2.06,5.28,4.65,13.54a30.58,30.58,0,0,1,.12,17.3,29,29,0,0,1-7.57,12.52c-2.06,2-8.56,7.28-12.89,7.09l-2.55.92a29.73,29.73,0,0,1-20.61-4c-13.62-8.72-18-26.16-10.05-39.68,3-5.09,9.37-11.74,16.48-13.18,2.92-1.89,11-1.75,14.8-1a29.21,29.21,0,0,1,6.64,2.15c4.3,2,3.46,1.53,6.39-.3-.06-3.5-.45-3.95-3.33-5.28a38.1,38.1,0,0,0-6.47-2.31,36.2,36.2,0,0,0-15.66-.54c-29.73,5.74-39.21,42.87-16.23,62.56,10.49,9,25.81,11.16,39.48,4.21a36.7,36.7,0,0,0,10-7.63c5.11-6.33,9.65-14,9.15-25.54a36.65,36.65,0,0,0-3.47-14,37.53,37.53,0,0,0-3.32-5.46c-1.54-2.22-2.43-2.92-5.52-1.36"/><path class="cls-12" d="M168.7,143.91c-3,3.53-5,5.13-7.42,10.12-.69,1.43-4.8,12.73-2.63,13.48,2.33-8,8.08-14.59,17.61-15.24,20.82-1.42,28.63,25.61,11.82,36.07-13,8.06-23.7-2.43-24.38-2.62-.65.28-.8-.51.15,1l3.25,4A32.62,32.62,0,0,0,172,195c2.93,2.09,8.94,5.36,13.39,4.86,4.33.19,10.83-5.1,12.89-7.09a29,29,0,0,0,7.57-12.52,30.58,30.58,0,0,0-.12-17.3c-2.59-8.26-7.09-9.6-4.65-13.54-.51-1.11,0-.45-.93-1.4a9.47,9.47,0,0,0-1.41-1.11,8,8,0,0,1-2.25-2.1c-2.93,1.83-2.09,2.27-6.39.3a29.21,29.21,0,0,0-6.64-2.15c-3.81-.74-11.88-.88-14.8,1"/><path class="cls-9" d="M158.65,167.51c-.51,4-.77,6.69.59,10.51s2.82,4.94,4.46,7.7c.68.19,11.41,10.68,24.38,2.62,16.81-10.46,9-37.49-11.82-36.07-9.53.65-15.28,7.24-17.61,15.24m32.25,4c0,7.2-5.82,13.4-13,13.4a13.11,13.11,0,0,1-8.52-23.17C177.76,154.32,190.9,161.15,190.9,171.49Z"/><path class="cls-13" d="M185.43,199.81C181,200.31,175,197,172,195a32.62,32.62,0,0,1-4.94-4.27l-3.25-4c-.95-1.51-.8-.72-.15-1-1.64-2.76-3.06-3.78-4.46-7.7s-1.1-6.54-.59-10.51c-2.17-.75,1.94-12,2.63-13.48,2.42-5,4.39-6.59,7.42-10.12-7.11,1.44-13.5,8.09-16.48,13.18-7.92,13.52-3.57,31,10.05,39.68a29.73,29.73,0,0,0,20.61,4Z"/></g></svg>