<svg xmlns="http://www.w3.org/2000/svg" viewBox="0 0 256 256"><defs><style>.cls-1,.cls-2,.cls-3,.cls-4{fill-rule:evenodd;}.cls-2{fill:#fdb656;}.cls-3{fill:#90542c;}.cls-4{fill:#56545b;}</style></defs><g id="Custodio"><path class="cls-1" d="M88.2,32,31.89,88.08c-6.42-1.41-11.59-.36-16.14,3-6,4.52-7.62,9.17-7.62,16.74,0,7.8,7,13.28,11.12,17.44l29,29C53,159.06,57.47,165,66.66,165c10,0,18.73-7.88,18.73-19.66,0-3.68-1.57-3,1-5.53A31.54,31.54,0,0,1,90.54,136c4.66,8.8,13.72,9.76,22,4.21l6.36,6.76c2,2.55,4.11,4.48,6.08,7l68.22,78.35c7.24,7.43,10.28,15.57,28,15.57,13.93,0,26.69-14,26.69-25.75v-.27c0-5.65-.11-9.45-2.83-14.69-3.71-7.16-21.6-21.47-30.23-29.24l-7.32-6.26c-3.85-3.83-16.32-13.85-21.31-18.49-1.33-1.24-2.29-1.84-3.52-3L163.23,133c-.88-.78-1-.7-1.85-1.43L143.72,116a14.31,14.31,0,0,1-3.55-3.47c3.83-5.72,4.82-11.61.87-17.72A11.85,11.85,0,0,0,136,90.54a30.47,30.47,0,0,1,3.62-3.88c2.7-2.83,1.09-1.27,7.62-1.27,12,0,23.68-15.22,14.44-29.42-1.53-2.35-4.95-5.34-7.07-7.46L140.06,34c-5-4.95-9.57-9.56-14.52-14.52-7.3-7.3-9.59-11.35-20.48-11.35-6,0-11,3.77-13.72,7.35C87.81,20.19,86.59,25.09,88.2,32m16-14.19c5-1.29,8.23,1.62,10.36,3.77l36.29,36.29c8.63,8.58,3.45,16.34-2.57,17.79-5,1.21-8.27-1.84-10.36-3.93L116.14,50c-5-5-9.54-9.58-14.51-14.51-2.19-2.17-5.23-4.75-4.55-10A9.11,9.11,0,0,1,104.18,17.82ZM93.05,40.21,132.7,79.9,79.77,132.58,40.38,92.88Zm34.57,58.68c4.46-2.38,9.29,3.41,4.48,8.4-3,3.11-5.84,5.82-8.9,8.88-2.6,2.6-16.13,16.71-18.07,17.52-5,2.11-9.49-3.34-4.56-8.3C105.33,120.62,125.08,100.26,127.62,98.89ZM24.17,97.46C31.32,95.26,35.86,102,42,108.17l14.52,14.52c4.95,5,9.55,9.58,14.51,14.52,2,2,5.21,4.69,4.88,9.47a9.32,9.32,0,0,1-6.24,8.21c-5.21,1.74-8.89-1.16-11.09-3.36L22.3,115.23c-2.13-2.12-5.11-4.64-4.75-9.67A9,9,0,0,1,24.17,97.46Zm108.4,22c2.15.79,19.79,16.61,22.12,18.81,7,6.65,23,19.33,29.06,25.27a53.83,53.83,0,0,0,7.1,5.92c-.89,2.51-3.34,4.08-5.17,5.9-3.35,3.36-13.71,13.27-15.33,15.52-2.54-1.39-31.09-35.07-32.07-36.21-3.55-4.15-18-20-18.69-22Zm65.07,56.69c3.06,1.46,4.51,4.07,7.3,5.55-.78,2.26-4,4.68-5.64,6.35l-5.62,5.61c-3.58,3.58-7.81,8.34-11.51,11.38-1.74-2.07-5.15-4.91-5.94-7.32Zm14.64,12.44L227.77,202c1.53,1.51,3.21,2.84,4.9,4.47,12.88,12.35,2.76,32.32-13.37,32.05-10.81-.18-16.92-10-24.36-18.68-2.09-2.44-4.7-4.83-6.46-7.56Z"/><path class="cls-1" d="M32.08,201.38c2.79-.74,72.13-.52,80.49-.35,10.06.21,10,11.85,3,13.73-2.79.75-72.46.55-80.72.35-10-.25-10.19-11.72-2.72-13.73M8.13,243.27v-6.64c0-7.45,5.64-15.27,12.17-18.73-.41-1.53-1.3-2.26-1.94-4.14-.93-2.73-.87-3.7-.87-6.63,0-8,7.46-15.45,15.46-15.45h81.47c10.86,0,18.34,11.9,14.47,22.43-.55,1.47-1.44,2.35-1.83,3.79,6.59,3.49,12.18,11.43,12.18,18.73,0,4.64,1.14,11.24-4.22,11.24H12.34C9.38,247.87,8.41,245.85,8.13,243.27Zm9.37-4.77c.74-14.17,12.49-14,21.06-14H108.8c6.13,0,10.85-.63,15.17,2.62a14.38,14.38,0,0,1,5.89,11.43Z"/><path class="cls-2" d="M40.38,92.88l39.39,39.7L132.7,79.9,93.05,40.21Zm51-37.21a4.58,4.58,0,0,1,5.48,7l-22,21.59a4.7,4.7,0,0,1-5.54-7C69.85,76.41,90,56.17,91.34,55.67ZM57.88,89.1C63.76,86.28,67,94.17,62.36,97,57,100.33,52,91.91,57.88,89.1Z"/><path class="cls-3" d="M119.59,132.67c.66,2,15.14,17.87,18.69,22,1,1.14,29.53,34.82,32.07,36.21,1.62-2.25,12-12.16,15.33-15.52,1.83-1.82,4.28-3.39,5.17-5.9a53.83,53.83,0,0,1-7.1-5.92c-6-5.94-22-18.62-29.06-25.27-2.33-2.2-20-18-22.12-18.81Z"/><path class="cls-3" d="M188.48,212.23c1.76,2.73,4.37,5.12,6.46,7.56,7.44,8.72,13.55,18.5,24.36,18.68,16.13.27,26.25-19.7,13.37-32.05-1.69-1.63-3.37-3-4.9-4.47l-15.49-13.34Z"/><path class="cls-3" d="M17.5,238.5H129.86A14.38,14.38,0,0,0,124,227.08c-4.32-3.25-9-2.62-15.17-2.62H38.56c-8.57,0-20.32-.13-21.06,14"/><path class="cls-3" d="M24.17,97.46a9,9,0,0,0-6.62,8.1c-.36,5,2.62,7.55,4.75,9.67l36.28,36.3c2.2,2.2,5.88,5.1,11.09,3.36a9.32,9.32,0,0,0,6.24-8.21c.33-4.78-2.89-7.5-4.88-9.47-5-4.94-9.56-9.57-14.51-14.52L42,108.17C35.86,102,31.32,95.26,24.17,97.46"/><path class="cls-3" d="M104.18,17.82a9.11,9.11,0,0,0-7.1,7.66c-.68,5.21,2.36,7.79,4.55,10,5,4.93,9.56,9.56,14.51,14.51L137.9,71.74c2.09,2.09,5.31,5.14,10.36,3.93,6-1.45,11.2-9.21,2.57-17.79L114.54,21.59c-2.13-2.15-5.39-5.06-10.36-3.77"/><path class="cls-3" d="M32.08,201.38c-7.47,2-7.33,13.48,2.72,13.73,8.26.2,77.93.4,80.72-.35,7-1.88,7.11-13.52-3-13.73-8.36-.17-77.7-.39-80.49.35"/><path class="cls-3" d="M127.62,98.89c-2.54,1.37-22.29,21.73-27.05,26.5-4.93,5-.45,10.41,4.56,8.3,1.94-.81,15.47-14.92,18.07-17.52,3.06-3.06,5.9-5.77,8.9-8.88,4.81-5,0-10.78-4.48-8.4"/><path class="cls-1" d="M91.34,55.67c-1.35.5-21.49,20.74-22,21.58a4.7,4.7,0,0,0,5.54,7l22-21.59a4.58,4.58,0,0,0-5.48-7"/><path class="cls-4" d="M176.23,197.74c.79,2.41,4.2,5.25,5.94,7.32,3.7-3,7.93-7.8,11.51-11.38l5.62-5.61c1.67-1.67,4.86-4.09,5.64-6.35-2.79-1.48-4.24-4.09-7.3-5.55Z"/><path class="cls-1" d="M57.88,89.1C52,91.91,57,100.33,62.36,97c4.61-2.85,1.4-10.74-4.48-7.92"/></g></svg>