<svg xmlns="http://www.w3.org/2000/svg" viewBox="0 0 256 256"><defs><style>.cls-1{fill:#acc608;}.cls-1,.cls-2,.cls-3,.cls-4,.cls-5,.cls-6,.cls-7{fill-rule:evenodd;}.cls-3{fill:#5e6a74;}.cls-4{fill:#fec150;}.cls-5{fill:#e59542;}.cls-6{fill:#fff;}.cls-7{fill:#4d585f;}.cls-8{fill:none;stroke:#fff;stroke-miterlimit:22.93;stroke-width:0.22px;}</style></defs><g id="Detalle"><path class="cls-1" d="M112.34,45.68c-1.56.24-1.64,1-2.73,2.17-.81.84-1.85,1.41-2.1,2.68,1.81,4.51-1.2,5.19-5.63,12.63a66.45,66.45,0,0,0,16.18,86.3c1.8,1.41,9.95,7.18,12.74,7.39,7.29,1.43,11.9,3.07,20.25,3.17a69.85,69.85,0,0,0,60.47-33.32,67,67,0,0,0,7.27-16.23c4.74-16.36,3.35-25.45-.18-41.42-.45-5.51-12.15-18.74-17.08-22.86-23.75-19.84-56.4-20.56-82.41-2.2-2.24,1.58-3.14,3.35-6.78,1.69m56.65,12c1.3,1.66.51,24.85.51,28.92h14.27c3.68,0,11.23-.81,14,.4,10.66.46,13,14.3,4.71,19.19-5.66,3.34-25.28.36-33.33,1.62q0,12,0,23.92c0,6.59-1.24,14.3-10.28,14.32-8.62,0-10.49-6.88-10.47-13.86,0-8.19,0-16.37,0-24.56q-12,0-24.1,0c-4.21,0-6.81.3-10-1.89-5-3.48-6.39-11.09-.63-16.4,2.73-2.52,5.73-2.46,10.13-2.45,8.13,0,16.27,0,24.41,0,1-7.28-1.18-27.46,1.13-32.42C153.81,45,168.16,47.33,169,57.64Z"/><path class="cls-2" d="M236.1,77c2.54,2.65,3.07,18.34,2.91,22.89a78.94,78.94,0,0,1-3.83,21.89c-4.7,14.16-8.6,18.68-16.4,28.77a26.59,26.59,0,0,1-3.26,3.2c-2.86,2.84-2.89,3.23-6.74,6.16a79,79,0,0,1-7.57,5.34,80.26,80.26,0,0,1-39.56,12c-4.36.13-20.37-.37-22.82-2.91-8.75,0-28.41-11.94-35.32-19.07-4.8-4.94-8.29-8.55-12.21-15C69.68,104.78,77.87,65,102.2,40.44a80.22,80.22,0,0,1,81.41-19.69,75.77,75.77,0,0,1,18.46,8.75c2.85,1.91,9.53,6.74,11.75,9a38.66,38.66,0,0,0,3.2,3.24c6.82,6,19.41,27.62,19.08,35.27M94.81,156.46l3.75,3.29c.9,1,.44.25,1.13,1.56l-5,4.67L90,161.06ZM154.7,10h8.55a85.64,85.64,0,0,1,46.07,15.94c1.36,1,1.89,1.31,3.18,2.35a87,87,0,0,1,21.89,25.12c5.76,9.47,11.4,26,11.61,39v2c-.05,7.42-.14,12.35-1.42,18.74-6.32,31.57-27.35,56.33-58.21,66.7-24.28,8.16-47.57,4.65-68.82-6-4.74-2.37-8.45-5.38-12.49-8l-5.18,5c1.78,2.66,3.18,3.75,2.77,8.74-.26,3.13-5.94,12-7.64,14.51-1.91,2.87-3.11,3.48-7.57,3.48-.31,1.17-2.58,4.57-3.41,5.81l-3.69,5.53c-5,7.48-4.34,8.48-9.5,8.48-.75-1.8-1.69-1.1-1.54-3.66.1-1.77,4.15-7.19,5.22-8.8,1.62-2.44,6.59-9.3,7.39-11.7-1.83-1.85-3.63-4.32-6-5.57-.5-1.3-1.58-2-2.89-3.33l-10.3-10.24c-2.37.88-6.63,4-8.88,5.55-9.31,6.56-26.11,16.74-33.68,23.94-9.07,8.64,3.58,27.59,8.46,28.73,1.67,3.47,16.17,10.2,22.84,4.42,2.87-2.49,4.81-5.56,7.3-8.83,4.5-5.9,3.86-7.45,8.86-6,2.22,3.69,1.56,3.63-2,8.64-1.92,2.67-3.59,4.74-5.6,7.31A20,20,0,0,1,46.31,246H41.16C26.82,244.34,12,229.58,10,215.23v-6.34a18.92,18.92,0,0,1,2.66-7.24c4.43-7.07,43.85-32.58,45.74-33.09,0-4.69.77-5.83,3.76-7.75s11.38-7.32,14.67-7.48c4.8-.25,5.69,1,8.19,2.68l5.18-5c-2.83-4.24-5.94-8.15-8.3-12.91a89.43,89.43,0,0,1-6.15-14.58c-6.93-23.51-5.11-46.58,6.77-68.7a88.62,88.62,0,0,1,13.33-18,80.23,80.23,0,0,1,11-9.73A86.25,86.25,0,0,1,154.7,10ZM89.44,171c1.79,1,3,2.54,4.44,4s2.52,2.78,1.21,5.33a96.31,96.31,0,0,1-6.27,10l-6.5-6.47c-1.53-.84-15.78-15-16.69-16.73.7-.71,10.72-7.78,13.55-6.52C79.87,161,88.73,169.42,89.44,171Z"/><path class="cls-2" d="M112.34,45.68c3.64,1.66,4.54-.11,6.78-1.69,26-18.36,58.66-17.64,82.41,2.2,4.93,4.12,16.63,17.35,17.08,22.86.75.72.09-.16.88,1.1l1.37,3.24c9.31,25.33,3.26,52.36-15,70.68a66.52,66.52,0,0,1-56,18.8c-3.88-.53-14.73-3-18.25-5.33a3.12,3.12,0,0,1-.82-.69c-2.79-.21-10.94-6-12.74-7.39a66.45,66.45,0,0,1-16.18-86.3c4.43-7.44,7.44-8.12,5.63-12.63-4.33-3-6.84,1.7-9.93,6.48a70.47,70.47,0,0,0-6.24,11.75C83.17,88.3,84,109.25,92.6,128.39c15.78,34.93,60.59,52.65,96.59,35.45,58.06-27.73,55.83-106,1.58-132.71-24.8-12.21-55.72-8.67-77.12,8.31-2,1.62-3.43,3.3-1.31,6.24"/><path class="cls-3" d="M138.83,174.32c9.79.78,11,2.31,23.68,1,32.35-3.35,58.62-24.32,70-54.42,6.4-17,5.19-27.68,3.63-43.88.33-7.65-12.26-29.27-19.08-35.27a38.66,38.66,0,0,1-3.2-3.24c-2.22-2.26-8.9-7.09-11.75-9a75.77,75.77,0,0,0-18.46-8.75A80.22,80.22,0,0,0,102.2,40.44C77.87,65,69.68,104.78,91.3,140.27c3.92,6.43,7.41,10,12.21,15,6.91,7.13,26.57,19.08,35.32,19.07M107.51,50.53c.25-1.27,1.29-1.84,2.1-2.68,1.09-1.15,1.17-1.93,2.73-2.17-2.12-2.94-.72-4.62,1.31-6.24,21.4-17,52.32-20.52,77.12-8.31,54.25,26.69,56.48,105-1.58,132.71-36,17.2-80.81-.52-96.59-35.45C84,109.25,83.17,88.3,91.34,68.76A70.47,70.47,0,0,1,97.58,57C100.67,52.23,103.18,47.53,107.51,50.53Z"/><path class="cls-2" d="M197.78,87l-28.73-.11L169,57.64c-.83-10.31-15.18-12.69-19.6-3.2-2.31,5-.14,25.14-1.13,32.42-8.14,0-16.28,0-24.41,0-4.4,0-7.4-.07-10.13,2.45-5.76,5.31-4.37,12.92.63,16.4,3.15,2.19,5.75,1.9,10,1.89q12.06,0,24.1,0c0,8.19,0,16.37,0,24.56,0,7,1.85,13.87,10.47,13.86,9,0,10.3-7.73,10.28-14.32q0-12,0-23.92c8.05-1.26,27.67,1.72,33.33-1.62,8.3-4.89,5.95-18.73-4.71-19.19M116.89,97.28c.81-4.2,2.84-3.54,7.42-3.52,33.74.16,31,2.49,31-10l0-25.27a2.8,2.8,0,0,1,.74-1.94c1.27-1.23.18-.55,1.67-.67.81-.81,4.43-1.29,4.51,4.35l0,30c.54,3.65,2,3.58,5.83,3.56h9.24c6.33,0,12.69.06,19,0,2.69.12,4.49.92,4.29,3.75s-1.88,3.19-4.85,3.21c-5.37,0-10.78,0-16.16,0-20.42,0-17.58-6.36-17.35,31.92,0,3,.27,5.55-2.21,6.28-2.71.81-4.27-.59-4.67-2.73-.55-2.94,0-26.95-.19-32.73a4,4,0,0,0-2.77-2.71c-6.58-.13-13.23,0-19.82,0-3.23,0-6.46,0-9.7,0C119.42,100.72,117.37,100.76,116.89,97.28Z"/><path class="cls-4" d="M28.62,232.34c14.73,4.23,19.58-5.57,28-17.17,3.4-4.67,6.33-8.92,9.65-13.39l9.65-14.09c-.5-1.3-1.58-2-2.89-3.33l-10.3-10.24c-2.37.88-6.63,4-8.88,5.55-9.31,6.56-26.11,16.74-33.68,23.94-9.07,8.64,3.58,27.59,8.46,28.73"/><path class="cls-1" d="M130.8,156.85a3.12,3.12,0,0,0,.82.69c3.52,2.37,14.37,4.8,18.25,5.33a66.52,66.52,0,0,0,56-18.8c18.29-18.32,24.34-45.35,15-70.68l-1.37-3.24c-.79-1.26-.13-.38-.88-1.1,3.53,16,4.92,25.06.18,41.42a67,67,0,0,1-7.27,16.23A69.85,69.85,0,0,1,151.05,160c-8.35-.1-13-1.74-20.25-3.17"/><path class="cls-5" d="M28.62,232.34c1.67,3.47,16.17,10.2,22.84,4.42,2.87-2.49,4.81-5.56,7.3-8.83,4.5-5.9,3.86-7.45,8.86-6a12.79,12.79,0,0,1,3.22-4.53c-.75-1.8-1.69-1.1-1.54-3.66.1-1.77,4.15-7.19,5.22-8.8,1.62-2.44,6.59-9.3,7.39-11.7-1.83-1.85-3.63-4.32-6-5.57l-9.65,14.09c-3.32,4.47-6.25,8.72-9.65,13.39-8.41,11.6-13.26,21.4-28,17.17"/><path class="cls-6" d="M116.89,97.28c6.44.12,13,0,19.41,0,3.23,0,6.46,0,9.7,0,5.4,0,3.75.24,6.43,3.43a4,4,0,0,1,2.77,2.71l.36.73c.71,2.33.3,28,.3,30.48,4.32-2.74,3-9.77,3-17.24,0-25.09-5.53-19.79,30.44-20.08,3.28,0,5.7-.45,7-3.57-6.33.07-12.69,0-19,0h-9.24c-3.87,0-5.29.09-5.83-3.56-3.75-.7-3.42-2.29-3.39-6.45V56.11l-1.09-.24c-1.49.12-.4-.56-1.67.67a2.8,2.8,0,0,0-.74,1.94l0,25.27c0,12.5,2.73,10.17-31,10-4.58,0-6.61-.68-7.42,3.52"/><path class="cls-7" d="M138.83,174.32c2.45,2.54,18.46,3,22.82,2.91a80.26,80.26,0,0,0,39.56-12,79,79,0,0,0,7.57-5.34c3.85-2.93,3.88-3.32,6.74-6.16a26.59,26.59,0,0,0,3.26-3.2c7.8-10.09,11.7-14.61,16.4-28.77A78.94,78.94,0,0,0,239,99.9c.16-4.55-.37-20.24-2.91-22.89,1.56,16.2,2.77,26.86-3.63,43.88-11.34,30.1-37.61,51.07-70,54.42-12.68,1.32-13.89-.21-23.68-1"/><path class="cls-6" d="M155.2,103.43c.17,5.78-.36,29.79.19,32.73.4,2.14,2,3.54,4.67,2.73,2.48-.73,2.23-3.23,2.21-6.28-.23-38.28-3.07-31.92,17.35-31.92,5.38,0,10.79,0,16.16,0,3,0,4.65-.42,4.85-3.21s-1.6-3.63-4.29-3.75c-1.32,3.12-3.74,3.54-7,3.57-36,.29-30.44-5-30.44,20.08,0,7.47,1.3,14.5-3,17.24,0-2.52.41-28.15-.3-30.48Z"/><path class="cls-8" d="M155.2,103.43c.17,5.78-.36,29.79.19,32.73.4,2.14,2,3.54,4.67,2.73,2.48-.73,2.23-3.23,2.21-6.28-.23-38.28-3.07-31.92,17.35-31.92,5.38,0,10.79,0,16.16,0,3,0,4.65-.42,4.85-3.21s-1.6-3.63-4.29-3.75c-1.32,3.12-3.74,3.54-7,3.57-36,.29-30.44-5-30.44,20.08,0,7.47,1.3,14.5-3,17.24,0-2.52.41-28.15-.3-30.48Z"/><path class="cls-3" d="M82.32,183.91c1.45-2.31,7-10.88,7.12-12.91-.71-1.58-9.57-10-10.26-10.34-2.83-1.26-12.85,5.81-13.55,6.52.91,1.74,15.16,15.89,16.69,16.73"/><path class="cls-7" d="M82.32,183.91l6.5,6.47a96.31,96.31,0,0,0,6.27-10c1.31-2.55.21-3.91-1.21-5.33s-2.65-3-4.44-4c-.12,2-5.67,10.6-7.12,12.91"/><path class="cls-6" d="M162.25,90.21l0-30c-.08-5.64-3.7-5.16-4.51-4.35l1.09.24V83.76c0,4.16-.36,5.75,3.39,6.45"/><path class="cls-6" d="M152.43,100.72c-2.68-3.19-1-3.45-6.43-3.43-3.24,0-6.47,0-9.7,0-6.45,0-13,.09-19.41,0,.48,3.48,2.53,3.44,6,3.42,3.24,0,6.47,0,9.7,0,6.59,0,13.24-.1,19.82,0"/><path class="cls-3" d="M90,161.06,94.69,166l5-4.67c-.69-1.31-.23-.58-1.13-1.56l-3.75-3.29Z"/><path class="cls-1" d="M197.78,87c-2.78-1.21-10.33-.4-14-.4H169.5c0-4.07.79-27.26-.51-28.92l.06,29.21Z"/></g></svg>