<svg xmlns="http://www.w3.org/2000/svg" viewBox="0 0 256 256"><defs><style>.cls-1,.cls-2,.cls-3,.cls-4,.cls-5{fill-rule:evenodd;}.cls-2{fill:#fabe2c;}.cls-3{fill:#ff9100;}.cls-4{fill:#fed843;}.cls-5{fill:#fff;}</style></defs><g id="Juzgado"><path class="cls-1" d="M111.78,22.76H40.72c-2,0-3-3.77-11.76-3.77-6.84,0-14.12,6.49-14.12,13.18v3.76c0,6.69,7.28,13.18,14.12,13.18,11.27,0,5.72-3.85,15.52-3.77,5.8,0,11.62,0,17.42,0L48.39,83.12C45.91,89.4,44,95.44,41.6,101.74c-1.12,3-2.19,6.05-3.43,9.28l-3.56,9.61c-10.12,0-8.47-.82-8.47,17.41,0,14.58,10.34,28.44,23.36,35,19.8,10,44.71,1.93,55.38-19.29,5.15-10.24,4.07-18,4.07-29.33,0-4.44-4.11-3.77-8.47-3.77L73.19,45.34H109c3.2,0,3.17-.46,4.8,1.32l1.4,1.42c.69.66,1.31.81,1.31,2v78.11c0,2.79-3.76,4.59-3.76,9.88v57.88c-10.58,0-23.61-1.33-31.85,2.5C73.68,201.77,69.09,207,65.81,214c-.79,1.67-.9,3.19-1.56,4.56-4.64,0-12.21-.82-15.83.63-12.12,4.89-7.67,22,3.13,22H204c10.61,0,15.21-16.62,3.45-21.81-3.89-1.71-11.13-.77-16.16-.77-1-2-.79-3.73-3.61-8.63-1.51-2.63-3.61-4.47-5.68-6.56-3.43-3.46-10.83-7.4-17.53-7.4H142.83V138c0-4.32-3.76-8.26-3.76-9.41V50.05c0-1.25,1.67-2.41,2.44-3.2,1.75-1.78,1.29-1.56,4.59-1.53l36.26,0c-.16,1.92-12.66,35.25-13.58,37.72-2.36,6.33-4.36,12.35-6.72,18.68l-5.18,14.12c-.46,1.24-1.23,3.55-1.81,4.77-10.12,0-8.47-.82-8.47,17.41,0,14.58,10.34,28.44,23.37,35a41.31,41.31,0,0,0,35.77.16c13.2-6.6,23.68-20.36,23.68-35.14,0-18.23,1.65-17.41-8.47-17.41-.59-1.21-1.12-2.95-1.69-4.43l-12-33.15c-1-3-2.3-6.07-3.42-9.29L193.65,45.34l21.61,0c1.54.29,1.39.77,3,1.7,14.06,8,30.57-8.47,19-23.2-3.39-4.3-8.17-4.89-13-4.89-4.33,0-8.27,3.77-9.41,3.77H143.77c-1.22,0-1.43-.77-2.41-1.83l-.46-.48A18.27,18.27,0,0,0,115.14,20c-1.67,1.56-2,2.76-3.36,2.76m-2.67,7.65.19,7.4H44.48a18,18,0,0,0,0-7.53Zm102-.12a18,18,0,0,0,0,7.53l-64.63-.13-.19-7.4Zm-183-3.45c9.22-2.7,13.36,11.74,3.88,14.44C22.8,43.89,17.93,29.8,28.06,26.84ZM125.75,23a11.27,11.27,0,0,1,4.18,22.15C115.11,47.83,111.07,25.71,125.75,23Zm98.06,3.88c9.28-2.7,13.32,11.79,3.9,14.44S213.77,29.76,223.81,26.84Zm-160,37.33v56.46H43.08C43.68,118.06,62.9,65.17,63.78,64.17Zm7.53,0a3.22,3.22,0,0,1,.89,1.46l17.29,47.65A77,77,0,0,1,92,120.63H71.31Zm112.93,0v56.46h-20.7c.6-2.57,1.58-4.5,2.41-7C170.62,99.55,178,81.8,182.66,67.75,183.25,66,183.22,65.35,184.24,64.17Zm7.53,0c.93,1.07,1,1.73,1.47,3.23.39,1.19.88,2.34,1.29,3.42L210,113.28a77.15,77.15,0,0,1,2.53,7.35H191.77ZM131.54,52.53v72.24L124,125V52.72ZM183.73,169c-4.2.62-10.55-2.58-13.36-4.33-14-8.73-16.25-20.34-16.25-36.46h67.77c0,15.12-1.36,21.93-9.19,30.82-5.79,6.59-15.53,10.4-24.69,10.59Zm-135-40.79h52.72c0,12.55-.67,20-7.08,28.21-4.67,6-15.3,13.64-22.53,12.58-.53.35.33.09-1.06.45-7.5,1.9-21.87-3.58-27.92-10.42-7.83-8.85-9.17-15.7-9.17-30.82Zm71.53,14.11c0-5.77,1.59-10.29,7.54-10.29s7.55,4.51,7.53,10.29l.23,53.65h-15.3Zm40.57,76.25H96.08l-23.74-.11c2.31-7.92,10.13-14.54,20.12-14.95,11.41-.46,23.8,0,35.32,0s23.91-.44,35.31,0c10,.41,17.78,7,20.12,15ZM85.25,226h86.38c6.08.06,12.18,0,18.26,0,4.18,0,14.3-1.11,16.22,1.68a3.7,3.7,0,0,1-2.24,5.69l-26.86.13H79.88c-6.3.07-12.62,0-18.92,0-2.07,0-7.61.25-9.28-.16a3.7,3.7,0,0,1-2.24-5.7C51.37,224.9,62.35,226,66.6,226,72.8,226,79.07,226.12,85.25,226Z"/><path class="cls-2" d="M71.82,169c7.23,1.06,17.86-6.6,22.53-12.58,6.41-8.22,7.08-15.66,7.08-28.21H48.71c0,11.44.08,17.92,5.29,26.72a38,38,0,0,0,7.15,8.83c4.52,3.59,5.88,5.1,10.67,5.24"/><path class="cls-2" d="M183.73,169c4.88-.13,6.23-1.72,10.66-5.24a38,38,0,0,0,7.16-8.84c5.07-8.57,5.29-15.5,5.29-26.71H154.12c0,16.12,2.21,27.73,16.25,36.46,2.81,1.75,9.16,4.95,13.36,4.33"/><path class="cls-3" d="M96.08,218.53c1.15-1.14.48-.52,1.81-1.23,9.41-5.05,20-7.13,30.83-7.12,8.76,0,27.22,3.2,32.09,8.34l22.4,0c-2.34-8-10.13-14.61-20.12-15-11.4-.46-23.8,0-35.31,0s-23.91-.44-35.32,0c-10,.41-17.81,7-20.12,14.95Z"/><path class="cls-4" d="M120.24,195.92h15.3l-.23-53.65c0-5.78-1.55-10.29-7.53-10.29s-7.56,4.52-7.54,10.29Z"/><path class="cls-2" d="M79.88,233.55H177c-1.27-3-3.8-5.29-5.38-7.52H85.25c-1.56,2-4.09,4.77-5.37,7.54"/><path class="cls-3" d="M71.82,169c-4.79-.14-6.15-1.65-10.67-5.24A38,38,0,0,1,54,154.88c-5.21-8.8-5.29-15.28-5.29-26.72h-15c0,15.12,1.34,22,9.17,30.82,6,6.84,20.42,12.32,27.92,10.42,1.39-.36.53-.1,1.06-.45"/><path class="cls-3" d="M183.73,169l4.28.62c9.16-.19,18.9-4,24.69-10.59,7.83-8.89,9.19-15.7,9.19-30.82h-15c0,11.21-.22,18.14-5.29,26.71a38,38,0,0,1-7.16,8.84c-4.43,3.52-5.78,5.11-10.66,5.24"/><polygon class="cls-4" points="124.01 52.72 124.01 124.99 131.54 124.77 131.54 52.53 124.01 52.72"/><path class="cls-4" d="M146.44,37.69l64.63.13a18,18,0,0,1,0-7.53H146.25Z"/><path class="cls-4" d="M44.48,37.81H109.3l-.19-7.4-64.63-.13a18,18,0,0,1,0,7.53"/><path class="cls-2" d="M96.08,218.53h64.73c-4.87-5.14-23.33-8.33-32.09-8.34-10.83,0-21.42,2.07-30.83,7.12-1.33.71-.66.09-1.81,1.23"/><path class="cls-3" d="M79.88,233.55c1.28-2.77,3.81-5.58,5.37-7.54-6.18.11-12.45,0-18.65,0-4.25,0-15.23-1.13-17.16,1.68a3.7,3.7,0,0,0,2.24,5.7c1.67.41,7.21.16,9.28.16,6.3,0,12.62.05,18.92,0"/><path class="cls-3" d="M177,233.54l26.86-.13a3.7,3.7,0,0,0,2.24-5.69c-1.92-2.79-12-1.68-16.22-1.68-6.08,0-12.18,0-18.26,0,1.58,2.23,4.11,4.54,5.38,7.52"/><path class="cls-4" d="M125.75,23c-14.68,2.75-10.64,24.87,4.18,22.15A11.27,11.27,0,0,0,125.75,23m.16,3.86c9.32-2.68,13.34,11.81,3.92,14.47S115.93,29.68,125.91,26.82Z"/><path class="cls-5" d="M125.91,26.82c-10,2.86-5.4,17.09,3.92,14.47s5.4-17.15-3.92-14.47"/><path class="cls-3" d="M223.81,26.84c-10,2.92-5.37,17,3.9,14.44s5.38-17.14-3.9-14.44m.52,3.81c4.3-2,7.26,4.89,2.81,6.82C223,39.25,219.23,33.08,224.33,30.65Z"/><path class="cls-3" d="M28.06,26.84c-10.13,3-5.26,17.05,3.88,14.44,9.48-2.7,5.34-17.14-3.88-14.44m.52,3.81c4.3-2,7.26,4.89,2.81,6.82C27.26,39.25,23.48,33.08,28.58,30.65Z"/><path class="cls-5" d="M28.58,30.65c-5.1,2.43-1.32,8.6,2.81,6.82,4.45-1.93,1.49-8.86-2.81-6.82"/><path class="cls-5" d="M224.33,30.65c-5.1,2.43-1.32,8.6,2.81,6.82,4.45-1.93,1.49-8.86-2.81-6.82"/></g></svg>