<svg xmlns="http://www.w3.org/2000/svg" viewBox="0 0 256 256"><defs><style>.cls-1,.cls-10,.cls-11,.cls-2,.cls-3,.cls-4,.cls-5,.cls-6,.cls-7,.cls-8,.cls-9{fill-rule:evenodd;}.cls-2{fill:#fdcf5c;}.cls-3{fill:#f89841;}.cls-4{fill:#f9b75f;}.cls-5{fill:#cfd5e3;}.cls-6{fill:#e1b085;}.cls-7{fill:#ec5440;}.cls-8{fill:#c79d79;}.cls-9{fill:#b9bdc9;}.cls-10{fill:#d24e3d;}.cls-11{fill:#405969;}</style></defs><g id="Editar"><path class="cls-1" d="M178.77,17.84c2.49.33,18.62,12.46,20.57,14.06a44.22,44.22,0,0,1,4.27,4.29c4.25,6.22-6.62,16.86-6.62,16.86L180.57,41.62c-1.48-1-15.57-10.5-16-11.58-2.2-1-4-2.7-6.08-3.93.95-2.05,6.47-9.64,7.78-10.66,4.62-3.6,11.31.58,12.47,2.39M159.93,36.67c1.84.71,13.83,9.57,16.56,11.42,5.64,3.83,10.73,7.88,16.1,11.41l-11.84,17L147.32,52.84c-2.06-.85-3-2.29-5.24-3.18.69-2,10.76-16.08,12.08-17.18l5.5,3.94C159.7,36.34,159.84,36.58,159.93,36.67ZM65.5,158.17c1.28-2.69,16.08-23.2,18.09-26L110.53,93.9c8.52-12.64,18.17-25.49,26.85-38.18,1.58.58,7.57,4.94,8.64,6.13L128,87.61c-10.7,15.26-25.13,36.36-36,51.06C88.84,143,86,147.25,83,151.5c-2.83,4-5.93,9-8.91,12.48C72.17,162.32,71.21,159.35,65.5,158.17Zm50.91-40.79c5.91-8.79,12.19-16.87,18.12-25.67,2.95-4.37,5.88-8.54,9-12.87s5.73-8.45,8.86-12.55a51.66,51.66,0,0,1,8.6,6l-35.95,51.32c-3,4.48-5.94,8.66-9,12.86L97.91,162.17c-1.75,2.42-7.39,11.13-9,12.33-5.92-6.67-4.31-3.46-8.34-6.05ZM60.63,203.89c-1.48-1.36-4.23-3.1-6.18-4.5L58.16,169c.67-3.13,4.12-4.06,6.28-3.2,1.55.62.71.36,1.26.88,2.33.64,2.7,3.69,2.08,5.76-.71,2.37-2.19,4.15-.09,6.31,4.56,4.7,6-4.85,12.22-2.22,6.67,2.82.28,8.51,2.18,12,1.14,2.12,4,2.35,5.9.77s2.65-3.22,6-2.56a5.31,5.31,0,0,1,4.12,4.51c.33,3.36-1.11,4-3.46,5.15l-23,11.73c-3,1.58-3.14,1.29-5.63-.59A53.49,53.49,0,0,0,60.63,203.89ZM168.36,6.17h3.74c4.43.6,8.53,3.17,12,5.25L200.6,23c2,1.4,3.45,2.68,5.29,4.22,3.09,2.58,6.48,6.68,6.81,11.79.4,6.13-4.21,11.59-7.23,16.06C196.56,68.25,186,82.37,176.72,95.83c-4.16,6-5.06,8.87-10,7.42-1-1.58-2.68-2.75-.55-6,2.63-4.06,8.41-11.26,9.95-14.65-2.66-1.31-6.09-4.64-8.66-5.55a60.32,60.32,0,0,0-4.64,6.37l-13.56,19.28c-5.88,8.72-11.94,16.55-17.93,25.37l-26.93,38.28c-1.59,2.3-3,4.21-4.55,6.39a60.18,60.18,0,0,0-4.25,6.22c1.27,1,2.68,1,4.41,2.26,1.55,1.16,2.3,2.06,3.68,3,.34,1.83.19.72.48.38,1.82-1.25,25.55-35.77,29.13-40.73L155,113.08c3.92-5.82,4.41-7.7,9.2-6.15,3.62,3.32-.17,6.87-1.81,9.27L139.88,148c-1.88,2.65-3.51,5.07-5.51,7.81L112,187.68c-2,2.87-3.72,5.21-5.72,8.09-1,1.45-1.71,2.48-2.75,3.9-2.41,3.29-17.54,10-21.71,12.09l-17.61,9c6.92,0,15-1.43,15.21,3.85.27,5.74-8.76,4.24-14.25,4.24-12.84,0-23,2.59-21.72-6l7.34-57.42,7.51-11.05c7.28-10,16-23.42,23.18-33,2.76-3.68,5-7.11,7.68-10.88s5-7.1,7.69-10.87,4.92-7.2,7.68-10.88l46.23-65.61c3.32-4.5,8.07-12.59,12.75-15.33A13.28,13.28,0,0,1,168.36,6.17ZM52.11,218l1.15-9.8c2.36,1.73,5.66,3.38,7.58,5.47Z"/><path class="cls-2" d="M103.71,184.16l.48.38c1.82-1.25,25.55-35.77,29.13-40.73L155,113.08c3.92-5.82,4.41-7.7,9.2-6.15a16.76,16.76,0,0,0,2.59-3.68c-1-1.58-2.68-2.75-.55-6,2.63-4.06,8.41-11.26,9.95-14.65-2.66-1.31-6.09-4.64-8.66-5.55a60.32,60.32,0,0,0-4.64,6.37l-13.56,19.28c-5.88,8.72-11.94,16.55-17.93,25.37l-26.93,38.28c-1.59,2.3-3,4.21-4.55,6.39a60.18,60.18,0,0,0-4.25,6.22c1.27,1,2.68,1,4.41,2.26,1.55,1.16,2.3,2.06,3.68,3"/><path class="cls-3" d="M65.5,158.17c5.71,1.18,6.67,4.15,8.55,5.81,3-3.51,6.08-8.52,8.91-12.48,3-4.25,5.88-8.54,9.06-12.83,10.89-14.7,25.32-35.8,36-51.06l18-25.76c-1.07-1.19-7.06-5.55-8.64-6.13-8.68,12.69-18.33,25.54-26.85,38.18L83.59,132.16c-2,2.81-16.81,23.32-18.09,26"/><path class="cls-4" d="M80.62,168.45c4,2.59,2.42-.62,8.34,6.05,1.56-1.2,7.2-9.91,9-12.33L116,136.5c3.1-4.2,6-8.38,9-12.86L161,72.32a51.66,51.66,0,0,0-8.6-6c-3.13,4.1-5.79,8.32-8.86,12.55s-6.07,8.5-9,12.87c-5.93,8.8-12.21,16.88-18.12,25.67Z"/><path class="cls-1" d="M43.27,245.55c0,2.3,1.36,4.28,3.81,4.28H207.46c5.4,0,4.51-7.61.95-7.61H47.08a3.61,3.61,0,0,0-3.81,3.33"/><path class="cls-1" d="M83.73,224.13c0,3.23,2,4.76,5.23,4.76H206c7.46,0,6.25-8.09,1.43-8.09H88a4.77,4.77,0,0,0-4.28,3.33"/><path class="cls-5" d="M147.32,52.84l33.43,23.63,11.84-17c-5.37-3.53-10.46-7.58-16.1-11.41-2.73-1.85-14.72-10.71-16.56-11.42-1.7.14-.69-.5-2.21,1.62-2.42,3.4-8.52,12.63-10.4,14.55"/><path class="cls-6" d="M60.63,203.89A53.49,53.49,0,0,1,66,207.61c2.49,1.88,2.67,2.17,5.63.59l23-11.73c2.35-1.15,3.79-1.79,3.46-5.15a5.31,5.31,0,0,0-4.12-4.51c-3.3-.66-4.11,1.07-6,2.56s-4.76,1.35-5.9-.77c-1.9-3.54,4.49-9.23-2.18-12-6.2-2.63-7.66,6.92-12.22,2.22-2.1-2.16-.62-3.94.09-6.31.62-2.07.25-5.12-2.08-5.76-1.5,1.63-2.4,14.72-2.83,18-.71,5.45-2.3,14.08-2.24,19.22"/><path class="cls-7" d="M164.6,30c.4,1.08,14.49,10.55,16,11.58L197,53.05s10.87-10.64,6.62-16.86a44.22,44.22,0,0,0-4.27-4.29c-2-1.6-18.08-13.73-20.57-14.06-6.18-2.22-9.54,4.23-12.19,7.9-2.75,3.82-2.34,2.52-2,4.3"/><path class="cls-8" d="M60.63,203.89c-.06-5.14,1.53-13.77,2.24-19.22.43-3.25,1.33-16.34,2.83-18-.55-.52.29-.26-1.26-.88-2.16-.86-5.61.07-6.28,3.2l-3.71,30.37c1.95,1.4,4.7,3.14,6.18,4.5"/><path class="cls-9" d="M147.32,52.84c1.88-1.92,8-11.15,10.4-14.55,1.52-2.12.51-1.48,2.21-1.62-.09-.09-.23-.33-.27-.25l-5.5-3.94c-1.32,1.1-11.39,15.2-12.08,17.18,2.22.89,3.18,2.33,5.24,3.18"/><path class="cls-10" d="M164.6,30c-.36-1.78-.77-.48,2-4.3,2.65-3.67,6-10.12,12.19-7.9-1.16-1.81-7.85-6-12.47-2.39-1.31,1-6.83,8.61-7.78,10.66,2,1.23,3.88,2.95,6.08,3.93"/><path class="cls-11" d="M60.84,213.62c-1.92-2.09-5.22-3.74-7.58-5.47L52.11,218Z"/></g></svg>