<svg xmlns="http://www.w3.org/2000/svg" viewBox="0 0 256 256"><defs><style>.cls-1{fill:#d62e3d;}.cls-1,.cls-2,.cls-3,.cls-4,.cls-5,.cls-6{fill-rule:evenodd;}.cls-2{fill:#fff;}.cls-3{fill:#f1cfa4;}.cls-5{fill:#f1b986;}.cls-6{fill:#7a7673;}</style></defs><g id="Suspender"><path class="cls-1" d="M16.91,92.25a56.06,56.06,0,0,1-1.84,6.22c3.43,3.46,3.27.53,1.63,10.11C7.07,164.76,41,221.08,96.4,236.46c69.11,19.18,125.31-25.39,140-76.5,17.45-60.85-17.47-123.23-76-140.23C121.53,8.48,78.87,18.91,53,43.58c-2.63,2.5-4.77,4.09-7.21,6.85-9.64,10.88-16.26,20.2-22.08,34.19-1.9,4.57-1.51,7.93-6.76,7.63M220.65,135c-4,48.88-46.07,89.8-99.93,85.61-48.66-3.79-89.51-46.39-85.36-100,3.76-48.62,46.45-89.54,99.86-85.32C183.63,39.17,225,81.63,220.65,135Z"/><path class="cls-2" d="M121.24,42.37C76.18,46,38.31,85.36,42.39,135c3.66,44.77,43,82.53,92.43,78.59,44.93-3.57,82.79-43,78.82-92.39-3.62-45-42.89-82.8-92.4-78.87M142,64.87c1.17,1.43,0,2.8.95,4.47,6.32-1.48,11.37-.72,14.84,3.12,3.75,4.15,3.44,9.55,3.44,16.36,8.85-2.88,16.34.65,18.42,8.17,1.17,4.22.49,22,.49,27.73,0,13.77,1.37,26.67-3.25,39.48-1.45,4-2.1,7.93-7.12,6.79-.89,2.18-3.22,4.36-3.18,6.12,1.13,3.9-.32,5.45-4.67,8.68-11.23,8.33-19.91,7.33-33.89,7.33-17.15,0-30.72,2.2-41.4-13.88C75.4,162.37,79,146.1,76,134.52c-1.1-4.25-3.24-5.55-2.74-11.17a14.34,14.34,0,0,1,14.44-12.9c4.77.08,7,2.06,9.66,3.78.88-10.37,0-23.77.09-34.52.11-12.93,11.65-16.36,18.67-12.88,1.22-4.5.65-5.76,3.7-8.9A12.31,12.31,0,0,1,128,53.71C135.35,53,141.67,58.39,142,64.87Z"/><path class="cls-3" d="M128,61c-2.84,5-1.87,11.14-1.87,17.34l0,46c0,3.6-.2,4.54-3.26,5.85-1.81,1.25-4.92,2.08-6.18-.69-.78-1.73-.36-24.31-.36-27.21,0-4.21.85-24.16-1-27.15a5.67,5.67,0,0,0-6.06-2.25c-3,4.12-2,10.8-2,16.27v53.13c16.59,0,28.46,6.79,35,18.94,1.4,2.62,1.63,6-1.68,6.56-4.66.82-4.5-6.21-10.4-10.9-17.13-13.61-30.77-3.12-32.5-9.71-1.4-5.35,1.25-14.63-1.13-20.41-1.61-3.92-5.28-11.93-11.48-8.63-4.19,9.3-1.27,7.94.76,16.08,1.52,6.1,1,12.44,1.81,18.72,1.7,13.17,5.39,22,12.29,29.54,2.77,5.21,29.55,3.68,37,3.69,6.51,0,12.21-.61,17.12-3.49,7.38-4.33,7.2-8.49,12.53-5.5,0-1.76,2.29-3.94,3.18-6.12-3.93-3.78.49-5.62,2.58-17,1.34-7.25.77-35,.77-44.27,0-4,1.76-17.32-7.12-14.91-3.27,4.64-2,13.47-2,19.6,0,3.44,0,6.88,0,10.32,0,4.5.56,5.78-3.62,6.7-7.69,2.8-6.17-4-6.17-10.46V85.34c0-5.89-.8-11-7.63-9.67-1.73,5.33-1.49,5.71-1.49,12,0,7.66.76,35.17-.89,38.61l-2.25.37c-1.8,1.74-5.15,2.77-6.36-.58-.6-1.63-.29-28.38-.29-31.37,0-4.37.84-28.2-.89-31.21-.83-1.44-3.67-3.77-6.37-2.54"/><path class="cls-4" d="M16.91,92.25c5.25.3,4.86-3.06,6.76-7.63,5.82-14,12.44-23.31,22.08-34.19,2.44-2.76,4.58-4.35,7.21-6.85,25.91-24.67,68.57-35.1,107.37-23.85,58.56,17,93.48,79.38,76,140.23-14.65,51.11-70.85,95.68-140,76.5C41,221.08,7.07,164.76,16.7,108.58c1.64-9.58,1.8-6.65-1.63-10.11-4.67.37-4.6,3.88-5.46,9.1A122.83,122.83,0,0,0,8,123.73V132c1.77,52.12,36.87,97.38,86.91,111.59A119.3,119.3,0,0,0,122.33,248H133a120.93,120.93,0,0,0,58.85-18.19c26.13-16.38,48.74-46.5,54.29-79.77.71-4.25,1.17-9,1.74-13.26,0-.35.09-.72.13-1.1V122.09c-.33-5.34-.93-10.51-1.47-13.71A118.47,118.47,0,0,0,221,51.91C199.86,25.77,167.91,10,134.78,8H120.17a114.15,114.15,0,0,0-34.69,7.64c-18.38,7.2-31.5,16.3-45,30-4.15,4.2-9.9,12-13.14,16.86-3.82,5.69-11,19.48-12.5,25-.73,2.69.6,3.72,2.1,4.73"/><path class="cls-4" d="M166.56,177.11c-5.33-3-5.15,1.17-12.53,5.5-4.91,2.88-10.61,3.49-17.12,3.49-7.49,0-34.27,1.52-37-3.69-4.06-1.64-8.19-7.41-10.32-12.22-7-15.87-3.94-25.91-6.76-37.31-.57-2.31-6.4-12.1,2.22-14.81,6.2-3.3,9.87,4.71,11.48,8.63,2.38,5.78-.27,15.06,1.13,20.41,1.73,6.59,15.37-3.9,32.5,9.71,5.9,4.69,5.74,11.72,10.4,10.9,3.31-.59,3.08-3.94,1.68-6.56-6.52-12.15-18.39-18.91-35-18.94l-2.75.08V86.75c0-6.87-1.39-12.41,4.78-13.93a5.67,5.67,0,0,1,6.06,2.25c1.89,3,1,22.94,1,27.15,0,2.9-.42,25.48.36,27.21,1.26,2.77,4.37,1.94,6.18.69,1.46-6.42.49-28.53.49-36.81V75C123.38,68.91,122,62.4,128,61c2.7-1.23,5.54,1.1,6.37,2.54,1.73,3,.89,26.84.89,31.21,0,3-.31,29.74.29,31.37,1.21,3.35,4.56,2.32,6.36.58,1.16-5.42.38-21.24.38-27.73,0-4.69,0-9.38,0-14.07s.05-7.61,4.25-9.2c6.83-1.38,7.65,3.78,7.63,9.67V121c0,6.43-1.52,13.26,6.17,10.46,1.78-4.74.86-14.43.86-20.3,0-3.3-.18-7.11,0-10.34.22-3.63,1.61-5.23,4.76-6,8.88-2.41,7.12,10.93,7.12,14.91,0,9.26.57,37-.77,44.27-2.09,11.38-6.51,13.22-2.58,17,5,1.14,5.67-2.78,7.12-6.79,4.62-12.81,3.25-25.71,3.25-39.48,0-5.7.68-23.51-.49-27.73-2.08-7.52-9.57-11-18.42-8.17,0-6.81.31-12.21-3.44-16.36-3.47-3.84-8.52-4.6-14.84-3.12l-.77.41L142,64.87c-.3-6.48-6.62-11.92-14-11.16a12.31,12.31,0,0,0-8.17,4.22c-3,3.14-2.48,4.4-3.7,8.9-7-3.48-18.56,0-18.67,12.88-.1,10.75.79,24.15-.09,34.52-2.67-1.72-4.89-3.7-9.66-3.78a14.34,14.34,0,0,0-14.44,12.9c-.5,5.62,1.64,6.92,2.74,11.17,3,11.58-.59,27.85,10.61,44.72,10.68,16.08,24.25,13.88,41.4,13.88,14,0,22.66,1,33.89-7.33,4.35-3.23,5.8-4.78,4.67-8.68"/><path class="cls-4" d="M220.65,135c4.39-53.4-37-95.86-85.43-99.68-53.41-4.22-96.1,36.7-99.86,85.32-4.15,53.58,36.7,96.18,85.36,100,53.86,4.19,95.91-36.73,99.93-85.61M121.24,42.37c49.51-3.93,88.78,33.84,92.4,78.87,4,49.38-33.89,88.82-78.82,92.39C85.34,217.57,46.05,179.81,42.39,135,38.31,85.36,76.18,46,121.24,42.37Z"/><path class="cls-5" d="M107.22,142.22V89.09c0-5.47-1-12.15,2-16.27-6.17,1.52-4.78,7.06-4.78,13.93V142.3Z"/><path class="cls-5" d="M122.89,130.12c3.06-1.31,3.28-2.25,3.26-5.85l0-46c0-6.2-1-12.32,1.87-17.34-6,1.43-4.62,7.94-4.62,14.06V93.31c0,8.28,1,30.39-.49,36.81"/><path class="cls-5" d="M99.87,182.41C93,174.83,89.28,166,87.58,152.87c-.81-6.28-.29-12.62-1.81-18.72-2-8.14-5-6.78-.76-16.08-8.62,2.71-2.79,12.5-2.22,14.81,2.82,11.4-.24,21.44,6.76,37.31,2.13,4.81,6.26,10.58,10.32,12.22"/><path class="cls-5" d="M141.91,126.67l2.25-.37c1.65-3.44.89-30.95.89-38.61,0-6.31-.24-6.69,1.49-12-4.2,1.59-4.27,4.43-4.25,9.2s0,9.38,0,14.07c0,6.49.78,22.31-.38,27.73"/><path class="cls-5" d="M160.34,131.43c4.18-.92,3.64-2.2,3.62-6.7,0-3.44,0-6.88,0-10.32,0-6.13-1.25-15,2-19.6-3.15.75-4.54,2.35-4.76,6-.19,3.23,0,7,0,10.34,0,5.87.92,15.56-.86,20.3"/><path class="cls-6" d="M142.92,69.34c-1-1.67.22-3-.95-4.47l.18,4.88Z"/></g></svg>