<svg xmlns="http://www.w3.org/2000/svg" viewBox="0 0 256 256"><defs><style>.cls-1{fill:#e8eeff;}.cls-1,.cls-10,.cls-11,.cls-2,.cls-3,.cls-4,.cls-5,.cls-6,.cls-7,.cls-8,.cls-9{fill-rule:evenodd;}.cls-3{fill:#cdd9f8;}.cls-4{fill:#dfeaef;}.cls-5{fill:#f5e166;}.cls-6{fill:#e9af4d;}.cls-7{fill:#90d8f9;}.cls-8{fill:#e17e84;}.cls-9{fill:#ecbe6b;}.cls-10{fill:#dc626e;}.cls-11{fill:#568295;}</style></defs><g id="Documento"><path class="cls-1" d="M48.34,177.31v9.29c4.9,1,3.6,4.7,3.6,12.64v16.4H97.46c-1.52-3.1-7.91-7.61-10.69-21A42.06,42.06,0,0,1,128,144.3c27.47,0,46.3,25,41.17,50.73-2.45,12.33-9.11,17.5-10.62,20.61h39.69V21.41H51.94V161.27c0,10.62,1.53,15.14-3.6,16m36.83-143c2.62-.9,48.79-.24,55.8-.24,34.63,0,32.61-2.89,32.6,9.54,0,3.9,1.15,10.57-2.38,11.66s-48.63.22-56.16.22c-35,0-32.61,2.83-32.6-9.57C82.43,39.12,81.33,35.65,85.17,34.34Zm66,36.72c2.57,0,6-.5,7.49,1.21a3.4,3.4,0,0,1-1.22,5.43c-2,.7-44.45.28-52.59.3-2.69,0-6.36.47-7.65-1.25-1.72-2.31-.43-4.53,1.79-5.4C100.63,70.7,143.3,71.07,151.16,71.06ZM185,85.53c2.7,0,5.48-.36,6.7,1.43a3.45,3.45,0,0,1-1.7,5.28c-2.67.79-104.5.16-118.93.24-2.86,0-5.78.44-6.88-1.7-1.41-2.72.23-4.48,2.46-5.07C69.37,85,170.58,85.59,185,85.53ZM68.26,107c-6.13,0-6.42-6.94.46-6.94H187.28c6.88,0,6.58,6.94.46,6.94ZM184.5,114c2.6,0,5.62-.38,7,1.37a3.44,3.44,0,0,1-1.29,5.24c-1.8.75-100.33.28-118.7.34-2.59,0-5.65.41-7-1.36-1.71-2.23-.38-4.38,1.52-5.24C67.72,113.6,166.24,114.09,184.5,114ZM66.43,128.68c2.3-.61,37-.17,44.46-.18,7.77,0,6.41,5.86,3.12,6.77-2.21.6-37.47.22-44.84.2S62.76,129.67,66.43,128.68Zm86.11,10.14c-6.15,0-6.67-6.94.35-6.94h34.39c6.95,0,6.66,6.94.46,6.94Zm22.7,7.07c2.55,0,5.75-.42,7,1.47a3.34,3.34,0,0,1-1.68,5.29c-2.16.57-12.9.18-16,.19-2.38,0-5.4.59-6.72-1.54a3.44,3.44,0,0,1,1.51-5.05C161.25,145.4,172.22,145.9,175.24,145.89Z"/><path class="cls-2" d="M151,251.57h-1a3.4,3.4,0,0,1-.53-.08l-15.17-6.2c-1.23-.49-1.62-.68-2.59-1.11-.45-.21-2.12-1-2.64-1.12-2.36-.68-17.08,6.29-20.75,7.81a9.92,9.92,0,0,1-2.45.7h-1.26c-3.09-.49-2.53-4.95-2.53-7.4V222.86c-16.21,0-32.42,0-48.63,0-4.9,0-7.86.61-8.64-3.86l-.16-23.93c0-5.49-.24-7.92,3.7-8.47,4.9,1,3.6,4.7,3.6,12.64v16.4h50.13c0-6.74-.29-3.06-4.46-9.61a36.77,36.77,0,0,1-3.13-33.35c12.8-30.66,55-29.17,66.92-.35a36.61,36.61,0,0,1-2.83,33.41c-4.26,6.89-4.64,3-4.64,9.91h50.13V103.38c0-5.19-1.58-11.78,3.59-12.5,4.23.32,3.72,4.29,3.71,8.79V208c0,14.89,1,14.83-9.26,14.82q-24.09,0-48.17,0c0,4.55-.2,4.36-3.49,5.56-2.52-1.65-3.08-.08-3.44-4.4l0-6.7c-9,3.66-16.4,7.8-29.57,3.66-3.38-1.07-5.67-2.65-8.35-3.67l0,6.69v18.79c3.54-1.11,16.77-7.42,19-7.42s15.46,6.3,19,7.42c.07-4.87.36-3.65,3.44-5.57,2.45.87,3.41.7,3.55,4.14,0,1.33.13,6.32-.06,7.4a3.24,3.24,0,0,1-2.92,2.81m-35.31-39.13c-7.3-.37-25.83-21.45-12.08-42.25a32.86,32.86,0,0,1,9.23-8.82,29.24,29.24,0,0,1,21.83-3.54c8.78,2.08,19.26,10.7,19.56,16.39,3.23,3.16,3.41,13.95,2.3,18.78C150.73,218.24,120.25,218.38,115.67,212.44Z"/><path class="cls-2" d="M48.34,177.31c5.13-.9,3.6-5.42,3.6-16V21.41H204.06V69.11c0,2.61-.07,5.3,0,7.89.05,2.76.91,4.19,3.61,4.52,4,0,3.72-4.55,3.71-8.71V22.33c0-4.62.25-7.54-3.93-7.87H48.71c-4.69.3-4.07,2.45-4.07,14.82V168.21c0,4.59-.41,8.84,3.7,9.1"/><path class="cls-2" d="M85.17,34.34c-3.84,1.31-2.74,4.78-2.74,11.61,0,12.4-2.39,9.57,32.6,9.57,7.53,0,52.74.84,56.16-.22s2.38-7.76,2.38-11.66c0-12.43,2-9.54-32.6-9.54-7,0-53.18-.66-55.8.24m4.2,6.79c2.24-.6,75-.6,77.37,0l-.09,7.35c-2.26.67-75,.67-77.39,0Z"/><path class="cls-3" d="M198.24,215.63h5.82V103.38c0-5.19-1.58-11.78,3.59-12.5V81.52c-2.7-.33-3.56-1.76-3.61-4.52,0-2.59,0-5.28,0-7.89V21.4h-5.82Z"/><path class="cls-4" d="M97.46,215.64h4.61c0-6.74-.29-3.06-4.46-9.61a36.77,36.77,0,0,1-3.13-33.35c12.8-30.66,55-29.17,66.92-.35a36.61,36.61,0,0,1-2.83,33.41c-4.26,6.89-4.64,3-4.64,9.91h4.62c1.51-3.11,8.17-8.28,10.62-20.61,5.13-25.74-13.7-50.73-41.17-50.73a42.06,42.06,0,0,0-41.23,50.37c2.78,13.36,9.17,17.87,10.69,21"/><path class="cls-5" d="M115.67,212.44c11.43.92,20.34-.08,29.3-8.73a37.16,37.16,0,0,0,7.6-11.86c2.57-6.87,2-10.25,1.64-17.63-.3-5.69-10.78-14.31-19.56-16.39a29.24,29.24,0,0,0-21.83,3.54,32.86,32.86,0,0,0-9.23,8.82c-13.75,20.8,4.78,41.88,12.08,42.25m9.38-48c13-1.84,23.06,7.56,24.85,18.47,2.15,13.13-7.57,23.6-18.47,25.32a22.18,22.18,0,0,1-25.36-18.62C104.06,176.19,113.76,166.07,125.05,164.46Z"/><path class="cls-2" d="M66.62,85.71c-2.23.59-3.87,2.35-2.46,5.07,1.1,2.14,4,1.72,6.88,1.7C85.47,92.4,187.3,93,190,92.24a3.45,3.45,0,0,0,1.7-5.28c-1.22-1.79-4-1.44-6.7-1.43-14.39.06-115.6-.54-118.35.18"/><path class="cls-2" d="M66,114.38c-1.9.86-3.23,3-1.52,5.24,1.36,1.77,4.42,1.36,7,1.36,18.37-.06,116.9.41,118.7-.34a3.44,3.44,0,0,0,1.29-5.24c-1.37-1.75-4.39-1.38-7-1.37-18.26.06-116.78-.43-118.49.35"/><path class="cls-2" d="M68.26,107H187.74c6.12,0,6.42-6.94-.46-6.94H68.72c-6.88,0-6.59,6.94-.46,6.94"/><path class="cls-2" d="M125.05,164.46c-11.29,1.61-21,11.73-19,25.17a22.18,22.18,0,0,0,25.36,18.62c10.9-1.72,20.62-12.19,18.47-25.32-1.79-10.91-11.9-20.31-24.85-18.47m-12.22,23.2a15.27,15.27,0,0,1,13.75-16.47c20.28-1.73,22.53,28.63,2.8,30.32A15.29,15.29,0,0,1,112.83,187.66Z"/><path class="cls-6" d="M112.83,187.66a15.29,15.29,0,0,0,16.55,13.85c19.73-1.69,17.48-32-2.8-30.32a15.27,15.27,0,0,0-13.75,16.47"/><polygon class="cls-7" points="89.56 48.35 166.23 48.35 166.23 41.32 89.77 41.32 89.56 48.35"/><path class="cls-8" d="M150.41,237.22a22.66,22.66,0,0,0,0-8.8c-2.52-1.65-3.08-.08-3.44-4.4-6.94,2.45-10.91,4.46-19.47,4.36-8-.1-12.16-2.06-18.51-4.38v18.79c3.54-1.11,16.77-7.42,19-7.42s15.46,6.3,19,7.42c.07-4.87.36-3.65,3.44-5.57"/><path class="cls-2" d="M99,71.35c-2.22.87-3.51,3.09-1.79,5.4,1.29,1.72,5,1.25,7.65,1.25,8.14,0,50.62.4,52.59-.3a3.4,3.4,0,0,0,1.22-5.43c-1.5-1.71-4.92-1.22-7.49-1.21-7.86,0-50.53-.36-52.18.29"/><path class="cls-2" d="M66.43,128.68c-3.67,1-4.62,6.78,2.74,6.79s42.63.4,44.84-.2c3.29-.91,4.65-6.79-3.12-6.77-7.47,0-42.16-.43-44.46.18"/><path class="cls-2" d="M152.54,138.82h35.2c6.2,0,6.49-6.94-.46-6.94H152.89c-7,0-6.5,6.94-.35,6.94"/><path class="cls-9" d="M115.67,212.44c4.58,5.94,35.06,5.8,40.84-19.44,1.11-4.83.93-15.62-2.3-18.78.38,7.38.93,10.76-1.64,17.63a37.16,37.16,0,0,1-7.6,11.86c-9,8.65-17.87,9.65-29.3,8.73"/><path class="cls-10" d="M109,224c6.35,2.32,10.48,4.28,18.51,4.38,8.56.1,12.53-1.91,19.47-4.36l0-6.7c-9,3.66-16.4,7.8-29.57,3.66-3.38-1.07-5.67-2.65-8.35-3.67Z"/><path class="cls-2" d="M159.37,146.25a3.44,3.44,0,0,0-1.51,5.05c1.32,2.13,4.34,1.55,6.72,1.54,3.07,0,13.81.38,16-.19a3.34,3.34,0,0,0,1.68-5.29c-1.24-1.89-4.44-1.48-7-1.47-3,0-14-.49-15.87.36"/><path class="cls-11" d="M89.26,48.48c2.35.67,75.13.67,77.39,0l.09-7.35c-2.35-.6-75.13-.6-77.37,0Zm.51-7.16h76.46v7H89.56Z"/></g></svg>