<svg xmlns="http://www.w3.org/2000/svg" viewBox="0 0 256 256"><defs><style>.cls-1{fill:#e8eeff;}.cls-1,.cls-10,.cls-11,.cls-12,.cls-13,.cls-14,.cls-15,.cls-16,.cls-2,.cls-3,.cls-4,.cls-5,.cls-6,.cls-7,.cls-8,.cls-9{fill-rule:evenodd;}.cls-3{fill:#cdd9f8;}.cls-4{fill:#cfdaf9;}.cls-5{fill:#ffe49d;}.cls-6{fill:#ffcf6b;}.cls-7{fill:#95dcfd;}.cls-8{fill:#66637b;}.cls-9{fill:#4c485c;}.cls-10{fill:#e08daa;}.cls-11{fill:#da5f86;}.cls-12{fill:#da7e57;}.cls-13{fill:#e59a70;}.cls-14{fill:#76caf9;}.cls-15{fill:#fee29b;}.cls-16{fill:#786c4a;}</style></defs><g id="Firma"><path class="cls-1" d="M90.5,103.23c5.88,4.71,9.56,7.26,13.4,15.39a36.9,36.9,0,0,1,2.86,23.78c-3,14.15-14.36,26.06-28.57,28.81l2,10.46,18,.57c.1-.13.3.15.43.25,1.11.88,2.68,1.74,2,4.28-.54,1.89-1.94,2.32-4.2,2.38-4.54.12-9.27,0-13.84,0,1.32,6.13,10,23.24,13.26,26.45,12.31-.69,36.29-.05,50.71-.05,2.63,0,14.51-.81,16.7.86,2.06.87,2.44,1,2.75,3.66h9c.72-4.6,3.54-3.72,8.08-3.71,8.16,0,27.76.44,33.6-.11,14-1.3,20.16-12.3,20.15-25.09q0-22.58,0-45.15c0-8.57,1-38-1.21-43.79-1.74,1.41-5.36,10.69-17.74,11.36-11.32.62-13.15-8.51-22,.46-4.91,5-9.51,9.54-14.46,14.45-3.43,3.41-1.91,2.94-7.49,7-8.69,6.24-24.86,11.35-34.16,8.29-8.37-2.75-8.84-11.26-7.36-21,1.94-12.68,7.32-20.25,15.2-28.07,2-2,5.91-5.24,7.11-7.57H101.11c-1.1,2.2-4,5.44-5.62,7.89s-3.82,5.4-5,8.24m35.08,48.84c3.37-.87,54.42-.32,62.48-.32,6.81,0,25.56-1.26,30.22,1.5,7.11,4.23,6.31,16.22-2.64,18.52-3.59.92-54.17.36-62.35.36-6.39,0-26,1.05-30.24-1.31C115.2,166.42,116.65,154.37,125.58,152.07ZM181.29,189c2.39,0,8.76-7.24,14.72-1.28,5.38,5.37-5.29,5,20.51,4.85,3,0,5.72-.22,6.5,2.48.93,3.23-1.84,4.29-4.7,4.29H200.68c-8,0-8.14-5.33-10-7.12-3.41.29-4.43,4.57-10.29,3.57-5.62-1-4.85-4.49-7.23-6.94-5.06.27-16.27,13.5-20.36,9.57-2.72-2.62.24-5.09,2.53-6.59,8.5-5.55,14.87-12.28,21.1-8.92C180.35,185,179,186.34,181.29,189Z"/><path class="cls-2" d="M213.66,60.49a25,25,0,0,1-6.22-6.17c4.24-3.85,7.91-8,12-12,5.76-5.6,14.22-1.92,15.53,2.28,1.79,1.7,2,5.68,1.07,8.47-.85,2.54-2.77,4.33-4.18,5.73-2.74,2.72-7.8,7.23-9.83,10-1.81-.95-3.19-2.83-4.58-4.19s-3.1-2.64-3.81-4.17m-5.19,5.12,8.27,8c-1.25,2.19-5.13,5.62-7,7.26l-8.15-8.06-6.28-6.33,7.1-7A34.43,34.43,0,0,1,208.47,65.61Zm27.47-1c1.57,5.43,1,7.94-2.23,11.42-2.52,2.76-5.2,5.25-7.89,7.92-6.67,6.63-.48,5-2.63,11.35-1.15,3.38-6,6.13-10,3.45-3.28-2.17-4.42-7.36-1.16-10.55Zm-68.12,41.67-6.24-6,28.71-28.73c1.81,1.14,5,4.53,6.46,6.21l8.06,8.11c-4.55,4.93-9.53,9.58-14.26,14.31-2.65,2.65-12.39,13.16-14.68,14.26ZM243.61,66v5.31c-.07.4-.15.83-.25,1.27-1.65,7.55-7.14,9.09-10.59,14.24,5.36,3.59,9.09,10.54,10.44,17.11a73.15,73.15,0,0,1,.4,7.71v81.81c-.09,6.33-.7,9.85-4.08,15.74a29.41,29.41,0,0,1-14.82,12.27c-8,2.88-29.72,1.74-39.36,1.74-5.13,0-9.52,1.18-10.34-3.16.72-4.6,3.54-3.72,8.08-3.71,8.16,0,27.76.44,33.6-.11,14-1.3,20.16-12.3,20.15-25.09q0-22.58,0-45.15c0-8.57,1-38-1.21-43.79-1.16-3.41-2.93-6.5-5.11-8.06-1.62,4-2.6,11.43-12.36,12.37-10.78,1-13.81-8.75-14.74-9.68-2.81,3.58-8,8.15-11.41,11.55l-11.29,11.29c-6.61,6.62-13.88,14.93-28,17.1-15,2.29-13.92-.85-13.78-7.5.51-25.35,21.29-33.84,25.72-42.16l-9.93,0H101.11c-10.6,0-21.21,0-31.82,0-19,0-42.56-4.83-49,15.31-1.52,4.78-1.13,9.53-1.13,14.67,0,11.87.77,9.64-3.34,12.2-2.49-.89-3.24-1.24-3.44-3V107.38a27.58,27.58,0,0,1,2.55-10.31,29.23,29.23,0,0,1,2.32-4c10.33-15.46,26.58-13,43.45-13H167.29c2.43,0,4.1.43,5.56-.76l37.68-37.74c1.92-1.93,4-4.44,6.23-6,14.36-9.79,32.93,5.72,24.86,21.72C240,60.49,242.75,61.81,243.61,66Zm-91.67,64-6.14.54c-.88-7.28,2.5-15.35,6.52-20.75,1.45-2,3-3.12,4.39-4.69,1.87,1.87,4.74,4,6,6.37,1.35.55,3,2.63,4.17,3.77,1.42,1.42,3.29,2.66,4.12,4.66C165.16,123.94,163,128.17,151.94,130Z"/><path class="cls-3" d="M15.83,129.29a22.51,22.51,0,0,0,0,8.58c3.52,2.32,3.38-1,3.38,10.38V190.7c0,7.92,1.46,15.37,7.71,20.29,7.46,5.88,11.86,5.37,23,5.37,37.73,0,75.63-.33,113.34,0-2.19-1.67-14.07-.86-16.7-.86-14.42,0-38.4-.64-50.71.05-3.25-3.21-11.94-20.32-13.26-26.45-3.7,0-38.69.28-40.46-.18-3.23-.84-4.13-6.4,1.89-6.61l54.66.14c-.13-.1-.33-.38-.43-.25l-18-.57-2-10.46C51.69,177,28,153.52,33.62,127a37,37,0,0,1,20.19-25.85,37.44,37.44,0,0,1,19-3.7c8.2.58,11.61,2.85,17.65,5.78,1.17-2.84,3.36-5.77,5-8.24s4.52-5.69,5.62-7.89c-10.6,0-21.21,0-31.82,0-19,0-42.56-4.83-49,15.31-1.52,4.78-1.13,9.53-1.13,14.67,0,11.87.77,9.64-3.34,12.2m23.85,74.06c-.63-4.41,3.7-4,7-4H70.2c3.53,0,8.3-.83,8.93,2.74.77,4.31-3.61,4-7.13,4H48.52C45.07,206.15,40.18,206.93,39.68,203.35Z"/><path class="cls-2" d="M166,220.06c-.31-2.65-.69-2.79-2.75-3.66-37.71-.37-75.61,0-113.34,0-11.15,0-15.55.51-23-5.37-6.25-4.92-7.72-12.37-7.71-20.29V148.25c0-11.34.14-8.06-3.38-10.38-2.3.85-3.13,1.32-3.4,2.93v55.68c.41,11.52,9.47,22,19.92,25.34,4.88,1.55,7.68,1.4,13.95,1.4H153.74c6,0,11.72,1.2,12.23-3.16"/><path class="cls-2" d="M125.58,152.07c-8.93,2.3-10.38,14.35-2.53,18.75,4.21,2.36,23.85,1.31,30.24,1.31,8.18,0,58.76.56,62.35-.36,9-2.3,9.75-14.29,2.64-18.52-4.66-2.76-23.41-1.5-30.22-1.5-8.06,0-59.11-.55-62.48.32m88.52,12.69c-1.08,1-3.39.63-5.27.62l-74.06,0c-3.61,0-8.35.79-9.59-1.71a3.32,3.32,0,0,1,2.38-5.05,69.68,69.68,0,0,1,8.33-.07c3.46,0,76.37-.37,78.25.22C217,159.62,217.36,164,214.1,164.76Z"/><path class="cls-2" d="M78.19,171.21c14.21-2.75,25.57-14.66,28.57-28.81a36.9,36.9,0,0,0-2.86-23.78c-3.84-8.13-7.52-10.68-13.4-15.39-6-2.93-9.45-5.2-17.65-5.78a37.44,37.44,0,0,0-19,3.7A37,37,0,0,0,33.62,127C28,153.52,51.69,177,78.19,171.21m-1.64-6.6c-10.53,3.08-20.88-2.32-26.66-6.9-5.25-4.16-10.72-13.76-10.28-24.37,1.18-28.15,33.32-32.6,38.55-27.8,6.21-.08,13.81,7.4,16.22,10.4a30.74,30.74,0,0,1,6.39,20.12C100.2,150.47,89.24,162.42,76.55,164.61Z"/><path class="cls-4" d="M235.62,102.21c-1.16-3.41-2.93-6.5-5.11-8.06-1.62,4-2.6,11.43-12.36,12.37-10.78,1-13.81-8.75-14.74-9.68-2.81,3.58-8,8.15-11.41,11.55l-11.29,11.29c-6.61,6.62-13.88,14.93-28,17.1-15,2.29-13.92-.85-13.78-7.5.51-25.35,21.29-33.84,25.72-42.16l-9.93,0c-1.2,2.33-5.08,5.55-7.11,7.57-7.88,7.82-13.26,15.39-15.2,28.07-1.48,9.72-1,18.23,7.36,21,9.3,3.06,25.47-2.05,34.16-8.29,5.58-4,4.06-3.54,7.49-7,5-4.91,9.55-9.5,14.46-14.45,8.89-9,10.72.16,22-.46,12.38-.67,16-9.95,17.74-11.36"/><path class="cls-5" d="M71.55,111.1c1.33,1.22,1.25.37,1.73,2.49l.49,1.25v2.7c.68,0,1.71-.06,2.34,0,1.65.11.84-.06,1.74.52a3.18,3.18,0,0,1,1.5,5.49c-2.84,2.78-13.13-1.76-12.47,4.83.3,3,2.64,2.7,5.48,3.26a10,10,0,0,1,8,9.4c.29,6.63-3.77,8.42-6.7,10.23-.28,4.31.72,7.11-4.13,7.21,1.21,2.6,4,3.34,6.31,5.42l.73.73c12.69-2.19,23.65-14.14,24.22-28.55a30.74,30.74,0,0,0-6.39-20.12c-2.41-3-10-10.48-16.22-10.4-2.22-.57-3.1.45-4.7,1.72a40.29,40.29,0,0,1-3.88,2.91,6.5,6.5,0,0,1,.73.18Z"/><path class="cls-6" d="M76.55,164.61l-.73-.73c-2.35-2.08-5.1-2.82-6.31-5.42-1.5-.67-2-.58-2.44-2.17a11.49,11.49,0,0,1-.24-2.61c-.31-2.16.36-.68-.69-1.82v3.41c-.09-.39-1.45-2.36-2-3.56-4.5-.11-4.91-2.93-3-6.1-.69-2.94-3.23-13-1-15.53-.48-5.6,1-6.88,3.12-9.94-.27-.4-1.38.76,1.06-3a22,22,0,0,0,1.77-3v4.17c1.14-1.12.62-.36.71-2.61a7.35,7.35,0,0,1,.23-2.61c.56-1.81,2.06-2.19,4.47-2l-1.24-.75a6.5,6.5,0,0,0-.73-.18,40.29,40.29,0,0,0,3.88-2.91c1.6-1.27,2.48-2.29,4.7-1.72-5.23-4.8-37.37-.35-38.55,27.8-.44,10.61,5,20.21,10.28,24.37,5.78,4.58,16.13,10,26.66,6.9"/><path class="cls-2" d="M181.29,189c-2.27-2.66-.94-4-4.86-6.09-6.23-3.36-12.6,3.37-21.1,8.92-2.29,1.5-5.25,4-2.53,6.59,4.09,3.93,15.3-9.3,20.36-9.57,2.38,2.45,1.61,6,7.23,6.94,5.86,1,6.88-3.28,10.29-3.57,1.86,1.79,2,7.12,10,7.12h17.64c2.86,0,5.63-1.06,4.7-4.29-.78-2.7-3.53-2.5-6.5-2.48-25.8.16-15.13.52-20.51-4.85-6-6-12.33,1.27-14.72,1.28"/><path class="cls-7" d="M214.1,164.76c3.26-.72,2.86-5.14,0-6-1.88-.59-74.79-.25-78.25-.22-.76,2.45-1.19,3.6-.16,6.09,3.84,1.12,32.86.35,39.24.35,12.95,0,26.47.22,39.13-.21"/><path class="cls-2" d="M66.14,118.36l-2.83,1.78c-2.09,3.06-3.6,4.34-3.12,9.94,3.17,9.44,8.66,6.75,11.84,8.65a3.35,3.35,0,0,1-1.5,6.16c-3.25.46-6.28-.63-9.33.72-1.93,3.17-1.52,6,3,6.1l2,.15c1,1.14.38-.34.69,1.82a11.49,11.49,0,0,0,.24,2.61c.47,1.59.94,1.5,2.44,2.17,4.85-.1,3.85-2.9,4.13-7.21,2.93-1.81,7-3.6,6.7-10.23a10,10,0,0,0-8-9.4c-2.84-.56-5.18-.26-5.48-3.26-.66-6.59,9.63-2.05,12.47-4.83a3.18,3.18,0,0,0-1.5-5.49l-4.41-.26-.16-4.19c-.48-2.12-.4-1.27-1.73-2.49-2.41-.15-3.91.23-4.47,2a7.35,7.35,0,0,0-.23,2.61c-.09,2.25.43,1.49-.71,2.61"/><path class="cls-8" d="M167.82,106.29l8.05,8.14c2.29-1.1,12-11.61,14.68-14.26,4.73-4.73,9.71-9.38,14.26-14.31l-8.06-8.11c-2,.5-6,5.26-7.7,6.92-3.66,3.66-20.32,19.86-21.23,21.62"/><path class="cls-2" d="M82.55,189.14c4.57,0,9.3.13,13.84,0,2.26-.06,3.66-.49,4.2-2.38.73-2.54-.84-3.4-2-4.28L44,182.35c-6,.21-5.12,5.77-1.89,6.61,1.77.46,36.76.16,40.46.18"/><path class="cls-9" d="M167.82,106.29c.91-1.76,17.57-18,21.23-21.62,1.66-1.66,5.74-6.42,7.7-6.92-1.47-1.68-4.65-5.07-6.46-6.21l-28.71,28.73Z"/><path class="cls-9" d="M212,88.21c-3.26,3.19-2.12,8.38,1.16,10.55,4,2.68,8.86-.07,10-3.45,2.15-6.31-4-4.72,2.63-11.35,2.69-2.67,5.37-5.16,7.89-7.92,3.19-3.48,3.8-6,2.23-11.42Z"/><path class="cls-10" d="M213.66,60.49c.71,1.53,2.45,2.82,3.81,4.17s2.77,3.24,4.58,4.19c2-2.77,7.09-7.28,9.83-10,1.41-1.4,3.33-3.19,4.18-5.73.93-2.79.72-6.77-1.07-8.47-6.23-.37-9.69,3.73-12.31,6.36-1.67,1.67-8.48,7.88-9,9.48"/><path class="cls-2" d="M39.68,203.35c.5,3.58,5.39,2.8,8.84,2.8H72c3.52,0,7.9.28,7.13-4-.63-3.57-5.4-2.75-8.93-2.74H46.71c-3.33,0-7.66-.43-7,4"/><path class="cls-11" d="M213.66,60.49c.54-1.6,7.35-7.81,9-9.48,2.62-2.63,6.08-6.73,12.31-6.36-1.31-4.2-9.77-7.88-15.53-2.28-4.11,4-7.78,8.1-12,12a25,25,0,0,0,6.22,6.17"/><path class="cls-12" d="M151.94,130c0-5.88,7.7-17.45,10.76-18.53-1.25-2.36-4.12-4.5-6-6.37-1.35,1.57-2.94,2.73-4.39,4.69-4,5.4-7.4,13.47-6.52,20.75Z"/><path class="cls-13" d="M151.94,130c11.07-1.85,13.22-6.08,19.05-10.1-.83-2-2.7-3.24-4.12-4.66-1.14-1.14-2.82-3.22-4.17-3.77-3.06,1.08-10.73,12.65-10.76,18.53"/><path class="cls-5" d="M201.62,72.81l8.15,8.06c1.84-1.64,5.72-5.07,7-7.26l-8.27-8c-1.65.91-2.53,2.16-3.85,3.47s-2.62,2-3,3.73"/><path class="cls-5" d="M61.2,145.61c3-1.35,6.08-.26,9.33-.72a3.35,3.35,0,0,0,1.5-6.16c-3.18-1.9-8.67.79-11.84-8.65-2.22,2.56.32,12.59,1,15.53"/><path class="cls-14" d="M214.1,164.76c-12.66.43-26.18.21-39.13.21-6.38,0-35.4.77-39.24-.35-1-2.49-.6-3.64.16-6.09a69.68,69.68,0,0,0-8.33.07,3.32,3.32,0,0,0-2.38,5.05c1.24,2.5,6,1.69,9.59,1.71l74.06,0c1.88,0,4.19.38,5.27-.62"/><path class="cls-6" d="M201.62,72.81c.38-1.73,1.82-2.55,3-3.73s2.2-2.56,3.85-3.47a34.43,34.43,0,0,0-6-6.16l-7.1,7Z"/><path class="cls-15" d="M63.31,120.14l2.83-1.78v-4.17a22,22,0,0,1-1.77,3c-2.44,3.75-1.33,2.59-1.06,3"/><path class="cls-15" d="M66.14,151.86l-2-.15c.51,1.2,1.87,3.17,2,3.56Z"/><path class="cls-16" d="M77.85,118c-.9-.58-.09-.41-1.74-.52-.63,0-1.66,0-2.34,0v-2.7l-.49-1.25.16,4.19Z"/></g></svg>